<?xml version="1.0" encoding="UTF-8"?>
<svg id="_レイヤー_1" xmlns="http://www.w3.org/2000/svg" version="1.1" viewBox="0 0 300 200">
  <!-- Generator: Adobe Illustrator 30.0.0, SVG Export Plug-In . SVG Version: 2.1.1 Build 123)  -->
  <defs>
    <style>
      .st0 {
        fill: #ceb372;
      }
    </style>
  </defs>
  <path class="st0" d="M114.12,92.19v-17.89h2.83v17.89h-2.83Z"/>
  <path class="st0" d="M120.38,92.19v-18.17h2.71v18.17h-2.71Z"/>
  <path class="st0" d="M126.26,92.19v-18.17h2.71v18.17h-2.71Z"/>
  <path class="st0" d="M136.78,92.48c-.98,0-1.84-.22-2.58-.66-.74-.44-1.32-1.06-1.72-1.85-.4-.79-.6-1.71-.6-2.75v-8.02h2.71v7.78c0,.59.12,1.11.36,1.56s.58.8,1.01,1.04c.43.25.93.37,1.49.37s1.08-.13,1.51-.38c.43-.26.77-.62,1.01-1.08.24-.46.36-1.01.36-1.63v-7.66h2.71v12.99h-2.59v-2.54l.31.34c-.3.82-.81,1.44-1.53,1.86s-1.53.64-2.46.64Z"/>
  <path class="st0" d="M151.02,92.48c-1.34,0-2.51-.33-3.5-.98s-1.69-1.54-2.09-2.64l2.09-.98c.35.74.84,1.32,1.45,1.75.62.43,1.3.65,2.05.65.64,0,1.16-.14,1.56-.43.4-.29.6-.68.6-1.18,0-.3-.09-.56-.26-.76-.18-.2-.4-.36-.66-.49-.26-.13-.53-.23-.8-.31l-2.04-.58c-1.14-.32-1.98-.8-2.53-1.44-.55-.64-.83-1.39-.83-2.26,0-.78.2-1.47.6-2.06.4-.59.95-1.05,1.66-1.37s1.5-.48,2.4-.48c1.18,0,2.24.29,3.17.88.93.58,1.58,1.4,1.97,2.44l-2.11,1.01c-.26-.64-.66-1.14-1.2-1.51-.54-.37-1.16-.55-1.85-.55-.59,0-1.06.14-1.42.42-.35.28-.53.64-.53,1.09,0,.3.08.56.24.76.16.2.37.36.62.48s.52.22.79.3l2.11.62c1.07.3,1.9.78,2.47,1.43.58.65.86,1.42.86,2.32,0,.77-.2,1.44-.61,2.03-.41.58-.97,1.04-1.69,1.37s-1.56.49-2.52.49Z"/>
  <path class="st0" d="M164.13,92.33c-1.36,0-2.42-.38-3.17-1.15-.75-.77-1.13-1.85-1.13-3.24v-6.27h-2.3v-2.47h.36c.61,0,1.08-.18,1.43-.53.34-.35.52-.83.52-1.44v-1.01h2.71v2.98h2.95v2.47h-2.95v6.15c0,.45.07.83.22,1.14.14.31.38.55.7.72.32.17.74.25,1.25.25.13,0,.27,0,.43-.02.16-.02.31-.03.46-.05v2.33c-.22.03-.47.06-.75.1-.27.03-.51.05-.72.05Z"/>
  <path class="st0" d="M168.23,92.19v-12.99h2.59v2.64l-.24-.38c.29-.86.75-1.48,1.39-1.86.64-.38,1.41-.56,2.3-.56h.79v2.47h-1.13c-.9,0-1.62.28-2.17.84-.55.56-.83,1.34-.83,2.35v7.49h-2.71Z"/>
  <path class="st0" d="M180.81,92.48c-.88,0-1.65-.15-2.32-.46-.66-.3-1.18-.74-1.55-1.3-.37-.56-.55-1.22-.55-1.97,0-.7.16-1.34.47-1.9.31-.56.79-1.03,1.44-1.42.65-.38,1.48-.66,2.49-.82l4.51-.74v2.16l-3.99.67c-.72.13-1.25.36-1.58.7s-.5.75-.5,1.25.19.9.56,1.21c.38.31.86.47,1.45.47.72,0,1.36-.16,1.91-.48.55-.32.98-.75,1.3-1.28.31-.54.47-1.13.47-1.79v-3.34c0-.62-.24-1.14-.72-1.55s-1.11-.61-1.9-.61c-.71,0-1.33.18-1.86.55-.54.37-.93.86-1.19,1.46l-2.28-1.13c.26-.64.65-1.21,1.19-1.71.54-.5,1.17-.88,1.9-1.15s1.51-.41,2.34-.41c1.02,0,1.93.19,2.73.58.79.38,1.41.92,1.85,1.6.44.68.66,1.47.66,2.37v8.74h-2.59v-2.33l.53.05c-.3.53-.69.98-1.15,1.37-.46.38-1,.68-1.61.89s-1.27.31-1.99.31Z"/>
  <path class="st0" d="M196.18,92.33c-1.36,0-2.42-.38-3.17-1.15-.75-.77-1.13-1.85-1.13-3.24v-6.27h-2.3v-2.47h.36c.61,0,1.08-.18,1.43-.53.34-.35.52-.83.52-1.44v-1.01h2.71v2.98h2.95v2.47h-2.95v6.15c0,.45.07.83.22,1.14.14.31.38.55.7.72.32.17.74.25,1.25.25.13,0,.27,0,.43-.02.16-.02.31-.03.46-.05v2.33c-.22.03-.47.06-.74.1s-.51.05-.72.05Z"/>
  <path class="st0" d="M200.29,77.42v-3.12h2.71v3.12h-2.71ZM200.29,92.19v-12.99h2.71v12.99h-2.71Z"/>
  <path class="st0" d="M212.43,92.48c-1.26,0-2.41-.3-3.43-.89-1.02-.59-1.84-1.4-2.45-2.42s-.91-2.18-.91-3.48.3-2.48.9-3.49c.6-1.02,1.41-1.82,2.44-2.4,1.02-.58,2.18-.88,3.46-.88s2.43.29,3.45.88c1.02.58,1.83,1.38,2.43,2.4.6,1.02.9,2.18.9,3.49s-.3,2.48-.91,3.51-1.42,1.83-2.45,2.41c-1.03.58-2.16.88-3.41.88ZM212.43,89.95c.75,0,1.42-.18,2.02-.55.59-.37,1.06-.88,1.4-1.52.34-.65.52-1.38.52-2.2s-.17-1.54-.52-2.17c-.34-.63-.81-1.14-1.4-1.51-.59-.38-1.26-.56-2.02-.56s-1.43.19-2.03.56c-.6.38-1.07.88-1.42,1.51-.34.63-.52,1.36-.52,2.17s.17,1.55.52,2.2c.34.65.82,1.16,1.42,1.52s1.28.55,2.03.55Z"/>
  <path class="st0" d="M221.85,92.19v-12.99h2.59v2.54l-.31-.34c.32-.82.83-1.44,1.54-1.86.7-.42,1.52-.64,2.45-.64s1.81.21,2.54.62c.74.42,1.31.99,1.73,1.73.42.74.62,1.58.62,2.54v8.38h-2.71v-7.66c0-.64-.12-1.19-.36-1.64s-.58-.81-1.01-1.07c-.43-.26-.93-.38-1.49-.38s-1.06.13-1.5.38-.78.61-1.02,1.07c-.24.46-.36,1-.36,1.64v7.66h-2.71Z"/>
  <path class="st0" d="M155.34,121l-4.9-17.89h3l3.99,15.49h-.74l4.13-15.49h2.95l4.13,15.49h-.77l3.99-15.49h3l-4.9,17.89h-3.19l-4.15-15.25h.84l-4.18,15.25h-3.19Z"/>
  <path class="st0" d="M176.23,121v-17.89h2.83v17.89h-2.83Z"/>
  <path class="st0" d="M182.76,121v-17.89h6.51c1.2,0,2.26.22,3.18.66.92.44,1.64,1.08,2.15,1.92.51.84.77,1.84.77,3.01s-.26,2.14-.78,2.98c-.52.83-1.24,1.47-2.15,1.92s-1.97.67-3.17.67h-3.67v6.72h-2.83ZM185.59,111.75h3.75c.64,0,1.2-.13,1.68-.38.48-.26.85-.61,1.12-1.07.26-.46.4-.99.4-1.6s-.13-1.17-.4-1.62c-.26-.46-.64-.81-1.12-1.07-.48-.26-1.04-.38-1.68-.38h-3.75v6.12Z"/>
</svg>