<?xml version="1.0" encoding="UTF-8"?>
<svg id="_レイヤー_1" xmlns="http://www.w3.org/2000/svg" version="1.1" viewBox="0 0 300 200">
  <!-- Generator: Adobe Illustrator 30.0.0, SVG Export Plug-In . SVG Version: 2.1.1 Build 123)  -->
  <defs>
    <style>
      .st0 {
        fill: #ceb372;
      }

      .st1 {
        fill: none;
        stroke: #ceb372;
        stroke-linecap: round;
        stroke-linejoin: round;
      }

      .st2 {
        fill: #fff;
      }

      .st3 {
        fill: #555;
      }
    </style>
  </defs>
  <rect class="st3" x="-36.97" y="-27.82" width="462.78" height="271.69"/>
  <path class="st2" d="M80.07,165.08c-3.26-.23-6.76-1.48-2.99-4.59,6.35-5.23,30.01-4.62,39.2-6.22,1.73-.3,6.58-1.2,7.81-2.11,2.78-2.06-2.28-2.91-3.62-3.19-7.63-1.57-17.18-.64-25-.13-16.45,1.07-32.95,3.58-49.07,6.72-.75.15-2.37.42-3.05.45-1.15.04-1.65-.98-.84-1.64.28-.23,6.01-1.96,6.81-2.14.88-.2,1.81-.35,2.7-.51,15.95-2.88,33.11-5.28,49.33-5.29,6.57,0,13.26.35,19.66,1.96,1.8.46,5.44.97,4.55,3.61-.75,2.23-5.29,3.02-7.37,3.45-11.18,2.35-29.21.19-38.67,4.89-.62.31-3.17,1.77-2.51,2.66,1.01.2,1.93.48,2.99.53,7.54.35,16.02-1.28,23.52-.88.77.04,1.58.03,2.02.77.44,1.38-.88,1.37-1.62,2.05-1.71,1.57-3.06,3.52-5,4.88l9.2-.97c3.39.04,14.54-.76,16.7,1.92.9,1.12.4,1.95-.51,2.84l-7.55,3.72c3.5-.05,7-.34,10.5-.39,12.78-.17,25.77-.98,38.54-.76,4.21.07,94.96.92,98.91,2.21.73.24,1.18.57,1.66,1.15.09.34-.19.64-.49.75-.74.26-8.62-1.05-10.34-1.15-12.02-.68-108.33-.53-120.39-.26-5.87.13-12.31.58-18.18.34-.8-.03-2.78-.16-3.17-.83l-.19-.76c.13-2.18,8.45-3.84,9.84-5.7,0-.51-2.85-1.11-3.42-1.2-5.71-.92-11.47-.14-17.14.24-11.44.77-2.81-2.64-.43-7.21l-22.39.81v-.02Z"/>
  <g>
    <path class="st2" d="M111.54,89.59c-.53.41-1.13-.08-1.6.12-1.98.85-3.64,4.08-4.83,5.63-5.24,6.82-11.11,13.35-16.49,20.31-.36.47-1.24,1.13-1.39,1.39-.35.6-.13,1.3-.37,1.81-.16.34-.67.34-.9.59-.45.49-.54,1.54-1.28,2.1-1.21.91-2.74.1-3.82-.66-1.36,2.69-3.31,5.32-4.62,8.01-.86,1.78-1.88,6.21-2.87,7.21-.64.64-1.43.63-2.12,1.04-6.79,4.05-13.65,7.9-20.42,12l-7.05,5.4c-4.21.02-1.27-2.68.67-3.71.08-.13-1.78-.45-1.45-2.37,2.19-4.48,3.73-9.24,5.16-14.02.53-1.77,1.32-3.8,1.71-5.53.24-1.05.28-3.35.59-4.09.43-.98,1.26-.71,1.45-.89.13-.12.19-.83.48-1.25,1.05-1.48,2.94-2.81,4.09-4.26l9.78-8.27c.48-.74-2.17-2.48-.75-4.61.86-1.29,2-1.23,2.81-1.89s1.6-2.46,2.32-3.36c2.02-2.53,4.43-4.75,6.47-7.26,4.22-5.17,8.01-10.66,12.48-15.66,1.15-1.28,3.49-2.81,3.66-4.54.13-1.35-.13-2.79.19-4.29.56-2.65,6.29-8.81,8.14-11.42,3.84-5.43,6.68-10.72,11.21-15.83,3.07-3.46,6.73-6.18,9.97-9.42,9.74-9.7,15.4-22.45,29.75-26.76,7.76-2.33,14.08,3.75,13.89,11.39-.23,9.43-8.43,16.65-13.01,24.36-9.1,15.33-20.44,29.34-33.08,41.92-.79.79-1.46,2.38-2.86,2.4-.41,0-.76-.33-1.12-.29-.52.06-2.72,1.81-3.17,2.31-.52.57-1.34,2.14-1.63,2.36v.03ZM118.13,80.78c1.25-2.84,3.53-4.98,5.32-7.42,6.65-9.05,12.93-18.81,19.68-27.69,4.08-5.37,8.26-8.95,12.69-13.69,4.68-5.02,12.4-13.67,7.24-20.51-2.78-3.69-5.39-4.9-9.89-3.25-12.72,4.68-17.81,15.34-26.5,24.57-4.14,4.4-8.61,7.74-12.42,12.62-4.17,5.34-7.22,11.77-11.55,16.82-1.45,1.69-3.35,3.33-4.81,5.07,5.1,1.11,10.65,3.43,14.5,7.04,1.83,1.72,3.48,4.69,5.14,6.12.19.17.21.37.6.31h0ZM115,83.98c-2.38-2-3.9-5.23-5.98-7.62-1.84-2.11-8.25-7.26-10.9-7.66-3.13-.47-1.95,2.98-2.96,4.99,5.86,2.28,11.07,5.93,15.25,10.65.5.56,1.21,1.3,1.29,2.04l3.29-2.41h.01ZM70.25,104.8c5.64,2.37,11.62,5.43,15.69,10.07,3.35-4,6.37-8.26,9.76-12.24,2.48-2.91,5.29-5.59,7.73-8.53.72-.87,1.11-1.99,1.97-2.93,1.64-1.79,4.22-2.35,2.97-5.18-1.13-2.57-5.01-6.15-7.31-7.8-1-.72-5.81-3.73-6.76-3.45-.29.08-3.47,3.39-3.93,3.91-4.23,4.84-7.95,10.7-11.94,15.77-2.72,3.45-6.18,6.38-8.18,10.38ZM83.29,119.38c.25-1.27.28-1.88-.46-2.93-.68-.96-6.88-6.13-7.91-6.65-.46-.24-1.29-.1-1.76-.5-.35-.29-.4-.72-.68-.93-1.5-1.11-3.11-1.79-4.88-2.34-.79.78,3.5,4.09,4.13,4.54,3.08,2.2,6.37,4.2,9.27,6.68.36.31,1.93,2.46,2.31,2.13h-.02ZM49.14,147.18l5.06-2.62c5.42-4.02,11.86-6.09,17.63-9.5-.14-2.37.58-4.69,1.62-6.79,1.41-2.84,3.95-6.5,6.26-8.65l-.33-.42-11.39-7.83c-1.5,2.54-4.04,5.12-6.22,7.15-1.49,1.38-5.99,5.42-7.51,6.24-.48.26-.87.44-1.43.35,1.28,5.72-1.87,11.35-3.12,16.83,2.75-2.75,5.27-5.86,7.84-8.81.54-.62,2.02-1.78,2.29-2.27.7-1.25-1.27-2.61.51-4.18,2.4-2.11,6.45,1.42,3.72,4.64-.92,1.08-1.71,1.1-3.04.6l-11.9,15.26h.01Z"/>
    <path class="st0" d="M49.14,147.18l11.9-15.26c1.33.51,2.12.49,3.04-.6,2.73-3.22-1.31-6.75-3.72-4.64-1.78,1.56.19,2.93-.51,4.18-.27.49-1.75,1.64-2.29,2.27-2.57,2.96-5.09,6.06-7.84,8.81,1.25-5.48,4.4-11.11,3.12-16.83.56.09.95-.09,1.43-.35,1.52-.83,6.03-4.87,7.51-6.24,2.19-2.02,4.73-4.61,6.22-7.15l11.39,7.83.33.42c-2.31,2.15-4.86,5.81-6.26,8.65-1.04,2.1-1.77,4.42-1.62,6.79-5.78,3.41-12.22,5.49-17.63,9.5l-5.06,2.62h0Z"/>
    <path class="st2" d="M115,83.98l-3.29,2.41c-.08-.74-.79-1.48-1.29-2.04-4.18-4.72-9.39-8.37-15.25-10.65,1.01-2.01-.17-5.46,2.96-4.99,2.65.4,9.06,5.54,10.9,7.66,2.08,2.39,3.59,5.62,5.98,7.62h-.01Z"/>
    <path class="st2" d="M83.29,119.38c-.38.33-1.94-1.82-2.31-2.13-2.9-2.48-6.19-4.48-9.27-6.68-.63-.45-4.91-3.76-4.13-4.54,1.77.55,3.39,1.23,4.88,2.34.29.21.34.64.68.93.48.4,1.3.27,1.76.5,1.03.52,7.23,5.69,7.91,6.65.74,1.05.71,1.66.46,2.93h.02Z"/>
  </g>
  <g>
    <path class="st2" d="M203.13,95.91l.03,1.73c3,.16,7.12.67,9.71,2.2.72.42,1.31,1.11,2.15,1.6,2.15,1.22,2.32.35,3.68,3.09,4.03,8.12.59,22.55,1.43,31.83.15,1.69.87,3.15.67,4.97-.11,1.05-.8,1.69-1.08,2.63-.97,3.18-.78,5.02-4.34,6.63-6.48,2.93-15.62,5.11-22.81,4.98-8.34-.16-17.34.84-25.58-.4-4.3-.64-5.93-2.05-9.57-3.79-.98-.47-2.16-.58-3.28-1.16-1.81-.93-4.4-2.94-4.77-5.04-.49-2.78-.43-8.04-.43-11.03,0-4.39.66-8.81.79-13.09.13-4.18-.94-8.58-.15-12.75.08-.41.22-.72.4-1.08.69-1.44,5.15-4.89,6.66-5.68,2.36-1.23,5.52-1.98,8.12-2.51.54-2.37-1.42-1.86-2.51-3.16-.43-.51-.59-.97-.67-1.62-.22-1.65.04-6.48.22-8.28.11-1.03,1.03-2.1,1.23-3.22,3.5-2.11,7.51-3.59,11.48-4.6,3.36-.86,7.21-1,10.71-.98,4.43.03,11.54,1.23,15.78,2.58,4.74,1.52,6.27,6.48,5.91,11.06-.18,2.21-1.39,4.67-3.78,5.09h0ZM203.15,92.78c1.73-1.94.44-7.44-1.37-9.17-1.49-1.43-4.02-1.46-5.87-2.03-5.93-1.82-10.77-2.84-17.16-2.16-1.85.2-11.67,2.73-12.53,3.86-.32.42-.15.98-.46,1.27s-1.27.22-1.44.84l.37,7.86c1.03,1.94,9.73,2.72,11.92,2.83,5.55.28,13.97-.42,19.52-1.24,1.43-.21,6.22-1.16,7.03-2.07h0ZM201.61,96.44c-4.63,1.17-9.4,1.13-14.14,1.52-4.36.36-7.74.86-12.29.69-2.9-.1-5.8-.51-8.7-.69l1.04,2.72c2.17.65,4.29,1.78,6.48,2.36,1.56.41,5.24.64,6.37,1.23,2.21,1.15.21,2.6-1.62,2.81-4.85.55-8.69-.4-12.09-3.97-.48-.5-.83-1.8-1.69-1.81-4.03,1.72-8.81,2.39-11.73,5.94.91-.11,1.59,1.11,2.33,1.54.53.31,4.73.96,5.75,1.11,3.97.6,8.04.85,12.02,1.36,1.06,2.35-2.69,1.97-4.18,1.94-3.77-.09-10.98-.35-14.16-2.24-.92-.54-2.33-2.3-2.26-3.44-.44.19-.81.75-.91,1.22-.32,1.6-.5,5.02-.56,6.75-.38,10.61.85,19.78,3.71,29.9.82,2.89,1.9,3.22,4.47,4.32,12.36,5.28,26.12,2.62,38.97,1.38,6.07-.58,9.46.08,15.27-2.77,1.61-.79,2.2-1.46,2.41-3.34.35-3.23.21-6.56.21-9.74,0-7.72.87-15.4.68-23.15l-.76-6.62c-1.09,1.33-2.46,2.84-3.96,3.71-2.31,1.35-10.37,2.71-13.04,2.44-.39-.04-1.04-.2-1.13-.63-.22-1.09,3.44-1.14,4.27-1.32,2.28-.5,6.29-1.14,8.25-2.02.46-.21,3.34-2.11,3.47-2.35.28-.53-.11-1.45.55-2.03-1.43-.4-2.26-1.36-3.71-1.88-2.26-.81-4.78-1.03-7.12-1.49l-.36.11c-.97,2.36-2.62,3.79-5.1,4.49-1.77.5-7.02,1.18-8.87,1.2-1.43.02-2.72-1.18-1.24-2.12,2.63-.64,12.36-.95,13.14-4.03l.19-3.1h.04Z"/>
    <path class="st0" d="M201.61,96.44l-.19,3.1c-.78,3.08-10.51,3.39-13.14,4.03-1.48.94-.19,2.14,1.24,2.12,1.85-.02,7.1-.71,8.87-1.2,2.48-.7,4.13-2.13,5.1-4.49l.36-.11c2.34.46,4.86.67,7.12,1.49,1.45.52,2.27,1.49,3.71,1.88-.66.58-.28,1.5-.55,2.03-.13.24-3,2.15-3.47,2.35-1.96.88-5.97,1.52-8.25,2.02-.83.18-4.49.24-4.27,1.32.09.43.74.59,1.13.63,2.67.26,10.73-1.09,13.04-2.44,1.5-.88,2.87-2.38,3.96-3.71l.76,6.62c.19,7.75-.68,15.43-.68,23.15,0,3.18.14,6.51-.21,9.74-.21,1.88-.79,2.54-2.41,3.34-5.81,2.86-9.2,2.19-15.27,2.77-12.85,1.24-26.61,3.9-38.97-1.38-2.58-1.1-3.66-1.43-4.47-4.32-2.86-10.12-4.09-19.29-3.71-29.9.06-1.73.24-5.16.56-6.75.09-.47.47-1.03.91-1.22-.07,1.14,1.34,2.89,2.26,3.44,3.18,1.89,10.38,2.16,14.16,2.24,1.49.03,5.24.41,4.18-1.94-3.98-.51-8.05-.76-12.02-1.36-1.02-.16-5.22-.81-5.75-1.11-.74-.43-1.42-1.65-2.33-1.54,2.92-3.55,7.7-4.22,11.73-5.94.86,0,1.21,1.31,1.69,1.81,3.41,3.57,7.24,4.52,12.09,3.97,1.83-.21,3.82-1.66,1.62-2.81-1.14-.59-4.81-.81-6.37-1.23-2.19-.58-4.31-1.71-6.48-2.36l-1.04-2.72c2.89.18,5.8.58,8.7.69,4.55.16,7.92-.34,12.29-.69,4.74-.39,9.51-.35,14.14-1.52h-.04ZM155.87,115c-.78.75-.26,8.8-.21,10.39.11,3.69-.02,8.5.44,12.04.54,4.16,1.92,4.33,5.73,5.31,8.57,2.19,20.56,3.7,29.39,3.09,6.9-.48,13.91-.93,20.34-3.64,1.28-.54.91-.5,2.42-.88,1.41-.35,1.66-1.21,1.74-2.53.3-5.28-.94-12.43-1.42-17.79-.17-1.94.11-4.45-.23-6.27-.07-.39-.28-.97-.69-1.09-1.5-.43-1.2,1.03-1.96,1.5-.49.31-1.41.33-2.02.55-3.17,1.16-4.59,1.84-8.13,2.14-10.45.87-24.19.96-34.36-1.4-3.03-.7-6.04-1.75-9.04-2.55-1.23-.05-.9.49-1.4.98-.12.12-.48.05-.58.15h-.02Z"/>
    <path class="st2" d="M155.87,115c.1-.1.46-.04.58-.15.51-.49.17-1.03,1.4-.98,3.01.8,6.02,1.85,9.04,2.55,10.17,2.36,23.91,2.27,34.36,1.4,3.55-.29,4.96-.98,8.13-2.14.61-.22,1.52-.24,2.02-.55.76-.47.46-1.93,1.96-1.5.42.12.62.7.69,1.09.35,1.82.06,4.33.23,6.27.48,5.36,1.72,12.51,1.42,17.79-.07,1.32-.33,2.18-1.74,2.53-1.51.38-1.14.34-2.42.88-6.43,2.71-13.44,3.16-20.34,3.64-8.83.61-20.82-.9-29.39-3.09-3.82-.97-5.19-1.15-5.73-5.31-.46-3.54-.32-8.35-.44-12.04-.05-1.58-.57-9.63.21-10.39h.02ZM211.68,117.69c-.28-.24-5.77,1.86-6.84,2-2.3.3-4.93.06-7.28.26-7.58.63-14.1,1.6-21.81,1.05-6.47-.46-12.14-2.31-18.14-4.61-.03,3.49.53,6.93.89,10.38.12,1.16-.02,2.36.12,3.52.36,2.91,1.33,5.76,1.35,8.71.13.35,1.64.8,2.07.91,3.27.85,6.6.91,9.89,1.36,3.98.55,8.71,1.64,12.65,1.78,4.41.16,11.34-.37,15.81-.84,1.47-.16,10.87-2.32,11.07-3.33l.22-21.2h0Z"/>
    <path class="st2" d="M198.92,86.43c-.15.16-1.09.5-1.36.55-6.65,1.32-13.4,2.28-20.22,2.05-1.74-.06-5.38-.24-6.94-.62-2.15-.52-4.28-2.39-1.49-3.82,4.47-2.28,16.36-3.18,21.48-3.08,1.68.03,6.25.38,7.54,1.28.84.59,1.68,2.89.99,3.64h0ZM196.42,85.07c-5.23-.14-10.46.11-15.7.33-2.4.1-4.82.02-7.26.26-.76.07-1.6.39-2.38.46,7.19.91,14.67,1.03,21.92.02l3.42-1.06h0Z"/>
    <path class="st0" d="M196.42,85.07l-3.42,1.06c-7.25,1.02-14.73.9-21.92-.02.77-.08,1.62-.39,2.38-.46,2.44-.24,4.87-.16,7.26-.26,5.24-.21,10.47-.47,15.7-.33h0Z"/>
  </g>
  <g>
    <line class="st1" x1="16.47" y1="95.13" x2="43.31" y2="95.13"/>
    <line class="st1" x1="29.89" y1="76.35" x2="29.89" y2="113.9"/>
    <line class="st1" x1="23.05" y1="88.29" x2="36.73" y2="101.96"/>
    <line class="st1" x1="23.05" y1="101.96" x2="36.73" y2="88.29"/>
  </g>
  <g>
    <line class="st1" x1="8.53" y1="124.4" x2="19.52" y2="124.4"/>
    <line class="st1" x1="14.03" y1="118.9" x2="14.03" y2="129.89"/>
  </g>
</svg>