<?xml version="1.0" encoding="UTF-8"?>
<svg id="_レイヤー_1" data-name="レイヤー_1" xmlns="http://www.w3.org/2000/svg" version="1.1" viewBox="0 0 220 80">
  <!-- Generator: Adobe Illustrator 30.0.0, SVG Export Plug-In . SVG Version: 2.1.1 Build 123)  -->
  <defs>
    <style>
      .st0 {
        fill: #e2d1aa;
      }

      .st1 {
        fill: #e62a23;
      }
    </style>
  </defs>
  <g>
    <path class="st1" d="M42.45,12.12c-1.8,0-3.77.65-4.83,1.01l-.13.04c-4.82,1.6-8.57,5.25-11.88,8.48-.42.41-.84.81-1.25,1.21-4.43,4.25-8.73,8.44-12.61,13.09C6.79,41.9,2.95,48.05.34,54.23c-.3.71-.23,1.49.18,2.11.47.71,1.24,1.06,2.29,1.06.5,0,1.01-.08,1.27-.12,1.44-.26,3.17-.74,3.8-2.22,3.05-7.23,7.78-14.22,14.72-21.66.57.69,1.44,1.07,2.4,1.07.67,0,1.25-.18,1.62-.33,2.31-.94,4.71-1.62,7-2.16-.65,2.08-1.18,4.06-1.61,5.99-.15.65.01,1.32.43,1.84.75.94,1.98.94,2.38.94.04,0,4.37-.03,4.95-2.63,1.39-6.22,3.63-11.93,5.65-16.7.07-.17.16-.37.26-.59.8-1.76,2.14-4.71.67-6.92-.55-.82-1.66-1.8-3.87-1.8Z"/>
    <path class="st1" d="M216.66,12.16c.78-.17,1.5-.56,2.01-1.11.66-.71.91-1.61.69-2.48-.22-.87-.88-1.55-1.81-1.86-1-.34-2.07-.51-3.16-.51s-2.08.16-3.09.46c.05-.09.1-.18.14-.27.33-.62.63-1.21.98-1.75.56-.89.5-2.1-.14-2.96-.49-.65-1.3-1.08-2.18-1.14-.11,0-.22-.01-.32-.01-1.34,0-2.55.65-3.23,1.73-.42.68-.79,1.36-1.13,2.02-.36.69-.71,1.35-1.1,1.94-.32.48-.44,1.06-.39,1.63-.22-.03-.45-.04-.68-.04-2.32,0-4.32,1.37-5.95,2.94-.53-.69-1.4-1.09-2.42-1.09-1.08,0-2.5.47-3.24,1.52-.49.7-.76,1.14-1.72.29-.93-.82-2.03-1.33-3.33-1.33-2.61,0-5.05,1.85-5.74,2.42-.75.62-1.66,1.47-2.49,2.49-.11-.95-.59-1.71-1.45-2.3-.78-.53-1.62-.8-2.5-.8-1.32,0-2.46.6-3.39,1.36-.17-.33-.39-.65-.66-.93-.77-.8-1.87-1.26-3.01-1.26-.02,0-.1,0-.12,0-2.14.06-3.74,1.42-4.83,2.76-.53-.54-1.29-.84-2.18-.84-1.39,0-2.94.68-3.54,1.98-.27-.23-.61-.45-1.05-.61-.56-.21-1.14-.31-1.72-.31-1.35,0-2.49.54-3.47,1.28-.15-.37-.38-.72-.67-1.01-.68-.7-1.67-1.08-2.77-1.08-.19,0-.38.01-.56.03-1.77.22-3.31,1.08-4.67,2.63-.46-.5-1.13-.75-1.99-.75-.14,0-3.32.03-3.92,2.15-.09-1.17-.85-2.12-1.98-2.47-.88-.27-1.79-.41-2.72-.41-1.23,0-2.49.25-3.71.71-.36-.4-.83-.7-1.39-.84-.43-.1-.87-.15-1.31-.15-2.32,0-4.32,1.37-5.95,2.94-.31-.27-1.15-.93-2.42-1.09-1.5-.19-2.61.44-2.94.64-.29.05-.74.1-1.26.04-.83-.1-1.18-.41-1.79-.61-1.18-.39-1.46.22-2.94.06-1.34-.14-1.18-.67-2.92-.97-.46-.08-1.55-.27-2.76-.08-2.58.4-2.43,1.09-4.53,1.36-1.83.23-2.28-.04-4.57.11-1.73.11-1.91.81-3.74.89-1.79.08-2.31-.55-3.66-.57-1.23-.02-2.97.47-5.12,2.81-.57-.71-1.46-1.12-2.5-1.12-.45,0-.89.1-1.31.24.07-2.38-.96-4.7-2.94-6.35-1.67-1.39-3.82-2.09-6.41-2.09-1.28,0-2.65.16-4.31.5-2.9.6-7.13,1.89-10.8,4.59-.77.57-1.24,1.45-1.25,2.36-.01.86.38,1.66,1.08,2.2.54.42,1.21.64,1.95.64.82,0,1.67-.28,2.33-.76,1.26-.92,2.8-1.69,4.67-2.35v2.09c-1.04.19-1.98.76-2.52,1.57-1.67,2.51-2.77,5.25-3.84,7.91l-.19.48c-.41,1.02-.7,2.02-.97,2.99-.12.43-.25.87-.38,1.31l-.04.12c-.44,1.42-.94,3.03-1.02,4.73-.03.73.22,1.42.7,1.93.52.55,1.28.85,2.14.85,1.43,0,3.16-.8,3.66-2.28l.03-.08c.27-.53.34-1.1.23-1.63.16-.86.42-1.74.69-2.57.16-.5.3-1,.44-1.51.24-.87.47-1.7.79-2.48l.03-.07c.08,0,.16,0,.24,0,2.51,0,5.17-.69,7.7-2,2.72-1.41,3.11-1.31,3.33-1.62.35-.5.78-1.44,1.58-1.54.2-.03.38,0,.49.04.04.14.07.32.08.53.02.43-.09.78-.18.99l-.23,1.15c-.15.74-.29,1.48-.42,2.19-.33.99-.67,2.41-.2,3.83.4,1.21,1.56,1.99,2.96,1.99.23,0,.45-.02.67-.06,1.53-.27,3.01-1.44,2.9-3.13-.03-.45.06-1.02.16-1.58.33-.89.8-1.85,1.49-3.01.87-1.46,1.99-2.66,2.15-2.95.16-.28.32-.12.32.24-.28,1.95-.37,3.08.3,4.59.75,1.71,2.27,2.93,4.17,3.35.54.12,1.09.18,1.64.18h0c3.04,0,5.89-1.78,7.31-4.55.3.3.65.57,1.06.81.73.42,1.56.65,2.45.68-1.12,1.09-2.25,2.27-3.3,3.54-.97,1.17-2.03,2.58-2.36,4.4-.3,1.7.14,3.4,1.2,4.66,1.05,1.25,2.61,1.96,4.29,1.96.22,0,.44-.01.66-.04,3.62-.39,5.36-3.74,5.93-4.84,1.41-2.72,2.31-5.74,3.11-8.39.2-.65.38-1.31.57-1.97l.15-.51c.21-.17.41-.34.62-.51-.15.89-.11,1.69.13,2.42.38,1.16,1.45,1.88,2.79,1.88,1.1,0,2.22-.47,2.93-1.23.56-.6.84-1.34.79-2.02,0-.15.03-.47.05-.67.04-.3.09-.59.15-.92.23-.64.53-1.27.85-1.86.58,1.84,2.38,3.2,4.48,3.2h.06c.08,0,.16.01.25.01.1,0,.3-.02.4-.04l.12-.02c.38-.04.77-.1,1.14-.18.97-.19,1.92-.53,2.83-.99.25-.13.5-.27.74-.41.82,1.02,2.12,1.6,3.73,1.6.35,0,.72-.03,1.09-.08.12-.02.25-.04.37-.06,0,.1.02.21.03.31.11.95.9,1.98,2.38,1.98.61,0,3.15-.45,3.92-1.79.64-1.11,1.24-2.24,1.82-3.36.47.62,1.21.96,2.09.96,1.12,0,2.91-.67,3.62-1.56.38-.47.76-.94,1.15-1.41.11.4.3.79.6,1.14.75.9,1.92,1.37,3.38,1.37.53,0,1.1-.07,1.63-.19.02.36.05.7.08,1.05.15,1.36,1.26,2.31,2.71,2.31,1.21,0,2.91-.69,3.54-1.79.67-1.17,1.31-2.37,1.92-3.56.51.74,1.36,1.15,2.37,1.15s9.88-.49,10.29-.59c.93-.24,5.4-.27,7.24-.27.7,0,1.41-.06,2.04-.18,1.53-.28,3.05-.81,4.67-1.62,0,.51.07.99.22,1.44.38,1.16,1.45,1.88,2.78,1.88,1.1,0,2.22-.47,2.93-1.23.56-.59.83-1.34.79-2.02,0-.15.03-.46.05-.66.04-.31.09-.62.14-.92.37-1.04.94-2.06,1.45-2.92,1.48-2.48,2.98-4.36,4.61-5.74.15-.13.18-.16.39-.3.01,0,.03-.02.04-.03.96-.02,1.89-.39,2.56-.99.09,1.11.75,2.39,2.89,3.41.81.39,1.63.58,2.35.75l.46.11c.42.11.84.21,1.25.33-.11.08-.21.14-.28.19-.44.3-.92.58-1.41.85l-.34.18c-.2.1-.39.2-.59.29-.99.45-2.09.81-3.38,1.1-.74.16-1.73.65-2.28,1.54-.38.61-.5,1.32-.33,2,.24.97,1.11,2.01,2.85,2.01h0c.42,0,.79-.06,1.03-.11,2.37-.52,4.64-1.4,6.75-2.6l.12-.07c1.88-1.07,5.02-2.85,5-6.07,0-1.14-.45-3.1-3.07-4.26Z"/>
  </g>
  <path class="st0" d="M44.66,15.03c-1.2-1.8-5.04-.46-6.54.04-4.95,1.64-8.72,5.72-12.38,9.23-4.33,4.15-8.61,8.32-12.46,12.93-4.5,5.39-8.38,11.3-11.11,17.78-.26.61,1.33.35,1.55.31.57-.1,2.03-.38,2.3-1.03,4.37-10.36,11.61-19.04,19.57-26.84,3.47-3.4,6.94-7.1,10.89-9.95.8-.58,3.36-2.67,4.3-1.36.92,1.28-.52,3.86-1.01,5.04-.83,1.97-1.62,3.94-2.37,5.91-2.09.42-4.18.81-6.24,1.34-2.22.57-4.38,1.33-6.51,2.2-.52.21-.96.9-.6,1.42.4.57,1.23.46,1.78.24,3.49-1.43,7.1-2.26,10.76-3.02-1.05,2.98-1.97,6-2.67,9.13-.17.74,3.64.21,3.85-.72,1.32-5.93,3.4-11.46,5.76-17.04.58-1.36,2.1-4.13,1.1-5.62Z"/>
  <path class="st0" d="M52.94,18.5c.52.4,1.39.2,1.87-.15,2-1.47,4.41-2.45,6.78-3.14,2.3-.67,5.27-1.43,7.54-.3,2,.99,3.14,3.36,2.35,5.51-.75,2.06-2.61,3.67-4.44,4.77-2.12,1.28-4.6,2.06-7.07,1.74-.01,0-.03-.01-.04-.02.67-1.52,1.4-3,2.33-4.39.35-.53-.3-.85-.74-.88-.61-.05-1.37.22-1.71.74-1.65,2.48-2.74,5.28-3.85,8.03-.55,1.36-.86,2.75-1.3,4.14-.43,1.4-.9,2.86-.97,4.34-.06,1.22,2.39.62,2.62-.28.04-.08.07-.17.11-.25.14-.23.1-.42-.02-.56.16-1.15.5-2.29.84-3.39.44-1.39.73-2.78,1.29-4.14.19-.47.39-.94.58-1.41,2.84.4,5.81-.37,8.32-1.67,2.53-1.31,5.04-3.28,6.32-5.9,1.24-2.54.56-5.43-1.6-7.22-2.52-2.1-6.04-1.78-9.04-1.16-3.51.73-7.12,2.11-10.02,4.24-.47.34-.64.98-.14,1.36Z"/>
  <path class="st0" d="M74.7,33.89c.18.56.86.68,1.37.59.44-.08,1.3-.45,1.26-1.03-.05-.74.09-1.5.22-2.23.01-.04.03-.08.04-.12.43-1.19,1.02-2.31,1.67-3.4,1.31-2.19,3.04-4.51,4.88-6.05.23-.19.47-.38.72-.55.03-.02.19-.12.25-.16.06-.03.19-.1.23-.12.02-.01.11-.05.18-.08.04-.01.08-.02.11-.03.05,0,.08.01.02,0,0,0,0,0,0,0,.01,0,.03,0,.04,0,.06,0,.03,0-.02,0,0,0,.01,0,.02,0,0,0,0,0,0,0,.59.09,1.23-.04,1.63-.52.35-.43.27-1.13-.34-1.28-2.71-.65-5.12,1.86-6.74,3.69-.5.57-1,1.17-1.47,1.78.02-.17.05-.34.07-.51.08-.83.18-1.81-.11-2.61-.43-1.19-3.03-.47-2.61.7.26.7.15,1.44.06,2.25-.13,1.19-.35,2.37-.58,3.55-.22,1.15-.46,2.3-.67,3.46,0,0,0,0,0,0-.3.87-.52,1.85-.24,2.7ZM85.67,20.68s-.02,0-.04,0c0,0-.01,0-.02,0-.03,0-.07-.02-.12-.03.06.01.12.01.18.02Z"/>
  <path class="st0" d="M117.83,24.93c1.35-2.27,2.98-4.5,5-6.22.23-.2.27-.23.58-.44.11-.08.23-.15.35-.23.04-.03.08-.05.13-.07,0,0,0,0,0,0,.08-.04.17-.07.25-.11.59.11,1.34-.07,1.75-.5.38-.4.29-.9-.28-1.04-2.65-.64-5.17,1.91-6.74,3.69-.53.6-1.05,1.23-1.55,1.88.03-.26.08-.51.1-.77.08-.82.19-1.78-.1-2.57-.37-1-2.96-.26-2.61.7.27.74.15,1.6.07,2.37-.05.41-.11.81-.17,1.21-.46-.08-1.04,0-1.41.28-1.14.9-2.3,1.8-3.46,2.7.64-2.26,1.26-4.54,1.84-6.81.29-1.12-2.2-.55-2.54.07-.65,1.2-1.37,2.37-2.14,3.49-1.09,1.59-2.48,3.77-4.32,4.58-.49.21-1.15.43-1.61.2-.64-.32-.8-.77-.73-1.38.06-.49.19-.97.33-1.43.35-1.15.9-2.26,1.61-3.23.42-.57.91-1.13,1.47-1.57.68-.55,1.02-.53,1.75.02.76.57,3.13-.53,2.05-1.35-2.56-1.93-5.6.11-7.29,2.19-1.34,1.65-2.13,3.58-2.55,5.64-.22,1.06.32,1.89,1.29,2.46,1.27.74,2.77.36,4.08-.07,1.73-.57,3.1-1.81,4.27-3.18-.16.57-.32,1.14-.48,1.71-.12.43-.24.86-.36,1.29-2.81,2.29-5.52,4.71-7.82,7.49-.85,1.03-1.69,2.12-1.93,3.47-.43,2.45,1.43,4.53,3.97,4.26,2.12-.23,3.46-2.02,4.37-3.77,1.31-2.53,2.15-5.32,2.97-8.05.3-1.01.59-2.03.89-3.05.03-.03.07-.06.1-.09,1.75-1.46,3.56-2.84,5.35-4.25-.05.24-.09.49-.14.73-.24,1.24-.59,2.54-.79,3.84-.23.73-.35,1.51-.12,2.21.34,1.03,2.68.32,2.61-.7,0-.14.03-.65.07-.96.05-.38.11-.77.18-1.15.02-.06.03-.12.06-.18.4-1.15,1-2.25,1.62-3.29ZM124.11,17.85s0,0,0,0c-.01,0-.03,0-.04,0,0,0,.02,0,.04,0ZM124.15,17.85s.07,0,.06,0c-.02,0-.04,0-.07,0,0,0,0,0,0,0ZM124.21,17.84s-.03,0-.05,0c0,0,0,0,0,0,.04-.01.07-.02.07-.01,0,0-.01.01-.03.02ZM104.26,35.63c-.68,1.98-1.43,4.48-2.94,6.02-.12.12-.25.26-.4.35-.01-.07-.37-.11-.52-.19-.21-.11-.43-.27-.6-.44-.71-.76-.67-1.97-.34-2.9.36-1.02,1.19-1.93,1.9-2.73,1.29-1.45,2.7-2.79,4.15-4.09-.39,1.33-.8,2.66-1.26,3.97Z"/>
  <path class="st0" d="M204.1,9.91c-2.65-.63-5.17,1.91-6.74,3.69-.53.61-1.05,1.24-1.55,1.89.03-.26.08-.52.1-.78.08-.82.19-1.78-.1-2.57-.37-1-2.96-.26-2.61.7.27.74.15,1.6.07,2.37-.08.74-.2,1.47-.33,2.19-.24.08-.47.19-.65.36,0,0-.03.01-.14.09-.15.11-.29.22-.44.33-.5.37-1,.73-1.51,1.07-1.17.79-2.38,1.54-3.69,2.06-1.53.61-3.27,1.03-4.85.36-.44-.19-.53-.27-.74-.53-.17-.2-.08-.08-.14-.27-.06-.18-.1-.35-.11-.54.01.14.02-.27.03-.36.02-.18.06-.36.1-.54.03-.13.09-.27.14-.41.2.05.4.07.58.05,2.23-.21,4.69-.64,6.32-2.31.89-.91,1.79-2.79.69-3.88-1.78-1.76-4.87-.05-6.39,1.21-1.35,1.11-2.74,2.59-3.51,4.26-.35.11-.65.29-.79.53-.71,1.24-1.55,2.52-2.69,3.42-.03.02-.11.09-.18.15-.19-.07-.48-.18-.51-.23-.09-.13-.03-.45-.02-.62.09-1.48.93-3.1,1.52-4.44.4-.91.86-2.07-.15-2.76-2.3-1.56-4.45,1.34-5.57,2.68-.9,1.08-1.83,2.13-2.74,3.19.34-.98.77-1.92,1.16-2.88.31-.75.73-1.59.76-2.41.04-1.13-1.06-1.88-2.11-1.85-2.11.06-3.62,2.23-4.59,3.9-1.07,1.83-2.04,3.72-3.02,5.61-.02.04-.04.08-.06.12.34-2.36.96-4.69,1.46-7.01.24-1.13-2.41-.75-2.62.27-.34,1.57-.72,3.14-1.04,4.72-.14.08-.26.18-.33.3-.73,1.27-1.58,2.53-2.71,3.47-.06-.03-.14-.04-.2-.07-.49-.26-.5-.69-.45-1.22.15-1.53.97-3.16,1.58-4.55.38-.85.77-1.94-.36-2.36-2.37-.88-4.27,1.49-5.54,3.04-.94,1.15-1.92,2.26-2.9,3.38.02-.05.03-.11.05-.16.34-1.12.83-2.2,1.29-3.28.33-.78.84-1.72.86-2.59.02-1.1-1.07-1.49-1.99-1.37-2.17.27-3.61,1.95-4.67,3.73-1.09,1.83-2.05,3.74-3.04,5.63-.05.09-.09.18-.14.27.31-2.52.97-5,1.51-7.49.11-.5-2.43-.14-2.57.48-.48,2.24-1.06,4.48-1.41,6.74-.4.11-.77.3-1.11.54-.51.36-.86.69-1.31.88-.2.08-.49.15-.81.16.04,0-.12,0-.21,0,.05.02.06.05,0,0,0,0,0,0,0,0-.04,0-.07,0-.07,0,.02,0,.05,0,.06,0,0,0-.11-.15-.14-.21-.06-.17-.12-.48-.13-.57-.24-2.66,1.25-5.21,1.22-7.86,0-.38-.2-.68-.57-.79-3.83-1.17-7.8,1.08-10.19,3.98-1.1,1.33-2.44,3.23-2.38,5.05.06,1.85,2.42,2.99,3.97,2-.21.1-.42.2-.63.3-.67.14-.22.05-.04.03.32-.03.63-.08.95-.15.8-.16,1.59-.44,2.31-.81,1.02-.52,1.91-1.21,2.68-2.01,0,.38.03.76.1,1.14.31,1.67,1.91,2,3.39,1.78.95-.14,1.82-.5,2.62-1.03-.06,1-.05,2.01.06,3.03.06.57,2.38-.24,2.59-.59,1.73-3.01,3.19-6.18,4.85-9.23.68-1.25,1.37-2.45,2.3-3.53.04.05.09.1.11.15.09.24.06.48.01.73-.17.86-.61,1.71-.95,2.51-.63,1.48-2.13,4.13-1.22,5.75.35.61,2.28-.2,2.59-.59,1.72-2.16,3.58-4.19,5.35-6.3.36-.43.67-.91,1.06-1.33.05-.05.1-.1.15-.15,0,.02.02.03.03.05.24.5-.17,1.2-.37,1.65-.31.7-.57,1.4-.83,2.11-.31.85-1.26,2.79-.53,3.65.7.83,2.27.73,3.17.48.9-.25,1.69-.73,2.4-1.35-.14,1.37-.18,2.76-.02,4.16.12,1.06,2.23.27,2.53-.26,1.71-2.98,3.16-6.12,4.81-9.14.37-.67.73-1.35,1.13-2.01.43-.71.58-.9,1.25-1.64.02-.02.07-.06.13-.12.02.03.04.06.05.08.04.16-.05.51-.11.73-.24.86-.64,1.68-.99,2.49-.7,1.66-1.99,4.08-.99,5.85.38.68,1.91.21,2.27-.24,1.75-2.19,3.65-4.24,5.43-6.4.25-.31.48-.64.73-.95.2-.24.41-.47.63-.69,0,.11.01.23,0,.31-.06.32-.23.62-.36.91-.3.67-.55,1.35-.8,2.04-.38,1.04-1.32,2.9-.58,4,.6.88,2.29,1.08,3.22.84,1.21-.31,2.25-1.18,3.12-2.2,1.01,1.86,4.3,2.1,6.28,1.73,2.35-.43,4.48-1.51,6.48-2.79.45-.29.89-.61,1.33-.92-.2.87-.4,1.77-.54,2.66-.23.73-.35,1.51-.12,2.2.34,1.03,2.68.32,2.61-.7,0-.14.03-.65.07-.96.05-.38.11-.77.18-1.15.02-.06.03-.12.06-.18.4-1.15,1-2.25,1.62-3.29,1.35-2.27,2.98-4.5,5-6.22.23-.2.27-.23.58-.44.11-.08.23-.15.35-.23.04-.03.08-.05.13-.07,0,0,0,0,0,0,.08-.04.17-.07.25-.11.59.11,1.34-.07,1.76-.5.38-.4.29-.9-.28-1.04ZM130.07,21c-.55,1.24-1.23,2.39-2.18,3.36-.35.36-.74.66-1.15.95-.23.16-.55.34-.97.52-.08.04-.17.07-.25.11,0,0,0,0-.01,0-.16.05-.32.11-.49.15-.13.04-.27.07-.4.1-.03,0-.06.01-.09.02-.14.01-.27.02-.4.04-.3-.05-.55-.15-.64-.33-.19-.37-.1-.85.02-1.23.4-1.36,1.34-2.63,2.29-3.66,1.35-1.46,3.4-2.82,5.41-2.56-.05.63-.15,1.25-.3,1.88-.37.12-.7.34-.84.65ZM185.84,14c-.18.05-.1.02,0,0h0ZM182.76,16.21c.7-.76,1.17-1.17,2.05-1.75.02-.02.12-.07.16-.1.06-.03.12-.06.18-.09.13-.07.27-.12.4-.18-.05.03.18-.05.31-.09,0,0,.02,0,.03,0,.04,0,.07,0,.09,0,.04.01.07.02.1.04.04.02.08.04.11.06.01.01.01,0,.02.01.03.03.06.06.08.09,0,0,.08.32.08.47,0,.29-.1.56-.23.81-.77,1.49-2.75,1.68-4.25,1.83.26-.37.54-.71.88-1.08ZM192.24,17.8c-.09.08-.18.17-.25.27.06-.08.18-.2.25-.27ZM202.59,11.44s0,0,0,0c-.01,0-.02,0-.04,0,0,0,.02,0,.03,0ZM202.63,11.44s.07,0,.06,0c-.02,0-.04,0-.07,0,0,0,0,0,0,0ZM202.7,11.43s-.03,0-.05,0c0,0,0,0,0,0,.04-.01.07-.02.07-.01,0,0-.01.01-.03.02Z"/>
  <path class="st0" d="M85.54,25.82c-.38,1.26-.5,2.76.05,3.99.52,1.17,1.53,1.93,2.77,2.2,2.73.6,5.56-.93,6.78-3.41.6-1.21.9-2.69,1.04-4.03.14-1.31-.02-2.61-.64-3.78-.58-1.09-1.52-1.9-2.79-2-1.53-.12-2.98.64-3.96,1.78-.23.27-.26.55-.12.76-1.53.98-2.62,2.77-3.13,4.47ZM91.61,20.41s.03,0,.05,0c-.07,0-.08,0-.05,0ZM90.38,22.21s-.02-.02,0,0h0ZM87.9,26.73c.15-1.18.6-2.25,1.23-3.25.24-.38.51-.72.87-.99.17-.13.31-.19.43-.27.06,0,.2.01.3.02.57.07,1.41-.22,1.71-.74.32-.56-.28-.82-.74-.88-.09-.01-.18,0-.26-.02.07-.06.15-.12.24-.18,0,0,.02,0,.03-.01.17.03.36.12.57.29.27.22.51.55.69.86,1.04,1.84.58,3.98.07,5.9-.24.92-.66,1.73-1.36,2.4-.23.22-.54.45-.71.53-.15.08-.39.14-.61.14-2-.04-2.68-2.1-2.47-3.8Z"/>
  <polygon class="st0" points="132.94 26.25 132.94 26.24 132.94 26.25 132.94 26.25"/>
  <path class="st0" d="M89.35,65.6s-.03.03-.04.05c0,0,0,0,0,0,.01-.02.03-.03.04-.05Z"/>
  <path class="st0" d="M90.79,66.74c.33-.28.89-.65,1.1-1.04.59-1.08-1.98-.82-2.54-.1.05-.05.07-.05-.04.05,0,0-.02.02-.02.03,0,0,.01-.02.02-.02,0,0,0,0-.01.01-.15.13-.29.27-.44.4-.46.41-.93.81-1.41,1.2-1.09.89-2.24,1.78-3.5,2.42-1.58.8-3.31,1.3-4.94.35-.49-.28-.81-.92-.85-1.65-.03-.56.08-1.14.26-1.71.15,0,.3,0,.4-.02,2.37-.31,4.98-.93,6.57-2.85.8-.96,1.62-2.98.51-4.03-.91-.86-2.38-.67-3.46-.3-1.2.4-2.26,1.15-3.16,2.02-1.77,1.7-3.47,4.06-3.86,6.54-.15.98-.07,2.04.65,2.79,1.4,1.48,4.01,1.44,5.83,1.06,2.5-.53,4.72-1.85,6.73-3.38.74-.56,1.46-1.15,2.16-1.76ZM83.2,60.68s0,0-.01,0c0,0,0,0,0,0,0,0,0,0,.01,0ZM80.34,63.23c.62-.82,1.2-1.44,2.03-2.07.05-.04.16-.11.18-.13.06-.04.12-.08.18-.12.09-.06.19-.11.28-.16.01,0,.02-.01.03-.02,0,0,0,0,0,0,0,0,.02,0,.05-.02.05.02.1.04.12.06,0,0-.05-.06.06.05.05.05.14.13.16.15.33.48.15,1.24-.02,1.73-.64,1.83-2.48,2.24-4.2,2.46-.05,0-.11.02-.17.03.39-.72.85-1.39,1.29-1.97Z"/>
  <path class="st0" d="M206.77,8.36c.68.05,1.33-.22,1.7-.79.84-1.28,1.44-2.7,2.25-4,.13-.2.09-.51-.05-.69-.16-.21-.48-.33-.74-.35-.67-.05-1.34.21-1.7.79-.81,1.29-1.41,2.72-2.25,4-.13.2-.09.51.05.69.16.21.48.33.74.35Z"/>
  <path class="st0" d="M215.07,13.7c-1.03-.31-2.09-.52-3.13-.81-.32-.09-.43-.12-.61-.22-.34-.18-1.04-.43-1.09-.88-.07-.72,1.25-1.36,1.78-1.57,1.09-.45,2.23-.4,3.34-.03.58.19,1.43-.05,1.84-.49.41-.44.26-.9-.29-1.09-2.46-.82-5.26-.35-7.41,1.09-.77.51-1.69,1.3-1.86,2.26-.2,1.1.88,1.74,1.74,2.15.77.37,1.62.52,2.44.73.57.14,1.14.29,1.7.46.19.06.39.12.58.18.02,0,.08.03.12.04.04.02.08.04.09.04.46.27.8.85.8,1.29,0,.94-.99,1.63-1.68,2.09-.5.34-1.02.64-1.54.94-.02,0-.09.05-.12.07-.09.05-.19.1-.28.15-.22.11-.45.22-.67.33-1.21.56-2.48.95-3.79,1.23-.46.1-1.24.54-1.1,1.12.15.6,1.09.51,1.51.42,2.19-.48,4.25-1.28,6.2-2.38,1.56-.89,4.12-2.29,4.1-4.38-.01-1.59-1.32-2.33-2.66-2.73Z"/>
  <path class="st0" d="M97.12,62.6c-1.03-.31-2.09-.52-3.13-.81-.25-.07-.49-.15-.73-.26-.05-.03-.15-.08-.16-.08-.15-.09-.3-.17-.44-.26-.15-.1-.28-.19-.33-.37,0-.02.01-.09.01-.1-.01.06.1-.19.11-.2.08-.11.21-.25.32-.36.38-.36.87-.62,1.36-.81,1.08-.43,2.23-.43,3.33-.07.62.21,1.42.02,1.84-.49.38-.46.25-1.08-.34-1.28-2.5-.84-5.23-.4-7.41,1.06-.78.52-1.69,1.35-1.84,2.34-.18,1.23.99,1.88,1.93,2.34.72.35,1.52.48,2.29.68.57.14,1.14.29,1.7.46.19.06.39.12.58.18.05.02.25.1.31.13.04.02.07.04.08.05.11.1.21.19.3.31.11.15.18.29.23.47.02.07.05.43.05.29-.03.91-1.03,1.56-1.7,2.01-1.95,1.32-4.12,2.19-6.41,2.7-.53.12-1.22.64-1.06,1.25.16.65,1.04.67,1.55.56,2.13-.47,4.16-1.23,6.05-2.31,1.62-.93,4.26-2.36,4.22-4.55-.03-1.62-1.31-2.45-2.69-2.86Z"/>
  <path class="st0" d="M56.74,73.04c1.07-6.15,3.14-12.23,5.94-17.81.22-.43-.91-.3-1.05-.27-.45.07-1.29.26-1.53.72-2.8,5.58-4.87,11.66-5.94,17.81-.11.63,2.46.2,2.57-.45Z"/>
  <path class="st0" d="M72.94,47.85c-2.35-.94-5.19-.4-7.57.17-3.12.76-6.16,1.96-9.05,3.36-2.57,1.24-5.32,2.63-7.39,4.64-.44.42-.22.9.29,1.09.58.22,1.42-.08,1.84-.49,1.36-1.32,3.14-2.29,4.81-3.16,2.36-1.24,4.82-2.33,7.35-3.16,3.12-1.02,10.47-3.08,9.32,2.82-.41,2.09-1.6,3.64-3.19,4.97-1.83,1.53-3.6,3.13-5.76,4.2-1.61.8-.16,1.89,1.09,1.3,1.46-.7,3.35-1.69,5-1.11,1.6.57,1.76,1.65,1.35,3.24-.79,3-3.14,5.18-5.74,6.68-5.52,3.17-12.46,4.21-18.75,4.27-.56,0-1.45.16-1.71.75-.23.53.2.93.75.93,6.31-.06,12.84-1.03,18.65-3.58,2.67-1.17,5.31-2.77,7.19-5.04,1.4-1.71,3.65-5.49,1.93-7.63-.88-1.08-2.75-1.52-4.07-1.46-.05,0-.1.02-.16.02.48-.38.96-.78,1.43-1.18,1.59-1.35,3.05-2.56,3.92-4.51,1.11-2.47,1.42-5.93-1.54-7.1Z"/>
  <path class="st0" d="M111.86,51.67c-1.82.12-3.64.4-5.44.73.36-1.51.74-3.01,1.15-4.5.18-.64-.76-.89-1.21-.87-.66.04-1.26.42-1.43,1.06-.45,1.61-.86,3.25-1.26,4.9-.08.02-.17.04-.25.06-1.15.25-2.33.39-3.47.7-.52.14-1.23.62-1.06,1.25.17.63,1.04.69,1.55.56.91-.25,1.84-.39,2.77-.56-.46,2.12-.86,4.25-1.16,6.38-.16,1.17-.32,2.34-.43,3.51-.09.98-.26,2.11-.1,3.07.52,3.2,4.63,2.03,6.1.28,1.83-2.18,3.3-4.51,4.57-7.06.66-1.33-1.98-1.36-2.5-.31-1.16,2.35-2.49,4.75-4.32,6.66-.34.35-.78.78-1.11.25-.32-.51-.07-1.45-.07-1.89,0-1.13.18-2.27.33-3.39.35-2.72.85-5.44,1.45-8.13,1.8-.35,3.72-.66,5.67-.79.57-.04,1.37-.41,1.43-1.06.07-.66-.69-.9-1.21-.87Z"/>
  <path class="st0" d="M141.24,43.59c1.14.14,2.72-1.47.96-1.68-3.86-.46-8.05.58-11.78,1.48-4.25,1.03-8.35,2.56-12.58,3.68-.45.12-1.26.53-1.1,1.12.16.59,1.08.53,1.51.42,4.04-1.07,7.97-2.53,12.03-3.55,3.45-.87,7.37-1.9,10.95-1.47Z"/>
  <path class="st0" d="M133.07,52.77c-2.1.2-4.17.81-6.16,1.47-.44.14-.86.31-1.3.46.6-2.24,1.29-4.46,2.35-6.52.61-1.18-2.01-.99-2.45-.14-1.24,2.42-2.04,5.04-2.73,7.69-1.07.41-2.13.83-3.19,1.26-.47.19-.99.76-.64,1.26.37.53,1.28.34,1.76.15.51-.21,1.03-.41,1.54-.61-.19.75-.37,1.49-.56,2.23-.45,1.73-.91,3.51-1,5.3-.07,1.28.01,2.72,1.41,3.19.92.31,3.06-1.03,1.57-1.53-.63-.21-.32-2.51-.24-3.08.22-1.62.63-3.2,1.05-4.78.21-.8.41-1.6.62-2.41.75-.28,1.5-.56,2.26-.81,1.79-.59,3.63-1.17,5.45-1.34.54-.05,1.37-.38,1.45-1.01.08-.63-.71-.82-1.18-.77Z"/>
  <path class="st0" d="M155.36,49.03c.15-.15.29-.38.23-.6-.06-.22-.31-.37-.52-.42-.32-.07-.67-.06-.98.03-.31.09-.63.23-.86.46-.39.39-.64.87-.78,1.41-.04.15-.07.31-.09.47-.01.16-.02.33,0,.48.04.23.33.37.52.42.15.04.31.05.46.04.18,0,.35-.02.52-.07.31-.09.64-.22.86-.46.14-.16.25-.33.24-.54,0-.27.06-.55.15-.81.07-.15.14-.29.24-.41Z"/>
  <path class="st0" d="M198.65,49.52c-.41.05-1.48.36-1.47.94,0,.42-.16.9-.27,1.16-.23.52-.52,1.01-.84,1.48-.16.24-.33.48-.5.72-.1.13-.19.26-.29.39-.04.06-.09.11-.13.17-.1.13,0,0-.06.08-.31.38-.64.76-1,1.11-.07.06-.13.13-.2.19-.03.03-.09.07-.12.1-.2.15-.4.29-.62.42-.05.03-.09.05-.14.08-.11.05-.22.11-.33.16-.06.03-.12.05-.18.07-.02,0-.02.01-.03.02-.08.03-.16.05-.24.06-.04,0-.08.01-.13.02-.01,0-.02,0-.03,0-.03-.01-.07-.02-.1-.03-.05-.03-.11-.06-.16-.09.14.1-.06-.07-.1-.12-.1-.12-.08-.09-.12-.19-.15-.33-.21-.7-.26-1.05-.09-.72,0-1.43.17-2.13.6-1.28,1.11-2.59,1.61-3.71.91-2.04,1.71-4.12,2.46-6.22.54-1.5,1.06-3,1.5-4.54.19-.66.71-1.94.38-2.62-.49-1.01-3.05-.22-2.61.7.11.22-.07.91-.17,1.36-.22.9-.5,1.79-.79,2.68-.66,2.01-1.39,4-2.16,5.97-.23.59-.49,1.18-.73,1.77-2.82-1.32-6.62.91-8.02,3.41-.24.43-.5.99-.71,1.59-.21.12-.4.26-.5.45-.7,1.28-1.65,2.48-2.77,3.43-.18.15-.38.29-.58.41,0,0,0,0,0,0-.16-.24-.22-.59-.24-.87-.04-.5.23-1.24.4-1.81.28-.93.58-1.86.79-2.81.28-1.31.6-3.79-1.25-4.03-1.74-.23-2.89,1.21-3.76,2.48-.91,1.33-1.72,2.72-2.53,4.11-.83,1.43-1.63,2.9-2.47,4.33.09-.68.23-1.34.34-2.02.37-2.35.77-4.74,1.54-7,.2-.59-.81-.7-1.15-.66-.58.06-1.27.35-1.47.94-.45,1.34-.77,2.72-1.03,4.11-.14.08-.26.18-.36.31-.14.11-.28.22-.42.33-.45.35-.91.69-1.37,1.02-1.14.81-2.31,1.6-3.59,2.19-1.47.67-3.22,1.27-4.83.78-.23-.07-.45-.15-.66-.25-.03-.02-.06-.03-.09-.05-.05-.04-.11-.08-.16-.12-.03-.03-.07-.07-.09-.1-.04-.06-.09-.12-.13-.19,0-.01,0,0,0,0,0-.01,0-.02-.02-.05-.05-.16-.1-.32-.12-.48,0-.02,0-.02,0-.03,0,0,0-.01,0-.04,0-.08,0-.17.01-.25.02-.19.05-.38.09-.57.04-.17.01-.07.03-.12.03-.09.06-.19.1-.28.02-.04.04-.09.05-.13.19.06.39.08.57.06,2.27-.28,4.75-.77,6.37-2.55.92-1.01,1.74-3.01.44-4.07-1.9-1.54-4.75.16-6.26,1.46-1.56,1.35-3.15,3.17-3.79,5.21-.43.1-.82.35-1.05.74-.06.11-.13.22-.2.32-.08.12-.15.25-.23.37-.04.06-.08.12-.11.18-.01.02-.05.08-.08.12-.46.7-.94,1.4-1.48,2.04-.13.16-.26.31-.4.46-.06.06-.12.12-.17.18-.01-.01-.03-.02-.04-.03,0,0,0,0-.01,0,0-.01,0-.02-.03-.05-.04-.05-.08-.09-.11-.13-.06-.07-.11-.13-.16-.19-.59-2.09-.04-4.45.75-6.43.56-1.4-2.06-1.4-2.5-.31-.93,2.32-1.58,5.1-.83,7.56.04.11.09.21.16.29-.09-.07.04.04.12.15.1.13.2.24.31.36.43.43.93.74,1.54.83,1.35.2,2.46-.64,3.3-1.59.52-.58.99-1.21,1.43-1.85,1.16,1.63,4.24,1.79,6.15,1.41,2.3-.46,4.4-1.6,6.33-2.88.35-.23.68-.49,1.02-.73-.12.7-.26,1.41-.36,2.11-.1.73-.22,1.67.18,2.33.46.76,1.5.72,2.24.46.78-.28,1.33-.85,1.8-1.52.66-.95,1.11-2.04,1.7-3.03.85-1.43,1.67-2.89,2.52-4.32.54-.91,1.12-1.96,1.76-2.83.03.2.05.4.03.63-.07,1.01-.36,2.01-.65,2.97-.41,1.39-1.28,3.16-.32,4.53,1.05,1.51,3.42.45,4.54-.39.51-.39.99-.83,1.45-1.3.06.15.11.31.19.45.88,1.42,2.98,1.52,4.39,1.03.96-.33,1.77-.9,2.47-1.6.09.22.2.44.36.61.46.51,1.15.71,1.82.74,1.5.06,3.06-.64,4.24-1.53,1.02-.77,1.84-1.76,2.59-2.79.46-.63.9-1.29,1.24-1.99.28-.56.57-1.2.56-1.84,0-.59-.65-.73-1.15-.66ZM146.95,61.88s.02.01.02.02h0s-.01-.01-.02-.02ZM161.15,51.34s0,0,0,0c.01,0,.03,0,.04,0-.02,0-.02,0-.04,0ZM157.78,53.74c.67-.77,1.13-1.21,2.01-1.81.08-.05.16-.11.24-.16,0,0,0,0,0,0,.04-.02.09-.05.13-.07.18-.09.37-.18.55-.27,0,0,0,0,0,0,.08-.02.17-.04.25-.07,0,0,0,0,0,0,.05,0,.11,0,.16-.01,0,0,0,0,0,0-.12.01-.12,0,.02,0,0,0,0,0,.02,0,.21.06.01,0,.02,0,.03.01.06.03.08.05.09.11.11.2.11.35.01.27-.07.54-.18.78-.7,1.54-2.62,1.88-4.16,2.07.21-.29.44-.58.71-.89ZM178.18,57.9s-.01,0-.02.01c-.03,0-.02,0,.02-.01ZM178.5,57.92s0,0,0,0c.17-.04.02.07,0,0ZM185.8,57.13c-.53.14-1.13-.31-1.29-.79-.26-.77.04-1.94.25-2.69.26-.92.69-1.89,1.36-2.57.49-.5,1.18-1.02,1.86-1.21.39-.11.68-.1,1.07.05.13.05.65.4.43.22.16.13.34.2.54.25-.37.81-.73,1.64-.99,2.49-.52,1.1-1.12,2.18-1.92,3.09-.32.36-.84,1.04-1.32,1.17ZM193.07,56.33s.04-.02,0,0h0Z"/>
  <path class="st0" d="M145.34,51.94s0,0,0,0c0,0,0,0,.01,0,.58.07,1.26-.07,1.66-.51.37-.4.3-.96-.29-1.09-2.7-.57-5.13,1.98-6.71,3.82-.52.61-1.03,1.24-1.52,1.9.03-.22.07-.44.09-.67.08-.81.18-1.76-.11-2.55-.38-1.04-2.97-.3-2.61.7.27.73.15,1.57.07,2.33-.13,1.22-.36,2.42-.59,3.62-.24,1.24-.59,2.55-.78,3.85-.23.75-.35,1.54-.12,2.24.36,1.08,2.68.36,2.61-.7,0,.15,0-.3.01-.37.01-.18.03-.36.05-.54.05-.4.12-.8.19-1.2.02-.05.03-.1.04-.14.4-1.17,1-2.29,1.62-3.36,1.36-2.34,3-4.59,5.02-6.41.19-.17.29-.25.58-.46.11-.08.23-.16.35-.24.04-.03.08-.05.13-.08.09-.04.18-.08.27-.13.04,0,.06.01,0,0,0,0,0,0,.01,0,0,0,0,0,0,0ZM145.28,51.93s-.03,0-.04,0c-.02,0-.03,0-.06-.01.03,0,.07,0,.11.01Z"/>
  <path class="st1" d="M113.64,13.36"/>
</svg>