<svg xmlns="http://www.w3.org/2000/svg" id="_レイヤー_1" data-name="レイヤー_1" viewBox="0 0 840 1328"><defs><pattern id="_新規パターンスウォッチ_1" width="72" height="72" x="0" y="0" data-name="新規パターンスウォッチ 1" patternTransform="translate(1856.63 1768.36)scale(1.23)" patternUnits="userSpaceOnUse" viewBox="0 0 72 72"><path d="M0 0h72v72H0z" class="st0"/><path d="M71.75 66h72.5M71.75 42h72.5M71.75 18h72.5M71.75 54h72.5M71.75 30h72.5M71.75 6h72.5M-.25 66h72.5M-.25 42h72.5M-.25 18h72.5M-.25 54h72.5M-.25 30h72.5M-.25 6h72.5M-72.25 66H.25M-72.25 42H.25M-72.25 18H.25M-72.25 54H.25M-72.25 30H.25M-72.25 6H.25" class="st1"/></pattern><pattern id="_新規パターンスウォッチ_2" width="48" height="48" x="0" y="0" data-name="新規パターンスウォッチ 2" patternTransform="rotate(135 211.21 -6594.023)scale(-1 1)" patternUnits="userSpaceOnUse" viewBox="0 0 48 48"><path d="M0 0h48v48H0z" class="st0"/><path d="M0 0h48v48H0z" class="st0"/><path d="M24-2.4a2.4 2.4 0 0 1 0 4.8c-1.32 0-2.4-1.08-2.4-2.4s1.07-2.4 2.4-2.4M48-2.4a2.4 2.4 0 0 1 0 4.8c-1.32 0-2.4-1.08-2.4-2.4s1.07-2.4 2.4-2.4M24 21.6a2.4 2.4 0 0 1 0 4.8c-1.32 0-2.4-1.08-2.4-2.4s1.07-2.4 2.4-2.4M48 21.6a2.4 2.4 0 0 1 0 4.8c-1.32 0-2.4-1.08-2.4-2.4s1.07-2.4 2.4-2.4M36 9.6a2.4 2.4 0 0 1 0 4.8c-1.32 0-2.4-1.08-2.4-2.4s1.07-2.4 2.4-2.4M12 9.6a2.4 2.4 0 0 1 0 4.8c-1.32 0-2.4-1.08-2.4-2.4s1.07-2.4 2.4-2.4M36 33.6a2.4 2.4 0 0 1 0 4.8c-1.32 0-2.4-1.08-2.4-2.4s1.07-2.4 2.4-2.4M12 33.6a2.4 2.4 0 0 1 0 4.8c-1.32 0-2.4-1.08-2.4-2.4s1.07-2.4 2.4-2.4M0-2.4a2.4 2.4 0 0 1 0 4.8c-1.32 0-2.4-1.08-2.4-2.4S-1.33-2.4 0-2.4M0 21.6a2.4 2.4 0 0 1 0 4.8c-1.32 0-2.4-1.08-2.4-2.4s1.07-2.4 2.4-2.4M24 45.6a2.4 2.4 0 0 1 0 4.8c-1.32 0-2.4-1.08-2.4-2.4s1.07-2.4 2.4-2.4M48 45.6a2.4 2.4 0 0 1 0 4.8c-1.32 0-2.4-1.08-2.4-2.4s1.07-2.4 2.4-2.4M0 45.6a2.4 2.4 0 0 1 0 4.8c-1.32 0-2.4-1.08-2.4-2.4s1.07-2.4 2.4-2.4" class="st2"/></pattern><style>.st0,.st1{fill:none}.st2{fill:#ceb372}.st1{stroke:#1c1917;stroke-width:9.6px}</style></defs><circle id="Oval" cx="315.59" cy="281.93" r="281.93" style="fill:url(#_新規パターンスウォッチ_1)"/><path id="Path-Copy-3" d="M819.47 1145.63c15.04-32.82 30.51-81.43 10.46-122.3-14.97-30.52-37.12-58.8-136.19-81.67-170.34-39.33-245.16-89.55-142.3-268.36s-1.12-376.23-182.46-376.23c-54.92 0-95.68 12.18-127.32 32.55-61.52 39.62-101.35 102.19-135.19 222.36-12.97 46.06-12.16 48.05-43.23 153.08a4397 4397 0 0 1-42.27 134.91c-14.27 54.08-56.88 241.87 45.65 370.14 147.43 184.45 504.87 133.09 695.8-13.31a496.5 496.5 0 0 0 57.03-51.19Z" style="fill:url(#_新規パターンスウォッチ_2);fill-rule:evenodd"/></svg>