<?xml version="1.0" encoding="UTF-8"?>
<svg id="_レイヤー_1" xmlns="http://www.w3.org/2000/svg" version="1.1" viewBox="0 0 520 470">
  <!-- Generator: Adobe Illustrator 30.0.0, SVG Export Plug-In . SVG Version: 2.1.1 Build 123)  -->
  <defs>
    <style>
      .st0 {
        fill: #e62923;
      }
    </style>
  </defs>
  <path class="st0" d="M120.66,18.05c4.02-6.03,11.06-10.05,19.09-10.05h241.15c8.04,0,15.08,4.02,19.09,10.05l112.54,152.72c7.04,9.05,6.03,22.1-1.01,30.14l-233.11,257.22c-5.03,5.03-11.06,8.04-18.08,8.04s-13.07-3.02-18.08-8.04L9.13,200.91c-8.04-8.04-8.04-21.1-1.01-30.14L120.66,18.05Z"/>
  <g>
    <path class="st0" d="M138.51,6.25c-.81.03-.58.72-1.36.79-.77.06-1.32-.44-2.12-.33-.79.17-.73.43-1.5.61-.76.22-.95-.37-1.73-.13-.77.28-.78.8-1.51,1.11-.73.32-.03,1.32-.71,1.65-.66.34-1.4-.83-2.09-.41-.69.4-.67.81-1.32,1.25-.66.44-.96-.49-1.61,0-.66.49-.13,1.18-.72,1.69-.6.51-.67.44-1.24.99-.57.54-1.05.15-1.61.74-.55.61.14,1.33-.36,1.93-.46.61-1.57.71-1.6.75l3.28,2.3s.18-1,.62-1.55c.44-.53.8-.23,1.26-.72.46-.49.05-.89.55-1.37.5-.49.94.01,1.45-.42.51-.43-.38-1.2.19-1.63.56-.44.98-.23,1.56-.61.58-.39.68-.06,1.27-.41.59-.35.46-.78,1.08-1.11.64-.3,1,.49,1.62.22.63-.24.32-1.05.99-1.29.68-.2.76.08,1.42-.11.68-.15.76.22,1.43.07.67-.1.45-1.1,1.16-1.21.72-.06.86.73,1.55.68.69-.02.67-.41,1.39-.43.74,0,.93.67,1.49.67v-4c-.56,0-.49.53-1.24.53-.75,0-.78-.29-1.57-.27Z"/>
    <path class="st0" d="M162.63,6.22c-.75,0-.58.68-1.33.68s-1.18-.62-1.93-.62-.75.27-1.5.27-.76-.61-1.51-.61-.92.52-1.67.52-.52,1.22-1.26,1.22-.85-1.33-1.6-1.33-.93.37-1.67.37-.48-.93-1.23-.93-.76.87-1.51.87-.75-.11-1.49-.11-.79-.65-1.53-.65-.85.96-1.6.96-1.44-.86-1.49-.86v4c.07,0,.96-.41,1.71-.41s.74.5,1.49.5.75-.55,1.49-.55.73.66,1.48.66.52-1.15,1.26-1.15.98.4,1.72.4.66.31,1.4.31.83-.48,1.58-.48.76.85,1.51.85.73-.87,1.47-.87.74.29,1.49.29.74.38,1.49.38.67-1.02,1.42-1.02.82.81,1.56.81.74-.39,1.49-.39.93.67,1.49.67v-4c-.56,0-.49.53-1.24.53s-.74-.31-1.49-.31Z"/>
    <path class="st0" d="M186.66,6.22c-.75,0-.58.68-1.33.68s-1.18-.62-1.93-.62-.75.27-1.5.27-.76-.61-1.51-.61-.92.52-1.67.52-.52,1.22-1.26,1.22-.85-1.33-1.6-1.33-.93.37-1.67.37-.48-.93-1.23-.93-.76.87-1.51.87-.75-.11-1.49-.11-.79-.65-1.53-.65-.85.96-1.6.96-1.44-.86-1.49-.86v4c.07,0,.96-.41,1.71-.41s.74.5,1.49.5.75-.55,1.49-.55.73.66,1.48.66.52-1.15,1.26-1.15.98.4,1.72.4.66.31,1.4.31.83-.48,1.58-.48.76.85,1.51.85.73-.87,1.47-.87.74.29,1.49.29.74.38,1.49.38.67-1.02,1.42-1.02.82.81,1.56.81.74-.39,1.49-.39.93.67,1.49.67v-4c-.56,0-.49.53-1.24.53s-.74-.31-1.49-.31Z"/>
    <path class="st0" d="M210.69,6.22c-.75,0-.58.68-1.33.68s-1.18-.62-1.93-.62-.75.27-1.5.27-.76-.61-1.51-.61-.92.52-1.67.52-.52,1.22-1.26,1.22-.85-1.33-1.6-1.33-.93.37-1.67.37-.48-.93-1.23-.93-.76.87-1.51.87-.75-.11-1.49-.11-.79-.65-1.53-.65-.85.96-1.6.96-1.44-.86-1.49-.86v4c.07,0,.96-.41,1.71-.41s.74.5,1.49.5.75-.55,1.49-.55.73.66,1.48.66.52-1.15,1.26-1.15.98.4,1.72.4.66.31,1.4.31.83-.48,1.58-.48.76.85,1.51.85.73-.87,1.47-.87.74.29,1.49.29.74.38,1.49.38.67-1.02,1.42-1.02.82.81,1.56.81.74-.39,1.49-.39.93.67,1.49.67v-4c-.56,0-.49.53-1.24.53s-.74-.31-1.49-.31Z"/>
    <path class="st0" d="M234.73,6.22c-.75,0-.58.68-1.33.68s-1.18-.62-1.93-.62-.75.27-1.5.27-.76-.61-1.51-.61-.92.52-1.67.52-.52,1.22-1.26,1.22-.85-1.33-1.6-1.33-.93.37-1.67.37-.48-.93-1.23-.93-.76.87-1.51.87-.75-.11-1.49-.11-.79-.65-1.53-.65-.85.96-1.6.96-1.44-.86-1.49-.86v4c.07,0,.96-.41,1.71-.41s.74.5,1.49.5.75-.55,1.49-.55.73.66,1.48.66.52-1.15,1.26-1.15.98.4,1.72.4.66.31,1.4.31.83-.48,1.58-.48.76.85,1.51.85.73-.87,1.47-.87.74.29,1.49.29.74.38,1.49.38.67-1.02,1.42-1.02.82.81,1.56.81.74-.39,1.49-.39.93.67,1.49.67v-4c-.56,0-.49.53-1.24.53s-.74-.31-1.49-.31Z"/>
    <path class="st0" d="M258.76,6.22c-.75,0-.58.68-1.33.68s-1.18-.62-1.93-.62-.75.27-1.5.27-.76-.61-1.51-.61-.92.52-1.67.52-.52,1.22-1.26,1.22-.85-1.33-1.6-1.33-.93.37-1.67.37-.48-.93-1.23-.93-.76.87-1.51.87-.75-.11-1.49-.11-.79-.65-1.53-.65-.85.96-1.6.96-1.44-.86-1.49-.86v4c.07,0,.96-.41,1.71-.41s.74.5,1.49.5.75-.55,1.49-.55.73.66,1.48.66.52-1.15,1.26-1.15.98.4,1.72.4.66.31,1.4.31.83-.48,1.58-.48.76.85,1.51.85.73-.87,1.47-.87.74.29,1.49.29.74.38,1.49.38.67-1.02,1.42-1.02.82.81,1.56.81.74-.39,1.49-.39.93.67,1.49.67v-4c-.56,0-.49.53-1.24.53s-.74-.31-1.49-.31Z"/>
    <path class="st0" d="M282.79,6.22c-.75,0-.58.68-1.33.68s-1.18-.62-1.93-.62-.75.27-1.5.27-.76-.61-1.51-.61-.92.52-1.67.52-.52,1.22-1.26,1.22-.85-1.33-1.6-1.33-.93.37-1.67.37-.48-.93-1.23-.93-.76.87-1.51.87-.75-.11-1.49-.11-.79-.65-1.53-.65-.85.96-1.6.96-1.44-.86-1.49-.86v4c.07,0,.96-.41,1.71-.41s.74.5,1.49.5.75-.55,1.49-.55.73.66,1.48.66.52-1.15,1.26-1.15.98.4,1.72.4.66.31,1.4.31.83-.48,1.58-.48.76.85,1.51.85.73-.87,1.47-.87.74.29,1.49.29.74.38,1.49.38.67-1.02,1.42-1.02.82.81,1.56.81.74-.39,1.49-.39.93.67,1.49.67v-4c-.56,0-.49.53-1.24.53s-.74-.31-1.49-.31Z"/>
    <path class="st0" d="M306.82,6.22c-.75,0-.58.68-1.33.68s-1.18-.62-1.93-.62-.75.27-1.5.27-.76-.61-1.51-.61-.92.52-1.67.52-.52,1.22-1.26,1.22-.85-1.33-1.6-1.33-.93.37-1.67.37-.48-.93-1.23-.93-.76.87-1.51.87-.75-.11-1.49-.11-.79-.65-1.53-.65-.85.96-1.6.96-1.44-.86-1.49-.86v4c.07,0,.96-.41,1.71-.41s.74.5,1.49.5.75-.55,1.49-.55.73.66,1.48.66.52-1.15,1.26-1.15.98.4,1.72.4.66.31,1.4.31.83-.48,1.58-.48.76.85,1.51.85.73-.87,1.47-.87.74.29,1.49.29.74.38,1.49.38.67-1.02,1.42-1.02.82.81,1.56.81.74-.39,1.49-.39.93.67,1.49.67v-4c-.56,0-.49.53-1.24.53s-.74-.31-1.49-.31Z"/>
    <path class="st0" d="M330.85,6.22c-.75,0-.58.68-1.33.68s-1.18-.62-1.93-.62-.75.27-1.5.27-.76-.61-1.51-.61-.92.52-1.67.52-.52,1.22-1.26,1.22-.85-1.33-1.6-1.33-.93.37-1.67.37-.48-.93-1.23-.93-.76.87-1.51.87-.75-.11-1.49-.11-.79-.65-1.53-.65-.85.96-1.6.96-1.44-.86-1.49-.86v4c.07,0,.96-.41,1.71-.41s.74.5,1.49.5.75-.55,1.49-.55.73.66,1.48.66.52-1.15,1.26-1.15.98.4,1.72.4.66.31,1.4.31.83-.48,1.58-.48.76.85,1.51.85.73-.87,1.47-.87.74.29,1.49.29.74.38,1.49.38.67-1.02,1.42-1.02.82.81,1.56.81.74-.39,1.49-.39.93.67,1.49.67v-4c-.56,0-.49.53-1.24.53s-.74-.31-1.49-.31Z"/>
    <path class="st0" d="M354.88,6.22c-.75,0-.58.68-1.33.68s-1.18-.62-1.93-.62-.75.27-1.5.27-.76-.61-1.51-.61-.92.52-1.67.52-.52,1.22-1.26,1.22-.85-1.33-1.6-1.33-.93.37-1.67.37-.48-.93-1.23-.93-.76.87-1.51.87-.75-.11-1.49-.11-.79-.65-1.53-.65-.85.96-1.6.96-1.44-.86-1.49-.86v4c.07,0,.96-.41,1.71-.41s.74.5,1.49.5.75-.55,1.49-.55.73.66,1.48.66.52-1.15,1.26-1.15.98.4,1.72.4.66.31,1.4.31.83-.48,1.58-.48.76.85,1.51.85.73-.87,1.47-.87.74.29,1.49.29.74.38,1.49.38.67-1.02,1.42-1.02.82.81,1.56.81.74-.39,1.49-.39.93.67,1.49.67v-4c-.56,0-.49.53-1.24.53s-.74-.31-1.49-.31Z"/>
    <path class="st0" d="M378.92,6.22c-.75,0-.58.68-1.33.68s-1.18-.62-1.93-.62-.75.27-1.5.27-.76-.61-1.51-.61-.92.52-1.67.52-.52,1.22-1.26,1.22-.85-1.33-1.6-1.33-.93.37-1.67.37-.48-.93-1.23-.93-.76.87-1.51.87-.75-.11-1.49-.11-.79-.65-1.53-.65-.85.96-1.6.96-1.44-.86-1.49-.86v4c.07,0,.96-.41,1.71-.41s.74.5,1.49.5.75-.55,1.49-.55.73.66,1.48.66.52-1.15,1.26-1.15.98.4,1.72.4.66.31,1.4.31.83-.48,1.58-.48.76.85,1.51.85.73-.87,1.47-.87.74.29,1.49.29.74.38,1.49.38.67-1.02,1.42-1.02.82.81,1.56.81.74-.39,1.49-.39c.75,0,.92.68,1.43.7l.12-4c-.6-.01-.55.5-1.3.5-.75,0-.74-.31-1.49-.31Z"/>
    <path class="st0" d="M401.2,16.66c-.47-.64-.88-.1-1.37-.71-.48-.61-.32-1.37-.87-1.96-.54-.6-.76-.38-1.32-.94-.58-.54-.21-1-.83-1.53-.65-.5-1.11-.21-1.75-.67-.67-.44-1.13.71-1.77.3-.65-.37-.08-1.6-.79-1.98-.72-.35-1.04-.13-1.77-.43-.73-.3-.1-1.08-.88-1.35-.78-.26-1.06.52-1.81.31-.76-.21-.73-.34-1.5-.51-.77-.17-.68-.84-1.49-.96-.81-.13-1.04.81-1.81.74-.77-.09-1.47-.95-1.53-.95l-.12,4c.06-.01.91-.39,1.6-.31.69.06.62.58,1.29.68.67.1.78-.41,1.46-.27.68.14.49.82,1.14.99.65.18.8-.95,1.48-.72.68.23.72.72,1.36.98.63.29.42.54,1.03.84.61.32.9-.04,1.52.31.59.39.13,1.11.69,1.48.53.41,1.06-.31,1.61.13.53.46.36.66.86,1.14.49.49.25.73.7,1.24.45.5,1.19-.24,1.64.32.45.56-.15,1.1.26,1.68.41.57.73.36,1.17.96.44.6,0,1.13.33,1.59l3.27-2.3c-.33-.45-.72-.09-1.16-.69-.45-.61-.18-.75-.64-1.4Z"/>
    <path class="st0" d="M415.46,36.03c-.44-.6-.9-.08-1.35-.68-.44-.6-.2-1.31-.64-1.91-.44-.6-.66-.45-1.11-1.05-.44-.6.05-.97-.39-1.57-.44-.6-.97-.44-1.41-1.05-.44-.6-1.31.29-1.75-.31-.44-.6.59-1.46.14-2.05-.44-.6-.85-.53-1.29-1.13-.44-.6.47-.92.03-1.52-.44-.6-1.16-.11-1.61-.71-.44-.6-.35-.66-.8-1.26-.44-.6.07-1.01-.38-1.61-.44-.6-1.29-.13-1.74-.73-.44-.6-.15-1.65-.18-1.69l-3.27,2.3s.91.54,1.35,1.14c.44.6.03.88.47,1.48.44.6.9.28,1.34.89.44.6-.11.97.33,1.57.44.6,1.25-.24,1.69.36.44.6.25,1.02.69,1.62.44.6.14.7.58,1.3.44.6.89.39,1.33.99.44.6-.25,1.11.2,1.7.44.6,1.15.08,1.59.68.44.6.2.77.65,1.37.44.6.13.82.57,1.42.44.6,1.23-.05,1.67.55.44.6-.18,1.13.26,1.73.44.6.76.38,1.2.97.44.6,0,1.14.33,1.59l3.26-2.31c-.33-.45-.72-.09-1.16-.69-.44-.6-.19-.77-.63-1.38Z"/>
    <path class="st0" d="M429.71,55.37c-.44-.6-.9-.07-1.34-.68-.44-.6-.2-1.31-.64-1.91-.44-.6-.66-.45-1.11-1.05-.44-.6.05-.97-.4-1.57-.44-.6-.97-.44-1.41-1.04-.44-.6-1.3.3-1.75-.31-.44-.6.58-1.46.14-2.06-.44-.6-.85-.53-1.29-1.13-.44-.6.47-.92.03-1.52-.44-.6-1.16-.11-1.6-.71-.44-.6-.35-.66-.8-1.26-.44-.6.07-1.01-.38-1.61-.44-.6-1.29-.13-1.73-.73-.44-.6-.15-1.66-.18-1.69l-3.26,2.31s.91.54,1.35,1.14c.44.6.03.89.47,1.49.44.6.9.28,1.34.88.44.6-.11.97.33,1.57.44.6,1.25-.25,1.69.35.44.6.26,1.02.7,1.62.44.6.14.71.58,1.3.44.6.89.39,1.33.99.44.6-.24,1.11.2,1.71.44.6,1.14.08,1.59.68.44.6.21.77.65,1.37.44.6.13.82.58,1.42.44.6,1.23-.05,1.67.55.44.6-.18,1.13.26,1.73.44.6.76.37,1.2.97.44.6,0,1.14.33,1.59l3.25-2.33c-.33-.45-.72-.08-1.16-.69-.44-.6-.19-.77-.63-1.38Z"/>
    <path class="st0" d="M443.96,74.71c-.44-.6-.9-.07-1.34-.67-.44-.6-.2-1.32-.64-1.92-.44-.6-.66-.44-1.11-1.05-.44-.6.04-.97-.4-1.58-.44-.6-.97-.44-1.41-1.04-.44-.6-1.3.3-1.74-.3-.44-.6.58-1.47.14-2.06-.44-.6-.85-.53-1.29-1.13-.44-.6.47-.93.03-1.53-.44-.6-1.16-.1-1.6-.7-.44-.6-.35-.66-.8-1.26-.44-.6.06-1.01-.38-1.61-.44-.6-1.29-.12-1.73-.72-.44-.6-.16-1.66-.18-1.7l-3.25,2.33s.91.54,1.35,1.13c.44.6.03.89.48,1.49.44.6.89.28,1.34.88.44.6-.11.98.34,1.58.44.6,1.24-.25,1.68.35.44.6.26,1.02.7,1.62.44.6.14.71.58,1.3.44.6.88.39,1.33.99.44.6-.24,1.11.2,1.71.44.6,1.14.07,1.58.67.44.6.21.77.65,1.37.44.6.13.82.58,1.42.44.6,1.22-.05,1.67.55.44.6-.18,1.14.27,1.74.44.6.76.37,1.2.97.44.6,0,1.14.34,1.59l3.24-2.34c-.33-.45-.71-.08-1.16-.69-.44-.6-.19-.78-.63-1.38Z"/>
    <path class="st0" d="M458.21,94.05c-.44-.6-.9-.07-1.34-.67-.44-.6-.2-1.32-.64-1.92-.44-.6-.66-.44-1.1-1.04-.44-.6.04-.98-.4-1.58-.44-.6-.97-.44-1.41-1.04-.44-.6-1.3.3-1.74-.3-.44-.6.57-1.47.13-2.07-.44-.6-.85-.53-1.29-1.13-.44-.6.47-.93.02-1.53-.44-.6-1.16-.1-1.6-.7-.44-.6-.35-.66-.8-1.27-.44-.6.06-1.01-.38-1.61-.44-.6-1.29-.12-1.73-.72-.44-.6-.16-1.66-.18-1.7l-3.24,2.34s.91.53,1.35,1.13c.44.6.04.89.48,1.49.44.6.89.28,1.34.88.44.6-.1.98.34,1.58.44.6,1.24-.26,1.68.34.44.6.26,1.02.7,1.62.44.6.14.71.58,1.31.44.6.88.39,1.33.99.44.6-.24,1.11.2,1.71.44.6,1.14.07,1.58.67.44.6.21.77.65,1.37.44.6.14.82.58,1.42.44.6,1.22-.06,1.66.54.44.6-.17,1.14.27,1.74.44.6.76.37,1.2.97.44.6,0,1.14.34,1.6l3.23-2.36c-.33-.45-.71-.08-1.16-.68-.44-.6-.19-.78-.63-1.38Z"/>
    <path class="st0" d="M472.46,113.39c-.44-.6-.89-.07-1.34-.67-.44-.6-.2-1.32-.65-1.92-.44-.6-.66-.44-1.1-1.04-.44-.6.04-.98-.4-1.58-.44-.6-.97-.44-1.41-1.04-.44-.6-1.29.31-1.74-.29-.44-.6.57-1.48.13-2.07-.44-.6-.85-.53-1.29-1.13-.44-.6.46-.93.02-1.53-.44-.6-1.15-.1-1.6-.7-.44-.6-.35-.67-.8-1.27-.44-.6.06-1.02-.38-1.62-.44-.6-1.28-.12-1.73-.72-.44-.6-.16-1.67-.19-1.7l-3.23,2.36s.91.53,1.35,1.13c.44.6.04.89.48,1.49.44.6.89.28,1.33.88.44.6-.1.98.34,1.58.44.6,1.24-.26,1.68.34.44.6.26,1.02.7,1.62.44.6.14.71.58,1.31.44.6.88.38,1.32.98.44.6-.24,1.12.21,1.72.44.6,1.14.07,1.58.67.44.6.21.77.65,1.37.44.6.14.82.58,1.42.44.6,1.22-.06,1.66.54.44.6-.17,1.14.27,1.74.44.6.75.37,1.2.97.44.6,0,1.15.34,1.6l3.22-2.37c-.33-.45-.71-.08-1.16-.68-.44-.6-.19-.78-.63-1.38Z"/>
    <path class="st0" d="M486.71,132.73c-.44-.6-.89-.06-1.34-.67-.44-.6-.21-1.32-.65-1.92-.44-.6-.66-.44-1.1-1.04-.44-.6.04-.98-.4-1.58-.44-.6-.97-.44-1.41-1.04-.44-.6-1.29.31-1.73-.29-.44-.6.57-1.48.13-2.08-.44-.6-.85-.52-1.29-1.12-.44-.6.46-.94.02-1.54-.44-.6-1.15-.09-1.59-.69-.44-.6-.35-.67-.8-1.27-.44-.6.06-1.02-.38-1.62-.44-.6-1.28-.11-1.72-.71-.44-.6-.16-1.67-.19-1.71l-3.22,2.37s.91.53,1.35,1.13c.44.6.04.89.48,1.49.44.6.89.27,1.33.87.44.6-.1.98.34,1.58.44.6,1.23-.26,1.67.33.44.6.26,1.03.7,1.62.44.6.14.71.58,1.31.44.6.88.38,1.32.98.44.6-.23,1.12.21,1.72.44.6,1.13.06,1.58.66.44.6.21.77.65,1.37.44.6.14.83.58,1.42.44.6,1.22-.07,1.66.53.44.6-.17,1.14.27,1.74.44.6.75.37,1.19.97.44.6,0,1.15.34,1.6l3.21-2.39c-.33-.45-.71-.08-1.15-.68-.44-.6-.19-.78-.64-1.38Z"/>
    <path class="st0" d="M500.96,152.07c-.44-.6-.89-.06-1.33-.66-.44-.6-.21-1.32-.65-1.93-.44-.6-.66-.44-1.1-1.04-.44-.6.04-.98-.4-1.58-.44-.6-.96-.43-1.41-1.03-.44-.6-1.29.32-1.73-.28-.44-.6.56-1.49.12-2.08-.44-.6-.85-.52-1.29-1.12-.44-.6.46-.94.02-1.54-.44-.6-1.15-.09-1.59-.69-.44-.6-.36-.67-.8-1.27-.44-.6.06-1.02-.39-1.62-.44-.6-1.28-.11-1.72-.71-.44-.6-.16-1.67-.19-1.71l-3.21,2.39s.9.53,1.35,1.13c.44.6.04.89.48,1.49.44.6.89.27,1.33.87.44.6-.1.99.34,1.59.44.6,1.23-.27,1.67.33.44.6.26,1.03.7,1.62.44.6.14.71.58,1.31.44.6.88.38,1.32.98.44.6-.23,1.12.21,1.72.44.6,1.13.06,1.57.66.44.6.21.77.65,1.37.44.6.14.83.58,1.43.44.6,1.21-.07,1.65.53.44.6-.17,1.15.28,1.75.44.6.75.37,1.19.97.44.6.01,1.15.34,1.6l3.2-2.4c-.33-.45-.71-.08-1.15-.68-.44-.6-.19-.78-.64-1.38Z"/>
    <path class="st0" d="M515.26,171.56c-.46-.66-.92-.14-1.37-.77-.45-.64-.22-1.37-.66-1.97-.44-.6-.66-.44-1.1-1.04-.44-.6.04-.99-.41-1.59-.44-.6-.96-.43-1.4-1.03-.44-.6-1.28.32-1.73-.28-.44-.6.56-1.49.12-2.09-.44-.6-.85-.52-1.29-1.12-.44-.6.46-.94.01-1.54-.44-.6-1.15-.09-1.59-.69-.44-.6-.36-.67-.8-1.27-.44-.6.05-1.02-.39-1.62-.44-.6-1.27-.1-1.72-.71-.44-.6-.17-1.68-.19-1.71l-3.2,2.4s.9.53,1.34,1.13c.44.6.04.9.48,1.5.44.6.89.27,1.33.87.44.6-.1.99.34,1.59.44.6,1.23-.27,1.67.32.44.6.26,1.03.7,1.63.44.6.15.71.59,1.31.44.6.88.38,1.32.98.44.6-.23,1.13.21,1.73.44.6,1.13.06,1.57.66.44.6.21.77.65,1.37.44.6.14.83.58,1.43.44.6,1.22-.07,1.64.52.42.59-.21,1.11.18,1.68.38.58.68.39,1.04,1,.36.61-.16,1.06.04,1.53l3.61-1.72c-.26-.55-.67-.26-1.07-.95-.39-.69-.12-.84-.53-1.54Z"/>
    <path class="st0" d="M516.62,196.29c.32-.74-.37-.85-.06-1.56.29-.72,1-.96,1.27-1.72.25-.76-.05-.84.16-1.61.19-.76.81-.65.94-1.45.13-.8-.32-1.06-.24-1.85.07-.79-1.17-.66-1.1-1.41.08-.74,1.36-.81,1.38-1.62.01-.8-.36-.98-.43-1.76-.06-.78.89-.58.82-1.4-.13-.81-.99-.69-1.12-1.47-.12-.78-.05-.8-.23-1.57-.21-.76.46-.99.18-1.76-.27-.78-1.21-.55-1.47-1.29-.31-.7.16-1.74.14-1.79l-3.61,1.72c.02.05.76.62,1.01,1.28.23.66-.24.82-.02,1.46.21.64.71.51.89,1.18.17.68-.46.8-.36,1.47.11.66,1.21.28,1.33.99.08.71-.32.97-.26,1.66.06.7-.28.63-.28,1.31-.02.69.51.79.44,1.49-.06.71-.91.64-.97,1.32-.11.67.75.79.64,1.49-.11.7-.42.63-.58,1.31-.19.67-.51.58-.73,1.23-.22.65.76.91.53,1.6-.26.67-1.06.41-1.33,1.05-.27.64.07.8-.27,1.42-.35.61-.98.44-1.26.87l3.4,2.1c.34-.51-.19-.72.2-1.42.37-.71.68-.53,1-1.28Z"/>
    <path class="st0" d="M501.03,215.14c.5-.55-.11-.89.39-1.44.5-.55,1.26-.47,1.76-1.02.5-.55.3-.73.8-1.29.5-.55.97-.16,1.47-.71.5-.55.23-1.03.73-1.58.5-.55-.57-1.2-.07-1.75.5-.55,1.57.26,2.07-.29.5-.55.35-.93.85-1.48.5-.55,1.01.26,1.51-.29.5-.55-.14-1.14.36-1.7.5-.55.58-.48,1.08-1.03.5-.56,1.01-.12,1.53-.78.51-.65-.16-1.32.3-1.95.43-.64,1.56-.8,1.59-.85l-3.4-2.1c-.02.05-.14.96-.52,1.54-.43.54-.82.23-1.24.75-.4.52-.05.91-.53,1.46-.5.55-.99.1-1.49.65-.5.55.51,1.15.01,1.7-.5.55-.95.46-1.45,1.01-.5.55-.67.28-1.17.83-.5.55-.2.94-.7,1.49-.5.55-1.15,0-1.65.55-.5.55.16,1.12-.34,1.67-.5.55-.72.36-1.22.91-.5.55-.78.3-1.28.85-.5.55.31,1.18-.19,1.73-.5.55-1.16.06-1.66.61-.5.55-.21.81-.71,1.36-.5.55-1.12.24-1.5.65l2.98,2.67c.37-.41-.07-.71.44-1.27.5-.56.73-.34,1.23-.9Z"/>
    <path class="st0" d="M484.89,232.95c.5-.55-.11-.89.39-1.44.5-.55,1.26-.46,1.76-1.02.5-.55.3-.73.8-1.29.5-.55.97-.16,1.47-.71.5-.55.23-1.03.74-1.58.5-.55-.56-1.2-.06-1.75.5-.55,1.57.26,2.07-.29.5-.55.35-.93.85-1.49.5-.55,1.01.26,1.51-.29.5-.55-.14-1.14.36-1.7.5-.55.58-.48,1.08-1.03.5-.55,1.01-.15,1.51-.7.5-.55-.15-1.27.35-1.83.5-.55,1.61-.49,1.64-.53l-2.98-2.67c-.04.05-.34.99-.84,1.54-.5.55-.87.22-1.37.77-.5.55-.09.92-.59,1.48-.5.55-.99.1-1.49.65-.5.55.51,1.15,0,1.7-.5.55-.95.46-1.45,1.01-.5.55-.67.28-1.17.83-.5.55-.2.94-.7,1.49-.5.55-1.15,0-1.65.55-.5.55.16,1.12-.34,1.67-.5.55-.72.36-1.22.91-.5.55-.78.3-1.28.85-.5.55.31,1.18-.19,1.73-.5.55-1.16.06-1.66.61-.5.55-.21.81-.71,1.36-.5.55-1.12.24-1.5.65l2.98,2.67c.37-.41-.06-.71.44-1.27.5-.56.73-.34,1.23-.9Z"/>
    <path class="st0" d="M468.75,250.76c.5-.55-.11-.89.39-1.44.5-.55,1.26-.46,1.76-1.02.5-.55.3-.73.8-1.29.5-.55.97-.16,1.47-.71.5-.55.24-1.03.74-1.59.5-.55-.56-1.2-.06-1.75.5-.55,1.56.26,2.06-.29.5-.55.35-.93.85-1.49.5-.55,1.01.27,1.51-.29.5-.55-.14-1.15.36-1.7.5-.55.58-.48,1.08-1.03.5-.55,1.01-.15,1.51-.7.5-.55-.15-1.27.36-1.83.5-.55,1.61-.49,1.64-.53l-2.98-2.67c-.04.05-.34.99-.84,1.54-.5.55-.87.22-1.37.77-.5.55-.09.92-.59,1.48-.5.55-.99.1-1.49.65-.5.55.51,1.15,0,1.7-.5.55-.95.46-1.45,1.01-.5.55-.67.28-1.17.83-.5.55-.2.94-.7,1.49-.5.55-1.15,0-1.65.54-.5.55.16,1.12-.34,1.68-.5.55-.71.36-1.21.91-.5.55-.78.3-1.28.85-.5.55.3,1.18-.2,1.73-.5.55-1.15.06-1.65.61-.5.55-.21.81-.71,1.36-.5.55-1.12.23-1.5.65l2.97,2.68c.37-.41-.06-.71.44-1.27.5-.56.73-.34,1.23-.9Z"/>
    <path class="st0" d="M452.61,268.57c.5-.55-.11-.89.39-1.44.5-.55,1.25-.46,1.76-1.02.5-.55.3-.73.8-1.29.5-.55.97-.15,1.47-.71.5-.55.24-1.03.74-1.59.5-.55-.56-1.2-.06-1.76.5-.55,1.56.26,2.06-.29.5-.55.35-.94.85-1.49.5-.55,1.01.27,1.51-.29.5-.55-.14-1.15.36-1.7.5-.55.58-.48,1.08-1.03.5-.55,1.01-.15,1.51-.7.5-.55-.14-1.28.36-1.83.5-.55,1.6-.49,1.64-.53l-2.97-2.68c-.04.05-.34.99-.84,1.54-.5.55-.87.21-1.37.77-.5.55-.09.93-.59,1.48-.5.55-.98.1-1.48.65-.5.55.5,1.16,0,1.71-.5.55-.95.46-1.45,1.01-.5.55-.67.28-1.17.83-.5.55-.2.94-.7,1.49-.5.55-1.14,0-1.64.54-.5.55.16,1.13-.34,1.68-.5.55-.71.36-1.21.91-.5.55-.78.3-1.28.85-.5.55.3,1.18-.2,1.73-.5.55-1.15.06-1.65.61-.5.55-.21.81-.71,1.36-.5.55-1.12.23-1.5.65l2.96,2.69c.37-.41-.06-.71.44-1.27.5-.56.73-.34,1.23-.9Z"/>
    <path class="st0" d="M436.47,286.38c.5-.55-.11-.89.39-1.45.5-.55,1.25-.46,1.76-1.01.5-.55.3-.74.8-1.29.5-.55.97-.15,1.47-.71.5-.55.24-1.03.74-1.59.5-.55-.56-1.2-.06-1.76.5-.55,1.56.27,2.06-.29.5-.55.35-.94.85-1.49.5-.55,1.01.27,1.51-.28.5-.55-.14-1.15.37-1.7.5-.55.58-.48,1.08-1.03.5-.55,1.01-.14,1.51-.7.5-.55-.14-1.28.36-1.83.5-.55,1.6-.49,1.63-.52l-2.96-2.69c-.04.05-.34.99-.84,1.54-.5.55-.87.21-1.37.77-.5.55-.09.93-.59,1.48-.5.55-.98.1-1.48.65-.5.55.5,1.16,0,1.71-.5.55-.95.46-1.45,1.01-.5.55-.67.28-1.16.83-.5.55-.2.94-.7,1.49-.5.55-1.14,0-1.64.54-.5.55.16,1.13-.34,1.68-.5.55-.71.36-1.21.91-.5.55-.78.3-1.28.85-.5.55.3,1.18-.2,1.73-.5.55-1.15.06-1.65.61-.5.55-.21.81-.71,1.36-.5.55-1.12.23-1.5.65l2.96,2.69c.37-.41-.06-.71.44-1.27.5-.56.73-.34,1.23-.9Z"/>
    <path class="st0" d="M420.33,304.19c.5-.55-.11-.89.39-1.45.5-.55,1.25-.46,1.75-1.01.5-.55.3-.74.81-1.29.5-.55.97-.15,1.47-.71.5-.55.24-1.04.74-1.59.5-.55-.56-1.21-.06-1.76.5-.55,1.56.27,2.06-.28.5-.55.35-.94.85-1.49.5-.55,1.01.27,1.51-.28.5-.55-.13-1.15.37-1.7.5-.55.58-.48,1.08-1.03.5-.55,1.01-.14,1.51-.7.5-.55-.14-1.28.36-1.83.5-.55,1.6-.49,1.63-.52l-2.96-2.69c-.04.05-.34.99-.84,1.54-.5.55-.87.21-1.37.76-.5.55-.09.93-.59,1.48-.5.55-.98.09-1.48.65-.5.55.5,1.16,0,1.71-.5.55-.95.46-1.45,1.01-.5.55-.67.28-1.16.83-.5.55-.2.94-.7,1.49-.5.55-1.14-.01-1.64.54-.5.55.16,1.13-.34,1.68-.5.55-.71.36-1.21.91-.5.55-.78.3-1.28.85-.5.55.3,1.18-.2,1.74-.5.55-1.15.06-1.65.61-.5.55-.21.81-.71,1.36-.5.55-1.12.23-1.5.65l2.95,2.7c.37-.41-.06-.71.44-1.27.5-.56.72-.34,1.23-.9Z"/>
    <path class="st0" d="M404.19,322c.5-.55-.11-.89.39-1.45.5-.55,1.25-.46,1.75-1.01.5-.55.3-.74.81-1.29.5-.55.97-.15,1.47-.71.5-.55.24-1.04.74-1.59.5-.55-.56-1.21-.05-1.76.5-.55,1.56.27,2.06-.28.5-.55.35-.94.85-1.49.5-.55,1,.27,1.51-.28.5-.55-.13-1.15.37-1.7.5-.55.58-.48,1.08-1.03.5-.55,1.01-.14,1.51-.7.5-.55-.14-1.28.36-1.83.5-.55,1.6-.49,1.63-.52l-2.95-2.7c-.04.05-.34.99-.84,1.54-.5.55-.87.21-1.37.76-.5.55-.09.93-.6,1.48-.5.55-.98.09-1.48.64-.5.55.5,1.16,0,1.71-.5.55-.95.46-1.45,1.01-.5.55-.67.28-1.16.83-.5.55-.2.94-.7,1.49-.5.55-1.14-.01-1.64.54-.5.55.16,1.13-.34,1.68-.5.55-.71.36-1.21.91-.5.55-.78.3-1.28.85-.5.55.3,1.19-.2,1.74-.5.55-1.15.05-1.65.61-.5.55-.21.81-.71,1.37-.5.55-1.12.23-1.5.65l2.94,2.71c.37-.41-.06-.72.44-1.27.5-.56.72-.34,1.23-.89Z"/>
    <path class="st0" d="M388.05,339.81c.5-.55-.11-.89.4-1.45.5-.55,1.25-.46,1.75-1.01.5-.55.3-.74.81-1.29.5-.55.97-.15,1.47-.7.5-.55.24-1.04.74-1.59.5-.55-.55-1.21-.05-1.76.5-.55,1.55.27,2.05-.28.5-.55.35-.94.85-1.49.5-.55,1,.27,1.5-.28.5-.55-.13-1.15.37-1.71.5-.55.58-.48,1.08-1.03.5-.55,1.01-.14,1.51-.69.5-.55-.14-1.28.36-1.84.5-.55,1.6-.49,1.63-.52l-2.94-2.71c-.04.05-.34.99-.84,1.55-.5.55-.86.21-1.36.76-.5.55-.1.93-.6,1.48-.5.55-.98.09-1.48.64-.5.55.5,1.16,0,1.71-.5.55-.95.45-1.45,1-.5.55-.67.28-1.16.83-.5.55-.2.94-.7,1.49-.5.55-1.14-.01-1.64.54-.5.55.15,1.13-.34,1.68-.5.55-.71.36-1.21.91-.5.55-.78.29-1.28.85-.5.55.3,1.19-.2,1.74-.5.55-1.15.05-1.65.61-.5.55-.21.81-.71,1.37-.5.55-1.12.23-1.49.64l2.94,2.71c.37-.41-.06-.72.44-1.27.5-.56.72-.34,1.23-.89Z"/>
    <path class="st0" d="M371.9,357.63c.5-.55-.11-.9.4-1.45.5-.55,1.25-.46,1.75-1.01.5-.55.3-.74.81-1.29.5-.55.96-.15,1.47-.7.5-.55.24-1.04.74-1.59.5-.55-.55-1.21-.05-1.77.5-.55,1.55.28,2.05-.28.5-.55.35-.94.85-1.49.5-.55,1,.27,1.5-.28.5-.55-.13-1.15.37-1.71.5-.55.58-.48,1.08-1.03.5-.55,1.01-.14,1.51-.69.5-.55-.14-1.28.36-1.84.5-.55,1.6-.48,1.63-.52l-2.94-2.71c-.04.05-.34,1-.84,1.55-.5.55-.86.21-1.36.76-.5.55-.1.93-.6,1.48-.5.55-.98.09-1.48.64-.5.55.5,1.17,0,1.72-.5.55-.95.45-1.45,1-.5.55-.67.28-1.16.83-.5.55-.2.94-.7,1.5-.5.55-1.14-.02-1.64.54-.5.55.15,1.13-.35,1.68-.5.55-.71.35-1.21.91-.5.55-.78.29-1.28.85-.5.55.29,1.19-.21,1.74-.5.55-1.15.05-1.65.6-.5.55-.22.82-.71,1.37-.5.55-1.12.23-1.49.64l2.93,2.72c.37-.41-.06-.72.44-1.27.5-.56.72-.34,1.23-.89Z"/>
    <path class="st0" d="M355.76,375.44c.5-.55-.1-.9.4-1.45.5-.55,1.25-.46,1.75-1.01.5-.55.3-.74.81-1.29.5-.55.96-.15,1.46-.7.5-.55.24-1.04.74-1.59.5-.55-.55-1.22-.05-1.77.5-.55,1.55.28,2.05-.27.5-.55.35-.94.85-1.49.5-.55,1,.28,1.5-.28.5-.55-.13-1.16.37-1.71.5-.55.58-.48,1.08-1.03.5-.55,1.01-.14,1.51-.69.5-.55-.14-1.29.37-1.84.5-.55,1.6-.48,1.63-.52l-2.93-2.72c-.04.05-.34,1-.84,1.55-.5.55-.86.21-1.36.76-.5.55-.1.93-.6,1.48-.5.55-.98.09-1.48.64-.5.55.49,1.17,0,1.72-.5.55-.95.45-1.45,1-.5.55-.66.28-1.16.83-.5.55-.2.94-.7,1.5-.5.55-1.14-.02-1.64.53-.5.55.15,1.13-.35,1.69-.5.55-.71.35-1.21.91-.5.55-.78.29-1.28.85-.5.55.29,1.19-.21,1.74-.5.55-1.15.05-1.65.6-.5.55-.22.82-.72,1.37-.5.55-1.12.23-1.49.64l2.93,2.73c.37-.41-.06-.72.45-1.27.5-.56.72-.34,1.23-.89Z"/>
    <path class="st0" d="M339.62,393.25c.5-.55-.1-.9.4-1.45.5-.55,1.25-.45,1.75-1.01.5-.55.31-.74.81-1.29.5-.55.96-.15,1.46-.7.5-.55.24-1.04.74-1.59.5-.55-.55-1.22-.05-1.77.5-.55,1.55.28,2.05-.27.5-.55.35-.94.85-1.49.5-.55,1,.28,1.5-.28.5-.55-.13-1.16.37-1.71.5-.55.58-.48,1.08-1.03.5-.55,1-.14,1.51-.69.5-.55-.13-1.29.37-1.84.5-.55,1.6-.48,1.63-.52l-2.93-2.73c-.04.05-.34,1-.84,1.55-.5.55-.86.21-1.36.76-.5.55-.1.93-.6,1.48-.5.55-.98.09-1.48.64-.5.55.49,1.17,0,1.72-.5.55-.95.45-1.45,1-.5.55-.66.28-1.16.83-.5.55-.2.94-.71,1.5-.5.55-1.13-.02-1.63.53-.5.55.15,1.14-.35,1.69-.5.55-.71.35-1.21.9-.5.55-.78.29-1.28.84-.5.55.29,1.19-.21,1.74-.5.55-1.14.05-1.64.6-.5.55-.22.82-.72,1.37-.5.55-1.11.23-1.49.64l2.92,2.73c.37-.41-.06-.72.45-1.27.5-.56.72-.34,1.23-.89Z"/>
    <path class="st0" d="M323.48,411.06c.5-.55-.1-.9.4-1.45.5-.55,1.25-.45,1.75-1.01.5-.55.31-.74.81-1.29.5-.55.96-.15,1.46-.7.5-.55.24-1.04.74-1.59.5-.55-.55-1.22-.04-1.77.5-.55,1.55.28,2.05-.27.5-.55.35-.94.85-1.49.5-.55,1,.28,1.5-.27.5-.55-.13-1.16.38-1.71.5-.55.58-.48,1.08-1.03.5-.55,1-.14,1.5-.69.5-.55-.13-1.29.37-1.84.5-.55,1.59-.48,1.62-.51l-2.92-2.73c-.04.05-.35,1-.84,1.55-.5.55-.86.21-1.36.76-.5.55-.1.93-.6,1.49-.5.55-.98.09-1.48.64-.5.55.49,1.17,0,1.72-.5.55-.95.45-1.45,1-.5.55-.66.28-1.16.83-.5.55-.21.95-.71,1.5-.5.55-1.13-.02-1.63.53-.5.55.15,1.14-.35,1.69-.5.55-.71.35-1.21.9-.5.55-.78.29-1.28.84-.5.55.29,1.19-.21,1.75-.5.55-1.14.05-1.64.6-.5.55-.22.82-.72,1.37-.5.55-1.11.22-1.49.64l2.91,2.74c.37-.41-.06-.72.45-1.28.5-.56.72-.34,1.23-.89Z"/>
    <path class="st0" d="M307.34,428.87c.5-.55-.1-.9.4-1.45.5-.55,1.25-.45,1.75-1.01.5-.55.31-.74.81-1.29.5-.55.96-.15,1.46-.7.5-.55.24-1.04.74-1.59.5-.55-.54-1.22-.04-1.77.5-.55,1.54.28,2.04-.27.5-.55.35-.94.85-1.49.5-.55,1,.28,1.5-.27.5-.55-.12-1.16.38-1.71.5-.55.58-.48,1.08-1.03.5-.55,1-.14,1.5-.69.5-.55-.13-1.29.37-1.84.5-.55,1.59-.48,1.62-.51l-2.91-2.74c-.04.05-.35,1-.85,1.55-.5.55-.86.21-1.36.76-.5.55-.1.93-.6,1.49-.5.55-.98.09-1.47.64-.5.55.49,1.17-.01,1.72-.5.55-.95.45-1.45,1-.5.55-.66.28-1.16.83-.5.55-.21.95-.71,1.5-.5.55-1.13-.02-1.63.53-.5.55.15,1.14-.35,1.69-.5.55-.71.35-1.21.9-.5.55-.78.29-1.28.84-.5.55.29,1.2-.21,1.75-.5.55-1.14.05-1.64.6-.5.55-.22.82-.72,1.37-.5.55-1.11.22-1.49.64l2.91,2.75c.37-.41-.06-.72.45-1.28.5-.56.72-.34,1.22-.89Z"/>
    <path class="st0" d="M291.2,446.68c.5-.55-.1-.9.4-1.46.5-.55,1.24-.45,1.75-1,.5-.55.31-.74.81-1.29.5-.55.96-.14,1.46-.7.5-.55.24-1.04.75-1.6.5-.55-.54-1.22-.04-1.78.5-.55,1.54.29,2.04-.27.5-.55.35-.94.85-1.49.5-.55.99.28,1.5-.27.5-.55-.12-1.16.38-1.71.5-.55.58-.48,1.08-1.03.5-.55,1-.13,1.5-.69.5-.55-.13-1.29.37-1.85.5-.55,1.59-.48,1.62-.51l-2.91-2.75c-.04.05-.35,1-.85,1.55-.5.55-.86.21-1.36.76-.5.55-.1.93-.6,1.49-.5.55-.97.09-1.47.64-.5.55.49,1.17-.01,1.73-.5.55-.95.45-1.45,1-.5.55-.66.28-1.16.83-.5.55-.21.95-.71,1.5-.5.55-1.13-.02-1.63.53-.5.55.15,1.14-.35,1.69-.5.55-.71.35-1.21.9-.5.55-.77.29-1.27.84-.5.55.29,1.2-.21,1.75-.5.55-1.14.05-1.64.6-.5.55-.22.82-.72,1.37-.5.55-1.11.22-1.49.64l2.9,2.75c.37-.41-.05-.72.45-1.28.5-.56.72-.34,1.22-.89Z"/>
    <path class="st0" d="M273.98,463.97c.68-.42.15-.91.8-1.34.63-.44,1.37-.22,1.99-.71.61-.51.45-.7,1.03-1.22.58-.52,1.01-.07,1.6-.64.61-.57.31-1.06.82-1.61.5-.55-.54-1.23-.04-1.78.5-.55,1.54.29,2.04-.26.5-.55.35-.94.85-1.49.5-.55.99.28,1.49-.27.5-.55-.12-1.16.38-1.72.5-.55.58-.48,1.08-1.03.5-.55,1-.13,1.5-.69.5-.55-.13-1.29.37-1.85.5-.55,1.59-.48,1.62-.51l-2.9-2.75c-.04.05-.35,1-.85,1.55-.5.55-.86.21-1.36.76-.5.55-.1.94-.6,1.49-.5.55-.97.08-1.47.64-.5.55.48,1.18-.01,1.73-.5.55-.95.45-1.44,1-.5.55-.66.28-1.16.82-.5.55-.21.95-.71,1.5-.5.55-1.13-.02-1.63.53-.5.56.15,1.15-.36,1.63-.5.49-.71.27-1.24.74-.53.48-.79.17-1.32.61-.54.43.12,1.19-.46,1.63-.6.41-1.11-.22-1.69.16-.6.36-.38.71-1,1.05-.62.35-1.08-.17-1.54.05l1.75,3.6c.54-.27.24-.69.93-1.07.69-.38.84-.11,1.52-.53Z"/>
    <path class="st0" d="M249.3,465.41c.72.36.85-.35,1.57-.04.71.3.94,1.03,1.7,1.29.77.23.84,0,1.61.18.77.2.65.8,1.46.95.8.16,1.07-.36,1.86-.24.8.07.66-1.17,1.41-1.11.75.03.82,1.37,1.63,1.37.8-.03.98-.38,1.76-.45.78-.07.59.9,1.4.79.81-.11.69-.97,1.46-1.12.78-.14.8-.06,1.57-.25.76-.2.99.39,1.77.15.77-.29.54-1.21,1.26-1.51.71-.29,1.74.16,1.79.13l-1.75-3.6s-.63.76-1.27,1.03c-.65.25-.82-.22-1.46,0-.65.19-.49.75-1.16.92-.68.17-.81-.47-1.47-.35-.66.13-.26,1.23-.97,1.33-.7.11-.97-.29-1.66-.23-.7.04-.63-.28-1.31-.26-.69,0-.78.47-1.49.44-.71-.07-.65-.89-1.31-.98-.66-.1-.79.79-1.48.65-.69-.13-.63-.41-1.3-.59-.68-.16-.56-.55-1.22-.75-.65-.21-.92.75-1.6.51-.66-.28-.41-1.05-1.03-1.34-.62-.31-.8.06-1.42-.29-.62-.34-.43-1.01-.86-1.28l-2.11,3.4c.52.31.71-.16,1.4.22.69.38.54.65,1.26,1.01Z"/>
    <path class="st0" d="M231.34,448.76c.5.55.88-.04,1.39.52.5.55.35,1.3.85,1.86.5.55.7.37,1.2.92.5.55.07.99.57,1.54.5.55,1,.33,1.5.88.5.55,1.23-.46,1.73.09.5.55-.39,1.55.11,2.1.5.55.89.43,1.39.98.5.55-.35.99.15,1.55.49.55,1.16-.03,1.73.51.57.56.5.61,1.09,1.14.59.51.22,1.03.83,1.54.65.48,1.3-.21,1.93.23.63.44.79,1.56.84,1.58l2.11-3.4c-.06-.01-.98-.13-1.56-.54-.57-.42-.27-.82-.81-1.24-.53-.44-.9,0-1.43-.48-.52-.47-.09-.96-.57-1.42-.48-.47-1.16.52-1.66-.04-.5-.55-.37-1-.87-1.55-.5-.55-.22-.7-.72-1.25-.5-.55-.91-.28-1.41-.83-.5-.55.11-1.15-.39-1.7-.5-.55-1.12.06-1.62-.49-.5-.55-.29-.75-.79-1.3-.5-.55-.23-.81-.73-1.36-.5-.55-1.19.2-1.69-.35-.5-.55.04-1.17-.46-1.72-.5-.55-.78-.28-1.28-.84-.5-.55-.13-1.15-.51-1.57l-2.9,2.76c.37.41.71,0,1.21.55.5.56.27.76.78,1.32Z"/>
    <path class="st0" d="M215.24,430.99c.5.55.9-.02,1.4.53.5.55.34,1.29.84,1.85.5.55.7.37,1.2.93.5.55.06.98.56,1.53.5.55,1.01.34,1.51.89.5.55,1.25-.44,1.75.11.5.55-.42,1.53.08,2.08.5.55.9.44,1.4.99.5.55-.37.98.14,1.53.5.55,1.16-.02,1.66.53.5.55.42.63.92,1.18.5.55.05,1.02.55,1.57.5.55,1.29-.02,1.79.54.5.55.33,1.64.36,1.68l2.96-2.69c-.05-.04-.95-.44-1.45-.99-.5-.55-.13-.88-.63-1.44-.5-.55-.91-.18-1.41-.74-.5-.55,0-.99-.5-1.54-.5-.55-1.2.39-1.7-.16-.5-.55-.36-.99-.86-1.54-.5-.55-.21-.69-.71-1.24-.5-.55-.92-.29-1.42-.84-.5-.55.12-1.14-.38-1.69-.5-.55-1.14.05-1.64-.5-.5-.55-.29-.75-.78-1.3-.5-.55-.22-.81-.72-1.36-.5-.55-1.2.19-1.71-.37-.5-.55.05-1.15-.45-1.71-.5-.55-.79-.29-1.29-.84-.5-.55-.12-1.14-.5-1.56l-2.96,2.69c.37.41.72,0,1.22.56.5.56.27.76.77,1.31Z"/>
    <path class="st0" d="M199.1,413.18c.5.55.9-.02,1.4.53.5.55.34,1.29.84,1.85.5.55.7.37,1.2.93.5.55.06.98.56,1.53.5.55,1.01.34,1.51.89.5.55,1.25-.44,1.75.11.5.55-.42,1.53.08,2.08.5.55.9.44,1.4.99.5.55-.37.98.14,1.53.5.55,1.16-.02,1.66.53.5.55.42.63.92,1.18.5.55.05,1.02.55,1.57.5.55,1.29-.02,1.79.54.5.55.33,1.64.36,1.68l2.96-2.69c-.05-.04-.95-.44-1.45-.99-.5-.55-.13-.88-.63-1.44-.5-.55-.91-.18-1.41-.74-.5-.55,0-.99-.5-1.54-.5-.55-1.2.39-1.7-.16-.5-.55-.36-.99-.86-1.54-.5-.55-.21-.69-.71-1.24-.5-.55-.92-.29-1.42-.84-.5-.55.12-1.14-.38-1.69-.5-.55-1.14.05-1.64-.5-.5-.55-.29-.75-.78-1.3-.5-.55-.22-.81-.72-1.36-.5-.55-1.2.19-1.71-.37-.5-.55.05-1.15-.45-1.71-.5-.55-.79-.29-1.29-.84-.5-.55-.12-1.14-.5-1.56l-2.96,2.69c.37.41.72,0,1.22.56.5.56.27.76.77,1.31Z"/>
    <path class="st0" d="M182.96,395.38c.5.55.9-.02,1.4.53.5.55.34,1.29.84,1.85.5.55.7.37,1.2.93.5.55.06.98.56,1.53.5.55,1.01.34,1.51.89.5.55,1.25-.44,1.75.11.5.55-.42,1.53.08,2.08.5.55.9.44,1.4.99.5.55-.37.98.14,1.53.5.55,1.16-.02,1.66.53.5.55.42.63.92,1.18.5.55.05,1.02.55,1.57.5.55,1.29-.02,1.79.54.5.55.33,1.64.36,1.68l2.96-2.69c-.05-.04-.95-.44-1.45-.99-.5-.55-.13-.88-.63-1.44-.5-.55-.91-.18-1.41-.74-.5-.55,0-.99-.5-1.54-.5-.55-1.2.39-1.7-.16-.5-.55-.36-.99-.86-1.54-.5-.55-.21-.69-.71-1.24-.5-.55-.92-.29-1.42-.84-.5-.55.12-1.14-.38-1.69-.5-.55-1.14.05-1.64-.5-.5-.55-.29-.75-.78-1.3-.5-.55-.22-.81-.72-1.36-.5-.55-1.2.19-1.71-.37-.5-.55.05-1.15-.45-1.71-.5-.55-.79-.29-1.29-.84-.5-.55-.12-1.14-.5-1.56l-2.96,2.69c.37.41.72,0,1.22.56.5.56.27.76.77,1.31Z"/>
    <path class="st0" d="M166.82,377.57c.5.55.9-.02,1.4.53.5.55.34,1.29.84,1.85.5.55.7.37,1.2.93.5.55.06.98.56,1.53.5.55,1.01.34,1.51.89.5.55,1.25-.44,1.75.11.5.55-.42,1.53.08,2.08.5.55.9.44,1.4.99.5.55-.37.98.14,1.53.5.55,1.16-.02,1.66.53.5.55.42.63.92,1.18.5.55.05,1.02.55,1.57.5.55,1.29-.02,1.79.54.5.55.33,1.64.36,1.68l2.96-2.69c-.05-.04-.95-.44-1.45-.99-.5-.55-.13-.88-.63-1.44-.5-.55-.91-.18-1.41-.74-.5-.55,0-.99-.5-1.54-.5-.55-1.2.39-1.7-.16-.5-.55-.36-.99-.86-1.54-.5-.55-.21-.69-.71-1.24-.5-.55-.92-.29-1.42-.84-.5-.55.12-1.14-.38-1.69-.5-.55-1.14.05-1.64-.5-.5-.55-.29-.75-.78-1.3-.5-.55-.22-.81-.72-1.36-.5-.55-1.2.19-1.71-.37-.5-.55.05-1.15-.45-1.71-.5-.55-.79-.29-1.29-.84-.5-.55-.12-1.14-.5-1.56l-2.96,2.69c.37.41.72,0,1.22.56.5.56.27.76.77,1.31Z"/>
    <path class="st0" d="M150.68,359.76c.5.55.9-.02,1.4.53.5.55.34,1.29.84,1.85.5.55.7.37,1.2.93.5.55.06.98.56,1.53.5.55,1.01.34,1.51.89.5.55,1.25-.44,1.75.11.5.55-.42,1.53.08,2.08.5.55.9.44,1.4.99.5.55-.37.98.14,1.53.5.55,1.16-.02,1.66.53.5.55.42.63.92,1.18.5.55.05,1.02.55,1.57.5.55,1.29-.02,1.79.54.5.55.33,1.64.36,1.68l2.96-2.69c-.05-.04-.95-.44-1.45-.99-.5-.55-.13-.88-.63-1.44-.5-.55-.91-.18-1.41-.74-.5-.55,0-.99-.5-1.54-.5-.55-1.2.39-1.7-.16-.5-.55-.36-.99-.86-1.54-.5-.55-.21-.69-.71-1.24-.5-.55-.92-.29-1.42-.84-.5-.55.12-1.14-.38-1.69-.5-.55-1.14.05-1.64-.5-.5-.55-.29-.75-.78-1.3-.5-.55-.22-.81-.72-1.36-.5-.55-1.2.19-1.71-.37-.5-.55.05-1.15-.45-1.71-.5-.55-.79-.29-1.29-.84-.5-.55-.12-1.14-.5-1.56l-2.96,2.69c.37.41.72,0,1.22.56.5.56.27.76.77,1.31Z"/>
    <path class="st0" d="M134.55,341.95c.5.55.9-.02,1.4.53.5.55.34,1.29.84,1.85.5.55.7.37,1.2.93.5.55.06.98.56,1.53.5.55,1.01.34,1.51.89.5.55,1.25-.44,1.75.11.5.55-.42,1.53.08,2.08.5.55.9.44,1.4.99.5.55-.37.98.14,1.53.5.55,1.16-.02,1.66.53.5.55.42.63.92,1.18.5.55.05,1.02.55,1.57.5.55,1.29-.02,1.79.54.5.55.33,1.64.36,1.68l2.96-2.69c-.05-.04-.95-.44-1.45-.99-.5-.55-.13-.88-.63-1.44-.5-.55-.91-.18-1.41-.74-.5-.55,0-.99-.5-1.54-.5-.55-1.2.39-1.7-.16-.5-.55-.36-.99-.86-1.54-.5-.55-.21-.69-.71-1.24-.5-.55-.92-.29-1.42-.84-.5-.55.12-1.14-.38-1.69-.5-.55-1.14.05-1.64-.5-.5-.55-.29-.75-.78-1.3-.5-.55-.22-.81-.72-1.36-.5-.55-1.2.19-1.71-.37-.5-.55.05-1.15-.45-1.71-.5-.55-.79-.29-1.29-.84-.5-.55-.12-1.14-.5-1.56l-2.96,2.69c.37.41.72,0,1.22.56.5.56.27.76.77,1.31Z"/>
    <path class="st0" d="M118.41,324.15c.5.55.9-.02,1.4.53.5.55.34,1.29.84,1.85.5.55.7.37,1.2.93.5.55.06.98.56,1.53.5.55,1.01.34,1.51.89.5.55,1.25-.44,1.75.11.5.55-.42,1.53.08,2.08.5.55.9.44,1.4.99.5.55-.37.98.14,1.53.5.55,1.16-.02,1.66.53.5.55.42.63.92,1.18.5.55.05,1.02.55,1.57.5.55,1.29-.02,1.79.54.5.55.33,1.64.36,1.68l2.96-2.69c-.05-.04-.95-.44-1.45-.99-.5-.55-.13-.88-.63-1.44-.5-.55-.91-.18-1.41-.74-.5-.55,0-.99-.5-1.54-.5-.55-1.2.39-1.7-.16-.5-.55-.36-.99-.86-1.54-.5-.55-.21-.69-.71-1.24-.5-.55-.92-.29-1.42-.84-.5-.55.12-1.14-.38-1.69-.5-.55-1.14.05-1.64-.5-.5-.55-.29-.75-.78-1.3-.5-.55-.22-.81-.72-1.36-.5-.55-1.2.19-1.71-.37-.5-.55.05-1.15-.45-1.71-.5-.55-.79-.29-1.29-.84-.5-.55-.12-1.14-.5-1.56l-2.96,2.69c.37.41.72,0,1.22.56.5.56.27.76.77,1.31Z"/>
    <path class="st0" d="M102.27,306.34c.5.55.9-.02,1.4.53.5.55.34,1.29.84,1.85.5.55.7.37,1.2.93.5.55.06.98.56,1.53.5.55,1.01.34,1.51.89.5.55,1.25-.44,1.75.11.5.55-.42,1.53.08,2.08.5.55.9.44,1.4.99.5.55-.37.98.14,1.53.5.55,1.16-.02,1.66.53.5.55.42.63.92,1.18.5.55.05,1.02.55,1.57.5.55,1.29-.02,1.79.54.5.55.33,1.64.36,1.68l2.96-2.69c-.05-.04-.95-.44-1.45-.99-.5-.55-.13-.88-.63-1.44-.5-.55-.91-.18-1.41-.74-.5-.55,0-.99-.5-1.54-.5-.55-1.2.39-1.7-.16-.5-.55-.36-.99-.86-1.54-.5-.55-.21-.69-.71-1.24-.5-.55-.92-.29-1.42-.84-.5-.55.12-1.14-.38-1.69-.5-.55-1.14.05-1.64-.5-.5-.55-.29-.75-.78-1.3-.5-.55-.22-.81-.72-1.36-.5-.55-1.2.19-1.71-.37-.5-.55.05-1.15-.45-1.71-.5-.55-.79-.29-1.29-.84-.5-.55-.12-1.14-.5-1.56l-2.96,2.69c.37.41.72,0,1.22.56.5.56.27.76.77,1.31Z"/>
    <path class="st0" d="M86.13,288.53c.5.55.9-.02,1.4.53.5.55.34,1.29.84,1.85.5.55.7.37,1.2.93.5.55.06.98.56,1.53.5.55,1.01.34,1.51.89.5.55,1.25-.44,1.75.11.5.55-.42,1.53.08,2.08.5.55.9.44,1.4.99.5.55-.37.98.14,1.53.5.55,1.16-.02,1.66.53.5.55.42.63.92,1.18.5.55.05,1.02.55,1.57.5.55,1.29-.02,1.79.54.5.55.33,1.64.36,1.68l2.96-2.69c-.05-.04-.95-.44-1.45-.99-.5-.55-.13-.88-.63-1.44-.5-.55-.91-.18-1.41-.74-.5-.55,0-.99-.5-1.54-.5-.55-1.2.39-1.7-.16-.5-.55-.36-.99-.86-1.54-.5-.55-.21-.69-.71-1.24-.5-.55-.92-.29-1.42-.84-.5-.55.12-1.14-.38-1.69-.5-.55-1.14.05-1.64-.5-.5-.55-.29-.75-.78-1.3-.5-.55-.22-.81-.72-1.36-.5-.55-1.2.19-1.71-.37-.5-.55.05-1.15-.45-1.71-.5-.55-.79-.29-1.29-.84-.5-.55-.12-1.14-.5-1.56l-2.96,2.69c.37.41.72,0,1.22.56.5.56.27.76.77,1.31Z"/>
    <path class="st0" d="M69.99,270.73c.5.55.9-.02,1.4.53.5.55.34,1.29.84,1.85.5.55.7.37,1.2.93.5.55.06.98.56,1.53.5.55,1.01.34,1.51.89.5.55,1.25-.44,1.75.11.5.55-.42,1.53.08,2.08.5.55.9.44,1.4.99.5.55-.37.98.14,1.53.5.55,1.16-.02,1.66.53.5.55.42.63.92,1.18.5.55.05,1.02.55,1.57.5.55,1.29-.02,1.79.54.5.55.33,1.64.36,1.68l2.96-2.69c-.05-.04-.95-.44-1.45-.99-.5-.55-.13-.88-.63-1.44-.5-.55-.91-.18-1.41-.74-.5-.55,0-.99-.5-1.54-.5-.55-1.2.39-1.7-.16-.5-.55-.36-.99-.86-1.54-.5-.55-.21-.69-.71-1.24-.5-.55-.92-.29-1.42-.84-.5-.55.12-1.14-.38-1.69-.5-.55-1.14.05-1.64-.5-.5-.55-.29-.75-.78-1.3-.5-.55-.22-.81-.72-1.36-.5-.55-1.2.19-1.71-.37-.5-.55.05-1.15-.45-1.71-.5-.55-.79-.29-1.29-.84-.5-.55-.12-1.14-.5-1.56l-2.96,2.69c.37.41.72,0,1.22.56.5.56.27.76.77,1.31Z"/>
    <path class="st0" d="M53.86,252.92c.5.55.9-.02,1.4.53.5.55.34,1.29.84,1.85.5.55.7.37,1.2.93.5.55.06.98.56,1.53.5.55,1.01.34,1.51.89.5.55,1.25-.44,1.75.11.5.55-.42,1.53.08,2.08.5.55.9.44,1.4.99.5.55-.37.98.14,1.53.5.55,1.16-.02,1.66.53.5.55.42.63.92,1.18.5.55.05,1.02.55,1.57.5.55,1.29-.02,1.79.54.5.55.33,1.64.36,1.68l2.96-2.69c-.05-.04-.95-.44-1.45-.99-.5-.55-.13-.88-.63-1.44-.5-.55-.91-.18-1.41-.74-.5-.55,0-.99-.5-1.54-.5-.55-1.2.39-1.7-.16-.5-.55-.36-.99-.86-1.54-.5-.55-.21-.69-.71-1.24-.5-.55-.92-.29-1.42-.84-.5-.55.12-1.14-.38-1.69-.5-.55-1.14.05-1.64-.5-.5-.55-.29-.75-.78-1.3-.5-.55-.22-.81-.72-1.36-.5-.55-1.2.19-1.71-.37-.5-.55.05-1.15-.45-1.71-.5-.55-.79-.29-1.29-.84-.5-.55-.12-1.14-.5-1.56l-2.96,2.69c.37.41.72,0,1.22.56.5.56.27.76.77,1.31Z"/>
    <path class="st0" d="M37.72,235.11c.5.55.9-.02,1.4.53.5.55.34,1.29.84,1.85.5.55.7.37,1.2.93.5.55.06.98.56,1.53.5.55,1.01.34,1.51.89.5.55,1.25-.44,1.75.11.5.55-.42,1.53.08,2.08.5.55.9.44,1.4.99.5.55-.37.98.14,1.53.5.55,1.16-.02,1.66.53.5.55.42.63.92,1.18.5.55.05,1.02.55,1.57.5.55,1.29-.02,1.79.54.5.55.33,1.64.36,1.68l2.96-2.69c-.05-.04-.95-.44-1.45-.99-.5-.55-.13-.88-.63-1.44-.5-.55-.91-.18-1.41-.74-.5-.55,0-.99-.5-1.54-.5-.55-1.2.39-1.7-.16-.5-.55-.36-.99-.86-1.54-.5-.55-.21-.69-.71-1.24-.5-.55-.92-.29-1.42-.84-.5-.55.12-1.14-.38-1.69-.5-.55-1.14.05-1.64-.5-.5-.55-.29-.75-.78-1.3-.5-.55-.22-.81-.72-1.36-.5-.55-1.2.19-1.71-.37-.5-.55.05-1.15-.45-1.71-.5-.55-.79-.29-1.29-.84-.5-.55-.12-1.14-.5-1.56l-2.96,2.69c.37.41.72,0,1.22.56.5.56.27.76.77,1.31Z"/>
    <path class="st0" d="M21.58,217.31c.5.55.9-.02,1.4.53.5.55.34,1.29.84,1.85.5.55.7.37,1.2.93.5.55.06.98.56,1.53.5.55,1.01.34,1.51.89.5.55,1.25-.44,1.75.11.5.55-.42,1.53.08,2.08.5.55.9.44,1.4.99.5.55-.37.98.14,1.53.5.55,1.16-.02,1.66.53.5.55.42.63.92,1.18.5.55.05,1.02.55,1.57.5.55,1.29-.02,1.79.54.5.55.33,1.64.36,1.68l2.96-2.69c-.05-.04-.95-.44-1.45-.99-.5-.55-.13-.88-.63-1.44-.5-.55-.91-.18-1.41-.74-.5-.55,0-.99-.5-1.54-.5-.55-1.2.39-1.7-.16-.5-.55-.36-.99-.86-1.54-.5-.55-.21-.69-.71-1.24-.5-.55-.92-.29-1.42-.84-.5-.55.12-1.14-.38-1.69-.5-.55-1.14.05-1.64-.5-.5-.55-.29-.75-.78-1.3-.5-.55-.22-.81-.72-1.36-.5-.55-1.2.19-1.71-.37-.5-.55.05-1.15-.45-1.71-.5-.55-.79-.29-1.29-.84-.5-.55-.12-1.14-.5-1.56l-2.96,2.69c.37.41.72,0,1.22.56.5.56.27.76.77,1.31Z"/>
    <path class="st0" d="M5.36,199.15c.48.66.92.11,1.39.74.49.6.35,1.33.88,1.93.53.59.71.38,1.21.94.5.55.07.99.57,1.54.5.55,1,.33,1.5.88.5.55,1.23-.46,1.73.09.5.55-.39,1.55.11,2.1.5.55.89.43,1.39.98.5.55-.35.99.15,1.55.5.55,1.14-.04,1.64.51.5.55.42.63.92,1.18.5.55.06,1.03.56,1.58.5.55,1.27-.03,1.77.52.5.55.34,1.66.38,1.69l2.9-2.76c-.05-.04-.95-.43-1.45-.98-.5-.55-.14-.89-.64-1.44-.5-.55-.9-.17-1.4-.73-.5-.55,0-1-.51-1.55-.5-.55-1.18.41-1.68-.14-.5-.55-.37-1-.87-1.55-.5-.55-.22-.7-.72-1.25-.5-.55-.91-.28-1.41-.83-.5-.55.11-1.15-.39-1.7-.5-.55-1.12.06-1.62-.49-.5-.55-.29-.75-.79-1.3-.49-.54-.24-.83-.71-1.35-.46-.51-1.18.21-1.67-.33-.48-.55.17-1.13-.25-1.66-.41-.55-.74-.32-1.09-.93-.35-.61.14-1.07-.1-1.51l-3.55,1.84c.29.54.72.21,1.13.9.42.68.12.86.61,1.52Z"/>
    <path class="st0" d="M3.76,174.48c-.34.73.33.84.04,1.56-.27.73-1.03.94-1.29,1.7-.22.77.04.85-.18,1.61-.23.76-.78.65-.95,1.45-.15.8.31,1.06.23,1.85-.08.79,1.16.67,1.08,1.42-.03.75-1.36.81-1.38,1.62-.03.8.4.98.44,1.76.07.78-.92.59-.8,1.41.13.81.99.69,1.11,1.47.16.77.08.79.27,1.57.19.77-.41,1-.14,1.77.29.77,1.18.55,1.51,1.25.33.7-.12,1.76-.1,1.82l3.55-1.84s-.74-.61-1.03-1.24c-.26-.64.23-.82,0-1.45-.23-.63-.76-.47-.92-1.15-.16-.68.46-.81.33-1.46-.1-.66-1.2-.27-1.32-.97-.13-.7.3-.97.24-1.66-.04-.69.24-.62.26-1.31.02-.69-.48-.78-.44-1.49.08-.71.93-.64,1-1.31.06-.67-.75-.79-.64-1.49.15-.69.38-.64.59-1.3.19-.67.55-.57.74-1.23.23-.64-.74-.92-.49-1.59.25-.68,1.03-.42,1.33-1.04.3-.62-.07-.81.27-1.43.36-.61,1.03-.41,1.29-.86l-3.39-2.12c-.31.52.18.72-.22,1.41-.41.68-.64.55-1,1.27Z"/>
    <path class="st0" d="M17.82,154.59c-.44.6.2.88-.25,1.48-.44.6-1.2.58-1.64,1.18-.44.6-.23.76-.67,1.37-.44.6-.94.25-1.39.85-.44.6-.13,1.06-.58,1.66-.44.6.67,1.15.23,1.75-.44.6-1.57-.12-2.01.48-.44.6-.25.97-.69,1.57-.44.6-1.02-.17-1.47.43-.44.6.25,1.14-.2,1.74-.44.6-.53.53-.97,1.14-.44.6-.99.24-1.43.84-.44.59.25,1.29-.19,1.91-.45.61-1.58.77-1.59.83l3.39,2.12c0-.06.14-.98.55-1.55.41-.58.79-.26,1.24-.87.44-.6,0-.94.45-1.54.44-.6.96-.19,1.41-.79.44-.6-.61-1.11-.17-1.71.44-.6.9-.55,1.34-1.15.44-.6.63-.34,1.07-.94.44-.6.11-.96.55-1.56.44-.6,1.13-.1,1.58-.7.44-.6-.27-1.11.17-1.71.44-.6.67-.42,1.11-1.02.44-.6.74-.37,1.19-.97.44-.6-.41-1.15.03-1.75.44-.6,1.14-.17,1.58-.77.44-.6.13-.83.57-1.43.44-.6,1.09-.34,1.42-.79l-3.2-2.4c-.33.45.13.71-.31,1.31-.44.6-.69.41-1.13,1.01Z"/>
    <path class="st0" d="M32.07,135.25c-.44.6.2.88-.25,1.48-.44.6-1.2.58-1.64,1.18-.44.6-.23.76-.67,1.36-.44.6-.95.25-1.39.85-.44.6-.13,1.05-.57,1.65-.44.6.67,1.15.23,1.75-.44.6-1.57-.11-2.02.49-.44.6-.25.97-.69,1.57-.44.6-1.03-.17-1.47.43-.44.6.25,1.13-.19,1.73-.44.6-.53.54-.97,1.14-.44.6-.99.24-1.43.84-.44.6.27,1.26-.18,1.86-.44.6-1.54.64-1.57.68l3.2,2.4c.03-.06.24-1.03.68-1.62.44-.6.84-.3,1.28-.9.44-.6,0-.93.44-1.54.44-.6.97-.19,1.41-.79.44-.6-.61-1.11-.17-1.71.44-.6.9-.55,1.34-1.15.44-.6.63-.35,1.07-.94.44-.6.11-.96.55-1.56.44-.6,1.14-.1,1.58-.7.44-.6-.27-1.11.17-1.71.44-.6.67-.43,1.12-1.03.44-.6.75-.37,1.19-.97.44-.6-.42-1.15.03-1.75.44-.6,1.14-.17,1.58-.77.44-.6.13-.83.57-1.43.44-.6,1.09-.34,1.42-.8l-3.21-2.39c-.33.45.13.7-.31,1.31-.44.6-.69.41-1.13,1.01Z"/>
    <path class="st0" d="M46.33,115.91c-.44.6.2.87-.24,1.48-.44.6-1.2.59-1.64,1.19-.44.6-.23.76-.67,1.36-.44.6-.95.25-1.39.85-.44.6-.13,1.05-.57,1.65-.44.6.68,1.14.24,1.74-.44.6-1.58-.11-2.02.49-.44.6-.25.97-.69,1.57-.44.6-1.03-.17-1.47.43-.44.6.25,1.13-.19,1.73-.44.6-.53.54-.97,1.14-.44.6-.99.24-1.43.84-.44.6.27,1.26-.17,1.86-.44.6-1.54.65-1.57.68l3.21,2.39c.03-.06.24-1.02.68-1.62.44-.6.84-.3,1.28-.9.44-.6,0-.93.44-1.53.44-.6.97-.19,1.41-.79.44-.6-.62-1.1-.17-1.7.44-.6.9-.55,1.34-1.15.44-.6.64-.35,1.08-.94.44-.6.1-.96.55-1.56.44-.6,1.14-.11,1.58-.71.44-.6-.27-1.11.17-1.71.44-.6.67-.43,1.12-1.03.44-.6.75-.37,1.19-.97.44-.6-.42-1.15.02-1.74.44-.6,1.14-.17,1.58-.77.44-.6.13-.83.57-1.43.44-.6,1.09-.35,1.43-.8l-3.22-2.37c-.33.45.14.7-.31,1.31-.44.6-.69.41-1.13,1.02Z"/>
    <path class="st0" d="M60.58,96.57c-.44.6.2.87-.24,1.47-.44.6-1.2.59-1.65,1.19-.44.6-.23.76-.67,1.36-.44.6-.95.25-1.39.85-.44.6-.13,1.05-.57,1.65-.44.6.68,1.14.24,1.74-.44.6-1.58-.1-2.02.5-.44.6-.25.96-.69,1.56-.44.6-1.03-.16-1.47.44-.44.6.25,1.13-.19,1.73-.44.6-.53.54-.97,1.14-.44.6-.99.25-1.43.85-.44.6.27,1.26-.17,1.86-.44.6-1.55.65-1.57.69l3.22,2.37c.03-.06.24-1.02.68-1.62.44-.6.84-.3,1.28-.9.44-.6,0-.93.44-1.53.44-.6.97-.2,1.41-.8.44-.6-.62-1.1-.18-1.7.44-.6.9-.55,1.34-1.15.44-.6.64-.35,1.08-.94.44-.6.1-.95.55-1.55.44-.6,1.14-.11,1.58-.71.44-.6-.27-1.1.17-1.7.44-.6.68-.43,1.12-1.03.44-.6.75-.38,1.19-.98.44-.6-.42-1.14.02-1.74.44-.6,1.14-.18,1.59-.78.44-.6.13-.83.57-1.43.44-.6,1.09-.35,1.43-.8l-3.23-2.36c-.33.45.14.7-.31,1.3-.44.6-.69.41-1.13,1.02Z"/>
    <path class="st0" d="M74.83,77.23c-.44.6.2.87-.24,1.47-.44.6-1.2.59-1.65,1.19-.44.6-.23.76-.67,1.36-.44.6-.95.26-1.39.86-.44.6-.13,1.05-.57,1.65-.44.6.68,1.13.24,1.73-.44.6-1.59-.1-2.03.5-.44.6-.25.96-.69,1.56-.44.6-1.03-.16-1.48.44-.44.6.25,1.12-.19,1.72-.44.6-.53.54-.97,1.14-.44.6-.99.25-1.43.85-.44.6.28,1.25-.17,1.85-.44.6-1.55.65-1.58.69l3.23,2.36c.03-.06.24-1.02.68-1.62.44-.6.84-.3,1.28-.9.44-.6,0-.93.44-1.53.44-.6.97-.2,1.41-.8.44-.6-.62-1.09-.18-1.69.44-.6.9-.55,1.34-1.15.44-.6.64-.35,1.08-.95.44-.6.1-.95.54-1.55.44-.6,1.14-.11,1.58-.71.44-.6-.28-1.1.17-1.7.44-.6.68-.43,1.12-1.03.44-.6.75-.38,1.19-.98.44-.6-.43-1.14.02-1.74.44-.6,1.15-.18,1.59-.78.44-.6.13-.83.57-1.43.44-.6,1.1-.35,1.43-.8l-3.24-2.34c-.33.45.14.7-.31,1.3-.44.6-.69.41-1.13,1.02Z"/>
    <path class="st0" d="M89.08,57.89c-.44.6.21.87-.24,1.47-.44.6-1.21.59-1.65,1.19-.44.6-.22.76-.67,1.36-.44.6-.95.26-1.4.86-.44.6-.13,1.05-.57,1.65-.44.6.69,1.13.25,1.73-.44.6-1.59-.09-2.03.51-.44.6-.25.96-.69,1.56-.44.6-1.04-.16-1.48.44-.44.6.26,1.12-.19,1.72-.44.6-.53.54-.97,1.14-.44.6-.99.25-1.44.85-.44.6.28,1.25-.16,1.85-.44.6-1.55.66-1.58.69l3.24,2.34c.03-.06.24-1.02.68-1.62.44-.6.84-.3,1.29-.9.44-.6,0-.93.44-1.53.44-.6.97-.2,1.42-.8.44-.6-.62-1.09-.18-1.69.44-.6.9-.56,1.34-1.15.44-.6.64-.35,1.08-.95.44-.6.1-.95.54-1.55.44-.6,1.15-.12,1.59-.71.44-.6-.28-1.1.16-1.7.44-.6.68-.43,1.12-1.03.44-.6.75-.38,1.19-.98.44-.6-.43-1.13.01-1.73.44-.6,1.15-.18,1.59-.78.44-.6.13-.83.57-1.42.44-.6,1.1-.35,1.43-.81l-3.25-2.33c-.33.45.14.7-.31,1.3-.44.6-.69.42-1.13,1.02Z"/>
    <path class="st0" d="M103.33,38.55c-.44.6.21.86-.24,1.47-.44.6-1.21.59-1.65,1.2-.44.6-.22.76-.67,1.36-.44.6-.95.26-1.4.86-.44.6-.13,1.05-.57,1.65-.44.6.69,1.12.25,1.73-.44.6-1.59-.09-2.03.51-.44.6-.25.96-.69,1.56-.44.6-1.04-.15-1.48.45-.44.6.26,1.12-.18,1.72-.44.6-.53.54-.97,1.14-.44.6-1,.25-1.44.85-.44.6.28,1.24-.16,1.85-.44.6-1.55.66-1.58.7l3.25,2.33c.03-.06.24-1.02.68-1.62.44-.6.85-.31,1.29-.91.44-.6,0-.92.44-1.52.44-.6.98-.2,1.42-.8.44-.6-.63-1.09-.19-1.68.44-.6.91-.56,1.35-1.15.44-.6.64-.35,1.08-.95.44-.6.1-.95.54-1.55.44-.6,1.15-.12,1.59-.72.44-.6-.28-1.09.16-1.69.44-.6.68-.43,1.12-1.03.44-.6.75-.38,1.19-.98.44-.6-.43-1.13.01-1.73.44-.6,1.15-.19,1.59-.79.44-.6.13-.82.57-1.42.44-.6,1.1-.36,1.43-.81l-3.26-2.31c-.33.45.14.69-.3,1.3-.44.6-.69.42-1.14,1.02Z"/>
    <path class="st0" d="M117.59,19.22c-.44.6.21.86-.23,1.46-.44.6-1.21.6-1.65,1.2-.44.6-.22.76-.67,1.36-.44.6-.96.26-1.4.86-.44.6-.12,1.04-.57,1.64-.44.6.69,1.12.25,1.72-.44.6-1.6-.08-2.04.52-.44.6-.25.96-.69,1.56-.44.6-1.04-.15-1.48.45-.44.6.26,1.11-.18,1.71-.44.6-.53.54-.97,1.14-.44.6-1,.26-1.44.86-.44.6.28,1.24-.16,1.84-.44.6-1.56.66-1.58.7l3.26,2.31c.03-.06.23-1.02.68-1.61.44-.6.85-.31,1.29-.91.44-.6,0-.92.43-1.52.44-.6.98-.21,1.42-.8.44-.6-.63-1.08-.19-1.68.44-.6.91-.56,1.35-1.16.44-.6.64-.35,1.08-.95.44-.6.1-.95.54-1.55.44-.6,1.15-.12,1.59-.72.44-.6-.28-1.09.16-1.69.44-.6.68-.43,1.12-1.03.44-.6.75-.38,1.19-.98.44-.6-.43-1.13,0-1.73.44-.6,1.15-.19,1.59-.79.44-.6.12-.82.57-1.42.44-.6,1.1-.36,1.44-.81l-3.28-2.3c-.33.45.14.69-.3,1.3-.44.6-.69.42-1.14,1.02Z"/>
  </g>
</svg>