<?xml version="1.0" encoding="UTF-8"?>
<svg id="_レイヤー_1" data-name="レイヤー_1" xmlns="http://www.w3.org/2000/svg" xmlns:xlink="http://www.w3.org/1999/xlink" version="1.1" viewBox="0 0 840 1328">
  <!-- Generator: Adobe Illustrator 30.0.0, SVG Export Plug-In . SVG Version: 2.1.1 Build 123)  -->
  <defs>
    <style>
      .st0, .st1 {
        fill: none;
      }

      .st2 {
        fill: #ceb372;
      }

      .st1 {
        stroke: #fff;
        stroke-width: 9.6px;
      }

      .st3 {
        fill: url(#_新規パターンスウォッチ_5);
      }

      .st4 {
        fill: url(#_新規パターンスウォッチ_2);
        fill-rule: evenodd;
      }
    </style>
    <pattern id="_新規パターンスウォッチ_5" data-name="新規パターンスウォッチ 5" x="0" y="0" width="72" height="72" patternTransform="translate(1856.63 1768.36) scale(1.23)" patternUnits="userSpaceOnUse" viewBox="0 0 72 72">
      <g>
        <rect class="st0" width="72" height="72"/>
        <g>
          <line class="st1" x1="71.75" y1="66" x2="144.25" y2="66"/>
          <line class="st1" x1="71.75" y1="42" x2="144.25" y2="42"/>
          <line class="st1" x1="71.75" y1="18" x2="144.25" y2="18"/>
          <line class="st1" x1="71.75" y1="54" x2="144.25" y2="54"/>
          <line class="st1" x1="71.75" y1="30" x2="144.25" y2="30"/>
          <line class="st1" x1="71.75" y1="6" x2="144.25" y2="6"/>
        </g>
        <g>
          <line class="st1" x1="-.25" y1="66" x2="72.25" y2="66"/>
          <line class="st1" x1="-.25" y1="42" x2="72.25" y2="42"/>
          <line class="st1" x1="-.25" y1="18" x2="72.25" y2="18"/>
          <line class="st1" x1="-.25" y1="54" x2="72.25" y2="54"/>
          <line class="st1" x1="-.25" y1="30" x2="72.25" y2="30"/>
          <line class="st1" x1="-.25" y1="6" x2="72.25" y2="6"/>
        </g>
        <g>
          <line class="st1" x1="-72.25" y1="66" x2=".25" y2="66"/>
          <line class="st1" x1="-72.25" y1="42" x2=".25" y2="42"/>
          <line class="st1" x1="-72.25" y1="18" x2=".25" y2="18"/>
          <line class="st1" x1="-72.25" y1="54" x2=".25" y2="54"/>
          <line class="st1" x1="-72.25" y1="30" x2=".25" y2="30"/>
          <line class="st1" x1="-72.25" y1="6" x2=".25" y2="6"/>
        </g>
      </g>
    </pattern>
    <pattern id="_新規パターンスウォッチ_2" data-name=" 新規パターンスウォッチ 2" x="0" y="0" width="48" height="48" patternTransform="translate(-4302.12 -11406.05) rotate(-45) scale(1 -1)" patternUnits="userSpaceOnUse" viewBox="0 0 48 48">
      <g>
        <rect class="st0" width="48" height="48"/>
        <g>
          <rect class="st0" width="48" height="48"/>
          <g>
            <path class="st2" d="M24-2.4c1.32,0,2.4,1.07,2.4,2.4s-1.08,2.4-2.4,2.4-2.4-1.08-2.4-2.4,1.07-2.4,2.4-2.4Z"/>
            <path class="st2" d="M48-2.4c1.32,0,2.4,1.07,2.4,2.4s-1.08,2.4-2.4,2.4-2.4-1.08-2.4-2.4,1.07-2.4,2.4-2.4Z"/>
            <path class="st2" d="M24,21.6c1.32,0,2.4,1.07,2.4,2.4s-1.08,2.4-2.4,2.4-2.4-1.08-2.4-2.4,1.07-2.4,2.4-2.4Z"/>
            <path class="st2" d="M48,21.6c1.32,0,2.4,1.07,2.4,2.4s-1.08,2.4-2.4,2.4-2.4-1.08-2.4-2.4,1.07-2.4,2.4-2.4Z"/>
            <path class="st2" d="M36,9.6c1.32,0,2.4,1.07,2.4,2.4s-1.08,2.4-2.4,2.4-2.4-1.08-2.4-2.4,1.07-2.4,2.4-2.4Z"/>
            <path class="st2" d="M12,9.6c1.32,0,2.4,1.07,2.4,2.4s-1.08,2.4-2.4,2.4-2.4-1.08-2.4-2.4,1.07-2.4,2.4-2.4Z"/>
            <path class="st2" d="M36,33.6c1.32,0,2.4,1.07,2.4,2.4s-1.08,2.4-2.4,2.4-2.4-1.08-2.4-2.4,1.07-2.4,2.4-2.4Z"/>
            <path class="st2" d="M12,33.6c1.32,0,2.4,1.07,2.4,2.4s-1.08,2.4-2.4,2.4-2.4-1.08-2.4-2.4,1.07-2.4,2.4-2.4Z"/>
          </g>
          <g>
            <path class="st2" d="M0-2.4c1.32,0,2.4,1.07,2.4,2.4S1.32,2.4,0,2.4-2.4,1.32-2.4,0-1.33-2.4,0-2.4Z"/>
            <path class="st2" d="M0,21.6c1.32,0,2.4,1.07,2.4,2.4s-1.08,2.4-2.4,2.4-2.4-1.08-2.4-2.4,1.07-2.4,2.4-2.4Z"/>
          </g>
          <g>
            <path class="st2" d="M24,45.6c1.32,0,2.4,1.07,2.4,2.4s-1.08,2.4-2.4,2.4-2.4-1.08-2.4-2.4,1.07-2.4,2.4-2.4Z"/>
            <path class="st2" d="M48,45.6c1.32,0,2.4,1.07,2.4,2.4s-1.08,2.4-2.4,2.4-2.4-1.08-2.4-2.4,1.07-2.4,2.4-2.4Z"/>
          </g>
          <path class="st2" d="M0,45.6c1.32,0,2.4,1.07,2.4,2.4s-1.08,2.4-2.4,2.4-2.4-1.08-2.4-2.4,1.07-2.4,2.4-2.4Z"/>
        </g>
      </g>
    </pattern>
  </defs>
  <circle id="Oval" class="st3" cx="315.59" cy="281.93" r="281.93"/>
  <path id="Path-Copy-3" class="st4" d="M819.47,1145.63c15.04-32.82,30.51-81.43,10.46-122.3-14.97-30.52-37.12-58.8-136.19-81.67-170.34-39.33-245.16-89.55-142.3-268.36,102.86-178.81-1.12-376.23-182.46-376.23-54.92,0-95.68,12.18-127.32,32.55-61.52,39.62-101.35,102.19-135.19,222.36-12.97,46.06-12.16,48.05-43.23,153.08-16.86,56.99-31.89,103.57-42.27,134.91-14.27,54.08-56.88,241.87,45.65,370.14,147.43,184.45,504.87,133.09,695.8-13.31,25.25-19.36,44.33-37.88,57.03-51.19Z"/>
</svg>