<?xml version="1.0" encoding="UTF-8"?>
<svg id="_レイヤー_2" xmlns="http://www.w3.org/2000/svg" xmlns:xlink="http://www.w3.org/1999/xlink" version="1.1" viewBox="0 0 1728 740">
  <!-- Generator: Adobe Illustrator 30.0.0, SVG Export Plug-In . SVG Version: 2.1.1 Build 123)  -->
  <defs>
    <style>
      .st0, .st1, .st2, .st3, .st4, .st5 {
        fill: none;
      }

      .st6 {
        fill: #ceb372;
      }

      .st7 {
        fill: url(#_新規パターンスウォッチ_12);
      }

      .st8 {
        fill: url(#_新規パターンスウォッチ_11);
      }

      .st9 {
        fill: url(#_新規パターンスウォッチ_13);
      }

      .st10 {
        fill: url(#_新規パターンスウォッチ_41);
      }

      .st1 {
        stroke: #fff;
      }

      .st1, .st3 {
        stroke-width: 9.6px;
      }

      .st11 {
        fill: #fff;
      }

      .st12 {
        fill: url(#_新規パターンスウォッチ_5);
      }

      .st13 {
        fill: url(#_新規パターンスウォッチ_4);
      }

      .st14 {
        fill: url(#_新規パターンスウォッチ_3);
      }

      .st15 {
        fill: url(#_新規パターンスウォッチ_1);
      }

      .st2, .st3, .st4, .st5 {
        stroke: #ceb372;
      }

      .st2, .st4 {
        stroke-miterlimit: 10;
      }

      .st4 {
        stroke-width: 3px;
      }

      .st5 {
        stroke-linecap: round;
        stroke-linejoin: round;
        stroke-width: 1.5px;
      }
    </style>
    <pattern id="_新規パターンスウォッチ_1" data-name=" 新規パターンスウォッチ 1" x="0" y="0" width="48" height="48" patternTransform="translate(-6396.36 -8518.02) scale(.56 -.56)" patternUnits="userSpaceOnUse" viewBox="0 0 48 48">
      <g>
        <rect class="st0" width="48" height="48"/>
        <g>
          <rect class="st0" width="48" height="48"/>
          <g>
            <path class="st6" d="M24-4.8c2.65,0,4.8,2.15,4.8,4.8s-2.15,4.8-4.8,4.8-4.8-2.15-4.8-4.8,2.15-4.8,4.8-4.8Z"/>
            <path class="st6" d="M48-4.8c2.65,0,4.8,2.15,4.8,4.8s-2.15,4.8-4.8,4.8-4.8-2.15-4.8-4.8,2.15-4.8,4.8-4.8Z"/>
            <path class="st6" d="M24,19.2c2.65,0,4.8,2.15,4.8,4.8s-2.15,4.8-4.8,4.8-4.8-2.15-4.8-4.8,2.15-4.8,4.8-4.8Z"/>
            <path class="st6" d="M48,19.2c2.65,0,4.8,2.15,4.8,4.8s-2.15,4.8-4.8,4.8-4.8-2.15-4.8-4.8,2.15-4.8,4.8-4.8Z"/>
            <path class="st6" d="M36,7.2c2.65,0,4.8,2.15,4.8,4.8s-2.15,4.8-4.8,4.8-4.8-2.15-4.8-4.8,2.15-4.8,4.8-4.8Z"/>
            <path class="st6" d="M12,7.2c2.65,0,4.8,2.15,4.8,4.8s-2.15,4.8-4.8,4.8-4.8-2.15-4.8-4.8,2.15-4.8,4.8-4.8Z"/>
            <path class="st6" d="M36,31.2c2.65,0,4.8,2.15,4.8,4.8s-2.15,4.8-4.8,4.8-4.8-2.15-4.8-4.8,2.15-4.8,4.8-4.8Z"/>
            <path class="st6" d="M12,31.2c2.65,0,4.8,2.15,4.8,4.8s-2.15,4.8-4.8,4.8-4.8-2.15-4.8-4.8,2.15-4.8,4.8-4.8Z"/>
          </g>
          <g>
            <path class="st6" d="M0-4.8c2.65,0,4.8,2.15,4.8,4.8S2.65,4.8,0,4.8-4.8,2.65-4.8,0-2.65-4.8,0-4.8Z"/>
            <path class="st6" d="M0,19.2c2.65,0,4.8,2.15,4.8,4.8s-2.15,4.8-4.8,4.8-4.8-2.15-4.8-4.8,2.15-4.8,4.8-4.8Z"/>
          </g>
          <g>
            <path class="st6" d="M24,43.2c2.65,0,4.8,2.15,4.8,4.8s-2.15,4.8-4.8,4.8-4.8-2.15-4.8-4.8,2.15-4.8,4.8-4.8Z"/>
            <path class="st6" d="M48,43.2c2.65,0,4.8,2.15,4.8,4.8s-2.15,4.8-4.8,4.8-4.8-2.15-4.8-4.8,2.15-4.8,4.8-4.8Z"/>
          </g>
          <path class="st6" d="M0,43.2c2.65,0,4.8,2.15,4.8,4.8s-2.15,4.8-4.8,4.8-4.8-2.15-4.8-4.8,2.15-4.8,4.8-4.8Z"/>
        </g>
      </g>
    </pattern>
    <pattern id="_新規パターンスウォッチ_5" data-name=" 新規パターンスウォッチ 5" x="0" y="0" width="72" height="72" patternTransform="translate(3 -15985) scale(1 -1)" patternUnits="userSpaceOnUse" viewBox="0 0 72 72">
      <g>
        <rect class="st0" width="72" height="72"/>
        <g>
          <rect class="st0" width="72" height="72"/>
          <g>
            <line class="st1" x1="71.75" y1="6" x2="144.25" y2="6"/>
            <line class="st1" x1="71.75" y1="30" x2="144.25" y2="30"/>
            <line class="st1" x1="71.75" y1="54" x2="144.25" y2="54"/>
            <line class="st1" x1="71.75" y1="18" x2="144.25" y2="18"/>
            <line class="st1" x1="71.75" y1="42" x2="144.25" y2="42"/>
            <line class="st1" x1="71.75" y1="66" x2="144.25" y2="66"/>
          </g>
          <g>
            <line class="st1" x1="-.25" y1="6" x2="72.25" y2="6"/>
            <line class="st1" x1="-.25" y1="30" x2="72.25" y2="30"/>
            <line class="st1" x1="-.25" y1="54" x2="72.25" y2="54"/>
            <line class="st1" x1="-.25" y1="18" x2="72.25" y2="18"/>
            <line class="st1" x1="-.25" y1="42" x2="72.25" y2="42"/>
            <line class="st1" x1="-.25" y1="66" x2="72.25" y2="66"/>
          </g>
          <g>
            <line class="st1" x1="-72.25" y1="6" x2=".25" y2="6"/>
            <line class="st1" x1="-72.25" y1="30" x2=".25" y2="30"/>
            <line class="st1" x1="-72.25" y1="54" x2=".25" y2="54"/>
            <line class="st1" x1="-72.25" y1="18" x2=".25" y2="18"/>
            <line class="st1" x1="-72.25" y1="42" x2=".25" y2="42"/>
            <line class="st1" x1="-72.25" y1="66" x2=".25" y2="66"/>
          </g>
        </g>
      </g>
    </pattern>
    <pattern id="_新規パターンスウォッチ_3" data-name=" 新規パターンスウォッチ 3" x="0" y="0" width="48" height="48" patternTransform="translate(-5843.84 -9159.66) scale(.6 -.6)" patternUnits="userSpaceOnUse" viewBox="0 0 48 48">
      <g>
        <rect class="st0" width="48" height="48"/>
        <g>
          <rect class="st0" width="48" height="48"/>
          <g>
            <path class="st11" d="M24-4.8c2.65,0,4.8,2.15,4.8,4.8s-2.15,4.8-4.8,4.8-4.8-2.15-4.8-4.8,2.15-4.8,4.8-4.8Z"/>
            <path class="st11" d="M48-4.8c2.65,0,4.8,2.15,4.8,4.8s-2.15,4.8-4.8,4.8-4.8-2.15-4.8-4.8,2.15-4.8,4.8-4.8Z"/>
            <path class="st11" d="M24,19.2c2.65,0,4.8,2.15,4.8,4.8s-2.15,4.8-4.8,4.8-4.8-2.15-4.8-4.8,2.15-4.8,4.8-4.8Z"/>
            <path class="st11" d="M48,19.2c2.65,0,4.8,2.15,4.8,4.8s-2.15,4.8-4.8,4.8-4.8-2.15-4.8-4.8,2.15-4.8,4.8-4.8Z"/>
            <path class="st11" d="M36,7.2c2.65,0,4.8,2.15,4.8,4.8s-2.15,4.8-4.8,4.8-4.8-2.15-4.8-4.8,2.15-4.8,4.8-4.8Z"/>
            <path class="st11" d="M12,7.2c2.65,0,4.8,2.15,4.8,4.8s-2.15,4.8-4.8,4.8-4.8-2.15-4.8-4.8,2.15-4.8,4.8-4.8Z"/>
            <path class="st11" d="M36,31.2c2.65,0,4.8,2.15,4.8,4.8s-2.15,4.8-4.8,4.8-4.8-2.15-4.8-4.8,2.15-4.8,4.8-4.8Z"/>
            <path class="st11" d="M12,31.2c2.65,0,4.8,2.15,4.8,4.8s-2.15,4.8-4.8,4.8-4.8-2.15-4.8-4.8,2.15-4.8,4.8-4.8Z"/>
          </g>
          <g>
            <path class="st11" d="M0-4.8c2.65,0,4.8,2.15,4.8,4.8S2.65,4.8,0,4.8-4.8,2.65-4.8,0-2.65-4.8,0-4.8Z"/>
            <path class="st11" d="M0,19.2c2.65,0,4.8,2.15,4.8,4.8s-2.15,4.8-4.8,4.8-4.8-2.15-4.8-4.8,2.15-4.8,4.8-4.8Z"/>
          </g>
          <g>
            <path class="st11" d="M24,43.2c2.65,0,4.8,2.15,4.8,4.8s-2.15,4.8-4.8,4.8-4.8-2.15-4.8-4.8,2.15-4.8,4.8-4.8Z"/>
            <path class="st11" d="M48,43.2c2.65,0,4.8,2.15,4.8,4.8s-2.15,4.8-4.8,4.8-4.8-2.15-4.8-4.8,2.15-4.8,4.8-4.8Z"/>
          </g>
          <path class="st11" d="M0,43.2c2.65,0,4.8,2.15,4.8,4.8s-2.15,4.8-4.8,4.8-4.8-2.15-4.8-4.8,2.15-4.8,4.8-4.8Z"/>
        </g>
      </g>
    </pattern>
    <pattern id="_新規パターンスウォッチ_4" data-name=" 新規パターンスウォッチ 4" x="0" y="0" width="72" height="72" patternTransform="translate(3 -15985) scale(1 -1)" patternUnits="userSpaceOnUse" viewBox="0 0 72 72">
      <g>
        <rect class="st0" width="72" height="72"/>
        <g>
          <rect class="st0" width="72" height="72"/>
          <g>
            <line class="st3" x1="71.75" y1="6" x2="144.25" y2="6"/>
            <line class="st3" x1="71.75" y1="30" x2="144.25" y2="30"/>
            <line class="st3" x1="71.75" y1="54" x2="144.25" y2="54"/>
            <line class="st3" x1="71.75" y1="18" x2="144.25" y2="18"/>
            <line class="st3" x1="71.75" y1="42" x2="144.25" y2="42"/>
            <line class="st3" x1="71.75" y1="66" x2="144.25" y2="66"/>
          </g>
          <g>
            <line class="st3" x1="-.25" y1="6" x2="72.25" y2="6"/>
            <line class="st3" x1="-.25" y1="30" x2="72.25" y2="30"/>
            <line class="st3" x1="-.25" y1="54" x2="72.25" y2="54"/>
            <line class="st3" x1="-.25" y1="18" x2="72.25" y2="18"/>
            <line class="st3" x1="-.25" y1="42" x2="72.25" y2="42"/>
            <line class="st3" x1="-.25" y1="66" x2="72.25" y2="66"/>
          </g>
          <g>
            <line class="st3" x1="-72.25" y1="6" x2=".25" y2="6"/>
            <line class="st3" x1="-72.25" y1="30" x2=".25" y2="30"/>
            <line class="st3" x1="-72.25" y1="54" x2=".25" y2="54"/>
            <line class="st3" x1="-72.25" y1="18" x2=".25" y2="18"/>
            <line class="st3" x1="-72.25" y1="42" x2=".25" y2="42"/>
            <line class="st3" x1="-72.25" y1="66" x2=".25" y2="66"/>
          </g>
        </g>
      </g>
    </pattern>
    <pattern id="_新規パターンスウォッチ_11" data-name=" 新規パターンスウォッチ 11" x="0" y="0" width="48" height="48" patternTransform="translate(-9618.28 -4791.11) scale(.34 -.34)" patternUnits="userSpaceOnUse" viewBox="0 0 48 48">
      <g>
        <rect class="st0" width="48" height="48"/>
        <g>
          <rect class="st0" width="48" height="48"/>
          <g>
            <path class="st6" d="M24-4.8c2.65,0,4.8,2.15,4.8,4.8s-2.15,4.8-4.8,4.8-4.8-2.15-4.8-4.8,2.15-4.8,4.8-4.8Z"/>
            <path class="st6" d="M48-4.8c2.65,0,4.8,2.15,4.8,4.8s-2.15,4.8-4.8,4.8-4.8-2.15-4.8-4.8,2.15-4.8,4.8-4.8Z"/>
            <path class="st6" d="M24,19.2c2.65,0,4.8,2.15,4.8,4.8s-2.15,4.8-4.8,4.8-4.8-2.15-4.8-4.8,2.15-4.8,4.8-4.8Z"/>
            <path class="st6" d="M48,19.2c2.65,0,4.8,2.15,4.8,4.8s-2.15,4.8-4.8,4.8-4.8-2.15-4.8-4.8,2.15-4.8,4.8-4.8Z"/>
            <path class="st6" d="M36,7.2c2.65,0,4.8,2.15,4.8,4.8s-2.15,4.8-4.8,4.8-4.8-2.15-4.8-4.8,2.15-4.8,4.8-4.8Z"/>
            <path class="st6" d="M12,7.2c2.65,0,4.8,2.15,4.8,4.8s-2.15,4.8-4.8,4.8-4.8-2.15-4.8-4.8,2.15-4.8,4.8-4.8Z"/>
            <path class="st6" d="M36,31.2c2.65,0,4.8,2.15,4.8,4.8s-2.15,4.8-4.8,4.8-4.8-2.15-4.8-4.8,2.15-4.8,4.8-4.8Z"/>
            <path class="st6" d="M12,31.2c2.65,0,4.8,2.15,4.8,4.8s-2.15,4.8-4.8,4.8-4.8-2.15-4.8-4.8,2.15-4.8,4.8-4.8Z"/>
          </g>
          <g>
            <path class="st6" d="M0-4.8c2.65,0,4.8,2.15,4.8,4.8S2.65,4.8,0,4.8-4.8,2.65-4.8,0-2.65-4.8,0-4.8Z"/>
            <path class="st6" d="M0,19.2c2.65,0,4.8,2.15,4.8,4.8s-2.15,4.8-4.8,4.8-4.8-2.15-4.8-4.8,2.15-4.8,4.8-4.8Z"/>
          </g>
          <g>
            <path class="st6" d="M24,43.2c2.65,0,4.8,2.15,4.8,4.8s-2.15,4.8-4.8,4.8-4.8-2.15-4.8-4.8,2.15-4.8,4.8-4.8Z"/>
            <path class="st6" d="M48,43.2c2.65,0,4.8,2.15,4.8,4.8s-2.15,4.8-4.8,4.8-4.8-2.15-4.8-4.8,2.15-4.8,4.8-4.8Z"/>
          </g>
          <path class="st6" d="M0,43.2c2.65,0,4.8,2.15,4.8,4.8s-2.15,4.8-4.8,4.8-4.8-2.15-4.8-4.8,2.15-4.8,4.8-4.8Z"/>
        </g>
      </g>
    </pattern>
    <pattern id="_新規パターンスウォッチ_12" data-name=" 新規パターンスウォッチ 12" x="0" y="0" width="48" height="48" patternTransform="translate(-6398.36 -8517.02) scale(.56 -.56)" patternUnits="userSpaceOnUse" viewBox="0 0 48 48">
      <g>
        <rect class="st0" width="48" height="48"/>
        <g>
          <rect class="st0" width="48" height="48"/>
          <g>
            <path class="st6" d="M24-4.8c2.65,0,4.8,2.15,4.8,4.8s-2.15,4.8-4.8,4.8-4.8-2.15-4.8-4.8,2.15-4.8,4.8-4.8Z"/>
            <path class="st6" d="M48-4.8c2.65,0,4.8,2.15,4.8,4.8s-2.15,4.8-4.8,4.8-4.8-2.15-4.8-4.8,2.15-4.8,4.8-4.8Z"/>
            <path class="st6" d="M24,19.2c2.65,0,4.8,2.15,4.8,4.8s-2.15,4.8-4.8,4.8-4.8-2.15-4.8-4.8,2.15-4.8,4.8-4.8Z"/>
            <path class="st6" d="M48,19.2c2.65,0,4.8,2.15,4.8,4.8s-2.15,4.8-4.8,4.8-4.8-2.15-4.8-4.8,2.15-4.8,4.8-4.8Z"/>
            <path class="st6" d="M36,7.2c2.65,0,4.8,2.15,4.8,4.8s-2.15,4.8-4.8,4.8-4.8-2.15-4.8-4.8,2.15-4.8,4.8-4.8Z"/>
            <path class="st6" d="M12,7.2c2.65,0,4.8,2.15,4.8,4.8s-2.15,4.8-4.8,4.8-4.8-2.15-4.8-4.8,2.15-4.8,4.8-4.8Z"/>
            <path class="st6" d="M36,31.2c2.65,0,4.8,2.15,4.8,4.8s-2.15,4.8-4.8,4.8-4.8-2.15-4.8-4.8,2.15-4.8,4.8-4.8Z"/>
            <path class="st6" d="M12,31.2c2.65,0,4.8,2.15,4.8,4.8s-2.15,4.8-4.8,4.8-4.8-2.15-4.8-4.8,2.15-4.8,4.8-4.8Z"/>
          </g>
          <g>
            <path class="st6" d="M0-4.8c2.65,0,4.8,2.15,4.8,4.8S2.65,4.8,0,4.8-4.8,2.65-4.8,0-2.65-4.8,0-4.8Z"/>
            <path class="st6" d="M0,19.2c2.65,0,4.8,2.15,4.8,4.8s-2.15,4.8-4.8,4.8-4.8-2.15-4.8-4.8,2.15-4.8,4.8-4.8Z"/>
          </g>
          <g>
            <path class="st6" d="M24,43.2c2.65,0,4.8,2.15,4.8,4.8s-2.15,4.8-4.8,4.8-4.8-2.15-4.8-4.8,2.15-4.8,4.8-4.8Z"/>
            <path class="st6" d="M48,43.2c2.65,0,4.8,2.15,4.8,4.8s-2.15,4.8-4.8,4.8-4.8-2.15-4.8-4.8,2.15-4.8,4.8-4.8Z"/>
          </g>
          <path class="st6" d="M0,43.2c2.65,0,4.8,2.15,4.8,4.8s-2.15,4.8-4.8,4.8-4.8-2.15-4.8-4.8,2.15-4.8,4.8-4.8Z"/>
        </g>
      </g>
    </pattern>
    <pattern id="_新規パターンスウォッチ_41" data-name=" 新規パターンスウォッチ 41" x="0" y="0" width="72" height="72" patternTransform="translate(-29322.13 18174.31) rotate(-180) scale(1 -1)" patternUnits="userSpaceOnUse" viewBox="0 0 72 72">
      <g>
        <rect class="st0" width="72" height="72"/>
        <g>
          <rect class="st0" width="72" height="72"/>
          <g>
            <line class="st3" x1="71.75" y1="6" x2="144.25" y2="6"/>
            <line class="st3" x1="71.75" y1="30" x2="144.25" y2="30"/>
            <line class="st3" x1="71.75" y1="54" x2="144.25" y2="54"/>
            <line class="st3" x1="71.75" y1="18" x2="144.25" y2="18"/>
            <line class="st3" x1="71.75" y1="42" x2="144.25" y2="42"/>
            <line class="st3" x1="71.75" y1="66" x2="144.25" y2="66"/>
          </g>
          <g>
            <line class="st3" x1="-.25" y1="6" x2="72.25" y2="6"/>
            <line class="st3" x1="-.25" y1="30" x2="72.25" y2="30"/>
            <line class="st3" x1="-.25" y1="54" x2="72.25" y2="54"/>
            <line class="st3" x1="-.25" y1="18" x2="72.25" y2="18"/>
            <line class="st3" x1="-.25" y1="42" x2="72.25" y2="42"/>
            <line class="st3" x1="-.25" y1="66" x2="72.25" y2="66"/>
          </g>
          <g>
            <line class="st3" x1="-72.25" y1="6" x2=".25" y2="6"/>
            <line class="st3" x1="-72.25" y1="30" x2=".25" y2="30"/>
            <line class="st3" x1="-72.25" y1="54" x2=".25" y2="54"/>
            <line class="st3" x1="-72.25" y1="18" x2=".25" y2="18"/>
            <line class="st3" x1="-72.25" y1="42" x2=".25" y2="42"/>
            <line class="st3" x1="-72.25" y1="66" x2=".25" y2="66"/>
          </g>
        </g>
      </g>
    </pattern>
    <pattern id="_新規パターンスウォッチ_13" data-name="新規パターンスウォッチ 1" x="0" y="0" width="48" height="48" patternTransform="translate(-4778.37 -4846.42) scale(.34)" patternUnits="userSpaceOnUse" viewBox="0 0 48 48">
      <g>
        <rect class="st0" width="48" height="48"/>
        <g>
          <path class="st6" d="M24,52.8c2.65,0,4.8-2.15,4.8-4.8s-2.15-4.8-4.8-4.8-4.8,2.15-4.8,4.8,2.15,4.8,4.8,4.8Z"/>
          <path class="st6" d="M48,52.8c2.65,0,4.8-2.15,4.8-4.8s-2.15-4.8-4.8-4.8-4.8,2.15-4.8,4.8,2.15,4.8,4.8,4.8Z"/>
          <path class="st6" d="M24,28.8c2.65,0,4.8-2.15,4.8-4.8s-2.15-4.8-4.8-4.8-4.8,2.15-4.8,4.8,2.15,4.8,4.8,4.8Z"/>
          <path class="st6" d="M48,28.8c2.65,0,4.8-2.15,4.8-4.8s-2.15-4.8-4.8-4.8-4.8,2.15-4.8,4.8,2.15,4.8,4.8,4.8Z"/>
          <path class="st6" d="M36,40.8c2.65,0,4.8-2.15,4.8-4.8s-2.15-4.8-4.8-4.8-4.8,2.15-4.8,4.8,2.15,4.8,4.8,4.8Z"/>
          <path class="st6" d="M12,40.8c2.65,0,4.8-2.15,4.8-4.8s-2.15-4.8-4.8-4.8-4.8,2.15-4.8,4.8,2.15,4.8,4.8,4.8Z"/>
          <path class="st6" d="M36,16.8c2.65,0,4.8-2.15,4.8-4.8s-2.15-4.8-4.8-4.8-4.8,2.15-4.8,4.8,2.15,4.8,4.8,4.8Z"/>
          <path class="st6" d="M12,16.8c2.65,0,4.8-2.15,4.8-4.8s-2.15-4.8-4.8-4.8-4.8,2.15-4.8,4.8,2.15,4.8,4.8,4.8Z"/>
        </g>
        <g>
          <path class="st6" d="M0,52.8c2.65,0,4.8-2.15,4.8-4.8s-2.15-4.8-4.8-4.8-4.8,2.15-4.8,4.8,2.15,4.8,4.8,4.8Z"/>
          <path class="st6" d="M0,28.8c2.65,0,4.8-2.15,4.8-4.8s-2.15-4.8-4.8-4.8-4.8,2.15-4.8,4.8,2.15,4.8,4.8,4.8Z"/>
        </g>
        <g>
          <path class="st6" d="M24,4.8c2.65,0,4.8-2.15,4.8-4.8s-2.15-4.8-4.8-4.8-4.8,2.15-4.8,4.8,2.15,4.8,4.8,4.8Z"/>
          <path class="st6" d="M48,4.8c2.65,0,4.8-2.15,4.8-4.8s-2.15-4.8-4.8-4.8-4.8,2.15-4.8,4.8,2.15,4.8,4.8,4.8Z"/>
        </g>
        <path class="st6" d="M0,4.8c2.65,0,4.8-2.15,4.8-4.8S2.65-4.8,0-4.8-4.8-2.65-4.8,0-2.65,4.8,0,4.8Z"/>
      </g>
    </pattern>
  </defs>
  <g>
    <path class="st6" d="M1555.5,538.91c-4.47.48-8.67,4.02-8.34,8.78s5.81,8.14,9.92,9.75c2.26.88,4.66,1.37,7.08,1.48,1.2.06,2.39,0,3.58-.11.61-.06,1.22-.15,1.83-.25.54-.09,1.08-.3,1.62-.03.31.16.56.54.83.76.84.69,1.81,1.19,2.85,1.48.51.14,1.03.23,1.56.29.64.06,1.74-.14,2.25.32.68.61.66,2.14.97,2.97.38.99.95,1.92,1.68,2.7,1.69,1.81,4.31,3.04,6.77,3.16,1.54.08,3.66-1,4.94-.07,1.21.88,2.04,1.25,3.57,1.36.36.03.98-.01,1.23-.33.18-.23.28-.52-.15-.55-.57-.04-1.14-.08-1.68-.26-.67-.23-1.07-.71-1.65-1.08-.7-.45-1.51-.59-2.33-.49-1.54.18-2.79.72-4.39.32-1.23-.3-2.47-.9-3.49-1.65-1.72-1.26-2.77-3.03-3.21-5.09-.16-.73-.26-1.45-.96-1.86-.84-.49-1.94-.25-2.86-.37-1.28-.17-2.5-.67-3.5-1.5-.7-.58-1.13-1.14-2.09-1.19-1.1-.06-2.25.35-3.35.47-1.24.13-2.49.16-3.74.08-4.78-.33-9.8-2.47-13.2-5.89-1.86-1.87-2.78-4.39-2.19-7.01.63-2.82,3.33-5,6.17-5.31.81-.09,1.47-1.01.26-.88h.02Z"/>
    <path class="st6" d="M1581.13,546.74c-.98-4.66-5.36-7.23-9.54-8.73-2.44-.88-5.03-1.3-7.62-1.22-2.17.07-4.7.28-6.22,2.04-.68.79,1,.81,1.41.34,1.36-1.58,4.11-1.42,6.01-1.31,2.27.14,4.51.73,6.59,1.64,3.49,1.53,6.8,3.76,7.63,7.71.14.64,1.88.21,1.74-.47h0Z"/>
    <path class="st6" d="M1602.96,564.51c1.18-3.35-1.6-5.98-4.27-7.51-1.42-.81-3-1.33-4.61-1.53-1.37-.17-3.46-.45-4.08,1.15-.15.38.56.41.75.39.38-.04.84-.22.99-.6.02-.06.04-.11.08-.16.09-.11,0-.07-.29.12h.31c.31,0,.61.02.92.04.64.06,1.28.17,1.91.34,1.26.34,2.45.92,3.53,1.66s2.05,1.59,2.71,2.66c.69,1.14.76,2.4.32,3.64-.21.6,1.53.38,1.74-.21h-.01Z"/>
    <path class="st6" d="M1536.06,529.2c-1.15-.26-2.34-.33-3.53-.26-1,.06-2.01.21-2.9.71-1.18.66-1.81,2.18-.84,3.33.26.31.65.49.99.71.46.3.91.58,1.42.8.94.41,1.95.62,2.98.66,1.08.04,2.16-.13,3.2-.41.8-.22,1.77-.51,2.27-1.23.53-.76.21-1.89-.33-2.56-.7-.87-1.97-1.21-2.95-1.65-.37-.16-.89-.03-1.23.17-.22.13-.54.48-.16.64,1.29.57,3.02,1,3.17,2.67.05.6-.17.88-.72,1.05-.68.21-1.39.35-2.1.37-1.64.04-2.97-.59-4.33-1.45-.52-.33-.81-.68-.9-1.29-.06-.41.03-.85.33-1.15.4-.4,1.08-.42,1.59-.44,1-.06,1.99.01,2.97.23.39.09.93-.06,1.23-.33.27-.25.2-.5-.15-.58h-.01Z"/>
    <path class="st6" d="M1609.48,582.15c1.28-.44,2.49-1.11,3.32-2.21.73-.95.94-2.06.76-3.23s-.75-2.16-1.59-2.92c-1-.89-2.33-1.62-3.7-1.59-.39,0-.94.11-1.14.5-.18.35.15.61.5.6,1.04-.02,2.08.59,2.82,1.28.68.64,1.14,1.43,1.33,2.35s.11,1.83-.42,2.62-1.31,1.3-2.16,1.59c-.29.1-.83.33-.74.73.09.37.74.36,1,.27h.02Z"/>
    <path class="st6" d="M1604.29,573.36c-.04.09-.06.19-.1.28l-.02.07c-.06.12-.02.1.12-.06-.01-.01-.55.36-.61.4-.27.19-.54.38-.79.6-.43.37-.85.8-1.05,1.34-.42,1.13.34,2.38.88,3.32.29.52,1.95-.09,1.74-.47-.51-.88-1.29-2.12-.87-3.16.17-.42.52-.75.89-1.04.28-.22.57-.42.87-.62.2-.13.38-.24.5-.46.08-.15.12-.32.18-.48.14-.34-.57-.31-.73-.28-.32.05-.86.19-1,.54h0v.02Z"/>
  </g>
  <g>
    <path class="st6" d="M1637.11,662.49c4.97-.23,9.95-.48,14.92-.74,1.03-.05,1.48-1.36.19-1.3-4.97.26-9.95.51-14.92.74-1.04.05-1.48,1.36-.19,1.3h0Z"/>
    <path class="st6" d="M1146.48,543.81c13.11,8.35,26.34,16.51,39.68,24.48,17.22,10.27,34.68,20.13,52.16,29.95,13.62,7.64,27.25,15.29,41.15,22.43,10.54,5.42,21.26,10.48,32.26,14.89,18.27,7.31,37.16,13.1,56.37,17.4,17.22,3.86,34.7,6.51,52.26,8.26,15.47,1.54,30.99,2.35,46.51,3.02,14.41.62,28.81.88,43.23.85,17.6-.04,35.2-.39,52.79-.77,19.34-.42,38.68-.85,58.01-1.49,3.35-.11,6.7-.23,10.05-.35,1.04-.04,1.48-1.34.19-1.3-17.68.64-35.36,1.1-53.04,1.5-18.54.42-37.09.85-55.64,1.03-15,.15-30.01.13-45-.38-14.79-.5-29.6-1.2-44.36-2.35-17.09-1.33-34.14-3.4-50.99-6.58-19.32-3.64-38.37-8.75-56.89-15.37-12.53-4.48-24.75-9.7-36.68-15.58-12.79-6.3-25.29-13.17-37.74-20.1-17.22-9.58-34.43-19.21-51.44-29.17-14.55-8.52-28.97-17.26-43.25-26.24-2.73-1.72-5.46-3.45-8.18-5.18-.65-.42-2.33.49-1.46,1.04h0Z"/>
    <path class="st6" d="M1222.72,617.27c14.64,10.01,29.94,19.04,45.82,26.93,12.9,6.4,26.17,12.05,39.72,16.9,11.05,3.95,22.3,7.4,33.69,10.21,11.8,2.91,23.77,5.07,35.77,6.96,13.94,2.2,27.92,4.13,41.9,6.05,8.04,1.11,16.1,2.11,24.16,3.05,13.32,1.54,26.67,2.88,40.04,4.04,17.16,1.49,34.34,2.69,51.54,3.61,15.11.8,30.24,1.38,45.37,1.74,17.59.42,35.19.53,52.78.36,4.59-.05,9.18-.11,13.77-.2.37,0,1.08-.11,1.24-.54.14-.38-.12-.64-.53-.63-18.08.34-36.16.37-54.24.09-15.7-.25-31.39-.73-47.07-1.46-16.61-.77-33.21-1.81-49.79-3.11-14.5-1.14-28.98-2.49-43.44-4.06-9.51-1.04-19.02-2.17-28.51-3.43-11.83-1.57-23.66-3.26-35.47-5-12.71-1.87-25.4-3.89-37.96-6.63-11.21-2.44-22.28-5.51-33.18-9.1-13-4.27-25.76-9.29-38.19-15-15.36-7.05-30.23-15.17-44.5-24.22-3.86-2.45-7.67-4.96-11.44-7.54-.56-.39-2.28.42-1.48.97h0Z"/>
    <path class="st6" d="M1230.03,589.37c-5.7,4.27-9.97,10.17-11.85,17.07-.23.84,1.69.61,1.9-.17,1.76-6.5,5.81-12.1,11.17-16.12,1.02-.77-.52-1.32-1.23-.79h0Z"/>
    <path class="st6" d="M1245.22,600.33c-3.76,7.8-7.4,15.66-10.92,23.57-.42.95,1.47.89,1.79.17,3.51-7.92,7.15-15.77,10.92-23.57.45-.93-1.45-.88-1.79-.17h0Z"/>
    <path class="st6" d="M1266.93,610.31c-5.05,8.49-9.48,17.36-13,26.6-.37.96,1.51.86,1.78.15,3.52-9.24,7.95-18.11,13-26.6.51-.85-1.4-.8-1.78-.15h0Z"/>
    <path class="st6" d="M1284.52,622.05c-4.39,8.22-7.59,17.07-8.99,26.3-.11.74,1.79.42,1.88-.23,1.38-9.13,4.51-17.9,8.86-26.03.42-.79-1.46-.6-1.76-.05h.01Z"/>
    <path class="st6" d="M1305.9,631.29c-4.25,8.75-6.88,18.19-7.63,27.9-.06.76,1.83.4,1.88-.24.74-9.59,3.29-18.97,7.5-27.62.39-.81-1.48-.6-1.75-.04h0Z"/>
    <path class="st6" d="M1328.82,636c-4.48,9.99-6.67,20.88-6.43,31.82.02.91,1.91.57,1.9-.18-.23-10.82,1.88-21.61,6.32-31.5.41-.92-1.48-.83-1.78-.15h0Z"/>
    <path class="st6" d="M1357.86,642.09c-4.03,11.05-6.04,22.71-5.98,34.47,0,.59,1.89.23,1.88-.5-.06-11.66,1.99-23.25,5.98-34.2.23-.63-1.65-.4-1.88.23h0Z"/>
    <path class="st6" d="M1387.37,644.5c-3.84,12.32-4.97,25.3-3.21,38.08.12.89,2.01.42,1.88-.5-1.72-12.51-.63-25.29,3.13-37.34.33-1.05-1.55-1.06-1.81-.23h.01Z"/>
    <path class="st6" d="M1417,651.87c-2.34,11.65-3.1,23.55-2.3,35.4.02.29,1.92-.02,1.88-.5-.8-11.79-.06-23.65,2.27-35.24.07-.37-1.77-.1-1.85.35h0Z"/>
    <path class="st6" d="M1446.13,651.28c1.34,13.03,1.62,26.16.8,39.24-.01.21,1.85.02,1.88-.5.82-13.08.55-26.2-.8-39.24-.03-.3-1.93.05-1.88.5h0Z"/>
    <path class="st6" d="M1474.8,651.88c5.52,13.16,8.18,27.39,7.39,41.66-.04.77,1.85.41,1.88-.23.79-14.37-1.83-28.68-7.39-41.93-.28-.66-2.13-.09-1.88.5h0Z"/>
    <path class="st6" d="M1509.26,659.43c5.9,11.41,8.79,24.21,7.71,37.05-.06.76,1.83.4,1.88-.24,1.09-12.93-1.77-25.82-7.71-37.32-.33-.64-2.16-.04-1.88.5h0Z"/>
    <path class="st6" d="M1540.52,655.27c8.37,13.59,13.14,29.2,13.22,45.2,0,1,1.91.74,1.91-.13-.08-16.27-4.89-32.09-13.41-45.91-.46-.74-2.25-.02-1.72.84h0Z"/>
    <path class="st6" d="M1571.61,655.52c10.52,14,17.41,30.5,19.25,47.96.04.33,1.93-.02,1.88-.5-1.84-17.46-8.73-33.96-19.25-47.96-.33-.44-2.01.33-1.88.5h0Z"/>
    <path class="st6" d="M1608.19,655.03c9.52,15.82,17.31,32.64,23.12,50.17.3.9,2.18.39,1.88-.5-5.84-17.65-13.7-34.59-23.28-50.51-.46-.77-2.25-.03-1.72.85h0Z"/>
    <path class="st6" d="M1653.11,696.8c2.48-.06,4.95-.12,7.43-.19.43-.01,1-.12,1.24-.54.21-.37-.18-.64-.53-.63-2.48.07-4.95.13-7.43.19-.43,0-1,.12-1.24.54-.21.37.18.64.53.63h0Z"/>
  </g>
  <path class="st2" d="M404.07,275.76c-7.92-.61-11.44-6.67-14.55-12.02-2.99-5.15-5.57-9.59-11.4-10.04-5.81-.45-9.05,3.55-12.8,8.18-3.89,4.81-8.3,10.25-16.22,9.65-7.92-.61-11.44-6.67-14.54-12.02-2.99-5.15-5.57-9.59-11.39-10.04-5.83-.44-9.05,3.55-12.8,8.18-3.89,4.81-8.3,10.26-16.21,9.65-7.92-.61-11.44-6.67-14.54-12.02-2.99-5.15-5.57-9.59-11.39-10.04l.31-3.99c7.92.61,11.44,6.67,14.54,12.02,2.99,5.15,5.57,9.59,11.39,10.04s9.05-3.55,12.8-8.18c3.89-4.81,8.29-10.26,16.21-9.65,7.92.61,11.44,6.67,14.54,12.02,2.99,5.15,5.57,9.59,11.39,10.04,5.81.45,9.05-3.55,12.8-8.18,3.89-4.81,8.29-10.26,16.22-9.65,7.92.61,11.44,6.67,14.55,12.02,2.99,5.15,5.57,9.59,11.4,10.04l-.31,3.99h0Z"/>
  <path class="st4" d="M1370.98,406.51c6.67.47,5.96,10.45,12.63,10.92s7.38-9.5,14.05-9.03,5.96,10.45,12.63,10.92,7.38-9.5,14.05-9.03,5.96,10.45,12.63,10.92,7.38-9.5,14.05-9.03,5.96,10.45,12.63,10.92,7.38-9.5,14.06-9.03,5.97,10.45,12.64,10.92"/>
  <path class="st4" d="M628.75,13.48c4.32,5.11-3.32,11.56.99,16.67s11.96-1.34,16.27,3.77c4.31,5.11-3.32,11.56.99,16.67s11.96-1.34,16.28,3.77-3.32,11.57,1,16.68"/>
  <path class="st5" d="M451.43,694.79c-.34,1.63-.6,4.33.65,6.99,2.63,5.57,10.21,7.25,15.65,6.25,6.86-1.26,11.67-7.01,12.78-12.27.44-2.09.7-5.96-1.04-6.85-1.62-.83-4.2,1.33-4.97,1.98-.71.59-6.03,5.2-4.71,11.21,1.23,5.6,7.43,8.74,12.74,8.34,6.48-.49,10.57-6.17,11.47-10.62.12-.57,1-4.95-1.14-6.34-1.6-1.04-4.45-.13-5.85,1.46-3.55,4.03-1.03,15.94,5.93,18.24,7.59,2.51,17.1-7.52,16.01-11.74-.39-1.51-2.23-2.59-3.74-2.6-2.92-.02-5.51,3.95-5.85,7.47-.32,3.35,1.35,6.57,3.74,8.29,1.47,1.06,3.31,1.3,6.99,1.79,2.62.35,4.87.64,7.8.33,4.32-.47,7.4-1.99,9.26-2.92,4.73-2.38,8.01-5.53,10.07-7.96"/>
  <path class="st6" d="M560.93,219.52h-.03c-.59-.1-7.28-.62-8.76-.86-1.29-.21-2.36-1.1-2.41-2.41-.04-1.15-.75-8.16-.86-8.75v-.02c-.03-.15-.13-.24-.24-.28-.02,0-.05-.02-.08-.02h-.02s-.06,0-.09.02c-.11.04-.2.13-.23.27v.02c-.1.59-.81,7.6-.86,8.75-.05,1.31-1.12,2.21-2.41,2.41-1.47.24-8.17.75-8.76.86h-.03c-.39.07-.39.64,0,.7h.03c.59.1,7.6.81,8.75.86,1.31.05,2.36,1.1,2.41,2.41.04,1.15.75,8.16.86,8.75v.03c.03.17.16.27.29.29h.03c.15,0,.29-.11.32-.29v-.03c.1-.59.81-7.6.86-8.75.05-1.31,1.1-2.36,2.41-2.41,1.15-.04,8.16-.75,8.75-.86h.03c.39-.07.39-.64,0-.7h.04Z"/>
  <path class="st6" d="M602.79,485.76h-.03c-.59-.1-7.28-.62-8.76-.86-1.29-.21-2.36-1.1-2.41-2.41-.04-1.15-.75-8.16-.86-8.75v-.02c-.03-.15-.13-.24-.24-.28-.02-.01-.05-.02-.08-.02h-.02s-.06,0-.09.02c-.11.04-.2.13-.23.27v.02c-.1.59-.81,7.6-.86,8.75-.05,1.31-1.12,2.21-2.41,2.41-1.47.24-8.17.75-8.76.86h-.03c-.39.07-.39.64,0,.7h.03c.59.1,7.6.81,8.75.86,1.31.05,2.36,1.1,2.41,2.41.04,1.15.75,8.16.86,8.75v.03c.03.17.16.27.29.29h.03c.15-.01.29-.11.32-.29v-.03c.1-.59.81-7.6.86-8.75.05-1.31,1.1-2.36,2.41-2.41,1.15-.04,8.16-.75,8.75-.86h.03c.39-.07.39-.64,0-.7h.04Z"/>
  <path class="st6" d="M347.87,632.85h-.03c-.59-.1-7.28-.62-8.76-.86-1.29-.21-2.36-1.1-2.41-2.41-.04-1.15-.75-8.16-.86-8.75v-.02c-.03-.15-.13-.24-.24-.28-.02-.01-.05-.02-.08-.02h-.02s-.06,0-.09.02c-.11.04-.2.13-.23.27v.02c-.1.59-.81,7.6-.86,8.75-.05,1.31-1.12,2.21-2.41,2.41-1.47.24-8.17.75-8.76.86h-.03c-.39.07-.39.64,0,.7h.03c.59.1,7.6.81,8.75.86,1.31.05,2.36,1.1,2.41,2.41.04,1.15.75,8.16.86,8.75v.03c.03.17.16.27.29.29h.03c.15-.01.29-.11.32-.29v-.03c.1-.59.81-7.6.86-8.75.05-1.31,1.1-2.36,2.41-2.41,1.15-.04,8.16-.75,8.75-.86h.03c.39-.07.39-.64,0-.7h.04Z"/>
  <path class="st6" d="M1177.94,437.86h-.03c-.59-.1-7.28-.62-8.76-.86-1.29-.21-2.36-1.1-2.41-2.41-.04-1.15-.75-8.16-.86-8.75v-.02c-.03-.15-.13-.24-.24-.28-.02-.01-.05-.02-.08-.02h-.02s-.06,0-.09.02c-.11.04-.2.13-.23.27v.02c-.1.59-.81,7.6-.86,8.75-.05,1.31-1.12,2.21-2.41,2.41-1.47.24-8.17.75-8.76.86h-.03c-.39.07-.39.64,0,.7h.03c.59.1,7.6.81,8.75.86,1.31.05,2.36,1.1,2.41,2.41.04,1.15.75,8.16.86,8.75v.03c.03.17.16.27.29.29h.03c.15-.01.29-.11.32-.29v-.03c.1-.59.81-7.6.86-8.75.05-1.31,1.1-2.36,2.41-2.41,1.15-.04,8.16-.75,8.75-.86h.03c.39-.07.39-.64,0-.7h.04Z"/>
  <path class="st6" d="M1613.87,199.58h-.03c-.59-.1-7.28-.62-8.76-.86-1.29-.21-2.36-1.1-2.41-2.41-.04-1.15-.75-8.16-.86-8.75v-.02c-.03-.15-.13-.24-.24-.28-.02,0-.05-.02-.08-.02h-.02s-.06,0-.09.02c-.11.04-.2.13-.23.27v.02c-.1.59-.81,7.6-.86,8.75-.05,1.31-1.12,2.21-2.41,2.41-1.47.24-8.17.75-8.76.86h-.03c-.39.07-.39.64,0,.7h.03c.59.1,7.6.81,8.75.86,1.31.05,2.36,1.1,2.41,2.41.04,1.15.75,8.16.86,8.75v.03c.03.17.16.27.29.29h.03c.15,0,.29-.11.32-.29v-.03c.1-.59.81-7.6.86-8.75.05-1.31,1.1-2.36,2.41-2.41,1.15-.04,8.16-.75,8.75-.86h.03c.39-.07.39-.64,0-.7h.04Z"/>
  <path class="st6" d="M1372.12,104.91h-.03c-.59-.1-7.28-.62-8.76-.86-1.29-.21-2.36-1.1-2.41-2.41-.04-1.15-.75-8.16-.86-8.75v-.02c-.03-.15-.13-.24-.24-.28-.02-.01-.05-.02-.08-.02h-.02s-.06,0-.09.02c-.11.04-.2.13-.23.27v.02c-.1.59-.81,7.6-.86,8.75-.05,1.31-1.12,2.21-2.41,2.41-1.47.24-8.17.75-8.76.86h-.03c-.39.07-.39.64,0,.7h.03c.59.1,7.6.81,8.75.86,1.31.05,2.36,1.1,2.41,2.41.04,1.15.75,8.16.86,8.75v.03c.03.17.16.27.29.29h.03c.15-.01.29-.11.32-.29v-.03c.1-.59.81-7.6.86-8.75.05-1.31,1.1-2.36,2.41-2.41,1.15-.04,8.16-.75,8.75-.86h.03c.39-.07.39-.64,0-.7h.04Z"/>
  <path class="st6" d="M1156.66,170.31h-.03c-.59-.1-7.28-.62-8.76-.86-1.29-.21-2.36-1.1-2.41-2.41-.04-1.15-.75-8.16-.86-8.75v-.02c-.03-.15-.13-.24-.24-.28-.02,0-.05-.02-.08-.02h-.02s-.06,0-.09.02c-.11.04-.2.13-.23.27v.02c-.1.59-.81,7.6-.86,8.75-.05,1.31-1.12,2.21-2.41,2.41-1.47.24-8.17.75-8.76.86h-.03c-.39.07-.39.64,0,.7h.03c.59.1,7.6.81,8.75.86,1.31.05,2.36,1.1,2.41,2.41.04,1.15.75,8.16.86,8.75v.03c.03.17.16.27.29.29h.03c.15,0,.29-.11.32-.29v-.03c.1-.59.81-7.6.86-8.75.05-1.31,1.1-2.36,2.41-2.41,1.15-.04,8.16-.75,8.75-.86h.03c.39-.07.39-.64,0-.7h.04Z"/>
  <path class="st6" d="M739.86,56.43h-.03c-.59-.1-7.28-.62-8.76-.86-1.29-.21-2.36-1.1-2.41-2.41-.04-1.15-.75-8.16-.86-8.75v-.02c-.03-.15-.13-.24-.24-.28-.02,0-.05-.02-.08-.02h-.02s-.06,0-.09.02c-.11.04-.2.13-.23.27v.02c-.1.59-.81,7.6-.86,8.75-.05,1.31-1.12,2.21-2.41,2.41-1.47.24-8.17.75-8.76.86h-.03c-.39.07-.39.64,0,.7h.03c.59.1,7.6.81,8.75.86,1.31.05,2.36,1.1,2.41,2.41.04,1.15.75,8.16.86,8.75v.03c.03.17.16.27.29.29h.03c.15-.01.29-.11.32-.29v-.03c.1-.59.81-7.6.86-8.75.05-1.31,1.1-2.36,2.41-2.41,1.15-.04,8.16-.75,8.75-.86h.03c.39-.07.39-.64,0-.7h.04Z"/>
  <path class="st6" d="M461.89,242.47h-.03c-.59-.1-7.28-.62-8.76-.86-1.29-.21-2.36-1.1-2.41-2.41-.04-1.15-.75-8.16-.86-8.75v-.02c-.03-.15-.13-.24-.24-.28-.02,0-.05-.02-.08-.02h-.02s-.06,0-.09.02c-.11.04-.2.13-.23.27v.02c-.1.59-.81,7.6-.86,8.75-.05,1.31-1.12,2.21-2.41,2.41-1.47.24-8.17.75-8.76.86h-.03c-.39.07-.39.64,0,.7h.03c.59.1,7.6.81,8.75.86,1.31.05,2.36,1.1,2.41,2.41.04,1.15.75,8.16.86,8.75v.03c.03.17.16.27.29.29h.03c.15,0,.29-.11.32-.29v-.03c.1-.59.81-7.6.86-8.75.05-1.31,1.1-2.36,2.41-2.41,1.15-.04,8.16-.75,8.75-.86h.03c.39-.07.39-.64,0-.7h.04Z"/>
  <path class="st15" d="M1162.47,594.27c1.5-.85,3.42-.95,5.12-.09l51.1,25.73c1.7.86,2.77,2.46,2.97,4.17l7.55,44.37c.53,2.67-1.08,5.33-3.43,6.28l-76.85,29.63c-1.6.53-3.2.52-4.69-.23s-2.45-2.03-2.97-3.63l-21.95-79.38c-.85-2.56.55-5.33,3-6.49l40.15-20.35h0Z"/>
  <path class="st12" d="M363.59,140.69c.48-1.92,1.93-3.6,4-4.34l62.15-22.09c2.07-.74,4.25-.35,5.84.84l42.99,29.05c2.64,1.69,3.58,5.14,2.5,7.86l-36.52,87.64c-.84,1.76-2.11,3.09-3.92,3.73s-3.65.42-5.4-.42l-83.64-44.94c-2.81-1.34-4-4.7-3.02-7.68l15.01-49.67v.02Z"/>
  <path class="st6" d="M130.58,189.12c-.49-1.64-.16-3.54,1.05-5l36.43-44.02c1.21-1.47,3.01-2.15,4.72-1.97l44.88,2.53c2.72.08,4.95,2.24,5.35,4.74l11.74,81.41c.16,1.68-.2,3.23-1.26,4.51s-2.53,1.93-4.2,2.09l-82.17,3.7c-2.68.25-5.07-1.72-5.65-4.37l-10.88-43.61h-.01Z"/>
  <path class="st14" d="M119.49,206.59c-.49-1.64-.16-3.54,1.05-5l36.43-44.02c1.21-1.47,3.01-2.15,4.72-1.97l44.88,2.53c2.72.08,4.95,2.24,5.35,4.74l11.74,81.41c.16,1.68-.2,3.23-1.26,4.51s-2.53,1.93-4.2,2.09l-82.17,3.7c-2.68.25-5.07-1.72-5.65-4.37l-10.88-43.61h-.01Z"/>
  <path class="st6" d="M130.58,189.12c-.49-1.64-.16-3.54,1.05-5l36.43-44.02c1.21-1.47,3.01-2.15,4.72-1.97l44.88,2.53c2.72.08,4.95,2.24,5.35,4.74l11.74,81.41c.16,1.68-.2,3.23-1.26,4.51s-2.53,1.93-4.2,2.09l-82.17,3.7c-2.68.25-5.07-1.72-5.65-4.37l-10.88-43.61h-.01Z"/>
  <path class="st13" d="M487.51,309.86c1.53-.85,3.49-.93,5.21-.04l51.72,26.74c1.72.89,2.79,2.53,2.98,4.27l7.2,45.23c.51,2.72-1.16,5.41-3.56,6.35l-78.52,29.32c-1.64.52-3.26.5-4.77-.28s-2.47-2.1-2.99-3.73l-21.48-81.02c-.83-2.62.62-5.42,3.13-6.58l41.07-20.28v.02Z"/>
  <path class="st13" d="M487.51,309.86c1.53-.85,3.49-.93,5.21-.04l51.72,26.74c1.72.89,2.79,2.53,2.98,4.27l7.2,45.23c.51,2.72-1.16,5.41-3.56,6.35l-78.52,29.32c-1.64.52-3.26.5-4.77-.28s-2.47-2.1-2.99-3.73l-21.48-81.02c-.83-2.62.62-5.42,3.13-6.58l41.07-20.28v.02Z"/>
  <path class="st8" d="M79.82,353.57c.34-1.52,1.45-2.87,3.06-3.49l48.42-18.55c1.61-.62,3.34-.35,4.61.55l34.35,22.01c2.11,1.28,2.91,3.97,2.12,6.13l-27.02,69.58c-.62,1.4-1.6,2.47-3.01,3.01s-2.86.4-4.25-.22l-66.6-33.71c-2.23-1-3.24-3.62-2.52-5.97l10.85-39.32v-.02Z"/>
  <path class="st6" d="M645.89,539.88c1.54-.82,3.5-.88,5.21.04l51.32,27.51c1.71.92,2.75,2.58,2.92,4.32l6.53,45.34c.47,2.73-1.24,5.39-3.65,6.3l-78.95,28.15c-1.64.5-3.27.45-4.76-.35s-2.44-2.13-2.93-3.77l-20.27-81.33c-.79-2.63.7-5.41,3.22-6.53l41.37-19.66v-.02Z"/>
  <path class="st11" d="M430.3,523.59c-.16-1.71.54-3.5,2.02-4.7l44.47-36c1.48-1.2,3.38-1.51,5.02-1l43.55,11.36c2.65.62,4.41,3.18,4.31,5.71l-4.59,82.23c-.18,1.68-.84,3.13-2.13,4.18s-2.86,1.39-4.53,1.22l-81.39-12.64c-2.68-.28-4.63-2.69-4.69-5.41l-2.04-44.96h0Z"/>
  <path class="st13" d="M1512.85,106.01c1.65-.48,3.54-.14,5,1.09l43.81,36.8c1.46,1.23,2.13,3.03,1.93,4.74l-2.86,44.92c-.1,2.72-2.28,4.94-4.78,5.32l-81.6,11.15c-1.68.15-3.24-.23-4.51-1.3s-1.91-2.54-2.06-4.22l-3.09-82.31c-.23-2.69,1.76-5.06,4.42-5.63l43.75-10.57h-.01Z"/>
  <path class="st11" d="M1283.11,163.33c1.27-1.16,3.12-1.69,4.97-1.24l55.57,13.61c1.85.45,3.25,1.78,3.83,3.39l17.32,41.54c1.11,2.48.14,5.43-1.93,6.89l-68.23,46.13c-1.44.88-3,1.23-4.62.83s-2.84-1.43-3.71-2.87l-39.21-72.43c-1.4-2.31-.66-5.32,1.47-7l34.55-28.85h0Z"/>
  <path class="st7" d="M1446.43,237.41c1.48-.87,3.4-.99,5.12-.16l51.42,25.09c1.71.84,2.8,2.43,3.02,4.13l8.11,44.27c.56,2.66-1.01,5.34-3.35,6.32l-76.47,30.59c-1.6.55-3.19.56-4.69-.17s-2.47-2-3.02-3.6l-22.94-79.1c-.88-2.55.48-5.34,2.92-6.53l39.89-20.85h-.01Z"/>
  <path class="st6" d="M1431.43,221.41c1.48-.87,3.4-.99,5.12-.16l51.42,25.09c1.71.84,2.8,2.43,3.02,4.13l8.11,44.27c.56,2.66-1.01,5.34-3.35,6.32l-76.47,30.59c-1.6.55-3.19.56-4.69-.17s-2.47-2-3.02-3.6l-22.94-79.1c-.88-2.55.48-5.34,2.92-6.53l39.89-20.85h-.01Z"/>
  <path class="st12" d="M1407.44,439.04c1.52-.81,3.44-.85,5.12.05l50.35,27.17c1.68.91,2.7,2.54,2.85,4.25l6.29,44.57c.45,2.68-1.23,5.29-3.61,6.18l-77.66,27.44c-1.62.48-3.22.43-4.68-.36s-2.39-2.1-2.87-3.72l-19.69-79.98c-.77-2.58.7-5.31,3.19-6.41l40.71-19.21v.02Z"/>
  <path class="st11" d="M1150.47,583.27c1.5-.85,3.42-.95,5.12-.09l51.1,25.73c1.7.86,2.77,2.46,2.97,4.17l7.55,44.37c.53,2.67-1.08,5.33-3.43,6.28l-76.85,29.63c-1.6.53-3.2.52-4.69-.23s-2.45-2.03-2.97-3.63l-21.95-79.38c-.85-2.56.55-5.33,3-6.49l40.15-20.35h0Z"/>
  <path class="st6" d="M1089.1,36.19c1.37-1.3,3.4-1.92,5.44-1.46l61.38,13.93c2.05.46,3.61,1.89,4.28,3.66l19.82,45.37c1.27,2.71.26,5.97-2,7.61l-74.19,52c-1.57.99-3.28,1.41-5.07,1s-3.15-1.52-4.14-3.09l-44.48-78.93c-1.58-2.51-.83-5.83,1.48-7.73l37.46-32.37h.02Z"/>
  <path class="st10" d="M502.66,93.36c-.02-1.72.81-3.45,2.38-4.53l47.16-32.4c1.57-1.08,3.49-1.24,5.08-.6l42.53,14.75c2.59.82,4.15,3.51,3.85,6.03l-11.03,81.62c-.31,1.66-1.08,3.06-2.46,4s-2.96,1.17-4.62.86l-80.15-18.99c-2.65-.49-4.41-3.05-4.25-5.76l1.49-44.99h.02Z"/>
  <g>
    <path class="st11" d="M675.29,573.66c-.17-.22-.35-.35-.37-.51-.02-.18.04-.4.15-.57.45-.68.91-1.34,1.4-1.99,1.58-2.1,3.18-4.21,4.77-6.31.24-.32.48-.66.69-1,.36-.58.19-.94-.43-.94-1.01,0-2.03.02-3.04.08-.63.03-1.21-.06-1.78-.29-.29-.12-.52-.59-.36-.85.31-.52.62-1.05,1.02-1.49,1.52-1.72,3.1-3.39,4.63-5.1.94-1.06,1.82-2.17,2.75-3.24.4-.46.85-.86,1.3-1.27.08-.07.34-.11.36-.08.08.16.22.4.15.51-.4.62-.8,1.25-1.29,1.81-1.86,2.14-3.76,4.25-5.63,6.38-.4.46-.81.91-1.16,1.4-.14.19-.27.52-.21.73.1.38.51.39.85.39.95,0,1.89-.04,2.84-.05.33,0,.68,0,1.01.06.67.1,1.01.79.68,1.38s-.68,1.18-1.08,1.72c-1.32,1.79-2.69,3.56-4.03,5.35-.85,1.13-1.68,2.28-2.54,3.41-.14.19-.41.3-.67.48h-.01Z"/>
    <path class="st11" d="M690.52,572.13c-.05-.12-.07-.27-.15-.35-.25-.23-.52-.43-.79-.62-1.16-.84-1.17-1.46.02-2.31,1.04-.75,2.11-1.46,3.18-2.19.55-.38,1.11-.77,1.68-1.14.17-.11.35-.2.55-.24.11-.02.28.04.35.12.07.08.12.28.07.35-.18.27-.37.58-.62.77-1.14.84-2.31,1.64-3.47,2.46-.33.23-.66.47-.94.76-.09.1-.1.41-.01.53.2.26.48.47.72.7s.49.46.7.72c.3.38.24,1.01-.15,1.28-.49.35-1.01.68-1.55.96-3.06,1.6-6.06,3.3-8.95,5.18-.12.07-.22.15-.35.21-.98.59-1.49.68-1.57.27-.12-.72.54-.87.94-1.14,2.41-1.62,4.92-3.09,7.49-4.45.9-.47,1.75-1.01,2.62-1.54.1-.06.15-.22.22-.33h.01Z"/>
  </g>
  <path class="st2" d="M134.16,139.5c-.14-.87.16-1.82.87-2.48l21.56-19.99c.72-.67,1.68-.89,2.54-.68l22.73,4.33c1.38.23,2.37,1.48,2.41,2.78l.48,42.33c-.03.87-.32,1.64-.95,2.22s-1.42.81-2.28.78l-42.17-3.67c-1.39-.05-2.47-1.22-2.59-2.61l-2.6-22.99v-.02Z"/>
  <path class="st6" d="M258.83,224.71l-1.73,2.77-7.82-4.89c-.78-.49-1.81-.25-2.3.53s-.25,1.81.53,2.3l7.82,4.89-3.28,5.25-7.82-4.89c-.78-.49-1.81-.25-2.3.53h0c-.49.78-.25,1.81.53,2.3l7.82,4.89-1.73,2.77c-.4.65-.21,1.49.44,1.9l2.21,1.38c.65.4,1.49.21,1.9-.44l.97-1.56,5.96,3.72c3.19,2,7.27,1.42,9.8-1.18l1.77-2.82c1.23-3.41-.03-7.32-3.23-9.32l-5.96-3.72.97-1.56c.4-.65.21-1.49-.44-1.9l-2.21-1.38c-.65-.4-1.49-.21-1.9.44h0Z"/>
  <path class="st2" d="M277.19,231.51c-.02-.1-.02-.2-.04-.32-.04-.22-.19-1.16-.47-2.82-.04-.27-.08-.51-.11-.71-.06-.38-.09-.61-.11-.71-.01-.06-.03-.17-.05-.32-.53-3.47-.8-5.25-.81-5.36-.27-1.81-.39-2.58-.7-4.57,0,0-.01,0-.02,0l-4.75,3.11h-.02c-.02-.22-.05-.6-.11-1.13-.03-.31-.07-.69-.12-1.13-.14-1.45-.26-2.64-.35-3.57,0-.03-.11-1.19-.31-3.46-.01-.11-.03-.39-.07-.83-.04-.48-.14-1.6-.29-3.35v-.14s0-.03.02-.03l6.71-4.4h.02l-.25,9.97s0,0,.02,0l5.78-3.79h.01c-.26,1.53-.42,2.51-.5,2.93-.22,1.3-.37,2.21-.46,2.74-.14.89-.4,2.42-.76,4.6-.18,1.05-.39,2.34-.65,3.88-.27,1.63-.54,3.26-.8,4.89-.17,1.03-.29,1.78-.38,2.26-.09.53-.22,1.28-.4,2.26,0,0-.01,0-.01,0h-.02Z"/>
  <path class="st2" d="M275.64,261.9c-.1,0-.19.02-.3.03-.21.01-1.1.07-2.68.17-.26.02-.48.03-.67.05-.36.03-.58.05-.67.05-.06,0-.16,0-.31.02-3.28.26-4.97.39-5.07.4-1.71.14-2.44.19-4.33.33,0,0-.01,0,0-.02l1.83-5s0-.02,0-.01c-.21.03-.56.08-1.06.14-.29.04-.65.08-1.06.13-1.36.18-2.47.33-3.34.44-.03,0-1.11.15-3.23.45-.1.01-.36.05-.77.11-.45.06-1.49.22-3.12.45-.04,0-.08.02-.13.03,0,0-.02.01-.03.03l-2.59,7.07s0,.02,0,.02l9.05-2.36s.01,0,0,.01l-2.23,6.09s0,.01,0,0c1.34-.56,2.2-.92,2.57-1.08,1.14-.48,1.94-.81,2.41-1,.78-.32,2.13-.88,4.04-1.68.92-.38,2.06-.86,3.41-1.42,1.43-.59,2.86-1.19,4.29-1.78.9-.37,1.56-.65,1.98-.82.46-.2,1.12-.48,1.98-.84h0s.02-.01.02-.01Z"/>
  <path class="st9" d="M1499.16,411.38c.34-1.52,1.45-2.87,3.06-3.49l48.42-18.55c1.61-.62,3.34-.35,4.61.55l34.35,22.01c2.11,1.28,2.91,3.97,2.12,6.13l-27.02,69.58c-.62,1.4-1.6,2.47-3.01,3.01s-2.86.4-4.25-.22l-66.6-33.71c-2.23-1-3.24-3.62-2.52-5.97l10.85-39.32Z"/>
</svg>