<?xml version="1.0" encoding="UTF-8"?>
<svg id="illust-sub" xmlns="http://www.w3.org/2000/svg" version="1.1" viewBox="0 0 1728 740">
  <!-- Generator: Adobe Illustrator 30.0.0, SVG Export Plug-In . SVG Version: 2.1.1 Build 123)  -->
  <defs>
    <style>
      .st0 {
        fill: #ceb372;
      }
    </style>
  </defs>
  <g>
    <path class="st0" d="M1527.51,519.74c-6.35.64-11.9,6.09-10.98,12.7.45,3.22,2.49,5.83,4.96,7.81,2.76,2.21,5.85,4.04,9.16,5.28s6.65,1.83,10.09,1.9c1.82.04,3.64-.09,5.44-.35.84-.12,1.74-.41,2.6-.43,1.02-.02,1.69,1.04,2.46,1.61,1.29.96,2.79,1.59,4.37,1.91.77.16,1.55.23,2.34.24s1.74-.13,2.24.64c.37.57.38,1.35.53,2,.18.78.42,1.54.75,2.27.58,1.31,1.37,2.48,2.38,3.5,2.49,2.5,6.22,4.19,9.76,4.16,1.05,0,2.07-.19,3.07-.48,1.1-.32,1.99-.41,2.96.28.8.56,1.38,1.19,2.33,1.52.88.31,1.82.39,2.75.46s1.76-1.23.59-1.32c-.78-.06-1.6-.1-2.34-.36-.87-.3-1.39-.94-2.13-1.43-1.05-.7-2.29-.91-3.53-.66-.91.18-1.75.53-2.69.62-1.06.11-2.13,0-3.16-.26-1.64-.41-3.24-1.17-4.62-2.15-2.37-1.68-3.88-4.11-4.46-6.95-.22-1.07-.41-2.14-1.43-2.73-1.18-.68-2.71-.34-4-.52-1.72-.23-3.34-.9-4.69-2-1.1-.89-1.78-1.78-3.31-1.68-1.76.11-3.49.61-5.26.73s-3.41.1-5.11-.08c-3.28-.35-6.46-1.27-9.43-2.71s-6.18-3.43-8.37-5.97c-2.35-2.73-3.32-6.57-1.95-10s5.01-5.84,8.56-6.2c.99-.1,1.32-1.45.14-1.33h0Z"/>
    <path class="st0" d="M1562.61,530.68c-1.3-6.3-7.19-9.8-12.82-11.87-3.28-1.21-6.76-1.82-10.25-1.76-2.95.06-6.49.27-8.55,2.69-.68.8.99.86,1.41.36,1.94-2.28,5.91-2.09,8.64-1.93,3.15.19,6.25.99,9.14,2.24,4.86,2.11,9.54,5.23,10.68,10.73.14.67,1.88.23,1.74-.47h0Z"/>
    <path class="st0" d="M1592.67,555.13c1.61-4.56-2.18-8.16-5.83-10.25-1.93-1.1-4.05-1.8-6.25-2.1-1.73-.24-4.36-.64-5.14,1.38-.15.39.55.46.77.44.4-.04.83-.24.98-.63.14-.36.19-.27.61-.26s.85.02,1.27.06c.91.08,1.82.24,2.7.47,1.76.47,3.42,1.27,4.92,2.3s2.85,2.19,3.77,3.69c.98,1.58,1.07,3.36.46,5.09-.23.65,1.52.44,1.75-.19h0Z"/>
    <path class="st0" d="M1500.66,506.64c-1.57-.36-3.18-.44-4.78-.34-1.26.08-2.54.27-3.66.89-.73.4-1.4,1.02-1.61,1.85s0,1.83.54,2.46c.36.42.9.68,1.36.98.61.4,1.23.77,1.9,1.06,1.25.55,2.6.82,3.96.87s2.86-.17,4.23-.55c1-.28,2.24-.62,2.87-1.52.7-.99.25-2.49-.44-3.35-.95-1.18-2.68-1.64-4.02-2.23-.36-.16-.91,0-1.22.19-.21.12-.55.41-.18.57,1.82.8,4.22,1.43,4.44,3.76.09.99-.37,1.47-1.26,1.75-.99.31-2.03.5-3.07.52-2.33.05-4.23-.86-6.15-2.08-.72-.46-1.13-.98-1.26-1.83-.09-.61.04-1.25.47-1.7.66-.7,1.72-.76,2.63-.81,1.4-.07,2.79.02,4.16.34.47.11,2.02-.62,1.09-.83h0Z"/>
    <path class="st0" d="M1601.95,579.26c1.65-.57,3.24-1.46,4.3-2.88,1-1.34,1.28-2.86,1.01-4.49-.54-3.34-3.92-6.14-7.3-6.07-.37,0-.92.28-.96.69-.05.44.47.55.8.54,1.43-.03,2.96.94,3.95,1.91.91.88,1.51,1.99,1.75,3.24s.11,2.53-.62,3.6-1.98,1.89-3.24,2.32c-.32.11-.83.38-.72.8.11.39.71.45,1.02.34h0Z"/>
    <path class="st0" d="M1595.19,566.96c-.05.13-.09.26-.13.39-.01.05-.03.1-.05.14-.04.09-.02.06.07-.07-.25.1-.51.33-.73.48-.4.28-.8.57-1.16.89-.58.51-1.14,1.12-1.4,1.86-.57,1.7.46,3.46,1.28,4.89.42.73,2.06.04,1.59-.79-.44-.77-.88-1.56-1.13-2.42-.09-.32-.15-.61-.14-.85,0-.36.04-.49.15-.76.03-.07.07-.14.1-.21.07-.14-.05.07.05-.08.09-.14.19-.27.3-.39.22-.25.46-.45.78-.71.39-.31.8-.59,1.21-.86.26-.17.48-.33.64-.61.11-.21.16-.44.25-.66.38-.96-1.36-1.02-1.67-.24h0Z"/>
  </g>
  <g>
    <path class="st0" d="M1232.81,203.14c.22.8.37,1.25.47,1.71.28,1.23,1.04,2.1,2.07,2.76,2.07,1.33,4.32,1.86,6.76,1.54.62-.08,1.25-.18,1.87-.2.18,0,.44.21.52.38.08.18.03.47-.07.65-.16.26-.39.5-.63.69-1.07.81-2.12,1.63-3.23,2.37-.83.56-1.32,1.34-1.67,2.23-.21.52-.25,1.06-.09,1.62.73,2.66,1.52,5.3,2.93,7.71.35.6.84,1.18.75,1.94-.02.19-.23.39-.41.52-.08.06-.35.01-.41-.08-.46-.63-1-1.24-1.31-1.94-.75-1.66-1.81-3.13-2.81-4.64-.81-1.22-1.98-2.09-3.23-2.69-1.55-.75-3.29-1.11-5.06-.78-.93.17-1.84.43-2.77.59-.18.03-.43-.14-.58-.29-.2-.21-.08-.64.2-.8.48-.28.98-.51,1.44-.8.8-.5,1.59-1.01,2.38-1.54,1.54-1.02,2.26-2.59,2.79-4.27.32-1.01.12-2.03-.23-3.01-.92-2.6-1.83-5.2-2.73-7.81-.12-.36-.16-.75-.18-1.13,0-.1.18-.26.3-.3.13-.04.29.04.43.09.06.02.12.11.15.18.83,1.87,1.66,3.74,2.34,5.28ZM1240.77,210.93c-.16-.1-.33-.29-.51-.3-1.59-.12-3.09-.52-4.45-1.39-.26-.17-.58-.27-.88-.31-.19-.02-.46.08-.6.23-.15.16-.2.42-.26.64-.51,1.85-1.29,3.54-2.77,4.83-.11.1-.23.24-.26.38-.03.12.02.35.11.39.27.14.57.24.87.3,1.63.34,3.19.85,4.51,1.92.06.05.12.13.18.14.21.06.48.18.63.1.15-.07.26-.37.26-.57-.02-.78-.34-1.55,0-2.33.46-1.1,1.04-2.11,2.03-2.84.32-.23.65-.44.95-.69.1-.09.11-.28.19-.5Z"/>
    <path class="st0" d="M1236.35,173.63c.12.25.63.34.83.15.45-.44.86-.91,1.31-1.34.22-.22.48-.42.76-.55.18-.08.49-.06.63.05.11.09.13.46.04.59-.36.51-.8.96-1.19,1.46-.59.75-.5.97.4,1.24.22.06,1.14.37,1.33.49.11.07.2.26.19.39-.01.13-.15.29-.27.34-.29.11-1.29-.05-1.6-.01-1.29.15-1.17.65-.82,1.6.24.66,1.53,3.46,1.77,4.12.08.21.12.46.1.68,0,.12-.13.3-.24.35-.12.05-.33.03-.44-.04-.19-.12-.38-.29-.48-.48-.22-.41-1.36-3.02-1.56-3.45-.57-1.2-.65-1.21-1.79-.28-.18.15-.84.87-1.05.95-.13.05-.33.03-.44-.05-.1-.07-.18-.28-.14-.39.11-.37.73-1.31.88-1.67.09-.22.2-.42.28-.64.1-.26-.13-.67-.43-.72-.7-.12-1.4-.21-2.09-.35-.21-.04-.41-.21-.6-.34-.05-.03-.08-.15-.07-.22,0-.07.08-.18.12-.18.53-.05,1.07-.1,1.61-.11.39-.01.78.04,1.17.04.41,0,.7-.39.6-.82-.22-.92-1.5-3.86-1.71-4.77-.07-.3-.09-.62-.07-.93,0-.11.17-.27.29-.31.11-.03.34.04.38.12.2.42,1.4,2.9,1.57,3.33-.02,0,.45,1.17.73,1.73Z"/>
  </g>
  <g>
    <path class="st0" d="M1259.33,329.32c-.36.75-.55,1.18-.78,1.6-.6,1.11-.6,2.26-.27,3.44.67,2.37,2.01,4.25,4.05,5.63.52.35,1.05.69,1.53,1.09.14.11.2.45.14.63-.06.18-.29.38-.48.44-.29.09-.62.12-.93.09-1.33-.1-2.67-.18-3.99-.36-1-.13-1.87.13-2.73.56-.5.25-.89.63-1.14,1.15-1.21,2.48-2.36,4.98-2.91,7.72-.14.68-.15,1.44-.72,1.95-.15.13-.43.14-.65.12-.1,0-.27-.22-.26-.33.07-.78.07-1.59.3-2.32.54-1.75.71-3.55.96-5.34.2-1.45-.1-2.88-.64-4.16-.67-1.59-1.73-3.01-3.27-3.93-.81-.49-1.66-.9-2.47-1.39-.15-.09-.23-.39-.25-.6-.02-.29.36-.53.68-.47.54.11,1.07.26,1.61.35.93.16,1.86.29,2.8.42,1.83.25,3.41-.45,4.91-1.35.9-.55,1.43-1.44,1.83-2.41,1.03-2.56,2.07-5.11,3.12-7.66.14-.35.38-.67.62-.97.06-.08.31-.08.42-.02.12.06.19.22.26.35.03.06.02.16,0,.23-.61,1.95-1.23,3.9-1.74,5.51ZM1260.13,340.43c-.05-.18-.05-.43-.18-.57-1.11-1.15-1.97-2.43-2.41-3.99-.08-.29-.25-.59-.45-.82-.13-.15-.4-.24-.6-.23-.22.02-.43.18-.62.31-1.61,1.05-3.31,1.8-5.27,1.79-.15,0-.33.03-.44.11-.1.07-.21.28-.18.37.11.28.27.56.45.8,1,1.33,1.82,2.75,2.11,4.42.01.08,0,.17.04.23.12.18.24.45.41.5.16.04.44-.1.57-.26.5-.6.77-1.38,1.53-1.75,1.07-.52,2.18-.89,3.4-.78.39.04.78.1,1.17.11.13,0,.27-.13.48-.25Z"/>
    <path class="st0" d="M1281.51,309.54c-.07.27.25.67.52.66.62-.03,1.25-.11,1.87-.14.31-.01.64,0,.93.09.19.06.41.28.44.45.02.14-.21.43-.37.47-.61.14-1.24.19-1.85.31-.93.17-1.02.4-.51,1.19.12.19.61,1.04.67,1.25.04.12-.02.33-.12.41-.09.08-.3.12-.43.08-.29-.11-.94-.89-1.19-1.07-1.06-.74-1.31-.29-1.67.66-.26.66-1.15,3.6-1.4,4.27-.08.21-.22.42-.37.58-.09.09-.29.14-.41.1-.13-.04-.27-.19-.3-.32-.06-.22-.09-.47-.04-.68.11-.46.98-3.16,1.11-3.61.36-1.28.31-1.33-1.16-1.39-.23-.01-1.2.1-1.42.02-.13-.05-.27-.2-.3-.32-.03-.12.05-.33.15-.39.33-.2,1.41-.5,1.76-.67.21-.1.43-.19.64-.3.25-.13.34-.59.15-.82-.44-.55-.91-1.08-1.33-1.65-.13-.17-.17-.43-.23-.65-.02-.06.04-.16.09-.21.05-.04.17-.08.21-.05.43.32.87.64,1.28.98.3.25.56.55.85.8.31.27.78.17.99-.22.45-.83,1.43-3.89,1.87-4.71.15-.27.34-.52.56-.74.08-.08.31-.09.42-.04.1.05.23.25.2.35-.13.45-.87,3.1-1.03,3.54-.02,0-.44,1.17-.6,1.78Z"/>
  </g>
  <g>
    <path class="st0" d="M1485.06,231.17c.78-2.02,1.54-4.04,2.35-6.05.82-2.04,2.05-3.8,3.7-5.26.44-.39,1.1-.28,1.5.18.46.53.69,1.15.56,1.82-.12.64-.32,1.29-.6,1.87-.75,1.52-1.55,3.01-2.37,4.49-1.23,2.22-2.8,4.25-3.68,6.66-.13.35-.36.66-.56.98-.31.49-.86.8-1.14.56-.26-.22-.53-.56-.57-.88-.08-.54-.07-1.13.06-1.65.23-.91.58-1.79.87-2.68-.03-.01-.07-.03-.1-.04Z"/>
    <path class="st0" d="M1483.61,244.22c-.31.85-.68,1.58-1.4,2.12-.45.33-1.23.43-1.58.14-.39-.32-.57-.77-.5-1.25.23-1.59,1.04-2.79,2.48-3.53.36-.18,1.07.19,1.09.61.02.64-.05,1.28-.08,1.92Z"/>
  </g>
  <path class="st0" d="M1304.66,563.09c0-2.5.36-4.89,1.47-7.15.33-.66.52-1.39.76-2.1.55-1.59.13-2.97-1.09-4.05-1.52-1.34-3.12-2.58-5.15-3.09-.21-.05-.41-.12-.61-.19-2.39-.76-2.58-1.65-.82-3.53,1.54-1.65,3.6-2.19,5.66-2.73,2.85-.74,5.74-.52,8.53.18,1.46.36,2.42.06,3.46-.85,1.87-1.62,3.97-2.8,6.42-3.39,1.93-.46,3.77-.43,5.66.12,1.96.57,3.76,1.49,5.47,2.57,1.04.65,1.21,1.86.31,2.69-.69.63-1.52,1.14-2.35,1.6-1.2.68-2.47,1.24-3.68,1.91-1.83,1-2.68,2.61-2.95,4.65-.22,1.64.23,3.01,1.51,3.97,1.78,1.33,3.46,2.8,5.59,3.64,2.57,1.01,2.78,1.64,1.29,4.01-1.36,2.15-2.91,4.19-4.43,6.24-.52.7-1.48.6-1.86-.15-.38-.76-.7-1.55-1-2.34-.67-1.78-1.77-3.13-3.58-3.85-1.48-.59-2.94-1.21-4.42-1.79-.79-.31-1.52-.1-2.02.51-.81.98-1.58,2-2.26,3.07-1.19,1.89-2.33,3.81-3.42,5.76-.52.92-.89,1.92-1.34,2.88-.27.58-.52,1.16-.84,1.71-.33.57-1.3.6-1.62.05-.8-1.38-1.7-2.73-1.93-4.35-.28-2-.5-4.01-.75-6.01ZM1306.51,563.23c-.21,1.96.39,4.02.74,6.11.04.26.35.57.6.68.46.18.79-.15,1.01-.52,1.39-2.38,2.73-4.8,4.18-7.15.83-1.35,1.79-2.63,2.77-3.88.64-.82,1.56-1.03,2.59-.81,2.41.52,4.69,1.35,6.74,2.77,1.07.73,2.06,1.47,2.61,2.71.25.56.73,1.03,1.15,1.51.09.1.44.13.54.04,1.4-1.18,2.37-2.69,3.23-4.29.25-.47.04-1.05-.48-1.36-.73-.44-1.52-.78-2.21-1.27-1.39-.97-2.75-2-4.09-3.03-1.17-.9-1.73-2.18-1.8-3.6-.17-3.19.86-5.86,3.73-7.57.82-.49,1.71-.86,2.56-1.3.93-.47,2.05-.65,2.57-1.74-.39-1.35-1.69-1.44-2.68-1.94-2.73-1.38-5.52-1.34-8.33-.21-1.4.56-2.64,1.37-3.73,2.41-.54.51-1.08,1.02-1.54,1.6-.49.61-1.02.66-1.68.38-3.14-1.37-6.39-1.38-9.7-.89-1.52.23-2.84.83-4.04,1.75-.6.45-.48,1.14.25,1.48.19.09.39.17.59.23,1.79.52,3.2,1.68,4.59,2.82,2.17,1.76,2.76,4.29,1.66,6.88-1.09,2.56-2.09,5.13-1.83,8.18Z"/>
  <g>
    <path class="st0" d="M1562.04,101.76c-1.28,3.84-2.46,7.72-3.53,11.64-.6,2.21-1.18,4.42-1.72,6.65-.16.66-.02,1.69.5,2.23.04.22.12.42.18.53.28.52.78,1,1.38,1,8.95.02,17.91.48,26.84,1.36.03,0,.06,0,.09,0,.4.06.87-.15,1.08-.44,1.68-2.39,2.83-5.1,3.39-7.98.05,0,.1.02.15.03.07.01.1-.01.1-.06.31.17.68.2.97,0,.58-.39.48-1.17.23-1.74-2.71-6.33-5.9-12.45-9.53-18.32-.03-.05-.06-.09-.1-.13-.04-.33-.21-.63-.51-.85-2.75-1.96-5.77-3.45-8.95-4.5-1.52-.5-3.21-1.05-4.8-1.14-.39-.02-.75.04-1.08.17-.14-.27-.33-.49-.58-.54-.67-.13-.77.9-.55,1.78-.07.22-.1.44-.09.65-.15.38-.3.77-.44,1.15-.35.93-.7,1.86-1.04,2.79-.69,1.9-1.36,3.81-2,5.73ZM1566.36,94.42c1.58,3.19,3.25,6.34,5.01,9.43-4.73,3.71-8.52,8.49-11.12,13.93-.51.13-1.02.26-1.53.39,2.11-8.07,4.66-16,7.63-23.76ZM1588.38,114.35c-.01.18-.04.35-.05.53-2.21-.37-4.42-.75-6.63-1.12,1.6-1.7,3.2-3.39,4.81-5.09.78,1.56,1.53,3.13,2.25,4.72-.22.27-.35.62-.38.96ZM1561.43,121.56c.28-.72.59-1.43.91-2.13,5.52-1.39,11.14-2.43,16.81-3.1,1.48,2.18,3.01,4.33,4.58,6.45-7.43-.7-14.86-1.1-22.3-1.22ZM1559.33,119.89c-.12.28-.23.57-.34.86-.17-.46-.4-.81-.58-.73-.05.02-.1.03-.15.05.07-.27.13-.54.2-.81.02.02.04.05.06.07.2.22.5.43.82.56ZM1577.63,114.07c.1.15.2.3.3.45-4.83.57-9.61,1.38-14.34,2.46,2.32-4.16,5.41-7.86,9.09-10.86,1.58,2.69,3.23,5.35,4.95,7.96ZM1575.21,105.62c.77.44,1.61.64,2.49.85,1.01.24,2.03.46,3.05.64,1.05.19,2.11.34,3.17.46-1.5,1.59-3.01,3.18-4.51,4.78-1.45-2.21-2.85-4.45-4.2-6.72ZM1579.99,105.45c-1.63-.25-3.32-.54-4.92-1.02.03-.25.14-.49.27-.7.36-.6.9-1.04,1.43-1.47,1.42-1.15,2.85-2.31,4.27-3.46,1.43,2.36,2.79,4.75,4.07,7.18-1.71-.09-3.42-.27-5.12-.53ZM1586.12,121.88c-1.48-1.96-2.91-3.96-4.31-5.98.14-.14.17-.34.07-.59,2.08.35,4.17.7,6.25,1.05-.35,1.95-1.03,3.82-2.01,5.51ZM1569.15,92.85c.77.17,1.54.38,2.29.61,2.68.82,5.25,2.05,7.63,3.58-.83.67-1.66,1.34-2.49,2.02-.82.66-1.69,1.29-2.46,2.01-.35.33-.69.72-.89,1.16-1.18-2.07-2.32-4.17-3.41-6.28-.4-.77-.79-1.54-1.17-2.31-.17-.33-.33-.67-.5-1,.01,0,.02,0,.03,0,.32.06.65.13.97.2Z"/>
    <path class="st0" d="M1609.39,118.33c.14-.17.1-.45.03-.63-.21-.51-.83-1.16-1.41-1.23-2.47-.27-4.93-.54-7.4-.81-.21-.02-.46-.06-.61.13-.14.17-.1.45-.03.63.21.51.83,1.16,1.41,1.23,2.47.27,4.93.54,7.4.81.21.02.46.06.61-.13Z"/>
    <path class="st0" d="M1599.33,124.35c1.57.88,3.14,1.77,4.71,2.65.45.25,1.34.31,1.56-.26.23-.62-.3-1.14-.8-1.42-1.57-.88-3.14-1.77-4.71-2.65-.45-.25-1.34-.31-1.56.26-.23.62.3,1.14.8,1.42Z"/>
    <path class="st0" d="M1595.85,130.36c1.43,1.36,2.85,2.72,4.28,4.08.43.41.8-.1.88-.51.1-.54.05-1.35-.39-1.78-1.43-1.36-2.85-2.72-4.28-4.08-.43-.41-.8.1-.88.51-.1.54-.05,1.35.39,1.78Z"/>
  </g>
  <g>
    <path class="st0" d="M236.46,177.27c0-.8-.01-1.61-.02-2.41,0-.55,0-1.11-.01-1.66,0-.32,0-.64,0-.96,0-.19,0-.38,0-.57,0-.13-.08-.52,0-.62l-.38.32c2.68-1.24,5.37-2.49,8.05-3.73l1.16-.54h-.87s.02.02.02.03l-.17-.33-.4,4.22c-.06.69,1.41.46,1.46-.14l.22-2.32.14-1.46c.03-.29.12-.59-.15-.78-.23-.17-.63-.1-.87.01-1.7.79-3.39,1.57-5.09,2.36l-3.16,1.46c-.29.13-.57.26-.86.4-.65.31-.58.78-.57,1.44.01,1.8.02,3.6.04,5.4,0,.71,1.47.45,1.46-.14h0Z"/>
    <path class="st0" d="M248.56,187.3c-1.73,7.55-3.42,15.11-5.23,22.64l.99-.55h-.02c.15.1.31.19.46.29-.36-5.88-.83-11.75-1.22-17.63-.06-.86-.12-1.72-.18-2.58-.04-.56.18-1.76-.44-2.01-.54-.21-1.47.41-1.93.62-1.78.82-3.55,1.64-5.33,2.47h.87c.27.16.14-.31.13-.53,0-.34-.02-.67-.03-1.01-.02-.81-.04-1.62-.05-2.42-.03-1.42-.05-2.85-.08-4.27-.01-.71-1.47-.45-1.46.14.04,2.5.09,5.01.15,7.51.01.56-.2,1.33.51,1.45.33.06.67-.15.96-.28,2.05-.93,4.09-1.89,6.13-2.84h-.87s0,1.74.01,1.94c.04.51.07,1.03.11,1.54.07,1.04.14,2.08.2,3.13s.14,2.16.21,3.24c.26,3.98.61,7.95.85,11.93.01.19.32.29.46.29h.02c.37.02.89-.14.99-.55,1.81-7.53,3.5-15.09,5.23-22.64.15-.65-1.33-.45-1.46.14h0Z"/>
    <path class="st0" d="M243.62,173.33l-.38,4.08-.25,2.62c-.03.35-.25,1.08.09,1.33.23.17.63.1.87-.01,2.64-1.22,5.29-2.45,7.93-3.67h-.87s0,.02.01.02l-.17-.33c-.61,2.61-1.23,5.22-1.82,7.84-.15.65,1.33.45,1.46-.14.59-2.62,1.21-5.23,1.82-7.84.03-.14-.07-.25-.17-.33h-.01c-.22-.19-.65-.1-.87,0-2.64,1.22-5.29,2.45-7.93,3.67h.87s-.01-.02-.02-.03l.17.33c.24-2.56.48-5.13.72-7.69.06-.69-1.41-.46-1.46.14h0Z"/>
  </g>
  <path class="st0" d="M211.63,246.95c-.55.42-1.1.84-1.64,1.26-.34.26-1.19.67-1.29,1.11-.1.46.27,1.25.37,1.69.41,1.74.81,3.48,1.22,5.22.03.07.07.11.14.14.69.21,1.16-.22,1.61-.64l2.43-2.3c1.43-1.35,2.86-2.7,4.29-4.05l-1.16.24c-.22-.06-.07-.13-.07.11,0,.19.1.44.15.63l.48,2.06.69,2.93c.03.11.18.15.27.17h.01c.34.08.9-.09,1.12-.37,4.82-5.98,9.72-11.9,14.5-17.91.07-.09.08-.18,0-.27h0c-.27-.33-1,0-1.25.17-4.13,2.9-8.38,5.66-12.57,8.49l1.16-.24c.25.1.05-.21-.02-.5l-.34-1.44c-.16-.71-.22-2.05-.62-2.67s-1.13-.12-1.59.2c-1.52,1.05-2.97,2.22-4.45,3.33-.63.48.81.43,1.15.18,1.57-1.18,3.15-2.33,4.7-3.53l-1.16.24c-.23-.08-.06.05-.02.34.06.38.18.76.27,1.14l.58,2.5c.09.39.06.75.46.89.87.31,2.27-1.11,2.89-1.53,3.57-2.41,7.18-4.76,10.7-7.23l-1.25.18c-.06-.08-3.45,4.05-3.65,4.3-1.44,1.76-2.87,3.53-4.31,5.3-2.18,2.69-4.35,5.37-6.53,8.06l1.12-.37c.39.09.16.22.2-.07.03-.16-.11-.47-.15-.63l-.48-2.06-.69-2.93c-.03-.07-.07-.11-.14-.14-.69-.2-1.16.22-1.61.65l-2.43,2.3-4.29,4.05,1.16-.24c.23.07.05-.04.01-.35-.06-.41-.19-.82-.28-1.21l-.7-2.99c-.14-.58-.53-1.44-.48-2.03.02-.22-.29.32.12-.08.34-.32.77-.59,1.14-.88.45-.35.9-.69,1.35-1.04.63-.48-.81-.44-1.15-.18h0Z"/>
  <g>
    <path class="st0" d="M194.94,228.63c-1.63-.1-3.25-.22-4.88-.34l.27.17c.04.07-.05.09.02,0,.05-.06.07-.16.11-.23l.36-.78,1-2.15c.23-.5.52-1,.7-1.51.1-.28-.1-.37-.39-.39-.57-.04-1.15-.03-1.72-.04-1.54-.04-3.09-.06-4.63-.09-.3,0-.79.11-.96.38s.15.36.38.37c2.12.04,4.23.13,6.35.13l-.38-.1v.02c0-.06-.02-.11-.04-.17-.46,1-.93,2-1.39,3l-.75,1.62c-.04.09-.13.22-.11.32.08.34,1.38.27,1.68.29,1.27.09,2.53.18,3.8.26.29.02.79-.12.96-.38.18-.29-.16-.36-.38-.37h0Z"/>
    <path class="st0" d="M181.12,223.2c-.72,0-1.44-.01-2.16-.02s-1.64-.2-2.28.15c-.54.29-.73,1.06-.97,1.59-.87,1.87-1.74,3.74-2.61,5.61-.02.07,0,.12.05.17.2.28,1.28.04,1.56.02l3.7-.34c1.97-.18,3.94-.37,5.91-.55l-.57-.09c-.15-.2,0-.08-.15.1-.14.17-.22.47-.31.67l-.94,2.03-1.37,2.95c-.02.07,0,.12.05.17h0c.15.19.58.1.76.06,8.08-1.87,16.19-3.64,24.26-5.57.23-.06.65-.22.64-.51h0c0-.18-.33-.19-.43-.2-2.95-.16-5.9-.44-8.84-.64-.51-.03-1.55.68-.58.75,2.95.2,5.89.49,8.84.64l-.43-.18h0c.21-.16.43-.33.64-.5-8.07,1.93-16.17,3.7-24.26,5.57l.76.05c.15.19,0,.11.16-.09.14-.18.22-.47.31-.67l.94-2.03,1.37-2.95c.02-.07,0-.12-.05-.17-.2-.27-1.28-.04-1.55-.01l-3.7.34c-1.97.18-3.94.37-5.91.55l.57.09c.15.21.04.03.18-.17s.24-.52.35-.75l1.09-2.36,1.06-2.27c.13-.28.28-.55.39-.84.1-.24.27-.32.03-.15l-.86.29c1.25-.07,2.53.01,3.79.03.5,0,1.55-.74.58-.75h0Z"/>
  </g>
  <path class="st0" d="M288.56,146.38c.34,2.01,4.03,3.52,7.82,6.76,4.85,4.16,5.39,4.67,5.39,4.67.83.68,1.76,1.23,2.7,1.66,1.8.82,3.28.19,4.41-1.84.49-.87.86-1.84,1.27-2.78,1.36-3.12,3.22-4.43,6-4.22.28.02.56.06.9.09,2.31.2,4.43,1.25,6.4,2.74,3.42,2.58,6.17,6.01,8.27,10.25,1.87,3.78,3.75,7.55,5.63,11.33.14.29.28.59.44.86.24.4.56.54.96.32.35-.19.47-.73.25-1.19-.72-1.46-1.44-2.9-2.16-4.36-1.48-3.01-2.9-6.07-4.45-9.02-2.55-4.86-5.91-8.61-10.21-11.02-2.03-1.14-4.17-1.78-6.43-1.86-2.63-.09-4.76,1.13-6.24,4.01-.67,1.3-1.29,2.63-1.97,3.92-.67,1.27-1.29,1.61-2.38,1.09-1.02-.49-2.02-1.08-2.93-1.81-1.84-1.48-3.62-3.07-5.41-4.64-2.41-2.11-4.8-4.24-7.2-6.36-.2-.08-.59-.21-.85-.03-.41.28-.27,1.1-.22,1.41Z"/>
  <path class="st0" d="M284.29,125.81c.11.53.18,1.08.33,1.6.17.57.6.94,1.19,1.01.54.06,1.1.04,1.64,0,.66-.06,1.31-.23,1.96-.29,1.95-.18,2.81.37,3.47,2.29.72,2.1,1.03,4.29,1.09,6.5,0,.23-.35.66-.55.67-.25.01-.6-.27-.76-.51-.6-.96-.77-2.06-.79-3.17-.02-.89-.17-1.73-.54-2.56-.7-1.59-.83-1.73-2.44-1.42-1.31.25-2.59.49-3.93.18-.45-.1-.89.22-.95.71-.54,4.69-1.54,9.35-.66,14.11.46,2.5-.92,4.23-2.72,5.64-.76.6-1.74.94-2.65,1.34-.84.37-1.71.27-2.6.08-1.71-.37-2.25-1.13-1.76-2.83.6-2.09,1.84-3.77,3.7-4.9.93-.57,1.96-1,2.96-1.45.67-.3,1.03-.77,1.07-1.51.16-2.64.32-5.28.51-7.92.07-.99.21-1.97.35-2.95.26-1.87.25-3.73-.08-5.59-.11-.63-.16-1.36.59-1.73.56-.28,1.35.44,1.5,1.37.07.43.1.88.14,1.31-.03,0-.06.01-.1.02Z"/>
  <path class="st0" d="M924.45,48.69c-.77-.26-1.08-.37-1.4-.47-2.19-.69-2.04-.97-3.9.85-.88.86-1.93,1.57-2.93,2.3-.15.11-.51.09-.68-.02-.17-.11-.3-.4-.31-.61-.05-1.1.34-2.12.67-3.14.28-.86.53-1.74.75-2.62.11-.42-.15-.82-.57-.98-1.31-.52-2.63-1.01-3.94-1.54-.3-.12-.58-.31-.85-.49-.22-.14-.2-.74,0-.89.82-.59,1.72-1.01,2.75-1.03.66-.01,1.33-.03,1.99.04.97.1,1.55-.37,1.98-1.16.58-1.1,1.13-2.22,1.78-3.27.47-.77,1.05-1.49,1.63-2.18.47-.55,1.33-.35,1.61.35.15.38.27.78.36,1.19.11.48.17.98.27,1.47.2.95-.07,2.2.81,2.74.78.49,1.7-.39,2.59-.51.9-.12,1.78-.47,2.7-.2.21.06.46.27.52.47.06.18-.04.51-.19.64-1.49,1.31-3.01,2.6-4.52,3.9-.44.38-.53.81-.27,1.34.45.89.94,1.75,1.39,2.64.15.29.25.62.33.94.09.34.04.69-.3.86-.2.1-.49.17-.68.1-.7-.26-1.37-.59-1.62-.69ZM917.76,48.14c.15-.04.35-.04.46-.13.56-.49,1.08-1.02,1.65-1.5.4-.33.87-.45,1.39-.29.87.27,1.74.53,2.62.77.12.03.33-.04.42-.14.09-.1.11-.29.13-.45,0-.07-.04-.16-.08-.23-1.31-2.48-1.03-2.73,1.04-4.26.39-.29.71-.67,1.04-1.02.03-.03,0-.16-.04-.22-.04-.06-.13-.15-.18-.14-.56.13-1.11.28-1.66.42-.85.21-1.23.02-1.49-.83-.2-.63-.32-1.28-.46-1.93-.2-.92.07-2.02-1-2.61-.86.48-1.11,1.41-1.56,2.17-.54.91-1.09,1.85-1.19,2.97-.05.52-.53.84-1.05.82-.82-.03-1.64-.09-2.47-.11-.15,0-.3.1-.46.16.13.2.21.47.39.57.44.23.92.37,1.38.54,1.51.56,1.77,1.04,1.4,2.62-.07.32-.22.63-.29.95-.1.48-.19.97-.24,1.46-.01.12.15.27.23.4Z"/>
  <path class="st0" d="M206.6,189.3c-.73.74-.71,1.93.03,2.66l7.43,7.28-4.89,4.99-7.43-7.28c-.74-.73-1.93-.71-2.66.03-.73.74-.71,1.93.03,2.66l7.43,7.28-2.58,2.63c-.6.61-.59,1.6.02,2.2l2.1,2.05c.61.6,1.6.59,2.2-.02l1.45-1.48,5.66,5.54c2.98,2.91,7.48,3.31,10.87,1.2l5.89,5.77,2.95-3.01-5.88-5.76c2.04-3.43,1.56-7.94-1.42-10.86l-5.66-5.54,1.45-1.48c.6-.61.59-1.6-.02-2.2l-2.1-2.05c-.61-.6-1.6-.59-2.2.02l-2.58,2.63-7.43-7.28c-.74-.73-1.93-.71-2.66.03Z"/>
  <path class="st0" d="M499.96,274.09c6.57,2.26,13.31,3.95,20.16,5.05.48.08,1.19-.03,1.54-.41.28-.31.3-.67-.2-.75-6.72-1.08-13.33-2.71-19.76-4.92-.5-.17-1.09-.07-1.54.21-.24.15-.7.66-.19.83h0Z"/>
  <path class="st0" d="M486.35,268.37c2.06,1.03,4.16,2,6.28,2.9.48.2,1.11.05,1.54-.21.27-.17.68-.63.19-.83-2.12-.9-4.22-1.87-6.28-2.9-.45-.23-1.13-.04-1.54.21-.3.18-.65.6-.19.83h0Z"/>
  <path class="st0" d="M231.84,222.43c15.92,12.77,39.22,18.17,58.65,10.82,4.74-1.8,8.59-4.57,12.53-7.68,3.34-2.65,7.03-4.41,11.22-5.27,10.39-2.15,22.85-.38,30.61,7.36,5.95,5.93,7.68,15.1,15.18,19.57,6.13,3.65,13.26,2.63,19.6.12,7.69-3.04,14.64-7.73,21.93-11.58,7.86-4.15,16.4-7.64,25.44-7.47,4.68.09,9.37,1.12,13.6,3.14,3.84,1.84,7.18,4.5,10.23,7.45,3.34,3.22,6.39,6.73,9.61,10.07,3.78,3.93,7.77,7.63,12.14,10.91,2.52,1.89,5.15,3.64,7.85,5.26.6.36,2.6-.52,1.73-1.04-5.39-3.23-10.4-7.02-14.99-11.31-3.56-3.33-6.85-6.94-10.18-10.49-5.97-6.36-12.34-12-21.02-14.15s-18.13-.68-26.57,2.67-15.44,7.94-23.08,12.05c-5.94,3.2-12.99,6.78-19.94,5.2-3.73-.85-6.99-3.13-9.37-6.09-2.58-3.21-4.2-7.06-6.43-10.51-2.62-4.06-6.13-7.29-10.46-9.46-5.52-2.77-11.79-3.89-17.93-3.74-3.62.09-7.28.55-10.76,1.58-4.48,1.32-8.07,3.69-11.66,6.58-4.65,3.74-9.79,6.22-15.61,7.6s-11.93,1.59-17.88.88c-10.03-1.19-19.71-4.56-28.12-10.17-1.48-.99-2.91-2.05-4.3-3.16-.59-.47-2.6.38-2.02.84h0Z"/>
  <g>
    <path class="st0" d="M292.72,455.62c.82,3.81.62,8.74-3.01,11.02-2.79,1.75-5.99,2.6-8.54,4.77-6.08,5.18-5.85,13.84-4.23,20.97.14.62,1.59.25,1.45-.39-1.75-7.71-1.7-17.11,6-21.59,2.53-1.47,5.61-2.25,7.76-4.32,2.75-2.65,2.77-7.37,2.02-10.85-.13-.62-1.59-.25-1.45.39h0Z"/>
    <path class="st0" d="M284.96,445.28c2.95,1.59,5.37,4.41,6.59,7.53.13.34.54.4.86.32.26-.07.72-.36.59-.7-1.29-3.29-3.8-6.31-6.93-7.99-.33-.18-.74-.15-1.04.08-.22.17-.4.59-.07.77h0Z"/>
    <path class="st0" d="M269.71,465.06c-6.3,5.07-4.52,13.6-1.99,20.22.26.68,1.7.28,1.45-.39-2.32-6.08-4.37-14.38,1.52-19.12.76-.62-.39-1.18-.97-.71h0Z"/>
    <path class="st0" d="M273.56,449.34c2.13,2.01,4.81,4.75,4.95,7.87s-3,4.49-5.39,5.74c-.87.46-.09,1.3.66.91,2.7-1.41,6.2-2.98,6.21-6.53s-2.91-6.57-5.31-8.84c-.49-.47-1.73.27-1.11.86h0Z"/>
  </g>
  <path class="st0" d="M655.46,426.49c.05.83.1,1.3.1,1.78.01,1.26.58,2.27,1.44,3.13,1.74,1.74,3.83,2.73,6.28,2.93.63.05,1.26.09,1.87.2.17.03.39.3.43.49.04.19-.07.47-.21.62-.21.22-.49.41-.77.54-1.21.56-2.42,1.14-3.66,1.64-.93.37-1.57,1.03-2.1,1.82-.31.47-.47.99-.43,1.57.16,2.76.37,5.5,1.23,8.15.21.66.58,1.33.32,2.06-.06.18-.31.34-.51.43-.09.04-.34-.06-.39-.16-.32-.71-.71-1.42-.87-2.17-.38-1.79-1.11-3.44-1.77-5.13-.53-1.37-1.5-2.46-2.59-3.31-1.36-1.06-2.98-1.78-4.78-1.84-.94-.03-1.89.03-2.83,0-.18,0-.4-.23-.51-.4-.16-.24.05-.64.37-.74.52-.17,1.06-.3,1.58-.48.89-.32,1.77-.65,2.65-1,1.72-.67,2.76-2.06,3.63-3.58.52-.92.55-1.96.42-2.99-.35-2.74-.69-5.47-1.02-8.21-.04-.38,0-.77.07-1.14.02-.1.23-.22.36-.23.13,0,.28.1.4.18.06.04.09.13.11.21.42,2,.83,4,1.17,5.66ZM661.6,435.8c-.13-.13-.26-.35-.43-.41-1.53-.46-2.91-1.16-4.05-2.3-.22-.22-.51-.39-.8-.49-.18-.06-.47-.02-.63.1-.18.12-.28.37-.39.57-.89,1.7-2.01,3.19-3.73,4.13-.13.07-.27.19-.33.32-.05.11-.05.34.02.41.24.19.5.36.78.48,1.52.68,2.93,1.51,4,2.83.05.06.09.15.15.18.2.1.43.28.6.24.16-.04.34-.31.37-.5.14-.76,0-1.58.48-2.28.68-.98,1.47-1.85,2.58-2.34.36-.16.73-.29,1.07-.48.12-.06.17-.25.29-.45Z"/>
  <path class="st0" d="M671.03,458.22c.07.27.54.47.78.32.53-.33,1.03-.71,1.56-1.03.27-.16.56-.31.86-.37.19-.04.5.04.6.18.09.12.03.48-.09.59-.46.42-.99.77-1.47,1.17-.73.61-.7.84.13,1.29.2.11,1.04.6,1.2.76.09.09.14.3.1.42-.04.12-.2.26-.33.28-.31.05-1.25-.32-1.56-.35-1.29-.13-1.28.39-1.14,1.39.1.7.76,3.71.86,4.41.03.22.02.47-.04.69-.03.12-.19.26-.31.29-.13.03-.33-.04-.42-.13-.16-.16-.31-.36-.37-.58-.13-.45-.69-3.24-.8-3.7-.31-1.29-.38-1.31-1.69-.65-.21.1-1,.67-1.23.71-.13.02-.33-.04-.42-.14-.08-.09-.11-.31-.06-.41.19-.34.99-1.13,1.21-1.44.13-.19.28-.37.41-.57.16-.24.01-.68-.27-.79-.65-.27-1.32-.5-1.97-.79-.2-.09-.36-.29-.51-.45-.04-.04-.04-.16-.02-.23.02-.06.11-.16.16-.15.53.07,1.07.13,1.59.23.38.07.76.2,1.14.28.4.09.77-.23.76-.67-.02-.94-.65-4.09-.67-5.03,0-.31.04-.62.12-.92.03-.11.22-.23.35-.24.11,0,.32.11.35.2.11.45.75,3.13.83,3.59-.03,0,.19,1.24.34,1.84Z"/>
  <path class="st0" d="M545.27,219.74c-.37.75-.56,1.18-.79,1.59-.61,1.1-.62,2.26-.3,3.44.65,2.37,1.97,4.27,4.01,5.66.52.36,1.05.7,1.53,1.1.14.11.19.45.13.63-.06.18-.29.37-.49.44-.29.09-.62.11-.93.09-1.33-.11-2.67-.2-3.99-.39-1-.14-1.87.12-2.73.54-.5.25-.89.63-1.15,1.15-1.23,2.47-2.4,4.96-2.97,7.69-.14.68-.16,1.44-.74,1.95-.15.13-.44.14-.65.12-.1,0-.27-.22-.26-.33.08-.78.08-1.58.32-2.32.55-1.74.74-3.54,1-5.33.21-1.45-.08-2.88-.61-4.16-.66-1.6-1.71-3.02-3.24-3.96-.8-.49-1.65-.91-2.46-1.41-.15-.09-.23-.39-.24-.6-.01-.29.36-.53.69-.46.54.11,1.07.27,1.61.36.93.17,1.86.31,2.8.44,1.83.27,3.42-.42,4.92-1.32.91-.54,1.44-1.43,1.84-2.4,1.05-2.55,2.11-5.1,3.18-7.64.15-.35.39-.66.63-.96.06-.08.31-.08.42-.02.12.06.19.22.26.35.03.06.02.16,0,.23-.63,1.95-1.26,3.89-1.78,5.49ZM545.99,230.86c-.05-.18-.05-.43-.18-.57-1.11-1.15-1.96-2.45-2.38-4.01-.08-.3-.25-.59-.45-.82-.13-.15-.4-.25-.6-.23-.22.02-.43.18-.62.31-1.61,1.03-3.32,1.78-5.29,1.75-.15,0-.33.03-.44.11-.1.07-.21.27-.18.36.11.28.26.56.44.8.99,1.34,1.8,2.76,2.08,4.44.01.08,0,.17.04.23.12.18.23.45.4.5.16.04.45-.1.57-.25.5-.59.78-1.38,1.55-1.74,1.08-.51,2.19-.88,3.41-.76.39.04.78.11,1.17.12.13,0,.27-.13.48-.25Z"/>
  <path class="st0" d="M539.44,268.05c.11.26.61.38.82.2.47-.41.92-.85,1.4-1.25.24-.2.51-.39.8-.49.18-.07.5-.03.62.09.1.1.1.47,0,.6-.4.48-.86.91-1.28,1.37-.63.71-.57.94.32,1.26.21.08,1.12.45,1.3.58.1.08.18.28.16.4-.02.12-.17.28-.29.32-.3.09-1.28-.13-1.59-.12-1.29.06-1.21.57-.92,1.54.2.68,1.29,3.56,1.5,4.23.07.22.09.46.06.69-.01.12-.15.29-.27.33-.12.04-.33.01-.44-.07-.18-.14-.36-.31-.45-.51-.19-.43-1.15-3.1-1.33-3.54-.49-1.24-.56-1.25-1.77-.4-.19.13-.89.81-1.11.88-.13.04-.33,0-.43-.07-.09-.08-.16-.29-.12-.4.13-.36.81-1.26.98-1.6.1-.21.22-.41.32-.62.12-.26-.09-.67-.38-.75-.69-.17-1.38-.3-2.06-.49-.21-.06-.39-.23-.57-.37-.05-.04-.07-.15-.05-.22.01-.07.09-.17.14-.17.54-.01,1.07-.02,1.61,0,.39.01.78.09,1.17.12.41.03.72-.34.65-.78-.15-.93-1.24-3.95-1.39-4.88-.05-.3-.05-.62-.01-.93.01-.11.19-.26.31-.29.11-.03.34.06.37.15.17.43,1.2,2.98,1.35,3.43-.02,0,.37,1.2.61,1.77Z"/>
  <g>
    <path class="st0" d="M679.53,564.03c-.23-.24-.46-.38-.51-.57-.05-.21,0-.49.11-.7.46-.87.93-1.73,1.43-2.57,1.64-2.73,3.3-5.46,4.95-8.19.25-.42.49-.85.71-1.29.36-.74.11-1.16-.64-1.08-1.22.13-2.44.28-3.65.48-.75.12-1.46.08-2.18-.13-.36-.11-.7-.65-.54-.98.31-.66.62-1.34,1.04-1.92,1.62-2.26,3.3-4.47,4.93-6.72,1-1.39,1.92-2.84,2.91-4.24.42-.6.92-1.14,1.41-1.69.09-.1.39-.18.42-.14.12.18.31.46.24.59-.4.8-.81,1.61-1.32,2.34-1.97,2.81-3.99,5.59-5.98,8.39-.43.6-.86,1.2-1.22,1.83-.15.25-.26.66-.16.9.17.44.66.4,1.07.36,1.14-.12,2.27-.28,3.41-.41.4-.05.82-.08,1.22-.06.82.04,1.32.82.99,1.57-.33.75-.67,1.5-1.08,2.2-1.37,2.32-2.79,4.62-4.18,6.94-.88,1.47-1.74,2.96-2.63,4.42-.15.25-.46.41-.75.66Z"/>
    <path class="st0" d="M697.67,560.28c-.08-.14-.12-.32-.23-.4-.33-.24-.68-.45-1.03-.65-1.5-.86-1.59-1.61-.26-2.78,1.16-1.03,2.36-2.02,3.55-3.03.62-.53,1.24-1.06,1.88-1.58.19-.15.4-.28.63-.36.13-.04.34.01.44.1.1.09.18.32.13.41-.18.35-.37.74-.65,1-1.27,1.15-2.58,2.26-3.87,3.4-.37.32-.74.65-1.04,1.03-.1.13-.07.51.05.64.27.29.64.5.96.75.32.25.65.49.93.78.41.42.41,1.19-.02,1.56-.55.48-1.13.95-1.74,1.35-3.48,2.31-6.88,4.73-10.12,7.36-.13.1-.25.21-.39.3-1.1.83-1.71,1-1.85.52-.24-.85.54-1.11.99-1.49,2.7-2.25,5.53-4.34,8.46-6.29,1.02-.68,1.98-1.44,2.96-2.18.11-.09.15-.28.22-.43Z"/>
  </g>
  <g>
    <path class="st0" d="M318.98,639.76c.26.79.43,1.23.56,1.69.34,1.22,1.15,2.04,2.21,2.65,2.13,1.22,4.41,1.64,6.83,1.19.62-.11,1.24-.24,1.86-.29.18-.01.45.18.54.36.09.17.06.47-.04.65-.14.27-.36.52-.6.72-1.02.86-2.04,1.73-3.11,2.53-.8.6-1.25,1.4-1.56,2.31-.18.53-.19,1.07,0,1.62.87,2.62,1.79,5.21,3.31,7.55.38.58.9,1.14.85,1.9-.01.19-.21.4-.38.54-.08.06-.35.03-.42-.05-.49-.61-1.06-1.18-1.41-1.87-.84-1.62-1.97-3.03-3.04-4.49-.87-1.18-2.09-1.98-3.36-2.52-1.59-.67-3.34-.94-5.09-.53-.92.22-1.82.52-2.73.73-.17.04-.44-.12-.6-.26-.21-.2-.12-.63.16-.81.46-.3.95-.56,1.4-.88.78-.54,1.54-1.09,2.3-1.65,1.48-1.1,2.13-2.71,2.57-4.4.26-1.02.02-2.03-.38-3-1.05-2.55-2.1-5.1-3.12-7.66-.14-.35-.19-.74-.23-1.12-.01-.1.17-.27.29-.31.12-.04.29.02.43.07.06.02.12.1.16.17.92,1.82,1.85,3.65,2.61,5.16ZM327.33,647.14c-.16-.09-.34-.27-.52-.28-1.6-.04-3.11-.36-4.51-1.16-.27-.15-.59-.25-.9-.27-.19-.01-.46.11-.59.26-.14.16-.18.43-.23.66-.42,1.87-1.11,3.6-2.52,4.96-.11.1-.21.25-.24.39-.02.12.04.35.13.38.28.12.58.21.88.26,1.65.26,3.23.69,4.6,1.68.06.05.12.12.19.13.22.04.49.16.64.07.14-.08.24-.39.23-.58-.06-.77-.41-1.53-.13-2.32.41-1.12.94-2.16,1.88-2.94.3-.25.63-.47.91-.74.1-.09.1-.28.17-.51Z"/>
    <path class="st0" d="M321.02,610.11c.14.24.65.31.83.1.42-.46.81-.95,1.24-1.4.21-.23.46-.45.73-.58.17-.09.49-.09.63.02.11.09.16.45.07.59-.34.53-.75,1-1.11,1.51-.55.77-.45,1,.47,1.21.22.05,1.16.31,1.36.42.11.06.21.25.21.38,0,.13-.13.3-.25.35-.28.13-1.29.02-1.6.07-1.28.21-1.14.71-.74,1.64.28.65,1.7,3.38,1.98,4.03.09.21.14.45.14.68,0,.12-.11.3-.23.36-.12.06-.32.05-.44-.02-.19-.11-.39-.27-.51-.46-.24-.4-1.51-2.95-1.73-3.36-.63-1.17-.71-1.17-1.8-.19-.17.15-.79.91-1,1-.12.05-.33.05-.44-.02-.1-.06-.19-.27-.16-.38.09-.37.66-1.35.79-1.71.08-.22.18-.43.25-.66.09-.27-.16-.66-.47-.7-.7-.09-1.41-.14-2.11-.25-.22-.03-.42-.19-.61-.3-.05-.03-.08-.14-.08-.21,0-.07.07-.18.12-.19.53-.08,1.06-.15,1.6-.19.39-.03.78,0,1.17-.02.41-.02.68-.42.56-.85-.26-.9-1.7-3.77-1.95-4.68-.08-.3-.12-.61-.12-.92,0-.11.16-.28.28-.32.11-.04.34.02.39.11.22.41,1.54,2.82,1.74,3.25-.02.01.51,1.15.81,1.69Z"/>
  </g>
  <path class="st0" d="M799.16,567.13c.78,3.07,1.05,7.36-1.01,10.03-1.47,1.91-3.99,2.8-6.05,3.89-2.46,1.3-4.73,2.94-6.3,5.27-1.77,2.62-2.57,5.73-2.7,8.86-.14,3.43.44,6.84,1.32,10.15.12.47,1.57.08,1.45-.39-1.62-6.09-2.42-13.31,1.39-18.78,1.75-2.51,4.29-4.01,6.96-5.36,1.93-.98,4.04-1.96,5.36-3.75,2.06-2.8,1.85-7.13,1.04-10.32-.12-.47-1.57-.09-1.45.39h0Z"/>
  <path class="st0" d="M790.79,556.75c3.1,1.52,5.69,4.38,7.07,7.54.21.47,1.63.02,1.45-.39-1.44-3.3-4.12-6.23-7.35-7.82-.3-.15-.76-.01-1.02.15-.19.11-.44.38-.14.53h0Z"/>
  <path class="st0" d="M775.99,577.67c-6.26,5.43-4.13,14.05-1.29,20.74.29.67,1.73.26,1.45-.39-2.6-6.12-5.03-14.57.81-19.64.74-.64-.4-1.2-.97-.71h0Z"/>
  <path class="st0" d="M779.31,561.42c2.26,1.98,5.07,4.65,5.37,7.83s-2.88,4.76-5.28,6.13c-.85.49-.08,1.33.66.91,2.7-1.54,6.24-3.26,6.11-6.89s-3.2-6.61-5.75-8.84c-.51-.45-1.75.3-1.11.86h0Z"/>
  <path class="st0" d="M467.96,715.28c16.32-7.41,33.91-12.15,51.77-13.61,1.45.08,2.88.15,4.38.63,2.69,1.05.05,2.83-1.27,3.63-7.29,4.82-16.59,3.4-24.12,7.5-1.45.77-3.24,1.35-4.16,2.68-.13,1.82,8.97-1.33,10.22-1.67,2.08-.61,4.06-1.45,6.28-1.63.48-.04,1.43.04,1.83.68.34.45.04,1.19-.22,1.5-.9,1.22-2.18,1.8-2.96,3-.31.7-.39.46.45.46.66-.08,1.34-.24,2.02-.4,2.44-.62,5.84-1.46,8.27-1.88,2.04-.3,4.46-.93,6.48-.05.59.33.58,1.19.16,1.63-1.52,1.52-3.62,2.51-5.08,3.9-.21.19-.41.46-.41.49-.01.01.01-.04,0-.1,0-.09-.04-.17-.08-.22-.1-.13-.14-.1-.07-.08.33.1,1.07.03,1.69-.08,5.42-1.27,10.83-3.12,16.36-4.04,2.86-.22,26.6-6.57,25.32-2.32-.2.19-.51.19-.7,0-.25-.29-1.02-.39-1.67-.41-2.06-.04-4.13.32-6.17.66-8.23,1.69-16.5,3.37-24.63,5.53-2.78.73-5.33,1.75-8.19,2.35-.86.14-1.54.29-2.5.08-.47-.07-1.22-.68-1.19-1.35-.05-.77.58-1.45.94-1.81,1.41-1.35,2.87-2.16,4.35-3.21.25-.18.57-.42.66-.51.02-.02-.01.02-.02.04,0,0-.04.07-.05.14-.1.3.14.8.42.88-1.7-.61-3.56-.2-5.4-.07-2.79.29-5.51.79-8.28,1.39-.99.16-2.03.47-3.06.32-2.24-.89,2.01-4.44,2.3-5.32-.01.06.03.26.09.31-.67-.24-1.77.04-2.56.2-4,.96-8.3,2.2-12.39,2.76-.95.14-3.29.29-2.83-1.35.94-1.66,2.93-2.26,4.42-3.19,4.85-2.99,10.72-3.79,16.07-5.25,1.32-.4,2.63-.82,3.91-1.33,1.85-.8,4.05-1.07,5.69-2.22.15-.13.28-.26.31-.39-1.17-.78-3.08-.67-4.58-.78-12.84,1.34-26.29,4.64-38.47,9.67-4.08,1.7-8.09,3.55-11.99,5.63-1.81.93-3.25-1.81-1.35-2.74h0Z"/>
  <path class="st0" d="M1657.75,668.15c4.97-.23,9.95-.48,14.92-.74,1.03-.05,1.48-1.36.19-1.3-4.97.26-9.95.51-14.92.74-1.04.05-1.48,1.36-.19,1.3h0Z"/>
  <path class="st0" d="M1167.12,549.47c13.11,8.35,26.34,16.51,39.68,24.48,17.22,10.27,34.68,20.13,52.16,29.95,13.62,7.64,27.25,15.29,41.15,22.43,10.54,5.42,21.26,10.48,32.26,14.89,18.27,7.31,37.16,13.1,56.37,17.4,17.22,3.86,34.7,6.51,52.26,8.26,15.47,1.54,30.99,2.35,46.51,3.02,14.41.62,28.81.88,43.23.85,17.6-.04,35.2-.39,52.79-.77,19.34-.42,38.68-.85,58.01-1.49,3.35-.11,6.7-.23,10.05-.35,1.04-.04,1.48-1.34.19-1.3-17.68.64-35.36,1.1-53.04,1.5-18.54.42-37.09.85-55.64,1.03-15,.15-30.01.13-45-.38-14.79-.5-29.6-1.2-44.36-2.35-17.09-1.33-34.14-3.4-50.99-6.58-19.32-3.64-38.37-8.75-56.89-15.37-12.53-4.48-24.75-9.7-36.68-15.58-12.79-6.3-25.29-13.17-37.74-20.1-17.22-9.58-34.43-19.21-51.44-29.17-14.55-8.52-28.97-17.26-43.25-26.24-2.73-1.72-5.46-3.45-8.18-5.18-.65-.42-2.33.49-1.46,1.04h0Z"/>
  <path class="st0" d="M1145.38,535.38c4.97,3.28,9.95,6.54,14.95,9.78.65.42,2.33-.48,1.46-1.04-5-3.24-9.98-6.5-14.95-9.78-.65-.43-2.32.48-1.46,1.04h0Z"/>
  <path class="st0" d="M1126.9,522.67c3.72,2.53,7.45,5.04,11.18,7.54.64.43,2.32-.47,1.46-1.04-3.73-2.5-7.46-5.02-11.18-7.54-.64-.44-2.32.46-1.46,1.04h0Z"/>
  <path class="st0" d="M1673.76,702.46c2.48-.06,4.95-.12,7.43-.19.43-.01,1-.12,1.24-.54.21-.37-.18-.64-.53-.63-2.48.07-4.95.13-7.43.19-.43,0-1,.12-1.24.54-.21.37.18.64.53.63h0Z"/>
  <path class="st0" d="M1243.36,622.92c14.64,10.01,29.94,19.04,45.82,26.93,12.9,6.4,26.17,12.05,39.72,16.9,11.05,3.95,22.3,7.4,33.69,10.21s23.77,5.07,35.77,6.96c13.94,2.2,27.92,4.13,41.9,6.05,8.04,1.11,16.1,2.11,24.16,3.05,13.32,1.54,26.67,2.88,40.04,4.04,17.16,1.49,34.34,2.69,51.54,3.61,15.11.8,30.24,1.38,45.37,1.74,17.59.42,35.19.53,52.78.36,4.59-.05,9.18-.11,13.77-.2.37,0,1.08-.11,1.24-.54.14-.38-.12-.64-.53-.63-18.08.34-36.16.37-54.24.09-15.7-.25-31.39-.73-47.07-1.46-16.61-.77-33.21-1.81-49.79-3.11-14.5-1.14-28.98-2.49-43.44-4.06-9.51-1.04-19.02-2.17-28.51-3.43-11.83-1.57-23.66-3.26-35.47-5-12.71-1.87-25.4-3.89-37.96-6.63-11.21-2.44-22.28-5.51-33.18-9.1-13-4.27-25.76-9.29-38.19-15-15.36-7.05-30.23-15.17-44.5-24.22-3.86-2.45-7.67-4.96-11.44-7.54-.56-.39-2.28.42-1.48.97h0Z"/>
  <path class="st0" d="M1250.67,595.03c-5.7,4.27-9.97,10.17-11.85,17.07-.23.84,1.69.61,1.9-.17,1.76-6.5,5.81-12.1,11.17-16.12,1.02-.77-.52-1.32-1.23-.79h0Z"/>
  <path class="st0" d="M1265.87,605.98c-3.76,7.8-7.4,15.66-10.92,23.57-.42.95,1.47.89,1.79.17,3.51-7.92,7.15-15.77,10.92-23.57.45-.93-1.45-.88-1.79-.17h0Z"/>
  <path class="st0" d="M1287.57,615.97c-5.05,8.49-9.48,17.36-13,26.6-.37.96,1.51.86,1.78.15,3.52-9.24,7.95-18.11,13-26.6.51-.85-1.4-.8-1.78-.15h0Z"/>
  <path class="st0" d="M1305.16,627.71c-4.39,8.22-7.59,17.07-8.99,26.3-.11.74,1.79.42,1.88-.23,1.38-9.13,4.51-17.9,8.86-26.03.42-.79-1.46-.6-1.76-.05h0Z"/>
  <path class="st0" d="M1326.55,636.95c-4.25,8.75-6.88,18.19-7.63,27.9-.06.76,1.83.4,1.88-.24.74-9.59,3.29-18.97,7.5-27.62.39-.81-1.48-.6-1.75-.04h0Z"/>
  <path class="st0" d="M1349.46,641.66c-4.48,9.99-6.67,20.88-6.43,31.82.02.91,1.91.57,1.9-.18-.23-10.82,1.88-21.61,6.32-31.5.41-.92-1.48-.83-1.78-.15h0Z"/>
  <path class="st0" d="M1378.5,647.74c-4.03,11.05-6.04,22.71-5.98,34.47,0,.59,1.89.23,1.88-.5-.06-11.66,1.99-23.25,5.98-34.2.23-.63-1.65-.4-1.88.23h0Z"/>
  <path class="st0" d="M1408.01,650.16c-3.84,12.32-4.97,25.3-3.21,38.08.12.89,2.01.42,1.88-.5-1.72-12.51-.63-25.29,3.13-37.34.33-1.05-1.55-1.06-1.81-.23h0Z"/>
  <path class="st0" d="M1437.65,657.53c-2.34,11.65-3.1,23.55-2.3,35.4.02.29,1.92-.02,1.88-.5-.8-11.79-.06-23.65,2.27-35.24.07-.37-1.77-.1-1.85.35h0Z"/>
  <path class="st0" d="M1466.78,656.94c1.34,13.03,1.62,26.16.8,39.24-.01.21,1.85.02,1.88-.5.82-13.08.55-26.2-.8-39.24-.03-.3-1.93.05-1.88.5h0Z"/>
  <path class="st0" d="M1495.44,657.54c5.52,13.16,8.18,27.39,7.39,41.66-.04.77,1.85.41,1.88-.23.79-14.37-1.83-28.68-7.39-41.93-.28-.66-2.13-.09-1.88.5h0Z"/>
  <path class="st0" d="M1529.9,665.09c5.9,11.41,8.79,24.21,7.71,37.05-.06.76,1.83.4,1.88-.24,1.09-12.93-1.77-25.82-7.71-37.32-.33-.64-2.16-.04-1.88.5h0Z"/>
  <path class="st0" d="M1561.16,660.93c8.37,13.59,13.14,29.2,13.22,45.2,0,1,1.91.74,1.91-.13-.08-16.27-4.89-32.09-13.41-45.91-.46-.74-2.25-.02-1.72.84h0Z"/>
  <path class="st0" d="M1592.25,661.18c10.52,14,17.41,30.5,19.25,47.96.04.33,1.93-.02,1.88-.5-1.84-17.46-8.73-33.96-19.25-47.96-.33-.44-2.01.33-1.88.5h0Z"/>
  <path class="st0" d="M1628.83,660.69c9.52,15.82,17.31,32.64,23.12,50.17.3.9,2.18.39,1.88-.5-5.84-17.65-13.7-34.59-23.28-50.51-.46-.77-2.25-.03-1.72.85h0Z"/>
  <path class="st0" d="M921.69,55.66c.51-.36-.57-.85-1.02-.54-2.17,1.53-2.01,4.9-1.05,8.81.64,2.59,2.9,4.62,5.37,5.72.18.6.43,1.19.75,1.72,1.26,2.13,3.55,3.51,5.91,4.07,2.43.57,4.94.31,7.34-.26.15-.03,1.97-.68,1.97-.75.03-.09.06-.19.1-.28.12-.29.09-.63-.49-.51-1.91.85-9.83,1.58-12.87-1.18-.72-.65-1.26-1.48-1.58-2.38,1.16.36,2.37.5,3.57.38,2.12-.22,4.21-1.46,4.52-3.73.32-2.36-1.85-4.26-4.07-4.4-2.04-.14-4.09,1.05-4.94,2.92-.47,1.03-.59,2.17-.45,3.28-1.63-.8-3.13-2.21-3.6-3.91-.88-3.21-2.09-7.07.54-8.94ZM925.82,67.55c.2-1.84,1.4-3.34,3.17-3.9,1.5-.47,3.83-.12,4.14,1.75.31,1.89-1.39,3.34-3.05,3.76-1.38.35-2.85.24-4.23-.22-.07-.46-.08-.93-.03-1.4Z"/>
  <g>
    <g>
      <path class="st0" d="M478.43,84.14c-6.82,2.93-10.8,11.75-7.41,18.58,2.82,6.06,11.22,9.89,16.81,5.15,0,.08.02.18.05.28.72,1.5,2.21,1.88,3.47.73,1.17-.93,5.08-4.35,6.28-6.89.4.34.82.71.96,1.23-.73,1.76-2.61,3.21-3.92,4.67-1.03.72-2.26,2.53-3.62,1.85-.3-.08-.69-.1-.94.11-.37.54.24,1.23.75,1.43,2.06.66,3.77-1.51,5.21-2.69,1.08-1.07,2.08-2.22,3.06-3.38.26-.22.45-.46.59-.7.28.55.7,1.19-2.1,3.84-1.13,1.05-2.21,2.59-3.77,2.92-.28-.14-.65-.44-.94-.15-.49.52-.1,1.45.57,1.58,1.36.27,2.56-.85,3.53-1.67,1.46-1.74,4.77-3.81,4.32-6.31-.12-.65-.45-1.74-1.3-1.4-.02-.94-.63-1.87-1.53-2.52-.17-.15-.35-.19-.53-.17,0-.36-.13-.67-.39-.92-.52-.52-1.3-1.81-2.11-1.64,3.87-11.62-6.35-18.98-17.06-13.94ZM494.8,93.04c-.03,1.64-.09,3.34-.78,4.86-.31.66.4,1.18.93,1,.14.72,1.4,1.19,1.62,1.95-1.58,2.82-4.04,5.5-6.8,7.26-.25-.37-.87-.76-1.34-.83.32-.58.27-1.35-.61-1.13-1.66,1.02-3.26,2.34-5.34,2.37-4.33.3-8.25-2.75-10.15-6.47-3.29-6.7,1.35-15.15,8.26-17.2,6.29-2.51,14.43.59,14.2,8.18Z"/>
      <path class="st0" d="M483.95,94.66c-6.13,1.85-3.8,14.64,3.18,11.56.73-.23,1.38-1.79.19-1.7-1.01.37-2,1.01-3.13.5-3-1.35-3.03-6.94-.46-8.69-.08,1.62,1.33,4.45,3.25,3.32,1.68-1.5.88-4.79-1.48-5.02.53-1.98,3.05-2.67,4.6-1.39,1.21,1,1.58,2.67,1.85,4.14-.17,1.47,1.29,2,1.53.6-.18-2.2-.81-4.73-2.7-6.07-2.53-1.86-6.27-.32-6.83,2.75ZM486.12,98.44c-.74-.5-.96-1.53-.91-2.37,1.17.06,1.49,1.52.91,2.37Z"/>
    </g>
    <g>
      <path class="st0" d="M466.91,90.28c.08-.11.14-.26.16-.39.04-.2.07-.54-.15-.63-1.19-.52-2.39-1.05-3.58-1.57-.08-.03-.19.09-.22.13-.08.11-.14.26-.16.39-.04.2-.07.54.15.63,1.19.52,2.39,1.05,3.58,1.57.08.03.19-.09.22-.13Z"/>
      <path class="st0" d="M470.04,84.85c-1.16-1.12-2.41-2.16-3.57-3.28-.17-.17-.86.77-.6,1.02,1.16,1.12,2.41,2.16,3.57,3.28.17.17.86-.77.6-1.02Z"/>
      <path class="st0" d="M473.41,82.04c-.65-1.35-1.17-2.76-1.53-4.21-.05-.19-.38.05-.46.11-.12.09-.23.2-.33.32-.05.06-.15.18-.13.26.37,1.49.9,2.93,1.57,4.31.08.16,1.02-.5.88-.79Z"/>
    </g>
  </g>
  <path class="st0" d="M1038.48,601.09c-.02.55-.08,1.09-.06,1.64.03.6.36,1.06.91,1.26.51.19,1.06.3,1.59.38.65.1,1.32.09,1.98.19,1.94.29,2.64,1.03,2.82,3.05.2,2.21-.02,4.41-.49,6.58-.05.23-.49.56-.69.52-.25-.05-.52-.4-.62-.68-.36-1.08-.26-2.18-.02-3.27.19-.87.24-1.72.09-2.62-.3-1.71-.4-1.88-2.03-1.96-1.33-.06-2.63-.14-3.86-.75-.41-.21-.92,0-1.09.47-1.64,4.43-3.71,8.72-3.98,13.56-.14,2.54-1.9,3.89-3.98,4.83-.88.4-1.91.5-2.89.67-.9.16-1.72-.14-2.54-.53-1.57-.76-1.92-1.63-1.04-3.16,1.08-1.89,2.68-3.22,4.76-3.89,1.04-.33,2.14-.51,3.22-.71.73-.13,1.18-.51,1.4-1.21.78-2.53,1.57-5.05,2.38-7.57.3-.94.67-1.86,1.03-2.78.69-1.76,1.12-3.56,1.25-5.45.04-.64.17-1.36.98-1.54.61-.14,1.2.74,1.14,1.69-.03.44-.11.87-.17,1.31-.03,0-.07,0-.1,0Z"/>
  <g>
    <path class="st0" d="M1543.07,406.08c-.23-.06-.55-.1-.79-.25-.12-.07-.18-.45-.09-.58.39-.64.78-1.3,1.27-1.86,1.81-2.02,3.71-3.97,5.5-6,2.23-2.53,4.38-5.12,6.59-7.67.34-.4.78-.71,1.19-1.04.06-.05.26-.04.31.02.13.14.32.34.3.49-.03.31-.13.64-.3.9-.48.72-.99,1.43-1.52,2.11-3.66,4.73-7.53,9.28-11.87,13.41-.16.15-.34.27-.59.47Z"/>
    <path class="st0" d="M1566.7,417.07c-2.04,1.42-3.99,2.81-5.97,4.16-.34.23-.78.34-1.19.42-.16.03-.44-.12-.55-.28-.11-.15-.12-.41-.08-.6.04-.2.17-.42.33-.54,4.39-3.23,8.83-6.37,13.67-8.91.28-.15.61-.22.92-.3.08-.02.23.05.26.11.09.18.25.44.18.57-.51,1-1.37,1.65-2.33,2.21-1.79,1.04-3.54,2.13-5.24,3.16Z"/>
    <path class="st0" d="M1529.76,401.97c-.08-.27-.24-.58-.24-.88.02-1.52-.01-3.05.17-4.55.2-1.61.62-3.2.99-4.78.03-.11.36-.25.52-.22.18.03.44.22.46.37.1.53.21,1.08.13,1.6-.4,2.58-.78,5.16-.67,7.79,0,.2-.09.43-.22.59-.12.16-.33.31-.52.33-.18.02-.38-.15-.63-.26Z"/>
    <path class="st0" d="M1556.72,410.41c-.43.21-2.95,2.21-3.1,2.17-.26-.07-.67-.3-.67-.46,0-1.12,3.43-3.83,4.45-3.59.12.03.29.39.23.49-.31.54-.69,1.05-.91,1.39Z"/>
  </g>
  <path class="st0" d="M1354.43,142.67c-.25-1.4-1.26-1.42-2.39-1.23-1.16.2-2.33.41-3.49.57-.38.05-.83.07-1.15-.09-.28-.14-.51-.52-.62-.85-.06-.17.14-.59.31-.65.87-.29,1.76-.51,2.65-.72.51-.12,1.03-.18,1.55-.29,4.13-.89,3.64-.86,4.73-4.28.8-2.5,1.68-4.98,2.67-7.42.74-1.82,1.64-3.58,2.61-5.29.44-.77,1.14-1.43,1.83-2.02.81-.69,2.17-.27,2.7.69.54.98.58,2.02.33,3.06-.36,1.53-.8,3.05-1.18,4.58-.13.51-.21,1.02-.29,1.54-.06.36.38.81.7.73,1.15-.28,2.28-.61,3.43-.87,2.13-.47,4.18-.2,6.15.7,1.42.65,1.78,2.46.71,3.65-.43.48-.95.9-1.5,1.25-2.01,1.27-4.15,2.26-6.51,2.71-2.71.51-5.42,1.06-8.14,1.5-1.69.27-2.95.81-3.36,2.72-.2.93-1.12.89-1.75,0ZM1373.7,133.85c-.07-.41-.02-.9-.23-1.07-.38-.31-.9-.53-1.39-.6-1.87-.27-3.65.19-5.37.85-.98.37-1.9.89-2.86,1.28-.89.37-1.93-.31-1.91-1.33.02-1.03.16-2.08.41-3.08.32-1.27.81-2.49,1.19-3.74.15-.5.32-1.02.32-1.53,0-.29-.29-.61-.52-.85-.03-.04-.5.17-.6.36-2.21,3.89-3.57,8.12-4.9,12.37-.21.67.37,1.32,1.1,1.24,4.44-.47,8.8-1.28,12.98-2.91.6-.23,1.13-.63,1.78-1Z"/>
  <path class="st0" d="M1149.72,655.72c.75-.63-1-1.27-1.67-.72-3.23,2.67-2.58,7.96-.59,14,1.32,4.01,5.12,6.93,9.15,8.37.35.93.82,1.82,1.38,2.62,2.23,3.2,6.01,5.1,9.8,5.7,3.89.61,7.83-.1,11.54-1.29.22-.07,3.02-1.31,3.01-1.42.04-.15.08-.3.12-.45.15-.47.07-1-.83-.75-2.9,1.57-15.29,3.67-20.42-.31-1.21-.94-2.16-2.18-2.77-3.56,1.87.42,3.8.5,5.67.16,3.32-.6,6.45-2.8,6.67-6.42.23-3.76-3.43-6.48-6.94-6.45-3.24.03-6.32,2.15-7.43,5.19-.62,1.68-.67,3.48-.31,5.22-2.67-1.06-5.2-3.1-6.14-5.73-1.78-4.96-4.14-10.89-.23-14.15ZM1157.66,673.95c.09-2.92,1.8-5.43,4.52-6.52,2.31-.92,6.02-.65,6.73,2.27.71,2.94-1.8,5.43-4.35,6.29-2.13.71-4.46.72-6.68.17-.16-.72-.23-1.46-.21-2.21Z"/>
  <g>
    <path class="st0" d="M1082.96,441.4c-.23.04-.54.15-.82.12-.14-.02-.35-.33-.34-.48.07-.75.13-1.51.34-2.22.76-2.61,1.62-5.18,2.35-7.8.91-3.24,1.73-6.51,2.61-9.77.14-.51.4-.98.62-1.46.03-.07.21-.15.29-.12.18.07.43.17.48.31.1.29.16.64.12.94-.12.86-.27,1.72-.45,2.56-1.25,5.85-2.76,11.63-4.87,17.23-.08.2-.19.39-.33.68Z"/>
    <path class="st0" d="M1109.01,441.04c-1.22,2.17-2.38,4.26-3.58,6.34-.21.36-.55.65-.89.9-.13.1-.45.08-.61-.01-.16-.09-.29-.32-.34-.51-.05-.2-.03-.45.06-.63,2.55-4.81,5.19-9.57,8.45-13.96.19-.26.45-.46.7-.67.06-.05.23-.06.29-.01.16.12.41.29.41.43-.03,1.13-.52,2.08-1.14,3-1.16,1.71-2.26,3.46-3.35,5.12Z"/>
    <path class="st0" d="M1122.3,465.06c-.12-.26-.32-.48-.27-.62.14-.4.3-.86.61-1.11,1.42-1.19,2.84-2.41,4.37-3.45,2.44-1.66,4.96-3.19,7.47-4.75.36-.23.78-.39,1.19-.51.17-.05.46.03.57.16.11.13.17.44.09.58-.22.37-.46.76-.8,1-1.34.94-2.68,1.9-4.09,2.73-2.18,1.27-4.23,2.71-6.15,4.34-.66.56-1.37,1.08-2.1,1.55-.23.15-.6.06-.88.08Z"/>
    <path class="st0" d="M1069.18,443.48c-.18-.21-.47-.41-.59-.69-.64-1.38-1.34-2.74-1.82-4.17-.52-1.54-.82-3.15-1.19-4.74-.03-.11.21-.38.37-.42.17-.05.49,0,.58.13.32.43.66.88.81,1.38.76,2.5,1.54,4.99,2.78,7.31.09.17.11.43.06.63-.04.19-.16.43-.32.52-.16.09-.41.03-.68.04Z"/>
    <path class="st0" d="M1118.99,452.55c-.64.7-1.5,1.64-2.37,2.56-.32.34-.72.25-.99-.06-.15-.16-.28-.51-.21-.67.66-1.39,1.52-2.65,2.84-3.5.18-.11.53-.13.7-.03.17.1.29.41.3.63.02.24-.11.49-.27,1.08Z"/>
    <path class="st0" d="M1097.13,439.37c-.29.38-1.69,3.27-1.85,3.3-.26.05-.74.02-.8-.12-.48-1.01,1.43-4.94,2.46-5.17.12-.03.43.23.42.34-.05.63-.16,1.25-.22,1.64Z"/>
  </g>
  <g>
    <path class="st0" d="M1152.68,159.46c.2.81.34,1.26.43,1.73.25,1.24.99,2.12,2,2.81,2.03,1.38,4.27,1.97,6.72,1.71.62-.07,1.25-.15,1.88-.15.18,0,.44.22.51.4.07.18.02.47-.09.65-.16.26-.4.49-.65.67-1.09.78-2.16,1.57-3.29,2.29-.85.54-1.35,1.3-1.73,2.18-.22.52-.27,1.06-.13,1.62.67,2.68,1.39,5.33,2.73,7.78.33.61.81,1.2.7,1.96-.03.19-.24.39-.42.51-.08.06-.35,0-.41-.09-.45-.64-.96-1.26-1.26-1.97-.71-1.68-1.73-3.17-2.69-4.71-.78-1.24-1.93-2.14-3.16-2.77-1.53-.79-3.26-1.19-5.04-.91-.93.15-1.85.38-2.78.52-.18.03-.43-.15-.58-.3-.2-.21-.07-.64.22-.8.48-.26.99-.49,1.46-.77.81-.48,1.62-.97,2.42-1.47,1.56-.98,2.33-2.53,2.9-4.19.34-1,.17-2.02-.15-3.02-.85-2.62-1.7-5.25-2.53-7.88-.11-.36-.14-.76-.15-1.14,0-.1.19-.26.31-.29.13-.03.29.04.43.1.06.03.12.11.14.18.78,1.89,1.56,3.78,2.2,5.34ZM1160.43,167.46c-.16-.1-.32-.3-.5-.32-1.59-.16-3.08-.6-4.41-1.5-.25-.17-.57-.29-.87-.33-.19-.03-.47.07-.61.21-.15.15-.21.41-.28.64-.56,1.83-1.38,3.51-2.9,4.76-.12.1-.23.23-.27.37-.03.12.02.35.1.39.27.14.56.26.86.33,1.62.38,3.16.94,4.46,2.03.06.05.11.13.18.15.21.06.47.19.63.12.15-.07.27-.37.27-.56,0-.78-.3-1.55.05-2.33.49-1.09,1.1-2.09,2.1-2.78.32-.22.66-.42.97-.67.1-.08.12-.27.2-.5Z"/>
    <path class="st0" d="M1114.66,254.6c.12.25.62.36.82.17.46-.43.88-.89,1.35-1.31.23-.21.49-.41.77-.53.18-.07.5-.05.63.07.11.1.12.46.02.59-.38.5-.83.94-1.23,1.43-.61.73-.53.96.37,1.25.22.07,1.13.4,1.32.53.11.07.19.27.18.39-.02.13-.15.29-.28.33-.29.11-1.29-.08-1.6-.05-1.29.11-1.19.62-.86,1.58.23.67,1.44,3.5,1.67,4.17.07.21.1.46.09.69,0,.12-.14.29-.25.34-.12.05-.33.03-.44-.05-.18-.13-.37-.3-.47-.5-.21-.42-1.28-3.05-1.47-3.48-.54-1.21-.61-1.22-1.79-.32-.18.14-.86.85-1.07.92-.13.04-.33.02-.44-.06-.09-.07-.17-.28-.13-.39.12-.36.76-1.29.92-1.64.1-.21.21-.42.3-.63.11-.26-.11-.67-.41-.73-.69-.14-1.39-.25-2.08-.41-.21-.05-.4-.22-.59-.35-.05-.04-.07-.15-.06-.22.01-.07.08-.18.13-.18.54-.04,1.07-.07,1.61-.07.39,0,.78.06,1.17.07.41.01.71-.37.62-.8-.19-.92-1.4-3.89-1.59-4.82-.06-.3-.07-.62-.05-.93,0-.11.18-.27.3-.3.11-.03.34.04.38.13.19.43,1.32,2.93,1.48,3.37-.02,0,.42,1.18.68,1.75Z"/>
  </g>
  <g>
    <path class="st0" d="M718.84,52.01c.2.81.34,1.26.43,1.73.25,1.24.99,2.12,2,2.81,2.03,1.38,4.27,1.97,6.72,1.71.62-.07,1.25-.15,1.88-.15.18,0,.44.22.51.4.07.18.02.47-.09.65-.16.26-.4.49-.65.67-1.09.78-2.16,1.57-3.29,2.29-.85.54-1.35,1.3-1.73,2.18-.22.52-.27,1.06-.13,1.62.67,2.68,1.39,5.33,2.73,7.78.33.61.81,1.2.7,1.96-.03.19-.24.39-.42.51-.08.06-.35,0-.41-.09-.45-.64-.96-1.26-1.26-1.97-.71-1.68-1.73-3.17-2.69-4.71-.78-1.24-1.93-2.14-3.16-2.77-1.53-.79-3.26-1.19-5.04-.91-.93.15-1.85.38-2.78.52-.18.03-.43-.15-.58-.3-.2-.21-.07-.64.22-.8.48-.26.99-.49,1.46-.77.81-.48,1.62-.97,2.42-1.47,1.56-.98,2.33-2.53,2.9-4.19.34-1,.17-2.02-.15-3.02-.85-2.62-1.7-5.25-2.53-7.88-.11-.36-.14-.76-.15-1.14,0-.1.19-.26.31-.29.13-.03.29.04.43.1.06.03.12.11.14.18.78,1.89,1.56,3.78,2.2,5.34ZM726.6,60.01c-.16-.1-.32-.3-.5-.32-1.59-.16-3.08-.6-4.41-1.5-.25-.17-.57-.29-.87-.33-.19-.03-.47.07-.61.21-.15.15-.21.41-.28.64-.56,1.83-1.38,3.51-2.9,4.76-.12.1-.23.23-.27.37-.03.12.02.35.1.39.27.14.56.26.86.33,1.62.38,3.16.94,4.46,2.03.06.05.11.13.18.15.21.06.47.19.63.12.15-.07.27-.37.27-.56,0-.78-.3-1.55.05-2.33.49-1.09,1.1-2.09,2.1-2.78.32-.22.66-.42.97-.67.1-.08.12-.27.2-.5Z"/>
    <path class="st0" d="M794.09,114.59c.12.25.62.36.82.17.46-.43.88-.89,1.35-1.31.23-.21.49-.41.77-.53.18-.07.5-.05.63.07.11.1.12.46.02.59-.38.5-.83.94-1.23,1.43-.61.73-.53.96.37,1.25.22.07,1.13.4,1.32.53.11.07.19.27.18.39-.02.13-.15.29-.28.33-.29.11-1.29-.08-1.6-.05-1.29.11-1.19.62-.86,1.58.23.67,1.44,3.5,1.67,4.17.07.21.1.46.09.69,0,.12-.14.29-.25.34-.12.05-.33.03-.44-.05-.18-.13-.37-.3-.47-.5-.21-.42-1.28-3.05-1.47-3.48-.54-1.21-.61-1.22-1.79-.32-.18.14-.86.85-1.07.92-.13.04-.33.02-.44-.06-.09-.07-.17-.28-.13-.39.12-.36.76-1.29.92-1.64.1-.21.21-.42.3-.63.11-.26-.11-.67-.41-.73-.69-.14-1.39-.25-2.08-.41-.21-.05-.4-.22-.59-.35-.05-.04-.07-.15-.06-.22.01-.07.08-.18.13-.18.54-.04,1.07-.07,1.61-.07.39,0,.78.06,1.17.07.41.01.71-.37.62-.8-.19-.92-1.4-3.89-1.59-4.82-.06-.3-.07-.62-.05-.93,0-.11.18-.27.3-.3.11-.03.34.04.38.13.19.43,1.32,2.93,1.48,3.37-.02,0,.42,1.18.68,1.75Z"/>
  </g>
  <g>
    <path class="st0" d="M1579.53,213.71c-.22.09-.5.25-.79.28-.14,0-.41-.25-.42-.41-.07-.75-.16-1.51-.09-2.25.24-2.7.59-5.4.8-8.11.27-3.36.44-6.72.67-10.09.04-.52.2-1.04.33-1.55.02-.08.18-.19.26-.17.19.03.46.08.53.21.16.27.28.59.3.9.05.87.06,1.74.05,2.6-.09,5.98-.46,11.94-1.45,17.85-.04.21-.11.42-.19.73Z"/>
    <path class="st0" d="M1605.02,208.33c-.78,2.36-1.51,4.64-2.29,6.91-.13.39-.42.74-.7,1.05-.11.12-.42.16-.6.11-.17-.05-.35-.26-.43-.43-.08-.18-.12-.44-.06-.63,1.57-5.22,3.24-10.4,5.59-15.33.14-.29.35-.54.56-.79.05-.06.21-.1.28-.07.18.09.46.2.48.34.19,1.11-.1,2.14-.54,3.17-.81,1.9-1.55,3.83-2.29,5.67Z"/>
    <path class="st0" d="M1622.69,229.32c-.17-.23-.41-.41-.38-.56.06-.42.13-.9.38-1.21,1.17-1.44,2.32-2.91,3.62-4.23,2.07-2.1,4.26-4.08,6.41-6.1.31-.29.69-.53,1.07-.73.16-.08.45-.06.59.05.14.1.25.4.2.55-.14.4-.3.84-.59,1.14-1.13,1.18-2.26,2.38-3.49,3.46-1.89,1.67-3.62,3.48-5.19,5.45-.54.68-1.14,1.33-1.76,1.93-.19.19-.58.18-.85.25Z"/>
    <path class="st0" d="M1566.41,218.4c-.22-.17-.54-.32-.72-.56-.89-1.23-1.84-2.43-2.59-3.74-.8-1.41-1.42-2.93-2.08-4.42-.05-.11.14-.41.28-.49.16-.08.48-.09.59.02.39.36.82.74,1.07,1.2,1.23,2.31,2.47,4.6,4.13,6.64.13.15.19.4.18.61,0,.2-.08.45-.22.58-.14.12-.39.11-.66.17Z"/>
    <path class="st0" d="M1617.04,217.69c-.5.81-1.15,1.9-1.83,2.97-.25.4-.65.38-.99.13-.18-.13-.38-.45-.33-.62.38-1.49.98-2.89,2.11-3.99.15-.15.49-.23.68-.17.19.07.36.34.42.56.06.23-.02.5-.06,1.11Z"/>
    <path class="st0" d="M1593.04,208.98c-.21.43-1.03,3.54-1.18,3.6-.25.1-.72.17-.81.04-.67-.9.45-5.13,1.41-5.54.11-.05.46.14.48.25.08.62.08,1.25.1,1.66Z"/>
  </g>
  <g>
    <path class="st0" d="M1333.15,328.83c0,.83.02,1.31,0,1.78-.05,1.26.45,2.3,1.27,3.21,1.64,1.83,3.67,2.94,6.11,3.28.62.09,1.25.16,1.86.31.17.04.37.32.4.51.03.19-.09.47-.24.61-.22.21-.51.38-.79.49-1.24.5-2.48,1.01-3.74,1.43-.95.32-1.62.94-2.2,1.71-.34.45-.52.96-.52,1.54,0,2.76.07,5.51.78,8.21.18.67.5,1.36.21,2.07-.07.18-.33.32-.53.4-.09.04-.34-.08-.38-.18-.28-.73-.63-1.46-.75-2.22-.28-1.8-.92-3.5-1.48-5.22-.46-1.39-1.36-2.54-2.4-3.45-1.3-1.14-2.88-1.94-4.67-2.1-.94-.08-1.89-.08-2.83-.16-.18-.02-.38-.25-.49-.43-.14-.25.09-.64.41-.72.53-.14,1.08-.24,1.61-.39.91-.27,1.8-.56,2.7-.85,1.75-.58,2.87-1.9,3.82-3.38.57-.89.65-1.92.58-2.97-.2-2.75-.39-5.5-.57-8.25-.02-.38.05-.77.13-1.14.02-.1.24-.2.37-.21.13,0,.27.11.39.2.06.04.09.14.1.21.31,2.02.61,4.04.86,5.71ZM1338.76,338.45c-.13-.14-.24-.37-.41-.43-1.5-.54-2.84-1.32-3.92-2.52-.2-.23-.48-.42-.77-.53-.18-.07-.47-.04-.64.06-.18.11-.3.35-.42.55-.98,1.65-2.18,3.07-3.95,3.92-.13.06-.28.17-.35.3-.06.11-.07.34,0,.41.22.2.48.38.75.52,1.48.76,2.85,1.67,3.84,3.04.05.06.08.15.14.19.19.11.41.3.58.27.16-.03.35-.29.4-.48.18-.75.08-1.58.61-2.25.74-.94,1.57-1.76,2.71-2.2.37-.14.75-.25,1.1-.42.12-.06.18-.24.32-.44Z"/>
    <path class="st0" d="M1431.42,380.82c.05.28.52.5.76.36.55-.3,1.07-.65,1.62-.94.27-.15.58-.28.88-.32.19-.03.49.07.59.22.08.12,0,.48-.12.58-.48.4-1.03.72-1.53,1.09-.76.56-.74.8.06,1.3.19.12,1,.66,1.15.83.09.09.12.31.08.42-.05.12-.22.24-.35.26-.31.03-1.23-.39-1.54-.44-1.28-.2-1.3.31-1.21,1.33.06.7.55,3.74.62,4.45.02.23,0,.47-.08.69-.04.12-.2.25-.33.27-.13.02-.32-.05-.41-.15-.15-.17-.29-.38-.34-.59-.1-.46-.51-3.27-.59-3.74-.24-1.31-.3-1.33-1.66-.74-.21.09-1.04.62-1.26.64-.13.01-.33-.06-.41-.16-.07-.09-.1-.32-.03-.41.2-.33,1.05-1.07,1.29-1.38.14-.18.3-.36.44-.54.17-.23.05-.68-.23-.81-.64-.3-1.29-.57-1.92-.89-.19-.1-.34-.31-.49-.48-.04-.05-.04-.16,0-.23.03-.06.12-.15.17-.14.53.09,1.06.19,1.58.32.38.09.74.24,1.12.35.4.11.78-.19.79-.63.04-.94-.43-4.12-.39-5.06.01-.31.08-.62.17-.91.04-.11.24-.22.36-.22.11,0,.32.12.33.22.08.46.58,3.16.63,3.63-.03,0,.12,1.25.24,1.86Z"/>
  </g>
  <g>
    <path class="st0" d="M658.65,85.06c-.24,0-.56.04-.83-.05-.13-.04-.28-.39-.23-.54.22-.72.44-1.45.79-2.11,1.28-2.4,2.65-4.74,3.91-7.15,1.56-2.99,3.03-6.02,4.56-9.02.24-.47.59-.88.91-1.3.05-.06.24-.1.31-.06.16.11.39.25.41.4.04.31.03.66-.08.95-.29.82-.62,1.62-.97,2.42-2.42,5.47-5.09,10.81-8.31,15.86-.12.18-.26.34-.46.6Z"/>
    <path class="st0" d="M684.22,90.07c-1.64,1.87-3.2,3.68-4.8,5.47-.27.31-.68.52-1.06.7-.15.07-.45-.02-.6-.14-.14-.12-.22-.37-.22-.57,0-.2.06-.45.19-.6,3.49-4.19,7.05-8.3,11.14-11.92.24-.21.54-.36.82-.51.07-.04.23-.01.28.05.13.15.34.37.31.51-.26,1.1-.93,1.93-1.74,2.7-1.49,1.43-2.93,2.92-4.33,4.32Z"/>
    <path class="st0" d="M644.74,84.26c-.14-.24-.37-.5-.44-.8-.34-1.48-.74-2.96-.92-4.46-.19-1.61-.16-3.25-.19-4.88,0-.12.29-.33.45-.34.18-.01.47.11.54.25.22.49.47,1,.51,1.52.23,2.6.48,5.2,1.21,7.73.06.19.01.44-.07.63-.08.18-.25.39-.43.45-.17.06-.4-.05-.67-.1Z"/>
    <path class="st0" d="M672.93,85.99c-.36.31-2.33,2.85-2.49,2.85-.27,0-.72-.13-.76-.28-.26-1.09,2.42-4.54,3.47-4.55.12,0,.37.31.34.42-.17.6-.41,1.19-.55,1.56Z"/>
  </g>
  <g>
    <path class="st0" d="M108.41,335.34c.33.56.65,1.12.98,1.67l.14.24c.06.1.3.13.39.13.18,0,.4-.04.57-.11.14-.06.31-.15.39-.28l.05-.11c.02-.07,0-.14-.05-.2-.33-.56-.65-1.12-.98-1.67l-.14-.24c-.06-.1-.3-.13-.39-.13-.18,0-.4.04-.57.11-.14.06-.31.15-.39.28l-.05.11c-.02.07,0,.14.05.2h0Z"/>
    <path class="st0" d="M97,352.49c-3.47-.97-6.93-1.95-10.4-2.92l-.16.7,8.77-3.57c.14-.06.53-.28.44-.5-1.41-3.36-2.82-6.72-4.22-10.07l-1.17.59c3.68.97,7.37,1.95,11.05,2.92.35.09,1.07-.08,1.17-.49l2.92-11.7-1.4.37,3.13,5.34c.24.41,1.65-.04,1.34-.57l-3.13-5.34c-.24-.4-1.3,0-1.4.37l-2.92,11.7,1.17-.49c-3.68-.97-7.37-1.95-11.05-2.92-.25-.07-1.35.14-1.17.59,1.41,3.36,2.82,6.72,4.22,10.07l.44-.5-8.77,3.57c-.34.14-.68.55-.16.7,3.47.97,6.93,1.95,10.4,2.92.47.13,1.7-.57.89-.79h0Z"/>
  </g>
  <g>
    <path class="st0" d="M1181.85,81.11c.68-1.41-.17-2.95-1.45-3.65-1.19-.65-2.83-.95-4.12-.46-1.28.49-2.25,1.81-1.95,3.22.29,1.36,1.61,1.65,2.72,2.09.1.04.21.05.32.03.06.04.13.06.2.08.86.13,1.75.27,2.6.01.69-.21,1.36-.66,1.68-1.33ZM1180.5,79.9s0,.03,0,.04c0,0,0,.01,0,.02,0,.03,0,.22,0,.21-.01.08-.06.21-.07.23.02-.05-.08.12-.08.12-.23.27-.53.4-.91.46-.48.07-.99,0-1.47-.08-.11-.02-.22-.02-.32,0-.06-.04-.12-.08-.19-.1-.24-.09-.48-.17-.72-.26-.1-.03-.19-.07-.29-.11,0,0-.16-.08-.19-.09-.06-.03-.11-.06-.16-.1,0,0-.01,0-.02,0,0,0,0,0,0,0-.04-.04-.08-.07-.12-.12,0,0,0,0,0,0,0-.01-.05-.08-.06-.09-.01-.03-.02-.06-.03-.09,0-.02-.02-.09-.03-.11,0-.04,0-.09,0-.13,0-.02,0-.05,0-.07,0-.04.02-.09.03-.13.02-.06.07-.22.07-.22.06-.13.15-.26.26-.38.04-.04.08-.08.12-.12,0,0,.04-.04.06-.05.07-.05.15-.1.23-.15.18-.1.37-.15.57-.19.83-.17,1.88.1,2.58.54.3.19.56.46.67.76.03.07.05.15.06.22Z"/>
    <path class="st0" d="M1172.93,82.34c.23-1.2-.29-2.33-1.27-3.02-.84-.59-2.05-.83-3.04-.54-1.1.32-1.86,1.35-1.76,2.51.09,1.13.79,2.18,1.92,2.49.06.02.12.02.18.03.13.03.27.04.4.01.04,0,.06-.01.07-.01.04,0,.09,0,.13,0,.08,0,.17,0,.25,0,.2,0,.39.03.59.05.35.03.69.02,1.03-.05.75-.15,1.36-.71,1.51-1.47ZM1171.33,82.17s0,0,0,0c0,0,0,0,0,0,0,0,0,0,0,0ZM1171.19,82.25s-.02.01,0,0h0ZM1168.83,82.09s.07.05.07.05c-.02,0-.05-.02-.07-.05ZM1168.5,81.6s.02.05.03.07c-.01-.02-.02-.04-.03-.07ZM1170.9,80.71c.06.04.03.02,0,0h0ZM1171.16,80.96s-.02-.02-.02-.03c0,.01.01.02.02.03ZM1171.36,81.43c.01.05.02.11.03.16,0,0,0,0,0,.01,0,.1,0,.19,0,.29,0,.02,0,.08-.01.1,0,.03-.01.05-.02.08,0,.01,0,.02,0,.03-.01.01-.03.04-.04.06-.04.02-.13.09-.02.03,0,0,0,0,0,0-.03.02-.06.03-.08.05-.04.01-.09.03-.13.04-.04.01-.08.02-.12.03,0,0,0,0-.01,0-.11,0-.21,0-.32,0-.5-.02-.97-.09-1.46-.04-.02,0-.06-.02-.1-.03-.03-.01-.06-.03-.07-.03-.05-.03-.09-.06-.14-.09-.03-.02-.04-.02-.05-.03-.05-.05-.1-.13-.14-.16,0,0,0,0,0,0,0,0,0,0-.01-.01-.02-.04-.05-.08-.07-.12-.03-.05-.05-.1-.08-.15-.02-.04-.03-.05-.03-.05-.02-.07-.04-.16-.05-.21,0-.01-.01-.07-.02-.1,0-.02,0-.04,0-.05,0-.05-.03-.25,0-.28-.02.12-.02.13,0,.04,0-.02,0-.04.01-.05.01-.05.02-.09.04-.13,0-.02.01-.04.02-.07,0,0,.01-.02.02-.03.02-.04.05-.08.07-.12,0-.02.02-.03.02-.04.04-.04.1-.09.12-.1,0,0,0,0,.01,0,.04-.02.08-.05.11-.07.01,0,.04-.02.06-.04,0,0,.01,0,.02,0,.09-.03.17-.05.27-.07.01,0,.03,0,.05-.01,0,0,0,0,.02,0,.15,0,.37-.04.53,0,.01,0,.03,0,.04.01.05.01.1.02.14.03.09.02.17.04.25.07.06.02.11.04.17.06,0,0,0,0,0,0,0,0,0,0,0,0,.07.04.15.07.22.11.08.05.16.1.24.15.03.03.06.05.09.08.04.04.11.09.16.15,0,0,0,.02.03.05.02.04.05.08.07.12.02.04.04.08.07.12,0,.01.02.02.02.03.02.06.03.13.05.18Z"/>
    <path class="st0" d="M1217.55,60.38c.34-1.3.53-2.67.42-4.02-.19-2.25-1.27-4.48-3.27-5.63.21-1.26.16-2.55-.15-3.8-.65-2.59-2.43-4.89-4.88-6-2.3-1.04-4.92-1.14-7.26-.25-.72-.77-1.51-1.47-2.38-2.07-1.76-1.2-3.89-1.94-6.04-1.86-1.94.07-3.86.77-5.3,2.09-2.2-1.25-4.86-1.92-7.33-1.19-2.12.63-4.02,2.28-4.61,4.45-1.16-.07-2.34.02-3.47.27-2.23.51-4.27,1.72-5.66,3.55-1.21,1.59-1.82,3.54-1.71,5.51-1.64,1.52-2.38,3.87-1.94,6.06.4,2,1.82,3.66,3.64,4.53-.62,1.96-.31,4.23.86,5.92,1.13,1.62,2.88,2.67,4.82,2.94.08,1.53,1.62,2.95,2.86,3.61,1.45.76,3.17,1,4.75.55.48,1.77,2.12,2.85,3.75,3.58.03.01.06.02.1.04.08.07.17.11.28.13,2,.32,4.66.04,6.07-1.59.65.54,1.56.81,2.36,1,2.4.58,4.95.48,7.22-.53,1.89-.84,3.53-2.38,4.36-4.29,2.19.31,4.5-.41,6.06-2,1.5-1.53,2.19-3.74,1.93-5.84,1.12-.23,2.12-.85,2.86-1.73.83-.99,1.34-2.19,1.67-3.44ZM1182.33,73.98c.08-1.16,1.34-1.89,2.4-1.95,1.49-.09,3.14.55,4.34,1.39.98.68,1.68,2.08.58,2.99-1.09.9-2.86,1.07-4.21.86,0,0,0,0-.01,0-1.32-.59-3.23-1.56-3.1-3.28ZM1216.35,58.33c-.26,2.19-1.27,5.53-3.93,5.74,0,0,0,0,0,0-.53-.23-1.31.19-1.11.91.51,1.85.02,3.93-1.33,5.3-1.35,1.38-3.42,1.92-5.27,1.45-.58-.15-.95.31-.98.77-.02.02-.03.05-.05.08-.91,2.11-2.8,3.58-5,4.15-1.31.34-2.71.36-4.04.13-.62-.11-1.25-.25-1.84-.47-.43-.16-.8-.38-.99-.81.04-.45-.02-.91-.17-1.34-.34-.96-1.02-1.68-1.86-2.23-.85-.56-1.85-.97-2.82-1.25-.99-.29-2.05-.39-3.07-.17-1.44.32-2.74,1.44-3.05,2.87-.05,0-.09.01-.13.03-1.18.38-2.47.29-3.59-.25-.61-.29-1.09-.65-1.54-1.14-.34-.38-.85-1.01-.67-1.58.17-.53-.21-.89-.63-.96-.13-.1-.3-.16-.48-.18-1.59-.11-3.15-.98-4.03-2.31-.99-1.49-1.14-3.35-.49-5.01.09-.23.02-.47-.13-.66-.05-.29-.27-.52-.57-.63-1.57-.59-2.76-2.03-3.09-3.67-.32-1.6.28-3.27,1.42-4.41.01,0,.03,0,.04,0,.45-.12.61-.55.55-.97-.33-2.32.86-4.68,2.63-6.12,1.93-1.58,4.55-2.08,6.99-1.86.18.02.34-.05.47-.16.28-.07.53-.26.58-.55.33-1.91,1.89-3.34,3.72-3.85,2.28-.63,4.7.19,6.62,1.43.51.33.99-.02,1.12-.47,1.56-1.5,3.87-2.07,5.98-1.68,2.26.42,4.19,1.73,5.72,3.4.02.08.04.15.08.22.13.22.34.34.57.37.28.09.62.01.82-.19.02-.02.03-.03.04-.05,1.06-.44,2.22-.6,3.36-.54,2.2.13,4.33,1.22,5.6,3.04,1.27,1.81,1.77,4.12,1.24,6.27-.11.47.17.8.52.93.03.02.05.04.08.05,2.35,1.19,2.99,3.94,2.71,6.37Z"/>
  </g>
  <g>
    <path class="st0" d="M492.16,487.01c-.86.38-.37,1.65.51,1.51,4.6-.72,8.96-2.56,12.72-5.3.35-.26.35-.82.09-1.14-.3-.35-.78-.34-1.14-.09-2.3,1.68-4.85,2.97-7.54,3.86.13-.14.25-.27.37-.42,1.06-1.32,1.62-3.15,1.18-4.82-.11-.42-.5-.72-.94-.64-.41.08-.75.52-.64.94.81,3.03-2.25,5.03-4.6,6.07Z"/>
    <path class="st0" d="M476.75,477.82c-.14-1.03-1.72-.72-1.58.31.34,2.45,2.56,4.13,4.84,4.7,1.4.35,2.83.4,4.26.41,1.43.01,2.86.02,4.29-.04,1.65-.07,3.3-.21,4.93-.52,1.02-.19.71-1.77-.31-1.58-2.57.49-5.19.55-7.8.54-2.31,0-4.97.14-6.95-1.25-.88-.62-1.53-1.49-1.68-2.57Z"/>
    <path class="st0" d="M469.77,470.23c.78,1.59,2.11,2.95,3.82,3.5.99.32,1.53-1.2.54-1.52-2.8-.91-3.68-4.07-3.83-6.7-.09-1.57.05-3.05,1.01-4.35.82-1.12,1.94-2.07,3.1-2.83,1.33-.87,2.8-1.5,4.35-1.88,1-.24.7-1.82-.31-1.58-3.19.77-6.25,2.56-8.3,5.15-1.15,1.46-1.53,3.16-1.47,4.99.06,1.78.29,3.59,1.08,5.2Z"/>
    <path class="st0" d="M482.01,453.06c.48.04.77-.31.86-.74.22-1.04,1.08-1.83,1.9-2.42,1-.72,2.16-1.26,3.28-1.77,2.44-1.13,5-2.01,7.65-2.5,4.85-.91,10-.43,14.33,2.05,2.25,1.28,4.24,3.04,5.61,5.24.23.37.66.58,1.08.37.36-.18.6-.71.37-1.08-2.78-4.45-7.5-7.23-12.59-8.23-5.64-1.11-11.54.18-16.71,2.5-2.62,1.17-5.88,2.63-6.53,5.73-.09.43.35.83.74.86Z"/>
    <path class="st0" d="M521.93,455.13c3.2-.44,6.29,1.35,8.44,3.58,2.07,2.15,3.74,5.11,3.1,8.19-.3,1.46-1.13,2.88-2.43,3.66-.37.22-.57.66-.37,1.08.18.37.7.6,1.08.37,3.05-1.82,4.08-5.71,3.1-9-1.05-3.51-3.86-6.59-7.08-8.27-1.9-.99-4-1.49-6.14-1.19-1.03.14-.72,1.72.31,1.58Z"/>
    <path class="st0" d="M510.12,483.9c-.84-.61-1.75.72-.92,1.32,1.44,1.04,3.34,1.25,5.07,1.3,1.74.05,3.5-.14,5.19-.56,3.31-.83,6.61-2.53,8.94-5.07,1.33-1.46,2.38-3.3,2.29-5.33-.02-.43-.27-.83-.74-.86-.39-.03-.88.3-.86.74.14,3.12-2.7,5.51-5.14,6.96-2.64,1.57-5.69,2.47-8.76,2.52-1.66.02-3.66-.01-5.06-1.02Z"/>
  </g>
  <g>
    <path class="st0" d="M1354.16,507.23c.9.26.59,1.59-.3,1.57-4.65-.11-9.22-1.35-13.3-3.57-.38-.21-.46-.77-.23-1.11.25-.39.73-.44,1.11-.23,2.5,1.36,5.2,2.31,7.99,2.83-.14-.12-.29-.24-.42-.37-1.23-1.17-2.02-2.91-1.8-4.62.06-.43.4-.78.85-.75.41.02.81.42.75.85-.4,3.11,2.89,4.69,5.36,5.41Z"/>
    <path class="st0" d="M1368.23,496.1c0-1.04,1.61-.94,1.61.1-.02,2.47-2,4.43-4.18,5.3-1.34.53-2.75.77-4.17.97-1.42.2-2.84.39-4.26.53-1.65.15-3.3.23-4.96.14-1.03-.06-.94-1.66.1-1.61,2.61.14,5.21-.14,7.8-.49,2.29-.31,4.95-.51,6.73-2.16.79-.73,1.32-1.68,1.33-2.77Z"/>
    <path class="st0" d="M1374.14,487.65c-.56,1.68-1.71,3.2-3.33,3.98-.93.45-1.68-.98-.74-1.43,2.66-1.27,3.11-4.52,2.91-7.15-.12-1.57-.45-3.01-1.57-4.18-.96-1-2.2-1.8-3.45-2.4-1.43-.69-2.98-1.12-4.55-1.29-1.03-.11-.94-1.72.1-1.61,3.27.34,6.53,1.71,8.9,4.01,1.33,1.29,1.93,2.94,2.11,4.76.18,1.77.18,3.59-.39,5.3Z"/>
    <path class="st0" d="M1359.75,472.25c-.47.1-.81-.21-.95-.62-.35-1-1.31-1.67-2.2-2.15-1.09-.58-2.3-.96-3.48-1.33-2.57-.8-5.22-1.33-7.91-1.47-4.93-.26-9.97.89-13.94,3.92-2.06,1.57-3.8,3.57-4.87,5.94-.18.4-.58.66-1.02.51-.38-.13-.69-.62-.51-1.02,2.17-4.78,6.48-8.16,11.39-9.82,5.45-1.84,11.46-1.34,16.89.27,2.75.82,6.17,1.83,7.23,4.82.14.41-.24.87-.62.95Z"/>
    <path class="st0" d="M1320.45,479.56c-3.23-.02-6.06,2.17-7.9,4.66-1.77,2.4-3.03,5.56-1.99,8.53.49,1.41,1.5,2.71,2.89,3.31.4.17.66.58.51,1.02-.13.39-.62.68-1.02.51-3.26-1.4-4.8-5.12-4.26-8.52.58-3.62,2.96-7.04,5.93-9.13,1.75-1.23,3.77-2,5.93-1.99,1.04,0,.94,1.61-.1,1.61Z"/>
    <path class="st0" d="M1335.94,506.51c.75-.72,1.83.48,1.08,1.19-1.29,1.22-3.15,1.68-4.85,1.95-1.72.28-3.48.33-5.21.13-3.39-.38-6.89-1.64-9.53-3.85-1.51-1.27-2.8-2.95-2.97-4.98-.04-.43.16-.86.62-.95.39-.08.92.19.95.62.27,3.11,3.41,5.11,6.02,6.22,2.82,1.21,5.97,1.7,9.02,1.34,1.64-.19,3.63-.49,4.88-1.68Z"/>
  </g>
  <g>
    <path class="st0" d="M357.1,439.3c.47.44.95.88,1.42,1.32l.2.19c.1.1.25.13.39.13.18,0,.4-.04.57-.11.14-.06.31-.15.39-.28.05-.09.09-.22,0-.3-.47-.44-.95-.88-1.42-1.32l-.2-.19c-.1-.1-.25-.13-.39-.13-.18,0-.4.04-.57.11-.14.06-.31.15-.39.28-.05.09-.09.22,0,.3h0Z"/>
    <path class="st0" d="M351.21,459.29c-3.6.07-7.2.13-10.8.2l.3.54c2.46-1.98,4.91-3.97,7.37-5.95.12-.1.2-.27.09-.41-2.32-2.81-4.63-5.62-6.95-8.43l-.95.7c3.81-.13,7.62-.26,11.42-.39.34-.01,1.03-.15,1.01-.61-.19-4.02-.38-8.03-.58-12.05l-1.4.48c1.51,1.4,3.02,2.81,4.54,4.21.38.35,1.74-.2,1.34-.57-1.51-1.4-3.02-2.81-4.54-4.21-.34-.32-1.42-.06-1.4.48.19,4.02.38,8.03.58,12.05l1.01-.61c-3.81.13-7.62.26-11.42.39-.25,0-1.31.27-.95.7,2.32,2.81,4.63,5.62,6.95,8.43l.09-.41c-2.46,1.98-4.91,3.97-7.37,5.95-.34.27-.02.54.3.54,3.6-.07,7.2-.13,10.8-.2.55-.01,1.53-.85.56-.83h0Z"/>
  </g>
  <path class="st0" d="M1231.89,393.19c-.8.1-1.13.14-1.46.19-2.27.34-2.26.02-3.14,2.46-.42,1.16-1.05,2.25-1.63,3.35-.09.16-.42.3-.62.28-.2-.02-.45-.22-.55-.41-.52-.97-.62-2.05-.77-3.12-.12-.9-.28-1.8-.47-2.69-.09-.43-.5-.67-.94-.63-1.41.11-2.81.24-4.21.34-.32.02-.65-.03-.98-.07-.26-.03-.51-.57-.38-.8.49-.89,1.11-1.66,2.03-2.12.59-.3,1.18-.61,1.81-.84.91-.34,1.24-1.01,1.27-1.91.04-1.24.05-2.49.17-3.72.09-.9.29-1.8.52-2.68.18-.7,1.05-.89,1.6-.38.3.28.58.59.84.91.31.39.58.81.88,1.2.6.76.9,2.01,1.93,2.11.92.1,1.36-1.09,2.11-1.59.75-.5,1.4-1.2,2.34-1.36.22-.04.53.04.67.19.13.14.19.48.11.66-.77,1.83-1.57,3.65-2.36,5.48-.23.53-.13.96.34,1.32.79.6,1.61,1.17,2.41,1.77.26.2.49.45.71.7.23.27.33.6.11.91-.13.18-.37.37-.57.39-.74.07-1.49.07-1.76.08ZM1225.64,395.61c.12-.1.3-.19.35-.32.29-.68.53-1.39.83-2.07.21-.47.58-.79,1.12-.87.9-.14,1.8-.28,2.69-.45.13-.02.28-.18.32-.31.04-.13-.03-.31-.08-.46-.02-.07-.11-.12-.17-.17-2.26-1.66-2.12-2.01-.92-4.28.22-.43.34-.91.49-1.38.01-.04-.07-.14-.13-.18-.06-.04-.18-.08-.22-.05-.44.36-.87.74-1.31,1.1-.67.56-1.1.56-1.71-.09-.45-.48-.85-1.01-1.25-1.53-.58-.74-.82-1.85-2.04-1.91-.57.8-.38,1.75-.45,2.64-.09,1.06-.17,2.14.22,3.19.18.49-.11.98-.59,1.2-.75.33-1.52.64-2.27.98-.14.06-.23.23-.34.34.2.12.4.33.6.34.49.01.99-.07,1.48-.12,1.6-.15,2.04.16,2.4,1.74.07.32.08.66.16.98.12.48.25.95.43,1.42.04.12.25.18.38.26Z"/>
  <g>
    <path class="st0" d="M207.13,321.82c-.1.22-.17.53-.36.75-.09.1-.47.11-.59,0-.58-.48-1.17-.96-1.65-1.53-1.74-2.09-3.39-4.24-5.14-6.31-2.18-2.57-4.43-5.08-6.63-7.63-.34-.4-.59-.88-.86-1.33-.04-.07,0-.26.06-.3.16-.11.38-.26.53-.23.3.08.62.22.85.43.65.58,1.27,1.19,1.87,1.81,4.15,4.31,8.09,8.79,11.55,13.68.12.17.22.37.38.65Z"/>
    <path class="st0" d="M221.42,300.03c1.11,2.22,2.2,4.36,3.25,6.51.18.37.23.82.25,1.24,0,.17-.19.41-.35.5-.16.08-.43.06-.61,0-.19-.07-.4-.23-.49-.4-2.56-4.81-5.03-9.66-6.84-14.81-.11-.3-.13-.63-.17-.96,0-.08.08-.22.15-.24.19-.06.47-.18.59-.1.92.65,1.43,1.59,1.85,2.63.77,1.92,1.6,3.81,2.37,5.64Z"/>
    <path class="st0" d="M248.76,302.47c-.28-.05-.58,0-.67-.12-.25-.34-.54-.73-.58-1.12-.19-1.85-.41-3.7-.41-5.55,0-2.95.14-5.9.24-8.85.01-.43.11-.86.24-1.27.05-.17.28-.36.45-.39.17-.02.46.1.53.25.18.38.38.81.38,1.22.03,1.64.08,3.28-.03,4.91-.16,2.52-.12,5.02.16,7.53.1.87.13,1.74.11,2.61,0,.27-.29.53-.43.78Z"/>
    <path class="st0" d="M201.14,334.39c-.28.04-.6.16-.9.11-1.5-.24-3.02-.43-4.47-.83-1.56-.43-3.07-1.08-4.59-1.67-.11-.04-.19-.39-.14-.54.06-.17.28-.4.43-.41.53-.02,1.1-.05,1.6.1,2.5.77,5,1.52,7.61,1.79.2.02.42.15.56.3.14.14.26.38.25.56-.01.18-.2.36-.34.59Z"/>
    <path class="st0" d="M236.54,298.21c.22.93.52,2.16.79,3.4.1.46-.2.73-.6.79-.22.03-.58-.05-.68-.21-.79-1.33-1.34-2.74-1.31-4.31,0-.21.18-.51.36-.6.18-.09.5-.01.69.1.21.12.34.36.74.83Z"/>
    <path class="st0" d="M213.38,308.94c.15.45,1.76,3.23,1.7,3.38-.1.24-.39.62-.55.6-1.11-.17-3.3-3.95-2.91-4.93.04-.11.43-.23.52-.16.49.39.94.83,1.24,1.1Z"/>
  </g>
  <path class="st0" d="M362.97,275.4c.14.82.25,1.28.3,1.75.16,1.25.84,2.19,1.79,2.95,1.93,1.53,4.12,2.27,6.58,2.19.63-.02,1.26-.06,1.88-.01.18.01.42.25.48.43.06.18-.01.47-.14.64-.18.25-.44.46-.7.62-1.14.7-2.27,1.41-3.45,2.05-.89.48-1.44,1.2-1.88,2.05-.26.5-.35,1.03-.25,1.6.47,2.72,1,5.42,2.16,7.96.29.63.73,1.26.56,2.01-.04.19-.27.37-.46.48-.09.05-.35-.02-.4-.12-.4-.67-.87-1.33-1.12-2.06-.59-1.73-1.5-3.29-2.34-4.89-.69-1.3-1.77-2.27-2.95-2.99-1.47-.9-3.16-1.42-4.96-1.27-.94.08-1.87.24-2.81.32-.18.01-.42-.18-.55-.34-.18-.22-.02-.64.28-.78.5-.23,1.02-.42,1.52-.66.85-.42,1.68-.85,2.52-1.3,1.63-.87,2.51-2.36,3.19-3.98.41-.97.32-2.01.07-3.02-.66-2.68-1.32-5.36-1.96-8.04-.09-.37-.08-.76-.06-1.14,0-.1.2-.24.33-.27.13-.02.29.06.42.13.06.03.11.12.13.19.64,1.94,1.29,3.88,1.81,5.48ZM370.13,283.93c-.15-.11-.3-.32-.48-.35-1.57-.28-3.02-.82-4.29-1.82-.24-.19-.55-.33-.85-.4-.19-.04-.47.04-.62.17-.16.14-.24.4-.32.62-.69,1.79-1.63,3.4-3.23,4.54-.12.09-.25.22-.29.35-.04.12,0,.35.07.4.26.16.54.3.83.39,1.59.5,3.09,1.16,4.3,2.35.06.05.1.14.17.16.21.08.46.23.62.17.15-.06.3-.35.31-.54.05-.77-.18-1.57.22-2.32.57-1.05,1.25-2,2.3-2.63.34-.2.69-.37,1.01-.6.11-.08.14-.26.24-.48Z"/>
  <path class="st0" d="M446.62,317.54c-.03.28.34.63.61.58.61-.12,1.22-.29,1.83-.41.31-.06.63-.09.94-.04.19.03.45.22.5.39.04.14-.14.46-.29.52-.58.23-1.2.37-1.79.57-.9.3-.95.54-.34,1.26.15.17.75.94.85,1.14.05.12.02.33-.06.43-.08.1-.28.17-.41.14-.3-.06-1.05-.75-1.33-.88-1.16-.58-1.34-.1-1.56.89-.16.69-.61,3.73-.77,4.42-.05.22-.15.45-.29.63-.07.1-.27.18-.39.16-.13-.02-.29-.15-.35-.27-.09-.21-.16-.45-.14-.67.04-.47.52-3.27.58-3.74.18-1.32.12-1.36-1.35-1.21-.23.02-1.18.27-1.4.22-.13-.03-.29-.16-.34-.28-.04-.11,0-.33.09-.4.29-.25,1.33-.7,1.64-.92.19-.13.4-.25.59-.38.23-.17.25-.63.03-.84-.52-.48-1.06-.94-1.56-1.44-.16-.15-.23-.4-.32-.61-.02-.06.02-.17.06-.22.04-.05.16-.11.2-.08.47.25.95.5,1.41.78.33.2.63.46.96.67.34.22.8.06.95-.36.32-.89.85-4.05,1.17-4.93.11-.29.26-.57.44-.82.07-.09.29-.14.41-.1.11.03.26.22.25.31-.06.46-.41,3.19-.51,3.65-.03,0-.27,1.22-.34,1.85Z"/>
</svg>