<?xml version="1.0" encoding="UTF-8"?>
<svg id="_レイヤー_1" data-name="レイヤー_1" xmlns="http://www.w3.org/2000/svg" xmlns:xlink="http://www.w3.org/1999/xlink" version="1.1" viewBox="0 0 1470 620">
  <!-- Generator: Adobe Illustrator 30.0.0, SVG Export Plug-In . SVG Version: 2.1.1 Build 123)  -->
  <defs>
    <style>
      .st0, .st1, .st2, .st3, .st4, .st5 {
        fill: none;
      }

      .st6 {
        fill: #ceb372;
      }

      .st1 {
        stroke-linecap: round;
        stroke-linejoin: round;
      }

      .st1, .st3, .st4, .st5 {
        stroke: #ceb372;
      }

      .st7 {
        fill: url(#_新規パターンスウォッチ_12);
      }

      .st8 {
        fill: url(#_新規パターンスウォッチ_11);
      }

      .st9 {
        fill: url(#_新規パターンスウォッチ_51);
      }

      .st2 {
        stroke: #fff;
      }

      .st2, .st4 {
        stroke-width: 9.6px;
      }

      .st10 {
        fill: #fff;
      }

      .st11 {
        fill: url(#_新規パターンスウォッチ_5);
      }

      .st12 {
        fill: url(#_新規パターンスウォッチ_4);
      }

      .st13 {
        fill: url(#_新規パターンスウォッチ_3);
      }

      .st14 {
        fill: url(#_新規パターンスウォッチ_1);
      }

      .st3, .st5 {
        stroke-miterlimit: 10;
      }

      .st5 {
        stroke-width: 2.55px;
      }
    </style>
    <pattern id="_新規パターンスウォッチ_5" data-name=" 新規パターンスウォッチ 5" x="0" y="0" width="72" height="72" patternTransform="translate(-2145.77 -12749.02) scale(.85 -.85)" patternUnits="userSpaceOnUse" viewBox="0 0 72 72">
      <g>
        <rect class="st0" width="72" height="72"/>
        <g>
          <rect class="st0" width="72" height="72"/>
          <g>
            <line class="st2" x1="71.75" y1="6" x2="144.25" y2="6"/>
            <line class="st2" x1="71.75" y1="30" x2="144.25" y2="30"/>
            <line class="st2" x1="71.75" y1="54" x2="144.25" y2="54"/>
            <line class="st2" x1="71.75" y1="18" x2="144.25" y2="18"/>
            <line class="st2" x1="71.75" y1="42" x2="144.25" y2="42"/>
            <line class="st2" x1="71.75" y1="66" x2="144.25" y2="66"/>
          </g>
          <g>
            <line class="st2" x1="-.25" y1="6" x2="72.25" y2="6"/>
            <line class="st2" x1="-.25" y1="30" x2="72.25" y2="30"/>
            <line class="st2" x1="-.25" y1="54" x2="72.25" y2="54"/>
            <line class="st2" x1="-.25" y1="18" x2="72.25" y2="18"/>
            <line class="st2" x1="-.25" y1="42" x2="72.25" y2="42"/>
            <line class="st2" x1="-.25" y1="66" x2="72.25" y2="66"/>
          </g>
          <g>
            <line class="st2" x1="-72.25" y1="6" x2=".25" y2="6"/>
            <line class="st2" x1="-72.25" y1="30" x2=".25" y2="30"/>
            <line class="st2" x1="-72.25" y1="54" x2=".25" y2="54"/>
            <line class="st2" x1="-72.25" y1="18" x2=".25" y2="18"/>
            <line class="st2" x1="-72.25" y1="42" x2=".25" y2="42"/>
            <line class="st2" x1="-72.25" y1="66" x2=".25" y2="66"/>
          </g>
        </g>
      </g>
    </pattern>
    <pattern id="_新規パターンスウォッチ_4" data-name=" 新規パターンスウォッチ 4" x="0" y="0" width="72" height="72" patternTransform="translate(-27324.82 14631.09) rotate(-180) scale(.85 -.85)" patternUnits="userSpaceOnUse" viewBox="0 0 72 72">
      <g>
        <rect class="st0" width="72" height="72"/>
        <g>
          <rect class="st0" width="72" height="72"/>
          <g>
            <line class="st4" x1="71.75" y1="6" x2="144.25" y2="6"/>
            <line class="st4" x1="71.75" y1="30" x2="144.25" y2="30"/>
            <line class="st4" x1="71.75" y1="54" x2="144.25" y2="54"/>
            <line class="st4" x1="71.75" y1="18" x2="144.25" y2="18"/>
            <line class="st4" x1="71.75" y1="42" x2="144.25" y2="42"/>
            <line class="st4" x1="71.75" y1="66" x2="144.25" y2="66"/>
          </g>
          <g>
            <line class="st4" x1="-.25" y1="6" x2="72.25" y2="6"/>
            <line class="st4" x1="-.25" y1="30" x2="72.25" y2="30"/>
            <line class="st4" x1="-.25" y1="54" x2="72.25" y2="54"/>
            <line class="st4" x1="-.25" y1="18" x2="72.25" y2="18"/>
            <line class="st4" x1="-.25" y1="42" x2="72.25" y2="42"/>
            <line class="st4" x1="-.25" y1="66" x2="72.25" y2="66"/>
          </g>
          <g>
            <line class="st4" x1="-72.25" y1="6" x2=".25" y2="6"/>
            <line class="st4" x1="-72.25" y1="30" x2=".25" y2="30"/>
            <line class="st4" x1="-72.25" y1="54" x2=".25" y2="54"/>
            <line class="st4" x1="-72.25" y1="18" x2=".25" y2="18"/>
            <line class="st4" x1="-72.25" y1="42" x2=".25" y2="42"/>
            <line class="st4" x1="-72.25" y1="66" x2=".25" y2="66"/>
          </g>
        </g>
      </g>
    </pattern>
    <pattern id="_新規パターンスウォッチ_1" data-name=" 新規パターンスウォッチ 1" x="0" y="0" width="48" height="48" patternTransform="translate(-7725.09 -6815.42) scale(.48 -.48)" patternUnits="userSpaceOnUse" viewBox="0 0 48 48">
      <g>
        <rect class="st0" width="48" height="48"/>
        <g>
          <rect class="st0" width="48" height="48"/>
          <g>
            <path class="st6" d="M24-4.8c2.65,0,4.8,2.15,4.8,4.8s-2.15,4.8-4.8,4.8-4.8-2.15-4.8-4.8,2.15-4.8,4.8-4.8Z"/>
            <path class="st6" d="M48-4.8c2.65,0,4.8,2.15,4.8,4.8s-2.15,4.8-4.8,4.8-4.8-2.15-4.8-4.8,2.15-4.8,4.8-4.8Z"/>
            <path class="st6" d="M24,19.2c2.65,0,4.8,2.15,4.8,4.8s-2.15,4.8-4.8,4.8-4.8-2.15-4.8-4.8,2.15-4.8,4.8-4.8Z"/>
            <path class="st6" d="M48,19.2c2.65,0,4.8,2.15,4.8,4.8s-2.15,4.8-4.8,4.8-4.8-2.15-4.8-4.8,2.15-4.8,4.8-4.8Z"/>
            <path class="st6" d="M36,7.2c2.65,0,4.8,2.15,4.8,4.8s-2.15,4.8-4.8,4.8-4.8-2.15-4.8-4.8,2.15-4.8,4.8-4.8Z"/>
            <path class="st6" d="M12,7.2c2.65,0,4.8,2.15,4.8,4.8s-2.15,4.8-4.8,4.8-4.8-2.15-4.8-4.8,2.15-4.8,4.8-4.8Z"/>
            <path class="st6" d="M36,31.2c2.65,0,4.8,2.15,4.8,4.8s-2.15,4.8-4.8,4.8-4.8-2.15-4.8-4.8,2.15-4.8,4.8-4.8Z"/>
            <path class="st6" d="M12,31.2c2.65,0,4.8,2.15,4.8,4.8s-2.15,4.8-4.8,4.8-4.8-2.15-4.8-4.8,2.15-4.8,4.8-4.8Z"/>
          </g>
          <g>
            <path class="st6" d="M0-4.8c2.65,0,4.8,2.15,4.8,4.8S2.65,4.8,0,4.8-4.8,2.65-4.8,0-2.65-4.8,0-4.8Z"/>
            <path class="st6" d="M0,19.2c2.65,0,4.8,2.15,4.8,4.8s-2.15,4.8-4.8,4.8-4.8-2.15-4.8-4.8,2.15-4.8,4.8-4.8Z"/>
          </g>
          <g>
            <path class="st6" d="M24,43.2c2.65,0,4.8,2.15,4.8,4.8s-2.15,4.8-4.8,4.8-4.8-2.15-4.8-4.8,2.15-4.8,4.8-4.8Z"/>
            <path class="st6" d="M48,43.2c2.65,0,4.8,2.15,4.8,4.8s-2.15,4.8-4.8,4.8-4.8-2.15-4.8-4.8,2.15-4.8,4.8-4.8Z"/>
          </g>
          <path class="st6" d="M0,43.2c2.65,0,4.8,2.15,4.8,4.8s-2.15,4.8-4.8,4.8-4.8-2.15-4.8-4.8,2.15-4.8,4.8-4.8Z"/>
        </g>
      </g>
    </pattern>
    <pattern id="_新規パターンスウォッチ_11" data-name=" 新規パターンスウォッチ 11" x="0" y="0" width="48" height="48" patternTransform="translate(-10518.28 -3817.34) scale(.29 -.29)" patternUnits="userSpaceOnUse" viewBox="0 0 48 48">
      <g>
        <rect class="st0" width="48" height="48"/>
        <g>
          <rect class="st0" width="48" height="48"/>
          <g>
            <path class="st6" d="M24-4.8c2.65,0,4.8,2.15,4.8,4.8s-2.15,4.8-4.8,4.8-4.8-2.15-4.8-4.8,2.15-4.8,4.8-4.8Z"/>
            <path class="st6" d="M48-4.8c2.65,0,4.8,2.15,4.8,4.8s-2.15,4.8-4.8,4.8-4.8-2.15-4.8-4.8,2.15-4.8,4.8-4.8Z"/>
            <path class="st6" d="M24,19.2c2.65,0,4.8,2.15,4.8,4.8s-2.15,4.8-4.8,4.8-4.8-2.15-4.8-4.8,2.15-4.8,4.8-4.8Z"/>
            <path class="st6" d="M48,19.2c2.65,0,4.8,2.15,4.8,4.8s-2.15,4.8-4.8,4.8-4.8-2.15-4.8-4.8,2.15-4.8,4.8-4.8Z"/>
            <path class="st6" d="M36,7.2c2.65,0,4.8,2.15,4.8,4.8s-2.15,4.8-4.8,4.8-4.8-2.15-4.8-4.8,2.15-4.8,4.8-4.8Z"/>
            <path class="st6" d="M12,7.2c2.65,0,4.8,2.15,4.8,4.8s-2.15,4.8-4.8,4.8-4.8-2.15-4.8-4.8,2.15-4.8,4.8-4.8Z"/>
            <path class="st6" d="M36,31.2c2.65,0,4.8,2.15,4.8,4.8s-2.15,4.8-4.8,4.8-4.8-2.15-4.8-4.8,2.15-4.8,4.8-4.8Z"/>
            <path class="st6" d="M12,31.2c2.65,0,4.8,2.15,4.8,4.8s-2.15,4.8-4.8,4.8-4.8-2.15-4.8-4.8,2.15-4.8,4.8-4.8Z"/>
          </g>
          <g>
            <path class="st6" d="M0-4.8c2.65,0,4.8,2.15,4.8,4.8S2.65,4.8,0,4.8-4.8,2.65-4.8,0-2.65-4.8,0-4.8Z"/>
            <path class="st6" d="M0,19.2c2.65,0,4.8,2.15,4.8,4.8s-2.15,4.8-4.8,4.8-4.8-2.15-4.8-4.8,2.15-4.8,4.8-4.8Z"/>
          </g>
          <g>
            <path class="st6" d="M24,43.2c2.65,0,4.8,2.15,4.8,4.8s-2.15,4.8-4.8,4.8-4.8-2.15-4.8-4.8,2.15-4.8,4.8-4.8Z"/>
            <path class="st6" d="M48,43.2c2.65,0,4.8,2.15,4.8,4.8s-2.15,4.8-4.8,4.8-4.8-2.15-4.8-4.8,2.15-4.8,4.8-4.8Z"/>
          </g>
          <path class="st6" d="M0,43.2c2.65,0,4.8,2.15,4.8,4.8s-2.15,4.8-4.8,4.8-4.8-2.15-4.8-4.8,2.15-4.8,4.8-4.8Z"/>
        </g>
      </g>
    </pattern>
    <pattern id="_新規パターンスウォッチ_12" data-name=" 新規パターンスウォッチ 12" x="0" y="0" width="48" height="48" patternTransform="translate(-10518.28 -3817.34) scale(.29 -.29)" patternUnits="userSpaceOnUse" viewBox="0 0 48 48">
      <g>
        <rect class="st0" width="48" height="48"/>
        <g>
          <rect class="st0" width="48" height="48"/>
          <g>
            <path class="st6" d="M24-4.8c2.65,0,4.8,2.15,4.8,4.8s-2.15,4.8-4.8,4.8-4.8-2.15-4.8-4.8,2.15-4.8,4.8-4.8Z"/>
            <path class="st6" d="M48-4.8c2.65,0,4.8,2.15,4.8,4.8s-2.15,4.8-4.8,4.8-4.8-2.15-4.8-4.8,2.15-4.8,4.8-4.8Z"/>
            <path class="st6" d="M24,19.2c2.65,0,4.8,2.15,4.8,4.8s-2.15,4.8-4.8,4.8-4.8-2.15-4.8-4.8,2.15-4.8,4.8-4.8Z"/>
            <path class="st6" d="M48,19.2c2.65,0,4.8,2.15,4.8,4.8s-2.15,4.8-4.8,4.8-4.8-2.15-4.8-4.8,2.15-4.8,4.8-4.8Z"/>
            <path class="st6" d="M36,7.2c2.65,0,4.8,2.15,4.8,4.8s-2.15,4.8-4.8,4.8-4.8-2.15-4.8-4.8,2.15-4.8,4.8-4.8Z"/>
            <path class="st6" d="M12,7.2c2.65,0,4.8,2.15,4.8,4.8s-2.15,4.8-4.8,4.8-4.8-2.15-4.8-4.8,2.15-4.8,4.8-4.8Z"/>
            <path class="st6" d="M36,31.2c2.65,0,4.8,2.15,4.8,4.8s-2.15,4.8-4.8,4.8-4.8-2.15-4.8-4.8,2.15-4.8,4.8-4.8Z"/>
            <path class="st6" d="M12,31.2c2.65,0,4.8,2.15,4.8,4.8s-2.15,4.8-4.8,4.8-4.8-2.15-4.8-4.8,2.15-4.8,4.8-4.8Z"/>
          </g>
          <g>
            <path class="st6" d="M0-4.8c2.65,0,4.8,2.15,4.8,4.8S2.65,4.8,0,4.8-4.8,2.65-4.8,0-2.65-4.8,0-4.8Z"/>
            <path class="st6" d="M0,19.2c2.65,0,4.8,2.15,4.8,4.8s-2.15,4.8-4.8,4.8-4.8-2.15-4.8-4.8,2.15-4.8,4.8-4.8Z"/>
          </g>
          <g>
            <path class="st6" d="M24,43.2c2.65,0,4.8,2.15,4.8,4.8s-2.15,4.8-4.8,4.8-4.8-2.15-4.8-4.8,2.15-4.8,4.8-4.8Z"/>
            <path class="st6" d="M48,43.2c2.65,0,4.8,2.15,4.8,4.8s-2.15,4.8-4.8,4.8-4.8-2.15-4.8-4.8,2.15-4.8,4.8-4.8Z"/>
          </g>
          <path class="st6" d="M0,43.2c2.65,0,4.8,2.15,4.8,4.8s-2.15,4.8-4.8,4.8-4.8-2.15-4.8-4.8,2.15-4.8,4.8-4.8Z"/>
        </g>
      </g>
    </pattern>
    <pattern id="_新規パターンスウォッチ_51" data-name=" 新規パターンスウォッチ 51" x="0" y="0" width="72" height="72" patternTransform="translate(-2255.02 -12793.87) scale(.85 -.85)" patternUnits="userSpaceOnUse" viewBox="0 0 72 72">
      <g>
        <rect class="st0" width="72" height="72"/>
        <g>
          <rect class="st0" width="72" height="72"/>
          <g>
            <line class="st2" x1="71.75" y1="6" x2="144.25" y2="6"/>
            <line class="st2" x1="71.75" y1="30" x2="144.25" y2="30"/>
            <line class="st2" x1="71.75" y1="54" x2="144.25" y2="54"/>
            <line class="st2" x1="71.75" y1="18" x2="144.25" y2="18"/>
            <line class="st2" x1="71.75" y1="42" x2="144.25" y2="42"/>
            <line class="st2" x1="71.75" y1="66" x2="144.25" y2="66"/>
          </g>
          <g>
            <line class="st2" x1="-.25" y1="6" x2="72.25" y2="6"/>
            <line class="st2" x1="-.25" y1="30" x2="72.25" y2="30"/>
            <line class="st2" x1="-.25" y1="54" x2="72.25" y2="54"/>
            <line class="st2" x1="-.25" y1="18" x2="72.25" y2="18"/>
            <line class="st2" x1="-.25" y1="42" x2="72.25" y2="42"/>
            <line class="st2" x1="-.25" y1="66" x2="72.25" y2="66"/>
          </g>
          <g>
            <line class="st2" x1="-72.25" y1="6" x2=".25" y2="6"/>
            <line class="st2" x1="-72.25" y1="30" x2=".25" y2="30"/>
            <line class="st2" x1="-72.25" y1="54" x2=".25" y2="54"/>
            <line class="st2" x1="-72.25" y1="18" x2=".25" y2="18"/>
            <line class="st2" x1="-72.25" y1="42" x2=".25" y2="42"/>
            <line class="st2" x1="-72.25" y1="66" x2=".25" y2="66"/>
          </g>
        </g>
      </g>
    </pattern>
    <pattern id="_新規パターンスウォッチ_3" data-name=" 新規パターンスウォッチ 3" x="0" y="0" width="48" height="48" patternTransform="translate(-7324.81 -7306.49) scale(.51 -.51)" patternUnits="userSpaceOnUse" viewBox="0 0 48 48">
      <g>
        <rect class="st0" width="48" height="48"/>
        <g>
          <rect class="st0" width="48" height="48"/>
          <g>
            <path class="st10" d="M24-4.8c2.65,0,4.8,2.15,4.8,4.8s-2.15,4.8-4.8,4.8-4.8-2.15-4.8-4.8,2.15-4.8,4.8-4.8Z"/>
            <path class="st10" d="M48-4.8c2.65,0,4.8,2.15,4.8,4.8s-2.15,4.8-4.8,4.8-4.8-2.15-4.8-4.8,2.15-4.8,4.8-4.8Z"/>
            <path class="st10" d="M24,19.2c2.65,0,4.8,2.15,4.8,4.8s-2.15,4.8-4.8,4.8-4.8-2.15-4.8-4.8,2.15-4.8,4.8-4.8Z"/>
            <path class="st10" d="M48,19.2c2.65,0,4.8,2.15,4.8,4.8s-2.15,4.8-4.8,4.8-4.8-2.15-4.8-4.8,2.15-4.8,4.8-4.8Z"/>
            <path class="st10" d="M36,7.2c2.65,0,4.8,2.15,4.8,4.8s-2.15,4.8-4.8,4.8-4.8-2.15-4.8-4.8,2.15-4.8,4.8-4.8Z"/>
            <path class="st10" d="M12,7.2c2.65,0,4.8,2.15,4.8,4.8s-2.15,4.8-4.8,4.8-4.8-2.15-4.8-4.8,2.15-4.8,4.8-4.8Z"/>
            <path class="st10" d="M36,31.2c2.65,0,4.8,2.15,4.8,4.8s-2.15,4.8-4.8,4.8-4.8-2.15-4.8-4.8,2.15-4.8,4.8-4.8Z"/>
            <path class="st10" d="M12,31.2c2.65,0,4.8,2.15,4.8,4.8s-2.15,4.8-4.8,4.8-4.8-2.15-4.8-4.8,2.15-4.8,4.8-4.8Z"/>
          </g>
          <g>
            <path class="st10" d="M0-4.8c2.65,0,4.8,2.15,4.8,4.8S2.65,4.8,0,4.8-4.8,2.65-4.8,0-2.65-4.8,0-4.8Z"/>
            <path class="st10" d="M0,19.2c2.65,0,4.8,2.15,4.8,4.8s-2.15,4.8-4.8,4.8-4.8-2.15-4.8-4.8,2.15-4.8,4.8-4.8Z"/>
          </g>
          <g>
            <path class="st10" d="M24,43.2c2.65,0,4.8,2.15,4.8,4.8s-2.15,4.8-4.8,4.8-4.8-2.15-4.8-4.8,2.15-4.8,4.8-4.8Z"/>
            <path class="st10" d="M48,43.2c2.65,0,4.8,2.15,4.8,4.8s-2.15,4.8-4.8,4.8-4.8-2.15-4.8-4.8,2.15-4.8,4.8-4.8Z"/>
          </g>
          <path class="st10" d="M0,43.2c2.65,0,4.8,2.15,4.8,4.8s-2.15,4.8-4.8,4.8-4.8-2.15-4.8-4.8,2.15-4.8,4.8-4.8Z"/>
        </g>
      </g>
    </pattern>
  </defs>
  <g id="gem-shapes">
    <path class="st6" d="M1223.42,174.2l41.98,21.39c3.28,1.67,5.51,4.87,5.94,8.53l4.14,35.19c.6,5.11-2.41,9.95-7.26,11.68l-59.24,21.05c-5.96,2.12-12.47-1.2-14.26-7.27l-17.79-60.29c-1.46-4.93.69-10.22,5.18-12.73l30.91-17.33c3.21-1.8,7.11-1.88,10.4-.21h0Z"/>
    <path class="st11" d="M1297.19,304.83l41.2,22.84c3.22,1.79,5.34,5.06,5.64,8.73l2.91,35.32c.42,5.13-2.76,9.86-7.66,11.41l-59.93,18.97c-6.03,1.91-12.42-1.64-14-7.76l-15.68-60.88c-1.28-4.98,1.05-10.19,5.62-12.54l31.49-16.25c3.27-1.69,7.18-1.63,10.4.16h.01Z"/>
    <path class="st12" d="M1339.09,80.1l35.55,30.91c2.78,2.42,4.17,6.06,3.7,9.72l-4.49,35.15c-.65,5.1-4.75,9.07-9.87,9.57l-62.57,6.09c-6.29.61-11.81-4.18-12.08-10.5l-2.68-62.81c-.22-5.14,3.15-9.75,8.11-11.1l34.18-9.34c3.55-.97,7.36-.1,10.14,2.31h0Z"/>
    <path class="st10" d="M1136.36,62.34l45.71,11.4c3.57.89,6.47,3.51,7.71,6.98l11.95,33.36c1.74,4.84-.11,10.24-4.44,13.01l-52.98,33.83c-5.33,3.4-12.42,1.63-15.53-3.87l-30.9-54.75c-2.53-4.48-1.62-10.11,2.18-13.57l26.22-23.84c2.73-2.48,6.51-3.43,10.08-2.54h0Z"/>
    <path class="st14" d="M1003.87,418.44l41.98,21.39c3.28,1.67,5.51,4.87,5.94,8.53l4.14,35.19c.6,5.11-2.41,9.95-7.26,11.68l-59.24,21.05c-5.96,2.12-12.47-1.2-14.26-7.27l-17.79-60.29c-1.46-4.93.69-10.22,5.18-12.73l30.91-17.33c3.21-1.8,7.11-1.88,10.4-.21h0Z"/>
    <path class="st10" d="M993.87,405.44l41.98,21.39c3.28,1.67,5.51,4.87,5.94,8.53l4.14,35.19c.6,5.11-2.41,9.95-7.26,11.68l-59.24,21.05c-5.96,2.12-12.47-1.2-14.26-7.27l-17.79-60.29c-1.46-4.93.69-10.22,5.18-12.73l30.91-17.33c3.21-1.8,7.11-1.88,10.4-.21h0Z"/>
    <path class="st12" d="M361.43,165.43l39.06-26.34c3.05-2.06,6.94-2.46,10.34-1.06l32.79,13.44c4.76,1.95,7.54,6.93,6.69,12.01l-10.31,62.01c-1.04,6.24-7.1,10.33-13.27,8.95l-61.36-13.67c-5.02-1.12-8.6-5.56-8.63-10.7l-.18-35.44c-.02-3.68,1.8-7.13,4.86-9.19h.01Z"/>
    <path class="st12" d="M370.21,266.15l41.6,22.12c3.25,1.73,5.43,4.97,5.79,8.63l3.53,35.26c.51,5.12-2.58,9.91-7.46,11.55l-59.59,20.01c-5.99,2.01-12.45-1.42-14.13-7.51l-16.74-60.6c-1.37-4.96.87-10.2,5.4-12.64l31.21-16.79c3.24-1.75,7.15-1.76,10.4-.03h-.01Z"/>
    <path class="st6" d="M127.71,380.24l47.1.82c3.68.06,7.09,1.96,9.08,5.06l19.15,29.82c2.78,4.33,2.2,10-1.4,13.67l-44.02,44.88c-4.43,4.51-11.74,4.39-16-.28l-42.42-46.39c-3.47-3.8-3.86-9.49-.93-13.72l20.18-29.13c2.1-3.03,5.57-4.81,9.25-4.74h.01Z"/>
    <path class="st6" d="M535.15,464.41l38.03,21.08c2.97,1.65,4.93,4.67,5.21,8.06l2.69,32.6c.39,4.73-2.54,9.1-7.07,10.54l-55.32,17.51c-5.56,1.76-11.47-1.51-12.92-7.16l-14.47-56.19c-1.18-4.6.97-9.4,5.19-11.58l29.07-14.99c3.02-1.56,6.62-1.5,9.6.14h-.01Z"/>
    <path class="st10" d="M342.82,432.61l36.61-29.65c2.86-2.32,6.69-3.05,10.21-1.96l33.84,10.53c4.91,1.53,8.11,6.25,7.71,11.38l-4.87,62.68c-.49,6.3-6.17,10.91-12.44,10.07l-62.32-8.27c-5.1-.68-9.05-4.79-9.53-9.91l-3.26-35.29c-.34-3.67,1.18-7.26,4.04-9.58h.01Z"/>
    <path class="st8" d="M20.29,289.61l37.98-14.58c2.97-1.14,6.31-.72,8.91,1.12l24.98,17.68c3.63,2.57,4.99,7.3,3.3,11.4l-20.72,50.18c-2.08,5.05-7.98,7.31-12.91,4.95l-48.97-23.42c-4.01-1.92-6.16-6.35-5.18-10.68l6.74-29.85c.7-3.1,2.9-5.65,5.87-6.79h0Z"/>
    <path class="st7" d="M1388.19,289.61l37.98-14.58c2.97-1.14,6.31-.72,8.91,1.12l24.98,17.68c3.63,2.57,4.99,7.3,3.3,11.4l-20.72,50.18c-2.08,5.05-7.98,7.31-12.91,4.95l-48.97-23.42c-4.01-1.92-6.16-6.35-5.18-10.68l6.74-29.85c.7-3.1,2.9-5.65,5.87-6.79h0Z"/>
    <path class="st9" d="M247.17,107.25l44.54-15.34c3.48-1.2,7.34-.58,10.27,1.65l28.19,21.47c4.09,3.12,5.49,8.65,3.36,13.33l-26.01,57.23c-2.62,5.76-9.53,8.14-15.14,5.21l-55.73-29.09c-4.56-2.38-6.87-7.6-5.56-12.57l9-34.28c.94-3.56,3.59-6.42,7.07-7.62h.01Z"/>
    <path class="st13" d="M46.46,164.25l30.91-35.55c2.42-2.78,6.06-4.17,9.72-3.7l35.15,4.49c5.1.65,9.07,4.75,9.57,9.87l6.09,62.57c.61,6.29-4.18,11.81-10.5,12.08l-62.81,2.68c-5.14.22-9.75-3.15-11.1-8.11l-9.34-34.18c-.97-3.55-.1-7.36,2.31-10.14h0Z"/>
    <path class="st6" d="M53.11,144.41l30.91-35.55c2.42-2.78,6.06-4.17,9.72-3.7l35.15,4.49c5.1.65,9.07,4.75,9.57,9.87l6.09,62.57c.61,6.29-4.18,11.81-10.5,12.08l-62.81,2.68c-5.14.22-9.75-3.15-11.1-8.11l-9.34-34.18c-.97-3.55-.1-7.36,2.31-10.14h0Z"/>
    <path class="st3" d="M53.37,105.94l15.56-17.9c1.22-1.4,3.05-2.1,4.89-1.86l17.7,2.26c2.57.33,4.57,2.39,4.82,4.97l3.07,31.5c.31,3.17-2.11,5.95-5.29,6.08l-31.62,1.35c-2.59.11-4.91-1.58-5.59-4.08l-4.7-17.21c-.49-1.79-.05-3.7,1.16-5.1h0Z"/>
  </g>
  <g id="sub">
    <g>
      <path class="st6" d="M1366.12,406.54c-3.55.39-7.16,2.82-7.31,6.66-.18,4.5,4.65,7.45,8.31,8.89,1.87.73,3.84,1.15,5.84,1.25,1.05.06,2.1.02,3.14-.08.54-.05,1.07-.15,1.61-.22.5-.07.95-.26,1.49.02.3.16.55.52.81.73.69.55,1.49.94,2.34,1.17.81.21,2.55-.01,3.16.47.68.54.62,1.8.9,2.56.31.83.77,1.59,1.37,2.24,1.5,1.65,3.87,2.74,6.11,2.71,1.31-.01,2.73-.81,3.89-.02,1.06.72,1.74,1.02,3.05,1.12.3.02,1.67-.51.97-.57s-1.41-.15-2.02-.55c-.37-.24-.63-.57-1.03-.77-.58-.29-1.21-.3-1.84-.19-1.5.24-2.68.54-4.16.03-.94-.32-1.84-.78-2.63-1.39-1.44-1.11-2.21-2.62-2.59-4.37-.41-1.9-1.65-1.44-3.25-1.68-.92-.14-1.82-.49-2.58-1.03-.62-.44-1.06-1.12-1.86-1.21s-1.68.22-2.48.33c-1.14.15-2.29.2-3.43.14-4.14-.22-8.28-2.01-11.33-4.82-1.61-1.48-2.54-3.51-2.26-5.72.32-2.54,2.55-4.87,5.13-5.15.36-.04,1.61-.65.65-.55h0Z"/>
      <path class="st6" d="M1387.7,413.1c-.83-3.98-4.56-6.19-8.13-7.48-2.04-.74-4.19-1.1-6.35-1.06-1.91.03-4.08.22-5.41,1.76-.6.7.81.9,1.23.41,1.13-1.31,3.53-1.19,5.12-1.1,1.88.11,3.71.58,5.45,1.31,3.01,1.26,5.91,3.18,6.62,6.57.14.66,1.62.28,1.48-.4h0Z"/>
      <path class="st6" d="M1406.21,428.37c.46-1.3.36-2.58-.39-3.75s-1.93-2.08-3.1-2.77c-1.21-.71-2.54-1.18-3.92-1.39-1.13-.17-3.02-.47-3.55.88-.3.78,1.18.74,1.41.15.11-.28.01-.09,0-.13l-.11.04c.07,0,.14-.01.22-.01.23,0,.45,0,.68.02.55.04,1.1.11,1.63.25,1.08.27,2.09.73,3.01,1.35,1.74,1.17,3.52,2.96,2.72,5.23-.28.79,1.2.74,1.41.15h0v-.02Z"/>
      <path class="st6" d="M1349.36,398.09c-1-.23-2.02-.3-3.04-.25-.8.04-1.63.16-2.34.56-.56.32-1.02.8-1.14,1.45-.1.52.05,1.18.39,1.59.24.29.59.47.9.67.4.26.8.49,1.23.69.79.36,1.66.55,2.53.57.92.03,1.84-.1,2.73-.35.7-.2,1.54-.48,1.89-1.18s.09-1.71-.43-2.28c-.66-.73-1.71-1.03-2.59-1.42-.6-.26-1.71.59-.86.97,1.02.45,2.49.82,2.54,2.17.02.5-.27.6-.7.73-.61.18-1.22.3-1.86.32-1.36.04-2.47-.5-3.59-1.21-.41-.26-.65-.53-.7-1.04-.03-.3.06-.61.27-.79.35-.31.96-.36,1.45-.39.83-.05,1.66-.02,2.47.17.36.08.79.02,1.05-.28.2-.24.16-.61-.18-.69h-.02Z"/>
      <path class="st6" d="M1411.78,443.17c1.09-.38,2.11-.94,2.83-1.86.62-.8.8-1.75.65-2.74-.31-2.05-2.4-3.85-4.49-3.81-.32,0-.8.1-.97.41-.16.29.14.48.41.47.88-.02,1.77.52,2.4,1.11.58.54.97,1.22,1.13,2.01s.09,1.57-.35,2.24-1.11,1.11-1.83,1.37c-.23.08-.71.26-.63.6.07.31.64.27.85.2h0Z"/>
      <path class="st6" d="M1407.41,435.54s-.09.25-.08.24c0,.03-.02.06-.03.09-.04.08,0,.05.11-.09-.02-.02-.4.26-.45.3-.25.17-.49.35-.72.55-.38.33-.75.71-.93,1.2-.38,1.08.27,2.18.79,3.09.18.31.74.22,1,.1.29-.14.54-.42.36-.74-.27-.47-.53-.95-.68-1.47-.03-.11-.06-.22-.07-.33,0-.04-.01-.09-.02-.13.01.12,0,0,0-.04,0-.1.01-.19.03-.29,0-.04.02-.08.03-.12-.04.14,0,0,.02-.04.04-.09.08-.16.13-.24-.08.13,0,0,.02-.02.04-.04.07-.09.11-.13.07-.09.15-.16.24-.24-.11.11.03-.02.04-.03.05-.05.11-.09.17-.13.24-.19.49-.36.75-.53.18-.12.35-.24.46-.43.07-.13.11-.3.15-.4.31-.77-1.17-.74-1.41-.15h0l-.02-.02Z"/>
    </g>
    <path class="st3" d="M300.85,219.41c-7.36-.57-10.63-6.2-13.51-11.17-2.78-4.78-5.18-8.91-10.59-9.33-5.4-.42-8.41,3.3-11.89,7.6-3.61,4.47-7.71,9.53-15.07,8.96-7.35-.57-10.63-6.2-13.51-11.17-2.78-4.78-5.18-8.91-10.59-9.33-5.41-.41-8.41,3.3-11.89,7.6-3.61,4.47-7.71,9.54-15.06,8.96-7.35-.57-10.63-6.2-13.51-11.17-2.78-4.78-5.18-8.91-10.58-9.33l.29-3.71c7.35.57,10.63,6.2,13.51,11.17,2.78,4.78,5.18,8.91,10.58,9.33,5.41.42,8.41-3.3,11.89-7.6,3.61-4.47,7.7-9.53,15.06-8.96,7.35.57,10.63,6.2,13.51,11.17,2.78,4.78,5.18,8.91,10.59,9.33,5.4.42,8.41-3.3,11.89-7.6,3.61-4.47,7.71-9.54,15.07-8.96,7.36.57,10.63,6.2,13.51,11.17,2.78,4.78,5.18,8.91,10.59,9.33l-.29,3.71h0Z"/>
    <path class="st5" d="M1141.52,355.24c5.68.15,5.46,8.64,11.14,8.79s5.9-8.35,11.58-8.2,5.46,8.64,11.15,8.79,5.9-8.35,11.58-8.2,5.46,8.64,11.14,8.79,5.9-8.35,11.59-8.2c5.68.15,5.46,8.64,11.14,8.79s5.91-8.35,11.59-8.2c5.69.15,5.47,8.64,11.15,8.79"/>
    <path class="st1" d="M1023.03,569.79c-.29,1.39-.51,3.68.55,5.94,2.24,4.73,8.68,6.16,13.3,5.32,5.83-1.07,9.92-5.96,10.87-10.43.38-1.78.59-5.07-.88-5.82-1.38-.7-3.57,1.13-4.23,1.68-.6.5-5.13,4.42-4.01,9.53,1.05,4.76,6.31,7.43,10.83,7.09,5.51-.41,8.99-5.24,9.75-9.03.1-.48.85-4.2-.97-5.39-1.36-.88-3.78-.11-4.97,1.24-3.01,3.42-.88,13.55,5.04,15.51,6.45,2.13,14.54-6.39,13.61-9.98-.33-1.29-1.89-2.2-3.18-2.21-2.48-.02-4.68,3.36-4.97,6.35-.28,2.84,1.15,5.59,3.18,7.04,1.25.9,2.81,1.11,5.94,1.52,2.23.29,4.14.55,6.63.28,3.67-.4,6.29-1.69,7.87-2.49,4.02-2.02,6.81-4.7,8.56-6.77"/>
    <path class="st6" d="M346.16,218.07h-.02c-.5-.09-6.19-.53-7.44-.73-1.1-.18-2.01-.94-2.05-2.05-.04-.98-.64-6.94-.73-7.44h0c-.02-.14-.11-.21-.21-.24-.02,0-.04,0-.07,0h-.01s-.05,0-.08.02c-.09.03-.17.11-.19.23h0c-.09.51-.69,6.47-.73,7.45-.04,1.11-.95,1.87-2.05,2.05-1.25.2-6.94.64-7.44.73h-.02c-.34.06-.34.54,0,.6h.02c.5.09,6.46.69,7.44.73,1.11.04,2.01.94,2.05,2.05.04.98.64,6.94.73,7.44v.02c.03.15.13.23.25.25h.03c.13,0,.25-.09.27-.25v-.02c.09-.5.69-6.46.73-7.44.04-1.11.94-2.01,2.05-2.05.98-.04,6.94-.64,7.44-.73h.02c.34-.06.34-.54,0-.6h.01Z"/>
    <path class="st6" d="M482.15,394.46h-.02c-.5-.09-6.19-.53-7.44-.73-1.1-.18-2.01-.94-2.05-2.05-.04-.98-.64-6.94-.73-7.44h0c-.02-.14-.11-.21-.21-.24-.02,0-.04-.01-.07-.01h-.01s-.05,0-.08.02c-.09.03-.17.11-.19.23h0c-.09.51-.69,6.47-.73,7.45-.04,1.11-.95,1.87-2.05,2.05-1.25.2-6.94.64-7.44.73h-.02c-.34.06-.34.54,0,.6h.02c.5.09,6.46.69,7.44.73,1.11.04,2.01.94,2.05,2.05.04.98.64,6.94.73,7.44v.02c.03.15.13.23.25.25h.03c.13-.01.25-.09.27-.25v-.02c.09-.5.69-6.46.73-7.44.04-1.11.94-2.01,2.05-2.05.98-.04,6.94-.64,7.44-.73h.02c.34-.06.34-.54,0-.6h.01Z"/>
    <path class="st6" d="M1159.4,293.07h-.02c-.5-.09-6.19-.53-7.44-.73-1.1-.18-2.01-.94-2.05-2.05-.04-.98-.64-6.94-.73-7.44h0c-.02-.14-.11-.21-.21-.24-.02,0-.04-.01-.07-.01h-.01s-.05,0-.08.02c-.09.03-.17.11-.19.23h0c-.09.51-.69,6.47-.73,7.45-.04,1.11-.95,1.87-2.05,2.05-1.25.2-6.94.64-7.44.73h-.02c-.34.06-.34.54,0,.6h.02c.5.09,6.46.69,7.44.73,1.11.04,2.01.94,2.05,2.05.04.98.64,6.94.73,7.44v.02c.03.15.13.23.25.25h.03c.13-.01.25-.09.27-.25v-.02c.09-.5.69-6.46.73-7.44.04-1.11.94-2.01,2.05-2.05.98-.04,6.94-.64,7.44-.73h.02c.34-.06.34-.54,0-.6h0Z"/>
    <path class="st6" d="M1389.28,194.61h-.02c-.5-.09-6.19-.53-7.44-.73-1.1-.18-2.01-.94-2.05-2.05-.04-.98-.64-6.94-.73-7.44h0c-.02-.14-.11-.21-.21-.24-.02,0-.04,0-.07,0h-.01s-.05,0-.08.02c-.09.03-.17.11-.19.23h0c-.09.51-.69,6.47-.73,7.45-.04,1.11-.95,1.87-2.05,2.05-1.25.2-6.94.64-7.44.73h-.02c-.34.06-.34.54,0,.6h.02c.5.09,6.46.69,7.44.73,1.11.04,2.01.94,2.05,2.05.04.98.64,6.94.73,7.44v.02c.03.15.13.23.25.25h.03c.13,0,.25-.09.27-.25v-.02c.09-.5.69-6.46.73-7.44.04-1.11.94-2.01,2.05-2.05.98-.04,6.94-.64,7.44-.73h.02c.34-.06.34-.54,0-.6h0Z"/>
    <path class="st6" d="M412.79,546.09h-.02c-.5-.09-6.19-.53-7.44-.73-1.1-.18-2.01-.94-2.05-2.05-.04-.98-.64-6.94-.73-7.44h0c-.02-.14-.11-.21-.21-.24-.02,0-.04-.01-.07-.01h-.01s-.05,0-.08.02c-.09.03-.17.11-.19.23h0c-.09.51-.69,6.47-.73,7.45-.04,1.11-.95,1.87-2.05,2.05-1.25.2-6.94.64-7.44.73h-.02c-.34.06-.34.54,0,.6h.02c.5.09,6.46.69,7.44.73,1.11.04,2.01.94,2.05,2.05.04.98.64,6.94.73,7.44v.02c.03.15.13.23.25.25h.03c.13-.01.25-.09.27-.25v-.02c.09-.5.69-6.46.73-7.44.04-1.11.94-2.01,2.05-2.05.98-.04,6.94-.64,7.44-.73h.02c.34-.06.34-.54,0-.6h.01Z"/>
    <g>
      <path class="st10" d="M548.23,497.03c-.14-.19-.3-.3-.31-.43-.02-.15.03-.34.13-.48.38-.58.77-1.14,1.19-1.69,1.34-1.78,2.7-3.58,4.05-5.36.2-.27.41-.56.59-.85.31-.49.16-.8-.37-.8-.86,0-1.73.02-2.58.07-.54.03-1.03-.05-1.51-.25-.25-.1-.44-.5-.31-.72.26-.44.53-.89.87-1.27,1.29-1.46,2.63-2.88,3.94-4.33.8-.9,1.55-1.84,2.34-2.75.34-.39.72-.73,1.1-1.08.07-.06.29-.09.31-.07.07.14.19.34.13.43-.34.53-.68,1.06-1.1,1.54-1.58,1.82-3.2,3.61-4.79,5.42-.34.39-.69.77-.99,1.19-.12.16-.23.44-.18.62.08.32.43.33.72.33.81,0,1.61-.03,2.41-.04.28,0,.58,0,.86.05.57.08.86.67.58,1.17s-.58,1-.92,1.46c-1.12,1.52-2.29,3.03-3.43,4.55-.72.96-1.43,1.94-2.16,2.9-.12.16-.35.25-.57.41h0v-.02Z"/>
      <path class="st10" d="M561.17,495.73c-.04-.1-.06-.23-.13-.3-.21-.2-.44-.37-.67-.53-.99-.71-.99-1.24.02-1.96.88-.64,1.79-1.24,2.7-1.86.47-.32.94-.65,1.43-.97.14-.09.3-.17.47-.2.09-.02.24.03.3.1s.1.24.06.3c-.15.23-.31.49-.53.65-.97.71-1.96,1.39-2.95,2.09-.28.2-.56.4-.8.65-.08.08-.08.35,0,.45.17.22.41.4.61.6s.42.39.6.61c.25.32.2.86-.13,1.09-.42.3-.86.58-1.32.82-2.6,1.36-5.15,2.8-7.61,4.4-.1.06-.19.13-.3.18-.83.5-1.27.58-1.33.23-.1-.61.46-.74.8-.97,2.05-1.38,4.18-2.63,6.37-3.78.77-.4,1.49-.86,2.23-1.31.08-.05.13-.19.19-.28h0Z"/>
    </g>
    <path class="st6" d="M165.91,171.97l-1.61,2.57-7.26-4.54c-.73-.45-1.68-.23-2.13.49s-.23,1.68.49,2.13l7.26,4.54-3.05,4.88-7.26-4.54c-.73-.45-1.68-.23-2.13.49h0c-.45.73-.23,1.68.49,2.13l7.26,4.54-1.61,2.57c-.37.6-.19,1.39.41,1.76l2.05,1.28c.6.37,1.39.19,1.76-.41l.9-1.45,5.53,3.46c2.97,1.86,6.76,1.32,9.1-1.09l1.64-2.62c1.14-3.16-.03-6.81-3-8.66l-5.53-3.46.9-1.45c.37-.6.19-1.39-.41-1.76l-2.05-1.28c-.6-.37-1.39-.19-1.76.41h.01Z"/>
    <path class="st6" d="M925.39,497.83h-.02c-.5-.09-6.19-.53-7.44-.73-1.1-.18-2.01-.94-2.05-2.05-.04-.98-.64-6.94-.73-7.44h0c-.02-.14-.11-.21-.21-.24-.02,0-.04-.01-.07-.01h-.01s-.05,0-.08.02c-.09.03-.17.11-.19.23h0c-.09.51-.69,6.47-.73,7.45-.04,1.11-.95,1.87-2.05,2.05-1.25.2-6.94.64-7.44.73h-.02c-.34.06-.34.54,0,.6h.02c.5.09,6.46.69,7.44.73,1.11.04,2.01.94,2.05,2.05.04.98.64,6.94.73,7.44v.02c.03.15.13.23.25.25h.03c.13-.01.25-.09.27-.25v-.02c.09-.5.69-6.46.73-7.44.04-1.11.94-2.01,2.05-2.05.98-.04,6.94-.64,7.44-.73h.02c.34-.06.34-.54,0-.6h.01Z"/>
    <g id="awSsFF.tif">
      <path class="st6" d="M168.46,145.82c.09-.1.27-.11.37,0,1.34,3.14,2.52,6.37,3.83,9.52.19.19.37-.04.52-.18.84-.79,1.61-1.71,2.45-2.51.2-.15.37-.09.48.13l.47,14.27c.05.38-.19.74-.51.35-1.18-2.35-2.07-4.98-3.27-7.3-.13-.25-.24-.56-.55-.29l-2.68,2.78c-.19.14-.37.09-.48-.13-.15-5.21-.52-10.42-.66-15.63,0-.19-.06-.89.04-1h0Z"/>
    </g>
    <g id="awSsFF.tif1">
      <path class="st6" d="M155.64,209.26c-.03.13.06.28.2.31,3.35-.67,6.68-1.51,10.02-2.21.26.05.17.33.14.53-.18,1.14-.5,2.29-.69,3.43,0,.25.13.36.38.33l12.04-7.66c.34-.17.5-.57,0-.61-2.61.35-5.28,1.1-7.87,1.42-.28.03-.6.12-.55-.29l.78-3.78c0-.24-.13-.36-.38-.33-4.39,2.82-8.89,5.45-13.27,8.27-.16.1-.76.45-.8.6h0Z"/>
    </g>
    <path class="st6" d="M1152.09,434.85h-.02c-.5-.09-6.19-.53-7.44-.73-1.1-.18-2.01-.94-2.05-2.05-.04-.98-.64-6.94-.73-7.44h0c-.02-.14-.11-.21-.21-.24-.02,0-.04-.01-.07-.01h-.01s-.05,0-.08.02c-.09.03-.17.11-.19.23h0c-.09.51-.69,6.47-.73,7.45-.04,1.11-.95,1.87-2.05,2.05-1.25.2-6.94.64-7.44.73h-.02c-.34.06-.34.54,0,.6h.02c.5.09,6.46.69,7.44.73,1.11.04,2.01.94,2.05,2.05.04.98.64,6.94.73,7.44v.02c.03.15.13.23.25.25h.03c.13-.01.25-.09.27-.25v-.02c.09-.5.69-6.46.73-7.44.04-1.11.94-2.01,2.05-2.05.98-.04,6.94-.64,7.44-.73h.02c.34-.06.34-.54,0-.6h0Z"/>
  </g>
  <g>
    <path class="st6" d="M1434.92,511.36c4.23-.2,8.46-.41,12.68-.63.38-.02,1.11-.15,1.36-.49s-.22-.36-.48-.35c-4.23.22-8.45.43-12.68.63-.38.02-1.12.15-1.36.49s.22.36.48.35h0Z"/>
    <path class="st6" d="M960.59,388.82c3.05,1.94,6.29,3.6,9.5,5.26,4.96,2.56,9.96,5.02,14.98,7.46,12.97,6.31,26.02,12.45,39.06,18.63,12.98,6.16,25.97,12.33,38.83,18.74,13.24,6.6,26.04,13.96,38.95,21.18,13.64,7.62,27.33,15.23,41.48,21.87,16.18,7.59,33.07,13.62,50.33,18.22,19.2,5.11,38.84,8.34,58.61,10.23,16.44,1.57,32.99,2.37,49.49,2.84,17.43.49,34.88.29,52.31-.02,21.29-.38,42.59-.84,63.88-1.52,3.81-.12,7.63-.25,11.44-.39.4-.01,1.15-.06,1.43-.38.18-.21.39-.44-.11-.42-20.03.72-40.07,1.18-60.11,1.61-18.59.4-37.18.76-55.78.55-16-.18-32.02-.87-47.98-1.98-19.08-1.33-38.09-3.68-56.79-7.73-19.4-4.2-38.47-10.14-56.7-18.02-13.24-5.72-25.98-12.5-38.61-19.44-14.15-7.77-28.04-16.07-42.4-23.46-12.11-6.23-24.41-12.09-36.7-17.95-13.4-6.39-26.83-12.71-40.22-19.13-9.78-4.69-19.65-9.32-29.15-14.57-1.3-.72-2.6-1.46-3.85-2.26-.48-.3-2.16.52-1.91.68h.02Z"/>
    <path class="st6" d="M1082.88,473.18c22.66,15.5,47.23,28.18,73.09,37.4,9.34,3.33,18.84,6.23,28.46,8.6,10.12,2.49,20.39,4.33,30.68,5.96,18.67,2.94,37.41,5.56,56.19,7.73,25.87,2.98,51.84,5.1,77.85,6.48,27.7,1.46,55.44,2.04,83.17,1.76,3.93-.04,7.86-.1,11.79-.17,1.1-.02,1.6-1.38.22-1.35-28.68.54-57.38.16-86.03-1.17-26.42-1.23-52.8-3.23-79.09-6.09-18.1-1.97-36.13-4.48-54.14-7.13-10.86-1.6-21.71-3.31-32.44-5.65-9.53-2.08-18.93-4.69-28.19-7.73-24.66-8.11-48.24-19.36-70.16-33.26-3.31-2.1-6.57-4.25-9.81-6.46-.66-.45-2.49.48-1.58,1.1h0v-.02Z"/>
    <path class="st6" d="M1088.97,449.54c-4.79,3.59-8.42,8.58-9.99,14.38-.18.66,1.85.37,2.02-.28,1.52-5.59,4.96-10.37,9.58-13.83.35-.26.2-.57-.18-.66-.47-.11-1.06.11-1.43.38h0Z"/>
    <path class="st6" d="M1101.99,458.7c-3.22,6.68-6.34,13.41-9.35,20.19-.27.62,1.74.4,2.03-.26,2.96-6.68,6.03-13.31,9.21-19.89.42-.87-1.6-.64-1.89-.04h0Z"/>
    <path class="st6" d="M1120.42,467.13c-4.33,7.27-8.1,14.87-11.12,22.78-.29.77,1.75.54,2.04-.21,2.97-7.79,6.73-15.28,10.99-22.44.53-.89-1.52-.78-1.91-.13h0Z"/>
    <path class="st6" d="M1135.32,477.31c-3.73,6.98-6.41,14.49-7.6,22.33-.03.2,1.94.06,2.03-.54,1.18-7.77,3.87-15.23,7.57-22.15.17-.31-.71-.19-.81-.17-.34.06-1.01.19-1.19.54h0Z"/>
    <path class="st6" d="M1153.55,484.96c-3.62,7.46-5.86,15.48-6.5,23.75-.06.83,1.98.45,2.03-.25.63-8.14,2.79-16.1,6.36-23.45.43-.88-1.59-.67-1.89-.05h0Z"/>
    <path class="st6" d="M1173.02,488.92c-3.81,8.51-5.67,17.78-5.48,27.1.02,1.05,2.07.73,2.05-.16-.19-9.19,1.6-18.33,5.36-26.72.47-1.05-1.57-1.03-1.94-.22h0Z"/>
    <path class="st6" d="M1197.7,494.18c-3.42,9.4-5.13,19.31-5.08,29.31,0,.55,2.03.19,2.03-.54-.05-9.91,1.69-19.74,5.08-29.05.22-.6-1.79-.35-2.02.28h-.01Z"/>
    <path class="st6" d="M1222.75,496.45c-3.24,10.39-4.18,21.38-2.7,32.17.07.53,2.12.09,2.03-.54-1.47-10.72-.53-21.61,2.68-31.94.17-.55-1.83-.28-2.01.31h0Z"/>
    <path class="st6" d="M1247.94,502.38c-1.98,9.88-2.62,19.97-1.94,30.02.08,1.11,2.13.84,2.06-.13-.68-10.05-.04-20.14,1.94-30.02.21-1.06-1.87-.84-2.06.13h0Z"/>
    <path class="st6" d="M1272.73,502.02c1.14,11.04,1.38,22.15.68,33.22-.05.76,1.98.34,2.02-.28.7-11.16.47-22.36-.67-33.48-.06-.6-2.1-.17-2.03.54h0Z"/>
    <path class="st6" d="M1297.1,502.52c4.71,11.23,6.95,23.35,6.28,35.53-.02.44,1.99.15,2.03-.54.67-12.18-1.57-24.3-6.28-35.53-.25-.59-2.24.04-2.03.54h0Z"/>
    <path class="st6" d="M1326.39,508.94c5.03,9.74,7.47,20.65,6.55,31.61-.02.2,1.98.02,2.03-.54.92-10.96-1.52-21.87-6.55-31.61-.23-.45-2.16.29-2.03.54h0Z"/>
    <path class="st6" d="M1352.89,505.26c7.18,11.66,11.24,25,11.31,38.72,0,.5,2.03.16,2.03-.54-.07-13.72-4.14-27.06-11.31-38.72-.37-.6-2.28.13-2.03.54h0Z"/>
    <path class="st6" d="M1379.46,505.76c8.91,11.87,14.72,25.83,16.29,40.63.08.75,2.12.29,2.03-.54-1.57-14.9-7.47-28.96-16.44-40.91-.45-.6-2.41.11-1.88.82h0Z"/>
    <path class="st6" d="M1410.48,505.18c8.09,13.45,14.71,27.76,19.65,42.66.24.72,2.26.14,2.03-.54-4.97-15-11.65-29.38-19.79-42.92-.35-.58-2.32.07-1.88.8h-.01Z"/>
    <path class="st6" d="M1449.07,540.84c2.1-.05,4.21-.1,6.31-.16.42-.01,1.06-.31,1.13-.78.07-.51-.56-.6-.92-.59-2.1.06-4.21.11-6.31.16-.42,0-1.07.31-1.13.78-.07.51.56.6.92.59h0Z"/>
  </g>
</svg>