<?xml version="1.0" encoding="UTF-8"?>
<svg id="_レイヤー_2" data-name="レイヤー_2" xmlns="http://www.w3.org/2000/svg" xmlns:xlink="http://www.w3.org/1999/xlink" version="1.1" viewBox="0 0 1728 740">
  <!-- Generator: Adobe Illustrator 30.0.0, SVG Export Plug-In . SVG Version: 2.1.1 Build 123)  -->
  <defs>
    <style>
      .st0, .st1, .st2, .st3, .st4, .st5 {
        fill: none;
      }

      .st6 {
        fill: #ceb372;
      }

      .st7 {
        fill: url(#_新規パターンスウォッチ_12);
      }

      .st8 {
        fill: url(#_新規パターンスウォッチ_11);
      }

      .st9 {
        fill: url(#_新規パターンスウォッチ_13);
      }

      .st10 {
        fill: url(#_新規パターンスウォッチ_41);
      }

      .st1 {
        stroke: #fff;
      }

      .st1, .st3 {
        stroke-width: 9.6px;
      }

      .st11 {
        fill: #fff;
      }

      .st12 {
        fill: url(#_新規パターンスウォッチ_5);
      }

      .st13 {
        fill: url(#_新規パターンスウォッチ_4);
      }

      .st14 {
        fill: url(#_新規パターンスウォッチ_3);
      }

      .st15 {
        fill: url(#_新規パターンスウォッチ_1);
      }

      .st2, .st3, .st4, .st5 {
        stroke: #ceb372;
      }

      .st2, .st4 {
        stroke-miterlimit: 10;
      }

      .st4 {
        stroke-width: 3px;
      }

      .st5 {
        stroke-linecap: round;
        stroke-linejoin: round;
        stroke-width: 1.5px;
      }
    </style>
    <pattern id="_新規パターンスウォッチ_1" data-name="新規パターンスウォッチ 1" x="0" y="0" width="48" height="48" patternTransform="translate(-3172.04 -3008.42) scale(.56)" patternUnits="userSpaceOnUse" viewBox="0 0 48 48">
      <g>
        <rect class="st0" width="48" height="48"/>
        <g>
          <path class="st6" d="M24,52.8c2.65,0,4.8-2.15,4.8-4.8s-2.15-4.8-4.8-4.8-4.8,2.15-4.8,4.8,2.15,4.8,4.8,4.8Z"/>
          <path class="st6" d="M48,52.8c2.65,0,4.8-2.15,4.8-4.8s-2.15-4.8-4.8-4.8-4.8,2.15-4.8,4.8,2.15,4.8,4.8,4.8Z"/>
          <path class="st6" d="M24,28.8c2.65,0,4.8-2.15,4.8-4.8s-2.15-4.8-4.8-4.8-4.8,2.15-4.8,4.8,2.15,4.8,4.8,4.8Z"/>
          <path class="st6" d="M48,28.8c2.65,0,4.8-2.15,4.8-4.8s-2.15-4.8-4.8-4.8-4.8,2.15-4.8,4.8,2.15,4.8,4.8,4.8Z"/>
          <path class="st6" d="M36,40.8c2.65,0,4.8-2.15,4.8-4.8s-2.15-4.8-4.8-4.8-4.8,2.15-4.8,4.8,2.15,4.8,4.8,4.8Z"/>
          <path class="st6" d="M12,40.8c2.65,0,4.8-2.15,4.8-4.8s-2.15-4.8-4.8-4.8-4.8,2.15-4.8,4.8,2.15,4.8,4.8,4.8Z"/>
          <path class="st6" d="M36,16.8c2.65,0,4.8-2.15,4.8-4.8s-2.15-4.8-4.8-4.8-4.8,2.15-4.8,4.8,2.15,4.8,4.8,4.8Z"/>
          <path class="st6" d="M12,16.8c2.65,0,4.8-2.15,4.8-4.8s-2.15-4.8-4.8-4.8-4.8,2.15-4.8,4.8,2.15,4.8,4.8,4.8Z"/>
        </g>
        <g>
          <path class="st6" d="M0,52.8c2.65,0,4.8-2.15,4.8-4.8s-2.15-4.8-4.8-4.8-4.8,2.15-4.8,4.8,2.15,4.8,4.8,4.8Z"/>
          <path class="st6" d="M0,28.8c2.65,0,4.8-2.15,4.8-4.8s-2.15-4.8-4.8-4.8-4.8,2.15-4.8,4.8,2.15,4.8,4.8,4.8Z"/>
        </g>
        <g>
          <path class="st6" d="M24,4.8c2.65,0,4.8-2.15,4.8-4.8s-2.15-4.8-4.8-4.8-4.8,2.15-4.8,4.8,2.15,4.8,4.8,4.8Z"/>
          <path class="st6" d="M48,4.8c2.65,0,4.8-2.15,4.8-4.8s-2.15-4.8-4.8-4.8-4.8,2.15-4.8,4.8,2.15,4.8,4.8,4.8Z"/>
        </g>
        <path class="st6" d="M0,4.8c2.65,0,4.8-2.15,4.8-4.8S2.65-4.8,0-4.8-4.8-2.65-4.8,0-2.65,4.8,0,4.8Z"/>
      </g>
    </pattern>
    <pattern id="_新規パターンスウォッチ_5" data-name="新規パターンスウォッチ 5" x="0" y="0" width="72" height="72" patternTransform="translate(3 709)" patternUnits="userSpaceOnUse" viewBox="0 0 72 72">
      <g>
        <rect class="st0" width="72" height="72"/>
        <g>
          <line class="st1" x1="71.75" y1="66" x2="144.25" y2="66"/>
          <line class="st1" x1="71.75" y1="42" x2="144.25" y2="42"/>
          <line class="st1" x1="71.75" y1="18" x2="144.25" y2="18"/>
          <line class="st1" x1="71.75" y1="54" x2="144.25" y2="54"/>
          <line class="st1" x1="71.75" y1="30" x2="144.25" y2="30"/>
          <line class="st1" x1="71.75" y1="6" x2="144.25" y2="6"/>
        </g>
        <g>
          <line class="st1" x1="-.25" y1="66" x2="72.25" y2="66"/>
          <line class="st1" x1="-.25" y1="42" x2="72.25" y2="42"/>
          <line class="st1" x1="-.25" y1="18" x2="72.25" y2="18"/>
          <line class="st1" x1="-.25" y1="54" x2="72.25" y2="54"/>
          <line class="st1" x1="-.25" y1="30" x2="72.25" y2="30"/>
          <line class="st1" x1="-.25" y1="6" x2="72.25" y2="6"/>
        </g>
        <g>
          <line class="st1" x1="-72.25" y1="66" x2=".25" y2="66"/>
          <line class="st1" x1="-72.25" y1="42" x2=".25" y2="42"/>
          <line class="st1" x1="-72.25" y1="18" x2=".25" y2="18"/>
          <line class="st1" x1="-72.25" y1="54" x2=".25" y2="54"/>
          <line class="st1" x1="-72.25" y1="30" x2=".25" y2="30"/>
          <line class="st1" x1="-72.25" y1="6" x2=".25" y2="6"/>
        </g>
      </g>
    </pattern>
    <pattern id="_新規パターンスウォッチ_3" data-name="新規パターンスウォッチ 3" x="0" y="0" width="48" height="48" patternTransform="translate(-2912.64 -2691.94) scale(.6)" patternUnits="userSpaceOnUse" viewBox="0 0 48 48">
      <g>
        <rect class="st0" width="48" height="48"/>
        <g>
          <path class="st11" d="M24,52.8c2.65,0,4.8-2.15,4.8-4.8s-2.15-4.8-4.8-4.8-4.8,2.15-4.8,4.8,2.15,4.8,4.8,4.8Z"/>
          <path class="st11" d="M48,52.8c2.65,0,4.8-2.15,4.8-4.8s-2.15-4.8-4.8-4.8-4.8,2.15-4.8,4.8,2.15,4.8,4.8,4.8Z"/>
          <path class="st11" d="M24,28.8c2.65,0,4.8-2.15,4.8-4.8s-2.15-4.8-4.8-4.8-4.8,2.15-4.8,4.8,2.15,4.8,4.8,4.8Z"/>
          <path class="st11" d="M48,28.8c2.65,0,4.8-2.15,4.8-4.8s-2.15-4.8-4.8-4.8-4.8,2.15-4.8,4.8,2.15,4.8,4.8,4.8Z"/>
          <path class="st11" d="M36,40.8c2.65,0,4.8-2.15,4.8-4.8s-2.15-4.8-4.8-4.8-4.8,2.15-4.8,4.8,2.15,4.8,4.8,4.8Z"/>
          <path class="st11" d="M12,40.8c2.65,0,4.8-2.15,4.8-4.8s-2.15-4.8-4.8-4.8-4.8,2.15-4.8,4.8,2.15,4.8,4.8,4.8Z"/>
          <path class="st11" d="M36,16.8c2.65,0,4.8-2.15,4.8-4.8s-2.15-4.8-4.8-4.8-4.8,2.15-4.8,4.8,2.15,4.8,4.8,4.8Z"/>
          <path class="st11" d="M12,16.8c2.65,0,4.8-2.15,4.8-4.8s-2.15-4.8-4.8-4.8-4.8,2.15-4.8,4.8,2.15,4.8,4.8,4.8Z"/>
        </g>
        <g>
          <path class="st11" d="M0,52.8c2.65,0,4.8-2.15,4.8-4.8s-2.15-4.8-4.8-4.8-4.8,2.15-4.8,4.8,2.15,4.8,4.8,4.8Z"/>
          <path class="st11" d="M0,28.8c2.65,0,4.8-2.15,4.8-4.8s-2.15-4.8-4.8-4.8-4.8,2.15-4.8,4.8,2.15,4.8,4.8,4.8Z"/>
        </g>
        <g>
          <path class="st11" d="M24,4.8c2.65,0,4.8-2.15,4.8-4.8s-2.15-4.8-4.8-4.8-4.8,2.15-4.8,4.8,2.15,4.8,4.8,4.8Z"/>
          <path class="st11" d="M48,4.8c2.65,0,4.8-2.15,4.8-4.8s-2.15-4.8-4.8-4.8-4.8,2.15-4.8,4.8,2.15,4.8,4.8,4.8Z"/>
        </g>
        <path class="st11" d="M0,4.8c2.65,0,4.8-2.15,4.8-4.8S2.65-4.8,0-4.8-4.8-2.65-4.8,0-2.65,4.8,0,4.8Z"/>
      </g>
    </pattern>
    <pattern id="_新規パターンスウォッチ_4" data-name="新規パターンスウォッチ 4" x="0" y="0" width="72" height="72" patternTransform="translate(3 709)" patternUnits="userSpaceOnUse" viewBox="0 0 72 72">
      <g>
        <rect class="st0" width="72" height="72"/>
        <g>
          <line class="st3" x1="71.75" y1="66" x2="144.25" y2="66"/>
          <line class="st3" x1="71.75" y1="42" x2="144.25" y2="42"/>
          <line class="st3" x1="71.75" y1="18" x2="144.25" y2="18"/>
          <line class="st3" x1="71.75" y1="54" x2="144.25" y2="54"/>
          <line class="st3" x1="71.75" y1="30" x2="144.25" y2="30"/>
          <line class="st3" x1="71.75" y1="6" x2="144.25" y2="6"/>
        </g>
        <g>
          <line class="st3" x1="-.25" y1="66" x2="72.25" y2="66"/>
          <line class="st3" x1="-.25" y1="42" x2="72.25" y2="42"/>
          <line class="st3" x1="-.25" y1="18" x2="72.25" y2="18"/>
          <line class="st3" x1="-.25" y1="54" x2="72.25" y2="54"/>
          <line class="st3" x1="-.25" y1="30" x2="72.25" y2="30"/>
          <line class="st3" x1="-.25" y1="6" x2="72.25" y2="6"/>
        </g>
        <g>
          <line class="st3" x1="-72.25" y1="66" x2=".25" y2="66"/>
          <line class="st3" x1="-72.25" y1="42" x2=".25" y2="42"/>
          <line class="st3" x1="-72.25" y1="18" x2=".25" y2="18"/>
          <line class="st3" x1="-72.25" y1="54" x2=".25" y2="54"/>
          <line class="st3" x1="-72.25" y1="30" x2=".25" y2="30"/>
          <line class="st3" x1="-72.25" y1="6" x2=".25" y2="6"/>
        </g>
      </g>
    </pattern>
    <pattern id="_新規パターンスウォッチ_11" data-name="新規パターンスウォッチ 1" patternTransform="translate(-4781.8 -4853.83) scale(.34)" xlink:href="#_新規パターンスウォッチ_1"/>
    <pattern id="_新規パターンスウォッチ_12" data-name="新規パターンスウォッチ 1" patternTransform="translate(-4775.37 -4838.42) scale(.34)" xlink:href="#_新規パターンスウォッチ_1"/>
    <pattern id="_新規パターンスウォッチ_13" data-name="新規パターンスウォッチ 1" patternTransform="translate(-3174.04 -3009.42) scale(.56)" xlink:href="#_新規パターンスウォッチ_1"/>
    <pattern id="_新規パターンスウォッチ_41" data-name="新規パターンスウォッチ 4" patternTransform="translate(-14666.13 -16328.31) rotate(-180)" xlink:href="#_新規パターンスウォッチ_4"/>
  </defs>
  <g>
    <path class="st6" d="M1555.75,540.02c-4.47.48-8.95,3.77-8.59,8.66s5.97,8.23,10.15,9.78c2.31.85,4.75,1.3,7.21,1.35,1.19.02,2.39-.04,3.57-.19.62-.08,1.23-.22,1.85-.29,1.11-.14,1.27.26,2.07.92.86.71,1.87,1.2,2.95,1.47.48.12.96.19,1.45.23.7.06,1.71-.15,2.27.38.73.71.67,2.24,1.05,3.17s.92,1.77,1.61,2.5c1.85,1.98,4.75,3.22,7.46,3.08,1.47-.07,2.95-.95,4.25.01,1.19.88,2.06,1.18,3.55,1.29.35.03,1.97-.6,1.14-.66-.68-.05-1.38-.12-2-.43-.51-.25-.86-.69-1.34-.99-.7-.43-1.5-.49-2.3-.38-.69.1-1.33.35-2.03.43-1.04.13-2.02-.03-3.01-.37s-2-.86-2.86-1.49c-1.73-1.26-2.78-3.06-3.22-5.14-.15-.73-.25-1.42-.96-1.81-.88-.48-2.11-.19-3.06-.36-1.15-.2-2.22-.68-3.14-1.4-.81-.63-1.26-1.26-2.35-1.22-1,.04-2,.35-3,.45-1.35.15-2.72.17-4.08.06-4.72-.39-9.55-2.51-12.97-5.82-1.82-1.76-2.82-4.17-2.44-6.71.44-2.91,3.05-5.57,6.01-5.89.43-.05,1.89-.77.77-.64h0Z"/>
    <path class="st6" d="M1581.13,547.74c-.98-4.68-5.37-7.29-9.56-8.8-2.4-.87-4.93-1.29-7.48-1.25-2.24.04-4.81.26-6.37,2.07-.71.82.95,1.06,1.45.48,1.33-1.55,4.16-1.4,6.02-1.29,2.21.13,4.37.68,6.41,1.54,3.54,1.48,6.96,3.74,7.79,7.72.16.77,1.91.33,1.74-.47h0Z"/>
    <path class="st6" d="M1602.92,565.71c.54-1.53.43-3.04-.45-4.42s-2.28-2.45-3.64-3.26-2.98-1.39-4.61-1.64c-1.32-.2-3.56-.55-4.17,1.04-.35.91,1.39.87,1.66.18.13-.33.01-.1,0-.16l-.13.04c.08,0,.17-.01.25-.01.26,0,.53.01.8.03.64.05,1.29.13,1.92.29,1.27.32,2.46.86,3.54,1.58,2.05,1.37,4.14,3.48,3.2,6.15-.33.93,1.41.88,1.66.18h0Z"/>
    <path class="st6" d="M1536.03,530.09c-1.18-.27-2.37-.36-3.58-.29-.94.05-1.92.19-2.75.66-.65.37-1.2.94-1.35,1.71-.11.61.06,1.39.45,1.87.28.34.69.55,1.05.78.47.31.94.58,1.45.81.93.42,1.96.65,2.98.68,1.09.03,2.16-.12,3.21-.41.82-.23,1.81-.57,2.23-1.38s.1-2.01-.5-2.68c-.77-.86-2.01-1.21-3.04-1.67-.7-.31-2.01.7-1.01,1.14,1.2.53,2.93.96,2.98,2.55.02.59-.32.71-.82.86-.71.21-1.44.35-2.19.37-1.6.05-2.91-.59-4.23-1.42-.49-.31-.77-.63-.82-1.22-.03-.35.07-.72.31-.93.41-.37,1.13-.43,1.7-.46.97-.06,1.96-.02,2.91.2.42.1.93.02,1.23-.33.24-.28.19-.72-.22-.81h0Z"/>
    <path class="st6" d="M1609.47,583.12c1.28-.44,2.48-1.11,3.33-2.19.73-.94.94-2.06.77-3.22-.36-2.41-2.82-4.53-5.28-4.48-.38,0-.94.11-1.14.49-.19.34.16.56.48.56,1.04-.02,2.09.61,2.83,1.3.69.64,1.15,1.44,1.33,2.36s.11,1.84-.41,2.64-1.3,1.31-2.16,1.61c-.27.09-.84.31-.74.7.09.36.75.32.99.23h0Z"/>
    <path class="st6" d="M1604.33,574.14c-.02.06-.1.3-.1.28-.01.04-.02.07-.04.1-.04.09,0,.06.13-.11-.03-.02-.47.31-.53.35-.29.2-.58.41-.84.65-.45.39-.89.84-1.09,1.41-.45,1.27.31,2.56.93,3.64.21.36.88.26,1.18.11.34-.16.63-.5.42-.87-.32-.55-.63-1.12-.81-1.73-.04-.13-.07-.26-.09-.39,0-.05-.01-.11-.02-.16.01.14,0-.01,0-.04,0-.11.01-.23.04-.34,0-.05.02-.09.03-.14-.04.16,0,0,.02-.04.04-.1.1-.19.15-.29-.09.15,0,0,.02-.02.04-.05.08-.1.13-.15.09-.1.18-.19.28-.28-.13.13.03-.03.05-.04.06-.05.13-.11.19-.16.28-.22.58-.43.88-.62.21-.14.41-.28.54-.5.09-.15.13-.35.18-.48.36-.91-1.38-.87-1.66-.18h0Z"/>
  </g>
  <g>
    <path class="st6" d="M1636.58,663.21c4.97-.23,9.95-.48,14.92-.74.43-.02.97-.1,1.33-.36.25-.18.31-.39-.1-.36-4.97.26-9.95.51-14.92.74-.43.02-.97.1-1.33.36-.25.18-.31.38.1.36h0Z"/>
    <path class="st6" d="M1146.48,544.82c13.11,8.35,26.34,16.51,39.68,24.48,17.22,10.27,34.68,20.13,52.16,29.95,13.62,7.64,27.25,15.29,41.15,22.43,10.54,5.42,21.26,10.49,32.26,14.89,18.27,7.31,37.16,13.1,56.37,17.4,17.23,3.86,34.7,6.52,52.26,8.26,15.47,1.54,30.99,2.35,46.51,3.02,14.41.62,28.81.88,43.23.85,17.6-.04,35.2-.39,52.79-.77,19.34-.42,38.68-.85,58.01-1.49,3.35-.11,6.7-.23,10.05-.35,1.05-.04,1.47-1.38.18-1.33-17.68.64-35.36,1.1-53.04,1.5-18.54.42-37.09.85-55.64,1.03-15,.15-30.01.13-45-.37-14.79-.5-29.6-1.2-44.36-2.35-17.09-1.33-34.14-3.4-50.99-6.58-19.32-3.64-38.37-8.75-56.89-15.37-12.53-4.48-24.75-9.69-36.68-15.57-12.79-6.3-25.29-13.17-37.74-20.1-17.22-9.58-34.43-19.21-51.44-29.17-14.55-8.52-28.97-17.26-43.25-26.24-2.73-1.72-5.46-3.45-8.18-5.18-.67-.43-2.34.5-1.46,1.06h0Z"/>
    <path class="st6" d="M1222.71,618.25c14.64,10.01,29.94,19.04,45.82,26.93,12.9,6.4,26.16,12.05,39.72,16.9,11.05,3.95,22.3,7.4,33.69,10.21,11.8,2.91,23.77,5.07,35.77,6.96,13.91,2.19,27.87,4.12,41.82,6.04,8.07,1.11,16.15,2.12,24.24,3.06,13.32,1.54,26.67,2.88,40.04,4.04,17.16,1.49,34.34,2.69,51.54,3.61,15.11.8,30.24,1.38,45.37,1.74,17.59.42,35.19.53,52.78.36,4.59-.05,9.18-.11,13.77-.2.37,0,1.09-.12,1.24-.53.14-.38-.12-.61-.52-.6-18.08.34-36.16.37-54.24.09-15.7-.25-31.39-.73-47.07-1.46-16.61-.77-33.21-1.81-49.79-3.11-14.5-1.14-28.98-2.49-43.44-4.06-9.51-1.04-19.02-2.17-28.51-3.43-11.89-1.58-23.77-3.27-35.64-5.03-12.65-1.87-25.29-3.88-37.78-6.6-11.21-2.44-22.28-5.51-33.18-9.1-13-4.27-25.76-9.29-38.19-15.01-15.36-7.05-30.23-15.17-44.5-24.22-3.86-2.45-7.67-4.96-11.44-7.54-.54-.37-2.27.41-1.49.95h0Z"/>
    <path class="st6" d="M1229.89,590.61c-5.61,4.21-9.85,10.07-11.7,16.87-.18.68,1.71.41,1.88-.23,1.79-6.6,5.88-12.24,11.32-16.32.34-.25.16-.58-.18-.67-.45-.12-.98.09-1.33.36h0Z"/>
    <path class="st6" d="M1245.24,601.37c-3.76,7.8-7.4,15.66-10.92,23.57-.38.86,1.5.68,1.76.08,3.51-7.92,7.15-15.77,10.92-23.57.41-.85-1.48-.67-1.76-.08h0Z"/>
    <path class="st6" d="M1266.94,611.34c-5.08,8.54-9.53,17.46-13.07,26.75-.25.66,1.64.44,1.89-.22,3.5-9.19,7.92-18.01,12.94-26.45.47-.79-1.42-.64-1.76-.08h0Z"/>
    <path class="st6" d="M1284.51,623.03c-4.39,8.22-7.59,17.08-8.98,26.31-.12.78,1.78.47,1.89-.22,1.38-9.13,4.51-17.89,8.86-26.02.44-.82-1.45-.66-1.76-.08h0Z"/>
    <path class="st6" d="M1305.9,632.27c-4.25,8.75-6.88,18.2-7.63,27.91-.06.81,1.84.46,1.89-.22.74-9.6,3.3-18.96,7.5-27.62.41-.84-1.47-.67-1.76-.08h0Z"/>
    <path class="st6" d="M1328.77,637.19c-4.48,9.98-6.61,20.86-6.37,31.79.01.6,1.9.23,1.88-.5-.23-10.83,1.94-21.64,6.37-31.52.26-.58-1.61-.38-1.88.23h0Z"/>
    <path class="st6" d="M1357.9,642.87c-4.03,11.06-6.09,22.73-6.03,34.51,0,.96,1.91.66,1.9-.16-.06-11.64,1.93-23.22,5.92-34.16.36-1-1.52-.95-1.79-.19h0Z"/>
    <path class="st6" d="M1387.32,645.73c-3.82,12.23-4.91,25.16-3.16,37.86.09.68,1.99.24,1.88-.5-1.74-12.6-.62-25.43,3.17-37.57.22-.7-1.68-.45-1.89.22h0Z"/>
    <path class="st6" d="M1416.99,652.81c-2.34,11.67-3.08,23.59-2.28,35.46.04.66,1.94.26,1.88-.5-.8-11.77-.04-23.6,2.28-35.18.15-.76-1.75-.47-1.89.22h0Z"/>
    <path class="st6" d="M1446.13,652.28c1.34,12.99,1.62,26.07.8,39.1-.05.77,1.84.4,1.88-.23.83-13.12.55-26.29-.8-39.37-.06-.63-1.96-.21-1.88.5h0Z"/>
    <path class="st6" d="M1474.8,652.88c5.52,13.16,8.18,27.38,7.39,41.65-.04.81,1.85.46,1.89-.22.79-14.37-1.83-28.69-7.39-41.94-.29-.69-2.15-.13-1.88.5h0Z"/>
    <path class="st6" d="M1509.26,660.43c5.89,11.4,8.79,24.21,7.71,37.04-.07.8,1.83.46,1.89-.22,1.09-12.93-1.77-25.83-7.71-37.33-.35-.68-2.19-.08-1.88.5h0Z"/>
    <path class="st6" d="M1540.5,656.22c8.42,13.66,13.17,29.36,13.24,45.44,0,.59,1.89.23,1.88-.5-.08-16.19-4.91-31.92-13.38-45.67-.33-.53-2.16.07-1.75.74h0Z"/>
    <path class="st6" d="M1571.68,656.65c10.49,13.97,17.35,30.42,19.18,47.84.07.67,1.96.25,1.88-.5-1.5-14.25-6.35-27.96-13.88-40.14-1.69-2.73-3.51-5.38-5.44-7.95-.41-.54-2.23.11-1.74.76h0Z"/>
    <path class="st6" d="M1608.17,655.98c9.52,15.83,17.32,32.67,23.13,50.22.23.7,2.11.17,1.88-.5-5.84-17.64-13.69-34.55-23.27-50.47-.34-.57-2.17.05-1.74.76h0Z"/>
    <path class="st6" d="M1653.36,697.81c2.48-.06,4.95-.12,7.43-.19.37-.01.99-.28,1.06-.69.07-.46-.54-.5-.84-.49-2.48.07-4.95.13-7.43.19-.37,0-.99.28-1.06.69-.07.46.54.5.84.49h0Z"/>
  </g>
  <path class="st2" d="M404.07,276.76c-7.92-.61-11.44-6.67-14.55-12.02-2.99-5.15-5.57-9.59-11.4-10.04-5.81-.45-9.05,3.55-12.8,8.18-3.89,4.81-8.3,10.25-16.22,9.65-7.92-.61-11.44-6.67-14.54-12.02-2.99-5.15-5.57-9.59-11.39-10.04-5.83-.44-9.05,3.55-12.8,8.18-3.89,4.81-8.3,10.26-16.21,9.65-7.92-.61-11.44-6.67-14.54-12.02-2.99-5.15-5.57-9.59-11.39-10.04l.31-3.99c7.92.61,11.44,6.67,14.54,12.02,2.99,5.15,5.57,9.59,11.39,10.04,5.82.45,9.05-3.55,12.8-8.18,3.89-4.81,8.29-10.26,16.21-9.65,7.92.61,11.44,6.67,14.54,12.02,2.99,5.15,5.57,9.59,11.39,10.04,5.81.45,9.05-3.55,12.8-8.18,3.89-4.81,8.29-10.26,16.22-9.65,7.92.61,11.44,6.67,14.55,12.02,2.99,5.15,5.57,9.59,11.4,10.04l-.31,3.99Z"/>
  <path class="st4" d="M1370.63,410.21c6.68.17,6.43,10.17,13.11,10.34,6.69.17,6.94-9.82,13.63-9.65s6.43,10.17,13.11,10.34,6.94-9.82,13.63-9.65c6.69.17,6.43,10.17,13.11,10.34,6.69.17,6.95-9.82,13.63-9.65,6.69.17,6.43,10.17,13.11,10.34,6.69.17,6.95-9.82,13.64-9.65,6.69.17,6.43,10.17,13.12,10.34"/>
  <path class="st4" d="M625.75,14.48c4.32,5.11-3.32,11.56.99,16.67s11.96-1.34,16.27,3.77-3.32,11.56.99,16.67,11.96-1.34,16.28,3.77-3.32,11.57,1,16.68"/>
  <path class="st5" d="M451.43,695.79c-.34,1.63-.6,4.33.65,6.99,2.63,5.57,10.21,7.25,15.65,6.25,6.86-1.26,11.67-7.01,12.78-12.27.44-2.09.7-5.96-1.04-6.85-1.62-.83-4.2,1.33-4.97,1.98-.71.59-6.03,5.2-4.71,11.21,1.23,5.6,7.43,8.74,12.74,8.34,6.48-.49,10.57-6.17,11.47-10.62.12-.57,1-4.95-1.14-6.34-1.6-1.04-4.45-.13-5.85,1.46-3.55,4.03-1.03,15.94,5.93,18.24,7.59,2.51,17.1-7.52,16.01-11.74-.39-1.51-2.23-2.59-3.74-2.6-2.92-.02-5.51,3.95-5.85,7.47-.32,3.35,1.35,6.57,3.74,8.29,1.47,1.06,3.31,1.3,6.99,1.79,2.62.35,4.87.64,7.8.33,4.32-.47,7.4-1.99,9.26-2.92,4.73-2.38,8.01-5.53,10.07-7.96"/>
  <path class="st6" d="M558.93,218.52s-.02,0-.03,0c-.59-.1-7.28-.62-8.76-.86-1.29-.21-2.36-1.1-2.41-2.41-.04-1.15-.75-8.16-.86-8.75,0,0,0-.01,0-.02-.03-.15-.13-.24-.24-.28-.02-.01-.05-.02-.08-.02h-.02s-.06,0-.09.02c-.11.04-.2.13-.23.27,0,0,0,.01,0,.02-.1.59-.81,7.6-.86,8.75-.05,1.31-1.12,2.21-2.41,2.41-1.47.24-8.17.75-8.76.86,0,0-.02,0-.03,0-.39.07-.39.64,0,.7,0,0,.02,0,.03,0,.59.1,7.6.81,8.75.86,1.31.05,2.36,1.1,2.41,2.41.04,1.15.75,8.16.86,8.75,0,0,0,.02,0,.03.03.17.16.27.29.29,0,0,.02,0,.02,0,0,0,0,0,0,0h0s0,0,0,0c0,0,0,0,.01,0h0c.15-.01.29-.11.32-.29,0,0,0-.02,0-.03.1-.59.81-7.6.86-8.75.05-1.31,1.1-2.36,2.41-2.41,1.15-.04,8.16-.75,8.75-.86,0,0,.02,0,.03,0,.39-.07.39-.64,0-.7Z"/>
  <path class="st6" d="M602.79,486.76s-.02,0-.03,0c-.59-.1-7.28-.62-8.76-.86-1.29-.21-2.36-1.1-2.41-2.41-.04-1.15-.75-8.16-.86-8.75,0,0,0-.01,0-.02-.03-.15-.13-.24-.24-.28-.02-.01-.05-.02-.08-.02h-.02s-.06,0-.09.02c-.11.04-.2.13-.23.27,0,0,0,.01,0,.02-.1.59-.81,7.6-.86,8.75-.05,1.31-1.12,2.21-2.41,2.41-1.47.24-8.17.75-8.76.86,0,0-.02,0-.03,0-.39.07-.39.64,0,.7,0,0,.02,0,.03,0,.59.1,7.6.81,8.75.86,1.31.05,2.36,1.1,2.41,2.41.04,1.15.75,8.16.86,8.75,0,0,0,.02,0,.03.03.17.16.27.29.29,0,0,.02,0,.02,0,0,0,0,0,0,0h0s0,0,0,0c0,0,0,0,.01,0h0c.15-.01.29-.11.32-.29,0,0,0-.02,0-.03.1-.59.81-7.6.86-8.75.05-1.31,1.1-2.36,2.41-2.41,1.15-.04,8.16-.75,8.75-.86,0,0,.02,0,.03,0,.39-.07.39-.64,0-.7Z"/>
  <path class="st6" d="M355.87,656.85s-.02,0-.03,0c-.59-.1-7.28-.62-8.76-.86-1.29-.21-2.36-1.1-2.41-2.41-.04-1.15-.75-8.16-.86-8.75,0,0,0-.01,0-.02-.03-.15-.13-.24-.24-.28-.02-.01-.05-.02-.08-.02h-.02s-.06,0-.09.02c-.11.04-.2.13-.23.27,0,0,0,.01,0,.02-.1.59-.81,7.6-.86,8.75-.05,1.31-1.12,2.21-2.41,2.41-1.47.24-8.17.75-8.76.86,0,0-.02,0-.03,0-.39.07-.39.64,0,.7,0,0,.02,0,.03,0,.59.1,7.6.81,8.75.86,1.31.05,2.36,1.1,2.41,2.41.04,1.15.75,8.16.86,8.75,0,0,0,.02,0,.03.03.17.16.27.29.29,0,0,.02,0,.02,0,0,0,0,0,0,0h0s0,0,0,0c0,0,0,0,.01,0h0c.15-.01.29-.11.32-.29,0,0,0-.02,0-.03.1-.59.81-7.6.86-8.75.05-1.31,1.1-2.36,2.41-2.41,1.15-.04,8.16-.75,8.75-.86,0,0,.02,0,.03,0,.39-.07.39-.64,0-.7Z"/>
  <path class="st6" d="M1179.94,442.86s-.02,0-.03,0c-.59-.1-7.28-.62-8.76-.86-1.29-.21-2.36-1.1-2.41-2.41-.04-1.15-.75-8.16-.86-8.75,0,0,0-.01,0-.02-.03-.15-.13-.24-.24-.28-.02-.01-.05-.02-.08-.02h-.02s-.06,0-.09.02c-.11.04-.2.13-.23.27,0,0,0,.01,0,.02-.1.59-.81,7.6-.86,8.75-.05,1.31-1.12,2.21-2.41,2.41-1.47.24-8.17.75-8.76.86,0,0-.02,0-.03,0-.39.07-.39.64,0,.7,0,0,.02,0,.03,0,.59.1,7.6.81,8.75.86,1.31.05,2.36,1.1,2.41,2.41.04,1.15.75,8.16.86,8.75,0,0,0,.02,0,.03.03.17.16.27.29.29,0,0,.02,0,.02,0,0,0,0,0,0,0h0s0,0,0,0c0,0,0,0,.01,0h0c.15-.01.29-.11.32-.29,0,0,0-.02,0-.03.1-.59.81-7.6.86-8.75.05-1.31,1.1-2.36,2.41-2.41,1.15-.04,8.16-.75,8.75-.86,0,0,.02,0,.03,0,.39-.07.39-.64,0-.7Z"/>
  <path class="st6" d="M1638.87,223.58s-.02,0-.03,0c-.59-.1-7.28-.62-8.76-.86-1.29-.21-2.36-1.1-2.41-2.41-.04-1.15-.75-8.16-.86-8.75,0,0,0-.01,0-.02-.03-.15-.13-.24-.24-.28-.02-.01-.05-.02-.08-.02h-.02s-.06,0-.09.02c-.11.04-.2.13-.23.27,0,0,0,.01,0,.02-.1.59-.81,7.6-.86,8.75-.05,1.31-1.12,2.21-2.41,2.41-1.47.24-8.17.75-8.76.86,0,0-.02,0-.03,0-.39.07-.39.64,0,.7,0,0,.02,0,.03,0,.59.1,7.6.81,8.75.86,1.31.05,2.36,1.1,2.41,2.41.04,1.15.75,8.16.86,8.75,0,0,0,.02,0,.03.03.17.16.27.29.29,0,0,.02,0,.02,0,0,0,0,0,0,0h0s0,0,0,0c0,0,0,0,.01,0h0c.15-.01.29-.11.32-.29,0,0,0-.02,0-.03.1-.59.81-7.6.86-8.75.05-1.31,1.1-2.36,2.41-2.41,1.15-.04,8.16-.75,8.75-.86,0,0,.02,0,.03,0,.39-.07.39-.64,0-.7Z"/>
  <path class="st6" d="M1373.12,104.91s-.02,0-.03,0c-.59-.1-7.28-.62-8.76-.86-1.29-.21-2.36-1.1-2.41-2.41-.04-1.15-.75-8.16-.86-8.75,0,0,0-.01,0-.02-.03-.15-.13-.24-.24-.28-.02-.01-.05-.02-.08-.02h-.02s-.06,0-.09.02c-.11.04-.2.13-.23.27,0,0,0,.01,0,.02-.1.59-.81,7.6-.86,8.75-.05,1.31-1.12,2.21-2.41,2.41-1.47.24-8.17.75-8.76.86,0,0-.02,0-.03,0-.39.07-.39.64,0,.7,0,0,.02,0,.03,0,.59.1,7.6.81,8.75.86,1.31.05,2.36,1.1,2.41,2.41.04,1.15.75,8.16.86,8.75,0,0,0,.02,0,.03.03.17.16.27.29.29,0,0,.02,0,.02,0,0,0,0,0,0,0h0s0,0,0,0c0,0,0,0,.01,0h0c.15-.01.29-.11.32-.29,0,0,0-.02,0-.03.1-.59.81-7.6.86-8.75.05-1.31,1.1-2.36,2.41-2.41,1.15-.04,8.16-.75,8.75-.86,0,0,.02,0,.03,0,.39-.07.39-.64,0-.7Z"/>
  <path class="st6" d="M1156.66,171.31s-.02,0-.03,0c-.59-.1-7.28-.62-8.76-.86-1.29-.21-2.36-1.1-2.41-2.41-.04-1.15-.75-8.16-.86-8.75,0,0,0-.01,0-.02-.03-.15-.13-.24-.24-.28-.02-.01-.05-.02-.08-.02h-.02s-.06,0-.09.02c-.11.04-.2.13-.23.27,0,0,0,.01,0,.02-.1.59-.81,7.6-.86,8.75-.05,1.31-1.12,2.21-2.41,2.41-1.47.24-8.17.75-8.76.86,0,0-.02,0-.03,0-.39.07-.39.64,0,.7,0,0,.02,0,.03,0,.59.1,7.6.81,8.75.86,1.31.05,2.36,1.1,2.41,2.41.04,1.15.75,8.16.86,8.75,0,0,0,.02,0,.03.03.17.16.27.29.29,0,0,.02,0,.02,0,0,0,0,0,0,0h0s0,0,0,0c0,0,0,0,.01,0h0c.15-.01.29-.11.32-.29,0,0,0-.02,0-.03.1-.59.81-7.6.86-8.75.05-1.31,1.1-2.36,2.41-2.41,1.15-.04,8.16-.75,8.75-.86,0,0,.02,0,.03,0,.39-.07.39-.64,0-.7Z"/>
  <path class="st6" d="M739.86,57.43s-.02,0-.03,0c-.59-.1-7.28-.62-8.76-.86-1.29-.21-2.36-1.1-2.41-2.41-.04-1.15-.75-8.16-.86-8.75,0,0,0-.01,0-.02-.03-.15-.13-.24-.24-.28-.02-.01-.05-.02-.08-.02h-.02s-.06,0-.09.02c-.11.04-.2.13-.23.27,0,0,0,.01,0,.02-.1.59-.81,7.6-.86,8.75-.05,1.31-1.12,2.21-2.41,2.41-1.47.24-8.17.75-8.76.86,0,0-.02,0-.03,0-.39.07-.39.64,0,.7,0,0,.02,0,.03,0,.59.1,7.6.81,8.75.86,1.31.05,2.36,1.1,2.41,2.41.04,1.15.75,8.16.86,8.75,0,0,0,.02,0,.03.03.17.16.27.29.29,0,0,.02,0,.02,0,0,0,0,0,0,0h0s0,0,0,0c0,0,0,0,.01,0h0c.15-.01.29-.11.32-.29,0,0,0-.02,0-.03.1-.59.81-7.6.86-8.75.05-1.31,1.1-2.36,2.41-2.41,1.15-.04,8.16-.75,8.75-.86,0,0,.02,0,.03,0,.39-.07.39-.64,0-.7Z"/>
  <path class="st6" d="M480.89,251.47s-.02,0-.03,0c-.59-.1-7.28-.62-8.76-.86-1.29-.21-2.36-1.1-2.41-2.41-.04-1.15-.75-8.16-.86-8.75,0,0,0-.01,0-.02-.03-.15-.13-.24-.24-.28-.02-.01-.05-.02-.08-.02h-.02s-.06,0-.09.02c-.11.04-.2.13-.23.27,0,0,0,.01,0,.02-.1.59-.81,7.6-.86,8.75-.05,1.31-1.12,2.21-2.41,2.41-1.47.24-8.17.75-8.76.86,0,0-.02,0-.03,0-.39.07-.39.64,0,.7,0,0,.02,0,.03,0,.59.1,7.6.81,8.75.86,1.31.05,2.36,1.1,2.41,2.41.04,1.15.75,8.16.86,8.75,0,0,0,.02,0,.03.03.17.16.27.29.29,0,0,.02,0,.02,0,0,0,0,0,0,0h0s0,0,0,0c0,0,0,0,.01,0h0c.15-.01.29-.11.32-.29,0,0,0-.02,0-.03.1-.59.81-7.6.86-8.75.05-1.31,1.1-2.36,2.41-2.41,1.15-.04,8.16-.75,8.75-.86,0,0,.02,0,.03,0,.39-.07.39-.64,0-.7Z"/>
  <path class="st15" d="M1162.47,595.27c1.5-.85,3.42-.95,5.12-.09l51.1,25.73c1.7.86,2.77,2.46,2.97,4.17l7.55,44.37c.53,2.67-1.08,5.33-3.43,6.28l-76.85,29.63c-1.6.53-3.2.52-4.69-.23s-2.45-2.03-2.97-3.63l-21.95-79.38c-.85-2.56.55-5.33,3-6.49l40.15-20.35Z"/>
  <path class="st12" d="M363.59,141.69c.48-1.92,1.93-3.6,4-4.34l62.15-22.09c2.07-.74,4.25-.35,5.84.84l42.99,29.05c2.64,1.69,3.58,5.14,2.5,7.86l-36.52,87.64c-.84,1.76-2.11,3.09-3.92,3.73s-3.65.42-5.4-.42l-83.64-44.94c-2.81-1.34-4-4.7-3.02-7.68l15.01-49.67Z"/>
  <path class="st6" d="M130.58,190.12c-.49-1.64-.16-3.54,1.05-5l36.43-44.02c1.21-1.47,3.01-2.15,4.72-1.97l44.88,2.53c2.72.08,4.95,2.24,5.35,4.74l11.74,81.41c.16,1.68-.2,3.23-1.26,4.51s-2.53,1.93-4.2,2.09l-82.17,3.7c-2.68.25-5.07-1.72-5.65-4.37l-10.88-43.61Z"/>
  <path class="st14" d="M119.49,207.59c-.49-1.64-.16-3.54,1.05-5l36.43-44.02c1.21-1.47,3.01-2.15,4.72-1.97l44.88,2.53c2.72.08,4.95,2.24,5.35,4.74l11.74,81.41c.16,1.68-.2,3.23-1.26,4.51s-2.53,1.93-4.2,2.09l-82.17,3.7c-2.68.25-5.07-1.72-5.65-4.37l-10.88-43.61Z"/>
  <path class="st6" d="M130.58,190.12c-.49-1.64-.16-3.54,1.05-5l36.43-44.02c1.21-1.47,3.01-2.15,4.72-1.97l44.88,2.53c2.72.08,4.95,2.24,5.35,4.74l11.74,81.41c.16,1.68-.2,3.23-1.26,4.51s-2.53,1.93-4.2,2.09l-82.17,3.7c-2.68.25-5.07-1.72-5.65-4.37l-10.88-43.61Z"/>
  <path class="st13" d="M487.51,310.86c1.53-.85,3.49-.93,5.21-.04l51.72,26.74c1.72.89,2.79,2.53,2.98,4.27l7.2,45.23c.51,2.72-1.16,5.41-3.56,6.35l-78.52,29.32c-1.64.52-3.26.5-4.77-.28s-2.47-2.1-2.99-3.73l-21.48-81.02c-.83-2.62.62-5.42,3.13-6.58l41.07-20.28Z"/>
  <path class="st13" d="M487.51,310.86c1.53-.85,3.49-.93,5.21-.04l51.72,26.74c1.72.89,2.79,2.53,2.98,4.27l7.2,45.23c.51,2.72-1.16,5.41-3.56,6.35l-78.52,29.32c-1.64.52-3.26.5-4.77-.28s-2.47-2.1-2.99-3.73l-21.48-81.02c-.83-2.62.62-5.42,3.13-6.58l41.07-20.28Z"/>
  <path class="st8" d="M79.82,354.57c.34-1.52,1.45-2.87,3.06-3.49l48.42-18.55c1.61-.62,3.34-.35,4.61.55l34.35,22.01c2.11,1.28,2.91,3.97,2.12,6.13l-27.02,69.58c-.62,1.4-1.6,2.47-3.01,3.01s-2.86.4-4.25-.22l-66.6-33.71c-2.23-1-3.24-3.62-2.52-5.97l10.85-39.32Z"/>
  <path class="st7" d="M1502.16,419.38c.34-1.52,1.45-2.87,3.06-3.49l48.42-18.55c1.61-.62,3.34-.35,4.61.55l34.35,22.01c2.11,1.28,2.91,3.97,2.12,6.13l-27.02,69.58c-.62,1.4-1.6,2.47-3.01,3.01s-2.86.4-4.25-.22l-66.6-33.71c-2.23-1-3.24-3.62-2.52-5.97l10.85-39.32Z"/>
  <path class="st6" d="M645.89,540.88c1.54-.82,3.5-.88,5.21.04l51.32,27.51c1.71.92,2.75,2.58,2.92,4.32l6.53,45.34c.47,2.73-1.24,5.39-3.65,6.3l-78.95,28.15c-1.64.5-3.27.45-4.76-.35s-2.44-2.13-2.93-3.77l-20.27-81.33c-.79-2.63.7-5.41,3.22-6.53l41.37-19.66Z"/>
  <path class="st11" d="M430.3,524.59c-.16-1.71.54-3.5,2.02-4.7l44.47-36c1.48-1.2,3.38-1.51,5.02-1l43.55,11.36c2.65.62,4.41,3.18,4.31,5.71l-4.59,82.23c-.18,1.68-.84,3.13-2.13,4.18s-2.86,1.39-4.53,1.22l-81.39-12.64c-2.68-.28-4.63-2.69-4.69-5.41l-2.04-44.96Z"/>
  <path class="st13" d="M1512.85,107.01c1.65-.48,3.54-.14,5,1.09l43.81,36.8c1.46,1.23,2.13,3.03,1.93,4.74l-2.86,44.92c-.1,2.72-2.28,4.94-4.78,5.32l-81.6,11.15c-1.68.15-3.24-.23-4.51-1.3s-1.91-2.54-2.06-4.22l-3.09-82.31c-.23-2.69,1.76-5.06,4.42-5.63l43.75-10.57Z"/>
  <path class="st11" d="M1283.11,164.33c1.27-1.16,3.12-1.69,4.97-1.24l55.57,13.61c1.85.45,3.25,1.78,3.83,3.39l17.32,41.54c1.11,2.48.14,5.43-1.93,6.89l-68.23,46.13c-1.44.88-3,1.23-4.62.83s-2.84-1.43-3.71-2.87l-39.21-72.43c-1.4-2.31-.66-5.32,1.47-7l34.55-28.85Z"/>
  <path class="st9" d="M1446.43,238.41c1.48-.87,3.4-.99,5.12-.16l51.42,25.09c1.71.84,2.8,2.43,3.02,4.13l8.11,44.27c.56,2.66-1.01,5.34-3.35,6.32l-76.47,30.59c-1.6.55-3.19.56-4.69-.17-1.5-.73-2.47-2-3.02-3.6l-22.94-79.1c-.88-2.55.48-5.34,2.92-6.53l39.89-20.85Z"/>
  <path class="st6" d="M1431.43,222.41c1.48-.87,3.4-.99,5.12-.16l51.42,25.09c1.71.84,2.8,2.43,3.02,4.13l8.11,44.27c.56,2.66-1.01,5.34-3.35,6.32l-76.47,30.59c-1.6.55-3.19.56-4.69-.17-1.5-.73-2.47-2-3.02-3.6l-22.94-79.1c-.88-2.55.48-5.34,2.92-6.53l39.89-20.85Z"/>
  <path class="st12" d="M1407.44,440.04c1.52-.81,3.44-.85,5.12.05l50.35,27.17c1.68.91,2.7,2.54,2.85,4.25l6.29,44.57c.45,2.68-1.23,5.29-3.61,6.18l-77.66,27.44c-1.62.48-3.22.43-4.68-.36-1.47-.79-2.39-2.1-2.87-3.72l-19.69-79.98c-.77-2.58.7-5.31,3.19-6.41l40.71-19.21Z"/>
  <path class="st11" d="M1150.47,584.27c1.5-.85,3.42-.95,5.12-.09l51.1,25.73c1.7.86,2.77,2.46,2.97,4.17l7.55,44.37c.53,2.67-1.08,5.33-3.43,6.28l-76.85,29.63c-1.6.53-3.2.52-4.69-.23s-2.45-2.03-2.97-3.63l-21.95-79.38c-.85-2.56.55-5.33,3-6.49l40.15-20.35Z"/>
  <path class="st6" d="M1089.1,37.19c1.37-1.3,3.4-1.92,5.44-1.46l61.38,13.93c2.05.46,3.61,1.89,4.28,3.66l19.82,45.37c1.27,2.71.26,5.97-2,7.61l-74.19,52c-1.57.99-3.28,1.41-5.07,1-1.79-.41-3.15-1.52-4.14-3.09l-44.48-78.93c-1.58-2.51-.83-5.83,1.48-7.73l37.46-32.37Z"/>
  <path class="st10" d="M502.66,94.36c-.02-1.72.81-3.45,2.38-4.53l47.16-32.4c1.57-1.08,3.49-1.24,5.08-.6l42.53,14.75c2.59.82,4.15,3.51,3.85,6.03l-11.03,81.62c-.31,1.66-1.08,3.06-2.46,4s-2.96,1.17-4.62.86l-80.15-18.99c-2.65-.49-4.41-3.05-4.25-5.76l1.49-44.99Z"/>
  <g>
    <path class="st11" d="M675.29,574.66c-.17-.22-.35-.35-.37-.51-.02-.18.04-.4.15-.57.45-.68.91-1.34,1.4-1.99,1.58-2.1,3.18-4.21,4.77-6.31.24-.32.48-.66.69-1,.36-.58.19-.94-.43-.94-1.01,0-2.03.02-3.04.08-.63.03-1.21-.06-1.78-.29-.29-.12-.52-.59-.36-.85.31-.52.62-1.05,1.02-1.49,1.52-1.72,3.1-3.39,4.63-5.1.94-1.06,1.82-2.17,2.75-3.24.4-.46.85-.86,1.3-1.27.08-.07.34-.11.36-.08.08.16.22.4.15.51-.4.62-.8,1.25-1.29,1.81-1.86,2.14-3.76,4.25-5.63,6.38-.4.46-.81.91-1.16,1.4-.14.19-.27.52-.21.73.1.38.51.39.85.39.95,0,1.89-.04,2.84-.05.33,0,.68,0,1.01.06.67.1,1.01.79.68,1.38s-.68,1.18-1.08,1.72c-1.32,1.79-2.69,3.56-4.03,5.35-.85,1.13-1.68,2.28-2.54,3.41-.14.19-.41.3-.67.48h-.01Z"/>
    <path class="st11" d="M690.52,573.13c-.05-.12-.07-.27-.15-.35-.25-.23-.52-.43-.79-.62-1.16-.84-1.17-1.46.02-2.31,1.04-.75,2.11-1.46,3.18-2.19.55-.38,1.11-.77,1.68-1.14.17-.11.35-.2.55-.24.11-.02.28.04.35.12.07.08.12.28.07.35-.18.27-.37.58-.62.77-1.14.84-2.31,1.64-3.47,2.46-.33.23-.66.47-.94.76-.09.1-.1.41-.01.53.2.26.48.47.72.7s.49.46.7.72c.3.38.24,1.01-.15,1.28-.49.35-1.01.68-1.55.96-3.06,1.6-6.06,3.3-8.95,5.18-.12.07-.22.15-.35.21-.98.59-1.49.68-1.57.27-.12-.72.54-.87.94-1.14,2.41-1.62,4.92-3.09,7.49-4.45.9-.47,1.75-1.01,2.62-1.54.1-.06.15-.22.22-.33h.01Z"/>
  </g>
  <path class="st2" d="M134.16,140.5c-.14-.87.16-1.82.87-2.48l21.56-19.99c.72-.67,1.68-.89,2.54-.68l22.73,4.33c1.38.23,2.37,1.48,2.41,2.78l.48,42.33c-.03.87-.32,1.64-.95,2.22s-1.42.81-2.28.78l-42.17-3.67c-1.39-.05-2.47-1.22-2.59-2.61l-2.6-22.99Z"/>
  <path class="st6" d="M258.83,225.71l-1.73,2.77-7.82-4.89c-.78-.49-1.81-.25-2.3.53s-.25,1.81.53,2.3l7.82,4.89-3.28,5.25-7.82-4.89c-.78-.49-1.81-.25-2.3.53h0c-.49.78-.25,1.81.53,2.3l7.82,4.89-1.73,2.77c-.4.65-.21,1.49.44,1.9l2.21,1.38c.65.4,1.49.21,1.9-.44l.97-1.56,5.96,3.72c3.19,2,7.27,1.42,9.8-1.18l1.77-2.82c1.23-3.41-.03-7.32-3.23-9.32l-5.96-3.72.97-1.56c.4-.65.21-1.49-.44-1.9l-2.21-1.38c-.65-.4-1.49-.21-1.9.44Z"/>
  <path class="st2" d="M277.19,232.51c-.02-.1-.02-.2-.04-.32-.04-.22-.19-1.16-.47-2.82-.04-.27-.08-.51-.11-.71-.06-.38-.09-.61-.11-.71-.01-.06-.03-.17-.05-.32-.53-3.47-.8-5.25-.81-5.36-.27-1.81-.39-2.58-.7-4.57,0,0-.01-.01-.02,0l-4.75,3.11s-.02,0-.02,0c-.02-.22-.05-.6-.11-1.13-.03-.31-.07-.69-.12-1.13-.14-1.45-.26-2.64-.35-3.57,0-.03-.11-1.19-.31-3.46-.01-.11-.03-.39-.07-.83-.04-.48-.14-1.6-.29-3.35,0-.04,0-.09,0-.14,0-.01,0-.03.02-.03l6.71-4.4s.02,0,.02,0l-.25,9.97s0,.01.02,0l5.78-3.79s.01,0,.01,0c-.26,1.53-.42,2.51-.5,2.93-.22,1.3-.37,2.21-.46,2.74-.14.89-.4,2.42-.76,4.6-.18,1.05-.39,2.34-.65,3.88-.27,1.63-.54,3.26-.8,4.89-.17,1.03-.29,1.78-.38,2.26-.09.53-.22,1.28-.4,2.26,0,0-.01.01-.01,0h0Z"/>
  <path class="st2" d="M275.64,262.9c-.1,0-.19.02-.3.03-.21.01-1.1.07-2.68.17-.26.02-.48.03-.67.05-.36.03-.58.05-.67.05-.06,0-.16,0-.31.02-3.28.26-4.97.39-5.07.4-1.71.14-2.44.19-4.33.33,0,0-.01,0,0-.02l1.83-5s0-.02,0-.01c-.21.03-.56.08-1.06.14-.29.04-.65.08-1.06.13-1.36.18-2.47.33-3.34.44-.03,0-1.11.15-3.23.45-.1.01-.36.05-.77.11-.45.06-1.49.22-3.12.45-.04,0-.08.02-.13.03-.01,0-.02.01-.03.03l-2.59,7.07s0,.02.01.02l9.05-2.36s.01,0,0,.01l-2.23,6.09s0,.01,0,0c1.34-.56,2.2-.92,2.57-1.08,1.14-.48,1.94-.81,2.41-1,.78-.32,2.13-.88,4.04-1.68.92-.38,2.06-.86,3.41-1.42,1.43-.59,2.86-1.19,4.29-1.78.9-.37,1.56-.65,1.98-.82.46-.2,1.12-.48,1.98-.84,0,0,0-.01,0-.01h0Z"/>
</svg>