<?xml version="1.0" encoding="UTF-8"?>
<svg id="sunburst" xmlns="http://www.w3.org/2000/svg" xmlns:xlink="http://www.w3.org/1999/xlink" version="1.1" viewBox="0 0 1470 620">
  <!-- Generator: Adobe Illustrator 30.0.0, SVG Export Plug-In . SVG Version: 2.1.1 Build 123)  -->
  <defs>
    <style>
      .st0, .st1, .st2, .st3 {
        fill: none;
      }

      .st4 {
        fill: #ceb372;
      }

      .st1 {
        stroke-width: 3px;
      }

      .st1, .st2, .st3 {
        stroke: #ceb372;
        stroke-linecap: round;
        stroke-linejoin: round;
      }

      .st5 {
        fill: url(#_新規パターンスウォッチ_2);
      }

      .st2 {
        stroke-width: 2px;
      }

      .st3 {
        stroke-width: 1.7px;
      }
    </style>
    <pattern id="_新規パターンスウォッチ_2" data-name=" 新規パターンスウォッチ 2" x="0" y="0" width="48" height="48" patternTransform="translate(-8275.31 -22207.34) rotate(-45) scale(1 -1)" patternUnits="userSpaceOnUse" viewBox="0 0 48 48">
      <g>
        <rect class="st0" width="48" height="48"/>
        <g>
          <rect class="st0" width="48" height="48"/>
          <g>
            <rect class="st0" width="48" height="48"/>
            <g>
              <rect class="st0" width="48" height="48"/>
              <g>
                <path class="st4" d="M24-2.4c1.32,0,2.4,1.07,2.4,2.4s-1.08,2.4-2.4,2.4-2.4-1.08-2.4-2.4,1.07-2.4,2.4-2.4Z"/>
                <path class="st4" d="M48-2.4c1.32,0,2.4,1.07,2.4,2.4s-1.08,2.4-2.4,2.4-2.4-1.08-2.4-2.4,1.07-2.4,2.4-2.4Z"/>
                <path class="st4" d="M24,21.6c1.32,0,2.4,1.07,2.4,2.4s-1.08,2.4-2.4,2.4-2.4-1.08-2.4-2.4,1.07-2.4,2.4-2.4Z"/>
                <path class="st4" d="M48,21.6c1.32,0,2.4,1.07,2.4,2.4s-1.08,2.4-2.4,2.4-2.4-1.08-2.4-2.4,1.07-2.4,2.4-2.4Z"/>
                <path class="st4" d="M36,9.6c1.32,0,2.4,1.07,2.4,2.4s-1.08,2.4-2.4,2.4-2.4-1.08-2.4-2.4,1.07-2.4,2.4-2.4Z"/>
                <path class="st4" d="M12,9.6c1.32,0,2.4,1.07,2.4,2.4s-1.08,2.4-2.4,2.4-2.4-1.08-2.4-2.4,1.07-2.4,2.4-2.4Z"/>
                <path class="st4" d="M36,33.6c1.32,0,2.4,1.07,2.4,2.4s-1.08,2.4-2.4,2.4-2.4-1.08-2.4-2.4,1.07-2.4,2.4-2.4Z"/>
                <path class="st4" d="M12,33.6c1.32,0,2.4,1.07,2.4,2.4s-1.08,2.4-2.4,2.4-2.4-1.08-2.4-2.4,1.07-2.4,2.4-2.4Z"/>
              </g>
              <g>
                <path class="st4" d="M0-2.4c1.32,0,2.4,1.07,2.4,2.4S1.32,2.4,0,2.4-2.4,1.32-2.4,0-1.33-2.4,0-2.4Z"/>
                <path class="st4" d="M0,21.6c1.32,0,2.4,1.07,2.4,2.4s-1.08,2.4-2.4,2.4-2.4-1.08-2.4-2.4,1.07-2.4,2.4-2.4Z"/>
              </g>
              <g>
                <path class="st4" d="M24,45.6c1.32,0,2.4,1.07,2.4,2.4s-1.08,2.4-2.4,2.4-2.4-1.08-2.4-2.4,1.07-2.4,2.4-2.4Z"/>
                <path class="st4" d="M48,45.6c1.32,0,2.4,1.07,2.4,2.4s-1.08,2.4-2.4,2.4-2.4-1.08-2.4-2.4,1.07-2.4,2.4-2.4Z"/>
              </g>
              <path class="st4" d="M0,45.6c1.32,0,2.4,1.07,2.4,2.4s-1.08,2.4-2.4,2.4-2.4-1.08-2.4-2.4,1.07-2.4,2.4-2.4Z"/>
            </g>
          </g>
        </g>
      </g>
    </pattern>
  </defs>
  <g>
    <line class="st1" x1="735.91" y1="611.96" x2="735.91" y2="580.41"/>
    <path class="st2" d="M682.91,613c2.94-16.02,6.09-32.01,8.96-48.05"/>
    <g>
      <path class="st2" d="M627.39,611.79c10.45-28.25,20.84-56.56,31.12-84.87"/>
      <path class="st2" d="M625.86,616.13c.15-.4.3-.81.45-1.21"/>
    </g>
    <line class="st2" x1="574.88" y1="596.23" x2="629.2" y2="502.06"/>
    <g>
      <path class="st2" d="M508.63,587.78c31.35-37.15,63.03-74.01,93.91-111.55"/>
      <path class="st2" d="M504.25,592.97c.56-.66,1.11-1.33,1.67-1.99"/>
    </g>
    <g>
      <path class="st2" d="M472.47,538.39c32.87-27.62,65.74-55.19,98.61-82.81"/>
      <path class="st2" d="M466.14,543.7c.87-.73,1.75-1.47,2.62-2.2"/>
    </g>
    <g>
      <line class="st1" x1="347.14" y1="541.84" x2="545.93" y2="426.97"/>
      <line class="st1" x1="340.84" y1="545.48" x2="342.77" y2="544.37"/>
    </g>
    <g>
      <path class="st2" d="M277.19,487.28c82.61-29.75,164.27-62.02,246.61-92.51"/>
      <path class="st2" d="M271.93,489.17c.67-.24,1.35-.48,2.02-.72"/>
    </g>
    <g>
      <path class="st2" d="M217.04,409.65c92.69-16.37,185.32-33.15,277.97-49.82"/>
      <path class="st2" d="M210.83,410.74c.82-.14,1.63-.29,2.45-.43"/>
    </g>
    <g>
      <line class="st1" x1="477.92" y1="317.39" x2="481.1" y2="317.39"/>
      <line class="st1" x1="467.9" y1="317.39" x2="471.31" y2="317.39"/>
      <line class="st1" x1="293.43" y1="317.4" x2="461.52" y2="317.4"/>
      <line class="st1" x1="107.89" y1="317.47" x2="148.94" y2="317.46"/>
      <line class="st1" x1="97.12" y1="317.47" x2="100.11" y2="317.47"/>
    </g>
    <g>
      <path class="st2" d="M335.21,246.27c54.34,9.74,108.57,20.09,162.91,29.81"/>
      <path class="st2" d="M326.85,244.78c.91.16,1.83.32,2.74.48"/>
    </g>
    <g>
      <path class="st2" d="M508.86,234.66c.54.2,1.07.38,1.61.58"/>
      <path class="st2" d="M500.25,231.52c.72.25,1.41.51,2.12.76"/>
      <path class="st2" d="M320.11,166.44c57.99,20.96,115.97,41.87,173.94,62.85"/>
    </g>
    <g>
      <line class="st2" x1="323.88" y1="79.62" x2="480.26" y2="169.82"/>
      <line class="st2" x1="319.5" y1="77.09" x2="320.64" y2="77.74"/>
    </g>
    <g>
      <path class="st1" d="M562.77,172.17l1.25,1.05"/>
      <path class="st1" d="M440.4,69.54c39.62,33.23,79.24,66.46,118.86,99.69"/>
      <path class="st1" d="M400.83,36.38c14.29,11.98,28.58,23.97,42.87,35.94"/>
      <path class="st1" d="M395.37,31.8c.57.47,1.13.95,1.7,1.42"/>
    </g>
    <g>
      <path class="st2" d="M585.93,138.53c.58.68,1.14,1.37,1.72,2.05"/>
      <path class="st2" d="M500.72,36.6c26.87,32.3,53.88,64.5,80.84,96.73"/>
      <path class="st2" d="M496.04,30.98c.36.43.72.87,1.07,1.3"/>
    </g>
    <g>
      <line class="st2" x1="577.11" y1="42.61" x2="621.64" y2="119.68"/>
      <line class="st2" x1="573.84" y1="36.95" x2="574.84" y2="38.67"/>
    </g>
    <g>
      <path class="st2" d="M627.36,18.56c11.82,33.54,23.58,67.11,35.37,100.67"/>
      <path class="st2" d="M626.12,15.07c.13.37.26.73.39,1.1"/>
    </g>
    <g>
      <path class="st2" d="M683.13,34.55c4.97,28.12,9.95,56.24,14.96,84.36"/>
      <path class="st2" d="M682.22,29.42c.1.57.2,1.15.3,1.72"/>
    </g>
    <g>
      <line class="st1" x1="735.71" y1="16.71" x2="735.72" y2="118.91"/>
      <line class="st1" x1="735.71" y1="10.36" x2="735.71" y2="11.51"/>
    </g>
    <g>
      <path class="st2" d="M785.18,32.25c-4.88,29.11-10.16,58.14-15.75,87.15"/>
      <path class="st2" d="M786.54,24.07c-.17,1-.33,2-.5,3.01"/>
    </g>
    <path class="st2" d="M843.84,13.87c-12.69,35.16-25.38,70.36-38.02,105.52"/>
    <line class="st2" x1="898.22" y1="34.03" x2="849.13" y2="119.13"/>
    <path class="st2" d="M980.27,25.07c-31,36.63-61.91,73.36-92.92,110.08"/>
    <path class="st2" d="M983.78,20.92l-1.29,1.53"/>
    <g>
      <path class="st1" d="M921.41,161.73c-.42.35-.84.7-1.26,1.05"/>
      <path class="st1" d="M1059.26,46.52c-44.42,37.5-89.06,74.7-133.78,111.84"/>
      <path class="st1" d="M1064.53,42.2c-.49.41-.97.82-1.46,1.24"/>
    </g>
    <g>
      <line class="st2" x1="945.27" y1="196.24" x2="942.45" y2="197.88"/>
      <line class="st2" x1="980.91" y1="175.64" x2="950.22" y2="193.37"/>
      <line class="st2" x1="1091.48" y1="111.75" x2="1021.02" y2="152.47"/>
      <line class="st2" x1="1096.64" y1="108.77" x2="1094.81" y2="109.83"/>
    </g>
    <g>
      <path class="st2" d="M1276.7,123.31c-102.63,36.98-205.3,73.87-307.84,111.13"/>
      <path class="st2" d="M1268.96,126.12c-.36.13-.71.26-1.07.38"/>
      <path class="st2" d="M1365.95,90.8c-.27.1-.54.2-.81.29"/>
      <path class="st2" d="M1385.62,83.48c-5.37,2-10.73,4.01-16.09,5.99"/>
    </g>
    <g>
      <path class="st2" d="M1175.41,241.86c-61.86,10.59-123.78,20.84-185.79,30.6"/>
      <path class="st2" d="M1180.55,240.91c-.63.11-1.25.21-1.88.32"/>
      <path class="st2" d="M1320.03,216.53c-11.47,2.05-22.94,4.09-34.41,6.12"/>
      <path class="st2" d="M1324.23,215.78c-.38.07-.77.14-1.15.21"/>
    </g>
    <g>
      <line class="st1" x1="1137.1" y1="317.14" x2="999.57" y2="317.17"/>
      <line class="st1" x1="1147.57" y1="317.13" x2="1144.05" y2="317.13"/>
      <line class="st1" x1="1251.82" y1="317.1" x2="1215.94" y2="317.11"/>
      <line class="st1" x1="1361.91" y1="317.06" x2="1337.52" y2="317.06"/>
      <line class="st1" x1="1370.64" y1="317.06" x2="1368.86" y2="317.06"/>
    </g>
    <g>
      <path class="st2" d="M1035.23,370.91c-16.77-3.06-33.53-6.12-50.29-9.17"/>
      <path class="st2" d="M1144.79,390.88c-6.27-1.14-12.55-2.28-18.82-3.43"/>
      <path class="st2" d="M1295.19,418.21c-35.07-6.35-70.11-12.72-105.13-19.09"/>
      <path class="st2" d="M1300.83,419.23c-.56-.1-1.13-.2-1.69-.31"/>
    </g>
    <g>
      <line class="st2" x1="1079.65" y1="515.62" x2="924.32" y2="426.02"/>
      <line class="st2" x1="1083.17" y1="517.66" x2="1082.48" y2="517.26"/>
    </g>
    <line class="st2" x1="1044.14" y1="429.77" x2="957.62" y2="396.6"/>
    <g>
      <path class="st2" d="M984.98,523.53c-27.89-23.31-56.04-46.31-84.86-68.48"/>
      <path class="st2" d="M989.92,527.67c-.59-.5-1.19-.99-1.78-1.49"/>
    </g>
    <g>
      <path class="st1" d="M956.89,585.1c-27.23-34.03-54.42-68.08-81.62-102.14"/>
      <path class="st1" d="M960.88,590.43c-.36-.44-.71-.89-1.07-1.34"/>
    </g>
    <g>
      <line class="st2" x1="892.44" y1="588.34" x2="845.53" y2="507.16"/>
      <line class="st2" x1="894.28" y1="591.53" x2="893.8" y2="590.7"/>
    </g>
    <g>
      <path class="st2" d="M844.46,614.35c-10.42-27.89-21.13-55.7-31.7-83.53"/>
      <path class="st2" d="M845.97,618.41c-.16-.42-.31-.83-.47-1.25"/>
    </g>
    <path class="st3" d="M783.5,610.77c-2.69-14.44-5.45-28.87-7.69-43.39"/>
  </g>
  <path class="st5" d="M741.04,579.28c-19.71,0-38.78-8.21-52.33-22.52l-180.65-190.77c-11.18-11.81-18.1-27.24-19.48-43.44-1.38-16.21,2.83-32.58,11.86-46.11l82.21-123.2c13.4-20.08,35.81-32.07,59.95-32.07h196.89c24.14,0,46.55,11.99,59.95,32.07l82.21,123.19c9.03,13.53,13.24,29.9,11.86,46.11s-8.3,31.64-19.48,43.44l-180.65,190.77c-13.55,14.31-32.62,22.52-52.33,22.52h-.01Z"/>
</svg>