<?xml version="1.0" encoding="UTF-8"?>
<svg id="sunburst" xmlns="http://www.w3.org/2000/svg" version="1.1" viewBox="0 0 1728 740">
  <!-- Generator: Adobe Illustrator 30.0.0, SVG Export Plug-In . SVG Version: 2.1.1 Build 123)  -->
  <defs>
    <style>
      .st0 {
        fill: #ceb372;
      }
    </style>
  </defs>
  <g>
    <path class="st0" d="M866.27,696.28c-.47,0-.85-.38-.85-.85l-.02-60.04c0-.47.38-.85.85-.85h0c.47,0,.85.38.85.85l.02,60.04c0,.47-.38.85-.85.85h0Z"/>
    <path class="st0" d="M866.28,725.53c-.47,0-.85-.38-.85-.85v-18.53c0-.47.37-.85.84-.85h0c.47,0,.85.38.85.85v18.53c0,.47-.37.85-.84.85h0Z"/>
  </g>
  <g>
    <path class="st0" d="M808.84,691.29c-.05,0-.1,0-.16-.01-.46-.09-.77-.53-.68-.99,2.39-12.86,4.94-25.92,7.41-38.54,2.64-13.54,5.38-27.55,7.93-41.35.09-.46.53-.77.99-.68.46.08.77.53.68.99-2.55,13.81-5.29,27.82-7.93,41.37-2.46,12.62-5.01,25.67-7.4,38.53-.08.41-.43.7-.83.7Z"/>
    <path class="st0" d="M802.75,726.03s-.09,0-.14-.01c-.46-.08-.78-.51-.7-.97.99-6.07,2.04-12.29,3.23-19.01.08-.46.52-.77.99-.69.46.08.77.52.69.99-1.19,6.71-2.25,12.92-3.23,18.99-.07.42-.43.71-.84.71Z"/>
  </g>
  <path class="st0" d="M729.3,726.32c-.1,0-.2-.02-.3-.06-.44-.17-.66-.66-.49-1.1,6.58-17.23,11.93-31.42,16.84-44.65.16-.44.65-.67,1.09-.5.44.16.66.65.5,1.09-4.91,13.24-10.26,27.43-16.84,44.67-.13.34-.45.55-.79.55Z"/>
  <g>
    <path class="st0" d="M755.63,553.55c-.15,0-.3-.04-.43-.12-.4-.24-.54-.76-.3-1.17l7.28-12.22c.24-.4.76-.54,1.17-.3.4.24.54.76.3,1.17l-7.28,12.22c-.16.27-.44.42-.73.42Z"/>
    <path class="st0" d="M745.6,570.4c-.15,0-.3-.04-.43-.12-.4-.24-.54-.76-.3-1.17l5.52-9.27c.24-.4.76-.54,1.17-.3.4.24.54.76.3,1.17l-5.52,9.27c-.16.27-.44.42-.73.42Z"/>
    <path class="st0" d="M650.68,729.85c-.15,0-.3-.04-.43-.12-.4-.24-.54-.76-.3-1.17l89.9-151.01c.24-.4.76-.54,1.17-.3.4.24.54.76.3,1.17l-89.9,151.01c-.16.27-.44.42-.73.42Z"/>
  </g>
  <g>
    <path class="st0" d="M596.74,675.9c-.2,0-.4-.07-.56-.21-.35-.31-.39-.84-.08-1.2,7.44-8.57,15.04-17.25,22.4-25.65,14.55-16.62,29.59-33.8,44.11-50.91.3-.36.84-.4,1.2-.1.36.3.4.84.1,1.2-14.53,17.12-29.58,34.31-44.13,50.93-7.35,8.4-14.95,17.08-22.39,25.64-.17.19-.4.29-.64.29Z"/>
    <path class="st0" d="M574.52,701.79c-.19,0-.39-.07-.55-.2-.36-.3-.41-.84-.1-1.2,3.71-4.41,7.55-8.91,11.72-13.76.31-.36.84-.4,1.2-.09.36.31.4.84.09,1.2-4.17,4.84-8,9.34-11.71,13.74-.17.2-.41.3-.65.3Z"/>
  </g>
  <g>
    <path class="st0" d="M607.5,579.29c-.25,0-.49-.11-.66-.31-.3-.36-.24-.9.12-1.2l99.18-80.71c.37-.29.9-.24,1.2.12.3.36.24.9-.12,1.2l-99.18,80.71c-.16.13-.35.19-.54.19Z"/>
    <path class="st0" d="M582.74,599.43c-.25,0-.49-.11-.66-.31-.3-.36-.24-.9.12-1.2l15.39-12.52c.36-.29.9-.24,1.2.12.3.36.24.9-.12,1.2l-15.39,12.52c-.16.13-.35.19-.54.19Z"/>
    <path class="st0" d="M560.39,617.62c-.25,0-.49-.11-.66-.31-.3-.36-.24-.9.12-1.2l12.67-10.31c.37-.29.9-.24,1.2.12.3.36.24.9-.12,1.2l-12.67,10.31c-.16.13-.35.19-.54.19Z"/>
  </g>
  <g>
    <path class="st0" d="M444.24,605.06c-.3,0-.59-.16-.74-.44-.23-.41-.08-.93.33-1.16l182.97-102.45c.41-.23.93-.08,1.16.33.23.41.08.93-.33,1.16l-182.97,102.45c-.13.07-.27.11-.41.11Z"/>
    <path class="st0" d="M422.9,617.01c-.3,0-.59-.16-.74-.44-.23-.41-.08-.93.33-1.16l12.09-6.77c.41-.23.93-.08,1.16.33.23.41.08.93-.33,1.16l-12.09,6.77c-.13.07-.27.11-.41.11Z"/>
    <path class="st0" d="M402.48,628.45c-.3,0-.59-.16-.74-.44-.23-.41-.08-.93.33-1.16l10.2-5.71c.41-.23.93-.08,1.16.33.23.41.08.93-.33,1.16l-10.2,5.71c-.13.07-.27.11-.41.11Z"/>
  </g>
  <g>
    <path class="st0" d="M520.66,492.22c-.35,0-.68-.22-.8-.56-.16-.44.07-.93.51-1.09,12.56-4.52,25.3-9.21,37.61-13.75,12.72-4.69,25.87-9.54,38.85-14.2.44-.16.93.07,1.09.51s-.07.93-.51,1.09c-12.97,4.66-26.12,9.5-38.83,14.19-12.32,4.54-25.06,9.24-37.63,13.76-.1.03-.19.05-.29.05Z"/>
    <path class="st0" d="M499.84,499.58c-.35,0-.68-.22-.8-.57-.15-.44.08-.93.52-1.08,3.07-1.06,6.14-2.14,9.2-3.22.44-.16.93.08,1.08.52.16.44-.08.93-.52,1.08-3.07,1.08-6.14,2.16-9.21,3.22-.09.03-.19.05-.28.05Z"/>
  </g>
  <g>
    <path class="st0" d="M369,546.46c-.35,0-.67-.21-.8-.56-.16-.44.06-.93.5-1.09,4.54-1.67,9.08-3.34,13.62-5.02,11.5-4.24,23.38-8.62,35.12-12.83.44-.16.93.07,1.09.51.16.44-.07.93-.51,1.09-11.73,4.21-23.61,8.59-35.1,12.83-4.54,1.67-9.08,3.35-13.62,5.02-.1.04-.2.05-.29.05Z"/>
    <path class="st0" d="M344.32,555.31c-.35,0-.67-.22-.8-.56-.16-.44.07-.93.51-1.09,4.28-1.54,8.55-3.09,12.82-4.65.44-.16.93.07,1.09.51.16.44-.07.93-.51,1.09-4.27,1.56-8.55,3.11-12.83,4.65-.1.03-.19.05-.29.05Z"/>
    <path class="st0" d="M320.44,563.93c-.35,0-.68-.22-.8-.57-.15-.44.08-.93.52-1.08,4.43-1.54,8.86-3.09,13.28-4.66.44-.16.93.07,1.09.52.16.44-.07.93-.52,1.08-4.42,1.57-8.85,3.13-13.29,4.67-.09.03-.19.05-.28.05Z"/>
  </g>
  <g>
    <path class="st0" d="M520.63,428.24c-.41,0-.77-.29-.84-.71-.08-.46.23-.9.69-.98,30.56-5.21,61.62-10.64,91.65-15.89l20.3-3.54c.46-.08.9.23.98.69.08.46-.23.9-.69.98l-20.29,3.54c-30.03,5.25-61.09,10.67-91.66,15.89-.05,0-.1.01-.14.01Z"/>
    <path class="st0" d="M489.85,433.44c-.41,0-.77-.29-.84-.71-.08-.46.23-.9.7-.98,4.96-.83,9.93-1.67,14.89-2.5.46-.08.9.23.98.7.08.46-.23.9-.7.98-4.96.84-9.93,1.67-14.9,2.5-.05,0-.09.01-.14.01Z"/>
    <path class="st0" d="M457.14,438.85c-.41,0-.77-.3-.84-.71-.08-.46.24-.9.7-.98,6.1-.99,12.21-1.99,18.31-3,.46-.08.9.24.98.7.08.46-.24.9-.7.98-6.1,1-12.21,2-18.31,3-.05,0-.09.01-.14.01Z"/>
  </g>
  <g>
    <path class="st0" d="M574.52,368.91c-.47,0-.85-.38-.85-.85,0-.47.38-.85.85-.85h15.67c.47,0,.85.37.85.84,0,.47-.38.85-.85.85h-15.67Z"/>
    <path class="st0" d="M394.16,368.97c-.47,0-.85-.38-.85-.85,0-.47.38-.85.85-.85l170.13-.06c.47,0,.85.38.85.85,0,.47-.38.85-.85.85l-170.13.06Z"/>
    <path class="st0" d="M179.18,369.04c-.47,0-.85-.38-.85-.85,0-.47.38-.85.85-.85h29.25c.47,0,.85.37.85.84,0,.47-.38.85-.85.85h-29.25Z"/>
    <path class="st0" d="M90.02,369.08c-.47,0-.85-.38-.85-.85,0-.47.38-.85.85-.85h13.6c.47,0,.85.38.85.84,0,.47-.38.85-.85.85h-13.6Z"/>
    <path class="st0" d="M67.13,369.08c-.47,0-.85-.38-.85-.85s.38-.85.85-.85h13.15c.47,0,.85.38.85.85s-.38.85-.85.85h-13.15Z"/>
  </g>
  <g>
    <path class="st0" d="M570.21,318.56s-.09,0-.14-.01c-15.1-2.54-30.43-5.29-45.25-7.95-11.85-2.12-24.11-4.32-36.17-6.4-.46-.08-.77-.52-.69-.98.08-.46.52-.76.98-.69,12.07,2.08,24.33,4.28,36.18,6.4,14.82,2.66,30.14,5.4,45.23,7.94.46.08.77.52.7.98-.07.42-.43.71-.84.71Z"/>
    <path class="st0" d="M473.42,301.62s-.09,0-.14-.01c-6.79-1.12-13.07-2.12-19.23-3.06-.46-.07-.78-.5-.71-.97.07-.46.51-.79.97-.71,6.16.94,12.45,1.94,19.25,3.06.46.08.78.51.7.98-.07.42-.43.71-.84.71Z"/>
  </g>
  <g>
    <path class="st0" d="M540.4,254.14c-.09,0-.19-.02-.28-.05-10.1-3.57-20.2-7.11-30.31-10.65-7.03-2.46-14.06-4.92-21.09-7.39-.44-.16-.68-.64-.52-1.08.16-.44.64-.68,1.08-.52,7.02,2.47,14.05,4.93,21.08,7.39,10.11,3.54,20.22,7.08,30.32,10.65.44.16.67.64.52,1.08-.12.35-.45.57-.8.57Z"/>
    <path class="st0" d="M475.43,231.33c-.09,0-.19-.02-.28-.05-5.2-1.84-10.4-3.68-15.59-5.53-.44-.16-.67-.64-.52-1.08.16-.44.64-.67,1.09-.52,5.2,1.84,10.4,3.68,15.59,5.52.44.16.67.64.52,1.08-.12.35-.45.57-.8.57Z"/>
    <path class="st0" d="M447.11,221.29c-.09,0-.19-.02-.29-.05-6.86-2.45-13.72-4.91-20.57-7.37-.44-.16-.67-.65-.51-1.09.16-.44.65-.67,1.09-.51,6.85,2.46,13.71,4.92,20.57,7.37.44.16.67.64.51,1.09-.12.35-.45.56-.8.56Z"/>
  </g>
  <g>
    <path class="st0" d="M611.53,226.43c-.14,0-.28-.04-.42-.11l-153.05-85.93c-.41-.23-.56-.75-.33-1.16s.75-.55,1.16-.33l153.05,85.93c.41.23.56.75.33,1.16-.16.28-.44.43-.74.43Z"/>
    <path class="st0" d="M407.69,111.06c-.14,0-.29-.04-.42-.11l-97.48-55.07c-.41-.23-.55-.75-.32-1.16.23-.41.75-.55,1.16-.32l97.48,55.07c.41.23.55.75.32,1.16-.16.28-.44.43-.74.43Z"/>
    <path class="st0" d="M303.64,52.38c-.14,0-.29-.04-.42-.11l-10.46-5.98c-.41-.23-.55-.75-.32-1.16.23-.41.75-.55,1.16-.32l10.46,5.98c.41.23.55.75.32,1.16-.16.27-.44.43-.74.43Z"/>
    <path class="st0" d="M287.35,43.2c-.14,0-.29-.04-.43-.11l-10.55-6.11c-.41-.24-.54-.76-.31-1.16.23-.41.76-.54,1.16-.31l10.55,6.11c.41.24.54.76.31,1.16-.16.27-.44.42-.74.42Z"/>
  </g>
  <g>
    <path class="st0" d="M662.01,204.3c-.19,0-.38-.06-.54-.19l-6.79-5.52c-.36-.3-.42-.83-.12-1.2.3-.36.83-.42,1.2-.12l6.79,5.52c.36.3.42.83.12,1.2-.17.21-.41.31-.66.31Z"/>
    <path class="st0" d="M652.1,196.25c-.19,0-.38-.06-.54-.19l-5.08-4.13c-.36-.3-.42-.83-.12-1.2.3-.36.83-.42,1.2-.12l5.08,4.13c.36.3.42.83.12,1.2-.17.21-.41.31-.66.31Z"/>
    <path class="st0" d="M643.57,189.32c-.19,0-.38-.06-.54-.19l-60.43-49.11c-.36-.3-.42-.83-.12-1.2.3-.36.83-.42,1.2-.12l60.43,49.11c.36.3.42.83.12,1.2-.17.21-.41.31-.66.31Z"/>
  </g>
  <g>
    <path class="st0" d="M504.06,78.53c-.19,0-.38-.06-.54-.19l-44.43-36.11c-.36-.3-.42-.83-.12-1.2.3-.36.83-.42,1.2-.12l44.43,36.11c.36.3.42.83.12,1.2-.17.21-.41.31-.66.31Z"/>
    <path class="st0" d="M453.1,37.11c-.19,0-.38-.06-.54-.19l-8.98-7.3c-.36-.3-.42-.83-.12-1.2.3-.36.83-.42,1.2-.12l8.98,7.3c.36.3.42.83.12,1.2-.17.21-.41.31-.66.31Z"/>
    <path class="st0" d="M438.19,25.36c-.19,0-.38-.06-.54-.19l-11.04-8.97c-.36-.3-.42-.83-.12-1.2.3-.36.83-.42,1.2-.12l11.04,8.97c.36.3.42.83.12,1.2-.17.21-.41.31-.66.31Z"/>
  </g>
  <g>
    <path class="st0" d="M681.67,155.75c-.24,0-.48-.1-.65-.3-19.17-22.47-38.8-45.19-57.79-67.17-14.6-16.89-29.7-34.36-44.48-51.6-.31-.36-.26-.89.09-1.2.36-.31.89-.26,1.2.09,14.78,17.23,29.88,34.7,44.47,51.6,18.99,21.98,38.63,44.7,57.8,67.17.3.36.26.89-.09,1.2-.16.14-.36.2-.55.2Z"/>
    <path class="st0" d="M573.53,29.91c-.24,0-.48-.1-.65-.3-2.78-3.28-5.55-6.57-8.32-9.85-.3-.36-.26-.9.1-1.2.36-.3.9-.26,1.2.1,2.77,3.29,5.54,6.57,8.32,9.85.3.36.26.89-.1,1.2-.16.14-.35.2-.55.2Z"/>
  </g>
  <g>
    <path class="st0" d="M728.09,137.26c-.29,0-.57-.14-.73-.41l-54.1-88.54c-.25-.4-.12-.92.28-1.17.4-.25.92-.12,1.17.28l54.1,88.54c.25.4.12.92-.28,1.17-.14.08-.29.12-.44.12Z"/>
    <path class="st0" d="M670.54,43.07c-.29,0-.58-.15-.74-.42l-6.73-11.59c-.24-.41-.1-.93.31-1.16.41-.24.93-.1,1.16.31l6.73,11.59c.24.41.1.93-.31,1.16-.13.08-.28.12-.43.12Z"/>
    <path class="st0" d="M659.76,25.43c-.29,0-.57-.14-.73-.41l-5.54-9.07c-.25-.4-.12-.92.28-1.17.4-.25.92-.12,1.17.28l5.54,9.07c.25.4.12.92-.28,1.17-.14.08-.29.12-.44.12Z"/>
  </g>
  <path class="st0" d="M742.11,38.15c-.34,0-.67-.21-.8-.55-2.77-7.34-5.31-13.85-7.76-19.92-.18-.44.03-.93.47-1.11.44-.18.93.03,1.11.47,2.46,6.08,5.01,12.6,7.78,19.96.17.44-.06.93-.5,1.1-.1.04-.2.05-.3.05Z"/>
  <g>
    <path class="st0" d="M820.09,128.77c-.4,0-.76-.29-.83-.7-4.8-26.03-9.83-53.54-14.96-81.76-.08-.46.22-.9.68-.99.46-.08.9.22.99.68,5.13,28.22,10.17,55.72,14.96,81.76.08.46-.22.9-.68.99-.05,0-.1.01-.15.01Z"/>
    <path class="st0" d="M803.52,37.37c-.4,0-.76-.29-.84-.7l-2.22-12.22c-.08-.46.22-.9.69-.99.46-.08.9.22.99.69l2.22,12.22c.08.46-.22.9-.68.99-.05,0-.1.01-.15.01Z"/>
  </g>
  <g>
    <path class="st0" d="M866.05,119.36h0c.47,0,.85.38.85.85v16.33c0,.47-.38.85-.85.85h0c-.47,0-.85-.38-.85-.85v-16.33c0-.47.38-.85.85-.85Z"/>
    <path class="st0" d="M866.04,111.63c-.47,0-.85-.38-.85-.85l-.05-58.95c0-.47.38-.85.85-.85h0c.47,0,.85.38.85.85l.05,58.95c0,.47-.38.85-.85.85h0Z"/>
    <path class="st0" d="M865.98,23.44h0c.47,0,.85.38.85.85v16.05c0,.47-.38.85-.85.85h0c-.47,0-.85-.38-.85-.85v-16.04c0-.47.38-.85.85-.85Z"/>
  </g>
  <g>
    <path class="st0" d="M906.83,136.86c-.06,0-.11,0-.17-.02-.46-.09-.76-.54-.66-1,.69-3.39,1.37-6.77,2.05-10.16.09-.46.54-.76,1-.67.46.09.76.54.67,1-.68,3.39-1.36,6.78-2.05,10.17-.08.4-.44.68-.83.68Z"/>
    <path class="st0" d="M910.46,118.73c-.05,0-.11,0-.17-.02-.46-.09-.76-.54-.67-1,.41-2.06.81-4.12,1.21-6.18.09-.46.54-.76,1-.67.46.09.76.54.67,1-.4,2.06-.8,4.13-1.21,6.19-.08.4-.44.69-.83.69Z"/>
    <path class="st0" d="M913.15,104.84c-.05,0-.11,0-.16-.02-.46-.09-.76-.53-.67-.99,1.56-8.17,3.1-16.39,4.55-24.42.08-.46.54-.77.99-.68.46.08.77.53.68.99-1.46,8.04-2.99,16.26-4.55,24.44-.08.41-.43.69-.83.69Z"/>
    <path class="st0" d="M928.26,30.06s-.1,0-.15-.01c-.46-.08-.77-.52-.69-.98.52-3.01,1.03-6.03,1.54-9.04.08-.46.52-.77.98-.7.46.08.78.52.7.98-.51,3.02-1.02,6.04-1.54,9.05-.07.41-.43.71-.84.71Z"/>
  </g>
  <g>
    <path class="st0" d="M960.45,117.48c-.1,0-.2-.02-.3-.05-.44-.16-.66-.65-.5-1.09,4.28-11.47,9.21-25.22,13.99-38.52,4.75-13.23,9.67-26.92,13.92-38.35.16-.44.65-.67,1.09-.5.44.16.66.65.5,1.09-4.26,11.42-9.17,25.1-13.92,38.33-4.78,13.3-9.71,27.05-14,38.54-.13.34-.45.55-.8.55Z"/>
    <path class="st0" d="M992.41,31.67c-.1,0-.2-.02-.3-.05-.44-.17-.66-.65-.5-1.09,1.24-3.3,2.48-6.59,3.72-9.89.17-.44.65-.66,1.1-.49.44.17.66.66.49,1.1-1.25,3.29-2.48,6.59-3.72,9.89-.13.34-.45.55-.8.55Z"/>
  </g>
  <path class="st0" d="M1004.05,137.17c-.15,0-.3-.04-.43-.12-.4-.24-.54-.76-.3-1.17l66.71-112.07c.24-.4.76-.54,1.17-.3.4.24.54.76.3,1.17l-66.71,112.07c-.16.27-.44.42-.73.42Z"/>
  <g>
    <path class="st0" d="M1043.46,163.9c-.19,0-.39-.07-.55-.2-.36-.3-.4-.84-.1-1.2,12.56-14.89,25.82-30.41,40.55-47.44.31-.36.84-.39,1.2-.09.36.31.39.84.09,1.2-14.73,17.02-27.99,32.54-40.54,47.42-.17.2-.41.3-.65.3Z"/>
    <path class="st0" d="M1150.57,45.27c-.2,0-.4-.07-.56-.21-.35-.31-.39-.85-.08-1.2,2.79-3.19,5.58-6.37,8.38-9.55.31-.35.85-.39,1.2-.08.35.31.39.85.08,1.2-2.79,3.18-5.58,6.37-8.37,9.55-.17.19-.4.29-.64.29Z"/>
    <path class="st0" d="M1163.48,30.54c-.2,0-.4-.07-.56-.21-.35-.31-.39-.85-.08-1.2l8.04-9.15c.31-.35.85-.39,1.2-.08.35.31.39.85.08,1.2l-8.04,9.15c-.17.19-.4.29-.64.29Z"/>
  </g>
  <g>
    <path class="st0" d="M1077.49,196.85c-.25,0-.49-.11-.66-.31-.3-.36-.25-.9.12-1.2,9.47-7.77,19.17-15.56,28.56-23.1,10.87-8.73,22.12-17.76,33.05-26.8.36-.3.9-.25,1.2.11.3.36.25.9-.11,1.2-10.94,9.04-22.19,18.08-33.07,26.81-9.38,7.54-19.08,15.33-28.55,23.09-.16.13-.35.19-.54.19Z"/>
    <path class="st0" d="M1149.62,139.22c-.25,0-.49-.11-.66-.31-.3-.36-.25-.9.12-1.2,4.19-3.43,8.38-6.86,12.56-10.29.37-.3.9-.24,1.2.12.3.36.24.9-.12,1.2-4.19,3.43-8.38,6.85-12.56,10.28-.16.13-.35.19-.54.19Z"/>
    <path class="st0" d="M1171.35,122.73c-.25,0-.49-.11-.66-.31-.3-.36-.24-.9.12-1.2l.5-.41c3.29-2.69,6.58-5.38,9.87-8.08.36-.3.9-.24,1.2.12.3.36.24.9-.12,1.2-3.29,2.69-6.58,5.39-9.87,8.08l-.5.41c-.16.13-.35.19-.54.19Z"/>
  </g>
  <g>
    <path class="st0" d="M1163.55,201.91c-.3,0-.58-.15-.74-.43-.23-.41-.09-.93.32-1.16l13.79-7.81c.41-.23.93-.09,1.16.32.23.41.09.93-.32,1.16l-13.79,7.81c-.13.07-.28.11-.42.11Z"/>
    <path class="st0" d="M1186.47,188.93c-.3,0-.58-.15-.74-.43-.23-.41-.09-.93.32-1.16l224.4-127.11c.41-.23.93-.09,1.16.32.23.41.09.93-.32,1.16l-224.4,127.11c-.13.07-.28.11-.42.11Z"/>
    <path class="st0" d="M1422.64,55.56c-.3,0-.58-.15-.74-.43-.23-.41-.09-.93.32-1.16l13.96-7.91c.41-.23.93-.09,1.16.32.23.41.09.93-.32,1.16l-13.96,7.91c-.13.07-.28.11-.42.11Z"/>
    <path class="st0" d="M1447.59,41.83c-.3,0-.58-.15-.74-.43-.23-.41-.09-.93.32-1.16l12.88-7.3c.41-.23.93-.09,1.16.32.23.41.09.93-.32,1.16l-12.88,7.3c-.13.07-.28.11-.42.11Z"/>
  </g>
  <g>
    <path class="st0" d="M1125.43,277.26c-.34,0-.66-.21-.79-.54-.17-.44.05-.93.48-1.1,4.61-1.8,9.23-3.58,13.86-5.35.44-.17.93.05,1.1.49.17.44-.05.93-.49,1.1-4.62,1.77-9.24,3.55-13.85,5.34-.1.04-.21.06-.31.06Z"/>
    <path class="st0" d="M1148.18,268.54c-.34,0-.67-.21-.79-.55-.17-.44.05-.93.49-1.1,25.61-9.69,52.93-19.58,83.51-30.24.44-.15.93.08,1.08.52.15.44-.08.93-.52,1.08-30.57,10.65-57.87,20.54-83.47,30.22-.1.04-.2.06-.3.06Z"/>
    <path class="st0" d="M1239.84,235.47c-.35,0-.68-.22-.8-.57-.15-.44.08-.93.52-1.08,3.5-1.21,7-2.42,10.5-3.62.44-.15.93.08,1.08.53.15.44-.08.93-.53,1.08-3.5,1.2-7,2.41-10.49,3.62-.09.03-.19.05-.28.05Z"/>
    <path class="st0" d="M1327.25,205.89c-.36,0-.69-.23-.81-.58-.15-.45.09-.93.54-1.08,9.78-3.26,19.55-6.5,29.33-9.75,30.02-9.97,61.07-20.29,91.51-30.66.44-.15.93.09,1.08.53.15.44-.09.93-.53,1.08-30.45,10.38-61.5,20.69-91.53,30.67-9.78,3.25-19.56,6.5-29.33,9.75-.09.03-.18.04-.27.04Z"/>
    <path class="st0" d="M1457.24,162.35c-.35,0-.68-.22-.8-.57-.15-.44.08-.93.53-1.08,3.46-1.19,6.92-2.38,10.38-3.57.44-.15.93.08,1.08.53.15.44-.08.93-.53,1.08-3.46,1.19-6.92,2.38-10.38,3.57-.09.03-.18.05-.28.05Z"/>
  </g>
  <g>
    <path class="st0" d="M1157.59,319.26c-.41,0-.77-.3-.84-.72-.07-.46.25-.9.71-.97,4.61-.71,9.22-1.43,13.83-2.16.46-.07.9.24.97.71s-.24.9-.71.97c-4.61.72-9.22,1.44-13.83,2.16-.04,0-.09.01-.13.01Z"/>
    <path class="st0" d="M1255.72,303.55c-.41,0-.77-.3-.84-.71-.08-.46.24-.9.7-.98,37.43-6.16,76.58-12.79,119.68-20.25.46-.07.9.23.98.69.08.46-.23.9-.69.98-43.1,7.46-82.25,14.09-119.69,20.25-.05,0-.09.01-.14.01Z"/>
    <path class="st0" d="M1385.72,281.51c-.41,0-.76-.29-.84-.71-.08-.46.23-.9.69-.98l11.25-1.96c.46-.08.9.23.98.69.08.46-.23.9-.69.98l-11.25,1.96s-.1.01-.15.01Z"/>
    <path class="st0" d="M1483.34,264.72c-.4,0-.76-.29-.84-.7-.08-.46.23-.9.69-.99l9.05-1.62c.46-.08.9.22.99.69.08.46-.23.9-.69.99l-9.05,1.62c-.05,0-.1.01-.15.01Z"/>
    <path class="st0" d="M1500.4,261.67c-.4,0-.76-.29-.84-.7-.08-.46.23-.9.69-.99l26.38-4.72c.45-.08.9.22.99.69.08.46-.22.9-.69.99l-26.38,4.72c-.05,0-.1.01-.15.01Z"/>
    <path class="st0" d="M1532.79,255.87c-.4,0-.76-.29-.84-.7-.08-.46.22-.9.69-.99l7.27-1.3c.46-.08.9.22.99.69.08.46-.22.9-.69.99l-7.27,1.3c-.05,0-.1.01-.15.01Z"/>
    <path class="st0" d="M1546.47,253.42c-.4,0-.76-.29-.84-.7-.08-.46.23-.9.69-.99l7.06-1.26c.46-.08.9.22.99.69.08.46-.22.9-.69.99l-7.06,1.26c-.05,0-.1.01-.15.01Z"/>
  </g>
  <g>
    <path class="st0" d="M1132.74,368.73c-.47,0-.85-.38-.85-.85,0-.47.38-.85.85-.85h12.3c.47,0,.85.38.85.84,0,.47-.38.85-.85.85h-12.3Z"/>
    <path class="st0" d="M1155.44,368.72c-.47,0-.85-.38-.85-.85,0-.47.38-.85.85-.85h13.37c.47,0,.85.38.85.84,0,.47-.38.85-.85.85h-13.37Z"/>
    <path class="st0" d="M1184.9,368.71c-.47,0-.85-.38-.85-.85,0-.47.38-.85.85-.85l151.12-.05c.47,0,.85.38.85.85,0,.47-.38.85-.85.85l-151.12.05Z"/>
    <path class="st0" d="M1430.1,368.63c-.47,0-.85-.38-.85-.85,0-.47.38-.85.85-.85l144.89-.03c.47,0,.85.38.85.85,0,.47-.38.85-.85.85l-144.89.03Z"/>
    <path class="st0" d="M1584.74,368.59c-.47,0-.85-.38-.85-.85,0-.47.38-.85.85-.85h11.5c.47,0,.85.37.85.84,0,.47-.38.85-.85.85h-11.5Z"/>
    <path class="st0" d="M1603.99,368.58c-.47,0-.85-.38-.85-.85,0-.47.38-.85.85-.85h14.39c.47,0,.85.37.85.84,0,.47-.38.85-.85.85h-14.39Z"/>
  </g>
  <g>
    <path class="st0" d="M1128.5,412.65s-.1,0-.15-.01l-12.84-2.27c-.46-.08-.77-.52-.69-.98.08-.46.52-.77.98-.69l12.84,2.27c.46.08.77.52.69.98-.07.41-.43.7-.84.7Z"/>
    <path class="st0" d="M1205.74,426.27s-.1,0-.15-.01c-23.26-4.09-46.51-8.19-69.71-12.29-.46-.08-.77-.52-.69-.98.08-.46.52-.77.98-.69,23.2,4.1,46.45,8.2,69.71,12.29.46.08.77.52.69.98-.07.41-.43.7-.84.7Z"/>
    <path class="st0" d="M1318.86,446s-.1,0-.15-.01l-11-1.9c-.46-.08-.77-.52-.69-.98.08-.46.52-.77.98-.69l11,1.9c.46.08.77.52.69.98-.07.41-.43.71-.84.71Z"/>
    <path class="st0" d="M1551.49,485s-.09,0-.14-.01c-66.96-10.79-140.06-23.03-223.49-37.42-.46-.08-.77-.52-.69-.98.08-.46.52-.77.98-.69,83.41,14.39,156.51,26.63,223.47,37.42.46.07.78.51.7.97-.07.42-.43.72-.84.72Z"/>
    <path class="st0" d="M1570.91,488.12s-.09,0-.13-.01l-9.71-1.56c-.46-.07-.78-.51-.7-.97.07-.46.51-.78.97-.7l9.71,1.56c.46.07.78.51.71.97-.07.42-.43.72-.84.72Z"/>
    <path class="st0" d="M1591.94,491.46s-.09,0-.13-.01l-11.85-1.88c-.46-.07-.78-.51-.71-.97.07-.46.5-.78.97-.71l11.85,1.88c.46.07.78.51.71.97-.07.42-.43.72-.84.72Z"/>
  </g>
  <g>
    <path class="st0" d="M1234.41,502.97c-.09,0-.18-.01-.27-.05-32.38-10.99-61.53-20.99-90.41-32.06-.44-.17-.66-.66-.49-1.1.17-.44.66-.66,1.1-.49,28.86,11.06,57.99,21.05,90.35,32.04.44.15.68.63.53,1.08-.12.35-.45.58-.8.58Z"/>
    <path class="st0" d="M1257.96,510.87c-.09,0-.18-.02-.28-.05-4.48-1.54-8.96-3.07-13.44-4.6-.44-.15-.68-.63-.53-1.08s.64-.68,1.08-.53c4.48,1.53,8.96,3.06,13.44,4.6.44.15.68.64.53,1.08-.12.35-.45.57-.8.57Z"/>
    <path class="st0" d="M1304.65,527.52c-.1,0-.2-.02-.3-.05-11.4-4.26-23.53-8.65-37.08-13.43-.44-.16-.68-.64-.52-1.08.16-.44.64-.68,1.08-.52,13.57,4.78,25.71,9.18,37.11,13.44.44.16.66.65.5,1.09-.13.34-.45.55-.8.55Z"/>
  </g>
  <g>
    <path class="st0" d="M1050.34,517.05c-.18,0-.36-.06-.52-.18-3.99-3.09-7.99-6.16-12.01-9.22-.37-.28-.45-.82-.16-1.19.28-.37.82-.45,1.19-.16,4.02,3.06,8.03,6.14,12.02,9.23.37.29.44.82.15,1.19-.17.22-.42.33-.67.33Z"/>
    <path class="st0" d="M1068.01,530.72c-.18,0-.37-.06-.52-.18-3.6-2.82-7.2-5.64-10.8-8.44-.37-.29-.44-.82-.15-1.19.29-.37.82-.44,1.19-.15,3.61,2.81,7.21,5.63,10.81,8.45.37.29.43.82.14,1.19-.17.21-.42.33-.67.33Z"/>
    <path class="st0" d="M1130.74,581.03c-.19,0-.38-.06-.54-.19-21.16-17.24-38.65-31.31-55.06-44.27-.37-.29-.43-.83-.14-1.19.29-.37.82-.43,1.19-.14,16.42,12.96,33.92,27.04,55.08,44.29.36.3.42.83.12,1.2-.17.21-.41.31-.66.31Z"/>
    <path class="st0" d="M1257.35,684.51c-.19,0-.38-.06-.53-.19-19.7-15.89-40.96-33.16-65.01-52.81-.36-.3-.42-.83-.12-1.2.3-.36.83-.42,1.2-.12,24.04,19.64,45.31,36.91,65,52.8.37.29.42.83.13,1.2-.17.21-.41.32-.66.32Z"/>
    <path class="st0" d="M1280.88,703.44c-.19,0-.37-.06-.53-.19-4.21-3.38-8.42-6.76-12.63-10.14-.37-.29-.42-.83-.13-1.19.29-.37.83-.43,1.2-.13,4.21,3.38,8.41,6.76,12.62,10.14.37.29.43.83.13,1.19-.17.21-.42.32-.66.32Z"/>
  </g>
  <g>
    <path class="st0" d="M1017.19,549.59c-.24,0-.47-.1-.64-.29l-15.5-17.89c-.31-.35-.27-.89.09-1.2.35-.31.89-.27,1.2.09l15.5,17.89c.31.35.27.89-.09,1.2-.16.14-.36.21-.56.21Z"/>
    <path class="st0" d="M1117.57,665.45c-.24,0-.47-.1-.64-.29l-92.97-107.3c-.31-.35-.27-.89.09-1.2.36-.31.89-.27,1.2.09l92.97,107.3c.31.35.27.89-.09,1.2-.16.14-.36.21-.56.21Z"/>
    <path class="st0" d="M1141.51,693.07c-.24,0-.47-.1-.64-.29l-14.35-16.56c-.31-.35-.27-.89.09-1.2.35-.31.89-.27,1.2.09l14.35,16.56c.31.35.27.89-.09,1.2-.16.14-.36.21-.56.21Z"/>
  </g>
  <g>
    <path class="st0" d="M1059.48,708.03c-.29,0-.57-.15-.73-.42l-40.34-67.66c-.24-.4-.11-.92.29-1.17.41-.24.93-.11,1.17.29l40.34,67.66c.24.4.11.92-.29,1.17-.14.08-.29.12-.43.12Z"/>
    <path class="st0" d="M1074.38,733.03c-.29,0-.57-.15-.73-.42l-8.53-14.3c-.24-.4-.11-.92.29-1.17.41-.24.93-.11,1.17.29l8.53,14.3c.24.4.11.92-.29,1.17-.14.08-.29.12-.43.12Z"/>
  </g>
  <g>
    <path class="st0" d="M986.99,690.11c-.34,0-.66-.21-.79-.54l-2.07-5.25c-2.77-7.05-5.55-14.1-8.29-21.16-.17-.44.05-.93.49-1.1.43-.17.93.05,1.1.49,2.74,7.06,5.51,14.11,8.28,21.15l2.07,5.26c.17.44-.04.93-.48,1.1-.1.04-.21.06-.31.06Z"/>
    <path class="st0" d="M996.51,714.63c-.34,0-.67-.21-.79-.55-1.84-4.83-3.71-9.65-5.59-14.47-.17-.44.05-.93.48-1.1.44-.17.93.05,1.1.48,1.88,4.82,3.75,9.65,5.6,14.49.17.44-.05.93-.49,1.1-.1.04-.2.06-.3.06Z"/>
  </g>
  <g>
    <path class="st0" d="M916.22,623.16c-.41,0-.77-.29-.84-.71-.71-4.15-1.39-8.3-2.05-12.46-.07-.46.24-.9.71-.97.46-.07.9.24.97.71.66,4.15,1.35,8.3,2.05,12.44.08.46-.23.9-.7.98-.05,0-.1.01-.14.01Z"/>
    <path class="st0" d="M929.26,693.06c-.4,0-.76-.28-.83-.69-.8-4.16-1.6-8.32-2.4-12.48-3.25-16.84-6.61-34.25-9.6-51.43-.08-.46.23-.9.69-.98.47-.08.9.23.98.69,3,17.16,6.35,34.57,9.6,51.4.8,4.16,1.6,8.32,2.4,12.48.09.46-.21.91-.67,1-.05,0-.11.02-.16.02Z"/>
    <path class="st0" d="M935.67,727.58c-.4,0-.76-.29-.84-.7-1.02-5.76-2.1-11.66-3.29-18.03-.09-.46.22-.91.68-.99.46-.09.91.22.99.68,1.19,6.38,2.27,12.28,3.29,18.05.08.46-.23.9-.69.99-.05,0-.1.01-.15.01Z"/>
  </g>
</svg>