<?xml version="1.0" encoding="UTF-8"?>
<svg id="sunburst" xmlns="http://www.w3.org/2000/svg" version="1.1" viewBox="0 0 1470 620">
  <!-- Generator: Adobe Illustrator 30.0.0, SVG Export Plug-In . SVG Version: 2.1.1 Build 123)  -->
  <defs>
    <style>
      .st0 {
        fill: #ceb372;
      }

      .st1 {
        stroke-width: 3px;
      }

      .st1, .st2, .st3 {
        fill: none;
        stroke: #ceb372;
        stroke-linecap: round;
        stroke-linejoin: round;
      }

      .st2 {
        stroke-width: 2px;
      }

      .st3 {
        stroke-width: 1.7px;
      }
    </style>
  </defs>
  <g>
    <line class="st1" x1="735.91" y1="611.96" x2="735.91" y2="580.41"/>
    <path class="st2" d="M682.91,613c2.94-16.02,6.09-32.01,8.96-48.05"/>
    <g>
      <path class="st2" d="M627.39,611.79c10.45-28.25,20.84-56.56,31.12-84.87"/>
      <path class="st2" d="M625.86,616.13c.15-.4.3-.81.45-1.21"/>
    </g>
    <line class="st2" x1="574.88" y1="596.23" x2="629.2" y2="502.06"/>
    <g>
      <path class="st2" d="M508.63,587.78c31.35-37.15,63.03-74.01,93.91-111.55"/>
      <path class="st2" d="M504.25,592.97c.56-.66,1.11-1.33,1.67-1.99"/>
    </g>
    <g>
      <path class="st2" d="M472.47,538.39c32.87-27.62,65.74-55.19,98.61-82.81"/>
      <path class="st2" d="M466.14,543.7c.87-.73,1.75-1.47,2.62-2.2"/>
    </g>
    <g>
      <line class="st1" x1="347.14" y1="541.84" x2="545.93" y2="426.97"/>
      <line class="st1" x1="340.84" y1="545.48" x2="342.77" y2="544.37"/>
    </g>
    <g>
      <path class="st2" d="M277.19,487.28c82.61-29.75,164.27-62.02,246.61-92.51"/>
      <path class="st2" d="M271.93,489.17c.67-.24,1.35-.48,2.02-.72"/>
    </g>
    <g>
      <path class="st2" d="M217.04,409.65c92.69-16.37,185.32-33.15,277.97-49.82"/>
      <path class="st2" d="M210.83,410.74c.82-.14,1.63-.29,2.45-.43"/>
    </g>
    <g>
      <line class="st1" x1="477.92" y1="317.39" x2="481.1" y2="317.39"/>
      <line class="st1" x1="467.9" y1="317.39" x2="471.31" y2="317.39"/>
      <line class="st1" x1="293.43" y1="317.4" x2="461.52" y2="317.4"/>
      <line class="st1" x1="107.89" y1="317.47" x2="148.94" y2="317.46"/>
      <line class="st1" x1="97.12" y1="317.47" x2="100.11" y2="317.47"/>
    </g>
    <g>
      <path class="st2" d="M335.21,246.27c54.34,9.74,108.57,20.09,162.91,29.81"/>
      <path class="st2" d="M326.85,244.78c.91.16,1.83.32,2.74.48"/>
    </g>
    <g>
      <path class="st2" d="M508.86,234.66c.54.2,1.07.38,1.61.58"/>
      <path class="st2" d="M500.25,231.52c.72.25,1.41.51,2.12.76"/>
      <path class="st2" d="M320.11,166.44c57.99,20.96,115.97,41.87,173.94,62.85"/>
    </g>
    <g>
      <line class="st2" x1="323.88" y1="79.62" x2="480.26" y2="169.82"/>
      <line class="st2" x1="319.5" y1="77.09" x2="320.64" y2="77.74"/>
    </g>
    <g>
      <path class="st1" d="M440.4,69.54c39.62,33.23,79.24,66.46,118.86,99.69"/>
      <path class="st1" d="M400.83,36.38c14.29,11.98,28.58,23.97,42.87,35.94"/>
      <path class="st1" d="M395.37,31.8c.57.47,1.13.95,1.7,1.42"/>
    </g>
    <g>
      <path class="st2" d="M500.72,36.6c26.87,32.3,53.88,64.5,80.84,96.73"/>
      <path class="st2" d="M496.04,30.98c.36.43.72.87,1.07,1.3"/>
    </g>
    <g>
      <line class="st2" x1="577.11" y1="42.61" x2="621.64" y2="119.68"/>
      <line class="st2" x1="573.84" y1="36.95" x2="574.84" y2="38.67"/>
    </g>
    <g>
      <path class="st2" d="M627.36,18.56c11.82,33.54,23.58,67.11,35.37,100.67"/>
      <path class="st2" d="M626.12,15.07c.13.37.26.73.39,1.1"/>
    </g>
    <g>
      <path class="st2" d="M683.13,34.55c4.97,28.12,9.95,56.24,14.96,84.36"/>
      <path class="st2" d="M682.22,29.42c.1.57.2,1.15.3,1.72"/>
    </g>
    <g>
      <line class="st1" x1="735.71" y1="16.71" x2="735.72" y2="118.91"/>
      <line class="st1" x1="735.71" y1="10.36" x2="735.71" y2="11.51"/>
    </g>
    <g>
      <path class="st2" d="M785.18,32.25c-4.88,29.11-10.16,58.14-15.75,87.15"/>
      <path class="st2" d="M786.54,24.07c-.17,1-.33,2-.5,3.01"/>
    </g>
    <path class="st2" d="M843.84,13.87c-12.69,35.16-25.38,70.36-38.02,105.52"/>
    <line class="st2" x1="898.22" y1="34.03" x2="849.13" y2="119.13"/>
    <path class="st2" d="M980.27,25.07c-31,36.63-61.91,73.36-92.92,110.08"/>
    <path class="st2" d="M983.78,20.92l-1.29,1.53"/>
    <g>
      <path class="st1" d="M1059.26,46.52c-44.42,37.5-89.06,74.7-133.78,111.84"/>
      <path class="st1" d="M1064.53,42.2c-.49.41-.97.82-1.46,1.24"/>
    </g>
    <g>
      <line class="st2" x1="980.91" y1="175.64" x2="950.22" y2="193.37"/>
      <line class="st2" x1="1091.48" y1="111.75" x2="1021.02" y2="152.47"/>
      <line class="st2" x1="1096.64" y1="108.77" x2="1094.81" y2="109.83"/>
    </g>
    <g>
      <path class="st2" d="M1276.7,123.31c-102.63,36.98-205.3,73.87-307.84,111.13"/>
      <path class="st2" d="M1268.96,126.12c-.36.13-.71.26-1.07.38"/>
      <path class="st2" d="M1365.95,90.8c-.27.1-.54.2-.81.29"/>
      <path class="st2" d="M1385.62,83.48c-5.37,2-10.73,4.01-16.09,5.99"/>
    </g>
    <g>
      <path class="st2" d="M1175.41,241.86c-61.86,10.59-123.78,20.84-185.79,30.6"/>
      <path class="st2" d="M1180.55,240.91c-.63.11-1.25.21-1.88.32"/>
      <path class="st2" d="M1320.03,216.53c-11.47,2.05-22.94,4.09-34.41,6.12"/>
      <path class="st2" d="M1324.23,215.78c-.38.07-.77.14-1.15.21"/>
    </g>
    <g>
      <line class="st1" x1="1137.1" y1="317.14" x2="999.57" y2="317.17"/>
      <line class="st1" x1="1147.57" y1="317.13" x2="1144.05" y2="317.13"/>
      <line class="st1" x1="1251.82" y1="317.1" x2="1215.94" y2="317.11"/>
      <line class="st1" x1="1361.91" y1="317.06" x2="1337.52" y2="317.06"/>
      <line class="st1" x1="1370.64" y1="317.06" x2="1368.86" y2="317.06"/>
    </g>
    <g>
      <path class="st2" d="M1035.23,370.91c-16.77-3.06-33.53-6.12-50.29-9.17"/>
      <path class="st2" d="M1144.79,390.88c-6.27-1.14-12.55-2.28-18.82-3.43"/>
      <path class="st2" d="M1295.19,418.21c-35.07-6.35-70.11-12.72-105.13-19.09"/>
      <path class="st2" d="M1300.83,419.23c-.56-.1-1.13-.2-1.69-.31"/>
    </g>
    <g>
      <line class="st2" x1="1079.65" y1="515.62" x2="924.32" y2="426.02"/>
      <line class="st2" x1="1083.17" y1="517.66" x2="1082.48" y2="517.26"/>
    </g>
    <line class="st2" x1="1044.14" y1="429.77" x2="957.62" y2="396.6"/>
    <g>
      <path class="st2" d="M984.98,523.53c-27.89-23.31-56.04-46.31-84.86-68.48"/>
      <path class="st2" d="M989.92,527.67c-.59-.5-1.19-.99-1.78-1.49"/>
    </g>
    <g>
      <path class="st1" d="M956.89,585.1c-27.23-34.03-54.42-68.08-81.62-102.14"/>
      <path class="st1" d="M960.88,590.43c-.36-.44-.71-.89-1.07-1.34"/>
    </g>
    <g>
      <line class="st2" x1="892.44" y1="588.34" x2="845.53" y2="507.16"/>
      <line class="st2" x1="894.28" y1="591.53" x2="893.8" y2="590.7"/>
    </g>
    <g>
      <path class="st2" d="M844.46,614.35c-10.42-27.89-21.13-55.7-31.7-83.53"/>
      <path class="st2" d="M845.97,618.41c-.16-.42-.31-.83-.47-1.25"/>
    </g>
    <path class="st3" d="M783.5,610.77c-2.69-14.44-5.45-28.87-7.69-43.39"/>
  </g>
  <g>
    <path class="st0" d="M850,123.62c.93.93,2.45.94,3.39,0,.28-.28.47-.62.58-.98-1.54-.32-3.1-.58-4.67-.8-.02.64.21,1.29.69,1.78Z"/>
    <path class="st0" d="M850,137.2c-.93.93-.93,2.46,0,3.39.93.93,2.45.94,3.39,0,.93-.93.94-2.45,0-3.39s-2.46-.93-3.39,0Z"/>
    <path class="st0" d="M833.03,123.62c.93.93,2.45.94,3.39,0,.66-.66.85-1.61.57-2.45h-4.54c-.27.83-.09,1.79.57,2.45Z"/>
    <path class="st0" d="M833.03,137.2c-.93.93-.93,2.46,0,3.39s2.45.94,3.39,0c.93-.93.94-2.45,0-3.39s-2.46-.93-3.39,0Z"/>
    <path class="st0" d="M883.94,154.17c-.93.93-.93,2.46,0,3.39s2.45.94,3.39,0c.93-.93.94-2.45,0-3.39-.94-.94-2.46-.93-3.39,0Z"/>
    <path class="st0" d="M900.91,157.56c.51.51,1.2.73,1.87.69l-2.31-3.46c-.45.9-.31,2.02.44,2.77Z"/>
    <path class="st0" d="M887.33,174.53c.93-.93.94-2.45,0-3.39s-2.46-.93-3.39,0-.93,2.46,0,3.39c.93.93,2.45.94,3.39,0Z"/>
    <path class="st0" d="M883.94,140.59c.93.93,2.45.94,3.39,0,.23-.23.41-.5.53-.79-1.13-1.02-2.28-2-3.47-2.95-.16.1-.31.21-.45.35-.93.93-.93,2.46,0,3.39Z"/>
    <path class="st0" d="M870.36,157.56c.93-.93.94-2.45,0-3.39s-2.46-.93-3.39,0c-.93.93-.93,2.46,0,3.39.93.93,2.45.94,3.39,0Z"/>
    <path class="st0" d="M870.36,171.14c-.94-.94-2.46-.93-3.39,0-.93.93-.93,2.46,0,3.39s2.45.94,3.39,0c.93-.93.94-2.45,0-3.39Z"/>
    <path class="st0" d="M870.36,140.59c.93-.93.94-2.45,0-3.39-.94-.94-2.46-.93-3.39,0s-.93,2.46,0,3.39c.93.93,2.45.94,3.39,0Z"/>
    <path class="st0" d="M934.85,208.47c.52.52,1.22.74,1.9.68l-2.32-3.48c-.47.9-.33,2.04.42,2.8Z"/>
    <path class="st0" d="M917.88,188.11c-.93.93-.93,2.46,0,3.39.93.93,2.45.94,3.39,0s.94-2.45,0-3.39c-.94-.94-2.46-.93-3.39,0Z"/>
    <path class="st0" d="M921.28,208.47c.93-.93.94-2.45,0-3.39-.94-.94-2.46-.93-3.39,0s-.93,2.46,0,3.39c.93.93,2.45.94,3.39,0Z"/>
    <path class="st0" d="M904.3,191.5c.93-.93.94-2.45,0-3.39s-2.46-.93-3.39,0-.93,2.46,0,3.39c.93.93,2.45.94,3.39,0Z"/>
    <path class="st0" d="M904.3,174.53c.93-.93.94-2.45,0-3.39-.94-.94-2.46-.93-3.39,0-.93.93-.93,2.46,0,3.39s2.45.94,3.39,0Z"/>
    <path class="st0" d="M951.82,239.02c-.93.93-.93,2.46,0,3.39.93.93,2.45.94,3.39,0,.93-.93.94-2.45,0-3.39-.94-.94-2.46-.93-3.39,0Z"/>
    <path class="st0" d="M934.85,222.05c-.93.93-.93,2.46,0,3.39.93.93,2.45.94,3.39,0,.93-.93.94-2.45,0-3.39-.94-.94-2.46-.93-3.39,0Z"/>
    <path class="st0" d="M970.73,260.06l-2.34-3.51c-.49.91-.36,2.07.41,2.83.53.53,1.24.75,1.94.68Z"/>
    <path class="st0" d="M985.76,289.93c-.93.93-.93,2.46,0,3.39.12.12.24.22.38.31.27.18.56.29.86.35.15.03.3.04.46.04.31,0,.61-.06.9-.17.29-.12.56-.29.8-.53.12-.12.22-.24.31-.38.09-.13.16-.27.22-.41-.36-1.03-.75-2.04-1.15-3.05-.9-.45-2.02-.31-2.76.44Z"/>
    <path class="st0" d="M816.06,123.62c.93.93,2.45.94,3.39,0,.66-.66.85-1.61.57-2.45h-4.54c-.27.83-.09,1.79.57,2.45Z"/>
    <path class="st0" d="M782.12,123.62c.93.93,2.45.94,3.39,0,.66-.66.85-1.61.57-2.45h-4.54c-.27.83-.09,1.79.57,2.45Z"/>
    <path class="st0" d="M799.09,123.62c.93.93,2.45.94,3.39,0,.66-.66.85-1.61.57-2.45h-4.54c-.27.83-.09,1.79.57,2.45Z"/>
    <path class="st0" d="M785.51,140.59c.93-.93.94-2.45,0-3.39s-2.46-.93-3.39,0c-.93.93-.93,2.46,0,3.39s2.45.94,3.39,0Z"/>
    <path class="st0" d="M765.15,123.62c.93.93,2.45.94,3.39,0,.66-.66.85-1.61.57-2.45h-4.54c-.27.83-.09,1.79.57,2.45Z"/>
    <path class="st0" d="M765.15,137.2c-.93.93-.93,2.46,0,3.39s2.45.94,3.39,0,.94-2.45,0-3.39c-.94-.94-2.46-.93-3.39,0Z"/>
    <path class="st0" d="M850,157.56c.93.93,2.45.94,3.39,0,.93-.93.94-2.45,0-3.39-.94-.94-2.46-.93-3.39,0-.93.93-.93,2.46,0,3.39Z"/>
    <path class="st0" d="M819.45,157.56c.93-.93.94-2.45,0-3.39s-2.46-.93-3.39,0c-.93.93-.93,2.46,0,3.39.93.93,2.45.94,3.39,0Z"/>
    <path class="st0" d="M833.03,154.17c-.93.93-.93,2.46,0,3.39s2.45.94,3.39,0c.93-.93.94-2.45,0-3.39-.94-.94-2.46-.93-3.39,0Z"/>
    <path class="st0" d="M816.06,174.53c.93.93,2.45.94,3.39,0,.93-.93.94-2.45,0-3.39-.94-.94-2.46-.93-3.39,0-.93.93-.93,2.46,0,3.39Z"/>
    <path class="st0" d="M816.06,137.2c-.93.93-.93,2.46,0,3.39.93.93,2.45.94,3.39,0s.94-2.45,0-3.39c-.94-.94-2.46-.93-3.39,0Z"/>
    <path class="st0" d="M802.48,157.56c.93-.93.94-2.45,0-3.39s-2.46-.93-3.39,0c-.93.93-.93,2.46,0,3.39.93.93,2.45.94,3.39,0Z"/>
    <path class="st0" d="M802.48,140.59c.93-.93.94-2.45,0-3.39-.94-.94-2.46-.93-3.39,0s-.93,2.46,0,3.39c.93.93,2.45.94,3.39,0Z"/>
    <path class="st0" d="M866.97,205.08c-.93.93-.93,2.46,0,3.39.93.93,2.45.94,3.39,0s.94-2.45,0-3.39c-.94-.94-2.46-.93-3.39,0Z"/>
    <path class="st0" d="M883.94,191.5c.93.93,2.45.94,3.39,0,.93-.93.94-2.45,0-3.39-.94-.94-2.46-.93-3.39,0-.93.93-.93,2.46,0,3.39Z"/>
    <path class="st0" d="M853.39,191.5c.93-.93.94-2.45,0-3.39s-2.46-.93-3.39,0-.93,2.46,0,3.39c.93.93,2.45.94,3.39,0Z"/>
    <path class="st0" d="M866.97,188.11c-.93.93-.93,2.46,0,3.39.93.93,2.45.94,3.39,0s.94-2.45,0-3.39c-.94-.94-2.46-.93-3.39,0Z"/>
    <path class="st0" d="M850,208.47c.93.93,2.45.94,3.39,0,.93-.93.94-2.45,0-3.39s-2.46-.93-3.39,0-.93,2.46,0,3.39Z"/>
    <path class="st0" d="M850,171.14c-.93.93-.93,2.46,0,3.39s2.45.94,3.39,0,.94-2.45,0-3.39c-.94-.94-2.46-.93-3.39,0Z"/>
    <path class="st0" d="M836.42,191.5c.93-.93.94-2.45,0-3.39s-2.46-.93-3.39,0c-.93.93-.93,2.46,0,3.39s2.45.94,3.39,0Z"/>
    <path class="st0" d="M836.42,174.53c.93-.93.94-2.45,0-3.39-.94-.94-2.46-.93-3.39,0s-.93,2.46,0,3.39c.93.93,2.45.94,3.39,0Z"/>
    <path class="st0" d="M917.88,225.44c.93.93,2.45.94,3.39,0,.93-.93.94-2.45,0-3.39s-2.46-.93-3.39,0c-.93.93-.93,2.46,0,3.39Z"/>
    <path class="st0" d="M887.33,225.44c.93-.93.94-2.45,0-3.39-.94-.94-2.46-.93-3.39,0s-.93,2.46,0,3.39c.93.93,2.45.94,3.39,0Z"/>
    <path class="st0" d="M900.91,208.47c.93.93,2.45.94,3.39,0,.93-.93.94-2.45,0-3.39-.94-.94-2.46-.93-3.39,0s-.93,2.46,0,3.39Z"/>
    <path class="st0" d="M900.91,222.05c-.93.93-.93,2.46,0,3.39s2.45.94,3.39,0,.94-2.45,0-3.39c-.94-.94-2.46-.93-3.39,0Z"/>
    <path class="st0" d="M883.94,242.41c.93.93,2.45.94,3.39,0s.94-2.45,0-3.39-2.46-.93-3.39,0c-.93.93-.93,2.46,0,3.39Z"/>
    <path class="st0" d="M883.94,205.08c-.93.93-.93,2.46,0,3.39s2.45.94,3.39,0c.93-.93.94-2.45,0-3.39-.94-.94-2.46-.93-3.39,0Z"/>
    <path class="st0" d="M866.97,222.05c-.93.93-.93,2.46,0,3.39s2.45.94,3.39,0c.93-.93.94-2.45,0-3.39s-2.46-.93-3.39,0Z"/>
    <path class="st0" d="M870.36,239.02c-.94-.94-2.46-.93-3.39,0s-.93,2.46,0,3.39,2.45.94,3.39,0c.93-.93.94-2.45,0-3.39Z"/>
    <path class="st0" d="M951.82,259.38c.93.93,2.45.94,3.39,0,.93-.93.94-2.45,0-3.39s-2.46-.93-3.39,0c-.93.93-.93,2.46,0,3.39Z"/>
    <path class="st0" d="M921.28,259.38c.93-.93.94-2.45,0-3.39-.94-.94-2.46-.93-3.39,0s-.93,2.46,0,3.39c.93.93,2.45.94,3.39,0Z"/>
    <path class="st0" d="M934.85,242.41c.93.93,2.45.94,3.39,0,.93-.93.94-2.45,0-3.39s-2.46-.93-3.39,0c-.93.93-.93,2.46,0,3.39Z"/>
    <path class="st0" d="M938.25,259.38c.93-.93.94-2.45,0-3.39-.94-.94-2.46-.93-3.39,0-.93.93-.93,2.46,0,3.39s2.45.94,3.39,0Z"/>
    <path class="st0" d="M917.88,276.36c.93.93,2.45.94,3.39,0,.93-.93.94-2.45,0-3.39s-2.46-.93-3.39,0c-.93.93-.93,2.46,0,3.39Z"/>
    <path class="st0" d="M917.88,239.02c-.93.93-.93,2.46,0,3.39s2.45.94,3.39,0c.93-.93.94-2.45,0-3.39-.94-.94-2.46-.93-3.39,0Z"/>
    <path class="st0" d="M904.3,259.38c.93-.93.94-2.45,0-3.39s-2.46-.93-3.39,0-.93,2.46,0,3.39c.93.93,2.45.94,3.39,0Z"/>
    <path class="st0" d="M904.3,242.41c.93-.93.94-2.45,0-3.39-.94-.94-2.46-.93-3.39,0s-.93,2.46,0,3.39,2.45.94,3.39,0Z"/>
    <path class="st0" d="M951.82,289.93c-.93.93-.93,2.46,0,3.39.93.93,2.45.94,3.39,0,.93-.93.94-2.45,0-3.39-.94-.94-2.46-.93-3.39,0Z"/>
    <path class="st0" d="M968.79,276.36c.93.93,2.45.94,3.39,0,.93-.93.94-2.45,0-3.39s-2.46-.93-3.39,0c-.93.93-.93,2.46,0,3.39Z"/>
    <path class="st0" d="M972.19,293.33c.93-.93.94-2.45,0-3.39-.94-.94-2.46-.93-3.39,0s-.93,2.46,0,3.39,2.45.94,3.39,0Z"/>
    <path class="st0" d="M955.22,310.3c.93-.93.94-2.45,0-3.39s-2.46-.93-3.39,0c-.93.93-.93,2.46,0,3.39s2.45.94,3.39,0Z"/>
    <path class="st0" d="M951.82,272.96c-.93.93-.93,2.46,0,3.39.93.93,2.45.94,3.39,0s.94-2.45,0-3.39c-.94-.94-2.46-.93-3.39,0Z"/>
    <path class="st0" d="M938.25,293.33c.93-.93.94-2.45,0-3.39s-2.46-.93-3.39,0c-.93.93-.93,2.46,0,3.39.93.93,2.45.94,3.39,0Z"/>
    <path class="st0" d="M938.25,276.36c.93-.93.94-2.45,0-3.39-.94-.94-2.46-.93-3.39,0s-.93,2.46,0,3.39c.93.93,2.45.94,3.39,0Z"/>
    <path class="st0" d="M989.16,327.27c.93-.93.94-2.45,0-3.39-.94-.94-2.46-.93-3.39,0s-.93,2.46,0,3.39,2.45.94,3.39,0Z"/>
    <path class="st0" d="M985.76,340.84c-.93.93-.93,2.46,0,3.39.57.57,1.37.79,2.11.66.54-1.25,1.04-2.51,1.51-3.78-.07-.09-.14-.19-.22-.27-.94-.94-2.46-.93-3.39,0Z"/>
    <path class="st0" d="M985.76,306.9c-.93.93-.93,2.46,0,3.39s2.45.94,3.39,0,.94-2.45,0-3.39c-.94-.94-2.46-.93-3.39,0Z"/>
    <path class="st0" d="M972.19,327.27c.93-.93.94-2.45,0-3.39s-2.46-.93-3.39,0c-.93.93-.93,2.46,0,3.39.93.93,2.45.94,3.39,0Z"/>
    <path class="st0" d="M972.19,310.3c.93-.93.94-2.45,0-3.39-.94-.94-2.46-.93-3.39,0s-.93,2.46,0,3.39c.93.93,2.45.94,3.39,0Z"/>
    <path class="st0" d="M748.18,123.62c.93.93,2.45.94,3.39,0,.66-.66.85-1.61.57-2.45h-4.54c-.27.83-.09,1.79.57,2.45Z"/>
    <path class="st0" d="M714.23,123.62c.93.93,2.45.94,3.39,0,.66-.66.85-1.61.57-2.45h-4.54c-.27.83-.09,1.79.57,2.45Z"/>
    <path class="st0" d="M731.2,123.62c.93.93,2.45.94,3.39,0,.66-.66.85-1.61.57-2.45h-4.54c-.27.83-.09,1.79.57,2.45Z"/>
    <path class="st0" d="M717.63,140.59c.93-.93.94-2.45,0-3.39-.94-.94-2.46-.93-3.39,0-.93.93-.93,2.46,0,3.39s2.45.94,3.39,0Z"/>
    <path class="st0" d="M697.26,123.62c.93.93,2.45.94,3.39,0,.66-.66.85-1.61.57-2.45h-4.54c-.27.83-.09,1.79.57,2.45Z"/>
    <path class="st0" d="M697.26,137.2c-.93.93-.93,2.46,0,3.39.93.93,2.45.94,3.39,0s.94-2.45,0-3.39c-.94-.94-2.46-.93-3.39,0Z"/>
    <path class="st0" d="M782.12,157.56c.93.93,2.45.94,3.39,0,.93-.93.94-2.45,0-3.39-.94-.94-2.46-.93-3.39,0s-.93,2.46,0,3.39Z"/>
    <path class="st0" d="M751.57,157.56c.93-.93.94-2.45,0-3.39s-2.46-.93-3.39,0c-.93.93-.93,2.46,0,3.39.93.93,2.45.94,3.39,0Z"/>
    <path class="st0" d="M765.15,154.17c-.93.93-.93,2.46,0,3.39s2.45.94,3.39,0,.94-2.45,0-3.39c-.94-.94-2.46-.93-3.39,0Z"/>
    <path class="st0" d="M748.18,174.53c.93.93,2.45.94,3.39,0,.93-.93.94-2.45,0-3.39-.94-.94-2.46-.93-3.39,0-.93.93-.93,2.46,0,3.39Z"/>
    <path class="st0" d="M748.18,137.2c-.93.93-.93,2.46,0,3.39.93.93,2.45.94,3.39,0s.94-2.45,0-3.39c-.94-.94-2.46-.93-3.39,0Z"/>
    <path class="st0" d="M734.6,157.56c.93-.93.94-2.45,0-3.39-.94-.94-2.46-.93-3.39,0s-.93,2.46,0,3.39,2.45.94,3.39,0Z"/>
    <path class="st0" d="M734.6,140.59c.93-.93.94-2.45,0-3.39s-2.46-.93-3.39,0c-.93.93-.93,2.46,0,3.39s2.45.94,3.39,0Z"/>
    <path class="st0" d="M816.06,191.5c.93.93,2.45.94,3.39,0s.94-2.45,0-3.39c-.94-.94-2.46-.93-3.39,0-.93.93-.93,2.46,0,3.39Z"/>
    <path class="st0" d="M785.51,191.5c.93-.93.94-2.45,0-3.39s-2.46-.93-3.39,0c-.93.93-.93,2.46,0,3.39s2.45.94,3.39,0Z"/>
    <path class="st0" d="M799.09,174.53c.93.93,2.45.94,3.39,0,.93-.93.94-2.45,0-3.39-.94-.94-2.46-.93-3.39,0-.93.93-.93,2.46,0,3.39Z"/>
    <path class="st0" d="M799.09,188.11c-.93.93-.93,2.46,0,3.39.93.93,2.45.94,3.39,0s.94-2.45,0-3.39c-.94-.94-2.46-.93-3.39,0Z"/>
    <path class="st0" d="M782.12,208.47c.93.93,2.45.94,3.39,0,.93-.93.94-2.45,0-3.39s-2.46-.93-3.39,0c-.93.93-.93,2.46,0,3.39Z"/>
    <path class="st0" d="M782.12,171.14c-.93.93-.93,2.46,0,3.39.93.93,2.45.94,3.39,0s.94-2.45,0-3.39c-.94-.94-2.46-.93-3.39,0Z"/>
    <path class="st0" d="M768.54,191.5c.93-.93.94-2.45,0-3.39-.94-.94-2.46-.93-3.39,0-.93.93-.93,2.46,0,3.39s2.45.94,3.39,0Z"/>
    <path class="st0" d="M768.54,174.53c.93-.93.94-2.45,0-3.39s-2.46-.93-3.39,0-.93,2.46,0,3.39c.93.93,2.45.94,3.39,0Z"/>
    <path class="st0" d="M850,225.44c.93.93,2.45.94,3.39,0s.94-2.45,0-3.39c-.94-.94-2.46-.93-3.39,0-.93.93-.93,2.46,0,3.39Z"/>
    <path class="st0" d="M819.45,225.44c.93-.93.94-2.45,0-3.39s-2.46-.93-3.39,0c-.93.93-.93,2.46,0,3.39s2.45.94,3.39,0Z"/>
    <path class="st0" d="M833.03,208.47c.93.93,2.45.94,3.39,0,.93-.93.94-2.45,0-3.39-.94-.94-2.46-.93-3.39,0-.93.93-.93,2.46,0,3.39Z"/>
    <path class="st0" d="M833.03,222.05c-.93.93-.93,2.46,0,3.39.93.93,2.45.94,3.39,0s.94-2.45,0-3.39c-.94-.94-2.46-.93-3.39,0Z"/>
    <path class="st0" d="M816.06,242.41c.93.93,2.45.94,3.39,0,.93-.93.94-2.45,0-3.39-.94-.94-2.46-.93-3.39,0s-.93,2.46,0,3.39Z"/>
    <path class="st0" d="M816.06,205.08c-.93.93-.93,2.46,0,3.39.93.93,2.45.94,3.39,0s.94-2.45,0-3.39-2.46-.93-3.39,0Z"/>
    <path class="st0" d="M802.48,225.44c.93-.93.94-2.45,0-3.39s-2.46-.93-3.39,0c-.93.93-.93,2.46,0,3.39s2.45.94,3.39,0Z"/>
    <path class="st0" d="M802.48,208.47c.93-.93.94-2.45,0-3.39-.94-.94-2.46-.93-3.39,0-.93.93-.93,2.46,0,3.39.93.93,2.45.94,3.39,0Z"/>
    <path class="st0" d="M866.97,272.96c-.93.93-.93,2.46,0,3.39s2.45.94,3.39,0c.93-.93.94-2.45,0-3.39s-2.46-.93-3.39,0Z"/>
    <path class="st0" d="M883.94,259.38c.93.93,2.45.94,3.39,0,.93-.93.94-2.45,0-3.39-.94-.94-2.46-.93-3.39,0-.93.93-.93,2.46,0,3.39Z"/>
    <path class="st0" d="M853.39,259.38c.93-.93.94-2.45,0-3.39s-2.46-.93-3.39,0-.93,2.46,0,3.39c.93.93,2.45.94,3.39,0Z"/>
    <path class="st0" d="M866.97,255.99c-.93.93-.93,2.46,0,3.39.93.93,2.45.94,3.39,0s.94-2.45,0-3.39c-.94-.94-2.46-.93-3.39,0Z"/>
    <path class="st0" d="M850,276.36c.93.93,2.45.94,3.39,0s.94-2.45,0-3.39c-.94-.94-2.46-.93-3.39,0-.93.93-.93,2.46,0,3.39Z"/>
    <path class="st0" d="M850,239.02c-.93.93-.93,2.46,0,3.39s2.45.94,3.39,0c.93-.93.94-2.45,0-3.39s-2.46-.93-3.39,0Z"/>
    <path class="st0" d="M836.42,259.38c.93-.93.94-2.45,0-3.39s-2.46-.93-3.39,0c-.93.93-.93,2.46,0,3.39s2.45.94,3.39,0Z"/>
    <path class="st0" d="M836.42,242.41c.93-.93.94-2.45,0-3.39-.94-.94-2.46-.93-3.39,0-.93.93-.93,2.46,0,3.39.93.93,2.45.94,3.39,0Z"/>
    <path class="st0" d="M917.88,293.33c.12.12.24.22.38.31.27.18.56.29.86.35.15.03.3.04.46.04.31,0,.61-.06.9-.17.29-.12.56-.29.8-.53.93-.93.94-2.45,0-3.39-.94-.94-2.46-.93-3.39,0s-.93,2.46,0,3.39Z"/>
    <path class="st0" d="M887.33,293.33c.93-.93.94-2.45,0-3.39s-2.46-.93-3.39,0c-.93.93-.93,2.46,0,3.39.93.93,2.45.94,3.39,0Z"/>
    <path class="st0" d="M900.91,276.36c.93.93,2.45.94,3.39,0s.94-2.45,0-3.39c-.94-.94-2.46-.93-3.39,0-.93.93-.93,2.46,0,3.39Z"/>
    <path class="st0" d="M900.91,289.93c-.93.93-.93,2.46,0,3.39s2.45.94,3.39,0c.93-.93.94-2.45,0-3.39-.94-.94-2.46-.93-3.39,0Z"/>
    <path class="st0" d="M883.94,310.3c.93.93,2.45.94,3.39,0,.93-.93.94-2.45,0-3.39-.94-.94-2.46-.93-3.39,0-.93.93-.93,2.46,0,3.39Z"/>
    <path class="st0" d="M883.94,272.96c-.93.93-.93,2.46,0,3.39.93.93,2.45.94,3.39,0,.93-.93.94-2.45,0-3.39-.94-.94-2.46-.93-3.39,0Z"/>
    <path class="st0" d="M866.97,289.93c-.93.93-.93,2.46,0,3.39s2.45.94,3.39,0c.93-.93.94-2.45,0-3.39-.94-.94-2.46-.93-3.39,0Z"/>
    <path class="st0" d="M870.36,306.9c-.94-.94-2.46-.93-3.39,0s-.93,2.46,0,3.39c.93.93,2.45.94,3.39,0s.94-2.45,0-3.39Z"/>
    <path class="st0" d="M934.85,340.84c-.93.93-.93,2.46,0,3.39.93.93,2.45.94,3.39,0,.93-.93.94-2.45,0-3.39s-2.46-.93-3.39,0Z"/>
    <path class="st0" d="M951.82,327.27c.93.93,2.45.94,3.39,0,.93-.93.94-2.45,0-3.39-.94-.94-2.46-.93-3.39,0s-.93,2.46,0,3.39Z"/>
    <path class="st0" d="M921.28,327.27c.93-.93.94-2.45,0-3.39s-2.46-.93-3.39,0c-.93.93-.93,2.46,0,3.39.93.93,2.45.94,3.39,0Z"/>
    <path class="st0" d="M934.85,310.3c.93.93,2.45.94,3.39,0s.94-2.45,0-3.39c-.94-.94-2.46-.93-3.39,0-.93.93-.93,2.46,0,3.39Z"/>
    <path class="st0" d="M938.25,327.27c.93-.93.94-2.45,0-3.39-.94-.94-2.46-.93-3.39,0s-.93,2.46,0,3.39,2.45.94,3.39,0Z"/>
    <path class="st0" d="M917.88,344.24c.93.93,2.45.94,3.39,0,.93-.93.94-2.45,0-3.39-.94-.94-2.46-.93-3.39,0-.93.93-.93,2.46,0,3.39Z"/>
    <path class="st0" d="M917.88,306.9c-.93.93-.93,2.46,0,3.39.93.93,2.45.94,3.39,0s.94-2.45,0-3.39c-.94-.94-2.46-.93-3.39,0Z"/>
    <path class="st0" d="M904.3,327.27c.93-.93.94-2.45,0-3.39-.94-.94-2.46-.93-3.39,0-.93.93-.93,2.46,0,3.39.93.93,2.45.94,3.39,0Z"/>
    <path class="st0" d="M904.3,310.3c.93-.93.94-2.45,0-3.39s-2.46-.93-3.39,0-.93,2.46,0,3.39c.93.93,2.45.94,3.39,0Z"/>
    <path class="st0" d="M951.82,357.81c-.93.93-.93,2.46,0,3.39s2.45.94,3.39,0c.93-.93.94-2.45,0-3.39s-2.46-.93-3.39,0Z"/>
    <path class="st0" d="M968.79,344.24c.93.93,2.45.94,3.39,0,.93-.93.94-2.45,0-3.39-.94-.94-2.46-.93-3.39,0-.93.93-.93,2.46,0,3.39Z"/>
    <path class="st0" d="M968.79,357.81c-.93.93-.93,2.46,0,3.39.93.93,2.45.94,3.39,0s.94-2.45,0-3.39c-.94-.94-2.46-.93-3.39,0Z"/>
    <path class="st0" d="M955.22,378.18c.93-.93.94-2.45,0-3.39-.94-.94-2.46-.93-3.39,0s-.93,2.46,0,3.39,2.45.94,3.39,0Z"/>
    <path class="st0" d="M955.22,340.84c-.94-.94-2.46-.93-3.39,0s-.93,2.46,0,3.39c.93.93,2.45.94,3.39,0s.94-2.45,0-3.39Z"/>
    <path class="st0" d="M938.25,361.21c.93-.93.94-2.45,0-3.39-.94-.94-2.46-.93-3.39,0-.93.93-.93,2.46,0,3.39s2.45.94,3.39,0Z"/>
    <path class="st0" d="M938.25,374.78c-.94-.94-2.46-.93-3.39,0s-.93,2.46,0,3.39,2.45.94,3.39,0,.94-2.45,0-3.39Z"/>
    <path class="st0" d="M921.28,357.81c-.94-.94-2.46-.93-3.39,0s-.93,2.46,0,3.39c.93.93,2.45.94,3.39,0s.94-2.45,0-3.39Z"/>
    <path class="st0" d="M680.29,123.62c.93.93,2.45.94,3.39,0,.66-.66.85-1.61.57-2.45h-4.54c-.27.83-.09,1.79.57,2.45Z"/>
    <path class="st0" d="M646.35,123.62c.93.93,2.45.94,3.39,0,.66-.66.85-1.61.57-2.45h-4.54c-.27.83-.09,1.79.57,2.45Z"/>
    <path class="st0" d="M663.32,123.62c.93.93,2.45.94,3.39,0,.66-.66.85-1.61.57-2.45h-4.54c-.27.83-.09,1.79.57,2.45Z"/>
    <path class="st0" d="M649.75,140.59c.93-.93.94-2.45,0-3.39-.94-.94-2.46-.93-3.39,0s-.93,2.46,0,3.39c.93.93,2.45.94,3.39,0Z"/>
    <path class="st0" d="M632.78,123.62c.51-.51.73-1.2.69-1.87-1.58.2-3.15.46-4.7.76.1.41.3.79.62,1.11.93.93,2.45.94,3.39,0Z"/>
    <path class="st0" d="M629.38,137.2c-.93.93-.93,2.46,0,3.39.93.93,2.45.94,3.39,0s.94-2.45,0-3.39-2.46-.93-3.39,0Z"/>
    <path class="st0" d="M714.23,157.56c.93.93,2.45.94,3.39,0,.23-.23.41-.5.53-.79.35-.87.18-1.9-.53-2.6-.94-.94-2.46-.93-3.39,0s-.93,2.46,0,3.39Z"/>
    <path class="st0" d="M683.69,157.56c.93-.93.94-2.45,0-3.39-.94-.94-2.46-.93-3.39,0-.93.93-.93,2.46,0,3.39.93.93,2.45.94,3.39,0Z"/>
    <path class="st0" d="M697.26,154.17c-.93.93-.93,2.46,0,3.39.93.93,2.45.94,3.39,0s.94-2.45,0-3.39-2.46-.93-3.39,0Z"/>
    <path class="st0" d="M680.29,174.53c.93.93,2.45.94,3.39,0s.94-2.45,0-3.39c-.94-.94-2.46-.93-3.39,0-.93.93-.93,2.46,0,3.39Z"/>
    <path class="st0" d="M680.29,137.2c-.93.93-.93,2.46,0,3.39.93.93,2.45.94,3.39,0,.93-.93.94-2.45,0-3.39s-2.46-.93-3.39,0Z"/>
    <path class="st0" d="M666.72,157.56c.93-.93.94-2.45,0-3.39-.94-.94-2.46-.93-3.39,0s-.93,2.46,0,3.39,2.45.94,3.39,0Z"/>
    <path class="st0" d="M666.72,140.59c.93-.93.94-2.45,0-3.39-.94-.94-2.46-.93-3.39,0-.93.93-.93,2.46,0,3.39s2.45.94,3.39,0Z"/>
    <path class="st0" d="M748.18,191.5c.93.93,2.45.94,3.39,0s.94-2.45,0-3.39c-.94-.94-2.46-.93-3.39,0s-.93,2.46,0,3.39Z"/>
    <path class="st0" d="M717.63,191.5c.93-.93.94-2.45,0-3.39-.94-.94-2.46-.93-3.39,0-.93.93-.93,2.46,0,3.39s2.45.94,3.39,0Z"/>
    <path class="st0" d="M731.2,174.53c.93.93,2.45.94,3.39,0s.94-2.45,0-3.39c-.94-.94-2.46-.93-3.39,0s-.93,2.46,0,3.39Z"/>
    <path class="st0" d="M731.2,188.11c-.93.93-.93,2.46,0,3.39s2.45.94,3.39,0c.93-.93.94-2.45,0-3.39s-2.46-.93-3.39,0Z"/>
    <path class="st0" d="M714.23,208.47c.93.93,2.45.94,3.39,0,.93-.93.94-2.45,0-3.39-.94-.94-2.46-.93-3.39,0-.93.93-.93,2.46,0,3.39Z"/>
    <path class="st0" d="M714.23,171.14c-.93.93-.93,2.46,0,3.39.93.93,2.45.94,3.39,0,.93-.93.94-2.45,0-3.39s-2.46-.93-3.39,0Z"/>
    <path class="st0" d="M700.66,191.5c.93-.93.94-2.45,0-3.39-.94-.94-2.46-.93-3.39,0s-.93,2.46,0,3.39c.93.93,2.45.94,3.39,0Z"/>
    <path class="st0" d="M700.66,174.53c.93-.93.94-2.45,0-3.39-.94-.94-2.46-.93-3.39,0-.93.93-.93,2.46,0,3.39s2.45.94,3.39,0Z"/>
    <path class="st0" d="M782.12,225.44c.93.93,2.45.94,3.39,0s.94-2.45,0-3.39c-.94-.94-2.46-.93-3.39,0s-.93,2.46,0,3.39Z"/>
    <path class="st0" d="M751.57,225.44c.93-.93.94-2.45,0-3.39s-2.46-.93-3.39,0c-.93.93-.93,2.46,0,3.39s2.45.94,3.39,0Z"/>
    <path class="st0" d="M765.15,208.47c.93.93,2.45.94,3.39,0s.94-2.45,0-3.39c-.94-.94-2.46-.93-3.39,0-.93.93-.93,2.46,0,3.39Z"/>
    <path class="st0" d="M765.15,222.05c-.93.93-.93,2.46,0,3.39.93.93,2.45.94,3.39,0,.93-.93.94-2.45,0-3.39-.94-.94-2.46-.93-3.39,0Z"/>
    <path class="st0" d="M748.18,242.41c.93.93,2.45.94,3.39,0,.93-.93.94-2.45,0-3.39-.94-.94-2.46-.93-3.39,0s-.93,2.46,0,3.39Z"/>
    <path class="st0" d="M748.18,205.08c-.93.93-.93,2.46,0,3.39.93.93,2.45.94,3.39,0s.94-2.45,0-3.39-2.46-.93-3.39,0Z"/>
    <path class="st0" d="M734.6,225.44c.93-.93.94-2.45,0-3.39-.94-.94-2.46-.93-3.39,0s-.93,2.46,0,3.39c.93.93,2.45.94,3.39,0Z"/>
    <path class="st0" d="M734.6,208.47c.93-.93.94-2.45,0-3.39s-2.46-.93-3.39,0-.93,2.46,0,3.39,2.45.94,3.39,0Z"/>
    <path class="st0" d="M816.06,259.38c.93.93,2.45.94,3.39,0s.94-2.45,0-3.39c-.94-.94-2.46-.93-3.39,0-.93.93-.93,2.46,0,3.39Z"/>
    <path class="st0" d="M785.51,259.38c.93-.93.94-2.45,0-3.39s-2.46-.93-3.39,0c-.93.93-.93,2.46,0,3.39s2.45.94,3.39,0Z"/>
    <path class="st0" d="M799.09,242.41c.93.93,2.45.94,3.39,0,.93-.93.94-2.45,0-3.39-.94-.94-2.46-.93-3.39,0s-.93,2.46,0,3.39Z"/>
    <path class="st0" d="M802.48,259.38c.93-.93.94-2.45,0-3.39-.94-.94-2.46-.93-3.39,0s-.93,2.46,0,3.39c.93.93,2.45.94,3.39,0Z"/>
    <path class="st0" d="M782.12,276.36c.93.93,2.45.94,3.39,0s.94-2.45,0-3.39c-.94-.94-2.46-.93-3.39,0s-.93,2.46,0,3.39Z"/>
    <path class="st0" d="M782.12,239.02c-.93.93-.93,2.46,0,3.39.93.93,2.45.94,3.39,0,.93-.93.94-2.45,0-3.39s-2.46-.93-3.39,0Z"/>
    <path class="st0" d="M768.54,259.38c.93-.93.94-2.45,0-3.39-.94-.94-2.46-.93-3.39,0-.93.93-.93,2.46,0,3.39s2.45.94,3.39,0Z"/>
    <path class="st0" d="M768.54,242.41c.93-.93.94-2.45,0-3.39s-2.46-.93-3.39,0c-.93.93-.93,2.46,0,3.39.93.93,2.45.94,3.39,0Z"/>
    <path class="st0" d="M850,293.33c.12.12.24.22.38.31.27.18.56.29.86.35.15.03.3.04.46.04.31,0,.61-.06.9-.17s.56-.29.8-.53c.93-.93.94-2.45,0-3.39-.94-.94-2.46-.93-3.39,0s-.93,2.46,0,3.39Z"/>
    <path class="st0" d="M819.45,293.33c.93-.93.94-2.45,0-3.39-.94-.94-2.46-.93-3.39,0s-.93,2.46,0,3.39,2.45.94,3.39,0Z"/>
    <path class="st0" d="M833.03,276.36c.93.93,2.45.94,3.39,0s.94-2.45,0-3.39c-.94-.94-2.46-.93-3.39,0s-.93,2.46,0,3.39Z"/>
    <path class="st0" d="M833.03,289.93c-.93.93-.93,2.46,0,3.39.93.93,2.45.94,3.39,0,.93-.93.94-2.45,0-3.39-.94-.94-2.46-.93-3.39,0Z"/>
    <path class="st0" d="M816.06,310.3c.93.93,2.45.94,3.39,0s.94-2.45,0-3.39c-.94-.94-2.46-.93-3.39,0s-.93,2.46,0,3.39Z"/>
    <path class="st0" d="M816.06,272.96c-.93.93-.93,2.46,0,3.39.93.93,2.45.94,3.39,0,.93-.93.94-2.45,0-3.39s-2.46-.93-3.39,0Z"/>
    <path class="st0" d="M802.48,293.33c.93-.93.94-2.45,0-3.39-.94-.94-2.46-.93-3.39,0s-.93,2.46,0,3.39,2.45.94,3.39,0Z"/>
    <path class="st0" d="M802.48,276.36c.93-.93.94-2.45,0-3.39s-2.46-.93-3.39,0c-.93.93-.93,2.46,0,3.39s2.45.94,3.39,0Z"/>
    <path class="st0" d="M866.97,340.84c-.93.93-.93,2.46,0,3.39s2.45.94,3.39,0c.93-.93.94-2.45,0-3.39-.94-.94-2.46-.93-3.39,0Z"/>
    <path class="st0" d="M883.94,327.27c.93.93,2.45.94,3.39,0,.93-.93.94-2.45,0-3.39-.94-.94-2.46-.93-3.39,0s-.93,2.46,0,3.39Z"/>
    <path class="st0" d="M853.39,327.27c.93-.93.94-2.45,0-3.39-.94-.94-2.46-.93-3.39,0-.93.93-.93,2.46,0,3.39.93.93,2.45.94,3.39,0Z"/>
    <path class="st0" d="M866.97,323.87c-.93.93-.93,2.46,0,3.39.93.93,2.45.94,3.39,0s.94-2.45,0-3.39-2.46-.93-3.39,0Z"/>
    <path class="st0" d="M853.39,344.24c.93-.93.94-2.45,0-3.39-.94-.94-2.46-.93-3.39,0-.93.93-.93,2.46,0,3.39s2.45.94,3.39,0Z"/>
    <path class="st0" d="M850,306.9c-.93.93-.93,2.46,0,3.39.93.93,2.45.94,3.39,0,.93-.93.94-2.45,0-3.39s-2.46-.93-3.39,0Z"/>
    <path class="st0" d="M833.03,323.87c-.93.93-.93,2.46,0,3.39s2.45.94,3.39,0c.93-.93.94-2.45,0-3.39-.94-.94-2.46-.93-3.39,0Z"/>
    <path class="st0" d="M836.42,310.3c.93-.93.94-2.45,0-3.39s-2.46-.93-3.39,0c-.93.93-.93,2.46,0,3.39s2.45.94,3.39,0Z"/>
    <path class="st0" d="M819.45,323.87c-.94-.94-2.46-.93-3.39,0-.93.93-.93,2.46,0,3.39.93.93,2.45.94,3.39,0s.94-2.45,0-3.39Z"/>
    <path class="st0" d="M900.91,374.78c-.93.93-.93,2.46,0,3.39.93.93,2.45.94,3.39,0,.93-.93.94-2.45,0-3.39-.94-.94-2.46-.93-3.39,0Z"/>
    <path class="st0" d="M883.94,357.81c-.93.93-.93,2.46,0,3.39s2.45.94,3.39,0c.93-.93.94-2.45,0-3.39-.94-.94-2.46-.93-3.39,0Z"/>
    <path class="st0" d="M900.91,344.24c.93.93,2.45.94,3.39,0s.94-2.45,0-3.39c-.94-.94-2.46-.93-3.39,0-.93.93-.93,2.46,0,3.39Z"/>
    <path class="st0" d="M900.91,357.81c-.93.93-.93,2.46,0,3.39.93.93,2.45.94,3.39,0,.93-.93.94-2.45,0-3.39s-2.46-.93-3.39,0Z"/>
    <path class="st0" d="M887.33,378.18c.93-.93.94-2.45,0-3.39-.94-.94-2.46-.93-3.39,0s-.93,2.46,0,3.39,2.45.94,3.39,0Z"/>
    <path class="st0" d="M887.33,340.84c-.94-.94-2.46-.93-3.39,0s-.93,2.46,0,3.39c.93.93,2.45.94,3.39,0,.93-.93.94-2.45,0-3.39Z"/>
    <path class="st0" d="M870.36,361.21c.93-.93.94-2.45,0-3.39-.94-.94-2.46-.93-3.39,0s-.93,2.46,0,3.39c.93.93,2.45.94,3.39,0Z"/>
    <path class="st0" d="M870.36,374.78c-.94-.94-2.46-.93-3.39,0-.93.93-.93,2.46,0,3.39.93.93,2.45.94,3.39,0s.94-2.45,0-3.39Z"/>
    <path class="st0" d="M853.39,357.81c-.94-.94-2.46-.93-3.39,0s-.93,2.46,0,3.39c.93.93,2.45.94,3.39,0,.93-.93.94-2.45,0-3.39Z"/>
    <path class="st0" d="M917.88,391.75c-.93.93-.93,2.46,0,3.39s2.45.94,3.39,0c.93-.93.94-2.45,0-3.39s-2.46-.93-3.39,0Z"/>
    <path class="st0" d="M934.85,391.75c-.93.93-.93,2.46,0,3.39.93.93,2.45.94,3.39,0,.93-.93.94-2.45,0-3.39s-2.46-.93-3.39,0Z"/>
    <path class="st0" d="M921.28,412.12c.93-.93.94-2.45,0-3.39-.94-.94-2.46-.93-3.39,0s-.93,2.46,0,3.39c.93.93,2.45.94,3.39,0Z"/>
    <path class="st0" d="M921.28,374.78c-.94-.94-2.46-.93-3.39,0-.93.93-.93,2.46,0,3.39.93.93,2.45.94,3.39,0s.94-2.45,0-3.39Z"/>
    <path class="st0" d="M904.3,395.15c.93-.93.94-2.45,0-3.39-.94-.94-2.46-.93-3.39,0-.93.93-.93,2.46,0,3.39s2.45.94,3.39,0Z"/>
    <path class="st0" d="M904.3,408.73c-.94-.94-2.46-.93-3.39,0s-.93,2.46,0,3.39c.23.23.5.41.79.53.14.06.29.1.44.13.3.06.61.06.92,0,.45-.09.89-.31,1.24-.66.93-.93.94-2.45,0-3.39Z"/>
    <path class="st0" d="M887.33,391.75c-.94-.94-2.46-.93-3.39,0s-.93,2.46,0,3.39c.93.93,2.45.94,3.39,0,.93-.93.94-2.45,0-3.39Z"/>
    <path class="st0" d="M646.35,157.56c.93.93,2.45.94,3.39,0s.94-2.45,0-3.39-2.46-.93-3.39,0c-.93.93-.93,2.46,0,3.39Z"/>
    <path class="st0" d="M612.41,154.17c-.93.93-.93,2.46,0,3.39s2.45.94,3.39,0c.93-.93.94-2.45,0-3.39-.94-.94-2.46-.93-3.39,0Z"/>
    <path class="st0" d="M629.38,154.17c-.93.93-.93,2.46,0,3.39.93.93,2.45.94,3.39,0s.94-2.45,0-3.39c-.94-.94-2.46-.93-3.39,0Z"/>
    <path class="st0" d="M615.8,174.53c.93-.93.94-2.45,0-3.39-.94-.94-2.46-.93-3.39,0s-.93,2.46,0,3.39c.93.93,2.45.94,3.39,0Z"/>
    <path class="st0" d="M612.41,137.2c-.93.93-.93,2.46,0,3.39s2.45.94,3.39,0c.93-.93.94-2.45,0-3.39s-2.46-.93-3.39,0Z"/>
    <path class="st0" d="M595.44,154.17c-.93.93-.93,2.46,0,3.39s2.45.94,3.39,0,.94-2.45,0-3.39c-.94-.94-2.46-.93-3.39,0Z"/>
    <path class="st0" d="M598.83,171.14c-.94-.94-2.46-.93-3.39,0s-.93,2.46,0,3.39c.93.93,2.45.94,3.39,0,.93-.93.94-2.45,0-3.39Z"/>
    <path class="st0" d="M598.83,140.59c.93-.93.94-2.45,0-3.39-.26-.26-.55-.43-.87-.55-1.09.86-2.15,1.75-3.18,2.67.08.47.3.92.66,1.28.93.93,2.45.94,3.39,0Z"/>
    <path class="st0" d="M579.39,158.13c.84.29,1.8.11,2.47-.56.9-.9.93-2.34.09-3.28l-2.57,3.85Z"/>
    <path class="st0" d="M680.29,191.5c.93.93,2.45.94,3.39,0,.93-.93.94-2.45,0-3.39s-2.46-.93-3.39,0-.93,2.46,0,3.39Z"/>
    <path class="st0" d="M646.35,188.11c-.93.93-.93,2.46,0,3.39.93.93,2.45.94,3.39,0s.94-2.45,0-3.39c-.94-.94-2.46-.93-3.39,0Z"/>
    <path class="st0" d="M663.32,174.53c.93.93,2.45.94,3.39,0,.93-.93.94-2.45,0-3.39s-2.46-.93-3.39,0-.93,2.46,0,3.39Z"/>
    <path class="st0" d="M663.32,188.11c-.93.93-.93,2.46,0,3.39s2.45.94,3.39,0c.93-.93.94-2.45,0-3.39-.94-.94-2.46-.93-3.39,0Z"/>
    <path class="st0" d="M649.75,208.47c.93-.93.94-2.45,0-3.39-.94-.94-2.46-.93-3.39,0s-.93,2.46,0,3.39c.93.93,2.45.94,3.39,0Z"/>
    <path class="st0" d="M646.35,171.14c-.93.93-.93,2.46,0,3.39s2.45.94,3.39,0c.93-.93.94-2.45,0-3.39-.94-.94-2.46-.93-3.39,0Z"/>
    <path class="st0" d="M632.78,191.5c.93-.93.94-2.45,0-3.39-.94-.94-2.46-.93-3.39,0s-.93,2.46,0,3.39c.93.93,2.45.94,3.39,0Z"/>
    <path class="st0" d="M632.78,174.53c.93-.93.94-2.45,0-3.39-.94-.94-2.46-.93-3.39,0-.93.93-.93,2.46,0,3.39s2.45.94,3.39,0Z"/>
    <path class="st0" d="M714.23,225.44c.93.93,2.45.94,3.39,0,.23-.23.41-.5.53-.79.35-.87.18-1.9-.53-2.6-.94-.94-2.46-.93-3.39,0s-.93,2.46,0,3.39Z"/>
    <path class="st0" d="M683.69,225.44c.93-.93.94-2.45,0-3.39-.94-.94-2.46-.93-3.39,0-.93.93-.93,2.46,0,3.39s2.45.94,3.39,0Z"/>
    <path class="st0" d="M697.26,208.47c.93.93,2.45.94,3.39,0s.94-2.45,0-3.39-2.46-.93-3.39,0-.93,2.46,0,3.39Z"/>
    <path class="st0" d="M697.26,222.05c-.93.93-.93,2.46,0,3.39s2.45.94,3.39,0c.93-.93.94-2.45,0-3.39s-2.46-.93-3.39,0Z"/>
    <path class="st0" d="M680.29,242.41c.93.93,2.45.94,3.39,0,.93-.93.94-2.45,0-3.39-.94-.94-2.46-.93-3.39,0s-.93,2.46,0,3.39Z"/>
    <path class="st0" d="M680.29,205.08c-.93.93-.93,2.46,0,3.39.93.93,2.45.94,3.39,0,.93-.93.94-2.45,0-3.39-.94-.94-2.46-.93-3.39,0Z"/>
    <path class="st0" d="M666.72,225.44c.93-.93.94-2.45,0-3.39-.94-.94-2.46-.93-3.39,0s-.93,2.46,0,3.39c.93.93,2.45.94,3.39,0Z"/>
    <path class="st0" d="M666.72,208.47c.93-.93.94-2.45,0-3.39-.94-.94-2.46-.93-3.39,0s-.93,2.46,0,3.39,2.45.94,3.39,0Z"/>
    <path class="st0" d="M748.18,259.38c.93.93,2.45.94,3.39,0s.94-2.45,0-3.39c-.94-.94-2.46-.93-3.39,0s-.93,2.46,0,3.39Z"/>
    <path class="st0" d="M717.63,259.38c.93-.93.94-2.45,0-3.39-.94-.94-2.46-.93-3.39,0-.93.93-.93,2.46,0,3.39s2.45.94,3.39,0Z"/>
    <path class="st0" d="M731.2,242.41c.93.93,2.45.94,3.39,0,.93-.93.94-2.45,0-3.39-.94-.94-2.46-.93-3.39,0-.93.93-.93,2.46,0,3.39Z"/>
    <path class="st0" d="M731.2,255.99c-.93.93-.93,2.46,0,3.39s2.45.94,3.39,0c.93-.93.94-2.45,0-3.39s-2.46-.93-3.39,0Z"/>
    <path class="st0" d="M714.23,276.36c.93.93,2.45.94,3.39,0,.93-.93.94-2.45,0-3.39-.94-.94-2.46-.93-3.39,0s-.93,2.46,0,3.39Z"/>
    <path class="st0" d="M714.23,239.02c-.93.93-.93,2.46,0,3.39.93.93,2.45.94,3.39,0,.93-.93.94-2.45,0-3.39-.94-.94-2.46-.93-3.39,0Z"/>
    <path class="st0" d="M700.66,259.38c.93-.93.94-2.45,0-3.39-.94-.94-2.46-.93-3.39,0s-.93,2.46,0,3.39c.93.93,2.45.94,3.39,0Z"/>
    <path class="st0" d="M700.66,242.41c.93-.93.94-2.45,0-3.39-.94-.94-2.46-.93-3.39,0s-.93,2.46,0,3.39,2.45.94,3.39,0Z"/>
    <path class="st0" d="M782.12,293.33c.12.12.24.22.38.31.27.18.56.29.86.35.15.03.3.04.46.04.31,0,.61-.06.9-.17s.56-.29.8-.53c.93-.93.94-2.45,0-3.39-.94-.94-2.46-.93-3.39,0-.93.93-.93,2.46,0,3.39Z"/>
    <path class="st0" d="M751.57,293.33c.93-.93.94-2.45,0-3.39-.94-.94-2.46-.93-3.39,0s-.93,2.46,0,3.39,2.45.94,3.39,0Z"/>
    <path class="st0" d="M765.15,276.36c.93.93,2.45.94,3.39,0,.93-.93.94-2.45,0-3.39-.94-.94-2.46-.93-3.39,0s-.93,2.46,0,3.39Z"/>
    <path class="st0" d="M765.15,289.93c-.93.93-.93,2.46,0,3.39.93.93,2.45.94,3.39,0,.93-.93.94-2.45,0-3.39s-2.46-.93-3.39,0Z"/>
    <path class="st0" d="M748.18,310.3c.93.93,2.45.94,3.39,0s.94-2.45,0-3.39c-.94-.94-2.46-.93-3.39,0s-.93,2.46,0,3.39Z"/>
    <path class="st0" d="M748.18,272.96c-.93.93-.93,2.46,0,3.39s2.45.94,3.39,0c.93-.93.94-2.45,0-3.39s-2.46-.93-3.39,0Z"/>
    <path class="st0" d="M734.6,293.33c.93-.93.94-2.45,0-3.39-.94-.94-2.46-.93-3.39,0-.93.93-.93,2.46,0,3.39.93.93,2.45.94,3.39,0Z"/>
    <path class="st0" d="M734.6,276.36c.93-.93.94-2.45,0-3.39-.94-.94-2.46-.93-3.39,0s-.93,2.46,0,3.39c.93.93,2.45.94,3.39,0Z"/>
    <path class="st0" d="M799.09,340.84c-.93.93-.93,2.46,0,3.39s2.45.94,3.39,0c.93-.93.94-2.45,0-3.39-.94-.94-2.46-.93-3.39,0Z"/>
    <path class="st0" d="M782.12,323.87c-.93.93-.93,2.46,0,3.39s2.45.94,3.39,0c.93-.93.94-2.45,0-3.39-.94-.94-2.46-.93-3.39,0Z"/>
    <path class="st0" d="M799.09,310.3c.93.93,2.45.94,3.39,0s.94-2.45,0-3.39c-.94-.94-2.46-.93-3.39,0s-.93,2.46,0,3.39Z"/>
    <path class="st0" d="M799.09,323.87c-.93.93-.93,2.46,0,3.39.93.93,2.45.94,3.39,0s.94-2.45,0-3.39-2.46-.93-3.39,0Z"/>
    <path class="st0" d="M785.51,344.24c.93-.93.94-2.45,0-3.39-.94-.94-2.46-.93-3.39,0s-.93,2.46,0,3.39c.93.93,2.45.94,3.39,0Z"/>
    <path class="st0" d="M782.12,306.9c-.93.93-.93,2.46,0,3.39s2.45.94,3.39,0c.93-.93.94-2.45,0-3.39s-2.46-.93-3.39,0Z"/>
    <path class="st0" d="M765.15,323.87c-.93.93-.93,2.46,0,3.39s2.45.94,3.39,0,.94-2.45,0-3.39c-.94-.94-2.46-.93-3.39,0Z"/>
    <path class="st0" d="M768.54,340.84c-.94-.94-2.46-.93-3.39,0s-.93,2.46,0,3.39c.93.93,2.45.94,3.39,0,.93-.93.94-2.45,0-3.39Z"/>
    <path class="st0" d="M768.54,310.3c.93-.93.94-2.45,0-3.39-.94-.94-2.46-.93-3.39,0-.93.93-.93,2.46,0,3.39s2.45.94,3.39,0Z"/>
    <path class="st0" d="M751.57,323.87c-.94-.94-2.46-.93-3.39,0-.93.93-.93,2.46,0,3.39.93.93,2.45.94,3.39,0s.94-2.45,0-3.39Z"/>
    <path class="st0" d="M816.06,357.81c-.93.93-.93,2.46,0,3.39.93.93,2.45.94,3.39,0s.94-2.45,0-3.39c-.94-.94-2.46-.93-3.39,0Z"/>
    <path class="st0" d="M833.03,344.24c.93.93,2.45.94,3.39,0s.94-2.45,0-3.39c-.94-.94-2.46-.93-3.39,0s-.93,2.46,0,3.39Z"/>
    <path class="st0" d="M836.42,361.21c.93-.93.94-2.45,0-3.39s-2.46-.93-3.39,0c-.93.93-.93,2.46,0,3.39s2.45.94,3.39,0Z"/>
    <path class="st0" d="M819.45,378.18c.93-.93.94-2.45,0-3.39s-2.46-.93-3.39,0c-.93.93-.93,2.46,0,3.39.93.93,2.45.94,3.39,0Z"/>
    <path class="st0" d="M819.45,340.84c-.94-.94-2.46-.93-3.39,0-.93.93-.93,2.46,0,3.39.93.93,2.45.94,3.39,0,.93-.93.94-2.45,0-3.39Z"/>
    <path class="st0" d="M802.48,361.21c.93-.93.94-2.45,0-3.39-.94-.94-2.46-.93-3.39,0s-.93,2.46,0,3.39c.93.93,2.45.94,3.39,0Z"/>
    <path class="st0" d="M802.48,374.78c-.94-.94-2.46-.93-3.39,0-.93.93-.93,2.46,0,3.39.93.93,2.45.94,3.39,0s.94-2.45,0-3.39Z"/>
    <path class="st0" d="M785.51,357.81c-.94-.94-2.46-.93-3.39,0-.93.93-.93,2.46,0,3.39s2.45.94,3.39,0c.93-.93.94-2.45,0-3.39Z"/>
    <path class="st0" d="M866.97,408.73c-.93.93-.93,2.46,0,3.39.93.93,2.45.94,3.39,0s.94-2.45,0-3.39c-.94-.94-2.46-.93-3.39,0Z"/>
    <path class="st0" d="M850,391.75c-.93.93-.93,2.46,0,3.39s2.45.94,3.39,0,.94-2.45,0-3.39c-.94-.94-2.46-.93-3.39,0Z"/>
    <path class="st0" d="M866.97,391.75c-.93.93-.93,2.46,0,3.39s2.45.94,3.39,0c.93-.93.94-2.45,0-3.39-.94-.94-2.46-.93-3.39,0Z"/>
    <path class="st0" d="M853.39,412.12c.93-.93.94-2.45,0-3.39s-2.46-.93-3.39,0-.93,2.46,0,3.39c.93.93,2.45.94,3.39,0Z"/>
    <path class="st0" d="M853.39,374.78c-.94-.94-2.46-.93-3.39,0-.93.93-.93,2.46,0,3.39.93.93,2.45.94,3.39,0,.93-.93.94-2.45,0-3.39Z"/>
    <path class="st0" d="M836.42,395.15c.93-.93.94-2.45,0-3.39-.94-.94-2.46-.93-3.39,0s-.93,2.46,0,3.39c.93.93,2.45.94,3.39,0Z"/>
    <path class="st0" d="M836.42,378.18c.93-.93.94-2.45,0-3.39-.94-.94-2.46-.93-3.39,0s-.93,2.46,0,3.39,2.45.94,3.39,0Z"/>
    <path class="st0" d="M819.45,391.75c-.94-.94-2.46-.93-3.39,0-.93.93-.93,2.46,0,3.39.93.93,2.45.94,3.39,0,.93-.93.94-2.45,0-3.39Z"/>
    <path class="st0" d="M900.91,442.67c-.34.34-.56.77-.65,1.22l1.73-1.83c-.4.11-.77.3-1.08.61Z"/>
    <path class="st0" d="M883.94,425.7c-.93.93-.93,2.46,0,3.39s2.45.94,3.39,0c.93-.93.94-2.45,0-3.39-.94-.94-2.46-.93-3.39,0Z"/>
    <path class="st0" d="M900.91,425.7c-.93.93-.93,2.46,0,3.39.93.93,2.45.94,3.39,0,.93-.93.94-2.45,0-3.39s-2.46-.93-3.39,0Z"/>
    <path class="st0" d="M887.33,446.06c.93-.93.94-2.45,0-3.39-.94-.94-2.46-.93-3.39,0s-.93,2.46,0,3.39c.93.93,2.45.94,3.39,0Z"/>
    <path class="st0" d="M887.33,408.73c-.94-.94-2.46-.93-3.39,0-.93.93-.93,2.46,0,3.39.93.93,2.45.94,3.39,0,.93-.93.94-2.45,0-3.39Z"/>
    <path class="st0" d="M870.36,429.09c.93-.93.94-2.45,0-3.39-.94-.94-2.46-.93-3.39,0s-.93,2.46,0,3.39c.93.93,2.45.94,3.39,0Z"/>
    <path class="st0" d="M885.98,458.97c-.72-.1-1.48.12-2.04.67-.59.59-.8,1.41-.65,2.17l2.69-2.84Z"/>
    <path class="st0" d="M870.36,442.67c-.94-.94-2.46-.93-3.39,0-.93.93-.93,2.46,0,3.39s2.45.94,3.39,0c.93-.93.94-2.45,0-3.39Z"/>
    <path class="st0" d="M853.39,425.7c-.94-.94-2.46-.93-3.39,0s-.93,2.46,0,3.39c.93.93,2.45.94,3.39,0,.93-.93.94-2.45,0-3.39Z"/>
    <path class="st0" d="M595.44,205.08c-.93.93-.93,2.46,0,3.39s2.45.94,3.39,0,.94-2.45,0-3.39c-.94-.94-2.46-.93-3.39,0Z"/>
    <path class="st0" d="M612.41,191.5c.93.93,2.45.94,3.39,0,.93-.93.94-2.45,0-3.39s-2.46-.93-3.39,0c-.93.93-.93,2.46,0,3.39Z"/>
    <path class="st0" d="M581.86,191.5c.93-.93.94-2.45,0-3.39-.94-.94-2.46-.93-3.39,0s-.93,2.46,0,3.39c.93.93,2.45.94,3.39,0Z"/>
    <path class="st0" d="M595.44,188.11c-.93.93-.93,2.46,0,3.39s2.45.94,3.39,0,.94-2.45,0-3.39c-.94-.94-2.46-.93-3.39,0Z"/>
    <path class="st0" d="M578.47,208.47c.93.93,2.45.94,3.39,0s.94-2.45,0-3.39c-.94-.94-2.46-.93-3.39,0s-.93,2.46,0,3.39Z"/>
    <path class="st0" d="M578.47,171.14c-.93.93-.93,2.46,0,3.39s2.45.94,3.39,0c.93-.93.94-2.45,0-3.39-.94-.94-2.46-.93-3.39,0Z"/>
    <path class="st0" d="M564.89,191.5c.93-.93.94-2.45,0-3.39s-2.46-.93-3.39,0c-.93.93-.93,2.46,0,3.39s2.45.94,3.39,0Z"/>
    <path class="st0" d="M646.35,225.44c.93.93,2.45.94,3.39,0,.93-.93.94-2.45,0-3.39s-2.46-.93-3.39,0c-.93.93-.93,2.46,0,3.39Z"/>
    <path class="st0" d="M615.8,225.44c.93-.93.94-2.45,0-3.39-.94-.94-2.46-.93-3.39,0s-.93,2.46,0,3.39c.93.93,2.45.94,3.39,0Z"/>
    <path class="st0" d="M629.38,208.47c.93.93,2.45.94,3.39,0s.94-2.45,0-3.39c-.94-.94-2.46-.93-3.39,0s-.93,2.46,0,3.39Z"/>
    <path class="st0" d="M632.78,225.44c.93-.93.94-2.45,0-3.39-.94-.94-2.46-.93-3.39,0-.93.93-.93,2.46,0,3.39s2.45.94,3.39,0Z"/>
    <path class="st0" d="M612.41,242.41c.93.93,2.45.94,3.39,0,.93-.93.94-2.45,0-3.39-.94-.94-2.46-.93-3.39,0-.93.93-.93,2.46,0,3.39Z"/>
    <path class="st0" d="M612.41,205.08c-.93.93-.93,2.46,0,3.39s2.45.94,3.39,0c.93-.93.94-2.45,0-3.39-.94-.94-2.46-.93-3.39,0Z"/>
    <path class="st0" d="M595.44,222.05c-.93.93-.93,2.46,0,3.39.93.93,2.45.94,3.39,0,.93-.93.94-2.45,0-3.39-.94-.94-2.46-.93-3.39,0Z"/>
    <path class="st0" d="M598.83,239.02c-.94-.94-2.46-.93-3.39,0-.93.93-.93,2.46,0,3.39.93.93,2.45.94,3.39,0,.93-.93.94-2.45,0-3.39Z"/>
    <path class="st0" d="M680.29,259.38c.93.93,2.45.94,3.39,0,.93-.93.94-2.45,0-3.39s-2.46-.93-3.39,0-.93,2.46,0,3.39Z"/>
    <path class="st0" d="M649.75,259.38c.93-.93.94-2.45,0-3.39-.94-.94-2.46-.93-3.39,0s-.93,2.46,0,3.39c.93.93,2.45.94,3.39,0Z"/>
    <path class="st0" d="M663.32,242.41c.93.93,2.45.94,3.39,0s.94-2.45,0-3.39-2.46-.93-3.39,0c-.93.93-.93,2.46,0,3.39Z"/>
    <path class="st0" d="M666.72,259.38c.93-.93.94-2.45,0-3.39-.94-.94-2.46-.93-3.39,0-.93.93-.93,2.46,0,3.39s2.45.94,3.39,0Z"/>
    <path class="st0" d="M646.35,276.36c.93.93,2.45.94,3.39,0,.93-.93.94-2.45,0-3.39s-2.46-.93-3.39,0c-.93.93-.93,2.46,0,3.39Z"/>
    <path class="st0" d="M646.35,239.02c-.93.93-.93,2.46,0,3.39s2.45.94,3.39,0c.93-.93.94-2.45,0-3.39-.94-.94-2.46-.93-3.39,0Z"/>
    <path class="st0" d="M632.78,259.38c.93-.93.94-2.45,0-3.39-.94-.94-2.46-.93-3.39,0s-.93,2.46,0,3.39c.93.93,2.45.94,3.39,0Z"/>
    <path class="st0" d="M632.78,242.41c.93-.93.94-2.45,0-3.39-.94-.94-2.46-.93-3.39,0s-.93,2.46,0,3.39,2.45.94,3.39,0Z"/>
    <path class="st0" d="M714.23,293.33c.12.12.24.22.38.31.27.18.56.29.86.35.15.03.3.04.46.04.31,0,.61-.06.9-.17.29-.12.56-.29.8-.53s.41-.5.53-.79c.35-.87.18-1.9-.53-2.6-.94-.94-2.46-.93-3.39,0-.93.93-.93,2.46,0,3.39Z"/>
    <path class="st0" d="M680.29,289.93c-.93.93-.93,2.46,0,3.39s2.45.94,3.39,0c.93-.93.94-2.45,0-3.39-.94-.94-2.46-.93-3.39,0Z"/>
    <path class="st0" d="M697.26,276.36c.93.93,2.45.94,3.39,0,.93-.93.94-2.45,0-3.39s-2.46-.93-3.39,0c-.93.93-.93,2.46,0,3.39Z"/>
    <path class="st0" d="M697.26,289.93c-.93.93-.93,2.46,0,3.39s2.45.94,3.39,0c.93-.93.94-2.45,0-3.39-.94-.94-2.46-.93-3.39,0Z"/>
    <path class="st0" d="M683.69,310.3c.93-.93.94-2.45,0-3.39s-2.46-.93-3.39,0-.93,2.46,0,3.39c.93.93,2.45.94,3.39,0Z"/>
    <path class="st0" d="M680.29,272.96c-.93.93-.93,2.46,0,3.39s2.45.94,3.39,0,.94-2.45,0-3.39c-.94-.94-2.46-.93-3.39,0Z"/>
    <path class="st0" d="M666.72,293.33c.93-.93.94-2.45,0-3.39-.94-.94-2.46-.93-3.39,0-.93.93-.93,2.46,0,3.39.93.93,2.45.94,3.39,0Z"/>
    <path class="st0" d="M666.72,276.36c.93-.93.94-2.45,0-3.39-.94-.94-2.46-.93-3.39,0s-.93,2.46,0,3.39c.93.93,2.45.94,3.39,0Z"/>
    <path class="st0" d="M731.2,340.84c-.93.93-.93,2.46,0,3.39.93.93,2.45.94,3.39,0s.94-2.45,0-3.39c-.94-.94-2.46-.93-3.39,0Z"/>
    <path class="st0" d="M714.23,323.87c-.93.93-.93,2.46,0,3.39s2.45.94,3.39,0c.93-.93.94-2.45,0-3.39-.94-.94-2.46-.93-3.39,0Z"/>
    <path class="st0" d="M731.2,310.3c.93.93,2.45.94,3.39,0,.93-.93.94-2.45,0-3.39s-2.46-.93-3.39,0c-.93.93-.93,2.46,0,3.39Z"/>
    <path class="st0" d="M731.2,323.87c-.93.93-.93,2.46,0,3.39s2.45.94,3.39,0c.93-.93.94-2.45,0-3.39-.94-.94-2.46-.93-3.39,0Z"/>
    <path class="st0" d="M717.63,344.24c.93-.93.94-2.45,0-3.39s-2.46-.93-3.39,0-.93,2.46,0,3.39c.93.93,2.45.94,3.39,0Z"/>
    <path class="st0" d="M714.23,306.9c-.93.93-.93,2.46,0,3.39s2.45.94,3.39,0,.94-2.45,0-3.39c-.94-.94-2.46-.93-3.39,0Z"/>
    <path class="st0" d="M700.66,327.27c.93-.93.94-2.45,0-3.39s-2.46-.93-3.39,0c-.93.93-.93,2.46,0,3.39.93.93,2.45.94,3.39,0Z"/>
    <path class="st0" d="M700.66,340.84c-.94-.94-2.46-.93-3.39,0-.93.93-.93,2.46,0,3.39s2.45.94,3.39,0c.93-.93.94-2.45,0-3.39Z"/>
    <path class="st0" d="M700.66,310.3c.93-.93.94-2.45,0-3.39-.94-.94-2.46-.93-3.39,0s-.93,2.46,0,3.39c.93.93,2.45.94,3.39,0Z"/>
    <path class="st0" d="M765.15,374.78c-.93.93-.93,2.46,0,3.39s2.45.94,3.39,0,.94-2.45,0-3.39c-.94-.94-2.46-.93-3.39,0Z"/>
    <path class="st0" d="M748.18,357.81c-.93.93-.93,2.46,0,3.39.93.93,2.45.94,3.39,0s.94-2.45,0-3.39c-.94-.94-2.46-.93-3.39,0Z"/>
    <path class="st0" d="M765.15,357.81c-.93.93-.93,2.46,0,3.39s2.45.94,3.39,0,.94-2.45,0-3.39c-.94-.94-2.46-.93-3.39,0Z"/>
    <path class="st0" d="M751.57,378.18c.93-.93.94-2.45,0-3.39s-2.46-.93-3.39,0c-.93.93-.93,2.46,0,3.39.93.93,2.45.94,3.39,0Z"/>
    <path class="st0" d="M751.57,340.84c-.94-.94-2.46-.93-3.39,0-.93.93-.93,2.46,0,3.39s2.45.94,3.39,0c.93-.93.94-2.45,0-3.39Z"/>
    <path class="st0" d="M731.2,357.81c-.93.93-.93,2.46,0,3.39s2.45.94,3.39,0c.93-.93.94-2.45,0-3.39s-2.46-.93-3.39,0Z"/>
    <path class="st0" d="M734.6,374.78c-.94-.94-2.46-.93-3.39,0s-.93,2.46,0,3.39,2.45.94,3.39,0c.93-.93.94-2.45,0-3.39Z"/>
    <path class="st0" d="M717.63,357.81c-.94-.94-2.46-.93-3.39,0-.93.93-.93,2.46,0,3.39s2.45.94,3.39,0c.23-.23.41-.5.53-.79.35-.87.18-1.9-.53-2.6Z"/>
    <path class="st0" d="M799.09,408.73c-.93.93-.93,2.46,0,3.39.93.93,2.45.94,3.39,0s.94-2.45,0-3.39c-.94-.94-2.46-.93-3.39,0Z"/>
    <path class="st0" d="M782.12,391.75c-.93.93-.93,2.46,0,3.39.93.93,2.45.94,3.39,0s.94-2.45,0-3.39c-.94-.94-2.46-.93-3.39,0Z"/>
    <path class="st0" d="M799.09,391.75c-.93.93-.93,2.46,0,3.39s2.45.94,3.39,0c.93-.93.94-2.45,0-3.39-.94-.94-2.46-.93-3.39,0Z"/>
    <path class="st0" d="M785.51,412.12c.93-.93.94-2.45,0-3.39s-2.46-.93-3.39,0c-.93.93-.93,2.46,0,3.39s2.45.94,3.39,0Z"/>
    <path class="st0" d="M785.51,374.78c-.94-.94-2.46-.93-3.39,0s-.93,2.46,0,3.39,2.45.94,3.39,0c.93-.93.94-2.45,0-3.39Z"/>
    <path class="st0" d="M765.15,391.75c-.93.93-.93,2.46,0,3.39.93.93,2.45.94,3.39,0,.93-.93.94-2.45,0-3.39-.94-.94-2.46-.93-3.39,0Z"/>
    <path class="st0" d="M768.54,408.73c-.94-.94-2.46-.93-3.39,0-.93.93-.93,2.46,0,3.39.23.23.5.41.79.53.14.06.29.1.44.13.3.06.61.06.92,0,.45-.09.89-.31,1.24-.66.93-.93.94-2.45,0-3.39Z"/>
    <path class="st0" d="M751.57,391.75c-.94-.94-2.46-.93-3.39,0-.93.93-.93,2.46,0,3.39s2.45.94,3.39,0c.93-.93.94-2.45,0-3.39Z"/>
    <path class="st0" d="M816.06,425.7c-.93.93-.93,2.46,0,3.39.93.93,2.45.94,3.39,0s.94-2.45,0-3.39c-.94-.94-2.46-.93-3.39,0Z"/>
    <path class="st0" d="M833.03,412.12c.23.23.5.41.79.53.14.06.29.1.44.13.3.06.61.06.92,0,.45-.09.89-.31,1.24-.66.93-.93.94-2.45,0-3.39s-2.46-.93-3.39,0c-.93.93-.93,2.46,0,3.39Z"/>
    <path class="st0" d="M836.42,429.09c.93-.93.94-2.45,0-3.39s-2.46-.93-3.39,0c-.93.93-.93,2.46,0,3.39s2.45.94,3.39,0Z"/>
    <path class="st0" d="M819.45,446.06c.93-.93.94-2.45,0-3.39s-2.46-.93-3.39,0c-.93.93-.93,2.46,0,3.39s2.45.94,3.39,0Z"/>
    <path class="st0" d="M819.45,408.73c-.94-.94-2.46-.93-3.39,0-.93.93-.93,2.46,0,3.39s2.45.94,3.39,0,.94-2.45,0-3.39Z"/>
    <path class="st0" d="M802.48,429.09c.93-.93.94-2.45,0-3.39-.94-.94-2.46-.93-3.39,0s-.93,2.46,0,3.39c.93.93,2.45.94,3.39,0Z"/>
    <path class="st0" d="M802.48,442.67c-.94-.94-2.46-.93-3.39,0-.93.93-.93,2.46,0,3.39s2.45.94,3.39,0c.93-.93.94-2.45,0-3.39Z"/>
    <path class="st0" d="M785.51,425.7c-.94-.94-2.46-.93-3.39,0-.93.93-.93,2.46,0,3.39s2.45.94,3.39,0c.93-.93.94-2.45,0-3.39Z"/>
    <path class="st0" d="M866.97,476.61c-.77.77-.89,1.94-.4,2.85l3.13-3.3c-.9-.43-2-.28-2.73.46Z"/>
    <path class="st0" d="M850,459.64c-.93.93-.93,2.46,0,3.39s2.45.94,3.39,0c.93-.93.94-2.45,0-3.39-.94-.94-2.46-.93-3.39,0Z"/>
    <path class="st0" d="M866.97,459.64c-.93.93-.93,2.46,0,3.39s2.45.94,3.39,0c.93-.93.94-2.45,0-3.39-.94-.94-2.46-.93-3.39,0Z"/>
    <path class="st0" d="M853.39,480c.93-.93.94-2.45,0-3.39s-2.46-.93-3.39,0-.93,2.46,0,3.39c.93.93,2.45.94,3.39,0Z"/>
    <path class="st0" d="M853.39,442.67c-.94-.94-2.46-.93-3.39,0-.93.93-.93,2.46,0,3.39s2.45.94,3.39,0,.94-2.45,0-3.39Z"/>
    <path class="st0" d="M836.42,463.03c.93-.93.94-2.45,0-3.39-.94-.94-2.46-.93-3.39,0-.93.93-.93,2.46,0,3.39.93.93,2.45.94,3.39,0Z"/>
    <path class="st0" d="M836.42,446.06c.93-.93.94-2.45,0-3.39-.94-.94-2.46-.93-3.39,0s-.93,2.46,0,3.39c.93.93,2.45.94,3.39,0Z"/>
    <path class="st0" d="M819.45,459.64c-.94-.94-2.46-.93-3.39,0-.93.93-.93,2.46,0,3.39.93.93,2.45.94,3.39,0,.93-.93.94-2.45,0-3.39Z"/>
    <path class="st0" d="M578.47,225.44c.93.93,2.45.94,3.39,0,.93-.93.94-2.45,0-3.39s-2.46-.93-3.39,0c-.93.93-.93,2.46,0,3.39Z"/>
    <path class="st0" d="M547.92,225.44c.93-.93.94-2.45,0-3.39-.94-.94-2.46-.93-3.39,0s-.93,2.46,0,3.39c.93.93,2.45.94,3.39,0Z"/>
    <path class="st0" d="M561.5,208.47c.93.93,2.45.94,3.39,0,.93-.93.94-2.45,0-3.39-.94-.94-2.46-.93-3.39,0-.93.93-.93,2.46,0,3.39Z"/>
    <path class="st0" d="M561.5,222.05c-.93.93-.93,2.46,0,3.39.93.93,2.45.94,3.39,0s.94-2.45,0-3.39c-.94-.94-2.46-.93-3.39,0Z"/>
    <path class="st0" d="M544.53,242.41c.93.93,2.45.94,3.39,0,.93-.93.94-2.45,0-3.39s-2.46-.93-3.39,0c-.93.93-.93,2.46,0,3.39Z"/>
    <path class="st0" d="M547.92,208.47c.91-.91.93-2.36.07-3.3l-2.58,3.86c.84.3,1.82.12,2.5-.56Z"/>
    <path class="st0" d="M544.53,255.99c-.93.93-.93,2.46,0,3.39s2.45.94,3.39,0,.94-2.45,0-3.39c-.94-.94-2.46-.93-3.39,0Z"/>
    <path class="st0" d="M527.56,239.02c-.93.93-.93,2.46,0,3.39s2.45.94,3.39,0c.93-.93.94-2.45,0-3.39-.94-.94-2.46-.93-3.39,0Z"/>
    <path class="st0" d="M595.44,272.96c-.93.93-.93,2.46,0,3.39.93.93,2.45.94,3.39,0,.93-.93.94-2.45,0-3.39-.94-.94-2.46-.93-3.39,0Z"/>
    <path class="st0" d="M612.41,259.38c.93.93,2.45.94,3.39,0,.93-.93.94-2.45,0-3.39s-2.46-.93-3.39,0c-.93.93-.93,2.46,0,3.39Z"/>
    <path class="st0" d="M578.47,255.99c-.93.93-.93,2.46,0,3.39.93.93,2.45.94,3.39,0s.94-2.45,0-3.39c-.94-.94-2.46-.93-3.39,0Z"/>
    <path class="st0" d="M595.44,255.99c-.93.93-.93,2.46,0,3.39s2.45.94,3.39,0,.94-2.45,0-3.39c-.94-.94-2.46-.93-3.39,0Z"/>
    <path class="st0" d="M581.86,276.36c.93-.93.94-2.45,0-3.39s-2.46-.93-3.39,0c-.93.93-.93,2.46,0,3.39s2.45.94,3.39,0Z"/>
    <path class="st0" d="M578.47,239.02c-.93.93-.93,2.46,0,3.39s2.45.94,3.39,0c.93-.93.94-2.45,0-3.39-.94-.94-2.46-.93-3.39,0Z"/>
    <path class="st0" d="M564.89,259.38c.93-.93.94-2.45,0-3.39s-2.46-.93-3.39,0c-.93.93-.93,2.46,0,3.39s2.45.94,3.39,0Z"/>
    <path class="st0" d="M564.89,242.41c.93-.93.94-2.45,0-3.39-.94-.94-2.46-.93-3.39,0-.93.93-.93,2.46,0,3.39.93.93,2.45.94,3.39,0Z"/>
    <path class="st0" d="M646.35,293.33c.12.12.24.22.38.31.27.18.56.29.86.35.15.03.3.04.46.04.31,0,.61-.06.9-.17.29-.12.56-.29.8-.53.93-.93.94-2.45,0-3.39-.94-.94-2.46-.93-3.39,0s-.93,2.46,0,3.39Z"/>
    <path class="st0" d="M615.8,293.33c.93-.93.94-2.45,0-3.39-.94-.94-2.46-.93-3.39,0-.93.93-.93,2.46,0,3.39.93.93,2.45.94,3.39,0Z"/>
    <path class="st0" d="M629.38,276.36c.93.93,2.45.94,3.39,0,.93-.93.94-2.45,0-3.39-.94-.94-2.46-.93-3.39,0-.93.93-.93,2.46,0,3.39Z"/>
    <path class="st0" d="M632.78,293.33c.93-.93.94-2.45,0-3.39-.94-.94-2.46-.93-3.39,0s-.93,2.46,0,3.39,2.45.94,3.39,0Z"/>
    <path class="st0" d="M612.41,310.3c.93.93,2.45.94,3.39,0,.93-.93.94-2.45,0-3.39s-2.46-.93-3.39,0c-.93.93-.93,2.46,0,3.39Z"/>
    <path class="st0" d="M612.41,272.96c-.93.93-.93,2.46,0,3.39.93.93,2.45.94,3.39,0s.94-2.45,0-3.39c-.94-.94-2.46-.93-3.39,0Z"/>
    <path class="st0" d="M598.83,293.33c.93-.93.94-2.45,0-3.39s-2.46-.93-3.39,0c-.93.93-.93,2.46,0,3.39.93.93,2.45.94,3.39,0Z"/>
    <path class="st0" d="M663.32,340.84c-.93.93-.93,2.46,0,3.39.93.93,2.45.94,3.39,0,.93-.93.94-2.45,0-3.39s-2.46-.93-3.39,0Z"/>
    <path class="st0" d="M680.29,327.27c.93.93,2.45.94,3.39,0,.93-.93.94-2.45,0-3.39-.94-.94-2.46-.93-3.39,0-.93.93-.93,2.46,0,3.39Z"/>
    <path class="st0" d="M649.75,327.27c.93-.93.94-2.45,0-3.39s-2.46-.93-3.39,0c-.93.93-.93,2.46,0,3.39.93.93,2.45.94,3.39,0Z"/>
    <path class="st0" d="M663.32,310.3c.93.93,2.45.94,3.39,0,.93-.93.94-2.45,0-3.39-.94-.94-2.46-.93-3.39,0-.93.93-.93,2.46,0,3.39Z"/>
    <path class="st0" d="M666.72,327.27c.93-.93.94-2.45,0-3.39-.94-.94-2.46-.93-3.39,0s-.93,2.46,0,3.39,2.45.94,3.39,0Z"/>
    <path class="st0" d="M649.75,344.24c.93-.93.94-2.45,0-3.39-.94-.94-2.46-.93-3.39,0-.93.93-.93,2.46,0,3.39s2.45.94,3.39,0Z"/>
    <path class="st0" d="M646.35,306.9c-.93.93-.93,2.46,0,3.39.93.93,2.45.94,3.39,0s.94-2.45,0-3.39c-.94-.94-2.46-.93-3.39,0Z"/>
    <path class="st0" d="M632.78,327.27c.93-.93.94-2.45,0-3.39s-2.46-.93-3.39,0c-.93.93-.93,2.46,0,3.39.93.93,2.45.94,3.39,0Z"/>
    <path class="st0" d="M632.78,340.84c-.94-.94-2.46-.93-3.39,0-.93.93-.93,2.46,0,3.39s2.45.94,3.39,0c.93-.93.94-2.45,0-3.39Z"/>
    <path class="st0" d="M632.78,310.3c.93-.93.94-2.45,0-3.39-.94-.94-2.46-.93-3.39,0s-.93,2.46,0,3.39c.93.93,2.45.94,3.39,0Z"/>
    <path class="st0" d="M697.26,374.78c-.93.93-.93,2.46,0,3.39.93.93,2.45.94,3.39,0s.94-2.45,0-3.39-2.46-.93-3.39,0Z"/>
    <path class="st0" d="M680.29,357.81c-.93.93-.93,2.46,0,3.39.93.93,2.45.94,3.39,0,.93-.93.94-2.45,0-3.39s-2.46-.93-3.39,0Z"/>
    <path class="st0" d="M697.26,357.81c-.93.93-.93,2.46,0,3.39.93.93,2.45.94,3.39,0s.94-2.45,0-3.39c-.94-.94-2.46-.93-3.39,0Z"/>
    <path class="st0" d="M683.69,378.18c.93-.93.94-2.45,0-3.39-.94-.94-2.46-.93-3.39,0-.93.93-.93,2.46,0,3.39.93.93,2.45.94,3.39,0Z"/>
    <path class="st0" d="M683.69,340.84c-.94-.94-2.46-.93-3.39,0-.93.93-.93,2.46,0,3.39s2.45.94,3.39,0,.94-2.45,0-3.39Z"/>
    <path class="st0" d="M666.72,361.21c.93-.93.94-2.45,0-3.39s-2.46-.93-3.39,0c-.93.93-.93,2.46,0,3.39s2.45.94,3.39,0Z"/>
    <path class="st0" d="M666.72,374.78c-.94-.94-2.46-.93-3.39,0s-.93,2.46,0,3.39,2.45.94,3.39,0c.93-.93.94-2.45,0-3.39Z"/>
    <path class="st0" d="M649.75,357.81c-.94-.94-2.46-.93-3.39,0s-.93,2.46,0,3.39c.93.93,2.45.94,3.39,0s.94-2.45,0-3.39Z"/>
    <path class="st0" d="M731.2,408.73c-.93.93-.93,2.46,0,3.39s2.45.94,3.39,0c.93-.93.94-2.45,0-3.39s-2.46-.93-3.39,0Z"/>
    <path class="st0" d="M714.23,391.75c-.93.93-.93,2.46,0,3.39.93.93,2.45.94,3.39,0,.93-.93.94-2.45,0-3.39-.94-.94-2.46-.93-3.39,0Z"/>
    <path class="st0" d="M731.2,391.75c-.93.93-.93,2.46,0,3.39.93.93,2.45.94,3.39,0s.94-2.45,0-3.39c-.94-.94-2.46-.93-3.39,0Z"/>
    <path class="st0" d="M717.63,412.12c.93-.93.94-2.45,0-3.39-.94-.94-2.46-.93-3.39,0-.93.93-.93,2.46,0,3.39s2.45.94,3.39,0Z"/>
    <path class="st0" d="M717.63,374.78c-.94-.94-2.46-.93-3.39,0s-.93,2.46,0,3.39,2.45.94,3.39,0,.94-2.45,0-3.39Z"/>
    <path class="st0" d="M697.26,391.75c-.93.93-.93,2.46,0,3.39s2.45.94,3.39,0c.93-.93.94-2.45,0-3.39s-2.46-.93-3.39,0Z"/>
    <path class="st0" d="M700.66,408.73c-.94-.94-2.46-.93-3.39,0s-.93,2.46,0,3.39c.23.23.5.41.79.53.14.06.29.1.44.13.3.06.61.06.92,0,.45-.09.89-.31,1.24-.66.93-.93.94-2.45,0-3.39Z"/>
    <path class="st0" d="M683.69,391.75c-.94-.94-2.46-.93-3.39,0-.93.93-.93,2.46,0,3.39s2.45.94,3.39,0,.94-2.45,0-3.39Z"/>
    <path class="st0" d="M765.15,442.67c-.93.93-.93,2.46,0,3.39.93.93,2.45.94,3.39,0,.93-.93.94-2.45,0-3.39-.94-.94-2.46-.93-3.39,0Z"/>
    <path class="st0" d="M748.18,425.7c-.93.93-.93,2.46,0,3.39.93.93,2.45.94,3.39,0s.94-2.45,0-3.39c-.94-.94-2.46-.93-3.39,0Z"/>
    <path class="st0" d="M765.15,425.7c-.93.93-.93,2.46,0,3.39s2.45.94,3.39,0,.94-2.45,0-3.39c-.94-.94-2.46-.93-3.39,0Z"/>
    <path class="st0" d="M751.57,446.06c.93-.93.94-2.45,0-3.39s-2.46-.93-3.39,0c-.93.93-.93,2.46,0,3.39s2.45.94,3.39,0Z"/>
    <path class="st0" d="M751.57,408.73c-.94-.94-2.46-.93-3.39,0s-.93,2.46,0,3.39c.93.93,2.45.94,3.39,0s.94-2.45,0-3.39Z"/>
    <path class="st0" d="M731.2,425.7c-.93.93-.93,2.46,0,3.39s2.45.94,3.39,0c.93-.93.94-2.45,0-3.39s-2.46-.93-3.39,0Z"/>
    <path class="st0" d="M734.6,442.67c-.94-.94-2.46-.93-3.39,0s-.93,2.46,0,3.39c.93.93,2.45.94,3.39,0s.94-2.45,0-3.39Z"/>
    <path class="st0" d="M717.63,425.7c-.94-.94-2.46-.93-3.39,0-.93.93-.93,2.46,0,3.39s2.45.94,3.39,0c.23-.23.41-.5.53-.79.35-.87.18-1.9-.53-2.6Z"/>
    <path class="st0" d="M799.09,476.61c-.93.93-.93,2.46,0,3.39.93.93,2.45.94,3.39,0s.94-2.45,0-3.39c-.94-.94-2.46-.93-3.39,0Z"/>
    <path class="st0" d="M782.12,459.64c-.93.93-.93,2.46,0,3.39.93.93,2.45.94,3.39,0,.93-.93.94-2.45,0-3.39-.94-.94-2.46-.93-3.39,0Z"/>
    <path class="st0" d="M799.09,459.64c-.93.93-.93,2.46,0,3.39s2.45.94,3.39,0c.93-.93.94-2.45,0-3.39-.94-.94-2.46-.93-3.39,0Z"/>
    <path class="st0" d="M785.51,480c.93-.93.94-2.45,0-3.39s-2.46-.93-3.39,0c-.93.93-.93,2.46,0,3.39s2.45.94,3.39,0Z"/>
    <path class="st0" d="M785.51,442.67c-.94-.94-2.46-.93-3.39,0s-.93,2.46,0,3.39c.93.93,2.45.94,3.39,0s.94-2.45,0-3.39Z"/>
    <path class="st0" d="M768.54,463.03c.93-.93.94-2.45,0-3.39s-2.46-.93-3.39,0c-.93.93-.93,2.46,0,3.39.93.93,2.45.94,3.39,0Z"/>
    <path class="st0" d="M768.54,476.61c-.94-.94-2.46-.93-3.39,0-.93.93-.93,2.46,0,3.39s2.45.94,3.39,0,.94-2.45,0-3.39Z"/>
    <path class="st0" d="M751.57,459.64c-.94-.94-2.46-.93-3.39,0s-.93,2.46,0,3.39,2.45.94,3.39,0c.93-.93.94-2.45,0-3.39Z"/>
    <path class="st0" d="M833.82,510.02c-.29.12-.56.29-.79.53-.93.93-.93,2.46,0,3.39.16.16.34.28.52.38l3.19-3.37c-.09-.14-.2-.28-.32-.41-.71-.71-1.74-.88-2.6-.53Z"/>
    <path class="st0" d="M853.28,493.49c-.95-.84-2.39-.81-3.29.09-.93.93-.93,2.45,0,3.39l3.29-3.48Z"/>
    <path class="st0" d="M816.06,493.58c-.93.93-.93,2.46,0,3.39s2.45.94,3.39,0c.93-.93.94-2.45,0-3.39s-2.46-.93-3.39,0Z"/>
    <path class="st0" d="M833.03,480c.93.93,2.45.94,3.39,0,.93-.93.94-2.45,0-3.39s-2.46-.93-3.39,0c-.93.93-.93,2.46,0,3.39Z"/>
    <path class="st0" d="M836.42,496.97c.93-.93.94-2.45,0-3.39-.94-.94-2.46-.93-3.39,0s-.93,2.46,0,3.39c.93.93,2.45.94,3.39,0Z"/>
    <path class="st0" d="M819.45,513.94c.93-.93.94-2.45,0-3.39-.94-.94-2.46-.93-3.39,0-.93.93-.93,2.46,0,3.39s2.45.94,3.39,0Z"/>
    <path class="st0" d="M819.45,476.61c-.94-.94-2.46-.93-3.39,0-.93.93-.93,2.46,0,3.39.93.93,2.45.94,3.39,0s.94-2.45,0-3.39Z"/>
    <path class="st0" d="M802.48,496.97c.93-.93.94-2.45,0-3.39s-2.46-.93-3.39,0c-.93.93-.93,2.46,0,3.39s2.45.94,3.39,0Z"/>
    <path class="st0" d="M802.48,510.55c-.94-.94-2.46-.93-3.39,0-.93.93-.93,2.46,0,3.39s2.45.94,3.39,0c.93-.93.94-2.45,0-3.39Z"/>
    <path class="st0" d="M785.51,493.58c-.94-.94-2.46-.93-3.39,0s-.93,2.46,0,3.39c.93.93,2.45.94,3.39,0s.94-2.45,0-3.39Z"/>
    <path class="st0" d="M820.06,528.58c-.11-.39-.3-.75-.61-1.06-.94-.94-2.46-.93-3.39,0-.93.93-.93,2.46,0,3.39.34.34.75.55,1.18.64l2.82-2.98Z"/>
    <path class="st0" d="M513.98,259.38c.91-.91.93-2.38.06-3.32l-2.58,3.87c.85.31,1.84.14,2.53-.55Z"/>
    <path class="st0" d="M527.56,255.99c-.93.93-.93,2.46,0,3.39.93.93,2.45.94,3.39,0s.94-2.45,0-3.39c-.94-.94-2.46-.93-3.39,0Z"/>
    <path class="st0" d="M510.59,272.96c-.93.93-.93,2.46,0,3.39s2.45.94,3.39,0,.94-2.45,0-3.39c-.94-.94-2.46-.93-3.39,0Z"/>
    <path class="st0" d="M578.47,293.33c.12.12.24.22.38.31.27.18.56.29.86.35.15.03.3.04.46.04.31,0,.61-.06.9-.17.29-.12.56-.29.8-.53.93-.93.94-2.45,0-3.39-.94-.94-2.46-.93-3.39,0s-.93,2.46,0,3.39Z"/>
    <path class="st0" d="M547.92,293.33c.93-.93.94-2.45,0-3.39s-2.46-.93-3.39,0c-.93.93-.93,2.46,0,3.39.93.93,2.45.94,3.39,0Z"/>
    <path class="st0" d="M561.5,276.36c.93.93,2.45.94,3.39,0s.94-2.45,0-3.39c-.94-.94-2.46-.93-3.39,0s-.93,2.46,0,3.39Z"/>
    <path class="st0" d="M561.5,289.93c-.93.93-.93,2.46,0,3.39.93.93,2.45.94,3.39,0,.93-.93.94-2.45,0-3.39-.94-.94-2.46-.93-3.39,0Z"/>
    <path class="st0" d="M544.53,310.3c.93.93,2.45.94,3.39,0s.94-2.45,0-3.39c-.94-.94-2.46-.93-3.39,0-.93.93-.93,2.46,0,3.39Z"/>
    <path class="st0" d="M544.53,272.96c-.93.93-.93,2.46,0,3.39.93.93,2.45.94,3.39,0,.93-.93.94-2.45,0-3.39-.94-.94-2.46-.93-3.39,0Z"/>
    <path class="st0" d="M530.95,293.33c.93-.93.94-2.45,0-3.39-.94-.94-2.46-.93-3.39,0s-.93,2.46,0,3.39,2.45.94,3.39,0Z"/>
    <path class="st0" d="M530.95,276.36c.93-.93.94-2.45,0-3.39s-2.46-.93-3.39,0c-.93.93-.93,2.46,0,3.39s2.45.94,3.39,0Z"/>
    <path class="st0" d="M595.44,340.84c-.93.93-.93,2.46,0,3.39.93.93,2.45.94,3.39,0,.93-.93.94-2.45,0-3.39s-2.46-.93-3.39,0Z"/>
    <path class="st0" d="M612.41,327.27c.93.93,2.45.94,3.39,0,.93-.93.94-2.45,0-3.39-.94-.94-2.46-.93-3.39,0s-.93,2.46,0,3.39Z"/>
    <path class="st0" d="M581.86,327.27c.93-.93.94-2.45,0-3.39s-2.46-.93-3.39,0c-.93.93-.93,2.46,0,3.39.93.93,2.45.94,3.39,0Z"/>
    <path class="st0" d="M595.44,310.3c.93.93,2.45.94,3.39,0s.94-2.45,0-3.39c-.94-.94-2.46-.93-3.39,0-.93.93-.93,2.46,0,3.39Z"/>
    <path class="st0" d="M598.83,327.27c.93-.93.94-2.45,0-3.39-.94-.94-2.46-.93-3.39,0s-.93,2.46,0,3.39,2.45.94,3.39,0Z"/>
    <path class="st0" d="M581.86,344.24c.93-.93.94-2.45,0-3.39-.94-.94-2.46-.93-3.39,0-.93.93-.93,2.46,0,3.39s2.45.94,3.39,0Z"/>
    <path class="st0" d="M578.47,306.9c-.93.93-.93,2.46,0,3.39.93.93,2.45.94,3.39,0s.94-2.45,0-3.39c-.94-.94-2.46-.93-3.39,0Z"/>
    <path class="st0" d="M564.89,327.27c.93-.93.94-2.45,0-3.39-.94-.94-2.46-.93-3.39,0s-.93,2.46,0,3.39,2.45.94,3.39,0Z"/>
    <path class="st0" d="M564.89,340.84c-.94-.94-2.46-.93-3.39,0s-.93,2.46,0,3.39c.93.93,2.45.94,3.39,0s.94-2.45,0-3.39Z"/>
    <path class="st0" d="M564.89,310.3c.93-.93.94-2.45,0-3.39s-2.46-.93-3.39,0c-.93.93-.93,2.46,0,3.39s2.45.94,3.39,0Z"/>
    <path class="st0" d="M629.38,374.78c-.93.93-.93,2.46,0,3.39.93.93,2.45.94,3.39,0,.93-.93.94-2.45,0-3.39s-2.46-.93-3.39,0Z"/>
    <path class="st0" d="M612.41,357.81c-.93.93-.93,2.46,0,3.39s2.45.94,3.39,0c.93-.93.94-2.45,0-3.39s-2.46-.93-3.39,0Z"/>
    <path class="st0" d="M629.38,357.81c-.93.93-.93,2.46,0,3.39.93.93,2.45.94,3.39,0s.94-2.45,0-3.39-2.46-.93-3.39,0Z"/>
    <path class="st0" d="M615.8,378.18c.93-.93.94-2.45,0-3.39-.94-.94-2.46-.93-3.39,0s-.93,2.46,0,3.39,2.45.94,3.39,0Z"/>
    <path class="st0" d="M615.8,340.84c-.94-.94-2.46-.93-3.39,0s-.93,2.46,0,3.39c.93.93,2.45.94,3.39,0s.94-2.45,0-3.39Z"/>
    <path class="st0" d="M598.83,361.21c.93-.93.94-2.45,0-3.39-.94-.94-2.46-.93-3.39,0-.93.93-.93,2.46,0,3.39s2.45.94,3.39,0Z"/>
    <path class="st0" d="M598.83,374.78c-.94-.94-2.46-.93-3.39,0s-.93,2.46,0,3.39,2.45.94,3.39,0,.94-2.45,0-3.39Z"/>
    <path class="st0" d="M581.86,357.81c-.94-.94-2.46-.93-3.39,0s-.93,2.46,0,3.39c.93.93,2.45.94,3.39,0s.94-2.45,0-3.39Z"/>
    <path class="st0" d="M663.32,408.73c-.93.93-.93,2.46,0,3.39s2.45.94,3.39,0c.93-.93.94-2.45,0-3.39-.94-.94-2.46-.93-3.39,0Z"/>
    <path class="st0" d="M646.35,391.75c-.93.93-.93,2.46,0,3.39s2.45.94,3.39,0c.93-.93.94-2.45,0-3.39s-2.46-.93-3.39,0Z"/>
    <path class="st0" d="M663.32,391.75c-.93.93-.93,2.46,0,3.39.93.93,2.45.94,3.39,0s.94-2.45,0-3.39-2.46-.93-3.39,0Z"/>
    <path class="st0" d="M649.75,412.12c.93-.93.94-2.45,0-3.39-.94-.94-2.46-.93-3.39,0s-.93,2.46,0,3.39c.93.93,2.45.94,3.39,0Z"/>
    <path class="st0" d="M649.75,374.78c-.94-.94-2.46-.93-3.39,0-.93.93-.93,2.46,0,3.39.93.93,2.45.94,3.39,0s.94-2.45,0-3.39Z"/>
    <path class="st0" d="M632.78,395.15c.93-.93.94-2.45,0-3.39s-2.46-.93-3.39,0c-.93.93-.93,2.46,0,3.39s2.45.94,3.39,0Z"/>
    <path class="st0" d="M632.78,408.73c-.94-.94-2.46-.93-3.39,0s-.93,2.46,0,3.39c.23.23.5.41.79.53.14.06.29.1.44.13.3.06.61.06.92,0,.45-.09.89-.31,1.24-.66.93-.93.94-2.45,0-3.39Z"/>
    <path class="st0" d="M615.8,391.75c-.94-.94-2.46-.93-3.39,0s-.93,2.46,0,3.39c.93.93,2.45.94,3.39,0s.94-2.45,0-3.39Z"/>
    <path class="st0" d="M697.26,442.67c-.93.93-.93,2.46,0,3.39s2.45.94,3.39,0c.93-.93.94-2.45,0-3.39s-2.46-.93-3.39,0Z"/>
    <path class="st0" d="M680.29,425.7c-.93.93-.93,2.46,0,3.39.93.93,2.45.94,3.39,0,.93-.93.94-2.45,0-3.39s-2.46-.93-3.39,0Z"/>
    <path class="st0" d="M697.26,425.7c-.93.93-.93,2.46,0,3.39.93.93,2.45.94,3.39,0s.94-2.45,0-3.39c-.94-.94-2.46-.93-3.39,0Z"/>
    <path class="st0" d="M683.69,446.06c.93-.93.94-2.45,0-3.39-.94-.94-2.46-.93-3.39,0-.93.93-.93,2.46,0,3.39s2.45.94,3.39,0Z"/>
    <path class="st0" d="M683.69,408.73c-.94-.94-2.46-.93-3.39,0s-.93,2.46,0,3.39c.93.93,2.45.94,3.39,0,.93-.93.94-2.45,0-3.39Z"/>
    <path class="st0" d="M666.72,429.09c.93-.93.94-2.45,0-3.39s-2.46-.93-3.39,0c-.93.93-.93,2.46,0,3.39s2.45.94,3.39,0Z"/>
    <path class="st0" d="M666.72,442.67c-.94-.94-2.46-.93-3.39,0s-.93,2.46,0,3.39c.93.93,2.45.94,3.39,0,.93-.93.94-2.45,0-3.39Z"/>
    <path class="st0" d="M649.75,425.7c-.94-.94-2.46-.93-3.39,0s-.93,2.46,0,3.39c.93.93,2.45.94,3.39,0s.94-2.45,0-3.39Z"/>
    <path class="st0" d="M714.23,459.64c-.93.93-.93,2.46,0,3.39.93.93,2.45.94,3.39,0s.94-2.45,0-3.39-2.46-.93-3.39,0Z"/>
    <path class="st0" d="M731.2,459.64c-.93.93-.93,2.46,0,3.39.93.93,2.45.94,3.39,0,.93-.93.94-2.45,0-3.39-.94-.94-2.46-.93-3.39,0Z"/>
    <path class="st0" d="M717.63,480c.93-.93.94-2.45,0-3.39-.94-.94-2.46-.93-3.39,0-.93.93-.93,2.46,0,3.39s2.45.94,3.39,0Z"/>
    <path class="st0" d="M717.63,442.67c-.94-.94-2.46-.93-3.39,0s-.93,2.46,0,3.39c.93.93,2.45.94,3.39,0,.93-.93.94-2.45,0-3.39Z"/>
    <path class="st0" d="M700.66,463.03c.93-.93.94-2.45,0-3.39-.94-.94-2.46-.93-3.39,0s-.93,2.46,0,3.39,2.45.94,3.39,0Z"/>
    <path class="st0" d="M700.66,476.61c-.94-.94-2.46-.93-3.39,0s-.93,2.46,0,3.39c.93.93,2.45.94,3.39,0s.94-2.45,0-3.39Z"/>
    <path class="st0" d="M683.69,459.64c-.94-.94-2.46-.93-3.39,0s-.93,2.46,0,3.39,2.45.94,3.39,0c.93-.93.94-2.45,0-3.39Z"/>
    <path class="st0" d="M765.94,510.02c-.29.12-.56.29-.79.53-.93.93-.93,2.46,0,3.39.93.93,2.45.94,3.39,0,.93-.93.94-2.45,0-3.39-.71-.71-1.74-.88-2.6-.53Z"/>
    <path class="st0" d="M751.57,496.97c.93-.93.94-2.45,0-3.39s-2.46-.93-3.39,0c-.93.93-.93,2.46,0,3.39s2.45.94,3.39,0Z"/>
    <path class="st0" d="M765.15,493.58c-.93.93-.93,2.46,0,3.39.93.93,2.45.94,3.39,0,.93-.93.94-2.45,0-3.39-.94-.94-2.46-.93-3.39,0Z"/>
    <path class="st0" d="M751.57,513.94c.93-.93.94-2.45,0-3.39-.94-.94-2.46-.93-3.39,0-.93.93-.93,2.46,0,3.39s2.45.94,3.39,0Z"/>
    <path class="st0" d="M748.18,476.61c-.93.93-.93,2.46,0,3.39.93.93,2.45.94,3.39,0s.94-2.45,0-3.39c-.94-.94-2.46-.93-3.39,0Z"/>
    <path class="st0" d="M734.6,496.97c.93-.93.94-2.45,0-3.39-.94-.94-2.46-.93-3.39,0s-.93,2.46,0,3.39c.93.93,2.45.94,3.39,0Z"/>
    <path class="st0" d="M734.6,510.55c-.94-.94-2.46-.93-3.39,0s-.93,2.46,0,3.39c.93.93,2.45.94,3.39,0s.94-2.45,0-3.39Z"/>
    <path class="st0" d="M734.6,480c.93-.93.94-2.45,0-3.39s-2.46-.93-3.39,0c-.93.93-.93,2.46,0,3.39s2.45.94,3.39,0Z"/>
    <path class="st0" d="M782.12,527.52c-.93.93-.93,2.46,0,3.39s2.45.94,3.39,0c.93-.93.94-2.45,0-3.39s-2.46-.93-3.39,0Z"/>
    <path class="st0" d="M799.09,527.52c-.93.93-.93,2.46,0,3.39.93.93,2.45.94,3.39,0s.94-2.45,0-3.39c-.94-.94-2.46-.93-3.39,0Z"/>
    <path class="st0" d="M785.51,547.88c.93-.93.94-2.45,0-3.39-.94-.94-2.46-.93-3.39,0s-.93,2.46,0,3.39,2.45.94,3.39,0Z"/>
    <path class="st0" d="M785.51,510.55c-.94-.94-2.46-.93-3.39,0-.93.93-.93,2.46,0,3.39.93.93,2.45.94,3.39,0s.94-2.45,0-3.39Z"/>
    <path class="st0" d="M768.54,530.91c.93-.93.94-2.45,0-3.39-.94-.94-2.46-.93-3.39,0-.93.93-.93,2.46,0,3.39s2.45.94,3.39,0Z"/>
    <path class="st0" d="M768.54,544.49c-.94-.94-2.46-.93-3.39,0s-.93,2.46,0,3.39,2.45.94,3.39,0,.94-2.45,0-3.39Z"/>
    <path class="st0" d="M751.57,527.52c-.94-.94-2.46-.93-3.39,0s-.93,2.46,0,3.39c.93.93,2.45.94,3.39,0s.94-2.45,0-3.39Z"/>
    <path class="st0" d="M802.48,544.49c-.94-.94-2.46-.93-3.39,0-.93.93-.93,2.46,0,3.39.56.56,1.33.78,2.06.67l2.02-2.13c.07-.69-.15-1.4-.68-1.93Z"/>
    <path class="st0" d="M786.2,563.34c.05-.67-.17-1.36-.69-1.88-.94-.94-2.46-.93-3.39,0s-.93,2.46,0,3.39c.35.35.78.57,1.23.66.97-.7,1.92-1.42,2.85-2.17Z"/>
    <path class="st0" d="M493.62,306.9c-.93.93-.93,2.46,0,3.39s2.45.94,3.39,0c.93-.93.94-2.45,0-3.39-.94-.94-2.46-.93-3.39,0Z"/>
    <path class="st0" d="M493.62,289.93c-.93.93-.93,2.46,0,3.39.93.93,2.45.94,3.39,0s.94-2.45,0-3.39-2.46-.93-3.39,0Z"/>
    <path class="st0" d="M527.56,340.84c-.93.93-.93,2.46,0,3.39s2.45.94,3.39,0c.93-.93.94-2.45,0-3.39-.94-.94-2.46-.93-3.39,0Z"/>
    <path class="st0" d="M544.53,327.27c.93.93,2.45.94,3.39,0s.94-2.45,0-3.39c-.94-.94-2.46-.93-3.39,0s-.93,2.46,0,3.39Z"/>
    <path class="st0" d="M510.59,327.27c.93.93,2.45.94,3.39,0,.93-.93.94-2.45,0-3.39-.94-.94-2.46-.93-3.39,0-.93.93-.93,2.46,0,3.39Z"/>
    <path class="st0" d="M527.56,310.3c.93.93,2.45.94,3.39,0s.94-2.45,0-3.39c-.94-.94-2.46-.93-3.39,0s-.93,2.46,0,3.39Z"/>
    <path class="st0" d="M530.95,327.27c.93-.93.94-2.45,0-3.39s-2.46-.93-3.39,0c-.93.93-.93,2.46,0,3.39.93.93,2.45.94,3.39,0Z"/>
    <path class="st0" d="M510.59,344.24c.93.93,2.45.94,3.39,0s.94-2.45,0-3.39c-.94-.94-2.46-.93-3.39,0-.93.93-.93,2.46,0,3.39Z"/>
    <path class="st0" d="M510.59,306.9c-.93.93-.93,2.46,0,3.39.93.93,2.45.94,3.39,0,.93-.93.94-2.45,0-3.39s-2.46-.93-3.39,0Z"/>
    <path class="st0" d="M493.62,323.87c-.93.93-.93,2.46,0,3.39s2.45.94,3.39,0c.93-.93.94-2.45,0-3.39-.94-.94-2.46-.93-3.39,0Z"/>
    <path class="st0" d="M497.01,340.84c-.94-.94-2.46-.93-3.39,0-.31.31-.5.68-.61,1.07.34.9.7,1.79,1.07,2.68.92.55,2.13.44,2.93-.35.93-.93.94-2.45,0-3.39Z"/>
    <path class="st0" d="M511.82,293.98c.15.03.3.04.46.04.31,0,.61-.06.9-.17s.56-.29.8-.53c.93-.93.94-2.45,0-3.39-.94-.94-2.46-.93-3.39,0s-.93,2.46,0,3.39c.12.12.24.22.38.31.27.18.56.29.86.35Z"/>
    <path class="st0" d="M561.5,374.78c-.93.93-.93,2.46,0,3.39s2.45.94,3.39,0c.93-.93.94-2.45,0-3.39-.94-.94-2.46-.93-3.39,0Z"/>
    <path class="st0" d="M547.92,361.21c.93-.93.94-2.45,0-3.39-.94-.94-2.46-.93-3.39,0-.93.93-.93,2.46,0,3.39s2.45.94,3.39,0Z"/>
    <path class="st0" d="M561.5,357.81c-.93.93-.93,2.46,0,3.39s2.45.94,3.39,0c.93-.93.94-2.45,0-3.39s-2.46-.93-3.39,0Z"/>
    <path class="st0" d="M547.92,378.18c.93-.93.94-2.45,0-3.39-.94-.94-2.46-.93-3.39,0s-.93,2.46,0,3.39,2.45.94,3.39,0Z"/>
    <path class="st0" d="M544.53,340.84c-.93.93-.93,2.46,0,3.39.93.93,2.45.94,3.39,0,.93-.93.94-2.45,0-3.39s-2.46-.93-3.39,0Z"/>
    <path class="st0" d="M530.95,361.21c.93-.93.94-2.45,0-3.39-.94-.94-2.46-.93-3.39,0s-.93,2.46,0,3.39c.93.93,2.45.94,3.39,0Z"/>
    <path class="st0" d="M530.95,374.78c-.94-.94-2.46-.93-3.39,0-.93.93-.93,2.46,0,3.39.93.93,2.45.94,3.39,0s.94-2.45,0-3.39Z"/>
    <path class="st0" d="M595.44,408.73c-.93.93-.93,2.46,0,3.39s2.45.94,3.39,0,.94-2.45,0-3.39c-.94-.94-2.46-.93-3.39,0Z"/>
    <path class="st0" d="M581.86,395.15c.93-.93.94-2.45,0-3.39s-2.46-.93-3.39,0c-.93.93-.93,2.46,0,3.39s2.45.94,3.39,0Z"/>
    <path class="st0" d="M595.44,391.75c-.93.93-.93,2.46,0,3.39.93.93,2.45.94,3.39,0,.93-.93.94-2.45,0-3.39s-2.46-.93-3.39,0Z"/>
    <path class="st0" d="M581.86,412.12c.93-.93.94-2.45,0-3.39-.94-.94-2.46-.93-3.39,0s-.93,2.46,0,3.39c.93.93,2.45.94,3.39,0Z"/>
    <path class="st0" d="M578.47,374.78c-.93.93-.93,2.46,0,3.39.93.93,2.45.94,3.39,0s.94-2.45,0-3.39-2.46-.93-3.39,0Z"/>
    <path class="st0" d="M561.5,391.75c-.93.93-.93,2.46,0,3.39.93.93,2.45.94,3.39,0s.94-2.45,0-3.39c-.94-.94-2.46-.93-3.39,0Z"/>
    <path class="st0" d="M564.89,408.73c-.94-.94-2.46-.93-3.39,0-.93.93-.93,2.46,0,3.39.23.23.5.41.79.53.14.06.29.1.44.13.3.06.61.06.92,0,.45-.09.89-.31,1.24-.66.93-.93.94-2.45,0-3.39Z"/>
    <path class="st0" d="M629.38,442.67c-.93.93-.93,2.46,0,3.39s2.45.94,3.39,0,.94-2.45,0-3.39-2.46-.93-3.39,0Z"/>
    <path class="st0" d="M615.8,429.09c.93-.93.94-2.45,0-3.39s-2.46-.93-3.39,0c-.93.93-.93,2.46,0,3.39s2.45.94,3.39,0Z"/>
    <path class="st0" d="M629.38,425.7c-.93.93-.93,2.46,0,3.39.93.93,2.45.94,3.39,0s.94-2.45,0-3.39-2.46-.93-3.39,0Z"/>
    <path class="st0" d="M615.8,446.06c.93-.93.94-2.45,0-3.39-.94-.94-2.46-.93-3.39,0s-.93,2.46,0,3.39c.93.93,2.45.94,3.39,0Z"/>
    <path class="st0" d="M612.41,408.73c-.93.93-.93,2.46,0,3.39.93.93,2.45.94,3.39,0,.93-.93.94-2.45,0-3.39s-2.46-.93-3.39,0Z"/>
    <path class="st0" d="M598.83,429.09c.93-.93.94-2.45,0-3.39-.94-.94-2.46-.93-3.39,0-.93.93-.93,2.46,0,3.39s2.45.94,3.39,0Z"/>
    <path class="st0" d="M598.83,442.67c-.94-.94-2.46-.93-3.39,0s-.93,2.46,0,3.39c.93.93,2.45.94,3.39,0,.93-.93.94-2.45,0-3.39Z"/>
    <path class="st0" d="M663.32,476.61c-.93.93-.93,2.46,0,3.39s2.45.94,3.39,0c.93-.93.94-2.45,0-3.39-.94-.94-2.46-.93-3.39,0Z"/>
    <path class="st0" d="M649.75,463.03c.93-.93.94-2.45,0-3.39-.94-.94-2.46-.93-3.39,0s-.93,2.46,0,3.39,2.45.94,3.39,0Z"/>
    <path class="st0" d="M663.32,459.64c-.93.93-.93,2.46,0,3.39.93.93,2.45.94,3.39,0,.93-.93.94-2.45,0-3.39s-2.46-.93-3.39,0Z"/>
    <path class="st0" d="M649.75,480c.93-.93.94-2.45,0-3.39-.94-.94-2.46-.93-3.39,0s-.93,2.46,0,3.39c.93.93,2.45.94,3.39,0Z"/>
    <path class="st0" d="M646.35,442.67c-.93.93-.93,2.46,0,3.39s2.45.94,3.39,0c.93-.93.94-2.45,0-3.39s-2.46-.93-3.39,0Z"/>
    <path class="st0" d="M632.78,463.03c.93-.93.94-2.45,0-3.39-.94-.94-2.46-.93-3.39,0s-.93,2.46,0,3.39,2.45.94,3.39,0Z"/>
    <path class="st0" d="M632.78,476.61c-.94-.94-2.46-.93-3.39,0s-.93,2.46,0,3.39c.93.93,2.45.94,3.39,0s.94-2.45,0-3.39Z"/>
    <path class="st0" d="M698.06,510.02c-.29.12-.56.29-.79.53-.93.93-.93,2.46,0,3.39s2.45.94,3.39,0c.93-.93.94-2.45,0-3.39-.71-.71-1.74-.88-2.6-.53Z"/>
    <path class="st0" d="M683.69,496.97c.93-.93.94-2.45,0-3.39-.94-.94-2.46-.93-3.39,0-.93.93-.93,2.46,0,3.39s2.45.94,3.39,0Z"/>
    <path class="st0" d="M697.26,493.58c-.93.93-.93,2.46,0,3.39s2.45.94,3.39,0c.93-.93.94-2.45,0-3.39s-2.46-.93-3.39,0Z"/>
    <path class="st0" d="M683.69,513.94c.93-.93.94-2.45,0-3.39-.94-.94-2.46-.93-3.39,0-.93.93-.93,2.46,0,3.39s2.45.94,3.39,0Z"/>
    <path class="st0" d="M680.29,476.61c-.93.93-.93,2.46,0,3.39.93.93,2.45.94,3.39,0,.93-.93.94-2.45,0-3.39s-2.46-.93-3.39,0Z"/>
    <path class="st0" d="M663.32,493.58c-.93.93-.93,2.46,0,3.39.93.93,2.45.94,3.39,0,.93-.93.94-2.45,0-3.39-.94-.94-2.46-.93-3.39,0Z"/>
    <path class="st0" d="M666.72,510.55c-.94-.94-2.46-.93-3.39,0s-.93,2.46,0,3.39c.93.93,2.45.94,3.39,0,.93-.93.94-2.45,0-3.39Z"/>
    <path class="st0" d="M731.2,544.49c-.93.93-.93,2.46,0,3.39s2.45.94,3.39,0c.93-.93.94-2.45,0-3.39-.94-.94-2.46-.93-3.39,0Z"/>
    <path class="st0" d="M714.23,527.52c-.93.93-.93,2.46,0,3.39s2.45.94,3.39,0c.93-.93.94-2.45,0-3.39-.94-.94-2.46-.93-3.39,0Z"/>
    <path class="st0" d="M731.2,527.52c-.93.93-.93,2.46,0,3.39s2.45.94,3.39,0c.93-.93.94-2.45,0-3.39s-2.46-.93-3.39,0Z"/>
    <path class="st0" d="M717.63,547.88c.93-.93.94-2.45,0-3.39-.94-.94-2.46-.93-3.39,0s-.93,2.46,0,3.39,2.45.94,3.39,0Z"/>
    <path class="st0" d="M717.63,510.55c-.94-.94-2.46-.93-3.39,0-.93.93-.93,2.46,0,3.39.93.93,2.45.94,3.39,0,.93-.93.94-2.45,0-3.39Z"/>
    <path class="st0" d="M700.66,530.91c.93-.93.94-2.45,0-3.39-.94-.94-2.46-.93-3.39,0s-.93,2.46,0,3.39c.93.93,2.45.94,3.39,0Z"/>
    <path class="st0" d="M700.66,544.49c-.94-.94-2.46-.93-3.39,0-.93.93-.93,2.46,0,3.39.93.93,2.45.94,3.39,0s.94-2.45,0-3.39Z"/>
    <path class="st0" d="M717.63,496.97c.23-.23.41-.5.53-.79.35-.87.18-1.9-.53-2.6-.94-.94-2.46-.93-3.39,0s-.93,2.46,0,3.39c.93.93,2.45.94,3.39,0Z"/>
    <path class="st0" d="M748.18,561.46c-.93.93-.93,2.46,0,3.39s2.45.94,3.39,0c.93-.93.94-2.45,0-3.39-.94-.94-2.46-.93-3.39,0Z"/>
    <path class="st0" d="M765.15,561.46c-.93.93-.93,2.46,0,3.39.93.93,2.45.94,3.39,0,.93-.93.94-2.45,0-3.39s-2.46-.93-3.39,0Z"/>
    <path class="st0" d="M748.18,578.43c-.15.15-.27.33-.37.5,1.27-.12,2.54-.27,3.8-.46-.01-.01-.02-.03-.04-.04-.94-.94-2.46-.93-3.39,0Z"/>
    <path class="st0" d="M751.57,544.49c-.94-.94-2.46-.93-3.39,0-.93.93-.93,2.46,0,3.39.93.93,2.45.94,3.39,0s.94-2.45,0-3.39Z"/>
    <path class="st0" d="M734.6,564.85c.93-.93.94-2.45,0-3.39-.94-.94-2.46-.93-3.39,0s-.93,2.46,0,3.39c.93.93,2.45.94,3.39,0Z"/>
    <path class="st0" d="M735.01,579c-.11-.2-.24-.4-.41-.57-.94-.94-2.46-.93-3.39,0-.04.04-.07.09-.11.13,1.3.18,2.6.33,3.91.44Z"/>
    <path class="st0" d="M510.59,361.21c.93.93,2.45.94,3.39,0,.93-.93.94-2.45,0-3.39s-2.46-.93-3.39,0-.93,2.46,0,3.39Z"/>
    <path class="st0" d="M564.1,425.17l1.35,1.43c-.12-.33-.3-.64-.56-.9-.23-.23-.5-.41-.79-.53Z"/>
    <path class="st0" d="M547.92,395.15c.93-.93.94-2.45,0-3.39-.94-.94-2.46-.93-3.39,0s-.93,2.46,0,3.39c.93.93,2.45.94,3.39,0Z"/>
    <path class="st0" d="M596.24,459.11l3.07,3.24c.41-.89.27-1.97-.47-2.71s-1.73-.88-2.6-.53Z"/>
    <path class="st0" d="M581.86,442.67c-.51-.51-1.18-.73-1.85-.69l2.52,2.66c.08-.7-.13-1.43-.68-1.98Z"/>
    <path class="st0" d="M581.86,429.09c.93-.93.94-2.45,0-3.39-.94-.94-2.46-.93-3.39,0s-.93,2.46,0,3.39c.93.93,2.45.94,3.39,0Z"/>
    <path class="st0" d="M629.38,493.58c-.09.09-.16.19-.23.28l3.24,3.42c.14-.09.27-.19.39-.31.93-.93.94-2.45,0-3.39-.94-.94-2.46-.93-3.39,0Z"/>
    <path class="st0" d="M615.8,476.61c-.87-.87-2.23-.92-3.17-.18l3.27,3.45c.82-.94.8-2.37-.1-3.27Z"/>
    <path class="st0" d="M615.8,463.03c.93-.93.94-2.45,0-3.39-.94-.94-2.46-.93-3.39,0-.93.93-.93,2.46,0,3.39.93.93,2.45.94,3.39,0Z"/>
    <path class="st0" d="M663.32,527.52c-.47.47-.7,1.08-.7,1.69l2.27,2.39c.66.04,1.33-.19,1.83-.69.93-.93.94-2.45,0-3.39-.94-.94-2.46-.93-3.39,0Z"/>
    <path class="st0" d="M649.75,510.55c-.94-.94-2.46-.93-3.39,0-.26.26-.44.57-.55.89l2.93,3.09c.37-.11.73-.3,1.02-.59.93-.93.94-2.45,0-3.39Z"/>
    <path class="st0" d="M649.75,496.97c.93-.93.94-2.45,0-3.39s-2.46-.93-3.39,0c-.93.93-.93,2.46,0,3.39s2.45.94,3.39,0Z"/>
    <path class="st0" d="M697.26,561.46c-.69.69-.87,1.71-.54,2.57.67.52,1.36,1.02,2.04,1.51.67.05,1.37-.17,1.88-.68.93-.93.94-2.45,0-3.39-.94-.94-2.46-.93-3.39,0Z"/>
    <path class="st0" d="M683.69,547.88c.93-.93.94-2.45,0-3.39-.94-.94-2.46-.93-3.39,0-.91.91-.92,2.36-.07,3.3l.13.13c.94.89,2.42.88,3.34-.04Z"/>
    <path class="st0" d="M683.69,530.91c.93-.93.94-2.45,0-3.39s-2.46-.93-3.39,0-.93,2.46,0,3.39c.93.93,2.45.94,3.39,0Z"/>
    <path class="st0" d="M717.63,564.85c.23-.23.41-.5.53-.79.35-.87.18-1.9-.53-2.6-.94-.94-2.46-.93-3.39,0s-.93,2.46,0,3.39c.93.93,2.45.94,3.39,0Z"/>
  </g>
</svg>