<?xml version="1.0" encoding="UTF-8"?>
<svg id="_レイヤー_1" xmlns="http://www.w3.org/2000/svg" version="1.1" viewBox="0 0 1728 1728">
  <!-- Generator: Adobe Illustrator 30.0.0, SVG Export Plug-In . SVG Version: 2.1.1 Build 123)  -->
  <defs>
    <style>
      .st0 {
        stroke-dasharray: 5.59 9.32;
      }

      .st0, .st1, .st2, .st3, .st4, .st5, .st6, .st7, .st8, .st9, .st10, .st11, .st12, .st13, .st14, .st15, .st16, .st17, .st18, .st19, .st20, .st21, .st22, .st23, .st24, .st25, .st26, .st27, .st28, .st29, .st30, .st31, .st32, .st33, .st34 {
        fill: none;
        stroke: #ceb372;
        stroke-linecap: round;
        stroke-linejoin: round;
      }

      .st2 {
        stroke-dasharray: 6.04 10.07;
      }

      .st3 {
        stroke-dasharray: 6.15 10.25;
      }

      .st4 {
        stroke-dasharray: 6.14 10.23;
      }

      .st5 {
        stroke-dasharray: 5.91 9.85;
      }

      .st6 {
        stroke-dasharray: 5.5 9.17;
      }

      .st7 {
        stroke-dasharray: 5.79 9.66;
      }

      .st8 {
        stroke-dasharray: 6.21 10.36;
      }

      .st9 {
        stroke-dasharray: 6.03 10.05;
      }

      .st10 {
        stroke-dasharray: 6.03 10.04;
      }

      .st11 {
        stroke-dasharray: 5.54 9.23;
      }

      .st12 {
        stroke-dasharray: 7.57 12.62;
      }

      .st13 {
        stroke-dasharray: 5.96 9.93;
      }

      .st14 {
        stroke-dasharray: 5.9 9.84;
      }

      .st15 {
        stroke-dasharray: 5.64 9.4;
      }

      .st16 {
        stroke-dasharray: 5.77 9.62;
      }

      .st17 {
        stroke-dasharray: 5.83 9.72;
      }

      .st18 {
        stroke-dasharray: 5.85 9.75;
      }

      .st19 {
        stroke-dasharray: 5.97 9.95;
      }

      .st20 {
        stroke-dasharray: 6.24 10.39;
      }

      .st21 {
        stroke-dasharray: 6.33 10.55;
      }

      .st22 {
        stroke-dasharray: 5.93 9.89;
      }

      .st23 {
        stroke-dasharray: 5.69 9.48;
      }

      .st24 {
        stroke-dasharray: 5.26 8.76;
      }

      .st25 {
        stroke-dasharray: 5.92 9.87;
      }

      .st26 {
        stroke-dasharray: 5.81 9.69;
      }

      .st27 {
        stroke-dasharray: 6.08 10.13;
      }

      .st28 {
        stroke-dasharray: 6.26 10.43;
      }

      .st29 {
        stroke-dasharray: 5.75 9.59;
      }

      .st30 {
        stroke-dasharray: 5.99 9.98;
      }

      .st31 {
        stroke-dasharray: 6.3 10.51;
      }

      .st32 {
        stroke-dasharray: 5.15 8.58;
      }

      .st33 {
        stroke-dasharray: 5.71 9.52;
      }

      .st34 {
        stroke-dasharray: 6.19 10.32;
      }
    </style>
  </defs>
  <g>
    <line class="st1" x1="864.25" y1="1723.63" x2="864.25" y2="1720.63"/>
    <line class="st2" x1="864.24" y1="1710.56" x2="864.15" y2="1167.9"/>
    <line class="st1" x1="864.15" y1="1162.87" x2="864.15" y2="1159.87"/>
  </g>
  <g>
    <path class="st1" d="M796.35,1243.77c.18-.98.36-1.97.53-2.95"/>
    <path class="st0" d="M798.56,1231.65c4.23-22.91,8.68-45.79,12.86-68.71"/>
    <path class="st1" d="M812.25,1158.35c.18-.98.35-1.97.53-2.95"/>
  </g>
  <g>
    <path class="st1" d="M786.43,1305.15c.14-.99.27-1.98.41-2.97"/>
    <path class="st6" d="M788.14,1293.1c1.21-8.16,2.51-16.31,3.87-24.45"/>
    <path class="st1" d="M792.77,1264.14c.17-.99.34-1.97.51-2.96"/>
  </g>
  <g>
    <path class="st1" d="M762.97,1142.06c-.33.95-.65,1.89-.98,2.84"/>
    <path class="st29" d="M758.85,1153.96c-9.53,27.32-19.44,54.51-29.48,81.65l-6.55,17.66c-.97,2.61-1.94,5.23-2.92,7.84l-6.17,16.59c-.18.48-.36.97-.54,1.45"/>
    <path class="st1" d="M711.52,1283.64c-.35.94-.7,1.87-1.05,2.81"/>
  </g>
  <g>
    <line class="st1" x1="504.72" y1="1477.62" x2="506.25" y2="1475.04"/>
    <line class="st30" x1="511.33" y1="1466.45" x2="712.16" y2="1127.16"/>
    <line class="st1" x1="714.7" y1="1122.87" x2="716.23" y2="1120.29"/>
  </g>
  <g>
    <path class="st1" d="M673.98,1090.73c-.64.77-1.27,1.54-1.91,2.32"/>
    <path class="st26" d="M665.9,1100.51c-20.88,25.14-42.18,49.92-63.22,74.92l-11.26,13.43c-4.08,4.9-8.15,9.81-12.2,14.74"/>
    <path class="st1" d="M576.15,1207.34c-.63.77-1.27,1.55-1.9,2.32"/>
  </g>
  <g>
    <path class="st1" d="M565.71,1114.56c.77-.64,1.53-1.29,2.3-1.93"/>
    <path class="st18" d="M575.47,1106.36c18.67-15.67,37.34-31.35,56-47.02"/>
    <path class="st1" d="M635.21,1056.2c.77-.64,1.53-1.29,2.3-1.93"/>
  </g>
  <g>
    <path class="st1" d="M551.99,1126.08c-.77.64-1.53,1.29-2.3,1.93"/>
    <path class="st12" d="M540.03,1136.12l-8.13,6.83c-.83.7-1.67,1.4-2.5,2.1"/>
    <path class="st1" d="M524.56,1149.11c-.77.64-1.53,1.29-2.3,1.93"/>
  </g>
  <g>
    <line class="st1" x1="250.08" y1="1220.54" x2="252.67" y2="1219.03"/>
    <line class="st19" x1="261.27" y1="1214.02" x2="601.02" y2="1016.06"/>
    <line class="st1" x1="605.32" y1="1013.56" x2="607.91" y2="1012.05"/>
  </g>
  <g>
    <path class="st1" d="M586.11,965.32c-.94.35-1.88.7-2.81,1.04"/>
    <path class="st17" d="M574.18,969.77c-30.78,11.55-61.4,23.54-92.36,34.61l-16.57,5.82c-5.98,2.06-11.98,4.07-17.99,6.03"/>
    <path class="st1" d="M442.63,1017.73c-.95.31-1.9.61-2.86.91"/>
  </g>
  <g>
    <path class="st1" d="M572.74,915.52c-.98.18-1.97.35-2.95.53"/>
    <path class="st20" d="M559.56,917.89c-26.9,4.85-53.79,9.7-80.71,14.44l-16.52,2.89c-3.1.54-6.2,1.08-9.29,1.61l-16.29,2.79c-1.02.17-2.05.35-3.07.52"/>
    <path class="st1" d="M428.56,941.02c-.99.17-1.97.33-2.96.5"/>
  </g>
  <g>
    <line class="st1" x1="-1.27" y1="864.25" x2="1.73" y2="864.25"/>
    <line class="st22" x1="11.62" y1="864.24" x2="560.29" y2="864.15"/>
    <line class="st1" x1="565.23" y1="864.15" x2="568.23" y2="864.15"/>
  </g>
  <g>
    <path class="st1" d="M572.71,812.78c-.99-.16-1.98-.31-2.96-.47"/>
    <path class="st33" d="M560.35,810.77c-33.69-5.61-67.2-12.2-100.82-18.18l-16.48-2.87c-4.32-.74-8.64-1.46-12.96-2.16"/>
    <path class="st1" d="M425.39,786.81c-.99-.16-1.98-.31-2.96-.47"/>
  </g>
  <g>
    <path class="st1" d="M491.49,728.72c.94.34,1.88.68,2.82,1.02"/>
    <path class="st31" d="M504.19,733.33c24.7,8.94,49.42,17.83,74.1,26.81"/>
    <path class="st1" d="M583.22,761.94c.94.34,1.88.69,2.82,1.03"/>
  </g>
  <g>
    <path class="st1" d="M474.76,722.63c-.94-.34-1.88-.69-2.82-1.03"/>
    <path class="st14" d="M462.7,718.21l-8.68-3.19c-.49-.18-.99-.36-1.48-.55"/>
    <path class="st1" d="M447.93,712.77c-.94-.35-1.88-.69-2.81-1.04"/>
  </g>
  <g>
    <line class="st1" x1="366.81" y1="577.19" x2="369.41" y2="578.69"/>
    <line class="st4" x1="378.27" y1="583.81" x2="600.78" y2="712.17"/>
    <line class="st1" x1="605.22" y1="714.73" x2="607.81" y2="716.23"/>
  </g>
  <g>
    <path class="st1" d="M637.38,673.98c-.77-.64-1.53-1.29-2.3-1.93"/>
    <path class="st20" d="M627.11,665.37c-24.76-20.76-49.52-41.52-74.28-62.29l-13.76-11.54c-3.3-2.77-6.61-5.54-9.91-8.31"/>
    <path class="st1" d="M525.18,579.9c-.77-.64-1.53-1.29-2.3-1.93"/>
  </g>
  <g>
    <path class="st1" d="M673.82,637.5c-.64-.77-1.27-1.54-1.91-2.32"/>
    <path class="st3" d="M665.39,627.3c-15.89-19.15-31.94-38.16-47.85-57.3l-11.34-13.71c-2.44-2.96-4.87-5.93-7.3-8.9l-11.08-13.68c-.88-1.1-2-2.14-3.15-3.17"/>
    <path class="st1" d="M580.92,527.06c-.71-.76-1.34-1.54-1.83-2.37"/>
  </g>
  <g>
    <line class="st1" x1="502.79" y1="239.8" x2="504.3" y2="242.4"/>
    <line class="st5" x1="509.23" y1="250.92" x2="712.08" y2="601.06"/>
    <line class="st1" x1="714.55" y1="605.32" x2="716.05" y2="607.91"/>
  </g>
  <g>
    <path class="st1" d="M762.78,586.11c-.36-.93-.73-1.86-1.09-2.8"/>
    <path class="st34" d="M758,573.67c-10.25-27.13-19.57-54.61-29.3-81.93l-6.15-17.06c-2.49-6.81-5.02-13.6-7.62-20.37"/>
    <path class="st1" d="M713.08,449.5c-.36-.93-.73-1.86-1.09-2.79"/>
  </g>
  <g>
    <path class="st1" d="M812.58,572.74c-.18-.98-.35-1.97-.53-2.95"/>
    <path class="st23" d="M810.39,560.45c-4.64-26.04-9.26-52.09-13.85-78.15l-3.11-17.68c-.79-4.51-1.58-9.01-2.38-13.52l-3.18-18.12c-.14-.79-.28-1.58-.41-2.37"/>
    <path class="st1" d="M786.64,425.96c-.17-.99-.34-1.97-.52-2.96"/>
  </g>
  <g>
    <line class="st1" x1="863.85" y1="-3.99" x2="863.86" y2="-.99"/>
    <line class="st13" x1="863.86" y1="8.95" x2="863.95" y2="560.27"/>
    <line class="st1" x1="863.95" y1="565.23" x2="863.95" y2="568.23"/>
  </g>
  <g>
    <path class="st1" d="M915.32,572.71c.19-.98.39-1.96.58-2.95"/>
    <path class="st33" d="M917.71,560.42c4.98-25.88,9.59-51.79,13.73-77.82l3.32-19.03c2.06-11.14,4.19-22.26,5.91-33.46"/>
    <path class="st1" d="M941.36,425.4c.14-.99.28-1.98.41-2.97"/>
  </g>
  <g>
    <path class="st1" d="M965.13,586.04c.34-.94.68-1.88,1.02-2.82"/>
    <path class="st28" d="M969.69,573.4c6.68-18.55,13.34-37.11,20.04-55.66l6.81-18.79c2.28-6.26,4.56-12.52,6.85-18.78l6.82-18.52c1.09-2.95,2.19-5.9,3.29-8.85"/>
    <path class="st1" d="M1015.32,447.92c.35-.94.7-1.87,1.05-2.81"/>
  </g>
  <g>
    <line class="st1" x1="1219.36" y1="244.16" x2="1217.87" y2="246.77"/>
    <line class="st2" x1="1212.88" y1="255.51" x2="1015.85" y2="600.84"/>
    <line class="st1" x1="1013.36" y1="605.21" x2="1011.87" y2="607.81"/>
  </g>
  <g>
    <path class="st1" d="M1054.12,637.38c.63-.77,1.27-1.55,1.9-2.32"/>
    <path class="st7" d="M1062.14,627.59c18.51-22.52,37.22-44.88,56.04-67.15l12.87-15.19c5.79-6.82,11.58-13.64,17.38-20.45"/>
    <path class="st1" d="M1151.57,521.12c.65-.76,1.3-1.52,1.95-2.28"/>
  </g>
  <g>
    <path class="st1" d="M1201.39,580.8c-.76.65-1.53,1.29-2.29,1.94"/>
    <path class="st9" d="M1191.42,589.21l-13.52,11.4c-2.1,1.77-4.21,3.55-6.31,5.33l-14.95,12.69c-19.81,16.89-39.99,33.29-59.91,50.03"/>
    <path class="st1" d="M1092.89,671.89c-.76.64-1.53,1.29-2.29,1.94"/>
  </g>
  <g>
    <line class="st1" x1="1479.17" y1="502.46" x2="1476.59" y2="503.99"/>
    <line class="st10" x1="1467.96" y1="509.12" x2="1127.08" y2="711.95"/>
    <line class="st1" x1="1122.76" y1="714.52" x2="1120.19" y2="716.05"/>
  </g>
  <g>
    <path class="st1" d="M1141.99,762.78c.93-.37,1.86-.74,2.79-1.11"/>
    <path class="st8" d="M1154.43,757.91c28.46-10.85,57.48-20.16,86.17-30.37l17.95-6.55c5.27-1.98,10.53-4.01,15.76-6.1"/>
    <path class="st1" d="M1279.12,712.95c.93-.38,1.85-.76,2.77-1.14"/>
  </g>
  <g>
    <path class="st1" d="M1155.36,812.58c.99-.16,1.98-.31,2.96-.47"/>
    <path class="st28" d="M1168.62,810.46c28.08-4.57,56.1-9.56,84.09-14.68l17.36-3.19c8.29-1.53,16.58-3.06,24.88-4.6"/>
    <path class="st1" d="M1300.07,787.04c.98-.18,1.97-.36,2.95-.55"/>
  </g>
  <g>
    <line class="st1" x1="1728.3" y1="863.85" x2="1725.3" y2="863.86"/>
    <line class="st25" x1="1715.43" y1="863.86" x2="1167.8" y2="863.95"/>
    <line class="st1" x1="1162.87" y1="863.95" x2="1159.87" y2="863.95"/>
  </g>
  <g>
    <path class="st1" d="M1303.07,941.31c-.99-.16-1.97-.32-2.96-.48"/>
    <path class="st28" d="M1289.82,939.12c-41.76-6.96-84.3-14.66-126.35-22.33"/>
    <path class="st1" d="M1158.34,915.86c-.98-.18-1.97-.36-2.95-.54"/>
  </g>
  <g>
    <path class="st1" d="M1213.01,991.09c-.94-.33-1.89-.66-2.83-.99"/>
    <path class="st15" d="M1201.31,986.98c-17.43-6.14-34.84-12.38-52.07-19.05"/>
    <path class="st1" d="M1144.85,966.23c-.93-.37-1.86-.73-2.79-1.1"/>
  </g>
  <g>
    <path class="st1" d="M1229.61,996.91c.94.33,1.89.66,2.83,1"/>
    <path class="st32" d="M1240.53,1000.76c.26.09.53.19.79.28l16.2,5.81c5.9,2.15,11.8,4.33,17.67,6.55"/>
    <path class="st1" d="M1279.19,1014.93c.93.36,1.87.72,2.8,1.08"/>
  </g>
  <g>
    <line class="st1" x1="1477.81" y1="1227.91" x2="1475.24" y2="1226.35"/>
    <line class="st10" x1="1466.64" y1="1221.16" x2="1127.15" y2="1016.02"/>
    <line class="st1" x1="1122.85" y1="1013.42" x2="1120.29" y2="1011.87"/>
  </g>
  <g>
    <path class="st1" d="M1134.85,1089.94c-.77-.64-1.53-1.29-2.3-1.93"/>
    <path class="st24" d="M1125.83,1082.39c-9.65-8.04-19.38-15.99-29.27-23.73"/>
    <path class="st1" d="M1093.1,1055.96c-.79-.61-1.58-1.22-2.37-1.83"/>
  </g>
  <g>
    <path class="st1" d="M1148.03,1101.07c.76.65,1.53,1.29,2.29,1.94"/>
    <path class="st11" d="M1157.37,1108.98c7.99,6.76,16,13.51,24.06,20.18l12.52,11.93c1.42,1.3,2.89,2.55,4.4,3.75"/>
    <path class="st1" d="M1202,1147.66c.8.6,1.6,1.2,2.41,1.79"/>
  </g>
  <g>
    <path class="st1" d="M1054.28,1090.6c.64.77,1.29,1.53,1.93,2.3"/>
    <path class="st16" d="M1062.39,1100.26c18.13,21.59,36.25,43.17,54.38,64.76l26.47,31.53c1.72,2.04,3.43,4.09,5.15,6.13"/>
    <path class="st1" d="M1151.48,1206.36c.64.77,1.29,1.53,1.93,2.3"/>
  </g>
  <g>
    <line class="st1" x1="1231.95" y1="1479.73" x2="1230.39" y2="1477.17"/>
    <line class="st27" x1="1225.1" y1="1468.52" x2="1016.26" y2="1127.07"/>
    <line class="st1" x1="1013.61" y1="1122.75" x2="1012.05" y2="1120.19"/>
  </g>
  <g>
    <path class="st1" d="M965.32,1141.99c.31.95.63,1.9.94,2.85"/>
    <path class="st34" d="M969.57,1154.62c10.67,30.92,22.88,61.28,34.22,91.96l5.61,15.42c1.39,3.89,2.75,7.78,4.09,11.68"/>
    <path class="st1" d="M1015.16,1278.55c.32.95.64,1.9.96,2.84"/>
  </g>
  <g>
    <path class="st1" d="M915.52,1155.36c.15.99.31,1.98.46,2.96"/>
    <path class="st21" d="M917.65,1168.74c4.27,25.97,9.23,51.83,14.04,77.71l3.35,18.22c1.91,10.57,3.77,21.15,5.51,31.74"/>
    <path class="st1" d="M941.41,1301.62c.16.99.32,1.97.47,2.96"/>
  </g>
</svg>