<?xml version="1.0" encoding="UTF-8"?>
<svg id="_レイヤー_2" data-name="レイヤー_2" xmlns="http://www.w3.org/2000/svg" xmlns:xlink="http://www.w3.org/1999/xlink" version="1.1" viewBox="0 0 1728 740">
  <!-- Generator: Adobe Illustrator 30.0.0, SVG Export Plug-In . SVG Version: 2.1.1 Build 123)  -->
  <defs>
    <style>
      .st0, .st1, .st2, .st3, .st4, .st5 {
        fill: none;
      }

      .st6 {
        fill: #ceb372;
      }

      .st1 {
        stroke-width: 1.95px;
      }

      .st1, .st2, .st3, .st4, .st5 {
        stroke: #ceb372;
        stroke-linecap: round;
        stroke-linejoin: round;
      }

      .st2 {
        stroke-width: 3px;
      }

      .st3 {
        stroke-width: 3.08px;
      }

      .st4 {
        stroke-width: 4px;
      }

      .st7 {
        fill: url(#_新規パターンスウォッチ_2);
      }

      .st5 {
        stroke-width: 2px;
      }
    </style>
    <pattern id="_新規パターンスウォッチ_2" data-name="新規パターンスウォッチ 2" x="0" y="0" width="48" height="48" patternTransform="translate(3858.01 -7003.82) rotate(-45)" patternUnits="userSpaceOnUse" viewBox="0 0 48 48">
      <g>
        <rect class="st0" width="48" height="48"/>
        <g>
          <path class="st6" d="M24,50.4c1.32,0,2.4-1.07,2.4-2.4s-1.08-2.4-2.4-2.4-2.4,1.08-2.4,2.4,1.07,2.4,2.4,2.4Z"/>
          <path class="st6" d="M48,50.4c1.32,0,2.4-1.07,2.4-2.4s-1.08-2.4-2.4-2.4-2.4,1.08-2.4,2.4,1.07,2.4,2.4,2.4Z"/>
          <path class="st6" d="M24,26.4c1.32,0,2.4-1.07,2.4-2.4s-1.08-2.4-2.4-2.4-2.4,1.08-2.4,2.4,1.07,2.4,2.4,2.4Z"/>
          <path class="st6" d="M48,26.4c1.32,0,2.4-1.07,2.4-2.4s-1.08-2.4-2.4-2.4-2.4,1.08-2.4,2.4,1.07,2.4,2.4,2.4Z"/>
          <path class="st6" d="M36,38.4c1.32,0,2.4-1.07,2.4-2.4s-1.08-2.4-2.4-2.4-2.4,1.08-2.4,2.4,1.07,2.4,2.4,2.4Z"/>
          <path class="st6" d="M12,38.4c1.32,0,2.4-1.07,2.4-2.4s-1.08-2.4-2.4-2.4-2.4,1.08-2.4,2.4,1.07,2.4,2.4,2.4Z"/>
          <path class="st6" d="M36,14.4c1.32,0,2.4-1.07,2.4-2.4s-1.08-2.4-2.4-2.4-2.4,1.08-2.4,2.4,1.07,2.4,2.4,2.4Z"/>
          <path class="st6" d="M12,14.4c1.32,0,2.4-1.07,2.4-2.4s-1.08-2.4-2.4-2.4-2.4,1.08-2.4,2.4,1.07,2.4,2.4,2.4Z"/>
        </g>
        <g>
          <path class="st6" d="M0,50.4c1.32,0,2.4-1.07,2.4-2.4s-1.08-2.4-2.4-2.4-2.4,1.08-2.4,2.4,1.07,2.4,2.4,2.4Z"/>
          <path class="st6" d="M0,26.4c1.32,0,2.4-1.07,2.4-2.4s-1.08-2.4-2.4-2.4-2.4,1.08-2.4,2.4,1.07,2.4,2.4,2.4Z"/>
        </g>
        <g>
          <path class="st6" d="M24,2.4c1.32,0,2.4-1.07,2.4-2.4s-1.08-2.4-2.4-2.4-2.4,1.08-2.4,2.4,1.07,2.4,2.4,2.4Z"/>
          <path class="st6" d="M48,2.4c1.32,0,2.4-1.07,2.4-2.4s-1.08-2.4-2.4-2.4-2.4,1.08-2.4,2.4,1.07,2.4,2.4,2.4Z"/>
        </g>
        <path class="st6" d="M0,2.4c1.32,0,2.4-1.07,2.4-2.4S1.32-2.4,0-2.4-2.4-1.32-2.4,0-1.33,2.4,0,2.4Z"/>
      </g>
    </pattern>
  </defs>
  <g>
    <g>
      <line class="st3" x1="865.52" y1="716.04" x2="865.51" y2="698.31"/>
      <line class="st3" x1="865.52" y1="723.24" x2="865.52" y2="722.23"/>
    </g>
    <g>
      <path class="st5" d="M804.26,706.71c5.58-30.38,11.54-60.69,16.98-91.1"/>
      <path class="st5" d="M802.67,715.42c.19-1.04.38-2.08.57-3.11"/>
    </g>
    <g>
      <path class="st5" d="M735.31,723.27c3.86-10.44,7.7-20.9,11.5-31.36"/>
      <path class="st5" d="M733.48,728.48c.21-.57.43-1.15.64-1.72"/>
    </g>
    <g>
      <line class="st5" x1="723.31" y1="611.01" x2="755.79" y2="554.72"/>
      <line class="st5" x1="663.12" y1="715.35" x2="693.65" y2="662.42"/>
      <line class="st5" x1="660.46" y1="719.95" x2="661" y2="719.02"/>
      <line class="st5" x1="657.72" y1="724.71" x2="658.34" y2="723.63"/>
    </g>
    <g>
      <path class="st5" d="M598.13,682.96c36.88-43.71,74.15-87.07,110.48-131.24"/>
      <path class="st5" d="M592.98,689.07c.66-.78,1.31-1.56,1.97-2.34"/>
    </g>
    <g>
      <path class="st5" d="M654.11,542.13c15.06-12.65,30.12-25.29,45.18-37.94"/>
      <path class="st5" d="M596.75,590.29c.3-.25.61-.51.91-.76"/>
      <path class="st5" d="M548.14,631.11c15.16-12.73,30.33-25.47,45.49-38.2"/>
    </g>
    <g>
      <line class="st4" x1="557.11" y1="542.85" x2="614.44" y2="509.72"/>
      <line class="st4" x1="550.16" y1="546.86" x2="551.5" y2="546.09"/>
      <line class="st4" x1="465.99" y1="595.5" x2="466.76" y2="595.05"/>
      <line class="st4" x1="400.73" y1="633.2" x2="460.02" y2="598.94"/>
    </g>
    <g>
      <path class="st5" d="M334.99,561.21c103.95-37.28,206.64-77.92,310.2-116.26"/>
      <path class="st5" d="M330.09,562.97c.43-.15.86-.31,1.3-.46"/>
    </g>
    <g>
      <path class="st1" d="M446.44,439.09c45.24-7.98,90.45-16.17,135.67-24.31"/>
      <path class="st1" d="M440.98,440.05c.43-.08.87-.15,1.3-.23"/>
    </g>
    <g>
      <line class="st2" x1="433.55" y1="364.86" x2="436.27" y2="364.86"/>
      <line class="st2" x1="424.96" y1="364.86" x2="427.88" y2="364.86"/>
      <line class="st2" x1="376.45" y1="364.87" x2="419.49" y2="364.87"/>
      <line class="st2" x1="186" y1="364.95" x2="202.6" y2="364.94"/>
      <line class="st2" x1="176.77" y1="364.95" x2="179.33" y2="364.95"/>
    </g>
    <g>
      <path class="st5" d="M444.74,290.35c47,8.42,93.85,17.67,141.02,25.15"/>
      <path class="st5" d="M440.08,289.52c.51.09,1.02.18,1.53.27"/>
    </g>
    <g>
      <path class="st5" d="M545.4,248.37c.24.09.48.17.72.26"/>
      <path class="st5" d="M541.55,246.97c.32.11.63.23.95.34"/>
      <path class="st5" d="M460.1,217.54c26.23,9.48,52.46,18.94,78.68,28.43"/>
    </g>
    <g>
      <line class="st4" x1="543.82" y1="179.2" x2="583.98" y2="202.37"/>
      <line class="st4" x1="534.36" y1="173.74" x2="536.66" y2="175.07"/>
      <line class="st4" x1="416.25" y1="105.6" x2="417.48" y2="106.31"/>
      <line class="st4" x1="354.99" y1="70.26" x2="411.47" y2="102.84"/>
      <line class="st4" x1="349.09" y1="66.86" x2="350.07" y2="67.43"/>
    </g>
    <g>
      <path class="st5" d="M630.89,168.07c.22.19.45.37.67.56"/>
      <path class="st5" d="M627.71,165.41c.25.21.49.41.74.62"/>
      <path class="st5" d="M597.2,139.82c9.37,7.86,18.74,15.72,28.12,23.58"/>
      <path class="st5" d="M465.88,29.71c15.79,13.24,31.58,26.48,47.37,39.72"/>
      <path class="st5" d="M462.96,27.26c.16.14.32.27.49.41"/>
      <path class="st5" d="M460.02,24.79c.25.21.49.41.74.62"/>
    </g>
    <g>
      <path class="st5" d="M636,90.94c.34.4.67.8,1.01,1.2"/>
      <path class="st5" d="M586.06,31.2c15.75,18.93,31.58,37.8,47.38,56.69"/>
      <path class="st5" d="M583.32,27.91c.21.25.42.51.63.76"/>
    </g>
    <g>
      <line class="st5" x1="665.45" y1="18.66" x2="708.89" y2="93.85"/>
      <line class="st5" x1="662.85" y1="14.16" x2="663.66" y2="15.57"/>
    </g>
    <g>
      <path class="st5" d="M770.25,104.66c3.09,8.34,6.24,16.65,9.47,24.93"/>
      <path class="st5" d="M754.56,60.98c.17.49.34.97.51,1.46"/>
      <path class="st5" d="M739.28,17.59c4.71,13.22,9.33,26.47,13.99,39.71"/>
    </g>
    <g>
      <path class="st5" d="M803.06,20.89c6.61,37.49,13.26,74.97,19.95,112.45"/>
      <path class="st5" d="M802.14,15.69c.07.42.15.85.22,1.27"/>
    </g>
    <g>
      <line class="st4" x1="865.28" y1="40.48" x2="865.29" y2="73.93"/>
      <line class="st4" x1="865.28" y1="32.8" x2="865.28" y2="34.19"/>
    </g>
    <g>
      <path class="st5" d="M926.66,18.21c-5.94,36.99-12.63,73.8-19.88,110.58"/>
      <path class="st5" d="M927.41,13.5c-.09.56-.18,1.12-.27,1.68"/>
    </g>
    <g>
      <path class="st5" d="M984.08,37.38c-2.97,8.23-5.94,16.47-8.9,24.7"/>
      <path class="st5" d="M986.16,31.62c-.21.57-.41,1.14-.61,1.7"/>
    </g>
    <g>
      <line class="st5" x1="1022.87" y1="91.74" x2="1022.12" y2="93.05"/>
      <line class="st5" x1="1062.53" y1="23.01" x2="1024.85" y2="88.32"/>
    </g>
    <g>
      <path class="st5" d="M1063.8,127.67c-1.14,1.39-2.28,2.77-3.42,4.16"/>
      <path class="st5" d="M1132.32,45.48c-.13.15-.25.3-.38.45"/>
      <path class="st5" d="M1145.93,29.34c-3.85,4.56-7.7,9.12-11.55,13.68"/>
    </g>
    <g>
      <path class="st4" d="M1187.67,94.74c-.46.39-.93.77-1.39,1.16"/>
      <path class="st4" d="M1261.37,33.04c-22.69,19.27-45.54,38.32-68.44,57.33"/>
      <path class="st4" d="M1268.78,26.74c-.8.68-1.61,1.37-2.41,2.05"/>
    </g>
    <g>
      <line class="st5" x1="1147.8" y1="201.54" x2="1146.27" y2="202.43"/>
      <line class="st5" x1="1281.44" y1="124.32" x2="1152.23" y2="198.98"/>
      <line class="st5" x1="1287.3" y1="120.93" x2="1284.89" y2="122.33"/>
      <line class="st5" x1="1337.26" y1="92.07" x2="1318.51" y2="102.91"/>
      <line class="st5" x1="1342.48" y1="89.05" x2="1340.44" y2="90.23"/>
    </g>
    <g>
      <path class="st5" d="M1235.96,227.76c-34.77,12.76-69.39,25.94-103.78,39.75"/>
      <path class="st5" d="M1243.8,224.89c-.85.31-1.69.62-2.54.93"/>
      <path class="st5" d="M1443.21,155.18c-28.93,9.93-57.88,19.82-86.79,29.82"/>
      <path class="st5" d="M1447.57,153.68c-.37.13-.74.26-1.11.38"/>
      <path class="st5" d="M1548.22,118.79c-.28.1-.56.2-.84.29"/>
      <path class="st5" d="M1568.63,111.56c-5.57,1.98-11.13,3.96-16.7,5.92"/>
    </g>
    <g>
      <path class="st5" d="M1379.46,274.87c-44.92,8.03-89.88,15.76-134.96,22.86"/>
      <path class="st5" d="M1385.15,273.85c-.51.09-1.03.18-1.54.28"/>
      <path class="st5" d="M1545.39,244.44c-15.99,2.96-31.98,5.92-47.98,8.87"/>
      <path class="st5" d="M1551.29,243.34c-.62.11-1.24.23-1.86.34"/>
    </g>
    <g>
      <line class="st4" x1="1320.96" y1="364.56" x2="1210.22" y2="364.6"/>
      <line class="st4" x1="1332.65" y1="364.55" x2="1328.31" y2="364.55"/>
      <line class="st4" x1="1578.7" y1="364.47" x2="1414.57" y2="364.53"/>
      <line class="st4" x1="1589.48" y1="364.47" x2="1587.28" y2="364.47"/>
      <line class="st4" x1="1598.69" y1="364.46" x2="1596.55" y2="364.46"/>
    </g>
    <g>
      <path class="st5" d="M1197.06,424.29c-30.47-5.52-60.89-11.07-91.21-16.6"/>
      <path class="st5" d="M1205.39,425.8c-1.18-.21-2.36-.43-3.53-.64"/>
      <path class="st5" d="M1307.17,444.05c-.51-.09-1.01-.18-1.52-.27"/>
      <path class="st5" d="M1373.11,455.61c-20.74-3.6-41.51-7.24-62.31-10.92"/>
      <path class="st5" d="M1491.87,475.67c-39.34-6.44-78.97-13.16-118.76-20.06"/>
      <path class="st5" d="M1496.69,476.46c-.35-.06-.7-.11-1.05-.17"/>
    </g>
    <g>
      <path class="st5" d="M1349.75,542.08c-64.43-22.71-128.71-45.85-192.32-70.76"/>
      <path class="st5" d="M1356.3,544.39c-.71-.25-1.42-.5-2.13-.75"/>
    </g>
    <g>
      <line class="st5" x1="1214.12" y1="565.89" x2="1054.77" y2="473.96"/>
      <line class="st5" x1="1217.74" y1="567.98" x2="1217.03" y2="567.57"/>
    </g>
    <g>
      <path class="st5" d="M1121.21,578.08c-12.57-10.53-25.25-20.93-38.25-30.93"/>
      <path class="st5" d="M1125.32,581.53c-.41-.34-.82-.69-1.23-1.03"/>
      <path class="st5" d="M1170.03,619.18c-10.76-8.9-21.4-17.94-32.06-26.96"/>
      <path class="st5" d="M1192.09,638.65c-3.45-2.54-6.89-5.12-10.04-8.02"/>
    </g>
    <g>
      <path class="st4" d="M1086.3,627.79c-16.47-19.61-32.94-39.22-49.4-58.84"/>
      <path class="st4" d="M1092.48,635.15c-.63-.75-1.26-1.5-1.9-2.26"/>
      <path class="st4" d="M1143.14,695.48c-4.69-5.58-9.38-11.17-14.06-16.75"/>
    </g>
    <g>
      <line class="st5" x1="1072.17" y1="722.57" x2="1008.57" y2="612.5"/>
      <line class="st5" x1="1074.66" y1="726.89" x2="1074.01" y2="725.76"/>
    </g>
    <g>
      <path class="st5" d="M991.25,709.08c-6.55-17.59-13.31-35.12-19.97-52.67"/>
      <path class="st5" d="M992.97,713.72c-.13-.35-.26-.7-.39-1.05"/>
    </g>
    <g>
      <path class="st5" d="M929.28,726.1c-6.46-34.62-13.06-69.22-18.43-104.03"/>
      <path class="st5" d="M930.33,731.75c-.11-.57-.21-1.14-.32-1.71"/>
    </g>
  </g>
  <path class="st7" d="M861.45,698.29c-25.42,0-49.66-10.24-68.25-28.84l-1.22-1.22-242.16-267.21c-15.16-15.95-24.09-36.96-25.16-59.2-1.06-22.17,5.77-44.16,19.25-61.93l115.69-157c17.47-24.92,46.16-39.78,76.81-39.78h250.1c30.65,0,59.34,14.87,76.81,39.78l115.7,157.02c13.2,17.44,19.91,39.2,18.88,61.28-1,21.47-9.25,42.1-23.24,58.08l-.52.59-243.21,268.36-1.22,1.22c-18.6,18.6-42.84,28.84-68.25,28.84Z"/>
</svg>