<?xml version="1.0" encoding="UTF-8"?>
<svg id="_レイヤー_1" data-name="レイヤー_1" xmlns="http://www.w3.org/2000/svg" version="1.1" viewBox="0 0 1148 1148">
  <!-- Generator: Adobe Illustrator 30.0.0, SVG Export Plug-In . SVG Version: 2.1.1 Build 123)  -->
  <defs>
    <style>
      .st0 {
        fill: none;
        stroke: #ceb372;
        stroke-linecap: round;
        stroke-linejoin: round;
        stroke-width: .8px;
      }
    </style>
  </defs>
  <line class="st0" x1="574.25" y1="1148.1" x2="574.15" y2="869.87"/>
  <g>
    <path class="st0" d="M506.35,953.77c5.32-29.49,11.15-58.88,16.44-88.37"/>
    <path class="st0" d="M496.43,1015.15c2.01-14.7,4.34-29.35,6.85-43.97"/>
  </g>
  <g>
    <path class="st0" d="M439.37,945.61c11.49-31.07,22.83-62.21,33.6-93.54"/>
    <path class="st0" d="M429.9,971.11c.97-2.61,1.95-5.23,2.92-7.84"/>
    <path class="st0" d="M420.47,996.46c1.09-2.92,2.17-5.84,3.26-8.76"/>
  </g>
  <line class="st0" x1="287.19" y1="1071.29" x2="426.23" y2="830.29"/>
  <g>
    <path class="st0" d="M312.68,885.42c23.76-28.23,47.86-56.19,71.3-84.7"/>
    <path class="st0" d="M284.25,919.66c5.69-6.97,11.41-13.9,17.17-20.81"/>
  </g>
  <g>
    <path class="st0" d="M275.71,824.56c23.93-20.1,47.87-40.19,71.8-60.29"/>
    <path class="st0" d="M254.73,842.18c2.42-2.03,4.84-4.06,7.26-6.1"/>
    <path class="st0" d="M232.27,861.04c3.21-2.69,6.42-5.39,9.63-8.08"/>
  </g>
  <line class="st0" x1="77.01" y1="861.24" x2="317.91" y2="722.05"/>
  <g>
    <path class="st0" d="M191.82,714.38c34.96-12.5,69.47-26.17,104.28-39.06"/>
    <path class="st0" d="M149.77,728.64c8.53-2.71,17.02-5.53,25.48-8.44"/>
  </g>
  <g>
    <path class="st0" d="M188.85,642.34c31.31-5.51,62.6-11.18,93.89-16.82"/>
    <path class="st0" d="M163.04,646.84c3.1-.53,6.2-1.07,9.29-1.61"/>
    <path class="st0" d="M135.6,651.52c3.72-.62,7.43-1.25,11.15-1.88"/>
  </g>
  <line class="st0" y1="574.25" x2="278.23" y2="574.15"/>
  <g>
    <path class="st0" d="M169.53,502.59c37.73,6.71,75.33,14.19,113.18,20.19"/>
    <path class="st0" d="M132.43,496.34c6.88,1.08,13.75,2.22,20.62,3.39"/>
  </g>
  <g>
    <path class="st0" d="M201.49,438.72c31.51,11.44,63.06,22.75,94.55,34.25"/>
    <path class="st0" d="M179.84,430.83c1.64.6,3.28,1.2,4.92,1.8"/>
    <path class="st0" d="M155.11,421.73c2.97,1.1,5.94,2.2,8.91,3.29"/>
  </g>
  <line class="st0" x1="76.81" y1="287.19" x2="317.81" y2="426.23"/>
  <g>
    <path class="st0" d="M262.83,313.09c28.18,23.63,56.36,47.26,84.54,70.89"/>
    <path class="st0" d="M232.88,287.97c5.4,4.53,10.79,9.05,16.19,13.58"/>
  </g>
  <g>
    <path class="st0" d="M327.54,280c18.73,22.53,37.66,44.89,56.29,67.51"/>
    <path class="st0" d="M308.9,257.39c2.43,2.97,4.86,5.94,7.3,8.9"/>
    <path class="st0" d="M289.1,234.69c1.94,3.32,6.24,5.92,8.73,9.02"/>
  </g>
  <line class="st0" x1="286.86" y1="77.01" x2="426.05" y2="317.91"/>
  <g>
    <path class="st0" d="M438.7,201.74c11.21,31.51,21.89,63.21,34.08,94.36"/>
    <path class="st0" d="M421.99,156.7c3.65,9.28,7.15,18.62,10.57,27.98"/>
  </g>
  <g>
    <path class="st0" d="M506.54,192.31c5.31,30.15,10.66,60.3,16.04,90.44"/>
    <path class="st0" d="M501.06,161.11c.79,4.51,1.58,9.01,2.38,13.52"/>
    <path class="st0" d="M496.13,133c.58,3.33,1.17,6.66,1.75,9.99"/>
  </g>
  <line class="st0" x1="573.85" x2="573.95" y2="278.23"/>
  <g>
    <path class="st0" d="M641.44,192.6c-4.79,30.15-10.22,60.14-16.12,90.11"/>
    <path class="st0" d="M651.76,132.43c-1.83,13.8-4.48,27.46-7.01,41.14"/>
  </g>
  <g>
    <path class="st0" d="M699.73,227.75c-8.22,22.76-16.38,45.53-24.6,68.29"/>
    <path class="st0" d="M713.38,190.18c-2.29,6.26-4.57,12.52-6.85,18.78"/>
    <path class="st0" d="M726.37,155.11c-2.07,5.51-4.12,11.03-6.16,16.55"/>
  </g>
  <line class="st0" x1="860.91" y1="76.81" x2="721.87" y2="317.81"/>
  <g>
    <path class="st0" d="M828.19,270.44c-21.54,25.49-42.95,51.09-64.07,76.94"/>
    <path class="st0" d="M863.52,228.84c-7.5,8.79-14.99,17.59-22.46,26.41"/>
  </g>
  <g>
    <path class="st0" d="M866.65,328.63c-21.84,18.62-44.15,36.66-66.05,55.2"/>
    <path class="st0" d="M887.9,310.61c-2.1,1.77-4.21,3.55-6.31,5.33"/>
    <path class="st0" d="M911.39,290.8c-2.87,2.42-5.74,4.85-8.61,7.27"/>
  </g>
  <line class="st0" x1="1071.09" y1="286.86" x2="830.19" y2="426.05"/>
  <g>
    <path class="st0" d="M950.61,437.54c-32.88,11.71-66.21,22.22-98.61,35.24"/>
    <path class="st0" d="M991.89,421.81c-7.72,3.2-15.51,6.25-23.33,9.18"/>
  </g>
  <g>
    <path class="st0" d="M962.71,505.77c-32.39,5.93-64.82,11.68-97.35,16.81"/>
    <path class="st0" d="M1013.02,496.49c-10.98,2.03-21.97,4.07-32.95,6.09"/>
  </g>
  <line class="st0" x1="1148.1" y1="573.85" x2="869.87" y2="573.95"/>
  <path class="st0" d="M1013.07,651.31c-48.65-7.95-98.56-17.02-147.68-25.99"/>
  <g>
    <path class="st0" d="M923.01,701.09c-23.77-8.32-47.52-16.7-70.94-25.96"/>
    <path class="st0" d="M951.32,711.05c-3.9-1.39-7.8-2.76-11.71-4.14"/>
    <path class="st0" d="M992,726.01c-8.13-3.13-16.3-6.17-24.48-9.15"/>
  </g>
  <line class="st0" x1="1071.29" y1="860.91" x2="830.29" y2="721.87"/>
  <g>
    <path class="st0" d="M844.85,799.94c-14.5-12.19-29.11-24.26-44.12-35.82"/>
    <path class="st0" d="M891.43,839.16c-11.21-9.27-22.3-18.69-33.4-28.09"/>
    <path class="st0" d="M914.41,859.45c-3.59-2.65-7.17-5.33-10.46-8.36"/>
  </g>
  <g>
    <path class="st0" d="M826.77,875.02c-20.83-24.81-41.66-49.62-62.49-74.42"/>
    <path class="st0" d="M863.41,918.66c-3.39-4.04-6.78-8.08-10.17-12.11"/>
  </g>
  <line class="st0" x1="861.24" y1="1071.1" x2="722.05" y2="830.19"/>
  <g>
    <path class="st0" d="M713.79,956.57c-12.88-34.84-26.88-69.27-38.47-104.58"/>
    <path class="st0" d="M726.11,991.4c-2.17-6.49-4.41-12.96-6.71-19.41"/>
  </g>
  <g>
    <path class="st0" d="M641.7,956.44c-5.64-30.32-11.48-60.61-16.18-91.09"/>
    <path class="st0" d="M651.88,1014.58c-2.12-13.33-4.43-26.63-6.83-39.91"/>
  </g>
</svg>