<svg xmlns="http://www.w3.org/2000/svg" id="sunburst" viewBox="0 0 1470 620"><defs><pattern id="_新規パターンスウォッチ_2" width="48" height="48" x="0" y="0" data-name="新規パターンスウォッチ 2" patternTransform="rotate(-45 4957.18 2195.799)" patternUnits="userSpaceOnUse" viewBox="0 0 48 48"><path d="M0 0h48v48H0z" class="st0"/><path d="M0 0h48v48H0z" class="st0"/><path d="M0 0h48v48H0z" class="st0"/><path d="M24 50.4a2.4 2.4 0 0 0 0-4.8c-1.32 0-2.4 1.08-2.4 2.4s1.07 2.4 2.4 2.4M48 50.4a2.4 2.4 0 0 0 0-4.8c-1.32 0-2.4 1.08-2.4 2.4s1.07 2.4 2.4 2.4M24 26.4a2.4 2.4 0 0 0 0-4.8c-1.32 0-2.4 1.08-2.4 2.4s1.07 2.4 2.4 2.4M48 26.4a2.4 2.4 0 0 0 0-4.8c-1.32 0-2.4 1.08-2.4 2.4s1.07 2.4 2.4 2.4M36 38.4a2.4 2.4 0 0 0 0-4.8c-1.32 0-2.4 1.08-2.4 2.4s1.07 2.4 2.4 2.4M12 38.4a2.4 2.4 0 0 0 0-4.8c-1.32 0-2.4 1.08-2.4 2.4s1.07 2.4 2.4 2.4M36 14.4a2.4 2.4 0 0 0 0-4.8c-1.32 0-2.4 1.08-2.4 2.4s1.07 2.4 2.4 2.4M12 14.4a2.4 2.4 0 0 0 0-4.8c-1.32 0-2.4 1.08-2.4 2.4s1.07 2.4 2.4 2.4M0 50.4a2.4 2.4 0 0 0 0-4.8c-1.32 0-2.4 1.08-2.4 2.4s1.07 2.4 2.4 2.4M0 26.4a2.4 2.4 0 0 0 0-4.8c-1.32 0-2.4 1.08-2.4 2.4s1.07 2.4 2.4 2.4M24 2.4a2.4 2.4 0 0 0 0-4.8c-1.32 0-2.4 1.08-2.4 2.4s1.07 2.4 2.4 2.4M48 2.4a2.4 2.4 0 0 0 0-4.8c-1.32 0-2.4 1.08-2.4 2.4s1.07 2.4 2.4 2.4M0 2.4a2.4 2.4 0 0 0 0-4.8c-1.32 0-2.4 1.08-2.4 2.4S-1.33 2.4 0 2.4" class="st4"/></pattern><style>.st0,.st1,.st2{fill:none}.st4{fill:#ceb372}.st1,.st2{stroke-width:3px;stroke:#ceb372;stroke-linecap:round;stroke-linejoin:round}.st2{stroke-width:2px}</style></defs><path d="M735.91 610.96v-31.55M735.91 617.01v-.85" class="st1"/><path d="M682.91 613c2.94-16.02 6.09-32.01 8.96-48.05M627.39 611.79c10.45-28.25 20.84-56.56 31.12-84.87M625.86 616.13c.15-.4.3-.81.45-1.21M574.88 596.23l54.32-94.17M508.63 587.78c31.35-37.15 63.03-74.01 93.91-111.55M504.25 592.97c.56-.66 1.11-1.33 1.67-1.99M472.47 538.39c32.87-27.62 65.74-55.19 98.61-82.81M466.14 543.7l2.62-2.2" class="st2"/><path d="m347.14 541.84 198.79-114.87M340.84 545.48l1.93-1.11" class="st1"/><path d="M277.19 487.28c82.61-29.75 164.27-62.02 246.61-92.51M271.93 489.17c.67-.24 1.35-.48 2.02-.72M217.04 409.65c92.69-16.37 185.32-33.15 277.97-49.82M210.83 410.74c.82-.14 1.63-.29 2.45-.43" class="st2"/><path d="M477.92 317.39h3.18M467.9 317.39h3.41M293.43 317.4h168.09M107.89 317.47l41.05-.01M97.12 317.47h2.99" class="st1"/><path d="M335.21 246.27c54.34 9.74 108.57 20.09 162.91 29.81M326.85 244.78l2.74.48M508.86 234.66c.54.2 1.07.38 1.61.58M500.25 231.52c.72.25 1.41.51 2.12.76M320.11 166.44c57.99 20.96 115.97 41.87 173.94 62.85M323.88 79.62l156.38 90.2M319.5 77.09l1.14.65" class="st2"/><path d="m562.77 172.17 1.25 1.05M440.4 69.54l118.86 99.69M400.83 36.38c14.29 11.98 28.58 23.97 42.87 35.94M395.37 31.8c.57.47 1.13.95 1.7 1.42" class="st1"/><path d="M585.93 138.53c.58.68 1.14 1.37 1.72 2.05M500.72 36.6c26.87 32.3 53.88 64.5 80.84 96.73M496.04 30.98c.36.43.72.87 1.07 1.3M577.11 42.61l44.53 77.07M573.84 36.95l1 1.72M627.36 18.56c11.82 33.54 23.58 67.11 35.37 100.67M626.12 15.07c.13.37.26.73.39 1.1M683.13 34.55c4.97 28.12 9.95 56.24 14.96 84.36M682.22 29.42l.3 1.72" class="st2"/><path d="m735.71 16.71.01 102.2M735.71 10.36v1.15" class="st1"/><path d="M785.18 32.25c-4.88 29.11-10.16 58.14-15.75 87.15M786.54 24.07c-.17 1-.33 2-.5 3.01M843.84 13.87c-12.69 35.16-25.38 70.36-38.02 105.52M898.22 34.03l-49.09 85.1M980.27 25.07c-31 36.63-61.91 73.36-92.92 110.08M983.78 20.92l-1.29 1.53" class="st2"/><path d="m921.41 161.73-1.26 1.05M1059.26 46.52c-44.42 37.5-89.06 74.7-133.78 111.84M1064.53 42.2c-.49.41-.97.82-1.46 1.24" class="st1"/><path d="m945.27 196.24-2.82 1.64M980.91 175.64l-30.69 17.73M1091.48 111.75l-70.46 40.72M1096.64 108.77l-1.83 1.06M1276.7 123.31c-102.63 36.98-205.3 73.87-307.84 111.13M1268.96 126.12c-.36.13-.71.26-1.07.38M1365.95 90.8c-.27.1-.54.2-.81.29M1385.62 83.48c-5.37 2-10.73 4.01-16.09 5.99M1175.41 241.86c-61.86 10.59-123.78 20.84-185.79 30.6M1180.55 240.91c-.63.11-1.25.21-1.88.32M1320.03 216.53q-17.205 3.075-34.41 6.12M1324.23 215.78l-1.15.21" class="st2"/><path d="m1137.1 317.14-137.53.03M1147.57 317.13h-3.52M1251.82 317.1l-35.88.01M1361.91 317.06h-24.39M1370.64 317.06h-1.78" class="st1"/><path d="M1035.23 370.91c-16.77-3.06-33.53-6.12-50.29-9.17M1144.79 390.88c-6.27-1.14-12.55-2.28-18.82-3.43M1295.19 418.21c-35.07-6.35-70.11-12.72-105.13-19.09M1300.83 419.23c-.56-.1-1.13-.2-1.69-.31M1079.65 515.62l-155.33-89.6M1083.17 517.66l-.69-.4M984.98 523.53c-27.89-23.31-56.04-46.31-84.86-68.48M989.92 527.67c-.59-.5-1.19-.99-1.78-1.49" class="st2"/><path d="M956.89 585.1c-27.23-34.03-54.42-68.08-81.62-102.14M960.88 590.43c-.36-.44-.71-.89-1.07-1.34" class="st1"/><path d="m892.44 588.34-46.91-81.18M894.28 591.53l-.48-.83M844.46 614.35c-10.42-27.89-21.13-55.7-31.7-83.53M845.97 618.41c-.16-.42-.31-.83-.47-1.25" class="st2"/><path d="M783.5 610.77c-2.69-14.44-5.45-28.87-7.69-43.39" style="fill:none;stroke:#ceb372;stroke-linecap:round;stroke-linejoin:round;stroke-width:1.7px"/><path d="M741.04 579.28c-19.71 0-38.78-8.21-52.33-22.52L508.06 365.99c-11.18-11.81-18.1-27.24-19.48-43.44-1.38-16.21 2.83-32.58 11.86-46.11l82.21-123.2c13.4-20.08 35.81-32.07 59.95-32.07h196.89c24.14 0 46.55 11.99 59.95 32.07l82.21 123.19c9.03 13.53 13.24 29.9 11.86 46.11s-8.3 31.64-19.48 43.44L793.38 556.75c-13.55 14.31-32.62 22.52-52.33 22.52h-.01Z" style="fill:url(#_新規パターンスウォッチ_2)"/></svg>