<svg xmlns="http://www.w3.org/2000/svg" id="_レイヤー_1" data-name="レイヤー_1" viewBox="0 0 25.48 38.49"><defs><style>.st0{fill:#dbc99c}</style></defs><path d="M24.52 2.57c-.42 3.09-1.4 6.06-3.01 8.77-3.11 5.38-10.54 9.51-16.52 6.32-2.26-1.2-4-3.87-3.5-6.54.09-.91.79-2.13 1.73-2.46 1.73-.7 3.3-.38 4.98-.06 5.42 1.26 7.2 7.69 7.47 12.56.03 4.49-2.43 8.6-5.99 11.24-.61.49-1.27.95-2 1.32-.74.31-1.46.86-2.42.49-1.08-.48-.31-1.77.43-2.06 3.26-1.74 6.44-4.25 7.45-7.98 1.17-3.88.07-8.6-2.19-11.77-1.22-1.67-3.21-2.29-5.18-2.31-.85.02-1.71.04-2.14.65-.81 1.95.52 4.17 2.36 5.09 4.89 2.44 11.03-1.25 13.61-5.65 1.43-2.37 2.36-5.14 2.82-7.89.21-1.37 2.27-1.1 2.1.29Z" class="st0"/><path d="M7.14 25.77c-.8 3.6-1.22 7.07-2.91 10.44 0 0-1.01-1.57-.98-1.56 4.4-.61 8.85-1 13.28-1.11.35-.01.65.27.66.62 0 .34-.25.62-.59.65-4.39.35-8.72.97-13.03 1.8a.967.967 0 0 1-1.16-.75c-.07-.29.02-.56.17-.8.72-1.22 1.2-3.14 1.62-4.6.45-1.66.85-3.35 1.2-5.04.1-.48.57-.78 1.04-.68s.77.56.69 1.03Z" class="st0"/></svg>