<svg xmlns="http://www.w3.org/2000/svg" id="_レイヤー_1" data-name="レイヤー_1" viewBox="0 0 336.46 123.04"><defs><style>.st0{fill:#1b1816}</style></defs><path d="M227.69 52.48c.58-.21 1.7.47 2.34.6 2.53.49 6.04.34 7.7 2.67l-.68.57c-1.57-.16-3.15-.26-4.72-.39s-2.35.31-3.72-.85c-.48-.41-1.77-2.29-.91-2.6ZM307 76.12c.17-.04 2.7 1.19 3.02 1.4 3.12 2.09.34 2.79-1.75 1.49-.78-.49-2.04-2.07-1.27-2.9ZM292.85 60.62c.2 0 .41-.03.61-.03l-.18.42c.06.07 0 .14-.19.21-.79.25-1.21.35-2.02.51l-.6.23c-.13.01-.27.02-.41.02-.52.23-.72.17-.62-.18-.08-.16-.08-.3-.02-.41.48-.11 1.11-.19 1.62-.28.25-.25.69-.36 1.01-.25.15-.19.43-.17.61-.03z" class="st0"/><path d="M289.41 61.4c.13.19.34.45.02.41q-.52-.13 0 0c.16.03.25.17.62.18-.6.47-1.46.72-2.22.72.41-.2 1-.57.77-1.06.29-.09.48-.17.81-.24ZM276.54 66.31c-.11.3-.44.17-.6.23v-.2c.19-.02.4 0 .6-.03M291.06 61.73s-.16.19-.6.23zM293.69 60.99c-.11.29-.42.17-.6.23.02-.09.1-.2.19-.21.13-.02.27 0 .41-.02M277.73 65.64c-.17.45-.57.55-.99.66l.79-.55-.83-.27c.35-.17.83.16 1.03.15ZM148.43 54.61l.12-.07s-.07.03-.12.07" class="st0"/><path d="M329.36 3.59c-.29.03-1.3.55-1.52.79-.55.56-2.12 3.56-2.61 4.46-2.26 4.13-3.95 8.52-5.94 12.77-1.43 3.04-3.19 6.09-4.55 9.16-3.39 7.69-6.18 15.99-7.02 24.4-1.01.44-2.09.69-3.16.94-2.2.52-4.16.73-6.39 1.23-2.74.61-6.13 1.66-8.67 2.32-3.93 1.03-7.77 2.39-11.68 3.51-.28.38-.93.82-1.4.68-.62-.19.17-3.12.29-3.74 1.5-7.74 4.16-14.65 4.73-22.66.09-1.25-.41-1.28-.42-1.36-.04-.34.42-.7.38-1.03 0-.05-.17-.02-.37-.72-1.66-5.78-5.52-8.45-11.4-5.68-4.13 1.95-7.03 6.34-8.69 10.47-4.01 10.01-3.07 20.82-.59 31.11-.23 1.13-1.49 1.27-2.15 1.77-.29.22-.53.52-.81.73-.4.31-.65.7-1.18 1.08-.05.03-.15-.02-.2 0 .33.76-1.17 1.26-.59.44l-.25.14s-.1.06-.15.08c-.64.58-1.27 1.04-1.95 1.65-1.35 1.2-2.49 3-4.57 2.95-1.32-2.92 3.79-10.11 3.06-12.27-.25-.75-2.33-1.71-3.16-1.59-2.38.35-5.43 3.85-7.78 4.67-2.71.95-1.6-1.48-1-3.06.47-1.25 2.35-3.99 2.07-5.07-.16-.63-1.98-2.08-2.58-1.85-.41.16-2.1 5.35-2.82 6.05-.17.05-2.35-2.04-3.05-1.7-.09 3.33-1.99 6.33-1.81 9.69-1.52.3-3.04.76-4.56 1.03-3.44.6-14.77 1.73-17.47-.08-.4-.27-.89-.56-.47-.98.64-.63 3.24-2.14 4.16-2.67 2.14-1.23 5.93-3.22 8.36-3.36.99-.06 3.82 1.4 2.53-.64-.18-.29-1.58-1.17-1.94-1.31-3.73-1.41-9.87 3.06-13.28 4.4 1.15-6.22 2.91-12.39 3.88-18.65.15-.99.56-2.82.32-3.71-.24-.87-1.35-1.04-1.98-1.49-.31-.22-.32-1.07-1.05-.38-.63.6 0 1.51 0 2.15-.01 3.08-1.33 8.85-1.96 12.1-.88 4.58-2.13 9.2-2.77 13.68-.1.67-.3 2.72-.75 3.05-.25.18-2.19.69-2.61.75-2.85.4-8.39.55-10.93-.87-.52-.29-2.57-2.04-2.22-2.59 4.97-2.74 10.84-6.24 16.73-5.12.8-1.52-1.4-2.17-2.56-2.43-5-1.11-11.62 3.01-15.95 5.24-.51.26-1.65.49-1.99.73-.51.37.4.76.26 1.32-.11.12-1.21-.59-1.73-.47-.23.05-.63.5-.98.64-3.67 1.55-11.79 6.39-15.28 6.19-4.12-.24-1.08-5.04.27-6.75 2.22-2.83 6.47-6.5 10.13-7.01 2.03-.28 3.3-.05 3.93 2.08.17.58.18 2.04.27 2.17.16.23 2.64.69 2.5-.73-.23-2.37-2.33-4.36-4.45-5.19-5.56-2.17-10.96 2.46-14.43 6.32.37-1.49.16-4.78.73-6.03.22-.48 1.92-.51 1.26-1.65-.17-.29-.72-.36-.86-.57-.33-.47 1.74-9.88 1.97-11.31.4-2.39 1.34-6.38 1.27-8.63-.01-.43-.09-.92-.37-1.27-.15-.19-2.37-1.55-2.51-1.54-.99.03-.18 2.19-.16 2.78.04.9-.21 2.47-.32 3.44-.69 5.72-2.19 11.5-2.84 17.25-4.17 1.23-8.42 1.81-12.49 3.4-.65.25-4.34 2.21-4.62 1.96 1.07-7.12 2.91-14.09 4.67-21.06 2.02-7.96 4.06-15.95 6.87-23.65-.6-1.19-1.77-1.88-2.85-2.58-.55.07-1.23 5.36-1.45 6.29-2.89 12.44-6.92 24.66-9.41 37.17-.26 1.29-.36 4.3-.82 5.27-.1.21-1.57.39-1.63.75-.14.85 1.21 1.36 1.35 2.18.18 1.05-.39 3.96-.37 5.32.04 2.31.52 6.32 1.63 8.33.61 1.1 1.76 2.27 3.14 1.97.44-1.02-.65-1.89-1.04-2.99-.4-1.15-.79-3.14-.92-4.36-.15-1.4-.25-7.24.41-8.22.19-.29 2.86-1.9 3.38-2.2 4.17-2.37 8.76-3.82 13.39-5.03.5-.16.36.79.33 1.09-.21 2.41-1.36 8.92-1.09 10.9.08.59.54 1.08.67 1.64.37 1.55.15 2.48 1.26 3.99 1.07 1.46 3.91 2.6 4.92.63.39-.75-.27-1.41.1-1.66.24-.16 2.12-.32 2.69-.48 3.15-.89 6.01-3.02 8.96-4.36.45-.2 2.15-.91 2.49-.82.58.15.18.87.28 1.4.29 1.46 2.06 3.61 3.59 3.83.44.06 1.55-.18 1.4-.69-2.26-1.32-1.72-3.55-1.71-5.76 2.14 1.9 4.49 3.25 7.31 3.89 3.64.83 7.04.32 10.71.05.44 2.98 2.76 6.91 6.01 4.12.48-.41 2.45-3.21 2.55-3.74.04-.23.04-.44.01-.67-1.23-.27-4.29 3.42-5.17 2.89-.23-.14-.65-3.08-.55-3.5.1-.41 1.59-1.82 2.03-1.88.29-.04 2.86.84 3.61.96 3.48.53 8.04.21 11.56-.25 2.25-.29 4.46-.95 6.69-1.35.65.04.61 1.05.9 1.61.64 1.24 2.03 2.64 3.46 1.57-.81-1.13-1.17-2.44-1.4-3.79.13-.52 3.03-1.13 3.13-1.83.23-1.75-1.96-1.53-3.08-1.16l1.23-4.36.65 1.75c3.1 5.75 7.48 1.01 10.93-1.48.32.23.32.24.25.61-.26 1.28-1.55 3.11-1.93 4.7-.54 2.3-.58 4.61 1.21 6.39.34.34 1.39.72 1.37 1.22-.16.84-1.15 1.62-1.47 2.18-2.78 4.81-5.07 10.76-1.29 15.76 3.7 4.9 14.68 6.4 20.5 7.11 4.09.5 11.13 1.65 14.7-.25 3.22-1.72 2.28-2.61.52-5.09-5.36-7.52-10.43-13.16-14.63-21.74-.55-1.12-3.41-7.4-2.99-8.16 1.06-.57 2.37-.2 3.47-.31 3.3-.35 5.1-2.62 7.55-4.33.26-.18.58-.21.61-.24.04-.04-.31-.51-.24-.6.64.03 1.09-.49 1.61-.69 1.21-.47 2.51-.67 3.83-1.21.49-.2 2.19-1.13 2.32-1.14.38-.05.26.39.43.39.16 0 .82-.04 1.1-.05.08 0 .15 0 .23-.01.1-.02.23-.07.37-.12-.13-.16-.8-.15-.42-.49.05-.05 1.14-.2 1.42-.27.18-.05.44.02.61-.03.68-.21 1.49-.7 2.21-.92.46.02.73-.07.81-.24.32.45 1.5.28 1.62-.28.14-.53.6-.4 1-.46.2-.03.41-.03.61-.03.07 0 .14-.01.2 0 .27.08.41.21.43.39.13.13.27.09.41-.02.54-.06.83-.19 1.22-.26.57-1.25 1.8-.91 2.7-1.16.36-.1.75-.3 1.12-.45.01 0 .02-.01.03-.02.14-.1.39-.44.58-.01.32-.05.73.02 1.02-.05 1.05-.25 1.99-.53 3.03-.76.3-.06 1.74-.56 1.82-.49l.03.61c.06-.02.14 0 .2 0 .09-.27.38-.21.6-.23.47-.04.96-.03 1.43-.07.1 2.51.02 4.94.34 7.43 2.88 1.39 1.93-3.75 2.01-5.39.02-.45.15-2.35.34-2.53 1.74-.45 3.55-.82 5.32-1.12 2.36-.39 5.78-.4 7.87-1.45 1.11-.56.52-.39.42-.89-.12-.66.21-1-.87-1.09-1.13-.1-3.78.47-5.09.66-2.47.36-4.94.91-7.42 1.17.62-6.21 2.54-12.36 4.9-18.12 3.06-7.47 7.14-16.6 10.88-23.72 1.35-2.57 2.8-5.3 5.23-6.97-1.03-.39-.92-2.59-2.04-2.46ZM150.99 43.84l.41-.02.04.81-.41.02zm-.3 2.26c.3.05.48.31.43.59l-.41.02-.03-.61Zm-.71 1.81c.34-1.17 1.06-.01.59.44-.21.2-.76.15-.59-.44m.01.89.09-.21c.12 0 .09.12.11.2.04.17.1.78-.07.82-.45.18-.46-.61-.14-.81Zm-.85-.78c.23.21-.15.64-.39.43s.15-.64.39-.43m-1.57 10.11c.09-.57.26-.85.35-1.25.11-.46.24-1 .34-1.45.06-.26.14-.46.18-.62.01-.06-.03-.14 0-.2.24-.97.34-1.85.68-2.9.06-.17.14-.3.18-.42.05-.14-.02-.41.07-.62.44-1.12.85-.24.72-.04-.07.1-.61-.03-.58.65.04.75-.03.26-.18.62-.36.9-.17 2.31-.65 3.51-.03.08-.17.15-.19.21-.14.39-.26.84-.35 1.25-.13.56 0 1.42-.32 1.86-.09.12-.02.3-.4.22-.03-.29.12-.55.16-.83Zm-1.69 9.5c-.27-.06-.02-1.33.02-1.64.09-.66.26-1.01.34-1.45.1-.56.21-1.1.33-1.65.06-.27.11-.55.17-.83.22-1.03-.22-.79.53-1.87.02-.03-.08-.79.39-.43.06.05-.26.54-.38.63-.09.55-.23 1.1-.33 1.65-.06.34-.08.64-.16 1.03-.1.48-.25.97-.34 1.45-.09.47-.29 1.04-.34 1.45-.04.31.33 1.78-.23 1.65Zm22.04 15.73c-1.36.42-2.07.55-2.2-1.12.94.38 1.87.64 2.9.68-.06.42-.42.35-.7.44M273.53 95.1c1.57 2.11 4.71 5.26 5.79 7.38.48.94.46 1.21-.14 2.09-.83 1.22-1.91 1.32-3.31 1.49-5.17.62-17.81-1.23-22.76-3.12-15.78-6-1.18-24.81 7.93-29.72.25-.11.34.12.45.3.41.66.75 2.07 1.11 2.87 2.94 6.58 6.63 12.93 10.93 18.72Zm-8.49-25.17c-.21-.74.98-.78 1-.35.01.28-.72.41-1 .35m9.19-12.27c-.35 1.38-1.22 6.88-1.89 7.57-.21.22-4.94 1.78-5.74 2.11-.65.27-3.63 1.92-4.04 1.67-2.3-9.01-2.87-18.84.35-27.69 1.44-3.95 4.47-8.47 8.28-10.45 2.68-1.39 7.04-1.8 7.65 2.07 1.16 7.35-2.76 17.5-4.61 24.74Zm33.02.02s-.83.2-1.01.25c.07-.43.61-.38.89-.65.17-.04.13.38.12.4m3.31-12.04c-.35-.26.85-.98.98-.86.26.24-.56 1.07-.98.86m1.09-2.91c.19-.52.15-.74.79-.65.08.51-.29.71-.79.65m.57-1.05c-.12-.1.17-1.13.57-.84.22.4-.31 1.07-.57.84m.94-1.69s-.38.24-.4.22c-.14-.32.13-.47.17-.62.05-.19.7-2.85.95-1.58.09.45-.56.87-.64 1.15-.09.3.21.47-.08.83m1.62-4.78c-.07-.38-.04-.71.37-.84.07.38.04.71-.37.84m.54-1.46.94-1.68c.1.29-.54 2.05-.94 1.68m1.12-2.31c0-.72.12-1.48.78-.75zm.92-2.09c-.1-.09.77-1.79 1.14-1.89.05.32-.75 2.25-1.14 1.89m2.84-4.84c-.33.38-.52-.31-.43-.66.01-.05.65-.66.77-.79-.03.23-.29 1.39-.34 1.45m1.29-2.93c-.11.26-.51.9-.77 1.06.15-.45.26-1.33.53-1.66.49-.58.48.04.23.6Z" class="st0"/><path d="M289.43 61.8c-.17-.03-.42.05-.61.03v-.2c.26-.14.58.17.61.17M60.49 43.85l.03-.1zM60.49 43.85c-.05.33-.11.74-.16 1.03z" class="st0"/><path d="M74.7 75.46c-.13-.2-.52-.19-.62-.45-.15-.41.14-.84-.03-1.24-.05-.12-1.32-1.81-1.49-2.02-1.01-1.2-2.89-2.26-4.45-2.41-3.57-.34-5.66 2.24-8.17 4.19-.28.22-1.55.82-1.62.97-.22.45.35 1.17-.7 1.22l-3.47.17c-.17 0-.52.46-.49-.44.07-2.12 1.28-6.35 1.79-8.63 0-.07 0-.14.01-.21-.08-.21-.49-.19-.45-.28.09-.16.35-.23.5-.33.02-.15.04-.31.07-.46-.08-.29-.27-.61-.17-.98.09-.34.48-.55.71-.87.06-.13.11-.26.17-.39.11-.48.23-.96.34-1.45v-.24c-.1-.25-.53-.23-.65-.55.51-.04.69-.53.98-.87.11-.48.23-.96.34-1.45l-.14-.78.27.05c.02-.11.03-.22.05-.33-.07-.81-.53-2.25.06-2.53.13-.06.51.09.64 0v-.02l.03-.13c-.02-.08-.07-.18-.16-.33-.03-.04-.35-.03-.34-.13.02-.16.41-1.02.49-1.31.21-.73-.34-.81.64-.9.01-.06-.02-.14 0-.2-.64-.14-.3-1.39-.19-1.84.15-.61.21-.48.7-.23.01-.07-.02-.14 0-.2l-.67-1.19 1.01-.26c.13-.72-.45-.04-.64-.48-.21-.48.58-.29.8-.34v-.2c-.06-.47-.51-1.25-.49-1.61.01-.24.25-.31.39-.43.19-.15.39-.14.6-.23.01-.07-.02-.14 0-.2-.19-.44.09-.74.16-1.03.04-.18-.12-.51.18-.62.01-.07-.02-.14 0-.2.02-.15.06-.32.09-.47l.07-.36c.31-2.24 1.41-6.07-.29-7.96-.32-.36-2.35-2.15-2.58-1.19.46 2.36.72 4.67.48 7.06-.74 7.37-2.96 15.52-4.66 22.73-1 4.24-1.79 8.56-2.95 12.76-.54 1.95-2.22-.25-3.11-.81-4.54-2.82-10.32-3.41-15.58-3.18.89-11.6 2.91-23.1 4.34-34.65.62-2.31 1.84-2.72 3.12-4.4.71-.93 1.24-1.28.87-2.46-.27-.86-2.61-3.28-3.47-2.85-.94.47-1.83 4.54-2.43 5.62-1.49 2.69-9.19 7.29-11.87 9.54-.43.36-.93.63-.43 1.15.82.85 1.95 1.1 3.04.63 1.85-.79 4.75-3.71 6.53-5.01.23-.17 1.64-1.15 1.78-1.02l-3.82 33.36c-.72.21-1.87.45-2.65.53-.53.05-1.67.11-2.25.12-.47.01-2.45-.48-2.55.21-.23 1.6 5.54 4.64 7 5.02-.15 3.5.28 7.05-.23 10.52-.98 3.57-5.7 4.01-8.78 3.64-2.91-.35-7.95-2.19-10.36-3.87-1.48-1.03-.09-.93.27-1.39.16-.21.16-.88.61-1.1-.27-.11-1.33-1.05-1.42-1.06-.56-.08-2.1.57-2.82.73-.44.1-1.83-.06-1.9.43-.1.69 1.38 2.15 1.98 2.55 5.52 3.64 15.46 7.71 21.99 5.36 5.38-1.94 2.44-10.8 3.13-15.04 5.79 1.07 11.73.85 17.61.62.74 1.8 1.29 6.97 3.94 6.92 1.43-.03.07-2.32-.07-3.34-.07-.54-.24-3.68.16-3.81 2.03.09 4.28-.71 6.29-.48.79.09 1.82 1.04 2.82 1.2 2.88.45 7.28-1.65 10.25-2.03l2.11 1.12c.63-.03.1-2.4-.23-2.91ZM60.3 42.02l.15 1.01h-.2c-.02-.41-.36-.73.05-1.01M29.43 75.23l-.77-.13-1.74-.98c1.35-.34 3.08-.96 2.51 1.11m14.92 1.32c-2.93.08-5.86.23-8.79 0-.58-.05-3.45-.33-3.62-.75-.29-.73-.29-2.07.63-2.31.82-.22 2.7-.22 3.63-.22 3.88.01 8.07.84 11.3 3.04-.9.72-2.19.22-3.15.24m23.44-2.9c-1.48.51-2.9 1.47-4.59 1.4-.15-.52.15-.36.36-.55 1.97-1.76 4.62-3.58 7.29-2.17-.7 1.23-2.09.98-3.06 1.32M58.23 54.97V55v-.04ZM80.44 97.16c.02-.22.03-.45.04-.67zM81.15 86.48v-.2z" class="st0"/><path d="M85.97 71.4c-.35-.37-2.06-1.64-2.11-1.77-.38-.96 1.23-3.69.66-5.23-.17-.45-2.47-1.92-2.76-1.91-1.04.04-.42 1.25-.44 1.74-.05 1.23-.37 2.59-.42 3.84-1.13-.08-4.9-1.55-3.97.81.19.48 1.55 1.17 2.08 1.37.54.21 1.32-.08 1.42.61-.46 3.32-1.06 6.63-1.53 9.95-.22 1.59.46 1.6-1.09 2.72-1.29.93-5.93 3.2-7.4 3.07-.38-.03-.29-.31-.36-.34-.93-.45-1.3.81-.78 1.59 2.03 3.07 6.52-.44 9.05-1.02-.06 2.98-.53 5.96-.59 8.94-.12 5.28.28 11.69 1.48 16.86.31 1.35 1.37 4.2 3.25 3.66 1.34-.38.11-1.65-.12-2.37-.68-2.2-1.13-5.44-1.45-7.76-.35-2.52-.48-5.07-.57-7.65-.01-.35-.17-.9.15-1.13v-.2c-.04-.56.03-1.46-.08-1.93-.06-.24-.55-.02-.63-.08-.42-.3.43-.38.4-.73-.04-.52-.55-.99-.51-1.4.01-.15.48-.05.41-.44-.07-.38-.52-.49-.46-.9l1.21-.47c-.01-.14 0-.27-.02-.41-.03-.29.06-.75-.09-.97-.09-.14-.77-.24-.8-.62.07-.1.86-.18 1.01-.26-.01-.33-.16-.84.16-1.03 0-.07-.01-.14 0-.2.03-.64.01-.81.14-1.44.39-1.94.95-1.54 2.31-2.69 4.26-3.59 7.3-7.19 2.51-12.19Zm-5.96 25.37c.06-.14.35.1.22.4-.06.14-.35-.1-.22-.4m-.59-10.21v-.2c.13.06.13.13 0 .2m.73.17c.06-.14.35.1.22.4-.06.14-.35-.1-.22-.4m.55 1c-.57-.29-.17-.63.08-.41.02.01.1.43-.08.41m.2-6.56c-.03-.45-.17-1.06.35-1.24.03.45.17 1.06-.35 1.24m1.29-.89c-.46-.87.07-1.75.17-2.59.04-.37-.08-.79-.04-1.1-.06-.13-.11-.24-.14-.34-.1.05-.21.16-.24.12-.79-.71.05-1.22.38-2.03l.26.32s.04-.05.06-.07c.02-.21.11-.42.12-.62.03-.47-.98-.7.22-.68.05-.24.28-1.4.34-1.45.39-.31 1.3 1.2 1.44 1.53 1.34 2.98-.92 4.76-2.58 6.92ZM112.93 68.36c-.49.39-.62 2.19-.87 2.92-1.02 3.02-2.46 5.96-3.56 8.98-.1.04-.19.08-.26.12l-.24.11c.25-.6-.38-1.43-.93-1.56-1.51-.35-2.43 1.87-2.97-1.45-.6-3.71 1.63-8.58 4.25-11.14 1.29-1.26 3.23-2.7 5.12-2.08.56-2.65-3.09-3.54-5.08-2.37-4.3 2.52-8.61 11.39-6.76 16.15.76 1.94 2.34 3.75 4.56 3.76l1.94-.7c-2.77 7.89-6.24 18-7.67 26.16-.24 1.35-.44 2.75-.51 4.13.3.09.12-.81.59-.43.09.07.08.71.54.58.12-.03 1.12-1.21 1.22-1.43 1.21-2.75 1.96-7.88 2.9-11.04 1.22-4.1 2.67-8.48 4.05-12.54.76-2.25 5.06-14.82 6.74-15.38.57-.19 1.27.14 1.42-.88.15-1.06-3.47-2.7-4.47-1.9ZM100.98 69.51c-.55-2.16-4.19-2.46-4.37-2.94-.18-1.54 1.01-2.58-.12-3.94-.34-.41-2.13-1.65-2.59-1.3-.3.22-.52 5.85-1.34 7.28-.4.71-1 .98-1.35 1.9-.21.56-.75 3.04-.78 3.61-.03.73.42.65 1.02.61-.62 3.28-1 6.64-1.68 9.91-.41 1.99-.79 3.32-1.13 5.42-1.16 7.2-2.5 14.5-1.57 21.84.06.45.18 1.15.34 1.56.41 1.08 2 2.67 3.18 1.83.94-.67.03-.97-.23-1.64-1.63-4.18.08-20.32 1.48-24.97.97-3.21 4.88-8.03 6.64-11.35 1.16-2.19 3.12-5.32 2.49-7.81Zm-6.7 8.77c-.22.14-.3-.06-.23-.6.21-1.42.4-2.94.71-4.34.44-1.97.5-3.86 2.98-4.03.23 3.11-2 6.31-3.46 8.97" class="st0"/></svg>