<?xml version="1.0" encoding="UTF-8"?>
<svg id="_レイヤー_1" data-name="レイヤー_1" xmlns="http://www.w3.org/2000/svg" xmlns:xlink="http://www.w3.org/1999/xlink" version="1.1" viewBox="0 0 1125 50">
  <!-- Generator: Adobe Illustrator 30.0.0, SVG Export Plug-In . SVG Version: 2.1.1 Build 123)  -->
  <defs>
    <style>
      .st0 {
        fill: #f2eee4;
      }

      .st1, .st2, .st3, .st4, .st5, .st6, .st7, .st8, .st9, .st10, .st11 {
        fill: none;
      }

      .st12 {
        fill: #ceb372;
      }

      .st2 {
        stroke-width: .43px;
      }

      .st2, .st3, .st4, .st5, .st6, .st7, .st8, .st9, .st10 {
        stroke: #000;
        stroke-linecap: round;
        stroke-linejoin: round;
      }

      .st13, .st14, .st15 {
        fill: #1c1917;
      }

      .st16 {
        fill: #fff;
      }

      .st17 {
        fill: url(#_6_lpi_30_);
      }

      .st3 {
        stroke-width: .95px;
      }

      .st4 {
        stroke-width: .55px;
      }

      .st5 {
        stroke-width: .55px;
      }

      .st6 {
        stroke-width: .63px;
      }

      .st7 {
        stroke-width: .5px;
      }

      .st8 {
        stroke-width: .49px;
      }

      .st9 {
        stroke-width: .82px;
      }

      .st10 {
        stroke-width: .83px;
      }

      .st14 {
        stroke-width: .47px;
      }

      .st14, .st15 {
        stroke: #1c1917;
        stroke-miterlimit: 10;
      }

      .st15 {
        stroke-width: .23px;
      }

      .st11 {
        stroke: #231815;
        stroke-width: 3.6px;
      }
    </style>
    <pattern id="_6_lpi_30_" data-name="6 lpi 30%" x="0" y="0" width="72" height="72" patternTransform="translate(-5281.03 -10545.47) rotate(-90) scale(.31)" patternUnits="userSpaceOnUse" viewBox="0 0 72 72">
      <g>
        <rect class="st1" width="72" height="72"/>
        <g>
          <line class="st11" x1="71.75" y1="66" x2="144.25" y2="66"/>
          <line class="st11" x1="71.75" y1="42" x2="144.25" y2="42"/>
          <line class="st11" x1="71.75" y1="18" x2="144.25" y2="18"/>
          <line class="st11" x1="71.75" y1="54" x2="144.25" y2="54"/>
          <line class="st11" x1="71.75" y1="30" x2="144.25" y2="30"/>
          <line class="st11" x1="71.75" y1="6" x2="144.25" y2="6"/>
        </g>
        <g>
          <line class="st11" x1="-.25" y1="66" x2="72.25" y2="66"/>
          <line class="st11" x1="-.25" y1="42" x2="72.25" y2="42"/>
          <line class="st11" x1="-.25" y1="18" x2="72.25" y2="18"/>
          <line class="st11" x1="-.25" y1="54" x2="72.25" y2="54"/>
          <line class="st11" x1="-.25" y1="30" x2="72.25" y2="30"/>
          <line class="st11" x1="-.25" y1="6" x2="72.25" y2="6"/>
        </g>
        <g>
          <line class="st11" x1="-72.25" y1="66" x2=".25" y2="66"/>
          <line class="st11" x1="-72.25" y1="42" x2=".25" y2="42"/>
          <line class="st11" x1="-72.25" y1="18" x2=".25" y2="18"/>
          <line class="st11" x1="-72.25" y1="54" x2=".25" y2="54"/>
          <line class="st11" x1="-72.25" y1="30" x2=".25" y2="30"/>
          <line class="st11" x1="-72.25" y1="6" x2=".25" y2="6"/>
        </g>
      </g>
    </pattern>
  </defs>
  <g>
    <path class="st16" d="M44.79,42.69s18.45-21.41,19.14-22.25c.62-.75,1.35-1.37.73-2.32-2.08-3.21-4.16-6.42-6.24-9.64-.18-.28-.37-.57-.68-.73-.32-.17-.71-.17-1.07-.18-8.04,0-16.09-.02-24.13-.03-.34,0-.7,0-.99.17-.25.15-.4.4-.54.64-1.9,3.22-3.79,6.44-5.69,9.66-.18.3-.36.62-.31.95.04.29.24.54.43.77,6.2,7.46,19.35,22.95,19.35,22.95Z"/>
    <path class="st12" d="M40.15,7.6l-3.53,11.26-11.48-.04,6.37-10.82c.23-.41.7-.67,1.21-.66l7.44.27Z"/>
    <polygon class="st12" points="53.47 19.22 65 19.01 45.38 42.54 53.47 19.22"/>
    <path class="st3" d="M44.98,43.08s18.26-21.8,18.95-22.64c.62-.75,1.35-1.37.73-2.32-2.08-3.21-4.16-6.42-6.24-9.64-.18-.28-.37-.57-.68-.73-.32-.17-.71-.17-1.07-.18-8.04,0-16.09-.02-24.13-.03-.34,0-.7,0-.99.17-.25.15-.4.4-.54.64-1.9,3.22-3.79,6.44-5.69,9.66-.18.3-.36.62-.31.95.04.29.24.54.43.77,6.2,7.46,19.54,23.34,19.54,23.34Z"/>
    <path class="st6" d="M40.08,7.65l-3.37,11.22s7.67,22.98,8.05,23.72"/>
    <polyline class="st6" points="49.91 7.65 53.31 18.87 45.11 42.68"/>
    <path class="st6" d="M64.81,18.92c-12.85,0-39.54.06-39.77.05"/>
  </g>
  <g>
    <g>
      <path class="st16" d="M154.95,28.9c-.1.56-.19,1.12-.29,1.69-.23,1.4-.44,2.78-.63,4.15.13.49-1.16,3.97-1.92,5.15-1.03,1.59-2.44,2.76-4.1,3.63-1.97,1.03-4.05,1.68-6.26,1.95-1.02.13-5.6.19-7.13-.1-1.93-.36-3.81-.88-5.57-1.75-1.22-.6-4.78-3.58-5.85-5.65-.53-1.02-1.57-10.08-1.61-10.31-.13-1.27-.45-5.89,2.6-10.29,3.37-4.85,8.46-6.01,10-6.28,9.5-1.69,16.26,6.45,16.63,6.91,3.42,4.26,4,8.92,4.13,10.89Z"/>
      <path d="M129.51,8.62c-3.37.3-4.91,1.77-5.75,2.41-3.33,2.56-4.27,6.24-4.79,9.62-.25,1.67-.36,4.58,1.12,6.26.33.38,1.09.6,1.44.18.66-.81.57-1.81,1.41-3.04,1.18-1.73,1.55-1.95,2.96-3.3,3.06-2.92,3.82-6.72,3.82-6.72,1.06,1.92,2.18,3.32,3.03,4.25,1.63,1.79,2.91,2.59,4.06,3.06.34.14,1.79.73,2.11.31.07-.1.22-.31-.07-.72-.35-.49-.6-1.03-1.09-1.96-.51-.96-.92-1.87-.76-1.98.19-.13,1.14,1.26,3.22,3.01.76.64,1.74,1.35,3.15,1.88,2.05.77,4.09.73,4.99.71,1.53-.04,2.06-.29,3.07.08,1.17.43,1.89,1.24,2.15,1.61,1.13,1.62,1.25,3.01,1.25,3.01l.22,1.17c.06.38,1.13.46,1.62.36,1.06-.22,1.75-4.66,1.03-8.56-.93-4.99-4.41-11.14-10.85-14.02,0,0-5.53-2.47-11.38-1.1-1.19.28-3.47,1-4.74,2.35-.39.41-1,.86-1.19,1.13Z"/>
      <path class="st16" d="M121.55,28.15c-.53-.28-1.36-.45-1.99-.07-1.02.61-1.05,2.4-.59,3.56.7,1.76,2.88,2.94,3.78,2.39,1.19-.72.83-4.81-1.21-5.88Z"/>
      <path class="st16" d="M154.88,29.38c.55-.24,1.39-.35,1.99.07.97.68.87,2.47.32,3.6-.83,1.71-3.08,2.72-3.94,2.1-1.13-.81-.48-4.86,1.64-5.77Z"/>
      <path d="M154.49,33.76c-.62,4.19-2.41,8.38-6.61,10.29-7.72,4.1-22.61,2.68-25.66-6.81-.48-1.93-.84-3.76-.85-5.77,0-.26.22-.47.48-.47.23,0,.42.17.46.39.33,1.79.8,3.69,1.26,5.48,3.1,9.92,22.5,11.02,28.15,2.98,1.26-1.81,1.81-4.07,2.29-6.18.03-.33.57-.24.48.09h0Z"/>
      <path d="M141.01,29.09c-.02,5.58,9.64,6.29,10.32.7.01-5.71-9.5-6.23-10.32-.7h0ZM140.19,29.03c1-6.2,11.47-5.58,11.46.78-.79,6.25-11.41,5.53-11.46-.78h0Z"/>
      <path d="M136.11,28.43c1.32-.25,2.7-.11,3.97.31.15.04.09.28-.07.24-1.25-.32-2.55-.39-3.8-.07-.32.09-.43-.42-.1-.47h0Z"/>
      <path d="M135.91,29.68c-1.13,5.3-10.32,5.07-11.42-.16-.63-3.66,3.79-6.1,6.87-5.33,2.59.43,4.89,2.77,4.55,5.49h0ZM135.64,29.64c.41-6.58-10.65-6.71-10.37-.21.95,4.76,9.36,4.99,10.37.21h0Z"/>
      <path d="M120.3,27.57c-1.71.1-2.23,2.31-1.53,3.61.42,1.1,2.02,2.47,3.06,2.19.92-.54,1.75.87.83,1.41-2.14.76-4.16-1.48-4.64-3.34-.55-1.56.37-4.04,2.28-3.87h0Z"/>
      <path d="M157.41,28.82c2.75,2.29-.13,7.22-3.38,6.64-.17-.06-.09-.32.08-.27,2,.24,3.93-2.15,3.69-4.07-.1-.62-.43-1.31-.88-1.6-.48-.32.03-1.05.49-.7h0Z"/>
      <path d="M134.87,38.98c1.67,1.12,3.97,1.28,5.72.25.07-.04.16-.02.21.05.04.06.02.15-.03.2-1.71,1.39-4.51,1.28-6.12-.22-.16-.15.05-.41.23-.28h0Z"/>
      <path d="M155.02,28.83c-.56.09-1.45.46-2,.68,0,0-.71.31-.71.31-.54.23-.89-.58-.36-.82.46-.14,1.11-.35,1.57-.43.57-.08,1.02-.31,1.66-.2.33.1.18.54-.15.46h0Z"/>
      <path d="M121.61,27.37c1.07.05,2.09.38,3.07.64.22.06.35.28.29.5-.06.24-.34.37-.57.26-.94-.44-1.84-.92-2.83-1.15-.15-.03-.12-.26.03-.25h0Z"/>
      <path d="M137.66,30.02c.13.94-.24,1.86-.77,2.62-.23.38-.23.49.13.68.28.17.78.16,1.23.25.13.02.22.15.19.28-.02.13-.15.21-.27.2-.45-.02-.99.02-1.42-.21-.22-.12-.51-.32-.57-.71-.04-.37.16-.63.33-.81.71-.57,1.11-1.37,1.03-2.29,0-.08.11-.09.12,0h0Z"/>
      <path class="st8" d="M137.84,36.84c-.06.49-.06.98-.08,1.46"/>
      <path class="st8" d="M141.33,36.97c-.05.49.19.88.42,1.28"/>
      <path class="st8" d="M136.12,36.89c0,.31-.15.58-.23.87-.04.14-.06.27-.07.41"/>
      <path class="st8" d="M139.51,37.14c.07.27.12.55.19.83.02.08.03.2.17.14"/>
      <path class="st8" d="M134.4,36.77c0,.34-.24.58-.36.87-.06.15-.18.28-.16.46"/>
      <path class="st8" d="M119.85,15.09"/>
    </g>
    <path class="st16" d="M134.84,7.62c10.64-4.66,18.82,2.84,21.56,12.89.06.2-.26.3-.32.09-2.76-9.85-10.83-16.58-21.24-12.98h0Z"/>
    <path class="st16" d="M139.56,16.78c2.85,3.46,7.42,4.35,11.7,4.34.06,0,.07.1,0,.1-4.29.54-9.38-.46-11.89-4.3-.08-.11.09-.25.18-.14h0Z"/>
  </g>
  <g>
    <path class="st16" d="M231.34,5.33c-9.36-.12-17,6.73-19.17,14.36-2.16,7.57.67,16.32,6.86,21.19s15.37,5.54,22.2,1.62c6.83-3.92,10.87-12.21,9.73-20-1.22-8.34-7.96-17.21-19.57-17.16"/>
    <path class="st12" d="M211.34,25.41s.9,6.12,1.38,7.17,4.31,6.67,5.57,7.77,5.46,3.68,7.72,4.1,5.31.63,5.31.63l-.14-7.06-9-3.6-3.67-8.97-7.16-.04Z"/>
    <path class="st10" d="M231.34,5.33c-9.36-.12-17,6.73-19.17,14.36-2.16,7.57.67,16.32,6.86,21.19s15.37,5.54,22.2,1.62c6.83-3.92,10.87-12.21,9.73-20-1.22-8.34-7.96-17.21-19.57-17.16"/>
    <path class="st5" d="M218.65,26.05c.39.84.48,1.09.84,1.93.89,2.07,1.73,4.16,2.6,6.23"/>
    <path class="st5" d="M221.63,35.26c-1.68,1.68-2.58,2.49-4.25,4.16"/>
    <path class="st5" d="M218.66,24.92c.59-1.47,1.22-2.93,1.82-4.4.52-1.3,1.11-2.57,1.57-3.88.09-.25.27-.4.54-.52,2.83-1.16,5.66-2.32,8.47-3.52.17-.07.31-.09.51-.01,2.86,1.16,5.69,2.38,8.56,3.53.26.1.4.27.5.51.93,2.3,1.88,4.58,2.84,6.86.26.61.47,1.25.77,1.84-.71,1.83-1.48,3.63-2.23,5.45-.52,1.24-1.03,2.5-1.54,3.74-2.68,1.12-5.37,2.21-8.04,3.34-.61.26-1.14.5-1.89.13-1.48-.72-3.03-1.3-4.56-1.92-1.25-.51-1.98-.69-3.27-1.18"/>
    <path class="st5" d="M211.96,25.42c2.18,0,3.74-.01,5.92.01"/>
    <path class="st5" d="M251.34,25.42c-2.18,0-4.08.01-6.26-.01"/>
    <path class="st5" d="M240.82,34.85c1.54,1.57,3.11,3.12,4.66,4.68"/>
    <path class="st5" d="M231.34,5.38v7.09"/>
    <path class="st5" d="M231.34,38.62v5.25"/>
    <path class="st5" d="M245.48,11.28c-1.66,1.66-3.33,3.33-4.99,4.99"/>
    <path class="st5" d="M217.64,11.73c1.66,1.66,2.93,2.88,4.59,4.54"/>
  </g>
  <g>
    <path class="st16" d="M345.55,15.83c.31.33.51.59.77.87,0,0,.5.61.91,1.25,1.67,2.56,1.87,6.88,1.87,6.88.05,1.12,0,2.17-.1,3.14-.07.59,1.98-.53,2.37-.17,1.29,1.23.92,3.96.12,5.05-.98,1.33-2.87,2.15-4.04,1.07-.75,1.74-2.49,5.78-6.73,8.58-8.09,5.36-17.56,1.12-18.29.78-2.1-.98-3.87-1.79-5.3-3.69-1.52-2.02-1.41-3.62-3.24-4.69-1.7.35-2.8-.29-3.72-1.42-.8-.98-.84-2.6-.26-3.71.75-1.42,1.96-.95,2.73-2.24.79-1.32-.22-2.16.03-5.93.11-1.59.51-3.12,1.58-4.77.87-1.34,1.9-2.19,2.86-2.97.52-.43,1.51-1.23,2.95-1.97,1.08-.56,2.85-1.3,5.21-1.59,1.1-.14,2.59-.39,4.39-.39,0,0,8.31,1.08,10.05,1.83s5.85,4.09,5.85,4.09Z"/>
    <path class="st12" d="M350.36,26.27c-.34.15-1.32,0-1.72-.06-.26-.04-.46-.08-.54-.1-.47-.11-.83-.24-1.04-.32-3.92-1.49-5.73-2.49-5.73-2.49-3.01-1.66-4.52-2.49-6.14-4.22-1.57-1.68-2.44-3.31-2.89-4.16-.01-.02-.02-.05-.04-.07-.75-1.43-2.77-1.37-3.46.09-.2.42-.37.79-.49,1.07-2.07,4.85-5.86,7.72-10.61,9.74-2.58,1.1-5.49,2.7-6.59,1.6-1.11-1.11-.41-5,.23-7.6.29-1.17-.5-2.35-1.68-2.46-1.25-.12-2.74-.48-3.74-1.38-1.66-1.5-1.41-4.16-1.36-4.57.35-3.12,3.16-5.55,6.04-6.03,2.79-.46,6.16.81,6.85,2.93.06.17-.02.39.13.56.61.72,3.14-.53,4.11-.97,3.58-1.61,7.7-1.95,10.3-1.66,2.45.27,7.47,1.54,10.4,3.54.37.25,1.52,1.07,2.49.7.73-.28.76-1.17,1.26-1.67,1.58-1.57,4.72-2.97,7.59-1.55,3.12,1.55,4.1,5.53,3.22,8.21-.72,2.2-2.68,3.51-3.01,3.72-1.07.69-1.6.99-2.16,1.22-.86.35-1.37,1.25-1.21,2.18.27,1.54.41,3.48-.21,3.76Z"/>
    <path d="M347.53,34.17c1.81.35,3.67-.92,4.37-2.59.87-1.83.34-4.18-2.11-3.61-.73-.31,1.16-.48,1.5-.31,1.75.48,1.69,2.8,1.11,4.13-.72,1.85-2.99,3.81-5.05,2.85-.24-.14-.09-.53.18-.47h0Z"/>
    <path d="M327.02,10.48c-.19,6.75-6.32,12.72-12.96,13.28-.07,0-.09-.11-.01-.12,6.43-1.04,11.99-6.68,12.72-13.17,0-.16.27-.15.26.01h0Z"/>
    <path d="M334.66,10.68c2.33,5.6,7.37,11.27,13.7,11.86.02,0,.02.03,0,.03-6.37.19-12.28-6-13.91-11.83-.03-.13.17-.19.21-.06h0Z"/>
    <path d="M323.36,11.06c-.36,4.42-5.25,8.9-9.57,9.5-.16.02-.22-.22-.06-.26,4.1-1.28,8.49-4.94,9.42-9.26.01-.12.2-.11.2.01h0Z"/>
    <path d="M327.72,36.14c-.8.14-1.68.31-2.54-.08-.96-.4-1.06-1.77-.34-2.45.26-.32.71-.42.97-.74.21-.26.29-.63.32-1.02.03-1.11.16-3.2.15-4.29-.02-.15-.14-.28-.21-.35-2.04-.85-4.92-.27-7.12-.05-.06.01-.09-.09-.02-.11,1.6-.47,3.25-.74,4.93-.8,1.27-.05,3.32.1,2.95,1.9-.03.79-.12,2.92-.15,3.73-.04.42-.13.91-.45,1.3-.27.35-.71.44-1,.75-1.33,1.82,1.1,2.21,2.51,2.05.08,0,.1.13.01.14h0Z"/>
    <path d="M315.12,14.54c1.11-2.3.02-5.02-2.17-6.21-.14-.07-.03-.3.12-.22,2.38,1.09,3.58,4.21,2.22,6.51-.05.1-.21.02-.16-.08h0Z"/>
    <path d="M347.33,17.58c2.24.58,4.54-.79,6.13-2.29.05-.06.15.02.1.08-1.4,1.82-4,2.99-6.26,2.31-.07-.02-.04-.13.04-.11h0Z"/>
    <path d="M340.06,11.9c.86,3.53,4.16,6.14,7.34,7.55.02,0,.01.03,0,.03-3.26-.97-7.51-3.79-7.55-7.57,0-.12.19-.13.22-.01h0Z"/>
    <path d="M308.92,9.91c-.57,3.06,1.51,5.99,4.54,6.5.18.02.15.3-.03.29-3.32-.03-5.92-3.72-4.7-6.83.04-.1.2-.06.18.05h0Z"/>
    <path d="M311.66,28.71c-2.86.33-2.43,4.79-.18,5.64.81.33,1.76-.01,2.43.37.18.08.28.31.14.48-.43.51-.97.37-1.45.36-1.56-.06-2.92-1.11-3.38-2.6-.53-1.81.32-4.33,2.42-4.4.11,0,.12.15.02.16h0Z"/>
    <path d="M353.54,10.5c-1.63,2.6-4.63,4.63-7.44,5.63,2.58-1.59,5.44-3.22,7.31-5.71.05-.08.18,0,.13.08h0Z"/>
    <path d="M347.98,32.61c-1.55,6.3-7.04,11.49-13.44,12.58-6.35.96-13.48-.81-17.98-5.57-3.04-3.22-4.54-7.67-4.65-12.07,0-.4.31-.73.71-.74.41-.01.75.33.74.74-.11,4.1,1.1,8.35,3.84,11.5,5.51,6.12,16.08,7.86,23.13,3.46,3.56-2.25,6.35-5.84,7.34-9.96.03-.2.37-.13.31.07h0Z"/>
    <path class="st7" d="M350.08,9.6c-1.84,1.04-3.55,2.26-4.22,4.6"/>
    <path d="M310.41,8.35c1.49,2.32,2.66,4.81,3.74,7.34.02.06,0,.13-.06.15-.75-.66-1.58-2.64-2.19-3.62-.14-.35-2.48-4.45-1.49-3.87h0Z"/>
    <path d="M333.16,39.17c-2.39,1.65-5.98,1.99-8.38.19-.08-.06-.1-.16-.04-.24.05-.07.14-.09.21-.06,2.52,1.27,5.6,1.4,8.08-.08.12-.08.25.11.13.19h0Z"/>
    <ellipse class="st13" cx="322.61" cy="30.47" rx="1.12" ry=".67" transform="translate(257.48 347.91) rotate(-83.8)"/>
    <ellipse class="st13" cx="336.5" cy="31.3" rx="1.12" ry=".67" transform="translate(269.05 362.45) rotate(-83.8)"/>
    <path d="M339.95,28.18c-1.36-1.07-3.32-.97-4.93-.67-.14.03-.27-.06-.29-.2-.03-.13.05-.25.18-.29,1.34-.35,2.79-.31,4.06.22.29.12,1.18.61,1.09.94-.03.02-.08.02-.11,0h0Z"/>
  </g>
  <g>
    <path class="st16" d="M537.59,24.39c.14.47.48,2.1.62,2.9,1.66-1.2,3.25-.97,3.82-.36s1.26,2.41.79,3.71c-.32.87-1.27,2.92-5.51,4.36-.28,1.78-.32,1.49-1,3.08-.54,1.28-2.41,4.26-6.09,5.98-3.44,1.61-6.59,1.12-9.15.73-2.83-.44-6.97-1.08-9.41-4.33-1.06-1.41-1.29-2.21-1.99-5.21-.75-.05-3.34-.66-4-1.31-1.14-1.12-1.92-3.47-1.97-3.97-.12-1,.09-3.26,1.75-3.46,1.94-.23,3.08.33,3.07.08,0,0,.36-2.43,2.23-3.31,1.88-.88,13.87-2.6,19.65-1.31,6.53,1.47,7.18,2.41,7.18,2.41Z"/>
    <path class="st14" d="M522.62,6.26s-1.9-1.11-4.64-.77c-4.12.52-9.44,4.53-11.39,9.69-1.64,4.33-1.92,10.03-.12,10.83.23.1.58.55,1.3.63.87.1.8.1,1.24-.01.74-.19,1.02-.82,1.02-.82,0,0,.61.13,1.4-.5.31-.24.74-.71.78-.94,0,0,.34.28.99.11.71-.19,1.18-.23,1.82-.88.65.48,1.16.27,2.21.3,1.4.04,1.89.04,2.74-.29.92.26,1.22.21,2.37.36,1.59.2,2.57.12,3.28-.41.88.11,2.12.76,3.62.74,1.35-.03,2.2-.5,2.61-.64.49.43,1.19.65,1.92.7.75.05,1.59-.08,1.67-.39.35.52.56.63.97.38.3.75.88,2.98,1.75,3.04,1.33.1,2.62-1.91,2.88-2.93,1.05-4.14-.68-8.6-1.82-10.76-.92-1.74-2-3.8-4.36-5.62-.92-.71-4.28-3.31-8.75-2.83-1.52.16-2.72.63-3.49,1Z"/>
    <path class="st13" d="M508.76,26.58c.48,1,.37,2.01.5,3.02.33,2.99.92,6.05,1.84,8.91,2.2,5.57,10.34,6.9,15.65,6.31,4.07-.44,7.81-3,9.46-6.78.8-1.88,1.22-3.9,1.49-5.93,0-.07.07-.11.13-.1.07,0,.11.07.1.14-.3,2.04-.75,4.06-1.53,5.98-1.66,3.88-5.48,6.47-9.6,7.07-4.11.65-8.42-.03-12.18-1.79-2.97-1.35-4.72-4.43-5.26-7.57-.28-.83-2.33-10.34-.61-9.25h0Z"/>
    <path class="st13" d="M538.88,26.77c.75-1.23,2.56-.84,3.44.04,2.88,2.75-.85,7.53-4.12,7.72-.06,0-.08-.09-.02-.11,2.18-.48,3.8-2.26,4.36-4.36.29-1.01.07-2.04-.73-2.66-.74-.58-1.74-.93-2.58-.32-.2.15-.48-.11-.34-.32h0Z"/>
    <path class="st13" d="M508.06,27.48c-.91-.56-1.9-.75-2.8-.11-1.97,1.25-1.22,4.38.21,5.84.81.83,1.93,1.38,3.1,1.61.13.02.21.14.19.27-.02.12-.14.2-.26.19-1.27-.17-2.53-.67-3.52-1.57-2.73-2.37-2.67-7.76,1.67-8.04.84.06,2.9.44,2.43,1.54-.19.39-.69.51-1.04.27h0Z"/>
    <path class="st13" d="M523.27,32.4c.15.6-.12,1.42-.72,1.74-.64.31-.19.93.3,1.13.16.07.91.22.54.44-.95.28-2.24-.55-1.7-1.59.21-.44.65-.48.94-.78.22-.22.33-.56.4-.94.02-.13.22-.13.24,0h0Z"/>
    <path class="st13" d="M531.74,26.91c-1.14-.68-2.44-.84-3.7-.48-.01-.01,0,.02.05-.1-.07.3-.53.18-.45-.11.09-.22.11-.16.22-.26,1.3-.79,3.25-.66,4.2.6.16.2-.1.48-.32.35h0Z"/>
    <path class="st13" d="M518.52,26.75c-1.26-.23-2.38-.12-3.53.44-.12.05-.26,0-.31-.12-.04-.09-.02-.19.04-.25.96-1.08,2.8-1.32,3.99-.49.21.14.06.49-.18.43h0Z"/>
    <ellipse class="st13" cx="517.3" cy="31.02" rx="1.07" ry=".64" transform="translate(469.54 547.04) rotate(-88.14)"/>
    <ellipse class="st13" cx="528.98" cy="30.64" rx="1.07" ry=".64" transform="translate(481.22 558.35) rotate(-88.14)"/>
    <path class="st13" d="M521.06,37.9c1.35,1.77,4.16,1.76,5.44-.08.08-.11.23-.13.33-.05.1.08.12.22.05.32-1.44,2.16-4.66,2.17-6.19.09-.19-.24.19-.53.37-.28h0Z"/>
    <ellipse class="st13" cx="515.14" cy="36.05" rx=".38" ry=".48" transform="translate(-.82 57.24) rotate(-6.36)"/>
    <ellipse class="st13" cx="517.43" cy="35.86" rx=".35" ry=".41" transform="translate(-.79 57.5) rotate(-6.36)"/>
    <ellipse class="st13" cx="516.43" cy="37.84" rx=".38" ry=".42" transform="translate(-1.01 57.4) rotate(-6.36)"/>
    <ellipse class="st13" cx="532.65" cy="34.99" rx=".48" ry=".38" transform="translate(448.33 562.09) rotate(-84.67)"/>
    <ellipse class="st13" cx="530.15" cy="35.63" rx=".41" ry=".35" transform="translate(445.42 560.18) rotate(-84.67)"/>
    <ellipse class="st13" cx="531.57" cy="37.37" rx=".42" ry=".38" transform="translate(444.98 563.17) rotate(-84.67)"/>
    <path class="st16" d="M509.6,26.56c-1.31-6.27.67-13.11,5.5-17.38.07-.06.18.04.11.11-4.5,4.32-6.19,11.05-4.68,17.03.18.62-.79.88-.93.24h0Z"/>
    <path class="st16" d="M514.78,24.78c-.24-.33-.23-.7-.27-1.06-.51-5.28-.11-11.42,3.96-15.29.09-.09.24.05.14.14-3.74,4-4.01,9.89-3.36,15.06.07.33.19,1.63-.48,1.14h0Z"/>
    <path class="st16" d="M506.68,24.04c-1.08-5.39.98-11.3,5.2-14.83.06-.05.16.04.1.1-2.79,2.9-4.64,6.67-5.08,10.68-.15,1.33-.17,2.68-.04,4.02.01.1-.15.13-.17.03h0Z"/>
    <path class="st16" d="M519.74,24.51c-1.19-5.01-1.21-10.39,1.02-15.11.03-.06.1-.09.16-.06.06.03.09.1.06.16-1.42,3.52-1.82,7.38-1.21,11.11.24,1.26.55,2.49.82,3.74.12.57-.75.75-.86.17h0Z"/>
    <path class="st16" d="M525.37,24.49c-.41-1.35-.77-2.87-1.08-4.25-.18-.97-.42-3.33-.56-4.34-.04-.98,0-1.95,0-2.92,0-.08.13-.09.14,0,0,0,.42,2.85.42,2.85l.65,2.81c.39,1.89,1.06,3.69,1.47,5.58.15.66-.84.92-1.03.27h0Z"/>
    <path class="st16" d="M530.96,24.43l-.72-3.86c-.62-3.91-2-7.59-3.32-11.32,1.1,2.08,2.16,4.89,3.05,7.31.75,2.18,1.48,5.42,2.08,7.67.18.75-.99.96-1.08.19h0Z"/>
    <path class="st16" d="M535.11,24.8c0-4.98-1.62-9.84-4.61-13.82-.08-.11.1-.25.18-.12.68,1.04,1.44,2.03,2.01,3.15,1.74,3.2,2.77,7.09,3.58,10.63.18.84-1.11,1.02-1.16.16h0Z"/>
  </g>
  <g>
    <path class="st16" d="M420.56,8.01c-.94.26-9.7,16.42-9.7,16.42,0,0,6.72,13.13,9.31,17.51.21.35.53.54.94.54,6.24,0,12.48,0,18.72,0,.45,0,.79-.24.99-.61,3.05-5.41,6.23-10.75,9.31-16.14.22-.38.24-.78.02-1.15-3.11-5.36-6.14-10.76-9.29-16.09-.31-.53-.71-.67-1.32-.67-6.12,0-18.95.15-18.95.15"/>
    <path class="st12" d="M440.46,8.17l-4.27,7.22c-.08.14-.08.31,0,.46l5.13,9.07c.08.15.24.24.41.23l7.02-.16c.35,0,1.82.3,1.65,0l-8.69-14.89c-.18-.3-1.08-2.22-1.26-1.92Z"/>
    <polygon class="st12" points="410.42 25.15 420.25 42.28 440.39 42.59 436.13 34.9 424.66 35 418.89 25.39 410.42 25.15"/>
    <path class="st9" d="M420.56,8.01c-.94.26-10.11,17.07-10.11,17.07,0,0,1.49,2.64,2.08,3.66,2.55,4.4,5.05,8.82,7.64,13.2.21.35.53.54.94.54,6.24,0,12.48,0,18.72,0,.45,0,.79-.24.99-.61,3.05-5.41,6.23-10.75,9.31-16.14.22-.38.24-.78.02-1.15-3.11-5.36-6.14-10.76-9.29-16.09-.31-.53-.71-.67-1.32-.67-6.12,0-12.25,0-18.37,0-.21,0-.4.03-.58.15"/>
    <path class="st4" d="M424.94,15.38c-1.22-2.05-2.87-4.77-4.04-6.85-.05-.09-.11-.19-.17-.28"/>
    <path class="st4" d="M441.86,25.16c-.07-.19-.21-.34-.31-.51-.74-1.3-1.49-2.59-2.24-3.88-1.03-1.78-3.18-5.48-3.18-5.48h-11.04c-.18,0-.35.1-.44.25,0,0-1.92,3.32-2.8,4.83-.93,1.6-1.83,3.21-2.78,4.78.07.1,5.12,8.88,5.63,9.68.09.14,11.44.15,11.53,0,.13-.21,2.76-4.76,3.96-6.82.49-.85,1.66-2.85,1.66-2.85Z"/>
    <path class="st4" d="M450.25,25.16c-2.68,0-5.52-.04-8.19-.05"/>
    <path class="st4" d="M440.38,8.01c-1.19,2-3.05,5.25-4.23,7.26"/>
    <path class="st4" d="M419.05,25.16c-2.79,0-5.57,0-8.36,0"/>
    <path class="st4" d="M424.78,35c-1.06,1.86-2.14,3.71-3.21,5.57-.32.56-.66,1.12-.97,1.7"/>
    <path class="st4" d="M436.2,34.94c.93,1.62,2.07,3.72,3,5.34.38.67.78,1.32,1.14,2"/>
  </g>
  <g>
    <path class="st16" d="M615.97,42.69s18.45-21.41,19.14-22.25c.62-.75,1.35-1.37.73-2.32-2.08-3.21-4.16-6.42-6.24-9.64-.18-.28-.37-.57-.68-.73-.32-.17-.71-.17-1.07-.18-8.04,0-16.09-.02-24.13-.03-.34,0-.7,0-.99.17-.25.15-.4.4-.54.64-1.9,3.22-3.79,6.44-5.69,9.66-.18.3-.36.62-.31.95.04.29.24.54.43.77,6.2,7.46,19.35,22.95,19.35,22.95Z"/>
    <path class="st12" d="M611.33,7.6l-3.53,11.26-11.48-.04,6.37-10.82c.23-.41.7-.67,1.21-.66l7.44.27Z"/>
    <polygon class="st12" points="624.65 19.22 636.18 19.01 616.56 42.54 624.65 19.22"/>
    <path class="st3" d="M616.16,43.08s18.26-21.8,18.95-22.64c.62-.75,1.35-1.37.73-2.32-2.08-3.21-4.16-6.42-6.24-9.64-.18-.28-.37-.57-.68-.73-.32-.17-.71-.17-1.07-.18-8.04,0-16.09-.02-24.13-.03-.34,0-.7,0-.99.17-.25.15-.4.4-.54.64-1.9,3.22-3.79,6.44-5.69,9.66-.18.3-.36.62-.31.95.04.29.24.54.43.77,6.2,7.46,19.54,23.34,19.54,23.34Z"/>
    <path class="st6" d="M611.25,7.65l-3.37,11.22s7.67,22.98,8.05,23.72"/>
    <polyline class="st6" points="621.09 7.65 624.49 18.87 616.29 42.68"/>
    <path class="st6" d="M635.99,18.92c-12.85,0-39.54.06-39.77.05"/>
  </g>
  <g>
    <path class="st16" d="M797.83,5.33c-9.36-.12-17,6.73-19.17,14.36s.67,16.32,6.86,21.19,15.37,5.54,22.2,1.62c6.83-3.92,10.87-12.21,9.73-20-1.22-8.34-7.96-17.21-19.57-17.16"/>
    <path class="st12" d="M777.83,25.41s.9,6.12,1.38,7.17,4.31,6.67,5.57,7.77,5.46,3.68,7.72,4.1,5.31.63,5.31.63l-.14-7.06-9-3.6-3.67-8.97-7.16-.04Z"/>
    <path class="st10" d="M797.83,5.33c-9.36-.12-17,6.73-19.17,14.36s.67,16.32,6.86,21.19,15.37,5.54,22.2,1.62c6.83-3.92,10.87-12.21,9.73-20-1.22-8.34-7.96-17.21-19.57-17.16"/>
    <path class="st5" d="M785.15,26.05c.39.84.48,1.09.84,1.93.89,2.07,1.73,4.16,2.6,6.23"/>
    <path class="st5" d="M788.12,35.26c-1.68,1.68-2.58,2.49-4.25,4.16"/>
    <path class="st5" d="M785.16,24.92c.59-1.47,1.22-2.93,1.82-4.4.52-1.3,1.11-2.57,1.57-3.88.09-.25.27-.4.54-.52,2.83-1.16,5.66-2.32,8.47-3.52.17-.07.31-.09.51-.01,2.86,1.16,5.69,2.38,8.56,3.53.26.1.4.27.5.51.93,2.3,1.88,4.58,2.84,6.86.26.61.47,1.25.77,1.84-.71,1.83-1.48,3.63-2.23,5.45-.52,1.24-1.03,2.5-1.54,3.74-2.68,1.12-5.37,2.21-8.04,3.34-.61.26-1.14.5-1.89.13-1.48-.72-3.03-1.3-4.56-1.92-1.25-.51-1.98-.69-3.27-1.18"/>
    <path class="st5" d="M778.46,25.42c2.18,0,3.74-.01,5.92.01"/>
    <path class="st5" d="M817.83,25.42c-2.18,0-4.08.01-6.26-.01"/>
    <path class="st5" d="M807.31,34.85c1.54,1.57,3.11,3.12,4.66,4.68"/>
    <path class="st5" d="M797.83,5.38v7.09"/>
    <path class="st5" d="M797.83,38.62v5.25"/>
    <path class="st5" d="M811.98,11.28c-1.66,1.66-3.33,3.33-4.99,4.99"/>
    <path class="st5" d="M784.13,11.73c1.66,1.66,2.93,2.88,4.59,4.54"/>
  </g>
  <g>
    <path class="st16" d="M979.02,8.01c-.94.26-9.7,16.42-9.7,16.42,0,0,6.72,13.13,9.31,17.51.21.35.53.54.94.54,6.24,0,12.48,0,18.72,0,.45,0,.79-.24.99-.61,3.05-5.41,6.23-10.75,9.31-16.14.22-.38.24-.78.02-1.15-3.11-5.36-6.14-10.76-9.29-16.09-.31-.53-.71-.67-1.32-.67-6.12,0-18.95.15-18.95.15"/>
    <path class="st12" d="M998.91,8.17l-4.27,7.22c-.08.14-.08.31,0,.46l5.13,9.07c.08.15.24.24.41.23l7.02-.16c.35,0,1.82.3,1.65,0l-8.69-14.89c-.18-.3-1.08-2.22-1.26-1.92Z"/>
    <polygon class="st12" points="968.87 25.15 978.7 42.28 998.85 42.59 994.58 34.9 983.11 35 977.34 25.39 968.87 25.15"/>
    <path class="st9" d="M979.02,8.01c-.94.26-10.11,17.07-10.11,17.07,0,0,1.49,2.64,2.08,3.66,2.55,4.4,5.05,8.82,7.64,13.2.21.35.53.54.94.54,6.24,0,12.48,0,18.72,0,.45,0,.79-.24.99-.61,3.05-5.41,6.23-10.75,9.31-16.14.22-.38.24-.78.02-1.15-3.11-5.36-6.14-10.76-9.29-16.09-.31-.53-.71-.67-1.32-.67-6.12,0-12.25,0-18.37,0-.21,0-.4.03-.58.15"/>
    <path class="st4" d="M983.39,15.38c-1.22-2.05-2.87-4.77-4.04-6.85-.05-.09-.11-.19-.17-.28"/>
    <path class="st4" d="M1000.31,25.16c-.07-.19-.21-.34-.31-.51-.74-1.3-1.49-2.59-2.24-3.88-1.03-1.78-3.18-5.48-3.18-5.48h-11.04c-.18,0-.35.1-.44.25,0,0-1.92,3.32-2.8,4.83-.93,1.6-1.83,3.21-2.78,4.78.07.1,5.12,8.88,5.63,9.68.09.14,11.44.15,11.53,0,.13-.21,2.76-4.76,3.96-6.82.49-.85,1.66-2.85,1.66-2.85Z"/>
    <path class="st4" d="M1008.7,25.16c-2.68,0-5.52-.04-8.19-.05"/>
    <path class="st4" d="M998.83,8.01c-1.19,2-3.05,5.25-4.23,7.26"/>
    <path class="st4" d="M977.5,25.16c-2.79,0-5.57,0-8.36,0"/>
    <path class="st4" d="M983.23,35c-1.06,1.86-2.14,3.71-3.21,5.57-.32.56-.66,1.12-.97,1.7"/>
    <path class="st4" d="M994.66,34.94c.93,1.62,2.07,3.72,3,5.34.38.67.78,1.32,1.14,2"/>
  </g>
  <g>
    <path d="M720.35,26.39c0-.15-.07-.28-.21-.39-1.52-1.19-3.33-1.96-5.21-2.6-1.57-.54-3.12-1.15-4.71-1.65-.94-.3-1.87-.64-2.81-.95-.12-.04-.21-.09-.29-.17-.16-.17-.37-.18-.59-.13-.9.24-1.79.48-2.7.67-1.3.28-2.61.53-3.95.68-1.77.19-3.52.47-5.15,1.11-.43.17-1.86.94-2.16,1.13-.18.11-.36.22-.49.38h-.04c.09.07.15.23.14.36-.05.62.09,1.24.03,1.86-.04.39.06.76.04,1.15-.02.38.02.76.02,1.15.01.98.2,1.96.2,2.93,0,.34.04.49.06,1.27.03,1.32.55,3.5.65,3.81.03.1.41,1.08.69,1.34.07-.8.62-1.33.62-1.33-.08.23.12,1.51.36,1.97.21.41.63,1.48,1.23,1.76.06.03.38-.98.4-.91.24.76.52,1.36.66,1.77s.5,1.07.72,1.35c.43.53,1.62,1.41,1.62,1.41-.13-.47-.16-1.06-.2-1.41.06.47.84,1.09.99,1.3.77.69,1.07,1.06,1.92,1.53.21.12.45.33.73.34,0-.04-.04-.14-.05-.19-.02-.1-.02-.13-.02-.21-.02-.18-.02-.26.03-.46.03-.47.47.3.68.46.53.41.58.47,1.11,1,.39.39.59.74.84.97.27-.26.53-.6.76-.9.19-.24.63-.82.63-.82,0,0-.02.87-.35,1.31.59-.05.82-.37.96-.46.56-.36.73-.63,1.17-1.09.19-.2.92-.87,1.13-1.04,0,.65-.11.94-.29,1.37,1-.51,2.51-1.86,3.25-2.62.26-.27.48-.47.84-.86,0,.16-.13.81-.31,1.24l1.1-.77c.68-.57.96-1.14,1.36-1.86.13-.24.27-.64.5-1.03.22.52.33.88.24,1.39.68-.37,1.19-1.03,1.38-1.37.5-.91.66-1.49.69-2.5,0-.33.03-1.59.04-1.56.19.52.33,1.32.49,1.56.3-.94.43-3.37.51-4.16.08-.77.14-1.54.27-2.3.21-1.16.34-2.32.45-3.49.04-.45,0-.9.01-1.35ZM711.11,38.66c-.22.18-.43.38-.66.54-.47.33-.97.59-1.6.68-.71.1-1.43-.2-1.52-.83-.03-.2-.05-.41-.12-.62h-.03c-.1-.06-.22-.05-.32-.04-.72.06-1.42-.03-2.14-.07-.29-.02-.42.02-.45.29-.03.23-.12.44-.22.65-.22.5-.62.7-1.17.53-.97-.3-1.78-.81-2.43-1.5-.2-.22-.37-.88-.21-1.13.26-.41.56-.65.87-.85.63-.4,1.36-.6,2.13-.74.82-.15,1.63-.6,2.42-.86.1-.03,1.52.8,2.15.93.51.11,1,.29,1.5.41.96.21,1.7.6,1.99,1.47.13.4.25.78-.19,1.12Z"/>
    <path class="st12" d="M719.17,25.4c.34.11.53.32.53.51.03.78-.38,2.05-.48,2.81-.13.93-.38,2.06-.55,2.98-.09.51-.33,1.32-.54,1.81-.22.5-.7.99-1.02,1.46-.41.61-.6.81-1.17,1.31-.46.41-.98.57-1.67.63-.43.04-.57.07-.9-.21-.46-.39-.82-.84-1.28-1.23-.91-.75-2-1.23-3.14-1.63-.97-.34-1.96-.36-2.96-.13-.09.02-.21.02-.29-.01-1.01-.37-1.99-.23-2.98.08-1.44.45-2.74,1.09-3.8,2.06-.22.21-.39.46-.69.62-.35-.14-.61-.38-.88-.59-1.13-.91-2.06-1.95-2.75-3.14-.31-.53-1.49-2.99-1.61-3.95-.18-1.39-.31-4.79-.38-4.91l4.06-1.5,9.84-1.89,8.94,3.3,3.71,1.61Z"/>
    <path class="st12" d="M692.24,27.44c-1.13-.36-1.98-.07-2.27.56-.46,1,.11,2.02.4,2.52.09.15,1.8,1.83,2.09,1.39,0-1.24-.15-3.73-.22-4.47Z"/>
    <path class="st12" d="M720.37,27.61c1.3-.34,2.39.23,2.65,1.05.41,1.29-.67,2.34-1.05,2.94-.11.17-2.03,2.05-2.31,1.46.12-1.54.56-4.54.72-5.45Z"/>
    <ellipse cx="700.12" cy="27.83" rx=".97" ry=".63" transform="translate(642.92 726.17) rotate(-87.59)"/>
    <ellipse cx="711.59" cy="28.31" rx=".97" ry=".63" transform="translate(653.42 738.08) rotate(-87.59)"/>
    <path class="st12" d="M707.22,38.43c.06.2.09.41.12.62.09.63.81.93,1.52.83.62-.09,1.13-.35,1.6-.68.23-.17.44-.37.66-.54.44-.35.32-.72.19-1.12-.28-.87-.55-1.47-1.51-1.68-.5-.11-1.09-.08-1.6-.19-.63-.14-1.01-.36-1.53-.73-.19-.13-.93-.72-1.03-.69-.79.26-1.49.93-2.57,1.3-.74.25-1.08.31-1.95.79-.32.17-.65.38-.74.51-.42.65-.12,1.25.08,1.47.65.69,1.46,1.2,2.43,1.5.55.17.95-.03,1.17-.53.09-.21.19-.42.22-.65.04-.27.16-.31.45-.29.71.04,1.42.13,2.14.07.1,0,.22-.02.32.04"/>
    <path class="st2" d="M692.71,24.9"/>
    <path class="st16" d="M690.69,24.37c-.35-.19-.94-.7-1.19-1.45-.22-.67-.23-1.75.36-2.44.26-.31.54-.41.58-.74.04-.39-.31-.66-.51-.93-.8-1.06-.02-2.98.16-3.42.58-1.42,2.64-4.44,2.95-5.15.3-.69.97-1.85,4.44-3.92,2.79-1.67,4.28-2.56,6.7-3.13,2.95-.69,5.31-.44,6.57-.29,1.41.16,3.66.45,6.23,1.76,2.51,1.29,3.99,2.88,4.33,3.25,1.48,1.64,2.19,3.2,2.5,3.96.62,1.54,1.2,3,.59,4.23-.22.44-.52.71-.68,1.4-.2.86.13,1.03.06,1.98-.05.74-.39,1.48-1.07,2.97-.24.52-.68,3.64-.71,3.67-.57.66-2.1-1.94-10.71-4.65-4.15-1.31-4.3-1.75-6.24-1.12-6.01,1.73-11.98,1.51-14.37,4.02Z"/>
    <path class="st17" d="M692.23,24.52c-.34-.19-2.51-.59-2.75-1.34-.21-.68-.22-1.78.35-2.47.26-.31.53-.42.57-.75.04-.39-.3-.67-.49-.94-.78-1.07-.02-3.02.16-3.46.57-1.44,1.21-3.4,2.27-4.98.62-.93,1.87-2.86,5.26-4.97,2.73-1.7,3.88-1.85,6.24-2.43,2.88-.7,5.19-.45,6.42-.3,1.38.16,3.57.45,6.08,1.78,2.45,1.3,3.89,2.91,4.22,3.28,1.54,1.76,2.23,3.46,2.43,4,.92,2.42.88,4.48.85,5.14-.16,3.26-2.72,9.67-3.32,10.07-.44-1.27-1.85-2.9-9.75-5.47-2.57-.6-2.51-.77-4.27-1.14-5.86,1.76-11.92,1.44-14.25,3.98Z"/>
    <path class="st13" d="M715.15,17.26c-5.1,2.97-11.64,3.89-17.31,5.33-1.65.46-3.37.83-4.81,1.75-.17.15-.33.29-.64.32-.18.06-.4-.09-.32-.29.21-.56.77-.81,1.21-1.06.92-.51,1.9-.8,2.9-1.1,2.44-.64,4.98-1.03,7.44-1.46,3.82-.82,8.26-1.07,11.25-3.82.22-.27.6.15.28.33h0Z"/>
    <path class="st13" d="M719.62,26.12c-1.77-1.56-4.01-2.24-6.21-2.96-1.88-.65-4.64-1.76-6.56-2.17-.2-.04-.33-.24-.28-.43.05-.19.24-.3.43-.25.56.2,1.14.38,1.69.6,1.55.67,3.26,1.4,4.81,2.03,2.19.76,4.32,1.69,6.37,2.82.27.14,0,.56-.24.36h0Z"/>
    <path class="st13" d="M690.86,13.05c2.71-6.71,10.07-10.5,17.08-10.57,6.93-.04,15.11,3.78,16.27,11.3.71,4.79-.84,9.64-3.51,13.49-.07.1-.2.12-.3.06-.1-.07-.12-.19-.06-.29,2.43-3.92,3.79-8.61,3.1-13.14-1.8-9.62-14.06-12.83-22.32-9.8-4.3,1.58-8.27,4.72-9.93,9.09-.07.22-.43.08-.33-.14h0Z"/>
    <path class="st13" d="M692.23,24.58c-1.03-.28-2.33-.32-2.95-1.33-.36-1.06-.18-2.44.7-3.17.19-.22,0-.34-.45-.9-.68-1.7.28-3.32.85-4.84.09-.2.4-.08.33.13-.32.98-.6,2-.67,2.99-.04.48.02,1.01.19,1.27.16.24.67.81.54,1.28-.06.49-.6.72-.8,1.04-.39.58-.45,1.38-.26,2.05.39.75,1.7,1.15,2.54,1.35.08,0,.06.14-.02.12h0Z"/>
    <path d="M721.91,17.91c-2.07-4.69-6.89-7.69-11.75-8.82-1.62-.52-3.31-.91-5.02-.78-.03,0-.04-.05,0-.06,1.72-.16,3.43.2,5.06.69,3.34.72,6.61,2.22,9.06,4.63,1.26,1.16,2.38,2.57,2.96,4.22.07.2-.23.32-.31.12h0Z"/>
    <path d="M712.3,19.5c2.82.2,5.49,1.57,7.6,3.4.23.18-.07.53-.28.33-.94-.79-2.23-1.92-3.36-2.4-1.24-.59-2.59-1.05-3.96-1.2-.08,0-.08-.13,0-.12h0Z"/>
    <path d="M719.87,27.15c1.32-.82,3.16-.35,3.76,1.09.75,1.99-1.57,4.73-3.53,4.9-.09,0-.1-.13,0-.14,1.66-.18,2.59-2.04,3.03-3.46.35-1.72-1.58-2.35-2.9-1.87-.36.22-.7-.3-.35-.53h0Z"/>
    <path d="M692.14,27.2c-1.53-.67-2.76.18-2.59,1.86.24,1.34,1.41,2.63,2.75,3.05.09.02.05.17-.04.14-2.08-.39-4.42-3.64-2.29-5.31.69-.48,1.52-.45,2.34-.41.19.02.33.19.32.38-.02.23-.27.39-.49.29h0Z"/>
    <path d="M705.17,27.78c.14.86.25,1.8-.18,2.61-.16.27-.42.5-.61.67-1.4,1.1.62,1.22,1.37,1.41.15,0,.13.24-.02.23-.77-.08-2.41.02-2.23-1.18.29-.84,1.33-1.01,1.37-2.05.13-.58.08-1.08.06-1.66,0-.14.22-.15.23,0h0Z"/>
    <path d="M709.26,36.11c-.05.35-.41.49-.67.59-1.95.81-4.35.91-6.22-.16-.23-.13-.02-.5.21-.36,1.77,1.1,4.04,1.09,5.96.41.27-.1.58-.2.64-.49,0-.05.09-.04.08.01h0Z"/>
    <path d="M694.62,12.44c4.45-2.42,9.66-1.02,14.03.89,4.02,1.41,7.76,3.71,10.53,6.98,0,0,1.2,1.38,1.2,1.38.08.09.07.23-.02.3-.1.09-.25.06-.32-.04,0,0-1.16-1.37-1.16-1.37-2.7-3.27-6.36-5.58-10.32-7.03-4.32-2.02-9.56-3.32-13.94-1.11h0Z"/>
    <path class="st13" d="M714.19,24.79c-1.12-.69-2.41-.89-3.66-.41-.09.04-.2,0-.24-.1-.04-.1.02-.2.1-.25,1.18-.86,3.12-.69,4.05.48.13.16-.08.39-.25.28h0Z"/>
    <path class="st13" d="M701.55,24.63c-1.17-.28-2.34-.15-3.41.42-.09.05-.2.01-.25-.08-.04-.07-.02-.16.03-.21.93-.99,2.63-1.2,3.77-.47.17.11.05.39-.14.34h0Z"/>
  </g>
  <g>
    <path class="st16" d="M1068.8,36.13c0-.21,0-.42.02-.64-.18.05-1.15.37-1.62,1.37-.27.58-.25,1.12-.22,1.38-.26-.19-1.24-.94-1.5-2.3-.14-.74-.02-1.35.09-1.7-.39.24-.84.61-1.1,1.2-.2.47-.16.81-.26.82-.2.02-.77-1.43-.73-3.01.05-2.22,1.29-3.89,1.18-3.95-.13-.07-1.29,1.18-1.87,2.66-.47-.14-.63-2.26-.04-3.83.37-.97.93-1.66,1.34-2.09-.68.34-1.35.44-2.03,1.3.07-.68.25-1.89.72-2.93.71-1.55,1.72-2.54,2.34-3.06-.61.24-1.22.47-1.82.71-.38-1.31-.03-2.9.09-3.45.92-2.07,1.87-2.84,3.4-4.11,1.42-1.18.77-.64,1.39-1.12,0-1.29.24-5.54.06-6.61-.21-1.24-.15-1.84-.12-2.98,0-.29.04-1.5.72-2.03,1.35-1.05,4.7.95,6.55,2.63.81.74,2.03,2.06,2.99,4.15,1.14-.2.49-.41,3.3-.34,1.05.02,1.92.22,2.53.41h.05c.18-.38.36-.78.36-.78.37-.81,1.6-3.25,4.45-4.8,2.47-1.34,4.82-1.86,5.72-1.2s.98,2.84,1.02,3.72c.05,1.38-.27,2.55-.51,4.52-.04.31-.32,3.3-.35,3.57l1.37.92c.77,1.04,1.78,1.54,3.2,3.43,1.12,1.48,1.52,3.42,2.12,5.21,0,.03,0,.05-.02.06-.61.16-1.47-.63-2.11-.71.13,1.03.54,2.42,1.53,3.83.46.67.61,1.33,1.02,1.62-.52-.04-1.04-.07-1.56-.11-.09.5-.11,1.14.2,1.71.21.39.47.57.42.69-.07.14-.56.13-2.33-.45.23.9.46,2.21.33,3.79-.21,2.51-1.23,4.35-1.83,5.27-.22-.54-.45-1.08-.67-1.62,0,.26-.05.83-.42,1.42-.25.4-.56.64-.76.78-.13-.83-.29-1.03-.42-1.04-.26-.03-.44.71-1.03,1.53-.05.07-1.01,1.47-1.35,1.32-.19-.09,0-.56-.19-1.3-.13-.52-.38-.9-.58-1.15-.15.6-.42,1.38-.9,2.21-.69,1.19-1.53,1.98-2.11,2.45-.05-.74-.1-1.47-.16-2.21-.16.5-.42,1.12-.84,1.78-.72,1.11-1.59,1.8-2.16,2.18.06-.5.13-1.01.19-1.51-.41.36-.83.72-1.26,1.09-.73.62-1.46,1.21-2.18,1.76-.07-.73-.15-1.47-.22-2.2-.4.87-.91,1.83-1.54,2.83-.4.63-.81,1.2-1.2,1.71-.03-.57-.09-1.4-.26-2.4-.03-.17-.26-1.54-.44-1.53-.17.01-.03,1.28-.42,1.42-.45.16-1.3-1.22-1.49-1.53-.5-.8-1.11-2.04-1.45-3.78-.37.38-.78.93-.87,1.64-.1.83.28,1.39.09,1.52-.24.16-1.11-.52-1.67-1.35-.73-1.08-.82-2.25-.8-3-.35.22-.72.54-.85,1.01-.15.53.09.93-.02.98-.19.1-1.22-1.1-1.84-2.58-.28-.66-.63-1.74-.64-3.23Z"/>
    <ellipse class="st13" cx="1080.13" cy="26.75" rx="1.25" ry="1.61" transform="translate(878.73 1088.27) rotate(-80.68)"/>
    <path class="st13" d="M1078.96,8.35c1.73-.47,3.58-.51,5.33-.07.19.05.3.24.25.42-.05.19-.24.3-.42.25-1.61-.58-3.42-.71-5.11-.42-.12.03-.17-.15-.05-.19h0Z"/>
    <path class="st13" d="M1087.1,4.32c1.6-1.47,5.87-3.97,7.95-2.61.37.3.59.75.71,1.16.39,1.66.49,3.29.39,4.96-.12,1.64-.34,3.24-.56,4.87-.04.29-.31.5-.6.46-.31-.04-.52-.34-.45-.64.39-2.36.97-4.74.87-7.14-.12-1.34.14-3.55-1.69-3.6-2.35.05-4.72,1.17-6.55,2.63-.06.06-.15-.04-.09-.1h0Z"/>
    <path class="st13" d="M1063.09,22.12c-.34-1.21-.2-2.46.06-3.62.86-2.29,2.93-3.92,4.84-5.33.38-.28.8.31.39.57-2.95,2.02-5.77,4.4-4.88,8.27.07.26-.34.38-.41.11h0Z"/>
    <path class="st13" d="M1061.9,27.06c.16-2.25,1.26-4.45,2.99-5.98.14-.13.36-.12.49.03.13.15.11.38-.05.51-1.69,1.31-2.86,3.3-3.16,5.47-.02.17-.29.14-.27-.03h0Z"/>
    <path class="st13" d="M1062.51,31.92c-1.03-2.01-.21-4.59,1.32-6.12.14-.13.36-.13.49,0,.13.13.13.34,0,.48-1.29,1.39-2.16,3.59-1.46,5.43.12.22-.23.42-.36.2h0Z"/>
    <path class="st13" d="M1063.98,36.29c-1.3-2.16-.86-5.08.38-7.19.1-.16.32-.21.48-.11.17.1.21.33.1.49-1.22,1.83-1.78,4.63-.68,6.63.12.18-.16.36-.28.18h0Z"/>
    <path class="st13" d="M1066.9,38.34c-1.36-.86-2.1-2.61-1.67-4.2.1-.44.79-.28.68.16-.51,1.36,0,2.93,1.16,3.82.14.1-.02.32-.16.22h0Z"/>
    <path class="st13" d="M1071.16,42.04c-1.99-1.49-2.94-4.14-2.69-6.58.02-.19.19-.33.38-.31.18.02.32.17.32.35-.02,1.15.1,2.3.47,3.38.36,1.13,1,2.03,1.77,2.95.13.16-.11.36-.24.21h0Z"/>
    <path class="st13" d="M1074.54,44.43c-1.71-.77-2.77-2.65-2.74-4.5,0-.19.16-.35.35-.35.19,0,.35.16.35.35-.06.84.09,1.68.48,2.43.38.76.96,1.37,1.72,1.79.18.1.03.39-.16.28h0Z"/>
    <path class="st13" d="M1078.07,46.61c-1.6-1.41-2.55-3.37-3.01-5.43-.1-.44.58-.59.68-.15.31,1.97,1.13,3.93,2.54,5.35.14.13-.06.35-.2.23h0Z"/>
    <path class="st13" d="M1082.23,44.49c-.33,1.79-1.31,3.43-2.69,4.55-.12.1-.28-.08-.17-.19,1.23-1.19,2.01-2.8,2.17-4.46.05-.47.77-.37.69.1h0Z"/>
    <path class="st13" d="M1086.14,43.97c-1.02,1.16-2.26,2.1-3.62,2.78-.18.09-.33-.19-.16-.29,1.27-.76,2.37-1.76,3.24-2.93.28-.38.85.09.54.44h0Z"/>
    <path class="st13" d="M1089.01,41.41c-.6,1.67-1.79,3.07-3.27,3.95-.06.04-.13.02-.17-.04-.03-.06-.02-.13.03-.16,1.35-.98,2.33-2.4,2.74-3.96.13-.46.82-.24.66.21h0Z"/>
    <path class="st13" d="M1092.18,38.94c-.53,1.88-1.7,3.56-3.24,4.7-.07.05-.17.04-.23-.03-.05-.07-.04-.17.02-.22,1.41-1.2,2.39-2.85,2.77-4.62.1-.46.8-.28.67.17h0Z"/>
    <path class="st13" d="M1095.52,37.93c-.43,1.48-1.72,2.49-2.81,3.49-.16.15-.38-.11-.22-.25.69-.76,1.53-1.56,2.01-2.47.29-.35.17-1.29.76-1.22.2.05.31.25.25.45h0Z"/>
    <path class="st13" d="M1097.22,35.21c.05,1.53-.44,3.51-1.73,4.36-.03-.03-.04-.08-.01-.12.49-.59.84-1.24.99-1.99.16-.72.17-1.47.06-2.19-.03-.19.1-.37.29-.4.2-.03.39.13.4.33h0Z"/>
    <path class="st13" d="M1099.09,29.76c.67,2.91.13,6.03-1.4,8.5-.03.05-.1,0-.08-.04,1.34-2.56,1.63-5.59.8-8.28-.13-.45.57-.64.67-.17h0Z"/>
    <path class="st13" d="M1099.48,26.42c.17,1.75.92,3.46,2.13,4.8.13.14-.09.35-.22.21-1.34-1.3-2.27-3.04-2.59-4.92-.08-.46.64-.56.69-.09h0Z"/>
    <path class="st13" d="M1099.83,22.49c.26,1.96,1.12,3.86,2.29,5.46.09.1-.07.24-.16.13-.57-.72-1.36-1.71-1.74-2.54-.47-.92-.83-1.9-1.07-2.92-.04-.19.07-.37.26-.42.2-.05.39.09.42.29h0Z"/>
    <path class="st1" d="M1101.6,23.27"/>
    <path class="st13" d="M1096.18,13.82c2.79,2.47,4.7,5.75,5.59,9.35.02.08-.02.17-.11.19-.08.02-.17-.02-.19-.11-.79-2.58-1.86-5.13-3.83-7.02-.63-.64-1.29-1.25-1.99-1.81-.17-.14-.2-.39-.07-.56.14-.19.42-.2.59-.04h0Z"/>
    <path class="st13" d="M1067.82,10.47c-.02-2.29-.71-4.91-.13-7.12,1.11-4.51,6.35-.61,8.32,1.23,1.35,1.43,2.28,3.16,2.98,4.95.08.21-.02.44-.23.52-.21.08-.45-.03-.52-.24-1.14-3.55-3.75-6.53-7.26-7.85-1.71-.64-2.39-.03-2.92,1.52-.59,2.12.02,4.75-.02,6.98.01.14-.22.16-.22.01h0Z"/>
    <path class="st13" d="M1073.79,9.76c.1-.67.01-1.34-.36-1.92-.37-.58-1.01-1.01-1.69-1.3-.12-.05-.06-.24.06-.21,1.16.2,2.39,1.05,2.67,2.29.07.44.27,1.59-.43,1.52-.17-.05-.27-.21-.25-.38h0Z"/>
    <path class="st13" d="M1086.03,10.4c.18-2.17,2.77-3.94,4.72-2.75.03.02,0,.06-.03.05-1.84-.91-4.05.86-4,2.76,0,.49-.76.43-.69-.05h0Z"/>
    <path class="st13" d="M1074.33,27.98c2.57-.64,1.09,1.23,2.38,2.28,2.17,1.82,6.41,2.27,7.92-.57.2-.28.21-.62.51-.86.33-.22.66-.29,1.07-.36.85-.14.58,1.18-.14.72-.21-.17-.55-.23-.77-.12-.2.09-.26.49-.43.76-.3.58-.77,1.06-1.2,1.52-2.29,2.06-7.89.79-7.94-2.64.02-.78-.75-.59-1.12-.17-.13.13-.34.14-.47,0-.2-.18-.08-.54.19-.57h0Z"/>
    <ellipse class="st13" cx="1086.27" cy="21.82" rx=".95" ry="1.17" transform="translate(229.69 690.2) rotate(-39.12)"/>
    <ellipse class="st13" cx="1074.74" cy="21.29" rx="1.17" ry=".95" transform="translate(163.67 591.79) rotate(-33.19)"/>
  </g>
  <g>
    <path class="st15" d="M895.59,6.33c-1.43-.63-3.83-1.42-6.69-1-.21.03-.66.1-1.3.27-2.79.74-5.97,2.47-8.2,4.45-5.46,4.86-6.59,12.48-6.74,13.57,0,0-1.14,3.86-1.64,14.15-.01.21-.04.87.19,1.68.45,1.6,1.63,2.87,2.97,3.43.25.11,1.36.57,1.83.12.27-.26.19-.7.4-.75.26-.06.52.59.89.94.94.88,6.1-.52,6.58-.68,4.93,1.11,13.87.87,17.86-.02.52.78,1.96,1.3,3.25,1.38.97.06,1.4-.39,2.68-.39,1.04,0,1.39.3,2.2.44,1.62.27,3.74-.3,4.77-1.49.44-.5.95-.94,1.04-1.88.21-2.28-.41-3.76-.56-5.13-.26-2.37.42-3.38.52-5.63.09-1.97.26-7.22-2.59-12.73-2.13-4.12-4.86-6.66-6.13-7.69-2.02-1.63-4.27-3.16-7.26-3.33-1.62-.09-1.83-.12-4.05.28Z"/>
    <path class="st16" d="M906.02,22.91c-.11-.37-.53-1.2-.65-1.39-2.61-4.25-3.15-7.74-4.42-9.42-.1.86-.25,1.58-.36,2.05-.08.36-1.05,3.31-2.55,5.26-.07.09-.52.18-.84,0,.05-.46.78-1.35.81-2.57-.37.47-1.54,1.97-2.18,2.6-.28.13-.66.19-2.93.25-3.02.08-3.61.03-4.11-.33-.14-.67-.18-1.05-.27-1.61-.3.39-.85,1.14-1.24,1.72-.94.15-1.78.24-2.93.31-.53.03-1.52-.19-1.52-.19,0,0-1.12,1.28-2.18,1.78-.36.17-.77.23-1.17.22,0,.07.01.15.02.21-.24,1.98-.5,4.97-.36,8.61.17,4.7.29,7.09,1.76,9.28,2.18,3.24,5.79,4.24,7.67,4.77,1.64.46,6.16,1.71,10.62-.66,3.03-1.61,4.51-4.08,5.24-5.29.94-1.56,1.37-2.87,1.7-4.77,1.09-.05,3.03-.18,3.88-1.66.69-1.21.88-4.75-.56-5.2-1.59-.5-2.47,1.67-2.47,1.16,0-1.54-.41-3.35-.94-5.14Z"/>
    <path class="st13" d="M891.82,29.44c.09.64-.21,1.45-.85,1.76-.48.22-.56.71-.11,1.07.29.29.67.31,1.03.47.12.04.08.24-.05.23-.95.15-2.23-.67-1.66-1.71.23-.45.7-.47,1-.8.24-.25.37-.62.42-1.02.01-.14.23-.13.23,0h0Z"/>
    <path class="st13" d="M901.19,24.14c-.91-1.11-2.5-1.14-3.76-.97,0-.05,0,0-.02.1-.04.15-.27.08-.22-.06,0,0-.04-.05.02-.18.08-.11.15-.12.19-.14,1.34-.61,3.32-.29,3.99,1.13.06.12-.12.23-.2.12h0Z"/>
    <path class="st13" d="M887.99,23.17c-1.34-.32-2.73-.13-3.76.79-.04.05-.12.05-.17,0-.12-.33.53-.78.77-.95.94-.64,2.28-.62,3.23-.07.12.06.05.25-.08.22h0Z"/>
    <ellipse class="st13" cx="886.48" cy="27.78" rx="1.14" ry=".68" transform="translate(800.44 910.51) rotate(-86.23)"/>
    <ellipse class="st13" cx="898.89" cy="27.8" rx="1.14" ry=".68" transform="translate(812.02 922.91) rotate(-86.23)"/>
    <path class="st13" d="M889.26,36.99c1.76,1.27,4.15,1.23,5.88-.08.11-.09.25.08.15.18-1.59,1.67-4.54,1.7-6.18.08-.1-.1.03-.26.15-.18h0Z"/>
    <path class="st13" d="M879.61,21.82c.4,1.37-.1,2.68-.06,4.06-.05,3.97-.29,8.17.81,12,.9,2.46,3.06,4.31,5.49,5.33,6.34,2.77,13.79,2.42,17.77-3.91,2.41-3.33,2.64-7.59,3.01-11.54.08-2.69-.48-5.4-1.54-7.85-.04-.06-.03-.15.05-.18.06-.02.12,0,.15.06,1.8,3.77,2,8.01,1.34,12.06-.24,2.72-.93,5.51-2.56,7.75-2.94,4.91-9.13,6.95-14.54,5.45-4-.88-8.3-2.77-9.84-6.92-1.3-4.64-1.02-9.56-.8-14.33.07-.68.04-1.37.49-2.01.06-.08.19-.07.23.03h0Z"/>
    <path class="st0" d="M903.83,8.25c7.13,5.1,11.91,13.94,10.75,22.8,0,0-.23-.02-.23-.02.51-6.59-1.9-12.97-6.15-17.92-1.37-1.67-2.88-3.23-4.51-4.67l.14-.18h0Z"/>
    <path class="st0" d="M893.1,7.09c-5.37-.17-10.84,2.06-14.11,6.36-3.08,4.37-4.92,9.65-5.97,14.86-.82,3.9-.6,7.17-.69,10.88-.76-3.44-.43-7.41.07-10.99.59-3.61,1.81-7.1,3.31-10.4,1.46-3.34,3.69-6.53,6.88-8.42,3.14-1.94,6.89-2.78,10.52-2.52.14.01.13.23-.01.22h0Z"/>
  </g>
</svg>