<?xml version="1.0" encoding="UTF-8"?>
<svg id="_レイヤー_1" data-name="レイヤー_1" xmlns="http://www.w3.org/2000/svg" version="1.1" viewBox="0 0 520 250.11">
  <!-- Generator: Adobe Illustrator 29.7.1, SVG Export Plug-In . SVG Version: 2.1.1 Build 8)  -->
  <defs>
    <style>
      .st0 {
        fill: #ceb372;
      }
    </style>
  </defs>
  <path class="st0" d="M27.56,237.02c-.55,0-1-.45-1-1s.45-1,1-1l112.71-.04c.55,0,1,.45,1,1s-.45,1-1,1l-112.71.04Z"/>
  <g>
    <path class="st0" d="M142.08,216.17c-.05,0-.1,0-.16-.01-10.09-1.6-20.3-3.49-30.17-5.31-5.23-.97-10.46-1.94-15.7-2.87-.54-.1-.91-.62-.81-1.16.1-.54.62-.91,1.16-.81,5.24.93,10.48,1.9,15.71,2.87,9.86,1.82,20.05,3.71,30.12,5.31.55.09.92.6.83,1.14-.08.49-.5.84-.99.84Z"/>
    <path class="st0" d="M89.56,206.83c-.06,0-.11,0-.17-.01-2.78-.47-5.56-.93-8.34-1.37-.55-.09-.92-.6-.83-1.14.09-.54.6-.92,1.14-.83,2.79.44,5.58.9,8.37,1.37.54.09.91.61.82,1.15-.08.49-.51.83-.98.83Z"/>
  </g>
  <g>
    <path class="st0" d="M147.48,195.99c-.11,0-.23-.02-.34-.06-7.54-2.75-15.09-5.48-22.65-8.21-5.22-1.88-10.44-3.77-15.65-5.66-.52-.19-.79-.76-.6-1.28.19-.52.76-.79,1.28-.6,5.21,1.89,10.43,3.78,15.65,5.66,7.55,2.73,15.11,5.46,22.65,8.21.52.19.79.76.6,1.28-.15.41-.53.66-.94.66Z"/>
    <path class="st0" d="M102.4,179.65c-.11,0-.23-.02-.34-.06l-1.99-.73c-.52-.19-.79-.76-.6-1.28s.77-.79,1.28-.6l1.99.73c.52.19.79.76.6,1.28-.15.41-.53.66-.94.66Z"/>
    <path class="st0" d="M94,176.57c-.11,0-.23-.02-.35-.06l-3.61-1.33c-.52-.19-.78-.77-.59-1.28.19-.52.77-.78,1.28-.59l3.61,1.33c.52.19.78.77.59,1.28-.15.4-.53.65-.94.65Z"/>
  </g>
  <path class="st0" d="M156.3,177.05c-.17,0-.34-.04-.5-.13l-97.63-56.32c-.48-.28-.64-.89-.37-1.37.27-.48.89-.64,1.37-.37l97.63,56.32c.48.28.64.89.37,1.37-.19.32-.52.5-.87.5Z"/>
  <g>
    <path class="st0" d="M168.28,159.94c-.23,0-.45-.08-.64-.23l-34.25-28.72c-.42-.35-.48-.99-.12-1.41.35-.42.98-.48,1.41-.12l34.25,28.72c.42.35.48.99.12,1.41-.2.24-.48.36-.77.36Z"/>
    <path class="st0" d="M128.45,126.54c-.23,0-.45-.08-.64-.23l-6.56-5.5c-.42-.35-.48-.99-.12-1.41.35-.42.98-.48,1.41-.12l6.56,5.5c.42.35.48.99.12,1.41-.2.24-.48.36-.77.36Z"/>
  </g>
  <g>
    <path class="st0" d="M183.04,145.16c-.29,0-.57-.12-.77-.36-4.51-5.48-9.15-11.02-13.64-16.38-3.06-3.65-6.12-7.31-9.16-10.97-.35-.42-.29-1.06.13-1.41.42-.35,1.06-.29,1.41.13,3.04,3.66,6.1,7.31,9.16,10.96,4.49,5.36,9.13,10.9,13.65,16.39.35.43.29,1.06-.14,1.41-.19.15-.41.23-.64.23Z"/>
    <path class="st0" d="M155.65,112.26c-.29,0-.57-.12-.77-.36-.99-1.2-1.98-2.4-2.96-3.61-.35-.43-.29-1.06.14-1.41.43-.35,1.06-.29,1.41.14.98,1.2,1.97,2.4,2.95,3.6.35.43.29,1.06-.14,1.41-.19.15-.41.23-.63.23Z"/>
    <path class="st0" d="M148.21,103.12c-.29,0-.58-.13-.78-.37-.38-.47-.9-.93-1.45-1.41-.81-.71-1.64-1.45-2.17-2.36-.28-.48-.12-1.09.36-1.37.48-.28,1.09-.12,1.37.36.37.63,1.05,1.24,1.77,1.87.59.52,1.19,1.06,1.68,1.66.35.43.28,1.06-.15,1.41-.18.15-.41.22-.63.22Z"/>
  </g>
  <path class="st0" d="M200.15,133.18c-.35,0-.68-.18-.87-.5l-56.39-97.59c-.28-.48-.11-1.09.37-1.37.48-.28,1.09-.11,1.37.37l56.39,97.59c.28.48.11,1.09-.37,1.37-.16.09-.33.13-.5.13Z"/>
  <g>
    <path class="st0" d="M219.08,124.34c-.4,0-.78-.24-.93-.64-3.64-9.31-7.01-18.9-10.26-28.17-1.18-3.36-2.36-6.73-3.55-10.08-.19-.52.09-1.09.61-1.28.52-.19,1.09.09,1.28.61,1.2,3.36,2.38,6.73,3.56,10.09,3.25,9.25,6.6,18.82,10.24,28.11.2.51-.05,1.09-.57,1.3-.12.05-.24.07-.36.07Z"/>
    <path class="st0" d="M202.79,79.2c-.41,0-.79-.25-.94-.66-1.52-4.17-2.92-7.87-4.27-11.31-.2-.51.05-1.09.56-1.3.51-.2,1.09.05,1.3.56,1.36,3.46,2.76,7.18,4.29,11.36.19.52-.08,1.09-.6,1.28-.11.04-.23.06-.34.06Z"/>
  </g>
  <g>
    <path class="st0" d="M239.25,118.93c-.48,0-.9-.34-.98-.82-2.18-12.21-4.35-24.42-6.5-36.64-.1-.54.27-1.06.81-1.16.54-.1,1.06.27,1.16.81,2.15,12.21,4.32,24.43,6.5,36.63.1.54-.27,1.06-.81,1.16-.06.01-.12.02-.18.02Z"/>
    <path class="st0" d="M231.5,75.13c-.48,0-.9-.34-.98-.83l-.96-5.48c-.1-.54.27-1.06.81-1.16.55-.1,1.06.27,1.16.81l.96,5.48c.1.54-.27,1.06-.81,1.16-.06.01-.12.02-.17.02Z"/>
    <path class="st0" d="M229.25,62.32c-.48,0-.9-.34-.98-.83l-.71-4.05c-.1-.54.27-1.06.81-1.16.54-.09,1.06.27,1.16.81l.71,4.05c.1.54-.27,1.06-.81,1.16-.06.01-.12.02-.17.02Z"/>
  </g>
  <path class="st0" d="M260.06,117.1c-.55,0-1-.45-1-1l-.04-112.71c0-.55.45-1,1-1h0c.55,0,1,.45,1,1l.04,112.71c0,.55-.45,1-1,1Z"/>
  <g>
    <path class="st0" d="M280.88,118.91c-.06,0-.13,0-.19-.02-.54-.11-.89-.63-.79-1.17,2.54-12.89,4.68-24.82,6.53-36.47.09-.54.59-.92,1.14-.83.54.09.92.6.83,1.14-1.85,11.67-3.99,23.62-6.54,36.54-.09.48-.51.81-.98.81Z"/>
    <path class="st0" d="M288.75,74.7c-.06,0-.12,0-.18-.02-.54-.1-.9-.62-.8-1.17l.41-2.23c.87-4.71,1.78-9.57,2.42-14.39.07-.55.57-.93,1.12-.86.55.07.93.58.86,1.12-.65,4.87-1.56,9.76-2.43,14.49l-.41,2.22c-.09.48-.51.82-.98.82Z"/>
  </g>
  <g>
    <path class="st0" d="M301.05,124.31c-.11,0-.23-.02-.34-.06-.52-.19-.79-.76-.6-1.28,1.67-4.61,3.32-9.22,4.98-13.83,1.66-4.61,3.32-9.22,4.98-13.83.19-.52.76-.79,1.28-.6.52.19.79.76.6,1.28-1.67,4.61-3.32,9.22-4.98,13.83-1.66,4.61-3.32,9.22-4.98,13.83-.15.41-.53.66-.94.66Z"/>
    <path class="st0" d="M313.77,89.04c-.11,0-.23-.02-.34-.06-.52-.19-.79-.76-.6-1.28.92-2.54,1.85-5.07,2.78-7.61.19-.52.77-.78,1.28-.59.52.19.79.76.59,1.28-.93,2.53-1.85,5.07-2.77,7.6-.15.41-.53.66-.94.66Z"/>
    <path class="st0" d="M319.31,73.93c-.12,0-.23-.02-.35-.06-.52-.19-.78-.77-.59-1.29.83-2.24,1.66-4.47,2.5-6.71.19-.52.77-.78,1.29-.59.52.19.78.77.59,1.29-.84,2.23-1.67,4.47-2.5,6.7-.15.4-.53.65-.94.65Z"/>
  </g>
  <path class="st0" d="M319.99,133.13c-.17,0-.34-.04-.5-.13-.48-.28-.64-.89-.37-1.37l56.32-97.63c.28-.48.89-.64,1.37-.37.48.28.64.89.37,1.37l-56.32,97.63c-.19.32-.52.5-.87.5Z"/>
  <g>
    <path class="st0" d="M337.1,145.11c-.22,0-.45-.07-.63-.23-.43-.35-.49-.98-.14-1.41,7.76-9.49,16.01-19.4,25.96-31.18.36-.42.99-.48,1.41-.12.42.36.47.99.12,1.41-9.95,11.77-18.19,21.67-25.94,31.15-.2.24-.49.37-.78.37Z"/>
    <path class="st0" d="M368.27,107.79c-.23,0-.46-.08-.65-.24-.42-.36-.47-.99-.12-1.41,3.03-3.57,6.06-7.14,9.1-10.7.36-.42.99-.47,1.41-.11.42.36.47.99.11,1.41-3.04,3.56-6.07,7.13-9.1,10.7-.2.23-.48.35-.76.35Z"/>
  </g>
  <g>
    <path class="st0" d="M351.88,159.88c-.28,0-.57-.12-.76-.35-.36-.42-.3-1.05.12-1.41,4.11-3.48,8.32-6.97,12.4-10.35,4.72-3.92,9.61-7.96,14.36-12.01.42-.36,1.05-.31,1.41.11.36.42.31,1.05-.11,1.41-4.76,4.06-9.65,8.11-14.38,12.03-4.07,3.37-8.28,6.86-12.38,10.33-.19.16-.42.24-.65.24Z"/>
    <path class="st0" d="M384.69,132.38c-.28,0-.57-.12-.76-.35-.36-.42-.3-1.05.12-1.41l2.56-2.16c.42-.36,1.05-.3,1.41.12.36.42.3,1.05-.12,1.41l-2.55,2.16c-.19.16-.42.24-.64.24Z"/>
    <path class="st0" d="M393.28,125.13c-.29,0-.57-.12-.77-.35-.36-.42-.3-1.05.12-1.41l3.49-2.94c.42-.36,1.05-.3,1.41.12.36.42.3,1.05-.12,1.41l-3.49,2.94c-.19.16-.42.24-.64.24Z"/>
  </g>
  <path class="st0" d="M363.87,176.98c-.35,0-.68-.18-.87-.5-.28-.48-.11-1.09.37-1.37l97.59-56.39c.48-.28,1.09-.11,1.37.37.28.48.11,1.09-.37,1.37l-97.59,56.39c-.16.09-.33.13-.5.13Z"/>
  <g>
    <path class="st0" d="M372.7,195.91c-.4,0-.77-.24-.93-.63-.21-.51.04-1.09.55-1.3,8.91-3.58,18.13-6.74,27.04-9.79,4.25-1.46,8.64-2.96,12.94-4.49.52-.19,1.09.09,1.28.61.18.52-.09,1.09-.61,1.28-4.31,1.54-8.71,3.04-12.96,4.5-8.89,3.05-18.09,6.2-26.95,9.76-.12.05-.25.07-.37.07Z"/>
    <path class="st0" d="M419.92,178.98c-.4,0-.79-.25-.94-.65-.19-.52.07-1.09.58-1.29,3.37-1.27,6.46-2.48,9.42-3.71.51-.21,1.09.03,1.31.54.21.51-.03,1.1-.54,1.31-2.99,1.24-6.09,2.46-9.48,3.73-.12.04-.23.06-.35.06Z"/>
  </g>
  <g>
    <path class="st0" d="M378.11,216.09c-.48,0-.91-.35-.99-.84-.09-.55.29-1.06.83-1.14,14.15-2.23,27.86-4.69,39.41-6.81.54-.09,1.06.26,1.16.8.1.54-.26,1.06-.8,1.16-11.56,2.11-25.29,4.58-39.46,6.81-.05,0-.11.01-.16.01Z"/>
    <path class="st0" d="M424.58,207.99c-.47,0-.89-.34-.98-.82-.1-.54.26-1.06.8-1.16l13.35-2.47c.54-.1,1.06.26,1.17.8.1.54-.26,1.06-.8,1.17l-13.35,2.47c-.06.01-.12.02-.18.02Z"/>
  </g>
  <path class="st0" d="M379.94,236.9c-.55,0-1-.45-1-1s.45-1,1-1l112.71-.04c.55,0,1,.45,1,1s-.45,1-1,1l-112.71.04Z"/>
</svg>