<?xml version="1.0" encoding="UTF-8"?>
<svg id="_レイヤー_1" data-name="レイヤー_1" xmlns="http://www.w3.org/2000/svg" xmlns:xlink="http://www.w3.org/1999/xlink" version="1.1" viewBox="0 0 500 500">
  <!-- Generator: Adobe Illustrator 29.8.2, SVG Export Plug-In . SVG Version: 2.1.1 Build 3)  -->
  <defs>
    <style>
      .st0 {
        fill: #b8211c;
      }

      .st0, .st1, .st2, .st3, .st4, .st5, .st6, .st7 {
        fill-rule: evenodd;
      }

      .st1 {
        fill: #cf251f;
      }

      .st2 {
        fill: #e62923;
      }

      .st3 {
        fill: url(#_名称未設定グラデーション_3);
      }

      .st4 {
        fill: #fcb19d;
      }

      .st5 {
        fill: #e2242a;
      }

      .st6 {
        fill: url(#_名称未設定グラデーション_31);
      }

      .st7 {
        fill: url(#_名称未設定グラデーション_11);
      }
    </style>
    <linearGradient id="_名称未設定グラデーション_3" data-name="名称未設定グラデーション 3" x1="491.84" y1="112.59" x2="355.9" y2="203.82" gradientTransform="translate(0 500.11) scale(1 -1)" gradientUnits="userSpaceOnUse">
      <stop offset="0" stop-color="#871101"/>
      <stop offset="0" stop-color="#871101"/>
      <stop offset=".99" stop-color="#911209"/>
      <stop offset="1" stop-color="#911209"/>
    </linearGradient>
    <linearGradient id="_名称未設定グラデーション_31" data-name="名称未設定グラデーション 3" x1="383.07" y1="-49.49" x2="247.13" y2="41.73" xlink:href="#_名称未設定グラデーション_3"/>
    <linearGradient id="_名称未設定グラデーション_11" data-name="名称未設定グラデーション 11" x1="450.53" y1="208.6" x2="346.82" y2="301.54" gradientTransform="translate(0 500.11) scale(1 -1)" gradientUnits="userSpaceOnUse">
      <stop offset="0" stop-color="#7e110b"/>
      <stop offset="0" stop-color="#7e110b"/>
      <stop offset=".99" stop-color="#9e0c00"/>
      <stop offset="1" stop-color="#9e0c00"/>
    </linearGradient>
  </defs>
  <polygon id="polygon3282" class="st5" points="387.37 329.1 101.9 498.61 471.53 473.53 500 100.82 387.37 329.1"/>
  <polygon id="polygon3293" class="st3" points="472.14 473.28 440.37 254 353.83 368.27 472.14 473.28"/>
  <polygon id="polygon3304" class="st6" points="472.57 473.28 239.82 455 103.14 498.14 472.57 473.28"/>
  <polygon id="polygon3319" class="st2" points="103.47 498.18 161.61 307.7 33.66 335.06 103.47 498.18"/>
  <polygon id="polygon3334" class="st2" points="353.81 368.9 300.31 159.34 147.2 302.86 353.81 368.9"/>
  <polygon id="polygon3349" class="st2" points="487.86 162.29 343.13 44.09 302.83 174.38 487.86 162.29"/>
  <polygon id="polygon3362" class="st2" points="420.18 1.94 335.06 48.98 281.36 1.31 420.18 1.94"/>
  <polygon id="polygon3375" class="st2" points="0 398.96 35.66 333.92 6.81 256.45 0 398.96"/>
  <path id="path3377" class="st4" d="M4.9,254l29.02,82.32,126.1-28.29,143.97-133.8,40.63-129.05L280.65,0l-108.77,40.71c-34.27,31.87-100.76,94.94-103.16,96.12-2.37,1.21-43.91,79.72-63.82,117.17Z"/>
  <path id="path3400" class="st5" d="M106.8,106.12C181.07,32.48,276.81-11.03,313.56,26.04c36.72,37.07-2.22,127.16-76.49,200.78-74.27,73.61-168.83,119.52-205.55,82.45-36.74-37.05,1.01-129.54,75.28-203.15Z"/>
  <path id="path3413" class="st0" d="M103.47,498.11l57.69-191.09,191.59,61.55c-69.27,64.96-146.32,119.87-249.28,129.54Z"/>
  <path id="path3424" class="st7" d="M304.24,173.85l49.18,194.82c57.87-60.84,109.8-126.26,135.24-207.16,0,0-184.42,12.34-184.42,12.34Z"/>
  <path id="path3435" class="st0" d="M488.16,162.49c19.68-59.41,24.23-144.63-68.59-160.45l-76.16,42.07,144.76,118.38Z"/>
  <path id="path3437" class="st0" d="M0,398.1c2.73,98.04,73.46,99.51,103.59,100.37l-69.6-162.55L0,398.1Z"/>
  <path id="path3448" class="st1" d="M304.52,174.15c44.47,27.33,134.08,82.22,135.9,83.23,2.82,1.59,38.64-60.39,46.76-95.42,0,0-182.66,12.19-182.66,12.19Z"/>
  <path id="path3459" class="st1" d="M161.08,307.02l77.12,148.79c45.6-24.73,81.31-54.86,114.02-87.14l-191.14-61.65Z"/>
  <path id="path3472" class="st1" d="M33.69,336.12l-10.93,130.12c20.62,28.16,48.98,30.61,78.74,28.42-21.53-53.58-64.53-160.7-67.81-158.53Z"/>
  <path id="path3485" class="st1" d="M342.96,44.44l153.21,21.5c-8.18-34.65-33.29-57.01-76.09-64l-77.12,42.5Z"/>
</svg>