<svg xmlns="http://www.w3.org/2000/svg" id="_レイヤー_1" viewBox="0 0 44.46 54.68"><defs><style>.st0{fill:#fff}</style></defs><path d="M12.68 4.28c3.42 1.89 6.45 4.52 8.49 7.99 2.98 5.1 3.09 13.25-2.64 16.53-2.29 1.36-6.38 1.2-7.63-1.63-.53-1.72.34-3.37 1.1-4.74.49-.82 1.12-1.75 1.98-2.41 4.04-2.94 10.23-2.15 14.45-.09 3.61 1.92 5.96 5.5 6.91 9.43.55 1.89.71 4.1.15 6.13-.56 2.02-1.62 3.75-2.75 5.32-2.31 2.97-4.4 6.29-7.62 8.41-.61.41-1.37-.38-.96-.97 2.96-4.43 7.29-8.31 9.07-13.37.87-3.2-.34-6.92-2.05-9.71-1.96-2.88-5.28-4.59-8.72-4.94-4.57-.68-8.75.47-9.81 5.42-.07.75-.08 1 .59 1.44 1.21.8 2.93.72 4.27-.07 4.51-2.76 4.03-9.49 1.69-13.61-1.73-3-4.53-5.45-7.57-7.25-1.21-.68-.22-2.52 1.02-1.86z" class="st0"/><path d="M24.85 38.83c.26 3.68.85 7.13.19 10.84 0 0-1.42-1.21-1.38-1.21 4.04-1.84 8.2-3.49 12.42-4.85.34-.11.7.07.81.41a.63.63 0 0 1-.38.79c-4.11 1.58-8.08 3.42-11.98 5.45a.977.977 0 0 1-1.33-.39c-.15-.26-.14-.55-.07-.82.34-1.38.25-3.35.24-4.88-.05-1.72-.15-3.46-.29-5.18-.04-.49.32-.91.81-.95.48-.04.9.31.95.79Z" class="st0"/></svg>