<?xml version="1.0" encoding="UTF-8"?>
<svg id="_レイヤー_1" data-name="レイヤー_1" xmlns="http://www.w3.org/2000/svg" version="1.1" viewBox="0 0 100 100">
  <!-- Generator: Adobe Illustrator 30.0.0, SVG Export Plug-In . SVG Version: 2.1.1 Build 123)  -->
  <defs>
    <style>
      .st0 {
        fill: #ceb372;
      }

      .st1 {
        fill: #1c1917;
      }

      .st2 {
        fill: #fff;
      }
    </style>
  </defs>
  <path class="st2" d="M85.57,62.12c.5.36,1.19.92,1.69,1.84.72,1.32.66,2.65.61,3.29-.24,3.39-2.43,5.41-5.74,6.64-.9.33-1.88.43-2.84.35-.88-.07-1.26.3-1.65.95-.65,1.07-1.24,2.17-1.9,3.24-2.16,3.48-5.15,6.22-8.81,8.38-3.85,2.28-8.09,3.73-12.58,4.6-1.61.31-3.24.4-4.87.6-1.99.24-3.96.08-5.92-.05-2-.13-3.98-.46-5.92-.94-2.1-.52-4.16-1.12-6.16-1.91-5.31-2.1-9.4-5.36-12.09-10.05-1.34-2.33-1.95-3.52-2.22-4.53-.15-.59-.28-1.26-.85-1.65-.67-.45-1.32-.1-2.11-.15-1.94-.13-3.49-2.56-4.06-4.23-.26-.76-1.06-3.11.31-5.27,1.29-2.04,3.57-2.42,3.95-2.48.56-1.52-.43-3.27,1.34-5.19,6.57-7.15,23.67-6.89,33.16-6.27,14.43.94,15.52,3.04,26.51,6.83,0,0,5.11,2.4,10.15,6.01Z"/>
  <path class="st0" d="M60.6,8.64c-2.06-.6-4.95-1.24-8.44-1.37-8.13-.31-14.2,2.31-15.98,3.14-6.34,2.94-14.03,11.13-18.42,20.01-.53,1.07.37,2.27-1.36,4.07-1.63,1.69-2.26.31-3.77,1.8-1.76,1.74-1.02,4.15-1.37,9.34-.29,4.22-1.5,4.87-1.22,7.83.16,1.76.82,5.21,2.25,5.43,1.48.23,2.77-.77,4.98-3.31,2.88-3.3,8.3-4.2,15.83-5.4,9.06-1.43,18.22-1.13,30.43,2.01,12.94,3.33,18.66,8.71,21.39,6.67.76-.57.82-2.9.92-7.53.14-6.71.95-8.02-.13-9.49-1.38-1.88-3.56-1.88-4.06-3.93-.31-1.24.58-2.26.46-2.86-1.64-8.29-6.7-17.18-7.35-17.94-2.01-2.36-4.69-5.44-9.33-7.25-1.91-.75-3.61-1.06-4.82-1.21Z"/>
  <path class="st1" d="M28.13,86.12c-2.11-1.23-4.03-2.72-5.65-4.56-1.81-2.06-2.99-4.41-4.16-6.87s-1.75-4.94-2.19-7.6c-.23-1.41-.4-2.87-.37-4.29.03-1.22.02-2.12-.79-3.1-.59-.72-2.67.12-2,.93.92,1.11.55,2.54.63,3.89s.25,2.72.52,4.06.51,2.77.91,4.1,1.11,2.57,1.69,3.83c2.14,4.6,5.33,8.25,9.72,10.82.77.45,2.71-.61,1.69-1.21h0Z"/>
  <path class="st1" d="M84.29,62.14c3.37,2.51,2.32,7.54-.97,9.58-.77.48-1.69.93-2.59,1.11-1.04.21-2.1-.11-3.1.32-.73.32-1.16.89-1.57,1.56-.68,1.12-1.28,2.28-1.99,3.38-5.24,8.11-15.01,11.52-24.17,12.5-5.74.62-11.51-.41-16.93-2.29-.87-.3-2.55.96-1.27,1.4,10.49,3.64,22.07,3.42,32.22-1.27,4.37-2.02,8.44-4.91,11.31-8.82.72-.98,1.35-2.02,1.96-3.07.28-.49.64-1.46,1.06-1.83.07-.06.14-.26.23-.3.15-.06.93.03,1.1.02,2.06-.07,4.18-1.01,5.82-2.25,3.62-2.75,4.47-8.35.58-11.25-.72-.54-2.66.49-1.69,1.21h0Z"/>
  <path class="st1" d="M18.49,53.57c-1.24.66-2.63,1.54-3.55,2.61s-1.41,2.43-1.95,3.7l1.88-.5c-2.3-1.13-3.63-3.43-3.6-5.97.02-1.53.42-3.07.69-4.57.3-1.69.22-3.16.12-4.86-.17-2.91.01-5.8,2.75-7.41,1.5-.88,3.07-1.62,4.73-2.14,11.91-3.78,25.06-4.27,37.39-2.61,3.45.47,6.87,1.15,10.23,2.08,3.07.85,5.95,2.11,8.93,3.21,2.06.75,4.12,1.57,5.93,2.83.86.6,1.68,1.31,2.25,2.21.86,1.36.61,2.92.49,4.45-.25,3.22-.15,6.47-.29,9.7-.02.59-.03,1.19-.15,1.76-.14.66-.64,1.1-.81,1.69-.15.51-.39-.21.21.11-.14-.08-.31-.11-.45-.19-.48-.3-1.09-.47-1.61-.71-2.69-1.26-5.28-2.71-8.01-3.9-3.08-1.34-6.23-2.46-9.44-3.44-3.51-1.07-7.06-1.56-10.67-2.16s-7.47-.44-11.19-.53c-3.46-.08-7.07.21-10.49.73s-6.85,1.27-10.11,2.53c-.41.16-.8.64-.53,1.06.29.46,1.08.28,1.47.13,6.53-2.52,13.73-2.92,20.64-2.93,7.47,0,14.78.96,21.89,3.29,3.53,1.16,6.97,2.55,10.32,4.16,2.28,1.09,4.49,2.58,6.9,3.37,2.26.73,3.85-1.86,4.12-3.74.49-3.36.06-6.83.31-10.21.11-1.5.47-3.17.06-4.65-.3-1.1-1.02-2.05-1.84-2.81-1.71-1.61-3.9-2.65-6.06-3.52-2.81-1.13-5.65-2.33-8.54-3.23-3.34-1.04-6.76-1.83-10.22-2.4-13.23-2.21-27.56-1.81-40.45,2.11-2.15.65-4.13,1.5-6.08,2.62-2.76,1.59-3.91,3.95-3.95,7.1-.02,2.02.37,4.01.02,6.02-.32,1.88-.87,3.79-.77,5.7.14,2.68,1.66,5.14,4.1,6.33.57.28,1.59.16,1.88-.5.43-1.01.83-2.09,1.45-3s1.92-1.78,2.93-2.32c1.31-.69.13-1.76-.94-1.19h0Z"/>
  <path class="st1" d="M16.59,37.69c-.74,2.88-1.06,6.02-1.04,8.99.01,1.42.05,2.85.27,4.25s.74,2.48,1.56,3.6c.33.46,1.73-.06,1.34-.6-.81-1.11-1.28-2.19-1.47-3.55-.21-1.48-.26-3-.23-4.49.05-2.77.34-5.66,1.04-8.35.16-.61-1.31-.41-1.46.15h0Z"/>
  <path class="st1" d="M36.23,10.07c-4.37,2.13-8.32,4.75-11.56,8.42-3.44,3.9-6.09,8.39-8.03,13.2-.43,1.07,1.74.91,2.05.14,1.84-4.55,4.29-8.85,7.52-12.57s6.74-6.08,10.93-8.12c1.34-.65.13-1.59-.91-1.08h0Z"/>
  <path class="st1" d="M67.37,9.81c-1.3-.92-2.6-1.09-4.07-1.64-2.27-.85-4.93-1.06-7.32-1.27-5-.42-9.86.23-14.72,1.33-1.34.3-.99,1.58.34,1.28,4.48-1.02,8.97-1.6,13.58-1.21,2.18.18,4.59.37,6.65,1.12,1.39.51,2.62.68,3.84,1.54.67.48,2.64-.49,1.7-1.15h0Z"/>
  <path class="st1" d="M73.37,34.65c.87-1.42.51-2.97.39-4.53-.15-1.97-.45-3.87-.84-5.8-.75-3.77-1.93-7.55-3.65-11-.3-.6-1.72-.16-1.45.39,1.6,3.2,2.74,6.7,3.48,10.2.38,1.78.76,3.58.92,5.4.14,1.66.68,3.71-.23,5.21-.41.66,1.06.65,1.38.14h0Z"/>
  <path class="st1" d="M61.49,8.85c-.09.64.25,1.14.56,1.68.51.91.82,1.95,1.14,2.95.62,1.92,1.07,3.88,1.42,5.87.37,2.09.56,4.18.7,6.3.15,2.24.26,4.62-.41,6.79-.18.59,1.29.41,1.46-.15.61-1.98.56-4.12.45-6.17s-.27-4.18-.6-6.25-.73-4.01-1.32-5.97c-.29-.96-.6-1.91-.96-2.84-.28-.7-1.09-1.61-.98-2.36.09-.65-1.38-.42-1.46.15h0Z"/>
  <path class="st1" d="M57.16,8.14c-.1,1.79.41,3.49.58,5.26.18,1.87.21,3.78.27,5.66.12,3.97-.18,7.9-.57,11.84-.06.64,1.4.39,1.46-.16.38-3.89.67-7.77.57-11.69-.05-1.76-.11-3.52-.22-5.27-.12-1.94-.74-3.85-.63-5.8.04-.65-1.43-.38-1.46.16h0Z"/>
  <path class="st1" d="M52.43,10.02c-.5,3.37-.84,6.76-1.5,10.11-.32,1.65-.53,3.33-.76,4.99s-.51,3.42-.53,5.11c0,.78,1.46.59,1.47-.1.02-1.63.3-3.3.5-4.92.22-1.73.45-3.47.78-5.18.66-3.35,1-6.74,1.5-10.11.11-.76-1.37-.59-1.47.1h0Z"/>
  <path class="st1" d="M46.47,10.46c-1.84,3-3.3,6.18-4.46,9.49s-2.23,6.78-2.17,10.24c.01.73,1.47.48,1.46-.13-.06-3.49,1.04-7.06,2.21-10.32s2.57-6.26,4.34-9.16c.41-.66-1.06-.65-1.38-.14h0Z"/>
  <path class="st1" d="M41.04,10.86c-2.5,2.84-4.71,6.01-6.43,9.37-.89,1.74-1.67,3.56-2.31,5.41-.6,1.75-1.21,3.48-1.15,5.34.02.73,1.48.48,1.46-.13-.06-1.88.56-3.67,1.19-5.44s1.35-3.42,2.18-5.05c1.68-3.28,3.82-6.35,6.26-9.12.6-.68-.79-.85-1.2-.39h0Z"/>
  <path class="st1" d="M33.57,13.71c-2.64,2.69-4.98,5.66-6.94,8.88-.96,1.58-1.84,3.22-2.57,4.92-.65,1.52-1.69,3.54-1.1,5.2.25.7,1.69.3,1.45-.39-.36-1.01.04-1.95.38-2.91.3-.83.63-1.65,1-2.45.73-1.61,1.6-3.16,2.54-4.65,1.86-2.93,4.03-5.64,6.47-8.12.64-.65-.74-.98-1.23-.48h0Z"/>
  <path class="st1" d="M72.52,37.56c.51,2.92.24,6.04-.08,8.98s-.86,5.57-2.41,8.04c-.39.62,1.07.56,1.37.1,1.6-2.54,2.18-5.34,2.5-8.29s.6-6.21.08-9.22c-.1-.58-1.56-.22-1.45.39h0Z"/>
  <path class="st1" d="M62.14,34.46c.18,1.48.32,2.95.18,4.44-.07.74-.03,1.49-.12,2.23-.09.69-.2,1.37-.27,2.06-.14,1.39-.26,2.77-.59,4.13s-.83,2.76-1.26,4.13c-.2.65,1.28.48,1.46-.12.44-1.42.95-2.83,1.29-4.28s.43-2.85.59-4.29c.31-2.93.52-5.74.16-8.68-.08-.64-1.53-.29-1.45.39h0Z"/>
  <path class="st1" d="M52,30.71c.03,1.57.22,3.12.25,4.69s-.05,3.13-.12,4.69c-.16,3.06-.31,6.12-.91,9.13-.15.74,1.34.58,1.47-.1.6-3.01.75-6.07.91-9.13.08-1.56.15-3.13.12-4.69s-.22-3.12-.25-4.69c-.01-.78-1.48-.59-1.47.1h0Z"/>
  <path class="st1" d="M80.19,40.86c.12,3.17-.1,6.32-.29,9.48-.09,1.44-.22,2.88-.55,4.29-.16.65-.38,1.31-.79,1.85-.32.42-.65.91-1.01,1.29-.25.26-.09.62.2.75.35.16.78-.02,1.02-.27,1.94-2.03,2.38-4.63,2.56-7.35.23-3.37.45-6.75.33-10.12-.03-.8-1.5-.61-1.47.09h0Z"/>
  <path class="st1" d="M41.29,30.47c-.28,2.29-.84,4.54-1.13,6.83-.4,3.18-.45,6.54-.04,9.73.09.7,1.54.34,1.45-.39-.41-3.19-.33-6.58.11-9.76.3-2.18.83-4.32,1.09-6.51.09-.77-1.39-.59-1.47.1h0Z"/>
  <path class="st1" d="M33.02,31.22c-.39,3.08-.95,6.18-1.02,9.29-.03,1.64.03,3.27.15,4.9.06.8.15,1.58.34,2.36s.31,1.69.66,2.37c.29.56,1.7.11,1.45-.39-.3-.59-.41-1.39-.58-2.04-.2-.77-.33-1.54-.39-2.34-.15-1.78-.21-3.58-.16-5.37.08-2.99.63-5.97,1.01-8.93.08-.65-1.39-.42-1.46.15h0Z"/>
  <path class="st1" d="M82.39,38.43c.71-1.04.58-2.07.41-3.25-.22-1.5-.43-2.99-.74-4.47-.65-3.02-1.58-6-2.95-8.78-1.16-2.35-2.59-4.55-4.23-6.6-1.44-1.79-3.15-3.61-5.41-4.29-.88-.27-2.56,1.01-1.27,1.4,2.08.63,3.61,2.45,4.91,4.1,1.55,1.98,2.94,4.09,4.02,6.36s1.95,4.92,2.55,7.48c.3,1.28.55,2.57.74,3.87s.69,2.83-.09,3.97c-.31.46.27.8.65.85.55.08,1.12-.21,1.42-.65h0Z"/>
  <path class="st1" d="M75.21,22.49c.68,2.43,1.26,4.9,1.71,7.38.22,1.19.37,2.39.53,3.6.15,1.14.35,2.18-.35,3.18-.21.3.18.54.43.57.37.05.74-.13.95-.43.65-.94.66-1.97.51-3.06-.17-1.23-.32-2.47-.53-3.7-.46-2.66-1.08-5.32-1.81-7.92-.18-.63-1.62-.24-1.45.39h0Z"/>
  <path class="st1" d="M13.09,59.43c-.61.56-1.37.71-2.09,1.08-.67.35-1.29.81-1.79,1.37-.98,1.11-1.33,2.57-1.31,4.02s.33,2.77,1.09,3.96c.8,1.26,2.02,2.13,3.32,2.82.93.49,2.47-.87,1.24-1.52-2.17-1.15-3.46-3.1-3.45-5.57,0-1.13.21-2.31,1.05-3.13.96-.94,2.39-1.05,3.39-1.96,1.09-.99-.62-1.82-1.46-1.06h0Z"/>
  <path class="st1" d="M51.91,77.69c-1.64,1.6-3.47,2.46-5.75,2.7s-5.02-.03-6.97-1.38c-.85-.59-2.71.58-1.66,1.31,2.38,1.64,5.65,2.06,8.46,1.76s5.33-1.3,7.38-3.31c1.05-1.03-.64-1.9-1.47-1.09h0Z"/>
  <path class="st1" d="M24.57,32.64c-.27,1.03-.31,2.06-.51,3.1-.25,1.31-.52,2.62-.68,3.94-.33,2.8-.43,5.86.04,8.65.12.72,1.57.34,1.45-.39-.24-1.43-.24-2.86-.23-4.3s.05-2.91.25-4.35c.17-1.26.43-2.49.66-3.74.18-1,.23-2.01.49-3,.19-.73-1.3-.59-1.47.09h0Z"/>
  <path class="st1" d="M41.75,65.11c0,.54-.01,1.08,0,1.62,0,.21,0,.41-.02.62-.03.19-.02.16-.11.36-.03.07-.06.14-.1.2.09-.14-.06.07-.08.09-.06.07-.12.14-.18.21.12-.13-.06.05-.09.08-.4.34-.58.39-.95.67-.76.59-1.13,1.58-.47,2.4s1.64,1.21,2.57,1.56c.51.19,1.19.03,1.54-.41.32-.41.19-.95-.3-1.13-.63-.24-1.53-.52-1.91-1.13-.05-.08,0,.04-.04-.09-.05-.14-.03,0-.01,0-.02.06-.02.04.02-.05l-.04.05c.07-.08.08-.1.04-.06-.03.03-.02.02.03-.02.03-.03.21-.16.1-.09.13-.09.28-.17.41-.26s.27-.19.4-.3c.56-.45,1.06-1.03,1.27-1.73.26-.87.14-1.84.14-2.73,0-.54-.52-.83-1.02-.78-.45.04-1.19.36-1.19.92h0Z"/>
  <ellipse class="st1" cx="31.29" cy="63.58" rx="2.64" ry="1.58" transform="translate(-34.23 90.57) rotate(-86.19)"/>
  <ellipse class="st1" cx="57.39" cy="64.03" rx="2.64" ry="1.58" transform="translate(-10.31 117.05) rotate(-86.19)"/>
  <path class="st1" d="M34.28,56.11c-.92.75-1.56.53-2.24.42-1.32-.18-2.51-.02-3.8.32-.66.19-1.33.44-2.02.72-.46.21-.92-.37-.63-.77,1.43-2.15,4.24-3.31,6.78-2.96.82.08,1.67.14,2.2,1.31.16.36.02.75-.29.96h0Z"/>
  <path class="st1" d="M54.29,55.47c1.26-2.89,5.88-1.63,7.9-.32.79.46,1.43,1.11,2.07,1.74.2.19.2.51,0,.7-.15.15-.37.19-.56.11-1.41-.69-2.92-1.35-4.48-1.41-1.62-.19-2.86.74-4.48.08-.37-.13-.57-.53-.45-.89h0Z"/>
</svg>