<?xml version="1.0" encoding="UTF-8"?>
<svg id="_レイヤー_1" data-name="レイヤー_1" xmlns="http://www.w3.org/2000/svg" version="1.1" viewBox="0 0 100 100">
  <!-- Generator: Adobe Illustrator 30.0.0, SVG Export Plug-In . SVG Version: 2.1.1 Build 123)  -->
  <defs>
    <style>
      .st0 {
        fill: #1c1917;
      }

      .st1 {
        fill: #fff;
      }
    </style>
  </defs>
  <path class="st1" d="M28.44,40.16c.32-2.12-.37-2.54,0-5.7.19-1.63.91-7.85,3.45-8.47,2.96-.72,8.47,3.1,12.44,8.62,1.06,1.47,3.2.86,3.2.86,2.24-.17,3.48-.56,5.78-.7,3.39-.19,4.84.69,6.56.68,1.47-1.15,2.2-2.22,5.18-5.53,2.11-2.36,4.98-5.55,6.9-5.01,2.03.57,4.05,8.22,3.56,11.76-.1.73.12,1.47.57,2.05,1.84,2.37,6.23,8.44,8.16,14.66.98,3.16,2.33,7.49.7,11.57-2.24,5.62-8.87,7.63-16.05,9.69,0,0-19.7,5.65-40.76-2.38-2.52-.96-5.28-2.21-7.26-5-3.08-4.35-3.39-11.22-.71-16.23,2.84-5.3,5.69-7.09,8.28-10.89Z"/>
  <path class="st0" d="M68.31,74.03c-.3.08.22-.05-.05.01s-.54.13-.81.2c-.92.22-1.85.4-2.78.57-3.35.59-6.75.93-10.16,1.03-4.79.14-9.58-.18-14.29-1.01-2.76-.49-5.49-1.14-8.16-1.99s-5.24-1.67-7.47-3.2c-5.02-3.44-6.09-10.41-4.4-15.92.32-1.03-1.9-1.27-2.17-.39-1.52,4.96-1.02,10.9,2.39,15,1.7,2.04,4.04,3.34,6.47,4.31,2.81,1.13,5.73,2.02,8.68,2.73,9.21,2.22,18.95,2.52,28.31,1.07,1.87-.29,3.75-.63,5.57-1.15.47-.13.69-.59.41-.99-.31-.45-1.1-.39-1.54-.27h0Z"/>
  <path class="st0" d="M77.31,42.14c3.48,5.12,6.7,11.21,7.21,17.5.25,3.12-.6,6.15-2.83,8.4s-5.24,3.41-8.14,4.4c-1.39.48.17,1.58,1.13,1.25,3.11-1.07,6.28-2.38,8.71-4.68s3.52-5.33,3.43-8.56-1.15-6.66-2.37-9.68c-1.34-3.31-3.18-6.41-5.18-9.36-.51-.75-2.63-.28-1.95.72h0Z"/>
  <path class="st0" d="M22.88,48.54c1.1-1.55,2.34-2.97,3.6-4.39.57-.64,1.14-1.28,1.68-1.95.48-.59,1.19-1.31,1.41-2.05.32-1.09-.06-2.38-.1-3.48-.05-1.19.1-2.38.27-3.56s.41-2.45.8-3.63c.28-.86.74-2.39,1.67-2.79s2.23.32,3.01.72c1.54.79,2.95,1.89,4.21,3.07,1.41,1.32,2.63,2.79,3.81,4.31.89,1.15,2.19,1.59,3.63,1.51,3.23-.18,6.36-1.2,9.62-.65,1.15.2,2.52.73,3.7.5.86-.17,1.65-1.16,2.23-1.77,2.18-2.32,4.11-4.88,6.43-7.05.62-.58,1.39-1.34,2.22-1.63.53-.19.58-.08.93.39.81,1.08,1.24,2.5,1.61,3.77.46,1.59.77,3.23.85,4.89s-.3,2.92.67,4.34c.51.74,2.63.28,1.95-.72-.78-1.15-.29-3.12-.43-4.49-.15-1.48-.45-2.96-.86-4.39-.52-1.81-1.37-4.77-3.51-5.28-2.97-.71-5.68,2.6-7.42,4.5-1.87,2.05-3.57,4.49-5.76,6.23l.8-.21c-1.75-.04-3.45-.66-5.22-.71-2.47-.06-4.99.41-7.43.74-.8.11-1.32.13-1.93-.52-.88-.94-1.59-2.07-2.48-3.02-1.53-1.64-3.25-3.17-5.17-4.34-2.37-1.45-6.19-2.9-8.19-.12-1.7,2.37-2.15,6.07-2.25,8.93-.03.9.09,1.76.16,2.65.1,1.2-.15,1.84-.9,2.79-1.78,2.28-3.86,4.28-5.53,6.65-.7.99,1.42,1.48,1.94.74h0Z"/>
  <path class="st0" d="M26.88,63.52c-4.76.32-9.37,2.11-13.05,5.16-.44.36.98.57,1.29.31,3.45-2.85,7.69-4.58,12.15-4.88.18-.01.64-.11.53-.37s-.72-.23-.92-.22h0Z"/>
  <path class="st0" d="M28.25,66.18c-4.3.65-8.29,2.64-11.39,5.69-.2.2.45.31.52.32.28.03.71.04.92-.18,2.92-2.87,6.65-4.77,10.7-5.38.22-.03.48-.15.27-.35s-.78-.13-1.03-.1h0Z"/>
  <path class="st0" d="M75.92,67.06c4.16.61,8.03,2.32,11.25,5.03.54.45,1.78-.17,1.06-.77-3.39-2.85-7.53-4.67-11.91-5.31-.32-.05-.8.02-.92.38-.12.34.21.63.52.67h0Z"/>
  <path class="st0" d="M78.56,64.12c1.35-.37,2.91-.21,4.33.05s2.76.68,4.07,1.23c.94.39,2.24.87,2.85,1.74.39.55,1.79.16,1.3-.54-.7-.99-2.1-1.57-3.17-2.03-1.43-.62-2.94-1.1-4.47-1.4-1.68-.33-3.62-.56-5.3-.09-.94.26-.42,1.27.39,1.04h0Z"/>
  <path class="st0" d="M51.91,64.77c0,.33,0,.66-.03.99-.05.48-.16.89-.43,1.38-.13.23-.22.36-.44.56-.03.03-.2.15-.03.04-.05.03-.09.06-.14.09-.07.05-.25.1-.3.16.04-.05.2-.08.04-.02-.04.02-.09.03-.13.05-.1.03-.2.07-.3.09-.14.04-.29.08-.43.13-.36.13-.79.54-.41.91s1.07.42,1.54.24c.43-.16.86-.26,1.28-.46.6-.28,1.06-.73,1.41-1.29.54-.86.63-1.87.63-2.86,0-.5-.74-.68-1.12-.67s-1.13.14-1.13.66h0Z"/>
  <path class="st0" d="M52.13,66.9c.18.26.36.52.57.75.25.28.55.52.85.74.83.6,1.82.98,2.81,1.21.26.06.62.02.87-.06.17-.06.45-.2.52-.39.19-.5-.41-.73-.78-.82-.04,0-.22-.05-.04,0s.02,0-.01,0c-.09-.03-.19-.05-.28-.08-.11-.04-.22-.08-.32-.12-.04-.02-.09-.04-.13-.05-.03-.01-.22-.08-.09-.04s-.07-.04-.09-.04c-.04-.02-.08-.04-.13-.06-.09-.05-.18-.09-.26-.15-.16-.09-.32-.19-.47-.3-.03-.02-.06-.04-.09-.06.06.04.14.11.04.02-.05-.05-.11-.09-.16-.14-.1-.09-.19-.18-.28-.28s-.16-.19-.24-.29c-.03-.05-.07-.09-.1-.14-.11-.15.09.13-.02-.02-.3-.43-.88-.56-1.38-.47-.23.04-.51.12-.67.3-.11.13-.23.34-.12.51h0Z"/>
  <path class="st0" d="M53.21,62.01c-1.24.06-2.17.1-2.53.75-.23.42-.18,1,.06,1.38.2.33.73.7,1.44.98.82.32,1.05.25,1.44.23.7-.03,1.63-.41,2.01-1.27.05-.1.44-1,0-1.61-.39-.55-1.2-.51-2.42-.46Z"/>
  <path class="st0" d="M37.37,54.02c1.04-.46,3.25.04,6.74,1.78.6.3,1.25.65,1.27,1.15.03.63-.92,1.14-1.21,1.27-1.96.87-4.09.12-4.38,0-1.46-.61-3.51-2.24-3.34-3.22.1-.54.65-.86.92-.98Z"/>
  <path class="st0" d="M68.57,54.48c-1.03-.46-3.23.04-6.69,1.78-.6.3-1.24.64-1.26,1.15-.03.62.91,1.13,1.2,1.26,1.95.86,4.06.12,4.35,0,1.45-.61,3.49-2.23,3.31-3.21-.1-.54-.65-.85-.92-.97Z"/>
</svg>