<?xml version="1.0" encoding="UTF-8"?>
<svg id="_レイヤー_1" xmlns="http://www.w3.org/2000/svg" version="1.1" viewBox="0 0 100 100">
  <!-- Generator: Adobe Illustrator 30.0.0, SVG Export Plug-In . SVG Version: 2.1.1 Build 123)  -->
  <defs>
    <style>
      .st0 {
        fill: #ceb372;
      }

      .st1 {
        fill: #1c1917;
      }
    </style>
  </defs>
  <path class="st0" d="M33.41,38.13c.18.61.34,1.5.11,2.48-.36,1.59-1.45,2.25-2.22,3.36-.27.38-.8,1.25-.97,5.93-.15,4.46-.23,6.69.49,9.32.38,1.38,1.09,3.39,2.52,5.62.96,1.24,1.66,2.75,2.43,4,2.09,3.37,1.44,5.03,2.6,7.12,2.61,4.71,12.98,5.86,19.39,2.17.36-.21,3.9-1.64,5.31-6.66.81-2.91.71-5.28.98-5.87.27-.58,1.54-2.5,2.44-4.08,0,0,4.59-7.68,4.58-8.59s.16-4.78-.14-6.12c-.3-1.34-2.35-8.35-2.35-8.35"/>
  <path class="st0" d="M30.58,65.53c-2.32,1.27-2.07,1.19-5.51,2.36-3.2,1.09-7.6.81-10.21-1.72-1.76-1.7-2.17-3.9-2.33-4.83-.77-4.49,1.63-8.45,5.76-15.08,3.17-5.07,3.61-4.65,4.54-7.17,1.73-4.67.44-6.75,2.74-10.47.77-1.25,2.68-4.34,5.58-4.62,2.24-.22,5.74,1.33,5.74,1.33,0,0,1.95-2.07,2.88-3.01,2.47-2.53,6.34-2.61,10.98-2.52,3.5.07,11.64,1.35,16.35,5.5.9.79,2.82,2.79,2.82,2.79,0,0,2.72-1.16,4.39-1.14,4.63.05,8.22,13.86,8.44,14.83,1.71,7.23.22,7.46,2.12,12.22,2.19,5.48,5.06,7.44,4.15,10.68-.61,2.15-2.66,4.08-4.81,4.62-2.62.65-3.67-1.19-6.38-.47-2.58.69-2.55,2.62-5.08,3.09-2.73.51-5.12-1.31-5.36-1.49-1.55-1.21-2.21-2.82-2.65-3.84"/>
  <path class="st1" d="M62.31,75.41c1.24-1.81,1.93-3.79,2.31-5.94.24-1.36.07-3.02.77-4.24,1.22-2.11,2.53-4.17,3.75-6.28.69-1.2,1.37-2.4,2.01-3.63.38-.72.9-1.55,1.03-2.37.2-1.28.06-2.75.04-4.04-.02-1.16-.14-2.24-.44-3.36-.66-2.45-1.38-4.89-2.09-7.33-.3-1.03-2.49-.5-2.19.52.6,2.04,1.19,4.08,1.76,6.13.27.97.6,1.95.69,2.95.14,1.49.06,3,.03,4.49-.03,1.85-1.48,3.78-2.42,5.43-1.09,1.92-2.2,3.83-3.36,5.7-.41.67-.96,1.36-1.23,2.1-.23.63-.23,1.35-.3,2.01-.26,2.49-.74,5.03-2.18,7.13-.78,1.15,1.22,1.59,1.81.73h0Z"/>
  <path class="st1" d="M29.18,51.42c-.11,3.52-.06,6.89,1.27,10.2,1.52,3.77,4.64,6.86,5.71,10.81.35,1.31.5,2.65,1.14,3.86.58,1.09,1.52,1.98,2.56,2.63,2.5,1.58,5.56,2.15,8.48,2.21,3.74.07,7.26-.87,10.53-2.66,1.29-.7.17-1.97-.93-1.36-4.78,2.61-11.49,3.63-16.37.58-.93-.58-1.75-1.33-2.25-2.32-.58-1.12-.67-2.41-1-3.61-1-3.54-3.62-6.32-5.19-9.58-1.68-3.5-1.85-7.03-1.73-10.85.04-1.16-2.18-.93-2.21.08h0Z"/>
  <path class="st1" d="M32.32,38.39c.33,1.17.29,2.42-.44,3.44-.52.74-1.24,1.33-1.71,2.11-.25.41-.38.9-.48,1.36-.25,1.11-.33,2.26-.4,3.39s2.15.93,2.21-.08c.07-1.13.15-2.29.4-3.39.03-.15.07-.3.12-.45-.06.21.04-.1.07-.17.06-.14.13-.26.21-.39-.06.1-.19.26,0,.02.09-.11.17-.23.27-.34.18-.21.37-.42.56-.63.4-.44.78-.91,1.06-1.44.66-1.21.7-2.65.34-3.95-.29-1.03-2.48-.51-2.19.52h0Z"/>
  <path class="st1" d="M46.94,20.64c4.22-.16,8.37.24,12.4,1.58,2.11.7,4.18,1.62,5.97,2.95.77.57,1.46,1.23,2.14,1.9.35.34.69.69,1.03,1.03.1.1.61.62.44.45.4.41.96.44,1.47.22,1.48-.63,3.48-1.58,4.92-.47s2.38,2.97,3.16,4.59c1.39,2.9,2.43,6.02,3.2,9.14.61,2.5.85,4.99,1.02,7.54.14,2.17.82,4.17,1.73,6.14.63,1.37,1.39,2.68,2.16,3.98.56.95,1.18,1.93,1.42,3.03.61,2.76-2.22,6.19-5.1,5.87-1.31-.14-2.46-.8-3.82-.75-1.53.05-2.98.66-4.11,1.68-1.29,1.17-2.23,1.98-4.13,1.53-1.15-.27-2.18-.86-3.05-1.65-.74-.67-2.65.38-1.71,1.23,1.98,1.79,4.95,2.71,7.55,1.87,1.35-.44,2.1-1.41,3.16-2.26,1.38-1.11,2.78-.7,4.31-.28,3.15.87,6.39-.72,8.15-3.39,1.56-2.38,1.12-4.64-.19-6.99-1.56-2.78-3.34-5.52-3.96-8.7-.44-2.24-.31-4.57-.71-6.83-.7-4.02-2.01-8.02-3.73-11.72-.94-2.04-2.16-4.43-4.16-5.62-2.15-1.27-4.93-.19-7.03.69l1.47.22c-1.2-1.24-2.39-2.55-3.78-3.6-1.94-1.48-4.22-2.52-6.52-3.29-4.37-1.45-8.87-1.92-13.46-1.75-1.24.05-1.71,1.69-.23,1.63h0Z"/>
  <path class="st1" d="M29.46,65.22c-3.79,2.09-9.05,3.82-12.94,1.02s-3.43-8.1-1.7-11.92c2.06-4.55,5.04-8.66,7.87-12.75.94-1.36,1.49-2.92,1.87-4.52.52-2.17.38-4.51,1.21-6.6s2.47-4.66,4.58-5.44c1.82-.67,4.21.33,5.9,1.07.51.22,1.18.02,1.55-.36,1.85-1.96,3.45-4.04,6.18-4.72,1.35-.33.99-1.89-.37-1.55-1.96.48-3.59,1.34-5,2.78-.89.91-1.76,1.83-2.63,2.75l1.55-.36c-1.83-.8-3.97-1.52-5.99-1.44-2.54.11-4.58,1.8-6.01,3.77s-2.32,3.95-2.61,6.31-.55,4.95-1.78,7.14c-.9,1.59-2.15,3.01-3.15,4.54-1.83,2.81-3.68,5.69-5.11,8.73-2.01,4.27-2.54,9.93,1.38,13.36,4.52,3.96,11.42,2.13,16.12-.45,1.29-.71.17-1.97-.93-1.36h0Z"/>
  <ellipse class="st1" cx="40.22" cy="46.51" rx="2.71" ry="1.63" transform="translate(-7.66 85.09) rotate(-88)"/>
  <ellipse class="st1" cx="59.13" cy="46.79" rx="2.71" ry="1.63" transform="translate(10.32 104.25) rotate(-88)"/>
  <path class="st1" d="M46.09,66.49c1.27-1.46,3.79-.76,4.97-.16.6.31,1.23.63,1.41,1.27.37,1.32-1.38,3.41-3.42,3.59-1.22.11-2.91-.44-3.45-1.89-.36-.95-.13-2.09.49-2.81Z"/>
</svg>