<?xml version="1.0" encoding="UTF-8"?>
<svg id="_レイヤー_1" xmlns="http://www.w3.org/2000/svg" version="1.1" viewBox="0 0 100 100">
  <!-- Generator: Adobe Illustrator 30.0.0, SVG Export Plug-In . SVG Version: 2.1.1 Build 123)  -->
  <defs>
    <style>
      .st0 {
        fill: #ceb372;
      }

      .st1 {
        fill: #fff;
      }

      .st2 {
        fill: #1a1a1a;
      }
    </style>
  </defs>
  <path class="st1" d="M77.35,79.77c.73.54,2.29,1.54,4.35,1.55,4.47,0,6.97-4.7,7.28-5.3,1.47-2.87,2.32-8-.78-10.67-2.05-1.76-4.22.11-6.85-1.13-1.5-7.87-2.39-8.64-5.23-14.03-5.47-10.37-19.17-14.54-26.81-16.4-7.66-1.87-17.57-4.28-23.34.95-1.58,1.43-4.25,6.5-6.85,12.66-.83,1.97-.18,4.47-1.91,6.82-1.72,2.34-3.23,1.9-4.48,4.01-1.02,1.72-.68,4.2,0,9.15.53,3.87,1.15,5.2,1.97,6.27.94,1.21,2.02,1.94,2.79,2.37-.13,1.59-.12,4.4,1.16,7.5,1.37,3.32,3.48,5.27,4.72,6.34,1.97,1.7,4.27,2.88,6.63,3.96,2.39,1.1,4.96,1.67,7.51,2.17,1.82.35,3.7.48,5.57.5.81,0,1.6.22,2.4.22,2.03,0,4.03-.5,6.06-.48,2.15.03,4.01-1.08,6.06-1.46,4.31-.81,8.15-2.85,11.68-5.26,2.82-1.92,5.25-4.47,6.89-7.61.13-.24.44-.73.71-1.19"/>
  <path class="st0" d="M21.28,42.56c-1.01-.69-1.01-2.55-1.01-5.34,0-5.91,4.59-11.12,8.83-13.41,3.08-1.66,3.66-.76,13.03-2.61,11.61-2.3,13.63-4.26,14.51-5.3,3.21-3.78,2.56-8.66,3.65-8.66,1.04,0,.91,4.46,2.96,9.85,1.55,4.08,2.87,4.78,11.48,17.85,1.61,2.44,2.83,4.35,2.66,6.92-.21,3.22-2.57,6.69-5.24,6.98-1.78.19-2.54-.54-5.94-2.95-5.45-3.87-13.88-5.95-14.5-5.27-1.6,1.78,6.22,3.76,4.92,4.49-4.15,2.32-21.03.77-35.36-2.56Z"/>
  <path class="st2" d="M73.24,87.24c1.57-1.54,2.9-3.32,3.93-5.26.23-.45-.21-.78-.62-.8-.49-.03-1.14.16-1.39.63s-.5.92-.78,1.36c-.14.23-.29.45-.44.67-.08.11-.15.22-.23.33.05-.07,0,0-.03.04-.04.06-.09.12-.13.18-.63.83-1.32,1.61-2.06,2.34-.33.33-.19.81.25.94.52.14,1.12-.03,1.5-.4h0Z"/>
  <path class="st2" d="M16.41,76.12c-.6,4.08.95,8.43,3.48,11.62,2.68,3.37,6.52,5.61,10.48,7.17,2.09.83,4.3,1.32,6.5,1.74s4.54.36,6.82.63,4.5-.21,6.79-.33c1.05-.05,2.06-.06,3.09-.31s2.11-.68,3.18-.98c2.33-.66,4.62-1.12,6.85-2.12s4.33-2.26,6.35-3.62c1.19-.8-.57-1.4-1.38-.86-3.24,2.19-6.71,4.06-10.55,4.9-1.91.42-3.81,1.34-5.76,1.51-.99.09-1.98.07-2.97.17-1.18.13-2.37.34-3.56.32-1.98-.04-4.06-.2-6.03-.43-2.1-.25-4.22-.72-6.25-1.34-3.79-1.16-7.66-3.18-10.44-6.04-3.07-3.16-5.13-7.8-4.47-12.25.15-1-2.01-.68-2.14.2h0Z"/>
  <path class="st2" d="M72.99,57.76c-1.32-2.13-3.84-2.95-6.18-3.41-2.9-.58-5.85-.83-8.78-1.15-2.33-.26-4.66-.55-7-.76-1.33-.12-2.66-.24-3.99-.32-1.15-.07-2.3.07-3.45.05-5.18-.09-10.35.21-15.52.47-3.12.16-6.26.24-9.37.63-2.35.29-5.05.46-6.91,2.08s-2.15,4.17-2.2,6.61c-.06,2.83-.13,5.74.42,8.54.46,2.34,1.27,4.49,3.62,5.44s5.36.86,7.91.8c1.43-.03,2.84-.23,4.26-.32,1.29-.08,2.57-.19,3.77-.72,1.1-.49,2.09-1.21,2.96-2.03.91-.87,1.53-1.95,2.38-2.86,1.99-2.12,4.77-.99,6.46.87,1.51,1.67,2.42,3.77,4.37,5.02,1,.64,2.13,1.01,3.3,1.15,1.65.21,3.31.38,4.97.56,3.32.36,6.84.39,10.15-.08,2.41-.34,4.83-.96,6.59-2.74,1.93-1.96,2.31-4.7,2.47-7.33.07-1.09-2.09-.79-2.15.16-.14,2.23-.33,4.76-1.99,6.44-1.52,1.54-3.82,1.86-5.88,2.06-2.79.28-5.68.26-8.46-.05-1.23-.13-2.45-.33-3.67-.45s-2.44-.19-3.55-.86c-1.9-1.14-2.77-3.21-4.21-4.81-1.34-1.49-3.01-2.56-5.05-2.65-1.8-.08-3.61.58-4.89,1.86-1.66,1.64-2.61,3.77-4.99,4.59-1.14.39-2.42.31-3.61.44-1.41.15-2.8.25-4.22.23-2.23-.02-5.67.19-7.19-1.79s-1.59-5.06-1.65-7.32c-.08-2.62-.26-5.54.43-8.08s3.23-2.75,5.4-3.08c2.85-.42,5.74-.52,8.61-.66,5.14-.26,10.34-.7,15.49-.61,2.05.04,4.12-.05,6.16.1,2.33.18,4.66.42,6.98.68,2.95.34,5.92.57,8.85,1.03,2.62.41,5.85.75,7.39,3.22.5.8,2.52,0,1.94-.93h0Z"/>
  <path class="st2" d="M76.59,80.97c2.87,1.56,6.67,1.53,9.48-.12,2.63-1.55,4.58-4.11,5.14-7.12.47-2.52.22-5.86-1.3-8.02-1.25-1.78-3.49-2.4-5.55-2.58-1.41-.12-2.89,0-4.1.8-1.08.73-2.11,1.62-3.04,2.53-.37.36-.14.88.28,1.05.52.22,1.12-.03,1.5-.4.11-.11-.15.14-.03.02.11-.1.21-.2.32-.3.44-.39.89-.77,1.35-1.13.88-.7,1.47-1.06,2.6-1.03,1.41.04,3.17.36,4.22,1.37,1.55,1.48,1.84,4.21,1.77,6.23-.08,2.37-.98,4.56-2.72,6.2-1.07,1.01-2.39,1.81-3.88,2-1.38.18-3.18-.07-4.42-.74-.48-.26-1.08-.22-1.52.12-.32.25-.59.86-.11,1.12h0Z"/>
  <path class="st2" d="M51.52,81.94c-.71.13-1.17.54-1.75.94-.63.43-1.36.76-2.06,1.06-1.52.66-3.16,1.07-4.81,1.26-3.23.37-6.94.42-9.55-1.77-.76-.64-2.58.46-1.62,1.26,2.83,2.37,6.76,2.49,10.28,2.21,1.86-.15,3.71-.52,5.46-1.16.83-.3,1.63-.64,2.41-1.05.41-.22.83-.44,1.22-.71.28-.19.5-.44.84-.51.44-.08.99-.55.85-1.05-.15-.55-.83-.56-1.26-.48h0Z"/>
  <path class="st2" d="M24.57,57.38c-.45.97-1.09,1.8-1.76,2.63s-1.33,1.73-1.99,2.6c-.74.99-1.49,1.97-2.23,2.95-.37.49-.74.98-1.12,1.46-.2.26-.4.51-.59.78-.08.12-.15.4-.25.48-.26.21.23.26.34.25.33-.01.69-.13.94-.34.16-.13.16-.29.25-.46.13-.25.35-.48.52-.71.39-.52.79-1.03,1.18-1.55.74-.97,1.48-1.95,2.21-2.92s1.39-1.86,2.12-2.76c.67-.83,1.31-1.67,1.75-2.64.11-.24-1.22-.13-1.4.24h0Z"/>
  <path class="st2" d="M19.41,43.98c.12.78-.22,1.46-.56,2.13-.4.79-.73,1.61-1.04,2.44-.33.91-.63,1.83-.89,2.76-.12.42-.27.87-.3,1.31-.03.49.1.97.07,1.45-.05,1.09,2.1.78,2.15-.17.02-.49-.1-.97-.07-1.45s.22-1.02.35-1.5c.26-.92.58-1.82.92-2.71.31-.8.67-1.55,1.04-2.31.39-.81.59-1.62.45-2.52-.15-.96-2.28-.43-2.12.57h0Z"/>
  <path class="st2" d="M55.68,58.2c-1.37,1.67-2.81,3.27-4.22,4.89-.67.77-1.34,1.55-2,2.33s-1.49,1.64-1.95,2.58c-.31.63,1.11.49,1.32.05.45-.92,1.24-1.73,1.89-2.51.69-.83,1.4-1.65,2.12-2.47,1.4-1.6,2.82-3.18,4.16-4.83.22-.27-.19-.43-.39-.44-.34-.02-.71.13-.93.39h0Z"/>
  <path class="st2" d="M25.77,60.72c-.99,1.58-2.18,3.01-3.3,4.49-.51.67-.99,1.36-1.53,2.01s-1.04,1.29-1.37,2.07c-.12.29.47.3.6.28.3-.04.68-.17.81-.47.32-.74.84-1.36,1.36-1.97.55-.65,1.03-1.35,1.54-2.03,1.09-1.44,2.25-2.83,3.21-4.37.17-.28-.15-.38-.38-.39-.29,0-.77.11-.93.38h0Z"/>
  <path class="st2" d="M57.96,60.15c-1.17,1.5-2.44,2.92-3.67,4.38-.57.68-1.1,1.39-1.69,2.05-.55.61-1.1,1.22-1.47,1.96-.34.7,1.08.67,1.34.14.34-.7.87-1.24,1.38-1.82.59-.67,1.13-1.39,1.7-2.07,1.19-1.42,2.43-2.8,3.57-4.26.54-.7-.8-.87-1.17-.38h0Z"/>
  <path class="st2" d="M59.01,64.11c-.47.79-1.07,1.47-1.7,2.13s-1.26,1.4-1.92,2.07-1.36,1.33-2.02,2.02c-.56.59-1.31,1.26-1.58,2.05-.11.32,1.27.15,1.4-.23.14-.41.4-.71.68-1.03.31-.35.61-.7.94-1.03.68-.7,1.39-1.36,2.07-2.07.63-.66,1.24-1.34,1.86-2.01s1.2-1.35,1.66-2.14c.14-.24-.5-.19-.58-.17-.27.04-.67.15-.82.41h0Z"/>
  <path class="st2" d="M26.91,63.1c-1.07,1.12-2,2.36-2.94,3.59-.45.6-.91,1.19-1.4,1.77-.52.61-1.06,1.21-1.53,1.86-.19.27.17.42.39.43.32.01.74-.11.93-.39.44-.62.95-1.19,1.44-1.76s.95-1.17,1.41-1.76c.91-1.19,1.79-2.4,2.83-3.49.2-.21.16-.44-.14-.51s-.78.04-1,.27h0Z"/>
  <path class="st2" d="M40.1,75.06c-.03-.64-.25-1.22-.67-1.71s-1.02-.92-1.66-1.1c-1.39-.41-3.05.18-3.94,1.33-.48.63-.73,1.35-.58,2.15.1.5.88.51,1.24.4.41-.12.98-.45.88-.97,0-.03-.03-.3-.03-.14,0-.06,0-.13,0-.19s.01-.13.03-.19c0-.02.07-.24.03-.15s.05-.12.06-.14c.03-.06.06-.11.09-.17.02-.04.04-.07.07-.11l-.06.08c.02-.06.12-.15.16-.19.02-.02.12-.14.13-.14-.1.09-.12.11-.07.06.02-.02.05-.04.07-.06.06-.05.12-.09.18-.13.21-.15-.18.08,0,0,.06-.03.11-.06.17-.08.04-.02.07-.03.11-.05l-.16.06c.05,0,.18-.04.22-.06-.08.04-.27.04-.07.02.03,0,.06,0,.09,0,.08,0,.04,0-.12,0,.03.02.17.02.22.02.07.01.04,0-.09-.02.04.01.08.02.12.03.06.02.12.04.18.07.18.07-.12-.07.04.02.08.05.15.09.23.14.06.04.11.08.16.12.02.01.19.15.06.04.22.19.38.43.54.67.04.08.04.08,0,0,.02.04.04.08.05.12.02.06.05.12.06.18s.03.12.05.18c0,.04.03.29.03.11.01.22.05.37.25.5s.49.17.72.14c.28-.03.57-.11.8-.29.15-.12.39-.32.38-.54h0Z"/>
  <path class="st2" d="M76.34,51.36c2.35,3.49,3.46,7.75,3.04,11.94-.06.62,2.04.21,2.1-.34.43-4.29-.61-8.58-3.02-12.17-.38-.56-2.34.24-2.12.57h0Z"/>
  <path class="st2" d="M55.04,17.3c2.86-1.91,5.04-4.57,5.89-7.95.66-2.63.51-5.43-.17-8.03-.18-.68-2.3-.13-2.12.57.61,2.36.8,4.85.29,7.25-.66,3.15-2.52,5.82-5.19,7.6-.31.2-.6.51-.2.77.36.24,1.18,0,1.5-.21h0Z"/>
  <path class="st2" d="M21.86,38.68c-.47-3.51-.04-7.2,2.05-10.15s5.11-4.22,8.27-5.35,5.92-1.34,9.12-1.5,6.35-1.02,9.42-2.21c.3-.11.83-.43.58-.8s-1.11-.1-1.4,0c-1.86.72-3.75,1.39-5.73,1.68-1.49.22-2.99.21-4.48.28-3.45.16-6.67,1.07-9.87,2.32s-6.19,3-8.1,5.89c-2.03,3.08-2.46,6.81-1.99,10.4.09.65,2.22.18,2.12-.57h0Z"/>
  <path class="st2" d="M33.59,39.73c-1.62-2.82-2.38-6.33-1.11-9.42,1.34-3.25,4.33-5.56,7.82-5.92.36-.04,1.15-.27,1.21-.71.06-.47-.61-.47-.91-.44-4.04.4-7.89,2.69-9.78,6.35-1.78,3.44-1.23,7.41.65,10.7.4.7,2.44-.01,2.12-.57h0Z"/>
  <path class="st2" d="M45.14,39.73c-1.29-3.73-1.26-7.74.62-11.28.81-1.52,1.9-2.9,3.19-4.05.45-.4.92-.76,1.42-1.1.37-.25.62-.41.83-.52,1.27-.69.12-1.73-.92-1.16-2.68,1.45-4.92,3.73-6.4,6.39-2.12,3.8-2.27,8.22-.86,12.29.32.91,2.43.32,2.12-.57h0Z"/>
  <path class="st2" d="M54.41,37.03c4.96-5.93,7.27-13.74,6.35-21.41-.05-.38-2.18.03-2.12.57.91,7.62-1.39,15.34-6.32,21.22-.24.29.79.2.84.19.43-.07.95-.22,1.24-.57h0Z"/>
  <path class="st2" d="M62.14,42.13c2.32-2.43,3.88-5.51,4.36-8.84.63-4.39-.8-8.7-2.86-12.54-.4-.75-2.44-.02-1.95.9,1.93,3.6,3.27,7.73,2.67,11.84-.44,3.07-1.82,5.87-3.97,8.11-.34.35-.18.77.25.93.48.17,1.15-.04,1.5-.4h0Z"/>
  <path class="st2" d="M66.88,46.22c2.33-1.28,4.18-3.49,4.95-6.03.87-2.85.31-6.06-1.38-8.51-.41-.6-2.47.11-1.97.84,2.96,4.3,1.64,10.53-2.93,13.04-.34.19-.58.6-.18.85.42.26,1.12.02,1.5-.19h0Z"/>
  <path class="st2" d="M74.01,48.89c2.52-1.87,4.71-4.54,4.54-7.86-.1-1.93-1.04-3.67-2.04-5.28-1.13-1.81-2.37-3.57-3.6-5.32-3.78-5.36-7.61-10.36-9.74-16.65-.18-.52-2.28.1-2.12.57,2,5.92,5.49,10.7,9.08,15.72,1.17,1.64,2.31,3.29,3.42,4.96,1.03,1.55,2.1,3.16,2.61,4.97.99,3.55-1,6.73-3.78,8.79-.86.64,1.24.39,1.63.09h0Z"/>
  <path class="st2" d="M74.33,56.21h2.76c.28,0,.57-.05.83-.16.19-.08.46-.24.56-.43.08-.14.13-.32,0-.46-.15-.15-.38-.2-.58-.2h-2.76c-.28,0-.57.05-.83.16-.19.08-.46.24-.56.43-.08.14-.13.32,0,.46.15.15.38.2.58.2h0Z"/>
  <path class="st2" d="M76.32,59.67c.83-.2,1.66-.4,2.5-.59l.35-.08c.25-.06.53-.22.69-.43.13-.16.23-.42.16-.63-.18-.52-.8-.6-1.27-.49-.83.2-1.66.4-2.5.59l-.35.08c-.25.06-.53.22-.69.43-.13.16-.23.42-.16.63.18.52.8.6,1.27.49h0Z"/>
  <path class="st2" d="M76.54,63.21c.83-.31,1.66-.62,2.49-.93l.35-.13c.19-.07.45-.24.56-.43.08-.14.12-.33,0-.46-.35-.35-1.01-.19-1.41-.04-.83.31-1.66.62-2.49.93l-.35.13c-.19.07-.45.24-.56.43-.08.14-.12.33,0,.46.35.35,1.01.19,1.41.04h0Z"/>
</svg>