<?xml version="1.0" encoding="UTF-8"?>
<svg id="_レイヤー_1" data-name="レイヤー_1" xmlns="http://www.w3.org/2000/svg" version="1.1" viewBox="0 0 100 100">
  <!-- Generator: Adobe Illustrator 30.0.0, SVG Export Plug-In . SVG Version: 2.1.1 Build 123)  -->
  <defs>
    <style>
      .st0 {
        fill: #1c1917;
      }

      .st1 {
        fill: #fff;
      }
    </style>
  </defs>
  <path class="st1" d="M77.48,49.05c.26.9.93,4.02,1.2,5.55,3.17-2.31,6.22-1.88,7.31-.71s2.43,4.61,1.53,7.09c-.6,1.67-2.4,5.6-10.51,8.38-.53,3.41-.6,2.85-1.89,5.9-1.03,2.45-4.59,8.17-11.61,11.48-6.57,3.11-12.6,2.2-17.51,1.45-5.42-.82-13.34-2.02-18.04-8.23-2.03-2.69-2.48-4.22-3.83-9.95-1.44-.09-6.39-1.25-7.66-2.48-2.19-2.14-3.69-6.63-3.81-7.58-.23-1.91.14-6.25,3.32-6.64,3.71-.46,5.9.62,5.88.13,0,0,.66-4.65,4.25-6.34s26.54-5.07,37.6-2.63c12.52,2.76,13.77,4.57,13.77,4.57Z"/>
  <path class="st0" d="M48.7,14.45s-3.63-2.12-8.88-1.44c-7.88,1.03-18.03,8.74-21.73,18.62-3.11,8.31-3.6,19.22-.16,20.72.43.19,1.12,1.05,2.49,1.21,1.67.19,1.54.19,2.37-.03,1.42-.37,1.94-1.57,1.94-1.57,0,0,1.16.24,2.67-.96.58-.47,1.41-1.37,1.5-1.8,0-.02.65.54,1.89.21,1.37-.36,2.26-.44,3.48-1.69,1.25.91,2.22.51,4.23.57,2.68.07,3.61.06,5.25-.58,1.76.49,2.34.4,4.54.67,3.05.37,4.92.21,6.28-.8,1.68.21,4.07,1.45,6.92,1.38,2.58-.06,4.21-.98,4.98-1.25.94.81,2.29,1.24,3.68,1.32,1.44.09,3.04-.17,3.19-.76.68,1,1.07,1.2,1.86.72.58,1.44,1.7,5.69,3.37,5.81,2.54.18,5.01-3.67,5.5-5.64,1.98-7.93-1.36-16.45-3.55-20.57-1.77-3.32-3.86-7.25-8.38-10.72-1.76-1.35-8.21-6.3-16.77-5.36-2.9.32-5.2,1.22-6.68,1.94Z"/>
  <path class="st0" d="M35.2,86.41c9.89,3.92,22.5,4.77,31.87-.95,3.61-2.21,6.61-5.41,8.56-9.17,2.22-4.29,3.09-9.37,3.6-14.12s.62-8.95-.67-13.41c-.17-.59-2.34,0-2.17.58,1.03,3.57,1.17,6.91.92,10.6-.33,4.89-1.12,9.89-2.86,14.5-1.2,3.18-3.18,6.03-5.68,8.33-4.29,3.94-10.01,5.54-15.74,5.7-5.46.15-10.99-.96-16.06-2.97-.54-.21-2.51.63-1.76.92h0Z"/>
  <path class="st0" d="M20.77,53.74c.21,5.76,1.13,11.4,2.46,17.01.55,2.31,1.07,4.68,2.06,6.86s2.61,4.15,4.5,5.71c.5.41,2.47-.42,2.04-.78-1.91-1.58-3.49-3.49-4.48-5.77s-1.49-4.66-2.05-7.02c-1.29-5.46-2.15-10.97-2.36-16.58-.02-.5-2.2-.12-2.17.58h0Z"/>
  <path class="st0" d="M84.42,54.19c1.73,1.11,2.61,2.96,2.3,5-.24,1.59-.98,3.07-1.86,4.39-.68,1.02-1.23,1.74-2.17,2.44-.74.56-1.58,1-2.45,1.32-.31.11-.62.21-.93.29-.12.03-.23.06-.35.09-.06.01-.13.03-.2.04.16-.03.18-.03.07-.01-.38.07-1.17.26-1.23.74s.62.52.94.47c3.36-.63,6.33-2.35,8.26-5.19,1.05-1.54,1.97-3.34,2.15-5.22.22-2.29-.88-4.17-2.79-5.4-.6-.38-2.6.49-1.73,1.05h0Z"/>
  <path class="st0" d="M22.51,53.39c-2.11-1.18-4.44-1.59-6.72-.66-1.48.6-2.81,1.73-3.6,3.12-2.21,3.88-.06,9.26,3.15,11.88,1.33,1.09,2.93,1.84,4.57,2.3.51.14,1.18,0,1.54-.41.31-.36.23-.85-.27-.99-3.89-1.11-6.73-4-7.49-8.02-.38-1.99-.1-4.16,1.41-5.62.63-.61,1.43-1.11,2.3-1.26,1.17-.2,2.42.3,3.42.86.47.26,1.13.17,1.55-.15.32-.24.61-.79.13-1.06h0Z"/>
  <path class="st0" d="M48.81,64.77c0,.67-.11,1.39-.53,1.94-.11.15-.25.28-.4.4.03-.02-.13.08-.17.11-.05.03-.05.03,0,0-.09.05-.19.1-.28.16-.36.22-.68.52-.86.91-.35.74-.06,1.44.52,1.95.3.26.65.46,1.03.58.44.14.93.14,1.38.23.5.09,1.07-.05,1.52-.27.17-.08.76-.49.26-.59-.89-.17-1.48-.1-2.18-.73-.51-.46-.71-1.18-.25-1.77.02-.02.17-.17.12-.13.02-.02.23-.14.09-.06.23-.13.44-.25.65-.41.31-.24.57-.51.79-.84.39-.6.48-1.34.48-2.05,0-.37-2.17-.06-2.17.58h0Z"/>
  <path class="st0" d="M67.62,53.18c-1.28-1.13-3.02-1.66-4.69-1.77-.91-.06-1.82-.02-2.71.15-.48.1-.95.22-1.42.38-.49.17-.96.4-1.01.93-.04.44.62.39.91.35s1.21-.26,1.25-.67c0-.06.01-.13.01-.19,0-.09,0-.08-.02.03l-.35.27c-.09.05-.05.04.02,0-.2.11-.04.01.03,0,.13-.03.25-.07.38-.1s-.17.02.05,0c.07,0,.13-.02.2-.03s.14-.02.2-.03c0,0,.27-.03.18-.02.48-.04,1.11-.02,1.68.07,1.2.18,2.36.63,3.27,1.44.34.3,1.05.1,1.42-.04.2-.08.95-.46.61-.76h0Z"/>
  <path class="st0" d="M42.03,52.79c-2.93-1.21-6.42-.62-8.92,1.28-.35.27-.24.6.18.66.51.08,1.13-.1,1.54-.41.08-.06.16-.12.24-.18.02-.01.15-.1.06-.04s.06-.04.07-.04c.12-.07.23-.14.35-.21.06-.03.11-.06.17-.09.28-.15-.1.04.08-.04.15-.07.3-.13.46-.19.05-.02.16-.06.05-.02.08-.03.16-.05.23-.07.3-.08.56-.14.85-.16,1.02-.09,1.96.1,2.89.49.46.19,1.12,0,1.53-.23.26-.15.69-.55.22-.75h0Z"/>
  <ellipse class="st0" cx="38.68" cy="61.87" rx="2.93" ry="1.76" transform="translate(-24.29 98.74) rotate(-88.34)"/>
  <ellipse class="st0" cx="61.03" cy="61.07" rx="2.93" ry="1.76" transform="translate(-1.78 120.31) rotate(-88.34)"/>
  <path class="st0" d="M44.55,75.68c3.23,4.21,10.19,3.57,13.15-.63.28-.4-.24-.51-.55-.5-.44,0-1.17.17-1.44.56-1.03,1.47-2.69,2.55-4.53,2.39s-3.51-1.21-4.59-2.61c-.38-.5-2.47.23-2.03.8h0Z"/>
  <ellipse class="st0" cx="34.59" cy="71.51" rx=".72" ry=".91" transform="translate(-7.93 4.41) rotate(-6.55)"/>
  <ellipse class="st0" cx="38.97" cy="71.13" rx=".67" ry=".78" transform="translate(-7.86 4.91) rotate(-6.55)"/>
  <ellipse class="st0" cx="37.06" cy="74.93" rx=".73" ry=".81" transform="translate(-8.31 4.72) rotate(-6.55)"/>
  <ellipse class="st0" cx="68.09" cy="69.37" rx=".91" ry=".72" transform="translate(-7.09 130.99) rotate(-84.87)"/>
  <ellipse class="st0" cx="63.32" cy="70.62" rx=".78" ry=".67" transform="translate(-12.68 127.36) rotate(-84.87)"/>
  <ellipse class="st0" cx="66.03" cy="73.93" rx=".81" ry=".73" transform="translate(-13.51 133.08) rotate(-84.87)"/>
  <path class="st1" d="M23.89,52.48c-3.11-11.95.93-25.38,10.31-33.45.3-.28.76.17.46.48-6.21,6.35-9.7,14.98-9.7,23.84-.02,2.91.17,5.88.77,8.68.23,1.17-1.49,1.61-1.83.45h0Z"/>
  <path class="st1" d="M33.25,49.1c-1.26-10.73-.81-23.43,7.46-31.44.24-.23.63.13.38.38-7.68,8.17-7.46,20.36-5.86,30.79.19,1.32-1.81,1.61-1.98.27h0Z"/>
  <path class="st1" d="M43.14,48.53c-2.33-9.56-2.66-20.08,1.97-28.99.14-.29.61-.1.5.21-2.37,6.85-3.19,14.1-2.13,21.24.37,2.37.86,4.74,1.59,7,.39,1.3-1.58,1.87-1.93.54h0Z"/>
  <path class="st1" d="M54.16,48.39c-2.22-6.6-3.64-13.55-3.7-20.53-.03-2.32.05-4.63.25-6.95.01-.13.12-.22.25-.21.12.01.21.12.21.24.24,6.86,1.17,13.67,3.06,20.27.61,2.21,1.19,4.43,1.73,6.65.13.51-.18,1.02-.69,1.14-.47.12-.96-.15-1.12-.6h0Z"/>
  <path class="st1" d="M64.83,48.23c-.93-4.34-2.02-10.47-3.19-14.68-1.12-4.21-3.41-10.08-4.89-14.25-.14-.32.37-.56.51-.22,2.89,6.77,6.2,14.2,7.73,21.4,0,0,1.81,7.39,1.81,7.39.29,1.36-1.76,1.74-1.97.35h0Z"/>
  <path class="st1" d="M73.4,50.43c-.58-11.34-4.28-22.95-12.34-31.23-.2-.2.12-.54.33-.33,4.24,4.02,7.58,8.98,9.85,14.37,2.32,5.42,3.58,11.2,4.15,17.07.05.55-.36,1.03-.91,1.08-.57.05-1.07-.39-1.08-.96h0Z"/>
</svg>