<?xml version="1.0" encoding="UTF-8"?>
<svg id="_レイヤー_1" data-name="レイヤー_1" xmlns="http://www.w3.org/2000/svg" version="1.1" viewBox="0 0 100 100">
  <!-- Generator: Adobe Illustrator 30.0.0, SVG Export Plug-In . SVG Version: 2.1.1 Build 123)  -->
  <defs>
    <style>
      .st0 {
        fill: #ceb372;
      }

      .st1 {
        fill: #1c1917;
      }

      .st2 {
        fill: #fff;
      }
    </style>
  </defs>
  <path class="st2" d="M54.71,29.74c-4.66.01-7.91.02-12.91-.11,0,0-7.7-.43-19.17,1.49-3.54.59-4.89,2.54-5.08,6.04-.77,14.51-.66,29.06.14,43.58.39,7.01,11.31,5.8,15.98,6,4.42.19,8.84.18,13.26.12,9.12-.13,16.45.37,27.61.28,2.51-.02,5.38.29,7.39-1.47,1.86-1.62,2.45-4.28,2.64-6.74,1.15-14.58.82-28.35-.83-41.24-.31-2.42-.47-4.19-2.58-5.66-3.12-2.18-9.47-1.95-13.01-1.95-4.83,0-8.61-.34-13.45-.33Z"/>
  <path class="st1" d="M35.52,40.54c8.97-1.16,12.73-.58,23.86-.58,1.04,0,3.6-.33,6.87.29,2.71.51,5.31,1.01,7.3,3.18,2.52,2.74,2.6,5.97,2.6,6.73v3.69c.06.27,1.03,5.01-2.46,8.39-3.07,2.97-7.07,2.44-7.53,2.37-10.17-.02-20.33-.04-30.5-.06-.52.08-4.09.56-7.09-2.02-2.78-2.4-3.01-5.65-3.04-6.22l-.14-4.48c-.08-.61-.52-4.51,2.31-7.81,1.25-1.45,2.91-2.84,7.81-3.47Z"/>
  <ellipse class="st2" cx="38.22" cy="53.33" rx="2.58" ry="2.83"/>
  <ellipse class="st2" cx="62.79" cy="53.33" rx="2.58" ry="2.83"/>
  <path class="st0" d="M40.18,72.36v1.95c0,.13-.05,1.14.76,1.84.62.54,1.34.55,1.52.54,5.9-.05,11.8-.11,17.7-.16,1.03.03,2.46-.22,2.58-1.25l.22-2.17c.13-1.13-.7-2.67-1.84-2.71-6.15-.11-12.29-.22-18.44-.33-.21.01-1.04.08-1.74.76-.6.59-.73,1.29-.76,1.52Z"/>
  <path class="st1" d="M15.17,47.51c-.79-.1-1.67.3-2.37.61-1.09.49-2.13,1.12-3.02,1.92-1.66,1.5-2.6,3.65-2.82,5.85-.36,3.49.78,7.25,3.21,9.8,1.33,1.4,3.04,2.49,5,2.66.46.04,1.22-.16,1.43-.63s-.18-.73-.62-.77c-3.76-.34-6.17-4.98-6.71-8.2-.31-1.85-.23-3.85.49-5.6.49-1.21,1.3-2.29,2.37-3.05.5-.36,1.04-.66,1.6-.91.17-.08.34-.14.51-.21.18-.08.45-.04.15-.08.95.12,2.26-1.22.8-1.4h0Z"/>
  <path class="st0" d="M17.08,67.8c-1.03-.06-3.47-.58-4.55-1.37-.51-.37-3.19-2.24-4.23-6.72-.19-.81-1.28-5.95,2.28-9.33,1.37-1.3,6.42-3.08,6.83-2.96l-.33,20.39Z"/>
  <path class="st0" d="M85.41,67.8c.96-.03,4.48-1.52,6.18-3.15.33-.32,4.26-4.39,2.93-9.54-.21-.8-1.05-3.83-4.12-5.53-2.1-1.16-5.18-1.57-5.75-1.41l.76,19.63Z"/>
  <path class="st1" d="M34.78,87.46c7.61.24,15.23-.02,22.85.14,3.62.08,7.23.16,10.85.19,2.01.02,4.01,0,6.02,0,1.61,0,3.23.06,4.82-.26,3.14-.64,5.16-2.91,5.93-5.96.47-1.86.52-3.82.64-5.73.14-2.09.25-4.19.32-6.29.3-8.01.15-16.04-.51-24.03-.18-2.21-.4-4.42-.67-6.62-.2-1.63-.25-3.46-.91-4.99-1.47-3.39-5.67-4.06-8.94-4.37-.9-.09-2.28,1.2-.82,1.33,2.96.28,6.75.93,7.79,4.18.43,1.34.51,2.82.68,4.21.21,1.76.4,3.52.56,5.28.68,7.44.9,14.92.73,22.38-.09,3.87-.28,7.74-.58,11.6-.23,2.98-.85,7.03-4.36,7.75-1.53.31-3.16.16-4.71.17-1.87,0-3.74,0-5.61,0-3.28-.03-6.55-.11-9.83-.18-7.81-.17-15.62.09-23.43-.15-.43-.01-1.24.15-1.43.61s.16.71.61.72h0Z"/>
  <path class="st1" d="M70.67,29.39c-4.56,0-9.11-.24-13.67-.31s-8.74.01-13.11-.08c-5-.11-9.96.03-14.94.59-2.27.26-4.59.52-6.83.99-1.39.29-2.8.86-3.83,1.87s-1.51,2.31-1.72,3.67c-.36,2.32-.3,4.76-.38,7.1-.37,9.96-.33,19.93.05,29.89.1,2.73.08,5.52.39,8.23.18,1.52.92,2.83,2.14,3.76,2.75,2.11,6.77,2.21,10.08,2.26.43,0,1.24-.14,1.43-.61s-.15-.71-.61-.72c-2.85-.05-6.15-.08-8.64-1.65-1.15-.73-1.91-1.82-2.16-3.16-.39-2.08-.28-4.35-.37-6.46-.4-9.43-.5-18.87-.24-28.31.06-2.31.15-4.62.25-6.93.08-1.76-.02-3.73.71-5.37.59-1.34,1.68-2.02,3.08-2.32,2.09-.45,4.26-.67,6.38-.91,4.39-.5,8.78-.71,13.2-.6s9.22.05,13.83.1,9.42.32,14.13.31c.44,0,1.24-.14,1.43-.61.18-.45-.15-.72-.61-.72h0Z"/>
  <path class="st1" d="M57.05,69.89c-2.5-.04-5-.09-7.49-.13-2.17-.04-4.51-.33-6.67-.07-1.45.17-3.14.88-3.65,2.36-.24.69-.14,1.45-.14,2.16s.04,1.39.52,1.99c1.17,1.46,3.71.91,5.31.9,2.57-.02,5.14-.05,7.71-.07,2.39-.02,4.8.02,7.19-.07,1.18-.04,3.28-.3,3.87-1.53.37-.77.4-2.16.35-3.02-.05-.8-.49-1.69-1.18-2.14-.84-.54-2.12-.33-3.07-.35-.47,0-1.17.1-1.54.41-.27.23-.36.45.12.46,1.04.02,2.26-.23,2.95.72.41.56.55,1.24.52,1.91-.04.72.07,2.36-.7,2.66-.41.16-1.22.01-1.67.01-.61,0-1.21.01-1.82.02-1.06,0-2.12.02-3.18.03-2.42.02-4.84.04-7.26.07-1.21.01-2.42.03-3.63.03-1.02,0-1.91-.34-2.24-1.41-.16-.52-.11-1.08-.11-1.61,0-.87-.08-1.84.65-2.49.39-.35.81-.22,1.37-.21.59.01,1.18.02,1.76.03,1.18.02,2.35.04,3.53.06,2.35.04,4.7.08,7.05.12.47,0,1.17-.1,1.54-.41.27-.23.36-.45-.12-.46h0Z"/>
  <path class="st1" d="M15.14,47.39c-.81-.1-1.65.27-2.37.6-1.09.49-2.15,1.13-3.01,1.96-1.64,1.56-2.58,3.67-2.8,5.91-.36,3.5.79,7.31,3.23,9.88,1.34,1.41,3.04,2.57,5.02,2.75.51.05,1.2-.15,1.41-.68.19-.49-.18-.91-.67-.96-3.76-.34-6.13-4.83-6.68-8.08-.31-1.83-.21-3.81.5-5.53.5-1.21,1.3-2.25,2.38-3,.5-.35,1.05-.64,1.61-.9.17-.08.34-.14.51-.21s.47-.05.14-.1c1.1.14,2.2-1.45.74-1.63h0Z"/>
  <path class="st1" d="M87.9,49.2c2.11.96,3.85,2.27,4.88,4.4.76,1.58,1.09,3.37.85,5.11-.25,1.88-1.11,3.66-2.26,5.16-.24.31-.49.61-.76.89-.49.5-1.04.96-1.59,1.39-.27.21-.55.42-.84.61-.16.1-.95.39-.49.35-.37.03-1.24.15-1.46.51s.19.33.5.3c2.34-.21,4.53-1.95,6.07-3.61,1.21-1.3,2.16-2.91,2.66-4.62.6-2.04.51-4.2-.3-6.17-1-2.43-2.87-3.97-5.22-5.03-.4-.18-1,.01-1.39.15-.08.03-.97.43-.66.57h0Z"/>
  <path class="st1" d="M52.88,9.98c-2.48-.86-5.53-.04-7.25,1.94-1.64,1.89-1.93,4.57-.64,6.73.91,1.53,2.49,2.41,4.18,2.67v8.38c0,.4,2.17.08,2.17-.58v-7.81c.05,0,.1,0,.16-.02,2.85-.55,5.26-2.88,5.3-5.88-.03-2.5-1.55-4.62-3.92-5.44Z"/>
</svg>