<?xml version="1.0" encoding="UTF-8"?>
<svg id="_レイヤー_1" xmlns="http://www.w3.org/2000/svg" version="1.1" viewBox="0 0 100 100">
  <!-- Generator: Adobe Illustrator 30.0.0, SVG Export Plug-In . SVG Version: 2.1.1 Build 123)  -->
  <defs>
    <style>
      .st0 {
        fill: #ceb372;
      }

      .st1 {
        fill: #1c1917;
      }

      .st2 {
        fill: #fff;
      }
    </style>
  </defs>
  <path class="st2" d="M86.03,62.22c.48.34,1.15.89,1.64,1.77.7,1.28.64,2.56.6,3.17-.23,3.27-2.34,5.23-5.52,6.42-.87.32-1.81.42-2.74.35-.85-.07-1.21.3-1.59.92-.62,1.04-1.19,2.1-1.83,3.13-2.07,3.36-4.95,6.01-8.49,8.1-3.72,2.2-7.8,3.61-12.13,4.46-1.55.3-3.13.39-4.7.58-1.92.24-3.82.08-5.72-.04-1.93-.12-3.84-.43-5.72-.89-2.03-.5-4.02-1.08-5.95-1.84-5.13-2.02-9.08-5.16-11.68-9.67-1.29-2.25-1.89-3.4-2.15-4.37-.15-.57-.27-1.21-.82-1.59-.64-.43-1.27-.1-2.04-.15-1.87-.12-3.37-2.46-3.93-4.07-.25-.73-1.03-3,.29-5.09,1.25-1.97,3.44-2.35,3.81-2.4.54-1.47-.42-3.16,1.28-5.01,6.33-6.91,22.83-6.69,31.99-6.11,13.92.88,14.98,2.91,25.59,6.54,0,0,4.93,2.31,9.8,5.78Z"/>
  <g>
    <path class="st0" d="M61.84,10.65c-1.99-.57-4.78-1.18-8.14-1.31-7.85-.29-13.7,2.25-15.42,3.05-6.11,2.85-13.52,10.76-17.74,19.34-.51,1.03.36,2.19-1.31,3.93-1.57,1.63-2.18.3-3.64,1.75-1.7,1.69-.98,4.01-1.31,9.02-.27,4.07-1.44,4.7-1.16,7.56.16,1.69.8,5.02,2.18,5.24,1.43.22,2.67-.75,4.8-3.2,2.77-3.19,8-4.07,15.27-5.24,8.74-1.4,17.58-1.12,29.38,1.89,12.49,3.19,18.03,8.38,20.65,6.4.73-.55.79-2.8.87-7.27.12-6.48.91-7.74-.15-9.16-1.34-1.81-3.43-1.81-3.93-3.78-.3-1.2.55-2.19.44-2.76-1.6-8-6.5-16.57-7.13-17.31-1.94-2.27-4.53-5.24-9.02-6.98-1.85-.72-3.49-1.02-4.65-1.16Z"/>
    <g>
      <path class="st0" d="M51.34,10.23c.36,0,.28-.35.64-.36.37-.02.58.31.95.31.36,0,.37-.13.73-.12.37.02.36.32.72.34.36.02.47-.23.83-.2.36.03.31-.59.68-.55.37.04.35.71.71.75.36.05.47-.13.84-.07.36.05.16.49.52.55.36.06.44-.37.8-.3.36.07.35.12.71.2.36.08.3.4.66.48.35.08.52-.37.87-.28.18.05.32.2.42.34.07.13.24.29.24.29l.4-1.96c.06.02-.45.09-.82-.01-.37-.09-.31-.34-.68-.43-.37-.09-.44.18-.81.1-.37-.08-.3-.4-.68-.48-.38-.07-.37.52-.74.45-.37-.06-.46-.28-.83-.34-.37-.06-.31-.2-.69-.25-.38-.04-.45.19-.83.15-.38-.04-.35-.46-.73-.5-.38-.03-.41.41-.78.38-.38-.02-.37-.16-.75-.18-.38,0-.38-.2-.76-.2-.38,0-.35.5-.73.5-.38.01-.42-.4-.8-.39-.38.01-.37.2-.75.22-.38.03-.49-.31-.78-.29l.15,1.99c.27-.02.22-.28.58-.3.37-.03.37.13.73.12Z"/>
      <path class="st0" d="M39.94,12.65c.34-.14.14-.42.48-.56.34-.13.65.09.99-.03.35-.12.3-.24.65-.36.35-.11.45.18.8.08.35-.11.36-.37.71-.47.35-.1.08-.66.45-.75.36-.09.57.55.92.46.36-.08.4-.28.76-.35.36-.08.32.41.68.34.36-.06.29-.49.65-.56.36-.06.37,0,.73-.05.36-.05.42.26.78.22.36-.04.36-.52.72-.56.37-.05.74.37.76.37l-.15-1.99s-.48.24-.86.28c-.38.04-.4-.21-.79-.17-.38.04-.35.33-.72.38-.38.06-.42-.28-.8-.22-.38.07-.17.61-.54.68-.37.06-.53-.11-.9-.03-.37.08-.36-.08-.73,0-.37.09-.36.34-.73.43-.37.09-.48-.32-.86-.21-.37.11-.24.52-.6.63-.36.11-.41-.03-.77.09-.36.12-.42-.06-.78.07-.36.13-.15.6-.51.73-.35.13-.53-.23-.89-.09-.35.15-.28.32-.63.47-.35.15-.57-.12-.84,0l.84,1.81c.25-.11.1-.34.44-.49.33-.15.39,0,.73-.14Z"/>
      <path class="st0" d="M30.48,19.34c.26-.26-.04-.44.23-.7.27-.26.63-.18.9-.44.27-.25.18-.35.45-.59.27-.25.48-.02.75-.26.27-.25.18-.49.46-.72.28-.23-.19-.63.09-.87.29-.24.74.26,1.03.04.29-.22.25-.42.54-.64.29-.22.46.24.75.04.3-.2.06-.57.36-.77.3-.21.33-.15.64-.34.31-.19.49.09.8-.1.31-.18.13-.61.45-.78.33-.17.8.07.82.06l-.84-1.81s-.36.42-.71.59c-.34.18-.47-.05-.8.15-.34.2-.2.44-.53.64-.33.2-.51-.09-.83.13-.32.22.09.63-.22.84-.31.21-.53.11-.83.35-.3.23-.36.08-.67.31-.31.23-.2.44-.49.69-.29.24-.57-.08-.87.16-.29.25,0,.57-.29.82-.28.25-.38.14-.66.4-.28.25-.41.11-.69.37-.27.27.1.61-.17.87-.27.26-.58,0-.86.26-.27.27-.12.41-.39.68-.26.27-.57.11-.77.32l1.46,1.37c.19-.2-.03-.35.23-.62.26-.27.36-.16.62-.42Z"/>
      <path class="st0" d="M23.25,28.65c.19-.31-.14-.42.06-.74.2-.31.56-.34.77-.64.2-.31.09-.38.3-.69.2-.31.46-.14.67-.45.21-.3.05-.52.27-.82.22-.3-.35-.56-.13-.87.22-.3.78.05,1.01-.24.22-.29.13-.47.36-.77.23-.29.51.1.73-.19.23-.28-.1-.56.14-.84.24-.28.28-.25.51-.53.23-.28.5-.08.74-.35.24-.27-.08-.63.16-.91.24-.28.79-.23.81-.25l-1.46-1.37s-.19.5-.43.78c-.25.28-.44.12-.69.4-.25.29-.05.46-.29.76-.24.29-.49.07-.74.37-.24.29.28.57.04.86-.24.29-.46.27-.69.56-.23.3-.32.17-.56.47-.23.3-.06.48-.28.79-.22.31-.57.06-.79.37-.22.31.14.55-.08.86-.21.31-.33.23-.54.55-.21.31-.37.21-.58.53-.21.32.24.56.04.88-.2.32-.56.14-.76.46-.2.32-.04.42-.22.75-.19.33-.52.24-.67.49l1.74.99c.13-.24-.11-.34.07-.66.18-.32.31-.24.51-.55Z"/>
      <path class="st0" d="M16.47,37.83c.2-.15-.03-.41.23-.53.28-.11.43.2.82.16.43-.06.44-.18.9-.34.44-.2.62.05,1.02-.25.38-.31.26-.57.54-.88.28-.33-.29-.61-.06-.92.2-.32.83-.06,1.01-.52.15-.45-.01-.61.04-1.04.03-.41.48-.26.49-.64.01-.33-.43-.36-.38-.61.03-.13.08-.18.12-.24.04-.05.1-.13.17-.28.17-.33.47-.2.63-.52.17-.32-.24-.6-.06-.92.18-.32.73-.41.74-.43l-1.74-.99s-.06.53-.25.86c-.18.34-.39.22-.57.56-.18.34.07.47-.1.8-.07.13-.15.18-.25.24-.15.11-.34.19-.42.54-.1.57.51.45.49.86,0,.38-.2.48-.24.78-.05.29-.19.22-.27.47-.1.24.1.38-.06.65-.19.26-.52,0-.72.22-.2.2.1.54-.14.73-.24.18-.32.05-.53.15-.24.08-.24-.12-.55-.08-.37.04-.31.53-.72.63-.42.13-.66-.2-1.08.08-.38.3-.24.43-.54.75-.29.32-.62.24-.81.54l1.73,1c.1-.17-.13-.29.05-.53.2-.22.31-.12.52-.3Z"/>
      <path class="st0" d="M14.87,48.87c.08-.39-.27-.36-.21-.75.06-.38.39-.57.43-.96.03-.39-.1-.4-.07-.78.02-.38.33-.37.35-.75.02-.38-.24-.48-.23-.86.01-.38-.61-.28-.6-.65,0-.37.67-.42.68-.8,0-.38-.18-.47-.18-.84,0-.37.46-.24.47-.61,0-.36-.43-.38-.42-.74.01-.36.06-.36.09-.71.02-.35.36-.33.4-.65.05-.3-.4-.45-.31-.77.11-.32.63-.36.63-.36l-1.73-1s-.12.64-.22,1.05c-.12.42-.35.36-.43.79-.05.42.21.46.19.85-.03.39-.35.37-.37.76,0,.39.57.28.56.66,0,.37-.2.49-.2.86,0,.37-.15.33-.16.7,0,.37.24.42.23.78,0,.37-.43.37-.45.73-.01.36.43.37.41.74-.02.37-.17.36-.19.72-.03.36-.22.34-.25.7-.04.35.47.37.43.74-.06.36-.46.33-.52.67-.07.35.12.39.04.73-.09.35-.43.35-.51.61l1.93.53c.08-.28-.19-.31-.09-.69.09-.38.24-.34.32-.73Z"/>
      <path class="st0" d="M15.97,58.32c-.2.02-.19.37-.47.34-.29-.06-.24-.46-.36-.6-.13-.16-.23-.08-.35-.3-.14-.29.14-.42.03-.72-.11-.3-.38-.31-.47-.65-.09-.34-.66-.09-.74-.45-.08-.36.57-.54.51-.89-.06-.35-.25-.41-.3-.77-.04-.35.43-.29.41-.61-.03-.33-.45-.32-.46-.66.02-.34.06-.33.11-.67.05-.34.37-.29.44-.61.08-.33-.37-.5-.28-.85.1-.35.61-.58.62-.61l-1.93-.53s.07.5-.03.88c-.1.37-.35.31-.44.71-.09.41.19.46.13.87-.05.41-.37.38-.39.81,0,.43.57.29.59.68.03.39-.16.53-.11.92.05.38-.11.36-.04.75.07.39.32.38.4.76.09.38-.32.49-.22.88.12.39.53.25.66.63.15.38,0,.43.2.82.25.43.09.57.45.99.4.37.63-.07,1.02.12.42.13.39.51.92.52.53-.05.5-.25.97-.4.43-.18.67.07.97-.12l-1.06-1.69c-.18.11-.03.34-.3.46-.23.09-.26-.06-.46-.03Z"/>
      <path class="st0" d="M25.59,51.86c-.37.12-.19.42-.55.53-.36.12-.68-.08-1.05.05-.36.15-.31.28-.67.43-.36.15-.5-.1-.86.08-.36.18-.32.46-.66.67-.34.21.09.65-.22.87-.3.22-.76-.29-1.07-.02-.31.27-.27.46-.54.75-.27.28-.54-.12-.79.17-.24.27.08.57-.16.84-.25.27-.29.23-.54.5-.25.25-.5.04-.74.28-.25.23.04.63-.23.85-.28.23-.77.03-.77.03l1.06,1.69s.37-.48.66-.74c.3-.26.47-.08.76-.35.29-.28.09-.48.36-.75.26-.28.5-.05.76-.33.26-.28-.25-.58,0-.86.25-.29.47-.21.7-.46.24-.24.33-.09.57-.31.25-.22.15-.42.43-.63.28-.21.53.16.81-.02.28-.17.07-.55.39-.71.32-.16.37-.04.7-.18.33-.14.4.03.72-.1.33-.12.12-.59.46-.71.34-.12.51.26.85.15.34-.11.29-.29.64-.39.35-.1.52.2.79.13l-.5-1.94c-.28.07-.17.32-.54.42-.37.11-.41-.05-.78.07Z"/>
      <path class="st0" d="M37.55,49.58c-.38.05-.25.37-.63.42-.37.05-.63-.22-1.01-.16-.37.06-.36.19-.73.24-.37.06-.43-.24-.8-.18-.37.06-.42.33-.79.39-.37.06-.16.65-.52.71-.37.06-.53-.59-.9-.52-.37.06-.43.26-.8.33-.37.07-.32-.41-.69-.34-.37.07-.3.5-.67.57-.37.07-.38.02-.75.09-.37.07-.46-.24-.83-.16-.37.08-.32.56-.69.65-.37.09-.82-.24-.84-.24l.5,1.94s.41-.31.76-.4c.36-.08.41.16.77.08.36-.08.3-.35.66-.42.36-.07.42.26.78.18.36-.07.15-.61.51-.68.36-.07.51.11.88.04.36-.06.35.1.71.03.36-.06.37-.31.73-.37.37-.06.44.36.81.3.37-.06.29-.49.66-.55.37-.06.39.08.76.02.37-.06.39.13.76.08.36-.05.25-.55.62-.61.37-.06.46.35.82.3.36-.04.34-.24.71-.28.37-.05.49.28.77.26l-.21-1.99c-.28.03-.22.28-.59.33-.38.05-.39-.11-.77-.06Z"/>
      <path class="st0" d="M49.72,49.24c-.38-.03-.32.32-.69.29-.38-.02-.58-.34-.96-.35-.38-.02-.38.12-.76.1-.38-.01-.38-.31-.76-.32-.38,0-.47.25-.85.25-.38,0-.26.61-.64.61-.37,0-.43-.66-.81-.66-.38,0-.47.19-.84.2-.38.02-.26-.45-.64-.44-.38.02-.37.45-.74.47-.38.02-.38-.03-.76,0-.38.03-.42-.3-.8-.27-.38.02-.39.52-.77.55-.37.04-.77-.36-.79-.36l.21,1.99s.45-.25.82-.29c.37-.03.39.21.75.19.37-.03.35-.3.72-.33.37-.02.38.3.75.28.36-.01.23-.58.6-.6.37-.02.49.18.86.16.37-.01.33.15.69.14.37,0,.41-.25.78-.25.37,0,.38.42.74.43.37,0,.36-.43.73-.43.37,0,.37.15.73.16.37.02.36.21.73.22.37.02.36-.49.73-.48.37.02.38.43.75.46.37.03.38-.17.75-.14.37.03.43.37.71.4l.18-1.99c-.28-.03-.27.24-.65.21-.38-.03-.36-.18-.74-.21Z"/>
      <path class="st0" d="M61.74,51.04c-.37-.08-.36.27-.73.19-.37-.08-.52-.43-.89-.5-.37-.07-.4.06-.77-.02-.37-.07-.32-.38-.69-.45-.37-.07-.51.17-.88.11-.37-.07-.36.56-.73.49-.37-.06-.31-.74-.68-.79-.37-.06-.49.11-.86.06-.37-.06-.17-.49-.55-.55-.37-.06-.44.38-.81.33-.37-.05-.37-.1-.74-.15-.37-.05-.36-.37-.73-.42-.38-.04-.48.44-.85.4-.37-.04-.68-.5-.71-.5l-.18,1.99s.49-.16.86-.12c.37.04.34.28.7.32.36.05.4-.23.77-.18.37.05.32.37.68.42.36.05.33-.54.7-.49.37.05.45.27.82.32.36.05.3.2.66.25.36.06.44-.17.81-.11.36.06.3.49.66.55.36.06.43-.37.8-.3.36.07.34.21.7.29.36.07.33.26.69.33.36.07.43-.44.79-.36.36.08.31.49.67.57.36.08.4-.11.76-.03.36.08.37.43.64.5l.46-1.95c-.27-.07-.3.2-.67.11-.37-.08-.33-.23-.7-.31Z"/>
      <path class="st0" d="M73.38,54.54c-.35-.14-.4.21-.75.08-.35-.13-.45-.5-.8-.63-.35-.13-.4-.01-.76-.13-.36-.12-.26-.42-.62-.54-.36-.12-.53.09-.88-.03-.36-.12-.44.5-.8.39-.36-.11-.21-.76-.57-.88-.36-.11-.5.04-.86-.07-.36-.11-.1-.51-.47-.61-.37-.1-.49.32-.85.22-.36-.1-.35-.15-.71-.25-.36-.1-.3-.42-.67-.51-.37-.09-.53.37-.9.28-.36-.09-.6-.59-.63-.6l-.46,1.95s.51-.09.87,0c.36.09.3.33.66.42.36.09.43-.18.78-.08.36.1.26.42.62.51.35.1.4-.49.76-.39.36.1.41.31.76.43.35.11.27.24.62.35.35.11.46-.11.82,0,.35.11.23.52.58.64.35.12.48-.3.83-.18.35.12.3.26.65.38.35.12.28.3.63.43.34.13.49-.36.84-.23.35.13.24.52.58.65.34.14.41-.04.76.1.34.14.3.48.56.59l.76-1.85c-.26-.11-.33.15-.68,0-.35-.14-.29-.28-.64-.42Z"/>
      <path class="st0" d="M84.14,58.61c-.21,0-.17.33-.48.33-.34-.07-.47-.38-.79-.47-.33-.1-.37.04-.7-.06-.34-.12-.24-.42-.58-.54-.33-.12-.51.08-.85-.06-.34-.14-.47.47-.81.32-.34-.15-.13-.78-.46-.93-.34-.15-.5-.01-.84-.17-.34-.15-.03-.52-.37-.67-.34-.15-.52.24-.87.09-.34-.15-.32-.2-.66-.35-.34-.15-.23-.46-.58-.6-.35-.15-.58.28-.93.13-.34-.15-.5-.68-.53-.69l-.76,1.85s.52-.01.86.14c.34.14.24.37.58.52.34.14.45-.11.79.04.34.15.2.45.54.6.34.15.47-.42.81-.27.34.15.37.38.71.53.34.15.24.27.58.42.35.15.48-.05.82.1.35.15.19.54.55.69.36.14.5-.26.86-.13.36.13.31.27.68.4.38.11.33.29.72.41.4.11.48-.42.87-.34.39.08.4.44.92.45.52-.06.47-.29.94-.4.4-.25.76.01,1.06-.29l-1.48-1.42c-.1.1.08.28-.13.4-.22.1-.28-.08-.47-.03Z"/>
      <path class="st0" d="M85.52,48.37c-.03.38.32.32.3.69-.02.38-.34.58-.36.96-.01.38.12.38.11.76,0,.38-.32.38-.33.76-.01.38.25.47.24.84,0,.37.61.27.6.64,0,.37-.68.41-.69.78,0,.37.17.47.16.84-.01.37-.47.22-.49.59-.02.36.42.39.4.76-.02.36-.08.36-.11.72-.04.35-.36.34-.41.67-.05.33.42.43.35.71-.08.29-.57.17-.57.15l1.48,1.42c.05-.03.28-.68.39-1.18.14-.5.37-.45.43-.86.06-.41-.22-.44-.18-.83.03-.38.36-.35.39-.74.02-.38-.56-.3-.54-.67.01-.37.22-.49.23-.86.01-.37.16-.33.17-.7,0-.37-.23-.42-.22-.8,0-.37.43-.37.44-.75,0-.37-.43-.37-.42-.74,0-.37.15-.37.16-.73.01-.37.2-.36.22-.73.02-.37-.5-.35-.48-.73.02-.37.43-.38.45-.75.02-.37-.17-.38-.15-.75.03-.37.37-.43.39-.71l-1.99-.16c-.02.28.24.26.22.64-.03.38-.18.36-.2.74Z"/>
      <path class="st0" d="M81.25,38.31c.02.52.35.38.46.82.12.41-.02.81.28,1.23.32.38.42.28.75.56.34.26.18.52.52.74.33.21.54.03.85.22.3.19.54-.38.84-.17.29.23-.1.77.12.98.21.21.41.16.59.41.16.25-.31.39-.22.57.06.19.49.1.53.41.02.32-.03.32-.04.66-.01.35-.34.35-.36.71-.02.36.45.45.42.82-.03.37-.49.69-.49.71l1.99.16s-.17-.49-.14-.87c.03-.37.28-.35.3-.74.02-.39-.25-.4-.24-.8,0-.4.34-.4.3-.87-.06-.48-.61-.25-.72-.66-.15-.42-.06-.65-.32-1.02-.27-.33-.12-.4-.43-.72-.32-.3-.52-.15-.84-.39-.33-.23-.1-.59-.44-.81-.33-.2-.55.18-.85-.01-.29-.19-.22-.31-.46-.5-.23-.19-.09-.33-.25-.51-.13-.18-.56.09-.69-.2-.1-.31.28-.43.27-.64,0-.23-.19-.25-.13-.55.08-.31.43-.27.52-.52l-1.88-.68c-.1.28.16.32.04.74-.1.43-.26.41-.29.92Z"/>
      <path class="st0" d="M78.83,27.2c.14.34.43.13.57.48.14.34-.07.66.07,1,.14.34.26.29.39.64.13.35-.16.46-.03.81.13.34.4.34.52.69.12.35.66.04.78.39.12.35-.49.61-.39.96.11.35.31.38.42.73.11.35-.37.35-.28.71.09.35.52.24.61.6.09.36.05.37.13.72.08.36-.23.45-.15.8.02.1.08.18.15.22.07.03.15.06.23.09.11.04.22.11.21.22-.04.29-.55.34-.56.4l1.88.68s.08-.67.06-1.17c0-.14-.01-.24,0-.32.01-.11.04-.21.06-.31.03-.08.04-.18,0-.31-.08-.38-.35-.31-.44-.69-.09-.37.23-.44.13-.81-.1-.37-.62-.11-.72-.47-.09-.36.06-.53-.05-.89-.11-.36.05-.36-.06-.73-.11-.36-.36-.33-.48-.69-.12-.36.28-.5.16-.86-.12-.36-.53-.2-.66-.56-.13-.35,0-.4-.13-.76-.13-.35.05-.42-.1-.77-.14-.35-.6-.13-.74-.48-.14-.35.22-.54.07-.89-.15-.35-.33-.27-.47-.62-.15-.35.12-.57,0-.83l-1.83.82c.11.25.34.11.49.45.15.34,0,.4.15.74Z"/>
      <path class="st0" d="M72.9,17.21c.25.26.44-.03.69.24.25.27.17.64.41.91.24.27.34.19.59.47.12.14.12.26.13.39,0,.12.02.26.07.33.15.23.44.19.62.49.18.31.66-.1.84.23.18.33-.37.69-.2,1.02.17.32.38.31.55.64.17.33-.3.43-.13.75.17.32.56.13.73.46.16.33.12.36.28.69.16.33-.13.49.03.82.16.33.62.17.77.51.15.34-.1.83-.09.85l1.83-.82s-.39-.36-.55-.7c-.16-.34.07-.45-.1-.79-.16-.34-.41-.22-.58-.56-.17-.34.13-.48-.04-.82-.17-.34-.63.02-.8-.31-.17-.33-.05-.53-.23-.86-.18-.33-.02-.37-.2-.7-.18-.33-.42-.25-.6-.58-.18-.33.17-.55-.03-.89-.22-.34-.56-.08-.81-.44-.27-.36-.14-.4-.39-.7-.25-.28-.1-.41-.36-.69-.25-.28-.61.08-.86-.2-.25-.28.02-.58-.25-.86-.26-.28-.41-.14-.68-.41-.27-.27-.11-.57-.33-.78l-1.36,1.47c.19.18.35-.03.61.22.26.26.15.36.4.62Z"/>
      <path class="st0" d="M63.02,11.74c.35.07.34-.28.7-.2.36.08.48.43.83.53.34.1.38-.03.73.08.34.11.25.41.58.53.33.12.5-.08.83.06.33.14.47-.47.81-.31.33.16.1.77.41.94.31.17.48.04.79.22.31.18-.04.52.27.69.29.19.54-.17.84.02.29.21.26.25.56.46.29.22.1.49.38.7.27.23.62-.12.9.12.27.24.24.78.25.8l1.36-1.47s-.51-.18-.8-.44c-.3-.25-.14-.44-.44-.69-.31-.24-.48-.02-.79-.25-.32-.22-.12-.49-.44-.72-.33-.21-.55.33-.87.12-.32-.2-.33-.43-.66-.63-.34-.19-.23-.3-.57-.48-.35-.18-.5.03-.84-.14-.35-.17-.19-.55-.55-.71-.36-.15-.51.26-.87.12-.36-.13-.31-.27-.68-.39-.37-.12-.31-.3-.69-.41-.38-.1-.47.4-.84.31-.37-.09-.32-.49-.7-.57-.38-.07-.42.12-.8.05-.19-.03-.3-.13-.39-.23-.1-.1-.2-.2-.25-.2l-.4,1.96c.22.03.28-.03.35-.09.08-.06.17-.11.35-.08.36.06.33.21.68.27Z"/>
    </g>
  </g>
  <g>
    <path d="M86.53,61.26c-.18-.04-.38-.01-.54.06-.16.07-.28.19-.39.34-.1.15-.16.31-.18.48-.03.17-.05.34-.01.49.03.14.13.26.23.36l1.39-1.44c-.14-.15-.33-.24-.5-.28Z"/>
    <path d="M86.07,71.92c.3-.27.01-.45.28-.72.27-.26.65-.24.9-.56.23-.33.13-.4.33-.74.2-.34.47-.21.65-.59.16-.38-.05-.56.07-.94.1-.39-.5-.42-.44-.77.07-.35.74-.3.78-.7.04-.39-.14-.49-.14-.87,0-.38.46-.26.43-.68-.04-.42-.48-.36-.55-.75-.09-.39-.04-.4-.17-.79-.14-.38.14-.53-.06-.92-.22-.38-.65-.16-.89-.47-.23-.3-.2-.87-.23-.89l-1.39,1.44s.42.12.6.36c.17.24-.04.37.1.61.12.24.38.13.49.41.09.29-.23.37-.16.64.05.28.61.1.64.42.03.32-.17.43-.17.75-.01.32-.16.28-.19.59-.03.31.2.38.14.7-.06.32-.5.21-.57.5-.1.27.32.43.19.72-.14.29-.26.23-.42.49-.15.27-.33.15-.49.4-.19.23.22.54,0,.78-.24.24-.53-.03-.77.17-.23.21-.12.35-.38.55-.27.19-.52-.05-.72.08l1.04,1.71c.25-.16.07-.36.39-.57.31-.23.4-.1.71-.35Z"/>
    <path d="M77.24,77.34c.18-.3-.15-.42.03-.72.18-.31.54-.32.72-.62.18-.3.06-.38.24-.68.18-.3.44-.15.62-.45.09-.15-.08-.37.08-.53.17-.12-.2-.67.12-.77.34-.06.48.64.67.64.36.02.48-.17.86-.18.39-.03.29.45.7.4.42-.07.34-.5.72-.59.37-.11.41-.06.76-.2.34-.14.49.16.84,0,.35-.16.19-.62.52-.78.32-.17.85.01.87,0l-1.04-1.71s-.25.4-.55.54c-.29.15-.4-.08-.7.06-.29.14-.2.38-.51.51-.31.12-.39-.2-.67-.13-.27.07-.07.61-.39.67-.32.05-.44-.14-.75-.13-.33,0-.25-.15-.61-.16-.51-.02-.54.21-.98.31-.42.15-.65-.22-1.07.13-.38.38-.04.7-.27,1.05-.18.31-.3.23-.48.53-.18.31-.34.2-.52.51-.18.31.27.55.09.86-.18.31-.54.12-.72.43-.18.31-.01.41-.19.72-.18.29-.51.18-.65.39l1.67,1.1c.15-.23-.09-.35.11-.65.19-.31.31-.22.49-.53Z"/>
    <path d="M69.08,85.7c.31-.2.06-.43.35-.64.3-.2.65-.07.95-.28.3-.21.22-.32.51-.54.29-.22.49.02.77-.22.29-.23.19-.49.46-.73.28-.24-.21-.62.05-.86.26-.24.76.22,1.02-.04.26-.26.2-.45.45-.71.25-.26.5.15.75-.12.25-.28-.07-.57.17-.84.23-.28.28-.24.51-.52.23-.29.5-.1.72-.39.22-.3-.13-.62.07-.92.2-.3.76-.34.77-.36l-1.67-1.1s-.08.48-.27.76c-.2.27-.4.12-.6.4-.21.27,0,.44-.2.71-.22.26-.47.04-.69.3-.22.25.27.56.04.81-.23.26-.46.19-.69.44-.24.24-.32.1-.56.34-.24.24-.11.44-.36.67-.25.23-.55-.09-.8.13-.25.22.03.55-.24.77-.27.22-.36.1-.63.31-.27.21-.39.06-.66.25-.28.2.04.6-.24.79-.29.2-.54-.12-.83.06-.29.18-.18.35-.48.53-.3.18-.54-.06-.76.06l1.01,1.73c.24-.14.07-.35.38-.53.31-.19.39-.05.7-.25Z"/>
    <path d="M58.37,90.25c.35-.09.19-.4.54-.49.34-.1.63.15.98.04.35-.11.31-.23.65-.34.34-.11.45.18.79.06.34-.12.34-.39.68-.51.34-.12.02-.66.36-.78.33-.12.62.48.96.34.34-.13.35-.34.68-.48.33-.14.4.34.73.19.33-.15.16-.55.48-.7.33-.16.35-.11.67-.27.32-.16.49.12.81-.05.32-.17.14-.62.45-.79.31-.17.82.03.84.02l-1.01-1.73s-.28.41-.58.57c-.3.16-.42-.05-.72.11-.3.16-.18.4-.49.56-.31.15-.45-.15-.76,0-.31.14.03.62-.29.77-.32.15-.5,0-.81.14-.32.14-.34-.02-.66.11-.32.13-.27.37-.59.49-.33.12-.48-.27-.8-.16-.32.11-.17.53-.5.64-.33.11-.38-.03-.7.08-.33.1-.39-.08-.72.02-.33.1-.16.57-.5.67-.34.1-.48-.29-.81-.2-.33.09-.29.28-.63.36-.34.08-.5-.23-.75-.17l.44,1.95c.26-.06.17-.31.52-.39.35-.09.38.07.74-.02Z"/>
    <path d="M46.81,91.52c.36.02.3-.32.66-.31.36.01.56.33.93.33.37,0,.37-.13.73-.14.37,0,.39.3.76.28.38-.02.44-.29.81-.33.37-.04.17-.64.53-.68.35-.04.47.62.82.58.35-.04.42-.23.77-.26.35-.04.27.44.63.4.36-.04.32-.47.67-.52.36-.05.37,0,.73-.05.36-.06.43.26.8.19.36-.07.31-.55.66-.63.35-.07.77.27.79.27l-.44-1.95s-.39.3-.73.37c-.34.07-.39-.17-.72-.11-.33.06-.28.33-.62.39-.34.05-.38-.28-.72-.24-.34.04-.17.6-.52.64-.35.04-.48-.15-.83-.11-.35.04-.32-.12-.68-.08-.35.04-.37.28-.73.32-.36.04-.42-.38-.74-.34-.33.03-.28.47-.63.49-.34.02-.35-.13-.69-.12-.34,0-.34-.18-.68-.19-.34,0-.32.5-.67.49-.35-.01-.37-.42-.71-.44-.35-.02-.36.18-.71.15-.35-.02-.41-.36-.68-.38l-.13,2c.26.02.25-.25.6-.22.36.02.34.18.7.2Z"/>
    <path d="M35.41,89.43c.35.11.37-.24.72-.13.34.1.46.46.8.56.35.1.38-.03.73.06.35.09.28.39.63.48.35.09.5-.14.84-.06.35.08.39-.54.73-.45.34.08.25.74.61.82.35.07.48-.09.83-.03.35.06.15.5.51.56.36.06.43-.37.79-.32.36.05.35.1.71.15.36.04.34.37.71.41.37.03.46-.44.82-.41.36.03.66.47.68.48l.13-2s-.48.18-.81.15c-.34-.03-.32-.28-.66-.31-.34-.04-.37.24-.71.2-.34-.04-.29-.37-.63-.42-.34-.05-.32.53-.66.48-.34-.06-.42-.27-.75-.34-.34-.07-.27-.21-.61-.28-.34-.07-.43.16-.77.08-.34-.08-.24-.49-.58-.58-.34-.08-.44.34-.78.25-.34-.09-.3-.23-.64-.32-.34-.09-.29-.27-.62-.37-.33-.1-.44.4-.78.3-.34-.1-.25-.5-.58-.61-.33-.11-.39.08-.72-.03-.33-.11-.3-.46-.54-.55l-.68,1.88c.26.09.31-.17.65-.05.34.12.29.26.64.37Z"/>
    <path d="M25.18,83.78c.27.25.44-.06.72.18.27.24.24.62.53.84.29.23.37.13.66.34.3.21.12.47.43.68.3.21.53.04.83.24.31.2.54-.38.84-.2.3.18,0,.79.33.97.32.18.49.06.8.23.32.17,0,.52.32.68.33.16.52-.22.85-.07.33.15.31.2.64.35.33.14.23.45.56.59.34.14.56-.29.9-.16.33.13.5.64.53.65l.68-1.88s-.49.04-.81-.08c-.32-.12-.23-.36-.54-.49-.31-.13-.43.13-.74-.01-.31-.14-.17-.44-.48-.58-.31-.14-.46.42-.77.26-.31-.16-.32-.37-.62-.54-.3-.16-.19-.28-.49-.44-.3-.17-.45.01-.75-.16-.3-.18-.07-.54-.36-.73-.28-.19-.52.19-.8-.01-.28-.2-.19-.32-.47-.52-.27-.2-.15-.36-.42-.57-.27-.21-.56.21-.83-.02-.26-.23-.02-.55-.27-.78-.25-.23-.38-.09-.63-.32-.25-.24-.06-.54-.24-.72l-1.44,1.39c.19.2.36-.01.61.25.27.25.16.36.43.61Z"/>
    <path d="M18.78,74.07c.17.33.43.09.59.41.15.31-.04.63.11.95.15.32.27.26.42.58.15.32-.13.46.03.79.16.33.43.29.59.62.17.33.66-.05.82.26.17.31-.39.69-.2,1,.19.31.39.29.58.6.2.3-.26.45-.05.76.21.31.57.07.78.36.22.29.17.33.39.62.23.28-.01.5.22.79.24.29.64,0,.88.28.23.27.17.81.18.83l1.44-1.39s-.46-.17-.68-.43c-.22-.26-.04-.41-.25-.67-.21-.26-.43-.09-.64-.35-.2-.27.07-.47-.13-.74-.2-.27-.61.15-.8-.14-.19-.29-.09-.48-.27-.77-.18-.29-.03-.34-.2-.63-.17-.29-.4-.21-.56-.51-.16-.3.22-.51.07-.81-.15-.31-.54-.11-.69-.42-.15-.32-.02-.38-.17-.7-.15-.32.02-.4-.13-.72-.15-.32-.6-.08-.75-.4-.16-.32.19-.53.03-.86-.14-.28-.32-.2-.44-.5-.12-.3.17-.49.1-.72l-1.91.61c.09.28.33.16.46.52.15.36,0,.42.18.78Z"/>
    <path d="M16.75,62.44c-.02.38.32.32.31.69,0,.37-.31.59-.3.96.02.37.15.36.18.73.03.36-.27.4-.24.76.04.36.31.42.35.77.04.36.64.18.68.53.05.35-.6.51-.54.87.06.36.26.41.33.76.07.35-.41.32-.33.67.07.35.5.27.58.61.08.35.02.36.1.7.07.34-.24.43-.17.78.08.36.56.3.65.65.09.35-.22.81-.21.84l1.91-.61s-.32-.34-.4-.67c-.08-.33.17-.38.09-.72-.07-.34-.34-.29-.42-.63-.08-.35.25-.41.18-.76-.07-.34-.61-.12-.69-.46-.07-.34.1-.49.03-.83-.07-.34.09-.33.03-.66-.06-.34-.3-.34-.35-.68-.05-.34.38-.39.34-.74-.04-.35-.47-.29-.51-.64-.03-.35.11-.36.08-.7-.03-.34.16-.35.15-.69-.01-.33-.52-.29-.52-.63,0-.34.41-.36.43-.69.01-.15-.03-.27-.07-.39-.05-.11-.09-.22-.11-.44-.06-.43.23-.64.09-1l-1.84.78c.05.14.3.04.35.28.03.26-.13.22-.14.53Z"/>
    <path d="M16.64,60.88c-.07.15-.09.3-.11.43-.02.12-.03.24,0,.32h0s1.84-.78,1.84-.78h0c-.09-.22-.25-.42-.42-.52-.18-.11-.38-.13-.56-.11-.17.03-.33.11-.46.24-.13.12-.23.28-.3.42Z"/>
  </g>
  <g>
    <path class="st2" d="M16.14,36.97c-.07.13-.1.29-.09.42.01.14.08.26.16.38.09.11.2.19.32.25.12.06.25.12.38.12.13,0,.25-.06.36-.13l-.84-1.36c-.13.08-.24.19-.31.31Z"/>
    <path class="st2" d="M24.32,33.52c-.29.07-.15.32-.43.4-.28.08-.51-.11-.8-.03-.28.08-.25.18-.53.27-.28.09-.36-.14-.64-.06-.28.09-.29.3-.56.4-.28.1-.04.53-.31.62-.29.1-.45-.42-.81-.28-.29.13-.28.29-.55.42-.27.13-.33-.25-.6-.13-.27.13-.12.44-.38.57-.26.13-.28.09-.54.23-.26.14-.4-.09-.66.05-.26.14-.11.5-.37.64-.26.14-.67,0-.69,0l.84,1.36s.22-.33.46-.47c.25-.14.34.04.59-.09.25-.13.15-.33.4-.46.26-.13.37.11.62-.02.25-.13-.03-.5.23-.63.26-.12.41-.02.67-.14.25-.12.3,0,.52-.11.19-.07.22-.28.47-.37.27-.09.39.23.66.14.27-.09.16-.42.43-.5.27-.09.31.02.58-.06.27-.09.32.06.59-.02.27-.08.13-.46.41-.54.28-.08.39.22.67.15.28-.07.24-.22.51-.3.28-.07.41.17.62.12l-.39-1.55c-.21.06-.13.25-.42.33-.28.08-.31-.05-.6.03Z"/>
    <path class="st2" d="M33.58,31.65c-.29.04-.19.3-.48.34-.29.05-.5-.17-.79-.13-.29.05-.27.15-.56.2-.29.04-.34-.19-.63-.14-.29.05-.32.27-.61.32-.29.05-.11.52-.4.57-.29.05-.43-.46-.71-.41-.29.06-.33.22-.61.27-.29.06-.26-.33-.55-.27-.29.06-.22.4-.51.47-.29.06-.3.02-.58.08-.29.06-.36-.18-.65-.12-.29.07-.24.45-.52.52-.28.07-.63-.2-.65-.19l.39,1.55s.32-.25.6-.32c.28-.07.32.13.6.06.28-.07.23-.29.51-.35.28-.06.33.2.61.14.28-.06.1-.49.38-.55.28-.06.4.08.68.02.28-.06.27.07.55.02.28-.05.28-.25.56-.31.28-.05.35.28.63.23.28-.05.22-.39.5-.44.28-.05.3.06.59.02.28-.04.31.11.59.06.28-.04.19-.44.48-.49.29-.05.36.28.65.24.28-.04.26-.19.55-.23.29-.04.39.22.6.19l-.2-1.59c-.22.03-.16.23-.45.27-.29.04-.3-.08-.6-.04Z"/>
    <path class="st2" d="M42.97,30.83c-.29.01-.22.28-.51.29-.29.01-.47-.23-.77-.22-.29.01-.29.12-.58.14-.29.02-.31-.23-.61-.21-.29.02-.35.23-.64.25-.29.02-.17.5-.46.53-.29.02-.37-.51-.66-.48-.29.02-.35.18-.64.2-.29.03-.22-.35-.51-.32-.29.03-.26.38-.55.4-.29.03-.3-.01-.59.01-.29.03-.33-.22-.63-.19-.29.03-.29.42-.58.46-.29.03-.6-.28-.62-.27l.2,1.59s.35-.21.63-.24c.29-.03.31.16.59.13.29-.03.26-.25.55-.29.29-.03.31.24.59.21.28-.03.15-.48.44-.51.29-.03.39.12.68.1.29-.02.26.1.55.08.29-.02.3-.22.59-.24.29-.02.32.32.6.3.29-.02.26-.37.55-.38.29-.02.29.1.58.08.29-.02.3.13.58.12.29-.01.24-.42.53-.43.29-.01.33.31.62.3.29-.01.28-.17.57-.18.29,0,.37.26.58.26l-.04-1.6c-.22,0-.19.21-.48.22-.29,0-.29-.11-.59-.1Z"/>
    <path class="st2" d="M52.39,30.96c-.29-.02-.24.26-.54.24-.29-.02-.45-.28-.74-.29-.29-.01-.3.1-.59.08-.29-.01-.29-.26-.58-.27-.29,0-.37.2-.66.19-.29,0-.22.48-.51.48-.29,0-.32-.55-.61-.55-.29,0-.37.14-.66.14-.29,0-.18-.37-.48-.38-.29,0-.3.35-.59.35-.29,0-.29-.04-.58-.04-.29,0-.31-.26-.6-.26-.29,0-.33.39-.62.4-.29,0-.57-.33-.59-.33l.04,1.6s.37-.17.66-.18c.29,0,.29.19.58.19.29,0,.29-.22.58-.22.29,0,.28.27.57.26.29,0,.2-.46.49-.46.29,0,.38.16.67.17.29,0,.25.13.54.13.29,0,.33-.19.61-.18.29,0,.29.35.57.36.29,0,.29-.34.58-.33.29.01.28.13.57.14.29.01.28.16.57.18.29.01.28-.4.57-.38.29.02.3.34.59.36.29.02.3-.14.58-.12.29.02.34.3.56.31l.11-1.6c-.22-.02-.2.19-.5.17-.29-.02-.28-.14-.57-.16Z"/>
    <path class="st2" d="M61.76,32.03c-.29-.05-.27.23-.56.18-.29-.05-.42-.32-.71-.36-.29-.04-.31.06-.6.02-.29-.04-.26-.29-.55-.33-.29-.04-.39.16-.68.12-.29-.04-.26.46-.55.42-.29-.04-.26-.57-.55-.61-.29-.03-.38.11-.67.08-.29-.03-.15-.39-.44-.42-.29-.03-.33.31-.62.29-.29-.03-.29-.07-.58-.1-.29-.03-.28-.29-.58-.32-.29-.03-.36.36-.66.34-.29-.02-.54-.39-.55-.39l-.11,1.6s.38-.14.67-.12c.29.02.27.22.56.24.29.03.31-.19.59-.17.29.03.26.29.54.32.29.03.25-.44.53-.41.29.03.36.2.64.23.29.03.24.15.52.18.29.03.34-.15.63-.12.29.04.25.38.53.41.28.04.33-.31.61-.27.28.04.27.16.55.2.28.04.26.19.55.23.28.04.32-.36.6-.32.28.05.26.37.54.42.28.05.31-.11.59-.06.28.05.3.33.52.37l.29-1.57c-.22-.04-.23.17-.51.12-.29-.05-.26-.17-.56-.22Z"/>
    <path class="st2" d="M70.94,34.2c-.28-.09-.3.19-.58.11-.28-.08-.37-.38-.66-.45-.28-.08-.31.02-.6-.05-.28-.08-.22-.32-.51-.4-.28-.08-.41.11-.69.04-.28-.07-.32.42-.6.35-.28-.07-.19-.6-.48-.67-.29-.07-.39.06-.67,0-.29-.07-.1-.4-.39-.47-.29-.07-.37.27-.65.21-.29-.06-.28-.1-.56-.16-.29-.06-.25-.32-.54-.38-.29-.06-.4.31-.69.26-.29-.05-.49-.44-.51-.45l-.29,1.57s.4-.09.68-.04c.28.05.24.25.52.31.28.06.33-.16.61-.1.28.06.22.32.5.38.28.06.29-.41.57-.34.28.06.33.24.61.31.28.06.22.18.5.24.28.07.36-.11.64-.04.28.07.2.4.48.47.28.07.36-.27.64-.19.28.08.25.19.52.27.28.08.24.22.51.3.28.08.36-.32.64-.24.28.08.21.4.48.49.27.08.32-.06.6.02.27.08.26.36.46.43l.5-1.52c-.21-.07-.25.14-.53.05-.28-.09-.24-.2-.52-.29Z"/>
    <path class="st2" d="M79.76,37.51c-.28-.11-.32.16-.59.05-.27-.11-.35-.4-.62-.5-.28-.1-.31,0-.59-.1-.28-.1-.2-.33-.47-.43-.27-.1-.4.07-.67-.03-.27-.1-.36.39-.63.28-.27-.11-.11-.62-.38-.73-.27-.11-.39,0-.66-.11-.27-.11-.03-.41-.3-.52-.27-.11-.41.21-.68.1-.27-.11-.26-.15-.53-.26-.27-.11-.19-.36-.47-.46-.28-.1-.45.24-.73.15-.28-.1-.43-.51-.45-.52l-.5,1.52s.4-.04.67.05c.27.1.2.28.46.38.27.1.35-.1.61,0,.27.11.16.35.43.46.27.11.36-.35.63-.24.27.11.29.29.56.4.27.11.19.21.46.32.27.11.37-.06.65.05.27.11.15.43.43.53.28.1.39-.22.67-.12.28.1.24.21.51.31.27.1.22.24.48.34.27.1.39-.29.65-.19.27.1.17.42.44.52.26.11.32-.04.58.08.26.11.22.39.41.48l.66-1.46c-.2-.09-.26.11-.54,0-.27-.12-.22-.23-.5-.34Z"/>
    <path class="st2" d="M81.25,38.52c0-.14-.08-.27-.16-.38-.08-.11-.17-.21-.3-.27h0s-.66,1.46-.66,1.46h0c.12.06.26.09.39.07.13-.02.27-.07.38-.15.11-.08.21-.19.27-.32.06-.13.09-.27.09-.41Z"/>
  </g>
  <g>
    <path class="st2" d="M20.72,39.16c-.04-.11-.13-.21-.23-.29-.1-.08-.23-.14-.37-.17-.14-.04-.28-.04-.4-.01-.13.02-.27.06-.36.14-.09.08-.14.19-.17.31l1.56.36c.02-.11.02-.22-.03-.32Z"/>
    <path class="st2" d="M19.87,46.03c.01-.23-.26-.19-.25-.43.01-.23.27-.35.29-.58.02-.23-.09-.24-.07-.47.02-.23.27-.22.29-.45.02-.23-.18-.31-.16-.54.02-.23-.47-.21-.45-.45.02-.23.56-.21.58-.44.03-.23-.12-.3-.09-.54.03-.23.39-.1.41-.33.03-.23-.32-.28-.28-.51.03-.23.08-.22.11-.45.04-.23.3-.2.34-.42.04-.22-.33-.33-.29-.55.05-.23.43-.36.43-.37l-1.56-.36s.09.35.05.58c-.05.24-.24.2-.29.44-.04.24.18.28.14.52-.04.24-.3.19-.33.43-.03.24.43.23.4.47-.03.24-.2.29-.23.53-.03.24-.15.19-.17.43-.03.24.16.28.14.52-.02.24-.36.21-.39.44-.02.24.33.26.3.5-.02.24-.14.23-.16.46-.02.24-.17.23-.19.46-.02.24.39.25.37.48-.01.24-.34.24-.35.48-.01.24.14.25.14.49,0,.24-.28.29-.28.48l1.6.02c0-.17-.21-.15-.2-.38,0-.23.13-.22.14-.45Z"/>
    <path class="st2" d="M20.67,53.14c-.1-.19-.32-.02-.41-.22-.09-.2.1-.41.04-.6-.06-.19-.16-.16-.21-.37-.05-.22.2-.27.16-.49-.04-.22-.25-.24-.28-.47-.03-.22-.51-.09-.53-.33-.03-.23.5-.32.48-.55-.02-.23-.17-.27-.19-.5-.02-.23.36-.17.35-.4-.01-.23-.36-.22-.37-.45,0-.23.04-.23.03-.47,0-.23.25-.25.25-.49,0-.23-.39-.26-.39-.49,0-.23.34-.44.34-.46l-1.6-.02s.16.32.17.56c0,.24-.2.24-.19.48,0,.24.23.23.23.47,0,.24-.26.24-.25.48,0,.24.47.15.48.39.01.24-.14.32-.13.56.02.24-.11.22-.09.46.02.24.22.25.24.49.03.24-.31.29-.28.53.04.25.38.19.42.43.04.24-.07.26-.02.5.06.25-.09.3-.01.56.09.26.46.1.55.33.1.23-.19.39-.07.62.12.23.26.15.38.37.13.21-.06.41.04.57l1.33-.89c-.09-.14-.26,0-.37-.19-.11-.19,0-.25-.11-.43Z"/>
    <path class="st2" d="M21.13,54.43c.06-.11.08-.24.09-.35,0-.11,0-.22-.07-.31h0s-1.33.89-1.33.89h0c.07.1.16.19.27.23.11.04.25.04.38.02.13-.03.26-.08.37-.17.12-.09.21-.2.28-.31Z"/>
  </g>
  <g>
    <path class="st2" d="M73.13,35.01c.02.11.07.24.14.36.07.11.17.22.29.3.12.08.25.12.39.11.15,0,.31-.03.44-.13.13-.1.23-.28.29-.46l-1.52-.5c-.03.1-.04.21-.02.32Z"/>
    <path class="st2" d="M72.42,26.55c.06.29.31.17.38.47.06.29-.14.52-.08.81.06.29.17.27.23.57.06.3-.18.34-.13.62.04.28.26.32.29.61.03.29.51.15.54.45.03.3-.5.39-.48.68.02.3.18.36.2.66.02.3-.36.22-.33.53.03.31.37.28.4.59.03.31,0,.31.02.6.03.29-.23.32-.23.58,0,.25.39.3.36.57-.03.28-.44.4-.44.4l1.52.5s-.02-.52,0-.86c.03-.34.23-.34.22-.69-.01-.34-.24-.33-.26-.64-.03-.31.23-.34.2-.63-.03-.29-.48-.16-.5-.45-.02-.3.13-.4.11-.7-.02-.3.1-.27.08-.58-.02-.31-.22-.32-.25-.63-.03-.31.31-.35.27-.66-.04-.32-.39-.26-.43-.57-.05-.31.06-.34,0-.63-.06-.3.09-.33.02-.63-.06-.3-.45-.19-.52-.48-.06-.3.25-.4.19-.69-.06-.3-.21-.26-.28-.56-.06-.3.19-.43.14-.66l-1.56.37c.05.22.24.14.31.44.06.3-.06.32,0,.61Z"/>
    <path class="st2" d="M69.68,17.33c.11.28.34.12.45.4.11.28-.06.53.05.82.11.28.21.24.31.53.1.28-.12.37-.02.65.1.28.32.28.42.56.1.28.53.04.63.32.1.29-.4.49-.31.78.09.28.25.31.34.59.09.29-.3.29-.21.57.08.28.42.19.5.48.08.29.04.3.11.59.06.29-.19.37-.13.67.06.29.44.24.51.54.06.29-.22.65-.21.67l1.56-.37s-.24-.35-.3-.64c-.06-.3.13-.34.07-.64-.06-.3-.28-.24-.34-.54-.08-.3.18-.36.1-.66-.08-.3-.5-.08-.58-.37-.08-.29.04-.43-.05-.72-.09-.29.04-.29-.06-.58-.09-.29-.29-.26-.39-.55-.1-.29.22-.41.12-.7-.1-.29-.43-.17-.53-.45-.1-.29,0-.33-.1-.61-.11-.28.04-.34-.07-.62-.11-.29-.48-.11-.59-.4-.11-.28.18-.43.07-.71-.11-.28-.25-.23-.39-.5-.13-.28.08-.45-.02-.67l-1.46.65c.1.2.28.09.4.35.13.27.02.3.13.58Z"/>
    <path class="st2" d="M69.21,15.61c-.08.11-.11.26-.12.39-.01.13,0,.27.06.39h0s1.46-.65,1.46-.65h0c-.07-.14-.16-.26-.27-.34-.12-.08-.26-.13-.4-.14-.13-.01-.28.01-.41.08-.13.06-.24.16-.32.27Z"/>
  </g>
  <g>
    <path class="st2" d="M64.74,11.68c-.06-.1-.14-.21-.23-.3-.09-.09-.22-.17-.35-.22-.13-.05-.28-.05-.41,0-.14.05-.3.13-.39.3-.09.16-.13.4-.12.62l1.6-.11c0-.1-.03-.19-.09-.28Z"/>
    <path class="st2" d="M67.17,20.9c-.06-.33-.31-.21-.37-.53-.06-.32.15-.56.09-.89-.06-.33-.17-.31-.24-.63-.07-.32.17-.39.09-.71-.07-.33-.3-.35-.38-.68-.08-.32-.53-.1-.61-.42-.08-.32.42-.5.33-.82-.09-.32-.26-.35-.35-.67-.1-.32.29-.31.19-.63-.1-.32-.44-.21-.54-.53-.11-.31-.07-.33-.18-.64-.11-.31.13-.42,0-.73-.11-.3-.51-.23-.61-.51-.1-.29.23-.54.23-.54l-1.6.11c0,.05.23.55.37.89.12.32-.07.37.05.68.11.3.32.22.43.53.11.3-.15.39-.04.69.1.3.51.07.61.37.1.31-.02.45.07.76.09.31-.04.31.05.61.09.31.28.29.37.6.08.31-.25.4-.17.71.08.31.42.22.49.54.07.31-.04.34.03.65.06.31-.08.34-.02.66.06.31.45.21.51.53.06.32-.26.41-.2.73.06.32.21.29.26.61.05.32-.2.44-.16.68l1.58-.24c-.04-.25-.24-.18-.29-.51-.05-.33.07-.34.01-.67Z"/>
    <path class="st2" d="M67.86,31.58c.03-.35-.25-.29-.23-.63.02-.33.27-.53.27-.86,0-.33-.11-.33-.11-.66,0-.33.25-.33.23-.67-.02-.33-.23-.41-.25-.74-.02-.33-.5-.22-.52-.55-.02-.33.51-.39.49-.72-.02-.33-.17-.4-.19-.73-.02-.33.36-.23.34-.56-.02-.33-.37-.32-.39-.65-.03-.33.02-.34-.01-.67-.03-.33.22-.38.18-.71-.04-.33-.43-.33-.47-.66-.05-.33.25-.68.24-.7l-1.58.24s.23.39.27.71c.04.32-.16.34-.12.66.04.32.26.29.29.61.03.32-.24.34-.21.65.02.31.47.19.49.51.02.32-.14.43-.12.76.02.32-.11.29-.09.61.02.32.21.35.23.68.02.32-.32.34-.3.66.02.32.37.31.39.63.02.32-.11.33-.11.65,0,.32-.15.32-.15.64,0,.32.4.29.39.62-.01.32-.34.33-.36.64-.03.31.13.32.09.63-.04.31-.33.33-.37.55l1.56.34c.05-.26-.16-.27-.1-.61.05-.34.17-.33.21-.67Z"/>
    <path class="st2" d="M67.16,33.56c.14-.04.26-.15.37-.27.1-.12.19-.26.23-.43h0s-1.56-.34-1.56-.34h0c-.03.14-.04.28,0,.41.04.13.11.26.21.37.09.1.21.19.35.24.14.05.28.05.42.01Z"/>
  </g>
  <g>
    <path class="st2" d="M59.9,10.53c-.07-.12-.17-.22-.28-.3-.11-.08-.25-.12-.4-.13-.14-.01-.28.02-.4.09-.12.07-.26.16-.33.3-.07.14-.09.31-.09.48l1.6-.06c0-.14-.04-.27-.1-.39Z"/>
    <path class="st2" d="M60.7,19.9c0-.32-.28-.24-.29-.56,0-.32.23-.51.23-.83,0-.32-.12-.31-.12-.63,0-.32.24-.34.23-.66-.02-.32-.23-.39-.25-.71-.02-.32-.5-.19-.52-.5-.02-.31.51-.41.49-.73-.02-.32-.17-.38-.2-.7-.04-.32.34-.26.29-.59-.05-.32-.4-.27-.45-.58-.06-.31-.01-.32-.07-.63-.05-.31.2-.37.15-.67-.04-.3-.43-.29-.47-.59-.03-.31.3-.6.3-.61l-1.6.06s.19.44.23.76c.04.33-.16.35-.11.68.05.32.27.29.33.6.06.31-.21.35-.15.66.05.3.49.13.54.44.05.31-.09.42-.06.72.02.31-.1.29-.08.59.02.31.21.33.23.64.02.31-.32.34-.3.65.02.31.37.28.39.59,0,.31-.11.32-.1.63,0,.31-.14.32-.13.63,0,.31.41.27.42.58,0,.31-.32.35-.31.66,0,.31.16.31.17.62,0,.31-.26.39-.25.63h1.6c0-.24-.22-.21-.22-.53,0-.32.12-.32.11-.64Z"/>
    <path class="st2" d="M60.45,30.12c.03-.32-.25-.27-.21-.58.03-.32.3-.48.33-.8.04-.32-.08-.32-.07-.64.01-.32.26-.31.27-.63.01-.32-.19-.4-.18-.72.01-.32-.48-.24-.47-.56.01-.31.55-.34.56-.65.01-.32-.13-.4-.12-.71.01-.32.38-.19.39-.51.01-.32-.34-.33-.33-.65.01-.32.04-.32.04-.63,0-.32.25-.33.24-.65,0-.32-.4-.37-.4-.68,0-.32.33-.61.33-.63h-1.6s.18.41.18.72c0,.31-.19.31-.18.62,0,.31.23.32.24.63,0,.31-.25.3-.26.61-.01.31.45.23.44.54-.01.31-.17.41-.19.72-.01.31-.13.27-.14.58-.01.31.18.36.17.67-.01.31-.35.31-.36.62-.01.31.34.32.33.64-.01.31-.13.31-.14.62-.01.31-.16.31-.19.62-.03.31.38.31.35.62-.03.31-.36.32-.39.63-.03.31.12.32.09.64-.03.31-.31.37-.33.6l1.59.13c.02-.24-.19-.22-.16-.54.03-.32.15-.3.19-.62Z"/>
    <path class="st2" d="M59.95,31.99c.13-.06.23-.18.31-.3.08-.12.15-.25.16-.4h0s-1.59-.13-1.59-.13h0c-.02.15,0,.31.05.43.06.13.16.25.27.33.11.08.25.13.39.15.14.01.29-.01.41-.08Z"/>
  </g>
  <g>
    <path class="st2" d="M55.6,10.2c-.06-.14-.17-.27-.29-.35-.12-.08-.26-.1-.4-.1-.14,0-.28.05-.39.11-.12.07-.25.14-.33.25-.07.11-.11.25-.12.39l1.59.17c.02-.16,0-.34-.06-.47Z"/>
    <path class="st2" d="M54.32,19.61c.05-.31-.23-.3-.18-.61.05-.31.32-.46.37-.77.05-.32-.06-.33-.01-.65.05-.31.29-.29.34-.61.05-.31-.14-.42-.1-.73.04-.3-.46-.27-.41-.58.05-.31.58-.27.63-.58.05-.31-.09-.41-.04-.72.04-.32.4-.15.44-.48.04-.33-.31-.37-.28-.69.03-.32.07-.3.1-.6.04-.3.3-.28.35-.58.05-.31-.32-.41-.28-.73.05-.31.42-.58.43-.6l-1.59-.17s.12.39.07.7c-.05.31-.24.27-.29.59-.05.32.17.35.13.68-.04.31-.3.33-.33.62-.03.29.44.25.4.55-.04.3-.21.38-.25.68-.05.31-.16.25-.21.56-.05.31.14.38.09.69-.04.32-.38.28-.42.6-.04.31.3.34.26.65-.05.31-.16.29-.21.6-.05.31-.2.28-.24.59-.05.3.36.34.31.65-.05.31-.37.28-.42.58-.05.31.1.34.05.64-.05.31-.33.33-.37.56l1.57.32c.04-.23-.17-.24-.12-.56s.17-.28.23-.6Z"/>
    <path class="st2" d="M52.88,29.58c.04-.31-.24-.28-.19-.59.04-.31.3-.46.34-.77.04-.31-.07-.33-.03-.64.04-.31.28-.28.32-.59.04-.31-.16-.42-.12-.73.03-.31-.45-.3-.4-.61.05-.31.58-.28.62-.6.04-.31-.1-.41-.06-.72.04-.31.39-.15.43-.46.04-.31-.31-.36-.26-.66.05-.3.09-.3.14-.6.05-.3.31-.26.37-.56.05-.31-.32-.44-.26-.75.05-.31.44-.53.44-.55l-1.57-.32s.09.43.04.74c-.05.31-.25.26-.3.57-.07.33.15.37.09.69-.05.32-.31.27-.36.59-.04.32.42.29.38.6-.04.31-.21.39-.25.7-.04.31-.16.26-.19.56-.04.3.15.37.1.67-.05.3-.39.25-.42.56-.04.31.31.36.27.68-.04.31-.15.29-.19.61-.04.31-.19.29-.22.6-.04.31.37.34.33.65-.04.31-.37.29-.41.61-.04.32.11.34.07.65-.04.32-.31.37-.33.63l1.6.12c.02-.22-.19-.21-.16-.51.04-.3.16-.28.2-.59Z"/>
    <path class="st2" d="M52.42,31.35c.12-.07.21-.18.28-.3.07-.11.13-.23.14-.37h0s-1.6-.12-1.6-.12h0c-.01.16,0,.33.07.46.06.14.18.25.3.33.12.07.26.11.4.11.14,0,.29-.04.4-.11Z"/>
  </g>
  <g>
    <path class="st2" d="M50.57,10.39c-.07-.19-.2-.34-.33-.41-.13-.07-.28-.06-.42-.03-.14.04-.26.11-.36.19-.1.08-.23.15-.3.23-.07.07-.1.15-.12.25l1.54.42c.06-.22.06-.46-.01-.65Z"/>
    <path class="st2" d="M46.17,19.43c.12-.3-.16-.34-.03-.64.13-.3.43-.38.56-.68.13-.3.03-.34.17-.64.14-.3.36-.2.5-.49.14-.29-.01-.45.13-.74.15-.29-.34-.42-.19-.71.15-.29.64-.09.8-.37.15-.29.06-.42.22-.71.16-.28.43,0,.58-.28.16-.28-.14-.46.03-.74.17-.28.2-.26.37-.53.17-.27.38-.12.57-.4.19-.28-.1-.54.08-.84.18-.3.62-.57.63-.62l-1.54-.42s.08.31-.08.57c-.15.25-.32.13-.5.4-.19.27-.02.42-.19.7-.17.28-.4.14-.57.43-.17.29.28.43.11.72-.16.29-.35.3-.52.59-.16.29-.25.2-.41.49-.16.29,0,.42-.16.71-.15.3-.46.15-.61.45-.15.3.17.45.03.75-.14.3-.25.25-.39.55-.14.3-.28.24-.41.55-.13.31.25.44.12.74-.13.3-.44.21-.57.52-.12.31.02.37-.1.68-.12.31-.4.29-.49.52l1.5.56c.09-.23-.12-.27,0-.58.12-.31.23-.26.35-.56Z"/>
    <path class="st2" d="M43.35,29.43c.04-.31-.24-.28-.19-.6.05-.32.33-.46.39-.77.06-.31-.04-.34.02-.65.07-.32.31-.27.39-.58.07-.31-.11-.44-.03-.76.08-.32-.42-.34-.34-.66.08-.32.61-.23.7-.54.08-.31-.04-.43.05-.74.09-.31.41-.1.51-.4.09-.31-.24-.42-.14-.73.1-.31.14-.3.24-.6.1-.31.36-.24.46-.55.11-.31-.24-.48-.13-.79.11-.31.54-.47.55-.49l-1.5-.56s0,.46-.11.77c-.11.31-.3.24-.41.56-.11.32.1.39,0,.7-.1.32-.36.23-.46.55-.1.32.37.36.27.68-.1.32-.28.37-.37.69-.09.32-.2.25-.28.57-.09.32.09.4,0,.72-.08.32-.42.24-.5.56-.08.32.26.4.18.72-.08.32-.19.3-.26.62-.07.33-.22.3-.28.63-.06.33.34.37.29.7-.05.33-.38.32-.42.65-.04.34.11.36.08.69-.03.34-.3.41-.31.67l1.6.06c.01-.23-.2-.21-.18-.53.02-.32.15-.3.18-.61Z"/>
    <path class="st2" d="M42.94,31.3c.12-.08.2-.2.27-.33.07-.12.12-.26.13-.4h0s-1.6-.06-1.6-.06h0c0,.17.02.34.09.47.07.14.19.25.31.33.12.07.26.11.4.11.14,0,.29-.05.4-.13Z"/>
  </g>
  <g>
    <path class="st2" d="M45.19,11.48c-.05-.2-.16-.35-.28-.44-.12-.09-.27-.1-.41-.09-.14.01-.27.08-.38.15-.12.07-.25.14-.32.22-.08.08-.12.17-.16.27l1.5.55c.08-.22.1-.47.05-.66Z"/>
    <path class="st2" d="M39.23,20.19c.18-.29-.09-.37.08-.66.18-.29.5-.33.68-.62.18-.29.09-.34.28-.63.19-.28.4-.16.59-.44.19-.28.07-.47.26-.74.2-.28-.26-.48-.06-.76.2-.28.66,0,.86-.27.2-.27.14-.43.34-.7.21-.27.43.05.64-.21.21-.26-.06-.49.16-.75.22-.26.25-.23.47-.49.22-.26.43-.1.65-.35.23-.26-.05-.52.21-.82.25-.3.72-.56.73-.6l-1.5-.55s.05.33-.13.53c-.21.24-.38.12-.61.38-.23.27-.07.41-.29.68-.23.27-.43.09-.65.36-.22.27.2.48-.02.75-.22.27-.41.26-.62.53-.21.28-.28.17-.49.45-.21.28-.08.43-.28.71-.2.28-.49.09-.69.38-.2.29.09.48-.1.77-.19.29-.29.22-.48.51-.19.29-.32.21-.51.5-.19.29.17.48,0,.78-.18.29-.48.15-.66.45-.18.3-.05.38-.22.68-.17.3-.45.25-.58.48l1.4.77c.12-.22-.08-.3.09-.59.17-.3.28-.23.45-.52Z"/>
    <path class="st2" d="M35.07,30.25c.1-.33-.18-.33-.08-.66.1-.33.39-.45.49-.77.1-.33,0-.36.1-.69.1-.33.33-.25.43-.58.1-.32-.07-.47.03-.8.11-.32-.38-.39-.26-.72.12-.32.64-.17.76-.49.13-.31.02-.45.15-.76.13-.31.43-.06.56-.37.13-.31-.18-.46-.04-.77.14-.31.18-.29.33-.6.15-.31.39-.21.54-.51.15-.3-.17-.52-.01-.82.16-.3.61-.41.62-.43l-1.4-.77s-.07.48-.24.79c-.16.31-.34.22-.5.53-.16.32.04.41-.11.73-.15.31-.39.2-.54.52-.14.32.32.41.18.73-.14.32-.33.36-.46.68-.13.32-.23.24-.36.56-.13.32.04.43-.09.76-.12.33-.46.21-.56.54-.1.34.23.45.13.78-.1.33-.21.29-.31.63-.1.33-.25.29-.35.62-.1.34.3.42.2.76-.1.33-.42.27-.52.61-.1.33.05.38-.05.71-.11.35-.38.51-.39.82h1.6c0-.19-.22-.19-.17-.42.1-.33.22-.29.32-.62Z"/>
    <path class="st2" d="M34.57,32.07c.12-.09.2-.25.25-.39.06-.14.1-.28.1-.41h0s-1.6,0-1.6,0h0c0,.2.04.38.12.51.08.13.2.23.32.3.12.07.26.11.4.11.14,0,.29-.04.4-.13Z"/>
  </g>
  <g>
    <path class="st2" d="M36.58,16.59c.03-.14.03-.29,0-.42-.04-.13-.12-.25-.22-.35-.1-.1-.23-.16-.36-.19-.14-.03-.29-.06-.42-.02-.13.04-.26.13-.36.24l1.16,1.1c.1-.1.18-.23.21-.36Z"/>
    <path class="st2" d="M31.06,23.55c.16-.25-.1-.35.06-.59.17-.25.47-.26.64-.5.17-.24.08-.31.25-.55.17-.24.38-.1.55-.35.18-.24.05-.42.23-.66.18-.24-.27-.46-.08-.7.18-.24.63.06.81-.18.19-.23.11-.38.3-.61.19-.23.41.09.6-.14.19-.23-.07-.45.12-.68.19-.23.23-.2.42-.42.2-.22.4-.06.6-.28.2-.22-.06-.51.15-.73.21-.22.64-.18.66-.2l-1.16-1.1s-.15.4-.36.62c-.21.23-.35.09-.56.32-.21.23-.04.38-.24.61-.2.23-.4.05-.6.28-.2.23.21.46.02.69-.19.23-.38.21-.57.44-.19.24-.26.13-.45.37-.19.24-.06.39-.25.63-.19.24-.46.04-.65.29-.18.25.1.45-.08.69-.18.25-.27.18-.45.43-.18.25-.3.16-.47.41-.18.25.18.46.01.71-.17.25-.46.1-.62.35-.17.26-.04.34-.2.6-.16.26-.43.18-.55.38l1.36.84c.12-.19-.08-.27.08-.53.16-.25.26-.18.42-.43Z"/>
    <path class="st2" d="M26.93,32.08c.08-.27-.2-.29-.11-.57.09-.28.38-.37.48-.64.1-.28,0-.31.1-.59.11-.28.34-.19.45-.47.11-.27-.05-.42.06-.69.12-.27-.37-.38-.24-.66.13-.27.63-.09.75-.35.13-.27.03-.4.16-.66.13-.27.41,0,.55-.27.13-.26-.17-.43-.03-.69.14-.26.18-.24.32-.5.15-.26.38-.14.53-.4.15-.26-.17-.49,0-.74.15-.26.59-.32.6-.33l-1.36-.84s-.06.43-.22.69c-.16.26-.33.16-.48.43-.15.27.04.38-.11.64-.15.27-.38.13-.53.41-.14.27.3.4.16.67-.14.27-.32.28-.46.56-.13.27-.23.19-.36.47-.13.28.03.39-.1.67-.12.28-.44.15-.56.43-.12.29.21.41.09.7-.11.28-.22.24-.33.53-.11.29-.25.24-.35.53-.1.29.29.4.19.69-.09.29-.41.21-.51.52-.09.31.06.35-.01.68-.05.34-.33.41-.33.72l1.6-.05c0-.15-.22-.14-.18-.38.05-.25.17-.22.24-.48Z"/>
    <path class="st2" d="M26.59,33.51c.09-.1.15-.2.2-.29.05-.09.09-.17.09-.27h0s-1.6.05-1.6.05h0c0,.19.06.4.16.54.1.14.26.24.4.27.14.03.29.01.42-.05.13-.06.25-.15.34-.24Z"/>
  </g>
  <g>
    <path class="st2" d="M74.82,38.56c-.08-.09-.2-.17-.32-.2-.12-.04-.26-.03-.41,0-.14.03-.27.09-.38.16-.11.08-.23.16-.29.27-.06.1-.07.22-.05.33l1.59-.21c-.01-.13-.06-.25-.14-.34Z"/>
    <path class="st2" d="M74.85,46.06c.02-.25-.26-.22-.24-.46.02-.25.28-.37.29-.62.02-.25-.09-.26-.08-.5.01-.25.26-.24.27-.49.01-.25-.19-.32-.18-.56,0-.25-.48-.19-.48-.43,0-.24.54-.27.55-.52,0-.25-.14-.31-.14-.56,0-.25.37-.16.37-.41,0-.25-.35-.25-.35-.5,0-.25.04-.25.04-.5,0-.25.24-.27.21-.53-.03-.26-.42-.27-.45-.52-.03-.25.29-.53.28-.55l-1.59.21s.2.28.22.51c.03.23-.17.24-.15.47.02.23.26.22.26.46,0,.24-.26.24-.26.48,0,.24.46.17.46.41,0,.24-.16.32-.16.56,0,.24-.13.21-.13.45,0,.24.19.27.18.52,0,.24-.35.24-.36.48,0,.24.34.25.33.49-.01.24-.13.24-.14.48-.01.24-.17.23-.18.47-.02.24.39.25.37.49-.02.24-.35.24-.37.48-.02.24.13.25.11.5-.02.24-.3.27-.32.45l1.59.16c.02-.19-.19-.18-.17-.43.02-.25.15-.23.17-.48Z"/>
    <path class="st2" d="M73.07,53.97c.11-.23-.16-.3-.05-.53.1-.23.39-.27.49-.51.09-.24,0-.28.08-.52.08-.24.32-.17.4-.42.08-.25-.11-.37-.04-.61.06-.25-.43-.29-.37-.53.06-.24.59-.16.64-.41.05-.25-.08-.34-.04-.59.04-.25.39-.1.43-.35.04-.25-.31-.3-.27-.55.03-.25.08-.24.11-.49.03-.25.29-.23.32-.47.03-.25-.35-.33-.32-.57.03-.24.39-.44.39-.45l-1.59-.16s.13.33.1.57c-.03.24-.23.22-.26.45-.03.24.19.27.16.51-.03.24-.29.2-.33.44-.03.24.43.23.4.47-.04.24-.2.29-.25.52-.04.23-.16.18-.21.41-.05.23.13.3.08.53-.06.23-.39.15-.45.37-.06.22.28.32.2.54-.07.23-.18.19-.26.41-.08.22-.22.17-.3.38-.09.21.3.35.2.57-.1.22-.4.1-.5.31-.1.21.04.28-.07.49-.11.21-.37.13-.46.28l1.39.8c.1-.17-.1-.25.02-.48.12-.23.23-.17.34-.4Z"/>
    <path class="st2" d="M72.06,55.16c.13.01.26-.03.37-.08.11-.05.21-.12.27-.23h0s-1.39-.8-1.39-.8h0c-.06.1-.09.21-.08.32.01.11.06.24.14.35.07.11.17.21.29.29.12.08.26.13.39.14Z"/>
  </g>
  <g>
    <path class="st2" d="M64.8,35.61c-.08-.09-.2-.16-.32-.2-.12-.04-.27-.04-.41-.03-.14.02-.27.07-.38.14-.11.07-.23.15-.29.26-.06.1-.06.22-.05.34l1.59-.18c-.01-.12-.06-.23-.14-.32Z"/>
    <path class="st2" d="M64.71,42.96c.03-.23-.25-.22-.21-.45.03-.25.3-.29.34-.59.03-.29-.08-.3-.07-.56,0-.26.24-.27.24-.5,0-.22-.21-.27-.2-.48.02-.19-.47-.19-.44-.43.03-.24.56-.22.58-.48.02-.25-.13-.32-.12-.57,0-.25.38-.16.37-.41,0-.26-.35-.25-.36-.5,0-.25.03-.25.02-.5-.02-.25.24-.28.22-.53-.02-.25-.41-.25-.43-.49-.03-.24.29-.51.29-.52l-1.59.18s.2.29.22.52c.02.23-.18.25-.16.48.02.23.24.22.25.45.01.23-.25.24-.24.47,0,.23.47.15.47.38,0,.23-.16.3-.17.53-.01.23-.13.2-.14.42-.02.22.17.27.15.5-.02.21-.38.2-.39.5-.01.29.34.28.34.53,0,.24-.11.25-.11.47,0,.21-.16.21-.17.38-.03.17.37.27.33.5-.03.24-.36.22-.4.46-.03.24.12.26.09.51-.03.24-.3.27-.32.46l1.59.16c.02-.18-.19-.17-.17-.41.03-.24.15-.22.18-.45Z"/>
    <path class="st2" d="M63.26,50.67c.07-.23-.2-.26-.13-.49.07-.23.35-.29.42-.53.07-.23-.03-.27.04-.5.07-.24.31-.17.37-.41.07-.24-.12-.35-.06-.59.06-.24-.43-.28-.38-.52.05-.23.58-.16.63-.41.04-.25-.09-.33-.05-.57.04-.24.39-.1.43-.35.03-.25-.31-.3-.28-.54.03-.24.07-.24.1-.48.03-.24.29-.23.31-.47.02-.24-.36-.31-.33-.55.02-.24.39-.42.39-.44l-1.59-.16s.13.33.11.57c-.02.24-.22.22-.24.46-.02.24.2.26.17.5-.02.24-.29.2-.32.43-.03.23.44.22.41.45-.03.23-.2.28-.24.51-.04.23-.16.18-.19.41-.05.22.14.29.09.52-.05.23-.39.15-.44.38-.06.22.28.31.22.53-.06.23-.17.2-.24.42-.07.23-.21.18-.28.41-.07.23.33.32.25.55-.07.23-.39.15-.46.38-.07.23.07.28,0,.5-.07.23-.35.2-.4.38l1.52.49c.05-.17-.15-.21-.08-.44.07-.23.19-.19.26-.42Z"/>
    <path class="st2" d="M62.53,51.95c.13-.02.24-.08.34-.15.09-.07.17-.15.21-.26h0s-1.52-.49-1.52-.49h0c-.04.11-.04.23,0,.34.04.11.12.23.22.31.1.09.22.16.36.2.14.04.28.06.41.04Z"/>
  </g>
  <g>
    <path class="st2" d="M54.99,32.24c-.07-.1-.18-.18-.3-.24-.12-.06-.26-.08-.4-.08-.14,0-.28.04-.39.1-.12.06-.25.14-.31.25-.06.11-.08.24-.08.37l1.6-.07c0-.12-.04-.24-.11-.34Z"/>
    <path class="st2" d="M55.1,39.95c.01-.26-.26-.21-.25-.47.01-.26.27-.4.28-.66.01-.26-.1-.26-.08-.52.01-.26.26-.26.27-.52.01-.26-.19-.32-.18-.58.01-.26-.48-.18-.47-.44,0-.26.53-.3.53-.57,0-.26-.16-.32-.17-.58-.01-.26.36-.19.35-.45-.02-.26-.37-.24-.38-.5-.02-.26.02-.26,0-.52-.02-.26.24-.29.22-.54-.02-.25-.4-.26-.42-.52-.02-.25.32-.5.32-.52l-1.6.07s.18.33.2.59c.02.26-.18.27-.16.53.02.26.24.24.26.5.02.26-.25.27-.23.52.02.25.47.14.49.4.02.25-.14.34-.13.59.01.25-.11.23-.1.47,0,.25.2.27.2.52,0,.25-.35.26-.36.51-.01.25.34.25.33.51-.01.26-.13.25-.14.51-.01.25-.16.25-.18.51-.01.25.4.24.38.49-.01.26-.34.27-.35.53-.01.25.14.26.13.51-.01.26-.28.31-.29.5l1.6.05c0-.19-.2-.17-.19-.43.01-.26.14-.25.15-.51Z"/>
    <path class="st2" d="M54.56,48.3c.04-.26-.24-.25-.2-.5.04-.26.3-.38.34-.64.03-.26-.08-.28-.05-.54.02-.26.27-.26.28-.52.01-.26-.19-.33-.18-.59.01-.26-.48-.21-.47-.46.01-.26.55-.26.56-.52.01-.26-.13-.33-.12-.58.01-.26.38-.15.39-.41.01-.26-.34-.28-.32-.54.01-.26.06-.26.07-.51.01-.26.27-.26.29-.52.01-.26-.37-.31-.36-.56.01-.26.37-.49.37-.5l-1.6-.05s.15.33.14.59c-.01.25-.21.25-.22.5-.01.25.21.26.2.52-.01.25-.28.24-.29.49-.01.25.45.2.44.45-.01.25-.17.33-.19.58-.01.25-.13.22-.14.47-.01.25.18.3.17.55-.01.26-.35.24-.36.49-.01.25.34.27.33.53-.01.26-.13.24-.15.49-.02.25-.17.23-.2.48-.03.24.38.27.34.52-.04.25-.36.23-.4.47-.04.25.11.27.07.52-.04.25-.32.26-.36.45l1.57.3c.04-.19-.18-.21-.13-.46.05-.26.17-.23.21-.49Z"/>
    <path class="st2" d="M53.98,49.78c.13-.04.23-.12.32-.21.09-.09.16-.19.18-.31h0s-1.57-.3-1.57-.3h0c-.02.12-.02.25.03.36.05.11.14.22.25.3.1.08.24.14.38.17.14.03.29.02.41-.01Z"/>
  </g>
  <g>
    <path class="st2" d="M82.23,41.97c-.07-.1-.18-.18-.31-.24-.12-.05-.26-.07-.41-.06-.14,0-.27.05-.39.11-.12.06-.24.13-.31.23-.06.1-.08.22-.08.34l1.6-.05c0-.12-.04-.24-.11-.34Z"/>
    <path class="st2" d="M82.05,49.4c.01-.24-.26-.21-.24-.45.02-.25.27-.38.29-.62.02-.25-.09-.25-.08-.5.01-.25.26-.24.27-.49.01-.25-.19-.32-.18-.57.01-.25-.48-.19-.47-.44.01-.25.54-.26.55-.51,0-.25-.14-.31-.13-.56,0-.25.37-.15.38-.4,0-.25-.34-.26-.34-.51,0-.25.05-.25.05-.5,0-.25.26-.26.26-.51,0-.25-.39-.28-.39-.53,0-.25.33-.49.33-.5l-1.6.05s.17.31.18.55c0,.24-.2.24-.19.49,0,.24.22.24.22.49,0,.24-.27.24-.27.48,0,.24.46.17.45.42,0,.24-.17.32-.17.56,0,.24-.13.21-.14.45,0,.24.18.28.17.52-.01.24-.35.23-.36.48-.01.24.34.25.33.5-.01.24-.13.24-.14.48-.01.24-.17.23-.18.48-.01.24.39.25.38.49-.02.24-.34.25-.36.5-.01.25.14.26.13.5-.01.25-.29.29-.3.48l1.6.08c0-.18-.2-.17-.19-.42.01-.25.14-.24.15-.48Z"/>
    <path class="st2" d="M80.39,57.48c.18-.24-.08-.34.07-.57.14-.23.43-.27.55-.53.1-.26,0-.3.09-.55.08-.25.32-.19.39-.45.06-.26-.13-.37-.07-.61.05-.25-.44-.27-.4-.51.04-.24.58-.18.62-.44.04-.25-.1-.34-.06-.59.03-.25.39-.12.42-.37.03-.26-.32-.29-.3-.54.02-.25.07-.25.08-.5.02-.25.28-.24.3-.49.01-.25-.37-.31-.35-.55.01-.25.37-.46.37-.47l-1.6-.08s.15.33.13.57c-.01.24-.21.23-.23.47-.02.24.21.26.19.5-.02.24-.28.21-.3.45-.02.24.44.21.42.45-.03.24-.19.3-.22.53-.04.23-.15.19-.19.42-.04.23.15.29.1.53-.05.24-.38.18-.43.41-.05.23.29.3.24.53-.06.22-.17.19-.24.41-.07.21-.21.16-.29.35-.08.19.29.34.19.55-.11.2-.4.04-.52.2-.12.16,0,.26-.15.41-.01.01-.03.03-.04.03-.2.15-.45.12-.57.31l1.38.82c.06-.1-.12-.21-.03-.31,0,0,.02-.02.02-.02.18-.18.27-.11.46-.33Z"/>
    <path class="st2" d="M79.22,58.49c.14.03.31-.03.44-.11.13-.07.23-.16.28-.24h0s-1.38-.82-1.38-.82h0c-.07.12-.09.22-.07.31.03.09.09.19.15.29.06.1.13.23.22.34.09.11.21.2.35.22Z"/>
  </g>
  <g>
    <path class="st2" d="M44.61,32.12c-.06-.11-.15-.21-.26-.29-.11-.07-.25-.11-.39-.13-.14-.02-.28,0-.4.05-.13.04-.26.1-.34.19-.08.09-.12.21-.13.33l1.59.21c.02-.12,0-.25-.06-.36Z"/>
    <path class="st2" d="M43.46,39.49c.02-.24-.25-.22-.23-.46.03-.25.29-.36.32-.6.03-.24-.08-.26-.04-.5.03-.24.28-.21.32-.45.04-.24-.15-.34-.11-.58.04-.25-.45-.25-.41-.49.04-.25.58-.19.62-.44.04-.24-.09-.33-.05-.57.04-.24.39-.1.44-.33.04-.23-.3-.3-.25-.55.05-.25.09-.24.14-.49.05-.25.31-.22.35-.48.04-.26-.33-.35-.3-.6.04-.25.41-.44.41-.45l-1.59-.21s.12.34.09.58c-.04.24-.23.21-.27.45-.04.24.18.28.13.52-.05.24-.31.18-.36.42-.05.25.41.26.37.51-.05.25-.22.3-.26.55-.04.25-.16.2-.2.44-.04.25.14.31.1.55-.04.25-.38.2-.43.44-.04.25.3.3.26.55-.04.25-.15.23-.19.49-.04.25-.19.23-.22.49-.03.25.38.28.35.53-.03.25-.35.24-.38.5-.02.25.13.27.11.52-.02.25-.29.3-.31.49l1.6.1c.01-.18-.2-.17-.18-.42.02-.25.14-.23.16-.48Z"/>
    <path class="st2" d="M43.53,47.37c-.03-.23-.29-.15-.32-.39-.02-.24.21-.4.2-.64-.01-.24-.12-.24-.13-.48-.01-.25.23-.26.23-.51,0-.25-.22-.3-.23-.55,0-.25-.5-.16-.5-.41,0-.25.52-.3.52-.55,0-.25-.16-.3-.16-.55,0-.25.37-.16.37-.41,0-.24-.35-.25-.35-.5,0-.25.05-.25.05-.49,0-.25.27-.25.28-.5,0-.24-.37-.29-.36-.54.01-.25.37-.45.37-.47l-1.6-.1s.14.34.13.59c-.01.25-.21.24-.22.5,0,.26.21.26.21.52,0,.25-.27.24-.27.5,0,.25.46.18.46.43,0,.25-.16.33-.15.59,0,.25-.12.23-.11.48,0,.25.2.28.21.53,0,.25-.33.26-.32.51,0,.25.36.23.37.48,0,.25-.11.26-.1.51.01.25-.14.26-.12.52.02.26.42.2.44.46.02.25-.3.31-.26.58.03.26.19.24.23.5.05.26-.2.37-.16.58l1.56-.35c-.04-.17-.24-.1-.28-.33-.04-.23.08-.25.05-.48Z"/>
    <path class="st2" d="M43.52,48.82c.1-.09.16-.2.2-.31.04-.1.07-.21.04-.32h0s-1.56.35-1.56.35h0c.03.13.09.25.18.33.09.09.23.14.36.17.13.02.27.01.41-.03.14-.04.27-.12.36-.2Z"/>
  </g>
  <g>
    <path class="st2" d="M36.62,32.85c-.06-.12-.15-.22-.26-.3-.11-.07-.25-.12-.39-.13-.14-.02-.28,0-.4.05-.13.05-.26.1-.34.2-.08.09-.12.22-.14.35l1.59.21c.02-.13,0-.26-.05-.37Z"/>
    <path class="st2" d="M35.74,40.6c.01-.26-.27-.21-.25-.47.03-.26.29-.4.32-.65.03-.26-.08-.26-.05-.52.03-.26.27-.24.3-.5.03-.26-.17-.34-.14-.6.03-.26-.47-.23-.44-.49.03-.26.56-.23.59-.49.03-.26-.11-.34-.08-.6.03-.26.39-.11.42-.38.03-.26-.31-.32-.28-.58.03-.26.08-.26.11-.52.03-.26.29-.24.33-.5.03-.26-.34-.35-.31-.61.03-.26.4-.46.41-.48l-1.59-.21s.12.36.09.62c-.03.26-.23.23-.26.49-.03.26.19.29.15.55-.03.26-.3.22-.33.48-.03.26.43.25.4.51-.03.26-.2.32-.23.58-.03.26-.15.22-.18.48-.03.27.16.32.13.58-.03.26-.37.23-.4.5-.03.27.32.3.29.56-.03.26-.14.25-.17.52-.03.26-.18.25-.21.52-.03.27.38.26.35.53-.03.26-.36.27-.37.54-.01.27.15.27.14.54,0,.26-.28.32-.28.53l1.6.02c0-.19-.21-.17-.2-.43,0-.26.13-.25.14-.51Z"/>
    <path class="st2" d="M36.35,48.79c-.07-.25-.32-.12-.38-.37-.06-.25.14-.45.09-.69-.05-.24-.16-.22-.2-.47-.04-.25.2-.28.18-.52-.02-.23-.23-.3-.26-.55-.02-.26-.5-.14-.52-.4-.02-.26.51-.34.49-.59-.02-.26-.17-.31-.18-.57-.01-.26.36-.19.35-.44-.01-.26-.36-.25-.37-.51,0-.26.04-.26.03-.52,0-.26.26-.28.25-.54,0-.26-.39-.29-.39-.55,0-.26.35-.5.35-.51l-1.6-.02s.16.35.16.61c0,.27-.2.27-.2.53,0,.27.22.26.23.53,0,.27-.26.27-.25.54,0,.27.47.17.48.43.01.26-.14.35-.13.62.02.26-.11.24-.09.5.02.27.21.28.23.55.02.26-.32.3-.3.56.02.27.37.22.4.5.03.27-.08.29-.04.57.05.27-.1.3-.05.57.06.27.45.15.51.41.06.26-.24.37-.17.63.07.26.22.22.29.47.06.22-.11.37-.12.5,0,.01,0,.02,0,.04l1.56-.36s-.02-.07-.04-.1c-.08-.13-.23-.08-.3-.3-.07-.25.05-.28-.02-.53Z"/>
    <path class="st2" d="M36.42,50.28c.1-.08.18-.1.23-.17.06-.05.1-.2.06-.4h0s-1.56.36-1.56.36h0s.05.15.14.3c.1.15.27.28.43.31.15.03.29-.03.4-.13.11-.09.2-.21.3-.28Z"/>
  </g>
  <g>
    <path class="st2" d="M77.46,24.1c-.1-.13-.24-.24-.38-.29-.13-.05-.28-.05-.42,0-.14.04-.25.13-.34.25-.09.12-.19.25-.22.42-.03.16,0,.35.04.53l1.54-.42c-.04-.18-.12-.35-.22-.48Z"/>
    <path class="st2" d="M79.7,35.35c-.05-.41-.31-.28-.36-.66-.06-.38.17-.61.1-.99-.06-.38-.17-.37-.23-.75-.06-.38.18-.42.11-.81-.06-.38-.28-.44-.35-.82-.06-.38-.53-.18-.59-.55-.06-.37.45-.53.39-.91-.07-.38-.22-.44-.29-.82-.09-.37.3-.32.21-.69-.09-.37-.43-.3-.52-.67-.09-.37-.05-.38-.14-.75-.09-.37.16-.45.07-.83-.09-.37-.48-.33-.57-.7-.09-.37.16-.8.15-.83l-1.54.42s.28.43.36.8c.09.37-.1.41-.02.78.09.37.3.31.39.68.09.37-.17.42-.08.79.09.36.51.15.6.52.09.37-.03.52.04.88.06.37-.07.35,0,.72.06.37.26.37.32.74.06.37-.27.44-.21.81.06.37.41.3.47.67.06.37-.05.39,0,.76.06.37-.09.39-.03.76.06.37.46.28.51.67.05.38-.26.47-.21.82.04.34.19.33.2.67-.01.33-.29.37-.34.56l1.55.4c.08-.36-.13-.35-.09-.79,0-.44.13-.44.09-.86Z"/>
    <path class="st2" d="M78.89,37.83c.16-.01.33-.13.48-.27.14-.14.27-.33.33-.56h0s-1.55-.4-1.55-.4h0c-.03.12-.05.25-.03.37,0,.13.06.27.11.4.06.12.14.25.25.34.11.09.26.13.41.12Z"/>
  </g>
  <g>
    <path d="M16.82,61.35c.14-.2.2-.42.19-.61,0-.19-.11-.34-.23-.47-.13-.13-.28-.2-.44-.26-.16-.06-.34-.12-.49-.12-.15,0-.31.06-.46.13l.86,1.81c.24-.11.45-.28.58-.47Z"/>
    <path d="M15.08,70.2c-.3-.24-.46.07-.75-.21-.29-.29-.2-.66-.41-.96-.19-.31-.33-.24-.49-.58-.17-.35.13-.47,0-.81-.1-.34-.37-.38-.44-.76-.04-.39-.65-.2-.67-.63-.02-.43.65-.49.67-.89.02-.39-.15-.49-.08-.87.09-.37.5-.11.61-.42.12-.29-.26-.5-.06-.81.21-.3.26-.26.51-.52.28-.24.49,0,.77-.18.29-.17.12-.63.49-.79.32-.12,1.01.07,1.02.05l-.86-1.81s-.3.34-.82.55c-.45.21-.57-.02-1.02.26-.44.3-.27.53-.65.87-.35.37-.61.15-.93.61-.29.48.29.61.09,1.05-.18.45-.41.55-.52,1.04-.08.48-.22.42-.25.91-.02.48.22.53.24,1,.03.47-.39.52-.32,1.02.09.5.52.39.65.85.16.45,0,.51.23.96.21.44.07.53.34.96.31.41.67.06.98.4.32.33.08.67.46.98.38.31.5.14.89.41.39.24.33.6.65.77l.94-1.77c-.26-.13-.35.1-.7-.1-.33-.23-.25-.34-.55-.58Z"/>
    <path d="M16.99,71.73c-.03-.18-.14-.34-.25-.49-.11-.14-.23-.28-.4-.37h0s-.94,1.77-.94,1.77h0c.2.1.43.18.63.18.21,0,.41-.07.56-.16.15-.09.27-.23.34-.4.07-.17.09-.35.06-.53Z"/>
  </g>
  <g>
    <path d="M54.5,78.83c.07-.18.08-.38.05-.56-.03-.17-.14-.32-.26-.45-.13-.13-.29-.2-.45-.25-.17-.04-.35-.09-.52-.05-.16.04-.32.13-.45.25l1.28,1.54c.16-.14.29-.3.36-.48Z"/>
    <path d="M42.52,81.12c.41.13.41-.23.81-.13.4.09.58.45,1,.52.42.06.44-.07.85-.03.42.04.41.34.84.36.43,0,.53-.25.95-.26.42-.01.26-.62.65-.65.39-.04.53.62.94.56.41-.06.48-.26.88-.34.41-.09.35.41.78.3.44-.11.32-.53.72-.67.4-.15.42-.1.81-.27.38-.19.56.09.94-.13.38-.23.17-.67.51-.9.34-.24.91-.16.93-.18l-1.28-1.54s-.23.46-.53.67c-.3.2-.43,0-.73.17-.3.17-.18.42-.5.57-.33.14-.45-.16-.77-.05-.32.11-.05.62-.41.73-.36.09-.53-.08-.89,0-.37.07-.35-.09-.72-.04-.37.05-.38.29-.76.33-.38.03-.41-.4-.77-.39-.36,0-.36.44-.73.43-.38-.02-.37-.16-.74-.19-.37-.04-.35-.23-.71-.28-.36-.06-.42.45-.79.37-.37-.09-.31-.49-.66-.59-.35-.11-.41.08-.76-.05-.35-.13-.32-.48-.55-.59l-.82,1.82c.3.15.36-.13.75.03.4.14.34.29.75.42Z"/>
    <path d="M40.34,79.73c0,.17.1.35.21.52.11.16.26.32.46.43h0s.82-1.82.82-1.82h0c-.13-.08-.28-.13-.44-.12-.16.01-.33.07-.49.16-.15.08-.3.2-.41.35-.1.15-.17.32-.16.49Z"/>
  </g>
  <g>
    <path class="st2" d="M28.42,34.33c-.05-.12-.12-.23-.23-.32-.1-.09-.23-.15-.37-.18-.14-.04-.28-.03-.41,0-.13.03-.28.07-.37.17-.09.09-.15.23-.17.37l1.57.32c.02-.12.02-.24-.02-.35Z"/>
    <path class="st2" d="M27.28,42.13c.01-.26-.26-.22-.24-.49.02-.26.28-.39.31-.65.03-.26-.08-.27-.05-.53.04-.26.28-.23.32-.48.04-.25-.15-.35-.11-.61.05-.26-.45-.27-.4-.53.05-.26.58-.2.62-.46.05-.26-.09-.35-.04-.61.05-.26.39-.09.44-.35.04-.25-.29-.35-.23-.63.05-.28.09-.28.12-.56.03-.27.29-.26.32-.52.03-.25-.35-.33-.32-.59.04-.26.42-.42.42-.43l-1.57-.32s.09.4.05.67c-.04.28-.23.26-.26.53-.03.27.19.29.16.55-.03.25-.29.21-.33.44-.04.23.42.24.37.51-.05.26-.22.31-.26.58-.05.26-.16.21-.21.48-.05.27.14.33.09.6-.05.27-.38.21-.43.48-.05.27.3.32.26.59-.04.27-.15.25-.19.53-.03.27-.19.26-.21.53-.03.28.38.29.36.56-.02.27-.35.27-.37.55-.02.27.14.28.13.55-.01.27-.28.33-.29.53l1.6.05c0-.2-.2-.18-.19-.44.01-.26.13-.25.15-.52Z"/>
    <path class="st2" d="M27.89,50.38c-.08-.24-.33-.1-.4-.34-.08-.25.12-.46.06-.7-.06-.25-.16-.22-.21-.47-.05-.25.2-.3.15-.55-.03-.25-.25-.28-.28-.54-.03-.25-.51-.13-.53-.39-.02-.27.51-.34.5-.59-.01-.26-.16-.32-.17-.58,0-.26.37-.17.37-.43,0-.26-.35-.27-.35-.54,0-.27.04-.27.05-.53,0-.27.26-.28.27-.54,0-.26-.38-.31-.38-.57,0-.27.36-.5.36-.52l-1.6-.05s.15.36.15.62c0,.27-.2.27-.21.54,0,.27.22.27.22.54,0,.27-.27.26-.27.53,0,.27.46.19.46.46,0,.27-.16.36-.15.63,0,.27-.11.25-.1.52.02.28.21.3.23.57.02.27-.32.31-.28.59.03.28.38.23.42.5.05.27-.07.29-.02.57.05.27-.09.31-.03.58.07.28.46.15.53.41.08.26-.23.39-.13.66.09.27.24.21.34.47.11.26-.11.43-.02.63l1.45-.68c-.08-.17-.26-.06-.36-.29-.09-.24.02-.28-.06-.51Z"/>
    <path class="st2" d="M28.24,52.08c.12-.16.09-.45.11-.55.02-.12.02-.24-.03-.34h0s-1.45.68-1.45.68h0c.06.12.15.24.26.31.11.07.19-.03.31-.06.12-.03.26.03.39.08.13.04.3.04.42-.11Z"/>
  </g>
  <g>
    <path d="M45.69,65.43c-.09-.1-.22-.18-.37-.24-.15-.05-.32-.08-.5-.08-.18,0-.35.04-.49.09-.15.06-.31.12-.4.22-.08.1-.11.22-.11.34l2-.02c0-.12-.04-.23-.13-.33Z"/>
    <path d="M44.37,70.75c-.11-.07-.45.15-.59.04-.15-.12.18-.31.11-.41-.07-.11-.27-.09-.3-.24,0-.16.46-.15.51-.25.07-.09-.25-.18-.13-.27.12-.08-.61-.29-.42-.41.2-.13.83.2.93.12.11-.1-.02-.22.19-.44.19-.22.49.16.69-.13.19-.31-.19-.52-.07-.81.11-.3.16-.29.21-.61.04-.29.35-.37.35-.62,0-.24-.48-.26-.48-.5,0-.24.43-.47.43-.48l-2,.02s.21.31.21.56c0,.24-.25.25-.25.49,0,.21.28.17.26.35-.03.16-.35.07-.39.17-.05.1.49.33.39.49-.11.16-.3.08-.42.21-.18.17-.28.06-.56.27-.29.21-.09.37-.32.56-.22.18-.69.03-.87.27-.17.25.29.32.16.56-.1.26-.25.26-.25.57.05.3-.14.33-.02.61.15.28.65.09.83.29.2.18-.18.4.07.61.26.2.43.07.69.23.27.15.12.45.37.57l1.16-1.68c-.08-.04-.24.18-.38.12-.14-.07,0-.18-.12-.25Z"/>
    <path d="M44.99,71.46c0-.16-.02-.28-.04-.38-.01-.1-.03-.17-.08-.19h0s-1.16,1.68-1.16,1.68h0c.16.07.34.11.5.08.16-.03.32-.12.42-.24.1-.12.2-.27.26-.44.06-.17.1-.35.1-.5Z"/>
  </g>
  <ellipse class="st1" cx="33.65" cy="63.72" rx="2.54" ry="1.53" transform="translate(-32.12 93.18) rotate(-86.3)"/>
  <ellipse class="st1" cx="58.84" cy="64.12" rx="2.54" ry="1.53" transform="translate(-8.94 118.7) rotate(-86.3)"/>
  <g>
    <path class="st1" d="M36.15,56.82c.1-.06.21-.17.3-.3.09-.13.16-.29.21-.46.05-.17.07-.34.05-.5-.02-.16-.04-.33-.12-.44-.08-.11-.19-.17-.31-.19l-.44,1.95c.1.02.21,0,.32-.05Z"/>
    <path class="st1" d="M30.1,57.47c.18-.1-.03-.38.16-.48.19-.1.44.12.63.03.19-.08.14-.21.34-.28.2-.07.3.21.5.15.19-.06.17-.32.37-.37.2-.05,0-.63.23-.67.23-.05.36.62.56.59.2-.03.24-.21.45-.22.21,0,.13.46.33.46.19,0,.22-.43.44-.41.22.02.21.07.43.1.22.03.18.35.4.39.21.04.33-.43.55-.39.22.04.34.51.34.51l.44-1.95s-.36.13-.59.09c-.24-.05-.19-.29-.44-.33-.25-.04-.29.24-.53.2-.24-.03-.2-.36-.46-.38-.26-.02-.22.56-.47.55-.24,0-.35-.21-.6-.19-.25.02-.24-.14-.49-.11-.26.04-.25.27-.5.32-.25.05-.34-.37-.6-.31-.26.06-.13.49-.37.56-.24.07-.28-.06-.52.03-.24.09-.31-.08-.55.02-.24.11,0,.56-.21.67-.22.11-.43-.23-.66-.1-.22.13-.12.3-.33.43-.21.14-.45-.1-.61.01l1.19,1.61c.13-.09-.05-.29.13-.41.18-.12.26.02.44-.1Z"/>
    <path class="st1" d="M28.84,57.9c.13.08.27.11.39.13.12.01.23.01.31-.05h0s-1.19-1.61-1.19-1.61h0c-.1.08-.18.18-.2.31-.03.13,0,.29.05.45.05.15.14.3.26.44.12.14.26.25.39.33Z"/>
  </g>
  <g>
    <path class="st1" d="M55.99,55.34c-.07.13-.1.29-.09.46,0,.16.07.33.15.49.08.16.19.29.31.4.12.11.25.22.37.26.12.04.23.02.34-.02l-.76-1.85c-.13.05-.25.15-.31.27Z"/>
    <path class="st1" d="M64.23,55.88c-.24-.14-.35.19-.59.06-.24-.13-.25-.47-.51-.59-.26-.11-.31.01-.57-.09-.26-.1-.17-.39-.45-.48-.28-.08-.41.15-.69.09-.28-.06-.32.56-.58.51-.26-.05-.21-.7-.49-.74-.29-.02-.37.15-.65.15-.28,0-.18-.47-.48-.46-.3.02-.27.44-.55.47-.28.03-.29-.02-.57.03-.28.05-.36-.26-.65-.19-.29.08-.19.55-.45.64-.26.09-.66-.21-.68-.21l.76,1.85s.2-.3.42-.37c.22-.07.29.17.51.11.22-.05.16-.32.39-.37.23-.04.27.29.49.27.22-.02.11-.59.35-.6.24-.02.32.19.55.19.23.01.2.17.42.18.23.03.29-.21.52-.17.24.04.15.46.37.51.22.05.33-.37.56-.3.23.08.18.21.4.29.22.08.15.26.36.35.21.09.41-.37.63-.27.22.11.05.48.26.6.2.12.32-.05.51.09.2.14.06.45.2.55l1.14-1.64c-.18-.12-.3.11-.53-.05-.23-.16-.15-.29-.39-.43Z"/>
    <path class="st1" d="M65.39,57.13c.04-.15.02-.3-.02-.44-.04-.13-.1-.26-.22-.33h0s-1.14,1.64-1.14,1.64h0c.09.06.21.1.33.08.13-.02.28-.08.42-.17.14-.08.28-.2.39-.34.11-.14.2-.3.24-.45Z"/>
  </g>
</svg>