<?xml version="1.0" encoding="UTF-8"?>
<svg id="_レイヤー_1" xmlns="http://www.w3.org/2000/svg" version="1.1" viewBox="0 0 100 100">
  <!-- Generator: Adobe Illustrator 30.0.0, SVG Export Plug-In . SVG Version: 2.1.1 Build 123)  -->
  <defs>
    <style>
      .st0 {
        fill: #ceb372;
      }

      .st1 {
        fill: #1c1917;
      }

      .st2 {
        fill: #fff;
      }

      .st3 {
        fill: none;
        stroke: #fff;
        stroke-linecap: round;
        stroke-linejoin: round;
      }
    </style>
  </defs>
  <path class="st2" d="M90.84,63.3c.55.38,1.3.99,1.85,1.98.79,1.43.74,2.87.7,3.56-.23,3.68-2.58,5.89-6.15,7.26-.97.37-2.03.48-3.07.41-.95-.07-1.36.34-1.78,1.05-.69,1.17-1.32,2.37-2.03,3.54-2.3,3.8-5.52,6.79-9.47,9.17-4.16,2.51-8.73,4.12-13.59,5.11-1.74.35-9.56.82-11.7.7-2.17-.12-10.96-2.13-13.14-2.97-5.78-2.22-10.25-5.72-13.21-10.77-1.47-2.51-2.76-6.25-3.39-6.67-.73-.48-1.43-.1-2.29-.15-2.11-.12-3.81-2.74-4.44-4.54-.29-.82-1.19-3.36.28-5.72,1.38-2.22,3.84-2.66,4.26-2.73.59-1.65-.5-3.54,1.4-5.64,7.05-7.82,25.6-7.7,35.89-7.13,15.65.88,16.85,3.14,28.81,7.14,0,0,5.56,2.55,11.06,6.41Z"/>
  <path class="st0" d="M63.24,5.56c-2.24-.63-5.38-1.29-9.16-1.4-8.82-.26-15.37,2.65-17.29,3.56-6.84,3.25-15.25,11.75-19.92,21.42-.56,1.16-.33,1.99-2.19,3.96-1.24,1.31-1.5,1.4-2.13,1.93,0,0-.53.45-1.05.98-2.3,2.36-2.84,10.2-2.84,10.2-.2,2.86-.35,5.26.2,8.45.47,2.71.91,5.25,2.49,5.86,1.5.58,3.13-.92,5.33-2.48,0,0,6.75-4.79,17.15-7.16,3.12-.71,5.38-.8,8.73-.93,4.38-.17,13.9-.47,24.29,2.81,13.49,4.26,18.51,11.41,22.41,8.85,1.3-.85,1.87-3.65,3.02-9.24.72-3.53,1.87-9.38-.33-11.2-.32-.27-1.25-1.06-2.15-2.39-.24-.36-.44-.81-.63-1.54-.34-1.34-.51-3.25-.64-3.9-1.86-8.97-9.16-17.9-9.87-18.73-2.2-2.54-5.13-5.85-10.19-7.77-2.08-.79-3.93-1.12-5.24-1.27Z"/>
  <path d="M90.79,62.04c4.52,3.28,2.68,10.51-1.54,13.19-1.13.68-2.45.72-3.62.81-1.19.13-2.5-.06-3.22.73-.52.71-1.32,2.2-1.82,3.02-5.25,9.66-16.74,14.94-27.34,15.87-4.83.42-9.8.7-14.54-.47-8.33-1.62-16.93-5.81-21.16-13.61-.9-1.71-1.72-3.26-2.5-4.98-1-2.95-1.73-5.93-2.19-9,0,0-.56-3.55-.56-3.55-.11-.72.38-1.4,1.1-1.51.74-.12,1.42.4,1.51,1.14,0,0,.45,3.6.45,3.6.43,3.11.94,6.33,2.08,9.26.67,1.33,1.25,2.8,1.91,4.06,4.94,9.61,16.43,13.52,26.66,14.22,4.72-.08,9.6-.09,14.16-1.41,7.89-2.14,15.84-6.57,19.86-13.94,0,0,.93-1.55.93-1.55.55-1.11,1.39-2.35,2.81-2.36,1.72-.19,3.67,0,5.15-.89,2.72-1.85,4.28-5.92,3.09-9.03-.41-1-1.15-1.8-2.09-2.34-.37-.21-.49-.68-.28-1.05.23-.4.78-.51,1.14-.21h0Z"/>
  <path class="st2" d="M16.75,32.94c19.85-6.57,45.26-5.95,64.45,2.42,1.37.49,2.73,1.04,4.04,1.69.14.07.04.32-.12.24-1.31-.61-2.67-1.12-4.04-1.59-14.78-6.09-31.24-7.16-46.97-5.15-5.72.78-11.4,2.02-16.76,4.02-1.05.4-1.71-1.22-.6-1.63h0Z"/>
  <path class="st3" d="M16.59,37.41c-.46,1.79-.65,3.59-.82,5.41-.14,1.51-.25,3.01-.21,4.53.05,1.73.11,3.45.48,5.15.24,1.08.83,2.03,1.51,2.93"/>
  <path class="st3" d="M76.59,33.57c.72-1.05.61-2.22.47-3.33-.19-1.59-.21-3.19-.53-4.76-.38-1.88-.72-3.77-1.23-5.63-.68-2.51-1.59-4.94-2.56-7.35-.24-.6-.57-1.15-.85-1.72"/>
  <path class="st3" d="M65.84,6.11c-.22.62-.18,1.19.08,1.83,1.04,2.6,1.84,5.26,2.37,7.99.38,1.97.73,3.94.87,5.94.1,1.4.25,2.8.27,4.2.02,1.73.07,3.47-.49,5.16"/>
  <path class="st3" d="M60.29,4.96c-.13,1.75.41,3.44.63,5.16.12.97.16,1.95.21,2.93.12,2.3.28,4.6.23,6.9-.03,1.88-.06,3.76-.16,5.63-.07,1.35-.27,2.7-.38,4.05"/>
  <path class="st3" d="M55.44,4.6c.02,1.23-.31,2.44-.39,3.65-.08,1.25-.33,2.48-.47,3.73-.12,1.14-.28,2.28-.49,3.42-.18.95-.27,1.91-.47,2.87-.32,1.52-.4,3.07-.65,4.61-.18,1.07-.22,2.17-.36,3.25-.13.96-.27,1.92-.25,2.9"/>
  <path class="st3" d="M49.73,4.88c.29,1.14-.52,1.98-1.05,2.86-1.55,2.56-2.84,5.22-3.89,7.97-.74,1.93-1.4,3.88-1.91,5.88-.63,2.47-1.26,4.92-1.16,7.47"/>
  <path class="st3" d="M43.75,6.04c.07.68-.13,1.3-.6,1.83-2.28,2.53-4.2,5.28-5.9,8.15-1.43,2.41-2.56,4.94-3.51,7.55-.57,1.58-.99,3.18-1.41,4.78-.14.53-.01,1.11,0,1.66"/>
  <path class="st3" d="M34.65,11.58c-3.21,3.31-5.9,6.93-8.1,10.85-1.25,2.22-2.28,4.52-3.02,6.93-.25.8-.46,1.63-.08,2.46"/>
  <path class="st3" d="M77.22,36.58c.14.76.26,1.53.28,2.3.09,3.37-.1,6.73-.58,10.09-.33,2.27-1.03,4.38-2.28,6.36"/>
  <path class="st3" d="M65.94,33.33c.23,1.76.44,3.54.2,5.31-.09.69.05,1.39-.07,2.06-.35,2.06-.33,4.14-.76,6.21-.36,1.71-.94,3.34-1.43,5"/>
  <path class="st3" d="M54.92,29.52c.03,1.83.31,3.64.32,5.47.02,3.52-.21,7.04-.41,10.55-.08,1.35-.32,2.71-.57,4.05"/>
  <path class="st2" d="M85.78,40.24c.4,2.63.38,5.72.24,8.16-.18,3.71-.08,8.03-3.07,10.7-.21.23-.59-.08-.39-.33,0,0,.03-.04.03-.04l.8-1.07c1.58-2.73,1.43-6.18,1.57-9.24,0-.04.26-4.05.26-4.09,0,0,.21-4.07.21-4.07,0-.21.34-.23.36-.02h0Z"/>
  <path class="st3" d="M43.31,29.37c-.25,2.3-.43,2.82-.57,3.66-.14.84-.3,1.69-.43,2.54-.4,2.66-.51,5.34-.38,8.01.08,1.75.08,3.52.63,5.24"/>
  <path class="st3" d="M34.34,30.23c-.22,1.81-.31,2.86-.51,4.29-.21,1.48-.4,2.96-.47,4.45-.1,2.43.01,4.87.24,7.3.11,1.2.47,2.39.82,3.56.08.26.04.57.24.8"/>
  <path class="st3" d="M80,20.22c.59,2.01,1.07,4.04,1.53,6.08.42,1.85.74,3.71.98,5.56.16,1.29.6,2.71-.35,3.96"/>
  <path d="M55.52,81.31c-3.93,4.38-11.21,4.99-16.21,2.16-.91-.64.05-2.04.98-1.4,4.37,2.78,11.02,2.56,14.81-1.18.27-.27.69.15.43.42h0Z"/>
  <path class="st3" d="M25.2,31.88c-.44,1.7-.3,2.39-.56,3.58-.21.96-.34,1.96-.5,2.93-.37,2.28-.34,4.55-.34,6.83,0,2.38.32,4.71,1.45,6.89.06.12.14.25.09.39"/>
  <path d="M44.85,66.89c.08.88.27,1.76.19,2.65-.17,1.22-1.08,2.02-1.94,2.6-.16.13-.45.32-.38.48.48.68,1.3.98,2.07,1.69.22.18.07.55-.2.55-1.39.1-3.78-1.09-3.13-2.87.71-1.29,2.17-1.28,2.53-2.66.16-.77.14-1.66.25-2.44.03-.34.56-.34.6,0h0Z"/>
  <ellipse class="st1" cx="31.99" cy="65.42" rx="2" ry="1.2" transform="translate(-35.15 93.62) rotate(-86.72)"/>
  <ellipse class="st1" cx="60.31" cy="65.65" rx="2" ry="1.2" transform="translate(-8.69 122.1) rotate(-86.72)"/>
  <path class="st1" d="M35.04,57.18c-3.01-.79-6.28-.14-8.53,2.16-.12.12-.32.12-.44,0-.11-.11-.12-.29-.02-.41,1.04-1.33,2.43-2.44,4.08-3.09,1.66-.68,3.44-.71,5.22-.6.55.04.95.52.91,1.07-.04.6-.64,1.03-1.22.88h0Z"/>
  <path class="st1" d="M56.88,55.31c3.86-1.29,7.97.42,10.51,3.39.15.15.15.4,0,.55-.14.14-.37.15-.53.02-.69-.57-1.36-1.19-2.14-1.63-2.16-1.35-4.93-1.67-7.26-.68-1.14.44-1.75-1.3-.58-1.67h0Z"/>
</svg>