<svg xmlns="http://www.w3.org/2000/svg" id="_レイヤー_1" viewBox="0 0 100 100"><defs><style>.st1{fill:#fff}</style></defs><path d="M82.61 44.85c-2.38-3.2-5.82-4.87-10.08-4.84-7.57.05-13.64 8.59-13.57 19.06s6.27 18.92 13.83 18.87c8.53-.06 13.65-7.26 13.57-19.06-.03-4.15-.65-7.67-1.8-10.51M71.04 72.35c-5.65.04-10.27-5.91-10.32-13.28s4.48-13.39 10.13-13.42c6.6-.05 10.26 4.96 10.32 13.28s-3.9 13.38-10.13 13.42" class="st1"/><path d="M82.34 45.06c-2.36-3.37-6.66-4.94-10.66-4.46-4.06.43-7.35 3.41-9.33 6.86-3.97 7.09-3.98 16.52.17 23.55 2.05 3.44 5.59 6.35 9.72 6.44 2.01.15 3.92-.67 5.72-1.45 5.63-2.74 7.39-9.44 7.73-15.33.23-4.1-.17-8.27-1.51-12.14-.18-.47.56-.78.76-.31 3.56 8.71 3.24 24.38-6.31 29.17-3.93 1.78-8.98 1.27-12.44-1.29-8.47-6.63-9.75-20.04-4.75-29.16 2.08-3.73 5.68-7.05 10.13-7.36 4.34-.4 8.75 1.55 11.3 5.08.27.36-.28.76-.54.4Z"/><path d="M71.04 72.68c-10.75-.51-13.62-15.36-8.05-22.9 5.67-8.01 16.37-4.64 18.46 4.4.89 4.76.67 9.93-2.05 14.13-1.72 2.69-5.25 4.86-8.37 4.37Zm0-.75c8.53-.37 10.47-10.58 8.91-17.43-.41-1.42-.44-3.01-1.29-4.29-3.24-5.72-11.63-5.52-14.95.06-3.34 5.05-3.22 12.14 0 17.21 1.52 2.42 4.45 4.78 7.33 4.44Z"/><path d="M29.65 46.47 29.55 32c0-.08.07-.15.15-.15l41.11-.29c.08 0 .15.07.15.15l.35 50.77c.02 2.2-1.75 3.99-3.95 4.01-4.72.7-10.36 1.22-16.4 1.29-6.41.07-11.97-.39-16.92-1.05-.27 0-1.73-.02-2.91-1.18a4.06 4.06 0 0 1-1.22-2.9l-.22-31.8" class="st1"/><path d="m29.21 46.47-.31-14.13v-.33c-.02-.45.42-.88.9-.83 3.69-.07 9.72-.19 13.47-.26 4.67-.07 16.68-.25 21.2-.32 1.11 0 4.21-.07 5.3-.08l.88-.01h.2c.61 0 1.16.53 1.18 1.14.11 13.31.43 36.91.52 50.01.09 1.44-.19 2.98-1.15 4.11a5.25 5.25 0 0 1-4.03 1.94l.17-.01a122 122 0 0 1-25.25 1c-2.81-.18-5.6-.51-8.38-.9-1.92.12-4.83-1.89-4.97-4.55-.08-2.47.02-10.66 0-13.26.07-6.38.1-12.75.21-19.13 0-.3.25-.53.55-.53.29 0 .52.24.53.52.2 6.37.32 12.75.48 19.12.04 1.65.18 10.46.21 11.95-.22 2.04 1.2 3.83 3.28 3.74 5.48.67 10.99 1.02 16.51.95s11.03-.5 16.48-1.32c1.52.05 2.92-1.2 2.89-2.75-.05-13.33-.15-37.36-.17-50.78-.02.49.57.89.87.86h-.99c-11.46-.02-25.63 0-37.1-.09-.63 0-2.48-.02-2.91-.02.25-.02.47-.28.46-.51v.33l-.11 14.13c0 .58-.88.58-.89 0Z"/><path d="M64.51 81.66c-3.8.76-8.51 1.39-13.93 1.42-5.28.02-9.88-.53-13.62-1.23-.19 0-1.2-.01-2.02-.82-.52-.51-.84-1.22-.85-2l-.27-38.74 33.16-.23.27 38.81a2.77 2.77 0 0 1-2.75 2.79Z" style="fill:#ceb372"/><path d="M35.58 16.98c-1.1.24-3.03.89-4.25 1.59" class="st1"/><path d="M35.64 17.25c-1.42.41-2.86.98-4.09 1.73-.22.13-.51.06-.64-.16s-.06-.51.16-.64c.72-.38 1.46-.65 2.21-.89.74-.24 1.48-.44 2.25-.58.15-.03.29.07.32.22.03.14-.06.28-.2.32Z"/><path d="M28.93 20.34c-.76.73-1.39 1.55-1.82 2.47-1.5 3.24-1.38 7.22 1.62 9.63 2.03 1.52 3.81 1.46 6.37 1.32s5.04-1.5 7.6-1.53c3.25-.04 6.5 1.75 9.68 1.1 1.89-.39 3.56-.85 4.85.22.66.55 1.17 1.6 1.18 2.46.06 3.53.02 7.38.09 10.91.03 1.77.99 3.36 2.72 3.01 1.24-.25 1.58-1.28 1.61-2.54.1-3.97-.93-10.82 1.92-13.59 1.85-1.81 5.66-.65 7.43-2.54.84-.89 1.41-1.6 1.68-3.43.67-4.59-2.13-7.41-5.68-9.28-1.83-.96-3.94-1.3-5.71-2.37-1.96-1.18-3.33-3.15-5.16-4.53-4.16-3.14-10.68-2.53-14.17 1.33-1.19 1.31-2.16 2.45-3.84 3.01-.14.05-.28.09-.42.13" class="st1"/><path d="M29.27 20.7c-3.78 3.59-3.26 11.52 2.66 12.33 2.78.35 5.4-.26 8.12-1.04 4.29-1.36 8.44 1.83 12.7.94 1.4-.26 3.03-.67 4.35.2 1.33.87 1.65 2.52 1.57 3.99.04 2.48.22 6 .33 8.51-.02 1.59.23 4.3 2.38 3.61 1.08-.49.82-2.12.9-3.21v-2.12c.13-3.5-.21-7.62 2.33-10.4 1.64-1.5 4.31-1.21 6.1-1.94 2.41-1.14 3.08-4.27 2.56-6.69-1.05-4.21-5.32-6.16-9.14-7.41-2.81-.89-4.66-3.44-6.77-5.26-3.21-2.65-8.02-2.84-11.62-.85-2.57 1.29-3.83 4.42-6.81 5.07-.15.04-.3-.06-.34-.21s.05-.3.2-.34c1.35-.35 2.42-1.21 3.36-2.25 2.71-3.5 7.48-5.08 11.77-3.97 2.9.62 5.05 2.91 7.05 4.88 2.06 2.11 4.93 2.37 7.49 3.68 1.28.68 2.52 1.49 3.57 2.55 2.94 2.85 3.56 8.52.18 11.27-1.58 1.15-3.74.88-5.38 1.2-4.51.89-3.66 7.16-3.57 10.64.08 2.41 1.05 6.89-2.74 6.72-2.4-.25-2.74-3.11-2.54-4.94l.12-4.26c.06-1.76.08-3.56.07-5.32-.01-.96-.56-1.99-1.36-2.5-1.12-.71-2.58-.32-3.94-.03-2.82.81-5.77-.34-8.53-.67-3.24-.53-6.06 1.38-9.29 1.59-2.62.28-5.58-.03-7.46-2.1-2.81-2.83-2.57-7.51-.5-10.68.42-.64.93-1.2 1.49-1.69.21-.18.52-.17.71.04.18.2.17.5-.02.68Z"/><circle cx="43.08" cy="47.59" r="1.76" class="st1"/><circle cx="46.4" cy="55.47" r="1.5" class="st1"/><circle cx="43.21" cy="60.91" r="1.28" class="st1"/><circle cx="44.78" cy="66.56" r="1.09" class="st1"/><circle cx="42.94" cy="71.12" r=".79" class="st1"/></svg>