<?xml version="1.0" encoding="UTF-8"?>
<svg id="_レイヤー_1" xmlns="http://www.w3.org/2000/svg" version="1.1" viewBox="0 0 100 100">
  <!-- Generator: Adobe Illustrator 30.0.0, SVG Export Plug-In . SVG Version: 2.1.1 Build 123)  -->
  <defs>
    <style>
      .st0 {
        fill: none;
      }

      .st1 {
        fill: #ceb372;
      }

      .st2 {
        fill: #1c1917;
      }

      .st3 {
        fill: #fff;
      }
    </style>
  </defs>
  <g>
    <path class="st3" d="M70.39,40.17c-7.76,0-14.05,8.71-14.05,19.45s6.29,19.45,14.05,19.45c8.75,0,14.05-7.34,14.05-19.45s-5.3-19.45-14.05-19.45ZM68.64,73.32c-5.79,0-10.49-6.13-10.49-13.7s4.69-13.7,10.49-13.7c6.77,0,10.49,5.16,10.49,13.7s-4.09,13.7-10.49,13.7Z"/>
    <g>
      <path class="st0" d="M70.39,40.17c-7.76,0-14.05,8.71-14.05,19.45s6.29,19.45,14.05,19.45c8.75,0,14.05-7.34,14.05-19.45s-5.3-19.45-14.05-19.45ZM68.64,73.32c-5.79,0-10.49-6.13-10.49-13.7s4.69-13.7,10.49-13.7c6.77,0,10.49,5.16,10.49,13.7s-4.09,13.7-10.49,13.7Z"/>
      <g>
        <path d="M59.04,67.46c.18.39.45.14.65.5.21.35.04.74.3,1.09.24.35.35.27.59.62.26.33.03.53.31.86.28.33.54.23.84.53.31.3.63-.24.92.04.31.25-.06.8.28,1.07.33.28.55.15.9.38.37.22-.02.57.39.76.41.2.6-.2.98-.01.4.15.39.19.8.33.41.14.35.44.8.54.45.08.57-.35,1-.33.42.03.81.48.85.48v-2s-.46.17-.82.15c-.36-.03-.31-.31-.65-.37-.34-.06-.41.21-.76.09-.34-.12-.23-.42-.55-.54-.31-.15-.46.42-.79.26-.34-.15-.33-.41-.64-.6-.31-.2-.2-.28-.48-.51-.28-.23-.47-.06-.76-.3-.27-.26.02-.58-.24-.83-.26-.25-.57.04-.81-.24-.24-.29-.14-.37-.36-.67-.21-.31-.06-.42-.27-.72-.21-.3-.61-.01-.81-.34-.19-.34.14-.56-.03-.89-.16-.34-.33-.26-.49-.6-.17-.34.13-.56.03-.82l-1.87.72c.12.29.32.17.5.55.18.38.03.44.21.83Z"/>
        <path d="M58.05,54.3c-.11.41.24.41.13.81-.12.39-.45.57-.53.98-.07.41.04.43-.01.84-.05.41-.35.38-.4.8-.05.42.21.54.19.95-.02.42.6.31.58.71-.02.4-.66.46-.65.88.02.42.2.51.23.92.05.41-.43.31-.38.73.06.42.47.37.55.77.08.41.03.42.11.82.08.41-.22.5-.11.91.12.41.59.33.71.72.14.38-.13.9-.12.92l1.87-.72s-.37-.38-.49-.74c-.1-.37.14-.43.04-.79-.1-.36-.38-.29-.45-.67-.07-.37.25-.43.18-.79-.07-.36-.61-.17-.66-.55-.04-.38.14-.52.1-.9-.01-.38.14-.35.13-.72,0-.38-.28-.42-.26-.8.02-.38.44-.38.46-.75.01-.37-.42-.4-.38-.78.04-.38.19-.36.23-.74.05-.38.25-.34.32-.71.07-.37-.44-.44-.35-.82.11-.37.51-.3.61-.67.1-.36-.09-.42.05-.78.13-.36.48-.32.58-.59l-1.85-.76c-.11.3.15.35,0,.75-.14.39-.3.33-.41.74Z"/>
        <path d="M67.41,45.12c-.44.08-.28.4-.7.48-.42.07-.73-.12-1.16.02-.42.14-.36.27-.75.46-.38.19-.55-.1-.93.13-.38.23-.32.51-.69.74-.34.27.13.67-.18.92-.32.24-.8-.22-1.11.09-.3.3-.26.49-.53.81-.27.32-.52-.1-.8.24-.28.33.07.61-.17.95-.24.35-.29.31-.52.66-.21.36-.5.22-.71.59-.22.37.2.65.03,1.02-.17.37-.74.56-.74.59l1.85.76s0-.52.17-.86c.16-.34.37-.23.56-.55.18-.32-.06-.46.13-.79.21-.31.49-.12.69-.42.21-.29-.33-.56-.08-.85.25-.29.47-.25.71-.54.26-.26.34-.12.6-.38.26-.26.13-.47.43-.7.3-.23.55.09.84-.11.3-.19.06-.55.37-.75.32-.19.4-.04.72-.2.33-.16.4,0,.73-.1.33-.11.15-.59.51-.7.37-.07.49.32.84.25.35-.06.33-.23.7-.26.37-.03.45.3.73.33l.06-2c-.32-.01-.28.23-.71.27-.43.03-.44-.13-.89-.09Z"/>
        <path d="M78.61,51.66c-.17-.39-.42-.18-.61-.54-.2-.36-.03-.74-.25-1.11-.24-.36-.35-.29-.59-.64-.23-.36-.02-.53-.3-.88-.29-.34-.53-.25-.85-.54-.32-.3-.63.25-.93-.03-.32-.24.03-.81-.32-1.07-.35-.27-.56-.12-.92-.34-.38-.2-.02-.57-.44-.74-.42-.17-.58.23-.98.08-.41-.13-.39-.17-.81-.28-.41-.12-.37-.44-.8-.5-.44-.06-.56.39-.97.35-.41-.02-.79-.47-.82-.47l-.06,2s.48-.19.86-.16c.37.06.33.3.68.36.36.05.41-.21.77-.12.35.1.26.4.59.51.32.13.43-.45.78-.31.35.13.35.39.67.56.32.18.21.27.5.48.29.21.47.04.76.26.27.25-.01.58.24.81.26.23.55-.04.8.23.23.29.14.36.34.67.21.31.05.41.25.71.18.32.6.04.78.38.18.34-.16.54-.03.89.14.34.32.27.47.62.12.36-.18.56-.09.82l1.91-.59c-.1-.3-.33-.18-.46-.58-.15-.39,0-.44-.17-.84Z"/>
        <path d="M79.39,64.84c.1-.41-.25-.4-.15-.8.07-.4.42-.59.49-1,.07-.41-.06-.43-.03-.84.04-.41.35-.39.39-.81.04-.42-.23-.53-.22-.94.01-.41-.6-.3-.59-.7,0-.4.66-.46.65-.87-.01-.41-.2-.5-.21-.91-.04-.41.44-.29.4-.71-.04-.42-.47-.38-.51-.79-.06-.41,0-.41-.07-.82-.07-.41.27-.49.17-.9-.09-.41-.58-.36-.67-.76-.08-.4.19-.89.19-.92l-1.91.59s.36.4.43.77c.08.37-.16.42-.08.79.08.37.34.32.4.7.06.38-.27.42-.21.79.03.38.59.2.63.59.03.39-.15.52-.13.91.01.39-.14.35-.13.73,0,.38.26.43.26.81-.01.39-.44.39-.45.76-.02.38.44.4.4.78-.04.38-.18.37-.22.75-.04.38-.22.36-.29.73-.06.37.44.42.38.81-.06.39-.49.33-.58.7-.09.36.1.42,0,.79-.12.36-.47.34-.56.61l1.89.66c.1-.3-.16-.35-.03-.74.13-.4.26-.36.37-.76Z"/>
        <path d="M70.21,74.09c.43-.07.28-.39.69-.46.41-.09.73.12,1.15,0,.42-.12.36-.28.76-.44.39-.17.55.12.93-.11.38-.23.35-.49.7-.73.35-.26-.12-.67.2-.92.32-.23.79.2,1.11-.09.31-.3.26-.49.53-.82.27-.32.53.09.81-.25.26-.35-.1-.62.14-.96.24-.35.29-.32.49-.69.2-.37.5-.24.71-.62.17-.39-.24-.65-.08-1.03.18-.37.69-.6.7-.63l-1.89-.66s.05.53-.12.87c-.15.34-.37.24-.53.57-.18.32.07.45-.11.78-.17.33-.47.14-.67.44-.2.3.33.54.12.85-.24.29-.47.25-.71.53-.24.28-.34.13-.59.38-.27.24-.12.48-.42.69-.3.22-.56-.11-.83.1-.3.17-.07.54-.39.73-.32.19-.39.04-.72.19-.34.13-.39,0-.74.09-.34.1-.16.58-.53.69-.37.09-.49-.32-.84-.26-.36.06-.33.26-.71.28-.37.02-.47-.31-.74-.3v2c.33-.02.28-.28.7-.3.43-.03.44.15.87.07Z"/>
      </g>
      <g>
        <path d="M61.97,45.39c.21-.28-.08-.43.17-.69.25-.26.61-.19.85-.44.24-.25.17-.33.43-.56.27-.23.47,0,.73-.21.26-.23.19-.45.47-.65.29-.19-.14-.64.17-.85.3-.21.69.38.99.21.3-.15.3-.36.61-.52.32-.13.39.35.7.24.31-.11.18-.53.51-.64.33-.11.35-.03.68-.11.34-.07.42.25.74.18.32-.04.32-.51.67-.54.35-.02.68.38.69.38v-2s-.52.24-.91.27c-.39.04-.42-.24-.82-.17-.4.08-.35.35-.73.44-.38.09-.47-.26-.85-.13-.38.13-.09.64-.45.77-.36.14-.57-.04-.91.15-.35.18-.37.02-.73.2-.35.19-.29.39-.6.61-.32.21-.56-.14-.89.08-.33.23-.08.55-.37.81-.29.25-.39.13-.68.39-.29.26-.44.1-.71.38-.27.28.11.61-.15.89-.26.27-.6.02-.85.31-.24.3-.09.43-.33.73-.24.3-.57.17-.75.4l1.62,1.17c.16-.2-.07-.33.15-.61.22-.28.34-.18.56-.45Z"/>
        <path d="M57.52,55.73c.07-.35-.28-.33-.22-.69.07-.36.41-.5.47-.85.07-.35-.05-.38.04-.73.09-.35.39-.28.48-.62.09-.34-.15-.5-.02-.84.12-.34-.5-.42-.38-.77.12-.35.76-.17.88-.5.13-.33,0-.47.14-.8.14-.33.52-.02.66-.34.14-.32-.26-.52-.08-.83.17-.31.22-.29.39-.6.17-.31.45-.17.63-.47.19-.29-.19-.59,0-.89.2-.3.73-.33.74-.34l-1.62-1.17s-.11.54-.32.86c-.21.32-.42.19-.63.51-.2.34.05.48-.13.81-.18.34-.47.17-.66.52-.18.34.38.49.23.83-.15.34-.38.37-.53.72-.15.35-.28.25-.42.6-.13.36.09.49-.04.84-.12.36-.53.23-.66.6-.12.37.32.49.21.85-.1.36-.24.33-.33.7-.09.37-.29.32-.37.7-.07.38.43.44.37.81-.07.37-.48.33-.55.71-.07.37.14.4.09.78-.04.37-.39.43-.42.72l1.99.2c.03-.26-.24-.26-.2-.62.04-.36.18-.33.24-.69Z"/>
        <path d="M58.35,67.08c-.11-.34-.4-.17-.5-.52-.09-.35.15-.63.06-.98-.09-.34-.23-.31-.29-.67-.07-.35.23-.42.17-.77-.06-.35-.34-.39-.4-.74-.04-.36-.63-.16-.67-.53-.04-.37.62-.49.58-.84-.04-.35-.24-.43-.25-.79-.01-.36.45-.26.44-.61-.01-.35-.45-.35-.46-.71-.02-.36.04-.36.06-.72.01-.36.34-.37.35-.72.01-.35-.47-.43-.45-.79.04-.36.5-.65.5-.67l-1.99-.2s.14.51.12.89c-.01.38-.26.36-.28.75-.01.38.26.39.25.77-.02.38-.35.37-.33.75.01.38.58.25.6.63.01.37-.18.5-.17.88.02.38-.12.34-.09.72.04.38.29.4.33.77.04.37-.39.44-.33.82.07.38.5.3.57.67.07.37-.07.4,0,.77.07.37-.11.41-.01.78.1.37.58.21.68.57.1.36-.29.51-.18.88.13.36.31.3.43.66.12.36-.16.56-.07.83l1.87-.71c-.09-.25-.32-.13-.44-.47-.12-.34.03-.38-.09-.72Z"/>
        <path d="M64.59,76.25c-.28-.2-.44.14-.71-.09-.27-.23-.23-.6-.5-.82-.27-.22-.36-.12-.6-.38-.25-.25-.03-.47-.27-.72-.24-.24-.5-.13-.71-.41-.22-.28-.63.2-.85-.09-.22-.29.26-.71.07-1.01-.19-.29-.39-.26-.59-.56-.2-.3.27-.44.08-.73-.17-.3-.55-.09-.72-.41-.17-.31-.12-.34-.29-.65-.17-.31.13-.48-.02-.8-.14-.32-.6-.17-.75-.5-.15-.33.14-.8.13-.82l-1.87.71s.36.39.52.74c.15.35-.08.45.08.8.16.35.4.24.58.57.18.34-.12.48.07.83.18.34.63-.05.81.29.2.32.1.52.31.84.21.32.06.37.27.69.21.32.45.2.69.5.24.3-.09.57.16.88.24.31.58,0,.84.28.27.28.16.38.43.65.27.28.14.42.44.67.3.25.6-.16.89.08.29.24.07.6.4.81.33.22.44.06.76.27.32.22.23.55.51.69l.96-1.75c-.22-.12-.33.15-.62-.05-.29-.19-.2-.32-.49-.51Z"/>
        <path d="M75.07,77.28c-.32.13-.12.44-.45.55-.34.1-.63-.14-.95-.04-.33.1-.3.24-.64.29-.35.06-.41-.24-.74-.19-.33.06-.39.33-.74.34-.35.02-.2.62-.57.64-.36,0-.43-.62-.77-.65-.34-.02-.43.15-.78.13-.34-.03-.17-.45-.49-.52-.32-.07-.41.36-.75.29-.34-.08-.33-.1-.65-.22-.33-.12-.24-.43-.55-.54-.31-.11-.55.32-.86.16-.32-.16-.4-.69-.42-.69l-.96,1.75s.56.05.9.23c.35.18.26.39.64.53.38.14.47-.13.84,0,.37.14.29.42.68.52.4.08.39-.5.77-.42.37.09.48.27.87.3.39.03.34.18.74.2.4.03.43-.25.82-.26.38-.02.42.41.81.38.4-.02.34-.47.71-.53.38-.06.4.08.79.01.38-.06.43.12.81,0,.38-.11.2-.59.57-.7.37-.1.54.27.9.11.36-.16.29-.33.64-.49.36-.15.59.09.85-.06l-.97-1.75c-.22.12-.05.37-.38.5-.32.14-.38,0-.69.13Z"/>
        <path d="M82.12,69.12c-.12.33.22.37.09.71-.13.33-.5.41-.63.74-.13.33-.03.37-.19.69-.16.32-.44.18-.6.49-.15.31.02.51-.17.8-.19.29.38.53.19.84-.2.31-.76-.03-.98.23-.22.27-.13.45-.35.72-.23.27-.48-.12-.72.11-.24.23.06.55-.19.79-.26.24-.27.22-.55.43-.28.21-.49-.03-.76.17-.27.2-.02.64-.33.82-.31.18-.8-.03-.81-.02l.97,1.75s.34-.44.68-.64c.34-.2.46-.02.79-.26.32-.25.15-.46.46-.7.31-.24.5-.01.8-.28.29-.28-.2-.6.07-.87.28-.26.49-.24.74-.53.24-.3.33-.17.58-.47.25-.3.06-.49.28-.81.21-.32.57-.1.79-.43.22-.33-.17-.54,0-.88.17-.34.3-.27.48-.61.17-.34.36-.26.51-.62.15-.36-.34-.52-.2-.87.14-.35.54-.24.68-.6.12-.36-.07-.43.04-.79.11-.36.46-.35.55-.63l-1.92-.54c-.08.25.18.29.08.64-.11.34-.25.29-.35.63Z"/>
        <path d="M83.49,57.73c0,.36.35.27.36.63,0,.37-.29.58-.28.94.01.36.14.36.13.72-.01.36-.32.37-.33.72,0,.36.25.46.24.82,0,.36.6.28.57.65-.03.37-.7.37-.73.72-.03.36.15.46.11.82-.04.36-.49.17-.54.52-.05.35.38.42.32.78-.05.36-.11.35-.16.7-.08.35-.4.3-.48.65-.08.34.38.5.3.86-.07.36-.6.56-.6.58l1.92.54s-.05-.53.02-.9c.08-.37.33-.31.41-.69.08-.38-.18-.43-.11-.8.06-.37.38-.31.44-.69.06-.38-.53-.35-.47-.72.05-.37.29-.46.31-.84.03-.37.18-.31.21-.69.03-.38-.2-.44-.17-.81.03-.37.46-.36.47-.74.01-.38-.43-.39-.42-.76.01-.37.16-.37.17-.75.01-.38.2-.38.19-.75-.01-.38-.52-.33-.53-.7-.01-.37.4-.42.39-.8-.01-.38-.19-.37-.23-.74-.03-.37.3-.49.27-.78l-1.99.17c.02.27.28.21.31.57.03.36-.12.37-.11.73Z"/>
        <path d="M80.65,46.76c.19.29.44.06.6.38.16.32-.02.65.14.95.17.31.27.26.41.59.13.33-.15.45-.02.78.13.32.42.31.51.65.1.34.65.05.76.4.11.35-.52.59-.42.92.09.34.28.39.36.74.08.35-.4.33-.33.67.07.35.52.26.57.62.05.36,0,.37.05.72.05.36-.27.42-.21.77.06.35.54.35.57.71.03.36-.37.74-.37.76l1.99-.17s-.25-.47-.28-.84c-.03-.37.21-.4.16-.78-.06-.38-.33-.34-.39-.71-.06-.37.27-.42.22-.8-.06-.38-.62-.16-.69-.52-.08-.36.09-.52,0-.89-.09-.37.08-.36-.02-.73-.11-.37-.36-.34-.47-.7-.11-.36.29-.5.18-.87-.11-.37-.54-.21-.68-.56-.14-.35,0-.41-.15-.76-.15-.35.04-.44-.14-.78-.18-.35-.62-.09-.79-.42-.18-.33.18-.57-.03-.91-.21-.33-.38-.22-.59-.55-.21-.32.02-.6-.15-.84l-1.61,1.19c.15.21.34.03.53.33.19.3.06.37.25.67Z"/>
        <path d="M71.65,41.13c.35.01.31-.32.66-.26.35.06.5.39.84.45.34.06.36-.05.7.04.34.09.26.39.58.48.32.09.48-.09.8.03.32.13.46-.47.8-.33.34.14.06.79.36.95.3.17.47.05.77.22.28.21-.08.52.18.72.27.2.54-.14.82.07.26.23.22.28.47.52.25.24.03.48.28.71.22.25.61-.02.84.25.23.28.09.78.1.8l1.61-1.19s-.49-.27-.74-.57c-.25-.3-.05-.47-.32-.76-.29-.28-.49-.08-.77-.35-.29-.26-.05-.52-.36-.78-.32-.24-.58.28-.89.05-.31-.22-.28-.48-.62-.68-.34-.19-.22-.3-.56-.5-.35-.19-.49-.02-.84-.17-.36-.15-.19-.54-.57-.7-.38-.14-.51.24-.88.14-.37-.1-.33-.24-.71-.35-.38-.09-.33-.31-.72-.37-.39-.06-.44.44-.82.38-.37-.05-.36-.48-.75-.52-.39-.02-.4.17-.79.15-.38-.02-.47-.36-.77-.38v2c.26.01.23-.25.58-.23.35.02.34.17.69.19Z"/>
      </g>
    </g>
  </g>
  <g>
    <path class="st3" d="M64.76,87.8c-4.85.69-10.64,1.18-16.82,1.2-6.57.02-12.27-.48-17.35-1.2-.28,0-1.77-.03-2.98-1.23-.76-.76-1.23-1.82-1.23-2.98V31.64c0-.08.07-.15.15-.15h42.16c.08,0,.15.07.15.15v52.07c0,2.26-1.83,4.08-4.08,4.08Z"/>
    <g>
      <path d="M54.11,89.71c.38-.02.28-.35.66-.38.38-.02.62.27,1,.25.38-.03.37-.16.75-.19.38-.03.41.28.79.25.38-.03.45-.29.83-.33.38-.03.21-.63.58-.67.37-.03.49.62.87.59.38-.04.45-.23.83-.27.38-.04.29.44.67.4.38-.04.34-.48.71-.52.38-.04.38,0,.76-.03.38-.05.44.28.81.23.38-.05.37-.53.74-.58.36-.05.81.32.77.33l-.22-1.99c-.1.02-.47.27-.85.33-.37.05-.4-.2-.77-.15-.37.05-.34.32-.71.37-.37.04-.4-.28-.77-.24-.37.04-.19.6-.56.64-.37.04-.51-.15-.88-.11-.37.04-.34-.12-.71-.08-.37.03-.39.28-.76.31-.37.03-.42-.39-.79-.36-.37.03-.33.46-.7.49-.37.03-.38-.12-.76-.09-.37.03-.39-.16-.76-.14-.37.02-.3.53-.68.55-.37.02-.43-.38-.81-.36-.37.02-.36.22-.74.23-.37.02-.48-.32-.76-.3l.08,2c.28-.01.24-.27.61-.29.38-.02.38.14.76.12Z"/>
      <path d="M41.9,89.76c.38.02.31-.33.69-.31.38.02.59.33.97.35.38.01.38-.12.76-.11.38,0,.38.32.76.32.38,0,.47-.25.85-.25.38,0,.27-.61.65-.6.38,0,.43.67.81.67.38,0,.47-.18.85-.19.38,0,.25.46.63.46.38,0,.38-.44.76-.45.38,0,.38.05.76.04.38-.01.41.31.79.3.38,0,.42-.5.79-.51.38-.01.75.4.77.4l-.08-2s-.47.23-.85.24c-.37.01-.38-.23-.75-.23-.37.01-.37.29-.74.3-.37,0-.37-.33-.75-.32-.37,0-.25.58-.62.58-.37,0-.49-.2-.87-.19-.37,0-.33-.15-.7-.15-.37,0-.42.24-.79.24-.37,0-.38-.43-.75-.44-.37,0-.37.43-.74.42-.37,0-.37-.15-.74-.16-.37-.01-.37-.2-.74-.21-.37-.01-.35.5-.73.48-.37-.02-.39-.42-.77-.44-.37-.02-.38.18-.75.16-.37-.02-.45-.36-.73-.38l-.12,2c.28.02.26-.25.64-.23.38.02.37.17.75.19Z"/>
      <path d="M29.72,88.61c.44.07.41-.28.79-.26h.02c.28.06.51.38.86.43.38.05.39-.08.77-.04.38.05.35.35.72.4.38.05.5-.2.87-.16.38.04.33-.58.7-.54.37.04.36.71.73.75.38.04.49-.14.86-.1.38.04.2.49.58.52.38.03.42-.4.8-.37.38.03.37.08.75.11.38.03.37.36.75.38.38.03.46-.45.84-.43.38.02.7.47.73.47l.12-2s-.49.18-.87.15c-.37-.03-.35-.27-.72-.3-.37-.03-.39.25-.77.22-.37-.03-.34-.36-.71-.39-.37-.03-.31.55-.68.52-.37-.03-.47-.24-.84-.28-.37-.04-.31-.18-.68-.22-.37-.04-.44.2-.81.16-.37-.04-.33-.47-.7-.51-.37-.04-.41.39-.78.35-.37-.05-.35-.19-.72-.24-.37-.05-.35-.24-.72-.28-.37-.05-.4.46-.77.41-.08-.01-.17-.04-.23-.09-.25-.11-.24-.36-.49-.39-.3-.05-.34.14-.65.05-.31-.11-.24-.45-.42-.55l-.94,1.76c.31.16.38-.09.79.06.42.14.37.29.82.38Z"/>
      <path d="M25.48,77.37c0,.38.34.29.34.67s-.31.6-.31.97.13.38.13.75-.31.39-.31.76.26.47.26.84.61.26.61.64-.67.43-.67.81c0,.38.18.46.19.85.02.43-.46.31-.39.78.09.47.52.37.65.78.16.41.11.43.32.82.23.37-.02.58.27.95.32.36.7.05,1.02.32.32.26.47.83.51.85l.94-1.76s-.44,0-.67-.21c-.23-.21-.05-.38-.24-.59-.17-.22-.4-.06-.56-.33-.15-.27.16-.41.06-.66-.08-.26-.62-.02-.69-.35-.05-.33.14-.43.14-.77,0-.37.15-.33.15-.71s-.24-.42-.24-.79.43-.38.43-.76-.44-.37-.44-.74.14-.38.14-.75.19-.38.19-.75-.51-.34-.51-.71.41-.41.41-.79-.19-.38-.19-.75.34-.47.34-.75h-2c0,.28.26.24.26.62s-.15.37-.15.75Z"/>
      <path d="M25.48,65.24c0,.38.34.29.34.67s-.31.6-.31.97.13.38.13.75-.31.39-.31.76.26.47.26.84.61.26.61.64-.67.43-.67.81.19.47.19.84-.46.24-.46.62.44.38.44.76-.05.38-.05.75-.33.4-.33.77.48.43.48.81-.43.73-.43.75h2s-.21-.49-.21-.86.25-.37.25-.75-.28-.38-.28-.75.33-.37.33-.74-.57-.26-.57-.64.2-.49.2-.87.15-.33.15-.71-.24-.42-.24-.79.43-.38.43-.76-.44-.37-.44-.74.14-.38.14-.75.19-.38.19-.75-.51-.34-.51-.71.41-.41.41-.79-.19-.38-.19-.75.34-.47.34-.75h-2c0,.28.26.24.26.62s-.15.37-.15.75Z"/>
      <path d="M25.48,53.12c0,.38.34.29.34.67s-.31.6-.31.97.13.38.13.75-.31.39-.31.76.26.47.26.84.61.26.61.64-.67.43-.67.81.19.47.19.84-.46.24-.46.62.44.38.44.76-.05.38-.05.75-.33.4-.33.77.48.43.48.81-.43.73-.43.75h2s-.21-.49-.21-.86.25-.37.25-.75-.28-.38-.28-.75.33-.37.33-.74-.57-.26-.57-.64.2-.49.2-.87.15-.33.15-.71-.24-.42-.24-.79.43-.38.43-.76-.44-.37-.44-.74.14-.38.14-.75.19-.38.19-.75-.51-.34-.51-.71.41-.41.41-.79-.19-.38-.19-.75.34-.47.34-.75h-2c0,.28.26.24.26.62s-.15.37-.15.75Z"/>
      <path d="M25.48,41c0,.38.34.29.34.67s-.31.6-.31.97.13.38.13.75-.31.39-.31.76.26.47.26.84.61.26.61.64-.67.43-.67.81.19.47.19.84-.46.24-.46.62.44.38.44.76-.05.38-.05.75-.33.4-.33.77.48.43.48.81-.43.73-.43.75h2s-.21-.49-.21-.86.25-.37.25-.75-.28-.38-.28-.75.33-.37.33-.74-.57-.26-.57-.64.2-.49.2-.87.15-.33.15-.71-.24-.42-.24-.79.43-.38.43-.76-.44-.37-.44-.74.14-.38.14-.75.19-.38.19-.75-.51-.34-.51-.71.41-.41.41-.79-.19-.38-.19-.75.34-.47.34-.75h-2c0,.28.26.24.26.62s-.15.37-.15.75Z"/>
      <path d="M29.06,30.6c-.38,0-.29.34-.67.34-.46,0-.83-.31-1.39-.31-.52.04-.43.18-.84.28-.19.02-.36.09-.45.14-.09.05-.2.09-.26.32-.13.48.16.78.15,1.28,0,.53.61.48.61.87s-.67.43-.67.81.19.47.19.84-.46.24-.46.62.44.38.44.76-.05.38-.05.75-.33.4-.33.77.48.43.48.81-.43.73-.43.75h2s-.21-.49-.21-.86.25-.37.25-.75-.28-.38-.28-.75.33-.37.33-.74-.57-.26-.57-.64.2-.49.2-.87.15-.33.15-.71-.24-.42-.24-.79c0-.28.43-.2.43-.37s-.44-.4-.44-.67c0-.13.04-.16.07-.19.04-.04.14-.03.26-.02.24,0,.36.19.55.19s0-.51.31-.51c.27,0,.38.41.74.41.38,0,.38-.19.75-.19s.47.34.75.34v-2c-.28,0-.24.26-.62.26s-.37-.15-.75-.15Z"/>
      <path d="M41.18,30.6c-.38,0-.29.34-.67.34s-.6-.31-.97-.31-.38.13-.75.13-.39-.31-.76-.31-.47.26-.84.26-.26.61-.64.61-.43-.67-.81-.67-.47.19-.84.19-.24-.46-.62-.46-.38.44-.76.44-.38-.05-.75-.05-.4-.33-.77-.33-.43.48-.81.48-.73-.43-.75-.43v2s.49-.21.86-.21.37.25.75.25.38-.28.75-.28.37.33.74.33.26-.57.64-.57.49.2.87.2.33.15.71.15.42-.24.79-.24.38.43.76.43.37-.44.74-.44.38.14.75.14.38.19.75.19.34-.51.71-.51.41.41.79.41.38-.19.75-.19.47.34.75.34v-2c-.28,0-.24.26-.62.26s-.37-.15-.75-.15Z"/>
      <path d="M53.3,30.6c-.38,0-.29.34-.67.34s-.6-.31-.97-.31-.38.13-.75.13-.39-.31-.76-.31-.47.26-.84.26-.26.61-.64.61-.43-.67-.81-.67-.47.19-.84.19-.24-.46-.62-.46-.38.44-.76.44-.38-.05-.75-.05-.4-.33-.77-.33-.43.48-.81.48-.73-.43-.75-.43v2s.49-.21.86-.21.37.25.75.25.38-.28.75-.28.37.33.74.33.26-.57.64-.57.49.2.87.2.33.15.71.15.42-.24.79-.24.38.43.76.43.37-.44.74-.44.38.14.75.14.38.19.75.19.34-.51.71-.51.41.41.79.41.38-.19.75-.19.47.34.75.34v-2c-.28,0-.24.26-.62.26s-.37-.15-.75-.15Z"/>
      <path d="M65.42,30.6c-.38,0-.29.34-.67.34s-.6-.31-.97-.31-.38.13-.75.13-.39-.31-.76-.31-.47.26-.84.26-.26.61-.64.61-.43-.67-.81-.67-.47.19-.84.19-.24-.46-.62-.46-.38.44-.76.44-.38-.05-.75-.05-.4-.33-.77-.33-.43.48-.81.48-.73-.43-.75-.43v2s.49-.21.86-.21.37.25.75.25.38-.28.75-.28.37.33.74.33.26-.57.64-.57.49.2.87.2.33.15.71.15.42-.24.79-.24.38.43.76.43.37-.44.74-.44.38.14.75.14.38.19.75.19.34-.51.71-.51.41.41.79.41.38-.19.75-.19.47.34.75.34v-2c-.28,0-.24.26-.62.26s-.37-.15-.75-.15Z"/>
      <path d="M69.73,40.26c0-.38-.34-.29-.34-.67s.31-.6.31-.97-.13-.38-.13-.75.31-.39.31-.76-.26-.47-.26-.84-.61-.26-.61-.64.67-.43.67-.81-.19-.47-.19-.84c0-.19.12-.25.23-.31.12-.08.23-.07.23-.39,0-.6-.44-.49-.44-.98-.02-.49.02-.53-.07-.95-.04-.19-.02-.36-.09-.49-.05-.11-.08-.21-.3-.28-.47-.14-.84.36-1.3.35-.24,0-.45-.11-.63-.21-.18-.11-.32-.21-.32-.21v2s.28-.21.54-.21c.23,0,.08.25.26.25.16-.01.51-.29.48-.04,0,.24-.33.44-.33.6s.57-.06.57.22c0,.25-.2.46-.2.81,0,.37-.15.33-.15.71s.24.42.24.79-.43.38-.43.76.44.37.44.74-.14.38-.14.75-.19.38-.19.75.51.34.51.71-.41.41-.41.79.19.38.19.75-.34.47-.34.75h2c0-.28-.26-.24-.26-.62s.15-.37.15-.75Z"/>
      <path d="M69.73,52.39c0-.38-.34-.29-.34-.67s.31-.6.31-.97-.13-.38-.13-.75.31-.39.31-.76-.26-.47-.26-.84-.61-.26-.61-.64.67-.43.67-.81-.19-.47-.19-.84.46-.24.46-.62-.44-.38-.44-.76.05-.38.05-.75.33-.4.33-.77-.48-.43-.48-.81.43-.73.43-.75h-2s.21.49.21.86-.25.37-.25.75.28.38.28.75-.33.37-.33.74.57.26.57.64-.2.49-.2.87-.15.33-.15.71.24.42.24.79-.43.38-.43.76.44.37.44.74-.14.38-.14.75-.19.38-.19.75.51.34.51.71-.41.41-.41.79.19.38.19.75-.34.47-.34.75h2c0-.28-.26-.24-.26-.62s.15-.37.15-.75Z"/>
      <path d="M69.73,64.51c0-.38-.34-.29-.34-.67s.31-.6.31-.97-.13-.38-.13-.75.31-.39.31-.76-.26-.47-.26-.84-.61-.26-.61-.64.67-.43.67-.81-.19-.47-.19-.84.46-.24.46-.62-.44-.38-.44-.76.05-.38.05-.75.33-.4.33-.77-.48-.43-.48-.81.43-.73.43-.75h-2s.21.49.21.86-.25.37-.25.75.28.38.28.75-.33.37-.33.74.57.26.57.64-.2.49-.2.87-.15.33-.15.71.24.42.24.79-.43.38-.43.76.44.37.44.74-.14.38-.14.75-.19.38-.19.75.51.34.51.71-.41.41-.41.79.19.38.19.75-.34.47-.34.75h2c0-.28-.26-.24-.26-.62s.15-.37.15-.75Z"/>
      <path d="M69.73,76.63c0-.38-.34-.29-.34-.67s.31-.6.31-.97-.13-.38-.13-.75.31-.39.31-.76-.26-.47-.26-.84-.61-.26-.61-.64.67-.43.67-.81-.19-.47-.19-.84.46-.24.46-.62-.44-.38-.44-.76.05-.38.05-.75.33-.4.33-.77-.48-.43-.48-.81.43-.73.43-.75h-2s.21.49.21.86-.25.37-.25.75.28.38.28.75-.33.37-.33.74.57.26.57.64-.2.49-.2.87-.15.33-.15.71.24.42.24.79-.43.38-.43.76.44.37.44.74-.14.38-.14.75-.19.38-.19.75.51.34.51.71-.41.41-.41.79.19.38.19.75-.34.47-.34.75h2c0-.28-.26-.24-.26-.62s.15-.37.15-.75Z"/>
      <path d="M66.4,88.41c.44-.16.2-.44.59-.63.36-.21.76-.1,1.1-.42.33-.31.23-.41.51-.75.26-.35.52-.21.75-.63.21-.43,0-.63.12-1.05.11-.44-.54-.42-.47-.8.02-.38.69-.45.69-.82,0-.38-.19-.47-.19-.84s.46-.24.46-.62-.44-.38-.44-.76.05-.38.05-.75.33-.4.33-.77-.48-.43-.48-.81.43-.73.43-.75h-2s.21.49.21.86-.25.37-.25.75.28.38.28.75-.33.37-.33.74.57.26.57.64-.2.49-.2.87-.15.33-.15.71c0,.39.24.42.22.73-.05.32-.46.25-.53.51-.09.26.33.42.19.71-.15.28-.27.21-.45.45-.19.24-.33.12-.54.31-.21.19.12.57-.16.76-.29.18-.51-.18-.77-.07-.27.1-.23.28-.53.35-.16.02-.26-.04-.35-.12-.09-.08-.13-.16-.38-.15l.22,1.99s.14-.07.22-.14c.08-.07.18-.14.4-.18.44-.07.47.07.91-.07Z"/>
    </g>
  </g>
  <path class="st1" d="M61.87,82.82c-3.9.75-8.74,1.37-14.3,1.35-5.41-.01-10.13-.61-13.96-1.35-.19,0-1.23-.02-2.06-.85-.53-.53-.85-1.26-.85-2.06v-39.73h34.01v39.81c0,1.57-1.27,2.84-2.84,2.84Z"/>
  <g>
    <path class="st3" d="M66.08,18.14c-1.87-1-4.03-1.36-5.84-2.47-2.01-1.23-3.39-3.25-5.26-4.68-4.24-3.25-10.93-2.67-14.54,1.26-1.23,1.34-2.24,2.49-3.96,3.06-1.08.35-2.27.55-3.38.77-3.42.7-7.59,2.8-9.16,6.11-1.57,3.31-1.46,7.4,1.59,9.89,2.07,1.57,3.9,1.52,6.52,1.4,2.62-.12,5.18-1.5,7.8-1.52,3.33-.02,6.65,1.84,9.92,1.2,1.94-.38,3.65-.85,4.98.26.68.57,1.19,1.65,1.2,2.53.04,3.62-.03,7.57,0,11.19.02,1.82.99,3.45,2.77,3.11,1.27-.25,1.63-1.3,1.67-2.59.13-4.07-.88-11.1,2.06-13.92,1.91-1.84,5.81-.62,7.64-2.55.86-.91,1.46-1.63,1.75-3.51.72-4.7-2.13-7.61-5.76-9.55Z"/>
    <g>
      <path class="st2" d="M56.62,13.73c.26.26.44-.04.7.22.26.26.19.63.47.89.28.26.37.16.65.41.29.25.1.49.42.73.32.24.55.08.88.29.34.21.54-.38.86-.21.32.17.08.79.43.95.35.15.51.02.85.15.35.13.06.52.41.65.35.13.5-.28.84-.16.34.12.32.17.66.29.33.12.24.43.55.56.31.13.54-.3.86-.16.32.14.39.67.41.68l.94-1.76s-.55-.05-.89-.2c-.35-.15-.25-.38-.6-.52-.35-.13-.45.12-.8,0-.34-.12-.23-.43-.57-.55-.34-.12-.43.46-.76.34-.33-.12-.37-.35-.69-.47-.32-.13-.22-.25-.53-.39-.3-.14-.44.06-.74-.1-.29-.17-.09-.53-.35-.7-.26-.17-.51.18-.78-.02-.27-.21-.18-.32-.43-.54-.26-.23-.13-.36-.38-.6-.25-.23-.58.15-.83-.1-.25-.25.01-.56-.24-.82-.25-.26-.39-.12-.65-.38-.26-.26-.08-.56-.28-.76l-1.39,1.44c.19.18.35-.03.6.22.25.25.14.36.39.62Z"/>
      <path class="st2" d="M47.05,9.88c.33-.04.22-.38.56-.41.35-.01.56.28.89.27.33.01.34-.12.68-.11.34,0,.32.34.64.37.32.04.45-.22.77-.14.33.07.36-.55.71-.47.35.09.2.76.51.85.32.09.45-.04.77.09.31.14.01.5.3.64.28.15.49-.23.79-.07.29.16.25.23.53.41.28.19.1.45.35.66.25.21.6-.13.86.11.26.23.2.77.21.79l1.39-1.44s-.49-.19-.77-.44c-.29-.25-.12-.44-.42-.69-.3-.25-.49-.02-.8-.24-.32-.21-.12-.51-.48-.7-.35-.19-.52.37-.85.19-.33-.18-.37-.39-.72-.54-.35-.15-.26-.28-.63-.4-.37-.11-.48.09-.85,0-.37-.08-.29-.5-.67-.58-.39-.08-.45.37-.82.32-.38-.04-.36-.21-.75-.22-.38-.02-.38-.21-.77-.22-.39.01-.34.52-.71.54-.37.01-.44-.38-.83-.33-.38.06-.36.23-.73.3-.37.08-.53-.23-.82-.17l.49,1.94c.24-.05.15-.3.48-.37.33-.08.36.09.69.05Z"/>
      <path class="st2" d="M37.68,15.78c.37-.19.13-.44.46-.65.32-.21.7-.1,1.01-.36.3-.26.21-.36.49-.62.27-.26.5-.06.76-.33.26-.27.13-.51.37-.78.25-.26-.29-.6-.03-.85.26-.25.75.2.98-.03.26-.2.2-.4.47-.61.27-.21.45.25.71.07.27-.17.04-.56.34-.72.3-.16.33-.11.62-.26.3-.14.46.16.76.03.3-.13.18-.59.51-.69.33-.1.74.22.76.23l-.49-1.94s-.43.34-.8.45c-.37.11-.45-.12-.81.03-.36.16-.26.39-.61.56-.34.18-.49-.12-.84.06-.35.19.06.64-.26.84-.31.21-.54.1-.84.34-.3.24-.36.09-.67.34-.28.27-.15.48-.42.75-.28.27-.58-.01-.83.25-.24.26.09.55-.16.81-.24.25-.35.15-.59.39-.25.23-.37.09-.62.3-.24.2.09.58-.19.78-.28.19-.52-.15-.79,0-.27.14-.19.31-.49.43-.3.11-.49-.19-.72-.12l.55,1.92c.28-.09.16-.32.54-.45.38-.14.44,0,.81-.18Z"/>
      <path class="st2" d="M27.09,19.77c.26-.21,0-.43.28-.64.28-.21.63-.05.91-.23.29-.17.23-.29.52-.46.31-.16.46.11.75-.05.31-.14.27-.41.58-.55.32-.13-.02-.66.32-.79.34-.13.61.49.93.37.33-.1.35-.31.68-.41.34-.09.34.39.66.3.33-.07.23-.5.58-.58.35-.07.36-.02.71-.08.35-.07.44.25.8.17.36-.08.31-.56.67-.64.36-.08.81.23.84.23l-.55-1.92s-.36.32-.7.39c-.34.08-.39-.17-.73-.1-.35.07-.29.34-.65.41-.35.07-.41-.26-.77-.19-.37.08-.14.62-.5.7-.36.09-.52-.07-.89.03-.36.11-.36-.05-.72.07-.36.13-.32.37-.66.5-.34.14-.52-.25-.87-.1-.35.16-.16.55-.49.71-.33.17-.4.04-.73.22-.33.19-.42.03-.75.22-.32.21-.02.62-.32.82-.3.22-.57-.09-.88.14-.3.25-.17.4-.47.64-.28.26-.58.08-.8.29l1.42,1.41c.18-.17-.03-.33.22-.57.25-.23.36-.1.61-.31Z"/>
      <path class="st2" d="M24.37,29.13c-.13-.29-.4-.11-.52-.42-.1-.32.15-.59.09-.89-.04-.32-.2-.29-.22-.62-.02-.33.27-.35.27-.67,0-.31-.26-.4-.23-.73.02-.33-.59-.29-.54-.64.05-.36.72-.28.79-.6.06-.32-.07-.45.02-.77.1-.32.51-.06.62-.36.1-.3-.28-.47-.15-.78.14-.31.2-.27.35-.56.16-.29.46-.12.62-.38.18-.25-.16-.58.04-.85.11-.13.31-.17.46-.19.16-.02.29,0,.3,0l-1.42-1.41s-.2.51-.45.81c-.24.31-.45.15-.68.48-.22.35,0,.48-.19.83-.18.35-.5.2-.66.56-.16.36.41.48.28.83-.12.35-.37.4-.47.77-.1.37-.25.28-.33.67-.08.38.14.47.09.85-.06.38-.48.34-.51.74-.03.4.42.41.41.79,0,.38-.13.39-.1.79.03.39-.13.42-.07.82.08.4.58.24.67.61.11.36-.25.53-.11.91.17.37.34.29.52.64.2.33-.05.61.14.86l1.65-1.13c-.14-.18-.33-.03-.5-.3-.17-.28,0-.35-.15-.63Z"/>
      <path class="st2" d="M33.33,32.43c-.33.05-.2.39-.54.43-.35.05-.55-.25-.89-.23-.36.02-.35.15-.71.16-.35.01-.37-.29-.71-.29-.34,0-.42.26-.76.25-.34-.02-.27.6-.62.57-.36-.04-.31-.71-.62-.77-.31-.07-.43.1-.74,0-.31-.11-.03-.5-.31-.61-.27-.12-.47.26-.76.1-.28-.17-.26-.21-.51-.4-.27-.18-.05-.47-.28-.66-.22-.19-.59.09-.82-.15-.12-.12-.12-.32-.1-.48.02-.16.06-.28.05-.29l-1.65,1.13s.46.32.74.61c.27.29.08.48.39.76.32.28.48.08.81.31.33.23.14.5.5.72.37.2.52-.36.87-.2.35.16.4.39.78.51.38.11.3.25.7.33.4.08.48-.16.86-.12.38.04.36.46.76.48.39,0,.38-.43.75-.43.37,0,.37.14.74.13.37-.01.37.18.74.16.38-.02.32-.53.69-.56.37-.05.47.35.85.28.38-.07.34-.26.7-.34.36-.09.53.22.8.15l-.51-1.93c-.25.07-.16.31-.5.39-.34.08-.37-.08-.7,0Z"/>
      <path class="st2" d="M45.08,31.94c-.35-.08-.35.27-.7.19-.35-.08-.48-.43-.84-.52-.36-.08-.39.05-.75-.03-.36-.08-.31-.38-.69-.44-.37-.07-.51.19-.88.13-.38-.04-.32.58-.69.55-.36-.01-.4-.69-.8-.68-.4.01-.48.21-.86.24-.38.05-.31-.43-.7-.37-.38.07-.31.5-.67.58-.37.08-.38.03-.74.12-.35.09-.46-.22-.81-.12-.35.1-.27.57-.62.67-.35.1-.77-.23-.79-.23l.51,1.93s.41-.32.76-.42c.35-.1.41.14.76.05.34-.09.27-.36.61-.45.34-.08.41.24.74.17.33-.07.11-.61.45-.68.34-.05.48.12.8.09.33-.03.3.13.62.12.32,0,.37-.24.71-.22.34.03.31.45.63.49.33.05.38-.4.73-.33.34.06.31.2.66.27.34.07.3.26.65.33.34.08.43-.42.78-.34.35.08.29.49.64.57.36.08.4-.11.76-.03.36.07.38.42.67.48l.36-1.97c-.25-.04-.27.22-.61.15-.35-.07-.31-.23-.65-.3Z"/>
      <path class="st2" d="M56.43,34.26c-.2-.4-.45-.15-.66-.5-.23-.33-.16-.74-.55-1.06-.38-.28-.45-.17-.86-.36-.41-.17-.34-.46-.81-.57-.46-.07-.59.18-1,.19-.41.02-.25.62-.61.65-.36.04-.51-.61-.89-.55-.37.07-.42.27-.78.34-.35.07-.32-.41-.67-.34-.31.05-.24.48-.57.52-.33.02-.33-.02-.66-.02-.33,0-.34-.32-.66-.35-.32-.02-.42.45-.76.41-.35-.04-.59-.53-.61-.53l-.36,1.97s.51-.11.89-.07c.38.05.35.29.75.32.39.03.41-.26.8-.25.39,0,.4.31.81.29.41-.06.21-.61.59-.67.36-.07.51.1.86.03.35-.07.34.09.67.03.33-.06.34-.3.67-.34.33-.03.37.39.65.39.27,0,.3-.43.6-.39.28.07.24.2.48.3.24.12.14.28.33.42.17.14.52-.23.72.02.19.26-.15.5-.02.75.12.25.3.19.39.47.08.29-.26.41-.25.56l2-.07c-.03-.38-.28-.3-.37-.73-.11-.42.03-.46-.14-.87Z"/>
      <path class="st2" d="M56.84,46.19c0-.36-.34-.28-.34-.64,0-.36.31-.58.31-.94,0-.36-.14-.36-.14-.72,0-.36.31-.37.31-.73,0-.36-.26-.44-.26-.8,0-.36-.61-.24-.61-.6,0-.36.67-.42.67-.78,0-.36-.19-.45-.19-.81,0-.36.46-.24.46-.6,0-.36-.44-.36-.44-.72,0-.36.05-.36.05-.72,0-.36.33-.38.33-.74,0-.36-.48-.41-.48-.77,0-.37.43-.68.43-.75l-2,.07s.06.1.11.27c.05.16.1.35.1.53,0,.36-.25.36-.25.72,0,.36.28.36.28.72,0,.36-.33.36-.33.72,0,.36.57.24.58.6,0,.36-.2.48-.2.83,0,.36-.15.32-.15.68,0,.36.24.4.24.76,0,.36-.43.37-.43.73,0,.36.44.35.44.71,0,.36-.14.36-.14.72,0,.36-.19.36-.19.72,0,.36.51.32.51.68,0,.36-.41.4-.41.76,0,.36.19.36.19.72,0,.35-.34.46-.32.79l1.99-.16c0-.22-.28-.15-.28-.52,0-.36.15-.36.15-.72Z"/>
      <path class="st2" d="M59.49,45.23c0,.36.35.27.35.63,0,.36-.3.57-.3.92,0,.35.13.35.13.7,0,.35-.31.33-.34.62-.04.27.2.41.12.64-.08.2.5.43.31.71-.23.27-.71-.22-.87-.13-.19.09-.17.28-.43.32-.25.02-.17-.45-.33-.46-.14-.03-.3.39-.52.28-.2-.14-.16-.17-.32-.35-.16-.21.11-.39,0-.6-.1-.22-.57-.11-.65-.41-.08-.32.33-.66.33-.66l-1.99.16s.25.53.37.94c.12.41-.12.49.08.93.23.43.46.28.75.65.32.34.12.61.59.91.51.24.57-.35,1-.24.44.08.6.26,1.07.19.47-.11.48.06.94-.17.44-.27.33-.51.62-.86.25-.38.64-.21.83-.72.14-.48-.31-.55-.25-.95.04-.39.18-.4.19-.77,0-.37.2-.37.2-.74,0-.37-.51-.33-.51-.69,0-.36.4-.4.39-.77,0-.36-.2-.36-.21-.72,0-.36.33-.46.32-.72l-2,.04c0,.27.27.23.28.59,0,.36-.15.36-.14.72Z"/>
      <path class="st2" d="M61.58,33.39c-.27.33.02.45-.19.79-.21.33-.62.37-.78.75-.16.37-.06.42-.18.79-.12.37-.43.28-.54.67-.09.38.13.53.05.91-.06.38.56.37.5.73-.06.36-.72.32-.77.7-.04.37.13.48.11.85-.03.37-.48.21-.5.58-.02.37.42.4.41.76-.01.37-.06.37-.07.73,0,.37-.33.39-.33.75,0,.37.49.41.49.78,0,.36-.42.71-.42.73l2-.04s-.22-.46-.22-.81c0-.36.25-.36.24-.71,0-.35-.27-.35-.27-.71,0-.35.33-.34.35-.69.01-.35-.57-.26-.55-.62.02-.35.23-.45.25-.8.02-.35.18-.29.22-.63.04-.34-.2-.41-.14-.75.06-.34.47-.27.54-.6.08-.31-.35-.41-.27-.74.09-.32.24-.28.34-.59.1-.32.3-.23.42-.51.12-.28-.34-.49-.15-.77.18-.28.52-.08.71-.29.19-.21.05-.38.27-.55.22-.19.48.1.63-.01l-.89-1.79c-.3.18-.14.36-.5.62-.35.28-.46.16-.74.49Z"/>
      <path class="st2" d="M70.79,28.37c-.08.3.26.33.15.64-.12.31-.48.33-.63.57-.16.25-.06.32-.26.58-.22.25-.45.05-.68.3-.2.16-.04.41-.29.56-.22.15.12.63-.19.79-.33.13-.58-.49-.88-.41-.3.08-.35.27-.69.33-.34.05-.29-.43-.62-.38-.35.04-.3.48-.66.52-.36.04-.37-.01-.74.04-.37.05-.45-.26-.83-.19-.4.09-.34.56-.72.68-.37.1-.91-.1-.94-.09l.89,1.79s.24-.34.55-.43c.3-.09.37.17.67.09.33-.05.27-.33.62-.38.34-.05.38.29.73.24.35-.04.18-.6.54-.64.36-.05.5.14.88.07.38-.07.36.09.76,0,.4-.11.37-.36.75-.5.37-.17.58.21.99-.05.39-.28.1-.64.39-.91.25-.27.36-.17.62-.47.25-.31.41-.2.65-.56.22-.38-.24-.58-.08-.93.15-.36.55-.26.66-.66.1-.39-.09-.43-.01-.81.07-.37.41-.42.44-.72l-1.99-.22c-.03.24.25.24.19.58-.06.33-.21.29-.29.6Z"/>
      <path class="st2" d="M66.74,19.56c.29.18.41-.14.7.05.29.19.26.57.53.77.26.21.34.11.6.33.26.22.04.46.27.69.23.23.46.12.68.37.2.26.62-.2.83.09.21.29-.34.7-.16.97.16.28.35.27.5.56.12.31-.35.37-.24.66.1.28.51.17.6.49.08.32,0,.33.07.65.06.32-.29.38-.26.69.03.31.48.35.49.69,0,.34-.49.61-.48.62l1.99.22s-.14-.53-.14-.92c0-.39.27-.39.24-.8-.04-.41-.29-.38-.36-.77-.08-.39.27-.45.17-.85-.11-.4-.63-.12-.74-.49-.14-.35.01-.55-.16-.91-.18-.35-.01-.39-.21-.73-.22-.34-.43-.25-.66-.56-.23-.3.11-.59-.16-.89-.27-.3-.57,0-.84-.27-.27-.26-.17-.38-.45-.63-.29-.25-.16-.4-.47-.64-.31-.23-.58.19-.88-.03-.31-.21-.11-.57-.42-.78-.32-.2-.42-.03-.74-.23-.32-.18-.24-.52-.49-.66l-.94,1.76c.22.12.32-.12.62.05.3.17.21.31.51.49Z"/>
    </g>
  </g>
  <circle class="st3" cx="40.14" cy="47.73" r="1.8"/>
  <circle class="st3" cx="43.48" cy="55.84" r="1.54"/>
  <circle class="st3" cx="40.18" cy="61.39" r="1.31"/>
  <circle class="st3" cx="41.75" cy="67.19" r="1.12"/>
  <circle class="st3" cx="39.82" cy="71.86" r=".81"/>
</svg>