<?xml version="1.0" encoding="UTF-8"?>
<svg id="_レイヤー_1" xmlns="http://www.w3.org/2000/svg" version="1.1" viewBox="0 0 100 100">
  <!-- Generator: Adobe Illustrator 30.0.0, SVG Export Plug-In . SVG Version: 2.1.1 Build 123)  -->
  <defs>
    <style>
      .st0 {
        fill: #ceb372;
      }

      .st1 {
        stroke: #000;
        stroke-linecap: round;
        stroke-linejoin: round;
      }

      .st1, .st2 {
        fill: #fff;
      }
    </style>
  </defs>
  <g>
    <path class="st2" d="M82.61,44.85c-2.38-3.2-5.82-4.87-10.08-4.84-7.57.05-13.64,8.59-13.57,19.06.07,10.47,6.27,18.92,13.83,18.87,8.53-.06,13.65-7.26,13.57-19.06-.03-4.15-.65-7.67-1.8-10.51M71.04,72.35c-5.65.04-10.27-5.91-10.32-13.28s4.48-13.39,10.13-13.42c6.6-.05,10.26,4.96,10.32,13.28s-3.9,13.38-10.13,13.42Z"/>
    <g>
      <path d="M82.08,45.24c-5.63-7.18-15.55-5.66-19.75,2.21-5.78,9.5-3.21,28.65,9.9,30,12.07.46,14.66-13.46,13.33-22.94-.25-2.04-.77-4.03-1.39-5.97-.17-.47.56-.76.76-.31,2.97,7.01,2.7,18.23-1.6,24.65-3.53,5.58-11.89,7.36-17.17,3.24-8.45-6.73-9.7-19.98-4.72-29.18,2.08-3.75,5.66-7.04,10.11-7.45,2.19-.22,4.39.07,6.45.91,2.04.84,3.84,2.28,5.12,4.06.21.29.14.7-.15.91-.28.21-.68.14-.9-.13h0Z"/>
      <path d="M71.05,73c-10.77-.56-13.58-15.66-8.03-23.2,2.75-4.27,8.38-5.74,12.87-3.37,4.54,2.32,5.76,7.95,5.77,12.57.27,6.21-3.38,14.18-10.61,13.75,0,0,0,.24,0,.24h0ZM71.04,71.93c6.75-.25,9.8-6.87,9.64-12.93-.04-4.44-1.07-9.54-5.17-11.89-4.09-2.38-9.37-.85-11.82,3.16-4.9,6.97-2.43,20.73,7.34,21.42,0,0,0,.24,0,.24h0Z"/>
    </g>
  </g>
  <g>
    <path class="st2" d="M29.65,46.47l-.1-14.47c0-.08.07-.15.15-.15l41.11-.29c.08,0,.15.07.15.15l.35,50.77c.02,2.2-1.75,3.99-3.95,4.01-4.72.7-10.36,1.22-16.4,1.29-6.41.07-11.97-.39-16.92-1.05-.27,0-1.73-.02-2.91-1.18-.75-.74-1.22-1.76-1.22-2.9l-.22-31.8"/>
    <path d="M29.39,46.47s-.28-14.13-.28-14.13c0-.24-.06-.53.14-.73.13-.16.34-.22.54-.21,1.67-.03,4.7-.1,6.4-.13,10.55-.2,24.12-.38,34.64-.53.53,0,.98.49.95,1.01,0,0,0,.44,0,.44.08,13.06.42,36.63.5,49.47.35,3.26-2.08,5.78-4.79,5.79-8.34,1.2-16.8,1.55-25.2,1-2.8-.18-5.59-.5-8.37-.9-1.35.1-3.81-1.17-4.41-2.97-.65-1.41-.32-3.55-.39-5.05-.02-6.03.15-22.44.21-28.69.02-.43.65-.44.67,0,.19,7.63.56,23.59.65,31.07-.24,2.2,1.32,4.04,3.48,3.98,5.49.67,11.02,1.03,16.55.96,5.53-.07,11.06-.5,16.52-1.32,1.64.05,3.13-1.33,3.11-2.99-.05-13.16-.15-36.95-.19-50.33,0,0,0-.44,0-.44,0,0,0-.08,0-.02.01.25.18.49.41.59.08.03.16.05.25.05.04,0-.02,0-.03,0-.59.02-2.14-.01-2.76,0-10.79-.01-24.55.02-35.34-.07-.66,0-2.34-.02-2.93-.02.15,0,.28-.17.27-.3,0,0,0,.11,0,.11v.22s-.08,14.13-.08,14.13c.01.34-.53.34-.53,0h0Z"/>
  </g>
  <path class="st0" d="M64.51,81.66c-3.8.76-8.51,1.39-13.93,1.42-5.28.02-9.88-.53-13.62-1.23-.19,0-1.2-.01-2.02-.82-.52-.51-.84-1.22-.85-2l-.27-38.74,33.16-.23.27,38.81c.01,1.53-1.22,2.78-2.75,2.79Z"/>
  <path class="st1" d="M35.16,16.99c-1.27.34-2.6.88-3.83,1.58"/>
  <path class="st1" d="M28.93,20.34c-.76.73-1.39,1.55-1.82,2.47-1.5,3.24-1.38,7.22,1.62,9.63,2.03,1.52,3.81,1.46,6.37,1.32,2.56-.14,5.04-1.5,7.6-1.53,3.25-.04,6.5,1.75,9.68,1.1,1.89-.39,3.56-.85,4.85.22.66.55,1.17,1.6,1.18,2.46.06,3.53.02,7.38.09,10.91.03,1.77.99,3.36,2.72,3.01,1.24-.25,1.58-1.28,1.61-2.54.1-3.97-.93-10.82,1.92-13.59,1.85-1.81,5.66-.65,7.43-2.54.84-.89,1.41-1.6,1.68-3.43.67-4.59-2.13-7.41-5.68-9.28-1.83-.96-3.94-1.3-5.71-2.37-1.96-1.18-3.33-3.15-5.16-4.53-4.16-3.14-10.68-2.53-14.17,1.33-1.19,1.31-2.16,2.45-3.84,3.01-.14.05-.28.09-.42.13"/>
  <circle class="st2" cx="43.08" cy="47.59" r="1.76"/>
  <circle class="st2" cx="46.4" cy="55.47" r="1.5"/>
  <circle class="st2" cx="43.21" cy="60.91" r="1.28"/>
  <circle class="st2" cx="44.78" cy="66.56" r="1.09"/>
  <circle class="st2" cx="42.94" cy="71.12" r=".79"/>
</svg>