<?xml version="1.0" encoding="UTF-8"?>
<svg id="_レイヤー_1" data-name="レイヤー_1" xmlns="http://www.w3.org/2000/svg" version="1.1" viewBox="0 0 100 100">
  <!-- Generator: Adobe Illustrator 30.0.0, SVG Export Plug-In . SVG Version: 2.1.1 Build 123)  -->
  <defs>
    <style>
      .st0 {
        fill: #ceb372;
      }

      .st1 {
        fill: #1c1917;
      }

      .st2 {
        fill: #fff;
      }
    </style>
  </defs>
  <path class="st2" d="M80.13,44.42c-2.29-3.12-5.61-4.76-9.74-4.76-7.33,0-13.28,8.23-13.28,18.38,0,10.15,5.94,18.38,13.28,18.38,8.27,0,13.28-6.94,13.28-18.38,0-4.03-.58-7.44-1.67-10.19M68.74,70.99c-5.47,0-9.91-5.79-9.91-12.94s4.44-12.94,9.91-12.94c6.4,0,9.91,4.88,9.91,12.94s-3.87,12.94-9.91,12.94Z"/>
  <path class="st1" d="M81.01,44.05c-4.04-5.36-11.9-6.48-17.35-2.58-5.8,4.15-7.94,11.99-7.41,18.81.5,6.42,3.75,13.9,10.31,16.11,5.27,1.77,11.37-.48,14.53-4.95,2.14-3.02,3.07-6.76,3.39-10.4.39-4.48.09-9.21-1.54-13.44-.26-.66-2.12-.11-1.88.5,2.33,6.04,2.41,13.74.1,19.81-1.81,4.77-5.9,8.46-11.26,7.93-5.98-.59-9.75-6.66-11.09-11.96-1.61-6.33-.73-13.77,3.27-19.08,1.84-2.44,4.51-4.47,7.67-4.6,3.81-.16,7.24,1.57,9.52,4.58.39.52,2.21-.13,1.75-.74h0Z"/>
  <path class="st1" d="M69.1,70.45c-4.73-.09-7.85-4.54-8.87-8.74-1.14-4.71-.21-10.48,3.41-13.95,3-2.87,7.74-2.74,10.7.16,3.16,3.1,3.69,8.33,3.24,12.51-.51,4.73-3.11,9.94-8.48,10.02-.36,0-1.09.12-1.24.52s.12.57.51.56c5.02-.07,8.88-3.21,10.4-7.94s1.31-11.53-1.97-15.62c-2.82-3.52-8.15-4.33-12.1-2.35-5,2.52-7.14,8.52-6.78,13.83.39,5.74,4.13,11.95,10.45,12.07.72.01,2-1.06.73-1.08Z"/>
  <path class="st2" d="M28.8,45.63v-14.02c0-.08.06-.14.14-.14h39.84c.08,0,.14.06.14.14v49.21c0,2.13-1.73,3.86-3.86,3.86-4.58.65-10.05,1.11-15.9,1.13-6.21.02-11.59-.46-16.39-1.13-.27,0-1.68-.03-2.81-1.17-.72-.72-1.17-1.72-1.17-2.81v-30.82"/>
  <path class="st1" d="M29.75,45.54c0-3.9,0-7.79,0-11.69,0-.64.15-1.51,0-2.13-.14-.56-1.7.27-.9.38.98.13,2.07,0,3.06,0h28.14c1.99,0,3.99,0,5.98,0h1.78c.17,0,.71.08.53,0l-.39-.34c.05.11.03.89.03,1.22v3.49c0,3.8,0,7.59,0,11.39,0,8.76,0,17.52,0,26.28,0,2.17.02,4.35,0,6.52,0,.25,0,.5-.04.75-.12.85-.53,1.66-1.23,2.17-.76.55-1.81.52-2.71.63-4.09.53-8.2.84-12.32.94-4.41.11-8.83-.05-13.22-.47-1.8-.17-3.6-.43-5.4-.63s-3.22-1.51-3.32-3.44c-.12-2.35,0-4.73,0-7.08,0-7.75,0-15.49,0-23.24v-.5c0-.92-1.9-.59-1.9.18,0,10.27-.24,20.56,0,30.82.06,2.63,2,4.24,4.49,4.52,3.02.34,6.03.73,9.07.92,6.93.43,13.9.23,20.79-.57,2.42-.28,5.21-.23,6.8-2.39.63-.86.87-1.82.88-2.86.02-1.7,0-3.39,0-5.09,0-13.31,0-26.61,0-39.92,0-1.21.22-2.64,0-3.84-.2-1.11-2.14-.73-2.99-.73-6.48,0-12.95,0-19.43,0h-17.32c-.43,0-.94-.06-1.36.05-1.15.29-.94,1.21-.94,2.12,0,3.4,0,6.8,0,10.2,0,.84,0,1.68,0,2.52,0,.92,1.9.59,1.9-.18h0Z"/>
  <path class="st0" d="M62.34,79.97c-3.68.71-8.26,1.29-13.51,1.28-5.11-.01-9.57-.58-13.19-1.28-.18,0-1.16-.02-1.95-.81-.5-.5-.81-1.19-.81-1.95v-37.55s32.14,0,32.14,0v37.62c0,1.48-1.2,2.68-2.68,2.68Z"/>
  <path class="st2" d="M34.33,17.1c-1.23.33-2.52.83-3.72,1.51"/>
  <path class="st1" d="M34.18,16.51c-1.38.37-2.72.9-3.96,1.59-.19.11-.39.22-.49.42-.07.14-.09.34.03.48.29.32.92.29,1.27.1.59-.33,1.19-.62,1.81-.87.15-.06.3-.12.45-.17.1-.04.09-.03-.05.02.04-.02.08-.03.13-.04.06-.02.13-.04.19-.06.31-.1.63-.2.95-.28.22-.06.46-.18.62-.35.11-.12.22-.32.17-.49-.15-.43-.74-.43-1.1-.33h0Z"/>
  <path class="st2" d="M28.27,20.3c-.74.7-1.36,1.49-1.78,2.38-1.48,3.13-1.38,6.99,1.5,9.35,1.95,1.48,3.68,1.44,6.16,1.32,2.48-.12,4.89-1.42,7.37-1.43,3.15-.02,6.29,1.74,9.37,1.13,1.84-.36,3.45-.8,4.7.25.64.54,1.12,1.56,1.13,2.39.04,3.42-.03,7.15,0,10.58.02,1.72.93,3.26,2.62,2.94,1.2-.23,1.54-1.23,1.58-2.45.12-3.85-.83-10.49,1.95-13.16,1.81-1.74,5.49-.59,7.22-2.41.82-.86,1.38-1.54,1.65-3.31.68-4.44-2.01-7.19-5.45-9.03-1.76-.94-3.81-1.29-5.52-2.33-1.9-1.16-3.2-3.07-4.97-4.43-4.01-3.07-10.33-2.52-13.75,1.19-1.16,1.26-2.11,2.36-3.74,2.89-.13.04-.27.09-.41.12"/>
  <path class="st1" d="M27.5,20.07c-3.07,3.02-4.18,8.52-.92,11.85,1.53,1.56,3.56,2.11,5.69,2.11,1.12,0,2.25-.05,3.36-.26,1.52-.29,2.98-.87,4.5-1.11,2.84-.46,5.53.89,8.33,1.11,1.18.09,2.28-.09,3.44-.31,1.57-.3,3.09-.23,3.71,1.49.43,1.2.2,2.75.2,4.01,0,1.55-.01,3.1-.01,4.65,0,1.85-.45,4.68,1.42,5.86,1.4.88,3.59.3,4.34-1.17.79-1.56.33-3.92.3-5.61-.04-2.08-.06-4.23.46-6.26.22-.85.56-1.77,1.18-2.42.8-.83,2.03-.85,3.11-.98,1.93-.24,3.59-.67,4.86-2.24s1.57-3.76,1.26-5.71c-.7-4.43-5.03-6.67-8.83-8.03-1.54-.56-2.85-1.26-4.06-2.39-1-.94-1.9-1.98-2.96-2.84-1.77-1.44-4.01-2.23-6.29-2.34s-4.56.37-6.54,1.46c-1.02.56-1.93,1.27-2.73,2.11-1.07,1.12-2,2.2-3.53,2.67-1.13.35-.84,1.52.31,1.17,2.04-.62,3.33-1.86,4.77-3.37s3.25-2.42,5.27-2.69,4.08.07,5.84,1.04c1.9,1.05,3.19,2.85,4.83,4.23,1.9,1.6,4.2,2.02,6.39,3.07,1.69.81,3.32,1.96,4.42,3.49,1.24,1.72,1.55,3.87,1.07,5.92-.21.91-.65,1.75-1.36,2.38-.74.66-1.76.72-2.7.84-1.64.2-3.39.42-4.61,1.66-1.06,1.09-1.56,2.61-1.81,4.07-.33,1.87-.3,3.79-.26,5.68.02.84.05,1.68.05,2.52,0,.68.19,2.22-.42,2.71-1.01.81-1.73-1.07-1.84-1.75-.21-1.34-.06-2.81-.06-4.17,0-1.24.01-2.48.01-3.73s.14-2.5-.04-3.68c-.3-1.88-1.81-3.05-3.66-3.11-.96-.03-1.9.19-2.83.37-1.49.28-2.91.06-4.37-.27-2.59-.59-4.95-1.08-7.6-.49s-5.09,1.47-7.81,1.06c-6.03-.9-5.84-8.69-2.34-12.14.82-.81-1.01-1.01-1.55-.47h0Z"/>
  <circle class="st2" cx="41.81" cy="46.81" r="1.7"/>
  <circle class="st2" cx="44.97" cy="54.47" r="1.46"/>
  <circle class="st2" cx="41.84" cy="59.72" r="1.24"/>
  <circle class="st2" cx="43.33" cy="65.2" r="1.06"/>
  <circle class="st2" cx="41.51" cy="69.61" r=".76"/>
</svg>