<?xml version="1.0" encoding="UTF-8"?>
<svg id="_レイヤー_1" xmlns="http://www.w3.org/2000/svg" version="1.1" viewBox="0 0 200 120">
  <!-- Generator: Adobe Illustrator 30.0.0, SVG Export Plug-In . SVG Version: 2.1.1 Build 123)  -->
  <defs>
    <style>
      .st0 {
        fill: #1c1917;
      }

      .st1 {
        fill: #fff;
      }
    </style>
  </defs>
  <polyline class="st1" points="137.51 111.46 135.95 21.8 115.59 5.94 71.33 7.57 71.33 35.62 26.16 37.2 26.16 95.1 48.4 111.66 180.96 111.66 180.96 80.07 159.23 65.88 137.51 65.88"/>
  <polygon class="st1" points="92.12 21.94 92.7 52.21 50.22 51.91 48.4 111.66 180.96 111.66 179.99 81.3 136.63 81.88 135.95 21.8 92.12 21.94"/>
  <polygon class="st1" points="110.93 22.04 110.93 31.16 121.21 30.96 121.6 21.75 110.93 22.04"/>
  <polygon class="st1" points="110.93 52.4 110.35 58.9 121.31 59.29 120.92 52.69 110.93 52.4"/>
  <polygon class="st1" points="67.38 52.5 67.48 60.35 76.99 60.16 76.89 52.11 67.38 52.5"/>
  <polygon class="st1" points="155.35 81.98 155.35 89.35 165.83 89.16 166.02 81.98 155.35 81.98"/>
  <polygon class="st1" points="111.13 81.79 111.13 88.96 121.6 89.16 121.79 82.17 111.13 81.79"/>
  <polygon class="st1" points="67.29 82.17 67.29 89.35 77.37 88.77 77.96 82.56 67.29 82.17"/>
  <path class="st0" d="M150.61,65.52h-12.81c-.27,0-.82.1-.96.38s.13.35.37.35h12.81c.27,0,.82-.1.96-.38s-.13-.35-.37-.35h0Z"/>
  <path class="st0" d="M65.83,112.02h100.74c4.62,0,9.29.21,13.9,0h.19c.3,0,1.02-.15,1.02-.56v-30.31c0-.31.13-.94,0-1.24-.09-.2-.32-.29-.51-.42l-1.91-1.25c-4.7-3.07-9.4-6.14-14.09-9.21-1.67-1.09-3.33-2.41-5.1-3.33-.57-.29-1.17-.2-1.81-.2h-3.89c-.48,0-1.56.72-.59.72h3.32c.51,0,1.1.08,1.6,0,.43-.07-.21-.27-.02-.01.26.36,1,.65,1.37.89l2.55,1.66c4.74,3.09,9.47,6.19,14.21,9.28l2.4,1.57c.26.17.88.42,1.05.69-.06-.1-.02.41-.02.58v30.95l1.02-.56h-100.74c-4.62,0-9.29-.21-13.9,0h-.19c-.48,0-1.56.72-.59.72h0v.03Z"/>
  <path class="st0" d="M25.44,50.96v37.5c0,2.12-.05,4.25,0,6.37.03,1.05,1.6,1.69,2.37,2.27,5.86,4.37,11.73,8.73,17.59,13.1.71.53,1.4,1.16,2.16,1.61.5.3,1.01.22,1.59.22h11.47c.48,0,1.56-.72.59-.72h-9.12c-1.13,0-2.26-.02-3.38,0,.53-.01.37.15.1-.11s-.66-.49-.97-.72c-5.73-4.26-11.45-8.53-17.18-12.79l-3.02-2.25c-.2-.15-.54-.31-.68-.51-.16-.21,0,.09-.07-.1-.14-.43,0-1.13,0-1.58v-42.67c0-.36-1.45-.12-1.45.39h0Z"/>
  <path class="st0" d="M32.89,36.61c-2.14.07-4.29.15-6.43.22-.3,0-1.02.15-1.02.56v8.71c0,.36,1.45.12,1.45-.39v-8.71l-1.02.56c2.14-.07,4.29-.15,6.43-.22.3,0,.78-.1.96-.38s-.15-.36-.37-.35h0Z"/>
  <path class="st0" d="M79,6.94c-2.46.09-4.92.18-7.38.27-.3.01-1.02.15-1.02.56v28.04l1.02-.56c-9.89.34-19.77.69-29.66,1.03-1.41.05-2.81.1-4.22.15-.48.02-1.56.76-.59.72,9.89-.34,19.77-.69,29.66-1.03,1.41-.05,2.81-.1,4.22-.15.3,0,1.02-.15,1.02-.56V7.37l-1.02.56c2.46-.09,4.92-.18,7.38-.27.48-.02,1.56-.76.59-.72h0Z"/>
  <path class="st0" d="M137.02,41.6c-.1-5.75-.2-11.49-.3-17.24,0-.72.21-1.96-.05-2.66-.12-.32-.45-.49-.73-.71l-6.68-5.2-8.69-6.77-3.1-2.42c-.36-.28-.79-.75-1.21-.94-.39-.18-.93-.07-1.35-.06l-3.11.11-10.12.37c-5.98.22-11.96.44-17.93.66-.48.02-1.56.76-.59.72,4.9-.18,9.8-.36,14.69-.54l10.89-.4c2.02-.07,4.25.1,6.24-.23.49-.08.1.17-.08-.1.08.12.29.23.4.31l2.31,1.8,8.16,6.35,7.62,5.93c.5.39,1.42.86,1.78,1.39.13.19-.02-.12.04.14.08.32,0,.75.02,1.07.11,6.26.22,12.52.32,18.78,0,.37,1.46.11,1.45-.39h0l.02.03Z"/>
  <path class="st0" d="M138.16,107.01c-.12-6.77-.23-13.54-.35-20.31-.19-10.84-.38-21.68-.56-32.52-.04-2.48-.09-4.96-.13-7.44,0-.37-1.46-.11-1.45.39.12,6.77.23,13.54.35,20.31.19,10.84.38,21.68.56,32.52.04,2.48.09,4.96.13,7.44,0,.37,1.46.11,1.45-.39h0Z"/>
  <path class="st0" d="M93.62,64.81V21.61l-1.03.51h43.07c.43,0,1.57-.64.61-.64h-43.07c-.26,0-1.03.16-1.03.51v43.2c0,.28,1.45.06,1.45-.39h0Z"/>
  <path class="st0" d="M93.62,111.46v-42.77c0-.28-1.45-.06-1.45.39v42.77c0,.28,1.45.06,1.45-.39h0Z"/>
  <path class="st0" d="M87.3,18.89c1.47.97,2.93,1.94,4.4,2.9.21.14.42.28.64.42.3.2.76.11,1.04-.09.24-.18.38-.53.08-.73-1.47-.97-2.93-1.94-4.4-2.9-.21-.14-.42-.28-.64-.42-.3-.2-.76-.11-1.04.09-.24.18-.38.53-.08.73h0Z"/>
  <path class="st0" d="M70.77,7.98c4.01,2.65,8.02,5.29,12.03,7.94.58.38,1.16.76,1.74,1.15.52.34,1.8-.38,1.12-.82-4.01-2.65-8.02-5.29-12.03-7.94-.58-.38-1.16-.76-1.74-1.15-.52-.34-1.8.38-1.12.82h0Z"/>
  <path class="st0" d="M89.24,7.17c3.84,2.68,7.68,5.35,11.52,8.03l7.38,5.14,2.09,1.46c.49.34.37.17.37.79v8.44c0,.17.34.2.44.2h9.89c.33,0,1.01-.15,1.01-.59v-7.83c0-.54.12-1-.21-1.38-.41-.48-1.21-.84-1.72-1.2-5.13-3.56-10.26-7.13-15.39-10.69-1.56-1.09-3.13-2.17-4.69-3.26-.4-.28-1.72.3-1.35.56,3.9,2.71,7.8,5.42,11.7,8.13,2.53,1.76,5.07,3.52,7.6,5.28l2.19,1.52c.52.36.42.17.42.76v8.5l1.01-.59h-9.89c.15.07.29.13.44.2v-7.75c0-.49.13-1.06-.16-1.43-.34-.43-1.13-.79-1.57-1.1-5.04-3.51-10.08-7.02-15.12-10.53-1.54-1.07-3.07-2.14-4.61-3.21-.4-.28-1.72.3-1.35.56h0Z"/>
  <path class="st0" d="M45.12,36.93c3.84,2.68,7.68,5.35,11.52,8.03l7.38,5.14,2.09,1.46c.13.09.26.18.39.27.11.07-.1-.42-.13-.19-.02.16,0,.34,0,.5v8.44c0,.25.22.36.45.36h9.89c.25,0,1-.13,1-.52v-7.17c0-.59.21-1.65-.16-2.13-.23-.3-.78-.54-1.08-.75-4.67-3.24-9.34-6.48-14.01-9.72-1.47-1.02-2.93-2.04-4.4-3.05-.42-.29-1.75.32-1.14.73,3.62,2.51,7.25,5.03,10.87,7.54l6.68,4.63c.52.36,1.15.99,1.75,1.21.31.11.07.29.04-.12.02.33,0,.67,0,1v8l1-.52h-9.89c.15.12.3.24.45.36v-7.75c0-.55.15-1.2-.22-1.6s-1.04-.73-1.5-1.05c-5.08-3.54-10.15-7.07-15.23-10.61-1.54-1.07-3.07-2.14-4.61-3.21-.42-.29-1.75.31-1.14.73h0Z"/>
  <path class="st0" d="M73.34,38.5c5.4,3.56,10.79,7.12,16.19,10.68l2.34,1.54c.56.37,1.81-.4,1.11-.86-5.4-3.56-10.79-7.12-16.19-10.68l-2.34-1.54c-.56-.37-1.81.4-1.11.86h0Z"/>
  <path class="st0" d="M60.22,52.52c8.37.03,16.74.06,25.11.09,13.34.05,26.68.09,40.02.14,3.06,0,6.13.02,9.19.03.85,0,1.09-1.13.11-1.13-8.37-.03-16.74-.06-25.11-.09-13.34-.05-26.68-.09-40.02-.14-3.06,0-6.13-.02-9.19-.03-.85,0-1.09,1.13-.11,1.13h0Z"/>
  <path class="st0" d="M49.46,99.11c.14-5.34.27-10.67.41-16.01.22-8.46.43-16.92.65-25.37.05-1.95.1-3.9.15-5.86l-.79.61,5.79.02c.85,0,1.09-1.13.11-1.13l-5.79-.02c-.31,0-.78.26-.79.61-.14,5.34-.27,10.67-.41,16.01-.22,8.46-.43,16.92-.65,25.37-.05,1.95-.1,3.9-.15,5.86-.02.79,1.46.61,1.47-.09h0Z"/>
  <path class="st0" d="M49.14,111.61c.06-2.51.13-5.02.19-7.53,0-.36.02-.72.03-1.08.02-.79-1.46-.61-1.47.09-.06,2.51-.13,5.02-.19,7.53,0,.36-.02.72-.03,1.08-.02.79,1.46.61,1.47-.09h0Z"/>
  <path class="st0" d="M25.48,37.45c6.34,4.12,12.68,8.25,19.02,12.37.9.59,1.8,1.17,2.71,1.76.35.23,1.58-.36,1.36-.5-6.34-4.12-12.68-8.25-19.02-12.37-.9-.59-1.8-1.17-2.71-1.76-.35-.23-1.58.36-1.36.5h0Z"/>
  <path class="st0" d="M28.59,67.61c4.45,3.39,8.9,6.77,13.35,10.16,1.96,1.5,3.88,3.15,5.93,4.52.44.29.76.27,1.27.26l23.6-.12c14.24-.07,28.47-.15,42.71-.22,14.04-.07,28.08-.15,42.12-.22,7.26-.04,14.55.1,21.8-.11h.31c.5,0,1.55-.77.58-.76-5.98.03-11.96.06-17.94.09l-40.44.21c-14.51.08-29.02.15-43.53.23-9.07.05-18.15.09-27.22.14-.45,0-1.58-.21-1.99.01-.02.01-.07,0-.1,0,.43-.07.45.22.07-.13-.69-.63-1.52-1.16-2.27-1.72-5.25-3.99-10.49-7.99-15.74-11.98-.39-.3-.79-.6-1.18-.9s-1.7.28-1.35.55h.02Z"/>
  <path class="st0" d="M109.72,52.28c-.03,2.26-.06,4.53-.1,6.79,0,.26.22.38.46.39l9.33.42,1.34.06c.39.02,1.02-.18.99-.66-.13-2.59-.26-5.17-.39-7.76-.03-.55-1.48-.24-1.45.39.13,2.59.26,5.17.39,7.76l.99-.66-9.33-.42-1.34-.06.46.39c.03-2.26.06-4.53.1-6.79,0-.68-1.45-.41-1.46.15h.01Z"/>
  <path class="st0" d="M110.3,82.47c-.03,2.26-.06,4.53-.1,6.79,0,.09.22.12.26.12l9.33.42,1.34.06c.28.01,1.19-.1,1.19-.51.03-2.59.06-5.17.1-7.76,0-.26-1.44-.05-1.45.39-.03,2.59-.06,5.17-.1,7.76l1.19-.51-9.33-.42-1.34-.06.26.12c.03-2.26.06-4.53.1-6.79,0-.26-1.44-.05-1.45.39h0Z"/>
  <path class="st0" d="M66.27,82.37c-.03,2.26-.06,4.53-.1,6.79,0,.14.35.12.42.12,3.02-.11,6.05-.23,9.07-.34l1.31-.05c.24,0,1.05-.15,1.03-.5-.1-2.1-.19-4.2-.29-6.3-.01-.28-1.47-.04-1.45.39.1,2.1.19,4.2.29,6.3l1.03-.5c-3.02.11-6.05.23-9.07.34l-1.31.05.42.12c.03-2.26.06-4.53.1-6.79,0-.26-1.44-.05-1.45.39h0v-.02Z"/>
  <path class="st0" d="M137.92,66.69c2.92,2.7,5.84,5.41,8.76,8.11l5.86,5.43,1.8,1.67c.12.11.29.35.44.41.28.1.05-.29-.07-.1-.17.29,0,1.24,0,1.57v5.53c0,.37.35.49.67.48,3.49-.06,6.98-.13,10.47-.19.29,0,.8-.24.8-.59v-6.44c0-.51.11-1.03-.21-1.43-.29-.36-.8-.65-1.15-.93l-11.64-9.45c-1.22-.99-2.44-1.98-3.66-2.97-.5-.41-1.77.31-1.12.84,2.94,2.39,5.88,4.77,8.82,7.16,1.9,1.54,3.81,3.09,5.71,4.63.53.43,1.04.93,1.61,1.31.09.06.21.24.32.26-.27-.06-.1-.54-.15.14-.18,2.3,0,4.68,0,6.98l.8-.59c-3.49.06-6.98.13-10.47.19l.67.48v-6.71c0-.49,0-.71-.32-1.06-.41-.45-.91-.85-1.36-1.26-3.97-3.67-7.94-7.35-11.91-11.02-1.19-1.1-2.37-2.2-3.56-3.29-.47-.44-1.73.27-1.12.84h0Z"/>
</svg>