<?xml version="1.0" encoding="UTF-8"?>
<svg id="_レイヤー_1" xmlns="http://www.w3.org/2000/svg" xmlns:xlink="http://www.w3.org/1999/xlink" version="1.1" viewBox="0 0 200 130">
  <!-- Generator: Adobe Illustrator 30.0.0, SVG Export Plug-In . SVG Version: 2.1.1 Build 123)  -->
  <defs>
    <style>
      .st0 {
        fill: none;
      }

      .st1 {
        fill: #ceb372;
      }

      .st2 {
        fill: #1c1917;
      }

      .st3 {
        fill: #fff;
      }

      .st4 {
        fill: url(#_新規パターンスウォッチ_1);
      }
    </style>
    <pattern id="_新規パターンスウォッチ_1" data-name="新規パターンスウォッチ 1" x="0" y="0" width="48" height="48" patternTransform="translate(-5266.61 -4588.49) rotate(5.93) scale(.39)" patternUnits="userSpaceOnUse" viewBox="0 0 48 48">
      <g>
        <rect class="st0" width="48" height="48"/>
        <g>
          <path class="st1" d="M24,52.8c2.65,0,4.8-2.15,4.8-4.8s-2.15-4.8-4.8-4.8-4.8,2.15-4.8,4.8,2.15,4.8,4.8,4.8Z"/>
          <path class="st1" d="M48,52.8c2.65,0,4.8-2.15,4.8-4.8s-2.15-4.8-4.8-4.8-4.8,2.15-4.8,4.8,2.15,4.8,4.8,4.8Z"/>
          <path class="st1" d="M24,28.8c2.65,0,4.8-2.15,4.8-4.8s-2.15-4.8-4.8-4.8-4.8,2.15-4.8,4.8,2.15,4.8,4.8,4.8Z"/>
          <path class="st1" d="M48,28.8c2.65,0,4.8-2.15,4.8-4.8s-2.15-4.8-4.8-4.8-4.8,2.15-4.8,4.8,2.15,4.8,4.8,4.8Z"/>
          <path class="st1" d="M36,40.8c2.65,0,4.8-2.15,4.8-4.8s-2.15-4.8-4.8-4.8-4.8,2.15-4.8,4.8,2.15,4.8,4.8,4.8Z"/>
          <path class="st1" d="M12,40.8c2.65,0,4.8-2.15,4.8-4.8s-2.15-4.8-4.8-4.8-4.8,2.15-4.8,4.8,2.15,4.8,4.8,4.8Z"/>
          <path class="st1" d="M36,16.8c2.65,0,4.8-2.15,4.8-4.8s-2.15-4.8-4.8-4.8-4.8,2.15-4.8,4.8,2.15,4.8,4.8,4.8Z"/>
          <path class="st1" d="M12,16.8c2.65,0,4.8-2.15,4.8-4.8s-2.15-4.8-4.8-4.8-4.8,2.15-4.8,4.8,2.15,4.8,4.8,4.8Z"/>
        </g>
        <g>
          <path class="st1" d="M0,52.8c2.65,0,4.8-2.15,4.8-4.8s-2.15-4.8-4.8-4.8-4.8,2.15-4.8,4.8,2.15,4.8,4.8,4.8Z"/>
          <path class="st1" d="M0,28.8c2.65,0,4.8-2.15,4.8-4.8s-2.15-4.8-4.8-4.8-4.8,2.15-4.8,4.8,2.15,4.8,4.8,4.8Z"/>
        </g>
        <g>
          <path class="st1" d="M24,4.8c2.65,0,4.8-2.15,4.8-4.8s-2.15-4.8-4.8-4.8-4.8,2.15-4.8,4.8,2.15,4.8,4.8,4.8Z"/>
          <path class="st1" d="M48,4.8c2.65,0,4.8-2.15,4.8-4.8s-2.15-4.8-4.8-4.8-4.8,2.15-4.8,4.8,2.15,4.8,4.8,4.8Z"/>
        </g>
        <path class="st1" d="M0,4.8c2.65,0,4.8-2.15,4.8-4.8S2.65-4.8,0-4.8-4.8-2.65-4.8,0-2.65,4.8,0,4.8Z"/>
      </g>
    </pattern>
  </defs>
  <polyline class="st4" points="130.26 125.43 128.41 32.41 107.23 16.01 61.32 17.82 61.4 46.92 14.54 48.68 14.7 108.75 37.82 125.87 175.34 125.51 175.25 92.74 152.68 78.08 130.14 78.13"/>
  <polyline class="st3" points="144.19 114.12 142.34 21.09 121.17 4.7 75.26 6.51 75.33 35.61 28.48 37.37 28.63 97.43 51.75 114.56 189.27 114.2 189.19 81.43 166.61 66.76 144.07 66.82"/>
  <polygon class="st3" points="96.86 21.36 97.55 52.76 53.47 52.57 51.75 114.56 189.27 114.2 188.19 82.71 143.21 83.43 142.34 21.09 96.86 21.36"/>
  <polygon class="st1" points="116.38 21.41 116.41 30.87 127.07 30.64 127.45 21.08 116.38 21.41"/>
  <polygon class="st1" points="116.46 52.91 115.88 59.65 127.25 60.02 126.83 53.18 116.46 52.91"/>
  <polygon class="st1" points="71.28 53.13 71.41 61.28 81.27 61.05 81.14 52.7 71.28 53.13"/>
  <polygon class="st1" points="162.63 83.48 162.65 91.13 173.52 90.9 173.7 83.45 162.63 83.48"/>
  <polygon class="st1" points="116.74 83.4 116.76 90.84 127.63 91.02 127.81 83.77 116.74 83.4"/>
  <polygon class="st1" points="71.26 83.92 71.28 91.36 81.75 90.73 82.33 84.29 71.26 83.92"/>
  <polygon class="st1" points="49.27 36.56 71.28 53.13 81.14 52.7 59.27 36.29 49.27 36.56"/>
  <polygon class="st1" points="95.87 6.02 116.38 21.41 126.99 21.32 106.16 5.38 95.87 6.02"/>
  <polygon class="st1" points="144.84 66.86 162.63 83.48 173.36 82.62 153.86 66.55 144.84 66.86"/>
  <path class="st2" d="M188.55,82.02c-7.25-5.07-14.79-10.47-22.28-15.18,0,0,.29.08.29.08l-18.29.42c-.43.02-.48-.68-.02-.69,0,0,18.28-.72,18.28-.72.11,0,.21.02.29.08,5.27,3.8,11.39,7.59,16.86,11.15,1.88,1.23,3.79,2.41,5.69,3.61.35.22.45.68.23,1.04-.23.36-.72.46-1.07.21h0Z"/>
  <path class="st2" d="M59.97,113.22l129.3.07-.9.89c.19-6.5.59-15.39.85-21.89,0,0,.22-3.65.22-3.65.06-1.22.16-2.43.28-3.64,0-.19.32-.19.32,0,.18,2.09.11,5.18.19,7.31,0,6.5.02,15.4-.06,21.9,0,.49-.4.88-.88.89,0,0-129.31,1.32-129.31,1.33-1.99,0-2.27-3.11-.02-3.21h0Z"/>
  <path class="st2" d="M143.23,114.13c.08-.02-1.68-94.37-1.19-92.65,0,0-21.17-16.4-21.17-16.4,1.68.2-36.8,1.31-36.43,1.35-.19,0-.35-.14-.35-.33,0-.19.14-.34.33-.35l36.75-1.57c.12,0,.24.04.33.1l21.17,16.4c.59.18,2.28,93.05,2.52,93.4.01.53-.41.98-.94.99-.54.01-.98-.42-.99-.95h0Z"/>
  <path class="st2" d="M96.99,111.44l.18-90.22c0-.28.22-.5.5-.5,0,0,44.68-.12,44.68-.12.63.03.69.97,0,1,0,0-44.68.12-44.68.12l.5-.5.65,90.22c.01,1.13-1.79,1.27-1.82,0h0Z"/>
  <path class="st2" d="M78.01,7.97l18.69,12.02c.23.15.3.46.15.69-.15.23-.46.3-.7.14,0,0-18.47-12.36-18.47-12.36-.31-.2,0-.69.32-.49h0Z"/>
  <path class="st2" d="M74.62,36.96l22.55,14.49c.23.15.3.46.15.69-.15.24-.47.3-.7.15,0,0-22.27-14.91-22.27-14.91-.26-.17,0-.6.28-.42h0Z"/>
  <path class="st2" d="M51.25,114.55s1-62,1-62c0-.5.42-.9.92-.9.19.19,88.08.43,88.04.99.07.54-87.86.67-88.04.84,0,0,.92-.9.92-.9l-1.83,61.98c0,.28-.24.49-.51.48-.27,0-.49-.23-.49-.51h0Z"/>
  <path class="st2" d="M32.92,39.74l18.59,11.54c.39.24.51.75.27,1.14-.25.4-.79.51-1.17.24,0,0-18-12.44-18-12.44-.3-.2,0-.69.32-.49h0Z"/>
  <path class="st0" d="M188.19,82.91"/>
  <path class="st2" d="M32.08,68.23l20.54,14.98c-3.06-.53,133.06-.52,132.38-.7.23,0,.42.19.42.42,0,.23-.19.42-.42.42-.81-.2-132.92,1.95-133.53,1.37,0,0-20-15.7-20-15.7-.22-.17-.26-.48-.08-.7.17-.21.47-.25.69-.1h0Z"/>
</svg>