<?xml version="1.0" encoding="UTF-8"?>
<svg id="_レイヤー_1" xmlns="http://www.w3.org/2000/svg" version="1.1" viewBox="0 0 200 130">
  <!-- Generator: Adobe Illustrator 30.0.0, SVG Export Plug-In . SVG Version: 2.1.1 Build 123)  -->
  <defs>
    <style>
      .st0 {
        fill: #ceb372;
      }

      .st1 {
        fill: #1c1917;
      }

      .st2 {
        fill: #fff;
      }
    </style>
  </defs>
  <g>
    <path class="st0" d="M162.39,124.82h0s0-.02,0-.04c.05-.63-.21-1.21-.66-1.59-.27-.23-.6-.38-.98-.43-.26-.02-.51.01-.74.09-.35.11-.65.33-.88.61-.23.28-.37.63-.41,1.02-.03.38.05.73.22,1.04,0,0,.01.02.02.03h3.18s.02-.04.03-.05c.11-.2.17-.43.2-.68Z"/>
    <path class="st0" d="M171.63,125.03c-.18-.56-.62-1.02-1.19-1.21-.11-.04-.24-.07-.36-.08-.13-.01-.26,0-.38,0-.25.03-.48.11-.69.23-.31.18-.57.44-.74.76-.11.2-.17.43-.2.68h0s0,.02,0,.04c0,.03,0,.05,0,.08h3.65c0-.18-.03-.34-.08-.5Z"/>
    <path class="st0" d="M175.31,113.84v-3.44c-.63.26-1.09.84-1.15,1.56-.07.83.42,1.57,1.15,1.88Z"/>
    <path class="st0" d="M172.68,116.44c.08-1-.64-1.89-1.63-2.01-1.03-.09-1.94.68-2.02,1.71-.08,1,.64,1.89,1.63,2.01,1.03.09,1.94-.68,2.02-1.71Z"/>
    <path class="st0" d="M168.51,111.3c.08-1-.64-1.89-1.63-2.01-1.03-.09-1.94.68-2.02,1.71-.08,1,.64,1.89,1.63,2.01,1.03.09,1.94-.68,2.02-1.71Z"/>
    <path class="st0" d="M175.21,119.57c-1.03-.09-1.94.68-2.02,1.71-.08,1,.64,1.89,1.63,2.01.17.01.34,0,.51-.03v-3.66s-.08-.02-.12-.02Z"/>
    <path class="st0" d="M169.99,106.83c-.07.88.47,1.67,1.27,1.93.11.04.24.07.36.08.26.02.51-.01.74-.09.35-.11.65-.33.88-.61.23-.28.37-.63.41-1.02.08-1-.64-1.89-1.63-2.01-.52-.04-1,.13-1.36.44-.36.3-.6.74-.65,1.24h0s0,.02,0,.04Z"/>
    <path class="st0" d="M163.88,120.31c-.08,1,.64,1.89,1.63,2.01,1.03.09,1.94-.68,2.02-1.71.08-1-.64-1.89-1.63-2.01-1.03-.09-1.94.68-2.02,1.71Z"/>
    <path class="st0" d="M164.33,106.16c.02-.25,0-.49-.08-.72-.04-.11-.08-.22-.14-.32-.22-.41-.6-.74-1.06-.89-.11-.04-.24-.07-.36-.08-1.03-.09-1.94.68-2.02,1.71-.03.38.05.73.22,1.04.11.21.26.39.44.54.27.23.6.38.98.43.13.01.26,0,.38,0,.85-.1,1.54-.78,1.64-1.67h0s0-.02,0-.04Z"/>
    <path class="st0" d="M170.44,92.68c.08-1-.64-1.89-1.63-2.01-1.03-.09-1.94.68-2.02,1.71-.08,1,.64,1.89,1.63,2.01,1.03.09,1.94-.68,2.02-1.71Z"/>
    <path class="st0" d="M166.26,87.58h0s0-.02,0-.04c.02-.24,0-.47-.07-.69l-2.01-1.31c-.82.13-1.48.79-1.57,1.65h0s0,.02,0,.04c-.03.38.05.73.22,1.04.28.52.79.89,1.42.97.13.01.26,0,.38,0,.37-.04.71-.2.99-.43.18-.15.34-.34.45-.56.11-.2.17-.43.2-.68Z"/>
    <path class="st0" d="M175.28,103.55v-1.46c-.08.18-.14.37-.15.57-.03.32.04.62.15.89Z"/>
    <path class="st0" d="M172.59,99.53c1.03.09,1.94-.68,2.02-1.71.08-1-.64-1.89-1.63-2.01-1.03-.09-1.94.68-2.02,1.71-.08,1,.64,1.89,1.63,2.01Z"/>
    <path class="st0" d="M167.45,103.7c1.03.09,1.94-.68,2.02-1.71.08-1-.64-1.89-1.63-2.01-1.03-.09-1.94.68-2.02,1.71-.08,1,.64,1.89,1.63,2.01Z"/>
    <path class="st0" d="M151.07,125.53c1.03.09,1.94-.68,2.02-1.71.02-.25,0-.49-.08-.72-.18-.56-.62-1.02-1.19-1.21-.11-.04-.24-.07-.36-.08-.13-.01-.26,0-.38,0-.25.03-.48.11-.69.23-.1.06-.2.13-.3.2-.36.3-.6.74-.65,1.24h0s0,.02,0,.04c-.03.38.05.73.22,1.04.28.52.79.89,1.42.97Z"/>
    <path class="st0" d="M143.78,122.85c.08-1-.64-1.89-1.63-2.01-.39-.03-.76.06-1.07.23-.21.12-.4.27-.55.46-.23.28-.37.63-.41,1.02-.02.25,0,.49.08.72.18.57.62,1.02,1.19,1.21.11.04.24.07.36.08,1.03.09,1.94-.68,2.02-1.71Z"/>
    <path class="st0" d="M154.06,114.51c.08-1-.64-1.89-1.63-2.01-1.03-.09-1.94.68-2.02,1.71-.08,1,.64,1.89,1.63,2.01,1.03.09,1.94-.68,2.02-1.71Z"/>
    <path class="st0" d="M149.89,109.37c.08-1-.64-1.89-1.63-2.01-1.03-.09-1.94.68-2.02,1.71-.08,1,.64,1.89,1.63,2.01,1.03.09,1.94-.68,2.02-1.71Z"/>
    <path class="st0" d="M161.35,117.18c1.03.09,1.94-.68,2.02-1.71.08-1-.64-1.89-1.63-2.01-1.03-.09-1.94.68-2.02,1.71-.08,1,.64,1.89,1.63,2.01Z"/>
    <path class="st0" d="M157.56,108.32c-1.03-.09-1.94.68-2.02,1.71-.08,1,.64,1.89,1.63,2.01,1.03.09,1.94-.68,2.02-1.71.08-1-.64-1.89-1.63-2.01Z"/>
    <path class="st0" d="M144.75,113.54c.08-1-.64-1.89-1.63-2.01-1.03-.09-1.94.68-2.02,1.71-.08,1,.64,1.89,1.63,2.01,1.03.09,1.94-.68,2.02-1.71Z"/>
    <path class="st0" d="M145.26,118.38c-.08,1,.64,1.89,1.63,2.01,1.03.09,1.94-.68,2.02-1.71.08-1-.64-1.89-1.63-2.01-1.03-.09-1.94.68-2.02,1.71Z"/>
    <path class="st0" d="M156.21,121.36c1.03.09,1.94-.68,2.02-1.71.08-1-.64-1.89-1.63-2.01-1.03-.09-1.94.68-2.02,1.71-.08,1,.64,1.89,1.63,2.01Z"/>
    <path class="st0" d="M156.51,100.72c-.08,1,.64,1.89,1.63,2.01,1.03.09,1.94-.68,2.02-1.71.08-1-.64-1.89-1.63-2.01-1.03-.09-1.94.68-2.02,1.71Z"/>
    <path class="st0" d="M161.13,91.72c.08-1-.64-1.89-1.63-2.01-1.03-.09-1.94.68-2.02,1.71-.08,1,.64,1.89,1.63,2.01,1.03.09,1.94-.68,2.02-1.71Z"/>
    <path class="st0" d="M153.97,97.6c1.03.09,1.94-.68,2.02-1.71.08-1-.64-1.89-1.63-2.01-1.03-.09-1.94.68-2.02,1.71-.08,1,.64,1.89,1.63,2.01Z"/>
    <path class="st0" d="M154.94,104.48c-.18-.56-.62-1.02-1.19-1.21-.11-.04-.24-.07-.36-.08-.52-.04-1,.13-1.36.44-.36.3-.6.74-.65,1.24h0s0,.02,0,.04c-.02.25,0,.49.08.72.07.23.18.43.33.62.15.18.33.34.53.45s.44.2.69.23c.26.02.51-.01.74-.09.35-.11.65-.33.88-.61.23-.28.37-.63.41-1.02.02-.25,0-.49-.08-.72Z"/>
    <path class="st0" d="M163.28,98.56c1.03.09,1.94-.68,2.02-1.71.08-1-.64-1.89-1.63-2.01-1.03-.09-1.94.68-2.02,1.71-.08,1,.64,1.89,1.63,2.01Z"/>
    <path class="st0" d="M145.71,104.23c.07-.88-.47-1.67-1.27-1.93-.11-.04-.24-.07-.36-.08-1.03-.09-1.94.68-2.02,1.71-.01.13,0,.25,0,.37.08.72.58,1.33,1.27,1.56.11.04.24.07.36.08.13.01.26,0,.38,0,.25-.03.48-.11.69-.23.1-.06.2-.13.3-.2.36-.3.6-.74.65-1.24h0s0-.02,0-.04Z"/>
    <path class="st0" d="M151.82,90.75c.08-1-.64-1.89-1.63-2.01-1.03-.09-1.94.68-2.02,1.71-.08,1,.64,1.89,1.63,2.01,1.03.09,1.94-.68,2.02-1.71Z"/>
    <path class="st0" d="M146.68,94.92c.08-1-.64-1.89-1.63-2.01-1.03-.09-1.94.68-2.02,1.71-.08,1,.64,1.89,1.63,2.01,1.03.09,1.94-.68,2.02-1.71Z"/>
    <path class="st0" d="M147.2,99.76c-.08,1,.64,1.89,1.63,2.01,1.03.09,1.94-.68,2.02-1.71.08-1-.64-1.89-1.63-2.01-1.03-.09-1.94.68-2.02,1.71Z"/>
    <path class="st0" d="M147.65,85.61c.03-.38-.05-.73-.22-1.04-.28-.52-.79-.89-1.42-.97-.13-.01-.26,0-.38,0-.25.03-.48.11-.69.23-.1.06-.2.13-.3.2-.36.3-.6.74-.65,1.24h0s0,.02,0,.04c-.02.25,0,.49.08.72.04.11.08.22.14.32.11.21.26.39.44.54.27.23.6.38.98.43.77.06,1.48-.35,1.81-1,.11-.2.17-.43.2-.68h0s0-.02,0-.04Z"/>
    <path class="st0" d="M150.77,83.15c1.03.09,1.94-.68,2.02-1.71.08-1-.64-1.89-1.63-2.01-1.03-.09-1.94.68-2.02,1.71-.08,1,.64,1.89,1.63,2.01Z"/>
    <path class="st0" d="M156.88,85.86c-.18-.56-.62-1.02-1.19-1.21-.11-.04-.24-.07-.36-.08-.26-.02-.51.01-.74.09-.35.11-.65.33-.88.61-.23.28-.37.63-.41,1.02-.08,1,.64,1.89,1.63,2.01,1.03.09,1.94-.68,2.02-1.71.02-.25,0-.49-.08-.72Z"/>
    <path class="st0" d="M160.08,84.12c.49.04.94-.11,1.3-.39l-2.89-1.87c-.02.08-.04.16-.05.25-.08,1,.64,1.89,1.63,2.01Z"/>
    <path class="st0" d="M127.7,124.04c-.99-.08-1.86.63-2,1.6h3.62c-.12-.83-.76-1.49-1.62-1.6Z"/>
    <path class="st0" d="M137.01,125.01c-.6-.05-1.15.19-1.53.61h2.68c-.29-.33-.69-.55-1.15-.61Z"/>
    <path class="st0" d="M128.28,118.45c.78.07,1.49-.36,1.82-1.02l-.03-1.76c-.28-.5-.79-.87-1.4-.95-1.03-.09-1.94.68-2.02,1.71-.08,1,.64,1.89,1.63,2.01Z"/>
    <path class="st0" d="M135.44,112.57c.08-1-.64-1.89-1.63-2.01-1.03-.09-1.94.68-2.02,1.71-.08,1,.64,1.89,1.63,2.01,1.03.09,1.94-.68,2.02-1.71Z"/>
    <path class="st0" d="M125.16,120.92c.07-.88-.47-1.67-1.27-1.93-.11-.04-.24-.07-.36-.08-1.03-.09-1.94.68-2.02,1.71-.08,1,.64,1.89,1.63,2.01.52.04,1-.13,1.36-.44.36-.3.6-.74.65-1.24h0s0-.02,0-.04Z"/>
    <path class="st0" d="M134.47,121.88c.03-.38-.05-.73-.22-1.04-.11-.21-.26-.39-.44-.54-.27-.23-.6-.38-.98-.43-.13-.01-.26,0-.38,0-.85.1-1.54.78-1.64,1.67h0s0,.02,0,.04c-.03.38.05.73.22,1.04.28.52.79.89,1.42.97.26.02.51-.01.74-.09.23-.08.44-.2.63-.35.37-.31.61-.76.66-1.27Z"/>
    <path class="st0" d="M135.95,117.41c-.08,1,.64,1.89,1.63,2.01,1.03.09,1.94-.68,2.02-1.71.08-1-.64-1.89-1.63-2.01-1.03-.09-1.94.68-2.02,1.71Z"/>
    <path class="st0" d="M130.24,116.11v.96c.03-.11.05-.21.06-.33.02-.22,0-.44-.06-.64Z"/>
    <path class="st0" d="M140.58,108.4c.08-1-.64-1.89-1.63-2.01-1.03-.09-1.94.68-2.02,1.71-.08,1,.64,1.89,1.63,2.01,1.03.09,1.94-.68,2.02-1.71Z"/>
    <path class="st0" d="M131.27,107.43c.07-.79-.38-1.51-1.06-1.84v3.36c.58-.28,1-.84,1.06-1.52Z"/>
    <path class="st0" d="M129.24,109.14c.24.02.47-.01.69-.08l-.07-3.6c-.08-.02-.15-.04-.23-.05-1.03-.09-1.94.68-2.02,1.71-.08,1,.64,1.89,1.63,2.01Z"/>
    <path class="st0" d="M142.51,89.78c.08-1-.64-1.89-1.63-2.01-1.03-.09-1.94.68-2.02,1.71-.08,1,.64,1.89,1.63,2.01,1.03.09,1.94-.68,2.02-1.71Z"/>
    <path class="st0" d="M137.89,98.79c-.08,1,.64,1.89,1.63,2.01,1.03.09,1.94-.68,2.02-1.71.08-1-.64-1.89-1.63-2.01-1.03-.09-1.94.68-2.02,1.71Z"/>
    <path class="st0" d="M133.2,88.81c.08-1-.64-1.89-1.63-2.01-.53-.04-1.03.14-1.4.48v2.79c.28.24.63.41,1.02.46,1.03.09,1.94-.68,2.02-1.71Z"/>
    <path class="st0" d="M126.04,94.7c1.03.09,1.94-.68,2.02-1.71.08-1-.64-1.89-1.63-2.01-1.03-.09-1.94.68-2.02,1.71-.08,1,.64,1.89,1.63,2.01Z"/>
    <path class="st0" d="M132.23,98.12c.08-1-.64-1.89-1.63-2.01-.14-.01-.28,0-.41.01v3.71s.02,0,.03,0c1.03.09,1.94-.68,2.02-1.71Z"/>
    <path class="st0" d="M135.35,95.66c1.03.09,1.94-.68,2.02-1.71.08-1-.64-1.89-1.63-2.01-1.03-.09-1.94.68-2.02,1.71-.08,1,.64,1.89,1.63,2.01Z"/>
    <path class="st0" d="M128.58,97.82c-.07.84.43,1.59,1.17,1.89l-.07-3.43c-.6.27-1.04.84-1.1,1.55Z"/>
    <path class="st0" d="M127.09,102.3c.07-.88-.47-1.67-1.27-1.93-.11-.04-.24-.07-.36-.08-.13-.01-.26,0-.38,0-.25.03-.48.11-.69.23-.31.18-.57.44-.74.76-.11.2-.17.43-.2.68h0s0,.02,0,.04c-.01.13,0,.25,0,.37.08.72.58,1.33,1.27,1.56.11.04.24.07.36.08.13.01.26,0,.38,0,.25-.03.48-.11.69-.23.1-.06.2-.13.3-.2.36-.3.6-.74.65-1.24h0s0-.02,0-.04Z"/>
    <path class="st0" d="M136.19,102.22c-.11-.21-.26-.39-.44-.54-.27-.23-.6-.38-.98-.43-.26-.02-.51.01-.74.09-.23.08-.44.2-.63.35-.18.15-.34.34-.45.56-.11.2-.17.43-.2.68h0s0,.02,0,.04c-.03.38.05.73.22,1.04.28.52.79.89,1.42.97,1.03.09,1.94-.68,2.02-1.71.03-.38-.05-.73-.22-1.04Z"/>
    <path class="st0" d="M138.34,84.64c.02-.25,0-.49-.08-.72-.04-.11-.08-.22-.14-.32-.22-.41-.6-.74-1.06-.89-.11-.04-.24-.07-.36-.08-.26-.02-.51.01-.74.09-.35.11-.65.33-.88.61-.08.09-.14.19-.2.3-.11.2-.17.43-.2.68h0s0,.02,0,.04c-.03.38.05.73.22,1.04.28.52.79.89,1.42.97.52.04,1-.13,1.36-.44.36-.3.6-.74.65-1.24h0s0-.02,0-.04Z"/>
    <path class="st0" d="M130.51,79.2c-.08,1,.64,1.89,1.63,2.01,1.03.09,1.94-.68,2.02-1.71.04-.52-.14-1.01-.46-1.38h-2.74c-.25.3-.43.66-.46,1.08Z"/>
    <path class="st0" d="M139.82,80.17c-.08,1,.64,1.89,1.63,2.01,1.03.09,1.94-.68,2.02-1.71.08-1-.64-1.89-1.63-2.01-1.03-.09-1.94.68-2.02,1.71Z"/>
    <path class="st0" d="M129.21,72.69c-.25-.17-.53-.3-.85-.34-1.03-.09-1.94.68-2.02,1.71-.08,1,.64,1.89,1.63,2.01.49.04.94-.11,1.3-.39l-.06-3Z"/>
    <path class="st0" d="M118.39,123.07c-1.03-.09-1.94.68-2.02,1.71-.03.31.03.61.15.88h3.36c.07-.19.13-.37.15-.58.08-1-.64-1.89-1.63-2.01Z"/>
    <path class="st0" d="M110.71,124.12c.08-1-.64-1.89-1.63-2.01-1.03-.09-1.94.68-2.02,1.71-.07.82.41,1.56,1.13,1.87h1.38c.62-.27,1.08-.85,1.14-1.57Z"/>
    <path class="st0" d="M114.8,112.35c1.03.09,1.94-.68,2.02-1.71.08-1-.64-1.89-1.63-2.01-1.03-.09-1.94.68-2.02,1.71-.08,1,.64,1.89,1.63,2.01Z"/>
    <path class="st0" d="M124.11,113.32c.77.06,1.48-.35,1.81-1,.11-.22.19-.46.21-.71.03-.38-.05-.73-.22-1.04-.28-.52-.79-.89-1.42-.97-1.03-.09-1.94.68-2.02,1.71-.08,1,.64,1.89,1.63,2.01Z"/>
    <path class="st0" d="M121.96,106.47c.08-1-.64-1.89-1.63-2.01-1.03-.09-1.94.68-2.02,1.71-.08,1,.64,1.89,1.63,2.01,1.03.09,1.94-.68,2.02-1.71Z"/>
    <path class="st0" d="M108.02,114.51c-.08,1,.64,1.89,1.63,2.01,1.03.09,1.94-.68,2.02-1.71.08-1-.64-1.89-1.63-2.01-1.03-.09-1.94.68-2.02,1.71Z"/>
    <path class="st0" d="M106.54,118.98c.02-.25,0-.49-.08-.72-.04-.11-.08-.22-.14-.32-.22-.41-.6-.74-1.06-.89-.11-.04-.24-.07-.36-.08-.26-.02-.51.01-.74.09-.23.08-.44.2-.63.35-.18.15-.34.34-.45.56-.11.2-.17.43-.2.68h0s0,.02,0,.04c-.03.38.05.73.22,1.04.28.52.79.89,1.42.97.13.01.26,0,.38,0,.25-.03.48-.11.69-.23.1-.06.2-.13.3-.2.36-.3.6-.74.65-1.24h0s0-.02,0-.04Z"/>
    <path class="st0" d="M115.85,119.95c.03-.38-.05-.73-.22-1.04-.28-.52-.79-.89-1.42-.97-.52-.04-1,.13-1.36.44-.36.3-.6.74-.65,1.24h0s0,.02,0,.04c-.02.25,0,.49.08.72.04.11.08.22.14.32.11.21.26.39.44.54.27.23.6.38.98.43.26.02.51-.01.74-.09.35-.11.65-.33.88-.61.08-.09.14-.19.2-.3.11-.2.17-.43.2-.68h0s0-.02,0-.04Z"/>
    <path class="st0" d="M117.33,115.47c-.08,1,.64,1.89,1.63,2.01,1.03.09,1.94-.68,2.02-1.71.08-1-.64-1.89-1.63-2.01-1.03-.09-1.94.68-2.02,1.71Z"/>
    <path class="st0" d="M112.65,105.5c.08-1-.64-1.89-1.63-2.01-1.03-.09-1.94.68-2.02,1.71-.08,1,.64,1.89,1.63,2.01,1.03.09,1.94-.68,2.02-1.71Z"/>
    <path class="st0" d="M107.42,92.76c1.03.09,1.94-.68,2.02-1.71.08-1-.64-1.89-1.63-2.01-1.03-.09-1.94.68-2.02,1.71-.08,1,.64,1.89,1.63,2.01Z"/>
    <path class="st0" d="M116.73,93.73c1.03.09,1.94-.68,2.02-1.71.08-1-.64-1.89-1.63-2.01-1.03-.09-1.94.68-2.02,1.71-.08,1,.64,1.89,1.63,2.01Z"/>
    <path class="st0" d="M109.96,95.89c-.08,1,.64,1.89,1.63,2.01,1.03.09,1.94-.68,2.02-1.71.08-1-.64-1.89-1.63-2.01-1.03-.09-1.94.68-2.02,1.71Z"/>
    <path class="st0" d="M114.58,86.88c.08-1-.64-1.89-1.63-2.01-1.03-.09-1.94.68-2.02,1.71-.08,1,.64,1.89,1.63,2.01,1.03.09,1.94-.68,2.02-1.71Z"/>
    <path class="st0" d="M108.47,100.36c.03-.38-.05-.73-.22-1.04-.11-.21-.26-.39-.44-.54-.27-.23-.6-.38-.98-.43-.13-.01-.26,0-.38,0-.25.03-.48.11-.69.23-.31.18-.57.44-.74.76-.11.2-.17.43-.2.68h0s0,.02,0,.04c-.03.38.05.73.22,1.04.28.52.79.89,1.42.97.13.01.26,0,.38,0,.25-.03.48-.11.69-.23.31-.18.57-.44.74-.76.11-.2.17-.43.2-.68h0s0-.02,0-.04Z"/>
    <path class="st0" d="M117.78,101.33c.05-.63-.21-1.21-.66-1.59-.27-.23-.6-.38-.98-.43-1.03-.09-1.94.68-2.02,1.71-.03.38.05.73.22,1.04.11.21.26.39.44.54.27.23.6.38.98.43.77.06,1.48-.35,1.81-1,.11-.2.17-.43.2-.68h0s0-.02,0-.04Z"/>
    <path class="st0" d="M125.37,83.37c-.07.88.47,1.67,1.27,1.93.11.04.24.07.36.08.26.02.51-.01.74-.09.35-.11.65-.33.88-.61.23-.28.37-.63.41-1.02.08-1-.64-1.89-1.63-2.01-.13-.01-.26,0-.38,0-.25.03-.48.11-.69.23-.1.06-.2.13-.3.2-.36.3-.6.74-.65,1.24h0s0,.02,0,.04Z"/>
    <path class="st0" d="M119.27,96.85c-.08,1,.64,1.89,1.63,2.01,1.03.09,1.94-.68,2.02-1.71.08-1-.64-1.89-1.63-2.01-1.03-.09-1.94.68-2.02,1.71Z"/>
    <path class="st0" d="M123.89,87.85c.08-1-.64-1.89-1.63-2.01-1.03-.09-1.94.68-2.02,1.71-.08,1,.64,1.89,1.63,2.01,1.03.09,1.94-.68,2.02-1.71Z"/>
    <path class="st0" d="M127.39,65.47c.18.57.62,1.02,1.19,1.21.11.04.24.07.36.08.05,0,.1,0,.15,0l-.07-3.72c-.9.07-1.64.78-1.71,1.71-.02.25,0,.49.08.72Z"/>
    <path class="st0" d="M121.2,78.23c-.08,1,.64,1.89,1.63,2.01,1.03.09,1.94-.68,2.02-1.71.08-1-.64-1.89-1.63-2.01-1.03-.09-1.94.68-2.02,1.71Z"/>
    <path class="st0" d="M116.51,68.26c.08-1-.64-1.89-1.63-2.01-1.03-.09-1.94.68-2.02,1.71-.08,1,.64,1.89,1.63,2.01,1.03.09,1.94-.68,2.02-1.71Z"/>
    <path class="st0" d="M119.72,82.71c.07-.88-.47-1.67-1.27-1.93-.11-.04-.24-.07-.36-.08-1.03-.09-1.94.68-2.02,1.71-.03.38.05.73.22,1.04.11.21.26.39.44.54.27.23.6.38.98.43.52.04,1-.13,1.36-.44.36-.3.6-.74.65-1.24h0s0-.02,0-.04Z"/>
    <path class="st0" d="M118,63.79c-.03.38.05.73.22,1.04.28.52.79.89,1.42.97.13.01.26,0,.38,0,.37-.04.71-.2.99-.43.18-.15.34-.34.45-.56.11-.2.17-.43.2-.68h0s0-.02,0-.04c.03-.38-.05-.73-.22-1.04-.11-.21-.26-.39-.44-.54-.27-.23-.6-.38-.98-.43-.13-.01-.26,0-.38,0-.85.1-1.54.78-1.64,1.67h0s0,.02,0,.04Z"/>
    <path class="st0" d="M111.89,77.27c-.08,1,.64,1.89,1.63,2.01,1.03.09,1.94-.68,2.02-1.71.08-1-.64-1.89-1.63-2.01-1.03-.09-1.94.68-2.02,1.71Z"/>
    <path class="st0" d="M110.33,81.02c-.18-.56-.62-1.02-1.19-1.21-.11-.04-.24-.07-.36-.08-.52-.04-1,.13-1.36.44-.36.3-.6.74-.65,1.24h0s0,.02,0,.04c-.02.25,0,.49.08.72.21.68.81,1.2,1.55,1.29.26.02.51-.01.74-.09.35-.11.65-.33.88-.61.23-.28.37-.63.41-1.02.02-.25,0-.49-.08-.72Z"/>
    <path class="st0" d="M125.82,69.23c.08-1-.64-1.89-1.63-2.01-1.03-.09-1.94.68-2.02,1.71-.08,1,.64,1.89,1.63,2.01,1.03.09,1.94-.68,2.02-1.71Z"/>
    <path class="st0" d="M117.03,73.1c-.08,1,.64,1.89,1.63,2.01,1.03.09,1.94-.68,2.02-1.71.08-1-.64-1.89-1.63-2.01-1.03-.09-1.94.68-2.02,1.71Z"/>
    <path class="st0" d="M113.83,58.65c-.08,1,.64,1.89,1.63,2.01,1.03.09,1.94-.68,2.02-1.71.08-1-.64-1.89-1.63-2.01-1.03-.09-1.94.68-2.02,1.71Z"/>
    <path class="st0" d="M124.77,61.63c1.03.09,1.94-.68,2.02-1.71.08-1-.64-1.89-1.63-2.01-1.03-.09-1.94.68-2.02,1.71-.08,1,.64,1.89,1.63,2.01Z"/>
    <path class="st0" d="M118.45,49.64c.08-1-.64-1.89-1.63-2.01-1.03-.09-1.94.68-2.02,1.71-.08,1,.64,1.89,1.63,2.01,1.03.09,1.94-.68,2.02-1.71Z"/>
    <path class="st0" d="M120.99,52.77c-1.03-.09-1.94.68-2.02,1.71-.08,1,.64,1.89,1.63,2.01,1.03.09,1.94-.68,2.02-1.71.08-1-.64-1.89-1.63-2.01Z"/>
    <path class="st0" d="M128.9,57l-.05-2.74c-.32.3-.53.71-.57,1.19-.05.61.2,1.17.62,1.55Z"/>
    <path class="st0" d="M119.93,45.17c-.03.38.05.73.22,1.04.28.52.79.89,1.42.97.26.02.51-.01.74-.09.35-.11.65-.33.88-.61.23-.28.37-.63.41-1.02.03-.38-.05-.73-.22-1.04-.11-.21-.26-.39-.44-.54-.27-.23-.6-.38-.98-.43-.13-.01-.26,0-.38,0-.85.1-1.54.78-1.64,1.67h0s0,.02,0,.04Z"/>
    <path class="st0" d="M126.12,48.59c-1.03-.09-1.94.68-2.02,1.71-.08,1,.64,1.89,1.63,2.01,1.03.09,1.94-.68,2.02-1.71.08-1-.64-1.89-1.63-2.01Z"/>
    <path class="st0" d="M127.67,33.7c.27.02.52-.01.76-.1l-.02-1.19-2.06-1.6c-.17.25-.28.55-.31.87-.08,1,.64,1.89,1.63,2.01Z"/>
    <path class="st0" d="M122.53,37.87c1.03.09,1.94-.68,2.02-1.71.08-1-.64-1.89-1.63-2.01-1.03-.09-1.94.68-2.02,1.71-.08,1,.64,1.89,1.63,2.01Z"/>
    <path class="st0" d="M123.41,28.54l-1.38-1.07s.03.08.05.12c.27.49.75.85,1.33.95Z"/>
    <path class="st0" d="M116.73,30.72c-.08,1,.64,1.89,1.63,2.01,1.03.09,1.94-.68,2.02-1.71.08-1-.64-1.89-1.63-2.01-1.03-.09-1.94.68-2.02,1.71Z"/>
    <path class="st0" d="M117.39,42.04c1.03.09,1.94-.68,2.02-1.71.08-1-.64-1.89-1.63-2.01-1.03-.09-1.94.68-2.02,1.71-.08,1,.64,1.89,1.63,2.01Z"/>
    <path class="st0" d="M127.09,39.28c-1.03-.09-1.94.68-2.02,1.71-.08,1,.64,1.89,1.63,2.01.85.07,1.6-.44,1.89-1.19l-.03-1.42c-.26-.59-.8-1.03-1.48-1.11Z"/>
    <path class="st0" d="M85.32,124.34c-.93-.08-1.74.54-1.96,1.41h3.54c-.19-.74-.79-1.31-1.58-1.41Z"/>
    <path class="st0" d="M93.3,125.72h2.28c-.26-.22-.59-.37-.95-.41-.5-.04-.97.12-1.33.41Z"/>
    <path class="st0" d="M88.44,121.88c-.08,1,.64,1.89,1.63,2.01,1.03.09,1.94-.68,2.02-1.71.08-1-.64-1.89-1.63-2.01-1.03-.09-1.94.68-2.02,1.71Z"/>
    <path class="st0" d="M97.75,122.85c-.08,1,.64,1.89,1.63,2.01,1.03.09,1.94-.68,2.02-1.71.08-1-.64-1.89-1.63-2.01-1.03-.09-1.94.68-2.02,1.71Z"/>
    <path class="st0" d="M94.03,103.57c.08-1-.64-1.89-1.63-2.01-1.03-.09-1.94.68-2.02,1.71-.08,1,.64,1.89,1.63,2.01,1.03.09,1.94-.68,2.02-1.71Z"/>
    <path class="st0" d="M98.71,113.54c-.08,1,.64,1.89,1.63,2.01,1.03.09,1.94-.68,2.02-1.71.08-1-.64-1.89-1.63-2.01-1.03-.09-1.94.68-2.02,1.71Z"/>
    <path class="st0" d="M103.34,104.53c.08-1-.64-1.89-1.63-2.01-1.03-.09-1.94.68-2.02,1.71-.08,1,.64,1.89,1.63,2.01,1.03.09,1.94-.68,2.02-1.71Z"/>
    <path class="st0" d="M96.18,110.42c1.03.09,1.94-.68,2.02-1.71.08-1-.64-1.89-1.63-2.01-1.03-.09-1.94.68-2.02,1.71-.08,1,.64,1.89,1.63,2.01Z"/>
    <path class="st0" d="M87.92,117.05c.07-.88-.47-1.67-1.27-1.93-.11-.04-.24-.07-.36-.08-1.03-.09-1.94.68-2.02,1.71-.01.13,0,.25,0,.37.08.72.58,1.33,1.27,1.56.11.04.24.07.36.08.13.01.26,0,.38,0,.25-.03.48-.11.69-.23.1-.06.2-.13.3-.2.36-.3.6-.74.65-1.24h0s0-.02,0-.04Z"/>
    <path class="st0" d="M97.23,118.01c.04-.5-.12-.97-.41-1.34-.15-.18-.33-.34-.53-.45-.21-.12-.44-.2-.69-.23-.52-.04-1,.13-1.36.44-.36.3-.6.74-.65,1.24h0s0,.02,0,.04c-.07.88.47,1.67,1.27,1.93.11.04.24.07.36.08.26.02.51-.01.74-.09.35-.11.65-.33.88-.61.23-.28.37-.63.41-1.02Z"/>
    <path class="st0" d="M89.4,112.57c-.08,1,.64,1.89,1.63,2.01,1.03.09,1.94-.68,2.02-1.71.08-1-.64-1.89-1.63-2.01-1.03-.09-1.94.68-2.02,1.71Z"/>
    <path class="st0" d="M105.49,111.38c1.03.09,1.94-.68,2.02-1.71.08-1-.64-1.89-1.63-2.01-1.03-.09-1.94.68-2.02,1.71-.08,1,.64,1.89,1.63,2.01Z"/>
    <path class="st0" d="M89.64,97.38c-.11-.21-.26-.39-.44-.54-.27-.23-.6-.38-.98-.43-.13-.01-.26,0-.38,0-.25.03-.48.11-.69.23-.1.06-.2.13-.3.2-.36.3-.6.74-.65,1.24h0s0,.02,0,.04c-.02.25,0,.49.08.72.21.68.81,1.2,1.55,1.29.26.02.51-.01.74-.09.23-.08.44-.2.63-.35.37-.31.61-.76.66-1.27.03-.38-.05-.73-.22-1.04Z"/>
    <path class="st0" d="M100.65,94.92c-.08,1,.64,1.89,1.63,2.01,1.03.09,1.94-.68,2.02-1.71.08-1-.64-1.89-1.63-2.01-1.03-.09-1.94.68-2.02,1.71Z"/>
    <path class="st0" d="M105.27,85.91c.08-1-.64-1.89-1.63-2.01-1.03-.09-1.94.68-2.02,1.71-.08,1,.64,1.89,1.63,2.01,1.03.09,1.94-.68,2.02-1.71Z"/>
    <path class="st0" d="M97.53,97.38c-.26-.02-.51.01-.74.09-.35.11-.65.33-.88.61-.23.28-.37.63-.41,1.02-.02.25,0,.49.08.72.18.57.62,1.02,1.19,1.21.11.04.24.07.36.08,1.03.09,1.94-.68,2.02-1.71.08-1-.64-1.89-1.63-2.01Z"/>
    <path class="st0" d="M88.8,90.83c1.03.09,1.94-.68,2.02-1.71.08-1-.64-1.89-1.63-2.01-1.03-.09-1.94.68-2.02,1.71-.08,1,.64,1.89,1.63,2.01Z"/>
    <path class="st0" d="M95.96,84.95c.08-1-.64-1.89-1.63-2.01-1.03-.09-1.94.68-2.02,1.71-.08,1,.64,1.89,1.63,2.01,1.03.09,1.94-.68,2.02-1.71Z"/>
    <path class="st0" d="M98.11,91.8c1.03.09,1.94-.68,2.02-1.71.08-1-.64-1.89-1.63-2.01-1.03-.09-1.94.68-2.02,1.71-.08,1,.64,1.89,1.63,2.01Z"/>
    <path class="st0" d="M92.97,95.97c1.03.09,1.94-.68,2.02-1.71.08-1-.64-1.89-1.63-2.01-1.03-.09-1.94.68-2.02,1.71-.08,1,.64,1.89,1.63,2.01Z"/>
    <path class="st0" d="M91.79,79.81c.03-.38-.05-.73-.22-1.04s-.42-.57-.73-.74c-.21-.12-.44-.2-.69-.23-.26-.02-.51.01-.74.09-.68.22-1.2.83-1.28,1.59h0s0,.02,0,.04c-.03.38.05.73.22,1.04.06.1.12.2.19.29.15.18.33.34.53.45.21.12.44.2.69.23,1.03.09,1.94-.68,2.02-1.71Z"/>
    <path class="st0" d="M91.12,68.48c-1.03-.09-1.94.68-2.02,1.71-.08,1,.64,1.89,1.63,2.01,1.03.09,1.94-.68,2.02-1.71.08-1-.64-1.89-1.63-2.01Z"/>
    <path class="st0" d="M109.35,74.14c1.03.09,1.94-.68,2.02-1.71.08-1-.64-1.89-1.63-2.01-1.03-.09-1.94.68-2.02,1.71-.08,1,.64,1.89,1.63,2.01Z"/>
    <path class="st0" d="M102.58,76.3c-.08,1,.64,1.89,1.63,2.01,1.03.09,1.94-.68,2.02-1.71.08-1-.64-1.89-1.63-2.01-1.03-.09-1.94.68-2.02,1.71Z"/>
    <path class="st0" d="M98.41,71.16c-.08,1,.64,1.89,1.63,2.01,1.03.09,1.94-.68,2.02-1.71.08-1-.64-1.89-1.63-2.01-1.03-.09-1.94.68-2.02,1.71Z"/>
    <path class="st0" d="M107.2,67.29c.08-1-.64-1.89-1.63-2.01-1.03-.09-1.94.68-2.02,1.71-.08,1,.64,1.89,1.63,2.01,1.03.09,1.94-.68,2.02-1.71Z"/>
    <path class="st0" d="M96.26,64.31c-1.03-.09-1.94.68-2.02,1.71-.08,1,.64,1.89,1.63,2.01,1.03.09,1.94-.68,2.02-1.71.08-1-.64-1.89-1.63-2.01Z"/>
    <path class="st0" d="M96.93,75.64c.08-1-.64-1.89-1.63-2.01-1.03-.09-1.94.68-2.02,1.71-.08,1,.64,1.89,1.63,2.01,1.03.09,1.94-.68,2.02-1.71Z"/>
    <path class="st0" d="M101.1,80.78c.07-.88-.47-1.67-1.27-1.93-.11-.04-.24-.07-.36-.08-1.03-.09-1.94.68-2.02,1.71-.02.25,0,.49.08.72.18.57.62,1.02,1.19,1.21.11.04.24.07.36.08.13.01.26,0,.38,0,.25-.03.48-.11.69-.23.1-.06.2-.13.3-.2.36-.3.6-.74.65-1.24h0s0-.02,0-.04Z"/>
    <path class="st0" d="M99.38,61.85c-.03.38.05.73.22,1.04.11.21.26.39.44.54.27.23.6.38.98.43.13.01.26,0,.38,0,.25-.03.48-.11.69-.23.31-.18.57-.44.74-.76.11-.2.17-.43.2-.68h0s0-.02,0-.04c.03-.38-.05-.73-.22-1.04-.28-.52-.79-.89-1.42-.97-.13-.01-.26,0-.38,0-.25.03-.48.11-.69.23-.31.18-.57.44-.74.76-.11.2-.17.43-.2.68h0s0,.02,0,.04Z"/>
    <path class="st0" d="M101.31,43.23c-.02.25,0,.49.08.72.04.11.08.22.14.32.11.21.26.39.44.54.27.23.6.38.98.43.26.02.51-.01.74-.09.35-.11.65-.33.88-.61.08-.09.14-.19.2-.3.11-.2.17-.43.2-.68h0s0-.02,0-.04c.06-.75-.33-1.44-.95-1.79-.21-.12-.44-.2-.69-.23-.52-.04-1,.13-1.36.44-.36.3-.6.74-.65,1.24h0s0,.02,0,.04Z"/>
    <path class="st0" d="M107.5,46.66c-1.03-.09-1.94.68-2.02,1.71-.08,1,.64,1.89,1.63,2.01,1.03.09,1.94-.68,2.02-1.71.08-1-.64-1.89-1.63-2.01Z"/>
    <path class="st0" d="M108.69,62.82c-.08,1,.64,1.89,1.63,2.01,1.03.09,1.94-.68,2.02-1.71.02-.25,0-.49-.08-.72-.18-.56-.62-1.02-1.19-1.21-.11-.04-.24-.07-.36-.08-1.03-.09-1.94.68-2.02,1.71Z"/>
    <path class="st0" d="M112.26,46.21c.52.04,1-.13,1.36-.44.36-.3.6-.74.65-1.24h0s0-.02,0-.04c.07-.88-.47-1.67-1.27-1.93-.11-.04-.24-.07-.36-.08-1.03-.09-1.94.68-2.02,1.71-.08,1,.64,1.89,1.63,2.01Z"/>
    <path class="st0" d="M109.65,53.51c-.08,1,.64,1.89,1.63,2.01.77.06,1.48-.35,1.81-1,.11-.22.19-.46.21-.71.03-.38-.05-.73-.22-1.04-.28-.52-.79-.89-1.42-.97-1.03-.09-1.94.68-2.02,1.71Z"/>
    <path class="st0" d="M104.52,57.68c-.08,1,.64,1.89,1.63,2.01,1.03.09,1.94-.68,2.02-1.71.08-1-.64-1.89-1.63-2.01-1.03-.09-1.94.68-2.02,1.71Z"/>
    <path class="st0" d="M102.37,50.83c-1.03-.09-1.94.68-2.02,1.71-.08,1,.64,1.89,1.63,2.01,1.03.09,1.94-.68,2.02-1.71.08-1-.64-1.89-1.63-2.01Z"/>
    <path class="st0" d="M95.21,56.71c-.08,1,.64,1.89,1.63,2.01,1.03.09,1.94-.68,2.02-1.71.08-1-.64-1.89-1.63-2.01-1.03-.09-1.94.68-2.02,1.71Z"/>
    <path class="st0" d="M99.83,47.71c.08-1-.64-1.89-1.63-2.01-1.03-.09-1.94.68-2.02,1.71-.08,1,.64,1.89,1.63,2.01,1.03.09,1.94-.68,2.02-1.71Z"/>
    <path class="st0" d="M111.59,34.89c-.08,1,.64,1.89,1.63,2.01,1.03.09,1.94-.68,2.02-1.71.08-1-.64-1.89-1.63-2.01-1.03-.09-1.94.68-2.02,1.71Z"/>
    <path class="st0" d="M111.07,30.05c.08-1-.64-1.89-1.63-2.01-1.03-.09-1.94.68-2.02,1.71-.08,1,.64,1.89,1.63,2.01,1.03.09,1.94-.68,2.02-1.71Z"/>
    <path class="st0" d="M104.3,32.21c-1.03-.09-1.94.68-2.02,1.71-.08,1,.64,1.89,1.63,2.01,1.03.09,1.94-.68,2.02-1.71.08-1-.64-1.89-1.63-2.01Z"/>
    <path class="st0" d="M112.56,25.58c-.02.25,0,.49.08.72.18.57.62,1.02,1.19,1.21.11.04.24.07.36.08.13.01.26,0,.38,0,.25-.03.48-.11.69-.23.31-.18.57-.44.74-.76.11-.2.17-.43.2-.68h0s0-.02,0-.04c.08-1-.64-1.89-1.63-2.01-.13-.01-.26,0-.38,0-.25.03-.48.11-.69.23-.31.18-.57.44-.74.76-.11.2-.17.43-.2.68h0s0,.02,0,.04Z"/>
    <path class="st0" d="M97.14,38.09c-.08,1,.64,1.89,1.63,2.01,1.03.09,1.94-.68,2.02-1.71.08-1-.64-1.89-1.63-2.01-1.03-.09-1.94.68-2.02,1.71Z"/>
    <path class="st0" d="M106.45,39.06c-.08,1,.64,1.89,1.63,2.01,1.03.09,1.94-.68,2.02-1.71.08-1-.64-1.89-1.63-2.01-1.03-.09-1.94.68-2.02,1.71Z"/>
    <path class="st0" d="M101.76,29.09c.08-1-.64-1.89-1.63-2.01-1.03-.09-1.94.68-2.02,1.71-.08,1,.64,1.89,1.63,2.01,1.03.09,1.94-.68,2.02-1.71Z"/>
    <path class="st0" d="M108.38,20.44c-.08,1,.64,1.89,1.63,2.01,1.03.09,1.94-.68,2.02-1.71.04-.49-.12-.96-.4-1.32l-.68-.52c-.17-.08-.36-.14-.55-.17-1.03-.09-1.94.68-2.02,1.71Z"/>
    <path class="st0" d="M106.24,23.33c-.27-.23-.6-.38-.98-.43-1.03-.09-1.94.68-2.02,1.71-.03.38.05.73.22,1.04.11.21.26.39.44.54.27.23.6.38.98.43.77.06,1.48-.35,1.81-1,.11-.2.17-.43.2-.68h0s0-.02,0-.04c.05-.63-.21-1.21-.66-1.59Z"/>
    <path class="st0" d="M105.85,17.32c.77.06,1.46-.34,1.8-.98l-.42-.33-2.89.11c.24.63.8,1.1,1.51,1.19Z"/>
    <path class="st0" d="M102.73,19.78c.08-1-.64-1.89-1.63-2.01-1.03-.09-1.94.68-2.02,1.71-.08,1,.64,1.89,1.63,2.01,1.03.09,1.94-.68,2.02-1.71Z"/>
    <path class="st0" d="M76.01,123.38c-1.03-.09-1.94.68-2.02,1.71-.02.24,0,.47.07.69h3.51c.04-.13.06-.25.07-.38.08-1-.64-1.89-1.63-2.01Z"/>
    <path class="st0" d="M79.13,120.92c-.08,1,.64,1.89,1.63,2.01,1.03.09,1.94-.68,2.02-1.71.08-1-.64-1.89-1.63-2.01-1.03-.09-1.94.68-2.02,1.71Z"/>
    <path class="st0" d="M76.59,117.79c1.03.09,1.94-.68,2.02-1.71.02-.25,0-.49-.08-.72-.18-.56-.62-1.02-1.19-1.21-.11-.04-.24-.07-.36-.08-1.03-.09-1.94.68-2.02,1.71-.08,1,.64,1.89,1.63,2.01Z"/>
    <path class="st0" d="M69.82,119.95c-.08,1,.64,1.89,1.63,2.01,1.03.09,1.94-.68,2.02-1.71.08-1-.64-1.89-1.63-2.01-1.03-.09-1.94.68-2.02,1.71Z"/>
    <path class="st0" d="M68.33,124.42c.08-1-.64-1.89-1.63-2.01-1.03-.09-1.94.68-2.02,1.71-.06.68.27,1.31.79,1.68h2.07c.44-.31.75-.8.79-1.37Z"/>
    <path class="st0" d="M80.09,111.61c-.08,1,.64,1.89,1.63,2.01,1.03.09,1.94-.68,2.02-1.71.08-1-.64-1.89-1.63-2.01-1.03-.09-1.94.68-2.02,1.71Z"/>
    <path class="st0" d="M86.87,109.45c1.03.09,1.94-.68,2.02-1.71.08-1-.64-1.89-1.63-2.01-1.03-.09-1.94.68-2.02,1.71-.08,1,.64,1.89,1.63,2.01Z"/>
    <path class="st0" d="M75.41,101.63c.08-1-.64-1.89-1.63-2.01-1.03-.09-1.94.68-2.02,1.71-.08,1,.64,1.89,1.63,2.01,1.03.09,1.94-.68,2.02-1.71Z"/>
    <path class="st0" d="M84.72,102.6c.08-1-.64-1.89-1.63-2.01-1.03-.09-1.94.68-2.02,1.71-.08,1,.64,1.89,1.63,2.01,1.03.09,1.94-.68,2.02-1.71Z"/>
    <path class="st0" d="M69.3,115.11c.03-.38-.05-.73-.22-1.04-.28-.52-.79-.89-1.42-.97-.13-.01-.26,0-.38,0-.25.03-.48.11-.69.23-.31.18-.57.44-.74.76-.11.2-.17.43-.2.68h0s0,.02,0,.04c-.01.13,0,.25,0,.37.08.72.58,1.33,1.27,1.56.11.04.24.07.36.08.13.01.26,0,.38,0,.25-.03.48-.11.69-.23.1-.06.2-.13.3-.2.36-.3.6-.74.65-1.24h0s0-.02,0-.04Z"/>
    <path class="st0" d="M70.78,110.64c-.08,1,.64,1.89,1.63,2.01,1.03.09,1.94-.68,2.02-1.71.08-1-.64-1.89-1.63-2.01-1.03-.09-1.94.68-2.02,1.71Z"/>
    <path class="st0" d="M70.27,105.8c.08-1-.64-1.89-1.63-2.01-1.03-.09-1.94.68-2.02,1.71-.08,1,.64,1.89,1.63,2.01,1.03.09,1.94-.68,2.02-1.71Z"/>
    <path class="st0" d="M77.56,108.48c1.03.09,1.94-.68,2.02-1.71.08-1-.64-1.89-1.63-2.01-1.03-.09-1.94.68-2.02,1.71-.08,1,.64,1.89,1.63,2.01Z"/>
    <path class="st0" d="M80.55,97.46c.07-.88-.47-1.67-1.27-1.93-.11-.04-.24-.07-.36-.08-.39-.03-.76.06-1.07.23-.21.12-.4.27-.55.46-.23.28-.37.63-.41,1.02-.08,1,.64,1.89,1.63,2.01.52.04,1-.13,1.36-.44.36-.3.6-.74.65-1.24h0s0-.02,0-.04Z"/>
    <path class="st0" d="M82.03,92.99c-.08,1,.64,1.89,1.63,2.01,1.03.09,1.94-.68,2.02-1.71.08-1-.64-1.89-1.63-2.01-1.03-.09-1.94.68-2.02,1.71Z"/>
    <path class="st0" d="M72.72,92.02c-.08,1,.64,1.89,1.63,2.01,1.03.09,1.94-.68,2.02-1.71.08-1-.64-1.89-1.63-2.01-1.03-.09-1.94.68-2.02,1.71Z"/>
    <path class="st0" d="M79.49,89.86c1.03.09,1.94-.68,2.02-1.71.08-1-.64-1.89-1.63-2.01-1.03-.09-1.94.68-2.02,1.71-.08,1,.64,1.89,1.63,2.01Z"/>
    <path class="st0" d="M77.34,83.01c.08-1-.64-1.89-1.63-2.01-1.03-.09-1.94.68-2.02,1.71-.08,1,.64,1.89,1.63,2.01,1.03.09,1.94-.68,2.02-1.71Z"/>
    <path class="st0" d="M86.65,83.98c.08-1-.64-1.89-1.63-2.01-1.03-.09-1.94.68-2.02,1.71-.08,1,.64,1.89,1.63,2.01,1.03.09,1.94-.68,2.02-1.71Z"/>
    <path class="st0" d="M72.2,87.18c.08-1-.64-1.89-1.63-2.01-1.03-.09-1.94.68-2.02,1.71-.08,1,.64,1.89,1.63,2.01,1.03.09,1.94-.68,2.02-1.71Z"/>
    <path class="st0" d="M71.24,96.49c.03-.38-.05-.73-.22-1.04-.28-.52-.79-.89-1.42-.97-.13-.01-.26,0-.38,0-.25.03-.48.11-.69.23-.1.06-.2.13-.3.2-.36.3-.6.74-.65,1.24h0s0,.02,0,.04c-.02.25,0,.49.08.72.04.11.08.22.14.32.11.21.26.39.44.54.27.23.6.38.98.43.26.02.51-.01.74-.09.35-.11.65-.33.88-.61.08-.09.14-.19.2-.3.11-.2.17-.43.2-.68h0s0-.02,0-.04Z"/>
    <path class="st0" d="M79.27,64.39c.08-1-.64-1.89-1.63-2.01-1.03-.09-1.94.68-2.02,1.71-.08,1,.64,1.89,1.63,2.01,1.03.09,1.94-.68,2.02-1.71Z"/>
    <path class="st0" d="M73.17,77.87c.05-.63-.21-1.21-.66-1.59-.27-.23-.6-.38-.98-.43-1.03-.09-1.94.68-2.02,1.71-.03.38.05.73.22,1.04.11.21.26.39.44.54.27.23.6.38.98.43.77.06,1.48-.35,1.81-1,.11-.2.17-.43.2-.68h0s0-.02,0-.04Z"/>
    <path class="st0" d="M74.65,73.4c-.08,1,.64,1.89,1.63,2.01,1.03.09,1.94-.68,2.02-1.71.08-1-.64-1.89-1.63-2.01-1.03-.09-1.94.68-2.02,1.71Z"/>
    <path class="st0" d="M90.07,60.89c-.03.38.05.73.22,1.04.28.52.79.89,1.42.97,1.03.09,1.94-.68,2.02-1.71.03-.38-.05-.73-.22-1.04-.11-.21-.26-.39-.44-.54-.27-.23-.6-.38-.98-.43-.26-.02-.51.01-.74.09-.35.11-.65.33-.88.61-.08.09-.14.19-.2.3-.11.2-.17.43-.2.68h0s0,.02,0,.04Z"/>
    <path class="st0" d="M82.48,78.84c.07-.88-.47-1.67-1.27-1.93-.11-.04-.24-.07-.36-.08-1.03-.09-1.94.68-2.02,1.71-.01.13,0,.25,0,.37.08.72.58,1.33,1.27,1.56.11.04.24.07.36.08.13.01.26,0,.38,0,.25-.03.48-.11.69-.23.1-.06.2-.13.3-.2.36-.3.6-.74.65-1.24h0s0-.02,0-.04Z"/>
    <path class="st0" d="M83.96,74.37c-.08,1,.64,1.89,1.63,2.01,1.03.09,1.94-.68,2.02-1.71.08-1-.64-1.89-1.63-2.01-1.03-.09-1.94.68-2.02,1.71Z"/>
    <path class="st0" d="M80.76,59.92c-.07.88.47,1.67,1.27,1.93.11.04.24.07.36.08,1.03.09,1.94-.68,2.02-1.71.08-1-.64-1.89-1.63-2.01-.13-.01-.26,0-.38,0-.25.03-.48.11-.69.23-.1.06-.2.13-.3.2-.36.3-.6.74-.65,1.24h0s0,.02,0,.04Z"/>
    <path class="st0" d="M79.79,69.23c-.08,1,.64,1.89,1.63,2.01,1.03.09,1.94-.68,2.02-1.71.08-1-.64-1.89-1.63-2.01-1.03-.09-1.94.68-2.02,1.71Z"/>
    <path class="st0" d="M88.58,65.36c.08-1-.64-1.89-1.63-2.01-1.03-.09-1.94.68-2.02,1.71-.08,1,.64,1.89,1.63,2.01,1.03.09,1.94-.68,2.02-1.71Z"/>
    <path class="st0" d="M81.21,45.77c.08-1-.64-1.89-1.63-2.01-1.03-.09-1.94.68-2.02,1.71-.08,1,.64,1.89,1.63,2.01,1.03.09,1.94-.68,2.02-1.71Z"/>
    <path class="st0" d="M85.9,55.75c-.08,1,.64,1.89,1.63,2.01,1.03.09,1.94-.68,2.02-1.71.08-1-.64-1.89-1.63-2.01-1.03-.09-1.94.68-2.02,1.71Z"/>
    <path class="st0" d="M93.06,49.86c-1.03-.09-1.94.68-2.02,1.71-.08,1,.64,1.89,1.63,2.01,1.03.09,1.94-.68,2.02-1.71.08-1-.64-1.89-1.63-2.01Z"/>
    <path class="st0" d="M90.52,46.74c.08-1-.64-1.89-1.63-2.01-1.03-.09-1.94.68-2.02,1.71-.08,1,.64,1.89,1.63,2.01,1.03.09,1.94-.68,2.02-1.71Z"/>
    <path class="st0" d="M92,42.27c-.03.38.05.73.22,1.04.28.52.79.89,1.42.97.13.01.26,0,.38,0,.25-.03.48-.11.69-.23.1-.06.2-.13.3-.2.36-.3.6-.74.65-1.24h0s0-.02,0-.04c.02-.25,0-.49-.08-.72-.04-.11-.08-.22-.14-.32-.22-.41-.6-.74-1.06-.89-.11-.04-.24-.07-.36-.08-.77-.06-1.48.35-1.81,1-.11.2-.17.43-.2.68h0s0,.02,0,.04Z"/>
    <path class="st0" d="M83.75,48.9c-1.03-.09-1.94.68-2.02,1.71-.08,1,.64,1.89,1.63,2.01,1.03.09,1.94-.68,2.02-1.71.08-1-.64-1.89-1.63-2.01Z"/>
    <path class="st0" d="M76.59,54.78c-.08,1,.64,1.89,1.63,2.01,1.03.09,1.94-.68,2.02-1.71.08-1-.64-1.89-1.63-2.01-1.03-.09-1.94.68-2.02,1.71Z"/>
    <path class="st0" d="M82.69,41.3c-.07.88.47,1.67,1.27,1.93.11.04.24.07.36.08,1.03.09,1.94-.68,2.02-1.71.04-.5-.12-.97-.41-1.34-.15-.18-.33-.34-.53-.45-.21-.12-.44-.2-.69-.23-.52-.04-1,.13-1.36.44-.36.3-.6.74-.65,1.24h0s0,.02,0,.04Z"/>
    <path class="st0" d="M84.63,22.68c-.02.25,0,.49.08.72.18.57.62,1.02,1.19,1.21.11.04.24.07.36.08.77.06,1.48-.35,1.81-1,.11-.2.17-.43.2-.68h0s0-.02,0-.04c.03-.38-.05-.73-.22-1.04-.28-.52-.79-.89-1.42-.97-.26-.02-.51.01-.74.09-.35.11-.65.33-.88.61-.23.28-.37.63-.41,1.02Z"/>
    <path class="st0" d="M93.94,23.65c-.08,1,.64,1.89,1.63,2.01.13.01.26,0,.38,0,.25-.03.48-.11.69-.23.31-.18.57-.44.74-.76.11-.2.17-.43.2-.68h0s0-.02,0-.04c.02-.25,0-.49-.08-.72-.18-.56-.62-1.02-1.19-1.21-.11-.04-.24-.07-.36-.08-.13-.01-.26,0-.38,0-.25.03-.48.11-.69.23-.31.18-.57.44-.74.76-.11.2-.17.43-.2.68h0s0,.02,0,.04Z"/>
    <path class="st0" d="M78.52,36.16c-.08,1,.64,1.89,1.63,2.01,1.03.09,1.94-.68,2.02-1.71.08-1-.64-1.89-1.63-2.01-1.03-.09-1.94.68-2.02,1.71Z"/>
    <path class="st0" d="M92.45,28.12c.08-1-.64-1.89-1.63-2.01-1.03-.09-1.94.68-2.02,1.71-.08,1,.64,1.89,1.63,2.01,1.03.09,1.94-.68,2.02-1.71Z"/>
    <path class="st0" d="M94.99,31.25c-1.03-.09-1.94.68-2.02,1.71-.08,1,.64,1.89,1.63,2.01,1.03.09,1.94-.68,2.02-1.71.08-1-.64-1.89-1.63-2.01Z"/>
    <path class="st0" d="M87.83,37.13c-.08,1,.64,1.89,1.63,2.01,1.03.09,1.94-.68,2.02-1.71.08-1-.64-1.89-1.63-2.01-1.03-.09-1.94.68-2.02,1.71Z"/>
    <path class="st0" d="M76.37,29.31c-1.03-.09-1.94.68-2.02,1.71-.08,1,.64,1.89,1.63,2.01,1.03.09,1.94-.68,2.02-1.71.08-1-.64-1.89-1.63-2.01Z"/>
    <path class="st0" d="M85.68,30.28c-1.03-.09-1.94.68-2.02,1.71-.08,1,.64,1.89,1.63,2.01,1.03.09,1.94-.68,2.02-1.71.08-1-.64-1.89-1.63-2.01Z"/>
    <path class="st0" d="M83.14,27.15c.08-1-.64-1.89-1.63-2.01-1.03-.09-1.94.68-2.02,1.71-.08,1,.64,1.89,1.63,2.01,1.03.09,1.94-.68,2.02-1.71Z"/>
    <path class="st0" d="M93.42,18.81c.08-1-.64-1.89-1.63-2.01-1.03-.09-1.94.68-2.02,1.71-.08,1,.64,1.89,1.63,2.01,1.03.09,1.94-.68,2.02-1.71Z"/>
    <path class="st0" d="M82.09,19.55c1.03.09,1.94-.68,2.02-1.71.03-.33-.04-.64-.16-.92l-3.38.13c-.05.15-.1.31-.11.48-.08,1,.64,1.89,1.63,2.01Z"/>
    <path class="st0" d="M57,125.17c1.03.09,1.94-.68,2.02-1.71.08-1-.64-1.89-1.63-2.01-1.03-.09-1.94.68-2.02,1.71-.08,1,.64,1.89,1.63,2.01Z"/>
    <path class="st0" d="M59.99,114.15c.03-.38-.05-.73-.22-1.04-.11-.21-.26-.39-.44-.54-.27-.23-.6-.38-.98-.43-.26-.02-.51.01-.74.09-.23.08-.44.2-.63.35-.18.15-.34.34-.45.56-.11.2-.17.43-.2.68h0s0,.02,0,.04c-.03.38.05.73.22,1.04.28.52.79.89,1.42.97,1.03.09,1.94-.68,2.02-1.71Z"/>
    <path class="st0" d="M51.21,125.83h1.71c-.2-.11-.42-.19-.66-.22-.38-.03-.73.05-1.04.22Z"/>
    <path class="st0" d="M60.51,118.98c-.08,1,.64,1.89,1.63,2.01,1.03.09,1.94-.68,2.02-1.71.08-1-.64-1.89-1.63-2.01-1.03-.09-1.94.68-2.02,1.71Z"/>
    <path class="st0" d="M51.2,118.02c-.08,1,.64,1.89,1.63,2.01,1.03.09,1.94-.68,2.02-1.71.08-1-.64-1.89-1.63-2.01-1.03-.09-1.94.68-2.02,1.71Z"/>
    <path class="st0" d="M61.47,109.67c-.08,1,.64,1.89,1.63,2.01,1.03.09,1.94-.68,2.02-1.71.08-1-.64-1.89-1.63-2.01-1.03-.09-1.94.68-2.02,1.71Z"/>
    <path class="st0" d="M58.94,106.55c1.03.09,1.94-.68,2.02-1.71.08-1-.64-1.89-1.63-2.01-1.03-.09-1.94.68-2.02,1.71-.08,1,.64,1.89,1.63,2.01Z"/>
    <path class="st0" d="M49.63,105.58c1.03.09,1.94-.68,2.02-1.71.08-1-.64-1.89-1.63-2.01-1.03-.09-1.94.68-2.02,1.71-.08,1,.64,1.89,1.63,2.01Z"/>
    <path class="st0" d="M56.79,99.7c.08-1-.64-1.89-1.63-2.01-1.03-.09-1.94.68-2.02,1.71-.08,1,.64,1.89,1.63,2.01,1.03.09,1.94-.68,2.02-1.71Z"/>
    <path class="st0" d="M52.16,108.71c-.08,1,.64,1.89,1.63,2.01,1.03.09,1.94-.68,2.02-1.71.08-1-.64-1.89-1.63-2.01-1.03-.09-1.94.68-2.02,1.71Z"/>
    <path class="st0" d="M66.1,100.67c.08-1-.64-1.89-1.63-2.01-1.03-.09-1.94.68-2.02,1.71-.08,1,.64,1.89,1.63,2.01,1.03.09,1.94-.68,2.02-1.71Z"/>
    <path class="st0" d="M50.68,113.18c.02-.25,0-.49-.08-.72-.18-.56-.62-1.02-1.19-1.21-.11-.04-.24-.07-.36-.08-.13-.01-.26,0-.38,0-.25.03-.48.11-.69.23-.31.18-.57.44-.74.76-.11.2-.17.43-.2.68h0s0,.02,0,.04c-.08,1,.64,1.89,1.63,2.01.13.01.26,0,.38,0,.25-.03.48-.11.69-.23.31-.18.57-.44.74-.76.11-.2.17-.43.2-.68h0s0-.02,0-.04Z"/>
    <path class="st0" d="M68.03,82.05c.08-1-.64-1.89-1.63-2.01-1.03-.09-1.94.68-2.02,1.71-.08,1,.64,1.89,1.63,2.01,1.03.09,1.94-.68,2.02-1.71Z"/>
    <path class="st0" d="M52.2,93.22c-.15-.18-.33-.34-.53-.45-.21-.12-.44-.2-.69-.23-.52-.04-1,.13-1.36.44-.36.3-.6.74-.65,1.24h0s0,.02,0,.04c-.07.88.47,1.67,1.27,1.93.11.04.24.07.36.08.26.02.51-.01.74-.09.35-.11.65-.33.88-.61.23-.28.37-.63.41-1.02.04-.5-.12-.97-.41-1.34Z"/>
    <path class="st0" d="M63.41,91.05c-.08,1,.64,1.89,1.63,2.01,1.03.09,1.94-.68,2.02-1.71.08-1-.64-1.89-1.63-2.01-1.03-.09-1.94.68-2.02,1.71Z"/>
    <path class="st0" d="M58.72,81.08c.08-1-.64-1.89-1.63-2.01-1.03-.09-1.94.68-2.02,1.71-.08,1,.64,1.89,1.63,2.01,1.03.09,1.94-.68,2.02-1.71Z"/>
    <path class="st0" d="M60.87,87.93c1.03.09,1.94-.68,2.02-1.71.08-1-.64-1.89-1.63-2.01-1.03-.09-1.94.68-2.02,1.71-.08,1,.64,1.89,1.63,2.01Z"/>
    <path class="st0" d="M54.1,90.09c-.08,1,.64,1.89,1.63,2.01,1.03.09,1.94-.68,2.02-1.71.08-1-.64-1.89-1.63-2.01-1.03-.09-1.94.68-2.02,1.71Z"/>
    <path class="st0" d="M53.58,85.25c.08-1-.64-1.89-1.63-2.01-1.03-.09-1.94.68-2.02,1.71-.08,1,.64,1.89,1.63,2.01,1.03.09,1.94-.68,2.02-1.71Z"/>
    <path class="st0" d="M61.93,95.53c.02-.25,0-.49-.08-.72-.04-.11-.08-.22-.14-.32-.22-.41-.6-.74-1.06-.89-.11-.04-.24-.07-.36-.08-.26-.02-.51.01-.74.09-.23.08-.44.2-.63.35-.18.15-.34.34-.45.56-.11.2-.17.43-.2.68h0s0,.02,0,.04c-.03.38.05.73.22,1.04.28.52.79.89,1.42.97.52.04,1-.13,1.36-.44.36-.3.6-.74.65-1.24h0s0-.02,0-.04Z"/>
    <path class="st0" d="M56.03,71.47c-.08,1,.64,1.89,1.63,2.01,1.03.09,1.94-.68,2.02-1.71.08-1-.64-1.89-1.63-2.01-1.03-.09-1.94.68-2.02,1.71Z"/>
    <path class="st0" d="M52.91,73.93c-1.03-.09-1.94.68-2.02,1.71-.02.25,0,.49.08.72.18.57.62,1.02,1.19,1.21.11.04.24.07.36.08,1.03.09,1.94-.68,2.02-1.71.08-1-.64-1.89-1.63-2.01Z"/>
    <path class="st0" d="M69.96,63.43c.08-1-.64-1.89-1.63-2.01-1.03-.09-1.94.68-2.02,1.71-.08,1,.64,1.89,1.63,2.01,1.03.09,1.94-.68,2.02-1.71Z"/>
    <path class="st0" d="M63.86,76.91c.03-.38-.05-.73-.22-1.04-.11-.21-.26-.39-.44-.54-.27-.23-.6-.38-.98-.43-.13-.01-.26,0-.38,0-.25.03-.48.11-.69.23-.31.18-.57.44-.74.76-.11.2-.17.43-.2.68h0s0,.02,0,.04c-.03.38.05.73.22,1.04.28.52.79.89,1.42.97.13.01.26,0,.38,0,.25-.03.48-.11.69-.23.31-.18.57-.44.74-.76.11-.2.17-.43.2-.68h0s0-.02,0-.04Z"/>
    <path class="st0" d="M55.52,66.63c.08-1-.64-1.89-1.63-2.01-1.03-.09-1.94.68-2.02,1.71-.08,1,.64,1.89,1.63,2.01,1.03.09,1.94-.68,2.02-1.71Z"/>
    <path class="st0" d="M65.34,72.43c-.08,1,.64,1.89,1.63,2.01,1.03.09,1.94-.68,2.02-1.71.08-1-.64-1.89-1.63-2.01-1.03-.09-1.94.68-2.02,1.71Z"/>
    <path class="st0" d="M72.5,66.55c-1.03-.09-1.94.68-2.02,1.71-.08,1,.64,1.89,1.63,2.01,1.03.09,1.94-.68,2.02-1.71.08-1-.64-1.89-1.63-2.01Z"/>
    <path class="st0" d="M60.65,62.46c.08-1-.64-1.89-1.63-2.01-1.03-.09-1.94.68-2.02,1.71-.08,1,.64,1.89,1.63,2.01,1.03.09,1.94-.68,2.02-1.71Z"/>
    <path class="st0" d="M64.83,67.6c.08-1-.64-1.89-1.63-2.01-1.03-.09-1.94.68-2.02,1.71-.08,1,.64,1.89,1.63,2.01,1.03.09,1.94-.68,2.02-1.71Z"/>
    <path class="st0" d="M71.67,60c.11.21.26.39.44.54.27.23.6.38.98.43.52.04,1-.13,1.36-.44.36-.3.6-.74.65-1.24h0s0-.02,0-.04c.07-.88-.47-1.67-1.27-1.93-.11-.04-.24-.07-.36-.08-.39-.03-.76.06-1.07.23-.21.12-.4.27-.55.46-.23.28-.37.63-.41,1.02-.03.38.05.73.22,1.04Z"/>
    <path class="st0" d="M65.71,57.57c-.18-.56-.62-1.02-1.19-1.21-.11-.04-.24-.07-.36-.08-.13-.01-.26,0-.38,0-.25.03-.48.11-.69.23-.1.06-.2.13-.3.2-.36.3-.6.74-.65,1.24h0s0,.02,0,.04c-.02.25,0,.49.08.72.21.68.81,1.2,1.55,1.29.26.02.51-.01.74-.09.35-.11.65-.33.88-.61.23-.28.37-.63.41-1.02.02-.25,0-.49-.08-.72Z"/>
    <path class="st0" d="M59.99,51.14c-1.03-.09-1.94.68-2.02,1.71-.08,1,.64,1.89,1.63,2.01,1.03.09,1.94-.68,2.02-1.71.08-1-.64-1.89-1.63-2.01Z"/>
    <path class="st0" d="M56.48,57.32c.07-.88-.47-1.67-1.27-1.93-.11-.04-.24-.07-.36-.08-1.03-.09-1.94.68-2.02,1.71-.02.25,0,.49.08.72.18.57.62,1.02,1.19,1.21.11.04.24.07.36.08.52.04,1-.13,1.36-.44.36-.3.6-.74.65-1.24h0s0-.02,0-.04Z"/>
    <path class="st0" d="M65.13,46.96c-1.03-.09-1.94.68-2.02,1.71-.08,1,.64,1.89,1.63,2.01,1.03.09,1.94-.68,2.02-1.71.08-1-.64-1.89-1.63-2.01Z"/>
    <path class="st0" d="M73.39,40.7c.08.72.58,1.33,1.27,1.56.11.04.24.07.36.08.13.01.26,0,.38,0,.85-.1,1.54-.78,1.64-1.67h0s0-.02,0-.04c.07-.88-.47-1.67-1.27-1.93-.11-.04-.24-.07-.36-.08-1.03-.09-1.94.68-2.02,1.71-.01.13,0,.25,0,.37Z"/>
    <path class="st0" d="M62.59,43.84c.07-.85-.44-1.61-1.2-1.9v3.49c.66-.25,1.14-.85,1.2-1.58Z"/>
    <path class="st0" d="M67.28,53.81c-.08,1,.64,1.89,1.63,2.01,1.03.09,1.94-.68,2.02-1.71.08-1-.64-1.89-1.63-2.01-1.03-.09-1.94.68-2.02,1.71Z"/>
    <path class="st0" d="M74.44,47.93c-1.03-.09-1.94.68-2.02,1.71-.08,1,.64,1.89,1.63,2.01,1.03.09,1.94-.68,2.02-1.71.08-1-.64-1.89-1.63-2.01Z"/>
    <path class="st0" d="M71.9,44.81c.08-1-.64-1.89-1.63-2.01-1.03-.09-1.94.68-2.02,1.71-.08,1,.64,1.89,1.63,2.01,1.03.09,1.94-.68,2.02-1.71Z"/>
    <path class="st0" d="M66.01,20.74c-.08,1,.64,1.89,1.63,2.01.52.04,1-.13,1.36-.44.36-.3.6-.74.65-1.24h0s0-.02,0-.04c.07-.88-.47-1.67-1.27-1.93-.11-.04-.24-.07-.36-.08-.39-.03-.76.06-1.07.23-.21.12-.4.27-.55.46-.23.28-.37.63-.41,1.02Z"/>
    <path class="st0" d="M75.32,21.71c-.03.38.05.73.22,1.04.28.52.79.89,1.42.97,1.03.09,1.94-.68,2.02-1.71.03-.38-.05-.73-.22-1.04-.11-.21-.26-.39-.44-.54-.27-.23-.6-.38-.98-.43-.13-.01-.26,0-.38,0-.85.1-1.54.78-1.64,1.67h0s0,.02,0,.04Z"/>
    <path class="st0" d="M61.53,36.24c1.03.09,1.94-.68,2.02-1.71.08-1-.64-1.89-1.63-2.01-.19-.02-.38,0-.56.05v3.64c.07.01.12.03.17.04Z"/>
    <path class="st0" d="M64.07,39.36c-.08,1,.64,1.89,1.63,2.01,1.03.09,1.94-.68,2.02-1.71.02-.25,0-.49-.08-.72-.18-.56-.62-1.02-1.19-1.21-.11-.04-.24-.07-.36-.08-1.03-.09-1.94.68-2.02,1.71Z"/>
    <path class="st0" d="M62.89,23.21c-.61-.05-1.17.2-1.55.63v2.48c.3.33.7.55,1.17.61,1.03.09,1.94-.68,2.02-1.71.08-1-.64-1.89-1.63-2.01Z"/>
    <path class="st0" d="M69.21,35.19c-.08,1,.64,1.89,1.63,2.01,1.03.09,1.94-.68,2.02-1.71.08-1-.64-1.89-1.63-2.01-1.03-.09-1.94.68-2.02,1.71Z"/>
    <path class="st0" d="M73.83,26.19c.08-1-.64-1.89-1.63-2.01-1.03-.09-1.94.68-2.02,1.71-.08,1,.64,1.89,1.63,2.01,1.03.09,1.94-.68,2.02-1.71Z"/>
    <path class="st0" d="M67.06,28.34c-1.03-.09-1.94.68-2.02,1.71-.08,1,.64,1.89,1.63,2.01,1.03.09,1.94-.68,2.02-1.71.08-1-.64-1.89-1.63-2.01Z"/>
    <path class="st0" d="M72.78,18.59c.89.07,1.67-.48,1.93-1.29l-3.43.14c.25.61.8,1.07,1.5,1.16Z"/>
    <path class="st0" d="M41.89,117.05c-.08,1,.64,1.89,1.63,2.01,1.03.09,1.94-.68,2.02-1.71.08-1-.64-1.89-1.63-2.01-1.03-.09-1.94.68-2.02,1.71Z"/>
    <path class="st0" d="M32.58,116.08c-.08,1,.64,1.89,1.63,2.01,1.03.09,1.94-.68,2.02-1.71.08-1-.64-1.89-1.63-2.01-1.03-.09-1.94.68-2.02,1.71Z"/>
    <path class="st0" d="M42.94,124.65c-.86-.07-1.62.45-1.9,1.21h3.42c-.24-.64-.8-1.13-1.52-1.21Z"/>
    <path class="st0" d="M29.46,118.54c-.42-.04-.82.08-1.15.29l2.73,2.02c.02-.1.05-.19.05-.29.08-1-.64-1.89-1.63-2.01Z"/>
    <path class="st0" d="M32.06,111.25c.03-.38-.05-.73-.22-1.04-.11-.21-.26-.39-.44-.54-.27-.23-.6-.38-.98-.43-.13-.01-.26,0-.38,0-.25.03-.48.11-.69.23-.1.06-.2.13-.3.2-.36.3-.6.74-.65,1.24h0s0,.02,0,.04c-.03.38.05.73.22,1.04.28.52.79.89,1.42.97,1.03.09,1.94-.68,2.02-1.71Z"/>
    <path class="st0" d="M47.69,124.2c1.03.09,1.94-.68,2.02-1.71.08-1-.64-1.89-1.63-2.01-1.03-.09-1.94.68-2.02,1.71-.08,1,.64,1.89,1.63,2.01Z"/>
    <path class="st0" d="M38.38,123.23c1.03.09,1.94-.68,2.02-1.71.08-1-.64-1.89-1.63-2.01-1.03-.09-1.94.68-2.02,1.71-.08,1,.64,1.89,1.63,2.01Z"/>
    <path class="st0" d="M40.32,104.61c1.03.09,1.94-.68,2.02-1.71.08-1-.64-1.89-1.63-2.01-1.03-.09-1.94.68-2.02,1.71-.08,1,.64,1.89,1.63,2.01Z"/>
    <path class="st0" d="M35.18,108.78c1.03.09,1.94-.68,2.02-1.71.08-1-.64-1.89-1.63-2.01-1.03-.09-1.94.68-2.02,1.71-.08,1,.64,1.89,1.63,2.01Z"/>
    <path class="st0" d="M34,92.63c.02-.25,0-.49-.08-.72-.18-.56-.62-1.02-1.19-1.21-.11-.04-.24-.07-.36-.08-.52-.04-1,.13-1.36.44-.36.3-.6.74-.65,1.24h0s0,.02,0,.04c-.02.25,0,.49.08.72.07.23.18.43.33.62.15.18.33.34.53.45.21.12.44.2.69.23,1.03.09,1.94-.68,2.02-1.71Z"/>
    <path class="st0" d="M38.17,97.76c.08-1-.64-1.89-1.63-2.01-1.03-.09-1.94.68-2.02,1.71-.08,1,.64,1.89,1.63,2.01,1.03.09,1.94-.68,2.02-1.71Z"/>
    <path class="st0" d="M41.37,112.21c.05-.63-.21-1.21-.66-1.59-.27-.23-.6-.38-.98-.43-.26-.02-.51.01-.74.09-.35.11-.65.33-.88.61-.23.28-.37.63-.41,1.02-.03.38.05.73.22,1.04.11.21.26.39.44.54.27.23.6.38.98.43.77.06,1.48-.35,1.81-1,.11-.2.17-.43.2-.68h0s0-.02,0-.04Z"/>
    <path class="st0" d="M47.48,98.73c.08-1-.64-1.89-1.63-2.01-1.03-.09-1.94.68-2.02,1.71-.08,1,.64,1.89,1.63,2.01,1.03.09,1.94-.68,2.02-1.71Z"/>
    <path class="st0" d="M31.01,103.65c1.03.09,1.94-.68,2.02-1.71.08-1-.64-1.89-1.63-2.01-1.03-.09-1.94.68-2.02,1.71-.08,1,.64,1.89,1.63,2.01Z"/>
    <path class="st0" d="M42.85,107.74c-.08,1,.64,1.89,1.63,2.01,1.03.09,1.94-.68,2.02-1.71.08-1-.64-1.89-1.63-2.01-1.03-.09-1.94.68-2.02,1.71Z"/>
    <path class="st0" d="M39.13,88.45c.08-1-.64-1.89-1.63-2.01-1.03-.09-1.94.68-2.02,1.71-.08,1,.64,1.89,1.63,2.01,1.03.09,1.94-.68,2.02-1.71Z"/>
    <path class="st0" d="M44.79,89.12c-.08,1,.64,1.89,1.63,2.01,1.03.09,1.94-.68,2.02-1.71.08-1-.64-1.89-1.63-2.01-1.03-.09-1.94.68-2.02,1.71Z"/>
    <path class="st0" d="M49.41,80.11c.08-1-.64-1.89-1.63-2.01-1.03-.09-1.94.68-2.02,1.71-.08,1,.64,1.89,1.63,2.01,1.03.09,1.94-.68,2.02-1.71Z"/>
    <path class="st0" d="M38.47,77.13c-1.03-.09-1.94.68-2.02,1.71-.08,1,.64,1.89,1.63,2.01,1.03.09,1.94-.68,2.02-1.71.08-1-.64-1.89-1.63-2.01Z"/>
    <path class="st0" d="M42.25,85.99c1.03.09,1.94-.68,2.02-1.71.08-1-.64-1.89-1.63-2.01-1.03-.09-1.94.68-2.02,1.71-.08,1,.64,1.89,1.63,2.01Z"/>
    <path class="st0" d="M43.31,93.59c.07-.88-.47-1.67-1.27-1.93-.11-.04-.24-.07-.36-.08-1.03-.09-1.94.68-2.02,1.71-.03.38.05.73.22,1.04.11.21.26.39.44.54.27.23.6.38.98.43.13.01.26,0,.38,0,.25-.03.48-.11.69-.23.1-.06.2-.13.3-.2.36-.3.6-.74.65-1.24h0s0-.02,0-.04Z"/>
    <path class="st0" d="M45.24,74.97c.03-.38-.05-.73-.22-1.04-.11-.21-.26-.39-.44-.54-.27-.23-.6-.38-.98-.43-.13-.01-.26,0-.38,0-.25.03-.48.11-.69.23-.31.18-.57.44-.74.76-.11.2-.17.43-.2.68h0s0,.02,0,.04c-.08,1,.64,1.89,1.63,2.01.13.01.26,0,.38,0,.37-.04.71-.2.99-.43.18-.15.34-.34.45-.56.11-.2.17-.43.2-.68h0s0-.02,0-.04Z"/>
    <path class="st0" d="M42.04,60.52c.08-1-.64-1.89-1.63-2.01-1.03-.09-1.94.68-2.02,1.71-.08,1,.64,1.89,1.63,2.01,1.03.09,1.94-.68,2.02-1.71Z"/>
    <path class="st0" d="M46.21,65.66c.08-1-.64-1.89-1.63-2.01-1.03-.09-1.94.68-2.02,1.71-.08,1,.64,1.89,1.63,2.01,1.03.09,1.94-.68,2.02-1.71Z"/>
    <path class="st0" d="M51.35,61.49c.08-1-.64-1.89-1.63-2.01-1.03-.09-1.94.68-2.02,1.71-.08,1,.64,1.89,1.63,2.01,1.03.09,1.94-.68,2.02-1.71Z"/>
    <path class="st0" d="M46.72,70.5c-.08,1,.64,1.89,1.63,2.01,1.03.09,1.94-.68,2.02-1.71.08-1-.64-1.89-1.63-2.01-1.03-.09-1.94.68-2.02,1.71Z"/>
    <path class="st0" d="M37.41,69.53c-.08,1,.64,1.89,1.63,2.01,1.03.09,1.94-.68,2.02-1.71.08-1-.64-1.89-1.63-2.01-1.03-.09-1.94.68-2.02,1.71Z"/>
    <path class="st0" d="M35.85,73.29c-.18-.56-.62-1.02-1.19-1.21-.11-.04-.24-.07-.36-.08-.26-.02-.51.01-.74.09-.35.11-.65.33-.88.61-.23.28-.37.63-.41,1.02-.08,1,.64,1.89,1.63,2.01,1.03.09,1.94-.68,2.02-1.71.02-.25,0-.49-.08-.72Z"/>
    <path class="st0" d="M37.86,55.39c.07-.88-.47-1.67-1.27-1.93-.11-.04-.24-.07-.36-.08-1.03-.09-1.94.68-2.02,1.71-.08,1,.64,1.89,1.63,2.01.13.01.26,0,.38,0,.25-.03.48-.11.69-.23.1-.06.2-.13.3-.2.36-.3.6-.74.65-1.24h0s0-.02,0-.04Z"/>
    <path class="st0" d="M39.35,50.91c-.08,1,.64,1.89,1.63,2.01,1.03.09,1.94-.68,2.02-1.71.08-1-.64-1.89-1.63-2.01-1.03-.09-1.94.68-2.02,1.71Z"/>
    <path class="st0" d="M46.96,55.31c-.17-.31-.42-.57-.73-.74-.21-.12-.44-.2-.69-.23-.26-.02-.51.01-.74.09-.68.22-1.2.83-1.28,1.59h0s0,.02,0,.04c-.03.38.05.73.22,1.04.28.52.79.89,1.42.97.26.02.51-.01.74-.09.35-.11.65-.33.88-.61.23-.28.37-.63.41-1.02.03-.38-.05-.73-.22-1.04Z"/>
    <path class="st0" d="M55.43,49.72c1.03.09,1.94-.68,2.02-1.71.03-.33-.04-.65-.17-.94l-3.36.13c-.06.16-.11.33-.12.51-.08,1,.64,1.89,1.63,2.01Z"/>
    <path class="st0" d="M46.12,48.75c.9.07,1.7-.5,1.95-1.33l-3.47.13c.24.63.8,1.11,1.52,1.2Z"/>
    <path class="st0" d="M48.66,51.88c-.08,1,.64,1.89,1.63,2.01,1.03.09,1.94-.68,2.02-1.71.08-1-.64-1.89-1.63-2.01-1.03-.09-1.94.68-2.02,1.71Z"/>
    <path class="st0" d="M26.92,115.42c.08-1-.64-1.89-1.63-2.01-1.02-.09-1.92.67-2.02,1.69l2.53,1.87c.61-.27,1.06-.84,1.12-1.55Z"/>
    <path class="st0" d="M22.75,110.28c.02-.25,0-.49-.08-.72-.04-.11-.08-.22-.14-.32-.22-.41-.6-.74-1.06-.89-.11-.04-.24-.07-.36-.08-.39-.03-.76.06-1.07.23-.21.12-.4.27-.55.46-.23.28-.37.63-.41,1.02-.02.25,0,.49.08.72.18.57.62,1.02,1.19,1.21.11.04.24.07.36.08.52.04,1-.13,1.36-.44.36-.3.6-.74.65-1.24h0s0-.02,0-.04Z"/>
    <path class="st0" d="M21.7,102.68c1.03.09,1.94-.68,2.02-1.71.08-1-.64-1.89-1.63-2.01-1.03-.09-1.94.68-2.02,1.71-.08,1,.64,1.89,1.63,2.01Z"/>
    <path class="st0" d="M15.89,95.53c-.08,1,.64,1.89,1.63,2.01,1.03.09,1.94-.68,2.02-1.71.08-1-.64-1.89-1.63-2.01-1.03-.09-1.94.68-2.02,1.71Z"/>
    <path class="st0" d="M24.23,105.8c-.08,1,.64,1.89,1.63,2.01,1.03.09,1.94-.68,2.02-1.71.08-1-.64-1.89-1.63-2.01-1.03-.09-1.94.68-2.02,1.71Z"/>
    <path class="st0" d="M18.58,105.14c.08-1-.64-1.89-1.63-2.01-1.03-.09-1.94.68-2.02,1.71-.08,1,.64,1.89,1.63,2.01,1.03.09,1.94-.68,2.02-1.71Z"/>
    <path class="st0" d="M28.86,96.8c.08-1-.64-1.89-1.63-2.01-1.03-.09-1.94.68-2.02,1.71-.08,1,.64,1.89,1.63,2.01,1.03.09,1.94-.68,2.02-1.71Z"/>
    <path class="st0" d="M15.38,90.69c.03-.38-.05-.73-.22-1.04-.11-.21-.26-.39-.44-.54-.02-.02-.05-.03-.07-.05v2.95c.41-.31.68-.78.73-1.32Z"/>
    <path class="st0" d="M26.17,87.18c-.08,1,.64,1.89,1.63,2.01,1.03.09,1.94-.68,2.02-1.71.08-1-.64-1.89-1.63-2.01-1.03-.09-1.94.68-2.02,1.71Z"/>
    <path class="st0" d="M21.48,77.21c.08-1-.64-1.89-1.63-2.01-1.03-.09-1.94.68-2.02,1.71-.08,1,.64,1.89,1.63,2.01,1.03.09,1.94-.68,2.02-1.71Z"/>
    <path class="st0" d="M24.69,91.66c.07-.88-.47-1.67-1.27-1.93-.11-.04-.24-.07-.36-.08-1.03-.09-1.94.68-2.02,1.71-.01.13,0,.25,0,.37.08.72.58,1.33,1.27,1.56.11.04.24.07.36.08.13.01.26,0,.38,0,.25-.03.48-.11.69-.23.1-.06.2-.13.3-.2.36-.3.6-.74.65-1.24h0s0-.02,0-.04Z"/>
    <path class="st0" d="M23.63,84.06c1.03.09,1.94-.68,2.02-1.71.08-1-.64-1.89-1.63-2.01-1.03-.09-1.94.68-2.02,1.71-.08,1,.64,1.89,1.63,2.01Z"/>
    <path class="st0" d="M16.34,81.38c.08-1-.64-1.89-1.63-2.01-.03,0-.06,0-.09,0v3.72c.91-.07,1.64-.78,1.72-1.71Z"/>
    <path class="st0" d="M32.94,85.03c1.03.09,1.94-.68,2.02-1.71.08-1-.64-1.89-1.63-2.01-1.03-.09-1.94.68-2.02,1.71-.08,1,.64,1.89,1.63,2.01Z"/>
    <path class="st0" d="M16.86,86.22c-.08,1,.64,1.89,1.63,2.01,1.03.09,1.94-.68,2.02-1.71.08-1-.64-1.89-1.63-2.01-1.03-.09-1.94.68-2.02,1.71Z"/>
    <path class="st0" d="M30.79,78.18c.08-1-.64-1.89-1.63-2.01-1.03-.09-1.94.68-2.02,1.71-.08,1,.64,1.89,1.63,2.01,1.03.09,1.94-.68,2.02-1.71Z"/>
    <path class="st0" d="M29.74,70.58c1.03.09,1.94-.68,2.02-1.71.08-1-.64-1.89-1.63-2.01-1.03-.09-1.94.68-2.02,1.71-.08,1,.64,1.89,1.63,2.01Z"/>
    <path class="st0" d="M17.31,72.07c.02-.25,0-.49-.08-.72-.04-.11-.08-.22-.14-.32-.22-.41-.6-.74-1.06-.89-.11-.04-.24-.07-.36-.08-.26-.02-.51.01-.74.09-.12.04-.23.09-.34.15v3.26c.21.11.44.19.69.22.52.04,1-.13,1.36-.44.36-.3.6-.74.65-1.24h0s0-.02,0-.04Z"/>
    <path class="st0" d="M27.59,63.73c.08-1-.64-1.89-1.63-2.01-1.03-.09-1.94.68-2.02,1.71-.08,1,.64,1.89,1.63,2.01,1.03.09,1.94-.68,2.02-1.71Z"/>
    <path class="st0" d="M23.42,58.59c.08-1-.64-1.89-1.63-2.01-1.03-.09-1.94.68-2.02,1.71-.08,1,.64,1.89,1.63,2.01,1.03.09,1.94-.68,2.02-1.71Z"/>
    <path class="st0" d="M18.79,67.6c-.08,1,.64,1.89,1.63,2.01,1.03.09,1.94-.68,2.02-1.71.08-1-.64-1.89-1.63-2.01-1.03-.09-1.94.68-2.02,1.71Z"/>
    <path class="st0" d="M28.35,55.13c.11-.2.17-.43.2-.68h0s0-.02,0-.04c.06-.75-.33-1.44-.95-1.79-.21-.12-.44-.2-.69-.23-.52-.04-1,.13-1.36.44-.36.3-.6.74-.65,1.24h0s0,.02,0,.04c-.02.25,0,.49.08.72.04.11.08.22.14.32.17.31.42.57.73.74.21.12.44.2.69.23.77.06,1.48-.35,1.81-1Z"/>
    <path class="st0" d="M34.88,66.41c1.03.09,1.94-.68,2.02-1.71.08-1-.64-1.89-1.63-2.01-1.03-.09-1.94.68-2.02,1.71-.08,1,.64,1.89,1.63,2.01Z"/>
    <path class="st0" d="M26.62,73.04c.03-.38-.05-.73-.22-1.04-.28-.52-.79-.89-1.42-.97-.13-.01-.26,0-.38,0-.25.03-.48.11-.69.23-.1.06-.2.13-.3.2-.36.3-.6.74-.65,1.24h0s0,.02,0,.04c-.02.25,0,.49.08.72.04.11.08.22.14.32.11.21.26.39.44.54.27.23.6.38.98.43.77.06,1.48-.35,1.81-1,.11-.2.17-.43.2-.68h0s0-.02,0-.04Z"/>
    <path class="st0" d="M32.73,59.56c.08-1-.64-1.89-1.63-2.01-1.03-.09-1.94.68-2.02,1.71-.08,1,.64,1.89,1.63,2.01,1.03.09,1.94-.68,2.02-1.71Z"/>
    <path class="st0" d="M19.24,53.45c.07-.88-.47-1.67-1.27-1.93-.11-.04-.24-.07-.36-.08-.77-.06-1.48.35-1.81,1-.11.2-.17.43-.2.68h0s0,.02,0,.04c-.07.88.47,1.67,1.27,1.93.11.04.24.07.36.08.13.01.26,0,.38,0,.25-.03.48-.11.69-.23.1-.06.2-.13.3-.2.36-.3.6-.74.65-1.24h0s0-.02,0-.04Z"/>
    <path class="st0" d="M32.06,48.23c-1.03-.09-1.94.68-2.02,1.71-.08,1,.64,1.89,1.63,2.01,1.03.09,1.94-.68,2.02-1.71.08-1-.64-1.89-1.63-2.01Z"/>
    <path class="st0" d="M22.36,50.99c1.03.09,1.94-.68,2.02-1.71.03-.34-.04-.67-.18-.96l-3.34.13c-.07.17-.12.35-.13.54-.08,1,.64,1.89,1.63,2.01Z"/>
    <path class="st0" d="M16.26,64.47c1.03.09,1.94-.68,2.02-1.71.08-1-.64-1.89-1.63-2.01-1.03-.09-1.94.68-2.02,1.71-.08,1,.64,1.89,1.63,2.01Z"/>
    <path class="st0" d="M14.54,48.68v.78c.22-.22.38-.49.47-.8l-.47.02Z"/>
  </g>
  <path class="st2" d="M144.19,114.12l-1.85-93.03-21.17-16.39-45.91,1.81.07,29.1-46.85,1.76.15,60.06,23.12,17.13,137.52-.36-.08-32.77-22.58-14.67-22.54.06"/>
  <path class="st2" d="M96.86,21.36l.69,31.4-44.08-.19-1.72,61.99,137.52-.36-1.08-31.49-44.98.72-.87-62.34-45.48.27Z"/>
  <path class="st0" d="M116.38,21.41l.03,9.46,10.66-.23.38-9.56-11.07.33ZM116.46,52.91l-.58,6.74,11.37.37-.42-6.84-10.37-.27ZM71.28,53.13l.13,8.15,9.86-.23-.13-8.35-9.86.43ZM162.63,83.48l.02,7.65,10.87-.23.18-7.45-11.07.03ZM116.74,83.4l.02,7.44,10.87.18.18-7.25-11.07-.37ZM71.26,83.92l.02,7.44,10.47-.63.58-6.44-11.07-.37Z"/>
  <path class="st0" d="M49.27,36.56l22.01,16.57,9.86-.43-21.87-16.41-10,.27ZM95.87,6.02l20.51,15.39,10.61-.09-20.83-15.94-10.29.64ZM144.84,66.86l17.79,16.62,10.73-.86-19.5-16.07-9.02.31Z"/>
  <path class="st1" d="M188.55,82.02c-7.25-5.07-14.79-10.47-22.28-15.18l.29.08-18.29.42c-.43.02-.48-.68-.02-.69l18.28-.72c.11,0,.21.02.29.08,5.27,3.8,11.39,7.59,16.86,11.15,1.88,1.23,3.79,2.41,5.69,3.61.35.22.45.68.23,1.04-.23.36-.72.46-1.07.21h.02ZM59.97,113.22l129.3.07-.9.89c.19-6.5.59-15.39.85-21.89l.22-3.65c.06-1.22.16-2.43.28-3.64,0-.19.32-.19.32,0,.18,2.09.11,5.18.19,7.31,0,6.5.02,15.4-.06,21.9,0,.49-.4.88-.88.89,0,0-129.31,1.32-129.31,1.33-1.99,0-2.27-3.11-.02-3.21h0Z"/>
  <path class="st1" d="M143.23,114.13c.08-.02-1.68-94.37-1.19-92.65l-21.17-16.4c1.68.2-36.8,1.31-36.43,1.35-.19,0-.35-.14-.35-.33s.14-.34.33-.35l36.75-1.57c.12,0,.24.04.33.1l21.17,16.4c.59.18,2.28,93.05,2.52,93.4.01.53-.41.97-.94.99-.54.01-.98-.41-.99-.95,0,0,0,0,0,0h-.03Z"/>
  <path class="st1" d="M96.99,111.44l.18-90.22c0-.28.22-.5.5-.5l44.68-.12c.63.03.69.97,0,1l-44.68.12.5-.5.65,90.22c.01,1.13-1.79,1.27-1.82,0h-.01ZM78.01,7.97l18.69,12.02c.23.15.3.46.15.69-.15.23-.46.3-.69.15,0,0,0,0,0,0l-18.47-12.36c-.31-.2,0-.69.32-.49h.01Z"/>
  <path class="st1" d="M74.62,36.96l22.55,14.49c.23.15.3.46.14.69-.15.23-.46.3-.69.15l-22.27-14.91c-.26-.17,0-.6.28-.42h0Z"/>
  <path class="st1" d="M51.25,114.55l1-62c0-.5.42-.9.92-.9.19.19,88.08.43,88.04.99.07.54-87.86.67-88.04.84l.92-.9-1.83,61.98c0,.28-.24.49-.51.48-.27,0-.49-.23-.49-.51v.02ZM32.92,39.74l18.59,11.54c.39.23.53.73.3,1.13-.23.39-.73.53-1.13.3-.03-.01-.05-.03-.08-.05l-18-12.44c-.3-.2,0-.69.32-.49h0Z"/>
  <path class="st1" d="M32.08,68.23l20.54,14.98c-3.06-.53,133.06-.52,132.38-.7.23,0,.42.19.42.42s-.19.42-.42.42c-.81-.2-132.92,1.95-133.53,1.37l-20-15.7c-.21-.16-.26-.47-.1-.68,0,0,.01-.01.02-.02.17-.21.47-.25.69-.1h0Z"/>
</svg>