<?xml version="1.0" encoding="UTF-8"?>
<svg id="_レイヤー_1" xmlns="http://www.w3.org/2000/svg" xmlns:xlink="http://www.w3.org/1999/xlink" version="1.1" viewBox="0 0 200 130">
  <!-- Generator: Adobe Illustrator 30.0.0, SVG Export Plug-In . SVG Version: 2.1.1 Build 123)  -->
  <defs>
    <style>
      .st0, .st1, .st2 {
        fill: none;
      }

      .st3 {
        fill: #ceb372;
      }

      .st4 {
        fill: #1c1917;
      }

      .st1 {
        stroke-linecap: round;
        stroke-linejoin: round;
      }

      .st1, .st2 {
        stroke: #1c1917;
      }

      .st5 {
        fill: #fff;
      }

      .st6 {
        fill: url(#_新規パターンスウォッチ_1);
      }

      .st2 {
        stroke-miterlimit: 10;
      }
    </style>
    <pattern id="_新規パターンスウォッチ_1" data-name="新規パターンスウォッチ 1" x="0" y="0" width="48" height="48" patternTransform="translate(-5266.61 -4588.49) rotate(5.93) scale(.39)" patternUnits="userSpaceOnUse" viewBox="0 0 48 48">
      <g>
        <rect class="st0" width="48" height="48"/>
        <g>
          <path class="st3" d="M24,52.8c2.65,0,4.8-2.15,4.8-4.8s-2.15-4.8-4.8-4.8-4.8,2.15-4.8,4.8,2.15,4.8,4.8,4.8Z"/>
          <path class="st3" d="M48,52.8c2.65,0,4.8-2.15,4.8-4.8s-2.15-4.8-4.8-4.8-4.8,2.15-4.8,4.8,2.15,4.8,4.8,4.8Z"/>
          <path class="st3" d="M24,28.8c2.65,0,4.8-2.15,4.8-4.8s-2.15-4.8-4.8-4.8-4.8,2.15-4.8,4.8,2.15,4.8,4.8,4.8Z"/>
          <path class="st3" d="M48,28.8c2.65,0,4.8-2.15,4.8-4.8s-2.15-4.8-4.8-4.8-4.8,2.15-4.8,4.8,2.15,4.8,4.8,4.8Z"/>
          <path class="st3" d="M36,40.8c2.65,0,4.8-2.15,4.8-4.8s-2.15-4.8-4.8-4.8-4.8,2.15-4.8,4.8,2.15,4.8,4.8,4.8Z"/>
          <path class="st3" d="M12,40.8c2.65,0,4.8-2.15,4.8-4.8s-2.15-4.8-4.8-4.8-4.8,2.15-4.8,4.8,2.15,4.8,4.8,4.8Z"/>
          <path class="st3" d="M36,16.8c2.65,0,4.8-2.15,4.8-4.8s-2.15-4.8-4.8-4.8-4.8,2.15-4.8,4.8,2.15,4.8,4.8,4.8Z"/>
          <path class="st3" d="M12,16.8c2.65,0,4.8-2.15,4.8-4.8s-2.15-4.8-4.8-4.8-4.8,2.15-4.8,4.8,2.15,4.8,4.8,4.8Z"/>
        </g>
        <g>
          <path class="st3" d="M0,52.8c2.65,0,4.8-2.15,4.8-4.8s-2.15-4.8-4.8-4.8-4.8,2.15-4.8,4.8,2.15,4.8,4.8,4.8Z"/>
          <path class="st3" d="M0,28.8c2.65,0,4.8-2.15,4.8-4.8s-2.15-4.8-4.8-4.8-4.8,2.15-4.8,4.8,2.15,4.8,4.8,4.8Z"/>
        </g>
        <g>
          <path class="st3" d="M24,4.8c2.65,0,4.8-2.15,4.8-4.8s-2.15-4.8-4.8-4.8-4.8,2.15-4.8,4.8,2.15,4.8,4.8,4.8Z"/>
          <path class="st3" d="M48,4.8c2.65,0,4.8-2.15,4.8-4.8s-2.15-4.8-4.8-4.8-4.8,2.15-4.8,4.8,2.15,4.8,4.8,4.8Z"/>
        </g>
        <path class="st3" d="M0,4.8c2.65,0,4.8-2.15,4.8-4.8S2.65-4.8,0-4.8-4.8-2.65-4.8,0-2.65,4.8,0,4.8Z"/>
      </g>
    </pattern>
  </defs>
  <polyline class="st6" points="130.26 125.43 128.41 32.41 107.23 16.01 61.32 17.82 61.4 46.92 14.54 48.68 14.7 108.75 37.82 125.87 175.34 125.51 175.25 92.74 152.68 78.08 130.14 78.13"/>
  <polyline class="st5" points="144.19 114.12 142.34 21.09 121.17 4.7 75.26 6.51 75.33 35.61 28.48 37.37 28.63 97.43 51.75 114.56 189.27 114.2 189.19 81.43 166.61 66.76 144.07 66.82"/>
  <polygon class="st5" points="96.86 21.36 97.55 52.76 53.47 52.57 51.75 114.56 189.27 114.2 188.19 82.71 143.21 83.43 142.34 21.09 96.86 21.36"/>
  <polygon class="st3" points="116.38 21.41 116.41 30.87 127.07 30.64 127.45 21.08 116.38 21.41"/>
  <polygon class="st3" points="116.46 52.91 115.88 59.65 127.25 60.02 126.83 53.18 116.46 52.91"/>
  <polygon class="st3" points="71.28 53.13 71.41 61.28 81.27 61.05 81.14 52.7 71.28 53.13"/>
  <polygon class="st3" points="162.63 83.48 162.65 91.13 173.52 90.9 173.7 83.45 162.63 83.48"/>
  <polygon class="st3" points="116.74 83.4 116.76 90.84 127.63 91.02 127.81 83.77 116.74 83.4"/>
  <polygon class="st3" points="71.26 83.92 71.28 91.36 81.75 90.73 82.33 84.29 71.26 83.92"/>
  <polygon class="st3" points="49.27 36.56 71.28 53.13 81.14 52.7 59.27 36.29 49.27 36.56"/>
  <polygon class="st3" points="95.87 6.02 116.38 21.41 126.99 21.32 106.16 5.38 95.87 6.02"/>
  <polygon class="st3" points="144.84 66.86 162.63 83.48 173.36 82.62 153.8 66.35 144.84 66.86"/>
  <path class="st4" d="M188.57,81.99c-7.24-4.95-14.79-10.19-22.24-14.8,0,0,.28.08.28.08l-18.57.04c-.19,0-.22-.32,0-.32,0,0,18.55-.72,18.55-.72.1,0,.2.02.28.08,5.27,3.69,11.35,7.43,16.8,10.92,1.87,1.2,3.78,2.36,5.67,3.54.79.5.02,1.73-.78,1.19h0Z"/>
  <path class="st4" d="M59.97,113.62l129.3.07-.5.49c.03-2.43.02-4.87.1-7.3.08-3.64.28-10.96.36-14.6.1-2.43.19-4.86.49-7.29.01-.09.09-.15.18-.14.08,0,.14.07.14.15.2,2.44.19,4.87.19,7.31,0,0-.12,7.3-.12,7.3-.13,4.3-.12,10.36-.33,14.6,0,.27-.23.49-.5.49l-129.3,1.33c-.66,0-1.21-.53-1.21-1.19,0-.67.53-1.21,1.2-1.21h0Z"/>
  <path class="st4" d="M143.69,114.13c.12.12-2.18-94.45-1.66-92.64,0,0-21.17-16.4-21.17-16.4,0,0,.33.1.33.1-.14-.05-36.93,1.26-36.91.91,0-.08.06-.14.13-.15l36.74-1.77c.12,0,.24.04.33.1,0,0,21.17,16.4,21.17,16.4.6.19,1.81,93.05,2.05,93.41,0,.28-.21.5-.49.51-.28,0-.5-.21-.51-.49h0Z"/>
  <polyline class="st2" points="97.91 114.44 97.66 21.21 142.34 21.09"/>
  <path class="st4" d="M78,7.97l19.93,12.82c.23.15.3.46.15.69-.15.24-.47.3-.7.15,0,0-19.7-13.18-19.7-13.18-.3-.19,0-.68.31-.47h0Z"/>
  <path class="st4" d="M74.98,35.87l22.55,14.49c.23.15.3.46.15.69-.15.24-.47.3-.7.15,0,0-22.27-14.91-22.27-14.91-.26-.17,0-.6.28-.42h0Z"/>
  <polyline class="st1" points="51.75 114.56 53.17 52.57 141.02 52.64"/>
  <path class="st4" d="M32.92,39.74l18.41,11.81c.55.35,0,1.2-.55.84,0,0-18.18-12.16-18.18-12.16-.31-.2,0-.7.32-.49h0Z"/>
  <path class="st0" d="M188.19,82.91"/>
  <path class="st4" d="M32.08,68.23l20.54,14.98c-3.06-.54,133.07-.28,132.38-.45.1,0,.18.08.18.18,0,.1-.08.17-.17.18-.81-.2-132.92,2.2-133.53,1.62,0,0-20-15.7-20-15.7-.22-.17-.26-.48-.08-.7.17-.21.47-.25.69-.1h0Z"/>
</svg>