<svg xmlns="http://www.w3.org/2000/svg" id="_レイヤー_1" viewBox="0 0 200 130"><defs><pattern id="_新規パターンスウォッチ_1" width="48" height="48" x="0" y="0" data-name="新規パターンスウォッチ 1" patternTransform="rotate(5.93 41661.196 -53134.905)scale(.39)" patternUnits="userSpaceOnUse" viewBox="0 0 48 48"><path d="M0 0h48v48H0z" class="st0"/><path d="M24 52.8a4.801 4.801 0 0 0 0-9.6 4.801 4.801 0 0 0 0 9.6M48 52.8a4.801 4.801 0 0 0 0-9.6 4.801 4.801 0 0 0 0 9.6M24 28.8a4.801 4.801 0 0 0 0-9.6 4.801 4.801 0 0 0 0 9.6M48 28.8a4.801 4.801 0 0 0 0-9.6 4.801 4.801 0 0 0 0 9.6M36 40.8a4.801 4.801 0 0 0 0-9.6 4.801 4.801 0 0 0 0 9.6M12 40.8a4.801 4.801 0 0 0 0-9.6 4.801 4.801 0 0 0 0 9.6M36 16.8a4.801 4.801 0 0 0 0-9.6 4.801 4.801 0 0 0 0 9.6M12 16.8a4.801 4.801 0 0 0 0-9.6 4.801 4.801 0 0 0 0 9.6M0 52.8a4.801 4.801 0 0 0 0-9.6 4.801 4.801 0 0 0 0 9.6M0 28.8a4.801 4.801 0 0 0 0-9.6 4.801 4.801 0 0 0 0 9.6M24 4.8a4.801 4.801 0 0 0 0-9.6 4.801 4.801 0 0 0 0 9.6M48 4.8a4.801 4.801 0 0 0 0-9.6 4.801 4.801 0 0 0 0 9.6M0 4.8a4.801 4.801 0 0 0 0-9.6 4.801 4.801 0 0 0 0 9.6" class="st1"/></pattern><style>.st0{fill:none}.st1{fill:#ceb372}.st2{fill:#1c1917}.st3{fill:#fff}</style></defs><path d="m130.26 125.43-1.85-93.02-21.18-16.4-45.91 1.81.08 29.1-46.86 1.76.16 60.07 23.12 17.12 137.52-.36-.09-32.77-22.57-14.66-22.54.05" style="fill:url(#_新規パターンスウォッチ_1)"/><path d="m144.19 114.12-1.85-93.03L121.17 4.7 75.26 6.51l.07 29.1-46.85 1.76.15 60.06 23.12 17.13 137.52-.36-.08-32.77-22.58-14.67-22.54.06" class="st3"/><path d="m96.86 21.36.69 31.4-44.08-.19-1.72 61.99 137.52-.36-1.08-31.49-44.98.72-.87-62.34z" class="st3"/><path d="m116.38 21.41.03 9.46 10.66-.23.38-9.56zM116.46 52.91l-.58 6.74 11.37.37-.42-6.84zM71.28 53.13l.13 8.15 9.86-.23-.13-8.35zM162.63 83.48l.02 7.65 10.87-.23.18-7.45zM116.74 83.4l.02 7.44 10.87.18.18-7.25zM71.26 83.92l.02 7.44 10.47-.63.58-6.44z" class="st1"/><path d="m49.27 36.56 22.01 16.57 9.86-.43-21.87-16.41zM95.87 6.02l20.51 15.39 10.61-.09-20.83-15.94zM144.84 66.86l17.79 16.62 10.73-.86-19.5-16.07z" class="st1"/><path d="M188.55 82.02c-7.25-5.07-14.79-10.47-22.28-15.18l.29.08-18.29.42c-.43.02-.48-.68-.02-.69l18.28-.72c.11 0 .21.02.29.08 5.27 3.8 11.39 7.59 16.86 11.15 1.88 1.23 3.79 2.41 5.69 3.61.35.22.45.68.23 1.04-.23.36-.72.46-1.07.21ZM59.97 113.22l129.3.07-.9.89c.19-6.5.59-15.39.85-21.89l.22-3.65c.06-1.22.16-2.43.28-3.64 0-.19.32-.19.32 0 .18 2.09.11 5.18.19 7.31 0 6.5.02 15.4-.06 21.9 0 .49-.4.88-.88.89 0 0-129.31 1.32-129.31 1.33-1.99 0-2.27-3.11-.02-3.21Z" class="st2"/><path d="M143.23 114.13c.08-.02-1.68-94.37-1.19-92.65l-21.17-16.4c1.68.2-36.8 1.31-36.43 1.35-.19 0-.35-.14-.35-.33s.14-.34.33-.35l36.75-1.57c.12 0 .24.04.33.1l21.17 16.4c.59.18 2.28 93.05 2.52 93.4a.97.97 0 0 1-.94.99.97.97 0 0 1-.99-.95Z" class="st2"/><path d="m96.99 111.44.18-90.22c0-.28.22-.5.5-.5l44.68-.12c.63.03.69.97 0 1l-44.68.12.5-.5.65 90.22c.01 1.13-1.79 1.27-1.82 0ZM78.01 7.97 96.7 19.99c.23.15.3.46.15.69a.5.5 0 0 1-.7.14L77.68 8.46c-.31-.2 0-.69.32-.49Z" class="st2"/><path d="m74.62 36.96 22.55 14.49a.5.5 0 1 1-.55.84L74.35 37.38c-.26-.17 0-.6.28-.42Z" class="st2"/><path d="m51.25 114.55 1-62c0-.5.42-.9.92-.9.19.19 88.08.43 88.04.99.07.54-87.86.67-88.04.84l.92-.9-1.83 61.98c0 .28-.24.49-.51.48-.27 0-.49-.23-.49-.51ZM32.92 39.74l18.59 11.54a.825.825 0 1 1-.9 1.38l-18-12.44c-.3-.2 0-.69.32-.49Z" class="st2"/><path d="m32.08 68.23 20.54 14.98c-3.06-.53 133.06-.52 132.38-.7.23 0 .42.19.42.42s-.19.42-.42.42c-.81-.2-132.92 1.95-133.53 1.37l-20-15.7a.486.486 0 0 1-.08-.7c.17-.21.47-.25.69-.1Z" class="st2"/></svg>