<?xml version="1.0" encoding="UTF-8"?>
<svg id="_レイヤー_1" xmlns="http://www.w3.org/2000/svg" version="1.1" viewBox="0 0 100 100">
  <!-- Generator: Adobe Illustrator 30.0.0, SVG Export Plug-In . SVG Version: 2.1.1 Build 123)  -->
  <defs>
    <style>
      .st0 {
        fill: #1c1917;
      }

      .st1 {
        fill: #fff;
      }
    </style>
  </defs>
  <g>
    <path class="st1" d="M23.01,38.19c.38-2.48-.43-2.97,0-6.66.22-1.91,1.07-9.18,4.04-9.89,3.46-.83,9.89,3.63,14.53,10.09,1.24,1.72,3.73,1.01,3.73,1.01,2.62-.2,4.07-.66,6.76-.81,3.97-.22,5.65.81,7.67.81,1.72-1.34,2.58-2.59,6.05-6.46,2.47-2.75,5.83-6.48,8.07-5.85,2.37.67,4.72,9.62,4.14,13.75-.12.86.14,1.72.67,2.4,2.15,2.77,7.27,9.87,9.52,17.15,1.14,3.7,2.71,8.76.81,13.52-2.62,6.57-10.37,8.9-18.77,11.3,0,0-23.03,6.58-47.63-2.83-2.94-1.12-6.17-2.59-8.48-5.85-3.6-5.08-3.95-13.12-.81-18.97,3.32-6.19,6.66-8.28,9.69-12.72Z"/>
    <g>
      <path class="st1" d="M22.78,27.32c-.09.38.27.37.19.74-.08.37-.42.54-.48.92-.06.38.07.4.01.78-.06.38-.36.35-.41.73-.05.38.2.5.15.88-.04.39.58.33.54.71-.03.38-.7.38-.72.78-.02.4.17.5.17.89.01.39-.46.27-.44.68.03.41.46.38.5.76.04.38,0,.39.03.75.04.36-.29.4-.27.73,0,.32.49.38.47.73-.03.38-.48.41-.48.41l1.92.74s-.09-.85-.08-1.18c.02-.41.27-.41.26-.84-.02-.42-.3-.4-.34-.79-.04-.38.29-.42.25-.78-.03-.35-.6-.19-.63-.55-.02-.36.17-.48.17-.83,0-.35.16-.31.17-.66.02-.35-.22-.41-.19-.78.04-.37.46-.32.5-.69.04-.37-.39-.41-.34-.78.05-.37.19-.35.25-.71.06-.36.24-.34.3-.7.06-.36-.45-.41-.38-.78.07-.36.48-.32.55-.68.08-.35-.11-.4-.03-.75.09-.35.44-.35.51-.61l-1.92-.54c-.08.28.19.32.09.69-.1.38-.24.34-.33.72Z"/>
      <path class="st1" d="M32.29,21.95c-.36-.18-.43.17-.79,0-.34-.18-.45-.53-.83-.69-.38-.15-.43,0-.82-.13-.39-.12-.32-.42-.76-.49-.43-.08-.56.16-1,.15-.44,0-.29.58-.67.64-.19.03-.33-.12-.49-.27-.16-.12-.35-.23-.6-.13-.25.09-.34.23-.44.35-.09.13-.2.24-.36.39-.3.32-.54-.12-.85.24-.26.37.08.62-.13.97-.19.36-.26.33-.43.7-.16.37-.48.26-.63.64-.14.38.29.6.17.96-.11.37-.64.6-.64.62l1.92.54s-.06-.5.04-.84c.12-.33.36-.25.48-.57.13-.32-.12-.42.02-.74.15-.31.45-.14.6-.42.16-.26-.36-.49-.17-.77.21-.26.43-.2.64-.39.23-.14.28-.06.49-.12.11-.04.14-.13.19-.21.07-.07.14-.14.3-.16.31-.06.34.41.62.41.29,0,.34-.4.68-.35.34.05.3.2.63.3.33.1.27.26.59.4.32.13.48-.36.82-.22.33.16.18.54.5.7.32.15.4,0,.72.18.31.18.22.5.44.66l1.07-1.69c-.25-.16-.36.09-.69-.11-.34-.19-.26-.33-.61-.52Z"/>
      <path class="st1" d="M41.56,30.22c-.23-.31-.45-.03-.69-.33-.24-.3-.14-.67-.39-.97-.25-.29-.36-.2-.61-.49-.25-.29-.03-.5-.29-.79-.27-.28-.52-.17-.79-.45-.27-.28-.62.23-.88-.04-.27-.26.16-.78-.12-1.04-.28-.27-.47-.2-.76-.45-.29-.25.12-.51-.17-.77-.29-.26-.58.07-.88-.17-.3-.24-.27-.29-.57-.53-.3-.24-.13-.5-.44-.74-.32-.23-.63.12-.96-.09-.32-.21-.39-.77-.41-.79l-1.07,1.69s.5.08.8.28c.3.21.15.42.44.63.29.22.46-.01.75.22.28.23.07.49.35.71.28.23.57-.29.84-.04.28.24.23.47.5.71.27.24.13.33.4.58.26.25.46.11.73.37.26.26-.04.57.21.83.25.26.57-.04.82.23.24.28.14.37.38.65.24.28.1.4.34.68.23.28.6-.07.83.22.23.29-.06.57.17.86.22.29.37.18.6.47.11.15.11.29.11.42-.01.13-.03.25.11.41l1.55-1.27c-.11-.12-.34-.01-.56-.3-.23-.31-.1-.4-.34-.71Z"/>
      <path class="st1" d="M52.02,31.05c-.39.03-.28.36-.66.39-.38.03-.64-.26-1.02-.21-.39.04-.37.18-.75.23-.38.05-.43-.25-.81-.19-.38.06-.42.33-.8.38-.37.06-.16.64-.54.7-.37.05-.51-.6-.88-.56-.36.04-.43.24-.8.27-.3.03-.25-.26-.5-.36-.04-.02-.09-.03-.16-.02-.03,0-.08,0-.13.01-.3.06-.23.49-.57.52-.32.01-.33-.04-.64-.06-.31-.04-.26-.36-.5-.43-.22-.08-.46.35-.72.18-.27-.18-.1-.67-.1-.67l-1.55,1.27s.58.38,1,.61c.42.23.32.46.8.63.48.12.53-.15.97-.1.44.03.43.36.89.34.46-.04.25-.6.65-.67.08-.02.12-.02.16-.02.03,0,.05.01.08.02.16.04.34.13.59.1.38-.04.35.12.74.07.38-.05.39-.29.77-.35.38-.05.45.37.82.31.37-.06.3-.49.67-.54.37-.05.39.09.75.04.37-.05.39.14.75.1.36-.04.27-.54.64-.58.37-.03.44.37.8.35.36-.02.35-.21.72-.22.36,0,.45.33.72.33l.03-2c-.3,0-.26.26-.65.26-.39.01-.39-.14-.79-.13Z"/>
      <path class="st1" d="M62.16,29.05c-.25.28.06.44-.19.73-.25.28-.62.24-.87.51-.25.27-.15.36-.4.62-.26.26-.48.04-.73.28-.28.25-.12.46-.3.61-.19.11.14.79-.21.77-.18,0-.29-.19-.37-.36-.1-.18-.09-.35-.28-.37-.34-.05-.46.11-.82.04-.37-.08-.13-.5-.51-.58-.37-.08-.47.35-.85.27-.38-.07-.37-.12-.76-.19-.39-.05-.36-.39-.76-.43-.4-.04-.5.44-.88.41-.38-.02-.74-.46-.77-.46l-.03,2s.47-.2.82-.17c.36.02.33.27.68.31.35.04.39-.23.75-.18.36.06.29.38.64.45.35.07.36-.51.72-.44.37.08.44.3.82.37.38.07.31.22.71.28.47.06.58-.18,1.05-.15.12,0,.22.03.32.08.09.03.15.01.23.03.15.02.31.03.53-.15.46-.38.13-.68.42-.95.28-.27.38-.17.66-.44.27-.28.41-.15.67-.43.26-.29-.14-.6.11-.88.25-.28.58-.04.83-.33.25-.28.1-.41.35-.69.25-.28.56-.13.75-.34l-1.51-1.32c-.19.21.04.36-.21.64-.25.29-.36.18-.61.46Z"/>
      <path class="st1" d="M70.88,20.29c-.35.23-.1.45-.42.68-.32.23-.69.13-1,.38-.31.25-.21.36-.51.62-.29.26-.5.04-.79.31-.28.27-.16.52-.44.79-.27.28.25.62-.01.89-.26.27-.78-.15-1.04.13-.26.28-.18.47-.44.75-.25.28-.51-.13-.76.15-.25.28.07.58-.19.86-.25.28-.29.25-.54.53-.25.28-.51.08-.76.36-.25.28.08.64-.17.93-.25.28-.8.26-.82.28l1.51,1.32s.16-.5.41-.78c.25-.28.43-.12.68-.39.25-.28.04-.47.29-.75.25-.28.49-.05.74-.33.25-.28-.25-.58,0-.86.25-.28.48-.23.73-.51.25-.27.33-.14.59-.41.25-.27.11-.47.36-.73.26-.26.57.03.83-.23.26-.25-.05-.56.21-.82.27-.25.36-.15.63-.39.27-.23.39-.1.67-.32.27-.22-.07-.61.22-.82.3-.21.55.09.84-.08.28-.18.19-.34.49-.5.3-.14.5.15.68.09l-.54-1.92c-.35.1-.2.35-.62.5-.37.2-.46.04-.82.26Z"/>
      <path class="st1" d="M78.57,28.64c-.07-.38-.39-.24-.46-.61-.08-.37.17-.66.08-1.04-.09-.38-.23-.34-.33-.72-.1-.37.2-.47.08-.84-.12-.37-.39-.39-.51-.76-.13-.37-.67-.05-.8-.41-.12-.36.47-.65.32-1.01-.15-.36-.35-.38-.53-.73-.18-.35.3-.44.11-.81-.22-.37-.6-.15-.81-.49-.27-.34-.21-.37-.5-.71-.36-.29-.17-.68-.7-.9-.18-.08-.32-.1-.44-.07-.27.11-.44.26-.75.26-.47-.01-.99-.29-1.03-.29l.54,1.92s.28-.29.5-.28c.12.02.16.1.2.17.03.07.05.14.12.18.17.08.27-.13.5.05.2.25-.07.45.11.68.17.28.6-.11.78.19.18.31.04.51.2.82.15.32-.01.35.13.68.14.33.38.28.5.62.12.35-.27.49-.16.83.11.34.52.2.63.56.11.35-.04.39.06.74.09.35-.09.4,0,.75.08.35.57.21.65.57.08.36-.32.48-.25.84.06.36.26.32.32.69.05.36-.27.5-.23.77l1.98-.26c-.04-.29-.3-.22-.35-.6-.05-.38.09-.4.02-.79Z"/>
      <path class="st1" d="M81.85,39.44c-.22-.31-.45-.05-.66-.37-.22-.31-.1-.67-.32-.98-.22-.31-.33-.23-.56-.54-.22-.31.01-.5-.21-.8-.23-.31-.49-.22-.72-.52-.21-.29-.63.19-.83-.13-.17-.33.43-.63.35-.88-.06-.26-.26-.31-.27-.61,0-.15.12-.19.24-.22.12-.02.24-.04.26-.27.03-.42-.38-.47-.37-.86,0-.4.06-.39.06-.79-.01-.39.31-.42.29-.82-.02-.4-.51-.41-.55-.8-.03-.38.35-.79.34-.82l-1.98.26s.26.44.3.8c.04.36-.21.38-.19.73.02.35.3.35.31.7,0,.36-.34.35-.34.69-.02.33.56.27.53.62-.02.32-.28.5-.25.96.04.46-.12.43,0,.9.15.46.39.41.6.81.21.36-.07.67.15.95.22.29.57.02.79.32.22.3.11.38.33.68.22.3.07.41.28.71.21.3.61-.02.82.28.22.3-.1.57.11.87.21.31.37.2.58.5.21.31-.02.57.13.81l1.67-1.1c-.16-.24-.36-.06-.57-.38-.21-.32-.08-.4-.3-.71Z"/>
      <path class="st1" d="M87.84,50.17c-.15-.36-.43-.14-.58-.5-.15-.35.03-.68-.12-1.03-.16-.35-.28-.29-.44-.64-.17-.34.1-.49-.07-.83-.17-.34-.44-.31-.62-.65-.18-.34-.67.05-.84-.28-.18-.33.39-.7.2-1.03-.19-.33-.39-.32-.58-.65-.19-.33.28-.44.09-.77-.19-.33-.57-.11-.77-.44-.19-.33-.15-.35-.35-.68-.2-.32.07-.51-.13-.84-.21-.32-.64-.11-.85-.43-.2-.32-.04-.85-.05-.87l-1.67,1.1s.44.29.64.6c.2.31,0,.44.19.76.19.32.43.17.63.49.19.32-.09.48.1.8.19.32.63-.07.81.25.19.32.08.52.26.84.18.32.03.36.21.68.18.32.41.25.58.58.17.33-.2.53-.03.86.17.33.55.12.72.46.17.33.04.4.2.73.16.34-.02.42.14.75.15.33.6.09.76.43.15.34-.21.54-.07.88.14.34.33.26.46.61.13.35-.15.55-.05.81l1.87-.7c-.1-.27-.33-.14-.47-.5-.14-.36,0-.41-.15-.77Z"/>
      <path class="st1" d="M90.78,62.22c0-.4-.34-.3-.36-.69-.02-.39.28-.64.23-1.03-.04-.39-.17-.38-.23-.76-.06-.38.25-.44.18-.83-.07-.39-.34-.43-.42-.81-.08-.38-.66-.13-.74-.5-.09-.37.55-.58.45-.95-.1-.37-.3-.41-.4-.78-.1-.37.38-.36.27-.73-.11-.37-.53-.25-.64-.61-.11-.36-.06-.38-.17-.74-.11-.36.19-.48.07-.85-.12-.37-.6-.27-.72-.63-.12-.36.14-.84.14-.86l-1.87.7s.37.37.48.72c.12.35-.12.43,0,.77.11.35.38.26.49.62.11.36-.21.45-.1.8.11.35.63.08.73.44.1.36-.05.52.04.88.09.36-.06.35.03.71.09.36.34.34.42.7.08.36-.34.46-.26.81.07.35.49.26.56.62.06.36-.09.38-.03.74.06.36-.14.38-.1.74.04.35.54.28.56.64.02.37-.37.42-.38.77,0,.35.2.36.19.72-.02.36-.36.43-.38.69l1.99.16c.02-.3-.25-.28-.23-.68.03-.4.16-.39.17-.79Z"/>
      <path class="st1" d="M85.24,73.37c.32-.24.05-.45.35-.69.29-.26.67-.18.97-.44.3-.26.19-.38.47-.66.27-.29.51-.09.78-.39.25-.32.11-.56.35-.88.24-.32-.32-.56-.12-.89.2-.32.8-.02,1.01-.37.22-.34.06-.53.24-.88.17-.36.53-.04.7-.42.15-.38-.26-.55-.13-.92.14-.37.17-.36.28-.75.1-.38.43-.33.51-.73.07-.4-.37-.54-.33-.92.04-.38.52-.71.52-.74l-1.99-.16s.15.47.11.82c-.05.35-.31.3-.37.64-.06.34.19.4.11.74-.09.34-.4.24-.52.56-.11.32.46.42.34.76-.15.33-.38.35-.53.66-.15.32-.25.22-.44.51-.18.3,0,.46-.18.76-.18.31-.56.05-.76.33-.21.27.14.54-.08.82-.25.26-.35.16-.6.42-.25.25-.36.13-.63.36-.26.23.1.59-.17.83-.27.25-.56-.06-.85.15-.29.21-.17.37-.46.58-.3.21-.57-.04-.79.11l1.08,1.69c.25-.16.07-.36.4-.57.32-.23.4-.1.72-.34Z"/>
      <path class="st1" d="M73.94,78.4c.36-.11.18-.41.55-.52.36-.11.67.12,1.03,0,.36-.12.32-.25.68-.36.36-.12.47.17.83.04.36-.13.36-.4.72-.53.36-.13.04-.66.39-.8.35-.14.64.47,1,.33.36-.14.37-.35.72-.5.35-.15.41.33.77.18.36-.15.18-.55.53-.72.35-.17.37-.12.72-.29.35-.16.51.1.86-.08.35-.19.16-.64.49-.82.33-.2.86-.03.88-.05l-1.08-1.69s-.27.43-.59.61c-.32.18-.44-.04-.75.13-.32.17-.18.43-.52.58-.33.16-.47-.14-.79.01-.33.16.02.64-.32.78-.34.15-.53,0-.86.15-.34.15-.36-.01-.7.12-.34.13-.3.37-.64.51-.35.14-.5-.27-.85-.14-.35.12-.19.53-.55.66-.35.12-.4-.01-.75.1-.35.12-.41-.06-.77.05-.35.12-.16.59-.52.7-.36.11-.51-.27-.87-.16-.36.11-.3.3-.66.4-.36.11-.54-.19-.81-.11l.56,1.92c.27-.08.16-.32.53-.43.36-.11.4.04.77-.07Z"/>
      <path class="st1" d="M61.96,81c.38-.05.25-.38.63-.43.38-.05.64.22,1.02.17.38-.05.36-.18.73-.24.37-.06.43.24.81.17.38-.06.42-.33.8-.4.38-.07.15-.64.52-.71.37-.07.55.57.92.5.37-.08.43-.27.8-.35.37-.08.34.4.71.31.38-.09.28-.51.65-.6.19-.05.28-.06.38-.07.08,0,.25-.03.27-.05.01,0,.02-.01.03-.01l.2-.03c.28-.02.4.21.72.12.36-.1.28-.58.64-.69.36-.1.82.21.84.2l-.56-1.92s-.4.34-.77.44c-.36.1-.43-.14-.79-.03-.3.09-.3.29-.51.41l.22-.03c-.07.02-.16.04-.26.07-.08.02-.15.03-.21.04-.04,0-.07,0-.1-.01-.06-.02-.12-.05-.17-.08-.11-.06-.21-.12-.39-.07-.35.09-.12.62-.48.7-.36.08-.52-.09-.88,0-.36.07-.35-.09-.71-.01-.36.07-.36.32-.72.39-.37.07-.45-.35-.82-.29-.36.06-.28.49-.65.55-.37.06-.39-.08-.76-.02-.37.05-.4-.13-.76-.08-.37.05-.26.55-.63.6-.37.05-.46-.35-.83-.3-.37.05-.34.24-.72.28-.37.04-.5-.29-.78-.26l.22,1.99c.28-.03.22-.29.6-.33.38-.04.39.12.77.07Z"/>
      <path class="st1" d="M49.73,81.66c.38,0,.3-.34.68-.33.38,0,.6.31.98.32.38,0,.38-.13.76-.13.38,0,.39.3.78.28.38-.01.47-.28.84-.29.38-.01.24-.62.62-.63.38-.01.46.65.84.64.38-.01.46-.2.84-.23.38-.03.27.45.65.42.38-.03.36-.46.74-.49.38-.03.38.03.76,0,.38-.03.43.3.81.26.38-.04.39-.53.76-.57.38-.04.77.35.8.35l-.22-1.99s-.46.26-.83.3c-.37.04-.39-.21-.76-.17-.37.03-.35.3-.72.33-.37.03-.39-.31-.76-.28-.37.03-.22.59-.59.62-.37.03-.5-.16-.87-.14-.37.03-.34-.14-.71-.12-.37.01-.4.25-.78.27-.37.01-.4-.41-.77-.4-.37.01-.35.45-.72.46-.37.01-.38-.13-.75-.12-.37,0-.37-.19-.75-.2-.37,0-.33.51-.71.5-.37,0-.41-.41-.78-.41-.37,0-.38.19-.75.19-.37,0-.46-.34-.73-.35l-.06,2c.28.01.26-.26.64-.25.38,0,.37.16.76.16Z"/>
      <path class="st1" d="M37.53,80.6c.38.06.35-.29.72-.23.37.06.55.4.93.46.38.06.4-.08.77-.02.38.06.35.36.73.4.38.04.5-.21.88-.17.38.04.33-.58.7-.54.37.04.36.71.74.75.38.04.49-.14.86-.1.38.04.21.49.59.52.38.02.42-.41.8-.39.38.02.38.07.76.09.38.02.38.35.76.37.38.02.46-.46.83-.44.38.02.72.47.74.47l.06-2s-.49.18-.86.16c-.37-.02-.36-.27-.73-.29-.37-.02-.39.26-.76.24-.37-.02-.34-.35-.71-.37-.37-.02-.3.56-.67.54-.37-.03-.47-.25-.84-.28-.37-.04-.31-.19-.68-.22-.37-.04-.44.2-.81.16-.37-.04-.33-.46-.7-.5-.37-.04-.41.4-.78.36-.37-.03-.35-.18-.72-.24-.37-.06-.34-.24-.71-.3-.37-.06-.4.45-.77.4-.37-.06-.34-.46-.71-.52-.37-.06-.4.14-.77.08-.37-.06-.4-.4-.68-.44l-.35,1.97c.28.04.29-.22.67-.16.38.06.35.21.73.27Z"/>
      <path class="st1" d="M25.63,77.72c.36.12.39-.23.75-.1.36.12.47.51.84.6.37.1.41-.03.77.07.37.1.29.4.66.5.37.1.53-.12.89-.02.37.1.41-.52.78-.42.36.1.25.76.62.86.37.09.5-.04.87.03.37.08.13.5.51.58.37.08.48-.34.85-.27.37.08.36.13.73.21.37.08.33.4.7.48.37.08.52-.38.89-.31.37.08.64.57.67.57l.35-1.97s-.51.12-.87.04c-.36-.08-.31-.32-.68-.4-.36-.08-.42.19-.78.12-.36-.08-.29-.4-.65-.48-.36-.08-.38.51-.74.43-.36-.08-.43-.3-.8-.37-.36-.09-.28-.23-.64-.33-.36-.1-.46.12-.82.03-.36-.1-.26-.51-.61-.61-.36-.1-.47.33-.83.23-.36-.1-.32-.24-.68-.34-.36-.1-.3-.28-.66-.38-.36-.1-.47.39-.83.27-.35-.12-.26-.52-.61-.64-.35-.12-.41.06-.76-.06-.35-.12-.33-.47-.59-.56l-.66,1.89c.27.09.32-.17.68-.04.36.12.31.27.67.39Z"/>
      <path class="st1" d="M14.64,71.91c.28.3.46,0,.74.26.28.27.25.65.56.92.31.25.4.14.71.39.32.23.15.49.48.71.34.22.55.06.89.26.34.2.54-.39.87-.2.33.18.07.8.42.98.35.17.52.05.86.21.35.16.04.53.39.68.36.15.53-.24.89-.1.35.14.34.19.69.33.35.14.26.44.62.57.36.12.58-.31.94-.19.36.12.55.64.57.65l.66-1.89s-.52.04-.87-.08c-.35-.12-.26-.35-.61-.48-.35-.12-.45.14-.8,0-.35-.13-.22-.44-.56-.58-.34-.14-.45.43-.8.29-.34-.14-.36-.38-.69-.53-.33-.16-.23-.27-.55-.43-.32-.16-.47.03-.79-.14-.32-.17-.11-.55-.41-.73-.3-.18-.52.18-.83-.01-.3-.2-.21-.33-.5-.53-.28-.22-.16-.37-.44-.59-.26-.23-.58.18-.84-.07-.26-.26-.01-.56-.25-.82-.24-.26-.39-.12-.62-.39-.23-.27-.03-.55-.18-.76l-1.59,1.21c.18.24.36.05.62.35.26.31.14.41.41.7Z"/>
      <path class="st1" d="M10.3,60.18c0,.39.33.3.36.68.03.38-.26.64-.23,1.03.04.39.18.38.23.76.06.39-.26.44-.18.84.08.39.35.43.43.81.08.39.65.12.75.49.1.36-.53.6-.42.98.12.37.34.4.46.77.14.37-.36.41-.2.78.16.37.56.2.72.56.15.36.12.38.3.73.19.35-.09.53.11.88.22.34.66.13.87.46.2.33.1.87.11.9l1.59-1.21s-.45-.23-.63-.54c-.19-.3.02-.43-.17-.72-.17-.31-.41-.17-.58-.49-.17-.32.12-.45-.01-.77-.14-.32-.62,0-.77-.32-.15-.33.01-.52-.11-.85-.12-.34.03-.35-.07-.68-.09-.34-.34-.32-.43-.67-.1-.35.32-.46.25-.8-.07-.35-.5-.25-.57-.61-.06-.36.09-.38.04-.74-.05-.36.13-.38.1-.73-.03-.36-.53-.28-.56-.65-.03-.37.37-.42.37-.78,0-.36-.2-.36-.2-.72,0-.36.36-.44.37-.71l-2-.1c-.01.3.25.27.23.66,0,.39-.15.39-.15.78Z"/>
      <path class="st1" d="M13.83,48.25c-.2.33.13.44-.07.77-.2.33-.58.36-.77.7-.19.34-.07.4-.26.74-.18.34-.45.22-.63.57-.17.36,0,.55-.14.91-.15.37.46.48.32.84-.14.35-.79.18-.91.55-.12.37.03.52-.09.89-.09.38-.51.12-.6.51-.09.39.32.49.24.87-.07.38-.12.37-.19.76-.07.38-.4.36-.44.75-.05.4.43.5.38.88-.03.38-.47.72-.47.75l2,.1s-.2-.48-.15-.84c.04-.36.29-.33.33-.68.04-.35-.23-.4-.17-.75.06-.36.39-.29.45-.64.07-.34-.5-.36-.42-.72.09-.35.3-.42.4-.76.11-.34.24-.26.35-.6.11-.34-.11-.46.03-.8.14-.34.53-.18.66-.51.14-.32-.25-.49-.09-.82.16-.33.28-.26.45-.58.18-.32.35-.23.52-.55.18-.32-.28-.54-.09-.86.19-.32.56-.14.75-.45.2-.31.04-.41.24-.72.2-.31.53-.2.69-.42l-1.64-1.14c-.17.24.07.35-.14.68-.21.32-.34.23-.55.56Z"/>
      <path class="st1" d="M21.49,38.77c-.22.29.1.44-.13.73-.23.29-.61.26-.84.55-.24.28-.14.37-.38.65-.25.28-.48.09-.73.36-.24.28-.11.52-.36.8-.25.28.28.6.03.88-.25.28-.78-.13-1.04.16-.25.28-.18.47-.42.76-.25.29-.51-.12-.76.17-.25.29.08.58-.16.87-.25.29-.28.26-.52.56-.24.3-.51.11-.74.42-.23.31.12.64-.11.95-.22.31-.78.36-.79.38l1.64,1.14s.1-.51.32-.8c.22-.29.42-.14.64-.43.22-.29,0-.46.24-.75.23-.29.48-.07.72-.36.23-.28-.28-.57-.04-.85.24-.28.47-.24.71-.52.24-.28.33-.14.58-.42.25-.28.1-.47.35-.75.25-.28.57,0,.83-.28.25-.28-.08-.56.17-.85.25-.29.36-.19.61-.48.25-.29.39-.17.64-.46.25-.3-.17-.59.07-.89.24-.29.58-.08.82-.38.23-.31.08-.42.3-.73.2-.28.62-.3.86-.63l-1.92-.74c-.09.13.19.19,0,.45-.21.3-.33.21-.56.5Z"/>
    </g>
  </g>
  <g>
    <path class="st0" d="M20.9,66.76c.16-.1.3-.25.39-.4.09-.15.11-.33.1-.51-.01-.18-.09-.34-.2-.48-.11-.14-.25-.29-.43-.36-.18-.07-.41-.08-.63-.05l.22,1.99c.2-.02.4-.08.55-.18Z"/>
    <path class="st0" d="M9.33,70.82c.35-.23.09-.46.44-.69.36-.22.73-.08,1.09-.28.36-.2.3-.32.67-.52.37-.19.52.08.89-.1.37-.18.35-.45.74-.62.38-.16.03-.68.42-.84.4-.16.69.45,1.08.3.39-.14.43-.35.82-.47.4-.13.39.36.78.25.39-.11.29-.53.69-.64.41-.1.42-.04.83-.14.41-.09.49.23.9.16.4-.07.38-.56.8-.62.42-.06.85.33.87.32l-.22-1.99s-.55.27-.98.34c-.44.07-.47-.18-.91-.1-.44.08-.39.36-.82.44-.43.1-.5-.23-.93-.12-.43.11-.16.63-.58.75-.42.12-.61-.03-1.03.1-.42.14-.42-.02-.83.12-.42.15-.38.4-.79.56-.41.16-.58-.22-.99-.05-.41.19-.22.57-.61.76-.39.19-.46.06-.85.26-.39.21-.48.04-.87.26-.39.22-.09.64-.46.86-.37.23-.63-.1-1,.15-.37.24-.26.41-.62.66-.36.25-.64.05-.91.25l1.21,1.59c.25-.18.06-.37.4-.62.34-.24.43-.11.77-.34Z"/>
    <path class="st0" d="M7.1,71.99c.17.05.36.03.55,0,.18-.03.36-.09.52-.21h0s-1.21-1.59-1.21-1.59h0c-.17.13-.32.29-.4.47-.09.18-.11.38-.1.56.02.17.09.35.2.49.11.14.27.24.44.3Z"/>
  </g>
  <g>
    <path class="st0" d="M22.85,69.81c.14-.11.25-.26.31-.43.06-.16.07-.34.05-.52-.03-.18-.11-.33-.22-.46-.12-.13-.25-.28-.43-.33-.17-.06-.38-.05-.58-.01l.38,1.96c.18-.04.35-.11.48-.21Z"/>
    <path class="st0" d="M12.7,74.38c.3-.23.02-.45.33-.68.31-.23.67-.11.98-.32.31-.21.24-.32.56-.53.32-.21.49.06.81-.14.32-.18.27-.46.6-.64.33-.18-.06-.67.29-.84.35-.17.69.4,1.03.25.34-.16.35-.36.7-.51.35-.15.4.34.74.2.35-.13.21-.54.56-.67.36-.12.38-.07.74-.18.36-.11.47.2.83.1.36-.09.3-.57.67-.66.37-.09.8.27.82.27l-.38-1.96s-.48.3-.87.4c-.39.09-.45-.15-.85-.05-.39.11-.32.37-.71.49-.38.12-.48-.2-.87-.07-.39.14-.08.63-.45.77-.37.14-.56,0-.93.16-.37.15-.39,0-.76.17-.37.17-.3.41-.66.59-.36.18-.56-.19-.92,0-.36.2-.13.58-.48.78-.34.21-.42.08-.76.3-.34.22-.44.06-.78.29-.34.23,0,.63-.33.86-.32.24-.6-.07-.92.19-.32.25-.19.4-.5.66-.3.26-.6.07-.83.28l1.34,1.48c.21-.19,0-.36.29-.61.29-.25.38-.12.68-.36Z"/>
    <path class="st0" d="M10.74,75.6c.17.05.35.02.52-.02.16-.04.33-.1.46-.22h0s-1.34-1.48-1.34-1.48h0c-.15.13-.27.29-.32.46-.06.17-.06.37-.02.54.04.17.12.33.25.46.13.13.29.22.45.27Z"/>
  </g>
  <g>
    <path class="st0" d="M79.37,68.29c-.18.06-.34.17-.46.3-.11.13-.17.3-.2.48-.03.18,0,.35.08.51.07.16.15.34.29.45.14.11.32.17.51.2l.36-1.97c-.2-.04-.4-.03-.58.03Z"/>
    <path class="st0" d="M90.74,72.85c-.34-.24-.46.1-.8-.13-.34-.22-.38-.61-.73-.83-.36-.21-.42-.1-.78-.3-.36-.2-.22-.48-.59-.67-.37-.19-.57,0-.94-.18-.37-.18-.51.43-.88.27-.36-.16-.15-.8-.54-.96-.38-.16-.54-.02-.92-.16-.38-.14-.09-.52-.48-.66-.4-.13-.54.28-.93.16-.39-.12-.38-.18-.77-.28-.39-.11-.33-.43-.74-.53-.4-.1-.57.36-.97.27-.4-.09-.69-.58-.72-.58l-.36,1.97s.53-.11.91-.03c.38.09.32.33.69.42.37.09.44-.17.82-.07.37.1.27.43.64.53.36.12.43-.46.8-.34.37.13.42.35.78.49.36.14.26.26.62.41.36.15.49-.06.85.1.36.16.18.55.53.72.34.16.53-.22.88-.05.35.18.27.31.61.5.34.19.24.35.57.55.33.2.56-.25.9-.04.33.21.14.57.45.79.32.22.43.06.74.29.31.23.18.56.41.73l1.23-1.58c-.25-.19-.37.04-.7-.2-.33-.24-.24-.37-.58-.61Z"/>
    <path class="st0" d="M92.45,74.65c.02-.18-.03-.36-.1-.53-.07-.17-.17-.33-.33-.45h0s-1.23,1.58-1.23,1.58h0c.15.11.31.2.48.23.17.03.37,0,.53-.05.16-.05.32-.16.43-.29.12-.14.19-.31.22-.48Z"/>
  </g>
  <g>
    <path class="st0" d="M81.7,64.67c-.17.12-.3.28-.37.45-.07.17-.05.35,0,.52.05.17.15.32.26.44.12.13.24.26.4.33.15.06.33.06.51.05l-.21-1.99c-.21.02-.43.09-.59.21Z"/>
    <path class="st0" d="M93.85,67.19c-.38-.2-.45.15-.82-.03-.37-.18-.46-.56-.85-.72-.39-.16-.44-.04-.83-.18-.39-.14-.29-.44-.68-.58-.4-.13-.57.09-.96-.04-.4-.12-.45.51-.84.39-.38-.11-.27-.77-.68-.87-.4-.1-.54.06-.95-.02-.41-.08-.17-.51-.59-.58-.42-.07-.49.36-.9.31-.41-.05-.41-.11-.82-.14-.42-.04-.42-.35-.85-.37-.43,0-.49.47-.91.48-.41,0-.85-.38-.88-.37l.21,1.99s.45-.25.83-.26c.38,0,.38.24.75.25.37.02.39-.27.77-.23.38.03.34.36.71.41.37.04.34-.54.73-.47.39.06.47.28.85.36.38.08.3.22.67.31.37.09.48-.13.86-.02.38.11.26.51.63.63.36.12.49-.3.87-.18.37.13.32.27.68.41.37.14.29.31.64.46.35.15.52-.33.88-.16.36.17.21.55.55.72.34.18.43,0,.76.2.32.2.22.53.42.68l1.17-1.62c-.28-.2-.39.05-.76-.18-.37-.22-.29-.35-.66-.55Z"/>
    <path class="st0" d="M95.78,69.05c.04-.19-.02-.42-.11-.62-.09-.2-.22-.38-.4-.51h0s-1.17,1.62-1.17,1.62h0c.13.09.28.16.42.18.15.02.31-.02.47-.06.15-.04.33-.1.48-.19.15-.1.27-.24.31-.42Z"/>
  </g>
  <g>
    <path class="st0" d="M52.44,67.2c-.07-.07-.18-.13-.3-.16-.12-.03-.26-.05-.4-.05-.14,0-.28.02-.39.07-.12.05-.25.09-.32.16-.07.06-.09.14-.09.22l1.6.02c0-.09-.03-.18-.1-.25Z"/>
    <path class="st0" d="M49.78,72.04c.18-.08.04-.31.21-.39.17-.08.39.08.57-.04.17-.12.11-.21.27-.34.15-.14.33.04.48-.13.14-.16,0-.33.12-.49.11-.17-.33-.39-.24-.53.08-.15.57.08.66-.09.08-.18-.03-.28.03-.45.06-.18.4.01.45-.18.06-.19-.28-.29-.23-.47.04-.18.08-.17.12-.36.03-.18.29-.16.31-.35.02-.19-.36-.25-.35-.43,0-.18.36-.34.35-.35l-1.6-.02s.16.2.15.35c0,.15-.21.13-.22.28-.02.14.2.17.18.32-.03.15-.28.09-.32.23-.03.13.42.21.38.36-.04.15-.21.14-.26.27-.06.13-.16.07-.22.2-.06.12.1.23.02.36-.08.12-.36-.06-.44.04-.08.1.2.32.1.43-.09.1-.18.02-.27.1-.1.08-.19-.04-.29.03-.1.06.12.41-.02.48-.14.07-.28-.22-.41-.17-.13.05-.08.2-.22.25-.15.05-.26-.2-.38-.17l.44,1.54c.13-.04.05-.23.23-.29.18-.06.21.06.4,0Z"/>
    <path class="st0" d="M48.69,72.06c.07.1.15.17.22.22.08.05.16.08.24.06h0s-.44-1.54-.44-1.54h0c-.08.02-.15.07-.2.16-.05.09-.08.21-.09.35,0,.13.02.27.08.4.05.13.12.26.19.36Z"/>
  </g>
  <g>
    <path class="st0" d="M52.6,69.01c-.09,0-.2.02-.32.07-.11.04-.24.11-.35.2-.12.08-.21.17-.29.27-.08.09-.16.2-.19.28-.02.08,0,.16.04.21l1.29-.95s-.1-.08-.18-.08Z"/>
    <path class="st0" d="M55.41,71c-.11-.04-.18.22-.3.18-.12-.05-.09-.3-.19-.35-.11-.05-.15.05-.26,0-.11-.06,0-.28-.11-.33-.1-.06-.23.11-.34.05-.1-.06-.32.38-.43.32-.11-.07.16-.53.06-.59-.1-.07-.21.04-.3-.03-.09-.07.16-.34.08-.41-.08-.07-.31.2-.4.12-.09-.08-.06-.11-.14-.19-.08-.08.1-.27.03-.35-.07-.08-.38.16-.45.06-.08-.1.13-.4.13-.4l-1.29.95s.24.05.33.16c.09.11-.06.24.04.36.1.11.27-.04.37.07.11.1-.08.3.04.4.12.1.38-.28.49-.19.11.09.05.24.17.33.12.08.03.17.15.25.12.08.24-.07.36,0,.12.07-.05.37.08.44.13.07.29-.24.41-.18.12.06.07.17.2.23.13.06.06.2.2.26.13.06.28-.32.41-.27.13.05.02.36.16.41.14.05.19-.1.32-.06.13.04.09.31.2.34l.43-1.54c-.08-.02-.13.18-.25.15-.12-.04-.08-.15-.19-.19Z"/>
    <path class="st0" d="M56.02,71.49c0-.12-.03-.22-.06-.3-.03-.08-.06-.14-.12-.15h0s-.43,1.54-.43,1.54h0c.07.02.14,0,.21-.04.07-.05.15-.15.2-.26.06-.11.11-.24.14-.38.03-.14.05-.28.05-.4Z"/>
  </g>
  <path class="st0" d="M51.93,63.76c-1.45.06-2.53.11-2.96.87-.27.49-.21,1.16.07,1.61.24.39.86.82,1.68,1.14.95.37,1.23.29,1.68.27.82-.03,1.9-.48,2.35-1.48.05-.12.51-1.17,0-1.88-.46-.64-1.4-.6-2.83-.54Z"/>
  <path class="st0" d="M33.43,54.41c1.21-.54,3.8.05,7.87,2.09.7.35,1.46.76,1.48,1.35.03.73-1.07,1.33-1.41,1.48-2.29,1.01-4.78.14-5.11,0-1.71-.72-4.1-2.62-3.9-3.77.11-.63.76-1,1.08-1.14Z"/>
  <path class="st0" d="M69.89,54.98c-1.2-.53-3.77.05-7.82,2.07-.7.35-1.45.75-1.47,1.34-.03.73,1.07,1.32,1.4,1.47,2.27,1,4.74.14,5.08,0,1.7-.71,4.08-2.61,3.88-3.74-.11-.63-.76-1-1.07-1.14Z"/>
</svg>