<?xml version="1.0" encoding="UTF-8"?>
<svg id="_レイヤー_1" xmlns="http://www.w3.org/2000/svg" version="1.1" viewBox="0 0 100 100">
  <!-- Generator: Adobe Illustrator 30.0.0, SVG Export Plug-In . SVG Version: 2.1.1 Build 123)  -->
  <defs>
    <style>
      .st0, .st1 {
        fill: none;
      }

      .st2 {
        fill: #1c1917;
      }

      .st3 {
        fill: #fff;
      }

      .st1 {
        stroke: #1c1917;
        stroke-linecap: round;
        stroke-linejoin: round;
        stroke-width: .75px;
      }
    </style>
  </defs>
  <path class="st3" d="M22,36.75c.41-2.58-.43-3.09.05-6.92.24-1.98,1.18-9.52,4.26-10.24,3.6-.84,10.25,3.85,15.02,10.59,1.27,1.8,3.87,1.08,3.87,1.08,2.73-.19,4.23-.65,7.03-.79,4.12-.2,5.86.88,7.96.89,1.8-1.38,2.7-2.67,6.34-6.67,2.59-2.84,6.1-6.69,8.43-6.02,2.46.71,4.84,10.02,4.2,14.32-.13.89.13,1.79.67,2.5,2.21,2.89,7.48,10.31,9.77,17.88,1.16,3.85,2.75,9.12.74,14.05-2.77,6.8-10.84,9.17-19.58,11.61,0,0-23.97,6.67-49.46-3.28-3.04-1.19-6.39-2.74-8.76-6.14-3.7-5.31-4.01-13.66-.7-19.71,3.49-6.4,6.98-8.55,10.16-13.14Z"/>
  <path d="M45.2,31.24c2.51-.24,4.95-.94,7.5-1.05,2.48-.29,5.11.57,7.49.66,0,0-.31.1-.31.1,3.05-2.46,5.46-5.86,8.29-8.64,1.74-1.61,4.76-5.16,7.37-3.82,1.13.79,1.68,2.14,2.17,3.32,1.26,3.35,1.96,6.91,1.83,10.48,0,0-.07.77-.07.77-.2,1.25.59,2.2,1.33,3.12,1.84,2.41,3.54,4.92,5.09,7.54,6.41,11,11.46,25.68-3.34,32.26-9.42,4.15-19.4,5.85-29.66,5.86-6.05.03-12.1-.63-18-1.89-.16-.03-.26-.19-.23-.35.03-.16.18-.26.34-.23,2.96.43,5.93.84,8.92,1,13.2.79,26.08-.84,37.84-6.06,5.45-2.38,9.12-7.18,8.55-13.28-.52-5.86-2.57-11.59-5.33-16.8-1.41-2.64-3.03-5.18-4.76-7.62-.79-1.02-1.66-2.25-1.41-3.64.23-1.71.05-3.45-.23-5.15-.56-2.83-1.23-5.91-3.01-8.21-1.96-2.05-5.36,1.85-6.83,3.26-1.37,1.45-2.7,2.96-4.02,4.47-1.34,1.49-2.58,3.11-4.24,4.4-.09.08-.21.11-.31.1-2.63-.26-4.84-1.26-7.47-1.16-2.48-.07-5.04.51-7.51.54h0Z"/>
  <path class="st0" d="M22,36.75c.41-2.58-.43-3.09.05-6.92.24-1.98,1.18-9.52,4.26-10.24,3.6-.84,10.25,3.85,15.02,10.59,1.27,1.8,3.87,1.08,3.87,1.08,2.73-.19,4.23-.65,7.03-.79,4.12-.2,5.86.88,7.96.89,1.8-1.38,2.7-2.67,6.34-6.67,2.59-2.84,6.1-6.69,8.43-6.02,2.46.71,4.84,10.02,4.2,14.32-.13.89.13,1.79.67,2.5,2.21,2.89,7.48,10.31,9.77,17.88,1.16,3.85,2.75,9.12.74,14.05-2.77,6.8-10.84,9.17-19.58,11.61,0,0-23.97,6.67-49.46-3.28-3.04-1.19-6.39-2.74-8.76-6.14-3.7-5.31-4.01-13.66-.7-19.71,3.49-6.4,6.98-8.55,10.16-13.14Z"/>
  <path class="st2" d="M20.16,66.19c-5.43.18-10.82,2.13-15.15,5.54-.37.3-.85-.28-.48-.58,4.3-3.69,9.82-5.98,15.54-6.41.97-.07,1.06,1.41.08,1.45h0Z"/>
  <path class="st2" d="M22.08,69.27c-4.92.57-9.64,2.8-13.29,6.23-.34.33-.87-.2-.52-.54,3.62-3.68,8.46-6.21,13.64-7,.87-.13,1.06,1.2.18,1.31h0Z"/>
  <path class="st2" d="M79.73,68.64c5.24.85,10.22,3.18,14.16,6.69.16.14.17.37.03.53-.13.15-.37.17-.52.04-3.93-3.3-8.8-5.41-13.85-6.09-.78-.11-.6-1.3.18-1.17h0Z"/>
  <path class="st2" d="M82.27,65.23c4.03-.76,8.04.45,11.7,2.04,1.25.65,2.46,1.12,3.39,2.3.29.43-.37.85-.64.4-.71-.88-2.04-1.47-3.09-1.98-3.43-1.46-7.44-2.61-11.15-1.85-.6.15-.83-.78-.22-.92h0Z"/>
  <path class="st2" d="M52.19,66.88c.07,2.57-1.15,4.84-3.85,5.22-.45.14-.67-.57-.22-.71,2.34-.46,3.14-2.31,2.96-4.53-.02-.77,1.15-.75,1.11.02h0Z"/>
  <path class="st1" d="M51.83,69.25c.48.7,1.01,1.42,2.57,2.18.58.28,1.13.46,1.6.57"/>
  <path class="st2" d="M51.87,63.51c-1.51.06-2.63.1-3.08.89-.29.51-.23,1.21.06,1.68.25.4.88.86,1.74,1.2.99.39,1.28.31,1.75.29.85-.03,1.98-.48,2.46-1.52.06-.12.54-1.21.01-1.96-.47-.67-1.45-.63-2.93-.58Z"/>
  <path class="st2" d="M33.99,54.42c.88-.39,2.76.05,5.71,1.56.51.26,1.05.56,1.07.99.02.53-.79.96-1.03,1.07-1.67.72-3.47.08-3.72-.03-1.24-.53-2.97-1.93-2.82-2.76.08-.46.56-.73.79-.83Z"/>
  <path class="st2" d="M69.36,55.37c-.87-.39-2.74.01-5.7,1.47-.51.25-1.06.54-1.08.96-.03.53.77.97,1.01,1.08,1.65.74,3.45.13,3.69.03,1.24-.51,2.98-1.88,2.84-2.7-.08-.46-.54-.73-.77-.83Z"/>
</svg>