<?xml version="1.0" encoding="UTF-8"?>
<svg id="_レイヤー_1" xmlns="http://www.w3.org/2000/svg" version="1.1" viewBox="0 0 100 100">
  <!-- Generator: Adobe Illustrator 30.0.0, SVG Export Plug-In . SVG Version: 2.1.1 Build 123)  -->
  <defs>
    <style>
      .st0 {
        fill: #1c1917;
      }

      .st1 {
        fill: #231815;
      }

      .st2 {
        fill: #fff;
      }
    </style>
  </defs>
  <path class="st2" d="M49.97,16.9c-8.63-.43-14.86,1.43-17.7,2.43-5.95,2.1-11.07,3.9-13.19,8.57-.66,1.45-.1,3.7.21,6.13.33,2.6.55,6.01,1.55,9.99,1.47,5.81,2.12,8.8,4.04,11.81.76,1.19,2.79,4.68,8.37,7.86,7.81,4.45,17.74,4.09,20.41,3.59,3.06-.57,8.19-1.5,12.95-5.97,6.57-6.16,7.65-14.84,8.25-23,.28-3.79.27-5.4.48-7.6.16-1.68-.28-4.22-1.23-5.34-5.65-6.6-16.68-8.11-24.13-8.48h-.01Z"/>
  <g>
    <path class="st1" d="M94.99,69.51c-.22-.19-.49-.32-.8-.37-.9-.11-1.71.53-1.81,1.43-.1.87.5,1.67,1.36,1.8.46.06.9-.09,1.23-.37.15-.79.18-1.63.01-2.49Z"/>
    <path class="st1" d="M78.27,76.76c.1-.87-.5-1.67-1.36-1.8-.9-.11-1.71.53-1.81,1.43-.1.87.5,1.67,1.36,1.8.9.11,1.71-.53,1.81-1.43Z"/>
    <path class="st1" d="M88.46,80.7c-.9-.11-1.71.53-1.81,1.43-.02.19,0,.37.03.54.81-.5,1.62-1.07,2.42-1.72-.19-.12-.4-.21-.64-.25Z"/>
    <path class="st1" d="M91.25,78.88c.45-.51.88-1.05,1.28-1.63-.66.14-1.19.69-1.28,1.4,0,.08,0,.16,0,.23Z"/>
    <path class="st1" d="M84.53,79.32c.9.11,1.71-.53,1.81-1.43.01-.11.01-.22,0-.32-.02-.21-.07-.41-.16-.59-.23-.46-.66-.8-1.2-.89-.34-.04-.66.02-.94.17-.28.14-.51.37-.67.64-.11.18-.18.39-.2.62-.06.54.15,1.06.52,1.4.23.21.51.35.84.4Z"/>
    <path class="st1" d="M77.14,84.85c.1-.87-.5-1.67-1.36-1.8-.9-.11-1.71.53-1.81,1.43-.1.87.5,1.67,1.36,1.8.9.11,1.71-.53,1.81-1.43Z"/>
    <path class="st1" d="M78.57,80.99c-.1.87.5,1.67,1.36,1.8.9.11,1.71-.53,1.81-1.43.1-.87-.5-1.67-1.36-1.8-.9-.11-1.71.53-1.81,1.43Z"/>
    <path class="st1" d="M82.31,84.88c.08-.04.16-.07.25-.1.42-.18.86-.38,1.32-.6,0,0-.02,0-.03,0-.63-.07-1.21.22-1.54.71Z"/>
    <path class="st1" d="M85.43,61.39c-.02.21,0,.41.05.59.11.4.37.74.72.96.18.11.38.18.59.22.22.03.44,0,.65-.05.28-.08.54-.24.74-.46-.86-.43-1.77-.85-2.75-1.26Z"/>
    <path class="st1" d="M84.3,69.44c-.1.87.5,1.67,1.36,1.8.9.11,1.71-.53,1.81-1.43.1-.87-.5-1.67-1.36-1.8-.9-.11-1.71.53-1.81,1.43Z"/>
    <path class="st1" d="M89.14,75.85c.9.11,1.71-.53,1.81-1.43.1-.87-.5-1.67-1.36-1.8-.9-.11-1.71.53-1.81,1.43-.1.87.5,1.67,1.36,1.8Z"/>
    <path class="st1" d="M92.08,66.34c.1-.87-.5-1.67-1.36-1.8-.9-.11-1.71.53-1.81,1.43-.1.87.5,1.67,1.36,1.8.9.11,1.71-.53,1.81-1.43Z"/>
    <path class="st1" d="M82.19,66.63c.9.11,1.71-.53,1.81-1.43.1-.87-.5-1.67-1.36-1.8-.9-.11-1.71.53-1.81,1.43-.1.87.5,1.67,1.36,1.8Z"/>
    <path class="st1" d="M79.7,72.91c-.1.87.5,1.67,1.36,1.8.9.11,1.71-.53,1.81-1.43.1-.87-.5-1.67-1.36-1.8-.9-.11-1.71.53-1.81,1.43Z"/>
    <path class="st1" d="M63.09,85.39c-.9-.11-1.71.53-1.81,1.43-.1.87.5,1.67,1.36,1.8.9.11,1.71-.53,1.81-1.43.1-.87-.5-1.67-1.36-1.8Z"/>
    <path class="st1" d="M60.97,82.59c.1-.87-.5-1.67-1.36-1.8-.9-.11-1.71.53-1.81,1.43-.1.87.5,1.67,1.36,1.8.9.11,1.71-.53,1.81-1.43Z"/>
    <path class="st1" d="M70.48,79.86c-.1.87.5,1.67,1.36,1.8.9.11,1.71-.53,1.81-1.43.1-.87-.5-1.67-1.36-1.8-.9-.11-1.71.53-1.81,1.43Z"/>
    <path class="st1" d="M71.17,86.52c-.9-.11-1.71.53-1.81,1.43-.04.34.03.66.17.94.97-.21,1.98-.44,3.01-.7.03-.81-.55-1.53-1.36-1.66Z"/>
    <path class="st1" d="M67.69,81.91c-.9-.11-1.71.53-1.81,1.43-.1.87.5,1.67,1.36,1.8.9.11,1.71-.53,1.81-1.43.1-.87-.5-1.67-1.36-1.8Z"/>
    <path class="st1" d="M70.18,75.63c.1-.87-.5-1.67-1.36-1.8-.67-.08-1.3.26-1.61.81-.1.17-.17.37-.2.58h0s0,.02,0,.03c-.09.76.36,1.47,1.05,1.72.1.04.2.06.31.08.9.11,1.71-.53,1.81-1.43Z"/>
    <path class="st1" d="M65.58,79.11c.1-.87-.5-1.67-1.36-1.8-.9-.11-1.71.53-1.81,1.43-.1.87.5,1.67,1.36,1.8.9.11,1.71-.53,1.81-1.43Z"/>
    <path class="st1" d="M63.53,70.65c-.1.87.5,1.67,1.36,1.8.9.11,1.71-.53,1.81-1.43.1-.87-.5-1.67-1.36-1.8-.9-.11-1.71.53-1.81,1.43Z"/>
    <path class="st1" d="M75.92,64.08c.1-.87-.5-1.67-1.36-1.8-.9-.11-1.71.53-1.81,1.43-.1.87.5,1.67,1.36,1.8.9.11,1.71-.53,1.81-1.43Z"/>
    <path class="st1" d="M69.5,68.98c.9.11,1.71-.53,1.81-1.43.1-.87-.5-1.67-1.36-1.8-.9-.11-1.71.53-1.81,1.43-.1.87.5,1.67,1.36,1.8Z"/>
    <path class="st1" d="M73.43,70.35c-.9-.11-1.71.53-1.81,1.43-.1.87.5,1.67,1.36,1.8.9.11,1.71-.53,1.81-1.43.1-.87-.5-1.67-1.36-1.8Z"/>
    <path class="st1" d="M76.22,68.31c-.1.87.5,1.67,1.36,1.8.9.11,1.71-.53,1.81-1.43.1-.87-.5-1.67-1.36-1.8-.9-.11-1.71.53-1.81,1.43Z"/>
    <path class="st1" d="M66.02,64.37c.9.11,1.71-.53,1.81-1.43.1-.87-.5-1.67-1.36-1.8-.9-.11-1.71.53-1.81,1.43-.1.87.5,1.67,1.36,1.8Z"/>
    <path class="st1" d="M77.35,60.22c-.01.11-.01.22,0,.32.02.21.07.41.16.59.23.46.66.8,1.2.89.22.03.44,0,.65-.05.6-.17,1.07-.69,1.16-1.34h0s0-.02,0-.03c.03-.22,0-.43-.05-.63-.05-.17-.13-.34-.23-.48-.62-.2-1.25-.39-1.89-.58-.53.22-.94.7-1.01,1.31Z"/>
    <path class="st1" d="M63.31,56.62c-.1-.04-.2-.06-.31-.08-.9-.11-1.71.53-1.81,1.43-.04.33.02.64.16.92.18.37.5.66.89.81.1.04.2.06.31.08.56.07,1.09-.16,1.43-.55.2-.23.33-.52.38-.84h0s0-.02,0-.03c.09-.76-.36-1.47-1.05-1.72Z"/>
    <path class="st1" d="M71.08,57.67c-.9-.11-1.71.53-1.81,1.43-.01.11-.01.22,0,.32.02.21.07.41.16.59.23.46.66.8,1.2.89.67.08,1.3-.26,1.61-.81.1-.17.17-.37.2-.58h0s0-.02,0-.03c.03-.22,0-.43-.05-.63-.17-.6-.67-1.07-1.31-1.18Z"/>
    <path class="st1" d="M43.67,88.44h0s0-.02,0-.03c.09-.76-.36-1.47-1.05-1.72-.1-.04-.2-.06-.31-.08-.9-.11-1.71.53-1.81,1.43-.05.43.07.85.32,1.18.02.02.04.04.06.06.68.13,1.35.24,2.01.34.15-.09.29-.2.41-.33.2-.23.33-.52.38-.84Z"/>
    <path class="st1" d="M51.56,90.15c.1-.17.17-.37.2-.58h0s0-.02,0-.03c.03-.22,0-.43-.05-.63-.17-.6-.67-1.07-1.31-1.18-.9-.11-1.71.53-1.81,1.43-.01.11-.01.22,0,.32.02.21.07.41.16.59.04.07.08.14.13.2.88.06,1.71.11,2.5.14.07-.08.14-.17.19-.27Z"/>
    <path class="st1" d="M59.84,90.31c0-.09-.02-.18-.05-.27-.17-.6-.67-1.07-1.31-1.18-.56-.07-1.09.16-1.43.55-.14.16-.24.34-.31.55-.03.1-.06.21-.07.32,0,.06,0,.12,0,.18.04,0,.09,0,.13,0,.31,0,1.4-.03,3.05-.16Z"/>
    <path class="st1" d="M46.92,83.13c-.9-.11-1.71.53-1.81,1.43-.1.87.5,1.67,1.36,1.8.9.11,1.71-.53,1.81-1.43.1-.87-.5-1.67-1.36-1.8Z"/>
    <path class="st1" d="M49.42,76.85c.1-.87-.5-1.67-1.36-1.8-.9-.11-1.71.53-1.81,1.43-.1.87.5,1.67,1.36,1.8.9.11,1.71-.53,1.81-1.43Z"/>
    <path class="st1" d="M57.5,77.98c.1-.87-.5-1.67-1.36-1.8-.9-.11-1.71.53-1.81,1.43-.1.87.5,1.67,1.36,1.8.9.11,1.71-.53,1.81-1.43Z"/>
    <path class="st1" d="M54.55,87.49c.9.11,1.71-.53,1.81-1.43.1-.87-.5-1.67-1.36-1.8-.9-.11-1.71.53-1.81,1.43-.1.87.5,1.67,1.36,1.8Z"/>
    <path class="st1" d="M58.93,74.13c-.03.22,0,.43.05.63.17.6.67,1.07,1.31,1.18.9.11,1.71-.53,1.81-1.43.1-.87-.5-1.67-1.36-1.8-.34-.04-.66.02-.94.17-.19.1-.35.23-.49.39-.07.08-.13.17-.18.26-.1.17-.17.37-.2.58h0s0,.02,0,.03Z"/>
    <path class="st1" d="M50.85,73c-.03.22,0,.43.05.63.17.6.67,1.07,1.31,1.18.45.05.87-.08,1.2-.34.16-.13.3-.29.41-.47s.18-.39.2-.62c.03-.22,0-.43-.05-.63-.11-.4-.37-.74-.72-.96-.18-.11-.38-.18-.59-.22-.34-.04-.66.02-.94.17-.19.1-.35.23-.49.39-.07.08-.13.17-.18.26-.1.17-.17.37-.2.58h0s0,.02,0,.03Z"/>
    <path class="st1" d="M51.08,82.88c.9.11,1.71-.53,1.81-1.43.1-.87-.5-1.67-1.36-1.8-.9-.11-1.71.53-1.81,1.43-.1.87.5,1.67,1.36,1.8Z"/>
    <path class="st1" d="M55.15,65.29c.1-.87-.5-1.67-1.36-1.8-.9-.11-1.71.53-1.81,1.43-.1.87.5,1.67,1.36,1.8.9.11,1.71-.53,1.81-1.43Z"/>
    <path class="st1" d="M58.4,60.01c-.9-.11-1.71.53-1.81,1.43-.1.87.5,1.67,1.36,1.8.9.11,1.71-.53,1.81-1.43.1-.87-.5-1.67-1.36-1.8Z"/>
    <path class="st1" d="M49.86,62.11c.9.11,1.71-.53,1.81-1.43.1-.87-.5-1.67-1.36-1.8-.9-.11-1.71.53-1.81,1.43-.1.87.5,1.67,1.36,1.8Z"/>
    <path class="st1" d="M44.58,70.44c-.11-.01-.22-.02-.33,0s-.21.03-.32.06c-.6.17-1.07.69-1.16,1.34h0s0,.02,0,.03c-.05.43.07.85.32,1.18.25.33.61.56,1.04.63.22.03.44,0,.65-.05.51-.15.93-.54,1.1-1.05.03-.1.06-.21.07-.32.1-.87-.5-1.67-1.36-1.8Z"/>
    <path class="st1" d="M60.06,66.05c-.1.87.5,1.67,1.36,1.8.9.11,1.71-.53,1.81-1.43.1-.87-.5-1.67-1.36-1.8-.9-.11-1.71.53-1.81,1.43Z"/>
    <path class="st1" d="M55.45,69.52c-.1.87.5,1.67,1.36,1.8.9.11,1.71-.53,1.81-1.43.1-.87-.5-1.67-1.36-1.8-.9-.11-1.71.53-1.81,1.43Z"/>
    <path class="st1" d="M47.07,64.16c.1-.87-.5-1.67-1.36-1.8-.9-.11-1.71.53-1.81,1.43-.1.87.5,1.67,1.36,1.8.9.11,1.71-.53,1.81-1.43Z"/>
    <path class="st1" d="M47.37,68.39c-.1.87.5,1.67,1.36,1.8.9.11,1.71-.53,1.81-1.43.1-.87-.5-1.67-1.36-1.8-.9-.11-1.71.53-1.81,1.43Z"/>
    <path class="st1" d="M54.92,55.41c-.9-.11-1.71.53-1.81,1.43-.06.54.15,1.06.52,1.4.23.21.51.35.84.4.34.04.66-.02.94-.17.47-.24.81-.7.87-1.26.01-.11.01-.22,0-.32-.02-.21-.07-.41-.16-.59-.23-.46-.66-.8-1.2-.89Z"/>
    <path class="st1" d="M35.6,87.28c.01-.11.01-.22,0-.32-.02-.21-.07-.41-.16-.59-.23-.46-.66-.8-1.2-.89-.9-.11-1.71.53-1.81,1.43,0,.04,0,.08,0,.12.98.35,1.95.66,2.93.95.13-.2.22-.43.25-.68Z"/>
    <path class="st1" d="M43,81.75c.56.07,1.09-.16,1.43-.55.21-.24.34-.54.38-.87.09-.76-.36-1.47-1.05-1.72-.1-.04-.2-.06-.31-.08-.9-.11-1.71.53-1.81,1.43-.1.87.5,1.67,1.36,1.8Z"/>
    <path class="st1" d="M38.84,82c-.9-.11-1.71.53-1.81,1.43-.1.87.5,1.67,1.36,1.8.9.11,1.71-.53,1.81-1.43.1-.87-.5-1.67-1.36-1.8Z"/>
    <path class="st1" d="M33.55,78.82c-.1.87.5,1.67,1.36,1.8.9.11,1.71-.53,1.81-1.43.1-.87-.5-1.67-1.36-1.8-.9-.11-1.71.53-1.81,1.43Z"/>
    <path class="st1" d="M33.25,74.59c.1-.87-.5-1.67-1.36-1.8-.9-.11-1.71.53-1.81,1.43-.1.87.5,1.67,1.36,1.8.9.11,1.71-.53,1.81-1.43Z"/>
    <path class="st1" d="M41.33,75.72c.1-.87-.5-1.67-1.36-1.8-.9-.11-1.71.53-1.81,1.43-.1.87.5,1.67,1.36,1.8.9.11,1.71-.53,1.81-1.43Z"/>
    <path class="st1" d="M30.76,80.87c-.9-.11-1.71.53-1.81,1.43-.1.87.5,1.67,1.36,1.8.9.11,1.71-.53,1.81-1.43.1-.87-.5-1.67-1.36-1.8Z"/>
    <path class="st1" d="M33.02,64.7c-.9-.11-1.71.53-1.81,1.43-.1.87.5,1.67,1.36,1.8.9.11,1.71-.53,1.81-1.43.1-.87-.5-1.67-1.36-1.8Z"/>
    <path class="st1" d="M35.51,58.43c.1-.87-.5-1.67-1.36-1.8-.9-.11-1.71.53-1.81,1.43-.1.87.5,1.67,1.36,1.8.9.11,1.71-.53,1.81-1.43Z"/>
    <path class="st1" d="M40.65,69.07c.9.11,1.71-.53,1.81-1.43.1-.87-.5-1.67-1.36-1.8-.9-.11-1.71.53-1.81,1.43-.1.87.5,1.67,1.36,1.8Z"/>
    <path class="st1" d="M29.78,69.98c.03-.22,0-.43-.05-.63-.17-.6-.67-1.07-1.31-1.18-.56-.07-1.09.16-1.43.55-.14.16-.24.34-.31.55-.03.1-.06.21-.07.32-.01.11-.01.22,0,.32.02.21.07.41.16.59.23.46.66.8,1.2.89.22.03.44,0,.65-.05.6-.17,1.07-.69,1.16-1.34h0s0-.02,0-.03Z"/>
    <path class="st1" d="M37.17,64.46c.9.11,1.71-.53,1.81-1.43.1-.87-.5-1.67-1.36-1.8-.9-.11-1.71.53-1.81,1.43-.1.87.5,1.67,1.36,1.8Z"/>
    <path class="st1" d="M40.1,55.04c-1.02.1-2.04.21-3.04.35.17.41.5.75.93.9.1.04.2.06.31.08.56.07,1.09-.16,1.43-.55.19-.22.31-.49.36-.78Z"/>
    <path class="st1" d="M43.59,59.56c.1-.87-.5-1.67-1.36-1.8-.9-.11-1.71.53-1.81,1.43-.1.87.5,1.67,1.36,1.8.9.11,1.71-.53,1.81-1.43Z"/>
    <path class="st1" d="M37.86,71.11c.09-.76-.36-1.47-1.05-1.72-.1-.04-.2-.06-.31-.08-.56-.07-1.09.16-1.43.55-.14.16-.24.34-.31.55-.03.1-.06.21-.07.32-.03.22,0,.43.05.63.11.4.37.74.72.96.18.11.38.18.59.22.22.03.44,0,.65-.05.6-.17,1.07-.69,1.16-1.34h0s0-.02,0-.03Z"/>
    <path class="st1" d="M45.02,55.7c-.1.87.5,1.67,1.36,1.8.9.11,1.71-.53,1.81-1.43.07-.55-.15-1.07-.54-1.42-.71,0-1.41.02-2.11.04-.28.25-.47.6-.52,1Z"/>
    <path class="st1" d="M24.04,81.54c.1-.87-.5-1.67-1.36-1.8-.78-.09-1.49.38-1.73,1.08.81.64,1.65,1.24,2.5,1.8.32-.26.54-.64.6-1.08Z"/>
    <path class="st1" d="M17.09,72.33c.1-.87-.5-1.67-1.36-1.8-.49-.06-.95.11-1.29.42,0,.03,0,.06,0,.09-.01.72.08,1.58.46,2.6.12.05.25.1.39.12.9.11,1.71-.53,1.81-1.43Z"/>
    <path class="st1" d="M18.75,78.36c.9.11,1.71-.53,1.81-1.43.1-.87-.5-1.67-1.36-1.8-.9-.11-1.71.53-1.81,1.43-.1.87.5,1.67,1.36,1.8Z"/>
    <path class="st1" d="M22,73.08c-.1.87.5,1.67,1.36,1.8.9.11,1.71-.53,1.81-1.43.1-.87-.5-1.67-1.36-1.8-.9-.11-1.71.53-1.81,1.43Z"/>
    <path class="st1" d="M25.47,77.69c-.1.87.5,1.67,1.36,1.8.9.11,1.71-.53,1.81-1.43.1-.87-.5-1.67-1.36-1.8-.9-.11-1.71.53-1.81,1.43Z"/>
    <path class="st1" d="M27.73,61.53c-.1.87.5,1.67,1.36,1.8.9.11,1.71-.53,1.81-1.43.1-.87-.5-1.67-1.36-1.8-.9-.11-1.71.53-1.81,1.43Z"/>
    <path class="st1" d="M21.7,68.85c.03-.22,0-.43-.05-.63-.17-.6-.67-1.07-1.31-1.18-.9-.11-1.71.53-1.81,1.43-.01.11-.01.22,0,.32.02.21.07.41.16.59.23.46.66.8,1.2.89.67.08,1.3-.26,1.61-.81.1-.17.17-.37.2-.58h0s0-.02,0-.03Z"/>
    <path class="st1" d="M24.94,63.57c-.9-.11-1.71.53-1.81,1.43-.1.87.5,1.67,1.36,1.8.9.11,1.71-.53,1.81-1.43.1-.87-.5-1.67-1.36-1.8Z"/>
    <path class="st1" d="M18.22,64.25c.02-.16,0-.32-.02-.47-.57.57-1.16,1.2-1.69,1.9.85.05,1.61-.57,1.71-1.43Z"/>
    <path class="st1" d="M27.32,57.71c-.63.24-1.32.54-2.07.91.12.05.24.09.36.11.75.09,1.44-.35,1.7-1.02Z"/>
    <path class="st1" d="M21.01,62.2c.9.11,1.71-.53,1.81-1.43.03-.25,0-.5-.08-.73-.81.53-1.64,1.13-2.46,1.83.21.16.45.28.73.32Z"/>
  </g>
  <path class="st2" d="M22.86,47.89c-1.55.44-5.72,1.72-9.66,5.18-2,1.76-5.53,4.85-5.59,8.94-.03,1.91.68,4.86,5.53,8.98,12.48,10.6,30.78,10.54,36.83,10.45,1.16-.02,13.38-.31,25.77-5.69,3.12-1.36,7.7-3.67,10.58-8.47.92-1.53,2.44-4.08,1.84-6.91-.65-3.06-3.48-4.99-5.96-6.32-12.63-6.78-40.97-11.4-59.34-6.16"/>
  <path class="st0" d="M70.62,30.95c.05,2.18-10.19,6.75-22.5,6.72-12.87-.03-23.37-2.2-23.44-5.55s10.3-6.3,23.17-6.59,22.7,2.06,22.77,5.41h0Z"/>
  <path class="st2" d="M87.55,38.36c-.38-1.33-1.18-4.15-3.95-5.8-2.84-1.69-6.83-1.02-7.71-.57l-5.31,26.04c1.1-.05,10.1-.62,14.77-7.89.87-1.35,3.75-6.31,2.2-11.79h0ZM82.99,43.79c-.34,3.61-4.67,5.94-6.68,7.01-1.07.57-2.26.84-2.88,1.05l1.92-12.74c.54-.31,3.3-1.6,5.28-.78,2.22.93,2.5,3.98,2.36,5.45h0Z"/>
  <path d="M55.02,17.87c-6.32-.61-13.01-.49-19.13,1.24-3.05.85-6.14,2.02-9.04,3.28-2.88,1.28-5.54,3.07-6.76,5.76-.54,1-.23,2.64,0,4.22.62,4.87,1.11,9.6,2.53,14.31,1.31,6.33,4.29,11.91,9.86,15.3,10.33,6.35,26.33,6.93,34.95-2.6,6.6-7.38,6.65-17.95,7.31-27.34.15-1.54.24-3.19-.22-4.68-.36-1.58-1.59-2.55-2.76-3.54-.24-.18-.28-.52-.1-.76s.52-.28.76-.1c0,0,.02.02.03.02.96.86,1.95,1.71,2.57,2.87.94,1.94.95,4.16.71,6.25-.48,13.28-1.22,28.14-15.31,34.18-12.08,4.89-28.97,1.75-36.31-9.67-1.89-2.81-2.74-6.21-3.55-9.41-1.59-5.55-2.12-11.35-2.78-17.06-.07-6.61,7.8-9.39,12.96-11.21,6.2-2.31,12.94-3.13,19.52-2.64l4.9.49c.72.09.59,1.16-.13,1.08h0Z"/>
  <path d="M20.04,49.37c-4.88,2.25-13.27,8.57-11.34,14.62.65,2.01,2.15,3.78,3.78,5.32,3.35,3.06,7.27,5.56,11.53,7.26,12.9,5.03,27.48,5.4,40.9,2.26,6.59-1.77,13.67-3.68,18.7-8.52,1.61-1.62,2.92-3.59,3.86-5.68.04-.11.17-.16.28-.11.1.05.15.17.11.27-.92,2.18-2.19,4.2-3.83,5.93-5.03,5.06-12.18,7.22-18.87,9.1-13.64,3.44-28.47,3.2-41.7-1.85-6.05-2.51-13.83-7.03-16.25-13.5-1.68-5.13,2.63-9.57,6.26-12.47,1.88-1.49,3.97-2.71,6.2-3.55.26-.1.55.03.64.29.09.25-.03.52-.26.63h0ZM75.82,31.86c9.22-3.17,14.43,5.65,12.16,13.84-1.42,5.69-6.09,10.28-11.67,12-1.37.47-2.79.79-4.23,1-.48.07-.97.12-1.47-.17-.28-.16-.38-.52-.22-.8.73-.83,1.89-.54,2.83-.82,2.65-.49,5.25-1.45,7.49-2.96,4.39-2.98,7.28-8.54,6.7-13.9-.65-6.23-5.34-9.71-11.44-7.93-.18.11-.34-.2-.14-.28v.02Z"/>
  <path d="M82.11,39.26c4.11,6.33-3.03,11.46-8.53,13.07-.63.21-.94-.76-.3-.95,2.81-.71,5.44-2.15,7.55-4.12,2.19-1.92,2.55-5.38.97-7.76-.16-.19.16-.44.31-.24"/>
</svg>