<?xml version="1.0" encoding="UTF-8"?>
<svg id="_レイヤー_1" xmlns="http://www.w3.org/2000/svg" xmlns:xlink="http://www.w3.org/1999/xlink" version="1.1" viewBox="0 0 100 100">
  <!-- Generator: Adobe Illustrator 30.0.0, SVG Export Plug-In . SVG Version: 2.1.1 Build 123)  -->
  <defs>
    <style>
      .st0 {
        fill: none;
      }

      .st1 {
        fill: #1c1917;
      }

      .st2 {
        fill: #231815;
      }

      .st3 {
        fill: #fff;
      }

      .st4 {
        fill: url(#_6_dpi_40_);
      }
    </style>
    <pattern id="_6_dpi_40_" data-name="6 dpi 40%" x="0" y="0" width="48" height="48" patternTransform="translate(-5735.81 -4915.87) rotate(7.96) scale(.34)" patternUnits="userSpaceOnUse" viewBox="0 0 48 48">
      <g>
        <rect class="st0" y="0" width="48" height="48"/>
        <g>
          <path class="st2" d="M24,52.8c2.65,0,4.8-2.15,4.8-4.8s-2.15-4.8-4.8-4.8-4.8,2.15-4.8,4.8,2.15,4.8,4.8,4.8Z"/>
          <path class="st2" d="M48,52.8c2.65,0,4.8-2.15,4.8-4.8s-2.15-4.8-4.8-4.8-4.8,2.15-4.8,4.8,2.15,4.8,4.8,4.8Z"/>
          <path class="st2" d="M24,28.8c2.65,0,4.8-2.15,4.8-4.8s-2.15-4.8-4.8-4.8-4.8,2.15-4.8,4.8,2.15,4.8,4.8,4.8Z"/>
          <path class="st2" d="M48,28.8c2.65,0,4.8-2.15,4.8-4.8s-2.15-4.8-4.8-4.8-4.8,2.15-4.8,4.8,2.15,4.8,4.8,4.8Z"/>
          <path class="st2" d="M36,40.8c2.65,0,4.8-2.15,4.8-4.8s-2.15-4.8-4.8-4.8-4.8,2.15-4.8,4.8,2.15,4.8,4.8,4.8Z"/>
          <path class="st2" d="M12,40.8c2.65,0,4.8-2.15,4.8-4.8s-2.15-4.8-4.8-4.8-4.8,2.15-4.8,4.8,2.15,4.8,4.8,4.8Z"/>
          <path class="st2" d="M36,16.8c2.65,0,4.8-2.15,4.8-4.8s-2.15-4.8-4.8-4.8-4.8,2.15-4.8,4.8,2.15,4.8,4.8,4.8Z"/>
          <path class="st2" d="M12,16.8c2.65,0,4.8-2.15,4.8-4.8s-2.15-4.8-4.8-4.8-4.8,2.15-4.8,4.8,2.15,4.8,4.8,4.8Z"/>
        </g>
        <g>
          <path class="st2" d="M0,52.8c2.65,0,4.8-2.15,4.8-4.8s-2.15-4.8-4.8-4.8-4.8,2.15-4.8,4.8,2.15,4.8,4.8,4.8Z"/>
          <path class="st2" d="M0,28.8c2.65,0,4.8-2.15,4.8-4.8s-2.15-4.8-4.8-4.8-4.8,2.15-4.8,4.8,2.15,4.8,4.8,4.8Z"/>
        </g>
        <g>
          <path class="st2" d="M24,4.8c2.65,0,4.8-2.15,4.8-4.8s-2.15-4.8-4.8-4.8-4.8,2.15-4.8,4.8,2.15,4.8,4.8,4.8Z"/>
          <path class="st2" d="M48,4.8c2.65,0,4.8-2.15,4.8-4.8s-2.15-4.8-4.8-4.8-4.8,2.15-4.8,4.8,2.15,4.8,4.8,4.8Z"/>
        </g>
        <path class="st2" d="M0,4.8c2.65,0,4.8-2.15,4.8-4.8S2.65-4.8,0-4.8-4.8-2.65-4.8,0-2.65,4.8,0,4.8Z"/>
      </g>
    </pattern>
  </defs>
  <path class="st3" d="M49.97,16.9c-8.63-.43-14.86,1.43-17.7,2.43-5.95,2.1-11.07,3.9-13.19,8.57-.66,1.45-.1,3.7.21,6.13.33,2.6.55,6.01,1.55,9.99,1.47,5.81,2.12,8.8,4.04,11.81.76,1.19,2.79,4.68,8.37,7.86,7.81,4.45,17.74,4.09,20.41,3.59,3.06-.57,8.19-1.5,12.95-5.97,6.57-6.16,7.65-14.84,8.25-23,.28-3.79.27-5.4.48-7.6.16-1.68-.28-4.22-1.23-5.34-5.65-6.6-16.68-8.11-24.13-8.48Z"/>
  <path class="st4" d="M29.68,56.92c-1.55.44-5.72,1.72-9.66,5.18-2,1.76-5.53,4.85-5.59,8.94-.03,1.91.68,4.86,5.53,8.98,12.48,10.6,30.78,10.54,36.83,10.45,1.16-.02,13.38-.31,25.77-5.69,3.12-1.36,7.7-3.67,10.58-8.47.92-1.53,2.44-4.08,1.84-6.91-.65-3.06-3.48-4.99-5.96-6.32-12.63-6.78-40.97-11.4-59.34-6.16Z"/>
  <path class="st3" d="M22.86,47.89c-1.55.44-5.72,1.72-9.66,5.18-2,1.76-5.53,4.85-5.59,8.94-.03,1.91.68,4.86,5.53,8.98,12.48,10.6,30.78,10.54,36.83,10.45,1.16-.02,13.38-.31,25.77-5.69,3.12-1.36,7.7-3.67,10.58-8.47.92-1.53,2.44-4.08,1.84-6.91-.65-3.06-3.48-4.99-5.96-6.32-12.63-6.78-40.97-11.4-59.34-6.16Z"/>
  <path class="st1" d="M70.62,30.95c.05,2.18-10.19,6.75-22.5,6.72-12.87-.03-23.37-2.2-23.44-5.55s10.3-6.3,23.17-6.59c12.87-.29,22.7,2.06,22.77,5.41Z"/>
  <path class="st3" d="M87.55,38.36c-.38-1.33-1.18-4.15-3.95-5.8-2.84-1.69-6.83-1.02-7.71-.57l-5.31,26.04c1.1-.05,10.1-.62,14.77-7.89.87-1.35,3.75-6.31,2.2-11.79ZM82.99,43.79c-.34,3.61-4.67,5.94-6.68,7.01-1.07.57-2.26.84-2.88,1.05l1.92-12.74c.54-.31,3.3-1.6,5.28-.78,2.22.93,2.5,3.98,2.36,5.45Z"/>
  <path d="M55.02,17.87c-6.32-.61-13.01-.49-19.13,1.24-3.05.85-6.14,2.02-9.04,3.28-2.88,1.28-5.54,3.07-6.76,5.76-.54,1-.23,2.64,0,4.22.62,4.87,1.11,9.6,2.53,14.31,1.31,6.33,4.29,11.91,9.86,15.3,10.33,6.35,26.33,6.93,34.95-2.6,6.6-7.38,6.65-17.95,7.31-27.34.15-1.54.24-3.19-.22-4.68-.36-1.58-1.59-2.55-2.76-3.54-.23-.19-.27-.53-.08-.76.19-.24.54-.27.77-.07.96.86,1.95,1.71,2.57,2.87.94,1.94.95,4.16.71,6.25-.48,13.28-1.22,28.14-15.31,34.18-12.08,4.89-28.97,1.75-36.31-9.67-1.89-2.81-2.74-6.21-3.55-9.41-1.59-5.55-2.12-11.35-2.78-17.06-.07-6.61,7.8-9.39,12.96-11.21,6.2-2.31,12.94-3.13,19.52-2.64,0,0,4.9.49,4.9.49.72.09.59,1.16-.13,1.08h0Z"/>
  <path d="M20.04,49.37c-4.88,2.25-13.27,8.57-11.34,14.62.65,2.01,2.15,3.78,3.78,5.32,3.35,3.06,7.27,5.56,11.53,7.26,12.9,5.03,27.48,5.4,40.9,2.26,6.59-1.77,13.67-3.68,18.7-8.52,1.61-1.62,2.92-3.59,3.86-5.68.04-.11.17-.16.28-.11.1.05.15.17.11.27-.92,2.18-2.19,4.2-3.83,5.93-5.03,5.06-12.18,7.22-18.87,9.1-13.64,3.44-28.47,3.2-41.7-1.85-6.05-2.51-13.83-7.03-16.25-13.5-1.68-5.13,2.63-9.57,6.26-12.47,1.88-1.49,3.97-2.71,6.2-3.55.26-.1.55.03.64.29.09.25-.03.52-.26.63h0Z"/>
  <path d="M75.82,31.86c9.22-3.17,14.43,5.65,12.16,13.84-1.42,5.69-6.09,10.28-11.67,12-1.37.47-2.79.79-4.23,1-.48.07-.97.12-1.47-.17-.28-.16-.38-.52-.22-.8.73-.83,1.89-.54,2.83-.82,2.65-.49,5.25-1.45,7.49-2.96,4.39-2.98,7.28-8.54,6.7-13.9-.65-6.23-5.34-9.71-11.44-7.93-.18.11-.34-.2-.14-.28h0Z"/>
  <path d="M82.11,39.26c4.11,6.33-3.03,11.46-8.53,13.07-.63.21-.94-.76-.3-.95,2.81-.71,5.44-2.15,7.55-4.12,2.19-1.92,2.55-5.38.97-7.76-.16-.19.16-.44.31-.24h0Z"/>
</svg>