<?xml version="1.0" encoding="UTF-8"?>
<svg id="_レイヤー_1" data-name="レイヤー_1" xmlns="http://www.w3.org/2000/svg" version="1.1" viewBox="0 0 100 100">
  <!-- Generator: Adobe Illustrator 30.0.0, SVG Export Plug-In . SVG Version: 2.1.1 Build 123)  -->
  <defs>
    <style>
      .st0 {
        fill: #ceb372;
      }

      .st1 {
        fill: #1c1917;
      }

      .st2 {
        fill: #fff;
      }
    </style>
  </defs>
  <path class="st2" d="M53.12,16.4c-9.02-.51-15.54,1.39-18.51,2.42-6.23,2.15-11.6,4-13.84,8.87-.7,1.51-.13,3.86.17,6.4.33,2.72.53,6.29,1.55,10.44,1.5,6.08,2.15,9.21,4.14,12.37.79,1.25,2.88,4.91,8.69,8.27,8.13,4.71,18.5,4.39,21.29,3.89,3.2-.57,8.57-1.51,13.57-6.14,6.9-6.39,8.09-15.45,8.78-23.97.32-3.95.32-5.64.56-7.93.18-1.75-.26-4.41-1.25-5.58-5.85-6.93-17.37-8.59-25.15-9.03Z"/>
  <path class="st2" d="M24.58,48.58c-1.63.45-5.98,1.76-10.13,5.35-2.1,1.82-5.81,5.03-5.9,9.3-.04,1.99.68,5.09,5.71,9.42,12.96,11.16,32.08,11.23,38.4,11.18,1.22-.01,13.98-.23,26.96-5.77,3.27-1.4,8.07-3.78,11.11-8.77.97-1.59,2.58-4.25,1.97-7.21-.66-3.2-3.6-5.23-6.18-6.64-13.15-7.17-42.72-12.2-61.95-6.86Z"/>
  <path class="st0" d="M73.21,33.02c-.02,2.07-9.9,6.1-21.61,5.7-12.24-.42-22.15-2.81-22.12-6s9.99-5.67,22.24-5.55,21.52,2.66,21.49,5.85Z"/>
  <path class="st2" d="M92.23,39.08c-.39-1.39-1.2-4.35-4.09-6.09-2.96-1.78-7.13-1.11-8.05-.65l-5.73,27.17c1.15-.05,10.56-.57,15.49-8.14.91-1.4,3.96-6.56,2.38-12.3ZM87.44,44.72c-.38,3.76-4.92,6.17-7.03,7.28-1.12.58-2.37.86-3.01,1.08l2.09-13.29c.57-.32,3.46-1.65,5.52-.77,2.32.99,2.58,4.18,2.43,5.71Z"/>
  <path class="st1" d="M66.1,66.58c5.66-3.17,9.54-8.25,11.51-14.4,1.91-5.95,2.19-12.31,2.57-18.5.15-2.53.58-5.1-.46-7.52-.99-2.28-3.63-4.06-5.7-5.27-4.9-2.87-10.67-4.09-16.26-4.72-6.73-.75-13.52-.56-20.09,1.14-1.07.27-.78,1.35.29,1.08,5.65-1.46,11.46-1.73,17.26-1.24,5.26.45,10.66,1.37,15.46,3.64,2.36,1.11,4.58,2.57,6.35,4.5s1.68,4.66,1.49,7.18c-.41,5.49-.56,11.02-1.74,16.43-1.51,6.93-5.07,13.22-11.42,16.77-1.03.58-.09,1.38.74.91h0Z"/>
  <path class="st1" d="M29.89,19.92c-2.69,1.05-5.38,2.3-7.5,4.31-.85.8-1.58,1.74-2.14,2.77-.72,1.33-.76,2.67-.61,4.15.69,6.72,1.7,13.3,3.54,19.81,1.09,3.86,2.89,7.42,5.72,10.3,4.41,4.49,10.31,7.01,16.44,8.06,5.48.94,10.94.78,16.27-.85,1.04-.32.77-1.4-.29-1.08-9.8,2.99-21.81,1.1-29.61-5.72-2.83-2.47-4.98-5.67-6.19-9.23-1.9-5.57-2.96-11.44-3.58-17.28-.17-1.64-.48-3.26-.61-4.9-.14-1.83.41-3.24,1.57-4.64,1.97-2.39,4.9-3.69,7.71-4.79,1.12-.44.12-1.25-.74-.91h0Z"/>
  <path class="st1" d="M38.89,22.2c7.93-1.74,16.57-1.69,24.43.42,2.81.76,5.71,1.8,8,3.64,1.42,1.14,2.74,2.86,2.24,4.79-.57,2.19-2.87,3.59-4.77,4.5-3.25,1.55-6.88,2.31-10.44,2.73-7.66.9-16.05.42-23.28-2.48-2.36-.95-5.32-2.39-6.46-4.83-1.64-3.52,2.5-5.98,5.17-7.17.27-.12.46-.28.21-.48s-.98.11-1.22.22c-2.55,1.13-6.56,3.23-6.26,6.6.21,2.34,2.52,4.01,4.38,5.06,3.21,1.8,6.88,2.78,10.48,3.4,4.42.76,8.94.96,13.42.67,4.05-.26,8.11-.92,11.96-2.22,2.62-.88,5.53-2.12,7.37-4.26,3.86-4.49-2.19-8.23-5.91-9.7-4.31-1.7-9.02-2.44-13.63-2.7-5.15-.29-10.36.04-15.4,1.15-.2.04-1.02.2-1.02.49,0,.3.5.24.7.19h0Z"/>
  <path class="st1" d="M79.92,51.2c-.61-.31-1.22-.61-1.85-.87-.2-.08-.46-.07-.66-.02s-.44.18-.57.35c-.1.14-.2.33-.14.51s.2.3.37.37c.63.26,1.24.56,1.85.87.18.09.48.07.66.02.2-.05.44-.18.57-.35.1-.14.2-.33.14-.51l-.08-.16c-.08-.1-.18-.17-.3-.22h0Z"/>
  <path class="st1" d="M76.61,79.68c5.6-2.05,11.24-4.75,14.61-9.9,1.63-2.49,3.14-5.49,2.2-8.53-.89-2.89-3.67-4.63-6.08-6.14-.48-.3-2.02.4-1.62.65,2.26,1.41,4.92,3.02,5.87,5.66,1.07,2.96-.37,5.92-1.97,8.37-3.18,4.86-8.38,7.34-13.66,9.28-.23.09-.68.33-.48.63s.92.06,1.14-.02h0Z"/>
  <path class="st1" d="M7.79,62.27c-.69,4.82,3.09,8.65,6.55,11.45,4.44,3.58,9.67,6.06,15.11,7.7,7.63,2.29,15.78,3.11,23.74,2.84,6.21-.21,12.42-1.28,18.39-2.95,1.02-.29.84-1.05-.2-.76-8.05,2.25-16.29,3.16-24.62,2.72-9.98-.53-20.33-2.83-28.66-8.6-4.01-2.78-9.36-7.14-8.57-12.64.09-.6-1.65-.28-1.73.25h0Z"/>
  <path class="st1" d="M21.1,49.32c-2.06.84-4.01,1.92-5.79,3.25-1.9,1.42-3.73,3.1-5.22,4.95-.25.32.22.43.45.43.38,0,.9-.14,1.15-.45,1.39-1.72,3.08-3.27,4.84-4.61,1.6-1.22,3.37-2.21,5.23-2.97.21-.09.71-.34.48-.63-.21-.27-.9-.07-1.14.02h0Z"/>
  <path class="st1" d="M91.36,39.31c1.18,4.52-.28,9.48-3.17,13.08s-6.9,5.38-11.19,6.18c-1.11.2-.75,1.45.33,1.25,4.71-.87,9.28-3.09,12.32-6.87s4.72-9.21,3.45-14.1c-.22-.84-1.96-.37-1.74.47h0Z"/>
  <path class="st1" d="M80.49,32.89s.07-.03.11-.05c.09-.04-.2.06-.03.01.12-.03.23-.07.35-.1.27-.07.55-.12.72-.14.76-.1,1.53-.15,2.29-.09,1.93.13,3.72.79,5.08,2.2.31.32.79.34,1.19.15.28-.14.72-.61.4-.93-1.63-1.69-3.75-2.57-6.08-2.73-1.54-.11-3.39-.08-4.81.61-.34.16-.64.57-.4.93s.85.31,1.19.15h0Z"/>
  <path class="st1" d="M85.06,48.19c-1.11,1.26-2.49,2.22-3.93,3.04-.59.34-1.19.69-1.82.95-.71.3-1.47.47-2.2.71-.15.05-.71.24-.53.47.17.21.94-.06,1.12-.11-.18.06.12-.04.12-.04.07-.02.14-.04.21-.06.23-.07.46-.14.7-.21.51-.16,1.01-.33,1.51-.54.73-.31,1.44-.7,2.13-1.09,1.56-.88,3.09-1.92,4.28-3.27.24-.28-.22-.27-.4-.25-.33.03-.93.13-1.17.41h0Z"/>
  <path class="st1" d="M80.15,39.79c.16-.09-.12.06.02-.01.07-.03.14-.07.21-.1.08-.04.17-.08.26-.11.05-.02.1-.04.14-.06-.07.03-.06.03.03-.01.48-.18.8-.29,1.29-.37,1.05-.18,2.12,0,2.94.71,1.39,1.19,1.69,3.4,1.53,5.12-.02.19,1.69.03,1.74-.47.15-1.56-.09-3.37-1.07-4.64-1.38-1.8-3.79-1.64-5.77-1.11-.91.24-1.82.57-2.64,1.03-.29.16-.21.33.09.35.41.02.88-.13,1.23-.33h0Z"/>
</svg>