<?xml version="1.0" encoding="UTF-8"?>
<svg id="_レイヤー_1" xmlns="http://www.w3.org/2000/svg" version="1.1" viewBox="0 0 100 100">
  <!-- Generator: Adobe Illustrator 30.0.0, SVG Export Plug-In . SVG Version: 2.1.1 Build 123)  -->
  <defs>
    <style>
      .st0 {
        fill: #1c1917;
      }

      .st1 {
        fill: #fff;
      }
    </style>
  </defs>
  <path class="st1" d="M51.93,16.72c-8.92-.41-15.35,1.53-18.28,2.58-6.14,2.19-11.43,4.07-13.6,8.91-.67,1.5-.09,3.82.23,6.33.35,2.68.59,6.21,1.64,10.31,1.54,5.99,2.22,9.09,4.22,12.19.79,1.23,2.9,4.82,8.67,8.09,8.09,4.57,18.34,4.16,21.1,3.63,3.16-.6,8.46-1.58,13.36-6.21,6.76-6.39,7.85-15.36,8.44-23.79.27-3.91.26-5.58.47-7.85.16-1.73-.3-4.36-1.29-5.51-5.86-6.8-17.27-8.32-24.96-8.67Z"/>
  <path class="st1" d="M24.03,48.83c-1.6.46-5.9,1.8-9.96,5.39-2.06,1.82-5.69,5.04-5.74,9.26-.02,1.97.72,5.02,5.74,9.26,12.93,10.91,31.84,10.78,38.09,10.67,1.2-.02,13.83-.37,26.6-5.98,3.22-1.41,7.94-3.82,10.9-8.79.94-1.58,2.51-4.23,1.88-7.15-.69-3.16-3.62-5.14-6.18-6.5-13.07-6.96-42.37-11.63-61.33-6.15Z"/>
  <path class="st0" d="M71.97,32.95c0,2.05-9.73,6.13-21.31,5.85-12.11-.3-21.94-2.56-21.94-5.71s9.82-5.71,21.94-5.71,21.31,2.42,21.31,5.57Z"/>
  <path class="st1" d="M90.84,38.75c-.4-1.37-1.23-4.29-4.1-5.98-2.94-1.74-7.06-1.03-7.97-.56l-5.39,26.93c1.13-.06,10.44-.67,15.24-8.2.89-1.4,3.85-6.53,2.23-12.19ZM86.15,44.38c-.34,3.73-4.8,6.15-6.88,7.27-1.1.59-2.33.88-2.97,1.09l1.93-13.17c.56-.32,3.4-1.67,5.45-.82,2.3.95,2.6,4.11,2.46,5.63Z"/>
  <g>
    <path d="M41.44,18.21c.36-.06.23-.39.6-.44.37-.05.62.22.99.17.36-.05.35-.18.71-.22.37-.04.41.26.77.22.36-.03.43-.3.79-.33.37-.03.2-.64.58-.66.37-.02.47.64.83.62.37-.02.45-.22.81-.22.37-.01.25.46.62.45.36,0,.36-.45.73-.45.37,0,.37.05.74.05.37,0,.39.32.75.33.37.01.43-.47.8-.46.37.01.69.45.72.45l.09-2s-.5.19-.88.18c-.38-.01-.37-.26-.75-.27-.38,0-.39.28-.76.28-.38,0-.37-.33-.75-.33-.38,0-.26.58-.63.59-.37.01-.5-.18-.88-.17-.38.01-.34-.14-.72-.12-.38.02-.41.27-.78.29-.38.02-.42-.39-.8-.36-.38.03-.33.47-.71.5-.37.04-.39-.1-.77-.06-.38.04-.4-.15-.78-.1-.38.05-.27.55-.64.61-.37.05-.47-.35-.85-.28-.37.06-.34.25-.71.32-.37.07-.52-.24-.81-.19l.39,1.96c.27-.05.18-.3.55-.37.36-.06.39.09.75.03Z"/>
    <path d="M30.1,21.55c.34-.13.15-.42.49-.56.35-.13.66.08,1.01-.05.35-.13.3-.25.65-.38.35-.13.46.16.81.03.35-.13.35-.4.7-.53.35-.12.04-.66.39-.78.35-.12.61.5.96.38.35-.11.38-.31.73-.42.35-.1.36.38.71.28.35-.1.24-.52.6-.62.36-.1.37-.04.73-.13.36-.09.45.22.81.14.36-.08.3-.56.66-.64.36-.08.78.28.8.28l-.39-1.96s-.44.29-.81.38c-.37.08-.42-.16-.8-.08-.37.09-.31.36-.68.45-.37.09-.44-.23-.81-.13-.37.1-.11.62-.47.72-.36.11-.53-.06-.89.06-.36.11-.36-.05-.73.07-.36.12-.33.36-.69.48-.36.12-.51-.28-.86-.15-.35.13-.2.53-.55.66-.35.13-.4,0-.75.12-.35.13-.42-.05-.77.08-.35.13-.14.6-.49.73-.35.13-.53-.24-.88-.1-.35.14-.28.32-.63.46-.35.14-.56-.13-.83-.02l.78,1.84c.25-.1.12-.33.46-.48.34-.14.4,0,.74-.13Z"/>
    <path d="M21.1,28.1c.16-.3-.19-.41,0-.71.2-.3.54-.31.76-.57.21-.27.1-.36.32-.63.24-.26.47-.06.7-.3.24-.24.13-.48.39-.72.26-.24-.21-.62.07-.86.3-.23.72.26,1.02.07.29-.2.26-.41.56-.6.31-.19.44.27.74.09.3-.18.09-.56.41-.73.32-.17.34-.13.67-.29.33-.16.49.12.81-.03.32-.15.17-.61.51-.76.33-.15.82.11.84.1l-.78-1.84s-.37.38-.72.54c-.35.16-.45-.08-.8.09-.35.17-.23.42-.57.59-.34.17-.49-.12-.83.07-.34.19.04.62-.29.82-.33.2-.54.09-.86.3-.32.22-.37.07-.69.29-.33.22-.21.46-.52.69-.31.24-.59-.08-.89.19-.3.28,0,.58-.27.86-.27.29-.37.19-.64.48-.25.31-.4.2-.65.52-.25.32.2.59,0,.91-.2.33-.59.15-.77.51-.18.36-.01.44-.19.81-.16.42-.51.44-.58.79l1.97.37c.04-.2-.22-.24-.13-.52.11-.27.28-.23.42-.52Z"/>
    <path d="M21.78,39.42c-.05-.37-.38-.24-.43-.61-.05-.37.23-.62.19-.99-.04-.37-.18-.35-.22-.72-.04-.37.26-.41.22-.79-.04-.37-.31-.43-.35-.8-.04-.37-.64-.19-.68-.56-.05-.37.61-.51.56-.89-.05-.38-.25-.44-.31-.81-.06-.37.42-.31.37-.68-.05-.36-.49-.31-.54-.67-.05-.36,0-.37-.04-.73-.04-.36.29-.4.26-.74-.02-.33-.5-.37-.49-.72,0-.36.49-.58.49-.58l-1.97-.37s.11.61.11,1.02c0,.41-.25.41-.23.82.03.4.3.38.35.77.04.38-.29.42-.23.8.05.38.61.18.66.55.06.37-.12.52-.07.88.05.36-.1.34-.05.71.05.36.29.37.34.74.04.37-.38.43-.34.79.04.37.48.31.52.68.04.37-.1.39-.06.76.04.37-.14.39-.1.77.05.37.55.27.59.65.05.37-.35.46-.3.84.05.37.24.35.3.72.06.37-.26.52-.22.8l1.97-.33c-.04-.27-.3-.19-.36-.56-.05-.37.1-.38.05-.75Z"/>
    <path d="M24.48,51c-.1-.35-.41-.18-.51-.54-.1-.36.14-.65.04-1.01-.1-.36-.23-.32-.32-.68-.1-.36.2-.45.11-.81-.09-.36-.37-.38-.46-.74-.09-.36-.66-.1-.75-.46-.09-.36.54-.58.45-.94-.09-.36-.29-.4-.39-.76-.09-.36.39-.35.3-.7-.09-.35-.52-.26-.6-.61-.08-.36-.03-.37-.11-.73-.07-.36.24-.44.17-.8-.07-.36-.56-.32-.62-.68-.07-.36.3-.77.3-.79l-1.97.33s.28.45.35.82c.07.37-.17.42-.1.79.07.37.35.32.43.69.08.37-.24.44-.16.81.09.37.62.13.71.49.09.37-.07.53.02.89.09.36-.07.36.03.72.09.36.34.34.43.7.09.36-.32.48-.23.84.09.36.51.24.61.61.09.36-.05.4.05.76.1.36-.09.41.01.77.1.36.58.19.68.55.1.36-.28.51-.17.87.11.36.3.31.41.67.11.36-.17.55-.08.83l1.89-.64c-.08-.26-.32-.14-.44-.49-.11-.35.04-.39-.07-.74Z"/>
    <path d="M30.34,60.79c-.26-.25-.44.05-.7-.2-.26-.26-.18-.63-.43-.89-.24-.27-.34-.18-.58-.45-.23-.28,0-.48-.22-.75-.22-.28-.48-.19-.69-.48-.21-.29-.64.15-.86-.15-.21-.31.32-.72.13-1.02-.21-.32-.4-.29-.59-.6-.19-.31.28-.43.11-.74-.17-.3-.55-.11-.72-.43-.16-.32-.11-.35-.26-.67-.14-.33.15-.48,0-.8-.13-.33-.6-.2-.73-.55-.13-.35.17-.8.16-.83l-1.89.64s.36.4.49.76c.14.36-.09.45.05.81.16.36.41.25.57.61.17.35-.14.49.04.84.18.35.63-.02.82.32.19.33.07.54.28.87.2.33.05.38.25.69.21.32.43.23.64.54.22.31-.13.57.1.89.23.32.58.04.81.35.24.3.13.39.38.69.25.29.11.41.37.71.27.28.61-.1.87.18.27.27.01.58.29.85.28.27.42.12.7.38.28.26.14.57.37.76l1.28-1.54c-.2-.17-.35.06-.63-.19-.27-.24-.16-.35-.43-.6Z"/>
    <path d="M40.36,66.52c-.35-.11-.38.24-.73.13-.35-.13-.44-.49-.78-.62-.34-.13-.39,0-.73-.13-.33-.15-.22-.43-.55-.58-.33-.14-.52.06-.85-.09-.32-.16-.49.44-.82.26-.33-.17-.07-.79-.38-.95-.32-.16-.49-.05-.8-.24-.32-.19.04-.52-.27-.7-.3-.19-.54.17-.85-.03-.31-.2-.28-.24-.58-.45-.3-.21-.12-.49-.42-.69-.29-.21-.61.14-.91-.08-.3-.22-.27-.78-.29-.79l-1.28,1.54s.51.17.82.39c.31.23.15.43.46.66.32.22.48,0,.79.22.31.22.13.48.45.7.32.21.54-.34.85-.13.32.19.33.42.65.62.33.19.21.31.55.48.34.18.49-.01.83.16.34.17.15.57.51.73.36.16.53-.25.88-.09.35.15.29.29.64.44.36.14.29.31.65.45.36.13.5-.36.85-.23.35.13.26.52.63.64.37.11.42-.07.79.04.36.11.36.47.64.54l.52-1.93c-.26-.07-.3.2-.65.09-.35-.11-.3-.25-.65-.36Z"/>
    <path d="M51.94,68.17c-.37,0-.28.35-.65.34-.37,0-.58-.32-.94-.33-.37,0-.37.12-.74.1-.37-.02-.36-.33-.72-.34-.36-.03-.47.22-.84.19-.37-.03-.31.59-.68.56-.37-.04-.35-.71-.71-.76-.36-.05-.48.13-.84.08-.36-.06-.16-.5-.52-.55-.36-.06-.44.37-.8.31-.36-.07-.35-.13-.71-.2-.36-.07-.31-.4-.67-.47-.35-.07-.51.37-.87.29-.36-.09-.58-.59-.6-.59l-.52,1.93s.53-.08.9.01c.37.09.31.35.69.42.38.08.44-.19.81-.12.37.07.3.4.68.47.38.06.36-.52.73-.46.37.06.46.28.83.34.38.05.31.19.69.24.38.05.45-.19.82-.14.38.03.35.46.73.49.38.03.41-.4.78-.37.38.02.37.16.75.18.38.02.37.21.75.22.38,0,.36-.5.73-.49.38,0,.41.42.79.41.38,0,.38-.2.76-.2.38-.02.49.32.78.3l-.1-2c-.27.01-.22.27-.59.29-.37.01-.37-.15-.73-.14Z"/>
    <path d="M63.22,65.64c-.33.15-.11.43-.44.58-.33.15-.65-.06-.98.08-.33.14-.29.25-.63.38-.34.13-.45-.16-.79-.05-.34.11-.35.39-.7.49-.35.1-.07.66-.43.76-.36.09-.57-.54-.93-.45-.35.08-.4.29-.76.36-.36.08-.33-.4-.68-.33-.36.07-.28.5-.65.57-.36.07-.38.02-.73.07-.34.06-.41-.27-.76-.23-.35.04-.36.52-.72.55-.37.03-.73-.38-.75-.38l.1,2s.48-.23.87-.26c.38-.03.4.22.79.18.39-.04.36-.32.75-.38.4-.06.44.26.81.19.37-.07.15-.61.52-.69.37-.07.53.09.9.02.37-.08.36.07.73-.01.37-.09.36-.34.72-.43.37-.1.49.31.86.2.37-.11.23-.53.6-.64.36-.12.41.02.77-.11.36-.13.43.05.79-.09.36-.15.13-.6.48-.75.35-.15.55.2.9.04.35-.16.26-.34.6-.52.34-.18.59.09.84-.07l-.97-1.75c-.23.13-.08.34-.4.51-.32.16-.38.03-.71.19Z"/>
    <path d="M71.81,58.13c-.2.3.12.42-.09.72-.21.3-.59.29-.8.58-.22.28-.12.36-.35.64-.23.28-.47.08-.7.36-.22.28-.11.5-.36.76-.25.26.26.6,0,.87-.26.26-.75-.17-1.02.06-.27.24-.21.44-.48.68-.28.24-.48-.21-.75.02-.28.22-.01.57-.3.79-.29.21-.33.17-.62.38-.29.21-.49-.05-.79.14-.3.19-.08.63-.39.82-.32.18-.82-.02-.84-.01l.97,1.75s.33-.43.67-.62c.32-.21.46,0,.79-.21.33-.21.18-.44.49-.67.31-.22.5.05.82-.18.31-.24-.14-.62.16-.86.29-.24.53-.15.81-.41.29-.26.35-.11.64-.37.29-.26.15-.47.42-.74.27-.27.58.02.85-.26.27-.28-.05-.56.19-.86.25-.29.36-.2.6-.49.24-.3.4-.17.64-.48.23-.32-.2-.59.02-.9.22-.31.58-.11.8-.42.21-.33.04-.43.24-.76.2-.33.54-.23.69-.48l-1.73-1c-.14.23.1.33-.09.64-.19.31-.32.22-.51.53Z"/>
    <path d="M75.85,47.27c-.07.36.28.34.22.71-.06.36-.43.51-.5.87-.08.36.05.39-.03.75-.09.36-.39.29-.48.64-.09.35.13.5.04.86-.1.35.51.41.4.77-.11.35-.76.2-.87.55-.11.35.03.49-.1.83-.13.34-.52.06-.64.39-.13.33.28.51.13.84-.15.33-.2.31-.35.64-.15.33-.44.22-.61.53-.17.32.24.58.07.91-.17.33-.7.41-.72.42l1.73,1s.07-.54.24-.88c.18-.34.4-.23.58-.57.18-.35-.08-.47.08-.82.16-.35.46-.21.62-.57.16-.35-.42-.47-.29-.82.13-.35.36-.4.5-.75.13-.36.27-.26.38-.63.12-.37-.1-.48.01-.84.11-.36.54-.25.63-.62.1-.37-.33-.48-.23-.84.09-.37.24-.33.33-.7.08-.37.27-.33.35-.7.08-.37-.42-.44-.34-.81.07-.37.47-.33.54-.7.07-.37-.12-.41-.05-.78.06-.37.4-.41.45-.69l-1.98-.3c-.04.27.22.28.17.64-.07.36-.22.33-.28.69Z"/>
    <path d="M77.02,35.42c-.02.37.32.31.3.68-.02.37-.34.57-.36.94-.02.37.11.38.09.75-.02.37-.33.36-.36.73-.03.37.23.48.2.85-.03.37.59.3.56.67-.03.37-.7.37-.73.74-.03.37.15.47.11.84-.03.37-.48.19-.52.56-.04.37.4.42.36.79-.04.37-.09.36-.14.73-.05.37-.37.35-.42.71-.05.36.43.48.37.85-.06.37-.53.64-.53.66l1.98.3s-.13-.52-.08-.89c.05-.37.3-.34.34-.72.05-.38-.23-.41-.18-.79.05-.37.37-.33.41-.71.04-.38-.54-.32-.51-.69.04-.37.25-.47.28-.84.03-.37.18-.32.21-.69.03-.37-.2-.44-.18-.81.03-.37.45-.35.48-.72.03-.37-.41-.4-.38-.77.02-.37.17-.36.19-.74.02-.37.21-.36.24-.74.02-.37-.49-.37-.47-.74.02-.37.43-.39.45-.76.02-.37-.17-.38-.16-.76.02-.37.36-.45.37-.73l-2-.1c-.01.28.25.26.23.63-.02.37-.17.36-.19.73Z"/>
    <path d="M75.11,24.82c.25.25.43-.04.68.22.25.26.17.62.41.88.18.22.28.13.44.4.15.28-.13.42-.01.71.11.29.38.29.47.63.08.33.66.09.73.45.07.36-.58.52-.53.86.04.34.23.41.25.76.02.35-.45.24-.45.57,0,.33.42.33.4.71-.03.38-.09.37-.12.75-.03.38-.35.38-.38.76-.02.38.46.46.44.83-.02.37-.46.7-.47.72l2,.1s-.18-.49-.16-.86c.02-.37.27-.35.29-.72.02-.37-.25-.39-.23-.75.03-.37.36-.33.39-.69.03-.39-.54-.33-.53-.72,0-.39.2-.52.18-.92-.03-.39.13-.36.08-.76-.06-.4-.3-.41-.38-.79-.08-.38.33-.49.22-.9-.12-.4-.53-.26-.67-.64-.16-.38-.02-.44-.22-.82-.22-.37-.08-.51-.38-.86-.27-.29-.62.08-.89-.19-.26-.28,0-.59-.27-.87-.28-.27-.42-.12-.71-.37-.29-.25-.15-.57-.37-.77l-1.26,1.56c.2.17.34-.05.62.18.27.23.17.35.44.58Z"/>
    <path d="M64.91,19.51c.35.11.37-.24.72-.14.35.11.47.47.81.57.35.12.39,0,.73.12.34.12.25.42.59.54.34.12.51-.08.85.06.33.14.47-.47.81-.32.34.15.12.76.44.93.32.16.48.04.81.2.33.16,0,.52.31.68.31.17.53-.2.84-.01.31.19.28.23.59.42.31.18.14.48.43.68.29.2.61-.16.9.05.31.2.29.76.3.77l1.26-1.56s-.52-.17-.84-.38c-.31-.22-.17-.43-.49-.66-.32-.23-.47,0-.8-.2-.33-.2-.15-.48-.49-.68-.34-.2-.52.36-.85.16-.34-.17-.35-.4-.7-.57-.34-.17-.23-.29-.58-.46-.35-.17-.49.05-.84-.11-.35-.15-.19-.55-.55-.7-.36-.15-.51.26-.86.13-.36-.13-.31-.26-.67-.39-.36-.13-.3-.31-.66-.43-.37-.11-.49.38-.85.27-.36-.11-.28-.51-.65-.62-.36-.11-.42.09-.78-.01-.37-.09-.37-.44-.65-.52l-.48,1.94c.26.07.29-.2.65-.1.36.09.31.24.67.33Z"/>
    <path d="M53.23,17.68c.37.02.31-.32.68-.29.37.03.56.35.93.38.37.03.38-.1.75-.07.37.04.35.34.71.38.37.04.48-.21.85-.16.37.04.33-.58.7-.53.37.04.33.71.7.77.36.05.48-.12.84-.06.37.06.16.49.52.55.36.06.44-.36.8-.3.36.07.35.12.72.18.36.07.31.4.67.48.36.08.51-.38.87-.3.36.07.59.59.61.59l.48-1.94s-.53.07-.9,0c-.37-.08-.32-.32-.69-.4-.37-.08-.43.19-.8.11-.37-.07-.3-.39-.68-.46-.37-.07-.36.52-.73.45-.37-.07-.46-.27-.83-.33-.37-.05-.31-.2-.68-.25-.37-.06-.45.18-.82.13-.37-.04-.33-.47-.71-.51-.38-.04-.42.39-.79.35-.37-.04-.36-.18-.73-.22-.37-.04-.36-.23-.73-.26-.38-.03-.38.48-.75.45-.37-.03-.38-.44-.76-.46-.38-.02-.39.17-.76.15-.37-.02-.45-.36-.73-.38l-.09,2c.28.02.25-.25.62-.23.37.02.36.17.73.19Z"/>
  </g>
  <g>
    <path d="M66.14,37.44c.36-.13.16-.42.51-.56.35-.15.67.06,1.02-.09.35-.16.29-.28.64-.44.34-.17.49.1.83-.08.34-.19.3-.46.63-.65.33-.2-.09-.66.22-.86.3-.21.73.32,1.05.08.31-.24.28-.44.57-.69.3-.26.5.19.8-.11.3-.29-.02-.61.24-.9.25-.32.3-.29.53-.63.22-.36.52-.22.71-.64.17-.43-.26-.64-.17-1.05.1-.39.51-.81.53-.84h-2s.2.35.12.65c-.09.28-.31.2-.42.45-.11.25.12.39-.04.66-.19.26-.44.06-.63.3-.21.23.3.55.05.79-.24.24-.46.17-.72.39-.26.22-.33.07-.6.27-.27.2-.18.42-.46.61-.3.19-.53-.18-.82,0-.3.17-.08.54-.39.72-.32.16-.38.03-.7.19-.32.15-.4-.02-.72.12-.32.14-.09.59-.43.73-.33.14-.52-.23-.85-.11-.33.13-.27.31-.61.42-.34.12-.53-.17-.78-.09l.61,1.9c.27-.08.15-.32.51-.45.36-.13.41.03.76-.11Z"/>
    <path d="M54.32,39.83c.37-.03.26-.36.64-.39.37-.04.62.26.99.22.37-.04.36-.18.73-.22.37-.04.42.26.79.21.37-.05.43-.32.79-.37.37-.06.16-.64.53-.7.36-.06.53.59.9.52.37-.07.42-.26.79-.34.37-.07.33.41.7.33.37-.08.28-.51.64-.59.36-.08.38-.03.74-.12.36-.09.47.22.83.12.37-.1.28-.58.64-.68.36-.11.82.19.84.19l-.61-1.9s-.38.34-.72.44c-.35.1-.41-.14-.75-.05-.34.09-.28.36-.63.45-.35.09-.42-.24-.77-.16-.35.08-.12.62-.47.7-.35.07-.51-.1-.86-.03-.35.07-.34-.09-.69-.03-.35.06-.35.31-.71.37-.36.06-.43-.36-.79-.31-.36.05-.29.48-.65.53-.36.05-.38-.09-.74-.05-.36.04-.38-.15-.74-.11-.36.04-.27.54-.64.57-.36.03-.43-.37-.79-.34-.36.03-.35.22-.71.25-.36.03-.47-.31-.74-.3l.1,2c.28-.01.23-.27.6-.29.37-.03.38.13.75.1Z"/>
    <path d="M42.31,39.49c.37.05.33-.3.7-.25.37.04.55.37.92.42.37.04.39-.1.76-.06.37.03.35.34.73.37.37.03.48-.23.85-.2.37.02.29-.6.66-.58.37.02.39.69.76.7.37.01.47-.17.84-.16.37.01.23.47.6.47.38,0,.38-.43.76-.43.37,0,.37.05.74.05.37,0,.4.33.77.31.38-.01.41-.49.78-.51.37-.01.74.39.76.39l-.1-2s-.46.24-.82.24c-.36.01-.37-.24-.73-.23-.36.01-.36.28-.72.29-.36,0-.36-.33-.72-.33-.36,0-.25.57-.62.57-.36,0-.47-.2-.84-.21-.36-.01-.31-.16-.67-.17-.36-.01-.41.22-.78.21-.36-.02-.35-.44-.71-.47-.36-.03-.38.41-.74.38-.36-.02-.35-.17-.71-.21-.36-.03-.34-.22-.7-.26-.36-.04-.38.47-.74.43-.36-.04-.35-.45-.7-.5-.36-.05-.38.15-.74.09-.36-.06-.39-.4-.66-.45l-.32,1.97c.28.04.28-.22.65-.16.37.06.34.21.72.26Z"/>
    <path d="M30.69,36.09c.34.18.42-.16.76,0,.33.17.41.53.76.7.35.15.4.02.75.17.35.15.25.43.61.56.36.14.53-.08.89.04.36.12.44-.49.79-.38.35.11.21.77.57.87.36.1.5-.05.86.05.36.1.11.51.48.6.37.09.48-.33.84-.24.36.08.35.14.72.22.37.07.32.4.69.47.37.08.51-.39.88-.33.36.07.64.55.66.55l.32-1.97s-.49.13-.85.06c-.35-.07-.31-.31-.66-.38-.35-.07-.41.2-.76.13-.35-.08-.27-.4-.62-.48-.35-.08-.38.5-.73.41-.35-.09-.41-.31-.76-.4-.34-.1-.26-.23-.61-.33-.34-.1-.45.11-.8,0-.34-.11-.21-.52-.55-.63-.33-.11-.48.3-.81.17-.33-.13-.29-.26-.61-.39-.33-.14-.26-.31-.58-.45-.32-.15-.5.33-.83.18-.32-.16-.17-.54-.48-.7-.3-.17-.4,0-.71-.17-.3-.18-.2-.51-.41-.65l-1.09,1.68c.25.16.36-.09.69.11.33.2.25.32.59.51Z"/>
    <path d="M28.29,25.51c-.31.26-.03.45-.31.72-.28.26-.67.22-.94.54-.25.34-.16.4-.38.76-.22.35-.49.22-.69.64-.16.44.03.61-.05,1.05-.09.45.57.38.53.76.02.37-.65.51-.56.96.11.44.32.48.49.86.18.38-.3.46-.07.85.24.38.61.12.85.45.27.3.21.35.5.63.28.28.08.54.39.8.31.27.66-.09.96.15.31.22.37.78.4.79l1.09-1.68s-.49-.07-.76-.28c-.27-.21-.12-.4-.37-.61-.25-.21-.43-.01-.67-.25-.24-.24.03-.46-.18-.69-.17-.24-.59.18-.78-.1-.18-.28-.05-.47-.17-.74-.1-.28.04-.3-.02-.57-.06-.27-.29-.28-.31-.58.03-.3.43-.26.49-.51.06-.25-.35-.38-.24-.67.13-.29.26-.22.42-.48.17-.27.34-.15.52-.39.22-.23-.2-.56.06-.81.25-.24.55.04.8-.18.25-.22.14-.36.42-.57.28-.21.55.04.76-.11l-1.08-1.68c-.25.16-.07.36-.39.58-.31.24-.41.1-.72.35Z"/>
    <path d="M39.61,21.02c-.37.07-.22.39-.59.46-.36.08-.64-.17-1.01-.09-.37.08-.33.22-.7.31-.36.09-.45-.21-.81-.1-.36.1-.38.37-.74.48-.36.11-.07.66-.42.77-.35.11-.61-.5-.97-.38-.36.12-.38.33-.73.46-.35.13-.39-.35-.75-.21-.36.15-.2.54-.54.7-.35.16-.37.1-.71.26-.34.17-.51-.12-.85.06-.34.19-.16.63-.49.82-.32.19-.86.01-.88.03l1.08,1.68s.27-.41.57-.59c.31-.17.43.05.73-.11.31-.15.19-.4.51-.56.32-.15.46.16.77.02.32-.14,0-.62.34-.76.33-.14.51.01.85-.11.34-.12.35.03.68-.08.34-.11.3-.36.65-.47.35-.11.48.3.82.2.34-.1.22-.51.56-.61.35-.1.39.05.73-.04.35-.09.39.09.74.01.35-.08.2-.57.56-.65.36-.08.47.32.83.25.35-.07.32-.26.67-.32.36-.06.5.25.77.21l-.33-1.97c-.28.05-.2.3-.57.37-.37.07-.39-.09-.76-.02Z"/>
    <path d="M51.59,20.07c-.37,0-.3.33-.67.33-.37,0-.59-.33-.96-.32-.37,0-.37.14-.75.14-.37,0-.39-.3-.76-.29-.37.01-.45.27-.83.29-.37.02-.23.62-.6.64-.37.02-.46-.65-.83-.62-.37.03-.45.22-.82.24-.37.03-.28-.44-.65-.41-.37.04-.34.46-.71.51-.37.04-.38-.01-.75.03-.37.04-.43-.27-.8-.22-.37.05-.36.53-.72.59-.37.06-.78-.31-.8-.31l.33,1.97s.43-.28.79-.33c.36-.06.39.2.75.15.36-.05.32-.33.68-.37.36-.04.39.29.75.25.36-.04.19-.6.55-.63.36-.03.49.15.85.12.36-.03.33.13.69.1.36-.03.39-.27.75-.29.36-.02.39.41.75.39.36-.01.34-.45.7-.46.36,0,.37.13.73.13.36,0,.36.19.73.18.36,0,.33-.51.69-.5.36,0,.39.42.76.42.36,0,.37-.19.73-.18.36,0,.44.35.71.37l.09-2c-.28-.01-.25.24-.63.24-.37,0-.36-.16-.74-.17Z"/>
    <path d="M63.51,21.69c-.36-.1-.37.25-.74.16-.36-.09-.5-.44-.87-.53-.37-.08-.39.03-.76-.03-.37-.07-.32-.37-.69-.44-.37-.07-.51.17-.87.1-.37-.07-.36.56-.72.5-.36-.05-.32-.72-.69-.77-.37-.05-.48.12-.85.06-.37-.05-.18-.49-.55-.53-.37-.04-.43.39-.8.36-.37-.04-.37-.09-.74-.13-.37-.04-.36-.36-.74-.38-.37-.02-.46.45-.83.43-.37-.02-.69-.47-.72-.47l-.09,2s.48-.18.84-.16c.36.02.34.27.7.29.36.02.38-.26.74-.22.36.04.32.37.68.4.36.04.31-.55.67-.51.36.04.45.24.81.3.36.05.29.2.65.25.36.05.43-.18.79-.13.36.05.3.47.65.54.35.07.42-.36.78-.3.36.07.33.21.68.28.36.06.31.26.66.34.35.08.43-.42.79-.33.35.09.29.49.63.57.34.1.4-.08.74.02.35.1.33.45.59.53l.6-1.91c-.27-.08-.31.18-.68.07-.36-.11-.31-.25-.68-.36Z"/>
    <path d="M73.82,28.37c-.18-.41-.42-.2-.62-.55-.22-.33-.09-.72-.34-1.06-.28-.3-.38-.21-.66-.51-.27-.3-.08-.52-.39-.78-.31-.26-.55-.11-.86-.36-.33-.21-.58.35-.89.15-.31-.2,0-.8-.33-1.01-.34-.18-.51-.06-.85-.24-.34-.18,0-.53-.35-.71-.35-.16-.54.24-.89.08-.35-.15-.33-.2-.67-.35-.35-.15-.25-.44-.61-.58-.36-.13-.57.31-.92.18-.35-.13-.56-.63-.58-.64l-.6,1.91s.51-.07.84.06c.34.12.25.36.58.48.33.13.44-.15.77,0,.33.14.19.45.51.59.32.14.46-.43.79-.28.32.16.33.4.64.56.31.16.2.28.51.44.29.19.45,0,.74.2.29.2.07.54.33.74.25.21.52-.14.79.08.27.22.18.32.39.56.23.24.08.37.3.6.17.25.56-.07.75.21.2.28-.15.5-.06.77.09.27.34.2.37.51.04.3-.29.4-.26.59h2c-.04-.35-.29-.29-.35-.73-.05-.44.07-.47-.09-.89Z"/>
  </g>
  <path d="M79.66,50.97c-.66-.33-1.33-.64-2.01-.91-.13-.03-.27-.04-.41-.03-.17,0-.34.01-.51.05-.37.06-.77.18-1.1.35l-.27.15c-.13.07-.24.18-.32.3l-.02.14c.05.11.14.17.26.18.03.01.07.03.1.04l-.18-.07c.59.24,1.17.51,1.74.8.23.11.49.11.74.1.37-.03.78-.12,1.13-.25l.33-.14c.17-.08.33-.18.48-.3.09-.1.24-.3.05-.39h0Z"/>
  <g>
    <path d="M20.84,50.88c.09-.14.16-.31.17-.48.02-.17-.02-.34-.09-.51-.07-.17-.18-.3-.32-.4-.14-.1-.29-.21-.47-.23-.17-.02-.36.03-.52.11l.84,1.81c.15-.07.29-.18.38-.31Z"/>
    <path d="M12.47,56.98c.24-.25-.06-.43.19-.68.25-.25.61-.17.87-.41.26-.24.17-.34.43-.58.26-.24.48-.02.74-.26.26-.23.15-.48.41-.71.27-.22-.21-.63.07-.85.28-.22.73.27,1.01.06.28-.21.24-.41.52-.61.29-.2.45.25.73.06.29-.19.05-.56.35-.74.3-.19.33-.13.63-.31.3-.17.48.1.78-.06.3-.16.12-.61.44-.77.32-.16.79.09.81.09l-.84-1.81s-.35.39-.68.56c-.33.17-.44-.05-.77.13-.33.18-.19.43-.52.61-.32.19-.49-.1-.8.1-.32.2.09.62-.22.82-.31.2-.51.11-.82.32-.3.22-.36.06-.65.29-.3.23-.18.44-.47.67-.29.23-.56-.09-.85.15-.28.25.01.57-.26.81-.27.24-.36.13-.63.38-.27.25-.4.11-.66.36-.27.25.11.6-.15.85-.26.25-.57,0-.83.26-.26.27-.11.4-.36.68-.25.27-.56.13-.75.35l1.54,1.28c.17-.19-.06-.34.17-.6.24-.26.34-.15.58-.4Z"/>
    <path d="M9.91,66.46c-.14-.29-.41-.1-.55-.41-.12-.32.11-.6.03-.9-.09-.31-.2-.28-.27-.6-.04-.32.26-.36.24-.67-.01-.3-.27-.38-.25-.71.03-.32-.61-.28-.55-.63.07-.35.7-.28.79-.58.08-.31-.09-.44.03-.76.12-.31.49-.04.62-.33.13-.29-.27-.48-.11-.78.16-.3.2-.27.38-.56.18-.29.46-.13.64-.4.19-.27-.18-.6.04-.87.21-.28.75-.25.76-.27l-1.54-1.28s-.15.51-.38.81c-.23.3-.42.16-.65.48-.22.32.02.48-.18.8-.19.33-.47.17-.66.52-.18.35.4.5.24.84-.16.34-.37.39-.5.76-.12.37-.24.29-.35.67-.11.39.15.48.08.86-.06.38-.46.35-.5.77-.03.41.42.4.44.79.02.39-.11.4-.06.8.08.39-.12.43-.02.82.1.4.59.2.7.56.13.35-.23.54-.08.9.17.35.34.27.52.6.19.33-.07.59.1.83l1.7-1.06c-.14-.21-.34-.05-.51-.34-.17-.29-.02-.37-.17-.66Z"/>
    <path d="M17.64,74.29c-.3-.19-.42.13-.72-.06-.29-.21-.27-.59-.54-.81-.28-.21-.36-.11-.64-.32-.28-.22-.1-.46-.37-.68-.28-.21-.51-.06-.79-.28-.26-.23-.58.3-.85.07-.27-.24.13-.76-.12-1-.25-.24-.44-.16-.7-.4-.25-.25.17-.49-.07-.73-.24-.25-.57.06-.8-.21-.23-.26-.19-.3-.42-.55-.22-.27.02-.49-.19-.75-.21-.26-.61-.02-.82-.3-.2-.29,0-.79-.01-.8l-1.7,1.06s.43.32.66.61c.22.3.01.46.25.76.24.3.45.12.69.41.25.28,0,.49.25.78.25.28.6-.2.85.06.26.26.19.49.46.74.27.25.13.33.4.59.27.25.47.09.74.34.28.24,0,.58.29.81.29.23.56-.12.85.11.29.22.2.34.49.56.29.22.18.37.47.6.29.23.56-.21.85.01.29.22.1.56.4.76.31.2.42.04.72.24.31.2.2.53.43.68l1.06-1.69c-.22-.14-.33.1-.63-.09-.3-.19-.21-.32-.51-.51Z"/>
    <path d="M27.81,79.27c-.34-.11-.37.23-.71.11-.33-.13-.42-.49-.75-.61-.33-.12-.38,0-.71-.12-.33-.13-.23-.41-.56-.54-.32-.13-.5.06-.82-.08-.32-.15-.47.46-.8.31-.33-.15-.1-.78-.42-.92-.32-.14-.48-.01-.8-.16-.32-.15,0-.52-.31-.68-.31-.17-.51.22-.83.05-.31-.17-.29-.22-.6-.38-.31-.17-.17-.46-.48-.63-.31-.16-.6.23-.89.03-.3-.19-.35-.74-.37-.75l-1.06,1.69s.51.08.82.28c.31.2.19.4.51.58.32.18.46-.06.78.11.32.17.16.46.48.64.32.17.49-.39.81-.22.32.17.33.42.66.56.33.15.23.27.56.42.33.15.47-.05.81.1.33.15.17.54.5.7.34.15.49-.25.83-.11.34.13.29.26.63.39.34.13.27.31.62.43.34.13.49-.36.82-.23.34.13.24.53.58.65.35.11.41-.08.76.03.35.11.33.46.59.54l.6-1.91c-.25-.08-.3.18-.64.08-.34-.11-.29-.25-.63-.36Z"/>
    <path d="M38.93,81.83c-.35-.05-.32.3-.68.25-.35-.06-.51-.4-.86-.46-.35-.06-.37.08-.73.02-.35-.06-.31-.36-.66-.42-.35-.06-.48.17-.83.1-.35-.07-.36.55-.71.48-.35-.07-.26-.74-.61-.81-.35-.07-.47.09-.82.02-.35-.09-.12-.51-.46-.6-.34-.09-.45.33-.8.25-.34-.09-.33-.14-.68-.23-.34-.09-.28-.41-.62-.49-.34-.1-.52.34-.86.24-.34-.11-.53-.62-.55-.62l-.6,1.91s.51-.06.86.05c.35.11.28.35.63.45.36.09.43-.18.78-.08.35.09.26.41.62.5.35.09.39-.49.74-.4.35.09.41.32.77.4.35.07.28.21.64.29.36.07.45-.15.8-.08.36.07.28.49.64.57.36.07.43-.35.79-.29.36.06.33.2.69.26.36.06.33.25.69.3.36.06.4-.45.76-.39.36.06.33.46.7.51.36.05.39-.15.75-.1.36.05.41.39.68.43l.23-1.99c-.26-.03-.26.23-.62.19-.36-.04-.33-.2-.68-.24Z"/>
    <path d="M50.37,82.53c-.36,0-.28.34-.64.34-.36,0-.57-.31-.92-.32-.36,0-.36.13-.72.12-.36,0-.36-.31-.72-.32-.36-.01-.45.24-.81.23-.36-.01-.27.6-.63.59-.36-.02-.38-.68-.73-.7-.35-.02-.45.16-.81.13-.36-.02-.2-.48-.55-.5-.35-.02-.39.42-.75.39-.36-.03-.35-.09-.71-.12-.36-.03-.34-.36-.7-.39-.35-.03-.45.44-.81.41-.36-.04-.63-.51-.66-.51l-.23,1.99s.49-.14.85-.11c.36.03.33.28.7.32.36.03.39-.24.75-.21.36.03.33.36.69.4.36.03.3-.56.66-.53.36.02.46.23.82.25.36.02.31.17.67.2.36.02.42-.22.78-.21.36.01.35.44.72.45.36.01.37-.42.73-.41.36,0,.36.15.72.16.36,0,.36.2.72.2.36,0,.33-.5.69-.5.36,0,.4.41.76.41.36,0,.36-.19.72-.2.36,0,.45.33.73.33l-.03-2c-.27,0-.23.27-.59.27-.36,0-.36-.15-.71-.15Z"/>
    <path d="M61.76,81.49c-.35.06-.22.38-.57.44-.35.06-.61-.22-.96-.17-.35.05-.33.19-.69.24-.35.05-.4-.25-.76-.21-.35.05-.4.31-.76.36-.35.04-.17.64-.53.68-.36.04-.48-.62-.83-.58-.35.04-.42.23-.78.26-.36.03-.27-.44-.62-.41-.35.03-.32.47-.68.49-.36.02-.36-.03-.71,0-.35.02-.39-.3-.74-.29-.35.01-.38.5-.74.51-.35.01-.7-.42-.72-.42l.03,2s.46-.21.83-.22c.37-.02.37.24.74.22.37-.02.35-.3.72-.32.36-.03.38.31.74.28.36-.03.21-.59.57-.62.36-.03.49.16.85.12.36-.03.33.12.69.08.36-.04.38-.28.74-.32.36-.04.42.38.78.33.36-.05.3-.48.66-.52.36-.05.38.1.74.04.36-.05.39.13.75.08.36-.05.25-.55.6-.6.36-.06.46.34.82.27.36-.06.32-.25.68-.32.36-.06.51.26.77.2l-.37-1.97c-.26.05-.18.3-.53.36-.35.06-.38-.09-.73-.03Z"/>
    <path d="M72.87,78.73c-.34.11-.16.41-.5.52-.34.11-.63-.12-.97,0-.34.1-.3.23-.65.33-.34.1-.44-.19-.78-.09-.34.1-.35.37-.69.47-.34.1-.08.65-.43.74-.35.09-.57-.54-.91-.45-.34.09-.38.29-.73.38-.35.09-.33-.4-.68-.32-.35.08-.25.5-.6.58-.35.08-.36.03-.71.11-.35.08-.43-.24-.78-.17-.35.07-.3.55-.65.62-.35.07-.76-.29-.78-.28l.37,1.97s.42-.3.78-.37c.36-.07.4.17.76.1.36-.07.3-.34.66-.42.35-.08.42.25.77.16.35-.08.12-.62.47-.7.35-.08.51.09.86,0,.35-.09.35.07.7-.02.35-.09.33-.33.68-.43.35-.09.47.33.82.22.35-.1.22-.52.57-.62.35-.1.39.04.74-.06.35-.1.4.08.75-.02.35-.11.16-.59.5-.7.34-.11.5.26.85.15.35-.11.28-.3.63-.41.34-.11.54.17.8.08l-.67-1.88c-.25.09-.13.33-.47.45-.34.11-.39-.04-.72.08Z"/>
    <path d="M83.19,74.06c-.29.19-.04.43-.34.62-.3.19-.64.03-.94.21-.3.18-.24.29-.54.46-.31.17-.46-.1-.77.06-.31.16-.27.43-.58.58-.32.15.05.66-.28.81-.33.15-.65-.43-.97-.29-.32.15-.33.35-.66.48-.33.14-.39-.34-.72-.2-.33.14-.17.54-.5.68-.33.14-.35.09-.68.22-.33.13-.47-.17-.8-.05-.33.12-.21.59-.55.71-.34.12-.79-.17-.81-.16l.67,1.88s.37-.36.71-.48c.34-.13.43.11.77-.02.34-.13.25-.38.58-.52.34-.14.45.17.79.03.34-.14.02-.63.35-.77.33-.14.52,0,.85-.14.33-.14.36.02.69-.13.33-.15.27-.39.6-.54.33-.15.52.22.85.06.33-.16.13-.55.45-.72.33-.17.39-.04.72-.22.32-.18.42,0,.74-.2.32-.19.03-.6.34-.8.31-.2.56.13.87-.07.31-.21.2-.37.5-.58.3-.21.57,0,.8-.17l-1.21-1.6c-.21.15-.02.35-.3.55-.29.2-.37.07-.66.27Z"/>
    <path d="M90.19,65.69c-.13.31.22.38.07.69-.15.32-.52.36-.68.66-.16.3-.05.37-.22.67-.18.3-.45.16-.63.46-.18.28,0,.49-.19.78-.18.29.37.54.16.83-.21.29-.77-.06-.98.2-.22.27-.13.45-.34.72-.23.26-.5-.14-.72.11-.23.25.09.56-.16.8-.25.24-.28.21-.53.45-.26.23-.49,0-.74.23-.25.23.01.62-.26.84-.27.23-.79.07-.81.09l1.21,1.6s.26-.45.55-.69c.29-.24.45-.04.73-.29.28-.25.1-.46.37-.71.26-.26.49-.02.76-.29.27-.27-.23-.59.02-.86.24-.27.48-.22.72-.51.23-.29.33-.16.56-.45.23-.3.06-.48.28-.78.22-.3.58-.06.78-.39.21-.32-.17-.55.03-.86.19-.31.31-.24.5-.56.18-.32.35-.23.53-.56.18-.33-.29-.54-.13-.86.15-.34.55-.2.7-.55.15-.35-.04-.43.09-.79.12-.36.47-.36.55-.65l-1.94-.5c-.06.23.2.27.1.59-.11.32-.25.26-.37.57Z"/>
    <path d="M86.79,56.95c.29.2.42-.13.71.08.29.2.26.58.53.79.26.22.35.11.6.34.25.23.05.45.27.69.23.23.46.12.68.36.19.26.63-.2.83.09.2.3-.34.69-.2.96.15.27.34.27.46.57.1.31-.36.34-.28.63.08.28.5.2.56.52.05.32-.02.33.01.65,0,.32-.31.34-.34.64-.01.3.44.4.4.74-.06.34-.55.53-.56.54l1.94.5s-.07-.55-.02-.94c.05-.39.31-.36.33-.78.03-.41-.27-.42-.27-.82-.04-.4.31-.43.24-.84-.07-.41-.6-.18-.7-.55-.09-.37.04-.55-.09-.93-.17-.36,0-.39-.19-.75-.19-.36-.43-.27-.65-.6-.23-.31.11-.58-.15-.9-.27-.31-.58,0-.85-.28-.27-.27-.17-.37-.45-.63-.29-.25-.17-.39-.46-.64-.3-.23-.58.19-.87-.03-.3-.21-.09-.57-.4-.78-.31-.21-.41-.05-.72-.25-.31-.2-.2-.53-.44-.68l-1.06,1.69c.22.14.34-.1.63.09.3.19.21.32.5.52Z"/>
    <path d="M85.21,55.48c0,.17.06.34.13.48.07.14.17.28.31.37h0s1.06-1.69,1.06-1.69h0c-.15-.09-.32-.16-.49-.16-.17,0-.35.05-.5.14-.14.08-.28.21-.37.36-.09.15-.15.33-.15.5Z"/>
  </g>
  <g>
    <path d="M78.93,31.22c-.13.13-.23.31-.27.49-.03.17.02.34.1.5.08.16.2.29.32.4.11.11.24.24.37.29.13.05.28.04.42,0l-.45-1.95c-.19.04-.36.13-.49.26Z"/>
    <path d="M89.37,33.84c-.25-.29-.45,0-.71-.26-.26-.26-.22-.63-.52-.88-.31-.23-.38-.13-.7-.33-.32-.2-.16-.48-.52-.66-.35-.19-.55.02-.9-.13-.35-.15-.45.49-.79.37-.33-.11-.21-.75-.58-.85-.37-.08-.49.09-.85.03-.36-.04-.18-.49-.56-.53-.38-.02-.41.41-.77.4-.36,0-.37-.07-.73-.05-.36.01-.4-.31-.78-.28-.38.03-.37.52-.73.57-.35.05-.79-.29-.81-.28l.45,1.95s.35-.29.67-.33c.32-.04.34.2.66.18.31-.03.3-.3.62-.31.32-.01.32.33.63.33.31.01.24-.56.57-.54.33.03.41.24.72.28.31.06.25.19.56.26.3.08.4-.16.71-.06.3.1.17.5.44.61.27.11.45-.29.73-.14.28.14.2.27.46.44.27.16.14.33.39.51.24.19.54-.21.79,0,.23.23-.03.53.17.76.2.23.36.11.54.36.2.25-.05.52.08.7l1.69-1.07c-.16-.24-.35-.07-.57-.37-.23-.3-.1-.4-.35-.69Z"/>
    <path d="M91.91,45.12c.08-.36-.28-.34-.22-.7.05-.35.4-.52.42-.89.03-.37-.1-.38-.08-.74,0-.36.31-.37.32-.74,0-.37-.28-.45-.3-.82-.03-.37-.62-.2-.66-.55-.05-.34.6-.49.55-.86-.06-.36-.28-.41-.36-.76-.09-.35.4-.35.3-.71-.1-.34-.52-.23-.63-.56-.11-.34-.06-.36-.19-.7-.13-.34.16-.48.01-.83-.16-.35-.61-.18-.78-.5-.17-.32.01-.84,0-.86l-1.69,1.07s.39.23.53.52c.15.28-.08.39.05.67.12.29.38.18.5.49.11.31-.2.41-.11.71.1.31.62.05.71.37.09.33-.09.48,0,.79.07.32-.07.31-.02.62.05.32.29.32.34.64.04.33-.4.37-.37.69.02.31.47.29.46.62,0,.33-.15.33-.15.65-.02.33-.21.31-.24.63-.03.32.49.35.43.68-.05.33-.45.3-.51.62-.07.32.12.36.05.68-.08.32-.43.31-.49.55l1.93.54c.07-.26-.19-.3-.1-.65.08-.35.23-.32.3-.68Z"/>
    <path d="M86.17,55.1c.27-.25-.02-.45.24-.69.26-.25.64-.16.89-.42.24-.27.14-.37.38-.64.24-.27.48-.08.72-.36.23-.29.06-.53.28-.82.21-.3-.35-.56-.15-.84.2-.28.79.04.98-.28.18-.31.07-.48.24-.79.17-.31.52.02.69-.31.17-.33-.23-.53-.07-.85.15-.32.19-.31.34-.63.14-.33.44-.23.58-.57.13-.34-.31-.55-.2-.89.12-.33.61-.54.62-.56l-1.93-.54s.09.46-.02.78c-.1.31-.34.23-.45.53-.12.3.15.41.01.71-.13.3-.43.17-.57.46-.14.29.43.46.27.75-.15.3-.38.3-.54.59-.16.29-.28.18-.44.46-.17.28.01.44-.18.71-.19.27-.55.03-.73.29-.19.26.17.53-.04.79-.22.25-.33.16-.55.4-.22.25-.36.12-.57.36-.23.23.15.56-.09.79-.25.23-.54-.05-.78.18-.23.23-.13.36-.38.57-.26.2-.53-.01-.72.14l1.19,1.61c.22-.17.03-.36.31-.58.28-.23.39-.09.66-.33Z"/>
    <path d="M75.7,59.78c.35-.06.22-.39.57-.45.35-.06.61.19.96.11.35-.08.32-.21.66-.3.34-.09.43.2.78.1.35-.1.35-.38.69-.49.34-.11.04-.65.36-.77.32-.13.61.48.94.35.33-.13.35-.33.67-.48.32-.15.4.33.73.17.33-.16.15-.54.46-.71.31-.17.34-.12.65-.3.31-.17.5.1.81-.1.31-.2.09-.63.38-.83.3-.18.82-.05.84-.07l-1.19-1.61s-.21.43-.49.6c-.28.18-.41-.03-.68.15-.27.18-.14.41-.43.57-.29.16-.44-.13-.73.02-.28.16.06.62-.24.76-.3.14-.48,0-.78.15-.3.14-.33-.03-.63.1-.31.12-.26.36-.57.48-.32.11-.46-.29-.78-.19-.31.1-.17.53-.5.62-.32.09-.36-.05-.68.04-.32.09-.37-.1-.69-.03-.32.07-.18.57-.51.64-.33.06-.44-.33-.77-.27-.33.06-.3.24-.63.29-.33.05-.45-.28-.7-.25l.21,1.99c.27-.03.2-.29.56-.33.35-.05.37.1.73.05Z"/>
    <path d="M73.53,59.64c.09.14.24.24.39.32.15.07.31.13.49.1h0s-.21-1.99-.21-1.99h0c-.16.02-.31.07-.43.16-.12.1-.22.25-.29.4-.07.15-.1.33-.09.51,0,.18.06.36.15.5Z"/>
  </g>
  <g>
    <path d="M78.3,38.56c-.11.15-.18.33-.2.51-.02.17.04.34.14.5.09.16.22.27.35.37.14.1.29.2.45.22.15.02.32-.02.47-.08l-.76-1.85c-.18.07-.35.19-.46.34Z"/>
    <path d="M87.07,43.71c0-.41-.34-.31-.37-.7-.03-.39.24-.66.17-1.07-.08-.41-.22-.37-.33-.77-.14-.39.16-.51-.02-.92-.2-.4-.47-.38-.71-.73-.25-.36-.67.14-.91-.15-.27-.25.1-.82-.3-1.08-.41-.23-.58-.12-1-.25-.42-.12-.16-.53-.63-.61-.47-.06-.5.39-.91.38-.41.02-.42-.04-.82.01-.4.06-.48-.26-.89-.16-.41.1-.33.58-.69.7-.37.12-.86-.14-.89-.13l.76,1.85s.33-.36.66-.46c.33-.1.39.14.71.07.31-.07.27-.34.59-.39.33-.04.35.3.64.28.28.01.22-.58.55-.54.32.05.38.26.64.35.27.1.17.24.4.36.22.14.39-.02.62.19.2.24-.12.5.03.72.14.23.53.02.67.31.14.3-.01.35.09.66.09.32-.09.36-.03.67.05.32.56.21.6.56.03.35-.37.41-.36.74,0,.33.2.34.17.67-.04.33-.4.34-.43.56l1.95.45c.06-.33-.21-.33-.14-.75.04-.41.19-.4.2-.81Z"/>
    <path d="M78.87,52.82c.37-.16.15-.43.51-.61.35-.18.67,0,1.01-.19.33-.18.26-.3.59-.49.33-.19.49.07.82-.14.33-.21.27-.47.58-.69.32-.22-.13-.65.17-.87.3-.22.75.28,1.05.03.31-.24.25-.45.54-.71.29-.26.5.17.79-.12.29-.29-.03-.6.22-.9.26-.3.29-.28.53-.6.24-.32.5-.19.73-.56.21-.38-.22-.65-.06-1.01.13-.37.65-.65.66-.68l-1.95-.45s.1.43-.02.73c-.14.29-.33.19-.49.46-.16.27.09.42-.11.69-.2.27-.45.07-.66.31-.21.24.29.56.05.81-.24.25-.46.19-.72.42-.26.23-.33.09-.59.31-.27.22-.16.43-.44.64-.28.21-.54-.14-.83.06-.29.19-.05.55-.35.75-.31.19-.38.06-.69.25-.31.18-.4.02-.72.19-.31.17-.04.6-.37.78-.32.17-.52-.19-.82-.05-.31.13-.24.31-.57.43-.33.12-.52-.18-.77-.1l.59,1.91c.28-.09.16-.32.53-.45.37-.13.42.02.79-.13Z"/>
    <path d="M76.58,53.18c.12.12.29.18.45.22.16.04.34.05.51,0h0s-.59-1.91-.59-1.91h0c-.16.05-.32.14-.44.26-.12.13-.2.3-.24.47-.04.17-.03.35.03.52.06.17.16.33.28.44Z"/>
  </g>
</svg>