<?xml version="1.0" encoding="UTF-8"?>
<svg id="_レイヤー_1" xmlns="http://www.w3.org/2000/svg" version="1.1" viewBox="0 0 100 100">
  <!-- Generator: Adobe Illustrator 30.0.0, SVG Export Plug-In . SVG Version: 2.1.1 Build 123)  -->
  <defs>
    <style>
      .st0 {
        fill: #ceb372;
      }

      .st1 {
        fill: #1c1917;
      }
    </style>
  </defs>
  <g>
    <path class="st0" d="M29.37,41.94c.24.68-2.72,7.2-2.69,13.58.02,5.08.19,7.61,1.19,10.54.53,1.54,5.31,9.22,6.28,10.59,2.6,3.69,1.97,5.61,3.43,7.91,3.29,5.17,21.75,8.8,27.74-6.78,1.02-2.66.33-2.93,1.2-6.14.63-2.33,1.42-4.17,2.01-5.39,0,0,4.69-9.03,4.62-10.06-.07-1.03-.14-5.44-.57-6.94-1.13-3.98-2.17-7.23-3.23-9.32"/>
    <path class="st0" d="M28.01,73.25c-.15.1-1.06.74-2.37,1.44,0,0-1.98.9-3.73,1.61-3.56,1.45-8.57,1.43-11.71-1.26-2.11-1.81-2.72-4.28-2.97-5.32-1.18-5.05,1.28-9.71,5.52-17.51,3.25-5.97,3.78-5.53,4.67-8.45,1.65-5.42.04-7.7,2.4-12.07.79-1.47,2.75-5.11,6.02-5.63,2.53-.4,6.61,1.12,6.61,1.12,0,0,2.08-2.48,3.07-3.62,2.63-3.04,7.02-3.4,12.29-3.61,3.98-.16,13.31.74,18.94,5.14,1.07.84,3.39,2.97,3.39,2.97.65-.47,2.44-1.62,4.91-1.6.1,0,2.54.06,4.66,1.55,1.52,1.07,2.88,2.88,4.68,12.52,1.25,6.69,1.16,8.87,2.84,13.57.45,1.26.94,2.62,1.8,4.39,2.99,6.14,5.55,7.06,5.29,9.82-.24,2.61-2.8,4.93-5.15,5.57-2.48.67-3.22-.95-5.92-.41-3.38.67-3.45,3.45-6.91,4.17-3.14.66-5.81-1.08-6.19-1.33-2.01-1.35-2.69-3.18-3.27-4.18-5.39-9.2-34.94-1.54-38.86,1.13Z"/>
    <path class="st1" d="M29.72,42.07c-1.2,4.3-2.01,8.94-2.45,13.4.13,3.19.11,6.6,1.06,9.58.68,2.31,2.19,4.99,3.46,6.65,2.38,3.11,4.75,6.01,5.73,9.75,1.09,5.37,7.42,6.33,12.09,6.1,7.21-.26,13.35-4.07,15.08-11.33.38-1.68.48-3.73,1.09-5.41,1.17-3.02,2.96-7.17,4.25-10.18,1.54-3.25,2.37-6.74,2.09-10.32-.2-3.55-1.26-7.07-3.07-10.18-.1-.16-.04-.37.12-.47.16-.09.36-.04.46.11,1.99,3.12,3.27,6.73,3.59,10.46.41,3.77-.34,7.52-1.82,10.95-1.18,2.97-2.81,7.2-3.85,10.15-.57,1.8-.5,3.45-.88,5.34-.39,1.88-1.12,3.74-2.13,5.4-4.02,7-13.09,9-20.56,7.56-2.86-.6-6.04-2.05-7.55-4.77-.98-1.74-1.05-3.58-1.8-5.28-1.13-2.3-2.74-4.76-4.18-6.7-3.29-4.39-4.56-10.06-4.35-15.42-.14-2.67.48-5.35.99-7.92.55-2.59,1.07-5.16,1.94-7.71.17-.45.85-.23.69.25h0Z"/>
    <ellipse class="st1" cx="37.67" cy="51" rx="1.48" ry="2.47" transform="translate(-1.26 .95) rotate(-1.43)"/>
    <ellipse class="st1" cx="59.16" cy="50.02" rx="1.48" ry="2.47" transform="translate(-1.23 1.49) rotate(-1.43)"/>
    <path class="st1" d="M45.68,73.28c1.34-1.75,4.25-1.13,5.63-.52.7.31,1.44.63,1.69,1.34.51,1.48-1.33,3.97-3.64,4.31-1.38.2-3.34-.3-4.05-1.91-.47-1.06-.29-2.36.37-3.22Z"/>
  </g>
  <path class="st1" d="M23.2,77.19c-4.48,1.76-9.96,1.04-13.65-2.2-3.83-3.48-3.39-9.28-1.9-13.73,1.06-3.37,2.74-6.64,4.88-9.4,3.08-4.68,4.84-10.25,4.73-15.83-.84-4.2,2.3-9.85,7.36-10.6,1.42-.23,6.15-.54,5.62,1.81-.2.69-.94,1.07-1.61.83-5.18-1.74-10.04,2.62-9.21,7.96-.02,4.79-1.27,9.61-3.56,13.77-1,2.06-2.59,4.03-3.88,5.86-2.18,3.81-4.08,8.2-3.96,12.63-.02,7.25,8.9,10.36,14.86,8,.58-.23.93.68.35.9h0Z"/>
  <path class="st1" d="M77.44,75.42c1.93-1.99,4.04-3.25,6.76-3.75,1.34-.15,2.45.46,3.59.55,2.81.04,5.62-2.71,4.46-5.65-.61-2.02-1.81-4.05-2.89-6.09-2.22-4.07-4.28-8.38-5.44-12.94-1.19-4.54-1.87-9.15-2.45-13.76-.08-.6.86-.78.96-.13.7,4.57,1.51,9.13,2.79,13.52,1.26,4.4,3.34,8.48,5.66,12.47,1.13,2.02,2.4,3.97,3.21,6.37,1.97,4.88-3.61,9.74-8.34,8.09-.54-.13-.95-.19-1.32-.14-1.74.35-3.87,1.65-5.09,3.06-1.07,1.33-3.05-.3-1.92-1.6h0Z"/>
</svg>