<?xml version="1.0" encoding="UTF-8"?>
<svg id="_レイヤー_1" xmlns="http://www.w3.org/2000/svg" version="1.1" viewBox="0 0 100 100">
  <!-- Generator: Adobe Illustrator 30.0.0, SVG Export Plug-In . SVG Version: 2.1.1 Build 123)  -->
  <defs>
    <style>
      .st0 {
        fill: none;
      }

      .st1 {
        fill: #1c1917;
      }

      .st2 {
        fill: #fff;
      }
    </style>
  </defs>
  <path class="st2" d="M30.21,37.09c.2.7.37,1.71.11,2.84-.42,1.81-1.67,2.56-2.57,3.82-.31.44-.93,1.42-1.15,6.77-.21,5.09-.31,7.64.49,10.64.42,1.58,1.22,3.88,2.84,6.44,1.09,1.42,1.87,3.15,2.75,4.59,2.36,3.87,1.6,5.76,2.91,8.15,2.95,5.4,14.78,6.79,22.13,2.62.41-.23,4.47-1.84,6.11-7.57.95-3.32.85-6.03,1.16-6.7.31-.66,1.78-2.84,2.82-4.64,0,0,5.29-8.73,5.29-9.77s.22-5.46-.11-6.99-2.62-9.55-2.62-9.55"/>
  <path class="st2" d="M26.77,68.36c-2.66,1.44-2.37,1.35-6.31,2.66-3.67,1.22-8.68.87-11.65-2.04-2-1.96-2.45-4.47-2.62-5.53-.84-5.14,1.92-9.64,6.7-17.18,3.65-5.77,4.16-5.29,5.24-8.15,2.01-5.32.55-7.71,3.2-11.94.89-1.42,3.1-4.93,6.4-5.24,2.56-.24,6.55,1.56,6.55,1.56,0,0,2.25-2.34,3.31-3.42,2.84-2.87,7.26-2.94,12.56-2.8,4,.1,13.29,1.63,18.63,6.4,1.02.91,3.2,3.2,3.2,3.2,0,0,3.11-1.31,5.02-1.27,5.28.09,9.28,15.9,9.53,16.99,1.9,8.27.19,8.52,2.33,13.97,2.46,6.27,5.73,8.53,4.66,12.23-.71,2.45-3.07,4.64-5.53,5.24-3,.73-4.19-1.39-7.28-.58-2.95.77-2.94,2.97-5.82,3.49-3.13.57-5.84-1.53-6.11-1.75-1.76-1.4-2.51-3.24-3-4.41"/>
  <g>
    <path class="st1" d="M31.38,37.48c-.14-.19-.34-.34-.55-.4-.2-.07-.42-.05-.62.01-.21.06-.38.18-.53.31-.15.14-.31.29-.38.46-.07.17-.08.36-.07.53l2.39-.2c-.02-.27-.11-.53-.25-.72Z"/>
    <path class="st1" d="M27.69,50.44c.02-.45-.39-.37-.37-.83.03-.45.41-.7.45-1.14.03-.45-.13-.46-.08-.91.05-.45.42-.41.47-.84.06-.42-.23-.58-.15-1,.09-.41-.66-.45-.54-.88.14-.43.91-.21,1.04-.42.19-.27.1-.51.37-.83.3-.33.6.17.91-.18.32-.36-.06-.71.25-1.1.31-.41.36-.38.63-.85.24-.48.61-.37.8-.93.15-.57-.41-.75-.35-1.26.05-.5.52-1.03.51-1.07l-2.39.2s.28.46.24.84c-.05.37-.35.31-.43.63-.11.31.2.44.03.77-.19.33-.52.09-.73.38-.24.3.36.65.07.98-.3.33-.58.28-.9.65-.32.4-.41.19-.75.69-.32.57-.05.74-.21,1.23-.14.48-.63.38-.73.88-.09.49.43.56.37,1.03-.06.47-.24.45-.28.92-.05.47-.27.45-.31.92-.04.47.58.46.55.93-.03.46-.52.48-.54.95-.02.47.21.47.19.93-.02.46-.43.55-.44.9l2.4.09c.01-.34-.3-.31-.29-.77.02-.46.2-.45.22-.9Z"/>
    <path class="st1" d="M29.42,64.42c-.18-.4-.52-.14-.69-.56-.17-.41.08-.79-.07-1.2-.15-.41-.3-.36-.44-.78-.13-.42.22-.54.1-.95-.11-.41-.44-.44-.53-.87-.09-.42-.78-.15-.86-.6-.07-.45.71-.62.66-1.05-.04-.43-.28-.52-.31-.96-.03-.44.54-.31.52-.75-.01-.44-.54-.44-.54-.89,0-.45.06-.45.07-.9,0-.45.4-.47.41-.92.01-.45-.56-.53-.55-.99.02-.46.55-.86.55-.89l-2.4-.09s.23.6.21,1.06c-.01.46-.31.45-.33.91,0,.47.32.47.31.94,0,.46-.4.46-.4.93,0,.47.69.32.7.79.02.47-.22.63-.18,1.1.04.47-.15.43-.1.91.06.48.35.5.43.97.09.47-.42.58-.31,1.06.11.48.62.34.74.8.13.45-.04.5.1.96.15.45-.07.53.09.98.17.45.72.19.89.62.18.43-.25.67-.06,1.11.2.43.41.33.62.76.21.42-.09.71.09,1.03l2.1-1.16c-.16-.28-.41-.1-.62-.49-.2-.4-.03-.47-.22-.87Z"/>
    <path class="st1" d="M35.85,77.86c-.09-.43-.47-.25-.56-.7-.09-.45.22-.8.09-1.28-.12-.48-.28-.43-.43-.9-.16-.46.19-.6,0-1.07-.19-.47-.53-.44-.74-.88-.23-.43-.8.04-1.03-.37-.23-.39.41-.89.19-1.26-.22-.38-.47-.37-.69-.76-.22-.4.35-.52.13-.93-.22-.41-.69-.16-.92-.57-.24-.41-.18-.44-.43-.85-.26-.4.06-.64-.23-1.06-.15-.21-.36-.25-.51-.2-.17,0-.37-.05-.48-.23-.23-.39.02-1,0-1.02l-2.1,1.16s.52.42.77.82c.12.19.11.35.17.54.03.17.01.26.14.44.24.34.51.16.75.53.23.37-.12.57.1.95.22.38.75-.07.97.33.22.4.08.64.3,1.05.23.41.04.45.28.86.25.42.5.28.73.67.21.38-.24.63-.05,1,.17.38.66.15.82.55.16.4,0,.46.13.86.12.41-.09.47.01.88.1.41.69.24.78.68.09.44-.38.58-.28,1.05.11.47.33.42.46.89.14.47-.2.73-.04,1.11l2.21-.93c-.11-.26-.39-.12-.52-.51-.12-.4.07-.44-.03-.86Z"/>
    <path class="st1" d="M46.48,84.28c-.44-.04-.37.38-.82.34-.45-.03-.66-.43-1.09-.5-.43-.07-.46.09-.89.02-.43-.09-.36-.46-.78-.56-.41-.1-.6.19-1.01.05-.41-.14-.51.6-.94.46-.44-.13-.19-.93-.58-1.09-.38-.18-.6.01-.96-.21-.37-.21.04-.62-.31-.82-.36-.19-.63.21-.97-.04-.32-.26-.32-.28-.6-.58-.28-.29-.01-.58-.28-.84-.2-.3-.7-.01-.94-.36-.13-.16-.08-.41-.04-.59.05-.18.14-.32.14-.33l-2.21.93s.47.54.79.96c.3.43.04.62.37,1.05.37.39.61.16.97.53.36.36.12.62.53.95.42.31.68-.32,1.09-.07.41.24.43.53.86.77.44.21.31.34.76.54.46.19.61-.03,1.06.11.45.15.3.64.78.79.47.15.6-.39,1.06-.27.46.11.42.29.89.38.47.07.43.3.91.37.48.07.51-.52.97-.49.47.04.47.53.95.57.48.04.49-.2.96-.2.47,0,.59.41.95.41l-.04-2.4c-.32,0-.28.31-.73.31-.44-.01-.43-.17-.87-.21Z"/>
    <path class="st1" d="M59.56,80.47c-.32.26.02.53-.32.79-.34.27-.76.09-1.11.31-.36.21-.27.34-.67.54-.49.25-.6-.11-1,.09-.38.18-.33.54-.73.7-.41.16,0,.79-.43.95-.43.16-.74-.55-1.16-.44-.42.12-.46.37-.88.49-.42.13-.41-.47-.83-.37-.42.09-.32.6-.76.69-.43.09-.45,0-.88.07-.44.06-.51-.33-.94-.27-.43.03-.45.61-.89.64-.45.03-.87-.46-.89-.47l.04,2.4s.61-.27,1.09-.3c.47-.03.5.28.98.23.48-.06.44-.39.91-.46.47-.07.53.35,1,.25.48-.1.2-.75.66-.84.46-.1.66.11,1.12-.03.46-.13.46.06.92-.08.47-.13.42-.45.86-.61.44-.17.65.3,1.11.12.45-.21.21-.69.64-.9.21-.11.34-.12.47-.14.11,0,.3-.05.42-.11.43-.21.55-.02.99-.27.44-.27.06-.76.45-1.03.38-.29.73.07,1.11-.26.38-.33.21-.51.56-.85.32-.36.73-.17.96-.47l-1.85-1.53c-.19.24.07.41-.22.73-.29.31-.43.16-.72.45Z"/>
    <path class="st1" d="M64.59,67.26c-.25.42.17.5-.1.97-.27.49-.65.86-.71,1.32-.05.48.11.49.06.94-.05.45-.42.42-.47.86-.06.44.24.59.17,1.03-.07.44.68.42.59.87-.08.45-.89.35-.98.77-.1.42.09.58-.03,1.01-.12.42-.62.11-.74.51-.13.4.36.58.2.98-.17.4-.21.38-.41.76-.19.38-.54.23-.75.58-.21.35.25.72,0,1.07-.24.37-.91.34-.92.36l1.85,1.53s.22-.66.49-1.07c.29-.4.52-.25.78-.68.26-.43-.05-.6.17-1.04.22-.44.56-.27.76-.74.19-.47-.5-.57-.36-1.02.14-.45.44-.53.56-.99.13-.46.28-.36.4-.83.1-.47-.17-.58-.08-1.04.09-.46.59-.39.67-.86.07-.47-.45-.53-.39-1,.05-.46.23-.44.28-.9.05-.45.27-.44.32-.87.06-.42-.57-.46-.48-.81.14-.33.6-.1.82-.49.23-.38.04-.5.28-.89.24-.39.65-.27.83-.56l-2.03-1.28c-.18.29.11.42-.14.81-.25.39-.4.29-.65.69Z"/>
    <path class="st1" d="M71.9,54.6c-.18.39.24.47.04.87-.2.4-.65.47-.86.86-.21.4-.07.48-.29.87-.22.4-.55.23-.77.63-.22.4,0,.64-.23,1.04-.23.4.48.64.25,1.04-.23.4-.95.05-1.18.45-.23.39-.09.6-.33,1-.23.39-.63-.03-.86.36-.23.39.21.67-.02,1.06-.24.39-.29.36-.53.75-.24.41-.58.22-.81.61-.23.38.23.74-.01,1.13-.24.39-.9.47-.92.5l2.03,1.28s.11-.64.35-1.03c.24-.39.5-.24.74-.64.24-.4-.04-.58.18-.96.24-.39.57-.18.81-.58.24-.39-.43-.63-.19-1.02.23-.39.51-.4.75-.79.23-.39.36-.26.59-.65.23-.4,0-.59.24-.99.23-.4.68-.15.91-.55.23-.4-.23-.65,0-1.05.22-.4.38-.32.6-.72.22-.41.42-.3.64-.71.22-.42-.34-.65-.13-1.07.21-.42.67-.24.87-.69.18-.46.04-.59.14-1.17.03-.15.04-.27.09-.38.04-.09.09-.15.14-.21.1-.12.21-.24.21-.41l-2.4-.06c0,.32.31.36.3.72-.04.32-.21.19-.34.52Z"/>
    <path class="st1" d="M70.12,40.82c.12.44.49.24.61.68.12.44-.17.79-.05,1.23.12.44.28.4.4.84.12.44-.23.54-.11.98.12.44.45.47.57.91.12.44.8.14.92.58.12.44-.64.68-.52,1.12.13.46.34.43.39.87.03.43-.53.31-.51.74.02.43.54.42.55.87,0,.45-.06.45-.06.9,0,.45-.39.47-.4.92,0,.45.57.53.56.99-.01.46-.54.87-.54.9l2.4.06s-.23-.6-.22-1.06c.01-.46.31-.45.32-.92,0-.47-.33-.47-.32-.94,0-.47.4-.46.39-.93,0-.47-.7-.31-.71-.78-.02-.47.21-.63.15-1.13-.07-.51.11-.53,0-.96-.12-.45-.42-.43-.54-.88-.12-.44.38-.57.25-1.01-.12-.45-.63-.32-.75-.76-.12-.44.05-.48-.07-.93-.12-.44.1-.5-.02-.94-.12-.45-.7-.25-.82-.7-.12-.44.34-.61.22-1.05-.12-.44-.35-.38-.47-.83-.12-.44.24-.66.15-1l-2.31.64c.09.33.38.2.5.64.12.44-.06.48.06.93Z"/>
    <path class="st1" d="M69.85,38.06c-.15.15-.22.36-.27.56-.05.2-.07.41-.01.62h0s2.31-.64,2.31-.64h0c-.06-.21-.16-.42-.31-.57-.15-.15-.35-.25-.55-.31-.2-.05-.42-.05-.62,0-.21.06-.4.17-.54.32Z"/>
  </g>
  <g>
    <path class="st1" d="M26.71,69.59c.13-.19.2-.41.22-.62.02-.21-.05-.42-.15-.61-.1-.19-.26-.33-.44-.43-.19-.1-.4-.21-.62-.2-.22,0-.45.09-.66.2l1.14,2.11c.21-.12.4-.27.52-.45Z"/>
    <path class="st1" d="M11.82,72.02c.52.16.52-.25,1.02-.12.5.13.72.55,1.25.64.53.07.55-.09,1.06-.04.52.02.52.41,1.05.41.54,0,.65-.32,1.17-.35.52-.04.29-.77.78-.82.48-.07.7.7,1.22.6.51-.12.58-.36,1.08-.51.5-.15.48.43.96.28.47-.16.31-.65.77-.81.47-.16.49-.1.96-.26.47-.17.63.19,1.12,0,.5-.2.33-.77.79-.98.45-.22,1.1,0,1.13,0l-1.14-2.11s-.43.52-.84.71c-.41.19-.53-.09-.94.08-.42.16-.32.48-.77.64-.45.16-.58-.22-1.03-.07-.46.15-.1.76-.56.92-.46.15-.69-.02-1.12.11-.43.13-.43-.08-.87.03-.44.09-.44.38-.9.45-.46.05-.52-.44-.96-.42-.44.03-.42.55-.88.55-.46,0-.45-.19-.91-.21-.45-.05-.43-.27-.87-.33-.43-.08-.51.55-.97.43-.46-.11-.37-.59-.78-.73-.42-.13-.49.06-.92-.1-.41-.2-.32-.6-.6-.76l-1.19,2.08c.36.21.47-.11.94.13.49.21.41.38.92.57Z"/>
    <path class="st1" d="M5.61,57.62c-.14.51.28.5.15,1-.1.5-.55.72-.61,1.26-.07.53.08.54.06,1.07-.03.52-.4.53-.38,1.08.01.55.34.65.41,1.17.07.53.77.25.85.73.09.48-.67.73-.53,1.25.15.51.4.57.58,1.06.2.49-.39.53-.15,1.04.26.5.72.26,1,.71.29.45.25.48.58.91.35.41.08.7.49,1.1.43.38.85,0,1.27.3.41.32.6.99.62,1.02l1.19-2.08s-.61-.06-.96-.33c-.36-.25-.14-.51-.45-.77-.29-.29-.54-.06-.82-.4-.27-.35.06-.57-.17-.91-.21-.35-.75.11-.96-.3-.2-.41-.04-.64-.2-1.05-.15-.42.04-.43-.08-.85-.11-.43-.41-.41-.5-.87-.09-.46.43-.56.37-.98-.06-.43-.57-.38-.59-.84-.02-.46.17-.45.19-.9.01-.45.26-.43.31-.86.05-.44-.54-.5-.45-.96.09-.46.59-.38.71-.82.12-.44-.09-.51.06-.95.15-.44.58-.4.71-.72l-2.22-.91c-.14.36.15.42-.02.91-.17.49-.35.42-.5.92Z"/>
    <path class="st1" d="M13.38,43.58c-.28.41.12.55-.15.96-.27.41-.74.45-1.01.87-.27.42-.13.5-.39.92-.26.41-.58.23-.84.64-.26.42-.06.68-.32,1.1-.26.42.44.67.19,1.09-.26.42-.98.06-1.23.48-.25.42-.12.64-.38,1.06-.25.42-.64-.01-.89.42-.25.43.2.7-.04,1.13-.24.44-.3.41-.53.84-.23.44-.59.29-.82.74-.23.45.27.77.06,1.22-.22.45-.86.69-.88.72l2.22.91s0-.65.2-1.08c.2-.43.46-.3.68-.72.22-.42-.09-.58.14-1,.23-.42.58-.22.8-.64.23-.41-.43-.63-.19-1.05.24-.42.52-.43.77-.84.25-.41.38-.27.62-.68.25-.41.04-.61.29-1.03.25-.41.7-.15.95-.56.26-.41-.19-.68.07-1.09.26-.41.41-.32.67-.73.26-.41.45-.29.71-.7.26-.41-.28-.7-.01-1.11.27-.41.7-.18.97-.58.27-.4.08-.53.35-.93.28-.39.67-.26.89-.55l-1.95-1.4c-.22.3.07.45-.22.86-.29.41-.43.3-.72.71Z"/>
    <path class="st1" d="M18.78,29.51c-.1.52.31.49.22.99-.08.5-.49.74-.55,1.24-.06.49.1.51.05.99-.06.48-.43.44-.49.91-.08.46.23.62.13,1.08-.1.46.66.47.55.94-.12.47-.9.33-1.04.77-.13.44.04.62-.12,1.07-.16.45-.62.09-.79.51-.17.41.31.63.11,1.04-.21.39-.26.36-.5.73-.25.38-.59.17-.87.54-.29.39.13.79-.17,1.18-.29.39-.98.47-1,.49l1.95,1.4s.16-.65.45-1.03c.29-.39.53-.2.83-.6.3-.41.04-.61.33-1.05.28-.45.63-.25.89-.75.24-.5-.46-.64-.25-1.11.19-.47.47-.53.63-1.01.17-.48.32-.37.47-.86.15-.49-.12-.63,0-1.12.12-.49.61-.4.72-.91.09-.51-.43-.58-.35-1.08.06-.49.24-.48.3-.97.06-.49.28-.46.34-.94.06-.47-.55-.5-.48-.98.07-.47.56-.43.66-.87.1-.44-.12-.49,0-.93.14-.43.55-.4.68-.7l-2.22-.91c-.16.38.15.44-.01.94-.17.5-.32.45-.47.97Z"/>
    <path class="st1" d="M31.28,20.32c-.51-.13-.49.29-.99.18-.5-.1-.74-.52-1.29-.58-.56-.03-.55.11-1.12.14-.56.05-.64-.31-1.23-.18-.59.16-.61.51-1.12.73-.5.26,0,.81-.43,1.08-.41.26-.95-.32-1.38.02-.42.35-.35.61-.72.98-.35.38-.64-.14-1,.27-.34.41.06.75-.25,1.15-.3.41-.36.38-.64.8-.28.42-.62.23-.89.67-.27.47.18.8-.05,1.26-.24.45-.9.7-.91.74l2.22.91s0-.62.2-1.03c.22-.4.49-.24.71-.63.26-.41-.03-.58.23-.98.26-.39.58-.15.85-.52.27-.36-.36-.67-.06-1.04.3-.36.58-.3.89-.62.32-.31.41-.15.74-.42.34-.26.2-.54.57-.77.37-.24.63.23.97.05.35-.14.17-.64.58-.75.41-.09.44.08.83.05.4-.02.41.22.82.25.42.04.47-.56.93-.49.46.1.4.58.84.69.44.12.51-.11.96.03.45.14.43.56.76.68l.8-2.26c-.36-.13-.42.19-.9.03-.49-.15-.43-.33-.93-.46Z"/>
    <path class="st1" d="M45.39,15.23c-.42.03-.3.43-.72.46-.41.04-.7-.31-1.12-.26-.43.06-.4.22-.82.29-.42.08-.5-.28-.94-.18-.43.12-.46.42-.87.56-.42.14-.06.78-.44.93-.37.16-.76-.57-1.17-.36-.41.2-.39.45-.76.69-.38.23-.55-.3-.94-.02-.38.29-.04.7-.37,1-.34.31-.35.25-.64.55-.28.29-.58.03-.86.33-.28.29.09.74-.19,1.03-.28.29-.92.21-.93.22l1.72,1.67s.19-.55.47-.84c.28-.29.49-.08.77-.37.28-.29.05-.52.33-.81.28-.28.57-.03.82-.25.25-.22-.3-.69,0-.91.3-.23.52-.1.83-.29.3-.19.36,0,.68-.16.31-.17.25-.43.59-.58.35-.14.53.36.87.24.34-.1.21-.6.58-.7.38-.08.41.09.78.02.38-.06.41.17.79.11.38-.04.28-.64.67-.69.4-.04.47.46.86.43.39-.02.38-.25.78-.27.4-.02.5.39.8.39l-.03-2.4c-.31,0-.26.32-.68.33-.42.02-.42-.17-.84-.15Z"/>
    <path class="st1" d="M58.67,16.55c-.4-.11-.42.31-.82.2-.4-.09-.55-.51-.96-.6-.41-.1-.44.07-.85-.01-.41-.08-.35-.45-.76-.52-.41-.07-.56.22-.97.15-.41-.07-.39.68-.8.63-.4-.05-.36-.86-.77-.91-.42-.04-.54.16-.95.12-.42-.03-.22-.58-.65-.61-.43-.03-.46.5-.88.48-.41-.01-.41-.08-.82-.09-.41,0-.42-.4-.83-.41-.41,0-.47.57-.88.57-.41,0-.8-.51-.83-.51l.03,2.4s.51-.26.91-.25c.4,0,.39.3.79.31.4,0,.41-.33.81-.32.4.01.39.41.78.42.38.02.29-.68.69-.66.39.03.5.28.89.31.39.04.33.22.72.26.39.04.47-.23.87-.18.39.06.33.56.71.62.39.06.47-.45.86-.39.39.07.36.25.75.32.39.08.34.29.73.38.38.09.48-.51.87-.42.39.09.31.58.69.68.38.1.44-.13.83-.02.38.12.36.53.64.62l.71-2.29c-.3-.09-.35.22-.75.1-.4-.12-.35-.29-.75-.4Z"/>
    <path class="st1" d="M70.51,22.9c-.29-.29-.51.07-.8-.22-.29-.29-.2-.74-.54-1.01-.33-.27-.44-.15-.77-.42-.33-.26-.13-.55-.49-.81-.36-.24-.61-.06-.97-.28-.36-.22-.64.47-.99.26-.35-.21,0-.94-.38-1.14-.37-.19-.57-.04-.94-.24-.37-.18,0-.62-.39-.79-.39-.18-.61.3-.99.13-.39-.16-.36-.22-.75-.37-.39-.15-.27-.54-.67-.67-.4-.14-.64.39-1.03.25-.39-.14-.61-.73-.63-.74l-.71,2.29s.56-.09.93.04c.37.13.27.41.64.54.37.13.48-.17.85-.03.37.15.21.51.57.66.35.16.52-.52.88-.36.36.17.38.42.72.6.35.18.22.32.56.5.35.17.52-.05.86.15.34.2.08.64.4.84.31.21.59-.23.92,0,.32.23.23.35.52.59.3.24.15.42.44.66.29.23.67-.24.95.04.28.28-.02.67.26.95.28.28.44.11.72.39.28.28.07.64.28.85l1.69-1.71c-.22-.22-.41.03-.7-.26-.29-.29-.16-.42-.46-.72Z"/>
    <path class="st1" d="M83.81,30.43c-.19-.41-.51-.14-.72-.54-.2-.4,0-.8-.21-1.21-.22-.4-.37-.32-.6-.71-.24-.39.06-.6-.2-.99-.28-.39-.58-.3-.88-.67-.29-.37-.77.21-1.06-.12-.29-.33.21-.93-.16-1.28-.4-.32-.62-.22-1.06-.49-.46-.24-.04-.66-.6-.89-.61-.19-.73.34-1.28.29-.52,0-.52-.06-1.01,0-.47.07-.57-.31-1.04-.21-.47.11-.38.69-.82.81-.43.12-.99-.24-1.02-.23l.75,2.28s.44-.41.84-.51c.4-.11.47.18.86.1.38-.08.32-.41.71-.46.38-.04.41.35.7.36.22.04.25-.69.59-.58.17.04.25.16.33.26.08.1.15.2.3.3.3.18.15.34.43.55.26.26.51.06.78.37.27.3-.12.64.12.94.24.31.65,0,.89.34.23.35.08.44.3.79.21.36.02.47.22.83.2.37.72.04.92.42.19.38-.22.63-.04,1.02.18.38.4.28.57.67.18.39-.15.65-.03.94l2.21-.94c-.13-.31-.4-.15-.58-.55-.18-.41,0-.48-.2-.89Z"/>
    <path class="st1" d="M88.14,44.09c-.08-.44-.47-.27-.55-.71-.08-.44.23-.76.13-1.2-.1-.44-.25-.4-.35-.84-.11-.44.25-.54.13-.98-.12-.43-.44-.45-.56-.88-.12-.43-.79-.09-.91-.51-.12-.42.63-.71.5-1.13-.13-.42-.38-.46-.51-.88-.14-.42.44-.44.3-.87-.14-.42-.64-.26-.78-.68-.15-.42-.08-.44-.24-.86-.15-.42.21-.58.05-.99-.16-.42-.72-.27-.89-.68-.16-.41.15-.99.14-1.02l-2.21.94s.44.41.6.81c.16.4-.12.51.03.9.15.4.46.29.61.69.15.4-.23.53-.09.93.14.4.75.06.89.47.14.41-.05.61.08,1.02.13.41-.06.42.07.83.13.41.42.38.54.79.12.42-.37.57-.25.98.12.41.62.26.73.68.11.41-.06.46.04.86.09.41-.13.47-.04.88.09.42.68.25.77.68.08.42-.39.56-.31.97.08.42.3.38.37.8.07.42-.32.58-.28.9l2.38-.31c-.04-.34-.35-.25-.42-.69-.07-.44.12-.47.04-.91Z"/>
    <path class="st1" d="M90.87,57.47c-.19-.38-.51-.12-.69-.51-.18-.39.06-.77-.1-1.16-.16-.39-.32-.33-.47-.73-.15-.4.19-.53.05-.92-.12-.39-.46-.39-.57-.79-.1-.4-.79-.08-.89-.5-.09-.43.67-.64.61-1.03-.07-.4-.29-.47-.34-.88-.03-.42.53-.31.5-.72-.02-.43-.55-.4-.56-.84-.02-.44.05-.44.02-.88-.02-.44.36-.49.33-.94-.03-.45-.62-.46-.66-.91-.04-.44.41-.92.41-.95l-2.38.31s.32.51.36.93c.04.42-.25.44-.22.86.03.42.36.4.38.83.02.43-.38.44-.36.87.02.43.7.28.72.72.03.44-.21.6-.16,1.06.05.46-.14.43-.07.89.07.47.38.46.47.91.11.44-.38.58-.25,1.04.14.44.64.27.78.7.15.42,0,.48.15.9.16.42-.04.5.13.92.18.42.71.14.9.54.19.4-.24.65-.05,1.06.2.4.41.3.61.7.2.4-.1.68.06.98l2.11-1.14c-.15-.28-.41-.09-.61-.47-.19-.38-.02-.46-.21-.84Z"/>
    <path class="st1" d="M92.71,71.34c.33-.37-.06-.55.23-.92.27-.38.74-.42.98-.86.23-.45.08-.52.27-.98.16-.47.52-.37.64-.9.13-.53-.21-.71-.17-1.21-.03-.52-.73-.33-.79-.77-.07-.43.7-.69.55-1.18-.15-.48-.41-.5-.59-.93-.2-.42.38-.51.17-.94-.22-.41-.68-.18-.9-.57-.22-.39-.16-.43-.38-.8-.22-.38.1-.6-.11-.97-.22-.38-.75-.14-.96-.52-.22-.38.05-.98.04-1l-2.11,1.14s.49.39.71.77c.22.39-.04.53.18.91.22.38.51.21.73.59.22.38-.14.56.07.93.2.37.74-.08.94.3.19.37.03.6.19.96.13.36-.03.39.07.74.11.35.39.32.46.7.04.38-.47.41-.48.72-.04.31.52.38.42.75-.08.37-.25.32-.37.67-.15.35-.35.25-.52.58-.18.31.37.61.13.94-.23.34-.65.06-.89.35-.25.29-.09.44-.37.72-.3.27-.63.02-.85.19l1.46,1.91c.29-.23.06-.44.42-.76.35-.33.48-.19.82-.56Z"/>
    <path class="st1" d="M79.56,74.18c.29-.19,0-.51.34-.68.35-.17.69.1,1.03,0,.35-.07.32-.26.69-.3.37-.05.39.34.71.34.33.02.45-.27.83-.19.37.08.45-.64.86-.53.42.13.22.91.67,1.05.45.13.63-.05,1.11.03.49.06.25.61.81.63.56,0,.54-.53,1.03-.59.49-.09.51-.02.99-.16.46-.16.63.21,1.1,0,.47-.22.26-.76.66-1,.4-.24,1.06-.1,1.09-.12l-1.46-1.91s-.24.5-.58.69c-.34.19-.47-.07-.8.07-.33.15-.22.45-.58.57-.36.11-.45-.3-.77-.23-.32.02-.16.73-.55.72-.39,0-.47-.26-.84-.32-.38-.08-.28-.24-.66-.36-.39-.12-.53.14-.96,0-.44-.13-.31-.63-.82-.74-.52-.09-.58.43-1.08.39-.5,0-.51-.19-1.02-.13-.5.06-.54-.14-1.05-.02-.5.15-.26.71-.69.89-.43.2-.71-.21-1.16.08-.42.3-.28.49-.64.8-.34.32-.7.11-.94.33l1.68,1.72c.23-.22-.01-.43.28-.71.3-.27.41-.12.69-.34Z"/>
    <path class="st1" d="M66.14,72.87c.27.41.55.08.83.46.29.36.21.82.56,1.17.37.34.47.21.86.52.39.28.2.6.62.86.43.25.68.03,1.11.24.44.2.6-.54,1.01-.37.41.15.23.93.72,1.06.48.11.64-.08,1.12-.02.48.05.27.58.8.61.54-.02.51-.52,1-.59.49-.06.5-.02,1-.15.48-.16.67.19,1.18-.07.5-.29.23-.81.6-1.11.37-.31,1.02-.24,1.04-.26l-1.68-1.72s-.21.57-.5.78c-.29.22-.45-.04-.72.12-.28.13-.15.44-.49.55-.36.08-.42-.29-.76-.25-.33.05-.18.71-.57.73-.4,0-.5-.24-.88-.3-.38-.05-.3-.24-.66-.32-.36-.1-.49.16-.87.03-.37-.15-.18-.62-.52-.78-.33-.17-.58.29-.93.09-.34-.21-.25-.36-.56-.58-.29-.23-.15-.41-.42-.66-.26-.26-.68.18-.95-.12-.26-.32.11-.65-.11-.96-.21-.32-.41-.2-.62-.55-.2-.36.12-.63,0-.9l-2.17,1.03c.15.32.41.14.63.55.23.41.07.5.33.91Z"/>
    <path class="st1" d="M65.29,70.19c-.13.16-.18.37-.2.58-.02.2,0,.42.09.63h0s2.17-1.03,2.17-1.03h0c-.08-.17-.2-.34-.36-.45-.16-.11-.37-.18-.58-.2-.2-.02-.42,0-.62.09-.2.08-.38.22-.5.38Z"/>
    <g>
      <path class="st1" d="M35.95,22.28l-.04.03-.04.04-.07.08-.03.04-.04.04-.04.03h-.02s-.02.02-.02.02h-.03s-.03,0-.03,0h-.03s-.03,0-.03,0l-.06-.02-.07-.02-.14-.04h-.06s-.03-.01-.03-.01h-.03s-.03,0-.03,0h-.02s-.02.03-.02.03l-.02.02-.04.04-.04.05-.04.05-.02.02-.02.02-.02.02h-.02s-.03.02-.03.02h-.03s-.06,0-.06,0h-.05s-.11-.04-.11-.04l-.11-.03h-.06s-.06-.03-.06-.03h-.03s-.02-.01-.02-.01h0s0,0,0,0h0s-.03,0-.03,0h-.03s-.06,0-.06,0h-.06s-.06-.03-.06-.03h-.06s-.03-.01-.03-.01h-.03s-.03,0-.03,0h-.03s-.03.02-.03.02l-.03.02-.05.04-.09.11-.05.05-.05.05-.02.02-.02.02h-.02s-.03.02-.03.02c-.03,0-.07.01-.11.02h-.12c-.08.02-.16.03-.23.03h-.02s-.02,0-.02,0h-.02s-.02-.02-.02-.02l-.03-.03-.03-.03-.03-.04-.03-.03h-.02s-.02-.03-.02-.03h-.02s-.02-.01-.02-.01h-.01s-.01,0-.01,0h-.03s-.03.02-.03.02l-.03.02s-.08.06-.13.09l-.06.04-.06.04h-.03s-.03.02-.03.02h-.03s-.01,0-.01,0h-.01s.4-1.13.4-1.13l.2-.57.2-.57h.02s.02.02.02.02l.03.02.02.02h.01s.02.01.02.01h.02s.01.01.01.01h.01s.01.03.01.03c.01.02.03.05.05.08v.02s.03.02.03.02l.02.02h.02s.02.02.02.02h.03s.03,0,.03,0h.04s.06-.01.1-.02c.04,0,.08,0,.13,0,.04,0,.09,0,.13-.01h.03s.01,0,.01,0h0s0,0,0,0h.08s0,0,0,0c.02,0,.03.01.05.02h.04s.04.01.04.01h.03s.03,0,.03,0h.03s.02-.02.02-.02h.02s.02-.03.02-.03c.02-.02.04-.04.06-.06l.03-.02h.02s.02-.01.02-.01h0s0,0,0,0h0s0,0,0,0h0s0-.03,0-.03v-.02s0-.02,0-.02v-.04s0-.05,0-.05v-.04s0-.02,0-.02v-.02s.01-.01.01-.01h.01s0-.02.01-.02h.01s.03-.05.03-.05c.02-.02.04-.05.06-.07l.43.42.43.42.86.84h-.02s-.02.03-.02.03l-.04.02s-.07.02-.1.03l-.11.03-.05.02-.04.02Z"/>
      <path class="st0" d="M33.73,19.63c-.14,0-.14,0-.22,0h0s0,0,0,0h0s0,.01,0,.01v.02s-.02.04-.02.04l-.03.07-.05.14-.1.28-.2.57-.4,1.13-.8,2.26.72.27.67.28,1.55.7,2.34-2.43-1.72-1.67-.86-.84-.43-.42-.22-.21-.11-.1-.05-.05-.03-.03h-.01s0-.02,0-.02h0s0,0,0,0h0s-.01,0-.02,0Z"/>
    </g>
    <g>
      <path class="st1" d="M73.53,26.42h-.05s-.05.03-.05.03l-.09.04-.05.02-.05.02h-.05s-.02.01-.02.01h-.02s-.02,0-.02,0h-.02s-.02-.02-.02-.02l-.02-.02-.05-.04-.05-.05-.1-.1-.05-.04h-.03s-.03-.02-.03-.02h-.03s-.03,0-.03,0h-.03s-.03.01-.03.01l-.05.02-.05.03-.05.03-.05.02h-.03s-.03,0-.03,0h-.03s-.03-.01-.03-.01l-.05-.03-.04-.03-.08-.07-.08-.07-.04-.04-.05-.03-.03-.02h-.01s0-.02,0-.02h0s0,0,0,0h-.03s-.03-.02-.03-.02l-.05-.03-.05-.04-.05-.04-.05-.03h-.03s-.03-.02-.03-.02h-.03s-.03,0-.03,0h-.03s-.03,0-.03,0l-.06.02-.13.06-.06.03-.06.03h-.03s-.03.02-.03.02h-.03s-.03,0-.03,0c-.03,0-.07-.02-.11-.02l-.12-.03c-.08-.03-.15-.05-.21-.08h-.02s-.02-.02-.02-.02h-.01s-.01-.03-.01-.03v-.02s-.01-.02-.01-.02v-.04s-.02-.04-.02-.04v-.04s-.02-.02-.02-.02v-.02s-.03-.02-.03-.02h-.02s-.01-.02-.01-.02h-.01s-.03,0-.03,0h-.03s-.03,0-.03,0c-.05,0-.1.02-.15.03h-.08s-.07.02-.07.02h-.03s-.03,0-.03,0h-.03s-.01-.02-.01-.02h-.01s.84-.86.84-.86l.42-.43.42-.43v.02s.03.02.03.02v.03s.03.03.03.03c0,0,0,0,0,.01,0,0,0,0,.01,0h0s0,.01,0,.01h0s0,.03,0,.03v.02s0,.06.01.09v.02s0,.02,0,.02v.02s.02.02.02.02l.02.02.02.02h.03s.03.02.03.02c.02,0,.05.02.09.03.04.01.07.03.11.04.04.01.08.02.12.03h.03s.01,0,.01,0h.1s0,0,0,0c.01.01.03.03.04.04l.03.02.03.02h.03s.03.02.03.02h.03s.03,0,.03,0h.02s.02,0,.02,0c.03,0,.06-.02.08-.03h.04s.02,0,.02,0h.02s0,0,0,0h0s0,0,0,0h0s.01,0,.01,0h.01s.01-.03.01-.03v-.02s.03-.04.03-.04l.02-.04.02-.04v-.02s.03-.01.03-.01h.01s.02-.01.02-.01c0,0,.01,0,.02,0h.02s.04-.02.04-.02c.03-.01.06-.03.09-.04l.19.57.19.57.38,1.14h-.02s-.02,0-.02,0h-.04s-.06-.01-.1-.02l-.1-.02h-.05s-.05,0-.05,0Z"/>
      <path class="st0" d="M72.6,23c-.06.02-.06.01-.09.02h0s0,0,0,0h0s0,0,0,0h-.01s-.03.04-.03.04l-.05.05-.11.11-.21.21-.42.43-.84.85-1.69,1.71,1.12,1.12,1.14,1.2,1.53-.64.67-.26.71-.24-.75-2.28-.38-1.14-.19-.57-.09-.28-.05-.14-.02-.07v-.04s-.02-.02-.02-.02h0s0-.01,0-.01h0s0,0,0,0c-.13-.03-.13-.03-.2-.05Z"/>
    </g>
  </g>
  <ellipse class="st1" cx="37.93" cy="46.71" rx="3.1" ry="1.86" transform="translate(-10.31 82.68) rotate(-87.63)"/>
  <ellipse class="st1" cx="59.52" cy="47.16" rx="3.1" ry="1.86" transform="translate(9.94 104.69) rotate(-87.63)"/>
  <path class="st1" d="M44.48,69.57c1.46-1.66,4.33-.85,5.68-.15.68.35,1.4.73,1.6,1.46.42,1.51-1.6,3.89-3.93,4.08-1.39.11-3.32-.53-3.93-2.18-.4-1.09-.14-2.38.58-3.2Z"/>
</svg>