<?xml version="1.0" encoding="UTF-8"?>
<svg id="_レイヤー_1" xmlns="http://www.w3.org/2000/svg" version="1.1" viewBox="0 0 100 100">
  <!-- Generator: Adobe Illustrator 30.0.0, SVG Export Plug-In . SVG Version: 2.1.1 Build 123)  -->
  <defs>
    <style>
      .st0 {
        fill: #ceb372;
      }

      .st1 {
        fill: #1c1917;
      }
    </style>
  </defs>
  <g>
    <path class="st0" d="M29.37,41.94c.24.68-2.72,7.2-2.69,13.58.02,5.08.19,7.61,1.19,10.54.53,1.54,5.31,9.22,6.28,10.59,2.6,3.69,1.97,5.61,3.43,7.91,3.29,5.17,21.75,8.8,27.74-6.78,1.02-2.66.33-2.93,1.2-6.14.63-2.33,1.42-4.17,2.01-5.39,0,0,4.69-9.03,4.62-10.06-.07-1.03-.14-5.44-.57-6.94-1.13-3.98-2.17-7.23-3.23-9.32"/>
    <path class="st0" d="M28.01,73.25c-.15.1-1.06.74-2.37,1.44,0,0-1.98.9-3.73,1.61-3.56,1.45-8.57,1.43-11.71-1.26-2.11-1.81-2.72-4.28-2.97-5.32-1.18-5.05,1.28-9.71,5.52-17.51,3.25-5.97,3.78-5.53,4.67-8.45,1.65-5.42.04-7.7,2.4-12.07.79-1.47,2.75-5.11,6.02-5.63,2.53-.4,6.61,1.12,6.61,1.12,0,0,2.08-2.48,3.07-3.62,2.63-3.04,7.02-3.4,12.29-3.61,3.98-.16,13.31.74,18.94,5.14,1.07.84,3.39,2.97,3.39,2.97.65-.47,2.44-1.62,4.91-1.6.1,0,2.54.06,4.66,1.55,1.52,1.07,2.88,2.88,4.68,12.52,1.25,6.69,1.16,8.87,2.84,13.57.45,1.26.94,2.62,1.8,4.39,2.99,6.14,5.55,7.06,5.29,9.82-.24,2.61-2.8,4.93-5.15,5.57-2.48.67-3.22-.95-5.92-.41-3.38.67-3.45,3.45-6.91,4.17-3.14.66-5.81-1.08-6.19-1.33-2.01-1.35-2.69-3.18-3.27-4.18-5.39-9.2-34.94-1.54-38.86,1.13Z"/>
    <path class="st1" d="M29.61,42.03c-1.23,4.34-2.06,8.95-2.53,13.44.12,3.21.07,6.61,1.02,9.64,1.2,4.37,4.35,7.64,6.69,11.28,3.88,5.44,1.12,9.32,9.61,11.22,6.65,1.17,14.84-.39,18.56-6.54,2.22-3.05,2.12-6.7,3.1-10.18,1.15-3.01,2.92-7.17,4.19-10.17,1.53-3.28,2.35-6.81,2.06-10.43-.21-3.58-1.32-7.11-3.16-10.22-.07-.11-.03-.26.08-.32.11-.07.25-.03.32.08,1.95,3.12,3.18,6.72,3.5,10.41.86,7.46-3.57,14.06-5.76,21.01-.58,1.78-.53,3.49-.91,5.35-.4,1.85-1.11,3.66-2.11,5.28-3.96,6.84-12.87,8.76-20.19,7.37-2.78-.59-5.83-1.95-7.32-4.57-1.26-2.51-1.32-5.28-3.07-7.51-1.07-1.56-1.9-3.2-3.05-4.52-3.24-4.35-4.51-9.88-4.33-15.19-.04-1.15,0-2.9.24-4,.69-3.92,1.38-7.79,2.6-11.59.12-.3.58-.16.48.17h0Z"/>
    <ellipse class="st1" cx="37.67" cy="51" rx="1.48" ry="2.47" transform="translate(-1.26 .95) rotate(-1.43)"/>
    <ellipse class="st1" cx="59.16" cy="50.02" rx="1.48" ry="2.47" transform="translate(-1.23 1.49) rotate(-1.43)"/>
    <path class="st1" d="M45.68,73.28c1.34-1.75,4.25-1.13,5.63-.52.7.31,1.44.63,1.69,1.34.51,1.48-1.33,3.97-3.64,4.31-1.38.2-3.34-.3-4.05-1.91-.47-1.06-.29-2.36.37-3.22Z"/>
  </g>
  <path class="st1" d="M23.14,77.05c-4.42,1.72-9.85,1-13.46-2.2-3.75-3.44-3.29-9.12-1.81-13.5,1.07-3.35,2.73-6.57,4.87-9.32,3.13-4.72,4.93-10.34,4.83-15.99-.82-4.15,2.3-9.54,7.08-10.23,1.09-.21,5.59-.45,5.15,1.32-.14.47-.64.73-1.1.57-5.37-1.82-10.58,2.8-9.68,8.34.02,5.96-1.96,11.8-5.3,16.68-2.18,2.72-3.76,5.69-4.87,8.97-1.42,4.09-2.02,9.29,1.39,12.54,3.28,3,8.49,3.78,12.63,2.21.39-.17.64.48.24.62h0Z"/>
  <path class="st1" d="M77.75,75.67c2.15-2.15,5.37-4.31,8.49-3.41,3.44,1.33,7.76-2.06,6.32-5.78-.64-2.08-1.85-4.1-2.94-6.13-2.24-4.06-4.3-8.33-5.48-12.87-1.21-4.52-1.9-9.12-2.51-13.72-.02-.18.1-.35.29-.37.18-.02.34.1.37.28.69,4.57,1.47,9.14,2.74,13.56,1.24,4.43,3.32,8.54,5.62,12.54,1.12,2.02,2.38,3.99,3.16,6.33,1.87,4.66-3.47,9.24-7.96,7.66-2.5-.65-5.1,1.3-6.8,3.01-.72.9-2.08-.22-1.31-1.09h0Z"/>
</svg>