<?xml version="1.0" encoding="UTF-8"?>
<svg id="_レイヤー_1" xmlns="http://www.w3.org/2000/svg" version="1.1" viewBox="0 0 100 100">
  <!-- Generator: Adobe Illustrator 30.0.0, SVG Export Plug-In . SVG Version: 2.1.1 Build 123)  -->
  <defs>
    <style>
      .st0 {
        fill: #ceb372;
      }

      .st1 {
        fill: #1c1917;
      }

      .st2 {
        fill: #fff;
      }
    </style>
  </defs>
  <path class="st2" d="M76.81,30.66c.58.58.97,1.03,1.46,1.52,0,0,.95,1.07,1.75,2.19,3.22,4.5,3.92,12.3,3.92,12.3.18,2.02.18,3.93.06,5.7-.07,1.07,3.55-1.12,4.27-.49,2.44,2.13,1.98,7.09.61,9.14-1.66,2.49-5.03,4.11-7.24,2.26-1.22,3.21-4.06,10.66-11.5,16.07-14.23,10.35-31.71,3.42-33.06,2.86-3.89-1.61-7.15-2.94-9.88-6.27-2.9-3.54-2.84-6.45-6.23-8.23-3.05.76-5.09-.31-6.85-2.28-1.52-1.71-1.73-4.64-.76-6.7,1.24-2.63,3.48-1.87,4.77-4.27,1.32-2.44-.57-3.89-.41-10.75.07-2.89.68-5.7,2.49-8.77,1.46-2.49,3.27-4.11,4.94-5.6.91-.81,2.64-2.34,5.19-3.8,1.91-1.09,5.05-2.58,9.31-3.3,1.99-.34,4.66-.91,7.92-1.05,0,0,15.14,1.29,18.33,2.51s10.92,6.95,10.92,6.95Z"/>
  <g>
    <path class="st0" d="M83.32,48.67c-.55.29-2.19.1-2.87.02-.43-.05-.76-.11-.91-.14-.79-.15-1.39-.35-1.75-.48-6.62-2.27-9.7-3.86-9.7-3.86-5.12-2.63-7.68-3.95-10.5-6.79-2.73-2.76-4.29-5.5-5.09-6.94-.02-.04-.04-.08-.07-.12-1.35-2.4-4.69-2.15-5.74.41-.3.73-.56,1.38-.74,1.87-3.08,8.49-9.17,13.72-16.91,17.56-4.2,2.08-8.91,5.05-10.82,3.25-1.93-1.83-1.04-8.56-.17-13.09.39-2.04-1-4-2.96-4.11-2.09-.12-4.58-.61-6.31-2.1-2.87-2.46-2.63-7.05-2.59-7.75.35-5.4,4.84-9.78,9.59-10.82,4.6-1.01,10.29.93,11.57,4.52.11.31.2.63.26.96.4,2.12,2.56,3.28,4.43,2.42,3.23-1.48,7.75-3.17,12.44-3.7,11.6-1.32,20.15,1.54,24.4,3.48,1.55.71,3.37.09,4.16-1.48.47-.95,1.12-2,1.97-2.97,2.51-2.83,7.62-5.46,12.49-3.23,5.28,2.43,7.2,9.2,5.94,13.89-1.03,3.84-4.19,6.23-4.72,6.62-1.73,1.27-2.59,1.83-3.49,2.26-1.4.67-2.19,2.26-1.85,3.84.56,2.63.94,5.95-.07,6.48Z"/>
    <g>
      <path class="st0" d="M72.69,47.16c.35.14.4-.21.75-.07.35.13.45.5.8.63.36.13.4,0,.76.14.35.13.26.42.61.55.36.13.53-.08.88.04.36.12.45-.49.8-.37.36.12.18.78.57.88.39.11.53-.05.91.06.38.1.14.52.54.62.41.07.48-.36.87-.3.39.06.37.1.76.14.39.04.38.36.79.39.53.01.59-.46,1.03-.49.45-.01,1.11.14,1.14.1l-1.29-1.73s-.12.28-.36.28c-.26,0-.2-.25-.48-.26-.34-.02-.37.25-.73.22-.35-.04-.33-.36-.67-.42-.33-.05-.32.53-.68.48-.35-.08-.41-.32-.75-.4-.34-.09-.26-.23-.59-.32-.33-.09-.46.12-.81,0-.35-.12-.22-.53-.57-.65-.35-.12-.49.29-.84.16-.35-.13-.3-.26-.65-.39-.35-.13-.28-.31-.63-.43-.35-.13-.49.36-.84.23-.35-.13-.24-.53-.58-.66-.35-.14-.42.05-.76-.09-.35-.14-.3-.48-.56-.59l-.75,1.85c.26.11.33-.15.68-.01.35.14.29.28.65.42Z"/>
      <path class="st0" d="M61.72,41.78c.33.2.43-.13.76.06.33.19.37.57.7.76.33.19.4.07.73.25.33.18.2.46.53.63.33.18.54,0,.87.17.33.17.51-.42.85-.25.33.17.07.79.41.96.33.17.5.05.83.22.34.17-.02.52.35.7.36.17.55-.22.89-.06.35.16.32.21.67.36.35.15.24.46.59.61.35.15.59-.28.93-.13.35.14.51.67.53.68l.75-1.85s-.52.01-.86-.13c-.34-.14-.24-.37-.58-.52-.34-.15-.45.11-.79-.04-.34-.15-.19-.45-.53-.6-.33-.15-.47.41-.81.26-.32-.15-.34-.4-.67-.56-.33-.17-.22-.29-.55-.46-.33-.17-.48.02-.81-.15-.33-.17-.14-.55-.47-.73-.33-.17-.52.22-.85.04-.33-.17-.26-.3-.58-.48-.33-.18-.23-.34-.55-.52-.32-.18-.54.28-.86.09-.32-.19-.15-.55-.46-.74-.31-.19-.41-.02-.72-.22-.31-.2-.19-.53-.42-.68l-1.12,1.65c.24.16.35-.07.68.14.33.21.24.34.57.54Z"/>
      <path class="st0" d="M52.98,33.03c.21.32.45.07.66.39.21.32.09.68.31.99.23.31.33.23.57.54.23.31,0,.5.24.81.24.31.5.21.75.51.25.3.64-.2.88.09.25.28-.21.77.05,1.05.26.28.47.22.73.49.27.27-.15.5.13.78.28.27.59-.05.87.22.29.26.26.3.55.55.3.24.11.51.42.76.32.24.64-.11.95.11.31.23.36.78.38.79l1.12-1.65s-.5-.09-.8-.31c-.29-.22-.14-.42-.42-.63-.28-.22-.45-.01-.73-.24-.27-.24-.05-.48-.32-.72-.26-.24-.57.25-.84,0-.26-.26-.21-.48-.46-.74-.25-.26-.11-.34-.36-.6-.24-.27-.46-.13-.7-.41-.24-.28.07-.56-.15-.84-.23-.28-.56,0-.79-.28-.23-.29-.11-.38-.33-.67-.22-.29-.06-.41-.28-.7-.21-.3-.61.03-.81-.28-.21-.31.11-.56-.08-.87-.19-.31-.36-.2-.55-.52-.19-.31.05-.56-.09-.8l-1.73,1.01c.15.25.35.08.55.41.2.33.07.4.27.73Z"/>
      <path class="st0" d="M46.68,33.23c.14-.36-.21-.4-.07-.74.14-.35.51-.44.64-.78.14-.34.01-.41.15-.72.14-.27.4-.14.55-.34.16-.2,0-.44.23-.62.21-.18-.2-.61.11-.81.34-.15.61.45.87.38.26-.05.32-.25.62-.25.3.02.14.47.38.51.22.06.38-.34.65-.22.25.16.23.18.44.38.22.2-.02.44.14.63.14.2.59.02.78.36.18.33,0,.85,0,.87l1.73-1.01s-.42-.31-.6-.63c-.17-.31.02-.46-.24-.87-.32-.38-.5-.21-.85-.51-.35-.3-.17-.55-.61-.81-.47-.2-.54.37-.95.25-.42-.1-.54-.33-1-.32-.45.02-.42-.13-.89-.04-.47.13-.43.38-.83.57-.38.23-.64-.12-1.02.21-.36.35-.03.63-.29.98-.25.36-.36.3-.56.71-.16.37-.32.29-.47.65-.14.36.35.5.21.85-.14.35-.54.25-.67.59-.13.34.05.41-.09.75-.13.34-.48.3-.58.55l1.84.78c.11-.27-.15-.34,0-.69.14-.36.28-.3.43-.66Z"/>
      <path class="st0" d="M40.03,43.65c.27-.28-.03-.46.23-.73.26-.28.65-.22.9-.52.25-.29.15-.38.4-.67.25-.29.5-.1.74-.41.24-.31.09-.54.32-.85.23-.31-.32-.57-.11-.88.21-.31.79.03,1.01-.29.22-.32.12-.49.31-.82.2-.33.52.03.72-.3.2-.34-.16-.55.02-.89.18-.34.23-.31.41-.65.18-.34.48-.21.66-.56.16-.35-.25-.61-.09-.96.16-.35.7-.5.71-.52l-1.84-.78s0,.51-.16.84c-.15.33-.38.22-.53.55-.17.32.08.45-.09.77-.17.32-.46.16-.63.48-.17.31.37.5.19.82-.19.31-.42.31-.61.62-.19.31-.3.19-.5.49-.2.3-.03.47-.24.77-.2.3-.57.05-.78.34-.22.28.13.55-.09.84-.22.29-.34.19-.58.47-.24.28-.38.15-.62.43-.23.27.16.59-.09.86-.26.27-.57.01-.83.27-.25.26-.12.4-.38.65-.27.25-.56.07-.76.25l1.35,1.47c.21-.2,0-.37.29-.63.28-.27.39-.14.66-.42Z"/>
      <path class="st0" d="M29.96,50.73c.34-.17.11-.44.45-.61.34-.17.68,0,1.01-.19.33-.19.27-.3.6-.49.33-.18.49.07.82-.13.33-.2.27-.47.6-.66.33-.2-.1-.66.22-.86.31-.2.72.32,1.05.11.32-.21.29-.42.6-.64.31-.22.47.24.78.01.32-.22.06-.58.36-.81.3-.23.34-.19.64-.43.3-.24.53,0,.82-.24.3-.25.02-.65.31-.9.29-.24.84-.17.86-.19l-1.35-1.47s-.2.48-.49.71c-.28.24-.44.05-.71.28-.27.24-.11.45-.4.67-.29.22-.49-.04-.77.18-.28.22.15.62-.15.83-.3.21-.51.12-.81.33-.3.21-.35.06-.65.26-.31.2-.21.42-.52.63-.31.2-.54-.15-.85.03-.31.19-.08.56-.4.75-.32.19-.39.07-.71.25-.32.18-.41.01-.74.19-.32.18-.05.61-.37.78-.33.17-.55-.18-.88,0-.33.17-.24.34-.57.51-.34.17-.57-.09-.83.04l.91,1.78c.25-.12.1-.34.43-.51.33-.17.4-.03.74-.21Z"/>
      <path class="st0" d="M17.93,54.33c.44.32.53-.09.96.1.43.1.68.44,1.15.43.45-.02.42-.18.85-.23.39-.1.48.21.89.1.39-.13.41-.39.78-.53.37-.14.04-.66.39-.8.34-.15.66.45,1.02.29.35-.16.36-.37.7-.53.34-.17.42.31.77.14.34-.17.15-.56.49-.73.34-.17.36-.12.7-.3.33-.17.5.11.84-.06.33-.17.16-.63.49-.8.33-.17.84.05.86.04l-.91-1.78s-.34.41-.67.58c-.33.17-.45-.05-.78.12-.33.17-.21.42-.54.59-.33.17-.48-.13-.81.04-.33.17.03.63-.3.8-.33.16-.52.03-.85.19-.33.15-.36,0-.69.15-.33.15-.27.38-.61.52-.34.13-.5-.27-.82-.14-.32.11-.18.52-.52.63-.34.09-.37-.06-.7.02-.32.03-.35-.13-.64-.12-.27,0-.28.53-.59.47-.16-.02-.21-.15-.23-.27-.03-.13-.05-.22-.13-.28-.17-.12-.31.04-.47-.18-.17-.22.12-.48.02-.63l-1.84.78c.17.33.37.17.6.57.32.37.17.52.62.84Z"/>
      <path class="st0" d="M16.89,41.77c-.07.38.29.35.23.72-.06.37-.4.55-.45.92-.05.38.08.39.03.77-.05.38-.35.35-.4.73-.04.38.21.5.17.88-.04.38.59.32.55.69-.03.37-.7.38-.72.77-.02.39.15.48.15.87,0,.38-.47.24-.47.63,0,.4.44.4.45.78.01.39-.03.39,0,.79.02.39-.28.45-.22.86.05.41.57.38.65.77.1.38-.14.92-.14.95l1.84-.78s-.34-.28-.41-.62c-.07-.33.16-.36.12-.7-.04-.33-.33-.3-.35-.65-.02-.36.3-.36.29-.72,0-.35-.58-.23-.59-.6,0-.37.21-.48.21-.84.01-.36.17-.31.19-.68.02-.36-.22-.42-.19-.79.03-.37.45-.34.49-.7.04-.36-.4-.4-.36-.77.05-.37.19-.35.24-.71.04-.37.24-.34.29-.7.05-.36-.46-.4-.4-.77.06-.37.47-.34.53-.7.06-.36-.13-.4-.07-.76.07-.37.42-.39.47-.67l-1.97-.37c-.05.28.21.29.14.66-.07.37-.22.34-.28.72Z"/>
      <path class="st0" d="M10.09,36.02c.38.17.43-.18.8-.03.37.14.5.5.89.61.39.11.42-.03.81.06.39.08.34.38.74.45.4.06.52-.19.91-.15.39.03.32-.58.7-.56.39.03.33.69.58.76.25.08.39-.06.65.09.25.16-.11.48.08.63.17.17.51-.11.69.14.16.25.11.28.24.55.11.28-.2.39-.15.65.04.25.53.26.52.59,0,.16-.14.3-.26.39-.13.11-.25.19-.25.2l1.97.37s-.03-.12-.05-.33c-.02-.21-.04-.46-.04-.69,0-.45.25-.47.17-.95-.11-.47-.37-.4-.53-.82-.19-.41.11-.56-.16-.98-.3-.39-.65.08-.95-.23-.31-.29-.31-.54-.71-.77-.41-.21-.31-.32-.76-.47-.46-.12-.6.13-.97.09-.36-.02-.33-.45-.68-.49-.35-.04-.39.39-.75.34-.35-.06-.33-.2-.67-.27-.34-.08-.3-.26-.63-.35-.33-.09-.44.4-.79.29-.34-.12-.22-.52-.53-.65-.3-.14-.39.03-.69-.13-.3-.17-.19-.5-.38-.64l-1.15,1.64c.26.19.38-.06.73.16.36.2.28.34.66.51Z"/>
      <path class="st0" d="M5.57,24.59c-.08.4.26.38.19.76-.04.39-.38.59-.42,1-.02.41.12.41.11.81,0,.39-.3.41-.28.82.03.4.29.48.34.87.05.4.64.19.7.56.06.37-.57.56-.49.96.11.39.3.44.43.81.14.38-.36.4-.2.8.18.39.56.22.75.58.19.36.14.39.37.73.22.35,0,.55.27.89.28.35.69.03.98.31.29.27.36.84.39.86l1.15-1.64s-.47-.07-.7-.31c-.23-.23-.06-.39-.26-.63-.2-.24-.43-.07-.61-.35-.19-.28.11-.45-.04-.72-.15-.28-.62.05-.76-.27-.15-.32.02-.5-.1-.82-.09-.33.06-.34-.03-.67-.07-.34-.33-.32-.38-.68-.06-.35.37-.42.32-.76-.03-.34-.47-.3-.49-.66-.02-.36.13-.36.13-.71,0-.35.19-.35.21-.69.04-.34-.47-.35-.43-.71.03-.36.46-.32.53-.66.08-.33-.13-.39-.02-.72.11-.34.45-.31.53-.56l-1.88-.68c-.09.29.17.34.05.72-.12.38-.27.34-.35.74Z"/>
      <path class="st0" d="M13.81,15.25c-.38.15-.16.44-.52.59-.36.15-.7,0-1.06.18-.36.19-.29.31-.62.52-.33.22-.52-.05-.85.19-.32.24-.25.5-.56.75-.3.26.19.65-.1.89-.29.24-.77-.19-1.06.09-.28.28-.21.48-.47.78-.25.3-.52-.11-.78.21-.24.33.1.6-.13.91-.23.32-.26.3-.47.64-.21.33-.5.19-.69.56-.18.37.21.62.06.98-.15.36-.69.55-.7.58l1.88.68s-.02-.48.11-.81c.14-.32.38-.2.53-.51.15-.3-.08-.44.1-.74.19-.3.45-.12.65-.39.2-.27-.32-.53-.11-.82.22-.29.46-.23.68-.5.23-.27.32-.13.56-.37.25-.24.1-.46.37-.69.27-.23.55.08.81-.13.27-.2,0-.55.29-.76.29-.21.38-.08.67-.27.3-.19.39-.03.7-.19.31-.16.04-.61.37-.76.33-.15.53.21.84.07.33-.12.26-.3.59-.42.33-.12.51.21.76.13l-.49-1.94c-.3.08-.19.32-.57.43-.38.13-.42-.02-.81.12Z"/>
      <path class="st0" d="M26.17,17.01c-.33-.26-.47.07-.79-.18-.33-.21-.37-.61-.73-.81-.36-.19-.42-.07-.78-.25-.37-.15-.26-.44-.64-.6-.39-.14-.56.08-.94-.04-.38-.11-.43.52-.8.42-.36-.1-.28-.75-.67-.83-.39-.08-.51.09-.9.05-.39-.04-.2-.5-.61-.53-.41-.02-.43.42-.83.4-.39,0-.4-.05-.79-.04-.39.01-.44-.29-.85-.26-.41.04-.39.54-.78.6-.38.06-.84-.25-.87-.25l.49,1.94s.38-.32.73-.37c.34-.06.37.18.71.15.34-.03.32-.32.67-.33.35,0,.35.32.69.32.34.02.26-.56.62-.55.36.01.45.24.8.28.35.04.29.2.63.25.34.06.43-.17.78-.08.34.1.24.49.56.6.32.11.46-.31.79-.19.33.14.27.27.59.4.31.16.22.33.52.48.29.16.52-.28.82-.09.31.19.07.56.34.75.27.2.37.07.63.3.26.23.02.54.18.71l1.57-1.24c-.21-.25-.38-.06-.66-.36-.3-.28-.19-.4-.51-.68Z"/>
      <path class="st0" d="M33.77,21.77c-.35.14-.15.43-.5.57-.35.15-.68-.05-1.03.11-.33.15-.32.3-.61.41-.27.11-.36-.2-.6-.15-.24.03-.3.29-.59.26-.27-.06-.33.58-.67.46-.34-.13-.08-.76-.3-.89-.22-.16-.4-.07-.6-.3-.2-.23.25-.43.11-.64-.11-.22-.52-.04-.62-.34-.08-.3-.01-.28-.13-.69-.12-.4.21-.52.06-.94-.2-.42-.62-.29-.84-.63-.2-.35-.1-.93-.13-.94l-1.57,1.24s.4.2.57.48c.15.28-.1.39.03.65.09.29.35.22.44.54.09.3-.24.42-.11.88.17.47.64.11.84.49.21.37.14.6.44.94.32.32.19.4.57.68.41.25.57.06.98.23.42.14.34.56.85.62.51.03.49-.4.93-.46.44-.08.48.06.92-.1.4-.17.43.02.78-.14.34-.15.1-.6.44-.75.34-.15.53.22.87.07.34-.14.27-.32.61-.46.34-.13.55.15.81.05l-.71-1.87c-.27.1-.14.33-.5.47-.36.14-.41,0-.76.14Z"/>
      <path class="st0" d="M45.7,18.77c-.38.04-.27.37-.64.4-.38.04-.63-.26-1.02-.2-.38.05-.37.18-.75.24-.38.06-.44-.24-.82-.18-.38.07-.42.34-.8.41-.38.08-.13.65-.5.73-.37.08-.57-.55-.94-.47-.37.09-.42.3-.78.39-.37.1-.36-.39-.73-.28-.37.11-.26.52-.62.64-.36.11-.38.06-.74.17-.36.12-.48-.19-.85-.06-.36.13-.25.6-.61.72-.35.13-.84-.15-.86-.14l.71,1.87s.37-.36.72-.48c.35-.12.43.12.77,0,.35-.12.26-.38.61-.49.35-.11.44.21.79.1.35-.11.08-.62.44-.73.35-.1.52.06.87-.03.35-.09.35.06.7-.02.36-.08.34-.33.7-.41.36-.08.46.34.81.27.36-.07.27-.49.63-.56.36-.06.39.08.75.03.36-.06.39.14.75.09.36-.05.27-.55.64-.58.37-.03.45.37.81.33.37-.03.35-.23.72-.26.37-.04.48.31.76.29l-.13-2c-.29.02-.23.27-.61.3-.38.04-.39-.12-.77-.08Z"/>
      <path class="st0" d="M57.96,19.13c-.38-.05-.35.29-.72.24-.38-.05-.56-.39-.94-.44-.38-.04-.4.1-.78.06-.38-.04-.36-.35-.74-.38-.38-.04-.49.22-.87.19-.38-.02-.3.59-.68.57-.37-.02-.39-.7-.78-.71-.38,0-.48.17-.86.16-.38,0-.23-.47-.62-.48-.38-.01-.39.43-.77.44-.38,0-.38-.05-.76-.04-.38,0-.41-.32-.79-.31-.38.02-.42.5-.79.52-.38.02-.76-.39-.78-.39l.13,2s.46-.23.83-.25c.37-.02.38.23.74.21.37,0,.36-.28.73-.29.37,0,.37.33.73.32.37,0,.26-.59.63-.58.37,0,.48.21.85.22.37,0,.32.16.69.17.37.01.42-.22.79-.2.37.02.35.45.71.47.36.02.39-.42.76-.38.37.04.35.18.72.22.37.04.35.22.71.26.36.05.39-.46.76-.41.37.05.35.46.71.51.36.05.39-.13.76-.07.36.06.39.41.66.46l.37-1.97c-.28-.05-.29.22-.67.15-.38-.07-.35-.22-.73-.28Z"/>
      <path class="st0" d="M69.61,22.57c-.27-.08-.29.26-.64.12-.35-.15-.43-.53-.78-.68-.36-.15-.41-.02-.76-.17-.36-.14-.25-.43-.62-.56-.36-.14-.53.07-.9-.05-.36-.13-.45.49-.8.37-.35-.12-.2-.77-.57-.88-.37-.11-.51.03-.87-.07-.37-.1-.11-.51-.48-.61-.37-.1-.49.31-.86.22-.37-.09-.36-.14-.73-.23-.37-.09-.32-.42-.69-.5-.38-.08-.53.38-.9.3-.37-.08-.64-.57-.66-.57l-.37,1.97s.51-.12.87-.04c.36.08.31.32.66.39.36.07.42-.19.78-.1.36.09.27.41.63.5.35.09.39-.49.75-.39.36.1.41.32.77.42.35.11.27.24.61.35.35.11.47-.11.82,0,.35.12.22.53.56.65.34.12.48-.29.83-.16.34.13.29.26.63.4.34.14.27.31.6.45.34.14.5-.34.84-.19.33.14.18.54.65.7.46.13.5-.06.94-.01.44.03.58.35.96.3l-.32-1.97c-.19.02-.14.29-.43.29-.29-.02-.26-.17-.52-.24Z"/>
      <path class="st0" d="M77.81,15.48c-.36.19-.1.45-.43.65-.33.2-.69.09-1.02.32-.33.23-.23.35-.54.6-.31.25-.51.04-.81.31-.3.27-.17.54-.45.83-.27.3.28.61.03.9-.23.29-.8-.07-1.04.26-.23.33-.13.51-.34.84-.2.33-.53-.03-.73.32-.2.35.18.57,0,.91-.16.29-.19.25-.37.48-.19.22-.43,0-.62.16-.19.14.02.58-.27.71-.3.13-.65-.25-.65-.25l.32,1.97c.05-.01.58-.31.99-.52.41-.21.55,0,.95-.3.38-.33.18-.53.48-.88.26-.36.56-.22.76-.61.16-.31-.4-.48-.23-.8.18-.31.41-.31.6-.61.19-.3.3-.18.5-.46.21-.28.04-.46.26-.74.23-.27.55,0,.79-.25.23-.24-.09-.55.17-.79.26-.24.35-.14.62-.36.28-.22.38-.08.67-.28.28-.2-.04-.6.26-.8.31-.19.55.13.85-.04.31-.17.21-.34.53-.51.32-.15.54.12.78.02l-.79-1.84c-.28.13-.13.35-.49.51-.36.17-.42.05-.78.23Z"/>
      <path class="st0" d="M90.12,16.18c-.31-.27-.45.06-.78-.16-.33-.21-.34-.64-.71-.82-.36-.19-.42-.07-.78-.26-.37-.16-.26-.44-.65-.59-.39-.16-.57.09-.96-.03-.4-.11-.41.51-.79.45-.37-.06-.33-.75-.74-.79-.41-.03-.52.14-.92.13-.4.01-.26-.46-.68-.44-.42.01-.38.47-.78.51-.4.04-.41,0-.8.08-.39.08-.49-.24-.89-.12-.39.12-.31.58-.67.72-.36.13-.88-.13-.9-.11l.79,1.84s.34-.35.67-.48c.33-.11.41.14.73.04.32-.1.27-.35.61-.43.34-.07.39.25.72.22.33-.03.17-.61.53-.63.35,0,.47.18.81.18.34.02.29.17.63.2.34.03.41-.18.75-.13.35.05.25.49.57.58.31.09.45-.35.77-.21.32.13.27.26.59.39.3.16.22.33.51.49.3.15.53-.28.83-.08.29.21.09.54.35.75.26.22.38.07.65.3.26.24.07.55.24.73l1.46-1.37c-.21-.22-.37-.01-.65-.3-.31-.26-.2-.38-.51-.64Z"/>
      <path class="st0" d="M94.65,27.79c.03-.4-.32-.34-.3-.73.03-.39.32-.62.31-1.02,0-.4-.14-.39-.18-.79-.04-.39.27-.44.22-.84-.07-.4-.34-.45-.41-.84-.09-.39-.66-.13-.75-.5-.09-.36.54-.61.41-.98-.13-.38-.32-.41-.47-.77-.15-.36.33-.41.17-.78-.16-.38-.57-.19-.75-.54-.19-.35-.12-.38-.34-.72-.21-.33.05-.53-.18-.87-.24-.34-.67-.08-.91-.39-.23-.32-.19-.86-.2-.88l-1.46,1.37s.47.17.67.46c.21.28.02.41.21.7.18.29.42.14.61.43.18.3-.12.47.04.76.15.3.64-.05.78.28.14.33,0,.51.14.83.11.34-.05.35.07.68.12.33.35.31.44.65.08.35-.31.45-.25.79.06.34.49.26.55.61.05.35-.11.37-.07.72.04.35-.16.36-.15.71,0,.35.53.31.52.67-.02.36-.43.37-.44.72-.04.34.15.37.1.72-.04.35-.41.37-.46.61l1.95.44c.06-.3-.19-.31-.12-.71.05-.4.21-.37.26-.78Z"/>
      <path class="st0" d="M87.6,37.99c.32-.22.06-.45.37-.67.31-.22.67-.1.98-.32.3-.22.23-.33.55-.58.31-.25.51-.02.82-.29.3-.27.19-.53.47-.8.27-.29-.24-.62.01-.9.25-.28.79.12,1.05-.19.25-.31.16-.5.39-.82.22-.32.53.06.75-.28.21-.35-.14-.58.05-.92.19-.35.25-.32.41-.68.17-.36.48-.25.63-.63.15-.39-.28-.6-.17-.98.13-.37.6-.64.62-.67l-1.95-.44s.12.48,0,.81c-.1.33-.34.24-.46.56-.12.31.12.42-.02.74-.14.32-.45.15-.61.45-.16.29.37.5.19.8-.19.3-.43.28-.63.57-.22.28-.31.16-.53.43-.22.27-.07.46-.31.72-.24.27-.56-.03-.8.22-.25.24.06.55-.21.79-.27.23-.36.12-.64.34-.27.21-.39.06-.69.28-.3.22.03.61-.27.82-.3.21-.57-.1-.87.11-.3.2-.19.37-.5.56-.31.19-.55-.05-.78.08l.99,1.74c.26-.15.1-.36.43-.56.33-.21.41-.08.73-.3Z"/>
      <path class="st0" d="M84.75,47.76c.06-.53-.27-.5-.25-.94,0-.4.31-.64.29-1.04-.03-.4-.16-.39-.2-.77-.04-.39.26-.43.21-.82-.06-.39-.32-.44-.39-.82-.07-.38-.65-.15-.72-.53-.07-.36.56-.58.5-.91-.05-.28-.23-.34-.23-.65.03-.31.48-.14.52-.39.06-.24-.34-.39-.22-.68.14-.27.19-.24.36-.48.19-.23.44-.01.63-.18.2-.15-.03-.57.27-.73.35-.17.88.02.91,0l-.99-1.74s-.27.39-.63.56c-.4.22-.54.01-.93.32-.37.33-.17.52-.46.88-.26.37-.54.19-.77.63-.2.45.4.52.27.93-.1.41-.32.53-.33.98,0,.45-.15.41-.08.87.07.4.32.36.39.73.07.36-.35.44-.29.8.06.35.49.28.54.64.05.36-.09.38-.06.74.04.36-.15.37-.13.72.02.35.53.29.53.66,0,.37-.41.36-.43.56-.03.21.16.3.09.54-.1.24-.42,0-.52.08l1.28,1.72c.31-.25.13-.39.38-.81.21-.44.33-.37.46-.89Z"/>
    </g>
  </g>
  <g>
    <path d="M82.29,63.4c-.12.06-.24.16-.35.29-.1.12-.19.28-.24.46-.06.17-.06.34-.03.5.03.17.09.35.21.47.12.12.31.17.49.2l.26-1.98c-.11-.02-.24,0-.35.07Z"/>
    <path d="M88.77,59.47c-.13.25.2.36.05.61-.15.25-.5.22-.66.45-.17.22-.06.31-.24.53-.18.22-.42.01-.6.21-.19.19-.06.43-.27.62-.21.18.24.59,0,.79-.25.18-.67-.33-.9-.18-.23.16-.2.34-.44.49-.25.13-.37-.33-.61-.21-.24.1-.07.52-.34.61-.26.1-.28.04-.54.11-.27.06-.34-.25-.59-.22-.24.03-.24.52-.52.52-.28,0-.48-.46-.48-.46l-.26,1.98s.5-.15.85-.17c.36,0,.37.23.75.19.36-.06.31-.33.65-.41.33-.09.43.23.77.11.34-.12.02-.62.32-.75.3-.14.48,0,.78-.17.29-.17.34-.02.62-.2.29-.19.17-.42.44-.61.25-.21.54.12.8-.11.26-.23-.05-.55.18-.78.23-.24.34-.14.55-.4.22-.26.36-.15.57-.42.2-.28-.24-.54-.07-.81.17-.28.54-.1.7-.4.16-.3-.02-.39.12-.69.13-.3.47-.25.57-.5l-1.88-.69c-.08.19.18.26.07.53-.11.26-.26.19-.38.44Z"/>
    <path d="M87.29,52.72c.24.02.22-.33.49-.29.26.05.3.4.49.48.19.1.26-.01.45.12.18.15-.03.38.11.52.13.16.37.06.5.27.11.22.63-.12.75.16.1.29-.53.52-.46.76.05.25.25.29.28.56.03.28-.44.21-.43.47,0,.25.44.27.42.55-.02.28-.08.27-.12.55-.05.28-.37.24-.42.51-.06.27.4.42.32.71-.04.14-.18.24-.32.3-.14.06-.26.09-.26.1l1.88.69s-.05-.48.04-.8c.08-.32.33-.26.4-.6.07-.34-.2-.39-.15-.72.05-.33.37-.29.4-.65.02-.36-.56-.27-.56-.6,0-.33.18-.45.14-.8-.05-.34.11-.33.03-.68-.09-.35-.33-.32-.45-.65-.13-.32.25-.52.05-.87-.22-.35-.57-.09-.8-.37-.25-.27-.15-.38-.46-.62-.32-.22-.22-.39-.58-.57-.38-.16-.52.33-.85.23-.33-.08-.31-.48-.69-.52-.37-.02-.37.18-.72.19-.34.02-.46-.3-.73-.26l.31,1.98c.2-.03.14-.29.41-.31.27-.02.27.14.52.14Z"/>
    <path d="M85.62,52.54c.1.13.24.21.37.27.12.06.26.1.38.08h0s-.31-1.98-.31-1.98h0c-.17.03-.32.09-.44.2-.11.11-.19.27-.23.44-.04.16-.04.34,0,.52.04.17.12.34.22.47Z"/>
  </g>
  <g>
    <path d="M43.09,20.66c-.06-.08-.15-.13-.23-.16-.08-.02-.17-.02-.26.01-.09.03-.16.08-.22.13-.06.06-.13.12-.15.2-.03.07-.02.15-.02.23l.99-.14c-.01-.1-.06-.2-.11-.28Z"/>
    <path d="M42.23,26.38c.05-.18-.13-.19-.08-.37.05-.18.22-.25.27-.44.04-.18-.02-.2.02-.38.04-.18.19-.15.24-.34.04-.19-.08-.26-.04-.44.04-.19-.27-.19-.23-.37.04-.18.37-.15.41-.32.04-.18-.04-.24,0-.43.04-.18.25-.07.29-.26.04-.19-.17-.24-.14-.43.03-.19.06-.19.09-.38.02-.2.19-.19.2-.4,0-.21-.23-.24-.23-.44,0-.2.18-.42.18-.43l-.99.14s.13.19.13.37c0,.17-.13.17-.13.33-.01.17.12.18.1.36-.03.18-.19.15-.22.32-.03.17.26.18.22.36-.04.18-.15.22-.19.4-.04.18-.11.15-.15.33-.04.19.08.23.04.41-.04.18-.25.14-.29.32-.04.18.18.22.14.4-.04.18-.11.17-.15.35-.04.18-.13.16-.18.34-.04.18.21.22.16.4-.05.18-.25.15-.3.33-.05.18.04.2,0,.38-.05.18-.23.18-.26.31l.96.28c.04-.14-.09-.16-.04-.34.05-.18.12-.16.17-.34Z"/>
    <path d="M40.05,32.1c.09-.17-.08-.21,0-.38.08-.17.27-.2.35-.38.08-.17.02-.2.1-.37.08-.17.22-.11.3-.29.08-.18-.02-.27.05-.44.07-.18-.23-.24-.16-.41.07-.17.39-.08.46-.25.07-.18,0-.25.07-.43.07-.18.26-.03.32-.21.07-.18-.14-.26-.08-.43.06-.18.09-.17.15-.35.06-.18.22-.14.28-.32.06-.18-.16-.28-.11-.46.06-.18.31-.29.31-.3l-.96-.28s.03.26-.02.44c-.05.18-.17.14-.23.31-.06.18.08.22.02.39-.06.18-.21.12-.27.29-.06.17.23.22.17.39-.06.17-.18.19-.24.37-.07.17-.13.12-.2.3-.07.17.04.24-.03.41-.07.17-.27.09-.34.26-.07.17.13.25.06.42-.07.17-.14.14-.22.31-.08.17-.16.13-.24.29-.08.17.16.26.08.43-.08.17-.27.09-.35.26-.08.16,0,.21-.08.37-.09.16-.26.13-.32.25l.88.47c.07-.13-.06-.17.03-.34.09-.17.16-.13.24-.3Z"/>
    <path d="M36.76,37.25c.12-.15-.04-.22.07-.37.11-.15.31-.15.42-.3.11-.15.06-.19.17-.35.11-.15.24-.07.35-.22.11-.16.03-.27.14-.42.11-.16-.18-.28-.07-.44.1-.16.4,0,.5-.15.1-.16.05-.25.15-.41.1-.16.26.02.36-.14.1-.16-.08-.28.01-.44.1-.16.12-.15.22-.31.1-.16.24-.09.34-.26.1-.17-.1-.31-.01-.47.09-.16.36-.22.37-.23l-.88-.47s-.02.26-.11.42c-.09.16-.2.1-.29.26-.09.16.03.23-.07.39-.09.16-.23.07-.33.23-.1.16.18.26.08.42-.1.16-.21.15-.31.31-.1.15-.15.1-.25.25-.1.15-.01.24-.12.39-.1.15-.28.04-.39.19-.11.15.08.27-.03.42-.11.15-.17.11-.28.26-.11.15-.19.09-.3.24-.11.15.1.29,0,.43-.11.15-.29.04-.4.19-.11.15-.04.21-.15.35-.11.15-.28.08-.36.18l.78.63c.09-.11-.02-.18.09-.33.12-.15.18-.1.29-.25Z"/>
    <path d="M32.53,41.68c.15-.12,0-.22.15-.35.14-.12.33-.08.47-.21.14-.13.1-.18.24-.31.14-.13.25-.02.39-.15.14-.13.08-.26.22-.39.14-.13-.12-.31.01-.44.13-.13.39.08.52-.05.13-.13.1-.23.23-.37.13-.14.25.07.38-.07.13-.14-.03-.29.1-.43.13-.14.15-.12.27-.27.12-.14.25-.04.38-.19.12-.15-.04-.32.08-.47.12-.15.4-.15.41-.16l-.78-.63s-.07.25-.19.39c-.12.14-.21.06-.33.2-.12.14-.02.23-.14.37-.12.14-.24.03-.37.16-.12.14.13.29,0,.42-.13.14-.24.11-.36.24-.13.13-.17.07-.3.2-.13.13-.06.23-.19.36-.13.13-.28-.02-.42.11-.13.13.02.28-.11.41-.14.13-.19.07-.32.2-.14.12-.2.06-.34.18-.14.12.04.3-.1.42-.14.12-.28-.02-.43.1-.14.12-.08.19-.22.31-.14.12-.28.01-.39.1l.62.78c.11-.09.02-.18.17-.3.15-.12.19-.06.34-.18Z"/>
    <path d="M27.41,45.05c.17-.09.05-.22.22-.31.17-.09.34,0,.51-.1.17-.09.13-.15.3-.24.16-.09.25.04.41-.06.17-.1.14-.23.3-.33.16-.1-.05-.33.11-.43.16-.1.36.17.52.06.16-.1.15-.2.31-.31.16-.11.23.12.39.02.16-.11.04-.29.19-.4.16-.11.17-.09.33-.2.15-.11.26.01.41-.1.15-.11.03-.32.18-.44.15-.12.42-.06.43-.06l-.62-.78s-.12.23-.27.34c-.15.11-.22,0-.37.12-.15.11-.06.22-.22.33-.15.11-.24-.03-.39.07-.15.11.06.31-.09.41-.15.1-.26.05-.41.16-.15.1-.18.02-.33.12-.16.1-.11.21-.27.31-.16.1-.27-.08-.43.01-.16.09-.04.28-.2.37-.16.09-.2.03-.36.12-.16.09-.21,0-.37.1-.16.09-.02.3-.19.39-.16.09-.28-.09-.44,0-.16.08-.12.17-.28.26-.17.08-.28-.05-.41.01l.44.9c.13-.06.05-.17.22-.26.17-.08.2-.02.37-.1Z"/>
    <path d="M21.66,47.19c.19-.04.11-.2.29-.24.18-.04.33.08.52.03.19-.05.17-.12.35-.17.18-.05.23.09.41.04.18-.06.19-.19.37-.25.18-.06.03-.33.21-.39.18-.06.31.25.49.18.18-.07.19-.17.37-.23.18-.07.2.17.38.1.18-.07.1-.27.28-.35.18-.07.19-.05.36-.12.17-.08.25.07.42-.01.17-.08.1-.31.27-.39.17-.08.42.03.43.03l-.44-.9s-.17.2-.34.28c-.17.08-.22-.04-.39.04-.17.08-.11.2-.28.28-.17.07-.23-.08-.4-.01-.17.07,0,.31-.18.38-.17.07-.26,0-.43.06-.17.06-.18-.02-.35.05-.17.06-.15.18-.33.24-.18.06-.25-.14-.42-.09-.17.05-.11.26-.28.32-.18.05-.2-.02-.37.03-.18.05-.2-.04-.38,0-.18.05-.1.29-.28.33-.18.04-.25-.15-.42-.11-.18.04-.16.14-.34.17-.18.04-.26-.12-.39-.09l.19.98c.14-.03.1-.15.28-.19.19-.04.2.04.39,0Z"/>
    <path d="M20.51,47.22c.06.07.14.11.22.13.08.03.17.04.26.03h0s-.19-.98-.19-.98h0c-.09.02-.17.05-.23.11-.06.06-.11.14-.14.22-.03.08-.04.17-.02.26.02.09.05.17.11.24Z"/>
  </g>
  <g>
    <path d="M56.88,20.63c-.04-.06-.09-.13-.16-.18-.06-.05-.15-.09-.24-.11-.09-.02-.17-.01-.25.02-.08.03-.17.07-.23.16-.05.08-.08.19-.08.3l1,.02c0-.07-.01-.14-.05-.2Z"/>
    <path d="M58.94,25.25c-.09-.15-.22-.03-.31-.19-.09-.16-.01-.32-.1-.48-.09-.15-.15-.12-.24-.28-.09-.16.04-.24-.04-.39-.09-.16-.22-.13-.31-.29-.09-.16-.33.04-.41-.12-.09-.16.19-.34.11-.5-.08-.16-.19-.15-.27-.31-.08-.16.15-.21.07-.36-.08-.15-.27-.06-.35-.22-.07-.16-.05-.17-.1-.32-.06-.16.1-.22.05-.36-.03-.14-.28-.12-.3-.28-.02-.17.2-.31.2-.31l-1-.02s.1.28.14.48c.03.2-.09.23-.04.43.06.2.19.16.26.34.07.18-.08.24,0,.42.08.18.32,0,.4.17.08.16.02.26.11.42.08.16,0,.18.09.34.08.16.2.12.29.28.09.16-.1.27-.01.43.09.16.28.05.37.21.09.16.03.19.12.35.09.16,0,.21.1.36.09.16.3.01.39.17.09.16-.08.28.02.43.09.16.18.11.27.26.09.16-.03.28.05.4l.85-.53c-.07-.11-.17-.03-.27-.18-.09-.15-.03-.19-.12-.35Z"/>
    <path d="M62.23,29.98c-.11-.14-.22,0-.33-.14-.11-.14-.05-.32-.17-.46-.11-.14-.16-.1-.27-.24-.11-.14.01-.24-.1-.38-.11-.14-.24-.1-.34-.24-.11-.14-.32.08-.43-.07-.11-.15.15-.36.05-.51-.1-.15-.2-.13-.31-.28-.1-.15.13-.23.02-.37-.1-.15-.28-.03-.38-.18-.1-.15-.08-.16-.18-.31-.1-.15.03-.25-.06-.4-.1-.15-.31-.04-.41-.19-.1-.15,0-.41,0-.42l-.85.53s.21.15.31.3c.1.15,0,.22.09.37.1.15.22.08.32.23.1.15-.04.24.06.39.1.15.31-.05.41.1.1.15.05.25.16.4.1.15.03.18.13.32.1.15.21.1.32.24.11.15-.06.28.04.42.11.15.28.01.39.16.11.14.05.19.16.33.11.15.03.2.15.35.11.14.3-.03.41.12.11.14-.04.28.08.43.12.14.19.08.31.22.12.14.01.28.1.39l.76-.64c-.09-.1-.18,0-.29-.14-.11-.14-.05-.19-.17-.33Z"/>
    <path d="M66.19,34.17c-.13-.12-.22.03-.35-.09-.13-.12-.1-.31-.23-.43-.13-.12-.18-.08-.31-.2-.13-.13-.02-.24-.15-.36-.13-.13-.25-.07-.38-.19-.13-.13-.31.13-.43,0-.13-.13.1-.38-.03-.51-.12-.13-.22-.1-.34-.23-.12-.13.09-.24-.03-.37-.12-.13-.28.01-.4-.12-.12-.13-.1-.15-.22-.28-.12-.13,0-.25-.12-.38-.12-.13-.32,0-.43-.13-.12-.14-.06-.4-.07-.41l-.76.64s.23.11.35.25c.12.14.02.22.15.36.12.14.23.05.35.18.12.14,0,.25.12.38.12.13.3-.1.42.03.12.13.09.24.21.38.12.13.06.17.18.3.13.13.23.06.36.19.13.13-.02.28.11.41.13.13.28-.03.41.1.13.13.08.18.21.31.13.13.06.19.2.32.13.13.29-.07.43.06.13.12,0,.29.14.41.13.12.2.05.33.18.13.12.06.28.16.37l.67-.74c-.1-.09-.17.02-.31-.1-.13-.12-.08-.18-.21-.3Z"/>
    <path d="M70.7,37.72c-.15-.1-.21.07-.36-.03-.15-.1-.15-.29-.3-.39-.15-.1-.19-.04-.33-.15-.15-.1-.06-.23-.21-.33-.14-.11-.25-.03-.4-.13-.14-.11-.28.17-.43.06-.14-.11.04-.39-.1-.5-.14-.11-.23-.06-.37-.17-.14-.11.06-.25-.08-.36-.14-.11-.28.05-.42-.06-.14-.11-.12-.13-.26-.25-.14-.12-.04-.25-.17-.36-.13-.12-.31.05-.45-.07-.14-.12-.12-.39-.12-.4l-.67.74s.24.08.38.2c.14.12.05.21.19.33.14.12.23.01.37.13.14.12.03.24.17.36.14.12.28-.14.42-.03.14.11.12.23.27.34.14.11.08.16.22.27.14.11.24.03.38.14.15.11.02.28.17.39.15.11.27-.07.42.04.15.11.11.16.26.27.15.11.09.18.25.29.15.1.28-.12.43-.01.15.1.05.28.21.38.15.1.21.02.36.12.15.1.1.26.22.34l.52-.85c-.11-.07-.17.05-.32-.04-.15-.1-.11-.16-.26-.26Z"/>
    <path d="M75.81,40.29c-.17-.06-.19.11-.36.05-.17-.07-.21-.25-.37-.32-.17-.07-.19,0-.36-.08-.16-.07-.11-.21-.27-.28-.16-.07-.25.03-.42-.05-.16-.07-.24.23-.4.15-.16-.08-.04-.39-.2-.47-.16-.08-.24-.01-.4-.1-.16-.08,0-.26-.15-.34-.16-.08-.26.11-.42.02-.16-.09-.14-.11-.3-.2-.16-.09-.08-.23-.24-.32-.15-.09-.3.11-.45.02-.15-.09-.18-.36-.19-.37l-.52.85s.26.04.41.13c.16.09.09.2.25.29.16.09.23-.03.39.06.16.09.08.23.24.32.16.09.25-.19.41-.11.16.08.17.2.33.28.16.08.11.14.27.22.17.08.24-.02.4.06.17.08.08.27.25.35.17.08.25-.12.42-.05.17.07.14.14.31.21.17.07.13.16.3.23.17.07.25-.17.42-.11.17.07.11.26.28.33.17.06.21-.03.38.04.17.06.16.23.29.28l.33-.94c-.13-.04-.15.09-.32.03-.17-.06-.14-.13-.31-.2Z"/>
    <path d="M81.36,41.64c-.18-.02-.16.15-.34.13-.18-.02-.27-.19-.45-.21-.18-.02-.19.05-.36.02-.18-.02-.16-.18-.33-.2-.17-.03-.23.09-.41.06-.17-.03-.18.28-.35.24-.17-.04-.12-.37-.29-.42-.17-.04-.24.04-.41-.01-.17-.05-.05-.25-.22-.3-.17-.05-.23.16-.41.11-.17-.05-.16-.08-.33-.13-.17-.05-.13-.21-.3-.26-.17-.06-.27.17-.44.11-.17-.06-.26-.32-.27-.32l-.33.94s.26-.02.43.04c.17.06.13.18.31.23.17.06.22-.08.39-.02.17.05.12.21.3.26.18.05.2-.24.38-.19.17.05.2.16.38.21.18.05.14.11.31.16.18.05.22-.07.41-.02.18.04.14.25.33.29.19.03.22-.18.4-.15.18.03.17.1.35.12.18.02.17.12.35.14.18.02.19-.23.37-.21.18.02.17.22.35.25.08,0,.12,0,.17-.02.07-.02.13-.04.27-.05.24-.03.33.11.47.07l-.29-.96c-.12.03-.08.16-.2.19-.09.01-.11-.04-.16-.06-.01,0-.05-.02-.09-.02Z"/>
    <path d="M82.35,41.67c-.06-.07-.16-.11-.26-.14-.1-.02-.2-.03-.28,0h0s.29.96.29.96h0c.08-.03.15-.06.19-.11.04-.05.07-.13.09-.2.02-.07.05-.16.05-.25,0-.09-.02-.18-.08-.25Z"/>
  </g>
  <g>
    <path d="M36.57,22.1c-.06-.08-.15-.14-.23-.17-.08-.03-.17-.02-.26,0-.09.03-.16.08-.22.14-.06.06-.12.12-.15.2-.03.07-.03.15-.02.23l1-.1c0-.11-.05-.23-.11-.31Z"/>
    <path d="M34.78,27.92c.09-.18-.08-.22,0-.39.09-.18.28-.22.36-.4.08-.18.02-.21.1-.39.08-.18.23-.12.3-.31.08-.18-.02-.28.05-.46.08-.18-.23-.24-.16-.43.07-.18.39-.09.46-.27.07-.18,0-.27.07-.45.07-.18.26-.03.33-.22.07-.19-.13-.27-.06-.46.07-.19.09-.18.15-.39.05-.2.22-.18.26-.4.04-.23-.2-.29-.18-.5.01-.21.21-.44.2-.45l-1,.1s.12.2.11.37c-.02.17-.14.15-.17.32-.03.17.1.2.05.38-.05.18-.21.12-.27.29-.06.17.23.22.16.4-.07.18-.18.2-.25.39-.07.18-.13.13-.2.31-.07.18.03.24-.04.43-.07.18-.27.1-.35.28-.07.18.13.26.05.44-.07.18-.14.15-.22.32-.08.18-.17.14-.25.31-.08.18.16.27.07.44-.09.18-.28.1-.36.28-.08.17,0,.22-.09.39-.09.17-.26.13-.33.26l.88.47c.07-.13-.06-.18.04-.35.09-.18.16-.14.25-.32Z"/>
    <path d="M31.26,33.28c.13-.16-.03-.23.09-.38.12-.15.32-.15.44-.31.12-.16.07-.2.19-.36.12-.16.25-.07.37-.23.12-.16.04-.28.16-.44.12-.16-.17-.29-.06-.45.11-.16.4,0,.51-.16.11-.16.06-.26.17-.42.11-.17.26.02.37-.15.11-.17-.07-.29.03-.46.1-.17.13-.16.23-.33.1-.17.25-.1.35-.27.1-.17-.1-.32,0-.49.1-.17.37-.23.38-.25l-.88-.47s-.02.27-.12.44c-.09.17-.2.11-.3.27-.09.17.02.24-.08.4-.1.17-.24.08-.34.24-.1.16.17.27.07.43-.1.16-.22.16-.33.32-.1.16-.16.1-.26.26-.11.16-.02.25-.13.41-.11.16-.29.04-.4.2-.11.16.07.28-.05.44-.11.16-.17.11-.29.27-.12.15-.19.1-.31.25-.12.15.09.29-.03.45-.12.15-.29.04-.41.19-.12.15-.05.21-.18.36-.13.15-.28.07-.38.18l.75.66c.1-.11-.01-.18.12-.34.13-.15.19-.1.32-.25Z"/>
    <path d="M26.61,37.71c.16-.12.02-.23.18-.35.16-.12.34-.07.5-.2.16-.12.11-.18.27-.31.15-.13.26-.01.41-.14.15-.13.1-.26.25-.39.15-.13-.1-.32.05-.45.14-.13.39.09.54-.04.15-.14.12-.23.26-.37.14-.14.25.08.4-.06.14-.14,0-.29.13-.44.14-.14.16-.12.3-.27.14-.14.27-.04.4-.18.14-.15-.02-.33.11-.48.13-.14.42-.14.42-.15l-.75-.66s-.09.26-.22.4c-.13.14-.22.06-.35.2-.13.14-.03.24-.17.38-.13.14-.25.02-.38.16-.13.14.11.3-.03.43-.14.14-.25.11-.39.24-.14.14-.18.06-.32.19-.14.13-.08.24-.22.37-.15.13-.29-.03-.43.1-.14.13,0,.29-.14.42-.15.12-.19.07-.34.19-.15.13-.21.05-.36.17-.15.12.02.31-.13.43-.15.12-.29-.03-.45.09-.15.12-.09.2-.25.31-.16.11-.29,0-.41.09l.58.82c.12-.09.03-.18.19-.3.16-.12.2-.06.37-.18Z"/>
    <path d="M20.96,40.79c.19-.06.09-.21.28-.28.19-.07.35.04.54-.04.19-.08.16-.14.34-.22.19-.08.25.06.43-.02.18-.08.17-.22.35-.31.18-.09-.01-.34.17-.43.17-.09.36.2.53.1.18-.1.17-.2.35-.3.18-.09.23.14.4.04.17-.1.07-.29.24-.39.17-.1.18-.08.35-.19.17-.11.27.03.44-.08.17-.11.06-.33.22-.44.17-.11.44-.04.45-.05l-.58-.82s-.14.23-.3.34c-.16.11-.23,0-.39.11-.16.1-.09.22-.25.32-.16.1-.25-.04-.41.06-.16.1.03.31-.14.41-.17.1-.27.04-.44.13-.17.09-.19.01-.35.1-.17.09-.14.2-.31.29-.17.09-.27-.1-.44-.02-.17.08-.08.28-.25.36-.18.08-.2.02-.38.09-.18.07-.21-.01-.39.06-.18.07-.07.3-.25.37-.18.07-.27-.11-.45-.05-.18.06-.15.15-.33.21-.18.06-.28-.08-.42-.04l.29.96c.14-.04.09-.16.28-.23.19-.06.21,0,.4-.05Z"/>
    <path d="M19.76,40.97c.06.06.15.09.24.11.09.02.18.02.27,0h0s-.29-.96-.29-.96h0c-.09.03-.17.07-.23.13-.06.06-.1.15-.13.23-.02.08-.02.18,0,.26.02.09.07.17.13.22Z"/>
  </g>
  <g>
    <path d="M45.78,69.65c.13-.11.24-.26.3-.42.06-.16.06-.34.04-.51-.03-.18-.1-.33-.2-.47-.1-.14-.22-.28-.38-.35-.15-.06-.32-.07-.49-.05l.26,1.98c.18-.02.35-.09.48-.19Z"/>
    <path d="M41.98,62.94c-.16.15.11.38-.13.55-.19.13-.68.02-1.01.31-.34.3-.24.4-.51.74-.25.35-.52.22-.73.65-.18.46.05.64,0,1.09-.03.47.59.33.63.69.07.35-.54.64-.31,1.09.12.22.26.31.39.39.13.09.26.15.43.29.35.27-.03.55.4.81.45.18.61-.21.99-.1.39.09.39.15.78.2.39.04.4.36.81.37.4,0,.43-.49.8-.52.36-.03.76.35.78.35l-.26-1.98s-.41.26-.73.29c-.33.02-.34-.23-.64-.23-.3,0-.31.27-.62.24-.3-.04-.24-.37-.49-.43-.25-.07-.35.49-.63.38-.26-.13-.23-.34-.4-.5-.16-.18-.04-.24-.14-.42-.09-.17-.33-.12-.38-.37-.03-.26.4-.27.42-.46.04-.19-.39-.31-.29-.57.12-.25.24-.18.39-.39.17-.2.3-.08.49-.23.18-.16-.12-.54.16-.72.34-.2.62.1.97-.23.32-.35.17-.47.4-.85.2-.38.54-.38.64-.71l-1.93-.52c-.05.18.21.24.1.48-.12.23-.25.14-.39.3Z"/>
    <path d="M42.17,53.15c.13.14.38-.1.53.11.06.11,0,.25-.06.36-.07.13-.14.16-.14.36,0,.35.14.33.14.68,0,.35-.31.38-.3.73,0,.35.26.41.26.76,0,.35.61.21.61.56,0,.35-.67.43-.66.77,0,.35.19.43.19.77,0,.35-.46.23-.46.58,0,.34.44.35.44.7,0,.35-.05.35-.05.7,0,.35-.32.36-.32.7,0,.35.49.41.46.73-.04.33-.52.49-.52.49l1.93.52s-.07-.6-.04-.99c.03-.39.27-.38.27-.74,0-.36-.28-.37-.28-.73,0-.36.33-.35.33-.71,0-.36-.57-.25-.58-.61,0-.35.2-.47.2-.83,0-.36.15-.32.15-.68,0-.36-.24-.39-.24-.75,0-.36.42-.39.42-.75,0-.36-.44-.32-.44-.68,0-.36.14-.37.14-.72,0-.36.19-.37.19-.73,0-.16-.14-.32-.27-.38-.14-.08-.27-.14-.33-.35-.14-.39.14-.62-.16-1.03-.36-.35-.49-.19-.9-.41-.42-.19-.44-.53-.75-.62l-.47,1.94c.19.05.26-.21.47-.13.2.1.12.22.26.34Z"/>
    <path d="M31.87,53.56c.34-.07.19-.39.54-.46.34-.07.6.2.94.13.34-.06.32-.19.66-.25.34-.05.4.25.74.2.34-.05.39-.32.73-.36.34-.04.16-.64.51-.68.35-.04.47.62.81.59.34-.03.41-.22.76-.25.35-.02.25.45.59.43.34-.02.32-.45.67-.47.34-.01.34.05.68.05.34,0,.35.33.67.34.32.02.41-.46.74-.42.34.04.53.53.53.53l.47-1.94s-.56.09-.94.05c-.38-.04-.36-.29-.74-.31-.38-.01-.39.26-.76.26-.37,0-.37-.34-.73-.32-.37.01-.24.58-.59.6-.36.02-.48-.17-.84-.14-.36.03-.33-.13-.69-.09-.36.03-.37.28-.73.32-.35.04-.41-.38-.77-.33-.36.05-.29.48-.64.53-.35.05-.38-.09-.73-.03-.35.06-.39-.13-.74-.06-.35.06-.23.56-.57.63-.35.07-.46-.32-.82-.25-.35.07-.31.27-.66.34-.35.08-.51-.23-.78-.16l.48,1.94c.25-.06.16-.31.5-.39.34-.08.37.07.71,0Z"/>
    <path d="M29.76,53.67c.12.12.28.19.43.24.15.05.31.07.48.03h0s-.48-1.94-.48-1.94h0c-.17.04-.33.12-.44.24-.12.12-.2.29-.24.45-.04.16-.04.34,0,.52.05.17.14.34.25.46Z"/>
  </g>
  <g>
    <path d="M21.44,28.99c.01.09.05.18.1.25.05.07.13.12.21.16.08.03.17.04.26.02.09-.02.18-.04.26-.11.07-.06.12-.16.16-.26l-.94-.33c-.03.09-.04.18-.03.27Z"/>
    <path d="M21.74,23.31c.05.19.2.1.25.29.04.19-.07.33-.04.52.03.19.1.18.13.37.02.19-.13.22-.11.41.01.19.15.23.16.42,0,.19.31.13.31.33,0,.2-.34.22-.34.41-.01.19.08.25.06.44-.02.2-.24.1-.27.29-.03.19.19.22.16.42-.04.19-.06.19-.1.38-.05.19-.2.16-.25.35-.05.19.17.28.12.47-.06.19-.32.29-.33.3l.94.33s0-.29.05-.49c.06-.2.18-.17.23-.37.05-.21-.08-.24-.04-.44.04-.21.2-.17.24-.38.03-.21-.26-.19-.23-.4.02-.21.13-.26.15-.47.01-.21.09-.18.1-.39,0-.21-.11-.24-.11-.45,0-.21.21-.22.2-.43-.01-.21-.23-.2-.25-.4-.02-.21.05-.22.02-.43-.03-.21.06-.22.03-.43-.03-.21-.28-.14-.33-.34-.05-.2.14-.27.09-.48-.05-.21-.15-.18-.22-.38-.07-.2.07-.3.02-.46l-.94.35c.05.14.16.07.23.26.06.19,0,.2.04.39Z"/>
    <path d="M18.13,18.39c.16.11.22-.05.38.07.16.12.15.31.3.44.15.12.2.07.34.2.14.13.05.25.18.38.13.14.26.08.4.22.14.14.32-.11.45.04.13.15-.1.39.02.54.12.15.22.14.34.29.12.16-.11.24,0,.39.1.16.29.04.4.21.1.17.07.18.17.35.09.17-.04.25.04.42.08.17.31.1.39.28.09.18-.05.43-.05.44l.94-.35s-.19-.22-.28-.41c-.09-.19.03-.24-.06-.44-.1-.19-.23-.13-.33-.31-.1-.18.05-.27-.07-.45-.12-.18-.32.03-.44-.15-.11-.17-.07-.29-.2-.45-.13-.17-.05-.19-.18-.36-.13-.17-.25-.1-.38-.26-.14-.16.02-.31-.13-.46-.15-.15-.3,0-.45-.14-.15-.14-.1-.19-.26-.34-.15-.14-.09-.21-.26-.35-.17-.13-.3.07-.47-.05-.17-.12-.06-.3-.23-.42-.17-.12-.23-.04-.4-.15-.18-.11-.13-.28-.27-.37l-.51.86c.12.07.17-.05.34.06.17.1.12.17.28.28Z"/>
    <path d="M17.23,17.62c0,.09.05.17.09.24.05.07.1.14.18.19h0s.51-.86.51-.86h0c-.09-.05-.19-.09-.28-.09-.1,0-.19.03-.27.07-.08.04-.14.11-.18.19-.04.08-.06.17-.05.26Z"/>
  </g>
  <g>
    <path d="M80.17,32.73c-.06.08-.1.17-.1.26,0,.09.03.17.07.25.05.08.11.14.18.18.07.05.15.1.22.11.07.01.15,0,.22-.03l-.34-.94c-.1.04-.19.1-.25.17Z"/>
    <path d="M85.51,31.55c-.16.07-.06.21-.23.28-.17.07-.32-.04-.48.01-.17.06-.15.12-.32.17-.17.05-.22-.09-.38-.05-.17.04-.18.18-.35.22-.17.04-.06.33-.24.36-.18.03-.26-.29-.43-.27-.17.02-.2.12-.38.14-.18.02-.13-.22-.31-.21-.18.01-.17.23-.35.24-.19.01-.19-.02-.38,0-.19.02-.22-.14-.42-.12-.2.03-.19.27-.38.31-.19.04-.44-.09-.46-.09l.34.94s.15-.16.32-.2c.16-.03.18.09.34.07.16-.02.15-.16.33-.17.18-.01.18.15.36.14.18-.01.11-.29.29-.31.19-.01.25.08.44.06.19-.02.18.05.37.03.19-.03.19-.15.38-.18.19-.03.23.17.42.13.19-.04.13-.26.31-.3.18-.05.2.02.38-.03.18-.05.21.03.39-.03.18-.06.08-.29.25-.36.17-.07.27.12.44.04.17-.08.14-.16.31-.24.17-.08.29.05.42-.01l-.45-.89c-.12.06-.04.17-.21.25-.16.08-.19,0-.35.07Z"/>
    <path d="M90.13,28.23c-.12.13.03.22-.09.35-.13.13-.31.09-.44.22-.13.12-.08.17-.22.29-.13.12-.24,0-.37.12-.13.11-.09.24-.22.36-.14.11.09.32-.05.43-.14.11-.37-.14-.51-.03-.14.11-.12.21-.27.31-.15.1-.23-.12-.37-.02-.15.1-.03.28-.18.38-.15.1-.17.07-.32.17-.15.09-.25-.04-.4.05-.15.09-.06.31-.21.4-.16.09-.4-.03-.41-.03l.45.89s.17-.2.34-.29c.16-.09.23.02.39-.08.16-.1.09-.22.25-.31.16-.1.25.04.41-.06.16-.11-.05-.31.1-.42.15-.1.26-.06.41-.17.15-.11.18-.04.33-.15.15-.11.09-.22.24-.34.15-.11.28.05.43-.07.15-.12,0-.28.15-.41.14-.12.19-.07.33-.19.14-.13.2-.06.34-.19.14-.13-.05-.3.08-.43.13-.13.29,0,.42-.15.13-.14.06-.21.18-.35.12-.14.28-.08.37-.19l-.79-.62c-.08.1.03.17-.08.31-.12.13-.17.08-.29.21Z"/>
    <path d="M90.94,27.53c-.09,0-.17.02-.25.05-.07.03-.15.07-.2.14h0s.79.62.79.62h0c.06-.07.1-.16.11-.25.01-.09,0-.18-.05-.26-.03-.08-.09-.15-.17-.2-.07-.05-.16-.08-.24-.09Z"/>
  </g>
  <g>
    <path d="M66.76,22.49c-.03-.07-.09-.15-.16-.2-.07-.05-.15-.09-.24-.11-.09-.02-.17,0-.25.03-.08.04-.17.09-.23.17-.05.09-.07.2-.08.32l1,.03c0-.08,0-.17-.05-.24Z"/>
    <path d="M69.16,27.56c-.12-.16-.23-.03-.34-.19-.11-.16-.06-.35-.17-.51-.11-.17-.16-.13-.27-.3-.11-.17.02-.25-.09-.42-.1-.17-.24-.14-.34-.31-.1-.17-.34.04-.44-.14-.1-.17.17-.37.07-.54-.1-.17-.21-.17-.3-.34-.09-.17.14-.22.05-.39-.09-.17-.28-.07-.36-.25-.08-.17-.05-.18-.11-.36-.06-.18.09-.23.05-.4-.04-.17-.28-.15-.3-.33-.02-.19.2-.36.2-.36l-1-.03s.1.3.13.52c.04.22-.09.25-.04.47.06.23.19.18.26.39.07.2-.08.26,0,.47.09.2.32.02.42.2.09.18.04.29.14.47.1.18.02.2.13.37.1.17.22.13.32.31.1.17-.08.29.03.46.11.18.29.06.4.23.11.17.05.21.16.38.11.17.03.22.15.4.12.17.32,0,.43.18.12.17-.04.3.08.47.12.16.2.11.33.27.12.16.02.31.12.43l.78-.62c-.09-.11-.18-.02-.3-.18-.12-.16-.06-.2-.18-.36Z"/>
    <path d="M73.65,32.04c-.16-.12-.22.04-.38-.08-.16-.12-.16-.31-.31-.44-.15-.13-.2-.07-.35-.2-.16-.12-.06-.25-.21-.38-.15-.13-.27-.06-.42-.19-.15-.13-.31.13-.45,0-.15-.14.06-.4-.08-.53-.14-.14-.24-.11-.38-.25-.14-.14.07-.25-.06-.39-.13-.14-.29,0-.43-.14-.13-.15-.12-.16-.25-.31-.13-.15-.01-.27-.14-.41-.13-.15-.33-.02-.46-.17-.13-.16-.07-.43-.08-.44l-.78.62s.25.14.38.3c.13.16.03.24.17.39.14.16.24.07.38.22.13.16.01.26.15.41.14.15.31-.09.45.06.14.15.12.26.26.41.14.14.07.18.22.33.15.14.25.07.4.21.15.14,0,.3.16.44.16.14.3-.03.45.1.15.13.11.19.27.32.16.13.1.2.26.33.16.13.3-.08.46.04.16.12.06.3.22.42.16.12.22.04.39.16.17.12.11.29.24.38l.57-.82c-.12-.09-.18.03-.34-.08-.16-.12-.12-.18-.28-.29Z"/>
    <path d="M79.12,35.06c-.16-.02-.15.15-.33.11-.18-.05-.21-.23-.37-.31-.18-.09-.21-.03-.39-.13-.18-.09-.11-.23-.29-.33-.18-.09-.28,0-.46-.09-.18-.09-.27.21-.44.11-.18-.09-.05-.4-.22-.49-.18-.09-.26-.04-.44-.13-.18-.09,0-.26-.17-.36-.17-.1-.28.09-.46-.01-.17-.1-.16-.12-.33-.23-.17-.1-.09-.25-.26-.35-.17-.1-.32.08-.49-.03-.17-.11-.2-.39-.21-.4l-.57.82s.28.06.45.17c.17.11.1.22.28.33.18.11.25,0,.42.1.17.11.08.25.26.35.18.1.27-.18.44-.08.18.1.18.22.36.31.18.09.12.15.3.25.18.1.26,0,.44.09.18.09.08.29.26.38.18.1.28-.1.46,0,.18.09.15.16.33.25.18.09.14.18.32.27.21.1.29-.14.49-.07.21.06.18.27.42.31.24.03.25-.07.48-.08.23-.02.32.13.51.09l-.26-.96c-.11.03-.07.16-.23.18-.16.01-.16-.07-.32-.08Z"/>
    <path d="M80.13,35.05c-.07-.05-.16-.07-.23-.08-.08-.02-.15-.02-.22,0h0s.26.96.26.96h0c.12-.03.23-.09.3-.17.07-.08.11-.17.12-.27.01-.09,0-.18-.05-.26-.04-.08-.11-.15-.18-.19Z"/>
  </g>
  <g>
    <path d="M10.25,21.21c-.03-.07-.09-.14-.15-.19-.06-.05-.15-.08-.24-.1-.09-.02-.17-.01-.25.01-.08.03-.17.06-.23.12-.05.06-.09.15-.1.23l.99.16c.01-.08,0-.16-.02-.23Z"/>
    <path d="M10.49,26.04c-.04-.16-.2-.08-.24-.24-.04-.16.08-.29.05-.45-.03-.16-.1-.15-.13-.31-.03-.16.12-.19.1-.35-.02-.16-.16-.18-.18-.34-.01-.16-.31-.08-.33-.25-.01-.17.31-.22.31-.38,0-.16-.1-.2-.11-.36,0-.17.23-.11.23-.27,0-.16-.22-.17-.21-.33,0-.16.03-.16.04-.33,0-.16.18-.16.19-.32.01-.16-.22-.21-.2-.37.02-.17.26-.28.26-.29l-.99-.16s.07.24.05.42c-.02.17-.15.16-.16.34-.01.18.12.19.11.36,0,.17-.17.16-.18.34,0,.18.29.13.28.3,0,.17-.1.23-.1.4,0,.17-.07.16-.06.33,0,.18.14.19.15.36.02.17-.2.2-.18.37.02.18.24.14.26.32.03.17-.05.18-.02.36.03.17-.06.19-.03.36.03.17.28.1.32.27.04.17-.15.23-.11.41.04.17.14.14.19.31.05.17-.09.26-.05.39l.94-.33c-.04-.11-.16-.06-.21-.21-.05-.16.02-.17-.02-.33Z"/>
    <path d="M13.16,30.44c-.12-.11-.21.03-.32-.08-.12-.12-.08-.29-.19-.41-.11-.12-.16-.08-.26-.2-.11-.12,0-.23-.1-.35-.11-.12-.22-.08-.32-.21-.09-.13-.31.09-.41-.05-.1-.14.16-.34.07-.48-.08-.14-.18-.12-.27-.27-.08-.14.15-.21.06-.34-.08-.14-.27-.04-.34-.19-.07-.15-.05-.16-.12-.31-.07-.15.08-.22.01-.37-.06-.15-.29-.08-.36-.23-.07-.15.1-.37.09-.38l-.94.33s.17.18.24.34c.07.16-.05.21.02.37.07.17.19.11.27.27.08.16-.07.23,0,.39.08.16.31-.02.39.13.09.15.03.25.12.4.09.15.01.17.1.32.1.15.21.09.31.24.1.14-.07.27.03.42.11.14.27.01.38.14.11.13.06.18.17.31.11.13.04.2.16.33.12.13.3-.06.42.06.12.12,0,.28.12.4.13.13.19.05.33.16.13.11.06.27.16.36l.63-.78c-.09-.08-.16.03-.29-.07-.12-.11-.08-.16-.19-.27Z"/>
    <path d="M17.77,32.74c-.16-.03-.16.14-.32.11-.16-.04-.22-.21-.37-.25-.16-.04-.18.02-.33-.03-.16-.05-.11-.19-.27-.25-.15-.06-.23.05-.39,0-.15-.06-.22.25-.37.18-.15-.07-.04-.38-.19-.45-.15-.06-.22,0-.37-.08-.15-.08.01-.25-.13-.33-.14-.07-.25.11-.39.03-.14-.08-.13-.11-.27-.19-.14-.08-.05-.23-.18-.32-.13-.09-.29.09-.42,0-.14-.09-.11-.37-.12-.37l-.63.78s.24.07.38.17c.14.1.07.2.22.31.15.1.22,0,.37.08.15.09.06.23.21.32.15.09.25-.18.4-.1.15.08.16.19.31.27.16.08.1.14.26.21.16.07.23-.03.39.04.16.07.09.27.25.33.17.06.24-.15.4-.08.17.06.14.12.31.17.17.05.14.15.31.19.17.04.22-.21.39-.16.17.04.14.24.31.28.17.04.19-.06.36-.03.17.03.19.2.33.22l.13-.99c-.12-.02-.12.12-.28.09-.16-.03-.15-.1-.31-.13Z"/>
    <path d="M18.71,33.07c-.03-.08-.09-.14-.15-.19-.06-.05-.12-.09-.2-.1h0l-.13.99h0c.08.01.18,0,.25-.03.08-.04.14-.1.19-.17.04-.07.07-.16.08-.25,0-.09-.01-.18-.04-.26Z"/>
  </g>
  <g>
    <path d="M16.02,57.49c.14-.14.27-.29.35-.46.08-.16.1-.35.07-.53-.03-.18-.13-.33-.28-.45-.16-.12-.35-.26-.61-.27-.25-.02-.56.06-.85.18l.83,1.82c.18-.07.34-.18.48-.3Z"/>
    <path d="M17.71,67.25c-.44-.11-.43.25-.88.1-.45-.17-.55-.56-.9-.79-.36-.25-.43-.13-.78-.45-.33-.32-.12-.54-.39-.87-.26-.34-.53-.28-.76-.68-.2-.4-.7-.01-.89-.48-.17-.48.46-.73.37-1.15-.07-.44-.27-.53-.29-1,0-.47.46-.3.48-.74.04-.43-.39-.5-.3-.96.11-.44.16-.43.32-.84.18-.4.48-.27.69-.58.22-.3-.09-.67.25-.96.17-.14.41-.16.59-.14.19.03.32.08.33.08l-.83-1.82c-.06.03-.65.53-1.09.94-.44.42-.63.25-1.01.77-.34.54-.1.67-.33,1.21-.2.54-.52.44-.66,1.03-.11.59.48.5.43,1.04-.04.54-.25.71-.22,1.27.04.56-.12.51-.02,1.08.13.57.37.57.56,1.09.21.52-.17.71.12,1.24.31.51.67.25,1,.69.36.42.25.52.66.91.41.37.31.53.8.87.52.31.71-.16,1.2.06.5.2.43.6.99.75.56.12.59-.07,1.13,0,.27.03.43.13.58.22.14.09.37.19.65.16l-.27-1.98c-.09.01-.13.07-.2.14-.08.06-.21.12-.44.1-.47-.05-.44-.21-.89-.29Z"/>
    <path d="M20.22,67.42c-.18-.07-.39-.07-.57-.09-.19,0-.29-.04-.41-.02h0s.27,1.98.27,1.98h0c.36-.05.73-.23.9-.41.19-.19.28-.4.31-.59.03-.18,0-.37-.09-.53-.09-.16-.24-.28-.41-.35Z"/>
  </g>
  <g>
    <path d="M91.01,18.68c0-.08-.03-.17-.08-.24-.04-.07-.12-.12-.2-.17-.08-.04-.16-.06-.25-.06-.09,0-.18,0-.25.04-.07.04-.12.1-.16.17l.87.5c.04-.08.07-.16.06-.24Z"/>
    <path d="M87.77,22.77c.12-.12-.02-.22.1-.34.12-.12.3-.09.42-.21.12-.12.07-.17.19-.3.12-.13.23-.03.35-.15.12-.13.05-.25.16-.38.11-.13-.15-.29-.04-.42.11-.13.38.06.49-.07.11-.13.06-.23.17-.36.11-.14.25.05.36-.08.1-.14-.07-.28.03-.42.1-.14.13-.12.22-.27.1-.14.24-.06.34-.21.1-.15-.1-.3,0-.45.09-.15.36-.18.36-.19l-.87-.5s-.02.24-.11.38c-.09.14-.19.07-.28.21-.09.14.02.21-.07.35-.09.14-.23.04-.32.17-.1.13.16.26.06.4-.1.13-.21.11-.32.24-.1.13-.15.07-.26.2-.11.13-.03.22-.13.35-.11.13-.27-.01-.38.11-.11.12.06.27-.06.39-.11.12-.17.07-.28.2-.11.12-.18.06-.3.18-.12.12.08.29-.04.41-.12.12-.28-.01-.39.11-.12.12-.05.19-.17.31-.12.12-.27.03-.36.11l.69.72c.09-.09-.01-.17.11-.29.12-.12.18-.06.3-.19Z"/>
    <path d="M83.71,26.52c.13-.11,0-.22.12-.33.13-.11.31-.06.44-.18.13-.11.08-.17.21-.28.13-.11.23,0,.36-.12.13-.12.07-.24.2-.36.13-.12-.12-.3,0-.42.12-.12.37.11.49,0,.12-.12.09-.21.22-.33.13-.12.24.1.36-.02.13-.12-.02-.28.11-.39.13-.12.14-.1.27-.21.13-.12.24,0,.37-.12.13-.12-.02-.31.1-.43.12-.12.39-.07.4-.08l-.69-.72s-.09.23-.21.34c-.12.12-.21.03-.33.14-.12.12-.03.22-.15.33-.12.12-.24,0-.36.11-.12.12.11.29-.02.41-.12.12-.23.08-.36.19-.12.12-.16.05-.29.16-.13.12-.06.22-.18.33-.13.12-.27-.04-.4.08-.12.11.03.27-.1.39-.13.11-.17.06-.3.17-.13.11-.19.04-.31.15-.13.11.05.29-.07.4-.13.11-.27-.03-.4.08-.13.11-.07.18-.2.29-.13.11-.27,0-.37.08l.63.78c.1-.08,0-.17.14-.28.13-.11.18-.05.31-.16Z"/>
    <path d="M79.03,29.56c.15-.08.04-.21.19-.29.15-.08.31.02.46-.06.15-.08.13-.14.28-.22.16-.08.23.05.39-.03.15-.09.13-.22.28-.31.15-.09-.05-.32.1-.41.15-.09.34.18.49.09.15-.09.13-.2.28-.29.15-.1.22.13.37.03.15-.1.02-.28.16-.38.14-.1.16-.08.3-.18.14-.1.24.02.38-.08.14-.11,0-.31.15-.42.14-.11.39-.04.4-.05l-.63-.78s-.1.22-.24.32c-.13.1-.21,0-.34.1-.13.1-.05.21-.19.31-.14.1-.23-.04-.37.06-.13.1.07.3-.07.4-.14.09-.24.04-.38.13-.14.09-.16.02-.3.11-.14.09-.09.2-.24.29-.14.08-.26-.1-.4-.02-.14.08-.03.27-.18.35-.15.08-.18.02-.33.09-.15.08-.19,0-.34.07-.15.07-.03.3-.18.37-.15.08-.26-.1-.42-.02-.16.08-.11.17-.27.26-.15.09-.28-.03-.4.05l.55.84c.1-.06.01-.17.15-.25.14-.08.18-.01.32-.09Z"/>
    <path d="M78.11,29.91c.08.04.16.04.23.04.07,0,.15-.01.21-.05h0s-.55-.84-.55-.84h0c-.08.05-.14.12-.18.19-.04.08-.04.17-.03.26.01.08.05.17.11.24.06.07.13.13.2.16Z"/>
  </g>
  <g>
    <path d="M84.84,52.94c-.07-.17-.2-.32-.34-.42-.14-.1-.31-.15-.49-.16-.18-.01-.35.03-.5.11-.16.08-.32.17-.42.32-.1.14-.14.33-.16.51l1.99.19c.02-.19,0-.39-.08-.55Z"/>
    <path d="M82.18,64.38c.14-.36-.21-.41-.07-.77.14-.36.51-.47.64-.85.13-.37,0-.42.13-.79.12-.37.42-.29.53-.67.11-.38-.11-.54,0-.92.11-.38-.52-.42-.42-.8.1-.37.76-.27.85-.65.09-.38-.07-.52.01-.9.08-.38.5-.15.58-.54.08-.39-.35-.48-.28-.86.07-.39.12-.38.18-.77.06-.39.39-.36.44-.75.05-.39-.42-.51-.37-.9.04-.39.51-.71.51-.73l-1.99-.19s.15.5.12.88c-.05.37-.3.34-.34.71-.05.37.22.41.16.79-.06.37-.39.31-.45.68-.07.37.52.36.45.73-.07.37-.29.45-.37.82-.08.37-.22.29-.31.66-.09.37.14.47.04.83-.09.37-.51.26-.61.62-.1.36.32.47.21.84-.11.36-.25.32-.37.68-.12.36-.3.3-.42.65-.13.35.37.49.23.85-.13.36-.53.25-.67.6-.14.35.04.42-.1.78-.14.35-.49.31-.6.57l1.84.77c.11-.27-.15-.34,0-.7.15-.36.29-.3.43-.67Z"/>
    <path d="M75.81,75.32c.26-.3-.06-.46.19-.76.26-.3.64-.29.88-.6.24-.32.13-.4.37-.71.23-.32.48-.15.71-.48.23-.33.07-.55.29-.88.21-.33-.37-.56-.16-.89.21-.33.81-.02,1.01-.36.2-.34.09-.52.28-.85.19-.34.53,0,.72-.34.19-.35-.19-.56-.01-.91.18-.35.22-.33.4-.68.18-.35.47-.23.64-.59.17-.36-.25-.61-.09-.96.16-.36.7-.52.7-.55l-1.84-.77s0,.53-.15.88c-.15.35-.38.24-.54.58-.16.34.1.46-.07.8-.17.34-.46.18-.63.52-.17.33.39.5.21.83-.18.33-.4.35-.6.67-.19.32-.3.21-.49.53-.19.33-.01.48-.21.8-.2.32-.57.09-.77.41-.21.31.15.54-.06.85-.22.31-.33.23-.55.53-.23.3-.38.18-.61.48-.23.29.2.59-.04.88-.24.29-.58.06-.82.34-.24.28-.09.42-.35.69-.26.28-.57.11-.76.32l1.45,1.38c.2-.22-.02-.37.25-.66.27-.29.38-.18.64-.49Z"/>
    <path d="M65.68,82.97c.36-.18.13-.45.49-.62.35-.18.7,0,1.06-.18.35-.18.29-.29.64-.48.33-.21.5.05.83-.17.34-.22.28-.49.61-.7.33-.22-.11-.66.22-.87.32-.21.76.31,1.09.09.32-.24.28-.45.59-.69.31-.24.49.21.8-.04.32-.24.03-.6.34-.85.3-.26.33-.22.63-.48.3-.26.53-.04.82-.31.29-.28,0-.66.27-.93.29-.27.83-.25.86-.27l-1.45-1.38s-.17.5-.45.76c-.27.26-.44.08-.71.34-.27.26-.08.47-.36.71-.28.25-.5,0-.78.23-.28.24.18.62-.12.85-.3.23-.52.15-.81.38-.3.23-.35.08-.65.3-.31.2-.21.42-.53.63-.32.2-.56-.15-.87.05-.31.2-.07.57-.39.77-.32.2-.39.08-.7.28-.33.18-.43,0-.76.17-.33.17-.06.6-.4.77-.34.17-.55-.18-.88-.01-.33.17-.25.34-.59.51-.35.14-.57-.15-.83-.05l.75,1.85c.28-.11.14-.33.51-.47.36-.16.42-.03.77-.2Z"/>
    <path d="M53.33,85.85c.4-.01.29-.33.69-.37.39-.03.64.25,1.04.22.39-.04.38-.17.77-.2.39-.04.44.28.83.23.39-.07.45-.34.84-.41.39-.07.17-.65.55-.72.38-.07.56.58.95.51.39-.06.44-.28.82-.38.38-.1.35.39.74.28.39-.1.28-.53.66-.63.38-.1.4-.05.78-.15.38-.11.49.17.87.04.38-.14.26-.61.63-.75.37-.14.87.13.89.12l-.75-1.85s-.37.36-.73.49c-.35.13-.43-.1-.78.03-.35.12-.26.41-.62.51-.36.1-.45-.22-.81-.13-.36.1-.1.62-.46.72-.36.1-.53-.07-.89.03-.36.1-.35-.06-.72,0-.37.06-.37.31-.74.37-.37.06-.45-.36-.82-.29-.37.06-.3.5-.67.56-.38.04-.39-.11-.77-.07-.37.03-.39-.15-.77-.12-.37.03-.3.54-.68.57-.38.03-.44-.36-.81-.36-.38,0-.37.2-.75.21-.38,0-.47-.33-.75-.33v2c.3,0,.26-.27.65-.27.39,0,.39.15.79.14Z"/>
    <path d="M40.78,84.37c.38.1.39-.25.76-.16.38.09.53.46.91.54.39.08.41-.05.8.03.38.08.33.38.72.47.39.08.53-.17.91-.1.39.06.37-.56.75-.5.38.06.34.73.73.79.39.04.51-.13.9-.09.39.04.2.49.59.53.39.04.44-.39.83-.35.39.02.39.08.78.1.39.02.4.35.79.37.4.02.47-.46.86-.44.39,0,.75.42.78.42v-2s-.49.23-.86.21c-.38-.02-.37-.27-.74-.29-.37-.02-.39.26-.77.24-.38-.02-.35-.35-.72-.37-.37-.04-.31.54-.69.5-.38-.04-.47-.25-.85-.29-.37-.04-.31-.19-.68-.23-.37-.06-.45.17-.82.11-.37-.06-.31-.48-.68-.54-.37-.06-.44.38-.81.3-.37-.08-.34-.22-.71-.3-.37-.08-.33-.26-.7-.34-.37-.08-.45.41-.82.32-.37-.09-.3-.5-.67-.59-.37-.09-.42.09-.78-.02-.36-.11-.35-.46-.63-.54l-.59,1.91c.28.08.32-.18.7-.07.38.11.33.27.71.36Z"/>
    <path d="M29.31,78.96c.32.24.45-.09.77.14.32.23.34.61.67.84.34.22.41.1.74.31.34.2.19.47.53.68.35.2.56.02.9.21.35.18.53-.41.87-.23.35.17.1.8.46.97.36.17.52.04.88.2.36.16.04.53.4.68.36.16.54-.24.9-.09.36.15.33.2.71.35.37.14.28.45.65.59.38.14.59-.31.96-.18.37.13.59.64.62.65l.59-1.91s-.53.06-.88-.07c-.36-.12-.28-.35-.62-.48-.35-.13-.45.13-.8,0-.34-.13-.21-.44-.56-.59-.35-.15-.47.43-.82.28-.35-.15-.38-.38-.72-.54-.34-.16-.24-.28-.58-.44-.34-.16-.48.03-.82-.14-.34-.17-.14-.56-.47-.73-.32-.18-.53.21-.86.02-.32-.19-.25-.32-.57-.51-.32-.2-.21-.36-.53-.56-.31-.21-.56.23-.88.02-.31-.22-.1-.57-.4-.79-.29-.23-.41-.07-.71-.3-.29-.23-.14-.56-.36-.73l-1.29,1.53c.23.19.37-.03.67.22.31.24.22.36.53.61Z"/>
    <path d="M21.27,69.11c.19.35.45.12.63.47.19.34,0,.7.21,1.05.2.34.32.27.52.61.2.34-.06.51.16.85.22.33.49.27.71.6.22.33.65-.12.88.19.23.31-.27.75-.03,1.07.23.32.45.27.7.58.25.3-.19.49.07.8.26.31.59.02.86.31.27.29.23.33.5.61.27.29.06.53.35.81.29.28.66-.03.95.23.29.26.29.83.31.84l1.29-1.53s-.5-.15-.78-.41c-.28-.25-.1-.43-.37-.69-.26-.26-.47-.06-.72-.33-.26-.27-.01-.5-.26-.76-.25-.27-.61.2-.85-.09-.24-.29-.17-.51-.4-.79-.24-.29-.09-.35-.31-.64-.22-.3-.44-.19-.67-.49-.23-.3.12-.56-.08-.86-.2-.31-.56-.06-.77-.37-.21-.31-.08-.4-.27-.72-.19-.32-.03-.42-.22-.74-.19-.32-.61-.05-.79-.38-.18-.34.17-.56,0-.89-.17-.33-.34-.25-.5-.59-.16-.34.11-.57-.01-.82l-1.83.81c.13.27.35.13.52.48.17.36.03.42.2.78Z"/>
    <path d="M17.58,57.02c.06.39.38.25.45.63.07.38-.19.66-.12,1.05.07.39.21.36.29.74.08.38-.22.46-.13.84.08.39.37.42.46.8.09.38.66.11.75.49.09.37-.53.6-.42.98.11.38.31.42.42.79.12.37-.37.38-.24.75.12.38.54.25.66.62.13.37.08.39.22.76.14.37-.16.5-.02.88.15.37.62.24.77.6.15.36-.1.87-.09.89l1.83-.81s-.38-.36-.52-.71c-.14-.35.08-.44-.05-.78-.13-.35-.39-.25-.52-.61-.13-.35.18-.46.06-.81-.12-.35-.63-.06-.74-.43-.11-.36.03-.53-.07-.89-.1-.36.06-.36-.05-.72-.1-.36-.36-.34-.44-.71-.09-.37.32-.48.23-.84-.09-.36-.52-.25-.6-.63-.08-.37.06-.4-.02-.77-.08-.37.1-.41.04-.78-.07-.37-.56-.24-.63-.62-.07-.38.32-.48.27-.85-.06-.37-.25-.34-.31-.72-.06-.38.27-.51.23-.8l-1.98.26c.04.29.29.22.35.61.06.39-.09.41-.03.79Z"/>
    <path d="M17.64,54.66c-.14.11-.23.27-.29.44-.06.16-.11.34-.08.53h0s1.98-.26,1.98-.26h0c-.02-.18-.08-.36-.18-.5-.11-.14-.26-.25-.42-.32-.16-.07-.34-.1-.52-.08-.18.02-.35.09-.48.19Z"/>
  </g>
  <g>
    <path d="M84.58,17.39c.03-.07.05-.16.04-.25,0-.08-.04-.17-.09-.24-.05-.08-.12-.13-.19-.17-.08-.04-.16-.08-.24-.08-.08,0-.16.04-.23.09l.56.83c.07-.05.13-.11.16-.18Z"/>
    <path d="M80.66,20.58c.11-.12-.03-.21.08-.34.12-.12.3-.08.42-.2.12-.12.07-.17.2-.28.13-.11.23,0,.36-.11.13-.11.07-.24.2-.35.13-.11-.11-.31.03-.42.13-.11.36.13.49.03.13-.1.11-.2.24-.31.13-.1.23.12.36.01.13-.1,0-.28.15-.38.14-.1.15-.08.29-.18.14-.1.24.03.38-.07.14-.1.02-.31.16-.41.14-.1.39,0,.4-.01l-.56-.83s-.13.21-.27.31c-.14.1-.21,0-.36.1-.14.1-.07.21-.21.31-.14.1-.24-.03-.38.07-.14.1.07.3-.07.41-.14.11-.24.06-.38.17-.14.11-.17.03-.31.14-.14.11-.08.22-.21.33-.13.11-.28-.05-.41.06-.13.12.01.28-.12.4-.13.12-.18.06-.31.18-.13.12-.19.05-.32.18-.13.12.06.29-.06.42-.13.12-.28,0-.4.13-.12.13-.05.2-.17.32-.12.13-.27.05-.36.16l.76.65c.08-.09-.03-.17.08-.3.12-.12.17-.07.28-.19Z"/>
    <path d="M77.96,25.16c.05-.16-.12-.18-.07-.34.05-.16.23-.2.29-.36.06-.15,0-.18.06-.34.06-.15.2-.1.27-.25.07-.15-.03-.24.04-.39.07-.15-.22-.24-.15-.4.08-.15.39-.01.47-.16.08-.14.02-.23.1-.37.09-.14.26.03.34-.11.09-.14-.09-.26,0-.4.09-.14.12-.12.22-.26.1-.13.24-.04.33-.18.1-.13-.08-.3.03-.43.11-.13.37-.11.38-.12l-.76-.65s-.07.24-.18.38c-.11.14-.21.06-.32.2-.11.14,0,.23-.1.37-.11.14-.24.04-.34.2-.1.15.17.26.07.41-.09.15-.22.14-.3.29-.09.15-.14.1-.23.25-.09.16,0,.23-.08.39-.08.16-.27.07-.35.23-.08.16.12.25.04.41-.07.16-.13.13-.2.3-.07.16-.15.13-.22.3-.07.17.18.24.12.4-.05.17-.25.12-.31.29-.05.17.03.2-.02.37-.04.17-.22.17-.25.3l.97.25c.03-.12-.1-.14-.06-.3.04-.16.12-.14.17-.3Z"/>
    <path d="M77.51,26.08c.08-.02.15-.07.21-.13.06-.05.11-.12.13-.19h0s-.97-.25-.97-.25h0c-.02.08-.03.17,0,.25.02.08.08.15.14.21.06.05.14.1.23.12.09.02.18.02.26,0Z"/>
  </g>
  <g>
    <path d="M12.86,18.03c-.08-.06-.18-.1-.27-.11-.09-.01-.18.01-.26.06s-.14.11-.18.19c-.04.08-.08.17-.08.27,0,.1.05.2.1.3l.88-.48c-.05-.1-.12-.18-.2-.24Z"/>
    <path d="M16.05,23.92c-.11-.2-.23-.07-.34-.27-.11-.2-.03-.39-.14-.58-.11-.2-.17-.17-.27-.36-.11-.2.03-.27-.08-.47-.11-.2-.25-.18-.35-.38-.11-.2-.34,0-.45-.19-.11-.2.17-.38.07-.58-.11-.2-.21-.2-.32-.4-.11-.2.14-.24.03-.43-.11-.2-.3-.1-.41-.29-.11-.2-.08-.21-.19-.41-.11-.2.03-.28-.08-.48-.11-.2-.33-.11-.44-.31-.11-.2-.02-.48-.02-.49l-.88.48s.23.21.33.4c.11.2,0,.25.1.45.11.2.23.13.33.33.11.2-.04.27.06.47.11.2.33,0,.43.2.11.2.05.31.16.5.11.2.03.21.13.41.11.2.22.16.33.36.11.2-.08.3.03.5.11.2.3.09.4.28.11.2.04.23.15.43.11.2.02.24.13.44.11.2.32.06.43.25.11.2-.06.31.04.51.11.2.19.15.3.35.11.2-.02.32.06.47l.88-.48c-.08-.15-.18-.07-.29-.26-.11-.2-.04-.23-.14-.43Z"/>
    <path d="M19.48,30.26c-.11-.2-.23-.07-.34-.27-.11-.2-.03-.39-.14-.58-.11-.2-.17-.17-.27-.36-.11-.2.03-.27-.08-.47-.11-.2-.25-.18-.35-.38-.11-.2-.34,0-.45-.19-.11-.2.17-.38.07-.58-.11-.2-.21-.2-.32-.4-.11-.2.14-.24.03-.43-.11-.2-.3-.1-.41-.29-.11-.2-.08-.21-.19-.41-.11-.2.03-.28-.08-.48-.11-.2-.33-.11-.44-.31-.11-.2-.02-.48-.02-.49l-.88.48s.23.21.33.4c.11.2,0,.25.1.45.11.2.23.13.33.33.11.2-.04.27.06.47.11.2.33,0,.43.2.11.2.05.31.16.5.11.2.03.21.13.41.11.2.22.16.33.36.11.2-.08.3.03.5.11.2.3.09.4.28.11.2.04.23.15.43.11.2.02.24.13.44.11.2.32.06.43.25.11.2-.06.31.04.51.11.2.19.15.3.35.11.2-.02.32.06.47l.88-.48c-.08-.15-.18-.07-.29-.26-.11-.2-.04-.23-.14-.43Z"/>
    <path d="M19.94,31.53c.04-.08.05-.18.04-.28,0-.1-.02-.2-.07-.29,0,0,0,0,0,0l-.88.48s0,0,0,0c.05.09.12.18.2.24.08.06.18.09.27.1.09,0,.18,0,.26-.05.08-.04.14-.11.18-.19Z"/>
  </g>
  <g>
    <path d="M56.13,74.78c.11-.17.16-.38.15-.56,0-.18-.08-.34-.18-.49-.11-.15-.26-.24-.41-.31-.17-.07-.34-.13-.52-.12-.17.01-.35.09-.51.19l1.02,1.72c.19-.11.36-.27.46-.43Z"/>
    <path d="M43.34,76.53c.43.14.43-.21.86-.1.42.11.61.47,1.05.55.44.08.46-.06.9,0,.44.04.43.35.88.37.45.01.56-.24,1-.25.44-.01.28-.62.7-.65.42-.04.55.62.99.56.44-.06.51-.26.93-.34.42-.08.37.4.8.31.44-.1.34-.53.75-.64.42-.12.44-.07.85-.21.41-.15.55.15.97-.02.42-.18.27-.64.66-.84.39-.19.96-.03.98-.05l-1.02-1.72s-.33.43-.68.61c-.35.17-.46-.06-.81.09-.36.14-.26.4-.63.53-.38.13-.47-.19-.84-.09-.37.1-.11.63-.51.72-.39.09-.56-.08-.95,0-.4.07-.37-.09-.76-.03-.39.05-.41.29-.81.33-.4.03-.43-.4-.81-.39-.38,0-.38.44-.78.43-.4-.02-.39-.16-.78-.2-.39-.05-.36-.23-.74-.3-.38-.07-.44.44-.84.34-.39-.1-.32-.5-.69-.62-.36-.13-.44.07-.79-.1-.35-.17-.29-.52-.55-.64l-.9,1.78c.31.15.38-.11.79.09.4.2.35.33.77.48Z"/>
    <path d="M41.27,75.13c-.02.15-.08.23.02.4.03.05.08.11.15.17.09.1.21.19.34.25h0s.9-1.78.9-1.78h0c-.11-.05-.22-.09-.33-.11-.04,0-.08,0-.15-.01-.19-.03-.54-.04-.75.08-.2.11-.26.31-.24.49.02.18.08.36.06.5Z"/>
  </g>
  <ellipse class="st1" cx="36.43" cy="58.98" rx="2.55" ry="1.53" transform="translate(-24.77 91.53) rotate(-86.3)"/>
  <ellipse class="st1" cx="61.65" cy="59.37" rx="2.55" ry="1.53" transform="translate(-1.58 117.07) rotate(-86.3)"/>
  <g>
    <path d="M65.65,56.61c.12.01.27,0,.42-.05.15-.04.31-.12.46-.22.15-.1.27-.22.35-.35.09-.14.17-.29.17-.44,0-.14-.06-.29-.16-.39l-1.5,1.32c.07.06.14.12.26.13Z"/>
    <path d="M59.93,55.05c.21-.04.1-.36.33-.41.23-.03.39.26.61.24.22-.01.21-.15.43-.16.22,0,.23.31.44.31.21,0,.28-.24.5-.23.22.02.22-.59.46-.56.24.03.15.7.35.75.21.04.3-.12.51-.05.21.07-.01.47.17.55.18.08.36-.33.55-.24.19.1.17.14.35.25.17.12,0,.39.16.5.14.12.47-.23.64-.1.15.16-.03.59-.03.59l1.5-1.32s-.4-.14-.61-.32c-.22-.18-.06-.38-.29-.56-.24-.16-.4.07-.63-.08-.24-.13-.08-.42-.34-.56-.26-.13-.42.44-.66.34-.24-.1-.26-.31-.51-.39-.26-.08-.19-.22-.45-.28-.27-.06-.34.17-.6.13-.26-.03-.21-.47-.49-.49-.27-.02-.29.41-.55.4-.26,0-.26-.15-.52-.15-.26.02-.27-.17-.54-.16-.27.03-.19.53-.44.56-.25.03-.34-.36-.61-.31-.26.05-.22.25-.47.31-.25.06-.41-.23-.61-.17l.65,1.89c.15-.05.05-.3.26-.36.21-.05.25.09.46.05Z"/>
    <path d="M59.05,54.76c.07-.05.14-.11.19-.04.07.05.03.32-.06.45-.07.12-.13.18-.12.2.05.01.1.01.15,0h0s-.65-1.89-.65-1.89h0c-.06.02-.12.05-.18.09-.11.06-.28.16-.43.38-.17.22-.2.57-.13.69.06.13.14.15.21.16.15,0,.32.01.5.07.17.06.37.02.51-.1Z"/>
  </g>
</svg>