<?xml version="1.0" encoding="UTF-8"?>
<svg id="_レイヤー_1" xmlns="http://www.w3.org/2000/svg" version="1.1" viewBox="0 0 100 100">
  <!-- Generator: Adobe Illustrator 30.0.0, SVG Export Plug-In . SVG Version: 2.1.1 Build 123)  -->
  <defs>
    <style>
      .st0 {
        fill: #ceb372;
      }

      .st1 {
        fill: none;
        stroke: #000;
        stroke-linecap: round;
        stroke-linejoin: round;
      }

      .st2 {
        fill: #1c1917;
      }

      .st3 {
        fill: #fff;
      }
    </style>
  </defs>
  <path class="st3" d="M76.11,37.5c.57.58.95,1.03,1.43,1.52,0,0,.93,1.08,1.72,2.19,3.15,4.5,3.76,12.25,3.76,12.25.16,2,.13,3.9,0,5.66-.08,1.06,3.53-1.07,4.24-.44,2.39,2.14,1.88,7.06.5,9.07-1.68,2.45-5.03,4.02-7.21,2.16-1.24,3.17-4.15,10.53-11.6,15.82-14.24,10.11-31.51,3.04-32.84,2.47-3.84-1.65-7.07-3-9.74-6.33-2.84-3.55-2.75-6.43-6.09-8.24-3.03.72-5.05-.37-6.77-2.34-1.49-1.71-1.67-4.62-.68-6.66,1.26-2.6,3.47-1.82,4.79-4.18,1.34-2.41-.52-3.87-.29-10.67.1-2.87.74-5.65,2.57-8.67,1.48-2.46,3.29-4.04,4.96-5.51.91-.8,2.64-2.3,5.19-3.71,1.91-1.06,5.04-2.5,9.27-3.17,1.98-.31,4.64-.85,7.87-.96,0,0,15.01,1.45,18.17,2.7,3.16,1.24,10.76,7.02,10.76,7.02Z"/>
  <path class="st0" d="M85.36,55.99c-.6.3-2.37.08-3.1,0-.46-.06-.82-.13-.98-.16-.86-.17-1.5-.39-1.89-.52-7.14-2.46-10.46-4.15-10.46-4.15-5.51-2.81-8.27-4.22-11.29-7.23-2.93-2.92-4.58-5.8-5.43-7.32-.02-.04-.05-.08-.07-.13-1.43-2.52-5.06-2.31-6.22.36-.33.76-.63,1.43-.83,1.95-3.43,8.84-10.09,14.23-18.52,18.14-4.57,2.12-9.71,5.17-11.75,3.26-2.06-1.93-1.02-8.96-.03-13.68.45-2.13-1.03-4.19-3.15-4.33-2.26-.15-4.95-.7-6.81-2.27-3.07-2.61-2.77-7.4-2.71-8.13.45-5.64,5.36-10.16,10.51-11.19,4.99-.99,11.13,1.1,12.48,4.87.11.31,0,.7.27,1,1.14,1.26,5.62-1.14,7.34-1.97,6.34-3.1,13.72-3.95,18.43-3.59,4.42.35,13.51,2.33,18.91,5.76.69.44,2.79,1.84,4.51,1.11,1.29-.55,1.29-2.14,2.17-3.07,2.75-2.92,8.32-5.62,13.56-3.22,5.69,2.6,7.68,9.7,6.27,14.58-1.16,4-4.61,6.46-5.19,6.86-1.88,1.3-2.83,1.88-3.81,2.32-1.52.68-2.4,2.33-2.05,3.99.57,2.76.95,6.23-.15,6.77Z"/>
  <path d="M80.74,70.31c3.23.47,6.47-1.86,7.61-4.9.88-2.11,1.15-5.45-1.41-6.33-.77-.23-1.65-.15-2.5.02-.32.07-.44-.43-.12-.51,1.77-.61,4.23-.32,5.09,1.62,2.45,5.04-3.38,13.34-9,11.04-.49-.26-.21-1.05.33-.95h0Z"/>
  <path d="M42.51,28.95c.11,12.18-10.61,23.31-22.56,24.64-.15.02-.19-.21-.04-.24,10.93-2.15,19.64-11.43,21.88-22.22.12-.69.13-1.45.2-2.19.02-.31.52-.31.52.02h0Z"/>
  <path d="M56.24,28.87c4.08,8.98,11.52,16.88,21.1,19.87,1.36.53,2.91.72,4.2.72-8.12.94-17.65-6.03-21.87-12.62-1.56-2.46-3.05-4.99-3.85-7.84-.07-.26.33-.4.42-.13h0Z"/>
  <path d="M35.96,30.2c.2,2.17-.84,4.25-1.82,6.14-3.07,5.58-8.42,10.42-14.84,11.53-.31.05-.44-.42-.13-.52,6.88-2.26,15.25-9.8,16.39-17.16.02-.24.4-.23.4.02h0Z"/>
  <path d="M45.23,75.06c-1.43.31-3.01.68-4.59.04-1.79-.7-2.05-3.13-.78-4.46.44-.59,1.24-.81,1.69-1.38.36-.46.49-1.11.51-1.81.01-1.47.05-5.24.05-6.67-.03-.69.13-1.17-.42-1.61-1.01-.64-2.7-.55-3.95-.6-2.93.03-5.88.38-8.81.89-.13.03-.19-.18-.06-.22,2.94-.94,11.92-3.37,13.98-.43.43.53.31,1.39.31,1.96,0,0-.02,2.24-.02,2.24l-.03,4.48c-.03.77-.17,1.67-.74,2.4-.45.66-1.25.84-1.77,1.4-.43.46-.65,1.07-.61,1.66.42,2.25,3.31,1.89,5.19,1.82.16-.02.2.25.04.27h0Z"/>
  <path d="M21.3,36.94c1.83-4.19-.3-8.99-4.25-11.01-.29-.14-.07-.59.22-.45,4.36,1.81,6.72,7.35,4.37,11.61-.1.2-.42.06-.34-.15h0Z"/>
  <path d="M79.42,40.52c4.07.9,8.08-1.73,10.87-4.47.1-.12.3.03.21.16-2.37,3.4-7.04,5.61-11.14,4.53-.14-.04-.08-.26.06-.21h0Z"/>
  <path d="M66.03,30.74c.35,1.62,1.06,2.97,2.06,4.3,2.38,3.34,5.68,5.94,9.3,7.85.71.45,1.51.78,2.28,1.04-.82,0-1.68-.41-2.44-.71-4.68-1.88-9.3-5.01-11.25-9.86-.22-.38-.79-3.54.05-2.61h0Z"/>
  <path d="M9.93,28.99c-.79,5.5,3.04,10.6,8.53,11.38.35.04.31.59-.04.58-4.41.03-8.57-3.39-9.19-7.8-.21-1.44-.13-2.9.33-4.25.03-.1.14-.15.24-.12.08.03.13.12.13.2h0Z"/>
  <path d="M15.93,62.63c-5.08.76-4,8.67.03,10.04.66.18,1.4.23,2.13.24.78.03,1.54-.25,2.34.4.86.72-.45,1.63-1.07,1.64-1.81.13-3.73-.17-5.27-1.24-1.09-.96-1.86-1.96-2.37-3.31-.7-2.45-.29-5.59,1.81-7.23.7-.51,1.53-.78,2.36-.87.09,0,.17.06.18.15,0,.09-.05.16-.14.18h0Z"/>
  <path d="M90.17,27.46c-1.27,2.57-3.49,4.51-5.69,6.26-2.19,1.76-4.63,3.29-7.24,4.35-.11.05-.2-.11-.09-.18,4.69-2.89,9.49-6.09,12.77-10.58.1-.15.35-.01.26.15h0Z"/>
  <path d="M81.47,67.53c-2.42,11.41-11.98,21.11-23.46,23.43-15.3,2.95-33.31-3.51-39.24-18.84-1.51-3.68-2.38-7.62-2.62-11.61-.05-.8.56-1.48,1.36-1.53.83-.05,1.53.62,1.53,1.44.01,7.35,2.41,14.89,7.49,20.39,9.84,10.6,29.69,13.17,41.7,4.9,6.26-4.23,11.06-10.85,12.61-18.31.06-.39.72-.3.63.13h0Z"/>
  <path class="st1" d="M83.89,26.03c-3.26,1.97-6.26,4.26-7.32,8.51"/>
  <path d="M12.52,26.07c2.86,4.06,5.1,8.47,7.14,12.98.05.12,0,.25-.12.3-.1.04-.22,0-.28-.08-1.42-2.04-2.7-4.15-3.94-6.29-1.23-2.14-2.42-4.31-3.36-6.61-.15-.33.35-.61.55-.31h0Z"/>
  <path d="M55.2,80.2c-4.21,3.13-10.66,3.99-15.09.84-.16-.11-.19-.33-.08-.49.1-.13.26-.18.41-.13,4.6,2.08,10.13,2.18,14.49-.6.23-.16.5.2.27.38h0Z"/>
  <ellipse class="st2" cx="35.72" cy="65.15" rx="2.02" ry="1.21" transform="translate(-31.95 95.82) rotate(-85.65)"/>
  <ellipse class="st2" cx="60.74" cy="65.82" rx="2.02" ry="1.21" transform="translate(-9.5 121.4) rotate(-85.65)"/>
  <path d="M66.74,60.03c-2.53-1.8-6.01-1.47-8.88-.88-.27.06-.54-.1-.6-.37-.06-.25.09-.51.33-.59,2.39-.73,5.01-.73,7.35.17.77.32,1.52.78,2.04,1.45.06.07.04.18-.03.23-.06.05-.15.04-.21,0h0Z"/>
</svg>