<?xml version="1.0" encoding="UTF-8"?>
<svg id="_レイヤー_1" xmlns="http://www.w3.org/2000/svg" version="1.1" viewBox="0 0 100 100">
  <!-- Generator: Adobe Illustrator 30.0.0, SVG Export Plug-In . SVG Version: 2.1.1 Build 123)  -->
  <defs>
    <style>
      .st0 {
        fill: #1c1917;
      }

      .st1 {
        fill: #fff;
      }

      .st2 {
        fill: #1a1a1a;
      }
    </style>
  </defs>
  <path class="st1" d="M76.77,29.95c.57.55.95.98,1.42,1.45,0,0,.93,1.02,1.71,2.09,3.15,4.3,3.91,11.81,3.91,11.81.2,1.94.21,3.78.12,5.49-.06,1.03,3.41-1.12,4.11-.51,2.37,2.03,1.98,6.81.68,8.79-1.58,2.42-4.8,4.01-6.95,2.25-1.14,3.1-3.8,10.31-10.91,15.6-13.6,10.12-30.51,3.63-31.81,3.1-3.76-1.51-6.92-2.75-9.59-5.93-2.83-3.38-2.81-6.18-6.09-7.86-2.93.77-4.91-.25-6.62-2.13-1.49-1.63-1.72-4.45-.8-6.45,1.17-2.55,3.33-1.84,4.55-4.16,1.25-2.37-.59-3.74-.51-10.35.03-2.79.6-5.49,2.3-8.47,1.38-2.41,3.1-3.99,4.7-5.45.87-.79,2.51-2.29,4.96-3.72,1.83-1.07,4.84-2.53,8.93-3.27,1.91-.35,4.48-.92,7.62-1.1,0,0,14.59,1.09,17.69,2.23,3.09,1.14,10.59,6.58,10.59,6.58h-.01Z"/>
  <path class="st1" d="M83.23,47.53c-.53.27-2.11.12-2.76.05-.41-.04-.73-.09-.87-.12-.77-.13-1.34-.31-1.69-.41-6.4-2-9.38-3.4-9.38-3.4-4.96-2.34-7.44-3.5-10.18-6.06-2.66-2.48-4.19-4.96-4.98-6.25-2.19-3.61-3.22-6.92-3.73-9,.1,1.98-.27,3.89-.52,4.98-.46,1.95-1.34,4.17-2.04,6.05-2.88,7.75-8.69,12.56-16.11,16.13-4.02,1.93-8.54,4.68-10.39,3.06-2.89-2.53.56-15.78.56-15.78,0,0-6.43,1.05-9.85-1.65-2.78-2.21-2.61-6.38-2.57-7.01.29-4.91,4.56-8.93,9.13-9.93,4.42-.96,9.92.74,11.19,3.98.95,2.41-.97,4.32-.04,5.35,3.45-2.16,7.93-4.81,16.54-5.83,16.34-1.94,26.45,4.33,26.45,4.33,0,0,.66-3.05,2.95-5.53,2.39-2.59,7.29-5.04,12-3.07,5.11,2.15,7.03,8.28,5.86,12.55-.96,3.5-3.98,5.71-4.48,6.06-2.93,2.08-4.85,1.33-5.83,3.07-1.6,2.85,2.14,7.71.74,8.41v.02Z"/>
  <path class="st2" d="M84.92,62.76c3.49-1.19,6.1-4.29,6.47-7.99.14-1.43-.09-3.1-1.16-4.16-1.38-1.37-3.39-1.22-5.14-.79-.4.1-1.06.46-.94.97s.93.46,1.29.37c1.2-.3,2.36-.27,3.11.85.64.95.69,2.24.53,3.33-.37,2.54-2,5.2-4.53,6.07-.39.13-1.06.44-.94.97.12.49.94.49,1.29.37h.02Z"/>
  <path class="st2" d="M48.51,22.28c.24,4.17-1.31,8.32-2.91,12.1-1.34,3.16-3.3,6-5.78,8.37-5.09,4.87-12.14,8.17-19.11,9.1-.4.05-1.22.3-1.25.82s.58.65.99.59c7.63-1.02,15.28-4.51,20.93-9.77,2.75-2.56,4.96-5.68,6.4-9.15,1.67-4.03,3.22-8.24,2.96-12.66-.05-.85-2.29-.36-2.23.6h0Z"/>
  <path class="st2" d="M76.16,27.61c-2.36-2.5-5.4-3.98-8.63-5.09-3.75-1.29-7.67-1.9-11.62-2.2-.8-.06-2.38,1.07-.89,1.18,3.75.28,7.49.89,11.04,2.16,3.02,1.07,5.8,2.44,8.02,4.79.5.53,2.61-.28,2.08-.85h0Z"/>
  <path class="st2" d="M48.8,23.68c1.77,6.19,5.41,12.36,10.74,16.14,3.76,2.67,8.27,4.53,12.61,6.08,3.59,1.28,7.02,2.57,10.89,2.1.95-.12,1.96-1.11.39-.92-2.26.27-4.31-.36-6.43-1.05-1.77-.58-3.53-1.19-5.27-1.87-2.3-.89-4.53-1.96-6.71-3.1-7.08-3.68-11.81-10.37-13.98-17.97-.16-.57-2.39.04-2.23.6h-.01Z"/>
  <path class="st2" d="M42.99,22.58c.34,1.38-.19,2.96-.53,4.32s-.78,2.73-1.34,4.03c-1.1,2.55-2.62,4.89-4.43,6.99-3.65,4.25-8.71,7.2-14.22,8.23-.94.18-.65,1.2.27,1.02,5.86-1.1,11.31-4.29,15.19-8.81,1.92-2.24,3.55-4.74,4.69-7.46.59-1.4,1.03-2.85,1.39-4.33s.82-2.93.46-4.39c-.17-.69-1.66-.3-1.49.4h.01Z"/>
  <path class="st2" d="M56.36,22.18c-.17,1.31.55,2.33,1.2,3.41.75,1.25,1.57,2.47,2.45,3.64,1.85,2.44,4.02,4.64,6.4,6.56s4.78,3.38,7.5,4.47,5.5,1.97,8.28,1.54c.69-.11,1.25-.94.21-.78-2.63.4-5.54-.69-7.92-1.71-2.62-1.12-5.02-2.68-7.2-4.51-2.01-1.69-3.87-3.56-5.49-5.63-.8-1.02-1.55-2.09-2.25-3.19s-1.88-2.57-1.7-4.01c.07-.56-1.42-.28-1.48.2h0Z"/>
  <path class="st2" d="M36.72,23.94c.28,1.02-.19,1.97-.57,2.91s-.79,1.8-1.27,2.66c-.94,1.7-2.08,3.29-3.4,4.72-2.67,2.91-5.98,5.23-9.8,6.31-.9.25-.67,1.16.24.9,4.19-1.18,7.85-3.67,10.78-6.86,1.42-1.54,2.65-3.25,3.65-5.09.54-.99,1-2.02,1.41-3.07.38-.96.73-1.85.44-2.89-.17-.61-1.66-.22-1.49.4h.01Z"/>
  <path class="st2" d="M47.76,66.34c-1.27.2-3.08.64-4.11-.42-.67-.69-.61-1.79-.06-2.53.32-.43.8-.62,1.21-.96s.75-.79.95-1.3c.51-1.28.3-2.95.28-4.3,0-.84-.03-1.69-.06-2.53-.02-.79.09-1.74-.11-2.5-.1-.36-.35-.72-.65-.95-1.17-.95-3.14-.84-4.54-.78-3.17.14-6.32.72-9.38,1.57-.31.09-1.09.38-.97.84s.97.32,1.26.24c2.64-.73,5.36-1.26,8.1-1.41.9-.05,1.85-.08,2.74.12.4.09.66.2.92.47.57.62.36,1.76.39,2.53.05,1.74.11,3.48.07,5.22-.02.59-.03,1.22-.27,1.77-.26.58-.74.77-1.21,1.14-.77.59-1.35,1.47-1.39,2.46-.13,3.31,4.44,2.85,6.52,2.52.38-.06,1.21-.26,1.27-.74s-.65-.5-.96-.45h0Z"/>
  <path class="st2" d="M24.45,30.76c1.13-2.66.95-5.72-.69-8.13-.98-1.45-2.43-2.63-4.02-3.35-.64-.29-1.72.63-.85,1.02.39.18.83.43,1.29.76.83.58,1.56,1.29,2.14,2.12,1.53,2.17,1.73,4.98.7,7.4-.34.79,1.16.81,1.43.18h0Z"/>
  <path class="st2" d="M93.84,27.24c.33-3.15-.77-6.57-3.11-8.75-1.92-1.79-4.58-2.68-7.17-2.84s-5.5.5-7.75,2c-2.42,1.62-4.88,4.85-4.63,7.9.03.37,2.28-.02,2.23-.6-.22-2.65,1.85-5.65,3.92-7.14,1.92-1.39,4.19-1.54,6.46-1.03,2.14.48,4.27,1.59,5.64,3.34,1.69,2.15,2.46,5.02,2.18,7.73-.03.24,2.16.05,2.23-.6h0Z"/>
  <path class="st2" d="M80.32,33.91c.9-.47,2.07-.33,3.06-.52s2.03-.54,2.96-1.01c1.89-.95,3.69-2.3,4.96-4,.22-.3-.19-.51-.43-.53-.37-.04-.76.14-.98.43-1.14,1.55-2.9,2.8-4.64,3.58-.83.37-1.7.62-2.6.72-1.02.11-2.02.1-2.95.59-.23.12-.59.39-.37.68.2.27.75.19,1,.06h0Z"/>
  <path class="st2" d="M65.89,23.72c-.26,1.67.87,3.14,1.79,4.43.98,1.39,2.15,2.65,3.46,3.74s2.71,2,4.21,2.78c1.65.85,3.3,1.91,5.15,1.03.93-.44.09-1-.6-.67-.81.38-1.74-.31-2.47-.66s-1.38-.69-2.05-1.08c-1.25-.73-2.43-1.58-3.51-2.55s-1.95-1.97-2.76-3.09-1.97-2.57-1.74-4.09c.1-.62-1.41-.37-1.49.17h.01Z"/>
  <path class="st2" d="M11.46,23.22c-.45,2.17-.14,4.53.93,6.48,1.26,2.3,3.46,3.89,5.98,4.56.66.17,1.35.3,2.03.33.34.02.77-.07,1.05-.28.22-.16.21-.34-.1-.36-2.21-.11-4.43-1.11-5.99-2.67-2.14-2.13-3.05-5.37-2.44-8.32.08-.37-1.39-.14-1.47.25h.01Z"/>
  <path class="st2" d="M16.27,56.1c-2.49,1.71-2.81,5.44-1.36,7.94.78,1.35,2.01,2.39,3.5,2.88.77.25,1.61.38,2.41.39,1.13.02,2.12-.41,3.08-.97.38-.22.26-.47-.14-.51-.53-.05-1.13.16-1.58.42-.07.04-.37.17-.42.23.36-.08.44-.12.24-.12-.09,0-.18-.01-.26-.02-.31-.03-.62-.08-.92-.15-.66-.15-1.27-.4-1.83-.78-1.01-.68-1.8-1.67-2.24-2.8-.78-1.99-.7-5.11,1.24-6.44.35-.24.28-.47-.14-.51-.5-.04-1.16.14-1.58.42h0v.02Z"/>
  <path class="st2" d="M91.23,29.97c-.5,2.03-1.52,3.9-3.17,5.23-.75.6-1.61,1.11-2.57,1.28-.54.09-1.07.05-1.61.02-.75-.04-1.5.06-2.23.27-.28.08-1.09.34-.99.76s1.01.23,1.24.16c.64-.18,1.28-.04,1.93-.05.74,0,1.47-.12,2.19-.3,1.33-.34,2.58-.98,3.67-1.81,1.91-1.48,3.18-3.55,3.76-5.88.17-.67-2.05-.33-2.22.33h0Z"/>
  <path class="st2" d="M89.34,19.96c-1.32,2.35-3.41,4.09-5.39,5.87-1.01.9-2.05,1.78-3.18,2.53s-2.43,1.19-3.51,1.99c-.25.19-.16.33.1.39.31.07.8-.1,1.05-.28.57-.42,1.21-.68,1.84-1s1.2-.67,1.76-1.05c1.17-.79,2.24-1.71,3.29-2.65,2.04-1.83,4.15-3.62,5.51-6.04.15-.26-.52-.21-.61-.2-.29.04-.71.16-.86.44h0Z"/>
  <path class="st2" d="M35.52,77.33c-9.82-5.61-13.47-16.62-14.22-27.33-.4-5.71-.62-11.58,2.9-16.44,2.61-3.6,6.55-6.69,10.57-8.54,2.52-1.16,5.13-1.73,7.84-2.21,2.55-.45,5.15-1.13,7.76-1.05,1.31.04,1.68-1.67.18-1.72-2.49-.07-5.01.54-7.44.99-2.63.48-5.19.94-7.7,1.91-4.43,1.71-8.27,4.59-11.52,8.03-2,2.12-3.53,4.69-4.34,7.49s-.75,5.8-.66,8.74c.18,5.87.95,11.83,3.1,17.33,2.32,5.93,6.26,10.97,11.82,14.15.89.51,2.82-.7,1.71-1.33h0v-.02Z"/>
  <path class="st2" d="M75.75,30.46c2.26,2.25,4.13,4.61,5.22,7.65.81,2.25,1.35,4.61,1.66,6.98.71,5.42-.12,11.13-1.99,16.24-2,5.45-4.95,10.52-9.5,14.24-5.44,4.45-12.33,6.36-19.29,6.11-4.1-.15-8.35-.9-12.18-2.44-1-.4-2.6,1.03-1.27,1.57,9.84,3.94,22.09,3.69,31.18-1.97,10.76-6.7,16.36-20.47,15.42-32.86-.19-2.48-.68-4.95-1.42-7.33-1.14-3.66-3.11-6.52-5.8-9.21-.75-.75-2.85.19-2.04,1.01h.01Z"/>
  <path class="st2" d="M83.59,18.36c-1.6,1.02-3.17,2.14-4.45,3.55-1.35,1.49-2.29,3.27-2.74,5.23-.16.67,1.36.47,1.5-.14.42-1.81,1.29-3.44,2.55-4.8,1.19-1.29,2.63-2.3,4.11-3.24.26-.17.38-.5.1-.7-.3-.21-.79-.07-1.06.11h-.01Z"/>
  <path class="st2" d="M13.87,20.73c2.43,4.13,4.86,8.27,7.29,12.4.34.59,1.76.02,1.36-.66-2.43-4.13-4.86-8.27-7.29-12.4-.34-.59-1.76-.02-1.36.66h0Z"/>
  <path class="st2" d="M7.08,28.76c-.09,1.95.24,3.91,1.48,5.48,1.01,1.28,2.48,2.05,4.03,2.47s3.17.88,4.87.82c.8-.03,1.55-.19,2.32-.38.34-.09.67-.18,1.01-.26.16-.04.31-.08.47-.12.32-.09,0,0,.04-.02.38-.06,1.19-.26,1.28-.72s-.67-.46-.95-.42c-.57.09-1.12.26-1.68.41-.29.08-.58.15-.87.22-.05,0-.43.1-.34.08.13-.02-.13.02-.16.02-1.55.11-2.97-.33-4.45-.73-1.2-.32-2.48-1.02-3.36-2.05-1.19-1.4-1.55-3.31-1.47-5.1.04-.84-2.19-.38-2.22.3h0Z"/>
  <path class="st2" d="M29.49,27.81c1.16-2.3,1.49-5.55-.17-7.7-1.44-1.87-4.22-2.63-6.47-2.91-5.69-.7-11.39,1.74-14.27,6.77-.49.86,1.72.59,2.06,0,1.1-1.93,2.59-3.6,4.59-4.62,2.14-1.09,4.64-1.32,6.98-.89,1.88.34,4.07,1.05,5.18,2.71,1.34,2.01.89,4.91-.14,6.94-.23.45.76.44.95.42.48-.06,1.05-.27,1.28-.72h0Z"/>
  <path class="st2" d="M56.39,71.52c-1.83,1.34-4.12,2.02-6.38,2.13-1.27.06-2.56-.08-3.77-.46-.97-.31-1.84-1.02-2.86-1.09-.45-.03-1.22.18-1.48.59-.28.45.24.56.59.59-.23-.02.31.24.4.29.3.16.61.31.93.44.64.25,1.32.44,2,.58,1.48.3,3.01.32,4.51.16,2.8-.31,5.54-1.25,7.82-2.92.39-.28.22-.63-.19-.72-.52-.12-1.16.12-1.58.42h0Z"/>
  <ellipse class="st0" cx="38.17" cy="57.65" rx="2.45" ry="1.47" transform="translate(-21.44 92.68) rotate(-86.93)"/>
  <ellipse class="st0" cx="62.46" cy="57.77" rx="2.45" ry="1.47" transform="translate(1.43 117.05) rotate(-86.93)"/>
  <path class="st2" d="M68.17,54.3c-1.05-1.54-2.85-2.35-4.67-2.53-.96-.09-1.9-.04-2.85.14-.38.07-.75.17-1.11.29s-.73.26-.99.56c-.21.24-.23.46-.26.76-.11,1.21,2.17.95,2.27-.14.02-.25.02-.04-.12.12l-.44.34c-.2.11-.05,0,.02-.02.07-.03.14-.05.21-.07.15-.05.29-.09.44-.12s.31-.07.46-.1c-.16.03-.09,0,.03,0,.08,0,.16-.02.24-.03.33-.03.66-.04.99-.05.21,0-.07,0,.06,0,.08,0,.17,0,.25.02.17.02.33.04.5.06s.33.06.49.1c.07.02.13.04.03,0,.1.03.19.06.28.09.16.05.31.11.46.18.09.04.33.15.33.16.52.29.98.71,1.34,1.23.61.89,2.72,0,2.03-1.01h0v.02Z"/>
</svg>