<?xml version="1.0" encoding="UTF-8"?>
<svg id="_レイヤー_1" xmlns="http://www.w3.org/2000/svg" version="1.1" viewBox="0 0 100 120">
  <!-- Generator: Adobe Illustrator 30.0.0, SVG Export Plug-In . SVG Version: 2.1.1 Build 123)  -->
  <defs>
    <style>
      .st0 {
        fill: none;
      }

      .st1 {
        fill: #ceb372;
      }

      .st2 {
        fill: #fff;
      }
    </style>
  </defs>
  <path class="st1" d="M30.31,90.16c.76.03,1.32.54,1.91.9.77.47,1.56.91,2.35,1.33.51.27.94.6,1.25,1.1"/>
  <path class="st2" d="M71.9,58.89c-1.26,3.98-2.03,4.62-2.19,5.28-.25,1.04.2,2.45,1.02,2.76,1.22.46,2.91-1.68,3.09-1.91,2.08-2.67,1.38-5.71,2.36-5.89.65-.12,1.5,1.14,1.87,2.07.49,1.23.07,1.7.12,4.63.04,2.2.27,2.17.08,3.17-.15.78-.44,1.55-.42,2.8,0,.53.08.9.09,1.09.16,2.65-.3,5.1-.56,6.41-.36,1.84-.58,2.96-1.2,4.44-.58,1.37-1.23,2.39-1.77,3.24-1.31,2.04-1.87,2.33-2.69,3.93-.74,1.45-.94,2.48-1.1,2.94-1.2,3.4-10.79,3.85-26.67,2.91,0,0-17.78-1.59-17.73-4.94,0-.49.6-1.36.7-3.18.03-.62,0-1.13-.04-1.46-1.85-2.22-2.72-4.17-3.17-5.57-.58-1.8-.77-3.56-1.62-5.04-.12-.21-.54-.9-.77-1.91-.11-.48-.13-.82-.16-1.26-.14-1.76-.27-2.11-.31-2.87-.04-.73.37-2.04.96-4.69,1-4.5,1.71-4.2,2.36-6.99.82-3.53.14-4.21,1.21-6.78.87-2.1,2.5-4.46,3.47-4.2.94.25.18,2.66,2.01,5.55.34.53,1.38,2.05,3.29,2.92.74.34,2.02.92,2.99.37.42-.24.73-.83,1.34-2.01.47-.9.7-1.35.73-1.77.05-.82-.35-1.14-.79-2.44-.17-.51-.28-1.05-.49-2.13-.37-1.93-.5-3.5-.55-4.33-.09-1.42,0-1.56-.06-3.05-.07-1.75-.24-3.16-.38-4.07.21-1.3.41-2.61.62-3.91.61-2.48,1.22-4.96,1.83-7.43.32-1.18.83-2.68,1.65-4.33,1.2-2.42,2.51-4.03,2.86-4.45,1.11-1.33,1.84-1.87,5.42-4.75,1.02-.82,2.61-2.11,4.57-3.72.51,4.02-.15,6.26-.91,7.58-.28.49-1.17,1.88-1.52,3.95-.05.28-.15.96-.14,1.77.02,1.93.65,3.08,1.97,6.2,1.42,3.38,1.68,4.4,1.64,5.07,0,.07-.04.19-.05.35-.07,1.07.68,1.85,1.34,2.74.48.64.78,1.2,1.4,2.32.78,1.41,1.14,2.57,1.58,3.96,1,3.15,1.72,4.66,2.32,4.69.85.05,1.81-1.8,2.13-3.11.17-.71.12-1.09.46-2.64.17-.78.26-1.18.45-1.62.25-.58.83-1.96,1.71-2.13,1.15-.23,2.63,1.67,3.29,3.41.84,2.21,1.01,3.72.79,5.97-.68,7.03,3.3,6.59,1.58,12.02Z"/>
  <path class="st1" d="M27.3,87.77c-4.48-.56-8.28-1.79-8.29-1.79,0,0-.98,1.94-.55,3.33.41,1.33,1.92,1.5,1.87,1.99-.13,1.16-8.56-.83-11.61,2.81-2.17,2.58-1.45,7.78.81,9.07,2.52,1.43,6.23-2.42,8.31-.8,1.32,1.02.14,2.8,1.5,4.89,1.79,2.74,6.2,3.32,9.21,2.82,1.33-.22,1.84-.55,6.46-3.05,6.97-3.78,8.66-4.56,9.37-3.93.92.82-1.08,2.9-.18,5.3,1.08,2.9,5.98,5.16,9.78,3.44,1.8-.82,3.51-2.61,3.87-4.77.48-2.87-1.65-4.89-1.1-5.37.8-.7,5.22,3.81,12.61,7.68,5.43,2.85,6.88,2.43,7.55,2.11,1.76-.85,1.59-2.73,5.11-7.48,1.71-2.31,2.37-2.69,2.82-2.9,2.74-1.26,4.94.86,6.47-.25,1.65-1.19,1.78-5.56-.3-7.81-3.55-3.83-12.87-.84-13.06-1.84-.12-.62,3.55-1.36,3.68-3.21.05-.73-.45-1.48-1.04-1.82-1.72-.98-4.64,1.32-7.12,3.11-3.5,2.53-13.66,9.87-16.29,7.88-1.37-1.03.53-3.66-1.25-6.01-2-2.63-7.26-3.15-9.46-1.04-1.39,1.34-.54,2.76-1.95,3.95-2.04,1.73-5.81.39-8.68-.62-3.37-1.2-5-2.79-5.52-3.33-1.01-1.05-1.96-2.25-3.01-2.39Z"/>
  <g>
    <path d="M30.68,89.32c-.12.07-.21.19-.28.34-.06.14-.09.32-.1.5,0,.18,0,.35.02.49.02.15.03.31.05.41.03.09.05.13.1.14l.57-1.92c-.12-.04-.26-.03-.37.04Z"/>
    <path d="M35.59,91.97c-.18-.13-.33.18-.49.08-.16-.1-.13-.43-.27-.51-.15-.08-.21.03-.36-.05-.15-.08,0-.36-.15-.44-.15-.08-.31.12-.46.04-.15-.08-.4.47-.56.39-.15-.09.16-.68.01-.76-.15-.08-.28.06-.43-.03-.15-.08.14-.45,0-.54-.15-.08-.36.3-.5.2-.14-.09-.11-.14-.26-.24-.15-.1.02-.38-.16-.49-.19-.11-.45.3-.63.21-.17-.09-.26-.56-.28-.57l-.57,1.92s.18-.16.31-.1c.12.06,0,.28.11.35.12.08.27-.16.41-.06.14.09-.05.37.11.47.16.11.43-.41.58-.32.15.09.1.28.25.37.15.09.06.21.21.29.15.09.29-.11.44-.03.15.09-.05.46.1.55.15.09.36-.3.52-.21.15.09.08.21.24.3.15.09.06.25.22.34.16.09.38-.37.52-.29.14.08-.07.43.04.51.11.08.22-.08.33.01.1.09-.11.35-.06.41l1.48-1.34c-.12-.13-.29.07-.45-.08-.16-.14-.06-.26-.24-.39Z"/>
    <path d="M36.21,93.16c.1-.12.14-.26.15-.38.01-.12,0-.25-.08-.33h0s-1.48,1.34-1.48,1.34h0s.09.06.19.04c.1-.02.24-.06.38-.12.14-.05.3-.13.46-.22.15-.09.29-.21.39-.33Z"/>
  </g>
  <g>
    <path d="M73.08,57.02c-.05-.19-.14-.36-.27-.49-.12-.13-.29-.2-.46-.24-.18-.04-.35-.01-.51.05-.17.06-.35.14-.47.28-.12.14-.19.33-.24.53l1.94.47c.05-.2.06-.41.01-.59Z"/>
    <path d="M72.21,65.88c-.2.12,0,.41-.26.47-.27.02-.35-.33-.63-.44-.09-.05-.21.04-.39-.18-.17-.25.1-.41.02-.62-.05-.19-.32-.22-.29-.49.07-.36-.56-.38-.46-.77.1-.4.76-.27.88-.64.12-.37-.02-.53.13-.91.15-.38.53-.08.68-.46.15-.39-.25-.56-.1-.96.14-.4.19-.39.33-.79.13-.41.45-.33.57-.75.12-.41-.33-.6-.22-1.01.11-.41.62-.69.62-.71l-1.94-.47s.08.56-.03.96c-.11.39-.35.32-.46.71-.11.38.15.47.03.85-.13.38-.44.27-.57.64-.14.37.45.46.3.84-.15.39-.39.44-.53.84-.15.4-.27.3-.41.72-.13.42.08.54-.03.96-.05.21-.18.3-.31.4-.13.11-.26.15-.29.49-.03.64.43.59.56,1.1.19.48.05.55.36,1,.17.22.24.35.33.49.08.13.22.31.54.45.5.19.61-.29,1.11-.23.51,0,.73.36,1.29.08.48-.31.34-.47.68-.79.32-.32.64-.19.87-.46l-1.56-1.25c-.17.21.05.35-.21.63-.26.26-.37.16-.59.32Z"/>
    <path d="M78.16,59.39c-.1-.45-.24.17-.31-.27-.03-.37-.06-1.05-.32-1.36-.27-.3-.3-.12-.56-.39-.27-.24-.13-.68-.64-.68-.24.04-.27.2-.3.34-.03.15-.06.31-.11.44-.1.26-.01,1.09-.08,1.48-.07.41-.2-.8-.31-.54-.11.28-.08.77-.18,1.11-.11.37-.28-.9-.46-.48-.09.21-.08.69-.04,1.1.03.41.07.8,0,1.12-.14.65-.18.59-.33,1.24-.17.59-.43.35-.68.96-.07.15-.09.27-.11.39.01.08.04.15.07.23.05.15.1.31,0,.47-.1.16-.3.25-.47.3-.17.04-.31.05-.31.06l1.56,1.25s.21-.6.44-.99c.22-.37.49-.36.56-.5.08-.17-.12-.4-.02-.64.09-.25.28.15.33-.02.05-.17-.24-.99-.17-1.3.05-.31.14-.01.17-.26.04-.27.08.13.11-.1.03-.22-.03-.93.01-1.22.05-.29.14,1.08.17.9.02-.09.01-.53.01-.98,0-.45.02-.95.16-.98.15-.01.2.21.22.39.02.19.05.38.11.49.14.22.07.85.17,1.03.09.18.39-1.36.46-1.03.02.34-.23,1.41-.22,1.63.02.23.16-.18.19.1.03.29-.21.92-.2,1.06l1.52-2.88c-.08-.34-.26.07-.35-.37-.09-.44,0-.66-.1-1.11Z"/>
    <path d="M79.27,74.1c.01-.41-.33-.33-.32-.75.01-.41.33-.64.35-1.06.02-.42-.12-.42-.1-.84.02-.42.32-.42.34-.84.01-.42-.24-.53-.23-.95,0-.42-.6-.3-.6-.72,0-.42.67-.48.66-.91,0-.22-.05-.33-.11-.49-.06-.17-.13-.32-.15-.51-.04-.34.37-.26.43-.42,0-.02.01-.05.01-.09.03-.55-.42-.54-.46-1-.06-.47,0-.41-.1-.93-.11-.54.18-.72.07-1.36-.09-.68-.53-.33-.61-.85-.07-.53.18-1.45.17-1.5l-1.52,2.88s.17-.01.23.26c.05.25-.17.46-.13.65.04.19.3.06.35.33.06.33-.26.43-.22.76.03.33.6.19.6.56,0,.06-.01.11-.03.15-.08.35-.17.61-.13.93.04.33-.13.28-.12.69,0,.4.25.45.25.86,0,.41-.43.41-.44.82-.01.41.43.41.41.82-.02.41-.16.41-.18.82-.02.41-.21.41-.22.82-.02.42.49.4.48.81-.01.42-.42.44-.43.87,0,.42.18.43.18.85,0,.42-.34.54-.34.84h2c0-.33-.27-.27-.26-.69,0-.41.16-.4.17-.81Z"/>
    <path d="M74.96,87.16c.24-.36-.09-.47.14-.83.23-.36.63-.43.83-.84.2-.41.08-.47.25-.89.16-.43.44-.31.59-.7.15-.38-.06-.56.09-.95.15-.39-.47-.48-.32-.87.15-.39.79-.21.94-.59.15-.38.01-.55.16-.93.15-.39.52-.08.68-.46.16-.39-.24-.56-.09-.95.15-.4.21-.38.35-.79.14-.42.46-.34.58-.79.11-.46-.35-.62-.28-1.06.07-.43.49-.87.49-.91h-2s.2.46.14.83c-.06.37-.31.31-.4.67-.1.36.16.44.04.81-.13.37-.44.25-.58.62-.15.37.43.47.28.86-.16.38-.38.44-.54.83-.15.39-.27.29-.42.68-.15.39.06.52-.09.91-.15.39-.55.25-.7.64-.15.39.26.53.12.92-.14.38-.3.37-.42.71-.14.35-.32.27-.48.6-.17.33.29.54.09.89-.21.35-.57.16-.79.49-.23.33-.07.44-.3.78-.23.33-.58.22-.79.57l1.73,1.01c.13-.2-.12-.3.12-.65.24-.34.37-.25.61-.61Z"/>
    <path d="M73.54,88.88c.16-.05.28-.13.4-.2.11-.07.22-.14.29-.26h0s-1.73-1.01-1.73-1.01h0c-.13.22-.22.5-.21.74,0,.25.11.47.25.61.13.13.31.2.49.21.18,0,.36-.03.51-.09Z"/>
  </g>
  <g>
    <path d="M41.17,18.38c-.02.22.01.44.1.61.08.16.22.28.39.35.16.08.34.09.52.06.18-.02.38-.05.53-.16.15-.1.28-.26.4-.43l-1.67-1.09c-.14.21-.23.44-.25.65Z"/>
    <path d="M51.09,8.43c-.37.29-.08.49-.45.79-.36.29-.77.23-1.13.54-.35.31-.26.41-.61.72-.35.31-.56.09-.9.4-.34.31-.25.57-.59.89-.34.32.18.67-.15.99-.33.32-.84-.12-1.17.2-.33.32-.29.53-.62.85-.33.32-.54-.12-.88.2-.34.32-.03.63-.37.96-.33.33-.38.27-.7.61-.32.34-.58.14-.9.5-.32.37,0,.73-.29,1.1-.29.37-.9.52-.92.55l1.67,1.09s.13-.57.4-.91c.27-.34.46-.18.75-.5.29-.33.09-.51.4-.84.31-.32.56-.08.88-.4.33-.31-.18-.62.15-.93.33-.31.57-.27.9-.59.33-.31.4-.17.72-.48.33-.31.2-.53.53-.84.33-.32.62,0,.95-.32.34-.31.04-.63.38-.93.34-.31.44-.2.77-.5.34-.3.46-.16.81-.45.34-.29-.02-.65.33-.94.35-.29.64,0,.99-.27.35-.27.23-.43.6-.69.38-.28.58,0,.78-.09l-.77-1.84c-.42.2-.28.41-.7.71-.38.28-.47.15-.85.44Z"/>
    <path d="M52.82,20.07c-.02-.38-.36-.28-.37-.66-.01-.39.3-.62.29-1,0-.39-.13-.39-.13-.78,0-.39.31-.39.32-.78,0-.4-.25-.49-.21-.86.03-.36-.59-.31-.56-.69.04-.39.67-.34.74-.69.08-.35-.08-.48.02-.84.11-.36.51-.09.63-.43.12-.33-.28-.5-.14-.85.15-.34.2-.32.36-.66.17-.34.47-.2.65-.52.18-.33-.19-.62,0-.99.19-.36.75-.64.75-.69l-1.91-.59s.02.11.02.25c0,.14-.04.33-.12.49-.18.33-.39.19-.6.55-.2.37.04.5-.14.87-.18.37-.48.22-.65.62-.16.39.42.49.27.87-.14.38-.37.45-.48.85-.11.4-.24.32-.33.74-.07.42.19.51.14.92-.03.41-.46.38-.49.81-.04.43.41.42.4.82,0,.39-.15.39-.16.79,0,.4-.19.4-.2.8,0,.4.51.36.52.76.01.4-.39.45-.37.86.02.41.22.39.25.8.04.4-.28.54-.24.85l1.98-.27c-.03-.28-.29-.21-.34-.59-.04-.38.12-.39.09-.76Z"/>
    <path d="M55.7,32.03c-.16-.37-.43-.14-.59-.51-.16-.36.02-.73-.12-1.06-.14-.32-.26-.27-.39-.61-.11-.35.18-.44.08-.79-.09-.35-.36-.38-.45-.76-.08-.38-.65-.14-.73-.52-.08-.38.56-.58.48-.97-.08-.39-.29-.44-.37-.83-.09-.39.4-.35.31-.73-.09-.38-.51-.29-.6-.68-.08-.38-.03-.39-.11-.77-.08-.38.24-.47.16-.84-.07-.38-.55-.34-.62-.72-.06-.38.31-.79.31-.82l-1.98.27s.28.49.35.89c.07.4-.18.44-.1.84.08.4.35.34.43.73.08.39-.24.45-.16.84.09.39.62.14.71.53.09.38-.08.55,0,.93.08.38-.07.37,0,.75.08.38.33.37.41.76.08.39-.34.48-.25.88.09.4.51.29.61.69.11.4-.03.44.1.84.14.4-.03.47.15.88.17.38.6.11.76.48.16.36-.2.57-.04.92.16.36.33.28.49.63.16.36-.11.58,0,.85l1.83-.81c-.12-.27-.34-.13-.5-.5-.16-.37-.02-.42-.18-.79Z"/>
    <path d="M60.52,43.87c-.12-.38-.42-.2-.53-.58-.11-.38.11-.69,0-1.06-.12-.38-.24-.34-.36-.72-.12-.38.18-.48.05-.87-.13-.39-.41-.4-.54-.78-.15-.39-.67-.05-.82-.42-.15-.36.43-.69.25-1.07-.18-.37-.38-.36-.55-.71-.17-.35.31-.43.14-.78-.17-.35-.57-.17-.73-.52-.17-.35-.12-.37-.29-.72-.17-.35.12-.5-.05-.85-.17-.35-.63-.22-.79-.58-.16-.36.09-.87.08-.9l-1.83.81s.39.38.55.74c.16.36-.09.45.09.81.17.36.43.25.6.61.17.36-.13.49.04.85.17.36.64,0,.81.36.17.36.05.56.22.91.17.35.02.4.18.73.16.33.39.27.54.62.14.35-.25.51-.13.86.12.35.54.2.65.57.12.37-.02.41.09.78.11.38-.07.43.05.81.11.38.59.19.71.57.11.38-.26.53-.15.91.11.38.3.32.42.7.11.38-.18.56-.09.85l1.92-.57c-.09-.28-.33-.17-.44-.55-.12-.38.03-.42-.08-.8Z"/>
    <path d="M63.83,39.73c-.04.2.31.22.26.43-.05.22-.38.26-.44.47-.06.21.07.25,0,.45-.07.21-.36.11-.44.32-.08.2.15.35.06.56-.09.21.51.38.42.59-.09.21-.72,0-.81.21-.09.21.06.34-.03.55-.09.22-.49-.04-.58.18-.09.22.31.39.22.6-.09.22-.14.19-.23.41-.09.22-.4.1-.49.32-.09.22.34.43.25.65-.09.22-.55.19-.55.19l1.78.91s-.02-.45.06-.64c.09-.21.32-.12.41-.33.09-.22-.17-.32-.07-.54.09-.21.4-.08.49-.3.09-.21-.47-.37-.38-.58.09-.21.3-.21.39-.42.09-.21.22-.13.31-.35.09-.22-.12-.33-.03-.55.09-.21.49-.06.58-.29.09-.23-.32-.38-.24-.61.08-.23.22-.18.3-.41.08-.23.26-.18.33-.42.07-.25-.43-.35-.37-.59.05-.24.46-.18.5-.44.04-.26-.15-.28-.12-.54.03-.25.36-.3.37-.5l-2-.06c-.01.15.26.14.24.35-.02.21-.18.19-.2.39Z"/>
    <path d="M70.41,40.38c-.09-.13-.35.09-.43-.03-.09-.12.11-.38.02-.5-.09-.12-.2-.04-.29-.16-.09-.12.15-.31.05-.43-.1-.12-.32.01-.42-.1-.1-.12-.54.31-.63.2-.09-.11.4-.56.3-.68-.1-.12-.26-.02-.36-.13-.1-.11.28-.39.17-.5-.11-.11-.42.18-.53.08-.1-.11-.07-.15-.17-.25-.11-.11.12-.34.01-.45-.11-.11-.46.22-.57.12-.11-.1.08-.52.08-.52l-1.37,1.46s.28-.03.38.07c.1.1-.07.28.03.37.1.1.29-.1.39,0,.1.1-.14.33-.05.43.09.1.48-.33.58-.22.1.1-.02.27.07.37.09.1-.03.19.06.3.09.1.29-.04.38.07.09.11-.23.38-.15.49.09.11.42-.17.51-.06.09.11-.03.2.06.31.09.11-.07.22.01.33.08.11.49-.2.57-.08.08.12-.24.36-.17.47.08.11.24,0,.32.12.08.12-.19.33-.14.41l1.69-1.06c-.06-.1-.28.06-.36-.07-.08-.13.04-.21-.04-.34Z"/>
    <path d="M70.57,41.36c.11-.11.17-.21.21-.31.04-.09.06-.19.02-.25h0s-1.69,1.06-1.69,1.06h0c.04.05.1.09.2.09.1,0,.25-.03.39-.08.14-.05.3-.12.46-.21.15-.09.3-.2.41-.3Z"/>
    <g>
      <path d="M55.14,9.23v-.05s.01-.05.01-.05l.03-.11v-.05s.02-.05.02-.05v-.05s0-.03,0-.03v-.03s-.02-.02-.02-.02v-.02s-.03-.02-.03-.02l-.02-.02-.05-.04-.05-.03-.11-.06-.05-.03-.02-.02-.02-.02v-.02s-.02-.02-.02-.02v-.02s0-.03,0-.03v-.11s0-.05,0-.05v-.05s-.01-.02-.01-.02v-.02s-.02-.02-.02-.02l-.02-.02-.04-.03-.04-.02-.09-.03c-.06-.02-.11-.03-.18-.05h-.05s-.02-.03-.02-.03h-.02s-.02-.03-.02-.03h-.02s-.05-.03-.05-.03l-.1-.03h-.02s-.02-.02-.02-.02h-.02s-.02-.03-.02-.03v-.02s-.03-.02-.03-.02l-.02-.05-.04-.12-.02-.06-.02-.05v-.02s-.03-.02-.03-.02l-.02-.02h-.02s-.05-.04-.05-.04l-.05-.02-.11-.04-.12-.03s-.08-.02-.11-.02h-.02s-.02,0-.02,0h-.02s-.02.01-.02.01h-.02s-.02.02-.02.02l-.03.03-.03.03-.03.03h-.02s-.02.02-.02.02h-.02s-.02.01-.02.01h-.02s-.03,0-.03,0h-.03s-.03-.02-.03-.02c-.04-.02-.08-.04-.12-.07l-.06-.03h-.03s-.03-.02-.03-.02h-.03s-.03,0-.03,0h-.03s-.03.01-.03.01l.39.92.19.46.19.46h0s0-.01,0-.01h.01s0-.03,0-.03h0s0,0,0,0h0s0,0,0,0h0s0,0,0,0h0s0-.02,0-.02v-.05s.02-.01.02-.01h0s0-.02,0-.02h0s.01-.01.01-.01h.01s.02,0,.02,0h.02s.06.05.1.07l.03.02.02.02h.01s0,.02,0,.02h0s0,0,0,0h0s0,0,0,0c-.31-.28-.3-.27-.47-.42h0s0,0,0,0h0s.03.01.04.01h.03s.02.02.02.02h.02s.01.03.01.03h0s0,.02,0,.02h0s0,.02,0,.02v.02s0,.02,0,.02h0s0,.02,0,.02h0s0,.02,0,.02h0s0,.01,0,.01h0s0,.01,0,.01h0s-.02.02-.02.02h-.03s-.06.03-.06.03h-.01s0,.01,0,.01h0s0,.01,0,.01h0s0,.01,0,.01h0s0,.03,0,.03l-.02.04.48.15.48.15.95.3v-.02s0-.02,0-.02v-.05s0-.07-.01-.1l-.02-.11v-.05s0-.05,0-.05Z"/>
      <path class="st0" d="M52.82,9.55c.66.33.63.32.98.49h0s0,0,0,0h0s0-.01,0-.01h0s-.01-.04-.01-.04l-.02-.06-.05-.12-.1-.23-.19-.46-.39-.92-.77-1.84.27-.1.29-.09.3-.07.15-.03.16-.02h.16s.16-.02.16-.02h.16s.16,0,.16,0h.16s.16.03.16.03l.16.02.16.03,1.26.27.28,1.26.05.29.02.15.02.15v.15s.01.15.01.15v.15s0,.15,0,.15v.15s-.03.15-.03.15l-.02.15-.03.14-.03.14-.03.13-.03.13-.04.13-1.91-.59-.95-.3-.48-.15-.24-.07-.12-.04-.06-.02h-.03s-.01-.01-.01-.01h0s0,0,0,0h0s0,0,0,0c.34.54.33.52.5.81Z"/>
    </g>
    <g>
      <path d="M62.85,46.98l-.1.13-.1.14-.06.07-.06.06-.07.06-.07.05-.04.02h-.04s-.04.02-.04.02h-.04s-.07,0-.07,0h-.07s-.14-.04-.14-.04h-.07s-.03,0-.03,0h-.04s-.04.01-.04.01h-.04s-.07.05-.07.05c-.05.03-.1.05-.15.08l-.08.04-.08.03h-.04s-.04.01-.04.01h-.04s-.03,0-.03,0l-.06-.02h-.03s-.03-.02-.03-.02l-.05-.03-.04-.03c-.05-.04-.11-.08-.17-.13l-.02-.02-.02-.02-.02-.03-.02-.03s-.04-.08-.06-.12l-.03-.06-.04-.05-.02-.02-.02-.02h-.02s-.02-.03-.02-.03h-.03s-.03,0-.03,0h-.03s-.03,0-.03,0h-.06s-.06.03-.06.03l-.11.04h-.05s-.01.01-.01.01h0s0,0,0,0h0s-.03-.02-.03-.02l-.07-.05-.07-.06-.07-.07-.07-.07-.12-.15s-.07-.1-.1-.14l-.02-.03v-.03s-.02-.03-.02-.03v-.03s-.01-.06-.01-.06v-.06s0-.05,0-.05v-.05s0-.02,0-.02v-.03s-.01-.03-.01-.03v-.03s-.03-.02-.03-.02l-.02-.02-.02-.02-.03-.02s-.09-.05-.13-.07l-.07-.04-.06-.04-.03-.02-.02-.03-.02-.03v-.03s.95-.29.95-.29l.48-.14.48-.14v.03s0,.02,0,.02v.04s0,.03,0,.03v.02s.01.02.01.02v.02s0,.02,0,.02v.02s0,.02,0,.02c0,.03-.01.06-.02.09v.05s0,.03,0,.03v.03s.01.03.01.03v.03s.03.03.03.03l.02.03s.04.05.06.08l.02.02.02.02.03.03.03.03.03.02h.02s0,0,0,0h0s0,0,0,0h0s0,0,0,0c-.15.06-.15.06-.23.09h0s0,0,0,0h0s.04.02.04.02h.03s.03.02.03.02h.02s.01,0,.01,0h.01s.02,0,.02,0h.02s.03-.02.03-.02h.01s.01-.02.01-.02l.02-.02.02-.02h.01s.01-.01.01-.01h.01s0-.01,0-.01h0s0-.02,0-.02v-.03s0-.04,0-.04l-.02-.07v-.02s0-.01,0-.01h0s0-.02,0-.02h0s0-.02,0-.02l.02-.03s.02-.05.03-.07l.45.23.45.23.89.46-.03.05-.04.05s-.07.07-.11.1l-.12.11-.11.11Z"/>
      <path class="st0" d="M62.06,45.52c-.04-.39-.04-.38-.05-.59h0s0,0,0,0h0s0,0,0,0h-.01s-.03.01-.03.01l-.06.02-.12.04-.24.07-.48.14-.96.29-1.92.57.15.48.09.3.08.22.1.24.06.12.07.13.08.13.09.13.1.13.1.12-.02-.03-.03-.05-.04-.07-.04-.09-.02-.05v-.05s.4,1.95.4,1.95l1.95-.4.22-.05.23-.07.11-.04.12-.04.12-.05.11-.05.23-.11.22-.13.21-.15.1-.08.1-.08.1-.08.09-.09.09-.09.08-.09.16-.18.14-.18.13-.18.11-.18.1-.18.09-.17-1.78-.91-.89-.46-.45-.23-.22-.11-.11-.06-.06-.03h-.03s-.01-.02-.01-.02h0s0,0,0,0h0s0,0,0,0c.97.22.94.21,1.46.33Z"/>
    </g>
    <g>
      <path d="M67.14,36.75l-.15-.12-.15-.12-.08-.06-.08-.05-.08-.04-.04-.02-.04-.02h-.04s-.04-.01-.04-.01h-.04s-.04,0-.04,0l-.07.02-.07.03-.14.05-.07.02h-.04s-.04,0-.04,0h-.04s-.04,0-.04,0l-.08-.02c-.06-.02-.12-.04-.18-.06l-.09-.03-.09-.02h-.04s-.04,0-.04,0h-.04s-.04.01-.04.01l-.06.03-.05.03-.05.03-.04.04-.08.08s-.06.05-.09.08l-.02.02h-.01s0,.02,0,.02h0s0,0,0,0v.04s-.02.04-.02.04c0,.04-.02.09-.02.14l-.02.07v.03s-.03.03-.03.03l-.04.07-.02.03-.02.03-.03.02-.03.02-.03.02h-.03s-.13.06-.13.06l-.06.02h-.03s-.03.03-.03.03l-.03.02-.03.02-.02.03-.02.03-.04.08-.03.08-.03.09-.03.09c-.01.06-.03.13-.04.19-.01.06-.02.12-.03.18v.04s0,.04,0,.04v.04s.01.03.01.03v.03s.02.02.02.02l.02.04.02.04.02.05v.02s.01.03.01.03v.03s0,.03,0,.03v.03s-.02.03-.02.03l-.02.03-.02.03-.05.06-.05.06-.05.06-.05.06-.02.03v.03s-.02.03-.02.03v.03s1,.03,1,.03l.5.02.5.02v-.04s0-.03,0-.03c0-.02,0-.04,0-.05v-.05s0-.02,0-.02v-.03s0-.03,0-.03v-.03s0-.02,0-.02v-.02s-.04-.07-.06-.11l-.02-.06v-.03s-.01-.04-.01-.04v-.04s0-.04,0-.04v-.05s.02-.05.02-.05c0-.03.01-.08.02-.13v-.09s.02-.02.02-.02v-.02s.01-.03.01-.03l.02-.05.02-.05v-.02s.02,0,.02,0h0s0,0,0,0h0s0,0,0,0c-.15.06-.14.06-.22.09h0s0,0,0,0h0s.04-.03.04-.03h.03s.03-.02.03-.02h.03s.03,0,.03,0h.02s.02,0,.02,0h.02s.02.02.02.02l.03.02.03.02.03.02h.01s.02,0,.02,0c0,0,.01,0,.01,0h.01s0,.02,0,.02h0s.02.06.02.06v.05s.03.05.03.05l.02.05v.02s.02.02.02.02v.02s.03.01.03.01c0,0,.02.02.04.03l.04.04s.06.06.09.09l.34-.36.34-.36.68-.73-.05-.04-.05-.03s-.08-.04-.13-.06l-.13-.06-.06-.03-.06-.04Z"/>
      <path class="st0" d="M66.73,38.54c.04.36.04.35.06.54h0s0,0,0,0h0s0,0,0,0h-.02s-.03,0-.03,0h-.06s-.12,0-.12,0h-.25s-.5-.02-.5-.02l-1-.03-2-.06v-.2s0-.19,0-.19l-.02-.22-.02-.24v-.24s0-.25,0-.25l.02-.26.03-.26.05-.27.07-.27.04-.14.02-.06v.04s-.04.1-.04.1l-.02.12v.13s0,.12,0,.12l-.17-2.33,2.33.19.23.02.24.04.24.05.24.06.24.07.24.09.23.1.23.11.22.13.22.14.21.15.2.16.5.46-1.37,1.46-.68.73-.34.36-.17.18-.09.09-.04.05-.02.02h-.01s0,.02,0,.02h0s0,0,0,0h0c.77-.44.74-.43,1.16-.66Z"/>
    </g>
  </g>
  <g>
    <path d="M57.65,93.08c-.13.2-.13.38-.1.55.03.16.09.33.19.48.09.15.24.26.42.3.18.05.39.08.54.08.07,0,.13,0,.14.01.03.01-.06.04-.03.04l-.22-1.99c-.18.01-.47.11-.61.21-.16.1-.26.21-.32.31Z"/>
    <path d="M65.66,84.8c-.15.41.2.43.06.83-.14.4-.51.53-.65.91-.14.38-.01.43-.16.81-.15.36-.42.22-.58.52-.17.28,0,.5-.23.77-.24.26.28.61-.02.89-.31.26-.78-.23-1.11.04-.33.26-.29.47-.61.74-.32.26-.5-.19-.82.07-.32.26-.06.6-.38.86-.33.25-.36.21-.69.46-.33.24-.54,0-.86.23-.32.22-.12.67-.43.87-.34.2-.61-.22-.6-.22l.22,1.99s.25-.08.5-.22c.25-.13.5-.33.7-.46.38-.25.5-.04.87-.29.35-.25.19-.48.53-.73.34-.26.54.01.87-.25.33-.26-.12-.63.2-.9.33-.26.55-.19.88-.45.32-.26.38-.11.7-.37.32-.26.2-.46.56-.77.34-.31.65-.02.99-.41.31-.41-.05-.65.19-1.04.22-.41.36-.36.53-.78.16-.4.33-.34.48-.74.14-.4-.35-.53-.21-.92.14-.39.54-.29.67-.68.14-.38-.04-.45.11-.82.16-.37.5-.32.63-.57l-1.79-.89c-.15.31.11.38-.07.78-.17.4-.31.34-.47.75Z"/>
    <path d="M65.32,72.68c.13.18.15.17.21.19.05.02.11.02.16.02.1,0,.22.02.32.17.19.33,0,.65.11.98.11.34.24.31.33.69.08.39-.22.45-.15.84.07.4.34.47.4.88.06.39.65.18.7.6.05.41-.61.53-.58.93.03.4.22.49.23.9.01.41-.45.28-.45.68,0,.41.44.41.44.82,0,.41-.05.42-.06.8-.02.38-.35.37-.4.72-.06.33.4.49.28.86-.12.37-.66.45-.68.5l1.79.89s.01-.15.07-.38c.04-.22.09-.49.16-.72.13-.46.37-.4.46-.89.07-.48-.21-.51-.19-.96.01-.45.34-.43.34-.86,0-.42-.57-.29-.58-.71,0-.42.19-.56.17-.99-.02-.43.14-.39.11-.82-.03-.43-.28-.46-.33-.89-.05-.42.37-.5.3-.93-.07-.41-.49-.33-.56-.75-.07-.42.07-.45-.02-.89-.11-.44.08-.49-.07-.95-.17-.46-.62-.22-.82-.62-.22-.39.1-.66-.21-1.06-.11-.14-.3-.12-.47-.47-.15-.34.13-.57-.02-.91l-1.81.84c.11.24.33.1.5.51.23.48-.02.38.32.96Z"/>
    <path d="M58.63,70.48c0,.38.34.28.35.67,0,.39-.3.61-.3.99,0,.39.12.39.12.81.01.43-.3.46-.24.96.11.52.38.59.66,1.08.37.49.7-.06,1.05.19.37.19.28.84.82.92.55.02.69-.17,1.2-.37.48-.27.61.22,1.08-.24.22-.26.18-.41.15-.56-.03-.15-.06-.3.05-.49.22-.37.27-.35.45-.75.17-.4.49-.32.63-.77.13-.46-.34-.62-.27-1.05.05-.45.5-.74.5-.74l-1.99-.23c-.01.06.16.6.12.9-.06.34-.3.28-.39.59-.1.3.16.4.02.72-.15.32-.44.15-.61.44-.17.27.35.54.16.8-.19.22-.37.09-.55.16-.21.05-.2-.11-.43-.11-.25-.04-.36.19-.56.09-.19-.14.14-.42.08-.52-.06-.14-.49-.02-.55-.34-.04-.34.11-.34.1-.7,0-.37.2-.36.2-.77,0-.41-.51-.37-.52-.78,0-.4.4-.46.4-.87,0-.41-.2-.4-.2-.8-.02-.34.32-.42.33-.69l-2-.08c0,.33.25.29.27.74.02.44-.15.41-.14.8Z"/>
    <path d="M57.87,58.04c.12.37.42.19.53.57.11.38-.12.68-.03,1.04.09.36.22.33.29.69.06.36-.25.4-.22.73.01.3.27.45.27.83,0,.4.61.27.62.67,0,.4-.66.45-.66.85,0,.39.19.49.19.89,0,.4-.46.25-.46.65,0,.39.44.4.44.8,0,.4-.05.4-.05.79,0,.4-.32.41-.32.81,0,.39.49.47.48.84-.02.37-.47.74-.47.77l2,.08s-.18-.49-.16-.93c0-.41.25-.4.25-.8,0-.4-.28-.4-.28-.8,0-.4.33-.39.33-.78,0-.4-.58-.28-.58-.67,0-.39.19-.52.19-.91,0-.39.15-.35.15-.74,0-.4-.25-.44-.25-.84,0-.4.42-.41.42-.8,0-.4-.43-.37-.45-.81-.03-.43.11-.45.04-.88-.08-.42.1-.46,0-.88-.11-.41-.59-.23-.7-.62-.12-.38.26-.54.14-.92-.12-.38-.31-.32-.43-.71-.13-.38.15-.59.05-.88l-1.87.7c.1.27.33.14.46.51.13.37-.02.41.1.78Z"/>
    <path d="M50.41,48.58c.36.35.54.04.85.27.32.24.32.62.65.86.32.24.4.13.73.37.31.23.13.47.42.7.28.23.52.09.8.34.27.25.61-.27.89,0,.28.28-.17.78.08,1.05.24.28.45.23.68.53.23.3-.22.47,0,.77.21.3.58.06.78.38.2.32.15.35.33.67.18.33-.1.5.06.83.16.33.62.19.77.54.15.36-.13.84-.12.86l1.87-.7s-.38-.43-.54-.8c-.16-.38.07-.48-.12-.86-.19-.38-.43-.26-.63-.62-.21-.36.08-.53-.15-.89-.23-.36-.64.07-.87-.27-.23-.33-.16-.56-.41-.88-.26-.32-.11-.38-.39-.7-.28-.31-.49-.18-.78-.47-.29-.29,0-.61-.33-.89-.32-.28-.6.06-.91-.2-.32-.25-.24-.37-.57-.61-.31-.23-.2-.38-.52-.61-.31-.23-.59.2-.9-.03-.3-.23-.14-.59-.33-.77-.2-.21-.35-.09-.56-.37-.2-.29.04-.55-.1-.79l-1.73,1.01c.16.27.36.1.6.46.26.36.13.46.46.83Z"/>
    <path d="M49.41,58.06c.07-.31-.27-.33-.18-.65.11-.32.48-.45.59-.82.11-.38-.02-.42.06-.81.07-.39.38-.38.41-.79.02-.41-.24-.51-.24-.89,0-.38-.62-.25-.62-.61,0-.36.65-.43.65-.78,0-.34-.19-.43-.16-.76.02-.31.5-.21.49-.68-.03-.47-.47-.41-.52-.79-.05-.36,0-.36-.03-.67-.01-.16.07-.21.16-.3.08-.11.17-.22.16-.43-.02-.43-.51-.44-.57-.83-.06-.38.25-.85.24-.88l-1.92.55s.31.33.35.65c.04.31-.21.34-.19.63,0,.15.07.21.14.31.07.12.14.23.15.44.04.4-.28.45-.23.81.04.33.61.16.63.48.02.32-.21.34-.23.76-.02.39-.17.34-.17.72,0,.38.25.41.26.78,0,.36-.42.38-.41.71,0,.33.44.33.42.67-.03.33-.17.3-.23.62-.07.32-.25.27-.34.58-.09.32.4.44.29.78-.12.35-.52.28-.62.67-.09.4.1.43.04.82-.05.38-.39.45-.41.76l2,.1c.01-.24-.25-.23-.22-.56.05-.33.2-.3.26-.61Z"/>
    <path d="M43.98,66.63c.24.37.35-.09.56.23.21.3.31.8.76.89.45.02.46-.15.82-.32.33-.22.41.12.74-.18.11-.11.18-.23.22-.35.08-.27.1-.52.25-.79.23-.43-.2-.81-.03-1.15.16-.33.73,0,.96-.43.18-.36.05-.53.2-.89.14-.37.53-.08.66-.48.12-.4-.31-.52-.23-.9.07-.39.12-.38.17-.77.03-.39.36-.4.37-.8,0-.41-.49-.46-.5-.8,0-.17.11-.34.22-.46.11-.12.22-.19.22-.2l-2-.1s.18.52.2.9c.01.39-.23.35-.24.68-.01.32.27.33.24.66-.04.33-.37.27-.42.57-.06.3.52.34.43.67-.1.32-.32.36-.44.65-.13.3-.25.2-.4.48-.1.19.1.36-.02.59-.11.23-.39-.17-.46-.03-.04.08,0,.28.04.48.03.17.04.35-.03.44-.15.2-.2-.03-.36.12-.18.12-.19-.2-.37-.21-.16-.06-.32.83-.49.6-.14-.26.07-.87,0-1.05-.08-.19-.21.03-.29-.21-.09-.24.17-.54.13-.66l-1.71,1.18c.14.38.33.16.5.61.18.44.07.6.3,1.01Z"/>
    <path d="M41.54,59.37c.13-.15.27-.84.46-1.03.2-.19.06.46.25.41.19-.02.39-.33.53-.16.12.21-.32.89-.29,1.05,0,.16.36-.25.24-.05-.13.17.68-.83.48-.56-.19.3-.91,1.16-.98,1.33-.05.2.12.1.11.35,0,.22-.32.36-.41.5-.01.02-.02.04-.02.06,0,.08.12.09.24.13.12.08.25.16.29.35.09.38.04.4.15.77.11.37-.19.49-.06.85.13.35.6.24.73.57.11.29-.09,1.05-.08,1.07l1.71-1.18s-.07-.03-.14-.09c-.04-.03-.08-.06-.12-.12-.05-.08-.1-.17-.13-.26-.13-.34.11-.42-.01-.75-.11-.32-.38-.23-.48-.56-.09-.32.23-.4.16-.7-.06-.3-.61-.08-.66-.54,0-.11,0-.19.05-.3.22-.38.45-.75.5-1.21.03-.53.23-.69.23-1.1,0-.34-.29-.02-.17-.26.14-.23.61-.69.67-.87.02-.21-.3.2-.36-.13-.11-.34-.04-.48-.29-.77-.28-.26-.26-.45-.63-.49-.36.02-.52.56-.81.73-.28.2-.15-.31-.41-.13-.26.19-.32.48-.63.81-.31.32-.37-.04-.65.23l.05,2.75c.09-.1.09-.5.25-.68.16-.17.11.12.23-.04Z"/>
    <path d="M38.91,67.98c-.02-.35-.36-.26-.37-.61-.01-.36.29-.57.29-.92,0-.35-.13-.35-.12-.7.01-.35.32-.34.34-.68.03-.34-.22-.44-.19-.79.04-.34-.58-.32-.52-.67.06-.35.73-.27.8-.59.08-.31-.08-.44.03-.76.11-.31.5-.03.62-.3.13-.26-.25-.48-.09-.75.17-.26.24-.26.4-.46.15-.18.37.07.48-.05.1-.12-.06-.66.13-.87.2-.22.35.25.35.26l-.05-2.75s-.43.71-.75,1.04c-.33.34-.43.1-.79.46-.36.37-.19.57-.51.95-.28.35-.52.13-.77.5-.22.37.35.54.17.89-.17.35-.39.39-.53.77-.12.38-.25.29-.35.68-.09.39.14.48.07.85-.06.37-.48.33-.53.71-.04.38.4.41.37.79-.02.37-.17.37-.18.74-.01.37-.2.37-.2.75,0,.38.51.33.52.7.01.37-.39.42-.37.79.02.37.22.36.24.72.03.37-.3.47-.29.72l2-.1c-.02-.29-.28-.26-.31-.61-.03-.36.13-.36.11-.72Z"/>
    <path d="M34.06,73.26c.19.26.43,0,.61.28.09.14.09.29.08.44,0,.07-.01.15,0,.22.01.09.04.2.09.31.26.45.37.37.73.69.4.27.27.55.8.72.13.03.23.04.33.03.32-.03.5-.19.88-.21.51-.04.22-.61.59-.71.17-.06.37.02.6.03.22.02.52-.04.66-.37.21-.65-.04-.79-.11-1.26-.09-.37.39-.34.3-.69-.09-.35-.51-.26-.6-.61-.09-.36-.03-.33-.08-.66-.04-.33.28-.37.26-.7-.02-.33-.5-.37-.51-.73,0-.36.41-.73.41-.76l-2,.1s.22.43.23.8c.01.37-.24.37-.22.76.03.4.3.38.35.77.06.38-.25.5-.17.84.09.35.62.11.71.46.04.18.03.3,0,.43-.02.12-.03.28-.02.37.02.19-.15.18-.15.21,0-.01.25.15,0,.26-.25.07-.35-.36-.51-.35-.11,0-.17.21-.29.33-.05.05-.11.08-.19.06-.24-.07-.17-.2-.35-.32-.17-.15-.02-.28-.1-.44-.02-.05-.07-.08-.13-.09-.07-.03-.15-.05-.22-.06-.16-.03-.31-.04-.4-.21-.2-.33.12-.59-.12-.92-.24-.32-.39-.19-.64-.48-.25-.28-.07-.58-.26-.79l-1.45,1.38c.18.19.35-.02.58.24.23.26.1.35.31.61Z"/>
    <path d="M33.28,82.27c-.1-.36-.4-.2-.5-.58-.09-.38.15-.68.06-1.06-.09-.38-.22-.35-.31-.73-.09-.38.2-.46.11-.84-.09-.38-.37-.41-.46-.78-.09-.38-.66-.11-.75-.49-.09-.38.54-.6.45-.97-.09-.38-.29-.43-.39-.8-.09-.38.38-.38.32-.67-.04-.28-.48-.25-.48-.57.02-.31.07-.3.14-.58.04-.14.15-.18.25-.2.09-.01.22-.07.32-.27.19-.39-.22-.64-.07-1.03.15-.38.66-.69.67-.72l-1.95-.44s.11.45-.03.78c-.13.32-.36.22-.51.53-.07.14-.07.29-.07.45.01.15.02.29-.04.53-.11.47-.44.43-.47.95,0,.51.58.33.63.76.08.43-.07.59.01.97.09.38-.07.37.02.75.09.38.34.36.43.74.09.38-.32.49-.23.87.09.38.51.26.61.64.09.38-.05.41.04.79.09.38-.09.43,0,.8.09.38.58.22.67.59.09.38-.3.51-.2.9.11.39.29.34.41.72.12.38-.16.59-.06.89l1.88-.69c-.09-.25-.33-.13-.44-.49-.11-.36.04-.4-.06-.76Z"/>
    <path d="M40.09,91.49c-.36-.21-.45.13-.79-.06-.34-.19-.39-.57-.71-.76-.31-.19-.38-.07-.68-.28-.29-.21-.11-.46-.35-.66-.26-.24-.51-.11-.77-.37-.25-.26-.62.24-.88-.04-.26-.29.22-.76,0-1.04-.22-.28-.42-.25-.62-.56-.2-.31.27-.44.1-.74-.16-.3-.56-.11-.71-.44-.15-.34-.1-.35-.23-.69-.13-.36.18-.48.02-.89-.17-.42-.66-.29-.81-.61-.15-.34.13-.81.12-.83l-1.88.69s.38.44.56.81c.19.4-.07.41.06.75.13.33.38.24.52.62.15.39-.16.51.02.91.19.39.64.02.83.38.2.36.1.57.32.92.23.34.08.39.33.73.26.33.48.21.75.52.27.3-.03.6.27.9.3.29.59-.03.9.24.33.28.24.39.59.64.35.24.25.39.61.61.35.21.57-.26.91-.06.34.19.18.56.5.75.31.19.42.02.72.22.26.18.25.6.3.64l1.39-1.44c-.39-.33-.43,0-.79-.27-.35-.24-.26-.37-.62-.58Z"/>
    <path d="M41.37,93.99c.13,0,.29-.16.4-.34.05-.11.12-.24.1-.53,0-.3-.24-.66-.38-.78h0s-1.39,1.44-1.39,1.44h0s-.15-.2-.13-.33c0-.12.05-.07.08-.03.07.13.17.25.32.43.14.15.32.21.5.2.18,0,.36-.05.5-.07Z"/>
    <g>
      <path d="M63.09,70.54l.02-.05v-.06s.04-.12.04-.12v-.06s.04-.06.04-.06l.03-.06.02-.03.02-.03.02-.02.02-.02h.03s.03-.03.03-.03l.06-.02h.06s.13-.03.13-.03h.06s.03-.02.03-.02h.02s.02-.03.02-.03l.02-.02.02-.02.02-.02.07-.11.04-.05.02-.02.02-.02.02-.02.02-.02h.03s.03-.02.03-.02h.03s.03,0,.03,0h.05s.05.02.05.02h.05c.06.03.12.05.19.08h.02s.01.02.01.02h0s0,0,0,0h0s.02,0,.02,0h.02s.01,0,.01,0h0s0,0,0,0h.01s.05.02.05.02c.04.01.07.02.11.03h.03s.03.01.03.01h.03s.02,0,.02,0h.03s.03-.02.03-.02l.05-.03.1-.07.05-.03.05-.02h.03s.03-.01.03-.01h.03s.03,0,.03,0h.06s.06.04.06.04l.13.05.12.07s.07.05.11.07l.02.02.02.02v.02s.03.02.03.02l.02.04v.02s0,.02,0,.02v.05s.01.05.01.05v.02s.02.02.02.02v.02s.03.02.03.02l.02.02.02.02h.03s.03.02.03.02c.04.01.09.02.14.04l.07.02.06.03.03.02.02.02.02.02v.02s-.89.42-.89.42l-.45.21-.45.21s0-.01,0-.01h0s0-.04,0-.04v-.02s0,0,0,0h0s0-.01,0-.01h0s0-.01,0-.01h0s0-.02,0-.02l.02-.06v-.03s0-.01,0-.01h0s0-.03,0-.03c0,0,0,0-.01-.01h-.02s-.02-.01-.02-.01c-.01,0-.03,0-.05-.01h-.01s-.02,0-.02,0h-.03s-.03,0-.03,0h-.02s-.02,0-.02,0c0,0-.01,0-.01,0h0s0,0,0,0h0s0,0,0,0h0c.51-.09.49-.09.76-.14h0s0,0,0,0h0s-.03,0-.04-.01h-.03s-.02,0-.02,0h-.02s-.02,0-.02,0c0,0-.01,0-.01,0h-.01s0,.02,0,.02h0s-.01.05-.01.05v.02s-.02,0-.02,0h0s0,.01,0,.01h0s0,0,0,0h0s0,.02,0,.02l.02.02.02.02.04.05h0s0,.02,0,.02h0s0,.01,0,.01h0s0,.01,0,.01h0s0,.04,0,.04c0,.02,0,.04,0,.06l-.5-.06-.5-.06-.99-.12v-.02s0-.02,0-.02l.02-.04s.04-.06.05-.09l.06-.1.03-.05.02-.05Z"/>
      <path class="st0" d="M64.59,71.82c-.66-.12-.64-.12-1-.18h0s0,0,0,0h0s0,0,0,0h.01s.03-.02.03-.02l.06-.03.11-.05.23-.11.45-.21.91-.42,1.81-.84-.12-.24-.15-.26-.09-.14-.1-.14-.11-.14-.12-.15-.13-.14-.14-.14-.07-.07-.08-.06-.16-.12-.17-.11-.17-.1-.17-.09-.09-.04h-.02s-.01-.02-.01-.02l.04.02.09.05.09.05-1.19-.74-1.1.87-.16.13-.08.07-.08.08-.15.16-.14.17-.07.09-.06.09-.11.18-.1.18-.08.18-.07.18-.06.18-.05.17-.04.16-.06.3-.04.26,1.99.23.99.12.5.06.25.03h.12s.06.02.06.02h.03s.02,0,.02,0h0s0,0,0,0h0s0,0,0,0c-.85.37-.83.36-1.28.56Z"/>
    </g>
    <g>
      <path d="M47.9,47.41l-.02-.06-.03-.07-.06-.13-.07-.15-.03-.09-.02-.09v-.05s0-.04,0-.04v-.04s.01-.04.01-.04v-.04s.03-.04.03-.04l.03-.08.07-.16.03-.09v-.05s.02-.05.02-.05v-.11s.02-.13.02-.13v-.14s.04-.13.04-.13c0-.04.01-.08.02-.12v-.02s.02-.02.02-.02v-.02s.03-.02.03-.02c.03-.02.05-.05.07-.07l.07-.06.04-.03.03-.04.02-.02h0s0-.03,0-.03l.03-.06.02-.03h0s0-.02,0-.02h0s0,0,0,0h.04s.04-.02.04-.02h.09s.1-.02.1-.02h.11s.1,0,.1,0h.1s.09,0,.09,0h.04s.04-.02.04-.02l.07-.03.13-.06.07-.03h.04s.04-.02.04-.02h.04s.04,0,.04,0h.04s.05.02.05.02l.1.04.1.05.1.06.1.07.09.07.09.07c.05.05.1.09.15.14l.03.03.03.03.02.03.02.03.03.06.02.06.03.13.03.06.02.03.02.03.03.03.03.03.03.02.04.02.08.04.08.04.08.04.08.04.04.02.03.03.03.03.02.03-.86.5-.43.25-.43.25-.02-.03v-.03s-.02-.03-.03-.05l-.02-.04v-.02s-.02-.02-.02-.02v-.02s-.02-.02-.02-.02v-.02s-.01-.03-.01-.03c0-.03,0-.07-.01-.11v-.06s-.02-.03-.02-.03v-.03s-.03-.03-.03-.03l-.02-.03-.03-.03-.04-.03s-.12-.11-.2-.18l-.06-.04-.03-.02h-.03s-.02-.02-.02-.02h-.01s0,0,0,0h0s0,0,0,0h0c.48-.16.46-.16.72-.24h0s0,0,0,0h0s-.02.02-.02.02v.02s-.03.03-.03.03v.02s-.01.02-.01.02v.03s0,.03,0,.03v.03s0,.03,0,.03l.02.07s.04.1.06.14l.02.06v.03s0,.03,0,.03v.03s.01.03.01.03v.02s.03.02.03.02l.04.04.04.04.05.04.04.05.02.02.02.03v.03s.02.03.02.03c.02.06.07.2.1.29l-.48.14-.48.14-.96.27v-.05s-.01-.06-.01-.06c0-.04,0-.09,0-.13v-.14s0-.07,0-.07v-.07Z"/>
      <path class="st0" d="M50.85,47.05c-1.57.49-1.52.47-2.36.73h0s0,0,0,0h0s0,0,0,0h.01s.03-.02.03-.02l.05-.03.11-.06.22-.13.43-.25.86-.5,1.73-1.01-.34-.58-.21-.34-.14-.2-.17-.23-.1-.12-.11-.12-.13-.13-.14-.13-.16-.13-.17-.12-.19-.11-.1-.05-.1-.05-.1-.05-.11-.04-.21-.07-.21-.06-.11-.02-.1-.02-.21-.03h-.2s-.22-.02-.22-.02l-2.61-.02.66,2.52-.02-.08v-.08s-.01-.07-.01-.07v-.06s.01-.09.01-.09v-.03s0-.01,0-.01h0s0,0,0,0v.02s-.01.04-.01.04l-.04.15-.03.15-.02.14v.14s-.01.13-.01.13v.13s.01.12.01.12v.12s.05.22.05.22l.04.19.05.17.05.15.1.25.08.19.1.23.08.22.07.22,1.92-.55.96-.27.48-.14.24-.07.12-.03.06-.02h.03s.02-.01.02-.01h0s0,0,0,0h0s0,0,0,0c.03-.03.03-.03.04-.05Z"/>
    </g>
    <g>
      <path d="M30.94,71.09l.02-.07.02-.07.04-.16.02-.08.03-.08.04-.08.05-.07.03-.03.03-.03.03-.02.03-.02.07-.03.07-.02.15-.03.07-.02.03-.02.03-.02.03-.02.03-.03.06-.06s.08-.09.12-.14l.07-.07.07-.06.04-.02.04-.02h.04s.04-.02.04-.02h.07s.06,0,.06,0h.05s.05.03.05.03c.06.03.13.05.21.09h.03s.03.03.03.03l.02.02.02.03s.05.06.08.1c.03.04.07.08.1.11l.03.02.03.02.03.02h.03s.03.02.03.02h.03s.03,0,.03,0h.03s.06,0,.06,0h.06s.06-.02.06-.02h.06s.03,0,.03,0h.03s.03.01.03.01h.03s.07.05.11.08l.11.08c.07.05.15.1.21.15l.02.02.02.02v.02s.02.02.02.02l.02.04v.04s.02.04.02.04v.04s.02.02.02.02v.02s.03.02.03.02l.02.02.02.02h.03s.03.02.03.02h.03s.07,0,.07,0h.07s.07,0,.07,0h.07s.03.01.03.01h.03s.02.02.02.02l.02.02-.72.69-.36.34-.36.34s-.02-.03-.03-.04l-.02-.04-.02-.04v-.02s-.03-.02-.03-.02l-.02-.02v-.02s-.02-.02-.02-.02v-.02s-.02-.07-.03-.1l-.02-.05v-.03s-.03-.03-.03-.03l-.02-.03-.03-.03-.03-.03-.04-.02s-.06-.04-.1-.06c-.04-.03-.08-.06-.12-.09-.04-.03-.09-.06-.12-.09l-.03-.02h-.01s0,0,0,0h0s0,0,0,0h0c.31-.21.3-.2.46-.32h0s0,0,0,0h0s-.03,0-.04,0h-.03s-.01,0-.01,0h-.01s-.02.01-.02.01h-.02s-.02.02-.02.02h-.01s-.02.05-.02.05c0,.02-.02.05-.03.07v.03s-.02.01-.02.01h-.01s0,.02,0,.02h0s0,.02,0,.02v.02s0,.02,0,.02v.04s.03.04.03.04l.02.04.02.04v.02s0,.02,0,.02v.02s0,.02,0,.02c0,.01,0,.02-.01.04v.05s-.02.08-.03.11l-.49-.11-.49-.11-.98-.22.02-.05.02-.05s.04-.07.07-.11l.08-.12.03-.06.03-.06Z"/>
      <path class="st0" d="M31.85,72.24c.4.57.39.55.6.86h0s0,0,0,0h0s0,0,0,0h.01s.02-.03.02-.03l.05-.04.09-.09.18-.17.36-.34.72-.69,1.45-1.38-.12-.13-.11-.14-.24-.32-.26-.37-.14-.21-.07-.11-.02-.03h0s0,0,0,0h0s0,0,0,0l.02.02.03.04.05.09.04.1-.81-1.87-1.86.85-.26.13-.13.08-.13.08-.12.09-.12.09-.06.05-.06.05-.11.11-.11.11-.1.12-.1.12-.09.12-.08.12-.08.12-.13.24-.11.23-.09.22-.07.2-.06.19-.08.33-.06.27,1.95.44.98.22.49.11.24.05.12.03h.06s.03.02.03.02h.02s0,0,0,0h0s0,0,0,0h0c-1.18.03-1.14.03-1.77.04Z"/>
    </g>
  </g>
  <g>
    <path d="M21.2,92.59c.17-.02.34-.1.47-.22.13-.11.21-.27.26-.44.05-.17.06-.34.05-.5-.01-.16-.02-.34-.1-.46-.07-.12-.2-.21-.34-.27l-.81,1.83c.14.06.31.09.47.07Z"/>
    <path d="M12.25,92.87c.31-.05.19-.37.51-.42.31-.04.53.24.84.21.31-.03.29-.16.6-.19.31-.02.32.29.66.27.33-.02.39-.28.72-.31.32-.02.18-.63.5-.65.32-.02.42.64.73.61.31-.02.38-.21.69-.23.31-.01.22.45.52.44.3,0,.3-.44.61-.44.31,0,.28.08.72.05.24-.02.41,0,.59.02.09,0,.19,0,.3-.03.06-.02.11-.04.17-.07.05-.03.02,0-.01.02-.03.02-.07.04-.11.06-.43.13-.4-.11-.3-.17.12-.09.25-.18.37-.14.26.09.35.61.37.61l.81-1.83s-.48,0-.85-.11c-.21-.06-.18-.12-.33-.22-.07-.05-.15-.1-.32-.13-.16-.03-.46-.01-.75.17-.18.13-.12.09-.12.1,0,0,.02.01.03.02.02.02.04.05.05.08.02.06.03.14-.06.15-.21.01-.22-.33-.56-.34-.34,0-.24.57-.57.58-.33,0-.44-.19-.77-.17-.33.02-.3-.14-.62-.11-.32.02-.34.27-.66.29-.32.02-.36-.4-.67-.38-.31.02-.28.46-.59.48-.31.02-.33-.13-.66-.11-.33.02-.35-.16-.68-.13-.33.04-.24.54-.56.58-.32.04-.41-.36-.73-.31-.32.05-.29.24-.61.29-.32.05-.45-.27-.69-.23l.33,1.97c.23-.04.16-.29.48-.35.31-.05.33.1.65.05Z"/>
    <path d="M8.96,99.79c-.05-.29-.37-.17-.42-.47-.04-.3.26-.51.24-.8-.01-.3-.15-.29-.15-.6,0-.3.31-.3.33-.59.02-.29-.23-.38-.19-.68.04-.29-.58-.3-.52-.61.06-.31.72-.2.8-.48.08-.28-.07-.4.02-.68.11-.28.5,0,.61-.26.12-.25-.28-.45-.14-.71.14-.26.19-.23.35-.48.16-.25.42-.03.45-.07,0,0-.17-.47.08-.52.32-.05.68.32.7.32l-.33-1.97s-.34.27-.72.34c-.44.12-.59-.11-1.08.25-.41.39-.18.61-.37.89-.18.29-.47.12-.64.44-.17.32.4.48.25.79-.14.31-.36.34-.48.66-.11.33-.24.24-.34.58-.09.34.14.44.07.77-.06.33-.48.28-.53.63-.04.35.4.39.37.72-.02.34-.16.33-.17.67,0,.34-.19.34-.17.69.02.35.53.28.56.61.04.33-.36.42-.31.77.06.34.25.31.33.64.08.33-.21.51-.13.77l1.9-.62c-.06-.2-.31-.1-.39-.38-.07-.29.08-.32.03-.6Z"/>
    <path d="M16.2,101.8c-.35.02-.25.36-.58.39-.33.03-.55-.25-.85-.22-.3.02-.29.16-.58.17-.3,0-.23-.31-.64-.32-.38,0-.45.27-.79.3-.34.03-.17.63-.49.67-.32.03-.43-.62-.72-.6-.29.02-.35.21-.63.2-.28,0-.15-.45-.41-.42-.15.02-.18.13-.25.25-.07.12-.15.25-.26.25-.21,0-.19-.09-.32-.25-.12-.18.12-.44.06-.57-.06-.12-.5.08-.61-.19-.06-.14,0-.31.06-.45.06-.14.15-.24.14-.24l-1.9.62s.34.37.48.69c.16.36-.05.49.18.92.25.42.44.22.7.54.29.27.16.59.61.69.45.04.48-.56.84-.61.34-.04.43.1.8.13.36,0,.32.15.67.13.35-.03.36-.27.68-.31.32-.03.37.39.66.36.28-.02.25-.46.54-.46.27,0,.31.16.66.15.35-.01.36.17.71.14.34-.03.25-.54.57-.57.32-.03.39.37.68.35.29-.02.28-.21.57-.21.26.01.39.36.56.37l.18-1.99c-.29-.02-.24.25-.59.23-.36,0-.36-.16-.72-.15Z"/>
    <path d="M18.38,102.45c-.02-.18-.16-.36-.32-.49-.16-.13-.36-.23-.55-.24h0s-.18,1.99-.18,1.99h0c.12.01.2-.01.28-.08.08-.07.18-.18.29-.29.11-.11.24-.24.33-.39.1-.15.16-.33.14-.5Z"/>
  </g>
  <g>
    <path d="M44.92,103.65c-.06.11-.13.24-.21.38-.07.14-.13.31-.15.49-.02.18.02.35.13.5.11.15.26.32.53.36.26.04.61-.04.88-.21l-1.05-1.7c-.06.03-.08.08-.12.18Z"/>
    <path d="M56.02,103.39c-.22-.17-.38.14-.63-.11-.32-.32-.38-.76-.86-.99-.47-.19-.51-.06-.96-.16-.39-.07-.34-.37-.73-.43-.39-.06-.53.18-.91.11-.39-.06-.37.56-.75.5-.38-.06-.34-.73-.73-.8-.39-.06-.49.1-.92.06-.44-.03-.25-.49-.78-.47-.54.06-.48.49-.94.66-.46.22-.51.23-.82.43-.32.23-.53-.03-.87.23-.35.27-.08.68-.39.98-.34.38-.69.07-.69.07l1.05,1.7s.18-.17.32-.37c.07-.09.16-.23.21-.31.04-.07.09-.14.15-.2.25-.23.41-.03.67-.24.28-.21.12-.44.44-.66.34-.24.46.07.63,0,.17-.06-.03-.6.28-.65.32-.02.42.18.76.21.35.04.31.2.68.26.38.06.46-.17.84-.11.38.06.32.48.7.55.38.06.44-.37.82-.31.38.06.36.2.72.27.3.07.25.25.49.35.21.11.47-.34.72-.13.22.2-.02.59.36.9.4.29.51.12.9.32.16.08.3.2.31.28.03.11.03.22.1.27l1.16-1.65c-.26-.16-.39-.06-.61-.07-.1,0-.16,0-.25-.05-.3-.14-.22-.27-.46-.43Z"/>
    <path d="M52.36,112.63c.39-.07.25-.39.63-.46.19-.03.37.01.51.06.11.06.21.13.39.13.37,0,.38-.11.87-.16.52-.09.6.18,1.09,0,.46-.23.42-.52.78-.78.35-.29-.16-.66.13-.93.28-.27.8.13,1.07-.16.31-.37.34-.56.48-1.04.04-.14.09-.21.15-.27.16-.12.41-.17.44-.49.03-.48-.41-.49-.42-.91-.03-.43.02-.43-.04-.85-.07-.41.24-.5.15-.91-.04-.19-.22-.36-.38-.45-.17-.1-.33-.18-.45-.39-.22-.42-.38-1.04-.43-1.07l-1.16,1.65s.36,0,.47.23c.05.11.01.19-.03.26-.04.07-.09.12-.05.31.08.35.35.29.41.65.05.35-.28.38-.26.7,0,.31.59.22.57.57-.02.21-.1.31-.17.38-.05.06-.1.12-.13.22-.13.23-.24.06-.43.29-.25.28-.1.47-.36.73-.26.24-.55-.07-.78.11-.23.16,0,.53-.29.67-.29.11-.35-.01-.58.02-.28.02-.28-.18-.69-.18-.45,0-.46.53-.81.59-.38.07-.49-.32-.87-.26-.37.06-.34.26-.71.31-.37.05-.5-.28-.76-.25l.17,1.99c.31-.03.25-.29.65-.34.4-.06.42.1.82.03Z"/>
    <path d="M43.46,105.38c-.05.11-.01.22,0,.36.03.13.04.24-.05.46-.17.44-.48.76-.32,1.3.09.26.18.4.23.44.06.06.11.13.13.24,0,.05-.01.08-.04.1-.03.03-.07-.02-.11.08-.09.14-.19.3-.14.64.14.68.51.72.79,1.11.31.36.66-.18.94.1.27.27-.14.81.21,1.1.35.27.55.18.92.4.38.2.03.55.46.74.43.17.58-.24.99-.12.41.11.4.16.82.23.42.06.4.39.83.42.43.03.51-.45.91-.45.41,0,.82.39.85.39l-.17-1.99s-.45.25-.8.24c-.35,0-.35-.25-.69-.28-.34-.03-.38.24-.73.19-.34-.07-.27-.39-.58-.47-.31-.09-.39.49-.73.36-.33-.14-.34-.36-.62-.53-.28-.18-.17-.28-.42-.48-.26-.21-.43-.05-.7-.32-.27-.27.02-.58-.12-.76-.09-.13-.48.08-.53-.15-.01-.11.03-.17.07-.22.05-.1.11-.33.06-.6-.11-.5.01-.63-.04-.8-.05-.18-.61-.15-.56-.46.04-.15.18-.19.31-.22.07-.01.13-.02.19-.04.02,0,.06-.03.07-.02.03-.04.06-.08.09-.14.21-.45.03-.52.14-.99.08-.47.41-.6.37-1.01l-1.99.22c.01.17.29.15.26.43-.05.28-.2.23-.3.48Z"/>
    <path d="M43.79,103.7c-.1.13-.16.28-.21.41-.05.13-.09.25-.08.36h0s1.99-.22,1.99-.22h0c-.03-.26-.12-.5-.26-.66-.14-.17-.33-.26-.51-.3-.17-.03-.36,0-.52.08-.16.08-.3.2-.41.33Z"/>
  </g>
  <g>
    <path d="M44.62,95.24c.11-.08.22-.21.32-.34.09-.13.16-.3.2-.47.04-.17.02-.35-.06-.51-.08-.16-.19-.34-.39-.44-.19-.09-.43-.11-.65-.09l.2,1.99c.15-.02.27-.06.38-.14Z"/>
    <path d="M34.2,95.51c.34-.11.16-.41.51-.51.42-.13.87.03,1.33-.45.05-.06.1-.13.12-.17,0,0,0-.02,0-.03,0-.02,0-.03-.02-.05-.01-.03-.03-.07.01-.08.15-.02.15.28.46.31.33.05.44-.2.78-.15.34.05.36-.58.72-.5.36.08.26.75.65.83.4.08.53-.08.93-.04.4.03.24.48.59.51.32.03.37-.41.67-.34.34.09.35.15.73.24.4.08.36.41.81.46.46.03.53-.45.95-.48.46-.06.75.32.78.33l-.2-1.99s-.58.3-.8.31c-.3.01-.29-.24-.58-.26-.3-.04-.35.23-.68.17-.36-.08-.21-.39-.63-.5-.49-.1-.43.5-.83.45-.39-.03-.5-.23-.82-.26-.33-.05-.26-.19-.6-.26-.34-.07-.44.15-.81.06-.37-.08-.31-.48-.72-.55-.41-.06-.46.38-.85.32-.41-.02-.4-.22-1.02-.08-.32.11-.5.19-.67.27-.08.04-.16.09-.25.16-.04.04-.07.08-.12.12,0,0-.01,0-.02.01-.05.05.23.49-.03.61-.25.09-.49-.28-.84-.17-.38.12-.31.31-.68.44-.36.14-.58-.14-.85-.02l.78,1.84c.24-.1.11-.33.45-.46.34-.13.38.02.72-.09Z"/>
    <path d="M23.56,100.77c.41-.22.15-.46.5-.71.16-.12.33-.18.49-.24.14-.02.25,0,.36-.06.23-.12.18-.25.5-.37.34-.13.46.17.87-.01.4-.19.29-.43.65-.58.33-.14,0-.66.34-.8.35-.14.65.46,1,.31.36-.15.37-.36.72-.53.35-.18.44.3.81.1.38-.22.12-.58.45-.77.32-.18.34-.14.66-.31.32-.17.49.1.81-.06.32-.16.15-.62.48-.77.33-.15.81.11.83.1l-.78-1.84s-.38.39-.73.56c-.35.17-.46-.06-.8.12-.35.18-.22.43-.55.61-.33.19-.49-.11-.83.09-.33.19.05.64-.25.82-.31.17-.5.04-.81.19-.32.15-.35-.01-.68.13-.34.14-.29.38-.63.52-.35.14-.52-.25-.88-.09-.35.15-.2.58-.49.71-.31.13-.36-.01-.71.12-.38.15-.46-.04-.9.2-.34.21-.22.51-.27.75,0,.06-.02.13-.08.18-.26.21-.51-.11-.76.03-.26.13-.19.31-.5.43-.3.1-.55-.18-.85-.06l.74,1.86c.23-.09.06-.3.45-.43.39-.14.45,0,.86-.18Z"/>
    <path d="M21.03,107.85c-.24-.22-.42.07-.66-.17-.23-.26-.12-.61-.31-.87-.19-.28-.3-.2-.47-.49-.16-.3.11-.44-.01-.72-.11-.28-.38-.27-.47-.58-.07-.31-.65-.09-.7-.45-.04-.37.63-.45.63-.75.01-.27-.17-.33-.11-.59.1-.17.37,0,.51,0,.05,0,.05.02.12-.06.22-.27-.14-.53.06-.71.09-.07.15-.08.19-.1.1-.03.21-.07.4-.18.33-.19.52.08.84-.11.31-.18.12-.63.44-.79.16-.08.36-.06.51,0,.15.05.27.12.27.12l-.74-1.86s-.43.4-.78.59c-.35.19-.47-.03-.8.16-.32.19-.19.43-.5.61-.17.09-.27.04-.42.02-.15,0-.32,0-.53.16-.43.39.1.69-.16.99-.07.08-.13.14-.22.21l-.31.22-.07.06c.04.05-.02.06-.03.1-.04.06-.08.13-.09.21-.07.24-.12.34-.17.45-.05.1-.1.24-.11.45,0,.44.24.48.28.89.06.41-.36.5-.25.94.13.43.54.28.69.66.17.37.04.44.24.8.21.36.05.46.29.8.25.34.63,0,.88.3.26.29,0,.61.3.9.32.28.44.13.77.38.33.24.24.57.53.74l.97-1.75c-.2-.12-.31.13-.59-.06-.27-.2-.17-.31-.42-.52Z"/>
    <path d="M31.09,107.78c-.23.18.02.42-.27.6-.3.18-.62-.01-.95.15-.34.17-.27.28-.64.47-.34.19-.51-.06-.73.04-.11.04-.11.11-.19.19-.09.08-.18.17-.34.2-.33.05-.15.64-.52.68-.37.03-.45-.64-.79-.63-.34,0-.44.18-.79.16-.36-.02-.2-.48-.54-.51-.35-.04-.41.4-.77.35-.36-.05-.36-.1-.72-.15-.33-.06-.28-.38-.58-.45-.3-.08-.49.36-.81.23-.16-.07-.26-.23-.32-.38-.06-.15-.07-.28-.08-.28l-.97,1.75s.59.08.97.23c.39.14.31.38.73.5.42.1.48-.17.89-.1.37.05.32.38.7.43.38.05.34-.54.71-.5.38.04.49.25.88.27.39.02.34.17.74.17.41,0,.44-.25.84-.28.39-.04.46.38.88.31.4-.08.35-.49.77-.67.4-.18.47-.08.77-.24.3-.15.39.01.73-.15.35-.17.09-.61.43-.79.34-.2.59.13.96-.13.29-.23.26-.37.4-.59.03-.05-.03.02-.1.06-.04.02-.11.05-.16.06h.05c.39-.1.57.2.87.11l-.58-1.92c-.24.07-.14.32-.47.4-.06.01-.12.02-.16.02-.3.04-.51.27-.52.26-.1.03-.18.04-.32.15Z"/>
    <path d="M42.22,102.94c-.31.14-.08.41-.4.56-.33.15-.6-.05-.95.09-.35.14-.3.27-.65.41-.35.14-.47-.14-.82,0-.35.14-.34.42-.68.56-.35.14,0,.66-.36.81-.35.14-.65-.45-1-.31-.35.14-.36.34-.71.5-.35.16-.42-.32-.77-.16-.35.16-.16.56-.5.72-.34.16-.36.11-.69.27-.33.15-.49-.13-.81.01-.32.14-.18.6-.52.73-.17.07-.37.02-.52-.04-.15-.07-.26-.14-.27-.14l.58,1.92s.44-.35.81-.5c.37-.14.46.09.82-.07.36-.16.24-.41.59-.57.34-.16.48.14.82-.02.33-.16-.02-.63.32-.79.33-.16.52-.03.85-.17.33-.14.36.02.7-.12.34-.14.29-.38.63-.52.34-.14.51.25.86.11.34-.14.17-.54.51-.68.34-.14.4,0,.74-.15.34-.14.41.04.75-.1.34-.14.14-.62.49-.78.35-.17.57.18.94,0,.36-.17.22-.35.49-.47.39-.05.8.22,1.12.13l-1.3-1.76c-.13,0,.02.22-.21.28-.39.15-.51.06-.85.24Z"/>
    <path d="M44.58,92.91c-.05.37.3.33.24.71-.05.37-.39.55-.43.95-.04.39.1.41.07.81-.01.41-.33.38-.36.75-.03.36.22.46.19.82-.03.36.59.3.56.67-.03.37-.7.35-.73.71-.03.36.15.47.11.84-.06.37-.49.17-.55.55-.05.38.38.45.33.83-.04.39-.09.38-.12.77-.02.41-.34.3-.34.49,0,.16.49.44.38.7-.06.12-.2.17-.37.1-.17-.07-.29-.19-.29-.19l1.3,1.76s.12-.06.26-.23c.14-.18.22-.46.33-.69.18-.46.41-.35.47-.89.02-.55-.27-.67-.25-.99.03-.35.36-.32.39-.66.04-.35-.54-.32-.49-.68.05-.37.27-.45.31-.82.03-.38.18-.32.21-.7.03-.38-.2-.45-.17-.83.03-.38.46-.35.49-.74.03-.39-.41-.4-.37-.78.03-.37.19-.4.2-.73.02-.35.21-.33.24-.68.04-.35-.47-.38-.42-.75.05-.37.46-.34.51-.72.05-.38-.14-.4-.09-.78.04-.38.39-.46.41-.74l-1.99-.17c-.02.28.25.26.21.62-.04.36-.19.33-.24.7Z"/>
    <path d="M55.69,90.02c-.4-.32-.56.02-.98-.17h0c-.22-.09-.38-.23-.51-.36-.12-.12-.24-.25-.42-.31-.37-.12-.41,0-.78-.11-.37-.11-.3-.41-.69-.5-.39-.09-.53.14-.93.07-.44-.07-.37.56-.76.53-.37-.01-.46-.68-.88-.64-.41.04-.49.24-.87.31-.38.08-.34-.41-.73-.32-.38.09-.28.51-.65.6-.37.1-.34.02-.82.15-.46.18-.67-.09-1.12.26-.41.41-.07.77-.27,1.18-.19.4-.64.85-.64.89l1.99.17s-.19-.3-.08-.52c.11-.2.32-.04.44-.15.14-.1,0-.35.23-.42.26-.07.37.25.72.17.36-.09.11-.62.47-.71.35-.08.51.09.85.03.34-.05.32.1.65.07.32-.02.35-.27.68-.26.34.02.27.45.57.5.34.07.42-.36.77-.28.35.09.31.23.65.33.34.1.29.28.62.4.32.11.51-.36.78-.26.08.03.12.08.14.14.05.15-.03.34.1.4.16.12.36.01.41.25.01.26-.34.4-.33.53l2-.17c0-.42-.26-.32-.3-.81-.1-.46.04-.57-.31-.96Z"/>
    <path d="M57.76,102.16c-.09-.32-.4-.19-.49-.53-.06-.37.21-.64.16-1-.05-.36-.19-.34-.24-.71-.04-.36.26-.4.23-.75-.03-.35-.29-.41-.31-.76,0-.35-.62-.24-.61-.61,0-.18.18-.28.35-.37.09-.04.18-.09.24-.14.03-.03.06-.04.08-.1.03-.17,0-.41-.09-.62-.07-.14-.06-.11-.07-.12l-.02-.02s-.03-.02-.04-.03c-.03-.02-.06-.03-.1-.06-.07-.04-.14-.11-.16-.26-.06-.33.43-.25.37-.66-.03-.22-.18-.35-.32-.44-.13-.06-.26-.12-.31-.3-.09-.35-.04-.37-.12-.71-.08-.35.24-.44.17-.77-.06-.34-.54-.31-.58-.67-.04-.37.38-.66.38-.77l-2,.17c0-.07.23.49.28.86.05.39-.2.43-.13.83.08.4.35.34.43.72.09.38-.23.45-.13.83.1.38.64.11.7.42.06.33-.15.47-.05.93.06.23.07.36.09.49,0,.06.02.13.05.21.01.04.03.09.06.14.01.02.12.19-.02,0-.09-.11-.07-.36-.05-.33,0,.04,0,.08.02.12.02.07.04.13.07.19.05.12.1.23.1.43-.01.39-.43.41-.42.82.02.41.46.37.49.75.04.38-.11.4-.06.78.05.38-.14.41-.08.78.06.37.55.26.61.63.05.36-.31.48-.22.88.08.32.23.38.33.55.02.02.03.06.04.1.05.26-.32.3-.34.43l1.96.4c.07-.42-.17-.39-.2-.89-.02-.18-.04-.3-.04-.39,0-.19.05-.24,0-.46Z"/>
    <path d="M57.29,104.67c.12.09.33-.11.44-.28h.01c.11-.14.22-.26.26-.49h0s-1.96-.41-1.96-.41h0c-.02.12-.04.33,0,.48h0c.07.12.17.18.26.43.1.22.3.29.48.26.18-.03.36-.06.5,0Z"/>
  </g>
  <g>
    <path d="M68.25,93.49c-.14-.02-.3-.02-.47.01-.16.03-.32.1-.47.2-.15.1-.26.24-.32.4-.06.17-.11.37-.05.56.06.19.2.37.36.51l1.32-1.5c-.11-.1-.23-.16-.37-.19Z"/>
    <path d="M77.29,99.26s-.02-.02-.03-.02c-.24-.14-.4.1-.66-.11-.29-.23-.27-.61-.58-.84-.31-.23-.39-.12-.71-.33-.32-.21-.16-.48-.5-.68-.34-.2-.55-.02-.9-.19-.36-.17-.51.44-.84.29-.33-.15-.1-.78-.42-.93-.31-.15-.47-.03-.79-.19-.31-.17.02-.51-.28-.68-.3-.17-.53.2-.83.02-.3-.19-.27-.23-.57-.43-.29-.2-.13-.48-.41-.68-.28-.2-.61.16-.89-.06-.14-.11-.21-.3-.24-.46-.03-.16-.01-.29-.02-.3l-1.32,1.5s.54.18.84.4c.3.23.15.43.46.65.31.22.47,0,.79.2.32.21.13.48.46.68.33.2.52-.36.84-.17.32.18.33.42.67.59.33.17.23.29.57.45.34.16.48-.04.83.11.34.15.15.53.44.68.29.15.49-.24.79-.06.3.18.22.3.51.49.29.2.18.35.46.55.28.21.56-.22.84,0,.28.22.05.56.33.79.02.02.04.03.05.04.36.25.5.12.88.28.38.14.36.48.55.55l.76-1.85c-.32-.12-.37.14-.7.03-.29-.11-.18-.23-.36-.35Z"/>
    <path d="M82.1,108.51c.21-.34-.12-.44.07-.77.19-.33.57-.4.73-.78.15-.38.03-.43.15-.82.11-.39.41-.33.49-.76.07-.43-.19-.56-.18-.98,0-.42-.61-.27-.65-.64-.02-.19.12-.32.27-.46.07-.07.14-.14.19-.23.02-.04.04-.08.05-.13.03-.01-.07-.34-.18-.44-.08-.1-.06-.06-.08-.09-.24-.24-.44-.25-.73-.5-.36-.26.02-.57-.42-.81-.33-.16-.53.23-.86.07-.33-.16-.31-.21-.64-.37-.33-.16-.21-.46-.54-.62-.33-.16-.58.25-.91.1-.33-.16-.45-.7-.52-.72l-.76,1.85s.48,0,.8.15c.33.16.22.38.54.54.33.16.45-.09.77.07.33.16.18.45.5.61.32.16.48-.41.81-.25.31.15.25.35.46.53.17.16.09.24.17.39.01.02.03.04.05.07.02.03.06.07,0,0-.17-.35-.04-.11-.03-.11.03.05.07.08.11.12.07.08.15.15.17.31.03.32-.4.35-.4.63-.02.28.42.32.37.65-.06.32-.2.29-.29.59-.1.31-.28.24-.4.53-.13.29.34.48.18.79-.17.31-.54.14-.71.41-.18.28-.02.39-.22.66-.2.27-.52.12-.68.3l1.5,1.32c.2-.23-.02-.37.22-.68.24-.32.36-.23.58-.56Z"/>
    <path d="M70.67,111.61c.38.2.43-.15.79.02.35.16.45.53.83.67.39.12.42,0,.81.09.39.09.35.39.77.45.42.05.54-.21.95-.2.41,0,.26-.62.63-.64.36-.04.53.6.94.52.4-.1.44-.31.81-.43.37-.13.4.35.78.19.38-.17.2-.56.55-.74.35-.18.37-.14.71-.35.33-.22.54.03.87-.22.32-.26.05-.66.34-.93.28-.26.84-.25.86-.28l-1.5-1.32s-.13.45-.37.68c-.24.22-.41.03-.65.23-.25.19-.09.42-.37.6-.28.17-.44-.11-.72.03-.28.15.05.62-.26.76-.32.13-.49-.01-.81.1-.31.1-.32-.06-.62.02-.31.06-.3.31-.63.35-.33.03-.36-.4-.66-.4-.3-.01-.32.43-.66.39-.33-.05-.3-.19-.62-.26-.32-.08-.26-.26-.57-.36-.3-.11-.46.38-.78.24-.32-.14-.17-.52-.47-.68-.23-.13-.32.04-.54-.14-.21-.21.04-.45-.03-.56l-1.77.96c.22.33.43.18.73.51.33.32.24.44.67.71Z"/>
    <path d="M74.16,100.77c-.35.15-.14.43-.48.59-.34.16-.7,0-1.07.24-.35.24-.28.37-.59.62-.29.27-.52.06-.8.36-.28.31-.14.55-.38.86-.24.32.33.58.12.88-.2.31-.8,0-1,.33-.19.33-.08.5-.26.83-.18.34-.51-.05-.72.39-.21.53.2.65.15,1.12,0,.49,0,.52.03.86.04.34-.28.39-.27.66,0,.11.08.14.15.26.1.19.26.33.23.59.06.42-.01.99,0,1.04l1.77-.96s-.08-.03-.18-.09c-.08-.06-.24-.15-.17-.27.02-.1.09-.16.15-.2.07-.06.16-.22.15-.46-.02-.46-.3-.43-.35-.81-.05-.39.27-.38.28-.54.02-.15-.56-.22-.46-.48.11-.26.37-.29.53-.59.17-.31.29-.2.46-.5.18-.3,0-.46.19-.75.2-.29.55-.04.74-.3.2-.25-.14-.53.09-.78.23-.24.33-.14.57-.36.25-.22.35-.05.59-.22.25-.16-.03-.58.28-.74.31-.15.51.21.83.07.33-.14.26-.32.6-.47.35-.16.56.11.84-.02l-.9-1.79c-.21.1-.09.34-.4.48-.32.14-.38,0-.72.14Z"/>
    <path d="M76.06,100.21c-.15-.06-.28-.09-.4-.11-.12-.02-.24-.02-.38.04h0s.9,1.79.9,1.79h0c.18-.09.38-.24.49-.43.12-.19.16-.42.12-.6-.03-.18-.14-.33-.28-.45-.14-.11-.31-.19-.45-.25Z"/>
  </g>
  <g>
    <path d="M56.75,96.12c-.15.11-.26.28-.3.45-.04.16-.02.34.04.51.05.17.15.32.25.44.1.13.2.27.31.34.11.07.23.08.36.07l-.13-2c-.19.01-.38.07-.52.19Z"/>
    <path d="M65.61,93.36c-.28.13-.07.41-.36.54-.29.13-.58-.08-.86.03-.28.11-.24.24-.53.34-.29.1-.39-.19-.67-.11-.28.08-.26.33-.65.45-.37.13-.04.66-.34.8-.29.15-.68-.4-1.02-.16-.18.14-.15.18-.2.27-.03.08-.08.16-.19.22-.24.11-.33-.35-.55-.27-.23.07-.13.5-.42.57-.3.07-.31,0-.63.07-.27.05-.31-.28-.57-.26-.27.01-.32.49-.64.49-.32,0-.68-.41-.71-.41l.13,2s.35-.22.68-.22c.33,0,.33.25.7.23.38-.03.38-.31.73-.37.32-.06.38.27.72.19.36-.09.11-.61.44-.71.34-.12.53.03.88-.16.17-.1.27-.12.36-.14.09-.02.22-.07.3-.13.2-.14.1-.36.34-.49.25-.11.41.28.62.22.1-.03.17-.16.23-.28.06-.13.11-.25.27-.3.33-.1.37.04.69-.07.32-.12.39.06.71-.06.32-.13.09-.59.39-.72.3-.13.5.23.8.08.31-.15.22-.32.52-.48.3-.16.55.08.78-.07l-1.07-1.69c-.18.11-.02.32-.28.47-.27.14-.33,0-.61.14Z"/>
    <path d="M74.28,88.03c-.22.1-.04.4-.28.47-.29.06-.24-.25-.78-.31-.44-.02-.43.13-.79.36-.05.03-.1.05-.14.07-.25.1-.49,0-.7.14-.27.19-.18.45-.44.64-.26.19.18.63-.08.82-.26.19-.69-.32-.96-.12-.26.2-.21.39-.47.59-.26.2-.45-.24-.71-.03-.26.21,0,.55-.25.76-.25.21-.29.17-.54.38-.25.21-.48-.02-.73.2-.26.23.06.6-.18.79-.12.09-.3.09-.44.06-.15-.03-.26-.08-.27-.08l1.07,1.69s.28-.43.56-.65c.28-.23.45-.06.68-.26.24-.2.06-.42.3-.62.24-.2.45.06.69-.14.24-.2-.19-.59.06-.78.25-.2.45-.1.7-.29.25-.19.32-.05.57-.24.26-.19.14-.41.4-.6.26-.19.52.15.77-.03.26-.19,0-.54.26-.72.23-.16.27-.07.39-.12.02,0,.05-.02.07-.04.16-.12.23.07.38.1.13.02.21-.47.58-.52.38-.07.55.29.93.13.36-.17.23-.34.53-.49.29-.16.52.1.73-.02l-.97-1.75c-.21.11-.06.33-.34.48-.27.15-.37.03-.61.15Z"/>
    <path d="M81.88,90.17c.34-.38,0-.5.21-.89.16-.39.51-.68.42-1.22-.15-.52-.26-.38-.41-.73-.17-.35.07-.56-.18-.97-.27-.41-.5-.3-.77-.62-.3-.29-.45.36-.72.15-.15-.08-.22-.22-.29-.38-.08-.15-.16-.32-.37-.25-.41.11-.49.38-.87.55-.36.18-.45-.3-.82-.11-.29.15-.1.54-.38.7-.29.16-.31.11-.6.26-.29.16-.46-.12-.74.04-.28.16-.09.6-.37.76-.28.16-.75-.07-.77-.06l.97,1.75s.27-.39.55-.54c.28-.16.4.06.68-.09.28-.16.15-.4.43-.55.28-.15.43.14.71,0,.28-.15-.08-.61.21-.76.29-.15.37.03.57-.07.19-.09.18.08.34,0,.15-.06.25-.41.46-.33.18.15-.06.63.03.74.08.12.38-.24.5-.04.12.21-.03.25.08.48.11.24-.04.4-.02.47,0,.08.53.08.49.3-.08.22-.45.04-.53.13-.08.1-.02.27-.27.43-.26.17-.51-.07-.7.05l1.11,1.66c.22-.14.04-.34.33-.53.14-.1.24-.11.33-.13.1-.02.18-.01.38-.2Z"/>
    <path d="M92.58,94.49c-.15-.44-.43-.23-.6-.64-.09-.22-.08-.37-.11-.61-.03-.24-.08-.49-.24-.75-.35-.46-.44-.38-.94-.61-.53-.14-.47-.41-1.12-.4-.18,0-.22.02-.29.04-.06.02-.12.05-.17.08-.11.06-.22.12-.37.09-.12-.02-.28.09-.38.23-.11.13-.21.27-.42.23-.41-.07-.41-.73-.86-.77-.44-.03-.55.15-.98.14-.42-.02-.25-.47-.65-.49-.39-.02-.43.41-.82.37-.37-.05-.44-.12-.88-.14-.45-.02-.47-.34-.89-.34-.4,0-.46.48-.85.45-.39-.04-.72-.52-.74-.52l-.27,1.98s.57-.12,1.04-.09c.46.02.45.27.89.27.41,0,.42-.28.8-.26.41.03.25.35.74.41.46.05.37-.54.8-.51.43.02.55.22.97.24.41.02.36.17.75.19.38.03.46-.2.84-.14.4.07.19.5.8.6.28.03.4-.08.53-.18.1-.11.28-.22.4-.22.29,0,.26.11.5.17.24.11.11.3.22.48.1.19.51-.14.68.22.16.37-.2.55-.08.91.11.35.3.3.39.67.08.38-.24.52-.21.78l1.99-.21c-.04-.36-.29-.28-.38-.73-.1-.45.05-.48-.09-.93Z"/>
    <path d="M85.08,103.26c.39,0,.3-.35.7-.34.4.02.6.34.98.39.39.05.41-.07.83,0,.43.06.39.37.86.42.5.03.56-.21,1.15-.25.58-.08.23-.63.65-.77.37-.2.88.25,1.21-.25.03-.06.06-.11.08-.15.19-.45.09-.58.25-.95.16-.41.54-.09.7-.53.14-.44-.27-.57-.15-1,.11-.43.16-.42.25-.85.08-.43.41-.41.47-.86.05-.45-.42-.56-.4-1.01.01-.44.39-.91.39-.95l-1.99.21s.25.45.23.82c-.02.37-.27.34-.32.73-.05.38.22.43.15.81-.08.39-.4.3-.5.67-.1.36.48.42.36.8-.13.38-.36.42-.51.78-.07.15-.13.22-.19.27-.05.03-.1.05-.15.11-.01.01-.03.04-.04.07-.11.19.03.42-.23.56-.28.1-.42-.34-.6-.32-.24,0-.31.44-.68.41-.39-.04-.37-.19-.77-.25-.41-.06-.38-.26-.82-.32-.45-.05-.46.46-.89.43-.43-.02-.47-.43-.92-.42-.45.01-.44.21-.88.24-.36.04-.48-.16-.77-.21-.08-.01-.17-.01-.26.01l.52,1.94s.06-.03.08-.05c.06-.08.14-.25.42-.28.39-.04.4.12.79.1Z"/>
    <path d="M82.81,103.39c.17.1.43.1.61.1.21-.01.26.03.37,0h0s-.52-1.94-.52-1.94h0c-.28.07-.59.28-.67.41-.1.15-.12.31-.13.48,0,.16-.01.34.02.52.04.17.14.34.31.44Z"/>
    <g>
      <path d="M80.59,92.64h-.06s-.06-.02-.06-.02h-.12s-.12-.02-.12-.02h-.05s-.03-.02-.03-.02h-.03s-.02-.02-.02-.02l-.02-.02-.02-.02-.02-.02-.03-.05-.03-.06-.03-.06-.03-.05-.02-.02-.02-.02-.02-.02-.02-.02h-.02s-.03-.02-.03-.02h-.03s-.03,0-.03,0h-.06s-.06,0-.06,0h-.06s-.06,0-.06,0h-.03s-.03-.01-.03-.01h-.03s-.02-.03-.02-.03l-.04-.04-.03-.04-.06-.08-.06-.08-.03-.04-.04-.04-.02-.02-.02-.03v-.03s-.03-.03-.03-.03l-.02-.07v-.08c-.01-.05-.02-.11-.02-.16v-.07s-.02-.03-.02-.03v-.03s-.02-.03-.02-.03l-.02-.03-.04-.05-.09-.1-.04-.05-.02-.03-.02-.03v-.03s-.02-.04-.02-.04v-.04s0-.04,0-.04l.02-.09v-.05s.03-.05.03-.05l.04-.1.05-.1.06-.1.06-.09.06-.08.06-.07.03-.03.03-.03.03-.02.03-.02.06-.02h.03s.03-.01.03-.01h.04s.04-.01.04-.01h.02s.02-.02.02-.02h.02s.02-.03.02-.03l.02-.02.02-.02v-.03s.02-.03.02-.03l.02-.07v-.07s.03-.07.03-.07l.02-.07v-.03s.03-.03.03-.03l.02-.02.02-.02.56.83.28.42.28.42h-.02s-.02.03-.02.03h-.04s-.04.03-.04.03h-.02s-.02.02-.02.02h-.02s-.02.02-.02.02h-.02s-.02,0-.02,0c-.03,0-.06,0-.1,0h-.05s-.03.02-.03.02h-.03s-.03.03-.03.03l-.03.02-.03.03-.03.03s-.04.05-.07.09l-.02.03v.02s-.01.03-.01.03v.03s0,0,0,0h0s0,.02,0,.02h0s0,.02,0,.02h0s0,0,0,0h0s0,0,0,0c.07-.56.07-.54.11-.84h0s0,0,0,0h0s.01.03.01.03v.02s.04.03.04.03l.03.03.03.02.03.02h.03s.03.03.03.03l.06.02s.07.01.1.02h.04s.02.02.02.02h.02s.02.02.02.02h.02s.02,0,.02,0h.02s.04-.02.04-.02l.04-.02.04-.02.04-.02h.02s.02-.01.02-.01h.02s.02,0,.02,0c.01,0,.02,0,.04,0h.05s.08.01.11.01l-.07.5-.07.5-.14.99h-.02s-.02-.01-.02-.01l-.05-.02s-.07-.04-.1-.06l-.11-.06-.05-.03-.05-.02Z"/>
      <path class="st0" d="M81.13,89.55c.18,1.54.17,1.49.27,2.31h0s0,0,0,0h0s0,0,0,0h0s-.02-.04-.02-.04l-.03-.05-.07-.1-.14-.21-.28-.42-.56-.83-1.11-1.66-.34.22-.27.17-.12.08-.12.09-.13.1-.13.12-.12.13-.12.14-.11.15-.1.16-.09.17-.08.17-.07.17-.06.17-.04.17-.03.16-.02.15-.02.15v.14s-.01.13-.01.13v.24s.09,1.98.09,1.98l1.98-.07h.16s.17,0,.17,0l.38.03.91.12.27-1.98.14-.99.07-.5.03-.25.02-.12v-.06s.01-.03.01-.03v-.02s0,0,0,0h0s0,0,0,0h0c-.19-.21-.18-.2-.29-.31Z"/>
    </g>
  </g>
  <g>
    <path d="M24,99.82c-.07,0-.16.01-.24.04-.08.03-.15.07-.22.14-.07.06-.1.14-.12.23-.02.09-.02.19.03.29.05.09.15.18.26.24l.48-.88c-.06-.03-.12-.05-.19-.05Z"/>
    <path d="M29.45,101.19c-.17-.11-.23.06-.4-.04-.17-.1-.2-.29-.38-.38-.18-.09-.21-.03-.39-.12-.18-.08-.13-.23-.34-.31-.21-.07-.29.03-.5-.02-.2-.05-.21.26-.4.22-.19-.04-.17-.37-.38-.39-.2-.02-.26.07-.46.05-.2,0-.12-.24-.32-.24-.2,0-.21.21-.4.22-.2,0-.2-.02-.39-.02-.2,0-.21-.15-.36-.16-.14-.01-.2.22-.36.19-.17-.04-.19-.31-.19-.31l-.48.88s.34.06.56.1c.23.05.21.17.45.19.24,0,.23-.14.42-.14.19,0,.19.16.38.16.18,0,.13-.29.32-.29.19,0,.24.11.43.12.18.01.16.09.33.11.18.02.22-.1.39-.06.18.04.14.24.3.29.16.05.23-.16.39-.1.17.07.13.13.3.21.17.08.13.16.29.25.16.08.27-.15.43-.05.17.09.07.28.23.37.15.1.21.02.36.12.15.11.08.27.19.35l.62-.78c-.12-.1-.19.02-.35-.1-.16-.12-.12-.18-.29-.29Z"/>
    <path d="M32.19,106.79c-.03-.18-.19-.11-.22-.3-.03-.19.11-.31.1-.49-.02-.18-.08-.18-.09-.36,0-.19.15-.19.15-.37,0-.2-.12-.25-.14-.47-.02-.23-.32-.12-.36-.31-.06-.19.24-.32.17-.52-.08-.19-.18-.2-.28-.38-.1-.18.15-.23.04-.41-.11-.18-.29-.07-.41-.24-.12-.17-.1-.18-.23-.35-.13-.16-.02-.27-.16-.43-.15-.15-.34,0-.49-.14-.15-.14-.16-.42-.17-.43l-.62.78s.25.06.38.19c.13.12.04.21.16.34.11.13.23.03.34.18.11.14-.02.24.08.38.1.14.31-.06.4.1.1.15.03.26.11.41.07.16,0,.17.06.34.06.16.19.16.23.3.03.16-.18.18-.17.33,0,.16.22.16.22.35,0,.2-.07.2-.07.4,0,.2-.08.21-.07.41.02.2.27.16.3.35.03.2-.17.25-.13.45.04.2.13.18.18.37.05.19-.1.28-.06.43l.96-.27c-.04-.13-.16-.08-.21-.26-.04-.18.03-.2,0-.37Z"/>
    <path d="M32.3,107.91c.06-.07.09-.15.1-.23.02-.08.03-.17,0-.25h0s-.96.27-.96.27h0c.03.09.07.18.14.25.07.06.15.11.24.13.08.02.18.01.26-.01.09-.03.16-.08.22-.14Z"/>
  </g>
  <g>
    <path d="M69.31,110.28c.22-.11.32-.25.4-.41.07-.15.07-.33.03-.51-.04-.18-.13-.33-.23-.47-.1-.14-.25-.29-.35-.37-.09-.07-.19-.1-.28-.12l-.36,1.98c.28.05.57,0,.78-.1Z"/>
    <path d="M58.88,104.07c.33.24.46-.08.78.15.33.23.35.61.68.83.33.22.41.1.74.31.33.21.17.47.5.68.33.21.54.04.87.25.33.21.56-.37.89-.16.33.21.02.8.34,1.01.33.21.51.1.83.31.33.21-.04.52.28.73.32.21.57-.15.89.06.32.21.29.26.6.48.31.22.14.5.44.72.26.19.53-.05.82.05.05.02.11.05.17.09.38.28.78.78.84.79l.36-1.98s-.32.16-.52-.01c0,0-.01-.01-.01-.01-.25-.21-.14-.42-.45-.65-.33-.24-.49-.01-.81-.24-.32-.23-.13-.5-.46-.72-.33-.22-.55.32-.87.11-.33-.21-.32-.45-.65-.66-.33-.21-.21-.31-.53-.52-.33-.21-.5-.03-.82-.24-.33-.21-.1-.57-.42-.78-.32-.21-.56.16-.89-.05-.33-.21-.25-.33-.58-.54-.33-.21-.22-.37-.54-.58-.32-.21-.57.24-.89.02-.31-.22-.11-.57-.41-.79-.32-.23-.37-.04-.76-.33-.43-.26-.59-.7-1.24-.65l.28,1.98s-.05-.29.11-.21c.17.11.14.3.45.53Z"/>
    <path d="M57.39,103.47c.09.13.21.24.47.27.06,0,.14,0,.22,0,.04,0,.08-.01.13-.02.06-.02.09-.02.08-.01.03.02.03.04.02.04h0l-.28-1.98h0c-.2.03-.38.1-.52.18-.04.04.03.05-.02.1-.05.1-.21.26-.3.43-.09.17-.1.36-.04.53.06.17.15.33.23.46Z"/>
  </g>
  <g>
    <path d="M38.25,32.4c-.04-.17-.13-.34-.25-.47-.12-.13-.28-.21-.45-.26-.17-.05-.35-.04-.51.01-.17.05-.35.11-.48.25-.12.13-.21.32-.25.52l1.94.49c.05-.18.05-.37.01-.54Z"/>
    <path d="M38.13,43.78c-.06-.4-.38-.26-.45-.65-.06-.39.2-.67.15-1.05-.06-.38-.19-.36-.24-.75-.04-.38.26-.42.23-.79-.03-.37-.29-.44-.3-.81,0-.37-.61-.27-.62-.66,0-.4.66-.45.66-.85,0-.4-.19-.49-.19-.89,0-.4.46-.26.46-.66,0-.39-.44-.37-.43-.75.02-.37.08-.37.11-.74.04-.37.37-.35.43-.71.06-.36-.4-.51-.32-.89.08-.38.59-.62.6-.64l-1.94-.49s.07.56-.01.96c-.08.4-.33.35-.4.77-.07.42.21.46.16.87-.04.42-.37.38-.4.82-.01.43.57.32.57.72,0,.39-.2.52-.19.91,0,.39-.15.35-.15.74,0,.39.24.44.25.83,0,.39-.43.39-.42.83.01.43.45.4.48.81.03.41-.11.42-.06.83.05.4-.13.43-.08.83.06.4.56.28.62.67.06.39-.33.49-.27.88.06.38.25.35.3.74.05.39-.27.52-.23.81l1.99-.23c-.04-.3-.3-.23-.35-.63-.06-.4.1-.42.04-.82Z"/>
    <path d="M37.75,56.68c.42-.41.05-.52.35-.86.27-.33.68-.36.91-.77.22-.41.1-.47.27-.89.15-.43.44-.36.55-.83.08-.48-.17-.62-.16-1.08-.02-.47-.62-.28-.67-.69-.07-.39.57-.61.43-1.06-.15-.44-.38-.45-.5-.79-.13-.35.35-.38.24-.71-.1-.34-.52-.23-.61-.59-.08-.36-.02-.37-.08-.73-.05-.37.3-.38.24-.79-.06-.4-.54-.42-.6-.81-.05-.4.32-.81.32-.84l-1.99.23s.28.47.33.86c.05.38-.19.4-.14.79.06.38.31.4.37.81.06.42-.26.47-.17.91.1.43.63.16.74.55.12.39-.02.58.13.98.16.4,0,.38.11.7.09.31.34.29.4.63.04.34-.39.38-.39.68-.02.3.42.34.36.68-.07.34-.21.3-.32.61-.13.31-.3.23-.45.51-.16.27.28.53.06.83-.22.28-.58.07-.77.26-.16.14-.05.34-.3.44-.27.07-.37-.29-.51-.29l-.08,2c.45,0,.37-.23.9-.33.51-.16.58-.03,1.02-.39Z"/>
    <path d="M29.04,48.98c-.02.35.32.28.32.6.01.31-.27.55-.19.88.08.33.21.29.32.59.11.29-.16.44-.03.72.11.23.37.18.48.42.11.25.64-.07.74.19.11.26-.5.55-.38.81.11.26.31.25.43.52.13.27-.34.37-.19.65.15.28.53.07.69.33.17.26.12.29.31.54.2.25-.04.47.2.72.25.25.61-.09.84.11.24.19.28.71.3.72l1.01-1.73s-.35.03-.53-.12c-.18-.15,0-.33-.16-.48-.15-.16-.36.02-.51-.17-.14-.19.13-.38,0-.57-.12-.2-.58.15-.7-.07-.12-.23.02-.39-.09-.63-.11-.24.04-.27-.06-.52-.11-.25-.34-.19-.45-.44-.11-.26.28-.43.17-.7-.12-.27-.51-.08-.64-.35-.11-.23.03-.28-.06-.5-.08-.22.11-.27.06-.48-.04-.2-.54-.1-.57-.35-.02-.25.39-.27.4-.48.02-.23-.16-.29-.15-.58.01-.31.35-.4.32-.69l-1.99.2c0,.14.28.1.27.34-.01.25-.17.22-.19.49Z"/>
    <path d="M24.85,56.09c.11-.3-.24-.35-.13-.66.11-.31.47-.37.58-.67.12-.3,0-.35.11-.65.12-.3.41-.19.53-.48.13-.29-.08-.47.05-.76.14-.29-.46-.46-.32-.76.14-.3.76-.04.9-.32.15-.28.02-.44.17-.72.15-.27.5.06.65-.19.16-.25-.2-.49-.02-.75.18-.26.23-.22.42-.48.19-.26.46-.07.66-.33.2-.26-.15-.59.05-.86.2-.27.73-.29.75-.31l-1.65-1.13s-.05.44-.25.7c-.19.26-.39.1-.59.36-.2.26.02.43-.18.7-.2.27-.47.07-.67.36-.2.29.33.52.15.81-.18.29-.42.3-.57.59-.16.3-.27.19-.43.49-.15.3.05.44-.1.75-.14.3-.53.13-.67.44-.14.31.26.48.13.79-.13.31-.27.25-.39.56-.13.31-.3.24-.42.55-.12.31.37.46.25.77-.11.31-.51.2-.62.52-.11.32.07.38-.03.69-.1.31-.45.29-.52.51l1.89.64c.08-.25-.18-.3-.08-.6.1-.31.25-.26.35-.56Z"/>
    <path d="M22.27,66.06c.02-.3-.33-.26-.3-.56.04-.3.38-.45.43-.76.05-.31-.08-.34-.02-.65.06-.32.36-.26.43-.58.07-.31-.17-.45-.1-.76.07-.32-.55-.35-.47-.68.07-.32.73-.22.81-.54.07-.32-.09-.44-.02-.76.07-.3.49-.08.57-.37.08-.29-.33-.42-.24-.72.1-.3.15-.28.26-.59.11-.3.42-.21.53-.51.11-.31-.32-.52-.21-.83.11-.31.62-.47.63-.49l-1.89-.64s.06.45-.05.76c-.11.3-.35.22-.46.53-.11.31.14.41.03.72-.11.32-.42.2-.53.54-.1.33.47.4.38.73-.09.32-.31.4-.38.72-.07.32-.21.25-.28.56-.07.32.15.41.08.73-.07.32-.49.23-.56.56-.07.33.36.41.29.74-.07.33-.21.3-.27.63-.06.33-.25.3-.31.63-.06.34.45.38.4.71-.04.34-.45.34-.48.7-.02.35.18.36.17.69,0,.33-.34.4-.35.64l2,.05c0-.26-.26-.23-.25-.56,0-.32.16-.32.17-.63Z"/>
    <path d="M22.97,76.24c-.09-.31-.4-.15-.48-.46-.09-.31.17-.57.1-.87-.07-.31-.2-.28-.27-.59-.06-.31.24-.38.18-.69-.05-.31-.32-.34-.37-.66-.04-.32-.64-.14-.68-.46-.04-.33.62-.45.58-.76-.03-.32-.22-.38-.25-.7-.03-.32.45-.24.42-.56-.02-.28-.45-.26-.45-.57.01-.3.07-.29.1-.6.04-.31.36-.28.41-.58.05-.32-.41-.49-.38-.82.03-.35.46-.65.46-.67l-2-.05s.2.41.17.7c-.03.31-.27.21-.33.56-.05.35.22.39.18.73-.03.35-.37.32-.38.7,0,.38.57.26.59.62.02.33-.17.45-.14.78.03.33-.13.31-.09.64.04.34.28.35.32.68.04.33-.38.4-.33.73.05.34.48.26.54.59.06.33-.08.36-.02.69.07.33-.12.37-.04.71.08.33.57.18.65.5.09.32-.29.47-.2.79.09.32.28.26.37.58.09.32-.2.49-.13.73l1.91-.59c-.07-.23-.31-.12-.41-.44-.09-.31.06-.35-.04-.67Z"/>
    <path d="M27.19,85.56c-.18-.26-.42-.01-.6-.28-.18-.27-.02-.6-.19-.86-.17-.27-.28-.2-.45-.48-.16-.28.1-.44-.06-.71-.15-.28-.42-.22-.57-.5-.15-.28-.65.09-.79-.21-.15-.29.43-.63.3-.91-.13-.29-.33-.28-.46-.57-.12-.3.34-.37.23-.66-.12-.29-.53-.14-.64-.44-.11-.3-.06-.32-.17-.62-.11-.3.19-.43.09-.73-.1-.3-.57-.19-.67-.5-.1-.31.22-.73.22-.74l-1.91.59s.32.35.43.67c.1.32-.13.39-.03.71.11.32.37.23.48.54.11.31-.2.42-.08.74.12.32.62.01.74.32.12.31-.02.48.12.79.14.31-.02.33.12.64.15.31.38.24.53.54.15.3-.22.5-.06.8.16.3.54.08.7.37.17.29.04.36.21.65.17.29.01.39.19.68.18.29.59-.01.77.26.18.28-.14.53.06.81.19.28.35.17.55.44.18.25-.09.47-.04.57l1.83-.81c-.16-.33-.37-.17-.59-.49-.2-.27-.06-.35-.25-.61Z"/>
    <path d="M20.5,87.1c.19.13.33-.18.51-.07.18.11.14.44.35.54.2.09.25-.03.45.05.2.07.1.36.31.43.21.06.32-.18.51-.13.18.05.28-.56.46-.51.18.05.03.7.2.75.17.05.26-.12.42-.06.16.06-.05.47.09.53.14.06.3-.35.47-.27.18.08.16.13.35.21.19.07.09.38.29.46.21.07.38-.38.58-.33.19.05.32.51.34.51l.33-1.97s-.22.17-.38.13c-.15-.04-.08-.28-.22-.33-.15-.05-.24.21-.4.15-.16-.06-.02-.37-.17-.44-.18-.08-.37.46-.55.39-.19-.07-.18-.28-.38-.35-.19-.06-.13-.2-.32-.25-.19-.05-.27.17-.46.13-.18-.05-.08-.46-.25-.51-.17-.05-.28.38-.44.33-.16-.05-.11-.19-.26-.24-.15-.06-.07-.23-.21-.3-.13-.06-.35.4-.5.31-.15-.09.06-.44-.06-.52-.13-.09-.27.04-.44-.07-.19-.12-.09-.44-.28-.53l-.8,1.83c.06.03.17-.21.29-.14.13.08.03.2.17.3Z"/>
    <path d="M19.94,86.4c0,.15.02.27.03.36.01.09.02.16.06.18h0s.8-1.83.8-1.83h0c-.12-.05-.27-.07-.4-.02-.13.05-.25.17-.33.31-.08.14-.12.31-.14.49-.02.18-.02.36-.01.51Z"/>
    <g>
      <path d="M33.26,56.84l.04.02.04.02.08.05.04.02.04.02.05.02h.03s.03,0,.03,0h.03s.03,0,.03,0h.03s.03-.02.03-.02l.05-.03.05-.04.09-.08.04-.03h.02s.02-.02.02-.02h.02s.02,0,.02,0h.02s.02,0,.02,0h.04s.04.03.04.03l.04.02h.04s.02.01.02.01h.02s.02,0,.02,0h.02s.03-.04.03-.04l.03-.03.06-.06.06-.07.03-.03.04-.03.04-.03h.02s.02-.01.02-.01h.01s0,0,0,0h.01s0,.01,0,.01h0s.03,0,.03,0h.04s.02.01.02.01h.02s.02.02.02.02h.02s.01.03.01.03v.02s.03.05.03.05l.03.11.03.11.02.04v.02s.02.01.02.01l.06.05.07.05s.1.06.14.09h.02s.02.01.02.01h.02s.02,0,.02,0h.03s.03-.03.03-.03l.03-.02h.03s.02-.02.02-.02h.02s.02,0,.02,0h.02s.02.01.02.01h.02s.02.03.02.03l.02.02s.04.07.07.11l.04.06.02.03.02.02.02.02.02.02h.01s.01.01.01.01h.03s.04-.99.04-.99l.02-.5.02-.5h-.01s-.01,0-.01,0h-.02s-.02.02-.02.02h0s-.01,0-.01,0h-.01s-.01,0-.01,0h-.01s-.01.01-.01.01l-.05.04-.03.02h-.02s-.02,0-.02,0h-.02s-.02,0-.02,0h-.02s-.02-.03-.02-.03c-.03-.02-.08-.05-.14-.09-.03-.02-.06-.04-.08-.05h-.02s0-.02,0-.02h0s0,0,0,0h0s-1.01-.09-1.01-.09h0s0,0,0,0h0s-.02.04-.02.04l-.02.02h0s0,.02,0,.02h-.02s-.02.02-.02.02h-.02s-.02,0-.02,0h-.02s-.01,0-.01,0l-.05-.02h-.02s-.01,0-.01,0h-.01s0,0,0,0h0s0,0,0,0h0s0,0,0,0h0s0-.04,0-.04v-.03s-.02-.06-.02-.06h0s0-.02,0-.02h0s0,0,0,0h0s0,0,0,0h-.01s-.02-.02-.02-.02l-.04-.03-.25.43-.25.43-.51.86h.02s.02.02.02.02h.04s.05.01.05.01h.05s.1,0,.1,0h.05s.05.01.05.01Z"/>
      <path class="st0" d="M34.18,54.24c1.18.11,1.14.11,1.77.17h0s0,0,0,0h0s0,.01,0,.01v.02s0,.03,0,.03v.06s0,.12,0,.12v.25s-.03.5-.03.5l-.04,1-.08,2-.69-.05h-.12s0,0,0,0h0s0,0,0,0h0s0,0,0,0h0s.01,0,.01,0l.19-.04.11-.03.11-.04.11-.05.1-.06.1-.06.09-.07.09-.07.08-.08-.94.89-1.2-.49h.01s0,0,0,0l-.09-.03-.19-.05-.28-.09-.15-.06-.12-.05-.21-.1-.21-.11-.21-.12,1.01-1.73.51-.86.25-.43.13-.22.06-.11.03-.05.02-.03h0s0-.02,0-.02h0s0,0,0,0h0c-.15.02-.14.02-.23.03Z"/>
    </g>
    <g>
      <path d="M28.05,46.71l.05-.04.05-.04.1-.08.05-.03.05-.03.05-.02h.02s.02-.01.02-.01h.02s.02,0,.02,0h.02s.02.02.02.02l.05.03.05.04.09.07.05.03h.02s.02.02.02.02h.02s.02,0,.02,0h.02s.02-.01.02-.01l.04-.02.03-.02h.02s.03-.03.03-.03l.05-.02h.03s.03-.01.03-.01h.03s.03,0,.03,0l.05.02.04.02.04.03.03.03s.09.08.14.13l.04.04h.02s.02.01.02.01h.02s.02.03.02.03l.04.03.08.06h.02s.02.03.02.03h.02s.02.01.02.01h.02s.03,0,.03,0h.06s.12-.03.12-.03h.06s.06-.02.06-.02h.03s.03,0,.03,0h.02s.02.02.02.02l.05.03.05.03.09.08.04.04.04.04s.05.06.07.09v.02s.02.02.02.02v.02s0,.02,0,.02v.04s0,.04,0,.04l-.02.08v.02s0,.02,0,.02v.02s.01.02.01.02v.02s.03.02.03.02l.02.02.02.02s.08.05.12.07l.06.04.03.02.02.02.02.02.02.03v.03s.02.03.02.03l-1,.1-.5.05-.5.05h0s0-.02,0-.02v-.02s.02-.01.02-.01h0s0-.01,0-.01h0s0,0,0,0h0s0-.01,0-.01h0s.04-.05.04-.05l.02-.02h0s0-.02,0-.02h0s0-.02,0-.02h0s0-.02-.01-.02h-.02s-.06-.04-.1-.06h-.03s-.03-.02-.03-.02c0,0-.01,0-.01,0h0s0,0,0,0h0s0,0,0,0h0c.37.17.36.17.55.26h0s0,0,0,0h0s-.03-.03-.03-.03l-.05-.03h-.02s-.02-.02-.02-.02c0,0-.01,0-.01,0h-.01s-.01,0-.01,0h0s-.02.01-.02.01h0s0,0,0,0h0s0,0,0,0h0s0,0,0,0h0s0,0,0,0h0s0,0,0,0h0s0,.02,0,.02l.02.02.02.02.02.02s.01,0,.01,0h0s0,0,0,0h0s0,0,0,0h0s0,0,0,0h0s0,0,0,0h0s0,0,0,0h0s0,0,0,0h0s0,0,0,0l-.02.03-.41-.28-.41-.28-.83-.56h0s0-.02.01-.02l.05-.05.06-.05.07-.04c.09-.05.18-.1.26-.14Z"/>
      <path class="st0" d="M28.96,48.74c-.67-.33-.64-.32-1-.49h0s0,0,0,0h0s0,0,0,0h.02s.03,0,.03,0h.06s.12-.02.12-.02l.25-.02.5-.05,1-.1,1.99-.2-.04-.28-.03-.14-.03-.15-.04-.15-.05-.15-.05-.15-.06-.15-.07-.15-.07-.15-.08-.15-.09-.14-.19-.27-.21-.25-.85-.93-1.21.36-.18.07-.18.07-.29.14-.3.16-.24.14-.14.09-.16.12-.17.14-.09.08-.09.09-.09.1-.09.11-.11.15,1.65,1.13.83.56.41.28.21.14.1.07.05.04.03.02h.01s0,.01,0,.01h0s0,0,0,0h0c-.74.02-.72.02-1.11.03Z"/>
    </g>
    <g>
      <path d="M26.16,89.09h.04s.04,0,.04,0h.09s.05.02.05.02h.04s.04,0,.04,0h.02s.02-.01.02-.01h.02s.02-.03.02-.03l.02-.02.02-.02.03-.05.03-.05.05-.11.03-.05.02-.02.02-.02h.02s.02-.02.02-.02h.02s.02,0,.02,0h.05s.05,0,.05,0h.05s.04,0,.04,0h.02s.02-.02.02-.02h.02s.01-.03.01-.03l.02-.04.02-.04.03-.08c.02-.06.03-.11.05-.18v-.05s.03-.01.03-.01h.02s.01-.03.01-.03v-.02s.04-.04.04-.04l.04-.08v-.02s.03-.02.03-.02h.02s.02-.03.02-.03h.02s.02-.02.02-.02h.05s.12-.03.12-.03h.06s.06-.02.06-.02h.03s.02-.02.02-.02h.02s.02-.03.02-.03l.03-.04.03-.05.03-.05.02-.06.04-.12s.02-.08.03-.11v-.03s0-.02,0-.02v-.02s0-.02,0-.02l-.02-.04-.03-.04-.05-.07v-.02s-.02-.02-.02-.02v-.02s0-.02,0-.02v-.03s0-.03,0-.03v-.03s.02-.03.02-.03c.02-.04.05-.08.07-.12l.03-.07v-.03s.02-.03.02-.03v-.03s0-.03,0-.03v-.03s-.01-.03-.01-.03l-.91.41-.46.2-.46.2h0s0,.01,0,.01h.01s.01,0,.01,0h0s0,0,0,0h0s0,0,0,0h0s.02,0,.02,0h.05s.02,0,.02,0h0s0,0,0,0h0s0,0,0,0h0s0,0,0,0h0s0,.01,0,.01h-.01s-.04.04-.07.07l-.05.02h-.01s0,0,0,0h0s0,0,0,0h0s0,0,0,0c.24-.31.23-.3.36-.46h0s0,0,0,0h0s0,.03-.01.04v.03s-.02.02-.02.02v.02s-.03.01-.03.01h-.01s-.01.02-.01.02h-.01s-.01,0-.01,0h-.05s-.01,0-.01,0h0s0,0,0,0h0s0,.01,0,.01h0s0,0,0,0h0s0,0,0,0h0s-.01-.03-.01-.03v-.03s-.04-.05-.04-.05h0s0-.02,0-.02h0s0,0,0,0h0s0,0,0,0h-.02s-.03-.02-.05-.02l-.08.49-.08.49-.17.99h.02s.02,0,.02,0h.04s.09-.04.09-.04l.09-.04h.04s.04-.02.04-.02Z"/>
      <path class="st0" d="M25.79,86.55c-.33.89-.32.86-.49,1.33h0s0,0,0,0h0s0,0,0,0h.01s.03-.02.03-.02l.06-.03.11-.05.23-.1.46-.2.91-.41,1.83-.81.06.14.06.15.05.16.04.17.04.17.03.18.02.18v.18s0,.18,0,.18v.18s-.03.17-.03.17l-.03.17-.03.16-.04.16-.09.29-.4,1.1-1.15.19-.23.03-.23.02h-.23s-.23.01-.23.01h-.23s-.23-.02-.23-.02l-.22-.03-.22-.03.33-1.97.17-.99.08-.49.04-.25.02-.12v-.06s.02-.03.02-.03v-.02s0,0,0,0h0s0,0,0,0h0c-.36.22-.35.21-.54.32Z"/>
    </g>
  </g>
  <g>
    <path d="M53.3,106.87s.04.09.07.14c.03.04.08.08.15.11.09.04.19.05.3.04.11-.02.24-.05.33-.15.08-.1.13-.25.12-.4l-.99.12s0,.1.02.14Z"/>
    <path d="M48.98,105.97c.19-.09.07-.22.24-.29.17-.06.32.06.48.03.17-.03.17-.1.35-.12.19-.02.2.14.39.13.19,0,.23-.14.43-.14.2,0,.14-.31.34-.31.2,0,.23.33.44.33.21,0,.21-.1.39-.09.16.03.06.24.2.28.13.05.22-.16.37-.08.14.09.13.11.26.22.13.12.02.24.13.36.1.13.32,0,.4.14.09.15-.13.29-.13.29l.99-.12s-.16-.38-.31-.58c-.14-.21-.03-.26-.19-.45-.16-.17-.26-.08-.43-.23-.18-.14-.08-.28-.3-.41-.23-.12-.28.17-.49.09-.21-.07-.27-.18-.51-.2-.22-.01-.24-.08-.42-.08-.19,0-.21.13-.41.13-.2,0-.2-.21-.4-.21-.2,0-.2.22-.4.23-.21,0-.21-.06-.42-.04-.21.02-.23-.07-.45-.03-.22.05-.14.29-.34.35-.19.06-.31-.1-.49-.02-.18.08-.14.17-.33.26-.19.1-.33-.02-.49.09l.58.81c.09-.06,0-.16.16-.25.16-.08.19,0,.38-.09Z"/>
    <path d="M48.04,106.37c.08.01.16,0,.23,0,.07,0,.13-.02.18-.06h0s-.58-.81-.58-.81h0c-.1.07-.19.18-.23.28-.04.11-.04.22,0,.31.03.09.09.16.17.2.08.05.17.07.25.08Z"/>
  </g>
  <g>
    <path d="M77.93,104.38s.01-.03.05-.05c.04-.03.12-.07.2-.18.09-.12.07-.28.04-.32-.03-.05-.05-.06-.07-.06-.08.02-.15-.01-.24.01-.09.02-.19.04-.24.13-.01.01-.04.02-.06-.02-.03-.03-.02-.15.04-.23.11-.13.12-.13.05-.14-.09-.02-.19,0-.29.03l.31.95c.08-.02.15-.06.2-.12Z"/>
    <path d="M74.66,107.77c0-.17-.17-.14-.14-.3.03-.16.2-.21.25-.34.06-.13,0-.16.08-.28.1-.15.23-.07.33-.21.1-.14.02-.25.13-.4.11-.14-.16-.29-.05-.43.12-.14.39.06.5-.07.12-.13.08-.22.2-.34.13-.12.24.09.36-.02.13-.1-.01-.28.13-.38.14-.1.15-.08.3-.17.15-.09.23.05.38-.03.14-.07.06-.3.22-.37.16-.07.38.09.39.08l-.31-.95s-.22.18-.4.26c-.18.08-.23-.03-.42.06-.18.1-.11.22-.28.33-.16.11-.26-.03-.42.09-.16.12.07.31-.08.43-.14.13-.26.09-.4.23-.14.14-.18.07-.31.21-.13.14-.05.24-.18.39-.12.15-.29.02-.41.17-.12.15.06.28-.05.43-.11.15-.17.11-.27.27-.12.19-.2.15-.3.36-.08.22.17.27.12.47-.04.2-.24.19-.25.41,0,.2.08.19.1.42.01.12,0,.25.05.39.04.14.15.27.28.32l.38-.93s.02.2,0,.16c-.01-.1.07-.12.07-.28Z"/>
    <path d="M74.85,108.16c-.04-.08-.1-.14-.15-.19-.05-.05-.1-.09-.1-.09h0s-.38.93-.38.93h0c.17.07.29.06.38.03.09-.03.16-.1.21-.17.05-.07.08-.16.08-.25,0-.09-.01-.18-.05-.26Z"/>
  </g>
  <g>
    <path d="M80.13,94.65c-.07.04-.13.1-.17.17-.04.07-.06.16-.06.25,0,.09.01.17.04.25.03.08.06.16.11.21.05.05.12.07.19.08l.11-.99c-.08,0-.15,0-.22.04Z"/>
    <path d="M84.52,95.49c-.14-.02-.13.16-.27.14-.14-.02-.2-.19-.34-.22-.14-.03-.16.04-.3.01-.14-.03-.11-.18-.26-.21-.14-.03-.21.09-.35.05-.14-.03-.17.27-.31.24-.14-.03-.09-.36-.23-.4-.15-.03-.2.05-.35.01-.15-.03-.04-.25-.19-.28-.15-.03-.2.18-.35.15-.15-.03-.14-.06-.29-.09-.15-.03-.13-.19-.28-.22-.15-.02-.21.21-.36.19-.15-.02-.27-.25-.28-.25l-.11.99s.19-.08.34-.06c.14.02.12.15.26.17.14.03.17-.11.31-.08.14.03.11.19.25.22.14.03.16-.26.3-.23.14.03.17.14.31.17.14.03.11.1.25.14.14.03.19-.08.33-.04.15.03.1.24.25.28.15.03.19-.18.34-.15.15.03.13.1.28.13.15.03.13.12.28.15.15.03.18-.23.33-.2.15.02.14.23.29.25.16.02.17-.08.32-.07.16.01.19.18.31.18l.02-1c-.1,0-.09.13-.23.12-.14-.01-.13-.09-.27-.1Z"/>
    <path d="M85.34,95.71c-.04-.07-.09-.12-.15-.17-.05-.04-.11-.07-.18-.07h0s-.02,1-.02,1h0c.08,0,.16-.02.22-.06.06-.05.12-.12.15-.2.03-.07.04-.16.04-.25,0-.09-.03-.18-.07-.25Z"/>
  </g>
  <g>
    <path d="M41.42,100.39c.05-.06.08-.14.09-.22.01-.08,0-.17-.02-.26-.02-.09-.07-.16-.12-.22-.06-.06-.12-.13-.2-.15-.07-.02-.16-.01-.23.01l.3.95c.07-.02.13-.06.18-.12Z"/>
    <path d="M37.21,102.29c.14-.07.04-.21.18-.28.14-.07.29.03.43-.04.14-.07.11-.13.25-.2.14-.07.21.07.35,0,.14-.07.12-.21.26-.28.14-.07-.03-.33.11-.4.14-.07.3.22.44.15.14-.07.13-.17.27-.23.14-.06.18.17.32.11.14-.06.06-.26.2-.32.14-.06.15-.03.29-.09.14-.06.21.09.35.04.14-.05.08-.29.23-.34.15-.05.35.11.35.11l-.3-.95s-.17.16-.32.21c-.15.05-.19-.06-.35,0-.15.06-.1.19-.25.24-.15.06-.21-.1-.36-.03-.15.06,0,.31-.14.37-.14.06-.23,0-.38.06-.14.07-.16-.01-.3.06-.14.07-.1.19-.24.26-.14.07-.23-.12-.37-.05-.14.07-.04.27-.18.34-.14.07-.17,0-.31.08-.14.07-.18-.01-.32.06-.14.07-.02.29-.16.37-.14.07-.24-.11-.38-.04-.14.07-.1.16-.24.23-.14.07-.25-.06-.35-.01l.43.9c.1-.05.03-.17.18-.24.14-.07.17,0,.31-.07Z"/>
    <path d="M36.27,102.55c.07.05.15.07.22.08.07,0,.15,0,.22-.03h0s-.45-.89-.45-.89h0c-.07.03-.13.09-.16.15-.04.07-.05.15-.05.24,0,.08.02.17.06.25.04.08.1.15.16.2Z"/>
  </g>
  <g>
    <path d="M23.49,105.96c-.05-.05-.12-.13-.21-.18-.09-.05-.19-.06-.3-.06-.11,0-.21.02-.29.04-.09.01-.19.04-.24.1-.06.06-.08.13-.09.21l1.2.09c0-.06-.01-.14-.06-.19Z"/>
    <path d="M26,107.79s-.01,0-.01,0c-.09,0-.14.18-.27.16-.16-.02-.23-.21-.37-.23-.13-.02-.14.07-.27.04-.12-.03-.07-.2-.15-.23-.12-.05-.22.08-.36.03-.13-.05-.23.3-.37.25-.13-.06,0-.43-.12-.49-.12-.06-.2.03-.31-.04-.1-.06.09-.27.02-.32-.05-.04-.24.14-.31.07-.06-.08-.03-.1-.07-.18-.03-.09.16-.15.15-.22,0-.09-.3-.08-.3-.22,0-.13.27-.25.27-.25l-1.2-.09s.11.21.11.39c0,.17-.15.19-.12.39.04.22.2.18.27.37.08.18-.09.28.05.47.15.17.36-.11.5.01.14.11.13.25.28.33.15.08.09.15.23.22.15.07.22-.06.36,0,.14.06.05.3.19.35.14.06.23-.19.38-.13.17.06.15.14.33.18.17.03.16.14.32.16.16.02.17-.29.31-.28.15.02.1.26.26.29.01,0,.02,0,.03,0,.18.02.19-.06.37-.05.19-.02.27.15.43.09l-.37-1.16s0,.19-.09.21c-.1,0-.09-.11-.17-.12Z"/>
    <path d="M26.84,107.9c-.04-.1-.2-.18-.34-.19-.07,0-.13,0-.18,0-.02,0-.04,0-.06,0h0s.37,1.16.37,1.16h0s.1-.05.13-.08c.01-.02,0-.03-.01-.06-.03-.05-.06-.13-.04-.22.02-.08.07-.18.11-.28.04-.1.06-.21.02-.31Z"/>
  </g>
  <g>
    <path d="M26.25,103.84c.1.08.22.11.33.1.11-.01.21-.07.29-.14.08-.07.13-.14.18-.22.05-.08.11-.16.14-.22.03-.05.03-.12-.04-.27l-1.08.53s.08.13.18.21Z"/>
    <path d="M21.85,103.43c.14-.07.02-.24.19-.31.18-.08.36.04.5,0,.15-.05.13-.13.29-.17.17-.04.2.14.37.12.16-.02.19-.18.37-.19.18-.01.11-.37.3-.38.19,0,.22.4.41.4.19,0,.24-.11.43-.11.2,0,.13.28.28.28.14,0,.17-.25.33-.22.15.04.14.07.27.12.13.06.04.24.13.31.09.07.31-.12.42,0,.12.14-.06.37-.06.36l1.08-.53s-.28-.25-.43-.41c-.16-.17-.06-.28-.27-.45-.22-.15-.3,0-.52-.11-.22-.09-.16-.28-.41-.34-.25-.05-.22.31-.44.29-.22-.01-.28-.13-.46-.13-.19,0-.17-.09-.36-.09-.19,0-.22.14-.41.15-.2,0-.21-.25-.42-.24-.21.02-.18.28-.38.3-.2.03-.22-.05-.43,0-.21.05-.24-.06-.46.02-.21.08-.08.36-.25.43-.18.08-.29-.14-.49-.05-.2.11-.15.2-.34.35-.19.16-.39.08-.53.29l1.04.61s-.11-.13-.02-.21c.1-.08.15,0,.28-.07Z"/>
    <path d="M21.25,103.86c.09-.03.16-.06.22-.09.06-.02.11-.03.12-.06h0s-1.04-.61-1.04-.61h0c-.08.13-.11.29-.09.41.02.13.09.23.18.29.08.06.19.09.29.1.11,0,.22-.02.31-.04Z"/>
  </g>
  <g>
    <path d="M49.05,94.87s-.02-.07-.05-.11c-.02-.04-.06-.09-.12-.13-.07-.07-.16-.12-.26-.16-.1-.04-.2-.07-.3-.06-.09.01-.17.07-.22.14l.91.4s.03-.05.03-.07Z"/>
    <path d="M48.96,98.27c0-.12-.17-.1-.17-.22,0-.12.16-.19.16-.32,0-.12-.07-.13-.06-.25,0-.12.15-.13.16-.25,0-.12-.13-.16-.13-.28,0-.13-.31-.09-.31-.21,0-.12.33-.14.33-.27,0-.13-.1-.16-.1-.28,0-.13.23-.09.23-.22,0-.13-.22-.12-.23-.25,0-.13.02-.13.01-.26,0-.12.15-.15.14-.27,0-.08-.25-.09-.24-.18.02-.1.26-.07.26-.07l-.91-.4s-.03.23-.04.41c-.02.18-.13.18-.13.34,0,.12.15.11.16.23,0,.12-.16.13-.15.25,0,.12.29.07.3.19,0,.12-.09.16-.09.28,0,.12-.07.11-.07.23,0,.12.12.13.12.26,0,.12-.21.13-.21.25,0,.12.22.12.22.24,0,.12-.07.12-.07.25,0,.12-.1.12-.1.25,0,.12.25.11.25.24,0,.12-.21.13-.21.26,0,.12.1.13.1.25,0,.12-.17.16-.17.25h1c0-.1-.13-.09-.13-.21,0-.12.08-.12.08-.25Z"/>
    <path d="M48.77,99.01c.07-.03.13-.08.17-.13.04-.05.07-.1.07-.16h0s-1,0-1,0h0c0,.06.02.12.06.17.04.05.12.09.19.12.07.03.16.04.25.04.09,0,.18-.02.25-.05Z"/>
  </g>
  <g>
    <path d="M15.13,96.92s.07-.11.1-.18c.02-.07.04-.16.04-.25,0-.09,0-.17-.02-.25-.02-.08-.04-.16-.08-.2-.03-.04-.08-.06-.13-.06l-.04,1s.09-.02.13-.06Z"/>
    <path d="M12.41,96.9c.09,0,.07-.17.16-.17.09,0,.14.16.23.16.09,0,.09-.07.18-.07.09,0,.09.15.18.16.09,0,.11-.13.21-.13.09,0,.07-.31.16-.3.09,0,.1.33.19.34.09,0,.11-.09.21-.09.09,0,.05.23.14.23.09,0,.1-.22.19-.22.09,0,.09.03.18.03.09,0,.09.16.18.16.09,0,.11-.24.2-.24.09,0,.17.22.17.22l.04-1s-.12.1-.21.1c-.09,0-.09-.13-.18-.13-.09,0-.1.14-.19.14-.09,0-.09-.17-.18-.17-.09,0-.07.29-.16.29-.09,0-.12-.1-.21-.1-.09,0-.08-.08-.17-.08-.09,0-.1.12-.2.12-.09,0-.09-.21-.18-.22-.09,0-.09.22-.18.22-.09,0-.09-.07-.18-.07-.09,0-.09-.1-.18-.1-.09,0-.08.25-.18.25-.09,0-.1-.2-.19-.21-.09,0-.1.1-.2.1-.1,0-.14-.16-.22-.16l.11.99c.06,0,.04-.13.12-.14.08,0,.08.07.16.07Z"/>
    <path d="M11.92,96.73c.03.07.07.13.11.17.04.04.07.07.11.07h0l-.11-.99h0c-.05,0-.1.02-.14.07-.04.05-.06.12-.07.19,0,.07,0,.16.02.25.02.09.05.18.08.25Z"/>
  </g>
  <g>
    <path d="M81.03,97.47s-.06.11-.08.19c-.02.07-.02.16-.02.25,0,.09.02.17.04.24.02.07.05.15.09.19.04.04.08.05.12.05l-.05-1s-.08.02-.12.07Z"/>
    <path d="M83.67,97.43c-.09,0-.08.17-.17.16-.09,0-.13-.16-.22-.16-.09,0-.09.07-.18.06-.09,0-.09-.15-.18-.16-.09,0-.11.13-.2.13-.09,0-.06.31-.15.31-.09,0-.11-.33-.19-.33-.09,0-.11.1-.19.1-.09,0-.06-.23-.15-.23-.09,0-.08.22-.17.22-.09,0-.09-.02-.18-.02-.09,0-.1-.16-.19-.16-.09,0-.09.25-.17.25-.09,0-.18-.21-.18-.21l.05,1s.11-.11.19-.11c.09,0,.09.12.18.12.09,0,.08-.14.17-.15.09,0,.09.16.18.16.09,0,.05-.29.13-.29.09,0,.12.1.2.09.08,0,.08.07.16.07.08,0,.09-.12.18-.12.09,0,.09.21.17.21.08,0,.08-.22.17-.22.08,0,.08.07.17.07.08,0,.08.1.17.1.08,0,.08-.25.17-.25.09,0,.08.21.17.21.08,0,.09-.09.17-.09.08,0,.12.1.17.15.02.02.04.03.07.03l-.1-1.01s-.02.01-.02.03c0,.04-.02.09-.06.09-.07,0-.08-.08-.16-.09Z"/>
    <path d="M84.07,97.6c-.03-.06-.06-.1-.09-.13-.03-.04-.05-.08-.07-.08h0s.1,1.01.1,1.01h0c.06,0,.12-.01.16-.06.04-.06.05-.15.04-.24,0-.08-.02-.18-.05-.26-.02-.09-.07-.17-.1-.23Z"/>
  </g>
  <g>
    <path d="M70.01,99.64s.1-.05.17-.08c.06-.04.13-.08.2-.14.07-.06.12-.12.16-.19.04-.07.08-.15.07-.23,0-.07-.05-.13-.1-.17l-.58.81s.05.01.09,0Z"/>
    <path d="M67.63,98.68c.08.03.13-.13.21-.1.08.03.07.2.15.23.08.03.11-.03.19,0,.08.04.02.18.11.21.08.04.16-.07.24-.04.08.04.18-.26.26-.22.08.04-.04.35.05.38.09.04.14-.04.23,0,.09.04-.03.24.06.27.09.03.17-.17.27-.13.1.03.09.06.19.08.09.02.05.18.12.2.06.02.15-.2.22-.18.07.03-.01.24-.01.24l.58-.81s-.2-.02-.31-.06c-.11-.05-.07-.16-.18-.2-.1-.03-.14.1-.23.08-.08-.02-.04-.18-.1-.2-.05-.02-.14.26-.22.22-.08-.03-.07-.14-.15-.17-.08-.03-.04-.1-.12-.14-.08-.04-.14.07-.22.04-.08-.04,0-.23-.08-.27-.08-.04-.17.16-.25.13-.08-.04-.05-.1-.14-.14-.08-.04-.05-.12-.13-.16-.09-.04-.18.2-.26.17-.09-.04-.02-.23-.11-.26-.09-.03-.12.06-.21.02-.09-.03-.05-.2-.12-.22l-.33.94c.06.02.1-.1.18-.07.08.03.05.1.14.13Z"/>
    <path d="M67.2,98.32c0,.08.01.14.03.19.02.05.04.09.08.11h0s.33-.94.33-.94h0s-.09-.01-.14.01c-.05.03-.1.09-.15.15-.04.06-.08.14-.11.23-.03.09-.04.18-.05.25Z"/>
  </g>
  <g>
    <path d="M20.75,85.81c-.08-.13-.21-.24-.38-.32-.15-.07-.34-.11-.52-.13-.17-.02-.32,0-.44,0-.13.01-.28.02-.36.04-.08.02-.11.06-.13.11l1.87.69c.05-.13.03-.28-.04-.41Z"/>
    <path d="M19.99,89.5c-.11-.09-.32.17-.44.05-.11-.11.09-.35.02-.41-.08-.07-.21,0-.31-.08-.1-.07.23-.18.17-.24-.05-.07-.39-.04-.4-.16.01-.11-.76-.06-.7-.22.09-.16.89-.08.95-.15.07-.08-.1-.16-.02-.26.02-.03.07-.03.13-.02.15.03.36.13.4.09.04-.05-.28-.36-.17-.53.09-.15.14-.18.21-.29.01-.01.02-.02.03-.05.07-.12.32.09.42-.04.11-.15-.25-.46-.12-.65.13-.2.62-.28.62-.3l-1.87-.69s.16.18.09.29c-.09.12-.28-.04-.4.13-.14.19.07.37-.05.59-.02.03-.05.07-.06.08-.11.05-.32-.06-.37.03-.08.12.45.37.31.56-.08.11-.2.14-.31.19-.08.04-.17.08-.23.17-.15.2-.29.13-.42.35-.12.22.12.27.03.48-.06.21-.5.24-.48.51.04.27.48.19.59.38.13.18-.01.22.15.39.17.17-.02.27.19.46.22.19.63-.14.79.02.17.16-.12.46.05.62.17.15.35.03.36.05.04.06-.25.23-.24.25l1.86-.74c-.1-.23-.31-.09-.5-.36-.2-.25-.2-.41-.27-.48Z"/>
    <path d="M20.45,91.06c.14-.07.23-.19.29-.31.06-.12.09-.27.03-.42h0s-1.86.74-1.86.74h0s.05.05.15.07c.09.02.24.04.39.06.15.01.33.02.51,0,.18-.02.35-.07.49-.14Z"/>
  </g>
  <g>
    <path d="M37.15,99.84c.02-.05.03-.12.02-.2,0-.08-.02-.16-.05-.25-.03-.09-.06-.16-.1-.22-.04-.07-.09-.13-.14-.16-.05-.03-.09-.03-.14-.02l.32.95s.07-.04.09-.09Z"/>
    <path d="M35,100.91c.06-.05-.05-.18.02-.22.07-.05.19.06.26.01.07-.04.03-.1.1-.14.07-.04.15.09.22.05.07-.04.02-.16.09-.2.07-.04-.1-.3-.02-.34.08-.04.24.25.31.22.07-.04.05-.13.12-.16.07-.03.14.19.22.16.07-.03-.01-.23.06-.26.08-.03.09,0,.16-.04.08-.03.14.12.21.09.07-.03,0-.26.08-.29.08-.03.22.15.22.15l-.32-.95s-.08.14-.16.16c-.08.03-.13-.09-.21-.06-.08.03-.03.16-.12.19-.08.03-.14-.12-.23-.09-.08.03.06.29-.02.32-.08.04-.15-.04-.23,0-.08.04-.1-.04-.18,0-.08.04-.03.15-.11.19-.08.04-.18-.15-.26-.1-.08.04.03.23-.05.28-.08.04-.11-.02-.19.03-.08.05-.13-.03-.2.01-.08.05.07.26,0,.31-.07.05-.2-.11-.27-.06-.07.05-.02.13-.09.18-.07.05-.19-.07-.24-.03l.61.79s-.04-.14.03-.18c.07-.05.11.02.18-.03Z"/>
    <path d="M34.5,101.05c.06.05.12.07.17.08.05.01.1.02.13,0h0s-.61-.79-.61-.79h0s-.06.07-.06.12c0,.06.02.13.05.2.03.07.08.14.14.21.06.07.12.13.18.18Z"/>
  </g>
  <g>
    <path d="M20.65,98.67s.04-.12.05-.2c0-.07,0-.16-.02-.25-.02-.09-.04-.17-.07-.24-.03-.07-.06-.15-.1-.19-.03-.04-.07-.05-.1-.04l.14.99s.08-.03.1-.08Z"/>
    <path d="M18.34,98.77c.07,0,.06-.17.13-.17.07,0,.12.16.19.16.08,0,.08-.07.15-.07.08,0,.08.15.15.15.08,0,.09-.13.17-.13.08,0,.05-.31.13-.31.07,0,.09.33.17.33.08,0,.09-.09.17-.1.08,0,.06.23.14.23.08,0,.07-.22.15-.23.08,0,.08.02.16.02.08,0,.1.16.18.15.08,0,.07-.25.14-.26.08-.01.18.19.18.19l-.14-.99s-.07.11-.15.12c-.07,0-.08-.12-.15-.11-.07,0-.06.14-.13.15-.07,0-.08-.16-.15-.16-.07,0-.03.29-.11.29-.07,0-.1-.1-.17-.09-.07,0-.07-.07-.14-.07-.07,0-.08.12-.15.12-.07,0-.08-.21-.15-.21-.07,0-.07.22-.15.22-.07,0-.07-.07-.15-.07-.07,0-.07-.1-.15-.1-.07,0-.07.25-.14.25-.08,0-.08-.2-.16-.21-.08,0-.08.1-.15.1-.08,0-.09-.17-.15-.17v1c.06,0,.05-.13.13-.13.07,0,.07.08.15.08Z"/>
    <path d="M17.9,98.58c.02.07.05.13.08.17.03.04.06.07.1.07h0v-1h0s-.07.02-.1.06c-.03.04-.06.11-.07.19-.02.07-.02.16-.02.25,0,.09.01.18.03.25Z"/>
  </g>
  <g>
    <path d="M64.19,99.18s-.1.09-.13.16c-.04.07-.06.15-.08.24-.02.09-.03.17-.03.25,0,.08,0,.16,0,.21.01.05.03.07.06.08l.32-.95s-.1,0-.14.02Z"/>
    <path d="M66.29,100.26c-.07-.03-.13.12-.2.09-.07-.03-.03-.19-.1-.23-.07-.03-.1.03-.17,0-.07-.03,0-.17-.06-.2-.07-.03-.15.07-.21.04-.07-.03-.2.24-.26.2-.07-.04.1-.33.04-.37-.06-.04-.13.03-.19-.01-.07-.04.08-.22.01-.26-.07-.04-.18.14-.25.1-.07-.04-.06-.06-.13-.11-.07-.04,0-.19-.08-.23-.08-.04-.19.17-.27.14-.08-.03-.08-.26-.09-.26l-.32.95s.11-.07.17-.05c.06.03,0,.14.06.17.06.03.12-.09.18-.06.06.03-.02.18.04.21.06.04.19-.22.25-.18.06.04.03.14.09.18.07.04.02.1.08.14.07.04.14-.06.21-.02.07.04-.03.23.04.26.07.04.18-.16.24-.12.07.04.03.1.1.13.07.04.02.12.09.15.07.04.18-.19.25-.16.07.04-.02.22.05.26.07.04.11-.05.18-.02.07.04.01.2.06.22l.44-.9s-.1.1-.17.06c-.07-.03-.03-.1-.1-.14Z"/>
    <path d="M66.61,100.64c.02-.08.01-.14,0-.19,0-.05-.02-.1-.05-.11h0s-.44.9-.44.9h0s.08.02.12,0c.05-.02.1-.08.15-.14.05-.06.09-.13.13-.21.04-.08.07-.17.08-.24Z"/>
  </g>
  <g>
    <path d="M15.05,99.49c.02-.06.03-.13.02-.21,0-.08-.03-.16-.07-.25-.03-.08-.07-.15-.1-.22-.03-.06-.07-.13-.1-.17-.03-.04-.04-.04-.06-.04l.19.98s.09-.04.11-.1Z"/>
    <path d="M13.05,99.6c.05-.01.02-.18.08-.18.06,0,.11.14.17.14.06,0,.05-.07.12-.08.06,0,.07.15.13.15.06,0,.07-.13.14-.13.06,0,.04-.31.11-.31.07,0,.07.33.14.33.07,0,.08-.09.15-.09.07,0,.04.23.11.23.07,0,.07-.22.14-.22.07,0,.07.03.12.03.06,0,.05.16.12.17.08,0,.09-.24.17-.24.08,0,.2.19.21.19l-.19-.98s-.02.11-.07.11c-.05,0-.04-.12-.1-.13-.06,0-.07.14-.14.13-.08,0-.07-.17-.14-.17-.06,0-.04.29-.11.29-.06,0-.09-.1-.15-.1-.07,0-.06-.08-.12-.08-.07,0-.07.12-.14.12-.07,0-.07-.21-.14-.21-.07,0-.06.22-.13.22-.07,0-.07-.07-.14-.07-.07,0-.08-.09-.15-.08-.07,0-.04.26-.11.27-.07,0-.1-.19-.18-.18-.07.01-.06.11-.13.12-.07.02-.13-.14-.19-.13l.26.97s0-.14.06-.15c.06-.01.07.06.13.05Z"/>
    <path d="M12.67,99.5c.04.07.07.11.11.15.03.03.06.06.09.05h0s-.26-.97-.26-.97h0s-.07.04-.09.09c-.02.05-.02.13-.01.2,0,.07.03.16.06.25.03.09.07.17.1.23Z"/>
  </g>
  <g>
    <path d="M62.5,101.52s-.11.04-.18.08c-.06.04-.13.1-.2.16-.07.06-.12.13-.16.19-.04.06-.09.13-.09.19,0,.05,0,.09.04.12l.7-.72s-.06-.03-.1-.02Z"/>
    <path d="M64.16,102.48c-.09-.04-.13.13-.22.1-.06-.02-.05-.18-.11-.2-.06-.02-.08.04-.14.02-.06-.02,0-.17-.06-.19-.06-.02-.12.09-.18.06-.06-.03-.17.25-.24.22-.06-.03.09-.33.04-.36-.05-.03-.11.04-.17,0-.05-.04.09-.22.04-.25-.05-.03-.18.14-.23.11-.05-.04-.04-.06-.09-.1-.05-.04.05-.17,0-.21-.05-.04-.21.14-.26.09-.05-.04.06-.24.06-.24l-.7.72s.14,0,.2.05c.06.05-.02.14.04.2.06.05.15-.06.21,0,.06.05-.04.18.02.23.07.05.21-.2.27-.16.06.04.03.14.09.18.07.04.02.1.09.14.07.04.13-.06.2-.03.07.03-.03.23.05.26.07.03.16-.17.23-.14.07.03.04.1.11.12.07.03.04.12.11.14.08.03.15-.22.22-.2.02,0,.03.03.04.05,0,.06-.02.17,0,.18.04.02.08-.07.14-.04.06.03,0,.19.06.22l.43-.9s-.09.1-.15.07c-.07-.03-.03-.1-.12-.14Z"/>
    <path d="M64.43,102.81c0-.08.01-.13.02-.18,0-.04,0-.08-.02-.09h0s-.43.9-.43.9h0s.1.02.15,0c.06-.03.11-.08.15-.15.04-.07.07-.15.09-.24.02-.09.03-.18.04-.25Z"/>
  </g>
  <g>
    <path d="M54.06,98.51s.02-.11.02-.19c0-.07,0-.16,0-.25,0-.09,0-.17-.01-.25,0-.07-.01-.15-.02-.2,0-.04-.01-.06-.02-.06l-.02,1s.02-.02.04-.06Z"/>
    <path d="M54.35,99.81s-.14.09-.15.07c-.01-.03.13-.1.12-.13-.01-.04-.08-.02-.09-.07,0-.05.14-.09.13-.14,0-.05-.14-.03-.14-.08,0-.05-.3.03-.31-.02,0-.05.32-.13.31-.18,0-.05-.1-.04-.11-.09,0-.05.22-.07.21-.12,0-.05-.22-.01-.23-.06,0-.05.02-.05.01-.1,0-.05.15-.08.14-.12,0-.05-.25-.02-.26-.08,0-.05.2-.12.2-.12l-.99.11s.11.06.12.11c0,.05-.11.07-.11.13,0,.06.15.04.15.09,0,.05-.16.08-.15.13,0,.06.29,0,.3.05,0,.05-.09.09-.08.14,0,.05-.07.06-.06.12,0,.05.13.04.14.09,0,.05-.2.1-.19.16,0,.06.22,0,.23.06,0,.05-.06.07-.05.13.01.06-.08.08-.06.14.02.07.26-.02.28.05.03.06-.15.16-.09.26.07.09.14.03.23.1.09.06.05.23.15.26l.28-.96s-.03.13-.02.13c0,0,.07-.05.08-.03Z"/>
    <path d="M54.27,99.95c0-.08-.01-.13,0-.17,0-.04.02-.07.03-.07h0s-.28.96-.28.96h0c.06.02.13.01.17-.03.05-.04.08-.11.1-.18.02-.07.02-.16.02-.25,0-.09-.02-.18-.02-.25Z"/>
    <g>
      <path d="M53.24,98.55h0s0-.03,0-.03v-.03s-.02-.03-.02-.03h0s0-.03,0-.03h0s0-.01,0-.01h.02s.05-.03.05-.03l.05-.02h.02s.02-.02.02-.02h0s0-.01,0-.01h0s0-.01,0-.01v-.03s-.01-.02-.01-.02c0,0,0-.01,0-.01h0s0-.01,0-.01h0s0-.01,0-.01l.03-.02.04-.02s.05-.02.08-.03h.02s0-.02,0-.02h0s0-.02,0-.02h0s.01-.02.01-.02l.02-.03v-.02s.01,0,.01,0h0s0-.03,0-.03v-.03s-.01-.06-.01-.06v-.03s0-.03,0-.03v-.03s0-.01,0-.01h0s.02-.03.02-.03l.02-.02.04-.04s.06-.04.09-.06h0s0,0,0,0h0s0,0,0,0h0s0,0,0,0h.01s.03.03.03.03c0,0,0,0,.01,0h0s0,0,0,0h0s0,0,0,0v-.02s.04-.05.04-.05l.03-.05v-.02s.02,0,.02,0h0s0,.5,0,.5v.25s0,.25,0,.25h0s0,0,0,0h0s0,0,0,0h0s0,0,0,0h0s0,0,0,0h0s-.02-.03-.02-.03h0s0-.01,0-.01h0s0,0,0,0h0s0,0,0,0h0s-.01.03-.01.03h0s0,.02,0,.02h0s0,.02,0,.02h0s0,.01,0,.01h0s0,0,0,0h0s0,0,0,0h0s0,0,0,0l.28-.24h0s0,0,0,0h0s-.02,0-.02,0h-.02s-.01.03-.01.03h0s0,.01,0,.01h0s0,.03,0,.03h0s0,.01,0,.01h0s0,0,0,0h0s0,0,0,0h0s.01.01.01.01h.01s.03.02.03.02h0s0,.01,0,.01h0s0,.01,0,.01h0s0,.03,0,.03l-.25.03-.25.03-.5.05h0s0-.01,0-.01h0s.02-.04.02-.04l.02-.03h0s0-.03,0-.03Z"/>
      <path class="st0" d="M54.66,98.56c-.43.34-.42.33-.65.51h0s0,0,0,0h0s0,0,0,0h0s0-.02,0-.02v-.03s0-.06,0-.06v-.12s0-.25,0-.25v-.5s.02-1,.02-1h-.13s-.12,0-.12,0l-.15.02-.09.02-.1.03-.1.04-.1.05-.1.06-.09.06-.09.07-.08.07-.31.32.03.44.08.49.99-.11.5-.05.25-.03h.12s.06-.02.06-.02h.03s.02,0,.02,0h0s0,0,0,0h0s0,0,0,0h0s-.01.04-.02.06Z"/>
    </g>
  </g>
  <g>
    <path d="M51.66,109.18c.08-.04.07-.11.08-.19,0-.07,0-.16,0-.25,0-.09-.01-.17-.04-.24-.02-.07-.06-.15-.04-.2.03,0-.02-.04.17.01.04.02.07.03.11.07.06.04.14.18.13.18h0s0-.03,0-.03c0-.02,0-.05-.01-.07l-.9.43s.01.01.02.01h.01s0,0,0,0c-.06-.1.17.26.2.23.26.1.2.03.25.04Z"/>
    <path d="M50.15,108.56c.07,0,.05-.17.11-.17.06,0,.1.15.17.15.06,0,.06-.07.11-.07.06,0,.06.15.11.15.05,0,.07-.13.11-.13.04,0,.06-.3.11-.3.06,0,0,.33.02.34.03,0,.08-.08.11-.06.04.01-.08.22-.06.23.02.01.14-.17.18-.15.03.02.01.05.04.07.03.03-.09.15-.08.17.02.02.21-.12.24-.08.02.04-.16.17-.16.17l.9-.43s-.13-.06-.18-.13c-.04-.07.06-.15,0-.22-.06-.07-.16.02-.21-.04-.06-.05.05-.19-.02-.24-.08-.05-.21.2-.28.16-.07-.04-.04-.14-.12-.16-.08-.03-.04-.09-.12-.12-.08-.02-.12.1-.2.09-.08,0-.06-.22-.15-.23-.08,0-.08.22-.14.22-.06,0-.07-.07-.13-.07-.06,0-.07-.09-.13-.09-.06,0-.05.26-.1.26-.06,0-.07-.2-.12-.2-.04,0-.05.05-.07.08,0,.01-.02.02-.03.02-.04,0-.05-.18-.13-.18l-.02,1s.02-.13.08-.13c.04,0,.06.02.08.04.02.02.04.04.07.04Z"/>
    <path d="M49.89,108.36c.03.07.04.12.03.17,0,.04,0,.08,0,.08h0s.02-1,.02-1h0c-.05,0-.13.02-.18.07-.05.05-.08.14-.07.22,0,.08.04.16.08.24.04.08.09.15.12.22Z"/>
  </g>
  <g>
    <path d="M78.99,106.54c-.04-.06-.11-.09-.19-.1-.07-.01-.16,0-.25,0-.09.01-.17.03-.24.05-.07.02-.15.04-.2.04-.04,0-.06-.02-.05-.06l.95.32c.04-.11.02-.19-.02-.25Z"/>
    <path d="M77.32,108.06s-.11-.14-.07-.19c.04-.05.18.02.22-.02.04-.04,0-.09.03-.13.04-.04.15.07.19.03.04-.04-.03-.14.02-.18.05-.04-.15-.27-.1-.31.06-.04.25.23.3.2.05-.03.01-.12.07-.15.05-.03.14.18.19.16.05-.02-.04-.22.01-.25.06-.02.07,0,.12-.02.07-.02.09.14.19.1.11-.04.02-.27.12-.33.1-.05.38-.15.38-.18l-.95-.32s.16-.07.16-.05c0,0-.06-.11-.08-.1-.04.02-.02.16-.09.18-.07.03-.13-.12-.21-.09-.08.03.07.29,0,.32-.07.03-.14-.04-.21,0-.07.04-.1-.03-.17.01-.07.05,0,.15-.07.19-.06.05-.19-.12-.26-.07-.06.05.08.22.02.27-.06.05-.11,0-.16.06-.06.06-.12-.01-.18.05-.05.06.14.22.09.28-.05.06-.21-.06-.26,0-.05.06.03.12-.01.18-.04.06-.19-.01-.23.04l.84.54s-.09-.11-.05-.16c.04-.05.1,0,.13-.05Z"/>
    <path d="M76.95,108.27c.07.02.13.03.18.03.05,0,.09,0,.11-.03h0s-.84-.54-.84-.54h0s-.03.08,0,.12c.02.05.07.11.13.16.05.05.13.1.21.15.08.04.16.08.23.1Z"/>
  </g>
  <g>
    <path d="M75.05,93.51s.02-.11.03-.19c0-.07,0-.16-.02-.25-.01-.09-.03-.17-.05-.24-.02-.07-.04-.15-.06-.19-.02-.04-.04-.05-.06-.05l.09,1s.05-.03.06-.07Z"/>
    <path d="M73.79,93.6s0-.17.04-.18c.04,0,.08.14.12.14.04,0,.03-.07.07-.07.04,0,.05.15.09.15.04,0,.04-.13.08-.13.04,0,.01-.31.06-.31.04,0,.06.33.1.33.04,0,.05-.09.09-.1.04,0,.03.23.08.23.04,0,.04-.22.08-.22.04,0,.04.03.09.02.05,0,.06.16.1.16.05,0,.04-.24.08-.25.05,0,.11.21.11.21l-.09-1s-.04.11-.08.11c-.04,0-.05-.12-.09-.12-.04,0-.03.14-.07.14-.04,0-.05-.16-.09-.16-.04,0-.02.29-.06.29-.04,0-.06-.1-.1-.1-.04,0-.04-.08-.08-.07-.04,0-.05.12-.09.12-.04,0-.06-.21-.1-.21-.05,0-.03.22-.08.22-.05,0-.05-.07-.1-.07-.05,0-.06-.09-.11-.08-.05,0-.01.26-.06.26-.05,0-.08-.19-.13-.19-.05,0-.03.1-.08.11-.05.01-.1-.15-.14-.14l.24.97s0-.13.03-.14c.04,0,.05.07.09.06Z"/>
    <path d="M73.53,93.47c.03.07.06.12.08.16.02.04.05.06.06.06h0s-.24-.97-.24-.97h0s-.05.03-.05.08c0,.05,0,.12,0,.19.01.07.03.16.06.25.03.09.06.17.09.24Z"/>
  </g>
  <g>
    <path d="M28.6,105.62c-.05-.07-.13-.13-.22-.16-.09-.04-.19-.05-.3-.05s-.21.02-.29.06c-.09.04-.19.08-.24.15-.05.06-.07.15-.07.23h1.2c0-.08-.02-.16-.07-.23Z"/>
    <path d="M28.37,106.23c.09-.04.15-.1.21-.17.05-.06.09-.14.09-.22h0s-1.2,0-1.2,0h0c0,.08.02.16.07.22.05.07.14.12.23.16.09.04.19.06.3.06s.22-.02.3-.06Z"/>
  </g>
</svg>