<?xml version="1.0" encoding="UTF-8"?>
<svg id="_レイヤー_1" xmlns="http://www.w3.org/2000/svg" xmlns:xlink="http://www.w3.org/1999/xlink" version="1.1" viewBox="0 0 100 120">
  <!-- Generator: Adobe Illustrator 30.0.0, SVG Export Plug-In . SVG Version: 2.1.1 Build 123)  -->
  <defs>
    <style>
      .st0, .st1, .st2 {
        fill: none;
      }

      .st3 {
        fill: #ceb372;
      }

      .st4 {
        fill: #292524;
      }

      .st5 {
        fill: #fff;
      }

      .st6 {
        fill: url(#_新規パターンスウォッチ_4);
      }

      .st7 {
        fill: url(#_新規パターンスウォッチ_1);
      }

      .st1 {
        stroke: #ceb372;
        stroke-width: 9.6px;
      }

      .st2 {
        stroke: #292524;
        stroke-linecap: round;
        stroke-linejoin: round;
        stroke-width: .75px;
      }
    </style>
    <pattern id="_新規パターンスウォッチ_1" data-name="新規パターンスウォッチ 1" x="0" y="0" width="48" height="48" patternTransform="translate(-5935.16 -4764.75) rotate(11.49) scale(.34)" patternUnits="userSpaceOnUse" viewBox="0 0 48 48">
      <g>
        <rect class="st0" width="48" height="48"/>
        <g>
          <path class="st3" d="M24,52.8c2.65,0,4.8-2.15,4.8-4.8s-2.15-4.8-4.8-4.8-4.8,2.15-4.8,4.8,2.15,4.8,4.8,4.8Z"/>
          <path class="st3" d="M48,52.8c2.65,0,4.8-2.15,4.8-4.8s-2.15-4.8-4.8-4.8-4.8,2.15-4.8,4.8,2.15,4.8,4.8,4.8Z"/>
          <path class="st3" d="M24,28.8c2.65,0,4.8-2.15,4.8-4.8s-2.15-4.8-4.8-4.8-4.8,2.15-4.8,4.8,2.15,4.8,4.8,4.8Z"/>
          <path class="st3" d="M48,28.8c2.65,0,4.8-2.15,4.8-4.8s-2.15-4.8-4.8-4.8-4.8,2.15-4.8,4.8,2.15,4.8,4.8,4.8Z"/>
          <path class="st3" d="M36,40.8c2.65,0,4.8-2.15,4.8-4.8s-2.15-4.8-4.8-4.8-4.8,2.15-4.8,4.8,2.15,4.8,4.8,4.8Z"/>
          <path class="st3" d="M12,40.8c2.65,0,4.8-2.15,4.8-4.8s-2.15-4.8-4.8-4.8-4.8,2.15-4.8,4.8,2.15,4.8,4.8,4.8Z"/>
          <path class="st3" d="M36,16.8c2.65,0,4.8-2.15,4.8-4.8s-2.15-4.8-4.8-4.8-4.8,2.15-4.8,4.8,2.15,4.8,4.8,4.8Z"/>
          <path class="st3" d="M12,16.8c2.65,0,4.8-2.15,4.8-4.8s-2.15-4.8-4.8-4.8-4.8,2.15-4.8,4.8,2.15,4.8,4.8,4.8Z"/>
        </g>
        <g>
          <path class="st3" d="M0,52.8c2.65,0,4.8-2.15,4.8-4.8s-2.15-4.8-4.8-4.8-4.8,2.15-4.8,4.8,2.15,4.8,4.8,4.8Z"/>
          <path class="st3" d="M0,28.8c2.65,0,4.8-2.15,4.8-4.8s-2.15-4.8-4.8-4.8-4.8,2.15-4.8,4.8,2.15,4.8,4.8,4.8Z"/>
        </g>
        <g>
          <path class="st3" d="M24,4.8c2.65,0,4.8-2.15,4.8-4.8s-2.15-4.8-4.8-4.8-4.8,2.15-4.8,4.8,2.15,4.8,4.8,4.8Z"/>
          <path class="st3" d="M48,4.8c2.65,0,4.8-2.15,4.8-4.8s-2.15-4.8-4.8-4.8-4.8,2.15-4.8,4.8,2.15,4.8,4.8,4.8Z"/>
        </g>
        <path class="st3" d="M0,4.8c2.65,0,4.8-2.15,4.8-4.8S2.65-4.8,0-4.8-4.8-2.65-4.8,0-2.65,4.8,0,4.8Z"/>
      </g>
    </pattern>
    <pattern id="_新規パターンスウォッチ_4" data-name="新規パターンスウォッチ 4" x="0" y="0" width="72" height="72" patternTransform="translate(-4184.14 -7300.32) rotate(-33.51) scale(.34)" patternUnits="userSpaceOnUse" viewBox="0 0 72 72">
      <g>
        <rect class="st0" width="72" height="72"/>
        <g>
          <line class="st1" x1="71.75" y1="66" x2="144.25" y2="66"/>
          <line class="st1" x1="71.75" y1="42" x2="144.25" y2="42"/>
          <line class="st1" x1="71.75" y1="18" x2="144.25" y2="18"/>
          <line class="st1" x1="71.75" y1="54" x2="144.25" y2="54"/>
          <line class="st1" x1="71.75" y1="30" x2="144.25" y2="30"/>
          <line class="st1" x1="71.75" y1="6" x2="144.25" y2="6"/>
        </g>
        <g>
          <line class="st1" x1="-.25" y1="66" x2="72.25" y2="66"/>
          <line class="st1" x1="-.25" y1="42" x2="72.25" y2="42"/>
          <line class="st1" x1="-.25" y1="18" x2="72.25" y2="18"/>
          <line class="st1" x1="-.25" y1="54" x2="72.25" y2="54"/>
          <line class="st1" x1="-.25" y1="30" x2="72.25" y2="30"/>
          <line class="st1" x1="-.25" y1="6" x2="72.25" y2="6"/>
        </g>
        <g>
          <line class="st1" x1="-72.25" y1="66" x2=".25" y2="66"/>
          <line class="st1" x1="-72.25" y1="42" x2=".25" y2="42"/>
          <line class="st1" x1="-72.25" y1="18" x2=".25" y2="18"/>
          <line class="st1" x1="-72.25" y1="54" x2=".25" y2="54"/>
          <line class="st1" x1="-72.25" y1="30" x2=".25" y2="30"/>
          <line class="st1" x1="-72.25" y1="6" x2=".25" y2="6"/>
        </g>
      </g>
    </pattern>
  </defs>
  <g>
    <path class="st3" d="M31.01,89.88c.76.06,1.29.6,1.87.99.75.5,1.51.98,2.29,1.44.49.29.91.65,1.2,1.15"/>
    <path class="st7" d="M65.38,57.78c-1.44,3.92-2.24,4.52-2.43,5.17-.3,1.03.08,2.46.89,2.81,1.19.51,2.98-1.54,3.17-1.77,2.2-2.57,1.64-5.64,2.62-5.78.66-.09,1.44,1.21,1.77,2.16.43,1.25,0,1.71-.09,4.63-.07,2.2.17,2.18-.06,3.17-.19.77-.51,1.53-.55,2.78-.02.52.03.9.04,1.1.04,2.65-.54,5.08-.85,6.37-.44,1.82-.71,2.93-1.41,4.38-.64,1.34-1.34,2.33-1.92,3.16-1.4,1.98-1.97,2.25-2.86,3.8-.81,1.41-1.05,2.44-1.23,2.89-1.36,3.34-10.96,3.35-26.77,1.68,0,0-17.69-2.41-17.48-5.75.03-.49.67-1.33.85-3.14.06-.61.05-1.12.03-1.46-1.74-2.3-2.52-4.29-2.91-5.71-.5-1.82-.6-3.6-1.39-5.11-.11-.22-.5-.93-.68-1.94-.09-.48-.09-.83-.1-1.27-.05-1.77-.17-2.12-.18-2.88,0-.73.47-2.02,1.18-4.64,1.21-4.45,1.9-4.12,2.68-6.88.99-3.49.34-4.2,1.52-6.71.97-2.06,2.7-4.34,3.66-4.04.93.29.06,2.67,1.75,5.63.31.55,1.28,2.12,3.15,3.07.72.37,1.97,1.01,2.97.5.43-.22.76-.8,1.43-1.95.51-.88.77-1.32.81-1.73.09-.82-.29-1.15-.68-2.47-.15-.52-.23-1.06-.39-2.15-.28-1.94-.34-3.52-.35-4.35-.02-1.42.07-1.56.08-3.05.01-1.75-.1-3.17-.19-4.08.27-1.29.53-2.59.8-3.88.72-2.45,1.45-4.89,2.17-7.34.38-1.16.95-2.64,1.84-4.25,1.31-2.36,2.69-3.91,3.07-4.31,1.17-1.28,1.93-1.78,5.64-4.5,1.06-.78,2.7-1.98,4.74-3.5.32,4.04-.44,6.25-1.26,7.53-.3.48-1.26,1.83-1.7,3.87-.06.28-.19.95-.22,1.76-.07,1.93.51,3.1,1.68,6.29,1.27,3.44,1.48,4.48,1.4,5.14,0,.07-.05.18-.07.35-.12,1.07.59,1.88,1.21,2.8.45.66.73,1.23,1.29,2.38.71,1.45,1.02,2.62,1.4,4.03.85,3.2,1.5,4.73,2.1,4.79.85.09,1.89-1.72,2.27-3.01.21-.7.17-1.08.58-2.62.21-.77.32-1.16.53-1.6.27-.57.92-1.92,1.8-2.05,1.16-.18,2.55,1.79,3.13,3.56.74,2.24.84,3.76.52,6-1,6.99,3,6.74,1.03,12.08Z"/>
    <path class="st5" d="M74,60.56c-1.44,3.92-2.24,4.52-2.43,5.17-.3,1.03.08,2.46.89,2.81,1.19.51,2.98-1.54,3.17-1.77,2.2-2.57,1.64-5.64,2.62-5.78.66-.09,1.44,1.21,1.77,2.16.43,1.25,0,1.71-.09,4.63-.07,2.2.17,2.18-.06,3.17-.19.77-.51,1.53-.55,2.78-.02.52.03.9.04,1.1.04,2.65-.54,5.08-.85,6.37-.44,1.82-.71,2.93-1.41,4.38-.64,1.34-1.34,2.33-1.92,3.16-1.4,1.98-1.97,2.25-2.86,3.8-.81,1.41-1.05,2.44-1.23,2.89-1.36,3.34-10.96,3.35-26.77,1.68,0,0-17.69-2.41-17.48-5.75.03-.49.67-1.33.85-3.14.06-.61.05-1.12.03-1.46-1.74-2.3-2.52-4.29-2.91-5.71-.5-1.82-.6-3.6-1.39-5.11-.11-.22-.5-.93-.68-1.94-.09-.48-.09-.83-.1-1.27-.05-1.77-.17-2.12-.18-2.88,0-.73.47-2.02,1.18-4.64,1.21-4.45,1.9-4.12,2.68-6.88.99-3.49,4.22-11.06,5.18-10.75.93.29.06,2.67,1.75,5.63.31.55,1.28,2.12,3.15,3.07.72.37,1.97,1.01,2.97.5.43-.22.76-.8,1.43-1.95.51-.88.77-1.32.81-1.73.09-.82-.29-1.15-.68-2.47-.15-.52-.23-1.06-.39-2.15-.28-1.94-.34-3.52-.35-4.35-.02-1.42.07-1.56.08-3.05.01-1.75-.1-3.17-.19-4.08.27-1.29.53-2.59.8-3.88.72-2.45,1.45-4.89,2.17-7.34.38-1.16.95-2.64,1.84-4.25,1.31-2.36,2.69-3.91,3.07-4.31,1.17-1.28,1.93-1.78,5.64-4.5,1.06-.78,2.7-1.98,4.74-3.5.32,4.04-.44,6.25-1.26,7.53-.3.48-1.26,1.83-1.7,3.87-.06.28-.19.95-.22,1.76-.07,1.93.51,3.1,1.68,6.29,1.27,3.44,1.48,4.48,1.4,5.14,0,.07-.05.18-.07.35-.12,1.07.59,1.88,1.21,2.8.45.66.73,1.23,1.29,2.38.71,1.45,1.02,2.62,1.4,4.03.85,3.2,1.5,4.73,2.1,4.79.85.09,1.89-1.72,2.27-3.01.21-.7.17-1.08.58-2.62.21-.77.32-1.16.53-1.6.27-.57.92-1.92,1.8-2.05,1.16-.18,2.55,1.79,3.13,3.56.74,2.24,2.1,2.94,2.85,6.57,1.43,6.92.66,6.17-1.3,11.51Z"/>
    <path class="st3" d="M28.11,87.36c-4.45-.77-8.19-2.17-8.2-2.17,0,0-1.07,1.9-.71,3.3.35,1.35,1.85,1.58,1.77,2.07-.19,1.15-8.52-1.22-11.73,2.27-2.28,2.48-1.8,7.71.39,9.1,2.45,1.55,6.34-2.13,8.34-.42,1.27,1.08,0,2.81,1.27,4.96,1.66,2.82,6.04,3.6,9.07,3.25,1.34-.16,1.86-.47,6.59-2.75,7.14-3.45,8.86-4.15,9.54-3.49.88.86-1.21,2.85-.43,5.29.95,2.95,5.74,5.43,9.61,3.88,1.84-.74,3.62-2.44,4.09-4.59.61-2.84-1.42-4.96-.86-5.42.83-.67,5.04,4.04,12.24,8.26,5.3,3.1,6.76,2.74,7.45,2.45,1.8-.77,7.24-6.98,2.59-9.79,1.17-.26,5.31-.2,5.81-.21,2.08-.05,4.89,1.08,6.48.05,1.7-1.11,2.03-5.47.06-7.81-3.37-3.99-12.82-1.44-12.96-2.44-.09-.62,3.39-1.23,3.83-3.03.4-1.66-2.22-2.36-2.22-2.36,0,0-3.43,1.6-6,3.28-3.61,2.36-14.1,9.23-16.63,7.13-1.32-1.09.7-3.63-.97-6.06-1.87-2.72-7.11-3.48-9.4-1.48-1.45,1.27-.67,2.74-2.13,3.86-2.12,1.63-5.82.13-8.64-1.02-3.31-1.35-4.87-3.02-5.36-3.58-.96-1.1-1.85-2.34-2.9-2.52Z"/>
    <path class="st2" d="M41.73,100.14c-.84.19-1.64.47-2.43.8-1.03.43-2.01.94-3.03,1.37"/>
    <path class="st2" d="M23.94,103.77c-.13.07-.77.39-1.04,1.16-.05.15-.3.9.12,1.62.36.63.99.82,1.3.91.8.24,1.48.02,1.76-.08.6-.21,1-.55,1.21-.75"/>
    <path class="st2" d="M26.41,104.77c.06-.07.66-.75.45-1.59-.15-.59-.6-.9-.76-1.01-.47-.32-.92-.34-1.76-.38-.67-.03-1.31-.05-2.07.24-.42.16-.8.3-1.1.66-.68.81-.37,2-.31,2.19"/>
    <path class="st2" d="M15.69,95.5c-.95-.08-1.9-.11-2.86-.16-.19,0-.38-.03-.57,0"/>
    <path class="st2" d="M37.39,99.42c-1.04.27-2.01.7-2.88,1.35"/>
    <path class="st2" d="M21.13,96.93c-.94.12-1.87,0-2.81-.03"/>
    <path class="st2" d="M15.15,98.06c-.19.09-.39.05-.58.04-.57-.02-1.14-.09-1.7.06"/>
    <path class="st2" d="M28.51,104.82c-.08.27-.21.62-.46.96"/>
    <path class="st6" d="M58.22,95.09c.32-.18.59-.49.96-.51.41-.02.74-.2,1.05-.39,1.53-.92,2.93-2.02,4.37-3.06.76-.55,1.32-1.21,1.71-2.06.61-1.34,1.06-2.75,1.79-4.04.48-.84.66-1.76.71-2.73.08-1.53.12-3.06-.06-4.59-.17-1.42-.25-2.86-1.16-4.07-.13-.17-.2-.38-.29-.58-.31-.7-.41-1.54-1.21-1.94,0,0-.02,0-.02-.01-.61.44-.63,1.14-.72,1.76-.15,1.13-.62,2.08-1.31,2.96-.51.66-1.22.74-1.95.52-.67-.2-1-.73-1.1-1.44-.07-.55-.02-1.08.02-1.62.06-.81.12-1.63.08-2.44-.03-.59.08-1.18.11-1.76.13-2.23.16-4.47.25-6.71.04-.99-.19-1.98-.44-2.93-.43-1.68-.92-3.35-1.78-4.88-.93-1.65-2.13-3.06-3.61-4.23-.56-.44-1.11-.88-1.65-1.34-.67-.57-1.01-1.38-1.42-2.14-.29-.54-.59-1.06-1.31-1.1h-.12c.04.18.03.38-.05.62-.11.32.02.67.15.99.35.89.5,1.83.43,2.78-.06.74.17,1.46.06,2.19-.17,1.14-.04,2.29-.21,3.43-.1.67-.33,1.32-.58,1.95-.4,1-.53,2.01-.53,3.06,0,1.42-.32,2.74-1.06,3.97-.31.52-.57,1.08-.88,1.62-.15.27-.36.5-.6.71-.54.47-1.04.35-1.34-.32-.4-.89-.61-1.83-.91-2.75-.24-.74-.48-1.48-.58-2.26-.14-1.05-.11-2.03.7-2.84.38-.38.55-.85.33-1.39-.23-.56-.55-.69-1.07-.41-.45.24-.75.63-1.09.99-.69.75-1.44,1.45-2.15,2.18-1.18,1.21-1.62,2.7-1.86,4.3-.22,1.5-.24,3.02-.18,4.52.04,1.04-.1,2.09.09,3.13.09.49.21.98.3,1.47.16.86-.28,1.38-1.16,1.35-.26,0-.53.01-.78-.04-.56-.12-.99-.42-1.21-.99-.34-.92-.94-1.68-1.57-2.4-.43-.49-.75-1.05-1.09-1.59-.02-.02-.03-.05-.04-.08-.74.3-.91.97-1.09,1.61-.17.62-.45,1.18-.77,1.73-.43.74-.45,1.56-.29,2.33.43,2.14.8,4.28,1.25,6.42.2.94.44,1.87.83,2.74.22.51.34,1.03.53,1.55.58,1.63,1.54,2.99,2.77,4.2,1.03,1.01,2.35,1.55,3.45,2.43.57.45.58.43.42,1.12-.02.07,0,.14-.01.21"/>
    <path class="st4" d="M59.45,103.54c4.6,2.62,9.52,5.66,14.02,8.49.81.56,1.84.66,2.74.4,0,0-.14.07-.14.07,1.03-.6,2.12-1.3,2.96-2.12.91-1.16,1.08-2.97,1.29-4.44,0-.24.07-.76.05-1,.06.16.29.4.56.39.09,0-.31-.08-.29-.09,0,0-11.98-7.23-11.98-7.23-.36-.2-.04-.78.33-.57,0,0,12.3,6.67,12.3,6.67l-.31-.09c.15,0,.33.07.45.18.18.16.21.32.26.5.08.42.1.89.1,1.31-.08,1.93-.14,3.95-1.38,5.6-1.77,1.79-3.97,3.55-6.6,2.76-.89-.22-1.71-.9-2.46-1.35,0,0-4.23-2.73-4.23-2.73-2.8-1.85-5.6-3.71-8.35-5.65-.66-.47-.01-1.5.7-1.1h0Z"/>
    <path class="st2" d="M77.88,105.84c-1.54.32-2.56,1.35-3.45,2.55-.22.3-.33.65-.37,1.02-.06.63.22,1.48,1.12,1.66"/>
    <path class="st2" d="M80.32,97.07c1.36.15,2.64.66,3.96.96.5.11.99.19,1.51.18"/>
    <path class="st2" d="M81.22,99.95c1.04,0,2.08-.01,3.12.14.03,0,.07-.06.11-.07"/>
    <path class="st2" d="M71.08,101.6c-.31-.31-1.06-.7-1.38-.84-.72-.32-1.41-1.01-2.15-1.28"/>
    <path class="st2" d="M64.2,100.84c1.32.88,1.61.89,2.38,1.4.69.45,1.4.86,2.12,1.25"/>
    <path class="st2" d="M62.4,102.7c.46.54,1.21,1.12,1.81,1.49.69.43,1.76.78,1.95.83"/>
    <path class="st2" d="M77.63,107.91c.6-.19,1.16.67,1.12.91-.17,1.05-1.51,1.31-2.21,1.18"/>
    <path class="st2" d="M75.57,94.85c-.54.04-1.08-.06-1.62.08"/>
    <path class="st2" d="M53,109.3c.44-.29.25-.71.08-.97-.4-.6-.95-1.04-1.76-1.04-.95,0-1.9-.18-2.82.19-.44.18-.9.31-1.18.73"/>
    <path class="st2" d="M50.05,95.47c-.4.01-.54,3.14-.57,4.4"/>
    <path class="st2" d="M53.04,98.22c-.16,0-.18,2.14.11,2.14"/>
    <path class="st2" d="M51.16,110.83s-.1,0-.1,0c-.25-.81-.94-.65-1.53-.69-.1,0-.21-.04-.31,0"/>
    <path class="st4" d="M67.34,36.78c.62-.16,1.03.35,1.45.66,3.86,3.9,6.34,9.23,7.16,14.64.59,4.08-1.11,8.14-3.29,11.43-.46.83-.9,1.72-.71,2.45.32,1.45,2.72,2.6,3.57.9,1.48-2.66,1.93-5.82,2.74-8.76.1-.31.5-.66.91-.54.44.1.61.54.7.78.5,1.62.59,3.29.74,4.95.54,6.03-.05,12.09-1.58,17.95-.93,3.97-2.83,7.89-5.84,10.73-2.23,2.18-4.93,3.82-7.83,4.94-.96.37-1.94.73-3.01.66-.41-.03-.73-.39-.7-.8.02-.24.15-.45.33-.57.85-.57,1.78-.8,2.68-1.14,6.4-2.2,11.3-7.61,12.78-14.23,1.95-7.11,2.64-15.03,1.2-22.16.04.08.32.18.48.13.15-.03.28-.16.29-.19-.49,1.91-1.02,4.09-1.7,6.03-.55,1.44-1.02,3.28-2.63,4.02-2.36.8-5.01-1.89-3.96-4.21.99-2.31,2.72-4.23,3.42-6.59.64-1.82.85-3.77.69-5.7-.56-4.83-2.67-9.57-5.66-13.39-.58-.63-1.25-1.6-2.1-1.71-.18.11-.33-.18-.13-.26h0Z"/>
    <path class="st4" d="M58.66,13.82c-1.55,3.06-2.39,6.5-2.1,9.82.45,2.83,1.7,7.16,2.4,10.03,1.07,4.08,2.27,8.25,4.28,11.95.28.43.61.91,1.03.9,1.03-.34,2.06-2.17,2.8-3.17.19-.28.57-.35.85-.15.21.15.29.4.24.63-.2.89-.53,1.74-1.01,2.57-.81,1.6-2.92,2.97-4.53,1.5-1.16-1.04-1.64-2.45-2.19-3.76-2.53-6.59-3.91-13.45-5.01-20.41-.12-3.64.99-7.15,2.81-10.15.16-.25.57-.04.43.24h0Z"/>
    <path class="st4" d="M32.93,52.11c4.22,5.5,7.77,3.29,8-3.02.03-2.36-1.46-4.74-2.01-7.51-.59-2.74-.47-5.57.08-8.25,1.29-5.25,3.38-10.47,6.98-14.54,1.88-1.96,3.95-3.63,5.95-5.39,2.05-1.7,3.97-3.64,6.31-4.93.06-.03.11.07.05.1,0,0-.02.01-.02.01-4.2,3.11-7.97,7.1-11.62,10.82-3.28,3.97-5.17,9.22-6.21,14.22-.46,2.54-.5,5.15.09,7.61.58,2.63,2.15,4.98,2.22,7.83.25,4.7-3.1,10.86-8.28,7.07-.77-.45-3.51-3.66-2.17-4.24.25-.08.51.02.64.23h0Z"/>
    <path class="st4" d="M40.96,96.05c-9.04-3.36-16.58-10.93-19.1-20.34-1.87-7.09.83-14.36,3.77-20.76.97-2.15,2.19-4.19,3.58-6.12.09-.12.25-.14.37-.06.12.08.14.25.06.36-1.28,1.93-2.4,3.97-3.29,6.13-2.61,6.27-4.94,13.27-3.06,20.05,2.53,8.8,9.79,15.85,18.36,18.85,1.23.45.57,2.33-.69,1.88h0Z"/>
    <path class="st4" d="M11.05,91.73c-3.62,2.71-2.62,4.21-1.26,7.99.1.23.18.53.37.7.13.12.31.2.5.2l2.34-.26c1.68-.16,3.38-.26,5.08-.23.33,0,.59.28.58.61,0,.27-.19.49-.44.56-2.03.56-4.12.9-6.2,1.17-.22.02-.75.1-.96.12-1.22.19-2.53-.56-2.95-1.73-.04-.09-.12-.36-.17-.46-.82-2.41-1.99-6.06.52-7.86.76-.57,1.65-.87,2.55-.89.04,0,.06.05.03.08h0Z"/>
    <path class="st4" d="M19.42,85.58c-.28.81-.68,1.98-.39,2.74.18.27.65.61.97.81.59.48,2.02.67,1.55,1.69-.13.24-.37.37-.63.38,0,0-5.13.35-5.13.35-.41.03-.77-.28-.8-.7-.03-.41.28-.77.7-.8l5.13-.35-.34,1.39c-.44-.34-.83-.69-1.21-1.08-.42-.47-.78-.79-1-1.46-.13-1.24.5-2.08,1.06-3.03.03-.05.12,0,.09.05h0Z"/>
    <path class="st4" d="M43.43,103.93c-4.08,2.2-8.28,4.16-12.51,6.06-1.65.6-3.42.86-5.17.73-6.35-.64-10.45-3.89-6.47-10.23.19-.32.69-.04.52.29-.59,1.42-1.08,2.99-.95,4.41.07,1.39,1.25,2.29,2.62,2.83,2.76,1.08,5.92,1.29,8.69.13,3.82-1.81,8.46-3.9,12.67-5.52.81-.32,1.38.89.6,1.31h0Z"/>
    <path class="st4" d="M21.51,97.99l13.45-3.81c.18-.05.27.23.09.29,0,0-13.16,4.71-13.16,4.71-.79.28-1.19-.95-.38-1.19h0Z"/>
    <path class="st4" d="M23.06,90.24l6.17.43c.32.02.3.51-.01.51,0,0-6.19.07-6.19.07-.68,0-.65-1.04.03-1h0Z"/>
    <path class="st4" d="M56.33,92.2c-2.17-2.6-6.24-2.2-9.09-1.05-.09.04-.24.09-.31.17-.83,1.13-1.25,2.87-1.27,4.26-.37,4.59-.43,9.22-.81,13.86,0,0-.06-.37-.06-.37.65.92,1.5,1.83,2.4,2.26.93.46,2.33.48,3.42.59,1.24.08,2.55.11,3.61-.14,1.27-.28,2.69-2.2,2.88-3.58-.03-1.18-.33-4.48-.4-5.71,0,0-.51-7.86-.51-7.86-.04-.5.73-.57.79-.07.34,2.56,1.21,9.12,1.5,11.61,0,0,.12.97.12.97.48,2.53-1.17,5.03-3.33,6.19-2.28.8-4.51.53-6.78.37-2.29-.04-4.39-1.93-5.04-4.12.38-4.66.8-9.38,1.3-14.1-.03-.82.48-2.72,1.06-3.82.22-.45.59-1.03,1.16-1.18,3.09-1.11,7.43-1.35,9.64,1.52.13.18-.15.38-.27.2h0Z"/>
    <path class="st4" d="M56.46,107.78c-2.78-2.26-6.88-2.75-10.03-.76-.14.1-.31-.11-.19-.22,2.86-2.93,8.14-2.54,10.76.57.26.35-.25.74-.54.42h0Z"/>
    <path class="st4" d="M29.58,107.23c.76-3.11-1.23-6.5-4.34-7.43-.14-.04-.08-.26.06-.23,3.47.72,5.91,4.31,5.36,7.85-.11.74-1.24.54-1.08-.2h0Z"/>
  </g>
  <path class="st4" d="M79.88,102.83l11.85.15s-.36.17-.35.17c.51-1.28,1.66-2.77,1.37-4.12-.43-1.49-.89-3.5-2.15-4.45-.5-.19-1.17-.24-1.74-.32-2.58-.31-5.18-.5-7.77-.68-.17,0-.18-.29,0-.29,3.33-.06,6.66-.48,9.98-.04,1.27.46,2.04,1.7,2.64,2.71.57,1.07,1.07,2.28,1.09,3.53-.18,1.78-1.4,3.19-2.7,4.27-.09.11-.22.17-.36.17,0,0-11.85.45-11.85.45-1.03.03-1.06-1.55-.02-1.55h0Z"/>
  <path class="st4" d="M78.12,92.76c.14-.41.77-.6,1.09-.83,0,0,1.18-.69,1.18-.69.79-.45,1.59-.89,2.4-1.3l-.41.69c.2-.45.07-1.23-.32-1.59-.58-.46-1.1-.44-1.7-1.06,1.6-1.31,3.49,1.18,3.71,2.72,0,.3-.17.54-.41.69-1.07.76-2.3,1.54-3.43,2.24-.35.17-.82.65-1.24.58-.67-.09-1.1-.81-.87-1.45h0Z"/>
</svg>