<?xml version="1.0" encoding="UTF-8"?>
<svg id="_レイヤー_1" xmlns="http://www.w3.org/2000/svg" xmlns:xlink="http://www.w3.org/1999/xlink" version="1.1" viewBox="0 0 100 120">
  <!-- Generator: Adobe Illustrator 30.0.0, SVG Export Plug-In . SVG Version: 2.1.1 Build 123)  -->
  <defs>
    <style>
      .st0, .st1, .st2 {
        fill: none;
      }

      .st3 {
        fill: #ceb372;
      }

      .st4 {
        fill: #292524;
      }

      .st5 {
        fill: #fff;
      }

      .st6 {
        fill: url(#_新規パターンスウォッチ_4);
      }

      .st7 {
        fill: url(#_新規パターンスウォッチ_1);
      }

      .st1 {
        stroke: #ceb372;
        stroke-width: 9.6px;
      }

      .st2 {
        stroke: #292524;
        stroke-linecap: round;
        stroke-linejoin: round;
        stroke-width: .75px;
      }
    </style>
    <pattern id="_新規パターンスウォッチ_1" data-name="新規パターンスウォッチ 1" x="0" y="0" width="48" height="48" patternTransform="translate(-5935.16 -4764.75) rotate(11.49) scale(.34)" patternUnits="userSpaceOnUse" viewBox="0 0 48 48">
      <g>
        <rect class="st0" width="48" height="48"/>
        <g>
          <path class="st3" d="M24,52.8c2.65,0,4.8-2.15,4.8-4.8s-2.15-4.8-4.8-4.8-4.8,2.15-4.8,4.8,2.15,4.8,4.8,4.8Z"/>
          <path class="st3" d="M48,52.8c2.65,0,4.8-2.15,4.8-4.8s-2.15-4.8-4.8-4.8-4.8,2.15-4.8,4.8,2.15,4.8,4.8,4.8Z"/>
          <path class="st3" d="M24,28.8c2.65,0,4.8-2.15,4.8-4.8s-2.15-4.8-4.8-4.8-4.8,2.15-4.8,4.8,2.15,4.8,4.8,4.8Z"/>
          <path class="st3" d="M48,28.8c2.65,0,4.8-2.15,4.8-4.8s-2.15-4.8-4.8-4.8-4.8,2.15-4.8,4.8,2.15,4.8,4.8,4.8Z"/>
          <path class="st3" d="M36,40.8c2.65,0,4.8-2.15,4.8-4.8s-2.15-4.8-4.8-4.8-4.8,2.15-4.8,4.8,2.15,4.8,4.8,4.8Z"/>
          <path class="st3" d="M12,40.8c2.65,0,4.8-2.15,4.8-4.8s-2.15-4.8-4.8-4.8-4.8,2.15-4.8,4.8,2.15,4.8,4.8,4.8Z"/>
          <path class="st3" d="M36,16.8c2.65,0,4.8-2.15,4.8-4.8s-2.15-4.8-4.8-4.8-4.8,2.15-4.8,4.8,2.15,4.8,4.8,4.8Z"/>
          <path class="st3" d="M12,16.8c2.65,0,4.8-2.15,4.8-4.8s-2.15-4.8-4.8-4.8-4.8,2.15-4.8,4.8,2.15,4.8,4.8,4.8Z"/>
        </g>
        <g>
          <path class="st3" d="M0,52.8c2.65,0,4.8-2.15,4.8-4.8s-2.15-4.8-4.8-4.8-4.8,2.15-4.8,4.8,2.15,4.8,4.8,4.8Z"/>
          <path class="st3" d="M0,28.8c2.65,0,4.8-2.15,4.8-4.8s-2.15-4.8-4.8-4.8-4.8,2.15-4.8,4.8,2.15,4.8,4.8,4.8Z"/>
        </g>
        <g>
          <path class="st3" d="M24,4.8c2.65,0,4.8-2.15,4.8-4.8s-2.15-4.8-4.8-4.8-4.8,2.15-4.8,4.8,2.15,4.8,4.8,4.8Z"/>
          <path class="st3" d="M48,4.8c2.65,0,4.8-2.15,4.8-4.8s-2.15-4.8-4.8-4.8-4.8,2.15-4.8,4.8,2.15,4.8,4.8,4.8Z"/>
        </g>
        <path class="st3" d="M0,4.8c2.65,0,4.8-2.15,4.8-4.8S2.65-4.8,0-4.8-4.8-2.65-4.8,0-2.65,4.8,0,4.8Z"/>
      </g>
    </pattern>
    <pattern id="_新規パターンスウォッチ_4" data-name="新規パターンスウォッチ 4" x="0" y="0" width="72" height="72" patternTransform="translate(-4184.14 -7300.32) rotate(-33.51) scale(.34)" patternUnits="userSpaceOnUse" viewBox="0 0 72 72">
      <g>
        <rect class="st0" width="72" height="72"/>
        <g>
          <line class="st1" x1="71.75" y1="66" x2="144.25" y2="66"/>
          <line class="st1" x1="71.75" y1="42" x2="144.25" y2="42"/>
          <line class="st1" x1="71.75" y1="18" x2="144.25" y2="18"/>
          <line class="st1" x1="71.75" y1="54" x2="144.25" y2="54"/>
          <line class="st1" x1="71.75" y1="30" x2="144.25" y2="30"/>
          <line class="st1" x1="71.75" y1="6" x2="144.25" y2="6"/>
        </g>
        <g>
          <line class="st1" x1="-.25" y1="66" x2="72.25" y2="66"/>
          <line class="st1" x1="-.25" y1="42" x2="72.25" y2="42"/>
          <line class="st1" x1="-.25" y1="18" x2="72.25" y2="18"/>
          <line class="st1" x1="-.25" y1="54" x2="72.25" y2="54"/>
          <line class="st1" x1="-.25" y1="30" x2="72.25" y2="30"/>
          <line class="st1" x1="-.25" y1="6" x2="72.25" y2="6"/>
        </g>
        <g>
          <line class="st1" x1="-72.25" y1="66" x2=".25" y2="66"/>
          <line class="st1" x1="-72.25" y1="42" x2=".25" y2="42"/>
          <line class="st1" x1="-72.25" y1="18" x2=".25" y2="18"/>
          <line class="st1" x1="-72.25" y1="54" x2=".25" y2="54"/>
          <line class="st1" x1="-72.25" y1="30" x2=".25" y2="30"/>
          <line class="st1" x1="-72.25" y1="6" x2=".25" y2="6"/>
        </g>
      </g>
    </pattern>
  </defs>
  <g>
    <path class="st3" d="M31.01,89.88c.76.06,1.29.6,1.87.99.75.5,1.51.98,2.29,1.44.49.29.91.65,1.2,1.15"/>
    <path class="st7" d="M65.38,57.78c-1.44,3.92-2.24,4.52-2.43,5.17-.3,1.03.08,2.46.89,2.81,1.19.51,2.98-1.54,3.17-1.77,2.2-2.57,1.64-5.64,2.62-5.78.66-.09,1.44,1.21,1.77,2.16.43,1.25,0,1.71-.09,4.63-.07,2.2.17,2.18-.06,3.17-.19.77-.51,1.53-.55,2.78-.02.52.03.9.04,1.1.04,2.65-.54,5.08-.85,6.37-.44,1.82-.71,2.93-1.41,4.38-.64,1.34-1.34,2.33-1.92,3.16-1.4,1.98-1.97,2.25-2.86,3.8-.81,1.41-1.05,2.44-1.23,2.89-1.36,3.34-10.96,3.35-26.77,1.68,0,0-17.69-2.41-17.48-5.75.03-.49.67-1.33.85-3.14.06-.61.05-1.12.03-1.46-1.74-2.3-2.52-4.29-2.91-5.71-.5-1.82-.6-3.6-1.39-5.11-.11-.22-.5-.93-.68-1.94-.09-.48-.09-.83-.1-1.27-.05-1.77-.17-2.12-.18-2.88,0-.73.47-2.02,1.18-4.64,1.21-4.45,1.9-4.12,2.68-6.88.99-3.49.34-4.2,1.52-6.71.97-2.06,2.7-4.34,3.66-4.04.93.29.06,2.67,1.75,5.63.31.55,1.28,2.12,3.15,3.07.72.37,1.97,1.01,2.97.5.43-.22.76-.8,1.43-1.95.51-.88.77-1.32.81-1.73.09-.82-.29-1.15-.68-2.47-.15-.52-.23-1.06-.39-2.15-.28-1.94-.34-3.52-.35-4.35-.02-1.42.07-1.56.08-3.05.01-1.75-.1-3.17-.19-4.08.27-1.29.53-2.59.8-3.88.72-2.45,1.45-4.89,2.17-7.34.38-1.16.95-2.64,1.84-4.25,1.31-2.36,2.69-3.91,3.07-4.31,1.17-1.28,1.93-1.78,5.64-4.5,1.06-.78,2.7-1.98,4.74-3.5.32,4.04-.44,6.25-1.26,7.53-.3.48-1.26,1.83-1.7,3.87-.06.28-.19.95-.22,1.76-.07,1.93.51,3.1,1.68,6.29,1.27,3.44,1.48,4.48,1.4,5.14,0,.07-.05.18-.07.35-.12,1.07.59,1.88,1.21,2.8.45.66.73,1.23,1.29,2.38.71,1.45,1.02,2.62,1.4,4.03.85,3.2,1.5,4.73,2.1,4.79.85.09,1.89-1.72,2.27-3.01.21-.7.17-1.08.58-2.62.21-.77.32-1.16.53-1.6.27-.57.92-1.92,1.8-2.05,1.16-.18,2.55,1.79,3.13,3.56.74,2.24.84,3.76.52,6-1,6.99,3,6.74,1.03,12.08Z"/>
    <path class="st5" d="M74,60.56c-1.44,3.92-2.24,4.52-2.43,5.17-.3,1.03.08,2.46.89,2.81,1.19.51,2.98-1.54,3.17-1.77,2.2-2.57,1.64-5.64,2.62-5.78.66-.09,1.44,1.21,1.77,2.16.43,1.25,0,1.71-.09,4.63-.07,2.2.17,2.18-.06,3.17-.19.77-.51,1.53-.55,2.78-.02.52.03.9.04,1.1.04,2.65-.54,5.08-.85,6.37-.44,1.82-.71,2.93-1.41,4.38-.64,1.34-1.34,2.33-1.92,3.16-1.4,1.98-1.97,2.25-2.86,3.8-.81,1.41-1.05,2.44-1.23,2.89-1.36,3.34-10.96,3.35-26.77,1.68,0,0-17.69-2.41-17.48-5.75.03-.49.67-1.33.85-3.14.06-.61.05-1.12.03-1.46-1.74-2.3-2.52-4.29-2.91-5.71-.5-1.82-.6-3.6-1.39-5.11-.11-.22-.5-.93-.68-1.94-.09-.48-.09-.83-.1-1.27-.05-1.77-.17-2.12-.18-2.88,0-.73.47-2.02,1.18-4.64,1.21-4.45,1.9-4.12,2.68-6.88.99-3.49,4.22-11.06,5.18-10.75.93.29.06,2.67,1.75,5.63.31.55,1.28,2.12,3.15,3.07.72.37,1.97,1.01,2.97.5.43-.22.76-.8,1.43-1.95.51-.88.77-1.32.81-1.73.09-.82-.29-1.15-.68-2.47-.15-.52-.23-1.06-.39-2.15-.28-1.94-.34-3.52-.35-4.35-.02-1.42.07-1.56.08-3.05.01-1.75-.1-3.17-.19-4.08.27-1.29.53-2.59.8-3.88.72-2.45,1.45-4.89,2.17-7.34.38-1.16.95-2.64,1.84-4.25,1.31-2.36,2.69-3.91,3.07-4.31,1.17-1.28,1.93-1.78,5.64-4.5,1.06-.78,2.7-1.98,4.74-3.5.32,4.04-.44,6.25-1.26,7.53-.3.48-1.26,1.83-1.7,3.87-.06.28-.19.95-.22,1.76-.07,1.93.51,3.1,1.68,6.29,1.27,3.44,1.48,4.48,1.4,5.14,0,.07-.05.18-.07.35-.12,1.07.59,1.88,1.21,2.8.45.66.73,1.23,1.29,2.38.71,1.45,1.02,2.62,1.4,4.03.85,3.2,1.5,4.73,2.1,4.79.85.09,1.89-1.72,2.27-3.01.21-.7.17-1.08.58-2.62.21-.77.32-1.16.53-1.6.27-.57.92-1.92,1.8-2.05,1.16-.18,2.55,1.79,3.13,3.56.74,2.24,2.1,2.94,2.85,6.57,1.43,6.92.66,6.17-1.3,11.51Z"/>
    <path class="st3" d="M28.11,87.36c-4.45-.77-8.19-2.17-8.2-2.17,0,0-1.07,1.9-.71,3.3.35,1.35,1.85,1.58,1.77,2.07-.19,1.15-8.52-1.22-11.73,2.27-2.28,2.48-1.8,7.71.39,9.1,2.45,1.55,6.34-2.13,8.34-.42,1.27,1.08,0,2.81,1.27,4.96,1.66,2.82,6.04,3.6,9.07,3.25,1.34-.16,1.86-.47,6.59-2.75,7.14-3.45,8.86-4.15,9.54-3.49.88.86-1.21,2.85-.43,5.29.95,2.95,5.74,5.43,9.61,3.88,1.84-.74,3.62-2.44,4.09-4.59.61-2.84-1.42-4.96-.86-5.42.83-.67,5.04,4.04,12.24,8.26,5.3,3.1,6.76,2.74,7.45,2.45,1.8-.77,7.24-6.98,2.59-9.79,1.17-.26,5.31-.2,5.81-.21,2.08-.05,4.89,1.08,6.48.05,1.7-1.11,2.03-5.47.06-7.81-3.37-3.99-12.82-1.44-12.96-2.44-.09-.62,3.39-1.23,3.83-3.03.4-1.66-2.22-2.36-2.22-2.36,0,0-3.43,1.6-6,3.28-3.61,2.36-14.1,9.23-16.63,7.13-1.32-1.09.7-3.63-.97-6.06-1.87-2.72-7.11-3.48-9.4-1.48-1.45,1.27-.67,2.74-2.13,3.86-2.12,1.63-5.82.13-8.64-1.02-3.31-1.35-4.87-3.02-5.36-3.58-.96-1.1-1.85-2.34-2.9-2.52Z"/>
    <path class="st2" d="M41.73,100.14c-.84.19-1.64.47-2.43.8-1.03.43-2.01.94-3.03,1.37"/>
    <path class="st2" d="M23.94,103.77c-.13.07-.77.39-1.04,1.16-.05.15-.3.9.12,1.62.36.63.99.82,1.3.91.8.24,1.48.02,1.76-.08.6-.21,1-.55,1.21-.75"/>
    <path class="st2" d="M26.41,104.77c.06-.07.66-.75.45-1.59-.15-.59-.6-.9-.76-1.01-.47-.32-.92-.34-1.76-.38-.67-.03-1.31-.05-2.07.24-.42.16-.8.3-1.1.66-.68.81-.37,2-.31,2.19"/>
    <path class="st2" d="M15.69,95.5c-.95-.08-1.9-.11-2.86-.16-.19,0-.38-.03-.57,0"/>
    <path class="st2" d="M37.39,99.42c-1.04.27-2.01.7-2.88,1.35"/>
    <path class="st2" d="M21.13,96.93c-.94.12-1.87,0-2.81-.03"/>
    <path class="st2" d="M15.15,98.06c-.19.09-.39.05-.58.04-.57-.02-1.14-.09-1.7.06"/>
    <path class="st2" d="M28.51,104.82c-.08.27-.21.62-.46.96"/>
    <path class="st6" d="M58.22,95.09c.32-.18.59-.49.96-.51.41-.02.74-.2,1.05-.39,1.53-.92,2.93-2.02,4.37-3.06.76-.55,1.32-1.21,1.71-2.06.61-1.34,1.06-2.75,1.79-4.04.48-.84.66-1.76.71-2.73.08-1.53.12-3.06-.06-4.59-.17-1.42-.25-2.86-1.16-4.07-.13-.17-.2-.38-.29-.58-.31-.7-.41-1.54-1.21-1.94,0,0-.02,0-.02-.01-.61.44-.63,1.14-.72,1.76-.15,1.13-.62,2.08-1.31,2.96-.51.66-1.22.74-1.95.52-.67-.2-1-.73-1.1-1.44-.07-.55-.02-1.08.02-1.62.06-.81.12-1.63.08-2.44-.03-.59.08-1.18.11-1.76.13-2.23.16-4.47.25-6.71.04-.99-.19-1.98-.44-2.93-.43-1.68-.92-3.35-1.78-4.88-.93-1.65-2.13-3.06-3.61-4.23-.56-.44-1.11-.88-1.65-1.34-.67-.57-1.01-1.38-1.42-2.14-.29-.54-.59-1.06-1.31-1.1h-.12c.04.18.03.38-.05.62-.11.32.02.67.15.99.35.89.5,1.83.43,2.78-.06.74.17,1.46.06,2.19-.17,1.14-.04,2.29-.21,3.43-.1.67-.33,1.32-.58,1.95-.4,1-.53,2.01-.53,3.06,0,1.42-.32,2.74-1.06,3.97-.31.52-.57,1.08-.88,1.62-.15.27-.36.5-.6.71-.54.47-1.04.35-1.34-.32-.4-.89-.61-1.83-.91-2.75-.24-.74-.48-1.48-.58-2.26-.14-1.05-.11-2.03.7-2.84.38-.38.55-.85.33-1.39-.23-.56-.55-.69-1.07-.41-.45.24-.75.63-1.09.99-.69.75-1.44,1.45-2.15,2.18-1.18,1.21-1.62,2.7-1.86,4.3-.22,1.5-.24,3.02-.18,4.52.04,1.04-.1,2.09.09,3.13.09.49.21.98.3,1.47.16.86-.28,1.38-1.16,1.35-.26,0-.53.01-.78-.04-.56-.12-.99-.42-1.21-.99-.34-.92-.94-1.68-1.57-2.4-.43-.49-.75-1.05-1.09-1.59-.02-.02-.03-.05-.04-.08-.74.3-.91.97-1.09,1.61-.17.62-.45,1.18-.77,1.73-.43.74-.45,1.56-.29,2.33.43,2.14.8,4.28,1.25,6.42.2.94.44,1.87.83,2.74.22.51.34,1.03.53,1.55.58,1.63,1.54,2.99,2.77,4.2,1.03,1.01,2.35,1.55,3.45,2.43.57.45.58.43.42,1.12-.02.07,0,.14-.01.21"/>
    <path class="st4" d="M59.3,103.78c4.54,2.72,9.45,5.77,13.94,8.61.91.63,2.09.75,3.11.43.65-.41,2.22-1.36,2.97-2.18,1.09-1.46,1.32-3.94,1.34-5.75,0,0,0-.03,0-.03,0-.02.01.03.02.04.06.09.18.16.28.15,0,0-.18-.05-.18-.05l-12.05-7.11c-.21-.11-.02-.45.19-.33,0,0,12.24,6.79,12.24,6.79l-.18-.05h.01c.17,0,.36.18.39.32.19.89.08,1.82.01,2.72-.18,1.38-.36,2.85-1.28,4.01-.97,1.05-2.14,1.82-3.36,2.53-1.37.46-2.95.3-4.12-.52,0,0-1.06-.68-1.06-.68-4.11-2.63-8.63-5.54-12.66-8.26-.39-.26,0-.88.4-.63h0Z"/>
    <path class="st2" d="M77.88,105.84c-1.54.32-2.56,1.35-3.45,2.55-.22.3-.33.65-.37,1.02-.06.63.22,1.48,1.12,1.66"/>
    <path class="st2" d="M80.32,97.07c1.36.15,2.64.66,3.96.96.5.11.99.19,1.51.18"/>
    <path class="st2" d="M81.22,99.95c1.04,0,2.08-.01,3.12.14.03,0,.07-.06.11-.07"/>
    <path class="st2" d="M71.08,101.6c-.31-.31-1.06-.7-1.38-.84-.72-.32-1.41-1.01-2.15-1.28"/>
    <path class="st2" d="M64.2,100.84c1.32.88,1.61.89,2.38,1.4.69.45,1.4.86,2.12,1.25"/>
    <path class="st2" d="M62.4,102.7c.46.54,1.21,1.12,1.81,1.49.69.43,1.76.78,1.95.83"/>
    <path class="st2" d="M77.63,107.91c.6-.19,1.16.67,1.12.91-.17,1.05-1.51,1.31-2.21,1.18"/>
    <path class="st2" d="M75.57,94.85c-.54.04-1.08-.06-1.62.08"/>
    <path class="st2" d="M53,109.3c.44-.29.25-.71.08-.97-.4-.6-.95-1.04-1.76-1.04-.95,0-1.9-.18-2.82.19-.44.18-.9.31-1.18.73"/>
    <path class="st2" d="M50.05,95.47c-.4.01-.54,3.14-.57,4.4"/>
    <path class="st2" d="M53.04,98.22c-.16,0-.18,2.14.11,2.14"/>
    <path class="st2" d="M51.16,110.83s-.1,0-.1,0c-.25-.81-.94-.65-1.53-.69-.1,0-.21-.04-.31,0"/>
    <path class="st4" d="M67.36,36.82c.59-.14.99.35,1.4.65,3.83,3.89,6.28,9.23,7.08,14.61.57,4.07-1.13,8.05-3.31,11.35-.46.84-.93,1.74-.74,2.55.35,1.6,2.93,2.77,3.86.96,1.5-2.67,1.96-5.83,2.78-8.78.05-.08.06-.17.24-.33.19-.17.6-.12.75.08.28.34.28.54.39.88,1.4,7.41.88,15.1-1.02,22.37-1.3,6-5.23,11.39-10.75,14.19-.97.51-6.05,3.04-6.27,1.49,0-.2.11-.38.27-.46,1.77-.85,3.66-1.26,5.37-2.22,5.26-2.61,8.95-7.58,10.26-13.28,1.92-7.21,2.69-15.05,1.1-22.35.06.1.34.11.42.02.09-.08.04-.05.04-.02-.51,1.99-1.01,4.08-1.69,6.05-.56,1.82-1.77,4.86-4.24,3.9-2.53-.94-2.79-3.3-1.36-5.37,3.72-5.21,4.47-10.72,1.96-16.66-1.24-3.2-2.84-6.37-5.3-8.8-.31-.28-.77-.72-1.18-.64-.12.07-.2-.15-.07-.19h0Z"/>
    <path class="st4" d="M58.63,13.8c-1.59,3.04-2.42,6.5-2.15,9.84.45,2.86,1.67,7.17,2.37,10.06.82,3.36,1.86,6.61,3.19,9.79.47,1.07.92,2.26,1.74,3,.23.18.36.2.54.19,1.13-.36,2.12-2.22,2.86-3.3.15-.24.46-.3.7-.15.19.12.27.35.22.56-.37,1.33-.93,2.67-1.95,3.7-2.77,2.62-4.75-1.06-5.56-3.4-2.54-6.57-3.93-13.42-5.06-20.36-.14-3.61.98-7.11,2.75-10.12.13-.21.48-.04.36.2h0Z"/>
    <path class="st4" d="M32.81,52.17c4.17,5.84,8.17,3.45,8.34-3.08.01-2.44-1.49-4.82-2.03-7.55-.59-2.71-.48-5.51.06-8.17,1.27-5.23,3.3-10.41,6.89-14.5,1.86-1.96,3.93-3.64,5.91-5.41,2.06-1.66,3.99-3.8,6.33-4.95-4.1,3.04-8.13,7.14-11.73,10.82-3.32,3.98-5.23,9.23-6.3,14.26-.47,2.56-.52,5.19.07,7.69.57,2.63,2.13,4.98,2.2,7.79.02,1.44-.21,2.83-.67,4.18-1.02,3.3-4.2,5.07-7.27,2.7-1.18-.88-2.06-2.06-2.54-3.41-.08-.22.03-.46.25-.54.2-.07.41.01.51.18h0Z"/>
    <path class="st4" d="M41.02,95.9c-9-3.33-16.52-10.86-19.04-20.22-1.87-7.06.8-14.31,3.71-20.7.97-2.15,2.17-4.19,3.55-6.12.07-.1.21-.12.31-.05.1.07.12.21.05.31-1.29,1.93-2.42,3.97-3.31,6.13-2.64,6.28-5,13.31-3.11,20.11,2.53,8.85,9.81,15.95,18.42,18.97,1.02.37.48,1.95-.58,1.57h0Z"/>
    <path class="st4" d="M11.05,91.73c-1.17.92-2.62,1.96-2.64,3.48.07,1.57.81,3.47,1.45,5.07.15.29.46.49.79.5,0,0,2.37-.26,2.37-.26,1.68-.16,3.37-.28,5.07-.28.58-.02.69.87.12.99-2.04.5-4.14.84-6.21,1.11-1.05.17-2.24.3-3.1-.56-.42-.36-.65-.92-.81-1.42-.29-.81-.55-1.64-.74-2.5-.49-1.7-.46-4.16,1.18-5.25.36-.41,2.43-1.18,2.51-.88h0Z"/>
    <path class="st4" d="M19.41,85.57c-.32.84-.76,1.95-.5,2.79.44.69,1.47,1.26,2.22,1.67.24.14.32.44.18.68-.09.15-.24.24-.41.25,0,0-5.13.35-5.13.35-.28.02-.51-.19-.53-.47s.19-.51.47-.53l5.13-.35-.22.93c-.44-.32-.83-.65-1.22-1.01-.37-.39-.77-.71-.99-1.35-.15-1.16.44-2.05.95-2.99.02-.04.08,0,.06.03h0Z"/>
    <path class="st4" d="M43.34,103.73c-4.12,2.13-8.33,4.05-12.54,5.98-1.6.59-3.33.85-5.03.74-6.28-.64-10.17-3.6-6.41-9.92.13-.23.49-.03.36.2-.63,1.42-1.15,2.98-1.05,4.46.05,1.48,1.31,2.47,2.7,3.04,2.74,1.16,6.27,1.31,8.85.22,4.21-1.94,8.41-3.89,12.7-5.63.57-.23.98.62.42.91h0Z"/>
    <path class="st4" d="M21.51,97.99l13.45-3.81c.18-.05.27.23.09.29,0,0-13.16,4.71-13.16,4.71-.79.28-1.19-.95-.38-1.19h0Z"/>
    <path class="st4" d="M23.06,90.24l6.17.43c.32.02.3.51-.01.51,0,0-6.19.07-6.19.07-.68,0-.65-1.04.03-1h0Z"/>
    <path class="st4" d="M56.38,92.17c-2.23-2.7-6.46-2.26-9.39-1.04-.98.94-1.43,3.13-1.47,4.43-.4,4.59-.49,9.22-.89,13.85,0,.03-.04-.25-.04-.25.99,1.54,2.22,2.77,4.1,2.88,3.02.25,6.44,1.03,8.09-2.22.35-.64.63-1.28.56-1.95-.03-.3-.09-1.16-.12-1.47,0,0-.32-3.92-.32-3.92l-.59-7.84c-.03-.34.51-.4.54-.05.31,2.57,1.12,9.15,1.39,11.63,0,0,.11.97.11.97.44,2.22-.95,4.34-2.67,5.6-1.54.93-3.52.78-5.16.76-3.13.02-5.65-.81-6.85-3.98.34-4.65.75-9.38,1.21-14.07,0-1.02.46-2.64,1.03-3.78.22-.44.55-.99,1.1-1.13,3.06-1.12,7.35-1.38,9.55,1.45.09.13-.1.26-.19.14h0Z"/>
    <path class="st4" d="M56.46,107.78c-2.78-2.26-6.88-2.75-10.03-.76-.14.1-.31-.11-.19-.22,2.86-2.93,8.14-2.54,10.76.57.26.35-.25.74-.54.42h0Z"/>
    <path class="st4" d="M29.58,107.23c.76-3.11-1.23-6.5-4.34-7.43-.14-.04-.08-.26.06-.23,3.47.72,5.91,4.31,5.36,7.85-.11.74-1.24.54-1.08-.2h0Z"/>
  </g>
  <path class="st4" d="M79.89,103.05l11.85.06-.25.12c.64-1.27,1.63-2.54,1.61-3.97-.35-1.58-.94-3.43-2.05-4.6-.26-.25-.46-.34-.91-.4-2.98-.53-6.27-.36-9.14-.83,2.95-.34,6.22-.21,9.27-.12.47.01,1.11.2,1.47.52,1.49,1.29,2.25,2.98,2.7,4.83.29,1.02-.16,2.1-.68,2.93-.54.78-1.19,1.77-2.01,2.2,0,0-11.85.36-11.85.36-.73.02-.75-1.1-.01-1.1h0Z"/>
  <path class="st4" d="M78.3,93.06c.24-.34.79-.55,1.12-.78,1.14-.68,2.39-1.41,3.55-2.04,0,0-.24.41-.24.41.11-.57-.07-1.34-.52-1.76-.55-.49-1.19-.52-1.84-.92,1.15-.63,2.5.42,3,1.48.14.43.63,1.23.16,1.62-.77.51-1.55,1.01-2.33,1.5,0,0-1.16.71-1.16.71-.36.19-.79.58-1.21.63-.45.06-.78-.49-.52-.86h0Z"/>
</svg>