<?xml version="1.0" encoding="UTF-8"?>
<svg id="_レイヤー_1" xmlns="http://www.w3.org/2000/svg" version="1.1" viewBox="0 0 100 120">
  <!-- Generator: Adobe Illustrator 30.0.0, SVG Export Plug-In . SVG Version: 2.1.1 Build 123)  -->
  <defs>
    <style>
      .st0 {
        fill: #ceb372;
      }

      .st1 {
        fill: #fff;
      }

      .st2 {
        fill: #1a1a1a;
      }
    </style>
  </defs>
  <path class="st0" d="M29.8,90.28c.81.03,1.39.57,2.02.95.82.49,1.64.96,2.48,1.4.53.28.99.64,1.32,1.16"/>
  <path class="st1" d="M74.35,57.33c-.4,1.92-.87,3.82-1.55,5.66-.44,1.2-.89,2.41-1.09,3.7-.15.98.51,2.12,1.14,2.41.96.45,1.57.32,2.39-.52,1.3-1.33,2.02-3,2.45-4.83.13-.55.34-3.03.68-4.51.08-.33.5-.38.64-.08.36.77,1.02,1.47.99,2.34,0,.18.22,2.7.31,3.32.27,1.75.67,2.98.55,4.12-.06.55.08,1.01.09,1.24.17,3-.32,5.78-.6,7.26-.38,2.08-.62,3.35-1.29,5.03-.62,1.55-1.31,2.71-1.9,3.67-1.4,2.31-2,2.64-2.88,4.45-.8,1.64-1,2.81-1.18,3.33-1.29,3.86-11.57,4.36-28.58,3.3-8.47-.53-15.92-1.27-19-5.59-1.4-1.96-2.68-4.66-2.68-4.66-1.08-2.3-1.81-4.72-2.48-7.18-.57-2.1-.83-4.22-.97-6.37-.05-.79.04-1.58.16-2.36.19-1.17.05-2.37.2-3.53.24-1.79.66-3.54,1.03-5.31.32-1.52.93-2.95,1.39-4.42.72-2.34,1.57-4.62,2.69-6.77.67-1.29,1.62-2.38,2.4-3.59.18-.29.52-.43.82-.61.09-.05.18-.09.28-.12.61.71.57,1.59.49,2.43-.09.91.11,1.74.47,2.53.42.91.73,1.87,1.16,2.78.59,1.23,1.38,2.23,2.62,2.78.25.11.5.15.74.25.02-.02.04-.03.1-.04.29-.05.56-.02.84,0,.59.04,1.26.13,1.71-.3.78-.73,1.4-1.65,1.72-2.7.39-1.27.32-2.56-.19-3.83-.45-1.12-.75-2.32-.83-3.53-.07-1.02-.27-2-.4-3.01-.24-1.9-.66-3.78-.64-5.72,0-1.14,0-2.28-.02-3.42-.03-1.87.39-3.69.87-5.48l2.72-10.2c.84-1.88,1.69-3.77,1.69-3.77.67-1.49,1.67-2.71,2.73-3.89,1.32-1.46,2.72-2.83,4.13-4.18,1.53-1.46,3.05-2.93,4.73-4.19.59-.44,1.26-.66,1.94-.51.24,1.13-.26,2.01-.76,2.94-.76,1.4-1.35,2.87-1.63,4.47-.12.66-.13,1.34-.15,2-.04,1.79-.09,3.58.11,5.36.26,2.43.87,4.8,1.34,7.19.26,1.34.49,2.7,1.06,3.95.7,1.53,1.29,3.11,1.92,4.67.55,1.36,1.19,2.67,1.82,3.99.55,1.14.93,2.33,1.27,3.54.47,1.67.98,3.34,1.45,5.01.07.26.17.5.34.7.17.2.27.41.31.63.94-.21,1.42-.87,1.76-1.74.49-1.26,1-2.51,1.5-3.78.6-1.55,1.08-3.12.9-4.83-.05-.44-.02-.88.12-1.29.05-.13.06-.25.05-.37.67.06,1.28.31,1.77.78.81.77,3.59,4.48,3.85,4.83"/>
  <path class="st1" d="M28.22,88.27c-3.52-3.41-10.34-2.39-10.34-2.39,0,0-1.03,2.05-.58,3.51.43,1.4,2.03,1.58,1.97,2.1-.14,1.23-9.03-.87-12.25,2.97-2.28,2.72-1.53,8.21.86,9.57,2.66,1.51,6.57-2.55,8.77-.84,1.39,1.08.14,2.96,1.58,5.16,1.89,2.89,6.54,3.5,9.71,2.98,1.4-.23,1.94-.58,6.81-3.22,7.35-3.98,9.13-4.81,9.88-4.14.97.86-1.14,3.06-.19,5.59,1.14,3.06,6.31,5.44,10.31,3.63,1.9-.86,3.7-2.75,4.08-5.03.51-3.02-1.74-5.16-1.16-5.67.84-.74,5.51,4.02,13.3,8.1,5.73,3.01,7.26,2.56,7.96,2.22,1.86-.9,1.68-2.88,5.39-7.89,1.81-2.43,2.5-2.84,2.98-3.06,2.89-1.32,5.21.9,6.83-.26,1.74-1.25,1.88-5.86-.32-8.24-3.74-4.04-13.57-.89-13.77-1.94-.12-.65,3.74-1.43,3.88-3.38.06-.77-.47-1.56-1.1-1.92-1.82-1.03-4.89,1.39-7.51,3.28-3.69,2.67-14.41,10.41-17.18,8.32-1.44-1.09.56-3.86-1.32-6.34-2.11-2.78-7.66-3.32-9.98-1.1-1.47,1.41-.57,2.91-2.06,4.17-2.15,1.82-6.13.41-9.15-.66-3.55-1.26-5.27-2.95-5.82-3.51-1.06-1.11-.77-1.23-1.58-2.01h0Z"/>
  <path class="st2" d="M29.51,90.69c.45.03.86.32,1.21.56.49.33.99.62,1.5.91.95.54,2.09.95,2.71,1.91.17.26.76.1.98,0s.57-.31.4-.58c-.31-.48-.73-.83-1.22-1.11-.58-.34-1.19-.65-1.78-.99-.53-.3-1.04-.62-1.55-.95s-1.05-.55-1.67-.59c-.32-.02-.79.12-.97.4-.2.3.17.41.4.42h0v.02Z"/>
  <path class="st2" d="M73.4,54.64c-.26,1.17-.54,2.33-.9,3.47-.33,1.08-.77,2.11-1.15,3.18-.32.9-.74,1.98-.52,2.94.19.83.76,1.52,1.56,1.81,1.86.66,3.36-.74,4.33-2.19s1.4-2.96,1.61-4.58c.11-.85.22-1.7.39-2.54,0-.04.08-.31.07-.32l-.36.11c-.32-.03-.43.02-.33.16-.01.12.25.43.32.54.27.42.5.83.54,1.33.09,1.14.16,2.29.35,3.43.17.97.47,1.95.52,2.95.05,1.09.1,2.19.09,3.28-.01,1.19-.07,2.37-.12,3.56s0,2.44-.08,3.64-.5,2.35-.95,3.47c-.49,1.22-.99,2.43-1.45,3.66s-.87,2.41-1.58,3.52c-.61.96-1.53,1.87-1.65,3.06-.06.64,1.43.39,1.48-.16.1-1.05.94-1.88,1.49-2.73.58-.9,1-1.83,1.36-2.83.76-2.14,1.79-4.21,2.43-6.38.33-1.11.33-2.18.35-3.32s.08-2.37.13-3.56.09-2.37.05-3.55c-.02-.51-.09-1.01-.08-1.52,0-.41-.02-.81-.09-1.21-.25-1.58-.57-3.1-.71-4.69-.06-.62.02-1.04-.21-1.61-.15-.39-.4-.73-.62-1.08s-.32-.69-.75-.79c-1.96-.5-1.9,2.42-2.06,3.61-.22,1.64-.64,3.2-1.59,4.59-.31.45-.69.91-1.12,1.25-.37.29-.74.2-1.12-.08-1.05-.77-.77-2.1-.46-3.16.35-1.18.86-2.3,1.25-3.47.42-1.29.75-2.6,1.04-3.92.13-.6-1.36-.39-1.48.16h0l.02-.03Z"/>
  <path class="st2" d="M42.46,15.65c1.24-2.53,3.54-4.52,5.58-6.4,1.06-.98,2.13-1.96,3.22-2.9.56-.48,1.14-.95,1.73-1.4s1.07-.88,1.83-.76l-.47-.3c.24,1.38-.83,2.58-1.38,3.76s-.98,2.5-1.08,3.82c-.23,2.95-.09,5.92.5,8.82.29,1.43.64,2.84.93,4.27s.64,2.69,1.25,3.99,1.12,2.62,1.69,3.92c.59,1.37,1.32,2.67,1.95,4.03.67,1.44,1.07,2.99,1.54,4.51.24.78.48,1.55.72,2.33.11.37.2.76.37,1.11.15.29.38.51.48.83.1.34.6.33.86.27.9-.22,1.63-.75,2.09-1.56.6-1.07.99-2.3,1.46-3.43.45-1.07.89-2.15,1.09-3.3.1-.55.12-1.11.09-1.67-.02-.31-.06-.61-.02-.92.04-.29.16-.55.17-.83l-1.01.57c1.23.13,2.1,1.21,2.89,2.07.84.91,1.59,1.9,2.23,2.96.31.52,1.73,0,1.36-.63-.75-1.25-1.66-2.39-2.68-3.44-.96-.98-1.85-1.82-3.27-1.97-.31-.03-1,.15-1.01.57-.01.46-.2.87-.19,1.34.02.52.07,1.02.02,1.54-.1,1.02-.42,1.99-.8,2.93-.4.99-.83,1.97-1.24,2.96-.31.74-.56,1.66-1.43,1.88l.86.27c-.15-.54-.54-.93-.71-1.47-.23-.74-.45-1.48-.68-2.22-.42-1.37-.8-2.77-1.31-4.11s-1.28-2.67-1.91-4.01-1.13-2.63-1.7-3.95-1.14-2.49-1.45-3.86-.62-2.87-.94-4.3-.6-2.88-.72-4.34c-.13-1.56-.09-3.14-.02-4.71s.48-3.04,1.17-4.44c.64-1.3,1.58-2.46,1.31-3.98-.04-.21-.3-.28-.47-.3-1.62-.26-2.87.78-4.06,1.73-1.3,1.04-2.52,2.17-3.75,3.29-2.35,2.14-5.06,4.4-6.48,7.31-.35.72,1.13.67,1.4.13h0Z"/>
  <path class="st2" d="M59.29,94.51c.08-.06.21-.12.27-.2,0,0,.22-.2.08-.11s.18-.05.25-.06c.1-.02.2-.05.29-.08.51-.16.95-.43,1.39-.72.97-.66,1.89-1.39,2.8-2.13.81-.65,1.72-1.26,2.39-2.06.63-.74.97-1.62,1.3-2.53.39-1.1.76-2.2,1.27-3.26.46-.95.65-1.93.67-2.98.04-2.26-.09-4.55-.6-6.76-.13-.56-.3-1.11-.58-1.63s-.62-.89-.86-1.39c-.39-.81-.59-1.62-1.44-2.06-.41-.21-1.04,0-1.37.29-.94.84-.64,2.27-1.02,3.37-.22.63-.54,1.35-1,1.85-.42.46-1.17,0-1.45-.44-.36-.57-.34-1.33-.33-1.98,0-.79.05-1.58.02-2.36-.05-1.62,0-3.23,0-4.84s0-3.37-.07-5.04c-.07-1.55-.65-3.11-1.17-4.57-.97-2.72-2.52-5.16-4.76-7.02-1.28-1.06-2.82-1.8-3.7-3.25-.31-.52-.57-1.11-.99-1.56s-.92-.52-1.49-.53c-.22,0-1.11.17-1.05.54.08.44-.11.84.02,1.29.17.59.46,1.12.6,1.72.12.53.14,1.05.16,1.6,0,.62.16,1.22.18,1.84.02.55-.06,1.11-.05,1.67,0,.6.04,1.21.03,1.81-.04,1.28-.58,2.39-.82,3.63-.2,1.06-.09,2.11-.15,3.18-.06,1.16-.4,2.24-.91,3.27-.25.51-.48,1.02-.74,1.53-.13.25-.26.48-.44.69-.09.1-.38.49-.1.17.17-.03.2-.08.1-.14-.09-.09-.17-.19-.22-.31-.54-.98-.82-2.13-1.21-3.17-.37-.98-.71-2.02-.72-3.08,0-.46.08-.92.31-1.33.24-.44.66-.75.78-1.25.18-.77-.32-1.56-1.11-1.57-.9-.02-1.71.54-2.27,1.19-.71.82-1.41,1.62-2.14,2.42-.69.75-1.27,1.54-1.63,2.5-.76,2.03-.74,4.36-.61,6.49.08,1.34.02,2.75.27,4.06.11.6.32,1.17.44,1.77.04.22.08.44.02.66-.02.07-.06.18-.11.25-.12.15.05.02-.13.04-1.39.19-1.66-1.15-2.3-2.05-.73-1.03-1.72-1.84-2.34-2.96-.19-.34-.93-.07-1.17.06-.75.39-1.11.96-1.31,1.77-.11.44-.22.88-.4,1.3-.21.51-.52.97-.64,1.51-.23,1.03.11,2.04.35,3.03.27,1.12.53,2.24.8,3.35s.53,2.28.89,3.38c.34,1.03.81,2.01,1.2,3.02.69,1.79,1.88,3.38,3.33,4.63.86.74,1.9,1.22,2.87,1.81.37.22.92.48,1.19.82.23.28.05.67.05,1.01,0,.31,1.47.09,1.48-.4,0-.27.14-.6.05-.87-.08-.24-.33-.39-.52-.53-.77-.56-1.62-.98-2.43-1.46-1.63-.97-3.01-2.43-3.93-4.08-.47-.84-.72-1.76-1.12-2.63-.44-.96-.79-1.92-1.05-2.94-.56-2.14-1.04-4.31-1.56-6.46-.14-.6-.26-1.19-.15-1.81.1-.55.4-1.01.62-1.52s.33-.97.46-1.48c.11-.45.26-.94.7-1.17l-1.17.06c.54.97,1.34,1.73,2.04,2.58.41.49.71,1.02,1,1.58.19.38.42.67.81.87,1.18.61,4.12.38,4.01-1.44-.03-.55-.26-1.1-.39-1.64-.15-.62-.21-1.23-.24-1.86-.05-1.3-.16-2.61-.19-3.91-.04-2.3.11-4.95,1.64-6.81.77-.93,1.65-1.78,2.42-2.71.16-.2.32-.41.51-.59l.1-.08c.19-.13.11-.15-.23-.08,0-.02.19.17.18.17.38.71.26,1.09-.2,1.71-1.37,1.83-.22,4.17.43,6.05.19.56.38,1.12.61,1.66.18.43.38.96.83,1.17.8.38,1.84-.15,2.4-.73.35-.37.56-.81.78-1.27.28-.6.61-1.19.87-1.8.44-1.03.64-2.15.65-3.26,0-.75-.04-1.48.06-2.23s.35-1.37.55-2.05c.41-1.38.3-2.72.31-4.14,0-.68.09-1.33,0-2s-.08-1.38-.15-2.07-.25-1.36-.52-2c-.15-.36-.29-.67-.26-1.06.02-.27.08-.47.03-.74l-1.05.54c.58,0,.92.6,1.17,1.04.34.58.66,1.19,1.1,1.7.52.6,1.25,1.05,1.89,1.51s1.23.9,1.8,1.42c2.42,2.21,3.74,5.05,4.68,8.14.24.77.46,1.55.56,2.35.11.9.06,1.83.07,2.74.03,1.76.09,3.53.03,5.29-.05,1.64-.02,3.3,0,4.94,0,1.26.37,2.39,1.74,2.62.7.12,1.44.01,2.07-.3.63-.31,1.06-.9,1.41-1.52.4-.71.67-1.48.77-2.28.09-.74.03-1.47.63-2.01l-1.37.29c.75.39.94,1.05,1.28,1.78.38.83.99,1.49,1.29,2.38.66,1.95.79,4.18.82,6.22.02,1.09.05,2.19-.28,3.24s-.86,1.95-1.22,2.95-.62,2-1.13,2.88-1.34,1.48-2.13,2.12c-.97.79-1.94,1.58-2.96,2.31-.48.34-.88.53-1.43.7-.48.15-.83.46-1.23.74-.26.18-.15.34.11.4.32.07.78-.1,1.04-.28h0v-.04Z"/>
  <path class="st2" d="M21.55,91.8c-.58-.2-1.12-.48-1.7-.66-.25-.08-.5-.13-.76-.12-.32.02-.54.2-.83.27-.55.13-1.23.02-1.8.05-.73.04-1.46.1-2.18.16-1.42.1-2.81.21-4.22.44-1.03.17-2.22.23-2.92,1.11-1.46,1.83-1.84,4.45-1.66,6.71.09,1.17.38,2.31.89,3.37.38.78.7,1.38,1.65,1.3,1.31-.12,2.65-.34,3.97-.33.75,0,1.47-.06,2.21-.13s1.61-.18,2.27.18c.41.22,1.77-.38,1.18-.7-.87-.48-2.04-.38-3-.29-1.13.1-2.27.09-3.4.2-.59.06-1.16.1-1.75.11-.23,0-.46.03-.68.07-.09.02-.18.04-.27.05-.08.01-.31,0-.21.04s-.1-.19-.13-.23c-.14-.21-.25-.44-.36-.67-.23-.48-.42-.98-.56-1.49-.57-2.07-.51-4.41.27-6.42.19-.5.44-.98.73-1.43.1-.15.2-.36.36-.45.2-.13.6-.11.84-.15,1.26-.21,2.5-.37,3.78-.44,1.38-.08,2.74-.23,4.12-.21.53,0,.96-.06,1.46-.23.56-.19-.02,0,.05.02.18.06.36.13.53.21.32.13.63.27.95.39s.75.04,1.04-.14c.16-.1.48-.43.14-.55h0v-.04Z"/>
  <path class="st2" d="M44.35,105.73c.52.04,1.05-.04,1.55-.22.59-.22.95-.6,1.39-1.02.42-.39.97-.9,1.5-1.13.59-.26,1.54.04,2.16.14,1.31.2,3.05.23,4.07,1.17.42.38.77.71,1.29.96.59.27,1.04.44,1.32,1.08.49,1.11.83,3.24-.02,4.21-.35.4-.71.79-1.12,1.12-.29.24-.58.43-.96.47s-.73,0-1.1.04c-1.45.19-2.82.54-4.29.42-1.25-.1-2.46-.48-3.45-1.25-.48-.37-1.08-.88-1.36-1.43-.14-.28-.17-.53-.16-.83,0-.44-.07-.74-.21-1.15-.13-.37-.2-.68-.04-1.06.14-.35.38-.64.49-1,.22-.76.12-1.49-.2-2.21-.16-.36-1.59.13-1.48.4.37.82.45,1.65.06,2.48-.15.32-.38.59-.44.95-.06.38.09.69.21,1.04.2.61,0,1.27.33,1.84.29.51.81.97,1.25,1.34,2.35,1.95,5.59,1.61,8.38,1.11.84-.15,1.67-.05,2.49-.29.64-.19,1.23-.5,1.75-.92.49-.39.91-.85,1.32-1.32.48-.53.5-1.29.48-1.98-.02-.77-.13-1.67-.45-2.38-.28-.64-.71-.88-1.32-1.15s-1.01-.71-1.52-1.12c-.57-.47-1.27-.62-1.97-.75-.95-.17-1.89-.33-2.84-.47-.76-.11-1.51-.21-2.28-.07-.86.15-1.52.55-2.22,1.05-.32.23-.63.46-.92.73-.13.12-.24.25-.37.37-.09.1-.19.19-.3.27.18-.03.16-.04-.06-.04-.32-.02-.79.07-1.04.28-.2.17-.23.3.09.33h-.01Z"/>
  <path class="st2" d="M46.04,94.5c-1.02-.17-2,.17-3.01.02-.47-.07-.93-.22-1.4-.31-.5-.1-1.02-.09-1.52-.15-1.61-.21-3.32-.99-4.92-.26-.3.14-.49.33-.71.56-.38.41-1.03.48-1.54.66-.88.31-1.73.69-2.56,1.11-.88.45-1.7.99-2.58,1.43s-1.73.73-2.58,1.11c-.75.34-1.58.57-2.27,1.02-.33.21-.58.52-.92.73-.39.24-.82.35-1.24.51-.84.31-1.6.77-2.38,1.21-.33.19-.69.35-.99.58s-.5.53-.73.81c-.53.63-.46,1.58-.33,2.37.15.88.51,1.71,1,2.45.86,1.31,2.09,2.34,3.58,2.86.93.32,1.91.42,2.89.52,1.08.1,2.16.12,3.24-.03,1-.14,1.78-.5,2.68-.95.44-.22.89-.42,1.32-.67s.76-.6,1.16-.86l-.7.25c1.71-.37,3.25-1.11,4.82-1.86,1.65-.79,3.35-1.47,5.06-2.13.37-.14.75-.28,1.11-.45.34-.15.74-.49,1.1-.57.57-.13,1.24,0,1.67-.53.49-.6.32-1.48.37-2.19.07-.95.24-1.88.36-2.82.22-1.8.21-3.6.46-5.4.11-.78.07-1.71.34-2.45.32-.87,1.07-.94,1.88-1.13.96-.22,1.88-.34,2.85-.14s1.96.51,2.91.87c.29.11.68.2.85.48s.11.72.11,1.05c.02.93.19,1.85.41,2.75.1.42.24.84.32,1.27s.11.87.3,1.28c.18.36.09.64.07,1.06-.02.57,0,1.13.07,1.69.1,1.01.21,2.07.48,3.05.11.42.28.79.22,1.23s-.25.83-.29,1.25c-.02.16,1.43.03,1.48-.4.06-.56.37-1.08.3-1.66-.08-.69-.36-1.37-.47-2.07s-.22-1.44-.28-2.17c-.03-.36-.04-.73-.04-1.09,0-.33.13-.76.06-1.07-.06-.23-.23-.43-.29-.67-.07-.28-.09-.56-.14-.84-.12-.69-.36-1.37-.49-2.06-.13-.64-.21-1.3-.23-1.95,0-.54.06-1.06-.45-1.38s-1.16-.46-1.71-.64c-.72-.24-1.46-.45-2.21-.58-1.37-.24-2.73.03-4.06.35-1.02.24-2.26.43-2.89,1.38-.28.42-.33.89-.37,1.37-.06.7-.17,1.39-.27,2.08-.23,1.64-.19,3.29-.4,4.94-.1.78-.24,1.56-.31,2.35-.04.39-.07.79-.07,1.18,0,.42.03,1.05-.34,1.36l.61-.28c.09-.03.61-.06.09-.07-.09,0-.18,0-.26.01-.23.02-.46.06-.68.12-.48.13-.91.36-1.34.6-.96.52-2.03.86-3.04,1.27s-2.12.86-3.16,1.34c-.96.44-1.89.94-2.88,1.33-.5.2-1.01.31-1.52.46-.48.14-.71.39-1.09.69-.41.32-.87.54-1.33.77-.43.21-.88.53-1.34.66-1.12.31-2.49.12-3.63-.03-1-.13-1.95-.31-2.85-.79-1.66-.89-3-2.55-3.44-4.39-.23-.95-.3-2,.34-2.78s1.73-1.27,2.62-1.7c.83-.4,1.72-.58,2.49-1.12.39-.28.69-.63,1.15-.81s.9-.35,1.34-.55c.95-.44,1.95-.79,2.89-1.26s1.9-1.1,2.88-1.58c.56-.27,1.13-.52,1.71-.74.54-.2,1.11-.31,1.63-.55.21-.09.42-.2.6-.35.07-.05.13-.1.19-.16.05-.05.18-.33.1-.22-.04.05-.09,0,.09,0,.21.02.41.04.62.07.28.04.56.09.84.16,1.19.27,2.41.31,3.59.6.58.14,1.17.24,1.76.24.69,0,1.36-.21,2.06-.1.33.06.73-.05,1.03-.19.11-.05.52-.3.19-.36h-.04Z"/>
  <path class="st2" d="M68.14,94.33c.92,1.29,2.52,2.22,3.87,3s2.92,1.34,4.26,2.24c.67.45,1.26.98,1.91,1.45s1.5.67,2.23,1.01c.82.38,1.63.78,2.44,1.18.32.16.64.32.9.58.31.31.38.59.43,1.02.35,2.93-1.99,5.93-4.53,7.13-1.57.74-3.23.88-4.89.31-.7-.24-1.47-.53-1.97-1.09-.18-.2-.48-.53-.54-.81-.03-.17.1-.53.1-.72,0-.2-.01-.41-.03-.61-.05-.56-.2-1.05.02-1.59.17-.42.42-.82.65-1.21.43-.74.91-1.44,1.51-2.06,1.31-1.35,3.39-1.45,4.64-2.82.24-.26.12-.58-.19-.7-.34-.13-.8.02-1.04.28-.59.64-1.66.88-2.43,1.24s-1.51.87-2.13,1.5-1.14,1.37-1.6,2.13c-.43.72-1.03,1.56-1.03,2.43,0,.46.12.9.14,1.36.01.42-.18.85-.04,1.25.25.69.87,1.33,1.5,1.69,1.59.89,3.48,1.35,5.29,1.09,3.28-.47,6.13-2.75,7.47-5.76.6-1.35,1.14-3.61-.05-4.78-.66-.65-1.58-.98-2.4-1.38s-1.68-.85-2.57-1.16c-.96-.34-1.72-1.18-2.56-1.76s-1.79-1.01-2.73-1.45-1.86-.96-2.74-1.54-1.91-1.22-2.54-2.11c-.38-.53-1.79.03-1.35.64h0v.02Z"/>
  <path class="st2" d="M57.45,97.77c.84-.23,1.79-.05,2.65-.2.75-.13,1.51-.29,2.22-.58.77-.31,1.35-.93,2.16-1.15.81-.22,1.63-.5,2.42-.84.7-.3,1.41-.63,2.07-1.03.74-.46,1.37-1.05,2.03-1.6s1.35-1.09,2.04-1.61c.38-.28.76-.56,1.15-.84.34-.24.69-.58,1.06-.76l-.9.21c.29-.02.58.07.87.05.33-.02.66-.08.98-.18.65-.19,1.24-.53,1.83-.85.34-.19,4.19-2.3,4.21-2.26l-.33.02.1.08c.05.14.28.37.38.51.21.31.39.62.55.96.3.62.49,1.28.02,1.87-.77.97-2.38,1.01-2.37,2.48,0,.08.23.08.25.08,1.09-.02,2.16.25,3.25.3s2.09.11,3.14.17c1.14.07,2.23.11,3.35.33.85.17,1.94-.24,2.46.59,1.04,1.64,1.32,3.66,1.03,5.55-.16,1.04-.44,2.06-.86,3.03-.14.32-.38,1-.62,1.13-.3.17-1.22-.07-1.64-.13-1.12-.17-2.21-.29-3.34-.22-.55.03-1.1.08-1.63.2-.43.1-.84.37-1.21.48-.12.04-.74.19-.69.39s.7.02.79,0c.4-.12.79-.36,1.18-.46.57-.15,1.26-.1,1.84-.08,1.16.05,2.28.38,3.44.38.87,0,1.94-.15,2.61-.76s1.02-1.91,1.26-2.78c.58-2.11.63-4.21-.26-6.24-.36-.81-.68-1.55-1.65-1.57-.54-.01-1.06.04-1.6-.07-.6-.12-1.2-.21-1.81-.25-1.3-.08-2.62-.23-3.92-.24-1.4,0-2.77-.33-4.17-.31l.25.08c0-1.21,1.51-1.44,2.22-2.22.87-.94.24-2.09-.36-3-.21-.31-.43-.75-.83-.84-.44-.1-1,.09-1.4.26-1.22.51-2.38,1.19-3.53,1.83-.56.31-1.12.63-1.68.93s-1.11.11-1.7.27c-.55.15-.98.49-1.44.82-.55.39-1.09.78-1.63,1.18-1.07.8-2.08,1.67-3.1,2.52s-2.24,1.37-3.44,1.78c-.62.22-1.27.33-1.88.59s-1.11.77-1.72,1.01c-1.34.53-2.84.18-4.23.56-.12.03-.74.19-.69.39s.7.02.79,0h0l.03.04Z"/>
  <path class="st2" d="M21.97,100.9c.9.88,2.2.51,3.33.62s2.25.69,3.17,1.4c.84.65,1.51,1.51,1.85,2.52.2.61.09,1.28.16,1.91.07.68.24,1.35.45,2,.11.32,1.57-.11,1.48-.4-.22-.65-.38-1.32-.45-2s.04-1.34-.18-1.98c-.34-.98-1-1.83-1.81-2.47-.85-.68-1.9-1.26-2.97-1.47-.62-.12-1.25-.14-1.87-.13-.69,0-1.23,0-1.75-.5-.26-.26-1.6.29-1.39.49h-.02Z"/>
  <path class="st2" d="M71.51,110.18c-.34.04-.68.09-1-.04s-.62-.41-.9-.62c-.56-.41-1.13-.81-1.71-1.2-1.16-.77-2.34-1.51-3.51-2.26s-2.27-1.42-3.33-2.23c-.44-.34-.82-.62-1.4-.63s-1.1.2-1.62.32c-.18.04-.73.23-.66.51s.66.15.82.11c.28-.07.58-.15.87-.2q.12-.04.02-.02c-.11,0-.1.03.04.07.09.11.33.22.45.31.52.39,1.05.76,1.59,1.12,1.15.76,2.32,1.5,3.49,2.24s2.28,1.45,3.38,2.25c.46.34.9.76,1.46.93s1.19.09,1.78.02c.2-.02.84-.18.85-.46.01-.3-.41-.26-.62-.24h0v.02Z"/>
  <path class="st2" d="M36.68,28.68c-.34,1.21-.65,2.44-.79,3.69-.14,1.25-.05,2.58-.04,3.86,0,2.48.42,4.89.81,7.33.19,1.22.23,2.45.58,3.64s.92,2.18.88,3.4-.55,2.33-1.35,3.2c-.16.17-.32.38-.54.44-.2.06-.5-.02-.71-.03-.52-.03-1.01-.04-1.5.15l.74-.09c-.91-.32-1.63-.68-2.27-1.44-.68-.82-1.05-1.81-1.46-2.78-.43-1.02-.97-1.95-.9-3.1.05-.96.12-1.79-.53-2.58-.21-.26-.73-.12-.98-.03-1.35.48-2.02,1.71-2.83,2.81-.93,1.25-1.62,2.64-2.24,4.06s-1.1,2.85-1.6,4.3c-.53,1.54-1.07,3.03-1.43,4.62s-.78,3.12-.87,4.7c-.04.79,0,1.57-.1,2.36s-.23,1.51-.2,2.29c.11,3.29.95,6.5,2.03,9.58.59,1.67,1.31,3.27,2.19,4.81.42.74.86,1.46,1.34,2.15.5.73,1.12,1.33.83,2.28l.83-.52c-1.36.18-2.61-.66-3.89-1-.61-.16-1.21-.33-1.77-.66s-.96-.66-1.58-.77c-.34-.06-.79.02-1.04.28-.21.21-.18.49.15.55.7.12,1.22.68,1.86.96s1.28.41,1.93.6c.7.2,1.33.55,2.03.75s1.41.24,2.12.15c.3-.04.74-.19.83-.52.41-1.35-.79-2.41-1.45-3.46-.82-1.28-1.54-2.62-2.14-4.01-1.23-2.86-2.17-5.96-2.57-9.05-.1-.75-.18-1.52-.22-2.27-.05-.87.13-1.7.22-2.55.07-.74.03-1.49.08-2.24.05-.79.21-1.58.37-2.35.3-1.5.6-3.03,1.08-4.49s1.01-2.92,1.53-4.36c.59-1.62,1.26-3.23,2.12-4.73.41-.73.92-1.39,1.43-2.05.47-.62.8-1.3,1.57-1.58l-.98-.03c.51.63.47,1.29.43,2.05-.05.71.03,1.4.29,2.06.49,1.25,1.02,2.61,1.74,3.75.67,1.05,1.62,1.79,2.81,2.17.24.08.46.16.72.13,0,0,.59-.06.32-.06.13,0,.28.02.41.02.61.04,1.22.07,1.81-.15,1.12-.41,1.98-1.67,2.42-2.73.56-1.34.51-2.78-.02-4.12-.25-.64-.48-1.27-.62-1.94-.17-.79-.2-1.6-.32-2.4-.22-1.55-.5-3.08-.71-4.63-.25-1.78-.18-3.58-.2-5.37s.37-3.52.86-5.24c.15-.55-1.33-.35-1.48.17h0l-.03.02Z"/>
  <path class="st2" d="M54.75,108.46c.35-.28.61-.63.51-1.1-.07-.3-.29-.58-.49-.81-.59-.65-1.36-.94-2.23-.92-.92.02-1.85-.04-2.75.2-.83.23-1.76.64-2.25,1.39-.2.3.17.53.43.55.36.03.76-.12.97-.43.12-.18.26-.24.42-.32.23-.11.47-.23.72-.29.6-.16,1.26-.1,1.87-.11.49,0,.87.02,1.26.36.17.15.35.34.47.54.04.07.09.14.1.23v.08c.02.09-.07.1,0,.04-.22.18-.41.49-.1.69.29.18.8.1,1.05-.11h.02Z"/>
  <path class="st2" d="M79.28,104.76s-.02.18,0,.14l.29-.28-.05.03.36-.14c-1.53.41-2.76,1.35-3.7,2.61-.22.3-.46.61-.62.95s-.19.73-.19,1.1c0,.2.02.39.18.52.21.18.55.18.81.2.36.02.76-.05,1.04-.28.21-.17.2-.42-.12-.44-.13,0-.26-.01-.39-.04.13.03-.02-.04,0,0,.04.05-.04-.04-.04-.05.04.08,0-.03,0-.03-.01-.05-.02-.1-.02-.15v-.33c.05-.73.5-1.28.95-1.83.37-.45.85-.92,1.29-1.2.13-.08.27-.16.41-.23-.1.05.14-.06.17-.07.07-.03.14-.05.21-.08-.14.05.07-.02.1-.03.17-.05.33-.1.49-.19.11-.06.24-.15.29-.28.01-.04.01-.18,0-.14.11-.46-1.36-.23-1.47.22h0v.02Z"/>
  <path class="st2" d="M81.62,95.79c2.02.14,3.94,1.05,5.98.93.31-.02.78-.11.98-.36s-.18-.3-.36-.29c-.94.06-1.87-.2-2.78-.42-.95-.23-1.9-.45-2.88-.52-.35-.02-.76.08-1.04.28-.23.16-.2.35.1.37h0Z"/>
  <path class="st2" d="M41.5,100.23c-1.06.3-2.08.71-3.08,1.2-.93.45-1.83.97-2.77,1.42-.18.08-.61.3-.4.55.18.23.77.09.97,0,1.81-.86,3.52-1.94,5.46-2.49.2-.06.72-.24.65-.53s-.66-.18-.83-.14h0Z"/>
  <path class="st2" d="M21.32,106.89c0,.37-.08.73-.02,1.1.04.27.16.53.36.72.24.24.57.4.88.54.5.22,1,.43,1.54.49.22.02.29.02.5.06.18.03.36.09.55.1.25,0,.51-.05.74-.15.09-.04.18-.09.27-.13.02-.01.09-.04,0,0-.2.08-.35.13-.61.05.34.11.74.05,1.04-.14.16-.1.49-.45.13-.56-.47-.15-1.07-.07-1.48.23.06-.04.13-.06.2-.08.4.01.51,0,.31-.06-.09-.03-.19-.04-.28-.06s-.19-.02-.29-.03c.18.02-.35-.04-.22-.02-.55-.06-1.1-.31-1.59-.57-.04-.02-.08-.04-.12-.07-.02-.01-.04-.03-.06-.04.05.03.05.04.01,0-.07-.05-.13-.1-.19-.16-.03-.03-.05-.06-.08-.09-.01-.02-.08-.13-.03-.03-.03-.06-.06-.13-.08-.2-.14-.46-.01-.82-.02-1.3,0-.11-.21-.18-.28-.2-.17-.04-.39-.01-.55.03-.27.08-.65.23-.64.56h.01Z"/>
  <path class="st2" d="M26.87,104.41c-.14-.12-.17-.28-.25-.43s-.19-.28-.3-.41c-.23-.25-.5-.43-.82-.54-.36-.12-.72-.15-1.1-.15-.46,0-.92,0-1.38.02-.94.05-1.81.31-2.66.7-.61.28-1.13.64-1.18,1.36-.01.17,1.45.02,1.48-.4.07-1.05,1.42-1.11,2.23-1.11.55,0,1.11-.05,1.6.23.24.14.45.34.6.57.14.22.19.46.4.64s.74-.02.95-.1c.1-.03.63-.24.45-.4h0l-.02.02Z"/>
  <path class="st2" d="M49.71,94.73c-.36.04-.72.13-1.05.29-.17.09-.35.21-.42.4-.05.14-.05.29-.04.43.02.27.04.55.05.82.03,1.06-.02,2.12,0,3.19,0,.19.7.02.79,0,.16-.04.69-.16.68-.4-.02-.83,0-1.67,0-2.5,0-.41,0-.82-.04-1.23,0-.16-.04-.32-.03-.48,0-.05,0-.08.02-.13.1-.3.36.03-.65.15.31-.04.76-.11.99-.34s-.2-.22-.34-.2h.04Z"/>
  <path class="st2" d="M14.42,96.66c-.63-.02-1.27-.03-1.9-.03-.68,0-1.39-.06-2.06.06-.19.03-.39.09-.56.17-.07.03-.27.12-.31.22-.08.24.51.13.58.12-.08.01-.08,0,0,0h1.53c.59,0,1.17,0,1.76.03.34.01.75-.1,1.04-.28.06-.04.2-.12.18-.21s-.2-.09-.26-.09h0Z"/>
  <path class="st2" d="M82.9,98.84c.64-.03,1.28-.06,1.92-.07.31,0,.63,0,.94.02t0,0s.09,0,.13.01c.13.01.26.03.39.02.18-.01.35-.05.51-.12.11-.04.21-.1.3-.17.05-.04.03-.03-.05.02.17-.1.47-.4.14-.52s-.76-.01-1.04.15c-.08.05-.15.1-.22.16l.3-.17h-.03c.25-.03.49-.06.74-.1-1.15-.11-2.3-.06-3.46,0-.33.01-.77.11-.98.39s.17.39.39.38h.02Z"/>
  <path class="st2" d="M72.74,99.76c-.19-.27-.49-.39-.79-.48-.06-.02-.12-.03-.17-.05-.03,0-.06-.02-.09-.02-.14-.04.06.03-.01,0-.16-.06-.31-.12-.47-.19-.66-.28-1.31-.58-1.99-.8-.16-.05-.4-.01-.55.03-.16.04-.37.13-.49.25-.08.08-.18.2-.14.33s.18.17.29.21c.06.02.08.03.04.01.04.01.08.03.11.04.08.03.15.06.23.08.15.06.3.12.45.18.3.13.59.26.89.39s.58.24.89.32c.06.02.12.03.17.05-.13-.04.05.02.07.04.03.01.05.03.08.04-.04-.03-.03-.02,0,.01.04.05.09.09.12.15.07.1.29.13.4.14.19,0,.41-.04.58-.11.22-.1.58-.33.39-.6h0v-.02Z"/>
  <path class="st2" d="M18.03,85.43c.13.53-.37.89-.6,1.32-.17.3-.33.59-.55.85s-.51.54-.65.87c-.12.29-.13.58.03.86.17.29.47.44.72.66.27.24.53.51.8.75.25.23.32.51.36.84.05.35.63.32.86.26.3-.08.66-.3.62-.65-.04-.33-.14-.66-.35-.93s-.51-.48-.75-.71-.57-.42-.79-.67c-.17-.19-.08-.37.06-.54.23-.29.48-.56.69-.86.18-.26.3-.56.49-.82.36-.51.71-.95.54-1.61-.16-.62-1.63-.23-1.48.4h0v-.02Z"/>
  <path class="st2" d="M36.85,99.51c-1.2.37-2.34.93-3.32,1.73-.12.1-.24.23-.26.39-.02.14.06.29.18.37.3.19.78.14,1.06-.09.21-.17.42-.33.65-.48.06-.04.11-.07.17-.11.03-.02.06-.03.09-.05-.03.03-.12.07-.03.02.12-.07.25-.14.37-.21.24-.12.48-.24.73-.34.06-.03.12-.05.19-.07.02,0,.14-.05.02,0s0,0,.02,0c.14-.05.27-.09.41-.14.18-.06.36-.14.48-.29.09-.1.17-.28.12-.42-.12-.34-.57-.4-.87-.31h-.01Z"/>
  <path class="st2" d="M19.73,98.34c-.24.04-.48.07-.72.09-.07,0-.14,0-.2.01-.04,0-.21.01-.05,0h-.35c-.48,0-.97-.01-1.45,0-.2,0-.39.03-.58.11-.13.06-.32.17-.39.3-.15.3.13.49.41.49,1.05-.02,2.11.06,3.15-.12.2-.03.39-.08.56-.19.11-.07.25-.19.27-.33.06-.33-.43-.4-.65-.36h0Z"/>
  <path class="st2" d="M64.85,100.62s.21.06.08.02c.06.02.11.04.17.06.11.05.21.1.32.16.2.11.39.24.59.36.45.27.93.5,1.4.73.31.15.77.05,1.05-.14.19-.13.45-.43.13-.58-.49-.23-.98-.47-1.44-.75s-.87-.55-1.39-.67c-.33-.08-.8.04-1.04.28-.08.08-.18.19-.15.32s.18.18.29.21h0Z"/>
  <path class="st2" d="M13.35,99.24s-.05.03-.08.04c.07-.04.15-.06.23-.06h-.06c-.06,0-.03,0,.08,0-.13-.02-.31,0-.44,0-.16,0,.14,0,0,0h-.64c-.49,0-1,.05-1.47.2-.18.06-.36.13-.49.28-.08.09-.17.25-.13.38.11.32.59.36.86.26.11-.04.22-.06.33-.09.08-.02.06-.01-.06.01.03,0,.06,0,.1-.01.05,0,.1-.01.14-.02.11-.01.22-.02.34-.02.06,0,.13-.01.19,0-.2-.03-.02,0,.03,0h.55c.08,0,.06,0-.05,0,.04.01.1,0,.15,0,.36.01.73-.01,1.05-.19.15-.08.3-.17.38-.33.06-.11.07-.27-.02-.38-.23-.26-.72-.23-.99-.08h0Z"/>
  <path class="st2" d="M62.67,102.82c.34.37.75.69,1.19.92.24.12.49.23.74.31.03,0,.16.07.19.06-.02,0-.1-.05-.03,0,.03.02.06.03.09.04.14.07.29.14.45.18.18.04.38.03.55-.02.16-.04.37-.13.49-.26.08-.09.18-.22.14-.36s-.16-.21-.3-.24c-.03,0-.05-.01-.08-.02.08.03.09.04.03.01-.04-.02-.07-.03-.11-.05-.12-.06-.23-.11-.36-.15-.09-.03-.17-.05-.26-.08-.03-.01-.08-.02-.11-.04.08.03.09.04.03.01-.02,0-.04-.01-.05-.02-.32-.14-.62-.32-.9-.54l.1.08c-.16-.13-.31-.27-.46-.42-.24-.25-.71-.19-.99-.05-.2.09-.62.4-.38.66h0l.03-.02Z"/>
  <path class="st2" d="M54.94,98.09c-.13,0,.18,0,.06,0h-.25c-.12,0-.24.02-.36.06-.17.05-.33.13-.47.23-.08.06-.15.13-.2.21-.07.1-.09.19-.08.32.02.35.07.7.13,1.05.05.28.1.58.2.85.07.17.15.31.31.42.22.16.49.18.75.17.18,0,.41-.09.56-.2.11-.08.25-.24.26-.39.02-.38-.38-.47-.68-.47.13,0,.16,0,.09,0,.12.03.15.04.09.02.17.06.09.05.04,0l.11.1s-.06-.08-.08-.12l.06.12c-.12-.26-.16-.58-.21-.86-.06-.34-.11-.68-.13-1.03v.14-.04l-.13.27c-.09.09-.18.15-.31.19-.21.06-.16.02-.07.02.12,0-.19,0-.06,0h.25c.18,0,.41-.09.56-.2.11-.08.25-.24.26-.39.02-.38-.38-.47-.68-.47h-.02Z"/>
  <path class="st2" d="M52.46,109.31c-.17,0,.09-.04.26.05l.32.32c-.11-.29-.26-.54-.51-.73-.22-.17-.51-.26-.79-.29-.24-.03-.49-.02-.74-.01h-.14s-.22,0-.06,0,.02,0-.02,0c-.09,0-.17-.01-.26,0-.19,0-.37.06-.54.14-.15.07-.31.21-.38.36-.06.13-.06.31.03.43.24.3.69.27,1.01.13-.08.04-.17.06-.26.07-.13,0-.17,0-.09,0,.1,0,.19.01.29.01h.17c.12,0,.23,0,.35-.01.08,0,.31.02,0,0,.05,0,.11,0,.16.01.03,0,.06,0,.09.02.1.02-.18-.05-.08-.02.06.02.11.04.16.07l-.14-.08c.07.04.13.08.18.14l-.11-.11c.08.08.13.17.18.26l-.06-.13s.03.08.05.12c.06.14.12.24.26.31.17.09.35.1.54.09s.41-.09.55-.21c.11-.09.25-.25.25-.41,0-.38-.37-.52-.69-.51h0v-.02Z"/>
  <path class="st2" d="M79.93,107.65v.07-.12s0,.09-.02.13l.05-.13s-.02.04-.03.06l.09-.12c-.04.05-.07.04.08-.06-.08.05.19-.09.09-.05h-.02c-.07.04-.03.03.12-.03-.05.02-.1.04-.15.05-.13.05-.26.1-.39.16-.24.12-.47.25-.68.41-.41.33-.75.72-1.01,1.18-.06.11-.07.26.02.36.09.11.28.17.41.17.34.02.79-.11.97-.43.08-.14.17-.28.27-.41l-.09.12c.13-.17.27-.32.43-.46.06-.05-.14.11-.06.05.02-.02.04-.03.07-.05.04-.03.09-.07.14-.1.04-.03.08-.05.12-.07.02,0,.03-.02.05-.03l-.11.06s.05-.03.08-.04c.1-.05.19-.09.29-.13-.14.05-.18.06-.12.04.01,0,.03,0,.04-.01.08-.03.15-.05.23-.08.09-.04.18-.09.26-.14.13-.09.26-.21.32-.35.07-.15.07-.29.05-.45-.02-.13-.19-.22-.3-.26-.17-.05-.39-.04-.56.01-.29.09-.66.29-.62.64h-.02Z"/>
  <path class="st2" d="M77.31,93.04c-.29.04-.59.03-.89.05-.4.02-.81.07-1.2.18-.17.05-.35.11-.5.21-.04.03-.21.14-.17.23.04.1.18.11.26.12.18,0,.37-.02.54-.07.04-.01.07-.02.11-.03.16-.04-.19.03-.06.01.07-.01.29-.03.04-.01.14-.01.27-.02.41-.03.27,0,.55-.01.82-.04.2-.02.39-.06.58-.13.12-.05.32-.12.41-.23.05-.06.11-.15.02-.21-.1-.07-.27-.07-.38-.06h0Z"/>
  <path class="st2" d="M26.7,106.56v.93c0,.08.23.08.25.08.17,0,.37-.03.54-.08s.35-.1.51-.2c.07-.05.18-.1.18-.2v-.93c0-.08-.23-.08-.25-.08-.17,0-.37.03-.54.08s-.35.1-.51.2c-.07.05-.18.1-.18.2h0Z"/>
</svg>