<?xml version="1.0" encoding="UTF-8"?>
<svg id="_レイヤー_1" xmlns="http://www.w3.org/2000/svg" version="1.1" viewBox="0 0 100 120">
  <!-- Generator: Adobe Illustrator 30.0.0, SVG Export Plug-In . SVG Version: 2.1.1 Build 123)  -->
  <defs>
    <style>
      .st0 {
        fill: #ceb372;
      }

      .st1 {
        fill: #292524;
      }

      .st2 {
        fill: #fff;
      }

      .st3 {
        fill: none;
        stroke: #292524;
        stroke-linecap: round;
        stroke-linejoin: round;
        stroke-width: .75px;
      }
    </style>
  </defs>
  <g>
    <path class="st0" d="M31.01,89.88c.76.06,1.29.6,1.87.99.75.5,1.51.98,2.29,1.44.49.29.91.65,1.2,1.15"/>
    <g>
      <path class="st0" d="M62.54,89.27c-.88-.18-1.74.39-1.92,1.27-.18.88.39,1.74,1.27,1.92.22.04.44.04.64,0,.17-.48.42-1.34,1.05-2.48-.23-.36-.6-.62-1.04-.72Z"/>
      <path class="st0" d="M57.73,92.45c-.88-.18-1.74.39-1.92,1.27-.12.58.09,1.14.49,1.51.94-.09,1.78-.21,2.52-.38.09-.15.15-.31.19-.48.18-.88-.39-1.74-1.27-1.92Z"/>
      <path class="st0" d="M60.63,86.38c.18-.88-.39-1.74-1.27-1.92-.88-.18-1.74.39-1.92,1.27-.18.88.39,1.74,1.27,1.92.88.18,1.74-.39,1.92-1.27Z"/>
      <path class="st0" d="M65.43,87.36s0,.06,0,.09c.28-.34.6-.75.99-1.28-.49.2-.87.63-.98,1.18Z"/>
      <path class="st0" d="M68.98,78.09c-.88-.18-1.74.39-1.92,1.27-.18.88.39,1.74,1.27,1.92.28.06.55.03.8-.04.27-.79.47-1.61.73-2.66-.22-.25-.52-.43-.87-.5Z"/>
      <path class="st0" d="M64.17,81.27c-.88-.18-1.74.39-1.92,1.27-.18.88.39,1.74,1.27,1.92.88.18,1.74-.39,1.92-1.27.18-.88-.39-1.74-1.27-1.92Z"/>
      <path class="st0" d="M65.79,73.27c-.88-.18-1.74.39-1.92,1.27-.18.88.39,1.74,1.27,1.92.88.18,1.74-.39,1.92-1.27.18-.88-.39-1.74-1.27-1.92Z"/>
      <path class="st0" d="M62.25,78.38c.18-.88-.39-1.74-1.27-1.92-.88-.18-1.74.39-1.92,1.27-.18.88.39,1.74,1.27,1.92.88.18,1.74-.39,1.92-1.27Z"/>
      <path class="st0" d="M70.7,70.95c0-.3.04-.56.07-.81-.06-.02-.11-.04-.17-.05-.88-.18-1.74.39-1.92,1.27-.18.88.39,1.74,1.27,1.92.26.05.52.03.76-.03.02-.39.03-.79.03-1.2-.01-.2-.06-.58-.04-1.1Z"/>
      <path class="st0" d="M71.55,62.1c-.61.14-1.11.61-1.24,1.26-.16.79.28,1.56,1,1.84,0-.07,0-.13,0-.21.04-1.43.17-2.27.24-2.9Z"/>
      <path class="st0" d="M67.42,65.28c-.88-.18-1.74.39-1.92,1.27-.18.88.39,1.74,1.27,1.92.88.18,1.74-.39,1.92-1.27.18-.88-.39-1.74-1.27-1.92Z"/>
      <path class="st0" d="M70.32,59.21c.05-.23.04-.46,0-.68-.23-.21-.46-.35-.68-.32-.54.08-.61,1.03-.93,2.3.77,0,1.46-.53,1.62-1.3Z"/>
      <path class="st0" d="M62.61,68.46c-.88-.18-1.74.39-1.92,1.27-.18.88.39,1.74,1.27,1.92.88.18,1.74-.39,1.92-1.27.18-.88-.39-1.74-1.27-1.92Z"/>
      <path class="st0" d="M49.08,94.03c.88.18,1.74-.39,1.92-1.27.18-.88-.39-1.74-1.27-1.92-.88-.18-1.74.39-1.92,1.27-.18.88.39,1.74,1.27,1.92Z"/>
      <path class="st0" d="M44.92,94.01c-.79-.16-1.55.28-1.84,1,1.07.08,2.11.16,3.1.22-.14-.6-.62-1.09-1.26-1.22Z"/>
      <path class="st0" d="M54.54,87.64c-.88-.18-1.74.39-1.92,1.27-.18.88.39,1.74,1.27,1.92.88.18,1.74-.39,1.92-1.27.18-.88-.39-1.74-1.27-1.92Z"/>
      <path class="st0" d="M45.9,89.21c.88.18,1.74-.39,1.92-1.27.18-.88-.39-1.74-1.27-1.92-.88-.18-1.74.39-1.92,1.27-.18.88.39,1.74,1.27,1.92Z"/>
      <path class="st0" d="M41.74,89.2c-.88-.18-1.74.39-1.92,1.27-.18.88.39,1.74,1.27,1.92.44.09.88,0,1.23-.24.35-.23.61-.59.7-1.04.18-.88-.39-1.74-1.27-1.92Z"/>
      <path class="st0" d="M44.64,83.13c.18-.88-.39-1.74-1.27-1.92-.88-.18-1.74.39-1.92,1.27-.18.88.39,1.74,1.27,1.92.88.18,1.74-.39,1.92-1.27Z"/>
      <path class="st0" d="M52.2,83.29c-.15-.15-.32-.27-.52-.36-.1-.04-.21-.08-.32-.1-.88-.18-1.74.39-1.92,1.27-.18.88.39,1.74,1.27,1.92.88.18,1.74-.39,1.92-1.27.11-.55-.07-1.1-.44-1.47Z"/>
      <path class="st0" d="M52.33,78.03c.88.18,1.74-.39,1.92-1.27.18-.88-.39-1.74-1.27-1.92-.88-.18-1.74.39-1.92,1.27-.18.88.39,1.74,1.27,1.92Z"/>
      <path class="st0" d="M55.52,82.84c.88.18,1.74-.39,1.92-1.27.18-.88-.39-1.74-1.27-1.92-.88-.18-1.74.39-1.92,1.27s.39,1.74,1.27,1.92Z"/>
      <path class="st0" d="M48.17,78.02c-.88-.18-1.74.39-1.92,1.27-.18.88.39,1.74,1.27,1.92.88.18,1.74-.39,1.92-1.27.18-.88-.39-1.74-1.27-1.92Z"/>
      <path class="st0" d="M59.07,73.57c.18-.88-.39-1.74-1.27-1.92-.88-.18-1.74.39-1.92,1.27-.18.88.39,1.74,1.27,1.92.88.18,1.74-.39,1.92-1.27Z"/>
      <path class="st0" d="M51.07,71.95c.18-.88-.39-1.74-1.27-1.92-.88-.18-1.74.39-1.92,1.27-.18.88.39,1.74,1.27,1.92.88.18,1.74-.39,1.92-1.27Z"/>
      <path class="st0" d="M46.26,75.13c.18-.88-.39-1.74-1.27-1.92-.88-.18-1.74.39-1.92,1.27-.18.88.39,1.74,1.27,1.92.88.18,1.74-.39,1.92-1.27Z"/>
      <path class="st0" d="M53.96,70.04c.88.18,1.74-.39,1.92-1.27.18-.88-.39-1.74-1.27-1.92-.88-.18-1.74.39-1.92,1.27-.18.88.39,1.74,1.27,1.92Z"/>
      <path class="st0" d="M47.89,67.14c.18-.88-.39-1.74-1.27-1.92-.55-.11-1.1.07-1.47.44-.15.15-.27.32-.36.52-.04.1-.08.21-.1.32-.18.88.39,1.74,1.27,1.92.88.18,1.74-.39,1.92-1.27Z"/>
      <path class="st0" d="M55.58,62.04c.88.18,1.74-.39,1.92-1.27.18-.88-.39-1.74-1.27-1.92-.88-.18-1.74.39-1.92,1.27-.18.88.39,1.74,1.27,1.92Z"/>
      <path class="st0" d="M62.88,63.32c.02-.13.04-.25.08-.37.13-.46.57-.89,1.32-2.47-.01,0-.02,0-.04-.01-.88-.18-1.74.39-1.92,1.27-.12.61.12,1.21.57,1.58Z"/>
      <path class="st0" d="M58.77,66.85c.88.18,1.74-.39,1.92-1.27.18-.88-.39-1.74-1.27-1.92s-1.74.39-1.92,1.27c-.18.88.39,1.74,1.27,1.92Z"/>
      <path class="st0" d="M50.77,65.23c.88.18,1.74-.39,1.92-1.27.18-.88-.39-1.74-1.27-1.92-.88-.18-1.74.39-1.92,1.27-.18.88.39,1.74,1.27,1.92Z"/>
      <path class="st0" d="M62.32,57.58c.18-.88-.39-1.74-1.27-1.92-.88-.18-1.74.39-1.92,1.27-.18.88.39,1.74,1.27,1.92.88.18,1.74-.39,1.92-1.27Z"/>
      <path class="st0" d="M54.32,55.95c.18-.88-.39-1.74-1.27-1.92-.88-.18-1.74.39-1.92,1.27-.18.88.39,1.74,1.27,1.92.88.18,1.74-.39,1.92-1.27Z"/>
      <path class="st0" d="M49.51,59.14c.18-.88-.39-1.74-1.27-1.92-.88-.18-1.74.39-1.92,1.27-.18.88.39,1.74,1.27,1.92.88.18,1.74-.39,1.92-1.27Z"/>
      <path class="st0" d="M57.21,54.04c.88.18,1.74-.39,1.92-1.27.18-.88-.39-1.74-1.27-1.92-.55-.11-1.1.07-1.47.44-.15.15-.27.32-.36.52-.04.1-.08.21-.1.32-.18.88.39,1.74,1.27,1.92Z"/>
      <path class="st0" d="M49.86,52.42c.1-.02.2-.05.3-.09.39-.16.71-.47.88-.87.04-.1.08-.21.1-.32.18-.88-.39-1.74-1.27-1.92-.88-.18-1.74.39-1.92,1.27-.18.88.39,1.74,1.27,1.92.22.04.44.04.65,0Z"/>
      <path class="st0" d="M65.32,52.46c-.67.09-1.24.59-1.38,1.29-.18.88.39,1.74,1.27,1.92.25.05.49.04.72-.02.13-1.3-.19-2.22-.6-3.19Z"/>
      <path class="st0" d="M58.84,46.05c.88.18,1.74-.39,1.92-1.27.18-.88-.39-1.74-1.27-1.92-.88-.18-1.74.39-1.92,1.27-.18.88.39,1.74,1.27,1.92Z"/>
      <path class="st0" d="M62.67,47.66c-.88-.18-1.74.39-1.92,1.27-.18.88.39,1.74,1.27,1.92.88.18,1.74-.39,1.92-1.27.18-.88-.39-1.74-1.27-1.92Z"/>
      <path class="st0" d="M54.02,49.23c.88.18,1.74-.39,1.92-1.27.18-.88-.39-1.74-1.27-1.92-.88-.18-1.74.39-1.92,1.27-.18.88.39,1.74,1.27,1.92Z"/>
      <path class="st0" d="M63.86,39.66s0-.01,0-.02c-.71.05-1.33.56-1.48,1.3-.18.88.39,1.74,1.27,1.92.3.06.61.03.88-.07-.07-.98-.28-1.96-.66-3.13Z"/>
      <path class="st0" d="M62.33,36.95c-.52-.57-1.08-.93-1.6-.85-.55.08-1.01.64-1.34,1.18.23.38.6.67,1.07.77.82.17,1.62-.32,1.87-1.1Z"/>
      <path class="st0" d="M33.74,87.58c-.88-.18-1.74.39-1.92,1.27-.18.88.39,1.74,1.27,1.92.88.18,1.74-.39,1.92-1.27.18-.88-.39-1.74-1.27-1.92Z"/>
      <path class="st0" d="M36.93,92.39c-.88-.18-1.74.39-1.92,1.27-.04.19-.04.38,0,.57.45.07.71.1.71.1.83.09,1.63.17,2.42.25.03-.08.06-.17.08-.26.18-.88-.39-1.74-1.27-1.92Z"/>
      <path class="st0" d="M28.93,90.76c-.88-.18-1.74.39-1.92,1.27-.05.24-.04.48.02.7.98.22,1.95.43,2.88.61.15-.19.26-.41.31-.66.18-.88-.39-1.74-1.27-1.92Z"/>
      <path class="st0" d="M36.63,85.66c-.18.88.39,1.74,1.27,1.92.88.18,1.74-.39,1.92-1.27s-.39-1.74-1.27-1.92c-.88-.18-1.74.39-1.92,1.27Z"/>
      <path class="st0" d="M29.9,85.96c.88.18,1.74-.39,1.92-1.27.18-.88-.39-1.74-1.27-1.92-.88-.18-1.74.39-1.92,1.27-.18.88.39,1.74,1.27,1.92Z"/>
      <path class="st0" d="M25.74,85.95c-.88-.18-1.74.39-1.92,1.27-.18.88.39,1.74,1.27,1.92.88.18,1.74-.39,1.92-1.27.18-.88-.39-1.74-1.27-1.92Z"/>
      <path class="st0" d="M35.37,79.58c-.55-.11-1.1.07-1.47.44-.15.15-.27.32-.36.52-.04.1-.08.21-.1.32-.18.88.39,1.74,1.27,1.92.88.18,1.74-.39,1.92-1.27.18-.88-.39-1.74-1.27-1.92Z"/>
      <path class="st0" d="M36.34,74.78c.88.18,1.74-.39,1.92-1.27.18-.88-.39-1.74-1.27-1.92-.88-.18-1.74.39-1.92,1.27-.18.88.39,1.74,1.27,1.92Z"/>
      <path class="st0" d="M40.18,76.39c-.88-.18-1.74.39-1.92,1.27-.18.88.39,1.74,1.27,1.92.88.18,1.74-.39,1.92-1.27.18-.88-.39-1.74-1.27-1.92Z"/>
      <path class="st0" d="M32.18,74.77c-.88-.18-1.74.39-1.92,1.27-.18.88.39,1.74,1.27,1.92s1.74-.39,1.92-1.27c.18-.88-.39-1.74-1.27-1.92Z"/>
      <path class="st0" d="M43.08,70.32c.18-.88-.39-1.74-1.27-1.92-.88-.18-1.74.39-1.92,1.27s.39,1.74,1.27,1.92c.88.18,1.74-.39,1.92-1.27Z"/>
      <path class="st0" d="M35.08,68.7c.18-.88-.39-1.74-1.27-1.92-.88-.18-1.74.39-1.92,1.27-.18.88.39,1.74,1.27,1.92.88.18,1.74-.39,1.92-1.27Z"/>
      <path class="st0" d="M28.64,79.88c.18-.88-.39-1.74-1.27-1.92-.88-.18-1.74.39-1.92,1.27-.18.88.39,1.74,1.27,1.92.44.09.88,0,1.23-.24.35-.23.61-.59.7-1.04Z"/>
      <path class="st0" d="M30.27,71.88c.18-.88-.39-1.74-1.27-1.92-.88-.18-1.74.39-1.92,1.27-.18.88.39,1.74,1.27,1.92.88.18,1.74-.39,1.92-1.27Z"/>
      <path class="st0" d="M39.89,65.51c.18-.88-.39-1.74-1.27-1.92-.88-.18-1.74.39-1.92,1.27-.18.88.39,1.74,1.27,1.92.88.18,1.74-.39,1.92-1.27Z"/>
      <path class="st0" d="M31.89,63.89c.18-.88-.39-1.74-1.27-1.92-.88-.18-1.74.39-1.92,1.27-.18.88.39,1.74,1.27,1.92.88.18,1.74-.39,1.92-1.27Z"/>
      <path class="st0" d="M39.59,58.79c.88.18,1.74-.39,1.92-1.27.18-.88-.39-1.74-1.27-1.92-.88-.18-1.74.39-1.92,1.27-.18.88.39,1.74,1.27,1.92Z"/>
      <path class="st0" d="M42.78,63.6c.88.18,1.74-.39,1.92-1.27.18-.88-.39-1.74-1.27-1.92-.88-.18-1.74.39-1.92,1.27-.18.88.39,1.74,1.27,1.92Z"/>
      <path class="st0" d="M35.43,58.78c-.88-.18-1.74.39-1.92,1.27-.18.88.39,1.74,1.27,1.92.88.18,1.74-.39,1.92-1.27.18-.88-.39-1.74-1.27-1.92Z"/>
      <path class="st0" d="M46.33,54.33c.18-.88-.39-1.74-1.27-1.92-.88-.18-1.74.39-1.92,1.27-.18.88.39,1.74,1.27,1.92.88.18,1.74-.39,1.92-1.27Z"/>
      <path class="st0" d="M38.33,52.7c.18-.88-.39-1.74-1.27-1.92-.88-.18-1.74.39-1.92,1.27-.18.88.39,1.74,1.27,1.92.88.18,1.74-.39,1.92-1.27Z"/>
      <path class="st0" d="M33.52,55.89c.18-.88-.39-1.74-1.27-1.92-.88-.18-1.74.39-1.92,1.27-.18.88.39,1.74,1.27,1.92.88.18,1.74-.39,1.92-1.27Z"/>
      <path class="st0" d="M41.22,50.79c.88.18,1.74-.39,1.92-1.27.18-.88-.39-1.74-1.27-1.92-.88-.18-1.74.39-1.92,1.27-.18.88.39,1.74,1.27,1.92Z"/>
      <path class="st0" d="M35.14,47.89c.18-.88-.39-1.74-1.27-1.92-.74-.15-1.45.23-1.78.87.07.4.13.72.22,1.01.14.48.28.82.4,1.11.16.09.33.17.51.21.88.18,1.74-.39,1.92-1.27Z"/>
      <path class="st0" d="M43.49,39.6c-.88-.18-1.74.39-1.92,1.27-.18.88.39,1.74,1.27,1.92.88.18,1.74-.39,1.92-1.27.18-.88-.39-1.74-1.27-1.92Z"/>
      <path class="st0" d="M49.56,42.5c-.18.88.39,1.74,1.27,1.92.88.18,1.74-.39,1.92-1.27.18-.88-.39-1.74-1.27-1.92-.88-.18-1.74.39-1.92,1.27Z"/>
      <path class="st0" d="M44.75,45.68c-.18.88.39,1.74,1.27,1.92.88.18,1.74-.39,1.92-1.27.18-.88-.39-1.74-1.27-1.92s-1.74.39-1.92,1.27Z"/>
      <path class="st0" d="M36.76,44.06c-.18.88.39,1.74,1.27,1.92.88.18,1.74-.39,1.92-1.27.18-.88-.39-1.74-1.27-1.92-.88-.18-1.74.39-1.92,1.27Z"/>
      <path class="st0" d="M48.3,36.41c-.88-.18-1.74.39-1.92,1.27-.18.88.39,1.74,1.27,1.92.88.18,1.74-.39,1.92-1.27.18-.88-.39-1.74-1.27-1.92Z"/>
      <path class="st0" d="M39.66,37.99c.88.18,1.74-.39,1.92-1.27.18-.88-.39-1.74-1.27-1.92-.88-.18-1.74.39-1.92,1.27-.18.88.39,1.74,1.27,1.92Z"/>
      <path class="st0" d="M51.86,36.16c-.27-.55-.49-.98-.7-1.34,0,.54.27,1.04.7,1.34Z"/>
      <path class="st0" d="M45.12,31.6c-.88-.18-1.74.39-1.92,1.27-.18.88.39,1.74,1.27,1.92.88.18,1.74-.39,1.92-1.27.18-.88-.39-1.74-1.27-1.92Z"/>
      <path class="st0" d="M44.82,24.88c-.18.88.39,1.74,1.27,1.92.88.18,1.74-.39,1.92-1.27,0-.05,0-.1.01-.15-.19-.5-.36-.97-.51-1.38-.21-.2-.47-.34-.78-.4-.88-.18-1.74.39-1.92,1.27Z"/>
      <path class="st0" d="M49.28,31.61c.09.02.18.02.27.03,0-.09,0-.17,0-.26.02-.17.07-.28.07-.35.05-.45-.04-1.1-.5-2.57-.55.17-.99.62-1.11,1.23-.18.88.39,1.74,1.27,1.92Z"/>
      <path class="st0" d="M40.01,28.06c-.18.88.39,1.74,1.27,1.92s1.74-.39,1.92-1.27c.18-.88-.39-1.74-1.27-1.92-.88-.18-1.74.39-1.92,1.27Z"/>
      <path class="st0" d="M43.56,18.79c-.88-.18-1.74.39-1.92,1.27-.18.88.39,1.74,1.27,1.92.88.18,1.74-.39,1.92-1.27.18-.88-.39-1.74-1.27-1.92Z"/>
      <path class="st0" d="M46.44,16.88h0c-.04.22-.04.44,0,.65.04.21.12.4.24.58,0,0,.01.02.02.02.02-.12.04-.22.06-.29.18-.85.45-1.57.73-2.16-.52.19-.93.63-1.05,1.21Z"/>
      <path class="st0" d="M48.07,8.89c-.18.88.39,1.74,1.27,1.92.08.02.16.02.24.02.15-.9.23-1.96.19-3.24-.8-.05-1.54.49-1.71,1.3Z"/>
      <path class="st0" d="M45.18,10.8c-.88-.18-1.74.39-1.92,1.27-.18.88.39,1.74,1.27,1.92.88.18,1.74-.39,1.92-1.27.18-.88-.39-1.74-1.27-1.92Z"/>
      <path class="st0" d="M19.02,86.25c.04-.18.04-.36.01-.54-.05.38-.12.72-.19,1.01.08-.14.15-.3.18-.47Z"/>
      <path class="st0" d="M20.93,89.14c-.73-.15-1.43.22-1.76.84.7.5,1.72.96,2.94,1.39.04-.1.07-.2.1-.31.18-.88-.39-1.74-1.27-1.92Z"/>
      <path class="st0" d="M22.56,81.14c-.88-.18-1.74.39-1.92,1.27-.18.88.39,1.74,1.27,1.92.88.18,1.74-.39,1.92-1.27.18-.88-.39-1.74-1.27-1.92Z"/>
      <path class="st0" d="M19.37,76.33c-.88-.18-1.74.39-1.92,1.27-.18.88.39,1.74,1.27,1.92.88.18,1.74-.39,1.92-1.27.18-.88-.39-1.74-1.27-1.92Z"/>
      <path class="st0" d="M20.35,71.53c.88.18,1.74-.39,1.92-1.27.18-.88-.39-1.74-1.27-1.92-.88-.18-1.74.39-1.92,1.27-.18.88.39,1.74,1.27,1.92Z"/>
      <path class="st0" d="M24.18,73.14c-.88-.18-1.74.39-1.92,1.27-.18.88.39,1.74,1.27,1.92.88.18,1.74-.39,1.92-1.27s-.39-1.74-1.27-1.92Z"/>
      <path class="st0" d="M17.46,73.44c.18-.88-.39-1.74-1.27-1.92-.72-.15-1.42.21-1.75.82.15.4.3.7.36.82.25.48.43.98.57,1.51.05.02.11.04.16.05.88.18,1.74-.39,1.92-1.27Z"/>
      <path class="st0" d="M27.08,67.07c.18-.88-.39-1.74-1.27-1.92-.88-.18-1.74.39-1.92,1.27-.18.88.39,1.74,1.27,1.92.88.18,1.74-.39,1.92-1.27Z"/>
      <path class="st0" d="M17.16,66.72c.88.18,1.74-.39,1.92-1.27.18-.88-.39-1.74-1.27-1.92-.88-.18-1.74.39-1.92,1.27-.18.88.39,1.74,1.27,1.92Z"/>
      <path class="st0" d="M14.18,67.68c-.08-.19-.2-.37-.34-.52.02.59.1.97.15,2.1.13-.18.23-.4.28-.63.04-.22.04-.44,0-.65-.02-.1-.05-.2-.09-.3Z"/>
      <path class="st0" d="M23.9,62.26c.18-.88-.39-1.74-1.27-1.92-.88-.18-1.74.39-1.92,1.27-.18.88.39,1.74,1.27,1.92.88.18,1.74-.39,1.92-1.27Z"/>
      <path class="st0" d="M15.9,60.63c.06-.28.03-.55-.05-.8-.19.48-.39,1.07-.61,1.81.33-.23.57-.58.66-1Z"/>
      <path class="st0" d="M23.6,55.54c.88.18,1.74-.39,1.92-1.27.18-.88-.39-1.74-1.27-1.92s-1.74.39-1.92,1.27c-.18.88.39,1.74,1.27,1.92Z"/>
      <path class="st0" d="M27.43,57.15c-.88-.18-1.74.39-1.92,1.27s.39,1.74,1.27,1.92c.88.18,1.74-.39,1.92-1.27.18-.88-.39-1.74-1.27-1.92Z"/>
      <path class="st0" d="M19.44,55.53c-.88-.18-1.74.39-1.92,1.27-.18.88.39,1.74,1.27,1.92.88.18,1.74-.39,1.92-1.27.18-.88-.39-1.74-1.27-1.92Z"/>
      <path class="st0" d="M22.34,49.45c.18-.88-.39-1.74-1.27-1.92-.49-.1-.96.04-1.32.32-.19.33-.36.66-.52.99-.04.09-.07.16-.11.25-.02.78.51,1.48,1.3,1.64.88.18,1.74-.39,1.92-1.27Z"/>
      <path class="st0" d="M33.57,39.25c-.18.88.39,1.74,1.27,1.92.88.18,1.74-.39,1.92-1.27s-.39-1.74-1.27-1.92c-.88-.18-1.74.39-1.92,1.27Z"/>
      <path class="st0" d="M31.69,43.7c.13-.18.22-.39.27-.62.11-.52-.05-1.03-.38-1.4.01.51.04,1.2.11,2.02Z"/>
      <path class="st0" d="M33.58,35.09c.18-.88-.39-1.74-1.27-1.92-.22-.04-.43-.04-.63,0-.07.35-.14.71-.22,1.06.05.54.11,1.27.15,2.12.02,0,.03.01.05.02.88.18,1.74-.39,1.92-1.27Z"/>
      <path class="st0" d="M35.2,31.25h0c-.04.22-.04.44,0,.65.04.21.12.4.24.58.23.35.59.61,1.04.7.88.18,1.74-.39,1.92-1.27.18-.88-.39-1.74-1.27-1.92-.88-.18-1.74.39-1.92,1.27Z"/>
      <path class="st0" d="M36.82,23.25c-.18.88.39,1.74,1.27,1.92.88.18,1.74-.39,1.92-1.27.18-.88-.39-1.74-1.27-1.92-.88-.18-1.74.39-1.92,1.27Z"/>
      <path class="st0" d="M33.94,25.16s-.09,0-.14-.01c-.3,1.02-.6,2.05-.91,3.07.12.06.26.11.4.14.88.18,1.74-.39,1.92-1.27.18-.88-.39-1.74-1.27-1.92Z"/>
      <path class="st0" d="M35.46,20.38c.67-.09,1.24-.59,1.38-1.29.08-.37.01-.74-.15-1.06-.14.23-.28.47-.42.72-.31.56-.57,1.1-.81,1.63Z"/>
      <path class="st0" d="M39.34,14.44c-.16.17-.49.54-.92,1.08-.03.79.5,1.5,1.3,1.66.88.18,1.74-.39,1.92-1.27.18-.88-.39-1.74-1.27-1.92-.2-.04-.4-.04-.59,0-.14.15-.29.3-.44.46Z"/>
    </g>
    <path class="st2" d="M74,60.56c-1.44,3.92-2.24,4.52-2.43,5.17-.3,1.03.08,2.46.89,2.81,1.19.51,2.98-1.54,3.17-1.77,2.2-2.57,1.64-5.64,2.62-5.78.66-.09,1.44,1.21,1.77,2.16.43,1.25,0,1.71-.09,4.63-.07,2.2.17,2.18-.06,3.17-.19.77-.51,1.53-.55,2.78-.02.52.03.9.04,1.1.04,2.65-.54,5.08-.85,6.37-.44,1.82-.71,2.93-1.41,4.38-.64,1.34-1.34,2.33-1.92,3.16-1.4,1.98-1.97,2.25-2.86,3.8-.81,1.41-1.05,2.44-1.23,2.89-1.36,3.34-10.96,3.35-26.77,1.68,0,0-17.69-2.41-17.48-5.75.03-.49.67-1.33.85-3.14.06-.61.05-1.12.03-1.46-1.74-2.3-2.52-4.29-2.91-5.71-.5-1.82-.6-3.6-1.39-5.11-.11-.22-.5-.93-.68-1.94-.09-.48-.09-.83-.1-1.27-.05-1.77-.17-2.12-.18-2.88,0-.73.47-2.02,1.18-4.64,1.21-4.45,1.9-4.12,2.68-6.88.99-3.49,4.22-11.06,5.18-10.75.93.29.06,2.67,1.75,5.63.31.55,1.28,2.12,3.15,3.07.72.37,1.97,1.01,2.97.5.43-.22.76-.8,1.43-1.95.51-.88.77-1.32.81-1.73.09-.82-.29-1.15-.68-2.47-.15-.52-.23-1.06-.39-2.15-.28-1.94-.34-3.52-.35-4.35-.02-1.42.07-1.56.08-3.05,0-1.75-.1-3.17-.19-4.08.27-1.29.53-2.59.8-3.88.72-2.45,1.45-4.89,2.17-7.34.38-1.16.95-2.64,1.84-4.25,1.31-2.36,2.69-3.91,3.07-4.31,1.17-1.28,1.93-1.78,5.64-4.5,1.06-.78,2.7-1.98,4.74-3.5.32,4.04-.44,6.25-1.26,7.53-.3.48-1.26,1.83-1.7,3.87-.06.28-.19.95-.22,1.76-.07,1.93.51,3.1,1.68,6.29,1.27,3.44,1.48,4.48,1.4,5.14,0,.07-.05.18-.07.35-.12,1.07.59,1.88,1.21,2.8.45.66.73,1.23,1.29,2.38.71,1.45,1.02,2.62,1.4,4.03.85,3.2,1.5,4.73,2.1,4.79.85.09,1.89-1.72,2.27-3.01.21-.7.17-1.08.58-2.62.21-.77.32-1.16.53-1.6.27-.57.92-1.92,1.8-2.05,1.16-.18,2.55,1.79,3.13,3.56.74,2.24,2.1,2.94,2.85,6.57,1.43,6.92.66,6.17-1.3,11.51l-.03.04Z"/>
    <path class="st0" d="M28.11,87.36c-4.45-.77-8.19-2.17-8.2-2.17,0,0-1.07,1.9-.71,3.3.35,1.35,1.85,1.58,1.77,2.07-.19,1.15-8.52-1.22-11.73,2.27-2.28,2.48-1.8,7.71.39,9.1,2.45,1.55,6.34-2.13,8.34-.42,1.27,1.08,0,2.81,1.27,4.96,1.66,2.82,6.04,3.6,9.07,3.25,1.34-.16,1.86-.47,6.59-2.75,7.14-3.45,8.86-4.15,9.54-3.49.88.86-1.21,2.85-.43,5.29.95,2.95,5.74,5.43,9.61,3.88,1.84-.74,3.62-2.44,4.09-4.59.61-2.84-1.42-4.96-.86-5.42.83-.67,5.04,4.04,12.24,8.26,5.3,3.1,6.76,2.74,7.45,2.45,1.8-.77,7.24-6.98,2.59-9.79,1.17-.26,5.31-.2,5.81-.21,2.08-.05,4.89,1.08,6.48.05,1.7-1.11,2.03-5.47.06-7.81-3.37-3.99-12.82-1.44-12.96-2.44-.09-.62,3.39-1.23,3.83-3.03.4-1.66-2.22-2.36-2.22-2.36,0,0-3.43,1.6-6,3.28-3.61,2.36-14.1,9.23-16.63,7.13-1.32-1.09.7-3.63-.97-6.06-1.87-2.72-7.11-3.48-9.4-1.48-1.45,1.27-.67,2.74-2.13,3.86-2.12,1.63-5.82.13-8.64-1.02-3.31-1.35-4.87-3.02-5.36-3.58-.96-1.1-1.85-2.34-2.9-2.52h.01Z"/>
    <path class="st3" d="M41.73,100.14c-.84.19-1.64.47-2.43.8-1.03.43-2.01.94-3.03,1.37"/>
    <path class="st3" d="M23.94,103.77c-.13.07-.77.39-1.04,1.16-.05.15-.3.9.12,1.62.36.63.99.82,1.3.91.8.24,1.48.02,1.76-.08.6-.21,1-.55,1.21-.75"/>
    <path class="st3" d="M26.41,104.77c.06-.07.66-.75.45-1.59-.15-.59-.6-.9-.76-1.01-.47-.32-.92-.34-1.76-.38-.67-.03-1.31-.05-2.07.24-.42.16-.8.3-1.1.66-.68.81-.37,2-.31,2.19"/>
    <path class="st3" d="M15.69,95.5c-.95-.08-1.9-.11-2.86-.16-.19,0-.38-.03-.57,0"/>
    <path class="st3" d="M37.39,99.42c-1.04.27-2.01.7-2.88,1.35"/>
    <path class="st3" d="M21.13,96.93c-.94.12-1.87,0-2.81-.03"/>
    <path class="st3" d="M15.15,98.06c-.19.09-.39.05-.58.04-.57-.02-1.14-.09-1.7.06"/>
    <path class="st3" d="M28.51,104.82c-.08.27-.21.62-.46.96"/>
    <g>
      <path class="st0" d="M67.21,72.83c-.25-.65-.4-1.36-1.12-1.71,0,0-.02,0-.02-.01-.61.44-.63,1.14-.72,1.76-.07.53-.22,1.01-.41,1.47l2.27-1.5Z"/>
      <path class="st0" d="M66.38,88.06h0l.5-.33c.37-.92.74-1.84,1.23-2.71.44-.77.62-1.6.69-2.48l-4.35,2.88h0l-14.02,9.28,5.52.26,10.45-6.92Z"/>
      <path class="st0" d="M64.12,84.66h0l4.72-3.12c.05-1.28.06-2.55-.09-3.83,0,0,0-.02,0-.02l-6.57,4.35h0l-18.66,12.36,5.52.26,15.09-9.99Z"/>
      <path class="st0" d="M51.5,55.77c-.1.67-.33,1.32-.58,1.95-.23.57-.36,1.14-.44,1.72l8.34-5.52c-.59-.93-1.27-1.79-2.05-2.56l-5.19,3.44c-.01.32-.04.65-.08.97Z"/>
      <path class="st0" d="M52.55,46.86c-.29-.54-.59-1.06-1.31-1.1h-.12c.04.18.03.38-.05.62-.11.32.02.67.15.99.2.5.32,1.02.39,1.54l1.5-1c-.2-.34-.37-.7-.56-1.05Z"/>
      <path class="st0" d="M50.39,60.78c0,1.42-.32,2.74-1.06,3.97-.11.18-.2.36-.3.55l1.58-1.05h0s9.91-6.56,9.91-6.56c-.33-1.06-.72-2.1-1.26-3.08l-8.85,5.86c0,.1-.01.2-.01.3Z"/>
      <path class="st0" d="M51.65,50.15c-.06.74.17,1.46.06,2.19-.07.49-.09.97-.1,1.46l4.53-3c-.18-.15-.34-.31-.53-.46-.56-.44-1.11-.88-1.65-1.34-.15-.13-.27-.27-.4-.41l-1.92,1.27c0,.1,0,.19,0,.29Z"/>
      <path class="st0" d="M52.86,67.65h0l8.58-5.68c-.03-.85-.22-1.7-.43-2.52-.08-.31-.17-.63-.25-.94l-9.7,6.42h0s-3.14,2.08-3.14,2.08c-.02.02-.04.05-.07.07-.14.12-.27.2-.4.24l-7.63,5.05c.09.44.19.88.27,1.33.16.86-.28,1.38-1.16,1.35-.26,0-.53.01-.78-.04-.49-.1-.87-.36-1.11-.8l-4.63,3.07c.22,1.16.45,2.31.68,3.47l19.78-13.09Z"/>
      <path class="st0" d="M46.04,57.49c-.23-.53-.55-.66-1.06-.38-.45.24-.75.63-1.09.99-.69.75-1.44,1.45-2.15,2.18-.04.04-.08.09-.12.14l4.42-2.92Z"/>
      <path class="st0" d="M59.18,94.58c.41-.02.74-.2,1.05-.39,1.53-.92,2.93-2.02,4.37-3.06.75-.54,1.31-1.2,1.7-2.03l-8.98,5.95.91.04c.32-.18.59-.49.96-.51Z"/>
      <path class="st0" d="M39.66,92.05l-.03.02c.44.28.89.55,1.3.88.57.45.58.43.42,1.12-.02.07,0,.14-.01.21l.81.04,19.74-13.07h0l6.77-4.48c-.14-1.11-.34-2.19-1.05-3.14-.01-.02-.02-.04-.03-.06l-3.81,2.52c-.08.07-.17.13-.26.17l-3.56,2.36h0l-20.27,13.42h0Z"/>
      <path class="st0" d="M39.21,91.37h0l20.41-13.51h0l2.36-1.56c-.59-.23-.89-.72-.99-1.39-.07-.55-.02-1.08.02-1.62,0-.09.01-.19.02-.28l-3.35,2.22h0l-20.41,13.51h0l-.87.58c.33.42.68.82,1.07,1.21.43.42.91.75,1.4,1.07l.34-.22Z"/>
      <path class="st0" d="M34.7,84.57h0l20.41-13.51h0l6.17-4.09c.05-1.33.09-2.67.14-4.01l-8.26,5.47h0l-19.91,13.19c.03.14.05.28.08.43.2.94.44,1.87.83,2.74.02.04.03.08.04.12l.49-.33Z"/>
      <path class="st0" d="M45.02,61.75c-.14-1.05-.11-2.03.7-2.84.13-.13.22-.28.3-.43l-5.49,3.63c-.33.77-.52,1.6-.65,2.46-.1.66-.15,1.33-.18,2l5.56-3.68c-.1-.38-.19-.76-.24-1.15Z"/>
      <path class="st0" d="M34.28,70.03s-.03-.05-.04-.08c-.41.17-.64.45-.8.77l.9-.59s-.04-.07-.06-.1Z"/>
      <path class="st0" d="M46.51,66.76c-.4-.89-.61-1.83-.91-2.75-.03-.1-.06-.2-.09-.3l-5.83,3.86c0,.51,0,1.02.02,1.52.03.79-.04,1.58,0,2.37l6.9-4.57c-.03-.05-.07-.08-.09-.14Z"/>
      <path class="st0" d="M35.37,71.62c-.22-.25-.41-.52-.59-.8l-1.79,1.19c-.17.44-.37.87-.61,1.28-.43.74-.45,1.56-.29,2.33.05.26.1.53.15.79l4.45-2.94c-.35-.68-.82-1.28-1.32-1.85Z"/>
      <path class="st0" d="M36.81,88.07l20.55-13.61h0s3.72-2.46,3.72-2.46c.01-.38.02-.76,0-1.14-.03-.59.08-1.18.11-1.76.02-.37.03-.74.05-1.12l-5.82,3.86h0s-20.27,13.42-20.27,13.42h0s-.66.44-.66.44c.07.21.13.43.21.64.3.85.71,1.62,1.2,2.34l.91-.6h0Z"/>
    </g>
    <path class="st1" d="M59.45,103.54c4.6,2.62,9.52,5.66,14.02,8.49.81.56,1.84.66,2.74.4l-.14.07c1.03-.6,2.12-1.3,2.96-2.12.91-1.16,1.08-2.97,1.29-4.44,0-.24.07-.76.05-1,.06.16.29.4.56.39.09,0-.31-.08-.29-.09l-11.98-7.23c-.36-.2-.04-.78.33-.57l12.3,6.67-.31-.09c.15,0,.33.07.45.18.18.16.21.32.26.5.08.42.1.89.1,1.31-.08,1.93-.14,3.95-1.38,5.6-1.77,1.79-3.97,3.55-6.6,2.76-.89-.22-1.71-.9-2.46-1.35l-4.23-2.73c-2.8-1.85-5.6-3.71-8.35-5.65-.66-.47,0-1.5.7-1.1h-.02Z"/>
    <path class="st3" d="M77.88,105.84c-1.54.32-2.56,1.35-3.45,2.55-.22.3-.33.65-.37,1.02-.06.63.22,1.48,1.12,1.66"/>
    <path class="st3" d="M80.32,97.07c1.36.15,2.64.66,3.96.96.5.11.99.19,1.51.18"/>
    <path class="st3" d="M81.22,99.95c1.04,0,2.08-.01,3.12.14.03,0,.07-.06.11-.07"/>
    <path class="st3" d="M71.08,101.6c-.31-.31-1.06-.7-1.38-.84-.72-.32-1.41-1.01-2.15-1.28"/>
    <path class="st3" d="M64.2,100.84c1.32.88,1.61.89,2.38,1.4.69.45,1.4.86,2.12,1.25"/>
    <path class="st3" d="M62.4,102.7c.46.54,1.21,1.12,1.81,1.49.69.43,1.76.78,1.95.83"/>
    <path class="st3" d="M77.63,107.91c.6-.19,1.16.67,1.12.91-.17,1.05-1.51,1.31-2.21,1.18"/>
    <path class="st3" d="M75.57,94.85c-.54.04-1.08-.06-1.62.08"/>
    <path class="st3" d="M53,109.3c.44-.29.25-.71.08-.97-.4-.6-.95-1.04-1.76-1.04-.95,0-1.9-.18-2.82.19-.44.18-.9.31-1.18.73"/>
    <path class="st3" d="M50.05,95.47c-.4.01-.54,3.14-.57,4.4"/>
    <path class="st3" d="M53.04,98.22c-.16,0-.18,2.14.11,2.14"/>
    <path class="st3" d="M51.16,110.83h-.1c-.25-.81-.94-.65-1.53-.69-.1,0-.21-.04-.31,0"/>
    <path class="st1" d="M67.34,36.78c.62-.16,1.03.35,1.45.66,3.86,3.9,6.34,9.23,7.16,14.64.59,4.08-1.11,8.14-3.29,11.43-.46.83-.9,1.72-.71,2.45.32,1.45,2.72,2.6,3.57.9,1.48-2.66,1.93-5.82,2.74-8.76.1-.31.5-.66.91-.54.44.1.61.54.7.78.5,1.62.59,3.29.74,4.95.54,6.03-.05,12.09-1.58,17.95-.93,3.97-2.83,7.89-5.84,10.73-2.23,2.18-4.93,3.82-7.83,4.94-.96.37-1.94.73-3.01.66-.41-.03-.73-.39-.7-.8.02-.24.15-.45.33-.57.85-.57,1.78-.8,2.68-1.14,6.4-2.2,11.3-7.61,12.78-14.23,1.95-7.11,2.64-15.03,1.2-22.16.04.08.32.18.48.13.15-.03.28-.16.29-.19-.49,1.91-1.02,4.09-1.7,6.03-.55,1.44-1.02,3.28-2.63,4.02-2.36.8-5.01-1.89-3.96-4.21.99-2.31,2.72-4.23,3.42-6.59.64-1.82.85-3.77.69-5.7-.56-4.83-2.67-9.57-5.66-13.39-.58-.63-1.25-1.6-2.1-1.71-.18.11-.33-.18-.13-.26h0v-.02Z"/>
    <path class="st1" d="M58.66,13.82c-1.55,3.06-2.39,6.5-2.1,9.82.45,2.83,1.7,7.16,2.4,10.03,1.07,4.08,2.27,8.25,4.28,11.95.28.43.61.91,1.03.9,1.03-.34,2.06-2.17,2.8-3.17.19-.28.57-.35.85-.15.21.15.29.4.24.63-.2.89-.53,1.74-1.01,2.57-.81,1.6-2.92,2.97-4.53,1.5-1.16-1.04-1.64-2.45-2.19-3.76-2.53-6.59-3.91-13.45-5.01-20.41-.12-3.64.99-7.15,2.81-10.15.16-.25.57-.04.43.24h0Z"/>
    <path class="st1" d="M32.93,52.11c4.22,5.5,7.77,3.29,8-3.02.03-2.36-1.46-4.74-2.01-7.51-.59-2.74-.47-5.57.08-8.25,1.29-5.25,3.38-10.47,6.98-14.54,1.88-1.96,3.95-3.63,5.95-5.39,2.05-1.7,3.97-3.64,6.31-4.93.06-.03.11.07.05.1h-.02c-4.2,3.12-7.97,7.11-11.62,10.83-3.28,3.97-5.17,9.22-6.21,14.22-.46,2.54-.5,5.15.09,7.61.58,2.63,2.15,4.98,2.22,7.83.25,4.7-3.1,10.86-8.28,7.07-.77-.45-3.51-3.66-2.17-4.24.25-.08.51.02.64.23h-.01Z"/>
    <path class="st1" d="M40.96,96.05c-9.04-3.36-16.58-10.93-19.1-20.34-1.87-7.09.83-14.36,3.77-20.76.97-2.15,2.19-4.19,3.58-6.12.09-.12.25-.14.37-.06.12.08.14.25.06.36-1.28,1.93-2.4,3.97-3.29,6.13-2.61,6.27-4.94,13.27-3.06,20.05,2.53,8.8,9.79,15.85,18.36,18.85,1.23.45.57,2.33-.69,1.88h0Z"/>
    <path class="st1" d="M11.05,91.73c-3.62,2.71-2.62,4.21-1.26,7.99.1.23.18.53.37.7.13.12.31.2.5.2l2.34-.26c1.68-.16,3.38-.26,5.08-.23.33,0,.59.28.58.61,0,.27-.19.49-.44.56-2.03.56-4.12.9-6.2,1.17-.22.02-.75.1-.96.12-1.22.19-2.53-.56-2.95-1.73-.04-.09-.12-.36-.17-.46-.82-2.41-1.99-6.06.52-7.86.76-.57,1.65-.87,2.55-.89.04,0,.06.05.03.08h.01Z"/>
    <path class="st1" d="M19.42,85.58c-.28.81-.68,1.98-.39,2.74.18.27.65.61.97.81.59.48,2.02.67,1.55,1.69-.13.24-.37.37-.63.38l-5.13.35c-.41.03-.77-.28-.8-.7-.03-.41.28-.77.7-.8l5.13-.35-.34,1.39c-.44-.34-.83-.69-1.21-1.08-.42-.47-.78-.79-1-1.46-.13-1.24.5-2.08,1.06-3.03.03-.05.12,0,.09.05h0Z"/>
    <path class="st1" d="M43.43,103.93c-4.08,2.2-8.28,4.16-12.51,6.06-1.65.6-3.42.86-5.17.73-6.35-.64-10.45-3.89-6.47-10.23.19-.32.69-.04.52.29-.59,1.42-1.08,2.99-.95,4.41.07,1.39,1.25,2.29,2.62,2.83,2.76,1.08,5.92,1.29,8.69.13,3.82-1.81,8.46-3.9,12.67-5.52.81-.32,1.38.89.6,1.31h0Z"/>
    <path class="st1" d="M21.51,97.99l13.45-3.81c.18-.05.27.23.09.29l-13.16,4.71c-.79.28-1.19-.95-.38-1.19h0Z"/>
    <path class="st1" d="M23.06,90.24l6.17.43c.32.02.3.51-.01.51l-6.19.07c-.68,0-.65-1.04.03-1h0Z"/>
    <path class="st1" d="M56.33,92.2c-2.17-2.6-6.24-2.2-9.09-1.05-.09.04-.24.09-.31.17-.83,1.13-1.25,2.87-1.27,4.26-.37,4.59-.43,9.22-.81,13.86l-.06-.37c.65.92,1.5,1.83,2.4,2.26.93.46,2.33.48,3.42.59,1.24.08,2.55.11,3.61-.14,1.27-.28,2.69-2.2,2.88-3.58-.03-1.18-.33-4.48-.4-5.71l-.51-7.86c-.04-.5.73-.57.79-.07.34,2.56,1.21,9.12,1.5,11.61l.12.97c.48,2.53-1.17,5.03-3.33,6.19-2.28.8-4.51.53-6.78.37-2.29-.04-4.39-1.93-5.04-4.12.38-4.66.8-9.38,1.3-14.1-.03-.82.48-2.72,1.06-3.82.22-.45.59-1.03,1.16-1.18,3.09-1.11,7.43-1.35,9.64,1.52.13.18-.15.38-.27.2h-.01Z"/>
    <path class="st1" d="M56.46,107.78c-2.78-2.26-6.88-2.75-10.03-.76-.14.1-.31-.11-.19-.22,2.86-2.93,8.14-2.54,10.76.57.26.35-.25.74-.54.42h0Z"/>
    <path class="st1" d="M29.58,107.23c.76-3.11-1.23-6.5-4.34-7.43-.14-.04-.08-.26.06-.23,3.47.72,5.91,4.31,5.36,7.85-.11.74-1.24.54-1.08-.2h0Z"/>
  </g>
  <path class="st1" d="M79.88,102.83l11.85.15s-.36.17-.35.17c.51-1.28,1.66-2.77,1.37-4.12-.43-1.49-.89-3.5-2.15-4.45-.5-.19-1.17-.24-1.74-.32-2.58-.31-5.18-.5-7.77-.68-.17,0-.18-.29,0-.29,3.33-.06,6.66-.48,9.98-.04,1.27.46,2.04,1.7,2.64,2.71.57,1.07,1.07,2.28,1.09,3.53-.18,1.78-1.4,3.19-2.7,4.27-.09.11-.22.17-.36.17l-11.85.45c-1.03.03-1.06-1.55-.02-1.55h0Z"/>
  <path class="st1" d="M78.12,92.76c.14-.41.77-.6,1.09-.83l1.18-.69c.79-.45,1.59-.89,2.4-1.3l-.41.69c.2-.45.07-1.23-.32-1.59-.58-.46-1.1-.44-1.7-1.06,1.6-1.31,3.49,1.18,3.71,2.72,0,.3-.17.54-.41.69-1.07.76-2.3,1.54-3.43,2.24-.35.17-.82.65-1.24.58-.67-.09-1.1-.81-.87-1.45h0Z"/>
</svg>