<?xml version="1.0" encoding="UTF-8"?>
<svg id="_レイヤー_1" data-name="レイヤー_1" xmlns="http://www.w3.org/2000/svg" version="1.1" viewBox="0 0 100 100">
  <!-- Generator: Adobe Illustrator 30.0.0, SVG Export Plug-In . SVG Version: 2.1.1 Build 123)  -->
  <defs>
    <style>
      .st0 {
        fill: #ceb372;
      }

      .st1 {
        fill: #1c1917;
      }

      .st2 {
        fill: #fff;
      }
    </style>
  </defs>
  <path class="st2" d="M39.76,31.73c-3.63-1.09-7.58-2.28-12.18-1.88-1.64.14-8.05.7-12.49,5.45-2.28,2.44-3.13,5-4.08,8.23-5.43,18.44-3.06,20.45-6.6,36.03-.58,2.56-1.35,5.63.15,8.64,1.8,3.61,6.25,5.89,10.31,5.75,4.28-.15,7.09-2.97,11.39-7.43,2.38-2.47,5.63-6.32,8.61-11.8.73-1.34,2.14-2.17,3.67-2.17,7.6.02,15.2.04,22.8.06,1.28,0,2.49.59,3.28,1.61,1.6,2.06,3.71,4.89,6.03,8.32,4.78,7.07,5.43,9.3,8.58,10.76,4.09,1.9,9.79,1.31,13.4-1.85.66-.58,2.35-2.2,3.19-4.82,1.21-3.74-.29-7.15-.48-8.48-1.57-10.78-1.05-20.55-4.22-32.67-1.69-6.46-4.55-8.74-6.31-10.23-1.01-.86-5.07-4.11-10.82-4.46-4.18-.25-7.97,1.11-10.63,2.07-.83.3-1.51.58-1.97.77-5.75-.12-10.86.11-16.62-.01-1.04-.43-3.17-1.34-5.01-1.89Z"/>
  <path class="st2" d="M21.03,31.27l1.18-2.96c.28-.55.78-.91,1.34-.96l8.75-.73c.6-.05,1.17.26,1.5.82l1.59,2.64"/>
  <path class="st2" d="M81.85,32.83l-.98-3.52c-.28-.55-.78-.91-1.34-.95l-8.75-.7c-.6-.05-1.17.27-1.5.83l-1.58,2.65"/>
  <path class="st0" d="M66.25,46.85c-1.84.32-2.97,2.07-3.01,3.69-.02,1.08.44,2.55,1.73,3.21,1.52.78,3.26-.04,4.17-.97.1-.1,1.79-1.89.97-3.89-.62-1.51-2.34-2.3-3.87-2.03Z"/>
  <path class="st0" d="M82.13,47.17c-1.41-.1-2.85.76-3.46,2.13-.54,1.21-.4,2.7.49,3.76,1.13,1.34,3.19,1.63,4.55.74,1.19-.78,1.39-2.17,1.44-2.5.03-.21.27-2.15-1.15-3.36-.22-.18-.88-.7-1.86-.77Z"/>
  <path class="st0" d="M54.28,54.75c-.96.05-1.89.64-2.31,1.58-.45,1.02-.23,2.25.59,3.03,1.12,1.06,2.65.58,2.76.54.22-.07,1.03-.36,1.49-1.19.58-1.05.29-2.46-.59-3.27-.8-.74-1.79-.7-1.94-.69Z"/>
  <path class="st0" d="M24.66,47.23c.1-.77.04-1.52.09-2.4.06-1.04.04-1.99-.02-2.81,1.64-.09,3.29-.18,4.93-.27.04.82.07,1.68.07,2.57,0,.93-.02,1.83-.05,2.69,1.76.09,3.53.18,5.29.27.07.81.12,1.69.11,2.65,0,.92-.06,1.78-.13,2.56-.69.08-1.41.15-2.16.2-.85.06-1.66.1-2.45.11.1.85.17,1.8.19,2.81.02,1.08-.02,2.07-.1,2.97-1.82-.05-3.64-.1-5.45-.15-.11-.83-.19-1.79-.19-2.85,0-.99.07-1.89.18-2.68-.97.01-1.98,0-3.01-.02-.75-.02-1.48-.05-2.2-.09-.08-.55-.15-1.12-.21-1.71-.12-1.24-.07-2.4-.05-3.46.48-.12,1.2-.09,1.75-.17,1.32-.18,2.44-.03,3.43-.22Z"/>
  <path class="st1" d="M95.01,64.87c-.37-4.72-.82-9.44-1.7-14.1-.8-4.27-1.71-8.82-4.29-12.41-3.35-4.66-9.17-7.79-14.88-7.98-4.58-.15-9.13,1.36-13.29,3.12l1.15-.26c-4.57-.09-9.14.04-13.71.02-1.02,0-2.17.13-3.14-.18-.88-.28-1.73-.71-2.6-1.04-1.79-.67-3.65-1.21-5.5-1.68-6.69-1.71-14.03-1.2-19.95,2.6-.37.24-.16.33.11.43.35.12,1.04-.17,1.33-.36,6.07-3.9,13.1-3.12,19.69-1.16,1.7.51,3.36,1.12,5,1.8,1.55.64,3.37.38,5.03.38,4.01,0,8.02-.08,12.03-.03,1.39.02,2.56-.63,3.86-1.1,1.57-.56,3.17-1.09,4.81-1.41,3.73-.73,7.5-.24,10.91,1.43s6.8,4.57,8.6,8.14,2.6,7.95,3.28,11.99,1.06,8.19,1.38,12.31c.03.36,1.93.02,1.88-.5h0Z"/>
  <path class="st1" d="M95.77,73.74c-.22-2.08-.39-4.17-.56-6.25-.03-.36-1.92-.02-1.88.5.16,2.09.34,4.17.56,6.25.04.37,1.94.01,1.88-.5h0Z"/>
  <path class="st1" d="M10.25,43.12c-1.65,5.54-3.07,11.16-3.84,16.89-.56,4.13-.85,8.29-1.5,12.41-.45,2.84-1.07,5.63-1.67,8.43-.68,3.17-.76,6.36,1.32,9.06,3.21,4.18,9.3,5.5,14.08,3.48,2.56-1.08,4.62-3.02,6.56-4.95s3.94-4.07,5.68-6.31c.92-1.19,1.8-2.41,2.62-3.67.49-.74.95-1.5,1.4-2.26s.83-1.71,1.45-2.38c1.33-1.44,4.25-.86,6.06-.86,1.98,0,3.97,0,5.95.01,3.96,0,7.93-.04,11.9.03,2.07.04,3.06.95,4.25,2.52,1,1.31,1.98,2.64,2.94,3.99,1.99,2.79,3.86,5.67,5.71,8.56.95,1.48,1.89,3.07,3.21,4.26,3.9,3.53,10.63,2.96,14.94.59,2.41-1.32,4.37-3.44,5.33-6.04.6-1.63.73-3.38.52-5.09-.17-1.32-.62-2.57-.85-3.88-.07-.4-1.97.02-1.88.5.47,2.72,1.38,5.14.62,7.94-.67,2.51-2.34,4.77-4.56,6.14-3.97,2.44-9.98,2.01-13.12-1.61-1.31-1.52-2.32-3.32-3.4-5.01-1.83-2.86-3.74-5.67-5.75-8.41-1.48-2.02-2.96-4.86-5.69-5.19-1.63-.19-3.37-.05-5.01-.05-1.98,0-3.97,0-5.95-.01-3.8,0-7.6-.02-11.4-.03-2.36,0-4.76.41-6.11,2.57-1.73,2.76-3.29,5.54-5.33,8.1-1.7,2.14-3.59,4.12-5.54,6.04s-4.31,4.3-7.22,4.64-5.93-.83-8.11-2.66c-2.53-2.14-3.5-5.13-3.09-8.38.36-2.86,1.2-5.67,1.7-8.5.79-4.43,1.14-8.9,1.7-13.35.76-6.06,2.22-11.98,3.97-17.83.12-.39-1.71-.16-1.86.33h0Z"/>
  <path class="st1" d="M14.23,35.37c-1.08,1.16-1.95,2.48-2.61,3.92-.15.32.64.22.76.2.24-.05.5-.11.72-.23.13-.07.32-.15.38-.3.63-1.37,1.44-2.62,2.46-3.72.28-.3-.25-.34-.45-.32-.25.02-.5.07-.73.16-.18.07-.39.15-.53.29h0Z"/>
  <path class="st1" d="M66.38,46.33c-1.91.36-3.56,1.63-3.99,3.59-.35,1.59.28,3.43,1.74,4.24,1.83,1.02,4.42.19,5.79-1.25.92-.97,1.57-2.36,1.31-3.71-.42-2.18-2.84-3.19-4.85-2.87-.35.05-.99.22-1.07.64s.56.45.81.41.49-.06.76,0c.31.05.61.15.89.29.58.29,1.09.79,1.36,1.39.53,1.18.14,2.43-.61,3.4-.05.07-.11.13-.16.2-.07.09.14-.14.03-.04-.23.21-.42.39-.68.55-.28.17-.51.27-.82.34.13-.03-.09.01-.12.01-.19.02.2,0-.14,0-.19,0-.37-.03-.55-.08-1.25-.38-1.9-1.8-1.9-3.03,0-.72.24-1.45.65-2.04.19-.28.42-.53.7-.73-.1.07.16-.1.14-.08.01,0,.25-.13.12-.07.09-.04.17-.08.26-.11-.24.08.3-.06.07-.02.35-.06.99-.22,1.07-.64s-.56-.45-.81-.41Z"/>
  <path class="st1" d="M74.19,38.58c-1.87.29-3.57,1.6-3.99,3.5-.39,1.77.55,3.6,2.16,4.39,1.73.85,3.96.5,5.44-.69s1.7-3.18.85-4.79-2.57-2.63-4.46-2.41c-.35.04-.99.23-1.07.64s.56.44.82.41c.99-.12,1.97.61,2.55,1.41.77,1.06,1.11,2.64.37,3.8-.16.25-.39.5-.59.65-.03.02-.3.18-.29.17-.11.05-.2.09-.26.1-.09.02-.18.05-.27.07.18-.03-.02,0-.07,0-.03,0-.23.02-.09.01-.08,0-.16,0-.23,0-.27,0-.55-.04-.85-.15-1.28-.44-2.18-1.75-2.21-3.09-.01-.74.25-1.48.68-2.07.19-.25.46-.52.67-.65s.19-.12.37-.2c.03-.01.18-.06.02,0,.06-.02.12-.03.18-.05-.1.02-.1.02.02,0,.35-.05.99-.23,1.07-.64s-.56-.45-.82-.41Z"/>
  <path class="st1" d="M82.45,46.47c-2.06-.12-4.22,1.09-4.85,3.13s.26,4.08,2.17,4.99c1.77.84,4.17.44,5.41-1.14.74-.94,1.01-2.12.91-3.29-.17-1.97-1.67-3.51-3.65-3.69-.45-.04-1.03.14-1.22.58-.19.42.17.78.58.82.59.05.99.22,1.46.62s.74.97.87,1.57c.03.14.05.29.07.43,0,.02.02.24,0,.08,0,.06,0,.12,0,.18,0,.17,0,.35-.02.52-.01.1-.03.2-.04.3s-.04.2-.06.3c-.03.13,0,.02,0,0-.03.09-.06.17-.09.26-.09.25-.25.55-.34.67-.05.07-.11.14-.17.21,0,0-.2.2-.1.11-.07.07-.15.12-.23.18-.1.07-.11.08-.02.02-.05.03-.1.06-.15.08-.06.03-.13.06-.2.09-.15.06.22-.05-.04.01-.08.02-.17.04-.25.07-.27.07.18,0-.09.01-.09,0-.18.02-.26.02-.02,0-.3-.01-.11,0-.18-.01-.36-.03-.53-.07.15.03-.13-.04-.13-.04-.09-.03-.17-.06-.26-.09-.14-.05-.22-.09-.31-.14-.33-.19-.61-.41-.85-.71-.44-.56-.68-1.27-.65-1.98.03-.81.34-1.54.92-2.08-.1.09.13-.11.12-.1.1-.08.2-.15.31-.22-.15.09.11-.06.12-.06.08-.04.17-.08.25-.12-.19.08.08-.03.1-.03.12-.04.24-.07.36-.09-.21.04.09,0,.11,0,.06,0,.12,0,.18,0-.09,0-.08,0,.03,0,.45.03,1.02-.13,1.22-.58.18-.41-.17-.79-.58-.82Z"/>
  <path class="st1" d="M74.2,54.3c-1.48.17-3.01,1.02-3.7,2.39-.74,1.46-.5,3.27.6,4.48,1.31,1.44,3.5,1.63,5.23.89s2.88-2.55,2.48-4.5c-.18-.91-.71-1.77-1.44-2.35-.92-.73-2.01-.99-3.17-.9-.34.03-.99.24-1.07.64-.08.43.56.43.81.41,1.22-.1,2.44,1.05,2.84,2.19s.24,2.71-.82,3.51c-.27.21-.42.25-.68.32-.29.07.15,0-.15.02-.07,0-.14.02-.2.02.14,0-.19,0-.17,0-.09,0-.1,0-.19-.02-.63-.09-1.19-.41-1.63-.86-.83-.84-1.17-2.09-.89-3.24.09-.36.23-.69.44-.99.03-.05.07-.1.11-.14.02-.03.05-.06.07-.09.09-.12-.08.08.03-.03.1-.1.19-.19.3-.28-.01,0,.18-.15.1-.08-.04.03.15-.1.19-.12.05-.03.1-.06.15-.09-.14.07.18-.07.21-.08-.04.02-.16.04.04,0,.12-.03.13-.03.05-.02.07-.01.14-.02.21-.03.34-.04.99-.23,1.07-.64s-.56-.44-.81-.41Z"/>
  <path class="st1" d="M54.7,54.4c-1.6.11-3.48.96-3.84,2.68-.29,1.42.53,2.8,1.92,3.2,1.07.31,2.37.06,3.37-.4.64-.29,1.24-.72,1.58-1.34.31-.57.39-1.28.25-1.91-.32-1.42-1.66-2.31-3.08-2.23-.45.02-.94.12-1.33.36-.08.04-.26.14-.23.25s.25.11.32.11c.05,0,.09,0,.14,0,.04,0,.08,0,.11,0-.14,0-.06,0-.02,0,.23.03.46.07.68.16.56.23,1,.64,1.28,1.18.51.99.43,2.31-.47,3.05-.05.04-.1.08-.16.12.02-.02.08-.05-.02,0-.05.03-.1.06-.15.08.18-.11.05-.02,0,0-.22.1.19-.07,0,0-.23.08.16-.04.11-.03-.09.02-.26.04.1-.02-.04,0-.07.01-.11.02-.18.04.06-.02.06,0,0,.01-.38.03-.1.02-.06,0-.11,0-.17,0-.02,0-.24-.01-.14,0-1.13-.11-1.97-1.03-2.12-2.14-.09-.65.07-1.31.46-1.84.16-.22.4-.45.6-.56.04-.02.08-.05.13-.07-.07.04-.07.04.02,0-.11.04-.11.04-.01,0-.35.11.21-.04-.15.04.1-.02.09-.02-.02,0,.05,0,.1,0,.14-.01.4-.03.96-.16,1.26-.44s-.29-.27-.43-.26Z"/>
  <path class="st1" d="M44.85,53.91c-1.48,0-2.81,1.06-3.38,2.39-.48,1.11-.5,2.55.3,3.53,1.06,1.31,3.14,1.42,4.54.62,1.29-.74,1.92-2.11,1.79-3.58-.14-1.57-1.41-2.91-3.01-2.97-.44-.02-1.01.13-1.23.56-.2.4.17.73.56.74.08,0,.16,0,.24.02.16.02.05,0,.01,0,.12.03.24.07.36.12-.14-.06.07.05.08.05.04.03.08.05.12.08.15.11.14.1.25.21.35.37.52.7.64,1.17s.13.85.02,1.35c-.01.07-.03.14-.05.21,0,.01-.04.13,0,.04-.04.11-.09.22-.14.33s-.11.21-.18.31c.08-.12-.01.01-.03.04-.05.06-.11.12-.17.19-.11.12-.02.02,0,0-.06.05-.11.09-.17.13-.13.1-.01.01.02,0-.07.04-.14.07-.2.1-.05.02-.17.05.03,0-.08.02-.15.04-.23.07-.05.01-.18.02.02,0-.09.01-.19.01-.28.03-.15.02.21.02-.04,0-.05,0-.11,0-.16-.01-.01,0-.27-.06-.11-.01-.05-.01-.11-.03-.16-.04-.21-.07-.45-.19-.62-.34-.39-.35-.56-.78-.63-1.3-.04-.33.02-.81.11-1.22.04-.18-.05.12.01-.05.02-.05.04-.11.06-.16.05-.11.1-.23.16-.34.02-.04.04-.08.06-.11.02-.03.17-.26.07-.12.07-.09.14-.18.22-.27.05-.05.1-.1.14-.15.15-.16-.13.09.05-.04.06-.04.12-.08.17-.13.15-.12-.15.06.04-.02.05-.02.12-.04.16-.08.07-.03.04-.02-.07.03.05-.02.09-.03.14-.04.09-.03.08-.07-.04,0,.07-.04.23-.02.31-.02.39,0,.99-.3,1.04-.73.06-.48-.52-.57-.86-.57Z"/>
  <path class="st1" d="M25.6,47.09c.18-1.74.2-3.58.07-5.33l-1.32.73c1.64-.09,3.29-.18,4.93-.27l-.56-.23c.08,1.71.09,3.42.02,5.14-.01.31.31.33.56.35,1.76.09,3.53.18,5.29.27l-.56-.23c.14,1.7.14,3.4-.02,5.09l1.08-.6c-1.45.16-2.91.26-4.37.29-.36,0-1.38.2-1.32.73.21,1.89.24,3.78.09,5.67l1.32-.62c-1.82-.05-3.64-.1-5.45-.15l.56.23c-.23-1.81-.24-3.61-.01-5.42.04-.3-.33-.35-.56-.35-1.74.02-3.48-.02-5.21-.11l.56.23c-.25-1.73-.29-3.43-.26-5.18l-1.09.71c1.7-.33,3.47-.11,5.18-.38.27-.04,1.07-.23,1.08-.6s-.52-.37-.79-.33c-1.7.27-3.47.06-5.18.38-.36.07-1.08.24-1.09.71-.03,1.75,0,3.45.26,5.18.03.22.41.22.56.23,1.74.09,3.47.12,5.21.11l-.56-.35c-.23,1.88-.23,3.78,0,5.66.03.22.42.23.56.23,1.82.05,3.64.1,5.45.15.28,0,1.28-.19,1.32-.62.16-1.97.14-3.94-.08-5.9l-1.32.73c1.62-.04,3.23-.15,4.84-.33.27-.03,1.05-.23,1.08-.6.17-1.78.18-3.55.03-5.33-.02-.22-.43-.22-.56-.23-1.76-.09-3.53-.18-5.29-.27l.56.35c.08-1.79.07-3.58-.01-5.37,0-.21-.43-.24-.56-.23-1.64.09-3.29.18-4.93.27-.37.02-1.36.19-1.32.73.12,1.67.11,3.43-.06,5.09-.07.66,1.82.3,1.87-.27Z"/>
  <path class="st1" d="M21.97,31.14c.38-.96.68-2.04,1.17-2.94.21-.39.24-.38.64-.41l1.56-.13,4.37-.37,1.74-.15c.3-.02.62-.05.75,0,.64.26.97,1.07,1.31,1.63.31.52.62,1.04.94,1.56.34.57,2.13-.09,1.88-.5-.31-.52-.62-1.04-.94-1.56s-.63-1.26-1.12-1.65c-.94-.77-2.47-.41-3.59-.31l-4.93.41c-1.17.1-2.53.04-3.56.7-.76.49-1,1.2-1.31,1.99-.26.66-.53,1.33-.79,1.99-.2.51,1.65.3,1.87-.27h0Z"/>
  <path class="st1" d="M76.63,27.6c-1.4-.11-2.79-.22-4.19-.34-.65-.05-1.35-.17-2-.05-.81.15-1.6.56-2.04,1.27-.13.2-.24.41-.37.61-.4.68-.81,1.36-1.21,2.03-.22.36.19.49.49.49.37,0,1.03-.14,1.25-.5.3-.51.61-1.02.91-1.54l.55-.93c.03-.06.07-.12.1-.17.05-.07.09-.15.15-.22.12-.14.21-.11.07-.14-.02,0-.26-.01-.11.01.08.01.16.01.24.02l.88.07,2.46.2c.54.04,1.09.09,1.63.13.46.04.97-.05,1.33-.36.27-.23.25-.57-.16-.61h0Z"/>
  <path class="st1" d="M82.79,32.58c-.22-.79-.44-1.58-.66-2.36-.1-.36-.19-.74-.31-1.1-.22-.68-.97-1.14-1.65-1.23-.43-.05-.86-.07-1.29-.1-.46-.04-.97.05-1.33.36-.1.09-.24.23-.19.38.04.14.23.22.36.23.39.03.79.06,1.18.09.02,0,.03,0,.05,0,.03,0,.07,0,.1.01.02,0,.15.03.07,0-.09-.02.1.04.1.03.04.02.08.03.12.05.1.05.12.06.2.14.17.14.34.32.41.52.11.33.19.67.28,1.01l.43,1.53c.09.31.17.62.26.93.1.37.81.25,1.06.18.24-.07.93-.31.83-.68h0Z"/>
  <path class="st1" d="M83.35,9.23c1.78-.9,3.38-2.14,4.87-3.45.11-.09.27-.25.23-.42s-.27-.23-.41-.25c-.49-.07-1.16.08-1.54.41-.8.71-1.63,1.38-2.51,2-.09.06-.18.12-.26.18-.05.03-.09.07-.14.1.1-.06.1-.06,0,0-.17.11-.35.22-.52.33-.34.2-.68.4-1.03.57-.26.13-.68.58-.22.75s1.09,0,1.53-.23h0Z"/>
  <path class="st1" d="M52.21,33.22c-.74-5.9,1.13-11.72,3.71-16.97s7.1-10.26,13.36-10.5c2.25-.09,4.16.78,5.61,2.48,1.19,1.39,2.27,2.13,4.16,2.2.75.03,2.33-1.06.88-1.11-2.1-.08-2.82-2.07-4.31-3.18s-3.41-1.54-5.26-1.5c-3.2.05-6.57,1.2-9.22,2.96-5.18,3.44-8.09,9.53-9.92,15.29-1.13,3.54-1.63,7.21-1.16,10.91.08.62,2.27.15,2.17-.58h0Z"/>
</svg>