<svg xmlns="http://www.w3.org/2000/svg" id="_レイヤー_1" viewBox="0 0 100 100"><defs><pattern id="_6_dpi_40_" width="48" height="48" x="0" y="0" data-name="6 dpi 40%" patternTransform="rotate(-16.86 -23110.988 12543.952)scale(.34)" patternUnits="userSpaceOnUse" viewBox="0 0 48 48"><path d="M0 0h48v48H0z" style="fill:none"/><path d="M24 52.8a4.801 4.801 0 0 0 0-9.6 4.801 4.801 0 0 0 0 9.6M48 52.8a4.801 4.801 0 0 0 0-9.6 4.801 4.801 0 0 0 0 9.6M24 28.8a4.801 4.801 0 0 0 0-9.6 4.801 4.801 0 0 0 0 9.6M48 28.8a4.801 4.801 0 0 0 0-9.6 4.801 4.801 0 0 0 0 9.6M36 40.8a4.801 4.801 0 0 0 0-9.6 4.801 4.801 0 0 0 0 9.6M12 40.8a4.801 4.801 0 0 0 0-9.6 4.801 4.801 0 0 0 0 9.6M36 16.8a4.801 4.801 0 0 0 0-9.6 4.801 4.801 0 0 0 0 9.6M12 16.8a4.801 4.801 0 0 0 0-9.6 4.801 4.801 0 0 0 0 9.6M0 52.8a4.801 4.801 0 0 0 0-9.6 4.801 4.801 0 0 0 0 9.6M0 28.8a4.801 4.801 0 0 0 0-9.6 4.801 4.801 0 0 0 0 9.6M24 4.8a4.801 4.801 0 0 0 0-9.6 4.801 4.801 0 0 0 0 9.6M48 4.8a4.801 4.801 0 0 0 0-9.6 4.801 4.801 0 0 0 0 9.6M0 4.8a4.801 4.801 0 0 0 0-9.6 4.801 4.801 0 0 0 0 9.6" class="st1"/></pattern><style>.st1{fill:#231815}.st4{fill:#ceb372;stroke:#ceb372;stroke-miterlimit:10;stroke-width:.25px}</style></defs><path d="M46.81 37.84c-3.33-1.06-6.95-2.21-11.19-1.9-1.52.11-7.43.53-11.58 4.84-2.13 2.21-2.95 4.57-3.87 7.52-5.27 16.9-3.11 18.79-6.59 33.09-.57 2.35-1.32 5.16.02 7.96 1.61 3.35 5.67 5.52 9.41 5.44 3.95-.08 6.57-2.64 10.6-6.68 2.23-2.24 5.28-5.74 8.1-10.75.69-1.23 2-1.97 3.41-1.95 7 .12 14 .25 21 .37 1.18.02 2.29.58 3 1.53 1.45 1.92 3.35 4.55 5.44 7.75 4.3 6.58 4.87 8.64 7.75 10.03 3.74 1.81 9 1.35 12.36-1.51.61-.52 2.19-1.99 3.01-4.4 1.17-3.43-.16-6.59-.32-7.82-1.3-9.95-.68-18.94-3.43-30.15-1.47-5.98-4.07-8.11-5.67-9.51-.92-.81-4.61-3.86-9.91-4.26-3.85-.29-7.35.91-9.82 1.75-.77.26-1.4.51-1.83.69-5.3-.19-10.01-.06-15.3-.25-.95-.41-2.9-1.28-4.59-1.82Z" style="fill:url(#_6_dpi_40_)"/><path d="m17.76 29.23 1.13-2.71c.26-.5.73-.83 1.25-.86l8.07-.55c.55-.04 1.07.26 1.37.78L31 28.35M73.75 31.53l-.86-3.25c-.25-.51-.71-.85-1.22-.89l-8.05-.77c-.55-.05-1.08.23-1.39.74l-1.49 2.42"/><path d="M23.81 28.02c-1.52.11-7.43.53-11.58 4.84-2.13 2.21-2.95 4.57-3.87 7.52-5.27 16.9-3.11 18.79-6.59 33.09-.57 2.35-1.32 5.16.02 7.96 1.61 3.35 5.67 5.52 9.41 5.44 3.95-.08 6.57-2.64 10.6-6.68 2.23-2.24 5.28-5.74 8.1-10.75.69-1.23 2-1.97 3.41-1.95 7 .12 14 .25 21 .37 1.18.02 2.29.58 3 1.53 1.45 1.92 3.35 4.55 5.44 7.75 4.3 6.58 4.87 8.64 7.75 10.03 3.74 1.81 9 1.35 12.36-1.51.61-.52 2.19-1.99 3.01-4.4 1.17-3.43-.16-6.59-.32-7.82-1.3-9.95-.68-18.94-3.43-30.15-1.47-5.98-4.07-8.11-5.67-9.51-.92-.81-4.61-3.86-9.91-4.26-3.85-.29-7.35.91-9.82 1.75-.77.26-1.4.51-1.83.69-5.3-.19-10.01-.06-15.3-.25-.95-.41-11.54-4.02-15.78-3.72Z" style="fill:#fff"/><path d="M2.82 71.17c-.32 1.63-1.02 4.14-1.16 5.77-.86 5.92 5.82 10.24 11.12 8.99 3.67-.96 6.31-4.29 8.97-6.88 2.69-2.82 5.02-5.98 6.97-9.36.52-1.02 1.23-2.02 2.28-2.55.97-.59 2.33-.61 3.35-.56l5.95.07 11.9.17 1.49.02c1.8-.11 3.66.65 4.64 2.21 1.11 1.58 4.1 5.81 5.18 7.35 1.64 2.41 3.16 5.14 4.79 7.47 2.06 3.09 6.16 3.76 9.58 3.03 5.78-1.17 8.75-6.85 6.81-12.39-.42-1.94-.51-4.1-.71-6.07-.59-7.9-.73-15.79-2.5-23.5-.75-3.82-2.12-7.43-5-9.91-2.76-2.62-6.33-4.38-10.08-4.67-3.87-.35-7.75 1.07-11.52 2.31-5.07-.25-10.18-.19-15.3-.44-2.3-.94-4.55-1.9-6.97-2.55-6.67-2.16-15.1-1.76-20.11 3.63-.43.51-1.23-.18-.78-.68 3.68-3.54 8.78-5.24 13.86-5.12 4.67.07 10.5 2.06 14.03 3.73 5.08.12 10.18-.07 15.31.05 2.21-1.14 7.89-2.92 11.58-2.57 6.26.46 12.2 4.35 14.99 9.94 2.5 5.6 3.07 11.74 3.72 17.74.49 5.47.63 10.86 1.31 16.27.39 2.49 1.31 4.95.7 7.68-1.48 8-11.8 11.4-18.32 7.14-2.61-1.89-3.85-4.95-5.55-7.46-.86-1.44-2.3-3.51-3.29-4.91l-3.38-4.84c-.22-.33-.47-.64-.79-.86-.98-.77-2.52-.49-3.73-.58-4.69-.08-14.64-.35-19.22-.41-1.29.09-2.13 1.06-2.67 2.16-3.05 5.25-7.12 9.77-11.68 13.76-1.54 1.31-3.34 2.55-5.48 3.01C7.93 88.41 1.9 85.25.67 79.96c-.67-2.98.56-6.15 1.18-9.01.16-.65 1.11-.42.98.22Z"/><path d="M10.44 35.96c-2.4 5.46-3.73 11.45-4.9 17.28-1.01 5.94-1.34 12.04-2.72 17.93-.13.62-1.11.44-.98-.21 1.42-5.89 1.78-11.91 2.84-17.88.82-4.48 2.06-8.86 3.43-13.2.46-1.44.95-2.9 1.68-4.27.09-.18.32-.25.49-.15.18.09.25.31.15.49ZM44.95 31.78c-.39-.24-.46-.53-.46-.82-.4-6.61 2.26-13.02 5.78-18.5 1.95-2.85 4.75-5.28 8.08-6.39 3.26-1.17 7.48-1.53 10.14 1.16.87.91 1.34 1.87 2.15 2.21 2.96 1.12 5.93-1.49 8.26-3.24.21-.18.54-.15.71.07.17.21.14.52-.06.7-2.52 2.04-5.87 5.02-9.46 3.64-1.14-.48-1.78-1.62-2.57-2.4-.7-.68-1.6-1.13-2.56-1.37-3.03-.62-6.31.46-8.89 2.1-3.57 2.4-5.81 6.26-7.45 10.2-1.58 3.71-2.7 7.65-2.36 11.69.18.59-.67 1.39-1.3.95Z"/><path d="M59.19 44.22c-1.7.27-2.77 1.87-2.82 3.35-.04 1 .37 2.36 1.54 2.98 1.38.74 3 .01 3.86-.84.09-.09 1.68-1.72.95-3.57-.55-1.4-2.12-2.15-3.53-1.93ZM73.81 44.74c-1.29-.12-2.63.66-3.22 1.91-.52 1.1-.4 2.49.4 3.47 1.02 1.25 2.92 1.55 4.18.75 1.11-.7 1.31-1.98 1.36-2.28.03-.19.28-1.98-1.01-3.11-.2-.17-.8-.66-1.7-.74ZM48.05 51.33c-.89.04-1.75.56-2.15 1.42-.43.93-.24 2.07.5 2.8 1.02.99 2.44.57 2.53.54.2-.06.96-.32 1.39-1.08.55-.96.31-2.26-.49-3.02-.73-.69-1.64-.67-1.78-.66ZM20.88 43.98c.1-.71.05-1.4.12-2.21.07-.96.07-1.83.02-2.59l4.55-.18q.045 1.14.03 2.37c0 .86-.04 1.68-.09 2.47 1.62.11 3.25.22 4.87.32.05.75.08 1.56.06 2.44-.02.85-.08 1.64-.16 2.36-.64.06-1.3.12-1.99.15-.78.04-1.53.07-2.25.07.08.79.13 1.66.13 2.59 0 .99-.05 1.91-.14 2.73-1.67-.07-3.35-.14-5.02-.22a19.605 19.605 0 0 1 .07-5.1c-.9 0-1.82-.02-2.78-.06-.69-.03-1.36-.06-2.02-.11-.07-.51-.13-1.03-.17-1.58-.09-1.14-.03-2.21 0-3.19.44-.1 1.1-.07 1.62-.13 1.22-.15 2.25 0 3.16-.15Z" class="st4"/><path d="M66.49 37.2c-1.55.19-2.82 1.71-2.82 3.35 0 1.25.73 2.43 1.84 2.99 1.36.69 3.19.43 4.16-.83 1.14-1.49.44-3.57-.66-4.6-.23-.22-1.21-1.08-2.52-.92ZM66.28 51.68c-1.41.11-2.2 1.2-2.3 1.34-.8 1.14-.7 2.63-.06 3.68.15.25.72 1.09 1.83 1.42 1.06.31 2.33.08 3.18-.79 1.06-1.07 1.07-2.73.44-3.89-.56-1.03-1.74-1.87-3.09-1.76M39.28 51.01c-1.23-.04-2.04 1.08-2.32 1.87-.27.77-.36 2.08.57 2.87.73.62 1.77.67 2.54.32 1.15-.52 1.58-1.97 1.31-3.11-.22-.93-.94-1.91-2.11-1.95Z"/></svg>