<?xml version="1.0" encoding="UTF-8"?>
<svg id="_レイヤー_1" xmlns="http://www.w3.org/2000/svg" version="1.1" viewBox="0 0 100 100">
  <!-- Generator: Adobe Illustrator 30.0.0, SVG Export Plug-In . SVG Version: 2.1.1 Build 123)  -->
  <defs>
    <style>
      .st0 {
        fill: none;
      }

      .st1 {
        fill: #ceb372;
      }

      .st2 {
        fill: #fff;
      }
    </style>
  </defs>
  <path class="st2" d="M39.6,33.61c-3.37-.94-7.03-1.96-11.25-1.5-1.51.16-7.4.8-11.4,5.25-2.05,2.29-2.79,4.67-3.6,7.65-4.66,17.08-2.44,18.89-5.4,33.31-.49,2.37-1.14,5.21.3,7.95,1.72,3.29,5.86,5.31,9.6,5.1,3.94-.22,6.47-2.87,10.35-7.05,2.15-2.32,5.07-5.92,7.71-11.03.65-1.25,1.93-2.04,3.34-2.07,7-.12,14-.25,21-.38,1.18-.02,2.31.5,3.05,1.42,1.52,1.87,3.51,4.43,5.71,7.55,4.53,6.43,5.17,8.46,8.1,9.75,3.8,1.68,9.04,1.03,12.3-1.95.6-.54,2.12-2.07,2.85-4.5,1.04-3.47-.4-6.58-.6-7.8-1.65-9.9-1.35-18.9-4.5-30.01-1.68-5.92-4.35-7.96-6-9.3-.95-.77-4.74-3.69-10.05-3.9-3.86-.15-7.31,1.17-9.75,2.1-.76.29-1.38.56-1.8.75-5.3,0-10,.3-15.3.3-.96-.38-2.95-1.18-4.65-1.65Z"/>
  <path class="st2" d="M22.34,33.54l1.03-2.75c.25-.51.7-.85,1.22-.91l8.05-.84c.55-.06,1.08.22,1.4.73l1.51,2.4"/>
  <path class="st2" d="M78.38,33.84l-.97-3.22c-.27-.5-.74-.82-1.25-.85l-8.07-.48c-.55-.03-1.07.27-1.37.79l-1.4,2.47"/>
  <g>
    <path class="st1" d="M64.28,47.04c-1.69.33-2.7,1.96-2.7,3.45,0,1,.45,2.34,1.65,2.93,1.41.69,3-.09,3.83-.98.09-.09,1.62-1.77.83-3.6-.6-1.38-2.19-2.07-3.6-1.8Z"/>
    <g>
      <path class="st1" d="M62.25,51.68c-.07-.18-.21-.08-.27-.27-.05-.2.08-.34.05-.52-.02-.19-.09-.18-.09-.38.01-.19.15-.19.18-.37.02-.18-.09-.25-.05-.44.06-.18-.27-.22-.19-.41.07-.2.4-.09.47-.26.09-.16.03-.26.14-.42.11-.16.26.04.37-.11.12-.13-.04-.29.1-.42.14-.13.16-.11.31-.22.16-.11.25.03.41-.06.16-.07.08-.31.27-.38.19-.07.41.11.41.11l-.19-.98s-.29.16-.51.25c-.23.08-.27-.02-.5.08-.21.13-.15.24-.34.38-.19.14-.29.01-.48.18-.18.17.08.32-.07.49-.14.18-.27.17-.4.37-.13.2-.17.14-.29.35-.1.22,0,.29-.08.51-.08.22-.28.16-.34.4-.05.24.16.27.13.5-.03.23-.09.23-.1.47,0,.24-.09.24-.06.48.03.24.28.17.33.39.05.22-.13.3-.05.53.09.22.18.18.28.39.11.21,0,.34.11.5l.82-.58c-.07-.11-.18-.02-.27-.19-.09-.17-.02-.2-.09-.37Z"/>
      <path class="st1" d="M67.02,51.76c-.11.16.05.23-.07.38-.12.15-.32.12-.46.24-.15.12-.1.18-.27.29-.16.11-.25-.02-.41.08-.16.09-.15.23-.33.3-.18.07-.02.34-.22.4-.2.06-.31-.26-.49-.23-.18.02-.22.12-.41.12-.19,0-.11-.24-.28-.25-.16-.03-.22.19-.4.13-.18-.05-.16-.09-.33-.16-.16-.09-.09-.23-.23-.33-.13-.1-.31.06-.45-.08-.14-.15-.07-.42-.07-.42l-.82.58s.27.2.44.37c.17.17.1.26.3.42.21.15.29.03.5.14.22.09.15.26.4.34.25.07.24-.23.47-.18.23.03.3.14.54.13.24,0,.22.06.46.04.24-.05.24-.17.46-.23.22-.07.3.13.52.03.22-.1.12-.3.32-.4.2-.12.24-.05.43-.19.19-.14.25-.06.43-.22.18-.16-.02-.33.15-.49.15-.17.32-.06.46-.26.13-.19.05-.25.17-.44.11-.2.29-.17.36-.34l-.91-.42c-.06.13.07.17-.03.34-.1.17-.16.13-.27.29Z"/>
      <path class="st1" d="M65.03,47.43c.18.02.16-.16.36-.13.2.03.27.21.45.27.18.06.2,0,.38.08.17.09.1.22.25.32.15.1.26.02.41.15.14.12.31-.13.45.02.14.16-.11.39-.01.54.1.15.2.15.28.33.06.18-.17.19-.12.36.03.17.26.12.28.31.02.19,0,.19-.01.38,0,.19-.18.18-.2.35-.04.17.19.26.13.45-.06.19-.34.28-.34.28l.91.42s.03-.32.1-.55c.07-.22.18-.2.24-.44.03-.25-.09-.26-.09-.51,0-.24.17-.24.15-.5-.03-.26-.31-.13-.36-.36-.06-.22,0-.33-.09-.55-.11-.21-.02-.23-.15-.44-.14-.21-.25-.16-.4-.33-.16-.17-.01-.33-.2-.5-.2-.15-.32.02-.52-.11-.2-.13-.17-.18-.38-.29-.22-.09-.18-.19-.41-.26-.23-.08-.28.18-.5.13-.22-.04-.22-.25-.46-.27-.24,0-.24.08-.48.1-.23.01-.31-.14-.5-.11l.19.98c.13-.02.1-.15.29-.17.19-.01.19.07.38.07Z"/>
    </g>
  </g>
  <g>
    <path class="st1" d="M78.9,47.04c-1.3-.07-2.61.75-3.15,2.03-.48,1.12-.31,2.5.53,3.45,1.07,1.21,2.97,1.44,4.2.6,1.08-.74,1.24-2.03,1.28-2.33.02-.19.21-1.99-1.13-3.08-.2-.16-.82-.63-1.73-.68Z"/>
    <g>
      <path class="st1" d="M75.99,50.96c-.03-.18-.2-.11-.22-.31-.02-.2.14-.31.15-.49.02-.18-.05-.19-.02-.38.04-.18.19-.15.24-.32.06-.16-.04-.25.04-.42.09-.16-.21-.26-.1-.44.12-.17.4,0,.51-.13.12-.13.09-.23.23-.36.15-.12.24.1.38,0,.14-.1.03-.28.2-.38.17-.08.18-.06.35-.13.18-.06.24.09.4.04.17-.04.15-.28.34-.3.2-.02.37.21.37.21l.05-1s-.32.09-.55.12c-.23.04-.26-.09-.49-.03-.24.07-.2.2-.41.28-.22.09-.28-.06-.5.05-.21.13,0,.33-.19.45-.18.13-.3.1-.47.25-.17.16-.2.09-.36.26-.15.19-.07.28-.2.47-.12.19-.31.09-.42.31-.11.22.11.3.03.51-.07.22-.14.2-.19.43-.04.23-.13.22-.15.46,0,.24.24.22.25.44.02.22-.19.27-.15.5.04.23.14.21.21.43.07.22-.06.33.01.5l.91-.42c-.05-.12-.17-.05-.23-.23-.06-.18.02-.2-.02-.37Z"/>
      <path class="st1" d="M80.54,52.49c-.13.12.02.23-.13.34-.15.11-.33.04-.48.11-.16.08-.14.13-.31.2-.18.04-.22-.09-.39-.07-.17.03-.21.15-.39.17-.18,0-.14.31-.34.29-.21-.02-.18-.36-.36-.39-.18-.05-.25.04-.43-.03-.18-.06-.02-.26-.19-.33-.15-.08-.26.11-.43,0-.15-.11-.14-.13-.28-.25-.14-.12-.03-.25-.15-.37-.11-.13-.32,0-.43-.17-.1-.17.01-.42.01-.42l-.91.42s.23.24.36.43c.13.19.04.27.19.46.17.17.26.09.44.24.18.15.08.28.28.42.21.13.29-.16.49-.05.2.09.23.22.45.3.22.07.17.13.4.19.23.04.28-.07.5-.05.23.02.23.22.47.23.24-.02.22-.23.44-.27.23-.03.24.02.47-.03.22-.08.26.02.48-.09.22-.1.07-.33.27-.44.18-.13.33.02.51-.15.17-.17.1-.24.25-.42.14-.19.31-.15.4-.31l-.87-.49c-.06.11.06.17-.05.32-.11.14-.17.09-.29.22Z"/>
      <path class="st1" d="M79.52,47.61c.17.06.19-.11.37-.03.18.08.19.28.34.38.15.1.18.06.32.18.14.13.02.24.13.37.1.14.24.1.33.26.09.16.33-.02.42.16.07.19-.23.33-.18.5.04.18.15.21.18.4.02.19-.21.15-.2.33,0,.18.23.18.22.38-.01.19-.04.18-.07.38-.03.19-.19.17-.24.34-.05.17.17.27.1.46-.07.18-.35.24-.35.24l.87.49s.06-.32.14-.54c.08-.22.2-.18.26-.41.06-.23-.08-.26-.04-.49.03-.22.2-.21.21-.45,0-.24-.28-.17-.29-.39-.01-.22.08-.3.04-.53-.04-.22.04-.21-.02-.44-.06-.23-.19-.21-.27-.43-.1-.21.1-.31-.03-.52-.12-.22-.31-.08-.44-.27-.15-.17-.09-.23-.27-.39-.18-.16-.11-.24-.31-.38-.2-.14-.32.09-.51-.02-.2-.1-.14-.3-.36-.38-.23-.08-.25.02-.48-.03-.23-.04-.27-.21-.45-.23l-.05,1c.13.01.12-.12.31-.1.18.04.16.11.33.16Z"/>
    </g>
  </g>
  <g>
    <path class="st1" d="M53.4,54.54c-.89.07-1.73.62-2.1,1.5-.4.95-.17,2.08.6,2.78,1.05.96,2.46.48,2.55.45.2-.07.94-.35,1.35-1.13.51-.98.23-2.27-.6-3-.75-.66-1.66-.61-1.8-.6Z"/>
    <g>
      <path class="st1" d="M51.68,57.71c-.04-.12-.2-.05-.23-.19-.03-.14.11-.25.1-.38,0-.13-.08-.13-.07-.27,0-.14.16-.12.18-.25.02-.12-.09-.19-.05-.32.05-.12-.26-.2-.19-.34.07-.14.37,0,.44-.1.07-.11.02-.19.11-.3.1-.1.23.1.32.01.09-.08-.04-.25.07-.34.12-.08.13-.05.25-.12.13-.06.2.09.31.04.12-.04.07-.28.21-.31.14-.03.29.17.29.17l-.08-1s-.24.13-.41.17c-.18.04-.21-.07-.4-.01-.18.07-.13.2-.29.28-.16.09-.24-.06-.41.05-.16.12.06.31-.07.42-.13.12-.24.09-.36.22-.11.14-.17.08-.27.23-.1.16,0,.24-.09.4-.08.16-.27.09-.34.27-.06.19.16.24.12.41-.03.18-.1.17-.11.35-.01.18-.1.18-.09.38.02.19.27.14.3.31.04.17-.16.24-.1.42.06.18.15.14.23.3.08.16-.04.28.04.41l.83-.56c-.05-.08-.16,0-.22-.12-.06-.12.01-.15-.04-.27Z"/>
      <path class="st1" d="M55.17,58.27c-.08.09.05.19-.05.29-.11.1-.27.02-.38.09-.11.07-.08.13-.21.19-.12.06-.2-.08-.3-.05-.12.03-.12.17-.26.19-.14.02-.05.32-.21.33-.16,0-.19-.32-.32-.32-.14,0-.18.08-.32.06-.14-.02-.04-.24-.16-.27-.12-.03-.19.17-.32.12-.12-.06-.11-.08-.23-.15-.12-.07-.02-.21-.12-.29-.09-.08-.27.08-.37-.02-.1-.11,0-.34,0-.34l-.83.56s.23.14.35.28c.13.13.04.23.19.35.15.13.24.01.39.11.16.1.08.24.26.32.19.07.23-.22.4-.16.17.05.2.15.39.19.18.02.15.1.34.1.19,0,.2-.12.38-.13.17-.02.21.19.39.16.19-.04.13-.25.3-.3.18-.06.2,0,.37-.07.16-.08.21,0,.37-.1.16-.1,0-.3.13-.41.13-.11.28.03.42-.11.13-.14.05-.2.16-.35.1-.15.27-.11.34-.25l-.9-.43c-.04.08.08.13.01.25-.07.11-.14.06-.22.16Z"/>
      <path class="st1" d="M53.91,55.01c.13.02.14-.15.28-.11.14.04.16.22.28.27.12.06.15,0,.27.07.11.08.02.2.12.28.09.09.21.01.3.12.09.1.3-.11.39,0,.08.14-.19.32-.13.44.06.12.16.12.2.25.05.13-.19.15-.16.27.03.12.24.09.26.23.01.14-.02.14-.01.28,0,.14-.17.13-.19.25-.02.12.21.19.17.33-.05.14-.3.16-.3.16l.9.43s.01-.27.06-.45c.05-.18.17-.15.2-.35.03-.19-.11-.21-.11-.39,0-.18.17-.19.15-.38-.03-.19-.3-.09-.33-.26-.04-.17.04-.25-.02-.42-.07-.17.02-.18-.07-.35-.08-.17-.2-.12-.3-.27-.11-.14.07-.28-.07-.43-.13-.15-.29.02-.42-.11-.14-.12-.1-.17-.25-.28-.16-.1-.11-.18-.28-.27-.18-.08-.25.16-.42.11-.16-.05-.13-.25-.32-.29-.18-.03-.2.07-.37.05-.18,0-.22-.18-.38-.17l.08,1c.09,0,.07-.14.21-.13.14,0,.13.09.26.11Z"/>
    </g>
  </g>
  <g>
    <path class="st1" d="M25.98,48.17c.08-.71,0-1.4.04-2.21.04-.96,0-1.83-.08-2.59,1.51-.11,3.03-.23,4.54-.34.05.76.09,1.54.11,2.36.02.86.02,1.69,0,2.48,1.63.05,3.25.1,4.88.15.08.74.14,1.56.15,2.44.01.85-.02,1.64-.08,2.36-.64.09-1.3.16-1.99.23-.78.07-1.53.12-2.25.15.11.79.19,1.65.23,2.59.04.99.02,1.91-.04,2.74-1.68-.01-3.35-.02-5.03-.04-.12-.77-.21-1.65-.23-2.63-.02-.91.03-1.74.11-2.48-.9.03-1.82.04-2.78.04-.69,0-1.37-.02-2.03-.04-.09-.5-.16-1.03-.23-1.58-.13-1.14-.11-2.21-.11-3.19.44-.12,1.1-.11,1.61-.19,1.21-.19,2.25-.08,3.15-.26Z"/>
    <g>
      <path class="st1" d="M29.16,42.68c-.08,0-.05.17-.13.18-.08,0-.14-.15-.21-.14-.08,0-.07.07-.15.08-.08,0-.09-.15-.17-.14-.08,0-.09.14-.17.14-.08,0-.03.31-.11.31-.08,0-.11-.33-.19-.32-.08,0-.09.1-.17.11-.08,0-.07-.23-.15-.22-.08,0-.06.22-.14.23-.08,0-.08-.02-.16-.02-.08,0-.09-.16-.17-.15-.08,0-.07.25-.15.25-.08,0-.17-.2-.17-.2l.07,1s.09-.11.17-.12c.08,0,.09.12.16.11.08,0,.07-.14.15-.15.08,0,.09.16.17.15.08,0,.03-.29.11-.3.08,0,.11.09.19.09.08,0,.07.07.15.07.08,0,.08-.13.16-.13.08,0,.1.21.17.2.08,0,.06-.22.14-.23.08,0,.08.07.16.06.08,0,.08.09.16.08.08,0,.05-.26.13-.26.08,0,.1.2.18.19.08,0,.07-.1.15-.11.08,0,.11.16.17.16l-.07-1c-.06,0-.04.13-.12.14-.08,0-.08-.07-.16-.07Z"/>
      <path class="st1" d="M31.04,46.55c0-.09-.17-.07-.17-.16,0-.09.15-.14.15-.23,0-.09-.07-.09-.07-.18,0-.09.15-.09.15-.18,0-.09-.13-.11-.13-.2,0-.09-.31-.05-.31-.14,0-.09.33-.11.33-.2,0-.09-.1-.11-.1-.2,0-.09.23-.06.22-.15,0-.09-.22-.08-.23-.17,0-.09.02-.09.02-.18,0-.09.16-.1.15-.19,0-.09-.25-.09-.25-.18,0-.09.21-.19.21-.19l-1,.05s.11.11.11.2c0,.09-.12.09-.12.18,0,.09.14.08.15.17,0,.09-.16.09-.16.18,0,.09.29.05.29.14,0,.09-.09.12-.09.21s-.07.08-.07.17c0,.09.13.09.13.18,0,.09-.21.09-.21.18,0,.09.22.08.22.17,0,.09-.07.09-.07.18,0,.09-.09.09-.09.18,0,.09.25.08.25.16,0,.09-.2.1-.2.18,0,.09.1.09.1.17s-.17.11-.17.17h1c0-.06-.13-.05-.13-.14,0-.09.08-.09.08-.18Z"/>
      <path class="st1" d="M34.27,47.53c-.09,0-.08.17-.17.16-.09,0-.14-.16-.24-.16-.09,0-.1.06-.19.06-.09,0-.09-.16-.18-.16-.09,0-.12.13-.21.12-.09,0-.07.3-.17.3-.09,0-.1-.34-.19-.34-.09,0-.12.09-.21.09-.09,0-.05-.23-.15-.24-.09,0-.1.21-.2.21-.09,0-.09-.03-.19-.03-.09,0-.09-.17-.19-.17-.09,0-.11.24-.21.23-.09,0-.17-.22-.18-.22l-.03,1s.12-.1.22-.1c.09,0,.09.13.18.13.09,0,.1-.14.19-.13.09,0,.09.17.18.17.09,0,.07-.29.17-.28.09,0,.12.1.21.11.09,0,.08.08.17.08.09,0,.11-.12.2-.11.09,0,.09.22.18.22.09,0,.1-.22.19-.21.09,0,.09.08.18.08.09,0,.09.1.18.1.09,0,.09-.25.19-.25.09,0,.1.21.19.21.09,0,.1-.09.19-.09.09,0,.11.17.18.17l.03-1c-.07,0-.06.13-.16.13-.09,0-.09-.08-.18-.08Z"/>
      <path class="st1" d="M36.03,51.67c0-.1-.17-.08-.16-.18,0-.1.16-.15.16-.25,0-.1-.06-.1-.06-.2,0-.1.16-.1.16-.2,0-.1-.13-.12-.12-.22,0-.1-.3-.07-.3-.16,0-.1.33-.12.32-.22,0-.1-.1-.12-.11-.22,0-.1.23-.07.22-.17,0-.1-.22-.09-.23-.19,0-.1.02-.1.02-.2,0-.1.16-.11.15-.21,0-.1-.25-.1-.25-.2,0-.1.2-.21.2-.21l-1,.08s.11.12.12.21c0,.1-.12.1-.11.2,0,.09.14.09.15.18,0,.1-.16.1-.15.2,0,.09.29.05.3.15,0,.1-.09.13-.09.22,0,.1-.07.09-.07.18,0,.1.13.1.13.2,0,.1-.22.1-.22.19,0,.09.22.09.21.19,0,.1-.08.1-.08.19,0,.1-.1.09-.1.19,0,.1.25.09.25.19,0,.1-.21.1-.21.2,0,.1.09.1.09.19,0,.1-.17.11-.17.18l1,.05c0-.07-.13-.07-.13-.17,0-.1.08-.09.08-.19Z"/>
      <path class="st1" d="M32.7,53.55c.07,0,.05-.17.12-.18.07,0,.13.15.2.14.07,0,.07-.07.14-.08.07,0,.09.15.16.14.07,0,.08-.14.15-.14.07,0,.02-.31.1-.31.07,0,.11.32.19.31.07,0,.08-.1.15-.11.07,0,.07.23.14.22.07,0,.05-.23.13-.23.07,0,.08.02.15.01.07,0,.09.15.17.14.07,0,.06-.25.13-.26.07,0,.17.2.17.2l-.12-.99s-.08.11-.15.12c-.07,0-.09-.12-.16-.11-.07,0-.06.15-.13.15-.07,0-.09-.16-.16-.15-.07,0-.02.29-.09.3-.07,0-.1-.09-.18-.08-.07,0-.07-.07-.14-.06-.07,0-.07.13-.14.14-.07,0-.09-.21-.16-.2-.07,0-.05.22-.12.23-.07,0-.08-.07-.15-.06-.07,0-.08-.09-.15-.08-.07,0-.05.26-.12.26-.07,0-.09-.2-.17-.19-.07,0-.07.1-.14.11-.07,0-.1-.16-.16-.16l.07,1c.06,0,.04-.13.11-.14.07,0,.08.07.15.07Z"/>
      <path class="st1" d="M31.96,57.21c0-.1-.17-.08-.17-.19,0-.1.16-.16.16-.27,0-.1-.07-.1-.06-.21,0-.1.15-.11.16-.21,0-.1-.13-.13-.13-.23,0-.1-.3-.06-.3-.17,0-.1.34-.13.33-.23,0-.1-.1-.12-.11-.23,0-.1.23-.08.22-.18,0-.1-.23-.09-.24-.2,0-.1.02-.11,0-.21,0-.1.15-.12.14-.22,0-.1-.25-.1-.26-.2,0-.1.2-.22.2-.23l-1,.09s.11.12.12.22c0,.1-.12.11-.11.21,0,.1.15.09.16.19,0,.1-.16.11-.15.21,0,.1.29.05.3.15,0,.1-.09.14-.08.24,0,.1-.07.09-.06.19,0,.1.12.11.12.21,0,.1-.21.11-.22.21,0,.1.22.09.22.19,0,.1-.07.1-.08.2,0,.1-.1.1-.1.2,0,.1.25.09.25.19,0,.1-.21.11-.21.21,0,.1.1.1.09.2,0,.1-.17.12-.17.2l1,.03c0-.08-.13-.07-.13-.18,0-.1.08-.1.08-.21Z"/>
      <path class="st1" d="M27.68,58.94c.1,0,.08-.17.18-.17.1,0,.16.16.26.16.1,0,.1-.07.2-.07.1,0,.1.15.2.16.1,0,.13-.13.23-.13.1,0,.07-.31.17-.3.1,0,.11.33.21.34.1,0,.13-.09.23-.09.1,0,.06.23.16.23.1,0,.1-.22.2-.22.1,0,.1.03.2.03.1,0,.1.16.2.16.1,0,.12-.24.22-.24.1,0,.19.22.2.22v-1s-.12.1-.22.1c-.1,0-.1-.13-.2-.13-.1,0-.1.14-.2.14-.1,0-.1-.17-.2-.17-.1,0-.07.29-.17.29-.1,0-.13-.1-.23-.1-.1,0-.09-.08-.19-.08-.1,0-.11.12-.21.12-.1,0-.1-.21-.2-.21-.1,0-.1.22-.2.22-.1,0-.1-.07-.2-.07-.1,0-.1-.1-.2-.1-.1,0-.09.25-.19.25-.1,0-.11-.2-.21-.21-.1,0-.1.1-.2.1-.1,0-.12-.17-.2-.17v1c.07,0,.06-.13.16-.13.1,0,.1.08.2.08Z"/>
      <path class="st1" d="M25.84,54.87c0,.1.17.08.16.18,0,.1-.16.15-.17.25,0,.1.06.1.06.2,0,.1-.16.1-.16.2,0,.1.12.12.13.22,0,.1.31.06.32.16,0,.1-.32.12-.32.22,0,.1.1.12.11.22,0,.1-.23.08-.22.17,0,.1.23.09.23.18,0,.1-.02.1-.01.2,0,.1-.15.12-.14.22,0,.1.25.09.26.19,0,.1-.2.21-.2.22l.99-.11s-.11-.11-.12-.2c0-.09.12-.11.11-.2,0-.09-.15-.08-.15-.18,0-.09.16-.1.15-.2,0-.09-.29-.05-.3-.14,0-.09.09-.13.08-.22,0-.09.07-.09.06-.18,0-.09-.13-.1-.14-.2,0-.09.2-.1.2-.2,0-.09-.22-.09-.21-.18,0-.09.08-.1.08-.19,0-.09.1-.09.1-.19,0-.09-.25-.09-.25-.18,0-.1.21-.1.21-.19,0-.09-.09-.1-.09-.19,0-.09.17-.11.18-.18l-1-.05c0,.07.13.07.12.17,0,.1-.08.09-.09.19Z"/>
      <path class="st1" d="M22.68,53.85c.09,0,.07-.17.16-.17.09,0,.14.16.23.16.09,0,.09-.07.18-.06.09,0,.09.16.18.16.09,0,.11-.13.2-.13.09,0,.06-.31.15-.31.09,0,.1.33.19.33.09,0,.11-.09.2-.1.09,0,.06.23.15.23.09,0,.09-.22.18-.22.09,0,.09.03.18.02.09,0,.09.16.18.16.09,0,.1-.24.19-.24.09,0,.18.21.18.21l-.02-1s-.11.11-.2.11c-.09,0-.09-.12-.18-.12-.09,0-.09.14-.17.14-.09,0-.09-.16-.17-.16-.09,0-.06.29-.15.29-.09,0-.12-.1-.2-.1-.09,0-.08-.08-.16-.07-.09,0-.1.12-.18.12-.09,0-.09-.21-.18-.21-.09,0-.09.22-.17.22-.09,0-.09-.07-.17-.08-.09,0-.09-.1-.17-.1-.09,0-.08.25-.17.25-.09,0-.09-.21-.18-.21-.09,0-.09.1-.18.09-.09,0-.11-.17-.17-.17l-.02,1c.07,0,.06-.13.15-.13.09,0,.09.08.18.08Z"/>
      <path class="st1" d="M20.77,49.76c0,.1.17.08.17.18,0,.1-.15.16-.15.26,0,.1.07.1.07.2,0,.1-.15.11-.15.21,0,.1.13.12.14.22,0,.1.31.05.31.15,0,.1-.33.14-.32.24,0,.1.1.12.11.22,0,.1-.22.09-.22.19.01.1.23.08.24.18.01.1-.01.1,0,.2.01.1-.15.12-.13.22.01.1.26.08.27.18.01.1-.19.22-.18.23l.99-.14s-.12-.11-.13-.21c-.01-.1.11-.11.1-.21-.01-.1-.15-.08-.17-.18-.01-.1.15-.11.14-.21-.01-.09-.29-.04-.3-.13,0-.1.09-.14.08-.23,0-.1.07-.09.06-.19,0-.1-.13-.1-.13-.2,0-.1.21-.11.2-.21,0-.1-.22-.08-.23-.18,0-.1.07-.1.07-.2,0-.1.09-.1.09-.2,0-.1-.26-.08-.26-.18,0-.1.2-.11.2-.21,0-.1-.1-.1-.1-.2,0-.1.17-.12.17-.2h-1c0,.08.13.07.13.17,0,.1-.08.1-.08.2Z"/>
      <path class="st1" d="M24.87,47.84c-.1,0-.07.17-.17.18-.1,0-.17-.15-.27-.15-.1,0-.1.07-.2.07-.1,0-.11-.15-.22-.14-.1,0-.12.14-.23.14-.1,0-.05.31-.15.32-.1,0-.14-.32-.25-.31-.11.01-.12.1-.23.12-.1.01-.1-.22-.2-.21-.11.02-.08.23-.18.25-.09.01-.1-.01-.19,0-.1.01-.12-.15-.21-.14-.1,0-.09.25-.19.26-.1,0-.21-.2-.22-.2l.08,1s.12-.11.22-.12c.1,0,.11.12.22.11.11,0,.09-.15.2-.16.11-.01.13.15.24.14.1-.01.02-.29.12-.31.1-.01.14.08.24.07.1-.01.09.07.19.06.1,0,.1-.13.2-.14.1,0,.12.21.21.2.1,0,.08-.22.18-.23.1,0,.1.07.2.06.1,0,.1.09.21.09.1,0,.08-.26.18-.26.1,0,.12.2.22.2.1,0,.1-.1.2-.11.1,0,.14.16.22.16l-.07-1c-.07,0-.05.14-.15.14-.1,0-.1-.07-.2-.07Z"/>
      <path class="st1" d="M25.54,44.75c0,.09.17.07.17.16,0,.09-.15.15-.15.24,0,.09.07.09.07.19,0,.09-.15.09-.15.19,0,.09.13.12.14.21,0,.09.31.07.31.17,0,.09-.34.1-.34.19,0,.1.09.12.09.22,0,.1-.23.06-.23.16,0,.1.22.1.22.19,0,.1-.03.1-.03.19,0,.09-.16.1-.16.2,0,.09.24.1.24.2,0,.09-.21.18-.21.18h1s-.1-.12-.1-.22c0-.1.12-.1.12-.19,0-.1-.14-.09-.14-.19,0-.09.16-.09.16-.19,0-.09-.29-.06-.29-.16,0-.09.1-.12.1-.21,0-.09.08-.08.08-.17,0-.09-.11-.1-.12-.2,0-.1.21-.09.21-.19,0-.1-.22-.1-.22-.2,0-.1.07-.09.07-.19,0-.1.09-.1.09-.19,0-.1-.26-.09-.26-.18,0-.1.2-.11.2-.21,0-.1-.1-.09-.1-.19,0-.1.17-.13.16-.2l-1,.04c0,.07.13.05.14.15,0,.09-.07.09-.07.19Z"/>
      <g>
        <path class="st1" d="M30.95,43.78v-.03s0-.03,0-.03v-.06s0-.06,0-.06v-.03s-.01-.03-.01-.03h0s0-.02,0-.02l-.02-.02-.03-.02-.03-.02-.05-.03-.02-.02h0s0-.02,0-.02h0s0-.02,0-.03v-.03s0-.07,0-.07v-.04s0-.03,0-.03v-.03s-.01-.01-.01-.01h0s-.02-.03-.02-.03l-.02-.02-.04-.03-.04-.03-.04-.03s0,0-.01,0h-.01s-.03-.02-.03-.02h-.04s-.04,0-.04,0h-.07s-.03-.01-.03-.01h-.01s-.01-.01-.01-.01h-.01s-.01-.02-.01-.02l-.02-.02-.03-.05-.02-.03-.02-.03-.02-.02h-.01s-.01-.01-.01-.01l-.06-.02-.07-.02s-.09-.02-.13-.03h-.01s-.01,0-.01,0h-.02s-.02.01-.02.01h-.02s-.04.03-.04.03h-.02s-.01,0-.01,0h-.01s-.01,0-.01,0c0,0,0,0-.01,0l-.03-.02-.06-.05-.03-.02-.03-.02h-.02s-.02-.01-.02-.01h-.02s-.02,0-.02,0l.04.5.02.25.02.25h.02s.02-.01.02-.01h.02s0,0,0,0h0s0,0,0,0h0s.02-.01.02-.01l.04-.03h.02s.01-.02.01-.02h.01s0,0,.01,0h.02s.02,0,.02,0h.02s.07.02.12.04c.02,0,.05.01.07.02,0,0,.01,0,.01,0h0s0,0,0,0h0s0,0,0,0h0s-.01,0-.01,0h0s0,0,0,0h0s.02.01.02.01h.02s.01.03.01.03h.01s0,.03,0,.03v.03s.02.03.02.03v.05s0,.02,0,.02h0s0,.02,0,.02h0s0,.02,0,.02h0s0,.02,0,.02v.02s-.02.02-.02.02l-.02.04v.02s0,0,0,0h0s0,.03,0,.03v.03s0,.04,0,.06h.25s.25-.03.25-.03l.5-.03v-.02s-.01-.03-.01-.03l-.02-.06-.03-.06v-.03s-.02-.03-.02-.03Z"/>
        <path class="st0" d="M29.55,44.1l-.15-2,2-.15.07,1,.05,1.02-1,.05-.5.03h-.25s-.12.02-.12.02h-.06s-.03,0-.03,0h-.02s0,0,0,0h0s0,0,0,0h0s0,0,0,0c.01.01.01.01.02.02Z"/>
      </g>
      <g>
        <path class="st1" d="M31.35,48.32h-.03s-.03,0-.03,0h-.06s-.06,0-.06,0h-.03s-.03-.01-.03-.01h-.01s-.01-.01-.01-.01l-.02-.02-.02-.02-.02-.03-.03-.05-.02-.02h-.01s-.01-.02-.01-.02h-.01s0,0-.01-.01h-.03s-.07,0-.07,0h-.03s-.03,0-.03,0h-.03s-.01-.01-.01-.01h-.01s-.02-.03-.02-.03l-.02-.02-.03-.04-.03-.04-.03-.04s0,0,0-.01h0s-.01-.04-.01-.04v-.07s-.02-.07-.02-.07v-.03s-.01-.01-.01-.01c0,0,0-.01,0-.01h0s-.01-.02-.01-.02l-.02-.02-.06-.03h-.03s-.03-.03-.03-.03l-.02-.02h0s0-.02,0-.02l-.03-.06-.02-.06s-.03-.09-.04-.12h0s0-.03,0-.03v-.02s0-.02,0-.02v-.02s.03-.04.03-.04v-.02s0-.01,0-.01h0s0-.03,0-.03c0,0,0,0,0-.01l-.02-.03-.05-.05-.03-.03-.02-.03h0s0-.03,0-.03v-.02s0-.02,0-.02h.5s.25,0,.25,0h.25s0,.03,0,.03v.02s0,.02,0,.02h0s0,.02,0,.02h0s0,.02,0,.02v.02s-.03.04-.03.04v.02s-.01.01-.01.01h0s0,.02,0,.03v.02s0,.02,0,.02v.02s.03.07.05.11c0,.02.02.04.02.06,0,0,0,.01,0,.01h0s0,0,0,0h0s0,0,0,0h.01s0,0,0,0h0s.01.02.01.02h.01s.01.03.01.03h.01s.01.02.01.02h.03s.03.02.03.02h.05s.02,0,.02,0h0s0,0,0,0h0s0,0,0,0h0s0,0,0,0h.02s.02-.02.02-.02l.04-.02h.02s0,0,0,0h0s.02,0,.02,0h.03s.04,0,.06,0v.25s-.02.25-.02.25l-.02.5h-.02s-.03-.01-.03-.01l-.05-.02-.06-.02h-.03s-.03-.02-.03-.02Z"/>
        <path class="st0" d="M31.62,46.9s-.02-.01-.02-.02h0s0,0,0,0h0s0,0,0,0h-.02s-.03,0-.03,0h-.06s-.12,0-.12,0h-.25s-.5,0-.5,0h-1s0,.97,0,.97l-.02.99,1.99.06.06-2Z"/>
      </g>
      <g>
        <path class="st1" d="M35.94,48.66v-.03s0-.03,0-.03v-.06s0-.06,0-.06v-.03s-.01-.02-.01-.02h0s0-.02,0-.02l-.02-.02h-.03s-.03-.03-.03-.03l-.06-.03-.02-.02h0s0-.02,0-.02h0s0-.02,0-.02v-.03s0-.06,0-.06v-.03s0-.03,0-.03h0s0-.03,0-.03h0s0-.02,0-.02l-.02-.02h-.02s-.04-.04-.04-.04l-.04-.02-.05-.03h-.01s-.01-.01-.01-.01h-.03s-.03-.02-.03-.02h-.03s-.06-.02-.06-.02h-.03s-.01-.02-.01-.02h-.01s0-.02,0-.02h0s-.01-.04-.01-.04l-.02-.06-.02-.06-.02-.02h0s-.01-.02-.01-.02l-.05-.03-.06-.03s-.08-.03-.11-.04h-.01s-.01,0-.01,0h-.01s-.01,0-.01,0h-.02s-.02.01-.02.01l-.04.02h-.02s-.01,0-.01,0h-.01s-.01,0-.01,0h-.01s-.02-.03-.02-.03l-.05-.05-.02-.03-.02-.02h-.01s-.01-.02-.01-.02h-.01s-.01,0-.01,0l-.02.5v.25s-.02.25-.02.25h.02s.02,0,.02,0c0,0,.01,0,.01,0h0s0,0,0,0h0s0,0,0,0h.02s.04-.03.04-.03h.02s.01-.01.01-.01h.01s.01,0,.01,0h.01s0,0,.01,0h.02s.06.03.1.05l.05.03h.01s0,.01,0,.01h0s0,0,0,0h0s0,0,0,0c-.02,0-.01,0-.02,0h0s0,0,0,0h0s.02.01.02.01h.02s.01.02.01.02c0,0,.01.01.01.01h0s.01.03.01.03v.02s0,.04,0,.04v.02s0,0,0,0h0s0,.01,0,.01h0s0,.02,0,.02h0s0,.02,0,.02v.02s-.04.03-.04.03v.02s0,0,0,0h0s0,.02,0,.03v.02s0,.03,0,.05l.25-.02.25-.02.5-.04v-.02s-.01-.02-.01-.02l-.02-.05-.03-.05v-.02s-.02-.02-.02-.02Z"/>
        <path class="st0" d="M34.56,49l.07-2.01,1.74.05.09.86.06.9-1,.08-.5.04-.25.02h-.12s-.06.01-.06.01h-.03s-.02,0-.02,0h0s0,0,0,0h0s0,0,0,0h0s.02.02.04.04Z"/>
      </g>
      <g>
        <path class="st1" d="M34.97,53.32h.02s.02,0,.02,0h.05s.05,0,.05,0h.02s.02-.01.02-.01h.01s0-.02,0-.02l.02-.02.02-.05.02-.06v-.02s.02-.01.02-.01h0s.01-.02.01-.02h.01s.03-.01.03-.01h.06s.03,0,.03,0h.03s.01,0,.01,0h.01s.01-.01.01-.01h0s.02-.03.02-.03v-.02s.03-.04.03-.04l.02-.04.02-.05v-.03s.02-.02.02-.02v-.03s.01-.03.01-.03v-.06s.02-.03.02-.03h0s0-.02,0-.02h0s.01-.02.01-.02h.03s.06-.03.06-.03l.06-.02h.02s0-.02,0-.02h0s.03-.05.03-.05l.03-.05s.03-.07.04-.1h0s0-.02,0-.02h0s0-.02,0-.02v-.02s-.01-.02-.01-.02l-.02-.04v-.02s0-.01,0-.01h0s0-.02,0-.02h0s.02-.03.02-.03l.05-.04.03-.02.02-.02h0s0-.02,0-.02h0s0-.03,0-.03l-.5-.02h-.25s-.25-.02-.25-.02v.02s0,.02,0,.02h0s0,.02,0,.02h0s0,.01,0,.01h0s0,.02,0,.02l.02.03v.02s.01.01.01.01h0s0,.02,0,.02h0s0,.02,0,.03h0s-.03.07-.04.1l-.03.05h0s0,.02,0,.02h0s0,0,0,0h0s0,0,0,0c.02-.01.02-.01.02-.02h0s0,0,0,0h0s0,.02,0,.02v.02s-.02.01-.02.01c0,0,0,.01,0,.01h-.01s-.02.02-.02.02h-.02s-.04.01-.04.01h-.02s0,0,0,0h0s0,0,0,0h0s0,0,0,0h0s-.02,0-.02,0h-.02s-.03-.03-.03-.03h-.02s0,0,0,0h0s0,0-.02,0h-.02s-.04,0-.04,0l.03.25.03.25.06.5h.02s.02-.01.02-.01l.04-.03.04-.03h.02s.02-.02.02-.02Z"/>
        <path class="st0" d="M34.61,51.93s-.02.02-.04.03h0s0,0,0,0h0s0,0,0,0h0s.02,0,.02,0h.03s.06,0,.06,0h.12s.25.02.25.02l.5.02,1,.05-.03.84-.06.81-.8.11-.82.09-.12-.99-.06-.5-.03-.25v-.12s-.02-.06-.02-.06v-.03s0-.02,0-.02h0s0-.01,0-.01h0s0,0,0,0h0s-.01.01-.02.02Z"/>
      </g>
      <g>
        <path class="st1" d="M30.95,54.09v-.03s0-.03,0-.03v-.07s-.02-.07-.02-.07v-.03s0-.03,0-.03h0s0-.03,0-.03l.02-.03.02-.02.02-.02.05-.05.02-.03h0s0-.03,0-.03v-.02s0-.02,0-.02v-.03s-.01-.07-.01-.07v-.04s0-.04,0-.04v-.03s0-.02,0-.02h0s.02-.04.02-.04l.02-.02.04-.04.04-.04.02-.02.02-.02h0s.01-.02.01-.02h.03s.08-.03.08-.03h.08s.03-.03.03-.03h.02s.01-.02.01-.02h.01s.01-.02.01-.02l.02-.03.03-.06v-.03s.03-.03.03-.03l.02-.02h.01s.01-.02.01-.02l.06-.03.07-.03s.09-.04.13-.05c0,0,.01,0,.01,0h.01s.03,0,.03,0h.03s.02.01.02.01l.05.02h.03s.03,0,.03,0h.02s.01-.01.01-.01l.03-.02.06-.06.03-.03.03-.03h.02s.02-.02.02-.02h.02s.02,0,.02,0l.03.5.02.25.02.25h-.03s-.02,0-.02,0h-.02s0,0,0,0h-.01s-.01,0-.01,0h-.01s-.02,0-.02,0l-.05-.02h-.03s-.03-.01-.03-.01h-.02s-.02,0-.02,0h-.02s-.02.01-.02.01c-.03.01-.07.03-.12.05-.02.01-.05.02-.07.03h-.01s0,.01,0,.01l-.04.03-.02.02v.02s-.02.02-.02.02v.02s-.01.02-.01.02v.03s0,.03,0,.03v.06s0,.02,0,.02v.02s0,.01,0,.01h0s0,.02,0,.02h0s.01.03.01.03v.02s.04.04.04.04v.02s.01.01.01.01h0s0,.03,0,.03v.03s.01.04.01.06l-.25.02-.25.02-.5.05v-.03s0-.03,0-.03l.02-.06.02-.06v-.03s.01-.03.01-.03Z"/>
        <path class="st0" d="M32.44,54.14s.02-.02.03-.03h0s0,0,0,0h0s0,0,0,0h0s0-.02,0-.02v-.03s0-.06,0-.06v-.12s-.02-.25-.02-.25l-.03-.5-.07-1-1.07.07-1.1.05.15,1.09.09,1.05,1-.09.5-.05.25-.02h.12s.06-.02.06-.02h.03s.02,0,.02,0h0s0,0,0,0h0s0,0,0,0h0s.03-.03.04-.05Z"/>
      </g>
      <g>
        <path class="st1" d="M30.76,58.95h.03s.03,0,.03,0h.06s.06,0,.06,0h.03s.03,0,.03,0h.01s.01-.01.01-.01l.02-.02.02-.02.02-.03.03-.05.02-.02h.01s.01-.02.01-.02h.01s.01,0,.01,0h.03s.06,0,.06,0h.03s.03,0,.03,0h.03s.01-.01.01-.01h.01s.02-.02.02-.02l.02-.02.03-.04.03-.04.03-.04h0s0-.02,0-.02v-.03s.02-.03.02-.03v-.03s.02-.07.02-.07v-.03s.02-.01.02-.01h0s0-.02,0-.02h.01s.03-.02.03-.02l.06-.02h.03s.03-.02.03-.02l.02-.02h0s0-.02,0-.02l.03-.05.02-.06s.03-.08.04-.12h0s0-.03,0-.03v-.02s0-.02,0-.02v-.02s-.03-.04-.03-.04v-.02s0-.01,0-.01h0s0-.03,0-.03c0,0,0,0,0-.01l.02-.03.05-.05.03-.03.02-.03h0s0-.03,0-.03v-.02s0-.02,0-.02h-.5s-.25-.02-.25-.02h-.25s0,.02,0,.02v.02s0,.02,0,.02h0s0,.02,0,.02h0s0,.02,0,.02v.02s.03.04.03.04v.02s.01.01.01.01h0s0,.03,0,.03c0,0,0,0,0,.01v.02s-.01.02-.01.02c0,.02-.02.06-.04.1l-.03.06h0s0,.02,0,.02h0s0,0,0,0h0s0,0,0,0c.02,0,.02,0,.03,0h0s0,0,0,0h0s-.01.02-.01.02h-.01s-.01.03-.01.03h-.01s-.01.02-.01.02h-.03s-.03.01-.03.01h-.05s-.02,0-.02,0h0s0,0,0,0h0s0,0,0,0h0s0,0,0,0h-.02s-.02-.02-.02-.02l-.04-.03h-.02s0,0,0,0h0s-.02,0-.02,0h-.03s-.04,0-.05,0v.25s0,.25,0,.25v.5s.02,0,.02,0h.02s.05-.03.05-.03l.06-.02h.03s.03-.02.03-.02Z"/>
        <path class="st0" d="M30.56,57.51s-.03.02-.05.03h0s0,0,0,0h0s0,0,0,0h0s.02,0,.02,0h.03s.06,0,.06,0h.12s.25.01.25.01h.5s1,.04,1,.04v.98s-.08.94-.08.94h-1.89s.01-2.01.01-2.01Z"/>
      </g>
      <g>
        <path class="st1" d="M25.98,57.87v.03s0,.03,0,.03v.05s0,.05,0,.05v.03s.01.02.01.02h0s0,.02,0,.02l.02.02h.03s.03.03.03.03l.06.02h.02s.01.02.01.02h0s0,.02,0,.02h0s0,.04,0,.04v.06s0,.03,0,.03v.03s0,.01,0,.01h0s0,.02,0,.02h0s.02.03.02.03h.02s.04.03.04.03l.04.02.05.02.05.02h.03s.03.01.03.01h.06s.03.02.03.02h.01s.01.01.01.01h0s0,.02,0,.02v.03s.04.06.04.06l.02.05.02.02h0s.01.02.01.02l.05.03.05.02s.07.03.11.04h.01s.01,0,.01,0h.01s.01,0,.01,0h.02s.02-.02.02-.02l.04-.02h.02s.01,0,.01,0h.01s.01,0,.01,0h.01s.02.03.02.03l.05.05.02.03.02.02h.01s.01.02.01.02h.01s.01,0,.01,0v-.5s0-.25,0-.25v-.25s-.02,0-.02,0h-.02s-.01,0-.01,0h0s0,0,0,0h0s0,0,0,0h-.02s-.03.03-.03.03h-.02s-.01.01-.01.01h-.01s-.01,0-.01,0h-.01s0,0-.01,0h-.02s-.06-.03-.1-.05l-.05-.02h-.01s0,0,0,0h0s0,0,0,0h0s0,0,0,0c.02,0,.02,0,.03,0h0s0,0,0,0h0s-.02,0-.02,0h-.02s-.01-.02-.01-.02c0,0-.01-.01-.01-.01h0s-.01-.03-.01-.03v-.02s-.01-.04-.01-.04v-.02s0,0,0,0h0s0-.01,0-.01h0s0-.02,0-.02h0s0-.02,0-.02v-.02s.03-.03.03-.03v-.02s0,0,0,0h0s0-.02,0-.02v-.02s0-.03,0-.05l-.25.03-.25.03-.5.05v.02s.01.02.01.02l.02.05.03.05v.02s.02.02.02.02Z"/>
        <path class="st0" d="M27.34,57.48s0,0-.01.01h0s0,0,0,0h0s0,0,0,0h0s0,.02,0,.02v.03s0,.06,0,.06v.12s0,.25,0,.25v.5s-.01,1-.01,1h-1.7s-.13-.85-.13-.85l-.08-.89.99-.11.5-.05.25-.03h.12s.06-.02.06-.02h.03s.02,0,.02,0h0s0,0,0,0h0s0,0,0,0h0s-.03-.03-.05-.05Z"/>
      </g>
      <g>
        <path class="st1" d="M25.45,52.96h.03s.04,0,.04,0h.07s.07,0,.07,0h.03s.03,0,.03,0h.02s.01.01.01.01l.03.02.02.02.02.03.04.05.02.02h.01s.01.02.01.02h.02s.02,0,.02,0h.04s.08,0,.08,0h.08s.04,0,.04,0h.02s.01.01.01.01l.03.02.02.02.04.04.04.04.04.04h.01s0,.02,0,.02h0s0,0,0,0v.04s.01.08.01.08v.08s.01.04.01.04v.02s.01.02.01.02h0s.01.03.01.03l.02.02.06.04.03.02.03.02.02.02h0s0,.03,0,.03l.02.07.02.07c.01.05.02.1.03.14v.02s0,.01,0,.01v.03s-.01.03-.01.03v.02s-.03.05-.03.05v.03s0,.03,0,.03v.02s0,.02,0,.02l.02.03.05.06.03.03.02.03v.02s.01.02.01.02v.02s0,.02,0,.02l-.5-.02h-.25s-.25-.02-.25-.02v-.03s0-.02,0-.02v-.02s0-.02,0-.02h0s0-.02,0-.02v-.02s.03-.05.03-.05v-.03s.02-.03.02-.03v-.02s0-.02,0-.02v-.02s0-.02,0-.02c0-.03-.02-.08-.03-.14,0-.03-.01-.05-.02-.08v-.02s0,0,0,0h0s0,0,0,0h0s-.04-.03-.04-.03h0s-.02-.02-.02-.02h-.02s-.02-.03-.02-.03h-.02s-.02-.02-.02-.02h-.03s-.03-.01-.03-.01h-.06s-.03,0-.03,0h-.02s-.01,0-.01,0h-.01s-.01,0-.01,0h-.01s-.02.01-.02.01h-.02s-.04.04-.04.04h-.02s-.01,0-.01,0h-.01s-.02,0-.02,0h-.03s-.05,0-.06,0v-.25s0-.25,0-.25v-.5s.02,0,.02,0h.03s.06.03.06.03l.07.02h.03s.03.01.03.01Z"/>
        <path class="st0" d="M25.24,54.42s.04.04.07.07h0s0,0,0,0h0s0,0,0,0h0s.02,0,.02,0h.03s.06,0,.06,0h.12s.25.02.25.02l.5.02,1,.05.05-1.09.13-1.15-1.15.04-1.14.02.02,1v.5s.01.25.01.25v.12s0,.06,0,.06v.03s0,.02,0,.02h0s0,.01,0,.01h0s0,0,0,0h0s.01.01.02.02Z"/>
      </g>
      <g>
        <path class="st1" d="M21.04,52.82v.02s0,.03,0,.03v.05s0,.05,0,.05v.02s.02.02.02.02h0s0,.02,0,.02h.02s.05.04.05.04l.06.02h.02s.01.02.01.02h0s0,.02,0,.02h0s0,.04,0,.04v.06s0,.03,0,.03v.03s0,.01,0,.01h0s0,.02,0,.02h0s.02.02.02.02h.02s.04.03.04.03l.04.02.05.02.05.02h.03s.03.01.03.01h.06s.03.02.03.02h.01s.01.01.01.01h0s0,.02,0,.02v.03s.03.06.03.06l.02.06v.02s.02,0,.02,0h0s.05.03.05.03l.05.02s.07.03.1.04h.01s.01,0,.01,0h.01s0,0,0,0h.02s.02-.02.02-.02l.04-.02h.02s.01,0,.01,0h.01s.01,0,.01,0h.01s.02.03.02.03l.04.05.02.03.02.02h.01s.01.02.01.02h.01s.01,0,.01,0v-.5s.02-.25.02-.25v-.25s-.02,0-.02,0h-.02s-.01,0-.01,0h0s0,0,0,0h0s0,0,0,0h-.02s-.03.03-.03.03h-.02s-.01.01-.01.01h-.01s-.01,0-.01,0h-.01s0,0-.01,0h-.02s-.05-.03-.09-.05l-.05-.03h-.01s0,0,0,0h0s0,0,0,0h0s0,0,0,0c.01,0,.01,0,.02.01h0s0,0,0,0h0s-.02,0-.02,0h-.02s-.01-.02-.01-.02c0,0-.01,0-.01,0h0s-.01-.03-.01-.03v-.02s-.01-.04-.01-.04v-.02s0,0,0,0h0s0-.01,0-.01h0s0-.01,0-.01h0s0-.02,0-.02v-.02s.03-.03.03-.03v-.02s0,0,0,0h0s0-.02,0-.02v-.02s0-.04,0-.04l-.25.04-.25.04-.5.07v.02s.01.02.01.02l.03.04.03.04v.02s.02.02.02.02Z"/>
        <path class="st0" d="M22.4,52.41s0,0-.01-.01h0s0,0,0,0h0s0,0,0,0h0s0,.02,0,.02v.03s0,.06,0,.06v.12s0,.25,0,.25v.5s-.03,1-.03,1l-1.64-.04-.14-.8-.12-.84.99-.14.5-.07.25-.04.12-.02h.06s.03-.01.03-.01h.02s0,0,0,0h0s0,0,0,0h0s0,0,0,0c-.02-.02-.02-.02-.03-.02Z"/>
      </g>
      <g>
        <path class="st1" d="M21.77,48.1h-.02s-.02,0-.02,0h-.05s-.05,0-.05,0h-.02s-.02.02-.02.02h-.01s0,.02,0,.02l-.02.02-.02.05-.02.06v.02s-.02.01-.02.01h0s-.01.02-.01.02h-.01s-.03.01-.03.01h-.06s-.03,0-.03,0h-.03s-.01.01-.01.01h-.01s-.01.01-.01.01h0s-.01.03-.01.03v.02s-.03.04-.03.04c0,.03-.02.06-.03.09v.03s-.02.02-.02.02v.03s-.01.03-.01.03v.06s-.02.02-.02.02h0s0,.02,0,.02h0s-.01.02-.01.02h-.02s-.06.03-.06.03l-.05.02h-.02s0,.02,0,.02h0s-.03.05-.03.05l-.02.05s-.03.07-.04.1h0s0,.02,0,.02h0s0,.02,0,.02v.02s.02.02.02.02l.02.04v.02s0,.01,0,.01h0s0,.02,0,.02h0s-.02.03-.02.03l-.05.04-.03.02-.02.02s0,.01,0,.01h0s0,.02,0,.02h0s.5.01.5.01h.25s.25,0,.25,0v-.02s0-.01,0-.01h0s0-.02,0-.02h0s0-.01,0-.01h0s0-.02,0-.02l-.02-.03v-.02s-.01,0-.01,0h0s0-.02,0-.02h0s0-.03,0-.03h0s.02-.07.04-.1l.02-.05h0s0-.02,0-.02h0s0,0,0,0h0s0,0,0,0c-.04.03-.04.03-.06.05h0s0,0,0,0h0s0-.02,0-.02l.02-.03h0s0-.02,0-.02h0s0-.01,0-.01h.02s.04-.01.04-.01h.02s0,0,0,0h0s0,0,0,0h0s0,0,0,0h0s.01.01.01.01h.02s.03.03.03.03h.01s0,0,0,0h0s0,0,.02,0h.02s.04,0,.04,0l-.02-.25-.02-.25-.04-.5h-.02s-.02.01-.02.01l-.04.02-.04.03h-.02s-.02.02-.02.02Z"/>
        <path class="st0" d="M22.19,49.36s.02.02.03.02h0s0,0,0,0h0s0,0,0,0h-.02s-.03,0-.03,0h-.06s-.12,0-.12,0h-.25s-.5,0-.5,0h-1s0-1.54,0-1.54l.75-.2.14-.03.13-.03.24-.04.43-.04.08,1,.04.5.02.25v.12s.01.06.01.06v.03s0,.02,0,.02h0s0,.01,0,.01h0s0,0,0,0h0c.09-.09.08-.09.13-.14Z"/>
      </g>
      <g>
        <path class="st1" d="M26.45,47.61v.02s0,.02,0,.02v.05s0,.05,0,.05v.02s-.01.02-.01.02h0s0,.02,0,.02l-.02.02-.05.03-.05.03h-.02s0,.02,0,.02h0s0,.02,0,.02h0s0,.03,0,.03v.05s0,.03,0,.03v.03s0,.01,0,.01h0s0,.02,0,.02h0s-.02.02-.02.02h-.02s-.04.03-.04.03l-.04.02-.04.02h-.03s-.02.03-.02.03h-.02s-.03.02-.03.02l-.05.02h-.02s0,.02,0,.02h0s-.01.03-.01.03v.03s-.02.06-.02.06v.06s-.02.02-.02.02h0s0,.02,0,.02l-.04.03-.05.03s-.06.04-.09.05h-.01s0,0,0,0h0s0,0,0,0h-.02s-.02-.01-.02-.01h-.04s-.02-.02-.02-.02h-.01s-.01,0-.01,0h-.01s-.01.01-.01.01l-.02.02-.04.06-.02.03-.02.02s-.01.01-.01.01h-.01s-.01.01-.01.01h-.01s-.04-.5-.04-.5l-.02-.25-.02-.25h.02s.01,0,.01,0h.01s0,0,0,0h0s0,0,0,0h0s0,0,.01,0l.03.02h.02s0,.01,0,.01h0s.01,0,.01,0h.01s.01,0,.01,0c0,0,0,0,.01,0,.02-.01.04-.03.07-.05l.04-.03h0s0-.01,0-.01h0s0,0,0,0h0s0,0,0,0c-.04.04-.04.04-.06.06h0s0,0,0,0h0s.02,0,.02,0h.01s.01-.02.01-.02h0s0-.02,0-.02v-.02s.01-.02.01-.02v-.04s0-.02,0-.02h0s0-.01,0-.01h0s0-.01,0-.01h0s0-.01,0-.01h0s-.01-.03-.01-.03l-.03-.03s0-.01,0-.01h0s0-.01,0-.01c0,0,0,0,0-.01v-.02s0-.04,0-.04h.25s.25,0,.25,0h.5s0,.02,0,.02v.02s-.03.04-.03.04l-.02.04v.02s-.02.02-.02.02Z"/>
        <path class="st0" d="M25.08,47.35c.07-.06.07-.06.1-.09h0s0,0,0,0h0s0,0,0,0h0s0,.02,0,.02v.03s0,.06,0,.06v.12s.03.25.03.25l.04.5.07,1,.42-.04.22-.03.22-.04.71-.15.08-.73.03-.42v-.4s-.99,0-.99,0h-.5s-.25,0-.25,0h-.12s-.06,0-.06,0h-.03s-.02,0-.02,0h0s0,0,0,0h0s0,0,0,0h0c.04-.05.04-.05.06-.08Z"/>
      </g>
      <g>
        <path class="st1" d="M26.71,42.88h-.03s-.03,0-.03,0h-.06s-.06,0-.06,0h-.03s-.03.01-.03.01h-.01s-.01.01-.01.01l-.02.02-.02.03-.02.03-.03.06-.02.02h-.01s-.01.02-.01.02c0,0,0,0-.01,0h-.01s-.03.01-.03.01h-.07s-.04,0-.04,0h-.03s-.03.01-.03.01h-.01s-.01.02-.01.02l-.02.02-.02.02-.03.04-.03.04-.03.05h0s0,.03,0,.03v.03s-.02.07-.02.07v.08s-.02.03-.02.03h0s0,.03,0,.03h0s-.01.02-.01.02l-.02.02-.06.03-.03.02-.03.02-.02.02h0s0,.02,0,.02l-.02.06-.02.07s-.03.09-.04.13h0s0,.03,0,.03v.02s0,.02,0,.02v.02s.03.04.03.04v.02s0,.01,0,.01h0s0,.02,0,.03h0s-.02.04-.02.04l-.05.06-.03.03-.02.03v.02s-.02.02-.02.02v.02s0,.02,0,.02l.5-.02h.25s.25-.02.25-.02v-.03s0-.02,0-.02v-.02s0,0,0,0h0s0-.02,0-.02h0s0-.03,0-.03l-.02-.04v-.02s-.02-.03-.02-.03c0,0,0-.01,0-.02v-.02s0-.02,0-.02v-.02s.03-.07.04-.12c0-.02.02-.05.02-.07h0s0-.02,0-.02h0s0,0,0,0h0s.04-.02.04-.02h0s0,0,0,0v-.02s.02-.02.02-.02h.01s.01-.02.01-.02h.01s.03-.02.03-.02h.03s.05-.01.05-.01h.02s0,0,0,0h0s0,0,0,0h0s0,0,0,0h0s.02.01.02.01h.02s.04.03.04.03h.02s0,0,0,0h0s.02,0,.02,0h.03s.04,0,.06,0l-.02-.25-.02-.25-.04-.5h-.02s-.03.01-.03.01l-.06.02-.06.03h-.03s-.03.02-.03.02Z"/>
        <path class="st0" d="M27.04,44.29s-.04.04-.07.06h0s0,0,0,0h0s0,0,0,0h0s-.02,0-.02,0h-.03s-.06,0-.06,0h-.12s-.25.02-.25.02l-.5.02-1,.04-.03-.97-.1-1.02,2.04-.15.15,1.99Z"/>
      </g>
    </g>
  </g>
  <g>
    <path d="M29.23,32.93c.35-.02.26-.35.62-.37.36,0,.57.3.93.3.36.01.36-.13.72-.11.36.03.35.33.7.36.35.04.46-.22.82-.17.36.05.33-.58.69-.52.37.06.31.72.66.78.35.06.48-.1.83-.03.36.07.13.5.48.58.35.08.46-.35.81-.26.36.09.34.14.7.23.35.09.29.41.64.51.35.09.53-.36.89-.26.36.1.57.6.6.61l.54-1.93s-.52.07-.88-.03c-.36-.1-.29-.34-.65-.44-.36-.1-.43.17-.8.08-.36-.09-.28-.41-.64-.5-.37-.09-.39.5-.75.41-.36-.08-.44-.3-.81-.38-.37-.08-.3-.21-.67-.28-.38-.07-.46.17-.83.11-.37-.06-.33-.47-.71-.52-.38-.04-.42.4-.8.36-.38-.03-.37-.17-.75-.2-.38-.02-.38-.2-.76-.22-.39,0-.35.51-.73.51-.38,0-.43-.39-.82-.38-.39.02-.37.22-.75.25-.38.03-.5-.29-.79-.25l.24,1.99c.26-.03.2-.29.56-.33.36-.03.37.12.72.09Z"/>
    <path d="M18.77,36.84c.27-.22-.02-.45.27-.66.29-.21.63-.1.92-.29.29-.19.22-.3.52-.5.3-.19.47.08.77-.09.3-.17.26-.44.58-.59.32-.15-.04-.67.29-.82.34-.14.65.45.97.32.33-.12.35-.33.69-.45.34-.11.36.37.7.26.33-.11.22-.52.57-.62.35-.1.36-.04.71-.12.35-.08.44.24.78.17.34-.07.31-.55.67-.61.36-.05.75.33.77.33l-.24-1.99s-.47.27-.84.33c-.38.07-.42-.19-.8-.11-.38.08-.33.34-.7.43-.37.09-.45-.24-.82-.14-.38.11-.11.62-.47.73-.36.12-.54-.05-.9.08-.36.13-.37-.03-.73.11-.36.15-.31.39-.66.54-.35.15-.54-.22-.89-.05-.36.17-.14.56-.48.75-.33.19-.41.05-.74.26-.33.21-.43.05-.76.27-.33.22,0,.62-.3.85-.3.23-.59-.07-.89.19-.3.26-.17.4-.46.66-.27.27-.58.11-.79.32l1.45,1.38c.18-.18-.03-.34.21-.6.25-.25.36-.12.62-.35Z"/>
    <path d="M13.78,46.86c.09-.36-.26-.37-.16-.72.09-.36.45-.49.54-.84.1-.36-.03-.39.07-.75.1-.35.4-.28.5-.63.1-.35-.12-.5-.01-.85.11-.34-.51-.43-.39-.78.12-.35.77-.17.89-.5.13-.33-.01-.48.14-.8.15-.32.51-.01.66-.32.15-.3-.22-.51-.05-.82.18-.3.22-.28.41-.57.19-.29.48-.12.67-.39.21-.26-.15-.61.09-.88.23-.28.78-.21.79-.23l-1.45-1.38s-.21.51-.45.81c-.25.3-.44.15-.69.47-.23.33-.01.48-.23.81-.22.33-.49.15-.7.5-.19.35.37.52.19.86-.17.34-.4.37-.56.72-.15.35-.28.25-.42.61-.14.36.07.49-.05.85-.12.36-.53.23-.65.6-.11.37.31.48.2.84-.11.36-.24.32-.35.68-.1.36-.28.31-.38.67-.09.36.41.46.31.82-.09.36-.5.29-.59.65-.09.36.09.41,0,.77-.09.36-.44.36-.52.64l1.94.49c.07-.27-.19-.3-.1-.66.09-.36.24-.32.34-.67Z"/>
    <path d="M11.38,58.45c.05-.36-.3-.33-.25-.7.05-.37.4-.53.45-.89.06-.36-.07-.38-.01-.75.06-.36.36-.32.43-.68.07-.36-.17-.49-.1-.85.07-.36-.55-.36-.48-.73.07-.36.73-.29.81-.64.08-.36-.08-.48,0-.84.08-.36.5-.13.58-.49.08-.36-.35-.46-.27-.82.08-.36.14-.35.22-.71.09-.36.41-.3.49-.66.09-.36-.37-.52-.28-.88.09-.36.58-.59.59-.61l-1.94-.49s.09.52,0,.88c-.09.36-.33.3-.42.66-.09.36.18.43.09.79-.09.36-.41.28-.49.65-.08.37.51.38.43.74-.08.36-.3.44-.38.8-.08.36-.22.29-.3.65-.08.37.16.46.09.82-.07.37-.49.29-.56.66-.07.37.36.44.29.8-.07.37-.2.34-.27.71-.06.37-.25.34-.31.71-.06.37.45.41.39.78-.05.37-.46.35-.51.72-.05.37.14.4.09.77-.05.37-.39.42-.43.7l1.99.24c.03-.27-.24-.27-.19-.64.05-.37.2-.34.25-.71Z"/>
    <path d="M10.17,70.32c.05-.37-.3-.33-.25-.7.04-.37.37-.55.41-.93.04-.37-.09-.39-.06-.76.04-.37.34-.35.38-.72.03-.37-.22-.48-.18-.86.03-.37-.59-.31-.55-.68.03-.37.7-.37.73-.73.03-.37-.15-.48-.11-.84.03-.37.48-.2.51-.56.03-.37-.4-.41-.37-.78.04-.37.09-.36.13-.73.04-.37.36-.35.4-.72.04-.37-.43-.47-.39-.83.04-.37.51-.66.51-.68l-1.99-.24s.15.51.11.88c-.04.37-.29.34-.33.71-.04.37.24.4.2.77-.04.37-.37.33-.4.7-.03.37.55.31.52.68-.03.37-.24.47-.27.84-.03.37-.18.31-.21.68-.03.37.21.43.17.8-.03.37-.46.34-.49.71-.03.37.4.4.37.76-.03.37-.17.35-.21.72-.04.37-.23.35-.27.71-.04.36.47.38.43.75-.04.37-.45.35-.5.72-.05.36.15.39.1.75-.05.36-.39.41-.43.68l1.98.27c.04-.28-.23-.28-.18-.65.05-.37.2-.35.25-.72Z"/>
    <path d="M8.27,82.04c.02-.34-.33-.29-.29-.65.04-.36.37-.52.42-.87.05-.35-.07-.38-.01-.73.07-.36.37-.31.44-.67.07-.36-.16-.5-.09-.87.07-.37-.55-.37-.48-.74.07-.36.74-.29.81-.66.07-.37-.09-.49-.02-.85.07-.37.5-.15.56-.52.06-.37-.37-.45-.3-.82.06-.37.12-.36.18-.73.06-.37.39-.34.44-.71.05-.37-.41-.49-.36-.86.05-.37.53-.65.53-.68l-1.98-.27s.14.5.08.86c-.05.36-.3.32-.35.69-.05.36.22.41.16.77-.06.36-.39.3-.45.66-.06.36.52.35.46.71-.06.36-.27.44-.35.8-.07.36-.21.29-.28.65-.07.36.16.45.09.81-.07.36-.49.29-.56.65-.07.36.36.44.28.81-.07.37-.22.34-.29.71-.07.38-.26.34-.32.72-.06.38.45.42.4.79-.04.38-.45.38-.47.78-.02.4.18.4.17.79.01.39-.33.51-.3.82l1.99-.18c-.03-.24-.28-.2-.29-.54,0-.35.15-.34.16-.68Z"/>
    <path d="M14.27,90c-.32-.11-.37.25-.7.11-.33-.13-.39-.5-.7-.65-.31-.14-.37-.04-.67-.21-.31-.17-.14-.45-.42-.63-.28-.18-.49-.04-.77-.24-.26-.22-.57.31-.85.07-.27-.25.17-.77-.06-1-.22-.25-.42-.2-.63-.46-.2-.28.25-.45.06-.71-.16-.27-.54-.06-.71-.35-.14-.31-.11-.32-.23-.64-.13-.31.18-.44.09-.74-.08-.3-.56-.24-.63-.58-.02-.17.05-.35.15-.48.09-.14.19-.23.19-.24l-1.99.18s.26.51.33.9c.09.4-.17.46-.04.86.12.41.39.32.53.7.15.38-.14.5.04.89.21.37.65-.03.85.31.22.32.13.54.37.87.26.3.11.37.38.68.29.29.48.16.77.42.3.25.02.6.35.85.33.24.57-.1.9.11.33.21.24.35.59.54.35.19.25.37.61.54.37.17.53-.29.89-.15.36.14.24.55.63.67.38.12.43-.05.81.04.38.1.4.45.7.51l.39-1.96c-.25-.05-.27.22-.61.13-.34-.09-.29-.23-.62-.34Z"/>
    <path d="M24.23,87.15c-.26.24.02.44-.24.69-.27.24-.64.14-.9.37-.28.22-.19.32-.47.55-.29.2-.47-.04-.75.16-.29.18-.21.45-.51.62-.3.16.08.65-.24.82-.34.15-.65-.43-.95-.31-.31.11-.33.33-.66.41-.33.08-.32-.38-.64-.32-.32.05-.25.5-.6.53-.34.03-.34,0-.69,0-.34,0-.36-.31-.69-.33-.33-.01-.42.46-.77.42-.36-.03-.59-.53-.61-.53l-.39,1.96s.55-.1.94-.06c.39.05.37.29.78.31.41.03.41-.27.81-.27.4,0,.41.31.83.27.41-.04.21-.61.59-.67.39-.06.55.08.94-.02.38-.11.38.03.77-.1.38-.15.32-.4.68-.56.35-.18.56.19.92,0,.34-.22.1-.58.43-.79.31-.22.4-.11.72-.33.3-.24.42-.09.73-.33.3-.25-.06-.62.22-.86.28-.25.58.02.86-.24.28-.26.14-.4.41-.66.27-.26.57-.09.77-.29l-1.42-1.41c-.19.19.02.36-.24.61-.26.25-.37.14-.63.39Z"/>
    <path d="M31.9,78.26c-.21.3.12.43-.09.73-.21.3-.59.3-.8.59-.22.29-.11.38-.33.67-.22.29-.47.11-.69.4-.23.28-.07.52-.31.8-.23.28.31.58.08.87-.24.28-.78-.11-1.02.17-.24.27-.16.46-.4.74-.24.27-.5-.13-.74.13-.24.27.07.57-.18.84-.25.27-.29.23-.54.5-.25.27-.5.06-.76.33-.25.27.06.63-.19.9-.25.27-.8.2-.82.22l1.42,1.41s.2-.49.45-.76c.26-.27.44-.1.7-.37.26-.27.06-.46.31-.73.25-.27.49-.04.74-.31.25-.27-.24-.58,0-.85.25-.27.48-.23.73-.51.25-.28.33-.15.58-.43.25-.29.09-.48.33-.76.24-.29.57-.03.81-.32.24-.3-.11-.56.12-.86.23-.3.34-.21.57-.51.23-.3.38-.19.6-.49.23-.3-.21-.57,0-.88.22-.3.57-.1.79-.41.21-.31.06-.42.26-.73.21-.31.54-.2.7-.44l-1.68-1.09c-.15.23.09.34-.11.65-.2.31-.33.22-.54.52Z"/>
    <path d="M40.67,70.31c-.37,0-.28.34-.66.35-.39,0-.56-.31-1-.29-.45.04-.43.17-.86.27-.42.12-.54-.16-.97.03-.42.22-.38.5-.73.76-.34.29.17.65-.1.93-.25.28-.82-.06-1.07.33-.22.4-.06.51-.25.85-.17.32-.52-.01-.69.31-.18.32.2.53.02.85-.18.32-.23.29-.41.61-.18.32-.47.17-.66.48-.19.31.2.61,0,.92-.2.31-.74.37-.75.38l1.68,1.09s.09-.52.29-.84c.2-.32.41-.19.6-.51.2-.32-.04-.47.15-.79.19-.32.48-.15.66-.48.18-.33-.37-.51-.19-.84.18-.32.41-.34.59-.67.17-.31.31-.27.44-.5.15-.24-.03-.41.18-.65.22-.22.51.09.72-.07.22-.15-.02-.52.27-.67.29-.13.34,0,.62-.07.29-.07.32.12.6.1.29-.01.3-.52.66-.52.37,0,.41.4.78.39.37,0,.37-.2.74-.21.37,0,.47.33.75.32l-.04-2c-.28,0-.24.27-.61.27-.37,0-.37-.15-.74-.14Z"/>
    <path d="M52.62,70.1c-.37,0-.28.34-.66.35-.37,0-.59-.3-.97-.29-.37,0-.37.14-.74.15-.37,0-.39-.3-.76-.29-.37,0-.46.27-.83.27-.37,0-.25.62-.62.62-.37,0-.44-.66-.81-.65-.37,0-.46.19-.83.2-.37,0-.25-.46-.62-.45-.37,0-.37.44-.74.45-.37,0-.37-.05-.74-.04-.37,0-.4-.32-.77-.31-.37,0-.41.49-.78.5-.37,0-.72-.42-.75-.42l.04,2s.48-.22.85-.22c.37,0,.37.24.74.24.37,0,.37-.28.74-.29.37,0,.37.33.74.32.37,0,.25-.58.62-.59.37,0,.49.19.86.18.37,0,.33.15.7.14.37,0,.41-.25.78-.26.37,0,.39.42.76.41.37,0,.35-.44.72-.45.37,0,.37.14.74.13.37,0,.37.18.74.18.37,0,.32-.51.7-.52.37,0,.41.4.78.39.37,0,.37-.2.74-.21.37,0,.47.33.75.32l-.04-2c-.28,0-.24.27-.61.27-.37,0-.37-.15-.74-.14Z"/>
    <path d="M64.51,72.4c-.23-.3-.44-.02-.67-.32-.22-.29-.19-.72-.54-1.01-.36-.28-.44-.17-.82-.39-.39-.2-.28-.48-.73-.64-.46-.13-.62.1-1.05.06-.45-.03-.33.6-.69.6-.37,0-.44-.66-.81-.65-.37,0-.46.19-.83.2-.37,0-.25-.46-.62-.45-.37,0-.37.44-.74.45-.37,0-.37-.05-.74-.04-.37,0-.4-.32-.77-.31-.37,0-.41.49-.78.5-.37,0-.72-.42-.75-.42l.04,2s.48-.22.85-.22c.37,0,.37.24.74.24.37,0,.37-.28.74-.29.37,0,.37.33.74.32.37,0,.25-.58.62-.59.37,0,.49.19.86.18.37,0,.33.15.7.14.37,0,.41-.25.78-.26.39,0,.34.42.61.44.26.04.35-.39.65-.31.29.1.24.24.5.37.26.15.15.31.37.48.2.18.54-.2.76.05.22.28-.07.58.15.87.22.29.37.17.6.47.22.29.01.57.18.8l1.57-1.23c-.17-.22-.35-.03-.58-.33-.23-.3-.1-.39-.33-.69Z"/>
    <path d="M71.63,82.07c-.21-.31-.44-.05-.65-.36-.21-.31-.08-.66-.29-.97-.21-.31-.32-.23-.54-.54-.21-.31.03-.49-.18-.8-.21-.31-.49-.22-.71-.52-.23-.3-.65.15-.88-.15-.22-.3.29-.73.06-1.03-.22-.3-.43-.26-.65-.56-.22-.3.23-.47,0-.76-.23-.3-.58-.04-.8-.34-.22-.3-.18-.33-.41-.63-.22-.3.02-.51-.2-.81-.23-.3-.64-.05-.86-.34-.22-.3-.1-.84-.11-.86l-1.57,1.23s.45.25.67.55c.22.29.02.44.24.74.22.29.44.13.67.42.22.29-.05.49.17.78.22.29.61-.14.84.15.22.29.13.51.35.8.22.29.07.35.29.64.22.29.44.19.67.48.22.29-.12.55.1.84.22.29.58.03.79.33.21.3.09.39.3.69.21.3.06.41.26.71.21.3.61-.01.82.29.21.3-.11.56.1.87.21.31.37.2.57.5.21.31-.03.57.13.8l1.66-1.11c-.15-.23-.35-.06-.56-.37-.21-.31-.08-.39-.29-.7Z"/>
    <path d="M79.6,89.41c-.33-.07-.33.28-.68.2-.35-.08-.45-.45-.77-.55-.32-.12-.36,0-.69-.12-.31-.14-.19-.42-.47-.57-.27-.16-.48.03-.75-.16-.27-.19-.55.35-.84.13-.27-.25.15-.76-.08-1-.23-.24-.43-.18-.65-.46-.23-.27.22-.47,0-.74-.21-.27-.56-.03-.78-.32-.21-.29-.16-.33-.37-.63-.21-.3.05-.5-.15-.81-.21-.3-.63-.08-.84-.39-.21-.31-.04-.83-.05-.85l-1.66,1.11s.44.28.64.59c.21.31,0,.45.21.76.21.31.44.16.65.47.22.31-.07.49.16.81.23.31.62-.12.85.18.23.3.14.52.4.82.25.3.11.36.39.66.28.29.49.15.79.41.31.25.05.61.41.85.36.25.58-.15.93.05.35.18.29.31.66.47.37.14.3.33.68.47.39.12.5-.38.87-.27.37.09.32.49.71.58.39.07.42-.13.81-.07.38.05.45.38.75.41l.13-2c-.25-.02-.24.24-.59.21-.35-.05-.32-.21-.66-.26Z"/>
    <path d="M89.61,86.13c-.22.26.08.43-.16.68-.25.25-.61.17-.87.38-.26.21-.17.33-.45.53-.29.19-.45-.04-.74.13-.29.16-.22.45-.53.6-.31.15.06.65-.27.82-.34.14-.64-.46-.96-.33-.32.11-.35.31-.68.42-.34.09-.34-.39-.67-.31-.32.09-.24.5-.59.57-.35.07-.35,0-.7.05-.35.04-.39-.28-.73-.26-.34.01-.37.51-.73.5-.36,0-.66-.45-.67-.45l-.13,2s.53-.18.92-.18c.39,0,.4.24.8.22.4-.02.38-.31.77-.35.39-.04.43.29.83.21.4-.08.17-.6.54-.7.37-.1.55.08.92-.04.37-.12.38.04.75-.09.37-.15.32-.39.68-.54.35-.17.55.21.91.03.36-.2.13-.58.46-.78.33-.2.41-.1.73-.32.33-.22.43-.09.75-.35.31-.26-.06-.61.22-.88.27-.27.59-.02.86-.32.26-.31.11-.43.35-.74.23-.31.57-.2.73-.46l-1.68-1.09c-.14.21.1.33-.1.61-.21.28-.33.18-.54.44Z"/>
    <path d="M90.8,75.61c.1.43.41.25.51.62.1.36-.14.65-.04,1,.09.35.22.31.3.66.08.35-.22.42-.16.76.06.34.33.38.37.73.04.34.63.18.66.55.02.37-.65.43-.65.77-.02.34.18.43.13.78-.04.34-.48.16-.54.48-.05.32.37.42.28.75-.08.33-.15.31-.25.64-.12.32-.43.22-.56.52-.14.3.28.56.11.87-.17.31-.71.35-.72.37l1.68,1.09s.11-.55.29-.9c.18-.35.41-.24.58-.62.17-.38-.1-.48.04-.86.12-.38.45-.27.55-.68.1-.41-.48-.41-.41-.79.07-.38.28-.48.32-.88.04-.39.17-.34.19-.74,0-.4-.24-.45-.26-.84-.03-.39.4-.44.35-.84-.05-.4-.49-.32-.55-.7-.08-.38.07-.41-.02-.79-.09-.38.09-.42,0-.79-.1-.37-.58-.19-.68-.55-.1-.35.28-.5.2-.82-.06-.27-.25-.3-.31-.64-.06-.36.26-.5.22-.78l-1.98.3c.04.28.3.2.36.57.06.38-.11.37-.03.79Z"/>
    <path d="M89.37,63.66c.04.37.37.26.4.63.04.37-.25.62-.21.99.04.37.17.36.21.73.04.37-.27.41-.23.78.04.37.3.43.34.8.04.37.63.19.67.56.04.37-.62.49-.58.86.04.37.23.44.28.81.04.37-.43.29-.39.66.04.37.48.33.52.7.05.37-.01.38.04.75.05.37-.27.43-.22.8.05.37.54.36.59.73.05.37-.31.78-.31.8l1.98-.3s-.28-.44-.33-.8c-.05-.36.2-.4.15-.76-.05-.36-.32-.33-.37-.69-.05-.36.28-.4.24-.76-.04-.36-.6-.18-.65-.55-.04-.37.14-.5.1-.87-.04-.37.12-.34.08-.7-.04-.37-.28-.38-.32-.75-.04-.37.39-.42.35-.79-.04-.37-.47-.31-.51-.68-.04-.37.11-.38.07-.75-.04-.37.15-.39.12-.75-.04-.37-.54-.28-.58-.65-.04-.37.37-.44.33-.81-.04-.37-.23-.35-.27-.72-.04-.37.29-.49.26-.77l-1.99.2c.03.27.29.21.32.58.04.37-.12.38-.08.75Z"/>
    <path d="M87.79,51.9c.07.36.39.22.45.58.07.36-.2.63-.13.99.06.36.19.34.25.71.06.36-.24.42-.18.78.06.36.33.41.38.78.05.36.64.16.69.53.05.37-.6.51-.55.87.05.36.24.43.29.8.05.37-.43.29-.38.66.05.36.48.32.52.69.04.37-.01.37.03.74.04.37-.28.42-.24.79.04.37.52.37.56.74.04.37-.35.75-.35.78l1.99-.2s-.26-.46-.29-.83c-.04-.37.21-.39.17-.76-.04-.37-.32-.34-.36-.71-.04-.37.29-.4.25-.77-.04-.37-.6-.19-.65-.56-.05-.37.14-.51.09-.88-.05-.37.11-.35.06-.71-.05-.37-.3-.38-.35-.75-.05-.37.37-.44.32-.81-.05-.37-.49-.3-.54-.66-.06-.37.08-.39.02-.76-.06-.37.13-.4.07-.77-.07-.37-.56-.24-.63-.61-.07-.37.33-.48.26-.84-.07-.37-.25-.33-.33-.7-.08-.36.24-.52.18-.8l-1.96.41c.06.27.31.18.38.54.08.36-.08.39-.01.75Z"/>
    <path d="M84.34,40.85c.17.3.44.06.61.38.16.32,0,.64.14.96.15.32.28.26.42.59.13.33-.15.46-.01.78.12.33.39.32.51.66.12.34.66.04.77.39.11.35-.52.59-.41.94.09.35.3.39.39.74.1.36-.39.35-.29.7.09.35.52.25.61.61.09.36.03.37.12.73.08.36-.23.45-.14.81.08.36.57.3.64.66.08.36-.27.78-.27.81l1.96-.41s-.3-.43-.38-.8c-.08-.37.16-.42.08-.78-.09-.37-.36-.3-.44-.67-.09-.36.24-.44.15-.8-.09-.36-.62-.11-.72-.47-.1-.36.07-.52-.03-.88-.1-.36.06-.36-.03-.72-.11-.37-.36-.34-.47-.7-.11-.36.29-.5.16-.87-.13-.36-.53-.21-.67-.56-.14-.35,0-.41-.15-.76-.15-.35.02-.43-.15-.78-.16-.36-.61-.09-.78-.43-.17-.34.17-.57-.03-.9-.2-.34-.36-.24-.57-.56-.21-.32.02-.59-.16-.84l-1.62,1.17c.15.21.35.03.54.33.19.3.07.37.24.68Z"/>
    <path d="M75.64,33.92c.33.12.38-.23.72-.09.33.14.4.5.72.65.32.15.38.03.7.19.32.16.18.44.48.61.31.17.51,0,.81.18.3.19.54-.38.85-.18.3.21-.04.78.24.99.28.21.46.12.74.35.29.23-.11.51.17.74.27.23.56-.1.83.14.27.24.22.28.48.52.25.25.03.49.26.74.22.26.63-.03.85.25.23.28.07.8.08.81l1.62-1.17s-.46-.29-.71-.59c-.24-.3-.06-.46-.33-.76-.27-.29-.47-.1-.75-.38-.28-.27-.05-.51-.34-.77-.29-.26-.58.25-.87,0-.29-.24-.26-.47-.54-.7-.3-.24-.17-.33-.48-.57-.31-.23-.49-.06-.81-.28-.32-.21-.09-.58-.42-.78-.34-.2-.55.17-.88-.01-.33-.19-.26-.32-.61-.49-.34-.18-.26-.35-.61-.51-.35-.17-.53.31-.88.17-.35-.14-.23-.54-.6-.67-.37-.13-.43.04-.79-.07-.37-.11-.36-.47-.65-.55l-.53,1.93c.25.06.29-.19.63-.09.34.1.29.25.62.37Z"/>
    <path d="M64.5,34.03c.34-.11.17-.41.52-.51.35-.11.64.14.98.05.35-.08.32-.22.67-.3.35-.07.42.22.77.16.35-.07.39-.33.74-.38.35-.05.16-.64.53-.68.37-.04.48.63.82.6.35-.03.43-.2.79-.22.36,0,.23.47.57.47.34,0,.37-.42.73-.39.35.03.35.07.7.12.35.05.32.36.66.43.34.07.48-.4.83-.33.35.09.56.58.58.59l.53-1.93s-.54.07-.92-.01c-.38-.07-.33-.32-.72-.39-.39-.06-.43.22-.82.16-.38-.05-.35-.37-.74-.41-.4-.03-.31.55-.69.53-.38,0-.5-.22-.89-.2-.38.01-.35-.15-.73-.12-.39.03-.41.27-.79.31-.38.04-.44-.38-.83-.32-.39.06-.31.49-.68.56-.38.07-.4-.07-.78.01-.37.08-.42-.1-.79,0-.37.1-.2.58-.57.68-.36.11-.51-.28-.88-.16-.36.12-.3.3-.66.42-.36.12-.55-.17-.82-.07l.68,1.88c.26-.09.13-.33.48-.45.35-.12.39.03.73-.08Z"/>
    <path d="M52.64,35.98c.37-.01.28-.35.65-.36.37-.01.6.29.97.28.37,0,.37-.15.74-.15.37,0,.39.3.76.29.37,0,.45-.27.82-.28.37,0,.24-.62.62-.62.37,0,.43.66.8.66.37,0,.46-.19.83-.19.39,0,.16.46.75.46.3.03.39-.22.49-.35.05-.08.1-.16.16-.23.04-.06.09-.11.17-.15.34-.14.36-.09.69-.23.34-.14.47.15.81.02.35-.13.22-.6.57-.73.35-.13.81.16.83.15l-.68-1.88s-.39.36-.74.49c-.35.13-.44-.1-.78.03-.35.14-.25.4-.6.55-.35.15-.47-.16-.82-.02-.2.08-.14.22-.12.36.02.14.01.32-.12.35-.25,0-.39-.2-.77-.2-.37,0-.33-.15-.7-.15-.37,0-.41.25-.78.25-.37,0-.39-.42-.76-.41-.37,0-.35.44-.73.45-.37,0-.37-.14-.75-.13-.37,0-.38-.18-.75-.17-.37.01-.32.52-.69.53-.37.01-.42-.4-.79-.38-.37.01-.36.21-.73.22-.37.01-.47-.32-.75-.32l.06,2c.28,0,.23-.27.61-.28.37-.01.37.14.74.13Z"/>
    <path d="M40.61,34.86c.34.12.38-.23.73-.11.35.12.44.49.78.61.34.13.39,0,.74.14.34.13.24.42.58.56.22.09.41.09.57.09.17-.01.35-.12.6-.1.39,0,.26-.61.63-.61.37,0,.43.66.8.66.37,0,.46-.19.83-.2.37,0,.25.46.62.45.37,0,.37-.44.74-.45.37,0,.37.05.75.04.37,0,.4.32.77.31.37,0,.41-.49.78-.5.37-.01.73.41.75.41l-.06-2s-.47.22-.84.23c-.37.01-.37-.24-.74-.23-.37,0-.36.29-.73.3-.37,0-.37-.32-.74-.31-.37,0-.24.58-.61.59-.37,0-.49-.19-.86-.18-.37,0-.33-.15-.69-.14-.37,0-.41.25-.78.25-.18,0-.28-.11-.37-.21-.08-.11-.24-.21-.3-.21-.17.01-.24.41-.54.3-.35-.14-.29-.27-.64-.41-.35-.13-.28-.31-.63-.44-.35-.13-.49.36-.84.23-.35-.13-.25-.52-.61-.64-.36-.12-.42.06-.78-.05-.36-.11-.36-.46-.64-.54l-.54,1.93c.25.07.29-.19.64-.09.35.11.29.25.64.37Z"/>
  </g>
  <g>
    <path d="M69.37,44.37c-.08-.17-.22-.06-.29-.25-.07-.19.06-.34.02-.52-.03-.19-.1-.18-.11-.37,0-.19.15-.19.16-.37.02-.18-.1-.24-.06-.43.05-.18-.26-.21-.2-.41.08-.2.39-.1.48-.26.09-.17.03-.26.14-.42.12-.16.25.03.37-.11.11-.14-.03-.29.1-.43.15-.12.16-.11.32-.22.16-.11.26.03.41-.06.16-.07.09-.31.28-.37.19-.07.4.13.41.12l-.16-.99s-.3.16-.53.24c-.23.08-.28-.03-.51.08-.22.12-.15.24-.35.38-.19.14-.29.01-.48.18-.18.18.07.32-.08.49-.15.17-.27.18-.41.37-.12.2-.18.14-.29.35-.11.22,0,.29-.09.51-.07.22-.28.17-.34.41-.05.25.17.27.14.51-.02.23-.08.23-.08.48.02.24-.08.25-.04.5.05.24.29.16.36.38.07.22-.11.31,0,.54.11.22.19.17.32.37.13.19.03.34.15.49l.77-.64c-.09-.11-.18-.01-.29-.17-.1-.16-.04-.2-.12-.37Z"/>
    <path d="M74.38,44.84c-.1.15.05.22-.07.37-.14.15-.32.11-.46.22-.15.1-.11.17-.28.26-.17.1-.24-.05-.41.03-.17.06-.17.2-.36.25-.19.05-.07.33-.28.37-.21.02-.27-.3-.45-.3-.19,0-.24.09-.44.07-.2-.03-.09-.24-.26-.28-.18-.04-.24.16-.43.1-.18-.08-.17-.09-.34-.18-.17-.09-.09-.24-.24-.34-.14-.11-.32.07-.47-.07-.15-.14-.1-.42-.1-.42l-.77.64s.28.18.46.33c.18.16.1.26.3.4.21.14.28.02.49.14.21.11.15.25.38.35.24.07.25-.21.48-.16.22.05.28.16.52.19.24.01.2.1.45.09.24,0,.26-.13.49-.15.23-.04.28.18.52.11.24-.06.16-.28.38-.36.21-.1.25-.02.46-.15.21-.12.26-.05.46-.19.19-.17.01-.33.17-.5.16-.16.32-.06.48-.26.13-.21.06-.25.16-.47.1-.21.28-.21.34-.4l-.95-.3c-.04.12.1.16.01.33-.08.17-.15.13-.25.28Z"/>
    <path d="M72.05,40.2c.18.02.17-.14.36-.1.19.05.24.24.41.32.17.08.2.02.37.13.17.11.08.24.23.35.14.11.26.05.4.19.13.15.32-.11.45.06.13.17-.13.39-.02.55.1.17.21.16.29.34.08.18-.15.21-.09.38.07.17.27.11.33.3.04.19.02.2.05.39.02.19-.14.22-.14.39,0,.18.23.22.21.42-.04.2-.29.31-.3.31l.95.3s0-.34.02-.58c.02-.24.16-.23.15-.49,0-.25-.15-.24-.17-.48-.04-.23.13-.26.07-.5-.07-.24-.31-.09-.39-.3-.08-.21-.02-.32-.12-.53-.11-.2-.03-.22-.15-.42-.13-.2-.24-.15-.39-.34-.14-.18,0-.32-.16-.5-.18-.17-.32-.01-.5-.16-.19-.14-.14-.2-.34-.33-.2-.12-.16-.2-.38-.31-.23-.1-.3.15-.51.07-.22-.06-.19-.27-.44-.31-.25-.04-.26.06-.5.06-.24,0-.31-.15-.51-.13l.16.99c.13,0,.1-.15.29-.15.19,0,.18.08.36.1Z"/>
  </g>
  <g>
    <path d="M69.57,58.63c-.07-.17-.21-.07-.28-.26-.06-.19.07-.33.04-.51-.03-.18-.09-.18-.1-.37,0-.19.15-.19.17-.37.02-.17-.1-.24-.06-.42.05-.18-.26-.21-.19-.41.07-.2.4-.08.47-.24.09-.16.03-.24.15-.39.12-.15.25.05.37-.08.12-.12-.02-.29.13-.41.15-.12.17-.1.32-.2.16-.1.25.04.4-.03.16-.07.1-.3.29-.36.19-.06.39.15.4.14l-.12-.99s-.3.14-.52.21c-.23.07-.27-.05-.5.05-.22.11-.16.23-.36.35-.19.13-.29-.01-.48.14-.19.16.06.32-.1.48-.16.16-.28.15-.42.34-.14.19-.18.13-.31.34-.11.22-.02.29-.1.5-.08.22-.28.16-.34.4-.05.24.17.27.14.5-.02.23-.09.23-.09.46.01.23-.09.24-.05.48.04.24.29.16.34.38.06.21-.12.3-.04.52.09.22.18.18.29.38.12.2,0,.34.11.49l.8-.6c-.08-.11-.18-.02-.27-.18-.09-.17-.02-.2-.1-.37Z"/>
    <path d="M74.35,59.24c-.1.15.05.21-.07.37-.14.14-.32.1-.46.21-.14.11-.11.16-.27.26-.16.09-.24-.05-.4.02-.16.06-.17.2-.35.24-.18.04-.07.33-.27.36-.21.02-.25-.31-.43-.31-.18,0-.24.08-.43.06-.19-.03-.07-.25-.24-.29-.16-.05-.24.16-.42.08-.17-.08-.16-.1-.32-.2-.16-.1-.07-.24-.21-.35-.13-.11-.32.05-.46-.09-.14-.14-.08-.42-.08-.42l-.8.6s.27.18.43.35c.17.16.08.26.27.41.2.15.28.04.47.16.2.12.12.26.35.36.23.09.26-.2.48-.13.22.06.27.17.5.21.23.02.2.1.44.11.24,0,.26-.12.49-.15.23-.03.27.18.51.12.24-.07.17-.27.38-.35.21-.09.24-.02.45-.14.2-.12.26-.04.45-.18.19-.15,0-.33.17-.49.16-.16.32-.05.47-.24.14-.2.06-.25.17-.45.11-.2.28-.19.35-.37l-.94-.35c-.05.12.08.16,0,.33-.09.16-.15.12-.25.27Z"/>
    <path d="M72.33,54.7c.18.03.17-.15.36-.1.19.05.24.24.4.31.16.08.2.02.36.12.16.11.07.23.21.34.14.12.26.05.39.19.12.14.32-.1.45.06.12.17-.14.38-.05.53.09.16.19.16.27.34.06.18-.17.19-.12.36.05.17.26.13.3.32.03.19,0,.19.01.38,0,.19-.15.2-.17.37-.01.17.22.23.18.43-.04.19-.31.29-.31.29l.94.35s0-.33.05-.56c.04-.23.17-.21.19-.46.01-.24-.13-.25-.13-.48-.01-.23.15-.24.11-.49-.05-.24-.31-.11-.37-.33-.06-.22,0-.32-.08-.53-.09-.21-.01-.22-.13-.43-.12-.21-.24-.16-.37-.35-.14-.18.02-.32-.15-.5-.17-.17-.32,0-.49-.15-.18-.14-.14-.2-.33-.33-.2-.12-.15-.2-.37-.31-.22-.1-.29.15-.51.07-.21-.06-.19-.27-.43-.31-.24-.04-.25.06-.48.05-.23,0-.3-.16-.49-.15l.12.99c.13,0,.1-.15.29-.15.19,0,.18.08.36.1Z"/>
  </g>
  <g>
    <path d="M42.7,57.87c-.02-.14-.19-.09-.2-.23,0-.15.15-.23.16-.37.01-.14-.06-.15-.03-.29.02-.14.18-.11.21-.24.04-.13-.08-.2-.02-.33.06-.13-.24-.22-.17-.36.08-.14.38,0,.45-.11.08-.12.02-.2.12-.31.09-.11.23.08.32-.01.09-.09-.05-.25.06-.34.11-.08.13-.06.24-.13.12-.07.2.08.3.04.11-.03.06-.28.2-.3.14-.03.27.19.27.19v-1s-.26.11-.45.15c-.19.04-.22-.08-.42,0-.19.08-.13.2-.3.3-.16.1-.25-.04-.41.08-.16.13.08.3-.05.43-.12.12-.24.1-.35.24-.11.14-.16.08-.26.23-.1.16,0,.23-.09.39-.08.16-.27.07-.35.25-.07.18.14.25.09.42-.04.17-.12.16-.15.34-.03.18-.12.17-.14.35-.01.19.25.18.25.35,0,.17-.2.21-.17.39.03.19.12.17.17.34.04.18-.09.27-.04.41l.92-.39c-.03-.09-.16-.03-.2-.16-.04-.13.04-.15.01-.28Z"/>
    <path d="M45.94,58.73c-.09.09.06.2-.04.29-.11.1-.27.02-.37.09-.11.06-.08.13-.21.18-.13.05-.18-.09-.31-.06-.12.03-.13.17-.27.19-.14.01-.07.32-.23.32-.16,0-.17-.33-.3-.35-.13-.02-.18.07-.32.03-.13-.05-.02-.24-.13-.29-.11-.05-.21.15-.33.08-.12-.07-.1-.1-.21-.18-.1-.09,0-.21-.07-.3-.07-.09-.28.04-.36-.08-.08-.12.07-.33.07-.33l-.92.39s.2.19.3.35c.11.16,0,.24.14.39.14.15.24.05.38.18.15.12.05.25.22.36.18.1.26-.18.42-.11.17.07.19.18.37.23.18.04.15.11.34.14.19.02.22-.1.4-.1.18,0,.2.2.4.18.2-.03.15-.25.32-.29.17-.05.2.02.37-.05.17-.08.21,0,.39-.1.17-.11,0-.31.14-.42.13-.12.29.02.42-.13.13-.15.04-.21.15-.36.09-.15.27-.11.33-.25l-.9-.44c-.04.09.08.14,0,.26-.07.12-.14.07-.22.17Z"/>
    <path d="M45.08,55.06c.12.04.15-.13.28-.07.13.06.12.24.22.31.1.08.15.03.25.13.1.1-.02.21.07.31.08.11.2.06.28.18.07.12.32-.06.39.08.07.15-.24.29-.19.42.04.13.14.14.17.28.02.14-.21.13-.2.26,0,.13.23.12.23.27,0,.15-.03.14-.04.29-.02.14-.18.13-.21.26-.03.13.19.21.15.36-.05.14-.31.17-.31.17l.9.44s.01-.27.07-.44c.05-.18.18-.14.22-.33.04-.19-.1-.21-.08-.39.01-.18.19-.17.18-.36,0-.19-.29-.12-.3-.3-.01-.17.07-.24.04-.42-.04-.18.04-.18-.02-.36-.06-.18-.18-.15-.25-.32-.08-.16.11-.27.01-.43-.1-.17-.28-.04-.39-.18-.11-.14-.06-.19-.19-.32-.14-.13-.07-.2-.23-.32-.16-.12-.29.11-.44.02-.16-.08-.09-.28-.28-.34-.19-.05-.21.03-.4,0-.18-.03-.22-.19-.38-.2v1c.09,0,.09-.13.22-.12.13.02.11.1.24.13Z"/>
  </g>
  <g>
    <path d="M21.73,32.67c.02.2.08.4.19.56.1.15.25.25.42.31s.35.06.52.01c.18-.05.37-.11.52-.25.14-.14.25-.34.33-.55l-1.87-.7c-.08.21-.12.43-.1.63Z"/>
    <path d="M34.68,29.14c-.43-.5-.55-.14-1.02-.44-.43-.21-.72-.46-1.21-.48-.08,0-.19,0-.27,0-.45.05-.44.18-.89.23-.45.05-.5-.26-.95-.21-.45.05-.53.32-.99.36-.45.05-.25.64-.7.69-.45.05-.59-.61-1.04-.56-.45.05-.54.24-.99.29-.45.05-.34-.43-.79-.38-.45.05-.42.48-.87.53-.53.07-.61-.04-1.16.21-.51.31-.77.1-1.18.65-.19.29-.13.54-.09.76.05.2.13.34.05.56-.16.43-.71.67-.72.7l1.87.7s.01-.62.17-1.05c.08-.22.18-.3.25-.31.08-.03.15-.05.21-.14.13-.16-.06-.4.19-.54.13-.06.23.02.31.09.04.04.08.08.12.1.03.03.08.04.21.03.45-.05.26-.6.71-.65.45-.05.61.14,1.07.09.45-.05.41.11.86.06.45-.05.48-.29.93-.34.45-.05.51.38.96.33.45-.05.4-.48.85-.53.45-.05.47.1.92.05.45-.05.47.14.92.09.04,0,.07-.02.09-.04.14-.12.22-.52.52-.46.34.13.15.53.31.7.08.1.15.13.23.16.09.06.2.14.32.33.24.38.02.66.2.95l1.69-1.06c-.18-.29-.38-.11-.62-.5-.26-.41-.05-.39-.44-.97Z"/>
    <path d="M35.89,31.77c.07-.17.07-.38.04-.58-.02-.19-.07-.4-.19-.58,0,0,0,0,0,0l-1.69,1.06s0,0,0,0c.12.19.27.35.43.46.17.11.37.16.55.17.18,0,.36-.03.51-.13.15-.1.27-.24.34-.4Z"/>
  </g>
  <g>
    <path d="M77.36,33.5c.14.16.31.28.49.34.17.06.35.05.52,0s.31-.17.42-.31c.11-.15.23-.32.26-.52.03-.2-.01-.44-.08-.65l-1.91.58c.07.22.17.42.3.58Z"/>
    <path d="M67.46,30.57c.16-.19-.11-.44.18-.62.24-.11.47.07.64.17.05.03.11.05.24.06.47.03.47-.11.94-.08.47.03.46.34.93.36.47.03.59-.22,1.06-.2.47.03.36-.59.82-.56.46.03.49.7.96.73.46.03.59-.15,1.05-.12.47.03.27.48.74.51.23.01.36-.09.48-.19.13-.1.26-.2.4-.19.31.03.3.08.55.23.23.2,0,.44.06.63.05.16.56.2.69.62.13.45-.15.99-.14,1.01l1.91-.58s-.37-.52-.51-.96c-.07-.22-.04-.35-.01-.48,0-.17.03-.38-.1-.7-.14-.32-.32-.41-.48-.49-.16-.08-.32-.15-.57-.33-.54-.3-.41-.62-1.13-.71-.39-.03-.44.12-.53.26-.09.14-.18.28-.41.26-.46-.03-.6-.24-1.06-.26-.46-.03-.4-.18-.86-.2-.47-.03-.53.21-1,.18-.46-.03-.45-.45-.91-.48-.46-.03-.48.41-.94.38-.46-.03-.46-.17-.92-.2-.46-.03-.45-.22-.92-.24-.11,0-.29.03-.38.08-.26.15-.31.37-.7.46-.51.18-.8-.13-1.27.34-.4.52-.22.71-.45,1.08-.23.4-.58.34-.75.64l1.74.99c.17-.3-.08-.39.15-.8.23-.4.39-.38.51-.58Z"/>
    <path d="M65.83,32.65c.18-.02.37-.13.54-.25.16-.12.32-.26.43-.46,0,0,0,0,0,0l-1.74-.99s0,0,0,0c-.11.19-.19.41-.21.61-.02.21.03.41.1.58.07.16.2.3.36.39.16.09.34.13.52.11Z"/>
  </g>
  <g>
    <path d="M49.16,34.63c.11.16.26.28.42.35.16.07.34.08.52.05.18-.03.33-.11.47-.22.14-.11.28-.24.35-.4.06-.16.08-.35.05-.54l-1.99.2c.02.2.08.4.19.55Z"/>
    <path d="M50.86,22.59c-.13.38.22.41.08.79-.14.38-.5.51-.62.9-.12.39,0,.43-.11.82-.11.39-.41.32-.52.71-.1.4.13.55.03.95-.09.4.54.41.45.8-.08.39-.74.32-.82.73-.07.4.11.53.05.93-.05.4-.49.2-.54.62-.05.42.4.46.37.87-.03.41-.07.41-.09.82-.01.41-.33.43-.33.85.01.42.5.46.52.86.03.4-.37.83-.36.85l1.99-.2s-.25-.47-.28-.85c-.01-.38.23-.39.22-.76,0-.37-.29-.38-.27-.76.02-.38.34-.36.37-.73.03-.37-.56-.31-.52-.69.04-.38.24-.48.3-.86.06-.38.19-.31.26-.69.07-.37-.17-.46-.09-.84.08-.38.5-.3.58-.67.09-.37-.33-.47-.24-.84.1-.37.24-.34.35-.71.1-.37.29-.32.41-.68.12-.37-.38-.49-.26-.86.13-.37.53-.27.65-.64.13-.36-.05-.43.09-.8.14-.37.48-.33.59-.6l-1.86-.74c-.11.28.15.34,0,.72-.14.38-.29.32-.43.7Z"/>
    <path d="M57.7,11.45c-.31.28-.01.48-.31.76-.3.27-.69.23-.97.54-.28.31-.19.39-.45.71-.26.32-.5.13-.77.46-.26.33-.1.57-.34.9-.24.33.33.58.12.91-.21.33-.82.02-1.03.37-.21.35-.1.53-.3.88-.19.36-.53,0-.73.37-.2.36.19.57.01.93-.18.36-.23.34-.4.71-.17.37-.48.25-.64.63-.16.38.26.61.11.98-.15.37-.69.56-.7.58l1.86.74s0-.55.14-.91c.15-.36.38-.26.53-.61.15-.35-.09-.46.07-.82.16-.35.46-.2.63-.54.17-.34-.4-.5-.21-.84.19-.34.41-.36.6-.69.19-.33.3-.21.5-.54.2-.32.03-.49.24-.81.21-.33.57-.08.79-.39.22-.3-.14-.56.1-.86.24-.3.35-.2.59-.5.24-.29.4-.16.65-.43.26-.27-.15-.61.14-.87.28-.26.59,0,.86-.25.28-.25.16-.38.46-.62.3-.24.56-.03.8-.18l-1.15-1.63c-.27.18-.08.36-.4.63-.33.26-.42.14-.75.4Z"/>
    <path d="M70.48,8.36c-.42-.18-.45.19-.86.04-.41-.11-.59-.49-1.03-.55-.44-.07-.45.08-.88.04-.43-.01-.44-.32-.88-.31-.44.02-.52.29-.94.34-.42.05-.2.65-.6.71-.39.08-.59-.57-1-.46-.41.1-.45.31-.85.43-.39.12-.4-.36-.79-.23-.4.15-.24.54-.63.7-.38.16-.4.11-.79.28-.39.16-.54-.1-.92.1-.37.21-.19.64-.54.86-.34.23-.91.09-.93.11l1.15,1.63s.28-.44.59-.65c.33-.18.45.04.77-.14.32-.17.19-.44.54-.58.34-.15.47.16.8.02.33-.14.05-.64.4-.77.36-.13.54.02.9-.09.36-.1.36.05.72-.04.36-.09.35-.33.72-.4.37-.06.44.35.8.32.35-.04.31-.47.68-.49.37,0,.37.14.73.15.36.03.34.21.68.26.34.05.4-.45.77-.36.36.09.26.51.58.62.3.15.4-.04.71.13.31.18.18.51.38.65l1.22-1.59c-.28-.21-.4.03-.77-.21-.38-.23-.32-.35-.73-.54Z"/>
    <path d="M80.49,9.62c-.3.23-.03.46-.35.68-.32.22-.67.1-.99.29-.32.2-.25.31-.58.5-.33.19-.48-.1-.8.06-.32.14-.3.42-.64.54-.33.11-.05.67-.43.76-.38.08-.54-.57-.85-.55-.32.02-.4.19-.73.15-.32-.07-.1-.49-.36-.57-.23-.1-.44.3-.71.12-.26-.19-.22-.23-.46-.47-.25-.26,0-.49-.27-.79-.27-.31-.67-.04-.96-.34-.29-.3-.36-.89-.39-.91l-1.22,1.59s.47.1.71.36c.25.26.05.43.31.72.27.31.47.13.78.45.33.31.1.57.53.88.46.28.6-.3,1.01-.12.42.15.52.39.99.45.46.04.41.19.88.17.47-.03.48-.29.91-.38.42-.1.55.3.98.15.42-.16.24-.56.62-.73.37-.19.45-.05.81-.25.36-.2.46-.04.82-.27.36-.23.04-.62.37-.86.33-.23.61.08.93-.17.32-.25.21-.4.52-.66.31-.26.61-.06.84-.26l-1.3-1.52c-.22.18-.02.36-.32.61-.3.25-.39.12-.7.35Z"/>
    <path d="M82.51,8.43c-.17-.05-.35-.03-.53,0-.17.04-.34.1-.48.22h0s1.3,1.52,1.3,1.52h0c.15-.13.27-.29.33-.46.06-.17.07-.37.04-.54-.03-.17-.11-.33-.23-.47-.12-.13-.28-.23-.44-.28Z"/>
  </g>
</svg>