<?xml version="1.0" encoding="UTF-8"?>
<svg id="_レイヤー_1" xmlns="http://www.w3.org/2000/svg" version="1.1" viewBox="0 0 80 90">
  <!-- Generator: Adobe Illustrator 30.0.0, SVG Export Plug-In . SVG Version: 2.1.1 Build 123)  -->
  <defs>
    <style>
      .st0 {
        fill: #fff;
      }

      .st1 {
        fill: #1a1a1a;
      }
    </style>
  </defs>
  <path class="st0" d="M42.39,2.39c-.46-.56-.92-1.12-1.38-1.67-4.86,6.18-9.08,12.88-13.51,19.37-3.73,5.48-7.48,10.95-11.22,16.43-1.64,2.4-3.26,4.82-4.95,7.19-.41.58-.44,1.97,0,2.62,1.43,2.06,2.83,4.14,4.25,6.21,4.18,6.12,25.87,36.33,25.87,36.33,0,0,19.67-28.21,29.03-41.89.38-.56.78-1.16.8-1.83.03-.76-.42-1.44-.84-2.07-4.35-6.38-8.71-12.77-13.06-19.15-4.9-7.19-9.5-14.77-14.99-21.55h0Z"/>
  <polygon class="st0" points="41.31 2.51 31.12 44.84 54.19 44.84 41.31 2.51"/>
  <polyline class="st0" points="11.33 46.32 27.3 46.32 40.6 87.88 11.33 46.32"/>
  <path class="st1" d="M45.04,73.95c-1.43,4.77-2.91,9.54-4.31,14.32-.11.36,1.32.17,1.43-.23,1.4-4.79,2.87-9.55,4.31-14.32.11-.36-1.31-.17-1.43.23h0Z"/>
  <path class="st1" d="M40.87,1.86c2.86,9.71,5.61,19.46,8.44,29.19.8,2.76,1.6,5.51,2.4,8.27.34,1.19.69,2.38,1.02,3.57.2.7.6,1.58.59,2.31,0,.96-.49,2.08-.74,3-.51,1.88-1.05,3.76-1.59,5.63-1.63,5.66-3.31,11.3-5,16.95-.11.36,1.31.17,1.43-.23,1.54-5.17,3.08-10.34,4.59-15.51.93-3.2,2.02-6.43,2.67-9.7.27-1.33-.5-2.8-.86-4.07-.76-2.67-1.54-5.33-2.32-8-1.72-5.93-3.44-11.86-5.16-17.8-1.34-4.66-2.66-9.33-4.03-13.98-.11-.38-1.56.02-1.45.39h0v-.02Z"/>
  <path class="st1" d="M67.62,52.21c1.15-1.67,2.3-3.33,3.44-5,.92-1.35,1.25-2.48.37-3.95-2.25-3.74-4.94-7.27-7.4-10.87-4.72-6.92-9.32-13.91-14.03-20.84-2.61-3.84-5.33-7.6-8.32-11.14-.28-.34-1.02-.19-1.26.13-2.12,2.71-4.12,5.5-6.08,8.33-.42.61,1.05.59,1.37.12,1.9-2.75,3.84-5.46,5.9-8.09l-1.26.13c5.04,5.96,9.26,12.52,13.56,19.02,4.56,6.89,9.28,13.67,13.93,20.5.65.95,1.31,1.89,1.95,2.85.75,1.13.98,1.97.25,3.19-1.13,1.9-2.53,3.69-3.78,5.51-.42.61,1.05.59,1.37.12h-.01Z"/>
  <path class="st1" d="M32.28,11.89c-5.93,8.82-11.94,17.58-17.91,26.37-.68,1-1.36,2.01-2.05,3-.63.91-1.59,1.87-1.91,2.93-.59,1.95.98,3.47,1.99,4.95,1.43,2.1,2.86,4.2,4.32,6.28,6.13,8.74,12.37,17.41,18.59,26.09,1.83,2.55,3.66,5.1,5.49,7.65.31.44,1.12.09,1.35-.25,5.62-8.06,11.22-16.12,16.82-24.19,2.33-3.36,4.66-6.72,6.98-10.09.42-.61-1.05-.59-1.37-.12-7.3,10.57-14.63,21.11-21.97,31.65-.61.87-1.22,1.75-1.83,2.62l1.35-.25c-4.57-6.37-9.14-12.74-13.69-19.13-3.06-4.28-6.11-8.56-9.15-12.86-.96-1.36-1.92-2.72-2.86-4.09-1.21-1.77-2.41-3.54-3.62-5.31-.64-.93-1.32-1.78-.96-2.97.34-1.12,1.46-2.26,2.13-3.22,6.62-9.62,13.17-19.29,19.69-28.98.42-.62-1.05-.59-1.37-.12h0l-.02.04Z"/>
  <path class="st1" d="M34.79,19.61c-2.08,7.62-4.07,15.29-5.71,23.02-.28,1.3-.64,2.23-.3,3.46.32,1.15.63,2.29.95,3.44,2.29,8.3,4.59,16.59,6.88,24.89.85,3.09,1.71,6.18,2.56,9.27.08.3,1.53-.09,1.45-.39-1.89-6.84-3.78-13.67-5.67-20.51-1.13-4.08-2.25-8.15-3.38-12.23-.37-1.34-.74-2.69-1.11-4.03-.14-.52-.41-1.12-.46-1.67-.07-.86.42-2.09.61-2.95.24-1.1.48-2.19.73-3.29.49-2.12,1-4.23,1.53-6.34,1.09-4.32,2.17-8.64,3.35-12.94.07-.26-1.33-.09-1.43.27h0Z"/>
  <path class="st1" d="M38.33,6.61c-.84,3.24-1.73,6.47-2.63,9.7-.07.26,1.33.09,1.43-.27.9-3.23,1.78-6.46,2.63-9.7.07-.27-1.34-.09-1.43.27h0Z"/>
  <path class="st1" d="M70.25,44.48H14.3c-.85,0-1.1,1.11-.11,1.11h55.95c.85,0,1.1-1.11.11-1.11h0Z"/>
</svg>