<?xml version="1.0" encoding="UTF-8"?>
<svg id="_レイヤー_2" data-name="レイヤー_2" xmlns="http://www.w3.org/2000/svg" version="1.1" viewBox="0 0 80 80">
  <!-- Generator: Adobe Illustrator 30.0.0, SVG Export Plug-In . SVG Version: 2.1.1 Build 123)  -->
  <defs>
    <style>
      .st0 {
        fill: #ceb372;
      }

      .st1, .st2 {
        fill: none;
        stroke: #000;
        stroke-linecap: round;
        stroke-linejoin: round;
      }

      .st3 {
        fill: #fff;
      }

      .st2 {
        stroke-width: 1.5px;
      }
    </style>
  </defs>
  <path class="st3" d="M40.71,3c-16.98-.21-30.85,12.21-34.79,26.05-3.91,13.74,1.22,29.62,12.45,38.45,11.23,8.83,27.89,10.06,40.28,2.94,12.39-7.12,19.72-22.16,17.66-36.3-2.21-15.13-14.45-31.23-35.52-31.14"/>
  <path class="st0" d="M4.42,39.44s1.64,11.11,2.5,13.02c.86,1.91,7.82,12.11,10.1,14.11s9.91,6.67,14.01,7.43,9.63,1.14,9.63,1.14l-.25-12.82-16.34-6.53-6.66-16.27-13-.08Z"/>
  <path class="st2" d="M40.71,3c-16.98-.21-30.85,12.21-34.79,26.05-3.91,13.74,1.22,29.62,12.45,38.45,11.23,8.83,27.89,10.06,40.28,2.94,12.39-7.12,19.72-22.16,17.66-36.3-2.21-15.13-14.45-31.23-35.52-31.14"/>
  <path class="st1" d="M17.69,40.6c.71,1.52.86,1.97,1.53,3.51,1.62,3.75,3.13,7.54,4.72,11.3"/>
  <path class="st1" d="M23.09,57.31c-3.04,3.04-4.67,4.52-7.7,7.55"/>
  <path class="st1" d="M17.7,38.55c1.07-2.67,2.22-5.31,3.3-7.98.95-2.35,2.01-4.65,2.85-7.05.16-.45.49-.73.98-.93,5.13-2.11,10.27-4.2,15.37-6.38.31-.13.56-.17.92-.02,5.19,2.11,10.33,4.32,15.53,6.4.47.19.73.49.91.92,1.69,4.16,3.41,8.31,5.15,12.46.47,1.11.84,2.26,1.41,3.33-1.28,3.32-2.68,6.6-4.05,9.88-.94,2.26-1.87,4.53-2.79,6.8-4.86,2.03-9.74,4-14.58,6.07-1.11.47-2.06.91-3.44.24-2.68-1.31-5.5-2.35-8.27-3.48-2.27-.92-3.59-1.26-5.93-2.13"/>
  <path class="st1" d="M5.55,39.46c3.96,0,6.78-.02,10.74.02"/>
  <path class="st1" d="M77,39.46c-3.96,0-7.41.02-11.36-.02"/>
  <path class="st1" d="M57.91,56.56c2.8,2.85,5.64,5.66,8.46,8.48"/>
  <path class="st1" d="M40.71,3.09v12.87"/>
  <path class="st1" d="M40.71,63.41v9.53"/>
  <path class="st1" d="M66.37,13.8c-3.02,3.02-6.04,6.04-9.05,9.05"/>
  <path class="st1" d="M15.85,14.61c3.02,3.02,5.31,5.23,8.33,8.24"/>
</svg>