<?xml version="1.0" encoding="UTF-8"?>
<svg id="_レイヤー_1" xmlns="http://www.w3.org/2000/svg" version="1.1" viewBox="0 0 80 90">
  <!-- Generator: Adobe Illustrator 30.0.0, SVG Export Plug-In . SVG Version: 2.1.1 Build 123)  -->
  <defs>
    <style>
      .st0 {
        fill: none;
      }

      .st1 {
        fill: #ceb372;
      }

      .st2 {
        fill: #fff;
      }
    </style>
  </defs>
  <path class="st2" d="M60.93,36.17c2.45,6.29,3.27,9.17,3.49,14.57.34,8.55.01,17.83-5.1,25.08-4.16,5.9-11.16,9.7-18.37,9.97-7.21.27-14.48-3-19.06-8.57-5.53-6.73-6.92-16.04-6.23-24.72,1.41-17.71,10.52-34.12,22.51-47.23.61-.67,1.42-1.39,2.3-1.18.47.11.84.48,1.17.84,3.62,3.84,3.26,2.77,11.13,14.09,3.46,4.97,4.29,7.28,4.71,8.13,1.24,2.55,2.12,4.78,2.74,6.48"/>
  <g>
    <path class="st1" d="M18.26,71.05s2.14,4.65,4.37,6.97,7.81,5.76,9.67,6.51,7.25,1.3,7.25,1.3v-8.55l-11.52-8.43c-.61-.44-1.39-.57-2.11-.33l-7.66,2.53Z"/>
    <g>
      <path class="st1" d="M39.09,78.57c0,.22.17.17.17.38s-.15.34-.15.56.07.22.07.43-.15.22-.15.44.13.27.13.48.31.15.31.36-.33.25-.33.46.09.27.09.48-.23.14-.23.35.22.22.22.43-.03.22-.03.43-.16.23-.16.44.24.25.24.46-.21.42-.21.43h1s-.1-.28-.1-.49.12-.21.12-.43-.14-.22-.14-.43.17-.21.17-.43-.29-.15-.29-.36.1-.28.1-.5.08-.19.08-.4-.12-.24-.12-.45.21-.22.21-.43-.22-.21-.22-.42.07-.21.07-.43.09-.21.09-.43-.25-.19-.25-.41.2-.24.2-.45-.1-.21-.1-.43.17-.27.17-.43h-1c0,.16.13.14.13.36s-.08.21-.08.43Z"/>
      <path class="st1" d="M34.77,74.34c.14.11.21-.05.36.05.14.11.14.29.28.4.14.11.18.05.33.16.14.11.06.23.2.34.14.11.25.03.4.13.14.11.28-.17.42-.07.14.1-.03.39.11.49.14.1.23.06.38.16.14.11-.04.25.1.36.14.11.27-.07.42.04.14.11.13.13.27.23.14.11.06.24.2.35.14.11.31-.07.45.03.14.11.15.38.16.38l.59-.81s-.25-.05-.39-.16c-.14-.1-.07-.21-.21-.31-.14-.11-.23,0-.37-.1-.14-.1-.04-.24-.19-.34-.14-.1-.27.16-.41.05-.14-.1-.13-.22-.27-.32-.14-.1-.08-.15-.22-.26-.14-.1-.23-.02-.37-.12-.14-.1-.02-.28-.16-.38-.14-.1-.27.07-.41-.03-.14-.1-.1-.16-.24-.27-.14-.1-.09-.18-.23-.29-.14-.1-.28.11-.42,0-.14-.1-.04-.28-.18-.38-.14-.1-.2-.03-.34-.13-.14-.1-.08-.27-.19-.35l-.59.81c.11.08.17-.04.32.07.14.11.1.17.24.27Z"/>
      <path class="st1" d="M30.14,70.95c.14.11.21-.05.36.05.14.11.14.29.28.4.14.11.18.05.33.16.14.11.06.23.2.34.14.11.25.03.4.13.14.11.28-.17.42-.07.14.1-.03.39.11.49.14.1.23.06.38.16.14.11-.04.25.1.36.14.11.27-.07.42.04.14.11.13.13.27.23.14.11.06.24.2.35.14.11.31-.07.45.03.14.11.15.38.16.38l.59-.81s-.25-.05-.39-.16c-.14-.1-.07-.21-.21-.31-.14-.11-.23,0-.37-.1-.14-.1-.04-.24-.19-.34-.14-.1-.27.16-.41.05-.14-.1-.13-.22-.27-.32-.14-.1-.08-.15-.22-.26-.14-.1-.23-.02-.37-.12-.14-.1-.02-.28-.16-.38-.14-.1-.27.07-.41-.03-.14-.1-.1-.16-.24-.27-.14-.1-.09-.18-.23-.29-.14-.1-.28.11-.42,0-.14-.1-.04-.28-.18-.38-.14-.1-.2-.03-.34-.13-.14-.1-.08-.27-.19-.35l-.59.81c.11.08.17-.04.32.07.14.11.1.17.24.27Z"/>
      <path class="st1" d="M25.52,69.12c.17-.06.08-.21.25-.26.17-.06.32.05.45.02.14-.03.13-.1.28-.11.15,0,.16.15.29.15.14.01.19-.11.34-.07.14.04.19-.27.35-.21.16.07.03.38.16.45.12.07.2.02.35.13.14.11-.04.25.1.36.14.11.27-.07.42.04.14.11.13.13.27.23.14.11.06.24.2.35.14.11.31-.07.45.03.14.11.15.38.16.38l.59-.81s-.25-.05-.39-.16c-.14-.1-.07-.21-.21-.31-.14-.11-.23,0-.37-.1-.14-.1-.04-.24-.19-.34-.14-.1-.27.16-.41.05-.14-.1-.13-.22-.27-.32-.14-.1-.09-.16-.26-.27-.18-.11-.26,0-.44-.09-.19-.07-.13-.27-.34-.33-.22-.04-.24.17-.44.15-.2-.01-.2-.08-.41-.07-.2.02-.22-.07-.43-.03-.21.05-.12.3-.28.35-.17.06-.25-.13-.42-.08-.17.06-.14.15-.31.2-.17.06-.26-.09-.39-.05l.31.95c.13-.04.07-.16.24-.22.17-.06.19.02.36-.04Z"/>
      <path class="st1" d="M20.08,70.92c.17-.06.08-.21.25-.26.17-.06.32.06.49,0,.17-.06.15-.12.32-.18.17-.06.22.09.39.03.17-.06.17-.19.34-.25.17-.06.02-.33.19-.39.17-.06.3.25.47.2.17-.06.18-.16.35-.21.17-.06.18.18.35.13.17-.06.1-.26.27-.32.17-.06.18-.03.35-.09.17-.06.23.1.4.04.17-.06.12-.29.29-.35.17-.06.39.1.4.09l-.31-.95s-.19.17-.35.23c-.17.06-.21-.06-.38,0-.17.06-.13.19-.29.24-.17.06-.22-.1-.39-.05-.17.06-.03.31-.2.37-.17.06-.25-.02-.42.03-.17.06-.17-.02-.34.03-.17.06-.15.18-.32.23-.17.06-.24-.15-.41-.09-.17.06-.1.26-.26.32-.17.06-.19-.01-.36.04-.17.06-.2-.03-.37.02-.17.06-.07.29-.24.35-.17.06-.25-.13-.42-.08-.17.06-.14.15-.31.2-.17.06-.26-.09-.39-.05l.31.95c.13-.04.07-.16.24-.22.17-.06.19.02.36-.04Z"/>
      <path class="st1" d="M21.97,76.55c-.11-.15-.23-.02-.34-.17-.11-.16-.05-.34-.16-.5-.11-.16-.17-.12-.27-.28-.11-.16.02-.25-.08-.41-.11-.16-.24-.13-.34-.29-.1-.16-.33.05-.43-.12-.1-.17.17-.36.07-.53-.1-.17-.2-.16-.3-.33-.1-.17.14-.22.04-.39-.1-.17-.29-.06-.38-.23-.09-.17-.07-.18-.16-.35-.09-.17.05-.26-.04-.43-.09-.17-.32-.08-.41-.25-.09-.17.02-.43.02-.44l-.89.45s.21.18.3.35c.09.17-.02.23.07.41.09.17.22.11.31.28.09.17-.05.25.04.42.1.17.32-.02.41.15.1.17.04.27.14.44.1.17.02.19.12.36.1.17.22.13.32.3.1.17-.08.28.03.45.11.17.28.05.39.21.11.16.05.2.16.37.11.17.03.22.14.38.11.16.31,0,.42.16.11.16-.04.29.08.45.12.16.2.1.32.26.13.15.02.3.12.42l.77-.64c-.09-.11-.18-.01-.3-.16-.12-.15-.05-.2-.17-.35Z"/>
      <path class="st1" d="M26.53,80.61c-.16-.11-.22.05-.38-.06-.16-.11-.16-.3-.32-.42-.16-.11-.2-.06-.35-.17-.15-.12-.07-.24-.22-.36-.15-.11-.27-.04-.42-.16-.15-.12-.29.16-.45.04-.15-.12.03-.4-.11-.52-.15-.12-.24-.08-.39-.2-.15-.12.06-.26-.08-.38-.14-.13-.29.03-.43-.09-.14-.13-.12-.15-.25-.28-.13-.13-.03-.25-.16-.39-.12-.14-.32,0-.45-.14-.13-.14-.07-.42-.08-.43l-.77.64s.24.14.38.28c.13.15.04.23.18.38.14.15.24.05.39.19.14.14.02.26.17.4.15.13.3-.12.44.01.15.13.13.25.28.37.15.13.08.17.24.3.15.13.25.05.4.17.15.12.03.29.18.41.16.12.28-.05.44.06.16.12.11.18.27.29.16.12.1.2.26.31.16.11.29-.1.45.01.16.11.06.29.22.4.16.11.22.03.38.14.16.11.11.28.23.36l.56-.83c-.12-.08-.18.04-.34-.07-.16-.11-.11-.17-.27-.28Z"/>
      <path class="st1" d="M31.83,83.83c-.17-.08-.21.09-.38,0-.17-.09-.2-.28-.37-.37-.17-.09-.2-.03-.37-.13-.17-.09-.1-.23-.26-.32-.17-.1-.27,0-.44-.1-.17-.1-.27.2-.44.1-.17-.1-.02-.4-.18-.5-.17-.1-.25-.04-.42-.15-.16-.1.02-.26-.15-.36-.16-.1-.28.08-.45-.02-.16-.1-.15-.13-.31-.23-.16-.1-.08-.25-.24-.35-.16-.11-.32.08-.48-.03-.16-.11-.19-.38-.2-.39l-.56.83s.27.05.43.16c.16.11.09.21.26.32.16.11.24,0,.41.1.16.11.07.24.24.35.16.11.27-.17.43-.07.17.1.17.22.33.32.17.1.11.16.27.26.17.1.25,0,.42.11.17.1.06.29.23.38.17.1.28-.09.45,0,.17.1.14.16.31.25.17.1.13.18.3.27.18.09.28-.14.45-.05.17.09.1.28.28.37.18.09.22,0,.4.09.18.08.16.26.31.32l.37-.93c-.12-.05-.16.07-.33,0-.17-.07-.14-.15-.31-.23Z"/>
      <path class="st1" d="M37.79,85.17c-.19-.03-.17.15-.37.12-.19-.03-.28-.2-.48-.22-.19-.03-.2.04-.39.01-.19-.03-.17-.18-.36-.21-.19-.03-.26.09-.45.06-.19-.03-.18.28-.37.25-.19-.03-.16-.37-.35-.4-.19-.03-.25.05-.44.01-.19-.04-.08-.25-.26-.29-.19-.04-.23.17-.42.13-.19-.04-.18-.07-.37-.11-.18-.05-.16-.2-.33-.25-.18-.05-.27.17-.45.12-.18-.06-.26-.32-.27-.32l-.37.93s.29,0,.49.06c.19.06.16.18.35.23.2.05.23-.08.42-.04.19.05.15.21.35.25.19.04.2-.25.39-.21.19.04.23.15.43.19.19.04.16.11.35.14.19.03.24-.08.43-.05.19.03.16.24.36.27.19.03.22-.18.42-.15.19.03.18.1.38.13.19.03.18.12.37.15.19.03.21-.23.4-.2.19.03.18.23.38.26.19.03.21-.07.4-.05.19.02.22.2.37.22l.12-.99c-.14-.02-.14.12-.33.09-.19-.02-.18-.1-.37-.13Z"/>
      <g>
        <path class="st1" d="M39.48,76.7h.01s.01.02.01.02l.03.02.03.02h.01s0,.03,0,.03h0s0,.02,0,.02v.02s-.02.05-.02.05l-.02.05v.02s0,.02,0,.02h0s0,.02,0,.02h0s0,.01,0,.01l.03.02h.02s.01.02.01.02h0s0,.01,0,.01h0s0,.02,0,.02v.04s-.02.04-.02.04c0,.03-.01.06-.02.09v.02s0,0,0,0h0s0,.03,0,.03v.02s.01.04.01.04v.02s.01,0,.01,0h0s.02.02.02.02h.02s.06.02.06.02h.05s.02.02.02.02h0s0,.01,0,.01l.03.03.02.03s.03.04.04.06h0s0,.01,0,.01h0s0,.01,0,.01h0s0,.02,0,.02l-.02.02h0s0,.01,0,.01h0s0,.01,0,.01h0s0,.01,0,.01h.02s.05.04.05.04l.05.03h0s0,.02,0,.02h0s0,.02,0,.02h-1,0s0-.01,0-.01h0s0-.02,0-.02h0s0,0,0,0h0s0,0,0,0h0s.02-.03.02-.03h.01s0-.02,0-.02h0s0-.01,0-.01h0s0-.02,0-.02h0s-.02-.04-.04-.07l-.02-.03h0s0-.01,0-.01h0s0,0,0,0h0s0,0,0,0h0s0-.02,0-.02v-.03s0-.02,0-.02h0s0-.02,0-.02c0,0,0-.01,0-.01l-.02-.02h0s0-.01,0-.01h0s0-.01,0-.01h0s0,0,0,0h0s-.01,0-.01,0h-.02s-.03.01-.03.01h-.01s0,0,0,0h0s0-.01,0-.01h-.01s-.02-.02-.02-.02l.15-.2.15-.2.3-.4h0s0,.02,0,.02v.03s.02.04.02.04v.02s.01.01.01.01Z"/>
        <polygon class="st0" points="38.54 77.78 40.54 77.78 40.54 76.77 39.72 76.17 38.54 77.78"/>
      </g>
      <g>
        <path class="st1" d="M18.25,72.03v-.03s-.03-.03-.03-.03l-.04-.06-.03-.06v-.03s-.02-.03-.02-.03v-.02s0-.02,0-.02v-.03s.02-.03.02-.03l.02-.03.03-.06v-.03s.01-.02.01-.02v-.02s0-.02,0-.02v-.02s-.02-.03-.02-.03l-.04-.07-.02-.03-.02-.03v-.03s-.01-.02-.01-.02v-.02s0-.03,0-.03v-.03s.03-.05.03-.05l.02-.05.02-.05h0s0-.03,0-.03l.03-.02.07-.04.07-.03.03-.02h.01s.01-.02.01-.02h0s0-.03,0-.03v-.03s.02-.06.02-.06v-.03s.01-.03.01-.03v-.03s.02-.01.02-.01h.01s.05-.06.05-.06l.06-.05s.08-.06.12-.08h.01s.01-.01.01-.01h.03s.03,0,.03,0h.03s.05,0,.05,0h.03s.03-.01.03-.01h.01s.01-.02.01-.02l.02-.03.04-.07.02-.04.02-.03h.01s.01-.03.01-.03h.02s.02-.02.02-.02l.16.47.08.24.08.24h-.03s-.02,0-.02,0h-.02s0,0,0,0h0s0,0,0,0h-.01s-.02,0-.02,0h-.05s-.03-.01-.03-.01h-.03s-.02,0-.02,0h-.02s-.02.02-.02.02h-.02s-.07.06-.11.09l-.06.05h-.01s0,.02,0,.02h0s0,0,0,0h0s0,0,0,0c0-.01,0-.01,0-.02h0s0,0,0,0h0s-.01.02-.01.02v.02s-.01.02-.01.02v.02s0,.02,0,.02v.03s.02.03.02.03l.02.05v.02s.01.02.01.02h0s0,.02,0,.02h0s0,.02,0,.02h.02s.02.03.02.03l.04.03.02.02h0s0,.02,0,.02v.02s.02.03.02.03c.01.02.02.04.03.05l-.22.11-.22.11-.45.23v-.03s-.02-.03-.02-.03v-.07s-.02-.07-.02-.07v-.03s-.02-.03-.02-.03Z"/>
        <path class="st0" d="M19.62,71.64l-.62-1.89-2.12.7.47,1.02.51,1.04.89-.45.45-.23.22-.11.11-.06.06-.03h.03s.01-.02.01-.02h0s0,0,0,0h0s0,0,0,0h0s-.01.03-.02.04Z"/>
      </g>
      <g>
        <path class="st1" d="M39.97,84.97v.03s0,.03,0,.03v.07s0,.07,0,.07v.03s0,.03,0,.03h0s0,.03,0,.03l-.02.02-.02.02-.03.02-.05.04-.02.02h0s0,.03,0,.03h0s0,.03,0,.03v.04s0,.08,0,.08v.04s0,.04,0,.04v.03s-.01.02-.01.02h0s-.02.04-.02.04l-.02.02-.04.03-.04.03-.04.04h-.01s-.01.02-.01.02h-.03s-.08.01-.08.01h-.08s-.04,0-.04,0h-.02s-.01.01-.01.01h-.01s-.01.02-.01.02l-.02.02-.04.05-.02.03-.02.02-.02.02h-.01s-.01.01-.01.01l-.07.02-.07.02c-.05,0-.1.02-.14.02,0,0-.02,0-.02,0,0,0-.01,0-.01,0h-.03s-.02-.01-.02-.01h-.02s-.05-.04-.05-.04h-.03s-.03-.01-.03-.01h-.02s-.02,0-.02,0l-.03.02-.07.04-.03.02-.03.02h-.02s-.02.01-.02.01h-.02s-.02,0-.02,0l.06-.5.03-.25.03-.25h.03s.02.01.02.01h.02s0,0,0,0h.01s.01,0,.01,0h0s.02.01.02.01l.04.03h.02s.03.02.03.02h.02s.02,0,.02,0h.02s.02,0,.02,0c.03,0,.08-.02.13-.03.03,0,.05-.01.07-.02h.02s0,0,0,0h0s0,0,0,0h0s0,0,0,0c0,0,0,0,0,0h0s0,0,0,0h0s.02-.02.02-.02h.01s.01-.03.01-.03v-.02s.02-.02.02-.02v-.03s.01-.03.01-.03v-.06s0-.02,0-.02v-.02s0,0,0,0h0s0-.02,0-.02h0s0-.03,0-.03v-.02s-.04-.04-.04-.04v-.02s0-.01,0-.01h0s0-.03,0-.03v-.03s0-.04,0-.06h1v.03s0,.03,0,.03l-.02.06-.02.06v.03s-.02.03-.02.03Z"/>
        <path class="st0" d="M38.54,84.72s.01,0,.02-.01h0s0,0,0,0h0s0,0,0,0h0s0,.02,0,.02v.03s-.01.06-.01.06l-.02.12-.03.25-.06.5-.12.99,2.22.24v-2.22h-2Z"/>
      </g>
    </g>
  </g>
  <path class="st1" d="M52.61,38.61v27.53l9.86,3.2s1.79-5.63,2.05-8.71c.26-3.07-.64-15.62-.64-15.62l-2.95-9.22-8.32,2.82Z"/>
  <g>
    <path d="M61.92,36.31c-.13-.11-.31-.18-.48-.21-.17-.03-.34,0-.51.07-.17.07-.3.18-.41.31-.11.13-.22.29-.25.46-.03.16.01.35.08.51l1.87-.72c-.06-.17-.17-.32-.3-.42Z"/>
    <path d="M65.01,47.01c-.05-.37-.38-.25-.43-.62-.05-.37.21-.63.15-1.01-.07-.37-.21-.35-.28-.71-.07-.37.22-.44.13-.81-.08-.37-.36-.39-.46-.76-.1-.36-.65-.09-.76-.44-.1-.35.53-.59.42-.95-.11-.36-.31-.39-.43-.74-.12-.35.37-.37.25-.73-.12-.36-.53-.22-.66-.57-.12-.35-.07-.37-.2-.71-.13-.35.17-.48.05-.82-.13-.35-.6-.22-.73-.57-.13-.34.15-.82.14-.84l-1.87.72s.36.37.49.7c.13.34-.1.43.02.76.12.34.38.25.51.59.12.34-.19.45-.07.79.12.34.63.05.74.39.11.34-.04.51.07.85.11.34-.05.35.05.69.11.34.34.31.44.66.1.35-.31.47-.22.81.09.34.51.23.59.58.08.35-.05.38.01.73.07.35-.11.38-.05.73.06.35.56.23.62.58.05.36-.35.45-.3.8.04.35.23.33.28.69.04.36-.29.48-.27.74l1.99-.18c-.03-.28-.28-.22-.32-.59-.04-.37.11-.39.07-.76Z"/>
    <path d="M65.3,58.95c.02-.37-.33-.31-.31-.68.02-.37.33-.57.35-.95,0-.37-.13-.37-.12-.74,0-.37.31-.37.32-.75,0-.37-.26-.46-.26-.83,0-.37-.61-.25-.61-.62,0-.37.67-.43.66-.8,0-.37-.19-.45-.2-.82,0-.37.46-.25.45-.62-.01-.37-.45-.36-.46-.73-.01-.37.04-.37.03-.74-.02-.37.31-.41.29-.78-.02-.37-.51-.4-.53-.77-.02-.37.37-.75.37-.77l-1.99.18s.25.44.27.8c.02.36-.22.37-.21.73.02.36.29.35.31.71.01.36-.32.37-.31.73.01.36.58.23.6.6.01.36-.19.48-.18.84,0,.36-.15.32-.14.68,0,.36.25.4.25.76,0,.36-.43.37-.42.73,0,.36.44.35.43.72,0,.36-.15.36-.16.72,0,.36-.19.36-.2.72-.01.36.49.34.48.7-.02.36-.42.38-.44.74-.02.36.17.37.15.73-.03.36-.37.42-.39.69l1.99.16c.02-.28-.25-.26-.22-.63.03-.37.18-.36.21-.73Z"/>
    <path d="M63,70.74c.14-.35-.2-.39-.08-.75.12-.35.48-.46.6-.82.12-.36,0-.4.09-.76.1-.36.4-.29.5-.65.1-.37-.12-.51-.04-.88.08-.37-.54-.39-.46-.75.08-.36.75-.27.83-.64.07-.37-.1-.49-.03-.86.07-.37.5-.16.57-.53.06-.37-.37-.44-.32-.81.05-.37.1-.36.16-.73.05-.37.37-.35.41-.72.04-.37-.44-.47-.4-.84.04-.37.49-.68.49-.7l-1.99-.16s.17.48.13.84c-.04.36-.28.33-.32.69-.03.36.24.39.19.75-.05.36-.38.3-.43.66-.05.35.54.33.48.69-.06.35-.28.43-.34.78-.06.35-.21.28-.27.63-.08.35.15.44.07.79-.08.35-.5.26-.57.61-.08.34.33.44.24.79-.1.35-.24.31-.33.65-.09.34-.28.29-.39.62-.11.33.38.46.27.8-.12.34-.5.24-.64.57-.13.33.05.4-.08.73-.14.33-.47.28-.58.52l1.83.81c.12-.26-.14-.33,0-.68.14-.35.28-.29.42-.64Z"/>
    <path d="M56.09,80.68c.29-.24,0-.45.28-.7.27-.25.65-.18.93-.44.26-.27.17-.37.43-.64.26-.27.5-.07.75-.35.25-.29.11-.53.36-.82.24-.29-.3-.58-.08-.87.22-.29.78.07,1.01-.24.23-.3.13-.49.33-.8.21-.31.52.05.73-.27.21-.32-.15-.55.04-.88.18-.33.23-.3.42-.63.18-.33.48-.19.67-.53.17-.35-.24-.61-.08-.94.16-.34.7-.48.71-.5l-1.83-.81s0,.5-.16.82c-.15.32-.37.21-.53.52-.17.3.07.44-.1.75-.17.31-.46.14-.63.44-.18.3.36.51.17.81-.2.3-.42.28-.62.58-.19.3-.3.17-.51.45-.21.28-.04.46-.26.74-.21.29-.56.01-.78.28-.22.26.11.54-.12.82-.24.26-.35.16-.59.42-.24.26-.38.12-.62.37-.26.24.12.58-.14.83-.27.24-.56-.03-.82.2-.27.22-.15.37-.42.6-.27.23-.55.02-.76.18l1.22,1.59c.23-.17.04-.35.33-.6.29-.24.39-.12.68-.36Z"/>
    <path d="M45.28,86.12c.37-.09.21-.4.57-.49.36-.09.66.16,1.02.04.36-.11.32-.24.68-.35.36-.11.47.16.83.03.36-.13.35-.41.7-.54.35-.15,0-.67.34-.82.33-.15.66.44,1.01.29.34-.17.34-.38.67-.55.33-.17.43.31.77.12.33-.19.12-.57.45-.76.32-.19.36-.13.67-.34.31-.21.51.06.83-.15.32-.21.09-.63.39-.86.3-.22.84-.09.86-.1l-1.22-1.59s-.24.44-.53.65c-.28.21-.43,0-.72.19-.29.19-.14.42-.44.62-.3.19-.47-.11-.77.07-.3.17.08.62-.23.8-.31.18-.51.04-.82.2-.32.16-.35,0-.66.16-.32.14-.26.38-.59.52-.33.14-.49-.24-.82-.12-.33.12-.16.53-.5.65-.33.12-.38,0-.72.1-.34.1-.39-.08-.73.03-.33.11-.16.59-.51.67-.35.09-.48-.3-.82-.22-.34.09-.3.26-.65.33-.35.07-.49-.25-.75-.2l.32,1.97c.28-.05.2-.3.57-.37.37-.07.4.09.77,0Z"/>
    <path d="M33.17,85.67c.37.11.38-.24.74-.14.36.11.5.44.87.53.37.08.4-.04.77.03.37.06.33.37.7.43.38.06.5-.17.88-.13.38.04.33-.58.7-.54.36.04.36.71.74.73.38.02.48-.16.85-.14.38.01.23.47.62.47.39,0,.39-.44.76-.44.38,0,.38.03.76.01.38-.03.42.3.81.27.38-.05.38-.53.75-.58.37-.05.79.33.81.32l-.32-1.97s-.42.27-.77.31c-.35.04-.38-.2-.72-.16-.35.02-.33.3-.68.32-.35.02-.36-.3-.71-.3-.35,0-.23.58-.59.58-.36,0-.47-.19-.82-.21-.35-.02-.3-.17-.65-.19-.35-.02-.41.22-.76.18-.35-.04-.31-.46-.66-.5-.35-.04-.4.38-.75.33-.35-.06-.32-.2-.67-.26-.35-.07-.31-.26-.65-.34-.34-.08-.43.42-.78.34-.35-.1-.27-.5-.61-.6-.34-.1-.4.09-.73-.02-.34-.12-.31-.47-.56-.55l-.68,1.88c.27.1.32-.17.68-.04.36.13.31.26.67.37Z"/>
    <path d="M22.76,79.5c.27.27.44-.02.72.23.28.25.23.63.52.88.28.26.38.14.67.38.29.24.11.48.41.72.3.23.54.07.84.29.31.22.56-.35.86-.14.31.2,0,.78.31.99.32.2.49.1.82.28.33.18-.02.52.32.71.34.18.54-.19.88-.03.34.16.31.21.65.38.34.16.22.47.58.62.35.15.59-.28.93-.13.34.15.53.65.55.66l.68-1.88s-.5.05-.83-.09c-.33-.14-.23-.37-.55-.5-.32-.13-.44.11-.76-.04-.32-.15-.17-.45-.48-.6-.31-.15-.48.4-.8.23-.31-.17-.31-.4-.62-.57-.3-.18-.19-.3-.48-.48-.3-.19-.46,0-.76-.2-.29-.21-.05-.56-.34-.76-.28-.2-.54.16-.82-.06-.28-.22-.19-.34-.46-.56-.27-.22-.16-.36-.42-.6-.26-.23-.57.17-.84-.07-.27-.24-.01-.56-.26-.81-.25-.25-.38-.11-.63-.37-.25-.25-.05-.55-.23-.75l-1.49,1.33c.19.21.35.02.61.29.27.27.15.37.42.65Z"/>
    <path d="M16.5,69.15c.13.36.42.17.55.52.13.35-.1.67.05,1.02.15.35.27.3.42.64.15.35-.13.48.02.83.17.34.44.31.61.65.17.34.66-.04.82.29.16.33-.38.69-.2,1.02.19.33.39.31.58.64.19.33-.27.45-.06.77.21.32.58.08.79.4.21.31.15.35.39.65.23.3-.02.51.21.82.24.3.63.05.88.33.24.28.15.83.17.85l1.49-1.33s-.45-.2-.69-.47c-.22-.28-.02-.43-.23-.71-.21-.28-.43-.11-.65-.39-.22-.28.07-.48-.13-.76-.19-.29-.61.12-.81-.18-.2-.3-.1-.49-.27-.8-.18-.31-.02-.35-.2-.65-.17-.31-.42-.22-.58-.54-.16-.32.22-.52.06-.83-.15-.31-.55-.12-.7-.44-.14-.33,0-.39-.15-.71-.14-.33.04-.4-.1-.72-.13-.33-.59-.12-.71-.45-.12-.34.25-.51.13-.84-.12-.33-.3-.28-.4-.62-.1-.34.19-.52.12-.78l-1.92.56c.08.27.32.16.43.52.11.36-.05.4.08.76Z"/>
    <path d="M14.61,57.28c0,.37.35.29.36.66.01.37-.29.6-.27.97.01.37.16.37.18.74.03.37-.28.4-.25.78.03.37.29.44.34.81.04.37.64.19.68.56.04.36-.62.5-.57.87.06.37.25.43.31.8.06.37-.42.31-.36.68.07.37.5.3.57.66.07.37.02.38.09.74.07.37-.23.46-.14.82.09.37.57.3.66.66.08.36-.22.81-.21.83l1.92-.56s-.34-.38-.42-.73c-.09-.35.16-.41.07-.75-.08-.34-.36-.28-.43-.63-.07-.35.26-.41.19-.76-.07-.35-.61-.14-.68-.49-.06-.35.12-.5.07-.85-.05-.35.1-.33.05-.69-.05-.35-.29-.36-.33-.72-.04-.36.38-.41.34-.77-.04-.35-.47-.31-.5-.67-.03-.36.12-.37.09-.73-.02-.36.16-.37.15-.73-.01-.36-.52-.3-.53-.66-.01-.36.39-.41.38-.77,0-.36-.19-.36-.19-.72,0-.36.34-.45.34-.72l-2-.03c0,.28.26.25.26.62,0,.37-.15.37-.15.74Z"/>
    <path d="M15.74,45.38c-.08.36.27.35.21.71-.06.36-.4.53-.46.89-.06.37.07.39.01.75-.06.37-.36.33-.42.7-.05.37.17.49.14.86-.04.37.58.33.54.7-.04.36-.71.34-.75.71-.04.37.14.48.1.84-.04.37-.49.19-.53.56-.04.37.4.41.37.78-.02.37-.08.37-.1.74-.02.37-.35.37-.37.75-.01.37.47.44.46.81-.01.37-.45.71-.45.73l2,.03s-.2-.47-.19-.83c.01-.36.26-.35.27-.71,0-.36-.26-.37-.24-.73.02-.36.35-.33.38-.69.03-.36-.56-.29-.53-.65.04-.36.25-.46.29-.81.04-.36.19-.3.22-.66.04-.36-.2-.43-.16-.79.04-.36.46-.31.5-.67.05-.36-.38-.41-.32-.76.06-.36.2-.34.26-.69.06-.36.24-.33.3-.68.06-.36-.45-.41-.39-.77.06-.36.46-.32.53-.67.08-.35-.11-.39-.04-.74.08-.35.42-.37.48-.64l-1.96-.42c-.06.27.21.29.13.65-.08.36-.23.33-.31.69Z"/>
    <path d="M19.03,33.92c-.13.35.22.39.09.74-.13.35-.49.44-.62.79-.13.35,0,.39-.13.74-.11.35-.41.26-.52.62-.11.35.11.52,0,.87-.11.35.51.43.39.78-.11.35-.77.21-.88.56-.12.35.05.49-.05.85-.1.36-.51.1-.6.46-.1.36.32.48.23.84-.1.36-.15.34-.24.7-.09.36-.42.3-.51.66-.08.36.38.52.3.88-.08.36-.57.61-.57.63l1.96.42s-.1-.5-.03-.85c.08-.35.32-.29.39-.65.09-.35-.18-.42-.08-.77.09-.35.41-.26.51-.61.09-.35-.49-.39-.4-.74.09-.35.31-.41.41-.75.09-.35.22-.27.33-.61.11-.34-.11-.45,0-.8.11-.35.52-.22.63-.57.11-.34-.31-.47-.2-.82.11-.34.25-.3.36-.64.12-.34.3-.28.43-.62.13-.34-.37-.48-.24-.82.13-.34.52-.23.65-.57.13-.34-.06-.41.07-.75.13-.34.47-.3.58-.55l-1.86-.74c-.11.26.15.32.02.67-.13.35-.27.29-.4.64Z"/>
    <path d="M24.08,23.13c-.18.32.15.42-.03.74-.18.32-.54.37-.72.7-.17.33-.05.39-.22.72-.17.33-.45.19-.62.52-.17.33.02.52-.15.85-.17.33.44.5.28.83-.16.33-.78.09-.94.42-.16.33-.03.49-.19.83-.16.33-.52.02-.68.36-.16.34.23.52.08.86-.14.34-.19.32-.34.66-.14.34-.45.23-.59.57-.14.34.28.58.14.91-.14.34-.67.5-.68.52l1.86.74s-.01-.51.13-.84c.14-.33.37-.24.51-.57.14-.33-.11-.44.03-.78.14-.33.44-.19.58-.53.15-.33-.42-.46-.26-.79.15-.33.38-.35.54-.67.15-.33.27-.22.43-.55.15-.33-.05-.47.11-.8.16-.33.54-.15.71-.47.17-.32-.23-.51-.06-.83.17-.32.3-.25.46-.58.17-.32.33-.23.5-.55.17-.32-.3-.53-.13-.85.17-.32.55-.15.73-.47.18-.31.01-.41.19-.72.18-.31.52-.22.65-.46l-1.73-1c-.14.24.11.34-.08.66-.18.32-.32.24-.5.56Z"/>
    <path d="M30.54,13.14c-.22.3.1.44-.11.73-.22.3-.59.29-.81.59-.22.3-.11.38-.32.68-.22.3-.47.14-.68.44-.21.31-.04.53-.25.83-.21.31.36.55.16.86-.2.3-.79-.02-1,.28-.2.31-.11.48-.3.79-.2.31-.52-.05-.71.27-.2.31.17.55-.03.87-.2.31-.24.28-.44.6-.19.31-.48.16-.68.47-.2.31.2.61.01.93-.18.32-.72.4-.74.42l1.73,1s.05-.51.23-.82c.18-.31.39-.19.58-.49.19-.31-.04-.45.15-.76.19-.31.47-.13.66-.43.19-.31-.35-.52-.16-.83.19-.31.42-.3.61-.6.19-.3.3-.18.5-.48.2-.3.02-.47.23-.77.2-.3.56-.07.76-.37.2-.3-.16-.54.04-.84.21-.3.32-.22.53-.51.21-.29.37-.18.58-.48.21-.29-.22-.56,0-.86.21-.29.56-.08.78-.38.21-.29.06-.41.27-.7.21-.3.54-.16.71-.37l-1.59-1.21c-.17.22.06.35-.16.64-.22.3-.34.2-.56.5Z"/>
    <path d="M38.26,3.94c-.35.3-.03.48-.31.76-.27.28-.63.23-.88.51-.25.28-.14.37-.39.64-.24.28-.48.08-.73.36-.25.28-.11.51-.35.79-.24.28.29.59.06.87-.23.28-.78-.11-1.01.17-.24.28-.15.47-.39.75-.24.28-.51-.11-.75.17-.24.28.1.56-.14.85-.23.29-.27.26-.5.55-.23.29-.49.1-.72.4-.23.29.12.63-.1.92-.23.29-.78.3-.79.32l1.59,1.21s.12-.5.35-.78c.22-.29.42-.13.64-.42.22-.29,0-.46.23-.75.22-.28.47-.08.7-.36.23-.28-.29-.56-.05-.83.23-.28.46-.24.69-.52.23-.28.32-.15.55-.43.23-.28.07-.47.31-.75.23-.28.57,0,.8-.28.24-.27-.1-.55.15-.82.24-.27.35-.18.59-.45.24-.27.38-.15.62-.42.24-.27-.16-.59.08-.86.24-.25.55,0,.78-.2.19-.16.06-.31.28-.44.23-.12.35.22.47.21l-.07-2.06c-.4.05-.32.29-.78.47-.44.22-.51.09-.94.41Z"/>
    <path d="M48,10.78c-.22-.3-.45-.03-.67-.32-.22-.29-.11-.65-.34-.95-.23-.29-.34-.21-.57-.5-.23-.29,0-.49-.25-.78-.24-.29-.5-.19-.75-.47-.25-.28-.63.22-.88-.05-.25-.27.2-.76-.06-1.03-.26-.27-.45-.2-.71-.46-.26-.26.17-.49-.09-.75-.25-.26-.57.04-.82-.22-.25-.26-.21-.3-.46-.56-.13-.13-.13-.26-.14-.38,0-.12-.03-.27-.24-.47-.43-.37-.73.01-1.13-.19-.09-.04-.17-.08-.25-.13-.31-.2-.64-.44-.67-.44l.07,2.06s.13-.13.29-.15c.06,0,.13,0,.19.03.19.12.06.35.18.46.05.05.17.08.28.09.11.02.23.04.36.17.25.27,0,.49.27.76.26.26.59-.22.85.05.25.26.2.48.45.74.25.26.12.34.36.59.25.26.45.12.7.38.24.26-.07.56.17.82.23.26.56-.03.79.25.23.27.12.37.34.64.23.28.08.39.3.68.22.28.6-.06.82.23.22.29-.08.57.13.85.22.29.37.17.59.47.22.29,0,.56.16.78l1.61-1.18c-.16-.22-.35-.04-.57-.34-.22-.3-.09-.39-.31-.68Z"/>
    <path d="M54.82,20.47c-.2-.31-.44-.06-.65-.36-.2-.31-.07-.66-.28-.97-.21-.31-.32-.23-.53-.53-.21-.3.04-.48-.17-.78-.21-.3-.47-.22-.68-.52-.21-.3-.65.14-.86-.16-.21-.3.31-.73.1-1.02-.21-.3-.41-.27-.62-.56-.21-.3.24-.46.03-.76-.21-.3-.57-.05-.78-.35-.21-.3-.17-.33-.38-.63-.21-.3.04-.5-.17-.8-.22-.3-.64-.06-.85-.36-.21-.3-.07-.83-.08-.85l-1.61,1.18s.44.26.66.55c.21.29,0,.44.22.73.21.29.44.14.65.43.21.3-.06.48.15.78.21.3.62-.13.83.17.21.3.11.51.32.8.21.3.06.35.27.65.21.3.43.19.64.49.21.3-.14.55.07.85.21.3.56.04.77.34.21.3.09.38.3.68.2.3.05.41.25.7.2.3.61-.02.81.29.2.3-.12.56.08.86.2.3.36.2.55.5.19.31-.05.56.1.79l1.7-1.05c-.15-.24-.35-.07-.55-.38-.2-.31-.07-.39-.27-.71Z"/>
    <path d="M60.21,31.13c-.14-.35-.42-.14-.56-.48-.14-.34.06-.66-.09-1-.15-.34-.27-.29-.42-.63-.15-.34.13-.47-.03-.81-.16-.34-.43-.31-.59-.64-.16-.34-.66.03-.82-.3-.16-.34.43-.64.28-.98-.15-.34-.36-.34-.52-.68-.16-.34.32-.42.15-.76-.17-.34-.56-.14-.73-.48-.18-.33-.13-.36-.31-.68-.18-.32.09-.5-.1-.83-.19-.32-.63-.13-.82-.44-.19-.32,0-.84-.02-.86l-1.7,1.05s.42.29.61.6c.19.31-.03.43.15.74.18.31.42.18.59.49.17.31-.12.47.04.78.16.31.63-.05.79.27.16.32.03.51.18.83.15.32,0,.35.14.68.15.32.4.3.55.62.16.33-.23.52-.07.84.15.33.55.13.7.46.15.33.02.39.16.72.15.33-.03.41.11.74.14.33.6.1.74.44.14.34-.22.52-.09.86.13.33.31.26.45.6.13.34-.15.54-.06.79l1.87-.71c-.1-.26-.33-.13-.46-.48-.13-.35.01-.4-.13-.74Z"/>
    <path d="M60.64,33.33c.11-.13.16-.31.19-.47.03-.16.03-.34-.03-.51h0s-1.87.71-1.87.71h0c.06.16.16.31.28.42.13.11.31.17.48.2.16.03.35.01.52-.05.17-.06.32-.17.43-.29Z"/>
  </g>
  <g>
    <path d="M60.44,35.59c.05-.09.08-.22.09-.35,0-.12-.03-.26-.08-.4-.05-.13-.13-.25-.21-.34-.09-.1-.19-.2-.29-.23-.1-.03-.21-.02-.3.01l.57,1.5c.09-.03.18-.1.23-.19Z"/>
    <path d="M54.7,37.73c.19-.07.05-.31.25-.38.19-.07.39.12.59.05.19-.07.15-.17.35-.24.19-.07.29.16.48.08.19-.07.16-.28.36-.35.19-.07-.04-.51.15-.58.19-.07.41.42.6.35.19-.07.19-.23.38-.3.19-.07.26.3.45.23.19-.07.07-.4.26-.47.19-.07.21-.03.4-.1.19-.07.3.17.49.1.19-.07.08-.44.27-.51.19-.07.49.18.5.18l-.57-1.5s-.19.25-.38.32c-.19.07-.26-.12-.45-.04-.19.07-.11.28-.31.35-.19.07-.28-.18-.48-.11-.19.07.03.48-.16.55-.19.07-.31-.06-.5.02-.19.07-.21-.05-.4.02-.19.07-.15.26-.34.33-.19.07-.32-.25-.51-.17-.19.07-.06.4-.25.47-.19.07-.23-.04-.43.03-.19.07-.25-.07-.44,0-.19.07-.03.44-.22.52-.19.07-.33-.23-.52-.15-.19.07-.14.22-.33.29-.19.07-.34-.16-.48-.11l.58,1.49c.14-.05.05-.24.24-.31.19-.07.23.04.43-.03Z"/>
    <path d="M53.44,37.87c.09.1.19.15.3.18.1.04.2.05.29.02h0s-.58-1.49-.58-1.49h0c-.09.03-.18.1-.23.19-.05.09-.08.22-.08.35,0,.12.02.27.08.4.05.13.13.26.21.35Z"/>
  </g>
  <g>
    <path d="M54.55,66.05c-.1.04-.21.12-.29.21-.08.09-.15.22-.2.36-.05.14-.06.27-.05.4,0,.13.02.27.08.36.06.09.15.15.25.18l.52-1.51c-.1-.03-.2-.03-.3,0Z"/>
    <path d="M60.48,68.04c-.2-.07-.24.21-.44.14-.2-.07-.24-.34-.43-.41-.2-.07-.23.04-.43-.03-.2-.07-.13-.3-.32-.37-.2-.07-.31.11-.51.05-.2-.07-.29.42-.49.35-.2-.07-.06-.58-.25-.65-.2-.07-.29.06-.49,0-.2-.07,0-.39-.21-.46-.2-.07-.31.26-.51.19-.2-.07-.18-.11-.38-.18-.2-.07-.12-.32-.32-.38-.2-.07-.35.29-.55.22-.2-.07-.27-.45-.28-.46l-.52,1.51s.31-.07.51,0c.2.07.13.26.33.32.2.07.27-.14.47-.07.2.07.11.32.31.38.2.07.29-.39.48-.32.2.07.21.24.41.31.2.07.14.17.33.24.2.07.28-.11.48-.04.2.07.09.39.29.46.2.07.3-.27.5-.2.2.07.16.18.36.24.2.07.15.21.35.28.2.07.31-.33.5-.26.2.07.12.38.31.45.2.07.25-.08.44-.01.2.07.16.34.31.39l.5-1.52c-.15-.05-.19.16-.39.09-.2-.07-.16-.18-.36-.25Z"/>
    <path d="M61.57,68.73c0-.13-.06-.24-.12-.33-.06-.09-.13-.17-.22-.2h0s-.5,1.52-.5,1.52h0c.1.03.2.04.3,0,.1-.04.2-.12.29-.22.08-.1.15-.22.2-.36.04-.14.06-.28.06-.41Z"/>
  </g>
  <g>
    <path d="M35.43,71.32c-.25-.18-.36.07-.61-.11-.25-.18-.25-.49-.5-.68-.25-.18-.31-.1-.56-.28-.25-.18-.11-.39-.36-.57-.25-.18-.43-.06-.68-.25-.25-.18-.46.27-.71.08-.25-.18.03-.64-.22-.82-.25-.18-.4-.11-.65-.29-.25-.18.06-.42-.19-.6-.25-.18-.46.09-.71-.09-.25-.18-.22-.22-.47-.4-.25-.18-.11-.4-.36-.59-.25-.18-.51.1-.76-.08-.25-.18-.28-.63-.29-.64l-.95,1.29s.42.11.67.29c.25.18.13.34.38.53.25.18.38,0,.63.19.25.18.09.39.33.58.25.18.45-.24.7-.06.25.18.23.37.48.55.25.18.15.26.39.44.25.18.39.05.64.23.25.18.05.46.3.65.25.18.45-.1.7.08.25.18.18.28.43.46.25.18.16.31.41.49.25.18.47-.16.71.02.25.18.08.46.33.65.25.18.34.06.59.24.25.18.15.45.34.58l.95-1.29c-.19-.14-.29.05-.54-.14-.25-.18-.17-.28-.42-.47Z"/>
    <path d="M42.74,72.74c-.25.18-.03.36-.28.55-.25.18-.54.09-.79.28-.25.18-.19.27-.44.46-.25.18-.4,0-.65.18-.18.14-.07.31-.25.44-.16.09-.02.62-.31.65-.3-.04-.2-.68-.33-.76-.15-.11-.25,0-.52-.2-.25-.18.05-.42-.19-.6-.25-.18-.46.1-.7-.09-.25-.18-.22-.22-.47-.4-.25-.18-.11-.4-.36-.59-.25-.18-.51.1-.76-.08-.25-.18-.28-.63-.29-.64l-.95,1.29s.42.1.67.29c.25.18.13.34.38.53.25.18.38,0,.63.19.25.18.09.4.34.58.25.18.44-.25.69-.06.25.18.24.37.48.55.25.18.2.3.54.54.37.22.45.06.84.1.38-.03.46.3.86.1.39-.25.24-.6.5-.79.25-.18.32-.09.57-.27.25-.18.34-.06.59-.25.25-.18-.02-.49.23-.68.25-.18.47.06.72-.12.25-.18.16-.31.41-.49.25-.18.47-.01.66-.15l-.95-1.29c-.19.14-.04.29-.29.47-.25.18-.32.08-.57.27Z"/>
    <path d="M50.74,66.81c-.25.18-.03.36-.27.54-.25.19-.54.1-.79.28-.25.18-.18.27-.43.46-.25.18-.4,0-.65.18-.25.18-.19.4-.43.58-.25.18.12.52-.13.71-.25.18-.6-.22-.85-.04-.25.18-.22.35-.47.53-.25.18-.38-.18-.63,0-.25.18-.05.47-.3.65-.25.18-.28.15-.52.33-.25.18-.42-.02-.67.17-.25.18-.06.52-.3.7-.25.18-.68.08-.7.09l.95,1.29s.22-.37.47-.55c.25-.18.37-.02.61-.21.25-.18.12-.36.37-.55.25-.18.4.03.65-.15.25-.18-.1-.5.15-.68.25-.18.42-.11.67-.3.25-.18.29-.06.54-.25.25-.18.16-.36.41-.54.25-.18.46.09.71-.1.25-.18.04-.46.28-.64.25-.18.32-.09.57-.27.25-.19.34-.07.59-.25.25-.19-.02-.49.23-.68.25-.19.47.05.72-.13.25-.19.15-.31.4-.5.25-.19.48-.02.67-.16l-1-1.25c-.18.14-.03.28-.27.47-.25.19-.32.09-.57.27Z"/>
    <path d="M52.08,56.75c0,.3.27.23.27.53,0,.29-.25.47-.25.76,0,.3.11.3.11.59,0,.3-.25.3-.25.6,0,.29.21.37.21.66,0,.3.49.2.49.5,0,.29-.53.34-.53.63,0,.29.15.37.15.66,0,.29-.37.19-.37.48,0,.29.35.3.35.59,0,.29-.04.29-.04.59,0,.29-.26.31-.26.61,0,.29.39.34.39.63,0,.3-.34.57-.34.58h1.6s-.17-.38-.17-.67c0-.29.2-.29.2-.59,0-.29-.22-.3-.22-.59,0-.29.27-.29.27-.58,0-.29-.46-.21-.46-.5,0-.29.16-.39.16-.68,0-.29.12-.26.12-.55,0-.29-.19-.33-.19-.62,0-.29.34-.3.34-.59,0-.29-.35-.29-.35-.58,0-.29.12-.29.12-.59,0-.29.15-.29.15-.59,0-.29-.41-.27-.41-.56,0-.29.33-.32.33-.62,0-.29-.16-.29-.16-.59,0-.29.27-.37.27-.59h-1.6c0,.22.21.19.21.49,0,.3-.12.29-.12.59Z"/>
    <path d="M52.08,47.25c0,.3.27.23.27.53,0,.29-.25.47-.25.76,0,.3.11.3.11.59,0,.3-.25.3-.25.6,0,.29.21.37.21.66,0,.3.49.2.49.5,0,.29-.53.34-.53.63,0,.29.15.37.15.66,0,.29-.37.19-.37.48,0,.29.35.3.35.59,0,.29-.04.29-.04.59,0,.29-.26.31-.26.61,0,.29.39.34.39.63,0,.29-.34.57-.34.59h1.6s-.17-.38-.17-.67c0-.29.2-.29.2-.59,0-.29-.22-.3-.22-.59,0-.29.27-.29.27-.58,0-.29-.46-.21-.46-.5,0-.29.16-.39.16-.68,0-.29.12-.26.12-.55,0-.29-.19-.33-.19-.62,0-.29.34-.3.34-.59,0-.29-.35-.29-.35-.58,0-.29.12-.29.12-.59,0-.29.15-.29.15-.59,0-.29-.41-.27-.41-.56,0-.29.33-.32.33-.62,0-.29-.16-.29-.16-.59,0-.29.27-.37.27-.59h-1.6c0,.22.21.19.21.49,0,.3-.12.29-.12.59Z"/>
    <path d="M52.08,37.94c0,.17.27.06.27.35,0,.29-.25.47-.25.76,0,.3.11.3.11.59,0,.3-.25.3-.25.6,0,.29.21.37.21.66,0,.3.49.2.49.5,0,.29-.53.34-.53.63,0,.29.15.37.15.66,0,.29-.37.19-.37.48,0,.29.35.3.35.59,0,.29-.04.29-.04.59,0,.29-.26.31-.26.6,0,.29.39.34.39.63,0,.29-.34.57-.34.59h1.6s-.17-.38-.17-.67c0-.29.2-.29.2-.59,0-.29-.22-.3-.22-.59,0-.29.27-.29.27-.58,0-.29-.46-.21-.46-.5,0-.29.16-.39.16-.68,0-.29.12-.26.12-.55,0-.29-.19-.33-.19-.62,0-.29.34-.3.34-.59,0-.29-.35-.29-.35-.58,0-.29.12-.29.12-.59,0-.29.15-.29.15-.59,0-.29-.41-.27-.41-.56,0-.15.08-.23.16-.31.08-.1.16-.23.16-.44.03-.22-.13-.27-.19-.35-.09-.07-.17-.14-.26-.3-.15-.27.05-.45-.05-.65l-1.4.78c.11.19.28.07.42.32.12.22,0,.24.08.41Z"/>
    <path d="M47.49,29.88c.15.25.35.06.5.31.15.25.03.53.18.78.15.25.24.2.39.45.15.25-.06.38.09.64.15.25.36.21.51.46.15.25.53-.07.67.18.15.25-.3.56-.15.81.15.25.31.24.45.5.14.26-.23.34-.09.6.14.25.45.09.59.35.14.26.1.28.24.54.14.26-.08.4.06.66.14.26.5.11.64.37.14.26-.02.67-.01.68l1.4-.78s-.33-.25-.47-.51c-.14-.26.04-.35-.1-.61-.14-.26-.33-.15-.47-.41-.14-.26.1-.38-.04-.64-.14-.26-.5.04-.64-.22-.14-.26-.05-.42-.19-.68-.15-.26-.02-.29-.17-.54-.15-.26-.33-.19-.48-.45-.15-.26.14-.43,0-.69-.15-.26-.45-.07-.6-.33-.15-.25-.05-.31-.2-.57-.15-.25-.02-.33-.17-.58-.15-.25-.49-.02-.64-.27-.15-.25.11-.45-.04-.7-.15-.25-.29-.17-.44-.42-.15-.25.04-.45-.08-.64l-1.37.83c.11.19.28.05.43.31.15.25.05.31.2.57Z"/>
    <path d="M42.52,21.8c.15.25.35.06.51.31.15.25.03.53.19.78.15.25.25.2.4.45.15.25-.05.39.1.64.15.25.37.2.52.45.16.25.52-.08.68.17.15.25-.28.57-.12.82.15.25.32.23.47.48.15.25-.22.36-.06.61.15.25.45.07.61.32.15.25.12.27.27.52.15.25-.06.4.09.65.15.25.5.08.66.34.15.25,0,.66.01.68l1.37-.83s-.34-.24-.49-.49c-.15-.25.02-.35-.14-.61-.15-.25-.34-.14-.5-.39-.15-.25.07-.39-.08-.64-.15-.25-.5.07-.65-.18-.15-.25-.07-.41-.22-.66-.15-.25-.03-.28-.19-.53-.15-.25-.34-.18-.49-.43-.15-.25.13-.44-.02-.69-.15-.25-.45-.06-.6-.31-.15-.25-.06-.31-.21-.56-.15-.25-.02-.33-.18-.58-.15-.25-.49-.01-.64-.26-.15-.25.11-.45-.04-.7-.15-.25-.29-.17-.44-.42-.15-.25.04-.45-.07-.64l-1.37.83c.11.19.28.06.43.31.15.25.05.31.2.57Z"/>
    <path d="M38.23,19.94c.15-.26-.12-.34.03-.59.15-.26.45-.28.59-.54.15-.26.06-.33.15-.48.1-.17.27.02.34-.09.07-.11,0-.39.15-.49.16-.07,0-.7.28-.73.29.01.23.74.36.81.14.09.24-.02.34.15.07.13-.06.29-.11.41-.02.05-.02.1,0,.14.09.16.36-.07.51.17.15.25.11.28.26.53.15.25-.07.4.09.66.15.25.5.09.66.34.15.25,0,.67,0,.68l1.37-.83s-.34-.24-.49-.49c-.15-.25.02-.35-.13-.6-.15-.25-.34-.14-.49-.39-.15-.25.08-.38-.07-.63-.18-.3-.52.02-.69-.26-.06-.1-.09-.19-.11-.28-.06-.18-.1-.35-.24-.56-.24-.27-.16-.36-.49-.55-.36-.15-.44.03-.79.02-.35.04-.42-.3-.8-.14-.36.2-.19.54-.41.81-.21.3-.29.22-.49.57-.21.36-.32.26-.47.52-.15.26.22.43.07.69-.15.26-.44.12-.59.37-.15.26-.01.33-.16.59-.15.26-.42.18-.53.38l1.39.79c.11-.19-.09-.27.06-.53.15-.26.25-.19.4-.45Z"/>
    <path d="M33.51,28.18c.15-.26-.12-.33.03-.59.15-.26.45-.28.59-.54.15-.26.05-.31.2-.57.15-.26.36-.14.51-.4.15-.26,0-.42.15-.68.15-.26-.32-.42-.18-.68.15-.26.63-.03.78-.28.15-.26.05-.39.2-.65.15-.26.42.02.56-.24.15-.26-.15-.43,0-.69.15-.26.18-.23.33-.49.15-.26.38-.14.53-.4.15-.26-.17-.48-.02-.74.15-.26.58-.32.59-.34l-1.39-.79s-.05.41-.19.67c-.15.26-.32.15-.46.41-.15.26.05.37-.1.62-.15.26-.37.12-.52.37-.15.25.3.41.15.66-.15.25-.33.26-.48.51-.15.25-.23.16-.38.42-.15.26,0,.38-.14.64-.15.26-.45.09-.59.35-.15.26.16.42.02.68-.15.26-.25.2-.39.45-.15.26-.28.18-.42.44-.15.26.22.43.08.69-.15.26-.44.12-.59.37-.15.26-.01.33-.16.59-.15.26-.42.18-.53.38l1.39.79c.11-.19-.09-.27.06-.53.15-.26.25-.19.4-.45Z"/>
    <path d="M28.76,36.44c.15-.26-.11-.35.03-.6.15-.26.45-.28.59-.53.15-.26.06-.31.21-.57.15-.26.36-.14.51-.39.15-.26,0-.42.15-.68.15-.26-.32-.42-.17-.68.15-.25.63-.02.78-.28.15-.26.06-.39.2-.65.15-.26.42.02.56-.24.15-.26-.15-.43,0-.69.15-.26.18-.23.33-.49.15-.26.38-.14.53-.4.15-.26-.17-.48-.02-.74.15-.26.58-.32.59-.34l-1.39-.79s-.05.41-.19.67c-.15.26-.32.16-.46.41-.15.26.05.37-.1.62-.15.26-.37.12-.52.37-.15.25.3.41.15.66-.15.25-.33.26-.48.51-.15.25-.24.16-.38.41-.15.25,0,.38-.14.63-.15.25-.44.09-.59.34-.15.25.16.43.01.68-.15.25-.25.19-.39.45-.15.25-.28.17-.42.43-.15.25.21.44.07.7-.15.25-.44.11-.58.36-.15.25-.01.34-.16.59-.15.26-.4.15-.55.4l1.4.78c.08-.14-.1-.24.05-.49.15-.26.25-.19.4-.45Z"/>
    <path d="M27.96,45.34c0-.3-.27-.23-.27-.53,0-.29.25-.47.25-.76,0-.3-.11-.3-.11-.59,0-.3.25-.3.25-.6,0-.29-.21-.37-.21-.66,0-.3-.49-.2-.49-.5,0-.29.53-.34.53-.63,0-.29-.15-.37-.15-.66,0-.29.37-.19.37-.48,0-.29-.35-.3-.35-.59,0-.29.04-.29.04-.59,0-.29.26-.29.28-.53.03-.22-.35-.32-.28-.56.08-.25.49-.28.49-.28l-1.4-.78s-.08.5-.17.85c-.08.35-.28.32-.32.68-.02.35.2.37.2.66,0,.29-.27.29-.27.58,0,.29.46.21.46.5,0,.29-.16.39-.16.68,0,.29-.12.26-.12.55,0,.29.19.33.19.62,0,.29-.34.3-.34.59,0,.29.35.29.35.58,0,.29-.12.29-.12.59,0,.29-.15.29-.15.59,0,.29.41.27.41.56,0,.29-.33.32-.33.62,0,.29.16.29.16.59,0,.29-.27.37-.27.59h1.6c0-.22-.21-.19-.21-.49,0-.3.12-.29.12-.59Z"/>
    <path d="M27.96,54.83c0-.3-.27-.23-.27-.53,0-.29.25-.47.25-.76,0-.3-.11-.3-.11-.59,0-.3.25-.3.25-.6,0-.29-.21-.37-.21-.66,0-.3-.49-.2-.49-.5,0-.29.53-.34.53-.63,0-.29-.15-.37-.15-.66,0-.29.37-.19.37-.48,0-.29-.35-.3-.35-.59,0-.29.04-.29.04-.59,0-.29.26-.31.26-.6,0-.29-.39-.34-.39-.63,0-.29.34-.57.34-.59h-1.6s.17.38.17.67c0,.29-.2.29-.2.59,0,.29.22.3.22.59,0,.29-.27.29-.27.58,0,.29.46.21.46.5,0,.29-.16.39-.16.68,0,.29-.12.26-.12.55,0,.29.19.33.19.62,0,.29-.34.3-.34.59,0,.29.35.29.35.58,0,.29-.12.29-.12.59,0,.29-.15.29-.15.59,0,.29.41.27.41.56,0,.29-.33.32-.33.62,0,.29.16.29.16.59,0,.29-.27.37-.27.59h1.6c0-.22-.21-.19-.21-.49,0-.3.12-.29.12-.59Z"/>
    <path d="M27.96,64.33c0-.3-.27-.23-.27-.53,0-.29.25-.47.25-.76,0-.3-.11-.3-.11-.59,0-.3.25-.3.25-.6,0-.29-.21-.37-.21-.66,0-.3-.49-.2-.49-.5,0-.29.53-.34.53-.63,0-.29-.15-.37-.15-.66,0-.29.37-.19.37-.48,0-.29-.35-.3-.35-.59,0-.29.04-.29.04-.59,0-.29.26-.31.26-.6,0-.29-.39-.34-.39-.63,0-.29.34-.57.34-.59h-1.6s.17.38.17.67c0,.29-.2.29-.2.59,0,.29.22.3.22.59,0,.29-.27.29-.27.58,0,.29.46.21.46.5,0,.29-.16.39-.16.68,0,.29-.12.26-.12.55,0,.29.19.33.19.62,0,.29-.34.3-.34.59,0,.29.35.29.35.58,0,.29-.12.29-.12.59,0,.29-.15.29-.15.59,0,.29.41.27.41.56,0,.29-.33.32-.33.62,0,.29.16.29.16.59,0,.29-.27.37-.27.59h1.6c0-.22-.21-.19-.21-.49,0-.3.12-.29.12-.59Z"/>
    <g>
      <path d="M53.48,65.38v.03s0,.03,0,.03v.05s.01.03.01.03v.03s0,.03,0,.03h0s0,.02,0,.02h0s-.01.02-.01.02l-.03.02-.08.03-.08.04-.03.02h-.01s-.01.02-.01.02h0s0,.02,0,.02h0s0,.03,0,.03v.03s.01.03.01.03v.03s0,.03,0,.03h0s0,.03,0,.03h0s-.01.02-.01.02l-.03.02-.03.02-.06.04-.06.04-.03.02-.03.03-.03.02v.02s-.01.02-.01.02h0s-.01.03-.01.03l-.02.03-.02.03-.02.03h0s0,.03,0,.03v.02s0,.02,0,.02v.02s0,.02,0,.02v.04s.05.09.05.09l.03.08v.04s0,.02,0,.02v.02s-.02.07-.02.07l-.03.07s-.04.09-.05.12h0s0,.02,0,.02h0s-.01.01-.01.01h-.02s-.03,0-.03,0h-.03s-.03,0-.03,0h-.01s-.01,0-.01,0h-.01s0,.02,0,.02h0s0,.03,0,.03v.02s0,.02,0,.02c0,.03,0,.06.01.1v.05s0,.05,0,.05v.02s0,.02,0,.02h0s-.01.03-.01.03l-.5-.62-.25-.31-.25-.31h.01s.01-.01.01-.01h.02s.02,0,.02,0h0s0,0,0,0h0s0,0,0,0h.01s.01,0,.01,0h.05s.03,0,.03,0h.01s.01,0,.01,0h.01s0-.02.01-.02v-.02s.02-.02.02-.02c0-.01.01-.03.02-.05,0-.02.02-.04.03-.06,0-.02.02-.05.02-.07v-.02s0,0,0,0l.04-.13h0s.03-.02.03-.02l.02-.02.02-.02v-.02s.03-.02.03-.02v-.02s.01-.02.01-.02v-.03s0-.05,0-.05v-.02s0-.01,0-.01h0s0-.02,0-.02h0s0-.02,0-.02h0s-.02-.03-.02-.03l-.02-.02-.04-.04h0s0-.02,0-.02h0s0-.02,0-.02v-.02s0-.03,0-.03c0-.02,0-.04,0-.05h.4s.4,0,.4,0h.8s0,.02,0,.02h0s-.01.04-.01.04l-.03.05-.04.05-.02.03v.03Z"/>
      <path class="st0" d="M51.04,65.48s.02-.02.04-.03h0s0,0,0,0h0s0,0,0,0h0s.02.03.02.03l.03.04.06.08.13.16.25.31.5.62,1,1.25.78-.59.74-.61-.19-.94v-.09s-.02-.13-.02-.13v-.41s-1.6-.01-1.6-.01h-.8s-.4,0-.4,0h-.2s-.1,0-.1,0h-.05s-.02,0-.02,0h-.01s0,0,0,0h0s0,0,0,0h0c-.1.22-.1.21-.15.33Z"/>
    </g>
    <g>
      <path d="M27.34,67.09l-.02-.02h-.02s-.04-.04-.04-.04h-.02s-.02-.03-.02-.03l-.02-.02h0s0-.02,0-.02h0s0-.03,0-.03v-.04s.03-.08.03-.08l.03-.09v-.04s0-.02,0-.02v-.02s0-.01,0-.01h0s0-.02,0-.02h0s-.02-.02-.02-.02h-.02s-.02-.03-.02-.03l-.02-.02h0s0-.02,0-.02h0s0-.03,0-.03v-.03s0-.03,0-.03l.02-.07.02-.07.02-.07v-.04s0,0,0-.01h0s-.01-.04-.01-.04v-.03s-.02-.03-.02-.03v-.03s-.02-.01-.02-.01h0s-.01-.02-.01-.02h-.01s-.03-.02-.03-.02h-.04s-.09-.03-.09-.03l-.09-.02h-.04s-.01-.02-.01-.02h-.01s-.04-.05-.04-.05l-.04-.05s-.05-.07-.07-.09h0s0-.02,0-.02h0s0-.02,0-.02v-.02s.02-.02.02-.02l.02-.02v-.02s.02,0,.02,0h0s0-.02,0-.02h0s0-.02,0-.02c0,0,0,0-.01-.01l-.03-.02s-.06-.03-.08-.04h-.02s-.01-.02-.01-.02h0s0,0,0,0h0s0,0,0,0h0s0-.02,0-.02h0s0,0,0,0l-.04-.02h-.01s-.01-.02-.01-.02h0s0-.02,0-.02h0s.8,0,.8,0h.4s.4,0,.4,0h0s0,.02,0,.02h0s0,.03,0,.03h0s0,.01,0,.01h0s0,.01,0,.01h0s0,0,0,0h0s0-.03,0-.03h0s0,0,0,0h0s0,0,0,0h0s0,.01,0,.01l-.04.03-.02.02h0s0,.02,0,.02h0s0,.02,0,.02c0,0,0,0,0,.01h.01s.02.04.03.05l.04.05.04.05s.01.01.01.01h0s0,0,0,0h0s-.01.04-.01.04v.05s0,.02,0,.02v.02s0,.01,0,.01h0s.01.03.01.03l.03.03h.01s0,.02,0,.02h0s0,.02,0,.02h0s0,0,0,0h0s0,0,0,0h.02s.02-.01.02-.01l.05-.02h.01s0,0,0,0h0s0,0,0,0h0s0,.01,0,.01h.02s.04.03.04.03l-.24.32-.24.32-.48.64h0s0-.01,0-.01v-.02s-.02-.05-.02-.05v-.06s-.02-.03-.02-.03v-.02Z"/>
      <path class="st0" d="M28.84,65.35s0,.04,0,.05h0s0,0,0,0h0s-.01,0-.01,0h-.03s-.05,0-.05,0h-.1s-.2,0-.2,0h-.4s-.8,0-.8,0h-1.6s.05,1.6.05,1.6l1.24.92,1.91-2.57Z"/>
    </g>
  </g>
  <g>
    <path d="M40.73,5.53c-.07-.11-.18-.2-.3-.26-.12-.06-.26-.08-.41-.07-.14,0-.27.05-.39.11-.12.07-.24.14-.31.25-.06.11-.08.24-.08.37l1.6-.04c0-.13-.04-.26-.11-.36Z"/>
    <path d="M40.76,13.49c0-.27-.27-.21-.27-.47,0-.27.25-.42.25-.69,0-.27-.11-.27-.11-.53,0-.27.25-.27.25-.54,0-.27-.21-.33-.21-.59,0-.27-.49-.18-.49-.45,0-.26.53-.31.53-.57,0-.27-.15-.33-.15-.59,0-.26.37-.17.37-.43,0-.26-.35-.27-.35-.53,0-.26.05-.26.05-.53,0-.27.26-.28.26-.55,0-.27-.39-.31-.39-.57,0-.27.33-.52.33-.54l-1.6.04s.17.34.18.6c0,.26-.2.26-.2.52,0,.26.22.26.22.53,0,.26-.27.26-.27.52,0,.27.46.19.46.45,0,.27-.16.35-.16.62,0,.27-.12.23-.12.5,0,.26.19.29.19.56,0,.26-.34.27-.34.54,0,.26.35.26.35.52,0,.26-.12.26-.12.53,0,.26-.15.27-.15.53,0,.26.41.24.41.5,0,.26-.33.29-.33.56,0,.26.16.26.16.53,0,.26-.27.33-.27.53h1.6c0-.2-.21-.17-.21-.44,0-.27.12-.26.12-.53Z"/>
    <path d="M40.46,15.08c.12-.06.21-.17.28-.27.07-.1.12-.22.12-.35h0s-1.6,0-1.6,0h0c0,.13.03.26.1.36.07.11.18.2.3.26.12.06.26.09.4.1.14,0,.29-.03.4-.09Z"/>
  </g>
  <g>
    <path d="M17.84,68.67c-.07.1-.11.22-.13.36-.01.13.01.27.06.41.05.14.12.25.21.34.09.1.19.2.31.23.11.03.23.02.34-.02l-.52-1.51c-.11.04-.21.11-.27.2Z"/>
    <path d="M24.52,66.38c-.22.08-.09.32-.31.39-.22.08-.43-.11-.66-.04-.22.08-.19.18-.41.25-.22.08-.31-.15-.53-.08-.22.08-.21.29-.43.37-.22.08,0,.52-.22.59-.22.08-.42-.42-.65-.34-.22.08-.23.24-.45.31-.22.08-.26-.3-.48-.23-.22.08-.12.41-.34.48-.22.08-.24.03-.46.11-.22.08-.32-.17-.54-.09-.22.08-.13.45-.35.53-.22.08-.54-.18-.55-.17l.51,1.52s.24-.26.46-.33c.22-.08.29.11.51.04.22-.08.15-.29.38-.36.22-.08.3.18.53.1.22-.08,0-.49.23-.56.22-.08.34.05.57-.02.22-.08.24.05.46-.03.22-.08.19-.27.41-.34.22-.08.34.25.56.17.22-.08.11-.41.33-.48.22-.08.26.03.48-.04.22-.08.27.07.49,0,.22-.08.07-.45.3-.53.22-.08.35.23.57.15.22-.08.17-.22.4-.3.22-.08.36.16.53.1l-.51-1.52c-.17.06-.08.25-.3.32-.22.08-.26-.04-.48.03Z"/>
    <path d="M25.95,66.21c-.09-.1-.21-.15-.32-.18-.11-.03-.22-.05-.33-.01h0s.51,1.52.51,1.52h0c.11-.04.21-.1.27-.19.07-.1.11-.23.12-.36.01-.13,0-.27-.05-.41-.05-.14-.12-.26-.21-.36Z"/>
  </g>
  <g>
    <path d="M40.75,77.12c-.07-.1-.18-.19-.3-.24-.12-.06-.26-.08-.4-.08s-.28.04-.39.09c-.12.06-.25.12-.32.22-.07.1-.09.22-.09.34h1.6c0-.12-.03-.24-.1-.33Z"/>
    <path d="M40.76,84.4c0-.24-.27-.19-.27-.43s.25-.39.25-.63-.11-.24-.11-.49.25-.25.25-.49-.21-.3-.21-.55-.49-.17-.49-.41.53-.28.53-.52-.15-.3-.15-.55.37-.16.37-.4-.35-.25-.35-.49.04-.24.04-.49.26-.26.26-.5-.39-.28-.39-.52.34-.47.34-.48h-1.6s.17.31.17.56-.2.24-.2.48.22.24.22.49-.27.24-.27.48.46.17.46.41-.16.32-.16.56-.12.21-.12.46.19.27.19.51-.34.25-.34.49.35.24.35.48-.12.24-.12.49-.15.24-.15.49.41.22.41.46-.33.27-.33.51.16.24.16.49-.27.3-.27.49h1.6c0-.18-.21-.16-.21-.4s.12-.24.12-.49Z"/>
    <path d="M40.46,85.86c.12-.06.21-.15.28-.25.07-.09.12-.2.12-.32h0s-1.6,0-1.6,0h0c0,.12.03.24.1.33.07.1.18.18.3.24.12.05.26.09.4.09s.29-.03.4-.09Z"/>
  </g>
  <g>
    <path d="M20.16,34.28c-.1.04-.21.11-.3.21-.09.09-.15.22-.2.35-.05.14-.07.27-.06.4,0,.13.02.27.07.36.06.09.15.15.25.19l.55-1.5c-.1-.04-.2-.04-.31,0Z"/>
    <path d="M26.11,36.45c-.2-.08-.25.2-.45.12-.2-.07-.23-.35-.43-.42-.2-.07-.24.03-.43-.04-.2-.07-.12-.31-.32-.38-.2-.07-.32.11-.51.03-.2-.07-.3.41-.5.34-.2-.07-.05-.59-.24-.66-.2-.07-.3.05-.5-.02-.2-.07,0-.4-.2-.47-.2-.07-.32.25-.52.18-.2-.07-.18-.11-.38-.19-.2-.07-.12-.32-.32-.39-.2-.07-.36.28-.56.21-.2-.07-.26-.46-.28-.47l-.55,1.5s.31-.06.51.01c.2.07.13.26.33.33.2.07.28-.13.48-.06.2.07.1.32.3.39.2.07.3-.38.49-.31.2.07.21.25.41.32.2.07.13.18.33.25.2.07.29-.1.49-.03.2.07.09.4.29.47.2.07.31-.26.51-.19.2.07.16.18.36.26.2.07.15.22.35.29.2.07.32-.32.51-.24.2.07.11.39.3.46.19.07.25-.07.44,0,.2.07.15.34.29.4l.58-1.49c-.15-.06-.21.15-.41.07-.2-.08-.16-.19-.36-.27Z"/>
    <path d="M27.2,37.2c0-.13-.05-.24-.1-.33-.05-.09-.12-.17-.22-.21h0s-.58,1.49-.58,1.49h0c.09.04.2.04.3.01.1-.04.21-.11.3-.21.09-.09.17-.21.22-.35.05-.13.08-.28.08-.4Z"/>
  </g>
</svg>