<?xml version="1.0" encoding="UTF-8"?>
<svg id="_レイヤー_2" data-name="レイヤー_2" xmlns="http://www.w3.org/2000/svg" version="1.1" viewBox="0 0 80 80">
  <!-- Generator: Adobe Illustrator 30.0.0, SVG Export Plug-In . SVG Version: 2.1.1 Build 123)  -->
  <defs>
    <style>
      .st0 {
        fill: #ceb372;
      }

      .st1, .st2 {
        fill: none;
        stroke: #000;
        stroke-linecap: round;
        stroke-linejoin: round;
      }

      .st3 {
        fill: #fff;
      }

      .st2 {
        stroke-width: 1.5px;
      }
    </style>
  </defs>
  <path class="st3" d="M22.21,7.76c-1.71.47-17.68,29.93-17.68,29.93,0,0,12.26,23.95,16.97,31.93.38.64.96.99,1.71.99,11.38,0,22.75,0,34.13,0,.83,0,1.43-.44,1.81-1.11,5.57-9.86,11.36-19.6,16.97-29.43.4-.7.43-1.43.04-2.09-5.66-9.77-11.19-19.62-16.94-29.34-.57-.97-1.3-1.22-2.4-1.22-11.17,0-34.55.28-34.55.28"/>
  <path class="st0" d="M58.48,8.05l-7.78,13.17c-.15.26-.15.57,0,.83l9.36,16.53c.15.27.44.43.75.42l12.81-.3c.64-.01,3.32.54,3,0l-15.84-27.15c-.32-.55-1.97-4.06-2.29-3.5Z"/>
  <polygon class="st0" points="3.72 39.02 21.65 70.23 58.37 70.8 50.59 56.78 29.67 56.98 19.16 39.44 3.72 39.02"/>
  <path class="st2" d="M22.21,7.76c-1.71.47-18.42,31.12-18.42,31.12,0,0,2.71,4.81,3.79,6.67,4.64,8.02,9.21,16.08,13.92,24.07.38.64.96.99,1.71.99,11.38,0,22.75,0,34.13,0,.83,0,1.43-.44,1.81-1.11,5.57-9.86,11.36-19.6,16.97-29.43.4-.7.43-1.43.04-2.09-5.66-9.77-11.19-19.62-16.94-29.34-.57-.97-1.3-1.22-2.4-1.22-11.17,0-22.33,0-33.5,0-.38,0-.74.05-1.05.28"/>
  <path class="st1" d="M30.19,21.2c-2.22-3.75-5.24-8.7-7.37-12.49-.1-.17-.2-.34-.31-.5"/>
  <path class="st1" d="M61.04,39.02c-.14-.34-.38-.62-.56-.94-1.35-2.36-2.71-4.72-4.08-7.07-1.88-3.24-5.8-10-5.8-10h-20.12c-.33,0-.63.18-.8.46,0,0-3.51,6.06-5.1,8.81-1.69,2.91-3.33,5.85-5.08,8.72.13.17,9.33,16.18,10.26,17.65.16.26,20.86.27,21.02,0,.23-.39,5.04-8.69,7.22-12.44.9-1.54,3.03-5.19,3.03-5.19Z"/>
  <path class="st1" d="M76.34,39.02c-4.88,0-10.06-.07-14.93-.09"/>
  <path class="st1" d="M58.33,7.76c-2.17,3.65-5.56,9.58-7.71,13.24"/>
  <path class="st1" d="M19.45,39.02c-5.08,0-10.16,0-15.24,0"/>
  <path class="st1" d="M29.89,56.97c-1.94,3.4-3.91,6.77-5.86,10.16-.59,1.03-1.2,2.05-1.77,3.09"/>
  <path class="st1" d="M50.73,56.85c1.69,2.96,3.78,6.78,5.47,9.73.7,1.21,1.42,2.41,2.08,3.65"/>
</svg>