<?xml version="1.0" encoding="UTF-8"?>
<svg id="_レイヤー_1" xmlns="http://www.w3.org/2000/svg" version="1.1" viewBox="0 0 80 80">
  <!-- Generator: Adobe Illustrator 30.0.0, SVG Export Plug-In . SVG Version: 2.1.1 Build 123)  -->
  <defs>
    <style>
      .st0 {
        fill: #1c1917;
      }

      .st1 {
        fill: #fff;
      }
    </style>
  </defs>
  <path class="st1" d="M21.49,8.26c-1.78.49-2.71,3.79-3.52,5.24-1.56,2.8-3.13,5.59-4.71,8.37-3.36,5.92-6.71,11.85-10.25,17.67-1.43,2.34,2.06,6.27,3.18,8.21,4.85,8.38,9.63,16.81,14.55,25.15.39.67,1,1.04,1.79,1.04h35.67c.86,0,1.5-.46,1.89-1.16,5.82-10.31,11.87-20.48,17.73-30.76.42-.73.45-1.49.04-2.19-5.92-10.21-11.69-20.5-17.71-30.66-.6-1.01-1.36-1.27-2.51-1.27H22.63c-.4,0-.77.05-1.1.29"/>
  <path class="st1" d="M58.79,12.17l-6.34,10.93c-.15.26-.15.57,0,.83l9.37,16.56c.15.27.44.43.75.42l12.82-.3c.64,0,1.03-.71.7-1.26l-15.86-27.19c-.32-.55-1.13-.55-1.45,0h.01Z"/>
  <polygon class="st1" points="2.65 42 20.9 73.54 59.27 74.13 51.5 60.83 28.67 60.6 17.72 42.11 2.65 42"/>
  <path class="st0" d="M29.67,7.63h-4.49c-1.36,0-2.98-.23-4.18.57-.22.15-.19.28.08.29.32.02.76-.1,1.02-.27.17-.1.13-.1-.12,0h.12c.13,0,.26-.01.39-.01h6.24c.34,0,.74-.09,1.02-.27.21-.14.22-.29-.08-.29h0v-.02Z"/>
  <path class="st0" d="M71.57,53.97c1.33-2.3,2.67-4.59,4-6.9.66-1.15,1.33-2.3,1.99-3.45.53-.92,1.39-1.96,1.32-3.08-.07-1.06-.99-2.14-1.5-3.03-.7-1.21-1.39-2.41-2.09-3.62-1.35-2.35-2.69-4.69-4.03-7.04-2.61-4.55-5.22-9.1-7.86-13.63-.66-1.13-1.33-2.26-1.99-3.39-.43-.72-.8-1.52-1.59-1.91-.67-.32-1.45-.29-2.16-.3h-22.13c-.29,0-1.63.56-.95.56h15.25c2.45,0,4.93-.1,7.38,0s3.31,2.96,4.38,4.78c5.09,8.7,10.04,17.48,15.09,26.21.82,1.42.93,2.16.09,3.63-.7,1.23-1.4,2.45-2.11,3.67-1.49,2.59-2.99,5.17-4.49,7.76-.08.15,1.22.09,1.43-.27h-.03Z"/>
  <path class="st0" d="M21.25,8.11c-1.2.42-1.93,1.3-2.52,2.4-.78,1.44-1.37,2.95-2.17,4.38-2.35,4.22-4.73,8.42-7.13,12.61-1.21,2.11-2.42,4.22-3.64,6.32-.61,1.05-1.23,2.1-1.85,3.14-.57.95-1.31,1.92-1.75,2.93-1.13,2.61,1.78,5.65,3.05,7.66,2.53,4,4.76,8.23,7.12,12.34s4.88,8.56,7.42,12.78c1.05,1.76,2.36,1.55,4.27,1.55h30.71c1.68,0,3.91.38,5.35-.76.78-.61,1.18-1.67,1.66-2.51.68-1.2,1.36-2.39,2.05-3.59,1.41-2.46,2.83-4.91,4.25-7.36.08-.15-1.22-.09-1.43.27-2.19,3.78-4.38,7.57-6.53,11.37-.25.44-.46,1.04-.81,1.41-.49.52-1.17.6-1.85.6H23.76c-1.43,0-1.93-.37-2.65-1.59-4.5-7.64-8.88-15.35-13.31-23.02-1.38-2.4-3.67-4.83-4.28-7.57-.39-1.76.87-3.14,1.72-4.57,1.16-1.95,2.31-3.91,3.44-5.87,2.42-4.2,4.81-8.41,7.19-12.64,1.08-1.91,2.28-3.81,3.2-5.81.56-1.22,1.25-3.69,2.67-4.19.98-.34.05-.48-.49-.29h0Z"/>
  <path class="st0" d="M29.62,20.73c-1.22-2.06-2.44-4.13-3.64-6.21s-2.25-4.17-3.53-6.14c-.38-.58-1.75,0-1.32.65,1.28,1.97,2.35,4.1,3.53,6.14s2.41,4.14,3.64,6.21c.35.59,1.72.02,1.32-.65h0Z"/>
  <path class="st0" d="M22.78,32.54c-1.59,2.77-3.17,5.54-4.82,8.27-.07.12-.04.31.04.42,1.76,2.63,3.2,5.53,4.78,8.26,1.18,2.04,2.36,4.08,3.54,6.11.73,1.25,1.38,2.71,2.27,3.86.51.67,1.39.52,2.18.55,1.79.06,3.57.07,5.36.09,4.25.03,8.5.04,12.75-.05.77-.02,2.18.18,2.87-.28.37-.25.59-.82.81-1.19.54-.92,1.07-1.84,1.61-2.77,2.71-4.68,5.42-9.36,8.15-14.02.12-.21.38-.5.43-.74.12-.59-.44-1.14-.73-1.62-1.13-1.9-2.2-3.84-3.31-5.75-1.53-2.64-3.07-5.28-4.6-7.93-.6-1.03-1.19-2.06-1.79-3.09-.28-.49-.42-.99-1.01-1.1-.79-.15-1.74,0-2.54,0h-17.67c-1.19,0-2.04.15-2.71,1.29-.92,1.58-1.83,3.17-2.75,4.75-.42.72,1.06.77,1.39.19.9-1.55,1.7-3.29,2.75-4.75.29-.4.27-.35.73-.37,1.42-.06,2.86,0,4.29,0h16.3l-.6-.23c1.65,2.85,3.3,5.7,4.96,8.54,1.32,2.28,2.64,4.55,3.96,6.83.39.68.78,1.37,1.18,2.06.12.2.77,1.13.76,1,.02.41-.79,1.34-.99,1.69-1.95,3.33-3.88,6.67-5.82,10.01-.96,1.66-1.93,3.32-2.89,4.98-.26.44-.57.89-.79,1.35,0,0-.2.31-.19.32-.71-.66,1.18-.27.41-.38s-1.72.07-2.51.09c-1.4.03-2.8.04-4.2.05-3.27.02-6.55.02-9.82-.02-1.2,0-2.4-.03-3.6-.07-.3,0-.62-.06-.93-.04-.1,0-.19-.03-.29-.03.19,0,.23.3.17-.02-.05-.26-.4-.66-.53-.89-.3-.5-.6-1.01-.89-1.52-.77-1.31-1.53-2.63-2.3-3.95-1.83-3.15-3.64-6.3-5.47-9.46-.31-.53-.61-1.06-.92-1.58-.1-.18-.42-.55-.44-.76,0,0,.46-.43.6-.68.45-.75.89-1.51,1.33-2.27.96-1.66,1.91-3.32,2.87-4.98.41-.72-1.06-.77-1.39-.19h0v.02Z"/>
  <path class="st0" d="M78.32,40.44c-4.75,0-9.5,0-14.24,0-.32,0-.8.09-.95.43-.13.3.11.55.43.55,4.75.02,9.5,0,14.24,0,.32,0,.8-.09.95-.43.13-.3-.11-.55-.43-.55h0Z"/>
  <path class="st0" d="M58.53,8.39c-2.51,4.23-4.97,8.49-7.46,12.73-.12.21.51.12.57.11.24-.04.71-.14.85-.38,2.49-4.24,4.94-8.5,7.46-12.73.12-.21-.52-.12-.57-.11-.24.04-.71.14-.85.38h0Z"/>
  <path class="st0" d="M19.08,40.65H3.15c-.31,0-.78.07-1.02.27-.18.15-.25.28.07.28h15.93c.31,0,.78-.07,1.02-.27.18-.15.25-.28-.07-.28h0Z"/>
  <path class="st0" d="M28.8,59.82c-2.03,3.55-4.08,7.08-6.12,10.62-.12.21.51.12.57.11.24-.04.72-.14.85-.38,2.03-3.54,4.09-7.07,6.12-10.62.12-.21-.51-.12-.57-.11-.24.04-.72.14-.85.38h0Z"/>
  <path class="st0" d="M52.21,62.87c2.09,3.62,4.26,7.19,6.25,10.87.21.4,1.6-.11,1.45-.39-1.98-3.67-4.16-7.25-6.25-10.87-.23-.4-1.6.13-1.45.39h0Z"/>
</svg>