<?xml version="1.0" encoding="UTF-8"?>
<svg id="_レイヤー_1" xmlns="http://www.w3.org/2000/svg" version="1.1" viewBox="0 0 80 80">
  <!-- Generator: Adobe Illustrator 30.0.0, SVG Export Plug-In . SVG Version: 2.1.1 Build 123)  -->
  <defs>
    <style>
      .st0, .st1 {
        fill: none;
      }

      .st2 {
        fill: #ceb372;
      }

      .st3 {
        fill: #fff;
      }

      .st1 {
        stroke: #000;
        stroke-miterlimit: 10;
        stroke-width: .5px;
      }
    </style>
  </defs>
  <path class="st3" d="M8.3,29.11c.23-.94.76-3.53.95-4.47.43-2.03.84-4.06,1.22-6.09.03-.19.12-.35.29-.49,2.18-1.81,9.37-7.2,9.92-7.41.04-.02.1,0,.15,0,2.68,0,8.34.03,8.46.1.4.25.8.49,1.2.73,1.73,1.05,3.47,2.09,5.2,3.14,1.51.92,5.67,3.44,5.67,3.44,0,0,5.63-3.11,6.84-3.84,1.91-1.15,3.8-2.32,5.71-3.46.14-.09.28-.12.43-.12,2.54,0,8.34-.04,8.67.18,0,0,.05.01.07,0,.28-.01.53.1.73.28.79.67,1.62,1.3,2.42,1.95,2.08,1.7,4.21,3.34,6.28,5.05.12.1.17.19.2.33.47,2.19,2.28,11.89,2.28,11.89l-1.73,7.65s-2.66,4.59-4.06,6.85c-2.31,3.72-7.63,12.2-7.63,12.2,0,0-1.76,1.57-3.21,2.6-5.36,3.8-10.63,7.74-15.89,11.68-.48.36-1.26.34-1.75-.02-6.14-4.53-12.09-9.37-18.5-13.54-1.1-.72-1.83-2.5-2.49-3.58-3.04-4.97-6.06-9.96-9.09-14.94-.33-.54-.68-1.07-.83-1.72-.32-1.39-1.59-7.17-1.59-7.17"/>
  <g>
    <polygon class="st2" points="22.91 19.39 19.55 12.11 11.78 18.73 9.13 28.98 10.12 37.75 21.21 57.61 25.28 52.09 13.95 29.05 22.91 19.39"/>
    <g>
      <path class="st2" d="M14.66,16.86c.15-.12,0-.23.15-.35.15-.12.33-.08.48-.2.15-.12.1-.18.25-.3.15-.12.25-.01.4-.14.15-.12.1-.25.24-.38.15-.12-.1-.32.05-.44.15-.12.38.11.53-.01.15-.12.12-.23.27-.35.15-.12.24.1.39-.03.15-.12,0-.29.15-.42.15-.12.16-.1.31-.23.15-.12.26,0,.41-.13.15-.12.01-.33.16-.45.15-.12.42-.08.43-.08l-.65-.76s-.12.24-.27.36c-.15.12-.23.03-.37.15-.15.12-.06.23-.2.35-.15.12-.25,0-.4.12-.15.12.08.31-.06.43-.15.12-.26.09-.4.21-.15.12-.18.05-.32.18-.15.12-.08.23-.23.35-.15.12-.29-.04-.43.09-.15.12,0,.29-.15.41-.15.12-.19.07-.34.19-.15.12-.21.05-.35.18-.15.12.03.31-.11.43-.15.12-.29-.02-.44.11-.15.12-.08.2-.23.32-.15.12-.29.03-.4.12l.65.76c.11-.09.01-.18.16-.31.15-.13.2-.06.34-.19Z"/>
      <path class="st2" d="M11.51,21.53c.05-.19-.13-.19-.08-.37.05-.19.23-.26.27-.44.05-.19-.02-.2.03-.39.05-.19.2-.15.25-.34.05-.19-.07-.26-.02-.45.05-.19-.26-.2-.21-.39.05-.2.37-.09.39-.19.09-.08,0-.13.17-.26.15-.12.24.1.39-.03.15-.12,0-.29.15-.42.15-.12.16-.1.31-.23.15-.12.26,0,.41-.13.15-.12.01-.33.16-.45.15-.12.42-.08.43-.08l-.65-.76s-.12.24-.27.36c-.15.12-.23.03-.37.15-.15.12-.06.23-.2.35-.15.12-.25,0-.4.12-.15.12.08.31-.06.43-.15.12-.26.09-.4.21-.17.15-.22.09-.42.26,0,0,0,0,0,.01-.07.26.03.37-.02.55-.05.19-.26.14-.3.32-.05.19.16.24.12.42-.05.19-.12.17-.17.35-.05.19-.14.16-.19.35-.05.19.2.23.16.42-.05.19-.25.15-.3.34-.05.19.05.21,0,.4-.05.19-.22.19-.26.33l.97.25c.04-.14-.1-.15-.05-.34.05-.19.12-.17.17-.35Z"/>
      <path class="st2" d="M9.97,27.52c.05-.19-.13-.19-.08-.37.05-.19.23-.26.27-.44.05-.19-.02-.2.03-.39.05-.19.2-.15.25-.34.05-.19-.07-.26-.02-.45.05-.19-.26-.2-.21-.39.05-.19.38-.13.43-.31.05-.19-.03-.25.02-.44.05-.19.26-.06.3-.25.05-.19-.16-.24-.11-.43.05-.19.07-.18.12-.37.05-.19.21-.16.26-.34.05-.19-.18-.27-.13-.46.05-.19.3-.31.3-.32l-.97-.25s.04.27,0,.45c-.05.19-.17.15-.22.34-.05.19.09.22.04.41-.05.19-.21.14-.26.33-.05.19.24.2.2.39-.05.19-.16.22-.21.4-.05.18-.12.14-.16.33-.05.19.06.24.02.42-.05.19-.26.14-.3.32-.05.19.16.24.12.42-.05.19-.12.17-.17.35-.05.19-.14.16-.19.35-.05.19.2.23.16.42-.05.19-.25.15-.3.34-.05.19.05.21,0,.4-.05.19-.22.19-.26.33l.97.25c.04-.14-.1-.15-.05-.34.05-.19.12-.17.17-.35Z"/>
      <path class="st2" d="M10.08,33.47c-.02-.19-.19-.13-.21-.32-.02-.19.12-.32.1-.51-.02-.19-.09-.18-.11-.37-.02-.19.13-.21.11-.4-.02-.19-.16-.22-.18-.41-.02-.19-.32-.1-.34-.29-.02-.19.31-.26.29-.45-.02-.19-.12-.23-.14-.42-.02-.19.22-.15.19-.34-.02-.19-.24-.17-.26-.36-.02-.19,0-.19-.02-.38-.02-.14.07-.14.11-.19.02-.02.04-.03.05-.06.03-.13-.18-.26-.14-.43.05-.19.3-.31.3-.32l-.97-.25s.04.27,0,.45c-.05.2-.16.11-.23.38-.02.06-.02.11-.02.15.05.14.15.23.16.36.02.19-.14.21-.12.4.02.19.3.1.32.29.02.19-.07.26-.05.45.02.19-.06.18-.04.37.02.19.14.2.17.39.02.19-.19.22-.17.41.02.19.24.16.26.35.02.19-.05.2-.03.39.02.19-.07.2-.05.39.02.19.27.14.29.33.02.19-.18.23-.16.42.02.19.12.18.14.37.02.19-.14.26-.12.4l.99-.11c-.02-.14-.14-.11-.17-.3-.02-.19.06-.2.03-.39Z"/>
      <path class="st2" d="M11.45,39.22c-.09-.17-.22-.05-.32-.22-.09-.17-.01-.34-.11-.51-.09-.17-.15-.14-.25-.3-.09-.17.04-.25-.06-.41-.08-.14-.13-.09-.21-.14-.01-.02-.02-.04-.03-.07-.01-.13-.32-.08-.34-.26-.02-.19.31-.26.29-.45-.02-.19-.12-.23-.14-.42-.02-.19.22-.15.19-.34-.02-.19-.24-.17-.26-.36-.02-.19,0-.19-.02-.38-.02-.19.14-.22.12-.41-.02-.19-.26-.19-.29-.38-.02-.19.17-.39.17-.4l-.99.11s.13.24.15.43c.02.19-.1.2-.08.39.02.19.16.18.18.37.02.19-.14.21-.12.4.02.19.3.1.32.29.02.19-.07.26-.05.45.02.19-.06.18-.04.37.02.19.14.2.17.39.02.2-.19.18-.16.49,0,.03,0,.06.02.08.14.17.32.13.39.27.09.17.03.2.12.37.09.17.01.21.1.38.09.17.31.03.4.19.09.17-.08.28.02.45.09.17.18.12.27.29.09.17-.03.29.04.42l.87-.49c-.07-.13-.18-.05-.27-.21-.09-.17-.03-.2-.12-.37Z"/>
      <path class="st2" d="M14.46,44.62c-.09-.17-.22-.05-.32-.22-.09-.17-.01-.34-.11-.51-.09-.17-.15-.14-.25-.3-.09-.17.04-.25-.06-.41-.09-.17-.23-.14-.32-.31-.09-.17-.33.03-.43-.13-.09-.17.18-.35.09-.52-.09-.17-.2-.16-.29-.33-.09-.17.14-.22.05-.39-.09-.17-.29-.06-.38-.23-.09-.17-.07-.18-.16-.35-.09-.17.04-.26-.05-.42-.09-.17-.32-.07-.41-.24-.09-.17,0-.43,0-.44l-.87.49s.21.17.3.33c.09.17-.02.23.08.39.09.17.21.1.31.27.09.17-.05.25.04.41.09.17.32-.02.41.14.09.17.04.27.13.44.09.17.02.18.11.35.09.17.21.13.3.3.09.17-.09.28,0,.44.09.17.28.06.38.22.09.17.03.2.12.37.09.17.01.21.1.38.09.17.31.03.4.19.09.17-.08.28.02.45.09.17.18.12.27.29.09.17-.03.29.04.42l.87-.49c-.07-.13-.18-.05-.27-.21-.09-.17-.03-.2-.12-.37Z"/>
      <path class="st2" d="M17.48,50.02c-.09-.17-.22-.05-.32-.22-.09-.17-.01-.34-.11-.51-.09-.17-.15-.14-.25-.3-.09-.17.04-.25-.06-.41-.09-.17-.23-.14-.32-.31-.09-.17-.33.03-.43-.13-.09-.17.18-.35.09-.52-.09-.17-.2-.16-.29-.33-.09-.17.14-.22.05-.39-.09-.17-.29-.06-.38-.23-.09-.17-.07-.18-.16-.35-.09-.17.04-.26-.05-.42-.09-.17-.32-.07-.41-.24-.09-.17,0-.43,0-.44l-.87.49s.21.17.3.33c.09.17-.02.23.08.39.09.17.21.1.31.27.09.17-.05.25.04.41.09.17.32-.02.41.14.09.17.04.27.13.44.09.17.02.18.11.35.09.17.21.13.3.3.09.17-.09.28,0,.44.09.17.28.06.38.22.09.17.03.2.12.37.09.17.01.21.1.38.09.17.31.03.4.19.09.17-.08.28.02.45.09.17.18.12.27.29.09.17-.03.29.04.42l.87-.49c-.07-.13-.18-.05-.27-.21-.09-.17-.03-.2-.12-.37Z"/>
      <path class="st2" d="M20.5,55.42c-.09-.17-.22-.05-.32-.22-.09-.17-.01-.34-.11-.51-.09-.17-.15-.14-.25-.3-.09-.17.04-.25-.06-.41-.09-.17-.23-.14-.32-.31-.09-.17-.33.03-.43-.13-.09-.17.18-.35.09-.52-.09-.17-.2-.16-.29-.33-.09-.17.14-.22.05-.39-.09-.17-.29-.06-.38-.23-.09-.17-.07-.18-.16-.35-.09-.17.04-.26-.05-.42-.09-.17-.32-.07-.41-.24-.09-.17,0-.43,0-.44l-.87.49s.21.17.3.33c.09.17-.02.23.08.39.09.17.21.1.31.27.09.17-.05.25.04.41.09.17.32-.02.41.14.09.17.04.27.13.44.09.17.02.18.11.35.09.17.21.13.3.3.09.17-.09.28,0,.44.09.17.28.06.38.22.09.17.03.2.12.37.09.17.01.21.1.38.09.17.31.03.4.19.09.17-.08.28.02.45.09.17.18.12.27.29.09.17-.03.29.04.42l.87-.49c-.07-.13-.18-.05-.27-.21-.09-.17-.03-.2-.12-.37Z"/>
      <path class="st2" d="M24.24,52.74c-.09.12.07.19-.02.31-.09.12-.26.09-.35.21-.09.12-.03.16-.12.28-.09.12-.21.03-.3.15-.09.12,0,.22-.09.34-.09.12.19.26.1.38-.09.12-.37-.06-.45.05-.09.12-.03.2-.12.32-.09.12-.24-.06-.33.06-.09.12.09.25,0,.37-.09.12-.11.1-.2.22-.09.12-.22.03-.31.14-.09.12.1.28,0,.39-.09.12-.34.1-.35.11l.81.59s.03-.21.11-.33c.09-.12.19-.04.27-.16.09-.12-.02-.2.06-.32.09-.12.22-.02.31-.13.09-.12-.17-.25-.08-.37.09-.12.19-.1.28-.21.09-.12.14-.06.22-.17.09-.12,0-.2.09-.32.09-.12.26,0,.35-.11.09-.12-.09-.24,0-.36.09-.12.14-.07.23-.19.09-.12.16-.06.25-.18.09-.12-.13-.26-.04-.37.09-.12.26,0,.35-.13.09-.12,0-.17.09-.29.09-.12.24-.05.31-.13l-.81-.59c-.06.09.05.15-.04.27-.09.12-.15.07-.23.19Z"/>
      <path class="st2" d="M22.23,46.89c.08.17.22.06.3.23.08.17,0,.34.08.51.08.17.14.14.23.31.08.17-.05.24.03.41.08.17.22.15.3.32.08.17.33-.02.42.15.08.17-.2.34-.12.51.08.17.19.17.27.34.08.17-.15.21-.07.38.08.17.28.08.36.25.08.17.06.18.14.35.08.17-.06.25.03.42.08.17.31.09.39.26.08.17-.03.42-.03.43l.9-.44s-.2-.17-.28-.34c-.08-.17.03-.22-.05-.39-.08-.17-.21-.11-.29-.28-.08-.17.07-.24-.02-.41-.08-.17-.32,0-.4-.16-.08-.17-.02-.27-.1-.44-.08-.17,0-.18-.09-.35-.08-.17-.2-.14-.28-.31-.08-.17.11-.27.02-.44-.08-.17-.28-.07-.36-.24-.08-.17-.02-.2-.1-.37-.08-.17,0-.21-.08-.38-.08-.17-.3-.04-.39-.21-.08-.17.09-.28,0-.45-.08-.17-.17-.13-.25-.3-.08-.17.05-.29-.02-.41l-.9.44c.06.13.17.05.26.22.08.17.01.2.1.37Z"/>
      <path class="st2" d="M19.54,41.42c.08.17.22.06.3.23.08.17,0,.34.08.51.08.17.14.14.23.31.08.17-.05.24.03.41.08.17.22.15.3.32.08.17.33-.02.42.15.08.17-.2.34-.12.51.08.17.19.17.27.34.08.17-.15.21-.07.38.08.17.28.08.36.25.08.17.06.18.14.35.08.17-.06.25.03.42.08.17.31.09.39.26.08.17-.03.42-.03.43l.9-.44s-.2-.17-.28-.34c-.08-.17.03-.22-.05-.39-.08-.17-.21-.11-.29-.28-.08-.17.07-.24-.02-.41-.08-.17-.32,0-.4-.16-.08-.17-.02-.27-.1-.44-.08-.17,0-.18-.09-.35-.08-.17-.2-.14-.28-.31-.08-.17.11-.27.02-.44-.08-.17-.28-.07-.36-.24-.08-.17-.02-.2-.1-.37-.08-.17,0-.21-.08-.38-.08-.17-.3-.04-.39-.21-.08-.17.09-.28,0-.45-.08-.17-.17-.13-.25-.3-.08-.17.05-.29-.02-.41l-.9.44c.06.13.17.05.26.22.08.17.01.2.1.37Z"/>
      <path class="st2" d="M16.85,35.95c.08.17.22.06.3.23.08.17,0,.34.08.51.08.17.14.14.23.31.08.17-.05.24.03.41.08.17.22.15.3.32.08.17.33-.02.42.15.08.17-.2.34-.12.51.08.17.19.17.27.34.08.17-.15.21-.07.38.08.17.28.08.36.25.08.17.06.18.14.35.08.17-.06.25.03.42.08.17.31.09.39.26.08.17-.03.42-.03.43l.9-.44s-.2-.17-.28-.34c-.08-.17.03-.22-.05-.39-.08-.17-.21-.11-.29-.28-.08-.17.07-.24-.02-.41-.08-.17-.32,0-.4-.16-.08-.17-.02-.27-.1-.44-.08-.17,0-.18-.09-.35-.08-.17-.2-.14-.28-.31-.08-.17.11-.27.02-.44-.08-.17-.28-.07-.36-.24-.08-.17-.02-.2-.1-.37-.08-.17,0-.21-.08-.38-.08-.17-.3-.04-.39-.21-.08-.17.09-.28,0-.45-.08-.17-.17-.13-.25-.3-.08-.17.05-.29-.02-.41l-.9.44c.06.13.17.05.26.22.08.17.01.2.1.37Z"/>
      <path class="st2" d="M14.16,30.48c.08.17.22.06.3.23.08.17,0,.34.08.51.08.17.14.14.23.31.08.17-.05.24.03.41.08.17.22.15.3.32.08.17.33-.02.42.15.08.17-.2.34-.12.51.08.17.19.17.27.34.08.17-.15.21-.07.38.08.17.28.08.36.25.08.17.06.18.14.35.08.17-.06.25.03.42.08.17.31.09.39.26.08.17-.03.42-.03.43l.9-.44s-.2-.17-.28-.34c-.08-.17.03-.22-.05-.39-.08-.17-.21-.11-.29-.28-.08-.17.07-.24-.02-.41-.08-.17-.32,0-.4-.16-.08-.17-.02-.27-.1-.44-.08-.17,0-.18-.09-.35-.08-.17-.2-.14-.28-.31-.08-.17.11-.27.02-.44-.08-.17-.28-.07-.36-.24-.08-.17-.02-.2-.1-.37-.08-.17,0-.21-.08-.38-.08-.17-.3-.04-.39-.21-.08-.17.09-.28,0-.45-.08-.17-.17-.13-.25-.3-.08-.17.05-.29-.02-.41l-.9.44c.06.13.17.05.26.22.08.17.01.2.1.37Z"/>
      <path class="st2" d="M17.65,24.4c-.13.13.03.22-.1.36-.12.13-.31.11-.44.24-.12.13-.08.18-.2.32-.12.13-.24.03-.37.17-.12.13-.06.26-.18.39-.12.13.14.3.01.44-.12.13-.39-.07-.51.06-.12.13-.09.23-.21.36-.12.13-.25-.07-.37.06-.12.13.03.29-.09.42-.12.13-.14.12-.27.25-.12.13-.25.03-.38.17-.12.13.03.32-.09.45-.12.13-.4.11-.41.12l.73.68s.09-.24.21-.38c.12-.13.22-.05.34-.18.12-.13.02-.23.15-.36.12-.13.24-.02.37-.15.12-.13-.12-.29,0-.42.12-.13.24-.11.36-.24.12-.13.17-.07.29-.2.12-.13.05-.23.17-.37.12-.13.28,0,.41-.13.12-.13-.04-.28.09-.41.12-.13.18-.08.3-.22.12-.13.19-.07.32-.2.12-.13-.07-.29.05-.43.12-.13.29,0,.41-.14.12-.13.05-.2.18-.33.12-.13.28-.05.37-.15l-.73-.68c-.09.1.02.18-.11.31-.13.14-.18.08-.31.22Z"/>
      <path class="st2" d="M21.67,20.06c-.13.13.03.22-.1.36-.12.13-.31.11-.44.24-.12.13-.08.18-.2.32-.12.13-.24.03-.37.17-.12.13-.06.26-.18.39-.12.13.14.3.01.44-.12.13-.39-.07-.51.06-.12.13-.09.23-.21.36-.12.13-.25-.07-.37.06-.12.13.03.29-.09.42-.12.13-.14.12-.27.25-.12.13-.25.03-.38.17-.12.13.03.32-.09.45-.12.13-.4.11-.41.12l.73.68s.09-.24.21-.38c.12-.13.22-.05.34-.18.12-.13.02-.23.15-.36.12-.13.24-.02.37-.15.12-.13-.12-.29,0-.42.12-.13.24-.11.36-.24.12-.13.17-.07.29-.2.12-.13.05-.23.17-.37.12-.13.28,0,.41-.13.12-.13-.04-.28.09-.41.12-.13.18-.08.3-.22.12-.13.19-.07.32-.2.12-.13-.07-.29.05-.43.12-.13.29,0,.41-.14.12-.13.05-.2.18-.33.12-.13.28-.05.37-.15l-.73-.68c-.09.1.02.18-.11.31-.13.14-.18.08-.31.22Z"/>
      <path class="st2" d="M19.99,14.11c.08.17.22.06.29.23.08.17-.02.33.06.5.08.17.14.14.22.31.08.17-.06.24.02.41.08.17.22.16.29.33.08.17.33-.01.41.16.08.17-.21.33-.14.5.08.17.18.17.26.34.08.17-.16.21-.08.38.08.17.28.08.36.25.08.17.05.18.13.35.08.17-.07.25.01.42.08.17.31.09.39.26.08.17-.04.42-.04.43l.91-.42s-.2-.18-.27-.35c-.08-.17.04-.22-.04-.39-.08-.17-.2-.11-.28-.28-.08-.17.07-.24,0-.41-.08-.17-.32,0-.39-.17-.08-.17-.01-.26-.09-.43-.08-.17,0-.18-.08-.35-.08-.17-.2-.14-.28-.31-.08-.17.11-.26.04-.43-.08-.17-.28-.07-.35-.24-.08-.17-.01-.2-.09-.37-.08-.17,0-.21-.07-.38-.08-.17-.3-.05-.38-.22-.08-.17.1-.27.02-.44-.08-.17-.17-.13-.24-.3-.08-.17.06-.28,0-.41l-.91.42c.06.13.17.06.25.23.08.17,0,.2.09.37Z"/>
      <g>
        <path class="st2" d="M22.27,56.89l-.06.07-.05.08-.06.08-.03.04-.03.03h-.02s-.02.02-.02.02l-.04.02h-.04s-.04.02-.04.02h-.08s-.04.03-.04.03h-.02s-.02.02-.02.02h-.02s-.02.03-.02.03l-.03.04-.06.09-.06.09-.03.03h-.02s-.02.03-.02.03l-.03.02h-.03s-.06.03-.06.03h-.06s-.07.03-.07.03h-.02s0,0,0,0h0s0,0,0,0h0s-.03-.04-.03-.04c-.02-.03-.04-.06-.06-.09l-.06-.09-.03-.04-.02-.02h-.02s-.02-.02-.02-.02h-.02s-.03-.02-.03-.02h-.07s-.03-.01-.03-.01h-.03s-.02-.01-.02-.01h-.02s-.02-.02-.02-.02h-.02s-.07-.08-.07-.08l-.07-.08c-.05-.05-.09-.11-.13-.15l-.02-.03-.02-.03v-.03s-.02-.03-.02-.03l-.02-.07v-.04s-.04-.04-.04-.04v-.02s-.03-.02-.03-.02l-.04-.03s-.06-.03-.09-.05l-.04-.02-.04-.03-.04-.03-.02-.02v-.02s.42-.24.42-.24l.22-.12.22-.12s.01.02.02.04v.03s.02.03.02.03v.02s.02.01.02.01h0s0,.04,0,.04c0,.02,0,.04,0,.07v.04s.02.04.02.04l.02.04s.02.03.04.04c.03.03.07.08.12.13.02.03.05.05.07.07l.02.02h0s0,.01,0,.01h0s.03,0,.03,0h.02s.02-.02.02-.02l.04-.03.03-.03.03-.03s.03-.04.05-.06l.02-.03.02-.02h.01s0-.02,0-.02v-.03s.02-.03.02-.03v-.03s.02-.06.02-.06v-.03s.02-.01.02-.01c0,0,0,0,0-.01.01-.01.03-.04.04-.06.02-.02.03-.05.05-.07l.2.15.2.15.4.3-.02.03-.03.03-.07.06-.07.06-.07.06Z"/>
        <polygon class="st0" points="21.32 55.77 19.58 56.74 21.09 59.45 22.93 56.95 21.32 55.77"/>
      </g>
      <g>
        <path class="st2" d="M25.46,51.47v.02s.01.02.01.02l.02.03.02.03v.02s0,.02,0,.02h0s0,.02,0,.02v.02s-.05.04-.05.04l-.04.04v.02s-.02.01-.02.01h0s0,.02,0,.02h0s0,.03,0,.03l.02.04v.02s.02.02.02.02h0s0,.02,0,.02h0s0,.02,0,.02v.02s-.02.02-.02.02l-.03.03-.03.03-.03.04-.02.02h0s0,.02,0,.02v.02s-.02.02-.02.02l-.02.04v.02s0,.01,0,.01h0s0,.03,0,.03v.02s.05.05.05.05l.03.05v.02s.01.01.01.01h0s0,.05,0,.05v.05s-.01.06-.02.09h0s0,.02,0,.02h0s0,.01,0,.01h-.01s-.02.01-.02.01h-.03s-.01.02-.01.02h0s0,.01,0,.01h0s0,.02,0,.02v.02s.03.06.03.06v.03s.02.03.02.03h0s0,.02,0,.02h0s0,.02,0,.02l-.4-.3-.2-.15-.2-.15s.01-.01.01-.01h.01s0-.01,0-.01h0s0,0,0,0h0s0,0,0,0h.01s.03,0,.03,0h.02s0,0,0,0h0s0-.01,0-.01h0s0-.02,0-.02h0s0-.06,0-.09v-.05s0-.01,0-.01h0s0,0,0,0h0s.01-.02.01-.02l.02-.03h0s0-.02,0-.02v-.02s0-.02,0-.02v-.03s-.02-.01-.02-.01h0s0-.01,0-.01h0s0-.01,0-.01h0s0,0,0,0c0,0,0,0-.01,0h-.02s-.03-.01-.03-.01h-.01s0-.01,0-.01h0s0-.02,0-.02c0,0,0,0,0-.01l-.02-.03.22-.11.22-.11.45-.22s0,0,0,.01v.02s0,.04,0,.04v.04s0,.02,0,.02v.02Z"/>
        <polygon class="st0" points="24.11 51.98 25.72 53.17 26.44 52.19 25.91 51.1 24.11 51.98"/>
      </g>
      <g>
        <path class="st2" d="M14,28.36v.02s-.03.02-.03.02l-.03.03-.03.03v.02s-.02.02-.02.02h0s0,.02,0,.02v.02s.02.05.02.05l.02.05v.03s0,.01,0,.01h0s0,.02,0,.02h0s-.01.03-.01.03l-.03.03-.02.02-.02.02h0s0,.02,0,.02h0s0,.02,0,.02v.02s0,.02,0,.02v.04s.03.04.03.04v.05s.02.03.02.03h0s0,.02,0,.02v.02s.01.02.01.02v.05s.02.02.02.02h0s0,.02,0,.02v.02s-.03.02-.03.02l-.04.04-.04.04v.02s-.02.01-.02.01h0s0,.06,0,.06v.05s0,.07,0,.1h0s0,.02,0,.02h0s0,.01,0,.01h.01s.02.02.02.02l.03.02h.01s0,.02,0,.02h0s0,.02,0,.02h0s0,.04,0,.04l-.03.06-.02.03v.03s-.02.01-.02.01h0s0,.02,0,.02h0s.45-.21.45-.21l.22-.11.22-.11h0s-.01-.02-.01-.02h0s0-.01,0-.01h0s0-.01,0-.01h0s0-.01-.01-.01h-.03s-.02-.02-.02-.02h0s0-.01,0-.01h0s0-.02,0-.02h0s0-.02,0-.03c0-.02,0-.05,0-.09v-.05s0-.01,0-.01h0s0,0,0,0h0s0-.02,0-.02v-.03s0-.01,0-.01h0s0-.03,0-.03v-.02s.03-.03.03-.03c0,0,0-.01,0-.01h0s0-.01,0-.01h0s0-.01,0-.01h0s0,0,0,0h.02s.02,0,.02,0h.04s.01,0,.01,0h0s0,0,0,0c0,0,0,0,0-.01h.01s.03-.04.03-.04l-.18-.17-.18-.17-.37-.34h0s0,.03,0,.03v.04s-.02.04-.02.04v.02s-.02.02-.02.02Z"/>
        <polygon class="st0" points="15.15 29.22 13.36 30.11 12.75 28.87 13.69 27.86 15.15 29.22"/>
      </g>
      <g>
        <path class="st2" d="M23.08,18.73v.02s.01.02.01.02l.02.04.02.04v.02s0,.02,0,.02h0s0,.02,0,.02v.02s-.05.04-.05.04l-.04.04v.02s-.02.01-.02.01h0s0,.02,0,.02h0s0,.03,0,.03l.02.04v.02s.02.02.02.02h0s0,.02,0,.02h0s0,.02,0,.02v.02s-.02.02-.02.02l-.03.04-.03.04-.03.04-.02.02h0s0,.02,0,.02v.02s-.02.02-.02.02l-.03.04v.02s-.01.01-.01.01h0s0,.04,0,.04v.03s.04.05.04.05l.03.05v.02s0,.01,0,.01h0s0,.06,0,.06v.05s-.03.06-.04.09h0s0,.02,0,.02h0s0,.01,0,.01h-.02s-.02.01-.02.01h-.03s-.01.02-.01.02h0s0,.01,0,.01h0s0,.02,0,.02v.03s.01.06.01.06v.03s.01.03.01.03h0s0,.03,0,.03h0s0,.02,0,.02l-.37-.34-.18-.17-.18-.17s.01-.01.01-.01c0,0,.01,0,.01,0h.01s0,0,0,0h0s0,0,0,0h0s0,0,.01,0h.04s.02,0,.02,0h0s0,0,0,0h0s0-.02,0-.02h0s0-.02,0-.03c0-.02.01-.05.02-.08v-.05s.01-.01.01-.01h0s0,0,0,0h0s.01-.02.01-.02l.02-.03h0s0-.02,0-.02v-.02s0-.02,0-.02v-.03s-.02-.01-.02-.01h0s0-.01,0-.01h0s0-.01,0-.01h0s0,0,0,0c0,0,0,0-.01,0h-.02s-.03-.02-.03-.02c0,0-.01,0-.01,0h0s0-.01,0-.01c0,0,0,0,0-.01v-.02s-.03-.03-.03-.03l.23-.1.23-.1.45-.21v.02s0,.02,0,.02v.04s0,.04,0,.04v.02s0,.02,0,.02Z"/>
        <polygon class="st0" points="21.72 19.2 23.19 20.56 24.1 19.57 23.54 18.36 21.72 19.2"/>
      </g>
      <g>
        <path class="st2" d="M18.49,12.44l.03-.02.03-.03.06-.06.06-.05.03-.02.03-.02h.02s.02-.01.02-.01h.03s.04,0,.04,0h.04s.07.01.07.01h.04s.02,0,.02,0h.02s.02-.01.02-.01h.02s.03-.03.03-.03l.07-.06.07-.06.03-.02h.02s.02-.01.02-.01h.03s.03,0,.03,0h.06s.06,0,.06,0h.06s.02,0,.02,0h0s0,0,0,0h0s0,0,0,0l.03.03.05.08.05.08.03.03h.01s.01.03.01.03h.01s.02.02.02.02h.03s.07.02.07.02h.03s.03.01.03.01h.03s.01.02.01.02h.01s.06.07.06.07l.06.07s.07.09.11.13l.02.03v.03s.02.03.02.03v.03s.01.06.01.06v.03s.03.03.03.03v.02s.02.01.02.01l.03.02s.05.03.08.04l.04.02.04.03h.02s.01.03.01.03v.02s.02.02.02.02l-.45.21-.23.1-.23.1v-.03s-.02-.03-.02-.03v-.02s-.02-.02-.02-.02h0s0-.02,0-.02v-.03s0-.06,0-.06v-.03s-.01-.03-.01-.03v-.02s-.02-.02-.02-.02v-.02s-.03-.02-.03-.02c-.02-.03-.06-.07-.1-.12-.02-.02-.04-.05-.06-.07h-.01s0-.02,0-.02h0s0,0,0,0h-.03s-.02,0-.02,0h-.02s-.04.01-.04.01l-.03.02-.03.02-.05.04-.02.02h-.02s-.01.02-.01.02h0s0,.02,0,.02h0s-.01.03-.01.03v.03s-.03.05-.03.05v.02s-.02,0-.02,0h0s-.03.03-.05.05c-.02.02-.04.03-.05.05l-.16-.19-.16-.19-.32-.38.03-.02.03-.02.07-.03.07-.03.04-.02.03-.02Z"/>
        <polygon class="st0" points="19.2 13.72 21.01 12.89 19.91 10.49 17.9 12.2 19.2 13.72"/>
      </g>
    </g>
  </g>
  <g>
    <polygon class="st2" points="44.41 16.76 57.4 18.04 62.08 10.62 53.91 10.76 44.41 16.76"/>
    <g>
      <path class="st2" d="M60.33,12.55c-.1.17.06.22-.04.39-.1.17-.3.18-.4.35-.1.17-.05.2-.15.37-.1.17-.24.09-.34.25-.1.17-.02.27-.12.44-.1.17.19.28.08.44-.1.17-.4.01-.51.18-.1.17-.05.26-.16.42-.1.17-.26-.02-.37.15-.1.17.08.28-.03.45-.1.17-.13.15-.23.32-.1.17-.25.09-.35.25-.1.17.09.32-.02.48-.1.17-.38.21-.39.22l.85.53s.05-.27.15-.43c.1-.17.21-.1.31-.26.1-.17-.01-.24.09-.41.1-.17.24-.07.35-.24.1-.16-.17-.27-.07-.43.1-.16.22-.16.32-.33.1-.16.16-.1.26-.27.1-.17.01-.25.12-.41.1-.17.29-.06.39-.22.1-.17-.08-.28.02-.44.1-.17.17-.13.27-.29.1-.17.18-.11.29-.28.1-.17-.12-.28-.02-.45.1-.17.29-.07.39-.24.1-.17.02-.22.13-.38.1-.17.27-.12.35-.24l-.85-.53c-.08.12.04.18-.06.34-.1.17-.17.12-.27.29Z"/>
      <path class="st2" d="M53.96,11.26s.05-.06.06-.11c.02-.05.03-.11.14-.12.2,0,.36.15.58.14.23,0,.23-.07.45-.08.23,0,.24.15.46.15.23,0,.28-.13.51-.14.23,0,.15-.31.38-.31.23,0,.27.33.49.33.23,0,.28-.1.51-.1.23,0,.15.23.38.23.23,0,.23-.22.45-.23.23,0,.23.02.46.02.23,0,.24.16.47.15.23,0,.25-.25.48-.25.23,0,.44.21.46.21l-.02-1s-.29.11-.52.11c-.23,0-.23-.12-.45-.12-.23,0-.23.14-.45.15-.23,0-.23-.16-.45-.16-.23,0-.15.29-.38.29-.23,0-.3-.09-.53-.09-.23,0-.2-.07-.43-.07-.23,0-.25.13-.48.13-.23,0-.24-.21-.46-.21-.23,0-.22.22-.44.23-.23,0-.23-.07-.45-.06-.23,0-.23-.09-.46-.09-.23,0-.2.26-.43.26-.18,0-.29-.14-.5-.18-.03.01-.07.03-.12.06-.29.18-.2.24-.4.37-.19.12-.33,0-.47.1l.53.85c.14-.09.05-.19.25-.31.17-.11.27-.08.38-.15Z"/>
      <path class="st2" d="M47.81,15.14c.19-.12.06-.24.25-.36.19-.12.39-.06.58-.18.19-.12.16-.18.35-.3.19-.12.28,0,.47-.12.19-.12.17-.26.36-.38.19-.12-.03-.34.16-.46.19-.12.4.14.59.02.19-.12.19-.23.38-.35.19-.12.25.12.44,0,.19-.12.08-.31.27-.43.19-.12.21-.1.4-.22.19-.12.29,0,.48-.11.19-.12.09-.34.28-.46.19-.12.49-.05.5-.06l-.53-.85s-.19.24-.38.37c-.19.12-.26.02-.45.14-.19.12-.12.24-.31.36-.19.12-.28-.02-.47.1-.19.12.02.33-.17.45-.19.12-.31.07-.5.2-.19.12-.21.04-.4.16-.19.12-.15.24-.34.36-.19.12-.31-.06-.5.06-.19.12-.07.3-.26.42-.19.12-.23.06-.42.18-.19.12-.24.04-.43.16-.19.12-.04.32-.23.45-.19.12-.32-.04-.51.08-.19.12-.14.2-.33.32-.19.12-.33,0-.47.1l.53.85c.14-.09.05-.19.25-.31.19-.12.23-.06.42-.18Z"/>
      <path class="st2" d="M51.56,17.02c-.15-.01-.13.16-.28.14-.15-.01-.22-.18-.37-.19-.15-.01-.15.05-.3.04-.15-.01-.14-.17-.28-.18-.15-.01-.2.11-.34.1-.15-.01-.13.29-.28.28-.15-.01-.14-.35-.28-.36-.15-.01-.19.07-.34.06-.15-.01-.07-.24-.22-.25-.15-.01-.17.2-.32.19-.15-.01-.14-.04-.29-.06-.15-.01-.14-.18-.29-.19-.15-.01-.19.22-.34.21-.15-.01-.26-.24-.27-.24l-.1,1s.2-.08.35-.07c.15.01.13.14.28.15.15.01.16-.12.31-.11.15.01.13.18.27.19.15.01.13-.28.28-.26.15.01.18.12.33.13.15.01.12.09.27.1.15.01.18-.1.32-.09.15.01.13.23.28.24.15.01.16-.2.31-.19.15.01.14.09.29.1.15.01.14.11.28.12.15.01.16-.24.3-.23.15.01.14.22.29.23.15.01.16-.08.3-.07.15.01.17.19.28.2l.1-1c-.11-.01-.11.12-.26.11-.15-.01-.14-.09-.29-.11Z"/>
      <path class="st2" d="M56.29,17.48c-.15-.01-.13.16-.28.14-.15-.01-.22-.18-.37-.19-.15-.01-.15.05-.3.04-.15-.01-.14-.17-.28-.18-.15-.01-.2.11-.34.1-.15-.01-.13.29-.28.28-.15-.01-.14-.35-.28-.36-.15-.01-.19.07-.34.06-.15-.01-.07-.24-.22-.25-.15-.01-.17.2-.32.19-.15-.01-.14-.04-.29-.06-.15-.01-.14-.18-.29-.19-.15-.01-.19.22-.34.21-.15-.01-.26-.24-.27-.24l-.1,1s.2-.08.35-.07c.15.01.13.14.28.15.15.01.16-.12.31-.11.15.01.13.18.27.19.15.01.13-.28.28-.26.15.01.18.12.33.13.15.01.12.09.27.1.15.01.18-.1.32-.09.15.01.13.23.28.24.15.01.16-.2.31-.19.15.01.14.09.29.1.15.01.14.11.28.12.15.01.16-.24.3-.23.15.01.14.22.29.23.15.01.16-.08.3-.07.15.01.17.19.28.2l.1-1c-.11-.01-.11.12-.26.11-.15-.01-.14-.09-.29-.11Z"/>
      <g>
        <path class="st2" d="M60.63,10.21h.11s.12,0,.12,0h.12s.06,0,.06,0h.05s.02.01.02.01h.02s.04.03.04.03l.04.02.03.03.07.05.04.02.05.02h.05s.06.01.06.01c.04,0,.08,0,.13,0,.04,0,.09,0,.13,0h.06s.03,0,.03,0h.02s.04.02.04.02l.03.02.06.04.06.04.07.04h.02s0,.02,0,.02h0s0,0,0,0h0s-.02.06-.02.06c-.02.04-.04.08-.06.12-.02.04-.04.08-.06.12l-.02.05v.05s-.02.02-.02.02v.02s0,.04,0,.04l.02.07v.04s.02.04.02.04v.02s0,.02,0,.02v.02s0,.02,0,.02c-.02.07-.05.14-.08.22-.03.08-.06.15-.09.22l-.02.04-.03.04-.06.06-.06.06-.03.04-.03.04v.02s-.02.03-.02.03v.05s-.02.07-.02.11v.06s-.01.06-.01.06l-.02.06v.03s-.03.03-.03.03l-.42-.27-.21-.13-.21-.13s.02-.03.03-.04l.02-.03.02-.02.02-.03v-.02s.02-.01.02-.01l.02-.02s.04-.03.06-.05l.03-.03.03-.04.03-.05s.02-.04.03-.06c.02-.04.05-.12.08-.2.01-.04.03-.08.04-.11v-.02s.01-.01.01-.01h0s0,0,0,0l-.02-.02h-.03s-.03-.03-.03-.03l-.05-.02h-.05s-.05-.01-.05-.01c-.03,0-.07,0-.09,0h-.04s-.04,0-.04,0h-.02s-.02,0-.02,0h-.03s-.03.01-.03.01h-.03s-.07.04-.07.04h-.04s-.02.01-.02.01h-.02s-.13,0-.19,0v-.25s0-.25,0-.25v-.5s.04,0,.04,0h.05s.07.02.1.02l.11.02h.11Z"/>
        <polygon class="st0" points="60.25 11.65 61.94 12.72 63.91 9.59 60.21 9.65 60.25 11.65"/>
      </g>
      <g>
        <path class="st2" d="M46.62,17.41c-.06,0-.11-.01-.17-.02h-.18s-.18-.03-.18-.03h-.09s-.08-.03-.08-.03l-.07-.02-.06-.03-.05-.03-.05-.03-.1-.06-.06-.03-.07-.02-.08-.02h-.09c-.06-.02-.13-.02-.2-.03-.07,0-.13-.01-.2-.02h-.09s-.08-.03-.08-.03l-.06-.02-.05-.02-.09-.05-.08-.05s-.07-.03-.1-.05h-.03s-.01-.02-.01-.02h0s0,0,0,0h0s.07-.06.07-.06c.05-.04.11-.08.17-.12.06-.04.12-.08.17-.12l.07-.06.06-.05.04-.05.03-.05.02-.05.02-.04.02-.04.02-.05.03-.05.05-.05c.08-.07.18-.15.27-.23.1-.08.2-.16.29-.23.02-.02.04-.03.06-.05l.06-.04.12-.06.12-.06.06-.03.07-.04.06-.05.06-.06s.07-.08.11-.13l.05-.07.06-.06.07-.06.08-.06.27.42.13.21.13.21s-.08.05-.11.06l-.04.02-.04.03-.05.03-.05.02s-.07.03-.11.04l-.06.03-.07.04s-.05.03-.07.05c-.02.02-.05.04-.08.07-.05.04-.16.13-.26.21-.05.04-.1.08-.14.12l-.03.03h-.01s0,.02,0,.02h0s0,0,0,0h0s0,0,0,0h0s0,0,0,0l.04.02s.05.02.08.03c.03,0,.05.02.08.02l.08.02h.08c.05.02.1.02.15.03h.06s.05.02.05.02h.03s.03,0,.03,0h.05s.07,0,.11-.01c.04,0,.08,0,.11-.01h.06s.06,0,.06,0c.06,0,.2.02.3.03l-.02.25-.02.25-.05.5s-.09-.01-.14-.02c-.05-.01-.1-.02-.16-.04l-.17-.04c-.06-.01-.11-.02-.17-.03Z"/>
        <polygon class="st0" points="47.41 16.05 46.34 14.36 41.42 17.47 47.21 18.04 47.41 16.05"/>
      </g>
      <g>
        <path class="st2" d="M58.02,17.86h-.01s0,.03,0,.03l-.02.04-.02.03h-.01s-.02.03-.02.03h0s-.01,0-.01,0h-.02s-.06,0-.06,0h-.06s-.03-.01-.03-.01h-.01s-.01,0-.01,0h0s0,0,0,0h-.01s-.02.05-.02.05v.02s-.02.02-.02.02h0s0,.01,0,.01h0s-.01,0-.01,0h-.02s-.02,0-.02,0h-.04s-.05-.01-.05-.01h-.05s-.03,0-.03,0h0s-.01,0-.01,0h-.02s-.02,0-.02,0h-.05s-.02.01-.02.01h0s0,.01,0,.01l-.02.02v.02s-.04.05-.04.05l-.02.05v.02s-.02,0-.02,0h0s-.04.03-.04.03l-.04.02s-.06.02-.08.03h0s0,0,0,0h0s0,0,0,0h-.01s-.01-.02-.01-.02l-.03-.02h-.01s0,0,0,0h0s0,0,0,0h0s-.02.02-.02.02l-.04.05-.02.02-.02.02h-.01s-.01.01-.01.01h-.01s-.01,0-.01,0l.05-.5.02-.25.02-.25s.02,0,.02,0h.01s0,.01,0,.01h0s0,0,0,0h0s0,0,0,0h.01s.02.03.02.03h.01s0,.02,0,.02h0s0,0,0,0h.01s.01,0,.01,0h.01s.04-.03.07-.04l.04-.02h0s0,0,0,0h0s0,0,0,0h.02s.03,0,.03,0h.01s.01,0,.01,0h.02s.01-.02.01-.02l.02-.03h0s0-.01,0-.01h0s0,0,0,0h0s0,0,0,0h0s0-.02,0-.02v-.02s-.01-.03-.01-.03h0s0-.02,0-.02h0s0-.01,0-.02h0s.02-.05.02-.05l.21.13.21.13.42.27s0,0-.01.01h-.01s-.04.03-.04.03l-.04.02h-.02s-.01.02-.01.02Z"/>
        <polygon class="st0" points="56.89 16.99 56.69 18.98 57.92 19.1 58.58 18.05 56.89 16.99"/>
      </g>
    </g>
  </g>
  <g>
    <path class="st2" d="M55.96,52.15"/>
    <path class="st1" d="M55.96,52.15"/>
  </g>
  <g>
    <polygon class="st2" points="60.09 56.95 42.48 71.31 41.98 62.96 56.21 53.53 60.09 56.95"/>
    <g>
      <path class="st2" d="M41.61,64.23c.01.18.18.13.19.31.01.18-.14.3-.13.48.01.18.08.18.09.36.01.18-.14.19-.13.38.01.18.14.22.15.4.01.18.31.11.32.29.01.18-.32.23-.31.41.01.18.11.22.12.4.01.18-.22.13-.21.31.01.18.23.17.24.35.01.18-.02.18,0,.36.01.18-.15.2-.14.38.01.18.25.19.26.37.01.18-.19.36-.19.37l1-.06s-.12-.23-.13-.41c-.01-.18.11-.19.1-.37-.01-.18-.15-.17-.16-.35-.01-.18.16-.19.14-.37-.01-.18-.29-.11-.31-.29-.01-.18.09-.24.07-.42-.01-.18.07-.16.06-.34-.01-.18-.13-.19-.14-.37-.01-.18.2-.2.19-.38-.01-.18-.23-.16-.24-.34-.01-.18.06-.18.05-.36-.01-.18.08-.19.07-.37-.01-.18-.26-.15-.27-.33-.01-.18.19-.21.18-.39-.01-.18-.11-.17-.12-.35-.01-.18.15-.23.15-.37l-1,.06c0,.14.14.11.15.29.01.18-.07.18-.06.37Z"/>
      <path class="st2" d="M46.09,59.71c-.14.09-.01.21-.15.3-.14.09-.3.01-.44.1-.14.09-.1.15-.23.24-.14.09-.22-.04-.36.05-.14.09-.1.22-.23.31-.14.09.08.32-.06.41-.14.09-.34-.18-.47-.09-.14.09-.12.19-.25.28-.14.09-.22-.14-.35-.05-.14.09-.02.27-.15.36-.14.09-.15.07-.29.16-.14.09-.23-.04-.37.05-.14.09-.02.3-.16.39-.14.09-.38,0-.39,0l.55.83s.12-.2.25-.29c.14-.09.2.01.34-.08.14-.09.06-.21.2-.3.14-.09.22.05.36-.04.14-.09-.06-.3.07-.39.13-.09.23-.03.37-.12.13-.09.16-.02.3-.1.14-.09.08-.2.22-.29.14-.09.26.09.39,0,.14-.09.01-.27.15-.36.14-.09.18-.03.31-.12.14-.09.19-.01.32-.1.14-.09-.02-.29.12-.38.14-.09.26.07.4-.02.14-.09.08-.17.22-.26.14-.09.26.03.36-.04l-.55-.83c-.1.07-.02.17-.15.26-.14.09-.18.02-.31.12Z"/>
      <path class="st2" d="M50.46,56.81c-.14.09-.01.21-.15.3-.14.09-.3.01-.44.1-.14.09-.1.15-.23.24-.14.09-.22-.04-.36.05-.14.09-.1.22-.23.31-.14.09.08.32-.06.41-.14.09-.34-.18-.47-.09-.14.09-.12.19-.25.28-.14.09-.22-.14-.35-.05-.14.09-.02.27-.15.36-.14.09-.15.07-.29.16-.14.09-.23-.04-.37.05-.14.09-.02.3-.16.39-.14.09-.38,0-.39,0l.55.83s.12-.2.25-.29c.14-.09.2.01.34-.08.14-.09.06-.21.2-.3.14-.09.22.05.36-.04.14-.09-.06-.3.07-.39.13-.09.23-.03.37-.12.13-.09.16-.02.3-.1.14-.09.08-.2.22-.29.14-.09.26.09.39,0,.14-.09.01-.27.15-.36.14-.09.18-.03.31-.12.14-.09.19-.01.32-.1.14-.09-.02-.29.12-.38.14-.09.26.07.4-.02.14-.09.08-.17.22-.26.14-.09.26.03.36-.04l-.55-.83c-.1.07-.02.17-.15.26-.14.09-.18.02-.31.12Z"/>
      <path class="st2" d="M54.83,53.91c-.14.09-.01.21-.15.3-.14.09-.3.01-.44.1-.14.09-.1.15-.23.24-.14.09-.22-.04-.36.05-.14.09-.1.22-.23.31-.14.09.08.32-.06.41-.14.09-.34-.18-.47-.09-.14.09-.12.19-.25.28-.14.09-.22-.14-.35-.05-.14.09-.02.27-.15.36-.14.09-.15.07-.29.16-.14.09-.23-.04-.37.05-.14.09-.02.3-.16.39-.14.09-.38,0-.39,0l.55.83s.12-.2.25-.29c.14-.09.2.01.34-.08.14-.09.06-.21.2-.3.14-.09.22.05.36-.04.14-.09-.06-.3.07-.39.13-.09.23-.03.37-.12.13-.09.16-.02.3-.1.14-.09.08-.2.22-.29.14-.09.26.09.39,0,.14-.09.01-.27.15-.36.14-.09.18-.03.31-.12.14-.09.19-.01.32-.1.14-.09-.02-.29.12-.38.14-.09.26.07.4-.02.14-.09.08-.17.22-.26.14-.09.26.03.36-.04l-.55-.83c-.1.07-.02.17-.15.26-.14.09-.18.02-.31.12Z"/>
      <path class="st2" d="M59.23,55.59c-.08-.07-.17.08-.25,0-.08-.07-.02-.22-.09-.29-.08-.07-.12-.02-.2-.08-.08-.07.02-.18-.05-.25-.08-.07-.18.02-.25-.05-.08-.07-.25.18-.33.12-.08-.07.13-.33.06-.39-.08-.07-.15-.01-.23-.08-.08-.07.1-.22.03-.28-.08-.07-.22.1-.3.03-.08-.07-.06-.09-.13-.15-.08-.07.03-.19-.05-.26-.08-.07-.24.11-.32.04-.08-.07,0-.29,0-.29l-.66.75s.17,0,.24.07c.07.07,0,.16.07.23.08.07.17-.04.24.03.07.07-.04.19.04.26.07.07.24-.17.32-.1.07.07.03.16.11.23.07.07.02.12.09.18.08.07.16-.02.24.05.08.07-.06.23.01.29.07.07.22-.1.29-.03.07.07.03.12.1.19.08.07.01.14.09.2.08.07.24-.13.31-.07.08.07-.05.23.02.29.07.07.14,0,.21.06.07.07-.02.21.04.26l.66-.75c-.06-.05-.14.06-.21-.01-.08-.07-.02-.12-.1-.19Z"/>
      <path class="st2" d="M54.97,61.7c.16-.13.02-.23.17-.36.16-.13.35-.08.5-.21.16-.13.11-.18.27-.31.16-.13.26-.01.42-.14.16-.13.11-.26.27-.39.16-.13-.08-.33.07-.45.16-.13.39.11.55-.02.16-.13.14-.23.29-.36.16-.13.25.1.4-.03.16-.13.02-.3.18-.43.16-.13.17-.11.33-.24.16-.13.27,0,.43-.14.16-.13.03-.33.18-.46.16-.13.44-.08.45-.09l-.63-.78s-.14.25-.29.37c-.16.13-.23.03-.39.16-.16.13-.07.24-.23.36-.16.13-.26,0-.42.12-.16.13.07.31-.08.44-.16.13-.27.09-.43.22-.16.13-.19.05-.34.18-.16.13-.1.24-.26.36-.16.13-.3-.03-.45.09-.16.13-.01.29-.17.42-.16.13-.2.07-.36.2-.16.13-.22.05-.37.18-.16.13.02.31-.14.44-.16.13-.3-.02-.46.11-.16.13-.1.2-.25.33-.16.13-.3.03-.42.12l.63.78c.12-.1.02-.19.18-.31.16-.13.2-.07.36-.2Z"/>
      <path class="st2" d="M49.91,65.83c.16-.13.02-.23.17-.36.16-.13.35-.08.5-.21.16-.13.11-.18.27-.31.16-.13.26-.01.42-.14.16-.13.11-.26.27-.39.16-.13-.08-.33.07-.45.16-.13.39.11.55-.02.16-.13.14-.23.29-.36.16-.13.25.1.4-.03.16-.13.02-.3.18-.43.16-.13.17-.11.33-.24.16-.13.27,0,.43-.14.16-.13.03-.33.18-.46.16-.13.44-.08.45-.09l-.63-.78s-.14.25-.29.37c-.16.13-.23.03-.39.16-.16.13-.07.24-.23.36-.16.13-.26,0-.42.12-.16.13.07.31-.08.44-.16.13-.27.09-.43.22-.16.13-.19.05-.34.18-.16.13-.1.24-.26.36-.16.13-.3-.03-.45.09-.16.13-.01.29-.17.42-.16.13-.2.07-.36.2-.16.13-.22.05-.37.18-.16.13.02.31-.14.44-.16.13-.3-.02-.46.11-.16.13-.1.2-.25.33-.16.13-.3.03-.42.12l.63.78c.12-.1.02-.19.18-.31.16-.13.2-.07.36-.2Z"/>
      <path class="st2" d="M44.85,69.95c.16-.13.02-.23.17-.36.16-.13.35-.08.5-.21.16-.13.11-.18.27-.31.16-.13.26-.01.42-.14.16-.13.11-.26.27-.39.16-.13-.08-.33.07-.45.16-.13.39.11.55-.02.16-.13.14-.23.29-.36.16-.13.25.1.4-.03.16-.13.02-.3.18-.43.16-.13.17-.11.33-.24.16-.13.27,0,.43-.14.16-.13.03-.33.18-.46.16-.13.44-.08.45-.09l-.63-.78s-.14.25-.29.37c-.16.13-.23.03-.39.16-.16.13-.07.24-.23.36-.16.13-.26,0-.42.12-.16.13.07.31-.08.44-.16.13-.27.09-.43.22-.16.13-.19.05-.34.18-.16.13-.1.24-.26.36-.16.13-.3-.03-.45.09-.16.13-.01.29-.17.42-.16.13-.2.07-.36.2-.16.13-.22.05-.37.18-.16.13.02.31-.14.44-.16.13-.3-.02-.46.11-.16.13-.1.2-.25.33-.16.13-.3.03-.42.12l.63.78c.12-.1.02-.19.18-.31.16-.13.2-.07.36-.2Z"/>
      <g>
        <path class="st2" d="M42.12,62.36h-.01s-.01.02-.01.02l-.03.02-.03.02h-.01s-.01.03-.01.03h0s0,.02,0,.02v.02s.01.05.01.05v.06s.01.03.01.03v.02s0,0,0,0h0s-.01.02-.01.02l-.04.02h-.02s-.02.02-.02.02h0s0,.01,0,.01h0s0,.02,0,.02v.04s0,.04,0,.04v.04s.01.05.01.05v.03s0,0,0,0h0s0,.03,0,.03v.02s-.01.04-.01.04v.02s-.01,0-.01,0h0s-.02.02-.02.02h-.02s-.06.03-.06.03l-.05.02h-.02s0,.02,0,.02h0s-.02.04-.02.04l-.02.04s-.03.05-.04.07h0s0,.02,0,.02h0s0,.01,0,.01h0s.01.02.01.02l.02.03s0,0,0,.01h0s0,.02,0,.02h0s0,.02,0,.02l-.02.02-.05.03-.03.02-.02.02h0s0,.02,0,.02h0s0,.02,0,.02l.5-.03h.25s.25-.03.25-.03h0s0-.01,0-.01h0s0-.02,0-.02h0s0-.01,0-.01h0s0-.01,0-.01h0s-.02-.03-.02-.03h-.01s0-.02,0-.02h0s0-.02,0-.02h0s0-.02,0-.02h0s.02-.05.04-.08l.02-.04h0s0-.01,0-.01h0s0,0,0,0v-.02s0-.03,0-.03h0s0-.02,0-.02v-.02s.02-.01.02-.01l.02-.02h0s0-.01,0-.01h0s0-.01,0-.01h0s0,0,0,0h0s0,0,.01,0h.02s.03.01.03.01h.01s0,0,0,0h0s0-.01,0-.01c0,0,0,0,.01,0h.03s-.14-.22-.14-.22l-.14-.21-.28-.42h-.01s0,.02,0,.02l-.02.03-.02.04v.02s-.02.01-.02.01Z"/>
        <polygon class="st0" points="43.01 63.48 41.02 63.6 40.95 62.45 41.91 61.81 43.01 63.48"/>
      </g>
      <g>
        <path class="st2" d="M56.94,53.6h-.02s-.02-.03-.02-.03l-.03-.03-.03-.03h-.02s-.02-.02-.02-.02h-.01s-.01,0-.01,0h-.03s-.06.02-.06.02l-.06.02h-.03s-.01,0-.01,0h-.01s-.01,0-.01,0h-.01s-.02-.02-.02-.02l-.04-.04-.02-.02-.02-.02h-.01s-.01-.01-.01-.01h-.01s-.01,0-.01,0h-.02s-.02,0-.02,0h-.04s-.04.03-.04.03h-.05s-.03.02-.03.02h-.03s-.03.01-.03.01h-.03s-.05.03-.05.03h-.03s-.01,0-.01,0h-.01s-.02,0-.02,0h-.02s-.05-.05-.05-.05l-.05-.03h-.02s-.01-.01-.01-.01h-.01s-.05,0-.05,0h-.05s-.07.02-.1.03h-.01s0,0,0,0h0s0,.01,0,.01v.02s-.02.02-.02.02l-.02.03h-.01s0,.02,0,.02h0s-.01,0-.01,0h-.01s-.03,0-.03,0l-.06-.02h-.03s-.03-.02-.03-.02h-.01s-.01,0-.01,0h-.01s-.01,0-.01,0l.28.42.14.21.14.21h.01s0-.02,0-.02h0s0-.01,0-.01h0s0,0,0,0h0s0-.02,0-.02v-.04s.02-.02.02-.02h0s0-.02,0-.02h0s.01-.01.01-.01h.01s.02,0,.02,0c.02,0,.06,0,.09-.01h.05s.01,0,.01,0h0s0,0,0,0h0s.02,0,.02,0h.02s.02,0,.02,0h.01s.01,0,.01,0h.02s.02.02.02.02l.03.02h.01s0,.01,0,.01h0s0,0,0,0h0s0,0,0,0h0s0,.02,0,.02v.02s0,.04,0,.04v.02s.01,0,.01,0h0s0,.01.01.01h.01s.03.04.03.04l.17-.19.17-.19.33-.38h-.02s-.02-.02-.02-.02h-.05s-.05-.02-.05-.02h-.02s-.02-.02-.02-.02Z"/>
        <polygon class="st0" points="56.12 54.79 55.02 53.12 56.3 52.28 57.45 53.29 56.12 54.79"/>
      </g>
      <g>
        <path class="st2" d="M59.65,57.86l.03-.02.03-.02.06-.04.06-.05.03-.02.02-.03h0s0-.03,0-.03v-.03s0-.03,0-.03v-.03s0-.07,0-.07v-.03s0-.02,0-.02v-.02s.02-.01.02-.01h.01s.03-.04.03-.04l.07-.05.06-.05.02-.03h0s0-.03,0-.03v-.03s.01-.03.01-.03v-.05s0-.05,0-.05v-.06s0-.02,0-.02h0s0-.01,0-.01h0s-.02-.04-.02-.04l-.06-.06-.06-.06-.02-.03v-.02s-.01-.02-.01-.02v-.02s0-.02,0-.02v-.03s.01-.06.01-.06v-.03s.01-.03.01-.03v-.03s0-.02,0-.02v-.02s-.04-.06-.04-.06l-.04-.07s-.06-.09-.08-.13h0s-.01-.02-.01-.02l-.02-.02h-.02s-.03-.02-.03-.02l-.05-.02-.03-.02-.02-.02h-.01s0-.03,0-.03v-.04s-.02-.05-.03-.08v-.04s-.02-.04-.02-.04v-.02s-.02-.02-.02-.02v-.02s-.02-.01-.02-.01l-.33.38-.17.19-.17.19.02.02h.02s.02.02.02.02h.02s0,.02,0,.02h0s.02.01.02.01h.05s.03.02.03.02l.03.02h.01s.01.03.01.03v.02s.02.02.02.02c.02.03.04.07.07.12.01.02.03.05.04.07v.02s.01,0,.01,0h0s0,0,0,0v.02s0,.02,0,.02v.02s-.01.02-.01.02v.02s-.03.03-.03.03l-.02.02-.05.04-.02.02v.02s-.02,0-.02,0h0s0,.01,0,.01h-.01s-.02.01-.02.01h-.03s-.05.01-.05.01h-.02s0,.01,0,.01h0s-.02.02-.02.02l-.03.02s-.04.03-.05.04l.16.19.16.19.32.39.02-.02.02-.02.04-.06.04-.06.02-.03.02-.03Z"/>
        <polygon class="st0" points="58.55 56.92 59.87 55.42 61.64 56.98 59.81 58.47 58.55 56.92"/>
      </g>
      <g>
        <path class="st2" d="M41.96,69.82v.12s.01.12.01.12v.12s.01.06.01.06v.06s.02.03.02.03v.02s.03.04.03.04l.03.04.03.03.06.07.02.04.02.05v.05s.02.06.02.06c0,.04,0,.09,0,.13,0,.05,0,.09,0,.13v.06s.02.03.02.03v.02s.03.04.03.04l.02.03.04.06.05.06.05.07v.02s.02,0,.02,0h0s0,0,0,0h0s.05-.03.05-.03c.04-.02.08-.05.12-.08.04-.03.08-.06.12-.08l.05-.03.05-.02h.02s.02-.01.02-.01h.04s.08,0,.08,0h.04s.04,0,.04,0h.02s.02,0,.02,0h.02s.02-.02.02-.02c.06-.03.14-.07.22-.11.08-.04.15-.09.21-.12l.04-.03.04-.03.06-.07.06-.07.03-.03.04-.03h.02s.03-.03.03-.03l.05-.02s.08-.02.12-.03h.06s.06-.03.06-.03l.06-.03.03-.02.03-.02-.32-.39-.16-.19-.16-.19s-.03.02-.04.03l-.03.03-.02.02-.03.02h-.01s-.01.02-.01.02l-.02.03s-.03.04-.05.07l-.03.04-.04.04-.05.04s-.04.02-.06.04c-.04.02-.12.07-.2.11-.04.02-.08.04-.11.06h-.02s-.01.02-.01.02h0s0,0,0,0h0s0,0,0,0h0s0,0,0,0l-.02-.02-.02-.03v-.03s-.03-.05-.03-.05v-.05s-.02-.05-.02-.05c0-.04,0-.07,0-.1v-.04s-.01-.04-.01-.04v-.02s0-.02,0-.02v-.04s0-.04,0-.04v-.04s.03-.08.03-.08v-.04s0-.02,0-.02v-.02s0-.14,0-.2h-.25s-.25.03-.25.03l-.5.03v.05s.01.05.01.05c0,.03.02.07.03.11l.03.11.02.11Z"/>
        <polygon class="st0" points="43.36 69.3 44.62 70.85 41.6 73.32 41.36 69.42 43.36 69.3"/>
      </g>
    </g>
  </g>
  <g>
    <path d="M9.19,30.62c-.12-.13-.28-.23-.44-.28-.16-.05-.34-.05-.52,0-.18.04-.33.13-.45.24-.13.12-.26.25-.31.42-.05.16-.04.35,0,.53l1.95-.43c-.04-.18-.12-.35-.23-.47Z"/>
    <path d="M12.65,40.79c-.19-.32-.44-.07-.64-.39-.19-.32-.04-.67-.24-.99-.19-.32-.31-.25-.5-.57-.2-.32.06-.49-.11-.78-.15-.27-.41-.22-.52-.5-.08-.26-.65-.03-.73-.39-.08-.36.56-.56.48-.93-.08-.36-.28-.41-.36-.77-.08-.36.4-.34.32-.7-.08-.36-.51-.27-.59-.64-.08-.36-.03-.38-.11-.74-.08-.36.23-.45.15-.82-.08-.36-.56-.31-.64-.67-.08-.36.26-.79.26-.82l-1.95.43s.31.43.39.79c.08.36-.16.42-.08.78.08.36.35.31.43.67.08.36-.25.43-.16.79.08.36.62.13.7.49.08.36-.09.52,0,.88.08.36-.08.35,0,.72.08.36.33.35.41.72.08.34-.34.51-.17.97.18.44.58.23.77.59.2.34.08.41.27.73.19.32.03.42.22.73.19.32.61.02.8.34.19.32-.14.56.06.88.19.32.36.22.55.53.19.32-.05.57.1.81l1.71-1.04c-.14-.24-.35-.07-.54-.39-.19-.32-.06-.4-.25-.72Z"/>
    <path d="M18.88,51.05c-.19-.32-.44-.07-.64-.39-.19-.32-.04-.67-.24-.99-.19-.32-.31-.25-.5-.57-.19-.32.06-.49-.13-.8-.19-.32-.46-.26-.66-.58-.19-.32-.66.1-.85-.22-.19-.32.35-.71.16-1.03-.19-.32-.4-.3-.59-.62-.19-.32.27-.45.08-.76-.19-.32-.57-.1-.76-.42-.19-.32-.15-.35-.34-.67-.19-.32.07-.5-.12-.82-.19-.32-.63-.11-.83-.43-.19-.32,0-.84-.02-.86l-1.71,1.04s.43.3.62.62c.19.32-.02.45.17.76.19.32.43.18.62.49.19.32-.09.48.1.8.19.32.63-.08.82.24.19.32.08.52.28.84.19.32.04.36.23.68.19.32.42.23.62.55.19.32-.17.55.03.86.19.32.56.08.76.4.19.32.07.39.26.71.19.32.03.42.22.73.19.32.61.02.8.34.19.32-.14.56.06.88.19.32.36.22.55.53.19.32-.05.57.1.81l1.71-1.04c-.14-.24-.35-.07-.54-.39-.19-.32-.06-.4-.25-.72Z"/>
    <path d="M26.46,59.54c-.31-.22-.44.11-.74-.1-.31-.21-.31-.59-.62-.81-.31-.21-.39-.1-.7-.31-.31-.21-.15-.47-.46-.68-.31-.21-.53-.04-.85-.25-.31-.21-.56.37-.86.16-.29-.22.14-.74-.05-.95-.2-.23-.4-.19-.59-.48-.19-.29.27-.43.1-.72-.17-.3-.56-.1-.73-.42-.18-.33-.13-.35-.31-.69-.18-.33.07-.54-.12-.86-.19-.32-.63-.11-.83-.43-.19-.32,0-.84-.02-.86l-1.71,1.04s.43.3.62.62c.19.32-.02.45.17.76.19.31.41.15.59.47.17.32-.12.47.06.8.18.34.63-.04.82.29.19.33.09.54.31.88.24.33.08.39.36.72.31.33.51.2.87.47.34.24.09.57.41.78.31.2.54-.17.85.04.31.21.23.33.53.53.31.21.2.36.5.57.3.21.56-.23.87-.02.3.21.1.57.4.78.3.21.41.05.72.27.3.21.18.54.41.7l1.16-1.63c-.23-.16-.35.07-.66-.15-.31-.22-.21-.34-.52-.56Z"/>
    <path d="M36.13,66.71c-.3-.23-.44.09-.74-.13-.3-.23-.28-.6-.58-.83-.3-.23-.38-.12-.68-.34-.3-.23-.12-.48-.42-.7-.3-.23-.53-.07-.82-.3-.3-.23-.57.33-.87.11-.3-.22.06-.79-.24-1.01-.3-.22-.48-.13-.78-.35-.3-.22.09-.51-.22-.74-.3-.22-.57.12-.87-.1-.3-.22-.27-.27-.57-.49-.3-.22-.13-.5-.43-.72-.3-.22-.63.14-.93-.08-.3-.22-.34-.77-.35-.78l-1.16,1.63s.51.11.81.33c.3.22.15.42.45.64.3.22.46,0,.76.22.3.22.1.48.39.7.3.22.55-.31.85-.09.3.22.27.45.57.67.3.22.17.32.47.54.3.22.48.06.77.28.3.22.05.57.34.79.3.22.55-.13.85.09.3.22.21.34.5.56.3.22.18.38.48.6.3.23.57-.2.87.02.3.23.08.57.37.8.3.23.41.07.71.3.3.22.16.55.39.72l1.21-1.59c-.22-.17-.35.06-.65-.16-.3-.23-.2-.35-.5-.57Z"/>
    <path d="M44.94,68.4c-.3.22-.03.45-.33.67-.3.22-.66.1-.96.32-.3.22-.22.33-.52.55-.3.22-.49-.02-.79.2-.18.13-.14.18-.16.28-.02.09-.05.2-.15.25-.21.07-.02.7-.37.72-.36-.02-.28-.73-.46-.81-.08-.04-.14-.06-.21-.06-.08,0-.21-.01-.39-.15-.3-.22.08-.51-.21-.74-.3-.22-.56.12-.86-.1-.3-.22-.27-.27-.56-.49-.3-.22-.12-.5-.41-.72-.3-.22-.63.13-.93-.1-.3-.22-.31-.78-.33-.79l-1.21,1.59s.51.13.81.35c.3.22.15.42.44.65.3.22.47,0,.76.23.3.22.09.49.39.71.3.22.55-.3.85-.08.3.22.27.45.57.67.12.09.22.2.27.28.09.11.15.23.42.36.5.2.6-.03,1.08-.01.47-.04.57.39,1.1.17.25-.13.31-.32.35-.49.06-.18.09-.34.23-.44.3-.22.39-.1.69-.32.3-.22.41-.07.71-.29.3-.22-.03-.61.27-.83.3-.22.57.09.87-.13.3-.22.18-.38.48-.6.3-.22.57,0,.8-.17l-1.19-1.61c-.22.17-.04.36-.34.58-.3.22-.39.1-.69.32Z"/>
    <path d="M54.62,61.28c-.3.22-.04.45-.34.67-.3.22-.66.1-.96.32-.3.22-.22.33-.52.55-.3.22-.49-.02-.79.2-.3.22-.22.48-.52.71-.3.22.15.65-.15.87-.3.22-.74-.29-1.04-.07-.3.22-.26.42-.56.64-.3.22-.47-.23-.77-.01-.3.22-.05.58-.35.8-.3.22-.33.18-.63.4-.3.22-.51-.03-.81.19-.3.22-.06.64-.36.86-.3.22-.84.08-.85.09l1.19,1.61s.26-.45.56-.67c.3-.22.45-.02.75-.24.3-.22.14-.44.44-.66.3-.22.49.05.79-.17.3-.22-.13-.62.17-.84.3-.22.51-.13.81-.35.3-.22.35-.07.65-.29.3-.22.19-.44.49-.66.3-.22.56.12.86-.1.3-.22.04-.57.34-.79.3-.22.38-.1.68-.32.3-.22.41-.07.71-.29.3-.22-.03-.61.27-.83.3-.22.57.09.87-.13.3-.22.19-.38.49-.6.3-.22.57,0,.79-.17l-1.16-1.63c-.22.17-.04.36-.34.58-.3.22-.39.09-.69.32Z"/>
    <path d="M62.87,53.28c-.2.32.13.43-.06.74-.2.32-.58.34-.77.65-.2.32-.08.39-.28.7-.2.32-.46.16-.66.48-.1.16-.1.29-.11.42,0,.1.05.2-.04.28-.07.07-.03.23.02.39.05.16.1.32-.04.44-.28.24-.75-.23-1.03,0-.28.23-.23.43-.52.66-.29.23-.47-.21-.76,0-.28.22-.03.57-.32.79-.29.21-.32.16-.62.39-.3.22-.51-.03-.81.19-.3.22-.06.64-.36.87-.3.22-.83.08-.85.09l1.16,1.63s.27-.45.57-.67c.3-.22.44-.02.74-.24.3-.22.14-.45.44-.67.3-.22.49.05.81-.18.31-.23-.13-.62.17-.85.3-.23.51-.15.81-.39.29-.24.36-.09.65-.33.29-.24.17-.45.45-.7.29-.25.54.12.97-.3.32-.51-.12-.63.09-.97.2-.32.32-.24.52-.55.2-.32.36-.21.55-.53.2-.32-.25-.55-.06-.87.2-.32.56-.13.76-.45.2-.32.03-.42.23-.73.2-.32.53-.21.68-.45l-1.7-1.06c-.15.24.09.34-.1.66-.2.32-.33.23-.53.55Z"/>
    <path d="M69.2,43.09c-.19.32.14.43-.05.75-.19.32-.56.35-.76.66-.2.32-.08.39-.28.7-.2.32-.46.16-.66.48-.2.32-.02.53-.22.84-.2.32.38.54.19.86-.2.32-.79,0-.99.32-.2.32-.09.49-.28.81-.2.32-.52-.04-.72.27-.2.32.17.55-.03.87-.2.32-.24.29-.44.6-.2.32-.48.16-.68.48-.2.32.18.62-.01.93-.2.32-.75.38-.76.4l1.7,1.06s.08-.52.28-.83c.2-.32.41-.18.61-.5.2-.32-.04-.46.16-.78.2-.32.48-.13.67-.45.2-.31-.35-.52-.15-.84.2-.31.43-.31.63-.62.2-.31.3-.2.5-.51.2-.32.02-.48.21-.8.2-.32.56-.1.76-.41.2-.32-.18-.54.02-.85.2-.32.32-.24.52-.55.2-.32.36-.22.56-.53.2-.32-.26-.56-.07-.88.19-.32.56-.14.75-.46.19-.32.02-.42.21-.74.19-.32.52-.22.67-.47l-1.71-1.04c-.14.24.1.34-.09.67-.19.32-.32.24-.51.56Z"/>
    <path d="M73.62,32.4c-.08.36.27.36.18.72-.08.36-.43.51-.51.87-.08.36.05.39-.03.76-.08.36-.38.3-.47.67-.08.36.15.51.07.87-.08.36.54.39.46.75-.04.18-.23.25-.41.32-.19.07-.38.16-.4.24-.01.11-.03.17-.03.27,0,.11-.04.24-.13.4-.19.32-.52-.03-.71.29-.19.32.18.55,0,.87-.19.32-.24.29-.43.61-.19.32-.48.17-.67.49-.19.32.2.61,0,.93-.19.32-.73.39-.75.41l1.71,1.04s.07-.52.26-.84c.19-.32.4-.19.59-.51.19-.32-.05-.46.14-.79.19-.32.47-.15.66-.47.19-.32-.36-.52-.17-.84.19-.32.42-.32.61-.64.09-.16.17-.21.27-.3.08-.08.22-.15.26-.42.06-.29.02-.36-.01-.48-.04-.11-.07-.23-.03-.41.08-.36.5-.28.58-.64.08-.36-.35-.45-.26-.81.08-.36.22-.33.31-.69.08-.36.27-.32.35-.68.08-.36-.42-.44-.34-.8.08-.36.49-.31.57-.67.08-.36-.11-.41-.03-.77.08-.36.43-.38.49-.65l-1.95-.44c-.06.27.2.29.12.66-.08.37-.23.33-.31.69Z"/>
    <path d="M72.3,21.01c.07.37.39.22.46.58.07.37-.19.64-.12,1.01.07.37.2.34.27.7.07.37-.23.44-.16.8.07.36.34.4.41.77.07.37.65.13.72.5.07.37-.57.55-.5.91.07.36.27.42.34.78.07.37-.41.32-.34.69.07.36.5.29.57.65.07.37.02.38.09.74.07.37-.25.45-.18.81.04.21.16.18.29.25.14.05.27.13.23.26-.02.11-.17.28-.31.39-.13.11-.26.18-.26.19l1.95.44s-.02-.15-.04-.32c0-.09-.01-.17,0-.29.01-.13.03-.27.06-.4.04-.13.04-.22.04-.3,0-.08.03-.15.05-.22.02-.07.04-.14.04-.23.01-.07.01-.13,0-.23-.07-.37-.34-.32-.41-.68-.07-.37.26-.42.19-.79-.07-.37-.61-.15-.68-.51-.07-.36.1-.52.03-.88-.07-.36.09-.35.02-.72-.07-.37-.32-.36-.39-.73-.07-.37.35-.46.28-.82-.07-.37-.5-.27-.57-.64-.07-.37.07-.39,0-.76-.07-.37.12-.4.04-.77-.07-.37-.56-.23-.63-.59-.07-.37.32-.48.25-.85-.07-.37-.26-.33-.33-.69-.07-.37.24-.53.19-.8l-1.96.42c.05.27.3.18.37.55.07.37-.08.39-.01.76Z"/>
    <path d="M64.8,13.04c.29.24.44-.08.74.16.29.24.27.61.56.85.29.23.38.13.67.36.29.23.1.48.39.71.29.23.52.09.81.32.29.23.59-.31.88-.08.29.23-.09.78.2,1.02.29.23.48.15.77.38.29.23-.11.51.18.74.29.23.57-.1.86.14.29.23.26.28.55.51.3.24.08.48.22.59.13.1.56-.08.62.2.05.27-.29.77-.29.77l1.96-.42s-.08-.13-.16-.27c-.04-.08-.08-.15-.12-.26-.04-.12-.08-.24-.1-.37-.13-.48.1-.64-.29-1.03-.21-.19-.37-.21-.51-.25-.13-.02-.24-.01-.39-.13-.29-.23-.07-.49-.36-.72-.29-.23-.57.28-.86.05-.29-.23-.25-.46-.54-.69-.29-.23-.16-.32-.45-.56-.29-.23-.48-.07-.77-.31-.29-.23-.03-.57-.32-.8-.29-.23-.56.11-.85-.12-.29-.23-.2-.35-.49-.58-.29-.23-.17-.38-.46-.61-.29-.23-.58.18-.87-.05-.29-.23-.06-.57-.35-.8-.29-.23-.41-.08-.7-.32-.29-.23-.14-.55-.36-.72l-1.28,1.53c.22.18.36-.05.65.19.29.24.19.35.48.59Z"/>
    <path d="M54.25,11.6c.17-.08.07-.38.31-.41,0,0,.02,0,.03,0,.31,0,.57.31.93.31.37,0,.37-.14.75-.14.37,0,.38.31.75.31.37,0,.46-.26.83-.26.37,0,.26-.61.63-.61.37,0,.42.67.79.67.37,0,.46-.18.83-.18.37,0,.23.47.6.47.37,0,.38-.43.75-.42.37.01.37.07.72.09.18,0,.26.1.34.19.05.04.07.09.1.12.02.02.03.03.06.04h.02s-.04,0-.06,0c-.05-.01-.1-.03-.15-.06-.02-.01-.05-.03-.06-.05.09.05.19.1.3.13.18.07.52.05.42.04,0-.01-.01-.03-.01-.05,0-.05,0-.11.03-.16.04-.11.15-.21.24-.14.22.18.27.77.27.77l1.28-1.53s-.14-.05-.3-.11c-.16-.05-.32-.15-.61-.33-.23-.14-.39-.24-.59-.35-.09-.05-.18-.09-.3-.11h-.1s.02-.02.09-.02c.07,0,.14.01.21.04.07.02.14.06.2.1.05.03.03.02,0,0l-.06-.03c-.08-.04-.17-.08-.26-.11-.25-.07-.2-.04-.28-.05-.05,0-.1,0-.14.01-.09.01-.14.05-.19.08-.11.06-.22.12-.41.11-.39-.02-.36-.35-.75-.36-.38-.01-.28.57-.65.56-.37,0-.49-.21-.86-.21-.37,0-.33-.16-.7-.16-.37,0-.42.24-.79.24-.37,0-.38-.43-.75-.43-.37,0-.36.44-.74.44-.37,0-.37-.14-.74-.14-.37,0-.37-.19-.74-.19-.37,0-.33.51-.71.51-.11,0-.23-.04-.33-.1-.2-.11-.38-.32-.72-.19-.47.23-.4.45-.71.62-.32.19-.57-.05-.81.1l1.03,1.72c.24-.14.07-.35.39-.54.31-.19.44-.08.6-.18Z"/>
    <path d="M43.99,17.61c.33-.18.09-.44.41-.62.33-.18.67-.02,1-.21.33-.18.26-.3.59-.48.33-.18.49.08.82-.11.33-.18.27-.45.6-.63.33-.18-.09-.65.24-.83.32-.18.72.37,1.04.18.32-.19.3-.4.62-.59.32-.19.44.27.76.08.32-.19.1-.57.42-.76.32-.19.35-.15.67-.34.32-.19.5.08.82-.12.32-.19.11-.63.43-.83.32-.19.84,0,.86-.02l-1.03-1.72s-.31.43-.62.62c-.32.19-.45-.02-.76.17-.32.19-.18.43-.5.62-.32.19-.48-.1-.8.1-.32.19.07.63-.24.82-.32.19-.52.08-.84.27-.32.19-.36.04-.68.23-.32.18-.24.41-.56.59-.32.18-.55-.18-.87,0-.32.18-.09.55-.42.73-.32.18-.4.06-.72.24-.32.18-.42.02-.74.2-.32.18-.04.6-.36.79-.32.18-.56-.15-.88.03-.32.18-.23.35-.55.53-.32.18-.57-.07-.81.07l.98,1.75c.24-.14.08-.35.41-.53.33-.18.4-.05.73-.23Z"/>
    <path d="M31.49,13.12c.3.18.41-.15.7.03.29.18.31.55.6.73.3.18.37.06.66.24.29.18.14.45.44.62.29.18.5,0,.79.18.3.18.52-.4.82-.22.29.18,0,.77.28.95.29.18.46.06.76.24.29.18-.05.51.24.69.29.18.53-.19.82-.01.29.18.27.23.56.4.29.18.14.47.44.65.29.18.59-.21.88-.03.29.18.35.71.36.72l1.04-1.71s-.49-.05-.78-.23c-.29-.18-.16-.39-.46-.57-.29-.18-.44.06-.73-.12-.29-.18-.12-.46-.41-.64-.29-.18-.5.37-.8.19-.29-.18-.28-.41-.58-.58-.29-.18-.18-.29-.47-.47-.29-.18-.45,0-.75-.17-.29-.18-.08-.55-.37-.73-.29-.18-.51.2-.81.02-.29-.18-.22-.3-.51-.48-.29-.18-.2-.34-.49-.52-.29-.18-.53.27-.82.1-.29-.18-.11-.54-.41-.72-.29-.18-.39-.01-.69-.19-.29-.18-.19-.51-.41-.64l-1.03,1.71c.22.13.33-.11.62.07.3.18.21.31.51.49Z"/>
    <path d="M21.33,11.53c.3,0,.26-.34.59-.34.34,0,.55.31.89.31.34,0,.35-.13.69-.13.34,0,.35.31.7.31.34,0,.43-.26.77-.25.34,0,.24-.61.59-.61.34,0,.39.67.73.67.34,0,.43-.18.77-.18.34,0,.21.47.56.47.34,0,.36-.43.7-.42.34,0,.36.06.58.07.18,0,.15.24.19.37,0,.03.03.06.05.07.24.15.57-.21.86-.04.3.18.35.71.37.73l1.03-1.71s-.49-.05-.78-.23c-.15-.09-.18-.19-.22-.28-.06-.11-.03-.16-.28-.32-.06-.04-.11-.06-.16-.08-.33-.11-.45.09-.84.02-.47-.02-.42-.35-.78-.36-.35,0-.25.57-.6.56-.34,0-.45-.21-.79-.21-.34,0-.3-.16-.65-.16-.35,0-.39.24-.73.23-.34,0-.35-.43-.69-.43-.34,0-.34.44-.68.43-.34,0-.34-.15-.69-.15-.34,0-.34-.19-.69-.19-.34,0-.31.51-.66.51-.34,0-.38-.41-.72-.41-.43.01-.43.18-.85.22-.41.12-.64-.06-.98.13l1.1,1.67c.11-.07-.03-.3.16-.41.21-.04.26.14.47.13Z"/>
    <path d="M12.81,17.56c.27-.21,0-.43.27-.64.27-.21.62-.09.89-.3.27-.21.19-.32.46-.53.27-.21.47.03.74-.18.27-.21.18-.46.46-.67.27-.21-.18-.63.1-.84.27-.21.72.3.99.09.27-.21.23-.4.51-.61.28-.21.45.24.73.04.28-.2.02-.56.3-.76.28-.2.31-.16.59-.36.28-.2.48.05.76-.15.28-.2.03-.62.31-.82.28-.2.79-.02.79-.02l-1.1-1.67s-.27.43-.55.64c-.28.2-.43,0-.71.2-.28.2-.12.43-.4.63-.28.2-.47-.07-.75.14-.28.21.15.61-.13.81-.28.2-.48.11-.76.32-.28.21-.34.06-.61.27-.28.21-.16.42-.44.63-.28.21-.54-.13-.81.08-.28.21,0,.55-.28.76-.27.21-.36.09-.64.3-.27.21-.39.06-.66.27-.27.21.06.59-.21.8-.27.21-.55-.09-.82.12-.27.21-.15.37-.42.58-.27.22-.55,0-.75.17l1.25,1.56c.2-.16,0-.34.28-.56.27-.21.36-.09.63-.3Z"/>
    <path d="M9.63,27.17c.07-.34-.27-.34-.2-.68.07-.34.42-.47.49-.81.07-.34-.06-.37.01-.71.07-.34.37-.28.44-.62.07-.34-.17-.47-.1-.81.07-.34-.55-.36-.49-.7.07-.34.73-.25.8-.59.07-.34-.1-.46-.03-.79.07-.34.5-.13.57-.47.07-.34-.36-.43-.29-.77.07-.34.12-.33.19-.67.03-.17.13-.24.23-.32.05-.04.09-.08.14-.11.03-.02.06-.04.07-.07.03-.14-.43-.42-.24-.61.1-.08.26-.08.39-.05.16,0,.3.04.3.03l-1.25-1.56s-.05.11-.17.27c-.14.18-.31.37-.46.56-.27.38-.47.29-.6.8-.06.29,0,.37.05.46.05.1.1.19.07.36-.07.34-.39.27-.46.6-.07.33.52.34.45.68-.07.34-.28.4-.35.74-.07.33-.21.27-.28.6-.07.34.16.42.09.76-.07.34-.49.26-.55.59-.07.34.36.42.3.75-.07.34-.21.31-.28.64-.07.33-.26.29-.33.63-.07.33.43.41.36.75-.07.34-.48.28-.55.61-.07.33.12.38.05.71-.07.33-.42.34-.47.59l1.95.47c.05-.25-.21-.28-.14-.62.07-.34.22-.3.29-.64Z"/>
    <path d="M8.82,29.11c.16-.04.3-.15.41-.27.11-.11.2-.25.24-.41h0s-1.95-.47-1.95-.47h0c-.03.16-.03.33.02.48.06.15.17.3.3.41.13.11.29.2.46.24.17.04.36.04.52,0Z"/>
    <g>
      <path d="M40.13,18.33h.03s.03.03.03.03l.06.05.03.02.03.02h.03s.02.02.02.02h.02s.02,0,.02,0h.02s.02-.01.02-.01h.02s.04-.04.04-.04l.05-.04.09-.07.04-.03h.02s.02-.01.02-.01h.02s.02,0,.02,0h.02s.02.01.02.01l.03.02.03.03.03.02h.02s.02.02.02.02h.02s.02,0,.02,0h.02s.02,0,.02,0l.04-.02.04-.02.07-.05.07-.05s.05-.03.08-.05l.04-.03h.02s.02,0,.02,0h.04s.04-.02.04-.02h.04s.04-.02.04-.02h.02s.02,0,.02,0h.02s.02,0,.02,0h.02s.02.02.02.02l.04.03.08.08.08.08.04.03h.02s.02.02.02.02c.03,0,.05,0,.08.01h.09c.06,0,.12,0,.17,0h.02s.01,0,.01,0h.01s.01-.02.01-.02h0s0-.02,0-.02v-.03s.03-.03.03-.03l.02-.03h0s.01-.02.01-.02h.01s.02-.01.02-.01h.02s.02,0,.02,0h.02s.02.02.02.02c.03.02.07.04.11.06l.05.03.05.02h.02s.02.01.02.01h.02s0,0,0,0h0s-.49-.88-.49-.88l-.24-.44-.24-.44s-.01,0-.01,0h0s-.01.03-.01.03v.02s-.02,0-.02,0h0s0,0,0,0h0s0,.01,0,.01h0s0,.02,0,.02c0,.02-.01.04-.02.06v.03s-.02.01-.02.01h-.01s-.01.02-.01.02h-.02s-.02,0-.02,0h-.03s-.04,0-.07,0c-.03,0-.06,0-.09,0-.03,0-.06,0-.09,0h-.02s0,0,0,0h0s0,0,0,0h0s0,0,0,0h0s0,0,0,0h0s0,0,0,0l-.03.03-.03.02h-.03s-.02.02-.02.02h-.02s-.02,0-.02,0h-.02s-.02,0-.02,0h-.02s-.05-.03-.05-.03h-.02s-.01-.01-.01-.01h-.01s-.01,0-.01,0h0s0,0,0,0h0s0-.02,0-.02v-.03s-.01-.03-.01-.03v-.07s-.02-.01-.02-.01h0s0-.02,0-.02h0s-.01,0-.01,0h-.01s-.02-.03-.02-.03c-.02-.01-.04-.03-.05-.04l-.26.43-.26.43-.52.85h.01s0,0,.01.01h.03s.08,0,.08,0h.08s.04,0,.04,0h.04Z"/>
      <polygon class="st0" points="41.4 15.75 43.34 19.24 41.31 20.38 39.32 19.17 41.4 15.75"/>
    </g>
  </g>
  <g>
    <path d="M26.45,53.04c0-.08-.02-.18-.06-.27-.04-.09-.1-.17-.18-.25-.08-.08-.17-.13-.26-.16-.09-.03-.2-.06-.29-.04-.09.02-.16.08-.22.15l.92.77c.05-.06.08-.13.09-.21Z"/>
    <path d="M22.91,56.76c.12-.12-.05-.24.07-.36.12-.12.32-.06.44-.18.12-.12.06-.18.18-.3.12-.12.25,0,.37-.12.12-.12.04-.26.16-.38.12-.12-.18-.34-.06-.46.12-.12.42.14.54.02.12-.12.07-.23.19-.35.12-.12.27.12.4,0,.12-.12-.06-.31.06-.43.12-.12.14-.1.26-.22.13-.13.28,0,.4-.15.12-.14-.08-.34.03-.48.11-.13.41-.09.41-.09l-.92-.77s-.05.26-.16.38c-.11.13-.22.03-.32.15-.1.12.02.23-.09.34-.12.12-.26-.02-.38.1-.12.12.16.33.04.45-.12.12-.24.08-.36.2-.12.12-.17.04-.29.16-.12.12-.03.24-.15.36-.12.12-.3-.06-.42.06-.12.12.07.3-.05.43-.12.12-.18.06-.3.18-.12.12-.2.04-.32.16-.12.12.11.33-.01.45-.12.12-.3-.04-.42.08-.12.12-.04.2-.16.33-.12.12-.29,0-.38.1l.84.85c.09-.09-.03-.19.09-.31.12-.12.18-.06.3-.18Z"/>
    <path d="M22.01,57.35c.12.01.2.01.29,0,.08-.01.16-.04.22-.1h0s-.84-.85-.84-.85h0c-.06.06-.1.13-.11.22-.01.09,0,.19.06.26.05.08.09.19.15.28.06.09.13.17.23.19Z"/>
  </g>
  <g>
    <path d="M10.45,29.57c-.09.06-.16.15-.2.24-.04.09-.05.2-.04.31.01.11.05.2.11.28.06.08.13.17.23.22.09.04.21.05.32.04l-.11-1.19c-.11.01-.21.05-.3.1Z"/>
    <path d="M17.05,30.36c-.1-.21-.25-.05-.37-.3-.12-.24-.05-.56-.24-.79-.22-.21-.29-.09-.57-.1-.1,0-.16-.03-.22-.06-.1-.05-.18-.12-.39-.1-.27.03-.28.18-.51.2-.22.02-.12.38-.34.4-.22.02-.29-.37-.51-.35-.22.02-.27.14-.49.16-.22.02-.17-.26-.39-.24-.22.02-.2.28-.42.3-.22.02-.23-.01-.45.01-.22.02-.25-.17-.48-.15-.22.02-.23.31-.45.33-.22.02-.45-.22-.47-.21l.12,1.19s.28-.15.5-.17c.22-.02.24.13.46.11.22-.02.21-.19.43-.21.22-.02.24.18.46.16.22-.02.12-.36.34-.38.22-.02.3.09.52.07.22-.02.2.07.42.05.22-.02.23-.17.46-.19.22-.02.25.23.47.21.21-.02.21-.28.4-.3.1,0,.13.02.17.04.02.02.05.03.11.02.13,0,.1.08.17.18.05.1.27-.15.34.01.08.16-.14.27-.04.48.1.2.2.15.3.35.1.2-.06.34,0,.49l1.08-.51c-.07-.15-.21-.06-.3-.27-.1-.2-.01-.24-.11-.44Z"/>
    <path d="M20.17,36.85c-.1-.2-.26-.07-.36-.27-.1-.2.01-.4-.08-.6-.1-.2-.17-.17-.27-.37-.1-.2.07-.29-.03-.49-.1-.2-.26-.18-.36-.38-.1-.2-.4.02-.49-.18-.1-.2.25-.4.15-.6-.1-.2-.22-.2-.32-.4-.1-.2.19-.25.09-.45-.1-.2-.33-.09-.43-.29-.1-.2-.07-.22-.16-.42-.1-.2.07-.3-.02-.5-.1-.2-.37-.1-.47-.31-.1-.2.05-.5.04-.51l-1.08.52s.24.21.33.41c.1.2-.04.26.06.47.1.2.25.13.34.33.1.2-.08.28.01.48.1.2.38,0,.47.19.1.2.02.32.12.52.1.2,0,.22.1.42.1.2.24.16.33.36.1.2-.13.32-.04.52.1.2.33.08.43.28.1.2.02.24.11.44.1.2,0,.25.09.45.1.2.36.05.46.25.1.2-.11.33-.02.53.1.2.2.15.3.35.1.2-.06.34.01.49l1.08-.52c-.07-.15-.21-.06-.3-.27-.1-.2-.01-.24-.11-.44Z"/>
    <path d="M23.28,43.34c-.1-.2-.26-.07-.36-.27-.1-.2.01-.4-.08-.6-.1-.2-.17-.17-.27-.37-.1-.2.07-.29-.03-.49-.1-.2-.26-.18-.36-.38-.1-.2-.4.02-.49-.18-.1-.2.25-.4.15-.6-.1-.2-.22-.2-.32-.4-.1-.2.19-.25.09-.45-.1-.2-.33-.09-.43-.29-.1-.2-.07-.22-.16-.42-.1-.2.07-.3-.02-.5-.1-.2-.37-.1-.47-.31-.1-.2.05-.5.04-.51l-1.08.52s.24.21.33.41c.1.2-.04.26.06.47.1.2.25.13.34.33.1.2-.08.28.01.48.1.2.38,0,.47.19.1.2.02.32.12.52.1.2,0,.22.1.42.1.2.24.16.33.36.1.2-.13.32-.04.52.1.2.33.08.43.28.1.2.02.24.11.44.1.2,0,.25.09.45.1.2.36.05.46.25.1.2-.11.33-.02.53.1.2.2.15.3.35.1.2-.06.34.01.49l1.08-.52c-.07-.15-.21-.06-.3-.27-.1-.2-.01-.24-.11-.44Z"/>
    <path d="M26.41,49.82c-.1-.2-.26-.07-.36-.27-.1-.2.01-.4-.09-.6-.1-.2-.17-.17-.27-.37-.1-.2.07-.29-.03-.49-.1-.2-.26-.18-.36-.38-.1-.2-.4.02-.49-.18-.1-.2.25-.4.15-.6-.1-.2-.22-.2-.32-.4-.1-.2.19-.25.09-.45-.1-.2-.33-.09-.43-.29-.1-.2-.07-.22-.16-.42-.1-.2.07-.3-.02-.5-.1-.2-.37-.1-.47-.31-.1-.2.05-.5.04-.51l-1.08.52s.24.21.33.41c.1.2-.04.26.06.47.1.2.25.13.34.33.1.2-.08.28.01.48.1.2.38,0,.47.19.1.2.02.32.12.52.1.2,0,.22.1.42.1.2.24.16.33.36.1.2-.13.32-.04.52.1.2.33.08.43.28.1.2.02.24.12.44.1.2,0,.25.09.45.1.2.36.05.46.25.1.2-.11.32-.02.52.1.2.2.15.3.35.1.2-.06.33.01.49l1.09-.51c-.07-.15-.21-.06-.31-.27-.1-.2-.01-.24-.11-.44Z"/>
    <path d="M26.79,51.12c.06-.08.08-.19.09-.29,0-.1,0-.2-.05-.3h0s-1.09.51-1.09.51h0c.05.1.11.19.2.24.09.06.2.09.3.1.1,0,.21-.01.31-.06.1-.05.18-.12.24-.2Z"/>
  </g>
  <g>
    <path d="M67.36,30.32c0-.11-.03-.22-.09-.32-.05-.09-.14-.16-.23-.21-.1-.05-.2-.06-.3-.05-.11,0-.22.03-.31.09-.09.06-.16.16-.21.27l1.07.54c.05-.1.08-.22.08-.33Z"/>
    <path d="M64.21,36.82c.1-.22-.1-.26,0-.48.1-.22.33-.27.43-.49.1-.22.03-.25.13-.47.1-.22.27-.14.38-.36.1-.22-.01-.34.09-.56.1-.22-.26-.31-.15-.53.1-.22.48-.07.59-.29.11-.22.03-.32.14-.53.11-.22.32-.02.42-.23.11-.22-.13-.34-.02-.55.11-.22.14-.2.24-.42.11-.22.29-.14.4-.36.11-.22-.13-.38-.03-.59.11-.22.44-.3.45-.31l-1.07-.54s-.03.34-.14.55c-.11.22-.24.15-.35.36-.11.22.04.29-.07.51-.11.22-.28.12-.39.34-.11.22.23.3.13.52-.11.22-.25.23-.35.45-.11.22-.18.15-.28.37-.11.22.01.31-.09.52-.1.22-.34.11-.44.33-.1.22.13.33.03.54-.1.22-.18.18-.29.4-.1.22-.21.17-.31.39-.1.22.18.33.08.55-.1.22-.33.14-.44.36-.1.22,0,.27-.1.49-.1.22-.31.19-.39.35l1.09.51c.08-.16-.08-.21.03-.43.1-.22.19-.18.29-.4Z"/>
    <path d="M60.93,43.89c.1-.22-.1-.26,0-.48.1-.22.33-.27.43-.49.1-.22.03-.25.13-.47.1-.22.27-.15.37-.37.1-.22-.02-.34.09-.56.1-.22-.26-.31-.16-.53.1-.22.48-.08.58-.3.1-.22.03-.32.13-.54.1-.22.32-.02.42-.24.1-.22-.13-.33-.03-.55.1-.22.13-.21.23-.43.1-.22.28-.15.39-.37.1-.22-.15-.37-.04-.59.1-.22.43-.31.44-.33l-1.09-.51s-.02.34-.12.56c-.1.22-.24.16-.34.37-.1.22.05.29-.05.51-.1.22-.28.13-.38.35-.1.22.24.3.14.52-.1.22-.24.24-.34.46-.1.22-.17.15-.27.37-.1.22.02.31-.08.52-.1.22-.34.12-.44.34-.1.22.14.32.04.54-.1.22-.18.18-.28.4-.1.22-.2.17-.31.39-.1.22.18.33.08.55-.1.22-.33.14-.44.36-.1.22,0,.27-.1.49-.1.22-.31.19-.39.35l1.09.51c.08-.16-.08-.21.03-.43.1-.22.19-.18.29-.4Z"/>
    <path d="M57.51,50.91c.11-.22-.09-.26.02-.48.11-.22.34-.26.45-.48.11-.22.04-.25.15-.47.11-.22.28-.14.39-.36.11-.22,0-.34.1-.56.11-.22-.26-.31-.15-.53.11-.22.48-.07.59-.29.11-.22.03-.32.14-.54.11-.22.32-.02.42-.24.11-.22-.13-.34-.02-.55.11-.22.13-.2.24-.42.1-.22.29-.15.39-.37.1-.22-.14-.37-.04-.59.1-.22.43-.31.44-.33l-1.09-.51s-.02.34-.12.55c-.1.22-.24.15-.34.37-.1.22.05.29-.06.51-.1.22-.28.13-.39.35-.1.22.24.3.13.52-.1.22-.25.23-.35.45-.1.22-.17.15-.28.37-.11.22.01.3-.09.52-.11.22-.34.11-.44.32-.11.22.13.33.02.54-.11.22-.19.18-.29.39-.11.22-.21.16-.32.38-.11.22.18.33.07.55-.11.21-.34.12-.45.34-.11.21,0,.27-.12.48-.11.22-.32.17-.4.34l1.07.55c.08-.16-.07-.21.04-.43.11-.22.19-.17.3-.39Z"/>
    <path d="M60.98,55.91c-.13-.13-.25.04-.38-.09-.13-.13-.08-.34-.21-.48-.13-.13-.19-.08-.32-.21-.13-.13,0-.27-.14-.4-.13-.13-.27-.05-.4-.19-.13-.13-.35.17-.48.04-.13-.13.13-.44,0-.57-.13-.13-.24-.09-.37-.22-.13-.13.11-.28-.02-.41-.13-.13-.32.05-.45-.08-.13-.13-.11-.16-.24-.29-.13-.13,0-.28-.13-.41-.13-.13-.35.05-.48-.08-.13-.13-.07-.44-.08-.45l-.85.85s.26.08.39.22c.13.13.02.24.15.37.13.13.25.02.38.15.13.13-.01.27.12.4.13.13.33-.15.46-.02.13.13.09.26.22.39.13.13.05.18.18.31.13.13.25.05.38.18.13.13-.05.32.08.45.13.13.31-.06.44.08.13.13.07.19.2.33.13.13.05.21.18.35.13.13.33-.1.46.03.13.13-.03.32.1.45.13.13.21.05.34.18.13.13.02.31.12.41l.84-.86c-.1-.1-.2.03-.33-.11-.13-.13-.06-.2-.2-.33Z"/>
    <path d="M61.6,56.87c.03-.09.03-.19.01-.28-.02-.09-.05-.17-.11-.24h0s-.84.86-.84.86h0c.06.06.14.11.23.13.09.02.19,0,.29-.03.09-.03.18-.09.26-.17.08-.08.13-.17.17-.26Z"/>
    <g>
      <path d="M56.41,52.77v-.02s-.02-.01-.02-.01l-.03-.02h-.02s-.01-.03-.01-.03v-.02s-.02-.02-.02-.02h0s0-.02,0-.02v-.03s.03-.06.03-.06l.03-.06v-.03s.01-.01.01-.01h0s0-.02,0-.02h0s0-.02,0-.02h0s-.02-.02-.02-.02h-.02s-.02-.03-.02-.03v-.02s-.02,0-.02,0h0s0-.02,0-.02h0s0-.04,0-.04v-.02s.03-.05.03-.05l.02-.05.02-.05v-.03s0-.01,0-.01h0s0-.02,0-.02h0s0-.04,0-.04v-.05s0-.02,0-.02h0s0-.02,0-.02l-.02-.02-.03-.02-.06-.04-.06-.04-.02-.02h0s0-.02,0-.02l-.02-.05v-.05s-.02-.07-.03-.11h0s0-.02,0-.02h0s0-.02,0-.02h.01s.02-.03.02-.03h.02s.02-.02.02-.02h0s0-.02,0-.02h0s0-.02,0-.02h0s0-.02,0-.02v-.03s-.06-.07-.06-.07l-.02-.03-.02-.03v-.02s0-.02,0-.02h0s0-.03,0-.03l.53.27.27.14.27.14h0s0,0,0,0h0s0,.01,0,.01h0s0,0,0,0h0s0,0,0,0h0s0,0,0,0h-.03s-.01.01-.01.01h0s0,0,0,0h0s0,.01,0,.01h0s0,.02,0,.02c0,.01.02.04.03.07l.02.04h0s0,.01,0,.01h0s0,0,0,0h0s0,0,0,0c-.01-.07-.01-.07-.02-.1h0s0,0,0,0h0s-.01.03-.01.03v.03s-.01.01-.01.01h0s0,.02,0,.02h0s0,.03,0,.03l.02.02s0,.01,0,.01h0s0,.01,0,.01h0s0,.01,0,.01h0s0,0,0,0h.02s.02,0,.02,0h.04s0,0,0,0h0s0,0,0,0h0s0,.01,0,.01h.01s.03.03.03.03l-.21.21-.21.21-.42.42h0s0-.01,0-.01v-.02s-.01-.04-.01-.04v-.05s-.01-.02-.01-.02v-.02Z"/>
      <path class="st0" d="M57.72,51.65c-.02.23-.02.23-.02.35h0s0,0,0,0h0s0,0,0,0h0s-.02-.01-.02-.01l-.03-.02-.07-.03-.13-.07-.27-.14-.53-.27-1.07-.55-.17.46-.15.47-.12.62.89.9,1.7-1.7Z"/>
    </g>
  </g>
  <g>
    <path d="M73.77,30.81c.07-.05.12-.12.16-.21.04-.08.05-.19.06-.3,0-.11-.02-.21-.05-.3-.03-.09-.07-.19-.14-.25-.06-.06-.14-.08-.21-.09l-.03,1.2c.08,0,.15-.01.22-.06Z"/>
    <path d="M69.06,30.43c.16.01.14-.19.3-.18.16.01.23.21.39.22.16.01.16-.07.32-.05.16.01.15.2.31.21.16.01.21-.14.36-.13.16.01.13-.36.29-.34.16.01.15.41.31.43.16.01.2-.09.36-.08.16.01.09.29.24.3.16.01.17-.25.33-.23.16.01.16.05.31.06.16.01.16.21.32.22.16.01.19-.27.35-.26.16.01.3.28.31.28l.03-1.2s-.2.11-.36.09c-.15-.01-.15-.16-.3-.18-.15-.01-.16.15-.32.14-.15-.01-.14-.21-.3-.23-.15-.01-.12.34-.28.32-.15-.01-.2-.14-.35-.15-.15-.01-.13-.1-.29-.12-.15-.01-.18.13-.34.12-.16-.01-.14-.27-.3-.28-.15-.01-.17.25-.32.24-.16-.01-.15-.1-.3-.11-.15-.01-.15-.13-.3-.14-.15-.01-.17.29-.32.28-.16-.01-.15-.26-.3-.27-.15-.01-.17.1-.32.09-.16-.01-.17-.22-.29-.23l-.12,1.19c.12,0,.12-.15.28-.13.16.01.15.11.31.12Z"/>
    <path d="M68.14,30.12c.03.09.08.16.14.22.06.06.12.1.2.11h0s.12-1.19.12-1.19h0c-.07,0-.15,0-.22.05-.07.05-.13.13-.17.21-.04.08-.08.19-.09.3-.01.11,0,.22.02.31Z"/>
  </g>
  <g>
    <path d="M39.28,18.99c.08-.06.15-.15.19-.24.04-.09.05-.2.04-.31-.01-.11-.05-.2-.11-.28-.06-.08-.12-.17-.22-.22-.09-.04-.2-.05-.3-.04l.12,1.19c.1-.01.2-.05.28-.1Z"/>
    <path d="M32.99,19.68c.21-.02.14-.22.35-.24.21-.02.35.15.56.13.21-.02.2-.1.41-.13.21-.02.24.16.45.14.21-.02.24-.18.45-.21.21-.02.11-.38.32-.4.21-.02.28.37.49.35.21-.02.25-.14.46-.16.21-.02.16.26.37.24.21-.02.19-.28.4-.3.21-.02.21.01.42-.01.21-.02.24.17.45.15.21-.02.21-.31.42-.34.21-.02.43.21.44.21l-.12-1.19s-.26.15-.47.17c-.21.02-.22-.13-.43-.1-.21.02-.2.19-.41.21-.21.02-.23-.18-.44-.15-.21.02-.11.36-.32.38-.21.02-.29-.09-.5-.07-.21.02-.19-.07-.4-.05-.21.02-.22.17-.43.19-.21.02-.24-.23-.45-.21-.21.02-.18.28-.39.31-.21.02-.22-.06-.43-.04-.21.02-.22-.09-.43-.07-.21.02-.16.32-.37.35-.21.02-.26-.22-.47-.2-.21.02-.2.14-.41.16-.21.02-.28-.17-.44-.16l.13,1.19c.16-.02.12-.17.33-.19.21-.02.22.07.43.05Z"/>
    <path d="M26.21,20.41c.21-.02.14-.22.35-.24.21-.02.35.15.56.12.21-.02.2-.1.41-.13.21-.02.24.16.45.14.21-.02.24-.18.45-.21.21-.02.11-.38.32-.4.21-.02.28.37.49.35.21-.02.25-.14.46-.16.21-.02.16.26.38.24.21-.02.19-.28.4-.31.21-.02.21,0,.42-.01.21-.02.24.17.45.15.21-.02.21-.31.42-.34.21-.02.43.21.45.21l-.13-1.19s-.26.15-.47.18c-.21.02-.23-.13-.44-.1-.21.02-.19.19-.4.21-.21.02-.23-.18-.44-.15-.21.02-.11.36-.32.38-.21.02-.29-.09-.5-.07-.21.02-.2-.07-.4-.05-.21.02-.22.17-.43.19-.21.02-.24-.23-.45-.21-.21.02-.18.28-.39.31-.21.02-.22-.06-.43-.04-.21.02-.22-.09-.43-.07-.21.02-.16.32-.37.35-.21.02-.26-.22-.47-.19-.21.02-.2.14-.41.16-.21.02-.28-.17-.44-.15l.14,1.19c.16-.02.12-.17.33-.19.21-.02.22.07.43.05Z"/>
    <path d="M24.83,20.28c.06.11.22.18.33.22.11.04.19.07.3.06h0s-.14-1.19-.14-1.19h0c-.1.01-.21.05-.26.1-.05.06-.06.14-.09.22-.03.08-.09.17-.14.27-.04.1-.06.21,0,.32Z"/>
  </g>
  <g>
    <path d="M58.35,18.94c0,.12.03.23.08.33.05.09.14.16.23.21.1.05.2.06.31.05.11-.01.23-.03.32-.1.09-.07.17-.18.23-.29l-1.07-.54c-.06.11-.09.23-.1.35Z"/>
    <path d="M61.88,12.1c-.12.23.09.27-.03.5-.12.23-.35.28-.47.5-.12.23-.05.27-.17.5-.12.23-.29.15-.4.38-.12.23,0,.35-.13.58-.12.23.24.33.13.55-.12.23-.49.08-.61.31s-.05.33-.17.56c-.12.23-.32.02-.44.25-.12.23.11.35,0,.58-.12.23-.15.21-.27.44-.12.23-.3.15-.42.38-.12.23.12.39,0,.62-.12.23-.46.32-.47.34l1.07.54s.04-.35.16-.58c.12-.23.25-.16.37-.39.12-.23-.03-.3.09-.53.12-.23.29-.13.41-.36.12-.23-.22-.32-.11-.54.12-.23.26-.25.38-.47.12-.23.19-.16.3-.39.12-.23,0-.32.12-.55.12-.23.35-.12.47-.34.12-.23-.12-.34,0-.57.12-.23.2-.19.31-.42.12-.23.22-.18.34-.4.12-.23-.16-.35-.05-.58.12-.23.35-.14.47-.37.12-.23.01-.28.13-.51.12-.23.33-.2.42-.37l-1.09-.51c-.09.17.07.21-.05.44-.12.23-.2.18-.32.41Z"/>
    <path d="M62.75,10.83c-.11.02-.2.08-.29.15-.08.07-.16.15-.21.27h0s1.09.51,1.09.51h0c.05-.12.08-.24.07-.36,0-.12-.05-.23-.11-.33-.06-.09-.14-.16-.24-.21-.1-.04-.21-.06-.31-.04Z"/>
  </g>
  <g>
    <path d="M27.76,51.92c-.11,0-.23.01-.33.06-.09.04-.17.12-.23.21-.06.09-.08.19-.08.3,0,.11,0,.22.06.32.05.09.15.17.25.24l.65-1.01c-.1-.06-.21-.1-.32-.11Z"/>
    <path d="M33.93,55.73c-.21-.13-.27.07-.48-.05-.21-.13-.23-.36-.44-.49-.21-.13-.25-.06-.46-.19-.21-.13-.12-.29-.32-.41-.21-.13-.34-.03-.54-.15-.21-.13-.34.22-.54.1-.21-.13-.02-.49-.23-.61-.21-.13-.31-.06-.52-.19-.21-.13.02-.32-.19-.45-.21-.13-.35.09-.55-.04-.21-.13-.19-.16-.39-.28-.21-.13-.11-.3-.32-.43-.21-.13-.39.1-.6-.03-.21-.13-.26-.46-.27-.47l-.65,1.01s.33.06.54.19c.21.13.12.25.33.38.21.13.3-.01.5.12.21.13.1.29.3.42.21.13.33-.2.53-.07.21.13.21.27.41.4.21.13.13.19.34.32.21.13.31.02.51.15.21.13.08.35.28.48.21.13.34-.1.54.03.21.13.16.2.37.33.21.13.15.22.35.35.21.13.35-.15.55-.02.21.13.1.35.3.47.21.13.27.03.47.15.21.13.15.33.31.43l.63-1.02c-.15-.1-.22.05-.42-.08-.21-.13-.16-.2-.36-.33Z"/>
    <path d="M40.58,59.83c-.21-.13-.27.07-.48-.05-.21-.13-.23-.36-.44-.49-.21-.13-.25-.06-.46-.19-.21-.13-.11-.29-.32-.41-.21-.13-.34-.03-.55-.15-.21-.13-.34.22-.54.1-.21-.13-.02-.49-.23-.61-.21-.13-.32-.06-.52-.19-.21-.13.01-.32-.19-.45-.21-.13-.35.09-.55-.03-.21-.13-.19-.16-.4-.28-.21-.13-.11-.3-.32-.43-.21-.13-.39.1-.59-.03-.21-.13-.26-.46-.28-.47l-.63,1.02s.33.06.54.19c.21.13.13.25.33.38.21.13.29-.01.5.11.21.13.1.29.3.42.21.13.33-.2.53-.08.21.13.21.27.41.39.21.13.13.19.34.32.21.13.31.02.51.15.21.13.08.35.28.47.21.13.34-.1.55.03.21.13.16.2.37.33.21.13.15.22.35.35.21.13.35-.14.55-.02.21.13.1.35.3.47.21.13.27.03.47.15.21.13.17.34.34.44l.58-1.05c-.14-.08-.2.06-.4-.05-.21-.13-.16-.2-.36-.33Z"/>
    <path d="M41.67,60.75c0-.11-.06-.21-.11-.31-.05-.09-.12-.18-.21-.23h0s-.58,1.05-.58,1.05h0c.11.06.23.11.34.12.11,0,.22-.03.31-.08.09-.05.16-.13.2-.23.04-.1.06-.21.05-.32Z"/>
  </g>
  <g>
    <path d="M56.35,52.65c.04-.07.06-.17.07-.26.01-.09,0-.2-.03-.31-.03-.1-.08-.19-.16-.26-.08-.07-.18-.14-.3-.14-.11,0-.24.04-.34.1l.59,1.04c.07-.04.13-.1.16-.17Z"/>
    <path d="M51.15,55.85c.18-.11.03-.26.21-.37.18-.11.38-.01.55-.12.18-.11.13-.18.31-.29.18-.11.28.05.45-.06.18-.11.14-.27.31-.37.18-.11-.07-.39.11-.5.18-.11.41.22.59.11.18-.11.16-.23.34-.34.18-.11.26.17.43.06.18-.11.04-.33.22-.44.18-.11.19-.08.37-.19.18-.11.29.05.46-.06.18-.11.06-.38.23-.49.17-.12.46.02.46.02l-.59-1.04s-.2.26-.37.38c-.17.11-.24-.02-.41.08-.18.11-.09.25-.27.36-.18.11-.28-.06-.45.04-.18.11.06.37-.12.48-.18.11-.29.04-.47.15-.18.11-.2.02-.38.12-.18.11-.12.24-.3.35-.18.11-.31-.11-.49,0-.18.11-.03.33-.21.44-.18.11-.22.03-.4.14-.18.11-.24.01-.41.12-.18.11,0,.36-.17.47-.18.11-.32-.09-.5.02-.18.11-.11.21-.29.32-.18.11-.32-.04-.46.04l.63,1.02c.13-.08.03-.2.21-.31.18-.11.22-.03.4-.14Z"/>
    <path d="M45.48,59.33c.18-.11.03-.26.21-.37.18-.11.38-.01.55-.12.18-.11.13-.18.31-.29.18-.11.28.05.45-.06.18-.11.14-.27.31-.37.18-.11-.07-.39.1-.5.18-.11.41.22.59.11.18-.11.16-.23.34-.34.18-.11.26.17.44.06.18-.11.04-.33.22-.44.18-.11.19-.08.37-.19.18-.11.29.05.46-.06.18-.11.05-.37.23-.48.18-.11.47.01.49,0l-.63-1.02s-.16.25-.34.35c-.18.11-.25-.02-.43.09-.18.11-.09.25-.27.36-.18.11-.28-.06-.45.04-.18.11.06.37-.12.48-.18.11-.29.04-.47.15-.18.11-.2.02-.38.12-.18.11-.12.24-.3.35-.18.11-.31-.11-.49,0-.18.11-.03.33-.21.44-.18.11-.22.03-.4.14-.18.11-.24.01-.41.12-.18.11,0,.36-.17.47-.18.11-.32-.09-.5.02-.18.11-.11.21-.29.32-.18.11-.33-.04-.46.04l.64,1.02c.13-.08.03-.2.21-.31.18-.11.22-.03.4-.14Z"/>
    <path d="M42.13,63.55c0-.21-.2-.16-.2-.37,0-.21.19-.33.19-.53,0-.21-.08-.21-.08-.41,0-.21.18-.21.18-.42,0-.13-.16-.16-.16-.3.01-.11-.39-.28-.26-.42.11-.07.3.02.43.08.07.03.12.05.16.03.11-.07.14-.22.3-.32.18-.11.26.17.44.06.18-.11.04-.33.22-.44.18-.11.19-.08.37-.19.18-.11.29.05.46-.06.18-.11.05-.37.22-.48.18-.11.48,0,.49,0l-.64-1.02s-.16.25-.34.35c-.18.11-.25-.02-.43.09-.18.11-.09.25-.26.36-.18.11-.28-.06-.45.05-.18.11.06.37-.11.48-.18.11-.29.04-.47.15-.19.12-.17,0-.42.15-.08.05-.13.09-.16.14-.07.1-.08.19-.21.3-.16.2-.37.11-.42.41-.02.31.26.36.25.59,0,.21-.09.21-.09.41,0,.21-.11.21-.11.41,0,.21.31.19.31.39,0,.21-.24.23-.24.43,0,.21.12.21.12.41,0,.21-.2.26-.2.41h1.2c0-.15-.16-.13-.16-.34,0-.21.09-.2.09-.41Z"/>
    <path d="M42.13,70.2c0-.21-.2-.16-.2-.37s.19-.33.19-.53-.08-.21-.08-.41.18-.21.18-.42c0-.21-.16-.26-.16-.46,0-.21-.37-.14-.37-.35,0-.21.4-.24.4-.44,0-.21-.11-.26-.11-.46,0-.21.28-.13.28-.34,0-.21-.26-.21-.26-.42,0-.21.03-.21.03-.41,0-.21.2-.22.2-.42,0-.21-.29-.24-.29-.44,0-.21.26-.4.26-.41h-1.2s.12.27.12.47c0,.21-.15.21-.15.41,0,.21.17.21.17.41,0,.21-.2.2-.2.41,0,.21.34.14.34.35,0,.21-.12.27-.12.48,0,.21-.09.18-.09.39,0,.21.14.23.14.44,0,.21-.26.21-.26.42,0,.21.26.2.26.41,0,.21-.09.21-.09.41s-.11.21-.11.41.31.19.31.39-.24.23-.24.43.12.21.12.41-.2.26-.2.41h1.2c0-.15-.16-.13-.16-.34s.09-.2.09-.41Z"/>
    <path d="M41.89,71.44c.09-.05.15-.13.21-.21.05-.08.09-.17.09-.27h0s-1.2,0-1.2,0h0c0,.1.02.2.07.28.05.08.14.15.23.2.09.05.19.07.3.07s.22-.03.3-.07Z"/>
  </g>
  <g>
    <path d="M21.35,11.84c-.08-.06-.19-.09-.29-.09-.1,0-.2.03-.3.07-.1.05-.17.12-.23.21-.06.09-.12.18-.13.29,0,.1.02.21.07.3l1.07-.54c-.05-.1-.11-.18-.2-.23Z"/>
    <path d="M24.24,17.69c-.1-.2-.27-.08-.37-.28-.1-.2,0-.39-.1-.59-.1-.2-.18-.16-.28-.36-.1-.2.06-.29-.03-.48-.09-.19-.25-.17-.35-.36-.09-.19-.39.03-.49-.16-.09-.19.25-.41.15-.6-.09-.19-.22-.19-.31-.38-.09-.19.19-.25.09-.45-.09-.19-.33-.08-.42-.27-.09-.19-.07-.21-.16-.4-.09-.19.07-.29-.02-.49-.09-.19-.36-.09-.46-.29-.09-.19.05-.49.04-.5l-1.07.54s.23.2.33.39c.09.19-.04.26.05.46.09.2.24.12.34.32.09.19-.08.28,0,.48.09.19.37-.02.47.17.09.19.02.31.11.5.09.19,0,.21.1.41.09.19.23.15.33.35.09.19-.13.32-.04.51.09.19.32.07.42.26.09.19.02.24.11.42.1.19,0,.24.09.42.1.18.36.04.46.23.1.19-.12.3-.02.49.1.18.21.14.3.33.1.19-.07.3,0,.44l1.15-.38c-.08-.15-.22-.08-.32-.28-.1-.2-.02-.23-.12-.43Z"/>
    <path d="M22.13,23.76c.15-.16-.05-.25.1-.41.15-.16.39-.15.54-.31.15-.16.08-.21.23-.37.15-.16.31-.07.46-.23.15-.16.05-.29.2-.45.15-.16-.22-.3-.07-.46.15-.16.52.02.67-.14.15-.16.09-.26.23-.42.15-.16.35.03.5-.14.14-.16-.06-.31.08-.52.12-.24.15-.26.09-.53-.08-.24.08-.37-.02-.55-.1-.2-.4-.15-.5-.34-.1-.19.05-.46.04-.47l-1.15.38s.24.2.34.38c.1.19-.05.23.05.41.06.1.1.11.15.13.06.02.12.04.14.11.05.13-.19.11-.24.18-.07.08.31.17.16.33-.14.16-.3.15-.44.3-.14.16-.21.09-.35.25-.14.16-.03.25-.17.4s-.37.03-.51.18c-.14.15.09.29-.06.45-.14.16-.22.11-.36.26-.14.16-.24.09-.38.25-.14.15.12.32-.02.47-.14.16-.36.03-.5.18-.14.16-.05.23-.19.38-.14.16-.34.07-.44.18l.93.76c.11-.12-.02-.21.12-.37.15-.16.22-.1.37-.27Z"/>
    <path d="M17.38,28.93c.15-.16-.04-.26.11-.42.15-.16.37-.13.52-.29.15-.16.09-.21.23-.37.15-.16.29-.04.43-.2.15-.16.07-.3.21-.46.15-.16-.17-.36-.02-.52.15-.16.46.09.61-.07.15-.16.1-.27.25-.43.15-.16.3.09.45-.07.15-.16-.04-.34.1-.5.15-.16.17-.14.32-.3.15-.16.3-.04.45-.2.15-.16-.05-.38.1-.54.15-.16.49-.15.5-.16l-.93-.76s-.09.28-.23.44c-.14.16-.26.06-.4.21-.14.16-.02.27-.16.42-.15.16-.29.02-.44.18-.15.16.15.34,0,.5-.15.16-.28.13-.43.29-.15.16-.2.08-.34.24-.15.16-.06.28-.2.43-.15.16-.34,0-.49.15-.15.16.05.33-.1.49-.15.16-.21.1-.36.26-.15.16-.23.08-.38.24-.15.16.09.35-.05.51-.15.16-.34.01-.49.17-.15.16-.06.24-.21.4-.15.17-.32.05-.43.17l.87.83c.11-.11,0-.22.14-.38.15-.16.21-.1.36-.26Z"/>
    <path d="M16.41,29.69c.1.01.18,0,.25-.01.08-.01.15-.04.22-.11h0s-.87-.83-.87-.83h0c-.07.08-.15.19-.18.31-.03.12-.01.26.04.36.05.1.13.17.23.21.1.04.21.06.3.07Z"/>
  </g>
  <g>
    <path d="M60.11,21.14c-.12-.06-.25-.08-.37-.07-.11,0-.21.06-.29.13-.08.07-.12.17-.14.28-.02.11-.03.24.01.37.04.12.13.25.24.36l.88-.81c-.1-.11-.22-.2-.34-.25Z"/>
    <path d="M66.26,27.81c-.21-.22-.31-.04-.52-.26-.21-.22-.19-.48-.39-.7-.21-.22-.27-.17-.47-.39-.21-.22-.07-.35-.28-.58-.21-.22-.37-.17-.57-.39-.21-.22-.41.09-.62-.13-.2-.22.06-.53-.14-.75-.2-.22-.34-.2-.54-.42-.21-.22.07-.33-.13-.55-.21-.22-.4-.05-.61-.27-.21-.22-.18-.25-.39-.47-.21-.22-.07-.37-.28-.59-.21-.22-.45-.06-.65-.28-.21-.22-.21-.6-.22-.62l-.88.81s.36.2.56.43c.2.22.09.32.3.55.21.22.33.11.53.33.2.22.05.35.26.58.2.22.4-.08.6.14.2.22.18.37.39.6.2.22.11.26.32.48.2.22.33.15.54.37.2.22.02.4.23.62.2.22.39.04.6.26.2.22.14.28.35.5.2.22.12.3.33.52.2.22.41,0,.61.22.2.22.04.41.25.63.2.22.29.14.5.37.2.22.11.41.26.58l.88-.81c-.15-.17-.25-.04-.46-.26-.21-.22-.14-.28-.34-.51Z"/>
    <path d="M67.33,29.39c.03-.11,0-.29-.07-.45-.04-.12-.1-.25-.2-.35h0s-.88.81-.88.81h0c.1.11.21.2.33.25.07.03.18.03.29.03.11,0,.23-.01.33-.06.1-.04.18-.12.21-.23Z"/>
  </g>
  <g>
    <path d="M58.18,20.77c.1,0,.21-.03.3-.09.09-.05.16-.14.21-.23.05-.09.07-.2.07-.3,0-.1,0-.22-.06-.31-.05-.09-.14-.16-.24-.21l-.58,1.05c.09.05.2.08.3.08Z"/>
    <path d="M51.88,19.86c.22.02.19-.18.41-.16.22.02.33.22.55.25.22.02.23-.06.45-.03.22.02.21.21.43.23.22.02.29-.13.51-.1.22.02.19-.35.41-.32.22.02.21.43.42.45.22.02.28-.08.5-.06.22.02.11.29.33.32.22.02.25-.24.47-.21.22.02.22.06.43.08.22.02.21.22.43.24.22.02.3-.25.45-.25.08.03.11.13.13.21.03.09.06.18.06.18l.58-1.05s-.08,0-.19-.03c-.14-.03-.29-.12-.44-.14-.32.02-.23-.16-.47-.18-.22-.02-.24.14-.46.12-.22-.02-.19-.22-.41-.25-.22-.02-.19.33-.41.3-.22-.02-.27-.15-.49-.17-.22-.02-.18-.11-.4-.14-.22-.02-.26.12-.48.09-.22-.02-.2-.28-.42-.3-.22-.02-.24.24-.46.21-.22-.02-.21-.11-.43-.13-.22-.02-.21-.14-.43-.16-.22-.02-.23.28-.45.26-.22-.02-.21-.27-.43-.29-.22-.02-.23.09-.45.07-.22-.02-.25-.23-.42-.25l-.13,1.19c.16.02.16-.14.38-.12.22.02.21.12.43.14Z"/>
    <path d="M44.81,19.1c.22.02.19-.18.41-.16.22.02.33.22.55.25.22.02.23-.06.45-.03.22.02.21.21.43.23.22.02.29-.13.51-.1.22.02.19-.35.41-.32.22.02.21.43.43.45.22.02.28-.08.5-.06.22.02.11.29.33.32.22.02.25-.24.47-.21.22.02.22.06.44.08.22.02.21.22.43.24.22.02.28-.26.5-.24.22.02.4.3.41.3l.13-1.19s-.3.09-.52.07c-.22-.02-.2-.17-.42-.2-.22-.02-.24.14-.46.12-.22-.02-.19-.22-.41-.25-.22-.02-.19.33-.41.3-.22-.02-.28-.15-.49-.17-.22-.02-.18-.11-.4-.14-.22-.02-.26.12-.48.09-.22-.02-.2-.28-.42-.3-.22-.02-.24.24-.46.21-.22-.02-.21-.11-.43-.13-.22-.02-.21-.14-.43-.16-.22-.02-.23.28-.45.26-.22-.02-.22-.27-.43-.29-.22-.02-.23.09-.45.07-.22-.02-.25-.23-.42-.25l-.13,1.19c.16.02.16-.14.38-.12.22.02.21.12.43.14Z"/>
    <path d="M43.52,18.73c.04.09.12.17.2.23.08.06.17.11.28.12,0,0,0,0,0,0l.13-1.19s0,0,0,0c-.11-.01-.22,0-.31.04-.09.04-.18.12-.24.2-.06.08-.1.18-.11.29-.01.11,0,.22.04.31Z"/>
  </g>
</svg>