<?xml version="1.0" encoding="UTF-8"?>
<svg id="_レイヤー_2" data-name="レイヤー_2" xmlns="http://www.w3.org/2000/svg" version="1.1" viewBox="0 0 80 90">
  <!-- Generator: Adobe Illustrator 30.0.0, SVG Export Plug-In . SVG Version: 2.1.1 Build 123)  -->
  <defs>
    <style>
      .st0 {
        fill: #ceb372;
      }

      .st1, .st2 {
        fill: none;
        stroke: #000;
        stroke-linecap: round;
        stroke-linejoin: round;
      }

      .st3 {
        fill: #fff;
      }

      .st2 {
        stroke-width: 1.5px;
      }
    </style>
  </defs>
  <path class="st3" d="M26.67,5.32c-.41.05-.65.34-.91.61-3.13,3.14-6.24,6.3-9.42,9.39-.77.75-1,1.61-1,2.57-.02,18.16-.01,36.32-.01,54.49,0,.08-.02.17,0,.24.21.77.22,1.55.89,2.2,3.22,3.13,6.37,6.33,9.54,9.51.62.62,1.38.91,2.25.91,7.76,0,15.53,0,23.29,0,.99,0,1.84-.32,2.55-1.03,3.11-3.12,6.21-6.25,9.35-9.33.75-.74,1.01-1.59,1.01-2.56.01-4.81,0-9.63,0-14.44,0-13.31,0-26.62,0-39.92,0-.97-.26-1.82-1.01-2.56-3.16-3.1-6.28-6.26-9.41-9.4-1.05-1.05-2.64-.91-4-.91-1.75,0-3.5,0-5.25,0-3.5,0-7,0-10.5,0-2.03,0-4.06,0-6.09,0"/>
  <polyline class="st0" points="15.22 17.06 15.59 73.85 26.69 84.95 52.1 85.29 48.56 76.89 30.82 76.53 23.66 69.81 23.02 20.71 15.96 16.57"/>
  <polygon class="st3" points="23.21 69.22 15.9 73.73 26.5 85.18 30.95 76.89 23.21 69.22"/>
  <polygon class="st0" points="52.53 4.38 48.4 13.78 56.81 21.01 63.37 16.64 52.53 4.38"/>
  <path class="st1" d="M52.21,6.35c-1.17,2.38-2.4,4.73-3.58,7.1"/>
  <path class="st1" d="M30.49,76.37c-2.31-2.3-4.6-4.62-6.93-6.9-.28-.28-.35-.52-.35-.86,0-15.65,0-31.31,0-46.96,0-.1,0-.2,0-.3,0-.12,0-.21.12-.31,2.43-2.28,7.36-7.37,7.53-7.52h17.56s7.61,6.86,7.61,6.86"/>
  <path class="st1" d="M57.32,69.64c1.78,1.13,2.93,1.8,4.72,2.9.6.37,1.18.78,1.88.97"/>
  <path class="st1" d="M56.26,21.82c.01,13.98,0,27.95,0,41.93,0,1.62,0,3.24,0,4.85l-.18.67c-2.49,2.49-4.97,4.97-7.46,7.46-.01.01,0,.04,0,.06"/>
  <path class="st1" d="M63.91,16.73c-1.04.36-1.91,1.03-2.85,1.58-1.42.84-2.84,1.69-4.26,2.52"/>
  <path class="st1" d="M47.84,76.72c-3.23.02-6.47,0-9.7,0-2.2,0-4.41,0-6.61,0"/>
  <path class="st1" d="M52.63,84.92c-.79-2.02-1.93-3.87-2.85-5.82-.28-.6-.61-1.17-.89-1.77"/>
  <path class="st1" d="M16.22,16.98c1.6.93,1.76,1.1,2.93,1.76,1.35.76,2.67,1.57,4.01,2.36"/>
  <line class="st1" x1="30.85" y1="13.51" x2="27.41" y2="5.83"/>
  <path class="st1" d="M26.85,84.86c1.25-2.74,2.64-4.84,3.88-7.57"/>
  <path class="st1" d="M15.63,73.52c.32-.11.62-.24.91-.42,2.2-1.32,4.41-2.63,6.61-3.95"/>
  <path class="st2" d="M26.67,5.32c-.41.05-.65.34-.91.61-3.13,3.14-6.24,6.3-9.42,9.39-.77.75-1,1.61-1,2.57-.02,18.16-.01,36.32-.01,54.49,0,.08-.02.17,0,.24.21.77.22,1.55.89,2.2,3.22,3.13,6.37,6.33,9.54,9.51.62.62,1.38.91,2.25.91,7.76,0,15.53,0,23.29,0,.99,0,1.84-.32,2.55-1.03,3.11-3.12,6.21-6.25,9.35-9.33.75-.74,1.01-1.59,1.01-2.56.01-4.81,0-9.63,0-14.44,0-13.31,0-26.62,0-39.92,0-.97-.26-1.82-1.01-2.56-3.16-3.1-6.28-6.26-9.41-9.4-1.05-1.05-2.64-.91-4-.91-1.75,0-3.5,0-5.25,0-3.5,0-7,0-10.5,0-2.03,0-4.06,0-6.09,0"/>
</svg>