<?xml version="1.0" encoding="UTF-8"?>
<svg id="_レイヤー_1" xmlns="http://www.w3.org/2000/svg" version="1.1" viewBox="0 0 80 90">
  <!-- Generator: Adobe Illustrator 30.0.0, SVG Export Plug-In . SVG Version: 2.1.1 Build 123)  -->
  <defs>
    <style>
      .st0 {
        fill: #1c1917;
      }

      .st1 {
        fill: #fff;
      }
    </style>
  </defs>
  <path class="st1" d="M62.82,36.77c2.65,6.09,3.54,8.87,3.78,14.1.36,8.28.01,17.25-5.52,24.28-4.5,5.71-12.09,9.39-19.9,9.65-7.81.26-15.68-2.9-20.65-8.3-6-6.51-7.49-15.52-6.74-23.93,1.53-17.14,11.4-33.02,24.38-45.71.66-.65,1.54-1.35,2.49-1.14.51.11.91.47,1.27.81,3.92,3.71,3.53,2.68,12.06,13.63,3.75,4.81,4.65,7.05,5.1,7.87,1.34,2.46,2.3,4.63,2.97,6.27"/>
  <path class="st1" d="M16.21,70.05s2.39,4.65,4.89,6.97,8.74,5.76,10.82,6.51c2.08.75,8.12,1.3,8.12,1.3v-8.55l-12.89-8.43c-.68-.44-1.56-.57-2.36-.33l-8.57,2.54h0Z"/>
  <path class="st1" d="M53.8,39.13v26.65l10.68,3.1s1.94-5.45,2.22-8.43-.69-15.12-.69-15.12l-3.19-8.92-9.02,2.73h0Z"/>
  <path class="st0" d="M29.75,16.92c1.64-2.08,3.35-4.1,5.15-6.05.85-.92,1.71-1.82,2.59-2.71.44-.44.87-.9,1.33-1.32.19-.18.52-.55.73-.62.55-.16,1.16.11,1.55.45,1.21,1.07,2.42,2.18,3.57,3.32,1.53,1.52,2.89,3.21,4.25,4.88,2.71,3.36,5.53,6.71,7.8,10.38,1.8,2.91,3.32,6.08,4.6,9.25.16.39,1.58-.06,1.45-.39-1.26-3.09-2.73-6.17-4.47-9.03-2.37-3.89-5.35-7.43-8.21-10.96-1.41-1.75-2.85-3.49-4.47-5.05-.58-.56-1.18-1.1-1.78-1.64-.94-.86-1.86-2.09-3.24-2.07-2.41.04-4.25,2.65-5.74,4.21-2.26,2.37-4.41,4.84-6.43,7.42-.32.4,1.09.23,1.32-.07h0Z"/>
  <path class="st0" d="M53.29,81.19c-10.92,5.96-25.65,3.53-33.39-6.49s-6.44-23.08-3.05-33.96c2.16-6.92,5.54-13.41,9.63-19.38.3-.44-1.11-.25-1.32.07-7.36,10.73-12.75,23.6-12.25,36.82.23,6.05,1.89,12.12,5.63,16.96,3.74,4.84,9.32,7.98,15.23,9.26,6.92,1.5,14.17.35,20.37-3.03.85-.46-.47-.47-.85-.26h0Z"/>
  <path class="st0" d="M62.97,39.01c1.34,3.23,2.43,6.47,2.76,9.97s.35,6.95.11,10.38c-.53,7.54-3.12,14.68-9.14,19.55-.59.48.84.33,1.12.1,5.86-4.74,8.67-11.47,9.37-18.85.34-3.56.31-7.19.05-10.76-.27-3.79-1.38-7.28-2.83-10.78-.16-.39-1.58.07-1.45.39h0Z"/>
  <path class="st0" d="M62.04,35.28c-2.6.88-5.23,1.7-7.83,2.59-.15.05-.59.25-.42.46s.76,0,.94-.05c2.6-.9,5.22-1.71,7.83-2.59.15-.05.59-.25.42-.46s-.76,0-.94.05h0Z"/>
  <path class="st0" d="M56.89,67.19c1.99.61,3.97,1.21,5.97,1.79.32.09.73-.02,1.02-.17.14-.07.49-.34.16-.43-1.99-.58-3.98-1.18-5.97-1.79-.32-.1-.73.02-1.02.17-.14.08-.48.33-.16.43h0Z"/>
  <path class="st0" d="M47.18,26.49c-1.14-1.65-2.29-3.31-3.42-4.97-.52-.77-1.04-1.54-1.55-2.32-.36-.55-.67-1.22-1.3-1.51-2.28-1.06-3.59,2.23-4.52,3.69-3.33,5.2-6.57,10.47-10.01,15.6-1.09,1.62-.77,3.53-.77,5.41v7.15c0,.78,1.47.59,1.47-.1v-6.91c0-1.15-.05-2.31,0-3.45.05-1.21.81-2.04,1.45-3.01,1.78-2.73,3.49-5.51,5.25-8.25,1.65-2.58,3.31-5.17,4.97-7.75.34-.53.71-1.63,1.52-1.16.32.19.66,1,.87,1.32.3.45.6.9.91,1.35,1.26,1.86,2.54,3.71,3.82,5.56.39.57,1.77-.01,1.32-.65h-.01Z"/>
  <path class="st0" d="M25.6,53.26v6.96c0,1.78-.17,3.64.02,5.41.06.59.26.67.8,1.02.88.58,1.76,1.17,2.64,1.75,1.83,1.21,3.67,2.42,5.5,3.63.87.57,1.74,1.15,2.61,1.73.73.48,1.61,1.29,2.47,1.5,1.43.35,2.91-1.19,4.01-1.91,3.64-2.4,7.39-4.69,10.91-7.25.18-.13.27-.33.24-.55-.25-1.74-.05-3.63-.05-5.38v-21.18c0-.86-.09-1.05-.55-1.77-.28-.45-.56-.89-.83-1.34-1.38-2.28-2.84-4.5-4.34-6.7-.39-.57-1.76,0-1.32.65,1.45,2.13,2.88,4.28,4.21,6.49.28.47.57.93.86,1.4.54.86.5,1.63.5,2.62v20.93c0,1.54-.15,3.15.07,4.68l.24-.55c-3,2.18-6.18,4.12-9.27,6.16-.82.54-1.64,1.08-2.46,1.63-.29.19-.89.72-1.23.81-.62.16-1.07-.27-1.53-.57-1.55-1.01-3.09-2.05-4.64-3.07s-3.12-2.06-4.69-3.09c-.73-.48-1.84-.97-2.44-1.61-.14-.15-.13.14-.24-.22-.05-.15-.01-.43-.01-.59-.05-3.89,0-7.79,0-11.68,0-.78-1.47-.59-1.47.1h-.01Z"/>
  <path class="st0" d="M39.43,6.85c.12,3.21.04,6.44.03,9.65,0,.77,1.47.57,1.47-.1,0-3.21.08-6.44-.03-9.65-.03-.77-1.49-.56-1.47.1h0Z"/>
  <path class="st0" d="M16.16,69.3c3.03-.91,6.06-1.85,9.09-2.77.19-.06.71-.24.63-.53s-.64-.2-.81-.14c-3.03.92-6.06,1.86-9.09,2.77-.19.06-.71.24-.63.53s.64.19.81.14h0Z"/>
  <path class="st0" d="M39.47,76.14v8.85c0,.78,1.47.59,1.47-.1v-8.85c0-.78-1.47-.59-1.47.1h0Z"/>
  <path class="st0" d="M17.69,35.98c2.69.89,5.42,1.71,8.09,2.67.34.12.8,0,1.02-.27.21-.26.13-.6-.19-.72-2.67-.96-5.4-1.78-8.09-2.67-.34-.11-.79-.02-1.02.27-.21.26-.14.61.19.72h0Z"/>
</svg>