<?xml version="1.0" encoding="UTF-8"?>
<svg id="_レイヤー_1" xmlns="http://www.w3.org/2000/svg" version="1.1" viewBox="0 0 80 90">
  <!-- Generator: Adobe Illustrator 30.0.0, SVG Export Plug-In . SVG Version: 2.1.1 Build 123)  -->
  <defs>
    <style>
      .st0 {
        fill: none;
      }

      .st1 {
        fill: #ceb372;
      }

      .st2 {
        fill: #fff;
      }
    </style>
  </defs>
  <path class="st2" d="M41.27,3c-.45-.56-.91-1.11-1.37-1.65-4.81,6.12-9,12.76-13.38,19.19-3.7,5.43-7.41,10.84-11.11,16.27-1.62,2.38-3.23,4.78-4.9,7.12-.41.57-.44,1.96,0,2.59,1.41,2.04,2.8,4.1,4.21,6.15,4.14,6.06,25.62,35.98,25.62,35.98,0,0,19.48-27.94,28.75-41.48.38-.55.77-1.14.79-1.81.03-.75-.41-1.43-.84-2.05-4.31-6.32-8.62-12.65-12.94-18.97-4.86-7.12-9.41-14.63-14.85-21.34Z"/>
  <g>
    <polygon class="st1" points="40.2 3.12 31.11 43.04 51.96 43.04 40.2 3.12"/>
    <g>
      <path class="st1" d="M37.76,42.59c-.19,0-.15.17-.34.17s-.3-.15-.49-.15-.19.07-.38.07-.19-.15-.38-.15-.23.13-.42.13-.13.31-.32.31-.22-.33-.4-.33-.23.09-.42.09-.12-.23-.31-.23-.19.22-.38.22-.19-.03-.38-.03-.2-.16-.39-.16-.22.24-.4.24-.36-.21-.38-.21v1s.24-.1.43-.1.19.12.38.12.19-.14.38-.14.19.17.37.17.13-.29.32-.29.25.1.44.1.17.08.35.08.21-.12.4-.12.19.21.38.21.18-.22.37-.22.19.07.38.07.19.09.38.09.17-.25.36-.25.21.2.4.2.19-.1.38-.1.23.17.38.17v-1c-.14,0-.12.13-.31.13s-.19-.08-.38-.08Z"/>
      <path class="st1" d="M43.85,42.59c-.19,0-.15.17-.34.17s-.3-.15-.49-.15-.19.07-.38.07-.19-.15-.38-.15-.23.13-.42.13-.13.31-.32.31-.22-.33-.4-.33-.23.09-.42.09-.12-.23-.31-.23-.19.22-.38.22-.19-.03-.38-.03-.2-.16-.39-.16-.22.24-.4.24-.36-.21-.38-.21v1s.24-.1.43-.1.19.12.38.12.19-.14.38-.14.19.17.37.17.13-.29.32-.29.25.1.44.1.17.08.35.08.21-.12.4-.12.19.21.38.21.18-.22.37-.22.19.07.38.07.19.09.38.09.17-.25.36-.25.21.2.4.2.19-.1.38-.1.23.17.38.17v-1c-.14,0-.12.13-.31.13s-.19-.08-.38-.08Z"/>
      <path class="st1" d="M49.93,42.59c-.19,0-.15.17-.34.17s-.3-.15-.49-.15-.19.07-.38.07-.19-.15-.38-.15-.23.13-.42.13-.13.31-.32.31-.22-.33-.4-.33-.23.09-.42.09-.12-.23-.31-.23-.19.22-.38.22-.19-.03-.38-.03-.2-.16-.39-.16-.22.24-.4.24-.36-.21-.38-.21v1s.24-.1.43-.1.19.12.38.12.19-.14.38-.14.19.17.37.17.13-.29.32-.29.25.1.44.1.17.08.35.08.21-.12.4-.12.19.21.38.21.18-.22.37-.22.19.07.38.07.19.09.38.09.17-.25.36-.25.21.2.4.2.19-.1.38-.1.23.17.38.17v-1c-.14,0-.12.13-.31.13s-.19-.08-.38-.08Z"/>
      <path class="st1" d="M49.63,36.72c.05.18.2.09.26.28.05.18-.06.33-.01.51.05.18.12.16.17.34.05.18-.09.23-.04.41.05.18.19.19.24.37.05.18.33.04.38.22.05.18-.26.3-.21.48.05.18.16.2.21.38.05.18-.19.18-.13.36.05.18.26.12.32.3.05.18.03.19.08.37.05.18-.1.24-.05.42.05.18.29.14.35.32.05.18-.1.41-.1.42l.96-.28s-.17-.2-.22-.38c-.05-.18.07-.21.01-.4-.05-.18-.19-.14-.24-.32-.05-.18.11-.22.05-.4-.05-.18-.31-.04-.37-.22-.05-.18.03-.27-.03-.45-.05-.18.03-.18-.03-.36-.05-.18-.18-.17-.23-.35-.05-.18.15-.24.1-.43-.05-.18-.26-.11-.31-.3-.05-.18.02-.2-.04-.38-.05-.18.04-.21-.02-.39-.05-.18-.29-.09-.35-.27-.05-.18.14-.26.08-.44-.05-.18-.15-.15-.2-.33-.05-.18.1-.27.06-.41l-.96.28c.04.14.16.08.21.26.05.18-.02.2.03.38Z"/>
      <path class="st1" d="M47.92,30.89c.05.18.2.09.26.28.05.18-.06.33-.01.51.05.18.12.16.17.34.05.18-.09.23-.04.41.05.18.19.19.24.37.05.18.33.04.38.22.05.18-.26.3-.21.48.05.18.16.2.21.38.05.18-.19.18-.13.36.05.18.26.12.32.3.05.18.03.19.08.37.05.18-.1.24-.05.42.05.18.29.14.35.32.05.18-.1.41-.1.42l.96-.28s-.17-.2-.22-.38c-.05-.18.07-.21.01-.4-.05-.18-.19-.14-.24-.32-.05-.18.11-.22.05-.4-.05-.18-.31-.04-.37-.22-.05-.18.03-.27-.03-.45-.05-.18.03-.18-.03-.36-.05-.18-.18-.17-.23-.35-.05-.18.15-.24.1-.43-.05-.18-.26-.11-.31-.3-.05-.18.02-.2-.04-.38-.05-.18.04-.21-.02-.39-.05-.18-.29-.09-.35-.27-.05-.18.14-.26.08-.44-.05-.18-.15-.15-.2-.33-.05-.18.1-.27.06-.41l-.96.28c.04.14.16.08.21.26.05.18-.02.2.03.38Z"/>
      <path class="st1" d="M46.2,25.06c.05.18.2.09.26.28.05.18-.06.33-.01.51.05.18.12.16.17.34.05.18-.09.23-.04.41.05.18.19.19.24.37.05.18.33.04.38.22.05.18-.26.3-.21.48.05.18.16.2.21.38.05.18-.19.18-.13.36.05.18.26.12.32.3.05.18.03.19.08.37.05.18-.1.24-.05.42.05.18.29.14.35.32.05.18-.1.41-.1.42l.96-.28s-.17-.2-.22-.38c-.05-.18.07-.21.01-.4-.05-.18-.19-.14-.24-.32-.05-.18.11-.22.05-.4-.05-.18-.31-.04-.37-.22-.05-.18.03-.27-.03-.45-.05-.18.03-.18-.03-.36-.05-.18-.18-.17-.23-.35-.05-.18.15-.24.1-.43-.05-.18-.26-.11-.31-.3-.05-.18.02-.2-.04-.38-.05-.18.04-.21-.02-.39-.05-.18-.29-.09-.35-.27-.05-.18.14-.26.08-.44-.05-.18-.15-.15-.2-.33-.05-.18.1-.27.06-.41l-.96.28c.04.14.16.08.21.26.05.18-.02.2.03.38Z"/>
      <path class="st1" d="M44.49,19.24c.05.18.2.09.26.28.05.18-.06.33-.01.51.05.18.12.16.17.34.05.18-.09.23-.04.41.05.18.19.19.24.37.05.18.33.04.38.22.05.18-.26.3-.21.48.05.18.16.2.21.38.05.18-.19.18-.13.36.05.18.26.12.32.3.05.18.03.19.08.37.05.18-.1.24-.05.42.05.18.29.14.35.32.05.18-.1.41-.1.42l.96-.28s-.17-.2-.22-.38c-.05-.18.07-.21.01-.4-.05-.18-.19-.14-.24-.32-.05-.18.11-.22.05-.4-.05-.18-.31-.04-.37-.22-.05-.18.03-.27-.03-.45-.05-.18.03-.18-.03-.36-.05-.18-.18-.17-.23-.35-.05-.18.15-.24.1-.43-.05-.18-.26-.11-.31-.3-.05-.18.02-.2-.04-.38-.05-.18.04-.21-.02-.39-.05-.18-.29-.09-.35-.27-.05-.18.14-.26.08-.44-.05-.18-.15-.15-.2-.33-.05-.18.1-.27.06-.41l-.96.28c.04.14.16.08.21.26.05.18-.02.2.03.38Z"/>
      <path class="st1" d="M42.77,13.41c.05.18.2.09.26.28.05.18-.06.33-.01.51.05.18.12.16.17.34.05.18-.09.23-.04.41.05.18.19.19.24.37.05.18.33.04.38.22.05.18-.26.3-.21.48.05.18.16.2.21.38.05.18-.19.18-.13.36.05.18.26.12.32.3.05.18.03.19.08.37.05.18-.1.24-.05.42.05.18.29.14.35.32.05.18-.1.41-.1.42l.96-.28s-.17-.2-.22-.38c-.05-.18.07-.21.01-.4-.05-.18-.19-.14-.24-.32-.05-.18.11-.22.05-.4-.05-.18-.31-.04-.37-.22-.05-.18.03-.27-.03-.45-.05-.18.03-.18-.03-.36-.05-.18-.18-.17-.23-.35-.05-.18.15-.24.1-.43-.05-.18-.26-.11-.31-.3-.05-.18.02-.2-.04-.38-.05-.18.04-.21-.02-.39-.05-.18-.29-.09-.35-.27-.05-.18.14-.26.08-.44-.05-.18-.15-.15-.2-.33-.05-.18.1-.27.06-.41l-.96.28c.04.14.16.08.21.26.05.18-.02.2.03.38Z"/>
      <path class="st1" d="M41.05,7.58c.05.18.2.09.26.28.05.18-.06.33-.01.51.05.18.12.16.17.34.05.18-.09.23-.04.41.05.18.19.19.24.37.05.18.33.04.38.22.05.18-.26.3-.21.48.05.18.16.2.21.38.05.18-.19.18-.13.36.05.18.26.12.32.3.05.18.03.19.08.37.05.18-.1.24-.05.42.05.18.29.14.35.32.05.18-.1.41-.1.42l.96-.28s-.17-.2-.22-.38c-.05-.18.07-.21.01-.4-.05-.18-.19-.14-.24-.32-.05-.18.11-.22.05-.4-.05-.18-.31-.04-.37-.22-.05-.18.03-.27-.03-.45-.05-.18.03-.18-.03-.36-.05-.18-.18-.17-.23-.35-.05-.18.15-.24.1-.43-.05-.18-.26-.11-.31-.3-.05-.18.02-.2-.04-.38-.05-.18.04-.21-.02-.39-.05-.18-.29-.09-.35-.27-.05-.18.14-.26.08-.44-.05-.18-.15-.15-.2-.33-.05-.18.1-.27.06-.41l-.96.28c.04.14.16.08.21.26.05.18-.02.2.03.38Z"/>
      <path class="st1" d="M38.61,12.12c.04-.18-.13-.18-.09-.36.04-.18.22-.25.26-.43.04-.18-.02-.2.02-.38.04-.18.19-.15.23-.33.04-.18-.08-.25-.03-.43.04-.18-.27-.19-.23-.37.04-.18.37-.13.41-.31.04-.18-.04-.25,0-.43.04-.18.25-.06.29-.25.04-.18-.17-.23-.13-.41.04-.18.07-.17.11-.36.04-.18.2-.15.24-.34.04-.18-.19-.26-.15-.44.04-.18.29-.3.29-.31l-.98-.22s.05.26,0,.44c-.04.18-.16.15-.2.33-.04.18.09.21.05.39-.04.18-.2.14-.24.32-.04.18.25.19.21.37-.04.18-.15.22-.19.4-.04.18-.11.14-.15.32-.04.18.07.23.03.41-.04.18-.25.14-.29.32-.04.18.17.22.13.41-.04.18-.11.16-.15.34-.04.18-.13.16-.17.34-.04.18.21.22.17.4-.04.18-.24.15-.28.33-.04.18.05.2.01.38-.04.18-.22.19-.25.32l.98.22c.03-.14-.1-.15-.06-.33.04-.18.12-.16.16-.34Z"/>
      <path class="st1" d="M37.28,17.95c.04-.18-.13-.18-.09-.36.04-.18.22-.25.26-.43.04-.18-.02-.2.02-.38.04-.18.19-.15.23-.33.04-.18-.08-.25-.03-.43.04-.18-.27-.19-.23-.37.04-.18.37-.13.41-.31.04-.18-.04-.25,0-.43.04-.18.25-.06.29-.25.04-.18-.17-.23-.13-.41.04-.18.07-.17.11-.36.04-.18.2-.15.24-.34.04-.18-.19-.26-.15-.44.04-.18.29-.3.29-.31l-.98-.22s.05.26,0,.44c-.04.18-.16.15-.2.33-.04.18.09.21.05.39-.04.18-.2.14-.24.32-.04.18.25.19.21.37-.04.18-.15.22-.19.4-.04.18-.11.14-.15.32-.04.18.07.23.03.41-.04.18-.25.14-.29.32-.04.18.17.22.13.41-.04.18-.11.16-.15.34-.04.18-.13.16-.17.34-.04.18.21.22.17.4-.04.18-.24.15-.28.33-.04.18.05.2.01.38-.04.18-.22.19-.25.32l.98.22c.03-.14-.1-.15-.06-.33.04-.18.12-.16.16-.34Z"/>
      <path class="st1" d="M35.95,23.78c.04-.18-.13-.18-.09-.36.04-.18.22-.25.26-.43.04-.18-.02-.2.02-.38.04-.18.19-.15.23-.33.04-.18-.08-.25-.03-.43.04-.18-.27-.19-.23-.37.04-.18.37-.13.41-.31.04-.18-.04-.25,0-.43.04-.18.25-.06.29-.25.04-.18-.17-.23-.13-.41.04-.18.07-.17.11-.36.04-.18.2-.15.24-.34.04-.18-.19-.26-.15-.44.04-.18.29-.3.29-.31l-.98-.22s.05.26,0,.44c-.04.18-.16.15-.2.33-.04.18.09.21.05.39-.04.18-.2.14-.24.32-.04.18.25.19.21.37-.04.18-.15.22-.19.4-.04.18-.11.14-.15.32-.04.18.07.23.03.41-.04.18-.25.14-.29.32-.04.18.17.22.13.41-.04.18-.11.16-.15.34-.04.18-.13.16-.17.34-.04.18.21.22.17.4-.04.18-.24.15-.28.33-.04.18.05.2.01.38-.04.18-.22.19-.25.32l.98.22c.03-.14-.1-.15-.06-.33.04-.18.12-.16.16-.34Z"/>
      <path class="st1" d="M34.63,29.6c.04-.18-.13-.18-.09-.36.04-.18.22-.25.26-.43.04-.18-.02-.2.02-.38.04-.18.19-.15.23-.33.04-.18-.08-.25-.03-.43.04-.18-.27-.19-.23-.37.04-.18.37-.13.41-.31.04-.18-.04-.25,0-.43.04-.18.25-.06.29-.25.04-.18-.17-.23-.13-.41.04-.18.07-.17.11-.36.04-.18.2-.15.24-.34.04-.18-.19-.26-.15-.44.04-.18.29-.3.29-.31l-.98-.22s.05.26,0,.44c-.04.18-.16.15-.2.33-.04.18.09.21.05.39-.04.18-.2.14-.24.32-.04.18.25.19.21.37-.04.18-.15.22-.19.4-.04.18-.11.14-.15.32-.04.18.07.23.03.41-.04.18-.25.14-.29.32-.04.18.17.22.13.41-.04.18-.11.16-.15.34-.04.18-.13.16-.17.34-.04.18.21.22.17.4-.04.18-.24.15-.28.33-.04.18.05.2.01.38-.04.18-.22.19-.25.32l.98.22c.03-.14-.1-.15-.06-.33.04-.18.12-.16.16-.34Z"/>
      <path class="st1" d="M33.3,35.43c.04-.18-.13-.18-.09-.36.04-.18.22-.25.26-.43.04-.18-.02-.2.02-.38.04-.18.19-.15.23-.33.04-.18-.08-.25-.03-.43.04-.18-.27-.19-.23-.37.04-.18.37-.13.41-.31.04-.18-.04-.25,0-.43.04-.18.25-.06.29-.25.04-.18-.17-.23-.13-.41.04-.18.07-.17.11-.36.04-.18.2-.15.24-.34.04-.18-.19-.26-.15-.44.04-.18.29-.3.29-.31l-.98-.22s.05.26,0,.44c-.04.18-.16.15-.2.33-.04.18.09.21.05.39-.04.18-.2.14-.24.32-.04.18.25.19.21.37-.04.18-.15.22-.19.4-.04.18-.11.14-.15.32-.04.18.07.23.03.41-.04.18-.25.14-.29.32-.04.18.17.22.13.41-.04.18-.11.16-.15.34-.04.18-.13.16-.17.34-.04.18.21.22.17.4-.04.18-.24.15-.28.33-.04.18.05.2.01.38-.04.18-.22.19-.25.32l.98.22c.03-.14-.1-.15-.06-.33.04-.18.12-.16.16-.34Z"/>
      <path class="st1" d="M31.97,41.26c.04-.18-.13-.18-.09-.36.04-.18.22-.25.26-.43.04-.18-.02-.2.02-.38.04-.18.19-.15.23-.33.04-.18-.08-.25-.03-.43.04-.18-.27-.19-.23-.37.04-.18.37-.13.41-.31.04-.18-.04-.25,0-.43.04-.18.25-.06.29-.25.04-.18-.17-.23-.13-.41.04-.18.07-.17.11-.36.04-.18.2-.15.24-.34.04-.18-.19-.26-.15-.44.04-.18.29-.3.29-.31l-.98-.22s.05.26,0,.44c-.04.18-.16.15-.2.33-.04.18.09.21.05.39-.04.18-.2.14-.24.32-.04.18.25.19.21.37-.04.18-.15.22-.19.4-.04.18-.11.14-.15.32-.04.18.07.23.03.41-.04.18-.25.14-.29.32-.04.18.17.22.13.41-.04.18-.11.16-.15.34-.04.18-.13.16-.17.34-.04.18.21.22.17.4-.04.18-.24.15-.28.33-.04.18.05.2.01.38-.04.18-.22.19-.25.32l.98.22c.03-.14-.1-.15-.06-.33.04-.18.12-.16.16-.34Z"/>
      <g>
        <path class="st1" d="M52.08,41.92v.04s.02.04.02.04l.03.08.03.08v.04s.01.04.01.04v.02s0,.02,0,.02v.03s-.03.03-.03.03l-.02.03-.04.06v.03s-.02.02-.02.02v.02s0,.02,0,.02v.02s.01.04.01.04l.03.09.03.09v.04s0,.02,0,.02v.02s-.01.03-.01.03v.03s-.04.05-.04.05l-.03.05-.03.06v.02s-.01,0-.01,0h0s0,0,0,0h0s-.04.01-.04.01c-.03,0-.06,0-.1.01h-.1s-.04.02-.04.02h-.02s-.02.01-.02.01h-.02s-.01.02-.01.02l-.02.02-.04.06-.02.03-.02.03-.02.02h-.01s-.02.02-.02.02c-.02,0-.05.02-.08.03l-.09.02c-.06.01-.12.03-.17.04h-.04s-.03,0-.03,0h-.03s-.03-.02-.03-.02l-.06-.02h-.03s-.04,0-.04,0h-.02s-.02.01-.02.01l-.04.02-.07.05-.04.03-.04.02h-.02s-.02.02-.02.02h-.02s-.02,0-.02,0v-1s.02,0,.03,0h.03s.02,0,.02,0h.02s.01,0,.01,0h.01s.02,0,.02,0l.05.02h.03s.04.02.04.02h.02s.02,0,.02,0h.02s.03-.01.03-.01c.03,0,.09-.02.15-.04.03,0,.06-.02.08-.02h.02s0,0,0,0h0s0,0,0,0v-.02s.02-.02.02-.02v-.02s.01-.04.01-.04v-.04s0-.04,0-.04c0-.02-.01-.05-.02-.07v-.03s0-.03,0-.03h0s0-.02,0-.02h0s0-.02,0-.02l-.02-.02-.02-.02-.04-.04v-.02s-.02-.01-.02-.01h0s-.01-.05-.02-.07c0-.02-.02-.05-.02-.07l.24-.07.24-.07.48-.14v.03s.01.04.01.04v.08s0,.08,0,.08v.08Z"/>
        <polygon class="st0" points="50.62 42.04 50.62 44.04 53.3 44.04 52.54 41.47 50.62 42.04"/>
      </g>
      <g>
        <path class="st1" d="M39.12,5.93c.02-.07.04-.15.05-.22l.05-.24.05-.23c.02-.07.04-.15.06-.22l.03-.09.04-.08.04-.07.04-.06.08-.12.04-.07.04-.09.03-.1.03-.12c.02-.08.04-.17.05-.26.02-.09.04-.17.06-.25l.03-.11.04-.1c.02-.05.05-.1.07-.14l.07-.11.07-.1s.05-.08.07-.13l.02-.03h0s0-.02,0-.02h0s0,0,0,0l.04.11c.03.08.06.17.09.26.03.09.06.18.09.26.02.04.03.08.04.12l.04.09.04.07.04.06.04.04.04.04.04.04.04.05.04.06.04.08c.05.13.12.28.18.43.06.16.12.32.17.45.01.04.02.07.03.1l.02.09.03.17.03.17.02.09s.02.06.03.1c.01.03.03.07.04.1.02.03.03.06.05.1.03.06.07.12.11.19.04.07.07.13.11.2l.05.11.04.12-.48.14-.24.07-.24.07c-.02-.07-.03-.12-.04-.17v-.06s-.03-.04-.03-.07l-.02-.07v-.07s-.03-.1-.03-.15l-.02-.09s-.01-.06-.02-.1c-.01-.03-.02-.07-.03-.11-.01-.04-.03-.08-.05-.13-.03-.09-.1-.24-.16-.4-.03-.08-.06-.16-.09-.23l-.02-.05v-.02s-.01,0-.01,0h0s0,0,0,0h0s0,0,0,0h0s0,0,0,0c-.01.02-.02.03-.03.04-.02.04-.03.07-.05.1-.01.04-.03.07-.04.1l-.03.1-.03.1c-.02.07-.03.13-.05.19l-.02.08-.02.07s-.01.04-.02.07v.07s-.02.09-.02.15c0,.05,0,.1,0,.15v.07s-.02.07-.02.07c-.02.08-.06.26-.08.38l-.24-.06-.24-.06-.49-.11c.02-.06.03-.12.05-.19.02-.06.04-.13.07-.2l.07-.21c.02-.07.04-.14.06-.21Z"/>
        <polygon class="st0" points="40.33 7.08 42.25 6.51 40.08 -.84 38.38 6.63 40.33 7.08"/>
      </g>
      <g>
        <path class="st1" d="M32.08,43.47h-.04s-.04,0-.04,0h-.08s-.08,0-.08,0h-.04s-.04,0-.04,0h-.02s-.02-.01-.02-.01l-.03-.02-.02-.02-.02-.03-.05-.05-.03-.02h-.01s-.02-.02-.02-.02h-.02s-.02,0-.02,0h-.04s-.09,0-.09,0h-.09s-.04,0-.04,0h-.02s-.02-.01-.02-.01l-.03-.02-.02-.02-.04-.04-.04-.04-.05-.04h-.01s0-.02,0-.02h0s0,0,0,0h0s0-.04,0-.04c0-.03,0-.06,0-.09v-.09s.01-.04.01-.04v-.02s0-.02,0-.02v-.02s-.01-.01-.01-.01l-.02-.03-.05-.05-.02-.02-.02-.02-.02-.03v-.02s0-.02,0-.02c0-.02,0-.05,0-.08v-.08c0-.06,0-.11-.01-.16v-.02s0-.02,0-.02v-.03s.02-.03.02-.03l.02-.02.03-.05v-.03s.02-.03.02-.03v-.02s0-.02,0-.02v-.04s-.03-.05-.05-.08l-.02-.04v-.04s-.02-.02-.02-.02v-.02s0-.02,0-.02v-.02s.49.11.49.11l.24.06.24.06v.03s-.02.02-.02.02v.02s-.01.02-.01.02h0s0,.02,0,.02v.02s-.05.04-.05.04l-.02.03v.03s-.02.02-.02.02v.02s0,.02,0,.02v.02s0,.09,0,.15c0,.03,0,.06,0,.08v.02s0,0,0,0h0s0,0,0,0l.02.02h.02s.02.03.02.03h.02s.02.02.02.02h.04s.03.01.03.01c.02,0,.04,0,.06,0h.03s.02,0,.02,0h.01s.01,0,.01,0h.01s.01,0,.01,0h.02s.02-.02.02-.02l.05-.03h.02s.01,0,.01,0h.01s.04,0,.06,0c.02,0,.05,0,.07,0v1h-.03s-.03,0-.03,0l-.07-.02-.07-.02h-.04s-.04-.02-.04-.02Z"/>
        <polygon class="st0" points="32.36 42.04 30.41 41.6 29.86 44.04 32.36 44.04 32.36 42.04"/>
      </g>
    </g>
  </g>
  <g>
    <polyline class="st1" points="11.15 47.17 25.96 47.17 39.5 87.66 10.51 46.51"/>
    <g>
      <path class="st1" d="M11.43,46.73c-.09.04-.16.11-.21.19-.05.07-.07.16-.07.25s.03.17.08.25c.05.07.11.16.19.2.08.04.19.06.29.06v-1c-.1,0-.2.02-.29.06Z"/>
      <path class="st1" d="M17.71,46.72c-.21,0-.16.17-.38.17s-.33-.15-.54-.15-.21.07-.42.07-.22-.15-.43-.15-.26.13-.47.13-.15.31-.36.31-.24-.33-.45-.33-.26.09-.47.09-.13-.23-.34-.23-.21.22-.42.22-.21-.03-.42-.03-.22-.16-.43-.16-.24.24-.45.24-.41-.21-.42-.21v1s.27-.1.48-.1.21.12.42.12.21-.14.42-.14.21.17.42.17.15-.29.36-.29.28.1.48.1.18.08.39.08.23-.12.44-.12.21.21.42.21.2-.22.41-.22.21.07.42.07.21.09.42.09.19-.25.4-.25.23.2.44.2.21-.1.42-.1.26.17.42.17v-1c-.16,0-.14.13-.35.13s-.21-.08-.42-.08Z"/>
      <path class="st1" d="M24.47,46.72c-.21,0-.16.17-.38.17s-.33-.15-.54-.15-.21.07-.42.07-.22-.15-.43-.15-.26.13-.47.13-.15.31-.36.31-.24-.33-.45-.33-.26.09-.47.09-.13-.23-.34-.23-.21.22-.42.22-.21-.03-.42-.03-.22-.16-.43-.16-.24.24-.45.24-.41-.21-.42-.21v1s.27-.1.48-.1.21.12.42.12.21-.14.42-.14.21.17.42.17.15-.29.36-.29.28.1.48.1.18.08.39.08.23-.12.44-.12.21.21.42.21.2-.22.41-.22.21.07.42.07.21.09.42.09.19-.25.4-.25.23.2.44.2.21-.1.42-.1.26.17.42.17v-1c-.16,0-.14.13-.35.13s-.21-.08-.42-.08Z"/>
      <path class="st1" d="M28.26,52.63c-.06-.17-.21-.08-.26-.25-.06-.17.06-.32,0-.5-.06-.17-.12-.15-.18-.32-.06-.17.09-.23.03-.4-.06-.17-.19-.17-.25-.35-.06-.17-.33-.02-.39-.19-.06-.17.25-.3.19-.47-.06-.17-.16-.18-.22-.36-.06-.17.18-.18.13-.36-.06-.17-.27-.11-.32-.28-.06-.17-.03-.18-.09-.35-.06-.17.09-.23.04-.41-.06-.17-.29-.12-.35-.29-.06-.17.09-.4.09-.41l-.95.32s.17.19.23.36c.06.17-.06.21,0,.38.06.17.19.13.25.3.06.17-.1.22-.04.39.06.17.31.03.37.2.06.17-.02.26.04.43.06.17-.02.18.04.35.06.17.18.15.24.33.06.17-.14.24-.09.42.06.17.26.1.32.27.06.17-.01.2.05.37.06.17-.03.2.03.37.06.17.29.07.35.25.06.17-.13.25-.07.43.06.17.15.14.21.31.06.17-.09.27-.04.4l.95-.32c-.04-.13-.16-.07-.22-.24-.06-.17.02-.2-.04-.37Z"/>
      <path class="st1" d="M30.12,58.19c-.06-.17-.21-.08-.26-.25-.06-.17.06-.32,0-.5-.06-.17-.12-.15-.18-.32-.06-.17.09-.23.03-.4-.06-.17-.19-.17-.25-.35-.06-.17-.33-.02-.39-.19-.06-.17.25-.3.19-.47-.06-.17-.16-.18-.22-.36-.06-.17.18-.18.13-.36-.06-.17-.27-.11-.32-.28-.06-.17-.03-.18-.09-.35-.06-.17.09-.23.04-.41-.06-.17-.29-.12-.35-.29-.06-.17.09-.4.09-.41l-.95.32s.17.19.23.36c.06.17-.06.21,0,.38.06.17.19.13.25.3.06.17-.1.22-.04.39.06.17.31.03.37.2.06.17-.02.26.04.43.06.17-.02.18.04.35.06.17.18.15.24.33.06.17-.14.24-.09.42.06.17.26.1.32.27.06.17-.01.2.05.37.06.17-.03.2.03.37.06.17.29.07.35.25.06.17-.13.25-.07.43.06.17.15.14.21.31.06.17-.09.27-.04.4l.95-.32c-.04-.13-.16-.07-.22-.24-.06-.17.02-.2-.04-.37Z"/>
      <path class="st1" d="M31.98,63.75c-.06-.17-.21-.08-.26-.25-.06-.17.06-.32,0-.5-.06-.17-.12-.15-.18-.32-.06-.17.09-.23.03-.4-.06-.17-.19-.17-.25-.35-.06-.17-.33-.02-.39-.19-.06-.17.25-.3.19-.47-.06-.17-.16-.18-.22-.36-.06-.17.18-.18.13-.36-.06-.17-.27-.11-.32-.28-.06-.17-.03-.18-.09-.35-.06-.17.09-.23.04-.41-.06-.17-.29-.12-.35-.29-.06-.17.09-.4.09-.41l-.95.32s.17.19.23.36c.06.17-.06.21,0,.38.06.17.19.13.25.3.06.17-.1.22-.04.39.06.17.31.03.37.2.06.17-.02.26.04.43.06.17-.02.18.04.35.06.17.18.15.24.33.06.17-.14.24-.09.42.06.17.26.1.32.27.06.17-.01.2.05.37.06.17-.03.2.03.37.06.17.29.07.35.25.06.17-.13.25-.07.43.06.17.15.14.21.31.06.17-.09.27-.04.4l.95-.32c-.04-.13-.16-.07-.22-.24-.06-.17.02-.2-.04-.37Z"/>
      <path class="st1" d="M33.83,69.3c-.06-.17-.21-.08-.26-.25-.06-.17.06-.32,0-.5-.06-.17-.12-.15-.18-.32-.06-.17.09-.23.03-.4-.06-.17-.19-.17-.25-.35-.06-.17-.33-.02-.39-.19-.06-.17.25-.3.19-.47-.06-.17-.16-.18-.22-.36-.06-.17.18-.18.13-.36-.06-.17-.27-.11-.32-.28-.06-.17-.03-.18-.09-.35-.06-.17.09-.23.04-.41-.06-.17-.29-.12-.35-.29-.06-.17.09-.4.09-.41l-.95.32s.17.19.23.36c.06.17-.06.21,0,.38.06.17.19.13.25.3.06.17-.1.22-.04.39.06.17.31.03.37.2.06.17-.02.26.04.43.06.17-.02.18.04.35.06.17.18.15.24.33.06.17-.14.24-.09.42.06.17.26.1.32.27.06.17-.01.2.05.37.06.17-.03.2.03.37.06.17.29.07.35.25.06.17-.13.25-.07.43.06.17.15.14.21.31.06.17-.09.27-.04.4l.95-.32c-.04-.13-.16-.07-.22-.24-.06-.17.02-.2-.04-.37Z"/>
      <path class="st1" d="M35.69,74.86c-.06-.17-.21-.08-.26-.25-.06-.17.06-.32,0-.5-.06-.17-.12-.15-.18-.32-.06-.17.09-.23.03-.4-.06-.17-.19-.17-.25-.35-.06-.17-.33-.02-.39-.19-.06-.17.25-.3.19-.47-.06-.17-.16-.18-.22-.36-.06-.17.18-.18.13-.36-.06-.17-.27-.11-.32-.28-.06-.17-.03-.18-.09-.35-.06-.17.09-.23.04-.41-.06-.17-.29-.12-.35-.29-.06-.17.09-.4.09-.41l-.95.32s.17.19.23.36c.06.17-.06.21,0,.38.06.17.19.13.25.3.06.17-.1.22-.04.39.06.17.31.03.37.2.06.17-.02.26.04.43.06.17-.02.18.04.35.06.17.18.15.24.33.06.17-.14.24-.09.42.06.17.26.1.32.27.06.17-.01.2.05.37.06.17-.03.2.03.37.06.17.29.07.35.25.06.17-.13.25-.07.43.06.17.15.14.21.31.06.17-.09.27-.04.4l.95-.32c-.04-.13-.16-.07-.22-.24-.06-.17.02-.2-.04-.37Z"/>
      <path class="st1" d="M37.55,80.42c-.06-.17-.21-.08-.26-.25-.06-.17.06-.32,0-.5-.06-.17-.12-.15-.18-.32-.06-.17.09-.23.03-.4-.06-.17-.19-.17-.25-.35-.06-.17-.33-.02-.39-.19-.06-.17.25-.3.19-.47-.06-.17-.16-.18-.22-.36-.06-.17.18-.18.13-.36-.06-.17-.27-.11-.32-.28-.06-.17-.03-.18-.09-.35-.06-.17.09-.23.04-.41-.06-.17-.29-.12-.35-.29-.06-.17.09-.4.09-.41l-.95.32s.17.19.23.36c.06.17-.06.21,0,.38.06.17.19.13.25.3.06.17-.1.22-.04.39.06.17.31.03.37.2.06.17-.02.26.04.43.06.17-.02.18.04.35.06.17.18.15.24.33.06.17-.14.24-.09.42.06.17.26.1.32.27.06.17-.01.2.05.37.06.17-.03.2.03.37.06.17.29.07.35.25.06.17-.13.25-.07.43.06.17.15.14.21.31.06.17-.09.27-.04.4l.95-.32c-.04-.13-.16-.07-.22-.24-.06-.17.02-.2-.04-.37Z"/>
      <path class="st1" d="M32.07,77.89c.11.16.22.02.34.18.11.16.05.34.16.49.11.16.17.12.28.27.11.16-.01.25.1.4.11.16.24.12.35.27.11.16.33-.07.44.09.11.16-.15.37-.04.53.11.16.21.14.32.3.11.16-.12.23,0,.39.11.16.29.03.4.19.11.16.09.17.2.33.11.16-.02.26.09.41.11.16.32.04.43.19.11.16.04.42.04.43l.82-.58s-.23-.14-.34-.3c-.11-.16,0-.23-.12-.38-.11-.16-.22-.08-.33-.23-.11-.16.03-.25-.08-.4-.11-.16-.31.06-.42-.1-.11-.16-.06-.26-.17-.42-.11-.16-.03-.18-.14-.34-.11-.16-.22-.1-.33-.26-.11-.16.06-.28-.05-.44-.11-.16-.29-.03-.4-.18-.11-.16-.05-.2-.16-.35-.11-.16-.03-.21-.14-.37-.11-.16-.31,0-.42-.15-.11-.16.05-.29-.06-.44-.11-.16-.19-.1-.3-.26-.11-.16,0-.29-.08-.41l-.82.58c.08.12.18.03.29.18.11.16.05.2.16.36Z"/>
      <path class="st1" d="M28.53,72.86c.11.16.22.02.34.18.11.16.05.34.16.49.11.16.17.12.28.27.11.16-.01.25.1.4.11.16.24.12.35.27.11.16.33-.07.44.09.11.16-.15.37-.04.53.11.16.21.14.32.3.11.16-.12.23,0,.39.11.16.29.03.4.19.11.16.09.17.2.33.11.16-.02.26.09.41.11.16.32.04.43.19.11.16.04.42.04.43l.82-.58s-.23-.14-.34-.3c-.11-.16,0-.23-.12-.38-.11-.16-.22-.08-.33-.23-.11-.16.03-.25-.08-.4-.11-.16-.31.06-.42-.1-.11-.16-.06-.26-.17-.42-.11-.16-.03-.18-.14-.34-.11-.16-.22-.1-.33-.26-.11-.16.06-.28-.05-.44-.11-.16-.29-.03-.4-.18-.11-.16-.05-.2-.16-.35-.11-.16-.03-.21-.14-.37-.11-.16-.31,0-.42-.15-.11-.16.05-.29-.06-.44-.11-.16-.19-.1-.3-.26-.11-.16,0-.29-.08-.41l-.82.58c.08.12.18.03.29.18.11.16.05.2.16.36Z"/>
      <path class="st1" d="M25,67.84c.11.16.22.02.34.18.11.16.05.34.16.49.11.16.17.12.28.27.11.16-.01.25.1.4.11.16.24.12.35.27.11.16.33-.07.44.09.11.16-.15.37-.04.53.11.16.21.14.32.3.11.16-.12.23,0,.39.11.16.29.03.4.19.11.16.09.17.2.33.11.16-.02.26.09.41.11.16.32.04.43.19.11.16.04.42.04.43l.82-.58s-.23-.14-.34-.3c-.11-.16,0-.23-.12-.38-.11-.16-.22-.08-.33-.23-.11-.16.03-.25-.08-.4-.11-.16-.31.06-.42-.1-.11-.16-.06-.26-.17-.42-.11-.16-.03-.18-.14-.34-.11-.16-.22-.1-.33-.26-.11-.16.06-.28-.05-.44-.11-.16-.29-.03-.4-.18-.11-.16-.05-.2-.16-.35-.11-.16-.03-.21-.14-.37-.11-.16-.31,0-.42-.15-.11-.16.05-.29-.06-.44-.11-.16-.19-.1-.3-.26-.11-.16,0-.29-.08-.41l-.82.58c.08.12.18.03.29.18.11.16.05.2.16.36Z"/>
      <path class="st1" d="M21.46,62.82c.11.16.22.02.34.18.11.16.05.34.16.49.11.16.17.12.28.27.11.16-.01.25.1.4.11.16.24.12.35.27.11.16.33-.07.44.09.11.16-.15.37-.04.53.11.16.21.14.32.3.11.16-.12.23,0,.39.11.16.29.03.4.19.11.16.09.17.2.33.11.16-.02.26.09.41.11.16.32.04.43.19.11.16.04.42.04.43l.82-.58s-.23-.14-.34-.3c-.11-.16,0-.23-.12-.38-.11-.16-.22-.08-.33-.23-.11-.16.03-.25-.08-.4-.11-.16-.31.06-.42-.1-.11-.16-.06-.26-.17-.42-.11-.16-.03-.18-.14-.34-.11-.16-.22-.1-.33-.26-.11-.16.06-.28-.05-.44-.11-.16-.29-.03-.4-.18-.11-.16-.05-.2-.16-.35-.11-.16-.03-.21-.14-.37-.11-.16-.31,0-.42-.15-.11-.16.05-.29-.06-.44-.11-.16-.19-.1-.3-.26-.11-.16,0-.29-.08-.41l-.82.58c.08.12.18.03.29.18.11.16.05.2.16.36Z"/>
      <path class="st1" d="M17.92,57.8c.11.16.22.02.34.18.11.16.05.34.16.49.11.16.17.12.28.27.11.16-.01.25.1.4.11.16.24.12.35.27.11.16.33-.07.44.09.11.16-.15.37-.04.53.11.16.21.14.32.3.11.16-.12.23,0,.39.11.16.29.03.4.19.11.16.09.17.2.33.11.16-.02.26.09.41.11.16.32.04.43.19.11.16.04.42.04.43l.82-.58s-.23-.14-.34-.3c-.11-.16,0-.23-.12-.38-.11-.16-.22-.08-.33-.23-.11-.16.03-.25-.08-.4-.11-.16-.31.06-.42-.1-.11-.16-.06-.26-.17-.42-.11-.16-.03-.18-.14-.34-.11-.16-.22-.1-.33-.26-.11-.16.06-.28-.05-.44-.11-.16-.29-.03-.4-.18-.11-.16-.05-.2-.16-.35-.11-.16-.03-.21-.14-.37-.11-.16-.31,0-.42-.15-.11-.16.05-.29-.06-.44-.11-.16-.19-.1-.3-.26-.11-.16,0-.29-.08-.41l-.82.58c.08.12.18.03.29.18.11.16.05.2.16.36Z"/>
      <path class="st1" d="M14.38,52.77c.11.16.22.02.34.18.11.16.05.34.16.49.11.16.17.12.28.27.11.16-.01.25.1.4.11.16.24.12.35.27.11.16.33-.07.44.09.11.16-.15.37-.04.53.11.16.21.14.32.3.11.16-.12.23,0,.39.11.16.29.03.4.19.11.16.09.17.2.33.11.16-.02.26.09.41.11.16.32.04.43.19.11.16.04.42.04.43l.82-.58s-.23-.14-.34-.3c-.11-.16,0-.23-.12-.38-.11-.16-.22-.08-.33-.23-.11-.16.03-.25-.08-.4-.11-.16-.31.06-.42-.1-.11-.16-.06-.26-.17-.42-.11-.16-.03-.18-.14-.34-.11-.16-.22-.1-.33-.26-.11-.16.06-.28-.05-.44-.11-.16-.29-.03-.4-.18-.11-.16-.05-.2-.16-.35-.11-.16-.03-.21-.14-.37-.11-.16-.31,0-.42-.15-.11-.16.05-.29-.06-.44-.11-.16-.19-.1-.3-.26-.11-.16,0-.29-.08-.41l-.82.58c.08.12.18.03.29.18.11.16.05.2.16.36Z"/>
      <path class="st1" d="M10.84,47.75c.11.16.22.02.34.18.11.16.05.34.16.49.11.16.17.12.28.27.11.16-.01.25.1.4.11.16.24.12.35.27.11.16.33-.07.44.09.11.16-.15.37-.04.53.11.16.21.14.32.3.11.16-.12.23,0,.39.11.16.29.03.4.19.11.16.09.17.2.33.11.16-.02.26.09.41.11.16.32.04.43.19.11.16.04.42.04.43l.82-.58s-.23-.14-.34-.3c-.11-.16,0-.23-.12-.38-.11-.16-.22-.08-.33-.23-.11-.16.03-.25-.08-.4-.11-.16-.31.06-.42-.1-.11-.16-.06-.26-.17-.42-.11-.16-.03-.18-.14-.34-.11-.16-.22-.1-.33-.26-.11-.16.06-.28-.05-.44-.11-.16-.29-.03-.4-.18-.11-.16-.05-.2-.16-.35-.11-.16-.03-.21-.14-.37-.11-.16-.31,0-.42-.15-.11-.16.05-.29-.06-.44-.11-.16-.19-.1-.3-.26-.11-.16,0-.29-.08-.41l-.82.58c.08.12.18.03.29.18.11.16.05.2.16.36Z"/>
      <path class="st1" d="M10.34,46.71c-.04.08-.04.17-.03.26,0,.08.03.17.08.25,0,0,0,0,0,0l.82-.58s0,0,0,0c-.05-.07-.12-.14-.2-.18-.08-.04-.17-.05-.26-.04-.08,0-.17.04-.25.09-.07.05-.13.12-.17.2Z"/>
      <g>
        <path class="st1" d="M26.55,47.56v-.02s-.02-.02-.02-.02v-.04s-.02-.04-.02-.04v-.02s-.02-.02-.02-.02h0s0-.01,0-.01h-.02s-.06-.02-.06-.02h-.06s-.03-.02-.03-.02h-.01s-.01-.01-.01-.01h0s0-.02,0-.02v-.02s-.02-.05-.02-.05v-.02s-.01-.02-.01-.02h0s0-.02,0-.02h0s-.01-.01-.01-.01h-.02s-.02-.02-.02-.02h-.04s-.05-.02-.05-.02h-.05s-.03-.02-.03-.02h-.02s-.02-.02-.02-.02h-.03s-.05-.01-.05-.01h-.02s-.01-.01-.01-.01h0s-.02-.03-.02-.03v-.02s-.03-.06-.03-.06l-.02-.05v-.02s-.02,0-.02,0h0s-.04-.03-.04-.03l-.05-.02s-.06-.03-.09-.04h0s0,0,0,0h0s0,0,0,0h-.02s-.02.02-.02.02l-.03.02h-.02s0,0,0,0h-.01s-.01,0-.01,0h-.01s-.02-.03-.02-.03l-.04-.05-.02-.03-.02-.02h-.01s-.01-.02-.01-.02h-.01s-.01,0-.01,0v1h.02s.01,0,.01,0h.01s0,0,0,0h0s0,0,0,0h0s0,0,.01,0l.03-.02h.02s0-.01,0-.01h0s.01,0,.01,0h.01s.01,0,.01,0c0,0,0,0,.01,0,.02,0,.05.02.08.04l.05.02h0s0,0,0,0h0s0,0,0,0h.02s.03.01.03.01h.01s.01.01.01.01l.02.02v.02s.02.03.02.03h0s0,.02,0,.02h0s0,.01,0,.01h0s0,.01,0,.01h0s0,.02,0,.02v.02s-.02.03-.02.03v.02s0,0,0,0h0s0,.01,0,.02v.02s.01.04.01.04l.24-.08.24-.08.47-.16v-.02s-.02-.02-.02-.02l-.03-.03-.04-.03-.02-.02v-.02Z"/>
        <polygon class="st0" points="25.24 48.17 25.24 46.17 26.68 46.17 27.14 47.53 25.24 48.17"/>
      </g>
      <g>
        <path class="st1" d="M36.09,83.57c.15.22.32.45.48.69.08.12.16.24.24.35.08.11.16.22.24.32l.11.13.1.11c.06.06.12.12.19.18.06.06.13.12.19.17l.1.1.11.13s.08.1.12.15c.04.06.08.11.13.17.09.12.18.25.27.39.09.13.18.26.27.38.04.06.08.11.12.17l.11.14c.07.07.13.14.19.2l.16.15.15.14c.06.06.11.12.18.18l.05.05.02.02h.01s0,.01,0,.01h0c-.02-.08-.04-.14-.06-.21-.05-.15-.09-.31-.14-.47-.05-.16-.1-.32-.15-.47-.02-.07-.04-.14-.06-.21-.02-.06-.03-.12-.04-.18l-.03-.14v-.12s-.02-.19-.02-.19v-.09s0-.1,0-.1l-.02-.12-.03-.15c-.13-.49-.32-1.15-.45-1.63-.02-.06-.04-.12-.05-.17-.02-.05-.04-.11-.05-.16l-.11-.29-.12-.29c-.04-.11-.07-.21-.12-.34-.02-.06-.03-.12-.05-.18-.01-.06-.03-.12-.04-.18-.02-.11-.04-.24-.07-.37-.03-.13-.05-.26-.08-.38-.02-.07-.03-.14-.05-.2l-.06-.21-.47.16-.24.08-.24.08c.09.25.12.34.18.51l.04.12s.03.08.05.12c.03.08.07.16.11.25.04.1.08.2.12.32.02.06.04.13.07.2.02.07.04.15.07.24.04.16.13.45.21.74.04.15.08.29.11.42l.02.09v.04s.01.01.01.01h0s0,0,0,0h0s0,0,0,0h0s0,0,0,0c-.03-.02-.05-.04-.07-.06-.05-.05-.09-.09-.13-.14-.04-.05-.08-.1-.12-.15-.08-.11-.16-.21-.23-.3-.07-.1-.14-.2-.2-.28-.06-.08-.12-.16-.17-.22-.03-.04-.05-.07-.07-.1-.02-.03-.04-.07-.07-.1-.04-.07-.08-.14-.13-.22-.04-.08-.09-.16-.13-.23-.02-.04-.05-.08-.07-.11l-.07-.11c-.09-.13-.27-.39-.4-.58l-.2.14-.2.14-.41.29c.06.08.13.17.21.28.07.09.15.19.24.3.16.21.34.43.49.63Z"/>
        <polygon class="st0" points="36.39 81.51 38.29 80.87 42.61 93.82 34.75 82.66 36.39 81.51"/>
      </g>
    </g>
  </g>
  <g>
    <path d="M41.27,2.46c-.1-.1-.23-.17-.37-.21-.13-.03-.27-.02-.41.02-.14.04-.25.12-.34.22-.1.1-.2.22-.23.36-.03.13-.01.29.03.43l1.53-.45c-.04-.14-.11-.27-.21-.37Z"/>
    <path d="M43.79,11.15c-.08-.29-.33-.15-.41-.44-.08-.29.1-.53.02-.82-.08-.29-.19-.26-.27-.55-.08-.29.15-.37.07-.66-.08-.29-.3-.3-.39-.59-.08-.29-.53-.06-.61-.35-.08-.29.42-.48.33-.77-.08-.29-.25-.32-.33-.61-.08-.29.3-.29.22-.58-.08-.29-.42-.2-.5-.49-.08-.29-.04-.3-.13-.59-.08-.29.16-.38.08-.67-.08-.29-.47-.22-.55-.51-.08-.29.17-.66.16-.68l-1.53.45s.27.33.35.62c.08.29-.11.34-.02.63.08.29.3.23.38.52.08.29-.17.36-.09.65.08.29.5.07.58.36.08.29-.04.43.04.71.08.29-.04.29.04.58.08.29.28.27.36.56.08.29-.24.39-.16.68.08.29.42.19.5.47.08.29-.03.32.06.61.08.29-.06.33.02.62.08.29.47.15.55.44.08.29-.22.41-.14.7.08.29.23.25.32.54.08.29-.16.44-.09.65l1.54-.44c-.06-.22-.26-.13-.34-.42-.08-.29.04-.32-.05-.61Z"/>
    <path d="M46.49,20.5c-.08-.29-.33-.15-.41-.44-.08-.29.1-.53.02-.82-.08-.29-.19-.26-.27-.55-.08-.29.15-.37.07-.66-.08-.29-.3-.3-.39-.59-.08-.29-.53-.07-.61-.36-.08-.29.42-.48.33-.77-.08-.29-.25-.32-.33-.61-.08-.29.3-.29.22-.58-.08-.29-.42-.2-.5-.49-.08-.29-.04-.3-.13-.59-.08-.29.16-.38.08-.67-.08-.29-.47-.22-.55-.51-.08-.29.17-.66.16-.67l-1.54.44s.27.33.35.62c.08.29-.11.34-.03.63.08.29.3.23.38.52.08.29-.17.36-.09.65.08.29.5.07.58.36.08.29-.04.42.04.71.08.29-.04.29.04.58.08.29.28.27.36.56.08.29-.24.39-.16.68.08.29.42.19.5.48.08.29-.03.32.06.61.08.29-.06.33.02.62.08.29.47.15.55.44.08.29-.22.41-.14.7.08.29.23.25.32.54.08.29-.16.44-.09.65l1.54-.44c-.06-.22-.26-.13-.34-.42-.08-.29.04-.32-.05-.61Z"/>
    <path d="M49.19,29.84c-.08-.29-.33-.15-.41-.44-.08-.29.1-.53.02-.82-.08-.29-.19-.26-.27-.55-.08-.29.15-.37.07-.66-.08-.29-.3-.3-.39-.59-.08-.29-.53-.06-.61-.35-.08-.29.42-.48.33-.77-.08-.29-.25-.32-.33-.61-.08-.29.3-.29.22-.58-.08-.29-.42-.2-.5-.49-.08-.29-.04-.3-.13-.59-.08-.29.16-.38.08-.67-.08-.29-.47-.22-.55-.51-.08-.29.17-.66.16-.67l-1.54.44s.27.33.35.62c.08.29-.11.34-.02.63.08.29.3.23.38.52.08.29-.17.36-.09.65.08.29.5.07.58.36.08.29-.04.42.04.71.08.29-.04.29.04.58.08.29.28.27.36.56.08.29-.24.39-.16.68.08.29.42.19.5.48.08.29-.03.32.06.61.08.29-.06.33.02.62.08.29.47.15.55.44.08.29-.22.41-.14.7.08.29.23.25.32.54.08.29-.15.44-.09.65l1.54-.45c-.06-.22-.26-.13-.34-.42-.08-.29.04-.32-.05-.61Z"/>
    <path d="M51.89,39.2c-.08-.29-.33-.15-.41-.45-.08-.29.11-.53.02-.82-.08-.29-.19-.26-.27-.55-.08-.29.15-.37.07-.66-.08-.29-.3-.3-.39-.59-.08-.29-.53-.07-.61-.36-.08-.29.42-.48.33-.77-.08-.29-.25-.32-.33-.61-.08-.29.3-.29.22-.58-.08-.29-.42-.2-.5-.49-.08-.29-.04-.3-.13-.59-.08-.29.16-.38.08-.67-.08-.29-.47-.22-.55-.51-.08-.29.17-.66.16-.67l-1.54.45s.27.33.35.62c.08.29-.11.34-.02.63.08.29.3.23.38.52.08.29-.17.36-.09.65.08.29.5.07.58.36.08.29-.04.42.04.71.08.29-.04.29.04.58.08.29.28.27.36.56.08.29-.24.39-.16.68.08.29.42.19.5.48.08.29-.03.32.05.61.08.29-.06.33.02.62.08.29.47.15.55.44.08.29-.22.41-.14.7.08.29.23.25.32.54.08.29-.16.43-.09.65l1.54-.43c-.06-.22-.26-.13-.34-.42-.08-.29.04-.32-.05-.61Z"/>
    <path d="M52.61,48.97c.08-.29-.2-.3-.12-.59.08-.29.36-.4.44-.69.08-.29-.03-.32.05-.62.07-.3.31-.24.39-.54.07-.3-.11-.42-.04-.72.06-.32-.42-.33-.39-.63.02-.13.08-.22.16-.33.12-.15.26-.32.21-.47-.08-.29-.25-.32-.33-.61-.08-.29.3-.28.22-.58-.08-.29-.42-.2-.5-.49-.08-.29-.04-.3-.12-.59-.08-.29.16-.38.08-.67-.08-.29-.47-.23-.55-.52-.08-.29.17-.65.17-.67l-1.54.43s.27.33.35.62c.08.29-.11.34-.03.63.08.29.3.23.38.52.08.29-.17.36-.09.64.08.29.5.08.58.37.08.29-.04.42.04.71.08.29-.04.29.04.58.05.18.12.21.19.26.05.04.11.09.1.18-.03.21-.36.13-.43.42-.07.28.28.35.21.64-.07.29-.19.26-.26.55-.07.29-.22.25-.3.54-.08.29.32.37.25.66-.08.29-.4.23-.48.52-.08.29.07.33,0,.62-.08.29-.36.29-.42.51l1.54.43c.06-.22-.15-.25-.07-.54.08-.29.2-.26.28-.55Z"/>
    <path d="M49.93,58.34c.09-.29-.19-.3-.11-.59.08-.29.37-.39.46-.68.08-.29-.02-.32.07-.61.08-.29.32-.23.41-.52.08-.29-.09-.42-.01-.71.08-.29-.41-.34-.33-.63.08-.29.61-.18.69-.47.08-.29-.04-.4.05-.69.08-.29.41-.08.49-.38.08-.29-.25-.39-.17-.68.08-.29.13-.28.21-.57.08-.29.34-.24.42-.53.08-.29-.28-.44-.2-.73.08-.29.49-.47.49-.49l-1.54-.43s.06.42-.03.71c-.08.29-.27.23-.36.52-.08.29.13.35.05.64-.08.29-.34.21-.42.5-.08.29.38.33.3.62-.08.29-.26.34-.35.63-.08.29-.19.22-.27.51-.08.29.09.38,0,.67-.08.29-.41.2-.5.49-.08.29.25.38.17.67-.08.29-.2.26-.28.55-.08.29-.23.25-.31.54-.08.29.31.38.23.66-.08.29-.41.23-.49.52-.08.29.06.33-.02.62-.08.29-.36.28-.43.5l1.54.45c.06-.22-.15-.25-.06-.54.09-.29.2-.25.29-.54Z"/>
    <path d="M47.17,67.67c.09-.29-.19-.3-.11-.59.09-.29.37-.39.46-.68.09-.29-.02-.32.07-.61.09-.29.32-.23.41-.52.09-.29-.09-.42,0-.71.09-.29-.41-.34-.32-.63.09-.29.61-.18.7-.47.09-.29-.04-.4.05-.69.09-.29.41-.08.5-.37.09-.29-.25-.39-.16-.68.09-.29.13-.28.21-.57.09-.29.34-.23.43-.52.09-.29-.27-.44-.19-.73.09-.29.49-.46.5-.48l-1.54-.45s.05.42-.04.71c-.08.29-.28.23-.36.52-.09.29.13.35.04.64-.09.29-.34.21-.42.5-.09.29.38.33.3.62-.09.29-.27.33-.35.62-.09.29-.19.22-.28.51-.09.29.09.38,0,.67-.09.29-.42.2-.5.49-.09.29.25.38.17.67-.09.29-.2.26-.28.54-.09.29-.23.25-.32.53-.09.29.31.38.23.67-.09.29-.41.22-.49.51-.09.29.06.33-.02.62-.09.29-.37.28-.43.5l1.53.46c.06-.22-.15-.25-.06-.54.09-.29.2-.25.29-.54Z"/>
    <path d="M44.38,77c.09-.29-.19-.3-.11-.6.09-.29.38-.39.46-.68.09-.29-.02-.32.07-.61.09-.29.32-.23.41-.52.09-.29-.09-.42,0-.71.09-.29-.41-.34-.32-.63.09-.29.61-.18.7-.47.09-.29-.03-.4.05-.69.09-.29.41-.08.5-.37.09-.29-.25-.39-.16-.68.09-.29.13-.28.21-.57.09-.29.34-.23.43-.52.09-.29-.27-.44-.18-.73.09-.29.5-.46.5-.48l-1.53-.46s.05.42-.04.71c-.09.29-.28.23-.36.52-.09.29.13.35.04.64-.09.29-.34.21-.43.5-.09.29.38.33.29.62-.09.29-.27.33-.35.62-.09.29-.19.22-.28.51-.09.29.09.38,0,.67-.09.29-.42.2-.5.49-.09.29.25.38.16.67-.09.29-.2.26-.28.54-.09.29-.23.25-.32.53-.09.29.31.38.22.67-.09.29-.41.22-.49.51-.09.29.06.33-.02.62-.09.29-.37.28-.43.5l1.53.46c.07-.22-.14-.25-.06-.54.09-.29.2-.25.29-.54Z"/>
    <path d="M41.57,86.31c.09-.29-.19-.3-.1-.59.09-.29.38-.39.46-.68.09-.29-.02-.32.07-.61.09-.29.32-.23.41-.52.09-.29-.09-.42,0-.71.09-.29-.41-.34-.32-.63.09-.29.61-.18.7-.46.09-.29-.03-.4.05-.69.09-.29.41-.08.5-.37.09-.29-.25-.39-.16-.68.09-.29.13-.28.22-.57.09-.29.34-.23.43-.52.09-.29-.27-.44-.18-.73.09-.29.5-.46.5-.48l-1.53-.46s.05.42-.04.71c-.09.29-.28.23-.36.52-.09.29.12.35.04.64-.09.29-.34.21-.43.5-.09.29.38.33.29.62-.09.29-.27.33-.35.62-.09.29-.19.22-.28.51-.09.29.09.38,0,.67-.09.29-.42.2-.5.49-.09.29.25.38.16.67-.09.29-.2.26-.28.54-.09.29-.23.24-.32.53-.09.29.31.38.22.67-.09.29-.41.22-.49.51-.09.29.06.33-.02.62-.09.29-.37.28-.43.5l1.53.46c.06-.22-.15-.25-.06-.54.09-.29.2-.25.29-.54Z"/>
    <path d="M40.76,87.95c.13-.03.25-.12.35-.22.1-.09.19-.21.23-.34h0s-1.53-.46-1.53-.46h0c-.04.14-.06.29-.03.42.03.14.11.27.21.37.09.1.22.18.36.22.14.04.29.04.42.01Z"/>
  </g>
  <g>
    <path d="M32.72,12.91c.22-.32-.11-.44.11-.77.22-.32.6-.34.82-.66.22-.32.11-.4.33-.72.22-.32.48-.16.7-.48.22-.32.06-.54.28-.87.22-.32-.35-.57-.13-.89.22-.32.8.02,1.03-.3.22-.32.12-.5.35-.82.23-.32.52.06.75-.25.23-.32-.13-.58.1-.89.23-.32.27-.28.5-.6.23-.31.5-.14.73-.45.23-.31-.12-.64.11-.96.23-.31.8-.34.81-.36l-1.6-1.2s-.14.53-.37.85c-.23.32-.43.17-.67.48-.23.32-.01.48-.24.8-.23.32-.5.12-.73.44-.23.32.31.56.08.88-.23.32-.46.3-.69.62-.22.32-.32.19-.55.51-.23.32-.05.5-.28.82-.22.32-.58.09-.8.41-.22.32.14.56-.08.89-.22.32-.34.24-.56.56-.22.32-.38.22-.6.54-.22.32.22.58,0,.9-.22.32-.58.13-.8.45-.22.32-.06.43-.28.76-.22.32-.55.22-.72.46l1.66,1.11c.16-.24-.08-.36.14-.68.22-.33.34-.24.56-.56Z"/>
    <path d="M25.67,23.36c.22-.32-.11-.44.11-.77.22-.32.61-.34.83-.66.22-.32.11-.4.33-.72.22-.32.48-.16.7-.48.22-.32.06-.55.28-.87.22-.33-.36-.57-.14-.89.22-.32.8,0,1.02-.32.22-.32.12-.51.33-.83.22-.33.52.05.74-.28.22-.33-.14-.57.08-.9.22-.33.26-.3.48-.62.22-.32.5-.16.72-.49.22-.33-.15-.64.06-.96.22-.32.78-.39.79-.41l-1.66-1.11s-.11.54-.33.86c-.22.32-.42.18-.64.51-.22.33.01.48-.21.81-.22.32-.49.13-.71.46-.22.32.33.55.11.87-.22.32-.45.32-.67.64-.22.32-.32.2-.53.52-.22.32-.04.5-.26.82-.22.32-.58.09-.79.41-.22.32.15.56-.07.88-.22.32-.34.24-.56.56-.22.32-.38.22-.6.54-.22.32.22.58,0,.9-.22.32-.58.12-.8.45-.22.32-.06.43-.28.75-.22.32-.55.21-.72.45l1.65,1.13c.16-.24-.07-.36.15-.68.22-.32.35-.23.57-.56Z"/>
    <path d="M18.56,33.77c.22-.32-.11-.44.11-.77.22-.32.61-.34.83-.66.22-.32.11-.4.33-.72.22-.32.48-.16.7-.48.22-.32.06-.55.28-.87.22-.32-.35-.57-.13-.89.22-.32.8,0,1.02-.31.22-.32.12-.51.34-.83.22-.32.52.05.75-.27.22-.32-.14-.57.09-.9.22-.32.27-.29.49-.62.22-.32.5-.16.72-.48.22-.32-.15-.64.07-.96.22-.32.78-.38.79-.4l-1.65-1.13s-.11.53-.33.86c-.22.32-.43.18-.65.5-.22.32,0,.48-.21.8-.22.32-.49.13-.71.45-.22.32.32.55.1.87-.22.32-.45.31-.67.63-.22.32-.32.2-.54.52-.22.32-.05.5-.27.82-.22.32-.58.09-.8.41-.22.32.15.56-.07.88-.22.32-.34.24-.56.56-.22.32-.38.22-.6.54-.22.32.22.58,0,.9-.22.32-.58.12-.8.45-.22.32-.06.43-.28.75-.22.32-.55.21-.72.45l1.65,1.13c.16-.24-.07-.36.15-.68.22-.32.35-.23.57-.56Z"/>
    <path d="M11.42,44.17c.22-.32-.1-.45.12-.77.22-.32.61-.33.83-.66.22-.32.11-.4.34-.72.22-.32.48-.15.7-.48.22-.32.06-.55.29-.87.22-.32-.35-.57-.13-.9.22-.32.8.01,1.02-.31.22-.32.12-.51.35-.83.22-.32.52.06.75-.27.22-.32-.13-.58.09-.9.22-.32.27-.29.49-.62.22-.32.5-.16.72-.48.22-.32-.15-.64.07-.96.22-.32.78-.38.79-.4l-1.65-1.13s-.11.53-.33.86c-.22.32-.43.18-.65.5-.22.32,0,.48-.21.8-.22.32-.49.13-.71.45-.22.32.32.55.1.87-.22.32-.45.31-.68.63-.22.32-.32.2-.54.52-.22.32-.05.5-.27.82-.22.32-.58.08-.8.4-.22.32.14.56-.08.88-.22.32-.34.24-.56.56-.22.32-.38.21-.6.53-.22.32.22.58,0,.9-.22.32-.57.12-.8.44-.12.17-.11.24-.16.39-.03.14-.07.27-.17.52-.17.48-.5.56-.54.94l1.99.14c.02-.19-.24-.23-.18-.47.06-.17.16-.17.25-.23.02,0,.1-.09.15-.17Z"/>
    <path d="M16.68,53.88c-.23-.32-.46-.06-.69-.38-.23-.32-.1-.68-.33-1-.23-.32-.34-.24-.56-.57-.22-.32.03-.5-.19-.83-.22-.32-.49-.25-.71-.58-.22-.32-.66.12-.88-.2-.22-.32.3-.75.08-1.07-.22-.32-.43-.3-.65-.62-.22-.32.24-.47.02-.79-.22-.32-.58-.08-.8-.4-.22-.32-.18-.35-.4-.68-.21-.3,0-.53-.15-.8,0,0,0,0,0-.01-.09-.15-.55,0-.62-.31-.05-.34.4-.61.4-.61l-1.99-.14c0,.06.16.64.28,1.13.13.5-.09.62.19,1.1,0,0,.01.02.02.03.23.34.45.17.68.5.22.32-.06.51.16.83.22.32.63-.1.85.22.22.32.13.54.34.86.22.32.07.37.29.69.22.32.44.22.66.54.22.32-.13.57.09.89.22.32.58.07.8.39.22.32.1.4.32.73.22.32.06.43.29.75.23.32.62,0,.85.32.23.32-.09.58.14.9.23.32.39.21.61.53.23.32,0,.59.17.83l1.65-1.13c-.17-.24-.36-.06-.59-.38-.23-.32-.1-.4-.33-.72Z"/>
    <path d="M23.99,64.14c-.23-.32-.46-.06-.68-.37-.23-.32-.11-.68-.33-1-.23-.32-.34-.24-.57-.56-.23-.32.02-.5-.21-.82-.23-.32-.49-.25-.72-.57-.23-.32-.66.13-.89-.19-.23-.32.29-.74.06-1.06-.23-.32-.43-.29-.66-.61-.23-.32.24-.47,0-.79-.23-.32-.59-.08-.82-.4-.23-.32-.18-.35-.41-.67-.23-.32.03-.52-.2-.84-.23-.32-.66-.09-.88-.41-.23-.32-.08-.86-.1-.88l-1.65,1.13s.46.29.69.61c.23.32.02.46.25.78.23.32.46.16.68.48.23.32-.05.5.18.82.23.32.63-.1.86.21.23.32.13.53.36.85.23.32.07.37.3.68.23.32.45.22.68.54.23.32-.12.57.11.89.23.32.58.06.81.38.23.32.11.4.33.72.23.32.07.43.3.74.23.32.62,0,.85.32.23.32-.09.58.14.9.23.32.39.21.61.53.23.32,0,.59.18.83l1.64-1.14c-.17-.24-.36-.06-.59-.38-.23-.32-.1-.4-.33-.72Z"/>
    <path d="M31.29,74.4c-.23-.32-.46-.05-.68-.37-.23-.32-.11-.68-.33-1-.23-.32-.34-.24-.56-.56-.23-.32.02-.5-.21-.82-.23-.32-.49-.25-.72-.56-.23-.32-.66.13-.88-.19-.23-.32.29-.75.06-1.06-.23-.32-.43-.29-.66-.61-.23-.32.23-.47,0-.79-.23-.32-.59-.07-.81-.39-.23-.32-.18-.35-.41-.67-.23-.32.03-.52-.2-.84-.23-.32-.65-.09-.88-.41-.23-.32-.09-.86-.1-.88l-1.64,1.14s.46.29.69.61c.23.32.02.46.25.78.23.32.45.16.68.48.23.32-.05.5.18.82.23.32.63-.11.86.21.23.32.13.53.36.85.23.32.07.37.3.68.23.32.45.22.68.53.23.32-.12.57.11.89.23.32.58.06.81.38.23.32.11.4.33.72.23.32.07.43.3.75.23.32.62,0,.85.31.23.32-.08.58.14.9.23.32.39.21.61.52.23.32,0,.59.18.83l1.63-1.15c-.17-.24-.36-.06-.59-.38-.23-.32-.1-.4-.33-.72Z"/>
    <path d="M38.6,84.66c-.23-.32-.45-.05-.68-.37-.23-.32-.11-.69-.34-1-.23-.32-.34-.24-.56-.56-.23-.32.02-.5-.21-.82-.23-.32-.49-.24-.72-.56-.23-.32-.66.13-.88-.18-.23-.32.28-.75.06-1.07-.23-.32-.43-.29-.66-.61-.23-.32.23-.47,0-.79-.23-.32-.59-.07-.81-.39-.23-.32-.18-.35-.41-.67-.23-.32.03-.52-.2-.84-.23-.32-.65-.08-.88-.4-.23-.32-.09-.86-.1-.88l-1.63,1.15s.46.29.69.61c.23.32.02.46.25.78.23.32.45.16.68.48.23.32-.05.5.18.82.23.32.63-.11.85.21.23.32.14.53.36.85.23.32.08.37.3.69.23.32.45.22.68.53.23.32-.12.57.11.89.23.32.58.06.8.38.23.32.11.4.33.72.23.32.07.43.3.75.23.32.62,0,.85.31.23.32-.08.59.14.9.23.32.38.21.61.52.23.32,0,.59.18.83l1.63-1.16c-.17-.24-.36-.05-.59-.37-.23-.32-.1-.41-.33-.73Z"/>
    <path d="M47.57,76.65c-.22.32.11.44-.12.77-.22.32-.61.33-.83.65-.22.32-.11.4-.33.72-.22.32-.48.15-.7.47-.22.32-.06.55-.28.87-.22.32.35.57.13.89-.22.32-.8-.01-1.02.31-.22.32-.12.5-.35.82-.22.32-.52-.06-.75.26-.22.32.13.58-.09.9-.22.32-.27.29-.49.61-.22.32-.5.15-.72.47-.22.32.14.64-.08.96-.22.32-.78.37-.8.39l1.64,1.14s.12-.53.34-.85c.22-.32.43-.18.65-.5.22-.32,0-.48.22-.8.22-.32.49-.12.71-.44.22-.32-.32-.55-.1-.87.22-.32.46-.31.68-.63.22-.32.32-.19.54-.51.22-.32.05-.49.27-.82.22-.32.58-.08.8-.4.22-.32-.14-.56.08-.88.22-.32.34-.24.56-.56.22-.32.38-.21.6-.53.22-.32-.22-.58,0-.9.22-.32.58-.12.8-.44.22-.32.06-.43.28-.75.22-.32.55-.21.72-.45l-1.64-1.14c-.17.24.07.36-.15.68-.22.32-.35.23-.57.55Z"/>
    <path d="M54.73,66.32c-.22.32.11.44-.12.77-.22.32-.61.33-.83.65-.22.32-.11.4-.33.72-.22.32-.48.15-.7.48-.22.32-.06.55-.28.87-.22.32.35.57.13.89-.22.32-.8-.01-1.02.31-.22.32-.12.5-.35.82-.22.32-.52-.06-.75.26-.22.32.13.57-.09.9-.22.32-.27.29-.49.61-.22.32-.5.15-.72.47-.22.32.14.64-.08.96-.22.32-.78.37-.8.39l1.64,1.14s.12-.53.34-.85c.22-.32.43-.18.65-.5.22-.32,0-.48.22-.8.22-.32.49-.13.71-.45.22-.32-.32-.55-.1-.87.22-.32.46-.31.68-.63.22-.32.32-.2.54-.51.22-.32.05-.49.27-.81.22-.32.58-.08.8-.4.22-.32-.14-.56.08-.88.22-.32.34-.24.56-.56.22-.32.38-.21.6-.53.22-.32-.22-.58,0-.9.22-.32.58-.12.8-.44.22-.32.06-.43.28-.75.22-.32.55-.21.72-.45l-1.65-1.14c-.17.24.07.36-.15.68-.22.32-.35.23-.57.55Z"/>
    <path d="M61.89,55.99c-.22.32.11.44-.12.77-.22.32-.61.33-.83.65-.22.32-.11.4-.33.72-.22.32-.48.15-.7.48-.22.32-.06.54-.28.87-.22.32.35.57.13.89-.22.32-.8-.01-1.03.31-.22.32-.12.5-.35.82-.22.32-.52-.06-.75.26-.22.32.13.57-.09.89-.22.32-.27.29-.49.61-.22.32-.5.15-.72.47-.22.32.14.64-.08.96-.22.32-.78.37-.8.39l1.65,1.14s.12-.53.34-.85c.22-.32.43-.18.65-.5.22-.32,0-.48.22-.8.22-.32.49-.13.71-.45.22-.32-.32-.55-.1-.87.22-.32.46-.31.68-.63.22-.32.32-.2.54-.51.22-.32.05-.49.27-.81.22-.32.58-.09.8-.41.22-.32-.14-.56.08-.88.22-.32.34-.24.56-.56.22-.32.38-.21.6-.53.22-.32-.22-.58,0-.9.22-.32.58-.12.8-.44.22-.32.06-.43.28-.75.22-.32.55-.21.72-.45l-1.65-1.13c-.17.24.07.36-.15.68-.22.32-.35.23-.57.55Z"/>
    <path d="M68.89,45.77c-.12.26.21.36.03.67-.19.31-.59.32-.81.64-.22.32-.11.4-.33.72-.22.32-.48.16-.7.48-.22.32-.06.54-.28.86-.22.32.35.57.13.89-.22.32-.8-.01-1.03.31-.22.32-.12.5-.34.82-.22.32-.52-.06-.75.26-.22.32.13.57-.09.89-.22.32-.27.29-.49.61-.22.32-.5.15-.72.47-.22.32.14.64-.08.96-.22.32-.78.38-.8.4l1.65,1.13s.12-.53.34-.85c.22-.32.43-.18.65-.5.22-.32,0-.48.22-.8.22-.32.49-.13.71-.45.22-.32-.32-.55-.1-.87.22-.32.46-.31.68-.63.22-.32.32-.2.54-.51.22-.32.05-.49.27-.81.22-.32.58-.09.8-.41.22-.32-.14-.56.08-.88.22-.32.34-.24.56-.56.22-.32.38-.21.6-.53.22-.32-.22-.57,0-.9.22-.34.6-.16.81-.59.19-.46.02-.53.11-1.03.04-.5.34-.69.23-1.11l-1.93.54c.03.15.3.08.3.34-.03.26-.18.19-.27.44Z"/>
    <path d="M62.95,35.93c.22.32.45.06.67.38.22.32.09.69.31,1.01.22.32.33.25.55.57.22.32-.03.5.19.83.22.32.49.25.71.58.22.32.66-.12.88.2.22.32-.3.74-.08,1.07.22.32.43.3.65.62.22.32-.24.47-.02.79.22.32.58.08.8.4.22.32.17.35.39.68.22.32-.04.52.18.85.21.31.64.08.82.39.09.15.06.34,0,.48-.06.14-.15.22-.15.23l1.93-.54c0-.07-.41-.59-.64-.94-.22-.37-.02-.51-.25-.84-.22-.32-.45-.17-.67-.49-.22-.32.06-.5-.16-.83-.22-.32-.63.1-.85-.22-.22-.32-.12-.54-.34-.86-.22-.32-.07-.37-.29-.69-.22-.32-.44-.22-.66-.54-.22-.32.13-.57-.09-.89-.22-.32-.58-.07-.8-.39-.22-.32-.1-.4-.32-.72-.22-.32-.06-.43-.28-.75-.22-.32-.62,0-.84-.33-.22-.32.1-.58-.12-.9-.22-.32-.38-.21-.6-.53-.22-.32,0-.59-.16-.83l-1.65,1.13c.16.24.36.06.58.39.22.32.09.41.31.73Z"/>
    <path d="M55.87,25.55c.22.32.45.06.67.38.22.32.09.69.31,1.01.22.32.33.25.55.57.22.32-.03.5.19.83.22.32.49.25.71.58.22.32.66-.12.88.2.22.32-.3.74-.08,1.07.22.32.43.3.65.62.22.32-.24.47-.02.79.22.32.58.08.8.4.22.32.17.35.39.68.22.32-.04.52.18.85.22.32.65.1.87.42.22.32.07.86.08.88l1.65-1.13s-.46-.3-.67-.62c-.22-.32-.01-.46-.23-.78-.22-.32-.45-.17-.67-.49-.22-.32.06-.5-.16-.83-.22-.32-.63.1-.85-.22-.22-.32-.12-.54-.34-.86-.22-.32-.07-.37-.29-.69-.22-.32-.44-.22-.66-.54-.22-.32.13-.57-.09-.89-.22-.32-.58-.07-.8-.39-.22-.32-.1-.4-.32-.72-.22-.32-.06-.43-.28-.75-.22-.32-.62,0-.84-.33-.22-.32.1-.58-.12-.9-.22-.32-.38-.21-.6-.53-.22-.32,0-.59-.16-.83l-1.65,1.12c.16.24.36.06.58.39.22.32.09.41.31.73Z"/>
    <path d="M48.89,15.08c.22.32.45.06.67.39.22.33.08.69.3,1.01.22.33.33.25.54.58.22.33-.04.5.18.83.21.33.48.26.7.59.22.33.66-.11.87.21.21.33-.31.74-.1,1.06.21.33.42.3.64.63.22.33-.25.46-.03.79.22.33.58.09.8.42.22.33.17.36.39.68.22.32-.04.52.18.85.22.33.65.1.87.43.22.32.07.87.08.89l1.65-1.12s-.45-.3-.67-.62c-.22-.32,0-.46-.22-.78-.22-.32-.45-.17-.66-.49-.22-.32.06-.5-.15-.83-.21-.32-.63.09-.84-.23-.21-.32-.12-.54-.33-.86-.21-.32-.06-.37-.28-.69-.21-.32-.44-.23-.66-.55-.21-.33.14-.57-.08-.89-.21-.32-.57-.08-.79-.4-.21-.32-.09-.4-.31-.73-.22-.33-.06-.43-.27-.75-.22-.33-.62-.01-.83-.34-.22-.32.1-.58-.11-.91-.22-.32-.38-.22-.6-.54-.22-.32.01-.59-.15-.84l-1.66,1.12c.16.24.36.06.58.39.22.33.09.41.3.73Z"/>
    <path d="M41.64,4.89c.24.31.45.03.69.34.24.31.13.67.36.98.23.31.34.23.57.54.23.31,0,.5.22.81.23.31.49.23.72.55.23.31.65-.14.88.17.23.32-.28.75-.06,1.07.22.32.43.28.66.6.22.32-.24.47-.01.79.22.32.58.07.81.39.22.32.18.35.4.67.22.32-.04.52.18.84.22.32.65.1.87.42.22.32.07.86.08.88l1.66-1.12s-.46-.3-.67-.63c-.22-.32-.01-.46-.23-.79-.22-.32-.45-.17-.67-.49-.22-.32.06-.51-.17-.83-.22-.32-.63.1-.85-.22-.22-.32-.13-.54-.35-.85-.23-.32-.08-.37-.3-.69-.23-.32-.45-.22-.68-.53-.23-.32.11-.57-.12-.89-.23-.32-.58-.05-.81-.37-.23-.31-.12-.4-.35-.71-.23-.31-.08-.43-.32-.74-.24-.31-.62.03-.86-.28-.24-.31.06-.59-.18-.9-.24-.31-.4-.19-.64-.5-.24-.31-.04-.59-.23-.82l-1.56,1.25c.18.23.36.03.6.34.24.3.12.39.36.7Z"/>
    <g>
      <path d="M42.3,87.33l-.05.07-.05.07-.09.15-.1.15-.05.07-.06.06-.03.02-.03.02-.03.02h-.03s-.07.03-.07.03h-.07s-.07.02-.07.02h-.07s-.04.02-.04.02h-.03s-.03.03-.03.03l-.03.02-.03.03-.03.03-.06.07c-.03.05-.07.11-.1.16l-.05.08-.05.08-.03.03-.03.03-.03.03-.03.02-.06.03-.06.02-.12.03-.12.02-.06.02-.07.02h-.03s-.02.01-.02.01h0s0,0,0,0h0s-.03-.03-.03-.03l-.03-.03-.07-.07-.07-.08c-.05-.05-.09-.11-.13-.16l-.07-.06-.03-.03-.03-.02h-.03s-.03-.03-.03-.03h-.03s-.03-.01-.03-.01h-.07s-.07,0-.07,0h-.07s-.07,0-.07,0h-.03s-.03-.02-.03-.02h-.03s-.03-.03-.03-.03c-.04-.03-.09-.07-.14-.1l-.14-.12c-.1-.08-.19-.17-.27-.24l-.03-.03-.02-.03-.02-.03-.02-.03-.03-.06-.02-.06-.02-.06-.02-.06-.03-.06-.02-.03-.03-.03-.03-.03-.03-.02-.04-.02-.04-.02-.08-.03-.09-.03-.09-.03-.08-.04-.04-.02-.04-.03-.03-.03-.03-.04.81-.58.41-.29.41-.29s.03.04.04.06c0,.02.02.03.02.05l.02.04v.02s.03.02.03.02l.02.02v.02s.02.02.02.02v.03s.03.08.03.12l.02.07.02.03.02.03.02.03.03.03.04.03.04.03c.05.05.15.13.25.21.05.04.1.08.14.12l.05.04h.03s.02,0,.02,0h.05s.04-.03.04-.03l.04-.02.03-.02.03-.03.03-.03.05-.06s.06-.08.09-.12l.04-.05.02-.02.02-.02.02-.02.02-.02v-.02s.02-.02.02-.02v-.05s.02-.06.02-.06c0-.04.01-.08.02-.12v-.03s.02-.03.02-.03v-.02s.03-.02.03-.02c0-.01.02-.03.03-.05.01-.02.03-.04.04-.06.03-.04.06-.09.08-.13l.41.29.41.29.82.57-.04.05-.05.05s-.08.07-.12.11l-.13.11-.06.06-.06.06Z"/>
      <polygon class="st0" points="40.32 85.18 37.08 87.5 40.37 92.11 43.59 87.46 40.32 85.18"/>
    </g>
    <g>
      <path d="M38.05,2.33l.05-.05.05-.06.09-.13.09-.12.05-.06.05-.05.03-.02h.03s.03-.03.03-.03h.03s.07-.02.07-.02h.07s.07,0,.07,0h.07s.03-.01.03-.01h.03s.03-.02.03-.02l.03-.02.03-.02.03-.02.05-.06s.06-.09.1-.14l.05-.07.05-.06.03-.03.03-.02.03-.02.03-.02.06-.02h.06s.11-.02.11-.02h.11s.06-.01.06-.01h.06s.03-.02.03-.02h.02s0,0,0,0h0s.03.02.03.02l.03.02.07.06.06.06s.09.09.13.12l.06.05.03.02h.03s.03.02.03.02h.03s.03,0,.03,0h.03s.06-.01.06-.01h.06s.06-.02.06-.02h.06s.03,0,.03,0h.03s.03.01.03.01h.03s.08.06.13.09l.14.09c.09.07.18.13.26.18l.03.02.02.02.02.02.02.02.03.05.02.05.02.05.02.05v.03s.03.03.03.03l.02.03.02.02.03.02.03.02.03.02h.04c.05.02.11.04.17.05l.08.02.08.03.04.02.03.02.03.03.03.03-.78.63-.39.31-.39.31-.02-.03v-.02s-.04-.04-.04-.04l-.02-.04v-.02s-.03-.02-.03-.02v-.02s-.03-.02-.03-.02v-.02s-.02-.02-.02-.02c0-.03-.02-.07-.02-.1l-.02-.06v-.03s-.03-.03-.03-.03l-.02-.03-.03-.03-.03-.03-.04-.03c-.05-.03-.14-.1-.24-.16-.05-.03-.09-.06-.14-.09l-.03-.02h-.01s0,0,0,0h0s0,0,0,0h0s.02,0,.04,0h0s0,0,0,0h0s-.03,0-.03,0h-.02s-.04,0-.04,0h-.04s-.04.03-.04.03l-.03.02-.03.02-.03.02-.05.05s-.05.07-.08.1l-.04.04-.02.02h-.02s-.02.03-.02.03v.02s-.03.02-.03.02v.02s-.02.05-.02.05v.05s-.01.05-.01.05v.05s-.02.02-.02.02v.02s-.02.02-.02.02v.02s-.03.02-.05.04l-.04.05s-.05.08-.08.11l-.4-.3-.4-.3-.8-.6.04-.04.05-.04s.08-.06.12-.08l.12-.09.06-.05.05-.05Z"/>
      <path class="st0" d="M39.96,4.49s-.04,0-.06,0h0s0,0,0,0h0s0,0,0,0h.01s.02-.03.02-.03l.05-.04.1-.08.19-.16.39-.31.78-.63,1.56-1.25-1.59-1.93-1.58-1.86-1.51,1.92-1.51,1.97,1.6,1.2.8.6.4.3.2.15.1.08.05.04.02.02h.01s0,.01,0,.01h0s0,0,0,0h0s-.03,0-.05,0Z"/>
    </g>
  </g>
  <g>
    <path d="M38.54,7.6c-.04-.14-.11-.27-.21-.36-.1-.1-.23-.16-.37-.19-.14-.04-.28-.03-.41.01-.13.04-.28.08-.38.19-.09.1-.16.24-.19.38l1.55.4c.04-.14.04-.29,0-.42Z"/>
    <path d="M36.2,16.28c.08-.29-.2-.3-.12-.59.08-.29.37-.39.45-.68.08-.29-.02-.32.06-.61.08-.29.32-.23.4-.52.08-.29-.1-.41-.02-.7.08-.29-.42-.33-.34-.62.08-.29.61-.19.68-.48.08-.29-.05-.4.03-.69.08-.29.41-.09.49-.38.08-.29-.26-.39-.18-.68.08-.29.12-.28.2-.57.08-.29.33-.24.41-.53.08-.29-.28-.43-.21-.72.08-.29.48-.47.48-.49l-1.55-.4s.06.42-.01.71c-.08.29-.27.24-.35.53-.08.29.14.35.06.64-.08.29-.33.22-.41.5-.08.29.39.32.31.61-.08.29-.26.34-.33.63-.08.29-.19.22-.27.51-.08.29.1.37.02.66-.08.29-.41.2-.49.49-.08.29.26.37.18.66-.08.29-.19.26-.27.55-.08.29-.23.25-.31.54-.08.29.32.37.24.66-.08.29-.4.23-.48.52-.08.29.07.33-.01.62-.08.29-.36.29-.42.5l1.54.43c.06-.22-.15-.24-.07-.53.08-.29.2-.25.28-.54Z"/>
    <path d="M33.69,25.6c.07-.29-.21-.29-.13-.59.07-.29.36-.4.43-.69.08-.29-.03-.32.05-.61.08-.29.31-.23.39-.52.08-.29-.11-.41-.03-.7.08-.29-.42-.33-.34-.62.08-.29.6-.19.68-.48.08-.29-.05-.4.03-.69.08-.29.41-.09.49-.38.08-.29-.26-.39-.18-.67.08-.29.12-.28.2-.57.08-.29.34-.23.42-.52.08-.29-.28-.43-.2-.72.08-.29.49-.47.49-.48l-1.54-.43s.06.42-.02.71c-.08.29-.27.23-.35.52-.08.29.13.35.05.64-.08.29-.33.21-.41.5-.08.29.39.32.31.61-.08.29-.26.34-.34.63-.08.29-.19.22-.27.51-.08.29.1.37.02.66-.08.29-.41.21-.49.5-.08.29.26.37.19.66-.08.29-.19.26-.26.55-.08.29-.22.25-.3.54-.08.29.33.36.25.65-.07.29-.4.24-.47.53-.07.29.08.33,0,.62-.07.29-.35.29-.41.51l1.55.39c.06-.22-.16-.24-.08-.53.07-.29.19-.26.27-.55Z"/>
    <path d="M31.32,34.96c.07-.29-.21-.29-.14-.58.07-.29.36-.4.43-.69.07-.29-.03-.32.04-.61.07-.29.31-.24.39-.53.07-.29-.11-.41-.04-.7.07-.29-.42-.32-.35-.61.07-.29.6-.2.68-.49.07-.29-.05-.4.02-.69.07-.29.41-.09.48-.39.07-.29-.26-.38-.19-.67.07-.29.12-.28.19-.57.07-.29.33-.24.4-.53.07-.29-.29-.43-.21-.72.07-.29.48-.48.48-.49l-1.55-.39s.07.42,0,.71c-.07.29-.27.24-.34.53-.07.29.14.35.07.64-.07.29-.33.22-.4.51-.07.29.39.32.32.61-.07.29-.25.34-.33.63-.07.29-.18.23-.26.51-.07.29.1.37.03.66-.07.29-.41.21-.48.5-.07.29.27.37.19.66-.07.29-.19.26-.26.55-.07.29-.22.25-.29.54-.07.29.33.36.26.65-.07.29-.4.24-.47.53-.07.29.08.33,0,.62-.07.29-.35.3-.4.52l1.55.38c.05-.22-.16-.24-.09-.53.07-.29.19-.26.26-.55Z"/>
    <path d="M29.19,44.35c.06-.29-.22-.28-.16-.58.06-.29.34-.41.4-.71.06-.29-.04-.32.02-.61.06-.29.3-.25.37-.54.06-.29-.12-.41-.06-.7.06-.29-.43-.31-.37-.6.07-.29.59-.22.66-.51.07-.29-.06-.39,0-.69.07-.29.4-.1.47-.4.07-.29-.27-.38-.2-.67.07-.29.11-.28.18-.57.07-.29.33-.25.4-.54.07-.29-.3-.42-.23-.71.07-.29.47-.48.47-.5l-1.55-.38s.07.42,0,.71c-.07.29-.26.24-.33.54-.07.29.15.34.08.64-.07.29-.33.23-.39.52-.07.29.4.31.33.6-.07.29-.24.35-.31.64-.07.29-.18.23-.24.52-.07.29.12.37.05.66-.06.29-.4.23-.46.52-.07.29.28.36.22.65-.06.29-.18.27-.24.56-.06.29-.21.26-.27.56-.06.29.34.35.28.64-.06.29-.39.26-.45.55-.06.29.09.33.03.62-.05.24-.32.41-.41.67v.07s1.65-.1,1.65-.1v-.02c-.02-.09-.21-.07-.16-.3.06-.29.18-.27.24-.56Z"/>
    <path d="M31.26,53.35c-.08-.29-.32-.15-.4-.44-.08-.29.11-.53.03-.81-.08-.29-.18-.26-.26-.55-.08-.29.15-.36.07-.65-.08-.29-.3-.3-.38-.59-.08-.29-.53-.07-.61-.36-.08-.29.42-.47.34-.76-.08-.29-.24-.32-.32-.61-.08-.29.31-.28.23-.57-.08-.29-.42-.2-.5-.49-.08-.29-.04-.3-.12-.59-.08-.29.17-.37.09-.66-.08-.29-.46-.23-.54-.52-.1-.35.22-.51.22-.51l-1.63.1s.09.16.18.33c.1.2.16.29.21.45.08.29-.11.34-.03.63.08.29.29.23.37.52.08.29-.18.35-.1.64.08.29.5.08.58.37.08.29-.05.42.03.71.08.29-.05.29.03.57.08.29.28.27.35.56.08.29-.25.39-.17.67.08.29.42.19.49.48.08.29-.03.32.05.61.08.29-.07.33.01.62.08.29.46.15.54.44.08.29-.23.4-.15.69.08.29.23.25.31.54.08.29-.16.43-.1.65l1.54-.43c-.06-.22-.25-.13-.33-.42-.08-.29.04-.32-.04-.61Z"/>
    <path d="M33.84,62.67c-.08-.29-.32-.15-.4-.44-.08-.29.11-.53.03-.81-.08-.29-.18-.26-.26-.55-.08-.29.15-.36.07-.65-.08-.29-.3-.3-.38-.59-.08-.29-.53-.07-.61-.36-.08-.29.42-.47.34-.76-.08-.29-.24-.32-.32-.61-.08-.29.31-.28.23-.57-.08-.29-.42-.2-.5-.49-.08-.29-.04-.3-.12-.59-.08-.29.17-.37.09-.66-.08-.29-.46-.23-.54-.52-.08-.29.18-.65.17-.67l-1.54.43s.26.33.34.62c.08.29-.11.34-.03.63.08.29.29.23.37.52.08.29-.18.35-.1.64.08.29.5.08.58.37.08.29-.05.42.03.71.08.29-.05.29.03.57.08.29.28.27.35.56.08.29-.25.39-.17.67.08.29.42.19.49.48.08.29-.03.32.05.61.08.29-.07.33.01.62.08.29.46.15.54.44.08.29-.23.4-.15.69.08.29.23.25.31.54.08.29-.16.43-.1.65l1.54-.43c-.06-.22-.25-.13-.33-.42-.08-.29.04-.32-.04-.61Z"/>
    <path d="M36.41,71.98c-.08-.29-.32-.15-.4-.44-.08-.29.11-.53.03-.81-.08-.29-.18-.26-.26-.55-.08-.29.15-.36.07-.65-.08-.29-.3-.3-.38-.59-.08-.29-.53-.07-.61-.36-.08-.29.42-.47.34-.76-.08-.29-.24-.32-.32-.61-.08-.29.31-.28.23-.57-.08-.29-.42-.2-.5-.49-.08-.29-.04-.3-.12-.59-.08-.29.17-.37.09-.66-.08-.29-.46-.23-.54-.52-.08-.29.18-.65.17-.67l-1.54.43s.26.33.34.62c.08.29-.11.34-.03.63.08.29.29.23.37.52.08.29-.18.35-.1.64.08.29.5.08.58.37.08.29-.05.42.03.71.08.29-.05.29.03.57.08.29.28.27.35.56.08.29-.25.39-.17.67.08.29.42.19.49.48.08.29-.03.32.05.61.08.29-.07.33.01.62.08.29.46.15.54.44.08.29-.23.4-.15.69.08.29.23.25.31.54.08.29-.16.43-.1.65l1.54-.43c-.06-.22-.25-.13-.33-.42-.08-.29.04-.32-.04-.61Z"/>
    <path d="M38.98,81.29c-.08-.29-.32-.15-.4-.44-.08-.29.11-.53.03-.81-.08-.29-.18-.26-.26-.55-.08-.29.15-.36.07-.65-.08-.29-.3-.3-.38-.59-.08-.29-.53-.07-.61-.36-.08-.29.42-.47.34-.76-.08-.29-.24-.32-.32-.61-.08-.29.31-.28.23-.57-.08-.29-.42-.2-.5-.49-.08-.29-.04-.3-.12-.59-.08-.29.17-.37.09-.66-.08-.29-.46-.23-.54-.52-.08-.29.18-.65.17-.67l-1.54.43s.26.33.34.62c.08.29-.11.34-.03.63.08.29.29.23.37.52.08.29-.18.35-.1.64.08.29.5.08.58.37.08.29-.05.42.03.71.08.29-.05.29.03.57.08.29.28.27.35.56.08.29-.25.39-.17.67.08.29.42.19.49.48.08.29-.03.32.05.61.08.29-.07.33.01.62.08.29.46.15.54.44.08.29-.23.4-.15.69.08.29.23.25.31.54.08.29-.16.43-.1.65l1.54-.43c-.06-.22-.25-.13-.33-.42-.08-.29.04-.32-.04-.61Z"/>
    <path d="M39.16,83.11c.1-.1.15-.24.18-.37.03-.13.05-.27.01-.41,0,0,0,0,0,0l-1.54.43s0,0,0,0c.04.14.11.27.2.37.1.1.23.16.37.2.13.03.28.03.42,0,.14-.04.27-.11.36-.21Z"/>
  </g>
  <g>
    <path d="M68.41,45.94c.12-.07.23-.18.3-.3.07-.12.1-.26.1-.4s-.04-.28-.11-.39c-.07-.12-.15-.25-.27-.32-.12-.07-.27-.09-.42-.09v1.6c.15,0,.29-.03.41-.1Z"/>
    <path d="M59.48,45.95c.3,0,.23-.27.53-.27.3,0,.47.25.77.25.3,0,.3-.11.6-.11.3,0,.31.25.6.25.3,0,.37-.21.67-.21.3,0,.21-.49.51-.49s.34.53.64.53c.3,0,.37-.15.67-.15.3,0,.19.37.49.37.3,0,.3-.35.6-.35.3,0,.3.04.6.04.3,0,.31.26.61.26.3,0,.34-.39.64-.39.3,0,.58.34.59.34v-1.6s-.39.17-.68.17c-.3,0-.3-.2-.59-.2-.3,0-.3.22-.6.22-.3,0-.29-.27-.59-.27-.3,0-.21.46-.51.46-.3,0-.39-.16-.69-.16s-.26-.12-.56-.12c-.3,0-.33.19-.63.19-.3,0-.3-.34-.6-.34-.3,0-.29.35-.59.35s-.3-.12-.6-.12c-.3,0-.3-.15-.6-.15-.3,0-.27.41-.57.41-.3,0-.33-.33-.63-.33-.3,0-.3.16-.6.16-.3,0-.37-.27-.6-.27v1.6c.22,0,.19-.21.49-.21.3,0,.3.12.6.12Z"/>
    <path d="M49.86,45.95c.3,0,.23-.27.53-.27.3,0,.47.25.77.25.3,0,.3-.11.6-.11.3,0,.31.25.6.25.3,0,.37-.21.67-.21.3,0,.21-.49.51-.49.3,0,.34.53.64.53.3,0,.37-.15.67-.15.3,0,.19.37.49.37.3,0,.3-.35.6-.35s.3.04.6.04c.3,0,.31.26.61.26.3,0,.34-.39.64-.39.3,0,.58.34.59.34v-1.6s-.39.17-.68.17c-.3,0-.3-.2-.59-.2-.3,0-.3.22-.6.22-.3,0-.29-.27-.59-.27-.3,0-.21.46-.51.46-.3,0-.39-.16-.69-.16-.3,0-.26-.12-.56-.12-.3,0-.33.19-.63.19-.3,0-.3-.34-.6-.34-.3,0-.29.35-.59.35-.3,0-.3-.12-.6-.12-.3,0-.3-.15-.6-.15s-.27.41-.57.41c-.3,0-.33-.33-.63-.33-.3,0-.3.16-.6.16-.3,0-.37-.27-.6-.27v1.6c.22,0,.19-.21.49-.21.3,0,.3.12.6.12Z"/>
    <path d="M40.25,45.95c.3,0,.23-.27.53-.27.3,0,.47.25.77.25.3,0,.3-.11.6-.11.3,0,.31.25.6.25.3,0,.37-.21.67-.21.3,0,.21-.49.51-.49s.34.53.64.53c.3,0,.37-.15.67-.15s.19.37.49.37c.3,0,.3-.35.6-.35.3,0,.3.04.6.04.3,0,.31.26.61.26.3,0,.34-.39.64-.39.3,0,.58.34.59.34v-1.6s-.39.17-.68.17c-.3,0-.3-.2-.59-.2-.3,0-.3.22-.6.22-.3,0-.29-.27-.59-.27-.3,0-.21.46-.51.46-.3,0-.39-.16-.69-.16s-.26-.12-.56-.12c-.3,0-.33.19-.63.19-.3,0-.3-.34-.6-.34-.3,0-.29.35-.59.35s-.3-.12-.6-.12c-.3,0-.3-.15-.6-.15-.3,0-.27.41-.57.41s-.33-.33-.63-.33c-.3,0-.3.16-.6.16-.3,0-.37-.27-.6-.27v1.6c.22,0,.19-.21.49-.21.3,0,.3.12.6.12Z"/>
    <path d="M30.63,45.95c.3,0,.23-.27.53-.27.3,0,.47.25.77.25.3,0,.3-.11.6-.11.3,0,.31.25.6.25.3,0,.37-.21.67-.21.3,0,.21-.49.51-.49.3,0,.34.53.64.53.3,0,.37-.15.67-.15.3,0,.19.37.49.37.3,0,.3-.35.6-.35s.3.04.6.04c.3,0,.31.26.61.26.3,0,.34-.39.64-.39.3,0,.58.34.59.34v-1.6s-.39.17-.68.17c-.3,0-.3-.2-.59-.2-.3,0-.3.22-.6.22-.3,0-.29-.27-.59-.27-.3,0-.21.46-.51.46-.3,0-.39-.16-.69-.16-.3,0-.26-.12-.56-.12-.3,0-.33.19-.63.19-.3,0-.3-.34-.6-.34-.3,0-.29.35-.59.35-.3,0-.3-.12-.6-.12-.3,0-.3-.15-.6-.15s-.27.41-.57.41c-.3,0-.33-.33-.63-.33-.3,0-.3.16-.6.16-.3,0-.37-.27-.6-.27v1.6c.22,0,.19-.21.49-.21.3,0,.3.12.6.12Z"/>
    <path d="M21.02,45.95c.3,0,.23-.27.53-.27.3,0,.47.25.77.25.3,0,.3-.11.6-.11.3,0,.31.25.6.25.3,0,.37-.21.67-.21.3,0,.21-.49.51-.49s.34.53.64.53c.3,0,.37-.15.67-.15s.19.37.49.37c.3,0,.3-.35.6-.35.3,0,.3.04.6.04.3,0,.31.26.61.26.3,0,.34-.39.64-.39.3,0,.58.34.59.34v-1.6s-.39.17-.68.17c-.3,0-.3-.2-.59-.2-.3,0-.3.22-.6.22-.3,0-.29-.27-.59-.27-.3,0-.21.46-.51.46-.3,0-.39-.16-.69-.16s-.26-.12-.56-.12c-.3,0-.33.19-.63.19-.3,0-.3-.34-.6-.34-.3,0-.29.35-.59.35s-.3-.12-.6-.12c-.3,0-.3-.15-.6-.15-.3,0-.27.41-.57.41s-.33-.33-.63-.33c-.3,0-.3.16-.6.16-.3,0-.37-.27-.6-.27v1.6c.22,0,.19-.21.49-.21.3,0,.3.12.6.12Z"/>
    <path d="M11.4,45.95c.3,0,.23-.27.53-.27.3,0,.47.25.77.25.3,0,.3-.11.6-.11.3,0,.31.25.6.25.3,0,.37-.21.67-.21.3,0,.21-.49.51-.49.3,0,.34.53.64.53.3,0,.37-.15.67-.15.3,0,.19.37.49.37.3,0,.3-.35.6-.35s.3.04.6.04c.3,0,.31.26.61.26.3,0,.34-.39.64-.39.3,0,.58.34.59.34v-1.6s-.39.17-.68.17c-.3,0-.3-.2-.59-.2-.3,0-.3.22-.6.22-.3,0-.29-.27-.59-.27-.3,0-.21.46-.51.46-.3,0-.39-.16-.69-.16-.3,0-.26-.12-.56-.12-.3,0-.33.19-.63.19-.3,0-.3-.34-.6-.34-.3,0-.29.35-.59.35-.3,0-.3-.12-.6-.12-.3,0-.3-.15-.6-.15s-.27.41-.57.41c-.3,0-.33-.33-.63-.33-.3,0-.3.16-.59.15-.29,0-.36-.28-.57-.28l-.05,1.6c.23,0,.21-.21.51-.2.3,0,.31.13.6.13Z"/>
    <path d="M9.59,45.62c.06.12.18.21.3.28.12.07.25.12.4.13h0l.05-1.6h0c-.14,0-.28.03-.4.09-.12.07-.22.18-.3.3-.07.12-.12.26-.13.4,0,.14.02.29.08.4Z"/>
  </g>
</svg>