<?xml version="1.0" encoding="UTF-8"?>
<svg id="_レイヤー_1" xmlns="http://www.w3.org/2000/svg" version="1.1" viewBox="0 0 80 90">
  <!-- Generator: Adobe Illustrator 30.0.0, SVG Export Plug-In . SVG Version: 2.1.1 Build 123)  -->
  <defs>
    <style>
      .st0 {
        fill: none;
      }

      .st1 {
        fill: #ceb372;
      }

      .st2 {
        fill: #fff;
      }
    </style>
  </defs>
  <path class="st2" d="M27.08,5.72c-.4.05-.64.34-.9.6-3.09,3.09-6.16,6.21-9.29,9.26-.76.74-.99,1.59-.99,2.53-.01,17.91-.01,35.82-.01,53.73,0,.08-.02.16,0,.24.2.76.22,1.53.88,2.17,3.17,3.09,6.28,6.24,9.41,9.38.61.62,1.36.89,2.21.89,7.66,0,15.31,0,22.97,0,.98,0,1.82-.32,2.51-1.02,3.07-3.08,6.12-6.16,9.22-9.2.74-.73,1-1.57,1-2.53.01-4.75,0-9.49,0-14.24,0-13.12,0-26.25,0-39.37,0-.95-.26-1.8-1-2.53-3.12-3.06-6.2-6.17-9.28-9.27-1.03-1.04-2.6-.9-3.94-.9-1.73,0-3.45,0-5.18,0-3.45,0-6.9,0-10.36,0-2,0-4,0-6.01,0"/>
  <polyline class="st1" points="15.9 18.11 16.15 73.3 27.1 84.25 52.16 84.58 48.01 77.45 30.42 77.28 24.11 69.32 23.78 22.52 15.9 18.11"/>
  <polygon class="st1" points="51.66 6.76 48.51 14.06 56.8 21.2 63.27 16.88 51.66 6.76"/>
  <g>
    <path d="M52.77,7.28c-.02-.11-.09-.22-.17-.32-.08-.09-.2-.18-.33-.24s-.26-.1-.39-.11c-.13-.01-.27-.02-.37.03-.1.04-.17.13-.21.22l1.43.72c.05-.09.06-.2.04-.3Z"/>
    <path d="M49.97,12.87c.09-.19-.17-.27-.07-.46.09-.19.37-.18.46-.37.09-.19,0-.24.09-.42.09-.19.32-.08.41-.27.09-.19-.07-.32.03-.51.09-.19-.37-.35-.28-.54.09-.19.58.03.68-.16.09-.19-.02-.3.08-.48.09-.19.39.05.49-.14.09-.19-.22-.35-.12-.53.09-.19.13-.17.23-.35.09-.19.33-.08.43-.26.09-.19-.24-.39-.14-.57.09-.19.49-.2.49-.22l-1.43-.72s.03.32-.07.5c-.09.19-.27.1-.37.28-.09.19.1.29,0,.47-.09.19-.33.06-.42.25-.09.19.35.34.25.52-.09.19-.27.17-.36.36-.09.19-.19.11-.29.29-.09.19.07.29-.03.48-.09.19-.4.04-.49.22-.09.19.22.34.13.53-.09.19-.2.13-.29.32-.09.19-.23.12-.32.3-.09.19.28.35.18.54-.09.19-.39.06-.49.24-.09.19.04.26-.05.44-.09.19-.36.11-.43.25l1.43.72c.07-.14-.13-.22-.03-.4.09-.19.2-.13.3-.32Z"/>
    <path d="M49.13,13.85c.13.01.24-.02.34-.07.1-.04.18-.1.23-.19h0s-1.43-.72-1.43-.72h0c-.05.09-.07.19-.04.3.02.11.09.22.18.32.08.09.2.18.33.25.13.06.27.11.39.12Z"/>
  </g>
  <g>
    <path d="M27.15,6.6c.02-.12.03-.27.03-.42,0-.14-.03-.31-.1-.47-.07-.17-.19-.32-.35-.42-.17-.1-.37-.19-.6-.13-.23.05-.46.24-.58.36l1.43,1.4c.13-.14.16-.22.17-.33Z"/>
    <path d="M19.49,14.25c.26-.26-.03-.45.23-.7.26-.26.63-.19.89-.45.26-.26.17-.36.43-.61.26-.26.48-.05.74-.31.26-.26.14-.51.4-.76.26-.26-.25-.61,0-.87.26-.26.77.18,1.02-.08.26-.26.19-.45.45-.71.26-.26.49.16.75-.1.26-.26-.04-.57.22-.83.26-.26.3-.22.56-.48.26-.26.5-.04.76-.3.26-.26-.04-.64.21-.89.26-.26.81-.2.83-.22l-1.43-1.4s-.18.47-.44.73c-.26.26-.43.08-.69.34-.26.26-.06.45-.32.71-.26.26-.49.02-.75.27-.26.26.22.59-.03.84-.26.26-.48.2-.74.45-.26.26-.34.12-.59.38-.26.26-.12.46-.38.72-.26.26-.56-.04-.82.22-.26.26.05.56-.2.82-.26.26-.36.15-.62.41-.26.26-.39.12-.65.38-.26.26.12.6-.14.85-.26.26-.57,0-.83.25-.26.26-.12.4-.38.65-.26.26-.56.08-.75.27l1.4,1.43c.19-.19-.01-.36.25-.62.26-.26.37-.15.63-.41Z"/>
    <path d="M16.8,24.31c0-.37-.34-.29-.34-.65,0-.37.31-.58.31-.95,0-.37-.13-.37-.13-.73,0-.37.31-.37.31-.74,0-.37-.26-.45-.26-.82,0-.37-.61-.25-.61-.62,0-.37.67-.42.67-.78,0-.37-.19-.45-.19-.82,0-.34.46-.21.48-.49.04-.26-.4-.35-.31-.63.1-.27.15-.25.28-.49.16-.24.42-.04.59-.23.23-.23-.05-.63.2-.89.26-.26.8-.19.82-.21l-1.4-1.43s-.19.48-.45.74c-.27.27-.41.05-.71.36-.32.36-.11.53-.35.91-.22.39-.52.26-.69.73-.13.47.47.46.4.86-.05.39-.24.55-.24.91,0,.36-.15.32-.15.69,0,.37.24.41.24.77,0,.37-.43.37-.43.74,0,.37.44.36.44.72,0,.37-.14.36-.14.73,0,.37-.19.37-.19.73,0,.37.51.33.51.7,0,.37-.41.4-.41.77,0,.37.19.37.19.73,0,.36-.34.45-.34.73h2c0-.27-.26-.24-.26-.6,0-.37.15-.36.15-.73Z"/>
    <path d="M16.79,36.1c0-.37-.34-.29-.34-.65,0-.37.31-.58.31-.95,0-.37-.13-.37-.13-.73,0-.37.31-.38.31-.74,0-.37-.26-.45-.26-.82,0-.37-.61-.25-.61-.62,0-.37.67-.42.67-.78,0-.37-.19-.45-.19-.82,0-.37.46-.23.46-.6,0-.37-.44-.37-.44-.74,0-.37.05-.37.05-.73,0-.37.33-.39.33-.75,0-.37-.48-.42-.48-.78,0-.37.43-.71.43-.73h-2s.21.47.21.84c0,.37-.25.36-.25.73,0,.37.28.37.28.73,0,.37-.33.36-.33.72,0,.36.57.25.57.62,0,.36-.2.48-.2.84,0,.36-.15.32-.15.69,0,.37.24.41.24.77,0,.37-.43.37-.43.74,0,.37.44.36.44.72,0,.37-.14.36-.14.73,0,.37-.19.37-.19.73,0,.37.51.33.51.7,0,.37-.41.4-.41.77,0,.37.19.37.19.73,0,.36-.34.45-.34.73h2c0-.27-.26-.24-.26-.61,0-.37.15-.36.15-.73Z"/>
    <path d="M16.79,47.88c0-.37-.34-.29-.34-.65,0-.37.31-.58.31-.95,0-.37-.13-.37-.13-.73,0-.37.31-.38.31-.74,0-.37-.26-.45-.26-.82,0-.37-.61-.25-.61-.62,0-.37.67-.42.67-.78,0-.37-.19-.45-.19-.82,0-.37.46-.23.46-.6,0-.37-.44-.37-.44-.74,0-.37.05-.37.05-.73,0-.37.33-.39.33-.75,0-.37-.48-.42-.48-.78,0-.37.43-.71.43-.73h-2s.21.47.21.84c0,.37-.25.36-.25.73,0,.37.28.37.28.73,0,.37-.33.36-.33.72,0,.36.57.25.57.62,0,.36-.2.48-.2.84,0,.36-.15.32-.15.69,0,.37.24.41.24.77,0,.37-.43.37-.43.74,0,.37.44.36.44.72,0,.37-.14.36-.14.73,0,.37-.19.37-.19.73,0,.37.51.33.51.7,0,.37-.41.4-.41.77,0,.37.19.37.19.73,0,.36-.34.45-.34.73h2c0-.27-.26-.24-.26-.61,0-.37.15-.36.15-.73Z"/>
    <path d="M16.79,59.67c0-.37-.34-.29-.34-.65,0-.37.31-.58.31-.95,0-.37-.13-.37-.13-.73,0-.37.31-.38.31-.74,0-.37-.26-.45-.26-.82,0-.37-.61-.25-.61-.62,0-.37.67-.42.67-.78,0-.37-.19-.45-.19-.82,0-.37.46-.23.46-.6,0-.37-.44-.37-.44-.74,0-.37.05-.37.05-.73,0-.37.33-.39.33-.75,0-.37-.48-.42-.48-.78,0-.37.43-.71.43-.73h-2s.21.47.21.84c0,.37-.25.36-.25.73,0,.37.28.37.28.73,0,.37-.33.36-.33.72,0,.36.57.25.57.62,0,.36-.2.48-.2.84,0,.36-.15.32-.15.69,0,.37.24.41.24.77,0,.37-.43.37-.43.74,0,.37.44.36.44.72,0,.37-.14.36-.14.73,0,.37-.19.37-.19.73,0,.37.51.33.51.7,0,.37-.41.4-.41.77,0,.37.19.37.19.73,0,.36-.34.45-.34.73h2c0-.27-.26-.24-.26-.61,0-.37.15-.36.15-.73Z"/>
    <path d="M16.79,71.46c0-.37-.34-.29-.34-.65,0-.37.31-.58.31-.95,0-.37-.13-.37-.13-.73,0-.37.31-.38.31-.74,0-.37-.26-.45-.26-.82,0-.37-.61-.25-.61-.62,0-.37.67-.42.67-.78,0-.37-.19-.45-.19-.82,0-.37.46-.23.46-.6,0-.37-.44-.37-.44-.74,0-.37.05-.37.05-.73,0-.37.33-.39.33-.75,0-.37-.48-.42-.48-.78,0-.37.43-.71.43-.73h-2s.21.47.21.84c0,.37-.25.36-.25.73,0,.37.28.37.28.73,0,.37-.33.36-.33.72,0,.36.57.25.57.62,0,.36-.2.48-.2.84,0,.36-.15.32-.15.69,0,.37.24.41.24.77,0,.37-.43.37-.43.74,0,.37.44.36.44.72,0,.37-.14.37-.14.73,0,.37-.19.37-.19.73,0,.37.51.33.51.69,0,.37-.41.4-.41.77,0,.39.18.31.21.81.02.12.02.22,0,.31-.02.06-.05.12-.08.18-.06.11-.13.22-.09.36l1.95-.43c-.05-.24-.31-.21-.38-.51-.03-.11.03-.18.06-.23.04-.09.08-.18.08-.37Z"/>
    <path d="M23.62,79.82c-.26-.26-.44.04-.7-.22-.26-.26-.19-.63-.45-.89-.26-.26-.35-.16-.61-.42-.26-.26-.05-.48-.31-.74-.26-.26-.5-.14-.76-.39-.26-.26-.61.26-.87,0-.26-.26.17-.77-.09-1.03-.26-.26-.45-.19-.71-.45-.26-.26.16-.5-.1-.76-.26-.26-.57.05-.83-.21-.26-.26-.22-.3-.48-.56-.13-.13-.14-.26-.15-.38,0-.12-.05-.28-.1-.33-.11-.14-.54.1-.66-.17-.11-.28.25-.68.24-.7l-1.95.43s.3.47.5.91c.22.42.01.58.37.99.32.33.47.08.74.35.26.26.02.49.28.75.26.26.58-.23.84.03.26.26.2.48.46.74.26.26.12.34.38.59.26.26.46.12.72.37.26.26-.03.57.22.83.26.26.56-.06.82.2.26.26.16.36.41.62.26.26.13.39.38.65.26.26.59-.13.85.13.26.26,0,.57.26.83.26.26.4.12.65.38.26.26.08.56.28.75l1.41-1.42c-.19-.19-.35.02-.61-.24-.26-.26-.15-.37-.41-.63Z"/>
    <path d="M33.23,83.63c-.37,0-.29.34-.65.34-.37,0-.58-.31-.95-.31-.37,0-.37.13-.73.13-.37,0-.38-.31-.74-.31-.37,0-.45.26-.82.26-.37,0-.25.61-.62.61-.37,0-.42-.66-.68-.69-.26-.04-.38.12-.65.02-.26-.12.05-.48-.14-.61-.19-.14-.45.21-.71-.05-.26-.26-.22-.3-.48-.56-.26-.26-.04-.5-.3-.76-.26-.26-.64.05-.9-.21-.26-.26-.2-.8-.21-.82l-1.41,1.42s.48.19.74.44c.26.26.08.43.34.69.26.26.46.06.71.32.26.26.02.49.28.75.29.28.61-.19.93.06.35.24.38.49.81.66.43.14.35.27.8.35.46.05.52-.21.88-.21.37,0,.37.43.74.43.37,0,.36-.44.72-.44.37,0,.36.14.73.14.37,0,.37.19.73.19.37,0,.33-.51.7-.51.37,0,.4.41.77.41.37,0,.37-.19.73-.19.36,0,.45.34.73.34v-2c-.27,0-.24.26-.61.26-.37,0-.36-.15-.73-.15Z"/>
    <path d="M45.02,83.63c-.37,0-.29.34-.65.34-.37,0-.58-.31-.95-.31-.37,0-.37.13-.73.13-.37,0-.38-.31-.74-.31-.37,0-.45.26-.82.26-.37,0-.25.61-.62.61-.37,0-.42-.67-.78-.67-.37,0-.45.19-.82.19-.37,0-.23-.46-.6-.46-.37,0-.37.44-.74.44-.37,0-.37-.05-.73-.05-.37,0-.39-.33-.75-.33-.37,0-.42.48-.78.48-.37,0-.71-.43-.73-.43v2s.47-.21.84-.21c.37,0,.36.25.73.25.37,0,.37-.28.73-.28.37,0,.36.33.72.33.36,0,.25-.57.62-.57.36,0,.48.2.84.2.36,0,.32.15.69.15.37,0,.41-.24.77-.24.37,0,.37.43.74.43.37,0,.36-.44.72-.44.37,0,.36.14.73.14.37,0,.37.19.73.19.37,0,.33-.51.7-.51.37,0,.4.41.77.41.37,0,.37-.19.73-.19.36,0,.45.34.73.34v-2c-.27,0-.24.26-.61.26-.37,0-.36-.15-.73-.15Z"/>
    <path d="M55.12,81c-.26.26.04.44-.22.7-.26.26-.63.19-.89.45-.26.26-.16.35-.42.61-.27.26-.47.05-.67.21-.2.15-.12.41-.37.53-.25.1.04.65-.3.75-.35.08-.48-.58-.76-.57-.31,0-.44.19-.79.19-.37,0-.23-.46-.6-.46-.37,0-.37.44-.74.44-.37,0-.37-.05-.73-.05-.37,0-.39-.33-.75-.33-.37,0-.42.48-.78.48-.37,0-.71-.43-.73-.43v2s.47-.21.84-.21c.37,0,.36.25.73.25.37,0,.37-.28.73-.28.37,0,.36.33.72.33.36,0,.25-.57.62-.57.36,0,.48.2.84.2.38,0,.29.16.72.15.44-.03.47-.27.88-.36.41-.11.57.29,1.02.08.43-.23.18-.6.52-.86.33-.27.42-.19.68-.44.26-.26.39-.12.65-.38.26-.26-.13-.59.13-.85.26-.26.57,0,.83-.25.26-.26.12-.4.38-.65.26-.26.56-.08.75-.28l-1.41-1.42c-.19.19.02.35-.24.61-.26.26-.37.15-.63.41Z"/>
    <path d="M63.04,72.82c-.1.24.23.34.08.6-.19.27-.5.15-.75.4-.26.26-.17.36-.42.61-.26.26-.48.05-.74.31-.26.26-.14.51-.4.76-.26.26.25.61,0,.87-.26.26-.76-.18-1.02.08-.26.26-.19.45-.45.71-.26.26-.49-.16-.75.1-.26.26.04.57-.22.83-.26.26-.3.22-.56.48-.26.26-.5.04-.76.3-.26.26.04.64-.21.9-.26.26-.8.19-.82.21l1.41,1.42s.19-.48.45-.74c.26-.26.43-.08.69-.34.26-.26.06-.46.32-.71.26-.26.49-.02.75-.28.26-.26-.22-.59.03-.85.26-.26.48-.2.74-.45.26-.26.34-.12.59-.38.26-.26.12-.46.38-.72.26-.26.56.04.82-.22.26-.26-.05-.56.2-.82.26-.26.36-.15.62-.41.26-.26.39-.12.65-.38.26-.27-.09-.62.15-.93.24-.33.61-.17.81-.6.17-.44-.02-.49.07-.91.07-.42.4-.5.42-.83l-2-.03c0,.22.26.21.22.51-.05.29-.2.25-.29.5Z"/>
    <path d="M63.21,61.38c0,.37.34.29.34.65,0,.37-.31.58-.31.95,0,.37.13.37.13.73,0,.37-.31.37-.31.74,0,.37.26.45.26.82,0,.37.61.25.61.62,0,.37-.67.42-.67.78,0,.37.19.45.19.82,0,.37-.46.23-.46.6,0,.37.44.37.44.74,0,.37-.05.37-.05.73,0,.37-.33.38-.33.75,0,.37.48.42.48.78,0,.36-.43.72-.43.72l2,.03c0-.05-.21-.48-.21-.85,0-.37.25-.36.25-.73,0-.37-.28-.37-.28-.73,0-.37.33-.36.33-.72,0-.36-.57-.26-.57-.62,0-.36.2-.48.2-.84,0-.36.15-.32.15-.69,0-.37-.24-.41-.24-.77,0-.37.43-.37.43-.74,0-.37-.44-.36-.44-.72,0-.37.14-.36.15-.73,0-.37.19-.36.19-.73,0-.37-.51-.33-.51-.7,0-.37.41-.4.41-.77,0-.37-.19-.37-.19-.73,0-.36.34-.45.34-.73h-2c0,.27.26.24.26.6,0,.37-.15.36-.15.73Z"/>
    <path d="M63.21,49.59c0,.37.34.29.34.65,0,.37-.31.58-.31.95,0,.37.13.37.13.73,0,.37-.31.38-.31.74,0,.37.26.45.26.82,0,.37.61.25.61.62,0,.37-.67.42-.67.78,0,.37.19.45.19.82,0,.37-.46.23-.46.6,0,.37.44.37.44.74,0,.37-.05.37-.05.73,0,.37-.33.39-.33.75,0,.37.48.42.48.78,0,.37-.43.71-.43.73h2s-.21-.47-.21-.84c0-.37.25-.36.25-.73,0-.37-.28-.37-.28-.73,0-.37.33-.36.33-.72,0-.36-.57-.25-.57-.62,0-.36.2-.48.2-.84,0-.36.15-.32.15-.69,0-.37-.24-.41-.24-.77,0-.37.43-.37.43-.74,0-.37-.44-.36-.44-.72,0-.37.14-.37.14-.73,0-.37.19-.37.19-.73,0-.37-.51-.33-.51-.69,0-.37.41-.4.41-.77,0-.37-.19-.37-.19-.73,0-.36.34-.45.34-.73h-2c0,.27.26.24.26.61,0,.37-.15.36-.15.73Z"/>
    <path d="M63.21,37.8c0,.37.34.29.34.65,0,.37-.31.58-.31.95,0,.37.13.37.13.73,0,.37-.31.38-.31.74,0,.37.26.45.26.82,0,.37.61.25.61.62,0,.37-.67.42-.67.78,0,.37.19.45.19.82,0,.37-.46.23-.46.6,0,.37.44.37.44.74,0,.37-.05.37-.05.73,0,.37-.33.39-.33.75,0,.37.48.42.48.78,0,.37-.43.71-.43.73h2s-.21-.47-.21-.84c0-.37.25-.36.25-.73,0-.37-.28-.37-.28-.73,0-.37.33-.36.33-.72,0-.36-.57-.25-.57-.62,0-.36.2-.48.2-.84,0-.36.15-.32.15-.69,0-.37-.24-.41-.24-.77,0-.37.43-.37.43-.74,0-.37-.44-.36-.44-.72,0-.37.14-.37.14-.73,0-.37.19-.37.19-.73,0-.37-.51-.33-.51-.69,0-.37.41-.4.41-.77,0-.37-.19-.37-.19-.73,0-.36.34-.45.34-.73h-2c0,.27.26.24.26.61,0,.37-.15.36-.15.73Z"/>
    <path d="M63.21,26.02c0,.37.34.29.34.65,0,.37-.31.58-.31.95,0,.37.13.37.13.73,0,.37-.31.38-.31.74,0,.37.26.45.26.82,0,.37.61.25.61.62,0,.37-.67.42-.67.78,0,.37.19.45.19.82,0,.37-.46.23-.46.6,0,.37.44.37.44.74,0,.37-.05.37-.05.73,0,.37-.33.39-.33.75,0,.37.48.42.48.78,0,.37-.43.71-.43.73h2s-.21-.47-.21-.84c0-.37.25-.36.25-.73,0-.37-.28-.37-.28-.73,0-.37.33-.36.33-.72,0-.36-.57-.25-.57-.62,0-.36.2-.48.2-.84,0-.36.15-.32.15-.69,0-.37-.24-.41-.24-.77,0-.37.43-.37.43-.74,0-.37-.44-.36-.44-.72,0-.37.14-.37.14-.73,0-.37.19-.37.19-.73,0-.37-.51-.33-.51-.69,0-.37.41-.4.41-.77,0-.37-.19-.37-.19-.73,0-.36.34-.45.34-.73h-2c0,.27.26.24.26.61,0,.37-.15.36-.15.73Z"/>
    <path d="M61.67,15.47c.26.26.44-.04.7.22.13.13.18.29.23.45.03.14.05.27.13.38.16.22.27.14.4.4.11.26-.18.36-.12.61.04.25.31.3.32.61,0,.35.61.25.61.61,0,.37-.67.42-.67.78,0,.37.19.45.19.82,0,.37-.46.24-.46.6,0,.37.44.37.44.74,0,.37-.05.37-.05.73,0,.37-.33.39-.33.75,0,.37.48.42.48.78,0,.37-.43.71-.43.73h2s-.21-.47-.21-.84c0-.37.25-.36.25-.73,0-.37-.28-.37-.28-.73,0-.37.33-.36.33-.72,0-.36-.57-.25-.57-.62,0-.36.2-.48.2-.84,0-.36.15-.32.15-.69,0-.37-.24-.41-.24-.77,0-.38.43-.34.42-.77-.03-.45-.46-.4-.54-.81-.1-.42.04-.46-.14-.89-.2-.4-.05-.51-.33-.89-.3-.36-.66.02-.91-.23-.26-.26,0-.57-.26-.83-.26-.26-.39-.12-.65-.38-.26-.26-.08-.56-.28-.76l-1.4,1.42c.19.19.35-.02.61.24.26.26.15.37.41.63Z"/>
    <path d="M53.32,7.14c.26.26.44-.04.7.22.26.26.19.63.45.89.26.26.35.16.61.42.26.26.05.48.31.74.26.26.5.14.76.4.26.26.61-.25.87,0,.26.26-.17.77.08,1.03.26.26.45.19.71.45.26.26-.16.49.1.75.26.26.57-.05.83.21.26.26.22.3.48.56.26.26.04.5.3.76.26.26.63-.05.89.21.26.26.2.81.21.82l1.4-1.42s-.48-.19-.74-.44c-.26-.26-.08-.43-.34-.69-.26-.26-.45-.06-.71-.32-.26-.26-.02-.49-.28-.75-.26-.26-.58.23-.84-.03-.26-.26-.2-.48-.46-.74-.26-.26-.12-.34-.38-.59-.26-.26-.46-.12-.72-.37-.26-.26.04-.57-.22-.82-.26-.26-.56.06-.82-.2-.26-.26-.16-.36-.41-.62-.26-.26-.12-.39-.38-.65-.26-.26-.59.13-.85-.13-.26-.26,0-.57-.25-.83-.25-.24-.4-.15-.76-.42-.37-.25-.33-.6-.67-.74l-.72,1.87c.17.07.26-.18.5-.04.11.08.14.14.16.22.02.07.03.13.17.27Z"/>
    <path d="M42.44,6.37c.37,0,.29-.34.65-.34.37,0,.58.31.95.31.37,0,.37-.13.73-.13.37,0,.38.31.74.31.37,0,.45-.26.82-.26.37,0,.25-.61.62-.61.37,0,.42.67.78.67.37,0,.45-.19.82-.19.37,0,.24.46.6.46.37,0,.37-.44.74-.44.37,0,.37.05.73.05.35,0,.37.32.69.34.31.02.41-.46.73-.41.34.06.44.56.44.56l.72-1.87s-.64,0-1.05-.06c-.41-.06-.39-.3-.8-.33-.4-.02-.41.26-.78.26-.37,0-.37-.33-.72-.33-.36,0-.25.57-.62.58-.36,0-.48-.2-.84-.2-.36,0-.32-.15-.69-.15-.37,0-.41.24-.77.24-.37,0-.37-.43-.74-.43-.37,0-.36.44-.72.44-.36,0-.37-.14-.73-.14-.37,0-.37-.19-.73-.19-.37,0-.33.51-.69.51-.37,0-.4-.41-.77-.41-.37,0-.37.19-.73.19-.36,0-.45-.34-.73-.34v2c.27,0,.24-.26.61-.26.37,0,.36.15.73.15Z"/>
    <path d="M30.65,6.37c.37,0,.29-.34.65-.34.37,0,.58.31.95.31.37,0,.37-.13.73-.13.37,0,.38.31.74.31.37,0,.45-.26.82-.26.37,0,.25-.61.62-.61.37,0,.42.67.78.67.37,0,.45-.19.82-.19.37,0,.23.46.6.46.37,0,.37-.44.74-.44.37,0,.37.05.73.05.37,0,.39.33.75.33.37,0,.42-.48.78-.48.37,0,.71.43.73.43v-2s-.47.21-.84.21c-.37,0-.36-.25-.73-.25-.37,0-.37.28-.73.28-.36,0-.36-.33-.72-.33-.36,0-.25.57-.62.57-.36,0-.48-.2-.84-.2-.36,0-.32-.15-.69-.15-.37,0-.41.24-.77.24-.37,0-.37-.43-.74-.43-.37,0-.36.44-.72.44-.36,0-.36-.15-.73-.15-.37,0-.37-.19-.73-.19-.37,0-.33.51-.7.51-.37,0-.4-.41-.77-.41-.37,0-.37.19-.73.19-.36,0-.45-.34-.73-.34v2c.27,0,.24-.26.6-.26.37,0,.36.15.73.15Z"/>
    <path d="M28.46,5.98c.08.15.23.26.37.34.14.08.3.15.48.15h0v-2s0,0,0,0c-.18,0-.35.04-.5.12-.15.09-.27.23-.35.38-.08.15-.13.32-.13.5,0,.18.05.36.13.5Z"/>
  </g>
  <g>
    <path d="M30.08,76c.14.04.29.04.42,0,.13-.03.25-.12.35-.22.1-.1.16-.23.2-.36.04-.13.07-.28.03-.41-.03-.13-.12-.25-.22-.35l-1.14,1.12c.1.1.23.18.36.22Z"/>
    <path d="M23.75,69.72c.21.21.38,0,.59.2.21.21.14.49.35.7.21.21.29.14.51.35.21.21.03.38.24.59.21.21.42.12.63.33.21.21.51-.18.72.03.21.21-.16.59.05.8.21.21.37.16.58.37.21.21-.14.38.07.6.21.21.47-.02.68.19.21.21.18.24.39.45.21.21.03.4.24.61.21.21.52-.03.73.18.21.21.16.65.17.66l1.14-1.12s-.39-.15-.59-.36c-.21-.21-.06-.34-.27-.55-.21-.21-.37-.05-.58-.26-.21-.21-.01-.39-.22-.59-.21-.21-.48.17-.69-.04-.21-.21-.16-.38-.36-.59-.21-.21-.09-.26-.3-.47-.21-.21-.38-.1-.58-.31-.21-.21.04-.44-.16-.64-.21-.21-.47.03-.68-.18-.21-.21-.12-.28-.33-.49-.21-.21-.09-.3-.3-.51-.21-.21-.5.08-.71-.13-.21-.21.02-.44-.18-.64-.2-.2-.35-.13-.52-.3-.14-.16.11-.32.08-.42l-1.56.44c.09.31.26.21.48.54.13.17.17.24.19.31.03.07.06.14.16.25Z"/>
    <path d="M22.96,60.03c0,.3.27.21.27.51,0,.3-.25.49-.25.79,0,.3.11.29.11.58,0,.3-.25.32-.25.62,0,.3.21.35.21.64,0,.3.49.16.49.46,0,.29-.53.39-.53.68,0,.3.15.35.15.65,0,.3-.37.22-.37.52,0,.3.35.27.35.56,0,.3-.04.3-.04.6,0,.3-.26.34-.26.63,0,.3.38.3.38.6,0,.16-.09.27-.16.45-.07.16-.13.29-.13.31l1.56-.44s-.05-.04-.09-.11c-.04-.08-.08-.27-.08-.41,0-.29.2-.31.2-.61,0-.29-.22-.27-.22-.57,0-.29.27-.31.27-.61,0-.29-.46-.16-.46-.46,0-.29.16-.4.16-.7,0-.29.12-.27.12-.56,0-.29-.19-.31-.19-.61,0-.29.34-.33.34-.63,0-.29-.35-.26-.35-.55,0-.29.12-.3.12-.6,0-.29.15-.31.15-.6,0-.29-.41-.23-.41-.53,0-.29.33-.35.33-.65,0-.29-.16-.28-.16-.58,0-.29.27-.39.27-.61l-1.6.13c0,.22.21.18.21.47,0,.3-.12.3-.12.6Z"/>
    <path d="M22.96,50.49c0,.3.27.21.27.51,0,.3-.25.49-.25.78,0,.3.11.29.11.59,0,.3-.25.32-.25.62,0,.3.21.35.21.65,0,.3.49.17.49.47,0,.29-.53.37-.53.67,0,.3.15.36.15.65,0,.3-.37.22-.37.51,0,.3.35.28.35.57,0,.3-.04.3-.04.6,0,.3-.26.33-.26.63,0,.3.38.31.38.6,0,.3-.34.6-.34.62l1.6-.13s-.17-.37-.17-.66c0-.29.2-.31.2-.6,0-.29-.22-.28-.22-.57,0-.29.27-.31.27-.6,0-.29-.46-.17-.46-.47,0-.29.16-.4.16-.69,0-.29.12-.27.12-.56,0-.29-.19-.31-.19-.61,0-.29.34-.32.34-.62,0-.29-.35-.26-.35-.56,0-.29.12-.3.12-.6,0-.29.15-.3.15-.6,0-.29-.41-.24-.41-.53,0-.29.33-.34.33-.64,0-.29-.16-.28-.16-.58,0-.29.27-.38.27-.6l-1.6.09c0,.22.21.18.21.48,0,.3-.12.3-.12.6Z"/>
    <path d="M22.96,40.96c0,.3.27.22.27.52,0,.3-.25.48-.25.78,0,.3.11.29.11.59,0,.3-.25.31-.25.61,0,.3.21.36.21.65,0,.3.49.18.49.48,0,.29-.53.36-.53.66,0,.3.15.36.15.66,0,.3-.37.21-.37.51,0,.3.35.28.35.58,0,.3-.04.3-.04.59,0,.3-.26.33-.26.62,0,.3.39.32.39.61,0,.3-.34.59-.34.61l1.6-.09s-.17-.37-.17-.67c0-.29.2-.3.2-.6,0-.29-.22-.28-.22-.58,0-.29.27-.3.27-.6,0-.29-.46-.18-.46-.47,0-.29.16-.4.16-.69,0-.29.12-.27.12-.56,0-.29-.19-.32-.19-.61,0-.29.34-.32.34-.61,0-.29-.35-.27-.35-.57,0-.29.12-.3.12-.59,0-.29.15-.3.15-.6,0-.29-.41-.25-.41-.54,0-.29.33-.34.33-.63,0-.29-.16-.29-.16-.58,0-.29.27-.38.27-.6l-1.6.06c0,.22.21.18.21.48,0,.3-.12.3-.12.6Z"/>
    <path d="M22.96,31.43c0,.3.27.23.27.52,0,.3-.25.48-.25.77,0,.3.11.29.11.59,0,.3-.25.31-.25.61,0,.3.21.36.21.66,0,.3.49.19.49.49,0,.29-.53.35-.53.65,0,.3.15.36.15.66,0,.3-.37.2-.37.5,0,.3.35.29.35.59,0,.3-.04.3-.04.59,0,.3-.26.32-.26.62,0,.3.39.32.39.62,0,.3-.34.58-.34.6l1.6-.06s-.17-.37-.17-.67c0-.29.2-.3.2-.59,0-.29-.22-.29-.22-.58,0-.29.27-.3.27-.59,0-.29-.46-.19-.46-.48,0-.29.16-.39.16-.69,0-.29.12-.26.12-.56,0-.29-.19-.32-.19-.62,0-.29.34-.31.34-.61,0-.29-.35-.28-.35-.57,0-.29.12-.3.12-.59,0-.29.15-.3.15-.59,0-.29-.41-.26-.41-.55,0-.29.33-.33.33-.63,0-.29-.16-.29-.16-.59,0-.29.27-.37.27-.59l-1.6.03c0,.22.21.19.21.49,0,.3-.12.3-.12.59Z"/>
    <path d="M22.96,21.85c0,.38.27.25.27.57,0,.3-.25.47-.25.77,0,.3.11.3.11.59,0,.3-.25.3-.25.6,0,.3.21.37.21.66,0,.3.49.2.49.5,0,.29-.53.34-.53.64,0,.3.15.37.15.66,0,.3-.37.19-.37.49,0,.3.35.3.35.59,0,.3-.04.3-.04.59,0,.3-.26.32-.26.61,0,.3.39.33.39.63,0,.3-.34.58-.34.6l1.6-.03s-.17-.38-.17-.67c0-.29.2-.3.2-.59,0-.29-.22-.29-.22-.59,0-.29.27-.29.27-.59,0-.29-.46-.2-.46-.49,0-.29.16-.39.16-.68,0-.29.12-.26.12-.55,0-.29-.19-.33-.19-.62,0-.29.34-.3.34-.6,0-.29-.35-.29-.35-.58,0-.29.12-.3.12-.59,0-.29.15-.3.15-.59,0-.29-.41-.26-.41-.56,0-.29.33-.32.33-.62,0-.17-.16-.19-.15-.4.06-.17.32-.08.41-.1.01,0,.03,0,.04-.01l-1.21-1.05s-.07.08-.09.11c-.1.17,0,.26-.18.54-.12.37-.18.35-.21.78Z"/>
    <path d="M29.54,14.46c-.21.21.02.37-.19.58-.21.21-.5.15-.71.36-.21.21-.14.29-.35.5-.21.21-.38.03-.59.24-.21.21-.12.41-.33.62-.21.21.18.51-.02.72-.21.21-.6-.16-.81.05-.21.21-.16.37-.37.58-.21.21-.39-.14-.6.07-.21.21.02.47-.19.68-.21.21-.24.18-.45.39-.21.21-.4.03-.61.24-.21.21.02.52-.19.73-.1.1-.26.14-.4.16-.13.01-.31.07-.31.07l1.21,1.05s-.03-.03.05-.17c.06-.12.15-.27.25-.37.21-.21.34-.06.55-.27.21-.21.06-.37.27-.58.21-.21.39,0,.59-.22.21-.21-.17-.48.04-.69.21-.21.38-.16.59-.36.21-.21.27-.09.47-.3.21-.21.1-.37.31-.58.21-.21.44.04.65-.17.21-.21-.03-.46.18-.67.21-.21.29-.12.49-.33.21-.21.31-.1.52-.3.21-.21-.08-.49.12-.7.21-.21.45.01.66-.19.21-.21.1-.32.31-.53.21-.21.44-.06.6-.21l-1.06-1.2c-.16.16,0,.29-.21.5-.21.21-.29.12-.5.33Z"/>
    <path d="M38.95,13.08c-.25,0-.2.27-.45.27s-.4-.25-.65-.25-.25.11-.5.11-.26-.25-.51-.25-.31.21-.56.21-.17.49-.42.49-.29-.53-.53-.53-.31.15-.56.15-.16-.37-.41-.37-.25.35-.5.35-.25-.04-.5-.04-.26-.26-.51-.26-.28.39-.53.39-.48-.34-.5-.34v1.6s.32-.17.57-.17.25.2.5.2.25-.22.5-.22.24.27.49.27.17-.46.42-.46.33.16.58.16.22.12.47.12.28-.19.53-.19.25.34.5.34.24-.35.49-.35.25.12.5.12.25.15.5.15.23-.41.47-.41.27.33.52.33.25-.16.5-.16.31.27.5.27v-1.6c-.19,0-.16.21-.41.21s-.25-.12-.5-.12Z"/>
    <path d="M47,13.08c-.25,0-.2.27-.45.27s-.4-.25-.65-.25-.25.11-.5.11-.26-.25-.51-.25-.31.21-.56.21-.17.49-.42.49-.29-.53-.53-.53-.31.15-.56.15-.16-.37-.41-.37-.25.35-.5.35-.25-.04-.5-.04-.26-.26-.51-.26-.28.39-.53.39-.48-.34-.5-.34v1.6s.32-.17.57-.17.25.2.5.2.25-.22.5-.22.24.27.49.27.17-.46.42-.46.33.16.58.16.22.12.47.12.28-.19.53-.19.25.34.5.34.24-.35.49-.35.25.12.5.12.25.15.5.15.23-.41.47-.41.27.33.52.33.25-.16.5-.16.31.27.5.27v-1.6c-.19,0-.16.21-.41.21s-.25-.12-.5-.12Z"/>
    <path d="M55.22,18.88c-.2-.18-.34.06-.54-.12-.2-.18-.15-.47-.36-.66-.2-.18-.27-.1-.48-.29-.2-.18-.04-.37-.24-.55-.2-.18-.39-.07-.59-.25-.2-.18-.47.24-.67.06-.2-.18.13-.6-.07-.79-.2-.18-.35-.12-.55-.3-.2-.18.12-.39-.08-.57-.2-.18-.44.07-.64-.11-.2-.18-.17-.21-.37-.4-.2-.18-.04-.39-.24-.57-.2-.18-.49.08-.69-.1-.2-.18-.16-.61-.17-.62l-1.07,1.19s.37.11.57.29c.2.18.07.33.27.51.2.18.35.02.55.2.2.18.02.38.22.56.2.18.45-.21.65-.03.2.18.16.36.36.54.2.18.1.25.3.43.2.18.35.06.56.24.2.18-.02.44.18.62.2.18.43-.08.63.1.2.18.12.27.33.45.2.18.1.29.3.48.2.18.45-.14.66.04.2.18,0,.44.2.62.2.18.31.07.51.25.2.18.07.43.22.56l1.07-1.19c-.15-.14-.27.04-.47-.15-.2-.18-.12-.27-.32-.46Z"/>
    <path d="M56.22,20.2c.03-.13.01-.27-.02-.39-.03-.12-.09-.24-.18-.33,0,0,0,0,0,0l-1.07,1.19s0,0,0,0c.1.09.22.16.34.18.13.02.27,0,.4-.05.12-.05.25-.13.34-.23.1-.11.17-.24.2-.36Z"/>
    <g>
      <path d="M31.68,13.11h0s0,0,0,0h-.02s-.04,0-.04,0h-.02s-.02,0-.02,0h-.02s0,0,0,0h0s0,.02,0,.02h0s-.01.04-.01.04l-.02.08-.02.09v.04s-.02.01-.02.01h0s0,.02,0,.02h0s0,0,0,0h0s-.02,0-.02,0h-.02s-.02,0-.02,0h-.01s0,0,0,0h0s0,0,0,0h0s0,.02,0,.02l-.02.06-.02.06s-.03.08-.04.13v.04s-.03,0-.03,0h-.01s-.01,0-.01,0h-.01s-.02.01-.02.01h-.02s-.02.02-.02.02h-.01s-.01,0-.01,0h-.01s-.01,0-.01,0l-.03-.02-.03-.02-.07-.06-.07-.05-.03-.02h-.01s-.01,0-.01,0h-.05s-.05,0-.05,0c-.03,0-.07,0-.1,0h0s0,0,0,0h0s0,.01,0,.01v.02s0,.02,0,.02v.02s0,.02,0,.02h0s0,.02,0,.02h0s0,.01,0,.01h-.01s-.01,0-.01,0h-.03s-.05-.04-.08-.05l-.04-.02h-.04s-.02-.02-.02-.02h-.01s-.01,0-.01,0h0s0,0,0,0l.53.6.27.3.27.3h0s0-.01,0-.01c0,0,0-.01,0-.01h0s0-.02,0-.02h0s0,0,0,0h0s0,0,0,0h0s0-.02,0-.02v-.05s0-.02,0-.02h0s0-.02,0-.02h0s0-.01,0-.01h.01s.01,0,.02,0c0,0,.02,0,.04,0h.05s.05,0,.05,0h.01s0,0,0,0h0s0,0,0,0h0s0,0,0,0c0,0,0,0-.01-.01h0s0,0,0,0h0s0-.04,0-.04l.02-.04v-.02s.02-.01.02-.01h0s0-.01,0-.01h0s0,0,0,0h.03s.01,0,.01,0h0s0,0,0,0h0s0,0,0,0h0s0,0,0,0h0s.01.02.01.02v.02s.03.04.03.04h0s0,.01,0,.01h0s0,0,0,0h0s0,0,0,0h0s.01,0,.02,0h.03s0-.39,0-.39v-1.2h0s0,0,0,0h-.02s-.03.04-.03.04l-.04.04h-.02s-.02.03-.02.03Z"/>
      <polygon class="st0" points="31.81 15.4 29.71 13.03 30.14 12.6 30.6 12.2 31.81 12.2 31.81 15.4"/>
    </g>
    <g>
      <path d="M49.34,13.6h0s0,0,0,0h-.01s-.02-.04-.02-.04v-.02s-.03-.01-.03-.01h-.02s0-.01,0-.01h-.01s-.01,0-.01,0h-.01s-.03.02-.03.02l-.07.05-.07.05-.03.02h-.02s-.01.01-.01.01h-.01s-.01,0-.01,0h0s0,0,0,0v-.02s-.03-.02-.03-.02v-.02s-.02,0-.02,0h0s0,0,0,0h-.01s-.01,0-.01,0h-.01s-.06.03-.06.03l-.06.03s-.08.05-.12.07l-.03.02h0s0-.02,0-.02h-.02s-.02-.02-.02-.02h-.02s-.02-.02-.02-.02h-.01s0-.01,0-.01h0s0-.02,0-.02v-.03s-.02-.04-.02-.04l-.02-.09-.02-.09v-.04s-.02-.01-.02-.01h0s-.04-.05-.04-.05l-.04-.04s-.05-.05-.08-.07h0s0,0,0,0h0s0,0,0,0h-.01s-.01.03-.01.03v.02s-.03.01-.03.01h0s0,0,0,0h0s0,0,0,0h0s0-.02,0-.02l-.02-.03s-.02-.05-.03-.08l-.02-.04-.02-.04h0s0-.03,0-.03h0s0,0,0,0h0s0,.8,0,.8v.8h0s0,0,0,0c0,0,.01,0,.01,0h.01s0,0,0,0h0s0,0,0,0h0s0,0,0,0h0s0-.01,0-.01l.02-.04v-.02s.02,0,.02,0h0s0,0,0,0h0s.01.01.01.01h.01s.04.05.07.08l.04.04h0s0,.02,0,.02h0s0,0,0,0h0s0,0,0,0h0s0,0,0,0h0s.03-.02.03-.02l.04-.02h.02s.01,0,.01,0h.01s.01,0,.01,0h0s0,0,0,0l.03.02h.01s0,0,0,0h0s0,0,0,0h0s0,0,0,0h0s0,.01,0,.01v.02s0,.02,0,.02v.05s-.01,0-.01,0h0s0,.01,0,.01h0s0,0,0,0h0s0,0,0,0h.01s.02.04.02.04l.27-.3.27-.3.54-.59h0s0,0,0,0h-.02s-.05,0-.05,0h-.05s-.02,0-.02,0h-.02Z"/>
      <polygon class="st0" points="47.91 15.4 47.91 12.2 49.14 12.2 50.05 13.02 47.91 15.4"/>
    </g>
  </g>
  <g>
    <path d="M26.75,83.6c.02.11.09.23.17.33.08.1.21.17.34.23.13.06.27.08.39.09.13,0,.27,0,.37-.05.1-.05.17-.14.21-.24l-1.44-.69c-.05.1-.07.22-.04.32Z"/>
    <path d="M29.84,77.66c-.1.2.17.28.07.47-.1.2-.38.2-.48.39-.1.2,0,.25-.11.44-.1.2-.32.08-.43.28-.11.19.05.34-.05.54-.11.2.36.37.25.57-.11.2-.59-.03-.7.16-.11.2,0,.32-.11.51-.11.2-.39-.05-.5.15-.11.2.2.37.09.57-.1.2-.14.18-.25.38-.1.2-.34.09-.44.3-.1.2.23.4.13.61-.1.2-.5.24-.51.26l1.44.69s-.03-.33.07-.52c.1-.2.28-.11.37-.3.1-.2-.1-.3,0-.49.1-.2.34-.07.44-.26.1-.19-.34-.35-.23-.55.1-.19.28-.18.38-.38.11-.19.2-.11.31-.31.11-.2-.05-.31.06-.51.11-.2.41-.04.52-.23.11-.2-.2-.36-.1-.56.11-.2.21-.14.31-.34.11-.2.24-.13.34-.33.1-.2-.27-.37-.16-.57.1-.2.4-.07.5-.27.1-.2-.04-.27.06-.47.1-.2.37-.14.44-.29l-1.45-.69c-.07.15.13.22.03.42-.1.2-.21.14-.3.34Z"/>
    <path d="M30.68,76.61c-.13,0-.25.04-.34.09-.1.05-.18.11-.23.21h0s1.45.69,1.45.69h0c.05-.1.07-.21.04-.32-.02-.11-.1-.23-.18-.33-.08-.09-.2-.18-.33-.24-.13-.06-.27-.09-.4-.1Z"/>
  </g>
  <g>
    <path d="M57.9,68.7c-.11.02-.22.07-.33.15-.1.07-.19.18-.27.31-.08.12-.12.25-.15.37-.02.13-.05.26-.01.36.03.1.11.17.19.22l.86-1.35c-.08-.05-.18-.08-.29-.06Z"/>
    <path d="M63.02,71.84c-.16-.1-.27.16-.44.05-.17-.11-.14-.38-.31-.49-.17-.11-.23-.01-.4-.12-.17-.11-.05-.32-.22-.42-.17-.11-.32.05-.49-.06-.17-.11-.38.34-.55.24-.17-.11.09-.57-.08-.68-.17-.1-.29,0-.46-.11-.17-.11.09-.38-.08-.49-.17-.11-.36.19-.53.08-.17-.11-.15-.14-.32-.25-.17-.11-.04-.33-.21-.44-.17-.11-.4.21-.57.1-.17-.11-.15-.49-.16-.5l-.86,1.35s.31,0,.48.1c.17.11.06.27.23.38.17.11.29-.08.46.02.17.11.03.33.2.43.17.11.36-.32.53-.21.17.1.14.27.31.38.17.1.09.2.26.3.17.11.29-.05.46.06.17.11,0,.4.17.5.17.11.35-.19.52-.09.17.11.11.2.28.31.17.11.09.23.26.34.17.1.36-.25.53-.15.17.11.01.39.19.5.18.11.26-.02.45.08.19.1.12.37.29.44l.65-1.46c-.11-.05-.19.15-.35.06-.16-.09-.1-.19-.26-.29Z"/>
    <path d="M63.85,72.57c0-.13-.04-.23-.08-.32-.04-.09-.08-.16-.15-.19h0s-.65,1.46-.65,1.46h0c.1.05.23.06.34.03.12-.03.23-.12.31-.22.08-.1.15-.23.18-.37.04-.14.05-.28.05-.41Z"/>
  </g>
  <g>
    <path d="M56.96,22.37c-.07-.12-.18-.22-.3-.29-.12-.07-.26-.09-.4-.09-.14,0-.28.04-.39.11-.12.07-.25.15-.32.26-.07.11-.09.26-.09.4h1.6c0-.14-.03-.28-.1-.4Z"/>
    <path d="M56.98,31c0-.29-.27-.23-.27-.52,0-.29.25-.46.25-.75,0-.29-.11-.29-.11-.58,0-.29.25-.3.25-.58,0-.29-.21-.36-.21-.65,0-.29-.49-.2-.49-.49,0-.29.53-.33.53-.62,0-.29-.15-.36-.15-.65,0-.29.37-.19.37-.47,0-.29-.35-.29-.35-.58,0-.29.04-.29.04-.58,0-.29.26-.3.26-.59,0-.29-.39-.33-.39-.62,0-.29.34-.56.34-.57h-1.6s.17.37.17.66c0,.29-.2.29-.2.57,0,.29.22.29.22.58,0,.29-.27.28-.27.57,0,.29.46.2.46.49,0,.29-.16.38-.16.67,0,.29-.12.25-.12.54,0,.29.19.32.19.61,0,.29-.34.29-.34.58,0,.29.35.28.35.57,0,.29-.12.29-.12.58,0,.29-.15.29-.15.58,0,.29.41.26.41.55,0,.29-.33.32-.33.6,0,.29.16.29.16.58,0,.29-.27.36-.27.58h1.6c0-.22-.21-.19-.21-.48,0-.29.12-.29.12-.58Z"/>
    <path d="M56.98,40.29c0-.29-.27-.23-.27-.52,0-.29.25-.46.25-.75,0-.29-.11-.29-.11-.58,0-.29.25-.3.25-.58,0-.29-.21-.36-.21-.65,0-.29-.49-.2-.49-.49,0-.29.53-.33.53-.62,0-.29-.15-.36-.15-.65,0-.29.37-.19.37-.47,0-.29-.35-.29-.35-.58,0-.29.04-.29.04-.58,0-.29.26-.3.26-.59,0-.29-.39-.33-.39-.62,0-.29.34-.56.34-.57h-1.6s.17.37.17.66c0,.29-.2.29-.2.57,0,.29.22.29.22.58,0,.29-.27.28-.27.57,0,.29.46.2.46.49,0,.29-.16.38-.16.67,0,.29-.12.25-.12.54,0,.29.19.32.19.61,0,.29-.34.29-.34.58,0,.29.35.28.35.57,0,.29-.12.29-.12.58,0,.29-.15.29-.15.58,0,.29.41.26.41.55,0,.29-.33.32-.33.6,0,.29.16.29.16.58,0,.29-.27.36-.27.58h1.6c0-.22-.21-.19-.21-.48,0-.29.12-.29.12-.58Z"/>
    <path d="M56.98,49.58c0-.29-.27-.23-.27-.52,0-.29.25-.46.25-.75,0-.29-.11-.29-.11-.58,0-.29.25-.3.25-.58,0-.29-.21-.36-.21-.65,0-.29-.49-.2-.49-.49,0-.29.53-.33.53-.62,0-.29-.15-.36-.15-.65,0-.29.37-.19.37-.47,0-.29-.35-.29-.35-.58,0-.29.04-.29.04-.58,0-.29.26-.3.26-.59,0-.29-.39-.33-.39-.62,0-.29.34-.56.34-.57h-1.6s.17.37.17.66c0,.29-.2.29-.2.57,0,.29.22.29.22.58,0,.29-.27.28-.27.57,0,.29.46.2.46.49,0,.29-.16.38-.16.67,0,.29-.12.25-.12.54,0,.29.19.32.19.61,0,.29-.34.29-.34.58,0,.29.35.28.35.57,0,.29-.12.29-.12.58,0,.29-.15.29-.15.58,0,.29.41.26.41.55,0,.29-.33.32-.33.6,0,.29.16.29.16.58,0,.29-.27.36-.27.58h1.6c0-.22-.21-.19-.21-.48,0-.29.12-.29.12-.58Z"/>
    <path d="M56.98,58.87c0-.29-.27-.23-.27-.52,0-.29.25-.46.25-.75,0-.29-.11-.29-.11-.58,0-.29.25-.3.25-.58,0-.29-.21-.36-.21-.65,0-.29-.49-.2-.49-.49,0-.29.53-.33.53-.62,0-.29-.15-.36-.15-.65,0-.29.37-.19.37-.47,0-.29-.35-.29-.35-.58,0-.29.04-.29.04-.58,0-.29.26-.3.26-.59,0-.29-.39-.33-.39-.62,0-.29.34-.56.34-.57h-1.6s.17.37.17.66c0,.29-.2.29-.2.57,0,.29.22.29.22.58,0,.29-.27.28-.27.57,0,.29.46.2.46.49,0,.29-.16.38-.16.67,0,.29-.12.25-.12.54,0,.29.19.32.19.61,0,.29-.34.29-.34.58,0,.29.35.28.35.57,0,.29-.12.29-.12.58,0,.29-.15.29-.15.58,0,.29.41.26.41.55,0,.29-.33.32-.33.6,0,.29.16.29.16.58,0,.29-.27.36-.27.58h1.6c0-.22-.21-.19-.21-.48,0-.29.12-.29.12-.58Z"/>
    <path d="M56.97,68.27c.02-.43-.26-.33-.26-.62,0-.29.25-.46.25-.75,0-.29-.11-.29-.11-.58,0-.29.25-.3.25-.58,0-.29-.21-.36-.21-.65,0-.29-.49-.2-.49-.49,0-.29.53-.33.53-.62,0-.29-.15-.36-.15-.65,0-.29.37-.18.37-.47,0-.29-.35-.29-.35-.58,0-.29.04-.29.04-.58,0-.29.26-.3.26-.59,0-.29-.39-.33-.39-.62,0-.29.34-.56.34-.57h-1.6s.17.37.17.66c0,.29-.2.29-.2.57,0,.29.22.29.22.58,0,.29-.27.28-.27.57,0,.29.46.2.46.49,0,.29-.16.38-.16.67,0,.29-.12.25-.12.54,0,.29.19.32.19.61,0,.29-.34.29-.34.58,0,.29.35.28.35.57,0,.29-.12.29-.12.58,0,.29-.15.29-.15.58,0,.29.41.26.41.55,0,.14-.08.22-.16.3-.08.08-.16.17-.16.24-.02.15.11.22.06.4-.01.04-.04.07-.06.09-.14.03-.29-.03-.35.02l1.15,1.11c.21-.21.07-.31.24-.53,0-.03.01-.06.02-.1.11-.4.21-.32.32-.73Z"/>
    <path d="M50.49,75.4c.2-.2-.03-.35.17-.56.2-.2.5-.15.7-.35.2-.2.13-.28.33-.48.2-.2.38-.04.59-.24.2-.2.11-.4.31-.6.2-.2-.21-.49,0-.69.2-.2.61.14.81-.06.2-.2.15-.36.35-.56.2-.2.39.13.6-.07.2-.2-.04-.45.16-.66.2-.2.23-.17.44-.38.2-.2.4-.03.6-.23.2-.2-.04-.51.16-.71.21-.21.63-.14.66-.17l-1.15-1.11s-.14.38-.34.58c-.2.2-.34.06-.55.26-.2.2-.05.36-.25.57-.2.2-.39.01-.59.22-.2.2.18.47-.02.67-.2.2-.38.15-.58.36-.2.2-.27.09-.47.3-.2.2-.09.36-.29.57-.2.2-.45-.03-.65.17-.2.2.05.45-.15.65-.2.2-.29.12-.49.33-.2.2-.31.1-.51.3-.2.2.1.47-.1.67-.2.2-.45,0-.66.2-.2.2-.09.31-.3.52-.2.2-.44.06-.6.22l1.13,1.13c.15-.15-.02-.28.19-.49.2-.2.29-.11.49-.32Z"/>
    <path d="M49.05,76.4c.13.04.27.02.4-.01.13-.03.25-.08.35-.18h0s-1.13-1.13-1.13-1.13h0c-.1.1-.18.22-.21.34-.03.13-.02.28.02.41,0,.03.02.06.03.1-.1.16-.05.2-.04.23.02.03.04.03.05.04.07.01.14,0,.21,0,.07,0,.14-.03.21-.05.01.01.12-.07.04.18-.03.08.05.04.07.07Z"/>
  </g>
  <g>
    <path d="M63.8,17.72c.04-.09.07-.22.08-.35,0-.13-.02-.27-.07-.4-.05-.14-.12-.25-.21-.34-.09-.09-.2-.19-.32-.22-.11-.03-.24,0-.35.05l.67,1.45c.08-.04.15-.1.2-.19Z"/>
    <path d="M58.34,20.94c.19-.11,0-.32.19-.43.19-.11.42.04.61-.07.19-.11.13-.2.32-.31.19-.11.32.1.5-.01.19-.11.12-.31.31-.42.19-.11-.12-.5.06-.61.19-.11.48.33.67.22.19-.11.15-.26.34-.38.19-.12.32.24.51.12.19-.12,0-.41.19-.53.18-.12.2-.08.38-.19.18-.11.32.1.5,0,.17-.1,0-.45.19-.55.18-.1.5.13.5.13l-.67-1.45s-.21.28-.41.39c-.2.11-.3-.06-.5.05-.2.12-.08.31-.27.42-.18.12-.33-.11-.51,0-.18.11.12.47-.06.58-.18.11-.32.01-.5.12-.18.11-.23,0-.41.1-.19.11-.11.29-.29.4-.19.11-.36-.18-.55-.07-.18.11,0,.41-.19.52-.19.11-.24,0-.43.12-.19.11-.26-.02-.45.09-.19.11.04.45-.15.56-.19.11-.37-.16-.55-.05-.19.11-.11.24-.29.35-.18.11-.37-.1-.51-.01l.81,1.38c.14-.08.01-.25.2-.36.19-.11.25,0,.43-.11Z"/>
    <path d="M57.07,21.33c.1.08.22.11.33.12.11.02.21.01.3-.04,0,0,0,0,0,0l-.82-1.38s0,0,0,0c-.09.05-.17.13-.2.23-.04.1-.04.24-.03.37.02.12.07.26.14.39.07.12.17.23.27.31Z"/>
  </g>
  <g>
    <path d="M47.66,76.84c.09-.07.17-.18.23-.3.05-.12.07-.26.07-.4,0-.14-.04-.28-.09-.39-.05-.12-.12-.25-.21-.32-.09-.07-.21-.09-.32-.09v1.6c.12,0,.23-.03.32-.1Z"/>
    <path d="M40.75,76.86c.23,0,.18-.27.41-.27.23,0,.37.25.6.25.23,0,.23-.11.46-.11.23,0,.24.25.47.25.23,0,.29-.21.52-.21.23,0,.16-.49.39-.49.23,0,.27.53.5.53.23,0,.29-.15.52-.15.23,0,.15.37.38.37.23,0,.23-.35.46-.35.23,0,.23.04.46.04.23,0,.24.26.47.26.23,0,.26-.39.49-.39.23,0,.45.34.46.34v-1.6s-.31.17-.54.17c-.23,0-.23-.2-.46-.2-.23,0-.23.22-.46.22-.23,0-.23-.27-.46-.27-.23,0-.16.46-.39.46-.23,0-.3-.16-.53-.16-.23,0-.2-.12-.43-.12-.23,0-.26.19-.49.19-.23,0-.24-.34-.47-.34-.23,0-.22.35-.45.35-.23,0-.23-.12-.46-.12-.23,0-.23-.15-.46-.15-.23,0-.21.41-.44.41-.23,0-.25-.33-.48-.33-.23,0-.23.16-.46.16-.23,0-.29-.27-.46-.27v1.6c.17,0,.15-.21.38-.21.23,0,.23.12.46.12Z"/>
    <path d="M33.33,76.86c.23,0,.18-.27.41-.27.23,0,.37.25.6.25.23,0,.23-.11.46-.11.23,0,.24.25.47.25.23,0,.29-.21.52-.21.23,0,.16-.49.39-.49.23,0,.26.53.49.53.23,0,.29-.15.52-.15.23,0,.15.37.38.37.23,0,.23-.35.47-.35.23,0,.23.04.46.04.23,0,.24.26.47.26.23,0,.26-.39.49-.39.23,0,.45.34.46.34v-1.6s-.3.17-.53.17c-.23,0-.23-.2-.46-.2-.23,0-.23.22-.46.22-.23,0-.23-.27-.46-.27-.23,0-.16.46-.39.46-.23,0-.3-.16-.53-.16-.23,0-.2-.12-.43-.12-.23,0-.26.19-.49.19-.23,0-.24-.34-.47-.34-.23,0-.22.35-.45.35-.23,0-.23-.12-.46-.12-.23,0-.23-.15-.46-.15-.23,0-.21.41-.44.41-.23,0-.25-.33-.48-.33-.23,0-.23.16-.46.16-.23,0-.29-.27-.46-.27v1.6c.17,0,.15-.21.38-.21.23,0,.23.12.46.12Z"/>
    <path d="M31.95,76.55c.05.12.14.21.24.28.09.07.19.12.3.12h0v-1.6h0c-.11,0-.22.03-.31.1-.09.07-.17.18-.22.3-.05.12-.08.26-.08.4,0,.14.03.29.08.4Z"/>
  </g>
  <g>
    <path d="M51.92,84.22c.1.05.22.09.36.09.13,0,.27-.03.4-.08.13-.05.24-.13.33-.22.09-.09.19-.2.22-.31.03-.11,0-.23-.04-.33l-1.47.63c.04.1.11.18.21.23Z"/>
    <path d="M48.97,78.3c.1.2.32.04.42.24.1.2-.07.43.03.63.1.2.2.16.3.36.1.2-.12.32-.01.52.1.2.31.15.42.35.1.2.5-.09.61.11.1.2-.35.47-.25.67.1.2.26.17.36.37.1.2-.26.3-.16.49.1.19.41.04.51.24.1.2.06.22.16.41.09.2-.13.32-.04.51.09.19.46.06.54.26.09.2-.15.52-.14.53l1.47-.63s-.27-.21-.36-.41c-.09-.21.09-.29-.01-.5-.1-.21-.3-.11-.4-.31-.1-.2.14-.32.04-.52-.1-.2-.48.07-.58-.13-.1-.2,0-.33-.1-.53-.1-.2.02-.23-.09-.43-.1-.2-.29-.13-.39-.33-.1-.2.2-.36.1-.55-.1-.19-.41-.03-.51-.22-.1-.2,0-.25-.1-.44-.1-.2.04-.26-.06-.46-.09-.19-.45,0-.55-.2-.1-.2.19-.36.09-.55-.1-.2-.24-.13-.34-.33-.1-.2.12-.36.05-.51l-1.45.68c.07.15.26.04.36.24.1.2-.01.25.09.45Z"/>
    <path d="M48.64,76.95c-.08.1-.12.22-.14.33-.02.11-.02.22.02.31,0,0,0,0,0,0l1.43-.72h0c-.05-.1-.12-.18-.22-.23-.1-.05-.24-.06-.37-.06-.13,0-.27.05-.4.11-.13.06-.24.15-.33.25Z"/>
  </g>
  <g>
    <path d="M17.37,16.75c-.11.02-.23.07-.33.15-.1.08-.19.19-.26.31-.07.12-.11.26-.13.38-.02.13-.03.27,0,.37.04.1.12.17.2.23l.81-1.38c-.09-.05-.2-.08-.3-.06Z"/>
    <path d="M22.81,19.98c-.18-.11-.28.15-.46.04-.18-.11-.17-.39-.35-.49-.18-.11-.24-.01-.42-.12-.18-.11-.07-.32-.25-.43-.18-.11-.33.05-.51-.06-.18-.11-.37.35-.55.24-.18-.11.06-.59-.13-.69-.18-.11-.3,0-.48-.11-.18-.1.07-.39-.1-.49-.17-.1-.36.19-.54.08-.18-.11-.15-.15-.33-.26-.18-.11-.05-.34-.23-.45-.18-.11-.41.2-.59.09-.18-.11-.18-.51-.19-.51l-.81,1.38s.32,0,.49.1c.18.11.07.28.25.39.18.11.29-.08.47.03.18.11.04.34.22.45.19.11.37-.31.55-.2.18.11.16.28.35.39.19.11.11.2.29.31.18.11.3-.05.48.06.18.11.02.41.2.51.18.11.35-.2.53-.09.18.11.12.21.31.31.18.11.11.24.29.35.18.11.37-.26.55-.15.18.11.04.4.22.51.18.11.26-.03.44.08.18.11.09.37.23.45l.81-1.38c-.14-.08-.23.11-.41,0-.18-.11-.12-.21-.3-.32Z"/>
    <path d="M23.75,20.89c.02-.13,0-.24-.05-.35-.04-.1-.09-.19-.18-.24h0s-.81,1.38-.81,1.38h0c.09.05.19.08.3.06.11-.02.23-.08.33-.16.1-.08.2-.18.27-.31.07-.12.12-.26.14-.39Z"/>
  </g>
  <g>
    <path d="M23.72,69.42c.04-.11.06-.24.04-.37-.01-.13-.07-.26-.14-.38-.07-.12-.17-.22-.28-.29-.11-.08-.23-.15-.34-.17-.11-.01-.22.03-.32.08l.82,1.37c.1-.06.17-.14.22-.25Z"/>
    <path d="M17.85,72.94c.2-.12.01-.32.21-.44.2-.12.44.03.64-.09.2-.12.14-.21.34-.33.2-.12.33.09.52-.03.2-.12.14-.32.33-.44.2-.12-.12-.5.08-.62.2-.12.5.32.69.21.2-.12.17-.27.36-.39.2-.12.32.24.51.13.2-.12.02-.42.22-.54.2-.12.22-.08.41-.2.2-.12.34.1.54-.02.2-.12.02-.46.22-.58.2-.12.56.07.57.06l-.82-1.37s-.17.29-.36.41c-.2.12-.3-.05-.49.06-.2.12-.08.31-.28.42-.2.12-.33-.11-.52,0-.2.12.1.48-.09.59-.2.12-.34.02-.53.13-.19.12-.24,0-.43.11-.2.12-.12.3-.31.41-.2.12-.38-.17-.57-.06-.2.12-.01.41-.21.53-.2.12-.26.02-.45.13-.2.12-.27-.01-.47.1-.2.12.03.45-.16.57-.2.12-.38-.15-.58-.03-.2.12-.12.25-.31.37-.2.11-.36-.13-.5-.06l.72,1.43c.18-.08.06-.26.29-.37.2-.12.26-.01.45-.13Z"/>
    <path d="M16.41,73.32c.09.09.22.13.34.15.12.02.25.02.36-.04h0s-.72-1.43-.72-1.43h0c-.08.04-.16.1-.2.2-.04.1-.06.23-.07.36,0,.13.02.28.07.41.05.14.12.26.21.34Z"/>
  </g>
  <g>
    <path d="M30.45,13.82c.1.05.23.08.36.08.13,0,.26-.04.4-.1.13-.06.24-.14.32-.24.09-.1.18-.2.21-.31.03-.11,0-.22-.04-.32l-1.46.66c.04.1.12.18.21.24Z"/>
    <path d="M27.73,7.79c.09.2.32.05.41.25.09.2-.08.42,0,.62.09.2.19.16.28.36.09.2-.13.31-.04.51.09.2.3.16.39.37.09.2.51-.06.6.14.09.2-.38.45-.29.65.09.2.25.19.34.39.09.2-.28.28-.19.48.09.2.41.06.5.26.09.2.05.22.14.42.09.2-.14.32-.05.52.09.2.45.07.55.27.09.2-.14.53-.13.54l1.46-.66s-.27-.19-.36-.39c-.09-.2.09-.28,0-.48-.09-.2-.29-.11-.38-.31-.09-.2.15-.31.06-.51-.09-.2-.48.05-.57-.15-.09-.2.03-.33-.06-.53-.09-.2.03-.23-.06-.43-.09-.2-.28-.15-.37-.35-.09-.2.22-.35.13-.55-.09-.2-.41-.05-.5-.25-.09-.2.02-.25-.07-.45-.09-.2.05-.26-.04-.46-.09-.2-.45-.01-.54-.22-.09-.2.2-.35.11-.56-.09-.2-.23-.14-.32-.34-.09-.2.13-.36.07-.51l-1.46.66c.07.15.25.05.34.25.09.2-.02.25.07.45Z"/>
    <path d="M27.47,6.46c-.09.1-.13.21-.16.32-.03.11-.03.22,0,.31,0,0,0,0,0,0l1.46-.66s0,0,0,0c-.04-.1-.11-.18-.21-.23-.1-.05-.23-.07-.36-.07-.13,0-.27.03-.4.09-.13.06-.25.14-.34.24Z"/>
  </g>
</svg>