<?xml version="1.0" encoding="UTF-8"?>
<svg id="_レイヤー_2" data-name="レイヤー_2" xmlns="http://www.w3.org/2000/svg" version="1.1" viewBox="0 0 80 90">
  <!-- Generator: Adobe Illustrator 30.0.0, SVG Export Plug-In . SVG Version: 2.1.1 Build 123)  -->
  <defs>
    <style>
      .st0 {
        fill: #ceb372;
      }

      .st1, .st2 {
        fill: none;
        stroke: #000;
        stroke-linecap: round;
        stroke-linejoin: round;
      }

      .st3 {
        fill: #fff;
      }

      .st2 {
        stroke-width: 1.5px;
      }
    </style>
  </defs>
  <path class="st3" d="M61.22,35.76c2.5,6.42,3.34,9.35,3.55,14.86.34,8.72.01,18.18-5.2,25.58-4.24,6.02-11.38,9.89-18.74,10.17-7.36.27-14.76-3.06-19.44-8.74-5.64-6.86-7.06-16.36-6.35-25.22,1.44-18.06,10.73-34.8,22.96-48.17.62-.68,1.45-1.42,2.34-1.2.48.12.85.49,1.2.85,3.69,3.91,3.32,2.82,11.35,14.37,3.53,5.07,4.38,7.43,4.8,8.29,1.26,2.6,2.17,4.88,2.79,6.61"/>
  <path class="st0" d="M17.7,69.9s2.18,5.19,4.45,7.78c2.27,2.59,7.96,6.43,9.86,7.26s7.39,1.45,7.39,1.45l.44-10.6-12.18-8.36c-.62-.5-1.42-.63-2.15-.37l-7.81,2.83Z"/>
  <path class="st0" d="M52.64,37.65l.09,28.67,10.06,3.27s1.83-5.75,2.09-8.88c.26-3.13-.65-15.93-.65-15.93l-3.3-10.41-8.29,3.29Z"/>
  <path class="st2" d="M61.22,35.76c2.5,6.42,3.34,9.35,3.55,14.86.34,8.72.01,18.18-5.2,25.58-4.24,6.02-11.38,9.89-18.74,10.17-7.36.27-14.76-3.06-19.44-8.74-5.64-6.86-7.06-16.36-6.35-25.22,1.44-18.06,10.73-34.8,22.96-48.17.62-.68,1.45-1.42,2.34-1.2.48.12.85.49,1.2.85,3.69,3.91,3.32,2.82,11.35,14.37,3.53,5.07,4.38,7.43,4.8,8.29,1.26,2.6,2.17,4.88,2.79,6.61"/>
  <path class="st1" d="M59.59,34.73c-2.45.93-3.78,1.46-6.22,2.4"/>
  <path class="st1" d="M54.22,66.81c2.7.94,4.87,1.68,7.6,2.57"/>
  <path class="st1" d="M30.26,31.38c-.96,1.69-1.87,3.41-2.91,5.04-.39.61-.48,1.17-.48,1.82,0,9.14,0,18.27,0,27.41l.02.71c2.92,2.17,5.87,4.35,8.82,6.52,1.26.93,2.5,1.88,3.78,2.78.27.19.63.18.89-.01,3.1-2.28,6.18-4.57,9.28-6.86,1.11-.82,2.26-1.61,3.32-2.49-.07-.36-.06-.73-.06-1.1,0-9.28,0-18.56,0-27.84-1.4-2.46-1.51-2.8-2.49-4.51-2.84-4.99-6.81-11.05-9.83-16.27-.42-.72-1.46-.73-1.88,0-1.92,3.35-6.3,10.98-8.47,14.8Z"/>
  <path class="st1" d="M39.89,4.17c.07,2.18.02,2.05.03,4.23,0,1.9,0,4.04,0,5.94"/>
  <path class="st1" d="M17.2,69.68c2.07-.7,4.13-1.42,6.21-2.12,1.16-.39,1.18-.4,2.35-.8"/>
  <path class="st1" d="M39.93,77.19c0,3.52,0,5.81,0,9.33"/>
  <path class="st1" d="M19.12,34.4c1.98.73,3.96,1.48,5.95,2.19.56.2,1.12.41,1.67.63"/>
</svg>