<?xml version="1.0" encoding="UTF-8"?>
<svg id="_レイヤー_1" xmlns="http://www.w3.org/2000/svg" version="1.1" viewBox="0 0 80 90">
  <!-- Generator: Adobe Illustrator 30.0.0, SVG Export Plug-In . SVG Version: 2.1.1 Build 123)  -->
  <defs>
    <style>
      .st0 {
        fill: none;
      }

      .st1 {
        fill: #ceb372;
      }

      .st2 {
        fill: #fff;
      }
    </style>
  </defs>
  <path class="st2" d="M39.54,83.97c-.86.02-1.4-.61-2.01-1.1-3.23-2.59-6.45-5.17-9.67-7.77-2.99-2.42-6.01-4.81-8.97-7.27-.98-.81-3.61-2.99-3.63-3.59-.03-.54-.18-1.11-.18-1.68,0-11.83,0-23.66,0-35.49,0-1.19.32-2.17,1.36-2.95,2.92-2.19,5.71-4.56,8.56-6.84,2.73-2.19,5.45-4.39,8.18-6.58,1.71-1.37,3.43-2.74,5.13-4.13.81-.67,1.71-.66,2.45-.04,2.11,1.75,4.27,3.46,6.4,5.18,3.22,2.6,16.88,14.19,16.88,14.19,0,0,.01,7.2.01,10.31,0,8.92-.01,27.96-.01,27.96,0,0-8.44,7.37-12,10.26-2.84,2.3-10.33,8.31-11.22,9.03-.35.29-.74.46-1.22.48"/>
  <polygon class="st1" points="24.08 59.69 38.98 70.99 39.49 84.08 16.63 65.59 24.08 59.69"/>
  <polygon class="st1" points="54.77 57.63 62.48 63.54 62.67 26.75 39.87 8.06 39.49 20.39 54.77 32.59 54.77 57.63"/>
  <g>
    <path d="M38.69,81.5c.09.17.22.31.37.41.15.09.32.13.5.13s.35-.06.49-.15c.15-.1.31-.21.4-.37.08-.16.11-.37.11-.57h-2c0,.2.04.4.12.56Z"/>
    <path d="M38.43,70.05c.15.15.46-.08.56.2.03.15-.06.29-.14.4-.08.08-.15.24-.15.44,0,.41.13.41.13.82,0,.41-.31.42-.31.82,0,.41.26.5.26.91,0,.41.61.28.61.69,0,.41-.67.46-.67.87,0,.41.19.51.19.91,0,.41-.46.26-.46.67,0,.41.44.41.44.82,0,.41-.05.41-.05.81,0,.41-.33.43-.33.84,0,.41.48.46.48.87,0,.41-.43.79-.43.81h2s-.21-.53-.21-.93c0-.41.25-.4.25-.81,0-.41-.28-.41-.28-.81,0-.41.33-.4.33-.8,0-.4-.57-.28-.57-.69,0-.4.2-.53.2-.94,0-.4.15-.36.15-.76,0-.41-.24-.45-.24-.86,0-.41.43-.41.43-.82,0-.41-.44-.4-.44-.8,0-.41.15-.41.15-.81,0-.41.19-.41.19-.81,0-.14-.06-.23-.14-.3-.08-.1-.18-.17-.25-.26-.07-.08-.12-.17-.13-.32-.07-.47.28-.71-.08-1.16-.4-.39-.62-.27-.91-.52-.32-.25-.18-.58-.42-.77l-1.25,1.56c.24.19.37-.04.69.22.16.13.21.22.27.31.03.07.04.13.13.2Z"/>
    <path d="M28.36,61.96c.32.26.46-.07.78.19.32.25.31.65.63.9.32.26.4.15.72.41.32.26.13.5.45.76.32.25.55.11.87.37.32.26.6-.3.92-.05.32.25-.05.81.26,1.07.32.25.51.17.83.43.32.25-.09.53.23.78.32.25.59-.08.91.17.32.25.28.3.6.55.32.25.13.52.45.78.32.25.66-.09.98.17.32.25.34.83.36.84l1.25-1.56s-.54-.17-.86-.42c-.32-.25-.16-.45-.48-.7-.32-.25-.49-.04-.81-.29-.32-.25-.1-.51-.42-.76-.32-.25-.58.27-.9.02-.32-.25-.29-.49-.61-.74-.32-.25-.18-.34-.5-.6-.32-.25-.5-.1-.82-.35-.32-.25-.06-.59-.37-.85-.32-.25-.58.09-.9-.16-.32-.25-.23-.37-.54-.62-.32-.25-.2-.4-.51-.66-.32-.25-.6.17-.92-.09-.32-.25-.09-.6-.41-.85-.32-.25-.44-.1-.75-.36-.32-.25-.19-.58-.42-.77l-1.25,1.56c.24.19.37-.04.69.22.32.26.22.37.54.63Z"/>
    <path d="M19.19,62.57c.32-.26.03-.46.35-.72.32-.26.7-.17,1.02-.43.32-.26.23-.36.55-.62.32-.26.52-.03.84-.29.32-.26.22-.52.54-.77.32-.26-.18-.64.14-.9.31-.25.84.18.97.07.18-.13.16-.39.4-.54.27-.07.19.51.34.58.11.09.23-.21.41-.19.03,0,.06.01.1.04.18.15.21.24.51.49.32.26.13.52.44.78.32.26.67-.08.99.18.32.26.34.83.36.85l1.25-1.56s-.53-.17-.84-.42c-.31-.25-.15-.45-.46-.7-.31-.25-.49-.04-.8-.3-.32-.26-.03-.46-.56-.89-.07-.05-.13-.09-.18-.11-.35-.13-.45.34-.79.11-.39-.23-.63-.46-1.09-.26-.44.25-.44.07-.9.44-.49.4-.32.57-.64.83-.31.26-.6-.06-.91.19-.31.26-.03.58-.34.84-.31.26-.41.14-.72.4-.31.26-.44.11-.75.37-.31.26.04.62-.27.88-.32.26-.61-.03-.92.22-.31.26-.19.4-.51.66-.31.26-.61.06-.85.25l1.28,1.54c.24-.19.04-.37.36-.63.32-.26.41-.14.73-.39Z"/>
    <path d="M17.05,63.81c.17.06.36.04.54,0,.18-.03.36-.1.51-.22h0s-1.28-1.54-1.28-1.54h0c-.15.12-.28.28-.35.44-.07.17-.09.36-.06.54.02.17.09.34.21.48.11.14.27.24.43.3Z"/>
  </g>
  <g>
    <path d="M38.82,84.74c.23-.02.44-.14.56-.28.12-.14.16-.32.17-.5,0-.18-.04-.34-.09-.49-.05-.15-.09-.32-.14-.42-.06-.1-.11-.16-.21-.22l-1.01,1.73c.21.13.5.21.72.18Z"/>
    <path d="M29.79,77.78c.29.23.44-.08.73.15.29.23.26.61.55.84.29.23.37.13.66.36.29.23.1.48.39.71.29.23.52.09.81.32.29.23.58-.32.87-.08.29.23-.09.79.2,1.02.29.23.47.14.76.38.29.23-.11.51.18.74.29.23.57-.1.86.13.29.23.25.27.54.51.29.23.1.5.39.73.28.23.6-.13.9.12.27.24.41.84.46.86l1.01-1.73s-.38,0-.67-.25c-.27-.23-.15-.46-.43-.68-.29-.23-.46-.02-.75-.25-.29-.23-.07-.49-.36-.72-.29-.23-.56.29-.85.06-.29-.23-.25-.46-.54-.69-.29-.23-.16-.32-.44-.55-.29-.23-.47-.07-.76-.3-.29-.23-.03-.57-.31-.8-.29-.23-.56.11-.84-.12-.29-.23-.2-.34-.48-.58-.29-.23-.17-.38-.46-.61-.29-.23-.58.19-.87-.04-.29-.23-.06-.57-.35-.8-.29-.23-.41-.08-.7-.31-.29-.23-.15-.55-.36-.73l-1.26,1.56c.22.17.35-.05.64.18.29.23.19.35.48.58Z"/>
    <path d="M20.5,70.28c.29.23.44-.08.73.15.29.23.26.61.55.84.29.23.37.13.66.36.29.23.1.48.39.71.29.23.52.09.81.32.29.23.59-.31.87-.08.29.23-.09.78.19,1.02.29.23.47.15.76.38.29.23-.11.51.18.74.29.23.57-.1.86.13.29.23.25.28.54.51.29.23.1.5.39.73.29.23.63-.11.92.12.29.23.29.78.3.8l1.26-1.56s-.5-.14-.79-.37c-.29-.23-.13-.42-.42-.66-.29-.23-.46-.02-.75-.25-.29-.23-.07-.49-.36-.72-.29-.23-.56.28-.85.05-.29-.23-.25-.46-.54-.69-.29-.23-.16-.32-.44-.55-.29-.23-.47-.07-.76-.3-.29-.23-.02-.57-.31-.8-.29-.23-.56.11-.84-.12-.29-.23-.2-.34-.48-.58-.29-.23-.17-.38-.45-.61-.29-.23-.58.18-.87-.05-.29-.23-.06-.57-.34-.8-.29-.23-.41-.08-.7-.31-.29-.23-.14-.55-.36-.72l-1.27,1.54c.22.17.35-.05.64.18.29.23.19.35.48.58Z"/>
    <path d="M14.18,60.37c0,.37.34.29.34.66,0,.37-.31.59-.31.96,0,.39.13.34.14.78.03.43-.26.48-.21.87.05.37.32.36.35.73.07.53.63.26.79.62.19.32-.17.87.15,1.14.29.23.48.14.76.38.29.23-.11.51.18.74.29.23.57-.1.86.13.29.23.25.27.54.51.29.23.1.5.38.73.29.23.64-.11.92.13.29.23.28.78.3.8l1.27-1.54s-.5-.14-.79-.37c-.29-.23-.13-.42-.41-.66-.29-.23-.47-.02-.75-.25-.29-.23-.07-.48-.36-.72-.29-.23-.57.28-.85.05-.29-.23-.25-.46-.54-.69-.29-.23-.16-.32-.44-.55-.24-.2-.41-.03-.52-.2-.04-.08.05-.16.14-.22.09-.09.2-.06.19-.27-.04-.46-.48-.38-.53-.75-.05-.35.09-.37.07-.67,0-.3.19-.35.19-.71,0-.37-.51-.33-.51-.7,0-.37.41-.41.41-.78,0-.37-.19-.37-.19-.74,0-.37.34-.46.34-.74h-2c0,.28.26.24.26.61,0,.37-.15.37-.15.74Z"/>
    <path d="M14.18,48.44c0,.37.34.29.34.66,0,.37-.31.59-.31.96,0,.37.13.37.13.74,0,.37-.31.38-.31.75,0,.37.26.46.26.83,0,.37.61.26.61.63,0,.37-.67.42-.67.79,0,.37.19.46.19.83,0,.37-.46.24-.46.61,0,.37.44.38.44.75,0,.37-.05.37-.05.74,0,.37-.33.39-.33.76,0,.37.48.42.48.79,0,.37-.43.71-.43.74h2s-.21-.48-.21-.85c0-.37.25-.37.25-.74,0-.37-.28-.37-.28-.74,0-.37.33-.36.33-.73,0-.37-.57-.26-.57-.63,0-.37.2-.49.2-.85,0-.37.15-.33.15-.69,0-.37-.24-.41-.24-.78,0-.37.43-.38.43-.75,0-.37-.44-.36-.44-.73,0-.37.14-.37.14-.74,0-.37.19-.37.19-.74,0-.37-.51-.33-.51-.7,0-.37.41-.41.41-.78,0-.37-.19-.37-.19-.74,0-.37.34-.46.34-.74h-2c0,.28.26.24.26.61,0,.37-.15.37-.15.74Z"/>
    <path d="M14.18,36.51c0,.37.34.29.34.66,0,.37-.31.59-.31.96,0,.37.13.37.13.74,0,.37-.31.38-.31.75,0,.37.26.46.26.83,0,.37.61.26.61.63,0,.37-.67.42-.67.79,0,.37.19.46.19.83,0,.37-.46.24-.46.61,0,.37.44.38.44.75,0,.37-.05.37-.05.74,0,.37-.33.39-.33.76,0,.37.48.42.48.79,0,.37-.43.71-.43.74h2s-.21-.48-.21-.85c0-.37.25-.37.25-.74,0-.37-.28-.37-.28-.74,0-.37.33-.36.33-.73,0-.37-.57-.26-.57-.63,0-.37.2-.49.2-.85,0-.37.15-.33.15-.69,0-.37-.24-.41-.24-.78,0-.37.43-.38.43-.75,0-.37-.44-.36-.44-.73,0-.37.14-.37.14-.74,0-.37.19-.37.19-.74,0-.37-.51-.33-.51-.7,0-.37.41-.41.41-.78,0-.37-.19-.37-.19-.74,0-.37.34-.46.34-.74h-2c0,.28.26.24.26.61,0,.37-.15.37-.15.74Z"/>
    <path d="M15.1,24.18c-.29.39.05.49-.16.87-.18.38-.56.55-.65,1.01-.07.44.07.45.06.87,0,.4-.31.39-.31.77,0,.37.26.46.26.83,0,.37.61.26.61.63,0,.37-.67.42-.67.79,0,.37.19.46.19.83,0,.37-.46.24-.46.61,0,.37.44.38.44.75,0,.37-.05.37-.05.74,0,.37-.33.39-.33.76,0,.37.48.42.48.79,0,.37-.43.71-.43.74h2s-.21-.48-.21-.85c0-.37.25-.37.25-.74,0-.37-.28-.37-.28-.74,0-.37.33-.36.33-.73,0-.37-.57-.26-.57-.63,0-.37.2-.49.2-.85,0-.37.15-.33.15-.69,0-.37-.24-.41-.24-.78,0-.37.43-.38.43-.75,0-.37-.44-.36-.44-.73,0-.36.14-.39.15-.72.01-.32.2-.31.24-.59.06-.26-.45-.37-.34-.68.13-.3.5-.12.65-.33.17-.21.02-.34.25-.55.23-.19.53,0,.74-.16l-1.2-1.6c-.23.18,0,.34-.34.61-.33.29-.44.17-.75.53Z"/>
    <path d="M24.49,16.54c-.29.23-.01.45-.3.68-.29.23-.65.12-.94.36-.29.23-.21.34-.49.57-.29.23-.49,0-.77.23-.29.23-.2.49-.49.72-.29.23.18.64-.11.87-.29.23-.74-.26-1.03-.03-.29.23-.24.43-.53.66-.29.23-.47-.22-.76.01-.29.23-.03.58-.32.81-.29.23-.32.19-.61.42-.29.23-.5-.02-.79.21-.29.23-.04.65-.33.88-.29.23-.82.1-.83.12l1.2,1.6s.25-.47.54-.7c.29-.23.44-.03.73-.26.29-.23.12-.45.41-.68.29-.23.49.04.78-.19.29-.23-.15-.62.14-.85.29-.23.5-.15.79-.38.29-.23.35-.08.64-.31.29-.23.17-.45.46-.68.29-.23.56.1.85-.13.29-.23.01-.57.3-.8.29-.23.38-.12.67-.35.29-.23.41-.08.7-.31.29-.23-.06-.61.23-.84.29-.23.57.06.86-.17.29-.23.17-.38.45-.61.29-.23.57-.02.79-.2l-1.25-1.56c-.22.17-.02.36-.31.59-.29.23-.38.11-.67.34Z"/>
    <path d="M33.79,9.07c-.29.23-.01.45-.3.68-.29.23-.65.13-.94.36-.29.23-.2.34-.49.57-.29.23-.49,0-.78.23-.29.23-.2.49-.48.72-.29.23.18.64-.11.87-.29.23-.75-.26-1.04-.02-.29.23-.24.43-.53.66-.29.23-.48-.21-.76.02-.29.23-.02.58-.31.81-.29.23-.32.19-.61.42-.29.23-.51,0-.8.22-.29.23-.03.64-.32.87-.29.23-.83.11-.84.13l1.25,1.56s.24-.46.53-.69c.29-.23.44-.04.73-.27.29-.23.12-.45.4-.68.29-.23.49.03.78-.2.29-.23-.16-.61.13-.84.29-.23.5-.15.79-.38.29-.23.35-.08.64-.32.29-.23.17-.45.46-.68.29-.23.56.1.85-.14.29-.23,0-.57.3-.8.29-.23.38-.12.67-.35.29-.23.41-.08.69-.32.29-.23-.06-.61.23-.84.29-.23.57.06.86-.17.29-.23.17-.38.45-.62.29-.23.57-.03.79-.2l-1.25-1.56c-.22.17-.02.36-.31.59-.29.23-.38.11-.67.34Z"/>
    <path d="M44.53,8.45c-.29-.23-.43.09-.72-.15-.29-.23-.27-.62-.56-.85-.29-.23-.37-.13-.66-.36-.29-.23-.11-.48-.4-.72-.29-.23-.51-.08-.8-.32-.29-.23-.59.29-.9.1-.33-.16-.24-.85-.77-.91-.52,0-.63.21-1.07.37-.43.21-.49-.29-.97.04-.34.27-.03.59-.33.83-.29.23-.32.19-.61.42-.29.23-.51,0-.8.22-.29.23-.03.64-.32.87-.29.23-.83.11-.84.13l1.25,1.56s.24-.46.53-.69c.29-.23.44-.04.73-.27.29-.23.12-.45.4-.68.29-.23.49.03.78-.2.29-.23-.16-.61.13-.84.24-.18.39-.04.6-.13.23-.07.22.1.43.1.2.03.29-.21.52-.09.11.06.11.2.08.32,0,.13.01.29.15.4.29.23.54-.12.83.11.29.23.2.35.48.58.29.23.17.38.46.61.29.23.57-.19.85.04.29.23.07.58.35.81.29.23.41.08.69.31.29.23.15.55.36.73l1.24-1.57c-.22-.18-.35.05-.64-.18-.29-.23-.19-.35-.48-.59Z"/>
    <path d="M53.73,16.08c-.28-.24-.44.08-.72-.16-.28-.24-.25-.62-.54-.86-.28-.24-.37-.13-.65-.37-.28-.24-.1-.48-.38-.72-.28-.24-.52-.09-.8-.33-.28-.24-.58.31-.87.07-.28-.24.1-.79-.19-1.03-.28-.24-.47-.15-.75-.39-.28-.24.11-.51-.17-.75-.28-.24-.56.1-.85-.14-.28-.24-.25-.28-.54-.51-.29-.23-.1-.5-.39-.73-.29-.23-.63.11-.92-.12-.29-.23-.29-.79-.31-.8l-1.24,1.57s.5.14.78.37c.29.23.13.43.42.66.29.23.46.02.75.25.29.23.07.49.36.72.28.24.56-.28.84-.04.28.24.25.47.53.7.28.24.15.33.43.56.28.24.47.08.75.32.28.24.02.57.3.81.28.24.55-.11.84.13.28.24.19.35.47.59.28.24.16.38.45.62.28.24.58-.18.86.06.28.24.05.58.33.81.28.24.41.09.69.33.28.24.14.56.35.74l1.27-1.54c-.21-.18-.35.05-.64-.19-.28-.24-.18-.36-.47-.6Z"/>
    <path d="M62.87,23.77c-.28-.24-.44.07-.73-.17-.28-.24-.25-.62-.53-.85-.28-.24-.37-.14-.66-.37-.28-.24-.09-.48-.38-.72-.28-.24-.52-.1-.8-.34-.28-.24-.59.3-.87.07-.28-.24.1-.78-.18-1.02-.28-.24-.47-.15-.75-.39-.28-.24.11-.51-.17-.75-.28-.24-.57.09-.85-.15-.28-.24-.25-.28-.53-.52-.28-.24-.09-.5-.37-.74-.28-.24-.63.1-.91-.14-.28-.24-.27-.79-.29-.81l-1.27,1.54s.5.15.78.39c.28.24.12.43.4.67.28.24.46.03.74.26.28.24.07.49.35.73.28.24.56-.28.85-.04.28.24.24.47.53.7.28.24.15.33.43.56.28.24.47.08.75.32.28.24.02.57.3.81.28.24.56-.1.84.13.28.24.19.35.47.59.28.24.16.38.44.62.28.24.58-.17.87.06.28.24.05.57.33.81.28.24.41.09.69.33.28.24.13.55.35.73l1.29-1.53c-.21-.18-.35.05-.64-.19-.28-.24-.18-.35-.47-.59Z"/>
    <path d="M64.93,37.6c0-.38-.34-.3-.34-.67,0-.38.31-.6.31-.98,0-.38-.14-.38-.14-.76,0-.38.31-.39.31-.76,0-.38-.26-.47-.26-.84,0-.38-.61-.26-.61-.64,0-.38.67-.43.67-.81,0-.38-.19-.47-.19-.84,0-.38.46-.24.46-.62,0-.38-.44-.38-.44-.76,0-.38.05-.38.05-.75,0-.38.33-.4.32-.77,0-.38-.48-.43-.48-.81,0-.38.43-.73.43-.75h-2s.21.49.21.87c0,.38-.25.37-.25.75,0,.38.28.38.28.75,0,.38-.33.37-.33.75,0,.38.57.26.58.64,0,.38-.2.49-.2.87,0,.37-.15.33-.15.71,0,.38.24.42.24.8,0,.38-.43.38-.43.76,0,.38.44.37.44.74,0,.38-.14.38-.14.75,0,.38-.19.38-.19.75,0,.38.51.34.51.72,0,.38-.41.41-.41.79,0,.38.19.38.19.75,0,.38-.34.47-.34.75h2c0-.28-.26-.25-.26-.62,0-.38.15-.37.15-.75Z"/>
    <path d="M64.93,49.75c0-.38-.34-.3-.34-.67,0-.38.31-.6.31-.98,0-.38-.13-.38-.13-.76,0-.38.31-.39.31-.76,0-.38-.26-.47-.26-.84,0-.38-.61-.26-.61-.64,0-.38.67-.43.67-.81,0-.38-.19-.47-.19-.84,0-.38.46-.24.46-.62,0-.38-.44-.38-.44-.76,0-.38.05-.38.05-.75,0-.38.33-.4.33-.77,0-.38-.48-.43-.48-.81,0-.38.43-.73.43-.75h-2s.21.49.21.86c0,.38-.25.37-.25.75,0,.38.28.38.28.76,0,.38-.33.37-.33.75,0,.38.57.26.57.64,0,.38-.2.49-.2.87,0,.37-.15.33-.15.71,0,.38.24.42.24.8,0,.38-.43.38-.43.76,0,.38.44.37.44.74,0,.38-.14.38-.15.75,0,.38-.19.38-.19.75,0,.38.51.34.51.72,0,.38-.41.41-.41.79,0,.38.19.38.19.75,0,.38-.34.47-.34.75h2c0-.28-.26-.24-.26-.62,0-.38.15-.37.15-.75Z"/>
    <path d="M64.92,61.9c0-.38-.34-.3-.34-.67,0-.38.31-.6.31-.98,0-.38-.13-.38-.13-.76,0-.38.31-.39.31-.76,0-.38-.26-.47-.26-.84,0-.38-.61-.26-.61-.64,0-.38.67-.43.67-.81,0-.38-.19-.47-.19-.84,0-.38.46-.24.46-.62,0-.38-.44-.38-.44-.76,0-.38.05-.38.05-.75,0-.38.33-.4.33-.77,0-.38-.48-.43-.48-.81,0-.38.43-.73.43-.75h-2s.21.49.21.86c0,.38-.25.37-.25.75,0,.38.28.38.28.76,0,.38-.33.37-.33.75,0,.38.57.26.57.64,0,.38-.2.49-.2.87,0,.37-.15.33-.15.71,0,.38.24.42.24.8,0,.38-.43.38-.43.76,0,.38.44.37.44.74,0,.38-.14.38-.15.75,0,.38-.19.38-.19.75,0,.38.51.34.51.72,0,.38-.41.41-.41.79,0,.38.19.38.19.75,0,.38-.34.47-.34.75h2c0-.28-.26-.24-.26-.62,0-.38.15-.37.15-.75Z"/>
    <path d="M54,73.93c.35-.3.06-.5.4-.79.35-.3.75-.23,1.1-.53.35-.3.26-.4.61-.7.35-.3.55-.07.9-.37.35-.3.26-.57.61-.86.35-.3-.15-.67.19-.97.35-.3.83.17,1.17-.12.35-.3.31-.51.66-.81.35-.3.52.16.87-.13.35-.3.07-.63.42-.93.35-.3.38-.26.73-.55.35-.3.58-.07.93-.36.35-.3.08-.7.43-1,.35-.3.95-.25.97-.27l-1.31-1.51s-.31.54-.66.83c-.35.3-.51.11-.85.4-.35.3-.17.51-.51.8-.35.3-.56.04-.9.33-.34.29.13.64-.21.94-.34.29-.58.24-.93.53-.34.29-.4.14-.75.44-.35.3-.23.51-.58.81-.35.3-.63-.02-.97.27-.35.29-.06.62-.4.92-.35.3-.44.18-.78.48-.35.3-.47.15-.81.44-.35.3.01.66-.33.95-.35.3-.64,0-.98.31-.35.3-.22.45-.57.74-.35.3-.64.11-.9.33l1.26,1.55c.26-.22.06-.4.41-.7.35-.3.44-.17.79-.47Z"/>
    <path d="M42.59,83.19c.36-.29.06-.49.42-.77.36-.29.76-.21,1.12-.5.36-.29.27-.39.63-.68.36-.29.56-.06.91-.34.36-.29.28-.56.63-.84.36-.29-.14-.67.21-.96.35-.29.83.19,1.18-.09.35-.29.32-.5.68-.78.36-.29.52.18.88-.11.36-.29.09-.63.44-.92.36-.29.39-.24.75-.53.35-.29.58-.05.93-.33.36-.29.1-.7.46-.99.36-.28.96-.22.97-.24l-1.26-1.55s-.32.53-.68.82c-.35.29-.51.09-.86.38-.36.29-.18.5-.54.79-.35.29-.56.02-.91.31-.35.29.12.64-.24.93-.35.28-.59.22-.95.51-.35.28-.41.13-.76.42-.35.29-.24.51-.6.79-.35.29-.63-.04-.99.25-.35.29-.07.62-.42.9-.35.29-.45.17-.8.46-.35.29-.47.14-.83.42-.35.29,0,.65-.35.94-.35.29-.65,0-1,.28-.35.29-.23.44-.59.72-.34.27-.69.12-.89.28l1.2,1.6c.33-.26.08-.4.46-.7.36-.29.45-.16.81-.45Z"/>
    <path d="M39.82,84.44c.15.13.41.2.69.18.27,0,.57-.1.82-.29h0s-1.2-1.6-1.2-1.6h0c-.1.08-.18.16-.24.27-.06.11-.13.27-.19.43-.06.15-.11.33-.1.51,0,.18.08.36.22.49Z"/>
    <g>
      <path d="M64.9,26.63h0s0-.03,0-.03v-.03s0-.06,0-.06v-.03s0-.03,0-.03h0s0-.03,0-.03h0s0-.03,0-.03h-.01s-.01-.02-.01-.02l-.04-.02-.1-.03-.11-.03-.04-.02h-.02s-.02-.02-.02-.02h-.01s0-.03,0-.03c0,0,0,0,0-.01,0,0,0,0,0-.01v-.03s0-.03,0-.03v-.03s0-.02,0-.02c0,0,0-.02,0-.02,0,0,0-.01,0-.01h0s-.01-.03-.01-.03h-.02s-.04-.03-.04-.03l-.04-.02-.08-.03-.08-.03s-.05-.02-.08-.03l-.05-.02v-.02s0-.02,0-.02l-.02-.03-.02-.03-.02-.03-.02-.03v-.02s-.01-.02-.01-.02v-.02s0-.02,0-.02v-.02s.01-.02.01-.02l.02-.05.05-.1.05-.1.02-.04v-.02s0-.02,0-.02v-.07s-.02-.07-.02-.07c-.01-.05-.03-.1-.04-.14,0,0,0-.01,0-.01h0s0-.02,0-.02h-.01s-.01,0-.01,0h-.01s-.03,0-.03,0h-.03s-.03,0-.03,0h-.01s-.01,0-.01,0h0s0-.02,0-.02h0s0-.01,0-.01v-.02s0-.02,0-.02v-.02s.02-.07.03-.11v-.06s.02-.05.02-.05v-.02s0-.02,0-.02v-.02s0,0,0,0h0s-.65.76-.65.76l-.32.38-.32.38h.01s.01.01.01.01h.02s.02,0,.02,0h0s0,.01,0,.01h0s0,0,0,0h0s.01,0,.01,0h.01s.04,0,.06-.01h.03s.01,0,.01,0h.01s.01.01.01.01c0,0,0,0,0,.01v.02s.01.02.01.02c0,.01,0,.03.01.06,0,.02.01.05.02.07,0,.03,0,.05.01.07v.02s0,0,0,0h0s0,0,0,0h0s0,0,0,0h0s0,0,0,0h0s0,0,0,0c.01,0,.03,0,.04.01h.03s.02.03.02.03h.02s.01.03.01.03h.01s0,.03,0,.03h0s0,.03,0,.03v.05s0,.01,0,.01h0s0,.02,0,.02h0s0,.02,0,.02h0s0,0,0,0h0s0,.02,0,.02l-.02.02-.03.02-.05.04h0s0,.02,0,.02h0s0,.01,0,.01h0s0,.01,0,.01h0s0,.03,0,.03c0,.02,0,.04,0,.05h.5s.5,0,.5,0h1s0-.01,0-.01h0s-.01-.04-.01-.04l-.04-.05-.05-.05-.02-.03v-.03Z"/>
      <polygon class="st0" points="62.03 26.84 64.62 23.79 66.03 24.99 66.03 26.83 62.03 26.84"/>
    </g>
    <g>
      <path d="M64.06,65.29h0s0-.02,0-.02l.02-.02.05-.03.02-.02.02-.02h0s0-.02,0-.02h0s0-.03,0-.03v-.02s0-.02,0-.02v-.04s-.05-.1-.05-.1l-.04-.1v-.05s-.02-.02-.02-.02v-.02s0-.02,0-.02c0,0,0,0,0-.01h0s0-.02.01-.02l.02-.02.03-.02.03-.02h.01s.01-.02.01-.02c0,0,0-.01,0-.01,0,0,0-.01,0-.01v-.02s0-.02,0-.02v-.04s-.02-.04-.02-.04l-.03-.08-.03-.08s-.02-.06-.03-.09l-.02-.05h.01s0-.03,0-.03v-.03s.02-.03.02-.03v-.03s.02-.03.02-.03v-.02s.02-.01.02-.01h.01s.02-.02.02-.02h.02s.02-.02.02-.02l.05-.02.11-.02.11-.03.04-.02h.02s.01-.02.01-.02l.05-.05.05-.06s.06-.08.08-.11h0s0-.02,0-.02h0s0-.02,0-.02h0s0-.02,0-.02l-.02-.02-.02-.02-.02-.02h0s0-.02,0-.02h0s0-.02,0-.02h0s0-.01,0-.01h.01s.04-.04.04-.04c.03-.02.07-.03.1-.05l.05-.03.05-.03h.02s.01-.03.01-.03h0s0-.02,0-.02h0s-1,0-1,0h-.5s-.5,0-.5,0h0s0,.02,0,.02v.02s.02.02.02.02h0s0,.02,0,.02h0s0,0,0,0h0s0,.02,0,.02h0s.05.04.05.04l.02.02h0s0,.02,0,.02h0s0,.02,0,.03v.02s-.02.02-.02.02c0,.01-.02.03-.04.04l-.04.06-.05.06h-.01s0,.02,0,.02h0s0,0,0,0h0s0,0,0,0h0s0,0,0,0h0s0,0,0,0c0,.01.01.03.02.04v.03s.02.03.02.03v.02s0,.02,0,.02v.02s0,.01,0,.01h0s0,.02,0,.02l-.03.03h0s0,.02,0,.02h0s0,.02,0,.02h0s0,.01,0,.01h0s0,0,0,0h-.01s-.03,0-.03,0h-.03s-.06-.02-.06-.02h-.01s-.01,0-.01,0h0s0,0,0,0h0s0,.01,0,.01h0s-.02.02-.02.02l-.04.03.33.38.33.38.66.75h0s0-.02,0-.02v-.03s.02-.06.02-.06v-.07s.02-.03.02-.03v-.03Z"/>
      <polygon class="st0" points="62.03 63.27 66.03 63.27 66.03 65.09 64.65 66.28 62.03 63.27"/>
    </g>
  </g>
  <g>
    <path d="M61.78,28.25c.06-.16.08-.35.05-.52-.03-.17-.11-.33-.22-.47-.11-.14-.26-.24-.41-.3-.16-.06-.34-.12-.51-.1-.17.03-.33.12-.47.23l1.25,1.56c.14-.11.25-.26.31-.41Z"/>
    <path d="M52.04,31.51c.28.23.44-.08.73.15.14.12.2.27.27.42.03.08.06.14.11.23.07.09.15.18.25.27.42.33.47.23.86.47.38.21.39.57.91.5.46-.15.5-.5.88-.79h.01c.41-.34-.03-.77.26-1.01.28-.23.75.25,1.04.02.28-.23.23-.43.52-.66.28-.23.48.21.76-.02.28-.23.01-.57.3-.8.28-.23.32-.19.6-.42.28-.23.51.01.79-.22.28-.23.02-.64.3-.87.28-.23.82-.11.83-.12l-1.25-1.56s-.24.46-.52.69c-.28.23-.44.04-.73.27-.29.23-.11.45-.4.68-.28.23-.49-.03-.78.2-.28.23.17.6-.12.83-.28.23-.5.15-.78.38-.28.23-.35.09-.63.31-.29.23-.16.44-.45.67-.21.17-.38-.12-.51-.12-.02,0-.03,0-.05.02-.13.09,0,.6-.24.73-.25.05-.24-.19-.41-.32-.18-.14-.11-.33-.24-.44-.12-.09-.5.25-.77.03-.28-.23-.05-.57-.33-.8-.28-.23-.41-.08-.69-.31-.28-.23-.14-.55-.35-.72l-1.28,1.54c.21.17.35-.05.64.18.29.23.18.35.47.58Z"/>
    <path d="M42.89,24.13c.29.23.43-.09.72.14.29.23.26.6.55.83.29.23.37.12.66.35.29.23.1.47.39.7.29.23.52.08.8.31.29.23.58-.32.87-.09.28.23-.1.78.19,1.01.28.23.47.14.75.37.28.23-.11.51.17.74.28.23.56-.1.85.13.28.23.25.27.53.5.28.23.09.49.38.72.28.23.63-.11.91.12.28.23.27.77.29.79l1.28-1.54s-.5-.14-.78-.37c-.28-.23-.12-.42-.41-.65-.28-.23-.46-.02-.75-.25-.28-.23-.07-.48-.35-.71-.28-.23-.56.28-.85.05-.28-.23-.25-.46-.53-.69-.28-.23-.15-.32-.44-.55-.28-.23-.47-.07-.75-.3-.29-.23-.02-.57-.31-.79-.29-.23-.55.12-.84-.11-.29-.23-.2-.34-.48-.57-.29-.23-.17-.38-.45-.6-.29-.23-.57.19-.86-.04-.29-.23-.06-.57-.35-.8-.29-.23-.41-.08-.69-.3-.29-.23-.15-.55-.36-.72l-1.24,1.57c.21.17.35-.06.64.17.29.23.19.35.47.58Z"/>
    <path d="M34.74,25.27c.29-.23.01-.44.3-.67.29-.23.65-.12.93-.35.29-.23.2-.33.49-.56.29-.23.48,0,.77-.23.29-.23.19-.49.48-.72.29-.23-.19-.64.1-.87.28-.23.74.26,1.03.03.07-.06.12-.11.16-.16.19-.22.2-.4.37-.55.1-.09.19,0,.26.09.07.09.12.21.01.23-.31.02-.21-.54,0-.35.17.17.21.3.48.53,0,0,.04.03.08.07.29.23.1.5.39.72.29.23.62-.12.91.11.29.23.29.78.3.79l1.24-1.57s-.5-.13-.78-.36c-.29-.23-.13-.42-.42-.65-.29-.23-.46-.01-.74-.24-.02-.02-.04-.03-.05-.05-.14-.17.15-.3-.18-.64-.21-.21-.46-.19-.64-.12-.19.07-.35.13-.69.13-.62.07-.89.14-1.2.41-.19.18-.26.15-.35.17-.06.02-.12.05-.21.12-.28.23-.17.44-.45.67-.28.23-.56-.1-.84.13-.28.23,0,.56-.29.79-.28.23-.38.12-.66.34-.28.23-.4.08-.69.31-.28.23.06.6-.22.83-.28.23-.57-.07-.85.16-.28.23-.16.38-.45.61-.28.23-.56.02-.78.19l1.25,1.56c.21-.17.02-.35.31-.58.29-.23.38-.11.67-.34Z"/>
    <path d="M25.56,32.66c.29-.23,0-.44.29-.68.28-.23.65-.12.93-.35.28-.23.2-.34.49-.57.28-.23.48,0,.77-.23.28-.23.19-.49.47-.72.28-.23-.19-.64.1-.87.28-.23.74.26,1.03.03.28-.23.24-.43.52-.66.29-.23.47.22.76-.01.29-.23.02-.57.3-.8.29-.23.32-.19.6-.42.29-.23.5.01.79-.22.29-.23.02-.64.31-.87.29-.23.82-.11.84-.12l-1.25-1.56s-.24.46-.52.69c-.28.23-.44.03-.72.26-.29.23-.11.45-.4.68-.28.23-.49-.03-.77.19-.28.23.16.61-.12.84-.28.23-.5.14-.78.37-.28.23-.35.08-.63.31-.28.23-.17.44-.45.67-.28.23-.56-.1-.84.13-.28.23,0,.57-.29.8-.28.23-.37.12-.66.35-.28.23-.4.08-.69.31-.28.23.06.6-.22.83-.28.23-.57-.06-.85.16-.23.19-.23.38-.47.62-.02.02-.06.05-.1.09-.34.3-.75.26-.8.66l1.96.67c0-.13-.26-.25-.08-.4.05-.04.09-.06.13-.07.06-.02.11-.02.16-.02.05,0,.09-.01.21-.11Z"/>
    <path d="M25.04,43.38c0-.37-.34-.29-.34-.65s.31-.58.31-.95-.13-.37-.13-.73.31-.38.31-.74-.26-.45-.26-.82-.61-.25-.61-.62.67-.42.67-.78-.19-.45-.19-.82.46-.23.46-.6-.44-.37-.44-.74.05-.37.05-.73.33-.39.33-.75-.48-.42-.48-.78c0-.32.43-.38.43-.38l-1.96-.67s.15.79.17,1.17c0,.37-.25.36-.25.73s.28.37.28.73-.33.36-.33.72.57.25.57.62-.2.48-.2.84-.15.32-.15.69.24.41.24.77-.43.37-.43.74.44.36.44.72-.14.37-.14.73-.19.37-.19.73.51.33.51.7-.41.4-.41.77.19.37.19.73-.34.45-.34.73h2c0-.27-.26-.24-.26-.61s.15-.36.15-.73Z"/>
    <path d="M25.04,55.17c0-.37-.34-.29-.34-.65s.31-.58.31-.95-.13-.37-.13-.73.31-.38.31-.74-.26-.45-.26-.82-.61-.25-.61-.62.67-.42.67-.78-.19-.45-.19-.82.46-.23.46-.6-.44-.37-.44-.74.05-.37.05-.73.33-.39.33-.75-.48-.42-.48-.78.43-.71.43-.73h-2s.21.47.21.84-.25.36-.25.73.28.37.28.73-.33.36-.33.72.57.25.57.62-.2.48-.2.84-.15.32-.15.69.24.41.24.77-.43.37-.43.74.44.36.44.72-.14.37-.14.73-.19.37-.19.73.51.33.51.7-.41.4-.41.77.19.37.19.73-.34.45-.34.73h2c0-.27-.26-.24-.26-.61s.15-.36.15-.73Z"/>
    <path d="M24.66,57.36c.15-.08.26-.23.34-.37.08-.14.15-.3.15-.48h0s-2,0-2,0h0c0,.18.04.35.12.5.09.15.23.27.38.35.15.08.32.13.5.13s.36-.05.5-.13Z"/>
  </g>
  <g>
    <path d="M55.78,33.1c-.09-.14-.22-.27-.37-.36-.15-.08-.32-.11-.5-.11s-.35.05-.49.13c-.15.08-.31.18-.4.33-.08.14-.11.32-.11.5h2c0-.17-.04-.35-.12-.49Z"/>
    <path d="M55.8,43.76c0-.36-.34-.28-.34-.64s.31-.57.31-.92-.13-.36-.13-.71.31-.37.31-.72-.26-.44-.26-.8-.61-.25-.61-.6.67-.41.67-.76-.19-.44-.19-.8.46-.23.46-.58-.44-.36-.44-.72.05-.36.05-.71.33-.38.33-.73-.48-.41-.48-.76.43-.69.43-.71h-2s.21.46.21.82-.25.35-.25.71.28.36.28.71-.33.35-.33.7.57.25.57.6-.2.47-.2.82-.15.31-.15.67.24.4.24.75-.43.36-.43.72.44.35.44.7-.14.36-.14.71-.19.36-.19.71.51.32.51.68-.41.39-.41.75.19.36.19.71-.34.44-.34.71h2c0-.27-.26-.23-.26-.59s.15-.35.15-.71Z"/>
    <path d="M55.8,55.23c0-.36-.34-.28-.34-.64s.31-.57.31-.92-.13-.36-.13-.71.31-.37.31-.72-.26-.44-.26-.8-.61-.25-.61-.6.67-.41.67-.76-.19-.44-.19-.8.46-.23.46-.58-.44-.36-.44-.72.05-.36.05-.71.33-.38.33-.73-.48-.41-.48-.76.43-.69.43-.71h-2s.21.46.21.82-.25.35-.25.71.28.36.28.71-.33.35-.33.7.57.25.57.6-.2.47-.2.82-.15.31-.15.67.24.4.24.75-.43.36-.43.72.44.35.44.7-.14.36-.14.71-.19.36-.19.71.51.32.51.68-.41.39-.41.75.19.36.19.71-.34.44-.34.71h2c0-.27-.26-.23-.26-.59s.15-.35.15-.71Z"/>
    <path d="M55.41,57.36c.15-.08.26-.22.34-.36.08-.14.15-.29.15-.47h0s-2,0-2,0h0c0,.17.04.35.12.48.09.14.23.26.38.35.15.08.32.13.5.13s.36-.05.5-.12Z"/>
  </g>
  <g>
    <path d="M62.74,64.78c.24.03.47-.02.64-.12.16-.1.25-.25.31-.42.05-.17.05-.35.02-.51-.03-.17-.05-.35-.12-.49-.07-.13-.2-.25-.34-.35l-1.18,1.61c.2.15.45.26.68.29Z"/>
    <path d="M53.16,59.95c.32-.26.11-.52.43-.79.33-.27.63-.12.95-.37.19-.13.17-.36.46-.34.14.04.18.18.21.3.02.06.02.11.05.18.04.07.1.14.18.21.32.26.49.07.82.33.33.27.46-.41.8-.14.34.28.1.94.43,1.21.33.26.49.16.82.43.33.27-.02.58.3.84.32.26.56-.11.89.16.33.27.3.31.63.58.33.27.15.54.47.8.31.25.66-.08,1,.22.32.29.43.91.46.93l1.18-1.61s-.51-.13-.84-.43c-.33-.29-.19-.49-.55-.79-.36-.29-.53-.07-.88-.36-.35-.29-.16-.55-.52-.84-.36-.29-.56.28-.91,0-.35-.28-.36-.55-.72-.83-.35-.28-.24-.39-.6-.68-.36-.29-.5-.1-.85-.38-.35-.28-.2-.7-.56-.99-.36-.29-.5.14-.86-.14-.16-.14-.26-.26-.38-.36-.11-.1-.23-.22-.51-.27-.29-.04-.43-.02-.58-.03-.14,0-.29.01-.54.17-.37.3-.16.76-.51,1.05-.35.28-.55-.07-.91.22-.36.29-.28.47-.63.76-.36.29-.62.07-.9.29l1.07,1.7c.24-.19.07-.39.39-.66.32-.26.39-.12.71-.38Z"/>
    <path d="M42.31,68.7c.34-.28.05-.48.39-.76.34-.28.73-.2,1.07-.47.34-.28.26-.38.6-.66.34-.28.54-.04.89-.32.34-.28.26-.54.61-.82.34-.28-.14-.67.2-.94.34-.27.81.21,1.15-.07.34-.27.31-.49.65-.76.34-.28.51.19.85-.09.34-.28.08-.62.42-.9.34-.28.38-.23.72-.51.34-.28.57-.04.91-.31.35-.28.08-.68.41-.95.33-.27.86-.15.88-.16l-1.07-1.7s-.36.55-.72.84c-.36.29-.52.1-.86.37-.34.27-.17.49-.51.77-.34.27-.54.01-.89.28-.34.27.12.64-.22.91-.34.27-.57.21-.92.48-.34.27-.4.12-.74.4-.34.27-.23.49-.57.77-.34.27-.62-.05-.96.22-.34.27-.06.61-.4.88-.34.27-.43.16-.77.44-.34.28-.46.13-.8.41-.34.28.01.65-.33.92-.34.28-.63-.01-.97.27-.34.28-.22.43-.56.71-.34.28-.64.09-.9.3l1.28,1.53c.25-.21.05-.38.39-.66.34-.28.44-.15.78-.43Z"/>
    <path d="M39.94,70.08c.12.08.35.07.54,0,.06-.03.1-.04.13-.04.19-.04.38-.11.54-.25h0s-1.28-1.53-1.28-1.53h0c-.16.13-.31.3-.39.47-.02.03-.01.05,0,.06-.01.13,0,.26-.03.41-.06.2-.01.41.12.53.13.12.26.24.38.35Z"/>
  </g>
  <g>
    <path d="M40.43,6.66c-.09-.15-.22-.29-.37-.38-.15-.09-.32-.12-.5-.12s-.35.06-.49.14c-.15.09-.31.19-.4.34-.08.15-.11.34-.11.52h2c0-.18-.04-.37-.12-.52Z"/>
    <path d="M40.45,17.94c0-.38-.34-.3-.34-.67s.31-.6.31-.98-.13-.38-.13-.76.31-.39.31-.76-.26-.47-.26-.84-.61-.26-.61-.64.67-.43.67-.81-.19-.47-.19-.84.46-.24.46-.62-.44-.38-.44-.76.05-.38.05-.75.33-.4.33-.77-.48-.43-.48-.81.43-.73.43-.75h-2s.21.49.21.86-.25.37-.25.75.28.38.28.75-.33.37-.33.75.57.26.57.64-.2.49-.2.87-.15.33-.15.71.24.42.24.8-.43.38-.43.76.44.37.44.74-.14.38-.14.75-.19.38-.19.75.51.34.51.72-.41.41-.41.79.19.38.19.75-.34.47-.34.75h2c0-.28-.26-.25-.26-.62s.15-.37.15-.75Z"/>
    <path d="M40.07,20.2c.15-.09.26-.24.34-.39.08-.15.15-.31.15-.49h0s-2,0-2,0h0c0,.18.04.37.12.51.09.15.23.28.38.37.15.08.32.13.5.13s.36-.05.5-.13Z"/>
  </g>
  <g>
    <path d="M23.39,33.11c.13-.01.28-.07.41-.16.13-.09.25-.22.35-.37.1-.15.17-.31.21-.45.04-.15.08-.32.06-.44-.02-.12-.1-.21-.19-.27l-1.19,1.61c.1.07.22.11.35.1Z"/>
    <path d="M17.85,28.7c.18.15.36-.15.54,0,.18.15.1.48.28.62.18.15.27.04.45.19.18.15,0,.39.18.54.18.15.39-.02.57.13.18.15.51-.38.69-.23.18.15-.21.69-.03.83.18.14.34.04.52.18.18.15-.18.45,0,.6.18.15.46-.18.64-.03.18.15.15.19.33.34.18.15,0,.41.18.56.19.15.51-.21.7-.06.19.15.12.62.13.63l1.19-1.61s-.36,0-.54-.15c-.18-.14-.03-.34-.2-.48-.18-.14-.35.07-.53-.07-.18-.15.03-.4-.15-.55-.18-.15-.49.34-.67.19-.18-.15-.11-.35-.29-.5-.18-.15-.07-.25-.25-.4-.19-.15-.36.02-.54-.13-.18-.15.08-.48-.1-.63-.18-.15-.45.2-.63.05-.18-.15-.09-.26-.27-.41-.18-.15-.06-.29-.25-.44-.18-.15-.48.26-.66.12-.18-.15.05-.48-.13-.63-.18-.15-.3,0-.49-.14-.18-.15-.02-.45-.15-.56l-1.25,1.56c.14.11.28-.11.47.04.18.15.09.27.27.41Z"/>
    <path d="M16.99,27.52c-.05.15-.05.29-.03.42.02.12.06.24.15.31h0s1.25-1.56,1.25-1.56h0c-.09-.07-.2-.11-.32-.11-.13,0-.28.07-.41.15-.13.08-.27.2-.38.34-.11.14-.2.3-.25.45Z"/>
  </g>
</svg>