<svg xmlns="http://www.w3.org/2000/svg" id="_レイヤー_2" data-name="レイヤー_2" viewBox="0 0 80 90"><defs><style>.st0{fill:#ceb372}.st1{fill:none;stroke:#000;stroke-linecap:round;stroke-linejoin:round}</style></defs><path d="M41.28 2.53c-.45-.56-.92-1.12-1.38-1.67-4.85 6.17-9.07 12.87-13.49 19.35-3.73 5.47-7.48 10.94-11.21 16.41-1.64 2.4-3.25 4.82-4.95 7.18-.41.58-.44 1.97 0 2.61 1.43 2.06 2.83 4.14 4.24 6.21 4.18 6.11 25.85 36.3 25.85 36.3s19.65-28.19 29.01-41.85c.38-.56.78-1.15.8-1.83.03-.76-.42-1.44-.84-2.06L56.26 24.04c-4.9-7.18-9.49-14.75-14.98-21.53Z" style="fill:#fff"/><path d="M39.94.65 28.08 45.11l24.53-.23zM39.03 83.57 28.41 45.55l-18.95-.23c15.4 21.62 31.07 43.61 31.07 43.61l-1.5-5.37Z" class="st0"/><path d="M40.49 1.81c.83 2.8 2.54 8.78 3.34 11.59 1.19 4.13 2.39 8.25 3.58 12.38.91 3.15 1.83 6.29 2.74 9.43.86 2.95 1.98 6.77 2.79 9.74.26.96-11.77 40.48-12.59 43.28" class="st1"/><path d="M41.28 2.53c-.45-.56-.92-1.12-1.38-1.67-4.85 6.17-9.07 12.87-13.49 19.35-3.73 5.47-7.48 10.94-11.21 16.41-1.64 2.4-3.25 4.82-4.95 7.18-.41.58-.44 1.97 0 2.61 1.43 2.06 2.83 4.14 4.24 6.21 4.18 6.11 25.85 36.3 25.85 36.3s19.65-28.19 29.01-41.85c.38-.56.78-1.15.8-1.83.03-.76-.42-1.44-.84-2.06L56.26 24.04c-4.9-7.18-9.49-14.75-14.98-21.53Z" style="fill:none;stroke:#000;stroke-linecap:round;stroke-linejoin:round;stroke-width:1.5px"/><path d="M37.94 6.62c-2.13 8.21-3.29 11.77-5.09 18.88-1.77 6.98-3.25 12.52-4.67 19.65 0 0 9.48 34.31 10.61 38.41M69.06 45.15H10.98" class="st1"/></svg>