<?xml version="1.0" encoding="UTF-8"?>
<svg id="_レイヤー_2" data-name="レイヤー_2" xmlns="http://www.w3.org/2000/svg" version="1.1" viewBox="0 0 80 90">
  <!-- Generator: Adobe Illustrator 30.0.0, SVG Export Plug-In . SVG Version: 2.1.1 Build 123)  -->
  <defs>
    <style>
      .st0 {
        fill: #ceb372;
      }

      .st1, .st2 {
        fill: none;
        stroke: #000;
        stroke-linecap: round;
        stroke-linejoin: round;
      }

      .st3 {
        fill: #fff;
      }

      .st2 {
        stroke-width: 1.5px;
      }
    </style>
  </defs>
  <path class="st3" d="M41.28,2.53c-.45-.56-.92-1.12-1.38-1.67-4.85,6.17-9.07,12.87-13.49,19.35-3.73,5.47-7.48,10.94-11.21,16.41-1.64,2.4-3.25,4.82-4.95,7.18-.41.58-.44,1.97,0,2.61,1.43,2.06,2.83,4.14,4.24,6.21,4.18,6.11,25.85,36.3,25.85,36.3,0,0,19.65-28.19,29.01-41.85.38-.56.78-1.15.8-1.83.03-.76-.42-1.44-.84-2.06-4.35-6.38-8.7-12.76-13.05-19.14-4.9-7.18-9.49-14.75-14.98-21.53Z"/>
  <polygon class="st0" points="39.94 .65 28.08 45.11 52.61 44.88 39.94 .65"/>
  <path class="st0" d="M39.03,83.57l-10.62-38.02-18.95-.23c15.4,21.62,31.07,43.61,31.07,43.61l-1.5-5.37Z"/>
  <path class="st1" d="M40.49,1.81c.83,2.8,2.54,8.78,3.34,11.59,1.19,4.13,2.39,8.25,3.58,12.38.91,3.15,1.83,6.29,2.74,9.43.86,2.95,1.98,6.77,2.79,9.74.26.96-11.77,40.48-12.59,43.28"/>
  <path class="st2" d="M41.28,2.53c-.45-.56-.92-1.12-1.38-1.67-4.85,6.17-9.07,12.87-13.49,19.35-3.73,5.47-7.48,10.94-11.21,16.41-1.64,2.4-3.25,4.82-4.95,7.18-.41.58-.44,1.97,0,2.61,1.43,2.06,2.83,4.14,4.24,6.21,4.18,6.11,25.85,36.3,25.85,36.3,0,0,19.65-28.19,29.01-41.85.38-.56.78-1.15.8-1.83.03-.76-.42-1.44-.84-2.06-4.35-6.38-8.7-12.76-13.05-19.14-4.9-7.18-9.49-14.75-14.98-21.53Z"/>
  <path class="st1" d="M37.94,6.62c-2.13,8.21-3.29,11.77-5.09,18.88-1.77,6.98-3.25,12.52-4.67,19.65,0,0,9.48,34.31,10.61,38.41"/>
  <path class="st1" d="M69.06,45.15c-19.89,0-38.2,0-58.08,0"/>
</svg>