<?xml version="1.0" encoding="UTF-8"?>
<svg id="_レイヤー_1" data-name="レイヤー_1" xmlns="http://www.w3.org/2000/svg" version="1.1" viewBox="0 0 80 80">
  <!-- Generator: Adobe Illustrator 30.0.0, SVG Export Plug-In . SVG Version: 2.1.1 Build 123)  -->
  <defs>
    <style>
      .st0 {
        fill: #ceb372;
      }

      .st1 {
        fill: #fff;
      }

      .st2 {
        fill: #1a1a1a;
      }
    </style>
  </defs>
  <path class="st1" d="M39.73,72.05c1.47.68,7.16-7.13,8.18-8.37,4.67-5.65,9.34-11.29,14.01-16.94,2.34-2.82,4.67-5.65,7.01-8.47,1.19-1.44,2.39-2.89,3.58-4.33,1.07-1.29,2.31-2.35,1.25-3.98-3.56-5.5-7.12-11-10.68-16.5-.31-.48-.64-.98-1.17-1.26-.54-.29-1.21-.3-1.84-.3-13.77-.02-27.55-.03-41.32-.05-.58,0-1.21,0-1.7.3-.43.25-.69.68-.93,1.09-3.25,5.51-6.5,11.02-9.75,16.54-.3.51-.61,1.06-.54,1.63.06.5.41.92.74,1.32,10.61,12.78,21.23,25.55,31.84,38.33l1.29.97Z"/>
  <path class="st0" d="M31.53,12.94l-5.43,18.62,14,40.54L7.18,31.42l9.94-17.53c.4-.71,1.2-1.14,2.07-1.13l12.33.18Z"/>
  <polygon class="st0" points="55.41 32.48 73.53 32.59 41.51 71.11 55.41 32.48"/>
  <path class="st2" d="M60.34,49.39c3.58-4.33,7.16-8.65,10.74-12.98.78-.94,1.55-1.89,2.34-2.82.59-.7,1.36-1.44,1.46-2.39.11-1.08-.77-2.02-1.32-2.87-.8-1.24-1.6-2.48-2.4-3.71-1.56-2.41-3.12-4.81-4.67-7.22-.71-1.1-1.42-2.2-2.14-3.3-.56-.86-1.06-1.9-2.08-2.28-.9-.34-2.01-.2-2.95-.21-1.49,0-2.97,0-4.46,0-2.89,0-5.78,0-8.67,0-6.44,0-12.87-.01-19.31-.02-.31,0-1.64.58-.94.58,10.81.01,21.62.02,32.43.04,1.32,0,2.69-.19,3.61.93.85,1.04,1.52,2.29,2.25,3.42,1.42,2.2,2.85,4.4,4.27,6.6s2.99,4.51,4.41,6.81c.62,1.01.65,1.85-.05,2.83-.75,1.06-1.67,2.03-2.5,3.02-3.78,4.57-7.56,9.13-11.34,13.7-.28.34,1.09.16,1.31-.11h0Z"/>
  <path class="st2" d="M11.75,19.59c-2.02,3.44-4.16,6.83-6.08,10.32-.36.65-.73,1.3-.45,2.06.19.52.66.98,1,1.4,1.32,1.6,2.65,3.19,3.98,4.79,5.04,6.07,10.08,12.14,15.13,18.21,2.44,2.94,4.88,5.88,7.32,8.82,1.17,1.41,2.34,2.81,3.5,4.22.81.97,1.59,2.17,2.75,2.79.94.5,2.08-.14,2.85-.74,1.53-1.18,2.79-2.78,4-4.27,4.19-5.14,8.37-10.28,12.59-15.39.28-.34-1.09-.16-1.31.11-3.63,4.39-7.38,8.71-10.87,13.21-1.2,1.55-2.41,3.09-3.73,4.54-.53.58-1.08,1.16-1.69,1.67-.24.2-.5.35-.74.53.67-.52.4.17.26-.16-.06-.13-.38-.29-.51-.39-1.02-.77-1.74-1.81-2.56-2.79-1.17-1.41-2.34-2.81-3.5-4.22-2.23-2.68-4.46-5.37-6.69-8.05-4.56-5.49-9.13-10.99-13.69-16.48-1.27-1.53-2.55-3.07-3.82-4.6-.64-.77-1.28-1.53-1.91-2.3-.8-.99-1.26-1.57-.71-2.84.8-1.84,2.12-3.61,3.14-5.34s2.11-3.58,3.17-5.38c.1-.17-1.21-.1-1.43.26h0Z"/>
  <path class="st2" d="M22.67,11.57c-1.04,0-2.08,0-3.13,0s-2.02.02-2.92.51c-.77.42-1.15,1.21-1.58,1.93-.56.96-1.13,1.91-1.69,2.87-.13.22.51.15.58.13.26-.05.7-.14.85-.39.44-.75.88-1.49,1.32-2.24.38-.65.72-1.43,1.24-1.98.23-.25.34-.24.68-.25.4-.01.81,0,1.21,0,.83,0,1.67,0,2.5,0,.34,0,.74-.08,1.02-.27.21-.14.22-.31-.08-.31h0Z"/>
  <path class="st2" d="M32.57,53.55c1.31,3.89,2.62,7.78,3.96,11.66.63,1.84,1.13,3.84,1.99,5.59.17.35,1.56-.16,1.45-.39-.85-1.75-1.36-3.76-1.99-5.59-1.33-3.88-2.65-7.77-3.96-11.66-.11-.33-1.55.1-1.45.39h0Z"/>
  <path class="st2" d="M29.58,44.66c.47,1.39.94,2.79,1.4,4.18.07.22.64.06.78.03.11-.03.74-.2.67-.41-.47-1.39-.94-2.79-1.4-4.18-.07-.22-.64-.06-.78-.03-.11.03-.74.2-.67.41h0Z"/>
  <path class="st2" d="M30.94,12.17c-1.08,3.6-2.16,7.2-3.24,10.8l-1.98,6.6c-.29.95-.65,1.6-.34,2.53,1.4,4.19,2.8,8.37,4.2,12.56.11.33,1.55-.1,1.45-.39-1.32-3.93-2.63-7.86-3.95-11.79-.12-.36-.47-1.2-.47-1.4,0-.42.29-.96.41-1.35,1.36-4.54,2.73-9.08,4.09-13.62.42-1.4.84-2.79,1.26-4.19.08-.28-1.32-.11-1.43.26h0Z"/>
  <path class="st2" d="M51.57,24.78l1.53,5.05.34,1.13c.03.1.13.61.15.38-.01.14-.11.32-.16.46-.9,2.5-1.72,5.03-2.58,7.55l-8.53,24.92c-.73,2.14-1.46,4.28-2.19,6.42-.19.55,1.27.38,1.46-.16,1.96-5.73,3.92-11.47,5.88-17.2,2.43-7.11,4.86-14.22,7.29-21.32.27-.8.27-.96.01-1.81l-1.76-5.81c-.17-.56-1.62-.17-1.45.39h0Z"/>
  <path class="st2" d="M47.77,12.24c.79,2.61,1.59,5.22,2.38,7.84.12.38.23.76.35,1.14.17.56,1.62.17,1.45-.39-.79-2.61-1.59-5.22-2.38-7.84-.12-.38-.23-.76-.35-1.14-.17-.56-1.62-.17-1.45.39h0Z"/>
  <path class="st2" d="M73.35,30.89c-21.19,0-42.39,0-63.58,0-.6,0-1.52.9-.54.9,21.19,0,42.39,0,63.58,0,.6,0,1.52-.9.54-.9h0Z"/>
</svg>