<svg xmlns="http://www.w3.org/2000/svg" id="_レイヤー_2" data-name="レイヤー_2" viewBox="0 0 80 80"><defs><style>.st0{fill:#ceb372}.st1{fill:none;stroke:#000;stroke-linecap:round;stroke-linejoin:round}</style></defs><path d="M22.21 7.76C20.5 8.23 4.53 37.69 4.53 37.69S16.79 61.64 21.5 69.62c.38.64.96.99 1.71.99h34.13c.83 0 1.43-.44 1.81-1.11 5.57-9.86 11.36-19.6 16.97-29.43.4-.7.43-1.43.04-2.09-5.66-9.77-11.19-19.62-16.94-29.34-.57-.97-1.3-1.22-2.4-1.22-11.17 0-34.55.28-34.55.28" style="fill:#fff"/><path d="M58.48 8.05 50.7 21.22c-.15.26-.15.57 0 .83l9.36 16.53c.15.27.44.43.75.42l12.81-.3c.64-.01 3.32.54 3 0L60.78 11.55c-.32-.55-1.97-4.06-2.29-3.5ZM3.72 39.02l17.93 31.21 36.72.57-7.78-14.02-20.92.2-10.51-17.54z" class="st0"/><path d="M22.21 7.76C20.5 8.23 3.79 38.88 3.79 38.88s2.71 4.81 3.79 6.67c4.64 8.02 9.21 16.08 13.92 24.07.38.64.96.99 1.71.99h34.13c.83 0 1.43-.44 1.81-1.11 5.57-9.86 11.36-19.6 16.97-29.43.4-.7.43-1.43.04-2.09-5.66-9.77-11.19-19.62-16.94-29.34-.57-.97-1.3-1.22-2.4-1.22h-33.5c-.38 0-.74.05-1.05.28" style="fill:none;stroke:#000;stroke-linecap:round;stroke-linejoin:round;stroke-width:1.5px"/><path d="M30.19 21.2c-2.22-3.75-5.24-8.7-7.37-12.49-.1-.17-.2-.34-.31-.5" class="st1"/><path d="M61.04 39.02c-.14-.34-.38-.62-.56-.94a995 995 0 0 0-4.08-7.07l-5.8-10H30.48a.94.94 0 0 0-.8.46s-3.51 6.06-5.1 8.81c-1.69 2.91-3.33 5.85-5.08 8.72.13.17 9.33 16.18 10.26 17.65.16.26 20.86.27 21.02 0 .23-.39 5.04-8.69 7.22-12.44l3.03-5.19ZM76.34 39.02c-4.88 0-10.06-.07-14.93-.09M58.33 7.76c-2.17 3.65-5.56 9.58-7.71 13.24M19.45 39.02H4.21M29.89 56.97c-1.94 3.4-3.91 6.77-5.86 10.16-.59 1.03-1.2 2.05-1.77 3.09M50.73 56.85c1.69 2.96 3.78 6.78 5.47 9.73.7 1.21 1.42 2.41 2.08 3.65" class="st1"/></svg>