<?xml version="1.0" encoding="UTF-8"?>
<svg id="_レイヤー_1" xmlns="http://www.w3.org/2000/svg" version="1.1" viewBox="0 0 80 80">
  <!-- Generator: Adobe Illustrator 30.0.0, SVG Export Plug-In . SVG Version: 2.1.1 Build 123)  -->
  <defs>
    <style>
      .st0 {
        fill: #ceb372;
      }

      .st1 {
        fill: #1c1917;
      }

      .st2 {
        fill: #fff;
      }
    </style>
  </defs>
  <path class="st2" d="M5.36,29.41c.24-.98.79-3.69,1-4.68.45-2.12.88-4.24,1.27-6.38.04-.2.13-.37.31-.51,2.29-1.9,9.81-7.54,10.38-7.75.05-.02.11,0,.16,0,2.81,0,8.72.03,8.85.11.41.26.83.52,1.25.77,1.81,1.09,3.63,2.19,5.44,3.29,1.58.96,5.93,3.6,5.93,3.6,0,0,5.89-3.25,7.16-4.02,1.99-1.2,3.98-2.42,5.98-3.62.15-.09.29-.13.46-.13,2.66,0,8.73-.05,9.07.18,0,0,.05.01.08.01.29-.02.55.11.77.29.83.7,1.69,1.36,2.53,2.04,2.18,1.78,4.41,3.49,6.57,5.29.12.1.18.2.21.35.5,2.29,2.39,12.44,2.39,12.44l-1.81,8.01s-2.79,4.81-4.25,7.17c-2.42,3.89-7.98,12.77-7.98,12.77,0,0-1.84,1.64-3.36,2.72-5.61,3.97-11.13,8.1-16.63,12.22-.5.38-1.32.36-1.84-.02-6.43-4.74-12.66-9.81-19.36-14.17-1.15-.75-1.91-2.61-2.61-3.75-3.18-5.2-6.34-10.43-9.51-15.64-.35-.57-.71-1.12-.87-1.8-.33-1.45-1.66-7.5-1.66-7.5"/>
  <polygon class="st0" points="21.98 20.45 17.13 11.62 9 18.54 6.23 29.28 7.26 38.46 18.87 59.24 24.75 52.31 13.5 29.97 21.98 20.45"/>
  <polygon class="st0" points="40.86 17.85 56.27 19.24 61.64 10.06 53.09 10.21 40.63 17.62 40.86 17.85"/>
  <path class="st0" d="M55.23,53.52"/>
  <polygon class="st0" points="59.56 58.54 41.13 73.57 40.34 63.39 55.23 53.52 59.56 58.54"/>
  <path class="st1" d="M10.11,15.45c-.87.67-1.76,1.33-2.6,2.05s-.84,2.13-1.05,3.2c-.46,2.36-.96,4.71-1.46,7.07-.14.67,1.33.47,1.46-.13.45-2.13.9-4.25,1.32-6.38.12-.61.24-1.21.36-1.82.09-.49.07-1.13.48-1.46.79-.67,1.62-1.29,2.44-1.92s-.41-1.01-.94-.6h0Z"/>
  <path class="st1" d="M74.78,24.66c-.38-1.98-.75-3.96-1.15-5.93-.34-1.64-1.99-2.45-3.24-3.45-1.83-1.46-3.65-2.92-5.47-4.38-.62-.5-1.06-.92-1.83-1.11-.31-.07.25.03-.16-.03-.16-.02-.33-.06-.49-.08-2.66-.31-5.44-.11-8.12-.11-1.69,0-2.89,1.03-4.3,1.89s-2.86,1.77-4.32,2.6c-2.01,1.14-4.04,2.26-6.06,3.38h.87c-1.73-1.06-3.46-2.11-5.2-3.16-1.57-.95-3.14-1.9-4.71-2.85-1.01-.61-2.17-1.68-3.38-1.78-2.46-.19-4.98-.07-7.45-.08-.94,0-1.58-.05-2.38.47-1.48.96-2.87,2.06-4.28,3.11-.79.59.4,1,.94.6,1.28-.96,2.57-1.93,3.89-2.84.17-.12.36-.29.55-.37.29-.12-.26.01.21.03.58.02,1.16,0,1.74,0,1.27,0,2.53.01,3.8.03.79,0,1.86-.16,2.62.06.57.16,1.25.76,1.77,1.07.84.51,1.67,1.01,2.51,1.52,1.2.73,2.4,1.45,3.59,2.18,1.55.94,3.09,1.88,4.64,2.82.24.15.63.13.87,0,4.09-2.26,8.1-4.6,12.1-7.01.66-.4,1.06-.65,1.82-.65.71,0,1.43,0,2.14,0,1.36,0,2.72,0,4.08.04.46.01.92.05,1.38.06s.24-.04.66.1c.91.32,1.7,1.2,2.45,1.8.85.68,1.7,1.37,2.55,2.05.92.73,1.83,1.46,2.75,2.19.77.62,1.77,1.17,1.98,2.18.42,2.02.79,4.04,1.18,6.06.12.62,1.57.26,1.45-.39h0Z"/>
  <path class="st1" d="M51.24,66.69c2.47-1.81,4.99-3.55,7.45-5.38,1.06-.79,2.36-1.64,3.17-2.69.66-.86,1.18-1.88,1.75-2.79,1.01-1.62,2.03-3.23,3.04-4.85,1.97-3.15,3.93-6.3,5.82-9.51.53-.91,1.28-1.86,1.62-2.85.32-.92.44-1.96.66-2.91l1.02-4.52c.31-1.37-.31-2.94-.56-4.29-.12-.62-1.57-.26-1.45.39.2,1.07.4,2.13.6,3.2.08.43.08.21-.01.66-.26,1.21-.55,2.42-.82,3.63s-.54,2.42-.82,3.63c-.02.11-.04.23-.08.34-.02.04.06-.16-.03.02-.26.55-.62,1.07-.93,1.6-3.46,5.91-7.14,11.69-10.78,17.49-.1.16-.43.68-.43.68-.45.51-1.56,1.31-2.25,1.84-2.57,1.99-5.29,3.81-7.92,5.74-.79.58.4,1,.94.6h0Z"/>
  <path class="st1" d="M4.56,30.88c.51,2.33,1.02,4.66,1.55,6.99.46,2.05,1.89,3.83,2.97,5.6,1.5,2.47,2.99,4.93,4.49,7.4,1.31,2.15,2.65,4.28,3.88,6.48.43.78.9,1.57,1.58,2.16.93.8,2.07,1.41,3.08,2.1,4.39,3.02,8.61,6.3,12.86,9.52,1.23.93,2.44,2.04,3.76,2.82.68.4,1.49.51,2.25.24,1.24-.45,2.36-1.62,3.41-2.4,1.33-.99,2.66-1.98,3.99-2.97.79-.59-.4-1-.94-.6-1,.74-2,1.48-2.99,2.23s-2.06,1.76-3.18,2.38-1.51.24-2.34-.38c-.44-.33-.88-.66-1.32-.99-1-.75-2-1.51-3-2.27-3.93-2.99-7.86-5.99-11.94-8.78-.9-.62-1.99-1.15-2.74-1.96-.62-.67-1.03-1.53-1.46-2.32-1.14-2.08-2.45-4.07-3.68-6.09-1.33-2.18-2.65-4.37-3.98-6.55-1.1-1.82-2.7-3.75-3.2-5.84-.57-2.37-1.06-4.77-1.58-7.16-.14-.62-1.59-.25-1.45.39h0Z"/>
  <path class="st1" d="M22.74,54.55c-.6.69-1.27,1.32-1.91,1.97-.32.32-.63.65-.95.97-.16.17-.33.33-.49.49-.08.08-.16.16-.25.25-.04.04-.07.07-.11.11,0,0-.18.19-.06.07-.22.21-.39.57-.07.79.28.19.79.17,1.04-.08.7-.67,1.38-1.38,2.06-2.07s1.34-1.32,1.96-2.02c.22-.25.12-.63-.2-.74-.36-.12-.78,0-1.02.27h0Z"/>
  <path class="st1" d="M7.24,30.81c1.11-.11,2.23-.21,3.34-.32.52-.05,1.04-.1,1.56-.15.85-.08.99.52,1.32,1.2,1.01,2.12,2.02,4.24,3.04,6.35,2.01,4.19,4,8.39,6.06,12.56.21.43,1.62-.05,1.45-.39-2.32-4.71-4.57-9.46-6.84-14.2-.55-1.15-1.1-2.3-1.65-3.45-.29-.61-.58-1.21-.86-1.82-.15-.31-.26-.82-.6-.98-.66-.32-2.02.06-2.71.13-1.29.13-2.59.25-3.88.37-.66.06-1.24.78-.23.68h0Z"/>
  <path class="st1" d="M55.98,54.66c1.44,1.47,2.85,2.95,4.32,4.39.25.25.67.24.98.08.2-.1.62-.45.35-.71-1.46-1.44-2.88-2.92-4.32-4.39-.25-.25-.68-.24-.98-.08-.2.1-.61.44-.35.71h0Z"/>
  <path class="st1" d="M59.08,44.92c-1.23,2.62-2.49,5.23-3.83,7.8-.16.31.15.53.43.56.34.03.78-.11.95-.43,1.34-2.57,2.6-5.18,3.83-7.8.34-.72-1.12-.68-1.38-.13h0Z"/>
  <path class="st1" d="M66.14,30.06c-2.01,3.92-3.85,7.92-5.7,11.91-.33.72,1.12.68,1.38.13,1.85-4,3.68-8,5.7-11.91.36-.7-1.1-.67-1.38-.13h0Z"/>
  <path class="st1" d="M74.38,30.23c-2.05-.05-4.11-.3-6.15-.52-.31-.03-.79.12-.95.4-.18.31.15.43.4.46,2.04.22,4.1.47,6.15.52.32,0,.78-.1.95-.4s-.15-.45-.4-.46h0Z"/>
  <path class="st1" d="M38.34,17.98c-2.58.25-5.16.55-7.73.83-1.24.14-2.49.27-3.73.4-.61.07-1.23.13-1.84.2-.53.06-1.27.27-1.78.17-.31-.06-.73.05-1.01.19-.11.05-.51.28-.19.34.49.1,1-.02,1.5-.07.66-.07,1.32-.14,1.97-.21,1.34-.14,2.67-.29,4.01-.43,2.72-.29,5.44-.61,8.17-.87.22-.02.87-.11.97-.34s-.09-.22-.33-.2h0Z"/>
  <path class="st1" d="M58.78,19.23c.78-1.53,1.57-3.05,2.37-4.58s1.58-2.91,2.23-4.43c.12-.29-.48-.28-.61-.26-.29.04-.7.17-.83.46-.65,1.52-1.47,2.97-2.23,4.43s-1.59,3.05-2.37,4.58c-.14.28.5.28.61.26.31-.04.68-.17.83-.46h0Z"/>
  <path class="st1" d="M24.46,53.83c2.32,1.5,4.7,2.92,7.05,4.37,1.39.85,2.78,1.7,4.17,2.56,1.3.8,2.57,1.74,3.94,2.41.34.17,1.68-.37,1.18-.62-1.39-.68-2.69-1.66-4.01-2.47-1.39-.86-2.78-1.71-4.17-2.56-2.27-1.39-4.56-2.77-6.8-4.21-.37-.24-1.64.34-1.36.52h0Z"/>
  <path class="st1" d="M55.44,53.24c-.91.32-1.72.94-2.54,1.44-1.13.69-2.26,1.38-3.39,2.08-2.3,1.41-4.59,2.82-6.89,4.23-.56.34-1.11.68-1.67,1.03-.41.26-1.04.49-1.33.89-.22.3-.15.65-.15,1.03,0,.67,0,1.34,0,2.01,0,2.67,0,5.35,0,8.02,0,.3,1.45.07,1.45-.39,0-2.34,0-4.68,0-7.02,0-.6,0-1.21,0-1.81,0-.46-.19-1.42,0-1.81.22-.44,1.1-.8,1.49-1.04.5-.31,1-.62,1.5-.92,1.96-1.2,3.92-2.4,5.88-3.61,1.02-.63,2.03-1.25,3.05-1.87s2.04-1.48,3.13-1.86c.97-.34.06-.61-.52-.41h0Z"/>
  <path class="st1" d="M16.64,25.77c-.67.73-1.34,1.45-2.01,2.18-.33.36-.66.72-.99,1.08-.29.32-.65.63-.84,1.03-.12.26.5.21.59.19.27-.05.71-.15.84-.43.17-.35.52-.64.78-.93.33-.36.66-.72.99-1.08.65-.71,1.3-1.41,1.95-2.12.22-.24-.19-.31-.36-.3-.32.02-.74.12-.97.36h0Z"/>
  <path class="st1" d="M17.66,11.51c.99,1.97,1.9,3.99,2.92,5.96.34.66.71,1.32,1.04,1.98.08.15.27.43.24.59-.04.22-.48.57-.61.71-1.02,1.12-2.05,2.24-3.08,3.35-.23.25.2.3.36.3.31,0,.75-.12.97-.36,1.06-1.15,2.12-2.29,3.16-3.44.33-.36.77-.67.58-1.18-.23-.65-.67-1.28-.99-1.9-1.09-2.11-2.07-4.28-3.14-6.4-.2-.4-1.6.09-1.45.39h0Z"/>
  <path class="st1" d="M58.21,21.4c1.34,1.46,2.68,2.91,4.02,4.37.67.73,1.34,1.46,2.01,2.19.32.35.64.7.96,1.04s.76.71.98,1.14,1.61-.08,1.45-.39c-.21-.39-.55-.71-.85-1.03-.32-.35-.64-.7-.96-1.04-.71-.77-1.41-1.54-2.12-2.31-1.38-1.5-2.76-2.99-4.14-4.49-.28-.31-1.65.21-1.36.52h0Z"/>
  <path class="st1" d="M58.77,20.1c-.25-.14-.5-.29-.76-.42-.35-.17-.67-.18-1.06-.23-1.55-.2-3.11-.33-4.66-.5-3.22-.35-6.44-.7-9.66-1.04-.3-.03-.8.05-1.02.27-.19.18-.22.34.1.37,2.61.28,5.22.56,7.83.85,1.27.14,2.53.28,3.8.41,1.16.12,2.36.36,3.52.37l-.38-.07.93.51c.27.15.67.05.94-.05.07-.03.67-.32.42-.46h0Z"/>
</svg>