<?xml version="1.0" encoding="UTF-8"?>
<svg id="_レイヤー_1" xmlns="http://www.w3.org/2000/svg" version="1.1" viewBox="0 0 80 80">
  <!-- Generator: Adobe Illustrator 30.0.0, SVG Export Plug-In . SVG Version: 2.1.1 Build 123)  -->
  <defs>
    <style>
      .st0 {
        fill: #1c1917;
      }

      .st1 {
        fill: #fff;
      }
    </style>
  </defs>
  <path class="st1" d="M40.13,7.23c-15.25-.19-27.71,10.97-31.25,23.4-3.51,12.34,1.09,26.6,11.18,34.54,10.09,7.93,25.06,9.04,36.18,2.64,11.13-6.4,17.71-19.9,15.86-32.6-1.98-13.59-12.98-28.05-31.9-27.97"/>
  <path class="st1" d="M7.55,41.03s1.46,8.9,2.23,10.62,7.02,10.87,9.08,12.67,8.9,5.99,12.59,6.68c3.69.69,8.65,1.03,8.65,1.03l.26-11.3-15.16-5.57-5.91-14.3-11.73.17h0Z"/>
  <path class="st1" d="M40,7.9v10.7l14.81,6.51,7.36-7.53s-1.63-2.57-8.48-5.99-13.7-3.68-13.7-3.68h0Z"/>
  <path class="st1" d="M62.01,40.78l-6.08,14.13,6.76,7.53s5.4-6.33,6.34-8.13c2.4-4.62,3.25-13.19,3.25-13.19l-10.27-.34Z"/>
  <path class="st0" d="M70.72,51.57c3.38-8.54,3.1-17.9-.82-26.19-3.2-6.77-8.63-12.47-15.48-15.59-4.32-1.97-9.02-2.83-13.75-2.84-.29,0-1.63.55-.95.55,8.21.01,16.09,2.94,21.98,8.71,4.99,4.89,8.34,11.45,9.54,18.32,1.01,5.84.22,11.8-1.95,17.29-.08.2,1.28.09,1.43-.27h0v.02Z"/>
  <path class="st0" d="M7.37,34.38c-1.78,11.75,3.01,24.33,12.6,31.49,9.33,6.96,22.27,8.16,32.96,3.82,6.46-2.62,11.76-7.37,15.38-13.29.07-.12-1.21-.08-1.43.27-3.21,5.26-7.77,9.68-13.4,12.28s-11.38,3.21-17.19,2.43c-11.35-1.52-20.87-8.86-25.25-19.43-2.35-5.66-3.15-11.9-2.23-17.96.02-.12-1.39-.03-1.45.39h.01Z"/>
  <path class="st0" d="M40.6,6.96c-13.91-.09-27.03,8.84-31.83,21.95-.08.21,1.3.08,1.43-.27C14.66,16.45,26.52,7.43,39.65,7.51c.29,0,1.63-.55.95-.55h0Z"/>
  <path class="st0" d="M18.73,41.2c2.02,4.37,3.74,8.87,5.61,13.3.26.61,1.69.2,1.45-.39-1.87-4.43-3.59-8.94-5.61-13.3-.28-.61-1.71-.18-1.45.39h0Z"/>
  <path class="st0" d="M23.69,55.78c-2.38,2.37-4.85,4.65-7.23,7.02-.25.25-.1.63.2.74.37.14.76,0,1.02-.27,2.38-2.37,4.85-4.65,7.23-7.02.25-.25.1-.63-.2-.74-.37-.14-.76,0-1.02.27h0Z"/>
  <path class="st0" d="M56.34,49.79c-.57,1.38-1.02,2.96-1.75,4.26-.57,1.02-2.68,1.47-3.75,1.91-2.86,1.18-5.73,2.36-8.58,3.57-.59.25-1.26.65-1.91.7-.78.05-1.5-.45-2.18-.76-1.37-.62-2.76-1.18-4.16-1.74-2.49-.99-5.02-1.86-7.53-2.8-.65-.24-1.69.69-.83,1.01,2.96,1.1,5.93,2.14,8.85,3.33,1.48.6,2.96,1.5,4.49,1.93,1.08.31,2.07,0,3.08-.41,3.22-1.34,6.43-2.69,9.65-4.02.75-.31,1.51-.62,2.26-.94.58-.24,1.33-.4,1.72-.92.43-.58.64-1.57.92-2.24.37-.9.74-1.79,1.11-2.69.32-.79-1.13-.82-1.39-.19h0Z"/>
  <path class="st0" d="M20.16,39.26c1.65-4.09,3.46-8.11,5.05-12.22.15-.39.25-.93.47-1.28.35-.54,1.06-.71,1.63-.94,1.12-.46,2.23-.92,3.35-1.37,2.01-.83,4.01-1.65,6.02-2.49.93-.39,2.16-1.17,3.15-1.29s2.29.75,3.19,1.13c2.1.87,4.19,1.75,6.29,2.62.97.4,1.95.81,2.93,1.2.51.21,1.09.38,1.58.64.72.38.89,1.01,1.19,1.73.85,2.09,1.71,4.18,2.58,6.27.47,1.12.94,2.23,1.4,3.35.24.58.47,1.16.7,1.74.17.43.53.97.61,1.42.16.98-.8,2.44-1.17,3.35-.52,1.26-1.04,2.52-1.57,3.78-.33.78,1.13.82,1.39.19.5-1.18.99-2.37,1.48-3.55.21-.52.43-1.04.63-1.56.23-.57.75-1.4.8-2.01.07-.85-.73-2.04-1.06-2.86-.48-1.19-.99-2.37-1.49-3.56-.99-2.38-1.98-4.77-2.95-7.16-.28-.69-.48-1.43-1.14-1.86-1.02-.66-2.38-1-3.51-1.47-2.4-.99-4.79-1.99-7.19-2.99-1.12-.46-2.24-.98-3.38-1.39-.87-.32-1.4-.19-2.24.17-2.37,1-4.74,1.99-7.12,2.97-1.11.46-2.23.92-3.34,1.38s-2.4.78-3.36,1.44c-.87.6-1.06,1.72-1.43,2.65-.48,1.2-.99,2.38-1.49,3.57-1.14,2.74-2.29,5.47-3.4,8.22-.32.79,1.14.83,1.39.19h.01Z"/>
  <path class="st0" d="M8.07,40.27c3.21,0,6.43-.02,9.64.02.33,0,.74-.09,1.02-.27.21-.14.22-.29-.08-.29-3.21-.04-6.43-.02-9.64-.02-.34,0-.74.09-1.02.27-.21.14-.22.29.08.29h0Z"/>
  <path class="st0" d="M70.89,39.68c-2.63,0-5.27,0-7.9-.02-.34,0-.74.07-1.02.27-.21.15-.22.33.09.33,2.63.03,5.27.02,7.9.02.34,0,.74-.07,1.02-.27.2-.15.22-.33-.09-.33h0Z"/>
  <path class="st0" d="M54.9,55.62c2.51,2.56,5.06,5.08,7.6,7.62.34.34,1.71-.2,1.35-.55-2.54-2.54-5.08-5.06-7.6-7.62-.33-.34-1.7.19-1.35.55h0Z"/>
  <path class="st0" d="M39.39,7.37v11.56c0,.71,1.46.45,1.46-.14V7.23c0-.71-1.46-.45-1.46.14h0Z"/>
  <path class="st0" d="M39.4,61.69v9.48c0,.3,1.45.07,1.45-.39v-9.48c0-.3-1.45-.07-1.45.39h0Z"/>
  <path class="st0" d="M62.52,16.97c-2.04,2.04-4.09,4.09-6.13,6.13-.24.24.21.3.36.29.32-.01.73-.12.97-.36l6.13-6.13c.24-.24-.21-.3-.36-.29-.32.01-.73.12-.97.36h0Z"/>
  <path class="st0" d="M17.12,17.92c2.48,2.48,5,4.92,7.48,7.4.29.29,1.64-.24,1.36-.52-2.48-2.48-5-4.92-7.48-7.4-.29-.29-1.64.24-1.36.52h0Z"/>
</svg>