<?xml version="1.0" encoding="UTF-8"?>
<svg id="_レイヤー_1" xmlns="http://www.w3.org/2000/svg" version="1.1" viewBox="0 0 80 90">
  <!-- Generator: Adobe Illustrator 30.0.0, SVG Export Plug-In . SVG Version: 2.1.1 Build 123)  -->
  <defs>
    <style>
      .st0 {
        fill: #1c1917;
      }

      .st1 {
        fill: #fff;
      }
    </style>
  </defs>
  <path class="st1" d="M27.27,4.42c-.41.05-.65.34-.91.61-3.14,3.14-6.26,6.31-9.44,9.41-.77.75-1,1.62-1,2.57-.02,18.2-.01,36.4-.01,54.61,0,.08-.02.17,0,.24.21.77.22,1.55.89,2.21,3.22,3.14,6.38,6.34,9.56,9.53.62.63,1.38.91,2.25.91h23.34c1,0,1.84-.32,2.56-1.03,3.12-3.13,6.22-6.26,9.37-9.35.75-.74,1.01-1.59,1.01-2.57.01-4.82,0-9.65,0-14.47V17.08c0-.97-.26-1.83-1.01-2.57-3.17-3.11-6.3-6.27-9.43-9.42-1.05-1.05-2.65-.91-4.01-.91h-21.89"/>
  <polyline class="st1" points="15.91 17.01 16.16 73.1 27.29 84.23 52.75 84.57 48.54 77.32 30.66 77.15 24.25 69.06 23.92 21.5 15.91 17.01"/>
  <polygon class="st1" points="52.25 5.48 49.04 12.9 57.47 20.15 64.05 15.77 52.25 5.48"/>
  <path class="st0" d="M52.14,5.58c-1.17,2.38-2.4,4.74-3.59,7.11-.12.24.5.17.58.15.25-.04.72-.14.85-.4,1.19-2.38,2.41-4.73,3.59-7.11.12-.24-.5-.17-.58-.15-.25.04-.72.14-.85.4h0Z"/>
  <path class="st0" d="M60.8,78.01c1.22-1.22,2.53-2.38,3.69-3.65,1.05-1.16,1.14-2.33,1.14-3.85V20.98c0-1.62.28-3.56-.14-5.14-.32-1.2-1.27-1.96-2.12-2.8-1.49-1.47-2.96-2.94-4.44-4.42-1.99-1.99-3.81-4.83-6.84-4.98-3.7-.19-7.46,0-11.17,0h-12.32c-.85,0-1.1,1.11-.11,1.11h19.98c1.38,0,3.02-.25,4.36.16.84.25,1.4.97,2,1.57.7.7,1.39,1.4,2.09,2.1,1.16,1.17,2.32,2.33,3.49,3.49,1.11,1.1,2.96,2.38,3.53,3.84.53,1.34.22,3.26.22,4.68v47.54c0,1.67.47,4.1-.64,5.5s-2.66,2.65-3.94,3.93c-.65.64.74.95,1.22.47h0v-.02Z"/>
  <path class="st0" d="M15.17,28.31v40.12c0,1.3-.14,2.68.09,3.96.24,1.35.89,2.02,1.84,2.96,2.37,2.33,4.72,4.69,7.06,7.04.79.8,1.6,1.87,2.65,2.34,1.21.54,2.68.34,3.97.34h10.18c3.63,0,7.3.16,10.93,0,1.19-.05,2.21-.43,3.1-1.24,1.39-1.27,2.67-2.68,3.99-4.01.64-.65-.74-.95-1.22-.47-1.06,1.06-2.11,2.12-3.17,3.18-.52.52-1,1.09-1.73,1.31s-1.6.11-2.35.11h-18.13c-1.34,0-3.15.29-4.42-.11-1.35-.43-2.52-2.15-3.5-3.13-2.02-2.03-4.04-4.06-6.08-6.06-1.04-1.02-1.66-1.84-1.75-3.33-.09-1.57,0-3.16,0-4.73V28.22c0-.78-1.47-.59-1.47.1h0Z"/>
  <path class="st0" d="M21.2,9.36c-1.18,1.18-2.36,2.36-3.55,3.53-.95.94-2.04,1.77-2.36,3.13s-.12,3.01-.12,4.44v4.96c0,.78,1.47.59,1.47-.1v-4.65c0-1.41-.13-2.9.04-4.3s1.46-2.31,2.41-3.24c1.12-1.1,2.22-2.21,3.33-3.31.26-.26.09-.61-.2-.74-.36-.16-.77.02-1.02.27h0Z"/>
  <path class="st0" d="M31.76,75.32c-1.79-1.79-3.58-3.58-5.38-5.37-.46-.45-.97-.89-1.4-1.38-.49-.56-.46-1.05-.46-1.78V22.2c0-.48-.12-1.18,0-1.64.17-.62.99-1.16,1.45-1.62,2.05-2.01,3.99-4.15,6.08-6.12l-.67.31h17.6l-.59-.19c2.54,2.29,5.08,4.59,7.62,6.88.46.41,1.82-.18,1.33-.62-1.45-1.31-2.91-2.62-4.36-3.94l-2.57-2.32c-.42-.38-.71-.75-1.29-.81-1.47-.14-3.01,0-4.48,0h-7.95c-1.65,0-3.45-.21-5.09,0-.62.08-.93.49-1.35.92-1.07,1.09-2.14,2.18-3.21,3.26-1.17,1.18-2.42,2.29-3.56,3.5-.57.6-.42,1.2-.42,2.02v44.35c0,1.32-.18,2.22.77,3.19,2.17,2.21,4.4,4.38,6.6,6.57.44.44,1.81-.14,1.33-.62h0Z"/>
  <path class="st0" d="M28.16,84.01c1.19-2.58,2.71-4.99,3.89-7.58.11-.24-.5-.15-.58-.13-.23.04-.74.14-.85.39-1.18,2.59-2.7,5-3.89,7.58-.11.24.5.15.58.13.23-.04.73-.14.85-.39h0Z"/>
  <path class="st0" d="M57.3,69.14c1.08.69,2.18,1.35,3.27,2.02.57.34,1.13.69,1.69,1.04s1.1.68,1.73.86c.31.09.73-.05,1.01-.18.14-.07.49-.3.17-.39-.6-.18-1.12-.52-1.65-.85-.56-.35-1.13-.69-1.69-1.04-1.06-.65-2.13-1.29-3.18-1.96-.25-.16-.69-.01-.93.08-.08.03-.65.28-.43.42h.01Z"/>
  <path class="st0" d="M56.21,59.97v5.31c0,.84.08,1.73,0,2.57-.06.61-.27.81-.71,1.25-1.21,1.21-2.42,2.42-3.63,3.63l-1.93,1.93c-.3.3-.6.6-.91.91-.15.15-.48.36-.49.6,0,.56,1.44.25,1.44-.2,0-.18.63-.64.76-.77.34-.34.68-.68,1.02-1.02l1.93-1.93,1.93-1.93c.3-.3.6-.6.91-.91.27-.27.69-.57.89-.89.12-.21.2-.53.23-.77.12-.8,0-1.71,0-2.53v-5.64c0-.4-1.45-.15-1.45.39h.01Z"/>
  <path class="st0" d="M56.2,22.54v33.86c0,.4,1.45.15,1.45-.39V22.15c0-.41-1.45-.15-1.45.39h0Z"/>
  <path class="st0" d="M64.46,15.39c-1.29.46-2.4,1.27-3.57,1.97-1.3.77-2.6,1.54-3.9,2.31-.26.15-.36.52-.09.71.31.22.75.07,1.04-.1,1.22-.72,2.44-1.44,3.66-2.17,1.01-.6,2-1.39,3.11-1.79.27-.1.69-.3.6-.66-.08-.33-.6-.36-.85-.27h0Z"/>
  <path class="st0" d="M48.96,75.71c-5.45.03-10.9,0-16.35.01-.31,0-.78.07-1.02.27-.18.15-.25.28.07.28,5.45,0,10.9.02,16.35-.01.31,0,.78-.07,1.02-.27.17-.15.25-.28-.07-.28h0Z"/>
  <path class="st0" d="M54.01,84.01c-1.04-2.63-2.54-5.06-3.75-7.61-.24-.5-1.65-.04-1.45.39,1.21,2.55,2.72,4.98,3.75,7.61.2.51,1.63.08,1.45-.39h0Z"/>
  <path class="st0" d="M16.11,16.35c.92.53,1.81,1.12,2.73,1.64,1.42.81,2.82,1.65,4.22,2.48.24.14.69,0,.93-.1.07-.02.64-.27.44-.39-1.41-.83-2.81-1.67-4.22-2.48-.92-.53-1.81-1.11-2.73-1.64-.25-.14-.69,0-.93.1-.07.02-.64.27-.44.39h0Z"/>
  <path class="st0" d="M23.42,67.95c-1.25.75-2.5,1.5-3.76,2.25-.62.37-1.23.73-1.85,1.1-.56.34-1.12.73-1.75.96-.29.11-.68.33-.59.7.08.33.59.42.86.32,1.37-.5,2.6-1.39,3.84-2.13s2.59-1.54,3.88-2.32c.26-.16.55-.45.34-.76-.19-.28-.72-.28-.99-.12h.02Z"/>
  <path class="st0" d="M32.18,12.44c-.71-1.57-1.41-3.15-2.12-4.72l-.3-.68c-.13-.29-.58-.23-.82-.16-.16.04-.75.27-.63.55.71,1.57,1.41,3.15,2.12,4.72l.3.68c.13.29.58.23.82.16.16-.04.75-.27.63-.55h0Z"/>
</svg>