<?xml version="1.0" encoding="UTF-8"?>
<svg id="_レイヤー_1" xmlns="http://www.w3.org/2000/svg" version="1.1" viewBox="0 0 80 80">
  <!-- Generator: Adobe Illustrator 30.0.0, SVG Export Plug-In . SVG Version: 2.1.1 Build 123)  -->
  <defs>
    <style>
      .st0 {
        fill: none;
      }

      .st1 {
        fill: #ceb372;
      }

      .st2 {
        fill: #fff;
      }
    </style>
  </defs>
  <path class="st2" d="M40.44,73.19c1.55.72,7.55-7.52,8.63-8.83,4.93-5.96,9.85-11.91,14.78-17.87,2.46-2.98,4.93-5.96,7.39-8.93,1.26-1.52,2.52-3.04,3.78-4.57,1.12-1.36,2.44-2.48,1.32-4.2-3.76-5.8-7.51-11.61-11.27-17.41-.33-.5-.68-1.03-1.23-1.33-.57-.31-1.27-.32-1.94-.32-14.53-.02-29.06-.03-43.58-.05-.62,0-1.27,0-1.79.31-.45.27-.73.72-.98,1.15-3.43,5.81-6.85,11.63-10.28,17.44-.32.54-.64,1.12-.56,1.72.07.53.43.98.78,1.4,11.2,13.48,22.39,26.95,33.59,40.43l1.36,1.03Z"/>
  <g>
    <path class="st1" d="M30.53,12.29l-5.6,18.2-17.68-.15,10.35-17.04c.42-.74,1.27-1.21,2.18-1.19l10.74.19Z"/>
    <g>
      <path class="st1" d="M11.61,31.09c.43,0,.33-.27.76-.27.42,0,.67.25,1.1.26.43,0,.43-.1.85-.1.42,0,.43.25.86.25.42,0,.53-.2.95-.2.42,0,.3-.49.72-.48.42,0,.48.54.9.54.42,0,.53-.14.95-.14.42,0,.27.37.69.38.42,0,.43-.35.86-.34.42,0,.42.05.85.05.42,0,.45.26.87.27.42,0,.49-.38.91-.38.42,0,.82.35.84.35v-1.6s-.54.16-.96.16c-.42,0-.42-.2-.84-.21-.42,0-.43.22-.85.21-.42,0-.41-.27-.84-.27-.42,0-.3.46-.72.45-.42,0-.56-.16-.98-.17-.42,0-.37-.13-.79-.13-.42,0-.47.19-.9.19-.42,0-.43-.35-.85-.35-.42,0-.42.35-.84.34-.42,0-.42-.12-.85-.12-.42,0-.42-.16-.85-.16-.42,0-.39.4-.81.4-.42,0-.46-.33-.89-.33-.42,0-.42.15-.85.15-.42,0-.52-.27-.84-.28v1.6c.3,0,.26-.21.69-.2.43,0,.42.13.85.13Z"/>
      <path class="st1" d="M12.45,20.4c-.15.25.11.34-.04.59-.15.25-.45.27-.61.52-.15.25-.06.31-.21.56-.15.25-.37.13-.52.38-.15.25-.01.42-.16.67-.15.25.31.42.16.68-.15.25-.63.01-.78.26-.15.25-.06.39-.21.64-.15.25-.42-.03-.57.22-.15.25.14.43,0,.69-.15.25-.19.23-.34.48-.15.25-.38.13-.54.38-.15.25.16.48,0,.74-.15.25-.59.31-.6.32l1.37.83s.06-.41.21-.66c.15-.25.32-.15.47-.4.15-.25-.04-.37.12-.62.15-.25.38-.11.53-.36.15-.25-.29-.41-.14-.66.15-.25.34-.25.49-.5.15-.25.24-.16.39-.41.15-.25,0-.38.16-.63.15-.25.45-.08.6-.33.15-.25-.15-.42,0-.67.15-.25.25-.19.4-.44.15-.25.28-.17.43-.42.15-.25-.21-.43-.06-.68.15-.25.45-.11.6-.36.15-.25.02-.33.17-.58.15-.25.42-.17.54-.36l-1.37-.82c-.11.19.08.27-.07.52-.15.25-.26.19-.41.44Z"/>
      <path class="st1" d="M17.56,12.22c-.28.27-.02.39-.23.67-.19.3-.47.29-.63.55-.15.25-.06.31-.21.56-.15.25-.37.13-.52.38-.15.25,0,.42-.16.67-.15.25.32.42.16.67-.15.25-.63.01-.79.26-.15.25-.06.39-.21.64-.15.25-.42-.03-.57.22-.15.25.15.43,0,.68-.15.25-.19.23-.34.48-.15.25-.38.13-.54.38-.15.25.16.48,0,.73-.15.25-.59.31-.6.32l1.37.82s.05-.41.21-.66c.15-.25.32-.15.48-.4.15-.25-.04-.36.11-.62.15-.25.38-.11.53-.36.15-.25-.29-.41-.14-.66.15-.25.34-.25.49-.5.15-.25.24-.16.39-.41.15-.25,0-.38.16-.63.15-.25.45-.08.6-.33.15-.25-.15-.42,0-.67.15-.25.25-.19.4-.44.15-.25.28-.17.43-.42.15-.25-.21-.43-.06-.68.14-.23.41-.04.55-.18.15-.14.06-.26.25-.39.21-.12.36.12.5.07l-.48-1.53c-.27.1-.16.27-.49.43-.31.18-.38.08-.68.33Z"/>
      <path class="st1" d="M27.35,11.52c-.29,0-.23.27-.53.26-.29,0-.46-.26-.76-.26-.29,0-.3.1-.59.1-.29,0-.3-.25-.59-.26-.29,0-.37.2-.66.2-.29,0-.21.49-.5.48-.29,0-.33-.54-.62-.54-.29,0-.37.14-.66.14-.29,0-.18-.37-.48-.38-.29,0-.3.34-.6.34-.29,0-.29-.05-.59-.05-.29,0-.3-.27-.6-.27-.29,0-.33.37-.68.39-.33.02-.74-.21-.78-.2l.48,1.53s.22-.24.45-.25c.21,0,.27.2.54.2.29,0,.3-.22.59-.21.29,0,.28.27.58.28.29,0,.21-.46.5-.45.29,0,.38.17.67.17.29,0,.26.13.55.13.29,0,.33-.19.62-.18.29,0,.29.35.59.35.29,0,.29-.34.58-.34.29,0,.29.12.58.13.29,0,.29.16.58.16.29,0,.27-.4.56-.4.29,0,.32.33.61.34.29,0,.3-.15.59-.15.29,0,.36.28.58.28l.03-1.6c-.22,0-.19.21-.49.2-.29,0-.29-.13-.58-.13Z"/>
      <path class="st1" d="M28.54,21.19c.07-.23-.2-.26-.13-.5.07-.23.35-.3.42-.53.07-.23-.03-.27.04-.5.07-.23.31-.17.38-.4.07-.23-.11-.35-.04-.58.07-.23-.42-.3-.35-.54.07-.23.59-.11.66-.34.07-.23-.05-.33.02-.57.07-.23.4-.04.47-.27.07-.23-.26-.34-.19-.57.07-.23.11-.22.19-.45.07-.23.32-.17.4-.4.07-.23-.29-.38-.22-.61.07-.23.47-.35.47-.36l-1.53-.47s.07.35,0,.58c-.07.23-.26.17-.33.41-.07.23.14.3.07.53-.07.23-.32.15-.4.38-.07.23.39.3.32.53-.07.23-.25.26-.32.49-.07.23-.18.17-.25.4-.07.23.1.32.03.55-.07.23-.4.14-.47.37-.07.23.26.33.19.56-.07.23-.18.2-.25.43-.07.23-.22.19-.29.42-.07.23.32.33.25.56-.07.23-.39.16-.46.39-.07.23.08.28,0,.51-.07.23-.35.21-.4.39l1.53.47c.05-.17-.15-.21-.08-.45.07-.23.19-.19.26-.43Z"/>
      <path class="st1" d="M26.23,28.7c.07-.23-.2-.26-.13-.5.07-.23.35-.3.42-.53.07-.23-.03-.27.04-.5.07-.23.31-.17.38-.4.07-.23-.11-.35-.04-.58.07-.23-.42-.3-.35-.54.07-.23.59-.11.66-.34.07-.23-.05-.33.02-.57.07-.23.4-.04.47-.27.07-.23-.26-.34-.19-.57.07-.23.11-.22.19-.45.07-.23.32-.17.4-.4.07-.23-.29-.38-.22-.61.07-.23.47-.35.47-.36l-1.53-.47s.07.35,0,.58c-.07.23-.26.17-.33.41-.07.23.14.3.07.53-.07.23-.32.15-.4.38-.07.23.39.3.32.53-.07.23-.25.26-.32.49-.07.23-.18.17-.25.4-.07.23.1.32.03.55-.07.23-.4.14-.47.37-.07.23.26.33.19.56-.07.23-.18.2-.25.43-.07.23-.22.19-.29.42-.07.23.32.33.25.56-.07.23-.39.16-.46.39-.07.23.08.28,0,.51-.07.23-.35.21-.4.39l1.53.47c.05-.17-.15-.21-.08-.45.07-.23.19-.19.26-.43Z"/>
      <g>
        <path class="st1" d="M7.8,28.11l-.04.07-.04.07-.1.15-.09.15-.04.07-.03.07v.04s-.02.04-.02.04v.03s0,.03,0,.03v.07s.02.07.02.07v.07s.02.07.02.07v.07s0,.04,0,.04v.04s-.02.04-.02.04l-.02.04-.04.08c-.03.05-.07.11-.11.16l-.05.08-.05.08-.04.08v.04s-.02.04-.02.04v.07s0,.06,0,.06v.11s.02.11.02.11v.06s0,.06,0,.06v.03s0,.02,0,.02h0s0,.01,0,.01h0s.09.02.09.02c.06,0,.13.01.2.02.07,0,.14.01.2.02h.09s.04.02.04.02h.04s.03.03.03.03l.03.02.03.02.02.02.04.04.04.05.04.05.04.04.02.02.03.02h.03s.03.03.03.03c.05.01.11.03.16.04l.18.04c.12.02.25.05.35.07h.04s.04,0,.04,0h.07s.06-.01.06-.01h.06s.13-.04.13-.04h.07s.05,0,.08,0h.04s.04.02.04.02l.08.03s.1.06.15.08l.08.04.08.04h.04s.04.03.04.03h.05s.05.01.05.01v-.8s0-.4,0-.4v-.4s-.05,0-.07,0c-.02,0-.04,0-.05,0h-.05s-.02,0-.02,0h-.03s-.03,0-.03,0h-.03s-.05.01-.05.01c-.03.01-.07.02-.11.04l-.07.02h-.07s-.04,0-.04,0h-.05s-.05-.01-.05-.01h-.05c-.07-.03-.19-.05-.32-.08-.06-.01-.12-.03-.18-.04h-.04s-.02-.02-.02-.02h0s0,0,0,0h0s0,0,0,0h0s0,0,0,0h0s0,0,0,0v-.02s0-.02,0-.02v-.04s0-.04,0-.04v-.04s.02-.04.02-.04l.03-.08.03-.07s.05-.09.07-.12l.03-.05v-.03s.02-.02.02-.02v-.02s.02-.02.02-.02v-.02s.03-.02.03-.02l.04-.04.05-.04.09-.07.04-.04.02-.02v-.02s.03-.03.04-.05c.01-.02.03-.04.04-.06.03-.04.06-.09.09-.13l-.34-.21-.34-.21-.68-.41-.03.06-.03.07s-.03.1-.05.15l-.05.16-.03.08-.03.07Z"/>
        <polygon class="st0" points="10.09 28.76 10.06 31.96 4.42 31.91 7.35 27.1 10.09 28.76"/>
      </g>
      <g>
        <path class="st1" d="M30.7,14.07v-.06s.03-.06.03-.06l.05-.13.04-.13v-.06s.02-.06.02-.06v-.03s0-.03,0-.03v-.03s-.02-.03-.02-.03l-.03-.05-.03-.05-.06-.1-.02-.05v-.03s-.01-.03-.01-.03v-.03s0-.03,0-.03l.02-.07s.03-.09.05-.14l.03-.07.02-.07v-.03s.01-.03.01-.03v-.03s0-.03,0-.03v-.05s-.03-.05-.03-.05l-.04-.08-.05-.08-.02-.04-.02-.05v-.02s-.02-.01-.02-.01h0s0,0,0,0h0s-.03-.01-.03-.01h-.03s-.07-.02-.07-.02h-.08c-.05-.01-.11-.02-.15-.03l-.07-.02h-.03s-.03-.02-.03-.02l-.02-.02-.02-.02-.02-.02-.02-.02-.03-.05-.03-.05-.03-.05-.03-.04-.02-.02-.02-.02h-.02s-.03-.03-.03-.03c-.04-.01-.08-.03-.12-.04l-.14-.04c-.09-.02-.19-.05-.26-.07h-.03s-.03,0-.03,0h-.03s-.03,0-.03,0h-.05s-.05.02-.05.02l-.1.03h-.05s-.03,0-.03,0h-.03s-.03,0-.03,0h-.03s-.03-.02-.03-.02l-.03-.02s-.07-.06-.11-.09l-.06-.04-.06-.04-.03-.02h-.03s-.03-.02-.03-.02h-.04s-.01.8-.01.8v.4s-.01.4-.01.4c.02,0,.04,0,.05,0h.04s.04-.01.04-.01h.02s.02,0,.02,0h.02s.02,0,.02,0h.04s.05-.03.08-.05l.05-.02h.03s.03,0,.03,0h.03s.03,0,.03,0h.04s.04.02.04.02c.05.01.14.04.24.07.05.01.09.03.13.04h.03s.01.02.01.02h0s0,0,0,0v.02s.02.02.02.02v.03s.02.03.02.03v.03s0,.03,0,.03v.06s-.01.06-.01.06c-.01.04-.02.07-.03.1v.05s-.01.02-.01.02v.02s0,.02,0,.02v.02s-.01.02-.01.02v.02s-.04.03-.04.03l-.03.03-.06.07-.02.04v.02s-.01.02-.01.02c0,.01,0,.03-.01.04l-.02.05s-.03.08-.04.11l.38.12.38.12.76.24v-.05s.02-.06.02-.06c0-.04,0-.08,0-.12v-.13s0-.06,0-.06v-.06Z"/>
        <polygon class="st0" points="28.38 13.85 28.43 10.65 32.69 10.72 31.43 14.79 28.38 13.85"/>
      </g>
      <g>
        <path class="st1" d="M24,31.17h.04s.04,0,.04,0h.07s.07.01.07.01h.04s.03-.01.03-.01h.02s.01-.02.01-.02h.01s.01-.03.01-.03l.02-.04.02-.04.04-.08.03-.04h.01s.02-.03.02-.03h.02s.02-.01.02-.01h.02s.02,0,.02,0h.04s.04,0,.04,0h.04s.04,0,.04,0h.02s.02,0,.02,0h.02s.02-.02.02-.02l.03-.03.02-.03.04-.06.04-.07.04-.07v-.02s.02-.01.02-.01h0s0,0,0,0h0s.01-.02.01-.02v-.02s.04-.04.04-.04l.02-.04.04-.08v-.02s.02-.02.02-.02h.01s.02-.02.02-.02h.02s.02-.01.02-.01h.04s.1-.01.1-.01h.05s.05,0,.05,0h.04s.02-.02.02-.02h.02s.06-.06.06-.06l.06-.06s.07-.09.11-.12h.01s0-.03,0-.03c0,0,0-.01,0-.01h0s0-.04,0-.04v-.03s-.01-.03-.01-.03v-.03s0-.02,0-.02v-.02s0-.02,0-.02v-.02s.02-.01.02-.01h.01s.02-.02.02-.02h.02s.06-.04.1-.05l.05-.02.05-.02h.02s.02-.03.02-.03v-.02s.02-.02.02-.02l-.76-.24-.38-.12-.38-.12s0,.02,0,.02c0,0,0,.01,0,.01v.02s0,.02,0,.02h0s0,.02,0,.02h0s0,.02,0,.02h0s0,.02,0,.02l.02.06v.03s0,.02,0,.02v.02s0,.02,0,.02v.02s-.02.02-.02.02l-.02.02s-.06.07-.1.11l-.06.06h-.01s0,.02,0,.02h0s0,0,0,0l-.02.03-.02.02-.02.02h-.02s-.02.03-.02.03h-.02s-.02.01-.02.01h-.03s-.06,0-.06,0h-.03s-.01,0-.01,0h-.01s-.01.01-.01.01h-.01s-.01,0-.01,0h-.01s-.02-.02-.02-.02l-.02-.02-.05-.04h-.01s-.01-.01-.01-.01h-.01s-.01,0-.01,0h-.02s-.03,0-.03,0c-.02,0-.05,0-.07,0v.4s0,.4,0,.4v.8s0,0,0,0c0,0,0,0,.01,0h.03s.07-.04.07-.04l.07-.04h.03s.03-.02.03-.02Z"/>
        <polygon class="st0" points="23.75 28.87 26.81 29.81 26.11 32.09 23.73 32.07 23.75 28.87"/>
      </g>
    </g>
  </g>
  <g>
    <polygon class="st1" points="57.21 33.81 74.06 33.91 44.29 69.72 57.21 33.81"/>
    <g>
      <path class="st1" d="M67.62,42.78c.17-.2-.08-.33.09-.54.17-.2.46-.16.63-.37.17-.2.09-.27.26-.48.17-.2.36-.05.53-.26.17-.2.05-.39.22-.59.17-.2-.26-.45-.09-.66.17-.2.6.11.77-.09.17-.2.1-.35.26-.55.17-.2.39.11.56-.1.17-.2-.1-.43.07-.63.17-.2.2-.18.37-.38.17-.2.38-.05.55-.25.17-.2-.1-.48.07-.68.17-.2.59-.17.6-.19l-1.23-1.02s-.09.37-.26.57c-.17.2-.32.07-.49.28-.17.2,0,.35-.17.55-.17.2-.37.03-.54.23-.17.2.24.44.07.64-.17.2-.34.16-.51.37-.17.2-.24.1-.41.3-.17.2-.04.35-.21.55-.17.2-.44-.01-.6.19-.17.2.1.42-.06.63-.17.2-.26.13-.43.33-.17.2-.29.11-.45.31-.17.2.16.44,0,.65-.17.2-.44.01-.6.22-.17.2-.05.3-.22.51-.17.2-.42.08-.54.23l1.23,1.02c.13-.15-.05-.27.12-.47.17-.2.26-.12.43-.33Z"/>
      <path class="st1" d="M62.17,49.33c.17-.2-.08-.33.09-.54.17-.2.46-.16.63-.37.17-.2.09-.27.26-.48.17-.2.36-.05.53-.26.17-.2.05-.39.22-.59.17-.2-.26-.45-.09-.66.17-.2.6.11.77-.09.17-.2.1-.35.26-.55.17-.2.39.11.56-.1.17-.2-.1-.43.07-.63.17-.2.2-.18.37-.38.17-.2.38-.05.55-.25.17-.2-.1-.48.07-.68.17-.2.59-.17.6-.19l-1.23-1.02s-.09.37-.26.57c-.17.2-.32.07-.49.28-.17.2,0,.35-.17.55-.17.2-.37.03-.54.23-.17.2.24.44.07.64-.17.2-.34.16-.51.37-.17.2-.24.1-.41.3-.17.2-.04.35-.21.55-.17.2-.44-.01-.6.19-.17.2.1.42-.06.63-.17.2-.26.13-.43.33-.17.2-.29.11-.45.31-.17.2.16.44,0,.65-.17.2-.44.01-.6.22-.17.2-.05.3-.22.51-.17.2-.42.08-.54.23l1.23,1.02c.13-.15-.05-.27.12-.47.17-.2.26-.12.43-.33Z"/>
      <path class="st1" d="M56.72,55.88c.17-.2-.08-.33.09-.54.17-.2.46-.16.63-.37.17-.2.09-.27.26-.48.17-.2.36-.05.53-.26.17-.2.05-.39.22-.59.17-.2-.26-.45-.09-.66.17-.2.6.11.77-.09.17-.2.1-.35.26-.55.17-.2.39.11.56-.1.17-.2-.1-.43.07-.63.17-.2.2-.18.37-.38.17-.2.38-.05.55-.25.17-.2-.1-.48.07-.68.17-.2.59-.17.6-.19l-1.23-1.02s-.09.37-.26.57c-.17.2-.32.07-.49.28-.17.2,0,.35-.17.55-.17.2-.37.03-.54.23-.17.2.24.44.07.64-.17.2-.34.16-.51.37-.17.2-.24.1-.41.3-.17.2-.04.35-.21.55-.17.2-.44-.01-.6.19-.17.2.1.42-.06.63-.17.2-.26.13-.43.33-.17.2-.29.11-.45.31-.17.2.16.44,0,.65-.17.2-.44.01-.6.22-.17.2-.05.3-.22.51-.17.2-.42.08-.54.23l1.23,1.02c.13-.15-.05-.27.12-.47.17-.2.26-.12.43-.33Z"/>
      <path class="st1" d="M51.27,62.44c.17-.2-.08-.33.09-.54.17-.2.46-.16.63-.37.17-.2.09-.27.26-.48.17-.2.36-.05.53-.26.17-.2.05-.39.22-.59.17-.2-.26-.45-.09-.66.17-.2.6.11.77-.09.17-.2.1-.35.26-.55.17-.2.39.11.56-.1.17-.2-.1-.43.07-.63.17-.2.2-.18.37-.38.17-.2.38-.05.55-.25.17-.2-.1-.48.07-.68.17-.2.59-.17.6-.19l-1.23-1.02s-.09.37-.26.57c-.17.2-.32.07-.49.28-.17.2,0,.35-.17.55-.17.2-.37.03-.54.23-.17.2.24.44.07.64-.17.2-.34.16-.51.37-.17.2-.24.1-.41.3-.17.2-.04.35-.21.55-.17.2-.44-.01-.6.19-.17.2.1.42-.06.63-.17.2-.26.13-.43.33-.17.2-.29.11-.45.31-.17.2.16.44,0,.65-.17.2-.44.01-.6.22-.17.2-.05.3-.22.51-.17.2-.42.08-.54.23l1.23,1.02c.13-.15-.05-.27.12-.47.17-.2.26-.12.43-.33Z"/>
      <path class="st1" d="M49.49,53.15c-.1.27.18.31.08.58-.1.27-.39.35-.49.62-.1.27,0,.31-.09.58-.1.27-.33.2-.43.47-.1.27.07.41-.02.68-.1.27.39.35.29.63-.1.27-.61.13-.71.4-.1.27.02.39-.08.66-.1.27-.41.05-.51.32-.1.27.23.39.13.67-.1.27-.14.26-.24.53-.1.27-.35.2-.45.47-.1.27.25.44.15.71-.1.27-.51.41-.52.43l1.51.54s-.03-.41.07-.68c.1-.27.29-.2.38-.47.1-.27-.11-.35-.01-.62.1-.27.35-.18.44-.45.1-.27-.36-.34-.27-.62.1-.27.28-.3.38-.57.1-.27.2-.2.3-.47.1-.27-.07-.37.02-.64.1-.27.42-.16.52-.43.1-.27-.23-.38-.14-.66.1-.27.21-.23.3-.5.1-.27.24-.22.34-.49.1-.27-.29-.38-.2-.65.1-.27.41-.19.51-.46.1-.27-.05-.32.05-.6.1-.27.38-.25.45-.45l-1.51-.54c-.07.2.13.25.04.52-.1.27-.21.23-.31.5Z"/>
      <path class="st1" d="M52.64,44.39c-.1.27.18.31.08.58-.1.27-.39.35-.49.62-.1.27,0,.31-.09.58-.1.27-.33.2-.43.47-.1.27.07.41-.02.68-.1.27.39.35.29.63-.1.27-.61.13-.71.4-.1.27.02.39-.08.66-.1.27-.41.05-.51.32-.1.27.23.39.13.67-.1.27-.14.26-.24.53-.1.27-.35.2-.45.47-.1.27.25.44.15.71-.1.27-.51.41-.52.43l1.51.54s-.03-.41.07-.68c.1-.27.29-.2.38-.47.1-.27-.11-.35-.01-.62.1-.27.35-.18.44-.45.1-.27-.36-.34-.27-.62.1-.27.28-.3.38-.57.1-.27.2-.2.3-.47.1-.27-.07-.37.02-.64.1-.27.42-.16.52-.43.1-.27-.23-.38-.14-.66.1-.27.21-.23.3-.5.1-.27.24-.22.34-.49.1-.27-.29-.38-.2-.65.1-.27.41-.19.51-.46.1-.27-.05-.32.05-.6.1-.27.38-.25.45-.45l-1.51-.54c-.07.2.13.25.04.52-.1.27-.21.23-.31.5Z"/>
      <path class="st1" d="M55.8,35.62c-.1.27.18.31.08.58-.1.27-.39.35-.49.62-.1.27,0,.31-.09.58-.1.27-.33.2-.43.47-.1.27.07.41-.02.68-.1.27.39.35.29.63-.1.27-.61.13-.71.4-.1.27.02.39-.08.66-.1.27-.41.05-.51.32-.1.27.23.39.13.67-.1.27-.14.26-.24.53-.1.27-.35.2-.45.47-.1.27.25.44.15.71-.1.27-.51.41-.52.43l1.51.54s-.03-.41.07-.68c.1-.27.29-.2.38-.47.1-.27-.11-.35-.01-.62.1-.27.35-.18.44-.45.1-.27-.36-.34-.27-.62.1-.27.28-.3.38-.57.1-.27.2-.2.3-.47.1-.27-.07-.37.02-.64.1-.27.42-.16.52-.43.1-.27-.23-.38-.14-.66.1-.27.21-.23.3-.5.1-.27.24-.22.34-.49.1-.27-.29-.38-.2-.65.1-.27.41-.19.51-.46.1-.27-.05-.32.05-.6.1-.27.38-.25.45-.45l-1.51-.54c-.07.2.13.25.04.52-.1.27-.21.23-.31.5Z"/>
      <path class="st1" d="M69.28,33.16c-.38,0-.3.27-.69.27-.38,0-.61-.25-.99-.25-.38,0-.38.11-.77.1-.38,0-.39-.25-.77-.25-.38,0-.48.2-.86.2-.38,0-.27.49-.65.49-.38,0-.43-.54-.82-.54-.38,0-.48.15-.86.14-.38,0-.24-.37-.63-.37-.38,0-.39.35-.77.34-.38,0-.38-.05-.77-.05-.38,0-.4-.26-.78-.27-.38,0-.44.38-.82.38-.38,0-.74-.35-.76-.35v1.6s.49-.16.87-.16c.38,0,.38.2.76.2.38,0,.39-.22.77-.22.38,0,.37.27.76.27.38,0,.27-.46.65-.46.38,0,.5.16.88.16.38,0,.34.12.72.13.38,0,.43-.19.81-.19.38,0,.39.34.77.35.38,0,.38-.35.76-.35.38,0,.38.12.76.12.38,0,.38.15.76.16.38,0,.35-.4.73-.4.38,0,.42.33.8.33.38,0,.38-.15.77-.15.38,0,.47.27.76.27v-1.6c-.28,0-.24.21-.63.21-.38,0-.38-.13-.76-.13Z"/>
      <g>
        <path class="st1" d="M46.03,62.83c-.06.17-.12.34-.18.52-.07.18-.13.36-.2.54-.07.18-.13.36-.2.53-.06.17-.11.34-.17.51l-.06.23c-.01.06-.02.13-.04.2l-.02.18v.17c-.03.12-.04.23-.05.34l-.03.19-.05.22c-.02.08-.05.16-.07.25-.03.09-.06.18-.09.27-.07.19-.14.39-.22.59-.07.2-.14.4-.21.58-.03.09-.06.18-.09.26l-.06.23c-.01.07-.03.13-.04.19l-.03.17-.04.29c0,.09-.02.18-.03.28-.02.11-.03.22-.05.34v.09s-.02.04-.02.04v.02s0,0,0,0h.01c.06-.07.13-.14.19-.21.14-.15.28-.32.43-.49.15-.17.3-.34.43-.5.07-.08.13-.15.2-.22.06-.06.12-.12.17-.17l.15-.13.13-.09.12-.07.11-.06.11-.06.12-.08.13-.1.15-.14c.23-.24.5-.52.77-.8.27-.29.55-.59.78-.83.06-.07.11-.12.16-.18.05-.06.09-.12.14-.17l.24-.33c.08-.11.16-.22.24-.34.05-.06.09-.12.14-.18.05-.06.1-.12.16-.19.06-.06.11-.12.18-.19.06-.05.12-.11.18-.17.12-.1.25-.21.38-.33l.2-.17c.07-.06.13-.12.2-.18.07-.07.13-.13.2-.2l.2-.22-.62-.51-.31-.26-.31-.26c-.11.14-.18.23-.25.32-.03.04-.06.08-.09.12-.03.04-.07.08-.1.12l-.11.13s-.06.09-.1.14c-.06.09-.13.19-.2.3-.04.06-.08.11-.12.17-.05.06-.1.12-.15.19-.06.07-.11.14-.18.21-.07.07-.14.15-.22.24-.15.16-.43.45-.71.75-.14.15-.28.29-.4.42l-.09.09-.04.04h0s0,.01,0,.01h0s0,0,0,0h0s0,0,0,0v-.02s0-.09.01-.12c.02-.09.03-.17.04-.25.02-.09.04-.17.06-.25.03-.09.05-.17.07-.25.03-.08.05-.16.08-.24.06-.16.11-.3.15-.44.02-.07.04-.13.06-.19.02-.06.03-.11.05-.16.02-.06.03-.1.05-.16.02-.05.04-.1.06-.16.05-.09.1-.2.15-.31.05-.11.11-.22.16-.32.02-.06.05-.11.07-.16.02-.06.04-.11.06-.16.07-.19.22-.6.32-.88l-.38-.14-.38-.14-.75-.27c-.04.13-.09.28-.14.44-.04.15-.09.32-.14.49l-.14.51c-.05.17-.11.34-.15.5Z"/>
        <polygon class="st0" points="48.87 61.7 51.33 63.75 39.7 77.74 45.86 60.62 48.87 61.7"/>
      </g>
      <g>
        <path class="st1" d="M58.09,33.12h-.03s-.03,0-.03,0h-.07s-.04-.01-.04-.01h-.04s-.03,0-.03,0h-.02s-.02.01-.02.01h-.02s-.01.02-.01.02h-.01s-.01.03-.01.03l-.02.04-.02.04-.04.09-.02.04h-.01s-.01.03-.01.03h-.02s-.02.01-.02.01h-.02s-.02,0-.02,0h-.04s-.04,0-.04,0h-.04s-.04,0-.04,0h-.02s-.02,0-.02,0h-.02s-.01.02-.01.02l-.02.03-.02.03-.04.06-.03.07-.04.07-.02.04h-.02s-.01.03-.01.03l-.02.03-.02.04-.04.07v.02s-.03.01-.03.01h-.01s-.02.02-.02.02h-.02s-.02.01-.02.01h-.04s-.1,0-.1,0h-.05s-.05,0-.05,0h-.04s-.02.01-.02.01h-.02s-.06.06-.06.06l-.06.06s-.08.08-.11.11h-.01s0,.03,0,.03h0s0,.03,0,.03v.03s0,.03,0,.03v.03s.01.03.01.03h0s0,.03,0,.03c0,0,0,0,0,.01h0s-.01.03-.01.03h-.01s-.02.02-.02.02h-.02s-.06.03-.1.04l-.05.02-.05.02h-.02s-.02.02-.02.02h-.01s0,.03,0,.03l.75.27.38.14.38.14s0-.01,0-.01h0s0-.04,0-.04v-.02s0,0,0,0h0s0-.02,0-.02h0s0-.02,0-.02h0s-.02-.07-.02-.07v-.03s0-.02,0-.02v-.02s0-.02,0-.02v-.02s.02-.02.02-.02l.02-.02s.06-.06.1-.1l.06-.05h.01s0-.02,0-.02h0s0,0,0,0v-.03s.03-.02.03-.02l.02-.02h.02s.02-.03.02-.03h.02s.02-.01.02-.01h.03s.06,0,.06,0h.03s.01,0,.01,0h.01s.01-.01.01-.01h.01s.01,0,.01,0h.01s.02.02.02.02l.02.02.04.04h.01s.01.01.01.01h.01s.01,0,.01,0h.02s.03,0,.03,0c.02,0,.04,0,.06,0v-.4s0-.4,0-.4v-.8s0,0,0,0h-.01s-.03.01-.03.01l-.06.03-.07.04h-.03s-.03.02-.03.02Z"/>
        <polygon class="st0" points="58.33 35.41 55.32 34.33 56.09 32.2 58.35 32.21 58.33 35.41"/>
      </g>
      <g>
        <path class="st1" d="M72.91,36.37l.06-.08.07-.08.14-.16.14-.16.06-.08.05-.08.02-.04.02-.04v-.04s.02-.04.02-.04v-.08s.02-.07.02-.07v-.07s.01-.08.01-.08l.02-.08v-.04s.03-.04.03-.04l.02-.04.03-.04.06-.09c.05-.06.1-.12.15-.18.05-.06.1-.12.15-.17l.06-.09.02-.04.02-.04.02-.07.02-.07.02-.12v-.12s.02-.07.02-.07l.02-.07v-.04s0-.02,0-.02h0s0-.01,0-.01h0s-.1-.02-.1-.02c-.08,0-.16-.01-.24-.02-.08,0-.17-.01-.25-.02-.04,0-.07,0-.11-.01h-.05s-.04-.02-.04-.02l-.04-.02-.03-.02-.03-.02-.03-.02-.05-.04-.04-.05-.04-.05-.05-.04-.03-.02-.03-.02h-.04s-.04-.03-.04-.03c-.06-.01-.13-.03-.2-.04-.07-.01-.14-.03-.22-.04-.15-.02-.3-.05-.42-.07-.03,0-.06,0-.09,0h-.08s-.08.01-.08.01h-.08s-.15.04-.15.04h-.08s-.06,0-.09,0h-.05s-.05-.02-.05-.02c-.03,0-.06-.02-.09-.03-.06-.03-.12-.06-.18-.08l-.09-.04-.1-.04h-.05s-.05-.03-.05-.03h-.05s-.06-.01-.06-.01v.8s0,.4,0,.4v.4s.06,0,.08,0c.02,0,.05,0,.07,0h.06s.04,0,.06,0h.03s.03,0,.03,0h.06s.09-.04.13-.05l.08-.02h.09s.05,0,.05,0h.05s.06.01.06.01h.06c.08.03.23.05.38.08.07.01.15.03.21.04h.05s.02.02.02.02h0s0,0,0,0h0s0,0,0,0h0s0,0,0,0h0s0,.03,0,.03v.03s-.01.05-.01.05l-.02.05-.02.05-.02.04-.05.08-.05.08s-.08.09-.11.13l-.05.06-.03.06-.02.03-.02.02-.02.02-.02.02-.05.04-.06.04s-.08.05-.11.07l-.05.04-.02.02-.02.03s-.06.07-.1.12c-.04.05-.09.1-.12.14l.31.26.31.26.62.51.05-.07.05-.07c.03-.05.06-.11.1-.17l.1-.18.05-.09.05-.08Z"/>
        <polygon class="st0" points="70.67 35.49 70.69 32.29 77.46 32.33 73.13 37.53 70.67 35.49"/>
      </g>
    </g>
  </g>
  <g>
    <path d="M47.28,65.2c-.23.3.09.44-.15.74-.23.3-.61.28-.85.58-.23.3-.13.38-.36.67-.24.29-.48.11-.72.4-.24.29-.09.52-.33.81-.24.29.3.59.06.88-.25.29-.79-.11-1.03.17-.25.28-.17.47-.42.75-.25.27-.5-.14-.75.13-.25.26.06.57-.21.83-.26.25-.3.22-.56.46-.24.22-.55.05-.67.14-.13.1.02.59-.23.72-.28.14-.46-.4-.44-.41l-.33,2.1s.2.03.43-.05c.23-.06.5-.19.73-.29.45-.23.55,0,1.02-.34.25-.18.27-.3.3-.42.04-.12.07-.24.22-.37.29-.27.52-.02.8-.3.28-.28-.21-.6.06-.88.26-.28.49-.23.75-.52.26-.28.34-.15.6-.44.25-.29.1-.48.35-.77.25-.29.58-.02.83-.32.24-.3-.1-.57.14-.86.24-.3.35-.2.59-.5.24-.3.39-.18.62-.48.24-.3-.19-.58.05-.88.23-.3.58-.08.81-.38.23-.3.08-.42.31-.72.23-.3.55-.16.73-.38l-1.57-1.24c-.18.23.05.36-.18.66-.23.3-.35.2-.59.5Z"/>
    <path d="M55.05,55.74c-.24.29.07.45-.17.74-.24.29-.62.27-.86.56-.24.29-.14.38-.38.67-.24.29-.48.1-.73.4-.24.29-.1.53-.34.82-.24.29.3.59.06.88-.24.29-.79-.09-1.03.2-.24.29-.16.48-.4.77-.24.29-.51-.11-.75.18-.24.29.09.58-.15.87-.24.29-.28.26-.53.55-.24.29-.51.1-.75.39-.24.29.1.64-.15.93-.24.28-.81.31-.82.33l1.57,1.24s.12-.49.37-.79c.24-.29.43-.13.67-.42.24-.29.03-.47.27-.76.24-.29.49-.07.73-.37.24-.29-.27-.57-.03-.86.24-.29.47-.26.71-.55.24-.29.33-.16.57-.45.24-.29.08-.48.32-.77.24-.29.58-.03.82-.32.24-.29-.1-.56.14-.86.24-.29.35-.2.59-.49.24-.29.39-.17.63-.46.24-.29-.17-.59.07-.88.24-.29.58-.06.82-.35.24-.29.09-.42.33-.71.24-.29.56-.15.74-.37l-1.54-1.27c-.18.22.05.36-.2.65-.24.29-.36.19-.6.48Z"/>
    <path d="M62.84,46.33c-.24.29.07.45-.17.74-.24.29-.62.27-.86.56-.24.29-.14.38-.38.67-.24.29-.48.1-.73.4-.24.29-.1.53-.34.82-.24.29.3.59.06.88-.24.29-.79-.09-1.03.2-.24.29-.16.48-.4.77-.24.29-.51-.11-.75.18-.24.29.09.58-.15.87-.24.29-.28.26-.53.55-.24.29-.51.1-.75.39-.24.29.1.64-.15.93-.24.29-.8.29-.81.31l1.54,1.27s.15-.51.39-.8c.24-.29.43-.13.67-.42.24-.29.03-.47.27-.76.24-.29.49-.07.73-.37.24-.29-.27-.57-.03-.86.24-.29.47-.26.71-.55.24-.29.33-.16.57-.45.24-.29.08-.48.32-.77.24-.29.58-.03.82-.32.24-.29-.1-.56.14-.86.24-.29.35-.2.59-.49.24-.29.39-.17.63-.46.24-.29-.17-.59.07-.88.24-.29.58-.06.82-.35.24-.29.09-.42.33-.71.24-.29.56-.15.74-.37l-1.54-1.27c-.18.22.05.36-.2.65-.24.29-.36.19-.6.48Z"/>
    <path d="M70.62,36.92c-.24.29.07.45-.17.74-.24.29-.62.27-.86.56-.24.29-.14.38-.38.67-.24.29-.48.1-.73.4-.24.29-.1.53-.34.82-.24.29.3.59.06.88-.24.29-.79-.09-1.03.2-.24.29-.16.48-.4.77-.24.29-.51-.11-.75.18-.24.29.09.58-.15.87-.24.29-.28.26-.53.55-.24.29-.51.1-.75.39-.24.29.1.64-.15.93-.24.29-.8.29-.81.31l1.54,1.27s.15-.51.39-.8c.24-.29.43-.13.67-.42.24-.29.03-.47.27-.76.24-.29.49-.07.73-.37.24-.29-.27-.57-.03-.86.24-.29.47-.26.71-.55.24-.29.33-.16.57-.45.24-.29.08-.48.32-.77.24-.29.58-.03.82-.32.24-.29-.1-.56.14-.86.24-.29.35-.2.59-.49.24-.29.39-.17.63-.46.24-.29-.17-.59.07-.88.24-.29.58-.06.82-.35.24-.29.09-.42.33-.71.24-.29.56-.15.74-.37l-1.54-1.27c-.18.22.05.36-.2.65-.24.29-.36.19-.6.48Z"/>
    <path d="M74.76,27.98c.21.32.45.06.65.38.2.31.09.69.25.97.14.24.26.19.33.43.05.24-.26.27-.28.44-.03.17.2.3.06.57-.15.25.42.51.2.81-.23.3-.78-.09-1.01.19-.24.28-.17.47-.41.77-.24.29-.51-.11-.76.19-.24.29.09.57-.15.87-.24.29-.28.26-.53.55-.24.29-.51.1-.75.39-.24.29.1.64-.15.93-.24.29-.8.29-.81.31l1.54,1.27s.15-.51.39-.8c.24-.29.43-.13.67-.42.24-.29.03-.47.27-.76.24-.29.49-.07.73-.37.24-.29-.27-.57-.03-.86.24-.29.47-.26.71-.54.24-.28.33-.15.58-.44.25-.3.1-.49.35-.82.24-.34.61-.11.85-.55.21-.49-.19-.63-.11-1.1.03-.49.18-.51.07-1.02-.15-.48.01-.56-.23-.99-.23-.37-.62-.02-.83-.35-.21-.32.12-.57-.09-.89-.21-.32-.37-.21-.57-.53-.21-.32.03-.58-.13-.82l-1.68,1.09c.15.24.35.06.56.38.21.32.07.4.28.72Z"/>
    <path d="M68.12,17.73c.21.32.45.06.65.38.21.32.07.67.27.99.21.32.32.25.53.56.21.32-.05.49.16.81.21.32.47.25.68.57.21.32.66-.11.86.21.21.32-.32.73-.12,1.04.21.32.41.29.62.61.21.32-.26.46-.05.77.21.32.58.09.78.41.21.32.16.35.37.67.21.32-.06.51.15.83.21.32.64.1.85.42.21.32.04.85.05.87l1.68-1.09s-.44-.3-.65-.62c-.21-.32,0-.45-.2-.77-.21-.32-.44-.17-.64-.49-.21-.32.08-.49-.13-.81-.21-.32-.63.09-.83-.23-.2-.32-.1-.53-.31-.84-.2-.32-.05-.36-.26-.68-.21-.32-.43-.22-.64-.54-.21-.32.15-.56-.06-.87-.21-.32-.57-.07-.77-.39-.21-.32-.08-.4-.29-.71-.21-.32-.05-.42-.25-.74-.21-.32-.61-.01-.82-.33-.21-.32.12-.57-.09-.89-.21-.32-.37-.21-.57-.53-.21-.32.03-.58-.13-.82l-1.68,1.09c.15.24.35.06.56.38.21.32.07.4.28.72Z"/>
    <path d="M60.48,10.64c.38,0,.3-.34.68-.34.38,0,.61.31.97.31.35,0,.36-.13.68-.1.31.05.25.35.45.42.17.08.34-.12.55.06.19.2.6-.26.82.03.22.31-.32.71-.12,1.03.21.32.41.29.62.61.21.32-.26.46-.05.77.21.32.58.09.78.41.21.32.16.35.37.67.21.32-.06.51.15.83.21.32.64.1.85.42.21.32.04.85.05.87l1.68-1.09s-.44-.3-.65-.62c-.21-.32,0-.45-.2-.77-.21-.32-.44-.17-.64-.49-.21-.32.08-.49-.13-.81-.21-.32-.63.09-.83-.23-.2-.32-.1-.53-.31-.84-.2-.32-.05-.36-.26-.68-.21-.32-.43-.23-.67-.56-.26-.33.07-.63-.32-1-.44-.35-.68.02-1.11-.17-.45-.15-.42-.28-.87-.35-.43-.04-.43-.22-.84-.23-.39,0-.35.51-.73.51-.38,0-.42-.41-.79-.41-.38,0-.38.19-.76.19-.38,0-.47-.34-.76-.34v2c.28,0,.24-.26.63-.26.38,0,.38.15.76.16Z"/>
    <path d="M48.27,10.63c.38,0,.3-.34.68-.34.38,0,.6.31.98.31.38,0,.38-.13.76-.13.38,0,.39.31.77.31.38,0,.47-.26.85-.26.38,0,.26-.61.64-.61.38,0,.43.67.81.67.38,0,.47-.18.85-.18.38,0,.24.46.62.46.38,0,.39-.44.77-.43.38,0,.38.05.76.06.38,0,.4.33.78.33.38,0,.43-.48.81-.48.38,0,.73.43.75.43v-2s-.49.21-.87.21c-.38,0-.38-.25-.75-.25-.38,0-.38.28-.76.28-.38,0-.37-.33-.75-.33-.38,0-.26.57-.64.57-.38,0-.5-.2-.87-.2-.38,0-.33-.15-.71-.15-.38,0-.42.24-.8.24-.38,0-.39-.43-.76-.43-.38,0-.37.44-.75.44-.38,0-.38-.15-.76-.15-.38,0-.38-.19-.76-.19-.38,0-.34.51-.72.51-.38,0-.42-.41-.79-.41-.38,0-.38.19-.76.19-.38,0-.47-.34-.76-.34v2c.28,0,.24-.26.63-.26.38,0,.38.15.76.16Z"/>
    <path d="M36.06,10.61c.38,0,.3-.34.68-.34.38,0,.6.31.98.31.38,0,.38-.13.76-.13.38,0,.39.31.77.31.38,0,.47-.26.85-.26.38,0,.26-.61.64-.61.38,0,.43.67.81.67.38,0,.47-.18.85-.18.38,0,.24.46.62.46.38,0,.39-.44.77-.43.38,0,.38.05.76.06.38,0,.4.33.78.33.38,0,.43-.48.81-.48.38,0,.73.43.75.43v-2s-.49.21-.87.21c-.38,0-.38-.25-.75-.25-.38,0-.38.28-.76.28-.38,0-.37-.33-.75-.33-.38,0-.26.57-.64.57-.38,0-.5-.2-.87-.2-.38,0-.33-.15-.71-.15-.38,0-.42.24-.8.24-.38,0-.39-.43-.76-.43-.38,0-.37.44-.75.44-.38,0-.38-.15-.76-.15-.38,0-.38-.19-.76-.19-.38,0-.34.51-.72.51-.38,0-.42-.41-.79-.41-.38,0-.38.19-.76.19-.38,0-.47-.34-.76-.34v2c.28,0,.24-.26.63-.26.38,0,.38.15.76.16Z"/>
    <path d="M23.84,10.6c.38,0,.3-.34.68-.34.38,0,.6.31.98.31.38,0,.38-.13.76-.13.38,0,.39.31.77.31.38,0,.47-.26.85-.26.38,0,.26-.61.64-.61.38,0,.43.67.81.67.38,0,.47-.18.85-.18.38,0,.24.46.62.46.38,0,.39-.44.77-.43.38,0,.38.05.76.06.38,0,.4.33.78.33.38,0,.43-.48.81-.48.38,0,.73.43.75.43v-2s-.49.21-.87.21c-.38,0-.38-.25-.75-.25-.38,0-.38.28-.76.28-.38,0-.37-.33-.75-.33-.38,0-.26.57-.64.57-.38,0-.5-.2-.87-.2-.38,0-.33-.15-.71-.15-.38,0-.42.24-.8.24-.38,0-.39-.43-.76-.43-.38,0-.37.44-.75.44-.38,0-.38-.15-.76-.15-.38,0-.38-.19-.76-.19-.38,0-.34.51-.72.51-.38,0-.42-.41-.79-.41-.38,0-.38.19-.76.19-.38,0-.47-.34-.76-.34v2c.28,0,.24-.26.63-.26.38,0,.38.15.76.16Z"/>
    <path d="M14.63,14.48c.19-.33-.14-.43.05-.76.19-.33.57-.36.77-.69.19-.33.08-.4.27-.72.19-.33.46-.18.65-.51.19-.32,0-.53.18-.77.17-.2-.35-.56-.07-.79.31-.2.64.41.82.35.26-.05.33-.24.68-.25.36,0,.23.46.61.46.38,0,.39-.44.77-.43.38,0,.38.05.76.06.38,0,.4.33.78.33.38,0,.43-.48.81-.48.38,0,.73.43.75.43v-2s-.49.21-.87.21c-.38,0-.38-.25-.75-.25-.38,0-.38.28-.76.28-.38,0-.37-.33-.75-.33-.38,0-.26.57-.64.57-.38,0-.49-.21-.91-.19-.43.03-.39-.14-.87-.04-.53.15-.49.4-.9.66-.36.3-.72.07-1.01.46-.26.39.14.6-.06.93-.19.33-.32.25-.51.58-.19.33-.36.23-.55.56-.19.33.26.55.07.88-.19.33-.56.15-.75.48-.19.33-.02.42-.22.75-.19.33-.53.23-.67.48l1.72,1.02c.14-.24-.1-.35.09-.67.19-.33.32-.25.52-.57Z"/>
    <path d="M8.43,25.01c.19-.33-.14-.43.05-.76.19-.33.57-.36.77-.69.19-.33.08-.4.27-.72.19-.33.46-.18.65-.51.19-.33.02-.54.21-.86.19-.33-.39-.54-.2-.86.19-.33.79-.03.99-.36.19-.33.08-.5.27-.83.19-.33.52.03.72-.3.19-.33-.18-.55.01-.88.19-.33.24-.3.43-.63.19-.33.48-.18.68-.51.19-.33-.2-.62,0-.94.19-.33.74-.41.75-.43l-1.72-1.02s-.07.53-.26.85c-.19.33-.41.2-.6.52-.19.33.05.47-.15.79-.19.33-.48.15-.67.48-.19.33.36.52.17.84-.19.32-.42.33-.62.65-.19.32-.3.21-.49.53-.19.33,0,.49-.2.81-.19.33-.56.12-.76.44-.19.33.19.54,0,.87-.19.33-.32.25-.51.58-.19.33-.36.23-.55.56-.19.33.26.55.07.88-.19.33-.56.15-.75.48-.19.33-.02.42-.22.75-.19.33-.53.23-.67.48l1.72,1.02c.14-.24-.1-.35.09-.67.19-.33.32-.25.52-.57Z"/>
    <path d="M8.75,34.26c-.24-.29-.45-.01-.69-.3-.24-.29-.15-.66-.39-.95-.24-.29-.35-.21-.59-.5-.24-.29-.01-.5-.25-.79-.24-.29-.5-.2-.74-.49-.23-.28-.64.2-.86-.1-.2-.31.4-.61.34-.8-.04-.21-.23-.28-.16-.53.04-.13.17-.13.29-.11.12.01.23.05.3-.09.14-.27-.22-.5-.03-.83.19-.33.24-.3.43-.63.19-.33.48-.18.68-.51.19-.33-.2-.62,0-.94.19-.33.74-.41.75-.43l-1.72-1.02s-.07.53-.26.85c-.19.33-.41.2-.6.52-.19.33.05.47-.15.79-.19.33-.48.15-.67.48-.19.33.36.52.16.87-.18.35-.46.46-.57.96-.06.5-.22.45-.13.99.16.53.42.48.69.89.25.34-.07.62.18.92.24.29.57,0,.81.3.24.29.13.38.37.67.24.29.1.41.34.7.24.29.61-.06.85.23.24.29-.05.58.19.87.24.29.39.17.63.46.24.29.04.58.22.8l1.54-1.28c-.18-.22-.36-.02-.6-.31-.24-.29-.12-.39-.36-.68Z"/>
    <path d="M16.56,43.66c-.24-.29-.45-.01-.69-.3-.24-.29-.15-.66-.39-.95-.24-.29-.35-.21-.59-.5-.24-.29-.01-.5-.25-.79-.24-.29-.5-.2-.74-.49-.24-.29-.64.19-.88-.1-.24-.29.24-.76,0-1.05-.24-.29-.44-.24-.69-.53-.24-.29.2-.48-.04-.78-.24-.29-.58-.02-.82-.31-.24-.29-.2-.33-.44-.62-.24-.29,0-.52-.25-.81-.24-.29-.65-.02-.89-.32-.24-.29-.14-.84-.15-.86l-1.54,1.28s.47.24.71.54c.24.29.05.45.29.74.24.29.46.12.7.41.24.29-.02.5.22.79.24.29.61-.16.85.13.24.29.16.51.41.8.24.29.1.35.34.64.24.29.46.17.7.46.24.29-.08.57.16.86.24.29.57,0,.81.3.24.29.13.38.37.67.24.29.1.41.34.7.24.29.61-.06.85.23.24.29-.05.58.19.87.24.29.39.17.63.46.24.29.04.58.22.8l1.54-1.28c-.18-.22-.36-.02-.6-.31-.24-.29-.12-.39-.36-.68Z"/>
    <path d="M24.36,53.05c-.24-.29-.45-.01-.69-.3-.24-.29-.15-.66-.39-.95-.24-.29-.35-.21-.59-.5-.24-.29-.01-.5-.25-.79-.24-.29-.5-.2-.74-.49-.24-.29-.64.19-.88-.1-.24-.29.24-.76,0-1.05-.24-.29-.44-.24-.69-.53-.24-.29.2-.48-.04-.78-.24-.29-.58-.02-.82-.31-.24-.29-.2-.33-.44-.62-.24-.29,0-.52-.25-.81-.24-.29-.65-.02-.89-.32-.24-.29-.14-.84-.15-.86l-1.54,1.28s.47.24.71.54c.24.29.05.45.29.74.24.29.46.12.7.41.24.29-.02.5.22.79.24.29.61-.16.85.13.24.29.16.51.41.8.24.29.1.35.34.64.24.29.46.17.7.46.24.29-.08.57.16.86.24.29.57,0,.81.3.24.29.13.38.37.67.24.29.1.41.34.7.24.29.61-.06.85.23.24.29-.05.58.19.87.24.29.39.17.63.46.24.29.04.58.22.8l1.54-1.28c-.18-.22-.36-.02-.6-.31-.24-.29-.12-.39-.36-.68Z"/>
    <path d="M32.17,62.45c-.24-.29-.45-.01-.69-.3-.24-.29-.15-.66-.39-.95-.24-.29-.35-.21-.59-.5-.24-.29-.01-.5-.25-.79-.24-.29-.5-.2-.74-.49-.24-.29-.64.19-.88-.1-.24-.29.24-.76,0-1.05-.24-.29-.44-.24-.69-.53-.24-.29.2-.48-.04-.78-.24-.29-.58-.02-.82-.31-.24-.29-.2-.33-.44-.62-.24-.29,0-.52-.25-.81-.24-.29-.65-.02-.89-.32-.24-.29-.14-.84-.15-.86l-1.54,1.28s.47.24.71.54c.24.29.05.45.29.74.24.29.46.12.7.41.24.29-.02.5.22.79.24.29.61-.16.85.13.24.29.16.51.41.8.24.29.1.35.34.64.24.29.46.17.7.46.24.29-.08.57.16.86.24.29.57,0,.81.3.24.29.13.38.37.67.24.29.1.41.34.7.24.29.61-.06.85.23.24.29-.05.58.19.87.24.29.39.17.63.46.24.29.04.58.22.8l1.54-1.28c-.18-.22-.36-.02-.6-.31-.24-.29-.12-.39-.36-.68Z"/>
    <path d="M39.87,71.64c-.14-.1-.17-.04-.28-.02-.11.02-.18.08-.32-.09-.24-.29-.15-.66-.39-.95-.24-.29-.35-.21-.59-.5-.24-.29-.01-.5-.25-.79-.24-.29-.5-.2-.74-.49-.24-.29-.64.19-.88-.1-.24-.29.24-.76,0-1.05-.24-.29-.44-.24-.69-.53-.24-.29.2-.48-.04-.78-.24-.29-.58-.02-.82-.31-.24-.29-.2-.33-.44-.62-.24-.29,0-.52-.25-.81-.24-.29-.65-.02-.89-.32-.24-.29-.14-.84-.15-.86l-1.54,1.28s.47.24.71.54c.24.29.05.45.29.74.24.29.46.12.7.41.24.29-.02.5.22.79.24.29.61-.16.85.13.24.29.16.51.41.8.24.29.1.35.34.64.24.29.46.17.7.46.24.29-.08.57.16.86.24.29.57,0,.81.3.24.29.13.38.37.67.24.29.1.41.34.7.24.29.61-.06.85.23.19.23.03.44.17.77.04.06.1.13.19.2.33.25.4.06.82.37.39.31.4.7.77.86l.33-2.11c-.11-.08-.16.2-.36.06-.2-.15-.06-.24-.38-.48Z"/>
  </g>
  <g>
    <path d="M32.5,10.45c-.03-.13-.11-.26-.2-.35-.09-.09-.22-.16-.36-.2-.14-.04-.28-.04-.41-.01-.13.03-.28.07-.38.16-.1.09-.16.22-.2.35l1.53.46c.04-.13.05-.27.02-.4Z"/>
    <path d="M30.08,18.53c.08-.27-.2-.29-.12-.56.08-.27.37-.36.45-.63.08-.27-.02-.3.06-.57.08-.27.32-.21.4-.48.08-.27-.1-.39-.02-.66.08-.27-.41-.33-.33-.6.08-.27.6-.15.68-.42.08-.27-.04-.38.04-.65.08-.27.41-.07.49-.34.08-.27-.25-.37-.17-.64.08-.27.12-.26.2-.53.08-.27.33-.21.42-.48.08-.27-.28-.42-.2-.69.08-.27.49-.42.49-.44l-1.53-.46s.05.4-.03.66c-.08.27-.27.21-.35.48-.08.27.13.33.05.6-.08.27-.33.19-.41.46-.08.27.38.32.3.59-.08.27-.26.31-.34.58-.08.27-.19.2-.27.47-.08.27.09.36.01.63-.08.27-.41.18-.49.45-.08.27.26.36.18.63-.08.27-.19.24-.27.5-.08.27-.23.23-.31.49-.08.27.32.36.24.63-.08.27-.4.2-.48.47-.08.27.07.31-.01.58-.08.27-.36.26-.42.46l1.53.46c.06-.2-.15-.24-.07-.51.08-.27.2-.23.28-.5Z"/>
    <path d="M27.47,27.21c.08-.27-.2-.29-.12-.56.08-.27.37-.36.45-.63.08-.27-.02-.3.06-.57.08-.27.32-.21.4-.48.08-.27-.1-.39-.02-.66.08-.27-.41-.33-.33-.6.08-.27.6-.15.68-.42.08-.27-.04-.38.04-.65.08-.27.41-.07.49-.34.08-.27-.25-.37-.17-.64.08-.27.12-.26.2-.53.08-.27.33-.21.42-.48.08-.27-.28-.42-.2-.69.08-.27.49-.42.49-.44l-1.53-.46s.05.4-.03.66c-.08.27-.27.21-.35.48-.08.27.13.33.05.6-.08.27-.33.19-.41.46-.08.27.38.32.3.59-.08.27-.26.31-.34.58-.08.27-.19.2-.27.47-.08.27.09.36.01.63-.08.27-.41.18-.49.45-.08.27.26.36.18.63-.08.27-.19.24-.27.5-.08.27-.23.23-.31.49-.08.27.32.36.24.63-.08.27-.4.2-.48.47-.08.27.07.31-.01.58-.08.27-.36.26-.42.46l1.53.46c.06-.2-.15-.24-.07-.51.08-.27.2-.23.28-.5Z"/>
    <path d="M28.35,35.41c-.09-.27-.33-.12-.42-.39-.09-.27.09-.5,0-.77-.09-.27-.19-.23-.28-.5-.09-.27.14-.35.05-.62-.09-.27-.31-.27-.4-.53-.09-.27-.53-.03-.62-.3-.09-.27.4-.47.32-.74-.09-.27-.25-.28-.34-.55-.09-.27.29-.29.21-.56-.07-.21-.39-.07-.46-.28.03-.18.09-.17.14-.35.08-.27.33-.21.42-.48.08-.27-.28-.42-.2-.69.08-.27.49-.42.49-.44l-1.53-.46s.05.4-.03.66c-.08.27-.27.21-.35.48-.08.27.13.33.05.61-.09.36-.43.33-.45.75.14.41.56.22.67.54.09.27-.03.4.05.67.09.27-.04.27.05.54.09.27.28.24.37.5.09.27-.23.38-.14.65.09.27.42.15.51.42.09.27-.02.3.07.57.09.27-.05.31.03.58.09.27.47.11.56.38.09.27-.21.4-.12.66.09.27.24.22.33.48.09.27-.15.42-.08.62l1.52-.51c-.07-.2-.26-.11-.35-.38-.09-.27.03-.3-.06-.57Z"/>
    <path d="M31.23,44.01c-.09-.27-.33-.12-.42-.39-.09-.27.09-.5,0-.77-.09-.27-.19-.23-.28-.5-.09-.27.14-.35.05-.62-.09-.27-.31-.26-.4-.53-.09-.27-.53-.03-.62-.3-.09-.27.4-.47.31-.74-.09-.27-.25-.28-.34-.55-.09-.27.29-.29.2-.56-.09-.27-.42-.16-.51-.43-.09-.27-.05-.28-.14-.55-.09-.27.15-.36.06-.63-.09-.27-.47-.18-.56-.45-.09-.27.15-.62.15-.64l-1.52.51s.27.29.36.56c.09.27-.1.33-.01.6.09.27.3.2.39.46.09.27-.16.35-.08.61.09.27.5.04.59.31.09.27-.03.4.06.67.09.27-.04.27.05.54.09.27.28.24.37.5.09.27-.23.38-.14.65.09.27.42.15.51.42.09.27-.02.3.07.57.09.27-.05.31.03.58.09.27.47.11.56.38.09.27-.21.4-.12.66.09.27.24.22.33.48.09.27-.14.42-.08.62l1.52-.51c-.07-.2-.26-.11-.35-.37-.09-.27.03-.3-.06-.57Z"/>
    <path d="M34.12,52.61c-.09-.27-.33-.12-.42-.39-.09-.27.09-.5,0-.77-.09-.27-.19-.23-.28-.5-.09-.27.14-.35.05-.62-.09-.27-.31-.26-.4-.53-.09-.27-.53-.03-.62-.3-.09-.27.4-.47.31-.74-.09-.27-.25-.28-.34-.55-.09-.27.29-.29.2-.56-.09-.27-.42-.16-.51-.43-.09-.27-.05-.28-.14-.55-.09-.27.15-.36.06-.63-.09-.27-.47-.18-.56-.45-.09-.27.15-.62.15-.64l-1.52.51s.27.29.36.56c.09.27-.1.33-.01.6.09.27.3.2.39.46.09.27-.16.35-.07.61.09.27.5.04.59.31.09.27-.03.4.06.67.09.27-.04.27.05.54.09.27.28.24.37.5.09.27-.23.38-.14.65.09.27.42.15.51.41.09.27-.02.3.07.57.09.27-.05.31.04.58.09.27.47.11.56.38.09.27-.21.4-.12.66.09.27.24.22.33.48.09.27-.14.42-.08.62l1.52-.51c-.07-.2-.26-.11-.35-.37-.09-.27.03-.3-.06-.57Z"/>
    <path d="M37.02,61.2c-.09-.27-.33-.12-.42-.39-.09-.27.09-.5,0-.77-.09-.27-.19-.23-.28-.5-.09-.27.14-.35.05-.62-.09-.27-.31-.26-.4-.53-.09-.27-.53-.03-.62-.29-.09-.27.4-.48.31-.74-.09-.27-.25-.28-.34-.55-.09-.27.29-.29.2-.56-.09-.27-.42-.16-.51-.43-.09-.27-.05-.28-.14-.55-.09-.27.15-.36.06-.63-.09-.27-.47-.18-.56-.45-.09-.27.15-.62.15-.64l-1.52.51s.27.29.36.56c.09.27-.1.33,0,.6.09.27.3.2.39.46.09.27-.16.35-.07.61.09.27.5.04.59.3.09.27-.03.4.06.67.09.27-.04.27.05.54.09.27.28.24.37.5.09.27-.23.38-.14.65.09.27.42.15.51.41.09.27-.02.3.07.57.09.27-.05.31.04.58.09.27.47.11.56.38.09.27-.21.4-.12.66.09.27.24.22.33.48.09.27-.14.42-.07.62l1.51-.52c-.07-.2-.26-.11-.35-.37-.09-.27.03-.3-.06-.57Z"/>
    <path d="M39.97,69.76c-.09-.26-.33-.12-.42-.38-.09-.27.09-.5,0-.77-.09-.27-.19-.23-.29-.5-.09-.27.14-.35.04-.62-.09-.27-.31-.26-.4-.53-.09-.27-.53-.02-.62-.29-.09-.27.4-.48.31-.74-.09-.27-.25-.28-.35-.55-.09-.27.29-.29.2-.56-.09-.27-.42-.16-.51-.42-.09-.27-.05-.28-.14-.55-.09-.27.15-.36.06-.63-.09-.27-.47-.18-.56-.45-.09-.27.15-.63.14-.64l-1.51.52s.27.29.36.56c.09.27-.1.33,0,.6.09.27.3.2.39.46.09.27-.16.35-.07.61.09.27.5.04.59.3.09.27-.03.4.06.67.09.26-.04.27.06.54.09.27.28.23.38.5.09.27-.23.38-.14.65.09.27.42.15.51.41.09.27-.02.3.08.57.09.27-.05.32.04.58.09.27.47.11.56.37.09.27-.2.4-.11.67.1.27.24.21.34.48.1.27-.13.42-.06.62l1.5-.55c-.07-.2-.26-.1-.35-.36-.09-.26.02-.3-.07-.57Z"/>
    <path d="M40.25,71.4c.09-.11.13-.24.15-.36.03-.12.04-.23,0-.35h0s-1.5.55-1.5.55h0c.05.14.14.28.25.36.11.09.25.14.38.15.13.01.27-.02.4-.08.13-.07.24-.16.33-.27Z"/>
  </g>
  <g>
    <path d="M50.47,10.05c-.1-.09-.23-.15-.37-.18-.13-.03-.27-.01-.41.03-.14.04-.25.12-.34.22-.1.1-.2.21-.23.34-.03.13-.01.27.03.4l1.53-.46c-.04-.13-.11-.25-.21-.34Z"/>
    <path d="M52.93,18.12c-.08-.27-.32-.13-.41-.4-.08-.27.11-.5.03-.77-.08-.27-.19-.24-.27-.51-.08-.27.15-.35.07-.62-.08-.27-.3-.27-.38-.54-.08-.27-.52-.04-.61-.31-.08-.27.42-.46.34-.73-.08-.27-.24-.29-.33-.56-.08-.27.3-.28.22-.55-.08-.27-.42-.17-.5-.44-.08-.27-.04-.28-.12-.55-.08-.27.16-.36.08-.63-.08-.27-.46-.2-.54-.47-.08-.27.17-.62.17-.64l-1.53.46s.26.3.35.57c.08.27-.11.33-.03.59.08.27.29.21.38.48.08.27-.17.34-.09.61.08.27.5.05.58.32.08.27-.05.4.04.67.08.27-.05.27.04.54.08.27.28.24.36.51.08.27-.24.37-.16.64.08.27.41.16.5.43.08.27-.03.3.05.57.08.27-.06.31.02.58.08.27.46.12.54.39.08.27-.22.39-.14.66.08.27.23.22.31.49.08.27-.16.41-.1.62l1.53-.46c-.06-.2-.25-.11-.34-.39-.08-.27.04-.3-.05-.57Z"/>
    <path d="M55.56,26.8c-.08-.27-.32-.13-.41-.4-.08-.27.11-.5.03-.77-.08-.27-.19-.24-.27-.51-.08-.27.15-.35.07-.62-.08-.27-.3-.27-.38-.54-.08-.27-.52-.04-.61-.31-.08-.27.42-.46.34-.73-.08-.27-.24-.29-.33-.56-.08-.27.3-.28.22-.55-.08-.27-.42-.17-.5-.44-.08-.27-.04-.28-.12-.55-.08-.27.16-.36.08-.63-.08-.27-.46-.2-.54-.47-.08-.27.17-.62.17-.64l-1.53.46s.26.3.35.57c.08.27-.11.33-.03.59.08.27.29.21.38.48.08.27-.17.34-.09.61.08.27.5.05.58.32.08.27-.05.4.04.67.08.27-.05.27.04.54.08.27.28.24.36.51.08.27-.24.37-.16.64.08.27.41.16.5.43.08.27-.03.3.05.57.08.27-.06.31.02.58.08.27.46.12.54.39.08.27-.22.39-.14.66.08.27.23.22.31.49.08.27-.16.41-.1.62l1.53-.46c-.06-.2-.25-.11-.34-.39-.08-.27.04-.3-.05-.57Z"/>
    <path d="M54.65,35.86c.09-.27-.19-.3-.09-.56.09-.27.38-.34.47-.61.09-.27-.01-.3.08-.57.09-.27.33-.19.42-.46.09-.27-.08-.4,0-.66.09-.27-.4-.34-.31-.61.09-.27.61-.13.7-.4.09-.27-.03-.38.06-.65.09-.27.41-.05.5-.32.11-.33-.21-.48-.09-.8,0-.02.01-.04.01-.04-.09-.32-.06-.35-.16-.69-.08-.27.16-.36.08-.63-.08-.27-.46-.2-.54-.47-.08-.27.17-.62.17-.64l-1.53.46s.26.3.35.57c.08.27-.11.33-.03.59.08.27.3.21.37.47.05.16-.18.2-.18.29v.02c-.05.12.42.15.35.36-.09.27-.27.3-.36.56-.09.27-.2.19-.29.46-.09.27.08.36,0,.63-.09.27-.42.16-.51.43-.09.27.24.37.15.64-.09.27-.2.23-.29.49-.09.27-.23.22-.33.48-.09.27.3.37.21.64-.09.27-.41.19-.5.45-.09.27.06.32-.04.58-.09.27-.37.24-.44.44l1.51.52c.07-.2-.14-.24-.05-.51.09-.27.21-.22.3-.49Z"/>
    <path d="M51.71,44.45c.09-.27-.19-.3-.09-.56.09-.27.38-.34.47-.61.09-.27-.01-.3.08-.57.09-.27.33-.19.42-.46.09-.27-.08-.4,0-.66.09-.27-.4-.34-.31-.61.09-.27.61-.13.7-.4.09-.27-.03-.38.06-.65.09-.27.41-.05.5-.32.09-.27-.24-.38-.15-.65.09-.27.13-.25.22-.52.09-.27.34-.2.43-.46.09-.27-.26-.43-.17-.7.09-.27.5-.4.51-.42l-1.51-.52s.04.4-.05.66c-.09.27-.28.2-.37.47-.09.27.12.34.03.61-.09.27-.34.18-.43.44-.09.27.37.33.28.6-.09.27-.27.3-.36.56-.09.27-.2.19-.29.46-.09.27.08.36,0,.63-.09.27-.42.16-.51.43-.09.27.24.37.15.64-.09.27-.2.23-.29.49-.09.27-.23.22-.33.48-.09.27.3.37.21.64-.09.27-.41.19-.5.45-.09.27.06.32-.04.58-.09.27-.37.24-.44.44l1.51.52c.07-.2-.14-.24-.05-.51.09-.27.21-.22.3-.49Z"/>
    <path d="M48.77,53.04c.09-.27-.19-.3-.09-.56.09-.27.38-.34.47-.61.09-.27-.01-.3.08-.57.09-.27.33-.19.42-.46.09-.27-.08-.4,0-.66.09-.27-.4-.34-.31-.61.09-.27.61-.13.7-.4.09-.27-.03-.38.06-.65.09-.27.41-.05.5-.32.09-.27-.24-.38-.15-.65.09-.27.13-.25.22-.52.09-.27.34-.2.43-.46.09-.27-.26-.43-.17-.7.09-.27.5-.4.51-.42l-1.51-.52s.04.4-.05.66c-.09.27-.28.2-.37.47-.09.27.12.34.03.61-.09.27-.34.18-.43.44-.09.27.37.33.28.6-.09.27-.27.3-.36.56-.09.27-.2.19-.29.46-.09.27.08.36,0,.63-.09.27-.42.16-.51.43-.09.27.24.37.15.64-.09.27-.2.23-.29.49-.09.27-.23.22-.33.48-.09.27.3.37.21.64-.09.27-.41.19-.5.45-.09.27.06.32-.04.58-.09.27-.37.24-.44.44l1.51.52c.07-.2-.14-.24-.05-.51.09-.27.21-.22.3-.49Z"/>
    <path d="M45.83,61.63c.09-.27-.19-.3-.09-.56.09-.27.38-.34.47-.61.09-.27-.01-.3.08-.57.09-.27.33-.19.42-.46.09-.27-.08-.4,0-.66.09-.27-.4-.34-.31-.61.09-.27.61-.13.7-.4.09-.27-.03-.38.06-.65.09-.27.41-.05.5-.32.09-.27-.24-.38-.15-.65.09-.27.13-.25.22-.52.09-.27.34-.2.43-.46.09-.27-.26-.43-.17-.7.09-.27.5-.4.51-.42l-1.51-.52s.04.4-.05.66c-.09.27-.28.2-.37.47-.09.27.12.34.03.61-.09.27-.34.18-.43.44-.09.27.37.33.28.6-.09.27-.27.3-.36.56-.09.27-.2.19-.29.46-.09.27.08.36,0,.63-.09.27-.42.16-.51.43-.09.27.24.37.15.64-.09.27-.2.23-.29.49-.09.27-.23.22-.33.48-.09.27.3.37.21.64-.09.27-.41.19-.5.45-.09.27.06.32-.04.58-.09.27-.37.24-.44.44l1.51.52c.07-.2-.14-.24-.05-.51.09-.27.21-.22.3-.49Z"/>
    <path d="M42.89,70.21c.09-.27-.19-.3-.09-.56.09-.27.38-.34.47-.61.09-.27-.01-.3.08-.57.09-.27.33-.19.42-.46.09-.27-.08-.4,0-.66.09-.27-.4-.34-.31-.61.09-.27.61-.13.7-.4.09-.27-.03-.38.06-.65.09-.27.41-.05.5-.32.09-.27-.24-.38-.15-.65.09-.27.13-.25.22-.52.09-.27.34-.2.43-.46.09-.27-.26-.43-.17-.7.09-.27.5-.4.51-.42l-1.51-.52s.04.4-.05.66c-.09.27-.28.2-.37.47-.09.27.12.34.03.61-.09.27-.34.18-.43.44-.09.27.37.33.28.6-.09.27-.27.3-.36.56-.09.27-.2.19-.29.46-.09.27.08.36,0,.63-.09.27-.42.16-.51.43-.09.27.24.37.15.64-.09.27-.2.23-.29.49-.09.27-.23.22-.33.48-.09.27.3.37.21.64-.09.27-.41.19-.5.45-.09.27.06.32-.04.58-.09.27-.37.24-.44.44l1.51.52c.07-.2-.14-.24-.05-.51.09-.27.21-.22.3-.49Z"/>
    <path d="M42.06,71.71c.13-.02.25-.1.35-.18.1-.08.19-.18.23-.31h0s-1.51-.52-1.51-.52h0c-.04.13-.06.27-.03.39.03.13.11.26.2.36.09.1.21.18.35.23.14.05.28.06.41.04Z"/>
  </g>
  <g>
    <path d="M75.22,30.95c.12-.07.23-.18.31-.3.07-.12.1-.26.1-.4,0-.14-.05-.28-.12-.39-.07-.12-.16-.25-.28-.32-.12-.07-.28-.09-.43-.09v1.6c.15,0,.3-.03.42-.1Z"/>
    <path d="M66.03,30.97c.31,0,.24-.27.55-.27.31,0,.49.25.79.25.31,0,.31-.11.62-.11.31,0,.31.25.62.25.31,0,.38-.21.69-.21.31,0,.21-.49.52-.49.31,0,.35.53.66.53.31,0,.38-.15.69-.15.31,0,.2.37.5.37.31,0,.31-.35.62-.35.31,0,.31.04.61.04.31,0,.32.26.63.26.31,0,.35-.39.66-.39.31,0,.59.34.61.34v-1.6s-.4.17-.7.17c-.31,0-.3-.2-.61-.2-.31,0-.31.22-.61.22-.31,0-.3-.27-.61-.27-.31,0-.21.46-.52.46-.31,0-.4-.16-.71-.16-.31,0-.27-.12-.58-.12-.31,0-.34.19-.65.19-.31,0-.31-.34-.62-.34-.31,0-.3.35-.61.35-.31,0-.31-.12-.61-.12-.31,0-.31-.15-.61-.15-.31,0-.28.41-.58.41-.31,0-.34-.33-.64-.33-.31,0-.31.16-.61.16-.31,0-.38-.27-.61-.27v1.6c.23,0,.2-.21.51-.21.31,0,.3.12.61.12Z"/>
    <path d="M56.14,30.97c.31,0,.24-.27.55-.27.31,0,.49.25.79.25.31,0,.31-.11.62-.11.31,0,.31.25.62.25.31,0,.38-.21.69-.21.31,0,.21-.49.52-.49.31,0,.35.53.66.53.31,0,.38-.15.69-.15.31,0,.2.37.5.37.31,0,.31-.35.62-.35.31,0,.31.04.61.04.31,0,.32.26.63.26.31,0,.35-.39.66-.39.31,0,.59.34.61.34v-1.6s-.4.17-.7.17c-.31,0-.3-.2-.61-.2-.31,0-.31.22-.61.22-.31,0-.3-.27-.61-.27-.31,0-.21.46-.52.46-.31,0-.4-.16-.71-.16-.31,0-.27-.12-.58-.12-.31,0-.34.19-.65.19-.31,0-.31-.34-.62-.34-.31,0-.3.35-.61.35-.31,0-.31-.12-.61-.12-.31,0-.31-.15-.61-.15-.31,0-.28.41-.58.41-.31,0-.34-.33-.64-.33-.31,0-.31.16-.61.16-.31,0-.38-.27-.61-.27v1.6c.23,0,.2-.21.51-.21.31,0,.3.12.61.12Z"/>
    <path d="M46.26,30.96c.31,0,.24-.27.55-.27.31,0,.49.25.79.25.31,0,.31-.11.62-.11.31,0,.31.25.62.25.31,0,.38-.21.69-.21.31,0,.21-.49.52-.49.31,0,.35.53.66.53.31,0,.38-.15.69-.15.31,0,.2.37.5.37.31,0,.31-.35.62-.35.31,0,.31.04.61.04.31,0,.32.26.63.26.31,0,.35-.39.66-.39.31,0,.59.34.61.34v-1.6s-.4.17-.7.17c-.31,0-.3-.2-.61-.2-.31,0-.31.22-.61.22-.31,0-.3-.27-.61-.27-.31,0-.21.46-.52.46-.31,0-.4-.16-.71-.16-.31,0-.27-.12-.58-.12-.31,0-.34.19-.65.19-.31,0-.31-.34-.62-.34-.31,0-.3.35-.61.35-.31,0-.31-.12-.61-.12-.31,0-.31-.15-.61-.15-.31,0-.28.41-.58.41-.31,0-.34-.33-.64-.33-.31,0-.31.16-.61.16-.31,0-.38-.27-.61-.27v1.6c.23,0,.2-.21.51-.21.31,0,.3.12.61.12Z"/>
    <path d="M36.37,30.96c.31,0,.24-.27.55-.27.31,0,.49.25.79.25.31,0,.31-.11.62-.11.31,0,.31.25.62.25.31,0,.38-.21.69-.21.31,0,.21-.49.52-.49.31,0,.35.53.66.53.31,0,.38-.15.69-.15.31,0,.2.37.5.37.31,0,.31-.35.62-.35.31,0,.31.04.61.04.31,0,.32.26.63.26.31,0,.35-.39.66-.39.31,0,.59.34.61.34v-1.6s-.4.17-.7.17c-.31,0-.3-.2-.61-.2-.31,0-.31.22-.61.22-.31,0-.3-.27-.61-.27-.31,0-.21.46-.52.46-.31,0-.4-.16-.71-.16-.31,0-.27-.12-.58-.12-.31,0-.34.19-.65.19-.31,0-.31-.34-.62-.34-.31,0-.3.35-.61.35-.31,0-.31-.12-.61-.12-.31,0-.31-.15-.61-.15-.31,0-.28.41-.58.41-.31,0-.34-.33-.64-.33-.31,0-.31.16-.61.16-.31,0-.38-.27-.61-.27v1.6c.23,0,.2-.21.51-.21.31,0,.3.12.61.12Z"/>
    <path d="M26.48,30.96c.31,0,.24-.27.55-.27.31,0,.49.25.79.25.31,0,.31-.11.62-.11.31,0,.31.25.62.25.31,0,.38-.21.69-.21.31,0,.21-.49.52-.49.31,0,.35.53.66.53.31,0,.38-.15.69-.15.31,0,.2.37.5.37.31,0,.31-.35.62-.35.31,0,.31.04.61.04.31,0,.32.26.63.26.31,0,.35-.39.66-.39.31,0,.59.34.61.34v-1.6s-.4.17-.7.17c-.31,0-.3-.2-.61-.2-.31,0-.31.22-.61.22-.31,0-.3-.27-.61-.27-.31,0-.21.46-.52.46-.31,0-.4-.16-.71-.16-.31,0-.27-.12-.58-.12-.31,0-.34.19-.65.19-.31,0-.31-.34-.62-.34-.31,0-.3.35-.61.35-.31,0-.31-.12-.61-.12-.31,0-.31-.15-.61-.15-.31,0-.28.41-.58.41-.31,0-.34-.33-.64-.33-.31,0-.31.16-.61.16-.31,0-.38-.27-.61-.27v1.6c.23,0,.2-.21.51-.21.31,0,.3.12.61.12Z"/>
    <path d="M16.59,30.96c.31,0,.24-.27.55-.27.31,0,.49.25.79.25.31,0,.31-.11.62-.11.31,0,.31.25.62.25.31,0,.38-.21.69-.21.31,0,.21-.49.52-.49.31,0,.35.53.66.53.31,0,.38-.15.69-.15.31,0,.2.37.5.37.31,0,.31-.35.62-.35.31,0,.31.04.61.04.31,0,.32.26.63.26.31,0,.35-.39.66-.39.31,0,.59.34.61.34v-1.6s-.4.17-.7.17c-.31,0-.3-.2-.61-.2-.31,0-.31.22-.61.22-.31,0-.3-.27-.61-.27-.31,0-.21.46-.52.46-.31,0-.4-.16-.71-.16-.31,0-.27-.12-.58-.12-.31,0-.34.19-.65.19-.31,0-.31-.34-.62-.34-.31,0-.3.35-.61.35-.31,0-.31-.12-.61-.12-.31,0-.31-.15-.61-.15-.31,0-.28.41-.58.41-.31,0-.34-.33-.64-.33-.31,0-.31.16-.61.16-.31,0-.38-.27-.61-.27v1.6c.23,0,.2-.21.51-.21.31,0,.3.12.61.12Z"/>
    <path d="M6.71,30.96c.31,0,.24-.27.55-.27.31,0,.49.25.79.25.31,0,.31-.11.62-.11.31,0,.31.25.62.25.31,0,.38-.21.69-.21.31,0,.21-.49.52-.49.31,0,.35.53.66.53.31,0,.38-.15.69-.15.31,0,.2.37.5.37.31,0,.31-.35.62-.35.31,0,.31.04.61.04.31,0,.32.26.63.26.31,0,.35-.39.66-.39.31,0,.59.34.61.34v-1.6s-.4.17-.7.17c-.31,0-.3-.2-.61-.2-.31,0-.31.22-.61.22-.31,0-.3-.27-.61-.27-.31,0-.21.46-.52.46-.31,0-.4-.16-.71-.16-.31,0-.27-.12-.58-.12-.31,0-.34.19-.65.19-.31,0-.31-.34-.62-.34-.31,0-.3.35-.61.35-.31,0-.31-.12-.61-.12-.31,0-.31-.15-.61-.15-.31,0-.28.41-.58.41-.31,0-.34-.33-.64-.33-.31,0-.31.16-.61.16-.28,0-.46-.27-.7-.24l.18,1.59c.21-.02.13-.23.42-.23.31,0,.3.12.61.12Z"/>
    <path d="M4.87,30.74c.08.12.24.2.38.26.14.05.29.09.42.07h0s-.18-1.59-.18-1.59h0c-.16.02-.3.07-.39.14-.1.08-.17.19-.23.31-.06.12-.1.26-.11.4,0,.14.02.29.11.41Z"/>
  </g>
</svg>