<?xml version="1.0" encoding="UTF-8"?>
<svg id="_レイヤー_1" xmlns="http://www.w3.org/2000/svg" version="1.1" viewBox="0 0 80 90">
  <!-- Generator: Adobe Illustrator 30.0.0, SVG Export Plug-In . SVG Version: 2.1.1 Build 123)  -->
  <defs>
    <style>
      .st0 {
        fill: #ceb372;
      }

      .st1 {
        fill: #fff;
      }

      .st2 {
        fill: #1a1a1a;
      }
    </style>
  </defs>
  <path class="st1" d="M40.64,86.36c-.91.02-1.48-.65-2.13-1.16-3.42-2.74-6.83-5.48-10.24-8.23-3.17-2.56-6.36-5.1-9.5-7.69-1.04-.86-3.82-3.17-3.85-3.8-.03-.57-.19-1.17-.19-1.77,0-12.52,0-25.05,0-37.57,0-1.26.34-2.29,1.44-3.12,3.09-2.32,6.05-4.82,9.06-7.25,2.89-2.32,5.77-4.64,8.66-6.96,1.81-1.45,3.63-2.9,5.43-4.38.86-.71,1.81-.7,2.59-.05,2.24,1.86,4.52,3.66,6.78,5.49,3.41,2.76,17.88,15.03,17.88,15.03,0,0,.01,7.62.01,10.91,0,9.45-.01,29.6-.01,29.6,0,0-8.94,7.8-12.71,10.86-3,2.44-10.94,8.79-11.88,9.56-.37.3-.79.48-1.29.51"/>
  <polygon class="st0" points="24.27 60.66 40.04 72.62 40.59 86.49 16.38 66.91 24.27 60.66"/>
  <polygon class="st0" points="56.76 58.48 64.92 64.73 65.13 25.78 40.99 6 40.59 19.05 56.76 31.97 56.76 58.48"/>
  <path class="st2" d="M41.39,84.25c0-3.79,0-7.58,0-11.36,0-.67.12-1.39-.3-1.96-.45-.62-1.26-1.06-1.85-1.53-1.72-1.39-3.45-2.78-5.17-4.17s-3.32-2.67-4.99-4c-.77-.61-1.54-1.22-2.3-1.84-.57-.47-1.22-1.27-1.95-1.44-.55-.13-1.04.09-1.48.39-.84.59-1.61,1.34-2.41,1.99-1.68,1.36-3.39,2.7-5.06,4.07-.76.63.42,1.04.95.6,1.42-1.17,2.87-2.32,4.31-3.47.69-.55,1.37-1.1,2.06-1.67.1-.08,1-.94,1.11-.93-.09-.01.7.71.67.68,2.74,2.3,5.58,4.48,8.36,6.72,1.4,1.13,2.81,2.26,4.21,3.4.63.51,1.76,1.13,2.22,1.81.42.63.16,2.08.16,2.84,0,3.33,0,6.66,0,9.99,0,.72,1.46.48,1.46-.13h0Z"/>
  <path class="st2" d="M46.61,81.44c-1.23.99-2.45,1.97-3.68,2.96-.37.3-.75.6-1.12.9-.33.26-.61.52-1.04.55-.3.02-.76.22-.8.56s.4.45.66.43c1.26-.08,2.12-.94,3.05-1.69,1.29-1.04,2.58-2.08,3.88-3.12.22-.18.39-.5.09-.7-.28-.19-.78-.11-1.04.1h0Z"/>
  <path class="st2" d="M34.37,9.11c1.21-.97,2.42-1.94,3.63-2.91.47-.38.93-.85,1.44-1.17,1.44-.89,1.98-.19,3.04.68,2.01,1.64,4.05,3.25,6.05,4.89,2.29,1.87,4.55,3.78,6.81,5.69,2.61,2.2,5.21,4.4,7.81,6.6.79.67,1.58,1.34,2.37,2,.15.13.3.27.46.39.14.1-.08-.45-.14-.24-.04.15,0,.41,0,.56,0,7.35,0,14.7,0,22.05,0,3.91,0,7.81,0,11.72,0,1.38,0,2.77,0,4.15,0,.23-.19,1.76,0,1.92-.06-.05.51-.48-.05-.04-.45.35-.87.76-1.3,1.13-1.49,1.29-2.98,2.59-4.48,3.87-3.55,3.05-7.15,6.02-10.79,8.96-.77.62.41,1.03.95.6,3.4-2.74,6.77-5.51,10.09-8.35,1.48-1.27,2.95-2.54,4.43-3.82.76-.66,1.64-1.28,2.32-2.02.38-.41.3-.67.3-1.22,0-1.17,0-2.33,0-3.5,0-3.97,0-7.93,0-11.9,0-7.78,0-15.57,0-23.35,0-.65.09-1.03-.37-1.47-.65-.61-1.36-1.15-2.03-1.72-2.66-2.26-5.33-4.51-8-6.76s-5.31-4.49-8.02-6.68c-1.38-1.11-2.77-2.22-4.15-3.34-1.09-.88-2.31-2.38-3.82-2.43-1.29-.04-2.2.85-3.14,1.61-1.44,1.17-2.9,2.33-4.35,3.49-.77.61.41,1.03.95.6h0Z"/>
  <path class="st2" d="M15.47,57.39c0-9.03,0-18.07,0-27.1,0-1.08,0-2.15,0-3.23,0-.9-.08-1.89.33-2.73.47-.97,1.57-1.56,2.39-2.2s1.65-1.3,2.46-1.95c3.46-2.8,6.92-5.61,10.39-8.4.77-.62-.41-1.03-.95-.6-3.66,2.94-7.29,5.91-10.95,8.85-1.41,1.13-3.32,2.16-4.39,3.63s-.74,3.54-.74,5.26c0,9.53,0,19.06,0,28.59,0,.72,1.46.48,1.46-.13h0Z"/>
  <path class="st2" d="M40.9,85.86c-.78-.07-1.26-.6-1.82-1.06-.63-.52-1.27-1.01-1.9-1.52-1.2-.96-2.4-1.93-3.6-2.89-2.47-1.98-4.93-3.98-7.4-5.97s-4.79-3.88-7.18-5.83c-.58-.47-1.17-.94-1.76-1.4-.54-.43-1.31-.87-1.54-1.56-.46-1.44-.23-3.24-.23-4.73,0-.72-1.46-.48-1.46.13,0,1.55-.08,3.12.2,4.65.22,1.26,1.31,1.84,2.26,2.6,2.76,2.19,5.47,4.44,8.21,6.65s5.56,4.49,8.35,6.73c1.33,1.07,2.66,2.13,3.98,3.2,1.04.84,1.98,1.9,3.38,2.02.67.06,1.5-.91.52-1h0Z"/>
  <path class="st2" d="M32.1,25.33c-2.49,2-4.97,3.99-7.45,6-.34.27-.84.55-1,.96-.19.5-.03,1.33-.03,1.84v4.93c0,6.49,0,12.97,0,19.46,0,.19,1.45,0,1.45-.39,0-6.16,0-12.32,0-18.47v-4.43c0-.74,0-1.48,0-2.22,0-.57-.05-.87.27-1.3.24-.33.68-.57,1-.83,2.35-1.91,4.71-3.8,7.07-5.69.27-.22-1.04-.08-1.3.14h0Z"/>
  <path class="st2" d="M63.35,26.4c-1.12.9-2.25,1.79-3.37,2.69s-2.24,2.1-3.49,2.81l1.02-.27c-.52,0-1.19-.86-1.57-1.17-.49-.4-.98-.8-1.47-1.2-1.1-.9-2.22-1.78-3.33-2.67-2.18-1.74-4.33-3.52-6.51-5.26-.92-.73-1.82-1.55-2.76-2.24-.52-.38-1.04-.32-1.63-.12-.84.28-1.44.98-2.12,1.52-1.14.91-2.27,1.83-3.41,2.74-.27.22,1.04.08,1.3-.14,1.38-1.12,2.82-2.19,4.17-3.35l.25-.23c.34-.3.33-.31-.02-.05.15.16.32.33.49.48.63.56,1.34,1.04,2,1.56,2.69,2.12,5.32,4.3,8,6.44,1.3,1.04,2.59,2.08,3.87,3.14.85.71,1.38,1.36,2.52.96,1.22-.43,2.26-1.68,3.25-2.49,1.37-1.11,2.75-2.2,4.12-3.29.27-.22-1.04-.08-1.3.14h0Z"/>
  <path class="st2" d="M56.18,55.47c0,1.02,0,2.03,0,3.05,0,.11.21.18.28.19.17.04.38.01.54-.03.27-.08.63-.23.63-.55,0-1.02,0-2.03,0-3.05,0-.11-.21-.18-.28-.19-.17-.04-.38-.01-.54.03-.27.08-.63.23-.63.55h0Z"/>
  <path class="st2" d="M56.18,32.21c0,6.81,0,13.62,0,20.43,0,.44,1.45.17,1.45-.39,0-6.81,0-13.62,0-20.43,0-.44-1.45-.17-1.45.39h0Z"/>
  <path class="st2" d="M66.62,64.97c-1.22-.48-2.21-1.56-3.22-2.37-1.15-.92-2.31-1.83-3.45-2.76-.79-.65-1.76-1.89-2.85-1.95s-1.92,1.02-2.66,1.63c-2.39,1.95-4.81,3.86-7.21,5.79s-4.58,3.99-7.05,5.64c-.81.54.36,1.12.97.71,2.13-1.43,4.09-3.27,6.1-4.87,2.22-1.78,4.44-3.58,6.66-5.35.64-.51,2.4-2.42,3.14-2.22.44.12,1.07.9,1.43,1.19.54.44,1.08.88,1.63,1.32,1.03.82,2.07,1.63,3.09,2.47.83.69,1.58,1.4,2.6,1.8.65.25,1.69-.68.83-1.02h0Z"/>
  <path class="st2" d="M39.92,4.04c0,5,0,9.99,0,14.99,0,.79,1.47.59,1.47-.1,0-5,0-9.99,0-14.99,0-.79-1.47-.59-1.47.1h0Z"/>
  <path class="st2" d="M25.03,31.71c-1.26-.87-2.4-1.88-3.59-2.83s-2.48-1.99-3.72-2.99c-.2-.16-.72.03-.93.1-.09.03-.62.23-.44.38,1.24,1,2.47,2,3.72,2.99s2.34,1.96,3.59,2.83c.22.15.71-.02.93-.1.08-.03.63-.25.44-.38h0Z"/>
</svg>