<?xml version="1.0" encoding="UTF-8"?>
<svg id="_レイヤー_2" data-name="レイヤー_2" xmlns="http://www.w3.org/2000/svg" version="1.1" viewBox="0 0 80 80">
  <!-- Generator: Adobe Illustrator 30.0.0, SVG Export Plug-In . SVG Version: 2.1.1 Build 123)  -->
  <defs>
    <style>
      .st0 {
        fill: #ceb372;
      }

      .st1, .st2 {
        fill: none;
        stroke: #000;
        stroke-linecap: round;
        stroke-linejoin: round;
      }

      .st3 {
        fill: #fff;
      }

      .st2 {
        stroke-width: 1.5px;
      }
    </style>
  </defs>
  <path class="st3" d="M40.39,73.17s33.55-38.93,34.81-40.46c1.13-1.37,2.45-2.49,1.33-4.22-3.78-5.84-7.56-11.68-11.34-17.52-.33-.51-.68-1.04-1.24-1.34-.58-.31-1.28-.32-1.95-.32-14.62-.02-29.25-.03-43.87-.05-.62,0-1.28,0-1.8.32-.46.27-.73.72-.99,1.16-3.45,5.85-6.9,11.7-10.35,17.56-.32.54-.65,1.13-.57,1.74.07.53.43.98.79,1.41,11.27,13.57,35.18,41.73,35.18,41.73Z"/>
  <path class="st0" d="M31.96,9.38l-6.42,20.47-20.88-.08,11.57-19.68c.43-.75,1.28-1.21,2.2-1.2l13.53.49Z"/>
  <polygon class="st0" points="56.18 30.51 77.14 30.12 41.47 72.91 56.18 30.51"/>
  <path class="st2" d="M40.74,73.88s33.2-39.64,34.47-41.17c1.13-1.37,2.45-2.49,1.33-4.22-3.78-5.84-7.56-11.68-11.34-17.52-.33-.51-.68-1.04-1.24-1.34-.58-.31-1.28-.32-1.95-.32-14.62-.02-29.25-.03-43.87-.05-.62,0-1.28,0-1.8.32-.46.27-.73.72-.99,1.16-3.45,5.85-6.9,11.7-10.35,17.56-.32.54-.65,1.13-.57,1.74.07.53.43.98.79,1.41,11.27,13.57,35.53,42.44,35.53,42.44Z"/>
  <path class="st1" d="M31.82,9.46l-6.13,20.4s13.95,41.78,14.64,43.12"/>
  <polyline class="st1" points="49.7 9.46 55.89 29.87 40.98 73.15"/>
  <path class="st1" d="M76.8,29.95c-23.36,0-71.91.11-72.32.08"/>
</svg>