<svg xmlns="http://www.w3.org/2000/svg" id="_レイヤー_2" data-name="レイヤー_2" viewBox="0 0 80 80"><defs><style>.st3{fill:none;stroke-linecap:round;stroke-linejoin:round;stroke:#000}.st5{fill:#fff}</style></defs><path d="M7.43 28.86c.24-.96.77-3.59.97-4.56.43-2.06.85-4.13 1.24-6.2.04-.19.13-.36.3-.5 2.22-1.85 9.54-7.34 10.1-7.54.05-.02.1 0 .15 0 2.73 0 8.49.03 8.61.1.4.25.81.5 1.22.75 1.77 1.06 3.53 2.13 5.29 3.2 1.54.93 5.77 3.51 5.77 3.51s5.73-3.16 6.97-3.91c1.94-1.17 3.87-2.36 5.82-3.52.15-.09.28-.13.44-.13 2.59 0 8.5-.05 8.82.18 0 0 .05.01.08 0 .29-.02.54.11.75.28.81.68 1.64 1.32 2.46 1.99 2.12 1.73 4.29 3.4 6.39 5.14.12.1.18.2.21.34.48 2.23 2.33 12.11 2.33 12.11l-1.76 7.79s-2.71 4.68-4.13 6.97c-2.35 3.79-7.77 12.42-7.77 12.42s-1.79 1.59-3.27 2.64c-5.46 3.87-10.83 7.88-16.18 11.89-.49.37-1.28.35-1.79-.02-6.26-4.61-12.31-9.54-18.83-13.79-1.12-.73-1.86-2.54-2.54-3.65-3.1-5.06-6.17-10.15-9.25-15.22-.34-.55-.69-1.09-.84-1.75-.32-1.41-1.62-7.3-1.62-7.3" class="st5"/><path d="m23.86 19.57-4.17-9.2L9.6 17.81 7.24 29.78l2.01 7.87L21.38 57.5l5.32-5.52-10.79-22.77z" style="fill:#ceb372;stroke-miterlimit:10;stroke:#ceb372;stroke-width:.25px"/><path d="m40.75 18.37 17.72.93 5.03-8.68-9.63-.44z" class="st5"/><path d="M61.41 57.26 41.3 72.5l.43-10.67 15.04-9.23z" style="fill:#ceb372"/><path d="m73.63 37.71 1.72-7.61s-1.84-9.88-2.33-12.11a.56.56 0 0 0-.21-.34c-2.1-1.75-4.27-3.42-6.39-5.14-.82-.67-1.65-1.31-2.46-1.99-.21-.17-.46-.3-.75-.28h-.08c-.33-.22-6.24-.18-8.82-.18-.16 0-.3.04-.44.13-1.95 1.16-3.88 2.35-5.82 3.52-1.24.75-6.97 3.91-6.97 3.91s-4.23-2.57-5.77-3.51c-1.76-1.07-3.53-2.14-5.29-3.2-.41-.25-.81-.49-1.22-.75-.12-.08-5.88-.1-8.61-.1-.05 0-.11-.01-.15 0-.55.21-7.87 5.7-10.1 7.54-.17.14-.26.31-.3.5-.38 2.07-.8 4.14-1.24 6.2-.2.96-1.06 4.93-1.15 5.3.06.25 1.41 6.39 1.73 7.8.15.66.51 1.2.84 1.75 3.09 5.07 6.15 10.15 9.25 15.22.68 1.11 1.42 2.92 2.54 3.65 6.52 4.24 12.58 9.17 18.83 13.79.5.37 1.3.39 1.79.02 5.35-4.02 10.72-8.03 16.18-11.89 1.48-1.05 3.27-2.64 3.27-2.64s5.42-8.63 7.77-12.42c1.42-2.29 4.13-6.97 4.13-6.97l.04-.19Z" style="fill:none;stroke-linecap:round;stroke-linejoin:round;stroke:#000;stroke-width:1.5px"/><path d="M26.31 52.15c-.34.35-1.26 1.3-1.65 1.7-1.15 1.17-2.28 2.34-3.44 3.49-.03.03-.04.06-.07.08M67.24 29.56c-3.73 7.25-6.83 14.82-10.6 22.05-.1.19-.17.4-.21.62 1.71 1.71 3.37 3.48 5.1 5.17M74.32 30.08c-1.78-.03-6.81-.47-6.81-.47M40.94 17.91c-1.24.12-15.41 1.56-16.32 1.67-.12.01-.24.03-.36-.02M15.59 29.52s-5.8.28-7.21.37M41.35 61.41c-.33-.15-.62-.36-.93-.55-3.02-1.89-6.06-3.73-9.1-5.6-1.76-1.08-2.74-1.65-5.03-3.14-.72-1.6-1.21-2.49-1.89-3.91-2.99-6.24-8.76-18.91-8.76-18.91s6.87-7.76 8.29-9.34q.33-.37.11-.8s-.01-.05-.03-.08c-.55-.99-1.05-2-1.58-3-.64-1.23-1.71-3.59-2.34-4.83M56.41 52.25c-.45.12-.8.41-1.19.65-2.53 1.54-5.06 3.1-7.58 4.66-2.05 1.27-4.12 2.51-6.16 3.79-.16.1-.15.21-.15.34v10.35M67.33 29.38c-.06-.13-.14-.23-.23-.34-.59-.64-1.17-1.28-1.76-1.91-1-1.09-2-2.18-3-3.26-1.31-1.41-2.61-2.83-3.91-4.25 1.16-2.32 2.38-4.6 3.57-6.9.31-.59.63-1.17.92-1.78.1-.21.18-.43.28-.65M58.74 20.05l-.9-.5s-14.78-1.37-16.28-1.52" class="st3"/></svg>