<?xml version="1.0" encoding="UTF-8"?>
<svg id="_レイヤー_1" xmlns="http://www.w3.org/2000/svg" version="1.1" viewBox="0 0 80 80">
  <!-- Generator: Adobe Illustrator 30.0.0, SVG Export Plug-In . SVG Version: 2.1.1 Build 123)  -->
  <defs>
    <style>
      .st0 {
        fill: none;
      }

      .st1 {
        fill: #ceb372;
      }

      .st2 {
        fill: #fff;
      }
    </style>
  </defs>
  <path class="st2" d="M41.08,4.24c-16.66-.21-30.26,11.98-34.13,25.56-3.84,13.48,1.19,29.06,12.21,37.72,11.02,8.66,27.37,9.87,39.52,2.88,12.15-6.98,19.34-21.74,17.32-35.61-2.16-14.84-14.18-30.64-34.85-30.55"/>
  <g>
    <path class="st1" d="M5.5,41.16s1.59,9.73,2.43,11.6,7.67,11.88,9.91,13.84,9.73,6.55,13.75,7.29,9.45,1.12,9.45,1.12l-1.72-10.34-16.23-6.69-6.82-15.96-10.77-.85Z"/>
    <g>
      <path class="st1" d="M39.13,66.26c.04.27.2.18.25.45.04.27-.08.45-.04.71.04.27.11.25.15.52.04.27-.11.3-.06.56.04.27.18.31.23.57.04.27.33.13.38.4.04.26-.28.36-.23.62.04.26.15.31.19.58.04.27-.2.21-.16.47.04.27.26.23.3.5.04.27.02.27.06.54.04.27-.11.31-.07.57.04.27.29.26.33.53.04.27-.13.55-.12.56l.99-.16s-.16-.33-.2-.59c-.04-.26.08-.28.04-.55-.04-.27-.18-.24-.22-.51-.04-.26.12-.29.08-.55-.04-.26-.31-.14-.36-.4-.04-.26.04-.36,0-.63-.04-.26.04-.25,0-.51-.04-.27-.17-.28-.21-.54-.04-.26.17-.31.12-.57-.04-.26-.26-.22-.3-.49-.04-.26.03-.28-.02-.54-.04-.26.05-.28,0-.55-.04-.26-.29-.2-.33-.46-.04-.26.15-.32.11-.59-.04-.26-.14-.25-.18-.51-.04-.26.11-.36.08-.56l-.99.16c.03.2.16.15.2.42.04.27-.03.28.01.54Z"/>
      <path class="st1" d="M34.1,63c.16.07.19-.11.35-.04.16.07.19.25.35.31.16.07.18,0,.34.07.16.07.1.21.26.27.16.07.25-.04.4.03.16.07.23-.24.39-.17.16.07.05.38.21.45.16.07.23,0,.39.06.16.07.01.26.17.32.16.07.24-.13.4-.07.16.07.15.09.31.16.16.07.11.22.26.28.16.07.27-.15.43-.08.16.07.22.32.23.33l.38-.92s-.24.01-.4-.05c-.16-.07-.11-.18-.27-.25-.16-.07-.21.06-.37,0-.16-.07-.09-.22-.25-.28-.16-.07-.22.22-.38.15-.16-.07-.17-.18-.33-.24-.16-.07-.11-.13-.27-.19-.16-.07-.22.04-.38-.03-.16-.07-.08-.26-.24-.33-.16-.07-.24.14-.4.07-.16-.07-.13-.13-.29-.2-.16-.07-.12-.15-.28-.22-.16-.07-.24.18-.4.11-.16-.07-.1-.26-.25-.33-.16-.07-.2.02-.35-.04-.16-.07-.13-.24-.25-.29l-.38.92c.12.05.15-.08.31-.01.16.07.13.14.29.2Z"/>
      <path class="st1" d="M28.99,60.89c.16.07.19-.11.35-.04.16.07.19.25.35.31.16.07.18,0,.34.07.16.07.1.21.26.27.16.07.25-.04.4.03.16.07.23-.24.39-.17.16.07.05.38.21.45.16.07.23,0,.39.06.16.07.01.26.17.32.16.07.24-.13.4-.07.16.07.15.09.31.16.16.07.11.22.26.28.16.07.27-.15.43-.08.16.07.22.32.23.33l.38-.92s-.24.01-.4-.05c-.16-.07-.11-.18-.27-.25-.16-.07-.21.06-.37,0-.16-.07-.09-.22-.25-.28-.16-.07-.22.22-.38.15-.16-.07-.17-.18-.33-.24-.16-.07-.11-.13-.27-.19-.16-.07-.22.04-.38-.03-.16-.07-.08-.26-.24-.33-.16-.07-.24.14-.4.07-.16-.07-.13-.13-.29-.2-.16-.07-.12-.15-.28-.22-.16-.07-.24.18-.4.11-.16-.07-.1-.26-.25-.33-.16-.07-.2.02-.35-.04-.16-.07-.13-.24-.25-.29l-.38.92c.12.05.15-.08.31-.01.16.07.13.14.29.2Z"/>
      <path class="st1" d="M23.88,58.78c.16.07.19-.11.35-.04.16.07.19.25.35.31.16.07.18,0,.34.07.16.07.1.21.26.27.16.07.25-.04.4.03.16.07.23-.24.39-.17.16.07.05.38.21.45.16.07.23,0,.39.06.16.07.01.26.17.32.16.07.24-.13.4-.07.16.07.15.09.31.16.16.07.11.22.26.28.16.07.27-.15.43-.08.16.07.22.32.23.33l.38-.92s-.24.01-.4-.05c-.16-.07-.11-.18-.27-.25-.16-.07-.21.06-.37,0-.16-.07-.09-.22-.25-.28-.16-.07-.22.22-.38.15-.16-.07-.17-.18-.33-.24-.16-.07-.11-.13-.27-.19-.16-.07-.22.04-.38-.03-.16-.07-.08-.26-.24-.33-.16-.07-.24.14-.4.07-.16-.07-.13-.13-.29-.2-.16-.07-.12-.15-.28-.22-.16-.07-.24.18-.4.11-.16-.07-.1-.26-.25-.33-.16-.07-.2.02-.35-.04-.16-.07-.13-.24-.25-.29l-.38.92c.12.05.15-.08.31-.01.16.07.13.14.29.2Z"/>
      <path class="st1" d="M20.62,53.33c.07.16.21.06.28.21.07.16-.04.31.03.46.07.16.13.13.2.29.07.16-.07.22,0,.38.07.16.2.14.27.3.07.16.33-.01.39.14.07.16-.23.31-.16.46.07.16.17.16.23.31.07.16-.17.19-.1.35.07.16.27.07.33.23.07.16.04.17.11.32.07.16-.08.23-.01.38.07.16.3.08.36.24.07.16-.07.38-.07.39l.92-.39s-.18-.16-.25-.32c-.07-.16.05-.2-.02-.36-.07-.16-.19-.1-.26-.26-.07-.16.09-.22.02-.37-.07-.15-.31,0-.38-.15-.07-.15,0-.24-.06-.4-.07-.15.01-.17-.05-.32-.07-.16-.19-.13-.25-.28-.07-.16.13-.24.06-.4-.07-.16-.27-.07-.33-.22-.07-.16,0-.18-.07-.34-.07-.16.02-.19-.05-.35-.07-.16-.29-.04-.36-.2-.07-.16.11-.25.05-.41-.07-.16-.16-.12-.22-.27-.07-.16.07-.26.02-.38l-.92.39c.05.12.16.05.23.21.07.16,0,.18.06.34Z"/>
      <path class="st1" d="M18.48,48.32c.07.16.21.06.28.21.07.16-.04.31.03.46.07.16.13.13.2.29.07.16-.07.22,0,.38.07.16.2.14.27.3.07.16.33-.01.39.14.07.16-.23.31-.16.46.07.16.17.16.23.31.07.16-.17.19-.1.35.07.16.27.07.33.23.07.16.04.17.11.32.07.16-.08.23-.01.38.07.16.3.08.36.24.07.16-.07.38-.07.39l.92-.39s-.18-.16-.25-.32c-.07-.16.05-.2-.02-.36-.07-.16-.19-.1-.26-.26-.07-.16.09-.22.02-.37-.07-.15-.31,0-.38-.15-.07-.15,0-.24-.06-.4-.07-.15.01-.17-.05-.32-.07-.16-.19-.13-.25-.28-.07-.16.13-.24.06-.4-.07-.16-.27-.07-.33-.22-.07-.16,0-.18-.07-.34-.07-.16.02-.19-.05-.35-.07-.16-.29-.04-.36-.2-.07-.16.11-.25.05-.41-.07-.16-.16-.12-.22-.27-.07-.16.07-.26.02-.38l-.92.39c.05.12.16.05.23.21.07.16,0,.18.06.34Z"/>
      <path class="st1" d="M16.34,43.31c.07.16.21.06.28.21.07.16-.04.31.03.46.07.16.13.13.2.29.07.16-.07.22,0,.38.07.16.2.14.27.3.07.16.33-.01.39.14.07.16-.23.31-.16.46.07.16.17.16.23.31.07.16-.17.19-.1.35.07.16.27.07.33.23.07.16.04.17.11.32.07.16-.08.23-.01.38.07.16.3.08.36.24.07.16-.07.38-.07.39l.92-.39s-.18-.16-.25-.32c-.07-.16.05-.2-.02-.36-.07-.16-.19-.1-.26-.26-.07-.16.09-.22.02-.37-.07-.15-.31,0-.38-.15-.07-.15,0-.24-.06-.4-.07-.15.01-.17-.05-.32-.07-.16-.19-.13-.25-.28-.07-.16.13-.24.06-.4-.07-.16-.27-.07-.33-.22-.07-.16,0-.18-.07-.34-.07-.16.02-.19-.05-.35-.07-.16-.29-.04-.36-.2-.07-.16.11-.25.05-.41-.07-.16-.16-.12-.22-.27-.07-.16.07-.26.02-.38l-.92.39c.05.12.16.05.23.21.07.16,0,.18.06.34Z"/>
      <path class="st1" d="M7.74,41.78c.28.02.23-.15.51-.13.28.02.43.19.7.21.28.02.28-.05.56-.02.28.02.27.18.55.2.28.02.35-.1.63-.08.28.02.21-.29.49-.27.28.02.29.36.56.38.28.02.35-.07.63-.04.28.02.16.25.44.27.28.02.3-.2.57-.17.28.02.27.05.55.07.28.02.28.19.55.21.28.02.33-.22.61-.19.28.02.52.26.53.26l.08-1s-.37.07-.64.05c-.28-.02-.26-.15-.54-.17-.28-.02-.29.12-.56.09-.28-.02-.26-.19-.53-.21-.27-.02-.21.27-.49.25-.27-.02-.35-.13-.63-.15-.27-.02-.24-.1-.51-.12-.28-.02-.32.1-.59.07-.28-.02-.26-.24-.54-.26-.28-.02-.29.2-.56.17-.28-.02-.27-.09-.55-.12-.28-.02-.27-.12-.54-.14-.28-.02-.27.23-.54.21-.28-.02-.29-.23-.56-.25-.28-.02-.28.07-.56.05-.28-.02-.33-.2-.54-.21l-.08,1c.21.02.19-.12.47-.09.28.02.27.1.54.12Z"/>
      <path class="st1" d="M7.06,47.33c-.03-.17-.19-.1-.23-.28-.03-.17.1-.31.07-.48-.03-.17-.1-.16-.13-.34-.03-.17.12-.21.08-.38-.03-.17-.17-.19-.2-.37-.03-.17-.32-.07-.36-.24-.03-.17.29-.26.26-.43-.03-.17-.13-.2-.16-.37-.03-.17.21-.15.18-.33-.03-.17-.25-.14-.28-.31-.03-.17,0-.18-.04-.35-.03-.17.13-.21.1-.39-.03-.17-.27-.16-.3-.33-.03-.17.15-.37.15-.38l-.99.17s.14.21.17.38c.03.18-.09.2-.06.37.03.18.17.15.2.33.03.17-.13.2-.1.38.03.17.3.07.34.25.03.17-.06.25-.03.42.03.17-.05.17-.02.34.03.18.15.17.19.35.03.17-.18.22-.14.39.03.17.25.13.28.31.03.17-.04.19,0,.36.03.17-.06.19-.03.37.03.17.28.11.31.28.03.17-.16.23-.13.41.03.17.13.16.16.33.03.17-.12.25-.1.38l.98-.2c-.03-.13-.15-.09-.19-.26-.03-.17.04-.19,0-.36Z"/>
      <path class="st1" d="M8.43,52.76c-.07-.15-.22-.04-.28-.2-.06-.16.05-.3,0-.46-.05-.16-.11-.14-.16-.31-.05-.17.1-.21.05-.38-.04-.17-.18-.18-.22-.35-.04-.17-.33-.04-.37-.22-.04-.17.28-.28.24-.45-.04-.17-.14-.19-.18-.36-.04-.17.2-.16.16-.33-.04-.17-.25-.13-.29-.3-.04-.17-.01-.18-.05-.35-.04-.17.12-.22.09-.39-.04-.17-.28-.15-.31-.32-.04-.17.14-.38.14-.39l-.98.2s.15.21.18.38c.04.17-.09.2-.05.37.04.17.17.15.21.32.04.17-.13.21-.09.38.04.17.31.06.35.23.04.17-.05.25,0,.42.04.17-.04.17,0,.34.04.17.16.17.2.34.04.17-.16.23-.12.4.05.18.26.12.3.29.04.17-.02.19.03.37.05.17-.04.2.02.38.06.18.3.08.36.25.07.17-.12.28-.03.44.09.17.17.13.26.29.09.16-.04.28.03.4l.87-.5c-.06-.11-.17-.03-.26-.19-.09-.15,0-.18-.09-.33Z"/>
      <path class="st1" d="M11.46,57.54c-.1-.15-.22-.02-.32-.17-.1-.15-.03-.32-.13-.47-.1-.15-.15-.11-.25-.26-.1-.15.03-.24-.07-.38-.1-.15-.23-.11-.33-.26-.1-.15-.32.07-.42-.08-.1-.15.17-.35.07-.5-.1-.15-.2-.13-.29-.28-.09-.15.13-.22.04-.37-.09-.15-.28-.04-.38-.18-.09-.15-.07-.16-.16-.31-.09-.15.04-.24-.05-.39-.09-.15-.31-.05-.4-.2-.09-.15.02-.4.01-.41l-.87.5s.21.15.3.31c.09.15-.01.22.08.37.09.15.21.08.31.23.09.15-.05.24.05.39.1.15.31-.05.41.1.1.15.04.25.14.4.1.15.02.17.12.32.1.15.21.1.31.25.1.15-.08.27.02.42.1.15.28.03.38.17.1.15.04.19.14.34.1.15.02.2.12.35.1.15.3,0,.4.14.1.15-.06.28.04.42.1.15.18.09.28.24.1.15-.01.28.06.39l.82-.57c-.07-.11-.17-.02-.27-.17-.1-.15-.04-.19-.14-.34Z"/>
      <path class="st1" d="M14.76,62.2c-.11-.14-.22,0-.33-.15-.11-.14-.04-.32-.15-.46-.1-.14-.16-.1-.26-.25-.1-.14.02-.24-.09-.38-.1-.14-.23-.1-.34-.25-.1-.14-.32.08-.42-.07-.1-.14.15-.36.05-.5-.1-.14-.2-.13-.31-.27-.1-.14.12-.23.02-.37-.1-.14-.28-.02-.38-.17-.1-.15-.08-.16-.18-.31-.1-.15.03-.25-.07-.39-.1-.15-.31-.03-.41-.17-.1-.15-.02-.4-.02-.41l-.82.57s.21.13.32.28c.1.15,0,.22.1.36.1.15.22.07.32.21.1.15-.04.24.07.39.1.15.31-.06.41.08.1.14.05.25.16.39.1.14.03.17.13.32.1.15.21.09.32.24.1.14-.07.27.04.42.1.14.28.01.38.16.1.14.05.19.15.33.1.14.03.2.13.34.11.14.3-.02.41.12.11.14-.05.28.06.42.11.14.18.08.29.23.11.14,0,.28.08.39l.8-.6c-.08-.1-.17-.01-.28-.16-.11-.14-.04-.19-.15-.33Z"/>
      <path class="st1" d="M18.4,66.47c-.13-.11-.21.04-.35-.07-.13-.12-.09-.3-.21-.42-.12-.12-.17-.06-.29-.2-.12-.13,0-.24-.12-.36-.12-.13-.24-.07-.36-.2-.11-.13-.31.11-.42-.03-.11-.14.13-.37.01-.5-.11-.13-.21-.11-.32-.25-.11-.14.11-.23,0-.37-.11-.14-.28,0-.39-.14-.11-.14-.09-.16-.2-.29-.11-.14.02-.25-.09-.39-.11-.14-.31-.01-.42-.15-.11-.14-.04-.4-.04-.41l-.8.6s.22.12.33.26c.11.14,0,.22.12.36.11.14.22.06.33.2.11.14-.02.24.09.38.11.14.3-.08.41.06.11.14.07.25.18.39.11.14.04.17.16.31.12.14.22.08.34.21.12.14-.05.28.07.42.12.14.28-.01.4.12.12.13.07.18.19.32.12.13.06.2.19.33.14.13.3-.07.43.06.13.13.02.28.16.4.14.12.2.04.34.16.14.11.07.27.18.35l.61-.8c-.1-.08-.17.04-.31-.07-.14-.11-.09-.17-.22-.28Z"/>
      <path class="st1" d="M23.09,69.63c-.15-.09-.21.08-.36-.02-.15-.09-.16-.28-.31-.37-.15-.09-.19-.04-.34-.13-.15-.09-.07-.23-.22-.32-.15-.09-.25,0-.4-.1-.15-.1-.27.19-.42.1-.15-.1.01-.39-.14-.49-.15-.1-.24-.04-.38-.14-.15-.1.04-.26-.11-.36-.15-.1-.27.08-.42-.02-.15-.1-.13-.12-.27-.22-.14-.1-.06-.24-.2-.34-.14-.1-.3.08-.45-.02-.14-.11-.14-.38-.15-.38l-.61.8s.25.06.39.17c.15.1.07.2.22.31.15.11.23,0,.37.1.15.1.05.24.2.34.15.1.27-.17.41-.07.15.1.14.22.29.31.15.1.09.15.24.25.15.1.23,0,.38.1.15.1.04.28.19.38.15.09.27-.09.42,0,.15.09.11.16.26.25.15.09.1.18.26.27.15.09.27-.13.42-.04.15.09.06.28.22.37.15.09.2,0,.36.1.15.09.11.26.23.32l.5-.87c-.11-.07-.17.06-.32-.03-.15-.09-.11-.16-.26-.25Z"/>
      <path class="st1" d="M28.12,72.25c-.16-.07-.19.1-.36.03-.16-.07-.19-.26-.35-.33-.16-.07-.19-.01-.35-.09-.16-.08-.1-.22-.25-.29-.16-.08-.25.02-.41-.06-.16-.08-.25.22-.41.14-.16-.08-.03-.39-.18-.47-.16-.08-.24-.02-.39-.1-.16-.08,0-.26-.15-.34-.15-.08-.26.11-.42.02-.16-.08-.14-.11-.3-.19-.16-.08-.08-.23-.24-.32-.15-.09-.29.11-.45.02-.15-.09-.19-.36-.2-.36l-.5.87s.25.03.41.11c.16.09.09.2.25.29.16.09.23-.03.38.05.16.09.07.23.23.32.16.09.25-.19.4-.11.16.09.16.2.32.28.16.08.1.14.26.22.16.08.23-.02.39.07.16.08.07.27.23.35.16.08.25-.12.41-.04.16.08.13.14.29.22.16.08.12.16.28.24.16.07.25-.16.42-.09.16.07.1.27.26.34.16.07.2-.01.37.05.17.07.14.24.27.29l.38-.92c-.12-.05-.16.08-.32.01-.16-.07-.13-.13-.29-.21Z"/>
      <path class="st1" d="M33.5,73.75c-.18-.03-.16.15-.34.12-.18-.03-.25-.2-.43-.23-.17-.03-.19.04-.36,0-.17-.03-.15-.18-.33-.21-.17-.03-.24.09-.41.06-.17-.04-.17.27-.35.23-.17-.04-.12-.37-.28-.41-.17-.04-.23.03-.4-.02-.17-.05-.04-.25-.2-.3-.16-.05-.23.16-.4.1-.16-.06-.16-.09-.32-.15-.16-.06-.12-.22-.28-.28-.16-.06-.27.16-.44.09-.16-.07-.23-.33-.24-.33l-.38.92s.26,0,.42.06c.17.07.12.18.29.24.17.06.22-.07.39,0,.17.06.11.22.28.28.17.06.21-.23.38-.18.17.05.2.17.37.22.17.05.13.13.31.17.18.04.23-.07.41-.03.18.04.14.25.32.29.18.03.21-.18.39-.15.18.03.16.1.34.13.18.03.16.12.34.15.18.03.2-.23.38-.2.18.03.16.23.34.26.18.03.19-.07.37-.04.18.03.2.2.33.22l.14-.99c-.13-.02-.13.11-.31.09-.18-.03-.16-.1-.34-.13Z"/>
      <path class="st1" d="M39.17,74.41c-.18-.02-.15.16-.33.14-.18-.02-.27-.18-.44-.2-.18-.02-.18.05-.36.03-.18-.02-.17-.17-.34-.19-.18-.02-.23.11-.41.09-.18-.02-.15.29-.33.27-.18-.02-.17-.35-.34-.37-.18-.02-.23.07-.4.05-.18-.02-.09-.24-.26-.26-.18-.02-.2.2-.38.17-.18-.02-.17-.05-.35-.07-.18-.02-.16-.18-.34-.21-.18-.02-.23.21-.41.19-.18-.02-.31-.26-.32-.26l-.14.99s.24-.07.42-.05c.18.02.16.15.34.17.18.02.2-.11.37-.09.18.02.15.19.33.21.18.02.16-.27.33-.25.18.02.22.13.4.15.18.02.15.09.32.11.18.02.21-.1.39-.08.18.02.16.23.34.25.18.02.2-.2.37-.18.18.02.17.09.35.11.18.02.17.11.35.13.18.02.18-.24.36-.22.18.02.18.22.35.24.18.02.19-.08.36-.07.18.02.21.19.34.2l.08-1c-.13-.01-.13.12-.3.11-.18-.02-.17-.09-.35-.11Z"/>
      <g>
        <path class="st1" d="M39.08,64.1h.01s.02.02.02.02h.03s.03.02.03.02h.01s.01.02.01.02h0s0,.02,0,.02v.02s0,.06,0,.06v.06s0,.03,0,.03v.02s.01,0,.01,0h0s0,.01,0,.01h0s.04.02.04.02h.02s.02.01.02.01h0s0,.01,0,.01h0s0,.02,0,.02v.04s0,.04,0,.04v.05s0,.05,0,.05v.03s0,0,0,0h0s.01.03.01.03v.02s.02.04.02.04v.02s.02,0,.02,0h0s.02.01.02.01h.03s.06.01.06.01h.06s.02.01.02.01h0s0,0,0,0l.03.03.03.03s.04.04.05.06h0s0,.01,0,.01h0s0,.01,0,.01h0s0,.03,0,.03v.03s-.02,0-.02.01h0s0,.01,0,.01h0s0,.01,0,.01h.02s.06.03.06.03h.03s.03.02.03.02h.01s0,.01,0,.01h0s0,.02,0,.02l-.49.08-.25.04-.25.04h0s0-.01,0-.01h0s0-.02,0-.02h0s0,0,0,0h0s0-.01,0-.01h0s.02-.04.02-.04h0s0-.02,0-.02h0s0-.02,0-.02h0s0-.02,0-.02h0s-.03-.04-.05-.06l-.03-.03h0s0,0,0,0h0s0,0,0,0v-.02s0-.03,0-.03h0s0-.02,0-.02h-.01s-.01-.02-.01-.02h-.03s-.01-.02-.01-.02h0s0,0,0,0h0s0,0,0,0h0s0,0,0,0h-.01s-.01.01-.01.01l-.03.02h-.01s0,0,0,0h0s-.01,0-.01,0c0,0,0,0-.01,0h-.03s.1-.24.1-.24l.1-.23.19-.46h.01s.01.02.01.02l.02.03.02.03h.01s.01.03.01.03Z"/>
        <polygon class="st0" points="38.42 65.38 40.4 65.05 40.21 63.95 39.19 63.53 38.42 65.38"/>
      </g>
      <g>
        <path class="st1" d="M22.57,57.85h0s0,.02,0,.02v.03s0,.01,0,.01h0s0,.02,0,.02h.01s0,.01,0,.01h0s.02,0,.02,0h.05s.05-.01.05-.01h.02s.02,0,.02,0h0s0,0,0,0h0s0,.01,0,.01h0s0,.03,0,.03h0s0,.03,0,.03h0s0,0,0,0h0s0,0,0,0h.04s.04,0,.04,0c.03,0,.06,0,.09,0h.02s0,0,0,0h0s.01.02.01.02h.01s.02.03.02.03c0,0,0,.01,0,.01h0s0,.02,0,.02v.02s0,.03,0,.03v.06s-.02.05-.02.05v.02s0,.02,0,.02v.03s.03.03.03.03c.01.02.02.04.03.06h0s0,0,0,0h0s0,0,0,0h.01s.01,0,.01,0h.02s0-.01,0-.01h0s0,0,0,0h0s0,0,0,0h0s0,.03,0,.03v.06s0,.05,0,.05h0s0,.02,0,.02h0s0,.01,0,.01l.19-.46.1-.23.1-.23h0s0,0,0,0h0s0,0,0,0h0s0,0,0,0h0s0,0,0,0h0s-.02.02-.02.02h-.01s0,0,0,0h0s0,0,0,0h0s0-.01,0-.01h0s-.02-.04-.03-.06v-.03s-.02,0-.02,0h0s0,0,0,0h0s0,0,0,0h0s0,0,0,0h-.02s-.03,0-.03,0h-.02s-.01-.01-.01-.01h0s0-.03,0-.03h0s0-.01,0-.01h0s0,0,0,0h0s0,0,0,0h0s0-.02,0-.02c0,0,0,0,0-.01l.02-.02h0s0-.01,0-.01h0s0-.01,0-.01h0s0-.03,0-.03l-.23.1-.23.1-.46.2h0s0,0,0,0h.01s.03.02.03.02h.03s.01.02.01.02h.01Z"/>
        <polygon class="st0" points="23.85 57.2 23.09 59.05 22.33 58.74 22.01 57.99 23.85 57.2"/>
      </g>
      <g>
        <path class="st1" d="M15.83,41.54h.02s.02,0,.02,0h.04s.04,0,.04,0h.02s.02.01.02.01h0s0,.01,0,.01v.02s.03.05.03.05l.02.05v.02s.02,0,.02,0h0s0,.01,0,.01h0s.02,0,.02,0h.04s.02,0,.02,0h.02s0,0,0,0h0s0,.01,0,.01h0s.01.03.01.03v.02s.03.04.03.04v.04s.03.04.03.04v.02s.02,0,.02,0h0s.01.02.01.02v.02s.04.04.04.04h.02s0,.02,0,.02h.01s.02,0,.02,0h.03s.06,0,.06,0h.06s.02,0,.02,0h.01s0,0,0,0l.04.02.04.03s.05.04.07.05h0s0,.01,0,.01h0s0,.01,0,.01v.02s0,.02,0,.02v.03s0,.02,0,.02h0s0,.01,0,.01h0s0,.01,0,.01h.02s.06.02.06.02h.03s.03.01.03.01h.01s.01.01.01.01h0s0,.02,0,.02l-.46.2-.23.1-.23.1s0-.01,0-.01h0s0-.02,0-.02h0s0,0,0,0h0s0-.01,0-.01h0s.01-.04.01-.04v-.02s0,0,0,0h0s0-.02,0-.02h0s0-.02,0-.02h-.01s-.04-.04-.06-.05l-.04-.03h0s0,0,0,0h0s0,0,0,0v-.02s-.02-.03-.02-.03h0s0-.02,0-.02h-.02s-.02-.02-.02-.02h-.03s-.01,0-.01,0h0s0,0,0,0h0s0,0,0,0h0s0,0,0,0c0,0,0,0-.01,0h-.01s-.03.04-.03.04h-.01s0,0,0,0h0s-.01,0-.01,0c0,0-.01,0-.02,0h-.03s.02-.25.02-.25l.02-.25.04-.5s0,0,.01,0h.02s.03.03.03.03l.03.03h.02s.02.02.02.02Z"/>
        <polygon class="st0" points="15.59 42.96 17.42 42.17 16.95 41.06 15.74 40.96 15.59 42.96"/>
      </g>
      <g>
        <path class="st1" d="M5.24,42.21v-.04s-.01-.04-.01-.04l-.02-.08-.02-.08v-.04s0-.04,0-.04v-.02s0-.02,0-.02v-.03s.03-.03.03-.03l.02-.03.04-.05.02-.03v-.02s.01-.02.01-.02v-.02s0-.02,0-.02v-.04s-.02-.09-.02-.09l-.02-.09v-.04s0-.02,0-.02v-.02s.02-.03.02-.03v-.03s.05-.05.05-.05l.04-.04.03-.05h0s0-.02,0-.02h0s0,0,0,0h0s.04,0,.04,0c.03,0,.06,0,.09,0h.09s.04,0,.04,0h.02s.02-.01.02-.01h.02s.01-.02.01-.02l.02-.02.04-.05.02-.03.02-.02.02-.02h.01s.02-.01.02-.01c.02,0,.05-.01.08-.02l.08-.02c.06,0,.11-.02.16-.03h.03s.03,0,.03,0h.03s.03.02.03.02l.06.02h.03s.03,0,.03,0h.02s.02,0,.02,0l.04-.02.07-.05.04-.02.04-.02h.02s.02-.01.02-.01h.02s.02,0,.02,0l-.04.5-.02.25-.02.25h-.03s-.02-.01-.02-.01h-.02s-.02,0-.02,0h-.01s-.01,0-.01,0h-.02s-.05-.04-.05-.04h-.03s-.03-.02-.03-.02h-.02s-.02,0-.02,0h-.02s-.02,0-.02,0c-.03,0-.09.02-.15.03-.03,0-.06.01-.08.02h-.03s-.02.03-.02.03v.02s-.02.02-.02.02v.02s-.01.02-.01.02v.04s0,.04,0,.04c0,.02,0,.04,0,.06v.03s0,.02,0,.02h0s0,.02,0,.02h0s0,.02,0,.02v.02s.03.02.03.02l.03.04v.02s.02.01.02.01h0s0,.05.01.07c0,.02.01.05.02.07l-.25.04-.25.04-.49.08v-.03s0-.03,0-.03v-.07s.02-.08.02-.08v-.04s0-.04,0-.04Z"/>
        <polygon class="st0" points="6.69 42.25 6.85 40.26 4.31 40.06 4.73 42.58 6.69 42.25"/>
      </g>
      <g>
        <path class="st1" d="M41.3,73.97v.04s0,.04,0,.04l.02.08v.08s.02.04.02.04v.04s0,.02,0,.02v.02s-.02.03-.02.03l-.02.03-.02.03-.05.05-.02.03v.02s-.01.02-.01.02v.02s0,.02,0,.02v.04s.02.09.02.09l.02.08v.04s0,.02,0,.02v.02s-.02.03-.02.03v.03s-.05.05-.05.05l-.03.04-.03.05h0s0,.02,0,.02h0s0,0,0,0h0s-.04,0-.04,0c-.03,0-.06,0-.09,0h-.09s-.04,0-.04,0h-.02s-.02.01-.02.01h-.02s-.01.02-.01.02l-.02.02-.04.05-.02.03-.02.02-.02.02h-.01s-.02.01-.02.01l-.08.02-.08.02c-.06,0-.11.02-.16.03h-.03s-.03,0-.03,0h-.03s-.03-.02-.03-.02l-.06-.02h-.03s-.03,0-.03,0h-.02s-.02,0-.02,0l-.04.02-.07.05-.04.02-.04.02h-.02s-.02.01-.02.01h-.02s-.02,0-.02,0l.04-.5.02-.25.02-.25h.03s.02.01.02.01h.02s.02,0,.02,0h.01s.01,0,.01,0h.02s.05.04.05.04h.03s.03.02.03.02h.02s.02,0,.02,0h.02s.02,0,.02,0c.03,0,.09-.02.15-.03.03,0,.06-.01.08-.02h.02s0,0,0,0h0s0,0,0,0h0s0,0,0,0h0s0,0,0,0h0s0,0,0,0l.02-.02v-.02s.02-.02.02-.02v-.02s.01-.02.01-.02v-.04s0-.04,0-.04c0-.02,0-.04,0-.06v-.03s0-.02,0-.02h0s0-.02,0-.02h0s0-.02,0-.02v-.02s-.03-.02-.03-.02l-.03-.04v-.02s-.02-.01-.02-.01h0s0-.05-.01-.07c0-.02-.01-.05-.01-.07l.25-.04.25-.04.49-.08v.03s0,.03,0,.03v.07s-.02.08-.02.08v.04s0,.04,0,.04Z"/>
        <path class="st0" d="M39.84,73.93s.01,0,.02-.01h0s0,0,0,0h0s0,0,0,0h0s0,.02,0,.02v.03s0,.06,0,.06v.12s-.03.25-.03.25l-.04.5-.08,1,2.54.19-.42-2.5-1.97.33Z"/>
      </g>
    </g>
  </g>
  <g>
    <path class="st1" d="M40.67,5.48l.27,11.17,16.18,7.11,7.77-7.71s-1.78-2.81-9.26-6.55c-7.48-3.74-14.96-4.02-14.96-4.02Z"/>
    <g>
      <path class="st1" d="M46.13,18.45c-.16-.07-.19.1-.35.03-.16-.07-.18-.25-.34-.32-.16-.07-.18,0-.34-.07-.16-.07-.1-.21-.25-.28-.15-.07-.24.03-.4-.03-.16-.07-.23.23-.39.16-.15-.07-.04-.38-.2-.45-.15-.07-.23,0-.38-.07-.16-.07,0-.26-.16-.32-.15-.07-.25.13-.4.06-.16-.07-.14-.09-.3-.16-.15-.07-.1-.22-.25-.29-.16-.07-.27.14-.43.07-.15-.07-.21-.33-.22-.33l-.4.92s.24,0,.4.06c.15.07.1.18.26.25.15.07.21-.06.37,0,.15.07.09.22.24.29.15.07.22-.22.38-.15.15.07.16.18.32.25.15.07.11.13.26.2.15.07.22-.03.38.03.15.07.07.26.23.33.15.07.24-.13.39-.07.15.07.13.13.28.2.15.07.12.15.27.22.15.07.24-.17.4-.1.15.07.09.26.24.33.15.07.19-.02.35.05.15.07.12.24.24.29l.4-.92c-.12-.05-.15.08-.31,0-.16-.07-.12-.14-.28-.21Z"/>
      <path class="st1" d="M51.12,20.64c-.16-.07-.19.1-.35.03-.16-.07-.18-.25-.34-.32-.16-.07-.18,0-.34-.07-.16-.07-.1-.21-.25-.28-.15-.07-.24.03-.4-.03-.16-.07-.23.23-.39.16-.15-.07-.04-.38-.2-.45-.15-.07-.23,0-.38-.07-.16-.07,0-.26-.16-.32-.15-.07-.25.13-.4.06-.16-.07-.14-.09-.3-.16-.15-.07-.1-.22-.25-.29-.16-.07-.27.14-.43.07-.15-.07-.21-.33-.22-.33l-.4.92s.24,0,.4.06c.15.07.1.18.26.25.15.07.21-.06.37,0,.15.07.09.22.24.29.15.07.22-.22.38-.15.15.07.16.18.32.25.15.07.11.13.26.2.15.07.22-.03.38.03.15.07.07.26.23.33.15.07.24-.13.39-.07.15.07.13.13.28.2.15.07.12.15.27.22.15.07.24-.17.4-.1.15.07.09.26.24.33.15.07.19-.02.35.05.15.07.12.24.24.29l.4-.92c-.12-.05-.15.08-.31,0-.16-.07-.12-.14-.28-.21Z"/>
      <path class="st1" d="M56.11,22.83c-.16-.07-.19.1-.35.03-.16-.07-.18-.25-.34-.32-.16-.07-.18,0-.34-.07-.16-.07-.1-.21-.25-.28-.15-.07-.24.03-.4-.03-.16-.07-.23.23-.39.16-.15-.07-.04-.38-.2-.45-.15-.07-.23,0-.38-.07-.16-.07,0-.26-.16-.32-.15-.07-.25.13-.4.06-.16-.07-.14-.09-.3-.16-.15-.07-.1-.22-.25-.29-.16-.07-.27.14-.43.07-.15-.07-.21-.33-.22-.33l-.4.92s.24,0,.4.06c.15.07.1.18.26.25.15.07.21-.06.37,0,.15.07.09.22.24.29.15.07.22-.22.38-.15.15.07.16.18.32.25.15.07.11.13.26.2.15.07.22-.03.38.03.15.07.07.26.23.33.15.07.24-.13.39-.07.15.07.13.13.28.2.15.07.12.15.27.22.15.07.24-.17.4-.1.15.07.09.26.24.33.15.07.19-.02.35.05.15.07.12.24.24.29l.4-.92c-.12-.05-.15.08-.31,0-.16-.07-.12-.14-.28-.21Z"/>
      <path class="st1" d="M60.27,20.01c-.1.1.04.2-.07.31-.1.1-.27.05-.38.16-.1.1-.06.15-.16.26-.1.1-.22,0-.32.1-.1.1-.04.22-.14.32-.1.1.14.29.04.39-.1.1-.35-.12-.46-.02-.1.1-.06.19-.17.3-.1.1-.23-.1-.33,0-.1.1.05.26-.06.36-.1.1-.12.08-.23.19-.1.1-.22,0-.33.1-.1.1.05.29-.05.39-.1.1-.35.05-.36.05l.7.71s.06-.21.17-.31c.1-.1.19-.01.3-.12.1-.1,0-.2.11-.31.1-.1.22.02.32-.09.1-.1-.13-.28-.03-.38.1-.1.21-.06.31-.17.1-.1.15-.04.25-.14.1-.1.03-.2.14-.3.1-.1.26.05.36-.06.1-.1-.05-.26.05-.36.1-.1.16-.05.26-.16.1-.1.17-.04.27-.14.1-.1-.09-.27.02-.38.1-.1.26.03.36-.07.1-.1.04-.17.14-.28.1-.1.25,0,.33-.09l-.7-.71c-.08.08.02.16-.08.26-.1.1-.16.05-.26.15Z"/>
      <path class="st1" d="M63.63,16.68c-.1.1.04.2-.07.31-.1.1-.27.05-.38.16-.1.1-.06.15-.16.26-.1.1-.22,0-.32.1-.1.1-.04.22-.14.32-.1.1.14.29.04.39-.1.1-.35-.12-.46-.02-.1.1-.06.19-.17.3-.1.1-.23-.1-.33,0-.1.1.05.26-.06.36-.1.1-.12.08-.23.19-.1.1-.22,0-.33.1-.1.1.05.29-.05.39-.1.1-.35.05-.36.05l.7.71s.06-.21.17-.31c.1-.1.19-.01.3-.12.1-.1,0-.2.11-.31.1-.1.22.02.32-.09.1-.1-.13-.28-.03-.38.1-.1.21-.06.31-.17.1-.1.15-.04.25-.14.1-.1.03-.2.14-.3.1-.1.26.05.36-.06.1-.1-.05-.26.05-.36.1-.1.16-.05.26-.16.1-.1.17-.04.27-.14.1-.1-.09-.27.02-.38.1-.1.26.03.36-.07.1-.1.04-.17.14-.28.1-.1.25,0,.33-.09l-.7-.71c-.08.08.02.16-.08.26-.1.1-.16.05-.26.15Z"/>
      <path class="st1" d="M59.79,12.35c.16.1.22-.07.38.04.16.11.17.3.33.41.16.11.2.05.36.16.16.11.07.24.23.35.16.11.27.03.43.14.16.11.29-.17.44-.05.15.12-.03.4.13.52.15.12.25.07.39.19.15.12-.05.26.1.38.15.12.29-.04.43.08.14.13.13.15.27.27.14.13.04.26.17.39.14.13.32-.02.46.11.14.14.09.41.1.42l.74-.67s-.25-.13-.4-.26c-.14-.14-.05-.23-.2-.37-.15-.14-.24-.04-.39-.17-.15-.13-.04-.25-.19-.39-.15-.13-.29.12-.44,0-.15-.12-.14-.24-.29-.37-.15-.13-.09-.17-.24-.29-.16-.12-.25-.04-.41-.16-.16-.12-.03-.29-.19-.41-.16-.12-.29.06-.45-.05-.16-.11-.12-.17-.28-.29-.16-.11-.11-.19-.27-.3-.16-.11-.29.11-.45,0-.16-.11-.07-.29-.23-.4-.17-.1-.22-.02-.39-.13-.17-.1-.12-.27-.24-.35l-.52.85c.12.08.18-.05.34.06.16.1.12.17.29.27Z"/>
      <path class="st1" d="M54.33,9.38c.17.08.21-.09.38,0,.18.08.21.27.39.35.17.08.2.02.38.1.17.09.11.23.28.32.17.09.27,0,.44.08.17.09.26-.21.43-.12.17.09.04.4.21.49.17.09.25.03.42.13.17.09,0,.26.17.36.17.09.28-.1.45,0,.17.09.16.12.32.22.17.1.09.24.26.34.17.1.31-.1.48,0,.17.1.21.38.22.38l.52-.85s-.27-.05-.44-.14c-.17-.1-.1-.21-.27-.31-.17-.1-.24.02-.41-.08-.17-.1-.08-.24-.26-.34-.17-.09-.26.18-.43.09-.17-.09-.18-.21-.35-.31-.17-.09-.12-.15-.29-.24-.17-.09-.25,0-.42-.09-.17-.09-.08-.28-.25-.37-.17-.09-.27.11-.44.02-.17-.09-.14-.15-.32-.24-.18-.08-.14-.17-.31-.25-.18-.08-.27.15-.45.07-.18-.08-.11-.28-.29-.36-.18-.08-.22,0-.4-.08-.18-.08-.16-.25-.29-.31l-.4.92c.13.06.17-.07.35,0,.18.08.14.15.32.23Z"/>
      <path class="st1" d="M48.49,7.28c.19.05.19-.13.38-.07.19.06.25.24.44.29.19.06.2,0,.39.05.19.06.15.2.33.26.18.06.27-.05.45.01.18.06.22-.25.41-.19.18.06.1.39.29.45.18.06.26,0,.44.06.18.07.04.26.22.33.18.07.26-.14.44-.07.18.07.17.09.35.16.18.07.13.23.31.3.18.07.29-.14.47-.06.18.08.26.34.27.35l.4-.92s-.28,0-.46-.08c-.18-.08-.13-.19-.32-.27-.18-.08-.23.05-.42-.02-.18-.07-.12-.22-.31-.29-.18-.07-.23.22-.41.15-.18-.07-.21-.18-.39-.25-.18-.07-.14-.13-.32-.2-.19-.06-.25.04-.43-.02-.19-.06-.12-.27-.31-.33-.19-.06-.25.15-.44.08-.19-.06-.17-.13-.35-.18-.19-.06-.16-.15-.35-.2-.19-.06-.24.19-.43.14-.19-.06-.15-.26-.34-.31-.19-.05-.22.04-.41,0-.19-.05-.19-.23-.34-.26l-.25.97c.14.04.15-.1.34-.05.19.05.17.12.35.17Z"/>
      <path class="st1" d="M42.39,6.08c.19.02.17-.15.36-.13.19.03.28.19.48.22.19.02.2-.04.39-.01.19.03.17.18.36.21.19.03.26-.09.45-.06.19.03.18-.28.38-.24.19.03.16.37.35.4.19.03.25-.04.44,0,.19.04.08.25.26.29.19.04.24-.17.43-.13.19.04.18.07.37.11.19.04.16.21.35.25.19.04.27-.18.46-.14.19.05.31.3.32.3l.25-.97s-.27.03-.46-.01c-.19-.04-.16-.17-.35-.21-.19-.04-.22.09-.42.05-.19-.04-.15-.21-.34-.25-.19-.04-.19.25-.39.21-.19-.04-.23-.15-.42-.19-.19-.04-.15-.11-.35-.15-.19-.03-.24.08-.43.05-.19-.03-.16-.25-.36-.28-.19-.03-.23.19-.42.15-.19-.03-.18-.1-.38-.13-.19-.03-.18-.13-.38-.15-.2-.03-.21.23-.4.2-.19-.03-.19-.23-.38-.25-.2-.02-.21.07-.4.05-.19-.02-.23-.19-.38-.21l-.1,1c.14.01.14-.12.33-.1.19.02.18.1.37.12Z"/>
      <path class="st1" d="M41.25,10.73c0-.15-.17-.11-.18-.26,0-.15.15-.24.15-.38,0-.15-.07-.15-.07-.29,0-.15.15-.15.15-.3,0-.15-.13-.18-.14-.33,0-.15-.31-.09-.31-.24,0-.15.33-.18.33-.32,0-.15-.1-.18-.1-.33,0-.15.23-.1.23-.25,0-.15-.22-.14-.23-.29,0-.15.02-.15.02-.29,0-.15.16-.16.16-.31,0-.15-.25-.16-.25-.31,0-.15.21-.29.21-.3l-1,.02s.11.19.11.33c0,.15-.12.15-.12.3,0,.15.14.14.15.29,0,.15-.16.15-.16.29,0,.15.29.1.29.24,0,.15-.09.2-.09.34,0,.15-.07.13-.07.28,0,.15.12.16.13.31,0,.15-.21.16-.21.3,0,.15.22.14.23.28,0,.15-.07.15-.07.3,0,.15-.09.15-.09.3,0,.15.26.13.26.27,0,.15-.2.17-.2.31,0,.15.1.14.1.29,0,.15-.16.19-.16.3l1-.02c0-.11-.13-.09-.14-.24,0-.15.07-.15.07-.3Z"/>
      <path class="st1" d="M41.36,15.47c0-.15-.17-.11-.18-.26,0-.15.15-.24.15-.38,0-.15-.07-.15-.07-.29,0-.15.15-.15.15-.3,0-.15-.13-.18-.14-.33,0-.15-.31-.09-.31-.24,0-.15.33-.18.33-.32,0-.15-.1-.18-.1-.33,0-.15.23-.1.23-.25,0-.15-.22-.14-.23-.29,0-.15.02-.15.02-.29,0-.15.16-.16.16-.31,0-.15-.25-.16-.25-.31,0-.15.21-.29.21-.3l-1,.02s.11.19.11.33c0,.15-.12.15-.12.3,0,.15.14.14.15.29,0,.15-.16.15-.16.29,0,.15.29.1.29.24,0,.15-.09.2-.09.34,0,.15-.07.13-.07.28,0,.15.12.16.13.31,0,.15-.21.16-.21.3,0,.15.22.14.23.28,0,.15-.07.15-.07.3,0,.15-.09.15-.09.3,0,.15.26.13.26.27,0,.15-.2.17-.2.31,0,.15.1.14.1.29,0,.15-.16.19-.16.3l1-.02c0-.11-.13-.09-.14-.24,0-.15.07-.15.07-.3Z"/>
      <g>
        <path class="st1" d="M57.8,23.7h-.02s-.01.03-.01.03l-.03.03-.03.03h-.02s-.02.02-.02.02h-.01s-.01,0-.01,0h-.02s-.05-.02-.05-.02l-.06-.02h-.03s-.01,0-.01,0h-.01s-.01,0-.01,0h0s-.02.02-.02.02l-.03.04-.02.02-.02.02h0s0,.01,0,.01h-.01s-.01,0-.01,0h-.02s-.02,0-.02,0h-.04s-.04-.03-.04-.03h-.05s-.03-.02-.03-.02h-.01s-.01,0-.01,0h-.02s-.02,0-.02,0h-.05s-.02-.01-.02-.01h-.01s-.01,0-.01,0h-.02s-.02.03-.02.03l-.04.04-.04.04-.02.02h-.01s-.01,0-.01,0h-.05s-.05.01-.05.01c-.03,0-.07,0-.09,0h0s0,0,0,0h0s0,0,0,0h-.01s-.01-.03-.01-.03l-.02-.03h-.01s0-.02,0-.02h0s-.01,0-.01,0h-.01s-.02.01-.02.01l-.05.03-.03.02h-.03s-.01.02-.01.02h-.01s-.01,0-.01,0h-.01s.2-.46.2-.46l.1-.23.1-.23h.01s.01.02.01.02h0s0,.01,0,.01h0s0,0,0,0h0s0,.01,0,.02l.02.03v.02s.02,0,.02,0h0s0,.01,0,.01h.01s.01,0,.01,0c0,0,0,0,.01,0,.02,0,.05,0,.09,0h.05s.01,0,.01,0h0s0,0,0,0h0s.02,0,.02,0h.03s.01,0,.01,0h.01s.02,0,.02,0h.02s.03-.03.03-.03c0,0,.01,0,.01,0h0s0,0,0,0h0s0,0,0,0h0s0-.01,0-.01v-.02s0-.02,0-.02v-.04s0-.01,0-.01h0s0-.01,0-.01c0,0,0,0,.01,0h.01s.02-.04.02-.04l.18.18.18.18.35.35h-.01s-.02.02-.02.02h-.04s-.04.02-.04.02h-.02s-.02.02-.02.02Z"/>
        <polygon class="st0" points="56.9 22.57 56.1 24.4 57.34 24.95 58.31 23.99 56.9 22.57"/>
      </g>
      <g>
        <path class="st1" d="M64.83,15.28v.02s.03.02.03.02l.04.04.04.04v.02s.03.02.03.02h0s0,.02,0,.02v.03s-.02.06-.02.06l-.02.06v.03s0,.01,0,.01h0s0,.03,0,.03h0s.01.03.01.03l.04.04.02.02.02.02h0s0,.02,0,.02h0s0,.03,0,.03v.03s0,.02,0,.02l-.02.04s-.02.06-.04.09v.03s-.02.03-.02.03v.02s-.03.02-.03.02l-.03.05v.02s-.02.01-.02.01h0s0,.03,0,.03h0s0,.04,0,.04l.02.06.02.05v.03s0,.01,0,.01h0s-.01.06-.01.06l-.02.05s-.03.07-.04.1h0s0,.02,0,.02h0s0,.01,0,.01h-.02s-.02.01-.02.01h-.04s-.02.02-.02.02h0s0,.02,0,.02h0s0,.02,0,.02v.03s0,.07,0,.07v.03s0,.03,0,.03c0,0,0,.01,0,.01h0s0,.03,0,.03h0s-.35-.34-.35-.34l-.18-.18-.18-.18h.02s.01-.02.01-.02h.01s0-.01,0-.01h0s0-.01,0-.01h0s.02,0,.02,0h.04s.02-.01.02-.01h0s0-.01,0-.01h0s0-.02,0-.02c0,0,0,0,0-.01v-.02s.03-.06.04-.09l.02-.05h0s0-.02,0-.02h0s0,0,0,0h0s0,0,0,0c0,.05,0,.05,0,.08h0s0,0,0,0h0s0-.02,0-.02v-.02s0-.02,0-.02h0s0-.03,0-.03v-.02s-.02-.02-.02-.02l-.02-.03h0s0-.02,0-.02h0s0-.01,0-.01h0s0-.01,0-.01h0s-.02,0-.02,0h-.02s-.04,0-.04,0h-.02s0-.01,0-.01h0s0-.01-.01-.02h-.01s-.03-.04-.03-.04l.18-.17.18-.17.37-.34v.02s.02.02.02.02l.02.05.02.05v.02s.02.02.02.02Z"/>
        <path class="st0" d="M63.65,15.91s-.02,0-.03,0h0s0,0,0,0h0s0,0,0,0h0s.01.02.01.02l.02.02.04.04.09.09.18.18.35.35.7.71,1.14-1.13-.43-.68-.09-.13-.08-.1-.15-.19-.15-.17-.15-.17-.74.67-.37.34-.18.17-.09.08-.05.04-.02.02h-.01s0,.02,0,.02h0s0,0,0,0h0s0,0,0,0c0-.13,0-.12,0-.19Z"/>
      </g>
      <g>
        <path class="st1" d="M40.26,6.32v-.03s0-.03,0-.03v-.07s0-.07,0-.07v-.03s0-.03,0-.03h0s0-.02,0-.03l.02-.02.02-.02.03-.02.05-.04.02-.02h0s0-.03,0-.03h0s0-.03,0-.03v-.03s0-.07,0-.07v-.04s0-.04,0-.04v-.03s0-.01,0-.01h0s.02-.04.02-.04l.02-.02.04-.03.04-.03.04-.04h.01s.01-.02.01-.02h.03s.04-.02.04-.02h.04s.08,0,.08,0h.03s.02-.01.02-.01h.01s.01-.02.01-.02h.01s.02-.03.02-.03l.03-.05.02-.03.02-.03.02-.02h.01s0-.01.01-.01l.06-.02.07-.02s.1-.02.14-.03c0,0,.01,0,.01,0h.01s.03,0,.03,0h.02s.02.02.02.02l.05.02h.03s.03,0,.03,0h.02s.02,0,.02,0l.03-.02.06-.05.03-.02.03-.02h.02s.02-.01.02-.01h.02s.02,0,.02,0l-.05.5-.02.25-.02.25h-.03s-.02-.01-.02-.01h-.02s0,0,0,0h0s0,0,0,0h0s-.02-.01-.02-.01l-.04-.03h-.02s-.03-.02-.03-.02c0,0-.01,0-.02,0h-.02s-.02,0-.02,0h-.02s-.07.02-.12.04c-.02,0-.05.01-.07.02h-.01s0,0,0,0h0s0,0,0,0h0s0,0,0,0c.01,0,.01,0,.02-.01h0s0,0,0,0h0s-.02.02-.02.02h-.01s-.01.03-.01.03v.02s-.02.02-.02.02v.03s-.01.03-.01.03v.05s0,.02,0,.02h0s0,.02,0,.02h0s0,.02,0,.02h0s0,.02,0,.02v.02s.02.02.02.02l.03.04v.02s.01.01.01.01h0s0,.03,0,.03v.03s0,.04,0,.06h-.25s-.25.01-.25.01h-.5s0-.01,0-.01v-.03s.03-.06.03-.06l.02-.06v-.03s.01-.03.01-.03Z"/>
        <path class="st0" d="M41.7,6.52s-.04.02-.06.04h0s0,0,0,0h0s0,0,0,0h0s0-.02,0-.02v-.03s0-.06,0-.06v-.12s.04-.25.04-.25l.05-.5.1-1-.55-.05-.57-.04-1.06-.04.05,2.13,2-.05Z"/>
      </g>
      <g>
        <path class="st1" d="M41.22,17.25h-.02s-.02-.02-.02-.02h-.04s-.04-.03-.04-.03h-.02s-.01-.02-.01-.02h0s0-.02,0-.02v-.02s0-.06,0-.06v-.06s0-.03,0-.03h0s0-.02,0-.02h0s0-.02,0-.02h-.02s-.04-.02-.04-.02h-.02s-.02-.02-.02-.02h0s0-.01,0-.01h0s0-.02,0-.02v-.02s0-.02,0-.02v-.04s0-.05,0-.05v-.05s0-.03,0-.03h0s0-.02,0-.02v-.02s-.01-.02-.01-.02v-.05s-.02-.02-.02-.02h0s0-.02,0-.02h-.02s-.03-.02-.03-.02l-.06-.02-.06-.02h-.02s0-.02,0-.02h0s-.03-.04-.03-.04l-.02-.04s-.03-.06-.04-.08h0s0-.02,0-.02h0s0-.02,0-.02h0s0-.03,0-.03l.02-.03v-.02s0,0,0,0h0s0-.02,0-.02h0s-.02-.03-.02-.03l-.05-.03-.03-.02-.02-.02h0s0-.02,0-.02h0s0-.02,0-.02h.5s.25-.02.25-.02h.25s0,0,0,0h0s0,.02,0,.02h0s0,.01,0,.01h0s0,.01,0,.01h0s-.02.04-.02.04h0s0,.02,0,.02h0s0,.02,0,.02h0s0,.02,0,.02h0s.03.05.04.08l.03.04h0s0,.01,0,.01h0s0,0,0,0v.02s0,.03,0,.03h0s0,.02,0,.02v.02s.03.01.03.01h.03s.01.02.01.02h0s0,.01,0,.01h0s0,0,0,0h0s0,0,0,0c0,0,0,0,.01,0h.02s.03-.02.03-.02c0,0,.01,0,.01,0h0s0,0,0,0c0,0,0,0,.01,0h.02s.03.02.03.02l-.1.23-.1.23-.2.46s0,0-.01,0h-.01s-.02-.05-.02-.05l-.02-.04v-.02s-.03-.01-.03-.01Z"/>
        <polygon class="st0" points="41.93 15.99 39.93 16.04 39.96 17.31 41.12 17.83 41.93 15.99"/>
      </g>
    </g>
  </g>
  <g>
    <path class="st1" d="M65.98,41.88l-6.64,15.43,6.39,7.23s5.9-6.92,6.92-8.88c2.62-5.05,3.55-13.4,3.55-13.4l-10.22-.37Z"/>
    <g>
      <path class="st1" d="M64.71,62.71c-.16-.18-.25-.03-.42-.21-.16-.18-.14-.39-.3-.58-.16-.18-.21-.14-.37-.32-.16-.18-.05-.29-.21-.47-.16-.18-.3-.14-.46-.32-.16-.18-.34.08-.5-.11-.16-.18.07-.43-.1-.61-.16-.18-.27-.17-.43-.35-.16-.18.07-.27-.09-.45-.16-.18-.33-.04-.49-.22-.16-.18-.14-.2-.3-.38-.16-.18-.05-.3-.21-.48-.16-.18-.36-.05-.53-.23-.16-.18-.15-.5-.16-.51l-.75.66s.29.17.45.35c.16.18.07.26.23.45.16.18.27.09.43.27.16.18.03.29.2.47.16.18.33-.06.49.12.16.18.14.31.3.49.16.18.08.21.25.39.16.18.27.12.43.31.16.18,0,.33.17.51.16.18.32.03.48.22.16.18.11.23.27.41.16.18.09.25.25.43.16.18.34,0,.5.18.16.18.02.34.19.52.16.18.23.12.4.3.16.18.07.34.2.48l.75-.66c-.12-.14-.2-.03-.37-.22-.16-.18-.1-.23-.26-.42Z"/>
      <path class="st1" d="M69.35,59.44c-.11.14.05.21-.06.35-.11.14-.3.12-.41.26-.11.14-.06.18-.17.32-.11.14-.23.05-.35.18-.11.14-.04.25-.15.39-.11.14.16.29.05.43-.11.14-.39-.05-.5.08-.11.14-.07.23-.18.37-.11.14-.25-.06-.36.08-.11.14.05.28-.06.42-.11.14-.13.12-.25.26-.11.14-.25.04-.36.18-.11.14.05.31-.06.45-.11.14-.39.13-.39.13l.77.64s.07-.24.18-.38c.11-.14.21-.06.32-.19.11-.14,0-.23.12-.36.11-.14.24-.03.35-.17.11-.14-.14-.28-.03-.42.11-.14.23-.12.34-.25.11-.14.16-.07.27-.21.11-.14.03-.23.15-.37.11-.14.28,0,.39-.14.11-.14-.06-.27.05-.41.11-.14.17-.09.28-.23.11-.14.19-.08.3-.22.11-.14-.1-.28.01-.42.11-.14.28-.03.39-.17.11-.14.04-.2.15-.34.11-.14.27-.07.35-.18l-.79-.62c-.08.1.03.17-.08.31-.11.14-.17.09-.28.23Z"/>
      <path class="st1" d="M72.55,54.82c-.08.16.09.2.02.36-.08.16-.26.19-.34.33-.08.14-.02.18-.11.32-.09.15-.23.07-.32.21-.1.14,0,.25-.11.4-.1.14.18.27.08.42-.1.15-.39-.03-.49.11-.1.14-.06.23-.16.37-.11.14-.25-.05-.36.09-.1.14.07.27-.04.42-.11.14-.13.12-.24.27-.11.14-.24.05-.35.19-.11.14.07.31-.04.45-.11.14-.38.14-.39.15l.79.62s.06-.25.17-.39c.11-.14.21-.06.32-.2.11-.14,0-.23.11-.37.11-.14.24-.04.35-.18.11-.14-.15-.27-.05-.42.11-.14.22-.13.33-.27.11-.14.16-.08.26-.23.1-.15.02-.23.12-.38.1-.15.28-.03.39-.18.1-.15-.08-.27.02-.42.1-.15.16-.11.26-.27.09-.16.18-.12.27-.28.09-.17-.15-.26-.07-.43.08-.16.27-.09.35-.25.08-.16,0-.2.07-.37.08-.16.24-.14.3-.26l-.92-.4c-.05.12.08.16,0,.32-.08.16-.15.12-.22.28Z"/>
      <path class="st1" d="M74.39,49.48c-.04.17.13.18.08.35-.05.17-.22.23-.27.4-.05.17.02.19-.03.36-.05.17-.2.13-.25.3-.05.17.06.25.01.42-.05.17.26.21.2.38-.05.17-.38.09-.43.26-.05.17.02.24-.03.41-.05.17-.26.03-.31.2-.06.16.14.24.08.41-.06.17-.09.16-.15.32-.06.16-.21.12-.28.28-.07.16.15.27.08.44-.07.16-.33.23-.33.24l.92.4s0-.26.06-.42c.07-.17.18-.12.25-.29.07-.17-.06-.22,0-.39.06-.17.22-.11.28-.28.06-.17-.23-.22-.17-.38.06-.17.18-.19.23-.36.06-.17.12-.13.18-.3.06-.17-.05-.23,0-.4.05-.17.26-.11.31-.28.05-.17-.16-.23-.11-.4.05-.17.12-.15.17-.32.05-.17.14-.15.19-.32.05-.17-.2-.22-.16-.4.05-.17.25-.14.29-.31.05-.17-.05-.2,0-.37.05-.17.22-.18.25-.31l-.97-.24c-.03.13.1.14.06.32-.04.17-.12.15-.16.32Z"/>
      <path class="st1" d="M75.52,43.89c-.03.18.15.16.12.34-.03.18-.2.25-.23.43-.03.17.04.19,0,.36-.03.17-.18.15-.21.33-.03.17.09.24.06.41-.03.17.28.18.25.35-.03.17-.37.14-.4.31-.03.17.05.23.01.41-.03.17-.25.07-.29.24-.04.17.18.22.14.39-.04.17-.06.17-.1.34-.04.17-.2.15-.24.32-.04.17.19.25.15.42-.04.17-.29.28-.29.29l.97.24s-.05-.25,0-.42c.04-.17.16-.15.2-.32.04-.18-.1-.21-.06-.38.04-.17.2-.14.24-.31.04-.18-.25-.18-.22-.36.04-.17.15-.21.18-.38.03-.17.11-.14.14-.31.03-.18-.08-.22-.05-.39.03-.18.24-.14.28-.32.03-.18-.18-.21-.15-.39.03-.18.1-.16.13-.34.03-.18.12-.16.15-.34.03-.18-.22-.2-.19-.38.03-.18.23-.16.26-.34.03-.18-.07-.19-.04-.37.03-.18.2-.2.22-.33l-.99-.14c-.02.13.11.13.09.31-.03.18-.1.16-.13.34Z"/>
      <path class="st1" d="M67.61,42.38c.26,0,.21-.16.48-.15.26,0,.41.17.67.18.26,0,.27-.06.53-.05.26,0,.26.16.53.17.26,0,.33-.12.59-.11.26,0,.19-.3.46-.29.26,0,.29.34.55.35.26,0,.33-.08.59-.07.26,0,.16.24.42.25.26,0,.28-.21.54-.2.26,0,.26.04.52.05.26,0,.27.17.53.18.26,0,.31-.23.57-.22.26,0,.5.23.52.23l.04-1s-.34.09-.61.08c-.26,0-.26-.13-.52-.14-.26,0-.27.13-.53.12-.26,0-.25-.18-.51-.19-.26,0-.19.28-.45.27-.26,0-.34-.11-.6-.12-.26,0-.23-.08-.49-.09-.26,0-.3.11-.56.1-.26,0-.26-.22-.52-.23-.26,0-.26.21-.53.2-.26,0-.26-.08-.52-.09-.26,0-.26-.1-.52-.11-.26,0-.25.25-.51.24-.26,0-.28-.21-.54-.22-.26,0-.27.09-.53.08-.26,0-.32-.18-.52-.19l-.04,1c.2,0,.18-.13.44-.12.26,0,.26.09.52.1Z"/>
      <path class="st1" d="M64.31,46.88c.06-.15-.11-.18-.04-.33.06-.15.24-.17.31-.32.06-.15,0-.17.07-.32.06-.15.21-.09.27-.24.06-.15-.04-.23.02-.38.06-.15-.24-.22-.17-.37.06-.15.38-.04.44-.18.06-.15,0-.22.06-.37.06-.15.25,0,.32-.15.06-.15-.14-.24-.07-.38.06-.15.09-.14.15-.28.06-.15.22-.09.28-.24.06-.15-.15-.26-.09-.41.06-.15.32-.2.32-.21l-.92-.4s.01.23-.05.38c-.06.15-.18.1-.24.24-.06.15.06.2,0,.35-.06.15-.21.08-.28.23-.06.15.22.22.16.36-.06.15-.17.15-.24.3-.06.15-.13.1-.19.25-.06.15.04.21-.02.36-.06.15-.26.07-.32.21-.06.15.14.23.08.38-.06.15-.13.12-.19.26-.06.15-.15.11-.21.26-.06.15.18.23.11.38-.06.15-.26.08-.32.23-.06.15.03.19-.04.33-.06.15-.23.12-.28.23l.92.4c.05-.11-.08-.15-.02-.3.06-.15.13-.12.2-.26Z"/>
      <path class="st1" d="M62.27,51.62c.06-.15-.11-.18-.04-.33.06-.15.24-.17.31-.32.06-.15,0-.17.07-.32.06-.15.21-.09.27-.24.06-.15-.04-.23.02-.38.06-.15-.24-.22-.17-.37.06-.15.38-.04.44-.18.06-.15,0-.22.06-.37.06-.15.25,0,.32-.15.06-.15-.14-.24-.07-.38.06-.15.09-.14.15-.28.06-.15.22-.09.28-.24.06-.15-.15-.26-.09-.41.06-.15.32-.2.32-.21l-.92-.4s.01.23-.05.38c-.06.15-.18.1-.24.24-.06.15.06.2,0,.35-.06.15-.21.08-.28.23-.06.15.22.22.16.36-.06.15-.17.15-.24.3-.06.15-.13.1-.19.25-.06.15.04.21-.02.36-.06.15-.26.07-.32.21-.06.15.14.23.08.38-.06.15-.13.12-.19.26-.06.15-.15.11-.21.26-.06.15.18.23.11.38-.06.15-.26.08-.32.23-.06.15.03.19-.04.33-.06.15-.23.12-.28.23l.92.4c.05-.11-.08-.15-.02-.3.06-.15.13-.12.2-.26Z"/>
      <path class="st1" d="M60.23,56.36c.06-.15-.11-.18-.04-.33.06-.15.24-.17.31-.32.06-.15,0-.17.07-.32.06-.15.21-.09.27-.24.06-.15-.04-.23.02-.38.06-.15-.24-.22-.17-.37.06-.15.38-.04.44-.18.06-.15,0-.22.06-.37.06-.15.25,0,.32-.15.06-.15-.14-.24-.07-.38.06-.15.09-.14.15-.28.06-.15.22-.09.28-.24.06-.15-.15-.26-.09-.41.06-.15.32-.2.32-.21l-.92-.4s.01.23-.05.38c-.06.15-.18.1-.24.24-.06.15.06.2,0,.35-.06.15-.21.08-.28.23-.06.15.22.22.16.36-.06.15-.17.15-.24.3-.06.15-.13.1-.19.25-.06.15.04.21-.02.36-.06.15-.26.07-.32.21-.06.15.14.23.08.38-.06.15-.13.12-.19.26-.06.15-.15.11-.21.26-.06.15.18.23.11.38-.06.15-.26.08-.32.23-.06.15.03.19-.04.33-.06.15-.23.12-.28.23l.92.4c.05-.11-.08-.15-.02-.3.06-.15.13-.12.2-.26Z"/>
      <g>
        <path class="st1" d="M66.64,64.13l-.02.02-.02.03-.04.06-.04.06-.02.02-.03.02h-.01s-.01.01-.01.01h-.03s-.03,0-.03,0h-.03s-.07,0-.07,0h-.03s-.02,0-.02,0h-.02s-.01.01-.01.01h-.01s-.03.04-.03.04l-.05.06-.05.06-.03.02h-.01s-.02.01-.02.01h-.03s-.03.01-.03.01h-.05s-.05,0-.05,0h-.06s-.02,0-.02,0h0s0,0,0,0h0s-.03-.02-.03-.02l-.06-.05-.06-.06-.03-.02h-.02s-.02-.01-.02-.01h-.02s-.02,0-.02,0h-.03s-.06.02-.06.02h-.03s-.03.01-.03.01h-.03s-.02,0-.02,0h-.01s-.06-.04-.06-.04l-.07-.04s-.09-.06-.13-.08h-.01s-.01-.02-.01-.02l-.02-.02v-.02s-.02-.03-.02-.03l-.02-.05-.02-.02-.02-.02h-.01s-.02-.02-.02-.02h-.04s-.05-.02-.08-.02h-.04s-.04-.02-.04-.02h-.02s-.02-.02-.02-.02h-.02s-.01-.02-.01-.02l.37-.33.19-.17.19-.17.02.02v.02s.02.02.02.02h0s0,.02,0,.02h0s0,.02,0,.02v.02s.02.05.02.05v.03s.03.03.03.03h.01s.01.03.01.03h.02s.02.02.02.02c.02.02.07.04.12.07.02.01.05.03.07.04h.03s.02.01.02.01h.02s.02,0,.02,0h.02s.02-.01.02-.01l.03-.02.02-.02.04-.04.02-.02h.02s0-.02,0-.02h0s0-.02,0-.02h0s0-.03,0-.03v-.03s.01-.05.01-.05v-.02s.01,0,.01,0h0s.02-.03.02-.03l.02-.02s.03-.04.04-.05l.19.16.19.16.38.32-.02.02-.02.02-.06.04-.06.04-.03.02-.03.02Z"/>
        <polygon class="st0" points="65.71 63.01 64.21 64.34 65.74 66.06 67.24 64.3 65.71 63.01"/>
      </g>
      <g>
        <path class="st1" d="M75.38,41.79h.03s.03,0,.03,0h.07s.07,0,.07,0h.03s.03.01.03.01h.01s.01.01.01.01l.02.02.02.03.02.03.04.05.02.02h.01s.01.02.01.02h.01s.02.01.02.01h.03s.07,0,.07,0h.04s.04,0,.04,0h.03s.01.01.01.01h.01s.02.03.02.03l.02.02.03.04.03.04.04.04h0s0,.03,0,.03v.03s.01.04.01.04v.04s0,.08,0,.08v.04s0,.02,0,.02h0s0,.03,0,.03h0s.02.03.02.03l.05.04.03.02.02.02.02.02h0s0,.03,0,.03l.02.07v.07s.03.1.04.14c0,0,0,.02,0,.02h0s0,.04,0,.04v.02s-.02.02-.02.02l-.02.05v.03s-.01.03-.01.03v.02s0,.02,0,.02v.03s.06.07.06.07l.02.03.02.03v.02s.01.02.01.02v.02s0,.02,0,.02l-.49-.07-.25-.04-.25-.04v-.03s.01-.02.01-.02v-.02s0,0,0,0h0s0-.02,0-.02h0s.01-.03.01-.03l.03-.04v-.02s.02-.03.02-.03v-.02s0-.02,0-.02v-.02s0-.02,0-.02c0-.03-.01-.08-.02-.12,0-.02-.01-.05-.02-.07v-.02s0,0,0,0h0s0,0,0,0h0s0,0,0,0c0,0,0,.01,0,.01h0s0,0,0,0h0s-.01-.02-.01-.02v-.02s-.03-.01-.03-.01h-.01s-.01-.02-.01-.02h-.03s-.03-.02-.03-.02h-.05s-.02,0-.02,0h-.01s0,0,0,0h0s0,0,0,0h0s-.01,0-.01,0h-.02s-.02.02-.02.02l-.04.02h-.02s-.01,0-.01,0h-.01s-.02,0-.02,0h-.03s-.04,0-.06,0v-.25s.02-.25.02-.25l.02-.5h.03s.03.01.03.01l.06.02.06.03h.03s.03.02.03.02Z"/>
        <path class="st0" d="M75.09,43.21s-.01-.02-.02-.03h0s0,0,0,0h0s0,0,0,0h0s.02,0,.02,0h.03s.06.01.06.01l.12.02.25.04.49.07.99.14.15-1.1.12-1.07-2.15-.08-.07,2Z"/>
      </g>
      <g>
        <path class="st1" d="M65.37,42.19v-.02s.02-.02.02-.02v-.04s.03-.04.03-.04v-.02s.02-.02.02-.02h0s.01-.01.01-.01h.02s.06,0,.06,0h.06s.03,0,.03,0h.01s.01,0,.01,0h0s0-.01,0-.01v-.02s.03-.04.03-.04v-.02s.02-.02.02-.02h0s0-.02,0-.02h0s.01-.01.01-.01h.02s.02-.01.02-.01h.05s.05,0,.05,0h.05s.03,0,.03,0h.01s.01-.01.01-.01h.02s.03,0,.03,0h.05s.02-.02.02-.02h0s0-.01,0-.01l.02-.02v-.02s.03-.06.03-.06l.02-.05v-.02s.02,0,.02,0h0s.04-.03.04-.03l.04-.02s.06-.03.09-.04h0s0,0,0,0h0s0,0,0,0h.02s.01.02.01.02l.03.02h.02s0,0,0,0h0s0,0,0,0h0s.02-.02.02-.02l.04-.05.02-.03.02-.02h.01s.01-.02.01-.02h.01s.01,0,.01,0l-.02.5v.25s-.02.25-.02.25h-.02s-.01,0-.01,0h-.01s0,0,0,0h0s0,0,0,0h0s0,0-.01,0l-.03-.02h-.02s0-.01,0-.01h0s-.01,0-.01,0h-.01s-.01,0-.01,0c0,0,0,0-.01,0-.02,0-.05.02-.08.04l-.04.02h0s0,0,0,0h0s0,0,0,0h-.02s-.03,0-.03,0h-.01s-.01.01-.01.01h-.02s-.01.03-.01.03l-.02.03s0,.01,0,.01h0s0,0,0,0h0s0,0,0,0h0s0,.01,0,.01v.02s.01.02.01.02v.03s.01.02.01.02h0s0,.01,0,.01c0,0,0,0,0,.01v.02s-.02.04-.02.04l-.23-.1-.23-.1-.46-.2h0s.01-.03.01-.03l.03-.03.04-.03h.02s.01-.03.01-.03Z"/>
        <polygon class="st0" points="66.63 42.9 66.7 40.9 65.33 40.85 64.79 42.11 66.63 42.9"/>
      </g>
      <g>
        <path class="st1" d="M59.34,57.96v-.02s-.02-.01-.02-.01l-.03-.03-.03-.03v-.02s-.02-.02-.02-.02h0s0-.02,0-.02v-.02s.03-.05.03-.05l.02-.05v-.02s.01-.01.01-.01h0s0-.02,0-.02h0s-.01-.03-.01-.03l-.03-.03h-.02s-.01-.03-.01-.03h0s0-.02,0-.02h0s0-.02,0-.02v-.02s.01-.02.01-.02l.02-.04.02-.04.02-.05v-.02s0-.01,0-.01h0s0-.03,0-.03v-.02s.01-.05.01-.05v-.02s0-.01,0-.01h0s-.01-.03-.01-.03l-.02-.02-.05-.04-.04-.04-.02-.02h0s0-.02,0-.02v-.04s-.02-.05-.02-.05c0-.03,0-.06,0-.09h0s0-.02,0-.02h0s0-.01,0-.01h.01s.01-.02.01-.02l.03-.02h.01s0-.02,0-.02h0s0-.02,0-.02h0s-.01-.03-.01-.03l-.03-.05-.02-.03v-.03s-.02-.01-.02-.01h0s0-.02,0-.02h0s.46.19.46.19l.23.1.23.1s0,.01,0,.01h0s0,.02,0,.02h0s0,.01,0,.01h0s0,.01,0,.01h-.01s-.03.02-.03.02h-.02s0,.02,0,.02h0s0,.02,0,.02h0s0,.02,0,.02h0s0,.06,0,.1v.05s0,.01,0,.01h0s0,0,0,0h0s0,.02,0,.02v.03s0,.01,0,.01h0s0,.03,0,.03v.02s.03.03.03.03h0s0,.02,0,.02h0s0,.01,0,.01h0s0,0,0,0h0s0,0,.02,0h.02s.04,0,.04,0c0,0,.01,0,.01,0h0s0,0,0,0c0,0,0,0,0,.01h.01s.03.04.03.04l-.19.17-.19.17-.37.33s0,0,0-.01v-.02s-.01-.04-.01-.04v-.04s-.01-.02-.01-.02v-.02Z"/>
        <polygon class="st0" points="60.51 57.12 58.67 56.33 58.17 57.49 59.01 58.44 60.51 57.12"/>
      </g>
    </g>
  </g>
  <g>
    <path d="M40.58,5.13c.15-.09.28-.23.37-.38.09-.15.12-.33.13-.51,0-.18-.05-.34-.14-.49-.09-.15-.19-.3-.35-.39-.15-.08-.35-.1-.54-.1l.04,2c.18,0,.36-.05.5-.14Z"/>
    <path d="M29.74,7.02c.35-.11.17-.41.52-.52.36-.11.66.12,1.01,0,.35-.11.32-.24.67-.35.35-.12.44.19.8.11.36-.08.39-.35.75-.43.36-.08.12-.65.49-.73.37-.08.55.56.91.48.36-.09.42-.25.79-.31.37-.05.3.43.67.38.36-.05.32-.48.69-.53.37-.05.37,0,.74-.04.37-.05.41.29.78.27.37-.01.39-.5.77-.51.37-.01.73.41.75.4l-.04-2s-.5.22-.89.24c-.39.01-.4-.24-.79-.22-.39.02-.37.28-.76.33-.38.05-.41-.28-.8-.23-.39.05-.2.6-.58.65-.38.05-.53-.13-.91-.09-.38.05-.37-.12-.74-.04-.38.08-.38.33-.76.41-.38.08-.48-.33-.86-.25-.38.08-.27.51-.65.59-.38.08-.41-.06-.78.06-.37.12-.42-.07-.79.05-.37.12-.18.59-.55.7-.37.11-.53-.26-.9-.14-.37.11-.3.31-.66.45-.36.15-.57-.13-.84-.02l.74,1.86c.25-.1.13-.34.47-.48.35-.13.39,0,.74-.12Z"/>
    <path d="M19.41,12.86c.29-.24,0-.47.3-.69.3-.22.67-.1.97-.32.3-.22.22-.33.52-.55.3-.22.48.03.78-.19.3-.21.24-.46.56-.66.32-.19-.11-.65.21-.85.32-.2.71.34,1.03.15.32-.19.3-.41.62-.59.33-.17.44.3.76.13.33-.17.13-.56.46-.73.33-.17.36-.12.69-.29.33-.16.48.11.82-.04.34-.14.19-.6.54-.74.35-.14.83.13.85.12l-.74-1.86s-.39.38-.75.53c-.36.15-.46-.08-.82.07-.36.16-.23.42-.58.6-.34.18-.49-.13-.83.05-.35.18.02.63-.32.81-.34.18-.55.05-.89.23-.33.2-.37.05-.7.25-.33.2-.24.43-.57.64-.33.2-.56-.15-.9.05-.33.21-.09.55-.4.78-.31.23-.39.11-.71.34-.31.23-.42.07-.74.3-.31.23.02.61-.29.84-.31.22-.6-.08-.89.18-.29.25-.17.4-.46.65-.29.25-.58.06-.81.25l1.32,1.5c.21-.18.01-.35.3-.6.28-.24.38-.12.66-.36Z"/>
    <path d="M11.55,21.76c.2-.31-.13-.43.07-.75.2-.31.56-.34.78-.64.22-.3.11-.38.33-.68.22-.3.47-.13.69-.42.22-.3.07-.53.29-.83.22-.3-.32-.58-.07-.87.25-.29.79.1,1.04-.18.24-.28.16-.47.4-.75.24-.28.5.13.74-.15.25-.27-.05-.57.21-.83.26-.26.3-.22.57-.49.26-.26.51-.04.77-.3.27-.25-.04-.66.24-.9.29-.24.83-.15.85-.16l-1.32-1.5s-.25.48-.54.73c-.28.26-.45.09-.72.36-.28.28-.08.47-.36.75-.27.27-.51.03-.78.31-.28.28.22.59-.05.86-.25.29-.48.25-.73.54-.25.29-.34.16-.59.45-.25.29-.1.48-.35.77-.25.29-.6.03-.82.34-.23.31.12.57-.11.88-.23.31-.35.22-.58.53-.23.31-.38.2-.62.51-.23.31.23.58.02.9-.2.32-.57.14-.77.47-.21.33-.04.43-.25.76-.2.33-.55.23-.7.49l1.74.99c.13-.24-.1-.34.09-.66.2-.32.33-.23.53-.55Z"/>
    <path d="M7.17,32.75c.05-.37-.28-.35-.2-.72.09-.36.44-.51.53-.87.09-.36-.04-.39.04-.76.09-.36.38-.29.5-.64.12-.35-.1-.51.01-.86.12-.35-.5-.44-.38-.8.12-.36.76-.18.88-.53.14-.34,0-.49.15-.83.15-.34.52-.04.67-.38.14-.34-.25-.52-.11-.86.15-.34.18-.32.36-.65.17-.33.47-.2.64-.53.17-.33-.23-.6-.06-.93.17-.33.71-.43.72-.45l-1.74-.99s-.05.55-.23.89c-.18.34-.4.23-.58.57-.18.35.07.47-.11.81-.18.34-.46.2-.62.56-.15.36.42.49.27.84-.15.35-.38.39-.53.74-.15.36-.28.26-.42.62-.12.37.09.49-.03.86-.12.37-.53.24-.65.61-.12.37.3.49.18.86-.13.37-.25.33-.35.71-.09.38-.27.33-.37.71-.09.38.41.46.32.83-.09.37-.51.32-.58.71-.06.38.13.42.07.8-.06.38-.41.42-.46.71l1.98.3c.04-.27-.22-.28-.16-.65.06-.37.21-.34.27-.7Z"/>
    <path d="M7.02,44.61c-.05-.37-.38-.24-.43-.61-.05-.37.23-.63.17-.99-.05-.37-.18-.35-.21-.73-.02-.37.28-.41.26-.77-.02-.37-.29-.44-.31-.81-.02-.37-.63-.23-.65-.61,0-.38.67-.44.67-.81,0-.37-.18-.46-.18-.83,0-.37.46-.23.47-.6,0-.37-.42-.39-.39-.77.03-.37.08-.37.12-.74.03-.37.36-.36.39-.73.04-.37-.46-.47-.4-.84.06-.37.54-.65.54-.67l-1.98-.3s.13.53.07.91c-.05.38-.28.36-.32.74-.03.39.24.42.21.8-.03.39-.36.36-.39.75-.03.39.54.3.53.68,0,.38-.2.5-.21.89,0,.38-.16.34-.16.73,0,.39.24.43.24.81.02.38-.4.41-.38.8.03.39.46.35.49.74.03.38-.12.4-.09.78.03.39-.17.41-.11.79.05.39.55.29.61.67.05.38-.35.47-.29.86.05.38.24.35.3.73.08.38-.23.53-.17.82l1.96-.38c-.06-.27-.31-.19-.39-.55-.07-.37.1-.39.04-.76Z"/>
    <path d="M10.75,55.89c-.17-.33-.44-.1-.61-.43-.18-.33,0-.66-.14-1-.15-.34-.27-.28-.42-.62-.15-.34.13-.47-.02-.81-.15-.34-.44-.32-.56-.67-.13-.35-.66-.02-.79-.38-.13-.36.48-.63.35-.98-.13-.35-.33-.37-.46-.72-.1-.36.38-.37.28-.72-.1-.35-.52-.24-.62-.6-.1-.36-.05-.37-.15-.73-.1-.36.2-.45.13-.82-.08-.36-.56-.3-.63-.67-.08-.37.27-.79.27-.81l-1.96.38s.31.45.39.83c.08.38-.16.43-.08.81.08.38.36.31.47.69.11.37-.22.45-.11.83.11.37.63.1.73.47.11.37-.06.55.07.91.13.36-.03.37.1.73.13.37.37.32.51.69.13.36-.26.52-.13.89.13.37.55.19.7.54.16.35.02.41.18.76.16.35-.02.43.14.79.16.35.59.11.77.45.18.34-.17.56.02.9.18.34.35.25.53.59.18.34-.07.59.07.85l1.74-.99c-.13-.24-.34-.08-.52-.41-.18-.33-.04-.4-.21-.73Z"/>
    <path d="M17.95,65.31c-.28-.24-.44.05-.71-.21-.26-.27-.2-.64-.46-.9-.26-.26-.36-.17-.62-.43-.26-.26-.05-.47-.29-.76-.24-.28-.49-.17-.73-.46-.24-.28-.63.2-.88-.09-.25-.29.24-.75,0-1.03-.22-.3-.42-.26-.64-.56-.22-.3.23-.47.01-.77-.22-.3-.58-.05-.8-.35-.22-.3-.17-.33-.37-.65-.2-.32.07-.51-.13-.82-.2-.31-.63-.1-.83-.42-.2-.32-.01-.83-.01-.85l-1.74.99s.44.33.64.65c.21.33,0,.46.2.79.21.33.44.18.65.51.2.33-.07.51.16.82.23.31.63-.11.86.2.23.31.14.53.37.84.23.31.08.37.31.68.25.3.47.18.72.47.25.29-.07.58.19.87.25.3.58,0,.83.29.25.3.15.39.42.66.27.27.14.41.41.68.28.28.61-.11.88.16.27.27.01.6.3.86.3.25.43.11.72.36.29.25.15.57.37.76l1.28-1.53c-.21-.18-.35.04-.64-.2-.28-.24-.18-.35-.46-.59Z"/>
    <path d="M28.02,71.53c-.34-.14-.39.2-.74.06-.35-.14-.42-.51-.77-.65-.34-.14-.4-.03-.73-.19-.33-.17-.21-.45-.53-.62-.33-.17-.53.02-.86-.14-.33-.17-.52.43-.86.24-.32-.2-.04-.8-.35-.99-.32-.19-.49-.08-.81-.27-.32-.19.04-.52-.27-.71-.32-.19-.55.15-.86-.06-.3-.22-.27-.26-.57-.48-.3-.22-.12-.49-.42-.71-.29-.22-.65.15-.93-.1-.29-.24-.27-.8-.29-.81l-1.28,1.53s.52.17.81.42c.3.24.16.43.47.66.32.23.48,0,.8.24.31.23.12.49.44.72.32.22.54-.31.86-.1.33.2.32.43.65.63.33.2.21.31.54.51.33.2.49.02.82.22.34.18.15.56.49.74.35.18.54-.22.88-.04.34.17.28.3.63.48.35.17.26.35.62.5.36.15.53-.33.88-.18.35.15.23.54.59.69.36.15.43-.03.78.12.36.12.34.47.62.56l.66-1.89c-.26-.09-.32.17-.67.05-.35-.13-.29-.28-.63-.42Z"/>
    <path d="M39.64,73.98c-.37-.01-.31.33-.68.31-.38,0-.57-.34-.94-.38-.37-.04-.38.09-.75.05-.37-.04-.34-.35-.71-.39-.37-.04-.49.22-.86.15-.37-.07-.35.56-.72.49-.37-.07-.31-.73-.67-.8-.36-.07-.49.1-.86.03-.36-.09-.13-.51-.49-.6-.36-.09-.47.33-.83.24-.36-.09-.35-.14-.71-.24-.36-.09-.29-.4-.64-.52-.35-.12-.54.33-.9.21-.36-.12-.54-.63-.56-.64l-.66,1.89s.55-.04.91.08c.37.12.29.36.66.48.37.13.45-.16.83-.06.37.1.28.41.66.51.38.1.4-.49.77-.4.37.09.44.33.82.4.38.07.3.21.68.28.38.07.47-.16.85-.09.38.07.32.49.7.56.38.07.44-.38.82-.34.38.04.37.19.75.23.38.04.37.23.75.27.39.04.39-.46.77-.44.38.01.4.42.78.44.39.01.39-.18.78-.16.38.01.47.36.77.37v-2c-.26-.01-.23.25-.6.24-.37-.01-.36-.17-.74-.18Z"/>
    <path d="M51.42,72.55c-.35.12-.18.41-.54.51-.36.09-.65-.15-1.01-.06-.36.09-.33.22-.69.31-.36.09-.43-.2-.8-.14-.36.06-.4.33-.77.4-.37.06-.15.65-.52.71-.37.06-.52-.58-.89-.52-.37.04-.43.23-.81.27-.37.04-.29-.44-.65-.4-.37.04-.33.47-.71.51-.37.04-.37-.02-.75,0-.37.01-.41-.31-.78-.3-.37.01-.41.5-.78.51-.38.01-.72-.41-.74-.41v2s.49-.21.88-.23c.39-.01.39.24.78.22.39-.01.38-.29.77-.3.39-.01.4.32.79.28.39-.04.22-.6.6-.64.38-.04.52.15.91.11.38-.04.36.12.74.08.38-.06.39-.31.77-.38.38-.07.46.35.85.28.38-.07.29-.5.67-.56.38-.06.41.07.78-.03.37-.1.42.09.8,0,.38-.1.21-.58.58-.67.37-.1.52.29.89.19.37-.12.31-.31.68-.43.37-.12.56.17.84.07l-.65-1.89c-.26.09-.14.33-.5.44-.35.12-.4-.03-.75.09Z"/>
    <path d="M61.94,67.12c-.3.22-.03.44-.33.67-.3.22-.66.1-.95.33-.29.23-.22.33-.54.53-.31.2-.49-.05-.8.14-.31.2-.25.46-.56.66-.32.19.1.67-.23.86-.34.18-.71-.38-1.03-.21-.33.17-.32.38-.65.55-.33.17-.42-.3-.74-.13-.32.17-.15.55-.49.7-.34.15-.36.1-.71.24-.34.15-.48-.15-.82,0-.34.14-.21.63-.56.74-.36.12-.82-.18-.85-.17l.65,1.89s.41-.36.78-.48c.36-.13.45.09.81-.06.36-.15.26-.41.61-.56.36-.15.48.16.84,0,.36-.16.01-.62.36-.79.34-.18.54-.06.88-.23.34-.18.37-.02.72-.2.35-.18.27-.41.61-.59.33-.19.55.16.89-.04.33-.21.09-.58.42-.78.33-.21.41-.08.73-.29.33-.21.44-.04.75-.28.31-.23-.01-.62.29-.85.31-.23.58.07.89-.16.31-.23.19-.39.5-.62.29-.25.58-.06.8-.25l-1.29-1.53c-.21.18-.01.36-.29.61-.29.24-.39.1-.68.33Z"/>
    <path d="M69.87,58.31c-.2.31.13.43-.07.75-.19.32-.58.32-.8.62-.22.3-.11.38-.33.68-.22.3-.47.13-.69.42-.22.3-.06.54-.3.82-.24.28.31.58.06.87-.24.29-.79-.1-1.03.18-.24.28-.16.47-.4.76-.26.27-.51-.14-.77.12-.26.26.05.57-.21.84-.26.27-.3.23-.56.49-.26.26-.49.05-.77.29-.28.24,0,.63-.27.88-.28.25-.82.15-.84.16l1.29,1.53s.24-.49.54-.74c.29-.26.46-.07.75-.33.3-.25.09-.47.37-.74.27-.28.5-.04.77-.31.27-.28-.22-.59.05-.87.26-.28.51-.22.76-.51.25-.29.33-.16.58-.45.25-.3.1-.49.34-.78.25-.29.59-.03.84-.33.25-.3-.11-.57.12-.88.23-.31.34-.22.57-.54.23-.31.38-.2.61-.52.22-.32-.2-.56,0-.89.2-.32.56-.13.77-.46.21-.33.04-.43.25-.76.2-.33.54-.23.7-.48l-1.73-1.01c-.15.23.1.34-.1.65-.2.32-.33.23-.52.55Z"/>
    <path d="M74.51,47.38c-.07.36.26.36.16.72-.1.36-.46.49-.56.85-.1.36.03.4-.07.75-.1.36-.39.28-.52.62-.13.35.09.51-.04.86-.13.35.49.45.36.81-.13.36-.77.16-.9.51-.15.34-.02.49-.17.83-.15.34-.52.03-.67.37-.15.34.24.53.09.87-.15.34-.2.32-.38.64-.17.33-.47.2-.65.52-.17.33.23.6.05.93-.17.33-.71.42-.73.44l1.73,1.01s.06-.54.25-.88c.18-.34.4-.22.58-.57.18-.34-.06-.47.12-.81.18-.34.48-.19.64-.55.16-.36-.41-.49-.25-.84.16-.35.39-.38.54-.73.16-.35.28-.25.44-.61.14-.36-.08-.49.06-.86.13-.36.53-.22.67-.59.13-.37-.28-.5-.15-.86.13-.36.26-.32.37-.69.11-.37.29-.32.39-.69.11-.37-.39-.47-.29-.84.1-.37.52-.3.61-.68.08-.38-.11-.42-.03-.8.08-.38.43-.4.49-.69l-1.96-.39c-.06.27.21.29.13.65-.08.37-.23.33-.3.69Z"/>
    <path d="M75.19,35.55c.04.37.37.25.41.62.04.37-.25.62-.21.98.04.37.17.36.18.73,0,.37-.3.39-.29.76,0,.37.27.45.28.82,0,.37.63.26.62.64-.02.38-.69.41-.71.78-.02.37.16.47.14.84-.02.37-.48.2-.49.57-.01.37.4.41.35.78-.05.37-.1.36-.15.73-.05.37-.37.34-.42.71-.05.36.44.5.35.86-.08.37-.57.62-.57.65l1.96.39s-.1-.53-.02-.91c.07-.38.3-.34.36-.73.05-.39-.22-.43-.17-.81.05-.38.38-.34.43-.73.05-.39-.53-.33-.5-.71.02-.38.23-.49.25-.88.02-.38.17-.33.19-.72.02-.39-.22-.44-.2-.83,0-.38.42-.39.42-.78,0-.39-.45-.38-.46-.76,0-.39.14-.39.13-.78-.01-.39.19-.4.14-.79-.04-.39-.54-.31-.58-.69-.04-.38.36-.46.32-.85-.04-.39-.23-.36-.27-.75-.07-.38.25-.52.19-.81l-1.97.33c.05.27.3.19.37.56.05.37-.11.39-.07.75Z"/>
    <path d="M71.77,24.18c.15.34.42.12.58.46.15.34-.04.67.11,1.01.15.34.27.29.43.63.15.34-.12.46,0,.81.12.35.4.34.52.69.12.35.66.04.79.39.13.36-.49.62-.37.97.13.35.32.38.42.74.1.36-.38.36-.29.72.1.35.52.25.62.61.1.36.04.37.14.73.1.36-.23.45-.16.81.07.36.55.32.62.69.07.37-.29.78-.29.8l1.97-.33s-.3-.46-.37-.84c-.07-.38.17-.43.1-.81-.08-.38-.33-.33-.43-.7-.1-.37.22-.45.12-.82-.1-.38-.63-.12-.73-.49-.1-.37.06-.54-.04-.91-.1-.37.06-.37-.07-.74-.13-.37-.37-.33-.5-.69-.13-.36.27-.51.14-.88-.13-.37-.54-.2-.66-.57-.12-.36-.01-.41-.16-.77-.16-.35.02-.43-.14-.78-.16-.36-.61-.11-.76-.46-.16-.35.2-.56.04-.91-.16-.35-.35-.26-.53-.6-.18-.34.07-.58-.07-.84l-1.76.95c.13.24.35.09.53.42.18.33.04.39.21.72Z"/>
    <path d="M64.86,14.52c.26.27.44-.03.69.25.25.28.18.65.43.92.25.27.35.18.61.46.25.28.03.48.27.75.23.29.48.2.71.49.23.29.64-.18.87.12.23.3-.27.74-.04,1.04.22.3.44.25.65.56.2.31-.25.47-.05.77.2.31.57.07.77.39.2.31.16.34.36.65.2.31-.06.49.13.81.18.32.62.13.8.46.18.33-.03.84-.02.86l1.76-.95s-.42-.34-.61-.68c-.18-.34.03-.46-.15-.81-.21-.33-.45-.19-.66-.51-.21-.32.07-.5-.14-.82-.21-.33-.63.09-.84-.23-.21-.32-.11-.54-.32-.86-.23-.31-.08-.36-.32-.67-.24-.31-.46-.2-.69-.5-.24-.3.09-.58-.15-.88-.24-.31-.57-.02-.81-.33-.26-.29-.15-.38-.41-.66-.26-.28-.12-.41-.39-.7-.27-.29-.61.09-.87-.19-.26-.28,0-.59-.26-.88-.28-.27-.42-.12-.7-.39-.29-.26-.13-.57-.35-.77l-1.35,1.48c.2.18.36-.03.63.22.28.25.17.36.44.61Z"/>
    <path d="M55.06,7.89c.33.16.4-.19.74-.02.34.16.4.54.73.69.33.16.4.04.73.2.34.16.2.43.51.62.31.19.52.01.84.2.32.19.53-.39.86-.2.32.2.01.79.33.98.31.19.5.07.8.3.3.22-.07.52.22.74.29.22.56-.13.86.09.3.22.26.27.56.49.3.23.12.48.4.71.27.25.62-.09.9.16.28.25.25.8.26.82l1.35-1.48s-.51-.18-.8-.44c-.29-.26-.13-.45-.42-.71-.31-.24-.49-.02-.8-.26-.31-.23-.1-.49-.42-.73-.31-.23-.56.3-.87.07-.31-.23-.29-.47-.6-.7-.31-.23-.2-.31-.53-.52-.33-.2-.5-.02-.83-.22-.33-.2-.12-.57-.45-.77-.34-.2-.54.18-.87-.02-.33-.2-.26-.32-.61-.49-.35-.17-.26-.34-.62-.5-.35-.17-.54.31-.89.14-.35-.17-.21-.55-.56-.72-.35-.16-.42,0-.78-.14-.36-.13-.33-.48-.61-.58l-.72,1.87c.26.09.32-.16.67-.04.35.12.28.27.62.43Z"/>
    <path d="M43.51,5.23c.37.02.31-.33.69-.31.37.03.57.31.93.38.37.05.38-.08.75-.03.37.05.34.36.7.41.36.05.49-.19.86-.14.37.05.36-.57.73-.51.38.05.29.73.65.82.36.09.49-.07.85.02.36.09.12.51.48.6.36.09.48-.33.84-.24.36.09.35.14.71.24.35.13.27.44.61.57.34.12.55-.31.9-.19.35.13.52.65.54.65l.72-1.87s-.55.02-.91-.11c-.36-.13-.28-.37-.65-.5-.37-.13-.45.13-.82,0-.37-.1-.28-.41-.65-.51-.38-.09-.42.49-.79.4-.37-.09-.44-.32-.82-.41-.37-.09-.3-.23-.67-.32-.38-.09-.47.12-.85.07-.38-.06-.32-.48-.7-.53-.39-.06-.44.38-.83.32-.38-.05-.36-.2-.75-.25-.38-.05-.36-.24-.75-.3-.39-.06-.4.47-.78.45-.38-.02-.39-.43-.78-.44-.39-.02-.4.18-.78.16-.38-.02-.47-.36-.76-.37l-.04,2c.28.01.25-.25.62-.24.37.02.36.17.73.19Z"/>
    <path d="M41.3,4.75c.09.15.23.27.38.36.14.09.3.16.48.17h0s.04-2,.04-2h0c-.19,0-.38.02-.53.1-.16.08-.29.22-.38.36-.09.14-.14.32-.14.5,0,.18.05.36.13.51Z"/>
  </g>
  <g>
    <path d="M19.36,41.34c-.13-.13-.29-.22-.44-.26-.14-.04-.29-.01-.42.05-.13.06-.23.17-.29.31-.07.14-.14.3-.14.48,0,.18.07.38.15.57l1.46-.66c-.08-.19-.19-.36-.32-.49Z"/>
    <path d="M24.26,52.92c-.16-.39-.38-.2-.54-.59-.16-.39-.03-.71-.19-1.1-.16-.39-.26-.35-.42-.73-.16-.39.06-.49-.1-.88-.16-.39-.39-.4-.55-.79-.16-.39-.56-.08-.72-.46-.16-.39.31-.65.14-1.04-.16-.39-.34-.42-.5-.81-.16-.39.24-.39.08-.78-.16-.39-.48-.26-.65-.64-.16-.39-.12-.4-.28-.79-.17-.39.06-.51-.11-.9-.17-.39-.54-.28-.71-.67-.17-.39-.01-.89-.02-.91l-1.46.66s.37.43.53.81c.17.38-.02.46.15.84.17.38.37.3.54.68.16.39-.09.48.08.87.16.39.53.09.7.47.16.39.07.57.23.96.16.38.03.39.19.77.16.39.36.35.52.74.16.39-.15.53.01.92.16.39.48.24.64.63.16.39.05.43.22.82.16.39.02.45.18.83.16.39.52.19.68.58.16.39-.12.55.04.94.16.39.3.33.47.71.16.39-.05.59.07.88l1.47-.62c-.12-.29-.3-.17-.46-.56-.16-.39-.05-.43-.21-.82Z"/>
    <path d="M24.94,55.36c.07-.14.09-.32.09-.5,0-.18-.02-.37-.1-.55h0s-1.47.62-1.47.62h0c.08.19.18.36.31.49.13.13.29.21.43.26.14.04.3.04.43-.02.13-.06.24-.16.32-.29Z"/>
  </g>
  <g>
    <path d="M24.03,58.28c.04-.13.04-.28,0-.42-.03-.13-.11-.25-.21-.35-.1-.1-.22-.17-.35-.2-.13-.04-.28-.07-.41-.04-.13.03-.25.12-.36.22l1.11,1.15c.1-.1.18-.22.22-.35Z"/>
    <path d="M17.75,64.39c.21-.2-.02-.35.19-.56.21-.2.51-.15.72-.35.21-.2.14-.28.35-.49.21-.2.39-.03.6-.24.21-.2.12-.4.33-.61.21-.2-.2-.49.01-.7.21-.2.61.15.82-.05.21-.2.16-.36.37-.56.21-.2.39.14.6-.07.21-.2-.03-.46.18-.66.21-.2.24-.17.45-.38.21-.2.4-.03.61-.23.21-.2-.03-.51.18-.71.21-.2.64-.15.66-.16l-1.11-1.15s-.16.38-.37.59c-.21.2-.35.06-.56.26-.21.2-.06.36-.27.57-.21.2-.39,0-.6.21-.21.2.17.47-.04.68-.21.2-.39.15-.6.36-.21.2-.27.09-.48.29-.21.2-.1.37-.31.57-.21.2-.45-.04-.66.17-.21.2.04.45-.17.65-.21.2-.29.12-.5.32-.21.2-.32.09-.52.3-.21.2.09.48-.12.68-.21.2-.46-.01-.67.19-.21.2-.1.31-.31.52-.21.2-.45.06-.61.21l1.11,1.15c.16-.15,0-.28.2-.49.21-.2.29-.11.51-.32Z"/>
    <path d="M16.27,65.39c.13.04.27.02.41-.01.13-.03.26-.08.36-.18,0,0,0,0,0,0l-1.11-1.15s0,0,0,0c-.1.1-.18.22-.22.35-.04.13-.03.28,0,.41.03.13.11.26.21.36.1.1.23.18.36.22Z"/>
  </g>
  <g>
    <path d="M18.01,38.5c.02.14.08.28.16.39.08.11.2.19.34.24.13.06.27.06.41.05.14-.02.29-.05.4-.13.11-.08.19-.22.24-.35l-1.48-.61c-.06.14-.08.28-.06.42Z"/>
    <path d="M21.43,30.18c-.12.28.16.32.05.6-.11.28-.41.35-.53.63-.11.28-.01.32-.13.6-.11.28-.35.19-.46.47-.11.28.05.42-.06.7-.11.28.37.37.26.65-.11.28-.63.12-.74.39-.11.28,0,.4-.12.68-.11.28-.42.04-.53.32-.11.28.21.41.09.69-.11.28-.16.26-.27.54-.11.28-.36.19-.48.47-.11.28.23.46.11.74-.11.28-.54.41-.55.42l1.49.6s0-.42.11-.7c.11-.28.3-.2.41-.48.11-.28-.09-.36.02-.64.11-.28.36-.17.47-.45.11-.28-.35-.36-.23-.64.11-.28.3-.3.41-.58.11-.28.21-.2.33-.47.11-.28-.05-.38.06-.66.11-.28.43-.16.55-.43.11-.28-.21-.4-.1-.68.11-.28.22-.23.34-.51.11-.28.25-.22.37-.5.11-.28-.27-.4-.16-.68.11-.28.43-.18.54-.45.11-.27-.03-.33.09-.61.12-.28.39-.24.48-.45l-1.47-.62c-.09.21.12.26,0,.54-.12.28-.23.23-.35.51Z"/>
    <path d="M26.82,22.13c-.28.12-.11.34-.39.46-.28.11-.53-.05-.81.07-.29.12-.21.19-.55.35-.34.19-.51,0-.84.31-.28.32-.18.53-.28.86,0,.02-.01.05-.02.07-.1.28.39.36.29.64-.1.28-.62.13-.72.41-.11.28,0,.4-.1.67-.11.28-.41.04-.53.32-.11.27.21.41.1.69-.11.28-.15.26-.27.53-.11.28-.36.19-.48.46-.12.28.22.46.11.74-.12.28-.54.4-.55.42l1.47.62s0-.42.11-.7c.12-.28.3-.2.42-.47.12-.28-.09-.36.03-.64.12-.28.36-.17.47-.45.11-.28-.35-.37-.23-.65.11-.28.3-.31.41-.59.11-.28.21-.2.32-.49.11-.28-.06-.38.04-.67.1-.26.4-.2.51-.41v-.02c.06-.12-.24-.31-.1-.48.16-.14.22-.04.39-.13.2-.09.31.03.57-.08.28-.11.09-.48.37-.59.28-.11.43.18.7.06.28-.11.22-.26.49-.37.28-.11.45.11.66.02l-.61-1.48c-.21.09-.1.27-.38.38-.28.12-.32,0-.6.12Z"/>
    <path d="M35.74,18.43c-.28.12-.11.34-.39.46-.28.11-.54-.05-.81.07-.28.12-.24.21-.51.33-.28.11-.38-.11-.66,0-.28.11-.26.33-.54.45-.28.12,0,.53-.28.65-.28.11-.52-.36-.8-.25-.28.11-.29.28-.56.39-.28.11-.32-.27-.6-.15-.28.11-.15.44-.42.55-.28.11-.29.07-.57.19-.28.11-.39-.12-.67,0-.28.11-.17.49-.44.6-.28.11-.67-.1-.68-.09l.61,1.48s.29-.3.57-.42c.28-.11.35.07.63-.04.28-.11.19-.32.47-.43.28-.11.37.13.65.02.28-.11.02-.5.29-.62.28-.11.42,0,.7-.12.28-.11.29.01.57-.1.28-.11.23-.31.51-.42.28-.11.41.2.69.08.28-.11.13-.43.41-.55.28-.11.32,0,.6-.12.28-.11.34.02.61-.09.28-.11.09-.48.37-.59.28-.11.43.17.71.06.28-.11.22-.26.49-.37.28-.11.45.11.66.02l-.62-1.47c-.21.09-.1.27-.38.38-.28.12-.32,0-.6.12Z"/>
    <path d="M45.25,17.95c-.28-.11-.32.16-.6.05-.28-.11-.35-.41-.62-.53-.28-.11-.32-.01-.6-.13-.28-.11-.19-.34-.47-.46-.28-.11-.42.05-.7-.06-.28-.11-.38.37-.65.26-.27-.09-.21-.68-.76-.65-.5.1-.46.3-.74.4-.28.11-.32-.27-.6-.15-.28.11-.15.44-.42.55-.28.11-.29.07-.57.19-.28.11-.39-.12-.67,0-.28.11-.16.49-.44.6-.28.11-.67-.09-.69-.09l.62,1.47s.29-.3.57-.42c.28-.11.35.07.63-.05.28-.11.19-.32.47-.43.28-.11.38.13.65.02.28-.11.01-.5.29-.62.28-.11.43,0,.7-.12.28-.11.28.01.39-.01.06,0,.09-.21.34-.11.28.11.15.43.43.55.28.11.4-.21.68-.1.28.11.23.22.51.34.28.11.22.25.5.37.28.11.4-.27.68-.16.28.11.18.43.46.54.28.11.34-.03.61.08.28.11.24.39.45.48l.6-1.48c-.21-.09-.26.12-.54,0-.28-.11-.23-.23-.51-.34Z"/>
    <path d="M54.18,21.63c-.28-.11-.32.16-.6.05-.28-.11-.35-.41-.62-.53-.28-.11-.32-.01-.6-.13-.28-.11-.19-.34-.47-.46-.28-.11-.42.05-.7-.06-.28-.11-.38.37-.65.26-.28-.11-.12-.63-.39-.74-.28-.11-.4,0-.68-.12-.28-.11-.04-.42-.32-.53-.28-.11-.41.21-.69.09-.28-.11-.26-.15-.54-.27-.28-.11-.19-.36-.47-.48-.28-.11-.46.23-.74.11-.28-.11-.41-.54-.42-.55l-.6,1.48s.42,0,.7.11c.28.11.2.3.48.41.28.11.36-.09.64.02.28.11.17.36.45.47.28.11.37-.35.64-.23.28.11.3.3.58.41.28.11.2.21.47.33.28.11.38-.05.66.06.28.11.15.43.43.55.28.11.4-.21.68-.1.28.11.23.22.51.34.28.11.22.25.5.37.28.11.4-.27.68-.16.28.11.18.43.46.54.28.11.33-.03.61.08.28.11.24.39.45.48l.6-1.48c-.21-.09-.26.12-.54,0-.28-.11-.23-.23-.51-.34Z"/>
    <path d="M60.31,28.99c-.11-.28-.34-.11-.46-.39-.11-.28.05-.53-.07-.81-.11-.28-.21-.24-.33-.51-.11-.28.11-.38,0-.65-.11-.28-.33-.26-.45-.54-.11-.28-.53,0-.65-.28-.11-.28.36-.52.25-.79-.11-.28-.28-.29-.39-.56-.13-.3.31-.26.11-.68-.24-.41-.52-.2-.81-.46-.31-.23-.34-.28-.65-.41-.28-.11-.19-.36-.47-.48-.28-.11-.46.23-.74.11-.28-.11-.41-.54-.42-.55l-.6,1.48s.42,0,.7.11c.28.11.2.3.48.41.28.11.36-.09.64.02.22.1.06.31.17.39.09.09.42-.25.54-.06.1.18-.01.36.1.63.11.28-.01.29.1.57.11.28.31.24.42.51.11.28-.2.41-.08.69.11.28.44.14.55.41.11.28,0,.32.12.6.11.28-.03.33.09.61.11.28.48.1.59.37.11.28-.18.43-.06.7.11.28.26.22.37.49.11.28-.11.45-.02.66l1.48-.61c-.09-.21-.27-.1-.38-.38-.12-.28,0-.32-.11-.6Z"/>
    <path d="M63.98,37.93c-.11-.28-.34-.12-.45-.4-.11-.28.06-.53-.06-.82-.11-.28-.22-.25-.33-.52-.11-.28.11-.38,0-.66-.11-.28-.33-.26-.45-.54-.11-.28-.53,0-.65-.28-.11-.28.36-.52.25-.8-.11-.28-.28-.29-.39-.56-.11-.28.27-.32.15-.6-.11-.28-.44-.15-.55-.42-.11-.28-.07-.29-.19-.57-.11-.28.12-.39,0-.67-.11-.28-.49-.17-.6-.45-.11-.28.1-.67.09-.68l-1.48.61s.3.3.42.57c.11.28-.07.35.04.63.11.28.32.19.43.47.11.28-.13.37-.02.65.11.28.5.02.62.29.11.28,0,.42.12.7.11.28-.01.29.1.57.11.28.31.23.42.51.11.28-.2.41-.08.69.11.28.43.14.55.41.11.28,0,.32.12.6.11.28-.03.33.08.6.11.27.48.1.59.37.11.28-.19.42-.07.71.11.28.26.22.37.51.12.28-.1.46,0,.68l1.46-.66c-.09-.19-.27-.08-.38-.35-.11-.27,0-.31-.11-.59Z"/>
    <path d="M61.7,47.48c.1-.24-.18-.29-.08-.52.1-.23.38-.28.48-.51.1-.23,0-.28.09-.51.1-.23.33-.15.42-.38.1-.23-.07-.37.02-.6.1-.23-.39-.34-.29-.58.1-.23.61-.07.7-.3.1-.23-.02-.35.08-.58.1-.23.41-.01.5-.25.1-.23-.23-.37-.13-.6.1-.23.14-.22.23-.45.1-.23.34-.15.44-.39.1-.23-.25-.41-.15-.64.1-.23.51-.33.51-.34l-1.49-.58s.03.36-.07.59c-.1.23-.28.16-.38.39-.1.23.11.32.01.55-.1.23-.34.13-.44.36-.1.23.36.33.27.56-.1.23-.27.25-.37.48-.1.23-.2.16-.29.39-.1.23.07.33-.02.57-.1.23-.41.11-.51.34-.1.23.23.36.14.59-.1.23-.2.19-.3.42-.1.23-.24.18-.33.41-.1.23.29.36.19.6-.1.23-.41.13-.5.37-.1.23.05.29-.05.53-.1.23-.37.19-.44.36l1.48.61c.07-.18-.13-.23-.04-.47.1-.24.21-.19.31-.42Z"/>
    <path d="M58.6,55.02c.1-.23-.18-.29-.08-.52.1-.23.38-.28.48-.51.1-.23,0-.28.09-.51.1-.23.33-.15.42-.38.1-.23-.07-.37.02-.6.1-.23-.39-.35-.29-.58.1-.23.6-.06.7-.3.1-.23-.02-.35.08-.58.1-.23.4,0,.5-.24.1-.23-.22-.37-.13-.61.1-.23.14-.22.23-.45.1-.23.34-.15.44-.38.1-.23-.25-.42-.15-.65.1-.23.5-.32.51-.34l-1.48-.61s.03.37-.07.6c-.1.23-.28.16-.38.39-.1.23.11.32.01.55-.1.23-.34.13-.44.36-.1.23.36.34.26.57-.1.23-.27.25-.37.48-.1.23-.2.16-.29.39-.1.23.07.33-.02.57-.1.23-.41.11-.51.34-.1.23.23.36.13.6-.1.23-.2.19-.3.42-.1.23-.24.18-.33.41-.1.23.29.37.19.6-.1.23-.41.13-.5.37-.1.23.05.29-.05.53-.1.23-.37.19-.44.36l1.48.61c.07-.17-.13-.23-.04-.47.1-.23.21-.18.31-.42Z"/>
    <path d="M48.16,60.81c.31-.13.14-.35.45-.48.31-.13.59.02.9-.11.31-.13.27-.23.58-.36.31-.13.41.09.72-.04.31-.13.3-.35.61-.48.31-.13.02-.54.33-.67.31-.13.56.34.87.22.31-.13.33-.3.64-.43.31-.13.34.26.65.13.31-.13.18-.45.49-.58.31-.13.33-.09.64-.22.31-.13.43.1.74-.02.31-.13.2-.5.51-.63.31-.13.73.07.75.06l-.62-1.48s-.34.32-.65.45c-.31.13-.39-.06-.69.07-.31.13-.23.33-.54.46-.31.13-.41-.12-.72.01-.31.13-.04.51-.35.64-.31.13-.47.02-.78.15-.31.13-.32,0-.63.13-.31.13-.27.32-.58.45-.31.13-.45-.18-.76-.05-.31.13-.17.45-.48.58-.31.13-.35.02-.66.15-.31.13-.37-.01-.68.12-.31.13-.12.49-.43.62-.31.13-.47-.16-.78-.03-.31.13-.25.27-.56.4-.31.13-.49-.09-.72,0l.63,1.47c.23-.1.12-.28.43-.41.31-.13.36-.01.67-.14Z"/>
    <path d="M37.52,62.2c.3.14.35-.14.65,0,.3.14.38.45.68.59.31.14.33.04.66.19.35.15.28.39.69.5.43.09.56-.11.96-.12.41-.03.23-.5.56-.57.33-.08.55.4.89.28.33-.13.35-.3.66-.43.31-.13.34.26.65.13.31-.13.18-.45.49-.58.31-.13.33-.09.64-.22.31-.13.43.1.74-.02.31-.13.2-.5.51-.63.31-.13.73.07.75.06l-.63-1.47s-.34.32-.64.45c-.31.13-.39-.06-.7.07-.31.13-.22.33-.53.46-.31.13-.41-.12-.72.01-.31.13-.04.51-.34.64-.31.13-.47.02-.78.15-.3.13-.32,0-.6.12-.28.1-.25.3-.54.37-.28.06-.33-.28-.56-.27-.22,0-.26.34-.54.28-.27-.08-.23-.19-.49-.3-.28-.13-.23-.28-.54-.42-.31-.14-.45.24-.76.1-.31-.14-.2-.45-.51-.59-.31-.14-.37,0-.68-.13-.31-.13-.28-.41-.52-.51l-.62,1.47c.23.1.28-.11.59.02.31.13.25.24.56.38Z"/>
    <path d="M27.5,58.29c.32.11.34-.17.66-.06.32.11.42.41.74.51.32.11.35,0,.66.12.31.11.24.35.55.46.31.12.46-.05.76.07.31.12.39-.37.71-.25.31.12.16.64.47.76.31.12.44.02.75.14.31.12.06.42.38.55.31.12.45-.2.76-.07.31.12.3.16.61.29.31.12.23.37.54.5.31.13.5-.21.81-.09.31.13.46.56.48.57l.62-1.47s-.47-.02-.78-.14c-.31-.13-.23-.31-.55-.44-.31-.13-.4.08-.71-.05-.31-.12-.21-.37-.52-.49-.31-.12-.39.34-.7.22-.31-.12-.35-.31-.66-.43-.31-.12-.23-.22-.54-.35-.31-.12-.42.04-.73-.08-.31-.12-.19-.45-.51-.57-.32-.12-.44.21-.75.09-.32-.12-.28-.23-.6-.34-.32-.11-.27-.26-.59-.37-.32-.11-.42.29-.74.18-.32-.11-.24-.43-.56-.53-.32-.11-.37.04-.68-.07-.31-.11-.3-.39-.54-.48l-.54,1.51c.24.08.28-.12.6-.01.32.11.28.23.6.34Z"/>
    <path d="M25.7,57.32c.03.14.13.27.23.38.1.11.22.21.38.26h0s.54-1.51.54-1.51h0c-.15-.05-.31-.08-.46-.06-.15.02-.29.09-.41.17-.11.08-.2.2-.25.34-.05.13-.06.28-.03.42Z"/>
    <g>
      <path d="M64.49,40.63v-.02s.01-.02.01-.02l.02-.04v-.02s.02-.02.02-.02v-.02s0-.01,0-.01h0s0-.02,0-.02h0s-.02-.04-.02-.04l-.07-.05-.07-.06-.03-.03h-.01s0-.03,0-.03h0s0-.02,0-.02h0s0-.02,0-.02v-.02s.02-.02.02-.02v-.02s.02-.01.02-.01h0s0-.02,0-.02h0s0-.02,0-.02h0s-.02-.04-.02-.04l-.02-.02-.05-.04-.05-.04-.05-.05-.03-.03h0s0-.03,0-.03v-.03s0-.03,0-.03v-.03s-.01-.03-.01-.03h0s0-.03,0-.03h0s0-.03,0-.03l.02-.03.03-.03.07-.06.07-.06.03-.03h0s0-.02,0-.03l.02-.05v-.06s.03-.07.04-.11h0s0-.02,0-.02h0s0-.01,0-.01h-.02s-.02-.02-.02-.02h-.02s-.02-.02-.02-.02h0s0-.01,0-.01h0s0-.02,0-.02h0s0-.02,0-.02l.02-.03.06-.07.03-.04.03-.03v-.02s.01-.01.01-.01h0s0-.02,0-.02h0s-.73.32-.73.32l-.36.17-.36.17h0s0,.02,0,.02h.01s.01.02.01.02h0s0,.01,0,.01h0s0,0,0,0h0s0,0,0,0h0s.05.02.05.02h.02s0,.02,0,.02h0s0,.02,0,.02h0s0,.02,0,.03v.02s-.01.03-.01.05v.06s-.02.06-.02.06c0,0,0,.01,0,.01h0s0,0,0,0h0s0,0,0,0v.02s0,0,0,0h0s0,0,0,0l.03.02.03.03h.01s0,.03,0,.03h0s0,.02,0,.02h0s0,.02,0,.02v.04s-.01.02-.01.02h0s0,.02,0,.02h0s0,.01,0,.01h0s0,0,0,0h0s-.02.01-.02.01h-.02s-.05.02-.05.02h0s0,0,0,0h0s0,0,0,0h0s0,.01,0,.01h0s0,.02,0,.02l-.02.04.37.15.37.15.75.29h0s0-.02,0-.02v-.02s-.02-.05-.02-.05l-.02-.05v-.03s0-.02,0-.02Z"/>
      <path class="st0" d="M62.29,39.96c0-.06,0-.06,0-.09h0s0,0,0,0h0s0,0,0,0h.01s.02-.02.02-.02l.05-.02.09-.04.18-.08.36-.17.73-.33,1.46-.66.14.29.14.28.34.64-.26.68-.28.67-2.98-1.15Z"/>
    </g>
    <g>
      <path d="M57.13,57.05h.02s.02-.02.02-.02h.04s.02-.02.02-.02h.02s.02-.02.02-.02h0s0-.02,0-.02h0s0-.03,0-.03v-.03s0-.08,0-.08v-.09s-.01-.04-.01-.04v-.02s0-.01,0-.01h0s0-.02,0-.02h0s0-.01,0-.01h.02s.02-.01.02-.01h.02s.01,0,.01,0h0s0-.01,0-.01h0s0-.02,0-.02h0s0-.05,0-.05v-.03s0-.07,0-.07v-.07s-.01-.07-.01-.07v-.04s.01,0,.01,0h.01s.02-.02.02-.02l.02-.02.02-.02.02-.02h0s.01-.01.01-.01h.01s.01,0,.01,0h.04s.04,0,.04,0l.09.02.09.02h.04s.02,0,.02,0h.01s.05-.02.05-.02l.05-.03s.06-.04.09-.05h0s0-.01,0-.01h0s0-.02,0-.02v-.02s-.01-.02-.01-.02v-.02s-.02-.02-.02-.02h0s0-.02,0-.02h0s0-.02,0-.02h0s.01-.01.01-.01h.03s.06,0,.09,0h.05s.04,0,.04,0h.02s.01,0,.01,0h.01s0-.01,0-.01h0s-.74-.31-.74-.31l-.37-.15-.37-.15h0s0,.02,0,.02c0,0,0,.01,0,.01h0s0,.02,0,.02h0s0,0,0,0h0s0,0,0,0h0s0,.02,0,.02l.02.04v.02s.01.01.01.01h0s0,.02,0,.02h0s-.01.02-.01.02h-.02s-.05.03-.09.05l-.05.02h-.01s0,0,0,0h0s0,0,0,0v.03s0,.05,0,.05v.02s0,.01,0,.01h0s0,.02,0,.02h0s0,.01,0,.01l-.03.02s-.01,0-.01,0h0s0,.01,0,.01h0s0,0,0,0h0s0,0,0,0h0s-.02-.01-.02-.01h-.02s-.04-.04-.04-.04h0s0,0,0,0h0s0,0,0,0h0s0,0,0,0h0s-.02,0-.02,0h-.04s.15.38.15.38l.15.37.31.74h0s0,0,0,0v-.02s.03-.04.03-.04l.02-.05v-.02s.03-.02.03-.02Z"/>
      <polygon class="st0" points="56.11 55 59.07 56.21 58.57 57.44 57.34 57.95 56.11 55"/>
    </g>
  </g>
  <g>
    <path d="M6.96,39.31c-.11.07-.21.18-.28.3-.06.12-.09.26-.09.4,0,.14.04.28.11.39.07.12.14.25.26.32.11.07.25.09.39.09v-1.6c-.14,0-.27.03-.38.1Z"/>
    <path d="M15.36,39.31c-.28,0-.22.27-.5.27-.28,0-.44-.25-.72-.25-.28,0-.28.11-.56.11-.28,0-.29-.25-.57-.25-.28,0-.35.21-.63.21-.28,0-.2.49-.48.49-.28,0-.32-.53-.6-.54-.28,0-.35.15-.63.15-.28,0-.18-.37-.46-.37-.28,0-.29.35-.57.35-.28,0-.28-.04-.56-.04-.28,0-.29-.26-.58-.26-.28,0-.32.38-.6.38-.28,0-.54-.34-.56-.34v1.6s.36-.16.64-.16c.28,0,.28.2.56.2.28,0,.28-.22.56-.22.28,0,.27.27.55.27.28,0,.2-.46.48-.46.28,0,.37.16.65.16.28,0,.25.12.52.12.28,0,.31-.19.59-.19.28,0,.28.34.56.34.28,0,.28-.35.55-.35.28,0,.28.12.56.12.28,0,.28.15.56.15.28,0,.26-.41.54-.41.28,0,.3.33.58.33.28,0,.28-.15.56-.15.28,0,.35.27.56.27l.02-1.6c-.21,0-.18.21-.47.21-.28,0-.28-.12-.56-.12Z"/>
    <path d="M17.03,39.63c-.06-.12-.17-.21-.28-.28-.11-.07-.23-.12-.37-.12h0l-.02,1.6h0c.13,0,.27-.03.38-.1.11-.07.21-.18.27-.3.06-.12.1-.26.1-.4,0-.14-.03-.29-.09-.4Z"/>
  </g>
  <g>
    <path d="M76.3,40.71c.12-.07.23-.18.3-.3.07-.12.09-.26.09-.4s-.04-.28-.11-.39c-.07-.12-.15-.25-.27-.32-.12-.07-.27-.09-.41-.09v1.6c.14,0,.29-.03.41-.1Z"/>
    <path d="M67.41,40.71c.3,0,.23-.27.53-.27.3,0,.47.25.77.25.3,0,.3-.11.6-.11.3,0,.3.25.6.25.3,0,.37-.21.67-.21.3,0,.21-.49.51-.49.3,0,.34.53.63.54.3,0,.37-.15.67-.15.3,0,.19.37.49.37.3,0,.3-.35.6-.35.3,0,.3.04.59.04.3,0,.31.26.61.26.3,0,.34-.39.64-.38.3,0,.57.34.59.34v-1.6s-.38.16-.68.16c-.3,0-.29-.2-.59-.2-.3,0-.3.22-.59.22-.3,0-.29-.27-.59-.27-.3,0-.21.46-.5.46-.3,0-.39-.16-.68-.16-.29,0-.26-.12-.55-.12-.3,0-.33.19-.63.19-.3,0-.3-.34-.6-.34-.3,0-.29.35-.59.35-.3,0-.29-.12-.59-.12-.3,0-.29-.15-.59-.15-.3,0-.27.41-.57.41-.3,0-.32-.33-.62-.33-.3,0-.3.15-.59.15-.3,0-.37-.27-.59-.27l-.02,1.6c.22,0,.2-.21.49-.21.3,0,.29.12.59.12Z"/>
    <path d="M65.64,40.4c.07.12.18.21.3.28.11.07.24.12.39.12h0l.02-1.6h0c-.14,0-.29.03-.4.1-.12.07-.22.18-.29.3-.07.12-.11.26-.11.4,0,.14.03.29.1.4Z"/>
  </g>
  <g>
    <path d="M58.75,56.59c-.14-.04-.29-.04-.43-.01-.13.03-.25.11-.36.21-.1.1-.16.23-.2.36-.03.14-.06.29-.02.43.04.13.13.26.24.37l1.14-1.12c-.11-.11-.24-.19-.37-.23Z"/>
    <path d="M65.37,63.2c-.22-.22-.37.02-.59-.2-.22-.22-.17-.53-.4-.75-.22-.22-.3-.15-.52-.37-.22-.22-.05-.4-.27-.62-.22-.22-.42-.13-.64-.35-.22-.22-.5.19-.72-.03-.22-.22.13-.63-.09-.85-.22-.22-.38-.17-.6-.39-.22-.22.12-.4-.1-.62-.22-.22-.47.02-.69-.2-.22-.22-.19-.25-.41-.47-.22-.22-.05-.42-.27-.64-.22-.22-.53.02-.75-.2-.22-.22-.18-.67-.19-.68l-1.14,1.12s.4.17.62.39c.22.22.08.36.3.58.22.22.38.07.6.29.22.22.03.4.25.63.22.22.48-.17.7.05.22.22.18.4.4.62.22.22.11.28.33.5.22.22.38.11.6.33.22.22-.02.47.2.69.22.22.46-.03.68.19.22.22.14.3.36.52.22.22.11.33.33.55.22.22.49-.09.71.13.22.22.01.47.23.69.22.22.33.11.55.33.22.22.08.47.25.63l1.13-1.13c-.17-.17-.29,0-.51-.22-.22-.22-.13-.31-.35-.53Z"/>
    <path d="M66.47,64.75c.03-.14,0-.28-.03-.42-.04-.13-.1-.27-.2-.37h0s-1.13,1.13-1.13,1.13h0c.11.11.23.19.37.23.14.04.29.03.43,0,.13-.03.26-.1.36-.21.1-.1.18-.23.21-.36Z"/>
  </g>
  <g>
    <path d="M41.78,4.76c-.07-.14-.18-.26-.3-.34-.12-.08-.26-.11-.4-.11s-.28.05-.39.13c-.12.08-.25.17-.32.31-.07.13-.09.3-.09.47h1.6c0-.16-.03-.33-.1-.46Z"/>
    <path d="M41.79,14.82c0-.34-.27-.26-.27-.6s.25-.53.25-.87-.11-.34-.11-.67.25-.34.25-.68-.21-.42-.21-.75-.49-.23-.49-.57.53-.38.53-.72-.15-.42-.15-.75.37-.22.37-.55-.35-.34-.35-.68.04-.34.04-.67.26-.35.26-.69-.39-.38-.39-.72.34-.65.34-.67h-1.6s.17.43.17.77-.2.33-.2.67.22.34.22.67-.27.33-.27.66.46.23.46.57-.16.44-.16.78-.12.3-.12.63.19.37.19.71-.34.34-.34.68.35.33.35.66-.12.34-.12.67-.15.34-.15.67.41.3.41.64-.33.37-.33.7.16.34.16.67-.27.42-.27.67h1.6c0-.25-.21-.22-.21-.56s.12-.33.12-.67Z"/>
    <path d="M41.49,16.83c.12-.08.21-.21.28-.34.07-.13.12-.28.12-.44h0s-1.6,0-1.6,0h0c0,.16.03.33.1.46.07.13.18.25.3.33.12.08.26.12.4.12s.29-.04.4-.12Z"/>
  </g>
  <g>
    <path d="M41.78,63.84c-.07-.1-.18-.19-.3-.25-.12-.06-.26-.08-.4-.08s-.28.04-.39.09c-.12.06-.25.13-.32.23-.07.1-.09.22-.09.35h1.6c0-.12-.03-.24-.1-.34Z"/>
    <path d="M41.79,71.28c0-.25-.27-.19-.27-.44s.25-.39.25-.64-.11-.25-.11-.5.25-.26.25-.5-.21-.31-.21-.56-.49-.17-.49-.42.53-.28.53-.53-.15-.31-.15-.56.37-.16.37-.41-.35-.25-.35-.5.04-.25.04-.5.26-.26.26-.51-.39-.28-.39-.53.34-.48.34-.5h-1.6s.17.32.17.57-.2.25-.2.5.22.25.22.5-.27.24-.27.49.46.17.46.42-.16.33-.16.57-.12.22-.12.47.19.28.19.53-.34.25-.34.5.35.24.35.49-.12.25-.12.5-.15.25-.15.5.41.22.41.47-.33.27-.33.52.16.25.16.5-.27.31-.27.5h1.6c0-.19-.21-.16-.21-.41s.12-.25.12-.5Z"/>
    <path d="M41.49,72.77c.12-.06.21-.16.28-.25.07-.1.12-.21.12-.33h0s-1.6,0-1.6,0h0c0,.12.03.24.1.34.07.1.18.18.3.24.12.06.26.09.4.09s.29-.03.4-.09Z"/>
  </g>
  <g>
    <path d="M66.44,15.64c.05-.15.06-.3.03-.45-.03-.14-.11-.26-.21-.36-.1-.1-.23-.16-.37-.19-.14-.03-.3-.06-.44,0-.14.05-.28.15-.39.26l1.13,1.13c.12-.12.21-.25.25-.39Z"/>
    <path d="M59.38,22.72c.24-.24,0-.38.23-.61.24-.24.55-.2.79-.44.24-.24.16-.31.4-.55.24-.24.42-.07.65-.31.24-.24.15-.44.38-.68.24-.24-.18-.51.05-.75.24-.24.65.11.88-.13.24-.24.19-.4.42-.63.24-.24.41.11.65-.13.24-.24,0-.49.23-.72.24-.24.27-.21.5-.44.24-.24.43-.06.67-.3.24-.24,0-.54.23-.78.24-.24.7-.21.71-.23l-1.13-1.13s-.19.42-.42.66c-.24.24-.38.09-.61.33-.24.24-.08.39-.32.63-.24.24-.42.04-.66.28-.24.24.16.49-.07.73-.24.24-.42.2-.66.43-.23.23-.29.12-.53.36-.24.24-.13.4-.36.64-.24.24-.48,0-.72.24-.24.24.02.48-.22.71-.24.24-.32.15-.55.39-.24.24-.34.13-.58.36-.24.24.07.5-.16.74-.24.24-.49.03-.73.26-.24.24-.13.35-.36.58-.24.24-.48.1-.66.28l1.13,1.13c.18-.18,0-.3.24-.54.24-.24.32-.15.56-.38Z"/>
    <path d="M57.75,23.92c.14.03.29,0,.44-.05.14-.04.28-.11.39-.22h0s-1.13-1.13-1.13-1.13c0,0,0,0,0,0-.11.11-.21.25-.25.39-.05.14-.05.3-.02.44.03.14.1.27.2.37.1.1.23.17.37.2Z"/>
  </g>
  <g>
    <path d="M17.48,15.42c-.14-.04-.29-.04-.43,0-.13.03-.25.12-.35.22-.1.1-.16.23-.19.36-.03.14-.06.29-.02.42.04.13.13.26.24.36l1.13-1.14c-.11-.11-.23-.19-.37-.22Z"/>
    <path d="M24,21.85c-.22-.22-.36.02-.58-.19-.22-.22-.17-.52-.39-.73-.22-.22-.29-.14-.51-.35-.22-.22-.05-.4-.27-.61-.22-.22-.42-.12-.63-.33-.22-.22-.49.2-.71-.02-.22-.21.13-.63-.09-.84-.22-.21-.37-.16-.59-.38-.22-.22.12-.4-.1-.62-.22-.22-.47.03-.68-.19-.22-.22-.19-.25-.4-.46-.22-.22-.05-.41-.26-.63-.22-.22-.52.03-.74-.19-.22-.22-.18-.66-.19-.67l-1.13,1.14s.4.16.61.37c.22.21.08.36.29.57.22.22.37.06.59.27.22.21.03.4.24.61.22.21.47-.18.69.04.22.21.17.4.39.61.22.21.11.28.32.49.22.21.38.1.6.32.22.21-.02.46.2.68.22.21.46-.04.68.18.22.21.14.3.35.51.22.21.11.32.33.54.22.21.48-.1.7.12.22.21,0,.47.23.68.22.21.33.1.54.32.22.21.08.46.24.62l1.13-1.14c-.16-.16-.29,0-.51-.21-.22-.22-.13-.3-.35-.52Z"/>
    <path d="M25.08,23.36c.03-.14,0-.28-.03-.42-.04-.13-.1-.26-.2-.37,0,0,0,0,0,0l-1.13,1.14s0,0,0,0c.1.1.23.19.36.22.14.04.29.03.42,0,.13-.03.26-.11.36-.21.1-.1.17-.23.21-.36Z"/>
  </g>
</svg>