<svg xmlns="http://www.w3.org/2000/svg" id="_レイヤー_2" data-name="レイヤー_2" viewBox="0 0 80 80"><defs><style>.st0{fill:#ceb372}.st1{fill:none;stroke:#000;stroke-linecap:round;stroke-linejoin:round}</style></defs><path d="M40.39 73.17S73.94 34.24 75.2 32.71c1.13-1.37 2.45-2.49 1.33-4.22L65.19 10.97c-.33-.51-.68-1.04-1.24-1.34-.58-.31-1.28-.32-1.95-.32-14.62-.02-29.25-.03-43.87-.05-.62 0-1.28 0-1.8.32-.46.27-.73.72-.99 1.16-3.45 5.85-6.9 11.7-10.35 17.56-.32.54-.65 1.13-.57 1.74.07.53.43.98.79 1.41 11.27 13.57 35.18 41.73 35.18 41.73Z" style="fill:#fff"/><path d="m31.96 9.38-6.42 20.47-20.88-.08 11.57-19.68c.43-.75 1.28-1.21 2.2-1.2zM56.18 30.51l20.96-.39-35.67 42.79z" class="st0"/><path d="M40.74 73.88s33.2-39.64 34.47-41.17c1.13-1.37 2.45-2.49 1.33-4.22L65.2 10.97c-.33-.51-.68-1.04-1.24-1.34-.58-.31-1.28-.32-1.95-.32-14.62-.02-29.25-.03-43.87-.05-.62 0-1.28 0-1.8.32-.46.27-.73.72-.99 1.16C11.9 16.59 8.45 22.44 5 28.3c-.32.54-.65 1.13-.57 1.74.07.53.43.98.79 1.41 11.27 13.57 35.53 42.44 35.53 42.44Z" style="fill:none;stroke:#000;stroke-linecap:round;stroke-linejoin:round;stroke-width:1.5px"/><path d="m31.82 9.46-6.13 20.4s13.95 41.78 14.64 43.12M49.7 9.46l6.19 20.41-14.91 43.28" class="st1"/><path d="M76.8 29.95c-23.36 0-71.91.11-72.32.08" class="st1"/></svg>