<?xml version="1.0" encoding="UTF-8"?>
<svg id="_レイヤー_2" data-name="レイヤー_2" xmlns="http://www.w3.org/2000/svg" version="1.1" viewBox="0 0 80 90">
  <!-- Generator: Adobe Illustrator 30.0.0, SVG Export Plug-In . SVG Version: 2.1.1 Build 123)  -->
  <defs>
    <style>
      .st0, .st1 {
        fill: #ceb372;
      }

      .st2, .st3 {
        fill: none;
        stroke: #000;
        stroke-linecap: round;
        stroke-linejoin: round;
      }

      .st4 {
        fill: #fff;
      }

      .st3 {
        stroke-width: 1.5px;
      }

      .st1 {
        stroke: #ceb372;
        stroke-miterlimit: 10;
        stroke-width: .25px;
      }
    </style>
  </defs>
  <path class="st4" d="M39.61,84.67c-.87.02-1.43-.62-2.05-1.12-3.3-2.64-6.59-5.28-9.87-7.94-3.06-2.47-6.14-4.92-9.17-7.42-1-.83-3.68-3.05-3.71-3.67-.03-.55-.19-1.13-.19-1.71,0-12.08,0-24.16,0-36.25,0-1.22.32-2.21,1.39-3.01,2.99-2.24,5.83-4.65,8.74-6.99,2.79-2.24,5.57-4.48,8.35-6.72,1.75-1.4,3.51-2.8,5.24-4.22.83-.68,1.74-.67,2.5-.05,2.16,1.79,4.36,3.53,6.54,5.29,3.29,2.66,17.25,14.5,17.25,14.5,0,0,.01,7.35.01,10.53,0,9.11-.01,28.56-.01,28.56,0,0-8.62,7.53-12.26,10.48-2.9,2.35-10.55,8.49-11.46,9.23-.36.29-.76.47-1.24.49"/>
  <polygon class="st0" points="22.75 57.55 39.15 70.14 39.71 84.94 13.62 64.79 22.75 57.55"/>
  <polygon class="st1" points="55.17 57.78 64.39 64.75 64.59 26.06 39.94 5.81 39.56 19.74 55.17 32.2 55.17 57.78"/>
  <path class="st2" d="M39.63,82.7c0-4.41,0-7.48,0-11.89,0-.4-.11-.66-.43-.92-3.82-3.07-7.63-6.16-11.47-9.22-1.13-.9-2.27-1.79-3.36-2.74-.36-.31-.66-.27-.98,0-2.36,2-4.82,3.87-7.2,5.85"/>
  <path class="st3" d="M39.61,84.67c-.87.02-1.43-.62-2.05-1.12-3.3-2.64-6.59-5.28-9.87-7.94-3.06-2.47-6.14-4.92-9.17-7.42-1-.83-2.04-1.62-3.05-2.45-.39-.32-.64-.61-.67-1.22-.03-.55-.19-1.13-.19-1.71,0-12.08,0-24.16,0-36.25,0-1.22.32-2.21,1.39-3.01,2.99-2.24,5.83-4.65,8.74-6.99,2.79-2.24,5.57-4.48,8.35-6.72,1.75-1.4,3.51-2.8,5.24-4.22.83-.68,1.74-.67,2.5-.05,2.16,1.79,4.36,3.53,6.54,5.29,3.29,2.66,17.25,14.5,17.25,14.5,0,0,.01,7.35.01,10.53,0,9.11-.01,28.56-.01,28.56,0,0-8.62,7.53-12.26,10.48-2.9,2.35-10.55,8.49-11.46,9.23-.36.29-.76.47-1.24.49"/>
  <path class="st2" d="M62.15,26.76c-2.17,1.73-4.35,3.45-6.47,5.24-.25.21-.48.21-.73,0-2.56-2.17-5.21-4.23-7.82-6.34-2.16-1.74-4.29-3.53-6.52-5.2-.34-.25-.56-.75-1.04-.71-.43.04-.71.46-1.03.72-3.09,2.48-6.17,4.98-9.27,7.45-1.74,1.39-3.46,2.8-5.19,4.2-.12.1-.19.21-.18.37,0,.14,0,.28,0,.43,0,8.24,0,16.48,0,24.71"/>
  <path class="st2" d="M55.31,32.24c0,8.46,0,16.92,0,25.38"/>
  <path class="st2" d="M64.27,64.52c-.96-.31-1.62-1.06-2.37-1.66-1.98-1.6-3.99-3.15-5.93-4.81-.53-.45-.8-.46-1.33,0-1.29,1.11-2.64,2.16-3.97,3.23-2.21,1.78-4.41,3.56-6.63,5.33-1.36,1.08-2.71,2.16-4.03,3.28-.12.1-.26.14-.37.24"/>
  <path class="st2" d="M39.63,5.21c0,4.82,0,9.64,0,14.46"/>
  <path class="st2" d="M23.89,32.18c-1.2-.82-2.28-1.79-3.41-2.69-1.22-.97-2.43-1.95-3.64-2.93"/>
</svg>