<?xml version="1.0" encoding="UTF-8"?>
<svg id="_レイヤー_1" xmlns="http://www.w3.org/2000/svg" version="1.1" viewBox="0 0 80 80">
  <!-- Generator: Adobe Illustrator 30.0.0, SVG Export Plug-In . SVG Version: 2.1.1 Build 123)  -->
  <defs>
    <style>
      .st0 {
        fill: none;
      }

      .st1 {
        fill: #ceb372;
      }

      .st2 {
        fill: #fff;
      }
    </style>
  </defs>
  <path class="st2" d="M22.84,9.45c-1.66.45-2.51,3.51-3.27,4.86-1.44,2.6-2.9,5.18-4.36,7.77-3.12,5.49-6.23,10.99-9.51,16.39-1.32,2.18,1.91,5.82,2.95,7.62,4.5,7.77,8.93,15.59,13.5,23.33.36.62.93.96,1.66.96,11.03,0,22.06,0,33.09,0,.8,0,1.39-.42,1.76-1.08,5.4-9.56,11.01-19,16.45-28.54.39-.68.42-1.38.04-2.03-5.49-9.47-10.85-19.02-16.43-28.44-.56-.94-1.26-1.18-2.33-1.18-10.83,0-21.65,0-32.48,0-.37,0-.71.05-1.02.27"/>
  <g>
    <path class="st1" d="M57.1,14.58l-5.55,9.57c-.13.23-.13.5,0,.73l8.21,14.5c.13.24.39.38.66.37l11.23-.26c.56-.01.9-.62.62-1.1l-13.89-23.81c-.28-.49-.99-.48-1.27,0Z"/>
    <g>
      <path class="st1" d="M54.85,19.35c.09-.16-.07-.21.02-.37.09-.16.28-.18.37-.33.09-.16.03-.19.13-.35.09-.16.23-.09.32-.25.09-.16,0-.26.09-.42.09-.16-.2-.26-.11-.42.09-.16.39-.01.49-.17.09-.16.03-.24.13-.4.09-.16.26.01.35-.15.09-.16-.09-.27,0-.43.09-.16.12-.15.21-.3.09-.16.24-.09.33-.25.09-.15-.09-.32-.02-.44.07-.13.27-.03.27-.03l-.62-.87s-.13.36-.25.58c-.11.18-.2.1-.3.27-.09.16.03.23-.07.39-.09.16-.23.07-.33.23-.09.16.18.25.09.41-.09.16-.21.16-.3.32-.09.16-.15.1-.24.26-.09.16,0,.24-.09.4-.09.16-.28.06-.37.21-.09.16.1.26,0,.42-.09.16-.15.12-.25.28-.09.16-.17.11-.27.27-.09.16.14.27.04.43-.09.16-.28.07-.37.23-.09.16,0,.21-.1.37-.09.16-.26.11-.33.23l.87.5c.07-.12-.05-.17.04-.33.09-.16.16-.12.25-.28Z"/>
      <path class="st1" d="M51.94,24.38c.02-.06-.03-.1-.06-.15-.02-.03-.03-.06.01-.12.09-.16.28-.18.37-.33.09-.16.03-.19.13-.35.09-.16.23-.09.32-.25.09-.16,0-.26.09-.42.09-.16-.2-.26-.11-.42.09-.16.39-.01.49-.17.09-.16.03-.24.13-.4.09-.16.26.01.35-.15.09-.16-.09-.27,0-.43.09-.16.12-.15.21-.3.09-.16.24-.09.33-.25.09-.16-.1-.3-.01-.46.09-.16.36-.2.37-.21l-.87-.5s-.03.26-.12.42c-.09.16-.2.1-.29.25-.09.16.03.23-.07.39-.09.16-.23.07-.33.23-.09.16.18.25.09.41-.09.16-.21.16-.3.32-.09.16-.15.1-.24.26-.09.16,0,.24-.09.4-.09.16-.28.06-.37.21-.09.16.1.26,0,.42-.09.16-.15.12-.25.28-.09.16-.17.11-.27.27-.09.16.14.27.04.43-.07.11-.16.09-.28.17-.05.03-.1.07-.13.15-.09.25.01.26,0,.5.02.23-.11.34-.03.53l.93-.38c-.03-.06-.16-.01-.19-.13,0-.12.07-.11.1-.21Z"/>
      <path class="st1" d="M54.54,29.26c-.09-.16-.22-.04-.31-.2-.09-.16,0-.33-.1-.49-.09-.16-.15-.13-.24-.29-.09-.16.04-.24-.05-.4-.09-.16-.23-.13-.32-.29-.09-.16-.33.04-.42-.12-.09-.16.19-.35.1-.51-.09-.16-.19-.15-.28-.31-.09-.16.14-.22.05-.38-.09-.16-.28-.06-.37-.22-.09-.16-.07-.17-.16-.33-.09-.16.05-.25-.04-.41-.09-.16-.31-.06-.4-.22-.04-.08-.04-.19-.03-.27.03-.06.06-.1.06-.1l-.93.38s.07.08.15.16c.06.06.13.13.18.21.09.16-.02.22.07.38.09.16.21.09.3.25.09.16-.06.24.03.4.09.16.31-.03.4.13.09.16.03.26.12.42.09.16.01.18.1.34.09.16.21.12.3.28.09.16-.09.27,0,.43.09.16.28.05.37.21.09.16.03.2.12.36.09.16,0,.21.1.37.09.16.3.02.39.18.09.16-.08.28.01.44.09.16.17.11.27.27.09.16-.03.28.03.4l.87-.49c-.07-.12-.17-.04-.26-.2-.09-.16-.02-.2-.11-.36Z"/>
      <path class="st1" d="M57.46,34.42c-.09-.16-.22-.04-.31-.2-.09-.16,0-.33-.1-.49-.09-.16-.15-.13-.24-.29-.09-.16.04-.24-.05-.4-.09-.16-.23-.13-.32-.29-.09-.16-.33.04-.42-.12-.09-.16.19-.35.1-.51-.09-.16-.19-.15-.28-.31-.09-.16.14-.22.05-.38-.09-.16-.28-.06-.37-.22-.09-.16-.07-.17-.16-.33-.09-.16.05-.25-.04-.41-.09-.16-.31-.06-.4-.22-.09-.16.01-.41,0-.42l-.87.49s.21.16.3.32c.09.16-.02.22.07.38.09.16.21.09.3.25.09.16-.06.24.03.4.09.16.31-.03.4.13.09.16.03.26.12.42.09.16.01.18.1.34.09.16.21.12.3.28.09.16-.09.27,0,.43.09.16.28.05.37.21.09.16.03.2.12.36.09.16,0,.21.1.37.09.16.3.02.39.18.09.16-.08.28.01.44.09.16.17.11.27.27.09.16-.03.28.03.4l.87-.49c-.07-.12-.17-.04-.26-.2-.09-.16-.02-.2-.11-.36Z"/>
      <path class="st1" d="M60.3,39.27c-.09-.05-.17.12-.27.02-.09-.12.04-.24-.07-.41-.09-.16-.15-.13-.24-.29-.09-.16.04-.24-.05-.4-.09-.16-.23-.13-.32-.29-.09-.16-.33.04-.42-.12-.09-.16.19-.35.1-.51-.09-.16-.19-.15-.28-.31-.09-.16.14-.22.05-.38-.09-.16-.28-.06-.37-.22-.09-.16-.07-.17-.16-.33-.09-.16.05-.25-.04-.41-.09-.16-.31-.06-.4-.22-.09-.16.01-.41,0-.42l-.87.49s.21.16.3.32c.09.16-.02.22.07.38.09.16.21.09.3.25.09.16-.06.24.03.4.09.16.31-.03.4.13.09.16.03.26.12.42.09.16.01.18.1.34.09.16.21.12.3.28.09.16-.09.27,0,.43.09.16.28.05.37.21.09.16.03.2.12.36.09.16,0,.21.1.37.09.15.3.03.42.21.13.17.02.35.25.49.24.11.27.02.51.04.25,0,.29.16.43.16l-.02-1c-.12,0-.16.14-.26.14-.12,0-.1-.08-.19-.11Z"/>
      <path class="st1" d="M66.01,39.18c-.18,0-.14.17-.32.18-.18,0-.3-.15-.48-.14-.18,0-.18.07-.37.08-.18,0-.19-.15-.38-.14-.18,0-.23.14-.41.14-.18,0-.12.31-.3.31-.18,0-.22-.33-.4-.32-.18,0-.23.1-.41.1-.18,0-.12-.23-.31-.22-.18,0-.18.22-.37.23-.18,0-.18-.02-.37-.02-.18,0-.2-.16-.38-.15-.18,0-.2.25-.39.25-.18,0-.36-.21-.37-.21l.02,1s.24-.11.42-.11c.18,0,.19.12.37.12.18,0,.18-.14.37-.15.18,0,.18.16.37.16.18,0,.12-.29.3-.29.18,0,.24.09.43.09.18,0,.16.07.35.07.18,0,.2-.13.39-.13.18,0,.19.21.38.2.18,0,.17-.22.36-.23.18,0,.19.07.37.06.18,0,.19.09.37.09.18,0,.16-.26.34-.26.18,0,.21.2.39.19.18,0,.18-.1.36-.11.18,0,.23.16.37.16l-.02-1c-.14,0-.12.13-.3.14-.18,0-.18-.07-.37-.07Z"/>
      <path class="st1" d="M71.6,39.01c-.09.04.04.2-.1.21-.15,0-.23-.15-.36-.15-.18,0-.18.07-.37.08-.18,0-.19-.15-.38-.14-.18,0-.23.14-.41.14-.18,0-.12.31-.3.31-.18,0-.22-.33-.4-.32-.18,0-.23.1-.41.1-.18,0-.12-.23-.31-.22-.18,0-.18.22-.37.23-.18,0-.18-.02-.37-.02-.18,0-.2-.16-.38-.15-.18,0-.2.25-.39.25-.18,0-.36-.21-.37-.21l.02,1s.24-.11.42-.11c.18,0,.19.12.37.12.18,0,.18-.14.37-.15.18,0,.18.16.37.16.18,0,.12-.29.3-.29.18,0,.24.09.43.09.18,0,.16.07.35.07.18,0,.2-.13.39-.13.18,0,.19.21.38.2.18,0,.17-.22.36-.23.18,0,.19.07.37.06.18,0,.19.09.37.09.24,0,.2-.26.41-.27.21-.02.34.18.57.08.21-.12.15-.19.3-.36.14-.18.31-.17.37-.36l-1.06-.37c-.02.06.14.13.08.23-.08.09-.15.03-.24.08Z"/>
      <path class="st1" d="M69.5,34.54c.09.16.22.04.31.2.09.16.01.33.11.49.09.16.15.13.24.28.09.16-.04.24.06.4.09.16.23.13.32.29.09.16.33-.04.42.11.09.16-.18.35-.09.51.09.16.2.15.29.31.09.16-.14.22-.05.38.09.16.28.05.38.21.09.16.07.17.16.33.1.17-.06.23-.01.3.04.07.32.05.36.18.04.14-.24.18-.24.17l1.06.37s-.03-.35-.1-.58c-.07-.23.05-.24-.08-.49-.14-.25-.27-.19-.36-.34-.09-.16.05-.24-.04-.4-.09-.16-.31.03-.41-.12-.09-.16-.04-.26-.13-.42-.09-.16-.02-.18-.11-.34-.09-.16-.21-.12-.3-.27-.09-.16.09-.27,0-.43-.09-.16-.28-.04-.37-.2-.09-.16-.03-.2-.12-.35-.09-.16-.01-.21-.1-.36-.09-.16-.3-.02-.4-.17-.09-.16.07-.28-.02-.44-.09-.16-.18-.11-.27-.27-.09-.16.03-.28-.04-.4l-.86.5c.07.12.17.04.27.2.09.16.03.2.12.36Z"/>
      <path class="st1" d="M66.51,29.42c.09.16.22.04.31.2.09.16.01.33.11.49.09.16.15.13.24.28.09.16-.04.24.06.4.09.16.23.13.32.29.09.16.33-.04.42.11.09.16-.18.35-.09.51.09.16.2.15.29.31.09.16-.14.22-.05.38.09.16.28.05.38.21.09.16.07.17.16.33.09.16-.04.25.05.41.09.16.31.06.41.22.09.16,0,.42,0,.42l.86-.5s-.21-.15-.3-.31c-.09-.16.02-.22-.08-.38-.09-.16-.21-.09-.31-.25-.09-.16.05-.24-.04-.4-.09-.16-.31.03-.41-.12-.09-.16-.04-.26-.13-.42-.09-.16-.02-.18-.11-.34-.09-.16-.21-.12-.3-.27-.09-.16.09-.27,0-.43-.09-.16-.28-.04-.37-.2-.09-.16-.03-.2-.12-.35-.09-.16-.01-.21-.1-.36-.09-.16-.3-.02-.4-.17-.09-.16.07-.28-.02-.44-.09-.16-.18-.11-.27-.27-.09-.16.03-.28-.04-.4l-.86.5c.07.12.17.04.27.2.09.16.03.2.12.36Z"/>
      <path class="st1" d="M63.52,24.3c.09.16.22.04.31.2.09.16.01.33.11.49.09.16.15.13.24.28.09.16-.04.24.06.4.09.16.23.13.32.29.09.16.33-.04.42.11.09.16-.18.35-.09.51.09.16.2.15.29.31.09.16-.14.22-.05.38.09.16.28.05.38.21.09.16.07.17.16.33.09.16-.04.25.05.41.09.16.31.06.41.22.09.16,0,.42,0,.42l.86-.5s-.21-.15-.3-.31c-.09-.16.02-.22-.08-.38-.09-.16-.21-.09-.31-.25-.09-.16.05-.24-.04-.4-.09-.16-.31.03-.41-.12-.09-.16-.04-.26-.13-.42-.09-.16-.02-.18-.11-.34-.09-.16-.21-.12-.3-.27-.09-.16.09-.27,0-.43-.09-.16-.28-.04-.37-.2-.09-.16-.03-.2-.12-.35-.09-.16-.01-.21-.1-.36-.09-.16-.3-.02-.4-.17-.09-.16.07-.28-.02-.44-.09-.16-.18-.11-.27-.27-.09-.16.03-.28-.04-.4l-.86.5c.07.12.17.04.27.2.09.16.03.2.12.36Z"/>
      <path class="st1" d="M60.54,19.18c.09.16.22.04.31.2.09.16.01.33.11.49.09.16.15.13.24.28.09.16-.04.24.06.4.09.16.23.13.32.29.09.16.33-.04.42.11.09.16-.18.35-.09.51.09.16.2.15.29.31.09.16-.14.22-.05.38.09.16.28.05.38.21.09.16.07.17.16.33.09.16-.04.25.05.41.09.16.31.06.41.22.09.16,0,.42,0,.42l.86-.5s-.21-.15-.3-.31c-.09-.16.02-.22-.08-.38-.09-.16-.21-.09-.31-.25-.09-.16.05-.24-.04-.4-.09-.16-.31.03-.41-.12-.09-.16-.04-.26-.13-.42-.09-.16-.02-.18-.11-.34-.09-.16-.21-.12-.3-.27-.09-.16.09-.27,0-.43-.09-.16-.28-.04-.37-.2-.09-.16-.03-.2-.12-.35-.09-.16-.01-.21-.1-.36-.09-.16-.3-.02-.4-.17-.09-.16.07-.28-.02-.44-.09-.16-.18-.11-.27-.27-.09-.16.03-.28-.04-.4l-.86.5c.07.12.17.04.27.2.09.16.03.2.12.36Z"/>
      <path class="st1" d="M57.68,14.78c.1,0,.09-.22.22-.19.13.05.12.27.18.35.05.07.08.05.13.1,0,0,.02.02.03.04.05.09-.06.2.03.35.09.16.23.13.32.29.09.16.33-.04.42.11.09.16-.18.35-.09.51.09.16.2.15.29.31.09.16-.14.22-.05.38.09.16.28.05.38.21.09.16.07.17.16.33.09.16-.04.25.05.41.09.16.31.06.41.22.09.16,0,.42,0,.42l.86-.5s-.21-.15-.3-.31c-.09-.16.02-.22-.08-.38-.09-.16-.21-.09-.31-.25-.09-.16.05-.24-.04-.4-.09-.16-.31.03-.41-.12-.09-.16-.04-.26-.13-.42-.09-.16-.02-.18-.11-.34-.09-.16-.21-.12-.3-.27-.09-.16.09-.27,0-.43-.09-.16-.28-.04-.37-.2-.09-.16-.02-.18-.15-.4-.02-.04-.04-.07-.05-.1-.07-.15-.04-.24-.18-.39-.19-.17-.28.07-.46-.03-.19-.08-.2-.29-.45-.29-.24.03-.23.12-.44.21-.19.12-.32,0-.45.15l.62.87c.04-.05-.05-.18.04-.26.1-.06.12.03.22.01Z"/>
    </g>
  </g>
  <g>
    <polygon class="st1" points="6.18 41.57 22.29 70.02 57.89 70.57 50.67 58.75 28.92 58.58 19.59 42.25 6.18 41.57"/>
    <g>
      <path class="st1" d="M27.77,69.66c-.17,0-.14.17-.31.17-.17,0-.27-.16-.44-.16-.17,0-.17.06-.35.06-.17,0-.17-.16-.35-.16-.17,0-.22.13-.39.12-.17,0-.12.3-.3.3-.17,0-.19-.34-.36-.34-.17,0-.21.09-.39.09-.17,0-.11-.23-.28-.24-.17,0-.18.22-.35.21-.17,0-.17-.03-.34-.03-.17,0-.18-.17-.35-.17-.17,0-.2.24-.37.24-.17,0-.33-.22-.34-.22l-.02,1s.22-.1.39-.1c.17,0,.17.13.34.13.17,0,.17-.14.35-.13.17,0,.17.17.34.17.17,0,.12-.29.3-.28.17,0,.22.1.39.11.17,0,.15.08.32.08.17,0,.19-.12.36-.12.17,0,.17.22.34.22.17,0,.17-.22.34-.21.17,0,.17.08.34.08.17,0,.17.1.34.1.17,0,.16-.25.33-.25.17,0,.19.21.36.21.17,0,.17-.09.34-.09.17,0,.21.17.34.17l.02-1c-.13,0-.11.13-.29.13-.17,0-.17-.08-.34-.08Z"/>
      <path class="st1" d="M33.31,69.75c-.17,0-.14.17-.31.17-.17,0-.27-.16-.44-.16-.17,0-.17.06-.35.06-.17,0-.17-.16-.35-.16-.17,0-.22.13-.39.12-.17,0-.12.3-.3.3-.17,0-.19-.34-.36-.34-.17,0-.21.09-.39.09-.17,0-.11-.23-.28-.24-.17,0-.18.22-.35.21-.17,0-.17-.03-.34-.03-.17,0-.18-.17-.35-.17-.17,0-.2.24-.37.24-.17,0-.33-.22-.34-.22l-.02,1s.22-.1.39-.1c.17,0,.17.13.34.13.17,0,.17-.14.35-.13.17,0,.17.17.34.17.17,0,.12-.29.3-.28.17,0,.22.1.39.11.17,0,.15.08.32.08.17,0,.19-.12.36-.12.17,0,.17.22.34.22.17,0,.17-.22.34-.21.17,0,.17.08.34.08.17,0,.17.1.34.1.17,0,.16-.25.33-.25.17,0,.19.21.36.21.17,0,.17-.09.34-.09.17,0,.21.17.34.17l.02-1c-.13,0-.11.13-.29.13-.17,0-.17-.08-.34-.08Z"/>
      <path class="st1" d="M38.84,69.83c-.17,0-.14.17-.31.17-.17,0-.27-.16-.44-.16-.17,0-.17.06-.35.06-.17,0-.17-.16-.35-.16-.17,0-.22.13-.39.12-.17,0-.12.3-.3.3-.17,0-.19-.34-.36-.34-.17,0-.21.09-.39.09-.17,0-.11-.23-.28-.24-.17,0-.18.22-.35.21-.17,0-.17-.03-.34-.03-.17,0-.18-.17-.35-.17-.17,0-.2.24-.37.24-.17,0-.33-.22-.34-.22l-.02,1s.22-.1.39-.1c.17,0,.17.13.34.13.17,0,.17-.14.35-.13.17,0,.17.17.34.17.17,0,.12-.29.3-.28.17,0,.22.1.39.11.17,0,.15.08.32.08.17,0,.19-.12.36-.12.17,0,.17.22.34.22.17,0,.17-.22.34-.21.17,0,.17.08.34.08.17,0,.17.1.34.1.17,0,.16-.25.33-.25.17,0,.19.21.36.21.17,0,.17-.09.34-.09.17,0,.21.17.34.17l.02-1c-.13,0-.11.13-.29.13-.17,0-.17-.08-.34-.08Z"/>
      <path class="st1" d="M44.38,69.92c-.17,0-.14.17-.31.17-.17,0-.27-.16-.44-.16-.17,0-.17.06-.35.06-.17,0-.17-.16-.35-.16-.17,0-.22.13-.39.12-.17,0-.12.3-.3.3-.17,0-.19-.34-.36-.34-.17,0-.21.09-.39.09-.17,0-.11-.23-.28-.24-.17,0-.18.22-.35.21-.17,0-.17-.03-.34-.03-.17,0-.18-.17-.35-.17-.17,0-.2.24-.37.24-.17,0-.33-.22-.34-.22l-.02,1s.22-.1.39-.1c.17,0,.17.13.34.13.17,0,.17-.14.35-.13.17,0,.17.17.34.17.17,0,.12-.29.3-.28.17,0,.22.1.39.11.17,0,.15.08.32.08.17,0,.19-.12.36-.12.17,0,.17.22.34.22.17,0,.17-.22.34-.21.17,0,.17.08.34.08.17,0,.17.1.34.1.17,0,.16-.25.33-.25.17,0,.19.21.36.21.17,0,.17-.09.34-.09.17,0,.21.17.34.17l.02-1c-.13,0-.11.13-.29.13-.17,0-.17-.08-.34-.08Z"/>
      <path class="st1" d="M49.92,70c-.17,0-.14.17-.31.17-.17,0-.27-.16-.44-.16-.17,0-.17.06-.35.06-.17,0-.17-.16-.35-.16-.17,0-.22.13-.39.12-.17,0-.12.3-.3.3-.17,0-.19-.34-.36-.34-.17,0-.21.09-.39.09-.17,0-.11-.23-.28-.24-.17,0-.18.22-.35.21-.17,0-.17-.03-.34-.03-.17,0-.18-.17-.35-.17-.17,0-.2.24-.37.24-.17,0-.33-.22-.34-.22l-.02,1s.22-.1.39-.1c.17,0,.17.13.34.13.17,0,.17-.14.35-.13.17,0,.17.17.34.17.17,0,.12-.29.3-.28.17,0,.22.1.39.11.17,0,.15.08.32.08.17,0,.19-.12.36-.12.17,0,.17.22.34.22.17,0,.17-.22.34-.21.17,0,.17.08.34.08.17,0,.17.1.34.1.17,0,.16-.25.33-.25.17,0,.19.21.36.21.17,0,.17-.09.34-.09.17,0,.21.17.34.17l.02-1c-.13,0-.11.13-.29.13-.17,0-.17-.08-.34-.08Z"/>
      <path class="st1" d="M55.45,70.09c-.17,0-.14.17-.31.17-.17,0-.27-.16-.44-.16-.17,0-.17.06-.35.06-.17,0-.17-.16-.35-.16-.17,0-.22.13-.39.12-.17,0-.12.3-.3.3-.17,0-.19-.34-.36-.34-.17,0-.21.09-.39.09-.17,0-.11-.23-.28-.24-.17,0-.18.22-.35.21-.17,0-.17-.03-.34-.03-.17,0-.18-.17-.35-.17-.17,0-.2.24-.37.24-.17,0-.33-.22-.34-.22l-.02,1s.22-.1.39-.1c.17,0,.17.13.34.13.17,0,.17-.14.35-.13.17,0,.17.17.34.17.17,0,.12-.29.3-.28.17,0,.22.1.39.11.17,0,.15.08.32.08.17,0,.19-.12.36-.12.17,0,.17.22.34.22.17,0,.17-.22.34-.21.17,0,.17.08.34.08.17,0,.17.1.34.1.17,0,.16-.25.33-.25.17,0,.19.21.36.21.17,0,.17-.09.34-.09.17,0,.21.17.34.17l.02-1c-.13,0-.11.13-.29.13-.17,0-.17-.08-.34-.08Z"/>
      <path class="st1" d="M53.91,64.91c.09.15.22.03.31.18.09.15.02.32.11.47.09.15.15.12.24.27.09.15-.04.24.06.39.09.15.23.12.32.27.09.15.33-.05.42.1.09.15-.18.35-.09.5.09.15.19.14.29.29.09.15-.14.22-.05.37.09.15.28.04.37.19.09.15.07.17.16.32.09.15-.04.25.05.4.09.15.31.05.4.2.09.15,0,.41,0,.41l.85-.52s-.21-.14-.3-.29c-.09-.15.01-.22-.08-.37-.09-.15-.21-.08-.3-.23-.09-.15.05-.24-.04-.39-.09-.15-.31.04-.4-.11-.09-.15-.04-.25-.13-.4-.09-.15-.02-.17-.11-.32-.09-.15-.21-.11-.3-.26-.09-.15.09-.27,0-.42-.09-.15-.28-.03-.37-.19-.09-.15-.03-.19-.12-.34-.09-.15-.01-.2-.1-.35-.09-.15-.3,0-.39-.16-.09-.15.07-.27-.02-.42-.09-.15-.18-.1-.27-.25-.09-.15.03-.28-.04-.39l-.85.52c.07.11.17.03.27.18.09.15.03.19.12.34Z"/>
      <path class="st1" d="M50.92,60.02c.09.15.22.03.31.18.09.15.02.32.11.47.09.15.15.12.24.27.09.15-.04.24.06.39.09.15.23.12.32.27.09.15.33-.05.42.1.09.15-.18.35-.09.5.09.15.19.14.29.29.09.15-.14.22-.05.37.09.15.28.04.37.19.09.15.07.17.16.32.09.15-.04.25.05.4.09.15.31.05.4.2.09.15,0,.41,0,.41l.85-.52s-.21-.14-.3-.29c-.09-.15.01-.22-.08-.37-.09-.15-.21-.08-.3-.23-.09-.15.05-.24-.04-.39-.09-.15-.31.04-.4-.11-.09-.15-.04-.25-.13-.4-.09-.15-.02-.17-.11-.32-.09-.15-.21-.11-.3-.26-.09-.15.09-.27,0-.42-.09-.15-.28-.03-.37-.19-.09-.15-.03-.19-.12-.34-.09-.15-.01-.2-.1-.35-.09-.15-.3,0-.39-.16-.09-.15.07-.27-.02-.42-.09-.15-.18-.1-.27-.25-.09-.15.03-.28-.04-.39l-.85.52c.07.11.17.03.27.18.09.15.03.19.12.34Z"/>
      <path class="st1" d="M44.02,59.15c.21,0,.17-.17.38-.17.21,0,.34.16.55.16.21,0,.21-.07.43-.06.21,0,.22.16.43.16.21,0,.27-.13.48-.13.21,0,.15-.3.36-.3.21,0,.24.34.45.34.21,0,.27-.09.48-.09.21,0,.13.23.35.23.21,0,.22-.22.43-.21.21,0,.21.03.43.03.21,0,.22.16.44.17.21,0,.25-.24.46-.24.21,0,.41.22.42.22v-1s-.27.1-.48.1c-.21,0-.21-.13-.42-.13-.21,0-.22.14-.43.13-.21,0-.21-.17-.42-.17-.21,0-.15.29-.36.28-.21,0-.28-.1-.49-.1-.21,0-.19-.08-.4-.08-.21,0-.24.12-.45.12-.21,0-.22-.22-.43-.22-.21,0-.21.22-.42.22-.21,0-.21-.07-.43-.08-.21,0-.21-.1-.42-.1-.21,0-.19.25-.41.25-.21,0-.23-.21-.45-.21-.21,0-.21.1-.43.09-.21,0-.26-.17-.42-.17v1c.15,0,.13-.13.35-.13.21,0,.21.08.43.08Z"/>
      <path class="st1" d="M37.14,59.09c.21,0,.17-.17.38-.17.21,0,.34.16.55.16.21,0,.21-.07.43-.06.21,0,.22.16.43.16.21,0,.27-.13.48-.13.21,0,.15-.3.36-.3.21,0,.24.34.45.34.21,0,.27-.09.48-.09.21,0,.13.23.35.23.21,0,.22-.22.43-.21.21,0,.21.03.43.03.21,0,.22.16.44.17.21,0,.25-.24.46-.24.21,0,.41.22.42.22v-1s-.27.1-.48.1c-.21,0-.21-.13-.42-.13-.21,0-.22.14-.43.13-.21,0-.21-.17-.42-.17-.21,0-.15.29-.36.28-.21,0-.28-.1-.49-.1-.21,0-.19-.08-.4-.08-.21,0-.24.12-.45.12-.21,0-.22-.22-.43-.22-.21,0-.21.22-.42.22-.21,0-.21-.07-.43-.08-.21,0-.21-.1-.42-.1-.21,0-.19.25-.41.25-.21,0-.23-.21-.45-.21-.21,0-.21.1-.43.09-.21,0-.26-.17-.42-.17v1c.15,0,.13-.13.35-.13.21,0,.21.08.43.08Z"/>
      <path class="st1" d="M30.27,59.04c.21,0,.17-.17.38-.17.21,0,.34.16.55.16.21,0,.21-.07.43-.06.21,0,.22.16.43.16.21,0,.27-.13.48-.13.21,0,.15-.3.36-.3.21,0,.24.34.45.34.21,0,.27-.09.48-.09.21,0,.13.23.35.23.21,0,.22-.22.43-.21.21,0,.21.03.43.03.21,0,.22.16.44.17.21,0,.25-.24.46-.24.21,0,.41.22.42.22v-1s-.27.1-.48.1c-.21,0-.21-.13-.42-.13-.21,0-.22.14-.43.13-.21,0-.21-.17-.42-.17-.21,0-.15.29-.36.28-.21,0-.28-.1-.49-.1-.21,0-.19-.08-.4-.08-.21,0-.24.12-.45.12-.21,0-.22-.22-.43-.22-.21,0-.21.22-.42.22-.21,0-.21-.07-.43-.08-.21,0-.21-.1-.42-.1-.21,0-.19.25-.41.25-.21,0-.23-.21-.45-.21-.21,0-.21.1-.43.09-.21,0-.26-.17-.42-.17v1c.15,0,.13-.13.35-.13.21,0,.21.08.43.08Z"/>
      <path class="st1" d="M25.66,53.76c.09.16.22.04.31.2.09.16,0,.33.1.49.09.16.15.13.24.29.09.16-.04.24.05.4.09.16.23.13.32.29.09.16.33-.04.42.12.09.16-.19.35-.1.51.09.16.19.15.28.31.09.16-.14.22-.05.38.09.16.28.05.37.21.09.16.07.17.16.33.09.16-.05.25.04.41.09.16.31.06.4.22.09.16-.01.41,0,.42l.87-.5s-.21-.15-.3-.31c-.09-.16.02-.22-.07-.38-.09-.16-.21-.09-.3-.25-.09-.16.06-.24-.04-.4-.09-.16-.31.03-.4-.13-.09-.16-.03-.26-.12-.42-.09-.16-.01-.18-.1-.34-.09-.16-.21-.12-.3-.28-.09-.16.09-.27,0-.43-.09-.16-.28-.05-.37-.2-.09-.16-.03-.19-.12-.35-.09-.16,0-.21-.1-.36-.09-.16-.3-.02-.39-.18-.09-.16.08-.28-.01-.43-.09-.16-.17-.11-.27-.27-.09-.16.03-.28-.03-.4l-.87.5c.07.12.17.04.26.2.09.16.02.2.11.36Z"/>
      <path class="st1" d="M22.73,48.65c.09.16.22.04.31.2.09.16,0,.33.1.49.09.16.15.13.24.29.09.16-.04.24.05.4.09.16.23.13.32.29.09.16.33-.04.42.12.09.16-.19.35-.1.51.09.16.19.15.28.31.09.16-.14.22-.05.38.09.16.28.05.37.21.09.16.07.17.16.33.09.16-.05.25.04.41.09.16.31.06.4.22.09.16-.01.41,0,.42l.87-.5s-.21-.15-.3-.31c-.09-.16.02-.22-.07-.38-.09-.16-.21-.09-.3-.25-.09-.16.06-.24-.04-.4-.09-.16-.31.03-.4-.13-.09-.16-.03-.26-.12-.42-.09-.16-.01-.18-.1-.34-.09-.16-.21-.12-.3-.28-.09-.16.09-.27,0-.43-.09-.16-.28-.05-.37-.2-.09-.16-.03-.19-.12-.35-.09-.16,0-.21-.1-.36-.09-.16-.3-.02-.39-.18-.09-.16.08-.28-.01-.43-.09-.16-.17-.11-.27-.27-.09-.16.03-.28-.03-.4l-.87.5c.07.12.17.04.26.2.09.16.02.2.11.36Z"/>
      <path class="st1" d="M19.81,43.53c.09.16.22.04.31.2.09.16,0,.33.1.49.09.16.15.13.24.29.09.16-.04.24.05.4.09.16.23.13.32.29.09.16.33-.04.42.12.09.16-.19.35-.1.51.09.16.19.15.28.31.09.16-.14.22-.05.38.09.16.28.05.37.21.09.16.07.17.16.33.09.16-.05.25.04.41.09.16.31.06.4.22.09.16-.01.41,0,.42l.87-.5s-.21-.15-.3-.31c-.09-.16.02-.22-.07-.38-.09-.16-.21-.09-.3-.25-.09-.16.06-.24-.04-.4-.09-.16-.31.03-.4-.13-.09-.16-.03-.26-.12-.42-.09-.16-.01-.18-.1-.34-.09-.16-.21-.12-.3-.28-.09-.16.09-.27,0-.43-.09-.16-.28-.05-.37-.2-.09-.16-.03-.19-.12-.35-.09-.16,0-.21-.1-.36-.09-.16-.3-.02-.39-.18-.09-.16.08-.28-.01-.43-.09-.16-.17-.11-.27-.27-.09-.16.03-.28-.03-.4l-.87.5c.07.12.17.04.26.2.09.16.02.2.11.36Z"/>
      <path class="st1" d="M14.13,42.42c.17,0,.14-.16.31-.15.17,0,.26.17.44.18.17,0,.18-.06.35-.05.17,0,.17.16.34.17.17,0,.22-.12.39-.11.17,0,.13-.3.31-.29.17,0,.18.34.35.35.17,0,.22-.08.39-.07.17,0,.1.24.27.25.17,0,.19-.21.36-.2.17,0,.17.04.34.04.17,0,.17.17.34.18.17,0,.21-.23.38-.22.17,0,.32.23.33.23l.05-1s-.23.09-.4.08c-.17,0-.16-.13-.34-.14-.17,0-.18.13-.35.12-.17,0-.16-.17-.33-.18-.17,0-.13.28-.3.27-.17,0-.22-.11-.39-.12-.17,0-.15-.08-.32-.09-.17,0-.2.11-.37.1-.17,0-.16-.22-.34-.23-.17,0-.18.21-.35.2-.17,0-.17-.08-.34-.09-.17,0-.17-.1-.34-.11-.17,0-.17.25-.34.24-.17,0-.18-.21-.35-.22-.17,0-.18.09-.35.08-.17,0-.2-.18-.33-.19l-.05,1c.13,0,.12-.13.29-.12.17,0,.17.09.34.09Z"/>
      <path class="st1" d="M8.6,42.14c.17,0,.14-.16.31-.15.17,0,.26.17.44.18.17,0,.18-.06.35-.05.17,0,.17.16.34.17.17,0,.22-.12.39-.11.17,0,.13-.3.31-.29.17,0,.18.34.35.35.17,0,.22-.08.39-.07.17,0,.1.24.27.25.17,0,.19-.21.36-.2.17,0,.17.04.34.04.17,0,.17.17.34.18.17,0,.21-.23.38-.22.17,0,.32.23.33.23l.05-1s-.23.09-.4.08c-.17,0-.16-.13-.34-.14-.17,0-.18.13-.35.12-.17,0-.16-.17-.33-.18-.17,0-.13.28-.3.27-.17,0-.22-.11-.39-.12-.17,0-.15-.08-.32-.09-.17,0-.2.11-.37.1-.17,0-.16-.22-.34-.23-.17,0-.18.21-.35.2-.17,0-.17-.08-.34-.09-.17,0-.17-.1-.34-.11-.17,0-.17.25-.34.24-.17,0-.18-.21-.35-.22-.17,0-.18.09-.35.08-.17,0-.2-.18-.33-.19l-.05,1c.13,0,.12-.13.29-.12.17,0,.17.09.34.09Z"/>
      <path class="st1" d="M10.11,47.61c-.09-.16-.22-.04-.31-.21-.09-.16-.01-.34-.11-.5-.09-.16-.15-.13-.24-.29-.09-.16.04-.24-.05-.41-.09-.16-.23-.14-.32-.3-.09-.16-.33.04-.42-.13-.09-.16.18-.35.09-.51-.09-.16-.2-.16-.29-.32-.09-.16.14-.22.05-.38-.09-.16-.28-.06-.38-.22-.09-.16-.07-.18-.16-.34-.09-.16.04-.25-.05-.42-.09-.16-.32-.07-.41-.23-.09-.16,0-.42,0-.43l-.87.49s.21.16.3.32c.09.16-.02.22.08.39.09.16.21.1.31.26.09.16-.05.24.04.41.09.16.31-.03.41.14.09.16.03.26.13.43.09.16.01.18.11.34.09.16.21.12.3.29.09.16-.09.27,0,.44.09.16.28.05.37.22.09.16.03.2.12.36.09.16.01.21.1.37.09.16.3.02.4.19.09.16-.08.28.02.44.09.16.18.12.27.28.09.16-.03.29.04.41l.87-.49c-.07-.12-.17-.04-.27-.21-.09-.16-.02-.2-.12-.36Z"/>
      <path class="st1" d="M13.1,52.88c-.09-.16-.22-.04-.31-.21-.09-.16-.01-.34-.11-.5-.09-.16-.15-.13-.24-.29-.09-.16.04-.24-.05-.41-.09-.16-.23-.14-.32-.3-.09-.16-.33.04-.42-.13-.09-.16.18-.35.09-.51-.09-.16-.2-.16-.29-.32-.09-.16.14-.22.05-.38-.09-.16-.28-.06-.38-.22-.09-.16-.07-.18-.16-.34-.09-.16.04-.25-.05-.42-.09-.16-.32-.07-.41-.23-.09-.16,0-.42,0-.43l-.87.49s.21.16.3.32c.09.16-.02.22.08.39.09.16.21.1.31.26.09.16-.05.24.04.41.09.16.31-.03.41.14.09.16.03.26.13.43.09.16.01.18.11.34.09.16.21.12.3.29.09.16-.09.27,0,.44.09.16.28.05.37.22.09.16.03.2.12.36.09.16.01.21.1.37.09.16.3.02.4.19.09.16-.08.28.02.44.09.16.18.12.27.28.09.16-.03.29.04.41l.87-.49c-.07-.12-.17-.04-.27-.21-.09-.16-.02-.2-.12-.36Z"/>
      <path class="st1" d="M16.08,58.16c-.09-.16-.22-.04-.31-.21-.09-.16-.01-.34-.11-.5-.09-.16-.15-.13-.24-.29-.09-.16.04-.24-.05-.41-.09-.16-.23-.14-.32-.3-.09-.16-.33.04-.42-.13-.09-.16.18-.35.09-.51-.09-.16-.2-.16-.29-.32-.09-.16.14-.22.05-.38-.09-.16-.28-.06-.38-.22-.09-.16-.07-.18-.16-.34-.09-.16.04-.25-.05-.42-.09-.16-.32-.07-.41-.23-.09-.16,0-.42,0-.43l-.87.49s.21.16.3.32c.09.16-.02.22.08.39.09.16.21.1.31.26.09.16-.05.24.04.41.09.16.31-.03.41.14.09.16.03.26.13.43.09.16.01.18.11.34.09.16.21.12.3.29.09.16-.09.27,0,.44.09.16.28.05.37.22.09.16.03.2.12.36.09.16.01.21.1.37.09.16.3.02.4.19.09.16-.08.28.02.44.09.16.18.12.27.28.09.16-.03.29.04.41l.87-.49c-.07-.12-.17-.04-.27-.21-.09-.16-.02-.2-.12-.36Z"/>
      <path class="st1" d="M19.07,63.43c-.09-.16-.22-.04-.31-.21-.09-.16-.01-.34-.11-.5-.09-.16-.15-.13-.24-.29-.09-.16.04-.24-.05-.41-.09-.16-.23-.14-.32-.3-.09-.16-.33.04-.42-.13-.09-.16.18-.35.09-.51-.09-.16-.2-.16-.29-.32-.09-.16.14-.22.05-.38-.09-.16-.28-.06-.38-.22-.09-.16-.07-.18-.16-.34-.09-.16.04-.25-.05-.42-.09-.16-.32-.07-.41-.23-.09-.16,0-.42,0-.43l-.87.49s.21.16.3.32c.09.16-.02.22.08.39.09.16.21.1.31.26.09.16-.05.24.04.41.09.16.31-.03.41.14.09.16.03.26.13.43.09.16.01.18.11.34.09.16.21.12.3.29.09.16-.09.27,0,.44.09.16.28.05.37.22.09.16.03.2.12.36.09.16.01.21.1.37.09.16.3.02.4.19.09.16-.08.28.02.44.09.16.18.12.27.28.09.16-.03.29.04.41l.87-.49c-.07-.12-.17-.04-.27-.21-.09-.16-.02-.2-.12-.36Z"/>
      <path class="st1" d="M22.05,68.71c-.09-.16-.22-.04-.31-.21-.09-.16-.01-.34-.11-.5-.09-.16-.15-.13-.24-.29-.09-.16.04-.24-.05-.41-.09-.16-.23-.14-.32-.3-.09-.16-.33.04-.42-.13-.09-.16.18-.35.09-.51-.09-.16-.2-.16-.29-.32-.09-.16.14-.22.05-.38-.09-.16-.28-.06-.38-.22-.09-.16-.07-.18-.16-.34-.09-.16.04-.25-.05-.42-.09-.16-.32-.07-.41-.23-.09-.16,0-.42,0-.43l-.87.49s.21.16.3.32c.09.16-.02.22.08.39.09.16.21.1.31.26.09.16-.05.24.04.41.09.16.31-.03.41.14.09.16.03.26.13.43.09.16.01.18.11.34.09.16.21.12.3.29.09.16-.09.27,0,.44.09.16.28.05.37.22.09.16.03.2.12.36.09.16.01.21.1.37.09.16.3.02.4.19.09.16-.08.28.02.44.09.16.18.12.27.28.09.16-.03.29.04.41l.87-.49c-.07-.12-.17-.04-.27-.21-.09-.16-.02-.2-.12-.36Z"/>
      <g>
        <path class="st1" d="M57.52,69.14l.05.09.06.1.06.1.03.05.02.05v.02s.01.02.01.02v.04s0,.04,0,.04v.04s-.02.08-.02.08v.04s0,.05,0,.05l.02.05.03.05.07.1s.04.07.07.1l.02.05v.02s.01.02.01.02v.04s0,.04,0,.04v.07s-.01.07-.01.07c0,.02,0,.05,0,.08v.02s0,0,0,0h0s0,0,0,0h0s-.06.01-.06.01c-.04,0-.09,0-.13,0-.05,0-.09,0-.13,0h-.06s-.05.02-.05.02h-.02s-.02.02-.02.02l-.03.02-.05.06-.02.03-.03.03h-.02s-.02.02-.02.02h-.02s-.02.02-.02.02c-.07.01-.14.03-.22.05-.08.01-.16.03-.23.04h-.05s-.04,0-.04,0l-.08-.02-.08-.02h-.05s-.05,0-.05,0h-.03s-.03,0-.03,0l-.05.02s-.07.03-.1.05l-.05.03-.05.02-.06.02h-.03s-.03,0-.03,0v-.5s.01-.25.01-.25v-.25s.04,0,.05,0h.03s.03.01.03.01h.03s.02,0,.02,0h.02s.03,0,.03,0c.02,0,.05.02.07.02h.04s.05.02.05.02c.02,0,.04,0,.06,0,.02,0,.04,0,.07-.01.04,0,.12-.02.21-.04.04,0,.08-.02.12-.02h.03s.01,0,.01,0h0s0,0,0,0v-.03s0-.03,0-.03v-.03s-.02-.05-.02-.05l-.02-.05-.02-.04s-.03-.06-.05-.08l-.02-.04v-.03s-.02-.02-.02-.02h0s-.02-.04-.02-.04l-.03-.02-.03-.02-.06-.05-.02-.03h-.01s0-.03,0-.03c-.02-.03-.07-.11-.1-.16l.21-.13.21-.13.43-.26.02.04.02.04s.02.06.04.1l.04.1.04.1Z"/>
        <polygon class="st0" points="56.09 69.54 56.06 71.54 59.69 71.6 57.79 68.5 56.09 69.54"/>
      </g>
      <g>
        <path class="st1" d="M50.24,58.32h.02s.02,0,.02,0h.03s.03,0,.03,0h.02s.02,0,.02,0h0s0,.01,0,.01v.02s.03.05.03.05l.02.05v.02s.02.02.02.02h0s0,0,0,0h0s0,0,0,0h.04s.02,0,.02,0h.02s0,0,0,0h0s0,0,0,0h0s.02.04.02.04l.02.04.02.04.02.04v.02s.02,0,.02,0h0s.02.02.02.02v.02s.04.03.04.03h.02s0,.01,0,.01h.01s.02,0,.02,0h.03s.06-.02.06-.02l.05-.02h.02s.01,0,.01,0h0s.04.02.04.02l.04.02s.05.03.07.04h0s0,.01,0,.01h0s0,.01,0,.01h0s0,.03,0,.03v.03s0,0,0,.01h0s0,.01,0,.01h0s0,0,0,0h.02s.06,0,.06,0h.03s.03,0,.03,0h.01s.01,0,.01,0h0s0,.01,0,.01l-.43.26-.21.13-.21.13h0s0-.01,0-.01h0s0-.02,0-.02h0s0,0,0,0h0s0,0,0,0h0s0-.04,0-.04v-.02s0,0,0,0h0s0-.01,0-.01h0s0-.01,0-.01h-.01s-.04-.02-.07-.04l-.04-.02h0s0,0,0,0h0s0,0,0,0v-.02s-.02-.03-.02-.03h0s0-.02,0-.02h-.02s-.02-.01-.02-.01h-.03s-.01,0-.01,0h0s0,0,0,0h0s0,0,0,0h0s0,0,0,0h-.01s-.01.02-.01.02l-.02.03h-.01s0,0,0,0h0s-.01,0-.01,0c0,0,0,0-.01,0h-.03s0-.25,0-.25v-.25s0-.5,0-.5h.01s.01,0,.01,0l.03.02.03.02h.02s.02.02.02.02Z"/>
        <polygon class="st0" points="50.1 59.75 51.81 58.71 51.23 57.76 50.12 57.75 50.1 59.75"/>
      </g>
      <g>
        <path class="st1" d="M28.33,58.41h.01s0,.03,0,.03v.03s.03.03.03.03h.01s.01.02.01.02h0s0,0,0,0h.02s.06,0,.06,0h.06s.03,0,.03,0h.02s0,0,0,0h0s.01.02.01.02l.02.04v.02s.02.02.02.02h0s0,.01,0,.01h0s.01,0,.01,0h.04s.04,0,.04,0h.04s.05,0,.05,0h.03s0,0,0,0h0s.02.01.02.01h.02s.04.01.04.01h.02s0,.02,0,.02h0s.01.03.01.03v.03s.02.06.02.06l.02.05v.02s.02,0,.02,0h0s.03.03.03.03l.04.02s.05.03.07.04h0s0,0,0,0h0s0,0,0,0h.01s.01-.02.01-.02l.03-.02s0,0,.01,0h0s0,0,0,0h0s0,.01,0,.01l.02.02.03.05.02.03.02.02h0s0,.02,0,.02h0s0,0,0,0v-.5s0-.25,0-.25v-.25s0,0,0,0h0s-.01,0-.01,0h0s0,0,0,0h0s0,0,0,0h0s-.01,0-.01,0l-.02.02h-.01s0,.01,0,.01h0s0,0,0,0h0s0,0,0,0h-.01s-.04-.03-.06-.05l-.04-.02h0s0,0,0,0h0s0,0,0,0h-.02s-.03,0-.03,0h-.01s-.01,0-.01,0h-.02s-.01-.02-.01-.02l-.02-.02h0s0-.01,0-.01h0s0,0,0,0h0s0,0,0,0h0s0-.02,0-.02v-.02s.02-.03.02-.03h0s0-.02,0-.02h0s0-.01,0-.01c0,0,0,0,0-.01v-.03s-.23.12-.23.12l-.22.12-.43.25h0s.01.02.01.02l.03.02.04.02h.02s.01.02.01.02Z"/>
        <polygon class="st0" points="29.51 57.59 29.49 59.59 28.34 59.58 27.77 58.58 29.51 57.59"/>
      </g>
      <g>
        <path class="st1" d="M19.19,41.8h.02s.02,0,.02,0h.03s.03,0,.03,0h.02s.02.01.02.01h0s0,.01,0,.01v.02s.03.05.03.05l.02.05v.02s.02.02.02.02h0s0,.01,0,.01h0s0,0,0,0h.04s.02,0,.02,0h.02s0,0,0,0h0s0,0,0,0h0s.02.05.02.05l.02.04v.04s.03.04.03.04v.02s.02,0,.02,0h0s.02.02.02.02v.02s.04.03.04.03h.02s0,.01,0,.01h.01s.02,0,.02,0h.03s.06-.02.06-.02h.06s.02-.02.02-.02h.01s0,0,0,0h.04s.04.03.04.03c.02.01.05.03.07.04h0s0,.01,0,.01h0s0,.01,0,.01h0s0,.03,0,.03v.03s0,0,0,0h0s0,.01,0,.01h0s0,.01,0,.01h0s.02,0,.02,0h.06s.03,0,.03,0h.03s.01,0,.01,0h.01s0,0,0,0h0s-.43.26-.43.26l-.22.12-.22.12h0s0-.01,0-.01h0s0-.02,0-.02h0s0,0,0,0h0s0,0,0,0h0s0-.04,0-.04v-.02s0,0,0,0h0s0-.01,0-.01h0s0-.01,0-.01h-.01s-.04-.03-.07-.04l-.04-.02h0s0,0,0,0h0s0,0,0,0v-.02s-.02-.03-.02-.03v-.02s-.03,0-.03,0h-.01s-.03,0-.03,0h-.01s0,0,0,0h0s0,0,0,0h0s0,0,0,0h0s-.01.01-.01.01h-.01s-.02.04-.02.04h-.01s0,0,0,0h0s-.01,0-.01,0c0,0,0,0-.01,0h-.03s.01-.25.01-.25v-.25s.04-.5.04-.5h.01s0,0,.01.01l.03.02.03.02h.02s.02.02.02.02Z"/>
        <polygon class="st0" points="19 43.22 20.73 42.23 20.19 41.28 19.1 41.22 19 43.22"/>
      </g>
      <g>
        <path class="st1" d="M6.51,43.01l-.05-.1-.06-.1-.06-.1-.02-.05-.02-.05v-.02s-.01-.02-.01-.02v-.04s0-.04,0-.04v-.04s.02-.08.02-.08v-.04s0-.05,0-.05l-.02-.05-.03-.05-.06-.11s-.04-.07-.06-.11l-.02-.05v-.02s-.01-.02-.01-.02v-.04s0-.04,0-.04v-.07s.02-.07.02-.07c0-.02,0-.05,0-.08v-.02s0,0,0,0h0s0,0,0,0h0s.06,0,.06,0c.04,0,.09,0,.13,0,.05,0,.09,0,.13,0h.06s.05-.02.05-.02h.02s.02-.02.02-.02l.03-.02.05-.05.03-.03.03-.02h.02s.02-.02.02-.02h.02s.02-.01.02-.01c.07-.01.15-.02.22-.04.08-.01.16-.02.23-.03h.05s.04,0,.04,0l.08.02.08.02h.04s.05,0,.05,0h.03s.03,0,.03,0l.05-.02s.07-.03.1-.05l.05-.02.05-.02h.06s.03-.02.03-.02h.03s-.03.5-.03.5v.25s-.03.25-.03.25c-.02,0-.03,0-.05,0h-.03s-.03-.01-.03-.01h-.03s-.02,0-.02,0h-.02s-.03-.01-.03-.01c-.02,0-.05-.02-.07-.03h-.04s-.05-.02-.05-.02c-.02,0-.04,0-.06,0-.02,0-.04,0-.07,0-.04,0-.13.02-.21.03-.04,0-.08.01-.12.02h-.03s-.01,0-.01,0h0s0,0,0,0v.03s0,.03,0,.03v.03s.01.05.01.05l.02.05.02.05s.03.06.04.08l.02.04v.03s.02.02.02.02h0s.02.04.02.04l.03.02.03.02.06.05.02.03h0s0,.03,0,.03c.02.03.06.11.1.16l-.22.12-.22.12-.44.25-.02-.04-.02-.04s-.02-.06-.03-.1l-.03-.1-.04-.1Z"/>
        <polygon class="st0" points="7.95 42.66 8.05 40.66 4.42 40.48 6.21 43.65 7.95 42.66"/>
      </g>
      <g>
        <path class="st1" d="M22.72,70.46h-.02s-.02,0-.02,0h-.04s-.04,0-.04,0h-.02s-.02,0-.02,0h0s0-.01,0-.01v-.02s-.03-.05-.03-.05l-.02-.05v-.02s-.03-.02-.03-.02h0s0,0,0,0h-.02s-.04,0-.04,0h-.02s-.02,0-.02,0h0s0,0,0,0h0s0-.01,0-.01l-.02-.04-.02-.04-.02-.04-.02-.04v-.02s-.02,0-.02,0h0s-.02-.02-.02-.02v-.02s-.04-.03-.04-.03h-.02s0-.02,0-.02h-.01s-.02,0-.02,0h-.03s-.06.02-.06.02h-.06s-.02.01-.02.01h-.01s0,0,0,0l-.04-.02-.04-.02s-.05-.03-.07-.04h0s0-.01,0-.01h0s0-.01,0-.01h0s0-.03,0-.03v-.03s0,0,0-.01h0s0-.01,0-.01h0s0,0,0,0h-.02s-.06,0-.06,0h-.03s-.03,0-.03,0h-.01s-.01,0-.01,0h0s0-.01,0-.01l.44-.25.22-.12.22-.12h0s0,.01,0,.01h0s0,.02,0,.02h0s0,0,0,0h0s0,0,0,0h0s0,.04,0,.04v.02s0,0,0,0h0s0,.02,0,.02h0s0,.01,0,.01h.01s.04.03.07.04l.04.02h0s0,0,0,0h0s0,0,0,0v.02s.02.03.02.03h0s0,.02,0,.02h.02s.02.01.02.01h.03s.01,0,.01,0h0s0,0,0,0h0s0,0,0,0h0s0,0,0,0c0,0,0,0,.01,0h.01s.02-.04.02-.04h.01s0,0,0,0h0s.01,0,.01,0c0,0,0,0,.02,0h.03s0,.25,0,.25v.25s-.01.5-.01.5h-.01s-.01,0-.01,0l-.03-.02-.03-.02h-.02s-.02-.02-.02-.02Z"/>
        <polygon class="st0" points="22.87 69.03 21.13 70.02 21.7 71.01 22.84 71.03 22.87 69.03"/>
      </g>
    </g>
  </g>
  <g>
    <path d="M22.81,10.22c.03-.11.06-.21.07-.35.01-.13,0-.28-.04-.42-.04-.14-.12-.25-.23-.33-.11-.08-.28-.17-.45-.15-.16.02-.37.1-.51.23l.99,1.26c.08-.07.13-.13.17-.23Z"/>
    <path d="M18.62,17.47c.15-.26-.12-.33.02-.59.14-.26.45-.29.59-.55.15-.26.05-.31.2-.57.14-.26.36-.14.51-.4.14-.26,0-.42.14-.68.15-.27-.32-.42-.19-.69.13-.27.63-.09.75-.36.12-.27.01-.4.13-.67.12-.27.41-.02.53-.28.12-.25-.2-.41-.07-.67.13-.26.17-.23.3-.48.14-.24.37-.12.51-.33.14-.21-.15-.46.02-.67.09-.1.24-.12.36-.12.12.01.21.05.22.04l-.99-1.26s-.27.44-.47.7c-.21.26-.37.14-.56.42-.18.28.01.39-.14.67-.15.27-.38.15-.52.43-.14.28.32.39.19.67-.12.27-.31.29-.43.56-.12.27-.22.19-.33.46-.12.26.05.38-.08.63-.13.26-.41.07-.56.34-.14.26.16.42.02.68-.14.26-.25.2-.39.46-.14.26-.28.18-.42.44-.14.26.22.43.08.69-.14.26-.44.12-.59.38-.14.26,0,.33-.15.59-.14.26-.41.19-.52.38l1.39.78c.11-.19-.09-.27.06-.53.15-.26.25-.19.4-.45Z"/>
    <path d="M13.91,25.74c.15-.26-.12-.34.03-.59.15-.26.45-.28.6-.54.15-.26.06-.31.2-.57.15-.26.37-.14.51-.4.15-.26,0-.42.15-.68.15-.26-.32-.42-.17-.67.15-.25.63-.03.78-.29.14-.26.05-.39.2-.65.14-.26.42.02.56-.24.14-.26-.16-.43-.01-.69.14-.26.18-.24.33-.49.14-.26.38-.14.52-.4.14-.26-.17-.48-.03-.74.14-.26.58-.33.59-.34l-1.39-.78s-.04.41-.19.67c-.14.26-.32.16-.46.41-.14.26.05.37-.1.62-.14.26-.37.12-.52.38-.14.26.3.41.16.66-.14.26-.33.26-.47.52-.14.26-.23.17-.38.42-.15.26,0,.38-.14.64-.15.25-.45.09-.6.35-.15.25.16.42.01.68-.15.25-.25.2-.4.45-.15.25-.28.18-.43.43-.15.25.22.43.07.69-.15.25-.45.12-.59.37-.15.25-.01.33-.16.59-.15.25-.42.18-.53.37l1.39.8c.11-.19-.09-.27.06-.53.15-.26.25-.19.4-.45Z"/>
    <path d="M9.13,33.98c.15-.26-.12-.34.03-.6.15-.26.45-.28.6-.54.15-.26.06-.31.2-.57.15-.26.36-.14.51-.39.15-.26,0-.42.15-.68.15-.26-.32-.42-.17-.68.15-.25.63-.02.78-.28.15-.26.06-.39.2-.65.15-.26.42.02.56-.23.15-.26-.15-.44,0-.69.15-.26.19-.23.33-.49.15-.26.38-.14.53-.39.15-.26-.16-.48-.02-.74.15-.26.58-.32.59-.34l-1.39-.8s-.05.41-.2.67c-.15.25-.32.15-.47.41-.15.25.04.37-.11.62-.15.25-.37.12-.52.37-.15.25.29.41.15.66-.15.25-.33.25-.48.51-.15.25-.24.16-.38.42-.15.25,0,.38-.15.64-.15.25-.45.09-.59.34-.15.25.16.43,0,.68-.15.25-.25.2-.4.45-.15.25-.28.18-.43.43-.15.25.22.44.07.69-.15.25-.44.11-.59.37-.15.25-.01.33-.16.59-.15.25-.42.18-.53.37l1.37.82c.11-.19-.08-.27.07-.53.15-.26.25-.19.4-.45Z"/>
    <path d="M6.79,41.85c-.13-.25-.35-.07-.46-.33-.12-.26.05-.5-.03-.75-.09-.25-.17-.22-.25-.47-.06-.25.21-.29.17-.51.02-.2-.23-.28-.17-.49.05-.2-.46-.29-.34-.54.11-.26.6,0,.75-.27.15-.26.06-.39.21-.65.15-.26.41.03.56-.23.15-.26-.15-.44,0-.7.15-.26.19-.23.33-.49.15-.26.38-.14.53-.39.15-.26-.16-.49-.01-.75.15-.26.58-.32.59-.33l-1.37-.82s-.05.41-.2.67c-.15.25-.32.15-.47.41-.15.25.04.37-.11.63-.15.25-.37.11-.52.37-.15.25.29.42.14.67-.15.25-.33.25-.48.51-.15.25-.23.16-.38.41-.15.26,0,.36-.16.71-.16.33-.45.25-.55.65-.05.4.32.4.32.74.05.33-.09.36-.01.68.09.31-.08.37.04.68.12.31.47.14.6.42.13.28-.16.45-.02.73.15.28.28.21.43.47.15.26-.04.47.08.66l1.36-.84c-.11-.18-.28-.05-.42-.3-.14-.25-.03-.3-.16-.55Z"/>
    <path d="M11.7,49.95c-.15-.26-.35-.06-.5-.32-.15-.26-.02-.53-.17-.79-.15-.26-.24-.2-.39-.46-.15-.26.06-.39-.09-.64-.15-.26-.36-.21-.51-.47-.15-.26-.53.07-.67-.19-.15-.26.29-.56.15-.81-.15-.26-.31-.24-.46-.5-.16-.26.21-.37.04-.63-.17-.26-.46-.07-.63-.32-.17-.25-.13-.27-.3-.51-.17-.24.04-.4-.12-.64-.16-.24-.5-.06-.66-.31-.16-.24,0-.65-.01-.67l-1.36.84s.35.25.51.5c.16.25,0,.36.16.61.17.25.35.13.52.37.17.24-.05.39.11.63.16.24.5-.09.65.15.16.24.06.4.21.64.15.25.02.29.17.54.15.26.33.19.48.44.15.26-.14.43,0,.69.15.26.45.07.59.33.15.26.05.31.19.57.15.26.02.33.16.59.15.26.49.03.63.28.15.26-.12.44.03.7.15.26.28.18.43.43.15.25-.05.45.06.65l1.38-.8c-.11-.19-.28-.06-.43-.32-.15-.26-.04-.32-.19-.57Z"/>
    <path d="M16.46,58.18c-.15-.26-.35-.06-.5-.32-.15-.26-.02-.53-.17-.79-.15-.26-.24-.2-.39-.46-.15-.26.06-.39-.09-.64-.15-.26-.36-.21-.51-.47-.15-.26-.52.07-.67-.19-.15-.26.29-.56.14-.82-.15-.26-.31-.24-.46-.5-.15-.26.23-.35.08-.61-.15-.26-.45-.08-.6-.34-.15-.26-.11-.28-.26-.53-.15-.26.07-.4-.08-.66-.15-.26-.5-.1-.65-.35-.15-.26.01-.67,0-.68l-1.38.8s.33.25.48.5c.15.26-.03.35.12.61.15.26.34.15.49.4.15.26-.08.38.06.64.15.25.5-.05.65.2.15.25.06.42.2.67.15.25.02.29.17.54.15.26.33.19.48.44.15.26-.14.43,0,.69.15.26.45.07.59.33.15.26.05.31.19.57.15.26.02.33.16.59.15.26.48.03.63.28.15.26-.12.44.03.7.15.26.28.18.43.43.15.25-.05.45.06.65l1.38-.81c-.11-.19-.28-.06-.43-.32-.15-.26-.04-.32-.19-.57Z"/>
    <path d="M21.22,66.42c-.15-.26-.35-.06-.5-.32-.15-.26-.02-.53-.17-.79-.15-.26-.24-.2-.39-.46-.15-.26.06-.39-.09-.64-.15-.26-.36-.21-.51-.47-.15-.26-.52.07-.67-.18-.15-.26.29-.56.14-.82-.15-.26-.31-.24-.46-.5-.15-.26.23-.35.08-.61-.15-.26-.45-.08-.6-.34-.15-.26-.11-.28-.26-.53-.15-.26.07-.4-.08-.66-.15-.26-.5-.1-.65-.35-.15-.26.01-.67,0-.68l-1.38.81s.33.25.48.5c.15.26-.03.35.12.61.15.26.34.14.49.4.15.26-.08.39.06.64.15.25.5-.05.65.2.15.25.06.42.2.67.15.25.02.29.17.54.15.26.33.19.48.44.15.26-.14.43,0,.69.15.26.45.07.59.33.15.26.05.31.2.57.15.26.02.33.16.59.15.26.48.02.63.28.15.26-.12.45.03.7.15.26.28.18.43.43.15.25-.05.45.06.65l1.38-.81c-.11-.19-.28-.06-.43-.32-.15-.26-.04-.32-.19-.57Z"/>
    <path d="M28.24,69.68c-.3,0-.23.27-.53.27-.3,0-.47-.25-.76-.25-.3,0-.3.11-.59.11-.3,0-.3-.25-.6-.25-.3,0-.37.21-.66.21-.3,0-.2.49-.5.49-.29,0-.34-.53-.63-.53-.3,0-.3.15-.53.1-.21-.06,0-.39-.13-.45-.11-.07-.34.2-.5.04-.15-.18-.08-.17-.23-.42-.15-.26.07-.4-.08-.66-.15-.26-.5-.1-.65-.35-.15-.26.01-.67,0-.68l-1.38.81s.33.25.48.5c.15.26-.03.36.12.61.15.26.34.14.49.4.16.26-.06.45.21.76.31.3.52-.12.81.08.31.18.37.37.75.46.35.05.37.16.65.16.29,0,.33-.19.62-.19.29,0,.3.34.6.34.29,0,.29-.35.58-.35.29,0,.29.12.59.12.29,0,.29.15.59.15.29,0,.27-.41.56-.41.29,0,.32.33.62.33.29,0,.29-.16.59-.16.29,0,.37.27.59.27v-1.6c-.22,0-.19.21-.49.21-.3,0-.29-.12-.59-.12Z"/>
    <path d="M37.75,69.68c-.3,0-.23.27-.53.27-.3,0-.47-.25-.76-.25-.3,0-.3.11-.59.11-.3,0-.3-.25-.6-.25-.3,0-.37.21-.66.21-.3,0-.2.49-.5.49-.29,0-.34-.53-.63-.53-.29,0-.37.15-.66.15-.3,0-.19-.37-.48-.37-.3,0-.3.35-.6.35-.3,0-.3-.04-.59-.04-.3,0-.31-.26-.61-.26-.3,0-.34.39-.63.39-.3,0-.57-.34-.59-.34v1.6s.38-.17.68-.17c.29,0,.29.2.59.2.3,0,.3-.22.59-.22.29,0,.29.27.58.27.29,0,.21-.46.5-.46.29,0,.39.16.68.16.29,0,.26.12.55.12.29,0,.33-.19.62-.19.29,0,.3.34.6.34.29,0,.29-.35.58-.35.29,0,.29.12.59.12.29,0,.29.15.59.15.29,0,.27-.41.56-.41.29,0,.32.33.62.33.29,0,.29-.16.59-.16.29,0,.37.27.59.27v-1.6c-.22,0-.19.21-.49.21-.3,0-.29-.12-.59-.12Z"/>
    <path d="M47.26,69.68c-.3,0-.23.27-.53.27-.3,0-.47-.25-.76-.25-.3,0-.3.11-.59.11-.3,0-.3-.25-.6-.25-.3,0-.37.21-.66.21-.3,0-.2.49-.5.49-.29,0-.34-.53-.63-.53-.29,0-.37.15-.66.15-.3,0-.19-.37-.48-.37-.3,0-.3.35-.6.35-.3,0-.3-.04-.59-.04-.3,0-.31-.26-.61-.26-.3,0-.34.39-.63.39-.3,0-.57-.34-.59-.34v1.6s.38-.17.68-.17c.29,0,.29.2.59.2.3,0,.3-.22.59-.22.29,0,.29.27.58.27.29,0,.21-.46.5-.46.29,0,.39.16.68.16.29,0,.26.12.55.12.29,0,.33-.19.62-.19.29,0,.3.34.6.34.29,0,.29-.35.58-.35.29,0,.29.12.59.12.29,0,.29.15.59.15.29,0,.27-.41.56-.41.29,0,.32.33.62.33.29,0,.29-.16.59-.16.29,0,.37.27.59.27v-1.6c-.22,0-.19.21-.49.21-.3,0-.29-.12-.59-.12Z"/>
    <path d="M56.78,69.68c-.3,0-.23.27-.53.27-.3,0-.47-.25-.76-.25-.3,0-.3.11-.59.11-.3,0-.3-.25-.6-.25-.3,0-.37.21-.66.21-.3,0-.2.49-.5.49-.29,0-.34-.53-.63-.53-.29,0-.37.15-.66.15-.3,0-.19-.37-.49-.37-.3,0-.3.35-.6.35-.3,0-.3-.04-.59-.04-.3,0-.31-.26-.61-.26-.3,0-.34.39-.63.39-.3,0-.57-.34-.59-.34v1.6s.38-.17.68-.17c.29,0,.29.2.59.2.3,0,.3-.22.59-.22.29,0,.29.27.58.27.29,0,.21-.46.5-.46.29,0,.39.16.68.16.29,0,.26.12.55.12.29,0,.33-.19.62-.19.29,0,.3.34.6.34.29,0,.29-.35.58-.35.29,0,.29.12.59.12.29,0,.29.15.59.15.29,0,.27-.41.56-.41.29,0,.32.33.62.33.28,0,.33-.14.68-.2.36-.07.55.13.84-.01l-.76-1.41c-.11.05-.01.24-.21.3-.22.04-.18-.09-.45-.09Z"/>
    <path d="M61.64,62.7c-.15.26.12.33-.03.59-.15.26-.45.28-.6.54-.15.26-.05.31-.2.57-.15.26-.37.14-.51.4-.15.26,0,.42-.15.68-.15.26.32.42.18.67-.15.26-.63.03-.78.28-.15.26-.05.39-.2.65-.15.26-.42-.02-.57.24-.15.26.15.43,0,.69-.15.26-.19.23-.33.49-.15.26-.38.14-.53.4-.11.17.2.42.03.6-.18.18-.52-.03-.52-.03l.76,1.41s.38-.41.62-.7c.23-.28.41-.19.59-.49.15-.26-.04-.37.1-.62.15-.26.38-.12.52-.38.15-.25-.3-.4-.15-.66.15-.25.33-.26.48-.51.15-.25.24-.16.38-.42.15-.26,0-.38.14-.64.15-.26.45-.09.59-.35.15-.26-.16-.42-.01-.68.15-.26.25-.2.4-.45.15-.26.28-.18.43-.44.15-.26-.22-.43-.07-.69.15-.26.45-.12.59-.38.15-.26.01-.33.16-.59.15-.26.42-.18.53-.38l-1.39-.79c-.11.19.09.27-.06.53-.15.26-.25.19-.4.45Z"/>
    <path d="M66.39,54.47c-.15.26.12.34-.03.59-.15.26-.45.28-.6.54-.15.26-.05.31-.2.57-.15.26-.36.14-.51.4-.15.26,0,.42-.15.68-.15.26.32.42.17.68-.15.26-.63.03-.78.28-.15.26-.05.39-.2.65-.15.26-.42-.02-.56.23-.15.26.15.43,0,.69-.15.26-.19.23-.33.49-.15.26-.38.14-.53.4-.15.26.17.48.02.74-.15.26-.58.32-.59.34l1.39.8s.05-.41.19-.67c.15-.26.32-.15.47-.41.15-.26-.04-.37.1-.62.15-.26.37-.12.52-.37.15-.25-.3-.41-.15-.66.15-.25.33-.26.48-.51.15-.25.24-.16.38-.42.15-.26,0-.38.14-.64.15-.26.45-.09.59-.35.15-.26-.16-.42-.01-.68.15-.26.25-.2.39-.45.15-.26.28-.18.43-.43.15-.26-.22-.43-.07-.69.15-.26.44-.12.59-.37.15-.26.01-.33.16-.59.15-.26.42-.18.53-.38l-1.39-.8c-.11.19.09.27-.06.53-.15.26-.25.19-.4.45Z"/>
    <path d="M71.14,46.23c-.15.26.12.34-.03.59-.15.26-.45.28-.6.54-.15.26-.05.31-.2.57-.15.26-.36.14-.51.4-.15.26,0,.42-.15.68-.15.26.32.42.17.68-.15.26-.63.03-.78.28-.15.26-.05.39-.2.65-.15.26-.42-.02-.56.23-.15.26.15.43,0,.69-.15.26-.19.23-.33.49-.15.26-.38.14-.53.4-.15.26.17.48.02.74-.15.26-.58.32-.59.34l1.39.8s.05-.41.19-.67c.15-.26.32-.15.47-.41.15-.26-.04-.37.1-.62.15-.26.37-.12.52-.37.15-.25-.3-.41-.15-.66.15-.25.33-.26.48-.51.15-.25.24-.16.38-.42.15-.26,0-.38.14-.64.15-.26.45-.09.59-.35.15-.26-.16-.42-.01-.68.15-.26.25-.2.39-.45.15-.26.28-.18.43-.43.15-.26-.22-.43-.07-.69.15-.26.44-.12.59-.37.15-.26.01-.33.16-.59.15-.26.42-.18.53-.38l-1.39-.8c-.11.19.09.27-.06.53-.15.26-.25.19-.4.45Z"/>
    <path d="M74.18,38.51c.15.26.35.06.5.32.16.27-.03.45.01.63.03.18.14.17.13.38-.03.21-.27.15-.33.33-.07.17.07.32-.08.59-.15.26.32.42.18.68-.15.26-.63.03-.78.28-.15.26-.05.39-.2.65-.15.26-.42-.02-.56.24-.15.26.15.43,0,.69-.15.26-.19.23-.33.49-.15.26-.38.14-.53.4-.15.26.17.48.02.74-.15.26-.58.32-.59.34l1.39.79s.05-.41.19-.67c.15-.26.32-.16.47-.41.15-.26-.04-.37.1-.62.15-.26.38-.12.52-.37.15-.25-.3-.41-.15-.66.15-.25.33-.26.48-.51.15-.25.24-.16.38-.42.15-.26,0-.38.14-.64.15-.26.45-.09.59-.35.14-.25-.14-.45,0-.76.12-.34.23-.31.29-.7.02-.39.17-.4.09-.82-.11-.41-.49-.22-.64-.52-.15-.26.12-.45-.03-.7-.15-.26-.28-.18-.43-.43-.15-.26.05-.45-.06-.65l-1.38.8c.11.19.28.06.43.32.15.26.04.32.19.57Z"/>
    <path d="M69.42,30.27c.15.26.35.06.5.32.15.26.02.53.17.79.15.26.24.2.39.46.15.26-.06.39.09.64.15.26.36.21.51.47.15.26.52-.07.67.19.15.26-.29.56-.15.82.15.26.31.24.46.5.15.26-.23.35-.08.61.15.26.45.08.6.34.15.26.11.28.26.53.15.26-.07.4.08.66.15.26.5.1.65.35.15.26-.01.67,0,.68l1.38-.8s-.33-.25-.48-.5c-.15-.26.03-.35-.12-.61-.15-.26-.34-.15-.49-.4-.15-.26.08-.38-.06-.64-.15-.25-.5.05-.65-.2-.15-.25-.06-.42-.2-.67-.15-.25-.02-.29-.17-.54-.15-.26-.33-.19-.48-.44-.15-.26.14-.43,0-.69-.15-.26-.45-.07-.59-.33-.15-.26-.05-.31-.19-.57-.15-.26-.02-.33-.16-.59-.15-.26-.48-.03-.63-.28-.15-.26.12-.44-.03-.7-.15-.26-.28-.18-.43-.43-.15-.26.05-.45-.06-.65l-1.38.81c.11.19.28.06.43.32.15.26.04.32.19.57Z"/>
    <path d="M64.66,22.03c.15.26.35.06.5.32.15.26.02.53.17.79.15.26.24.2.39.46.15.26-.06.39.09.64.15.26.36.21.51.47.15.26.52-.07.67.19.15.26-.29.56-.14.82.15.26.31.24.46.5.15.26-.23.35-.08.61.15.26.45.08.6.34.15.26.11.28.26.53.15.26-.07.4.08.66.15.26.5.1.65.35.15.26-.01.67,0,.68l1.38-.81s-.33-.25-.48-.5c-.15-.26.03-.35-.12-.61-.15-.26-.34-.14-.49-.4-.15-.26.08-.39-.06-.64-.15-.25-.5.05-.65-.2-.15-.25-.06-.42-.2-.67-.15-.25-.02-.29-.17-.54-.15-.26-.33-.19-.48-.44-.15-.26.14-.43,0-.69-.15-.26-.45-.07-.59-.33-.15-.26-.05-.31-.19-.57-.15-.26-.02-.33-.16-.59-.15-.26-.48-.02-.63-.28-.15-.26.12-.45-.03-.7-.15-.26-.28-.18-.43-.43-.15-.26.05-.45-.06-.65l-1.38.81c.11.19.28.06.43.32.15.26.04.32.19.57Z"/>
    <path d="M59.91,13.8c.15.26.35.06.5.32.15.26.02.53.17.79.15.26.24.2.39.46.15.26-.06.39.09.64.15.26.36.21.51.47.15.26.52-.07.67.18.15.26-.29.56-.14.82.15.26.31.24.46.5.15.26-.22.35-.08.61.15.26.45.08.6.34.15.26.11.28.26.53.15.26-.07.4.08.66.15.26.5.1.65.35.15.26-.01.67,0,.68l1.38-.81s-.33-.25-.48-.5c-.15-.26.03-.36-.12-.61-.15-.26-.34-.14-.49-.4-.15-.26.08-.39-.06-.64-.15-.25-.5.06-.65-.2-.15-.25-.06-.42-.2-.67-.15-.25-.02-.29-.17-.54-.15-.26-.33-.19-.48-.44-.15-.26.14-.43,0-.69-.15-.26-.45-.07-.59-.33-.15-.26-.05-.31-.19-.57-.15-.26-.02-.33-.16-.59-.15-.26-.48-.02-.63-.28-.15-.26.12-.45-.03-.7-.15-.26-.28-.18-.43-.43-.15-.26.05-.45-.06-.65l-1.38.81c.11.19.28.06.43.32.15.26.04.32.19.57Z"/>
    <path d="M53.25,9.84c.3,0,.23-.27.53-.27.3,0,.47.25.76.25.3,0,.3-.11.59-.11.3,0,.3.25.6.25.3,0,.37-.21.66-.21.26,0,.2-.49.49-.47.29.03.23.57.42.62.19.07.3-.04.48.08.17.14-.14.36-.02.49.12.15.4-.05.55.2.15.26.11.28.26.53.15.26-.07.4.08.66.15.26.5.09.65.35.15.26-.01.67,0,.68l1.38-.81s-.33-.25-.48-.5c-.15-.26.03-.36-.12-.61-.15-.26-.34-.14-.49-.4-.15-.26.08-.39-.06-.64-.17-.28-.51.03-.7-.23-.22-.26-.19-.46-.5-.69-.32-.2-.24-.29-.6-.42-.37-.11-.45.08-.78.04-.32-.03-.33-.36-.64-.37-.29,0-.29.35-.58.35-.29,0-.29-.12-.59-.12-.29,0-.29-.15-.59-.15-.29,0-.27.41-.56.41-.29,0-.32-.33-.62-.33-.29,0-.29.16-.59.16-.29,0-.37-.27-.59-.27v1.6c.22,0,.19-.21.49-.21.3,0,.29.12.59.12Z"/>
    <path d="M43.73,9.84c.3,0,.23-.27.53-.27.3,0,.47.25.76.25.3,0,.3-.11.59-.11.3,0,.3.25.6.25.3,0,.37-.21.66-.21.3,0,.2-.49.5-.49.29,0,.34.53.63.53.29,0,.37-.15.66-.15.3,0,.19.37.48.37.3,0,.3-.35.6-.35.3,0,.3.04.59.04.3,0,.31.26.61.26.3,0,.34-.39.63-.39.3,0,.57.34.59.34v-1.6s-.38.17-.68.17c-.29,0-.29-.2-.59-.2-.3,0-.3.22-.59.22-.29,0-.29-.27-.58-.27-.29,0-.21.46-.5.46-.29,0-.39-.16-.68-.16-.29,0-.26-.12-.55-.12-.29,0-.33.19-.62.19-.29,0-.3-.34-.6-.34-.29,0-.29.35-.58.35-.29,0-.29-.12-.59-.12-.29,0-.29-.15-.59-.15-.29,0-.27.41-.56.41-.29,0-.32-.33-.62-.33-.29,0-.29.16-.59.16-.29,0-.37-.27-.59-.27v1.6c.22,0,.19-.21.49-.21.3,0,.29.12.59.12Z"/>
    <path d="M34.22,9.84c.3,0,.23-.27.53-.27.3,0,.47.25.76.25.3,0,.3-.11.59-.11.3,0,.3.25.6.25.3,0,.37-.21.66-.21.3,0,.2-.49.5-.49.29,0,.34.53.63.53.29,0,.37-.15.66-.15.3,0,.19.37.48.37.3,0,.3-.35.6-.35.3,0,.3.04.59.04.3,0,.31.26.61.26.3,0,.34-.39.63-.39.3,0,.57.34.59.34v-1.6s-.38.17-.68.17c-.29,0-.29-.2-.59-.2-.3,0-.3.22-.59.22-.29,0-.29-.27-.58-.27-.29,0-.21.46-.5.46-.29,0-.39-.16-.68-.16-.29,0-.26-.12-.55-.12-.29,0-.33.19-.62.19-.29,0-.3-.34-.6-.34-.29,0-.29.35-.58.35-.29,0-.29-.12-.59-.12-.29,0-.29-.15-.59-.15-.29,0-.27.41-.56.41-.29,0-.32-.33-.62-.33-.29,0-.29.16-.59.16-.29,0-.37-.27-.59-.27v1.6c.22,0,.19-.21.49-.21.3,0,.29.12.59.12Z"/>
    <path d="M24.71,9.84c.3,0,.23-.27.53-.27.3,0,.47.25.76.25.3,0,.3-.11.59-.11.3,0,.3.25.6.25.3,0,.37-.21.66-.21.3,0,.2-.49.5-.49.29,0,.34.53.63.53.29,0,.37-.15.66-.15.3,0,.19.37.48.37.3,0,.3-.35.6-.35.3,0,.3.04.59.04.3,0,.31.26.61.26.3,0,.34-.39.63-.39.3,0,.57.34.59.34v-1.6s-.38.17-.68.17c-.29,0-.29-.2-.59-.2-.3,0-.3.22-.59.22-.29,0-.29-.27-.58-.27-.29,0-.21.46-.5.46-.29,0-.39-.16-.68-.16-.29,0-.26-.12-.55-.12-.29,0-.33.19-.62.19-.29,0-.3-.34-.6-.34-.29,0-.29.35-.58.35-.29,0-.29-.12-.59-.12-.29,0-.29-.15-.59-.15-.29,0-.27.41-.56.41-.29,0-.32-.33-.62-.33-.29,0-.29.16-.59.16-.29,0-.36-.28-.66-.25l.15,1.59c.15-.01.11-.22.41-.22.3,0,.29.12.59.12Z"/>
    <path d="M23.19,9.69c.1.08.2.13.28.17.08.05.15.08.24.07h0s-.15-1.59-.15-1.59h0c-.19.02-.4.09-.54.21-.15.12-.23.3-.24.44-.01.14.04.29.12.4.09.12.2.21.3.29Z"/>
  </g>
  <g>
    <path d="M28.92,21.29c.13.09.29.14.43.15.14.01.28-.03.4-.11.12-.07.21-.19.27-.32.06-.13.12-.28.11-.44-.01-.15-.08-.32-.17-.47l-1.38.81c.09.15.2.28.33.37Z"/>
    <path d="M23.63,12.15c.18.31.37.11.55.41.18.31.06.61.24.91.18.31.27.25.45.56.18.31-.03.44.14.74.18.31.4.28.58.58.18.31.55-.03.72.27.18.3-.26.62-.08.92.18.3.35.3.52.61.18.31-.21.38-.03.69.18.31.48.14.66.44.18.31.14.33.32.63.18.31-.04.45.14.76.18.31.53.15.71.46.18.3.04.76.06.78l1.38-.81s-.37-.31-.55-.61c-.18-.3,0-.4-.18-.71-.18-.3-.37-.19-.54-.5-.18-.3.06-.43-.12-.74-.18-.3-.52.02-.7-.28-.18-.3-.09-.48-.27-.78-.18-.3-.05-.33-.22-.63-.18-.3-.36-.24-.54-.55-.18-.3.12-.48-.06-.79-.18-.3-.48-.12-.65-.43-.18-.3-.08-.36-.25-.67-.18-.3-.04-.38-.22-.68-.18-.3-.51-.07-.69-.38-.18-.3.09-.5-.09-.8-.18-.3-.31-.23-.49-.53-.18-.3.02-.51-.12-.74l-1.39.79c.13.23.3.1.48.4.18.31.07.36.25.67Z"/>
    <path d="M22.84,10.2c-.06.13-.07.28-.06.43,0,.14.04.31.13.45h0s1.39-.79,1.39-.79h0c-.09-.15-.19-.27-.33-.37-.14-.1-.3-.14-.45-.15-.14,0-.29.03-.41.11-.12.08-.22.2-.28.32Z"/>
  </g>
  <g>
    <path d="M40.99,23.02c.3,0,.23-.27.53-.27s.47.25.77.25.3-.11.59-.11.3.25.6.25.37-.21.66-.21.2-.49.5-.49.34.53.63.53.37-.15.66-.15.19.37.49.37.3-.35.6-.35.3.04.59.04.31.26.61.26.34-.39.63-.39.57.34.59.34v-1.6s-.38.17-.68.17-.29-.2-.59-.2-.3.22-.59.22-.29-.27-.58-.27-.21.46-.5.46-.39-.16-.68-.16-.26-.12-.55-.12-.33.19-.62.19-.3-.34-.6-.34-.29.35-.58.35-.29-.12-.59-.12-.3-.15-.59-.15-.27.41-.56.41-.32-.33-.62-.33-.3.16-.59.16-.37-.27-.59-.27v1.6c.22,0,.19-.21.49-.21s.29.12.59.12Z"/>
    <path d="M31.47,23.02c.3,0,.23-.27.53-.27s.47.25.77.25.3-.11.59-.11.3.25.6.25.37-.21.66-.21.2-.49.5-.49.34.53.63.53.37-.15.66-.15.19.37.49.37.3-.35.6-.35.3.04.59.04.31.26.61.26.34-.39.63-.39.57.34.59.34v-1.6s-.38.17-.68.17-.29-.2-.59-.2-.3.22-.59.22-.29-.27-.58-.27-.21.46-.5.46-.39-.16-.68-.16-.26-.12-.55-.12-.33.19-.62.19-.3-.34-.6-.34-.29.35-.58.35-.29-.12-.59-.12-.3-.15-.59-.15-.27.41-.56.41-.32-.33-.62-.33c-.29,0-.28.15-.68.16-.38.01-.58-.2-.87-.05l.82,1.44c.1-.04,0-.26.18-.27.21,0,.13.12.45.12Z"/>
    <path d="M26.7,30.01c.15-.26-.12-.34.03-.59.15-.26.45-.28.6-.54.15-.26.06-.31.2-.57.15-.26.36-.14.51-.4.15-.26,0-.42.15-.68.15-.26-.32-.42-.17-.68.15-.26.63-.02.78-.28.15-.26.06-.39.2-.65.15-.26.42.02.56-.23.15-.26-.15-.44,0-.69.15-.26.19-.23.33-.49.15-.26.38-.14.53-.39.15-.26-.16-.49-.06-.67.11-.22.47,0,.46.01l-.82-1.44s-.38.44-.54.81c-.22.37-.35.21-.51.48-.15.26.04.37-.11.62-.15.26-.38.12-.52.37-.15.25.29.41.15.66-.15.25-.33.26-.48.51-.15.25-.24.16-.38.42-.15.26,0,.38-.15.64-.15.26-.45.09-.59.35-.15.26.16.42.01.68-.15.26-.25.2-.4.45-.15.26-.28.18-.43.43-.15.26.22.43.07.69-.15.26-.44.12-.59.37-.15.26-.01.33-.16.59-.15.26-.42.18-.53.37l1.38.8c.11-.19-.09-.27.06-.53.15-.26.25-.19.4-.45Z"/>
    <path d="M21.9,38.25c.15-.26-.12-.34.03-.6.15-.26.45-.28.6-.53.15-.26.06-.31.21-.57.15-.26.36-.14.51-.39.15-.26,0-.42.16-.68.15-.26-.32-.43-.17-.68.15-.26.63-.02.78-.28.15-.26.06-.39.21-.65.15-.26.42.02.56-.23.15-.26-.15-.44,0-.69.15-.26.19-.23.34-.49.15-.26.38-.14.53-.39.15-.26-.16-.49-.02-.74.15-.26.58-.32.59-.34l-1.38-.8s-.05.41-.2.67c-.15.26-.32.15-.47.41-.15.25.04.37-.11.62-.15.25-.38.12-.52.37-.15.25.29.41.15.66-.15.25-.33.25-.48.51-.15.25-.24.16-.38.42-.15.25,0,.38-.15.64-.15.25-.45.09-.59.34-.15.25.16.43,0,.68-.15.25-.25.2-.4.45-.15.25-.28.18-.43.43-.15.25.22.44.07.69-.15.25-.44.11-.59.37-.15.25-.02.33-.16.59-.15.25-.42.18-.53.37l1.37.83c.11-.19-.08-.28.07-.53.15-.26.25-.19.4-.45Z"/>
    <path d="M25.65,47.7c-.15-.26-.34-.05-.49-.31-.15-.26-.04-.55-.19-.82-.15-.26-.24-.2-.39-.46-.15-.26.05-.41-.11-.67-.15-.26-.36-.2-.51-.46-.15-.26-.5.1-.66-.16-.15-.26.26-.61.11-.87-.15-.26-.31-.24-.46-.5-.15-.26.2-.38.05-.64-.15-.26-.44-.06-.59-.32-.15-.26-.12-.29-.27-.55-.15-.26.05-.43-.1-.69-.15-.26-.48-.07-.64-.33-.15-.26-.02-.71-.02-.72l-1.29.95s.33.24.48.5c.15.26-.01.38.14.63.15.26.33.13.48.39.15.26-.07.41.08.67.15.26.48-.09.63.17.15.26.07.43.22.69.15.26.03.3.18.56.15.26.33.18.48.44.15.26-.12.46.03.72.15.26.43.05.58.31.15.26.06.33.21.58.15.26.03.35.18.6.15.26.47,0,.62.26.15.26-.1.47.05.73.15.26.28.17.43.43.15.26-.04.48.08.67l1.32-.91c-.11-.19-.27-.05-.42-.31-.15-.26-.05-.33-.2-.59Z"/>
    <path d="M30.46,55.96c-.1-.17-.27.07-.43-.19-.15-.26-.03-.55-.18-.81-.15-.26-.24-.2-.39-.46-.15-.26.05-.4-.1-.66-.15-.26-.36-.21-.51-.47-.15-.26-.51.09-.66-.17-.15-.26.27-.59.12-.85-.15-.26-.31-.24-.46-.5-.15-.26.21-.37.06-.63-.15-.26-.44-.07-.6-.33-.15-.26-.12-.28-.27-.55-.15-.26.06-.42-.1-.68-.15-.26-.49-.08-.64-.34-.15-.26,0-.7-.02-.71l-1.32.91s.33.24.48.5c.15.26-.02.37.14.63.15.26.33.14.49.39.15.26-.07.4.08.66.15.26.49-.08.64.18.15.26.07.43.22.69.15.26.03.3.18.55.15.26.33.18.48.44.15.26-.13.45.02.71.15.26.44.06.59.32.15.26.05.32.2.58.15.26.02.34.17.6.15.26.48.01.63.27.15.26-.12.44.09.81.1.18.19.23.28.27.04.02.08.05.13.08.02.02.05.04.07.06.02,0,0,.07.06,0l.06.03c.33.12.35.39.68.43l.32-1.58c-.11,0-.16.2-.36.18-.11,0-.1-.09-.1-.15,0-.07,0-.12-.05-.2Z"/>
    <path d="M39.39,56.33c-.3,0-.24.27-.54.27-.3,0-.48-.25-.78-.25-.3,0-.3.11-.6.11-.3,0-.31-.25-.61-.25-.3,0-.37.21-.67.2-.3,0-.21.49-.51.49-.3,0-.34-.54-.64-.54-.3,0-.37.14-.67.14-.3,0-.19-.37-.49-.38-.3,0-.31.34-.61.34-.3,0-.3-.05-.6-.05-.3,0-.31-.27-.61-.27-.3,0-.35.38-.65.37-.14,0-.32-.1-.37-.19-.06-.09-.09-.18-.09-.18l-.32,1.58s.17-.03.36-.06c.16-.03.31-.07.47-.06.3,0,.3.21.6.22.3,0,.31-.21.61-.21.3,0,.29.27.59.28.3,0,.22-.46.52-.45.3,0,.39.17.69.17.3,0,.26.13.56.13.3,0,.34-.19.64-.19.3,0,.3.34.6.35.3,0,.3-.35.6-.35.3,0,.3.12.6.12.3,0,.3.15.6.15.3,0,.27-.41.57-.4.3,0,.33.33.63.33.3,0,.3-.15.6-.15.3,0,.37.27.6.27v-1.6c-.22,0-.2.21-.5.21-.3,0-.3-.12-.6-.12Z"/>
    <path d="M49.05,56.25c-.3,0-.23.28-.53.29-.3,0-.48-.24-.78-.23-.3,0-.3.11-.6.12-.3,0-.31-.24-.61-.24-.3,0-.37.21-.67.22-.3,0-.2.49-.5.49-.3,0-.35-.53-.65-.53-.3,0-.37.15-.67.15-.3,0-.19-.37-.5-.37-.3,0-.3.35-.6.35-.3,0-.3-.04-.6-.04-.3,0-.32-.26-.62-.26-.3,0-.34.39-.64.39-.3,0-.58-.34-.6-.34v1.6s.39-.17.69-.17c.3,0,.3.2.6.2.3,0,.3-.22.6-.22.3,0,.3.26.6.26.3,0,.21-.46.51-.46.3,0,.4.16.7.16.3,0,.27.12.56.12.3,0,.33-.2.63-.2.3,0,.31.34.61.34.3,0,.29-.35.59-.36.3,0,.3.11.6.11.3,0,.3.15.6.14.3,0,.26-.41.56-.42.3,0,.34.32.64.31.3,0,.3-.17.6-.18.34-.03.55.27.86.18l-.58-1.53c-.11,0-.04.21-.24.22-.27.01-.29-.11-.58-.1Z"/>
    <path d="M54.05,49.4c-.15.26.12.34-.04.6-.15.26-.45.29-.6.55-.15.26-.06.32-.21.58-.15.26-.37.14-.52.4-.15.26,0,.43-.16.69-.15.26.32.43.17.69-.15.26-.63.02-.78.28-.15.26-.06.4-.21.66-.15.26-.42-.02-.57.24-.15.26.15.44,0,.7-.15.26-.19.24-.34.5-.15.26-.38.14-.53.4-.08.13.1.28.11.46,0,.05,0,.11-.02.15-.03.05-.07.07-.11.08-.06,0-.13-.05-.18-.09-.11-.07-.18-.16-.18-.16l.58,1.53s.15-.07.28-.18l.11-.08.03-.02s-.03-.05.04.05h0s0-.01,0-.01v-.02s.05-.07.05-.07c.05-.09.11-.18.17-.26.03-.03.05-.06.08-.09.16-.21.34-.21.5-.48.15-.26-.04-.37.11-.63.15-.26.38-.12.53-.38.15-.26-.29-.42-.14-.68.15-.26.34-.26.49-.52.15-.26.24-.17.39-.43.15-.26,0-.39.15-.65.15-.26.45-.09.6-.35.15-.26-.15-.43,0-.69.15-.26.25-.2.4-.46.15-.26.28-.18.43-.44.15-.26-.21-.44-.06-.7.15-.26.45-.12.6-.38.15-.26.02-.34.17-.6.15-.26.42-.19.53-.38l-1.38-.81c-.11.19.08.28-.07.54-.15.26-.26.2-.41.46Z"/>
    <path d="M58.91,41.03c-.15.26.12.34-.04.6-.15.26-.45.29-.61.55-.15.26-.06.31-.21.57-.15.26-.37.14-.52.4-.15.26,0,.43-.16.69-.15.26.32.43.17.69-.15.26-.63.03-.79.29-.15.26-.06.4-.21.66-.15.26-.42-.02-.57.24-.15.26.15.44,0,.7-.15.26-.19.24-.34.5-.15.26-.38.14-.53.4-.15.26.16.49.01.75-.15.26-.59.33-.6.34l1.38.81s.05-.42.2-.68c.15-.26.32-.16.47-.42.15-.26-.04-.37.11-.63.15-.26.38-.12.53-.38.15-.26-.29-.41-.14-.67.15-.26.34-.26.49-.52.15-.26.24-.17.39-.43.15-.26,0-.39.15-.65.15-.26.45-.09.6-.35.15-.26-.15-.43,0-.69.15-.26.25-.2.4-.46.15-.26.28-.18.43-.44.15-.26-.21-.44-.06-.7.15-.26.45-.12.6-.38.15-.26.02-.34.17-.6.15-.26.42-.19.54-.38l-1.38-.81c-.11.19.08.28-.07.54-.15.26-.26.2-.41.46Z"/>
    <path d="M55.37,32.36c.14.25.35.06.49.31.14.25.01.52.16.77.14.25.24.19.38.44.14.25-.07.38.08.63.14.25.36.2.5.45.14.25.52-.07.67.18.14.25-.3.55-.16.8.14.25.31.23.45.48.14.25-.23.34-.09.59.14.25.45.08.59.33.14.25.11.27.25.52.14.25-.08.39.07.64.14.25.5.09.64.34.13.23.01.69.02.7l1.33-.88s-.3-.17-.45-.44c-.14-.25.03-.35-.11-.59-.14-.25-.34-.14-.48-.39-.14-.25.09-.38-.05-.62-.14-.25-.5.06-.64-.19-.14-.25-.05-.41-.19-.65-.14-.25-.02-.28-.16-.53-.14-.25-.33-.18-.47-.43-.14-.25.15-.42,0-.67-.14-.25-.44-.07-.59-.32-.14-.25-.04-.31-.19-.55-.14-.25-.01-.32-.16-.57-.14-.25-.48-.02-.62-.27-.14-.25.12-.44-.02-.68-.14-.25-.28-.17-.42-.42-.14-.25.05-.44-.05-.63l-1.38.8c.11.19.28.06.42.31.14.25.04.31.18.56Z"/>
    <path d="M50.73,24.37c.14.25.35.06.49.31.14.25.01.52.16.77.14.25.24.19.38.44.14.25-.06.38.08.63.14.25.36.2.5.45.14.25.52-.07.67.17.14.25-.3.55-.15.8.14.25.31.23.45.48.14.25-.23.35-.08.59.14.25.45.08.59.33.14.25.11.27.25.52.14.25-.07.39.07.64.14.25.5.09.64.34.14.25-.02.65-.01.67l1.38-.8s-.33-.24-.47-.48c-.14-.25.03-.35-.11-.59-.14-.25-.34-.14-.48-.39-.14-.25.09-.38-.05-.62-.14-.25-.5.06-.64-.19-.14-.25-.05-.41-.19-.65-.14-.25-.02-.28-.16-.53-.14-.25-.33-.18-.47-.43-.14-.25.15-.42,0-.67-.14-.25-.44-.07-.59-.31-.14-.25-.04-.31-.19-.55-.14-.25-.01-.32-.16-.57-.14-.25-.48-.02-.63-.27-.14-.25.12-.44-.02-.68-.14-.25-.28-.17-.42-.42-.14-.25.05-.44-.05-.63l-1.38.8c.11.19.28.06.42.31.14.25.04.31.18.56Z"/>
    <g>
      <path d="M20.07,40.88v-.03s-.03-.03-.03-.03l-.04-.05-.02-.03-.02-.03v-.03s-.02-.03-.02-.03v-.02s0-.02,0-.02v-.04s.06-.08.06-.08l.05-.08.02-.04v-.02s0-.02,0-.02v-.02s0-.02,0-.02v-.02s-.01-.02-.01-.02l-.02-.03-.02-.03-.02-.03-.02-.03v-.02s0-.02,0-.02v-.02s0-.02,0-.02v-.04s.03-.03.03-.03l.03-.07.04-.07.02-.04v-.04s.03-.04.03-.04v-.02s0-.02,0-.02v-.04s.02-.04.02-.04l.03-.08v-.02s0-.02,0-.02v-.02s0-.02,0-.02v-.02s-.02-.02-.02-.02l-.02-.04-.06-.07-.06-.07-.02-.04v-.02s-.01-.02-.01-.02v-.08s0-.08,0-.08c0-.05,0-.11.01-.15v-.02s0-.01,0-.01h0s0-.02,0-.02l.02-.02h.02s.03-.03.03-.03h.02s.01-.02.01-.02h0s0-.02,0-.02c0,0,0,0,0-.01v-.02s0-.02,0-.02v-.02s-.01-.02-.01-.02c-.01-.03-.03-.06-.04-.09l-.02-.05-.02-.05v-.02s0-.02,0-.02v-.02s0-.02,0-.02l.68.41.34.21.34.21s0,.01,0,.01h0s-.02.02-.02.02h-.01s0,.02,0,.02h0s0,.02,0,.02h0s0,.01,0,.01h-.01s-.05.02-.05.02h-.03s0,.02-.01.02c0,0,0,0-.01.01h0s0,.03,0,.03v.02s0,.02,0,.02c0,.03,0,.08,0,.14,0,.03,0,.05,0,.08v.02s0,0,0,0h0s0,0,0,0h0s-.04.04-.04.04h0s-.02.03-.02.03v.03s-.02.02-.02.02v.02s0,.02,0,.02v.02s0,.02,0,.02v.03s.04.05.04.05v.02s.01.01.01.01h0s0,.02,0,.02h0s0,.02,0,.02h0s.02.01.02.01h.03s.05.02.05.02h.01s0,.01,0,.01h0s0,.02,0,.02v.02s.03.02.03.02c.01.02.02.03.03.05l-.32.24-.32.24-.64.47h0s0-.02,0-.02v-.03s0-.07,0-.07v-.08s0-.04,0-.04v-.03Z"/>
      <path class="st0" d="M22.03,39.66c.06-.01.05-.01.08-.02h0s0,0,0,0h0s0,0,0,0h-.01s-.02-.02-.02-.02l-.04-.03-.09-.05-.17-.1-.34-.21-.68-.41-1.37-.83-.54.93-.56.92.64.86.54.93,1.29-.95.64-.47.32-.24.16-.12.08-.06.04-.03h.02s.01-.02.01-.02h0s0,0,0,0h0s0,0,0,0c0-.04,0-.04,0-.07Z"/>
    </g>
    <g>
      <path d="M60.76,38.85v.02s.02.02.02.02l.03.04.02.02v.02s.03.03.03.03h0s0,.03,0,.03c0,0,0,.01,0,.01v.02s-.02.03-.02.03l-.02.04-.03.04-.06.07-.02.03v.02s-.01.02-.01.02c0,0,0,0,0,.01h0s0,.03,0,.03h0s.02.04.02.04l.02.03.02.03v.03s.02.01.02.01c0,0,0,.02,0,.02v.02s0,.02,0,.02l-.02.03-.02.03-.05.05s-.07.06-.1.1l-.03.03s0,0,0,.02c0,0,0,0,0,.01v.03s-.01.03-.01.03v.03s-.02.03-.02.03h0s0,.03,0,.03c0,0,0,.01,0,.01h0s.02.05.02.05l.03.03.07.06.06.06.02.03h0s0,.03,0,.03v.06s.02.06.02.06c0,.04,0,.08,0,.12h0s0,.02,0,.02h0s0,.01,0,.01h-.02s-.02.02-.02.02h-.02s-.02.02-.02.02h0s0,.01,0,.01h0s0,.02,0,.02h0s0,.02,0,.03l.02.03s.03.05.05.08l.03.04.02.04v.02s.01.02.01.02h0s0,.02,0,.02h0s-.69-.4-.69-.4l-.35-.2-.35-.2h0s0-.01,0-.01h.01s.01-.02.01-.02h0s0-.01,0-.01h0s0-.01,0-.01h0s0,0,0,0h.05s.02-.02.02-.02h.01s0-.01,0-.01h0s0-.02,0-.02c0,0,0,0,0-.02v-.02s0-.03,0-.05v-.06s-.01-.06-.01-.06c0,0,0-.01,0-.01h0s0,0,0,0h0s0,0,0,0h0c.02.1.02.1.03.15h0s0,0,0,0h0s.02-.03.02-.03l.03-.04v-.02s.01-.01.01-.01h0s0-.02,0-.02h0s0-.02,0-.02l-.02-.03v-.02s0,0,0,0h0s0-.02,0-.02h0s0,0,0,0h0s0,0,0,0h-.02s-.03,0-.03,0h-.05s-.01,0-.01,0h0s0,0,0,0h0s0-.01,0-.01h0s-.01-.02-.01-.02l-.03-.04.33-.22.33-.22.67-.44h0s0,.02,0,.02v.02s0,.05,0,.05v.06s0,.03,0,.03v.02Z"/>
      <path class="st0" d="M58.74,39.63s-.02,0-.04,0h0s0,0,0,0h0s0,0,0,0h.01s.02.02.02.02l.04.03.09.05.17.1.35.2.69.4,1.38.81.79-1.35-.29-.73-.07-.17-.08-.16-.15-.27-.24-.37-1.33.88-.67.44-.33.22-.17.11-.08.06-.04.03h-.02s-.01.02-.01.02h0s0,0,0,0h0s0,0,0,0c0-.22,0-.22,0-.34Z"/>
    </g>
    <g>
      <path d="M49.64,21.62h.03s.03,0,.03,0h.06s.03,0,.03,0h.03s.03,0,.03,0h.01s.01.01.01.01h.01s.01.02.01.02l.02.03.03.08.03.09.02.04h.01s.01.03.01.03h.01s.01.01.01.01h.01s0,0,.01,0h.03s.03,0,.03,0h.03s.03,0,.03,0c0,0,.01,0,.01,0,0,0,.01,0,.01,0h.01s.01.02.01.02l.02.03.02.03.03.06.03.07.03.07.02.04h.02s.01.02.01.02l.03.02.02.03.02.03.02.02h.01s.01.02.01.02h.02s.02.01.02.01h.02s.02,0,.02,0h.04s.09-.03.09-.03l.09-.02h.04s.02,0,.02,0h.02s.06.03.06.03l.06.03s.08.05.11.07h.01s0,.02,0,.02h0s0,.02,0,.02v.02s0,.03,0,.03v.03s0,.03,0,.03h0s0,.02,0,.02h0s0,.02,0,.02h.01s.02.01.02.01h.04s.06,0,.1,0h.05s.05,0,.05,0h.02s.02.01.02.01h.01s0,.02,0,.02l-.69.4-.35.2-.35.2h0s0-.02,0-.02v-.02s0-.02,0-.02h0s0-.01,0-.01h0s0-.02,0-.02h0s0-.02,0-.02v-.05s.02-.03.02-.03h0s0-.03,0-.03h0s0-.02-.01-.02h-.01s-.02-.02-.02-.02c-.01,0-.03-.01-.05-.02l-.06-.03-.06-.03h-.02s0,0,0,0h0s0,0,0,0v-.03s-.02-.02-.02-.02v-.02s-.03-.02-.03-.02h-.01s-.01-.02-.01-.02h-.01s-.03-.01-.03-.01h-.05s-.02,0-.02,0h0s0,0,0,0h0s0,0,0,0h0s0,0,0,0l-.02.02-.02.02-.04.04h0s0,.01,0,.01h0s0,0,0,0h0s-.01,0-.01,0h-.02s-.04,0-.05,0v-1.6h.01s.01,0,.01,0h.02s.05.04.05.04l.05.04h.03s.03.03.03.03Z"/>
      <polygon class="st0" points="49.44 23.91 52.21 22.3 51.28 20.71 49.44 20.71 49.44 23.91"/>
    </g>
  </g>
  <g>
    <path d="M74.85,40.46c.14-.07.27-.18.35-.3.08-.12.11-.26.11-.4,0-.14-.05-.28-.13-.39-.08-.12-.18-.25-.32-.32-.14-.07-.32-.09-.49-.09v1.6c.17,0,.34-.03.48-.1Z"/>
    <path d="M64.33,40.47c.35,0,.28-.27.63-.27.35,0,.56.25.91.25.35,0,.35-.11.7-.11.35,0,.36.25.71.25.35,0,.44-.21.79-.21.35,0,.24-.49.6-.49.35,0,.4.53.75.53.35,0,.44-.15.79-.15.35,0,.23.37.58.37.35,0,.36-.35.71-.35.35,0,.35.04.7.04.35,0,.37.26.72.26.35,0,.4-.39.75-.38.35,0,.68.34.7.34v-1.6s-.45.17-.8.16c-.35,0-.35-.2-.7-.2-.35,0-.35.22-.7.22-.35,0-.34-.27-.7-.27-.35,0-.25.46-.6.46-.35,0-.46-.16-.81-.16-.35,0-.31-.12-.66-.12-.35,0-.39.19-.74.19-.35,0-.36-.34-.71-.34-.35,0-.34.35-.69.35-.35,0-.35-.12-.7-.12-.35,0-.35-.15-.7-.15-.35,0-.32.41-.67.41-.35,0-.39-.33-.74-.33-.35,0-.35.15-.7.15-.35,0-.44-.27-.7-.27v1.6c.26,0,.23-.21.58-.21.35,0,.35.12.7.12Z"/>
    <path d="M62.22,40.16c.08.12.22.21.36.28.14.07.29.12.46.12h0v-1.6s0,0,0,0c-.17,0-.34.03-.48.1-.14.07-.26.18-.34.3-.08.12-.13.26-.13.4,0,.14.04.29.12.4Z"/>
  </g>
  <g>
    <path d="M58.22,10.23c.02-.16-.01-.33-.07-.46-.06-.13-.16-.23-.29-.31-.12-.07-.27-.09-.41-.08-.15.01-.31.03-.44.13-.13.09-.24.24-.33.39l1.38.82c.09-.15.15-.32.17-.48Z"/>
    <path d="M52.72,19.63c.18-.32-.09-.38.09-.7.18-.31.51-.37.69-.69.18-.31.09-.37.28-.68.18-.31.4-.2.58-.51.18-.31.05-.49.23-.81.18-.31-.29-.47-.11-.78.18-.31.67-.09.85-.4.18-.31.1-.47.28-.78.18-.31.44-.01.62-.33.18-.31-.11-.5.07-.81.18-.31.22-.29.41-.61.18-.31.42-.2.6-.51.18-.31-.12-.55.06-.87.18-.31.65-.43.66-.45l-1.38-.82s-.1.49-.28.8c-.18.31-.35.21-.54.52-.18.31,0,.43-.18.74-.18.31-.41.17-.59.49-.18.31.27.45.08.77-.18.31-.38.33-.56.64-.18.31-.27.21-.45.53-.18.31-.04.45-.22.76-.18.31-.48.15-.67.46-.18.31.12.48-.06.8-.18.31-.28.25-.47.57-.18.31-.31.24-.5.55-.18.31.18.49,0,.8-.18.31-.48.18-.67.49-.18.31-.05.39-.23.71-.18.31-.46.25-.6.49l1.38.81c.14-.23-.06-.31.12-.63.18-.32.29-.25.47-.56Z"/>
    <path d="M51.35,21.36c.15-.01.29-.09.43-.18.13-.09.26-.2.34-.35h0s-1.38-.81-1.38-.81h0c-.09.15-.15.32-.17.48-.01.16.02.32.08.46.06.13.16.24.28.32.12.07.27.11.41.09Z"/>
  </g>
  <g>
    <path d="M19.64,40.46c.16-.07.3-.18.39-.3.09-.12.13-.26.13-.4s-.06-.28-.15-.39c-.09-.12-.2-.25-.36-.32-.16-.07-.35-.09-.55-.09v1.6c.19,0,.38-.03.54-.1Z"/>
    <path d="M7.87,40.48c.39,0,.31-.27.7-.27s.62.25,1.02.25.39-.11.79-.11.4.25.8.25.49-.21.88-.21.27-.49.67-.49.45.53.84.53.49-.15.88-.15.25.37.65.37.4-.35.79-.35.39.04.79.04.41.26.81.26.45-.39.84-.39.76.34.78.34v-1.6s-.51.17-.9.17-.39-.2-.78-.2-.39.22-.79.22-.39-.27-.78-.27-.27.46-.67.46-.52-.16-.91-.16-.35-.12-.74-.12-.44.19-.83.19-.4-.34-.79-.34-.38.35-.78.35-.39-.12-.78-.12-.39-.15-.78-.15-.35.41-.75.41-.43-.33-.82-.33-.39.16-.78.16-.49-.27-.78-.27v1.6c.29,0,.26-.21.65-.21s.39.12.78.12Z"/>
    <path d="M5.52,40.17c.09.12.25.21.4.28.15.07.33.12.51.12h0v-1.6h0c-.19,0-.38.03-.53.1-.16.07-.29.18-.38.3-.09.12-.14.26-.14.4s.05.29.14.4Z"/>
  </g>
  <g>
    <path d="M30.63,57.96c.02-.17,0-.35-.06-.49-.06-.14-.16-.24-.29-.31-.12-.07-.27-.09-.41-.07-.15.02-.32.05-.46.15-.14.1-.26.26-.35.43l1.39.8c.1-.17.16-.35.18-.52Z"/>
    <path d="M24.75,68.2c.2-.34-.08-.4.11-.74.19-.34.53-.42.72-.76.2-.34.1-.4.3-.74.2-.34.42-.23.61-.57.2-.34.06-.53.26-.87.2-.34-.29-.48-.09-.82.2-.34.69-.12.88-.47.2-.34.12-.5.31-.84.2-.34.45-.04.65-.38.2-.34-.1-.52.09-.86.2-.34.23-.32.43-.66.2-.34.43-.23.63-.57.2-.34-.11-.58.09-.92.2-.34.68-.49.69-.51l-1.39-.79s-.11.52-.31.86c-.2.34-.37.24-.57.58-.2.34,0,.45-.2.79-.2.34-.42.2-.62.54-.2.34.26.47.07.81-.2.34-.4.37-.59.71-.2.34-.28.24-.48.58-.2.34-.05.48-.25.82-.2.34-.5.18-.69.52-.2.34.11.51-.08.85-.2.34-.3.28-.49.62-.2.34-.33.27-.52.61-.2.34.18.51-.02.85-.2.34-.5.22-.69.56-.2.34-.06.42-.26.76-.2.34-.48.3-.63.56l1.4.77c.15-.25-.06-.32.14-.67.2-.34.3-.28.5-.62Z"/>
    <path d="M23.31,70.09c.15-.02.3-.12.44-.22.13-.1.27-.22.36-.39h0s-1.4-.77-1.4-.77h0c-.09.17-.17.35-.18.51-.02.17.02.34.08.48.06.13.16.25.28.31.13.07.28.09.42.07Z"/>
  </g>
  <g>
    <path d="M51.69,57.98c-.14-.1-.29-.16-.44-.17-.14-.02-.28.03-.41.1-.12.07-.21.19-.27.32-.06.14-.12.29-.1.45.01.16.09.34.18.49l1.39-.8c-.09-.16-.21-.3-.34-.39Z"/>
    <path d="M57.26,67.63c-.19-.33-.38-.12-.57-.45-.19-.32-.08-.64-.26-.96-.19-.32-.28-.27-.47-.59-.19-.32.02-.45-.16-.78-.19-.32-.41-.3-.6-.62-.19-.32-.55.02-.74-.3-.19-.32.25-.63.07-.95-.19-.32-.36-.33-.54-.65-.19-.32.2-.39.02-.71-.19-.32-.49-.15-.68-.48-.19-.32-.15-.34-.33-.67-.19-.32.03-.47-.16-.79-.19-.32-.55-.18-.73-.5-.19-.32-.06-.79-.07-.81l-1.39.8s.38.33.57.66c.19.32.01.42.2.74.19.32.38.21.56.54.19.32-.05.45.14.77.19.32.53,0,.71.32.18.32.11.5.29.82.18.32.06.34.24.66.19.32.37.26.56.58.19.32-.11.5.08.82.19.32.48.14.67.46.19.32.08.38.27.7.19.32.05.4.24.72.18.32.52.09.7.41.18.32-.08.51.1.83.18.32.32.25.5.57.18.32,0,.53.13.77l1.4-.77c-.14-.24-.31-.11-.49-.44-.19-.33-.08-.38-.26-.71Z"/>
    <path d="M58.09,69.72c.06-.13.07-.3.05-.46-.01-.16-.05-.33-.14-.48h0s-1.4.77-1.4.77h0c.09.15.2.3.33.39.13.1.3.15.44.17.14.02.29,0,.42-.08.13-.07.23-.18.29-.3Z"/>
  </g>
</svg>