<svg xmlns="http://www.w3.org/2000/svg" id="_レイヤー_2" data-name="レイヤー_2" viewBox="0 0 80 90"><defs><style>.st0{fill:#ceb372}.st1{fill:none;stroke:#000;stroke-linecap:round;stroke-linejoin:round}.st3{fill:#fff}</style></defs><path d="M52.71 84.97c-.43.18-.91.26-1.42.26H28c-.87 0-1.62-.28-2.25-.91-3.17-3.18-6.32-6.37-9.54-9.51-.67-.65-.68-1.44-.89-2.2-.02-.08 0-.16 0-.24 0-18.16 0-36.32.01-54.49 0-.95.23-1.82 1-2.57 3.47-3.37 6.85-6.83 10.28-10.24h23.17c1.36 0 2.95-.14 4 .91 3.13 3.14 6.25 6.29 9.41 9.4.75.74 1.01 1.59 1.01 2.56.01 13.31 0 26.62 0 39.92V72.3c0 .97-.26 1.82-1.01 2.56-3.14 3.08-6.24 6.21-9.35 9.33-.34.35-.72.6-1.13.77Z" class="st3"/><path d="m15.22 17.06.37 56.79 11.1 11.1 25.41.34-3.54-8.4-17.74-.36-7.16-6.72-.64-49.1-7.06-4.14" class="st0"/><path d="m23.21 69.22-7.31 4.51 10.6 11.45 4.45-8.29z" class="st3"/><path d="m52.53 4.38-4.13 9.4 8.41 7.23 6.56-4.37z" class="st0"/><path d="M52.21 6.35c-1.17 2.38-2.4 4.73-3.58 7.1M30.49 76.37c-2.31-2.3-4.6-4.62-6.93-6.9-.28-.28-.35-.52-.35-.86V21.35c0-.12 0-.21.12-.31 2.43-2.28 7.36-7.37 7.53-7.52h17.56l7.61 6.86M57.32 69.64c1.78 1.13 2.93 1.8 4.72 2.9.6.37 1.18.78 1.88.97M56.26 21.82c.01 13.98 0 27.95 0 41.93v4.85l-.18.67-7.46 7.46c-.01.01 0 .04 0 .06M63.91 16.73c-1.04.36-1.91 1.03-2.85 1.58-1.42.84-2.84 1.69-4.26 2.52M47.84 76.72c-3.23.02-6.47 0-9.7 0h-6.61M52.63 84.92c-.79-2.02-1.93-3.87-2.85-5.82-.28-.6-.61-1.17-.89-1.77M16.22 16.98c1.6.93 1.76 1.1 2.93 1.76 1.35.76 2.67 1.57 4.01 2.36M30.85 13.51l-3.44-7.68M26.85 84.86c1.25-2.74 2.64-4.84 3.88-7.57M15.63 73.52c.32-.11.62-.24.91-.42 2.2-1.32 4.41-2.63 6.61-3.95" class="st1"/><path d="M52.18 85.13c.62-.14 1.17-.45 1.66-.94 3.11-3.12 6.21-6.25 9.35-9.33.75-.74 1.01-1.59 1.01-2.56.01-4.81 0-9.63 0-14.44V17.94c0-.97-.26-1.82-1.01-2.56-3.16-3.1-6.28-6.26-9.41-9.4-1.05-1.05-2.64-.91-4-.91h-21.1c-.99 0-1.52.12-1.52.12-.41.05-1.15.47-1.41.73-3.13 3.14-6.24 6.3-9.42 9.39-.77.75-1 1.61-1 2.57-.02 18.16-.01 36.32-.01 54.49 0 .08-.02.17 0 .24.21.77.22 1.55.89 2.2 3.22 3.13 6.37 6.33 9.54 9.51.62.62 1.38.91 2.25.91h23.29c.31 0 .61-.03.89-.1" style="fill:none;stroke:#000;stroke-linecap:round;stroke-linejoin:round;stroke-width:1.5px"/></svg>