<svg xmlns="http://www.w3.org/2000/svg" id="_レイヤー_2" data-name="レイヤー_2" viewBox="0 0 80 90"><defs><style>.st2{fill:none;stroke:#000;stroke-linecap:round;stroke-linejoin:round}</style></defs><path d="M39.61 84.67c-.87.02-1.43-.62-2.05-1.12-3.3-2.64-6.59-5.28-9.87-7.94-3.06-2.47-6.14-4.92-9.17-7.42-1-.83-3.68-3.05-3.71-3.67-.03-.55-.19-1.13-.19-1.71V26.56c0-1.22.32-2.21 1.39-3.01 2.99-2.24 5.83-4.65 8.74-6.99 2.79-2.24 5.57-4.48 8.35-6.72 1.75-1.4 3.51-2.8 5.24-4.22.83-.68 1.74-.67 2.5-.05C43 7.36 45.2 9.1 47.38 10.86c3.29 2.66 17.25 14.5 17.25 14.5s.01 7.35.01 10.53c0 9.11-.01 28.56-.01 28.56s-8.62 7.53-12.26 10.48c-2.9 2.35-10.55 8.49-11.46 9.23-.36.29-.76.47-1.24.49" style="fill:#fff"/><path d="m22.75 57.55 16.4 12.59.56 14.8-26.09-20.15z" style="fill:#ceb372"/><path d="m55.17 57.78 9.22 6.97.2-38.69L39.94 5.81l-.38 13.93L55.17 32.2z" style="fill:#ceb372;stroke:#ceb372;stroke-miterlimit:10;stroke-width:.25px"/><path d="M39.63 82.7V70.81c0-.4-.11-.66-.43-.92-3.82-3.07-7.63-6.16-11.47-9.22-1.13-.9-2.27-1.79-3.36-2.74-.36-.31-.66-.27-.98 0-2.36 2-4.82 3.87-7.2 5.85" class="st2"/><path d="M39.61 84.67c-.87.02-1.43-.62-2.05-1.12-3.3-2.64-6.59-5.28-9.87-7.94-3.06-2.47-6.14-4.92-9.17-7.42-1-.83-2.04-1.62-3.05-2.45-.39-.32-.64-.61-.67-1.22-.03-.55-.19-1.13-.19-1.71V26.56c0-1.22.32-2.21 1.39-3.01 2.99-2.24 5.83-4.65 8.74-6.99 2.79-2.24 5.57-4.48 8.35-6.72 1.75-1.4 3.51-2.8 5.24-4.22.83-.68 1.74-.67 2.5-.05 2.16 1.79 4.36 3.53 6.54 5.29 3.29 2.66 17.25 14.5 17.25 14.5s.01 7.35.01 10.53c0 9.11-.01 28.56-.01 28.56S56 71.98 52.36 74.93c-2.9 2.35-10.55 8.49-11.46 9.23-.36.29-.76.47-1.24.49" style="fill:none;stroke:#000;stroke-linecap:round;stroke-linejoin:round;stroke-width:1.5px"/><path d="M62.15 26.76c-2.17 1.73-4.35 3.45-6.47 5.24-.25.21-.48.21-.73 0-2.56-2.17-5.21-4.23-7.82-6.34-2.16-1.74-4.29-3.53-6.52-5.2-.34-.25-.56-.75-1.04-.71-.43.04-.71.46-1.03.72-3.09 2.48-6.17 4.98-9.27 7.45-1.74 1.39-3.46 2.8-5.19 4.2-.12.1-.19.21-.18.37v25.14M55.31 32.24v25.38M64.27 64.52c-.96-.31-1.62-1.06-2.37-1.66-1.98-1.6-3.99-3.15-5.93-4.81-.53-.45-.8-.46-1.33 0-1.29 1.11-2.64 2.16-3.97 3.23-2.21 1.78-4.41 3.56-6.63 5.33a160 160 0 0 0-4.03 3.28c-.12.1-.26.14-.37.24M39.63 5.21v14.46M23.89 32.18c-1.2-.82-2.28-1.79-3.41-2.69-1.22-.97-2.43-1.95-3.64-2.93" class="st2"/></svg>