<?xml version="1.0" encoding="UTF-8"?>
<svg id="_レイヤー_1" xmlns="http://www.w3.org/2000/svg" version="1.1" viewBox="0 0 100 100">
  <!-- Generator: Adobe Illustrator 30.0.0, SVG Export Plug-In . SVG Version: 2.1.1 Build 123)  -->
  <defs>
    <style>
      .st0 {
        fill: #ceb372;
      }

      .st1 {
        fill: #1c1917;
      }

      .st2 {
        fill: #fff;
      }
    </style>
  </defs>
  <path class="st2" d="M54.18,20.25c-4.25-.14-10.69,1.04-10.69,1.04-2.17.37-4.62,1.45-6.17,2.22-.96.47-1.59,1.42-1.66,2.48l-.37,5.54c-.02.71.44,1.78.89,2.34l.62.78.21,2.77s-7.36,2.3-8.82,3.6c-.58.52-1.23,1.08-1.79,1.55-.96.81-1.52,1.99-1.56,3.25l-.84,27.82c-.03,1.04.44,2.04,1.27,2.67,3.13,2.34,11.87,7.63,26.83,7.46,12.9-.14,20.37-1.97,23.87-3.16,1.5-.51,3.43-3.87,3.54-5.44l1.22-29.52c.08-1.18-.37-2.35-1.26-3.13-3.67-3.21-11.44-4.51-11.44-4.51l-.03-2.77,1.22-1.06c.73-.63,1.16-1.55,1.17-2.52l.06-4.53c.02-1.28-.59-2.5-1.65-3.21-3.81-2.54-11.02-3.55-14.62-3.67Z"/>
  <path class="st0" d="M78.02,46.46c-.02,4.22-1.07,27.54-1.07,27.54-.44,1.76-2.11,3.33-3.61,3.84-3.51,1.19-7.91,2.37-20.81,2.51-14.96.16-21.12-3.63-24.25-5.97-.84-.63-1.31-1.62-1.27-2.67l.64-25.66c.19-1.34,2.49-4.1,11.81-6.62,1.58.81,4.41,1.89,13.01,1.95,7.69.05,13.76-1.33,13.76-1.33,0,0,11.81,2.19,11.78,6.41Z"/>
  <path class="st2" d="M31.25,52.68l-.14,18.29s9.5,3.73,21.73,4.24c10.54.44,20.04-2.33,20.04-2.33l.64-18.8s-10.17,1.93-20.31,1.93c-7.75,0-21.97-3.33-21.97-3.33Z"/>
  <path class="st1" d="M67.85,38c.04-.91-.45-2.27-.29-3.03,0,0,.11-.12.11-.12.35-.46.99-1.1,1.33-1.55.33-.44.55-.96.59-1.5l.06-4.24c.08-1.22-.29-2.36-1.33-3.04-4.75-2.82-10.62-3.69-16.11-3.78-1.41-.03-2.84.02-4.26.11-.11,0-.21-.08-.22-.19,0-.11.07-.2.17-.22,2.83-.55,5.75-.89,8.63-.58,4.33.43,8.8,1.1,12.64,3.38,1.46.85,2.26,2.71,2.1,4.35,0,0-.06,4.33-.06,4.33-.07,1.29-.81,2.5-1.94,3.14,0,0-.92.57-.92.57l.18-.39c-.14.92-.26,1.85-.3,2.77,0,.22-.35.23-.36,0h0Z"/>
  <path class="st1" d="M37.42,23.73c-.83.42-1.44,1.29-1.48,2.22l-.12,3.04c0,.82-.17,2.22-.05,2.94.21.95.78,1.63,1.42,2.41.07.08.1.18.11.27,0,0,.24,2.76.24,2.76.02.24-.12.46-.34.54-2.84,1.07-5.98,1.99-8.5,3.66-.66.63-1.66,1.41-2.23,2.08-.63.77-.81,1.79-.77,2.76-.05,6.94-.23,13.9-.35,20.84,0,0-.09,4.63-.09,4.63.02.51-.08,1.61-.01,2.12.11.67.47,1.14,1.05,1.49,7.29,5,16.26,6.94,25.05,6.92,7.6-.06,15.24-.64,22.57-2.56.25-.09,1.34-.36,1.61-.47,1.05-.52,1.93-2.07,2.46-3.2.3-.7.37-1.01.4-1.85,0,0,.31-4.62.31-4.62.25-3.43,1.41-20.04,1.62-23.1.18-1.4.1-3.03-1.12-3.98-2.35-1.9-5.34-2.91-8.28-3.71-.35-.07-.19-.61.14-.52,3.42,1.05,10.02,2.71,10.07,7.08-.01.72-.07,4.98-.09,5.8,0,0-.23,18.54-.23,18.54-.06.97,0,5-.16,5.96-.27,1.35-.85,2.49-1.57,3.62-.67,1.07-1.85,2.35-3.29,2.67,0,0-1.14.36-1.14.36-7.58,2.16-15.51,2.64-23.31,2.69-9.02-.03-18.47-2.02-26.02-7.23-.35-.26-.67-.47-1.03-.78-1.19-1.02-1.64-2.63-1.46-4.13.02-.67.21-5,.24-5.78.27-6.17.47-12.34.79-18.51.02-.4.13-2.53.14-2.89.04-1.57.94-3.13,2.18-4.03.54-.45,1.28-1.09,1.84-1.5,2.79-1.64,5.82-2.37,8.86-3.33,0,0-.37.55-.37.54,0,0-.19-2.77-.19-2.77,0,0,.11.27.11.27-.67-.77-1.35-1.77-1.51-2.87-.11-1.09.15-2.11.2-3.15,0,0,.28-3.05.28-3.05.12-1.11.82-2.13,1.83-2.61.3-.12.5.28.22.44h0Z"/>
  <path class="st1" d="M49.12,24.71c23.21-1.43,20.49,5.49-.6,4.47-2.34-.15-4.72-.36-6.98-1.1-.44-.19-.93-.32-1.29-.85-.39-1.13,1.54-1.42,2.28-1.63.07-.02.14.03.15.1.01.07-.03.13-.09.15-.44.13-.88.29-1.29.48-.38.17-.84.52-.67.7.17.26.66.44,1.06.57,2.21.64,4.55.74,6.85.88,3.71.14,7.44.08,11.12-.35,1.67-.28,3.72-.37,5.09-1.37.06-.11.07-.05-.02-.19-1.26-.88-2.97-.97-4.47-1.23-3.68-.47-7.42-.51-11.14-.39-.15.01-.17-.23-.02-.24h0Z"/>
  <path class="st1" d="M45.76,36.02c6.71.74,13.5-.16,20.01-1.77.93-.24,1.3,1.18.37,1.43-6.72,1.25-13.66,1.74-20.42.6-.16-.02-.13-.28.04-.26h0Z"/>
</svg>