<?xml version="1.0" encoding="UTF-8"?>
<svg id="_レイヤー_1" xmlns="http://www.w3.org/2000/svg" version="1.1" viewBox="0 0 100 100">
  <!-- Generator: Adobe Illustrator 30.0.0, SVG Export Plug-In . SVG Version: 2.1.1 Build 123)  -->
  <defs>
    <style>
      .st0 {
        fill: #ceb372;
      }

      .st1 {
        fill: #1c1917;
      }

      .st2 {
        fill: #fff;
      }
    </style>
  </defs>
  <path class="st2" d="M54.18,20.25c-4.25-.14-10.69,1.04-10.69,1.04-2.17.37-4.62,1.45-6.17,2.22-.96.47-1.59,1.42-1.66,2.48l-.37,5.54c-.02.71.44,1.78.89,2.34l.62.78.21,2.77s-7.36,2.3-8.82,3.6c-.58.52-1.23,1.08-1.79,1.55-.96.81-1.52,1.99-1.56,3.25l-.84,27.82c-.03,1.04.44,2.04,1.27,2.67,3.13,2.34,11.87,7.63,26.83,7.46,12.9-.14,20.37-1.97,23.87-3.16,1.5-.51,3.43-3.87,3.54-5.44l1.22-29.52c.08-1.18-.37-2.35-1.26-3.13-3.67-3.21-11.44-4.51-11.44-4.51l-.03-2.77,1.22-1.06c.73-.63,1.16-1.55,1.17-2.52l.06-4.53c.02-1.28-.59-2.5-1.65-3.21-3.81-2.54-11.02-3.55-14.62-3.67Z"/>
  <path class="st0" d="M78.02,46.46c-.02,4.22-1.07,27.54-1.07,27.54-.44,1.76-2.11,3.33-3.61,3.84-3.51,1.19-7.91,2.37-20.81,2.51-14.96.16-21.12-3.63-24.25-5.97-.84-.63-1.31-1.62-1.27-2.67l.64-25.66c.19-1.34,2.49-4.1,11.81-6.62,1.58.81,4.41,1.89,13.01,1.95,7.69.05,13.76-1.33,13.76-1.33,0,0,11.81,2.19,11.78,6.41Z"/>
  <path class="st2" d="M31.25,52.68l-.14,18.29s9.5,3.73,21.73,4.24c10.54.44,20.04-2.33,20.04-2.33l.64-18.8s-10.17,1.93-20.31,1.93c-7.75,0-21.97-3.33-21.97-3.33Z"/>
  <path class="st1" d="M67.85,38c-.09-.92-.15-1.84-.21-2.77,0-.11.05-.21.13-.28.4-.43,1.11-1.01,1.46-1.47.37-.48.63-1.06.67-1.67,0,0,.06-4.26.06-4.26.12-1.35-.41-2.58-1.49-3.27-4.84-2.79-10.74-3.51-16.26-3.56-1.41-.03-2.84.02-4.26.11-.11,0-.21-.08-.22-.19,0-.11.07-.2.17-.22,5.69-1.28,11.59-.53,17.11,1.2,2.78.91,6.35,2.42,5.95,5.95,0,0-.06,4.31-.06,4.31-.06,1.23-.78,2.31-1.8,2.97,0,0-.85.65-.85.65l.13-.28c-.04.92-.08,1.85-.15,2.77-.01.21-.35.22-.36,0h0Z"/>
  <path class="st1" d="M37.41,23.7c-.84.44-1.42,1.32-1.46,2.24l-.12,3.04c0,.82-.16,2.22-.05,2.94.21.95.78,1.63,1.42,2.41.07.08.1.18.11.27,0,0,.24,2.76.24,2.76.02.25-.14.47-.37.54-3.12,1.18-6.67,1.91-9.23,4.12-.73.69-1.8,1.41-2.14,2.35-.3.62-.33,1.35-.34,2.02-.11,4.92-.53,20.66-.66,25.46,0,0-.03,1.16-.03,1.16-.09.92.06,1.94.82,2.55,1.1.85,2.46,1.68,3.76,2.38,6.71,3.57,14.38,5.03,21.97,5.02,7.64-.05,15.34-.59,22.73-2.56.29-.11,1.34-.37,1.63-.49,1.3-.62,2.15-2.24,2.76-3.54.3-.71.4-1.21.41-2.02,0,0,.24-4.62.24-4.62.2-3.44,1.08-20.06,1.25-23.12.17-1.51.06-2.99-1.18-3.98-2.35-1.92-5.37-2.91-8.28-3.72-.36-.07-.19-.62.14-.52,3.34,1.03,10.06,2.72,10.03,7.08-.02.72-.14,4.98-.16,5.8,0,0-.53,18.52-.53,18.52-.07.88-.08,5.03-.23,5.88-.26,1.26-.84,2.36-1.53,3.41-.66,1.01-1.69,2.14-3.01,2.43-1.86.59-3.79,1.07-5.69,1.44-12.24,2.03-25.21,2.88-37-1.64-2.95-1.15-5.72-2.57-8.33-4.57-.73-.63-1.2-1.54-1.32-2.48-.07-.7.02-1.73.03-2.44.23-5.58.63-21.07.98-26.69.23-1.76,1.59-2.99,2.88-4,2.73-2.32,6.41-3.03,9.71-4.22,0,0-.37.55-.37.54,0,0-.19-2.77-.19-2.77l.11.27c-.67-.77-1.35-1.77-1.51-2.87-.11-1.09.15-2.12.2-3.15,0,0,.28-3.05.28-3.05.12-1.11.85-2.12,1.84-2.58.26-.1.43.24.19.39h0Z"/>
  <path class="st1" d="M49.12,24.71c23.21-1.43,20.49,5.49-.6,4.47-2.34-.15-4.72-.36-6.98-1.1-.44-.19-.93-.32-1.29-.85-.39-1.13,1.54-1.42,2.28-1.63.07-.02.14.03.15.1.01.07-.03.13-.09.15-.44.13-.88.29-1.29.48-.38.17-.84.52-.67.7.17.26.66.44,1.06.57,2.21.64,4.55.74,6.85.88,3.71.14,7.44.08,11.12-.35,1.67-.28,3.72-.37,5.09-1.37.06-.11.07-.05-.02-.19-1.26-.88-2.97-.97-4.47-1.23-3.68-.47-7.42-.51-11.14-.39-.15.01-.17-.23-.02-.24h0Z"/>
  <path class="st1" d="M45.76,36.02c6.89.83,13.81-.18,20.51-1.83.63-.15.88.81.24.97-6.82,1.42-13.86,2.2-20.78,1.12-.17-.02-.14-.29.04-.26h0Z"/>
</svg>