<?xml version="1.0" encoding="UTF-8"?>
<svg id="_レイヤー_1" xmlns="http://www.w3.org/2000/svg" version="1.1" viewBox="0 0 100 100">
  <!-- Generator: Adobe Illustrator 30.0.0, SVG Export Plug-In . SVG Version: 2.1.1 Build 123)  -->
  <defs>
    <style>
      .st0 {
        fill: none;
      }

      .st1 {
        fill: #ceb372;
      }

      .st2 {
        fill: #1c1917;
      }

      .st3 {
        fill: #fff;
      }
    </style>
  </defs>
  <path class="st3" d="M52.09,18.89c-4.06-.08-10.2,1.12-10.2,1.12-2.07.38-4.4,1.44-5.86,2.19-.91.46-1.5,1.37-1.55,2.39l-.28,5.3c-.01.68.45,1.69.87,2.22l.6.74.24,2.64s-7,2.28-8.38,3.54c-.55.51-1.16,1.04-1.69,1.5-.91.79-1.43,1.92-1.45,3.12l-.47,26.57c-.02,1,.44,1.94,1.25,2.53,3.01,2.2,11.42,7.14,25.7,6.81,12.32-.29,19.42-2.13,22.75-3.3,1.42-.5,3.23-3.73,3.31-5.24l.82-28.19c.06-1.13-.38-2.24-1.24-2.97-3.54-3.02-10.98-4.17-10.98-4.17l-.06-2.64,1.16-1.02c.69-.61,1.09-1.5,1.09-2.42v-4.32c0-1.22-.59-2.38-1.61-3.04-3.67-2.38-10.56-3.26-14-3.33Z"/>
  <g>
    <path class="st1" d="M75.16,43.62c.03,4.03-.69,26.3-.69,26.3-.4,1.68-1.97,3.21-3.4,3.71-3.33,1.17-7.52,2.35-19.84,2.64-14.28.33-20.2-3.21-23.22-5.41-.81-.59-1.27-1.53-1.25-2.53l.31-24.51c.17-1.28,2.33-3.94,11.2-6.46,1.52.76,4.23,1.76,12.45,1.71,7.34-.04,13.12-1.44,13.12-1.44,0,0,11.29,1.95,11.32,5.98Z"/>
    <g>
      <path class="st1" d="M49.37,38.19c-.37,0-.29.34-.66.33-.37,0-.57-.32-.94-.33-.36-.01-.37.12-.73.11-.37-.01-.36-.32-.72-.34-.36-.02-.46.23-.83.21-.36-.03-.3.59-.66.56-.37-.03-.36-.7-.71-.74-.36-.04-.47.14-.82.09-.36-.05-.17-.49-.52-.54-.35-.06-.43.38-.78.31-.35-.07-.34-.12-.69-.2-.34-.08-.29-.4-.62-.49-.33-.09-.51.35-.85.25-.34-.12-.47-.64-.49-.64l-.77,1.85s.56,0,.93.12c.37.12.3.36.68.46.38.11.45-.17.82-.08.37.08.3.4.68.48.38.07.36-.52.73-.46.37.06.46.27.83.32.37.05.31.19.69.23.38.04.44-.19.81-.17.37.03.35.46.72.49.38.02.39-.42.76-.39.37.02.36.17.74.18.37.01.37.2.74.22.37.01.35-.5.72-.49.37,0,.4.42.77.42.37,0,.37-.19.74-.19.37,0,.46.34.74.34v-2c-.28,0-.25.26-.62.26-.37,0-.36-.16-.73-.16Z"/>
      <path class="st1" d="M61.05,37.28c-.36.06-.23.38-.59.44-.36.06-.62-.22-.98-.17-.36.05-.34.19-.71.23-.36.05-.41-.26-.77-.21-.36.04-.42.31-.78.35-.36.04-.19.64-.55.67-.37.03-.48-.62-.84-.59-.36.03-.44.22-.8.25-.36.03-.27-.44-.63-.42-.36.02-.34.46-.71.48-.36.02-.37-.03-.73-.02-.36.01-.4-.31-.76-.3-.36.01-.4.49-.77.5-.37,0-.71-.42-.73-.42v2s.49-.22.87-.22c.37,0,.38.25.75.23.37-.01.37-.29.74-.31.37-.01.38.32.76.3.37-.02.23-.59.6-.61.37-.02.5.16.87.14.37-.03.34.13.71.1.37-.04.39-.28.76-.32.37-.03.42.39.79.35.37-.04.31-.47.68-.52.37-.05.39.1.76.05.37-.05.39.14.76.09.37-.05.26-.55.63-.61.37-.06.47.34.84.28.37-.06.34-.25.7-.32.37-.07.52.25.8.19l-.38-1.96c-.27.05-.18.3-.54.37-.36.07-.38-.09-.74-.03Z"/>
      <path class="st1" d="M72.99,39.69c-.35-.19-.43.15-.77-.03-.34-.17-.41-.54-.77-.7-.36-.15-.41-.03-.76-.17-.35-.14-.25-.43-.62-.56-.36-.13-.53.09-.89-.03-.36-.11-.44.5-.79.39-.35-.11-.21-.76-.58-.87-.36-.1-.5.05-.86-.04-.36-.09-.12-.51-.48-.6-.37-.09-.48.33-.84.25-.37-.08-.35-.14-.72-.21-.18-.04-.26-.14-.35-.24-.06-.1-.18-.2-.47-.26-.12-.02-.21-.02-.29,0-.29.2-.43.54-.68.59-.36.07-.77-.28-.79-.28l.38,1.96s.44-.3.8-.37c.24-.05.24.07.33.13.03.03.07.06.12.07.06.01.18-.04.29-.08.1-.05.2-.1.38-.06.35.08.28.4.63.48.35.08.38-.5.73-.42.35.09.41.31.76.4.35.1.27.23.61.33.35.1.45-.12.8-.01.35.11.22.52.56.63.33.11.47-.3.81-.18.34.12.29.26.62.39.33.13.26.31.58.45.32.15.5-.34.82-.18.32.16.17.54.47.7.29.17.4,0,.69.19.29.19.16.51.34.66l1.23-1.58c-.25-.19-.37.04-.7-.18-.33-.22-.25-.34-.6-.55Z"/>
      <path class="st1" d="M75.85,51.23c0-.37-.33-.29-.32-.66,0-.37.33-.59.33-.95,0-.37-.13-.37-.12-.74,0-.37.32-.38.33-.75,0-.37-.25-.46-.24-.83,0-.37-.61-.25-.6-.62,0-.37.68-.42.69-.79,0-.37-.17-.46-.16-.83,0-.37.47-.24.48-.61,0-.37-.43-.37-.42-.74-.02-.43.05-.48-.08-.94-.16-.44.12-.62-.14-1.04-.28-.4-.69-.14-.98-.43-.28-.29-.31-.86-.34-.87l-1.23,1.58s.46.09.67.32c.2.22.01.38.15.59.13.2.37.08.46.33.03.12-.03.19-.12.25-.08.09-.14.05-.15.26,0,.37.57.25.56.62,0,.37-.21.48-.22.85,0,.37-.16.32-.17.69,0,.37.23.41.22.78,0,.37-.44.38-.45.74,0,.37.43.36.42.73,0,.37-.15.37-.16.74,0,.37-.2.37-.21.73,0,.37.5.33.49.7,0,.37-.42.4-.43.77,0,.37.18.37.17.74,0,.37-.35.46-.36.73h2c0-.26-.26-.23-.25-.6,0-.37.16-.37.17-.74Z"/>
      <path class="st1" d="M75.54,63.13c0-.37-.33-.3-.32-.67,0-.37.33-.58.33-.95,0-.37-.12-.37-.12-.74,0-.37.32-.37.33-.74,0-.37-.25-.46-.24-.83,0-.37-.61-.26-.6-.63,0-.37.68-.41.69-.78,0-.37-.17-.46-.16-.83,0-.37.47-.23.48-.6,0-.37-.43-.38-.42-.75,0-.37.06-.37.07-.74,0-.37.34-.39.35-.76,0-.37-.47-.42-.46-.79,0-.37.45-.71.45-.73h-2s.19.46.18.83c0,.37-.26.36-.27.73,0,.37.27.37.26.74,0,.37-.34.36-.35.73,0,.37.57.26.56.63,0,.37-.21.48-.22.85,0,.37-.16.32-.17.69,0,.37.23.41.22.78,0,.37-.44.37-.45.74,0,.37.43.37.42.73,0,.37-.15.36-.16.73,0,.37-.2.36-.21.73,0,.37.5.34.49.71,0,.37-.42.4-.43.76,0,.37.18.37.17.74,0,.37-.35.45-.36.73l2,.05c0-.28-.26-.25-.25-.62,0-.37.16-.36.17-.73Z"/>
      <path class="st1" d="M71.54,74.41c.41-.18.18-.44.54-.64.34-.21.73-.09,1.06-.36.32-.27.23-.37.52-.66.28-.3.52-.11.79-.45.25-.36.1-.58.3-.95.19-.38-.41-.52-.27-.88.11-.33.84-.29.84-.8,0-.37-.17-.46-.16-.83,0-.37.47-.22.48-.59,0-.37-.43-.39-.42-.76,0-.37.06-.37.07-.74,0-.37.34-.38.35-.75,0-.37-.47-.43-.46-.8,0-.37.45-.7.45-.72l-2-.05s.19.48.18.85c0,.37-.26.36-.27.73,0,.37.27.38.26.75,0,.37-.34.35-.35.72,0,.37.57.27.56.64,0,.37-.21.48-.22.84,0,.37-.16.32-.17.69,0,.24.22.25.12.56-.12.3-.51.12-.65.37-.15.25.22.49.03.76-.21.26-.32.17-.53.4-.23.23-.36.09-.6.29-.24.19.08.58-.2.77-.29.18-.52-.17-.78-.04-.26.1-.23.29-.57.41-.34.12-.53-.18-.79-.09l.61,1.9c.27-.09.15-.33.51-.45.37-.13.37.04.79-.12Z"/>
      <path class="st1" d="M59.67,76.76c.37-.03.26-.36.63-.4.37-.03.62.25.99.21.37-.04.36-.17.73-.21.37-.04.42.26.79.21.37-.05.43-.31.8-.36.37-.05.17-.64.54-.7.36-.05.52.6.89.53.37-.06.43-.26.8-.33.37-.07.32.41.7.34.37-.07.29-.5.65-.59.37-.08.38-.03.75-.12.36-.09.47.22.84.12.37-.1.29-.58.65-.69.36-.11.82.2.85.19l-.61-1.9s-.38.34-.72.44c-.35.1-.41-.14-.75-.05-.34.09-.28.36-.63.45-.35.09-.42-.24-.77-.16-.35.08-.12.62-.48.69-.36.07-.51-.1-.86-.03-.36.06-.34-.1-.7-.04-.36.06-.36.31-.72.36-.36.05-.43-.37-.79-.32-.36.05-.29.48-.66.52-.36.04-.38-.1-.74-.06-.36.04-.38-.15-.74-.11-.36.04-.28.54-.64.58-.37.03-.44-.37-.8-.34-.36.03-.35.23-.71.26-.37.03-.48-.3-.75-.29l.14,2c.28-.02.22-.28.6-.3.37-.03.38.12.75.09Z"/>
      <path class="st1" d="M47.7,77.17c.37.01.3-.33.67-.32.37.01.59.31.96.31.37,0,.37-.14.75-.14.37,0,.39.3.76.3.37,0,.46-.26.83-.27.37-.01.24-.62.61-.63.37-.01.44.65.81.64.37,0,.45-.2.82-.21.37-.02.26.45.63.44.37-.02.36-.45.73-.47.37-.01.37.04.74.02.37-.02.41.3.78.28.37-.02.39-.5.76-.53.37-.03.74.38.77.38l-.14-2s-.46.24-.82.26c-.37.02-.38-.23-.74-.21-.37.02-.35.3-.72.32-.37.02-.38-.31-.74-.3-.36.01-.23.58-.6.6-.37.02-.49-.18-.85-.16-.36.02-.33-.14-.69-.13-.37.01-.4.25-.77.26-.37.01-.39-.42-.75-.41-.37.01-.35.45-.71.45-.37,0-.37-.14-.73-.14-.36,0-.37-.19-.73-.18-.36,0-.33.51-.7.51-.37,0-.4-.42-.76-.43-.36,0-.37.18-.73.17-.36,0-.44-.35-.71-.36l-.09,2c.28,0,.25-.26.63-.25.37.01.36.16.74.17Z"/>
      <path class="st1" d="M35.73,75.54c.37.1.38-.25.74-.14.36.11.5.44.87.53.37.09.4-.05.77.04.37.08.32.38.69.45.37.07.51-.17.88-.1.37.07.36-.55.72-.5.36.05.32.72.69.77.37.05.49-.12.86-.07.37.04.18.48.56.52.38.04.43-.39.8-.36.37.04.37.09.74.13.37.02.37.35.74.37.38.02.46-.45.83-.43.37.02.7.48.72.47l.09-2s-.48.18-.84.16c-.36-.02-.35-.27-.71-.29-.36-.02-.38.25-.75.23-.36-.04-.33-.37-.68-.4-.36-.04-.31.55-.67.51-.36-.04-.45-.24-.81-.29-.36-.05-.3-.2-.65-.25-.36-.05-.43.18-.79.13-.36-.05-.3-.48-.65-.54-.35-.07-.42.37-.78.3-.36-.07-.33-.2-.68-.28-.35-.08-.31-.27-.66-.35-.35-.08-.44.42-.79.34-.35-.1-.28-.5-.62-.6-.34-.1-.4.09-.75,0-.34-.11-.32-.46-.57-.55l-.64,1.9c.27.09.32-.17.68-.05.36.12.31.25.68.36Z"/>
      <path class="st1" d="M25.87,68.25c0,.43.33.35.39.76.08.41-.13.77.08,1.21.24.41.35.34.64.69.3.32.14.58.5.85.31.22.53.07.85.28.32.21.56-.36.87-.16.31.19.01.79.34.99.33.19.51.07.83.26.33.19,0,.53.34.7.35.17.54-.21.88-.05.35.15.32.2.67.36.35.15.24.46.6.6.36.14.58-.29.93-.16.35.13.55.64.57.65l.64-1.9s-.51.06-.84-.07c-.33-.13-.24-.36-.57-.49-.33-.13-.44.12-.76-.02-.33-.14-.18-.44-.5-.59-.31-.16-.47.41-.79.25-.32-.16-.33-.39-.64-.56-.31-.17-.2-.28-.5-.46-.3-.19-.46,0-.77-.19-.3-.2-.07-.56-.36-.75-.29-.2-.53.16-.83-.05-.25-.19-.14-.29-.33-.49-.18-.21-.02-.32-.14-.54-.1-.22-.57-.02-.66-.33-.07-.32.34-.39.33-.65,0-.34-.19-.36-.19-.73,0-.37.34-.45.35-.73l-2-.03c0,.28.26.24.25.61,0,.37-.16.36-.16.73Z"/>
      <path class="st1" d="M26.02,56.37c0,.37.34.29.33.66,0,.37-.32.58-.32.95,0,.37.13.37.13.74,0,.37-.31.37-.32.74,0,.37.25.46.25.83,0,.37.61.26.6.63,0,.37-.67.41-.68.78,0,.37.18.46.17.83,0,.37-.47.23-.47.6,0,.37.43.38.43.75,0,.37-.06.37-.06.74,0,.37-.33.38-.34.75,0,.37.48.43.47.8,0,.37-.44.71-.44.73l2,.03s-.2-.48-.2-.85c0-.37.25-.36.26-.73,0-.37-.27-.37-.27-.74,0-.37.34-.36.34-.72,0-.37-.57-.27-.57-.63,0-.37.21-.48.21-.85,0-.37.16-.32.16-.69,0-.37-.24-.41-.23-.78,0-.37.43-.37.44-.74,0-.37-.43-.37-.43-.73,0-.37.15-.37.15-.73,0-.37.19-.37.2-.73,0-.37-.5-.34-.5-.71,0-.37.41-.4.42-.77,0-.37-.19-.37-.18-.74,0-.37.34-.45.35-.73l-2-.03c0,.28.26.24.25.61,0,.37-.16.36-.16.73Z"/>
      <path class="st1" d="M26.17,44.48c0,.37.34.29.33.66,0,.37-.32.58-.32.95,0,.37.13.37.13.74,0,.37-.31.37-.32.74,0,.37.25.46.25.83,0,.37.61.26.6.63,0,.37-.67.41-.68.78,0,.37.18.46.17.83,0,.37-.47.23-.47.6,0,.37.43.38.43.75,0,.37-.06.37-.06.74,0,.37-.33.38-.34.75,0,.37.48.43.47.8,0,.37-.44.71-.44.73l2,.03s-.2-.48-.2-.85c0-.37.25-.36.26-.73,0-.37-.27-.37-.27-.74,0-.37.34-.36.34-.73,0-.37-.57-.26-.57-.63,0-.37.21-.48.21-.85,0-.37.16-.32.16-.69,0-.37-.24-.41-.23-.78,0-.37.43-.37.44-.74,0-.37-.43-.37-.43-.73,0-.37.15-.37.15-.73,0-.37.19-.37.2-.73,0-.37-.5-.34-.5-.71,0-.37.41-.4.42-.77,0-.18-.05-.28-.09-.37-.05-.1-.09-.2-.09-.31.04-.26.39-.19.45-.32l-1.79-.9c-.17.37.07.42-.04.9-.06.52-.17.48-.19.85Z"/>
      <path class="st1" d="M35.96,37.14c-.36.12-.17.42-.53.53-.35.11-.66-.1-1.02.03-.35.13-.31.26-.66.39-.35.14-.47-.14-.82,0-.35.15-.34.41-.68.57-.35.16.01.67-.33.82-.34.15-.67-.41-1.02-.24-.34.17-.34.38-.67.57-.33.19-.45-.28-.79-.08-.34.22-.11.58-.43.79-.32.23-.35.18-.67.42-.3.26-.54,0-.85.3-.31.3,0,.67-.26.98-.25.3-.83.46-.85.52l1.79.9s-.01-.1,0-.23c.03-.13.07-.29.18-.41.2-.24.39-.06.61-.28.23-.21.07-.42.32-.64.28-.2.47.07.74-.12.29-.18-.12-.61.18-.8.3-.19.51-.06.81-.24.3-.18.35-.01.66-.17.32-.16.24-.4.57-.55.33-.15.51.24.83.09.32-.14.15-.54.48-.67.34-.14.39,0,.72-.13.34-.12.41.05.74-.07.34-.12.13-.6.48-.71.35-.11.51.26.85.15.34-.11.28-.3.63-.41.35-.1.53.19.79.11l-.57-1.92c-.27.08-.16.32-.52.43-.36.11-.4-.04-.76.08Z"/>
      <g>
        <path class="st1" d="M39.16,36.83h-.01s-.01,0-.01,0h-.02s-.04-.04-.04-.04h-.02s-.02-.02-.02-.02h-.01s-.01,0-.01,0h-.01s-.01,0-.01,0h-.01s-.01.02-.01.02l-.03.03-.07.08-.07.09-.03.03h-.02s-.01.02-.01.02c0,0,0,0-.01,0h-.01s-.01,0-.01,0h-.01s-.02-.02-.02-.02l-.02-.02-.02-.02h-.01s-.01,0-.01,0h-.01s-.01,0-.01,0c0,0-.01,0-.01,0h-.02s-.03.03-.03.03l-.03.03-.06.06-.06.06-.06.06-.02.02h0s0,.02,0,.02h0s0,0,0,0h-.01s-.01-.02-.01-.02c0,0,0,0-.01,0,0,0,0,0-.01,0h-.03s-.03,0-.03,0h-.03s-.01,0-.01,0h-.01s-.01-.01-.01-.01h-.01s-.03-.05-.03-.05l-.03-.04-.05-.1-.05-.1-.03-.04v-.02s-.03-.01-.03-.01l-.06-.04-.06-.03s-.08-.04-.12-.05h-.01s-.01,0-.01,0h0s0,0,0,0h0s0,.02,0,.02v.02s-.02.02-.02.02v.02s-.02,0-.02,0h0s0,.01,0,.01h-.01s0,0,0,0h0s-.01-.01-.01-.01l-.03-.03s-.05-.06-.07-.09l-.04-.04-.04-.04h-.02s-.02-.02-.02-.02h-.01s0,0,0,0h0s.29.96.29.96l.14.48.14.48h0s0-.01,0-.01h.01s0-.03,0-.03h0s0,0,0,0h0s0,0,0,0h0s0-.01,0-.01h0s.02-.06.02-.06v-.02s.02,0,.02,0h0s.01-.01.01-.01h.01s.02,0,.02,0h.02s.03.02.05.03l.06.03.06.03h.01s0,.01,0,.01h0s0,0,0,0h0s.03,0,.03,0h0s0,0,0,0h0s.03-.04.03-.04l.04-.04h.02s.02-.02.02-.02h.02s.01,0,.01,0h.01s.01,0,.01,0h.04s0,.02,0,.02h0s0,0,0,0h0s0,0,0,0h0s0,0,0,0h0s0,.01,0,.01v.02s.01.03.01.03v.06s.01.01.01.01h0s0,.02,0,.02h0s0,0,0,0h0s0,0,0,0h.02s.04.03.04.03l.19-.46.19-.46.38-.92h0s0,0,0,0h-.02s-.05.03-.05.03l-.06.03h-.03s-.02.01-.02.01Z"/>
        <path class="st0" d="M38.07,39.53s.02-.01.03-.02h0s0,0,0,0h0s0-.01,0-.01h0s0-.04,0-.04l-.02-.06-.04-.12-.07-.24-.14-.48-.29-.96-.57-1.92,1.52-.44.69.35.29.14.29.13-.77,1.85-.38.92-.19.46-.1.23-.05.12-.02.06v.03s-.02.01-.02.01h0s0,.01,0,.01h0s0,0,0,0c-.09,0-.09,0-.14,0Z"/>
      </g>
    </g>
  </g>
  <path class="st3" d="M28.81,48.16l.09,19.03s11.56,4.49,19.85,4.65c8.29.16,23.9-3.2,23.9-3.2l.42-19.57s-13.49,3.31-23.37,3.01c-8.11-.24-20.89-3.92-20.89-3.92Z"/>
  <g>
    <path class="st2" d="M26.08,41.56c.19-.21-.1-.4.14-.62.27-.24.64-.15.92-.4.28-.25.19-.35.46-.59.14-.12.26-.13.38-.13.12,0,.26-.03.34-.08.16-.14.15-.41.41-.57.3-.16-.08-.65.24-.82.33-.16.65.42.98.28.32-.14.33-.35.66-.49.33-.14.39.34.72.2.33-.13.18-.54.51-.67.34-.13.36-.08.69-.21.34-.13.47.17.81.05.34-.12.22-.59.56-.72.34-.12.8.17.82.16l-.66-1.89s-.38.35-.73.48c-.35.13-.43-.11-.78.02-.35.13-.25.39-.6.52-.34.13-.46-.18-.8-.05-.34.14-.03.63-.37.77-.34.13-.52,0-.87.14-.34.14-.36,0-.7.14-.34.15-.28.4-.62.56-.34.17-.54-.2-.9,0-.37.23-.11.56-.46.84-.33.27-.39.14-.67.39-.27.24-.4.1-.67.34-.27.24.09.6-.18.84-.26.23-.59-.03-.89.29-.29.33-.13.45-.36.8-.21.35-.56.3-.7.62l1.85.76c.08-.19-.17-.28-.02-.55.16-.26.29-.16.47-.39Z"/>
    <path class="st2" d="M25.13,52.5c0-.37-.33-.29-.33-.66,0-.37.32-.57.33-.94,0-.37-.13-.37-.12-.73,0-.37.31-.37.32-.73,0-.36-.25-.46-.24-.82,0-.37-.61-.26-.6-.63,0-.36.67-.4.68-.77,0-.36-.18-.46-.17-.82,0-.37.47-.23.47-.59,0-.36-.43-.38-.42-.74,0-.37.06-.36.07-.73,0-.36.33-.4.34-.73.02-.27-.46-.37-.4-.69.07-.32.59-.44.59-.44l-1.85-.76s-.02.61-.09,1.03c-.07.42-.32.39-.34.85,0,.37.27.37.26.74,0,.36-.34.35-.35.72,0,.36.57.26.56.63,0,.36-.21.48-.21.84,0,.36-.16.32-.16.68,0,.36.23.41.23.77,0,.36-.43.36-.44.73,0,.36.43.36.42.73,0,.36-.15.36-.16.73,0,.36-.2.36-.2.72,0,.36.5.34.5.7,0,.36-.41.39-.42.76,0,.36.19.37.18.73,0,.36-.35.45-.35.72l2,.04c0-.27-.26-.24-.25-.61,0-.37.16-.36.17-.73Z"/>
    <path class="st2" d="M24.92,64.26c0-.37-.33-.29-.33-.66,0-.37.32-.57.33-.94,0-.37-.13-.37-.12-.73,0-.37.31-.37.32-.73,0-.36-.25-.46-.24-.82,0-.37-.61-.26-.6-.63,0-.36.67-.4.68-.77,0-.36-.18-.46-.17-.82,0-.37.47-.23.47-.59,0-.36-.43-.38-.42-.74,0-.37.06-.36.07-.73,0-.36.33-.38.34-.74,0-.37-.47-.42-.47-.79,0-.36.44-.7.44-.72l-2-.04s.2.48.19.84c0,.36-.26.36-.26.72,0,.36.27.37.26.74,0,.36-.34.35-.35.72,0,.36.57.26.56.63,0,.36-.21.48-.21.84,0,.36-.16.32-.16.68,0,.36.23.41.23.77,0,.36-.43.36-.44.73,0,.36.43.36.42.73,0,.36-.15.36-.16.73,0,.36-.2.36-.2.72,0,.36.5.34.5.7,0,.36-.41.39-.42.76,0,.36.19.37.18.73,0,.36-.35.45-.35.72l2,.04c0-.27-.26-.24-.25-.61,0-.37.16-.36.17-.73Z"/>
    <path class="st2" d="M28.01,73.52c-.31-.18-.41.15-.72-.03-.31-.19-.32-.56-.61-.75-.29-.2-.37-.08-.66-.28-.14-.1-.17-.22-.2-.33-.04-.12-.06-.23-.14-.3-.17-.16-.41-.03-.57-.25-.14-.23-.64.15-.78-.17-.13-.34.51-.56.47-.81-.03-.26-.21-.3-.2-.69,0-.37.47-.23.47-.59,0-.36-.43-.38-.42-.74,0-.37.06-.36.07-.73,0-.36.33-.38.34-.74,0-.37-.47-.42-.47-.79,0-.36.44-.7.44-.72l-2-.04s.2.48.19.84c0,.36-.26.36-.26.72,0,.36.27.37.26.74,0,.36-.34.35-.35.72,0,.36.57.26.56.63,0,.36-.21.48-.21.84,0,.37-.17.38-.11.82.08.46.34.45.49.86.18.39-.19.62.1,1.03.31.39.63.08.95.37.35.27.23.35.55.58.31.22.21.37.52.58.32.21.56-.24.87-.05.32.19.14.56.46.75.33.18.42.01.75.19.32.18.24.52.5.65l.93-1.77c-.24-.12-.33.13-.64-.04-.31-.17-.23-.31-.54-.48Z"/>
    <path class="st2" d="M38.72,77.54c-.35-.08-.35.27-.7.19-.35-.08-.49-.42-.83-.52-.35-.09-.38.04-.73-.06-.35-.09-.27-.39-.61-.49-.34-.1-.5.12-.84,0-.34-.11-.42.51-.77.4-.35-.11-.18-.76-.51-.88-.33-.12-.48.02-.82-.1-.34-.13-.05-.51-.38-.64-.33-.14-.5.27-.83.13-.33-.14-.31-.18-.64-.33-.32-.15-.21-.45-.53-.6-.32-.15-.58.27-.9.11-.32-.16-.42-.7-.44-.71l-.93,1.77s.53.04.86.2c.33.16.23.38.57.54.34.16.46-.09.79.06.34.15.2.45.55.59.35.14.46-.43.8-.29.34.14.38.36.73.49.35.13.25.26.6.38.35.13.47-.09.82.03.35.11.23.52.58.64.36.11.47-.3.83-.2.36.1.32.24.67.33.36.1.31.28.67.38.36.1.45-.41.81-.33.36.08.3.49.66.57.36.08.4-.11.76-.03.36.07.39.41.66.47l.37-1.96c-.26-.05-.28.22-.63.15-.35-.08-.32-.23-.67-.31Z"/>
    <path class="st2" d="M50.19,78.66c-.36,0-.28.34-.64.34-.36,0-.57-.31-.93-.31-.36,0-.36.13-.72.12-.36-.02-.36-.32-.72-.34-.36-.02-.46.24-.82.22-.36-.02-.29.6-.65.58-.36-.03-.36-.7-.72-.73-.36-.03-.46.14-.82.11-.36-.03-.18-.48-.54-.51-.35-.04-.41.39-.77.34-.36-.05-.35-.1-.71-.15-.36-.05-.33-.37-.68-.42-.35-.06-.48.4-.83.34-.36-.06-.61-.55-.63-.55l-.37,1.96s.51-.12.87-.05c.36.06.32.32.69.37.37.05.41-.22.78-.17.37.05.32.38.68.43.37.05.33-.54.69-.49.36.04.46.24.83.28.37.03.31.18.68.21.37.03.43-.2.8-.17.37.02.35.44.72.46.37.02.38-.42.75-.4.37.02.36.16.73.18.37.02.36.21.74.21.37,0,.34-.51.71-.51.37,0,.4.41.77.41.37,0,.37-.19.73-.19.37,0,.46.32.74.32l-.06-2c-.27,0-.23.27-.59.28-.36,0-.36-.15-.72-.15Z"/>
    <path class="st2" d="M61.81,77.89c-.36.04-.24.37-.6.42-.36.05-.61-.24-.97-.2-.36.04-.35.17-.71.21-.36.04-.4-.26-.76-.24-.36.03-.42.3-.78.33-.36.03-.2.63-.56.66-.36.03-.46-.64-.82-.61-.36.02-.44.22-.8.24-.36.02-.26-.45-.62-.42-.36.02-.34.45-.71.47-.36.02-.37-.04-.73-.02-.36.02-.4-.31-.76-.29-.36.01-.39.49-.76.51-.36.01-.71-.41-.74-.41l.06,2s.47-.22.83-.23c.37-.01.37.24.74.23.37-.02.36-.29.72-.31.37-.02.38.31.74.3.37-.02.22-.59.59-.6.36-.02.49.17.86.14.36-.02.33.13.7.11.37-.03.39-.26.76-.3.36-.03.41.39.77.36.37-.03.32-.47.68-.5.36-.03.38.11.74.07.37-.04.38.15.75.11.37-.04.27-.54.64-.58.36-.04.45.36.81.31.36-.04.34-.24.7-.28.36-.05.5.27.77.23l-.28-1.98c-.27.04-.2.29-.56.34-.36.05-.38-.11-.74-.06Z"/>
    <path class="st2" d="M73.11,75.48c-.34.11-.15.42-.5.52-.34.11-.63-.12-.98-.02-.34.1-.31.23-.65.33-.35.09-.44-.2-.78-.11-.35.09-.37.36-.72.45-.35.09-.1.66-.45.74-.36.08-.55-.56-.9-.48-.35.08-.4.27-.75.34-.35.07-.32-.41-.67-.34-.35.06-.28.49-.64.56-.36.06-.36.01-.72.07-.36.06-.43-.26-.78-.2-.36.06-.33.55-.69.6-.36.05-.75-.33-.77-.32l.28,1.98s.44-.27.81-.32c.36-.06.4.19.76.13.37-.06.32-.33.69-.39.36-.06.41.26.78.2.36-.07.15-.61.51-.68.36-.07.51.1.87.03.36-.07.35.09.71,0,.36-.08.35-.33.71-.41.36-.08.47.33.83.24.36-.09.25-.51.6-.6.36-.1.39.04.75-.05.36-.1.41.08.77-.02.36-.1.18-.58.53-.69.35-.11.51.27.87.15.34-.12.33-.3.73-.52.39-.25.66-.07.92-.3l-1.38-1.45c-.15.14.04.33-.19.49-.11.08-.18.06-.24.05-.06-.01-.11-.03-.29.03Z"/>
    <path class="st2" d="M76.19,65.85c-.01.37.33.3.32.67-.01.37-.33.57-.34.93-.01.37.12.37.11.74-.01.37-.32.36-.33.73-.01.36.25.46.24.83-.01.37.6.28.59.64-.01.34-.67.44-.7.7-.03.24.12.38.03.69-.11.32-.5.05-.62.34-.12.29.27.48.12.79-.16.3-.2.28-.37.58-.17.3-.46.14-.64.41-.18.27.18.59-.04.86-.22.27-.74.17-.74.17l1.38,1.45s.25-.54.49-.85c.25-.31.44-.17.67-.5.22-.34-.01-.48.18-.82.19-.33.48-.18.66-.53.17-.37-.39-.49-.25-.85.15-.35.38-.4.5-.79.11-.4.25-.3.32-.78.04-.46-.22-.44-.2-.83.01-.36.44-.35.45-.72.01-.36-.43-.37-.42-.74.01-.36.16-.36.17-.72.01-.36.2-.36.21-.72.01-.36-.5-.35-.49-.71.01-.36.42-.38.43-.75.01-.36-.18-.37-.17-.74.01-.36.35-.44.36-.71l-2-.08c0,.27.26.25.25.61-.01.37-.16.36-.18.72Z"/>
    <path class="st2" d="M76.53,54.08c-.01.37.33.3.32.66-.01.37-.33.57-.34.94-.01.37.12.37.11.73-.01.37-.32.37-.33.73-.01.36.25.46.24.82-.01.37.6.27.59.63-.01.36-.68.4-.69.76-.01.36.17.46.16.82-.01.37-.47.22-.48.59-.01.36.42.38.41.75-.01.36-.07.36-.08.73-.01.36-.34.37-.35.74-.01.36.47.43.46.79-.01.36-.45.69-.45.71l2,.06s-.19-.48-.18-.84c.01-.36.26-.36.27-.72.01-.36-.27-.37-.26-.74.01-.36.34-.35.35-.71.01-.36-.57-.27-.56-.63.01-.36.21-.47.22-.84.01-.36.16-.32.17-.68.01-.36-.23-.41-.22-.78.01-.36.44-.36.45-.72.01-.36-.43-.37-.42-.73.01-.36.16-.36.17-.72.01-.36.2-.36.21-.72.01-.36-.5-.34-.49-.71.01-.36.42-.39.43-.75.01-.36-.18-.37-.17-.73.01-.36.35-.44.36-.72l-2-.06c0,.27.26.25.25.61-.01.37-.16.36-.18.72Z"/>
    <path class="st2" d="M76.85,42.44c.01.28.34.21.33.58-.01.37-.33.57-.34.93-.01.37.12.37.11.74-.01.37-.32.36-.33.73-.01.36.25.46.24.83-.01.37.6.28.59.64-.01.36-.68.39-.69.75-.01.36.17.46.16.82-.01.37-.47.21-.48.58-.01.36.42.39.41.75-.01.36-.06.36-.08.73-.01.36-.34.37-.35.74-.01.36.47.44.46.8-.01.36-.45.69-.45.71l2,.08s-.19-.48-.18-.84c.01-.36.26-.35.27-.72.01-.36-.27-.38-.26-.74.01-.36.34-.34.35-.71.01-.36-.57-.28-.56-.64.01-.36.21-.47.22-.83.01-.36.16-.31.17-.68.01-.36-.23-.42-.22-.78.01-.36.44-.35.45-.72.01-.36-.43-.37-.42-.74.01-.36.16-.36.17-.72.01-.36.2-.36.21-.72.01-.36-.5-.35-.49-.71,0-.37.42-.35.42-.81-.02-.45-.22-.43-.3-.84-.1-.41.18-.62.04-.95l-1.83.81c.07.18.32.06.4.35.07.29-.09.31-.06.59Z"/>
    <path class="st2" d="M68.25,37.16c.35.09.36-.26.7-.17.35.1.47.45.81.55.34.11.38-.03.72.08.34.11.25.41.58.52.33.12.5-.09.83.03.33.12.45-.48.79-.34.33.14.12.77.43.91.31.15.47.02.79.17.31.17-.02.52.28.68.3.16.52-.21.81-.02.28.19.27.22.54.43.26.21.09.48.32.66.18.17.57-.13.76.12.19.27-.09.7-.09.7l1.83-.81s-.43-.45-.71-.79c-.28-.34-.1-.52-.45-.84-.32-.25-.49-.03-.81-.27-.31-.24-.13-.49-.46-.71-.34-.21-.53.33-.86.15-.33-.18-.34-.42-.68-.59-.34-.16-.23-.28-.58-.44-.35-.16-.48.05-.83-.09-.34-.15-.2-.55-.55-.68-.36-.13-.5.28-.85.15-.35-.12-.31-.26-.66-.37-.35-.12-.3-.29-.66-.4-.36-.11-.47.39-.82.29-.35-.1-.28-.5-.65-.59-.36-.09-.41.09-.77.01-.36-.08-.37-.44-.65-.49l-.43,1.95c.26.06.28-.21.63-.13.35.08.31.23.66.32Z"/>
    <path class="st2" d="M66.39,23.76c.13.22.41,0,.53.28.11.28-.14.52-.1.77.04.27.17.23.17.55,0,.34-.31.35-.31.69,0,.34.26.42.26.77,0,.34.61.24.61.58,0,.34-.67.39-.67.73,0,.34.19.42.19.77,0,.34-.46.22-.46.56,0,.31.44.28.4.57-.06.27-.11.25-.2.5-.11.25-.4.11-.53.3-.13.18.21.52,0,.73-.11.1-.32.14-.48.14-.16,0-.3-.02-.31-.01l1.33,1.5s.17-.42.47-.71c.29-.3.48-.14.75-.52.24-.39,0-.52.16-.9.14-.39.46-.3.55-.75.06-.45-.53-.38-.52-.75,0-.34.2-.45.2-.79,0-.34.15-.3.15-.64,0-.34-.24-.38-.24-.72,0-.34.43-.35.43-.69,0-.34-.44-.33-.44-.67,0-.34.14-.34.15-.68,0-.38.19-.41.13-.83-.08-.43-.57-.26-.68-.62-.13-.35.22-.56.01-.94-.23-.36-.38-.25-.64-.56-.27-.29-.13-.61-.39-.82l-1.21,1.59c.14.11.3-.11.49.09.18.2.06.3.2.51Z"/>
    <path class="st2" d="M56.96,20.23c.33.05.31-.29.65-.24.33.05.47.4.8.46.33.06.36-.07.68,0,.33.07.27.37.6.44.32.07.46-.16.78-.08.32.08.38-.54.71-.45.33.09.19.75.51.84.31.1.45-.05.76.05.32.1.05.51.36.62.3.11.47-.3.77-.17.3.13.28.18.58.31.3.13.17.44.45.58.28.14.55-.26.83-.09.14.08.22.25.25.4.02.15,0,.26,0,.27l1.21-1.59s-.17-.06-.34-.11c-.17-.04-.37-.1-.52-.19-.31-.19-.2-.4-.52-.57-.33-.16-.45.07-.78-.07-.33-.14-.19-.44-.53-.59-.34-.13-.44.45-.77.32-.33-.12-.37-.35-.7-.45-.33-.11-.25-.24-.58-.35-.34-.1-.44.13-.78.03-.33-.1-.24-.51-.58-.59-.34-.08-.44.34-.77.26-.34-.07-.31-.21-.65-.29-.34-.07-.3-.25-.65-.32-.34-.06-.4.44-.74.38-.34-.06-.31-.46-.65-.52-.34-.05-.37.14-.72.09-.34-.05-.38-.4-.64-.43l-.25,1.98c.25.03.25-.24.58-.19.33.05.31.2.64.25Z"/>
    <path class="st2" d="M46.24,20.22c.34-.05.22-.37.56-.41.34-.04.57.24.91.21.34-.04.32-.17.66-.2.34-.03.37.27.71.24.33-.03.39-.29.73-.32.33-.02.19-.62.53-.64.34-.02.41.65.74.64.33-.01.41-.19.74-.19.33,0,.2.46.53.47.33.01.35-.43.69-.41.34.02.33.07.67.1.33.03.33.35.66.38.33.03.43-.44.76-.41.34.04.6.5.61.51l.25-1.98s-.47.15-.82.11c-.35-.03-.32-.28-.67-.32-.35-.03-.37.25-.72.22-.35-.03-.32-.35-.67-.37-.35-.02-.27.56-.62.55-.35-.01-.45-.21-.81-.21-.35,0-.31-.16-.66-.14-.35.01-.38.25-.73.27-.35.02-.38-.41-.73-.39-.35.03-.31.46-.65.49-.34.03-.36-.11-.7-.08-.34.03-.36-.16-.71-.12-.34.04-.25.54-.59.58-.34.04-.43-.36-.77-.31-.34.05-.32.24-.66.29-.34.05-.47-.27-.73-.23l.3,1.98c.25-.04.18-.29.52-.34.34-.05.35.11.69.06Z"/>
    <path class="st2" d="M36.17,23.16c.2-.14-.05-.38.25-.54.3-.15.61.04.91-.1.3-.14.25-.26.55-.4.31-.14.44.14.74.01.3-.13.28-.4.59-.52.31-.12,0-.65.32-.77.32-.11.58.5.89.4.31-.1.33-.3.65-.38.32-.09.32.4.62.32.31-.06.22-.49.56-.56.33-.06.34,0,.68-.07.33-.06.41.26.74.2.33-.05.3-.54.64-.59.34-.05.71.32.73.32l-.3-1.98s-.41.27-.75.33c-.34.05-.38-.19-.72-.14-.34.06-.3.33-.64.39-.34.06-.39-.27-.74-.2-.34.06-.13.61-.48.68-.34.08-.5-.09-.85,0-.34.1-.35-.06-.69.05-.34.11-.3.35-.63.47-.33.12-.49-.28-.82-.15-.33.13-.16.53-.48.67-.32.14-.38,0-.7.15-.32.14-.4-.03-.72.12-.32.15-.06.59-.37.75-.3.16-.52-.21-.91.03-.36.26-.23.41-.53.71-.27.31-.6.21-.78.52l1.75.96c.08-.14-.15-.27,0-.47.17-.19.28-.07.46-.22Z"/>
    <path class="st2" d="M36.36,32.28c-.3-.37-.56-.15-.77-.4-.22-.26-.02-.54-.16-.79-.13-.25-.25-.2-.36-.47-.09-.27.2-.37.16-.57-.01-.08-.08-.13-.14-.19-.06-.1-.12-.22-.11-.38.02-.34-.6-.27-.58-.61.02-.34.69-.35.71-.7.02-.34-.16-.43-.14-.77.02-.34.47-.19.49-.54.02-.34-.42-.37-.4-.71.02-.34.07-.34.09-.68.02-.34.34-.34.36-.68,0-.19-.11-.21-.22-.31-.11-.08-.22-.18-.18-.32.08-.29.58-.3.58-.3l-1.75-.96s-.09.61-.17,1.03c-.05.21-.12.31-.2.42-.07.11-.14.23-.15.38-.02.34.26.36.24.7-.02.34-.35.32-.37.66-.02.34.56.27.54.61-.02.34-.22.44-.24.78-.02.34-.17.29-.19.63-.02.34.22.39.2.73-.02.34-.44.33-.46.67-.01.32.39.42.45.83.08.41-.06.44.07.83.14.37-.03.44.16.81.21.36.61.06.84.37.22.28-.05.59.06.72.13.14.3.08.32.31.02.2-.3.4-.28.63l1.99-.18c-.02-.28-.28-.15-.32-.59-.02-.23,0-.36.03-.49.01-.07.03-.13.03-.21-.02-.07-.08-.14-.16-.24Z"/>
    <g>
      <path class="st2" d="M64.63,34.39v.05s0,.05,0,.05v.11s0,.05,0,.05v.05s0,.05,0,.05v.02s.01.02.01.02v.02s.03.02.03.02l.02.02.02.02.05.03.05.03.11.06.05.03.02.02.02.02v.02s.02.02.02.02v.03s0,.03,0,.03v.06s0,.06,0,.06v.06s0,.06,0,.06v.03s.01.02.01.02v.02s.03.02.03.02l.04.04.04.03.08.05.08.05.04.03.04.03s.06.04.1.06l.05.02.06.02s.08.03.12.04h.03s.02.03.02.03l.02.02.02.02.02.02v.02s.03.05.03.05l.02.12v.06s.03.06.03.06v.03s.02.02.02.02v.02s.03.02.03.02c.03.02.05.04.08.07l.09.07c.07.04.13.08.19.12h.02s.02.02.02.02h.02s.02,0,.02,0h.04s.04-.02.04-.02h.04s.04-.02.04-.02h.02s.02,0,.02,0h.02s.02.01.02.01h.02s.02.03.02.03l.02.02.02.02s.04.08.07.12l.03.06.04.05.02.02.02.02h.02s.03.02.03.02l.21-.98.11-.49.11-.49h-.02s-.02,0-.02,0h-.03s-.03,0-.03,0c0,0,0,0-.01,0h-.02s-.02,0-.02,0h-.02s-.02,0-.02,0h-.02s-.05.03-.08.04h-.04s-.02.01-.02.01h-.02s-.02,0-.02,0h-.03s-.03-.02-.03-.02l-.03-.02c-.08-.06-.3-.21-.39-.27l-.03-.02-.02-.02-.02-.02-.02-.02v-.02s-.02-.02-.02-.02v-.05s-.01-.06-.01-.09v-.04s-.01-.02-.01-.02h0s0-.03,0-.03v-.02s0-.02,0-.02v-.02s.02-.03.02-.03l.02-.03.03-.03.02-.03v-.02s.01-.02.01-.02v-.02s0-.02,0-.02c0,0,0-.02,0-.03v-.04s0-.07,0-.09h-.5s-.5.02-.5.02l-1,.02v.02s0,.02,0,.02v.04s.04.06.06.09l.05.1.02.05v.05Z"/>
      <path class="st0" d="M67.49,33.95c.07.06.07.06.11.09h0s0,0,0,0h0s0,.01,0,.01v.02s0,.03,0,.03v.06s-.04.12-.04.12l-.05.24-.11.49-.21.98-.43,1.95-.78-.16-.75-.14-1.65-.26-.08-3.35,4-.09Z"/>
    </g>
    <g>
      <path class="st2" d="M65.43,31.91h0s0,.02,0,.02l-.02.02-.05.03-.02.02-.02.02h0s0,.02,0,.02h0s0,.03,0,.03v.02s0,.02,0,.02v.04s.05.1.05.1l.05.1.02.05v.02s0,.02,0,.02v.02s0,.01,0,.01c0,0,0,0,0,.01,0,0,0,0-.01.01l-.02.02-.03.02-.03.02h-.01s-.01.02-.01.02c0,0,0,.01,0,.01h0s0,.03,0,.03v.02s0,.04,0,.04v.04s.04.08.04.08l.03.08s.02.06.03.09l.02.05h-.01s0,.03,0,.03v.03s-.02.03-.02.03v.03s-.02.03-.02.03v.02s-.02.01-.02.01h-.01s-.02.03-.02.03h-.02s-.02.02-.02.02l-.05.02-.11.03-.11.03-.04.02h-.02s-.01.02-.01.02l-.05.05-.05.06s-.06.08-.08.12c0,0,0,.01,0,.01h0s0,.02,0,.02h0s0,.02,0,.02h0s.02.03.02.03l.02.02.02.02h0s0,.02,0,.02h0s0,.03,0,.03h0s0,.01,0,.01h-.01s-.02.03-.02.03h-.02s-.07.05-.1.07l-.05.03-.05.03h-.02s-.01.03-.01.03v.02s-.01,0-.01,0h0s1-.02,1-.02h.5s.5-.02.5-.02h0s0-.02,0-.02v-.02s-.02-.02-.02-.02h0s0-.02,0-.02h0s0,0,0,0h0s0-.02,0-.02h0s-.05-.04-.05-.04l-.02-.02h0s0-.02,0-.02h0s0-.02,0-.03v-.02s.02-.02.02-.02c0-.01.02-.03.04-.05l.04-.06.05-.06h.01s0-.02,0-.02h0s0,0,0,0h0s0,0,0,0h0s0,0,0,0h0s-.01-.03-.02-.04v-.03s-.02-.03-.02-.03v-.02s0-.02,0-.02v-.02s0-.01,0-.01h0s0-.02,0-.02l.03-.03h0s0-.02,0-.02h0s0-.02,0-.02h0s0-.01,0-.01h0s0,0,0,0h.01s.03,0,.03,0h.03s.06.02.06.02h.01s.01,0,.01,0h0s0,0,0,0h0s0-.01,0-.01h0s.02-.02.02-.02l.04-.03-.33-.37-.33-.37-.66-.75h0s0,.02,0,.02v.03s-.02.07-.02.07v.07s-.02.03-.02.03v.03Z"/>
      <polygon class="st0" points="67.49 33.91 63.49 34 63.44 32.15 64.83 30.92 67.49 33.91"/>
    </g>
    <g>
      <path class="st2" d="M35.02,36.7l.04-.02.05-.02.1-.02h.05s.05-.03.05-.03l.04-.02h.02s.02-.03.02-.03l.02-.02v-.02s.02-.02.02-.02v-.03s.02-.06.02-.06v-.06s.03-.12.03-.12l.02-.05v-.02s.03-.02.03-.02l.02-.02h.02s.02-.03.02-.03h.02s.05-.02.05-.02h.05s.05-.03.05-.03l.05-.02h.02s.02-.03.02-.03l.02-.02v-.02s.04-.04.04-.04l.02-.04.02-.09.02-.09v-.05s.03-.05.03-.05v-.03s.01-.03.01-.03v-.02s.02-.03.02-.03v-.06s.01-.06.01-.06c0-.04,0-.08,0-.12v-.03s.01-.03.01-.03v-.02s.02-.02.02-.02l.02-.02.02-.02.05-.03.11-.05.05-.03.05-.03.02-.02.02-.02.02-.02v-.02s.04-.06.06-.1l.04-.11c.02-.07.04-.14.06-.21v-.02s0-.02,0-.02v-.02s0-.02,0-.02l-.02-.04-.02-.03-.02-.03-.02-.04v-.02s-.01-.02-.01-.02v-.02s0-.02,0-.02v-.02s.02-.02.02-.02l.02-.02.02-.02s.06-.06.1-.1l.05-.05.04-.05.02-.03v-.03s.02-.03.02-.03v-.03s-1,.09-1,.09l-.5.04-.5.04v.02s0,.02,0,.02v.03s.02.03.02.03h0s0,.02,0,.03c0,0,0,.02,0,.02h0s0,.03,0,.03h.01s.03.05.05.07l.02.03v.02s.02.02.02.02v.02s0,.03,0,.03v.03s-.02.03-.02.03c-.03.08-.11.3-.14.39v.03s-.02.03-.02.03l-.02.03-.02.02-.02.02h-.02s-.04.04-.04.04c-.03.01-.05.02-.08.03l-.03.02h-.01s-.01.02-.01.02h-.01s-.01.02-.01.02c0,0,0,0-.01,0h-.02s-.03,0-.03,0h-.04s-.04-.03-.04-.03h-.04s-.02-.02-.02-.02h-.02s-.02,0-.02,0h-.01s-.02.01-.03.02h-.04s-.06.03-.09.03l.16.47.16.47.33.94h.02s.02-.02.02-.02l.03-.03.07-.07.07-.07.04-.03.04-.03Z"/>
      <path class="st0" d="M33.77,34.07l3.99-.35.29,3.18-1.52.49-1.47.5-.66-1.89-.33-.94-.16-.47-.08-.24-.04-.12-.02-.06v-.03s-.02-.01-.02-.01h0s0-.01,0-.01h0s0,0,0,0c.02-.03.02-.03.02-.04Z"/>
    </g>
  </g>
  <g>
    <path class="st2" d="M39.05,69.62c-.32-.08-.31.2-.63.12-.32-.08-.44-.37-.75-.45-.32-.08-.34.02-.66-.07-.31-.09-.26-.33-.57-.42-.31-.09-.45.09-.76,0-.31-.09-.35.4-.67.31-.31-.09-.2-.62-.51-.71-.31-.1-.43.02-.74-.08-.31-.1-.09-.42-.4-.51-.31-.1-.42.23-.73.13-.31-.1-.3-.14-.61-.25-.31-.11-.24-.36-.55-.46-.31-.11-.48.24-.79.14-.31-.11-.48-.53-.49-.54l-.54,1.5s.46-.01.77.1c.31.11.24.3.56.4.31.11.39-.1.7,0,.31.1.22.35.54.46.31.1.36-.36.67-.26.31.1.36.28.68.38.31.1.24.2.55.3.32.09.41-.08.72.02.32.09.23.42.54.52.32.09.41-.25.72-.16.32.09.29.2.6.29.32.09.28.24.6.32.32.08.39-.32.71-.23.32.08.27.41.59.49.32.08.36-.07.68,0,.32.08.34.36.58.42l.36-1.56c-.24-.06-.25.16-.57.08-.32-.08-.28-.19-.6-.27Z"/>
    <path class="st2" d="M49.3,71.13c-.32,0-.25.28-.58.27-.32-.02-.5-.27-.82-.29-.32-.02-.33.09-.65.08-.32-.03-.31-.28-.63-.31-.32-.03-.42.17-.74.13-.32-.03-.28.47-.61.42-.32-.05-.3-.58-.62-.63-.32-.05-.42.09-.74.04-.32-.06-.14-.4-.46-.46-.32-.06-.38.28-.7.23-.32-.06-.31-.1-.63-.16-.32-.07-.28-.33-.6-.39-.32-.07-.44.3-.76.23-.32-.07-.54-.48-.55-.48l-.36,1.56s.45-.06.78,0c.32.07.28.26.6.33.33.07.37-.15.69-.08.32.06.27.32.6.38.33.06.31-.41.63-.35.32.06.4.24.73.29.33.05.27.16.6.21.33.05.39-.14.72-.09.33.05.29.38.63.42.33.03.36-.31.69-.28.33.03.32.15.65.18.33.02.32.17.66.18.34.02.32-.39.65-.38.33.02.36.33.69.34.33,0,.33-.16.67-.16.33,0,.42.27.67.26l-.05-1.6c-.24.01-.2.21-.53.22-.32,0-.32-.12-.64-.12Z"/>
    <path class="st2" d="M59.72,70.21c-.32.04-.22.3-.54.35-.32.04-.55-.18-.87-.13-.32.04-.31.15-.63.19-.32.04-.36-.2-.69-.16-.32.04-.38.25-.7.29-.32.04-.17.52-.49.55-.33.03-.43-.49-.75-.46-.32.03-.39.19-.71.22-.32.03-.24-.34-.57-.32-.32.02-.3.37-.62.4-.32.03-.33-.02-.65,0-.32.03-.36-.23-.68-.22-.32.01-.35.4-.67.42-.33.02-.64-.31-.66-.31l.05,1.6s.42-.19.75-.2c.33-.02.34.18.67.17.33-.01.32-.24.65-.26.33-.03.34.24.67.21.33-.03.19-.48.52-.5.33-.02.45.12.77.09.33-.03.3.09.63.06.33-.03.35-.23.67-.26.33-.03.37.3.7.26.33-.04.28-.39.6-.43.33-.04.34.08.67.04.33-.04.35.11.67.06.33-.04.24-.44.57-.49.33-.04.4.27.73.23.33-.04.3-.2.63-.25.32-.05.44.21.69.17l-.24-1.58c-.24.04-.18.24-.5.29-.32.05-.34-.07-.66-.03Z"/>
    <path class="st2" d="M70.09,68.43c-.32.06-.2.32-.52.38-.32.06-.56-.14-.88-.08-.32.06-.3.17-.62.23-.32.06-.37-.18-.7-.12-.32.06-.36.28-.68.34-.32.06-.14.52-.46.58-.32.06-.46-.46-.78-.4-.32.05-.37.21-.7.27-.32.06-.27-.33-.59-.28-.32.05-.27.4-.59.45-.32.05-.33,0-.65.06-.32.05-.38-.2-.7-.15-.32.05-.31.44-.63.49-.32.05-.68-.25-.7-.24l.24,1.58s.4-.23.72-.28c.32-.05.35.15.68.09.33-.05.29-.27.62-.32.32-.05.36.21.69.16.32-.05.15-.49.47-.55.32-.06.45.08.77.03.32-.06.31.07.63.02.32-.06.33-.25.65-.31.32-.06.39.28.71.22.32-.06.25-.4.58-.46.32-.06.34.05.67,0,.32-.06.35.09.67.03.32-.06.21-.46.54-.52.32-.06.42.25.74.19.32-.06.29-.22.61-.28.32-.06.45.19.7.14l-.32-1.57c-.24.05-.17.25-.49.31-.32.06-.34-.06-.66,0Z"/>
    <path class="st2" d="M72.11,60.17c0,.25.27.2.26.46,0,.25-.26.39-.26.65,0,.25.1.25.1.51,0,.25-.25.25-.26.5,0,.25.2.32.2.57,0,.25.49.18.48.44,0,.25-.54.28-.55.53,0,.25.14.32.14.57,0,.25-.37.15-.38.41,0,.25.34.26.34.52,0,.25-.05.25-.05.5,0,.25-.27.26-.27.51,0,.25.38.3.37.55,0,.25-.35.48-.35.49l1.6.03s-.16-.33-.15-.58c0-.25.2-.25.21-.5,0-.25-.22-.26-.21-.51,0-.25.27-.24.28-.49,0-.25-.46-.19-.45-.44,0-.25.17-.33.17-.58,0-.25.13-.22.13-.47,0-.25-.19-.28-.18-.54,0-.25.35-.25.35-.5,0-.25-.34-.25-.34-.5,0-.25.12-.25.13-.5,0-.25.16-.25.16-.5,0-.25-.4-.24-.4-.49,0-.25.33-.27.34-.52,0-.25-.15-.25-.14-.51,0-.25.28-.31.28-.5l-1.6-.03c0,.19.21.17.2.42,0,.25-.13.25-.13.5Z"/>
    <path class="st2" d="M72.29,52.06c0,.25.27.2.26.46,0,.25-.26.39-.26.65,0,.25.1.25.1.51,0,.25-.25.25-.26.5,0,.25.2.32.2.57,0,.25.49.18.48.44,0,.25-.54.28-.55.53,0,.25.14.32.14.57,0,.25-.37.15-.38.41,0,.25.34.26.34.52,0,.25-.05.25-.05.5,0,.25-.27.26-.27.51,0,.25.38.3.37.55,0,.25-.35.48-.35.49l1.6.03s-.16-.33-.15-.58c0-.25.2-.25.21-.5,0-.25-.22-.26-.21-.51,0-.25.27-.24.28-.49,0-.25-.46-.19-.45-.44,0-.25.17-.33.17-.58,0-.25.13-.22.13-.47,0-.25-.19-.28-.18-.54,0-.25.35-.25.35-.5,0-.25-.34-.25-.34-.5,0-.25.12-.25.13-.5,0-.25.16-.25.16-.5,0-.25-.4-.24-.4-.49,0-.25.33-.27.34-.52,0-.25-.15-.25-.14-.51,0-.25.28-.31.28-.5l-1.6-.03c0,.19.21.17.2.42,0,.25-.13.25-.13.5Z"/>
    <path class="st2" d="M62.26,51.86c.32-.05.21-.31.52-.35.31-.05.54.17.85.12.31-.05.3-.16.61-.21.31-.05.36.19.68.14.31-.05.35-.27.67-.33.31-.06.13-.52.44-.58.31-.06.45.46.76.41.31-.06.36-.22.67-.28.31-.06.27.33.58.27.31-.06.25-.4.56-.46.31-.06.32-.02.63-.08.31-.06.38.19.69.13.31-.07.28-.45.59-.52.31-.06.67.21.69.2l-.34-1.56s-.36.25-.67.31c-.31.06-.35-.13-.65-.07-.31.06-.26.28-.57.34-.31.06-.35-.2-.66-.14-.31.06-.13.49-.43.55-.31.06-.44-.08-.74-.02-.31.06-.29-.07-.6-.01-.31.05-.31.25-.62.31-.31.06-.38-.28-.68-.23-.31.06-.24.4-.55.45-.31.05-.33-.06-.64-.01-.31.05-.33-.1-.64-.05-.31.05-.22.45-.53.49-.31.05-.39-.27-.7-.23-.31.05-.29.2-.6.25-.31.05-.42-.21-.66-.18l.22,1.59c.24-.03.18-.23.49-.28.32-.05.33.08.64.03Z"/>
    <path class="st2" d="M52.05,52.8c.32,0,.24-.28.56-.29.32,0,.51.23.83.22.32-.01.31-.13.63-.14.32-.02.34.22.66.21.32-.02.38-.23.7-.25.32-.02.18-.51.5-.53.31-.03.41.5.72.47.32-.03.38-.18.7-.21.32-.03.24.35.56.32.32-.04.29-.38.6-.42.32-.04.32,0,.64-.03.32-.04.36.22.68.18.32-.04.31-.43.63-.47.31-.04.65.26.67.26l-.22-1.59s-.38.22-.69.26c-.31.04-.33-.16-.64-.12-.31.04-.29.26-.6.29-.31.03-.34-.23-.65-.2-.31.03-.17.48-.48.52-.31.04-.43-.11-.74-.09-.31.03-.29-.1-.6-.07-.31.03-.33.22-.64.25-.31.03-.35-.31-.66-.29-.31.02-.28.37-.59.39-.31.02-.32-.1-.63-.08-.31.02-.32-.13-.63-.12-.31,0-.26.41-.58.42-.31,0-.35-.32-.66-.31-.31,0-.31.17-.62.17-.31,0-.39-.27-.62-.28v1.6c.23,0,.2-.21.52-.21.32,0,.32.12.64.11Z"/>
    <path class="st2" d="M41.8,51.88c.31.05.29-.23.61-.17.31.05.46.33.77.38.32.05.33-.06.65-.01.31.05.29.29.6.34.32.05.42-.15.74-.11.32.04.28-.46.59-.42.31.04.3.58.61.61.32.03.41-.11.73-.08.32.03.17.39.49.42.32.03.35-.31.67-.29.32.02.32.06.64.08.32.02.33.28.65.3.32.01.38-.38.7-.37.32,0,.61.35.63.35v-1.6s-.4.16-.71.16c-.31,0-.31-.19-.61-.21-.31-.02-.32.2-.63.19-.31-.02-.29-.28-.59-.3-.31-.02-.25.44-.56.42-.31-.03-.39-.2-.7-.23-.31-.03-.26-.15-.57-.18-.31-.04-.37.15-.68.11-.31-.04-.27-.38-.58-.42-.31-.04-.35.31-.66.26-.31-.05-.29-.16-.6-.21-.31-.05-.29-.2-.59-.24-.31-.05-.34.36-.65.31-.31-.05-.29-.38-.59-.43-.31-.05-.34.1-.64.05-.31-.05-.33-.34-.57-.38l-.29,1.57c.23.04.24-.17.56-.11.31.05.29.18.6.23Z"/>
    <path class="st2" d="M31.81,49.7c.31.08.31-.2.62-.13.31.08.43.36.74.44.31.07.33-.03.64.04.31.07.26.32.57.39.31.07.43-.11.74-.04.31.07.32-.43.63-.36.31.07.23.6.54.67.31.07.42-.06.73,0,.31.07.12.41.43.47.31.07.39-.27.7-.21.31.06.3.11.61.17.31.06.28.32.59.39.31.06.43-.31.74-.25.31.06.54.45.56.46l.29-1.57s-.43.09-.74.03c-.31-.06-.27-.25-.58-.31-.31-.06-.35.15-.66.09-.31-.06-.25-.32-.55-.39-.31-.06-.31.41-.62.34-.31-.07-.37-.24-.68-.31-.31-.07-.24-.18-.55-.25-.31-.07-.38.11-.69.04-.31-.07-.24-.41-.54-.48-.31-.07-.38.27-.68.2-.31-.07-.28-.19-.58-.26-.31-.07-.27-.22-.57-.29-.3-.08-.37.33-.68.25-.31-.08-.26-.4-.56-.48-.3-.08-.34.07-.65,0-.3-.08-.31-.36-.54-.42l-.41,1.55c.23.06.25-.15.56-.07.31.08.27.2.58.28Z"/>
    <path class="st2" d="M29.56,57.3c0-.25-.27-.19-.27-.44,0-.25.25-.39.24-.64,0-.25-.11-.25-.11-.49,0-.25.24-.25.24-.5,0-.25-.21-.3-.21-.55,0-.25-.49-.17-.49-.41,0-.24.53-.28.53-.53,0-.24-.15-.3-.15-.55,0-.25.37-.16.37-.4,0-.25-.35-.25-.35-.49,0-.25.04-.25.04-.49,0-.25.26-.26.26-.5,0-.25-.39-.28-.39-.52,0-.25.34-.48.34-.49h-1.6s.17.32.17.57c0,.24-.2.24-.2.49,0,.25.22.25.22.49,0,.24-.26.24-.26.49,0,.24.46.17.46.41,0,.24-.16.32-.16.57,0,.24-.12.22-.12.46,0,.25.19.27.2.52,0,.24-.34.25-.34.5,0,.24.35.24.35.48,0,.24-.11.25-.11.49,0,.24-.15.25-.15.49,0,.25.41.22.41.46,0,.24-.32.27-.32.52,0,.24.16.24.16.49,0,.24-.27.31-.27.49h1.6c0-.19-.21-.17-.21-.41,0-.25.12-.24.12-.49Z"/>
    <path class="st2" d="M29.6,65.21c0-.25-.27-.19-.27-.44,0-.25.25-.39.24-.64,0-.25-.11-.25-.11-.49,0-.25.24-.25.24-.5,0-.25-.21-.3-.21-.55,0-.25-.49-.17-.49-.41,0-.24.53-.28.53-.53,0-.24-.15-.3-.15-.55,0-.25.37-.16.37-.4,0-.25-.35-.25-.35-.49,0-.25.04-.25.04-.49,0-.25.26-.26.26-.5,0-.25-.39-.28-.39-.52,0-.25.34-.48.34-.49h-1.6s.17.32.17.57c0,.24-.2.24-.2.49,0,.25.22.25.22.49,0,.24-.26.24-.26.49,0,.24.46.17.46.41,0,.24-.16.32-.16.57,0,.24-.12.22-.12.46,0,.25.19.27.2.52,0,.24-.34.25-.34.5,0,.24.35.24.35.48,0,.24-.11.25-.11.49,0,.24-.15.25-.15.49,0,.25.41.22.41.46,0,.24-.32.27-.32.52,0,.24.16.24.16.49,0,.24-.27.31-.27.49h1.6c0-.19-.21-.17-.21-.41,0-.25.12-.24.12-.49Z"/>
    <g>
      <path class="st2" d="M73.35,67.67v.04s0,.04,0,.04v.08s0,.08,0,.08v.04s-.02.04-.02.04v.02s-.02.02-.02.02h-.01s-.02.03-.02.03l-.04.02-.04.02-.09.04-.04.03h-.02s-.01.03-.01.03v.02s-.02.02-.02.02v.02s0,.02,0,.02v.09s0,.04,0,.04v.04s0,.02,0,.02v.02s-.02.02-.02.02v.02s-.04.03-.04.03l-.03.02-.06.04-.07.04-.07.04h-.02s-.02.02-.02.02h-.02s-.02.03-.02.03l-.04.02-.04.02-.09.03-.04.02h-.02s-.01.03-.01.03v.02s-.02.02-.02.02v.04s-.03.1-.03.1v.05s-.02.04-.02.04v.02s-.02.02-.02.02v.02s-.02.01-.02.01l-.06.06-.07.05s-.1.07-.14.1h-.02s-.02.01-.02.01h-.02s-.02,0-.02,0h-.03s-.03-.01-.03-.01h-.03s-.03-.02-.03-.02h-.02s-.02,0-.02,0h-.02s-.02,0-.02,0h-.02s-.02.02-.02.02v.02s-.03.02-.03.02c-.02.03-.03.06-.05.1l-.03.05-.03.04-.02.02h-.02s-.02.03-.02.03h-.02s-.16-.78-.16-.78l-.08-.39-.08-.39h.02s.01,0,.01,0h.03s.02,0,.02,0h.01s.01,0,.01,0h.01s.01,0,.01,0h.01s.01,0,.01,0l.06.03h.03s.02.01.02.01h.02s.02,0,.02,0h.02s.02-.02.02-.02l.02-.02s.08-.06.13-.09c.02-.02.05-.04.07-.05h.01s0-.02,0-.02h0s0,0,0,0h0s0,0,0,0h0s0,0,0,0h0s0,0,0,0l.03-.02.02-.02.02-.02.02-.02v-.02s.02-.02.02-.02v-.02s.01-.03.01-.03c0-.02,0-.04,0-.06v-.03s0-.01,0-.01h0s0-.02,0-.02h0s0-.02,0-.02h0s-.01-.04-.01-.04l-.02-.02-.04-.05h0s0-.02,0-.02h0s0-.02,0-.02c0,0,0-.02,0-.03v-.03s0-.05,0-.07h.4s.4.02.4.02l.8.02s0,0,0,.02v.02s-.01.03-.01.03l-.03.07-.04.07-.02.04v.04Z"/>
      <path class="st0" d="M71.07,67.34s.01,0,.02-.01h0s0,0,0,0h0s0,0,0,0h0s0,.04,0,.04v.05s.03.1.03.1l.04.2.08.39.16.78.32,1.57,2.49-.53.05-2.53-3.2-.07Z"/>
    </g>
    <g>
      <path class="st2" d="M71.34,48.76h.06s.06-.02.06-.02l.13-.03.13-.03h.06s.06-.01.06-.01h.03s.03,0,.03,0h.03s.03.02.03.02l.05.03.05.03.09.07.05.03h.03s.03.02.03.02h.03s.03,0,.03,0h.07s.09-.04.14-.05l.07-.02h.07s.03-.02.03-.02h.03s.03,0,.03,0h.03s.05.02.05.02l.04.02.08.05.08.05.04.02.05.02h.02s.01.02.01.02h0s0,0,0,0h0s0,.03,0,.03v.03s.02.07.02.07v.08c0,.05.01.1.02.15v.07s.02.03.02.03v.03s.03.02.03.02l.02.02.02.02.02.02.04.03.05.03.04.03.04.03.02.02.02.02v.02s.03.03.03.03c.01.04.03.08.04.12l.04.13c.02.09.04.18.06.26v.03s0,.03,0,.03v.03s0,.02,0,.02v.05s-.03.05-.03.05l-.03.09v.05s0,.03,0,.03v.03s0,.03,0,.03v.03s.02.03.02.03l.02.03s.05.08.08.12l.04.06.04.06v.03s.02.03.02.03v.03s0,.03,0,.03l-.8-.02h-.4s-.4-.02-.4-.02c0-.02,0-.04,0-.05v-.04s.02-.04.02-.04v-.02s0-.02,0-.02v-.02s0-.02,0-.02v-.04s.04-.05.05-.08l.02-.05v-.03s.01-.03.01-.03v-.03s0-.03,0-.03v-.04s-.02-.04-.02-.04c-.01-.05-.04-.14-.06-.24-.01-.05-.02-.09-.04-.13v-.03s-.01-.01-.01-.01h0s0,0,0,0h0s-.02-.01-.02-.01h0s-.02-.02-.02-.02h-.02s-.03-.03-.03-.03h-.03s-.03-.02-.03-.02h-.03s-.06,0-.06,0h-.06s-.07.02-.11.03h-.05s-.02,0-.02,0h-.02s-.02,0-.02,0h-.02s-.02,0-.02,0h-.02s-.04.03-.04.03l-.03.03-.07.06-.04.02h-.02s-.02.01-.02.01c-.01,0-.03,0-.04,0h-.05s-.08.04-.11.04l-.09-.39-.09-.39-.17-.78h.05s.05,0,.05,0c.04,0,.08,0,.12,0h.13s.06.01.06.01h.06Z"/>
      <path class="st0" d="M71.41,51.13l3.21.06.09-4.17-2.03.5-1.99.45.34,1.56.17.78.09.39.04.2.02.1v.05s.02.02.02.02h0s0,.02,0,.02h0s0,0,0,0h0s.03.02.04.04Z"/>
    </g>
    <g>
      <path class="st2" d="M28.12,49.83v-.06s0-.07,0-.07v-.13s-.01-.13-.01-.13v-.06s.01-.06.01-.06v-.03s.02-.03.02-.03v-.02s.03-.02.03-.02l.04-.04.04-.04.08-.08.04-.04v-.02s.03-.03.03-.03v-.03s.01-.03.01-.03v-.07s0-.1,0-.15v-.07s0-.07,0-.07v-.03s0-.03,0-.03v-.03s.02-.03.02-.03l.03-.05.03-.04.06-.07.07-.06.03-.04.03-.04.02-.02h.01s0-.01,0-.01h0s0,0,0,0h.03s.03,0,.03,0h.07s.08.02.08.02c.05,0,.1.02.15.03h.07s.03,0,.03,0h.03s.03-.01.03-.01h.03s.02-.02.02-.02l.02-.02.04-.03.04-.04.04-.04.04-.03h.02s.02-.02.02-.02h.03s.03-.01.03-.01c.04,0,.08,0,.13,0h.14c.1,0,.19,0,.27,0h.03s.03,0,.03,0h.03s.02.02.02.02l.04.02.04.03.09.05.05.02h.03s.03.01.03.01h.03s.03,0,.03,0h.03s.03-.01.03-.01c.04-.02.09-.03.13-.05l.07-.03.07-.02h.03s.03,0,.03,0h.03s.03,0,.03,0l-.2.77-.1.39-.1.39s-.04-.01-.05-.02l-.04-.02-.03-.02h-.02s-.02-.01-.02-.01h-.02s-.02-.01-.02-.01l-.04-.02s-.05-.04-.07-.06l-.04-.03h-.02s-.03-.02-.03-.02h-.03s-.03-.01-.03-.01h-.04s-.04,0-.04,0c-.05,0-.15,0-.25,0-.05,0-.1,0-.14,0h-.03s-.01,0-.01,0h0s0,0,0,0h-.02s0,.01,0,.01h-.02s-.01.03-.01.03l-.02.03-.02.03v.03s-.03.03-.03.03v.06s-.02.06-.02.06c0,.04,0,.08,0,.11v.05s0,.02,0,.02v.02s-.01.02-.01.02v.02s0,.02,0,.02v.02s.02.04.02.04l.02.04.04.08v.04s.02.02.02.02v.02s0,.03,0,.04v.06s0,.08,0,.12h-.4s-.4,0-.4,0h-.8s0-.05,0-.05v-.06s.03-.08.04-.12l.04-.12v-.06s.02-.06.02-.06Z"/>
      <path class="st0" d="M30.42,50.29s.03-.01.04-.02h0s0,0,0,0h0s0,0,0,0h0s0-.04,0-.04v-.05s.04-.1.04-.1l.05-.19.1-.39.2-.77.41-1.55-2.03-.55-2.05-.59.02,4.27,3.2-.02Z"/>
    </g>
    <g>
      <path class="st2" d="M29.46,68.14l-.03-.02h-.03s-.07-.03-.07-.03h-.03s-.03-.02-.03-.02l-.03-.02h-.01s-.01-.02-.01-.02h-.01s0-.03,0-.03v-.02s-.01-.02-.01-.02v-.04s-.01-.05-.01-.05v-.09s-.02-.04-.02-.04v-.02s-.02-.02-.02-.02h-.01s-.01-.02-.01-.02h-.01s-.02-.02-.02-.02h-.04s-.04-.02-.04-.02h-.04s-.03-.02-.03-.02h-.01s-.01-.02-.01-.02h-.01s0-.03,0-.03v-.03s-.02-.04-.02-.04v-.07s-.02-.07-.02-.07c0-.02,0-.05-.01-.08v-.04s-.01-.02-.01-.02v-.02s-.02-.04-.02-.04v-.04s-.02-.08-.02-.08v-.02s-.01-.02-.01-.02v-.02s-.02-.01-.02-.01h-.02s-.02-.02-.02-.02l-.04-.02-.09-.03-.09-.03-.04-.02h-.01s-.01-.02-.01-.02l-.04-.06-.04-.07s-.05-.1-.07-.14h0s0-.03,0-.03h0s0-.03,0-.03v-.02s.03-.02.03-.02l.02-.02v-.03s.02-.01.02-.01h0s0-.03,0-.03c0,0,0-.01,0-.02v-.02s-.02-.02-.02-.02h-.01s-.02-.03-.02-.03c-.03-.02-.05-.04-.08-.06l-.04-.03-.04-.03v-.02s-.03-.02-.03-.02v-.02s0-.02,0-.02h.8s.4,0,.4,0h.4s0,.01,0,.01h0s0,.03,0,.03v.02s0,0,0,0h0s0,.02,0,.02h0s0,.02,0,.02h0s-.04.05-.04.05l-.02.03s0,0,0,.01c0,0,0,0,0,.01v.02s0,.02,0,.02v.02s.02.02.02.02c.01.03.04.07.06.12.01.02.03.05.04.07h.01s0,.02,0,.02h0s0,0,0,0h0s0,0,0,0c0,0,0,0-.01-.01h0s0,0,0,0h0s0,.04,0,.04v.03s.01.02.01.02v.02s.02.02.02.02h.01s.01.02.01.02l.03.02.05.02h.02s0,.02,0,.02h0s0,.02,0,.02h0s0,0,0,0h.01s.02,0,.02,0h.03s.05-.04.05-.04h.01s.01,0,.01,0h.01s0,0,0,0h.02s.03.02.03.02c.02,0,.04.01.06.02l-.14.38-.14.38-.27.75h-.01s-.01-.01-.01-.01l-.02-.02-.05-.05-.05-.06-.03-.03-.03-.02Z"/>
      <path class="st0" d="M30.49,66.1h-3.19s.01,2.19.01,2.19l1.02.39,1.06.39.54-1.5.27-.75.14-.38.07-.19.03-.09.02-.05v-.02s.01-.01.01-.01h0s0,0,0,0h0s0,0,0,0c.02.02.01.02.02.03Z"/>
    </g>
  </g>
  <g>
    <path class="st2" d="M54.5,27.7c.31-.03.22-.29.53-.32.31-.03.51.2.82.17.31-.03.3-.14.6-.17.31-.03.34.21.65.17.31-.04.35-.25.66-.3.31-.04.14-.51.45-.56.31-.05.57.45,1.01.37.42-.09.41-.23.78-.32.38-.09.63.22,1.05.1.4-.14-.05-.36.28-.47.32-.12.38-.1.67-.24.28-.14.65-.07.88-.25.21-.19-.24-.27-.02-.47.23-.18.61-.52.61-.55l-3.18.07s.43.21.25.31c-.16.1-.68.02-.8.08-.13.05.36.17.18.23-.19.06-.68-.11-.8-.07-.13.03.62.35.4.4-.23.05-.47-.06-.66-.03-.19.04-.26-.08-.43-.04-.16.03-.11.22-.32.25-.27.04-.35-.29-.63-.25-.29.04-.24.39-.54.43-.3.04-.31-.08-.61-.04-.3.03-.31-.12-.61-.09-.3.03-.23.43-.53.46-.3.03-.36-.3-.66-.27-.3.02-.29.18-.59.2-.3.02-.39-.25-.62-.23l.09,1.6c.23-.01.19-.22.5-.24.31-.02.31.1.62.08Z"/>
    <path class="st2" d="M44.58,27.72c.31.03.26-.25.57-.23.31.02.47.28.78.3.31.02.31-.09.62-.08.31.01.31.26.62.27.31.01.39-.2.7-.19.31,0,.22-.49.53-.48.3,0,.34.54.65.54.31,0,.38-.15.69-.15.31,0,.2.37.51.37.31,0,.31-.35.61-.36.31,0,.31.04.62.03.31-.01.33.25.64.24.31-.01.33-.4.64-.42.31-.02.61.31.63.31l-.09-1.6s-.38.19-.68.2c-.3.01-.31-.19-.61-.17-.3.01-.29.23-.6.24-.3,0-.3-.26-.6-.25-.3,0-.2.46-.5.47-.3,0-.4-.15-.7-.15-.3,0-.27-.12-.57-.12-.3,0-.34.19-.64.19-.3,0-.3-.34-.6-.35-.3,0-.3.34-.6.33-.3-.01-.3-.13-.6-.14-.3-.01-.29-.16-.59-.18-.3-.02-.29.39-.6.37-.3-.02-.31-.35-.61-.37-.3-.03-.31.13-.61.1-.28-.03-.39-.31-.52-.32l-.26,1.58c.32.03.25-.18.58-.15.31.03.29.15.6.18Z"/>
    <path class="st2" d="M41.74,23.36c-.42.1-.06.29-.41.38-.35.09-.88,0-1.22.14-.32.14-.17.19-.45.33-.27.14-.62.07-.84.25-.21.19,0,.26-.2.47-.14.25.37.18.29.47,0,.15-.08.25-.17.33-.09.09-.2.17-.1.28.2.2.44.2.69.35.26.14-.34.22-.08.38.29.16.78-.02,1.1.09.34.1.27.13.64.23.37.09.11.3.55.39.45.09.79-.25,1.16-.19.36.05.67.43.71.44l.26-1.58s-.25.14-.45.11c-.19-.03-.03-.21-.17-.23-.14-.02-.4.17-.59.13-.19-.04.22-.24.09-.27-.13-.03-.94.31-1.16.25-.22-.06.07-.18-.1-.25-.18-.08.16-.12.01-.21-.12-.1-.75-.07-.77-.28.06-.21,1.09-.15,1.19-.24.11-.07-.8-.19-.6-.28.2-.08.46-.02.63-.08.18-.06.47.04.62,0,.14-.04-.5-.33-.26-.38.24-.05.64.2.8.17.17-.03.05-.17.25-.21.21-.04.35.21.46.2l-.34-1.57c-.34.06-.23.25-.63.32-.4.08-.49-.03-.91.06Z"/>
    <path class="st2" d="M52.13,22.42c-.31,0-.24.27-.55.28-.31,0-.49-.24-.8-.23-.31,0-.31.12-.61.12-.31.01-.32-.23-.63-.22-.31.01-.37.22-.68.24-.31.02-.19.5-.49.52-.3.02-.38-.51-.69-.49-.31.02-.37.17-.68.2-.31.03-.23-.35-.54-.33-.31.03-.28.37-.59.41-.31.03-.31-.01-.62.02-.31.03-.35-.22-.66-.18-.31.04-.3.43-.61.47-.3.04-.63-.25-.7-.24l.34,1.57s.32-.22.61-.26c.3-.04.32.16.62.12.3-.04.27-.26.57-.29.3-.03.32.23.62.2.3-.03.16-.48.46-.51.3-.03.41.12.71.1.3-.02.27.1.57.08.3-.02.32-.21.62-.23.3-.02.33.32.63.31.3-.01.28-.36.58-.38.3-.01.31.1.61.09.3,0,.31.14.61.13.3,0,.26-.41.57-.42.3,0,.34.32.64.32.3,0,.3-.16.6-.16.3,0,.37.27.6.27l.02-1.6c-.23,0-.2.21-.51.21-.31,0-.3-.12-.61-.12Z"/>
    <path class="st2" d="M62.76,24c-.23-.17-.54-.04-.81-.17-.28-.12-.1-.31-.43-.44-.35-.12-.49-.04-.85-.14-.37-.08-.12-.29-.56-.38-.44-.09-.7.09-1.1.03-.42-.06-.48.43-.8.39-.32-.04-.3-.57-.61-.6-.31-.03-.4.11-.7.09-.31-.02-.17-.39-.48-.41-.31-.02-.34.33-.64.31-.31-.02-.31-.06-.61-.07-.31-.01-.31-.27-.62-.28-.31-.01-.36.38-.67.37-.31,0-.59-.35-.61-.35l-.02,1.6s.39-.16.69-.15c.3,0,.29.21.59.22.3,0,.31-.21.61-.2.3.01.28.28.58.3.3.02.24-.45.54-.43.3.02.38.19.68.21.3.03.25.14.55.17.28.03.39-.16.61-.13.22.02.09.35.22.37.13.02.39-.3.61-.27.21.03.08.13.26.17.19.04-.04.16.11.19.14.03.89-.26,1.12-.19.24.07-.47.27-.32.33.16.06.56,0,.74.1.17.13-.59.23-.57.33l3.18-.07c-.05-.25-.25-.23-.42-.47-.2-.21-.05-.22-.27-.4Z"/>
  </g>
  <g>
    <path class="st2" d="M40.12,32.16c-.16.02-.31.08-.42.17-.11.09-.19.21-.23.35-.05.14-.04.28,0,.41.04.14.1.29.22.4.12.11.29.18.46.24l.47-1.53c-.16-.05-.33-.07-.49-.05Z"/>
    <path class="st2" d="M50.41,33.89c-.35-.01-.28.26-.64.25-.35,0-.54-.28-.89-.3-.35-.02-.36.09-.71.06-.35-.03-.34-.28-.68-.31-.35-.04-.45.16-.8.11-.35-.04-.31.45-.66.4-.35-.05-.32-.59-.66-.64-.34-.06-.45.07-.8,0-.35-.07-.15-.41-.49-.47-.34-.07-.42.27-.76.19-.34-.08-.33-.12-.67-.2-.34-.08-.3-.34-.63-.43-.34-.09-.49.27-.83.17-.34-.1-.55-.52-.57-.53l-.47,1.53s.5-.02.84.08c.35.1.29.29.65.38.35.09.41-.12.76-.04.35.08.28.34.64.42.35.08.35-.4.7-.32.35.07.43.25.79.32.35.06.29.18.65.24.36.06.43-.12.79-.07.36.05.32.39.68.44.36.05.39-.31.75-.27.36.04.35.15.71.19.36.03.35.18.71.2.36.02.35-.38.71-.36.36.01.38.34.74.35.36.01.37-.14.73-.14.36,0,.45.27.72.27v-1.6c-.27,0-.24.21-.59.21-.35,0-.35-.12-.7-.14Z"/>
    <path class="st2" d="M61.56,32.51c-.34.09-.19.33-.54.43-.34.09-.6-.1-.94-.02-.34.08-.32.18-.66.26-.34.08-.4-.16-.74-.1-.34.06-.39.29-.73.35-.35.06-.16.52-.51.58-.35.06-.48-.47-.83-.42-.35.05-.41.21-.76.25-.35.04-.27-.34-.61-.3-.35.03-.32.38-.67.41-.35.03-.35,0-.7.01-.35.02-.38-.24-.73-.22-.35.02-.38.4-.74.41-.35.01-.68-.33-.7-.33v1.6s.48-.17.84-.18c.36-.01.37.19.73.17.36-.02.35-.24.71-.26.36-.02.37.24.74.21.36-.03.21-.48.57-.51.36-.04.49.1.85.06.36-.04.33.08.69.03.36-.05.37-.24.73-.3.35-.06.42.27.78.21.36-.06.28-.41.64-.48.35-.07.38.05.73-.03.35-.08.39.07.74-.01.35-.09.22-.47.57-.56.35-.09.46.21.81.12.35-.1.31-.25.65-.35.35-.1.51.13.77.05l-.48-1.53c-.25.08-.15.27-.49.37-.34.1-.37-.02-.71.08Z"/>
    <path class="st2" d="M63.66,32.18c-.12-.09-.27-.13-.43-.15-.15-.02-.31-.02-.47.03h0s.48,1.53.48,1.53h0c.17-.05.33-.13.44-.24.12-.11.2-.26.24-.4.04-.14.04-.29,0-.42-.05-.14-.14-.26-.25-.34Z"/>
  </g>
</svg>