<?xml version="1.0" encoding="UTF-8"?>
<svg id="_レイヤー_1" xmlns="http://www.w3.org/2000/svg" version="1.1" viewBox="0 0 100 100">
  <!-- Generator: Adobe Illustrator 30.0.0, SVG Export Plug-In . SVG Version: 2.1.1 Build 123)  -->
  <defs>
    <style>
      .st0 {
        fill: #1c1917;
      }

      .st1 {
        fill: #fff;
      }
    </style>
  </defs>
  <path class="st1" d="M51.23,19.98c-4.27-.06-10.72,1.25-10.72,1.25-2.18.41-4.62,1.54-6.15,2.34-.95.49-1.57,1.45-1.62,2.52l-.26,5.57c0,.72.48,1.78.94,2.33l.64.78.27,2.77s-7.35,2.44-8.79,3.79c-.58.54-1.21,1.1-1.77,1.59-.95.83-1.49,2.03-1.51,3.29l-.32,27.95c-.01,1.05.48,2.04,1.33,2.65,3.19,2.29,12.06,7.44,27.08,6.99,12.96-.39,20.42-2.37,23.92-3.63,1.5-.54,3.37-3.95,3.45-5.53l.67-29.67c.06-1.19-.42-2.35-1.32-3.12-3.75-3.16-11.58-4.32-11.58-4.32l-.08-2.78,1.21-1.09c.72-.65,1.14-1.58,1.13-2.56l-.03-4.55c0-1.28-.64-2.5-1.72-3.19-3.88-2.48-11.13-3.36-14.76-3.41v.03Z"/>
  <path class="st1" d="M76.28,45.57c.06,4.24-.56,28.12-.56,28.12-.41,1.77-2.52,4.22-4.02,4.76-3.5,1.26-7.37,2.17-20.33,2.55-15.02.45-22.73-4.17-25.91-6.46-.85-.61-1.34-1.6-1.33-2.65l.16-25.79c.17-1.35,1.97-4.75,11.28-7.46,1.6.79,5.7,2.7,14.35,2.6,7.73-.09,11.84-1.67,14.73-2.87,0,0,11.57,2.97,11.63,7.21h0Z"/>
  <path class="st1" d="M26.93,50.93l.22,20.03s12.19,4.65,20.92,4.76c8.72.11,25.12-3.53,25.12-3.53l.32-20.6s-14.18,3.57-24.57,3.33c-8.53-.2-22.01-3.98-22.01-3.98h0Z"/>
  <path class="st0" d="M67.28,82.56c1.82-.37,3.64-.8,5.42-1.34,1.14-.35,2.31-.65,3.2-1.48,1.39-1.29,2.64-3.45,2.76-5.37.18-2.87.13-5.77.2-8.65.16-6.96.42-13.93.47-20.89.03-3.67-4-5.24-6.95-6.25-2.05-.7-4.18-1.25-6.33-1.58l.38.39c-.03-.88-.13-1.8-.08-2.67,0,0-.32.21.08-.06.22-.15.41-.37.6-.54.43-.39.84-.78,1.14-1.29.97-1.67.52-4.35.49-6.21-.06-3.38-3.13-4.61-5.94-5.49-3.19-.99-6.53-1.49-9.86-1.67-3.76-.2-7.54.37-11.23,1.03-.9.16-1.52,1.3-.22,1.06,3.15-.57,6.39-1.09,9.6-1.04,3.04.05,6.11.49,9.05,1.24s6.6,1.77,6.72,5.2c.04.99.01,1.98.02,2.97,0,.89.1,1.82-.27,2.65-.42.93-1.78,1.44-2.06,2.35-.23.75.06,1.96.08,2.75,0,.23.14.35.38.39,1.6.24,3.18.62,4.73,1.07,2.45.72,6.58,1.91,7.57,4.57.33.89.21,1.92.19,2.86l-.1,4.3c-.17,7.56-.34,15.12-.51,22.68-.03,1.18-.11,2.13-.63,3.26-.63,1.36-1.44,2.7-2.91,3.19-1.89.62-3.81,1.1-5.76,1.49-.3.06-1.04.26-1.05.68s.52.45.83.39h0Z"/>
  <path class="st0" d="M24.77,41.19c-1.39,1.29-3.03,2.42-3.38,4.42-.08.43-.07.86-.08,1.3l-.05,4.59c-.06,5.04-.12,10.08-.17,15.12l-.07,5.89c-.01,1.18-.18,2.51.41,3.58.9,1.64,3.36,2.72,4.96,3.54,2.58,1.32,5.32,2.31,8.11,3.06,9.22,2.47,19.06,1.94,28.42.62.92-.13,1.52-1.25.22-1.06-8.3,1.17-16.97,1.69-25.22-.07-4.71-1.01-9.8-2.72-13.69-5.67-1.36-1.03-1.36-2.3-1.34-3.79l.06-5.17c.06-4.85.11-9.7.17-14.55l.07-5.77c0-.37,0-.74.01-1.11.09-2.19,1.61-3.27,3.1-4.64.8-.74-1.06-.7-1.52-.27h0v-.02Z"/>
  <path class="st0" d="M36.81,21.86c-2.1.86-4.81,1.8-5.01,4.43-.11,1.39-.13,2.8-.2,4.19-.02.44-.07.88-.06,1.32,0,1,.49,1.91,1.09,2.68.13.16.27.31.39.48l.14.17c-.04-.09-.06-.1-.04-.04.06.24.05.53.07.77.06.65.13,1.3.19,1.95l.79-.75c-2,.67-3.99,1.4-5.94,2.22-.29.12-.71.44-.48.78s.99.1,1.25,0c1.79-.75,3.61-1.43,5.45-2.04.33-.11.83-.33.79-.75-.05-.55-.11-1.09-.16-1.64-.05-.47,0-.95-.26-1.35-.49-.77-1.09-1.3-1.33-2.25-.12-.48-.07-.93-.05-1.41l.2-4.22c.03-.63.08-1.23.44-1.78.68-1.03,2.4-1.53,3.49-1.98.29-.12.71-.44.48-.78s-.98-.09-1.25.01h.01Z"/>
  <path class="st0" d="M25.99,51.21c.07,6.68.15,13.35.22,20.03.04.09.1.15.19.18,5.79,2.2,12,3.97,18.17,4.62,7.33.77,14.94-.74,22.12-2.08,2.13-.4,4.25-.81,6.36-1.28.27-.06,1.05-.26,1.06-.65.11-6.87.21-13.73.32-20.6,0-.51-.77-.35-1.06-.28-5.33,1.34-10.82,2.3-16.28,2.87-3.95.41-7.89.52-11.84.06s-7.5-1.18-11.19-2.02c-2.14-.49-4.28-1-6.39-1.6-.42-.12-.97-.03-1.32.23-.18.13-.61.56-.16.69,5.53,1.55,11.2,2.81,16.89,3.57,7.96,1.06,15.98.02,23.82-1.48,2.26-.43,4.51-.9,6.74-1.46l-1.06-.28c-.11,6.87-.21,13.73-.32,20.6l1.06-.65c-3.86.86-7.76,1.58-11.66,2.2-6.31,1.01-12.61,1.8-18.97.7-3.33-.57-6.6-1.43-9.83-2.43-1.12-.35-2.23-.71-3.34-1.09-.46-.16-1.17-.28-1.57-.56-.08-.06.13.29.14.06v-.45l-.02-1.99-.07-6.23c-.04-3.75-.08-7.5-.13-11.25,0-.52-1.88-.14-1.87.56h-.01Z"/>
  <path class="st0" d="M55.03,27.89c-3.88.37-7.83.48-11.72.12-.45-.04-5.29-.53-4.73-1.44.34-.56,2.34-.73,2.9-.83,1.74-.32,3.5-.51,5.27-.63,3.77-.26,7.63-.31,11.38.21.71.1,2.7.19,3.16.88.22.33.1.35-.27.54-.94.48-2.16.6-3.18.78-.87.15-1.56,1.19-.25.97,1.63-.28,4.02-.53,5.3-1.74.68-.64.44-1.22-.33-1.61-1.31-.68-3.01-.81-4.46-.96-2.29-.23-4.6-.29-6.89-.25-4.12.07-8.75.18-12.66,1.66-.61.23-2.05.76-1.94,1.64.1.8,1.47,1.08,2.07,1.23,4.97,1.26,10.59.93,15.63.45.34-.03,1.1-.15,1.23-.54.13-.36-.13-.52-.51-.48h0Z"/>
  <path class="st0" d="M48.85,37.08c4.88-.13,9.71-.97,14.46-2.09.35-.08.88-.46.75-.88-.14-.45-.77-.4-1.11-.32-4.41,1.04-8.93,1.85-13.47,1.97-.44,0-1.02.15-1.21.6-.17.4.18.73.58.72h0Z"/>
  <path class="st0" d="M42.74,36.77c1.1.13,2.2.22,3.31.27.25,0,.51-.04.74-.16.17-.09.4-.25.48-.44.17-.42-.18-.7-.58-.72-1.11-.05-2.21-.14-3.31-.27-.24-.03-.53.05-.74.16-.17.09-.4.25-.48.44-.18.44.19.68.58.72h0Z"/>
  <path class="st0" d="M35.95,35.51c1.18.28,2.36.52,3.56.73.22.04.54-.06.74-.16.17-.09.4-.25.48-.44.06-.16.08-.35-.05-.49-.14-.16-.33-.2-.54-.23-.09-.02-.18-.03-.28-.05-.12-.02.16.03.05,0-.04,0-.07,0-.11-.02-.15-.03-.3-.05-.45-.08-.25-.05-.5-.09-.74-.15-.53-.11-1.06-.24-1.59-.37-.24-.06-.48-.05-.71.02-.21.06-.47.2-.61.37-.11.14-.21.33-.15.51s.22.3.4.34h0v.02Z"/>
</svg>