<?xml version="1.0" encoding="UTF-8"?>
<svg id="_レイヤー_1" xmlns="http://www.w3.org/2000/svg" version="1.1" viewBox="0 0 100 110">
  <!-- Generator: Adobe Illustrator 30.0.0, SVG Export Plug-In . SVG Version: 2.1.1 Build 123)  -->
  <defs>
    <style>
      .st0 {
        fill: #ceb372;
      }

      .st1 {
        fill: none;
        stroke: #000;
        stroke-linecap: round;
        stroke-linejoin: round;
      }

      .st2 {
        fill: #1c1917;
      }

      .st3 {
        fill: #231815;
      }

      .st4 {
        fill: #fff;
      }
    </style>
  </defs>
  <g>
    <path class="st0" d="M18.04,62.06c-2.64-.7-4.55.06-5.14,1.54-.94,2.34.48,4.6,1.21,5.71.21.33,4.31,4,4.95,2.96-.13-2.83-.76-8.53-1.01-10.21h-.01Z"/>
    <path class="st0" d="M82.49,59.33c2.95-.91,5.49.26,6.17,2.11,1.09,2.92-1.28,5.44-2.08,6.85-.23.41-4.21,4.55-4.93,3.25.1-3.54.58-10.1.84-12.2h0Z"/>
    <path d="M82.29,56.54c0-.35-.19-.63-.53-.88-3.62-2.56-7.84-4.11-12.22-5.38-3.66-1.07-7.27-2.28-10.97-3.27-2.2-.59-4.36-1.27-6.55-1.87-.27-.08-.5-.18-.68-.35-.39-.37-.87-.38-1.36-.22-2.03.64-4.05,1.29-6.11,1.84-2.95.79-5.92,1.51-8.96,1.99-4.03.63-8,1.47-11.67,3.11-.97.43-4.16,2.36-4.81,2.82-.39.28-.81.55-1.09.93l-.09.02c.21.14.37.5.36.79-.06,1.43.34,2.84.27,4.25-.05.9.23,1.74.22,2.62-.02,1.32.16,2.29.18,2.62.32,5.18,1.04,6.4.86,9.86-.17,3.27-.9,3.96-.24,5.97.71,2.15,2.19,3.53,2.19,3.53,1.44,1.34,2.31,1.07,3.29,2.44.93,1.29.49,1.99,1.46,2.8,1.07.89,2.13.49,2.56,1.34.35.7-.27,1.19.12,2.19.11.28.22.42,1.1,1.34,1.53,1.62,1.58,1.63,1.83,1.95.87,1.13.67,1.6,1.22,2.32.52.68,1.59,1.42,4.02,1.46.92,1.71,1.92,2.32,2.68,2.56.93.29,1.64.06,3.05.61.77.3,1.31.67,1.58.85,1.32.91,1.65,1.69,2.32,2.32,1.29,1.22,3.11,1.17,5.97,1.1,2.12-.05,3.73-.09,5.36-1.1,1.23-.76,1.06-1.18,3.05-2.68,1.58-1.2,1.97-1.12,3.17-2.19,1.51-1.35,1.15-1.66,2.32-2.44,1.04-.69,1.6-.62,3.29-1.71.98-.63,1.2-.92,1.34-1.22.29-.64.08-1.13.49-1.95.21-.43.47-.71.61-.85,1.11-1.17,2.16-.61,3.17-1.58.79-.76,1.02-1.95,1.1-2.32.17-.85,0-1.24.37-1.83.35-.57.74-.6,1.34-1.1.86-.72,1.3-1.7,1.46-2.32.44-1.63-.58-2.3,0-3.66.23-.53.43-.53,1.22-1.46.33-.38,1.44-1.69,1.95-2.92.47-1.13.28-2.56-.12-5.36-.35-2.44-.56-2.41-.61-3.86-.03-.8.11-1.94.3-4.2.17-2.1.31-3.3.34-3.84.05-1.04-.11-2.06-.12-3.09l-.03.02ZM62.52,85.66c-.49.43-.94.91-1.45,1.32-1.03.81-2.16,1.46-3.58,1.74-1.61.31-3.29-.29-3.57-1.74-.09-.47-.17-.94-.33-1.4h-.07c-.24-.12-.51-.08-.75-.04-1.63.22-3.27.08-4.9.07-.68,0-.95.1-1,.72-.04.53-.24,1.02-.42,1.51-.45,1.18-1.34,1.67-2.63,1.35-2.26-.57-4.17-1.65-5.73-3.16-.49-.48-.94-1.98-.61-2.56.55-.98,1.22-1.55,1.89-2.03,1.39-.99,3.06-1.52,4.8-1.93,1.86-.43,3.66-1.55,5.44-2.24.22-.09,3.57,1.66,5.03,1.9,1.18.19,2.31.56,3.48.76,2.22.39,3.97,1.17,4.71,3.14.34.91.66,1.75-.3,2.59h0Z"/>
    <path class="st0" d="M79.5,54.4c.8.21,1.24.67,1.28,1.1.15,1.77-.63,4.73-.79,6.5-.19,2.15-.64,4.75-.92,6.89-.16,1.19-.6,3.06-1.04,4.21-.44,1.18-1.5,2.34-2.17,3.45-.87,1.45-1.28,1.91-2.54,3.14-1.02.99-2.17,1.41-3.75,1.62-.98.13-1.3.22-2.08-.37-1.09-.83-1.97-1.84-3.07-2.67-2.16-1.62-4.71-2.6-7.38-3.38-2.25-.66-4.53-.6-6.8.03-.21.06-.47.07-.67,0-2.36-.74-4.58-.32-6.81.51-3.26,1.2-6.16,2.8-8.46,5.14-.49.49-.84,1.09-1.52,1.51-.81-.27-1.43-.8-2.08-1.26-2.69-1.95-4.92-4.25-6.64-6.89-.77-1.18-3.74-6.69-4.13-8.86-.57-3.17-1.24-10.92-1.41-11.2l9.14-3.87,22.32-5.43,20.85,6.57,8.67,3.27h0Z"/>
    <ellipse cx="36.15" cy="62.09" rx="1.44" ry="2.22" transform="translate(-.4 .23) rotate(-.37)"/>
    <ellipse cx="62.46" cy="61.92" rx="1.44" ry="2.22" transform="translate(-.4 .4) rotate(-.37)"/>
    <path class="st0" d="M53.58,85.58c.16.46.24.93.33,1.4.28,1.44,1.95,2.04,3.57,1.74,1.42-.27,2.55-.93,3.58-1.74.52-.4.96-.89,1.45-1.32.96-.84.65-1.68.3-2.59-.74-1.97-1.43-3.3-3.65-3.68-1.17-.2-2.5-.06-3.68-.25-1.46-.24-2.34-.72-3.58-1.51-.45-.29-2.21-1.55-2.42-1.46-1.78.69-3.3,2.29-5.75,3.26-1.66.66-2.44.82-4.38,2.01-.7.43-1.45.94-1.63,1.24-.89,1.53-.14,2.87.35,3.35,1.56,1.51,3.48,2.59,5.73,3.16,1.29.33,2.17-.17,2.63-1.35.19-.49.38-.98.42-1.51.05-.61.33-.72,1-.72,1.63.01,3.27.15,4.9-.07.24-.03.51-.07.75.05"/>
    <path class="st1" d="M18.84,56.19"/>
    <path class="st4" d="M14.17,55.2c-.83-.4-2.24-1.51-2.88-3.2-.57-1.51-.72-3.99.55-5.63.57-.74,1.2-1,1.24-1.75.06-.89-.78-1.48-1.27-2.06-1.96-2.33-.38-6.82-.02-7.85,1.16-3.32,5.55-10.45,6.18-12.13.6-1.6,2.01-4.33,9.73-9.48,6.21-4.14,9.52-6.34,15-7.9,6.67-1.91,12.12-1.59,15.02-1.39,3.25.22,8.44.61,14.47,3.35,5.9,2.67,9.46,6.16,10.27,6.97,3.57,3.58,5.38,7.08,6.16,8.79,1.58,3.46,3.09,6.74,1.82,9.63-.45,1.03-1.11,1.68-1.41,3.27-.37,2,.4,2.35.36,4.52-.04,1.7-.73,3.44-2.11,6.92-.49,1.22-1.16,8.42-1.22,8.49-1.23,1.57-5.02-4.2-25.04-9.46-9.66-2.54-10.03-3.54-14.41-1.87-13.56,4.64-27.27,4.8-32.46,10.79h.02Z"/>
    <g>
      <path class="st3" d="M39.83,12.09h0s8.35,24.73,8.35,24.73h0l2.71,8.02c.56.1,1.03.19,1.46.28l-3-8.88h0l-8.23-24.39h0l-1.92-5.69c-.42.13-.84.25-1.24.38l1.87,5.55Z"/>
      <path class="st3" d="M52.11,7.95h0s8.29,24.56,8.29,24.56h0l5.41,16.02c.53.16,1.04.32,1.53.48l-5.65-16.74h0l-8.29-24.56h0l-1.34-3.97c-.43.01-.88.03-1.35.06l1.4,4.15Z"/>
      <path class="st3" d="M42.22,5.28s-.08.02-.12.03l1.88,5.57h0l8.23,24.39h0s3.61,10.7,3.61,10.7c.43.1.91.22,1.48.34l-3.81-11.29h0l-8.35-24.73h0l-1.8-5.33c-.37.1-.75.2-1.13.32Z"/>
      <path class="st3" d="M56.2,6.57l8.35,24.73h0s6.4,18.95,6.4,18.95c.55.2,1.07.4,1.57.59l-6.79-20.13h0s-8.23-24.39-8.23-24.39h0s-.83-2.47-.83-2.47c-.42-.03-.88-.06-1.4-.08l.94,2.79h0Z"/>
      <path class="st3" d="M27.61,16.41h0l8.29,24.56h0s2.37,7.02,2.37,7.02c.42-.09.85-.19,1.27-.28l-2.47-7.32h0s-8.29-24.56-8.29-24.56h0l-1.28-3.79c-.38.27-.74.54-1.1.8l1.21,3.57Z"/>
      <path class="st3" d="M19.5,19.39l8.16,24.17h0l2.13,6.31c.42-.1.83-.21,1.26-.3l-2.11-6.24h0s-8.29-24.56-8.29-24.56h0l-.18-.52c-.35.4-.68.78-.98,1.15Z"/>
      <path class="st3" d="M60.35,5.36h0l8.23,24.39h0l7.67,22.72c.6.29,1.16.58,1.66.87l-8.04-23.82h0l-8.35-24.73h0l-.14-.43c-.5-.08-.97-.14-1.43-.19l.41,1.21Z"/>
      <path class="st3" d="M35.8,13.65h0s8.23,24.39,8.23,24.39h0s2.64,7.83,2.64,7.83c.41-.12.83-.24,1.24-.37l-2.6-7.7h0l-8.35-24.73h0s-1.85-5.48-1.85-5.48c-.39.16-.78.34-1.19.53l1.87,5.53Z"/>
      <path class="st3" d="M23.56,44.94l2.05,6.08c.41-.13.81-.26,1.24-.39l-2-5.94h0l-7.51-22.25c-.24.39-.45.74-.64,1.05-.08.14-.16.28-.24.42l7.1,21.03h0Z"/>
      <path class="st3" d="M12.06,35.15c-.09.27-.26.79-.44,1.44l3.81,11.29h0l2.54,7.54s.03.01.04.02h-.01c.3-.37.64-.7,1-1.02l-2.4-7.12h0l-4.32-12.81c-.07.22-.15.45-.22.67Z"/>
      <path class="st3" d="M80.92,25.77h0l6.78,20.08c.21-.77.4-1.55.58-2.33l-6.19-18.34h0l-4.76-14.11c-.54-.41-1.14-.83-1.8-1.27l5.39,15.96Z"/>
      <path class="st3" d="M86.24,23.98l-1.86-5.52c-.67-.98-1.47-2.04-2.42-3.12l3,8.88h0s4.43,13.13,4.43,13.13c.1-.88.15-1.72.15-2.47,0-.29,0-.71-.03-1.23l-3.26-9.67h0Z"/>
      <path class="st3" d="M62.26,47.47l-4.67-13.82h0s-8.29-24.56-8.29-24.56h0l-1.68-4.98c-.42.06-.86.13-1.3.21l1.69,5.02h0l8.29,24.56h0s4.44,13.16,4.44,13.16c.52.14,1.02.28,1.51.42Z"/>
      <path class="st3" d="M43.75,46.68l-2.53-7.51h0l-8.29-24.56h0s-1.7-5.04-1.7-5.04c-.36.22-.74.45-1.13.7l1.55,4.59h0l8.29,24.56h0s2.56,7.59,2.56,7.59c.42-.1.84-.22,1.26-.32Z"/>
      <path class="st3" d="M35.29,48.63l-2.32-6.87h0l-8.23-24.39h0l-.85-2.51c-.37.32-.72.63-1.05.94l.61,1.81h0s8.35,24.73,8.35,24.73h0l2.21,6.55c.42-.09.84-.18,1.27-.27Z"/>
      <path class="st3" d="M20.75,46.08h0l-6.16-18.26c-.26.64-.5,1.28-.72,1.91l5.6,16.59h0s2.14,6.33,2.14,6.33c.37-.2.77-.38,1.18-.56l-2.03-6.02Z"/>
      <path class="st3" d="M12.57,48.84h0s-.57-1.69-.57-1.69c-.37.57-.61,1.22-.73,1.89l.02.05h0l1.6,4.74c.47.24,1.01.44,1.58.62l-1.89-5.61Z"/>
      <path class="st3" d="M83.78,57.2l-1.58-4.69h0l-8.23-24.39h0l-7.64-22.65c-.51-.16-1.02-.31-1.51-.43l7.87,23.33h0s8.35,24.73,8.35,24.73h0l1.31,3.87c.32.47.55.91.72,1.35.18-.13.43-.53.73-1.11Z"/>
      <path class="st3" d="M86.21,50.9l-8.21-24.33h0l-6.42-19.02c-.19-.1-.38-.19-.58-.28-.35-.17-.69-.3-1.03-.44l6.86,20.34h0l8.23,24.39h0s.46,1.37.46,1.37c.23-.64.46-1.31.69-2.02Z"/>
    </g>
    <path class="st2" d="M65.43,38.23c-3.28,2.9-7.47,4.33-11.54,5.67-4.08,1.29-8.22,2.34-12.34,3.39s-8.25,2.07-12.28,3.32c-3.42,1.14-6.95,2.2-9.86,4.33-.4.3-.68.64-1.31.74-1.41.14-.62-1.61.21-2.1,3.01-2.43,6.84-3.56,10.46-4.64,8.22-2.32,16.62-3.72,24.8-6.09,3.97-1.22,8.17-2.46,11.4-5.14.31-.29.8.22.46.52h0Z"/>
    <path class="st2" d="M80.61,56.01c-4.31-3.3-9.53-4.89-14.72-6.23-4.81-1.44-9.74-2.69-14.46-4.48-.33-.11-.68-.23-.92-.29-1.02-.25-.65-1.82.39-1.57,1.2.33,2.74.97,3.9,1.38,6.32,2.15,12.78,4.32,18.9,7.04,2.5,1.01,4.94,2.14,7.42,3.29.64.31.09,1.29-.51.86h0Z"/>
    <path class="st2" d="M13.05,29.17c2.1-5.04,5.07-9.77,9.06-13.49,1.98-1.87,4.14-3.52,6.39-5.03,2.25-1.5,4.61-2.91,7.17-3.89,1.27-.5,2.57-.9,3.86-1.29,1.29-.38,2.57-.79,3.9-1.14,2.64-.68,5.36-1.08,8.09-1.23,5.45-.21,10.96.37,16.24,1.98,5.24,1.62,10.32,4.2,14.48,7.97,2.03,1.8,4.05,3.87,5.58,6.28,1.55,2.39,2.68,5.07,3.28,7.86.64,2.79.68,5.67.51,8.39-.14,2.75-.54,5.54-1.26,8.21-1.41,5.36-3.92,10.37-7.18,14.74-.17.22-.48.27-.7.1-.21-.15-.26-.44-.13-.66,2.69-4.62,4.72-9.57,5.8-14.71.56-2.57.82-5.16.9-7.79.08-2.65-.02-5.21-.6-7.69-.57-2.47-1.58-4.83-2.93-6.98-1.37-2.15-3.09-4.04-5.04-5.86-1.88-1.79-3.94-3.4-6.19-4.73-2.24-1.32-4.66-2.46-7.12-3.37-2.48-.9-5.05-1.58-7.67-2-2.61-.4-5.3-.61-7.95-.59-2.66.03-5.31.35-7.9.98-1.29.31-2.58.7-3.88,1.06-1.29.37-2.58.74-3.83,1.2-2.5.91-4.84,2.23-7.05,3.74-2.22,1.5-4.35,3.13-6.29,4.97-3.89,3.65-6.88,8.28-8.3,13.43-.1.36-.47.56-.82.47-.36-.1-.56-.47-.47-.82,0-.03.02-.05.03-.08v-.02h.02Z"/>
    <path class="st2" d="M17.69,55.65c-1.87-.11-3.67-.57-5.36-1.4-.55-.32-1.17-.67-1.53-1.46-.92-2.39-.68-5.57,1.25-7.34.22-.32.17-.43,0-.73-.3-.46-.75-.72-1.14-1.27-.48-.71-.62-1.45-.71-2.12-.23-3.18.77-6.28,1.75-9.17.34-.97,1.83-.48,1.51.51-.8,2.94-2.25,6.92-.98,9.7.4.53,1.63,1.79,1.38,2.88-.08,1.14-1.29,1.72-1.71,2.47-.83,1.36-.89,3.21-.38,4.72.11.33.56.71,1.03.98,1.51.85,3.28,1.26,4.95,1.7.33.05.27.58-.06.55h0v-.02Z"/>
    <path d="M88.12,41.77c-3.65-6.28-8.22-12.46-14.2-16.72-6.02-4.44-13.4-6.34-20.65-7.71-4.86-.95-9.98-.61-14.53,1.4-.15.07-.34,0-.4-.16-.07-.15,0-.34.16-.4,2.38-.84,4.85-1.43,7.36-1.68,5.02-.5,10.02.61,14.85,1.8,2.41.57,4.87,1.24,7.19,2.24,7.09,2.89,12.79,8.17,17.36,14.2,1.55,1.99,3.03,4.01,4.3,6.26.22.39.08.88-.31,1.1-.4.23-.92.07-1.12-.35h0v.02Z"/>
    <path d="M63.1,41.43c1.96.02,3.8.44,5.64.88,1.84.44,3.65,1.09,5.37,1.9,1.71.84,3.36,1.82,4.87,2.98,1.51,1.15,2.93,2.41,4.28,3.73.22.21.22.57,0,.79-.21.22-.57.22-.79,0h0c-1.3-1.31-2.68-2.57-4.13-3.71-1.44-1.15-3.01-2.11-4.65-2.95-1.66-.81-3.38-1.46-5.18-1.92-1.78-.46-3.63-.9-5.42-.94h-.02c-.21,0-.37-.18-.37-.38,0-.21.17-.37.38-.37h.02Z"/>
    <path d="M81.28,58.33c1.54-.97,3.08-1.28,4.86-1.01,1.6.56,3.2,1.5,3.88,3.1,1.44,3.02-.62,6.33-2.49,8.64-1.3,1.53-3.07,2.68-5.06,2.99-.09.02-.17-.04-.19-.13-.02-.1.05-.19.15-.19,1.93-.14,3.38-1.69,4.39-3.21,1.2-2.18,3-4.93,1.79-7.41-.77-1.48-2.43-2.12-4.04-2.04-.8.04-1.88.2-2.55.51-.78.36-1.42-.75-.73-1.24h0Z"/>
    <path d="M17.74,61.83c-3.49-1.18-6.19.32-5.68,4.25.41,2.41,2.39,4.4,4.34,5.75.71.41,1.5.66,2.33.85.13.03.21.16.18.29s-.16.21-.29.18c-.83-.22-1.69-.46-2.46-.91-2.84-1.84-5.77-5.01-4.91-8.72.5-3.22,4.1-4.1,6.93-3.85,1.67.17,1.15,2.67-.45,2.16h.01Z"/>
    <path d="M47.7,61.4c.32,1.31.59,2.54.44,3.94-.03.68-.14,1.41-.51,2.09-.51,1.15-1.96,1.82-2.29,2.88-.16,1.48,3.12,1.48,4.21,1.73.14.02.25.15.22.3-.02.12-.12.21-.24.23-.66.06-1.32.08-1.99.04-1.39.01-3.69-.64-3.32-2.52.32-1.57,1.81-1.98,2.45-3.18.52-.98.61-2.39.63-3.52-.02-.62-.14-1.27-.13-1.95,0-.15.12-.26.27-.26.13,0,.23.1.26.22h0Z"/>
    <path d="M57.99,80.02c-.05.78-.85,1.18-1.46,1.47-3.76,1.86-8.23,2.49-12.31,1.35-.59-.13-1.45-.53-1.96-.75-.39-.13-.61-.55-.49-.94.13-.43.63-.65,1.04-.45,4.11,2.36,9.25,2.19,13.58.48.62-.24,1.32-.5,1.42-1.17,0-.11.2-.09.18.02h0Z"/>
    <path d="M21.66,27.13c10.19-6.01,22.08-3.31,32.46.67,5.27,1.76,10.59,3.74,15.2,6.92,4.69,3.06,8.82,6.89,12.64,10.99.24.25.22.65-.03.88-.27.25-.7.22-.92-.07-1.67-2.18-3.59-4.17-5.66-5.99-6.14-5.65-13.58-9.45-21.52-11.91-5.22-1.85-10.41-3.73-15.98-4.09-5.46-.58-11.03.64-15.79,3.35-.45.28-.92-.47-.42-.74h.02Z"/>
    <path class="st2" d="M68.02,53.58c-2.6-1.45-5.71-1.75-8.42-.53-.48.16-.79-.54-.36-.8,2.63-2.12,7.08-1.92,9.34.65.33.36-.15.92-.56.67h0Z"/>
    <path class="st2" d="M39.06,54.6c-2.76-.48-5.34-.08-7.76,1.35-.4.24-.85-.31-.54-.65,1-1.18,2.48-1.95,4.04-2.22,1.56-.27,3.21-.04,4.55.73.21.12.28.38.16.59-.09.16-.27.24-.45.21h0Z"/>
  </g>
  <path d="M-23.77,82.5"/>
</svg>