<?xml version="1.0" encoding="UTF-8"?>
<svg id="_レイヤー_1" xmlns="http://www.w3.org/2000/svg" xmlns:xlink="http://www.w3.org/1999/xlink" version="1.1" viewBox="0 0 100 110">
  <!-- Generator: Adobe Illustrator 30.0.0, SVG Export Plug-In . SVG Version: 2.1.1 Build 123)  -->
  <defs>
    <style>
      .st0, .st1, .st2 {
        fill: none;
      }

      .st3 {
        fill: #ceb372;
      }

      .st1 {
        stroke: #000;
        stroke-linecap: round;
        stroke-linejoin: round;
      }

      .st4 {
        fill: #1c1917;
      }

      .st5 {
        fill: #fff;
      }

      .st6 {
        fill: url(#_6_lpi_30_);
      }

      .st2 {
        stroke: #231815;
        stroke-width: 3.6px;
      }
    </style>
    <pattern id="_6_lpi_30_" data-name="6 lpi 30%" x="0" y="0" width="72" height="72" patternTransform="translate(-6330.3 -11791.39) rotate(-108.65) scale(.36)" patternUnits="userSpaceOnUse" viewBox="0 0 72 72">
      <g>
        <rect class="st0" width="72" height="72"/>
        <g>
          <line class="st2" x1="71.75" y1="66" x2="144.25" y2="66"/>
          <line class="st2" x1="71.75" y1="42" x2="144.25" y2="42"/>
          <line class="st2" x1="71.75" y1="18" x2="144.25" y2="18"/>
          <line class="st2" x1="71.75" y1="54" x2="144.25" y2="54"/>
          <line class="st2" x1="71.75" y1="30" x2="144.25" y2="30"/>
          <line class="st2" x1="71.75" y1="6" x2="144.25" y2="6"/>
        </g>
        <g>
          <line class="st2" x1="-.25" y1="66" x2="72.25" y2="66"/>
          <line class="st2" x1="-.25" y1="42" x2="72.25" y2="42"/>
          <line class="st2" x1="-.25" y1="18" x2="72.25" y2="18"/>
          <line class="st2" x1="-.25" y1="54" x2="72.25" y2="54"/>
          <line class="st2" x1="-.25" y1="30" x2="72.25" y2="30"/>
          <line class="st2" x1="-.25" y1="6" x2="72.25" y2="6"/>
        </g>
        <g>
          <line class="st2" x1="-72.25" y1="66" x2=".25" y2="66"/>
          <line class="st2" x1="-72.25" y1="42" x2=".25" y2="42"/>
          <line class="st2" x1="-72.25" y1="18" x2=".25" y2="18"/>
          <line class="st2" x1="-72.25" y1="54" x2=".25" y2="54"/>
          <line class="st2" x1="-72.25" y1="30" x2=".25" y2="30"/>
          <line class="st2" x1="-72.25" y1="6" x2=".25" y2="6"/>
        </g>
      </g>
    </pattern>
  </defs>
  <path d="M82.29,56.54c0-.35-.19-.63-.53-.88-3.62-2.56-7.84-4.11-12.22-5.38-3.66-1.07-7.27-2.28-10.97-3.27-2.2-.59-4.36-1.27-6.55-1.87-.27-.08-.5-.18-.68-.35-.39-.37-.87-.38-1.36-.22-2.03.64-4.05,1.29-6.11,1.84-2.95.79-5.92,1.51-8.96,1.99-4.03.63-8,1.47-11.67,3.11-.97.43-4.16,2.36-4.81,2.82-.39.28-.81.55-1.09.93l-.09.02c.21.14.37.5.36.79-.06,1.43.34,2.84.27,4.25-.05.9.23,1.74.22,2.62-.01.87.13,1.75.18,2.62.13,2.25.68,4.46.78,6.7.04.79.16,1.11.28,2.91.2,3.01,1.64,7.95,1.91,8.66.08.22,1.05,2.42,1.73,2.98.06-1.84,1.28-3.1,1.28-3.1-.15.53.44,3.45,1.05,4.48.53.92,1.6,3.32,3.02,3.9.15.06.75-2.3.81-2.13.62,1.71,1.34,3.05,1.72,3.98s1.25,2.4,1.81,3.01c1.04,1.16,3.86,3.04,3.86,3.04-.36-1.06-.48-2.4-.62-3.21.19,1.07,2.04,2.4,2.42,2.87,1.84,1.5,2.57,2.3,4.57,3.3.5.25,1.07.72,1.7.7-.02-.08-.1-.31-.12-.42-.05-.22-.05-.29-.08-.47-.06-.41-.07-.58,0-1.05.02-1.08,1.11.63,1.62.98,1.25.88,1.38,1.02,2.65,2.17.93.84,1.43,1.62,2.03,2.12.59-.62,1.14-1.43,1.65-2.14.42-.58,1.36-1.95,1.36-1.95,0,0,.06,2-.65,3.03,1.34-.19,1.85-.95,2.15-1.17,1.24-.89,1.61-1.52,2.55-2.63.4-.48,2.01-2.09,2.47-2.51.07,1.49-.14,2.17-.51,3.17,2.22-1.28,5.55-4.53,7.14-6.36.56-.64,1.05-1.12,1.82-2.07.03.37-.21,1.88-.57,2.88l2.44-1.88c1.48-1.39,2.08-2.71,2.9-4.4.28-.56.55-1.5,1.03-2.42.57,1.17.85,1.97.71,3.15,1.52-.93,2.61-2.48,3.01-3.3,1.05-2.14,1.34-3.49,1.29-5.79-.01-.77-.11-3.65-.08-3.58.49,1.16.89,3,1.29,3.53.58-2.19.61-7.77.71-9.58.09-1.77.14-3.55.37-5.31.36-2.68.52-5.36.64-8.05.05-1.04-.11-2.06-.12-3.09ZM62.52,85.66c-.49.43-.94.91-1.45,1.32-1.03.81-2.16,1.46-3.58,1.74-1.61.31-3.29-.29-3.57-1.74-.09-.47-.17-.94-.33-1.4h-.07c-.24-.12-.51-.08-.75-.04-1.63.22-3.27.08-4.9.07-.68,0-.95.1-1,.72-.04.53-.24,1.02-.42,1.51-.45,1.18-1.34,1.67-2.63,1.35-2.26-.57-4.17-1.65-5.73-3.16-.49-.48-.94-1.98-.61-2.56.55-.98,1.22-1.55,1.89-2.03,1.39-.99,3.06-1.52,4.8-1.93,1.86-.43,3.66-1.55,5.44-2.24.22-.09,3.57,1.66,5.03,1.9,1.18.19,2.31.56,3.48.76,2.22.39,3.97,1.17,4.71,3.14.34.91.66,1.75-.3,2.59Z"/>
  <path class="st3" d="M79.5,54.4c.8.21,1.24.67,1.28,1.1.15,1.77-.63,4.73-.79,6.5-.19,2.15-.64,4.75-.92,6.89-.16,1.19-.6,3.06-1.04,4.21-.44,1.18-1.5,2.34-2.17,3.45-.87,1.45-1.28,1.91-2.54,3.14-1.02.99-2.17,1.41-3.75,1.62-.98.13-1.3.22-2.08-.37-1.09-.83-1.97-1.84-3.07-2.67-2.16-1.62-4.71-2.6-7.38-3.38-2.25-.66-4.53-.6-6.8.03-.21.06-.47.07-.67,0-2.36-.74-4.58-.32-6.81.51-3.26,1.2-6.16,2.8-8.46,5.14-.49.49-.84,1.09-1.52,1.51-.81-.27-1.43-.8-2.08-1.26-2.69-1.95-4.92-4.25-6.64-6.89-.77-1.18-3.74-6.69-4.13-8.86-.57-3.17-1.24-10.92-1.41-11.2l9.14-3.87,22.32-5.43,20.85,6.57,8.67,3.27Z"/>
  <path class="st3" d="M18.04,62.06c-2.64-.7-4.55.06-5.14,1.54-.94,2.34.48,4.6,1.21,5.71.21.33,4.31,4,4.95,2.96-.13-2.83-.76-8.53-1.01-10.21Z"/>
  <path class="st3" d="M82.49,59.33c2.95-.91,5.49.26,6.17,2.11,1.09,2.92-1.28,5.44-2.08,6.85-.23.41-4.41,4.91-5.14,3.61.1-3.54.78-10.46,1.04-12.56Z"/>
  <ellipse cx="36.14" cy="62.09" rx="1.44" ry="2.22" transform="translate(-.39 .23) rotate(-.37)"/>
  <ellipse cx="62.45" cy="61.92" rx="1.44" ry="2.22" transform="translate(-.39 .4) rotate(-.37)"/>
  <path class="st3" d="M53.58,85.58c.16.46.24.93.33,1.4.28,1.44,1.95,2.04,3.57,1.74,1.42-.27,2.55-.93,3.58-1.74.52-.4.96-.89,1.45-1.32.96-.84.65-1.68.3-2.59-.74-1.97-1.43-3.3-3.65-3.68-1.17-.2-2.5-.06-3.68-.25-1.46-.24-2.34-.72-3.58-1.51-.45-.29-2.21-1.55-2.42-1.46-1.78.69-3.3,2.29-5.75,3.26-1.66.66-2.44.82-4.38,2.01-.7.43-1.45.94-1.63,1.24-.89,1.53-.14,2.87.35,3.35,1.56,1.51,3.48,2.59,5.73,3.16,1.29.33,2.17-.17,2.63-1.35.19-.49.38-.98.42-1.51.05-.61.33-.72,1-.72,1.63.01,3.27.15,4.9-.07.24-.03.51-.07.75.05"/>
  <path class="st1" d="M18.84,56.19"/>
  <path class="st5" d="M14.17,55.2c-.83-.4-2.24-1.51-2.88-3.2-.57-1.51-.72-3.99.55-5.63.57-.74,1.2-1,1.24-1.75.06-.89-.78-1.48-1.27-2.06-1.96-2.33-.38-6.82-.02-7.85,1.16-3.32,5.55-10.45,6.18-12.13.6-1.6,2.01-4.33,9.73-9.48,6.21-4.14,9.52-6.34,15-7.9,6.67-1.91,12.12-1.59,15.02-1.39,3.25.22,8.44.61,14.47,3.35,5.9,2.67,9.46,6.16,10.27,6.97,3.57,3.58,5.38,7.08,6.16,8.79,1.58,3.46,3.09,6.74,1.82,9.63-.45,1.03-1.11,1.68-1.41,3.27-.37,2,.4,2.35.36,4.52-.04,1.7-.73,3.44-2.11,6.92-.49,1.22-1.16,8.42-1.22,8.49-1.23,1.57-5.02-4.2-25.04-9.46-9.66-2.54-10.03-3.54-14.41-1.87-13.56,4.64-27.27,4.8-32.46,10.79Z"/>
  <path class="st6" d="M18.02,55.43c-.81-.4-5.81-1.06-6.44-2.77-.56-1.53-.7-4.04.53-5.7.56-.74,1.17-1.02,1.21-1.77.06-.9-.76-1.5-1.24-2.09-1.91-2.36-.37-6.91-.02-7.95,1.14-3.36,2.39-7.92,4.64-11.66,1.32-2.2,3.96-6.75,11.5-11.96,6.06-4.19,8.68-4.67,14.02-6.25,6.51-1.93,11.83-1.6,14.66-1.41,3.17.22,8.23.62,14.12,3.39,5.76,2.71,9.24,6.24,10.02,7.05,3.72,3.87,5.48,7.69,6.01,8.9,2.38,5.44,2.51,10.17,2.51,11.67,0,7.48-5.15,22.45-6.49,23.43-1.14-2.86-4.57-6.43-22.94-11.44-5.95-1.1-5.82-1.49-9.9-2.14-13.23,4.69-27.14,4.63-32.2,10.69Z"/>
  <path class="st4" d="M65.43,38.23c-3.28,2.9-7.47,4.33-11.54,5.67-4.08,1.29-8.22,2.34-12.34,3.39-4.12,1.05-8.25,2.07-12.28,3.32-3.42,1.14-6.95,2.2-9.86,4.33-.4.3-.68.64-1.31.74-1.41.14-.62-1.61.21-2.1,3.01-2.43,6.84-3.56,10.46-4.64,8.22-2.32,16.62-3.72,24.8-6.09,3.97-1.22,8.17-2.46,11.4-5.14.31-.29.8.22.46.52h0Z"/>
  <path class="st4" d="M80.61,56.01c-4.31-3.3-9.53-4.89-14.72-6.23-4.81-1.44-9.74-2.69-14.46-4.48-.33-.11-.68-.23-.92-.29-1.02-.25-.65-1.82.39-1.57,1.2.33,2.74.97,3.9,1.38,6.32,2.15,12.78,4.32,18.9,7.04,2.5,1.01,4.94,2.14,7.42,3.29.64.31.09,1.29-.51.86h0Z"/>
  <path class="st4" d="M13.05,29.17c2.1-5.04,5.07-9.77,9.06-13.49,1.98-1.87,4.14-3.52,6.39-5.03,2.25-1.5,4.61-2.91,7.17-3.89,1.27-.5,2.57-.9,3.86-1.29,1.29-.38,2.57-.79,3.9-1.14,2.64-.68,5.36-1.08,8.09-1.23,5.45-.21,10.96.37,16.24,1.98,5.24,1.62,10.32,4.2,14.48,7.97,2.03,1.8,4.05,3.87,5.58,6.28,1.55,2.39,2.68,5.07,3.28,7.86.64,2.79.68,5.67.51,8.39-.14,2.75-.54,5.54-1.26,8.21-1.41,5.36-3.92,10.37-7.18,14.74-.17.22-.48.27-.7.1-.21-.15-.26-.44-.13-.66,2.69-4.62,4.72-9.57,5.8-14.71.56-2.57.82-5.16.9-7.79.08-2.65-.02-5.21-.6-7.69-.57-2.47-1.58-4.83-2.93-6.98-1.37-2.15-3.09-4.04-5.04-5.86-1.88-1.79-3.94-3.4-6.19-4.73-2.24-1.32-4.66-2.46-7.12-3.37-2.48-.9-5.05-1.58-7.67-2-2.61-.4-5.3-.61-7.95-.59-2.66.03-5.31.35-7.9.98-1.29.31-2.58.7-3.88,1.06-1.29.37-2.58.74-3.83,1.2-2.5.91-4.84,2.23-7.05,3.74-2.22,1.5-4.35,3.13-6.29,4.97-3.89,3.65-6.88,8.28-8.3,13.43-.1.36-.47.56-.82.47-.36-.1-.56-.47-.47-.82,0-.03.02-.05.03-.08v-.02Z"/>
  <path class="st4" d="M17.69,55.65c-1.87-.11-3.67-.57-5.36-1.4-.55-.32-1.17-.67-1.53-1.46-.92-2.39-.68-5.57,1.25-7.34.22-.32.17-.43,0-.73-.3-.46-.75-.72-1.14-1.27-.48-.71-.62-1.45-.71-2.12-.23-3.18.77-6.28,1.75-9.17.34-.97,1.83-.48,1.51.51-.8,2.94-2.25,6.92-.98,9.7.4.53,1.63,1.79,1.38,2.88-.08,1.14-1.29,1.72-1.71,2.47-.83,1.36-.89,3.21-.38,4.72.11.33.56.71,1.03.98,1.51.85,3.28,1.26,4.95,1.7.33.05.27.58-.06.55h0Z"/>
  <path d="M88.12,41.77c-3.65-6.28-8.22-12.46-14.2-16.72-6.02-4.44-13.4-6.34-20.65-7.71-4.86-.95-9.98-.61-14.53,1.4-.15.07-.34,0-.4-.16-.07-.15,0-.34.16-.4,2.38-.84,4.85-1.43,7.36-1.68,5.02-.5,10.02.61,14.85,1.8,2.41.57,4.87,1.24,7.19,2.24,7.09,2.89,12.79,8.17,17.36,14.2,1.55,1.99,3.03,4.01,4.3,6.26.22.39.08.88-.31,1.1-.4.23-.92.07-1.12-.35h0Z"/>
  <path d="M63.1,41.43c1.96.02,3.8.44,5.64.88,1.84.44,3.65,1.09,5.37,1.9,1.71.84,3.36,1.82,4.87,2.98,1.51,1.15,2.93,2.41,4.28,3.73.22.21.22.57,0,.79-.21.22-.57.22-.79,0,0,0,0,0,0,0-1.3-1.31-2.68-2.57-4.13-3.71-1.44-1.15-3.01-2.11-4.65-2.95-1.66-.81-3.38-1.46-5.18-1.92-1.78-.46-3.63-.9-5.42-.94h-.02c-.21,0-.37-.18-.37-.38,0-.21.17-.37.38-.37Z"/>
  <path d="M81.28,58.33c1.54-.97,3.08-1.28,4.86-1.01,1.6.56,3.2,1.5,3.88,3.1,1.44,3.02-.62,6.33-2.49,8.64-1.3,1.53-3.07,2.68-5.06,2.99-.09.02-.17-.04-.19-.13-.02-.1.05-.19.15-.19,1.93-.14,3.38-1.69,4.39-3.21,1.2-2.18,3-4.93,1.79-7.41-.77-1.48-2.43-2.12-4.04-2.04-.8.04-1.88.2-2.55.51-.78.36-1.42-.75-.73-1.24h0Z"/>
  <path d="M17.74,61.83c-3.49-1.18-6.19.32-5.68,4.25.41,2.41,2.39,4.4,4.34,5.75.71.41,1.5.66,2.33.85.13.03.21.16.18.29s-.16.21-.29.18c-.83-.22-1.69-.46-2.46-.91-2.84-1.84-5.77-5.01-4.91-8.72.5-3.22,4.1-4.1,6.93-3.85,1.67.17,1.15,2.67-.45,2.16h0Z"/>
  <path d="M47.7,61.4c.32,1.31.59,2.54.44,3.94-.03.68-.14,1.41-.51,2.09-.51,1.15-1.96,1.82-2.29,2.88-.16,1.48,3.12,1.48,4.21,1.73.14.02.25.15.22.3-.02.12-.12.21-.24.23-.66.06-1.32.08-1.99.04-1.39.01-3.69-.64-3.32-2.52.32-1.57,1.81-1.98,2.45-3.18.52-.98.61-2.39.63-3.52-.02-.62-.14-1.27-.13-1.95,0-.15.12-.26.27-.26.13,0,.23.1.26.22h0Z"/>
  <path d="M57.99,80.02c-.05.78-.85,1.18-1.46,1.47-3.76,1.86-8.23,2.49-12.31,1.35-.59-.13-1.45-.53-1.96-.75-.39-.13-.61-.55-.49-.94.13-.43.63-.65,1.04-.45,4.11,2.36,9.25,2.19,13.58.48.62-.24,1.32-.5,1.42-1.17.01-.11.2-.09.18.02h0Z"/>
  <path d="M21.66,27.13c10.19-6.01,22.08-3.31,32.46.67,5.27,1.76,10.59,3.74,15.2,6.92,4.69,3.06,8.82,6.89,12.64,10.99.24.25.22.65-.03.88-.27.25-.7.22-.92-.07-1.67-2.18-3.59-4.17-5.66-5.99-6.14-5.65-13.58-9.45-21.52-11.91-5.22-1.85-10.41-3.73-15.98-4.09-5.46-.58-11.03.64-15.79,3.35-.45.28-.92-.47-.42-.74h0Z"/>
  <path class="st4" d="M68.02,53.58c-2.6-1.45-5.71-1.75-8.42-.53-.48.16-.79-.54-.36-.8,2.63-2.12,7.08-1.92,9.34.65.33.36-.15.92-.56.67h0Z"/>
  <path class="st4" d="M39.06,54.6c-2.76-.48-5.34-.08-7.76,1.35-.4.24-.85-.31-.54-.65,1-1.18,2.48-1.95,4.04-2.22,1.56-.27,3.21-.04,4.55.73.21.12.28.38.16.59-.09.16-.27.24-.45.21h0Z"/>
</svg>