<svg xmlns="http://www.w3.org/2000/svg" id="_レイヤー_1" viewBox="0 0 120 100"><defs><pattern id="_6_dpi_30_" width="48" height="48" x="0" y="0" data-name="6 dpi 30%" patternTransform="rotate(-41.87 -13646.589 4270.547)scale(.16)" patternUnits="userSpaceOnUse" viewBox="0 0 48 48"><path d="M0 0h48v48H0z" style="fill:none"/><circle cx="24" cy="48" r="3.6" class="st5"/><circle cx="48" cy="48" r="3.6" class="st5"/><circle cx="24" cy="24" r="3.6" class="st5"/><circle cx="48" cy="24" r="3.6" class="st5"/><circle cx="36" cy="36" r="3.6" class="st5"/><circle cx="12" cy="36" r="3.6" class="st5"/><circle cx="36" cy="12" r="3.6" class="st5"/><circle cx="12" cy="12" r="3.6" class="st5"/><circle cy="48" r="3.6" class="st5"/><circle cy="24" r="3.6" class="st5"/><circle cx="24" r="3.6" class="st5"/><circle cx="48" r="3.6" class="st5"/><circle r="3.6" class="st5"/></pattern><style>.st4{fill:#1c1917}.st5{fill:#231815}.st6{fill:#fff}</style></defs><path d="M29.55 87.23c-.42.44-1.26 1.19-2.54 1.66-.51.19-2.04.73-3.74.26-1.89-.52-1.84-1.68-3.89-2.38-.44-.15-.82-.2-.82-.2-.51-.09-.8-.08-1.86-.14 0 0-.28-.02-.79-.05-.48-.03-3.3.13-4.34-2.09-.72-1.54-1.21-4.46-1.79-4.32-1.6-.52-2.95-1.51-3.67-2.34-1.25-1.44-.34-2.11-1.6-4.32-1.07-1.89-1.87-1.63-2.44-3.14-.83-2.19.17-4.52.42-5.09.93-2.18 2.11-2.33 2.06-3.58-.08-1.79-2.52-2-2.89-4.07-.3-1.66 1.19-2.04 1.5-4.53.35-2.78-1.32-3.79-.52-5.37.82-1.62 3.02-.96 3.92-2.72.25-.49.36-1.09-.06-3.44-.53-2.96-1.07-3.96-1.34-5.32-.78-3.92 1.29-7.45 1.6-7.97 1.92-3.19 3.82-2.39 6.66-5.85 2.31-2.81 1.61-3.79 3.75-7.43 2.6-4.43 6.45-6.67 7.69-7.37 1.63-.92 6.45-3.64 11.99-2.66 3.12.55 3.58 1.76 6.51 1.7 3.64-.08 4.12-1.98 7.41-1.97 3.71.01 4.11 2.55 7.88 2.59 3.59.04 4.21-2.21 7.1-1.62 2.61.53 2.57 2.46 5.97 3.54 2.6.83 3.08-.16 5.27.78 2.91 1.25 2.61 3.22 5.04 3.78 1.25.29 1.34-.23 5.54-.53 1.67-.12 2.51-.18 3.27-.05 2.07.34 3.44 1.49 4.94 2.79 1.25 1.08 4.54 3.98 6.08 8.73.58 1.79.32 2.01.92 2.96 1.79 2.84 4.74 1.92 6.27 4.19 1.76 2.61-.95 5.54.96 7.69 1.36 1.53 3.12.49 4.55 2.26.98 1.22.43 2.05 1.51 4.8.94 2.38 1.48 2.07 1.79 3.4.74 3.22-2.5 4.73-2.2 8.28.19 2.2 1.47 2.02 2.36 4.96.08.25 1.63 5.95-1.01 8.89-1.38 1.54-2.39 2.16-3.25 2.43-1.23.39-2.79.5-2.79.5-1.02.12-2.12 1.19-2.53 2.21-.17.42-5.08 7.51-8.4 7.77-2.32.18-3.28-1.22-4.52-.51-1.55.89-.34 3.25-2 5.57-1.49 2.07-4.53 3.08-6.91 2.88-1.87-.16-2.01-1.17-3.83-.89-1.69.26-3.04 1.67-3.79 2.14-1.22.77-5.23 1.84-8.45-.21-.64-.4-1.99-1.38-2.95-3.46" class="st4"/><path d="M72.32 60.24c-.68-.31-.82-1.67-.84-1.82-.24-1.95 1.38-2.96.89-3.83-.28-.5-.79-.2-2.11-.94-.31-.17-1.11-.66-1.82-1.48-1.02-1.19-.67-1.73-1.39-2.37-1.06-.93-2.06.03-3.86-.73-1.5-.63-2.37-1.97-2.89-2.76-1.18-1.82-.79-2.66-1.71-3.21-1.06-.63-1.93.28-4.14.28h-.16c-.23 0-2.61-.06-4.31-1.26-1.79-1.26-1.68-2.96-2.57-2.95-.75 0-.8 1.21-2.06 2.23-1.3 1.05-3.48 1.6-4.94.81-1.79-.97-1.88-3.45-2.76-3.38-1.36.11-1.92 3.43-4.13 3.68-1.11.13-1.8-.66-2.66-.14-.43.26-.66.74-1.11 1.71-.6 1.27-.43 1.52-.86 1.96-.74.74-1.5.26-2.03.91-.6.74.36 2.01-.37 2.84-.45.51-1.26.47-1.44.46-1.19-.05-1.55-1.04-2.28-.96-.67.08-1.04.98-1.67 2.57-.44 1.11-1.04 2.63-1.21 4.89-.1 1.27 0 2.24.01 2.6.57 10.71 1.94 15.97 2.65 17.46C28.04 88.37 41 91.77 42.3 92.09c1.09.27 15.06 3.48 25.49-5.12 2.74-2.26 4.63-5.47 5.19-7.65 1.07-4.18 3.1-13.14 2.06-20.19-1.09.88-2.13 1.36-2.72 1.1Z" style="fill:#ceb372"/><path d="M83.79 54.08c-1.65-1.05-3.68-1.45-5.01-1.22-.63.11-1.72.54-3 2-3.79 4.29-3.51 11.36-3.47 12.07.1 2.01.61 12.14 6.56 14.11 2.93.97 5.65-.52 5.82-.62 3.71-2.11 4.13-7.05 4.46-10.99.53-6.28-1.49-10.81-3-13-.86-1.25-1.68-1.92-2.35-2.35ZM20.56 51.04c-1.87.29-5.77 3.7-7.29 6.33-2.39 4.12-2.6 9.58-.08 13.62.44.7 2.91 4.64 6.8 4.78 1.36.05 1.85-1.12 1.85-1.12s-3.55-9.14-1.28-23.6Z" class="st6"/><path d="M79.41 54.08c-.32-3.57-3.4-9.6-5.06-11.7-2.47-3.12-7.61-9.62-16.99-12.71-.76-.25-14.66-4.6-25.99 2.55-3.83 2.42-7.1 5.98-8.38 8.04-1.06 1.71-2.59 5.34-2.94 5.85 0 0-.01.01 0 .02.07.09 5.77-6.11 11.42-9.28 6.27-3.52 12.37-3.26 15.83-3.12.79.03 10.26.54 18.2 6.14 3.73 2.63 6.53 5.97 6.81 6.31 1.08 1.3 1.62 1.95 2.22 3 1.87 3.28 2.54 4.92 3.04 6.13.33.78 1.95-.12 1.85-1.22Z" class="st6"/><path d="M78.85 51.97c-.32-3.57-2.85-7.49-4.51-9.59-2.47-3.12-7.61-9.62-16.99-12.71-.76-.25-14.66-4.6-25.99 2.55-3.83 2.42-7.1 5.98-8.38 8.04-1.06 1.71-2.59 5.34-2.94 5.85 0 0-.01.01 0 .02.07.09 5.77-6.11 11.42-9.28 6.27-3.52 12.37-3.26 15.83-3.12.79.03 10.26.54 18.2 6.14 3.73 2.63 6.53 5.97 6.81 6.31 1.08 1.3 1.62 1.95 2.22 3 1.87 3.28 1.98 2.81 2.49 4.02.33.78 1.95-.12 1.85-1.22Z" style="fill:url(#_6_dpi_30_)"/><path d="M22.28 48.37C20.96 54 20.7 59.83 20.87 65.6c.05 12.33 8.21 21.56 19.59 25.49 5.46 1.85 11.56 2.01 17.19.79.11-.03.23.04.26.16.03.11-.04.23-.16.26-2.87.73-5.84 1.05-8.8.98-8.93-.07-17.75-4.15-23.65-10.94-5.09-5.74-6.52-13.65-6.39-21.09-.08-4.45.24-8.97 1.14-13.35.12-.62.72-1.01 1.34-.89.63.12 1.03.75.88 1.37ZM76.37 54.84c-2.39 1.96-3.24 5.04-3.54 8.03-.55 4.53-.61 9.22 1.67 13.22 1.45 2.24 3.52 5.19 6.46 4.93 2.4-.25 4.69-2.21 5.9-4.29 2.41-6.03 2.82-12.98.51-19.11-2.05-4.78-6.97-6.39-11-2.78m-.46-.57c4.43-3.62 9.55-1.79 11.81 3.19 1.74 4.39 2.22 9.26 1.53 13.93-.47 2.33-.76 4.85-2.09 6.87-3.52 4.9-8.71 5.69-12.51.55-3.81-4.39-3.88-10.74-2.92-16.1.43-3.12 1.54-6.47 4.18-8.45Z" class="st4"/><path d="M42.34 63.45c.81 1.11 1.83 3.25.31 4.36-.49.33-.91.46-1.2.71-.56.47-.95 1.41-.85 2.08.08.71.89 1.21 1.78 1.33.11.02.18.12.17.22-.01.09-.08.16-.17.17-.52.07-1.04.02-1.56-.21-1.76-.8-1.29-3.32.05-4.32.77-.61 1.66-.55 1.76-1.58.06-.79-.31-1.7-.69-2.54-.12-.24.24-.45.38-.22ZM40.83 77.88c3.22 2.52 8.82 2.44 10.82-1.57.11-.23.48-.05.37.18-1.91 4.63-8.19 5.1-11.99 2.56a.71.71 0 0 1-.22-.98c.22-.35.7-.43 1.02-.18Z" class="st4"/><ellipse cx="31.4" cy="64.32" class="st4" rx="1.86" ry="1.11" transform="rotate(-83.54 31.395 64.321)"/><ellipse cx="57.6" cy="66" class="st4" rx="1.86" ry="1.11" transform="rotate(-83.54 57.602 66)"/><path d="M34.75 56.96c-2.85-.8-5.74-.77-8.43.74-.05.03-.1-.04-.06-.08 1.04-1.15 2.5-1.97 4.11-2.27 1.6-.31 3.23.04 4.72.67a.502.502 0 0 1-.34.94M54.88 57.25c3.31-1.58 7.26-.41 9.75 2.11.08.07.09.2.02.29-.08.09-.2.09-.29.02-2.53-2.01-6.05-3-9.06-1.5-.6.27-1.01-.64-.41-.91Z" class="st4"/><path d="M19.81 51.42c-1.1.63-6.41 2.75-7.76 9.42-1.81 7.86 2.88 12.86 3.24 12.95.73.6 2.43 1.78 5.33 2.05" style="fill:none;stroke-linecap:round;stroke-linejoin:round;stroke:#1c1917"/><path d="M66.79 33.54c2.65-5.29 8.3-8.94 14.21-8.77.09 0 .1.14 0 .14-5.7.24-10.83 4.02-12.99 9.2-.37.84-1.64.24-1.22-.58ZM60.66 30.36c.5-5.48 3.8-10.58 8.62-13.14-2.22 1.48-4.06 3.48-5.28 5.79-1.23 2.3-1.87 4.88-1.89 7.43-.02.99-1.55.92-1.45-.08M53.4 28.74c.59-5.56-.36-13.18 5.34-16.37-2.6 1.68-3.71 4.54-3.82 7.54-.28 2.99-.1 5.88-.05 8.9-.03 1-1.54.94-1.47-.07M44.61 27.2c1.49-4.42.05-9.7-4.01-12.31 4.44 2.33 6.38 7.84 5.2 12.63-.19.82-1.44.49-1.19-.32M36.69 28.56c-.39-4.61-2.81-9.02-6.61-11.76-.03-.02 0-.08.04-.06 2.03 1.22 3.82 2.9 5.17 4.9 1.36 2 2.29 4.31 2.73 6.73.07.37-.17.72-.54.78a.67.67 0 0 1-.79-.6ZM90.89 19.94c2.8.47 5.84 1.5 7.42 4.06 1.21 1.84 1.15 4.18 2.53 5.86.68.81 1.55 1.33 2.6 1.47 3.11.59 2.79 4.35 2.67 6.66-.05 1.37.52 2.84 1.72 3.59 1.18.73 2.83.5 4.04 1.56.61.46 1.01 1.23 1.15 1.94.28 1.04.83 3.14 1.09 4.19.38 1.41.84 3.03.24 4.5-.74 1.85-2.03 3.96-1.25 5.86 3.54 6.43 1.78 11.94-5.76 13.17 2.48-.91 5.72-2.01 6.66-4.85.86-2.78-.22-5.59-1.61-8.02-1.34-3.22 1.59-5.94 1.3-8.41-.05-.65-.22-1.37-.35-2.07-.2-1.06-.63-3.17-.85-4.22-.13-.73-.35-1.27-.9-1.75-.99-.99-2.59-.9-3.88-1.67-1.25-.82-1.98-2.28-2.14-3.76-.18-1.48.16-2.94-.23-4.22-.18-.63-.6-1.18-1.13-1.56-.49-.39-1.23-.34-1.98-.67-3.08-1.25-2.85-4.95-4.23-7.39-1.46-2.51-4.39-3.67-7.12-4.24Z" class="st6"/></svg>