<?xml version="1.0" encoding="UTF-8"?>
<svg id="_レイヤー_1" xmlns="http://www.w3.org/2000/svg" version="1.1" viewBox="0 0 120 100">
  <!-- Generator: Adobe Illustrator 30.0.0, SVG Export Plug-In . SVG Version: 2.1.1 Build 123)  -->
  <defs>
    <style>
      .st0, .st1 {
        fill: none;
      }

      .st2 {
        fill: #ceb372;
      }

      .st1 {
        stroke: #000;
        stroke-linecap: round;
        stroke-linejoin: round;
      }

      .st3 {
        fill: #1c1917;
      }

      .st4 {
        fill: #fff;
      }
    </style>
  </defs>
  <path class="st3" d="M33.76,85.56c-.37.43-1.11,1.18-2.28,1.68-.47.2-1.86.79-3.47.45-1.79-.38-1.8-1.47-3.76-2.01-1.29-.36-1.39.09-3.25-.18-1.63-.23-3.5-.49-4.16-1.72-.76-1.4.58-3.12-.22-3.84-.42-.38-1.15-.25-1.69-.09,0,0-3.35-.99-4.41-3.22-.7-1.48.2-2.25-.66-3.55-.8-1.2-1.76-.81-2.66-1.95-1.01-1.29-1.04-3.4-.37-4.91.88-1.98,2.57-2.02,2.64-3.48.06-1.27-1.21-1.5-1.31-3.26-.07-1.24.52-1.95.04-2.6-.38-.51-.91-.3-1.45-.67-1.36-.94-1.45-4.76.38-6.97,1.18-1.42,2.49-1.39,3.03-2.99.27-.81-.01-.96.23-2.31.37-2.04,1.14-2.26,1.14-3.36,0-1.77-2-1.9-2.75-4.11-.64-1.88-.12-4.52,1.38-5.83,1.25-1.09,2.64-.78,3.3-2.05.38-.73.16-1.29.12-2.23-.12-3.17,2.05-6.67,4.69-7.72,1.13-.45,1.22,0,2.25-.42,2.96-1.22,2.42-5.6,4.52-6.87,4.1-2.47,10.19-1.38,14.35,3.12.37-.77.94-1.79,1.81-2.88.86-1.08,4.14-5.22,7.83-5.1,3.71.12,4.33,4.44,7.74,4.36,3.25-.08,4.29-4.04,6.96-3.59,2.42.41,2.53,3.8,5.44,4.37,1.91.37,2.28-1.01,4.62-.92,2.87.11,3.57,2.22,7.05,3.36,2.62.86,2.82-.15,5.83.42,4.52.86,9.56,4.17,11.13,8.58.43,1.2.34,1.76,1.02,2.72,1.82,2.55,4.52,1.53,6.08,3.57,1.78,2.34-.58,5.22,1.31,7.12,1.35,1.35,2.93.29,4.37,1.87.98,1.08.51,1.89,1.67,4.4,1.01,2.17,1.5,1.85,1.85,3.08.87,2.97-2.08,4.55-1.6,7.84.3,2.04,1.48,1.8,2.47,4.5.08.23,1.84,5.46-.46,8.35-3.37,4.24-4.49,1.56-6.77,4.06-1.55,1.7-.99,1.79-2.81,4.63-.49.76-2.47,3.87-5.55,4.28-2.16.29-3.13-.96-4.24-.23-1.39.91-.14,3.05-1.57,5.3-1.27,2.01-4.06,3.12-6.29,3.06-1.75-.05-1.94-.98-3.63-.62-1.57.33-2.74,1.72-3.42,2.21-1.48,1.06-7.68,2.91-10.83-2.8"/>
  <path class="st2" d="M72.19,58.06c-.65-.25-.86-1.51-.88-1.66-.31-1.72,1.12-3.03.62-3.62-.32-.39-.97.16-2.12-.12-1.1-.26-2.24-1.18-2.53-2.3-.31-1.21.55-1.97.13-2.44-.5-.57-1.76.54-3.63.33-1.51-.16-3.17-1.15-3.99-2.56-.77-1.33-.47-2.49-1.33-2.89-.57-.26-1.14.04-1.74.24-2.34.8-5.04.08-6.34-.68-2.52-1.48-2.72-4.78-3.67-4.61-.53.09-.35,1.09-1.26,2.06-1.07,1.14-3.13,1.69-4.56,1.03-1.72-.8-1.94-3.12-2.76-3-.38.05-.39.57-1.05,1.52-.37.53-1.43,2.06-2.61,2.14-1.23.09-2-1.42-2.63-1.76-.28.29-.53.57-.76.85-.14,1.41.27,3.97-.74,4.44-.52.24-1.04-.23-1.47-.18-.16.64-.25,1.24-.32,1.8.15.81.31,1.72-.13,2.43-.18.3-.48.57-.96.78,0,0,0,0,0,0-.16.09-.32.14-.49.17-.38.1-.83.18-1.38.21-.29-.19-.64-.45-1-.79-.26-.04-.74-.19-.77.08-.46,3.66-.89,7.69-.58,10.55,1.11,9.96,2.68,14.79,3.43,16.14,5.75,10.49,18.03,12.95,19.25,13.18,1.03.19,14.24,2.42,23.5-6.16,2.44-2.26,4.02-5.36,4.42-7.42.77-3.95,2.17-12.42.83-18.94-.97.88-1.91,1.39-2.48,1.17Z"/>
  <path class="st4" d="M86.5,53.1c-1.21-1.37-2.93-2.26-4.18-2.4-.6-.07-1.68.04-3.21,1.01-4.51,2.87-6.1,9.28-6.25,9.93-.43,1.83-2.6,11.06,2.22,14.37,2.38,1.63,5.2,1,5.38.96,3.88-.93,5.54-5.25,6.86-8.7,2.11-5.5,1.47-10.09.68-12.45-.45-1.34-1.01-2.16-1.5-2.72Z"/>
  <path class="st4" d="M23.4,52.3c-1.73.37-5.18,3.77-6.46,6.3-2.01,3.98-1.91,9.08.67,12.71.44.63,2.96,4.17,6.6,4.09,1.27-.03,1.66-1.15,1.66-1.15,0,0-3.8-8.33-2.47-21.95Z"/>
  <g>
    <path class="st4" d="M78.55,50.35c-.51-3.06-3.73-8.13-5.4-9.86-2.48-2.58-7.65-7.95-16.59-10.17-.72-.18-13.94-3.29-24.08,3.41-3.43,2.26-6.28,5.49-7.35,7.33-.89,1.53-2.1,4.73-2.4,5.18,0,0,0,.01,0,.02.07.07,5.02-5.53,10.11-8.54,5.64-3.33,11.34-3.39,14.58-3.43.74,0,9.6-.01,17.33,4.45,3.63,2.1,6.44,4.85,6.72,5.13,1.08,1.07,1.62,1.61,2.24,2.48,1.93,2.74,2.65,4.13,3.19,5.15.35.66,1.81-.2,1.66-1.14Z"/>
    <g>
      <path class="st4" d="M73.15,41.85c.21.27.43,0,.65.28.21.29.08.63.28.92.2.29.31.21.51.51.19.3-.06.47.13.76.18.3.45.23.63.53.18.3.65-.1.83.21.18.31-.38.68-.21.99.16.31.37.3.53.61.15.32-.32.41-.16.72.15.31.54.13.69.45.15.32.08.34.22.66.13.32-.18.45-.06.76.11.31.57.21.67.54.05.16-.03.34-.11.48-.08.14-.17.23-.17.24l1.97-.33s-.3-.49-.41-.85c-.11-.37.14-.45,0-.81-.13-.37-.38-.27-.53-.62-.14-.34.17-.47.02-.82-.16-.34-.63,0-.78-.33-.16-.33-.03-.52-.2-.85-.17-.32-.02-.36-.19-.68-.18-.32-.41-.24-.59-.56-.18-.32.18-.54-.01-.86-.19-.32-.56-.08-.76-.39-.19-.31-.08-.39-.28-.69-.2-.31-.05-.41-.26-.72-.21-.31-.61.02-.82-.27-.21-.3.08-.57-.15-.87-.23-.3-.39-.17-.63-.46-.26-.28-.08-.59-.27-.79l-1.44,1.39c.19.19.35-.01.58.23.22.25.1.36.32.61Z"/>
      <path class="st4" d="M64.59,34.58c.3.18.41-.15.71.04.3.19.31.55.6.75.29.2.37.09.66.29.29.2.12.45.4.66.28.21.5.05.79.26.28.22.57-.33.85-.11.28.23-.1.77.17,1,.27.23.45.14.72.37.27.23-.14.5.12.73.26.24.56-.09.82.16.26.24.22.28.48.53.25.25.04.49.29.74.25.25.63-.05.88.2.25.25.17.8.19.81l1.44-1.39s-.47-.19-.73-.45c-.26-.26-.07-.43-.34-.69-.26-.26-.45-.06-.72-.32-.27-.25-.03-.49-.3-.74-.27-.25-.58.25-.85,0-.27-.24-.22-.47-.5-.71-.28-.24-.15-.33-.43-.56-.28-.24-.47-.07-.76-.3-.29-.23-.03-.57-.32-.8-.3-.22-.55.13-.85-.08-.29-.22-.21-.34-.51-.54-.3-.21-.2-.36-.5-.57-.31-.21-.56.24-.86.05-.31-.19-.12-.56-.44-.76-.32-.19-.42-.02-.74-.2-.32-.18-.23-.52-.48-.66l-.95,1.76c.23.13.32-.12.63.06.31.17.23.31.53.48Z"/>
      <path class="st4" d="M54.08,30.76c.35.05.32-.29.68-.24.35.06.5.4.84.47.34.07.37-.06.7.01.33.09.27.39.6.48.33.09.49-.13.83-.04.34.09.41-.52.75-.41.34.11.18.76.51.87.33.11.48-.04.8.09.33.13.04.52.37.64.32.13.5-.28.82-.14.32.15.3.2.62.34.32.15.2.45.52.59.31.16.57-.25.88-.09.32.16.41.69.42.7l.95-1.76s-.52-.04-.85-.2c-.33-.17-.21-.39-.55-.56-.34-.15-.46.1-.79-.06-.33-.15-.2-.45-.54-.61-.34-.14-.46.43-.8.3-.34-.13-.37-.36-.72-.5-.34-.13-.25-.25-.6-.37-.35-.12-.47.1-.81-.02-.35-.12-.23-.53-.59-.63-.36-.1-.47.32-.82.23-.36-.1-.31-.24-.68-.33-.37-.09-.33-.26-.69-.34-.37-.07-.42.44-.78.37-.36-.06-.33-.47-.69-.52-.36-.06-.39.13-.75.09-.36-.05-.41-.39-.69-.43l-.23,1.99c.26.03.26-.23.61-.19.35.04.33.19.68.25Z"/>
      <path class="st4" d="M42.81,30.77c.35-.05.22-.37.57-.42.35-.05.6.23.94.18.35-.05.34-.17.69-.2.35-.03.39.28.73.25.35-.02.41-.31.77-.31.35-.01.22-.62.58-.63.36-.01.43.65.78.64.35-.01.44-.18.79-.18.35,0,.22.47.57.47.35,0,.37-.44.72-.42.35.02.35.07.7.09.35.02.35.34.7.37.35.03.44-.44.79-.41.36.03.63.49.65.5l.23-1.99s-.5.15-.86.12c-.36-.03-.34-.28-.71-.32-.37-.03-.39.25-.75.23-.37-.02-.34-.35-.71-.37-.37-.02-.28.57-.64.56-.36,0-.48-.21-.84-.21-.36,0-.32-.17-.69-.15-.37.01-.4.25-.77.27-.36.01-.39-.41-.76-.4-.37.02-.33.46-.7.49-.36.03-.38-.11-.74-.08-.37.03-.39-.17-.75-.12-.37.05-.27.55-.63.6-.36.05-.46-.35-.82-.3-.37.05-.33.24-.69.32-.36.07-.51-.24-.79-.18l.41,1.96c.25-.05.17-.3.52-.37.35-.07.37.07.71.03Z"/>
      <path class="st4" d="M32.46,34.81c.29-.2.03-.43.32-.63.3-.18.65-.02.94-.2.3-.18.23-.29.53-.47.3-.17.45.08.76-.08.31-.15.27-.41.59-.56.32-.15-.04-.66.28-.81.33-.15.63.43.95.3.33-.12.34-.32.67-.44.33-.12.37.36.69.24.32-.12.19-.54.52-.65.34-.09.35-.04.69-.14.34-.1.44.21.78.12.33-.09.26-.59.61-.65.35-.07.76.28.78.28l-.41-1.96s-.43.3-.79.37c-.36.08-.42-.15-.78-.05-.36.1-.29.37-.64.47-.35.1-.45-.22-.81-.12-.36.12-.07.63-.41.76-.34.13-.52-.02-.87.11-.35.13-.36-.03-.71.1-.35.14-.28.39-.62.55-.33.16-.52-.23-.86-.07-.34.16-.14.55-.47.7-.33.17-.39.05-.71.24-.32.19-.41.02-.74.22-.32.19-.02.6-.34.79-.32.18-.56-.12-.87.09-.31.21-.19.37-.49.59-.3.22-.57,0-.79.18l1.23,1.58c.21-.16.01-.35.3-.56.28-.21.37-.08.65-.28Z"/>
      <path class="st4" d="M25.13,43.02c.15-.32-.19-.39-.04-.71.16-.32.52-.36.68-.65.16-.29.05-.35.23-.64.19-.28.45-.11.64-.39.2-.27.05-.49.26-.77.22-.27-.33-.57-.09-.85.23-.27.77.12,1-.13.23-.26.15-.45.4-.7.24-.26.49.16.73-.09.24-.25-.06-.56.2-.8.25-.24.29-.21.55-.44.26-.24.49,0,.75-.23.26-.23-.01-.63.26-.85.27-.23.8-.09.81-.1l-1.23-1.58s-.25.46-.53.7c-.29.23-.44.05-.73.29-.28.24-.1.45-.37.7-.27.25-.49,0-.76.26-.27.26.21.59-.04.85-.26.26-.48.2-.73.47-.25.27-.33.13-.58.41-.25.28-.09.47-.33.75-.24.28-.57.02-.81.31-.23.3.12.55-.1.86-.22.3-.34.22-.55.54-.2.33-.37.23-.56.57-.19.34.28.54.12.87-.16.33-.54.19-.7.52-.15.33.02.41-.13.75-.15.33-.49.28-.6.53l1.83.8c.11-.24-.15-.32,0-.65.15-.33.28-.26.43-.58Z"/>
      <path class="st4" d="M27.71,40.32c-.28.24,0,.44-.28.68-.27.24-.64.15-.91.39-.27.24-.18.34-.45.59-.27.25-.48.03-.75.28-.27.25-.15.5-.42.75-.26.25.24.61-.02.87-.26.25-.76-.19-1.02.07-.26.26-.19.45-.44.71-.25.26-.49-.16-.75.1-.25.26.05.57-.19.82-.06.06-.11.1-.14.13-.02.02,0,0,0,0,.02-.06.45-.23.71-.06.13.07.17.12.26.22.08.1.15.3.12.47,0,.09-.03.16-.06.22-.01.03-.03.06-.04.08,0,0,0,0,0,0h0s.02-.03.02-.03c.09-.12.15-.21.23-.39.16-.34.46-.23.61-.57.14-.33-.28-.57-.14-.9.14-.33.67-.47.68-.49l-1.83-.8s0,.51-.14.84c-.14.33-.37.23-.51.56-.14.32.11.44-.03.75-.03.07-.08.11-.13.14-.02,0-.04,0-.06,0h-.03s-.01-.01-.01-.01h0s0-.01,0,0c-.04.06-.08.14-.12.24-.07.19-.06.47.03.67.1.21.18.29.29.38.12.09.31.18.53.19.22.01.41-.05.54-.12.17-.1.08-.05.11-.07h.02s.04-.02.04-.02c.07-.03.11-.04.14-.05.08-.03.14-.07.21-.13.26-.26-.23-.59.02-.84.25-.25.47-.2.72-.45.25-.25.33-.11.58-.36.25-.25.11-.45.37-.7.26-.25.56.05.81-.19.26-.24-.05-.56.21-.8.26-.24.36-.14.62-.38.26-.24.39-.1.65-.33.26-.23-.1-.59.17-.83.27-.23.56.05.83-.18.27-.23.15-.38.42-.6.28-.22.55-.02.76-.18l-1.24-1.57c-.22.17-.02.35-.31.59-.29.23-.38.11-.66.35Z"/>
      <path class="st4" d="M38.07,34.52c-.36.1-.19.4-.54.52-.35.12-.66-.13-1.01,0-.35.13-.3.26-.65.39-.35.13-.47-.14-.82,0-.34.15-.33.41-.66.58-.34.16.03.66-.29.82-.32.15-.68-.41-1.01-.23-.33.18-.31.38-.64.57-.32.19-.44-.28-.76-.08-.32.2-.09.57-.39.77-.31.2-.34.16-.64.37-.3.21-.5-.04-.81.18-.3.22-.05.64-.34.86-.29.22-.82.1-.84.11l1.24,1.57s.23-.45.51-.66c.28-.21.43-.01.71-.22.28-.2.12-.43.41-.63.29-.2.47.08.76-.11.29-.19-.11-.61.18-.8.3-.19.5-.07.8-.25.3-.17.34-.02.64-.18.3-.17.22-.4.54-.56.31-.15.51.23.81.08.31-.14.13-.53.45-.67.32-.13.37-.01.7-.13.33-.12.39.06.72-.06.32-.12.13-.58.47-.69.34-.1.49.27.82.17.33-.09.28-.28.62-.37.34-.09.5.23.76.17l-.45-1.95c-.27.06-.18.31-.54.4-.36.1-.39-.05-.76.05Z"/>
      <path class="st4" d="M49.89,33.5c-.37-.03-.31.31-.68.29-.36-.02-.57-.34-.94-.35-.37-.01-.37.12-.75.12-.37,0-.38-.3-.74-.3-.37,0-.45.27-.81.28-.37.01-.23.62-.59.63-.36.02-.44-.65-.81-.63-.37.02-.44.22-.81.24-.37.03-.27-.44-.65-.41-.37.03-.33.47-.7.51-.37.05-.37-.01-.74.04-.36.06-.43-.26-.8-.2-.37.07-.33.55-.69.62-.36.06-.79-.27-.81-.26l.45,1.95s.39-.31.74-.37c.34-.06.39.18.73.12.34-.05.3-.33.65-.38.35-.05.39.29.73.24.34-.04.18-.6.53-.64.35-.03.48.15.83.13.35-.02.32.13.67.11.35-.02.38-.26.73-.28.36-.01.38.41.73.4.35,0,.34-.44.69-.45.35,0,.37.14.71.14.34,0,.34.19.69.2.35.01.33-.5.69-.48.36.02.36.43.71.45.35.03.37-.17.72-.14.35.04.4.38.67.41l.22-1.99c-.27-.03-.27.24-.63.2-.37-.04-.35-.19-.72-.22Z"/>
      <path class="st4" d="M61.41,36.14c-.34-.14-.39.21-.73.07-.34-.14-.44-.49-.79-.61-.35-.12-.39,0-.74-.12-.35-.11-.27-.4-.62-.51-.36-.11-.51.12-.86.01-.36-.09-.41.53-.76.44-.35-.09-.24-.75-.59-.84-.36-.08-.49.08-.84,0-.36-.08-.13-.5-.49-.58-.36-.07-.45.36-.81.29-.36-.07-.35-.12-.71-.18-.36-.06-.33-.38-.7-.44-.37-.06-.48.42-.84.37-.36-.04-.65-.52-.67-.52l-.22,1.99s.47-.15.82-.11c.35.04.31.29.66.35.35.05.39-.22.74-.17.35.06.28.39.63.45.34.06.35-.52.7-.46.35.07.41.29.76.37.34.08.27.21.61.29.34.09.44-.14.78-.05.34.09.24.5.57.59.33.1.45-.32.79-.22.34.1.3.24.63.34.33.12.27.3.6.41.33.12.47-.37.81-.26.33.13.21.52.54.65.32.13.4-.05.72.08.33.13.26.49.5.6l.83-1.82c-.25-.12-.33.13-.66-.02-.34-.14-.28-.28-.62-.42Z"/>
      <path class="st4" d="M71.38,42.56c-.27-.25-.44.06-.72-.19-.27-.24-.23-.62-.52-.85-.28-.24-.37-.13-.65-.36-.28-.23-.1-.47-.39-.7-.29-.23-.52-.07-.81-.29-.3-.22-.57.34-.86.13-.29-.21.05-.78-.26-1-.31-.21-.48-.1-.79-.3-.31-.2.05-.52-.27-.72-.32-.2-.55.18-.87-.01-.32-.19-.3-.23-.62-.4-.32-.17-.19-.47-.52-.65-.33-.18-.59.23-.92.08-.33-.15-.46-.69-.48-.7l-.83,1.82s.5,0,.81.15c.32.15.2.38.51.54.3.16.44-.08.75.09.31.17.14.44.44.62.3.18.5-.37.8-.19.3.19.29.41.58.61.29.19.17.3.46.49.29.2.46.03.75.23.29.21.04.56.32.76.28.21.54-.14.82.07.28.22.19.33.46.55.27.22.15.37.42.59.27.22.57-.18.84.05.27.24.02.56.28.8.26.24.39.09.65.33.25.24.07.54.27.73l1.41-1.42c-.19-.19-.35.03-.62-.24-.27-.26-.16-.37-.43-.62Z"/>
      <path class="st4" d="M77.47,50.75c-.12.07.04.39-.12.42-.07,0-.02-.1.13-.07.18.11.09-.17.03-.3-.17-.32-.29-.26-.47-.58-.18-.32.08-.48-.1-.8-.19-.32-.46-.26-.65-.58-.19-.31-.65.11-.85-.2-.19-.3.34-.71.14-1.02-.2-.31-.4-.28-.61-.58-.2-.3.25-.45.04-.76-.21-.3-.57-.05-.78-.35-.22-.31-.18-.34-.42-.64-.24-.29-.01-.52-.27-.81-.26-.28-.65.02-.9-.24-.26-.26-.19-.8-.21-.82l-1.41,1.42s.47.18.72.43c.24.25.06.42.29.67.22.25.43.06.64.32.21.26-.06.46.13.72.2.29.61-.13.82.16.2.29.1.5.3.79.2.29.05.34.24.64.19.3.42.2.61.5.19.3-.17.53.01.83.18.3.55.07.73.37.18.31.05.38.22.68.17.31,0,.4.17.71.09.17.21.14.41.21.22.1.43.18.76.27.32.06.47.11.65.17.18.06.38.09.62-.05.45-.32.31-.46.62-.88.24-.46.63-.6.58-1.2l-1.97.33s.28-.03.23.09c-.08.13-.21.04-.32.14Z"/>
    </g>
  </g>
  <g>
    <path class="st3" d="M24.61,50.15c-.06-.16-.18-.3-.31-.41-.13-.1-.3-.16-.48-.19-.18-.03-.35,0-.51.06-.16.06-.33.14-.44.27-.1.13-.16.31-.18.49l1.98.27c.02-.17,0-.35-.06-.5Z"/>
    <path class="st3" d="M24.16,60.76c-.02-.36-.35-.27-.37-.63-.01-.36.29-.58.28-.93,0-.36-.14-.35-.15-.71,0-.36.3-.37.3-.72,0-.35-.26-.44-.25-.8,0-.36-.61-.26-.6-.62,0-.36.68-.39.69-.74.02-.35-.17-.45-.15-.81.02-.36.48-.2.5-.55.03-.35-.41-.39-.38-.75.03-.36.08-.35.12-.71.04-.35.36-.34.4-.69.04-.35-.43-.46-.39-.81.04-.36.51-.63.52-.65l-1.98-.27s.14.5.1.86c-.04.36-.29.33-.33.7-.04.37.24.4.2.76-.03.36-.36.33-.39.7-.03.37.55.3.53.66-.02.36-.23.47-.25.83-.02.36-.17.31-.18.68-.01.37.23.42.22.78,0,.36-.44.36-.44.73,0,.37.43.36.43.73,0,.36-.14.37-.14.73,0,.37-.18.37-.17.74.01.37.52.31.53.68.01.36-.39.42-.37.78.02.36.21.35.23.71.02.36-.32.47-.3.74l2-.11c-.01-.27-.27-.22-.29-.58-.02-.36.14-.36.12-.72Z"/>
    <path class="st3" d="M25.81,72c-.11-.33-.4-.16-.51-.5-.1-.34.13-.62.05-.96-.09-.34-.22-.31-.3-.65-.08-.35.22-.42.15-.76-.08-.34-.34-.37-.41-.72-.06-.35-.65-.13-.71-.49-.05-.36.6-.51.54-.86-.05-.35-.24-.41-.29-.76-.04-.35.43-.28.39-.63-.04-.35-.47-.31-.51-.67-.03-.36.02-.36,0-.72-.03-.36.29-.4.27-.75-.02-.36-.51-.37-.53-.73-.02-.36.39-.72.39-.74l-2,.11s.23.46.25.82c.02.36-.22.38-.2.74.02.37.3.35.33.71.03.36-.3.39-.27.75.04.37.6.2.64.56.04.36-.15.5-.1.86.05.36-.11.34-.06.7.06.37.3.37.36.73.06.36-.35.44-.29.81.07.37.49.27.57.63.08.36-.06.39.02.75.09.36-.09.4,0,.77.09.36.57.19.68.54.11.35-.27.5-.17.86.12.35.31.29.43.64.12.35-.16.55-.06.82l1.86-.73c-.09-.24-.34-.11-.45-.45-.12-.33.03-.38-.08-.71Z"/>
    <path class="st3" d="M31.77,81.32c-.25-.24-.43.06-.69-.18-.27-.24-.17-.62-.4-.87-.23-.26-.33-.17-.57-.43-.23-.26-.01-.46-.24-.72-.21-.27-.46-.18-.67-.46-.21-.28-.63.18-.85-.11-.21-.29.29-.71.1-.99-.18-.3-.38-.27-.56-.57-.18-.3.28-.43.1-.73-.18-.29-.56-.08-.74-.38-.16-.31-.11-.34-.27-.65-.16-.31.12-.47-.02-.78-.14-.31-.6-.16-.75-.48-.13-.33.15-.79.14-.81l-1.86.73s.37.38.51.72c.15.34-.07.44.08.78.15.34.41.22.58.55.17.33-.13.48.05.82.2.32.64-.06.83.26.19.31.08.52.28.83.19.32.04.36.24.68.21.31.44.2.66.5.22.29-.11.56.11.86.23.3.56.02.79.32.25.28.14.37.39.64.25.28.11.4.36.68.25.28.59-.1.84.17.27.25,0,.57.28.82.27.25.4.11.67.36.27.25.11.57.34.75l1.29-1.53c-.2-.16-.35.06-.61-.18-.26-.24-.15-.35-.41-.59Z"/>
    <path class="st3" d="M41.34,87.16c-.33-.12-.38.22-.71.09-.33-.14-.4-.5-.73-.63-.32-.14-.38-.02-.7-.17-.32-.15-.2-.43-.51-.58-.32-.14-.5.04-.82-.12-.31-.17-.5.43-.82.26-.32-.17-.04-.76-.34-.95-.3-.18-.47-.07-.77-.25-.3-.18.05-.51-.25-.69-.3-.18-.53.17-.82-.03-.29-.2-.26-.25-.55-.45-.29-.2-.12-.47-.39-.68-.27-.22-.6.13-.88-.09-.28-.22-.26-.76-.27-.77l-1.29,1.53s.51.14.8.37c.29.23.14.43.43.66.3.23.47,0,.77.21.3.21.11.48.42.69.31.21.53-.33.84-.13.31.19.31.42.62.61.31.19.2.3.52.49.32.19.48-.01.8.17.32.17.13.55.46.73.33.17.52-.22.85-.06.33.16.27.29.61.44.34.15.25.34.6.48.34.14.51-.34.84-.2.34.14.22.54.57.67.35.13.41-.06.76.07.35.12.32.48.59.56l.63-1.9c-.25-.08-.3.18-.64.06-.33-.12-.28-.26-.61-.39Z"/>
    <path class="st3" d="M52.4,88.94c-.35.01-.27.35-.62.36-.36.01-.56-.31-.92-.31-.35,0-.36.13-.71.12-.35-.02-.35-.33-.7-.34-.35-.02-.45.24-.8.21-.35-.03-.3.59-.65.56-.36-.03-.33-.71-.68-.75-.35-.04-.46.13-.8.08-.35-.06-.14-.49-.48-.55-.33-.06-.43.36-.77.28-.34-.08-.33-.14-.67-.22-.34-.08-.27-.41-.61-.5-.33-.1-.52.36-.86.25-.34-.11-.52-.62-.54-.62l-.63,1.9s.52-.05.87.06c.35.11.28.34.64.45.36.1.43-.16.79-.07.36.09.27.42.64.5.37.08.38-.5.74-.43.36.07.45.29.81.34.37.05.3.2.67.24.37.04.44-.19.8-.15.37.03.34.46.71.49.37.03.39-.41.76-.39.37.02.36.16.73.18.37,0,.36.19.73.2.37,0,.34-.5.7-.5.36,0,.41.4.78.38.37-.01.36-.21.73-.22.37-.02.48.3.76.28l-.15-1.99c-.26.02-.21.28-.56.31-.36.01-.36-.14-.71-.13Z"/>
    <path class="st3" d="M63.3,86.42c-.32.14-.1.42-.43.56-.32.15-.63-.06-.95.09-.32.13-.28.24-.61.36-.33.12-.44-.17-.77-.05-.33.11-.32.4-.66.49-.34.09-.06.65-.41.74-.35.09-.57-.54-.9-.45-.34.1-.38.29-.73.36-.35.07-.32-.41-.66-.34-.34.07-.27.5-.61.57-.35.06-.36,0-.71.05-.35.05-.41-.27-.76-.23-.34.05-.34.54-.7.56-.36.03-.72-.37-.74-.37l.15,1.99s.46-.24.83-.27c.37-.03.39.21.76.16.37-.05.34-.32.7-.37.36-.05.41.29.78.22.37-.07.16-.62.51-.69.36-.07.51.1.88.03.36-.07.35.08.71-.01.36-.1.34-.34.7-.44.36-.1.48.31.85.21.36-.12.21-.54.56-.66.35-.12.4.01.75-.11.35-.13.42.06.77-.08.34-.15.11-.61.45-.76.33-.15.54.21.88.05.34-.16.26-.31.58-.5.32-.18.56.07.81-.07l-.97-1.75c-.22.13-.07.34-.38.51-.3.18-.37.03-.69.17Z"/>
    <path class="st3" d="M71.63,79.2c-.19.29.13.42-.07.71-.21.29-.58.27-.79.54-.22.27-.11.36-.33.63-.22.27-.46.07-.69.33-.23.25-.09.49-.34.74-.24.25.27.6.02.86-.26.25-.77-.21-1.02.02-.26.23-.2.42-.47.65-.26.23-.47-.21-.72.02-.25.23,0,.56-.29.77-.29.2-.32.16-.6.36-.29.2-.48-.06-.76.14-.28.2-.07.62-.38.8-.31.17-.8-.04-.82-.03l.97,1.75s.32-.42.64-.6c.33-.18.46.03.77-.19.31-.22.16-.45.46-.66.3-.21.49.06.8-.16.3-.23-.12-.59.15-.84.28-.24.49-.16.77-.41.28-.24.35-.1.63-.35.28-.25.16-.44.42-.7.26-.26.57.03.84-.24.26-.28-.07-.57.18-.84.24-.28.36-.18.59-.47.24-.29.38-.17.62-.47.23-.3-.2-.58.02-.87.21-.3.57-.09.78-.4.21-.31.04-.42.24-.73.2-.31.53-.22.68-.46l-1.72-1.01c-.13.22.11.33-.07.63-.19.3-.32.21-.51.5Z"/>
    <path class="st3" d="M73.04,77.6c-.17,0-.33.07-.48.15-.14.08-.27.18-.35.32h0s1.72,1.01,1.72,1.01h0c.09-.16.15-.33.15-.5,0-.17-.07-.35-.16-.5-.09-.14-.22-.27-.38-.35-.16-.08-.34-.13-.5-.13Z"/>
  </g>
  <g>
    <path class="st3" d="M73.84,60.3c.11-.34-.24-.37-.13-.72.11-.34.47-.44.59-.77.11-.33,0-.38.11-.71.12-.33.42-.22.54-.54.14-.31-.07-.49.07-.81.15-.31-.45-.48-.29-.8.17-.31.77-.04.94-.33.17-.29.06-.46.25-.74.19-.28.5.09.69-.16.19-.25-.13-.53.1-.78.22-.25.27-.2.51-.43.24-.23.48.02.72-.18.25-.19.02-.6.3-.79.15-.08.34-.07.5-.03.16.04.27.09.28.09l-.91-1.78s-.36.43-.69.64c-.32.23-.48,0-.8.26-.31.26-.15.46-.43.73-.28.27-.52.02-.79.33-.27.31.23.58,0,.88-.23.3-.47.27-.68.59-.22.32-.32.2-.52.53-.2.33,0,.49-.18.82-.17.33-.55.16-.72.51-.15.35.25.52.11.86-.13.34-.28.29-.41.64-.13.35-.31.28-.43.63-.12.35.37.48.26.82-.12.34-.51.25-.62.6-.11.35.07.4-.04.75-.11.35-.46.34-.53.61l1.92.55c.07-.25-.19-.29-.09-.63.1-.34.25-.29.36-.63Z"/>
    <path class="st3" d="M73.27,71.16c-.09-.32-.4-.15-.5-.48-.11-.33.16-.6.09-.93-.06-.33-.21-.3-.26-.65-.04-.34.26-.39.21-.72-.02-.33-.29-.4-.31-.74-.02-.34-.62-.22-.62-.58,0-.36.66-.4.68-.74.02-.34-.17-.44-.14-.79.04-.35.49-.18.52-.52.03-.34-.38-.4-.34-.75.05-.35.11-.34.17-.68.07-.34.38-.3.46-.63.08-.34-.38-.5-.29-.84.09-.34.59-.54.6-.56l-1.92-.55s.07.52-.02.88c-.09.36-.33.3-.42.67-.09.37.19.43.12.79-.07.36-.4.3-.45.68-.05.38.52.34.48.71-.04.37-.25.46-.29.84-.02.37-.17.32-.19.7-.02.38.23.43.23.8,0,.37-.43.39-.4.78.03.39.46.35.49.72.05.37-.09.39-.04.77.05.38-.12.41-.05.79.08.38.56.23.66.59.11.36-.28.51-.16.88.11.37.32.3.45.65.14.35-.15.58-.01.84l1.81-.84c-.11-.22-.33-.09-.46-.41-.12-.32.02-.37-.1-.68Z"/>
    <path class="st3" d="M80.6,76.14c-.3.12-.12.4-.44.52-.33.08-.58-.15-.89-.11-.31.05-.29.19-.61.2-.32.02-.31-.31-.59-.32-.28-.02-.39.19-.69.14-.28-.1-.4.53-.72.38-.32-.15-.04-.76-.28-.92-.24-.17-.42-.07-.66-.29-.23-.23.17-.47-.03-.69-.2-.23-.54.04-.74-.23-.2-.27-.15-.3-.34-.59-.18-.29.09-.47-.08-.77-.17-.3-.63-.12-.78-.42-.16-.31.09-.78.08-.79l-1.81.84s.41.36.58.7c.18.33-.04.44.14.77.19.33.43.19.63.51.21.32-.07.5.17.83.25.32.62-.13.87.16.26.29.2.52.51.79.31.26.18.36.53.6.36.23.53.04.89.22.37.16.25.56.68.69.44.08.5-.31.9-.28.4.03.4.19.81.17.41-.02.43.17.84.1.42-.06.26-.57.63-.66.37-.1.53.26.91.13.37-.15.29-.33.64-.49.34-.18.59.09.85-.07l-1-1.73c-.21.13-.06.33-.36.49-.3.15-.36,0-.66.13Z"/>
    <path class="st3" d="M86.74,67.67c-.11.33.24.37.13.7-.12.33-.49.42-.61.75-.12.33,0,.38-.14.7-.14.32-.42.21-.56.53-.15.31.05.5-.1.82-.15.32.45.49.28.81-.17.32-.78.06-.94.37-.16.31-.05.47-.22.78-.18.31-.51-.03-.69.27-.09.17-.02.25.03.36.07.11.09.24,0,.36-.22.23-.25.2-.5.42-.24.23-.48-.02-.72.19-.26.19,0,.62-.29.81-.28.2-.78-.02-.79-.01l1,1.73s.34-.43.65-.65c.32-.22.46-.03.78-.26.31-.26.13-.46.42-.73.29-.27.51-.03.81-.35.28-.34-.23-.62-.02-.94.18-.32.41-.32.59-.64.18-.32.3-.21.47-.53.17-.33-.02-.48.15-.8.17-.32.55-.15.71-.48.16-.34-.24-.51-.08-.85.14-.34.28-.28.42-.62.14-.34.33-.27.46-.62.13-.35-.36-.49-.23-.84.13-.34.51-.25.63-.6.11-.36-.06-.41.04-.77.1-.36.45-.35.53-.63l-1.93-.51c-.07.25.19.29.1.62-.09.34-.24.29-.35.62Z"/>
    <path class="st3" d="M87.56,56.66c.08.32.39.18.46.51.06.34-.23.56-.21.89.02.35.15.35.18.7.02.35-.29.37-.28.72.01.35.27.43.27.78,0,.35.62.25.61.61-.01.36-.68.39-.69.74-.02.35.16.44.13.8-.02.35-.48.19-.51.53-.04.34.4.4.35.75-.05.35-.1.34-.16.69-.06.35-.39.31-.45.64-.06.34.4.49.32.83-.08.35-.57.56-.58.57l1.93.51s-.09-.52,0-.88c.09-.36.33-.31.4-.68.07-.37-.2-.42-.14-.79.05-.37.38-.31.44-.69.05-.37-.54-.33-.5-.69.04-.36.25-.46.27-.83.02-.37.18-.32.2-.69.01-.37-.23-.42-.22-.79,0-.37.43-.37.43-.75,0-.37-.44-.36-.45-.72-.01-.37.14-.37.12-.74-.02-.37.17-.38.15-.75-.03-.39-.53-.31-.58-.68-.05-.37.33-.48.25-.87-.1-.38-.28-.33-.39-.7-.11-.37.16-.56.06-.85l-1.86.73c.08.23.33.1.43.43.1.32-.05.36.03.68Z"/>
    <path class="st3" d="M80.08,52.02c.31-.11.14-.4.46-.5.33-.09.58.17.9.13.31-.05.3-.17.62-.2.32,0,.33.3.62.32.29.03.4-.22.71-.15.3.07.37-.55.71-.43.34.11.1.77.37.89.26.16.44.02.69.22.26.2-.12.48.1.68.22.19.53-.1.75.14.22.24.17.29.37.54.18.28-.07.46.09.73.16.27.6.08.76.39.15.31-.13.76-.13.78l1.86-.73s-.38-.4-.56-.74c-.17-.35.04-.47-.16-.82-.21-.35-.45-.19-.67-.52-.25-.31.03-.52-.25-.83-.29-.31-.6.17-.89-.09-.28-.27-.26-.49-.59-.73-.34-.22-.22-.32-.58-.53-.39-.17-.51,0-.89-.13-.38-.14-.27-.54-.7-.64-.43-.07-.48.35-.87.32-.4-.03-.39-.16-.8-.16-.4.03-.42-.17-.83-.11-.41.06-.27.56-.64.64-.37.09-.52-.29-.9-.16-.37.13-.3.31-.66.46-.35.15-.59-.11-.84.02l.91,1.78c.23-.11.08-.33.38-.48.31-.13.36.01.67-.1Z"/>
  </g>
  <path class="st1" d="M62.59,43.38"/>
  <g>
    <path class="st3" d="M45.17,62.66c-.14-.06-.31-.08-.47-.06-.16.02-.32.1-.47.2-.15.1-.27.23-.36.36-.09.13-.19.28-.21.42-.02.13.02.26.08.36l1.75-.96c-.07-.14-.19-.25-.32-.31Z"/>
    <path class="st3" d="M43.81,69.63c-.08-.08-.33.16-.43,0-.09-.18.19-.34.18-.48,0-.16-.14-.17-.1-.37.05-.21.34-.12.41-.3.08-.18-.13-.34-.03-.5.11-.14-.4-.5-.21-.68.21-.18.62.35.8.24.09-.05.21-.17.28-.27.08-.1.15-.19.29-.31.28-.24.54.16.82-.17.24-.37-.15-.57-.04-.91.08-.36.13-.36.13-.74-.03-.37.29-.43.18-.86-.13-.43-.59-.25-.71-.54-.12-.28.11-.73.1-.75l-1.75.96s.34.19.43.41c.09.21-.14.34-.1.45.03.13.32.1.33.28,0,.18-.34.11-.36.23-.04.11.54.33.43.51-.13.17-.35.07-.49.17-.08.05-.13.04-.19.02-.05-.01-.09-.04-.24.05-.29.18-.2.41-.46.64-.25.25-.59-.01-.83.33-.22.36.2.53.06.84-.11.31-.25.27-.34.62-.06.36-.25.34-.24.77.05.44.54.3.66.63.15.32-.17.59.13.93.33.3.45.14.78.32.33.15.33.49.63.56l.4-1.96c-.12-.03-.18.23-.36.16-.16-.08-.08-.21-.18-.29Z"/>
    <path class="st3" d="M44.79,70.28c-.06-.15-.14-.26-.21-.35-.07-.09-.14-.17-.23-.18h0s-.4,1.96-.4,1.96h0c.18.04.38.02.52-.05.15-.08.27-.22.35-.37.07-.15.1-.33.08-.51-.02-.18-.06-.36-.12-.5Z"/>
  </g>
  <g>
    <path class="st3" d="M44.22,76.24c-.15.02-.31.08-.44.17-.13.09-.25.23-.35.38-.09.15-.14.32-.14.49,0,.17,0,.36.09.5.08.14.24.25.4.33l.86-1.81c-.13-.06-.27-.09-.41-.07Z"/>
    <path class="st3" d="M52.19,75.41c-.19.2.1.4-.12.6-.22.21-.55.06-.77.22-.23.15-.16.27-.41.41-.26.13-.39-.14-.64-.04-.25.1-.24.36-.51.44-.28.07-.06.65-.37.71-.32.05-.45-.61-.73-.58-.29.02-.36.21-.67.21-.32,0-.2-.46-.49-.47-.28-.02-.32.42-.62.39-.3-.04-.29-.09-.58-.15-.29-.06-.23-.38-.5-.46-.27-.08-.46.36-.75.25-.14-.06-.24-.21-.29-.35-.06-.14-.07-.27-.08-.27l-.86,1.81s.51.01.84.13c.33.12.26.36.61.46.36.1.42-.17.77-.1.35.07.29.39.66.44.37.04.31-.54.66-.52.35.01.46.21.8.21.35-.01.31.15.67.12.36-.03.37-.28.72-.34.35-.07.45.35.82.25.37-.11.22-.52.56-.65.33-.14.39,0,.72-.18.32-.18.42-.02.74-.23.31-.23-.02-.6.24-.83.26-.23.57.04.83-.24.25-.28.1-.4.32-.69.21-.29.54-.18.69-.43l-1.72-1.02c-.11.17.13.29-.03.53-.17.23-.29.14-.47.35Z"/>
    <path class="st3" d="M53.44,74.15c-.17,0-.31.06-.44.13-.12.06-.24.14-.31.25h0s1.72,1.02,1.72,1.02h0c.09-.16.15-.34.14-.5-.01-.17-.09-.34-.19-.48-.1-.13-.25-.24-.41-.31-.17-.07-.35-.1-.51-.1Z"/>
  </g>
  <ellipse class="st3" cx="34.23" cy="64.1" rx="1.73" ry="1.04" transform="translate(-31.63 94.79) rotate(-86.88)"/>
  <ellipse class="st3" cx="58.78" cy="64.23" rx="1.73" ry="1.04" transform="translate(-8.56 119.42) rotate(-86.88)"/>
  <g>
    <path class="st3" d="M36.6,57.37c.1-.06.21-.18.29-.31.08-.13.15-.29.2-.47.05-.17.06-.34.05-.5-.02-.16-.04-.33-.12-.44-.07-.1-.19-.16-.31-.19l-.43,1.95c.1.02.21,0,.31-.06Z"/>
    <path class="st3" d="M30.74,58.07c.18-.1-.04-.38.15-.48.19-.1.44.12.62.03.19-.08.13-.21.32-.28.19-.07.3.21.49.15.18-.06.16-.32.36-.37.2-.05,0-.63.22-.67.22-.05.36.62.55.59.2-.03.23-.21.44-.23.2,0,.14.45.32.46.18,0,.21-.43.42-.42.21.02.21.07.42.1.21.03.18.35.39.38.21.03.32-.44.53-.4.22.04.33.51.33.51l.43-1.95s-.35.14-.58.1c-.23-.04-.19-.29-.43-.32-.24-.04-.28.24-.52.21-.24-.03-.2-.36-.45-.38-.25-.02-.21.56-.45.55-.24,0-.34-.2-.59-.18-.25.02-.23-.14-.48-.11-.25.04-.24.27-.48.32-.24.05-.34-.37-.59-.3-.25.07-.12.48-.35.56-.23.07-.28-.06-.51.03-.23.09-.3-.08-.54.02-.23.11.02.55-.19.66-.21.11-.43-.23-.65-.1-.21.13-.11.29-.31.43-.2.14-.44-.1-.6.01l1.2,1.6c.12-.09-.05-.29.12-.41.17-.12.26.02.43-.09Z"/>
    <path class="st3" d="M29.51,58.49c.13.08.27.11.38.13.11.01.22.01.3-.05h0s-1.2-1.6-1.2-1.6h0c-.1.07-.17.18-.19.31-.02.13,0,.29.06.44.05.15.15.3.27.44.12.14.26.25.39.33Z"/>
  </g>
  <g>
    <path class="st3" d="M55.9,55.69c-.07.13-.09.29-.08.45.01.16.07.33.16.48.08.16.19.29.31.39.12.11.24.22.36.26.12.04.23.02.33-.02l-.77-1.84c-.13.05-.24.15-.3.27Z"/>
    <path class="st3" d="M63.95,56.14c-.24-.13-.35.19-.58.07-.23-.12-.25-.47-.5-.58-.26-.1-.3.02-.56-.08-.26-.09-.17-.38-.44-.47-.28-.07-.4.15-.67.1-.27-.06-.31.56-.56.52-.25-.04-.21-.7-.49-.74-.28-.01-.36.15-.63.16-.27,0-.18-.47-.47-.46-.29.02-.26.45-.54.48-.27.04-.28-.02-.56.03-.27.05-.36-.26-.64-.19-.28.08-.18.55-.43.64-.25.09-.65-.21-.67-.2l.77,1.84s.19-.3.4-.37c.22-.07.29.17.49.11.21-.05.15-.32.37-.37.22-.04.27.29.48.26.21-.02.09-.59.33-.6.23-.02.31.19.53.19.23,0,.19.16.41.18.22.03.28-.22.51-.18.23.04.15.46.36.51.21.05.32-.37.54-.31.22.07.18.2.39.28.22.08.15.26.35.34.21.09.4-.38.62-.28.22.11.05.48.25.59.2.12.31-.06.5.08.19.13.06.45.2.54l1.12-1.65c-.17-.12-.29.12-.52-.04-.23-.16-.14-.28-.38-.42Z"/>
    <path class="st3" d="M65.09,57.35c.04-.15.02-.3-.02-.43-.04-.13-.1-.25-.21-.33h0s-1.12,1.65-1.12,1.65h0c.09.06.2.09.32.07.13-.02.28-.09.42-.17.13-.08.27-.21.38-.35.11-.14.2-.3.24-.45Z"/>
  </g>
  <g>
    <path class="st3" d="M22.68,53.74c.11-.16.17-.36.19-.55.01-.18-.05-.35-.15-.5-.1-.15-.24-.26-.4-.33-.15-.08-.34-.16-.54-.14-.19.02-.41.11-.59.23l1.06,1.69c.17-.11.32-.24.42-.4Z"/>
    <path class="st3" d="M16.73,63.64c.02-.41-.32-.34-.3-.77.03-.36.3-.6.4-.93v.07c.02-.05.03-.11.05-.17.08-.4-.06-.42.02-.83.1-.4.41-.33.51-.71.1-.38-.09-.55.05-.93.14-.38-.47-.5-.28-.89.19-.39.79-.14,1-.48.2-.34.09-.53.33-.87.24-.33.51.05.76-.25.25-.3-.09-.6.2-.9.28-.3.31-.26.62-.54.3-.28.53-.05.84-.3.31-.25.07-.67.41-.91.34-.24.9-.09.92-.1l-1.06-1.69s-.39.49-.76.76c-.36.28-.52.07-.88.37-.36.3-.18.51-.52.82-.34.31-.56.08-.89.42-.33.34.21.63-.08.97-.29.34-.52.35-.79.73-.26.37-.35.26-.59.66-.24.4-.03.57-.24.98-.2.41-.59.25-.76.7-.16.45.24.57.12,1.01-.12.44-.27.4-.38.85-.08.45-.27.41-.36.87-.01.07-.01.13,0,.19v.08c.07.25.43.3.38.66-.05.42-.44.45-.47.9-.02.45.15.46.16.91,0,.45-.33.57-.32.92l2-.1c0-.3-.27-.26-.28-.67-.01-.42.15-.41.18-.82Z"/>
    <path class="st3" d="M22.37,74.13c-.37-.12-.4.23-.79.08-.38-.16-.45-.54-.78-.73-.3-.18-.39-.11-.65-.27l-.07-.04h0s.06.04.01,0c-.29-.24-.09-.48-.35-.75-.26-.28-.52-.18-.77-.5-.24-.32-.66.14-.91-.21-.23-.37.3-.76.1-1.11-.18-.36-.42-.35-.58-.73-.16-.38.31-.42.16-.79-.13-.37-.55-.23-.68-.62-.11-.4-.06-.41-.16-.81-.1-.4.23-.49.16-.88-.08-.39-.55-.38-.59-.8-.05-.42.35-.83.36-.85l-2,.1s.24.58.3,1.03c.04.45-.2.49-.11.95.09.46.34.41.46.85.12.44-.2.52-.08.98.16.44.65.12.81.55.15.42.05.62.23,1.05.2.41.05.43.27.84.23.41.48.32.72.7.27.37-.08.64.22,1.01.3.37.63.07.94.41.33.33.22.43.61.76.07.05.13.09.16.12l-.07-.05c.31.25.25.4.63.63.43.24.62-.24,1.03-.04.42.18.31.58.76.73.45.14.51-.04.95.06.45.1.5.45.86.5l.28-1.98c-.29-.04-.3.22-.69.15-.39-.09-.35-.24-.73-.35Z"/>
    <path class="st3" d="M24.69,74.91c-.09-.16-.24-.27-.39-.37-.15-.1-.31-.18-.5-.21h0s-.28,1.98-.28,1.98h0c.23.04.46.02.65-.05.19-.07.36-.21.47-.35.11-.14.17-.31.18-.49,0-.18-.04-.36-.13-.51Z"/>
  </g>
  <g>
    <path class="st3" d="M34.07,86.52c.05-.18.05-.37,0-.54-.05-.16-.17-.3-.3-.42-.14-.12-.3-.19-.45-.23-.16-.04-.34-.09-.49-.06-.14.03-.27.11-.38.2l1.31,1.51c.15-.13.27-.3.32-.47Z"/>
    <path class="st3" d="M23.83,86.49c.28.07.31-.27.61-.17.3.11.32.47.55.6.24.15.31.05.57.24.27.22.07.46.4.71.35.25.59.09.97.28.4.17.49-.46.84-.35.34.09.28.75.7.8.41.03.51-.15.9-.17.39-.03.3.45.71.39.41-.08.33-.5.7-.6.37-.11.39-.06.75-.2.35-.15.51.14.87-.04.36-.2.16-.64.48-.85.31-.21.86-.12.88-.14l-1.31-1.51s-.16.41-.42.58c-.26.17-.39-.05-.64.09-.26.13-.15.38-.44.5-.29.11-.4-.21-.67-.12-.28.07-.06.61-.37.67-.32.05-.44-.14-.73-.12-.3,0-.26-.15-.55-.17-.28-.03-.36.2-.65.13-.29-.08-.15-.49-.36-.58-.2-.11-.43.26-.68.09-.25-.2-.16-.31-.44-.54-.3-.23-.19-.39-.55-.63-.38-.22-.58.25-.92.1-.35-.14-.26-.53-.66-.65-.41-.09-.44.09-.86.06-.42-.01-.55-.33-.81-.31l.15,1.99c.26-.02.21-.29.49-.29.27.02.24.17.5.22Z"/>
    <path class="st3" d="M15.99,80.56s.09.01.17.05c.09.02.17.08.16.21-.03.3-.39.43-.46.78-.07.37.06.4.02.8-.02.42-.34.43-.27.94.09.45.34.54.53.82.04.04.07.09.11.15.29.4.67-.1.93.16.27.22-.03.82.36,1.03.39.18.54.04.91.16.37.11.11.52.5.61.38.09.47-.34.83-.28.36.06.35.11.7.17.35.05.31.38.7.42.39.04.48-.44.86-.43.19,0,.38.1.53.2.15.1.25.2.26.2l-.15-1.99s-.39.24-.7.23c-.31-.01-.29-.26-.6-.3-.31-.04-.37.23-.71.18-.34-.05-.28-.38-.61-.43-.32-.06-.33.53-.66.46-.32-.07-.37-.29-.66-.39-.28-.1-.2-.23-.44-.35-.23-.12-.38.07-.59-.1-.19-.18.16-.45.07-.58h0c-.06-.14-.48,0-.53-.24-.03-.26.12-.26.13-.53.03-.29.22-.26.28-.58.06-.33-.43-.41-.37-.77.04-.39.49-.37.4-.99-.07-.31-.23-.49-.37-.58-.15-.11-.29-.21-.56-.35-.52-.23-.63-.53-1.03-.54l.08,2c.12,0,.15-.27.27-.23.08.04-.08.15-.09.09Z"/>
    <path class="st3" d="M7.42,72.51c.43.25.49-.11.86.05.36.15.37.5.55.64.17.15.27.06.44.29.15.25-.13.39-.07.56.04.18.31.21.3.54-.02.35.59.29.58.67,0,.38-.67.51-.56,1.01.14.47.35.51.57.9.22.39-.24.49.03.89.31.36.63.08.93.37.31.29.28.32.61.58.33.24.17.52.54.75.37.21.65-.18,1,0,.35.17.53.72.56.73l.77-1.85s-.5.02-.81-.15c-.31-.16-.19-.38-.48-.55-.28-.18-.44.05-.72-.15-.26-.21-.06-.46-.27-.67-.22-.21-.56.25-.79,0-.2-.27-.1-.46-.24-.73-.13-.27.03-.3-.05-.55-.05-.25-.29-.25-.3-.58,0-.35.45-.31.46-.76-.01-.5-.44-.47-.55-.93-.16-.46-.04-.52-.29-.94-.28-.38-.15-.52-.56-.88-.44-.31-.66.16-1.03-.01-.35-.16-.24-.54-.48-.67-.22-.14-.33.03-.54-.18-.2-.23.04-.48-.06-.65l-1.73,1c.19.31.38.13.67.5.33.35.23.47.65.76Z"/>
    <path class="st3" d="M8.1,61.75c.24.33.43,0,.6.26.14.25-.14.46-.14.66h0c-.02.21.13.25.02.47-.14.21-.41.03-.54.15-.05.04-.11.18-.16.3-.05.13-.1.25-.26.38-.31.28.19.64-.09.92-.26.28-.82-.09-1.08.3-.24.39-.12.57-.29.97-.15.4-.54.1-.67.55-.11.45.32.54.26.95-.04.42-.1.42-.1.85.01.43-.31.48-.25.93.08.46.57.41.69.81.13.39-.04.97-.01,1l1.73-1s-.36-.22-.45-.53c-.09-.3.16-.36.11-.65-.04-.3-.31-.28-.32-.61,0-.33.34-.31.37-.61.04-.3-.54-.31-.46-.65.09-.33.31-.37.43-.66.14-.28.25-.19.41-.44.17-.24,0-.42.22-.67.24-.24.53.08.78-.14.29-.25-.03-.53.35-.87.34-.35.48-.26.74-.71.2-.45.36-.44.43-.94,0,0,0-.03,0-.05-.02-.56-.52-.45-.67-.87-.09-.21-.07-.36-.05-.52.03-.15-.01-.38-.12-.52-.21-.29-.36-.16-.51-.43-.13-.27.18-.44.14-.61l-1.96.41c.09.37.32.26.5.7.21.42.1.5.34.86Z"/>
    <path class="st3" d="M5.54,50.16c-.18.4.19.44.04.82-.12.39-.48.55-.56.97-.06.42.06.44.03.85-.03.42-.33.42-.33.86.03.45.29.52.36.95.09.43.66.16.77.53.14.36-.45.71-.15,1.16.16.22.31.31.49.39.16.08.33.15.59.26.25.09-.06.46.1.5.14.05.54-.3.71-.1.12.22.05.26.05.5-.03.25-.38.29-.41.45,0,.02.01.11.04.2.03.08.09.15.14.22.11.14.21.27.21.49-.01.41-.35.92-.34.97l1.96-.41s-.08-.07-.14-.19c-.06-.11-.13-.28-.12-.43,0-.15.08-.22.15-.29.07-.07.14-.09.2-.41.1-.57-.17-.55-.16-1.04-.04-.48.26-.63-.02-1.11-.35-.43-.68.04-1.07-.16-.21-.08-.33-.16-.46-.25-.1-.08-.36-.2-.38-.22-.15-.12-.03-.19-.15-.36-.12-.19-.36-.12-.47-.41-.09-.31.32-.41.27-.71-.04-.3-.47-.25-.49-.6,0-.34.14-.34.16-.68.03-.34.22-.31.27-.64.07-.32-.45-.41-.34-.75.09-.35.51-.23.62-.54.15-.29-.05-.39.13-.68.17-.3.5-.16.64-.34l-1.57-1.24c-.2.28.02.38-.2.75-.22.37-.35.29-.54.69Z"/>
    <path class="st3" d="M10.61,40.33c.04.2.37.12.37.4-.04.31-.37.28-.52.57-.17.32-.06.4-.24.77-.17.39-.46.29-.6.72-.13.43.11.59.02.99-.07.41.55.38.51.76-.03.37-.69.46-.69.84,0,.32.19.32.1.63-.11.28-.5.02-.59.21-.11.17.23.45.02.66-.23.2-.27.15-.55.35-.3.2-.5-.06-.85.18-.35.25-.11.68-.42.95-.3.28-.89.33-.91.36l1.57,1.24s.09-.44.34-.66c.25-.21.4,0,.66-.2.29-.2.14-.43.47-.65.34-.24.54.04.92-.3.37-.38-.17-.64.09-1.01.22-.39.46-.44.6-.9.1-.47.24-.47.24-.9,0-.37-.25-.38-.22-.72.04-.34.46-.29.53-.61.07-.32-.36-.42-.26-.75.11-.32.24-.27.38-.57.15-.31.31-.2.5-.56.19-.4-.26-.6-.15-1.02.08-.44.47-.5.41-1.05-.05-.27-.15-.38-.24-.48-.09-.11-.19-.19-.32-.41-.29-.4-.13-.7-.37-.93l-1.38,1.45c.16.16.35-.04.52.17.15.2,0,.27.06.47Z"/>
    <path class="st3" d="M11,29.14c-.4.18-.18.44-.55.65-.36.22-.77.14-1.11.48-.31.34-.21.43-.47.79-.23.37-.51.22-.71.63-.19.41.02.61-.11,1.01-.11.42.5.44.43.82-.07.37-.74.35-.77.78-.02.43.16.53.19.95.04.42-.44.32-.37.78.1.46.52.35.66.76.16.41.11.43.33.83.24.37-.01.59.29.95.31.35.69.04.98.31.29.27.26.81.26.81l1.38-1.45s-.54-.21-.79-.44c-.25-.24-.07-.41-.27-.64-.18-.22-.4-.07-.57-.33-.14-.28.16-.41.06-.67-.08-.27-.62-.02-.69-.36-.07-.34.12-.47.1-.8,0-.33.14-.29.16-.62.03-.32-.21-.39-.15-.73.07-.34.49-.24.58-.53.1-.29-.31-.44-.17-.76.15-.3.28-.23.45-.49.18-.26.33-.14.53-.34.2-.19-.15-.56.12-.76.29-.19.5.17.79.04.3-.13.24-.3.59-.44.37-.14.6.14.94-.04l-.95-1.76c-.17.09-.04.32-.36.44-.35.13-.4-.02-.79.13Z"/>
    <path class="st3" d="M15.86,19.17c-.31.29,0,.47-.29.76-.27.3-.66.28-.91.62-.25.33-.12.42-.35.76-.2.35-.48.21-.68.58-.18.38,0,.58-.15.96-.16.38.47.48.35.84-.12.36-.76.25-.87.66-.07.41.08.54.04.95-.03.41-.5.22-.51.67,0,.44.43.44.46.84.03.39,0,.41.01.74,0,.3-.32.24-.36.42-.06.15.36.42.18.65-.09.11-.27.11-.4.06-.13-.05-.22-.11-.23-.11l.95,1.76s.53-.53.82-.95c.29-.43.53-.32.71-.87.12-.56-.17-.64-.18-1.08-.03-.42.29-.44.26-.79-.02-.33-.59-.19-.59-.55,0-.35.22-.45.25-.78.06-.34.2-.27.26-.6.09-.33-.15-.43-.04-.77.11-.34.51-.2.64-.51.12-.31-.26-.48-.11-.8.17-.31.3-.24.47-.54.2-.29.34-.19.54-.46.2-.27-.22-.56.02-.83.23-.28.56,0,.8-.24.25-.22.12-.37.39-.58.28-.2.53.03.73-.08l-1-1.73c-.29.17-.12.36-.46.61-.35.24-.42.14-.76.41Z"/>
    <path class="st3" d="M23.85,11.22c-.35.37.04.5-.22.86-.2.36-.59.45-.75.84-.14.38-.03.43-.15.79-.13.37-.42.27-.54.63-.12.35.09.52-.04.85-.14.32.48.47.31.81-.16.34-.78.06-.94.33-.19.24-.07.44-.3.66-.22.23-.45-.2-.65-.05-.19.16-.01.5-.28.66-.29.11-.3.06-.54.09-.27.02-.28-.35-.84-.3-.56.09-.48.59-.87.73-.38.16-.94-.02-.96,0l1,1.73s.26-.38.56-.5c.29-.1.35.14.55.11.22-.02.25-.26.75-.3.5-.08.6.23,1.06.04.45-.23.06-.65.42-.88.35-.25.59-.19.9-.52.29-.34.37-.21.63-.57.22-.38.05-.54.22-.9.18-.37.56-.21.72-.59.14-.37-.27-.52-.14-.88.13-.36.26-.31.39-.66.12-.35.3-.28.43-.6.14-.3-.35-.5-.18-.8.16-.32.54-.1.7-.33.17-.2.04-.34.26-.5.27-.17.54.09.75-.03l-.89-1.79c-.28.15-.12.36-.49.56-.38.27-.53.14-.86.51Z"/>
    <path class="st3" d="M36.48,11.03c-.35-.2-.44.15-.79-.04-.34-.19-.43-.56-.81-.72-.38-.16-.42-.05-.8-.17-.38-.13-.29-.43-.69-.55-.4-.1-.56.13-.95.03-.4-.08-.39.55-.77.49-.37-.06-.35-.74-.76-.76-.41-.03-.51.13-.91.14-.4,0-.26-.46-.68-.46-.42.04-.39.47-.79.51-.4.04-.41.01-.81.08-.4.07-.5-.23-.91-.11-.41.12-.31.59-.68.74-.37.14-.9-.08-.93-.06l.89,1.79s.31-.37.63-.5c.32-.14.41.13.72.02.32-.1.26-.37.6-.43.35-.06.39.24.72.22.33-.03.18-.59.54-.63.36-.02.48.19.83.19.35,0,.3.17.65.19.35.02.42-.21.77-.15.35.07.29.46.62.55.33.08.44-.34.79-.26.34.11.3.25.63.37.34.11.26.3.59.44.32.14.51-.35.83-.18.33.17.17.55.48.71.3.18.4.02.71.21.31.19.19.52.4.68l1.17-1.62c-.25-.17-.35.05-.7-.16-.34-.21-.25-.34-.6-.56Z"/>
    <path class="st3" d="M49.52,5.66c-.44-.04-.37.29-.77.3-.41,0-.68-.26-1.11-.19-.42.08-.37.24-.77.35-.38.13-.5-.14-.89.02-.37.19-.34.46-.69.65-.34.21.08.66-.23.86-.3.21-.74-.3-1.05-.06-.3.25-.27.44-.56.69-.29.25-.5-.19-.79.08-.29.27,0,.59-.26.86-.27.27-.31.24-.57.52-.26.28-.51.08-.77.37-.25.3.09.64-.15.93-.23.28-.79.32-.81.34l1.6,1.19s.1-.48.33-.76c.23-.28.42-.12.64-.38.23-.26.02-.45.26-.71.24-.26.48-.03.72-.27.24-.25-.23-.58.03-.83.26-.25.48-.17.74-.4.27-.22.34-.07.6-.29.27-.2.17-.42.45-.62.3-.18.52.18.8,0,.29-.14.08-.54.39-.68.31-.12.36,0,.67-.11.31-.08.36.07.66.02.3-.04.19-.57.53-.58.34,0,.37.37.66.41.29.03.33-.17.63-.09.31.07.25.44.44.51l.85-1.81c-.32-.12-.36.1-.78-.02-.42-.1-.38-.28-.83-.32Z"/>
    <path class="st3" d="M59,8.99c-.26.21,0,.44-.27.63-.28.19-.6.01-.86.13-.27.12-.23.24-.52.31-.29.07-.34-.27-.61-.23-.26-.04-.36.27-.64.19-.27-.07-.36.56-.69.43-.34-.13-.05-.77-.3-.9-.25-.19-.43-.07-.68-.3-.26-.22.15-.48-.09-.72-.24-.23-.56.05-.81-.21-.26-.27-.22-.31-.49-.58-.28-.27-.06-.52-.38-.8-.31-.28-.68.08-.99-.16-.34-.21-.49-.79-.54-.79l-.85,1.81s.43-.02.7.17c.26.19.1.38.34.59.24.21.43.02.68.26.25.25,0,.48.26.74.26.27.59-.21.86.05.27.27.22.5.53.76.31.26.19.35.54.6.39.22.53.06.93.21.39.17.3.55.77.66.48.06.5-.39.92-.37.42-.05.45.13.88.03.43-.1.49.08.91-.1.42-.18.13-.63.48-.82.32-.22.61.09.92-.16.32-.25.18-.4.47-.66.28-.25.58-.08.78-.26l-1.37-1.46c-.21.19,0,.35-.26.6-.26.23-.36.13-.62.34Z"/>
    <path class="st3" d="M69.13,10.71c-.27-.06-.32.25-.61.14-.28-.15-.26-.5-.47-.68-.22-.21-.32-.1-.54-.35-.22-.25.02-.46-.18-.72-.2-.28-.47-.2-.69-.51-.24-.31-.64.15-.88-.15-.23-.29.22-.78-.11-1.09-.34-.3-.56-.22-.95-.43-.42-.19-.1-.56-.62-.7-.53-.08-.57.34-1.03.37-.47.05-.48.02-.93.16-.4.19-.6-.09-.98.17-.38.26-.1.68-.4.93-.29.25-.83.18-.85.2l1.37,1.46s.2-.47.46-.69c.26-.2.41-.03.65-.18.23-.16.1-.38.35-.5.25-.08.33.24.51.22.19-.01.15-.57.45-.55.29.07.31.29.54.4.23.16.11.24.32.43.2.2.41.06.62.32.21.27-.13.53.08.82.21.29.57.04.79.34.24.31.11.4.39.71.27.31.15.44.47.74.36.29.62-.15.97.06.35.2.24.58.67.74.44.12.48-.06.91,0,.43.03.57.36.96.31l-.32-1.97c-.17.02-.12.29-.4.28-.29-.03-.26-.18-.53-.25Z"/>
    <path class="st3" d="M80.18,12.88c-.31-.14-.38.19-.7.04-.31-.17-.33-.53-.62-.72-.29-.19-.37-.08-.66-.28-.3-.21-.12-.46-.43-.68-.31-.22-.53-.06-.87-.27-.34-.21-.55.38-.88.2-.33-.17-.12-.8-.53-.96-.42-.13-.56.02-.97-.04-.41-.06-.21-.49-.65-.53-.45,0-.44.42-.86.46-.42.05-.43,0-.85.1-.4.13-.55-.17-.93,0-.37.16-.2.63-.51.76-.33.13-.65-.25-.65-.25l.32,1.97c.06,0,.6-.33.96-.51.36-.16.47.06.77-.07.29-.12.19-.38.48-.47.3-.07.35.26.62.23.28-.02.17-.59.5-.59.33.03.42.22.72.28.31.05.23.21.52.29.28.11.41-.1.7.05.3.17.08.53.36.71.28.18.52-.18.82.03.3.21.21.33.52.55.32.21.2.38.54.59.34.21.57-.25.9-.06.33.19.19.56.55.74.37.15.44-.01.8.12.37.13.35.49.64.58l.58-1.92c-.24-.07-.29.19-.61.07-.33-.11-.26-.27-.57-.4Z"/>
    <path class="st3" d="M91.67,15.38c-.34-.18-.42.15-.77,0-.34-.16-.41-.55-.78-.69-.36-.14-.41-.03-.77-.16-.36-.13-.27-.42-.64-.55-.38-.11-.54.11-.91,0-.38-.09-.41.53-.77.45-.36-.08-.29-.74-.68-.81-.39-.05-.51.11-.9.09-.39-.02-.24-.48-.66-.48-.42,0-.41.45-.79.48-.38.03-.38-.02-.73.01-.33.02-.36-.3-.64-.32-.28-.02-.39.45-.73.39-.34-.07-.52-.57-.54-.58l-.58,1.92s.56-.04.96.03c.41.07.38.32.82.35.45.01.44-.27.84-.29.38-.03.42.29.76.26.33-.02.19-.6.54-.61.35,0,.45.2.78.22.34.03.28.18.61.23.34.06.42-.18.76-.1.34.08.25.48.58.58.33.09.44-.33.78-.23.33.12.29.25.62.37.33.12.26.31.58.43.32.13.49-.35.82-.19.32.16.18.52.49.69.31.17.4,0,.71.17.3.19.2.52.42.65l1.07-1.69c-.25-.15-.36.09-.68-.11-.33-.2-.26-.32-.6-.51Z"/>
    <path class="st3" d="M99.24,24.76c-.1-.26-.4-.08-.5-.4-.09-.33.16-.63.05-1.02-.12-.38-.24-.35-.39-.71-.15-.36.14-.5-.04-.87-.19-.36-.46-.33-.65-.68-.21-.34-.67.09-.87-.23-.19-.32.3-.73.07-1.06-.23-.32-.44-.27-.7-.56-.26-.29.19-.51-.09-.79-.28-.28-.59.02-.87-.25-.29-.26-.25-.3-.54-.55-.29-.26-.11-.51-.42-.76-.31-.25-.64.11-.95-.1-.31-.22-.37-.78-.4-.79l-1.07,1.69s.49.07.78.28c.29.2.13.4.41.61.27.21.45,0,.71.23.26.23.04.47.29.7.24.24.57-.24.82,0,.26.25.16.48.4.73.23.26.08.33.28.6.2.28.44.16.62.45.18.3-.17.52,0,.81.15.29.54.08.7.39.14.31,0,.37.13.69.13.31-.06.38.04.69.09.32.57.16.66.52.1.36-.29.52-.13.95.19.42.36.33.59.69.23.34.05.62.26.89l1.49-1.34c-.13-.17-.32.02-.52-.23-.17-.26-.04-.33-.16-.58Z"/>
    <path class="st3" d="M106.41,33.2c.04-.38-.3-.32-.27-.71.03-.38.35-.6.34-1.03-.02-.43-.17-.42-.23-.85-.12-.42.2-.53,0-.98-.19-.45-.51-.39-.76-.76-.31-.34-.64.16-.93-.09-.28-.25.03-.82-.36-1.06-.39-.21-.56-.07-.94-.21-.38-.13-.1-.53-.48-.64-.36-.11-.49.31-.83.21-.34-.1-.32-.16-.63-.27-.31-.12-.19-.43-.45-.56-.24-.15-.55.25-.8.04-.13-.09-.17-.29-.17-.44,0-.15.03-.27.02-.28l-1.49,1.34s.54.29.89.53c.34.26.22.46.61.68.4.2.51-.06.89.1.37.13.27.45.65.56.37.11.41-.48.77-.37.34.1.39.33.7.44.29.12.21.24.46.38.24.15.41-.05.64.15.23.2-.1.51.06.7.13.21.53-.03.64.26.13.27-.04.33.04.6.04.3-.13.31-.13.62.01.3.51.29.5.64-.03.36-.43.35-.47.71-.04.37.15.39.12.77-.03.38-.36.48-.37.8l2-.04c0-.23-.27-.2-.24-.54.02-.34.18-.33.22-.69Z"/>
    <path class="st3" d="M112.6,41.25c-.1-.32-.41-.15-.51-.49-.09-.34.17-.61.08-.98-.09-.38-.22-.35-.36-.77-.18-.41.09-.59-.2-1.01-.31-.39-.57-.28-.92-.58-.38-.29-.6.31-.94.13-.34-.15-.21-.8-.65-.91-.42-.08-.54.1-.9.05-.34-.05-.16-.49-.43-.54-.23-.07-.38.35-.63.23-.23-.14-.2-.18-.4-.36-.17-.22.05-.41-.04-.59-.1-.17-.56-.05-.64-.35-.04-.15.05-.31.16-.43.1-.12.2-.19.2-.2l-2,.04s.22.56.33,1.01c.15.44-.12.55.14,1.01.27.46.52.26.82.61.35.31.15.58.61.85.48.23.55-.37.95-.25.4.1.5.31.87.36.36.05.29.19.6.25.27.07.38-.16.64-.04.26.13.02.5.2.64.17.17.5-.14.68.1.16.24.03.3.13.55.09.28-.09.32-.01.66.08.35.57.21.66.57.1.37-.29.52-.16.9.13.38.31.31.45.67.14.36-.12.58,0,.85l1.81-.84c-.1-.23-.33-.1-.47-.42-.13-.32.02-.37-.1-.69Z"/>
    <path class="st3" d="M113.38,52.54c.05-.3-.32-.29-.23-.62.08-.33.44-.42.55-.72.13-.31,0-.36.15-.69.15-.33.43-.2.6-.54.16-.34-.03-.54.12-.9.14-.38-.46-.48-.35-.84.11-.35.76-.26.84-.71.03-.45-.13-.56-.17-.99-.03-.43.42-.34.33-.81-.12-.46-.53-.32-.73-.74-.24-.41-.23-.45-.47-.75-.23-.27.03-.48-.15-.72-.17-.25-.6-.05-.78-.35-.17-.31.09-.79.08-.81l-1.81.84s.4.37.6.72c.2.35-.02.48.23.84.25.35.48.19.73.48.22.27-.06.44.03.6.08.18.6-.08.69.22.07.32-.1.45-.08.74.02.3-.16.26-.17.54-.05.28.19.37.09.69-.1.32-.51.17-.63.47-.13.3.27.48.11.81-.16.33-.29.26-.45.61-.16.35-.33.27-.49.65-.15.39.35.52.23.89-.09.38-.51.33-.57.76-.07.43.16.44.14.86.03.41-.31.55-.26.88l1.97-.33c-.03-.21-.28-.16-.31-.47,0-.32.15-.31.17-.61Z"/>
    <path class="st3" d="M116.53,63.64c.05-.41-.31-.34-.29-.73.02-.39.31-.62.3-1.02-.03-.39-.15-.39-.2-.77-.05-.38.26-.44.2-.83-.06-.39-.34-.43-.41-.81-.09-.38-.65-.12-.74-.48-.09-.36.54-.59.41-.98-.16-.41-.34-.41-.52-.77-.17-.36.3-.44.1-.82-.22-.37-.59-.14-.83-.47-.24-.32-.21-.36-.45-.65-.24-.28,0-.5-.17-.72-.14-.21-.58,0-.7-.29-.11-.3.27-.67.27-.67l-1.97.33s.29.53.48.95c.19.42-.02.55.25.94.27.36.49.17.73.46.23.27-.03.47.15.72.17.25.6-.15.78.14.17.3.04.48.17.78.13.3-.02.35.08.62.1.32.34.29.43.63.09.34-.33.45-.26.78.07.34.5.25.55.6.06.35-.09.37-.05.71.04.35-.16.36-.13.7.01.34.51.29.52.65-.02.35-.42.37-.45.7-.05.32.16.36.1.69-.08.32-.4.33-.48.54l1.91.59c.11-.31-.18-.34-.08-.73.09-.4.22-.37.28-.78Z"/>
    <path class="st3" d="M108.11,71.55c.22-.25-.08-.44.16-.68.24-.25.58-.13.8-.29.23-.13.17-.27.43-.37.28-.09.35.21.65.15.32-.05.38-.32.77-.39.41-.09.15-.65.52-.75.35-.12.68.48,1.07.27.39-.21.36-.43.69-.67.31-.25.49.19.82-.08.31-.28,0-.61.27-.88.27-.28.3-.25.55-.55.25-.29.52-.1.78-.48.27-.38-.15-.67.03-1.04.18-.36.68-.6.7-.63l-1.91-.59s.09.46-.07.73c-.13.29-.35.16-.51.39-.15.23.05.42-.18.68-.23.26-.46.06-.7.29-.23.23.25.57,0,.82-.26.21-.46.16-.72.34-.26.18-.31.04-.57.18-.26.14-.2.36-.49.47-.31.09-.4-.33-.71-.27-.33.05-.27.48-.65.55-.4.08-.44-.06-.87.09-.42.17-.5.02-.92.26-.36.29-.03.64-.31.92-.28.28-.61.03-.87.33-.26.31-.11.43-.35.75-.23.33-.57.25-.73.54l1.76.95c.11-.2-.14-.31.04-.58.19-.27.31-.17.52-.43Z"/>
    <path class="st3" d="M99.84,80.32c.43-.08.25-.39.64-.51.38-.12.72.07,1.1-.12.37-.19.3-.31.65-.53.34-.22.52.01.85-.24.32-.26.23-.52.51-.79.29-.28-.24-.63.02-.89.25-.28.79.12,1.04-.19.25-.31.15-.5.38-.81.22-.32.53.06.74-.27.21-.32-.16-.56.04-.88.19-.33.24-.29.43-.63.19-.33.48-.2.67-.54.18-.35-.23-.61-.07-.95.08-.17.25-.28.4-.34.15-.06.28-.08.29-.09l-1.76-.95s-.06.57-.21.89c-.15.32-.38.21-.53.52-.16.31.08.44-.09.75-.18.31-.46.13-.64.43-.19.3.36.51.16.82-.2.3-.42.28-.62.56-.21.28-.3.15-.52.42-.22.26-.06.45-.29.71-.24.25-.55-.04-.79.18-.24.22.05.54-.21.76-.27.2-.35.09-.63.27-.28.18-.37.01-.65.16-.27.14-.05.58-.36.72-.33.1-.47-.26-.77-.21-.3.06-.27.26-.59.28-.32.02-.39-.33-.6-.34l-.17,1.99c.33.02.3-.24.73-.25.42-.03.44.13.86.05Z"/>
    <path class="st3" d="M93.15,86.43c.32-.28,0-.47.29-.76.26-.3.66-.3.9-.67.21-.38.11-.44.28-.83.16-.39.45-.31.57-.74.1-.43-.14-.58-.09-.98.04-.4-.58-.32-.56-.7.02-.35.69-.44.7-.7.02-.22-.16-.33-.1-.58.09-.24.47.13.55,0,.1-.11-.19-.52.04-.64.23-.08.26-.02.49,0,.24.03.24.38.4.42.03,0,.11,0,.19-.03.07-.03.14-.07.21-.11.14-.09.28-.17.47-.13.38.09.73.55.76.56l.17-1.99s-.41.17-.73.08c-.16-.04-.23-.13-.29-.21-.08-.09-.1-.16-.4-.24-.55-.13-.56.14-1.04.11-.48.03-.59-.3-1.1-.09-.48.27-.02.67-.35.96-.29.33-.51.37-.67.83-.11.47-.25.39-.29.9-.03.46.22.46.2.83-.02.35-.45.33-.48.64-.05.3.39.37.31.69-.09.31-.22.27-.34.55-.12.29-.31.19-.44.45-.17.24.27.52.05.78-.22.26-.54,0-.77.21-.24.21-.12.36-.38.56-.28.19-.52-.05-.73.07l1,1.73c.27-.15.1-.36.44-.58.33-.25.43-.11.75-.39Z"/>
    <path class="st3" d="M82.1,88.83c.26-.21,0-.43.28-.63.29-.19.61-.02.87-.14.27-.11.23-.24.51-.32.29-.06.36.24.59.23.22,0,.29-.26.56-.18.27.1.42-.5.76-.36.34.13.17.79.62.91.44.09.57-.09.99-.06.4,0,.26.47.69.45.43-.03.38-.47.78-.52.39-.07.4-.01.79-.11.38-.1.5.2.89.07.39-.14.26-.62.62-.77.35-.16.89.03.91,0l-1-1.73s-.26.39-.57.52c-.31.13-.4-.1-.7,0-.31.1-.23.37-.55.45-.33.08-.39-.25-.7-.19-.31.03-.15.61-.49.63-.34.02-.46-.18-.77-.19-.31-.03-.25-.17-.52-.23-.27-.07-.38.14-.7.01-.34-.14-.18-.55-.66-.7-.52-.12-.57.32-1.01.32-.44.03-.45-.11-.89-.02-.43.11-.49-.06-.91.12-.4.2-.12.62-.46.83-.33.21-.59-.09-.92.15-.31.25-.19.4-.47.65-.28.25-.57.06-.76.22l1.29,1.53c.23-.2.03-.37.3-.61.27-.24.37-.12.63-.33Z"/>
    <path class="st3" d="M70.18,88.91c.31.28.47-.03.77.24.28.27.33.62.67.87.34.24.43.08.79.28.36.19.26.47.66.61.4.14.57-.07.96,0,.4.08.39-.52.76-.48.37.03.36.72.77.74.41,0,.5-.17.89-.19.39-.03.29.44.7.41.41-.07.35-.49.73-.56.38-.09.4-.03.78-.14.38-.13.5.2.9.04.4-.15.25-.63.61-.8.36-.2.96-.14.97-.15l-1.29-1.53s-.14.39-.42.53c-.28.14-.38-.09-.68.03-.29.12-.22.36-.54.47-.33.09-.4-.24-.72-.17-.32.05-.12.6-.47.66-.35.04-.47-.16-.81-.13-.34,0-.3-.16-.63-.16-.33-.02-.38.21-.72.17-.34-.04-.26-.49-.57-.55-.31-.06-.41.33-.74.23-.32-.1-.26-.24-.55-.39-.29-.16-.22-.29-.47-.47-.26-.18-.52.26-.81.06-.26-.23-.01-.56-.25-.78-.25-.21-.36-.11-.59-.36-.21-.27-.02-.51-.14-.72l-1.64,1.15c.16.26.37.06.62.37.26.31.13.42.42.71Z"/>
    <path class="st3" d="M69.06,86.78c-.08.15-.09.34-.08.52.01.18.06.36.16.53h0s1.64-1.15,1.64-1.15h0c-.08-.13-.2-.25-.34-.31-.15-.07-.33-.09-.5-.09-.17,0-.35.05-.51.14-.16.09-.29.21-.37.36Z"/>
    <g>
      <path class="st3" d="M14,80.43h.01s.01,0,.01,0h.03s.05.04.05.04h.03s.03.02.03.02h.01s.01,0,.01,0h.01s.02,0,.02,0h.02s.02-.02.02-.02l.03-.03.07-.08.07-.09.03-.04h.02s.02-.02.02-.02h.02s0,0,.01,0h.01s.01,0,.01,0h.03s.03.03.03.03h.03s.01.02.01.02c0,0,.01,0,.01,0,0,0,.01,0,.01,0h.02s.02,0,.02,0h.02s.03-.04.03-.04l.03-.03.03-.03v-.02s.02,0,.02,0h0s0-.05,0-.05v-.04s.02-.02.02-.02h0s0-.02,0-.02l.04-.03.02-.02h0s0-.01,0-.01h0s0,0,0,0h.02s.02.01.02.01h.03s.03,0,.03,0h.03s.03,0,.03,0h.02s.01.01.01.01h.01s.01.02.01.02l.03.04.03.04.05.11.05.1.02.04v.02s.02.01.02.01l.05.04.05.04s.07.05.1.06h0s0,0,0,0h0s0,0,0,0h0s0-.02,0-.02v-.02s.02-.02.02-.02v-.02s.02,0,.02,0h0s0,0,0,0h0s0,0,0,0h0s0,.01.01.02l.02.04s.03.07.04.1l.04.1.02.03h0s0,.01,0,.01h0s-.04-1-.04-1l-.02-.5-.02-.5h-.02s-.01,0-.01,0h-.02s-.02.02-.02.02h-.01s-.01,0-.01,0h0s0,0,0,0h-.01s-.01.01-.01.01h-.01s-.04.06-.04.06l-.02.02h-.01s-.02.01-.02.01h-.02s-.02,0-.02,0h-.02s-.02-.02-.02-.02c-.01,0-.04-.02-.06-.03-.02,0-.05-.02-.08-.03-.03-.01-.05-.02-.08-.04h-.02s0-.01,0-.01h0s0,0,0,0h0s-.3,0-.3,0h0s0,0,0,0h0s-.02.04-.02.04l-.04.04h-.02s-.02.02-.02.02h-.01s-.01,0-.01,0h-.01s-.01,0-.01,0h-.02s-.02-.01-.02-.01h0s0,0,0,0h0s0,0,0,0h0s0,0,0,0h0s0,0,0,0h0s0-.01,0-.01v-.02s-.01-.03-.01-.03v-.06s-.01-.01-.01-.01h0s0-.01,0-.01h0s0,0,0,0h0s0,0,0,0h-.02s-.04-.03-.04-.03l-.19.46-.19.46-.38.92h.01s.01,0,.01,0h.03s.06-.02.06-.02l.07-.02h.03s.03,0,.03,0Z"/>
      <path class="st0" d="M15.19,77.73c.34-.02.33-.02.51-.02h0s0,0,0,0h0s0,.01,0,.01v.02s0,.03,0,.03v.06s0,.12,0,.12v.25s.03.5.03.5l.04,1,.08,2h-.02s-.03,0-.03,0h-.08s-.1.04-.1.04l-.12.03-.82.24-.74-.42.11.06.12.05.12.04h-.02s-.07-.03-.07-.03l-.13-.04-.24-.09-.47-.18.77-1.85.38-.92.19-.46.1-.23.05-.12.02-.06v-.03s.02-.01.02-.01h0s0-.01,0-.01h0s0,0,0,0c.19,0,.18,0,.28.01Z"/>
    </g>
    <g>
      <path class="st3" d="M41.25,13l-.05.06-.05.07-.09.15-.09.15-.05.07-.05.06-.03.03-.03.02-.03.02h-.03s-.07.04-.07.04l-.07.02-.07.02-.07.02h-.03s-.03.03-.03.03l-.03.02-.03.02-.03.03-.03.03-.05.08c-.03.06-.06.12-.09.18l-.04.09-.05.08-.02.04-.03.03-.03.03-.03.03-.06.04-.06.03-.11.04-.11.04-.06.03-.06.03-.03.02h-.02s0,0,0,0h0s0,0,0,0l-.04-.02-.04-.03c-.05-.04-.11-.09-.16-.13-.06-.05-.11-.09-.16-.14l-.08-.05-.04-.02h-.04s-.04-.02-.04-.02h-.04s-.04,0-.04,0h-.03s-.07.01-.07.01l-.07.02h-.07s-.07.02-.07.02h-.03s-.03,0-.03,0h-.03s-.03-.02-.03-.02c-.19-.1-.45-.23-.64-.33l-.03-.02-.03-.02-.03-.02-.02-.02-.04-.05-.03-.05-.03-.06-.04-.06-.05-.05-.03-.02h-.02s-.02-.02-.02-.02l-.04-.02h-.04s-.04-.02-.04-.02h-.04s-.09-.01-.09-.01h-.09s-.09,0-.09,0h-.09s-.04-.02-.04-.02h-.04s-.04-.03-.04-.03l-.04-.02.58-.81.29-.41.29-.41s.04.04.06.05l.04.04.04.04.02.02.02.02.02.02.02.02.04.05s.05.07.07.11l.05.06.03.03.03.03.04.03.04.03.05.03.05.03c.07.04.19.1.32.17.06.03.13.06.18.09l.04.02h.02s0,.01,0,.01h0s0,0,0,0l.26-.04h0s.03,0,.03,0h.03s.05-.03.05-.03l.04-.02.04-.03.04-.03.03-.03.03-.03.05-.07s.06-.09.09-.13l.04-.05.02-.02.02-.02.02-.02.02-.02v-.02s.03-.03.03-.03l.02-.06v-.06s.03-.09.04-.13v-.03s.02-.03.02-.03v-.03s.03-.02.03-.02c.01-.01.02-.03.04-.05.01-.02.03-.04.05-.07.03-.05.07-.1.1-.14l.4.3.4.3.8.6-.04.05-.05.05s-.08.07-.12.1l-.13.1-.06.06-.06.06Z"/>
      <path class="st0" d="M38.85,10.83c-.32.07-.31.07-.48.1h0s0,0,0,0h0s0,0,0,0h0s-.02.04-.02.04l-.04.05-.07.1-.15.2-.29.41-.58.81-1.17,1.62.51.37.48.41.24.21.22.23.45.45,1.99,2.15,1.28-2.64.29-.57.32-.55.34-.54.37-.52-1.6-1.19-.8-.6-.4-.3-.2-.15-.1-.07-.05-.04-.03-.02h-.01s0-.01,0-.01h0s0,0,0,0h0c-.31.03-.29.02-.46.04Z"/>
    </g>
  </g>
  <g>
    <path class="st3" d="M26,49.34c-.13.1-.24.24-.32.4-.07.15-.1.33-.09.51,0,.18.07.34.18.48.11.14.23.3.42.36.18.07.41.06.63.02l-.39-1.96c-.15.03-.3.09-.43.19Z"/>
    <path class="st3" d="M30.15,42.02c0,.57.34.54.33,1.02-.02.42-.34.57-.4.85-.03.13-.01.21,0,.26.01.06.02.15-.02.18-.03.07-.08-.05-.1-.09,0-.02,0-.04,0-.06v-.03s-.05-.06-.05-.06c-.07-.11-.21-.14-.37-.15-.6-.02-.5.24-.91.24-.2.03-.18.18-.15.33.03.15.07.29-.07.44-.11.17-.26.18-.43.2-.16.02-.35.05-.37.29-.02.49.2.68.27,1.17.09.5-.41.32-.32.87.03.3.47.28.46.6-.02.27-.08.25-.16.48-.03.06-.08.1-.13.11-.14.04-.3-.03-.39.05-.14.1.11.53-.2.66-.15.06-.34,0-.48-.07-.14-.08-.24-.17-.25-.17l.39,1.96s.53-.31.97-.51c.44-.22.61-.01,1.06-.39.28-.27.25-.46.29-.67,0-.11.03-.24.12-.4.16-.49.5-.44.54-1,0-.52-.57-.34-.6-.76-.05-.38.14-.4.1-.65-.04-.25.12-.15.1-.37,0-.2-.31-.44-.18-.68.2-.19.63.33.78.36.16.05-.07-.36.2-.33.06,0,.13,0,.2,0,.09-.01.2-.03.28-.06.15-.06.41-.14.58-.41.21-.28.27-.37.38-.49.11-.12.18-.23.24-.48.08-.48-.43-.49-.39-.9.03-.41.42-.31.43-.54,0-.21-.19-.32-.19-.58,0-.27.34,0,.34-.14l-1.81-2.05c-.07.36.15.51.11,1.01-.04.49-.18.4-.19.96Z"/>
    <path class="st3" d="M38.78,37.18c-.17-.12-.27-.05-.35,0-.09.06-.17.11-.4.13-.22.06-.32.11-.44.12-.12.02-.24.04-.39.2-.31.35-.25.52-.54.98-.28.46-.49.23-.85.71-.21.26-.07.5-.3.74-.24.22.25.61-.04.85-.31.22-.7-.34-.88-.27-.19.05-.21.24-.43.2-.13-.05-.05-.12-.16-.33-.03-.18-.08-.36-.33-.59-.51-.47-.55.13-.91-.16-.35-.25-.36-.32-.67-.51-.32-.16-.39-.54-.82-.55-.24.01-.3.27-.34.44-.03.19-.04.39-.13.57-.14.35-.55.33-.58.36l1.81,2.05s-.2-.52-.13-.76c.09-.2.32.17.49.19.16.07.02-.37.19-.21.17.18.24.64.36.76.12.11.08-.59.31-.41.11.08.2.18.23.26.08.09.27.22.55.26.56.03.54.19,1.1.05.52-.2.44-.46.81-.71.35-.27.64.03.97-.3.3-.33-.03-.62.22-.92.16-.21.26-.1.39-.29.13-.2.22,0,.31-.17.09-.16-.08-.89.1-1.14.1-.12.21.04.27.22.07.18.12.38.2.45.14.17.19-.1.32.12.13.24,0,.64.06.76l1.18-1.87c-.23-.37-.34-.06-.63-.44-.29-.35-.23-.53-.56-.78Z"/>
    <path class="st3" d="M48,37.75c-.29-.35-.33.12-.58-.18-.14-.14-.24-.33-.4-.45-.08-.07-.17-.12-.27-.15-.1-.07-.21-.04-.3,0,0,0-.02,0-.02,0-.29.23-.22.38-.43.66-.21.32-.34-.12-.68.34-.35.53-.2,1.05-.55,1.41-.22.2.24.62-.06.83-.32.2-.69-.36-.96-.23-.29.12-.31.32-.64.4-.33.07-.29-.41-.58-.38-.28.01-.29.46-.61.43-.31-.04-.3-.1-.58-.19-.27-.11-.12-.41-.32-.54-.19-.15-.55.18-.79-.1-.25-.29-.25-1.18-.27-1.21l-1.18,1.87s.22,0,.5.32c.32.34.14.53.56.85.45.29.58.05,1.03.23.46.14.38.46.89.53.5.04.37-.54.8-.56.43-.03.6.14,1.03.03.42-.12.43.04.85-.13.42-.19.35-.43.72-.67.18-.12.34-.11.5-.11.08,0,.16,0,.25-.02.04-.01.09-.03.13-.05.03-.01.04-.02.06-.04.11-.13-.12-.52.03-.75.13-.24.17-.06.26-.28.08-.22.1.04.21-.08,0,0,0,0,.01-.01.15-.09.23-1,.44-.8.19.25.05.91.15,1.09.09.19.19-.03.31.2.12.24-.09.56-.02.68l1.55-1.33c-.2-.39-.37-.14-.61-.61-.24-.45-.16-.63-.44-1.02Z"/>
    <path class="st3" d="M58.23,41.84c-.53-.02-.47.33-.93.44-.43.13-.89-.01-1.16.06-.33.08-.29.22-.64.27-.34.05-.38-.26-.71-.24-.33.01-.42.27-.77.25-.35-.03-.3.6-.68.54-.38-.06-.31-.72-.65-.8-.34-.08-.47.07-.82-.04-.34-.12-.06-.51-.36-.63-.29-.13-.49.26-.79.09-.27-.19-.26-.21-.5-.43-.26-.21-.03-.47-.25-.69-.2-.24-.62.02-.82-.28-.11-.16-.08-.32-.09-.56,0-.23.01-.44,0-.45l-1.55,1.33s.08.03.16.07c.13.12.3.3.43.47.24.35.06.5.35.85.33.33.51.14.85.43.34.28.16.53.56.8.41.23.55-.35.92-.18.38.16.43.39.83.52.4.12.31.26.72.35.41.09.51-.14.91-.08.41.05.38.47.81.51.44.02.43-.42.84-.44.42-.03.43.13.86.06.42-.07.46.11.89,0,.21-.06.27-.21.32-.36.01-.14.05-.29.19-.34.3-.1.3.32.5.29.17,0,.26-.13.41-.14.04,0,.08.01.13.04.21.17-.04.54.01.66l1.62-1.4c-.21-.34-.34-.14-.71-.47-.16-.13-.26-.2-.34-.27-.13-.1-.23-.21-.54-.24Z"/>
    <path class="st3" d="M68.08,47.36c-.37-.32-.52-.03-.92-.07-.4,0-.48-.3-1.02-.21-.54.12-.56.29-1.08.4-.29.06-.34-.02-.44-.09-.09-.07-.17-.13-.32-.14-.29,0-.38.25-.71.21-.31-.07-.36.55-.72.45-.36-.12-.16-.77-.45-.9-.29-.15-.46-.03-.75-.22-.28-.2.09-.5-.14-.69-.22-.2-.54.1-.76-.15-.21-.26-.17-.29-.34-.56-.16-.29.13-.44.02-.71-.05-.14-.19-.19-.34-.25-.14-.06-.28-.12-.35-.37-.09-.46.08-1.18.04-1.21l-1.62,1.4s.26.12.31.37c.09.32-.14.46.02.88.18.44.43.32.66.71.24.38-.03.57.28.94.32.35.63-.15.94.14.32.27.3.52.67.76.37.23.25.33.64.54.41.18.54-.02.95.12.41.12.32.54.8.62.48.06.5-.38.93-.38.22,0,.33.01.44.04.11.02.25.04.34.02.24-.05.21.15.4.1.18-.05.41-.63.71-.71.3-.05,0,.41.16.52.13.16.32,0,.27.25-.08.26-.45.51-.48.64l2.14-.91c.03-.41-.27-.21-.24-.62,0-.4.17-.48-.06-.89Z"/>
    <path class="st3" d="M72.27,56.49c-.08-.19-.4-.04-.44-.33-.03-.32.29-.47.35-.75.03-.13.06-.35.07-.46.01-.13.02-.26.12-.51.17-.48.54-.58.61-1.07.02-.47-.18-.43-.33-.86-.11-.22-.3-.18-.48-.12-.18.07-.37.13-.56.14-.39.04.12-.57-.39-.63-.52-.05-.85.24-1.27.15-.3-.09-.05-.49-.3-.59-.24-.12-.47.26-.74.07-.25-.19-.22-.24-.43-.46-.2-.23.06-.44-.06-.65-.09-.2-.57-.07-.63-.37-.03-.35.61-1.14.59-1.17l-2.14.91s.04.05.08.13c.05.08.08.15.14.48.12.5-.11.59.13,1.07.27.46.5.29.81.64.33.33.1.58.5.88.41.27.59-.29.97-.09.2.09.31.19.44.29.1.09.32.2.43.22.26.04.16.18.37.17.21-.01.43-.27.7-.3.27,0-.22.47-.18.62-.01.17.54-.1.44.16-.1.25-.27.28-.35.5-.04.11-.11.17-.17.21-.07.07-.11.02-.17.28-.08.49.42.5.42.93.03.42-.39.58-.19,1.1.24.5.42.4.73.77.35.34.26.68.64.89l.92-1.78c-.14-.08-.27.16-.47-.02-.18-.19-.06-.29-.16-.47Z"/>
    <path class="st3" d="M73.37,57.61c-.06-.15-.15-.28-.22-.39-.07-.1-.14-.2-.23-.25h0s-.92,1.78-.92,1.78h0c.24.12.51.18.73.15.23-.03.42-.14.54-.29.12-.13.18-.31.19-.49,0-.18-.03-.36-.08-.52Z"/>
  </g>
  <g>
    <path class="st4" d="M65.84,33.33c.01.08.05.16.11.22.05.06.13.11.21.14.08.03.17.04.25.04.08,0,.17-.01.24-.05.06-.04.11-.1.14-.17l-.92-.4c-.03.07-.05.15-.03.23Z"/>
    <path class="st4" d="M68.36,29.21c-.1.12.05.21-.05.33-.1.12-.28.1-.38.23-.1.13-.05.17-.14.3-.1.13-.22.04-.32.18-.09.13,0,.24-.1.37-.09.13.19.26.11.4-.09.13-.38-.03-.47.11-.09.14-.02.22-.11.36-.08.14-.25-.03-.34.11-.08.14.11.25.03.39-.08.14-.1.13-.18.27-.07.14-.22.08-.3.22-.07.15.14.27.07.42-.07.14-.32.2-.33.2l.92.4s-.02-.22.05-.36c.07-.14.18-.08.24-.22.07-.14-.05-.2.02-.34.07-.14.22-.06.29-.19.07-.13-.2-.23-.13-.37.08-.13.19-.13.27-.26.08-.13.13-.08.21-.21.08-.13,0-.21.07-.34.08-.13.26-.02.35-.14.09-.12-.09-.25,0-.37.09-.13.14-.09.24-.21.09-.12.17-.06.26-.18.09-.12-.12-.27-.02-.39.1-.12.27,0,.36-.12.1-.12.02-.18.12-.3.1-.11.26-.03.33-.11l-.74-.68c-.08.09.03.17-.09.28-.11.12-.16.07-.27.19Z"/>
    <path class="st4" d="M72.38,25.91c-.14.08-.03.21-.16.29-.14.08-.3,0-.44.08-.14.08-.1.14-.24.23-.13.09-.22-.03-.36.06-.14.09-.09.22-.23.31-.13.1.09.31-.03.41-.12.1-.35-.15-.48-.05-.13.1-.1.19-.22.3-.12.11-.23-.11-.35,0-.12.11.02.27-.1.38-.12.1-.14.09-.25.2-.12.11-.24,0-.35.12-.12.12.04.3-.07.41-.11.12-.37.08-.38.09l.74.68s.06-.21.16-.33c.1-.11.2-.02.3-.13.11-.11.01-.21.12-.31.11-.11.22.01.33-.08.11-.1-.11-.28,0-.38.12-.1.22-.06.33-.16.12-.1.15-.02.27-.12.12-.09.06-.2.18-.29.12-.09.25.07.37-.01.12-.08,0-.26.12-.35.13-.09.17-.03.29-.11.13-.09.18,0,.31-.08.13-.08-.01-.29.12-.37.13-.08.25.09.38.01.13-.08.09-.16.22-.23.14-.07.24.06.35,0l-.45-.89c-.11.05-.03.17-.18.24-.14.08-.18,0-.32.09Z"/>
    <path class="st4" d="M77.31,24.24c-.16.02-.1.19-.26.21-.16.03-.28-.11-.44-.08-.16.03-.15.1-.3.13-.16.04-.2-.12-.35-.08-.16.04-.16.17-.32.22-.16.04-.03.32-.18.37-.15.05-.27-.27-.42-.22-.15.05-.16.15-.31.2-.15.05-.18-.19-.33-.13-.15.06-.08.26-.23.32-.15.06-.16.04-.31.1-.15.06-.22-.08-.37-.02-.15.07-.07.29-.21.36-.14.07-.37-.06-.38-.05l.45.89s.13-.18.27-.25c.14-.06.19.05.33-.01.14-.06.08-.19.23-.25.14-.06.2.1.34.04.14-.05,0-.31.14-.36.14-.05.22.02.37-.02.14-.05.15.03.3-.02.15-.04.13-.17.27-.21.15-.04.21.16.35.12.15-.04.09-.25.24-.29.15-.04.17.04.31,0,.15-.03.17.06.32.03.15-.03.09-.28.24-.3.15-.03.2.17.35.15.15-.02.14-.12.29-.14.15-.02.21.14.32.13l-.11-.99c-.12.01-.09.14-.25.16-.16.02-.17-.06-.33-.03Z"/>
    <path class="st4" d="M78.29,24.32c-.04-.07-.11-.12-.18-.16-.07-.04-.14-.06-.22-.05h0s.11.99.11.99h0c.07,0,.14-.03.2-.08.06-.05.1-.12.13-.2.03-.08.04-.17.03-.26,0-.09-.03-.18-.08-.25Z"/>
  </g>
  <g>
    <path class="st4" d="M59.93,30.53c.04.09.11.17.18.22.07.05.16.07.25.07.09,0,.17-.03.25-.08.08-.05.16-.11.2-.19.04-.08.06-.19.06-.29l-1-.03c0,.11.01.22.05.3Z"/>
    <path class="st4" d="M61.35,24.14c-.09.2.08.22,0,.43-.08.2-.28.26-.36.47-.08.21-.01.23-.09.44-.08.21-.22.16-.29.37-.06.21.04.3-.02.51-.06.21.25.23.2.44-.06.21-.38.16-.43.37-.05.21.03.29-.01.5-.04.21-.26.09-.29.31-.04.22.18.26.14.47-.03.22-.06.21-.08.43-.02.22-.19.21-.21.43-.02.22.22.27.2.49-.01.22-.24.41-.23.43l1,.03s-.09-.27-.08-.48c.02-.21.14-.2.16-.4.02-.21-.12-.22-.09-.43.03-.21.19-.18.22-.39.03-.2-.26-.19-.23-.39.03-.21.15-.25.19-.46.04-.2.11-.16.16-.37.05-.2-.07-.25-.01-.46.06-.2.26-.15.32-.35.06-.2-.15-.26-.09-.46.06-.2.13-.18.2-.37.07-.2.16-.16.23-.36.08-.19-.17-.27-.09-.46.08-.19.27-.14.36-.32.09-.19,0-.23.09-.42.09-.19.27-.16.34-.29l-.89-.46c-.08.15.05.19-.05.38-.09.2-.16.16-.26.36Z"/>
    <path class="st4" d="M65.65,18.57c-.17.14-.02.24-.19.38-.17.14-.36.11-.53.26-.16.15-.11.2-.27.35-.15.16-.27.05-.42.21-.15.16-.1.29-.24.45-.15.16.13.32-.01.48-.14.16-.42-.03-.55.14-.14.17-.1.27-.23.44-.13.18-.27-.03-.4.15-.13.18.05.31-.08.49-.13.18-.14.17-.26.35-.12.18-.26.11-.37.3-.11.19.08.34-.03.53-.1.19-.39.27-.39.28l.89.46s.03-.29.13-.47c.11-.18.21-.12.32-.29.1-.18-.01-.25.1-.43.11-.17.25-.08.36-.25.12-.17-.15-.28-.03-.45.13-.17.24-.16.37-.33.13-.16.17-.1.3-.26.13-.16.06-.25.19-.42.14-.16.3-.02.44-.17.14-.15-.02-.3.12-.45.15-.15.2-.1.35-.25.15-.15.22-.08.37-.22.15-.14-.03-.31.12-.45.16-.14.31,0,.47-.13.16-.13.1-.21.26-.34.16-.13.31-.02.43-.12l-.59-.8c-.13.1-.04.19-.21.33-.17.14-.22.07-.39.21Z"/>
    <path class="st4" d="M66.81,17.93c-.08-.03-.19-.03-.28-.01-.09.02-.19.05-.28.11h0s.59.8.59.8h0c.08-.06.15-.13.19-.21.04-.08.06-.18.06-.27,0-.09-.03-.18-.08-.25-.05-.07-.12-.13-.21-.16Z"/>
  </g>
  <g>
    <path class="st4" d="M53.07,29.49c.04.06.11.12.19.16.07.04.16.05.25.05.09,0,.17-.03.24-.07.07-.04.15-.09.2-.15.04-.07.05-.15.05-.23l-1,.03c0,.08.02.16.07.22Z"/>
    <path class="st4" d="M52.89,24.59c0,.17.17.13.17.29,0,.16-.15.26-.15.43,0,.17.07.16.07.33,0,.16-.15.17-.14.34,0,.17.14.2.14.37,0,.17.31.1.32.27,0,.16-.33.2-.32.37,0,.16.1.2.11.36,0,.16-.23.12-.22.28,0,.16.23.15.24.32,0,.16-.02.16,0,.33,0,.16-.15.18-.15.34,0,.16.25.17.25.34,0,.16-.21.32-.2.33l1-.03s-.11-.21-.12-.38c0-.17.12-.17.11-.33,0-.17-.15-.16-.15-.32,0-.16.16-.17.15-.33,0-.16-.29-.1-.3-.26,0-.16.09-.22.08-.38,0-.16.07-.15.06-.31,0-.16-.13-.18-.14-.34,0-.16.21-.17.2-.34,0-.16-.22-.15-.23-.31,0-.16.07-.16.06-.33,0-.16.09-.16.09-.33,0-.16-.26-.14-.26-.31,0-.16.2-.18.2-.34,0-.16-.1-.16-.1-.32,0-.16.17-.2.17-.32h-1c0,.12.13.1.13.27,0,.17-.08.16-.08.33Z"/>
    <path class="st4" d="M53.21,19.26c-.03.17.14.16.12.32-.02.16-.19.24-.21.41-.02.17.05.17.03.34-.02.17-.17.15-.19.32-.02.17.11.22.1.38-.01.17.29.14.28.3-.01.16-.35.17-.36.33,0,.17.08.21.07.37,0,.17-.24.1-.24.26,0,.17.21.18.21.34,0,.16-.03.16-.04.33,0,.16-.17.17-.17.34,0,.17.24.19.24.36,0,.16-.22.32-.22.33h1s-.1-.21-.1-.37c0-.16.13-.16.13-.32,0-.16-.14-.17-.13-.33,0-.16.17-.15.18-.32,0-.16-.28-.12-.28-.28,0-.16.11-.21.12-.37,0-.16.08-.14.09-.3.01-.16-.11-.19-.1-.35.01-.16.22-.15.24-.31.01-.16-.21-.18-.19-.34.02-.16.09-.15.1-.31.02-.16.11-.15.13-.31.02-.16-.23-.18-.21-.34.02-.16.22-.15.25-.3.03-.16-.07-.17-.04-.33.03-.16.2-.16.23-.28l-.98-.21c-.03.13.11.14.07.3-.03.17-.11.15-.14.32Z"/>
    <path class="st4" d="M55.81,14.47c-.13.12.02.22-.1.33-.12.12-.3.08-.42.21-.12.13-.07.17-.18.3-.11.13-.23.04-.34.17-.11.14-.03.25-.13.39-.1.14.18.27.09.41-.09.14-.39-.02-.48.12-.09.15-.03.23-.11.38-.08.15-.26-.01-.34.14-.08.16.12.25.05.41-.07.16-.1.15-.15.32-.05.16-.22.12-.27.29-.05.17.17.26.13.42-.04.16-.29.27-.29.28l.98.21s-.05-.22-.02-.37c.04-.15.16-.12.2-.26.04-.15-.08-.19-.04-.33.05-.14.21-.08.26-.21.06-.13-.22-.22-.15-.36.07-.14.18-.14.26-.27.08-.14.14-.08.21-.21.08-.13,0-.21.08-.34.09-.13.27,0,.35-.13.09-.12-.08-.25.01-.38.1-.12.15-.08.26-.19.1-.12.17-.06.28-.17.1-.11-.09-.28.02-.39.11-.11.27.03.38-.08.12-.1.05-.18.17-.28.12-.1.26,0,.35-.07l-.63-.78c-.1.08,0,.17-.13.28-.13.11-.18.05-.31.17Z"/>
    <path class="st4" d="M56.71,13.97c-.08-.04-.16-.04-.24-.03-.08,0-.16.03-.22.08h0s.63.78.63.78h0c.06-.05.11-.11.13-.18.02-.07.02-.16,0-.24-.01-.08-.05-.16-.1-.24-.05-.07-.12-.13-.2-.17Z"/>
  </g>
  <g>
    <path class="st4" d="M44.66,28.89c.03.08.08.16.14.23.06.06.14.1.23.12.09.02.17.01.26-.02.08-.03.18-.06.23-.14.06-.07.1-.17.11-.27l-.98-.19c-.02.09-.02.18,0,.26Z"/>
    <path class="st4" d="M44.44,23.3c.06.18.21.09.26.28.05.19-.08.33-.03.51.04.18.1.17.14.36.03.19-.11.22-.09.4.02.19.16.21.18.4.02.19.32.1.33.3.01.2-.32.24-.31.43,0,.19.1.23.1.43,0,.19-.23.12-.23.31,0,.19.21.2.2.39-.01.19-.04.19-.06.38-.01.19-.18.18-.2.37-.02.19.21.25.18.44-.03.19-.28.33-.28.34l.98.19s-.05-.28-.02-.48c.03-.2.16-.18.18-.39.02-.2-.11-.22-.1-.42.02-.2.18-.19.2-.39,0-.2-.28-.16-.28-.36,0-.2.11-.26.1-.46,0-.2.08-.18.07-.38-.01-.2-.13-.22-.15-.42-.01-.2.2-.23.17-.43-.02-.2-.24-.17-.27-.37-.03-.2.04-.21,0-.41-.04-.2.06-.22.02-.42-.05-.2-.29-.12-.34-.31-.05-.19.15-.27.08-.47-.06-.19-.16-.16-.22-.36-.06-.19.08-.3.02-.44l-.93.37c.05.13.17.06.23.24.06.18-.01.2.05.38Z"/>
    <path class="st4" d="M40.94,18.5c.15.11.22-.05.37.06.15.12.14.31.29.43.14.12.19.07.33.2.14.13.04.25.17.37.13.13.26.07.38.21.13.14.32-.11.44.04.13.15-.11.38,0,.53.12.15.22.13.33.28.11.15-.12.23-.02.39.1.16.28.04.39.2.1.16.08.17.17.34.09.17-.05.25.03.42.09.16.32.08.39.26.07.18-.06.42-.05.43l.93-.37s-.2-.21-.28-.39c-.08-.19.03-.24-.07-.42-.1-.18-.22-.12-.31-.3-.09-.18.05-.26-.06-.44-.11-.18-.32.03-.43-.14-.11-.17-.06-.28-.18-.45-.12-.16-.04-.19-.17-.35-.13-.16-.24-.1-.37-.26-.13-.15.02-.3-.12-.45-.14-.15-.3,0-.44-.14-.15-.14-.09-.2-.25-.33-.15-.14-.09-.21-.25-.34-.16-.13-.3.08-.46-.05-.16-.12-.05-.3-.22-.42-.17-.12-.22-.04-.39-.15-.17-.11-.12-.28-.25-.36l-.52.85c.12.07.17-.05.33.05.16.11.11.17.27.28Z"/>
    <path class="st4" d="M40.07,17.74c0,.09.04.17.09.25.04.07.1.14.17.19h0s.52-.85.52-.85h0c-.08-.05-.18-.09-.27-.09-.09,0-.19.03-.26.07-.07.04-.14.11-.18.19-.04.08-.06.17-.06.25Z"/>
  </g>
  <g>
    <path class="st4" d="M37.36,30.18c.06.06.14.12.22.14.08.03.17.03.26,0,.09-.02.16-.06.23-.12.06-.06.13-.13.16-.21.03-.08.02-.18,0-.28l-.97.22c.02.09.06.17.12.23Z"/>
    <path class="st4" d="M35.28,25.08c.1.16.23.03.32.19.09.16.02.33.11.49.09.16.15.13.23.29.09.16-.05.24.03.4.08.16.22.15.3.32.08.17.33-.01.41.16.08.17-.22.33-.15.5.07.17.18.18.24.35.06.17-.18.19-.11.36.06.17.27.11.33.28.06.18.03.19.09.36.05.18-.1.23-.05.41.05.18.29.14.34.32.05.18-.12.4-.12.41l.97-.22s-.16-.22-.21-.41c-.05-.19.07-.22.02-.41-.05-.19-.19-.15-.24-.34-.06-.19.1-.23.04-.42-.06-.19-.32-.04-.38-.22-.07-.18,0-.27-.06-.45-.07-.18,0-.19-.07-.37-.07-.18-.19-.15-.27-.33-.08-.18.11-.27.03-.45-.09-.18-.28-.08-.37-.25-.08-.17-.02-.21-.11-.38-.09-.17,0-.22-.1-.39-.1-.17-.31-.03-.41-.19-.1-.17.07-.29-.04-.45-.11-.16-.19-.11-.29-.27-.1-.16,0-.29-.08-.42l-.82.57c.08.11.18.02.28.18.1.16.03.2.13.35Z"/>
    <path class="st4" d="M31.2,20.83c.15.11.22-.06.37.05.15.11.15.3.29.41.15.11.19.06.33.18.14.12.05.24.19.36.14.12.26.05.39.18.14.13.3-.14.44,0,.14.13-.08.39.05.52.13.13.23.1.36.23.13.13-.09.24.04.38.12.13.29,0,.41.14.12.14.1.16.22.3.12.14,0,.25.11.4.11.14.32.02.43.17.11.15.03.42.04.43l.82-.57s-.23-.15-.34-.3c-.12-.15-.02-.23-.14-.38-.12-.16-.23-.07-.35-.22-.13-.15,0-.25-.12-.4-.13-.15-.3.08-.43-.06-.13-.14-.1-.26-.23-.4-.13-.14-.06-.18-.2-.31-.14-.14-.24-.07-.38-.2-.14-.13,0-.29-.14-.42-.15-.13-.29.04-.43-.09-.15-.12-.1-.18-.25-.3-.15-.12-.09-.2-.25-.32-.15-.12-.29.09-.45-.02-.15-.11-.05-.29-.21-.4-.16-.11-.21-.03-.38-.14-.16-.11-.11-.27-.23-.35l-.53.85c.12.07.17-.05.33.06.16.1.11.17.26.27Z"/>
    <path class="st4" d="M30.36,20.07c0,.09.03.17.07.25.04.07.09.14.17.19h0s.53-.85.53-.85h0c-.08-.05-.17-.08-.26-.09-.09,0-.18.02-.26.07-.07.04-.14.1-.19.18-.05.08-.07.17-.07.25Z"/>
  </g>
</svg>