<?xml version="1.0" encoding="UTF-8"?>
<svg id="_レイヤー_1" data-name="レイヤー_1" xmlns="http://www.w3.org/2000/svg" version="1.1" viewBox="0 0 120 100">
  <!-- Generator: Adobe Illustrator 30.0.0, SVG Export Plug-In . SVG Version: 2.1.1 Build 123)  -->
  <defs>
    <style>
      .st0 {
        fill: #ceb372;
      }

      .st1 {
        fill: none;
        stroke: #000;
        stroke-linecap: round;
        stroke-linejoin: round;
      }

      .st2 {
        fill: #1c1917;
      }

      .st3 {
        fill: #fff;
      }
    </style>
  </defs>
  <path class="st2" d="M28.03,84.86c-.45.4-1.33,1.09-2.63,1.46-.52.15-2.07.58-3.72,0-1.83-.64-1.7-1.79-3.68-2.63-1.3-.55-1.48-.1-3.4-.63-1.68-.46-3.62-1-4.15-2.37-.61-1.58,1.04-3.2.3-4.07-.39-.45-1.18-.42-1.76-.33,0,0-3.39-1.5-4.2-3.99-.54-1.65.52-2.34-.21-3.82-.68-1.37-1.74-1.09-2.53-2.42-.89-1.5-.63-3.72.28-5.22,1.2-1.96,2.98-1.77,3.25-3.3.23-1.33-1.07-1.74-.94-3.61.1-1.32.81-1.98.39-2.73-.33-.59-.92-.44-1.44-.9-1.3-1.17-.88-5.2,1.35-7.28,1.43-1.33,2.81-1.13,3.6-2.73.4-.81.12-1.01.56-2.4.67-2.1,1.51-2.23,1.66-3.38.24-1.86-1.85-2.27-2.34-4.7-.42-2.07.49-4.77,2.25-5.94,1.47-.98,2.89-.46,3.76-1.71.5-.72.34-1.33.43-2.33.31-3.35,3.07-6.74,5.98-7.49,1.25-.32,1.29.17,2.42-.14,3.28-.88,3.31-5.57,5.69-6.61,4.65-2.04,10.91-.06,14.68,5.24.49-.76,1.24-1.76,2.29-2.78,1.05-1.02,5.07-4.93,8.94-4.31,3.89.63,3.95,5.26,7.55,5.64,3.43.36,5.06-3.67,7.82-2.83,2.49.76,2.15,4.35,5.13,5.34,1.96.65,2.53-.75,4.99-.34,3.01.51,3.46,2.83,6.96,4.5,2.64,1.26,2.99.23,6.07,1.24,4.64,1.52,9.49,5.68,10.54,10.55.28,1.32.12,1.89.71,3,1.57,2.93,4.55,2.22,5.91,4.58,1.56,2.7-1.32,5.41.41,7.67,1.24,1.61,3.05.7,4.34,2.56.89,1.28.28,2.06,1.16,4.86.77,2.42,1.32,2.15,1.53,3.49.51,3.24-2.8,4.5-2.75,8.03.04,2.19,1.31,2.1,1.99,5.07.06.25,1.19,6-1.62,8.72-4.13,4-4.93,1.03-7.67,3.35-1.87,1.58-1.29,1.75-3.58,4.49-.62.74-3.12,3.73-6.43,3.75-2.31.01-3.16-1.44-4.43-.82-1.59.77-.57,3.19-2.37,5.37-1.61,1.94-4.7,2.73-7.04,2.36-1.83-.29-1.91-1.29-3.73-1.15-1.69.14-3.12,1.44-3.9,1.86-1.7.91-8.48,2.01-11.02-4.42"/>
  <path class="st0" d="M72.21,61.15c-.65-.35-.69-1.71-.7-1.86-.1-1.85,1.59-3.04,1.15-3.73-.29-.45-1.04.03-2.22-.41-1.13-.43-2.2-1.54-2.35-2.76-.16-1.32.84-2,.47-2.55-.45-.67-1.93.33-3.87-.14-1.57-.38-3.18-1.65-3.85-3.23-.63-1.5-.16-2.69-1.01-3.23-.56-.35-1.21-.11-1.86.02-2.57.52-5.31-.6-6.58-1.58-2.46-1.9-2.21-5.4-3.23-5.35-.57.02-.52,1.1-1.61,2-1.28,1.05-3.53,1.36-4.94.46-1.7-1.08-1.62-3.55-2.5-3.53-.41,0-.49.55-1.31,1.45-.46.51-1.78,1.97-3.04,1.9-1.3-.08-1.91-1.77-2.53-2.21-.33.27-.63.53-.91.8-.34,1.46-.25,4.21-1.38,4.57-.58.19-1.06-.38-1.52-.39-.26.65-.43,1.27-.58,1.86.05.87.09,1.86-.47,2.54-.23.29-.59.53-1.11.69,0,0,0,0,0,0-.18.07-.36.11-.53.11-.41.06-.89.08-1.48.03-.28-.24-.62-.56-.94-.96-.27-.08-.75-.3-.82-.02-.98,3.78-1.99,7.97-2.04,11.02-.19,10.63.81,15.93,1.41,17.45,4.63,11.82,17.21,16.08,18.47,16.49,1.06.34,14.66,4.49,25.57-3.29,2.87-2.05,4.96-5.09,5.66-7.2,1.35-4.06,3.98-12.78,3.45-19.82-1.14.79-2.2,1.2-2.77.9Z"/>
  <path class="st3" d="M87.95,57.88c-1.08-1.61-2.77-2.78-4.07-3.09-.62-.15-1.78-.18-3.52.63-5.14,2.41-7.68,8.94-7.93,9.6-.7,1.86-4.24,11.28.38,15.42,2.28,2.04,5.34,1.76,5.53,1.74,4.21-.45,6.54-4.78,8.4-8.23,2.97-5.5,2.92-10.42,2.41-13.01-.29-1.47-.77-2.41-1.21-3.07Z"/>
  <path class="st3" d="M21.65,48.44c-1.87.16-5.97,3.26-7.66,5.75-2.65,3.91-3.24,9.3-1.03,13.46.38.72,2.55,4.79,6.39,5.2,1.34.14,1.91-.98,1.91-.98,0,0-2.04-10.11.38-23.44Z"/>
  <path class="st3" d="M79.95,53.9c-.12-3.29-2.82-9.06-4.34-11.11-2.26-3.05-6.97-9.4-16.07-12.97-.73-.29-14.22-5.36-25.81.31-3.92,1.91-7.35,4.92-8.73,6.71-1.15,1.48-2.86,4.69-3.24,5.12,0,0-.01.01,0,.02.06.08,6.04-5.14,11.8-7.61,6.39-2.73,12.4-2.02,15.81-1.62.78.09,10.11,1.29,17.63,7.04,3.54,2.7,6.12,5.98,6.37,6.31.99,1.28,1.49,1.92,2.02,2.92,1.66,3.15,2.23,4.7,2.66,5.85.28.74,1.94.04,1.9-.98Z"/>
  <path class="st2" d="M20.6,65.77c1.5,17.22,20.1,28.32,36.33,24.67,5.35-1.18,10.29-4.22,13.62-8.7.17-.22.48-.27.7-.1.21.16.26.46.12.68-1.6,2.4-3.64,4.57-6.08,6.2-14.72,10.02-38.05,2.57-44.27-14.11-1.02-2.77-1.43-5.71-1.42-8.58.01-.61.92-.68,1-.06h0Z"/>
  <path class="st2" d="M22.94,45.75c-.03,2.63-.68,5.04-1.08,7.53-.45,2.51-.72,5.04-1.25,7.54-.05.28-.32.47-.6.41-.23-.05-.39-.24-.4-.46-.08-1.29-.1-2.59-.1-3.89.16-3.89.45-7.95,2.46-11.42.26-.45.99-.23.96.28h0Z"/>
  <path class="st2" d="M79.5,54.99c-4.67,1.78-7.01,6.77-8.62,11.2-.98,2.7-1.5,5.63-1.09,8.5.34,2.44,1.42,5.61,3.48,7.16s4.66,1.24,6.87.39,3.6-2.11,4.93-3.98c3.23-4.57,5.43-10.31,5.24-15.99-.09-2.53-1.09-5.26-3.2-6.79-2.23-1.62-5.13-1.37-7.6-.49-.95.34-.09.91.59.67,2.25-.8,4.78-.64,6.52,1.14,1.43,1.46,2.12,3.59,2.23,5.59.24,4.5-1.27,9.36-3.48,13.22-1.11,1.93-2.32,4.08-4.28,5.23-2.15,1.26-4.99,1.84-6.98-.02-1.57-1.46-2.44-4.05-2.79-6.1-.45-2.59-.08-5.26.71-7.75.62-1.96,1.51-3.85,2.46-5.67,1.29-2.45,2.95-4.64,5.62-5.65.94-.36.09-.93-.59-.67Z"/>
  <path class="st1" d="M64.1,44.39"/>
  <path class="st2" d="M41.05,62.62c.41.87.94,1.99.6,2.95.06-.17-.02.04-.04.07-.04.05-.09.11-.13.16.06-.05.05-.04-.05.02.1-.05.09-.05-.02,0-.13.05-.25.11-.38.16-.7.29-1.31.7-1.77,1.31-.64.86-.99,2.09-.34,3.05.52.76,1.55,1.1,2.43,1.14.49.02,1.16-.16,1.43-.61s-.23-.7-.61-.71c-.03,0-.06,0-.09,0-.23-.02.18.05-.01,0-.07-.02-.14-.03-.21-.05-.03,0-.29-.1-.2-.06-.43-.17-.76-.48-.87-.94-.12-.49.06-1,.31-1.42.19-.32.44-.55.66-.64.93-.4,1.87-.86,2.12-1.93s-.23-2.17-.66-3.08c-.21-.45-.83-.42-1.25-.31-.27.07-1.14.45-.93.89h0Z"/>
  <path class="st2" d="M38.39,77.39c4,3.17,10.65,3.11,13.45-1.64.26-.44-.23-.69-.61-.71-.48-.03-1.17.17-1.43.61-1.01,1.72-2.67,2.71-4.68,2.61-1.71-.09-3.37-.68-4.72-1.75-.41-.32-.99-.26-1.45-.06-.23.1-.97.62-.56.94h0Z"/>
  <ellipse class="st2" cx="31.45" cy="62.33" rx="2.63" ry="1.58" transform="translate(-35.57 81.9) rotate(-79.51)"/>
  <ellipse class="st2" cx="57.25" cy="65.82" rx="2.63" ry="1.58" transform="translate(-17.89 110.13) rotate(-79.51)"/>
  <path class="st2" d="M35.39,55.05c-.98.52-1.61.23-2.28.05-2.05-.54-4.09-.17-6.1.49-.23.09-.43-.22-.26-.4,1.09-1.22,2.66-1.98,4.3-2.17.82-.12,1.74-.04,2.53.15.78.17,1.6.34,2.01,1.44.07.17-.02.36-.19.44h0Z"/>
  <path class="st2" d="M55.26,57.22c.39-1.24,1.46-1.35,2.5-1.3,2.79.08,5.27,1.65,6.93,3.79.2.22-.13.53-.34.33-1.86-1.39-4.17-2.46-6.51-2.09-.92.17-1.44.38-2.42-.3-.15-.1-.21-.28-.16-.45h0Z"/>
  <path class="st2" d="M20.97,48.94c-3.86,1.47-7.12,4.7-8.1,8.65-.58,2.17-.84,4.5-.48,6.73.49,3.06,2.02,6.25,4.98,7.56.84.4,1.73.71,2.66.9.11.02.18.13.15.23-.02.1-.12.17-.22.16-1.88-.19-4.01-1.06-5.31-2.31-5.37-5.73-3.54-17.07,3.3-20.9.91-.56,1.92-.98,2.87-1.38.23-.09.39.26.16.36h0Z"/>
  <path class="st2" d="M72.96,96.23c-1,0-2.1-.15-3.18-.55-2.23-.82-3.84-2.46-4.79-4.89-.1-.26.02-.55.28-.65.26-.1.55.02.65.28.85,2.15,2.26,3.6,4.21,4.32,2.59.95,5.28.29,6.11-.15.18-.1.4-.25.65-.42.86-.58,2.04-1.39,3.44-1.5,1.17-.1,1.75.24,2.31.57.42.24.82.47,1.54.59,2.09.33,5.02-.32,6.58-2.19.81-.98.99-2.03,1.15-2.96.18-1.05.35-2.04,1.38-2.54.87-.42,1.57-.12,2.32.21.62.27,1.3.55,2.33.56,1.4,0,3.59-.63,6.04-3.57,1-1.19,1.43-1.87,1.78-2.42.46-.72.76-1.2,1.86-2.12,1.32-1.12,2.28-1.13,3.21-1.15,1.1-.02,2.24-.04,4.44-2.18,2.64-2.56,1.49-8.2,1.48-8.25-.31-1.36-.75-2.03-1.13-2.62-.44-.66-.85-1.29-.87-2.55-.03-1.87.82-3.17,1.57-4.31.76-1.17,1.42-2.18,1.19-3.65-.08-.53-.21-.72-.44-1.08-.27-.42-.65-1-1.07-2.34-.43-1.37-.52-2.31-.59-2.99-.07-.73-.11-1.17-.51-1.74-.57-.82-1.24-1-2.01-1.2-.76-.2-1.62-.43-2.32-1.34-1.02-1.33-.68-2.75-.36-4.12.3-1.25.58-2.44-.09-3.6-.56-.96-1.43-1.34-2.44-1.78-1.2-.52-2.56-1.11-3.48-2.82-.43-.81-.5-1.37-.58-2.03-.04-.32-.08-.67-.17-1.1-1.04-4.83-5.92-8.78-10.21-10.18-1.38-.45-2.16-.47-2.91-.5-.89-.03-1.73-.05-3.22-.77-1.66-.79-2.66-1.72-3.54-2.53-1.01-.93-1.8-1.67-3.29-1.92-1.09-.18-1.76.03-2.42.23-.74.23-1.5.47-2.65.09-1.74-.58-2.47-1.94-3.11-3.13-.54-1.02-1.02-1.9-2.01-2.2-1.14-.35-2.1.35-3.21,1.16-1.22.89-2.6,1.89-4.51,1.69-2.01-.21-3.02-1.58-4-2.9-.94-1.27-1.83-2.46-3.58-2.75-1.66-.27-4.47.24-8.51,4.17-.83.81-1.58,1.72-2.22,2.7-.09.14-.24.22-.41.23-.16-.02-.32-.08-.42-.21-3.53-4.97-9.45-7.1-14.07-5.07-.9.4-1.45,1.51-2.04,2.69-.79,1.6-1.69,3.41-3.73,3.95-.65.17-1.02.12-1.35.08-.29-.04-.53-.08-1.08.06-2.75.71-5.32,3.93-5.61,7.05-.02.25-.03.48-.04.69-.02.63-.03,1.22-.48,1.87-.6.86-1.41,1.04-2.19,1.21-.55.12-1.13.25-1.7.63-1.52,1.01-2.43,3.45-2.03,5.43.21,1.04.75,1.66,1.27,2.27.6.69,1.22,1.41,1.07,2.59-.09.67-.37,1.07-.68,1.5-.32.44-.67.94-1,1.97-.2.63-.24.99-.27,1.3-.04.35-.07.67-.31,1.16-.53,1.08-1.33,1.47-2.1,1.85-.52.26-1.07.52-1.61,1.03-1.35,1.26-1.94,3.26-1.92,4.7,0,.86.21,1.53.57,1.85.15.14.32.2.52.27.33.12.74.26,1.02.76.35.63.15,1.21-.04,1.77-.13.37-.26.75-.29,1.24-.06.83.2,1.3.48,1.8.28.49.59,1.05.45,1.86-.17,1.01-.88,1.44-1.55,1.86-.61.38-1.24.76-1.76,1.62-.89,1.45-1,3.48-.28,4.7.32.53.68.75,1.09.99.49.29,1.04.62,1.46,1.46.45.92.32,1.62.21,2.23-.1.51-.19.99.03,1.66.65,1.99,3.21,3.33,3.8,3.63.97-.13,1.66.05,2.07.52.55.64.28,1.44.01,2.21-.23.67-.47,1.37-.22,2.01.44,1.14,2.23,1.63,3.81,2.07.88.24,1.36.27,1.79.29.47.02.92.05,1.68.36,1.08.46,1.6,1.01,2.05,1.5.42.45.79.84,1.59,1.12,1.02.36,2.17.35,3.41,0,.89-.26,1.73-.73,2.43-1.35.21-.19.52-.17.71.04.18.21.17.52-.04.71-.81.73-1.79,1.27-2.82,1.57-1.45.42-2.8.42-4.02,0-1.04-.36-1.52-.88-1.99-1.38-.43-.46-.83-.88-1.71-1.26-.59-.25-.89-.26-1.34-.29-.45-.02-1.01-.05-2-.32-1.81-.5-3.86-1.06-4.48-2.67-.38-.98-.05-1.93.21-2.69.22-.64.34-1.04.17-1.23-.17-.2-.65-.26-1.3-.16-.09.01-.19,0-.28-.04-.15-.06-3.61-1.62-4.48-4.29-.3-.91-.17-1.57-.06-2.15.11-.57.19-.98-.12-1.6-.28-.57-.63-.78-1.07-1.04-.47-.28-1-.59-1.44-1.34-1.04-1.76-.65-4.21.28-5.74.65-1.06,1.45-1.55,2.09-1.95.67-.42,1-.64,1.1-1.18.08-.46-.09-.75-.34-1.2-.31-.55-.69-1.23-.61-2.36.05-.62.21-1.1.34-1.49.18-.53.23-.74.11-.96-.09-.16-.21-.21-.48-.31-.25-.09-.56-.2-.86-.47-.57-.51-.89-1.43-.9-2.58-.01-1.53.57-3.88,2.24-5.44.65-.61,1.29-.92,1.86-1.2.73-.36,1.25-.61,1.64-1.39.16-.33.18-.52.21-.83.04-.34.08-.77.32-1.5.38-1.18.82-1.79,1.14-2.25.28-.39.44-.62.5-1.04.09-.71-.22-1.11-.83-1.81-.55-.63-1.24-1.42-1.5-2.72-.48-2.38.6-5.22,2.46-6.46.72-.48,1.42-.63,2.03-.77.71-.16,1.21-.27,1.59-.81.28-.4.29-.75.3-1.33,0-.23.01-.48.04-.76.33-3.56,3.18-7.11,6.36-7.93.73-.19,1.12-.13,1.47-.08.28.04.49.07.95-.05,1.6-.43,2.36-1.95,3.09-3.43.64-1.29,1.3-2.62,2.53-3.16,4.87-2.14,11.02-.1,14.86,4.84.59-.82,1.24-1.58,1.96-2.28,3.49-3.39,6.64-4.89,9.36-4.44,2.16.35,3.26,1.83,4.23,3.14.93,1.25,1.73,2.33,3.3,2.5,1.53.16,2.69-.68,3.82-1.5,1.22-.88,2.48-1.8,4.09-1.3,1.39.42,2.01,1.57,2.6,2.69.61,1.13,1.18,2.2,2.54,2.65.84.28,1.34.12,2.04-.09.69-.22,1.56-.49,2.88-.26,1.79.3,2.77,1.21,3.81,2.18.83.77,1.76,1.64,3.29,2.36,1.31.62,1.98.64,2.82.67.79.02,1.68.05,3.19.55,4.56,1.49,9.75,5.72,10.87,10.92.1.47.15.85.19,1.19.07.6.13,1.03.47,1.68.75,1.4,1.84,1.87,2.99,2.37,1.08.47,2.19.95,2.91,2.2.87,1.51.52,3.01.2,4.33-.3,1.25-.56,2.33.18,3.28.49.63,1.09.79,1.78.98.84.22,1.79.48,2.57,1.6.54.78.6,1.41.68,2.21.06.67.15,1.51.55,2.78.38,1.21.7,1.7.96,2.09.25.39.48.73.59,1.47.29,1.85-.54,3.12-1.34,4.35-.73,1.12-1.43,2.19-1.4,3.75.02.97.29,1.39.7,2.02.41.63.92,1.41,1.27,2.95.01.06,1.32,6.21-1.75,9.19-2.49,2.41-3.89,2.44-5.12,2.46-.85.01-1.53.03-2.58.91-.98.83-1.24,1.23-1.66,1.9-.35.54-.82,1.29-1.86,2.53-2.7,3.23-5.19,3.92-6.81,3.93-1.21-.01-2.06-.36-2.73-.65-.7-.3-1.05-.43-1.48-.22-.54.26-.66.8-.83,1.81-.17,1-.39,2.24-1.37,3.43-1.79,2.16-5.13,2.91-7.5,2.54-.91-.14-1.45-.46-1.89-.71-.51-.29-.87-.51-1.73-.44-1.14.09-2.19.81-2.96,1.33-.29.19-.53.36-.74.47-.62.34-2.04.76-3.74.76Z"/>
  <path class="st2" d="M73.52,61.89s-.06,0-.09,0c-1.52-.28-2.37-1.51-2.42-2.57-.06-1.15.47-2.06.86-2.73.15-.26.38-.65.36-.77,0,.03-.19.03-.33.04-.4.01-.95.02-1.64-.23-1.19-.45-2.49-1.68-2.67-3.17-.1-.83.18-1.45.38-1.89.07-.15.17-.38.17-.44-.09-.05-.55.03-.85.08-.69.11-1.63.26-2.72,0-1.81-.44-3.49-1.85-4.19-3.53-.3-.72-.38-1.37-.43-1.89-.08-.68-.13-.95-.38-1.11-.28-.18-.63-.11-1.17.02l-.32.07c-2.79.57-5.71-.69-6.99-1.68-1.53-1.18-2.08-2.87-2.48-4.11-.13-.39-.29-.9-.42-1.1-.05.08-.12.21-.17.31-.21.42-.5.99-1.15,1.52-1.51,1.25-3.99,1.47-5.53.5-1.07-.68-1.51-1.8-1.84-2.62-.12-.31-.31-.77-.42-.85.04.03-.07.19-.16.32-.17.24-.39.58-.76.98-.53.59-1.91,2.15-3.44,2.06-1.11-.07-1.78-1-2.27-1.68-.15-.21-.36-.5-.49-.61-.18.28-.3,1.27-.38,1.88-.19,1.57-.39,3.19-1.51,3.54-.54.17-.99-.06-1.32-.22-.11-.06-.32-.17-.37-.15-.15.08-.11.83-.08,1.23.06.95.13,2.12-.58,2.99-.66.81-1.87,1.15-3.56,1.01-.28-.02-.48-.26-.46-.54.02-.27.27-.48.54-.46,1.36.11,2.27-.11,2.71-.64.46-.56.4-1.48.35-2.3-.05-.88-.11-1.79.6-2.17.5-.27.96-.04,1.3.13.26.13.43.21.56.16.51-.16.7-1.7.82-2.71.17-1.44.31-2.57,1.15-2.77.67-.16,1.1.45,1.52,1.03.41.58.88,1.23,1.52,1.27.7.04,1.56-.54,2.64-1.74.32-.35.51-.64.67-.87.26-.38.5-.74,1-.75.71,0,1.03.71,1.33,1.47.29.73.65,1.64,1.44,2.14,1.18.75,3.17.55,4.36-.42.48-.4.7-.82.89-1.2.21-.41.45-.88,1.01-.91.82-.05,1.1.83,1.42,1.83.36,1.11.86,2.63,2.14,3.62,1.13.87,3.71,1.99,6.18,1.49l.3-.07c.6-.14,1.28-.3,1.93.11.68.43.76,1.15.84,1.84.05.48.12,1.03.36,1.61.58,1.37,2.02,2.58,3.5,2.94.89.21,1.69.09,2.33-.01.74-.12,1.44-.23,1.84.36.33.49.1,1-.09,1.41-.18.39-.37.8-.3,1.35.12.95.99,1.96,2.04,2.36.5.19.9.18,1.26.17.4,0,.91-.02,1.2.44.36.57.02,1.17-.35,1.79-.36.62-.77,1.32-.72,2.18.03.52.49,1.43,1.61,1.64.27.05.45.31.4.58-.04.24-.25.41-.49.41Z"/>
  <path class="st3" d="M69.75,33.55c2.03-3.59,5.44-6.38,9.49-7.35,1.31-.31,2.66-.43,4-.37.16,0,.39-.02.51-.14.09-.09.11-.2-.06-.21-2.77-.13-5.55.44-8.02,1.7-2.1,1.07-3.93,2.64-5.37,4.52-.47.62-.9,1.27-1.28,1.94-.08.13.25.12.3.11.15-.02.34-.08.42-.22h0Z"/>
  <path class="st3" d="M64.04,29.77c.53-4.16,2.66-8.03,5.98-10.61.8-.62,1.65-1.16,2.55-1.62.44-.22.05-.66-.33-.46-4.09,2.09-7.18,5.81-8.42,10.24-.23.82-.4,1.65-.51,2.5-.05.39.69.31.74-.05h0Z"/>
  <path class="st3" d="M56.97,27.62c.23-2.02.32-4.04.59-6.06.18-1.32.39-2.64.72-3.93.28-1.13.63-2.26,1.3-3.21.76-1.08,1.79-1.95,2.94-2.59.42-.23-.24-.22-.42-.12-.96.53-1.85,1.19-2.58,2.01-.82.92-1.35,1.95-1.7,3.12-.76,2.51-1.07,5.19-1.29,7.8-.09,1.03-.15,2.07-.26,3.1-.02.2.69.06.72-.12h0Z"/>
  <path class="st3" d="M48.1,26.09c1.41-3.67,1.11-7.99-1.37-11.15-.64-.82-1.41-1.54-2.25-2.15-.27-.2-.9.18-.56.43,1.7,1.23,3.03,2.93,3.72,4.93s.71,4.12.27,6.15c-.13.58-.3,1.15-.51,1.7-.15.39.57.4.7.09h0Z"/>
  <path class="st3" d="M40.4,26.11c-.25-3.71-1.7-7.29-4.19-10.07-.67-.74-1.4-1.42-2.19-2.03-.16-.12-.79.16-.68.25,3.13,2.43,5.28,5.93,6.05,9.82.15.74.24,1.48.29,2.23,0,.13.74,0,.72-.19h0Z"/>
  <path class="st3" d="M77.32,40.45c1.68-2.68,4.9-4.58,8.12-3.93,1.69.34,3.48,1.3,3.84,3.12.31,1.61-.44,3-1.73,3.9-.5.35-1.35.72-1.39-.25-.03-.67.55-1.23,1.03-1.61,1.33-1.05,3.1-1.61,4.77-1.83s3.29-.05,4.72.86c.58.37,1.13.81,1.45,1.44.44.87.31,1.82-.11,2.66-.63,1.29-1.43,2.23-2.89,2.55-.39.08-.78.13-1.17.17s-.89.14-1.27,0c-.48-.19-.96-.99-.61-1.49s1.41-.55,1.95-.59c.89-.07,1.8,0,2.67.19,1.41.3,2.75.81,3.13,2.32.29,1.15.06,2.48-.49,3.52-.27.5-.62.93-1.17,1.13-.44.16-.98.19-1.41-.04-.5-.27-.78-.97-.44-1.46.46-.69,1.75-.99,2.51-1.08.84-.1,1.72-.04,2.54.14,1.15.25,2.29.76,3.16,1.56.6.55,1.36,1.38,1.42,2.23.05.72-.38,1.41-.86,1.91-.93.98-2.45,1.72-3.81,1.37-.57-.14-1.48-.53-.99-1.25.63-.94,1.85-.78,2.73-.35.66.32,1.35.68,1.85,1.22.56.6.54,1.32.19,2.03-.4.79-1.13,1.3-1.98,1.5-.44.11-.33.51.11.4.96-.23,1.85-.75,2.39-1.6.45-.69.68-1.61.19-2.34s-1.45-1.24-2.26-1.62c-.88-.42-1.9-.54-2.82-.15-.61.26-1.64,1.06-1.18,1.83.3.5,1.05.71,1.59.81,1.78.31,3.78-.67,4.87-2.05.51-.64.88-1.51.59-2.33-.36-1-1.26-1.89-2.12-2.47-1.45-.97-3.23-1.36-4.96-1.3-1.2.04-5.09.91-3.86,2.87.95,1.52,3.41.6,4.2-.61s1.15-3.12.56-4.53c-.75-1.79-3.11-2.17-4.83-2.28-.98-.06-2-.01-2.94.29-.63.2-1.35.51-1.37,1.27-.04,2.06,2.86,1.48,4.07,1.19,1.8-.42,2.97-1.7,3.6-3.4.82-2.21-.94-3.88-2.87-4.6s-4.04-.48-5.92.07c-1.06.31-2.1.74-3.02,1.35-.66.44-1.4,1.04-1.62,1.84-.18.66.15,1.33.87,1.38s1.42-.4,1.95-.83c1.58-1.24,2.34-3.3,1.33-5.18s-3.63-2.49-5.52-2.42c-2,.07-3.93.9-5.47,2.17-.79.65-1.46,1.43-2,2.29-.19.3.54.25.68.03h0Z"/>
  <path class="st3" d="M96.76,63.61c1.42.24,3.27.74,3.79,2.27.26.76.14,1.75-.44,2.34-.34.34-.85.54-1.3.65s-1.01.13-1.29-.29c-.48-.69.26-1.25.94-1.14,1.47.23,2.37,2.14,1.81,3.46s-2.43,1.88-3.54.92c-.13-.11-.4-.39-.2-.51.11-.07.41.05.51.08.26.09.5.23.74.38.64.41,1.27.98,1.52,1.72.19.58.12,1.24-.43,1.59-.59.37-1.4.46-2.07.57-.32.05-.63.08-.95.1-.26.01-.65.06-.89-.06-.57-.28.83-1.01,1.07-1.06.92-.18,1.84.52,2.3,1.27.49.82.41,1.83-.07,2.63-.81,1.33-2.59,1.97-4.08,1.85-.34-.03-.74.47-.26.51,1.82.15,3.94-.6,4.96-2.18.58-.9.7-2.05.17-3.01s-1.51-1.59-2.57-1.6c-.83,0-2.11.51-2.37,1.4-.24.82,1.08.79,1.56.77.96-.03,2-.19,2.91-.5.83-.28,1.56-.84,1.56-1.79s-.64-1.72-1.33-2.27-1.98-1.34-2.83-.67c-.79.62.38,1.41.93,1.61.9.33,1.94.18,2.76-.29s1.44-1.27,1.51-2.24-.37-1.91-1.09-2.53-1.75-.87-2.64-.44c-.74.36-1.12,1.24-.47,1.89.52.53,1.4.46,2.05.29.69-.18,1.45-.53,1.87-1.13.64-.89.69-2.1.13-3.05-.53-.88-1.51-1.39-2.46-1.69-.51-.16-1.03-.27-1.55-.36-.35-.06-.74.43-.26.51h0Z"/>
  <path class="st3" d="M90.25,75.49c2.29,1,2.6,4.73.39,5.99-1.17.67-2.65.3-3.71-.41-.5-.33-.6-1.03-.21-1.49.49-.58,1.25-.21,1.72.19.45.38.87.98.83,1.59s-.44,1.19-.76,1.7c-.58.91-1.16,1.92-2.05,2.57-.45.33-.96.54-1.52.55-.5.01-1.44-.11-1.68-.63-.2-.41.26-.83.57-1.02.37-.23.77-.31,1.17-.12.57.27,1.07.73,1.46,1.21s.78,1.1.68,1.73c-.08.51-.53.86-.94,1.12-.65.41-1.4.56-2.16.41-.35-.07-.74.41-.26.51.76.15,1.58.04,2.29-.27.65-.29,1.4-.79,1.69-1.48.54-1.29-.78-2.69-1.75-3.36-.51-.36-1.05-.58-1.69-.46s-1.29.49-1.64,1.03-.21,1.09.33,1.41c.7.42,1.64.51,2.43.35,1.34-.27,2.31-1.3,3.04-2.4.48-.72,1.05-1.45,1.35-2.27.26-.68.18-1.32-.24-1.91-.48-.69-1.25-1.27-2.12-1.28-.76,0-1.51.49-1.71,1.24-.22.83.34,1.38,1.01,1.74.74.39,1.56.62,2.4.6,1.65-.03,3.1-1.13,3.54-2.72.39-1.4-.04-3.04-1.13-4.01-.28-.25-.6-.44-.94-.59-.29-.13-.84.29-.42.47h0Z"/>
  <path class="st3" d="M75.74,84.12c.66.51.58,1.54.04,2.12-.23.25-.54.41-.85.5-.16.04-.23.05-.39.07-.07,0-.14.01-.21.02-.03,0-.06,0-.09,0,.06,0,.02,0-.01,0-.32,0-.69.01-.95-.22-.22-.2-.38-.64-.05-.81s.67.24.83.47c.3.42.52.96.54,1.48.03.7-.51,1.41-1.23,1.46-.47.03-.96-.16-1.32-.45-.12-.1-.51-.5-.27-.6.27-.11.67,0,.93.14.28.17.51.43.68.71.21.33.34.69.39,1.08.06.45.03.94-.22,1.33-.19.31-.51.52-.85.64-1,.36-2.17.09-3.1-.34-.16-.07-.37-.03-.51.06-.1.06-.22.23-.06.31,1.14.52,2.48.77,3.7.39.47-.14.94-.37,1.27-.74.37-.4.53-.91.52-1.45,0-.6-.18-1.13-.51-1.63-.23-.36-.56-.68-.96-.84-.5-.2-1.13-.21-1.63.02-.2.09-.43.25-.46.49-.03.19.08.38.19.52.38.46,1.03.73,1.61.79,1.12.13,2.3-.55,2.53-1.7.11-.55-.11-1.15-.37-1.63-.27-.5-.69-.98-1.3-.99-.49-.01-1.2.25-1.31.8-.1.5.34.92.77,1.06.38.12.8.11,1.2.08.43-.03.88-.13,1.27-.32.92-.43,1.66-1.47,1.28-2.51-.09-.24-.24-.45-.44-.61-.14-.11-.33-.09-.48-.02-.08.03-.32.21-.19.31h0Z"/>
  <path class="st3" d="M84.14,21.06c1.63-1.75,4.27-2.13,6.33-.9,1.79,1.06,3.2,3.37,2.54,5.48-.31.98-1.12,1.69-2.17,1.35-.95-.31-1.32-1.4-.8-2.25.62-1.02,1.79-1.19,2.8-.7s1.76,1.43,2.37,2.35c.78,1.18,1.59,2.7,1.21,4.16-.27,1.07-1.42,2.11-2.52,1.47l.07.11c.72-2,3.47-2.72,5-1.17,1.42,1.44,1.12,4.3-.68,5.3-.12.07-.19.15-.07.25s.41-.02.51-.08c1.66-.92,2.33-3.14,1.52-4.86-.86-1.83-3.08-2.17-4.82-1.47-.98.4-1.82,1.13-2.18,2.14-.02.06.03.09.07.11,1.05.61,2.41.09,3.18-.74,1.06-1.15.81-2.78.19-4.09-1.1-2.31-3.61-5.36-6.42-3.62-.94.58-1.64,1.8-.88,2.82.65.89,2.04.88,2.96.46,1.22-.56,1.66-1.95,1.53-3.21-.14-1.36-.91-2.64-1.94-3.52-2.46-2.1-6.28-1.7-8.45.62-.12.13.1.18.19.18.17,0,.37-.07.48-.19h0Z"/>
  <path class="st3" d="M106.18,60.86c1.97-.55,4.24.28,4.74,2.4.26,1.14-.13,2.27-1.07,2.97s-2.09.83-3.2.63l.24.16c-.21-.76.35-1.43,1.06-1.64.81-.24,1.46.21,1.72.97.29.84.26,1.81.05,2.67-.18.73-.48,1.57-1.17,1.95-.62.35-1.9.34-2.36-.31-.28-.39.15-.9.51-1.07.26-.12.57-.11.84-.07,1.41.21,3.06,1.49,3.07,3.02,0,2-2.08,3.29-3.86,3.46-.4.04-.56.57-.07.52,2.06-.19,4.55-1.61,4.66-3.92.1-1.99-2.14-3.64-4-3.64-.46,0-.9.12-1.28.39s-.81.81-.69,1.33c.24.99,1.88,1.12,2.67.98,2.28-.41,2.95-3.45,2.38-5.37-.15-.52-.43-1.02-.92-1.28s-1.07-.28-1.61-.15c-1.03.26-2.07,1.2-1.74,2.35.03.11.14.15.24.16,1.9.33,4.26-.34,5.08-2.24.75-1.74-.17-3.72-1.81-4.52-1.13-.55-2.43-.58-3.62-.25-.44.12-.32.61.13.49h0Z"/>
  <path class="st3" d="M33.73,27.51c.61-3.04-.47-6.07-2.94-7.97-1.14-.88-2.59-1.38-3.95-.66-1.2.63-2.07,1.95-2.51,3.2-.41,1.18-.6,3.08.74,3.77.4.21.91.18,1.26-.1.52-.42.45-1.26.29-1.84-.43-1.56-1.99-2.42-3.53-2.45s-2.99.63-3.95,1.83c-1.16,1.46-1.69,3.64-1.31,5.47.31,1.48,1.32,2.96,2.99,2.76.16-.02.34-.1.41-.26.72-1.85-.76-3.86-2.57-4.29-1.92-.46-3.87.79-4.76,2.44-1.14,2.09-.54,4.56.76,6.43.47.68.99,1.34,1.78,1.63.58.22,1.29.32,1.88.1.5-.18.76-.57.61-1.1-.25-.86-1.07-1.45-1.9-1.67-2.02-.54-3.93.71-4.86,2.46-.98,1.83-1.28,4.6,1.03,5.59,1.44.62,3.16-.77,1.93-2.17-.58-.67-1.73-.76-2.53-.51-1.03.32-1.49,1.25-1.53,2.27s.15,1.96.76,2.81c.45.63,1,1.5,1.67,1.92.22.14.88-.18.57-.37-.36-.23-.66-.68-.93-1-.42-.52-.91-1.08-1.15-1.72-.43-1.16-.41-3.71,1.35-3.58.66.05,1.28.39,1.45,1.07.07.26.05.57-.12.79-.31.41-.86.18-1.21-.04-1.68-1.03-1.49-3.11-.77-4.68s2.12-2.91,3.92-2.42c.64.18,1.23.6,1.52,1.21.21.45.19.82-.36.81-1.33-.03-2.14-1.18-2.76-2.21-.87-1.46-1.3-3.29-.71-4.93s2.32-3.27,4.18-2.65c1.56.52,2.67,2.3,2.05,3.89l.41-.26c-1.28.16-2.03-1.23-2.3-2.28-.32-1.22-.15-2.57.26-3.75.48-1.39,1.46-2.66,2.93-3.04,1.28-.33,2.75.03,3.59,1.09.42.53.69,1.26.6,1.94-.03.27-.05.51-.35.43-.26-.07-.49-.43-.61-.65-.54-1-.24-2.31.21-3.29s1.24-2.2,2.32-2.52c1.29-.37,2.66.78,3.48,1.64,1.8,1.87,2.47,4.4,1.96,6.93-.06.3.67.19.73-.08h0Z"/>
  <path class="st3" d="M12.49,50.09c-1.76.45-3.37,1.41-4.57,2.78s-2.26,3.41-1.71,5.3c.42,1.44,2.03,2.65,3.55,2.14,1.19-.41,1.9-1.71,2.08-2.89.07-.45.09-1.05-.21-1.43-.39-.49-1.17-.43-1.71-.31-1.57.35-2.55,1.56-2.83,3.11-.17.92-.12,1.87.04,2.79.1.53.15.92.55,1.29s.78.76,1.12,1.19c.63.82,1.12,1.87.83,2.92-.2.73-.8,1.22-1.09,1.91-.6,1.44.49,3,1.55,3.88.77.64,2.11,1.44,3.06.7s.81-2.45-.48-2.67-2.84.47-3.27,1.71c-.5,1.46.62,3.2,1.93,3.81s3.2.48,4.18-.69c.38-.46.83-1.31.58-1.92-.2-.48-.83-.45-1.26-.36-1.37.31-2.21,1.46-1.73,2.83.59,1.66,2.23,3.04,4.04,2.85.73-.08,1.41-.42,1.79-1.06.26-.44.55-1.27,0-1.61s-1.39-.04-1.86.3c-.52.38-.71.97-.69,1.6.06,1.69,1.28,3.16,2.93,3.52.86.19,1.75.11,2.6-.13.43-.12.33-.52-.11-.4-1.39.39-2.94.16-3.88-1.02-.6-.75-1.23-2.31-.54-3.19.23-.29.88-.62,1.1-.16.11.22,0,.55-.09.76-.38.94-1.31,1.07-2.2.8-1.16-.35-2.3-1.75-2.49-2.96-.07-.45,0-.9.32-1.24.28-.31,1.24-.9,1.39-.2.11.52-.26,1.21-.61,1.58-.48.49-1.19.65-1.86.59-1.31-.11-2.38-1.08-2.77-2.31s.16-2.39,1.45-2.66c.43-.09.99-.09,1.27.31s.19,1.16-.11,1.54c-.56.7-2.01-.6-2.42-1-.71-.71-1.39-1.74-1.24-2.8.14-.98,1.08-1.6,1.27-2.58.24-1.22-.42-2.39-1.19-3.28-.5-.58-1.12-.96-1.29-1.74-.16-.71-.24-1.45-.2-2.18.06-1.11.39-2.39,1.36-3.05.42-.29,1.38-.7,1.83-.25.27.26.26.75.23,1.09-.08.91-.56,2.15-1.44,2.57-.72.34-1.56-.2-2.05-.71-.57-.6-.84-1.36-.84-2.18,0-3.13,2.96-5.77,5.8-6.5.44-.11.33-.51-.11-.4h0Z"/>
</svg>