<?xml version="1.0" encoding="UTF-8"?>
<svg id="_レイヤー_1" xmlns="http://www.w3.org/2000/svg" version="1.1" viewBox="0 0 100 100">
  <!-- Generator: Adobe Illustrator 30.0.0, SVG Export Plug-In . SVG Version: 2.1.1 Build 123)  -->
  <defs>
    <style>
      .st0 {
        fill: #ceb372;
      }

      .st1 {
        fill: #fff;
      }

      .st2 {
        fill: none;
        stroke: #000;
        stroke-linecap: round;
        stroke-linejoin: round;
        stroke-width: .6px;
      }
    </style>
  </defs>
  <path class="st1" d="M24.49,82.55c-.28-.5-1.22-1.47-1.3-1.63-.1-.19-2.36,1.11-4.53,1.17-4.69.12-7.43-4.75-7.77-5.38-1.62-2.98-2.64-8.34.55-11.21,2.1-1.9,4.43,0,7.16-1.36,1.38-8.3,2.29-9.12,5.14-14.85,5.48-11.01,19.75-15.74,27.72-17.88,7.99-2.15,20.67-4.15,26.86,1.19,1.7,1.46,5.47,17.01,7.34,19.43,1.87,2.41,3.43,1.91,4.8,4.09,1.11,1.77.82,4.38.23,9.61-.46,4.08-1.07,5.49-1.91,6.63-.95,1.3-2.07,2.09-2.86,2.55.17,1.67.24,4.61-1.03,7.9-1.36,3.51-3.52,5.62-4.79,6.77-2.02,1.83-12.01,6.2-14.68,6.78-1.9.42-12.59.53-14.72.6-2.25.08-15.01-4.17-18.78-6.61-3.01-1.95-5.62-4.56-7.42-7.81"/>
  <path class="st1" d="M28.25,57.61c.42-.78,1.02-1.38,1.77-1.86,1.99-1.29,4.29-1.61,6.52-2.03,2.36-.44,4.76-.67,7.14-1,4.44-.61,6.63-.94,11.52-1.39,3.47.13,3.66-.12,5.91-.09,2.96.05,5.92,0,8.89.09,3.57.12,7.14.19,10.71.3,1.65.05,3.31.22,4.95.4.84.09,1.67.37,2.54.41,1.46.07,3.38,1.68,3.82,3.03.7,2.14.68,4.34.75,6.55.09,2.86.09,5.72-.72,8.5-.36,1.22-.84,2.38-2.03,3.09-1.34.8-2.88,1.01-4.32,1.14-2.44.21-4.91.31-7.37.05-1.56-.16-3.15.03-4.66-.6-2.06-.87-3.55-2.41-4.82-4.14-1.76-2.4-5.16-2.9-7.63-1.04-1.39,1.05-2.33,2.42-3.22,3.84-1.4,2.23-3.21,3.75-5.97,4-2.26.2-4.47.72-6.75.87-3.38.22-6.76.33-10.1-.29-3.21-.6-5.46-2.31-6.29-5.6-.3-1.19-.45-2.4-.54-3.62"/>
  <path class="st0" d="M82.3,39.59c1.09-.78,1.04-2.81.96-5.86-.15-6.46-5.31-12.04-10.01-14.42-3.41-1.73-4.02-.73-14.31-2.51-12.75-2.21-15.01-4.3-16.01-5.42-3.6-4.05-3.03-9.4-4.22-9.38-1.14.03-.88,4.9-2.98,10.85-1.59,4.5-3.01,5.3-12.09,19.82-1.69,2.71-2.98,4.84-2.73,7.64.32,3.52,2.99,7.25,5.91,7.49,1.95.16,2.77-.66,6.42-3.38,5.86-4.38,15.02-6.87,15.71-6.13,1.8,1.9-6.7,4.28-5.26,5.04,4.6,2.43,23.01.3,38.59-3.73Z"/>
  <path d="M86.41,74.82c1.17.6.89,1.55.94,2.36-.05,2.46-.76,4.8-1.73,7.02-5.61,11.42-20.84,14.92-32.56,14.09-3.84-.29-7.56-1.46-11.13-2.7-5.14-1.46-9.92-4.22-14.06-7.55-.21-.17-.25-.49-.07-.7.17-.21.47-.24.68-.09,4.23,3.03,8.84,5.53,13.91,6.76,3.54,1.07,7.17,2.17,10.82,2.35,12.51.61,30.82-4.26,31.67-19.2.07-.7-.34-1.26.54-2.14.25-.28.66-.36.98-.19h0Z"/>
  <path d="M28.46,58.93c1.22-2.32,3.82-3.23,6.15-3.82,2.31-.57,4.65-.88,6.98-1.29,4.67-.82,9.35-1.48,14.03-2.22,5.45-.2,10.89-.59,16.35-.63,3.89-.07,10.53-.18,14.36.02,7.41.19,7.66,4.11,8.33,10.36,1.22,12.05-1.5,14.79-13.52,14.35-.52-.04-1.54-.11-2.06-.17-4.53.17-7.3-1.84-9.91-5.43-1.98-2.2-5.55-1.8-7.39.43-2.23,2.54-3.42,6.46-7.18,7.29-6.08,1.13-12.3,2.46-18.51,1.54-5.12-.64-7.21-4.8-7.72-9.49-.18-1.36,1.85-1.67,2.07-.31.27,6.75,3.4,8.74,9.85,8.79,4.07.11,8.08-.39,12.08-1.19,1.27-.16,2.61-.37,3.68-1.09,2.36-1.43,3.08-4.28,5-6.23,1.91-2.25,5.54-2.99,8.05-1.24,1.18.78,1.91,2.03,2.98,2.9,2.09,1.88,4.21,2.25,7.07,1.97,1.29.02,2.71,0,4-.13,1.31-.12,2.64-.28,3.95-.49,1.74-.31,3.35-.54,4.24-1.99,1.71-4.09,1.17-9.01.98-13.36-.08-.9-.28-1.92-.58-2.73-.5-1.01-1.52-1.88-2.59-2.25-1.65-.25-3.29-.59-4.94-.62-2.66-.29-9.47-.17-12.24-.17-5.46-.01-10.9.25-16.34.47-4.44.75-9.34,1.44-13.91,2.28-2.3.45-4.65.82-6.91,1.42-2.09.56-4.49,1.46-5.45,3.49-.26.61-1.21.17-.9-.44h0Z"/>
  <path d="M23.31,81.17c-6.65,3.71-14.35-1.52-14.46-8.85-.17-3.38.78-7.68,4.53-8.64,2.34-.8,5.6-1.31,7.68.56.65.56,2.76,2.48,1.38,3.3-.45.21-.98-.03-1.13-.5-1.44-3-4.62-2.99-7.52-2.05-3.26.75-3.84,4.42-3.85,7.31-.05,3.17,1.55,6.14,4.15,7.94,2.56,1.98,6.11,1.79,8.9.5.33-.23.67.23.31.44h0Z"/>
  <path d="M50.26,82.63c4.67,2.43,9.99,3.7,15.22,2.69,1.66-.24,3.22-.97,4.39-2.11.63-.62,1.58.35.95.97-1.44,1.3-3.33,2.06-5.2,2.24-5.45.78-10.84-.74-15.55-3.49-.2-.12,0-.44.19-.3h0Z"/>
  <path class="st2" d="M84.72,57.51c-1.16,1.21-2.67,1.91-4.04,2.83-2.46,1.64-4.95,3.23-7.43,4.84-.14.09-.12.31-.32.32"/>
  <path d="M82.42,40.87c1.62,3.26,3.2,6.64,3.93,10.27.11.57-.28,1.13-.86,1.21-.56.08-1.08-.31-1.16-.87-.28-3.5-1.48-6.92-2.82-10.19-.24-.58.62-.98.91-.42h0Z"/>
  <path class="st2" d="M51.19,57.62c-2.94,2.87-6.11,5.49-8.98,8.44-.26.26-.51.52-.7.84"/>
  <path class="st2" d="M84.62,61.34c-1.87,1.48-3.98,2.62-5.93,3.98-1.05.73-2.28,1.21-3.15,2.18"/>
  <path class="st2" d="M53.25,60.08c-1.83,1.89-3.85,3.59-5.68,5.47-.77.79-1.72,1.41-2.31,2.37"/>
  <path class="st2" d="M54.03,64.03c-.92,1.25-2.19,2.14-3.32,3.17-1.31,1.2-2.82,2.19-4.12,3.41-.39.36-.83.69-1.05,1.2"/>
  <path class="st2" d="M84.78,64.18c-2.03,1-3.83,2.36-5.76,3.51-.82.49-1.68.92-2.47,1.47"/>
  <path d="M63.02,74.54c-.03-1.56,1.34-2.9,2.92-2.9,1.52.12,2.97,1.57,2.55,3.13-.08.28-.51.19-.48-.09.07-1.77-2.31-2.92-3.59-1.58-.44.38-.78.9-.85,1.46-.04.32-.53.3-.54-.02h0Z"/>
  <path d="M22.57,50.34c-2.18,3.9-2.91,8.61-2.34,12.98.09.53-.26,1.03-.78,1.13-1.95.23-.95-3.45-.94-4.53.49-3.48,1.68-6.95,3.77-9.77.12-.17.41,0,.3.19h0Z"/>
  <path d="M68.66,37.2c3.07-4.96,2.14-11.31-2.87-14.59-1.55-1.05-3.38-1.71-5.28-1.89,8.84.49,13.5,9.39,9.28,17.1-.4.77-1.56.14-1.13-.61h0Z"/>
  <path d="M56.59,37.63c2.7-6.89-.48-14.8-6.91-18.35,6.83,3.33,10.39,11.41,7.96,18.69-.21.7-1.29.36-1.05-.34h0Z"/>
  <path d="M46.81,35.53c-5.25-6.21-7.75-14.6-6.71-22.63-.61,7.94,2.23,16.02,7.66,21.79.58.62-.4,1.5-.95.84h0Z"/>
  <path d="M38.65,40.65c-6.08-6.23-5.64-14.96-1.52-22.12-.84,1.76-1.48,3.61-1.96,5.49-1.57,5.54.15,11.82,4.41,15.68.65.61-.31,1.59-.93.94h0Z"/>
  <path d="M31.76,44.12c-5.08-3.19-6.32-10.59-2.45-15.17-.79,1.16-1.31,2.47-1.6,3.81-.89,4,1.18,8.3,4.74,10.22.79.44.07,1.63-.69,1.14h0Z"/>
  <path d="M25.34,55.4l-3.77-.06c-.23,0-.23-.35,0-.36,0,0,3.76-.57,3.76-.57.74-.09.77,1.05.02,1h0Z"/>
  <path d="M24.15,59.03l-3.24-1.02c-.27-.08-.17-.51.11-.46,0,0,3.36.51,3.36.51.7.12.45,1.18-.23.97h0Z"/>
  <path d="M23.89,62.92l-3.59-1.71c-.15-.06-.06-.3.09-.25,0,0,3.85,1.02,3.85,1.02.69.2.31,1.24-.35.94h0Z"/>
</svg>