<?xml version="1.0" encoding="UTF-8"?>
<svg id="_レイヤー_1" xmlns="http://www.w3.org/2000/svg" version="1.1" viewBox="0 0 100 100">
  <!-- Generator: Adobe Illustrator 30.0.0, SVG Export Plug-In . SVG Version: 2.1.1 Build 123)  -->
  <defs>
    <style>
      .st0 {
        fill: #ceb372;
      }

      .st1 {
        fill: #fff;
      }
    </style>
  </defs>
  <path class="st1" d="M17.79,74.73c-.13,1.58-.12,4.37,1.15,7.45,1.36,3.29,3.46,5.24,4.69,6.3,1.96,1.69,4.25,2.86,6.58,3.93,2.38,1.09,4.92,1.66,7.46,2.16,1.81.35,3.68.48,5.54.5.81,0,1.59.22,2.39.22,2.02,0,4-.5,6.02-.48,2.13.03,3.99-1.07,6.02-1.45,4.28-.81,8.1-2.83,11.61-5.23,2.81-1.91,5.22-4.45,6.85-7.56.25-.48.47-1.04.95-1.33.04-.02.17-.1.24-.25.09-.18.04-.39-.01-.54.72.54,2.28,1.53,4.32,1.54,4.45,0,6.93-4.67,7.23-5.26,1.46-2.86,2.31-7.95-.78-10.6-2.03-1.75-4.19.11-6.81-1.13-1.49-7.82-2.37-8.58-5.2-13.94-5.44-10.3-19.05-14.45-26.64-16.3-7.62-1.86-17.45-4.25-23.2.95-1.57,1.42-4.22,6.46-6.81,12.58-.83,1.95-.18,4.44-1.9,6.77-1.71,2.33-3.2,1.89-4.45,3.98-1.01,1.7-.67,4.17,0,9.1.53,3.85,1.14,5.17,1.96,6.23.93,1.2,2.01,1.93,2.77,2.35Z"/>
  <g>
    <path class="st0" d="M21.57,41.48c-1-.69-1-2.53-1-5.3,0-5.87,4.56-11.05,8.78-13.32,3.06-1.65,3.63-.75,12.94-2.6,11.53-2.29,13.54-4.23,14.42-5.27,3.19-3.76,2.62-9.39,3.7-9.39,1.03,0,.83,5.21,2.88,10.57,1.54,4.05,2.85,4.75,11.41,17.74,1.6,2.42,2.81,4.33,2.64,6.88-.21,3.2-2.56,6.65-5.21,6.93-1.77.19-2.53-.54-5.9-2.93-5.41-3.85-13.79-5.91-14.41-5.23-1.59,1.77,6.18,3.74,4.89,4.46-4.12,2.31-20.9.77-35.14-2.55Z"/>
    <g>
      <path class="st0" d="M20.71,31.14c-.14.36.19.4.07.76-.11.36-.48.48-.6.85-.09.38.04.41-.05.79-.09.37-.39.33-.44.72-.05.39.18.51.15.9-.02.39.6.31.58.67-.02.37-.68.42-.68.78,0,.37.19.45.19.82,0,.37-.46.24-.45.62.01.38.45.37.47.75.03.38-.03.38.02.77.06.4-.27.45-.16.92.17.54.62.4.84.79.21.39.35.99.39,1.03l1.13-1.73s-.34.02-.44-.2c-.1-.21.14-.3.09-.48-.06-.26-.33-.23-.38-.56-.04-.33.3-.36.27-.69-.02-.34-.59-.21-.6-.56,0-.36.19-.47.19-.83,0-.36.15-.32.15-.68,0-.36-.24-.41-.23-.75.02-.34.44-.33.46-.65.04-.33-.39-.37-.34-.71.05-.34.19-.32.27-.65.08-.33.26-.29.34-.61.1-.32-.39-.44-.29-.77.11-.34.5-.23.63-.54.13-.31-.05-.39.08-.71.16-.31.5-.24.61-.47l-1.78-.91c-.13.26.12.34-.05.69-.16.35-.29.29-.44.64Z"/>
      <path class="st0" d="M28.79,22.14c-.34.19-.09.45-.42.63-.32.19-.67.06-.99.27-.32.22-.23.33-.54.56-.3.22-.5-.01-.8.23-.29.25-.2.5-.48.75-.28.26.22.63-.05.88-.27.24-.77-.18-1.04.09-.26.28-.2.46-.44.75-.25.28-.51-.12-.76.17-.25.29.1.58-.14.88-.23.3-.28.26-.49.58-.21.31-.49.15-.71.47-.21.33.19.63,0,.95-.2.32-.73.44-.74.46l1.78.91s.01-.49.2-.79c.18-.3.38-.17.57-.46.19-.28-.04-.44.16-.73.19-.29.47-.08.67-.35.21-.27-.31-.55-.09-.82.23-.27.45-.22.68-.48.23-.26.32-.12.56-.37.24-.25.09-.46.35-.69.26-.24.55.07.8-.16.26-.22-.03-.55.24-.77.27-.23.36-.11.64-.32.28-.2.39-.06.67-.25.28-.19-.02-.59.27-.79.3-.19.54.15.84-.02.29-.17.21-.34.52-.5.31-.16.52.13.75.03l-.77-1.85c-.27.12-.13.35-.49.51-.34.18-.41.03-.75.22Z"/>
      <path class="st0" d="M40.47,19.7c-.36.06-.22.38-.57.45-.36.06-.62-.2-.97-.14-.36.06-.33.19-.69.25-.36.06-.41-.24-.77-.19-.04,0-.07.01-.1.02-.27.08-.34.3-.66.35-.36.05-.16.64-.52.69-.36.05-.5-.6-.85-.56-.36.04-.42.24-.78.28-.36.04-.29-.43-.65-.39-.37.05-.32.48-.68.52-.37.05-.37,0-.75.05-.37.06-.45-.25-.84-.18-.4.1-.33.57-.7.69-.37.11-.86-.14-.89-.13l.77,1.85s.31-.35.63-.44c.32-.09.38.16.69.08.32-.06.27-.34.62-.39.34-.06.39.28.73.23.35-.05.18-.6.53-.65.36-.04.5.14.86.1.36-.04.34.11.7.07.36-.05.37-.29.74-.34.36-.05.43.37.79.32.31-.05.3-.37.52-.49.04-.02.08-.04.13-.05.36-.05.38.09.74.03.36-.06.39.13.75.07.36-.06.24-.56.6-.62.36-.06.47.33.83.27.36-.07.32-.26.68-.33.36-.07.51.25.78.19l-.38-1.96c-.26.05-.18.3-.54.37-.36.07-.38-.08-.74-.02Z"/>
      <path class="st0" d="M51.68,16.91c-.33.12-.15.42-.49.53-.34.11-.64-.11-.97,0-.34.1-.3.23-.65.33-.35.1-.43-.18-.78-.09-.34.09-.36.37-.71.46-.35.09-.08.66-.44.75-.35.09-.57-.55-.91-.46-.35.09-.39.29-.74.37-.35.08-.33-.4-.68-.32-.35.08-.26.51-.61.59-.35.08-.36.03-.72.1-.35.07-.44-.24-.79-.17-.35.07-.31.56-.66.63-.35.08-.77-.29-.79-.28l.38,1.96s.43-.29.78-.37c.36-.07.41.17.76.1.36-.07.3-.35.66-.42.36-.07.42.25.78.17.36-.08.12-.62.48-.7.35-.08.51.09.87,0,.35-.09.35.07.7-.02.36-.09.34-.33.69-.42.35-.09.47.32.83.22.36-.1.23-.52.59-.61.35-.1.39.04.75-.07.35-.11.41.08.76-.03.35-.11.16-.59.51-.7.35-.12.52.27.87.13.35-.13.28-.31.63-.44.35-.13.56.14.82.03l-.78-1.84c-.24.1-.11.33-.44.46-.33.12-.38-.02-.72.1Z"/>
      <path class="st0" d="M58.73,7.61c-.15.46.1,1.04-.02,1.49-.11.46-.4.35-.54.91-.14.55-.04.65-.19,1.13-.08.23-.19.31-.3.4-.11.07-.26.24-.31.36-.13.3.07.49-.08.79-.16.3.43.5.26.81-.18.31-.78,0-.96.27-.19.27-.09.45-.31.71-.22.25-.49-.13-.69.07-.21.2.08.53-.18.73-.26.2-.3.15-.57.33-.29.17-.46-.09-.76.06-.29.15-.12.61-.44.76-.32.15-.79-.12-.81-.11l.78,1.84s.37-.38.71-.55c.34-.16.45.05.8-.13.35-.18.21-.44.54-.64.33-.22.52.07.85-.2.34-.26-.14-.63.15-.89.28-.28.51-.24.76-.55.24-.3.33-.18.56-.5.22-.33.04-.5.24-.83.19-.33.57-.14.75-.5.18-.36-.23-.53-.08-.88.13-.31.23-.18.32-.41.08-.22.22-.06.27-.23.05-.17-.28-.75-.21-1.03.08-.29.31.31.35.12.05-.2-.05-.56,0-.81.05-.25.19.46.22.34l-.66-4.4c-.1.2,0,.7-.12,1.03-.13.35-.21,0-.35.45Z"/>
      <path class="st0" d="M63.12,12.63c-.08-.35-.39-.17-.5-.62-.1-.44.12-.91.02-1.44-.1-.53-.21-.39-.3-.88-.09-.48.15-.95.04-1.48-.11-.53-.32-.18-.42-.59-.12-.4-.43.89-.49.53-.06-.36.2-1.64.07-1.91-.12-.27-.2-.03-.31-.31-.12-.27.02-.83-.14-1.03-.18-.17-.19.31-.47.1-.17-.08-.29-.08-.37-.05-.08.02-.16.06-.25.17-.17.23-.18-.17-.31,0-.12.18-.07.99-.16,1.28-.08.3-.31-.27-.33-.27l.66,4.4s0-.2,0-.41c0-.22,0-.47.03-.58.05-.22.11.53.14.37.05-.16,0-1.09.09-1.31.12-.18.16,1,.29,1.08.1.12.23-1.95.33-1.7.09.26.02.97.07,1.19.05.23-.03.63,0,.83.03.19.17-.37.22-.12.04.26-.22,1.14-.19,1.3.03.16.32-.6.37-.34.04.25-.06.45-.02.66.04.22-.11.41-.07.59.04.17.48-.18.54.11.03.14-.05.25-.13.35-.09.08-.16.19-.12.38.09.36.28.31.37.67.09.36-.2.54-.13.81l1.92-.56c-.07-.25-.32-.15-.41-.49-.09-.35.06-.38-.03-.72Z"/>
      <path class="st0" d="M68.17,22.74c-.21-.3-.44-.04-.65-.34-.21-.3-.07-.65-.28-.95-.21-.3-.32-.22-.52-.52-.2-.3.04-.48-.15-.77-.19-.3-.46-.22-.66-.52-.19-.3-.65.12-.84-.19-.19-.31.36-.7.19-.99-.17-.3-.37-.29-.53-.6-.15-.32.32-.41.17-.71-.14-.31-.54-.14-.68-.46-.13-.33-.08-.35-.21-.68-.13-.33.17-.46.06-.79-.11-.33-.59-.22-.7-.56-.11-.34.21-.78.21-.8l-1.92.56s.33.41.45.76c.11.36-.12.43,0,.79.13.36.39.26.52.61.14.35-.18.47-.03.82.15.35.63.02.78.36.16.33.03.53.2.87.18.33.02.37.21.7.19.33.42.24.61.56.2.31-.16.55.04.87.2.31.57.06.77.37.2.31.09.38.29.69.21.3.05.41.26.71.21.3.61-.02.81.28.21.3-.11.56.1.86.21.3.37.19.57.48.21.3-.02.56.14.79l1.64-1.14c-.16-.22-.35-.04-.56-.34-.21-.3-.08-.38-.29-.68Z"/>
      <path class="st0" d="M74.78,32.44c-.2-.3-.44-.05-.64-.35-.2-.3-.06-.65-.26-.96-.2-.3-.32-.23-.52-.53-.2-.3.05-.48-.16-.78-.2-.3-.47-.23-.67-.53-.2-.3-.65.13-.85-.17-.2-.3.32-.72.11-1.02-.2-.3-.41-.27-.61-.57-.21-.3.25-.45.04-.76-.21-.3-.57-.06-.78-.36-.21-.3-.16-.33-.37-.63-.21-.3.05-.5-.16-.8-.21-.3-.63-.07-.84-.37-.21-.3-.05-.82-.06-.84l-1.64,1.14s.44.27.65.56c.21.3,0,.44.21.74.21.3.44.14.64.44.21.3-.07.48.13.78.2.3.62-.12.82.18.2.3.11.5.31.8.2.3.05.35.26.65.2.3.43.2.63.5.2.3-.14.55.06.85.2.3.56.05.76.35.2.3.08.38.28.68.2.3.04.41.25.71.2.3.6,0,.8.29.2.3-.12.56.08.86.2.3.36.19.56.5.2.3-.03.56.12.79l1.67-1.1c-.15-.23-.35-.05-.55-.36-.2-.31-.07-.39-.27-.69Z"/>
      <path class="st0" d="M77.4,44.06c.15-.37-.19-.42-.05-.78.12-.36.49-.49.59-.88.1-.39-.05-.42.03-.81.06-.39.36-.37.4-.78.02-.42-.24-.52-.26-.92-.03-.41-.63-.22-.67-.59-.06-.36.58-.55.49-.95-.11-.39-.32-.43-.45-.79-.14-.36.34-.41.18-.78-.17-.37-.56-.18-.74-.52-.18-.34-.13-.36-.32-.69-.19-.32.08-.51-.12-.83-.2-.32-.63-.1-.83-.41-.2-.31-.03-.83-.04-.85l-1.67,1.1s.43.28.62.58c.19.3-.02.43.17.73.18.3.42.16.6.46.17.3-.12.46.04.75.15.3.62-.05.77.26.14.32,0,.49.11.8.11.31-.06.32.04.63.07.31.32.3.37.62.04.33-.38.38-.37.68.01.3.44.3.43.64-.04.33-.17.32-.22.64-.07.32-.23.29-.32.6-.08.31.42.42.31.75-.11.33-.51.21-.63.52-.12.3.04.38-.11.69-.16.3-.5.2-.62.4l1.69,1.07c.16-.26-.09-.36.11-.7.18-.35.32-.28.49-.64Z"/>
      <path class="st0" d="M66.77,46.28c.3.21.43-.11.73.1.3.21.29.59.6.8.31.21.39.1.7.31.32.2.17.47.54.68.38.19.58.01.99.15.43.13.45-.5.82-.43.36.04.42.71.86.68.42-.04.52-.25.92-.35.4-.14.43.37.84.18.42-.19.2-.59.55-.8.33-.23.37-.19.68-.45.29-.27.55-.04.83-.36.29-.31-.06-.66.18-.97.23-.3.78-.38.8-.41l-1.69-1.07s-.05.47-.26.73c-.2.26-.39.1-.6.32-.21.23-.03.41-.26.64-.25.19-.44-.06-.68.09-.24.14.13.62-.16.75-.29.15-.46-.03-.73.07-.29.04-.26-.09-.56-.07-.29.02-.32.26-.62.23-.3-.05-.19-.46-.43-.55-.25-.1-.43.3-.72.15-.29-.17-.22-.29-.51-.47-.29-.19-.18-.35-.47-.55-.29-.2-.55.23-.85.03-.29-.21-.09-.56-.38-.77-.3-.21-.41-.05-.7-.27-.3-.21-.17-.54-.4-.7l-1.16,1.63c.22.16.34-.08.64.13.3.21.2.34.5.55Z"/>
      <path class="st0" d="M57.68,41.59c.19.06-.12-.41.13-.33.27.09.52.51.7.57.19.07.19-.08.41,0,.24.09.08.36.43.5.33.13.51-.08.84.06.33.14.47-.47.8-.32.33.15.1.78.43.92.32.15.48.02.8.18.32.16,0,.51.31.68.31.16.52-.22.83-.05.31.17.29.22.59.4.31.18.16.47.45.65.3.18.59-.19.89,0,.3.2.32.74.33.75l1.16-1.63s-.52-.11-.83-.32c-.31-.2-.18-.42-.5-.61-.32-.2-.47.04-.79-.15-.32-.19-.16-.47-.48-.65-.33-.18-.5.38-.83.21-.32-.17-.34-.4-.67-.56-.33-.16-.23-.28-.56-.44-.34-.15-.48.05-.81-.1-.34-.15-.18-.55-.52-.69-.34-.14-.5.26-.84.13-.33-.13-.32-.28-.78-.45-.46-.17-.47-.37-.97-.54-.51-.17-.3.44-.7.31-.4-.12-.71-.65-1.19-.77-.47-.13-.29.13-.71.02-.41-.1-.93-.55-1.26-.61l2.83,2.83c.13.03-.27-.37-.04-.31.23.07.39.29.58.34Z"/>
      <path class="st0" d="M57.44,43.26c-.17-.1-.56-.06-.8-.19-.25-.13.13-.15-.04-.23-.18-.09-.45-.13-.66-.24-.21-.11.5.04.35-.04-.15-.08-.88-.28-1.08-.4-.18-.11-1.94-.6-2.22-.79-.29-.21,1.87.47,1.74.34-.12-.16-.83-.47-.82-.72.08-.23,1.67.61,1.79.52.14-.04-1.25-.83-.99-.83.24.02.4.12.63.15.24.04,1.06.62,1.22.65.15.03-.83-.78-.56-.72.13.03.44.23.7.43.24.19.46.36.47.37l-2.83-2.83s-.28.17-.64.13c-.35-.03-.71-.31-1.03-.29-.31.03.06.29-.25.3-.3.02-.68-.23-.95-.16-.27.09.41.39.09.48-.17.05-.27.17-.39.25-.1.09-.21.2-.22.38.02.35-.13.26-.02.53.13.25.47.37.68.58.22.2-.45,0-.29.19.16.18.97.38,1.22.55.25.18-.05.11.19.3.26.19-.17.12.1.34.31.24,1.47.34,1.82.55.36.21-.48.23.07.55.28.16.52.24.73.3.11.04.21.07.32.12.11.05.19.14.44.12.05,0-.02-.11,0-.16,0-.07.02-.12.03-.17.04-.11.1-.17.09-.19,0-.03.05-.07.02-.08l-.09-.03c-.12-.04-.22-.09-.33-.05l.83,1.82c.15-.06.19-.15.23-.24.02-.05.05-.09.09-.14,0,0,.09-.08.17-.14.04-.04.08-.07.12-.11.06-.07.12-.17.17-.27.1-.18.08-.49.05-.6-.01-.04-.02-.08-.03-.11,0-.03,0-.06,0-.08,0-.05,0-.08-.08-.14Z"/>
      <path class="st0" d="M46,45.94c.37.01.3-.33.67-.31.37.01.57.34.94.34.37,0,.37-.13.74-.13.37,0,.38.31.75.31.37,0,.46-.25.83-.27.37-.01.24-.62.61-.63.36-.01.44.65.81.64.37-.01.45-.22.82-.24.37-.03.28.44.65.41.38-.03.34-.46.71-.52.37-.06.38,0,.76-.06.37-.06.45.27.84.17.39-.1.32-.58.69-.67.36-.1.89.11.92.1l-.83-1.82s-.24.37-.59.44c-.33.08-.39-.16-.7-.08-.31.09-.28.34-.62.39-.34.05-.39-.28-.72-.23-.33.05-.17.61-.52.64-.35.03-.48-.16-.84-.13-.35.02-.32-.12-.67-.11-.36.01-.39.25-.74.26-.36.01-.38-.42-.73-.4-.35.01-.34.44-.7.44-.36,0-.36-.15-.72-.15-.36,0-.36-.19-.71-.2-.36,0-.34.5-.7.48-.36-.01-.38-.42-.74-.44-.36-.01-.37.18-.73.17-.36-.02-.43-.36-.7-.38l-.12,2c.27.02.25-.25.62-.22.37.01.36.17.73.18Z"/>
      <path class="st0" d="M34.26,44.76c.36.05.33-.29.69-.24.36.05.53.38.9.43.36.05.38-.09.74-.04.36.05.33.35.7.4.36.05.48-.2.84-.16.36.04.32-.58.68-.54.36.04.34.71.7.75.36.04.47-.13.83-.09.36.03.19.48.55.52.37.03.41-.4.78-.37.36.03.36.09.72.12.36.03.36.36.72.39.37.02.45-.45.82-.43.36.02.68.48.7.48l.12-2s-.48.18-.84.15c-.36-.02-.34-.27-.7-.3-.36-.02-.38.25-.74.22-.36-.03-.32-.36-.68-.4-.36-.03-.3.55-.66.52-.36-.03-.45-.24-.81-.28-.36-.04-.3-.19-.66-.23-.36-.04-.43.2-.79.16-.36-.04-.32-.46-.68-.5-.36-.04-.4.39-.76.35-.36-.05-.34-.19-.7-.24-.36-.05-.33-.23-.69-.28-.36-.05-.39.46-.75.42-.36-.05-.34-.46-.69-.51-.36-.05-.39.14-.74.09-.36-.05-.39-.4-.66-.44l-.3,1.98c.27.04.28-.22.64-.17.36.05.34.21.7.26Z"/>
      <path class="st0" d="M22.67,42.64c.36.08.35-.27.71-.19.36.08.5.43.86.51.36.07.39-.06.75.01.36.07.31.38.66.45.36.07.5-.16.85-.09.36.07.36-.55.72-.48.36.07.28.73.64.8.36.07.48-.1.84-.03.36.07.15.5.51.57.36.07.44-.36.8-.3.36.06.35.11.71.17.36.06.33.38.69.44.36.06.49-.41.85-.35.36.06.63.53.65.53l.3-1.98s-.49.14-.85.08c-.36-.06-.31-.31-.67-.36-.36-.06-.4.21-.76.15-.36-.06-.29-.39-.65-.45-.35-.06-.35.53-.7.46-.35-.07-.43-.28-.79-.35-.35-.07-.29-.21-.64-.27-.36-.07-.44.16-.8.1-.36-.06-.28-.49-.63-.56-.35-.07-.43.36-.78.29-.35-.07-.33-.21-.68-.29-.35-.07-.32-.26-.67-.33-.35-.07-.42.43-.78.35-.35-.08-.3-.48-.65-.56-.35-.08-.4.11-.74.03-.25-.06-.16-.38-.28-.41l-1.13,1.73c.38.12.44-.1.92,0,.46.1.35.24.73.32Z"/>
    </g>
  </g>
  <g>
    <path d="M18.59,75.33c-.07-.15-.18-.3-.32-.41-.13-.11-.3-.17-.48-.2-.18-.03-.35,0-.51.07-.16.07-.34.16-.45.32-.1.16-.15.37-.17.57l2,.13c.01-.17,0-.34-.08-.49Z"/>
    <path d="M21.92,85.44c-.22-.29-.45-.01-.67-.32-.22-.3-.09-.66-.29-.96-.2-.31-.31-.24-.5-.56-.18-.32.08-.48-.08-.8-.16-.32-.43-.29-.58-.63-.14-.34-.67,0-.81-.36-.14-.36.46-.65.34-.99-.12-.35-.33-.38-.44-.73-.1-.36.37-.36.28-.71-.09-.35-.51-.25-.59-.61-.07-.36-.02-.37-.08-.73-.05-.36.27-.42.24-.77-.03-.35-.51-.38-.52-.75,0-.37.45-.68.45-.7l-2-.13s.17.56.18.97c.02.41-.24.42-.2.85.04.42.32.39.37.8.06.4-.26.46-.18.87.09.41.62.16.72.54.1.38-.05.56.06.95.12.38-.04.39.1.76.14.38.38.34.52.71.14.37-.24.54-.08.92.18.38.56.18.74.54.18.36.06.42.26.78.21.35.04.45.27.79.22.35.63.02.85.35.23.32-.07.6.18.92.26.32.4.19.67.5.26.3.08.6.29.83l1.45-1.37c-.18-.2-.36,0-.61-.27-.25-.28-.12-.38-.36-.66Z"/>
    <path d="M31.76,92.08c-.35-.13-.4.21-.75.07-.35-.15-.42-.52-.77-.68-.35-.16-.41-.04-.75-.2-.35-.17-.22-.45-.56-.61-.34-.17-.54.02-.87-.16-.33-.18-.52.42-.86.23-.34-.19-.05-.8-.37-.98-.32-.19-.5-.08-.81-.29-.32-.21.06-.52-.25-.72-.3-.21-.56.14-.86-.08-.3-.23-.26-.27-.55-.5-.29-.24-.09-.5-.36-.74-.27-.25-.64.07-.91-.19-.27-.26-.2-.81-.21-.83l-1.45,1.37s.51.24.8.51c.29.28.12.46.42.73.3.27.49.06.8.32.31.25.1.51.43.76.33.25.57-.29.89-.06.32.22.32.46.65.68.33.21.22.32.56.52.35.2.5.02.85.21.35.19.15.57.5.76.35.19.55-.21.89-.03.35.17.29.3.64.47.35.17.27.34.63.51.35.16.53-.31.89-.15.36.15.24.55.62.69.37.15.44-.04.82.1.37.13.36.48.65.57l.6-1.91c-.27-.08-.31.18-.67.06-.36-.12-.3-.27-.65-.4Z"/>
    <path d="M43.74,94.2c-.43-.03-.38.32-.76.31-.38,0-.6-.32-.98-.34-.38-.02-.39.12-.77.1-.38-.02-.37-.33-.74-.36-.37-.03-.49.22-.86.17-.37-.04-.33.58-.72.53-.38-.05-.33-.72-.7-.79-.36-.07-.49.1-.87.02-.38-.08-.15-.5-.52-.58-.37-.08-.47.35-.84.27-.37-.08-.36-.14-.73-.22-.37-.09-.31-.41-.68-.5-.36-.1-.54.36-.91.25-.37-.11-.57-.62-.59-.63l-.6,1.91s.56-.04.94.06c.38.11.31.35.7.45.39.1.45-.17.84-.08.38.09.3.41.69.5.38.08.39-.5.77-.42.38.08.46.3.84.37.38.07.31.22.7.29.4.07.48-.16.87-.11.39.05.35.48.75.52.4.04.43-.39.82-.36.39.03.38.18.78.2.39.02.38.21.78.23.4.01.37-.49.76-.49.38,0,.45.41.76.43.34.03.36-.16.74-.11.38.05.44.4.76.43l.18-1.99c-.26-.03-.25.24-.63.19-.39-.05-.36-.21-.79-.25Z"/>
    <path d="M55.7,92.95c-.38.12-.19.42-.56.54-.37.12-.68-.1-1.03.01-.35.11-.32.24-.67.33-.35.08-.43-.21-.76-.15-.33.05-.38.32-.73.34-.34,0-.23.62-.62.62-.39,0-.47-.66-.88-.63-.4.03-.48.22-.88.26-.39.04-.3-.43-.7-.39-.39.05-.34.48-.73.53-.38.05-.39,0-.77.03-.38.04-.43-.28-.79-.26-.36.02-.39.51-.76.52-.39.01-.64-.45-.67-.45l-.18,1.99s.61-.16,1-.18c.41-.01.42.23.83.21.41-.03.38-.31.78-.35.39-.04.42.29.81.24.38-.05.2-.6.58-.65.38-.05.52.14.9.1.37-.04.34.12.71.09.36-.02.4-.26.77-.27.35,0,.4.43.84.41.45-.03.39-.47.79-.53.41-.07.44.06.84-.03.4-.1.45.08.84-.04.39-.12.19-.59.56-.72.37-.12.53.25.89.13.36-.12.3-.3.66-.41.36-.1.53.21.78.15l-.44-1.95c-.31.07-.21.32-.6.42-.39.11-.43-.04-.81.09Z"/>
    <path d="M67.04,88.5c-.32.2-.07.45-.4.64-.33.2-.68.04-1.01.23-.33.19-.27.3-.6.49-.33.18-.49-.09-.82.08-.33.17-.3.44-.64.61-.34.16.02.66-.33.83-.35.16-.67-.43-1.01-.29-.34.15-.36.35-.72.49-.35.14-.39-.35-.74-.22-.35.12-.22.54-.58.65-.36.11-.37.06-.74.17-.36.1-.46-.2-.82-.12-.36.09-.3.57-.67.65-.35.07-.82-.27-.86-.26l.44,1.95s.12-.08.25-.16c.16-.09.37-.18.56-.22.39-.08.44.15.84.06.39-.09.32-.37.71-.48.38-.11.47.21.86.09.38-.12.09-.63.46-.76.37-.13.56.02.93-.13.37-.14.38.02.75-.14.37-.16.31-.39.67-.56.36-.16.55.22.91.05.36-.18.16-.56.51-.74.35-.18.42-.05.77-.24.35-.19.44-.02.78-.22.34-.2.06-.62.39-.82.33-.2.58.13.92-.08.33-.21.23-.37.56-.58.33-.21.59.02.84-.15l-1.11-1.67c-.24.16-.06.35-.38.56-.32.21-.4.07-.72.28Z"/>
    <path d="M75.35,80.07c-.17.32.16.41-.02.74-.19.33-.56.36-.76.67-.2.31-.09.39-.3.7-.21.31-.47.13-.69.43-.22.29-.07.52-.31.81-.24.28.31.59.05.88-.26.29-.78-.12-1.04.15-.25.27-.19.46-.45.73-.27.26-.49-.17-.76.08-.27.25.01.58-.27.82-.29.24-.32.2-.61.44-.3.23-.51-.01-.8.21-.29.22-.06.64-.37.86-.31.22-.85.06-.87.07l1.11,1.67s.31-.45.63-.68c.33-.23.47-.02.8-.27.33-.24.15-.47.47-.71.31-.25.51,0,.83-.25.3-.27-.17-.62.13-.88.29-.27.52-.21.8-.49.28-.28.36-.14.64-.43.28-.29.13-.49.39-.79.26-.3.59-.04.85-.35.25-.32-.1-.58.14-.9.23-.32.36-.23.58-.57.23-.33.39-.23.6-.57.22-.34-.24-.58-.04-.92.2-.34.57-.18.76-.54.19-.37,0-.46.17-.75.17-.27.47-.08.52-.12l-1.2-1.6c-.38.32-.15.47-.45.88-.24.4-.36.34-.54.67Z"/>
    <path d="M76.81,78.67c-.12.12-.27.26-.3,0,0-.11.04-.21.05-.25,0-.02.02-.04-.01-.03-.07.04-.14.08-.21.12h0s1.2,1.6,1.2,1.6h0s.02-.01.02-.02c.06-.04.15-.11.23-.18.16-.15.32-.41.36-.67.05-.54-.2-.67-.34-.73-.16-.06-.34-.07-.52-.06-.18.01-.35.1-.48.21Z"/>
  </g>
  <g>
    <path d="M71,57.14c.14.05.32.07.49.06.16,0,.34-.07.49-.15.16-.09.27-.22.35-.38.08-.16.14-.35.1-.56-.04-.2-.17-.4-.32-.57l-1.47,1.36c.1.11.22.19.36.24Z"/>
    <path d="M60.9,54.08c.38.04.35-.3.73-.26.38.04.56.38.94.42.38.04.4-.09.78-.04.38.05.34.34.72.4.38.06.51-.18.89-.12.38.06.36-.56.74-.5.38.07.31.73.67.8.36.07.49-.09.85,0,.36.09.11.51.45.6.33.1.48-.31.82-.18.33.13.31.18.64.33.32.16.19.45.47.62.28.17.58-.21.86,0,.28.22.18.75.18.75l1.47-1.36s-.56-.29-.91-.54c-.35-.25-.22-.47-.59-.68-.38-.21-.51.03-.88-.15-.38-.17-.24-.47-.64-.63-.4-.14-.47.44-.85.32-.38-.11-.45-.34-.84-.44-.39-.09-.31-.23-.7-.31-.39-.08-.48.15-.86.09-.38-.06-.32-.49-.71-.55-.38-.06-.44.37-.82.31-.38-.06-.36-.19-.74-.24-.38-.04-.35-.23-.74-.28-.38-.04-.42.46-.8.42-.38-.04-.36-.45-.75-.5-.38-.04-.41.15-.79.1-.38-.04-.43-.39-.72-.42l-.26,1.98c.28.03.28-.23.66-.19.38.04.36.2.74.24Z"/>
    <path d="M48.64,52.83c.38.04.33-.31.71-.27.38.04.58.37.96.4.38.04.39-.1.78-.06.38.04.36.34.75.38.38.04.5-.21.88-.18.38.04.32-.58.7-.55.38.04.37.71.75.74.38.04.49-.14.87-.1.38.04.2.48.58.52.38.04.43-.4.82-.36.38.04.38.09.76.13.38.04.36.37.74.41.38.04.49-.43.87-.38.38.04.68.51.7.51l.26-1.98s-.52.15-.91.1c-.38-.04-.35-.29-.73-.34-.38-.04-.42.23-.8.19-.38-.04-.34-.37-.72-.4-.38-.04-.33.55-.71.51-.38-.04-.48-.25-.86-.28-.38-.04-.32-.18-.7-.22-.38-.04-.45.2-.83.16-.38-.04-.35-.46-.73-.5-.38-.04-.42.4-.8.36-.38-.04-.37-.18-.75-.22-.38-.04-.37-.23-.75-.26-.38-.04-.39.47-.77.44-.38-.04-.39-.45-.77-.48-.38-.04-.4.16-.78.12-.38-.04-.45-.38-.74-.41l-.14,1.99c.28.03.27-.24.65-.2.38.04.37.19.75.23Z"/>
    <path d="M36.39,52.8c.38-.01.28-.35.67-.36.38-.01.62.29,1.01.28.38-.01.38-.15.76-.16.38-.01.41.29.79.28.38-.01.46-.28.85-.29.38-.01.24-.62.62-.63.38,0,.44.66.81.66.37,0,.46-.17.85-.16.39.01.23.47.63.48.4,0,.41-.43.81-.43.39,0,.4.05.79.04.39-.01.43.31.82.29.2-.01.3-.14.4-.26.09-.13.12-.25.32-.23.38.04.71.5.73.5l.14-1.99s-.5.16-.9.12c-.53-.01-.46-.23-.86-.22-.37.02-.36.3-.74.31-.37.01-.38-.32-.74-.32-.37,0-.26.58-.63.57-.38,0-.49-.21-.87-.23-.39-.01-.34-.17-.74-.17-.4,0-.45.24-.84.25-.39.01-.42-.41-.8-.4-.38.01-.36.45-.74.46-.38.01-.39-.13-.77-.12-.38.01-.39-.18-.78-.16-.38.01-.32.52-.71.53-.38.01-.44-.39-.83-.38-.38.01-.37.21-.76.22-.38.01-.49-.32-.78-.31l.1,2c.29,0,.24-.27.62-.28.39-.01.39.14.77.13Z"/>
    <path d="M24.02,53.37c.39-.02.28-.36.67-.38.38-.02.63.28,1.01.26.38-.02.38-.15.76-.17.38-.02.41.29.8.27.38-.02.46-.28.85-.3.38-.02.23-.62.62-.64.38-.02.48.64.86.62.38-.02.47-.21.85-.23.38-.02.27.45.66.43.38-.02.37-.46.75-.48.38-.02.39.03.77.02.38-.01.42.31.81.3.38-.01.41-.5.79-.51.38-.01.76.4.79.4l-.1-2s-.49.22-.87.24c-.38.01-.4-.24-.78-.22-.38.01-.37.29-.76.3-.38.01-.4-.31-.78-.3-.38.02-.23.59-.62.61-.38.02-.51-.17-.9-.15-.38.02-.35-.13-.73-.11-.38.02-.41.26-.8.28-.38.02-.42-.41-.8-.39-.38.02-.35.46-.73.48-.38.02-.39-.12-.77-.1-.38.02-.39-.17-.78-.15-.38.02-.32.53-.7.55-.38.02-.44-.38-.83-.36-.38.02-.37.21-.76.23-.38.02-.5-.31-.78-.3l.11,2c.29-.02.24-.28.62-.3.39-.02.39.13.77.11Z"/>
    <path d="M12.94,55.85c.21-.24-.09-.42.16-.67.26-.24.61-.13.87-.31.27-.17.2-.29.49-.43.29-.12.4.17.62.12.06,0,.08-.03.14-.06.08-.03.15-.07.21-.11.13-.08.25-.16.46-.2.41-.08.15-.65.53-.74.37-.09.58.55.92.48.32-.06.41-.24.78-.29.38-.04.3.43.67.4.37-.04.33-.47.71-.51.38-.04.38.01.76-.03.38-.04.43.28.8.24.38-.04.39-.53.77-.57.38-.05.76.37.78.37l-.11-2s-.48.23-.87.28c-.39.04-.4-.21-.79-.17-.39.04-.37.32-.75.36-.39.04-.41-.29-.8-.25-.39.04-.21.6-.59.64-.38.04-.53-.14-.92-.1-.38.04-.36-.12-.78-.05-.41.08-.4.33-.77.42-.37.08-.47-.33-.79-.27-.34.06-.18.46-.7.53-.45.11-.5-.03-.93.16-.41.2-.5.04-.88.28-.37.26-.02.64-.34.9-.3.27-.62.02-.92.35-.28.35-.13.46-.37.84-.22.38-.58.38-.71.75l1.92.57c.06-.18-.21-.24-.06-.51.16-.27.29-.18.48-.43Z"/>
    <path d="M12.08,67.32c-.04-.37-.37-.25-.41-.63-.03-.38.26-.62.24-.99-.02-.37-.15-.37-.16-.75-.01-.38.3-.39.29-.77,0-.38-.26-.47-.26-.85,0-.38-.61-.27-.61-.65,0-.38.67-.44.67-.82,0-.38-.18-.48-.18-.86,0-.38.47-.24.48-.61.01-.37-.42-.39-.4-.77.02-.37.08-.37.11-.73.04-.37.36-.35.41-.7.06-.35-.41-.48-.33-.84.08-.36.59-.56.59-.58l-1.92-.57s.05.58-.03.97c-.08.4-.32.35-.39.76-.06.41.22.44.18.84-.04.4-.37.37-.39.77-.02.4.56.31.54.7-.01.39-.21.51-.22.9,0,.39-.16.34-.16.72,0,.38.24.43.24.81,0,.39-.43.39-.43.78,0,.39.44.38.44.77,0,.39-.14.39-.13.78.01.39-.17.4-.16.79.02.4.53.32.56.71.03.39-.37.46-.33.86.05.4.24.37.3.76.06.39-.25.54-.2.85l1.96-.37c-.05-.27-.3-.19-.36-.55-.05-.37.1-.38.05-.75Z"/>
    <path d="M19.19,73.74c-.38-.02-.31.33-.69.31-.38-.02-.59-.34-.95-.37-.37-.03-.38.1-.74.06-.36-.05-.32-.35-.66-.42-.33-.07-.47.16-.81.06-.32-.11-.43.51-.78.37-.34-.15-.1-.78-.36-.93-.24-.16-.42-.06-.64-.28-.21-.24.22-.45.05-.67-.15-.23-.54-.03-.69-.33-.14-.31-.09-.33-.21-.67-.12-.34.19-.46.08-.8-.1-.34-.58-.27-.67-.63-.09-.36.27-.79.27-.8l-1.96.37s.3.47.4.86c.1.39-.15.45-.03.85.12.4.38.31.52.7.15.39-.17.51.02.92.21.41.65.02.87.38.24.35.18.59.51.92.34.3.21.4.61.66.4.23.55.03.93.2.39.16.26.56.68.69.42.12.52-.31.91-.23.4.08.38.22.78.27.4.05.38.23.78.27.4.03.39-.48.78-.46.39.02.4.43.79.45.39.02.4-.18.79-.16.39.01.48.35.77.36l.03-2c-.28,0-.25.26-.63.25-.38-.01-.37-.17-.75-.18Z"/>
    <path d="M30.59,71.99c-.28.21-.02.44-.32.64-.3.2-.64.03-.94.19-.31.15-.26.28-.56.39-.32.11-.41-.19-.72-.12-.32.06-.36.33-.72.37-.36.04-.2.63-.58.66-.38.03-.47-.64-.86-.62-.39.03-.48.22-.88.26-.4.05-.3-.43-.67-.39-.36.04-.33.47-.71.5-.37.03-.38-.03-.75,0-.38.02-.41-.31-.78-.29-.37.01-.42.49-.8.5-.38,0-.73-.43-.75-.43l-.03,2s.51-.2.9-.2c.39,0,.39.25.79.23.4-.01.39-.29.78-.31.39-.02.41.31.81.28.4-.03.23-.59.61-.63.38-.04.55.13.9.1.36-.03.33.12.7.1.38-.02.41-.27.8-.29.39-.03.44.4.86.35.42-.06.35-.49.75-.57.41-.1.45.05.87-.1.41-.16.49,0,.87-.18.38-.2.09-.62.44-.83.34-.22.6.1.94-.15.33-.26.21-.41.52-.67.3-.27.61-.1.83-.32l-1.43-1.4c-.19.18.03.35-.24.6-.27.24-.36.12-.64.34Z"/>
    <path d="M41.78,68.03c-.34-.26-.47.08-.82-.15-.36-.21-.45-.61-.88-.77-.42-.15-.46-.01-.89-.12-.43-.08-.4-.39-.86-.42-.46-.01-.57.24-1,.29-.44.05-.21.64-.59.72-.37.11-.65-.53-1.06-.35-.42.17-.42.4-.79.62-.35.25-.51-.24-.87.07-.37.3-.05.64-.35.95-.26.33-.34.34-.55.63-.22.3-.49.12-.71.41-.22.28.12.63-.12.91-.25.28-.79.22-.8.24l1.43,1.4s.22-.53.48-.83c.26-.31.45-.15.7-.47.25-.32.03-.49.26-.81.23-.33.47-.08.66-.32.21-.21-.28-.56-.02-.79.26-.23.47-.12.74-.3.29-.16.32-.02.61-.13.29-.12.25-.35.58-.44.33-.08.41.35.71.32.3-.01.29-.46.63-.44.34.02.32.18.64.23.32.08.27.25.56.36.29.11.47-.36.79-.2.31.18.11.54.38.72.27.21.39.06.66.29.26.24.09.54.27.73l1.45-1.38c-.22-.23-.38-.01-.68-.3-.31-.28-.21-.39-.54-.66Z"/>
    <path d="M50.78,74.97c-.4-.04-.34.31-.73.28-.38-.03-.54-.36-.87-.42-.33-.07-.36.07-.69-.03-.33-.1-.23-.4-.52-.52-.29-.13-.48.06-.77-.12-.29-.18-.54.38-.85.16-.3-.24.1-.78-.15-1.01-.24-.24-.44-.17-.68-.44-.23-.28.21-.47,0-.74-.21-.28-.56-.03-.77-.33-.21-.32-.17-.35-.39-.68-.22-.32.03-.53-.21-.86-.25-.33-.66-.08-.91-.38-.25-.3-.2-.88-.22-.9l-1.45,1.38s.46.19.69.47c.23.28.03.43.25.72.21.29.44.13.65.44.21.31-.07.49.14.81.24.34.63-.09.87.23.24.32.17.55.44.85.27.31.14.37.44.67.31.29.51.14.84.4.34.24.1.6.49.84.39.22.58-.17.96,0,.39.16.34.3.75.43.41.13.37.3.8.39.43.07.46-.44.86-.4.4.04.39.44.76.47.37.04.39-.16.77-.12.38.04.43.39.71.43l.25-1.98c-.29-.04-.28.23-.67.18-.39-.04-.37-.2-.76-.24Z"/>
    <path d="M62.95,75.5c-.37.04-.26.36-.64.4-.38.02-.62-.27-.99-.25-.38.02-.37.15-.75.16-.38,0-.39-.3-.77-.29-.38,0-.47.26-.85.26-.38,0-.27.61-.65.6-.38,0-.42-.68-.8-.69-.38-.01-.48.17-.86.16-.38-.01-.23-.47-.59-.49-.36-.02-.4.41-.78.38-.37-.03-.37-.09-.74-.13-.38-.04-.36-.37-.73-.42-.38-.05-.49.42-.87.37-.38-.05-.68-.52-.71-.53l-.25,1.98s.51-.14.9-.09c.38.05.35.3.73.35.39.05.42-.23.81-.18.39.04.35.37.75.41.4.03.32-.55.71-.52.39.02.51.22.89.24.38.01.34.16.72.18.39,0,.44-.23.83-.22.39,0,.39.43.78.44.39,0,.38-.44.77-.44.39,0,.39.14.78.13.39-.01.4.18.79.16.39-.02.33-.52.72-.55.39-.02.46.37.85.34.39-.04.37-.23.76-.28.39-.05.53.27.83.23l-.29-1.98c-.27.04-.2.3-.57.34-.37.05-.39-.11-.76-.07Z"/>
    <path d="M71.01,69.36c-.06.36.29.34.22.7-.07.37-.43.49-.52.82-.12.32.03.38-.11.69-.13.32-.43.19-.57.48-.17.27.02.49-.19.76-.2.27.33.57.09.85-.27.27-.76-.17-1.01.03-.25.21-.22.4-.51.6-.3.18-.42-.28-.71-.13-.29.15-.12.54-.45.68-.34.12-.35.08-.69.18-.34.1-.45-.21-.78-.13-.34.08-.31.56-.68.63-.37.07-.78-.31-.8-.3l.29,1.98s.48-.28.87-.35c.39-.08.43.18.84.08.41-.1.34-.36.74-.48.39-.12.49.19.9.04.4-.18.05-.64.42-.82.36-.18.57-.08.94-.3.34-.25.4-.08.74-.36.34-.28.2-.5.5-.8.28-.32.62-.05.89-.41.26-.37-.12-.6.09-.96.19-.37.33-.3.49-.7.17-.39.33-.33.47-.74.11-.41-.39-.5-.29-.89.08-.39.49-.35.56-.75.06-.4-.13-.43-.08-.82.05-.39.39-.45.42-.76l-1.99-.17c-.03.27.24.26.2.64-.04.37-.2.34-.25.71Z"/>
    <path d="M71.61,67.18c-.15.08-.27.22-.37.36-.09.14-.17.3-.19.47h0s1.99.17,1.99.17h0c.02-.19,0-.39-.08-.55-.08-.16-.21-.3-.35-.4-.14-.1-.31-.16-.49-.17-.18,0-.36.03-.51.11Z"/>
  </g>
  <g>
    <path d="M78.04,78.39c-.13.05-.23.15-.37.25-.12.1-.24.23-.33.38-.09.15-.13.33-.11.51.02.18.1.39.25.53.15.14.33.22.44.25l.63-1.9c-.22-.07-.39-.07-.51-.02Z"/>
    <path d="M86.97,76.53c-.24.23.06.42-.19.66-.25.23-.61.13-.86.34-.26.19-.18.32-.45.5-.28.19-.44-.07-.72.08-.27.16-.23.41-.53.55-.3.12.02.66-.31.77-.34.11-.57-.52-.87-.44-.31.07-.36.26-.68.31-.33.03-.25-.43-.56-.42-.31.01-.31.44-.65.43-.33-.02-.33-.08-.65-.12-.33-.05-.29-.37-.6-.44-.31-.06-.48.38-.81.29-.34-.11-.46-.6-.53-.62l-.63,1.9s.53-.03.88.06c.37.1.31.35.7.43.39.09.44-.2.83-.14.39.04.35.38.76.4.41,0,.3-.55.68-.57.38,0,.52.17.91.13.39-.07.37.1.76.01.39-.09.37-.34.74-.46.36-.13.53.26.91.1.37-.18.17-.55.5-.75.34-.19.41-.07.74-.28.32-.21.43-.07.75-.31.3-.25-.06-.62.23-.86.28-.25.58.01.86-.26.27-.28.12-.42.37-.7.25-.29.56-.17.75-.41l-1.63-1.16c-.15.19.09.32-.12.59-.22.25-.33.15-.55.39Z"/>
    <path d="M88.64,66.58c.11.3.4.13.5.45.09.33-.17.59-.1.92.07.33.19.31.24.65.05.34-.26.39-.22.72.04.33.29.39.31.73.02.34.62.22.62.58,0,.36-.68.38-.7.71-.02.33.14.43.1.77-.06.33-.5.13-.56.44-.06.31.34.42.26.75-.1.32-.16.3-.27.61-.13.31-.44.19-.56.48-.15.27.26.55.09.84-.19.29-.7.3-.72.31l1.63,1.16s.12-.54.32-.87c.18-.34.41-.22.59-.58.16-.37-.08-.48.06-.84.13-.37.45-.25.57-.64.1-.39-.47-.42-.39-.79.07-.37.31-.45.35-.83.04-.38.21-.32.23-.7.02-.39-.21-.44-.21-.82,0-.38.43-.39.41-.78-.02-.39-.45-.35-.49-.72-.04-.37.11-.39.05-.76-.06-.37.14-.4.06-.78-.08-.38-.57-.23-.65-.6-.1-.36.28-.51.16-.89-.14-.38-.32-.3-.48-.66-.18-.35.07-.61-.11-.89l-1.68,1.09c.11.18.33.02.48.3.14.29,0,.34.11.64Z"/>
    <path d="M80.31,64.75c.27-.22,0-.44.29-.65.14-.11.3-.13.46-.15.08,0,.16-.02.23-.04.06,0,.12-.01.17-.04.21-.11.16-.24.43-.32.28-.08.36.23.63.19.29-.02.35-.29.68-.29.32,0,.25-.61.6-.58.36.03.33.7.65.75.33.05.45-.11.78-.04.33.08.11.5.43.58.31.08.42-.33.74-.22.29.13.27.16.54.31.27.15.1.44.31.6.21.17.57-.15.79.08.11.12.12.3.09.46-.02.15-.07.27-.07.28l1.68-1.09s-.48-.34-.76-.65c-.3-.3-.12-.49-.47-.77-.36-.26-.51-.04-.87-.24-.36-.2-.23-.48-.63-.65-.4-.13-.46.44-.83.34-.36-.1-.43-.32-.8-.4-.37-.07-.3-.21-.68-.28-.38-.05-.46.18-.84.15-.38-.02-.37-.46-.78-.45-.41,0-.38.45-.77.48-.4.07-.43-.09-.85.03-.41.14-.49-.05-.93.19-.45.27-.03.63-.35.86-.29.22-.57-.08-.86.15-.29.23-.17.38-.45.61-.28.23-.57.04-.78.22l1.32,1.51c.2-.17,0-.35.27-.57.27-.23.37-.1.64-.32Z"/>
    <path d="M78.47,65.83c.16.05.33.04.49.01.16-.03.31-.08.44-.19h0s-1.32-1.51-1.32-1.51h0c-.14.12-.25.27-.3.43-.05.16-.05.36,0,.52.04.16.13.33.25.45.13.13.28.23.44.28Z"/>
  </g>
  <g>
    <path d="M51.79,82.26c.03-.11.05-.25.06-.4.01-.15,0-.32-.03-.5-.04-.18-.12-.33-.24-.46-.12-.13-.28-.25-.47-.27-.19-.02-.43.08-.58.19l1.14,1.64c.08-.05.09-.11.12-.21Z"/>
    <path d="M43.57,85.47c.3-.04.18-.37.48-.42.29-.05.52.22.82.16.3-.06.27-.2.56-.26.29-.07.37.23.67.15.3-.08.3-.35.58-.44.29-.09.01-.65.29-.74.28-.09.54.52.83.42.28-.11.28-.31.56-.42.28-.12.36.35.64.23.28-.13.1-.53.37-.66.27-.13.29-.09.56-.23.26-.15.44.14.7-.02.13-.08.15-.22.16-.37.04-.16.05-.32.18-.42.26-.21.68.02.68.02l-1.14-1.64s-.26.46-.42.58c-.16.11-.31-.1-.54.04-.24.14-.11.37-.35.51-.25.13-.39-.17-.64-.05-.24.12.08.6-.18.72-.26.12-.42-.03-.67.07-.26.1-.28-.05-.54.05-.26.09-.21.34-.47.42-.27.09-.4-.32-.66-.24-.26.08-.14.49-.41.57-.27.07-.31-.07-.58,0-.27.06-.31-.12-.58-.07-.27.05-.15.55-.43.6-.28.05-.37-.35-.64-.31-.27.04-.25.23-.53.26-.28.03-.38-.3-.59-.28l.17,1.99c.23-.02.17-.28.47-.31.3-.03.31.12.62.08Z"/>
    <path d="M33.85,84.53c.29.15.38-.19.66-.06.28.12.34.48.65.58.31.1.34-.03.65.05.3.08.25.38.57.44.32.06.43-.19.74-.15.31.04.27-.59.56-.56.29.02.28.69.58.71.3.02.38-.16.67-.15.3.01.17.47.47.48.3,0,.32-.43.61-.42.3,0,.3.06.6.05.3,0,.32.32.62.31.3-.01.32-.49.62-.51.29-.02.61.39.63.38l-.17-1.99s-.34.24-.62.25c-.28.02-.29-.24-.57-.22-.28,0-.27.29-.55.29-.28,0-.28-.33-.55-.33-.28,0-.2.57-.49.56-.28,0-.37-.21-.65-.23-.28-.02-.24-.17-.52-.18-.28-.02-.33.22-.62.19-.29-.02-.25-.45-.51-.48-.25-.04-.31.4-.58.35-.26-.05-.23-.19-.49-.26-.26-.07-.2-.25-.44-.33-.24-.08-.39.4-.65.3-.25-.11-.11-.49-.34-.6-.23-.12-.32.05-.55-.09-.23-.14-.09-.46-.25-.57l-1.16,1.63c.2.14.32-.09.59.08.27.16.19.3.48.45Z"/>
    <path d="M32.5,83.16c-.04.16-.02.33.03.47.05.14.12.28.25.37h0s1.16-1.63,1.16-1.63h0c-.1-.07-.22-.12-.35-.11-.14,0-.29.05-.44.13-.14.07-.29.18-.41.32-.12.14-.21.29-.25.45Z"/>
  </g>
  <g>
    <path d="M25.82,56.51c0-.1-.03-.19-.08-.26-.05-.07-.12-.12-.2-.16-.08-.04-.17-.04-.25-.04-.09,0-.18.02-.25.07-.07.05-.13.12-.17.2l.88.47c.05-.09.08-.19.07-.28Z"/>
    <path d="M22.37,61.26c.12-.16-.04-.22.07-.38.12-.15.31-.15.43-.31.12-.15.06-.19.18-.35.12-.16.24-.07.36-.22.12-.15.04-.27.16-.42.12-.15-.16-.29-.04-.45.12-.15.4.04.52-.11.12-.15.08-.25.2-.4.12-.15.26.05.38-.11.12-.16-.05-.29.07-.45.12-.16.14-.14.26-.3.11-.16.26-.08.37-.25.11-.17-.08-.33.03-.49.1-.17.38-.23.39-.25l-.88-.47s-.02.26-.12.41c-.1.16-.2.09-.3.24-.1.15,0,.23-.1.39-.11.15-.24.05-.35.2-.11.15.15.28.03.43-.12.15-.23.14-.35.28-.12.15-.17.08-.29.23-.12.15-.04.24-.16.39-.12.15-.29.02-.41.18-.12.16.05.29-.07.44-.12.16-.18.12-.29.27-.12.15-.19.1-.31.25-.12.15.1.29-.02.44-.12.15-.29.05-.41.2-.12.15-.04.21-.16.37-.12.15-.28.09-.37.21l.8.6c.09-.12-.03-.18.09-.33.12-.16.18-.11.3-.26Z"/>
    <path d="M18.61,66.24c.12-.16-.04-.22.07-.38.12-.15.31-.15.43-.31.12-.15.06-.2.18-.35.12-.15.24-.07.36-.22.12-.15.04-.27.16-.42.12-.15-.16-.29-.05-.45.12-.15.4.02.52-.13s.07-.25.19-.4c.12-.15.26.04.38-.12.12-.15-.06-.29.06-.44.12-.15.14-.14.26-.29.12-.15.25-.07.37-.22.12-.15-.06-.32.06-.47.12-.15.4-.17.41-.18l-.8-.6s-.07.26-.18.42c-.12.15-.22.08-.33.23-.12.15,0,.24-.12.39-.12.15-.25.05-.36.21-.12.15.15.28.03.43-.12.15-.23.14-.35.3-.12.15-.16.09-.28.24-.12.15-.03.24-.15.4-.12.15-.29.03-.41.18-.12.15.06.28-.06.44-.12.15-.17.11-.29.26-.12.15-.19.1-.31.25-.12.15.1.29-.02.45-.12.15-.29.05-.41.2-.12.15-.04.21-.16.37-.12.16-.24.07-.38.22l-.02.03.87.51h0c.02-.06-.06-.15.05-.29.12-.16.18-.11.29-.26Z"/>
    <path d="M17.83,67.14c.16-.01.29-.28.31-.25.04-.03.09-.06.12-.09h0s-.87-.51-.87-.51h0c-.09.11-.12.26-.09.37,0,.19.12.05.19.1.07.04.08.14.11.22.03.08.09.17.23.15Z"/>
  </g>
  <g>
    <path d="M21.68,42.95c-.09-.15-.24-.27-.4-.32-.16-.05-.33-.05-.51-.01-.18.03-.33.11-.47.18-.14.08-.29.15-.38.23-.08.08-.11.16-.12.25l1.99.21c.02-.19-.01-.39-.11-.54Z"/>
    <path d="M18.93,51.24c.06-.24-.28-.29-.21-.55.07-.27.41-.35.49-.61.08-.27-.05-.31.03-.57.08-.27.38-.18.46-.44.09-.26-.14-.41-.05-.67.09-.26-.51-.39-.42-.65.1-.27.74-.07.84-.33.1-.26-.05-.39.06-.65.11-.26.5,0,.6-.25.11-.25-.3-.4-.18-.65.12-.25.17-.22.3-.48.13-.26.43-.13.57-.43.13-.31-.3-.53-.2-.84.1-.3.56-.58.56-.61l-1.99-.21s.18.27.1.5c-.08.22-.31.13-.4.34-.11.23.14.35.02.6-.13.25-.42.09-.56.37-.14.29.42.45.3.72-.11.27-.33.28-.44.54-.11.27-.24.18-.34.45-.1.27.11.39.01.66-.1.27-.5.14-.6.41-.1.28.32.41.23.69-.09.28-.23.23-.31.51-.09.28-.27.22-.35.51-.08.28.42.39.34.67-.07.28-.48.2-.55.49-.08.35.1.42.09.77,0,.34-.31.46-.29.68l1.99-.22c-.02-.2-.28-.15-.3-.38,0-.21.15-.18.18-.34Z"/>
    <path d="M18.59,52.76c.15-.07.26-.22.34-.37.08-.14.12-.29.11-.43h0s-1.99.22-1.99.22h0c.02.14.06.25.15.33.09.08.23.15.38.2.14.05.32.11.5.12.18.02.36,0,.51-.08Z"/>
  </g>
  <g>
    <path d="M56.59,57.51c.01-.08,0-.18-.03-.26-.03-.08-.09-.15-.16-.2-.07-.06-.15-.09-.23-.1-.09-.01-.18-.03-.26,0-.08.03-.15.09-.2.16l.77.64c.06-.07.1-.15.11-.23Z"/>
    <path d="M53.03,61.65c.12-.14-.03-.22.09-.36.12-.14.31-.11.43-.25.12-.14.07-.18.19-.32.12-.14.24-.04.36-.18.12-.14.05-.26.17-.39.12-.14-.15-.3-.03-.43.12-.14.39.06.51-.07.12-.14.08-.23.2-.37.12-.14.25.06.37-.08.12-.14-.04-.28.07-.42.12-.14.14-.12.26-.26.12-.14.25-.04.37-.18.12-.14-.05-.31.07-.45.12-.14.39-.13.4-.14l-.77-.64s-.07.25-.19.38c-.12.14-.21.06-.33.2-.12.14-.01.23-.13.37-.12.14-.24.03-.36.16-.12.14.14.28.02.42-.12.14-.23.12-.35.25-.12.14-.16.07-.28.21-.12.14-.04.23-.16.37-.12.14-.28,0-.4.14-.12.14.05.28-.07.41-.12.14-.17.09-.29.22-.12.14-.19.07-.31.21-.12.14.08.29-.04.43-.12.14-.28.02-.4.15-.12.14-.05.2-.17.34-.12.14-.28.06-.37.16l.75.66c.09-.1-.02-.18.1-.31.12-.14.18-.08.3-.22Z"/>
    <path d="M49.27,66.11c.11-.14-.05-.22.07-.36.11-.14.3-.13.41-.27.11-.14.06-.18.18-.32.11-.14.24-.05.35-.19.11-.14.04-.26.16-.4.12-.14-.16-.29-.04-.43.12-.14.39.06.51-.08.12-.14.07-.23.19-.37.12-.14.25.06.37-.08.12-.14-.05-.28.07-.42.12-.14.14-.12.26-.26.12-.14.25-.04.37-.17.12-.14-.05-.31.07-.45.12-.14.39-.12.4-.13l-.75-.66s-.08.25-.2.38c-.12.14-.21.05-.33.19-.12.14-.02.23-.13.37-.12.14-.24.03-.36.16-.12.14.13.28.02.42-.12.14-.23.12-.35.26-.12.14-.16.07-.28.21-.12.14-.04.23-.16.37-.12.14-.28,0-.4.15-.12.14.06.28-.06.42-.12.14-.17.09-.29.24-.11.14-.19.08-.3.23-.12.14.09.29-.02.43-.11.14-.28.03-.4.18-.11.14-.04.2-.15.35-.11.15-.28.09-.36.22l.83.56c.07-.1-.05-.16.06-.3.11-.14.17-.09.28-.24Z"/>
    <path d="M48.54,66.84c.08,0,.16-.03.23-.06.07-.03.13-.07.17-.13h0s-.83-.56-.83-.56h0c-.06.08-.09.18-.1.27,0,.09.03.19.07.27.05.07.12.13.2.17.08.04.17.05.25.05Z"/>
  </g>
  <g>
    <path d="M26.95,59.93c0-.08-.03-.16-.08-.23-.04-.07-.11-.13-.19-.17-.08-.05-.16-.07-.24-.08-.08-.01-.17-.02-.24,0-.07.03-.12.08-.16.14l.84.54c.04-.06.06-.14.06-.21Z"/>
    <path d="M24.29,63.57c.09-.12-.06-.2.03-.31.09-.12.27-.09.36-.21.09-.12.04-.16.13-.28.09-.12.22-.03.31-.15.09-.12.01-.23.1-.35.09-.12-.18-.27-.09-.39.09-.12.37.07.46-.05.09-.12.04-.21.13-.33.09-.12.24.06.33-.06.09-.12-.08-.25,0-.37.09-.12.11-.11.2-.23.09-.12.22-.04.31-.16.09-.13-.1-.28-.02-.4.08-.13.34-.13.35-.13l-.84-.54s-.02.21-.1.34c-.08.12-.18.05-.27.17-.08.12.03.2-.05.32-.09.12-.22.02-.3.14-.08.12.17.25.09.37-.09.12-.19.1-.28.22-.09.12-.14.06-.23.18-.09.12,0,.2-.09.32-.09.12-.26,0-.35.11-.09.12.09.25,0,.37-.09.12-.15.07-.24.19-.09.12-.17.06-.26.18-.09.12.12.26.03.38-.09.12-.26,0-.35.12-.09.12-.01.18-.11.3-.09.12-.25.04-.32.13l.79.61c.07-.09-.05-.16.05-.27.09-.12.15-.07.24-.19Z"/>
    <path d="M21.38,67.35c.08-.12-.08-.19,0-.3.08-.12.26-.09.35-.2.09-.11.04-.16.13-.27.09-.11.21-.02.31-.13.09-.11.02-.22.11-.34.1-.12-.17-.28-.07-.39.09-.12.37.08.46-.04.1-.12.04-.21.14-.33.09-.12.25.05.34-.07.09-.12-.09-.25,0-.37.09-.12.11-.1.2-.22.09-.12.22-.03.31-.15.09-.12-.09-.28,0-.4.09-.12.34-.1.35-.1l-.79-.61s-.04.22-.13.34c-.09.12-.19.04-.28.16-.09.12.02.2-.07.33-.09.12-.22.02-.31.14-.09.12.17.25.08.38-.09.12-.19.1-.28.21-.09.11-.14.05-.23.17-.09.11,0,.2-.1.32-.09.11-.26-.02-.35.09-.1.11.07.25-.02.37-.1.12-.15.07-.25.19-.1.12-.17.06-.27.18-.09.13.12.26.03.39-.09.12-.27.02-.35.15-.09.13,0,.19-.09.32-.08.14-.25.09-.3.2l.89.46c.04-.09-.07-.14,0-.26.07-.12.14-.08.21-.19Z"/>
    <path d="M20.82,67.99c.08,0,.15-.03.21-.06.06-.03.12-.07.14-.12h0s-.89-.46-.89-.46h0c-.04.07-.06.15-.04.23.01.08.06.16.11.22.05.06.13.11.21.15.08.03.17.05.25.05Z"/>
  </g>
  <g>
    <path d="M58.82,59.57c0-.08-.01-.16-.05-.23-.04-.07-.1-.14-.17-.19-.07-.06-.15-.09-.23-.11-.08-.02-.17-.03-.24-.01-.07.02-.13.07-.17.13l.78.62c.05-.06.08-.13.08-.2Z"/>
    <path d="M55.9,63.08c.1-.12-.05-.2.05-.32.1-.12.27-.08.37-.2.1-.12.05-.16.15-.27.1-.12.22-.02.32-.13.1-.12.02-.23.12-.34.1-.12-.16-.28-.07-.39.1-.12.37.08.47-.03.1-.12.05-.2.15-.32.1-.12.24.07.34-.04.1-.12-.07-.26.03-.38.1-.12.12-.1.22-.22.1-.12.23-.02.33-.14.1-.12-.08-.29.02-.41.1-.12.35-.1.36-.1l-.78-.62s-.04.22-.13.33c-.09.12-.19.04-.29.15-.1.12.01.2-.08.32-.1.12-.22,0-.32.12-.1.12.15.26.06.38-.1.12-.2.09-.3.2-.1.12-.14.05-.24.17-.1.12-.02.21-.12.32-.1.12-.26-.02-.36.09-.1.11.07.25-.03.37-.1.12-.15.07-.25.18-.1.12-.17.05-.27.17-.1.12.1.27,0,.38-.1.12-.26,0-.36.11-.1.12-.02.18-.12.29-.1.12-.25.04-.33.12l.76.64c.07-.09-.04-.16.06-.28.1-.12.16-.06.25-.18Z"/>
    <path d="M52.77,66.82c.09-.11-.07-.19.03-.31.09-.11.27-.08.36-.19.1-.11.05-.16.15-.27.1-.11.22-.01.32-.13.1-.11.03-.23.13-.35.1-.12-.16-.28-.06-.4.1-.12.37.07.47-.05.09-.12.04-.2.14-.32.09-.12.24.07.34-.05.09-.12-.07-.26.02-.37.1-.12.12-.1.21-.22.1-.12.23-.02.32-.14.1-.12-.08-.29.02-.4.1-.12.35-.09.36-.09l-.76-.64s-.05.22-.15.33c-.1.12-.19.04-.29.15-.1.12,0,.21-.09.32-.1.12-.22.01-.32.13-.1.12.16.26.06.38-.1.12-.2.09-.3.21-.09.12-.14.06-.24.18-.09.11,0,.2-.1.31-.09.11-.26-.02-.36.09-.1.11.07.25-.03.37-.1.11-.16.06-.26.18-.1.11-.17.05-.28.17-.1.12.1.27,0,.39-.1.12-.27,0-.37.13-.1.13-.02.19-.11.32-.09.13-.25.08-.32.19l.86.51c.05-.09-.07-.15.01-.26.08-.12.14-.07.23-.18Z"/>
    <path d="M52.17,67.43c.08,0,.15-.02.22-.05.06-.03.12-.06.15-.12h0s-.86-.51-.86-.51h0c-.04.07-.07.15-.06.23,0,.08.05.16.1.23.05.06.12.12.2.16.08.04.17.06.25.06Z"/>
  </g>
  <g>
    <path d="M60.02,63.19c0-.08-.03-.17-.07-.24-.04-.07-.11-.13-.19-.17-.08-.05-.16-.07-.24-.07-.08,0-.17-.01-.24.01-.06.03-.12.08-.16.14l.84.55c.04-.07.07-.15.07-.23Z"/>
    <path d="M56.92,66.82c.11-.12-.04-.21.07-.33.11-.12.29-.09.39-.2.1-.11.05-.16.16-.27.1-.11.22-.01.33-.13.11-.11.04-.23.14-.34.11-.11-.15-.29-.04-.4.11-.11.37.1.47-.02.11-.12.07-.21.17-.32.11-.12.24.08.35-.04.11-.12-.06-.27.05-.39.1-.12.12-.11.23-.23.1-.13.23-.03.34-.16.1-.13-.08-.29.01-.42.09-.13.36-.14.36-.15l-.84-.55s-.02.22-.11.34c-.09.12-.19.05-.28.16-.09.12.02.2-.08.32-.1.12-.22,0-.32.12-.1.11.15.27.05.38-.1.12-.21.08-.31.2-.1.11-.15.05-.25.16-.11.11-.03.21-.14.32-.11.11-.27-.03-.37.08-.11.12.05.26-.05.38-.11.12-.16.07-.27.18-.11.12-.18.05-.28.17-.11.12.1.27,0,.39-.1.12-.26-.01-.37.1-.1.11-.03.18-.14.29-.11.11-.25.02-.34.1l.72.7c.08-.09-.02-.16.09-.28.11-.12.17-.06.27-.18Z"/>
    <path d="M53.43,70.44c.1-.11-.05-.2.05-.32.1-.12.29-.09.39-.21.1-.12.05-.16.15-.27.1-.11.22-.01.32-.12.1-.11.04-.23.14-.34.11-.11-.15-.29-.04-.4.11-.11.36.11.47,0,.11-.11.07-.2.18-.31.11-.11.23.09.35-.01.11-.11-.04-.27.07-.38.11-.11.13-.09.24-.2.11-.11.23,0,.34-.11.11-.11-.04-.3.07-.41.11-.11.37-.07.37-.07l-.72-.7s-.07.22-.17.33c-.11.11-.2.02-.31.13-.11.11-.01.21-.12.32-.11.11-.23-.01-.34.1-.11.11.12.28.01.39-.11.11-.22.07-.33.18-.11.11-.15.04-.26.15-.11.11-.04.21-.15.32-.11.11-.27-.03-.38.08-.11.11.05.26-.06.38-.11.12-.16.07-.27.19-.11.12-.18.06-.28.18-.11.12.1.27,0,.39-.1.12-.26-.01-.37.11-.11.13-.04.19-.14.32-.1.14-.27.08-.34.21l.86.5c.05-.08-.07-.14,0-.25.08-.11.14-.06.24-.17Z"/>
    <path d="M52.84,71.03c.08,0,.15-.03.21-.06.06-.02.11-.05.14-.1h0s-.86-.5-.86-.5h0c-.05.08-.08.18-.07.26,0,.09.05.18.11.24.06.06.13.11.22.13.09.03.18.03.26.03Z"/>
  </g>
  <g>
    <path d="M27.84,62.54c.03-.1.04-.21.03-.3-.02-.09-.06-.17-.13-.23-.06-.06-.15-.09-.24-.1-.09,0-.2-.02-.3.03-.1.04-.19.13-.27.22l.74.67c.08-.09.14-.19.17-.28Z"/>
    <path d="M23.29,68.18c.16-.18,0-.25.15-.44.16-.18.37-.19.53-.38.16-.19.1-.23.26-.42.15-.19.28-.1.43-.29.15-.19.08-.32.23-.51.15-.19-.14-.32,0-.51.15-.19.43-.02.58-.21.15-.19.11-.3.25-.49.15-.19.28.02.42-.17.15-.19-.02-.33.12-.52.15-.19.17-.17.32-.36.15-.19.29-.09.44-.28.15-.18-.01-.36.14-.55.16-.18.46-.2.47-.21l-.74-.67s-.14.31-.3.49c-.16.19-.25.11-.41.3-.16.19-.05.28-.2.47-.15.19-.28.08-.43.28-.15.19.12.31-.03.5-.15.19-.27.19-.42.39-.15.19-.19.12-.34.32-.15.19-.07.29-.21.48-.15.19-.32.07-.47.26-.15.19.03.32-.12.51-.15.19-.21.14-.35.33-.15.18-.22.13-.37.31-.15.18.06.33-.1.51-.16.18-.33.07-.49.25-.16.18-.09.25-.24.43-.16.19-.33.13-.44.28l.78.62c.11-.14,0-.2.15-.39.15-.18.21-.13.37-.31Z"/>
    <path d="M22.25,69.16c.09,0,.19-.04.28-.09.09-.05.18-.11.25-.2h0s-.78-.62-.78-.62h0c-.08.09-.14.2-.16.31-.03.11-.02.22,0,.31.03.09.08.17.15.22.07.05.16.08.25.08Z"/>
  </g>
  <g>
    <path d="M38.74,73.69c.06.05.12.1.2.13.08.03.17.05.26.05.09,0,.17-.04.24-.09.07-.06.15-.14.17-.24.02-.1.01-.24-.03-.35l-.95.32c.03.07.06.13.11.18Z"/>
    <path d="M35.09,73.13c.07-.14-.09-.2.01-.34.11-.14.29-.11.41-.23.13-.11.08-.16.23-.26.15-.09.23.03.37-.03.14-.07.13-.2.29-.25.16-.04.05-.32.24-.35.2,0,.21.33.36.34.15.03.22-.05.38,0,.16.07.01.25.15.32.14.08.25-.11.4,0,.14.11.13.13.25.25.13.12,0,.24.11.36.09.13.31.01.4.17.09.16-.07.39-.07.39l.95-.32s-.2-.26-.32-.45c-.12-.2-.02-.26-.16-.45-.16-.18-.25-.09-.41-.25-.16-.15-.06-.27-.24-.42-.2-.13-.29.14-.48.03-.19-.1-.21-.23-.43-.3-.22-.07-.18-.13-.41-.18-.25-.03-.28.09-.51.1-.23.03-.28-.18-.52-.11-.23.08-.15.28-.35.37-.2.1-.23.04-.42.16-.19.13-.24.06-.42.21-.17.17.03.32-.11.49-.13.17-.31.07-.44.28-.12.21-.02.25-.1.47-.06.22-.24.25-.26.44l1,.09c.02-.1-.13-.11-.08-.27.05-.15.12-.12.19-.26Z"/>
    <path d="M34.76,74.04c.07-.05.11-.12.15-.18.05-.06.07-.12.08-.19h0s-1-.09-1-.09h0c-.01.12.01.25.05.34.05.1.14.17.22.21.08.04.17.05.26.03.09-.02.17-.06.24-.11Z"/>
  </g>
  <g>
    <path d="M78.31,49.84c-.15-.07-.33-.1-.5-.09-.16.02-.33.09-.48.19-.15.1-.26.24-.34.38-.08.15-.17.31-.17.46,0,.15.06.3.14.44l1.71-1.04c-.09-.15-.22-.27-.36-.34Z"/>
    <path d="M81.33,59.78c0-.35-.34-.27-.36-.61-.02-.34.28-.57.24-.92-.03-.35-.17-.34-.21-.68-.05-.34.26-.4.19-.75-.06-.35-.34-.38-.4-.73-.08-.34-.65-.1-.73-.43-.09-.32.55-.55.45-.89-.1-.34-.3-.36-.41-.69-.12-.33.37-.36.24-.7-.12-.33-.54-.18-.66-.5-.14-.32-.09-.34-.23-.66-.15-.31.14-.47-.02-.79-.16-.32-.61-.13-.78-.44-.17-.3.03-.8.02-.82l-1.71,1.04s.39.25.54.53c.15.28-.07.4.07.68.14.28.39.16.53.46.13.29-.18.42-.05.71.11.29.62-.01.73.29.11.3-.04.47.06.77.1.31-.06.31.03.62.09.31.33.28.41.59.07.32-.34.42-.27.72.06.31.49.22.55.54.06.32-.09.34-.05.66.04.32-.15.34-.12.65.03.31.53.24.56.57.02.33-.39.38-.38.69,0,.32.2.32.2.64,0,.32-.35.39-.36.63l2,.11c.01-.26-.25-.24-.24-.59,0-.35.16-.34.16-.7Z"/>
    <path d="M80.86,61.85c.16-.06.28-.19.37-.33.1-.13.17-.28.18-.45h0s-2-.11-2-.11h0c0,.15.02.31.09.44.08.13.21.25.35.34.14.09.31.15.49.17.18.02.36,0,.51-.07Z"/>
  </g>
  <g>
    <path d="M32.15,38.95c.09.05.2.08.3.08.1,0,.2-.04.3-.09.09-.05.16-.13.22-.22.05-.09.11-.18.12-.28,0-.1-.03-.19-.07-.28l-1.06.55c.05.1.12.18.21.23Z"/>
    <path d="M30.46,32.63c0,.22.21.17.21.39.01.22-.18.36-.16.58.02.22.1.21.13.43.02.22-.16.25-.12.47.04.22.2.25.24.46.05.22.39.07.44.28.05.21-.34.34-.28.55.06.21.18.23.24.44.07.21-.22.22-.15.43.07.21.31.13.39.33.08.2.05.22.13.42.09.2-.09.29,0,.49.09.2.37.11.46.3.09.19-.04.49-.04.51l1.06-.55s-.23-.18-.32-.36c-.09-.19.05-.25-.03-.43-.08-.19-.23-.12-.31-.31-.07-.19.11-.26.04-.45-.07-.19-.37-.02-.44-.21-.06-.2.02-.29-.03-.49-.06-.2.04-.2-.02-.39-.06-.19-.19-.18-.24-.38-.04-.2.2-.26.16-.45-.03-.2-.29-.15-.32-.35-.03-.2.05-.21.03-.41-.02-.2.09-.21.07-.41-.02-.2-.31-.16-.32-.37,0-.21.24-.23.23-.43,0-.2-.11-.2-.1-.4.01-.2.21-.24.23-.38l-1.19-.12c-.02.17.15.16.13.38-.01.22-.1.22-.11.44Z"/>
    <path d="M33.11,26.1c-.14.17.04.27-.1.44-.14.17-.37.15-.5.33-.13.18-.06.23-.19.41-.13.18-.28.09-.4.28-.12.19-.02.31-.12.51-.1.2.25.31.15.5-.1.19-.48.04-.57.24-.09.2,0,.3-.1.5-.09.2-.31.03-.39.24-.07.22.17.3.1.51-.07.21-.1.2-.15.42-.05.22-.24.18-.3.41-.06.22.24.31.21.52-.03.22-.31.39-.32.41l1.19.12s-.09-.27-.06-.47c.03-.2.17-.17.22-.36.04-.19-.12-.23-.07-.42.04-.2.23-.14.3-.32.06-.18-.28-.24-.22-.43.07-.19.19-.21.28-.39.08-.18.16-.13.24-.31.08-.18-.03-.27.06-.45.1-.18.32-.06.41-.24.1-.17-.12-.3-.02-.47.11-.17.17-.13.29-.29.12-.16.21-.1.33-.26.12-.16-.14-.33,0-.49.13-.16.33-.02.46-.17.13-.15.05-.23.19-.38.14-.15.32-.04.42-.15l-.84-.86c-.12.12.01.22-.14.38-.15.16-.22.09-.37.26Z"/>
    <path d="M39.18,22.54c-.22.04-.13.23-.34.29-.21.06-.38-.09-.6-.03-.21.07-.19.15-.39.22-.21.08-.28-.11-.49-.02-.21.09-.2.25-.4.34-.2.09.01.39-.18.49-.19.1-.4-.25-.6-.14-.2.1-.18.24-.37.35-.19.11-.27-.16-.46-.05-.19.13-.04.35-.22.47-.18.13-.2.09-.38.23-.17.14-.3,0-.48.13-.18.14,0,.38-.17.53-.16.15-.49.1-.5.11l.84.86s.1-.26.25-.4c.15-.14.24-.03.4-.15.16-.12.05-.25.21-.38.16-.13.28.04.44-.07.16-.11-.08-.36.09-.48.17-.11.29-.04.47-.14.17-.1.2-.02.37-.11.18-.09.13-.23.32-.32.18-.09.3.14.48.06.18-.08.08-.32.26-.4.19-.08.22.01.41-.06.19-.07.23.04.42-.02.19-.05.09-.34.29-.39.2-.05.28.17.47.13.2-.04.17-.15.37-.19.2-.04.28.15.43.14l-.17-1.19c-.17.02-.12.17-.34.21-.22.04-.23-.05-.45,0Z"/>
    <path d="M40.52,22.56c-.06-.08-.15-.14-.25-.18-.09-.04-.19-.07-.3-.05h0s.17,1.19.17,1.19h0c.1-.01.19-.05.26-.11.07-.06.13-.15.17-.25.04-.09.06-.2.05-.31,0-.11-.05-.21-.1-.29Z"/>
  </g>
  <g>
    <path d="M43.64,38.86c.08.06.18.11.28.12.1.02.2,0,.31-.04.1-.04.19-.1.25-.17.07-.07.14-.16.17-.25.02-.09.01-.19-.02-.28l-1.14.36c.03.1.08.19.16.25Z"/>
    <path d="M42.79,32.71c0,.21.2.18.19.38,0,.21-.2.32-.2.53,0,.21.08.21.09.42,0,.21-.18.22-.17.43.01.21.17.25.18.46.02.21.38.11.4.31.02.2-.38.28-.35.49.03.21.15.24.18.44.03.2-.25.18-.21.38.04.21.29.16.34.36.04.2.01.21.06.41.05.2-.14.26-.09.46.05.2.34.15.4.35.05.2-.13.46-.13.47l1.14-.36s-.2-.2-.25-.39c-.05-.19.09-.23.04-.41-.05-.19-.21-.15-.26-.34-.04-.19.15-.23.11-.42-.04-.19-.36-.06-.4-.26-.04-.19.07-.28.04-.47-.03-.19.07-.18.04-.38-.03-.19-.17-.2-.19-.39-.02-.2.23-.22.22-.42-.01-.19-.27-.17-.29-.37-.01-.2.07-.2.07-.39,0-.2.11-.2.11-.39,0-.19-.3-.18-.3-.38,0-.2.25-.21.26-.4.01-.19-.1-.2-.08-.4.02-.2.22-.22.24-.36l-1.19-.14c-.01.16.14.15.12.36-.02.21-.11.2-.13.41Z"/>
    <path d="M44.87,26.34c-.11.18.09.24-.01.42-.11.18-.33.19-.42.38-.1.19-.02.22-.12.41-.1.18-.26.11-.35.3-.09.19.04.3-.05.49-.08.19.28.27.2.46-.07.19-.45.07-.53.27-.07.2.01.28-.05.48-.06.2-.3.05-.36.25-.06.21.19.28.13.48-.05.2-.08.2-.12.4-.04.2-.24.18-.28.38-.04.21.25.29.22.49-.03.2-.32.36-.32.38l1.19.14s-.09-.26-.06-.46c.03-.19.17-.17.21-.35.04-.19-.12-.22-.08-.41.04-.19.23-.14.28-.33.05-.18-.3-.22-.24-.41.05-.19.19-.21.24-.4.07-.18.15-.13.21-.31.07-.18-.06-.25,0-.44.07-.18.32-.09.39-.26.08-.18-.16-.28-.08-.46.08-.18.16-.14.25-.31.09-.17.19-.12.28-.29.09-.17-.19-.3-.09-.48.1-.17.32-.06.42-.23.1-.17,0-.23.1-.4.11-.16.31-.09.39-.21l-.99-.67c-.09.13.05.2-.06.37-.12.17-.19.13-.3.3Z"/>
    <path d="M49.45,21.48c-.17.12-.02.26-.19.38-.17.12-.38.05-.54.17-.16.13-.12.19-.28.32-.16.13-.28,0-.44.13-.16.14-.09.29-.24.43-.15.14.14.36,0,.5-.14.14-.45-.12-.59.03-.15.15-.1.26-.24.41-.14.15-.3-.09-.44.07-.14.16.06.33-.08.49-.13.16-.16.14-.29.3-.13.16-.29.05-.41.22-.13.17.09.36-.04.53-.12.17-.44.18-.44.2l.99.67s.04-.28.15-.44c.12-.16.24-.07.35-.22.12-.15-.02-.26.11-.41.13-.15.28-.02.4-.17.12-.15-.18-.33-.05-.48.13-.15.26-.11.4-.25.13-.14.18-.07.32-.2.14-.14.05-.26.19-.39.14-.14.32.05.46-.08.14-.13-.04-.33.11-.45.15-.13.21-.06.36-.19.15-.13.22-.03.38-.15.15-.12-.05-.35.11-.47.16-.12.32.07.48-.04.16-.11.1-.2.26-.31.17-.1.31.04.44-.03l-.62-1.03c-.13.08-.03.21-.21.32-.18.11-.22.04-.4.15Z"/>
    <path d="M50.63,21.02c-.09-.06-.19-.07-.29-.07-.1,0-.2.01-.28.06h0s.62,1.03.62,1.03h0c.08-.05.15-.11.19-.19.04-.08.06-.19.05-.29,0-.1-.03-.2-.08-.3-.05-.1-.12-.18-.21-.23Z"/>
  </g>
  <g>
    <path d="M53.24,35.62c-.02.1,0,.21.03.31.03.09.1.18.19.25.08.07.18.11.28.12.1.02.22.03.32,0,.1-.04.18-.11.25-.2l-.93-.75c-.07.08-.11.18-.13.28Z"/>
    <path d="M56.75,30.11c-.1.2.11.24,0,.44-.1.2-.32.23-.42.42-.1.19-.03.23-.13.43-.11.19-.27.11-.38.3-.11.19,0,.31-.11.5-.11.19.24.32.12.51-.11.19-.47,0-.59.19-.12.18-.05.29-.17.47-.12.18-.31-.04-.43.14-.12.18.09.33-.04.51-.13.18-.15.16-.28.34-.13.18-.29.07-.42.24-.13.17.08.37-.06.55-.14.17-.47.17-.47.18l.93.75s.09-.31.23-.49c.14-.18.26-.09.39-.27.14-.18,0-.28.14-.47.13-.18.29-.06.42-.25.13-.19-.19-.33-.06-.51.12-.19.26-.18.39-.37.12-.19.18-.12.31-.31.12-.19.01-.29.13-.48.12-.19.34-.07.46-.26.12-.2-.12-.32,0-.52.11-.2.19-.15.3-.35.11-.2.21-.15.31-.35.11-.2-.17-.32-.07-.52.1-.2.33-.11.43-.32.1-.2,0-.25.09-.46.09-.2.3-.17.37-.33l-1.1-.49c-.07.15.08.19,0,.39-.09.2-.17.16-.27.36Z"/>
    <path d="M58.94,23.45c-.04.21.17.21.12.42-.05.22-.25.3-.3.52-.05.21.03.23-.02.45-.05.21-.23.17-.29.38-.06.21.08.3.02.51-.06.21.31.25.25.46-.07.21-.46.13-.52.33-.07.21.03.29-.04.5-.07.21-.31.04-.38.25-.07.2.17.3.1.5-.08.2-.11.19-.19.4-.08.2-.26.14-.34.35-.08.2.17.34.08.54-.08.2-.4.29-.41.3l1.1.49s0-.32.09-.53c.09-.21.23-.15.31-.36.08-.21-.07-.27,0-.49.08-.21.27-.14.35-.35.08-.21-.27-.27-.2-.48.07-.21.21-.24.28-.45.07-.21.15-.16.21-.38.07-.22-.06-.28,0-.5.06-.22.31-.15.37-.37.06-.22-.19-.28-.13-.5.06-.22.14-.2.19-.42.05-.22.16-.19.22-.41.05-.22-.25-.27-.21-.49.05-.22.29-.19.34-.42.04-.22-.07-.24-.03-.47.04-.22.25-.24.28-.41l-1.18-.19c-.03.16.13.17.09.38-.04.22-.13.2-.17.41Z"/>
    <path d="M59.35,16.44c.02.22.21.16.23.38.01.22-.17.36-.16.58,0,.22.09.22.09.44,0,.22-.18.23-.18.45,0,.22.15.27.15.49,0,.22.37.16.36.38,0,.22-.41.24-.42.46-.01.22.1.28.08.5-.01.22-.28.12-.3.34-.02.22.24.24.22.46-.02.22-.05.22-.08.43-.03.22-.22.21-.25.42-.03.22.25.28.22.5-.03.22-.31.38-.32.39l1.18.19s-.08-.31-.05-.53c.03-.22.18-.2.21-.43.03-.23-.14-.25-.11-.47.03-.22.22-.2.24-.43.02-.23-.33-.19-.31-.41.02-.22.14-.29.15-.51.01-.22.1-.19.12-.42,0-.23-.14-.26-.13-.48,0-.23.26-.23.26-.45,0-.23-.26-.22-.26-.45,0-.23.08-.23.08-.45,0-.23.11-.23.1-.46,0-.23-.31-.19-.32-.42-.01-.22.23-.26.22-.49-.02-.23-.13-.22-.15-.44-.02-.22.18-.3.16-.47l-1.19.12c.02.16.17.13.19.35.02.22-.08.22-.06.44Z"/>
    <path d="M59.46,15.11c-.08.06-.14.15-.18.25-.04.09-.07.19-.06.29h0s1.19-.12,1.19-.12h0c0-.11-.04-.22-.1-.3-.06-.08-.15-.15-.25-.19-.09-.04-.2-.06-.31-.04-.11.01-.21.05-.29.11Z"/>
  </g>
  <g>
    <path d="M61.12,40.23c-.02.1-.01.21.02.31.03.1.09.18.17.26.08.08.17.12.27.14.1.02.21.05.31.02.1-.03.19-.1.26-.18l-.89-.8c-.07.08-.12.17-.14.26Z"/>
    <path d="M64.3,34.87c-.07.2.14.22.07.42-.07.2-.3.25-.37.44-.08.19,0,.22-.09.42-.08.19-.26.12-.35.31-.09.19.02.3-.07.49-.1.19.26.3.15.49-.1.19-.47.02-.57.2-.1.18-.04.28-.15.46-.11.18-.31-.04-.42.14-.11.17.1.32-.02.5-.12.17-.15.15-.28.32-.13.17-.29.06-.42.22-.13.16.08.37-.06.53-.14.16-.46.14-.47.15l.89.8s.1-.3.24-.47c.14-.17.26-.08.4-.25.14-.18,0-.28.14-.46.13-.18.29-.06.42-.24.13-.19-.19-.32-.07-.51.12-.18.26-.18.38-.37.12-.19.18-.12.3-.31.11-.19,0-.29.11-.48.11-.19.34-.08.44-.28.1-.2-.13-.31-.04-.51.09-.2.18-.16.26-.37.09-.21.19-.16.28-.37.08-.21-.21-.3-.13-.51.08-.21.31-.15.39-.36.07-.21-.04-.25.02-.46.07-.21.27-.21.32-.37l-1.16-.32c-.04.15.12.17.06.38-.06.2-.15.17-.21.37Z"/>
    <path d="M64.93,28.2c.03.21.22.14.25.35.02.21-.16.35-.14.56.02.21.09.2.1.42,0,.21-.17.22-.17.43,0,.21.15.26.15.47,0,.21.36.16.35.37-.01.22-.41.22-.43.43-.02.21.09.27.07.48-.03.21-.29.1-.32.31-.02.21.23.25.2.46-.03.21-.06.2-.1.41-.04.21-.23.18-.27.39-.05.2.23.3.18.5-.05.21-.35.33-.35.34l1.16.32s-.04-.31,0-.53c.05-.22.19-.18.24-.4.05-.22-.12-.25-.08-.47.04-.22.23-.18.27-.41.03-.22-.31-.2-.29-.42.03-.22.16-.27.18-.5.02-.22.11-.19.13-.41.02-.22-.13-.26-.12-.48,0-.22.27-.22.27-.45,0-.23-.26-.22-.26-.44,0-.22.08-.22.07-.45,0-.22.11-.23.09-.45-.02-.23-.32-.18-.34-.4-.02-.22.21-.27.19-.49-.03-.22-.14-.21-.18-.43-.04-.22.15-.31.12-.48l-1.18.23c.03.15.18.1.22.31.04.21-.06.22-.03.43Z"/>
    <path d="M62.83,21.72c.09.19.26.06.35.26.09.2-.03.39.06.58.08.2.16.16.24.36.08.2-.09.27,0,.47.08.2.24.19.32.39.07.2.4.01.47.21.07.2-.29.37-.23.57.07.2.19.22.26.42.07.21-.22.22-.16.42.06.2.32.13.38.33.06.2.03.21.09.42.06.2-.13.27-.08.47.05.2.34.16.39.37.05.21-.17.45-.17.46l1.18-.23s-.18-.26-.23-.48c-.05-.22.09-.25.04-.47-.06-.22-.22-.18-.28-.39-.06-.21.13-.27.07-.48-.07-.21-.37-.05-.44-.25-.07-.21.03-.31-.04-.52-.07-.21.03-.21-.04-.42-.07-.21-.22-.19-.29-.39-.08-.21.16-.3.08-.51-.08-.21-.32-.11-.4-.31-.08-.2,0-.24-.09-.44-.09-.2.02-.25-.07-.45-.09-.2-.36-.06-.45-.26-.09-.2.12-.32.03-.52-.1-.2-.2-.15-.3-.35-.1-.2.06-.34-.02-.49l-1.07.55c.07.14.2.05.3.24.09.19.01.23.1.42Z"/>
    <path d="M62.46,20.47c-.06.09-.07.19-.08.29,0,.1,0,.2.05.29h0s1.07-.55,1.07-.55h0c-.05-.1-.12-.18-.2-.23-.09-.05-.2-.08-.3-.08-.1,0-.21.02-.3.07-.09.05-.18.13-.23.21Z"/>
  </g>
  <g>
    <path d="M66.22,44.19c-.05.09-.07.2-.07.3,0,.1.03.2.08.3.05.09.13.17.22.21.09.05.2.1.31.1.11,0,.22-.06.32-.12l-.65-1.01c-.09.05-.16.13-.21.22Z"/>
    <path d="M70.17,39.3c-.06.21.14.23.06.43-.09.2-.29.26-.39.45-.09.19-.02.23-.12.42-.1.19-.27.11-.37.29-.1.18,0,.31-.12.49-.12.18.22.33.09.52-.14.18-.48-.04-.6.13-.13.17-.09.28-.23.44-.14.17-.3-.08-.44.07-.15.15.04.34-.12.49-.16.15-.18.13-.34.27-.17.14-.3,0-.46.13-.17.13-.02.38-.2.51-.18.13-.49.02-.5.03l.65,1.01s.19-.27.38-.41c.19-.14.28-.02.47-.17.19-.15.08-.28.26-.43.18-.15.31,0,.48-.17.18-.17-.12-.36.04-.53.16-.17.3-.14.46-.32.15-.18.21-.1.36-.28.15-.19.05-.3.19-.49.13-.19.35-.05.48-.26.14-.2-.1-.34.02-.54.12-.21.2-.16.31-.37.1-.21.21-.16.31-.38.11-.22-.19-.32-.11-.54.08-.22.33-.15.4-.38.07-.23-.04-.26.03-.49.07-.22.27-.23.31-.41l-1.17-.27c-.04.15.13.17.07.38-.06.21-.15.18-.22.38Z"/>
    <path d="M69.69,32.57c.09.2.26.07.35.27.08.21-.04.39.03.59.07.2.15.18.22.39.06.21-.11.27-.06.47.05.21.21.22.26.43.05.21.39.08.43.3.03.22-.35.31-.33.52.02.21.14.26.16.47.01.22-.27.15-.27.36,0,.21.27.21.26.43-.01.22-.04.22-.06.43,0,.22-.22.21-.24.42-.03.21.26.28.22.5-.05.22-.34.36-.35.37l1.17.27s-.05-.33,0-.56c.03-.24.18-.21.21-.45.03-.24-.13-.26-.12-.5.01-.24.21-.22.23-.47,0-.24-.34-.17-.35-.41,0-.23.12-.31.1-.55-.02-.24.07-.22.05-.45-.03-.24-.18-.24-.22-.48-.04-.23.21-.29.16-.52-.06-.24-.3-.17-.36-.4-.07-.23.02-.25-.05-.48-.07-.22.03-.26-.05-.49-.08-.23-.36-.09-.45-.31-.09-.22.12-.33.03-.55-.1-.22-.21-.16-.31-.37-.11-.21.04-.36-.05-.52l-1.04.6c.08.14.2.04.31.23.1.2.02.23.11.43Z"/>
    <path d="M69.25,31.33c-.05.09-.05.2-.05.3,0,.1.02.2.07.28h0s1.04-.6,1.04-.6h0c-.06-.1-.14-.19-.23-.24-.1-.05-.21-.08-.32-.07-.1,0-.21.04-.3.1-.09.06-.16.15-.21.24Z"/>
  </g>
  <g>
    <path d="M74.78,53.98s-.06.11-.07.19c-.02.07-.02.16-.02.25s.01.17.03.25c.02.07.04.16.07.2.03.04.07.06.1.06v-1s-.07.02-.1.06Z"/>
    <path d="M76.96,53.97c-.07,0-.06.17-.13.17s-.12-.15-.19-.15-.07.07-.15.07-.07-.15-.15-.15-.09.13-.16.13-.05.31-.12.31-.08-.33-.16-.33-.09.09-.16.09-.05-.23-.12-.23-.07.22-.15.22-.07-.03-.15-.03-.08-.16-.15-.16-.08.24-.16.24-.14-.21-.15-.21v1s.09-.1.17-.1.07.12.15.12.07-.14.15-.14.07.17.14.17.05-.29.12-.29.1.1.17.1.06.08.14.08.08-.12.15-.12.07.21.15.21.07-.22.14-.22.07.07.15.07.07.09.15.09.07-.25.14-.25.08.2.15.2.07-.1.15-.1.09.17.15.17v-1c-.05,0-.05.13-.12.13s-.07-.08-.15-.08Z"/>
    <path d="M77.4,54.16c-.02-.07-.05-.13-.07-.17-.03-.04-.06-.07-.1-.07h0v1h0s.07-.02.1-.06c.03-.04.05-.11.07-.19.02-.07.03-.16.03-.25s0-.18-.03-.25Z"/>
  </g>
  <g>
    <path d="M76.05,57.27s-.03.12-.03.2c0,.07.01.16.03.25.02.09.05.17.09.23.04.07.07.14.11.18.04.03.08.04.12.03l-.23-.97s-.07.04-.09.09Z"/>
    <path d="M78.31,56.72c-.08.02-.02.18-.1.2-.08.02-.16-.12-.23-.1-.08.02-.06.08-.14.1-.08.02-.11-.13-.19-.11-.08.02-.06.15-.14.17-.08.02.02.31-.06.33-.08.02-.16-.3-.24-.29-.08.02-.07.11-.15.13-.08.02-.1-.21-.18-.2-.08.02-.03.23-.1.25-.08.02-.08,0-.16,0-.08.02-.12-.14-.19-.12-.08.02-.03.25-.11.27-.08.02-.19-.17-.2-.17l.23.97s.07-.12.15-.14c.08-.02.1.1.18.09.08-.02.04-.15.12-.17.08-.02.11.14.19.13.07-.02-.01-.29.06-.31.07-.02.12.07.2.06.07-.02.08.06.16.04.08-.02.06-.14.13-.16.08-.02.13.19.2.17.08-.02.02-.23.1-.25.08-.02.09.05.17.03.08-.02.1.07.17.06.08-.02,0-.26.08-.28.08-.02.13.18.2.16.08-.02.05-.11.13-.13.08-.02.13.14.19.13l-.23-.97c-.06.01-.02.14-.09.16-.08.02-.09-.06-.17-.04Z"/>
    <path d="M78.8,56.8c-.03-.07-.08-.11-.12-.15-.04-.03-.08-.06-.12-.05,0,0,0,0,0,0l.23.97s0,0,0,0c.04,0,.07-.03.09-.08.02-.05.03-.12.03-.2,0-.07-.01-.16-.03-.25-.02-.09-.05-.17-.08-.24Z"/>
  </g>
  <g>
    <path d="M76,61.09c-.02.05-.02.12-.01.2,0,.07.03.16.06.24.03.08.07.16.11.22.04.06.09.13.14.16.04.03.09.03.12.01l-.35-.94s-.07.05-.08.1Z"/>
    <path d="M78.25,60.25c-.08.03,0,.18-.08.21-.08.03-.17-.1-.25-.07-.08.03-.05.09-.13.12-.08.03-.13-.12-.21-.09-.08.03-.05.16-.12.18-.08.03.05.31-.02.33-.08.03-.2-.28-.28-.25-.08.03-.06.12-.14.15-.08.03-.13-.2-.2-.17-.08.03,0,.23-.08.26-.08.03-.08,0-.16.03-.08.03-.14-.12-.21-.1-.08.03,0,.26-.08.29-.08.03-.22-.15-.22-.15l.35.94s.06-.13.14-.16c.08-.03.12.09.19.06.08-.03.03-.16.1-.19.08-.03.13.13.21.1.07-.03-.05-.29.03-.32.07-.03.13.06.21.03.07-.03.09.05.17.02.08-.03.04-.14.12-.17.08-.03.15.17.23.14.08-.03,0-.23.07-.26.08-.03.1.04.18.01.08-.03.11.06.18.03.08-.03-.02-.26.05-.29.08-.03.15.16.23.13.08-.03.04-.12.12-.15.08-.03.15.12.21.1l-.35-.94c-.06.02,0,.14-.08.17-.08.03-.1-.04-.18-.02Z"/>
    <path d="M78.77,60.26c-.04-.06-.09-.1-.14-.13-.04-.03-.09-.05-.12-.03h0s.35.94.35.94c0,0,0,0,0,0,.04-.01.07-.04.08-.09.01-.05.02-.13,0-.2,0-.07-.03-.16-.06-.25-.03-.08-.07-.16-.11-.23Z"/>
  </g>
</svg>