<svg xmlns="http://www.w3.org/2000/svg" id="_レイヤー_1" viewBox="0 0 100 100"><defs><pattern id="_6_dpi_40_" width="48" height="48" x="0" y="0" data-name="6 dpi 40%" patternTransform="rotate(26.16 5067.912 -16577.88)scale(.38)" patternUnits="userSpaceOnUse" viewBox="0 0 48 48"><path d="M0 0h48v48H0z" style="fill:none"/><path d="M24 52.8a4.801 4.801 0 0 0 0-9.6 4.801 4.801 0 0 0 0 9.6M48 52.8a4.801 4.801 0 0 0 0-9.6 4.801 4.801 0 0 0 0 9.6M24 28.8a4.801 4.801 0 0 0 0-9.6 4.801 4.801 0 0 0 0 9.6M48 28.8a4.801 4.801 0 0 0 0-9.6 4.801 4.801 0 0 0 0 9.6M36 40.8a4.801 4.801 0 0 0 0-9.6 4.801 4.801 0 0 0 0 9.6M12 40.8a4.801 4.801 0 0 0 0-9.6 4.801 4.801 0 0 0 0 9.6M36 16.8a4.801 4.801 0 0 0 0-9.6 4.801 4.801 0 0 0 0 9.6M12 16.8a4.801 4.801 0 0 0 0-9.6 4.801 4.801 0 0 0 0 9.6M0 52.8a4.801 4.801 0 0 0 0-9.6 4.801 4.801 0 0 0 0 9.6M0 28.8a4.801 4.801 0 0 0 0-9.6 4.801 4.801 0 0 0 0 9.6M24 4.8a4.801 4.801 0 0 0 0-9.6 4.801 4.801 0 0 0 0 9.6M48 4.8a4.801 4.801 0 0 0 0-9.6 4.801 4.801 0 0 0 0 9.6M0 4.8a4.801 4.801 0 0 0 0-9.6 4.801 4.801 0 0 0 0 9.6" class="st5"/></pattern><style>.st1,.st2{fill:none}.st1{stroke-miterlimit:10;stroke-width:.75px}.st1,.st2{stroke:#1c1917}.st3{fill:#ceb372}.st4{fill:#1c1917}.st5{fill:#231815}.st2{stroke-linecap:round;stroke-linejoin:round}</style></defs><path d="M21.38 39.06c-7.43-.05-13.51 5.91-13.62 13.34L7.4 78.08c-.12 8.52 6.87 15.44 15.39 15.22l53.39-1.36c6.4-.16 11.5-5.43 11.45-11.83l-.22-29.8c-.04-6.01-4.9-10.86-10.91-10.9l-47.24-.3" style="fill:url(#_6_dpi_40_)"/><path d="m16.66 44.37-.36 25.68c-.12 8.52 6.87 15.44 15.39 15.22l53.39-1.36c6.4-.16 11.5-5.43 11.45-11.83l-.22-29.8c-.04-6.01-4.9-10.86-10.91-10.9l-55.13-.35c-7.43-.05-13.51 5.91-13.62 13.34Z" style="fill:#fff"/><rect width="8.27" height="6.95" x="69" y="42.8" class="st3" rx="3.12" ry="3.12" transform="rotate(-89.64 73.13 46.272)"/><rect width="8.27" height="11.05" x="79.93" y="40.81" class="st3" rx="3.71" ry="3.71" transform="rotate(-89.64 84.055 46.338)"/><rect width="8.27" height="6.95" x="60.13" y="42.74" class="st3" rx="3.12" ry="3.12" transform="rotate(-89.64 64.267 46.214)"/><rect width="8.27" height="27.43" x="53" y="58.54" class="st3" rx="3.71" ry="3.71" transform="rotate(-89.64 57.126 72.249)"/><rect width="8.27" height="6.95" x="24.49" y="68.59" class="st3" rx="3.12" ry="3.12" transform="rotate(-89.64 28.616 72.068)"/><rect width="8.27" height="6.95" x="72.83" y="68.9" class="st3" rx="3.12" ry="3.12" transform="rotate(-89.64 76.96 72.377)"/><rect width="8.27" height="6.95" x="68.94" y="53.2" class="st3" rx="3.12" ry="3.12" transform="rotate(-89.64 73.063 56.675)"/><path d="m35.19 31.06-2.79-.01" class="st2"/><path d="M17.16 44.38c.08 6.49.11 13.69.08 20.22.02 1.9-.08 4.83.02 6.66.25 4.23 2.64 8.19 6.1 10.57 2.61 1.86 5.81 2.63 8.99 2.47l3.37-.08c8.96-.21 31.77-.75 40.42-.96 2.2-.09 7.91-.12 10.02-.29 5.27-.6 9.57-5.38 9.54-10.7-.04-6.71-.09-20.23-.14-26.94.41-5.73-1.3-10.72-7.14-12.73-1.98-.75-7.68-.45-9.84-.55-8.55-.1-31.58-.37-40.43-.47-.62.01-.67-1 0-1 8.95.01 31.78.03 40.43.04 2.41.1 7.99-.3 10.28.55 6.41 2.14 8.71 7.78 8.24 14.15.05 6.72.19 20.25.24 26.97.05 6.13-4.9 11.68-10.98 12.38-2.33.19-7.8.25-10.19.34-8.56.24-31.57.86-40.42 1.1-2.01-.02-4.87.3-6.9-.08-7.19-.95-13.11-7.42-13.44-14.65-.18-2.06.1-4.77.08-6.81.21-6.53.34-13.72.65-20.21.06-.63.97-.63 1 .01Z" class="st4"/><path d="M30.28 31.03c-5.99-.04-11.1 3.82-12.91 9.21" class="st2"/><rect width="6.95" height="8.27" x="34.18" y="41.91" class="st1" rx="3.12" ry="3.12" transform="rotate(.36 38.342 46.035)"/><rect width="7.55" height="8.27" x="25.31" y="41.86" class="st1" rx="3.39" ry="3.39" transform="rotate(.36 28.793 46.065)"/><rect width="6.95" height="8.27" x="51.92" y="42.02" class="st1" rx="3.12" ry="3.12" transform="rotate(.36 55.849 45.98)"/><rect width="6.95" height="8.27" x="43.05" y="41.97" class="st1" rx="3.12" ry="3.12" transform="rotate(.36 46.3 46.01)"/><rect width="6.95" height="8.27" x="34.12" y="52.31" class="st1" rx="3.12" ry="3.12" transform="rotate(.36 38.377 57.176)"/><rect width="6.95" height="8.27" x="25.24" y="52.26" class="st1" rx="3.12" ry="3.12" transform="rotate(.36 28.828 57.206)"/><rect width="6.95" height="8.27" x="34.02" y="67.99" class="st1" rx="3.12" ry="3.12" transform="rotate(.36 38.427 73.091)"/><rect width="6.95" height="8.27" x="25.14" y="67.94" class="st1" rx="3.12" ry="3.12" transform="rotate(.36 28.878 73.121)"/><rect width="6.95" height="8.27" x="82.36" y="68.3" class="st1" rx="3.12" ry="3.12" transform="rotate(.36 86.173 72.941)"/><rect width="6.95" height="8.27" x="51.86" y="52.43" class="st1" rx="3.12" ry="3.12" transform="rotate(.36 55.884 57.12)"/><rect width="6.95" height="8.27" x="42.99" y="52.37" class="st1" rx="3.12" ry="3.12" transform="rotate(.36 46.335 57.15)"/><rect width="11.05" height="8.27" x="78.47" y="52.61" class="st1" rx="3.71" ry="3.71" transform="rotate(.36 84.532 57.03)"/><rect width="6.95" height="8.27" x="60.73" y="52.48" class="st1" rx="3.12" ry="3.12" transform="rotate(.36 65.433 57.09)"/><path d="M53.66 31c2.77-6.8 10.7-22.37 18.44-23.57 4.28-.46 7.13.6 4.55 5.2-1 2.08-2.5 4.3 1.09 4.3 2.54 0 3.42-2.7 5.7-3.68.86-.38 2.23-.57 2.85.38.21.33.63 1.22.04 1.35a.336.336 0 0 1-.35-.32c-.09-1.22-1.37-1.21-2.26-.77-1.2.58-2.22 1.86-3.27 2.81-1.43 1.28-4.04 1.53-5.48.13-1.98-2.09 4.1-7.46.59-8.28-2.82-.65-5.64.23-7.66 2.27-2.59 2.34-4.66 5.21-6.52 8.17-2.47 3.98-4.64 8.2-6.29 12.54-.33.96-1.8.46-1.43-.52Z" class="st4"/></svg>