<?xml version="1.0" encoding="UTF-8"?>
<svg id="_レイヤー_1" xmlns="http://www.w3.org/2000/svg" version="1.1" viewBox="0 0 100 100">
  <!-- Generator: Adobe Illustrator 30.0.0, SVG Export Plug-In . SVG Version: 2.1.1 Build 123)  -->
  <defs>
    <style>
      .st0 {
        fill: #ceb372;
      }

      .st1 {
        fill: #1c1917;
      }

      .st2 {
        fill: #fff;
      }

      .st3 {
        fill: none;
        stroke: #1c1917;
        stroke-miterlimit: 10;
      }
    </style>
  </defs>
  <path class="st2" d="M9.29,48l-.2,26.19c-.07,8.69,7.11,15.7,15.8,15.42l54.43-1.73c6.53-.21,11.69-5.61,11.6-12.14l-.42-30.38c-.08-6.12-5.07-11.04-11.19-11.04H23.09c-7.58,0-13.74,6.11-13.8,13.69Z"/>
  <rect class="st0" x="63.35" y="45.36" width="7.08" height="8.43" rx="3.54" ry="3.54"/>
  <rect class="st0" x="72.39" y="45.36" width="11.27" height="8.43" rx="4.21" ry="4.21"/>
  <rect class="st0" x="54.3" y="45.36" width="7.08" height="8.43" rx="3.54" ry="3.54"/>
  <rect class="st0" x="36.76" y="71.95" width="27.97" height="8.43" rx="4.21" ry="4.21"/>
  <rect class="st0" x="18.12" y="71.95" width="7.08" height="8.43" rx="3.54" ry="3.54"/>
  <rect class="st0" x="67.42" y="71.95" width="7.08" height="8.43" rx="3.54" ry="3.54"/>
  <rect class="st0" x="63.35" y="55.97" width="7.08" height="8.43" rx="3.54" ry="3.54"/>
  <g>
    <path class="st1" d="M10.1,58.54c0-.37-.34-.29-.33-.66,0-.37.31-.58.32-.95,0-.37-.13-.37-.13-.74,0-.37.31-.38.31-.74,0-.37-.26-.46-.25-.83,0-.37-.61-.26-.61-.63,0-.37.67-.42.67-.78,0-.37-.18-.46-.18-.83,0-.37.47-.23.47-.6,0-.37-.43-.38-.43-.75,0-.37.06-.37.06-.74,0-.37.33-.39.33-.75,0-.37-.48-.42-.48-.79,0-.37.44-.71.44-.73l-2-.02s.2.48.2.85c0,.37-.25.36-.26.73,0,.37.27.37.27.74,0,.37-.34.36-.34.73,0,.37.57.26.57.63,0,.37-.2.48-.21.85,0,.37-.16.32-.16.69,0,.37.24.41.24.78,0,.37-.43.37-.43.74,0,.37.43.36.43.73,0,.37-.15.37-.15.73,0,.37-.19.37-.2.73,0,.37.51.34.5.7,0,.37-.41.4-.41.77,0,.37.19.37.19.74,0,.37-.34.46-.34.73l2,.02c0-.28-.26-.24-.26-.61,0-.37.16-.36.16-.73Z"/>
    <path class="st1" d="M10.01,70.42c0-.37-.34-.29-.33-.66,0-.37.31-.58.32-.95,0-.37-.13-.37-.13-.74,0-.37.31-.38.31-.74,0-.37-.26-.46-.25-.83,0-.37-.61-.26-.61-.63,0-.37.67-.42.67-.78,0-.37-.18-.46-.18-.83,0-.37.47-.23.47-.6,0-.37-.43-.38-.43-.75,0-.37.06-.37.06-.74,0-.37.33-.39.33-.75,0-.37-.48-.42-.48-.79,0-.37.44-.71.44-.73l-2-.02s.2.48.2.85c0,.37-.25.36-.26.73,0,.37.27.37.27.74,0,.37-.34.36-.34.73,0,.37.57.26.57.63,0,.37-.2.48-.21.85,0,.37-.16.32-.16.69,0,.37.24.41.24.78,0,.37-.43.37-.43.74,0,.37.43.36.43.73,0,.37-.15.37-.15.73,0,.37-.19.37-.2.73,0,.37.51.34.5.7,0,.37-.41.4-.41.77,0,.37.19.37.19.74,0,.37-.34.46-.34.73l2,.02c0-.28-.26-.24-.26-.61,0-.37.16-.36.16-.73Z"/>
    <path class="st1" d="M11.91,81.49c-.18-.29-.44-.07-.6-.39-.16-.32.03-.64-.12-.95-.16-.31-.25-.27-.38-.6-.12-.33.16-.44.05-.76-.13-.32-.37-.33-.46-.67-.09-.34-.65-.08-.74-.44-.1-.35.55-.54.51-.88-.05-.34-.25-.4-.3-.75-.05-.35.42-.27.4-.61-.01-.34-.45-.32-.47-.68-.01-.36.03-.35.03-.71,0-.37.33-.39.33-.75,0-.37-.48-.42-.48-.79,0-.37.44-.71.44-.73l-2-.02s.2.48.2.85c0,.37-.25.36-.26.73,0,.37.27.37.27.74,0,.37-.32.38-.31.77.02.39.59.25.6.63,0,.38-.17.52-.11.9.06.38-.1.36-.04.74.05.39.3.38.4.75.09.37-.32.48-.22.87.1.38.5.25.64.61.13.36,0,.41.13.77.14.36-.06.44.12.79.17.35.61.1.78.44.17.34-.19.57,0,.91.2.33.37.23.57.56.21.32-.04.6.14.84l1.64-1.15c-.16-.2-.34-.04-.53-.34-.19-.3-.05-.38-.23-.67Z"/>
    <path class="st1" d="M20.51,88.19c-.33-.1-.36.24-.69.13-.34-.12-.43-.47-.76-.58-.32-.15-.37-.02-.69-.17-.32-.15-.19-.43-.51-.57-.3-.17-.49.01-.8-.16-.3-.18-.53.4-.84.22-.31-.2.03-.79-.25-.99-.28-.2-.46-.11-.75-.31-.26-.24.13-.51-.13-.73-.25-.23-.55.09-.82-.14-.26-.24-.21-.29-.45-.55-.24-.26-.01-.49-.24-.74-.23-.25-.62,0-.84-.28-.22-.29-.07-.79-.08-.81l-1.64,1.15s.47.28.71.59c.24.3.02.48.3.76.27.29.47.1.74.39.27.28.01.52.3.79.29.26.6-.24.88.01.29.25.24.5.54.73.31.23.18.32.5.55.32.22.48.06.8.27.33.19.12.56.46.76.34.2.54-.18.88,0,.35.16.28.29.64.45.35.16.28.34.63.5.37.13.51-.36.87-.24.36.12.27.52.64.65.38.1.43-.1.8,0,.37.09.4.44.69.5l.37-1.97c-.25-.06-.27.21-.61.13-.34-.08-.3-.23-.64-.31Z"/>
    <path class="st1" d="M32.07,88.49c-.37.01-.28.35-.65.36-.37.01-.6-.29-.96-.28-.37.01-.37.15-.73.16-.37.01-.39-.29-.76-.28-.37.01-.45.27-.82.29-.37.01-.24.62-.6.63-.37.01-.44-.65-.81-.64-.37.01-.45.2-.82.21-.37.01-.25-.46-.62-.44-.37.01-.37.45-.72.44-.35,0-.35-.06-.7-.07-.35-.02-.35-.31-.69-.36-.34-.04-.44.43-.79.39-.36-.04-.61-.51-.62-.52l-.37,1.97s.54-.13.92-.08c.38.05.36.3.75.34.39.04.41-.26.8-.25.38,0,.38.34.77.35.4,0,.25-.57.62-.58.37-.01.49.18.86.17.37-.01.33.14.7.13.37-.01.4-.25.77-.27.37-.01.39.41.76.4.37-.01.35-.45.71-.46.37-.01.37.13.74.12.37-.01.37.18.74.17.37-.01.32-.52.68-.53.37-.01.42.39.79.38.37-.01.36-.21.73-.22.37-.01.47.32.75.31l-.06-2c-.28,0-.23.27-.6.28-.37.01-.37-.14-.74-.13Z"/>
    <path class="st1" d="M43.94,88.11c-.37.01-.28.35-.65.36-.37.01-.6-.29-.96-.28-.37.01-.37.15-.73.16-.37.01-.39-.29-.76-.28-.37.01-.45.27-.82.29-.37.01-.24.62-.6.63-.37.01-.44-.65-.81-.64-.37.01-.45.2-.82.21-.37.01-.25-.46-.62-.44-.37.01-.36.45-.73.46-.37.01-.37-.04-.74-.03-.37.01-.4-.31-.77-.3-.37.01-.4.5-.77.51-.37.01-.73-.41-.75-.41l.06,2s.47-.22.84-.23c.37-.01.37.24.74.23.37-.01.36-.29.73-.3.37-.01.37.32.74.31.37-.01.24-.58.61-.59.37-.01.49.18.86.17.37-.01.33.14.7.13.37-.01.4-.25.77-.27.37-.01.39.41.76.4.37-.01.35-.45.71-.46.37-.01.37.13.74.12.37-.01.37.18.74.17.37-.01.32-.52.68-.53.37-.01.42.39.79.38.37-.01.36-.21.73-.22.37-.01.47.32.75.31l-.06-2c-.28,0-.23.27-.6.28-.37.01-.37-.14-.74-.13Z"/>
    <path class="st1" d="M55.82,87.73c-.37.01-.28.35-.65.36-.37.01-.6-.29-.96-.28-.37.01-.37.15-.73.16-.37.01-.39-.29-.76-.28-.37.01-.45.27-.82.29-.37.01-.24.62-.6.63-.37.01-.44-.65-.81-.64-.37.01-.45.2-.82.21-.37.01-.25-.46-.62-.44-.37.01-.36.45-.73.46-.37.01-.37-.04-.74-.03-.37.01-.4-.31-.77-.3-.37.01-.4.5-.77.51-.37.01-.73-.41-.75-.41l.06,2s.47-.22.84-.23c.37-.01.37.24.74.23.37-.01.36-.29.73-.3.37-.01.37.32.74.31.37-.01.24-.58.61-.59.37-.01.49.18.86.17.37-.01.33.14.7.13.37-.01.4-.25.77-.27.37-.01.39.41.76.4.37-.01.35-.45.71-.46.37-.01.37.13.74.12.37-.01.37.18.74.17.37-.01.32-.52.68-.53.37-.01.42.39.79.38.37-.01.36-.21.73-.22.37-.01.47.32.75.31l-.06-2c-.28,0-.23.27-.6.28-.37.01-.37-.14-.74-.13Z"/>
    <path class="st1" d="M67.69,87.35c-.37.01-.28.35-.65.36-.37.01-.6-.29-.96-.28-.37.01-.37.15-.73.16-.37.01-.39-.29-.76-.28-.37.01-.45.27-.82.29-.37.01-.24.62-.6.63-.37.01-.44-.65-.81-.64-.37.01-.45.2-.82.21-.37.01-.25-.46-.62-.44-.37.01-.36.45-.73.46-.37.01-.37-.04-.74-.03-.37.01-.4-.31-.77-.3-.37.01-.4.5-.77.51-.37.01-.73-.41-.75-.41l.06,2s.47-.22.84-.23c.37-.01.37.24.74.23.37-.01.36-.29.73-.3.37-.01.37.32.74.31.37-.01.24-.58.61-.59.37-.01.49.18.86.17.37-.01.33.14.7.13.37-.01.4-.25.77-.27.37-.01.39.41.76.4.37-.01.35-.45.71-.46.37-.01.37.13.74.12.37-.01.37.18.74.17.37-.01.32-.52.68-.53.37-.01.42.39.79.38.37-.01.36-.21.73-.22.37-.01.47.32.75.31l-.06-2c-.28,0-.23.27-.6.28-.37.01-.37-.14-.74-.13Z"/>
    <path class="st1" d="M79.54,86.96c-.34.03-.26.36-.63.37-.37.01-.6-.29-.96-.28-.37.01-.37.15-.73.16-.37.01-.39-.29-.76-.28-.37.01-.45.27-.82.29-.37.01-.24.62-.6.63-.37.01-.44-.65-.81-.64-.37.01-.45.2-.82.21-.37.01-.25-.46-.62-.44-.37.01-.36.45-.73.46-.37.01-.37-.04-.74-.03-.37.01-.4-.31-.77-.3-.37.01-.4.5-.77.51-.37.01-.73-.41-.75-.41l.06,2s.47-.22.84-.23c.37-.01.37.24.74.23.37-.01.36-.29.73-.3.37-.01.37.32.74.31.37-.01.24-.58.61-.59.37-.01.49.18.86.17.37-.01.33.14.7.13.37-.01.4-.25.77-.27.37-.01.39.41.76.4.37-.01.35-.45.71-.46.37-.01.37.13.74.12.37-.01.37.18.74.17.37-.01.32-.52.68-.53.37-.02.41.4.8.37.39-.03.38-.23.76-.26.39-.02.53.28.82.23l-.33-1.97c-.25.04-.17.32-.52.34-.35.03-.36-.13-.7-.1Z"/>
    <path class="st1" d="M88.52,81.44c-.17.29.16.41-.03.71-.21.29-.58.27-.77.55-.21.27-.12.35-.34.61-.23.26-.44.07-.69.3-.24.23-.12.48-.38.72-.26.22.21.62-.08.85-.29.22-.71-.26-1-.08-.29.18-.26.39-.55.58-.3.18-.42-.3-.72-.14-.3.15-.11.56-.43.7-.32.13-.34.08-.67.21-.32.13-.45-.18-.77-.09-.32.09-.24.58-.58.67-.35.06-.74-.3-.76-.3l.33,1.97s.47-.29.85-.37c.38-.11.44.13.83.02.39-.11.3-.37.66-.52.36-.14.48.17.86.02.36-.17,0-.64.35-.82.34-.18.56-.04.88-.26.33-.21.37-.06.7-.27.33-.22.21-.46.52-.69.3-.24.6.1.89-.18.29-.28-.02-.59.26-.85.28-.26.37-.18.63-.47.25-.3.41-.17.65-.48.23-.32-.2-.59.02-.9.23-.31.58-.13.78-.47.2-.34.03-.43.22-.77.16-.35.51-.29.63-.57l-1.83-.8c-.11.23.15.31,0,.63-.15.32-.3.23-.47.53Z"/>
    <path class="st1" d="M89.94,70.31c0,.37.34.28.35.65,0,.37-.3.59-.3.96,0,.37.14.37.14.74,0,.37-.3.38-.3.75,0,.37.27.45.27.82,0,.37.62.25.62.62,0,.37-.66.43-.66.8,0,.36.17.43.16.78-.02.35-.46.2-.49.53-.05.33.39.39.34.74-.04.35-.1.33-.19.67-.08.34-.4.27-.48.6-.11.31.33.51.22.85-.1.34-.65.46-.65.48l1.83.8s.03-.55.14-.92c.13-.37.37-.29.49-.67.09-.39-.17-.46-.08-.84.09-.38.42-.31.47-.71.05-.4-.53-.36-.48-.73.06-.38.23-.49.25-.88.01-.38.17-.35.17-.73,0-.37-.25-.41-.25-.78,0-.37.42-.38.42-.75,0-.37-.44-.35-.45-.72,0-.37.14-.37.13-.74,0-.37.18-.37.18-.74,0-.37-.51-.33-.52-.69,0-.37.4-.41.4-.78,0-.37-.2-.37-.2-.73,0-.37.33-.46.33-.74l-2,.03c0,.28.27.24.27.61,0,.37-.15.37-.14.74Z"/>
    <path class="st1" d="M89.78,58.43c0,.37.34.28.35.65,0,.37-.3.59-.3.96,0,.37.14.37.14.74,0,.37-.3.38-.3.75,0,.37.27.45.27.82,0,.37.62.25.62.62,0,.37-.66.43-.66.8,0,.37.19.46.2.82,0,.37-.46.24-.46.61,0,.37.44.37.45.74,0,.37-.05.37-.04.74,0,.37-.32.39-.32.76,0,.37.49.41.49.78,0,.37-.42.72-.42.74l2-.03s-.21-.47-.22-.84c0-.37.24-.37.24-.74,0-.37-.28-.37-.29-.73,0-.37.33-.37.32-.73,0-.37-.58-.25-.58-.62,0-.37.19-.49.19-.85,0-.37.15-.33.14-.69,0-.37-.25-.41-.25-.78,0-.37.42-.38.42-.75,0-.37-.44-.35-.45-.72,0-.37.14-.37.13-.74,0-.37.18-.37.18-.74,0-.37-.51-.33-.52-.69,0-.37.4-.41.4-.78,0-.37-.2-.37-.2-.73,0-.37.33-.46.33-.74l-2,.03c0,.28.27.24.27.61,0,.37-.15.37-.14.74Z"/>
    <path class="st1" d="M89.62,46.55c0,.37.34.28.35.65,0,.37-.3.59-.3.96,0,.37.14.37.14.74,0,.37-.3.38-.3.75,0,.37.27.45.27.82,0,.37.62.25.62.62,0,.37-.66.43-.66.8,0,.37.19.46.2.82,0,.37-.46.24-.46.61,0,.37.44.37.45.74,0,.37-.05.37-.04.74,0,.37-.32.39-.32.76,0,.37.49.41.49.78,0,.37-.42.72-.42.74l2-.03s-.21-.47-.22-.84c0-.37.24-.37.24-.74,0-.37-.28-.37-.29-.73,0-.37.33-.37.32-.73,0-.37-.58-.25-.58-.62,0-.37.19-.49.19-.85,0-.37.15-.33.14-.69,0-.37-.25-.41-.25-.78,0-.37.42-.38.42-.75,0-.37-.44-.35-.45-.72,0-.37.14-.37.13-.74,0-.37.18-.37.18-.74,0-.37-.51-.33-.52-.69,0-.37.4-.41.4-.78,0-.37-.2-.37-.2-.73,0-.37.34-.45.32-.75l-2,.06c.02.25.27.23.28.59,0,.37-.15.37-.14.74Z"/>
    <path class="st1" d="M85.13,37.02c.27.2.41-.12.7.09.29.2.22.6.48.82.26.22.35.13.58.39.23.26.01.46.23.71.2.27.46.17.66.45.21.27.64-.15.84.16.19.32-.34.68-.19.98.15.3.35.3.51.61.14.32-.34.39-.22.7.11.31.55.17.64.5.09.34.04.35.13.68.09.33-.25.42-.19.75.05.33.56.31.58.66.02.36-.39.69-.38.71l2-.06s-.24-.51-.26-.9c-.04-.39.19-.42.13-.82-.07-.4-.32-.35-.43-.73-.1-.38.22-.46.11-.85-.12-.39-.64-.09-.77-.45-.14-.35.02-.56-.16-.91-.17-.35-.02-.38-.19-.73-.19-.35-.43-.26-.63-.59-.2-.33.15-.58-.1-.9-.24-.32-.58-.05-.82-.35-.26-.29-.15-.38-.42-.67-.26-.29-.13-.42-.43-.69-.3-.27-.6.14-.89-.11-.31-.23-.09-.57-.41-.81-.32-.24-.43-.06-.76-.27-.33-.19-.24-.55-.52-.69l-.93,1.77c.23.11.32-.12.62.05.29.18.22.29.49.49Z"/>
    <path class="st1" d="M74.15,35.21c.37,0,.29-.34.66-.34s.59.31.95.31.37-.13.74-.13.38.31.75.31.46-.26.83-.26.25-.61.62-.61c.36,0,.44.66.77.68.34.02.43-.16.78-.15.35.03.17.49.5.53.33.05.41-.39.75-.32.34.09.32.14.66.22.34.08.25.42.56.53.31.12.54-.34.86-.18.32.15.41.67.43.68l.93-1.77s-.56-.04-.91-.21c-.36-.15-.27-.37-.65-.51-.38-.13-.46.11-.84.02-.38-.1-.29-.42-.69-.52-.4-.08-.38.52-.76.46-.38-.05-.48-.29-.87-.3-.39-.02-.34-.17-.73-.19-.39-.02-.42.24-.79.23-.37,0-.38-.43-.74-.43s-.36.44-.73.44-.37-.14-.74-.14-.37-.19-.74-.19-.33.51-.7.51-.4-.41-.77-.41-.37.19-.74.19-.46-.34-.74-.34v2c.28,0,.24-.26.61-.26s.37.15.74.15Z"/>
    <path class="st1" d="M62.27,35.21c.37,0,.29-.34.66-.34s.59.31.95.31.37-.13.74-.13.38.31.75.31.46-.26.83-.26.25-.61.62-.61.42.67.79.67.46-.19.83-.19.24.46.61.46.38-.44.74-.44.37.05.74.05.39.33.76.33.42-.48.79-.48.71.43.73.43v-2s-.48.21-.84.21-.37-.25-.73-.25-.37.28-.74.28-.36-.33-.73-.33-.26.57-.62.57-.48-.2-.85-.2-.32-.15-.69-.15-.41.24-.78.24-.38-.43-.74-.43-.36.44-.73.44-.37-.14-.74-.14-.37-.19-.74-.19-.33.51-.7.51-.4-.41-.77-.41-.37.19-.74.19-.46-.34-.74-.34v2c.28,0,.24-.26.61-.26s.37.15.74.15Z"/>
    <path class="st1" d="M50.4,35.21c.37,0,.29-.34.66-.34s.59.31.95.31.37-.13.74-.13.38.31.75.31.46-.26.83-.26.25-.61.62-.61.42.67.79.67.46-.19.83-.19.24.46.61.46.38-.44.74-.44.37.05.74.05.39.33.76.33.42-.48.79-.48.71.43.73.43v-2s-.48.21-.84.21-.37-.25-.73-.25-.37.28-.74.28-.36-.33-.73-.33-.26.57-.62.57-.48-.2-.85-.2-.32-.15-.69-.15-.41.24-.78.24-.38-.43-.74-.43-.36.44-.73.44-.37-.14-.74-.14-.37-.19-.74-.19-.33.51-.7.51-.4-.41-.77-.41-.37.19-.74.19-.46-.34-.74-.34v2c.28,0,.24-.26.61-.26s.37.15.74.15Z"/>
    <path class="st1" d="M38.52,35.21c.37,0,.29-.34.66-.34s.59.31.95.31.37-.13.74-.13.38.31.75.31.46-.26.83-.26.25-.61.62-.61.42.67.79.67.46-.19.83-.19.24.46.61.46.38-.44.74-.44.37.05.74.05.39.33.76.33.42-.48.79-.48.71.43.73.43v-2s-.48.21-.84.21-.37-.25-.73-.25-.37.28-.74.28-.36-.33-.73-.33-.26.57-.62.57-.48-.2-.85-.2-.32-.15-.69-.15-.41.24-.78.24-.38-.43-.74-.43-.36.44-.73.44-.37-.14-.74-.14-.37-.19-.74-.19-.33.51-.7.51-.4-.41-.77-.41-.37.19-.74.19-.46-.34-.74-.34v2c.28,0,.24-.26.61-.26s.37.15.74.15Z"/>
    <path class="st1" d="M26.64,35.21c.37,0,.29-.34.66-.34s.59.31.95.31.37-.13.74-.13.38.31.75.31.46-.26.83-.26.25-.61.62-.61.42.67.79.67.46-.19.83-.19.24.46.61.46.38-.44.74-.44.37.05.74.05.39.33.76.33.42-.48.79-.48.71.43.73.43v-2s-.48.21-.84.21-.37-.25-.73-.25-.37.28-.74.28-.36-.33-.73-.33-.26.57-.62.57-.48-.2-.85-.2-.32-.15-.69-.15-.41.24-.78.24-.38-.43-.74-.43-.36.44-.73.44-.37-.14-.74-.14-.37-.19-.74-.19-.33.51-.7.51-.4-.41-.77-.41-.37.19-.74.19-.46-.34-.74-.34v2c.28,0,.24-.26.61-.26s.37.15.74.15Z"/>
    <path class="st1" d="M15.76,37.49c.28-.21.04-.43.34-.62.31-.18.63-.03.93-.19.31-.15.25-.27.57-.42.32-.15.44.11.76,0,.32-.12.31-.39.64-.51.33-.12.04-.66.4-.76.36-.09.57.54.9.46.33-.09.39-.26.73-.32.35-.05.29.43.62.37.33-.05.31-.46.66-.48.35-.02.35.04.7.02.36,0,.39.32.75.32.37,0,.42-.48.79-.48s.71.43.73.43v-2s-.48.21-.84.21-.37-.25-.73-.25c-.37,0-.36.27-.74.28-.39.02-.39-.31-.79-.29-.4.02-.23.58-.61.61-.38.06-.52-.12-.91-.06-.38.07-.37-.12-.75-.02-.38.1-.37.34-.74.44-.37.09-.51-.31-.88-.17-.37.14-.21.54-.57.67-.36.13-.41.02-.76.18-.35.17-.43,0-.79.17-.35.19-.06.62-.38.82-.32.2-.58-.13-.91.08-.31.23-.2.39-.51.62-.3.23-.6.01-.82.22l1.29,1.53c.19-.17,0-.35.28-.56.28-.21.37-.08.65-.29Z"/>
    <path class="st1" d="M10.26,46.75c.04-.34-.3-.31-.24-.66.06-.35.38-.5.46-.83.09-.33-.04-.37.05-.71.09-.34.37-.26.5-.58.12-.32-.1-.49.03-.81.12-.33-.47-.46-.31-.79.16-.33.78-.08.93-.38.16-.31.06-.46.24-.76.18-.3.51.06.68-.23.2-.27-.15-.53.06-.81.22-.28.24-.25.47-.52.24-.26.49-.05.72-.3.23-.25-.08-.63.18-.87.27-.24.79-.13.8-.14l-1.29-1.53s-.24.5-.53.76c-.29.26-.45.1-.72.38-.27.29-.06.48-.32.76-.25.3-.49.09-.74.41-.24.32.3.56.07.86-.21.32-.43.32-.64.65-.2.33-.32.21-.5.56-.17.35.02.5-.15.85-.17.34-.57.18-.71.55-.14.37.27.52.14.88-.14.36-.26.32-.36.7-.1.38-.28.33-.38.71-.1.38.43.45.37.82-.06.37-.47.35-.53.74-.04.39.17.41.14.79-.02.38-.36.47-.38.77l2,.02c.02-.26-.25-.23-.23-.58.02-.35.17-.33.19-.68Z"/>
  </g>
  <g>
    <path class="st1" d="M26.49,48.35c-.04.31.25.26.23.55,0,.26-.25.41-.25.67,0,.26.11.26.11.52,0,.25-.24.3-.22.61.05.32.25.36.33.65.08.3.53.05.62.3.11.23-.36.52-.2.79.16.26.33.23.51.46.2.21-.15.4.09.62.24.22.47-.06.7.12.25.15.22.21.5.33.27.13.19.37.49.48.32.08.44-.27.72-.24.14.03.27.12.38.21.05.05.1.09.13.12.02.02.03.03.04.04,0,0,.01.01.01.01h0s0,0,0,0h0s0,0,0,0v-.8s0-.8,0-.8h0s0,0,0,0h0s0,0,0,0h-.01s-.02.02-.03.02c-.03.01-.07.03-.11.05-.09.04-.21.06-.32.05-.21-.03-.16-.24-.35-.29-.18-.07-.27.15-.46.05-.19-.09-.05-.33-.21-.43-.15-.12-.39.29-.56.14-.17-.15-.1-.32-.24-.48-.13-.17-.02-.22-.12-.4-.11-.17-.28-.12-.38-.32-.08-.21.24-.32.2-.51-.05-.19-.38-.13-.42-.35,0-.23.1-.2.1-.47,0-.26.15-.26.15-.52s-.41-.23-.41-.49c0-.27.33-.26.34-.47.04-.2-.13-.23-.07-.45.05-.22.34-.17.38-.31l-1.48-.62c-.08.22.12.26.03.55-.08.29-.2.26-.24.57Z"/>
    <path class="st1" d="M34.06,46.28c-.2-.24-.36,0-.56-.22-.21-.2-.19-.5-.44-.68-.27-.16-.31-.08-.58-.2-.27-.13-.19-.35-.5-.46-.31-.08-.43.1-.72.06-.3-.04-.25.47-.51.45-.26.01-.34-.54-.65-.49-.31.04-.34.22-.62.29-.28.11-.31-.29-.61-.16-.3.14-.13.45-.38.61-.24.17-.27.13-.5.33-.22.2-.41.03-.63.27-.2.26.08.51-.06.76-.15.24-.57.36-.58.38l1.48.62s-.05-.31.07-.49c.12-.18.28-.06.4-.21.13-.14-.03-.3.13-.45.16-.14.32.08.48-.03.17-.1-.12-.48.09-.57.2-.1.33.03.53-.03.21-.05.21.07.41.04.2-.03.22-.21.44-.22.22.02.2.34.39.38.19.02.26-.3.48-.25.21.08.17.17.36.27.2.09.11.23.29.33.15.12.4-.23.57-.06.18.16-.05.41.09.55.12.17.26.07.37.26.12.19-.12.36-.05.49l1.48-.62c-.1-.21-.27-.1-.42-.36-.15-.26-.05-.33-.24-.57Z"/>
    <path class="st1" d="M31.83,54.35c.3-.08.15-.33.42-.43.26-.12.53.02.8-.15.25-.18.19-.26.41-.46.22-.2.4-.04.61-.28.19-.26.07-.43.23-.69.15-.26-.34-.41-.22-.65.09-.24.62-.11.7-.41.08-.3-.07-.4-.03-.69.01-.28.39-.2.39-.47,0-.26-.35-.26-.35-.52s.04-.26.04-.52c0-.25.26-.29.24-.61-.05-.32-.42-.3-.49-.58-.06-.27.14-.66.14-.68l-1.48.62s.25.18.3.4c.05.21-.16.24-.13.43,0,.2.24.18.23.45,0,.26-.27.25-.27.51s.46.18.46.44c0,.27-.17.31-.18.53-.04.21-.14.17-.19.37-.05.2.11.28.04.49-.1.2-.4.05-.5.21-.1.17.18.36.04.54-.15.16-.23.09-.39.23-.16.14-.26.01-.42.13-.17.1.05.45-.16.55-.21.11-.35-.21-.54-.14-.2.05-.16.21-.38.24-.22.04-.29-.25-.44-.23v1.6c.24-.01.2-.21.5-.24.3-.05.32.08.62,0Z"/>
  </g>
  <rect class="st3" x="18.12" y="45.36" width="7.7" height="8.43" rx="3.85" ry="3.85"/>
  <g>
    <path class="st1" d="M17.45,48.35c-.04.31.25.26.23.55,0,.26-.25.41-.25.67,0,.26.11.26.11.52,0,.25-.24.3-.22.61.05.32.25.36.33.65.08.3.53.05.62.3.11.23-.36.52-.2.79.16.26.33.23.51.46.2.21-.15.4.09.62.24.22.47-.06.7.12.25.15.22.21.5.33.27.13.19.37.49.48.32.08.44-.27.72-.24.14.03.27.12.38.21.05.05.1.09.13.12.02.02.03.03.04.04,0,0,.01.01.01.01h0s0,0,0,0h0s0,0,0,0v-.8s0-.8,0-.8h0s0,0,0,0h0s0,0,0,0h-.01s-.02.02-.03.02c-.03.01-.07.03-.11.05-.09.04-.21.06-.32.05-.21-.03-.16-.24-.35-.29-.18-.07-.27.15-.46.05-.19-.09-.05-.33-.21-.43-.15-.12-.39.29-.56.14-.17-.15-.1-.32-.24-.48-.13-.17-.02-.22-.12-.4-.11-.17-.28-.12-.38-.32-.08-.21.24-.32.2-.51-.05-.19-.38-.13-.42-.35,0-.23.1-.2.1-.47,0-.26.15-.26.15-.52s-.41-.23-.41-.49c0-.27.33-.26.34-.47.04-.2-.13-.23-.07-.45.05-.22.34-.17.38-.31l-1.48-.62c-.08.22.12.26.03.55-.08.29-.2.26-.24.57Z"/>
    <path class="st1" d="M25.01,46.28c-.2-.24-.36,0-.56-.22-.21-.2-.19-.5-.44-.68-.27-.16-.31-.08-.58-.2-.27-.13-.19-.35-.5-.46-.31-.08-.43.1-.72.06-.3-.04-.25.47-.51.45-.26.01-.34-.54-.65-.49-.31.04-.34.22-.62.29-.28.11-.31-.29-.61-.16-.3.14-.13.45-.38.61-.24.17-.27.13-.5.33-.22.2-.41.03-.63.27-.2.26.08.51-.06.76-.15.24-.57.36-.58.38l1.48.62s-.05-.31.07-.49c.12-.18.28-.06.4-.21.13-.14-.03-.3.13-.45.16-.14.32.08.48-.03.17-.1-.12-.48.09-.57.2-.1.33.03.53-.03.21-.05.21.07.41.04.2-.03.22-.21.44-.22.22.02.2.34.39.38.19.02.26-.3.48-.25.21.08.17.17.36.27.2.09.11.23.29.33.15.12.4-.23.57-.06.18.16-.05.41.09.55.12.17.26.07.37.26.12.19-.12.36-.05.49l1.48-.62c-.1-.21-.27-.1-.42-.36-.15-.26-.05-.33-.24-.57Z"/>
    <path class="st1" d="M22.78,54.35c.3-.08.15-.33.42-.43.26-.12.53.02.8-.15.25-.18.19-.26.41-.46.22-.2.4-.04.61-.28.19-.26.07-.43.23-.69.15-.26-.34-.41-.22-.65.09-.24.62-.11.7-.41.08-.3-.07-.4-.03-.69.01-.28.39-.2.39-.47,0-.26-.35-.26-.35-.52s.04-.26.04-.52c0-.25.26-.29.24-.61-.05-.32-.42-.3-.49-.58-.06-.27.14-.66.14-.68l-1.48.62s.25.18.3.4c.05.21-.16.24-.13.43,0,.2.24.18.23.45,0,.26-.27.25-.27.51s.46.18.46.44c0,.27-.17.31-.18.53-.04.21-.14.17-.19.37-.05.2.11.28.04.49-.1.2-.4.05-.5.21-.1.17.18.36.04.54-.15.16-.23.09-.39.23-.16.14-.26.01-.42.13-.17.1.05.45-.16.55-.21.11-.35-.21-.54-.14-.2.05-.16.21-.38.24-.22.04-.29-.25-.44-.23v1.6c.24-.01.2-.21.5-.24.3-.05.32.08.62,0Z"/>
  </g>
  <g>
    <path class="st1" d="M44.58,48.35c-.04.31.25.26.23.55,0,.26-.25.41-.25.67,0,.26.11.26.11.52,0,.25-.24.3-.22.61.05.32.25.36.33.65.08.3.53.05.62.3.11.23-.36.52-.2.79.16.26.33.23.51.46.2.21-.15.4.09.62.24.22.47-.06.7.12.25.15.22.21.5.33.27.13.19.37.49.48.32.08.44-.27.72-.24.14.03.27.12.38.21.05.05.1.09.13.12.02.02.03.03.04.04,0,0,.01.01.01.01h0s0,0,0,0h0s0,0,0,0v-.8s0-.8,0-.8h0s0,0,0,0h0s0,0,0,0h-.01s-.02.02-.03.02c-.03.01-.07.03-.11.05-.09.04-.21.06-.32.05-.21-.03-.16-.24-.35-.29-.18-.07-.27.15-.46.05-.19-.09-.05-.33-.21-.43-.15-.12-.39.29-.56.14-.17-.15-.1-.32-.24-.48-.13-.17-.02-.22-.12-.4-.11-.17-.28-.12-.38-.32-.08-.21.24-.32.2-.51-.05-.19-.38-.13-.42-.35,0-.23.1-.2.1-.47,0-.26.15-.26.15-.52s-.41-.23-.41-.49c0-.27.33-.26.34-.47.04-.2-.13-.23-.07-.45.05-.22.34-.17.38-.31l-1.48-.62c-.08.22.12.26.03.55-.08.29-.2.26-.24.57Z"/>
    <path class="st1" d="M52.15,46.28c-.2-.24-.36,0-.56-.22-.21-.2-.19-.5-.44-.68-.27-.16-.31-.08-.58-.2-.27-.13-.19-.35-.5-.46-.31-.08-.43.1-.72.06-.3-.04-.25.47-.51.45-.26.01-.34-.54-.65-.49-.31.04-.34.22-.62.29-.28.11-.31-.29-.61-.16-.3.14-.13.45-.38.61-.24.17-.27.13-.5.33-.22.2-.41.03-.63.27-.2.26.08.51-.06.76-.15.24-.57.36-.58.38l1.48.62s-.05-.31.07-.49c.12-.18.28-.06.4-.21.13-.14-.03-.3.13-.45.16-.14.32.08.48-.03.17-.1-.12-.48.09-.57.2-.1.33.03.53-.03.21-.05.21.07.41.04.2-.03.22-.21.44-.22.22.02.2.34.39.38.19.02.26-.3.48-.25.21.08.17.17.36.27.2.09.11.23.29.33.15.12.4-.23.57-.06.18.16-.05.41.09.55.12.17.26.07.37.26.12.19-.12.36-.05.49l1.48-.62c-.1-.21-.27-.1-.42-.36-.15-.26-.05-.33-.24-.57Z"/>
    <path class="st1" d="M49.92,54.35c.3-.08.15-.33.42-.43.26-.12.53.02.8-.15.25-.18.19-.26.41-.46.22-.2.4-.04.61-.28.19-.26.07-.43.23-.69.15-.26-.34-.41-.22-.65.09-.24.62-.11.7-.41.08-.3-.07-.4-.03-.69.01-.28.39-.2.39-.47,0-.26-.35-.26-.35-.52s.04-.26.04-.52c0-.25.26-.29.24-.61-.05-.32-.42-.3-.49-.58-.06-.27.14-.66.14-.68l-1.48.62s.25.18.3.4c.05.21-.16.24-.13.43,0,.2.24.18.23.45,0,.26-.27.25-.27.51s.46.18.46.44c0,.27-.17.31-.18.53-.04.21-.14.17-.19.37-.05.2.11.28.04.49-.1.2-.4.05-.5.21-.1.17.18.36.04.54-.15.16-.23.09-.39.23-.16.14-.26.01-.42.13-.17.1.05.45-.16.55-.21.11-.35-.21-.54-.14-.2.05-.16.21-.38.24-.22.04-.29-.25-.44-.23v1.6c.24-.01.2-.21.5-.24.3-.05.32.08.62,0Z"/>
  </g>
  <g>
    <path class="st1" d="M35.54,48.35c-.04.31.25.26.23.55,0,.26-.25.41-.25.67,0,.26.11.26.11.52,0,.25-.24.3-.22.61.05.32.25.36.33.65.08.3.53.05.62.3.11.23-.36.52-.2.79.16.26.33.23.51.46.2.21-.15.4.09.62.24.22.47-.06.7.12.25.15.22.21.5.33.27.13.19.37.49.48.32.08.44-.27.72-.24.14.03.27.12.38.21.05.05.1.09.13.12.02.02.03.03.04.04,0,0,.01.01.01.01h0s0,0,0,0h0s0,0,0,0v-.8s0-.8,0-.8h0s0,0,0,0h0s0,0,0,0h-.01s-.02.02-.03.02c-.03.01-.07.03-.11.05-.09.04-.21.06-.32.05-.21-.03-.16-.24-.35-.29-.18-.07-.27.15-.46.05-.19-.09-.05-.33-.21-.43-.15-.12-.39.29-.56.14-.17-.15-.1-.32-.24-.48-.13-.17-.02-.22-.12-.4-.11-.17-.28-.12-.38-.32-.08-.21.24-.32.2-.51-.05-.19-.38-.13-.42-.35,0-.23.1-.2.1-.47,0-.26.15-.26.15-.52s-.41-.23-.41-.49c0-.27.33-.26.34-.47.04-.2-.13-.23-.07-.45.05-.22.34-.17.38-.31l-1.48-.62c-.08.22.12.26.03.55-.08.29-.2.26-.24.57Z"/>
    <path class="st1" d="M43.1,46.28c-.2-.24-.36,0-.56-.22-.21-.2-.19-.5-.44-.68-.27-.16-.31-.08-.58-.2-.27-.13-.19-.35-.5-.46-.31-.08-.43.1-.72.06-.3-.04-.25.47-.51.45-.26.01-.34-.54-.65-.49-.31.04-.34.22-.62.29-.28.11-.31-.29-.61-.16-.3.14-.13.45-.38.61-.24.17-.27.13-.5.33-.22.2-.41.03-.63.27-.2.26.08.51-.06.76-.15.24-.57.36-.58.38l1.48.62s-.05-.31.07-.49c.12-.18.28-.06.4-.21.13-.14-.03-.3.13-.45.16-.14.32.08.48-.03.17-.1-.12-.48.09-.57.2-.1.33.03.53-.03.21-.05.21.07.41.04.2-.03.22-.21.44-.22.22.02.2.34.39.38.19.02.26-.3.48-.25.21.08.17.17.36.27.2.09.11.23.29.33.15.12.4-.23.57-.06.18.16-.05.41.09.55.12.17.26.07.37.26.12.19-.12.36-.05.49l1.48-.62c-.1-.21-.27-.1-.42-.36-.15-.26-.05-.33-.24-.57Z"/>
    <path class="st1" d="M40.87,54.35c.3-.08.15-.33.42-.43.26-.12.53.02.8-.15.25-.18.19-.26.41-.46.22-.2.4-.04.61-.28.19-.26.07-.43.23-.69.15-.26-.34-.41-.22-.65.09-.24.62-.11.7-.41.08-.3-.07-.4-.03-.69.01-.28.39-.2.39-.47,0-.26-.35-.26-.35-.52s.04-.26.04-.52c0-.25.26-.29.24-.61-.05-.32-.42-.3-.49-.58-.06-.27.14-.66.14-.68l-1.48.62s.25.18.3.4c.05.21-.16.24-.13.43,0,.2.24.18.23.45,0,.26-.27.25-.27.51s.46.18.46.44c0,.27-.17.31-.18.53-.04.21-.14.17-.19.37-.05.2.11.28.04.49-.1.2-.4.05-.5.21-.1.17.18.36.04.54-.15.16-.23.09-.39.23-.16.14-.26.01-.42.13-.17.1.05.45-.16.55-.21.11-.35-.21-.54-.14-.2.05-.16.21-.38.24-.22.04-.29-.25-.44-.23v1.6c.24-.01.2-.21.5-.24.3-.05.32.08.62,0Z"/>
  </g>
  <g>
    <path class="st1" d="M62.67,48.35c-.04.31.25.26.23.55,0,.26-.25.41-.25.67,0,.26.11.26.11.52,0,.25-.24.3-.22.61.05.32.25.36.33.65.08.3.53.05.62.3.11.23-.36.52-.2.79.16.26.33.23.51.46.2.21-.15.4.09.62.24.22.47-.06.7.12.25.15.22.21.5.33.27.13.19.37.49.48.32.08.44-.27.72-.24.14.03.27.12.38.21.05.05.1.09.13.12.02.02.03.03.04.04,0,0,.01.01.01.01h0s0,0,0,0h0s0,0,0,0v-.8s0-.8,0-.8h0s0,0,0,0h0s0,0,0,0h-.01s-.02.02-.03.02c-.03.01-.07.03-.11.05-.09.04-.21.06-.32.05-.21-.03-.16-.24-.35-.29-.18-.07-.27.15-.46.05-.19-.09-.05-.33-.21-.43-.15-.12-.39.29-.56.14-.17-.15-.1-.32-.24-.48-.13-.17-.02-.22-.12-.4-.11-.17-.28-.12-.38-.32-.08-.21.24-.32.2-.51-.05-.19-.38-.13-.42-.35,0-.23.1-.2.1-.47,0-.26.15-.26.15-.52s-.41-.23-.41-.49c0-.27.33-.26.34-.47.04-.2-.13-.23-.07-.45.05-.22.34-.17.38-.31l-1.48-.62c-.08.22.12.26.03.55-.08.29-.2.26-.24.57Z"/>
    <path class="st1" d="M70.24,46.28c-.2-.24-.36,0-.56-.22-.21-.2-.19-.5-.44-.68-.27-.16-.31-.08-.58-.2-.27-.13-.19-.35-.5-.46-.31-.08-.43.1-.72.06-.3-.04-.25.47-.51.45-.26.01-.34-.54-.65-.49-.31.04-.34.22-.62.29-.28.11-.31-.29-.61-.16-.3.14-.13.45-.38.61-.24.17-.27.13-.5.33-.22.2-.41.03-.63.27-.2.26.08.51-.06.76-.15.24-.57.36-.58.38l1.48.62s-.05-.31.07-.49c.12-.18.28-.06.4-.21.13-.14-.03-.3.13-.45.16-.14.32.08.48-.03.17-.1-.12-.48.09-.57.2-.1.33.03.53-.03.21-.05.21.07.41.04.2-.03.22-.21.44-.22.22.02.2.34.39.38.19.02.26-.3.48-.25.21.08.17.17.36.27.2.09.11.23.29.33.15.12.4-.23.57-.06.18.16-.05.41.09.55.12.17.26.07.37.26.12.19-.12.36-.05.49l1.48-.62c-.1-.21-.27-.1-.42-.36-.15-.26-.05-.33-.24-.57Z"/>
    <path class="st1" d="M68.01,54.35c.3-.08.15-.33.42-.43.26-.12.53.02.8-.15.25-.18.19-.26.41-.46.22-.2.4-.04.61-.28.19-.26.07-.43.23-.69.15-.26-.34-.41-.22-.65.09-.24.62-.11.7-.41.08-.3-.07-.4-.03-.69.01-.28.39-.2.39-.47,0-.26-.35-.26-.35-.52s.04-.26.04-.52c0-.25.26-.29.24-.61-.05-.32-.42-.3-.49-.58-.06-.27.14-.66.14-.68l-1.48.62s.25.18.3.4c.05.21-.16.24-.13.43,0,.2.24.18.23.45,0,.26-.27.25-.27.51s.46.18.46.44c0,.27-.17.31-.18.53-.04.21-.14.17-.19.37-.05.2.11.28.04.49-.1.2-.4.05-.5.21-.1.17.18.36.04.54-.15.16-.23.09-.39.23-.16.14-.26.01-.42.13-.17.1.05.45-.16.55-.21.11-.35-.21-.54-.14-.2.05-.16.21-.38.24-.22.04-.29-.25-.44-.23v1.6c.24-.01.2-.21.5-.24.3-.05.32.08.62,0Z"/>
  </g>
  <g>
    <path class="st1" d="M71.68,49.52c.01.39.27.29.31.66.05.36-.14.63-.02,1.01.13.37.24.32.4.66.19.32-.02.47.22.79.25.31.46.25.74.5.28.26.51-.21.78,0,.28.18.05.68.41.85.35.16.49.05.85.15.36.09.15.42.55.49.4.05.44-.31.78-.3.33,0,.33.04.67.04s.35.26.68.26.38-.39.71-.39.64.34.66.34v-1.6s-.43.17-.76.17-.33-.2-.66-.2-.33.22-.67.22-.33-.27-.66-.27c-.3,0-.21.45-.52.43-.3-.04-.36-.22-.63-.29-.27-.1-.2-.19-.45-.31-.25-.11-.37.02-.62-.13-.24-.18-.03-.44-.22-.62-.18-.19-.45.06-.63-.18-.18-.23-.07-.31-.22-.55-.12-.26,0-.31-.08-.57-.08-.25-.47-.13-.53-.43-.05-.3.27-.36.26-.64,0-.28-.16-.29-.12-.58.04-.29.34-.29.38-.49l-1.53-.47c-.07.29.12.3.06.67-.06.37-.17.36-.19.75Z"/>
    <path class="st1" d="M80.95,44.88c-.38-.1-.36.17-.72.11-.35-.06-.59-.31-.93-.32-.33,0-.33.11-.67.11s-.34-.25-.67-.25-.41.21-.75.21-.23.49-.56.49c-.33.02-.43-.53-.81-.47-.38.06-.44.24-.79.35-.35.13-.37-.27-.73-.09-.36.19-.18.49-.49.7-.3.22-.32.2-.6.45-.25.28-.47.12-.71.44-.23.33.07.58-.09.9-.17.32-.59.55-.6.58l1.53.47s-.05-.39.09-.64c.14-.24.3-.15.46-.36.15-.21,0-.35.19-.56.21-.19.38,0,.59-.14.21-.15-.1-.49.16-.64.27-.14.42-.02.68-.11.28-.06.27.04.54,0,.27-.05.29-.22.59-.24.33,0,.34.34.67.34s.32-.35.66-.35.33.12.66.12.33.15.66.15c.32,0,.27-.4.59-.38.31.04.27.37.53.44.26.09.32-.07.58.06.27.12.18.41.35.51l.9-1.32c-.25-.15-.32.03-.66-.14-.34-.17-.29-.27-.66-.41Z"/>
    <path class="st1" d="M80.85,54.29c.37-.13.2-.35.54-.49.33-.15.65-.05.96-.28.31-.23.23-.32.51-.58.25-.28.45-.12.69-.45.22-.33.1-.52.26-.86.17-.35-.35-.43-.23-.75.08-.32.63-.25.69-.64.05-.38-.1-.48-.11-.85-.02-.37.36-.27.3-.67-.07-.4-.42-.32-.53-.68-.13-.35-.09-.37-.26-.71-.19-.32.03-.49-.21-.81-.25-.32-.58-.1-.83-.35-.25-.25-.36-.72-.38-.75l-.9,1.32s.39.07.59.27c.19.21.05.33.21.55.16.21.34.1.48.35.13.26-.12.36-.03.6.07.25.5.05.56.34.05.3-.1.41-.09.69-.02.29-.12.25-.16.52-.04.27.13.34.06.63-.1.28-.41.16-.53.39-.12.23.18.41.01.65-.17.24-.27.16-.46.37-.21.19-.3.09-.52.24-.22.16.02.48-.25.63-.28.14-.43-.15-.69-.06-.27.07-.23.24-.52.28-.29.05-.38-.24-.58-.22v1.6c.3-.02.25-.21.63-.25.38-.05.4.06.78-.04Z"/>
  </g>
  <g>
    <path class="st1" d="M53.63,48.35c-.04.31.25.26.23.55,0,.26-.25.41-.25.67,0,.26.11.26.11.52,0,.25-.24.3-.22.61.05.32.25.36.33.65.08.3.53.05.62.3.11.23-.36.52-.2.79.16.26.33.23.51.46.2.21-.15.4.09.62.24.22.47-.06.7.12.25.15.22.21.5.33.27.13.19.37.49.48.32.08.44-.27.72-.24.14.03.27.12.38.21.05.05.1.09.13.12.02.02.03.03.04.04,0,0,.01.01.01.01h0s0,0,0,0h0s0,0,0,0v-.8s0-.8,0-.8h0s0,0,0,0h0s0,0,0,0h-.01s-.02.02-.03.02c-.03.01-.07.03-.11.05-.09.04-.21.06-.32.05-.21-.03-.16-.24-.35-.29-.18-.07-.27.15-.46.05-.19-.09-.05-.33-.21-.43-.15-.12-.39.29-.56.14-.17-.15-.1-.32-.24-.48-.13-.17-.02-.22-.12-.4-.11-.17-.28-.12-.38-.32-.08-.21.24-.32.2-.51-.05-.19-.38-.13-.42-.35,0-.23.1-.2.1-.47,0-.26.15-.26.15-.52s-.41-.23-.41-.49c0-.27.33-.26.34-.47.04-.2-.13-.23-.07-.45.05-.22.34-.17.38-.31l-1.48-.62c-.08.22.12.26.03.55-.08.29-.2.26-.24.57Z"/>
    <path class="st1" d="M61.19,46.28c-.2-.24-.36,0-.56-.22-.21-.2-.19-.5-.44-.68-.27-.16-.31-.08-.58-.2-.27-.13-.19-.35-.5-.46-.31-.08-.43.1-.72.06-.3-.04-.25.47-.51.45-.26.01-.34-.54-.65-.49-.31.04-.34.22-.62.29-.28.11-.31-.29-.61-.16-.3.14-.13.45-.38.61-.24.17-.27.13-.5.33-.22.2-.41.03-.63.27-.2.26.08.51-.06.76-.15.24-.57.36-.58.38l1.48.62s-.05-.31.07-.49c.12-.18.28-.06.4-.21.13-.14-.03-.3.13-.45.16-.14.32.08.48-.03.17-.1-.12-.48.09-.57.2-.1.33.03.53-.03.21-.05.21.07.41.04.2-.03.22-.21.44-.22.22.02.2.34.39.38.19.02.26-.3.48-.25.21.08.17.17.36.27.2.09.11.23.29.33.15.12.4-.23.57-.06.18.16-.05.41.09.55.12.17.26.07.37.26.12.19-.12.36-.05.49l1.48-.62c-.1-.21-.27-.1-.42-.36-.15-.26-.05-.33-.24-.57Z"/>
    <path class="st1" d="M58.96,54.35c.3-.08.15-.33.42-.43.26-.12.53.02.8-.15.25-.18.19-.26.41-.46.22-.2.4-.04.61-.28.19-.26.07-.43.23-.69.15-.26-.34-.41-.22-.65.09-.24.62-.11.7-.41.08-.3-.07-.4-.03-.69.01-.28.39-.2.39-.47,0-.26-.35-.26-.35-.52s.04-.26.04-.52c0-.25.26-.29.24-.61-.05-.32-.42-.3-.49-.58-.06-.27.14-.66.14-.68l-1.48.62s.25.18.3.4c.05.21-.16.24-.13.43,0,.2.24.18.23.45,0,.26-.27.25-.27.51s.46.18.46.44c0,.27-.17.31-.18.53-.04.21-.14.17-.19.37-.05.2.11.28.04.49-.1.2-.4.05-.5.21-.1.17.18.36.04.54-.15.16-.23.09-.39.23-.16.14-.26.01-.42.13-.17.1.05.45-.16.55-.21.11-.35-.21-.54-.14-.2.05-.16.21-.38.24-.22.04-.29-.25-.44-.23v1.6c.24-.01.2-.21.5-.24.3-.05.32.08.62,0Z"/>
  </g>
  <g>
    <path class="st1" d="M26.49,58.95c-.04.31.25.26.23.55,0,.26-.25.41-.25.67,0,.26.11.26.11.52,0,.25-.24.3-.22.61.05.32.25.36.33.65.08.3.53.05.62.3.11.23-.36.52-.2.79.16.26.33.23.51.46.2.21-.15.4.09.62.24.22.47-.06.7.12.25.15.22.21.5.33.27.13.19.37.49.48.32.08.44-.27.72-.24.14.03.27.12.38.21.05.05.1.09.13.12.02.02.03.03.04.04,0,0,.01.01.01.01h0s0,0,0,0h0s0,0,0,0v-.8s0-.8,0-.8h0s0,0,0,0h0s0,0,0,0h-.01s-.02.02-.03.02c-.03.01-.07.03-.11.05-.09.04-.21.06-.32.05-.21-.03-.16-.24-.35-.29-.18-.07-.27.15-.46.05-.19-.09-.05-.33-.21-.43-.15-.12-.39.29-.56.14-.17-.15-.1-.32-.24-.48-.13-.17-.02-.22-.12-.4-.11-.17-.28-.12-.38-.32-.08-.21.24-.32.2-.51-.05-.19-.38-.13-.42-.35,0-.23.1-.2.1-.47,0-.26.15-.26.15-.52s-.41-.23-.41-.49c0-.27.33-.26.34-.47.04-.2-.13-.23-.07-.45.05-.22.34-.17.38-.31l-1.48-.62c-.08.22.12.26.03.55-.08.29-.2.26-.24.57Z"/>
    <path class="st1" d="M34.06,56.89c-.2-.24-.36,0-.56-.22-.21-.2-.19-.5-.44-.68-.27-.16-.31-.08-.58-.2-.27-.13-.19-.35-.5-.46-.31-.08-.43.1-.72.06-.3-.04-.25.47-.51.45-.26.01-.34-.54-.65-.49-.31.04-.34.22-.62.29-.28.11-.31-.29-.61-.16-.3.14-.13.45-.38.61-.24.17-.27.13-.5.33-.22.2-.41.03-.63.27-.2.26.08.51-.06.76-.15.24-.57.36-.58.38l1.48.62s-.05-.31.07-.49c.12-.18.28-.06.4-.21.13-.14-.03-.3.13-.45.16-.14.32.08.48-.03.17-.1-.12-.48.09-.57.2-.1.33.03.53-.03.21-.05.21.07.41.04.2-.03.22-.21.44-.22.22.02.2.34.39.38.19.02.26-.3.48-.25.21.08.17.17.36.27.2.09.11.23.29.33.15.12.4-.23.57-.06.18.16-.05.41.09.55.12.17.26.07.37.26.12.19-.12.36-.05.49l1.48-.62c-.1-.21-.27-.1-.42-.36-.15-.26-.05-.33-.24-.57Z"/>
    <path class="st1" d="M31.83,64.96c.3-.08.15-.33.42-.43.26-.12.53.02.8-.15.25-.18.19-.26.41-.46.22-.2.4-.04.61-.28.19-.26.07-.43.23-.69.15-.26-.34-.41-.22-.65.09-.24.62-.11.7-.41.08-.3-.07-.4-.03-.69.01-.28.39-.2.39-.47,0-.26-.35-.26-.35-.52s.04-.26.04-.52c0-.25.26-.29.24-.61-.05-.32-.42-.3-.49-.58-.06-.27.14-.66.14-.68l-1.48.62s.25.18.3.4c.05.21-.16.24-.13.43,0,.2.24.18.23.45,0,.26-.27.25-.27.51s.46.18.46.44c0,.27-.17.31-.18.53-.04.21-.14.17-.19.37-.05.2.11.28.04.49-.1.2-.4.05-.5.21-.1.17.18.36.04.54-.15.16-.23.09-.39.23-.16.14-.26.01-.42.13-.17.1.05.45-.16.55-.21.11-.35-.21-.54-.14-.2.05-.16.21-.38.24-.22.04-.29-.25-.44-.23v1.6c.24-.01.2-.21.5-.24.3-.05.32.08.62,0Z"/>
  </g>
  <rect class="st3" x="18.12" y="55.97" width="7.7" height="8.43" rx="3.85" ry="3.85"/>
  <g>
    <path class="st1" d="M17.45,58.95c-.04.31.25.26.23.55,0,.26-.25.41-.25.67,0,.26.11.26.11.52,0,.25-.24.3-.22.61.05.32.25.36.33.65.08.3.53.05.62.3.11.23-.36.52-.2.79.16.26.33.23.51.46.2.21-.15.4.09.62.24.22.47-.06.7.12.25.15.22.21.5.33.27.13.19.37.49.48.32.08.44-.27.72-.24.14.03.27.12.38.21.05.05.1.09.13.12.02.02.03.03.04.04,0,0,.01.01.01.01h0s0,0,0,0h0s0,0,0,0v-.8s0-.8,0-.8h0s0,0,0,0h0s0,0,0,0h-.01s-.02.02-.03.02c-.03.01-.07.03-.11.05-.09.04-.21.06-.32.05-.21-.03-.16-.24-.35-.29-.18-.07-.27.15-.46.05-.19-.09-.05-.33-.21-.43-.15-.12-.39.29-.56.14-.17-.15-.1-.32-.24-.48-.13-.17-.02-.22-.12-.4-.11-.17-.28-.12-.38-.32-.08-.21.24-.32.2-.51-.05-.19-.38-.13-.42-.35,0-.23.1-.2.1-.47,0-.26.15-.26.15-.52s-.41-.23-.41-.49c0-.27.33-.26.34-.47.04-.2-.13-.23-.07-.45.05-.22.34-.17.38-.31l-1.48-.62c-.08.22.12.26.03.55-.08.29-.2.26-.24.57Z"/>
    <path class="st1" d="M25.01,56.89c-.2-.24-.36,0-.56-.22-.21-.2-.19-.5-.44-.68-.27-.16-.31-.08-.58-.2-.27-.13-.19-.35-.5-.46-.31-.08-.43.1-.72.06-.3-.04-.25.47-.51.45-.26.01-.34-.54-.65-.49-.31.04-.34.22-.62.29-.28.11-.31-.29-.61-.16-.3.14-.13.45-.38.61-.24.17-.27.13-.5.33-.22.2-.41.03-.63.27-.2.26.08.51-.06.76-.15.24-.57.36-.58.38l1.48.62s-.05-.31.07-.49c.12-.18.28-.06.4-.21.13-.14-.03-.3.13-.45.16-.14.32.08.48-.03.17-.1-.12-.48.09-.57.2-.1.33.03.53-.03.21-.05.21.07.41.04.2-.03.22-.21.44-.22.22.02.2.34.39.38.19.02.26-.3.48-.25.21.08.17.17.36.27.2.09.11.23.29.33.15.12.4-.23.57-.06.18.16-.05.41.09.55.12.17.26.07.37.26.12.19-.12.36-.05.49l1.48-.62c-.1-.21-.27-.1-.42-.36-.15-.26-.05-.33-.24-.57Z"/>
    <path class="st1" d="M22.78,64.96c.3-.08.15-.33.42-.43.26-.12.53.02.8-.15.25-.18.19-.26.41-.46.22-.2.4-.04.61-.28.19-.26.07-.43.23-.69.15-.26-.34-.41-.22-.65.09-.24.62-.11.7-.41.08-.3-.07-.4-.03-.69.01-.28.39-.2.39-.47,0-.26-.35-.26-.35-.52s.04-.26.04-.52c0-.25.26-.29.24-.61-.05-.32-.42-.3-.49-.58-.06-.27.14-.66.14-.68l-1.48.62s.25.18.3.4c.05.21-.16.24-.13.43,0,.2.24.18.23.45,0,.26-.27.25-.27.51s.46.18.46.44c0,.27-.17.31-.18.53-.04.21-.14.17-.19.37-.05.2.11.28.04.49-.1.2-.4.05-.5.21-.1.17.18.36.04.54-.15.16-.23.09-.39.23-.16.14-.26.01-.42.13-.17.1.05.45-.16.55-.21.11-.35-.21-.54-.14-.2.05-.16.21-.38.24-.22.04-.29-.25-.44-.23v1.6c.24-.01.2-.21.5-.24.3-.05.32.08.62,0Z"/>
  </g>
  <g>
    <path class="st1" d="M26.49,74.94c-.04.31.25.26.23.55,0,.26-.25.41-.25.67,0,.26.11.26.11.52,0,.25-.24.3-.22.61.05.32.25.36.33.65.08.3.53.05.62.3.11.23-.36.52-.2.79.16.26.33.23.51.46.2.21-.15.4.09.62.24.22.47-.06.7.12.25.15.22.21.5.33.27.13.19.37.49.48.32.08.44-.27.72-.24.14.03.27.12.38.21.05.05.1.09.13.12.02.02.03.03.04.04,0,0,.01.01.01.01h0s0,0,0,0h0s0,0,0,0v-.8s0-.8,0-.8h0s0,0,0,0h0s0,0,0,0h-.01s-.02.02-.03.02c-.03.01-.07.03-.11.05-.09.04-.21.06-.32.05-.21-.03-.16-.24-.35-.29-.18-.07-.27.15-.46.05-.19-.09-.05-.33-.21-.43-.15-.12-.39.29-.56.14-.17-.15-.1-.32-.24-.48-.13-.17-.02-.22-.12-.4-.11-.17-.28-.12-.38-.32-.08-.21.24-.32.2-.51-.05-.19-.38-.13-.42-.35,0-.23.1-.2.1-.47,0-.26.15-.26.15-.52s-.41-.23-.41-.49c0-.27.33-.26.34-.47.04-.2-.13-.23-.07-.45.05-.22.34-.17.38-.31l-1.48-.62c-.08.22.12.26.03.55-.08.29-.2.26-.24.57Z"/>
    <path class="st1" d="M34.06,72.88c-.2-.24-.36,0-.56-.22-.21-.2-.19-.5-.44-.68-.27-.16-.31-.08-.58-.2-.27-.13-.19-.35-.5-.46-.31-.08-.43.1-.72.06-.3-.04-.25.47-.51.45-.26.01-.34-.54-.65-.49-.31.04-.34.22-.62.29-.28.11-.31-.29-.61-.16-.3.14-.13.45-.38.61-.24.17-.27.13-.5.33-.22.2-.41.03-.63.27-.2.26.08.51-.06.76-.15.24-.57.36-.58.38l1.48.62s-.05-.31.07-.49c.12-.18.28-.06.4-.21.13-.14-.03-.3.13-.45.16-.14.32.08.48-.03.17-.1-.12-.48.09-.57.2-.1.33.03.53-.03.21-.05.21.07.41.04.2-.03.22-.21.44-.22.22.02.2.34.39.38.19.02.26-.3.48-.25.21.08.17.17.36.27.2.09.11.23.29.33.15.12.4-.23.57-.06.18.16-.05.41.09.55.12.17.26.07.37.26.12.19-.12.36-.05.49l1.48-.62c-.1-.21-.27-.1-.42-.36-.15-.26-.05-.33-.24-.57Z"/>
    <path class="st1" d="M31.83,80.94c.3-.08.15-.33.42-.43.26-.12.53.02.8-.15.25-.18.19-.26.41-.46.22-.2.4-.04.61-.28.19-.26.07-.43.23-.69.15-.26-.34-.41-.22-.65.09-.24.62-.11.7-.41.08-.3-.07-.4-.03-.69.01-.28.39-.2.39-.47,0-.26-.35-.26-.35-.52s.04-.26.04-.52c0-.25.26-.29.24-.61-.05-.32-.42-.3-.49-.58-.06-.27.14-.66.14-.68l-1.48.62s.25.18.3.4c.05.21-.16.24-.13.43,0,.2.24.18.23.45,0,.26-.27.25-.27.51s.46.18.46.44c0,.27-.17.31-.18.53-.04.21-.14.17-.19.37-.05.2.11.28.04.49-.1.2-.4.05-.5.21-.1.17.18.36.04.54-.15.16-.23.09-.39.23-.16.14-.26.01-.42.13-.17.1.05.45-.16.55-.21.11-.35-.21-.54-.14-.2.05-.16.21-.38.24-.22.04-.29-.25-.44-.23v1.6c.24-.01.2-.21.5-.24.3-.05.32.08.62,0Z"/>
  </g>
  <g>
    <path class="st1" d="M52.21,81.09c.29,0,.23-.27.52-.27s.46.25.75.25.29-.11.58-.11.3.25.59.25.36-.21.65-.21.2-.49.49-.49.33.53.62.53.36-.15.65-.15.19.37.48.37.3-.35.59-.35.29.04.58.04.31.26.6.26.33-.39.62-.39.56.34.58.34v-1.6s-.38.17-.67.17-.29-.2-.58-.2-.29.22-.58.22-.29-.27-.58-.27-.2.46-.49.46-.38-.16-.67-.16-.26-.12-.54-.12-.32.19-.61.19-.3-.34-.59-.34-.28.35-.57.35-.29-.12-.58-.12-.29-.15-.58-.15-.26.41-.55.41-.32-.33-.61-.33-.29.16-.58.16-.36-.27-.58-.27v1.6c.22,0,.19-.21.48-.21s.29.12.58.12Z"/>
    <path class="st1" d="M42.84,81.09c.29,0,.23-.27.52-.27s.46.25.75.25.29-.11.58-.11.3.25.59.25.36-.21.65-.21.2-.49.49-.49.33.53.62.53.36-.15.65-.15.19.37.48.37.3-.35.59-.35.29.04.58.04.31.26.6.26.33-.39.62-.39.56.34.58.34v-1.6s-.38.17-.67.17-.29-.2-.58-.2-.29.22-.58.22-.29-.27-.58-.27-.2.46-.49.46-.38-.16-.67-.16-.26-.12-.54-.12-.32.19-.61.19-.3-.34-.59-.34-.28.35-.57.35-.29-.12-.58-.12-.29-.15-.58-.15-.26.41-.55.41-.32-.33-.61-.33-.29.16-.58.16-.36-.27-.58-.27v1.6c.22,0,.19-.21.48-.21s.29.12.58.12Z"/>
    <path class="st1" d="M36.15,75.15c-.05.34.22.31.19.62-.02.32-.27.51-.24.85.05.34.14.32.22.64.08.32-.15.4-.03.73.13.32.36.31.52.6.18.29.52-.06.7.18.17.24-.19.61.04.86.25.23.4.17.66.36.26.19-.03.43.27.61.32.16.47-.14.77-.02.31.11.29.16.62.24.32.08.3.32.65.37.35.02.42-.36.7-.36.29,0,.56.34.58.34v-1.6s-.38.17-.67.17c-.29,0-.25-.21-.49-.22-.23-.04-.27.2-.51.13-.24-.06-.16-.32-.37-.39-.21-.08-.33.35-.57.24-.22-.14-.21-.3-.41-.46-.2-.15-.09-.24-.27-.39-.16-.18-.34-.06-.49-.27-.16-.2.14-.4.02-.6-.1-.21-.43-.05-.52-.29-.09-.24.02-.28-.04-.51-.05-.24.1-.27.07-.5,0-.23-.43-.2-.41-.47,0-.27.34-.26.38-.49.05-.23-.1-.27-.03-.52.09-.24.36-.19.44-.35l-1.43-.71c-.11.24.09.29-.03.6-.12.31-.21.28-.31.61Z"/>
    <path class="st1" d="M44.59,71.24c-.29,0-.23.27-.52.27s-.46-.25-.75-.25-.29.11-.58.11-.3-.25-.59-.25-.36.21-.65.21-.2.49-.49.49c-.29.02-.37-.53-.71-.48-.34.05-.38.22-.69.3-.31.11-.32-.28-.65-.16-.32.16-.17.46-.45.63-.28.17-.3.15-.56.34-.24.22-.45.03-.68.29-.24.26.04.55-.15.8-.17.26-.62.37-.63.4l1.43.71s0-.35.14-.56c.15-.2.3-.07.46-.24.16-.17.02-.32.2-.49.2-.15.34.06.54-.05.19-.12-.08-.48.15-.6.24-.1.37.01.61-.05.24-.06.24.06.48.03.24-.04.25-.21.52-.23.29,0,.3.34.59.34s.28-.35.57-.35.29.12.58.12.29.15.58.15.26-.41.55-.41.32.33.61.33.29-.16.58-.16.36.27.58.27v-1.6c-.22,0-.19.21-.48.21s-.29-.12-.58-.12Z"/>
    <path class="st1" d="M53.96,71.24c-.29,0-.23.27-.52.27s-.46-.25-.75-.25-.29.11-.58.11-.3-.25-.59-.25-.36.21-.65.21-.2.49-.49.49-.33-.53-.62-.53-.36.15-.65.15-.19-.37-.48-.37-.3.35-.59.35-.29-.04-.58-.04-.31-.26-.6-.26-.33.39-.62.39-.56-.34-.58-.34v1.6s.38-.17.67-.17.29.2.58.2.29-.22.58-.22.29.27.58.27.2-.46.49-.46.38.16.67.16.26.12.54.12.32-.19.61-.19.3.34.59.34.28-.35.57-.35.29.12.58.12.29.15.58.15.26-.41.55-.41.32.33.61.33.29-.16.58-.16.36.27.58.27v-1.6c-.22,0-.19.21-.48.21s-.29-.12-.58-.12Z"/>
    <path class="st1" d="M63.56,72.3c-.28-.2-.37.05-.64-.11-.27-.17-.34-.47-.66-.6-.32-.12-.35-.01-.67-.09-.32-.07-.29-.31-.64-.35-.35-.02-.44.18-.72.19-.29,0-.2.49-.49.49s-.33-.53-.62-.53-.36.15-.65.15-.19-.37-.48-.37-.3.35-.59.35-.29-.04-.58-.04-.31-.26-.6-.26-.33.39-.62.39-.56-.34-.58-.34v1.6s.38-.17.67-.17.29.2.58.2.29-.22.58-.22.29.27.58.27.2-.46.49-.46.38.16.67.16.26.12.54.12.32-.19.61-.19.3.34.59.34c.3,0,.25-.34.53-.33.25.04.24.14.48.2.24.06.2.2.42.29.22.08.36-.28.61-.17.23.14.08.42.27.57.2.14.29.04.48.2.17.19.02.4.12.55l1.27-.97c-.15-.21-.3-.04-.52-.29-.24-.23-.15-.32-.41-.54Z"/>
    <path class="st1" d="M61.74,80.93c.33-.08.18-.33.48-.44.29-.12.58.02.87-.16.29-.17.22-.28.48-.47.24-.22.43-.04.66-.3.24-.26.11-.46.31-.73.17-.29-.29-.44-.16-.71.13-.26.64-.1.75-.42.09-.32-.02-.44.03-.76.05-.32.41-.16.43-.51.02-.35-.34-.35-.36-.68-.04-.32,0-.33-.06-.66-.08-.32.17-.41.04-.74-.13-.33-.51-.2-.65-.49-.15-.27-.06-.72-.08-.74l-1.27.97s.32.15.44.37c.1.23-.06.3.01.52.08.21.28.16.35.4.04.25-.22.28-.19.51,0,.23.48.14.47.41,0,.26-.19.33-.22.57-.06.24-.16.19-.24.41-.08.23.09.33-.03.56-.12.23-.42.06-.54.25-.14.18.15.4-.03.59-.17.19-.26.09-.44.27-.2.14-.28.04-.49.16-.2.12,0,.46-.23.58-.25.1-.38-.19-.61-.13-.23.06-.2.22-.45.25-.25.04-.33-.25-.51-.23v1.6c.26-.01.22-.21.55-.24.33-.05.35.09.68,0Z"/>
  </g>
  <g>
    <path class="st1" d="M17.45,74.94c-.04.31.25.26.23.55,0,.26-.25.41-.25.67,0,.26.11.26.11.52,0,.25-.24.3-.22.61.05.32.25.36.33.65.08.3.53.05.62.3.11.23-.36.52-.2.79.16.26.33.23.51.46.2.21-.15.4.09.62.24.22.47-.06.7.12.25.15.22.21.5.33.27.13.19.37.49.48.32.08.44-.27.72-.24.14.03.27.12.38.21.05.05.1.09.13.12.02.02.03.03.04.04,0,0,.01.01.01.01h0s0,0,0,0h0s0,0,0,0v-.8s0-.8,0-.8h0s0,0,0,0h0s0,0,0,0h-.01s-.02.02-.03.02c-.03.01-.07.03-.11.05-.09.04-.21.06-.32.05-.21-.03-.16-.24-.35-.29-.18-.07-.27.15-.46.05-.19-.09-.05-.33-.21-.43-.15-.12-.39.29-.56.14-.17-.15-.1-.32-.24-.48-.13-.17-.02-.22-.12-.4-.11-.17-.28-.12-.38-.32-.08-.21.24-.32.2-.51-.05-.19-.38-.13-.42-.35,0-.23.1-.2.1-.47,0-.26.15-.26.15-.52s-.41-.23-.41-.49c0-.27.33-.26.34-.47.04-.2-.13-.23-.07-.45.05-.22.34-.17.38-.31l-1.48-.62c-.08.22.12.26.03.55-.08.29-.2.26-.24.57Z"/>
    <path class="st1" d="M25.01,72.88c-.2-.24-.36,0-.56-.22-.21-.2-.19-.5-.44-.68-.27-.16-.31-.08-.58-.2-.27-.13-.19-.35-.5-.46-.31-.08-.43.1-.72.06-.3-.04-.25.47-.51.45-.26.01-.34-.54-.65-.49-.31.04-.34.22-.62.29-.28.11-.31-.29-.61-.16-.3.14-.13.45-.38.61-.24.17-.27.13-.5.33-.22.2-.41.03-.63.27-.2.26.08.51-.06.76-.15.24-.57.36-.58.38l1.48.62s-.05-.31.07-.49c.12-.18.28-.06.4-.21.13-.14-.03-.3.13-.45.16-.14.32.08.48-.03.17-.1-.12-.48.09-.57.2-.1.33.03.53-.03.21-.05.21.07.41.04.2-.03.22-.21.44-.22.22.02.2.34.39.38.19.02.26-.3.48-.25.21.08.17.17.36.27.2.09.11.23.29.33.15.12.4-.23.57-.06.18.16-.05.41.09.55.12.17.26.07.37.26.12.19-.12.36-.05.49l1.48-.62c-.1-.21-.27-.1-.42-.36-.15-.26-.05-.33-.24-.57Z"/>
    <path class="st1" d="M22.78,80.94c.3-.08.15-.33.42-.43.26-.12.53.02.8-.15.25-.18.19-.26.41-.46.22-.2.4-.04.61-.28.19-.26.07-.43.23-.69.15-.26-.34-.41-.22-.65.09-.24.62-.11.7-.41.08-.3-.07-.4-.03-.69.01-.28.39-.2.39-.47,0-.26-.35-.26-.35-.52s.04-.26.04-.52c0-.25.26-.29.24-.61-.05-.32-.42-.3-.49-.58-.06-.27.14-.66.14-.68l-1.48.62s.25.18.3.4c.05.21-.16.24-.13.43,0,.2.24.18.23.45,0,.26-.27.25-.27.51s.46.18.46.44c0,.27-.17.31-.18.53-.04.21-.14.17-.19.37-.05.2.11.28.04.49-.1.2-.4.05-.5.21-.1.17.18.36.04.54-.15.16-.23.09-.39.23-.16.14-.26.01-.42.13-.17.1.05.45-.16.55-.21.11-.35-.21-.54-.14-.2.05-.16.21-.38.24-.22.04-.29-.25-.44-.23v1.6c.24-.01.2-.21.5-.24.3-.05.32.08.62,0Z"/>
  </g>
  <g>
    <path class="st1" d="M75.79,74.94c-.04.31.25.26.23.55,0,.26-.25.41-.25.67,0,.26.11.26.11.52,0,.25-.24.3-.22.61.05.32.25.36.33.65.08.3.53.05.62.3.11.23-.36.52-.2.79.16.26.33.23.51.46.2.21-.15.4.09.62.24.22.47-.06.7.12.25.15.22.21.5.33.27.13.19.37.49.48.32.08.44-.27.72-.24.14.03.27.12.38.21.05.05.1.09.13.12.02.02.03.03.04.04,0,0,.01.01.01.01h0s0,0,0,0h0s0,0,0,0v-.8s0-.8,0-.8h0s0,0,0,0h0s0,0,0,0h-.01s-.02.02-.03.02c-.03.01-.07.03-.11.05-.09.04-.21.06-.32.05-.21-.03-.16-.24-.35-.29-.18-.07-.27.15-.46.05-.19-.09-.05-.33-.21-.43-.15-.12-.39.29-.56.14-.17-.15-.1-.32-.24-.48-.13-.17-.02-.22-.12-.4-.11-.17-.28-.12-.38-.32-.08-.21.24-.32.2-.51-.05-.19-.38-.13-.42-.35,0-.23.1-.2.1-.47,0-.26.15-.26.15-.52s-.41-.23-.41-.49c0-.27.33-.26.34-.47.04-.2-.13-.23-.07-.45.05-.22.34-.17.38-.31l-1.48-.62c-.08.22.12.26.03.55-.08.29-.2.26-.24.57Z"/>
    <path class="st1" d="M83.36,72.88c-.2-.24-.36,0-.56-.22-.21-.2-.19-.5-.44-.68-.27-.16-.31-.08-.58-.2-.27-.13-.19-.35-.5-.46-.31-.08-.43.1-.72.06-.3-.04-.25.47-.51.45-.26.01-.34-.54-.65-.49-.31.04-.34.22-.62.29-.28.11-.31-.29-.61-.16-.3.14-.13.45-.38.61-.24.17-.27.13-.5.33-.22.2-.41.03-.63.27-.2.26.08.51-.06.76-.15.24-.57.36-.58.38l1.48.62s-.05-.31.07-.49c.12-.18.28-.06.4-.21.13-.14-.03-.3.13-.45.16-.14.32.08.48-.03.17-.1-.12-.48.09-.57.2-.1.33.03.53-.03.21-.05.21.07.41.04.2-.03.22-.21.44-.22.22.02.2.34.39.38.19.02.26-.3.48-.25.21.08.17.17.36.27.2.09.11.23.29.33.15.12.4-.23.57-.06.18.16-.05.41.09.55.12.17.26.07.37.26.12.19-.12.36-.05.49l1.48-.62c-.1-.21-.27-.1-.42-.36-.15-.26-.05-.33-.24-.57Z"/>
    <path class="st1" d="M81.12,80.94c.3-.08.15-.33.42-.43.26-.12.53.02.8-.15.25-.18.19-.26.41-.46.22-.2.4-.04.61-.28.19-.26.07-.43.23-.69.15-.26-.34-.41-.22-.65.09-.24.62-.11.7-.41.08-.3-.07-.4-.03-.69.01-.28.39-.2.39-.47,0-.26-.35-.26-.35-.52s.04-.26.04-.52c0-.25.26-.29.24-.61-.05-.32-.42-.3-.49-.58-.06-.27.14-.66.14-.68l-1.48.62s.25.18.3.4c.05.21-.16.24-.13.43,0,.2.24.18.23.45,0,.26-.27.25-.27.51s.46.18.46.44c0,.27-.17.31-.18.53-.04.21-.14.17-.19.37-.05.2.11.28.04.49-.1.2-.4.05-.5.21-.1.17.18.36.04.54-.15.16-.23.09-.39.23-.16.14-.26.01-.42.13-.17.1.05.45-.16.55-.21.11-.35-.21-.54-.14-.2.05-.16.21-.38.24-.22.04-.29-.25-.44-.23v1.6c.24-.01.2-.21.5-.24.3-.05.32.08.62,0Z"/>
  </g>
  <g>
    <path class="st1" d="M66.75,74.94c-.04.31.25.26.23.55,0,.26-.25.41-.25.67,0,.26.11.26.11.52,0,.25-.24.3-.22.61.05.32.25.36.33.65.08.3.53.05.62.3.11.23-.36.52-.2.79.16.26.33.23.51.46.2.21-.15.4.09.62.24.22.47-.06.7.12.25.15.22.21.5.33.27.13.19.37.49.48.32.08.44-.27.72-.24.14.03.27.12.38.21.05.05.1.09.13.12.02.02.03.03.04.04,0,0,.01.01.01.01h0s0,0,0,0h0s0,0,0,0v-.8s0-.8,0-.8h0s0,0,0,0h0s0,0,0,0h-.01s-.02.02-.03.02c-.03.01-.07.03-.11.05-.09.04-.21.06-.32.05-.21-.03-.16-.24-.35-.29-.18-.07-.27.15-.46.05-.19-.09-.05-.33-.21-.43-.15-.12-.39.29-.56.14-.17-.15-.1-.32-.24-.48-.13-.17-.02-.22-.12-.4-.11-.17-.28-.12-.38-.32-.08-.21.24-.32.2-.51-.05-.19-.38-.13-.42-.35,0-.23.1-.2.1-.47,0-.26.15-.26.15-.52s-.41-.23-.41-.49c0-.27.33-.26.34-.47.04-.2-.13-.23-.07-.45.05-.22.34-.17.38-.31l-1.48-.62c-.08.22.12.26.03.55-.08.29-.2.26-.24.57Z"/>
    <path class="st1" d="M74.31,72.88c-.2-.24-.36,0-.56-.22-.21-.2-.19-.5-.44-.68-.27-.16-.31-.08-.58-.2-.27-.13-.19-.35-.5-.46-.31-.08-.43.1-.72.06-.3-.04-.25.47-.51.45-.26.01-.34-.54-.65-.49-.31.04-.34.22-.62.29-.28.11-.31-.29-.61-.16-.3.14-.13.45-.38.61-.24.17-.27.13-.5.33-.22.2-.41.03-.63.27-.2.26.08.51-.06.76-.15.24-.57.36-.58.38l1.48.62s-.05-.31.07-.49c.12-.18.28-.06.4-.21.13-.14-.03-.3.13-.45.16-.14.32.08.48-.03.17-.1-.12-.48.09-.57.2-.1.33.03.53-.03.21-.05.21.07.41.04.2-.03.22-.21.44-.22.22.02.2.34.39.38.19.02.26-.3.48-.25.21.08.17.17.36.27.2.09.11.23.29.33.15.12.4-.23.57-.06.18.16-.05.41.09.55.12.17.26.07.37.26.12.19-.12.36-.05.49l1.48-.62c-.1-.21-.27-.1-.42-.36-.15-.26-.05-.33-.24-.57Z"/>
    <path class="st1" d="M72.08,80.94c.3-.08.15-.33.42-.43.26-.12.53.02.8-.15.25-.18.19-.26.41-.46.22-.2.4-.04.61-.28.19-.26.07-.43.23-.69.15-.26-.34-.41-.22-.65.09-.24.62-.11.7-.41.08-.3-.07-.4-.03-.69.01-.28.39-.2.39-.47,0-.26-.35-.26-.35-.52s.04-.26.04-.52c0-.25.26-.29.24-.61-.05-.32-.42-.3-.49-.58-.06-.27.14-.66.14-.68l-1.48.62s.25.18.3.4c.05.21-.16.24-.13.43,0,.2.24.18.23.45,0,.26-.27.25-.27.51s.46.18.46.44c0,.27-.17.31-.18.53-.04.21-.14.17-.19.37-.05.2.11.28.04.49-.1.2-.4.05-.5.21-.1.17.18.36.04.54-.15.16-.23.09-.39.23-.16.14-.26.01-.42.13-.17.1.05.45-.16.55-.21.11-.36-.21-.54-.14-.2.05-.16.21-.38.24-.22.04-.29-.25-.44-.23v1.6c.24-.01.2-.21.5-.24.3-.05.32.08.62,0Z"/>
  </g>
  <g>
    <path class="st1" d="M44.58,58.95c-.04.31.25.26.23.55,0,.26-.25.41-.25.67,0,.26.11.26.11.52,0,.25-.24.3-.22.61.05.32.25.36.33.65.08.3.53.05.62.3.11.23-.36.52-.2.79.16.26.33.23.51.46.2.21-.15.4.09.62.24.22.47-.06.7.12.25.15.22.21.5.33.27.13.19.37.49.48.32.08.44-.27.72-.24.14.03.27.12.38.21.05.05.1.09.13.12.02.02.03.03.04.04,0,0,.01.01.01.01h0s0,0,0,0h0s0,0,0,0v-.8s0-.8,0-.8h0s0,0,0,0h0s0,0,0,0h-.01s-.02.02-.03.02c-.03.01-.07.03-.11.05-.09.04-.21.06-.32.05-.21-.03-.16-.24-.35-.29-.18-.07-.27.15-.46.05-.19-.09-.05-.33-.21-.43-.15-.12-.39.29-.56.14-.17-.15-.1-.32-.24-.48-.13-.17-.02-.22-.12-.4-.11-.17-.28-.12-.38-.32-.08-.21.24-.32.2-.51-.05-.19-.38-.13-.42-.35,0-.23.1-.2.1-.47,0-.26.15-.26.15-.52s-.41-.23-.41-.49c0-.27.33-.26.34-.47.04-.2-.13-.23-.07-.45.05-.22.34-.17.38-.31l-1.48-.62c-.08.22.12.26.03.55-.08.29-.2.26-.24.57Z"/>
    <path class="st1" d="M52.15,56.89c-.2-.24-.36,0-.56-.22-.21-.2-.19-.5-.44-.68-.27-.16-.31-.08-.58-.2-.27-.13-.19-.35-.5-.46-.31-.08-.43.1-.72.06-.3-.04-.25.47-.51.45-.26.01-.34-.54-.65-.49-.31.04-.34.22-.62.29-.28.11-.31-.29-.61-.16-.3.14-.13.45-.38.61-.24.17-.27.13-.5.33-.22.2-.41.03-.63.27-.2.26.08.51-.06.76-.15.24-.57.36-.58.38l1.48.62s-.05-.31.07-.49c.12-.18.28-.06.4-.21.13-.14-.03-.3.13-.45.16-.14.32.08.48-.03.17-.1-.12-.48.09-.57.2-.1.33.03.53-.03.21-.05.21.07.41.04.2-.03.22-.21.44-.22.22.02.2.34.39.38.19.02.26-.3.48-.25.21.08.17.17.36.27.2.09.11.23.29.33.15.12.4-.23.57-.06.18.16-.05.41.09.55.12.17.26.07.37.26.12.19-.12.36-.05.49l1.48-.62c-.1-.21-.27-.1-.42-.36-.15-.26-.05-.33-.24-.57Z"/>
    <path class="st1" d="M49.92,64.96c.3-.08.15-.33.42-.43.26-.12.53.02.8-.15.25-.18.19-.26.41-.46.22-.2.4-.04.61-.28.19-.26.07-.43.23-.69.15-.26-.34-.41-.22-.65.09-.24.62-.11.7-.41.08-.3-.07-.4-.03-.69.01-.28.39-.2.39-.47,0-.26-.35-.26-.35-.52s.04-.26.04-.52c0-.25.26-.29.24-.61-.05-.32-.42-.3-.49-.58-.06-.27.14-.66.14-.68l-1.48.62s.25.18.3.4c.05.21-.16.24-.13.43,0,.2.24.18.23.45,0,.26-.27.25-.27.51s.46.18.46.44c0,.27-.17.31-.18.53-.04.21-.14.17-.19.37-.05.2.11.28.04.49-.1.2-.4.05-.5.21-.1.17.18.36.04.54-.15.16-.23.09-.39.23-.16.14-.26.01-.42.13-.17.1.05.45-.16.55-.21.11-.35-.21-.54-.14-.2.05-.16.21-.38.24-.22.04-.29-.25-.44-.23v1.6c.24-.01.2-.21.5-.24.3-.05.32.08.62,0Z"/>
  </g>
  <g>
    <path class="st1" d="M35.54,58.95c-.04.31.25.26.23.55,0,.26-.25.41-.25.67,0,.26.11.26.11.52,0,.25-.24.3-.22.61.05.32.25.36.33.65.08.3.53.05.62.3.11.23-.36.52-.2.79.16.26.33.23.51.46.2.21-.15.4.09.62.24.22.47-.06.7.12.25.15.22.21.5.33.27.13.19.37.49.48.32.08.44-.27.72-.24.14.03.27.12.38.21.05.05.1.09.13.12.02.02.03.03.04.04,0,0,.01.01.01.01h0s0,0,0,0h0s0,0,0,0v-.8s0-.8,0-.8h0s0,0,0,0h0s0,0,0,0h-.01s-.02.02-.03.02c-.03.01-.07.03-.11.05-.09.04-.21.06-.32.05-.21-.03-.16-.24-.35-.29-.18-.07-.27.15-.46.05-.19-.09-.05-.33-.21-.43-.15-.12-.39.29-.56.14-.17-.15-.1-.32-.24-.48-.13-.17-.02-.22-.12-.4-.11-.17-.28-.12-.38-.32-.08-.21.24-.32.2-.51-.05-.19-.38-.13-.42-.35,0-.23.1-.2.1-.47,0-.26.15-.26.15-.52s-.41-.23-.41-.49c0-.27.33-.26.34-.47.04-.2-.13-.23-.07-.45.05-.22.34-.17.38-.31l-1.48-.62c-.08.22.12.26.03.55-.08.29-.2.26-.24.57Z"/>
    <path class="st1" d="M43.1,56.89c-.2-.24-.36,0-.56-.22-.21-.2-.19-.5-.44-.68-.27-.16-.31-.08-.58-.2-.27-.13-.19-.35-.5-.46-.31-.08-.43.1-.72.06-.3-.04-.25.47-.51.45-.26.01-.34-.54-.65-.49-.31.04-.34.22-.62.29-.28.11-.31-.29-.61-.16-.3.14-.13.45-.38.61-.24.17-.27.13-.5.33-.22.2-.41.03-.63.27-.2.26.08.51-.06.76-.15.24-.57.36-.58.38l1.48.62s-.05-.31.07-.49c.12-.18.28-.06.4-.21.13-.14-.03-.3.13-.45.16-.14.32.08.48-.03.17-.1-.12-.48.09-.57.2-.1.33.03.53-.03.21-.05.21.07.41.04.2-.03.22-.21.44-.22.22.02.2.34.39.38.19.02.26-.3.48-.25.21.08.17.17.36.27.2.09.11.23.29.33.15.12.4-.23.57-.06.18.16-.05.41.09.55.12.17.26.07.37.26.12.19-.12.36-.05.49l1.48-.62c-.1-.21-.27-.1-.42-.36-.15-.26-.05-.33-.24-.57Z"/>
    <path class="st1" d="M40.87,64.96c.3-.08.15-.33.42-.43.26-.12.53.02.8-.15.25-.18.19-.26.41-.46.22-.2.4-.04.61-.28.19-.26.07-.43.23-.69.15-.26-.34-.41-.22-.65.09-.24.62-.11.7-.41.08-.3-.07-.4-.03-.69.01-.28.39-.2.39-.47,0-.26-.35-.26-.35-.52s.04-.26.04-.52c0-.25.26-.29.24-.61-.05-.32-.42-.3-.49-.58-.06-.27.14-.66.14-.68l-1.48.62s.25.18.3.4c.05.21-.16.24-.13.43,0,.2.24.18.23.45,0,.26-.27.25-.27.51s.46.18.46.44c0,.27-.17.31-.18.53-.04.21-.14.17-.19.37-.05.2.11.28.04.49-.1.2-.4.05-.5.21-.1.17.18.36.04.54-.15.16-.23.09-.39.23-.16.14-.26.01-.42.13-.17.1.05.45-.16.55-.21.11-.35-.21-.54-.14-.2.05-.16.21-.38.24-.22.04-.29-.25-.44-.23v1.6c.24-.01.2-.21.5-.24.3-.05.32.08.62,0Z"/>
  </g>
  <g>
    <path class="st1" d="M62.67,58.95c-.04.31.25.26.23.55,0,.26-.25.41-.25.67,0,.26.11.26.11.52,0,.25-.24.3-.22.61.05.32.25.36.33.65.08.3.53.05.62.3.11.23-.36.52-.2.79.16.26.33.23.51.46.2.21-.15.4.09.62.24.22.47-.06.7.12.25.15.22.21.5.33.27.13.19.37.49.48.32.08.44-.27.72-.24.14.03.27.12.38.21.05.05.1.09.13.12.02.02.03.03.04.04,0,0,.01.01.01.01h0s0,0,0,0h0s0,0,0,0v-.8s0-.8,0-.8h0s0,0,0,0h0s0,0,0,0h-.01s-.02.02-.03.02c-.03.01-.07.03-.11.05-.09.04-.21.06-.32.05-.21-.03-.16-.24-.35-.29-.18-.07-.27.15-.46.05-.19-.09-.05-.33-.21-.43-.15-.12-.39.29-.56.14-.17-.15-.1-.32-.24-.48-.13-.17-.02-.22-.12-.4-.11-.17-.28-.12-.38-.32-.08-.21.24-.32.2-.51-.05-.19-.38-.13-.42-.35,0-.23.1-.2.1-.47,0-.26.15-.26.15-.52s-.41-.23-.41-.49c0-.27.33-.26.34-.47.04-.2-.13-.23-.07-.45.05-.22.34-.17.38-.31l-1.48-.62c-.08.22.12.26.03.55-.08.29-.2.26-.24.57Z"/>
    <path class="st1" d="M70.24,56.89c-.2-.24-.36,0-.56-.22-.21-.2-.19-.5-.44-.68-.27-.16-.31-.08-.58-.2-.27-.13-.19-.35-.5-.46-.31-.08-.43.1-.72.06-.3-.04-.25.47-.51.45-.26.01-.34-.54-.65-.49-.31.04-.34.22-.62.29-.28.11-.31-.29-.61-.16-.3.14-.13.45-.38.61-.24.17-.27.13-.5.33-.22.2-.41.03-.63.27-.2.26.08.51-.06.76-.15.24-.57.36-.58.38l1.48.62s-.05-.31.07-.49c.12-.18.28-.06.4-.21.13-.14-.03-.3.13-.45.16-.14.32.08.48-.03.17-.1-.12-.48.09-.57.2-.1.33.03.53-.03.21-.05.21.07.41.04.2-.03.22-.21.44-.22.22.02.2.34.39.38.19.02.26-.3.48-.25.21.08.17.17.36.27.2.09.11.23.29.33.15.12.4-.23.57-.06.18.16-.05.41.09.55.12.17.26.07.37.26.12.19-.12.36-.05.49l1.48-.62c-.1-.21-.27-.1-.42-.36-.15-.26-.05-.33-.24-.57Z"/>
    <path class="st1" d="M68.01,64.96c.3-.08.15-.33.42-.43.26-.12.53.02.8-.15.25-.18.19-.26.41-.46.22-.2.4-.04.61-.28.19-.26.07-.43.23-.69.15-.26-.34-.41-.22-.65.09-.24.62-.11.7-.41.08-.3-.07-.4-.03-.69.01-.28.39-.2.39-.47,0-.26-.35-.26-.35-.52s.04-.26.04-.52c0-.25.26-.29.24-.61-.05-.32-.42-.3-.49-.58-.06-.27.14-.66.14-.68l-1.48.62s.25.18.3.4c.05.21-.16.24-.13.43,0,.2.24.18.23.45,0,.26-.27.25-.27.51s.46.18.46.44c0,.27-.17.31-.18.53-.04.21-.14.17-.19.37-.05.2.11.28.04.49-.1.2-.4.05-.5.21-.1.17.18.36.04.54-.15.16-.23.09-.39.23-.16.14-.26.01-.42.13-.17.1.05.45-.16.55-.21.11-.35-.21-.54-.14-.2.05-.16.21-.38.24-.22.04-.29-.25-.44-.23v1.6c.24-.01.2-.21.5-.24.3-.05.32.08.62,0Z"/>
  </g>
  <g>
    <path class="st1" d="M71.68,60.13c.01.39.27.29.31.66.05.36-.14.63-.02,1.01.13.37.24.32.4.66.19.32-.02.47.22.79.25.31.46.25.74.5.28.26.51-.21.78,0,.28.18.05.68.41.85.35.16.49.05.85.15.36.09.15.42.55.49.4.05.44-.31.78-.3.33,0,.33.04.67.04s.35.26.68.26.38-.39.71-.39.64.34.66.34v-1.6s-.43.17-.76.17-.33-.2-.66-.2-.33.22-.67.22-.33-.27-.66-.27c-.3,0-.21.45-.52.43-.3-.04-.36-.22-.63-.29-.27-.1-.2-.19-.45-.31-.25-.11-.37.02-.62-.13-.24-.18-.03-.44-.22-.62-.18-.19-.45.06-.63-.18-.18-.23-.07-.31-.22-.55-.12-.26,0-.31-.08-.57-.08-.25-.47-.13-.53-.43-.05-.3.27-.36.26-.64,0-.28-.16-.29-.12-.58.04-.29.34-.29.38-.49l-1.53-.47c-.07.29.12.3.06.67-.06.37-.17.36-.19.75Z"/>
    <path class="st1" d="M80.95,55.49c-.38-.1-.36.17-.72.11-.35-.06-.59-.31-.93-.32-.33,0-.33.11-.67.11s-.34-.25-.67-.25-.41.21-.75.21-.23.49-.56.49c-.33.02-.43-.53-.81-.47-.38.06-.44.24-.79.35-.35.13-.37-.27-.73-.09-.36.19-.18.49-.49.7-.3.22-.32.2-.6.45-.25.28-.47.12-.71.44-.23.33.07.58-.09.9-.17.32-.59.55-.6.58l1.53.47s-.05-.39.09-.64c.14-.24.3-.15.46-.36.15-.21,0-.35.19-.56.21-.19.38,0,.59-.14.21-.15-.1-.49.16-.64.27-.14.42-.02.68-.11.28-.06.27.04.54,0,.27-.05.29-.22.59-.24.33,0,.34.34.67.34s.32-.35.66-.35.33.12.66.12.33.15.66.15c.32,0,.27-.4.59-.38.31.04.27.37.53.44.26.09.32-.07.58.06.27.12.18.41.35.51l.9-1.32c-.25-.15-.32.03-.66-.14-.34-.17-.29-.27-.66-.41Z"/>
    <path class="st1" d="M80.85,64.9c.37-.13.2-.35.54-.49.33-.15.65-.05.96-.28.31-.23.23-.32.51-.58.25-.28.45-.12.69-.45.22-.33.1-.52.26-.86.17-.35-.35-.43-.23-.75.08-.32.63-.25.69-.64.05-.38-.1-.48-.11-.85-.02-.37.36-.27.3-.67-.07-.4-.42-.32-.53-.68-.13-.35-.09-.37-.26-.71-.19-.32.03-.49-.21-.81-.25-.32-.58-.1-.83-.35-.25-.25-.36-.72-.38-.75l-.9,1.32s.39.07.59.27c.19.21.05.33.21.55.16.21.34.1.48.35.13.26-.12.36-.03.6.07.25.5.05.56.34.05.3-.1.41-.09.69-.02.29-.12.25-.16.52-.04.27.13.34.06.63-.1.28-.41.16-.53.39-.12.23.18.41.01.65-.17.24-.27.16-.46.37-.21.19-.3.09-.52.24-.22.16.02.48-.25.63-.28.14-.43-.15-.69-.06-.27.07-.23.24-.52.28-.29.05-.38-.24-.58-.22v1.6c.3-.02.25-.21.63-.25.38-.05.4.06.78-.04Z"/>
  </g>
  <g>
    <path class="st1" d="M53.63,58.95c-.04.31.25.26.23.55,0,.26-.25.41-.25.67,0,.26.11.26.11.52,0,.25-.24.3-.22.61.05.32.25.36.33.65.08.3.53.05.62.3.11.23-.36.52-.2.79.16.26.33.23.51.46.2.21-.15.4.09.62.24.22.47-.06.7.12.25.15.22.21.5.33.27.13.19.37.49.48.32.08.44-.27.72-.24.14.03.27.12.38.21.05.05.1.09.13.12.02.02.03.03.04.04,0,0,.01.01.01.01h0s0,0,0,0h0s0,0,0,0v-.8s0-.8,0-.8h0s0,0,0,0h0s0,0,0,0h-.01s-.02.02-.03.02c-.03.01-.07.03-.11.05-.09.04-.21.06-.32.05-.21-.03-.16-.24-.35-.29-.18-.07-.27.15-.46.05-.19-.09-.05-.33-.21-.43-.15-.12-.39.29-.56.14-.17-.15-.1-.32-.24-.48-.13-.17-.02-.22-.12-.4-.11-.17-.28-.12-.38-.32-.08-.21.24-.32.2-.51-.05-.19-.38-.13-.42-.35,0-.23.1-.2.1-.47,0-.26.15-.26.15-.52s-.41-.23-.41-.49c0-.27.33-.26.34-.47.04-.2-.13-.23-.07-.45.05-.22.34-.17.38-.31l-1.48-.62c-.08.22.12.26.03.55-.08.29-.2.26-.24.57Z"/>
    <path class="st1" d="M61.19,56.89c-.2-.24-.36,0-.56-.22-.21-.2-.19-.5-.44-.68-.27-.16-.31-.08-.58-.2-.27-.13-.19-.35-.5-.46-.31-.08-.43.1-.72.06-.3-.04-.25.47-.51.45-.26.01-.34-.54-.65-.49-.31.04-.34.22-.62.29-.28.11-.31-.29-.61-.16-.3.14-.13.45-.38.61-.24.17-.27.13-.5.33-.22.2-.41.03-.63.27-.2.26.08.51-.06.76-.15.24-.57.36-.58.38l1.48.62s-.05-.31.07-.49c.12-.18.28-.06.4-.21.13-.14-.03-.3.13-.45.16-.14.32.08.48-.03.17-.1-.12-.48.09-.57.2-.1.33.03.53-.03.21-.05.21.07.41.04.2-.03.22-.21.44-.22.22.02.2.34.39.38.19.02.26-.3.48-.25.21.08.17.17.36.27.2.09.11.23.29.33.15.12.4-.23.57-.06.18.16-.05.41.09.55.12.17.26.07.37.26.12.19-.12.36-.05.49l1.48-.62c-.1-.21-.27-.1-.42-.36-.15-.26-.05-.33-.24-.57Z"/>
    <path class="st1" d="M58.96,64.96c.3-.08.15-.33.42-.43.26-.12.53.02.8-.15.25-.18.19-.26.41-.46.22-.2.4-.04.61-.28.19-.26.07-.43.23-.69.15-.26-.34-.41-.22-.65.09-.24.62-.11.7-.41.08-.3-.07-.4-.03-.69.01-.28.39-.2.39-.47,0-.26-.35-.26-.35-.52s.04-.26.04-.52c0-.25.26-.29.24-.61-.05-.32-.42-.3-.49-.58-.06-.27.14-.66.14-.68l-1.48.62s.25.18.3.4c.05.21-.16.24-.13.43,0,.2.24.18.23.45,0,.26-.27.25-.27.51s.46.18.46.44c0,.27-.17.31-.18.53-.04.21-.14.17-.19.37-.05.2.11.28.04.49-.1.2-.4.05-.5.21-.1.17.18.36.04.54-.15.16-.23.09-.39.23-.16.14-.26.01-.42.13-.17.1.05.45-.16.55-.21.11-.35-.21-.54-.14-.2.05-.16.21-.38.24-.22.04-.29-.25-.44-.23v1.6c.24-.01.2-.21.5-.24.3-.05.32.08.62,0Z"/>
  </g>
  <g>
    <path class="st1" d="M47,33.65c.03.16.11.33.22.46.11.13.27.22.44.28.17.06.34.07.51.05.17-.02.35-.05.48-.15.12-.09.21-.24.28-.39l-1.86-.74c-.06.16-.09.33-.06.49Z"/>
    <path class="st1" d="M51.46,24.27c-.17.3.16.4,0,.7-.16.3-.53.33-.7.64-.17.3-.05.37-.21.68-.16.31-.44.17-.6.48-.16.31.04.5-.12.81-.16.31.44.49.29.79-.15.31-.77.06-.92.37-.15.31-.02.47-.17.78-.15.31-.51,0-.66.32-.15.32.25.5.11.82-.14.32-.19.29-.33.61-.14.32-.45.2-.58.53-.14.32.29.55.16.87-.13.32-.65.46-.66.48l1.86.74s-.03-.48.1-.79c.13-.31.36-.21.49-.52.13-.31-.12-.42.02-.73.13-.31.44-.17.58-.48.14-.31-.43-.45-.29-.76.14-.31.37-.32.51-.63.14-.31.27-.2.41-.51.15-.3-.05-.45.1-.75.15-.3.54-.12.69-.42.15-.3-.24-.49-.09-.8.16-.3.29-.23.44-.53.16-.3.32-.21.49-.51.16-.3-.3-.51-.14-.81.16-.3.53-.13.7-.43.17-.29,0-.39.17-.69.17-.3.5-.2.63-.42l-1.73-1.01c-.13.22.11.33-.06.63-.17.3-.3.22-.48.53Z"/>
    <path class="st1" d="M57.75,15.01c-.23.27.08.43-.14.7-.22.27-.6.23-.81.5-.21.28-.11.36-.32.64-.21.28-.47.09-.67.38-.21.28-.05.5-.25.79-.2.28.35.55.16.83-.19.28-.77-.06-.97.23-.2.29-.09.46-.28.75-.19.29-.51-.07-.7.22-.19.29.17.53-.02.82-.18.29-.23.27-.41.56-.18.29-.47.14-.65.44-.18.3.21.59.03.88-.18.3-.71.36-.72.38l1.73,1.01s.04-.48.22-.77c.17-.29.38-.16.56-.45.18-.29-.06-.43.12-.72.18-.29.46-.11.63-.39.18-.28-.36-.51-.17-.79.18-.28.41-.26.59-.55.19-.28.29-.16.48-.44.19-.28.01-.45.21-.73.19-.28.55-.03.74-.31.2-.27-.16-.52.04-.8.2-.27.32-.18.52-.45.21-.27.36-.15.56-.41.21-.26-.21-.55,0-.82.22-.26.55-.03.76-.28.22-.25.07-.38.3-.63.22-.25.52-.09.7-.27l-1.46-1.36c-.18.19.03.34-.2.61-.23.26-.35.16-.58.42Z"/>
    <path class="st1" d="M67.68,9.5c-.37,0-.29.34-.65.34-.36.01-.59-.28-.95-.25-.36.04-.35.17-.71.22-.37.06-.4-.25-.81-.16-.43.11-.43.39-.79.53-.35.16.01.67-.3.82-.3.17-.68-.39-1-.19-.3.2-.28.4-.57.61-.29.21-.46-.24-.76-.01-.29.23-.01.57-.29.8-.27.23-.3.19-.57.43-.26.24-.5.01-.76.26-.26.25.05.63-.2.87-.24.25-.78.2-.79.21l1.46,1.36s.14-.45.37-.69c.24-.23.41-.05.65-.28.23-.23.05-.43.29-.65.25-.22.46.02.7-.18.25-.2-.19-.59.06-.8.26-.2.47-.1.73-.29.27-.18.32-.03.58-.2.27-.16.18-.38.46-.54.28-.13.47.23.72.14.25-.1.11-.51.4-.58.3-.07.34.08.65.03.32-.05.34.14.66.11.31-.02.25-.54.58-.55.33-.02.37.4.68.4.31.02.32-.19.64-.16.31.03.34.38.55.42l.38-1.96c-.3-.06-.3.21-.67.16-.37-.03-.36-.19-.73-.2Z"/>
    <path class="st1" d="M69.72,18.04c-.05-.18-.45.11-.45-.15.04-.26.45-.49.5-.66.07-.18-.08-.19,0-.39.04-.1.14-.13.23-.15.09,0,.18-.03.26-.19.14-.3-.06-.49.09-.8.15-.31-.45-.48-.3-.79.14-.31.77-.08.92-.41.14-.33,0-.48.12-.83.12-.37.52-.05.63-.51.13-.55-.35-.56-.31-1.01-.03-.45.02-.46-.12-.9-.22-.39.04-.61-.34-.96-.41-.33-.77.05-1.15-.12-.41-.16-.69-.64-.71-.64l-.38,1.96s.12-.03.25-.06c.09-.02.22-.05.32,0,.2.08.04.29.16.38.12.1.37-.06.47.13.06.21-.29.31-.28.45-.02.14.59.1.53.35-.05.24-.3.32-.39.59-.12.3-.24.2-.37.5-.13.3.08.43-.07.74-.14.3-.53.13-.68.44-.15.31.25.49.1.81-.14.31-.31.32-.48.74-.18.43-.36.43-.5.9-.08.47.44.3.4.68-.02.19-.13.34-.2.5-.08.16-.17.32-.08.52.18.39.36.28.67.52.36.18.25.47.58.56l1.23-2.03c-.12-.01-.32.3-.53.23-.2-.09-.03-.25-.13-.41Z"/>
    <path class="st1" d="M78.75,14.96c-.49,0-.35.35-.76.4-.37.09-.71-.14-1.06.01-.35.15-.29.27-.61.42-.32.16-.46-.11-.78.05-.31.17-.27.43-.57.6-.31.17.08.65-.22.82-.3.17-.67-.39-.97-.21-.3.17-.28.38-.58.55-.3.18-.43-.29-.73-.11-.16.1-.12.18-.12.3,0,.12.02.25-.16.32-.31.11-.32.06-.63.16-.31.09-.32-.25-.48-.2-.14.03-.25.56-.51.6-.12.01-.19-.09-.21-.21-.02-.12.02-.24.01-.24l-1.23,2.03s.19-.02.41-.04c.23-.05.48-.08.71-.11.45-.04.42.2.93.11.49-.12.51-.41.84-.51.34-.11.44.21.79.08.2-.07.24-.33.25-.52,0-.12.06-.25.16-.31.29-.17.48-.06.78-.23.29-.17.33-.02.63-.19.29-.17.21-.4.5-.56.3-.17.51.2.8.04.29-.16.08-.54.38-.7.3-.15.36-.02.66-.17.29-.14.38.03.65-.09.27-.1.06-.58.36-.66.3-.08.4.33.6.32.2,0,.22-.19.4-.13.17.09-.06.37-.02.4l1.62-1.18c-.29-.34-.43-.15-.88-.43-.48-.22-.46-.36-.97-.41Z"/>
    <path class="st1" d="M80.59,17.05c.13-.12.2-.33.22-.55.01-.21-.03-.47-.2-.7h0s-1.62,1.18-1.62,1.18h0s.08.07.19.11c.1.04.26.08.41.11.15.03.33.05.51.05.18,0,.36-.07.49-.19Z"/>
  </g>
</svg>