<?xml version="1.0" encoding="UTF-8"?>
<svg id="_レイヤー_1" xmlns="http://www.w3.org/2000/svg" version="1.1" viewBox="0 0 100 100">
  <!-- Generator: Adobe Illustrator 30.0.0, SVG Export Plug-In . SVG Version: 2.1.1 Build 123)  -->
  <defs>
    <style>
      .st0 {
        stroke-miterlimit: 10;
        stroke-width: .75px;
      }

      .st0, .st1 {
        fill: none;
        stroke: #1c1917;
      }

      .st2 {
        fill: #ceb372;
      }

      .st3 {
        fill: #1c1917;
      }

      .st4 {
        fill: #231815;
      }

      .st1 {
        stroke-linecap: round;
        stroke-linejoin: round;
      }

      .st5 {
        fill: #fff;
      }
    </style>
  </defs>
  <g>
    <path class="st4" d="M67.51,92.16c-.16-.22-.37-.42-.63-.55-.82-.38-1.78-.1-2.27.62l2.9-.07Z"/>
    <path class="st4" d="M73.8,91.92c.41-.89.05-1.94-.82-2.39-.91-.43-2-.03-2.42.88-.26.55-.21,1.17.07,1.67l3.12-.08s.04-.05.05-.08Z"/>
    <path class="st4" d="M71.72,85.82c.26-.55.21-1.17-.07-1.67-.17-.3-.42-.55-.75-.72-.11-.05-.23-.09-.35-.12-.59-.14-1.21.02-1.65.42-.17.15-.31.34-.41.55h0s-.01.02-.02.03c-.21.44-.22.93-.07,1.36.07.22.19.42.34.59s.34.33.55.44c.9.42,1.97.04,2.41-.85h0s.01-.02.02-.03Z"/>
    <path class="st4" d="M79.9,89.84c.16-.33.2-.69.15-1.03-.05-.34-.19-.66-.42-.92-.15-.18-.34-.33-.55-.44-.9-.42-1.97-.04-2.41.85h0s-.01.02-.02.03c-.31.67-.19,1.43.26,1.95.15.18.34.33.55.44.9.42,1.97.04,2.41-.85h0s.01-.02.02-.03Z"/>
    <path class="st4" d="M87.61,77.22c-.35.18-.64.46-.82.84-.41.89-.05,1.94.82,2.39,0,0,0,0,.01,0,0-.12.02-.23.01-.35l-.02-2.89Z"/>
    <path class="st4" d="M85.98,86.17c-.17-.34-.43-.63-.79-.81-.91-.43-2-.03-2.42.88-.41.89-.05,1.94.82,2.39.11.05.22.09.33.11.81-.76,1.5-1.62,2.07-2.58Z"/>
    <path class="st4" d="M81.84,75.55c.41-.89.05-1.94-.82-2.39-.91-.43-2-.03-2.42.88-.41.89-.05,1.94.82,2.39.91.43,2,.03,2.42-.88Z"/>
    <path class="st4" d="M83.92,81.65c.41-.89.05-1.94-.82-2.39-.91-.43-2-.03-2.42.88-.41.89-.05,1.94.82,2.39.91.43,2,.03,2.42-.88Z"/>
    <path class="st4" d="M75.74,77.63c.41-.89.05-1.94-.82-2.39-.91-.43-2-.03-2.42.88-.41.89-.05,1.94.82,2.39.91.43,2,.03,2.42-.88Z"/>
    <path class="st4" d="M75.4,84.62c.91.43,2,.03,2.42-.88.41-.89.05-1.94-.82-2.39-.91-.43-2-.03-2.42.88-.41.89-.05,1.94.82,2.39Z"/>
    <path class="st4" d="M86.64,57.67c-.41.89-.05,1.94.82,2.39,0,0,.02,0,.02,0l-.02-3.24c-.34.18-.64.46-.82.84Z"/>
    <path class="st4" d="M84.72,71.92h0s-.01.02-.02.03c-.36.78-.13,1.68.51,2.2.09.07.19.14.3.2.57.27,1.21.21,1.71-.09.13-.08.25-.18.35-.29l-.02-2.57c-.13-.13-.27-.24-.44-.33-.23-.11-.47-.16-.7-.17-.12,0-.24,0-.35.02-.57.09-1.08.45-1.35,1Z"/>
    <path class="st4" d="M85.86,67.36c.41-.89.05-1.94-.82-2.39-.91-.43-2-.03-2.42.88-.41.89-.05,1.94.82,2.39.91.43,2,.03,2.42-.88Z"/>
    <path class="st4" d="M57.43,83.88c.41-.89.05-1.94-.82-2.39-.91-.43-2-.03-2.42.88-.41.89-.05,1.94.82,2.39.91.43,2,.03,2.42-.88Z"/>
    <path class="st4" d="M62.37,86.39c-.41.89-.05,1.94.82,2.39.91.43,2,.03,2.42-.88.41-.89.05-1.94-.82-2.39-.91-.43-2-.03-2.42.88Z"/>
    <path class="st4" d="M57.09,90.86c.91.43,2,.03,2.42-.88.41-.89.05-1.94-.82-2.39-.91-.43-2-.03-2.42.88-.41.89-.05,1.94.82,2.39Z"/>
    <path class="st4" d="M52.59,89.67c-.91-.43-2-.03-2.42.88-.33.7-.16,1.51.35,2.04l2.57-.07c.13-.14.24-.29.32-.46.41-.89.05-1.94-.82-2.39Z"/>
    <path class="st4" d="M71.57,65.42c.41-.89.05-1.94-.82-2.39-.57-.27-1.21-.21-1.71.09-.29.17-.53.43-.69.76h0s-.01.02-.02.03c-.26.55-.21,1.17.07,1.67.17.3.42.55.75.72.91.43,2,.03,2.42-.88Z"/>
    <path class="st4" d="M67.21,80.6c.91.43,2,.03,2.42-.88.41-.89.05-1.94-.82-2.39-.91-.43-2-.03-2.42.88-.41.89-.05,1.94.82,2.39Z"/>
    <path class="st4" d="M71.23,72.41c.91.43,2,.03,2.42-.88.41-.89.05-1.94-.82-2.39-.91-.43-2-.03-2.42.88-.41.89-.05,1.94.82,2.39Z"/>
    <path class="st4" d="M62.23,66c-.41.89-.05,1.94.82,2.39.91.43,2,.03,2.42-.88.41-.89.05-1.94-.82-2.39-.91-.43-2-.03-2.42.88Z"/>
    <path class="st4" d="M65.13,74.49c.91.43,2,.03,2.42-.88.41-.89.05-1.94-.82-2.39-.91-.43-2-.03-2.42.88-.41.89-.05,1.94.82,2.39Z"/>
    <path class="st4" d="M59.02,76.57c.91.43,2,.03,2.42-.88.41-.89.05-1.94-.82-2.39-.91-.43-2-.03-2.42.88-.41.89-.05,1.94.82,2.39Z"/>
    <path class="st4" d="M63.46,80.12c-.17-.3-.42-.55-.75-.72-.8-.37-1.73-.12-2.24.57-.06.09-.12.18-.17.29h0s-.01.02-.02.03c-.05.11-.09.22-.12.34-.2.8.17,1.66.94,2.05.91.43,2,.03,2.42-.88.26-.55.21-1.17-.07-1.67Z"/>
    <path class="st4" d="M59.37,69.59c.41-.89.05-1.94-.82-2.39-.91-.43-2-.03-2.42.88-.41.89-.05,1.94.82,2.39.91.43,2,.03,2.42-.88Z"/>
    <path class="st4" d="M55.35,77.77c.26-.55.21-1.17-.07-1.67-.17-.3-.42-.55-.75-.72-.91-.43-2-.03-2.42.88-.36.78-.13,1.68.51,2.2.09.07.19.14.3.2.57.27,1.21.21,1.71-.09.29-.17.53-.43.69-.76h0s.01-.02.02-.03Z"/>
    <path class="st4" d="M76.54,67.9h0s-.01.02-.02.03c-.16.33-.2.69-.15,1.03.08.57.43,1.08.97,1.36.57.27,1.21.21,1.71-.09.29-.17.53-.43.69-.76h0s.01-.02.02-.03c.21-.44.22-.93.07-1.36-.15-.43-.45-.81-.89-1.03-.57-.27-1.21-.21-1.71.09-.29.17-.53.43-.69.76Z"/>
    <path class="st4" d="M80.88,52.76c-.91-.43-2-.03-2.42.88-.41.89-.05,1.94.82,2.39.91.43,2,.03,2.42-.88.41-.89.05-1.94-.82-2.39Z"/>
    <path class="st4" d="M74.44,61.83c-.41.89-.05,1.94.82,2.39.91.43,2,.03,2.42-.88.41-.89.05-1.94-.82-2.39-.91-.43-2-.03-2.42.88Z"/>
    <path class="st4" d="M80.54,59.75c-.41.89-.05,1.94.82,2.39.91.43,2,.03,2.42-.88.41-.89.05-1.94-.82-2.39-.91-.43-2-.03-2.42.88Z"/>
    <path class="st4" d="M84.56,51.56c-.36.78-.13,1.68.51,2.2.09.07.19.14.3.2.72.33,1.53.16,2.06-.37l-.02-2.58c-.13-.12-.27-.24-.43-.32-.9-.42-1.97-.04-2.41.85h0s-.01.02-.02.03Z"/>
    <path class="st4" d="M66.25,57.81c-.41.89-.05,1.94.82,2.39.91.43,2,.03,2.42-.88.41-.89.05-1.94-.82-2.39-.91-.43-2-.03-2.42.88Z"/>
    <path class="st4" d="M72.7,48.74c-.91-.43-2-.03-2.42.88-.41.89-.05,1.94.82,2.39.91.43,2,.03,2.42-.88.41-.89.05-1.94-.82-2.39Z"/>
    <path class="st4" d="M75.59,57.24c.41-.89.05-1.94-.82-2.39-.91-.43-2-.03-2.42.88-.41.89-.05,1.94.82,2.39.91.43,2,.03,2.42-.88Z"/>
    <path class="st4" d="M67.41,53.22c.41-.89.05-1.94-.82-2.39-.91-.43-2-.03-2.42.88-.41.89-.05,1.94.82,2.39.91.43,2,.03,2.42-.88Z"/>
    <path class="st4" d="M84.9,44.58c-.91-.43-2-.03-2.42.88-.41.89-.05,1.94.82,2.39.91.43,2,.03,2.42-.88.41-.89.05-1.94-.82-2.39Z"/>
    <path class="st4" d="M78.8,46.66c-.68-.32-1.47-.18-1.99.3-.17.15-.31.34-.41.55h0s-.01.02-.02.03c-.21.44-.22.93-.07,1.36.07.22.19.42.34.59s.34.33.55.44c.9.42,1.97.04,2.41-.85h0s.01-.02.02-.03c.41-.89.05-1.94-.82-2.39Z"/>
    <path class="st4" d="M77.53,42.95c.41-.89.05-1.94-.82-2.39-.91-.43-2-.03-2.42.88-.41.89-.05,1.94.82,2.39.91.43,2,.03,2.42-.88Z"/>
    <path class="st4" d="M81.21,41.75c.6.28,1.27.2,1.79-.15-.84-.63-1.77-1.14-2.77-1.5-.01.67.35,1.32.98,1.65Z"/>
    <path class="st4" d="M36.69,91.01c.9.42,1.97.04,2.41-.85h0s.01-.02.02-.03c.16-.33.2-.69.15-1.03-.05-.34-.19-.66-.42-.92-.15-.18-.34-.33-.55-.44-.9-.42-1.97-.04-2.41.85h0s-.01.02-.02.03c-.41.89-.05,1.94.82,2.39Z"/>
    <path class="st4" d="M47.33,92.67c-.07-.17-.16-.34-.29-.48-.15-.18-.34-.33-.55-.44-.9-.42-1.97-.04-2.41.85h0s-.01.02-.02.03c-.02.04-.03.08-.04.12l3.31-.08Z"/>
    <path class="st4" d="M33.01,92.21c.41-.89.05-1.94-.82-2.39-.91-.43-2-.03-2.42.88-.41.89-.05,1.94.82,2.39,0,0,.02,0,.03,0l1.56-.04c.36-.18.66-.47.84-.85Z"/>
    <path class="st4" d="M26.1,91.9c-.91-.43-2-.03-2.42.88-.08.16-.12.33-.14.5l3.52-.09c-.1-.54-.43-1.02-.95-1.29Z"/>
    <path class="st4" d="M47.14,73.79h0s.01-.02.02-.03c.21-.44.22-.93.07-1.36-.15-.43-.45-.81-.89-1.03-.91-.43-2-.03-2.42.88-.31.67-.19,1.43.26,1.95.15.18.34.33.55.44.57.27,1.21.21,1.71-.09.29-.17.53-.43.69-.76Z"/>
    <path class="st4" d="M41.06,75.84c.41-.89.05-1.94-.82-2.39-.91-.43-2-.03-2.42.88-.41.89-.05,1.94.82,2.39.91.43,2,.03,2.42-.88Z"/>
    <path class="st4" d="M34.61,84.9c.91.43,2,.03,2.42-.88.41-.89.05-1.94-.82-2.39-.91-.43-2-.03-2.42.88-.41.89-.05,1.94.82,2.39Z"/>
    <path class="st4" d="M45.22,88.04c.41-.89.05-1.94-.82-2.39-.91-.43-2-.03-2.42.88-.41.89-.05,1.94.82,2.39.91.43,2,.03,2.42-.88Z"/>
    <path class="st4" d="M34.95,77.92c.41-.89.05-1.94-.82-2.39-.91-.43-2-.03-2.42.88-.41.89-.05,1.94.82,2.39.91.43,2,.03,2.42-.88Z"/>
    <path class="st4" d="M49.24,79.86c.41-.89.05-1.94-.82-2.39-.91-.43-2-.03-2.42.88-.41.89-.05,1.94.82,2.39.91.43,2,.03,2.42-.88Z"/>
    <path class="st4" d="M30.93,86.1c.31-.67.19-1.43-.26-1.95-.15-.18-.34-.33-.55-.44-.9-.42-1.97-.04-2.41.85h0s-.01.02-.02.03c-.05.11-.09.22-.12.34-.08.34-.06.7.05,1.02.07.22.19.42.34.59.15.18.34.33.55.44.9.42,1.97.04,2.41-.85h0s.01-.02.02-.03Z"/>
    <path class="st4" d="M48.08,84.45c-.41.89-.05,1.94.82,2.39.91.43,2,.03,2.42-.88.41-.89.05-1.94-.82-2.39-.91-.43-2-.03-2.42.88Z"/>
    <path class="st4" d="M39.9,80.43c-.41.89-.05,1.94.82,2.39.91.43,2,.03,2.42-.88.41-.89.05-1.94-.82-2.39-.91-.43-2-.03-2.42.88Z"/>
    <path class="st4" d="M51.18,65.57c.41-.89.05-1.94-.82-2.39-.91-.43-2-.03-2.42.88-.41.89-.05,1.94.82,2.39.91.43,2,.03,2.42-.88Z"/>
    <path class="st4" d="M53.26,71.67c.41-.89.05-1.94-.82-2.39-.91-.43-2-.03-2.42.88-.41.89-.05,1.94.82,2.39.91.43,2,.03,2.42-.88Z"/>
    <path class="st4" d="M54.86,64.37c.91.43,2,.03,2.42-.88.41-.89.05-1.94-.82-2.39-.91-.43-2-.03-2.42.88-.41.89-.05,1.94.82,2.39Z"/>
    <path class="st4" d="M60.17,59.86s-.01.02-.02.03c-.26.55-.21,1.17.07,1.67.17.3.42.55.75.72.91.43,2,.03,2.42-.88.31-.67.19-1.43-.26-1.95-.15-.18-.34-.33-.55-.44-.57-.27-1.21-.21-1.71.09-.2.12-.38.28-.52.48-.06.09-.12.18-.17.29h0Z"/>
    <path class="st4" d="M45.86,57.96c-.41.89-.05,1.94.82,2.39.91.43,2,.03,2.42-.88.41-.89.05-1.94-.82-2.39-.91-.43-2-.03-2.42.88Z"/>
    <path class="st4" d="M45.08,67.65c.41-.89.05-1.94-.82-2.39-.91-.43-2-.03-2.42.88-.41.89-.05,1.94.82,2.39.91.43,2,.03,2.42-.88Z"/>
    <path class="st4" d="M51.96,55.87c-.36.78-.13,1.68.51,2.2.09.07.19.14.3.2.11.05.23.09.35.12.47.11.96.03,1.36-.21.2-.12.38-.28.52-.48.06-.09.12-.18.17-.29h0s.01-.02.02-.03c.31-.67.19-1.43-.26-1.95-.15-.18-.34-.33-.55-.44-.9-.42-1.97-.04-2.41.85h0s-.01.02-.02.03Z"/>
    <path class="st4" d="M51.04,45.18c.41-.89.05-1.94-.82-2.39-.91-.43-2-.03-2.42.88-.41.89-.05,1.94.82,2.39.91.43,2,.03,2.42-.88Z"/>
    <path class="st4" d="M58.06,53.79c-.41.89-.05,1.94.82,2.39.91.43,2,.03,2.42-.88.41-.89.05-1.94-.82-2.39-.91-.43-2-.03-2.42.88Z"/>
    <path class="st4" d="M49.88,49.77c-.41.89-.05,1.94.82,2.39.91.43,2,.03,2.42-.88.41-.89.05-1.94-.82-2.39-.91-.43-2-.03-2.42.88Z"/>
    <path class="st4" d="M60,39.5c-.41.89-.05,1.94.82,2.39.57.27,1.21.21,1.71-.09.29-.17.53-.43.69-.76h0s.01-.02.02-.03c.26-.55.21-1.17-.07-1.67,0,0,0,0,0-.01l-3.05-.02c-.04.06-.08.13-.12.2Z"/>
    <path class="st4" d="M62.09,45.61c-.41.89-.05,1.94.82,2.39.91.43,2,.03,2.42-.88.41-.89.05-1.94-.82-2.39-.91-.43-2-.03-2.42.88Z"/>
    <path class="st4" d="M58.41,46.8c-.91-.43-2-.03-2.42.88-.41.89-.05,1.94.82,2.39.91.43,2,.03,2.42-.88.41-.89.05-1.94-.82-2.39Z"/>
    <path class="st4" d="M57.14,43.09c.41-.89.05-1.94-.82-2.39-.91-.43-2-.03-2.42.88-.41.89-.05,1.94.82,2.39.91.43,2,.03,2.42-.88Z"/>
    <path class="st4" d="M68.19,43.52c-.41.89-.05,1.94.82,2.39.91.43,2,.03,2.42-.88.41-.89.05-1.94-.82-2.39-.91-.43-2-.03-2.42.88Z"/>
    <path class="st4" d="M66.92,39.81c.75.35,1.61.14,2.13-.45l-2.7-.02c.15.19.34.35.57.47Z"/>
    <path class="st4" d="M22.4,89.07c.91.43,2,.03,2.42-.88.41-.89.05-1.94-.82-2.39-.91-.43-2-.03-2.42.88-.41.89-.05,1.94.82,2.39Z"/>
    <path class="st4" d="M10.54,86.25c.41-.89.05-1.94-.82-2.39-.42-.2-.87-.21-1.28-.09.43,1.1.98,2.13,1.64,3.08.19-.16.34-.36.46-.6Z"/>
    <path class="st4" d="M16.64,84.17c.41-.89.05-1.94-.82-2.39-.91-.43-2-.03-2.42.88-.41.89-.05,1.94.82,2.39.91.43,2,.03,2.42-.88Z"/>
    <path class="st4" d="M16.3,91.15c.91.43,2,.03,2.42-.88.41-.89.05-1.94-.82-2.39-.91-.43-2-.03-2.42.88-.41.89-.05,1.94.82,2.39Z"/>
    <path class="st4" d="M22.73,82.12h0s.01-.02.02-.03c.26-.55.21-1.17-.07-1.67-.17-.3-.42-.55-.75-.72-.91-.43-2-.03-2.42.88-.05.11-.09.22-.12.34-.17.69.08,1.42.63,1.86.09.07.19.14.3.2.9.42,1.97.04,2.41-.85Z"/>
    <path class="st4" d="M22.26,68.68c.91.43,2,.03,2.42-.88.41-.89.05-1.94-.82-2.39-.91-.43-2-.03-2.42.88-.41.89-.05,1.94.82,2.39Z"/>
    <path class="st4" d="M23.53,72.39c-.41.89-.05,1.94.82,2.39.91.43,2,.03,2.42-.88.41-.89.05-1.94-.82-2.39-.91-.43-2-.03-2.42.88Z"/>
    <path class="st4" d="M28.85,80c.41-.89.05-1.94-.82-2.39-.91-.43-2-.03-2.42.88-.41.89-.05,1.94.82,2.39.91.43,2,.03,2.42-.88Z"/>
    <path class="st4" d="M29.63,70.31c-.41.89-.05,1.94.82,2.39.91.43,2,.03,2.42-.88.41-.89.05-1.94-.82-2.39-.91-.43-2-.03-2.42.88Z"/>
    <path class="st4" d="M18.58,69.88c.41-.89.05-1.94-.82-2.39-.91-.43-2-.03-2.42.88-.41.89-.05,1.94.82,2.39.91.43,2,.03,2.42-.88Z"/>
    <path class="st4" d="M18.24,76.86c.91.43,2,.03,2.42-.88.41-.89.05-1.94-.82-2.39-.91-.43-2-.03-2.42.88-.41.89-.05,1.94.82,2.39Z"/>
    <path class="st4" d="M13.74,75.67c-.91-.43-2-.03-2.42.88-.36.78-.13,1.68.51,2.2.09.07.19.14.3.2.91.43,2,.03,2.42-.88.41-.89.05-1.94-.82-2.39Z"/>
    <path class="st4" d="M22.6,61.69c.26-.55.21-1.17-.07-1.67-.17-.3-.42-.55-.75-.72-.57-.27-1.21-.21-1.71.09-.29.17-.53.43-.69.76h0s-.01.02-.02.03c-.31.67-.19,1.43.26,1.95.07.09.16.17.25.24.09.07.19.14.3.2.91.43,2,.03,2.42-.88Z"/>
    <path class="st4" d="M26.62,53.51c.41-.89.05-1.94-.82-2.39-.91-.43-2-.03-2.42.88-.41.89-.05,1.94.82,2.39.91.43,2,.03,2.42-.88Z"/>
    <path class="st4" d="M33.65,62.12c-.41.89-.05,1.94.82,2.39.91.43,2,.03,2.42-.88.41-.89.05-1.94-.82-2.39-.91-.43-2-.03-2.42.88Z"/>
    <path class="st4" d="M39.75,60.04c-.41.89-.05,1.94.82,2.39.91.43,2,.03,2.42-.88.41-.89.05-1.94-.82-2.39-.91-.43-2-.03-2.42.88Z"/>
    <path class="st4" d="M25.47,58.1c-.41.89-.05,1.94.82,2.39.91.43,2,.03,2.42-.88.41-.89.05-1.94-.82-2.39-.91-.43-2-.03-2.42.88Z"/>
    <path class="st4" d="M40.1,53.05c-.91-.43-2-.03-2.42.88-.41.89-.05,1.94.82,2.39.91.43,2,.03,2.42-.88.41-.89.05-1.94-.82-2.39Z"/>
    <path class="st4" d="M35.75,68.19h0s-.01.02-.02.03c-.16.33-.2.69-.15,1.03.08.57.43,1.08.97,1.36.23.11.47.16.7.17.36.01.71-.08,1.01-.26.29-.17.53-.43.69-.76h0s.01-.02.02-.03c.21-.44.22-.93.07-1.36-.15-.43-.45-.81-.89-1.03-.57-.27-1.21-.21-1.71.09-.29.17-.53.43-.69.76Z"/>
    <path class="st4" d="M30.79,65.71c.31-.67.19-1.43-.26-1.95-.15-.18-.34-.33-.55-.44-.57-.27-1.21-.21-1.71.09-.29.17-.53.43-.69.76h0s-.01.02-.02.03c-.26.55-.21,1.17.07,1.67.17.3.42.55.75.72.57.27,1.21.21,1.71-.09.29-.17.53-.43.69-.76h0s.01-.02.02-.03Z"/>
    <path class="st4" d="M31.91,49.03c-.91-.43-2-.03-2.42.88-.41.89-.05,1.94.82,2.39.91.43,2,.03,2.42-.88.41-.89.05-1.94-.82-2.39Z"/>
    <path class="st4" d="M43.78,51.85c-.31.67-.19,1.43.26,1.95.15.18.34.33.55.44.9.42,1.97.04,2.41-.85h0s.01-.02.02-.03c.16-.33.2-.69.15-1.03-.05-.34-.19-.66-.42-.92-.15-.18-.34-.33-.55-.44-.9-.42-1.97-.04-2.41.85h0s-.01.02-.02.03Z"/>
    <path class="st4" d="M31.57,56.02c-.41.89-.05,1.94.82,2.39.91.43,2,.03,2.42-.88.41-.89.05-1.94-.82-2.39-.91-.43-2-.03-2.42.88Z"/>
    <path class="st4" d="M38.01,46.95c-.34-.16-.71-.2-1.06-.15-.23.04-.45.12-.65.24-.1.06-.2.13-.28.21-.17.15-.31.34-.41.55h0s-.01.02-.02.03c-.21.44-.22.93-.07,1.36.07.22.19.42.34.59s.34.33.55.44c.9.42,1.97.04,2.41-.85h0s.01-.02.02-.03c.41-.89.05-1.94-.82-2.39Z"/>
    <path class="st4" d="M35.93,40.85c-.91-.43-2-.03-2.42.88-.41.89-.05,1.94.82,2.39.91.43,2,.03,2.42-.88.41-.89.05-1.94-.82-2.39Z"/>
    <path class="st4" d="M39.61,39.65c-.41.89-.05,1.94.82,2.39.91.43,2,.03,2.42-.88.31-.67.18-1.43-.27-1.96l-2.64-.02c-.13.14-.24.29-.33.47Z"/>
    <path class="st4" d="M44.12,44.87c-.91-.43-2-.03-2.42.88-.41.89-.05,1.94.82,2.39.91.43,2,.03,2.42-.88.41-.89.05-1.94-.82-2.39Z"/>
    <path class="st4" d="M46.53,39.95c.85.4,1.85.07,2.33-.72l-3.09-.02c.17.31.43.57.76.74Z"/>
    <path class="st4" d="M7.64,77.75c-.08-.04-.16-.06-.24-.08v.41c-.02.99.07,1.96.24,2.9.34-.18.63-.46.81-.84.41-.89.05-1.94-.82-2.39Z"/>
    <path class="st4" d="M14.42,57.67c.16-.33.2-.69.15-1.03-.05-.34-.19-.66-.42-.92-.15-.18-.34-.33-.55-.44-.9-.42-1.97-.04-2.41.85h0s-.01.02-.02.03c-.36.78-.13,1.68.51,2.2.09.07.19.14.3.2.11.05.23.09.35.12.47.11.96.03,1.36-.21.3-.18.55-.45.71-.79Z"/>
    <path class="st4" d="M14.07,64.66c.91.43,2,.03,2.42-.88.41-.89.05-1.94-.82-2.39-.91-.43-2-.03-2.42.88-.41.89-.05,1.94.82,2.39Z"/>
    <path class="st4" d="M10.05,72.84c.91.43,2,.03,2.42-.88.41-.89.05-1.94-.82-2.39-.91-.43-2-.03-2.42.88-.41.89-.05,1.94.82,2.39Z"/>
    <path class="st4" d="M8.31,59.75c.38-.82.1-1.77-.62-2.27l-.04,3.03c.28-.18.52-.43.67-.76Z"/>
    <path class="st4" d="M10.4,65.86c.41-.89.05-1.94-.82-2.39-.68-.32-1.45-.18-1.98.29l-.04,2.69c.12.11.25.22.41.3.91.43,2,.03,2.42-.88Z"/>
    <path class="st4" d="M17.62,47.09c-.91-.43-2-.03-2.42.88-.41.89-.05,1.94.82,2.39.91.43,2,.03,2.42-.88.41-.89.05-1.94-.82-2.39Z"/>
    <path class="st4" d="M19.22,39.79c-.36.78-.13,1.68.51,2.2.09.07.19.14.3.2.57.27,1.21.21,1.71-.09.29-.17.53-.43.69-.76h0s.01-.02.02-.03c.26-.55.21-1.17-.07-1.67-.12-.22-.3-.41-.51-.56h-.5c-.57,0-1.12.04-1.67.1-.2.17-.37.37-.49.63Z"/>
    <path class="st4" d="M20.52,55.59c.41-.89.05-1.94-.82-2.39-.91-.43-2-.03-2.42.88-.41.89-.05,1.94.82,2.39.91.43,2,.03,2.42-.88Z"/>
    <path class="st4" d="M11.52,49.18c-.91-.43-2-.03-2.42.88-.41.89-.05,1.94.82,2.39.91.43,2,.03,2.42-.88.41-.89.05-1.94-.82-2.39Z"/>
    <path class="st4" d="M21.3,45.89c-.41.89-.05,1.94.82,2.39.91.43,2,.03,2.42-.88.41-.89.05-1.94-.82-2.39-.91-.43-2-.03-2.42.88Z"/>
    <path class="st4" d="M27.4,43.81c-.05.11-.09.22-.12.34-.2.8.17,1.66.94,2.05.9.42,1.97.04,2.41-.85h0s.01-.02.02-.03c.36-.78.13-1.68-.51-2.2-.09-.07-.19-.14-.3-.2-.8-.37-1.73-.12-2.24.57-.06.09-.12.18-.17.29h0s-.01.02-.02.03Z"/>
    <path class="st4" d="M13.93,44.26c.91.43,2,.03,2.42-.88.41-.89.05-1.94-.82-2.39-.3-.14-.61-.18-.92-.16-.51.29-.99.61-1.46.96-.01.03-.03.05-.05.08-.41.89-.05,1.94.82,2.39Z"/>
    <path class="st4" d="M10.25,45.46c.13-.29.18-.59.16-.89-.42.57-.8,1.17-1.13,1.81.41-.17.76-.48.97-.91Z"/>
    <path class="st4" d="M26.14,40.1c.91.43,2,.03,2.42-.88.02-.04.02-.07.04-.11l-3.34-.02c.15.42.45.79.88,1.01Z"/>
  </g>
  <path class="st5" d="M16.66,44.37l-.36,25.68c-.12,8.52,6.87,15.44,15.39,15.22l53.39-1.36c6.4-.16,11.5-5.43,11.45-11.83l-.22-29.8c-.04-6.01-4.9-10.86-10.91-10.9l-55.13-.35c-7.43-.05-13.51,5.91-13.62,13.34h.01Z"/>
  <rect class="st2" x="69" y="42.79" width="8.27" height="6.95" rx="3.12" ry="3.12" transform="translate(26.41 119.11) rotate(-89.64)"/>
  <rect class="st2" x="79.92" y="40.8" width="8.27" height="11.05" rx="3.71" ry="3.71" transform="translate(37.2 130.09) rotate(-89.64)"/>
  <rect class="st2" x="60.13" y="42.74" width="8.27" height="6.95" rx="3.12" ry="3.12" transform="translate(17.65 110.19) rotate(-89.64)"/>
  <rect class="st2" x="53" y="58.53" width="8.27" height="27.43" rx="3.71" ry="3.71" transform="translate(-15.47 128.92) rotate(-89.64)"/>
  <rect class="st2" x="24.48" y="68.58" width="8.27" height="6.95" rx="3.12" ry="3.12" transform="translate(-43.62 100.22) rotate(-89.64)"/>
  <rect class="st2" x="72.82" y="68.9" width="8.27" height="6.95" rx="3.12" ry="3.12" transform="translate(4.1 148.87) rotate(-89.64)"/>
  <rect class="st2" x="68.93" y="53.19" width="8.27" height="6.95" rx="3.12" ry="3.12" transform="translate(15.94 129.37) rotate(-89.64)"/>
  <path class="st1" d="M35.19,31.06h-2.79"/>
  <path class="st3" d="M17.16,44.38c.08,6.49.11,13.69.08,20.22.02,1.9-.08,4.83.02,6.66.25,4.23,2.64,8.19,6.1,10.57,2.61,1.86,5.81,2.63,8.99,2.47l3.37-.08c8.96-.21,31.77-.75,40.42-.96,2.2-.09,7.91-.12,10.02-.29,5.27-.6,9.57-5.38,9.54-10.7-.04-6.71-.09-20.23-.14-26.94.41-5.73-1.3-10.72-7.14-12.73-1.98-.75-7.68-.45-9.84-.55-8.55-.1-31.58-.37-40.43-.47-.62.01-.67-1,0-1,8.95.01,31.78.03,40.43.04,2.41.1,7.99-.3,10.28.55,6.41,2.14,8.71,7.78,8.24,14.15.05,6.72.19,20.25.24,26.97.05,6.13-4.9,11.68-10.98,12.38-2.33.19-7.8.25-10.19.34-8.56.24-31.57.86-40.42,1.1-2.01-.02-4.87.3-6.9-.08-7.19-.95-13.11-7.42-13.44-14.65-.18-2.06.1-4.77.08-6.81.21-6.53.34-13.72.65-20.21.06-.63.97-.63,1,0h.02Z"/>
  <path class="st1" d="M30.28,31.03c-5.99-.04-11.1,3.82-12.91,9.21"/>
  <rect class="st0" x="33.52" y="42.57" width="8.27" height="6.95" rx="3.12" ry="3.12" transform="translate(-8.62 83.41) rotate(-89.64)"/>
  <rect class="st0" x="24.95" y="42.22" width="8.27" height="7.55" rx="3.39" ry="3.39" transform="translate(-17.09 74.79) rotate(-89.64)"/>
  <rect class="st0" x="51.26" y="42.68" width="8.27" height="6.95" rx="3.12" ry="3.12" transform="translate(8.89 101.26) rotate(-89.64)"/>
  <rect class="st0" x="42.39" y="42.63" width="8.27" height="6.95" rx="3.12" ry="3.12" transform="translate(.13 92.34) rotate(-89.64)"/>
  <rect class="st0" x="33.46" y="52.97" width="8.27" height="6.95" rx="3.12" ry="3.12" transform="translate(-19.08 93.68) rotate(-89.64)"/>
  <rect class="st0" x="24.59" y="52.92" width="8.27" height="6.95" rx="3.12" ry="3.12" transform="translate(-27.85 84.76) rotate(-89.64)"/>
  <rect class="st0" x="33.37" y="68.64" width="8.27" height="6.95" rx="3.12" ry="3.12" transform="translate(-34.85 109.17) rotate(-89.64)"/>
  <rect class="st0" x="24.49" y="68.6" width="8.27" height="6.95" rx="3.12" ry="3.12" transform="translate(-43.63 100.24) rotate(-89.64)"/>
  <rect class="st0" x="81.7" y="68.96" width="8.27" height="6.95" rx="3.12" ry="3.12" transform="translate(12.87 157.81) rotate(-89.64)"/>
  <rect class="st0" x="51.2" y="53.09" width="8.27" height="6.95" rx="3.12" ry="3.12" transform="translate(-1.57 111.54) rotate(-89.64)"/>
  <rect class="st0" x="42.33" y="53.03" width="8.27" height="6.95" rx="3.12" ry="3.12" transform="translate(-10.33 102.62) rotate(-89.64)"/>
  <rect class="st0" x="79.86" y="51.22" width="8.27" height="11.05" rx="3.71" ry="3.71" transform="translate(26.73 140.38) rotate(-89.64)"/>
  <rect class="st0" x="60.07" y="53.13" width="8.27" height="6.95" rx="3.12" ry="3.12" transform="translate(7.2 120.46) rotate(-89.64)"/>
  <path class="st3" d="M53.66,31c2.77-6.8,10.7-22.37,18.44-23.57,4.28-.46,7.13.6,4.55,5.2-1,2.08-2.5,4.3,1.09,4.3,2.54,0,3.42-2.7,5.7-3.68.86-.38,2.23-.57,2.85.38.21.33.63,1.22.04,1.35-.18,0-.34-.14-.35-.32-.09-1.22-1.37-1.21-2.26-.77-1.2.58-2.22,1.86-3.27,2.81-1.43,1.28-4.04,1.53-5.48.13-1.98-2.09,4.1-7.46.59-8.28-2.82-.65-5.64.23-7.66,2.27-2.59,2.34-4.66,5.21-6.52,8.17-2.47,3.98-4.64,8.2-6.29,12.54-.33.96-1.8.46-1.43-.52h0Z"/>
</svg>