<?xml version="1.0" encoding="UTF-8"?>
<svg id="_レイヤー_1" data-name="レイヤー_1" xmlns="http://www.w3.org/2000/svg" version="1.1" viewBox="0 0 100 100">
  <!-- Generator: Adobe Illustrator 30.0.0, SVG Export Plug-In . SVG Version: 2.1.1 Build 123)  -->
  <defs>
    <style>
      .st0 {
        fill: #ceb372;
      }

      .st1 {
        fill: #1c1917;
      }

      .st2 {
        fill: #fff;
      }
    </style>
  </defs>
  <path class="st2" d="M9.23,45.12l-.2,25.97c-.07,8.62,7.05,15.57,15.67,15.29l53.99-1.72c6.48-.21,11.59-5.56,11.5-12.04l-.41-30.13c-.08-6.07-5.03-10.95-11.1-10.95H22.92c-7.52,0-13.63,6.06-13.68,13.58Z"/>
  <rect class="st0" x="62.85" y="42.5" width="7.03" height="8.36" rx="3.51" ry="3.51"/>
  <rect class="st0" x="71.82" y="42.5" width="11.18" height="8.36" rx="4.18" ry="4.18"/>
  <rect class="st0" x="53.87" y="42.5" width="7.03" height="8.36" rx="3.51" ry="3.51"/>
  <rect class="st0" x="36.47" y="68.88" width="27.74" height="8.36" rx="4.18" ry="4.18"/>
  <rect class="st0" x="17.99" y="68.88" width="7.03" height="8.36" rx="3.51" ry="3.51"/>
  <rect class="st0" x="66.89" y="68.88" width="7.03" height="8.36" rx="3.51" ry="3.51"/>
  <rect class="st0" x="62.85" y="53.02" width="7.03" height="8.36" rx="3.51" ry="3.51"/>
  <path class="st1" d="M76.56,85.27c2.8-.09,5.45-.3,7.95-1.72,2.87-1.63,5.04-4.33,5.95-7.51.85-3.01.42-6.52.38-9.6-.11-7.99-.12-16-.33-23.99-.17-6.45-5.38-11.39-11.79-11.45-1.9-.02-3.8,0-5.71,0h-28.48c-7.06,0-14.15-.2-21.21,0-.12,0-.23,0-.35,0-.83,0-1.11,1.07-.13,1.07,5.6,0,11.2,0,16.8,0h28.75c2.97,0,5.94,0,8.9,0,.43,0,.87,0,1.3,0,3.66.06,7.02,2.03,8.91,5.15s1.54,6.58,1.59,9.98l.19,14.24.15,10.72c.08,5.91-3.84,11.36-10,11.92-.92.08-1.85.08-2.77.11-.83.03-1.11,1.1-.13,1.07h0Z"/>
  <path class="st1" d="M17.29,32.18c-5.25,2.29-8.7,7.35-8.8,13.1-.05,2.86-.04,5.73-.07,8.59l-.1,12.84c-.02,2.92-.26,5.94.53,8.78,1.55,5.58,6.22,9.89,11.86,11.1,2.29.49,4.6.32,6.92.25,7.82-.25,15.65-.5,23.47-.75,6.31-.2,12.65-.24,18.95-.6.11,0,.21,0,.32-.01.83-.03,1.11-1.1.13-1.07-5.01.16-10.02.32-15.03.48l-24.43.78c-2.02.06-4.03.13-6.05.19-4.89.14-9.53-2.07-12.41-6.04-2.34-3.22-2.83-6.84-2.8-10.69l.09-11.19.09-11.07c0-.78,0-1.57.03-2.35.16-3.3,1.55-6.45,3.9-8.78,1.17-1.15,2.55-2.04,4.05-2.69.91-.4.1-1.19-.64-.86h0Z"/>
  <path class="st1" d="M30.54,50.35c.22,0-.15-.01-.16-.02-.09,0-.19-.02-.28-.04-.18-.04-.36-.1-.53-.17-.34-.14-.66-.36-.92-.61-.57-.56-.92-1.32-.96-2.12-.06-1.12-.11-2.42.61-3.35.43-.56,1.05-.95,1.75-1.02.33-.04.57-.04,1,.09.37.11.71.29,1.02.53.62.48,1.02,1.22,1.14,1.99.08.51.04,1.05.04,1.56,0,.76-.14,1.49-.61,2.11-.52.68-1.25,1.03-2.1,1.04-.3,0-.76.23-.8.57-.04.37.39.45.66.45,2.11-.03,4.13-1.62,4.3-3.8.12-1.52.06-3.21-1.08-4.36-1.52-1.52-4.04-1.61-5.74-.32-.81.61-1.39,1.5-1.59,2.5-.12.63-.07,1.3-.07,1.94.01,2.34,1.86,4.04,4.18,4.04.3,0,.76-.24.8-.57.04-.37-.39-.45-.66-.45Z"/>
  <path class="st1" d="M21.81,51.11c-2.24,0-4.07-1.83-4.07-4.07v-.72c0-2.24,1.83-4.07,4.07-4.07s4.07,1.83,4.07,4.07v.72c0,2.24-1.83,4.07-4.07,4.07ZM21.81,42.75c-1.97,0-3.57,1.6-3.57,3.57v.72c0,1.97,1.6,3.57,3.57,3.57s3.57-1.6,3.57-3.57v-.72c0-1.97-1.6-3.57-3.57-3.57Z"/>
  <path class="st1" d="M21.56,50.3c-1.52,0-2.77-1.41-2.83-2.88-.05-1.13-.11-2.39.62-3.33.93-1.19,2.59-1.33,3.77-.41.62.48,1.01,1.19,1.14,1.96.08.5.03,1.04.03,1.55,0,.76-.14,1.47-.62,2.09-.52.67-1.26,1.01-2.1,1.03-.33,0-.76.25-.79.61-.03.38.37.52.68.52,2.14-.03,4.12-1.65,4.29-3.83.13-1.54.05-3.22-1.09-4.39-1.52-1.56-4.04-1.65-5.75-.35-.82.62-1.38,1.52-1.58,2.53-.12.63-.07,1.3-.07,1.94.01,2.34,1.86,4.11,4.19,4.11.33,0,.76-.25.79-.61.03-.39-.38-.52-.68-.52Z"/>
  <path class="st1" d="M48.71,50.49c-1.62,0-2.91-1.45-3.07-2.99-.05-.5-.02-1.02-.02-1.53,0-.69.16-1.37.56-1.95s.96-1.05,1.66-1.13,1.49.19,2.05.63c.64.5,1.08,1.21,1.24,2.01.11.54.07,1.12.07,1.67,0,.76-.12,1.5-.56,2.15s-1.12,1.13-1.94,1.15c-.3,0-.78.1-.96.38s.15.37.38.36c2.08-.03,4.25-1.38,4.5-3.59.07-.59.03-1.21.03-1.8-.01-.93-.36-1.83-1-2.51-1.48-1.58-4.05-1.51-5.75-.34-.8.55-1.41,1.38-1.63,2.33-.15.66-.09,1.37-.09,2.04,0,2.21,1.74,3.87,3.95,3.87.3,0,.79-.11.96-.38s-.15-.36-.38-.36Z"/>
  <path class="st1" d="M39.7,50.37c-1.61,0-2.93-1.33-3.04-2.92-.08-1.13-.11-2.46.6-3.41.42-.56,1.05-.96,1.75-1.03-.03,0,.34-.02.19-.02s.22,0,.2,0c.17.01.34.03.5.08.41.1.79.3,1.13.57.62.49,1.02,1.22,1.15,2,.08.51.04,1.05.04,1.57,0,.76-.14,1.5-.61,2.12-.52.68-1.25,1.03-2.1,1.05-.3,0-.77.22-.81.56-.05.37.4.43.66.42,2.09-.03,4.09-1.58,4.3-3.73.15-1.51.07-3.22-1.04-4.37-1.49-1.54-3.97-1.63-5.69-.41-.84.6-1.45,1.48-1.67,2.49-.14.64-.08,1.32-.08,1.97,0,2.21,1.73,4.04,3.98,4.04.33,0,.79-.09.95-.43.14-.3-.12-.55-.43-.55Z"/>
  <path class="st1" d="M66.65,50.49c-1.62,0-2.91-1.45-3.07-2.99-.05-.5-.02-1.02-.02-1.53,0-.69.16-1.37.56-1.95s.96-1.05,1.66-1.13,1.49.19,2.05.63c.64.5,1.08,1.21,1.24,2.01.11.54.07,1.12.07,1.67,0,.76-.12,1.5-.56,2.15s-1.12,1.13-1.94,1.15c-.3,0-.78.1-.96.38s.15.37.38.36c2.08-.03,4.25-1.38,4.5-3.59.07-.59.03-1.21.03-1.8-.01-.93-.36-1.83-1-2.51-1.48-1.58-4.05-1.51-5.75-.34-.8.55-1.41,1.38-1.63,2.33-.15.66-.09,1.37-.09,2.04,0,2.21,1.74,3.87,3.95,3.87.3,0,.79-.11.96-.38s-.15-.36-.38-.36Z"/>
  <path class="st1" d="M79.11,50.49h-1.85c-.68,0-1.37.04-2.03-.18-2.23-.75-3.29-3.39-2.3-5.5.44-.93,1.3-1.75,2.34-1.91.63-.1,1.32-.03,1.96-.03s1.29-.06,1.91.06c1.09.21,2.07.95,2.62,1.92,1.2,2.13.12,5.59-2.64,5.64-.28,0-.81.1-.96.38s.12.37.38.36c2.71-.05,5.3-2.02,5.19-4.9-.05-1.35-.78-2.63-1.89-3.39-.91-.62-1.93-.81-3.01-.81-2.08,0-4.22-.2-5.97,1.17-2.15,1.68-2.37,4.98-.27,6.81,1.65,1.43,3.92,1.12,5.94,1.12.28,0,.82-.1.96-.38s-.13-.36-.38-.36Z"/>
  <path class="st1" d="M57.65,50.37c-1.61,0-2.93-1.33-3.04-2.92-.08-1.13-.11-2.46.6-3.41.42-.56,1.05-.96,1.75-1.03-.03,0,.34-.02.19-.02s.22,0,.2,0c.17.01.34.03.5.08.41.1.79.3,1.13.57.62.49,1.02,1.22,1.15,2,.08.51.04,1.05.04,1.57,0,.76-.14,1.5-.61,2.12-.52.68-1.25,1.03-2.1,1.05-.3,0-.77.22-.81.56-.05.37.4.43.66.42,2.09-.03,4.09-1.58,4.3-3.73.15-1.51.07-3.22-1.04-4.37-1.49-1.54-3.97-1.63-5.69-.41-.84.6-1.45,1.48-1.67,2.49-.14.64-.08,1.32-.08,1.97,0,2.21,1.73,4.04,3.98,4.04.33,0,.79-.09.95-.43.14-.3-.12-.55-.43-.55Z"/>
  <path class="st1" d="M30.94,61.07c-1.67,0-3.05-1.37-3.23-3-.06-.52-.02-1.06-.02-1.59,0-.71.16-1.38.55-1.98.35-.54.92-1.08,1.59-1.17.27-.04.6-.01.96.08.43.11.82.32,1.17.59.65.5,1.09,1.23,1.24,2.03.11.54.07,1.12.07,1.67,0,.78-.12,1.5-.55,2.17s-1.1,1.17-1.93,1.19c-.29,0-.78.11-.97.35-.2.25.18.26.35.26,2.05-.03,4.21-1.32,4.51-3.48.08-.6.05-1.23.04-1.84-.01-.92-.34-1.77-.96-2.45-1.45-1.58-3.97-1.47-5.69-.4-.83.52-1.48,1.34-1.72,2.3-.16.66-.11,1.36-.11,2.04,0,.95.26,1.82.89,2.55.71.83,1.8,1.28,2.88,1.28.34,0,.74-.07,1.02-.27.2-.15.22-.34-.09-.34Z"/>
  <path class="st1" d="M21.81,61.63c-2.24,0-4.07-1.83-4.07-4.07v-.72c0-2.24,1.83-4.07,4.07-4.07s4.07,1.83,4.07,4.07v.72c0,2.24-1.83,4.07-4.07,4.07ZM21.81,53.27c-1.97,0-3.57,1.6-3.57,3.57v.72c0,1.97,1.6,3.57,3.57,3.57s3.57-1.6,3.57-3.57v-.72c0-1.97-1.6-3.57-3.57-3.57Z"/>
  <path class="st1" d="M21.57,60.88c.22,0-.15-.02-.16-.02-.09,0-.19-.02-.28-.04-.18-.04-.36-.1-.53-.17-.34-.14-.66-.36-.93-.62-.57-.56-.92-1.32-.96-2.12-.06-1.13-.11-2.41.61-3.35.43-.56,1.05-.95,1.75-1.03.33-.04.57-.03,1,.09.37.11.71.29,1.02.53.62.49,1.02,1.22,1.14,1.99.08.51.04,1.05.04,1.56,0,.76-.14,1.49-.61,2.11-.52.68-1.25,1.03-2.1,1.04-.3,0-.76.23-.8.57-.04.37.39.44.66.44,2.11-.03,4.13-1.62,4.31-3.79.12-1.52.06-3.21-1.08-4.35-1.52-1.52-4.04-1.6-5.74-.31-.81.61-1.39,1.49-1.59,2.49-.12.63-.07,1.3-.07,1.94.01,2.34,1.86,4.03,4.17,4.03.3,0,.76-.23.8-.57.04-.37-.39-.44-.66-.44Z"/>
  <path class="st1" d="M30.94,76.93c-1.67,0-3.05-1.37-3.23-3-.06-.52-.02-1.06-.02-1.59,0-.71.16-1.38.55-1.98.35-.54.92-1.08,1.59-1.17.27-.04.6-.01.96.08.43.11.82.32,1.17.59.65.5,1.09,1.23,1.24,2.03.11.54.07,1.12.07,1.67,0,.78-.12,1.5-.55,2.17s-1.1,1.17-1.93,1.19c-.29,0-.78.11-.97.35-.2.25.18.26.35.26,2.05-.03,4.21-1.32,4.51-3.48.08-.6.05-1.23.04-1.84-.01-.92-.34-1.77-.96-2.45-1.45-1.58-3.97-1.47-5.69-.4-.83.52-1.48,1.34-1.72,2.3-.16.66-.11,1.36-.11,2.04,0,.95.26,1.82.89,2.55.71.83,1.8,1.28,2.88,1.28.34,0,.74-.07,1.02-.27.2-.15.22-.34-.09-.34Z"/>
  <path class="st1" d="M44.36,69.18h9.2c1.7,0,3.41,0,5.11,0,1.94,0,3.78.57,4.54,2.59.85,2.25-.49,5.13-3.08,5.15-1.34.01-2.67,0-4.01,0h-12.02c-.99,0-1.99.05-2.98,0-1.93-.09-3.56-1.45-3.87-3.39s.93-4.27,3.09-4.36c.41-.02,1.57-.65.62-.61-2.85.12-5.66,2.24-5.16,5.36.38,2.37,2.51,3.6,4.75,3.62,4.09.03,8.18,0,12.27,0h5.76c1.63,0,3.22-.13,4.58-1.16,2.55-1.93,2.25-5.95-.67-7.36-1.32-.64-2.93-.45-4.36-.45-4.28,0-8.55,0-12.83,0-.32,0-1.64.61-.93.61h0Z"/>
  <path class="st1" d="M21.57,76.73c.22,0-.15-.02-.16-.02-.09,0-.19-.02-.28-.04-.18-.04-.36-.1-.53-.17-.34-.14-.66-.36-.93-.62-.57-.56-.92-1.32-.96-2.12-.06-1.13-.11-2.41.61-3.35.43-.56,1.05-.95,1.75-1.03.33-.04.57-.03,1,.09.37.11.71.29,1.02.53.62.49,1.02,1.22,1.14,1.99.08.51.04,1.05.04,1.56,0,.76-.14,1.49-.61,2.11-.52.68-1.25,1.03-2.1,1.04-.3,0-.76.23-.8.57-.04.37.39.44.66.44,2.11-.03,4.13-1.62,4.31-3.79.12-1.52.06-3.21-1.08-4.35-1.52-1.52-4.04-1.6-5.74-.31-.81.61-1.39,1.49-1.59,2.49-.12.63-.07,1.3-.07,1.94.01,2.34,1.86,4.03,4.17,4.03.3,0,.76-.23.8-.57.04-.37-.39-.44-.66-.44Z"/>
  <path class="st1" d="M79.84,76.93c-1.67,0-3.05-1.37-3.23-3-.06-.52-.02-1.06-.02-1.59,0-.71.16-1.38.55-1.98.35-.54.92-1.08,1.59-1.17.27-.04.6-.01.96.08.43.11.82.32,1.17.59.65.5,1.09,1.23,1.24,2.03.11.54.07,1.12.07,1.67,0,.78-.12,1.5-.55,2.17s-1.1,1.17-1.93,1.19c-.29,0-.78.11-.97.35-.2.25.18.26.35.26,2.05-.03,4.21-1.32,4.51-3.48.08-.6.05-1.23.04-1.84-.01-.92-.34-1.77-.96-2.45-1.45-1.58-3.97-1.47-5.69-.4-.83.52-1.48,1.34-1.72,2.3-.16.66-.11,1.36-.11,2.04,0,.95.26,1.82.89,2.55.71.83,1.8,1.28,2.88,1.28.34,0,.74-.07,1.02-.27.2-.15.22-.34-.09-.34Z"/>
  <path class="st1" d="M70.47,76.73c.22,0-.15-.02-.16-.02-.09,0-.19-.02-.28-.04-.18-.04-.36-.1-.53-.17-.34-.14-.66-.36-.93-.62-.57-.56-.92-1.32-.96-2.12-.06-1.13-.11-2.41.61-3.35.43-.56,1.05-.95,1.75-1.03.33-.04.57-.03,1,.09.37.11.71.29,1.02.53.62.49,1.02,1.22,1.14,1.99.08.51.04,1.05.04,1.56,0,.76-.14,1.49-.61,2.11-.52.68-1.25,1.03-2.1,1.04-.3,0-.76.23-.8.57-.04.37.39.44.66.44,2.11-.03,4.13-1.62,4.31-3.79.12-1.52.06-3.21-1.08-4.35-1.52-1.52-4.04-1.6-5.74-.31-.81.61-1.39,1.49-1.59,2.49-.12.63-.07,1.3-.07,1.94.01,2.34,1.86,4.03,4.17,4.03.3,0,.76-.23.8-.57.04-.37-.39-.44-.66-.44Z"/>
  <path class="st1" d="M48.71,61.01c-1.62,0-2.91-1.45-3.07-2.99-.05-.5-.02-1.02-.02-1.53,0-.69.16-1.37.56-1.95s.96-1.05,1.66-1.13,1.49.19,2.05.63c.64.5,1.08,1.21,1.24,2.01.11.54.07,1.12.07,1.67,0,.76-.12,1.5-.56,2.15s-1.12,1.13-1.94,1.15c-.3,0-.78.1-.96.38s.15.37.38.36c2.08-.03,4.25-1.38,4.5-3.59.07-.59.03-1.21.03-1.8-.01-.93-.36-1.83-1-2.51-1.48-1.58-4.05-1.51-5.75-.34-.8.55-1.41,1.38-1.63,2.33-.15.66-.09,1.37-.09,2.04,0,2.21,1.74,3.87,3.95,3.87.3,0,.79-.11.96-.38s-.15-.36-.38-.36Z"/>
  <path class="st1" d="M39.7,60.89c-1.61,0-2.93-1.33-3.04-2.92-.08-1.13-.11-2.46.6-3.41.42-.56,1.05-.96,1.75-1.03-.03,0,.34-.02.19-.02s.22,0,.2,0c.17.01.34.03.5.08.41.1.79.3,1.13.57.62.49,1.02,1.22,1.15,2,.08.51.04,1.05.04,1.57,0,.76-.14,1.5-.61,2.12-.52.68-1.25,1.03-2.1,1.05-.3,0-.77.22-.81.56-.05.37.4.43.66.42,2.09-.03,4.09-1.58,4.3-3.73.15-1.51.07-3.22-1.04-4.37-1.49-1.54-3.97-1.63-5.69-.41-.84.6-1.45,1.48-1.67,2.49-.14.64-.08,1.32-.08,1.97,0,2.21,1.73,4.04,3.98,4.04.33,0,.79-.09.95-.43.14-.3-.12-.55-.43-.55Z"/>
  <path class="st1" d="M66.65,61.01c-1.62,0-2.91-1.45-3.07-2.99-.05-.5-.02-1.02-.02-1.53,0-.69.16-1.37.56-1.95s.96-1.05,1.66-1.13,1.49.19,2.05.63c.64.5,1.08,1.21,1.24,2.01.11.54.07,1.12.07,1.67,0,.76-.12,1.5-.56,2.15s-1.12,1.13-1.94,1.15c-.3,0-.78.1-.96.38s.15.37.38.36c2.08-.03,4.25-1.38,4.5-3.59.07-.59.03-1.21.03-1.8-.01-.93-.36-1.83-1-2.51-1.48-1.58-4.05-1.51-5.75-.34-.8.55-1.41,1.38-1.63,2.33-.15.66-.09,1.37-.09,2.04,0,2.21,1.74,3.87,3.95,3.87.3,0,.79-.11.96-.38s-.15-.36-.38-.36Z"/>
  <path class="st1" d="M79.11,61.01h-1.85c-.68,0-1.37.04-2.03-.18-2.23-.75-3.29-3.39-2.3-5.5.44-.93,1.3-1.75,2.34-1.91.63-.1,1.32-.03,1.96-.03s1.29-.06,1.91.06c1.09.21,2.07.95,2.62,1.92,1.2,2.13.12,5.59-2.64,5.64-.28,0-.81.1-.96.38s.12.37.38.36c2.71-.05,5.3-2.02,5.19-4.9-.05-1.35-.78-2.63-1.89-3.39-.91-.62-1.93-.81-3.01-.81-2.08,0-4.22-.2-5.97,1.17-2.15,1.68-2.37,4.98-.27,6.81,1.65,1.43,3.92,1.12,5.94,1.12.28,0,.82-.1.96-.38s-.13-.36-.38-.36Z"/>
  <path class="st1" d="M57.65,60.89c-1.61,0-2.93-1.33-3.04-2.92-.08-1.13-.11-2.46.6-3.41.42-.56,1.05-.96,1.75-1.03-.03,0,.34-.02.19-.02s.22,0,.2,0c.17.01.34.03.5.08.41.1.79.3,1.13.57.62.49,1.02,1.22,1.15,2,.08.51.04,1.05.04,1.57,0,.76-.14,1.5-.61,2.12-.52.68-1.25,1.03-2.1,1.05-.3,0-.77.22-.81.56-.05.37.4.43.66.42,2.09-.03,4.09-1.58,4.3-3.73.15-1.51.07-3.22-1.04-4.37-1.49-1.54-3.97-1.63-5.69-.41-.84.6-1.45,1.48-1.67,2.49-.14.64-.08,1.32-.08,1.97,0,2.21,1.73,4.04,3.98,4.04.33,0,.79-.09.95-.43.14-.3-.12-.55-.43-.55Z"/>
  <path class="st1" d="M46.34,31.28c2.97-7.06,14.36-30.28,24.16-22.43.24.65.11,1.24-.02,1.75-.42,1.78-1.76,3.57-1.85,5.32.02.07,0,.09.13.15,1.02.3,2.23-.05,3.3-.39,1.56-.69,6.95-4.77,7.53-1.08,0,.17-.24.19-.26.02-.18-1.81-2.15-1.26-3.25-.59-2.27,1.13-4.14,2.89-6.78,3.17-.67.09-1.6-.19-1.8-1-.67-2.76,5.41-7.7-.03-7.9-2.98-.32-5.51,1.2-7.48,3.36-2.72,2.8-4.89,6.14-6.84,9.57-1.95,3.44-3.63,7.09-4.93,10.76-.46,1.24-2.35.56-1.87-.71h0Z"/>
</svg>