<?xml version="1.0" encoding="UTF-8"?>
<svg id="_レイヤー_1" xmlns="http://www.w3.org/2000/svg" version="1.1" viewBox="0 0 130 100">
  <!-- Generator: Adobe Illustrator 30.0.0, SVG Export Plug-In . SVG Version: 2.1.1 Build 123)  -->
  <defs>
    <style>
      .st0 {
        fill: #ceb372;
      }

      .st1 {
        fill: none;
        stroke: #000;
        stroke-linecap: round;
        stroke-linejoin: round;
      }

      .st2 {
        fill: #1c1917;
      }

      .st3 {
        fill: #fff;
      }
    </style>
  </defs>
  <g>
    <path class="st0" d="M32.88,77.75c.03,2.35-5.04,5.28-8.37,3.78-1.08-.49-2.58-1.71-2.64-3.45-.08-2.1,1.98-3.39,2.16-3.5,1.34-.81,2.71-.65,3.47-.55,2.33.3,5.37,1.91,5.39,3.71Z"/>
    <path class="st0" d="M23.48,76.71c-.24-2.53-3.83-4.57-6.77-3.95-2.29.49-3.46,2.44-3.7,2.87-.1.68-.17,1.98.59,3.18,1.53,2.38,5.6,3.09,8.01,1.38.13-.09,2.06-1.5,1.87-3.48Z"/>
    <path class="st0" d="M30.64,66.49c-.3.23-.69,1.12-1.09,1.63-1.78,2.24-2.64,6.53-.36,8.27,1.16.89,2.5,1.11,3.97,1.1,2.03-.02,3.42-1.08,4.75-2.37-.47-1.2-1.77-7.02-3.48-8.86-1.99.25-2.7.8-3.79.23Z"/>
    <path class="st0" d="M15.55,74.53c.2,1.38-1.18,2.63-1.72,3.11-3.84,3.46-5.19-.02-10.61.67-.56.07-1.07-.38-1.03-.93.19-2.7,1.99-5.5,2.37-5.88,3.38-3.34,10.59.25,10.99,3.04Z"/>
    <path class="st3" d="M32.94,52.68s-1.47-.31-3.07-.44c-4.21-.34-6.16,2.09-6.83,5.38-.84,4.13,3.31,8.26,6.85,8.92,2.36.44,3.3-.88,4.82-.01.36,1.57.76,4.82,3.33,8.46,1.29,1.83,3.02,3.33,4.72,4.8,10.37,8.98,22.98,8.03,23.02,8.02h0s9.79-.46,16.73-5.04c3.76-2.48,10.51-10.26,12.21-18.47,1.6.03,5.91-.6,8.94-2.96,1.48-1.49,3.36-4.05,2.48-7.06-.75-2.55-3.98-4.4-6.37-3.97-1.68.3-2.62,1.68-3.22,1.27-.52-.35.46-7.29.61-9.47,0,0-7.54-7.81-13.28-12.42-5.42-4.35-8.13-6.52-8.44-6.63-7.12-2.57-15.72,3.3-32.93,15.04-2,1.36-5.59,3.85-7.81,8.47-1.16,2.41-1.58,4.64-1.75,6.12Z"/>
    <path class="st0" d="M100.07,72.02c1.3-.89,2.66-.82,3.26-.79,1.76.08,2.93.92,3.86,1.59.69.5.97.82,1.1,1.17.18.46.07.99.05,2.12-.05,2.22-3.12,3.93-5.42,3.73-.68-.06-1.17-.27-1.53-.42-.46-.2-3.24-1.41-3.36-3.87-.09-2.03,1.81-3.36,2.04-3.51Z"/>
    <path class="st0" d="M107.17,73.12c.26-.6.99-2.07,2.61-2.88.43-.22,1.12-.55,2.04-.51,1.72.09,2.83,1.46,3.23,1.94.52.64.73,1.19.78,1.33.09.24.36,1.03.23,1.86-.21,1.35-1.39,2.16-1.86,2.48-2.48,1.69-5.78.46-6.23.28"/>
    <path class="st0" d="M91.31,73.5c.95,1.78,2.92,2.34,3.47,2.49.51.14,3.27.92,4.94-.76,1.05-1.05,1.16-2.48,1.1-2.93-.33-2.39-1.71-3.98-1.71-3.98-.42-.48-3.56-3.54-5-2.5-.59,2.74-1.85,5.64-2.8,7.67Z"/>
    <path class="st0" d="M115.65,74.92c1.56.4,2.63.22,3.33-.02.49-.17.98-.44,1.93-.68,0,0,.85-.17,1.6-.26,1.01-.12,2.52.03,4.54,1.44,1.52-3.41,1.2-6.98-.76-8.85-1.16-1.11-2.74-1.48-3.26-1.58-2.24-.42-4.04.33-4.59.62-1.42.73-4.2,3.67-4.64,5.28l1.86,4.06Z"/>
    <path d="M34.03,53.8c.17,4.02.71,7.94,1.6,11.89.82,3.94,1.92,7.74,4.65,10.52,8.08,8.87,20.91,13.03,32.62,10.01,8.87-1.86,16.38-8.52,19.97-16.77.97-2.88,1.54-5.88,2.09-8.86.02-.16.3-.12.26.04-.73,3.98-1.14,8.22-3.21,11.78-3.03,5.33-7.45,10.06-13.04,12.77-5.62,2.57-11.97,3.77-18.13,3.1-6.17-.67-12.28-2.9-17.24-6.68-3.32-2.54-6.68-5.44-8.25-9.44-2.23-5.86-3.28-12-3.76-18.22-.06-1.6,2.31-1.75,2.42-.13h0Z"/>
    <path class="st1" d="M32.7,52.62c-.91-.23-1.75-.61-2.71-.73-3.91-.51-7.1,2.45-7.2,5.8-.08,7.28,7.42,9.87,11.5,8.63"/>
    <path d="M96.25,51.49c1.04-.61,2.1-1.23,3.3-1.53,2.45-.64,5.07.74,6.48,2.78,2.15,3.47-.12,7.94-3.28,9.92-1.15.84-7.92,3.91-8.02,1.33.06-.45.47-.77.92-.71,2.21.38,4.54-.67,6.48-1.63,4.25-2.31,5.88-8.46.87-10.94-2.14-1.35-4.71-.35-6.74.77h0Z"/>
    <path d="M67.65,75.14c-2.01,2.53-5.52,3.22-8.54,2.42-1.02-.25-1.92-.83-2.59-1.73-.06-.08-.04-.2.04-.26.13-.1.3,0,.31.16.03.13.27.24.48.43,2.05,1.58,5.25,1.32,7.45.2.81-.46,1.51-1.1,2.08-1.84.41-.53,1.21.11.78.63h0Z"/>
    <path d="M60.37,61.24c.2,1.32-.37,2.97-1.65,3.66-.38.21-.57.39-.71.68-.3.67.01,1.21.58,1.64.65.56,1.44.54,2.21.77.3.07.24.54-.07.53-1.91.25-4.59-1.12-3.57-3.35.41-.93,1.4-1.04,1.94-1.76.46-.56.64-1.35.69-2.17.01-.35.55-.36.58-.01h0Z"/>
    <path d="M83.17,51.08c-2.6-1.8-5.81-2.25-8.8-1.33-.28.09-.46-.32-.22-.47,1.44-.93,3.25-1.28,4.95-1.04,1.72.24,3.37,1.06,4.51,2.33.27.29-.13.74-.44.51h0Z"/>
    <path d="M51.11,50.42c-2.68-.59-5.54.05-7.73,1.76-.14.11-.33-.1-.2-.22,2.02-2.15,5.24-3.14,8.14-2.51.63.14.43,1.11-.21.98h0Z"/>
    <ellipse class="st2" cx="48.25" cy="58.95" rx="2.15" ry="1.29" transform="translate(-11.43 106.29) rotate(-89.12)"/>
    <ellipse class="st2" cx="78.59" cy="57.93" rx="2.15" ry="1.29" transform="translate(19.47 135.62) rotate(-89.12)"/>
    <path class="st0" d="M96.43,50.85c1.18.02,1.2-.87,4.78-1.38,1.02-.81,2.32-2.58,2.47-9.26.09-3.94.21-9.45-2.19-14.97-6.44-14.81-25.77-17.56-28.31-17.92-3.16-.45-14.48-2.46-25.94,4.08-8.91,5.09-19.88,14.53-20.15,28.77-.07,3.65,1.37,8.57,2.71,11.1.29.98,1.38,2.68,3.46,2.8,3.39.19,5.83-4.04,12.84-9.55,6.81-5.35,10.87-5.5,19.95-10.62,5.53-3.11,9.48-6.94,12.1-9.96,0,0,6.56,12.97,9.02,16.5,2.05,2.94,9.38,10.04,9.25,10.4Z"/>
    <path class="st3" d="M32.69,54.81c5.15-7.65,12.22-14.25,20.97-17.5,8.7-2.83,16.57-8.33,21.4-16.18.73-1.1,2.39.06,1.55,1.12-4.48,5.44-9.9,10.06-16.29,13.03-4.22,1.91-8.75,2.93-12.73,5.34-6,3.46-10.86,8.59-14.71,14.3-.07.12-.27,0-.18-.12h0Z"/>
  </g>
  <path class="st3" d="M30.16,40.61c.76-15.59,18.04-28.95,32.96-29.61-12.99,1.02-26.69,11.79-31.2,23.93-.67,1.83-1.21,3.75-1.28,5.67.02.31-.49.33-.48,0h0Z"/>
  <path class="st3" d="M37.33,32.01c2.66-7.51,9.21-13.49,16.89-15.56.11-.03.18.15.06.19-5.58,1.91-10.51,5.52-13.91,10.32-1.14,1.59-2.12,3.3-2.93,5.09-.03.07-.15.03-.12-.05h0Z"/>
</svg>