<?xml version="1.0" encoding="UTF-8"?>
<svg id="_レイヤー_1" xmlns="http://www.w3.org/2000/svg" version="1.1" viewBox="0 0 120 100">
  <!-- Generator: Adobe Illustrator 30.0.0, SVG Export Plug-In . SVG Version: 2.1.1 Build 123)  -->
  <defs>
    <style>
      .st0 {
        fill: #ceb372;
      }

      .st1 {
        fill: #1c1917;
      }

      .st2 {
        fill: #fff;
      }
    </style>
  </defs>
  <path class="st2" d="M32.91,51.69c-.78.18-1.17-1.16-2.54-1.5-2.15-.54-5.46,1.69-6.12,4.56-.83,3.61,2.71,7.33,5.8,7.99,2.06.44,2.92-.69,4.23.1,1.91,1.15.55,4.25,2.72,7.5,1.09,1.63,2.57,2.99,4.03,4.32,8.91,8.13,20.01,7.58,20.01,7.58,2.24,0,6.72-.06,11.71-2.48,4.78-2.32,7.56-5.61,9.07-7.43,2.99-3.62,3.08-7.38,5.77-9.76,1.97-.62,3.45.48,6.43-2.38,1.33-1.28,3.93-3.77,3.22-6.43-.6-2.25-3.39-3.96-5.49-3.63-1.48.23-2.33,1.41-2.86,1.04-.45-.32-.06-1.34.12-3.24,0,0,.08-.9.01-3.36-.11-3.77-5.81-8.72-10.74-12.9-4.66-3.94-6.99-5.91-7.26-6.02-6.19-2.43-13.87,2.53-29.25,12.43-3.36,2.16-5.94,4.01-7.05,7.25-.97,2.83-.63,6.09-1.82,6.37h0Z"/>
  <path class="st2" d="M89.16,50.43c.4-.02,3.05-.62,3.63-.93,1.66-.89,2.2-3.04,2.49-5.49.69-5.78,1.23-10.31-1.44-15.24-1.93-3.57-4.48-5.39-7.67-7.68-2.81-2.02-9-6.33-18.25-7.27-8.66-.88-15.16,1.69-18.36,3-4.14,1.69-16.82,6.88-18.26,16.27-.25,1.65.07,4.18.72,9.23.94,7.3,2.08,9.33,2.53,9.29.13,0,.35-.24.81-.67.3-.28.55-.59.76-.93.64-1.06.93-2.26,1.44-3.38,1.41-3.13,3.87-5.28,6.68-7.09,1.9-1.22,3.97-1.9,6.25-1.96,1.86-.05,3.75-.13,5.57-.51,3.85-.81,7.68-1.73,11.07-3.86,2.51-1.58,4.98-3.22,6.26-6.07h.71c.68,1.9,1.81,4.03,2.75,5.83,1.37,2.63,3.09,4.98,5.41,6.83,1.72,1.37,3.65,2.42,5.74,3.13.39.13.68.34.85.63.07.13.12.35.15.56.02.18.02.33.01.44h0l.14,5.88h.01Z"/>
  <path class="st2" d="M32.4,72.64c0,.38-.11.76-.35,1-1.48,1.52-3.2,2.31-5.33,2.5-.63.06-1.25-.02-1.76-.38-.61-.44-1.26-.83-1.74-1.66-.2-.35-.47-.81-.5-1.43-.07-1.28.91-2.53,1.97-3.02.74-.34,1.68-.37,2.46-.4h.59"/>
  <path class="st2" d="M89.85,72.84c.66,1.21,1.45,2.27,2.63,2.85.24.12.72.34,1.34.41,2.01.23,4.74-1.2,4.84-3.14.09-1.74-1.98-2.99-2.25-3.15-1.25-.75-2.56-.75-2.96-.75-.51,0-.93.08-1.23.15"/>
  <path class="st2" d="M23.53,70.1c-.72-.6-1.2-1.42-2.09-1.9-1.3-.7-2.5-.51-3.73-.03-.48.18-.94.42-1.36.74-.77.56-.75.67-.85,1.49v1.06c-.3,1.91,1.83,3.47,3.31,3.7,1.46.22,2.94.2,4.14-.9"/>
  <path class="st2" d="M97.71,70.31c.24-.52.91-1.79,2.36-2.47.39-.18,1-.46,1.8-.4,1.51.12,2.45,1.35,2.79,1.78.44.57.61,1.06.65,1.19.07.21.29.91.16,1.64-.22,1.18-1.27,1.86-1.69,2.13-2.22,1.43-5.09.27-5.47.1"/>
  <path class="st2" d="M83.78,70.28c.21.32.53.75.99,1.21.53.53,1.01,1.03,1.77,1.29.68.24,1.44.27,2.3.08.83-.18,1.59-.38,2.28-.87.89-.63,1.18-1.43,1.03-2.54-.19-1.5-.69-2.65-1.41-3.53-.38-.47-1.74-2.22-3.68-2.29h-.17"/>
  <path class="st2" d="M105.16,73.03c.49.23.86-.07,1.27-.25,1.4-.64,3.17-1.5,4.72-1.37,1.21.1,2.22.64,3.18,1.32.85-.33,1.54-2.71,1.27-3.72l-.86-3.33c-.02-.12-.06-.69-.2-.76-.91-.47-1.78-1.12-2.72-1.38-1.33-.37-2.73-.2-4.05.44-1.26.61-3.37,2.39-3.78,3.79l1.18,5.28v-.02Z"/>
  <path class="st2" d="M30.72,63.18c-.27.19-.64.49-1.01.93-1.61,1.92-2.46,5.67-.51,7.25,1,.8,2.16,1.03,3.46,1.06,1.78.03,3.03-.87,4.23-1.97-.38-1.06-1.54-5.22-3-6.88-1.29-1.46-2.23.13-3.17-.39Z"/>
  <path class="st2" d="M4.85,66.35c.19-.27.37-.2.66-.65.08-.13.29-.37.61-.51.14-.06.28-.08.43-.09.94-.07,1.8.03,2.59.28,2.02.64,3.28,2.19,3.41,2.34.7.85,1.01,1.6,1.45,1.53.48-.08.51-1.04,1.12-1.19.56-.14,1.16.51,1.23.59,1.07,1.17.98,3.77-.42,4.73-.31.21-1.28.76-1.89.44-.14-.07-.43-.29-.85-.29-.19,0-.32.04-.36.05-.8.22-3.33-.26-3.33-.26-3.11-.58-3.48-.47-3.78-.28-.57.37-.74.98-1.14.91-.29-.05-.61-.54-.57-.99.03-.35-.91-1.45-.83-1.54.89-.96.72-3.72,1.66-5.08h.01Z"/>
  <path class="st0" d="M103.71,67.61c.44-.94,1.18-1.08,1.86-.34"/>
  <path class="st1" d="M90.15,44.25c-.06-2.02-2.4-2.15-3.89-2.94-1.77-.94-3.4-2.16-4.77-3.62-2.81-2.98-4.83-7.07-6.24-10.88-.05-.14-.28-.18-.4-.18h-.71c-.51.01-1.58.13-1.84.68-1.77,3.68-5.92,6.2-9.63,7.58-2.06.77-4.23,1.29-6.39,1.72s-4.42.31-6.64.59c-3.64.46-6.88,2.34-9.57,4.77-1.3,1.18-2.43,2.55-3.25,4.1-.98,1.85-1.25,4.23-3.12,5.47-.4.27-.23.44.14.53.46.11,1.21-.17,1.59-.43,1.79-1.19,2.29-2.91,3.07-4.8s1.9-3.4,3.33-4.75c1.56-1.48,3.53-2.96,5.59-3.63s4.43-.41,6.61-.67c4.11-.5,8.48-1.64,12.17-3.52,3.26-1.66,6.69-3.94,8.32-7.33l-1.84.67h.71c-.13-.06-.27-.12-.4-.18,1.35,3.65,3.26,7.48,5.82,10.44,1.3,1.51,2.85,2.8,4.57,3.81.8.47,1.63.88,2.48,1.23,1.13.47,2,.57,2.04,1.95.01.42,2.27.06,2.25-.6h0Z"/>
  <path class="st1" d="M42.08,74.27c-1.52-1.39-3.08-2.81-4.18-4.58-1.06-1.71-1.69-3.64-2.16-5.59-.99-4.13-1.81-8.46-1.72-12.72.1-2.88.2-5.65-.61-8.44-.76-2.59-1.47-5.32-1.33-8.05.14-2.67,1.52-4.97,2.95-7.15,1.53-2.34,3.25-4.54,5.54-6.17.39-.28.24-.44-.14-.53-.45-.11-1.23.17-1.59.43-2.13,1.52-3.83,3.43-5.31,5.57-1.56,2.26-3.22,4.71-3.61,7.49-.39,2.72.27,5.56,1,8.17.42,1.51.82,2.96.91,4.53.09,1.58,0,3.17-.06,4.75-.1,4.38.75,8.87,1.81,13.11.49,1.94,1.16,3.86,2.28,5.54s2.61,3.06,4.09,4.41c.45.41,2.5-.44,2.12-.78h.01Z"/>
  <path class="st1" d="M94.27,49.5c.18-1.1,1.06-2.11,1.47-3.16.5-1.28.81-2.62,1.02-3.98.43-2.77.23-5.54-.28-8.29-.41-2.23-.9-4.53-2.01-6.54s-2.91-3.65-4.72-5.12c-3.78-3.09-8.3-6.32-13.18-7.26-2.48-.47-4.9-1.19-7.4-1.56s-4.87-.25-7.33.06c-6.07.76-12.15,2.38-17.7,4.96-.36.17-.6.36-.27.62s1.29-.14,1.58-.28c4.69-2.19,9.8-3.53,14.92-4.28,2.63-.38,5.21-.51,7.83-.05,2.25.4,4.45,1.01,6.69,1.45,4.57.9,8.8,3.96,12.38,6.82,1.78,1.42,3.6,2.95,4.77,4.93,1.03,1.73,1.53,3.7,1.94,5.65.61,2.9.98,5.88.6,8.84-.19,1.42-.5,2.83-1,4.18-.41,1.12-1.36,2.21-1.55,3.38-.09.57,2.13.19,2.23-.38h.01Z"/>
  <path class="st1" d="M45.69,27.18c-3.34.44-6.72,1.44-9.53,3.35-2.4,1.63-3.99,4.03-4.81,6.79-.18.59,1.34.4,1.51-.16.73-2.45,2.12-4.65,4.26-6.1,2.48-1.68,5.45-2.57,8.4-2.95.28-.04.81-.2.84-.54s-.42-.41-.66-.38h-.01Z"/>
  <path class="st1" d="M73.45,18.72c-3.84-.84-7.85,1.38-10.65,3.82-1.6,1.39-3.18,2.76-5.16,3.6-2.26.96-4.54.95-6.95.89-.51-.01-1.61.74-.61.77,3.92.1,7.46-.36,10.79-2.58,3.54-2.36,6.81-6.81,11.64-5.76.42.09,1.75-.57.94-.75h0Z"/>
  <path class="st1" d="M57.56,31.35c-2.74.86-5.45,1.02-8.27,1.38-2.23.29-4.43.84-6.51,1.71-4.15,1.72-8.27,4.75-9.66,9.19-.08.26,1.36.1,1.48-.27,1.4-4.5,5.64-7.58,9.93-9.08,2.33-.82,4.69-.99,7.13-1.23,2.19-.22,4.32-.72,6.41-1.38,1.02-.32.06-.49-.51-.31h0Z"/>
  <path class="st1" d="M71.98,21.63c-.78.56-1.22,1.39-1.82,2.11s-1.34,1.43-2.1,2.04c-1.58,1.25-3.35,2.21-5.15,3.09-.27.13-.57.46-.36.77s.74.24,1.02.11c1.86-.92,3.72-1.92,5.36-3.2.78-.61,1.52-1.28,2.18-2.02s1.09-1.67,1.87-2.23c.27-.19.37-.55.08-.77s-.8-.1-1.08.09h0Z"/>
  <path class="st1" d="M74.66,18.84c3.14,1.37,6.51,2.63,9.43,4.43,2.4,1.48,4.38,3.51,5.88,5.89,1.7,2.7,2.6,5.72,2.9,8.88.33,3.43-.03,7.51-1.81,10.54-.42.72,1.1.73,1.44.17,1.72-2.93,2.17-6.86,1.95-10.19s-1.11-6.76-2.9-9.73c-1.53-2.54-3.63-4.74-6.14-6.32-3.05-1.92-6.59-3.23-9.89-4.67-.62-.27-1.74.62-.87,1.01h.01Z"/>
  <path class="st1" d="M70.86,16.11c-3.45.15-6.91-.43-10.17,1.02-.82.36-1.5.86-2.18,1.45-1.03.89-2.1,1.59-3.35,2.14-3.82,1.69-7.84,1.93-11.9,2.63-.98.17-1.89.34-2.73.85-1.22.74-2.7,1.15-4.06,1.61-1.01.34-.07.62.54.42,1.38-.46,2.93-.86,4.2-1.58.14-.08.64-.46.59-.44.35-.17,1.52-.28,2.12-.37,3.52-.51,6.99-.89,10.35-2.12,1.37-.5,2.73-1.09,3.96-1.9.76-.5,1.4-1.14,2.12-1.7,2.71-2.11,6.71-1.19,9.89-1.33.45-.02,1.63-.72.63-.67h-.01Z"/>
  <path class="st1" d="M74.94,22.37c1.88,1.65,3.79,3.28,5.89,4.64s4.36,2.5,6.06,4.49c1.51,1.76,2.52,3.87,3.11,6.11.85,3.2.29,6.23-.8,9.29-.21.6,1.31.43,1.51-.15,1.04-2.93,1.65-5.93.92-9.02-.54-2.28-1.5-4.48-2.94-6.34-1.51-1.95-3.45-3.21-5.54-4.46-2.47-1.48-4.67-3.3-6.84-5.19-.46-.4-1.87.2-1.38.63h.01Z"/>
  <path class="st1" d="M74.26,24.37c1.97,3.63,4.95,6.64,8.04,9.32,1.41,1.22,2.79,2.42,3.89,3.94s1.93,3.36,2.42,5.25c.11.43,1.62.04,1.5-.4-.95-3.67-3.07-6.46-5.91-8.9-3.23-2.78-6.4-5.83-8.45-9.61-.24-.44-1.68.07-1.5.4h.01Z"/>
  <path class="st1" d="M89.02,51.5c.94-.11,1.74-.59,2.65-.75.78-.14,1.51,0,2.2.38,1.28.71,2.32,1.81,2.48,3.32.18,1.67-.64,3.29-1.8,4.44s-2.82,1.76-4.42,2.21c-.48.13-1.05.57-.9,1.13s.89.66,1.35.53c3.23-.9,6.51-2.59,7.7-5.97.52-1.49.54-3.13-.19-4.55-.66-1.29-1.91-2.24-3.21-2.84-.88-.41-1.88-.53-2.84-.43-.54.06-1.06.17-1.57.36-.41.15-.84.37-1.28.42-.51.06-1.18.36-1.23.95-.05.56.58.87,1.06.81h0Z"/>
  <path class="st1" d="M61.62,70.95c-.47.55-1.01,1.05-1.66,1.37-.12.06-.23.11-.4.16-.2.07.13-.03-.07.02-.02,0-.22.06-.16.04-.23.05-.57.09-.9.1-.77.02-1.57-.07-2.26-.43-.37-.19-.71-.43-1.01-.71-.34-.31-.59-.51-1.07-.53-.53-.02-1.15.13-1.59.43-.35.23-.31.51.14.53.09,0,.3.26.4.36.2.18.41.34.64.49.42.27.9.49,1.39.62.96.25,2.04.26,3.02.15,2.14-.24,4.17-1.1,5.59-2.75.32-.37-.29-.42-.54-.4-.45.03-1.19.18-1.51.55h-.01Z"/>
  <path class="st1" d="M55.51,58.87c0,.2,0,.4-.04.59,0,.11-.03.21-.05.32,0,.03-.08.27-.02.08-.06.17-.13.33-.2.5-.05.1-.05.09.02-.02-.03.04-.06.09-.09.13-.05.06-.1.12-.15.18-.08.08-.07.08.03-.02-.04.04-.08.07-.12.11-.07.05-.14.1-.2.15.23-.17-.09.05-.14.08-.13.08-.27.15-.39.24-.4.28-.76.69-.94,1.15-.16.43-.23.97-.08,1.41s.47.81.83,1.13c.33.29.74.54,1.16.66.51.15,1.05.19,1.58.29s1.24-.2,1.46-.71c.23-.55-.22-.93-.71-1.03-.25-.05-.51-.1-.77-.13-.11-.02-.22-.03-.33-.04-.08,0-.25-.09-.03,0-.07-.03-.15-.06-.22-.09-.19-.08.09.07-.07-.04-.08-.06-.17-.11-.25-.18-.02-.02-.2-.18-.14-.12s-.12-.14-.14-.16c-.05-.06-.09-.13-.13-.19-.1-.15,0,.12,0-.04,0-.03-.03-.19-.02-.07,0-.1,0-.2.02-.3,0-.06,0-.06,0,.03,0-.04.03-.08.04-.11,0-.04.03-.07.05-.11-.06.1-.07.1,0,0,.05-.05.22-.19.03-.05.06-.05.2-.22.02-.04.06-.06.17-.09.24-.13.22-.13.44-.27.64-.43.31-.25.58-.54.79-.87.44-.69.62-1.48.63-2.29,0-.56-.55-.86-1.06-.81-.48.04-1.22.37-1.23.95h0v-.03Z"/>
  <path class="st1" d="M76.35,49.28c-.99-1.47-2.69-2.26-4.41-2.45-.91-.1-1.8-.05-2.7.1-.37.06-.73.15-1.08.27s-.72.26-.98.56c-.2.24-.23.45-.26.75-.13,1.22,2.18.95,2.29-.14.03-.25.02,0-.12.14l-.44.35c-.22.11-.08.02,0,0,.07-.02.13-.04.2-.06.14-.04.27-.08.41-.11.1-.02.51-.09.21-.05.15-.02.3-.04.45-.06.31-.03.61-.03.92-.04-.26,0,.04,0,.08,0,.06,0,.12,0,.19.02.17.02.34.04.51.07.08,0,.15.03.23.04.02,0,.27.06.14.03s.14.04.14.04c.07.02.15.05.22.07.14.05.29.11.43.17.07.03.14.07.21.1.16.07-.03-.02.06.03.6.36.91.64,1.28,1.19.61.91,2.74,0,2.05-1.02h-.03Z"/>
  <path class="st1" d="M50.83,48.17c-1.54-.51-3.17-.66-4.76-.27s-3.08,1.26-3.99,2.56c-.31.45.27.78.65.8.56.03,1.15-.18,1.48-.65.29-.42.6-.62,1.07-.9s.8-.39,1.27-.51c.14-.03.16-.03.04,0,.06,0,.12-.02.18-.03.14-.02.27-.03.41-.04.13,0,.16,0,.07,0h.24c.12,0,.24,0,.36.02.54.05,1.1.2,1.66.38.51.17,1.23-.04,1.59-.43s.22-.78-.25-.94h0l-.02.02Z"/>
  <g>
    <path class="st1" d="M104.97,67.24c.34-.03.73-.21.84-.55.5-1.58,2.19-2.63,3.79-2.83,1.01-.13,1.95.11,2.83.6.43.24.84.5,1.27.73.26.14.23.4.27.69.07.59,1.58.23,1.5-.4-.04-.35-.06-.73-.37-.95-.48-.36-1.11-.65-1.65-.93-1.19-.63-2.52-.86-3.86-.65-2.23.35-4.59,1.66-5.3,3.91-.11.35.46.42.67.4v-.02Z"/>
    <path class="st1" d="M115.19,72.05c-1.49-1.04-3.2-1.74-5.04-1.45-.95.15-1.84.45-2.73.81-.28.11-.55.24-.82.36.14-1.11-.31-2.27-1.03-3.17-1.17-1.47-2.9-2.16-4.76-1.72-1.39.33-2.65,1.17-3.51,2.3-1.25-.76-2.72-1-4.17-.87,0-.04-.02-.07-.02-.11-.3-1.25-.93-2.36-1.8-3.3-.88-.96-2.02-1.71-3.31-1.91.83-2.77,1.39-5.74,1.73-8.54.41-3.36.5-6.82.42-10.21,0-.41-2.27-.06-2.25.6.06,2.8-.02,5.62-.24,8.41-.23,2.89-.87,5.71-1.52,8.53-.94,4.09-2.78,7.52-5.47,10.76-2.8,3.38-6.17,6.21-10.32,7.78-2.96,1.12-6.41,1.48-9.39,1.43-4.86-.09-9.7-1.52-13.93-3.89-.58-.32-2.44.6-2.12.78,6.99,3.92,15.43,5.11,23.18,3.2,4.95-1.23,9.46-3.86,12.97-7.56.8-.84,1.59-1.74,2.34-2.68.8.94,1.82,1.76,3.02,1.98.84.15,1.67.08,2.5-.08.84,1.46,1.99,2.75,3.67,3.21,1.72.48,3.6.02,5.1-.9.27-.17.54-.37.78-.59.96.27,1.95.39,2.95.33,1.37-.09,2.83-.65,3.89-1.59.65,0,1.25-.3,1.88-.59.72-.33,1.44-.66,2.19-.89.67-.2,1.31-.29,2.01-.13.76.18,1.43.6,2.07,1.04.47.33,1.18.22,1.62-.12.38-.3.58-.89.11-1.22ZM90.82,71.16c-.51.87-1.91,1.19-2.85,1.14-1.36-.07-2.45-1.43-3.15-2.47-.01-.02-.03-.03-.05-.05,1.12-1.62,2.07-3.34,2.71-5.15,0-.03.02-.05.02-.08,1.34.53,2.47,1.95,2.98,3.16.27.63.43,1.3.52,1.98.07.49.07,1.04-.2,1.48h.02ZM97.44,73.54c-.13.41-.47.78-.75,1.01-.12.09-.24.18-.37.26,0,0-.04.02-.07.04-.04.02-.12.06-.13.07-.14.07-.28.13-.42.19h-.02c-.1.03-.19.06-.29.09-.06.02-.23.06-.29.07-.04,0-.12.02-.13.02-.07,0-.15.02-.22.02-.04,0-.21,0-.24.01-.15,0-.31-.01-.45-.04-.64-.13-1.13-.39-1.67-.89-.5-.46-.89-1.03-1.24-1.62.28-.14.56-.3.81-.48.61-.46,1.11-1.04,1.3-1.79.06-.22.08-.45.08-.67h.01c.14.02.28.01.42.02.63.06,1.25.24,1.8.58.71.43,1.33.93,1.73,1.68.23.44.31.95.15,1.42h-.01ZM104.24,72.53c-.1.27-.27.5-.43.67-.09.1-.2.19-.3.28-.02.01-.05.04-.07.06-.04.03-.09.06-.13.1-.07.05-.13.09-.2.14-.07.04-.13.09-.2.12-.03.01-.04.02-.05.03-.02,0-.04.02-.08.03-.28.12-.46.17-.74.21-.07,0-.15.02-.22.02h-.2c-.18,0-.36,0-.54-.02-.09,0-.17-.02-.25-.03h-.06s-.02,0-.07-.02c-.15-.03-.3-.06-.45-.09-.24-.06-.48-.13-.71-.2.25-.56.35-1.17.19-1.82-.15-.62-.51-1.17-.96-1.65.08-.17.17-.34.26-.51.11-.18.32-.49.38-.57.45-.55.84-.79,1.38-1.05.03-.01.08-.03.11-.04.04-.01.08-.03.13-.04.02,0,.03,0,.05-.01,0,0,.3-.02.23-.02.24,0,.51.07.78.21.49.24.89.6,1.24,1.01.71.84,1.33,2.06.9,3.18h0Z"/>
    <path class="st1" d="M116.07,68.19c-.41-.67-.93-1.28-1.63-1.66-.87-.47-1.93-.57-2.9-.62-2.03-.1-3.85,1.04-5.07,2.58-.59.75.83.98,1.26.44.85-1.07,2.06-2.04,3.51-1.92.73.06,1.55.09,2.2.46.56.32.94.83,1.27,1.37.36.57,1.79,0,1.38-.66h-.02Z"/>
  </g>
  <path class="st1" d="M72.55,17.28c.62,3.08.47,6.37.03,9.47-.17,1.18,2.14.91,2.29-.15.46-3.24.59-6.69-.06-9.92-.22-1.09-2.48-.51-2.25.6h-.01Z"/>
  <g>
    <path class="st1" d="M25.15,51.64c.44.27,1.22.13,1.61-.17.21-.16.43-.31.66-.45.04-.02.15-.08.16-.08.13-.06.26-.12.39-.17t.03,0c.06-.02.13-.04.19-.06.11-.03.21-.05.32-.08t.05,0c.06,0,.13-.02.19-.03.13-.02.26-.03.39-.03h.23c.16,0,.31.02.47.04.2.02.44.08.68.15.56.16,1.1.39,1.66.55.52.15,1.22-.03,1.59-.43.35-.36.23-.8-.25-.94-.64-.18-1.25-.45-1.89-.61-.77-.19-1.56-.25-2.35-.19-1.42.1-2.84.64-3.96,1.52-.33.26-.64.73-.16,1.02v-.02Z"/>
    <path class="st1" d="M16.72,69.64v.04s.02-.04.02-.06t-.01.02h-.01Z"/>
    <path class="st1" d="M37.56,69.79c-.53-.14-1.19.06-1.59.43-.42.39-.85.75-1.34,1.05-.4.25-.76.38-1.16.43-1.09.14-2.35-.11-3.23-.8-1.52-1.18-1.52-3.5-.74-5.1.21-.44.47-.85.8-1.18.28-.28.6-.51.91-.77.11,0,.22.04.32.05.91.13,1.86.09,2.74-.22.38-.14,1.08-.43.95-.97-.12-.49-.95-.49-1.3-.36-.59.21-1.16.17-1.78.07-.61-.11-1.24-.21-1.8-.47-1.02-.47-2.04-1.11-2.88-1.86-1.58-1.41-2.4-3.25-2.3-5.38.05-1.05-2.23-.65-2.27.23-.06,1.27.1,2.55.66,3.7.51,1.04,1.24,1.91,2.13,2.65,1.06.88,2.28,1.67,3.58,2.15.04,0,.07.02.11.03-.33.31-.75.54-1.05.87-.4.44-.74.93-.99,1.48-.4.87-.62,1.81-.6,2.76-.73.05-1.46.15-2.15.4-1.09.39-2.08,1.2-2.6,2.24-.45.9-.47,1.82-.1,2.72-.07.05-.13.1-.17.12.08-.05-.16.08-.18.09-.01,0-.18.07-.2.08-.09.03-.17.05-.26.08-.02,0-.12.03-.18.04-.06,0-.16.02-.18.02-.11.01-.23.02-.34.02h-.39c-.21-.02-.42-.04-.63-.07-.08-.01-.17-.02-.25-.04-.02,0-.09-.02-.13-.03-.13-.04-.26-.08-.38-.14l-.21-.09s-.12-.06-.15-.08c-.13-.07-.25-.15-.37-.24-.31-.22-.49-.39-.69-.63-.43-.53-.62-1.02-.53-1.68.04-.28-.12-.5-.34-.64.17-.13.29-.28.32-.46.02-.17.04-.35.07-.52,0-.02.01-.05.02-.07,0,0-.01.02-.02.02,0,0,.01-.03.03-.05,0-.03,0-.04.01-.04h0v.02s.02-.03.03-.04.03-.03.04-.04c.02-.02.04-.04.06-.05.22-.16.43-.32.67-.46h0c.06-.04.13-.07.19-.1.12-.06.25-.11.37-.16.05-.02.12-.06.18-.07h-.02s.04,0,.05-.01c.14-.04.27-.09.41-.12.07-.02.15-.03.22-.05h.02c.13-.02.27-.03.4-.04h0c.08,0,.16,0,.23.01.04,0,.08,0,.13.02.01,0,.17.04.18.04.52.13,1.23-.01,1.59-.43.13-.15.26-.34.2-.56-.05-.2-.27-.33-.46-.38-1.46-.36-2.99-.05-4.34.58-.18-.13-.36-.24-.58-.33-.46-.19-.99-.18-1.46-.07-.31.08-.58.22-.83.4-.23-.27-.46-.55-.71-.81-.39-.41-.81-.8-1.26-1.14-.93-.7-2-1.16-3.13-1.38-1.17-.23-2.69-.34-3.73.36-.9.61-1.6,2.05-.61,2.9.73.62,2.71-.44,1.75-1.27.18.15.07,0,.06-.11,0-.12.03-.3.05-.33-.01.03.04-.04.1-.11h.15c.33-.01.73.01,1.14.08.3.05.7.17,1.05.3.69.27,1.35.71,1.9,1.21.74.67,1.31,1.49,2.05,2.15.02.02.05.04.08.05.01.02.02.04.03.06.14.18.42.28.63.29.29.02.6-.02.87-.15-.05.2-.09.4-.11.62-.03.25.08.41.27.51-.07.08-.14.16-.18.25-.71-.15-1.4-.4-2.02-.77-.7-.42-1.36-.91-2.08-1.29-.78-.41-1.58-.85-2.48-.9-1-.06-1.99.2-2.85.69-.25.14-.58.42-.37.74.2.28.76.24,1.01.09.63-.36,1.34-.6,2.07-.42.82.2,1.63.71,2.33,1.15.56.35,1.09.76,1.69,1.05.78.38,1.6.63,2.45.78h.16c.04.24.1.48.19.7-.03-.02-.06-.03-.1-.05-.62-.26-1.17-.24-1.82-.11-1.04.21-2.16-.19-3.17-.44-1.43-.36-2.89-.48-4.17.03.78-1.04-1.32-1.16-1.87-.48-.29.36-.6.74-.55,1.23.04.46.37.83.66,1.16.45.51,1.57.25,1.96-.21.55-.66.94-.73,1.77-.57,1.06.2,2.08.53,3.15.7.61.1,1.24.14,1.86.05.17-.03.34-.06.51-.1.04,0,.05,0,.07-.01.22.12.47.22.71.28.64.17,1.3.11,1.91-.11.55.55,1.22.99,1.91,1.26.92.36,2,.45,2.98.39.88-.05,1.74-.3,2.49-.73.37.37.8.7,1.26,1,1.26.83,3.02.49,4.38.14.38-.1,1.08-.46.95-.97-.14-.51-.93-.46-1.3-.36-.16.04-.32.08-.48.11-.04,0-.05.01-.07.02-.08.01-.16.03-.24.04-.13.02-.25.03-.38.05-.05,0-.45.02-.31.02-.45-.02-.8-.25-1.22-.55-.76-.55-1.41-1.32-1.57-2.27-.08-.46.06-.95.28-1.36.11-.21.21-.35.35-.5.2-.22.24-.26.41-.38.04-.03.39-.21.17-.11.06-.03.12-.06.18-.08t.03-.01c.09-.03.19-.05.28-.07,0,0,.29-.04.32-.05.27-.03.53-.05.8-.06h.24c.61,1.85,2.39,2.81,4.3,3.06-.01.07-.03.13-.05.19-.02.05-.05.1-.09.15-.1.1-.2.21-.3.3-.12.12-.25.23-.39.34-.16.13-.34.29-.38.51-.03.2.08.39.25.48.23.12.5.16.76.12.29-.04.62-.12.85-.3.38-.3.78-.62,1.1-.99.21-.24.37-.53.45-.84,1.68-.28,3.09-1.21,4.33-2.34.36-.33.22-.76-.24-.88h.08ZM12.87,74.3c.14-.02.07.02,0,0h0Z"/>
  </g>
  <ellipse class="st1" cx="47.34" cy="56.7" rx="2.69" ry="1.61" transform="translate(-11.29 101.62) rotate(-87.6)"/>
  <ellipse class="st1" cx="70.94" cy="55.92" rx="2.69" ry="1.61" transform="translate(12.1 124.46) rotate(-87.6)"/>
</svg>