<?xml version="1.0" encoding="UTF-8"?>
<svg id="_レイヤー_1" xmlns="http://www.w3.org/2000/svg" version="1.1" viewBox="0 0 120 100">
  <!-- Generator: Adobe Illustrator 30.0.0, SVG Export Plug-In . SVG Version: 2.1.1 Build 123)  -->
  <defs>
    <style>
      .st0 {
        fill: none;
      }

      .st1 {
        fill: #ceb372;
      }

      .st2 {
        fill: #1c1917;
      }

      .st3 {
        fill: #fff;
      }
    </style>
  </defs>
  <g>
    <path class="st1" d="M30.03,73.52c-.03,2.15-4.74,4.71-7.76,3.26-.98-.47-2.32-1.62-2.34-3.22-.02-1.93,1.89-3.05,2.06-3.15,1.24-.71,2.5-.53,3.19-.42,2.13.33,4.87,1.87,4.85,3.53Z"/>
    <g>
      <path class="st1" d="M26.89,77.14c.17-.07.07-.21.23-.28s.32.04.48-.05c.16-.08.13-.14.28-.22.16-.08.24.05.39-.05.15-.1.12-.23.27-.32.15-.1-.08-.32.06-.43.13-.1.36.14.51.03.13-.12.1-.22.23-.35.13-.12.25.09.38-.06.12-.15-.04-.29.07-.43.11-.15.13-.14.23-.3s.25-.09.33-.29c.07-.2-.13-.29-.09-.48.03-.19.27-.37.27-.39h-1s.07.15.06.28c-.04.13-.17.09-.21.21-.04.12.07.18,0,.31-.08.12-.2.03-.29.15-.09.11.16.26.06.38-.1.12-.21.09-.32.19-.11.11-.15.04-.26.14-.12.1-.06.2-.19.3-.13.1-.25-.07-.38.01s-.01.26-.15.35-.17.03-.31.1-.19-.01-.33.06-.02.3-.17.36-.24-.12-.39-.06c-.15.06-.11.15-.27.2-.15.05-.24-.1-.35-.06l.28.96c.13-.04.07-.16.24-.22s.19.02.36-.04h-.02Z"/>
      <path class="st1" d="M21.28,76.7c.15.11.21-.05.36.04.15.1.16.28.33.37.17.09.2.02.37.09s.12.21.3.28c.18.06.26-.07.44-.02.18.04.18-.27.35-.23.17.02.15.35.34.37.18.01.23-.06.41-.07.18,0,.11.23.3.22.19,0,.18-.22.35-.23.18-.02.18,0,.36-.02.17-.03.21.14.39.1s.15-.28.32-.32c.17-.03.39.12.4.12l-.28-.96s-.17.16-.33.19c-.16.04-.18-.09-.33-.05-.15.03-.13.16-.29.18-.16.02-.17-.14-.33-.12-.15.01-.09.29-.25.3-.16,0-.21-.09-.37-.09-.16-.01-.13-.09-.29-.1-.15-.02-.19.11-.34.09-.15-.04-.12-.25-.26-.28-.14-.04-.2.19-.35.14-.15-.06-.12-.12-.26-.18s-.11-.13-.24-.2-.24.16-.38.08c-.14-.09-.04-.26-.16-.35-.13-.09-.18-.02-.31-.11-.12-.1-.04-.25-.12-.33l-.69.72c.1.1.18-.01.31.11.14.11.09.18.24.29v-.03Z"/>
      <path class="st1" d="M20.27,71.34c-.11.15.05.21-.05.37-.1.15-.28.17-.37.34-.08.17-.01.2-.09.38-.06.18-.2.14-.26.33-.03.2.08.26.06.45-.01.19.3.15.29.32,0,.17-.33.22-.31.41.03.19.12.22.17.4s-.2.18-.13.37c.07.19.27.1.35.27s.06.18.16.34c.1.15-.03.26.09.41s.32.02.44.15c.11.13.09.4.1.41l.69-.72s-.22-.06-.31-.18c-.1-.11,0-.2-.09-.31-.08-.12-.2-.04-.28-.17-.07-.13.06-.21,0-.33-.06-.13-.31.03-.36-.11-.06-.14.03-.22,0-.36s.05-.14.03-.28c-.01-.14-.13-.15-.14-.3,0-.15.22-.14.23-.28.02-.13-.19-.17-.17-.32.04-.14.11-.12.16-.26.06-.14.14-.1.2-.23.07-.13-.17-.24-.08-.37.09-.13.26-.04.35-.15.09-.12.01-.18.12-.3.1-.12.25-.03.33-.11l-.7-.71c-.1.1,0,.18-.12.31-.12.14-.18.08-.29.23h-.02Z"/>
      <path class="st1" d="M25.59,69.62c-.18-.03-.17.14-.34.11s-.25-.2-.43-.22c-.18-.02-.18.05-.36.03-.18,0-.18-.17-.36-.17-.19,0-.23.13-.41.14s-.1.31-.27.33c-.17.02-.25-.3-.44-.26-.18.04-.2.15-.37.2-.17.06-.19-.18-.37-.11-.18.08-.09.27-.25.36-.16.08-.18.06-.34.16-.15.1-.25-.03-.4.08s-.02.32-.15.43c-.13.12-.4.08-.41.09l.7.71s.07-.21.19-.31.2,0,.32-.09c.12-.09.04-.2.17-.29.13-.08.21.07.33,0,.13-.07-.03-.3.11-.37.15-.06.23.02.37-.03.15-.04.15.04.29,0,.15-.03.14-.15.3-.18.16-.02.18.19.33.18.15,0,.14-.23.3-.23s.16.08.31.08c.16.01.15.11.3.12.16.02.18-.23.34-.21.17.03.14.23.3.26.15.03.18-.06.33-.03.16.04.15.21.26.24l.28-.96c-.13-.04-.15.09-.32.05-.17-.04-.15-.12-.33-.16l.02.05Z"/>
      <path class="st1" d="M30.33,72.76c-.08-.19-.22-.08-.3-.25-.09-.16-.03-.34-.14-.5-.12-.15-.17-.1-.3-.24-.13-.13-.03-.24-.16-.37-.14-.12-.26-.05-.4-.16s-.28.17-.42.07.03-.39-.12-.49c-.15-.09-.23-.04-.39-.12-.15-.08.01-.26-.15-.34-.16-.08-.26.11-.42.04-.16-.08-.15-.1-.31-.17s-.11-.23-.28-.29-.27.16-.44.1c-.16-.05-.26-.3-.27-.31l-.28.96s.23-.04.38.01.11.17.26.23c.15.06.2-.07.35,0,.15.06.08.21.22.28s.23-.21.37-.14c.14.08.14.19.28.27.14.08.08.14.22.22s.22,0,.35.09c.13.1.01.26.12.36s.26-.07.38.03c.11.11.06.16.17.27.1.11.02.18.12.29.08.11.28-.04.37.09.08.13-.11.24-.04.36.05.12.13.09.17.23.02.14-.15.18-.14.26h1c-.01-.15-.14-.13-.16-.33-.04-.2.02-.22-.03-.42v-.03Z"/>
    </g>
  </g>
  <g>
    <path class="st1" d="M21.45,72.34c-.16-2.32-3.4-4.27-6.1-3.77-2.11.39-3.22,2.15-3.46,2.54-.11.62-.21,1.81.47,2.92,1.34,2.22,5.05,2.96,7.3,1.45.12-.08,1.92-1.33,1.79-3.14Z"/>
    <g>
      <path class="st1" d="M18.21,69.32c.15.06.18-.11.33-.04s.17.24.3.32c.14.08.17.02.31.1.13.09.05.22.18.31.13.08.24,0,.36.1s.28-.17.41-.06c.12.12-.09.38.02.48.11.11.2.08.3.2.1.12-.11.22-.03.34.08.12.26,0,.35.14.08.13.05.15.11.28.07.14-.08.2-.04.34.03.13.3.09.31.24.02.16-.17.31-.17.31l1-.07s-.14-.24-.17-.43c-.04-.19.07-.22.01-.41s-.19-.14-.27-.31.08-.25-.03-.42c-.1-.16-.32.04-.41-.11-.1-.15-.07-.25-.18-.39-.12-.14-.04-.18-.18-.31-.13-.13-.23-.06-.36-.18-.14-.11,0-.28-.15-.4-.14-.12-.27.06-.42-.04s-.11-.16-.26-.26c-.16-.09-.11-.17-.27-.26-.16-.09-.26.15-.42.07-.16-.07-.09-.27-.26-.34-.17-.06-.2.03-.37-.03s-.16-.24-.29-.27l-.27.96c.11.03.14-.11.29-.05.15.05.12.13.27.18h0Z"/>
      <path class="st1" d="M13.49,69.92c.12-.1-.01-.21.12-.31.13-.09.29-.02.43-.1.13-.08.1-.14.24-.21.14-.07.21.07.35,0,.14-.06.13-.19.28-.24.15-.04.01-.33.18-.37.17-.03.25.28.4.26s.18-.12.34-.14.12.23.27.22c.15,0,.15-.22.31-.22.16.01.16.04.32.05.16,0,.15.18.3.2.15.03.22-.21.38-.18.16.04.25.29.25.29l.27-.96s-.26.04-.43,0c-.18-.03-.15-.15-.34-.18-.18-.03-.2.1-.38.09-.18-.01-.17-.18-.35-.19-.19,0-.13.29-.31.29s-.24-.1-.42-.08-.17-.06-.35-.03-.18.16-.35.2c-.18.04-.24-.15-.42-.1-.18.06-.1.27-.26.33-.17.07-.2,0-.36.09-.16.08-.21,0-.37.1s0,.3-.15.4c-.14.1-.28-.05-.42.06s-.08.19-.21.31c-.13.12-.28.03-.38.13l.71.7c.08-.08-.02-.17.1-.28.12-.1.17-.05.29-.15l-.04.02Z"/>
      <path class="st1" d="M12.95,74.09c-.09-.12-.2,0-.3-.13-.09-.13,0-.29-.06-.42-.07-.13-.12-.11-.18-.25-.05-.15.09-.2.05-.34s-.17-.15-.2-.3c-.02-.15-.32-.06-.34-.23-.02-.17.31-.21.31-.36s-.09-.19-.09-.35c.01-.16.24-.08.25-.23.02-.15-.21-.14-.18-.27.06-.1.07-.07.17-.2.09-.13.23-.04.32-.16s-.07-.29.03-.42c.11-.12.37-.08.37-.08l-.71-.7s-.09.24-.21.38-.21.06-.33.2c-.11.15,0,.23-.1.38-.1.14-.25.08-.39.3-.05.25.24.26.22.45-.02.18-.12.22-.13.41,0,.18-.08.16-.08.34,0,.19.13.2.15.38.02.18-.19.21-.16.4.04.19.25.14.3.31.05.18-.02.2.05.37.07.17-.02.21.06.38.08.17.31.03.39.19.1.15-.06.27.05.43.11.16.19.09.31.23.12.13.03.29.13.39l.69-.72c-.08-.07-.16.02-.27-.09-.1-.12-.05-.16-.14-.28h.02Z"/>
      <path class="st1" d="M17.45,75.79c-.16.02-.11.19-.27.2-.16,0-.26-.15-.42-.15s-.16.06-.32.05c-.16-.01-.15-.16-.3-.18s-.21.1-.37.07c-.15-.03-.17.27-.33.24-.16-.04-.1-.36-.25-.41s-.22.02-.37-.03c-.15-.06,0-.26-.15-.32-.14-.06-.24.14-.38.06s-.13-.1-.26-.18c-.14-.07-.05-.23-.18-.31-.12-.09-.29.1-.41,0-.12-.11-.09-.36-.09-.36l-.69.72s.25.08.39.2c.14.11.07.21.23.32s.23,0,.39.08c.16.09.07.23.24.32.17.08.24-.2.4-.13s.17.2.34.25c.17.06.13.12.3.18s.23-.06.4-.02.13.26.31.29.21-.19.39-.16c.18.03.17.09.35.11.18.01.17.11.36.12.18,0,.16-.26.34-.26.17,0,.21.2.39.18s.17-.11.35-.14c.18-.04.25.12.39.09l-.22-.98c-.11.02-.07.15-.23.18s-.17-.06-.32-.04h-.01Z"/>
      <path class="st1" d="M20.98,72.89c-.03.14.14.14.11.29-.05.15-.22.18-.28.31-.06.13,0,.17-.08.3-.07.13-.21.06-.29.18-.08.12,0,.23-.1.35-.1.12.16.28.05.41-.12.12-.37-.1-.48.01-.11.11-.08.2-.2.3-.12.1-.22-.12-.34-.03-.11.07,0,.26-.14.34-.14.08-.14.06-.29.12-.14.06-.22-.08-.35-.02-.14.05-.09.28-.24.33-.15.06-.36-.13-.36-.13l.22.98s.21-.15.38-.21.22.07.39,0c.17-.08.12-.2.29-.28.17-.07.24.07.41-.03s-.03-.31.12-.4c.15-.11.26-.06.4-.18s.17-.05.31-.17c.13-.13.06-.23.18-.36s.28,0,.4-.14c.11-.15-.06-.27.04-.43.1-.15.16-.11.26-.28.09-.16.17-.12.25-.3s-.17-.26-.11-.42c.06-.17.25-.14.3-.33.03-.19-.07-.21-.05-.4,0-.19.17-.24.17-.39l-1,.07c0,.1.13.08.13.23s-.09.14-.1.28h0Z"/>
    </g>
  </g>
  <g>
    <path class="st1" d="M28.25,63.16c-.28.2-.66,1.01-1.04,1.47-1.68,2.01-2.57,5.92-.53,7.57,1.04.84,2.26,1.08,3.61,1.1,1.86.03,3.16-.91,4.41-2.06-.4-1.11-1.45-6.47-2.97-8.19-1.83.18-2.49.67-3.47.12h0Z"/>
    <g>
      <path class="st1" d="M32.06,64.39c.1.2.23.08.33.29.1.21,0,.39.09.61.08.21.15.19.23.41.08.22-.06.28,0,.49.08.22.21.23.29.45.07.22.34.06.41.28s-.24.35-.17.58c.06.22.17.25.23.48s-.18.21-.12.43c.06.23.27.17.33.4s.03.23.09.46c.06.23-.09.28-.04.51.06.23.3.2.36.43s-.09.5-.09.51l.96-.26s-.18-.26-.24-.49c-.06-.23.06-.26,0-.49-.06-.23-.19-.19-.25-.42-.06-.23.1-.27.04-.5-.06-.23-.32-.08-.38-.31-.06-.23,0-.33-.05-.55-.07-.23.02-.22-.05-.45-.07-.23-.19-.22-.26-.45-.07-.23.13-.3.06-.52-.08-.23-.28-.15-.36-.38-.08-.22,0-.25-.09-.47s0-.26-.09-.48c-.09-.23-.31-.11-.41-.32-.1-.22.08-.33-.03-.55s-.2-.17-.31-.39c-.13-.21-.02-.35-.12-.52l-.83.55c.08.14.18.05.3.24.11.19.04.23.14.43h.02Z"/>
      <path class="st1" d="M29.09,63.85c.09,0,.07-.17.16-.17.08,0,.14.15.22.14.09,0,.08-.08.16-.09.08,0,.1.14.18.13s.08-.14.15-.16c.08,0,0-.31.07-.32s.15.31.22.3c.07,0,.07-.11.15-.12.07,0,.09.22.16.21.07,0,.03-.23.11-.24.07,0,.08,0,.15,0s.1.15.17.14c.07,0,.04-.25.12-.26.07,0,.17.19.17.19l-.14-.99s-.08.12-.16.13c-.08,0-.09-.11-.17-.1-.08,0-.05.15-.13.16-.07,0-.1-.15-.18-.14-.08,0,0,.29-.07.31-.07,0-.12-.08-.19-.07-.07,0-.08-.06-.15-.05-.07,0-.06.13-.13.15-.07,0-.11-.2-.18-.18-.07,0-.03.23-.1.24-.07,0-.08-.06-.15-.05-.07,0-.08-.08-.14-.08s-.04.26-.11.26-.08-.2-.14-.2-.06.09-.13.09c-.06,0-.05-.18-.09-.18l-.18.98c.07,0,.08-.12.17-.11.09,0,.08.08.17.09h0Z"/>
      <path class="st1" d="M26.03,68.35c.03-.17-.15-.16-.11-.34.04-.17.22-.24.26-.4.05-.17-.01-.18.04-.35.05-.17.19-.12.26-.28.06-.16-.04-.25.02-.41.07-.16-.23-.23-.15-.4.08-.16.38-.04.47-.19.08-.15.02-.23.11-.39.1-.15.26.03.35-.11s-.09-.27.02-.41c.11-.14.12-.11.24-.26.13-.16.26-.07.38-.24.11-.16-.08-.31.02-.47.1-.16.37-.18.37-.19l-.84-.54s-.04.26-.14.41c-.1.15-.2.08-.29.22-.09.13.02.22-.08.34-.11.15-.24.04-.37.2-.12.16.15.28.04.43-.1.16-.22.15-.32.32-.09.17-.15.11-.24.28-.1.17,0,.24-.07.42-.08.17-.28.09-.35.27s.13.26.07.43c-.07.18-.13.15-.19.34-.06.18-.15.15-.2.34-.05.19.21.23.16.41s-.24.16-.28.35c-.03.19.06.2.04.39-.02.19-.19.22-.2.37l1,.06c.01-.13-.12-.12-.11-.29s.1-.16.12-.33l-.03.02Z"/>
      <path class="st1" d="M28.25,72.54c-.16-.06-.18.12-.34.05s-.18-.25-.33-.33-.18-.02-.32-.11c-.14-.1-.06-.22-.18-.32-.13-.1-.22-.03-.34-.14-.11-.11-.31.14-.42,0-.11-.15.15-.35.07-.48-.07-.14-.17-.13-.25-.28-.06-.16.18-.19.13-.33-.05-.14-.27-.08-.3-.25-.03-.16-.01-.17-.04-.33-.02-.17.14-.2.13-.36-.02-.16-.25-.18-.25-.35,0-.18.22-.32.22-.33l-1-.06s.09.26.09.45-.13.2-.11.4c.02.2.16.19.18.38.04.19-.12.22-.08.42s.3.07.37.25c.07.18-.02.28.07.46s.01.19.11.38c.11.18.23.12.35.28.12.16-.02.3.13.45.16.15.29,0,.45.1.15.12.12.17.28.29.17.1.12.19.3.28.18.1.28-.15.45-.06.18.07.12.27.31.34.19.07.22-.03.4.02.19.05.19.22.34.25l.2-.98c-.12-.03-.14.11-.3.06-.17-.04-.14-.12-.3-.17l-.02.02Z"/>
      <path class="st1" d="M33.41,71.73c-.14.1,0,.22-.15.32s-.32.03-.46.11c-.15.09-.11.14-.27.23-.15.07-.22-.06-.37,0-.15.07-.14.2-.3.26-.16.06-.02.33-.19.38-.17.05-.28-.28-.44-.24-.16.03-.19.13-.36.15-.17.01-.13-.22-.29-.21-.16,0-.16.22-.34.22s-.18-.03-.35-.04c-.18,0-.17-.17-.34-.19-.17-.02-.22.22-.4.19s-.29-.27-.3-.27l-.2.98s.27-.05.46-.03c.19.03.17.15.37.17.19.01.2-.12.39-.11.19,0,.18.17.37.18.2,0,.14-.29.33-.29s.26.08.45.07c.19-.03.18.05.38.02.19-.05.19-.16.38-.21.19-.05.26.15.45.08s.1-.27.28-.35.2-.02.38-.1c.17-.09.22,0,.39-.11.17-.1.02-.31.17-.41.15-.11.29.05.44-.06.15-.11.09-.19.24-.31.15-.12.29-.02.4-.11l-.65-.76c-.1.08,0,.17-.14.29-.14.11-.18.05-.32.15h0Z"/>
      <g>
        <path class="st1" d="M31.27,62.65h.1s.02,0,.02,0h.02v.03l.04.05.03.05v.02l.03.02h.06s.02,0,.02,0h0l.02.04.02.04s.03.05.04.08v.02h.04s.02,0,.02,0l.03.04h.06l.05-.03.05-.02h.11s.05.04.08.04h0v.07h0s.02,0,.02,0h.14l-.42.28-.21.14-.21.14h0v-.03h0v-.04h0v-.02h0s-.01,0-.01,0c0,0-.04,0-.06-.02h-.04l.05.02h0v-.02l-.02-.02h-.02v-.02h-.06s-.02.05-.02.05h0s-.01,0-.01,0h-.04s-.04-.24-.04-.24l-.04-.25-.07-.5h.02l.03.02.03.02h.04s.1.04.1.04Z"/>
        <path class="st0" d="M31.32,64.07c-.08-.05-.07-.05-.12-.07h.01s.03-.03.03-.03l.05-.03.1-.07.21-.14.42-.28.83-.55-.04-.06-.05-.07-.1-.13-.2-.26-.34-.38-.51.05-.55.07.14.99.07.5.04.25.02.12v.09s.01.02.01.02h0s-.03,0-.04-.01h.02Z"/>
      </g>
      <g>
        <path class="st1" d="M27.58,63.29v-.02l.02-.02.02-.04.02-.04v-.02h.03s.01,0,.01,0h.19s.01,0,.01,0h.02s.02-.03.02-.03l.03-.04.02-.02.02-.02h.02s.01,0,.01,0h.11s.06.04.09.05h.03s.01,0,.01,0h.04l.04.02h.04l.02-.02.02-.02.04-.04.04-.04.02-.02h.02l.04-.02h.04s.05-.02.07-.02h.01s.02.05.02.05h.02l.04-.06.04-.04h.02v-.02h0l-.09.49-.05.25-.05.25h-.03s-.01,0-.01,0h0l-.03-.04h-.02v-.02h-.05s-.06,0-.1.02h-.07s.05-.05.08-.08h-.08s-.02.03-.02.03h0v.08h.01v.02h0v.02l-.02.03-.21-.13-.21-.13-.42-.27h.01v-.02s.05-.02.05-.02l.04-.02h.02l.02-.02h-.03Z"/>
        <path class="st0" d="M28.32,64.28c.23.05.22.05.34.07h0v-.05l.02-.06.02-.12.05-.25.09-.49.18-.98h-.05s-.03,0-.03,0l-.04-.02h-.04l-.02-.02h-.02l-.08-.05-.55-.31-.51.37-.09.07-.08.07-.11.12-.09.1-.07.09-.12.17-.1.15.84.54.42.27.21.13.11.07.05.03.03.02h.01c-.26.07-.25.07-.38.1h.01Z"/>
      </g>
      <g>
        <path class="st1" d="M34.96,70.62v.04l.02.04v.04l.02.02v.02h0l-.02.03-.04.04-.04.04-.02.02h0v.02h0v.04l.02.04v.04h0v.02h0v.02l-.03.04-.03.03-.03.03-.03.04-.02.02h0v.04l-.03.02-.03.04v.02h0v.08l.03.05.02.05v.02h0s0,.07,0,.07l-.02.05s-.03.06-.04.09h0v.02h-.1v.02h0v.17h0v.03h0v.02l-.32-.38-.16-.19-.16-.19h.09v-.03h0c0-.05.05-.15.06-.2l.02-.03h0v-.11h0v-.02h0s0-.01,0-.01l-.02-.02-.03-.02h0v-.02h0v-.03l-.02-.04.24-.07.24-.07.48-.13v.08l-.02.04v.04-.02Z"/>
        <path class="st0" d="M33.52,70.94s.02-.02.03-.03h0v.02s.03.02.03.02l.04.05.08.1.16.19.32.38.65.76.52-.47.49-.45-.22-.62-.08-.26-.08-.3-.96.26-.48.13-.24.07-.12.03-.06.02h-.05c-.02.07-.02.06-.02.09h0Z"/>
      </g>
    </g>
  </g>
  <g>
    <path class="st1" d="M14.24,70.16c.15,1.27-1.15,2.38-1.65,2.8-3.6,3.07-4.75-.14-9.73.36-.51.05-.97-.37-.92-.88.24-2.47,1.95-4.99,2.31-5.33,3.17-2.98,9.69.48,9.99,3.05Z"/>
    <g>
      <path class="st1" d="M10.6,74.61c.22-.07.13-.2.33-.28.2-.09.38,0,.58-.1.19-.11.15-.17.34-.28.18-.12.28.02.46-.11.17-.13.13-.27.3-.4.17-.13-.08-.32.08-.46.15-.13.4.1.56-.05.16-.15.13-.25.28-.41s.27.05.41-.12c.14-.18-.03-.31.1-.49.12-.19.15-.17.25-.37.1-.2.26-.15.34-.39s-.15-.33-.12-.56c.03-.22.21-.47.22-.5l-.99.12s.12.18.1.35c-.03.16-.15.13-.2.28-.06.15.07.21-.01.37s-.23.07-.32.21c-.1.14.16.27.04.42s-.24.13-.37.27c-.14.14-.17.07-.31.2s-.08.24-.23.37c-.15.13-.29-.04-.44.08s-.02.29-.17.41c-.16.12-.2.05-.36.15s-.21.02-.37.11c-.16.07-.04.3-.22.38-.18.09-.27-.11-.44-.06-.17.04-.15.16-.33.18s-.24-.14-.37-.12l.05,1c.17-.02.14-.15.37-.18.23-.02.24.04.46-.02h-.02Z"/>
      <path class="st1" d="M4.04,73.72c.2,0,.16-.17.36-.16.2,0,.3.18.5.2.19.02.2-.05.4-.02.19.03.17.19.36.22s.26-.09.46-.04c.19.05.2-.27.4-.22.2.05.14.38.33.44.19.05.27-.02.46.04.2.06.06.26.26.32.2.06.27-.15.47-.09.2.06.2.08.4.13.21.05.18.22.41.25s.28-.19.5-.18c.21,0,.43.23.45.22l-.05-1s-.23.1-.41.09c-.18-.02-.17-.15-.35-.17s-.21.1-.4.06c-.19-.05-.14-.2-.33-.25s-.21.24-.4.18-.23-.17-.42-.23c-.19-.06-.15-.12-.35-.18s-.25.05-.46,0c-.2-.05-.16-.26-.36-.31-.21-.05-.25.17-.45.13-.21-.04-.19-.11-.4-.15-.21-.03-.2-.12-.41-.14s-.21.23-.42.21c-.21,0-.22-.21-.43-.21s-.21.09-.42.09c-.21.01-.27-.15-.43-.14l.06,1c.15,0,.12-.14.32-.15s.2.08.39.08l-.04-.02Z"/>
      <path class="st1" d="M2.78,68.52c-.1.19.07.22-.02.41s-.29.23-.37.42c-.09.19-.03.22-.11.41-.08.2-.23.14-.3.34-.07.2.03.29-.04.49-.06.2.25.23.19.43-.05.2-.38.14-.44.35-.05.21.04.28,0,.49-.04.23-.24.06-.28.35-.03.32.18.3.22.55.08.25.06.27.22.49.19.19.1.33.37.47.29.11.4-.12.65-.13h.09c.23.02.35.19.37.19l-.06-1s-.19.07-.31.11c-.03,0-.05.01-.08.02-.13,0-.09-.13-.17-.16-.08-.04-.18.07-.27-.02-.07-.11.09-.2.07-.28,0-.09-.3,0-.29-.16.02-.14.12-.23.16-.4.04-.19.11-.15.15-.34.05-.19-.06-.24,0-.43.06-.19.26-.13.32-.31s-.14-.25-.08-.44c.07-.19.14-.16.21-.34.07-.18.16-.14.24-.32s-.16-.27-.07-.45c.09-.18.28-.11.37-.28s0-.22.11-.39c.1-.17.27-.13.35-.25l-.85-.52c-.08.14.04.18-.07.37-.1.18-.17.14-.27.33h0Z"/>
      <path class="st1" d="M8.66,65.64c-.22-.03-.19.15-.4.12s-.32-.21-.54-.2c-.22,0-.22.06-.44.06s-.23-.16-.45-.13c-.22.03-.26.16-.47.19-.22.03-.09.33-.29.38-.2.06-.32-.25-.54-.19-.21.06-.22.2-.42.29-.2.1-.23-.14-.44-.04-.21.11-.08.32-.25.44-.18.13-.19.11-.37.25-.18.16-.32.09-.45.26-.13.18.05.34-.07.52-.11.17-.4.23-.41.24l.85.52s.05-.27.15-.43c.11-.16.21-.09.32-.24.12-.14-.02-.22.12-.33.15-.11.25.02.39-.09.14-.1-.07-.32.09-.42.17-.08.27-.02.44-.1.17-.07.17-.02.35-.07s.16-.17.35-.22c.18-.05.23.15.41.13.18-.02.15-.24.34-.26.19-.03.19.05.39.05s.19.1.38.1.19-.25.38-.23c.2.03.19.23.38.26.19.02.21-.07.4-.02s.2.22.34.25l.26-.97c-.16-.04-.17.09-.38.04-.21-.05-.19-.14-.4-.16h-.02Z"/>
      <path class="st1" d="M14.4,69.26c-.11-.21-.23-.09-.34-.27-.13-.17-.08-.37-.22-.55-.14-.17-.2-.12-.35-.27-.15-.15-.05-.28-.21-.42-.17-.14-.29-.07-.46-.21s-.3.15-.47.03c-.17-.11,0-.41-.19-.53-.18-.12-.27-.06-.46-.17-.18-.1,0-.27-.2-.37-.19-.11-.29.09-.48,0s-.18-.11-.38-.2c-.19-.09-.14-.24-.35-.31s-.31.15-.51.08c-.19-.07-.33-.32-.35-.32l-.26.97s.27-.05.45.03c.18.06.14.18.32.24.18.06.23-.06.41.02.18.08.11.23.28.31.17.08.25-.21.42-.11s.18.21.35.31c.17.09.11.15.27.26.16.11.25.02.41.13.17.11.03.29.18.41.15.12.28-.05.44.07.15.13.09.19.22.32.13.14.07.2.19.34.11.14.3-.03.42.13.12.15-.05.28.03.43.07.15.19.11.23.28s-.11.24-.08.35l.99-.12c-.04-.19-.17-.14-.23-.37-.06-.24,0-.25-.11-.47l.04-.02Z"/>
    </g>
  </g>
  <path class="st3" d="M30.69,50.57s-1.34-.32-2.8-.47c-3.84-.41-5.69,1.76-6.38,4.76-.87,3.76,2.83,7.64,6.06,8.33,2.15.46,3.04-.72,4.41.1.29,1.45.58,4.43,2.84,7.82,1.14,1.71,2.68,3.12,4.2,4.51,9.28,8.47,20.85,7.9,20.89,7.89h0s8.97-.19,15.44-4.22c3.51-2.18,9.87-9.14,11.62-16.62,1.47.07,5.43-.41,8.26-2.5,1.39-1.33,3.18-3.63,2.44-6.41-.63-2.35-3.54-4.12-5.73-3.79-1.54.24-2.43,1.48-2.98,1.08-.47-.33.6-6.67.78-8.66,0,0-6.72-7.33-11.86-11.69-4.86-4.11-7.29-6.16-7.57-6.27-6.46-2.53-14.47,2.64-30.51,12.98-1.86,1.2-5.21,3.39-7.36,7.57-1.12,2.18-1.55,4.21-1.74,5.56v.03Z"/>
  <g>
    <path class="st1" d="M88.86,50.44c1.08.05,1.12-.75,4.41-1.12.95-.7,2.18-2.25,2.48-8.21.17-3.51.42-8.43-1.65-13.41-5.54-13.37-23.18-16.27-25.49-16.65-2.88-.47-13.08-1.99-23.72,3.57-8.28,4.33-18.41,13.78-18.2,25.02.06,3.25.95,7.99,2.11,10.28,1.46.24,1.83,1.1,2.44,1.26,3,.8,4.99-4.67,11.54-9.42,6.36-4.62,10.25-2.8,18.69-7.15,5.14-2.65,8.84-5.97,11.32-8.61,0,0,6.83,11.28,9.26,13.21,1.8,1.43,4.28,3.85,7.03,4.51-.15,3.57-.08,6.4-.21,6.72h-.01Z"/>
    <g>
      <path class="st1" d="M33.92,49.72c-.14.13,0,.23-.14.36-.15.12-.33.06-.48.17-.15.11-.11.17-.26.26-.16.09-.23-.04-.38.04-.15.06-.14.19-.3.25s-.04.34-.23.36c-.19,0-.24-.3-.39-.3-.16-.03-.21.06-.38.04-.02,0-.03,0-.04,0-.08-.07.02-.22-.06-.27-.11-.06-.25.1-.39,0-.15-.12-.13-.14-.3-.27-.17-.12-.08-.27-.28-.39s-.34.08-.53,0c-.19-.09-.32-.35-.33-.36l-.29.96s.24-.03.4.04c.15.08.09.19.23.27.14.09.22-.02.37.09.15.11.04.24.19.37.17.13.29-.13.47,0,.14.09.21.17.34.24.04.02.09.03.15.04.22.03.19.11.42.14.23,0,.26-.14.48-.16s.27.18.5.1c.22-.08.14-.27.34-.36.18-.1.22-.04.41-.15.19-.1.24-.03.41-.16s0-.32.16-.44.3,0,.45-.13.09-.21.24-.34c.14-.14.29-.06.4-.16l-.71-.71c-.1.1,0,.18-.13.32-.14.13-.19.07-.33.2v-.02Z"/>
      <path class="st1" d="M38.23,45.13c-.14.14,0,.23-.12.37-.14.14-.33.12-.47.26s-.09.19-.22.33c-.13.15-.25.04-.38.19-.13.15-.07.27-.2.41-.13.15.13.31,0,.45-.13.15-.4-.06-.53.09-.13.15-.09.24-.23.39-.13.15-.26-.06-.39.08-.13.15.03.29-.1.44-.13.15-.15.13-.28.27-.13.14-.26.04-.39.18s.03.33-.11.47-.42.11-.42.12l.71.71s.11-.26.25-.4c.14-.14.22-.06.36-.2.14-.15.03-.24.17-.39.13-.15.25-.03.39-.18.13-.15-.12-.29,0-.44.13-.15.25-.13.38-.27s.17-.08.3-.22c.13-.15.06-.24.19-.39.13-.15.29,0,.42-.15.13-.14-.03-.29.1-.43.13-.14.19-.09.32-.24.13-.14.2-.08.34-.22.13-.14-.06-.3.07-.44.14-.14.29,0,.43-.15.13-.14.07-.21.2-.34.14-.14.29-.05.4-.15l-.7-.71c-.11.1,0,.18-.14.32s-.2.08-.34.23h0Z"/>
      <path class="st1" d="M43.13,40.99c-.17.11-.03.23-.2.34-.16.11-.36.05-.51.17-.16.12-.12.18-.28.3s-.26,0-.41.12c-.16.12-.12.25-.27.37-.16.12.08.32-.07.45s-.38-.11-.54.02c-.15.13-.13.23-.28.36-.15.13-.25-.09-.4.04s0,.3-.15.43-.16.11-.31.25c-.15.13-.27.02-.41.16-.15.13,0,.33-.14.47s-.42.11-.43.12l.7.71s.11-.25.25-.39.22-.05.37-.18c.14-.13.05-.23.19-.36s.25,0,.39-.14c.14-.13-.09-.31.05-.44.15-.13.26-.09.41-.21s.18-.05.33-.18c.15-.12.09-.23.24-.36s.28.04.44-.08c.15-.12,0-.29.17-.4.15-.12.2-.06.35-.18.15-.12.21-.04.36-.16s0-.31.15-.42c.16-.11.29.05.45-.06s.1-.19.26-.3.29,0,.41-.07l-.53-.85c-.13.08-.04.18-.2.29-.17.11-.21.05-.37.16l-.02.02Z"/>
      <path class="st1" d="M48.96,38.25c-.19.06-.1.21-.29.27-.19.06-.35-.05-.54,0-.19.07-.17.13-.36.2-.19.07-.25-.07-.43,0-.19.07-.19.2-.37.28-.18.08,0,.34-.19.42-.18.08-.34-.22-.52-.14s-.19.18-.37.27-.22-.15-.4-.06-.09.29-.26.38c-.18.09-.19.06-.37.16-.17.1-.26-.03-.44.07-.17.1-.08.32-.25.43-.17.1-.45,0-.46.02l.53.85s.16-.21.32-.31c.17-.1.23,0,.39-.09s.1-.22.26-.32c.17-.09.25.06.42-.03s0-.32.16-.4c.17-.09.27-.03.44-.11s.19,0,.36-.08c.18-.08.15-.19.33-.27s.26.12.44.04c.18-.07.1-.27.28-.33.18-.07.21,0,.39-.06s.21.02.39-.04.09-.29.27-.35c.19-.06.26.13.45.08.18-.06.16-.15.34-.2.19-.05.28.1.42.06l-.26-.97c-.14.04-.09.16-.28.21s-.21-.02-.4.03h0Z"/>
      <path class="st1" d="M55.09,36.69c-.19.05-.1.21-.29.26-.19.06-.34-.06-.53-.02-.19.05-.17.11-.36.16-.19.05-.23-.1-.42-.05s-.2.18-.39.23-.06.33-.25.38-.3-.27-.49-.23c-.19.05-.22.15-.41.19-.19.04-.18-.2-.37-.15-.19.04-.14.26-.34.3-.19.05-.2.02-.39.07s-.24-.11-.43-.06-.16.28-.35.34c-.19.05-.42-.11-.44-.11l.26.97s.22-.16.4-.21c.19-.05.22.07.41.03.19-.05.16-.18.35-.23s.22.12.41.07c.19-.04.07-.31.26-.36.19-.04.27.04.46,0s.19.04.38,0c.19-.05.19-.17.38-.22.19-.05.25.16.44.11s.13-.26.33-.31c.19-.05.21.02.4-.03.19-.05.22.04.41,0,.19-.05.11-.29.3-.34.19-.06.26.14.45.08.19-.06.16-.15.35-.2.19-.06.29.09.43.05l-.3-.95c-.14.04-.08.16-.27.22-.19.05-.21-.02-.39.03h0Z"/>
      <path class="st1" d="M60.9,34.4c-.18.09-.06.22-.24.3-.18.09-.35,0-.52.08-.17.09-.15.15-.32.23-.18.08-.25-.06-.42.02-.18.08-.17.21-.35.29s0,.33-.18.41c-.18.08-.33-.22-.51-.14-.18.07-.19.17-.37.24-.18.07-.2-.17-.38-.1s-.11.27-.29.34-.19.05-.37.11-.25-.09-.43-.03-.13.3-.32.36-.42-.09-.43-.08l.3.95s.21-.18.4-.24c.19-.06.23.06.42,0s.14-.19.33-.26c.19-.06.24.09.43.02s.03-.32.21-.39.28,0,.46-.07.19,0,.38-.06c.18-.08.16-.2.34-.28.18-.08.27.12.45.04.18-.08.09-.28.27-.36s.21,0,.39-.09c.18-.09.22,0,.4-.09s.05-.31.23-.39c.18-.09.28.09.46,0s.13-.17.31-.26.3.04.43-.03l-.47-.89c-.13.07-.05.18-.22.27-.18.09-.21.02-.38.1h-.01Z"/>
      <path class="st1" d="M66.25,31.16c-.16.11-.03.23-.19.34s-.34.05-.5.16-.12.16-.29.27c-.16.11-.25-.02-.41.09s-.13.24-.29.34.05.33-.11.44c-.17.1-.36-.16-.53-.06s-.16.2-.33.3c-.17.1-.23-.13-.39-.03-.17.1-.06.29-.23.39s-.18.07-.35.17-.26-.04-.43.05c-.17.09-.08.32-.25.41s-.43,0-.44,0l.47.89s.18-.21.35-.31c.17-.09.23.02.41-.08.17-.1.11-.22.28-.32s.25.05.42-.05-.02-.32.15-.42c.17-.1.27-.05.44-.15.17-.1.19-.02.36-.13.17-.1.12-.22.29-.33s.29.07.45-.04c.17-.11.05-.29.21-.4.16-.11.2-.05.37-.16.16-.11.22-.03.38-.14.16-.11,0-.31.16-.42.16-.11.29.04.46-.07.16-.11.11-.19.26-.31.16-.12.3-.01.42-.1l-.6-.8c-.12.09-.02.18-.18.3-.16.12-.2.05-.36.17h0Z"/>
      <path class="st1" d="M71.04,27.14c-.14.14,0,.23-.13.36-.14.13-.33.1-.47.24-.14.13-.1.18-.24.31s-.25.02-.39.15-.09.26-.24.39.1.32-.05.45c-.15.13-.39-.11-.54.02-.15.13-.12.23-.27.35-.15.13-.24-.1-.39.03-.15.12-.02.29-.17.42-.15.12-.17.1-.32.22-.15.12-.26,0-.42.12-.15.12-.03.33-.18.45-.16.12-.43.05-.44.06l.6.8s.15-.23.3-.35c.16-.12.23-.02.39-.14.16-.12.07-.23.23-.35s.26,0,.41-.12c.15-.13-.07-.31.08-.43s.27-.09.42-.21c.15-.13.18-.05.33-.18.15-.13.09-.23.24-.36.15-.13.29.03.44-.1.15-.13,0-.29.15-.42s.19-.08.34-.21c.15-.13.21-.06.36-.2.14-.14-.04-.31.1-.44.14-.14.3,0,.44-.14s.07-.21.21-.35c.14-.14.3-.05.4-.16l-.71-.71c-.1.1,0,.18-.14.32s-.19.08-.33.22v-.04Z"/>
      <path class="st1" d="M76.51,31.09c-.1-.15-.22-.02-.31-.17s-.02-.32-.12-.46c-.09-.15-.15-.11-.24-.26s.03-.23-.06-.38-.23-.11-.32-.26-.32.06-.42-.08c-.09-.15.18-.35.08-.49-.09-.15-.19-.13-.29-.28-.09-.15.14-.22.04-.36-.09-.15-.28-.03-.37-.18-.09-.15-.07-.16-.16-.31-.09-.15.04-.24-.05-.39-.09-.15-.31-.04-.4-.19-.09-.15,0-.4,0-.41l-.85.53s.21.14.3.28c.09.15-.01.21.08.36.09.15.21.08.3.22.09.15-.05.23.04.38.09.15.31-.05.4.1.09.15.04.25.13.39.09.15.02.17.11.32.09.15.21.1.3.25.09.15-.08.27,0,.41.09.15.28.03.37.17.09.15.03.19.13.33.09.15.01.2.11.34.09.15.3,0,.39.14.1.15-.07.27.03.42s.18.09.27.24c.1.15-.02.27.05.38l.84-.55c-.07-.11-.17-.02-.27-.17s-.03-.19-.12-.33h0Z"/>
      <path class="st1" d="M79.66,35.7c-.1-.14-.22,0-.32-.15-.1-.14-.04-.31-.14-.45s-.15-.1-.25-.25c-.1-.14.02-.23-.08-.38-.1-.14-.23-.1-.33-.24-.1-.14-.32.08-.42-.07-.1-.14.16-.35.07-.5-.1-.14-.2-.13-.3-.27-.1-.14.13-.22.03-.37-.1-.14-.28-.02-.38-.17-.1-.14-.07-.16-.17-.3s.03-.24-.06-.39c-.1-.14-.31-.03-.41-.18-.1-.14,0-.4-.01-.41l-.84.55s.21.13.31.28c.1.15,0,.21.09.36.1.15.21.07.31.21.1.15-.04.24.05.38.1.14.31-.06.4.08.1.14.05.25.14.39.1.14.02.17.12.31.1.14.21.09.31.24.1.14-.07.27.03.41s.28.02.38.16.04.18.14.33c.1.14.02.2.12.34.1.14.3-.02.4.12s-.05.27.05.42c.1.14.18.08.28.23.1.14,0,.28.07.38l.8-.6c-.08-.1-.17,0-.28-.15-.1-.14-.04-.18-.14-.33l.03.02Z"/>
      <path class="st1" d="M83.37,39.73c-.13-.11-.21.04-.35-.07-.13-.11-.11-.3-.25-.41s-.18-.06-.32-.17c-.13-.11-.06-.24-.17-.34-.11-.11-.23-.04-.35-.15-.12-.11-.3.15-.42.02-.12-.13.11-.37,0-.5-.11-.12-.21-.09-.32-.22s.11-.23,0-.37c-.11-.13-.28,0-.39-.13s-.09-.15-.2-.28c-.11-.13.02-.24-.09-.38-.1-.14-.31,0-.41-.15-.1-.14-.03-.39-.04-.4l-.8.6s.22.12.33.26,0,.21.11.36c.11.14.21.06.32.19.11.14-.02.24.09.38.11.14.3-.09.41.05.11.13.07.25.18.38.12.13.05.17.17.3.12.13.22.07.34.2.12.13-.02.28.12.41s.28-.04.42.09.09.17.22.28c.13.11.07.18.21.29.13.11.28-.1.42,0,.13.11.02.28.15.39.13.11.2.04.33.15.13.11.06.27.16.35l.64-.77c-.1-.08-.17.03-.3-.08-.13-.11-.08-.17-.22-.28h0Z"/>
      <path class="st1" d="M87.87,42.84c-.15-.06-.19.1-.34.03-.15-.08-.17-.25-.32-.33s-.18-.02-.33-.11c-.15-.08-.07-.22-.22-.31-.14-.09-.25,0-.39-.09s-.27.19-.41.09c-.14-.1.02-.38-.11-.48-.14-.1-.23-.05-.37-.15-.14-.1.05-.25-.09-.35s-.27.07-.41-.03c-.14-.11-.12-.13-.26-.23-.14-.11-.04-.24-.17-.35-.13-.11-.3.07-.44-.05-.13-.11-.12-.38-.13-.38l-.64.77s.24.06.38.18c.14.11.06.21.19.32.14.11.22,0,.36.11s.03.24.17.35c.14.11.27-.15.41-.05.14.1.12.22.27.32.14.1.08.15.23.25.14.1.23,0,.38.11.15.1.03.28.18.38.15.09.27-.09.42,0s.11.16.27.24c.16.09.11.17.27.26.16.09.26-.15.42-.07.16.08.08.27.25.35.17.07.21-.02.37.05s.15.24.28.29l.34-.94c-.11-.04-.15.09-.3.03-.15-.07-.12-.14-.28-.2h.02Z"/>
      <path class="st1" d="M89.4,48.51c0-.14-.17-.11-.17-.25s.16-.22.16-.36-.07-.14-.06-.28c0-.14.16-.14.16-.28s-.13-.17-.12-.31c0-.14-.3-.1-.3-.24s.34-.15.34-.29-.09-.17-.09-.31.23-.08.24-.22c0-.14-.21-.15-.21-.28,0-.14.03-.14.03-.28s.17-.14.17-.28-.24-.16-.23-.3c0-.14.22-.26.22-.27l-1-.03s.1.18.09.32c0,.14-.13.13-.13.27s.13.14.13.28-.17.13-.17.27.29.1.28.24c0,.14-.1.18-.11.32,0,.14-.08.12-.08.26s.12.16.11.3c0,.14-.22.14-.22.28s.22.14.21.28c0,.14-.07.14-.08.28,0,.14-.1.14-.1.28s.25.13.25.27-.21.15-.21.29.09.14.09.28-.17.17-.17.27l1,.02c0-.1-.13-.09-.13-.23s.08-.14.08-.28l.02-.02Z"/>
      <path class="st1" d="M94.14,47.49c-.08.15.09.19.02.35-.09.15-.27.16-.36.3-.1.13-.03.18-.14.31-.1.13-.22.03-.33.14s-.06.24-.14.3c-.09.07.08.35-.09.37-.16.02-.24-.31-.43-.28-.19.03-.22.13-.4.16-.19.03-.16-.21-.35-.17-.19.04-.15.25-.33.29s-.19.02-.38.06c-.18.05-.24-.11-.43-.05s-.14.3-.31.36c-.18.06-.42-.06-.44-.06l.4.92s.17-.18.33-.24.2.06.36,0c.16-.05.13-.18.3-.23.17-.04.21.12.38.08.17-.04.06-.31.23-.34.18-.04.25.05.42.03.18-.03.17.05.34.02.19-.02.15-.14.4-.17.24,0,.32.15.55-.02.22-.19.04-.31.18-.46.14-.14.19-.1.32-.25s.2-.1.31-.27c.11-.17-.12-.29-.02-.45.1-.16.28-.09.37-.27.09-.18,0-.22.07-.39.07-.18.25-.16.3-.3l-.94-.34c-.04.12.09.15.02.32-.07.16-.13.13-.21.29h0Z"/>
      <path class="st1" d="M95.25,41.88c-.01.18.16.15.15.34-.02.18-.18.28-.2.46s.05.19.03.37c-.02.18-.17.17-.19.35-.02.18.1.24.08.42-.02.18.29.17.26.35s-.36.16-.39.33c-.03.18.06.24.02.41-.03.18-.25.07-.28.25-.04.17.18.22.14.4-.04.17-.07.17-.11.34-.04.17-.2.14-.25.31-.05.17.18.26.13.43-.06.17-.31.25-.32.26l.94.34s-.01-.27.04-.45.17-.15.22-.33-.08-.22-.04-.4.2-.14.25-.33c.04-.19-.25-.19-.22-.37.04-.18.14-.22.18-.4.03-.18.1-.15.13-.33.03-.19-.09-.22-.06-.41.03-.18.24-.16.26-.35.02-.19-.2-.21-.17-.39.02-.18.1-.18.11-.36.02-.18.11-.18.13-.36.02-.19-.24-.19-.22-.37s.22-.19.23-.37-.09-.19-.07-.38c.01-.18.18-.22.19-.36l-1-.05c0,.14.12.13.11.31s-.09.18-.1.36l.02-.02Z"/>
      <path class="st1" d="M95.38,36.01c0,.18.17.14.18.32,0,.18-.14.29-.14.47s.07.18.07.36-.15.19-.15.37.13.23.13.41.31.13.3.31c0,.18-.34.2-.34.38s.09.23.08.41c0,.18-.24.11-.24.29s.21.19.2.38c0,.18-.04.18-.04.36s-.17.19-.18.37c0,.18.23.22.22.4,0,.18-.23.34-.23.35l1,.05s-.09-.24-.08-.43c0-.18.13-.18.14-.36,0-.18-.13-.19-.12-.38,0-.18.17-.17.18-.36,0-.18-.28-.14-.28-.32s.11-.24.11-.42.08-.16.08-.34c0-.19-.12-.21-.11-.39,0-.18.21-.19.22-.37,0-.19-.22-.18-.22-.37,0-.18.07-.19.07-.37,0-.19.09-.19.09-.37,0-.19-.26-.16-.26-.35,0-.18.2-.21.19-.4,0-.19-.1-.18-.11-.37-.01-.18.15-.24.15-.38l-1,.06c0,.13.14.11.15.29s-.07.18-.06.37v.03Z"/>
      <path class="st1" d="M94.51,30.28c.05.17.2.09.25.27.04.18-.08.32-.04.49.04.18.11.16.15.34s-.11.21-.07.39c.03.18.17.19.21.37.03.18.33.07.36.25s-.3.26-.27.44c.03.18.13.21.16.39.03.18-.21.15-.19.33s.24.15.26.33c.02.18,0,.18.01.36.02.18-.14.21-.13.39.02.18.26.18.28.37.01.18-.19.36-.19.38l1-.06s-.12-.23-.13-.42c-.02-.18.11-.19.09-.38-.02-.19-.15-.17-.17-.36-.02-.18.14-.2.12-.39s-.3-.09-.32-.28c-.02-.18.07-.26.04-.44s.05-.17.02-.36c-.03-.18-.15-.19-.18-.37s.17-.22.14-.41c-.04-.18-.25-.14-.29-.32s.04-.2,0-.38c-.04-.18.05-.2,0-.38-.04-.18-.29-.1-.33-.28s.14-.25.09-.43-.14-.15-.2-.33c-.05-.18.1-.27.06-.41l-.95.3c.04.13.16.07.21.25.05.17-.03.19.02.37v-.02Z"/>
      <path class="st1" d="M92.18,25c.1.15.22.03.32.18s.04.31.11.48c.08.16.14.13.22.29.08.16-.05.24.02.4.08.16.21.14.29.3s.33-.02.41.14-.21.33-.13.49.18.16.26.33c.08.16-.16.19-.09.36.06.17.27.09.33.26.07.17.04.18.1.35.07.17-.08.23-.03.4.06.17.29.12.35.29s-.09.4-.09.41l.95-.3s-.18-.2-.23-.38c-.06-.18.06-.22,0-.39-.06-.18-.19-.13-.26-.31-.07-.17.09-.23.02-.41s-.31-.02-.38-.19-.01-.26-.09-.43c-.08-.17,0-.18-.08-.35s-.2-.14-.28-.3c-.08-.17.11-.26.02-.43-.08-.17-.28-.07-.36-.23-.08-.17-.02-.2-.1-.37s0-.21-.08-.38-.3-.02-.4-.18c-.1-.15.06-.27-.04-.43s-.19-.1-.29-.26.01-.29-.06-.4l-.83.55c.07.11.17.03.27.18s.03.19.13.34h.02Z"/>
      <path class="st1" d="M88.52,20.53c.13.13.22-.02.35.1.13.13.1.31.23.44.13.13.18.08.31.2.13.13.03.23.15.36.12.14.24.08.35.22.12.14.31-.11.43.03.12.14-.12.38,0,.52.12.14.22.11.33.25.12.14-.11.23,0,.37.12.14.29,0,.41.14.11.14.1.15.2.3s-.03.25.07.4.31.03.41.18c.1.15.01.41.02.42l.83-.55s-.22-.15-.32-.3c-.1-.16,0-.23-.1-.38-.1-.16-.22-.08-.32-.23-.1-.16.02-.24-.1-.39-.12-.14-.31.08-.43-.07-.12-.14-.08-.25-.2-.39-.12-.14-.05-.17-.17-.32-.12-.14-.23-.08-.35-.22-.12-.14.04-.29-.08-.43s-.28,0-.4-.13c-.13-.14-.08-.18-.21-.31s-.07-.2-.2-.33-.3.06-.43-.07,0-.29-.14-.42c-.13-.13-.2-.06-.33-.19-.13-.13-.05-.29-.15-.38l-.67.74c.1.09.17-.02.3.11.13.13.08.18.21.31v.02Z"/>
      <path class="st1" d="M83.9,17c.16.09.21-.07.36.03s.16.29.31.39c.15.1.19.04.34.15.15.1.07.23.22.33s.26.02.41.12.28-.18.43-.08-.02.38.12.5c.14.11.23.07.37.18s-.05.26.09.37.28-.06.42.06c.14.11.12.13.27.25.14.11.05.24.19.36.14.11.32-.05.46.06.14.12.11.4.12.41l.67-.74s-.24-.1-.38-.21c-.15-.12-.06-.21-.21-.33s-.24-.01-.38-.13c-.15-.12-.04-.24-.18-.36-.15-.12-.28.14-.42.03-.14-.11-.13-.23-.27-.35s-.08-.16-.23-.28c-.14-.12-.24-.03-.39-.13-.15-.1-.03-.28-.19-.38-.15-.1-.28.08-.43-.02s-.11-.16-.27-.27c-.15-.1-.1-.18-.26-.29-.15-.1-.28.12-.43.02s-.06-.29-.22-.39c-.16-.09-.21,0-.37-.1-.16-.09-.11-.26-.24-.33l-.51.86c.12.07.17-.05.33.04s.12.16.27.25v-.02Z"/>
      <path class="st1" d="M78.68,14.38c.17.07.2-.1.37-.03.17.07.21.25.37.33.17.07.19,0,.36.08.17.07.11.21.27.29.16.08.26-.02.42.06.16.08.24-.22.41-.14.16.08.04.39.2.47.16.08.24.02.41.1.16.08,0,.26.16.34s.27-.12.43-.03.15.11.3.2c.16.09.09.24.24.33.16.09.3-.11.46-.02.16.09.2.36.21.36l.51-.86s-.26-.03-.42-.12c-.16-.09-.1-.2-.26-.29s-.23.03-.39-.06c-.16-.09-.08-.24-.24-.33-.16-.09-.25.2-.41.11-.17-.08-.17-.2-.34-.28s-.11-.14-.28-.22-.24.02-.4-.06c-.17-.08-.08-.28-.25-.36s-.26.12-.42.04c-.17-.08-.14-.14-.31-.22-.17-.07-.13-.16-.3-.23-.17-.07-.25.17-.42.1s-.11-.27-.28-.34-.21.02-.38-.05c-.17-.07-.15-.25-.28-.3l-.37.93c.12.05.16-.08.33,0,.17.07.14.14.31.21h-.01Z"/>
      <path class="st1" d="M73.14,12.5c.18.05.18-.13.36-.08s.24.23.41.28c.18.05.19-.02.37.03s.13.2.31.26c.17.06.25-.06.43,0,.17.06.21-.25.39-.2.17.06.1.38.27.44.17.06.24-.02.42.04.17.06.04.26.21.32.17.06.25-.14.42-.08s.16.09.33.15c.17.06.12.22.29.28.17.06.28-.15.45-.09.17.06.25.32.26.33l.37-.93s-.26,0-.43-.05c-.17-.06-.13-.18-.3-.24-.17-.06-.22.07-.4,0-.17-.06-.11-.22-.29-.28-.17-.06-.22.23-.39.16-.17-.06-.19-.18-.37-.24-.18-.06-.13-.12-.31-.18s-.23.05-.41,0c-.18-.06-.12-.26-.29-.32-.18-.06-.24.15-.41.1-.18-.05-.15-.13-.33-.18s-.15-.14-.33-.19c-.18-.05-.23.2-.41.15s-.14-.25-.32-.3-.2.04-.38,0c-.18-.05-.18-.22-.32-.26l-.25.97c.13.03.15-.1.32-.05.18.05.15.12.33.17h0Z"/>
      <path class="st1" d="M67.4,11.32c.18.03.16-.15.35-.12.18.02.26.2.44.22.18.03.19-.04.37,0,.18.03.16.18.34.21.18.03.24-.09.42-.06s.18-.28.36-.24c.18.03.14.37.32.4s.24-.04.42,0,.07.25.24.29c.18.04.23-.17.41-.14.18.04.17.06.35.11.18.04.15.2.33.25.18.04.26-.19.44-.14.18.04.29.29.3.29l.25-.97s-.26.04-.44,0-.15-.16-.33-.21c-.18-.04-.21.09-.39.05s-.14-.2-.32-.24-.19.25-.37.22c-.18-.04-.22-.15-.4-.19s-.14-.11-.32-.15c-.18-.03-.23.08-.41.05s-.15-.24-.33-.28c-.18-.03-.22.18-.4.15-.18-.03-.17-.1-.35-.13s-.17-.12-.35-.15-.2.22-.39.2c-.18-.03-.17-.23-.35-.26-.18-.03-.2.07-.38.05-.18-.02-.21-.19-.35-.21l-.12.99c.13.02.13-.12.31-.09.18.02.17.1.35.13v-.03Z"/>
      <path class="st1" d="M61.57,10.96c.18,0,.14-.17.32-.17s.29.15.47.15.18-.07.37-.07c.18,0,.18.16.36.17.18,0,.23-.12.41-.12s.14-.3.32-.3.19.34.37.35.23-.08.41-.07.1.24.28.25.2-.21.38-.19.18.04.36.06.18.18.36.2c.18.02.23-.22.41-.2s.32.26.33.26l.12-.99s-.25.07-.43.05c-.18-.02-.17-.14-.35-.16-.19-.02-.2.12-.38.1-.18-.02-.17-.18-.35-.2-.18-.02-.15.28-.34.26-.18-.01-.24-.12-.42-.13s-.16-.09-.34-.1c-.19-.01-.21.11-.4.1-.18,0-.18-.22-.37-.23-.19,0-.19.21-.37.21s-.18-.08-.37-.08c-.18,0-.18-.1-.37-.1s-.17.25-.35.26c-.18,0-.2-.2-.39-.2s-.18.1-.37.1c-.18,0-.23-.16-.37-.16l.03,1c.14,0,.11-.14.3-.14.18,0,.18.08.36.08h0Z"/>
      <path class="st1" d="M55.75,11.48c.18-.03.11-.19.29-.22.18-.03.31.1.49.08s.17-.09.35-.11c.18-.02.21.13.38.11.18-.02.21-.16.39-.18s.09-.32.27-.34.24.31.42.3c.18-.01.22-.11.4-.13.18-.01.14.22.32.21s.17-.23.35-.25c.18-.01.18,0,.36,0s.2.15.38.15.2-.25.38-.26c.18,0,.36.2.37.2l-.03-1s-.24.11-.42.12c-.18,0-.19-.12-.38-.11-.19,0-.18.15-.36.15s-.19-.15-.38-.14c-.19.02-.11.3-.29.31s-.25-.08-.43-.06c-.18.02-.17-.06-.35-.05-.18.02-.19.13-.38.16-.18.02-.21-.19-.4-.17-.18.02-.15.24-.34.26-.18.02-.19-.05-.38-.03-.18.02-.2-.07-.38-.05-.18.02-.13.27-.31.3s-.23-.17-.41-.13c-.18.03-.17.13-.35.16s-.26-.13-.39-.1l.18.98c.13-.02.09-.15.27-.18.18-.03.19.05.37.01h.01Z"/>
      <path class="st1" d="M50.09,12.9c.17-.06.08-.21.25-.27s.32.05.49,0c.17-.06.15-.12.33-.17s.22.1.4.05c.17-.05.18-.19.36-.24.17-.05.04-.33.22-.38s.29.27.46.22.19-.15.37-.19.17.2.35.16.13-.25.31-.29.18-.01.36-.05.22.12.4.08.15-.29.33-.32.39.15.4.15l-.18-.98s-.22.14-.4.17-.2-.08-.39-.04c-.18.04-.15.18-.33.22s-.21-.12-.4-.08c-.18.04-.06.31-.24.35s-.26-.04-.44,0-.18-.04-.36.01-.17.17-.35.22-.24-.15-.42-.1c-.18.05-.11.26-.29.31s-.2-.02-.38.03-.21-.04-.38.02c-.18.06-.08.3-.26.36-.17.06-.26-.13-.43-.07-.18.06-.14.15-.32.21-.17.06-.27-.08-.41-.04l.34.94c.13-.04.07-.16.24-.22.17-.06.2.01.37-.04v-.02Z"/>
      <path class="st1" d="M44.73,15.22c.16-.09.04-.22.2-.31s.33,0,.49-.07c.16-.08.13-.14.3-.22.16-.08.24.06.4-.02.16-.08.15-.21.31-.29s-.02-.33.15-.41c.17-.08.33.21.49.14.17-.07.17-.17.34-.24.17-.07.2.17.37.1s.09-.27.25-.34c.17-.07.18-.04.35-.11s.24.08.4.01c.17-.07.1-.31.28-.37.17-.06.41.09.42.08l-.34-.94s-.19.18-.37.24c-.17.06-.22-.05-.39.02-.17.07-.12.2-.29.27-.17.07-.23-.08-.4-.01-.17.07,0,.31-.18.38-.17.07-.26,0-.43.07-.17.07-.18,0-.35.06-.17.08-.14.2-.3.28-.17.08-.26-.11-.43-.03-.17.08-.07.28-.24.36-.17.08-.2.02-.36.1-.17.08-.21,0-.38.08-.17.08-.03.3-.2.38-.16.09-.27-.08-.44,0-.16.09-.12.18-.28.26-.16.09-.28-.04-.41.03l.49.87c.12-.07.04-.17.2-.26s.19-.02.35-.11Z"/>
      <path class="st1" d="M39.81,18.37c.15-.11,0-.22.16-.33s.32-.05.47-.15.11-.16.26-.26c.15-.1.24.02.39-.08.15-.1.11-.23.26-.34.15-.1-.07-.33.09-.43.15-.1.36.16.51.06.15-.1.14-.2.3-.29.16-.1.22.13.38.04.15-.1.04-.28.2-.38.16-.1.17-.07.32-.17s.25.04.4-.06c.16-.09.06-.31.22-.4.16-.09.41.02.42.01l-.49-.87s-.16.21-.32.3-.23-.02-.38.07c-.16.1-.09.22-.25.31-.16.1-.24-.05-.4.05s.04.31-.12.41c-.16.1-.26.04-.42.14s-.18.02-.34.12c-.15.1-.1.22-.26.32-.15.1-.27-.07-.43.03-.15.1-.03.28-.18.39-.15.1-.19.04-.35.15-.15.1-.21.03-.36.13-.15.11,0,.31-.13.41-.15.11-.28-.04-.43.07s-.09.19-.24.3c-.15.11-.29,0-.4.09l.61.79c.11-.08,0-.18.16-.29s.19-.05.34-.16v.02Z"/>
      <path class="st1" d="M35.38,22.18c.13-.13-.02-.22.11-.35.13-.13.31-.09.45-.22.13-.12.09-.17.22-.3.13-.12.24-.01.38-.14.13-.12.08-.25.21-.37.13-.12-.11-.31.02-.44.14-.12.37.11.51-.01s.11-.21.25-.33.24.1.38-.01c.14-.12,0-.29.14-.4.14-.12.16-.1.3-.21.14-.12.25,0,.39-.11.14-.12,0-.32.16-.43s.41-.04.42-.05l-.61-.79s-.13.23-.28.34c-.15.11-.23.01-.37.13-.14.12-.06.23-.2.35s-.25-.01-.39.11.08.3-.06.42c-.14.12-.25.08-.39.2s-.18.05-.32.16c-.14.12-.07.23-.21.35s-.28-.03-.42.09c-.14.13,0,.28-.12.41-.14.12-.19.07-.32.2-.14.13-.2.06-.34.18-.14.13.05.29-.08.42s-.28,0-.41.13-.06.2-.19.33c-.13.13-.28.05-.38.15l.72.7c.09-.1,0-.18.12-.31.13-.13.18-.07.31-.2Z"/>
      <path class="st1" d="M31.59,26.62c.1-.15-.06-.22.05-.36.11-.14.3-.14.41-.28.11-.14.06-.18.17-.33.11-.14.24-.05.35-.2.11-.14.04-.26.15-.4s-.16-.29-.05-.44c.12-.14.39.06.51-.08s.08-.23.2-.37c.12-.14.25.06.37-.07.12-.14-.04-.28.08-.42.12-.14.14-.12.26-.26s.24-.04.37-.17c.13-.13-.03-.31.1-.44.13-.13.4-.1.41-.11l-.72-.7s-.09.24-.22.38c-.13.13-.22.05-.35.18-.13.13-.02.23-.15.37-.12.14-.24.03-.37.17-.12.14.13.29,0,.43-.12.14-.23.12-.36.26-.12.14-.17.07-.29.21-.12.14-.04.23-.16.37-.11.15-.28.02-.39.16-.11.15.06.28-.05.43s-.17.1-.28.25-.19.09-.3.24c-.11.15.1.28-.01.43s-.29.04-.4.19c-.1.15-.02.21-.13.36-.1.15-.27.1-.35.21l.83.56c.08-.11-.04-.17.06-.32s.16-.11.26-.26h0Z"/>
      <path class="st1" d="M28.74,31.68c.08-.16-.1-.19-.02-.36s.26-.2.34-.36.02-.19.09-.36c.08-.16.22-.1.29-.26.08-.16-.02-.26.05-.42.09-.16-.21-.25-.12-.41.09-.16.4-.02.49-.18s.03-.24.12-.4.26.01.35-.14c.09-.16-.1-.27,0-.43.09-.16.11-.15.21-.3.1-.15.24-.07.34-.22s-.09-.3.01-.45c.1-.15.37-.17.38-.18l-.83-.56s-.05.26-.15.41-.21.09-.31.24c-.1.16.01.23-.09.38-.1.16-.23.07-.33.23-.09.16.18.26.09.42s-.21.16-.3.32-.15.11-.24.27,0,.24-.09.4-.29.06-.37.23.12.26.04.43-.14.14-.22.31-.16.13-.24.3.16.26.08.43-.27.1-.35.27.01.21-.05.38-.24.16-.28.29l.93.36c.05-.13-.08-.16-.02-.33.07-.17.12-.14.2-.31Z"/>
      <path class="st1" d="M27.26,37.26c.03-.18-.15-.16-.12-.34.03-.18.2-.26.22-.44.03-.18-.04-.19-.01-.37s.18-.16.2-.33c.02-.18-.09-.24-.04-.42.04-.17-.27-.19-.22-.36.05-.18.38-.12.42-.3.04-.17-.03-.24.01-.41.04-.18.25-.05.3-.22.04-.17-.16-.24-.12-.41.06-.17.09-.16.15-.33.06-.17.22-.13.28-.3.06-.17-.16-.27-.1-.44s.32-.25.32-.26l-.93-.36s.01.26-.05.44-.18.13-.24.31.07.22,0,.4c-.06.18-.22.12-.28.3-.05.18.24.21.2.39-.05.18-.16.21-.2.39-.05.18-.11.14-.16.32s.07.23.02.41-.26.14-.3.32c-.05.18.17.22.14.41-.03.18-.1.17-.13.36-.03.18-.12.17-.15.36-.03.19.23.2.2.39-.03.18-.23.18-.26.36-.03.19.07.2.04.38-.02.18-.18.22-.19.36l1,.08c0-.13-.13-.13-.12-.31.03-.18.1-.17.13-.35v-.03Z"/>
      <path class="st1" d="M27.42,43.04c-.03-.18-.19-.12-.21-.3-.02-.18.12-.31.09-.49-.02-.18-.09-.17-.11-.35s.13-.2.11-.38c-.02-.18-.15-.21-.16-.39s-.32-.1-.33-.28.32-.23.31-.41-.1-.22-.11-.4c0-.18.23-.12.22-.3,0-.18-.21-.18-.21-.36s.03-.18.04-.36c0-.18.17-.19.18-.36,0-.18-.23-.21-.23-.4,0-.18.23-.33.23-.34l-1-.08s.09.25.09.44-.13.18-.14.37c0,.19.13.19.12.38,0,.19-.17.18-.18.37,0,.19.28.13.28.31s-.09.25-.09.43c0,.19-.07.17-.06.35.01.19.13.2.14.39.01.18-.2.21-.18.39.02.19.23.16.25.35.02.18-.05.19-.03.38.02.18-.07.19-.05.38.02.18.27.14.3.32.02.18-.18.23-.15.41s.12.17.15.35c.03.18-.13.25-.11.39l.99-.16c-.02-.13-.15-.1-.17-.28-.03-.18.05-.19.02-.37Z"/>
      <path class="st1" d="M28.75,48.7c-.06-.17-.21-.07-.27-.24-.06-.17.06-.32,0-.49-.05-.17-.12-.15-.17-.32s.1-.22.05-.39c-.05-.17-.19-.18-.23-.36-.05-.18-.33-.04-.37-.22-.05-.18.27-.28.23-.46s-.14-.2-.18-.37c-.04-.18.2-.16.16-.34s-.25-.14-.29-.31c-.04-.18,0-.18-.04-.36-.03-.18.12-.22.09-.4s-.27-.16-.3-.34c-.03-.18.15-.38.15-.39l-.99.16s.14.22.17.4-.09.2-.06.39c.03.18.17.16.21.34.04.18-.13.21-.09.39.04.18.31.07.35.25s-.05.26,0,.44c.04.18-.04.18,0,.36s.16.17.21.35-.16.24-.11.42c.05.18.26.12.31.3s-.02.2.03.38c.05.18-.03.21.02.39.06.18.29.08.35.26.06.17-.12.26-.06.44.06.18.15.14.23.32.07.17-.07.28-.01.42l.92-.4c-.05-.12-.16-.05-.23-.22-.07-.17,0-.19-.06-.36l-.02-.04Z"/>
      <g>
        <path class="st1" d="M73.68,26.65l-.02-.03-.02-.03-.04-.07-.04-.07-.02-.03-.03-.03h-.01v-.02h-.04l-.03-.02h-.04l-.07-.02h-.03l-.02-.02h-.02v-.02h-.02l-.02-.05-.04-.08-.05-.08-.03-.03h-.01l-.02-.02h-.03l-.03-.03h-.06l-.06-.03-.06-.02h-.02l-.04.02-.07.06-.07.06-.04.02h-.02l-.02.02h-.14s-.03-.01-.03-.01h-.03s-.03-.01-.03-.01h-.04l-.07.04-.08.04c-.05.03-.1.06-.14.09l-.03.02-.02.02-.02.03v.03l-.04.06-.02.03-.03.02h-.02l-.02.02h-.04l-.09.03h-.04l-.04.02h-.02l-.02.02h-.02l-.02.03.35.35.18.18.18.18.02-.03v-.02l.03-.02.02-.02h0v-.04l.03-.05v-.03l.03-.03h.01l.02-.03h.02l.02-.03s.08-.05.13-.08c.03-.02.05-.03.08-.04h.02s.01-.01.01-.01h.05s.02.01.02.01l.03.03.03.03.02.03.04.06.02.02.02.02h0v.02h0v.17h.01v.02s.02.03.03.05c.01.02.03.04.04.06l.21-.13.21-.13.43-.26-.02-.03-.02-.03-.06-.05-.06-.05-.03-.03-.03-.03.1-.02Z"/>
        <path class="st0" d="M72.61,27.65h-.03v-.02s-.03-.02-.03-.02l-.04-.04-.09-.09-.18-.18-.35-.35-.71-.71.9-.92.9-.96,1.37,2.24-1.71,1.05h-.03Z"/>
      </g>
      <g>
        <path class="st1" d="M89.48,44.38v-.15s.01-.02.01-.02v-.02h0v-.02l-.02-.02-.05-.03-.05-.03-.02-.02h0v-.02h0v-.17h0v-.03h0v-.02l-.02-.02-.02-.02-.04-.03-.04-.03-.04-.03-.05-.03-.05-.03-.05-.03-.02-.02h0v-.02h0v-.11s-.01-.06-.01-.06l-.02-.03h0v-.02l-.04-.04-.04-.04s-.06-.05-.08-.07h0s-.04,0-.04,0h-.08s-.01-.04-.01-.04l-.02-.06v-.03l-.03-.03h0s-.01-.03-.01-.03h-.01l-.17.46-.08.24-.08.24h.14s.01,0,.01,0h.03s0,0,.01,0h.01s.02.03.03.04l.05.04.05.04.05.04h.02v.02h.02v.02h0v.12h0v.02h0s-.01.03-.01.03v.02l-.04.03v.02h-.01v.1h.25l.25.02.5.02v-.04l-.02-.05-.02-.05v-.04s-.14.04-.14.04Z"/>
        <path class="st0" d="M88.03,44.51c-.06-.06-.06-.05-.09-.08h0v-.05l.03-.06.04-.12.08-.24.17-.47.34-.94.17.06.08.03.09.02.34.1.8.19-.07,1.64-2-.07h.02Z"/>
      </g>
      <g>
        <path class="st1" d="M90.11,50.56l-.08.03-.09.04-.09.04-.05.02h-.07s-.02,0-.02,0h-.08l-.04-.03-.07-.03h-.04l-.04-.02h-.1l-.11.02s-.08,0-.11,0h-.09s-.03-.03-.03-.03l-.03-.02-.05-.04s-.06-.05-.1-.09h-.01v-.02h0v-.05s0-.06.01-.09v-.2h-.01l-.02-.04-.05-.04-.03-.02-.02-.02-.02-.03v-.02l-.02-.02s-.01-.05-.02-.08l-.02-.09c-.01-.06-.02-.13-.03-.18v-.1l.02-.03.02-.06v-.12l-.02-.04s-.03-.05-.05-.08l-.03-.04-.02-.04v-.02l-.02-.02v-.04h.75s.25,0,.25,0v.09s-.01.03-.01.03h0v.05l-.02.06v.03l-.02.04v.1s.03.1.05.17c0,.03.01.06.02.09v.02h0l-.04.11h.02s.02,0,.02,0h.02s.02,0,.02,0h.06l.04-.02s.04-.02.06-.03h.03l.03-.02h.04s.02-.03.02-.03l.02-.02.04-.05.02-.02h.02s.04-.03.06-.04c.03,0,.05-.03.07-.04l.1.23.1.23.2.46h-.03l-.04.02h-.08l-.08.02-.08.02-.03.05Z"/>
        <path class="st0" d="M90.24,49.56c-.19-.36-.19-.34-.29-.54h-.98l-1-.03-.02.7-.02.32v.13l-.02.04v-.06s.01-.03.01-.03l.03-.03-.55,1.32,1.43.06h.27l.29-.03.28-.06.25-.08.21-.09.18-.08.31-.14-.4-.92-.2-.46-.1-.23-.05-.11-.02-.06v-.03h-.02v-.02h0c.27.29.27.28.41.44h0Z"/>
      </g>
      <g>
        <path class="st1" d="M29.07,50.44h-.09v-.02h0v-.14s-.01-.02-.01-.02v-.02h-.01s-.03,0-.03,0h-.04s-.01-.06-.01-.06v-.04l-.02-.04v-.05l-.02-.02h-.01v-.03s-.03-.03-.03-.03h-.01s-.02,0-.02,0h-.03l-.06.02h-.08s-.01,0-.01,0h0l-.04-.02-.04-.02s-.05-.03-.06-.04h0v-.02h0v-.06h0v-.02h-.15s.46-.22.46-.22l.23-.1.23-.1h0v.03h0v.04s-.01,0-.01,0h0v.02h.01s.04.03.06.04l.03.02h.03v.06l.02.02h.01v.02h.05s0,0,.01,0h.01l.03-.03h.07l-.07.24-.07.24-.15.48h0l-.02-.04-.02-.03h0v-.02s-.14-.05-.14-.05Z"/>
        <path class="st0" d="M29.48,49.01s.01.05.02.07h-.04l-.06.04-.11.05-.23.1-.46.2-.92.4.24.51.23.45.5.08.19.04.18.05.29-.96.15-.48.07-.24.04-.12.02-.06v-.03h.01v-.02h0q-.07-.06-.11-.09h-.01Z"/>
      </g>
    </g>
  </g>
  <g>
    <path class="st1" d="M91.68,69.88c1.21-.78,2.45-.69,3.01-.65,1.61.12,2.66.91,3.49,1.54.62.47.86.78.98,1.1.16.43.04.91,0,1.94-.1,2.03-2.95,3.52-5.05,3.28-.62-.07-1.07-.27-1.39-.42-.42-.19-2.94-1.36-2.98-3.62-.04-1.86,1.74-3.03,1.95-3.17h0Z"/>
    <g>
      <path class="st1" d="M96.52,69.22c-.17-.07-.2.1-.36.04-.17-.06-.22-.24-.4-.29s-.19.02-.37-.02c-.18-.03-.16-.18-.34-.21-.18-.02-.25.1-.42.09-.18-.01-.14.3-.31.29-.17,0-.19-.34-.38-.33-.18,0-.22.1-.4.12-.18.02-.14-.22-.33-.19s-.15.25-.33.29-.18.02-.36.07c-.17.06-.24-.09-.42-.02-.18.08-.1.31-.26.39s-.42,0-.43,0l.54.84s.11-.19.25-.26.19.05.32-.01c.14-.05.09-.19.24-.23.15-.05.19.11.33.08s.04-.3.2-.33c.16-.03.22.07.38.05.16-.01.14.06.3.06s.17-.12.34-.12c.16,0,.15.22.32.23.16.01.17-.2.33-.19.16.03.15.09.3.12.15.03.13.12.28.16s.21-.21.36-.16c.16.05.1.25.24.31s.18-.03.33.04.1.24.2.29l.49-.87c-.12-.06-.17.06-.33-.02-.16-.08-.13-.15-.3-.22h0Z"/>
      <path class="st1" d="M99.61,73.7c.01-.17-.16-.14-.15-.31s.17-.25.19-.43c.01-.17-.05-.18-.04-.36,0-.18.16-.18.15-.4-.02-.22-.16-.26-.23-.47-.08-.2-.33-.01-.42-.17-.09-.14.15-.37.01-.53-.13-.14-.23-.1-.37-.23-.14-.12.06-.25-.08-.37-.14-.11-.28.06-.41-.04-.14-.1-.12-.13-.26-.23-.14-.1-.06-.24-.2-.34-.15-.1-.3.09-.45,0-.15-.09-.19-.36-.2-.37l-.49.87s.23,0,.37.1c.14.09.07.19.2.28s.21-.02.35.08c.13.1.03.23.17.33.13.1.27-.16.4-.06.13.1.1.21.22.31.11.1.05.15.15.25.09.1.2.04.27.15.07.12-.13.21-.1.3.02.09.24.05.25.19,0,.15-.07.15-.07.3,0,.16-.1.15-.12.32-.01.17.24.17.23.34-.01.17-.22.17-.23.35-.01.17.09.19.07.33-.02.15-.18.15-.22.24l.97.26c.05-.15-.09-.16-.06-.35.03-.19.11-.2.11-.36v.02Z"/>
      <path class="st1" d="M95.45,77.48c.18-.04.11-.2.28-.23.17-.03.31.08.49.03s.15-.12.32-.18.23.08.4,0,.16-.21.31-.29c.16-.09-.04-.33.11-.41.15-.09.34.18.5.07.16-.1.13-.21.27-.32s.24.11.38-.03,0-.29.12-.42c.12-.14.14-.12.26-.27.1-.16.25-.08.35-.24.1-.18-.11-.32-.03-.48.07-.17.32-.29.33-.3l-.97-.26s.06.2,0,.33c-.07.13-.16.08-.24.19-.08.12.04.2-.05.32-.1.12-.22,0-.32.12-.1.1.13.27.02.38s-.22.07-.34.16c-.12.1-.15.03-.28.11s-.08.2-.21.28c-.14.08-.25-.11-.38-.03-.14.07-.04.26-.19.33s-.17,0-.32.05-.18-.03-.33.01-.07.28-.22.33c-.16.04-.22-.16-.37-.13-.15.03-.14.12-.3.14s-.21-.15-.32-.14l.04,1c.14,0,.12-.13.3-.15.18-.02.19.06.37.03h.02Z"/>
      <path class="st1" d="M90.19,75.35c.12.15.22,0,.34.13.12.13.09.31.23.44.14.12.18.07.32.18s.06.23.2.34c.15.1.26.02.41.11.15.09.26-.2.41-.11.15.08.01.39.17.47.16.08.24.01.4.09.16.07,0,.26.18.33s.26-.13.43-.08c.18.05.17.08.35.12s.16.2.36.23c.19.02.24-.22.42-.21s.36.21.37.21l-.04-1s-.2.12-.35.1c-.15-.01-.14-.13-.29-.15-.14-.02-.17.12-.32.08s-.1-.2-.24-.24c-.14-.05-.19.24-.34.18-.15-.06-.15-.17-.3-.24s-.1-.13-.24-.2-.21.02-.36-.06c-.14-.08-.03-.27-.17-.35-.13-.09-.25.1-.38,0s-.09-.15-.21-.25-.06-.17-.18-.27c-.11-.11-.28.09-.39-.02-.11-.12.03-.27-.07-.38-.09-.12-.17-.06-.27-.18-.08-.13.04-.25-.02-.34l-.86.51c.08.12.18.04.28.19.11.15.05.19.16.34v.03Z"/>
      <path class="st1" d="M90.9,69.91c-.14.12,0,.22-.13.34-.13.12-.31.09-.44.23-.12.14-.07.19-.18.33-.1.15-.24.06-.34.23-.1.17-.01.27-.1.44-.08.17.22.24.16.4s-.39.08-.44.27c-.05.19.04.25,0,.44-.03.19-.24.1-.25.3-.01.2.22.2.23.39.02.19-.02.19.03.38.05.18-.12.24-.06.43.07.19.3.13.37.29.08.16-.03.42-.02.43l.86-.51s-.18-.12-.25-.25c-.05-.14.07-.18.02-.31-.04-.13-.17-.1-.2-.25-.04-.14.14-.17.13-.3,0-.14-.31-.08-.3-.24,0-.15.1-.2.13-.34.02-.15.09-.12.13-.25.04-.14-.07-.19-.02-.34.05-.15.26-.06.32-.18.06-.13-.12-.23-.04-.37.08-.13.15-.09.24-.21.1-.12.17-.06.27-.18.1-.11-.1-.28.02-.39.11-.12.27.03.38-.08.12-.1.06-.18.18-.27.13-.09.26.02.35-.04l-.54-.84c-.12.08-.03.18-.18.29s-.19.05-.33.17h0Z"/>
    </g>
  </g>
  <g>
    <path class="st1" d="M98.16,71.05c.25-.54.95-1.87,2.46-2.58.4-.19,1.04-.48,1.88-.42,1.57.12,2.56,1.4,2.91,1.86.46.6.64,1.11.68,1.24.07.22.31.95.17,1.71-.23,1.23-1.32,1.94-1.76,2.22-2.31,1.49-5.31.28-5.71.11"/>
    <g>
      <path class="st1" d="M97.89,70.6c0,.1.02.2.07.28.04.08.12.13.2.17.08.04.17.04.26.03.09-.01.18-.02.26-.07.07-.05.13-.13.18-.21l-.87-.5c-.06.09-.09.2-.09.3h-.01Z"/>
      <path class="st1" d="M103.53,67.84c-.22-.08-.23.1-.44.04-.22-.05-.33-.22-.56-.25-.24-.01-.24.05-.47.06-.23.02-.26-.13-.49-.09-.24.05-.26.19-.47.26-.22.08-.04.34-.23.42-.19.09-.35-.21-.56-.1-.2.1-.2.22-.39.33-.18.13-.25-.11-.44.02-.18.14-.05.31-.21.46-.16.15-.18.13-.34.29-.15.16-.28.07-.43.24-.14.18.04.35-.09.53-.12.18-.41.25-.42.26l.87.5s.04-.27.15-.42c.11-.16.21-.08.33-.23.12-.14.01-.24.15-.38.13-.14.25-.02.38-.14.14-.12-.09-.31.06-.43.15-.12.26-.07.42-.17.16-.1.18-.02.35-.11.16-.08.14-.21.32-.29.18-.07.26.12.43.07s.11-.26.29-.3c.18-.03.19.04.37.03.18,0,.18.09.35.1.17.03.19-.24.38-.2.19.04.15.25.32.3.17.07.21-.03.38.06.17.08.12.26.24.33l.54-.84c-.15-.09-.2.03-.4-.08-.2-.1-.17-.17-.39-.26h0Z"/>
      <path class="st1" d="M106.34,73.89c.11-.21-.06-.24.03-.45.08-.21.27-.3.31-.55.04-.24-.03-.25-.03-.48s.15-.24.13-.48c-.03-.24-.17-.27-.22-.49-.06-.22-.33-.07-.39-.27-.07-.2.23-.35.14-.56-.1-.21-.21-.21-.32-.4-.12-.19.12-.25,0-.44-.14-.19-.31-.06-.44-.22-.14-.17-.12-.19-.26-.35-.15-.16-.04-.28-.2-.44-.17-.16-.35,0-.52-.13s-.23-.43-.24-.44l-.54.84s.26.04.4.17c.15.12.06.22.2.34.13.13.23.04.36.18.13.15,0,.25.12.4s.31-.07.43.09c.11.16.06.27.16.43.09.17.01.18.1.35.07.17.19.14.26.32.06.19-.15.25-.11.42s.25.13.27.32-.05.19-.05.37-.1.17-.13.34c-.04.16.22.21.16.39s-.26.12-.34.27c-.08.15,0,.2-.11.36-.11.15-.27.07-.36.17l.73.68c.12-.13,0-.2.15-.38.14-.19.2-.14.32-.35h-.01Z"/>
      <path class="st1" d="M99.92,76.03c.21.05.2-.13.41-.08.21.05.31.21.53.24.22.02.23-.05.44-.02.22,0,.22.16.44.17.23,0,.28-.14.49-.14.22-.02.12-.32.33-.34s.29.29.51.25.25-.16.46-.22.21.18.43.09c.21-.1.13-.28.33-.39.19-.11.21-.09.4-.2.18-.12.28.01.46-.12.18-.14.06-.35.23-.49.16-.14.46-.15.47-.16l-.73-.68s-.09.24-.23.37c-.15.12-.22.02-.37.13s-.08.22-.25.33c-.17.09-.25-.05-.4.04-.16.09.01.31-.17.39s-.27,0-.45.06c-.18.05-.18-.02-.36.02-.19.03-.18.17-.38.19-.2.02-.22-.18-.41-.18s-.18.23-.38.23-.19-.08-.39-.09c-.2-.02-.19-.11-.38-.13-.19-.03-.21.23-.41.19-.2-.04-.18-.24-.37-.28-.19-.05-.22.05-.41,0s-.19-.23-.33-.28l-.32.95c.16.05.17-.08.38-.02.21.06.19.13.4.19l.03-.02Z"/>
      <path class="st1" d="M98.75,75.46c.02.09.08.17.14.24.07.07.15.13.25.17h0l.32-.95h0c-.09-.03-.18-.05-.27-.03-.09.01-.18.06-.25.11s-.13.12-.16.2c-.03.08-.05.18-.03.26Z"/>
    </g>
  </g>
  <g>
    <path class="st1" d="M83.63,71.03c.82,1.65,2.61,2.21,3.11,2.37.46.14,2.97.92,4.54-.58.98-.94,1.12-2.24,1.08-2.65-.25-2.19-1.47-3.69-1.47-3.69-.37-.45-3.18-3.32-4.52-2.41-.61,2.5-1.83,5.12-2.75,6.96h0Z"/>
    <g>
      <path class="st1" d="M84.58,70.1c.09-.19-.08-.22,0-.41.09-.19.28-.23.36-.42.08-.19.02-.22.11-.41.08-.19.23-.13.31-.32.08-.19-.02-.29.06-.48.08-.19-.23-.25-.15-.44s.4-.09.47-.29c.07-.19,0-.27.08-.47.07-.19.26-.04.34-.24.07-.2-.13-.27-.07-.47.07-.2.09-.19.16-.39.07-.2.22-.16.29-.36.06-.2-.16-.3-.1-.5.06-.2.32-.33.32-.34l-.97-.26s.03.28-.02.47c-.05.19-.18.16-.24.35-.06.19.07.23,0,.43-.06.19-.22.14-.28.32-.07.19.22.23.16.42-.07.19-.19.22-.26.4-.07.19-.14.14-.21.33s.03.25-.05.44-.28.11-.35.3c-.08.19.13.27.04.45-.08.19-.15.16-.23.34-.08.19-.17.15-.25.33s.15.27.07.46c-.09.19-.28.12-.37.3-.09.18,0,.23-.09.41s-.26.15-.33.29l.9.44c.07-.14-.06-.18.03-.37s.16-.15.25-.34l.02.03Z"/>
      <path class="st1" d="M89.16,73.26c-.19,0-.14.19-.34.19s-.31-.16-.5-.17c-.19-.02-.2.05-.4.02-.2-.03-.17-.18-.37-.22-.19-.04-.27.07-.46.02-.19-.06-.22.25-.42.19-.2-.07-.12-.39-.3-.46s-.26,0-.44-.09-.01-.26-.18-.35c-.16-.09-.28.09-.45-.01-.16-.11-.15-.13-.3-.25s-.05-.25-.19-.38c-.13-.13-.32.02-.45-.13-.13-.15-.06-.43-.06-.43l-.83.56s.26.19.41.36c.16.17.06.26.23.42.17.16.26.06.44.2s.08.27.27.4c.2.12.29-.15.48-.05.19.11.21.23.41.32.2.09.15.15.36.23s.27-.03.48.04c.2.06.15.27.36.33.22.06.27-.16.48-.11.21.04.2.12.42.15s.21.12.43.15c.23.01.22-.24.44-.23.22,0,.24.21.47.19.23-.01.22-.12.44-.15.22-.04.31.1.49.06l-.27-.96c-.13.03-.08.16-.27.2-.19.03-.2-.04-.39-.03h0Z"/>
      <path class="st1" d="M91.62,68.83c.06.19.21.1.27.29.05.2-.07.35-.03.54s.1.18.13.38c.03.21-.12.19-.13.35-.01.17.11.23.08.42-.04.18.27.2.22.4-.06.2-.39.12-.45.29-.07.17-.01.25-.11.42-.1.16-.26-.02-.36.12s.06.28-.07.42-.15.11-.29.23-.25-.02-.39.08c-.14.09-.07.3-.24.39-.19.07-.41-.08-.42-.08l.27.96s.26-.19.48-.28c.21-.11.27.02.48-.11.21-.13.13-.24.31-.39s.29-.02.46-.2c.16-.18-.1-.31.04-.49.13-.18.26-.19.37-.39s.16-.15.26-.36c.09-.22-.02-.28.05-.5.06-.22.27-.17.31-.41.04-.24-.18-.26-.17-.49,0-.23.07-.27.04-.48-.03-.22.06-.23.02-.45-.04-.22-.29-.14-.34-.35-.05-.21.13-.28.07-.5-.07-.21-.16-.18-.24-.38-.08-.2.06-.32-.01-.47l-.92.4c.06.13.17.07.25.25.07.19,0,.21.06.4h0Z"/>
      <path class="st1" d="M87.38,64.4c.16.04.19-.12.37-.05s.21.27.38.36c.17.1.2.04.37.15.17.12.08.24.24.36.16.12.28.04.44.17s.3-.15.46-.01c.16.14-.04.41.11.54.15.14.25.1.4.25.15.14-.07.26.07.4.13.14.3,0,.42.13l.11.09s-.03-.01-.05-.03c-.08-.08-.03-.03-.04-.03l.02.02.03.04s.03.05.04.07c.02.04.05.09.1.17.11.17-.02.26.07.43.1.17.32.08.41.26.09.18-.03.44-.02.45l.92-.4s-.21-.22-.31-.41,0-.25-.1-.45c-.11-.19-.23-.12-.35-.31-.06-.09-.06-.16-.06-.23v-.11s0-.04-.02-.06l-.02-.03s.02.02-.04-.05c-.05-.05-.11-.1-.17-.14l.18.14h0c-.16-.19-.33.06-.47-.1-.15-.15-.13-.27-.28-.42s-.09-.19-.24-.33c-.16-.15-.26-.07-.42-.21-.16-.14-.03-.3-.2-.44-.18-.14-.3.04-.48-.09s-.14-.18-.32-.31c-.19-.12-.14-.2-.33-.31-.2-.11-.3.13-.5.03-.21-.08-.15-.29-.38-.36-.25-.05-.25.02-.51,0-.24-.03-.33-.18-.56-.14l.22.98c.09,0,.05-.17.22-.14.16,0,.15.09.31.13h-.02Z"/>
      <g>
        <path class="st1" d="M83.46,71.6v-.02h-.02s-.02-.04-.02-.04l-.02-.03v-.04h0v-.04l.05-.04.04-.04v-.02l.02-.02h0v-.02h0v-.02l-.02-.03v-.02l-.02-.02h0v-.02h0v-.04l.02-.02.03-.03s.04-.04.06-.07l.02-.02h0v-.12h0v-.04l-.03-.02-.04-.04-.04-.04-.02-.02h0v-.06l-.02-.04v-.07h0s.01-.01.01-.01h.01s.03-.01.03-.01v-.02h0v-.02h0v-.03s-.04-.05-.04-.05l-.03-.05h0v-.02h0v-.02l.45.22.22.11.22.11h0v.02h-.04s-.01.01-.01.01h0v.03h0s0,.05.01.08v.04h.01v-.04h0v.02s-.03.02-.03.02v.04h-.01v.02h0v.02h0s.01.01.01.01h.06v.02l.02.02-.21.14-.21.14-.41.28h0v-.15l-.05.12Z"/>
        <path class="st0" d="M84.73,71.03h.03-.01s-.03-.01-.03-.01l-.06-.04-.11-.06-.22-.11-.45-.22-.9-.44-.44.89.22.45.15.28.04.07.04.07.09.13.83-.56.41-.28.21-.14.1-.07.05-.03.03-.02h.01v.12-.03Z"/>
      </g>
      <g>
        <path class="st1" d="M85.89,64.25h0v-.04h0v-.03h0s.02-.01.02-.01h.15v-.04h0v-.03h.19v-.02h0s0-.01.01-.02l.02-.02h0v-.07l-.02-.06v-.05l-.02-.02h0v-.06l.03-.04s.03-.05.04-.07h0s.01,0,.01,0h.04v-.09l.02-.03v-.03h.02v-.02h0l.11.48.06.24.06.24h0l-.02-.02h0s0,0,0,0v.08h0l.08-.07h-.07s-.01.01-.01.01h0v.03h0v.02h.01s.02.03.02.03h0v.02h0v.03l-.24-.06-.24-.06-.48-.13h0l.03-.02.03-.02h.01v-.02l.14-.03Z"/>
        <path class="st0" d="M87.26,64.68c-.2.15-.2.14-.31.22h0v-.05l-.02-.06-.03-.12-.06-.24-.11-.49-.22-.98-.09.02h-.06s-.02,0-.02,0l-.18.08-.17.08-.17.09-.32.22-.18.72.97.26.48.13.24.06.12.03.06.02h.05s0,0,.01,0h0Z"/>
      </g>
    </g>
  </g>
  <g>
    <path class="st1" d="M105.88,72.91c1.42.4,2.4.27,3.05.06.45-.15.91-.38,1.78-.58,0,0,.78-.14,1.47-.2.93-.09,2.31.09,4.12,1.43,1.48-3.08,1.26-6.36-.49-8.12-1.03-1.04-2.47-1.42-2.95-1.52-2.04-.43-3.71.21-4.22.46-1.31.64-3.94,3.26-4.37,4.72l1.6,3.76h0Z"/>
    <g>
      <path class="st1" d="M116.4,67.19c.07.17.21.07.27.25.07.18-.06.33-.01.5.05.18.11.16.14.35.03.18-.11.21-.09.39.02.18.15.21.17.4,0,.19.31.11.31.31s-.33.22-.34.4c-.01.18.09.24.07.42-.02.19-.24.1-.26.28-.02.18.19.22.16.4-.03.19-.06.18-.09.37-.04.18-.21.16-.25.34-.04.18.18.27.12.45s-.31.28-.32.29l.95.33s-.02-.29.04-.48.18-.16.23-.36-.09-.23-.04-.43c.04-.2.2-.17.24-.37.03-.2-.25-.18-.23-.38s.13-.25.15-.46c0-.2.08-.18.09-.38.01-.21-.11-.23-.12-.43,0-.2.21-.22.2-.43-.02-.21-.24-.18-.26-.39-.03-.2.04-.21,0-.42-.03-.2.06-.22,0-.43-.06-.2-.29-.12-.35-.31-.07-.19.12-.28.05-.48-.09-.19-.18-.15-.26-.34-.09-.19.02-.31-.05-.45l-.86.51c.06.11.17.03.26.19.08.17,0,.2.08.36Z"/>
      <path class="st1" d="M111.74,64.27c.18.01.15-.16.34-.15.19.03.28.18.46.22.18.03.2-.04.37,0,.18.04.14.19.32.24.17.05.26-.06.43,0,.17.07.23-.24.41-.17.18.08.06.39.22.47s.25.02.4.12c.16.1-.02.26.12.35.14.1.27-.07.42.04.14.12.12.14.25.26s.01.25.13.38c.12.12.31,0,.42.15.12.15.01.41.01.42l.86-.51s-.23-.19-.36-.35c-.12-.17-.02-.25-.17-.41s-.24-.08-.4-.22c-.15-.15-.04-.27-.21-.41-.17-.13-.29.13-.46.01-.17-.11-.17-.23-.35-.34-.18-.1-.12-.16-.31-.25-.19-.09-.26,0-.45-.08-.19-.08-.11-.28-.31-.35s-.26.14-.46.08c-.2-.06-.18-.13-.38-.18s-.18-.13-.39-.17c-.21-.04-.22.22-.42.2-.2-.03-.2-.22-.41-.24-.21,0-.21.09-.41.09s-.26-.16-.42-.15l.06,1c.14,0,.11-.14.3-.14s.18.08.37.08h.02Z"/>
      <path class="st1" d="M106.55,66.69c.13-.14-.02-.23.12-.36s.33-.1.47-.23c.14-.13.1-.18.24-.31.15-.12.25,0,.39-.13.14-.12.1-.25.25-.36s-.08-.32.08-.44c.16-.11.37.16.52.06.15-.08.14-.19.31-.26s.2.17.36.11c.17-.06.1-.27.28-.32s.19-.03.37-.07.22.12.4.08c.18-.03.17-.27.36-.3.19-.02.38.18.39.18l-.06-1s-.26.12-.47.15c-.2.02-.22-.09-.43-.06-.21.04-.18.17-.38.22-.2.05-.24-.11-.44-.05-.2.07-.05.32-.24.38-.19.07-.29,0-.48.09-.19.09-.2.02-.4.12-.18.11-.14.23-.3.34-.16.12-.3-.05-.46.07-.16.13-.02.29-.18.42-.15.13-.2.07-.35.21-.15.13-.21.06-.36.2s.04.31-.1.45-.3,0-.44.15c-.14.14-.07.21-.21.36-.13.15-.3.07-.4.18l.75.66c.09-.11-.02-.18.11-.32s.18-.09.32-.22h-.02Z"/>
      <path class="st1" d="M105.82,71.63c-.08-.18-.22-.07-.29-.26-.08-.18.02-.35-.06-.53-.08-.18-.14-.15-.22-.33s.06-.25-.01-.43c-.08-.18-.21-.17-.29-.35s-.33,0-.41-.18c-.08-.19.24-.28.2-.38,0-.1-.06-.15-.02-.27.06-.12.25.01.33-.13.09-.15-.1-.27,0-.43.11-.16.13-.14.23-.29.11-.15.25-.06.36-.21.12-.15-.05-.32.07-.47.13-.15.4-.14.41-.15l-.75-.66s-.1.26-.22.42c-.13.16-.22.08-.35.24-.12.17-.01.25-.13.41-.12.17-.25.07-.37.25-.11.18.17.28.06.45-.1.18-.21.18-.33.43-.05.12-.09.18-.13.23-.01.05-.14.11-.06.24.1.25.25.28.33.47.08.18-.12.27-.04.45s.28.09.35.27c.08.18.01.21.09.39.08.18-.01.22.07.4s.3.06.38.24c.08.18-.1.28-.03.46.08.18.17.14.24.32.08.18-.06.29,0,.43l.92-.39c-.06-.13-.17-.07-.25-.25s0-.21-.08-.39Z"/>
      <path class="st1" d="M110.2,72.06c-.15.04-.07.19-.21.24-.14.04-.27-.08-.42-.03-.14.05-.12.11-.25.17-.13.05-.19-.09-.32-.04-.13.05-.11.18-.24.22-.12.04,0,.32-.14.36-.14.03-.22-.29-.35-.27-.13.02-.15.12-.28.13-.13,0-.1-.22-.23-.22s-.13.22-.26.22-.13-.03-.27-.04c-.13,0-.12-.17-.25-.19-.13-.02-.18.22-.32.2-.14-.03-.22-.26-.22-.26l-.21.98s.21-.06.36-.04.13.15.29.17c.15.02.17-.12.32-.11s.14.17.3.18c.16,0,.11-.28.26-.29.15,0,.2.09.36.08.15-.02.15.06.3.04.16-.03.15-.15.3-.18.15-.04.21.17.37.12.15-.05.07-.26.21-.31.14-.05.16.02.29-.03.13-.05.16.04.29,0s.03-.28.17-.32c.13-.04.2.15.33.11.13-.04.11-.13.24-.16.07-.02.13.02.18.06h-.09s.07.07.12.07v-1c-.07,0-.09.06-.12.1h-.09s-.05.07-.11.08c-.15.04-.16-.04-.31,0v-.04Z"/>
      <path class="st1" d="M115.01,72.31c-.14-.07-.18.1-.32.04s-.16-.23-.31-.29c-.14-.05-.17.01-.31-.03-.14-.05-.11-.19-.26-.23s-.22.08-.37.05c-.15-.02-.15.28-.3.26-.14-.02-.13-.35-.29-.36s-.2.09-.35.08c-.15,0-.11-.23-.27-.22-.17.01-.13.23-.27.25s-.14,0-.28.01c-.14.02-.16-.14-.29-.12-.14.02-.15.26-.29.28s-.27-.18-.28-.18v1s.2-.13.34-.15c.14-.02.15.11.3.09.15-.02.14-.16.28-.18s.15.15.3.13c.14-.02.08-.3.22-.32.13-.01.18.09.31.09s.11.07.24.08c.13,0,.15-.11.29-.09.13.02.1.23.23.25.12.03.17-.19.3-.16.13.04.11.1.24.14s.1.13.22.17c.12.05.2-.2.33-.15.13.06.06.24.18.3.12.06.16-.03.29.03.12.07.07.23.16.28l.49-.87c-.1-.05-.15.07-.28,0s-.1-.14-.24-.2v.02Z"/>
      <g>
        <path class="st1" d="M106.14,73.42h-.1s-.01-.01-.01-.01v-.02h0v-.18h-.01s-.03-.01-.03-.01h-.04v-.1s0-.06-.01-.09v-.02h-.01v-.02h-.02l-.02-.04h-.01s-.02-.01-.02-.01h-.09s-.06.01-.06.01h-.03l-.03-.02-.03-.02s-.04-.03-.06-.04h0v-.07h0v-.02h-.15s.46-.21.46-.21l.23-.1.23-.1h0v.03h0v.04s-.01,0-.01.01h0v.02h.01s.04.03.06.04l.03.02h-.02v.07h.02s.02.01.02.01h0s.01.01.01.01c0,0,0-.01.01-.02l.02-.02h.04l-.05.24-.05.24-.11.49h-.01s0-.01-.01-.01l-.02-.03-.02-.03h-.01v-.02s-.1-.02-.1-.02Z"/>
        <path class="st0" d="M106.6,72.08l-1.83.78.37.88.46.13.26.07.26.06.21-.98.11-.49.05-.24.03-.12v-.06l.02-.03v-.02h0s.03.03.05.04v-.02Z"/>
      </g>
      <g>
        <path class="st1" d="M117.07,72.9l-.02.03v.04l-.04.08-.03.07-.02.03-.02.03h-.01v.02s-.04.02-.04.02h-.03l-.03.02-.07.02-.03.02h-.01v.02h-.02v.03s-.03.03-.03.03l-.03.08-.03.08-.02.03h-.01v.02s-.04.02-.04.02h-.03l-.05.03-.05.02-.06.02h-.06s-.08-.05-.08-.05l-.08-.04-.04-.02h-.11l-.06.04h-.03l-.03.03h-.07s-.1-.03-.15-.04c-.05-.02-.1-.03-.14-.05h-.03s-.02-.03-.02-.03l-.02-.02-.02-.02-.04-.04-.02-.02-.03-.02h-.08s-.05,0-.08.01h-.16l.24-.44.12-.22.12-.22.03.02.02.02h.02l.02.03h.01s.02.03.02.03l.03.05.02.02.03.02h.02l.02.02h.04s.09.04.14.05c.03,0,.06.02.08.02h.02v.02h.04l.02-.02h.01v-.02s.03-.03.03-.03l.02-.03.02-.05v-.02l.02-.02h0v-.02h0v-.14h0v-.04l.02-.03s.01-.04.02-.06l.24.08.24.08.47.16v.03l-.03.03-.04.06-.05.06-.02.03-.02.03h.08Z"/>
        <path class="st0" d="M115.93,72.13c-.11-.03-.1-.03-.16-.05h0v.02l-.02.03-.03.05-.06.11-.12.22-.24.44-.49.87.23.14.23.14.23.15.22.16.97.72.52-1.09.27-.61.23-.62-.95-.33-.47-.16-.24-.08-.12-.04-.06-.02h-.03v-.02h-.01q.08-.02.12-.03h-.02Z"/>
      </g>
    </g>
  </g>
  <g>
    <path d="M31.74,57.74c-.09-.11-.21-.21-.35-.26-.13-.05-.27-.06-.42-.05-.14.02-.27.08-.37.16-.11.09-.22.19-.27.32-.05.13-.04.29-.02.44l1.59-.21c-.03-.15-.08-.29-.17-.4h.01Z"/>
    <path d="M33.54,66.62c-.09-.29-.33-.15-.41-.44-.08-.29.11-.53.04-.82-.08-.29-.18-.27-.25-.56s.17-.36.1-.65c-.06-.3-.28-.32-.35-.62-.06-.3-.53-.11-.58-.41-.05-.3.46-.45.41-.75s-.21-.35-.26-.65c-.05-.3.33-.26.28-.56-.05-.3-.4-.25-.45-.55s0-.31-.06-.61c-.05-.3.2-.36.15-.66s-.44-.28-.49-.59c-.05-.3.24-.63.24-.65l-1.59.21s.23.37.28.68c.05.3-.15.33-.09.64.05.31.27.27.32.58.05.3-.21.34-.16.65s.49.14.54.44c.05.3-.09.43-.04.73s-.07.29-.02.59c.05.31.25.3.3.61.05.3-.27.38-.21.68.07.3.41.22.47.53.07.3-.05.33.03.63.07.3-.08.34,0,.64s.46.17.55.47c.08.3-.22.42-.13.72s.24.25.34.55-.13.46-.04.69l1.5-.55c-.08-.21-.26-.11-.36-.39-.1-.28.02-.32-.07-.6v.02Z"/>
    <path d="M38.76,74.42c-.22-.21-.36.04-.58-.17s-.18-.51-.39-.72-.29-.13-.5-.35-.04-.39-.24-.61-.4-.13-.6-.35c-.19-.23-.51.16-.7-.07-.19-.24.2-.6.03-.83-.17-.23-.34-.21-.5-.45-.16-.25.21-.36.05-.6-.15-.24-.45-.07-.6-.33-.14-.26-.11-.28-.24-.54-.13-.27.09-.39-.02-.66-.12-.26-.49-.15-.6-.43-.11-.28.11-.66.11-.67l-1.5.55s.3.33.42.62-.06.37.07.67c.13.3.34.2.48.48.14.28-.09.4.06.69.16.28.51-.03.67.24.17.26.08.44.27.7.18.26.06.3.25.56.2.26.37.17.57.41.2.24-.05.47.16.71s.47,0,.68.23.13.31.35.53c.22.22.11.33.34.55s.48-.09.71.12c.22.21.02.47.25.68s.33.1.56.3c.23.21.1.46.28.61l1.07-1.19c-.17-.14-.29.02-.52-.18-.23-.21-.14-.3-.36-.5h-.03Z"/>
    <path d="M46.7,79.87c-.28-.12-.33.15-.6,0-.27-.14-.32-.44-.58-.58-.27-.14-.32-.04-.59-.18s-.15-.36-.41-.51c-.25-.16-.42-.01-.68-.17-.26-.16-.43.31-.7.15-.26-.16,0-.62-.26-.79-.24-.17-.39-.09-.63-.27-.25-.18.06-.42-.19-.59-.24-.17-.45.1-.7-.07s-.22-.21-.45-.4-.08-.41-.31-.6c-.23-.19-.51.08-.74-.12-.23-.2-.22-.63-.23-.64l-1.07,1.19s.42.14.66.34.11.35.35.56c.24.2.38.03.62.23.24.2.07.41.33.59.26.18.45-.24.71-.06.25.18.24.37.49.55s.16.26.41.44c.26.17.4.02.67.19.27.16.09.46.36.62s.44-.14.71.02c.27.16.21.27.49.41.28.14.21.28.49.42.28.14.44-.23.71-.09.28.14.16.46.44.59.29.13.35-.02.64.11.28.12.25.4.47.5l.62-1.47c-.2-.09-.26.11-.54,0-.28-.12-.22-.23-.5-.35v-.02Z"/>
    <path d="M55.96,82.56c-.3-.04-.27.23-.57.19-.3-.05-.44-.32-.73-.37-.3-.05-.32.05-.61,0-.3-.06-.25-.3-.55-.36-.29-.06-.41.13-.7.06s-.32.43-.61.35c-.3-.07-.2-.6-.49-.67-.29-.08-.4.04-.69-.05-.29-.09-.08-.41-.36-.5-.29-.09-.4.24-.69.15-.29-.1-.27-.14-.55-.25-.28-.1-.21-.35-.49-.46-.28-.1-.46.24-.74.14-.28-.12-.4-.55-.42-.56l-.62,1.47s.43.02.72.13.22.29.52.4.37-.1.67,0c.29.11.2.36.5.46.3.09.35-.37.65-.28.3.09.34.27.64.36.3.09.23.21.53.28.3.08.39-.1.69-.03.3.08.23.41.53.49.3.08.38-.27.68-.21s.28.18.59.24.28.22.59.27c.31.05.35-.36.65-.31.31.05.29.38.6.42.31.04.33-.12.64-.08.31.04.36.31.59.34l.15-1.59c-.22-.02-.21.19-.52.15-.3-.04-.28-.16-.58-.19h-.02Z"/>
    <path d="M65.57,82.19c-.3.05-.18.31-.48.36s-.51-.16-.81-.12c-.3.04-.28.15-.58.2-.3.04-.34-.2-.64-.17-.3.04-.35.25-.65.28-.3.03-.16.51-.47.54s-.39-.5-.69-.48-.36.17-.67.19c-.3.01-.21-.36-.5-.35-.14,0-.21.09-.31.18-.08.09-.15.18-.3.18-.3,0-.3-.05-.6-.05s-.31-.27-.6-.29c-.3-.01-.36.37-.67.34-.3-.02-.55-.39-.57-.39l-.15,1.59s.42-.13.73-.11c.31.03.3.22.61.24.32.01.33-.2.64-.2s.3.27.63.27.2-.46.52-.47c.31,0,.42.15.73.13.31-.02.28.11.59.09.31-.02.33-.22.64-.24.31-.03.35.31.66.28s.27-.38.57-.42c.31-.04.32.08.63.04.31-.04.33.1.64.06.31-.05.22-.44.52-.5.3-.05.39.26.7.21.31-.06.28-.21.58-.28.3-.06.44.19.67.13l-.35-1.56c-.22.05-.15.25-.44.31-.3.06-.32-.06-.61,0h.03Z"/>
    <path d="M74.54,78.82c-.26.15-.06.35-.32.5s-.54.03-.79.18c-.26.15-.21.23-.48.37-.27.13-.38-.08-.65.05-.27.13-.24.36-.51.48-.28.12,0,.53-.28.65s-.52-.36-.8-.25c-.28.1-.3.27-.58.37-.28.1-.3-.28-.58-.19s-.18.42-.47.51c-.29.09-.3.05-.59.13-.29.08-.38-.17-.66-.09-.29.08-.23.46-.53.53-.3.07-.65-.2-.66-.19l.35,1.56s.36-.26.66-.33.35.12.66.04c.3-.08.25-.3.55-.38.3-.08.37.17.67.07.3-.1.07-.5.37-.6.3-.09.44.02.73-.09.29-.11.3.02.6-.09.29-.11.25-.31.54-.43s.43.19.72.07c.29-.14.13-.46.41-.59.28-.14.33-.03.62-.17.28-.14.36,0,.63-.16s.05-.5.31-.66c.27-.16.46.11.74-.05.27-.16.18-.3.44-.47.26-.18.47,0,.67-.13l-.91-1.31c-.18.12-.04.28-.29.45s-.31.07-.56.23h0Z"/>
    <path d="M81.58,72.3c-.18.24.07.35-.12.59s-.49.22-.68.45c-.2.23-.12.3-.32.52-.2.23-.39.07-.58.29-.21.22-.1.41-.31.63-.21.22.21.49,0,.71s-.63-.14-.84.07c-.22.21-.17.37-.39.57-.22.21-.39-.14-.61.05s0,.46-.23.66c-.23.2-.25.17-.49.36-.24.18-.41-.01-.65.17-.23.18-.04.51-.28.7-.24.18-.68.05-.69.06l.91,1.31s.25-.35.49-.55c.25-.19.37-.03.62-.22s.11-.37.36-.56c.24-.2.4,0,.64-.2.24-.21-.13-.49.1-.69.24-.2.42-.15.64-.37.23-.22.28-.1.51-.32s.12-.37.34-.6c.21-.23.47,0,.68-.22.22-.23-.04-.46.17-.69s.29-.16.5-.39c.21-.23.32-.14.53-.37.2-.24-.13-.48.06-.72.19-.24.47-.06.67-.31.19-.25.07-.34.25-.59.19-.25.45-.15.59-.34l-1.3-.93c-.13.18.06.28-.13.52-.18.24-.28.16-.46.41h.02Z"/>
    <path d="M85.7,63.74c-.07.3.21.3.13.59-.08.3-.36.4-.44.69s.02.32-.06.61c-.09.29-.32.23-.41.51-.09.28.08.42-.01.7-.1.28.39.36.29.65-.11.29-.62.13-.73.38-.12.26,0,.37-.15.64-.14.26-.42-.01-.56.25-.15.26.15.44,0,.7-.16.26-.2.23-.35.49-.16.26-.39.13-.55.38-.17.25.14.5-.04.75-.17.25-.62.28-.63.29l1.3.93s.1-.43.28-.68c.18-.26.34-.15.51-.41.17-.26,0-.38.16-.65.16-.27.39-.12.55-.39s-.28-.42-.13-.69c.15-.27.34-.28.49-.56.15-.29.25-.21.38-.5.13-.3-.03-.41.08-.7.11-.3.43-.19.54-.49.1-.3-.23-.4-.14-.7.09-.3.2-.26.29-.56.09-.3.23-.26.32-.56.08-.3-.32-.38-.24-.68s.4-.25.48-.55c.07-.3-.08-.34,0-.64.07-.3.35-.31.4-.54l-1.56-.36c-.05.22.16.24.09.54-.07.3-.19.26-.26.56h-.03Z"/>
    <path d="M86.42,62.03c-.13.04-.24.14-.34.24-.09.1-.17.22-.21.36h0l1.56.36h0c.03-.15.04-.3,0-.43-.04-.14-.13-.26-.23-.36-.1-.09-.23-.16-.37-.19s-.29-.02-.42.02h.01Z"/>
  </g>
  <g>
    <path d="M29.92,51.08c.13-.03.26-.1.36-.2.09-.09.16-.22.19-.36.04-.14.04-.28.01-.4-.02-.13-.05-.27-.13-.37-.07-.09-.19-.16-.31-.2l-.52,1.51c.13.04.27.06.4.03h0Z"/>
    <path d="M23.26,52.07c.16-.17-.08-.33.11-.5s.45-.07.64-.2c.19-.14.13-.23.34-.35.21-.12.33.08.54,0,.21-.09.18-.32.41-.39s0-.53.26-.6c.26-.06.41.46.63.41.23-.02.28-.18.52-.21.25,0,.17.37.4.37s.25-.34.5-.32c.24.03.24.06.47.1.24.05.18.31.41.37.23.07.38-.29.63-.2s.37.49.39.5l.52-1.51s-.37.04-.64-.05c-.26-.09-.2-.28-.48-.36-.29-.08-.34.13-.63.07-.29-.05-.25-.3-.56-.34-.3-.02-.24.42-.53.42s-.38-.17-.67-.14-.27-.09-.57-.06c-.29.06-.29.26-.57.32-.28.08-.38-.24-.68-.14-.29.1-.14.44-.41.55-.27.12-.31.03-.57.17-.26.15-.34.02-.58.2-.25.18.02.47-.19.66-.21.19-.47-.04-.67.18s-.1.31-.27.55c-.17.23-.45.13-.57.33l1.34.87c.09-.15-.09-.24.06-.44.14-.2.24-.11.4-.28l.02.02Z"/>
    <path d="M23.11,59.17c-.14-.19-.33,0-.46-.23s.02-.46-.08-.68-.21-.18-.3-.4c-.08-.23.15-.31.08-.54-.06-.23-.28-.23-.33-.48-.05-.24-.52-.08-.56-.34-.04-.26.49-.36.47-.6-.01-.24-.17-.3-.17-.55s.37-.15.38-.39c.03-.22-.32-.26-.29-.5.05-.23.1-.22.15-.46.07-.23.33-.16.4-.37.08-.21-.24-.39-.14-.62.12-.22.54-.23.54-.23l-1.34-.87s-.08.42-.2.68c-.12.27-.32.18-.43.47-.1.3.1.36.02.65-.06.29-.33.23-.39.54-.04.31.43.28.4.56-.02.28-.18.36-.18.65s-.12.26-.1.55.22.3.26.58c.04.28-.29.35-.23.64.07.29.4.2.48.47s-.03.31.07.59c.11.27-.02.33.1.6.13.27.47.06.61.3.14.24-.13.44.03.68.17.24.3.15.46.38.17.22.02.45.16.62l1.2-1.06c-.12-.14-.26.02-.42-.17-.15-.2-.04-.27-.19-.47h0Z"/>
    <path d="M29.9,62.59c-.25,0-.19.28-.45.27-.26,0-.39-.26-.63-.29-.24-.03-.26.08-.51.04s-.2-.29-.44-.34c-.24-.06-.34.13-.57.06-.23-.08-.33.41-.57.31-.25-.1-.07-.61-.3-.71-.23-.11-.35,0-.57-.12-.23-.12.03-.4-.17-.52-.21-.12-.4.17-.61.03-.21-.14-.19-.18-.38-.33-.2-.15-.05-.36-.23-.52s-.47.11-.65-.07c-.19-.18-.09-.58-.09-.59l-1.2,1.06s.38.17.58.37c.2.21.08.34.3.54.22.19.36.02.59.19s.07.39.31.55.42-.27.65-.13c.24.14.24.33.49.46.25.13.17.22.43.34s.37-.05.63.06c.26.1.15.42.44.52.29.09.38-.26.65-.19.28.06.25.18.54.22.28.04.26.2.55.23.29.03.29-.38.57-.37.28,0,.3.34.59.33.29,0,.28-.16.56-.18.28-.02.38.24.6.21l-.22-1.58c-.18.02-.13.23-.38.26-.25.02-.26-.1-.5-.09v-.02Z"/>
    <path d="M31.43,62.72c-.08-.1-.2-.17-.31-.22-.11-.05-.22-.08-.34-.07h0l.22,1.58h0c.14-.02.27-.07.37-.16s.17-.22.21-.35c.04-.13.04-.27.01-.41s-.09-.27-.17-.38h.01Z"/>
  </g>
  <g>
    <path d="M88.67,50.2c-.07.11-.11.25-.11.39,0,.13.04.27.11.4s.17.22.27.3c.11.08.23.16.36.17.12,0,.25-.03.36-.08l-.71-1.43c-.12.06-.23.15-.3.26h.02Z"/>
    <path d="M96.9,50.8c-.22-.21-.36.05-.58-.14-.23-.17-.22-.48-.47-.64s-.3-.06-.55-.21c-.25-.14-.13-.36-.42-.5-.3-.13-.44.04-.73-.06-.3-.08-.33.41-.6.36-.27-.04-.25-.58-.57-.6-.31,0-.38.14-.67.16-.29.03-.23-.35-.53-.31-.3.05-.26.39-.54.46-.28.08-.3.04-.57.13-.27.1-.38-.14-.65-.03-.27.11-.15.48-.4.59s-.63-.08-.65-.07l.71,1.43s.23-.3.47-.4c.24-.11.31.08.55-.02.23-.09.15-.3.39-.38s.31.18.53.12c.21-.05.04-.48.29-.53.25-.04.35.11.59.1.24,0,.21.11.44.12s.27-.17.51-.14c.24.05.16.38.36.44.2.07.32-.26.55-.16.21.1.16.22.38.33.22.13.14.26.34.39.2.14.42-.21.62-.06.21.15.01.43.19.58.17.16.29.05.45.23.17.18-.02.4.09.53l1.29-.95c-.15-.19-.29-.03-.48-.26-.2-.22-.11-.31-.33-.52h0Z"/>
    <path d="M96.76,59.6c.19-.22-.06-.35.11-.57s.47-.22.63-.47c.16-.25.06-.31.21-.56.14-.26.36-.16.49-.43.12-.28-.05-.42.05-.7.08-.29-.4-.33-.34-.6.06-.26.59-.2.64-.5.04-.3-.1-.39-.09-.68,0-.29.38-.18.37-.5,0-.32-.37-.29-.4-.59-.05-.3,0-.31-.08-.6-.08-.29.16-.39.04-.69-.13-.3-.49-.17-.64-.43-.14-.26-.03-.68-.04-.7l-1.29.95s.31.14.42.35-.07.29,0,.49c.08.2.29.13.35.36s-.21.28-.17.49c.02.22.48.1.49.35.01.25-.15.33-.16.57-.02.24-.14.2-.17.44-.04.23.15.3.09.54-.06.24-.39.15-.46.37-.08.22.25.34.15.57-.11.23-.21.18-.32.39-.12.21-.25.14-.38.34s.22.41.07.62c-.16.21-.43.03-.58.22-.16.19-.04.3-.22.48-.17.19-.41.03-.54.15l1.08,1.18c.16-.16,0-.28.2-.49.2-.21.29-.12.48-.35h.01Z"/>
    <path d="M88.55,63.39c.29-.03.19-.29.47-.33s.48.18.76.12.26-.16.53-.23.35.16.62.09c.27-.07.27-.3.54-.37.27-.08.04-.52.29-.61.26-.09.47.41.73.31s.27-.26.53-.37.31.27.58.15c.26-.12.12-.44.37-.57s.27-.1.52-.24c.24-.15.4.06.64-.11.25-.17.05-.51.27-.68.22-.18.65-.1.66-.12l-1.08-1.18s-.12.33-.32.49c-.2.15-.31,0-.51.13-.2.14-.09.32-.3.46-.22.12-.34-.1-.56,0-.22.11.06.49-.18.6-.23.11-.38,0-.61.1-.24.09-.25-.03-.5.06-.24.09-.21.28-.45.36-.25.08-.36-.24-.61-.17-.25.07-.14.41-.4.48s-.28-.04-.53.02-.28-.09-.53-.04-.15.44-.41.48-.33-.28-.58-.25c-.25.02-.24.18-.49.2-.25,0-.32-.26-.5-.26l-.03,1.6c.23,0,.2-.21.49-.22.29,0,.29.11.58.08v.02Z"/>
    <path d="M86.81,63.07c.05.13.16.23.28.31.11.08.25.14.39.14h0l.03-1.6h0c-.11,0-.23.02-.32.08-.1.06-.19.16-.26.27s-.13.24-.16.38c-.03.14-.02.29.03.41h.01Z"/>
  </g>
  <g>
    <path d="M61.84,72.43c.04-.14.03-.3,0-.43-.04-.13-.13-.24-.24-.33-.11-.09-.24-.15-.37-.18-.13-.03-.28-.06-.4-.03-.12.03-.23.1-.32.19l1.1,1.16c.11-.11.21-.24.24-.38Z"/>
    <path d="M53,73.9c.29.17.36-.1.64.04.28.13.37.43.7.53.33.09.35-.02.67.04.32.04.29.28.61.31.32.01.4-.18.71-.18s.21-.48.5-.5c.29-.01.38.51.7.47.31-.05.36-.2.67-.27.3-.07.29.32.6.22.32-.09.2-.44.5-.54.29-.13.31-.08.59-.23s.43.07.7-.11c.28-.18.08-.53.33-.71.23-.19.68-.14.7-.16l-1.1-1.16s-.13.35-.34.51c-.21.15-.32,0-.53.13-.21.14-.1.32-.33.45-.23.12-.34-.13-.57-.03-.23.08,0,.5-.26.58s-.38-.06-.64,0c-.26.05-.25-.08-.51-.04-.26.03-.27.23-.54.24-.27.02-.28-.33-.54-.33s-.27.34-.55.32c-.27-.03-.28-.14-.52-.17-.25-.04-.21-.19-.44-.25-.22-.07-.34.32-.59.22-.25-.11-.12-.41-.33-.53-.21-.13-.3,0-.51-.16s-.07-.41-.21-.53l-1.11,1.16c.18.17.3,0,.54.2.25.2.18.3.46.48Z"/>
    <path d="M51.95,72.69c.03.13-.03.2-.07.26-.04.05-.02.14.11.27h0l1.11-1.16h0c-.06-.06-.23-.2-.46-.27-.24-.08-.5-.01-.61.1s-.14.25-.14.4c0,.14.05.29.06.41h0Z"/>
  </g>
  <g>
    <path d="M56.01,59.43c-.06-.12-.17-.22-.29-.28-.11-.06-.26-.09-.4-.09s-.28.04-.39.09c-.12.05-.25.11-.33.19-.07.08-.1.18-.12.28l1.59.21c.02-.14,0-.29-.06-.4Z"/>
    <path d="M54.48,64.54c-.15-.07-.24.19-.43.09-.18-.12-.13-.39-.26-.51-.13-.13-.21-.06-.32-.21-.09-.14.14-.27.13-.28,0-.08-.22-.14-.2-.29.04-.14-.45-.24-.36-.46.12-.21.58.08.66-.02.11-.1.04-.23.22-.33.25-.14.34.24.61.07.26-.19.05-.46.27-.66.21-.21.24-.18.43-.43.17-.25.4-.14.55-.43.13-.3-.22-.47-.15-.74.07-.26.44-.48.44-.5l-1.59-.21s.13.29.07.49c-.06.19-.25.12-.32.28-.08.15.11.26,0,.43-.12.15-.32-.03-.43.09-.12.11.21.43.04.56-.19.13-.29,0-.54.13-.28.17-.33.05-.59.29-.24.27-.11.41-.26.7-.13.29-.46.2-.53.59-.03.39.32.36.37.7.1.36,0,.41.18.7.19.26.08.35.3.58.24.21.47-.12.69.04.23.15.09.45.38.59.31.12.35-.02.69.04.24.04.26.32.43.34l.24-1.58c-.2-.03-.2.18-.46.14-.22-.04-.13-.14-.29-.2h.03Z"/>
    <path d="M55.76,65.09c-.04-.13-.12-.23-.21-.31-.09-.08-.2-.15-.32-.17h0l-.24,1.58h0c.11.02.23,0,.33-.04.11-.05.21-.15.28-.26.08-.11.14-.24.17-.38s.03-.29,0-.41h0Z"/>
  </g>
  <g>
    <path d="M76.23,50.4c.11,0,.24-.02.36-.08.12-.05.23-.14.33-.25s.16-.23.2-.35c.04-.13.07-.27.03-.39s-.12-.22-.22-.3l-.98,1.26c.08.06.18.1.29.11h0Z"/>
    <path d="M70.17,48.89c.21-.05.11-.3.34-.34.22-.03.38.2.6.18.22,0,.21-.12.43-.13.22,0,.22.24.43.25.21,0,.28-.19.5-.17.22.03.21-.47.45-.43.23.04.16.57.37.62s.3-.08.51-.02c.21.07.02.4.22.46.19.08.33-.25.53-.16s.18.13.38.23.08.34.26.44c.18.11.41-.2.6-.07.19.13.15.53.15.53l.98-1.26s-.37-.07-.58-.21-.11-.31-.33-.44c-.23-.13-.34.06-.56-.06-.23-.11-.11-.35-.35-.46s-.35.35-.58.26c-.23-.08-.26-.27-.5-.34s-.18-.18-.44-.24c-.25-.06-.32.13-.57.08-.25-.04-.21-.38-.47-.41-.26-.02-.28.32-.53.31-.25,0-.25-.12-.51-.12s-.26-.14-.52-.12c-.26.03-.19.42-.44.46-.24.04-.32-.28-.58-.23-.25.05-.22.21-.46.27-.24.07-.38-.17-.57-.11l.51,1.52c.15-.05.07-.25.28-.31s.24.06.45,0h0Z"/>
    <path d="M68.82,48.99c.09.09.21.14.31.17s.21.05.31.02h0l-.51-1.52h0c-.12.04-.23.11-.3.21s-.11.24-.12.37c0,.13.02.27.08.4.06.13.14.25.23.34h0Z"/>
  </g>
  <g>
    <path d="M47.07,49.11c.09-.05.18-.14.25-.25.07-.1.12-.24.16-.38.03-.14.03-.28,0-.4-.02-.13-.05-.27-.13-.35-.07-.08-.18-.13-.29-.15l-.27,1.58c.09,0,.19,0,.27-.05Z"/>
    <path d="M41.6,50.08c.16-.1,0-.31.16-.41s.39.07.56,0c.17-.08.13-.18.31-.25s.27.16.45.09c.18-.06.16-.27.34-.33.18-.05,0-.51.2-.56.2-.05.34.47.53.43.19-.03.21-.19.4-.21.19-.03.17.35.35.33.18,0,.17-.36.36-.37.19,0,.2.04.39.04s.19.26.38.28c.18,0,.25-.37.44-.35.2.02.33.39.33.39l.27-1.58s-.32.11-.53.09c-.22-.02-.2-.22-.43-.24-.23,0-.24.21-.46.2-.22,0-.22-.27-.45-.26-.23,0-.13.47-.35.48-.22.02-.3-.13-.52-.1-.22.03-.21-.09-.43-.05-.22.05-.21.24-.42.29s-.31-.28-.53-.21c-.22.06-.11.4-.31.47-.21.08-.25-.03-.45.05-.2.09-.27-.05-.47.04-.21.1,0,.45-.19.55s-.37-.17-.56-.06c-.19.12-.11.25-.29.37s-.38-.06-.52.04l.96,1.28c.11-.08-.03-.24.13-.35.16-.11.23,0,.39-.1h-.04Z"/>
    <path d="M40.48,50.51c.11.06.23.08.33.09.1,0,.2,0,.27-.06h0l-.96-1.28h0c-.09.06-.16.16-.18.26-.03.11,0,.25.03.37.04.12.11.25.2.36s.21.2.32.26h-.01Z"/>
  </g>
  <g>
    <ellipse class="st2" cx="44.55" cy="56.67" rx="1.97" ry="1.18" transform="translate(-13.91 98.84) rotate(-87.63)"/>
    <g>
      <path d="M43.09,57.24c.03.17.13.11.18.27.03.16-.03.29.03.46.08.16.11.14.2.29.1.15.01.22.15.37.15.14.24.1.43.19.2.07.2-.15.36-.13.15,0,.23.23.43.16.2-.08.2-.17.34-.29.13-.13.2.03.33-.12.11-.15-.01-.24.07-.39.08-.15.1-.15.16-.31.06-.16.17-.13.21-.31.04-.18-.12-.22-.1-.39.03-.16.18-.31.18-.32l-.7-.03s.06.19.04.33c-.03.14-.11.13-.14.25-.03.13.06.16,0,.29-.05.13-.16.08-.22.19-.06.11.13.18.05.29s-.17.09-.26.17c-.1.07-.11.01-.2.06-.09.03-.08.11-.2.11-.11-.01-.07-.16-.14-.2-.08-.04-.17.08-.26,0-.08-.1-.05-.13-.12-.23-.07-.11,0-.15-.06-.27-.05-.12-.21-.05-.25-.19-.03-.15.1-.19.08-.32-.01-.14-.09-.13-.1-.27,0-.15.12-.18.11-.29l-.7-.03c0,.13.08.11.09.28,0,.17-.04.17-.03.34l.02.02Z"/>
      <path d="M46.01,56.11c-.03-.17-.13-.11-.18-.27-.03-.16.03-.29-.03-.46-.08-.16-.11-.14-.2-.29-.1-.15-.01-.22-.15-.37-.15-.14-.24-.1-.43-.19-.2-.07-.2.15-.36.13-.15,0-.23-.23-.43-.16-.2.08-.2.17-.34.29-.13.13-.2-.03-.33.12-.11.15.01.24-.07.39-.08.15-.1.15-.16.31-.06.16-.17.13-.21.31-.04.18.12.22.1.39-.03.16-.17.31-.18.32l.7.03s-.06-.19-.04-.33c.03-.14.11-.13.14-.25.03-.13-.06-.16,0-.29.05-.13.16-.08.22-.19.06-.11-.13-.18-.05-.29s.17-.09.26-.17c.1-.07.11-.01.2-.06.09-.03.08-.11.2-.11.11.01.07.16.14.2.08.04.17-.08.26,0,.08.1.05.13.12.23.07.11,0,.15.06.27.05.12.21.05.25.19.03.15-.1.19-.08.32.01.14.09.13.1.27,0,.15-.12.18-.11.29l.7.03c0-.13-.08-.11-.09-.28,0-.17.04-.17.03-.34l-.02-.02Z"/>
    </g>
  </g>
  <g>
    <ellipse class="st2" cx="72.35" cy="56.47" rx="1.97" ry="1.18" transform="translate(12.94 126.42) rotate(-87.63)"/>
    <g>
      <path d="M70.9,57.03c.03.17.13.11.17.27.04.16-.04.29.04.46.08.16.11.14.2.29.1.15.01.22.15.37.15.14.24.1.43.19.2.07.2-.15.36-.13.15,0,.23.23.43.16.2-.08.2-.17.34-.29.13-.13.2.03.33-.12.11-.15-.01-.24.07-.39.08-.15.1-.15.16-.31.06-.16.17-.13.21-.31.04-.18-.12-.22-.1-.39.03-.16.17-.31.18-.32l-.7-.03s.06.19.04.33c-.03.14-.11.13-.14.25-.04.13.06.16,0,.29s-.16.08-.22.19c-.06.11.13.18.05.29s-.17.09-.26.17c-.1.07-.11.01-.2.06-.09.03-.08.11-.2.11-.11-.01-.07-.16-.14-.2-.08-.04-.17.08-.26,0-.08-.1-.05-.13-.12-.23-.07-.11,0-.15-.06-.27-.05-.12-.21-.05-.25-.19-.04-.15.1-.19.08-.32-.01-.14-.09-.13-.1-.27,0-.15.12-.18.11-.29l-.7-.03c0,.13.08.11.09.28,0,.17-.04.17-.03.34l.02.02Z"/>
      <path d="M73.81,55.9c-.03-.17-.13-.11-.17-.27-.04-.16.04-.29-.04-.46-.08-.16-.11-.14-.2-.29-.1-.15-.01-.22-.15-.37-.15-.14-.24-.1-.43-.19-.2-.07-.2.15-.36.13-.15,0-.23-.23-.43-.16-.2.08-.2.17-.34.29-.13.13-.2-.03-.33.12-.11.15.01.24-.07.39-.08.15-.1.15-.16.31-.06.16-.17.13-.21.31-.04.18.12.22.1.39-.03.16-.17.31-.18.32l.7.03s-.06-.19-.04-.33c.03-.14.11-.13.14-.25.04-.13-.06-.16,0-.29s.16-.08.22-.19c.06-.11-.13-.18-.05-.29s.17-.09.26-.17c.1-.07.11-.01.2-.06.09-.03.08-.11.2-.11.11.01.07.16.14.2.08.04.17-.08.26,0,.08.1.05.13.12.23.07.11,0,.15.06.27.05.12.21.05.25.19.04.15-.1.19-.08.32.01.14.09.13.1.27,0,.15-.12.18-.11.29l.7.03c0-.13-.08-.11-.09-.28,0-.17.04-.17.03-.34l-.02-.02Z"/>
    </g>
  </g>
</svg>