<?xml version="1.0" encoding="UTF-8"?>
<svg id="_レイヤー_1" xmlns="http://www.w3.org/2000/svg" version="1.1" viewBox="0 0 100 100">
  <!-- Generator: Adobe Illustrator 30.0.0, SVG Export Plug-In . SVG Version: 2.1.1 Build 123)  -->
  <defs>
    <style>
      .st0 {
        fill: none;
        stroke: #000;
        stroke-linecap: round;
        stroke-linejoin: round;
      }

      .st1 {
        fill: #fff;
      }
    </style>
  </defs>
  <g>
    <path class="st1" d="M89.64,58.05c-.22,1.29-.43,2.58-.64,3.89-.51,3.22-.97,6.39-1.39,9.52.3,1.13-2.61,9.13-4.34,11.86-2.33,3.67-5.56,6.38-9.36,8.39-4.5,2.38-9.29,3.9-14.35,4.57-2.34.31-12.86.5-16.37-.13-4.44-.8-8.75-1.97-12.82-3.95-2.8-1.37-11.03-8.16-13.5-12.88-1.22-2.33-3.74-23.12-3.83-23.64-.32-2.91-1.12-13.52,5.83-23.67,7.66-11.18,19.33-13.9,22.87-14.55,21.78-4.02,37.42,14.59,38.28,15.65,7.92,9.74,9.31,20.42,9.63,24.94Z"/>
    <path d="M30.97,11.85c-7.73.72-11.25,4.12-13.17,5.62-7.62,5.93-9.73,14.38-10.86,22.16-.56,3.84-.77,10.51,2.65,14.36.77.87,2.51,1.37,3.31.38,1.51-1.87,1.29-4.17,3.2-6.99,2.69-3.98,3.54-4.49,6.76-7.61,6.97-6.75,8.69-15.48,8.69-15.48,2.45,4.4,5.06,7.6,7.01,9.72,3.77,4.1,6.71,5.92,9.35,6.98.78.31,4.12,1.65,4.85.67.16-.22.49-.72-.18-1.65-.81-1.12-1.4-2.36-2.54-4.5-1.17-2.21-2.13-4.28-1.78-4.53.44-.31,2.63,2.87,7.42,6.86,1.75,1.46,4.01,3.08,7.25,4.27,4.71,1.74,9.4,1.62,11.46,1.55,3.5-.12,4.72-.69,7.04.15,2.68.96,4.36,2.83,4.95,3.66,2.62,3.71,2.91,6.89,2.91,6.89l.53,2.68c.13.86,2.61,1.05,3.72.81,2.43-.52,3.97-10.73,2.24-19.68-2.21-11.45-10.27-25.51-25.1-32.04,0,0-12.74-5.61-26.13-2.38-2.73.66-7.94,2.34-10.86,5.46-.89.95-2.29,2-2.71,2.61Z"/>
    <path class="st1" d="M12.96,56.79c-1.23-.63-3.13-1.01-4.56-.14-2.33,1.42-2.37,5.53-1.3,8.19,1.63,4.04,6.64,6.71,8.71,5.43,2.71-1.67,1.85-11.05-2.85-13.48Z"/>
    <path class="st1" d="M89.48,59.15c1.26-.56,3.19-.81,4.56.14,2.24,1.56,2.02,5.67.79,8.25-1.88,3.93-7.04,6.28-9.03,4.88-2.6-1.84-1.16-11.15,3.68-13.28Z"/>
    <path d="M88.6,69.2c-1.59,10.15-5.06,18.71-15.02,23.64-16.45,8.65-44.07,6.76-55.8-8.92-2.78-3.69-3.62-8.4-4.41-12.84-.35-2.2-.67-4.35-.67-6.69,0-.54.44-.98.98-.99.51,0,.93.39.98.88.75,4.11,1.85,8.45,2.93,12.52,1.55,5.96,6.51,10.64,11.93,13.46,13.12,6.87,29.89,7.43,43.29,1.06,3.84-1.84,7.28-4.52,9.65-8.04,2.34-3.54,3.8-7.79,4.62-11.94.18-.78.4-1.55.53-2.34.05-.27.3-.46.58-.41.29.05.47.33.4.62h0Z"/>
    <path d="M57.56,58.69c-.04,9.25,12.39,13.27,19.37,8.49,7.47-4.71,4.78-14-2.8-16.77-6.4-2.55-15.76.87-16.56,8.28h0ZM55.86,58.57c1.09-8.36,11.45-12.06,18.59-9,8.02,3.25,10.77,13.05,2.9,18.23-7.71,5.55-21.42,1.16-21.49-9.23h0Z"/>
    <path d="M46.39,57.29c3.02-.61,6.18-.3,9.09.62.14.04.21.18.17.32-.04.13-.17.21-.31.18-1.45-.34-2.92-.6-4.39-.64-1.44,0-2.95.14-4.35.49-.66.17-.89-.85-.22-.98h0Z"/>
    <path d="M45.9,60.11c-1.7,8.66-13.72,11.2-20.54,6.94-8.35-4.94-7.22-14.22,1.19-18.33,8.14-4.1,20.37,1.48,19.35,11.4h0ZM45.36,60.03c.85-9.39-10.75-14.26-18.2-10.11-9.16,5.21-6.94,14.98,2.65,17.78,6.01,1.59,14.31-1.01,15.55-7.67h0Z"/>
    <path d="M10.08,55.49c-1.95-.04-3.29,1.62-3.91,3.28-1.2,3.3.86,7.09,3.53,8.95,1.08.71,2.8,1.66,4.01,1.23.85-.32,1.8.11,2.11.97.39,1.01-.34,2.13-1.41,2.22-6.36.6-11.94-8.2-8.98-13.7.9-1.67,2.64-3.28,4.65-2.94h0Z"/>
    <path d="M95.22,57.92c4.73,3.91,2.21,11.35-2.5,14.04-1.52.87-3.32,1.69-5.1,1.13-.35-.11-.19-.65.16-.56,4.53.64,9.15-5.11,8.5-9.43-.21-1.36-.94-2.98-2.08-3.74-1-.67.03-2.16,1.01-1.45h0Z"/>
    <path d="M43.66,81.5c3.82,2.6,9.2,2.91,13.19.49.31-.21.66.27.36.5-3.9,3.18-10.29,2.96-14.01-.42-.33-.3.1-.84.46-.58h0Z"/>
    <path d="M89.82,57.83c-.79.04-2.27.68-3.06.94-1.17.38-2.09.86-3.23,1.32-.47.19-1.01-.04-1.2-.51-.2-.5.08-1.08.61-1.23,1.07-.31,2.3-.78,3.41-.98,1.2-.19,2.51-.75,3.76-.5.65.22.35,1.08-.3.95h0Z"/>
    <path d="M13.08,55.02c2.44.11,4.77.89,7.04,1.49.45.12.71.58.59,1.02-.12.45-.58.71-1.02.59-1.15-.48-2.24-1.04-3.36-1.5-1.08-.45-2.17-.86-3.31-1.09-.31-.05-.25-.54.06-.52h0Z"/>
    <path d="M49.96,60.86c.27,2.1-.47,4.33-1.75,5.98-1.4,1.99,1.68,1.94,3.16,2.2.27.05.45.32.39.59-.05.26-.3.43-.55.4-1.35.02-4.17,0-4.53-2.03-.12-1.49,1.1-1.98,1.83-2.88.96-1.17,1.31-2.74,1.2-4.25-.01-.15.23-.18.24-.02h0Z"/>
    <path class="st0" d="M50.46,76.52c-.13,1.12-.13,2.24-.17,3.36"/>
    <path class="st0" d="M58.47,76.77c-.11,1.12.46,2.02.99,2.93"/>
    <path class="st0" d="M46.52,76.67c-.01.71-.34,1.34-.52,2-.08.32-.13.62-.15.94"/>
    <path class="st0" d="M54.32,77.18c.16.63.28,1.27.45,1.9.05.19.06.46.39.32"/>
    <path class="st0" d="M42.58,76.41c.03.78-.55,1.32-.81,1.99-.14.35-.41.65-.36,1.07"/>
    <path class="st0" d="M8.88,26.84"/>
  </g>
  <path class="st1" d="M43.19,9.49c20.82-9.04,38.53,1.66,46.77,21.55,1.14,2.5,2.13,5.09,2.87,7.75.05.18-.06.37-.24.42-.18.05-.37-.05-.42-.24-1.47-5.23-3.86-10.22-6.74-14.82-9.43-15.13-25.46-20.57-42.24-14.67h0Z"/>
  <path class="st1" d="M54.13,30.47c3.31,3.66,7.37,6.7,12.19,7.96,4.79,1.34,9.77,1.92,14.76,1.83.12,0,.15.2.02.21-5.02.68-10.14.21-15.05-1.04-4.96-1.27-9.31-4.54-12.27-8.66-.17-.23.17-.51.36-.29h0Z"/>
</svg>