<?xml version="1.0" encoding="UTF-8"?>
<svg id="_レイヤー_1" xmlns="http://www.w3.org/2000/svg" version="1.1" viewBox="0 0 100 100">
  <!-- Generator: Adobe Illustrator 30.0.0, SVG Export Plug-In . SVG Version: 2.1.1 Build 123)  -->
  <defs>
    <style>
      .st0 {
        fill: #1c1917;
      }

      .st1 {
        fill: #fff;
      }
    </style>
  </defs>
  <path class="st1" d="M83.64,56.42c-.17,1.09-.34,2.2-.5,3.31-.4,2.74-.76,5.44-1.08,8.1.27.95-.36,1.71-.57,2.56-.67,2.64-1.55,5.21-2.99,7.55-1.94,3.14-4.65,5.47-7.86,7.22-3.79,2.07-7.84,3.41-12.13,4.03-1.98.29-3.96.47-5.96.52-2.66.06-5.31-.08-7.94-.45-3.79-.54-7.45-1.58-10.92-3.22-2.39-1.13-4.68-2.43-6.66-4.2-2.09-1.86-3.8-4-4.93-6.6-.89-2.05-1.49-4.17-1.98-6.34-.14-.63-.52-1.17-.41-1.9.09-.62-.18-1.3-.25-1.95-.07-.65-.17-1.29-.23-1.94-.13-1.3-.19-2.6-.28-3.89-.06-.9-.03-1.79-.04-2.69,0-.47-.24-.87-.32-1.32-.3-2.47-1.09-11.46,4.7-20.15,6.39-9.57,16.26-12,19.26-12.59,18.44-3.64,31.91,12,32.65,12.88,6.82,8.19,8.12,17.24,8.44,21.07h0Z"/>
  <path class="st0" d="M33.98,19.15c-6.32.67-9.17,3.49-10.73,4.73-6.18,4.93-7.82,11.87-8.67,18.25-.42,3.15-.53,8.61,2.31,11.73.64.7,2.07,1.09,2.71.28,1.21-1.54,1.01-3.43,2.55-5.75,2.16-3.29,2.85-3.71,5.46-6.3,5.64-5.6,6.96-12.76,6.96-12.76,0,0,1.51,3.34,5.84,7.89,1.28,1.35,3.45,2.68,7.77,5.34,1.07.66,2.58,1.56,3.46.98.71-.46.66-1.66.66-1.74-.07-1.3-1.13-1.8-2.3-3.36-1.23-1.64-1.95-3.6-1.67-3.81.36-.26,2.18,2.32,6.15,5.55,1.47,1.19,3.34,2.56,5.98,3.43.77.25,11.17,1.8,13.04,1.62.95-.09,1.22-.46,2.12-.42,2.02.09,3.47,2.09,4.09,2.95,2.18,3.01,2.45,5.61,2.45,5.61l.64,3.2s1.96-.18,2.87-.39c1.98-.45,3.14-8.82,1.64-16.13-1.92-9.35-8.66-20.78-20.87-25.98,0,0-10.48-4.46-21.42-1.69-2.23.57-6.48,2-8.84,4.58-.72.78-1.85,1.66-2.19,2.16v.03Z"/>
  <path class="st1" d="M18.54,56.14c-1.05-.52-2.67-.82-3.87-.07-1.96,1.23-1.95,4.72-1.02,6.96,1.43,3.41,5.71,5.62,7.45,4.52,2.28-1.45,1.46-9.4-2.56-11.41Z"/>
  <path class="st1" d="M83.51,57.35c1.07-.48,2.7-.72,3.87.07,1.92,1.3,1.78,4.79.76,7-1.55,3.36-5.91,5.41-7.61,4.24-2.23-1.53-1.1-9.45,2.98-11.31Z"/>
  <path class="st0" d="M23.92,76.41c-.97-1.73-1.63-3.62-2.15-5.54-.24-.85-.4-1.73-.65-2.58-.15-.49-.3-.86-.31-1.38,0-.34,0-.66-.05-1.01-.29-1.87-.51-3.72-.63-5.61s0-3.62-.45-5.39c-.25-.99-2.42-.42-2.17.58.46,1.85.35,3.84.47,5.75.06.98.14,1.96.25,2.93.11.89.35,1.8.38,2.69.06,1.73.66,3.49,1.15,5.16.54,1.85,1.23,3.66,2.18,5.34.47.84,2.54.03,1.99-.95h-.01Z"/>
  <path class="st0" d="M82.6,56.3c-.43,1.08-.48,2.16-.55,3.3-.08,1.43-.22,2.86-.4,4.28-.17,1.33-.6,2.7-.69,4.03-.04.65-.03,1.03-.25,1.64-.18.51-.34,1.01-.48,1.54-1.31,4.87-3.73,9.14-7.92,12.09-8.56,6.03-20.7,6.99-30.67,4.66-5.75-1.34-11.54-3.98-15.55-8.42-.65-.72-2.72.15-1.99.95,7.57,8.39,20.29,10.86,31.1,9.96,10.27-.86,21.68-5.15,25.88-15.35.57-1.39,1-2.83,1.4-4.27.17-.63.48-1.21.63-1.84.17-.68.13-1.39.24-2.08.28-1.74.56-3.47.73-5.24.15-1.62-.02-3.5.59-5.02.46-1.15-1.72-1.13-2.08-.24h.01Z"/>
  <path class="st0" d="M46.42,57.7c1.34-.13,2.56-.65,3.92-.7,1.29-.05,3.04.07,4.18.76.46.28.33.7.4,1.25.07.48.17.96.32,1.42.31.96.8,1.89,1.43,2.68,2.98,3.71,8.33,4.88,12.81,3.85,2.32-.53,4.48-1.71,6.14-3.42.77-.79,1.42-1.74,1.83-2.77.39-.97.75-2.2.76-3.24,0-.96-.53-2.32-.93-3.18-.54-1.13-1.35-2.12-2.26-2.97-1.89-1.76-4.39-2.79-6.94-3.1-2.96-.36-6.03.3-8.57,1.87-1.14.7-2.16,1.6-2.95,2.68-.38.52-.74,1.07-1.01,1.66-.32.72-.35,1.63-.78,2.28-.77,1.14,1.26,1.45,1.82.63s.63-1.75,1.04-2.67c.47-1.05,1.23-2,2.11-2.74,1.95-1.65,4.61-2.4,7.14-2.19s4.86,1.19,6.6,2.95c.76.77,1.49,1.69,1.88,2.71.15.4.22.81.34,1.22.06.21.19.44.23.66.09.46-.03.71-.1,1.16-.32,2.27-1.25,3.99-3.13,5.37s-4.02,1.93-6.25,1.87c-3.96-.1-8.24-2.45-9.19-6.52-.18-.76,0-1.9-.57-2.48s-1.94-.82-2.68-1.01c-1.13-.29-2.3-.36-3.45-.31-1.37.06-2.59.58-3.92.7-1.21.11-1.68,1.71-.2,1.57h-.02Z"/>
  <path class="st0" d="M31.7,49.89c2.86-1.11,6.34-.82,8.99.7,1.24.71,2.35,1.65,3.15,2.84.38.56.7,1.17.91,1.82.24.74.36,1.45.72,2.15.47.91,2.52.08,1.98-.98-.4-.78-.46-1.69-.82-2.5-.3-.69-.68-1.34-1.14-1.93-1.06-1.37-2.48-2.41-4.03-3.17-3.33-1.64-7.34-1.62-10.76-.29-.44.17-.79.74-.5,1.17.32.49,1.04.37,1.48.19h.02Z"/>
  <path class="st0" d="M45.41,56.81c-.6,1.04-.42,2.34-.95,3.46s-1.33,2.01-2.24,2.75c-1.93,1.56-4.42,2.18-6.87,2.1s-4.82-1.02-6.64-2.68c-.87-.8-1.58-1.79-2.01-2.9s-.28-2.35-.86-3.39l-.07.84c.74-.74.7-1.91,1.12-2.83.5-1.09,1.3-1.97,2.22-2.74,1.13-.94-.59-1.8-1.46-1.07-.94.79-1.78,1.66-2.41,2.71-.3.49-.54,1-.72,1.54s-.18,1.29-.57,1.68c-.24.23-.22.58-.07.84.38.67.26,1.65.48,2.39.17.57.4,1.12.67,1.65.64,1.23,1.61,2.27,2.7,3.11,2.26,1.73,5.03,2.53,7.85,2.51s5.63-.82,7.87-2.52c1.11-.84,2.09-1.91,2.8-3.11.35-.59.61-1.21.79-1.87.19-.71.12-1.55.49-2.19.28-.48-.25-.91-.68-.98-.57-.09-1.13.2-1.41.68h0l-.03.02Z"/>
  <path class="st0" d="M16.49,54.42c-2.02-.06-3.76,1.02-4.76,2.75s-1.01,3.55-.4,5.33c1.16,3.4,4.64,6.61,8.43,5.87.34-.07,1.05-.42.93-.87-.13-.48-.92-.35-1.24-.28-.67.13-1.47-.31-2.03-.62s-1.13-.7-1.62-1.15c-.95-.87-1.68-1.95-2.15-3.15-.52-1.31-.73-2.73-.31-4.1.3-.97,1.13-2.54,2.32-2.5.47,0,1.18-.16,1.43-.6s-.21-.67-.6-.68h0Z"/>
  <path class="st0" d="M83.3,56.28c.72.35,1.48.6,2.28.7.65.07,1.17.13,1.69.58,1.14.98,1.71,2.74,1.63,4.21-.15,2.83-2.21,5.44-4.78,6.49-.32.13-.86.52-.57.91s1.1.18,1.44.04c3.03-1.24,5.74-4.09,6.07-7.47.16-1.7-.37-3.62-1.59-4.87-.5-.51-1.13-.87-1.82-1.03-.4-.09-.81-.08-1.21-.15-.5-.08-.96-.27-1.42-.49s-1.13-.08-1.54.19c-.29.19-.66.66-.18.89h0Z"/>
  <path class="st0" d="M43.82,77.67c3.72,2.82,9.33,2.84,13.1.11.38-.27.54-.8.12-1.11s-1.15-.16-1.56.13c-2.94,2.12-7.17,1.76-9.99-.38-.76-.57-2.67.5-1.68,1.25h.01Z"/>
  <path class="st0" d="M84.09,55.14c-1.31-.11-2.57.18-3.81.57-.52.16-1.04.31-1.55.49-.25.08-.49.17-.74.24-.11.03-.32.13-.43.11.21-.03.23-.04.06,0-.07,0-.15,0-.23.02-.37.02-.79.17-1.09.4-.22.16-.49.47-.51.76-.04.73.74.97,1.34.94,1.15-.07,2.25-.53,3.35-.88.5-.16,1-.32,1.51-.45.12-.03.26-.08.38-.08-.4,0,0,0,.11,0,.13,0,.26-.02.39-.03.16,0,.15,0-.03,0,.08,0,.15,0,.23.02.66.05,1.61-.2,1.89-.88.26-.64-.24-1.15-.88-1.2h0v-.02Z"/>
  <path class="st0" d="M18.09,55.9c.26.03.53.06.79.11.07,0,.15.03.22.04q-.15-.03,0,0c.11.03.22.05.33.08.51.14,1,.31,1.5.48s.98.37,1.48.55c.25.09.5.19.76.26.19.05.37.09.56.13.05,0,.53.11.24.04.69.16,1.58.06,2.05-.55.17-.22.34-.52.24-.81-.09-.27-.32-.51-.61-.58-.23-.05-.45-.1-.68-.15-.08,0-.15-.03-.23-.04.12.03.14.03.05,0-.26-.1-.54-.18-.81-.28-.49-.18-.98-.37-1.48-.55-1.1-.39-2.23-.72-3.39-.84-.66-.07-1.61.21-1.89.88s.24,1.14.88,1.2h0v.03Z"/>
  <path class="st0" d="M48.79,59.51c.07.9-.04,1.83-.41,2.66-.19.42-.44.79-.73,1.15s-.65.73-.83,1.18c-.37.87-.03,1.7.76,2.18,1.02.62,2.11.52,3.24.66.51.07,1.19-.17,1.42-.66s-.21-.84-.66-.9c-.81-.11-1.76.07-2.46-.44-.19-.14-.29-.26-.26-.46.05-.34.31-.59.52-.84.58-.69,1.05-1.44,1.32-2.3.29-.93.34-1.85.26-2.82-.02-.2-.3-.38-.46-.44-.25-.09-.58-.08-.83,0-.49.15-.93.47-.89,1.03h.01Z"/>
  <path class="st0" d="M34.77,13.26c.02.05.03.11.03.16v-.22s0,.1-.02.14c.05-.11.05-.12,0-.02.19-.22-.06.07-.09.11-.19.22-.38.44-.56.68-.27.36-.52.74-.71,1.14-.22.46-.41.94-.5,1.44-.05.27-.07.55-.04.83.02.24.12.46.13.71v-.22c0,.12,0,.25,0,.37,0,.26.06.42.3.55.27.14.67.16.96.12.38-.05.78-.16,1.1-.38.2-.13.54-.37.54-.64s.04-.56,0-.82c-.04-.22-.12-.41-.12-.65v.22c.02-.41.12-.81.26-1.19,0-.03.15-.35.06-.17.04-.08.07-.15.11-.23.09-.17.19-.34.3-.51s.22-.33.34-.48c.05-.07.1-.13.16-.2.04-.05.22-.35.09-.11.13-.22.37-.37.48-.61.13-.27.18-.51.11-.81-.06-.25-.36-.38-.57-.43-.33-.08-.76-.04-1.08.05-.45.13-1.39.52-1.24,1.15h0l-.02.02Z"/>
  <path class="st0" d="M28.94,17.97c.41.02.82.09,1.22.19l-.34-.09c.56.14,1.09.36,1.59.63l-.28-.15c.2.11.39.22.58.35.24.15.48.36.75.44.38.1.71.14,1.11.03.33-.09.73-.3.94-.58.18-.24.33-.55.22-.86-.09-.28-.33-.55-.62-.63-.03,0-.07-.02-.1-.03l.28.15c-.3-.17-.57-.38-.87-.55-.38-.21-.77-.42-1.18-.57-.74-.29-1.54-.48-2.34-.52-.4-.02-.78,0-1.14.19-.28.14-.62.41-.74.72-.1.28-.13.6.07.85s.52.43.83.45h0l.02-.02Z"/>
  <path class="st0" d="M49.49,72.79c-.1.95-.09,1.9-.11,2.86,0,.12.34.13.38.13.26,0,.55-.05.79-.12s.52-.15.74-.29c.11-.07.26-.15.26-.3.02-.95,0-1.91.11-2.86,0-.12-.35-.13-.38-.13-.26,0-.55.05-.79.12s-.52.15-.74.29c-.12.07-.25.15-.26.3h0Z"/>
  <path class="st0" d="M56.27,72.69c-.04.52.05,1.05.25,1.53s.46.92.73,1.37c.12.2.42.31.63.34.27.04.62-.01.86-.14.43-.23.79-.69.5-1.17-.19-.32-.38-.63-.55-.96l.1.2c-.17-.36-.29-.73-.33-1.13l.02.22v-.39c.04-.54-.55-.81-1.02-.77-.29.03-.59.11-.82.3-.18.15-.35.36-.37.61h0Z"/>
  <path class="st0" d="M46.12,72.73c0,.24-.05.47-.11.7l.06-.22c-.19.67-.46,1.32-.48,2.03-.02.54.54.81,1.02.77.29-.03.59-.11.82-.3.18-.15.36-.36.37-.61,0-.3.06-.6.14-.89l-.06.22c.17-.61.44-1.2.45-1.84,0-.24-.08-.43-.27-.58s-.51-.21-.75-.19c-.29.03-.59.11-.82.3-.17.15-.37.36-.37.61h0Z"/>
  <path class="st0" d="M52.76,73.3c.13.48.23.96.35,1.43.05.18.08.39.2.55.14.17.36.23.57.26.39.05.78-.04,1.13-.19.2-.09.46-.24.58-.44.09-.14.12-.34,0-.47-.15-.15-.39-.21-.59-.21-.29,0-.58.05-.85.17-.02,0-.04.02-.05.02l.28-.1s-.03,0-.05.01l.29-.06h-.02.28-.04l.24.03h-.03l.2.07s-.02,0-.03-.01l.15.11s-.04-.03-.05-.06l.08.14c-.05-.09-.06-.19-.09-.29-.05-.17-.09-.34-.13-.51-.08-.34-.16-.69-.25-1.03-.05-.18-.26-.28-.43-.32-.25-.06-.57-.03-.81.04s-.53.18-.72.37c-.13.13-.26.3-.21.49h0Z"/>
  <path class="st0" d="M42.8,72.78v.04-.17c0,.21-.05.41-.13.6l.07-.17c-.09.2-.2.39-.3.58-.13.23-.23.47-.34.72l.07-.17c-.08.17-.17.33-.24.5-.1.23-.13.42-.1.67.02.18.29.29.43.33.25.06.57.04.81-.03.39-.12.98-.38.93-.88v-.08.17c0-.12.03-.23.08-.34l-.07.17c.11-.26.24-.51.35-.76l-.07.17c.12-.28.29-.53.42-.79.09-.17.17-.35.22-.54.05-.2.05-.39.05-.6,0-.18-.3-.3-.43-.33-.25-.06-.57-.04-.81.03s-.53.18-.72.38l-.14.16c-.07.1-.09.21-.07.34h0Z"/>
</svg>