<?xml version="1.0" encoding="UTF-8"?>
<svg id="_レイヤー_1" xmlns="http://www.w3.org/2000/svg" version="1.1" viewBox="0 0 100 100">
  <!-- Generator: Adobe Illustrator 30.0.0, SVG Export Plug-In . SVG Version: 2.1.1 Build 123)  -->
  <defs>
    <style>
      .st0, .st1 {
        fill: none;
      }

      .st2 {
        fill: #fff;
      }

      .st1 {
        stroke: #000;
        stroke-linecap: round;
        stroke-linejoin: round;
        stroke-width: .5px;
      }
    </style>
  </defs>
  <path class="st2" d="M83.41,55.98c-.15,1.12-.3,2.25-.45,3.39-.36,2.81-.67,5.57-.95,8.3.29.97-.33,1.76-.53,2.63-.64,2.71-1.48,5.36-2.92,7.77-1.92,3.25-4.65,5.68-7.89,7.53-3.84,2.19-7.95,3.63-12.32,4.35-2.02.33-4.03.56-6.08.64-2.72.11-5.43.02-8.12-.31-3.89-.48-7.64-1.47-11.22-3.08-2.47-1.11-4.83-2.4-6.89-4.16-2.17-1.86-3.96-4.01-5.16-6.65-.95-2.08-1.6-4.23-2.14-6.44-.16-.64-.55-1.18-.45-1.93.08-.64-.21-1.32-.29-1.98-.08-.66-.19-1.32-.27-1.98-.15-1.32-.24-2.65-.36-3.97-.08-.92-.06-1.83-.09-2.75-.02-.48-.26-.89-.35-1.34-.35-2.52-1.34-11.69,4.42-20.68,6.34-9.9,16.39-12.57,19.44-13.23,18.78-4.07,32.84,11.65,33.61,12.54,7.13,8.24,8.62,17.46,9.02,21.37Z"/>
  <g>
    <path d="M31.96,18.85c-6.45.8-9.3,3.74-10.87,5.04-6.22,5.15-7.76,12.28-8.51,18.81-.37,3.23-.38,8.81,2.59,11.95.67.71,2.14,1.08,2.77.24,1.21-1.6.97-3.52,2.49-5.93,2.15-3.4,2.85-3.85,5.46-6.54,5.66-5.83,6.87-13.17,6.87-13.17,0,0,1.61,3.39,6.11,7.95,1.34,1.35,3.57,2.67,8.04,5.31,1.11.66,2.67,1.54,3.55.94.72-.49.64-1.71.64-1.79-.1-1.32-1.19-1.82-2.41-3.39-1.29-1.65-2.06-3.64-1.78-3.86.36-.27,2.27,2.33,6.39,5.55,1.52,1.19,3.46,2.55,6.17,3.39.79.24,11.45,1.62,13.36,1.41.97-.11,1.24-.5,2.16-.47,2.07.06,3.58,2.07,4.23,2.93,2.29,3.04,2.61,5.69,2.61,5.69l.72,3.26s2-.22,2.93-.45c2.02-.5,3.04-9.08,1.36-16.51-2.14-9.52-9.25-21.07-21.82-26.15,0,0-10.8-4.36-21.92-1.32-2.27.62-6.58,2.16-8.94,4.85-.72.81-1.86,1.73-2.2,2.25Z"/>
    <g>
      <path d="M45.84,40.84c-.35-.21-.45.13-.79-.08-.35-.21-.39-.59-.74-.8-.34-.21-.42-.09-.76-.3-.34-.21-.19-.48-.53-.69-.34-.21-.56-.04-.89-.26-.33-.22-.57.36-.9.14-.34-.23,0-.81-.32-1.03-.31-.23-.5-.14-.8-.38-.29-.25.11-.51-.16-.75-.26-.24-.57.07-.85-.23-.28-.29-.24-.33-.51-.61-.27-.29-.05-.53-.31-.82-.27-.29-.66-.01-.93-.31-.27-.3-.17-.86-.19-.88l-1.53,1.29s.5.28.77.58c.27.31.08.48.36.78.28.3.48.12.76.42.28.29.04.52.33.82.28.3.61-.19.91.1.31.28.29.52.62.79.33.26.2.35.54.6.34.24.52.07.86.3.34.23.12.59.46.81.35.22.57-.15.92.06.35.22.27.34.62.55.35.21.25.37.6.58.35.21.58-.25.92-.04.35.21.17.58.52.78.35.21.45.04.79.25.35.21.26.55.52.7l1.02-1.72c-.26-.15-.36.09-.71-.11-.35-.21-.27-.34-.62-.54Z"/>
      <path d="M47.23,37.75c.24.37.46.1.71.45.25.34.16.73.44,1.07.29.33.39.23.68.54.14.15.16.28.18.4,0,.11.07.29.13.35.12.14.4.05.55.26.12.21.78.03.91.39.09.39-.74.29-.75.5-.03.23.19.42.08.67-.14.24-.58-.3-.71-.18-.14.08.16.61-.12.62-.27-.02-.29-.1-.53-.17-.25-.09-.24-.45-.41-.52-.15-.08-.38.35-.75.14-.34-.19-.45-.76-.47-.77l-1.02,1.72s.55.09.92.3c.17.1.25.21.37.34.11.12.22.26.5.37.57.23.58-.06,1.09.07.5.09.6.44,1.14.39.53-.13.09-.58.51-.78.39-.25.63-.27.86-.71.18-.46.3-.34.39-.86.05-.54-.19-.65-.28-1.14-.14-.47.29-.56,0-1.09-.33-.51-.73-.28-1.07-.66-.32-.34-.19-.41-.48-.7-.27-.28-.13-.41-.37-.69-.24-.28-.61.07-.85-.24-.23-.31.08-.58-.12-.89-.2-.32-.37-.22-.56-.55-.18-.34.08-.57-.04-.82l-1.82.84c.14.3.36.15.56.53.21.38.07.45.3.82Z"/>
      <path d="M54.93,40.08c-.32-.23-.45.1-.77-.14-.32-.24-.31-.63-.62-.88-.31-.25-.4-.14-.71-.4-.31-.26-.12-.49-.42-.75-.3-.26-.54-.12-.84-.39-.3-.27-.61.27-.91,0-.3-.27.11-.8-.18-1.07-.29-.27-.49-.21-.78-.48-.29-.28.14-.51-.15-.79-.29-.28-.6.02-.89-.26-.29-.29-.25-.32-.57-.62-.15-.14-.21-.29-.26-.44-.03-.07-.09-.17-.17-.25-.02-.02-.04-.04-.07-.07-.06-.03-.12-.07-.19-.1-.07-.03-.15-.06-.23-.08-.12-.03-.46-.02-.69.1-.46.19-.64.76-.62.82-.01.08-.01.16-.01.24,0,.05.02.08.03.12.05.16.12.24.2.31.15.15.3.24.37.46.14.42-.08.96-.07.99l1.82-.84s-.39-.35-.49-.67c-.05-.16,0-.23.06-.28.03,0,.07-.03.08.05,0,.03,0,.07,0,.1,0,.03,0,.05-.08.21-.07.13-.17.23-.31.33-.15.11-.39.17-.58.13-.14-.01-.19-.04-.25-.08h.03s.06-.04.12-.04c.1,0,.21-.01.35.12.28.26.04.5.33.77.28.28.6-.21.89.07.29.28.24.52.54.8.29.28.16.36.45.64.3.28.5.13.8.41.3.27.03.6.33.87.31.27.59-.07.9.2.31.26.22.37.54.64.32.26.2.41.52.66.32.26.6-.17.93.08.33.25.11.6.45.84.34.24.45.08.8.32.35.23.25.57.53.74l1.04-1.71c-.24-.15-.35.09-.68-.12-.33-.22-.23-.34-.56-.57Z"/>
      <path d="M66.85,43.46c-.4-.05-.35.3-.75.26-.4-.04-.6-.38-1-.43-.4-.05-.42.09-.82.04-.4-.05-.37-.35-.77-.41-.4-.05-.53.19-.93.14-.4-.05-.36.57-.76.51-.4-.06-.36-.73-.76-.78-.39-.06-.52.11-.91.04-.4-.07-.16-.49-.43-.56-.36-.12-.5.3-.87.16-.36-.14-.34-.19-.7-.34-.36-.15-.24-.46-.58-.62-.34-.17-.61.24-.95.05-.35-.19-.43-.75-.45-.76l-1.04,1.71s.58.11.95.31c.37.2.26.42.64.61.39.18.51-.07.89.1.39.16.26.47.67.62.41.15.47-.44.87-.31.18.07.35.15.49.23.13.07.25.15.46.18.4.06.33.21.74.27.4.06.48-.17.89-.12.4.05.35.48.76.53.4.05.45-.38.85-.33.4.05.38.19.79.24.4.05.38.24.78.29.4.05.42-.46.83-.41.4.05.4.45.8.5.4.05.42-.15.83-.11.4.04.47.39.77.42l.2-1.99c-.3-.03-.29.24-.69.19-.4-.04-.38-.19-.78-.24Z"/>
      <path d="M79.54,46.19c-.27-.34-.47-.05-.75-.37-.29-.31-.25-.71-.59-1.02-.36-.29-.44-.19-.81-.44-.39-.24-.25-.52-.72-.73-.48-.19-.67.03-1.15-.07-.5-.05-.39.56-.81.57-.39.04-.67-.57-1.11-.42-.37.13-.36.33-.69.39-.34.04-.26-.45-.57-.43-.37-.01-.38.44-.78.41-.4-.02-.39-.07-.79-.1-.4-.03-.39-.35-.79-.39-.4-.03-.5.44-.9.41-.4-.04-.73-.5-.76-.51l-.2,1.99s.54-.15.95-.12c.41.04.38.28.79.32.41.03.43-.25.84-.21.41.03.39.36.8.38.42.02.32-.57.73-.56.43,0,.6.2,1.08.11.46-.11.48.03.87-.1.33-.11.26-.35.58-.38.32,0,.3.43.57.47.27.06.4-.36.72-.23.31.15.25.27.53.45.29.2.17.35.44.57.26.23.59-.16.86.12.27.28-.02.58.22.87.24.3.39.18.63.5.22.32.01.58.17.82l1.66-1.11c-.18-.27-.38-.08-.62-.43-.25-.34-.12-.42-.39-.76Z"/>
      <path d="M86.16,40.38c.06.35.39.21.45.56.06.35-.21.6-.16.95.05.35.18.33.23.68.05.35-.26.4-.23.74.04.35.3.41.33.76.03.35.63.2.65.56.03.36-.64.45-.62.8.02.35.2.43.21.79,0,.36-.46.24-.46.59,0,.35.43.36.43.71,0,.35-.06.35-.07.71-.02.35-.34.36-.36.71-.02.35.46.43.43.79-.03.36-.49.63-.5.65l1.99.22s-.15-.5-.12-.87c.03-.37.27-.35.3-.72.02-.37-.26-.39-.24-.76,0-.37.34-.35.35-.73,0-.37-.57-.26-.57-.63,0-.36.2-.48.19-.85-.01-.37.15-.33.13-.7-.02-.37-.26-.4-.28-.76-.03-.37.4-.41.37-.78-.03-.37-.46-.32-.5-.69-.04-.36.11-.38.06-.75-.05-.37.14-.39.09-.76-.05-.37-.55-.26-.61-.61-.06-.36.34-.47.27-.83-.07-.36-.26-.33-.33-.69-.08-.36.23-.52.16-.79l-1.95.46c.06.25.32.16.39.51.07.35-.08.37-.01.72Z"/>
      <path d="M82.23,29.78c.17.31.43.08.61.39.16.32-.02.65.14.96.16.32.28.26.44.58.16.32-.11.45.03.78.14.32.41.29.55.62.14.33.66-.02.8.32.15.33-.45.63-.33.96.12.33.33.35.45.68.12.33-.36.37-.23.7.12.33.52.2.64.54.11.34.05.36.16.69.1.34-.2.45-.1.78.09.34.56.26.65.61.09.35-.25.76-.24.78l1.95-.46s-.32-.42-.41-.77c-.09-.36.15-.42.06-.78-.11-.36-.38-.28-.49-.63-.11-.35.21-.45.1-.8-.11-.35-.62-.07-.74-.41-.13-.34.02-.52-.11-.86-.13-.34.03-.36-.1-.7-.13-.35-.37-.3-.52-.63-.15-.34.24-.51.1-.85-.15-.34-.54-.15-.69-.49-.14-.34-.03-.39-.19-.72-.16-.33,0-.41-.16-.74-.17-.33-.6-.07-.76-.39-.16-.33.17-.54-.01-.87-.18-.32-.35-.23-.53-.54-.18-.32.07-.57-.07-.81l-1.72,1.03c.13.23.34.07.51.38.18.31.04.38.21.69Z"/>
      <path d="M75.32,20.8c.25.24.44-.05.69.19.25.25.2.6.43.86.24.26.34.17.58.43.24.26.02.47.26.73.23.26.5.14.72.42.22.27.62-.2.85.08.23.28-.26.74-.04,1.01.22.28.43.22.64.51.21.29-.24.46-.03.75.21.28.56.03.77.32.21.29.17.32.37.61.19.3-.07.5.12.79.19.3.62.08.82.38.19.3,0,.8,0,.82l1.72-1.03s-.43-.3-.63-.61c-.2-.31.01-.44-.19-.75-.2-.31-.43-.16-.63-.47-.21-.3.06-.48-.15-.78-.22-.3-.62.12-.83-.17-.21-.29-.12-.51-.34-.81-.23-.29-.08-.35-.31-.63-.23-.29-.45-.17-.68-.45-.23-.28.09-.57-.14-.85-.24-.28-.57.02-.82-.25-.25-.27-.14-.37-.39-.64-.25-.27-.11-.4-.36-.67-.25-.27-.59.12-.86-.14-.26-.25,0-.57-.27-.83-.27-.26-.4-.11-.66-.37-.26-.26-.1-.57-.32-.75l-1.33,1.5c.2.17.36-.05.61.19.26.25.15.36.4.6Z"/>
      <path d="M65.97,14.47c.32.14.4-.2.72-.05.33.14.37.52.68.69.31.17.37.05.69.22.31.17.17.44.48.61.31.17.52-.03.81.17.3.19.52-.39.83-.2.3.19-.01.78.29.97.3.19.48.07.77.28.29.21-.08.52.2.72.28.21.54-.14.83.07.29.21.25.25.54.46.29.21.09.49.36.71.27.23.61-.11.89.12.27.23.24.77.26.78l1.33-1.5s-.5-.15-.78-.39c-.28-.24-.12-.43-.41-.67-.29-.24-.45-.03-.75-.25-.3-.22-.09-.48-.39-.7-.3-.22-.55.31-.84.09-.29-.21-.27-.45-.57-.66-.31-.2-.19-.3-.5-.5-.31-.2-.48-.02-.79-.21-.31-.2-.1-.57-.41-.76-.31-.2-.54.2-.86.02-.32-.17-.25-.3-.58-.48-.32-.17-.24-.34-.56-.52-.33-.17-.52.28-.85.14-.33-.15-.19-.53-.53-.68-.34-.15-.42.03-.75-.12-.33-.15-.29-.5-.54-.61l-.77,1.85c.24.11.31-.15.64,0,.33.15.26.28.58.43Z"/>
      <path d="M55.01,11.74c.35.04.31-.31.67-.27.36.04.52.37.88.41.35.05.37-.08.72-.03.35.05.31.36.66.41.35.06.48-.18.82-.11.35.07.36-.55.71-.49.35.07.26.74.61.82.34.08.47-.08.82,0,.34.09.11.51.45.6.34.09.46-.34.8-.24.34.1.33.15.67.25.34.1.26.42.59.53.33.1.53-.33.87-.22.35.12.46.63.48.64l.77-1.85s-.56,0-.89-.12c-.35-.12-.27-.36-.62-.47-.36-.11-.44.15-.79.04-.35-.1-.25-.42-.61-.52-.36-.1-.4.49-.75.39-.35-.09-.42-.32-.77-.4-.36-.08-.28-.22-.64-.3-.36-.08-.45.14-.81.07-.36-.07-.29-.49-.65-.56-.36-.07-.43.36-.79.3-.36-.06-.34-.2-.7-.25-.36-.06-.34-.24-.7-.3-.37-.04-.4.47-.76.43-.36-.04-.35-.45-.72-.49-.37-.04-.38.16-.75.13-.37-.02-.43-.37-.71-.39l-.12,2c.26.02.25-.25.6-.22.36.03.34.17.69.21Z"/>
      <path d="M43.76,12.51c.34-.08.19-.39.53-.47.35-.08.61.17.95.09.34-.07.32-.19.67-.25.35-.06.41.25.75.19.34-.05.39-.33.74-.38.35-.03.17-.63.53-.66.36-.03.47.63.82.59.35-.03.42-.24.78-.25.36-.01.25.45.6.44.35-.01.34-.45.7-.46.35-.01.35.04.71.05.35,0,.37.33.72.34.35,0,.42-.47.77-.47.36.02.66.47.68.47l.12-2s-.49.17-.86.16c-.37,0-.36-.26-.73-.26-.37,0-.38.27-.74.26-.37,0-.36-.33-.74-.32-.37.01-.24.58-.61.6-.36.01-.49-.18-.86-.17-.37.02-.33-.13-.7-.09-.37.03-.39.28-.76.31-.37.04-.42-.39-.79-.35-.37.06-.3.49-.66.55-.36.06-.39-.08-.75-.03-.36.06-.4-.14-.77-.06-.36.08-.22.57-.58.66-.36.08-.49-.3-.85-.22-.36.09-.31.27-.67.36-.36.1-.54-.2-.81-.11l.59,1.91c.25-.07.14-.32.48-.42.34-.1.38.06.72-.02Z"/>
      <path d="M34.16,17.88c.27-.27-.03-.45.23-.72.27-.3.61-.2.84-.44.25-.22.15-.33.4-.55.27-.21.46.02.72-.19.27-.19.18-.46.47-.65.29-.19-.14-.65.17-.84.31-.18.69.36.99.2.3-.16.29-.37.6-.53.32-.16.4.31.72.17.31-.14.13-.55.46-.69.32-.14.34-.09.67-.22.33-.13.46.17.79.05.32-.12.21-.59.55-.71.34-.11.78.2.8.19l-.59-1.91s-.4.34-.75.46c-.35.12-.43-.12-.78.02-.35.13-.25.39-.6.53-.34.14-.47-.17-.81-.02-.35.15,0,.63-.34.78-.33.15-.52.03-.86.2-.33.17-.36.02-.69.2-.33.18-.24.42-.56.61-.32.2-.55-.15-.88.06-.32.22-.05.58-.36.8-.3.23-.39.12-.68.37-.29.26-.41.12-.7.39-.28.29.12.61-.14.88-.23.25-.55,0-.79.23-.25.24-.11.38-.37.63-.26.25-.56.06-.77.26l1.4,1.43c.18-.18-.02-.34.24-.59.26-.25.37-.13.64-.4Z"/>
      <path d="M22.16,24.14c.28-.24,0-.44.28-.68.28-.23.64-.13.92-.34.28-.22.21-.32.49-.53.29-.2.47.05.76-.15.3-.18.23-.45.54-.63.31-.17-.08-.65.24-.83.33-.17.67.41.99.26.32-.14.33-.34.66-.49.33-.13.38.35.71.23.33-.12.19-.54.53-.64.34-.1.36-.06.7-.16.35-.09.45.22.79.13.34-.09.29-.55.64-.63.36-.08.76.29.78.29l-.33-1.97s-.46.29-.83.37c-.38.08-.43-.18-.81-.08-.38.1-.31.37-.68.46-.37.11-.46-.21-.83-.09-.37.12-.08.62-.44.76-.35.14-.55-.02-.9.13-.35.15-.38-.01-.73.15-.35.17-.29.41-.63.58-.34.19-.55-.19-.9,0-.34.21-.1.57-.43.78-.32.21-.4.09-.72.31-.31.23-.43.07-.74.31-.31.24.04.61-.25.85-.29.24-.58-.05-.87.2-.28.24-.16.39-.43.62-.28.25-.58.06-.79.25l1.33,1.5c.2-.18,0-.35.27-.59.28-.24.39-.13.67-.37Z"/>
      <path d="M15.51,33.37c.12-.34-.22-.39-.08-.72.14-.34.51-.41.65-.74.16-.32.03-.38.19-.7.16-.32.42-.2.6-.51.17-.31-.01-.51.16-.82.17-.31-.41-.53-.21-.84.2-.31.79,0,.98-.29.19-.3.11-.47.31-.76.21-.29.51.09.72-.19.21-.28-.11-.55.12-.83.23-.27.27-.24.51-.51.24-.26.5-.05.74-.3.25-.25-.06-.63.2-.89.27-.24.81-.14.82-.16l-1.33-1.5s-.24.48-.52.75c-.27.27-.44.1-.72.38-.27.28-.08.46-.33.75-.25.29-.5.07-.75.37-.25.3.26.57.03.86-.23.3-.46.28-.68.59-.22.31-.34.18-.54.5-.21.33-.03.49-.24.81-.21.32-.57.11-.76.45-.19.34.2.54.01.88-.18.33-.3.27-.47.62-.17.34-.34.26-.51.61-.15.36.33.52.19.87-.14.35-.55.23-.68.59-.13.36.05.43-.08.78-.13.36-.48.34-.56.62l1.9.61c.08-.26-.19-.31-.06-.65.12-.34.27-.29.39-.62Z"/>
      <path d="M13.31,44.8c.02-.36-.33-.3-.31-.66.02-.36.35-.55.38-.91.04-.36-.1-.37-.05-.74.04-.37.35-.34.4-.7.04-.36-.2-.48-.15-.85.05-.36-.57-.34-.52-.71.06-.37.73-.31.79-.67.06-.36-.11-.48-.04-.84.07-.36.5-.14.57-.5.07-.36-.35-.45-.27-.81.08-.36.13-.34.21-.7.09-.35.41-.29.5-.64.1-.35-.37-.53-.26-.88.11-.35.62-.54.62-.56l-1.9-.61s.05.54-.06.9c-.1.37-.34.3-.44.67-.1.37.17.44.08.81-.08.37-.41.29-.49.66-.08.37.5.38.43.75-.07.37-.29.45-.36.82-.07.37-.21.3-.27.67-.06.37.17.45.11.82-.05.37-.48.32-.53.69-.05.37.38.42.33.79-.05.37-.19.35-.23.72-.05.37-.23.35-.27.74-.04.38.48.39.45.76-.03.38-.43.39-.45.77-.01.38.18.39.18.77,0,.38-.33.48-.33.77l2-.04c0-.27-.26-.23-.27-.59,0-.36.16-.35.17-.71Z"/>
      <path d="M16.61,54.45c-.22-.06-.28.29-.56.17-.13-.07-.19-.19-.22-.32-.04-.13-.02-.21-.13-.35-.21-.25-.32-.16-.53-.43-.19-.28.06-.46-.12-.73-.16-.29-.43-.23-.59-.53-.14-.31-.65.04-.8-.29-.14-.34.48-.63.36-.95-.11-.32-.3-.36-.4-.7-.1-.34.39-.33.32-.67-.08-.33-.51-.25-.57-.61-.06-.35-.01-.36-.05-.71-.04-.36.27-.41.24-.76-.03-.35-.52-.36-.54-.73-.02-.36.4-.71.4-.73l-2,.04s.22.49.24.88c.02.38-.22.4-.19.79.03.39.32.36.36.74.04.38-.27.43-.21.82.07.39.61.16.69.54.09.37-.09.54.02.92.11.37-.06.38.07.75.14.38.37.34.52.7.16.36-.23.55-.05.92.2.36.58.14.77.49.22.33.1.41.33.75.25.32.11.43.38.76.32.34.67-.03,1.01.2.37.21.26.6.74.75.5.1.52-.09,1.02-.12.49-.08.79.16,1.23-.15l-1.25-1.56s.11.26-.07.31c-.21.03-.21-.13-.42-.16Z"/>
      <path d="M21.97,45.23c-.25.3.07.45-.17.75-.23.3-.62.3-.84.61-.22.31-.11.39-.32.7-.21.31-.47.15-.68.47-.2.32-.03.53-.24.86-.2.35.38.54.2.88-.18.33-.8.09-.96.46-.16.37-.02.53-.15.89-.12.37-.52.09-.64.47-.11.37.31.5.2.86-.1.35-.15.34-.26.68-.11.33-.42.24-.54.53-.12.28.29.53.12.82-.08.13-.28.23-.4.21-.11-.03-.19-.11-.19-.11l1.25,1.56s.17-.21.3-.45c.07-.19.17-.41.27-.6.21-.37.43-.27.6-.66.16-.4-.1-.49.02-.87.11-.37.43-.27.54-.63.1-.35-.48-.41-.38-.76.11-.35.33-.39.45-.72.12-.33.25-.23.38-.54.14-.3-.07-.45.1-.76.16-.31.54-.09.71-.38.2-.31-.18-.54.02-.84.2-.3.32-.23.52-.53.2-.3.36-.19.57-.48.21-.29-.22-.56,0-.85.22-.29.56-.07.79-.34.22-.27.08-.4.32-.67.24-.27.55-.1.73-.3l-1.45-1.37c-.2.21.02.36-.24.65-.26.29-.37.18-.62.48Z"/>
      <path d="M29.33,36.09c-.16.32.17.41-.01.73-.18.32-.55.35-.73.66-.19.3-.08.37-.27.68-.2.3-.45.15-.65.44-.21.29-.05.51-.26.8-.21.29.35.57.12.86-.23.29-.79-.09-1.01.19-.22.28-.14.47-.38.73-.24.27-.5-.14-.74.12-.24.26.08.57-.18.83-.26.26-.3.23-.56.49-.26.26-.51.05-.77.31-.26.27.04.64-.22.91-.26.26-.82.23-.83.24l1.45,1.37s.17-.48.43-.74c.26-.26.43-.09.69-.35.26-.26.07-.46.33-.73.26-.26.49-.03.76-.3.26-.27-.23-.59.02-.87.25-.28.48-.23.74-.52.26-.28.34-.15.58-.45.24-.3.08-.48.32-.78.24-.29.57-.05.8-.37.23-.31-.14-.56.08-.87.22-.31.33-.24.54-.56.2-.32.37-.22.57-.55.19-.33-.27-.56-.08-.89.18-.33.57-.16.74-.5.17-.34,0-.43.17-.77.18-.34.51-.28.64-.54l-1.81-.85c-.12.24.15.33-.02.65-.17.32-.3.25-.47.57Z"/>
      <g>
        <path d="M88.04,52.6c-.04.18-.08.36-.13.54l-.07.28-.08.29-.04.14-.05.14-.09.28-.11.27-.06.13-.07.13-.07.12-.07.11c-.05.06-.1.12-.15.19l-.08.09-.08.08-.16.14-.08.07-.09.06-.18.12-.2.12-.05.03h-.01s-.01.02-.01.02h-.03s-.12.08-.12.08l-.06.03-.07.02-.15.05h0s0,0,0,0h0s0,0,0,0h0s0,0,0,0h-.02s-.04.01-.04.01l-.08.02-.17.04c-.21.04-.43.09-.65.13-.1.02-.21.04-.31.05-.1.01-.2.03-.29.04-.09,0-.18.02-.27.03h-.12s-.11,0-.11,0c-.07,0-.13,0-.19-.01l-.17-.02-.28-.05c-.09-.02-.18-.03-.27-.05h-.07s0-.01,0-.01h0s.03,0,.03,0h.02s.02-.02.02-.02l.02-.02.02-.02v-.02s.02-.02.02-.02v-.02s0,0,0,0h0s0,0,0,0h0s-.02.04-.02.04c-.03.05-.05.1-.08.16l-.04.08-.02.03h-.01s0,.02,0,.02h0c-.03-.1-.05-.18-.08-.27-.05-.19-.1-.4-.16-.61-.05-.21-.11-.42-.16-.62-.03-.09-.05-.19-.08-.27-.03-.08-.05-.15-.08-.22l-.04-.09-.04-.08-.04-.07-.04-.06-.08-.11-.08-.1-.08-.1-.08-.12-.04-.07-.04-.08-.04-.09-.04-.1c-.03-.07-.05-.15-.08-.23l-.04-.12-.04-.17-.07-.24-.08-.25c-.06-.17-.12-.34-.18-.5-.07-.16-.13-.32-.19-.46-.03-.07-.06-.14-.08-.2-.02-.07-.04-.13-.07-.19-.04-.12-.07-.24-.11-.36l-.05-.18-.06-.18c-.03-.06-.05-.13-.08-.19-.03-.06-.07-.13-.1-.2l-.06-.1-.06-.1-.07-.09-.07-.09c-.05-.06-.1-.11-.15-.17l-.16-.17-.16-.17c-.06-.06-.11-.12-.16-.18-.06-.07-.11-.13-.16-.19l-.08-.11-.08-.11.83-.56.42-.28.42-.28c.05.08.09.14.12.2.03.06.06.11.09.16.03.05.05.09.08.14.03.05.05.09.09.14.03.05.06.1.09.15.02.05.05.1.08.16.02.05.04.11.07.17.02.06.05.12.07.18.03.06.06.13.08.2.03.07.07.14.1.22.04.08.08.16.13.26.05.09.1.18.17.29.05.1.13.24.22.4.04.08.09.17.13.26.04.09.09.19.13.28.09.19.17.38.25.55l.05.12.02.06h0s0,.02,0,.02h0s0,0,0,0l3.06,2.73h0s0,0,0,0h.01s.04-.04.04-.04l.04-.03.03-.04.03-.04.06-.09.06-.09.05-.1c.03-.07.06-.14.09-.21l.04-.1.03-.11c.04-.14.08-.28.11-.4.02-.06.03-.12.05-.17.02-.05.03-.1.05-.15l.02-.07.02-.07s.02-.1.02-.15c0-.05,0-.1.01-.16,0-.05,0-.11,0-.16,0-.11,0-.22,0-.33,0-.06,0-.11,0-.16,0-.05.01-.11.02-.16,0-.05.02-.1.03-.17,0-.07.02-.14.03-.22.02-.16.04-.33.05-.46l.5.06.5.06.99.11c0,.07-.02.14-.03.22-.01.07-.03.15-.04.23-.02.08-.03.16-.05.25-.02.08-.04.17-.06.25-.09.35-.18.71-.26,1.04Z"/>
        <path class="st0" d="M82.59,49.57c-.81-1.83-.78-1.77-1.21-2.75h0s0,0,0,0h0s0,0,0,0h-.01s-.03.03-.03.03l-.05.03-.1.07-.21.14-.42.28-.83.56-1.66,1.11.26.4.25.41.23.42.21.42.2.43.18.43.16.44.14.44.92,4.17,1.89,8.58,2.01-8.55c-.03.11-.06.24-.12.38-.06.13-.14.27-.25.41-.1.13-.23.26-.37.36-.14.1-.29.19-.43.24-.14.06-.28.1-.41.12-.18.03-.08.01-.12.02h0s.04,0,.04,0h.07s.14-.02.14-.02l.28-.03.57-.07,1.16-.17.3-.05.51-.11h.07s.03-.02.03-.02h.03s.13-.05.13-.05l.13-.04h.02s0-.02,0-.02h0s.03-.02.03-.02l.06-.03.25-.1.23-.14.11-.07.05-.04.05-.04.21-.18.05-.05.05-.05.09-.1.18-.2.04-.05.04-.05.08-.11.15-.23.07-.11.06-.11.11-.2.09-.18.08-.17.08-.17.07-.17.13-.33.11-.32.05-.16.04-.16.09-.31.15-.61.12-.6.1-.6.09-.59.07-.59-1.99-.22-.99-.11-.5-.06-.25-.03h-.12s-.06-.02-.06-.02h-.03s-.02,0-.02,0h0s-2.92-.7-2.92-.7Z"/>
      </g>
      <g>
        <path d="M31.37,19.81h.01s.01,0,.01,0h.03s.06,0,.06,0h.03s.03,0,.03,0h.01s.01,0,.01,0h.01s.01-.02.01-.02h.01s0-.03,0-.03v-.04s.03-.11.03-.11l.02-.11v-.05s.02-.02.02-.02v-.02s.02-.01.02-.01h.01s0-.01.01-.02c0,0,0,0,.01,0h.03s.03,0,.03,0h.03s.02,0,.02,0c0,0,.01,0,.01,0,0,0,.01,0,.01,0h.01s.01-.02.01-.02v-.02s.02-.04.02-.04v-.04s.03-.08.03-.08l.02-.09s.02-.06.02-.09v-.05s.03,0,.03,0h.02s.03-.02.03-.02l.03-.02.03-.02.03-.02h.02s.02-.01.02-.01h.02s.02,0,.02,0h.02s.02.01.02.01l.05.02.1.05.1.05.04.02h.02s.02,0,.02,0h.07s.07,0,.07,0c.05,0,.09-.01.13-.02h.01s0,0,0,0h0s0-.02,0-.02v-.02s0-.03,0-.03v-.03s0-.03,0-.03h0s0-.02,0-.02h0s.01-.02.01-.02h0s0,0,0,0h.02s.04.01.04.01c.03.01.07.03.11.04l.06.02h.05s.02.02.02.02h.02s.02,0,.02,0h0s0,0,0,0l-.7-.72-.35-.36-.35-.36h0s0,.02,0,.02v.02s-.01.02-.01.02h0s0,.01,0,.01h0s0,0,0,0h0s0,.02,0,.02h0s0,.05,0,.07v.03s0,0,0,.01c0,0,0,0,0,.01,0,0,0,0-.01.01h-.01s-.02.02-.02.02h-.02s-.04,0-.06.01c-.02,0-.05.01-.08.02-.03,0-.06.01-.08.02h-.02s0,0,0,0h0s0,0,0,0h0s-.18.13-.18.13h0s0,0,0,0h0s0,.03,0,.05v.03s-.02.03-.02.03v.02s-.02.02-.02.02h-.01s-.01.02-.01.02h-.01s-.01.01-.01.01h-.05s-.01.01-.01.01h0s0,.01,0,.01h0s0,.02,0,.02h0s0,0,0,0h0s0,0,0,0l-.02-.02-.02-.02-.05-.04h-.01s-.01-.01-.01-.01h0s0,0,0,0h0s0,0,0,0h-.01s-.03,0-.03,0c-.02,0-.04,0-.05,0l.08.49.08.49.16.99h.01s.01,0,.01,0l.02-.02.04-.05.04-.05.02-.02.02-.02Z"/>
        <path class="st0" d="M30.77,16.97c.27-.17.26-.16.41-.25h0s0,0,0,0h0s0,0,0,0h.01s.02.03.02.03l.04.04.09.09.17.18.35.36.7.72,1.4,1.43-.26.26-.08.09-.02.02h0s0-.02,0-.02l-.51.79-.93.12-.85.13-.33-1.97-.16-.99-.08-.49-.04-.25-.02-.12v-.06s-.02-.03-.02-.03v-.02s0,0,0,0h0s0,0,0,0h0s.04-.03.07-.05Z"/>
      </g>
      <g>
        <path d="M36.17,32.85l-.12-.14-.12-.15-.23-.32c-.08-.11-.15-.21-.23-.32l-.11-.15-.12-.14-.11-.11-.06-.05-.05-.04-.11-.07-.11-.06-.11-.06-.11-.07-.11-.08-.06-.05-.06-.06-.06-.06-.06-.07c-.04-.05-.07-.11-.11-.16-.07-.12-.15-.24-.23-.37-.08-.13-.15-.25-.22-.36-.04-.05-.07-.11-.11-.16l-.05-.07-.05-.06-.1-.1-.09-.08-.16-.13-.16-.13-.08-.07-.09-.09-.05-.05-.02-.02h-.01s0-.01,0-.01h0c-.02.07-.04.13-.05.2-.03.14-.07.29-.11.44l-.06.23c-.02.07-.04.15-.06.22-.02.07-.04.13-.07.19l-.03.08-.03.07-.04.06-.04.06-.04.05-.04.04-.08.07-.08.06-.08.06-.08.08-.04.05-.04.05-.04.06-.04.07c-.19.42-.46.99-.65,1.41-.02.06-.05.1-.07.15-.02.05-.03.1-.05.14l-.04.14-.03.14-.06.28-.05.15s-.04.1-.07.16l-.04.08-.04.08s-.06.09-.1.14c-.07.08-.15.18-.22.27l-.12.14-.12.14-.06.08-.05.08-.05.09-.05.09.91.42.45.21.45.21c.02-.06.05-.11.06-.15.02-.04.03-.08.04-.12.01-.04.03-.07.04-.11.02-.03.03-.07.05-.11l.03-.06.02-.06.02-.06.02-.06c.02-.08.04-.17.06-.26l.04-.15c.02-.05.04-.11.06-.17.02-.06.05-.12.08-.19.03-.06.07-.13.11-.21.02-.03.04-.08.07-.12.02-.05.05-.1.08-.16.06-.12.12-.25.19-.38.07-.13.13-.26.19-.38l.04-.08.02-.04h0s0-.01,0-.01h0s0,0,0,0c.55-.08.53-.08.82-.12h0s0,0,0,0h.01s.04.03.04.03l.04.02.08.05.07.06s.09.09.14.13c.04.05.08.09.12.14l.12.14c.07.09.14.18.21.26.03.04.06.08.09.11.03.03.06.06.08.09l.04.04.04.05s.04.06.07.1c.02.03.04.07.06.11l.06.11c.04.08.08.16.12.23.02.04.05.07.07.11l.04.05.04.05c.09.11.29.35.42.52l.38-.32.38-.32.77-.64s-.07-.07-.1-.11c-.04-.04-.07-.08-.11-.12-.08-.08-.17-.16-.25-.24l-.26-.26c-.09-.09-.17-.18-.25-.26Z"/>
        <path class="st0" d="M33.71,36.04c-.78.07-.76.06-1.17.1h0s0,0,0,0h0s0,0,0,0h-.01s-.03-.02-.03-.02l-.06-.03-.11-.05-.23-.11-.45-.21-.91-.42-1.81-.85.31-.68.29-.69.07-.17.07-.17.13-.35.13-.35.12-.35.12-.35.11-.35.11-.35.1-.35.18-.71.14-.65,1.04-6.31,2.74,5.78.13.26.17.31.37.62.4.62.42.62.44.61.46.6.47.59.48.59-1.53,1.29-.77.64-.38.32-.19.16-.1.08-.05.04-.02.02h-.01s0,.02,0,.02h0s0,0,0,0h0c-.77.18-.74.17-1.15.27Z"/>
      </g>
    </g>
  </g>
  <path class="st2" d="M16.88,56.94c-1.08-.52-2.74-.79-3.96,0-1.98,1.29-1.91,4.86-.91,7.13,1.52,3.46,5.94,5.64,7.7,4.48,2.31-1.52,1.31-9.64-2.83-11.61Z"/>
  <path class="st2" d="M83.3,56.94c1.08-.52,2.74-.79,3.96,0,1.98,1.29,1.91,4.86.91,7.13-1.52,3.46-5.94,5.64-7.7,4.48-2.31-1.52-1.31-9.64,2.83-11.61Z"/>
  <g>
    <path d="M84.07,56.69c-.05-.14-.14-.29-.24-.41-.11-.12-.26-.23-.42-.3-.16-.07-.34-.09-.51-.05-.18.03-.37.09-.51.25-.13.15-.22.37-.26.58l1.97.37c.03-.15.02-.29-.02-.43Z"/>
    <path d="M82.9,67.73c.07-.38-.27-.36-.2-.73.07-.37.41-.54.47-.92.06-.38-.07-.4-.02-.78.05-.38.36-.34.41-.72.05-.38-.2-.5-.16-.88.04-.38-.58-.32-.54-.7.03-.37.71-.37.74-.74.03-.38-.15-.48-.12-.86.03-.38.48-.21.51-.59.03-.38-.41-.41-.39-.79.02-.38.08-.37.1-.75.02-.39.34-.4.35-.77.01-.36-.47-.43-.45-.78.03-.36.51-.6.51-.6l-1.97-.37s.11.59.09.98c-.02.4-.27.39-.28.77,0,.37.27.38.25.74-.02.36-.35.34-.37.71-.02.37.56.29.53.66-.02.37-.23.47-.26.84-.03.37-.18.31-.21.68-.03.37.2.43.17.8-.04.37-.46.33-.5.7-.04.36.39.41.35.77-.05.37-.19.35-.24.71-.05.36-.24.34-.3.7-.06.36.45.41.39.77-.07.36-.47.32-.54.68-.02.1-.02.17,0,.24l.02.4c.07.07.19.1.2.27,0,.26-.36.25-.41.43l1.91.58c.09-.35-.15-.36-.1-.86,0-.45.11-.53.04-.92l.02.43s.02-.06.03-.11Z"/>
    <path d="M78.84,79.29c.22-.33-.12-.44.08-.77.2-.33.58-.37.77-.72.19-.34.06-.41.24-.75.17-.35.45-.22.61-.58.16-.36-.04-.55.11-.9.14-.36-.47-.47-.33-.82.13-.35.78-.17.9-.54.12-.36-.02-.51.09-.87.11-.36.52-.1.63-.47.11-.37-.31-.5-.21-.86.1-.37.15-.35.25-.72.09-.37.41-.31.5-.68.07-.27-.38-.45-.25-.79.13-.32.68-.57.68-.61l-1.91-.58s.02.11.02.26c0,.15-.03.36-.1.55-.14.36-.4.35-.49.75-.09.36.18.42.09.78-.09.36-.41.26-.51.62-.1.35.49.4.38.75-.1.35-.33.4-.44.75-.11.34-.24.26-.36.6-.12.34.09.46-.03.8-.13.34-.53.19-.67.52-.14.33.27.49.12.83-.15.33-.28.27-.44.59-.16.32-.33.24-.5.55-.17.31.29.53.11.85-.19.31-.56.13-.74.43-.2.29-.03.41-.24.7-.21.29-.53.17-.69.38l1.59,1.21c.18-.23-.06-.36.17-.68.23-.31.35-.23.57-.55Z"/>
    <path d="M69.4,87.28c.34-.17.11-.44.45-.61.34-.17.68-.01,1.01-.2.34-.18.27-.31.6-.5.33-.19.5.06.83-.15.33-.21.26-.48.58-.69.32-.22-.13-.66.18-.87.3-.22.75.28,1.05.04.3-.24.26-.44.56-.69.29-.25.49.2.79-.07.29-.27,0-.58.28-.85.28-.27.32-.23.59-.51.27-.28.52-.07.79-.36.27-.29-.07-.65.18-.95.25-.29.8-.32.82-.34l-1.59-1.21s-.11.5-.35.77c-.23.28-.42.11-.65.37-.23.26-.04.45-.29.71-.25.26-.48.01-.74.26-.25.25.21.59-.06.83-.27.25-.49.16-.76.4-.28.23-.34.08-.62.3-.29.22-.17.43-.47.65-.3.21-.55-.13-.84.07-.3.19-.05.56-.36.76-.31.19-.38.07-.7.26-.31.18-.4.02-.72.2-.32.17-.04.61-.37.78-.33.17-.55-.17-.87,0-.33.16-.24.34-.57.5-.33.16-.56-.11-.8,0l.83,1.82c.26-.12.12-.34.46-.51.35-.16.41-.03.75-.2Z"/>
    <path d="M57.68,90.95c.38-.06.24-.38.62-.44.37-.06.65.2,1.02.14.38-.07.35-.21.73-.28.37-.08.45.22.82.14.38-.08.4-.36.77-.45.37-.09.1-.66.47-.75.36-.09.59.53.96.42.37-.11.4-.31.76-.43.36-.11.38.37.74.24.36-.13.23-.53.59-.67.36-.13.38-.08.73-.21.35-.14.49.16.85.01.36-.15.22-.61.57-.76.35-.15.85.09.87.08l-.83-1.82s-.34.38-.68.53c-.34.14-.43-.09-.77.05-.34.13-.24.39-.58.52-.34.13-.45-.19-.79-.06-.34.12-.05.63-.39.75-.35.12-.52-.03-.87.07-.35.11-.35-.05-.7.05-.35.1-.32.35-.68.44-.36.09-.47-.31-.82-.23-.35.08-.24.51-.6.59-.36.08-.39-.06-.75.01-.36.07-.4-.11-.75-.05-.36.06-.23.56-.6.62-.37.06-.47-.34-.83-.28-.36.05-.34.25-.7.3-.37.05-.5-.27-.77-.24l.25,1.98c.28-.04.21-.29.59-.34.38-.05.39.1.77.05Z"/>
    <path d="M45.44,91.31c.38.04.33-.31.71-.28.38.03.58.35.96.38.38.02.39-.11.77-.1.38.02.38.32.76.33.38,0,.48-.25.86-.24.38,0,.27-.61.64-.61.37,0,.43.67.81.66.38,0,.47-.2.84-.21.38-.01.26.46.64.44.38-.02.37-.45.75-.48.38-.02.38.03.76,0,.38-.03.43.29.81.26.38-.04.38-.52.76-.56.37-.04.78.34.8.34l-.25-1.98s-.45.26-.81.3c-.37.04-.39-.21-.75-.18-.36.03-.34.31-.71.34-.37.03-.38-.3-.75-.28-.36.02-.22.59-.59.61-.37.02-.49-.18-.86-.17-.37,0-.33-.14-.69-.14-.37,0-.41.25-.78.25-.37,0-.38-.43-.74-.43-.36,0-.37.43-.73.42-.37-.01-.36-.16-.73-.17-.37-.02-.36-.21-.72-.23-.36-.02-.36.49-.73.46-.37-.03-.37-.44-.74-.47-.36-.04-.38.16-.75.12-.37-.04-.42-.39-.69-.42l-.25,1.98c.28.03.28-.23.66-.19.38.04.36.19.74.23Z"/>
    <path d="M33.52,88.41c.36.15.4-.2.76-.06.35.14.45.51.81.64.36.13.41,0,.77.13.36.13.27.42.64.54.37.12.53-.11.9,0,.37.11.42-.51.78-.41.36.1.24.76.61.85.37.09.5-.07.87.02.37.08.14.51.51.59.38.08.47-.35.84-.27.37.07.36.12.74.19.37.07.34.39.72.45.38.06.5-.41.88-.36.37.05.67.52.7.53l.25-1.98s-.5.14-.86.09c-.36-.06-.32-.3-.68-.36-.36-.06-.41.21-.77.15-.36-.07-.29-.39-.65-.46-.35-.07-.36.51-.72.44-.36-.08-.43-.3-.78-.38-.35-.09-.28-.22-.63-.31-.35-.09-.46.13-.81.03-.35-.1-.24-.51-.59-.61-.35-.11-.47.32-.82.2-.35-.11-.3-.25-.65-.37-.35-.12-.28-.3-.62-.42-.34-.13-.49.37-.83.23-.34-.13-.23-.52-.56-.66-.34-.14-.41.04-.75-.11-.34-.15-.28-.49-.53-.61l-.83,1.82c.26.12.33-.13.68.02.35.15.28.3.64.44Z"/>
    <path d="M23.25,81.56c.26.29.45,0,.72.27.27.27.21.66.49.92.28.27.38.17.66.43.29.25.09.49.39.75.3.25.54.11.84.35.31.23.58-.32.88-.1.3.22-.03.8.29,1.02.32.21.5.11.82.31.32.2-.03.52.3.73.34.2.56-.18.89.01.33.19.31.23.65.41.34.18.21.48.55.65.34.17.6-.24.95-.07.34.16.48.7.5.71l.83-1.82s-.52,0-.85-.17c-.33-.16-.22-.38-.54-.54-.32-.17-.45.08-.78-.09-.32-.17-.16-.46-.47-.64-.31-.18-.5.37-.82.19-.31-.19-.31-.42-.61-.61-.3-.2-.19-.3-.48-.5-.3-.2-.47-.03-.76-.24-.29-.22-.04-.56-.32-.78-.28-.22-.55.13-.83-.11-.28-.23-.18-.35-.45-.58-.27-.24-.14-.38-.4-.63-.26-.25-.59.14-.85-.12-.25-.26.01-.57-.23-.83-.24-.26-.39-.14-.62-.41-.23-.28-.02-.56-.19-.77l-1.58,1.23c.18.23.37.04.61.34.26.29.13.4.39.69Z"/>
    <path d="M17.93,70.42c.09.37.4.2.5.57.1.37-.14.66-.04,1.03.1.37.24.33.34.7.11.36-.18.47-.06.83.12.37.4.37.52.73.13.36.66.04.8.39.13.35-.47.64-.32,1,.15.36.35.37.51.72.16.35-.32.42-.15.78.17.36.57.17.75.51.19.34.14.37.34.7.2.33-.06.52.15.86.22.33.65.11.87.42.22.31.11.86.12.88l1.58-1.23s-.45-.24-.65-.53c-.2-.29,0-.43-.19-.72-.19-.3-.43-.15-.61-.46-.18-.31.12-.47-.06-.77-.16-.31-.62.05-.79-.28-.16-.33-.02-.51-.17-.84-.14-.33.01-.35-.12-.69-.13-.34-.38-.29-.51-.63-.13-.34.27-.5.15-.84-.12-.34-.53-.19-.64-.54-.11-.35.03-.39-.08-.74-.1-.35.08-.4-.02-.76-.1-.35-.58-.18-.68-.54-.1-.36.29-.5.2-.85-.04-.18-.11-.26-.18-.33-.07-.09-.15-.2-.22-.4-.14-.38.14-.57.08-.78l-1.91.59c.11.33.35.2.48.54.12.34-.06.28.04.67Z"/>
    <path d="M16.41,58.34c.01.38.35.28.36.66.01.38-.29.62-.28,1.01.02.38.16.36.19.74.03.37-.27.41-.24.79.03.38.3.44.33.81.03.38.63.19.67.57.03.37-.62.5-.59.87.03.37.23.44.28.81.05.37-.43.29-.38.67.05.37.48.33.54.7.05.39,0,.44.09.82.08.36-.22.47-.17.74.02.13.14.17.26.24.12.08.23.09.21.38-.02.47-.28,1.02-.28,1.05l1.91-.59s-.3-.26-.27-.47c.04-.43.28-.53.22-.99-.08-.44-.36-.37-.44-.73-.08-.36.26-.34.21-.69-.05-.37-.61-.19-.66-.56-.05-.37.13-.51.08-.88-.05-.37.11-.34.07-.71-.03-.37-.28-.39-.31-.76-.03-.37.39-.42.36-.79-.03-.37-.47-.32-.5-.69-.03-.37.11-.38.08-.75-.03-.37.15-.39.13-.75-.01-.37-.52-.29-.53-.66-.01-.37.39-.43.38-.8-.01-.37-.21-.36-.22-.73,0-.15.04-.24.1-.34.09-.19.2-.36.13-.62l-1.94.49c.02.1.17.09.25.19.02.04.04.12.05.2.01.38-.14.38-.13.77Z"/>
    <path d="M16.45,56.23c-.12.14-.17.34-.2.52-.03.17-.04.33-.02.43h0s1.94-.49,1.94-.49h0c-.06-.25-.17-.43-.29-.53-.13-.1-.29-.15-.45-.18-.16-.03-.34-.04-.52,0-.18.03-.34.12-.46.25Z"/>
  </g>
  <g>
    <path d="M45.8,56.28c-.1.11-.18.25-.24.41-.06.15-.08.33-.07.51,0,.18.07.34.18.48.11.14.25.29.44.34.19.05.41.03.6-.03l-.55-1.92c-.15.04-.27.11-.37.22Z"/>
    <path d="M56.12,58.78c-.05-.33-.38-.19-.43-.65-.05-.44.23-.89-.1-1.29-.37-.33-.48-.19-.92-.34-.41-.12-.33-.38-.73-.53-.38-.14-.56.08-.93-.03-.38-.1-.41.52-.77.45-.36-.07-.31-.73-.71-.78-.39-.04-.5.14-.88.13-.38,0-.24-.47-.63-.46-.39.01-.38.45-.75.47-.37.03-.38-.02-.75.02-.37.05-.42-.29-.87-.2-.43.1-.34.58-.7.7-.18.06-.37,0-.52-.06-.15-.07-.25-.15-.26-.14l.55,1.92s.43-.35.75-.46c.32-.1.39.14.66.08.25-.05.26-.32.59-.36.34-.04.37.29.7.27.33-.02.2-.59.55-.6.35,0,.45.19.79.2.34.01.29.17.61.2.32.04.4-.2.73-.13.33.07.24.48.54.57.3.09.43-.33.74-.21.31.11.23.22.5.3.22.06.1.19.24.31.1.15.55-.16.59.12.01.14-.08.25-.17.34-.05.05-.09.09-.13.13-.03.07-.04.14-.03.24.06.37.25.34.34.71.08.38-.2.56-.11.85l1.9-.62c-.06-.23-.32-.12-.4-.44-.07-.33.07-.34.02-.68Z"/>
    <path d="M63.42,65.5c-.33-.07-.33.27-.67.2-.33-.1-.44-.44-.75-.56-.31-.12-.36.01-.68-.11-.31-.14-.19-.42-.48-.56-.29-.16-.49.04-.79-.13-.29-.18-.52.41-.82.22-.29-.21.04-.77-.22-.97-.26-.2-.44-.11-.7-.33-.26-.22.16-.49-.07-.7-.22-.22-.54.06-.76-.19-.2-.26-.16-.29-.35-.56-.18-.28.08-.46-.07-.73-.15-.27-.59-.1-.74-.41-.13-.32.17-.74.17-.76l-1.9.62s.36.43.53.78c.17.36-.06.47.14.83.2.36.45.21.66.54.23.32-.04.51.22.83.27.3.61-.16.88.11.27.27.21.5.51.75.29.26.17.34.47.58.31.24.49.05.81.27.32.2.11.57.45.77.34.18.54-.21.87-.03.35.16.29.29.64.45.36.14.29.31.66.45.37.13.49-.38.85-.27.36.11.3.5.67.59.38.09.41-.11.79-.05.37.06.42.41.72.43l.2-1.99c-.25-.03-.25.25-.59.19-.34-.06-.31-.2-.64-.27Z"/>
    <path d="M73.43,62.84c-.24.23.04.43-.22.65-.27.22-.61.1-.89.3-.27.2-.2.3-.49.48-.28.18-.45-.08-.73.07-.28.16-.24.42-.55.56-.31.13.03.67-.31.79-.34.12-.6-.48-.92-.39-.32.09-.35.31-.68.38-.34.07-.31-.41-.63-.34-.32.05-.26.48-.6.53-.34.04-.35-.02-.69.01-.34.03-.37-.31-.7-.3-.33.01-.38.48-.73.47-.35,0-.62-.48-.64-.48l-.2,1.99s.52-.15.9-.15c.38.01.38.27.77.26.39-.02.38-.28.76-.31.38-.04.41.3.8.26.39-.06.19-.61.55-.67.37-.07.52.09.9.01.37-.1.36.06.73-.05.37-.11.33-.37.69-.49.36-.12.52.25.89.09.36-.16.16-.56.49-.73.34-.18.41-.05.74-.26.33-.21.44-.05.75-.27.31-.23-.02-.61.27-.84.29-.24.58.05.87-.22.28-.27.15-.41.41-.69.26-.28.58-.14.77-.38l-1.57-1.24c-.15.19.07.33-.15.58-.23.24-.33.14-.57.36Z"/>
    <path d="M74.23,53.59c.21.27.44,0,.63.28.19.28.02.61.16.88.14.28.26.23.37.52.1.3-.19.39-.13.67.12.49.42.49.54.83.11.31.66,0,.75.34.06.35-.63.4-.65.48-.01.03,0,.06,0,.09v.05c.04-.06-.09.18-.09.28-.02.12,0,.19,0,.24.06.16.11.17.1.31-.03.28-.47.09-.53.38-.08.33.34.46.25.77-.1.31-.15.3-.27.6-.13.3-.43.18-.57.46-.15.27.25.56.07.84-.09.14-.28.21-.43.24-.16.03-.29.03-.3.03l1.57,1.24s.16-.53.36-.87c.21-.34.43-.21.62-.57.19-.37-.07-.49.08-.85.14-.37.45-.26.57-.65.11-.4-.48-.42-.39-.77.08-.37.32-.45.34-.95,0-.12,0-.21,0-.28,0-.05.02-.04.02.05,0,.04,0,.1-.02.19-.01.04-.03.09-.05.13,0,.02.01,0,.01,0,.09-.09.2-.18.29-.47.14-.61-.14-.69-.21-1.15-.11-.42.27-.58.14-.93-.12-.32-.52-.12-.6-.43-.09-.39.04-.43-.09-.82-.15-.38.02-.46-.16-.83-.19-.37-.62-.08-.82-.4-.2-.31.1-.59-.14-.9-.23-.3-.39-.18-.63-.47-.25-.29-.07-.58-.27-.8l-1.43,1.4c.17.18.34-.03.57.23.22.26.1.35.31.62Z"/>
    <path d="M64.72,49.64c.33-.02.24-.36.58-.37.35-.01.55.3.88.31.34.01.35-.12.69-.09.34.04.31.34.64.39.33.05.45-.19.79-.12.33.08.37-.54.72-.45.35.1.2.75.51.86.31.11.46-.03.77.1.31.14.01.51.31.65.29.14.5-.24.8-.07.29.17.27.22.55.4.28.19.11.47.37.66.25.19.59-.15.85.08.26.23.17.76.18.77l1.43-1.4s-.5-.22-.8-.47c-.3-.25-.14-.44-.46-.69-.32-.23-.48,0-.8-.22-.32-.21-.14-.49-.49-.69-.35-.19-.51.37-.85.2-.34-.16-.36-.4-.72-.54-.35-.14-.26-.27-.62-.4-.37-.12-.48.09-.85,0-.36-.1-.27-.51-.66-.6-.38-.08-.45.35-.82.3-.37-.06-.36-.2-.73-.24-.38-.03-.37-.22-.76-.24-.39-.02-.36.5-.73.5-.37.01-.43-.4-.82-.37-.39.04-.36.23-.74.28-.37.05-.52-.26-.82-.2l.4,1.96c.24-.04.16-.3.5-.35.34-.05.35.11.68.07Z"/>
    <path d="M56.41,55.35c.11-.29-.23-.35-.1-.66.14-.31.51-.32.68-.6.18-.28.06-.35.26-.63.2-.27.45-.09.65-.33.21-.24.07-.48.31-.71.24-.23-.26-.61.01-.84.27-.24.73.26.99.06.26-.2.23-.39.52-.58.29-.18.42.28.7.12.29-.15.09-.55.4-.69.31-.14.33-.09.65-.22.32-.13.45.17.76.07.31-.1.22-.58.55-.67.34-.09.74.27.75.26l-.4-1.96s-.45.3-.82.41c-.37.11-.44-.13-.81-.01-.37.13-.27.39-.63.53-.35.15-.48-.16-.84,0-.36.17.01.64-.32.81-.33.18-.53.07-.86.28-.32.22-.37.06-.68.29-.31.24-.2.45-.49.7-.28.25-.59-.05-.87.23-.28.29.05.58-.2.87-.25.29-.36.21-.59.52-.23.32-.38.21-.59.55-.2.34.25.56.08.9-.17.34-.56.21-.71.6-.14.39.05.45-.05.83-.07.28-.26.38-.38.54-.04.02-.07.05-.08.09l1.94.47c.03-.13.01-.22-.01-.3-.06-.09-.17-.17-.13-.37.07-.31.22-.26.32-.55Z"/>
    <path d="M55.33,57.38c.18,0,.37-.09.53-.23.16-.13.31-.33.37-.59h0s-1.94-.47-1.94-.47h0c-.02.08-.02.18.02.3.04.12.11.27.19.41.08.14.2.28.34.39.14.11.32.18.49.18Z"/>
  </g>
  <g>
    <path d="M46.02,58.01c-.07-.09-.14-.25-.23-.39-.08-.14-.21-.27-.37-.37-.15-.09-.33-.13-.52-.09-.19.04-.41.11-.58.37-.08.13-.14.3-.17.49-.02.16-.03.2-.04.31l2,.1c0-.11,0-.28-.02-.34-.02-.02-.05-.05-.08-.09Z"/>
    <path d="M36.58,67.36c.47-.07.31-.4.77-.49.45-.11.8.12,1.26-.02.46-.15.41-.28.85-.45.44-.19.58.09,1.02-.13.44-.23.41-.51.81-.76.4-.27-.06-.68.3-.95.36-.27.83.2,1.2-.12.36-.32.31-.54.63-.89.32-.35.55.08.87-.3.31-.39-.04-.66.23-1.05.25-.41.31-.38.53-.82.21-.44.52-.34.7-.82.17-.5-.28-.69-.18-1.16.09-.47.55-.9.55-.94l-2-.1s.18.51.09.9c-.09.38-.33.31-.45.67-.13.35.12.47-.06.83-.19.36-.47.18-.68.51-.22.32.32.56.06.9-.26.33-.51.3-.78.61-.29.29-.36.16-.66.43-.31.27-.19.49-.53.74-.34.25-.59-.1-.93.11-.34.21-.12.58-.49.78-.38.19-.44.05-.82.22-.39.15-.45-.02-.84.1-.39.12-.21.6-.63.71-.42.1-.55-.3-.95-.22-.41.07-.39.26-.81.3-.43.04-.55-.29-.86-.27l.09,2c.36-.02.3-.28.77-.31.47-.06.48.11.95.03Z"/>
    <path d="M23.46,61.15c.21.46.47.21.69.63.23.41.13.82.43,1.22.3.39.41.3.73.66.33.35.13.58.5.91.37.33.63.19,1.01.48.38.29.62-.31.99-.06.38.23.1.85.53,1.08.42.23.61.1,1.04.29.44.17.11.55.58.71.47.16.6-.26,1.06-.14.46.11.45.17.92.25.47.08.45.4.93.46.49.04.58-.43,1.04-.42.46.02.91.42.95.42l-.09-2s-.53.23-.96.21c-.42-.02-.4-.27-.81-.3-.41-.04-.45.23-.86.16-.41-.08-.33-.4-.72-.5-.39-.11-.43.49-.84.35-.41-.13-.46-.38-.84-.53-.38-.17-.27-.28-.63-.48-.36-.19-.52-.02-.88-.23-.35-.24-.12-.59-.44-.83-.32-.24-.59.1-.91-.18-.31-.28-.21-.39-.49-.68-.27-.31-.13-.43-.37-.74-.23-.32-.63,0-.86-.36-.21-.37.13-.59-.04-.95-.16-.36-.34-.29-.48-.68-.12-.38.17-.6.12-.84l-1.96.37c.1.42.32.27.47.75.15.46,0,.51.2.97Z"/>
    <path d="M33.12,47.87c-.45.05-.32.37-.75.43-.43.07-.75-.19-1.2-.08-.44.11-.41.24-.84.38-.43.14-.54-.14-.97.03-.43.18-.42.47-.82.67-.4.22.02.68-.35.9-.36.23-.78-.29-1.16-.03-.37.27-.33.48-.67.77-.33.29-.53-.16-.86.16-.34.33-.03.64-.33.97-.29.34-.34.31-.61.68-.26.37-.55.22-.8.63-.23.43.17.7-.01,1.11-.18.41-.71.7-.72.74l1.92.56s-.06-.52.1-.87c.16-.34.38-.23.56-.54.19-.31-.04-.47.18-.78.23-.31.49-.09.73-.37.25-.28-.24-.59.04-.87.29-.28.52-.22.82-.47.31-.25.37-.11.68-.34.31-.23.22-.45.56-.66.35-.2.56.17.9,0,.34-.17.15-.56.52-.72.37-.15.42-.01.79-.14.38-.12.43.06.8-.03.38-.09.23-.58.64-.65.4-.07.5.33.88.29.39-.03.38-.23.78-.25.4-.02.5.33.8.33l.05-2c-.34,0-.3.26-.74.26-.45.02-.45-.14-.9-.1Z"/>
    <path d="M45.36,54.31c-.19-.43-.46-.19-.67-.58-.21-.39-.1-.78-.37-1.17-.28-.37-.39-.29-.68-.64-.3-.34-.09-.56-.43-.89-.34-.32-.6-.19-.95-.48-.36-.28-.61.3-.96.05-.35-.24-.05-.83-.44-1.07-.4-.22-.58-.11-.98-.3-.41-.19-.07-.54-.5-.72-.43-.17-.59.24-1.01.1-.43-.13-.41-.19-.85-.29-.44-.1-.4-.42-.85-.5-.46-.07-.58.4-1.02.36-.43-.04-.84-.48-.87-.48l-.05,2s.52-.19.91-.15c.39.05.36.29.74.35.38.07.44-.21.82-.11.39.09.29.42.65.53.36.12.44-.46.82-.32.37.15.41.38.76.55.35.17.24.29.58.48.34.2.5.02.84.24.33.23.08.58.38.81.29.24.57-.1.86.18.28.28.18.38.44.66.25.29.1.41.33.71.21.31.62,0,.83.34.2.35-.14.57.02.92.15.34.34.29.46.63.11.36-.2.55-.11.87l1.93-.52c-.08-.29-.32-.19-.44-.63-.14-.46-.01-.51-.19-.94Z"/>
    <path d="M45.8,56.83c.1-.14.14-.3.18-.46.03-.15.05-.31,0-.49h0s-1.93.52-1.93.52h0c.06.21.16.44.31.6.15.16.36.27.55.3.18.03.37,0,.52-.1.15-.09.28-.23.37-.36Z"/>
    <g>
      <path d="M23.04,55.75v.06s-.03.07-.03.07l-.04.16-.02.07v.07s-.01.06-.01.06v.03s0,.03,0,.03v.02s.02.02.02.02l.02.02.02.02.04.04.05.04.05.04.05.04.02.02.02.02v.02s.02.02.02.02v.02s0,.02,0,.02v.02s0,.02,0,.02v.02s-.02.02-.02.02l-.02.03-.02.03-.02.03v.02s0,.02,0,.02v.02s0,.02,0,.02c.02.06.03.11.05.17l.02.09v.03s0,.01,0,.01h0s0,.07,0,.07v.03s0,.03,0,.03v.03s.02.03.02.03c.02.04.03.08.05.13l.03.06v.03s.02.03.02.03v.03s0,.03,0,.03v.03s0,.03,0,.03v.03s-.02.02-.02.02l-.02.02-.02.02-.04.04-.05.04-.09.07-.03.04v.02s-.02.02-.02.02c0,.03-.02.06-.03.1l-.03.11c-.02.08-.04.15-.05.22v.02s0,.02,0,.02v.02s0,.02,0,.02l.02.04.02.04.02.04.02.04v.02s.01.03.01.03v.03s0,.03,0,.03v.03s-.01.03-.01.03v.03s-.03.03-.03.03c-.03.04-.06.09-.09.13l-.04.07-.02.04-.02.04v.04s-.02.04-.02.04v.04s0,.02,0,.02v.02s.99-.19.99-.19l.49-.09.49-.09v-.02s-.01-.02-.01-.02v-.02s-.03-.02-.03-.02h0s0-.02,0-.03h0s0-.03,0-.03h0s-.01-.03-.01-.03c-.02-.02-.03-.04-.05-.06l-.02-.04v-.02s-.02-.02-.02-.02v-.03s0-.03,0-.03v-.03s.02-.04.02-.04c0-.01,0-.03.01-.04,0-.02,0-.04.01-.06,0-.04.02-.09.03-.14.01-.05.02-.1.03-.15v-.03s.01-.02.01-.02h0s0,0,0,0h0s.11-1.6.11-1.6h0s0,0,0,0h0s-.02-.02-.02-.02l-.02-.02-.02-.03-.02-.03v-.03s-.02-.03-.02-.03v-.03s-.01-.03-.01-.03v-.05s0-.05,0-.07v-.03s0-.02,0-.02v-.02s0-.02,0-.02v-.02s0-.02,0-.02h0s.03-.04.03-.04l.03-.03.03-.03.03-.03h.01s0-.03,0-.03v-.02s0-.02,0-.02c0,0,0-.02,0-.04l.02-.04s.02-.06.03-.09l-.48-.14-.48-.14-.96-.28v.05s-.01.06-.01.06v.06s0,.07,0,.07v.14s.02.07.02.07v.06Z"/>
      <path class="st0" d="M26.18,57.74c-.28.76-.28.73-.43,1.13h0s0,0,0,0h0s0,0,0,0h-.02s-.03,0-.03,0h-.06s-.12.04-.12.04l-.25.05-.49.09-.98.19-1.96.37-.03-.2-.02-.18-.03-.31-.04-.4-.02-.11h0s0,0,0,0h0s0,0,0,0h0s0,.02,0,.02v.02s.02.02.02.02l.02.02.02.02-1.18-1.59,1.58-1.2-.04.03-.04.04-.04.04-.04.05-.04.05-.03.05-.03.05-.02.05-.03.07v.04s-.01,0-.01,0h0s0,0,0,0h0s0,0,0,0h0s0,0,0,0v-.05s.04-.23.04-.23l.03-.18.04-.19.07-.31.08-.3,1.92.56.96.28.48.14.24.07.12.03.06.02h.03s.02.01.02.01h0s0,0,0,0h0s0,0,0,0c.18,1.11.17,1.08.27,1.67Z"/>
    </g>
  </g>
  <g>
    <path d="M16.56,56.49c.12-.13.19-.3.21-.47.02-.16-.02-.34-.09-.51-.07-.17-.18-.3-.29-.41-.12-.12-.24-.24-.37-.29-.12-.05-.25-.04-.37-.02l.44,1.95c.18-.04.35-.13.46-.25Z"/>
    <path d="M11.19,61.14c0-.27-.36-.2-.34-.49.01-.29.34-.42.38-.67.04-.26-.07-.29,0-.55.09-.26.37-.16.48-.39.11-.23-.1-.41.04-.65.14-.23-.42-.49-.24-.75.18-.26.73.13.9-.06.17-.18.09-.36.3-.53.21-.15.4.28.57.18.18-.09,0-.49.25-.57.24-.06.25,0,.48-.04.26-.02.2.32.58.33.37,0,.4-.48.74-.51.33-.03.75.32.78.31l-.44-1.95s-.28.27-.56.29c-.27.02-.28-.23-.54-.23-.12,0-.21.06-.33.13-.1.07-.2.14-.39.15-.38.05-.44-.28-.86-.16-.41.14-.08.63-.41.79-.32.17-.53.07-.82.31-.28.24-.35.1-.61.37-.25.28-.09.47-.28.74-.2.28-.55.06-.75.38-.17.33.21.51.07.83-.14.32-.27.27-.38.61-.09.35-.29.3-.35.66-.07.37.46.4.42.73-.01.33-.43.36-.42.73.02.36.21.34.26.68.05.34-.26.49-.2.75l1.95-.46c-.04-.2-.3-.12-.34-.4-.05-.28.12-.29.09-.56Z"/>
    <path d="M16.51,67.87c-.25-.09-.31.25-.58.14-.27-.11-.29-.48-.54-.61-.25-.14-.32-.02-.57-.17-.25-.15-.08-.42-.31-.57-.22-.17-.44,0-.66-.19-.22-.18-.56.32-.78.12-.22-.22.23-.71.04-.92-.19-.21-.37-.15-.55-.38-.17-.24.26-.42.11-.65-.15-.23-.52,0-.67-.26-.14-.26-.1-.28-.22-.54-.13-.26.17-.41.06-.67-.1-.26-.57-.13-.66-.41-.05-.14.02-.31.1-.43.08-.13.16-.22.16-.23l-1.95.46s.31.39.42.71c.11.32-.12.41,0,.73.14.32.39.21.53.52.15.3-.14.45.02.76.18.3.61-.08.79.2.18.28.08.48.29.75.21.26.06.33.3.59.23.26.44.12.67.35.25.23-.04.55.24.78.27.23.54-.13.8.07.28.19.19.32.48.49.29.18.2.34.5.51.31.16.5-.31.8-.17.3.13.18.52.52.65.35.11.4-.07.75,0,.35.07.42.41.73.42l.04-2c-.16,0-.16.26-.41.22-.25-.05-.21-.2-.46-.27Z"/>
    <path d="M17.99,68.36c-.09-.13-.2-.22-.3-.3-.1-.07-.19-.13-.3-.14h0l-.04,2h0c.2,0,.4-.04.55-.14.15-.11.26-.27.31-.43.05-.16.05-.34,0-.52-.04-.17-.13-.34-.21-.47Z"/>
  </g>
  <g>
    <path d="M84.64,54.64c-.14.04-.28.12-.41.23-.12.1-.22.25-.3.41-.08.16-.11.33-.1.5,0,.17.03.35.12.49.09.13.25.23.42.28l.65-1.89c-.12-.04-.25-.05-.39-.01Z"/>
    <path d="M90.88,61.38c.02-.36-.33-.29-.33-.63-.01-.33.27-.57.22-.93-.07-.35-.2-.32-.29-.66-.1-.33.19-.44.06-.78-.13-.34-.41-.31-.56-.61-.17-.3-.64.08-.81-.19-.17-.26.35-.69.12-.98-.24-.28-.44-.22-.71-.46-.29-.23.1-.52-.25-.76-.37-.21-.57.17-.92.04-.36-.11-.35-.17-.74-.23-.19-.03-.28-.1-.39-.19-.07-.08-.13-.17-.25-.18-.24-.03-.35.45-.62.39-.14-.03-.24-.17-.3-.3-.06-.13-.09-.25-.1-.26l-.65,1.89s.5-.05.85.02c.35.06.31.31.69.35.4.03.35-.27.6-.24.23.04.15.36.33.42.17.07.36-.48.59-.36.22.14.17.34.35.51.18.18.05.26.21.45.15.2.37.08.52.32.14.24-.23.46-.11.69.11.24.51.05.62.32.1.26-.04.31.03.57.07.26-.12.31-.07.56.03.25.54.17.56.46.02.29-.39.32-.4.58-.01.26.17.28.14.56-.05.28-.39.28-.44.47l1.94.47c.06-.26-.2-.28-.14-.62.05-.34.21-.32.23-.68Z"/>
    <path d="M84.33,69.59c.35-.12.15-.41.47-.53.3-.13.61.07.91-.09.3-.16.23-.28.52-.45.28-.18.46.07.75-.13.28-.21.19-.46.45-.68.26-.23-.23-.61,0-.83.23-.21.73.2.97-.05.22-.26.13-.44.33-.7.2-.27.5.1.7-.19.19-.29-.17-.53,0-.81.17-.29.21-.26.36-.56.15-.3.45-.17.59-.49.14-.33-.3-.54-.19-.86.1-.31.6-.51.6-.54l-1.94-.47s.12.39.02.66c-.09.26-.33.17-.43.42-.12.25.14.38,0,.63-.13.26-.42.1-.56.33-.14.24.39.46.24.71-.17.24-.38.21-.55.43-.17.23-.28.1-.45.31-.19.2-.03.4-.24.6-.21.2-.5-.12-.7.06-.21.16.07.52-.17.68-.23.17-.32.04-.55.2-.24.14-.34-.02-.58.11-.25.12,0,.57-.27.69-.27.12-.45-.25-.7-.16-.24.08-.19.27-.45.32-.26.05-.35-.29-.5-.28l.03,2c.31-.01.25-.27.62-.32.36-.07.4.08.75-.02Z"/>
    <path d="M82.12,69.35c.05.17.18.3.32.4.14.1.32.18.52.18h0l-.03-2h0c-.1,0-.21.03-.3.1-.1.08-.2.2-.29.33-.09.13-.17.29-.22.47-.05.17-.05.36,0,.52Z"/>
  </g>
  <g>
    <path d="M44.82,77.33c-.15,0-.32.05-.47.12-.14.08-.28.2-.38.35-.11.14-.16.31-.18.47-.02.17-.03.36.04.51.07.15.21.28.37.37l1.04-1.71c-.13-.07-.27-.12-.42-.12Z"/>
    <path d="M53.59,78.09c-.28.11-.09.41-.39.51-.3.11-.56-.14-.85-.07-.3.07-.27.2-.58.26-.31.05-.36-.25-.66-.22-.3.03-.36.3-.67.31-.31.01-.2.62-.53.62-.33,0-.37-.67-.67-.69-.31-.02-.4.16-.71.12-.31-.04-.13-.49-.43-.53-.29-.05-.39.37-.69.3-.3-.08-.29-.13-.58-.23-.29-.1-.2-.41-.47-.52-.27-.12-.51.3-.8.16-.14-.07-.22-.24-.27-.39-.04-.15-.05-.28-.06-.29l-1.04,1.71s.51.07.84.23c.32.16.22.38.57.53.35.14.45-.12.79,0,.34.11.25.42.61.52.36.08.38-.5.72-.43.34.06.43.28.78.32.35.04.3.19.66.21.36.02.41-.23.76-.22.35,0,.37.43.73.41.37-.02.32-.46.67-.49.35-.04.37.1.73.04.35-.07.39.12.75.03.36-.09.19-.58.52-.68.33-.12.51.26.85.12.34-.15.26-.32.58-.48.32-.16.56.08.81-.07l-1.05-1.7c-.19.11-.03.33-.3.47-.27.15-.34,0-.61.13Z"/>
    <path d="M55.37,77.5c-.15-.08-.31-.09-.46-.09-.15,0-.29.01-.41.09h0s1.05,1.7,1.05,1.7h0c.15-.1.28-.23.36-.38.07-.16.09-.34.06-.51-.02-.16-.09-.33-.2-.47-.11-.14-.25-.26-.4-.33Z"/>
  </g>
  <g>
    <path d="M83.09,56.61c.06-.08.12-.21.17-.36.05-.14.07-.32.09-.5.01-.18,0-.35-.04-.49-.04-.15-.09-.31-.17-.41-.08-.09-.19-.11-.3-.11l.05,2c.07,0,.14-.04.19-.13Z"/>
    <path d="M78.29,57.94c.19-.06.03-.37.21-.43.17-.06.38.19.54.13.16-.06.12-.19.27-.24.17-.06.23.25.42.19.18-.06.14-.32.31-.37.17-.06-.08-.62.09-.68.17-.06.41.57.57.51.16-.06.14-.24.31-.3.16-.05.24.41.4.36.15-.04.04-.47.2-.51.16-.04.17.01.33-.02.16-.03.23.28.37.26.14-.02.1-.5.26-.52.16-.01.32.41.32.41l-.05-2s-.26.22-.46.24c-.2.02-.23-.23-.44-.19-.2.03-.15.31-.34.35-.19.04-.26-.28-.46-.23-.19.05.02.59-.16.64-.18.05-.29-.12-.47-.07-.17.06-.2-.1-.37-.04-.17.06-.11.29-.28.35-.17.06-.31-.35-.47-.29-.16.05-.02.47-.19.52-.16.05-.22-.08-.4-.02-.18.06-.24-.12-.41-.05-.17.06.02.53-.14.59-.16.06-.32-.32-.47-.27-.15.05-.09.24-.24.28-.15.04-.26-.28-.36-.26l.39,1.96c.16-.04.08-.28.28-.34.19-.05.24.09.43.03Z"/>
    <path d="M77.03,57.82c.06.15.16.25.25.32.1.07.2.12.31.1h0s-.39-1.96-.39-1.96h0c-.06.01-.12.06-.16.15-.04.09-.07.24-.1.39-.02.15-.03.33-.02.51.01.18.05.36.1.5Z"/>
  </g>
  <g>
    <path d="M17.24,54.78c-.09.08-.17.21-.22.35-.05.14-.08.32-.1.5-.01.18,0,.35.02.5.03.15.06.32.11.41.05.09.13.13.2.14l.26-1.98c-.09-.01-.19.02-.28.09Z"/>
    <path d="M22.47,56.24c-.16-.05-.23.28-.4.23-.16-.06-.16-.38-.32-.44-.16-.06-.21.07-.37.01-.17-.06-.07-.35-.23-.41-.17-.06-.29.17-.46.11-.17-.06-.32.54-.48.48-.17-.06.02-.7-.15-.75-.17-.06-.27.11-.44.05-.17-.05.02-.48-.16-.53-.18-.05-.3.37-.48.32-.18-.05-.16-.1-.35-.14-.18-.04-.12-.36-.31-.4-.19-.04-.31.43-.49.4-.18-.03-.3-.48-.31-.48l-.26,1.98s.23-.18.39-.15c.16.03.11.27.27.31.16.03.22-.24.38-.2.16.04.08.36.23.4.16.04.26-.53.43-.48.16.05.16.25.32.3.16.05.1.19.26.24.16.05.26-.17.42-.11.16.06.03.46.19.52.16.06.3-.36.47-.3.16.06.12.19.28.25.17.06.1.24.27.3.17.06.32-.43.49-.37.17.06.06.45.23.51.17.06.24-.14.42-.1.18.04.13.37.28.4l.51-1.93c-.12-.02-.17.23-.33.2-.16-.04-.11-.18-.27-.22Z"/>
    <path d="M23.34,56.82c0-.15-.04-.27-.09-.37-.04-.09-.09-.17-.17-.19h0s-.51,1.93-.51,1.93h0c.09.02.19,0,.28-.06.09-.07.19-.19.26-.33.07-.13.13-.3.17-.48.04-.18.06-.36.05-.5Z"/>
  </g>
  <g>
    <path d="M49.87,59.81c-.09-.12-.24-.22-.39-.28-.15-.06-.33-.06-.51-.04-.18.02-.34.08-.48.15-.14.08-.3.16-.38.27-.08.11-.1.23-.1.35l2-.02c0-.16-.05-.32-.14-.44Z"/>
    <path d="M49.04,65.99c-.15-.03-.31.3-.51.25-.21-.07-.04-.38-.17-.46-.13-.1-.29,0-.4-.15-.09-.16.31-.31.3-.44.01-.13-.31-.14-.24-.3.08-.15-.67-.17-.51-.39.17-.22.86,0,.96-.13.05-.07.04-.13.04-.21.02-.11.04-.21.13-.34.17-.27.51.08.68-.23.17-.32-.23-.5-.11-.8.12-.3.17-.28.26-.59.09-.31.41-.25.47-.59.06-.34-.42-.44-.39-.75.02-.3.45-.6.45-.62l-2,.02s.21.32.18.58c-.03.25-.27.21-.31.44-.05.23.22.29.16.53-.07.24-.39.12-.47.33-.09.21.46.38.35.62-.12.23-.33.19-.47.39-.14.19-.28.13-.53.43-.26.33-.05.44-.24.74-.18.3-.64.27-.75.64-.08.38.37.33.37.67.04.34-.09.4.08.72.21.3.04.39.32.65.31.24.67-.13.97.01.3.12.1.49.49.6.39.09.46-.1.83-.07.36.02.41.36.61.37l.2-1.99c-.22-.01-.24.25-.46.24-.19,0-.14-.16-.3-.18Z"/>
    <path d="M50.42,66.46c-.05-.15-.15-.26-.26-.36-.1-.09-.23-.16-.37-.17h0s-.2,1.99-.2,1.99h0c.13,0,.27-.02.39-.1.12-.08.23-.22.32-.36.08-.14.14-.32.17-.49.02-.18,0-.36-.04-.51Z"/>
  </g>
  <g>
    <path d="M50.45,73.19c-.05-.04-.13-.07-.22-.1-.09-.03-.19-.04-.3-.05-.11,0-.21,0-.29,0-.09.01-.19.02-.24.05-.05.03-.07.07-.07.1l1.2.1s-.02-.08-.07-.11Z"/>
    <path d="M50.41,75.48c0-.08-.2-.06-.2-.14,0-.08.19-.12.19-.19,0-.08-.08-.08-.08-.16,0-.08.19-.07.19-.15,0-.08-.15-.1-.15-.18,0-.08-.37-.07-.36-.15,0-.08.4-.07.4-.15,0-.08-.11-.1-.11-.18,0-.08.28-.03.28-.11,0-.08-.26-.09-.26-.17,0-.08.03-.07.04-.15,0-.08.2-.07.2-.14,0-.08-.29-.11-.29-.19,0-.08.26-.13.26-.13l-1.2-.1s.12.11.12.19c0,.08-.15.07-.15.15,0,.08.16.09.16.17,0,.08-.2.06-.2.14,0,.08.34.08.34.15,0,.08-.12.1-.12.17,0,.08-.09.06-.09.14,0,.08.14.09.14.17,0,.08-.26.07-.26.15,0,.08.26.09.26.17,0,.08-.09.08-.09.15,0,.08-.12.07-.12.15,0,.08.3.08.3.16,0,.08-.25.08-.25.16,0,.08.11.08.11.16,0,.08-.2.09-.21.15l1.2.02c0-.06-.16-.05-.16-.13,0-.08.09-.07.1-.15Z"/>
    <path d="M50.17,75.94c.09-.02.16-.05.21-.08.05-.03.09-.06.09-.1h0s-1.2-.02-1.2-.02h0s.02.08.07.11c.05.03.14.06.23.08.09.02.19.03.3.03.11,0,.22,0,.3-.02Z"/>
  </g>
  <g>
    <path d="M57.4,73.15c-.05-.02-.13-.05-.22-.07-.09-.02-.19-.03-.3-.04-.11,0-.21,0-.29.01-.09.01-.19.03-.24.07-.05.03-.07.08-.07.12h1.2s-.02-.07-.07-.09Z"/>
    <path d="M58.03,74.88c-.04-.06-.2.06-.24,0-.04-.06.1-.19.07-.25-.03-.06-.1-.02-.14-.08-.03-.06.13-.15.1-.21-.03-.06-.18,0-.2-.06-.03-.06-.35.11-.38.05-.03-.07.34-.23.31-.29-.02-.06-.13-.03-.15-.09-.02-.06.25-.13.24-.18-.02-.05-.27.01-.28-.05-.01-.06.02-.07,0-.13,0-.06.18-.09.17-.15,0-.05-.3-.03-.3-.1,0-.07.25-.13.25-.13h-1.2s.13.13.13.21c0,.08-.14.1-.13.19.01.09.18.06.19.15.01.08-.18.12-.16.21.02.09.35-.03.37.05.02.08-.09.14-.06.22.03.08-.06.1-.03.18.03.08.17.03.2.1.03.07-.2.18-.16.26.04.07.27-.05.31.02.03.07-.04.11,0,.18.04.07-.06.12-.02.19.04.07.3-.09.34-.03.04.06-.17.2-.13.26.04.06.14,0,.18.07.04.06-.12.18-.09.23l1.02-.64s-.16.04-.2-.02c-.04-.06.04-.11,0-.17Z"/>
    <path d="M58.06,75.37c.07-.06.11-.12.14-.17.03-.05.04-.1.03-.13h0s-1.02.64-1.02.64h0s.06.05.11.05c.06,0,.14-.03.23-.06.08-.03.18-.08.27-.14.09-.06.18-.12.24-.18Z"/>
  </g>
  <g>
    <path d="M47.03,73.38c-.05-.04-.13-.07-.22-.09-.09-.02-.19-.02-.3-.02-.11,0-.21.01-.29.03-.09.01-.19.03-.24.05-.05.02-.07.04-.07.07l1.2.09s-.02-.09-.07-.12Z"/>
    <path d="M46.6,75.47c0-.06-.2-.08-.19-.14,0-.06.19-.07.2-.13,0-.06-.07-.08-.06-.14.01-.06.19-.02.21-.08.02-.06-.13-.12-.11-.18.02-.06-.34-.15-.32-.22.02-.07.41.04.43-.02.02-.07-.08-.12-.06-.19.02-.07.28.03.3-.04.02-.08-.23-.14-.21-.22.02-.07.05-.07.07-.14.02-.07.21-.04.23-.12.02-.08-.27-.14-.26-.22,0-.08.27-.13.27-.14l-1.2-.09s.12.08.11.14c0,.06-.16.03-.17.09-.01.05.15.09.14.15-.01.06-.21.01-.22.07-.02.06.32.13.3.2-.02.06-.14.05-.16.11-.02.06-.1.03-.13.1-.02.07.12.12.09.18-.02.07-.27,0-.29.07-.02.07.23.14.21.21-.02.07-.1.05-.12.12-.02.07-.13.05-.14.13-.01.08.29.13.28.2,0,.07-.25.04-.26.12,0,.08.11.09.1.17,0,.08-.21.08-.22.14l1.2.07s-.15-.05-.14-.11c0-.06.1-.05.11-.11Z"/>
    <path d="M46.32,75.83c.09-.01.16-.04.22-.06.05-.02.1-.05.1-.07h0s-1.2-.07-1.2-.07h0s.01.08.06.11c.05.03.13.06.22.08.09.02.19.03.3.03.11,0,.22,0,.31-.02Z"/>
  </g>
  <g>
    <path d="M53.81,73.43c-.06,0-.14,0-.23,0-.09.01-.19.04-.29.07-.1.03-.2.07-.28.11-.08.04-.17.08-.21.12-.04.04-.05.07-.04.1l1.15-.34s-.04-.05-.09-.06Z"/>
    <path d="M54.28,75.13s-.2.04-.21,0c-.02-.07.15-.16.13-.21-.02-.06-.09-.03-.11-.09-.02-.06.16-.11.15-.17-.02-.06-.17-.03-.18-.08-.02-.06-.36.07-.38,0-.02-.06.37-.18.35-.24-.02-.06-.13-.04-.14-.1-.02-.06.26-.12.24-.17-.02-.06-.27.02-.28-.04-.02-.06.02-.07,0-.12-.02-.06.17-.12.16-.17-.02-.06-.29.02-.31-.04-.02-.06.22-.19.22-.19l-1.15.34s.14.04.15.1c.02.06-.13.1-.11.16.02.06.17.01.19.07.02.06-.18.11-.16.17.02.06.34-.06.36,0,.02.06-.09.11-.08.17.02.06-.07.08-.06.13.02.06.16.02.17.08.02.06-.23.13-.21.19.02.06.27-.02.28.04.02.06-.07.08-.05.14.02.06-.09.09-.08.15.01.06.31-.03.32.02.01.05-.22.12-.2.21.04.11.13.06.23.2.12.14.16.38.38.4l.07-1.2c.12.02.09.17.18.24.06.06.13.02.14.04Z"/>
    <path d="M53.94,75.13c-.04-.08-.07-.14-.07-.19,0-.05.01-.1.09-.1h0s-.07,1.2-.07,1.2h0c.13,0,.22-.04.26-.1.05-.07.04-.16.03-.25-.01-.09-.05-.19-.1-.29-.05-.1-.1-.19-.14-.27Z"/>
  </g>
  <g>
    <path d="M43.62,73.26c-.05-.04-.13-.08-.22-.1-.09-.02-.19-.02-.3-.01-.11,0-.21.02-.29.04-.09.02-.19.03-.24.05-.05.02-.07.04-.07.06l1.2.11c0-.05-.01-.11-.07-.15Z"/>
    <path d="M42.73,75.58c.02-.05-.17-.12-.14-.19.03-.07.22-.02.26-.11.04-.09-.03-.12,0-.21.03-.08.2,0,.22-.05.02-.05-.11-.13-.08-.19.03-.06-.31-.21-.27-.27.04-.07.39.11.43.05.04-.07-.05-.14-.01-.21.04-.07.27.09.31.01.04-.08-.19-.2-.16-.27.04-.08.07-.07.1-.15.03-.08.22-.02.25-.12.03-.1-.25-.19-.23-.28.02-.09.28-.15.28-.17l-1.2-.11s.12.07.11.13c-.01.05-.15.01-.17.06-.01.05.14.1.12.16-.02.06-.21-.02-.23.03-.03.06.29.19.26.25-.03.06-.15.03-.18.09-.03.06-.11.01-.15.08-.04.07.08.15.05.22-.04.07-.27-.04-.31.04-.04.08.2.19.17.27-.03.08-.12.06-.14.13-.02.05-.12,0-.15.06-.03.06.25.19.22.26-.03.07-.26-.03-.3.06-.04.09.07.13.04.23-.03.1-.23.09-.25.19l1.19.16s-.15-.04-.14-.08c.01-.04.1-.01.12-.06Z"/>
    <path d="M42.46,75.78c.09-.02.15-.03.2-.05.05,0,.09-.01.09-.02h0s-1.19-.16-1.19-.16h0c0,.06,0,.14.06.19.05.05.14.09.23.1.09.01.2.01.3,0,.11-.02.21-.04.3-.06Z"/>
  </g>
  <path class="st1" d="M12.54,31.08"/>
</svg>