<?xml version="1.0" encoding="UTF-8"?>
<svg id="_レイヤー_1" xmlns="http://www.w3.org/2000/svg" version="1.1" viewBox="0 0 100 100">
  <!-- Generator: Adobe Illustrator 30.0.0, SVG Export Plug-In . SVG Version: 2.1.1 Build 123)  -->
  <defs>
    <style>
      .st0 {
        fill: none;
      }

      .st1 {
        fill: #1c1917;
      }

      .st2 {
        fill: #fff;
      }
    </style>
  </defs>
  <path class="st2" d="M77.9,48.84c.26.91.89,4.08,1.15,5.64,3.24-2.3,6.32-1.83,7.41-.63s2.4,4.7,1.46,7.2c-.63,1.68-2.51,5.64-10.75,8.35-.58,3.45-.64,2.88-1.98,5.95-1.08,2.47-4.75,8.21-11.9,11.48-6.69,3.06-12.78,2.07-17.75,1.25-5.48-.9-13.48-2.21-18.17-8.56-2.02-2.74-2.46-4.3-3.76-10.13-1.46-.1-6.46-1.34-7.73-2.61-2.19-2.19-3.65-6.76-3.76-7.73-.21-1.94.22-6.32,3.45-6.68,3.76-.42,5.96.7,5.95.21,0,0,.73-4.7,4.38-6.37,3.65-1.67,26.94-4.8,38.11-2.19,12.64,2.95,13.89,4.8,13.89,4.8v.02Z"/>
  <g>
    <path class="st1" d="M49.19,13.45s-3.65-2.19-8.98-1.57c-7.99.94-18.37,8.62-22.24,18.58-3.25,8.37-3.89,19.42-.42,20.99.44.2,1.12,1.08,2.51,1.25,1.69.21,1.55.21,2.4,0,1.44-.35,1.98-1.57,1.98-1.57,0,0,1.17.26,2.71-.94.6-.47,1.44-1.37,1.54-1.81,0-.02.66.55,1.91.24,1.39-.35,2.3-.42,3.55-1.67,1.25.94,2.24.55,4.28.63,2.71.1,3.65.1,5.32-.52,1.77.52,2.37.43,4.59.73,3.08.41,4.98.28,6.37-.73,1.7.23,4.11,1.52,7,1.49,2.61-.03,4.28-.94,5.06-1.2.94.84,2.3,1.28,3.71,1.38,1.46.1,3.08-.13,3.24-.73.68,1.02,1.07,1.23,1.88.76.57,1.46,1.65,5.78,3.34,5.92,2.57.21,5.12-3.65,5.64-5.64,2.11-8.01-1.17-16.68-3.34-20.88-1.75-3.38-3.82-7.39-8.35-10.96-1.77-1.39-8.23-6.48-16.91-5.64-2.94.29-5.28,1.17-6.79,1.88h0Z"/>
    <g>
      <path class="st1" d="M30.96,47.17c-.19.04-.03.53-.22.58-.18.04-.46-.36-.55-.35-.11.02-.09.22-.21.23-.12,0-.12-.45-.19-.46-.06,0-.15.38-.24.35-.07-.02-.36.85-.52.78-.08-.04,0-.28.11-.51.03-.05.05-.12.05-.19h0s-.04-.06-.19-.11c-.14-.05-.39-.09-.66,0s-.44.32-.51.46c-.08.15-.09.26-.09.22h-.03s-.07-.04-.07-.04c-.08-.05-.13-.1-.13-.1,0,0,.21.2.13.31-.09.12-.61-.35-.69-.24-.09.11.4.54.28.67-.12.12-.18.07-.3.18-.12.12-.46-.24-.57-.14-.11.09.34.66.2.77s-.62-.35-.62-.35l1.63,2.52s.09-.43.27-.57c.19-.14.43.14.61-.02s-.1-.46.05-.62c.16-.15.51.2.67.03.16-.18-.53-.7-.39-.86.14-.17.42-.04.57-.25.15-.23.32-.05.5-.41.04-.09.06-.21.05-.32v-.07c0-.13-.03.55-.72.86-.71.28-1.19-.15-1.11-.08h0s.04-.04.07-.05c.12-.03.24-.06.37,0,.26.11.05.72.39.82.34.07.43-.58.69-.55.26.02.27.23.54.22.27-.02.31.26.59.21.28-.06.05-.79.24-.84.19-.04.34.55.53.5s.13-.33.32-.38c.2-.05.39.42.56.37l-.85-2.88c-.11.03.01.41-.16.45s-.23-.18-.41-.14h0Z"/>
      <path class="st1" d="M51.68,46.66c-.47.02-.35.52-.86.52-.51,0-.78-.5-1.28-.55-.51-.05-.53.15-1.05.08-.54-.07-.5-.53-1.05-.59-.54-.06-.72.32-1.23.26-.5-.06-.46.87-.99.79-.53-.11-.28-1.07-1.07-1.29-.18-.05-.32-.08-.44-.08-.37.21-.61.48-1.05.61-.46.12-.45-.6-.85-.52-.41.06-.36.71-.85.73-.5,0-.5-.07-1.01-.08-.52,0-.53-.5-1.06-.52-.52-.02-.66.7-1.21.7-.28,0-.55-.15-.75-.31s-.32-.31-.34-.31l.06,3c.06,0,.71-.33,1.2-.33s.46.38,1.01.4c.54.02.56-.4,1.11-.38.56,0,.54.51,1.14.49.61-.03.37-.88.94-.95.29-.04.5,0,.71.02.11.02.21.03.33.03.11,0,.26-.03.32-.04.23-.07.29.02.4.05.05.04.1.08.19.11.24.06.48-.24,1.04-.14.56.09.5.73,1.06.79.55.06.59-.6,1.12-.54.52.06.49.28,1.01.34.55.07.51.35,1.07.41.57.05.57-.71,1.12-.68.55.02.6.64,1.2.62.6-.03.58-.32,1.18-.41.59-.11.89.33,1.39.15l-1.05-2.81c-.26.09-.11.46-.54.56-.44.08-.47-.16-.92-.12h0Z"/>
      <path class="st1" d="M63.82,46.96c-.25.06-.09.54-.36.6-.27.05-.49-.39-.75-.36s-.24.23-.51.25c-.27,0-.29-.45-.54-.44-.25,0-.32.39-.58.37-.26-.02-.25.91-.54.88-.29-.04-.2-1.03-.45-1.07-.26-.04-.38.22-.65.16s-.02-.72-.28-.78c-.26-.06-.43.57-.7.49-.27-.08-.25-.15-.52-.24-.27-.08-.14-.55-.42-.64s-.54.59-.82.5-.38-.79-.4-.79l-.83,2.88s.43-.2.71-.11.16.44.45.53.41-.31.7-.22.15.56.45.65c.31.08.43-.78.73-.7.3.07.32.39.64.45.31.06.23.28.55.33.32.05.41-.31.72-.27.31.03.27.67.61.69.34,0,.35-.65.67-.64.32,0,.32.21.65.19.32-.02.35.26.68.22.33-.04.19-.79.5-.84.3-.05.45.54.78.47.32-.07.25-.36.56-.44.3-.09.53.37.77.29l-.95-2.84c-.18.06-.04.43-.3.51-.26.07-.31-.15-.57-.09h0Z"/>
      <path class="st1" d="M83.85,45.22c-.05.52.5.46.42.98-.08.53-.57.77-.66,1.27-.11.5.08.55-.03,1.06-.12.52-.55.3-.71.73-.19.41.11.69-.13,1.13-.25.43.6.78.31,1.23-.32.45-1.16-.1-1.46.26-.31.35-.21.64-.55.95-.3.24-.57-.42-.77-.29-.2.11-.04.8-.41.93-.36.07-.36,0-.7-.04-.34-.11-.12-.67-.29-.85-.15-.18-.7.33-.9-.04-.18-.32.22-1.05.21-1.07l-2.77,1.16s.16.18.34.38c.18.23.47.61.65.93.41.63.14.93.72,1.5.63.49.8.15,1.49.33.71.09.66.56,1.47.46.8-.21.4-1.01,1.01-1.3.57-.34.95-.24,1.47-.71.45-.43.56-.22.98-.69.4-.48.15-.76.5-1.24.33-.49.88-.17,1.2-.72.3-.57-.3-.84-.05-1.39.21-.55.45-.57.58-1.13.13-.57.4-.51.53-1.09.11-.58-.67-.65-.58-1.21.08-.56.7-.55.74-1.14.04-.58-.24-.6-.21-1.17,0-.57.51-.71.52-1.15l-3,.03c0,.39.39.34.39.87s-.26.51-.29,1.03h-.02Z"/>
      <path class="st1" d="M80.05,28.77c.24.48.64.14.88.63.23.49-.05.97.15,1.46.21.49.4.41.6.91s-.22.68-.04,1.18.6.49.76,1c.17.51.99.07,1.16.59.15.53-.79.88-.64,1.39.14.51.43.57.56,1.1.13.52-.6.49-.49,1,.1.51.76.4.85.93.08.53,0,.54.08,1.07.07.53-.42.62-.37,1.13.06.52.78.54.8,1.07.03.54-.6,1.04-.61,1.07l3-.03c0-.06-.33-.75-.36-1.32-.03-.58.34-.6.28-1.18-.07-.58-.46-.54-.54-1.1-.09-.56.41-.63.32-1.21-.1-.57-.92-.24-1.03-.79s.15-.79,0-1.34c-.14-.55.11-.55-.04-1.1-.16-.55-.52-.51-.68-1.06-.17-.54.43-.75.25-1.29-.19-.54-.81-.31-1-.84-.19-.53,0-.6-.21-1.13-.21-.53.05-.63-.18-1.16s-.9-.16-1.14-.67c-.23-.51.28-.82.03-1.34-.26-.51-.51-.36-.77-.86-.26-.49.12-.85-.08-1.23l-2.64,1.42c.19.36.52.12.77.61.26.49.05.59.3,1.08h.03Z"/>
      <path class="st1" d="M68.99,16.11c.45.27.62-.21,1.08.07.45.3.45.85.87,1.17.43.31.55.15.98.48.43.34.14.71.55,1.03.4.32.74.13,1.14.48.39.36.89-.42,1.29-.04.39.39-.28,1.15.08,1.52.34.4.65.3.99.71s-.32.7,0,1.11.85.03,1.16.46c.31.43.24.49.54.93.29.45-.11.73.17,1.18.27.45.93.15,1.2.62.27.47-.06,1.22-.04,1.25l2.64-1.42s-.62-.5-.9-.99.04-.68-.26-1.17-.66-.27-.97-.75c-.32-.47.1-.75-.24-1.23-.34-.47-.93.18-1.27-.27s-.23-.77-.6-1.22c-.37-.43-.16-.53-.55-.97-.41-.42-.7-.22-1.11-.62-.41-.39.03-.88-.41-1.27-.44-.39-.85.11-1.29-.25s-.31-.54-.75-.88c-.45-.34-.28-.58-.75-.91-.47-.34-.87.32-1.33,0-.47-.31-.19-.85-.68-1.16-.5-.29-.64-.05-1.14-.33-.5-.27-.38-.79-.78-.99l-1.35,2.68c.35.17.48-.19.95.06.47.25.34.46.8.73h-.02Z"/>
      <path class="st1" d="M52.94,13.49c.5-.13.27-.6.79-.72s.91.29,1.42.21c.51-.07.49-.27,1.01-.32.52-.03.57.43,1.08.4.51-.04.63-.4,1.15-.39.52.02.4-.93.95-.88s.52,1.06,1.04,1.11c.51.07.68-.17,1.2-.08.52.08.19.75.69.86.49.13.67-.53,1.18-.37.51.16.48.23.98.39.5.18.35.65.84.83.47.2.82-.43,1.32-.22.49.23.64,1.03.67,1.04l1.35-2.68c-.05-.01-.81-.06-1.34-.29-.53-.22-.38-.58-.93-.8-.55-.2-.7.18-1.24-.02-.55-.17-.39-.64-.96-.82-.57-.17-.62.73-1.18.59-.55-.13-.67-.48-1.24-.57-.57-.09-.47-.32-1.05-.4-.59-.06-.69.3-1.26.24-.57-.04-.56-.66-1.16-.68-.6-.01-.58.63-1.15.67-.58.03-.59-.18-1.17-.15-.58.06-.61-.22-1.2-.14-.59.1-.4.84-.95.94-.55.12-.75-.46-1.32-.32-.57.15-.48.43-1.04.61-.55.18-.85-.25-1.27-.09l1.07,2.8c.36-.13.18-.49.68-.66.5-.16.56.06,1.06-.08h-.02Z"/>
      <path class="st1" d="M34.29,15.09c.43-.21.13-.62.58-.82.46-.19.89.11,1.34-.05s.39-.35.84-.5c.46-.16.6.29,1.05.17.45-.11.47-.53.93-.63.46-.08.15-.96.65-1.04.5-.09.68.89,1.14.86.46-.05.56-.32,1.04-.33.48-.02.3.7.76.7s.5-.62.98-.59c.47.05.46.14.93.2.47.09.4.56.84.66.44.1.69-.57,1.15-.44.23.07.4.29.5.51.11.21.15.4.17.4l1.07-2.8s-.78.04-1.3-.11c-.52-.14-.43-.51-.97-.63-.54-.13-.63.3-1.16.2-.53-.07-.46-.57-1.02-.63-.56-.04-.45.82-.98.8-.53-.01-.69-.33-1.23-.3-.54.01-.49-.22-1.03-.17-.55.04-.56.42-1.09.51-.52.09-.66-.55-1.2-.44-.53.14-.36.77-.88.9-.51.13-.58-.08-1.08.09s-.6-.1-1.1.08c-.51.18-.17.89-.65,1.09-.48.2-.77-.34-1.26-.12-.47.24-.34.5-.81.74-.46.24-.83-.16-1.17.05l1.46,2.62c.31-.19.09-.5.52-.72.44-.22.53-.01.97-.23v-.03Z"/>
      <path class="st1" d="M22.46,25.09c.28-.39-.19-.61.1-1.01.31-.39.86-.32,1.16-.7.31-.37.15-.52.48-.88.33-.36.68-.06,1.01-.41s.12-.72.48-1.06c.35-.34-.4-.89-.03-1.24.37-.34,1.08.33,1.45.02.37-.32.28-.6.65-.92.38-.32.67.32,1.06.03.38-.29,0-.81.38-1.11.39-.3.43-.24.84-.51s.7.12,1.1-.15.07-.91.5-1.16c.43-.25,1.14.08,1.16.06l-1.46-2.62s-.44.62-.89.88c-.45.26-.65-.05-1.09.25s-.21.64-.65.93-.71-.11-1.14.21c-.42.32.23.91-.18,1.22s-.72.19-1.12.53c-.4.34-.5.12-.9.47-.4.34-.19.67-.56,1.02-.37.36-.83-.09-1.21.28s.11.83-.24,1.21c-.35.38-.51.23-.87.62-.35.39-.55.22-.89.62-.34.41.29.85-.04,1.25-.32.4-.83.09-1.14.51-.31.43-.07.6-.37,1.02-.29.43-.77.27-.99.61l2.54,1.6c.19-.31-.17-.48.09-.9.29-.4.47-.26.76-.66h0Z"/>
      <path class="st1" d="M16.95,39.62c.08-.49-.45-.46-.36-.95.08-.49.59-.69.69-1.17s-.09-.52,0-1.01c.11-.48.56-.39.68-.86s-.23-.69-.09-1.16c.13-.47-.79-.58-.65-1.07.14-.48,1.12-.25,1.27-.71.15-.47-.07-.67.1-1.13.17-.46.76-.05.93-.51.19-.43-.41-.69-.22-1.14.2-.45.26-.41.47-.86.23-.43.68-.23.9-.65.23-.42-.39-.84-.14-1.26.26-.42,1.05-.47,1.06-.49l-2.54-1.6s-.1.75-.37,1.19c-.25.46-.57.28-.82.76-.25.47.12.66-.13,1.13-.21.48-.66.27-.88.76-.21.49.65.68.44,1.15-.19.48-.53.53-.71,1.02-.17.49-.37.36-.53.85-.16.5.16.66.01,1.16-.15.49-.76.33-.91.84-.14.51.5.66.37,1.16-.12.5-.33.45-.45.96-.11.51-.39.45-.49.96-.1.51.65.61.57,1.11-.09.5-.7.45-.78.97s.21.56.14,1.07c-.06.51-.58.58-.62.98l2.98.3c.04-.36-.36-.36-.3-.85.07-.49.29-.45.36-.94h.02Z"/>
      <path class="st1" d="M20.95,51.47c-.48-.06-.49.46-.91.39-.41-.08-.42-.59-.71-.75-.32-.2-.4-.02-.83-.35-.14-.1-.22-.2-.39-.33-.1-.08-.05-.08-.07-.12v-.1c.01-.12.05-.24-.03-.3-.14-.15-.52.03-.71-.3-.17-.34-.96.16-1.14-.29-.17-.47.77-.82.67-1.24-.1-.43-.4-.49-.46-.96-.07-.47.65-.39.6-.84-.03-.46-.69-.42-.71-.91-.02-.48.07-.49.06-.97,0-.49.49-.5.51-.98s-.7-.59-.66-1.08c.03-.5.73-.89.73-.92l-2.98-.3s.24.71.21,1.23c-.04.52-.4.5-.43,1.03-.01.54.4.54.4,1.07s-.5.53-.48,1.07.88.33.92.85c.05.52-.23.73-.15,1.26.1.54-.15.52-.02,1.07.14.56.51.52.7,1.05.22.53-.38.81-.02,1.42.4.6.9.19,1.38.64.49.42.67.65.76.76.38.29.23.56.79.9.62.33.87-.4,1.43-.21.29.07.43.25.58.42.12.17.24.34.49.37.52.05.53-.21,1.21-.2.33,0,.56.06.78.14.22.08.28.2.59.11l-.86-2.87c-.06.02-.19.15-.24.27-.08.12-.09.23-.26.26-.34,0-.24-.23-.74-.28h-.01Z"/>
      <g>
        <path class="st1" d="M36.09,46.31h-.18s-.06,0-.06,0l-.05-.02h-.14s-.02,0-.02,0l-.02.03-.02.02-.02.03s-.06.09-.09.13l-.05.07-.05.07-.03.03-.03.02-.03.02h-.03l-.03.02h-.09l-.06-.04-.06-.04-.06-.04-.03-.02h-.03l-.03-.03h-.09l-.07.03-.06.02-.13.06-.13.06-.07.03-.08.02h-.04l-.04.03h-.04l-.04.03-.08.05-.08.05-.08.06-.04.03-.04.02-.04.02h-.04l-.04.02h-.12l-.04-.02-.04-.02-.08-.04-.08-.05-.08-.05-.08-.04-.04-.02h-.04l-.04-.02h-.03c-.17,0-.4.03-.57.05h-.05s-.02,0-.02,0l-.02.03-.03.04-.03.04-.03.05-.03.04-.02.02h-.02l-.02.03h-.12l-.04-.03-.08-.05-.08-.06-.08-.06-.08-.05-.04-.02h-.06s-.02,0-.02,0h-.04l.42,1.44.21.72.21.72h.04l.03-.03s.04-.02.06-.03l.05-.03h.03l.03-.02h.03l.03-.02.03-.02.02-.02s.06-.07.1-.11l.03-.03.03-.03.04-.02.04-.02.05-.02.05-.02h.13s.05,0,.08,0,.06,0,.1,0c.07,0,.15-.03.23-.04.08-.02.16-.03.23-.04h.07c.41-.04.81-.08,1.2-.11h0l.03-.03.03-.02.06-.03.06-.03.06-.02.05-.02h.1s.1,0,.1,0h.31s0,0,0,0h.09l.03.02.03.02.06.04.06.04.06.04h.03l.03.02h.36v-.75l-.03-.75-.03-1.5h-.06l-.06.02s-.08.04-.13.06l-.13.07-.06.03-.06.02h.02Z"/>
        <path class="st0" d="M34.47,51.38c-1.11-.14-1.07-.13-1.67-.2h0v-.04l-.02-.04-.03-.09-.05-.18-.11-.36-.21-.72-.42-1.44-.85-2.88.16-.05.06-.02.05-.02h.03l.02-.02.04-.02.04-.02h.02s.02,0,.02,0l.05-.04.05-.04.03-.02.03-.02.06-.04.12-.11.14-.13,1.84-1.84,2.08,1.56.03.02h0s.14,0,.14,0l.19.02h.25l.06,3,.03,1.5v.75l.02.37v.35h0v.02h0c-1.47.52-1.42.5-2.2.78v-.03Z"/>
      </g>
      <g>
        <path class="st1" d="M55.98,46.02h-.08l-.08-.04-.04-.02h-.06s-.02,0-.02,0h-.04l-.02.02-.02.02-.02.02-.02.03-.04.07-.04.07-.08.15-.04.06-.02.02-.02.02h-.02l-.02.02h-.08l-.05-.03h-.05l-.02-.02h-.06l-.02.02-.02.02-.04.05-.03.05-.06.11c-.04.07-.07.15-.12.24l-.02.03v.02h-.11l-.04.02h-.04l-.04.02h-.06l-.02-.02-.03-.02-.03-.02-.06-.05-.11-.13s-.08-.09-.11-.13l-.05-.05-.02-.02h-.02s-.06-.04-.09-.05l-.09-.03c-.06-.02-.11-.04-.16-.05h-.02v.11s0,.03,0,.03h-.02v.02h-.02s-.02-.03-.02-.03l-.02-.02s-.07-.08-.11-.13c-.03-.04-.07-.08-.1-.12l-.02-.02h-.02v-.02h0l.52,1.41.26.7.26.7h.02l.02-.02.02-.03.02-.02h.02v-.04s.02-.06.03-.09v-.02l.02-.02v-.02h.03s.02,0,.02,0h0s0,0,0,0h.07s.03,0,.04.02h.05s.08.02.12.02.09,0,.13.02h.04s.06-.07.06-.07h0s.02-.05.03-.06l.02-.04.02-.03.02-.02.02-.02h.02l.02-.02h.14s0,.03,0,.03v.04l.03.08v.02h0s0,0,0,0h.04l.03.03h.03l.21-.71.21-.72.41-1.44h-.08l-.04.02-.04.02-.09.05-.05.02h-.06Z"/>
        <path class="st0" d="M55.5,50.15c-.52.2-.5.19-.78.3h0v-.04l-.02-.04-.03-.09-.07-.18-.13-.35-.26-.7-.52-1.41-1.05-2.81.05-.02h.03l.02-.02.09-.04.08-.05.04-.03.04-.02.98-.71,1.2.17.46.08.41.09.37.09.35.1-.83,2.88-.41,1.44-.21.72-.1.36-.05.18-.03.09v.05l-.02.02h0v.02h0c.28-.05.27-.05.42-.07h-.03Z"/>
      </g>
      <g>
        <path class="st1" d="M68.47,46.92h-.04l-.04-.02-.03-.02-.03-.03-.03-.02-.04-.02h-.04s-.02,0-.02,0h-.04l-.02.02-.03.02-.03.02s-.08.07-.12.1l-.13.11-.06.04h-.03l-.03.02h-.07l-.02-.02-.04-.03-.04-.04-.04-.04-.02-.02h-.02l-.02-.02h-.08l-.06.03-.06.03-.11.06-.12.06-.06.03-.07.03-.07.03h-.03l-.03-.02h-.13l-.07.02h-.15s-.03,0-.03,0l-.03-.03-.03-.02-.06-.06-.11-.14-.05-.07-.05-.06-.03-.03-.03-.02-.03-.02h-.03s-.08-.04-.12-.05l-.13-.03c-.08,0-.17-.03-.24-.04h-.06l-.02.02h-.01v.03s-.03.04-.03.04l-.02.04-.03.04-.02.02h-.02l-.02.02h-.07s-.03-.03-.03-.03l-.03-.02-.07-.06-.07-.06-.07-.06-.07-.05-.03-.02h-.03v-.02h-.04l.48,1.43.24.71.24.71h.02l.02-.02.03-.03.03-.02h.03s.02,0,.02,0v-.03s.01-.02.01-.02c0,0,.04-.06.06-.09v-.02l.03-.02.02-.02h.02l.03-.02h.1s.06.02.1.03c.04,0,.09,0,.14.02.05,0,.09.02.14.02h.04s.23.11.23.11h0s.04-.03.05-.04l.05-.02.04-.02h.08s.03,0,.03,0h.06l.03.02s.07.03.1.05h.02l.02.02h.08v.03s.01.02.01.02l.02.02.02.05.02.05.02.05v.02l.03.02h.02v.02h.05l.05.04.05.03.05.02.28-.7.28-.7.56-1.39h-.08s-.06.02-.09.03l-.1.03h-.09.09Z"/>
        <path class="st0" d="M66.04,50.97c.05-.11.05-.1.07-.16h0v-.04l-.02-.04-.03-.09-.06-.18-.12-.36-.24-.71-.48-1.42-.95-2.84.32-.11.34-.13.39-.16.25-.1.33-.12,1.65-.55,1.3,1.15.11.08.14.09.08.04.04.02.05.02.19.09-1.12,2.78-.56,1.39-.28.7-.14.35-.07.17-.03.09-.02.04v.02h-.01c-.74-.03-.71-.02-1.11-.04l-.02.02Z"/>
      </g>
      <g>
        <path class="st1" d="M77.42,46.21l-.17.11-.18.1c-.12.07-.25.13-.37.2s-.25.14-.36.2l-.17.11-.16.11-.07.06-.06.06-.05.06-.05.06-.04.06-.04.06-.06.13-.06.13-.07.13-.04.06-.05.06-.05.06-.06.06-.07.06-.06.05-.06.04-.06.03h-.03s-.03,0-.03,0l-.03.02h-.07s-.08-.05-.08-.05l-.05-.03-.06-.02c-.08-.03-.15-.07-.22-.1l-.21-.08c-.07-.03-.14-.06-.21-.09l-.12-.06-.13-.07-.03-.02-.03-.02h-.03l-.02-.02h0l-.04.09-.04.1-.02.05-.02.03-.02.03-.03.03-.03.03-.04.03-.04.03h-.02l-.02.03-.09.05-.1.04-.05.02-.05.02-.1.03c-.07,0-.14.02-.2.03h-.25s-.07-.03-.07-.03l-.06-.03-.06-.03-.05-.03-.05-.04-.09-.08-.09-.07-.05-.04-.05-.03-.05-.03-.06-.03-.07-.02-.07-.02c-.22-.04-.48-.09-.73-.14-.13-.03-.26-.06-.38-.08-.12-.03-.24-.06-.34-.09l-.08-.02h-.07l-.07-.02h-.6l-.14-.03-.07-.02-.08-.03-.07-.03-.04-.02-.03-.02-.06-.05-.06-.05-.06-.06-.05-.06-.05-.06-.05-.07-.1-.13-.05-.06-.05-.06-.05-.06-.06-.05-.06-.05-.06-.04-.78,1.28-.39.64-.39.64c.07.04.13.07.19.11.06.02.11.05.15.07.05.02.09.04.13.06l.07.03.07.04.07.04.07.03s.1.03.15.04c.05,0,.1.02.16.03.05,0,.11.02.17.03s.12.02.19.04l.1.02.11.03c.07.02.15.05.23.08.08.03.17.07.27.11.04.02.1.04.16.06.06.02.13.05.21.07.15.05.32.1.49.15.17.05.34.09.49.13l.11.03h.05v.02h.01l7.13-.77h0l.02-.06.02-.04.06-.08.06-.08.07-.07.07-.07.07-.06.08-.06.15-.1c.1-.06.2-.12.29-.18.04-.03.09-.05.12-.08l.05-.04.05-.04.05-.04.05-.03.05-.03.06-.02s.08-.02.12-.04l.13-.03.13-.03.13-.03.06-.02.06-.02.06-.03.05-.03s.07-.04.12-.07.1-.06.16-.09c.11-.06.23-.13.33-.18l-.38-.65-.38-.65-.75-1.3s-.09.06-.14.09c-.04.03-.09.07-.14.1-.09.08-.19.16-.29.24l-.3.26-.15.12-.16.11h-.05Z"/>
        <path class="st0" d="M74.93,55.14c-6.04-3.17-5.84-3.06-9.07-4.76h0v-.03l.04-.04.05-.08.1-.16.2-.32.39-.64.78-1.28,1.57-2.56.15.09.18.08.1.04.1.04.22.07.24.06.25.05.26.04.27.02h.84l.24-.04.1-.02h.05l.03-.02h.04-.01l-.08.04-.08.04-.07.04-.07.04-.08.06-.11.09-.1.1-.14.15-.08.09-.07.1-.14.22-.08.14-.07.15-.06.16-.04.16,1.69-6.47,3.71,5.57.14.2.03.04h0l-.02-.02-.04-.04-.04-.04-.04-.03-.06-.05-.07-.05-.08-.05-.11-.06-.12-.05-.14-.06-.15-.04-.16-.04-.16-.03h-.16l-.15-.02h-.14l-.12.02-.11.02-.09.02-.08.02-.11.04-.07.03-.04.02h0l.04-.02.09-.05.72-.42,2.89-1.68,1.51,2.59.75,1.3.38.65.19.32.09.16.05.08.02.04v.02h.02c-3.96,3.98-3.82,3.85-5.94,5.97h.03Z"/>
      </g>
      <g>
        <path class="st1" d="M77.72,50.88l-.04-.09-.03-.1-.06-.2-.03-.1-.03-.1-.04-.09-.02-.04-.03-.04-.03-.04-.03-.03-.04-.03-.04-.02-.09-.04-.1-.03-.1-.03-.09-.04-.04-.02-.04-.03-.04-.03-.04-.03-.03-.04-.03-.04-.02-.05-.02-.05-.04-.11-.03-.12-.03-.12-.04-.11-.02-.05-.03-.05-.03-.04-.04-.04-.08-.06-.08-.04-.08-.04-.08-.03-.16-.06-.08-.03-.08-.04-.04-.02h-.08l-.06.02c-.07.02-.15.05-.22.08l-.06.02h-.03l-.03.02h-.05l-.03.02h-.15l-.03-.03h-.01v-.02h0l-.02-.04v-.04l-.03-.04v-.17l.02-.08.02-.08.02-.06.02-.04h0v-.03h0v-.1l-.02-.07c-.03-.11-.07-.22-.1-.32v-.04l-.03-.03-.02-.03-.02-.03-.03-.02-.03-.02-.06-.04-.07-.05-.07-.05-.03-.03-.03-.03-.03-.04-.02-.04-.02-.05v-.05l-.02-.05v-.18l.02-.12v-.19s.01-.06.01-.06v-.12l-.03-.05-.03-.05-1.25.83-.62.42-.62.42.03.04.03.03s.03.03.05.05l.04.04.02.02.02.03.02.03.02.02.03.02.03.02s.09.05.14.08l.04.02.03.03.03.03.03.04.03.04.03.05.02.06.02.07s.03.1.05.17c.03.08.06.16.09.25.04.09.07.19.1.27l.03.06v.03h.01l1.93,1.63h.05l.03.02.06.03.05.04.04.04.04.04.03.04.03.04.05.09c.02.06.05.12.07.17l.03.07.02.03.02.03.02.03v.03l.02.03v.19s-.01.08-.01.08l-.02.08v.12l.02.03s.02.04.03.07.02.06.03.09c.02.07.05.14.07.2l.69-.29.69-.29,1.38-.58-.02-.03-.02-.03-.05-.07s-.08-.09-.13-.14l-.13-.15-.06-.08-.05-.08v-.05Z"/>
        <path class="st0" d="M74.05,53.22c-2.3-3-2.23-2.9-3.45-4.5h.02l.04-.04.08-.05.16-.1.31-.21.62-.42,1.25-.83,2.5-1.66.48.73.21.31.11.15h0l-.02-.02-.04-.04-.04-.04-.04-.03-.06-.05-.08-.05-.09-.05-.12-.06-.12-.05-.15-.06-.16-.04-.08-.02-.09-.02h-.09l-.09-.02h-.45l-.13.03-.1.02-.09.02-.07.02-.05.02-.05.02-.05.02h-.02s3.02-1.74,3.02-1.74l1.28,3.25.19.51.15.45.28.82.27.76.27.69-2.77,1.16-1.38.58-.69.29-.35.14-.17.07-.09.04-.04.02h-.03s.02,0,.03.02l-.02-.04Z"/>
      </g>
      <g>
        <path class="st1" d="M47.58,14.11h.04l.04.02.04.02.04.02.04.02.04.02h.1l.03-.02.03-.02.03-.02.06-.05.06-.06.12-.12.06-.05.03-.02h.03l.03-.02h.06l.04.03.04.03.04.03h.02l.02.02h.07l.03-.02.05-.03.05-.04.1-.08.1-.09.05-.04.06-.04.06-.04h.18l.06-.03h.15s.03.01.03.01l.03.03.03.02.06.06.11.14.05.07.05.06.03.03.03.02.03.02h.03s.07.04.11.05l.12.03c.08.01.16.03.22.04h.06v-.02h.02v-.03s.03-.04.03-.04l.02-.04.02-.04v-.02h.03s.02-.01.02-.01h.02s0-.01,0-.01h.04l.03.03.03.02s.09.07.13.11l.07.06.07.05.03.02h.04s0,.01,0,.01h.02l-.53-1.41-.27-.7-.27-.7h-.02l-.02.02-.03.03-.02.02h-.03v.02s0,.02,0,.02c0,0-.03.06-.05.09v.02l-.02.02-.02.02h-.02l-.02.02h-.1s-.06-.02-.1-.03c-.04,0-.08-.01-.13-.02-.04,0-.09-.02-.13-.03h-.04s-.26-.03-.26-.03h0s-.03.04-.05.05l-.04.03-.04.02-.03.02h-.06s-.03.01-.03.01h-.05s-.06-.03-.09-.04h-.09v-.03s0-.02,0-.02l-.03-.05-.02-.05-.02-.05v-.02l-.02-.02h0s0-.01-.02-.01h-.02l-.04-.03-.04-.02-.04-.02-.27.7-.27.7-.53,1.4h.13l.05-.03.1-.03h.07s.02-.01.02-.01l-.09.05Z"/>
        <path class="st0" d="M49.37,9.96c.15.04.14.04.22.06h0v.04l.03.04.03.09.07.18.13.35.27.7.53,1.4,1.07,2.8-.64.26-.63.28-1.45.68-1.37-.82h.02-.02l-.04-.02-.11-.06-.26-.12-.28-.12-.29-.12,1.07-2.8.53-1.4.27-.7.13-.35.07-.18.03-.09.02-.04v-.02h0c.37-.02.36-.02.56-.03h.03Z"/>
      </g>
      <g>
        <path class="st1" d="M25.71,49.6l-.02.02h-.02l-.05.04-.05.02h-.05l-.05.03-.05.02-.04.02-.02.02-.02.02-.02.02v.03l-.02.03v.04s-.02.11-.03.16v.09l-.02.08v.04l-.02.04-.02.03-.02.03-.02.02-.03.02h-.03l-.03.02h-.28l-.03.02-.02.02-.02.02-.04.05-.03.05-.06.11-.07.12h0v.02h0v.02h-.02s-.06.06-.06.06l-.03.03-.03.03-.03.03-.03.03-.05.06-.05.07-.05.07-.06.06-.03.02-.03.02-.03.02h-.07s-.04,0-.04,0h-.08l-.08-.04-.08-.03c-.06-.02-.11-.04-.16-.06h-.04l-.04-.02h-.06c-.08,0-.16.03-.25.04l-.12.02h-.11s-.02,0-.02,0h-.02s-.01,0-.01,0v.03s-.01.02-.01.02l-.02.02v.04l-.03.04-.02.04v.02l-.03.02h0s-.02,0-.02,0h-.08l-.03-.03-.07-.05-.07-.06-.07-.06-.06-.05-.03-.02h-.03v-.02h-.04l.43,1.44.21.72.21.72.05-.02.04-.02s.04-.02.06-.03l.05-.03h.03l.03-.02h.03l.03-.03.03-.02.03-.02s.07-.08.1-.12l.06-.06.04-.03.04-.03.05-.02.05-.02.06-.02h.07s.05-.02.08-.03c.03,0,.06-.02.1-.03s.07-.02.11-.03l.12-.04c.08-.03.16-.05.23-.08l.05-.02h.02l1.6-.87h0v-.05s.01-.03.01-.03l.04-.06.03-.05.03-.04.04-.04.04-.03.04-.03.08-.05s.1-.05.15-.07l.06-.04.03-.02.02-.02h.01s.01,0,.01,0l.02-.02h.06s.03,0,.03,0h.17s.07,0,.07,0h.06l.03-.02.03-.02.02-.02.03-.02s.05-.03.07-.04c.05-.03.11-.06.15-.09l-.41-.63-.41-.63-.82-1.26h-.02l-.02.03-.03.04s-.03.07-.05.1l-.06.11-.03.05-.02.02-.02.02.02-.03Z"/>
        <path class="st0" d="M26.41,55.03c-1.96.33-1.89.32-2.94.5h0v-.04l-.02-.04-.03-.09-.05-.18-.11-.36-.21-.72-.43-1.44-.86-2.87h0l.02-.02h0v.02l-.07.14,1-2.24,2.39.53-.16-.03h-.13s-.07,0-.07,0h-.03.06s.03,0,.03,0h0s.02-.02.02-.02h.04l.04-.04.05-.02.05-.03h.03l.03-.03.06-.04,1.63,2.52.82,1.26.41.63.2.31.1.16.05.08.03.04v.02h.02c-1.32,1.35-1.28,1.31-1.98,2.03h0Z"/>
      </g>
    </g>
  </g>
  <g>
    <path class="st1" d="M22.41,53.08c-.09-.15-.23-.28-.38-.37-.15-.08-.33-.11-.51-.11s-.34.07-.49.16-.3.2-.39.36c-.08.15-.1.35-.1.54l2-.07c0-.18-.05-.37-.14-.51h0Z"/>
    <path class="st1" d="M23.58,64.34c-.06-.37-.38-.23-.45-.61-.07-.38.21-.64.15-1.02-.06-.37-.19-.35-.25-.73-.05-.38.25-.43.2-.8s-.32-.43-.36-.81c-.05-.38-.64-.19-.68-.57s.61-.51.57-.88c-.04-.38-.24-.45-.27-.83s.44-.28.41-.66-.47-.35-.5-.73.03-.38,0-.76c-.03-.38.3-.42.28-.8-.02-.38-.5-.41-.52-.79s.4-.75.4-.77l-2,.07s.22.49.24.88-.23.4-.21.78c.02.39.3.37.32.76.03.38-.31.4-.28.79.03.39.59.22.62.61.03.38-.15.52-.12.9.04.38-.12.35-.08.74.04.38.29.4.33.78.04.38-.38.44-.33.83.05.38.48.32.53.7.05.38-.09.4-.04.78.05.38-.13.41-.07.79s.55.27.62.64c.06.38-.33.48-.27.86s.26.35.33.72c.07.38-.25.53-.19.82l1.96-.38c-.06-.28-.3-.19-.37-.57-.07-.37.08-.4.02-.77v.03Z"/>
    <path class="st1" d="M26.48,76.1c-.14-.34-.42-.14-.55-.49s.1-.66-.02-1.01c-.11-.36-.24-.32-.34-.68s.19-.45.09-.81c-.09-.36-.37-.38-.46-.75-.09-.37-.66-.11-.75-.48s.55-.58.46-.95c-.09-.37-.29-.42-.37-.79s.4-.34.31-.71c-.08-.37-.51-.28-.59-.66-.08-.37-.03-.39-.11-.76s.23-.46.15-.83-.56-.32-.64-.7c-.07-.37.28-.8.27-.82l-1.96.38s.3.45.38.83c.08.38-.17.43-.08.81.08.38.35.32.43.7.08.37-.24.44-.16.81.08.37.62.14.7.51s-.09.53,0,.91c.09.37-.08.36.01.74s.33.36.42.74c.09.37-.32.48-.23.86.1.38.52.26.62.63.1.37-.04.41.07.79.11.37-.07.43.05.81.13.38.59.18.72.55.14.36-.24.55-.09.92.15.37.33.3.49.66s-.09.6.05.87l1.77-.92c-.12-.24-.35-.08-.5-.42-.15-.33-.01-.39-.15-.73h.01Z"/>
    <path class="st1" d="M34.49,84.25c-.33-.17-.41.17-.74,0-.34-.17-.36-.56-.68-.74s-.39-.07-.7-.28-.15-.45-.44-.67c-.29-.21-.51-.06-.81-.28-.29-.23-.58.32-.87.07s.1-.77-.16-1.02-.46-.18-.72-.43c-.25-.27.18-.49-.06-.76-.23-.27-.59.03-.81-.26-.23-.29-.18-.32-.41-.61s.04-.5-.17-.79c-.19-.29-.63-.08-.82-.39-.19-.32.03-.82.03-.84l-1.77.92s.43.37.63.71c.22.34,0,.48.23.82.24.33.45.18.7.49s-.02.51.23.83.62-.16.88.14c.27.29.2.53.48.81.29.27.15.35.44.63s.49.12.79.37c.31.25.03.6.36.84s.58-.12.89.12c.32.23.25.34.58.56s.23.38.58.58c.35.2.57-.26.9-.06.34.18.19.56.54.74.35.18.44,0,.79.17.35.16.3.52.58.63l.79-1.84c-.26-.1-.33.15-.67,0-.34-.16-.27-.29-.6-.45h0Z"/>
    <path class="st1" d="M46,87.66c-.37-.06-.34.3-.72.24-.37-.06-.54-.41-.91-.47-.37-.07-.39.06-.76-.02-.37-.07-.31-.38-.67-.46-.36-.08-.51.15-.87.06-.36-.1-.41.53-.78.43s-.24-.76-.61-.86c-.36-.1-.5.05-.87-.06-.36-.11-.1-.51-.46-.62s-.49.3-.85.19c-.36-.11-.34-.17-.7-.29-.35-.12-.27-.43-.61-.56-.35-.13-.57.3-.92.17-.35-.15-.5-.67-.52-.68l-.79,1.84s.55,0,.91.15c.37.14.28.37.65.51.37.14.47-.13.83,0,.37.13.26.44.63.56.37.12.43-.46.8-.35s.43.34.8.45.28.24.65.35c.37.1.48-.12.85-.01.37.1.27.51.66.61.38.1.48-.33.86-.24.38.09.35.23.73.31.38.08.34.26.73.34.39.07.44-.44.82-.38.38.07.35.48.74.53.39.05.41-.14.8-.08.38.05.44.39.73.42l.22-1.99c-.28-.03-.27.24-.65.19-.37-.05-.35-.21-.72-.26v-.02Z"/>
    <path class="st1" d="M57.97,87.47c-.37.07-.22.39-.6.45-.37.07-.63-.2-1-.15-.37.05-.35.18-.73.23-.37.05-.41-.25-.78-.23-.37.03-.44.3-.81.33-.37.03-.22.64-.6.65-.38.01-.46-.65-.83-.64-.37.02-.46.2-.84.2s-.24-.46-.61-.47c-.37,0-.39.44-.76.42-.38-.02-.37-.07-.75-.08s-.38-.35-.75-.37c-.37-.03-.46.45-.84.42-.38-.04-.68-.51-.7-.51l-.22,1.99s.52-.15.91-.11c.39.03.37.28.76.31s.41-.24.8-.23c.39.02.37.35.76.36.39.02.29-.56.67-.56s.51.2.9.2.35.15.74.14c.39-.01.43-.26.82-.27.39-.01.42.41.82.38.39-.03.35-.47.73-.5.39-.03.4.11.79.06s.41.14.8.09.28-.54.66-.61.49.33.88.26.35-.25.73-.34.55.22.84.15l-.47-1.94c-.27.06-.17.31-.54.4-.36.09-.39-.06-.76,0l-.02-.03Z"/>
    <path class="st1" d="M68.63,82.56c-.28.24,0,.44-.3.68-.3.23-.64.13-.95.34-.3.21-.22.32-.53.53-.3.22-.48-.05-.79.15-.31.19-.25.46-.57.65-.32.17.07.65-.26.83-.34.18-.69-.39-1.01-.22-.34.15-.34.35-.68.5s-.4-.33-.73-.19c-.34.13-.19.53-.54.66-.35.13-.37.08-.72.21-.35.12-.48-.2-.83-.09-.35.11-.27.58-.63.69-.36.1-.81-.25-.83-.24l.47,1.94s.45-.3.82-.42c.38-.11.44.13.82.01.38-.12.3-.37.67-.5.37-.14.47.18.85.04.37-.14.06-.63.42-.77.36-.14.55-.02.91-.18.36-.16.38,0,.74-.16.35-.18.28-.42.63-.6.34-.19.57.19.91-.01.34-.21.11-.58.44-.78.33-.21.42-.08.74-.31.32-.23.43-.07.76-.3s-.02-.62.29-.86c.3-.24.59.05.9-.2.3-.26.17-.41.46-.67.29-.26.6-.08.81-.29l-1.39-1.44c-.2.19.02.36-.26.61s-.38.13-.65.37l.03.02Z"/>
    <path class="st1" d="M75.2,72.87c-.12.36.22.39.09.74-.13.35-.49.45-.64.79-.14.34-.02.4-.16.74-.15.33-.43.21-.59.53-.16.32.02.52-.15.84-.18.32.4.52.21.85s-.79.02-.99.33c-.2.31-.1.49-.31.79-.22.3-.51-.07-.73.22s.12.56-.11.86c-.23.29-.28.25-.52.54s-.49.09-.74.35c-.25.27.07.64-.19.91-.27.26-.81.2-.83.21l1.39,1.44s.22-.51.5-.79c.27-.29.45-.12.72-.41.27-.29.06-.48.31-.78.25-.3.51-.08.76-.4.24-.32-.29-.57-.05-.88s.46-.3.69-.62.32-.2.54-.53.04-.5.24-.84.58-.13.77-.48c.19-.35-.2-.55-.02-.9s.3-.29.47-.66c.16-.36.33-.29.48-.65.15-.37-.34-.52-.2-.88.13-.36.53-.26.67-.63.13-.37-.06-.43.07-.8s.47-.36.56-.64l-1.91-.59c-.08.27.18.31.07.67-.12.36-.27.3-.39.66h0Z"/>
    <path class="st1" d="M77.67,61.03c-.04.38.31.33.27.71-.05.38-.38.56-.42.94-.05.38.08.39.03.77s-.36.34-.42.71c-.06.37.19.5.12.88-.06.37.56.36.5.74-.07.38-.74.31-.8.68-.07.37.09.5.02.87-.08.37-.5.14-.58.51-.08.36.34.47.26.84-.08.37-.14.36-.23.72-.09.37-.41.3-.51.67-.1.36.35.54.25.9-.1.37-.62.57-.63.59l1.91.59s-.04-.54.06-.92c.1-.37.34-.31.45-.68.1-.38-.17-.45-.08-.83.09-.38.42-.29.5-.67.09-.38-.5-.39-.41-.77.08-.38.3-.45.38-.83.08-.38.22-.3.29-.68s-.16-.47-.09-.85c.06-.38.49-.32.55-.7.07-.38-.37-.44-.31-.82.06-.38.2-.36.26-.74.05-.38.24-.36.29-.74s-.46-.41-.42-.79c.05-.38.46-.37.49-.76.04-.38-.15-.4-.12-.79.03-.38.38-.45.4-.74l-1.99-.16c-.02.28.24.27.21.65s-.19.36-.23.74v-.04Z"/>
    <path class="st1" d="M78.25,58.81c-.16.08-.27.22-.37.36-.1.14-.17.3-.19.48h0l1.99.16h0c.02-.19,0-.38-.08-.53-.08-.16-.21-.3-.35-.4-.14-.1-.31-.16-.49-.17s-.36.02-.51.1Z"/>
  </g>
  <g>
    <path class="st1" d="M80.5,52.77c-.1.19-.12.4-.08.58.03.17.14.32.28.44.13.12.29.19.45.25.16.05.33.12.47.11.14,0,.26-.05.37-.11l-1-1.73c-.21.12-.38.29-.47.47h-.02Z"/>
    <path class="st1" d="M89.16,58.89c.03-.43-.31-.36-.29-.76-.03-.4.31-.67.21-1.11-.1-.43-.19-.4-.33-.81-.15-.4.13-.54-.08-.94-.22-.39-.5-.34-.75-.68-.26-.34-.65.16-.91-.12-.26-.27.15-.8-.18-1.07-.33-.26-.52-.17-.87-.38-.35-.21,0-.54-.39-.74-.4-.19-.58.22-.96.08-.39-.12-.38-.18-.81-.27-.43-.06-.44-.39-.93-.38-.5.04-.49.52-.9.63-.4.12-.98-.05-1.01-.03l1,1.73s.2-.35.49-.42c.28-.06.31.19.56.17.26,0,.28-.28.58-.23.3.06.2.38.49.47.28.11.41-.47.72-.33.31.15.31.37.58.54.27.18.16.28.4.48s.43.05.67.29c.23.25-.1.53.08.76.16.24.53,0,.69.29.14.29.01.35.11.64s-.12.35-.05.64.53.22.56.56-.42.37-.43.68c-.01.32.14.35.09.68-.05.34-.43.33-.49.57l1.92.57c.08-.3-.17-.33-.08-.72.07-.4.24-.37.29-.79h.02Z"/>
    <path class="st1" d="M81.47,68.6c.37-.15.16-.43.52-.59.35-.16.7.01,1.05-.18.35-.19.28-.32.62-.53.33-.22.51.03.84-.22.33-.25.24-.51.54-.77.31-.27-.19-.65.06-.92.25-.28.79.11,1.04-.2.24-.31.15-.49.38-.81.22-.32.53.07.75-.26.21-.34-.14-.57.06-.9.19-.34.25-.3.43-.65.18-.35.49-.21.66-.58.16-.37-.24-.61-.11-.97.14-.36.66-.59.66-.62l-1.92-.57s.07.48-.06.8c-.12.32-.37.22-.5.53-.14.31.09.43-.07.75-.16.31-.46.14-.63.43-.18.3.36.51.17.81-.2.3-.43.28-.63.57-.22.28-.31.16-.53.43s-.06.46-.29.72c-.25.27-.49-.09-.76.14-.25.22.02.55-.25.77-.28.21-.37.09-.65.28-.3.18-.39.03-.69.19-.29.17-.04.59-.36.76-.33.15-.52-.21-.84-.08-.32.12-.25.31-.59.42s-.51-.19-.76-.12l.51,1.93c.29-.08.18-.32.56-.44s.42.02.8-.12h-.01Z"/>
    <path class="st1" d="M79.1,68.88c.12.13.29.21.47.26.17.05.36.07.55.02h0l-.51-1.93h0c-.16.04-.31.12-.42.23-.12.12-.2.27-.26.44-.05.16-.07.34-.04.52s.11.35.22.47h-.01Z"/>
  </g>
  <g>
    <path class="st1" d="M20.45,53.68c.17,0,.35-.07.5-.15s.27-.22.36-.37c.09-.15.12-.33.11-.51-.02-.18-.05-.38-.18-.54-.12-.16-.32-.28-.53-.37l-.78,1.84c.17.07.35.11.52.1Z"/>
    <path class="st1" d="M12.81,58.01c.04-.36-.33-.32-.27-.7.05-.38.42-.52.51-.86.13-.33-.01-.39.15-.71.18-.32.43-.18.62-.46s.03-.5.29-.77c.26-.26-.25-.62.06-.89.32-.26.76.24,1.06.05.3-.19.29-.4.63-.55.34-.14.39.33.7.23.31-.1.22-.51.58-.58.36-.03.36,0,.72,0s.3.33.63.39c.33.08.52-.37.89-.25.38.13.54.66.56.67l.78-1.84s-.61-.03-1.04-.17c-.43-.13-.36-.37-.83-.48-.48-.08-.57.18-1.03.18s-.49-.31-.98-.26c-.49.1-.23.61-.66.74s-.64,0-1.06.2c-.41.21-.44.05-.84.3-.39.26-.29.49-.63.77-.33.3-.64,0-.97.34-.33.36.02.64-.23,1.01-.27.37-.37.32-.59.73-.2.42-.36.36-.53.81-.12.46.36.54.28.97s-.49.42-.52.88c-.04.46.18.46.17.91.03.44-.31.58-.27.92l1.99-.24c-.04-.28-.28-.21-.31-.6,0-.38.14-.38.16-.74h-.02Z"/>
    <path class="st1" d="M19.22,67.48c-.36-.15-.41.21-.77.04s-.43-.55-.76-.73c-.33-.19-.4-.08-.73-.29-.32-.22-.15-.47-.44-.7-.3-.22-.52-.1-.81-.35-.27-.27-.62.25-.9-.04-.26-.31.2-.78-.03-1.07-.22-.3-.44-.27-.64-.6-.2-.33.26-.44.09-.77-.17-.32-.56-.15-.73-.5-.15-.36-.11-.38-.24-.75-.14-.37.18-.49.07-.85-.09-.36-.59-.3-.66-.69-.09-.39.31-.8.3-.82l-1.99.24s.28.55.37.98-.14.49-.03.92c.14.43.39.35.54.76s-.16.53.02.94c.19.41.65.04.84.43.2.38.1.6.34.98.24.37.1.41.36.77.28.36.51.23.79.57.31.31,0,.63.34.94.34.3.61-.03.96.23.34.27.27.38.63.63.37.23.27.4.66.62s.59-.26.97-.06c.39.18.26.57.67.74.41.16.48-.02.89.12.41.13.41.48.74.56l.51-1.93c-.27-.06-.31.21-.7.09-.38-.12-.32-.27-.68-.4h.02Z"/>
    <path class="st1" d="M21.37,68.48c-.06-.17-.19-.31-.32-.43s-.27-.22-.45-.26h0l-.51,1.93h0c.21.05.43.06.62.02s.36-.15.49-.28c.12-.12.2-.28.23-.46.03-.18,0-.37-.05-.53h-.01Z"/>
  </g>
  <g>
    <path class="st1" d="M50.64,64.5c-.08-.12-.21-.22-.36-.28-.14-.06-.32-.08-.5-.09-.18,0-.35.03-.49.08-.15.05-.31.1-.4.18-.09.07-.13.17-.14.26l1.98.26c.02-.14,0-.29-.09-.4h0Z"/>
    <path class="st1" d="M49.26,69.26c-.12-.05-.33.25-.49.16-.16-.1.06-.38-.03-.46-.09-.1-.25-.03-.34-.15-.08-.14.31-.24.28-.34,0-.11-.36-.12-.34-.28.03-.14-.77-.19-.68-.4.11-.21.92.02,1-.07.1-.09-.05-.22.1-.3.15-.08.47.26.55.2,0,0,.02-.02.02-.04-.02-.1-.12-.42.05-.58.21-.21.25-.18.44-.43.17-.25.46-.11.61-.41.14-.31-.31-.51-.23-.78.07-.26.53-.46.53-.49l-1.98-.26s.17.27.12.45c-.05.17-.29.09-.35.22-.06.13.17.27.08.41-.11.13-.35-.09-.45,0-.11.1.3.45.11.64,0,0,0,.01-.03.02-.25.16-.5.08-.75.26-.23.19-.35.09-.56.33-.19.26.03.37-.09.63-.1.27-.53.23-.57.57-.02.34.42.31.46.59.07.28-.07.32.08.6.16.26,0,.34.2.6.23.25.63-.07.85.1.23.16-.03.48.26.65.3.14.4-.02.7.05s.29.39.57.44l.37-1.97c-.08-.01-.14.24-.29.22-.15-.03-.08-.17-.2-.21v.03Z"/>
    <path class="st1" d="M50.22,69.83c-.03-.16-.11-.28-.19-.38-.07-.1-.22-.19-.28-.2h0l-.37,1.97h0c.17.03.24,0,.35-.06.1-.07.21-.2.29-.34.08-.13.15-.3.18-.48.04-.18.04-.36,0-.51h0Z"/>
  </g>
  <g>
    <path class="st1" d="M66.05,53.78c.11-.02.25-.07.39-.15.13-.08.27-.2.39-.33s.21-.28.26-.42c.06-.15.11-.32.08-.45s-.11-.25-.22-.32l-1.18,1.61c.08.05.17.08.28.06Z"/>
    <path class="st1" d="M60.33,52.58c.2-.03.1-.36.3-.4.21-.02.37.26.57.25.2,0,.2-.15.41-.15s.21.31.41.31c.2,0,.26-.24.47-.23.21.02.21-.59.43-.57.23.02.15.7.35.73.2.03.29-.13.49-.08s.02.47.2.53c.18.06.33-.36.52-.29.19.08.17.12.36.2.19.09.06.39.23.47.16.09.42-.31.61-.21.18.11.08.58.08.58l1.18-1.61s-.4-.04-.62-.16-.1-.35-.33-.47c-.24-.11-.36.14-.58.03-.23-.09-.11-.4-.35-.49-.25-.09-.35.49-.58.42-.23-.07-.25-.28-.49-.34s-.18-.2-.42-.24c-.25-.04-.31.18-.55.16-.24-.03-.2-.46-.45-.48s-.27.42-.51.41c-.24,0-.24-.15-.49-.15s-.25-.18-.51-.17c-.25.02-.18.53-.42.55-.24.02-.32-.37-.57-.32-.25.04-.21.24-.45.3-.24.06-.4-.24-.59-.18l.64,1.9c.13-.04.03-.3.23-.35s.23.1.42.06h0Z"/>
    <path class="st1" d="M59.53,52.23c.07-.05.14-.1.19-.02.07.07,0,.36-.09.47-.07.12-.14.17-.1.19.05,0,.1,0,.14,0h0l-.64-1.9h0c-.06.02-.12.05-.17.09-.08.05-.25.15-.4.35-.17.21-.23.57-.15.69.06.14.14.16.21.16.15,0,.32,0,.5.07.17.06.37.02.51-.09h0Z"/>
  </g>
  <g>
    <path class="st1" d="M40.5,53.38c.1-.05.21-.15.31-.27.1-.12.18-.27.26-.44.07-.17.11-.33.12-.48,0-.16,0-.33-.04-.44-.05-.11-.15-.18-.26-.22l-.65,1.89c.08.03.18.02.27-.03h0Z"/>
    <path class="st1" d="M35.28,53.62c.16-.08-.02-.37.15-.45.18-.08.39.17.56.11.17-.06.13-.19.31-.24.18-.05.26.25.43.2.17-.04.16-.3.34-.33.18-.03.03-.63.24-.65.2-.02.29.64.46.63.18,0,.22-.19.41-.2.19,0,.11.47.28.47.17,0,.21-.42.4-.4.19.02.18.07.36.11.18.03.13.36.3.39.17.04.31-.42.5-.37s.22.52.22.52l.65-1.89s-.35.1-.56.04c-.22-.06-.16-.3-.38-.35-.23-.05-.28.22-.5.19-.22-.04-.17-.36-.41-.39-.23-.02-.22.56-.43.54-.22,0-.28-.22-.51-.21-.22,0-.2-.15-.43-.14-.23,0-.24.26-.46.28-.22.02-.29-.39-.52-.36-.23.04-.14.47-.35.52s-.25-.09-.47-.02-.27-.11-.49-.04c-.22.08,0,.55-.21.63-.2.09-.39-.28-.59-.18s-.11.27-.31.38c-.19.11-.41-.15-.56-.06l1.07,1.69c.11-.07-.04-.29.12-.38s.23.05.39-.04h-.01Z"/>
    <path class="st1" d="M34.13,53.87c.12.09.25.14.35.17.11.03.21.04.28,0h0l-1.07-1.69h0c-.09.06-.17.15-.19.27-.03.12,0,.28.04.43.05.15.13.31.24.45s.24.27.36.37h-.01Z"/>
  </g>
  <g>
    <ellipse class="st1" cx="38.46" cy="61.34" rx="2.07" ry="1.25" transform="translate(-24.42 97.23) rotate(-87.63)"/>
    <g>
      <path class="st1" d="M37.74,63.51c.12.08.15-.04.27.02.12.05.18.17.34.19.15,0,.15-.05.29-.08.13-.04.18.06.32,0,.13-.07.11-.17.21-.25.1-.09-.08-.21,0-.3.08-.08.27.04.34-.06.06-.11.03-.16.08-.27.05-.11.18,0,.23-.11.05-.12-.09-.18-.06-.29.04-.11.06-.11.08-.22.03-.11.14-.1.16-.22.02-.12-.15-.16-.13-.27,0-.11.17-.22.17-.22l-.7-.03s.06.13.06.23c-.01.1-.1.09-.11.18-.02.09.08.12.06.22-.03.1-.13.06-.17.15-.03.09.17.13.13.22-.03.1-.12.09-.16.18-.05.08-.09.05-.14.13-.06.07,0,.13-.06.2-.06.07-.18-.04-.22.01-.06.04.03.17-.05.21s-.1,0-.16,0c-.07.02-.08-.06-.14-.05-.06,0-.08.17-.17.15-.08-.03-.03-.16-.09-.2s-.11,0-.17-.05c-.06-.07.01-.15-.02-.21l-.56.41c.06.08.13.01.21.11.09.09.06.13.17.22h-.01Z"/>
      <path class="st1" d="M37.28,59.83c-.06.11.06.14.01.24-.04.11-.18.13-.21.25-.04.11.01.13-.02.24-.03.11-.13.1-.15.22-.02.12.07.16.06.28,0,.12.21.1.2.21,0,.11-.24.13-.24.24,0,.12.07.15.08.26.01.12-.15.09-.14.22.02.12.17.1.2.21.03.11,0,.12.04.24.03.11-.07.16-.02.28.05.12.21.06.27.17s0,.29.01.29l.56-.41s-.13-.05-.17-.13.03-.12,0-.2c-.03-.08-.13-.06-.15-.15-.03-.09.08-.13.06-.22s-.21-.03-.23-.13c-.02-.11.06-.14.04-.24,0-.1.05-.09.04-.19,0-.1-.08-.11-.08-.22,0-.11.15-.09.17-.19s-.14-.12-.13-.22c.02-.1.06-.09.09-.19s.08-.08.12-.17c.03-.09-.14-.15-.1-.24.03-.1.17-.04.22-.13s-.01-.12.04-.2.16-.03.2-.07l-.52-.46c-.07.08.01.13-.06.22-.07.11-.11.08-.18.18v-.02Z"/>
      <path class="st1" d="M40,60.97c-.01-.12-.13-.08-.14-.2-.02-.11.08-.2.05-.32s-.07-.11-.11-.22c-.03-.11.06-.15.01-.27s-.15-.11-.2-.21c-.07-.11-.22.03-.29-.06s.1-.25,0-.35c-.11-.09-.17-.06-.28-.14-.12-.06,0-.19-.15-.25-.16-.05-.2.1-.34.08-.14,0-.15-.03-.29,0-.13.03-.19-.07-.32,0-.14.07-.05.23-.15.3-.09.08-.29.07-.29.08l.53.46s.02-.13.09-.19c.07-.05.11.02.18,0,.06-.02.03-.13.1-.13.07-.02.08.11.13.11.05,0,.07-.2.15-.17.08.03.08.1.14.15.07.04.02.09.08.14.06.06.13.01.18.09.06.08-.08.16-.03.23.03.08.18,0,.22.11.03.09,0,.11.02.2.03.09-.03.11-.01.2s.19.05.21.15c.01.11-.13.13-.11.23,0,.1.07.1.08.2,0,.11-.12.13-.12.2l.7.03c0-.09-.09-.08-.09-.2,0-.12.05-.12.04-.24h0Z"/>
    </g>
  </g>
  <g>
    <ellipse class="st1" cx="61.11" cy="60.81" rx="2.07" ry="1.25" transform="translate(-2.18 119.35) rotate(-87.63)"/>
    <g>
      <path class="st1" d="M60.39,62.98c.12.08.15-.03.27.02.12.05.18.18.34.19.15,0,.15-.05.29-.08.13-.04.18.06.32,0,.13-.07.11-.17.21-.25.1-.09-.08-.21,0-.3.08-.08.27.04.34-.06.06-.11.03-.16.08-.27.05-.11.18,0,.23-.11.05-.12-.09-.17-.06-.29.04-.11.06-.11.08-.22.03-.11.14-.1.16-.22.02-.12-.15-.16-.13-.27,0-.11.17-.22.17-.22l-.7-.03s.06.13.06.23c-.01.1-.1.09-.11.18-.02.09.08.12.06.22-.03.1-.13.06-.17.15-.03.09.17.13.13.22-.03.1-.12.09-.16.18-.05.08-.09.05-.14.13-.06.07,0,.13-.06.2-.06.07-.17-.04-.22.01-.06.04.03.18-.05.21s-.1,0-.16,0c-.07.02-.08-.06-.14-.05-.06,0-.08.17-.17.15-.08-.03-.03-.16-.09-.2s-.11,0-.17-.05c-.06-.07.01-.15-.02-.21l-.56.41c.06.08.13.01.21.11.09.09.06.13.17.22h-.01Z"/>
      <path class="st1" d="M59.93,59.3c-.06.11.06.14.01.24-.04.11-.18.13-.21.25-.04.11.01.13-.02.24-.03.11-.13.1-.15.22-.02.12.07.16.06.28,0,.12.21.1.2.21,0,.11-.24.13-.24.24,0,.12.07.15.08.26.01.12-.15.09-.14.22.02.12.17.1.2.21.03.11,0,.12.04.24.03.11-.07.16-.02.28.05.12.21.06.27.17s0,.29.01.29l.56-.41s-.13-.05-.17-.13.03-.12,0-.2c-.03-.08-.13-.06-.15-.15-.03-.09.08-.13.06-.22s-.21-.03-.23-.13c-.02-.11.06-.14.04-.24,0-.1.05-.09.04-.19,0-.1-.08-.11-.08-.22,0-.11.15-.09.17-.19s-.14-.12-.13-.22c.02-.1.06-.09.09-.19s.08-.08.12-.17c.03-.09-.14-.15-.1-.24.03-.1.18-.04.22-.13s-.01-.12.04-.2.16-.03.2-.07l-.52-.46c-.07.08.01.13-.06.22-.07.11-.11.08-.18.18v-.02Z"/>
      <path class="st1" d="M62.65,60.44c-.01-.12-.13-.08-.14-.2-.02-.11.08-.2.05-.32s-.07-.11-.11-.22c-.03-.11.06-.15.01-.27s-.15-.11-.2-.21c-.07-.11-.22.03-.29-.06s.1-.25,0-.35c-.11-.09-.17-.06-.28-.14-.12-.06,0-.19-.15-.25-.16-.05-.2.1-.34.08-.14,0-.15-.03-.29,0-.13.03-.19-.07-.32,0-.14.07-.05.23-.15.3-.09.08-.29.07-.29.08l.52.46s.02-.13.09-.19c.07-.05.11.02.18,0,.06-.02.03-.13.1-.13.07-.02.08.11.13.11.05,0,.07-.2.15-.18.08.03.08.1.14.15.07.04.02.09.08.14.06.06.13.01.18.09.06.08-.08.16-.03.23.03.08.18,0,.22.11.03.09,0,.11.02.2.03.09-.03.11-.01.2s.19.05.21.15c.01.11-.13.13-.11.23,0,.1.07.1.08.2,0,.11-.12.13-.12.2l.7.03c0-.09-.09-.08-.09-.2,0-.12.05-.12.04-.24h0Z"/>
    </g>
  </g>
  <g>
    <path class="st1" d="M46.21,74.78c-.15-.04-.32-.03-.48,0-.16.04-.32.12-.46.23-.15.11-.24.25-.3.41-.06.17-.11.35-.07.53.04.17.16.34.3.47l1.4-1.43c-.11-.1-.24-.18-.38-.22h-.01Z"/>
    <path class="st1" d="M54.44,75.78c-.25.18,0,.42-.28.6-.28.17-.59-.01-.86.11-.28.13-.23.24-.52.35-.3.09-.39-.2-.67-.13-.29.06-.32.33-.63.36-.31.04-.17.63-.52.64-.35.01-.36-.67-.66-.7-.3-.02-.4.12-.71.07-.31-.08-.08-.5-.36-.58-.27-.1-.43.31-.73.19-.29-.14-.27-.17-.54-.33-.28-.15-.12-.45-.37-.61-.24-.18-.57.19-.83-.02-.13-.1-.17-.29-.18-.45,0-.16,0-.29,0-.29l-1.4,1.43s.5.2.8.44c.3.24.15.43.47.66.33.22.48-.01.81.17.33.19.19.47.55.64.37.15.47-.43.82-.3.36.1.42.35.8.42.38.06.31.23.7.26.4.04.45-.2.83-.21.38,0,.41.42.82.38s.32-.49.69-.56c.37-.09.41.05.78-.07.36-.14.44.05.8-.12.37-.16.09-.61.42-.78.31-.19.57.14.89-.09.32-.23.19-.39.48-.63.28-.25.58-.07.79-.29l-1.44-1.39c-.16.16.05.33-.19.54-.24.21-.34.08-.58.27l.02.02Z"/>
    <path class="st1" d="M56.06,74.74c-.16-.03-.32,0-.47.03-.14.04-.28.09-.38.2h0l1.44,1.39h0c.13-.14.24-.31.27-.48.04-.18,0-.37-.06-.53-.06-.16-.18-.3-.33-.4s-.32-.17-.48-.21h.01Z"/>
  </g>
  <ellipse class="st1" cx="34.18" cy="71.05" rx=".73" ry=".93" transform="translate(-7.05 3.85) rotate(-5.84)"/>
  <ellipse class="st1" cx="38.63" cy="70.72" rx=".68" ry=".79" transform="translate(-7 4.3) rotate(-5.84)"/>
  <ellipse class="st1" cx="36.65" cy="74.55" rx=".74" ry=".82" transform="translate(-7.4 4.12) rotate(-5.84)"/>
  <ellipse class="st1" cx="68.14" cy="69.31" rx=".93" ry=".73" transform="translate(-7.74 130.05) rotate(-84.16)"/>
  <ellipse class="st1" cx="63.28" cy="70.51" rx=".79" ry=".68" transform="translate(-13.3 126.29) rotate(-84.16)"/>
  <ellipse class="st1" cx="66" cy="73.9" rx=".82" ry=".74" transform="translate(-14.23 132.04) rotate(-84.16)"/>
  <g>
    <path class="st2" d="M24.09,53.79c.12.14.28.24.45.29.16.05.34.04.52,0,.17-.04.32-.14.44-.25.13-.12.26-.25.31-.41s.04-.34,0-.52l-1.96.4c.04.18.12.36.23.49h0Z"/>
    <path class="st2" d="M22.94,42.45c-.01.39.33.31.33.69s-.32.61-.3.99c0,.38.14.38.15.76.02.38-.29.4-.27.79.02.38.29.46.31.84.03.38.62.22.66.59.03.37-.63.49-.59.87.04.38.24.45.28.82.04.38-.43.3-.38.68.05.38.48.33.53.7.05.37,0,.38.06.76.06.37-.26.45-.2.82.07.38.55.35.62.72.07.37-.28.8-.27.83l1.96-.4s-.29-.42-.36-.78c-.06-.36.18-.4.12-.76-.06-.36-.33-.32-.39-.68s.28-.41.22-.77c-.05-.36-.61-.18-.65-.54-.05-.37.13-.51.1-.87-.04-.37.12-.34.08-.7-.03-.37-.28-.39-.31-.75-.03-.37.4-.41.37-.77-.02-.36-.46-.33-.48-.7s.13-.37.11-.74c0-.37.18-.37.17-.74-.01-.36-.51-.32-.51-.69s.4-.4.42-.76c.01-.36-.18-.37-.17-.73.02-.36.37-.43.39-.7l-1.99-.16c-.02.29.24.27.22.66-.02.38-.17.37-.18.76l-.05-.04Z"/>
    <path class="st2" d="M25.56,30.41c-.15.36.2.41.06.77-.14.36-.5.46-.63.83-.13.36,0,.41-.12.77s-.41.28-.52.65c-.11.37.12.53.01.9-.1.37.52.41.43.78-.09.36-.75.26-.84.63-.08.37.07.5,0,.87-.08.37-.5.14-.58.52-.07.38.36.47.29.84s-.12.37-.18.74c-.06.37-.38.35-.44.73-.06.38.42.5.38.88-.05.38-.5.7-.5.73l1.99.16s-.17-.48-.13-.84.28-.32.34-.68c.05-.36-.22-.41-.16-.77s.38-.3.45-.66c.07-.36-.52-.35-.45-.72.07-.36.29-.43.37-.79s.22-.28.3-.64c.09-.35-.14-.45-.05-.81s.51-.25.6-.6c.1-.35-.33-.46-.22-.81.11-.35.24-.31.35-.66s.29-.29.41-.63c.12-.34-.37-.48-.24-.83.13-.34.52-.23.66-.56s-.04-.41.11-.74c.15-.33.5-.26.62-.5l-1.79-.89c-.13.26.12.33-.04.69-.17.36-.3.29-.46.65h-.02Z"/>
    <path class="st2" d="M32.36,20.15c-.26.28.04.45-.21.73-.25.28-.64.24-.88.54-.25.29-.15.38-.39.67-.24.3-.49.11-.73.41s-.09.53-.32.84.33.57.11.88-.79-.04-1.01.28c-.21.32-.11.5-.32.81-.21.32-.52-.05-.73.28s.16.56-.04.89c-.19.33-.25.3-.44.63s-.48.19-.67.53c-.18.34.22.62.04.95-.18.33-.71.46-.73.49l1.79.89s.02-.52.19-.84.39-.2.56-.52c.18-.32-.06-.45.12-.77s.47-.14.65-.45c.19-.31-.36-.52-.16-.83s.42-.3.63-.6c.2-.3.31-.18.51-.48.21-.3.04-.47.25-.77.22-.3.57-.05.78-.34.22-.29-.13-.55.09-.84s.34-.2.57-.48c.23-.28.38-.16.61-.44.24-.28-.17-.58.07-.86.25-.28.57-.03.82-.3.25-.27.11-.4.36-.67s.56-.09.75-.28l-1.41-1.42c-.2.2,0,.36-.26.64-.27.28-.38.16-.64.45l.04-.02Z"/>
    <path class="st2" d="M34.24,18.8c-.17-.05-.35-.02-.52.02-.17.04-.33.12-.46.25h0l1.41,1.42h0c.12-.12.22-.28.27-.43.04-.16.04-.35,0-.52-.04-.16-.13-.33-.25-.46s-.28-.23-.44-.27h-.01Z"/>
  </g>
  <g>
    <path class="st2" d="M33.2,48.82c.1.12.25.22.41.28.15.06.33.06.51.04.18-.02.34-.09.47-.18.14-.09.29-.2.36-.34s.08-.3.06-.46l-1.99.23c.02.16.08.32.18.44h0Z"/>
    <path class="st2" d="M32.66,38.93c0,.33.34.26.33.59,0,.33-.32.52-.32.85s.13.33.13.66-.31.35-.3.68c0,.34.27.41.28.74s.62.21.63.53c.02.33-.65.41-.63.74s.21.4.23.73c.02.33-.45.24-.42.58.02.33.46.3.49.63.03.33-.03.33,0,.66.03.33-.29.38-.26.71.03.33.52.33.55.65.03.33-.36.68-.36.7l1.99-.23s-.25-.39-.29-.72c-.03-.32.22-.35.18-.67-.03-.32-.31-.3-.34-.62s.3-.35.28-.67c-.03-.32-.59-.18-.62-.5-.02-.32.17-.44.14-.76-.02-.32.13-.29.11-.61s-.26-.35-.28-.67c0-.32.41-.35.4-.67,0-.32-.45-.3-.45-.62s.14-.32.14-.64.19-.32.19-.65-.51-.3-.5-.62c0-.33.41-.35.42-.68,0-.32-.19-.33-.18-.65,0-.32.35-.39.36-.63l-2-.07c0,.25.26.23.25.56,0,.33-.16.32-.17.66h.02Z"/>
    <path class="st2" d="M34.2,28.3c-.09.32.25.34.17.66-.09.32-.43.43-.52.75-.08.33.05.36-.03.68-.08.32-.38.26-.45.59s.17.46.1.79c-.06.33.55.34.5.66s-.73.26-.78.59.12.44.08.77c-.04.33-.49.15-.53.49-.04.34.4.39.36.72-.03.33-.08.33-.11.66-.03.33-.35.33-.38.66-.02.34.46.41.44.74,0,.33-.46.62-.46.64l2,.07s-.19-.42-.17-.74c.02-.32.27-.3.29-.62s-.25-.34-.23-.66c.03-.32.36-.28.39-.6.03-.31-.55-.28-.51-.6s.25-.39.29-.71c.05-.32.19-.26.24-.57.05-.31-.18-.39-.13-.71s.48-.24.54-.55c.06-.31-.37-.39-.3-.71.07-.31.21-.28.28-.59.08-.31.26-.26.34-.57s-.42-.41-.33-.73c.08-.31.48-.24.57-.55s-.1-.36,0-.67c.09-.31.44-.28.51-.51l-1.9-.61c-.08.24.18.29.08.61-.09.32-.24.27-.34.6v.02Z"/>
    <path class="st2" d="M39.19,18.68c-.23.25.08.42-.14.67s-.57.23-.78.5-.09.36-.29.63c-.19.28-.46.11-.64.4-.18.29-.02.49-.19.78s.41.52.24.8c-.16.28-.77,0-.93.3s-.03.46-.18.76c-.15.3-.51,0-.66.3-.14.31.25.49.12.8s-.19.29-.31.6c-.12.31-.44.21-.56.53-.12.32.32.53.21.84s-.61.48-.62.5l1.9.61s-.07-.45.03-.76c.11-.3.34-.21.45-.51.11-.29-.14-.39-.03-.69.12-.29.43-.16.55-.45s-.44-.43-.3-.72c.13-.29.36-.29.5-.57.14-.28.26-.18.41-.45s-.05-.43.11-.7.53-.06.69-.33c.17-.26-.2-.49-.03-.76.17-.27.3-.18.48-.44s.33-.15.52-.4-.23-.53-.04-.79c.21-.25.55,0,.76-.24.21-.23.06-.36.28-.6.21-.24.51-.07.67-.24l-1.46-1.37c-.17.19.04.34-.18.6-.23.25-.34.15-.57.4h0Z"/>
    <path class="st2" d="M40.82,17.44c-.16-.05-.32-.03-.48.01-.15.04-.3.11-.41.23h0l1.46,1.37h0c.1-.11.18-.25.2-.4s0-.33-.06-.5c-.05-.16-.15-.32-.28-.44-.13-.13-.28-.23-.43-.27Z"/>
  </g>
  <g>
    <path class="st2" d="M42.95,48.74c.12.16.29.29.46.35.17.06.35.05.52,0,.17-.05.32-.15.44-.28.12-.13.25-.27.3-.46.05-.17.03-.38,0-.58l-1.96.37c.04.22.12.42.25.58v.02Z"/>
    <path class="st2" d="M41.49,35.75c0,.44.34.34.35.78,0,.44-.29.7-.27,1.14s.16.43.18.87c.03.44-.28.47-.24.91.04.44.31.52.35.95.05.44.64.23.69.66s-.6.57-.55,1c.06.43.25.51.31.93.05.43-.42.33-.37.76.05.43.49.38.54.81.06.43,0,.44.06.87s-.26.5-.2.93c.06.43.55.42.62.85s-.28.91-.27.94l1.96-.37s-.3-.49-.37-.91.18-.45.12-.87-.33-.38-.39-.81c-.06-.42.27-.46.22-.88-.06-.42-.61-.22-.66-.65-.05-.42.13-.59.07-1.01-.05-.43.1-.4.05-.82-.06-.42-.3-.44-.35-.87-.05-.42.37-.48.33-.9-.04-.42-.48-.37-.51-.79-.03-.42.11-.43.08-.85-.02-.42.16-.43.14-.85s-.53-.36-.54-.79c0-.43.39-.47.39-.89s-.2-.42-.19-.85c0-.42.35-.52.36-.83l-2-.08c0,.33.25.3.24.74,0,.44-.17.43-.16.88h0Z"/>
    <path class="st2" d="M43.9,21.84c-.15.42.2.44.06.85s-.51.56-.64.98c-.12.42,0,.46-.12.88s-.42.35-.53.78.12.59,0,1.02c-.1.43.53.43.43.85-.09.42-.76.35-.84.78s.08.57,0,1c-.07.43-.5.2-.57.64-.06.44.37.51.31.94-.05.43-.1.43-.15.87-.05.44-.37.43-.41.87-.04.44.44.54.41.97s-.47.82-.47.85l2,.08s-.19-.55-.16-.97c.03-.42.27-.4.31-.82.04-.42-.24-.45-.2-.87.05-.42.37-.37.43-.79.06-.41-.53-.37-.47-.79.06-.42.28-.52.35-.94.07-.41.22-.34.29-.75.08-.41-.15-.51-.06-.92s.51-.33.6-.74c.1-.41-.33-.5-.22-.91s.25-.37.36-.78.3-.35.42-.75c.13-.4-.37-.52-.24-.92.14-.4.53-.31.67-.71s-.04-.46.11-.86c.15-.4.5-.37.62-.66l-1.86-.75c-.12.31.13.36-.02.77-.16.41-.3.35-.45.77l.03.03Z"/>
    <path class="st2" d="M45.22,19.54c-.18.03-.34.15-.49.28-.15.12-.28.28-.36.48h0l1.86.75h0c.07-.19.12-.39.11-.57,0-.19-.09-.38-.19-.53-.1-.15-.24-.27-.4-.34s-.35-.09-.52-.06h0Z"/>
  </g>
  <g>
    <path class="st2" d="M54.25,49.26c.13.14.3.25.47.31.17.05.35.04.52,0,.17-.05.32-.15.43-.28.12-.13.24-.28.28-.47.04-.18.02-.39-.04-.58l-1.94.5c.05.2.14.39.27.53h0Z"/>
    <path class="st2" d="M51.53,37.06c.08.41.4.26.48.67.08.41-.17.71-.09,1.12.09.41.22.38.31.79s-.21.49-.12.89c.09.4.36.45.45.85.09.41.66.15.74.56.09.41-.55.6-.47,1.01.09.41.29.47.38.87.09.41-.4.36-.31.77s.52.32.61.73.04.42.13.83c.09.41-.22.5-.12.91.1.41.58.35.68.76.1.4-.22.89-.21.92l1.94-.5s-.33-.46-.43-.86.14-.46.05-.85c-.1-.4-.36-.34-.46-.74-.09-.4.23-.47.14-.87-.09-.4-.62-.16-.71-.56s.08-.57,0-.98c-.09-.4.07-.39,0-.79-.09-.4-.33-.4-.42-.81-.09-.41.33-.5.24-.91s-.51-.31-.6-.71c-.09-.41.05-.44-.03-.84-.09-.4.1-.44,0-.85-.08-.4-.57-.26-.66-.67-.08-.4.31-.52.23-.92-.08-.4-.27-.37-.34-.77s.25-.56.2-.86l-1.98.31c.05.31.3.23.37.65.07.42-.08.44,0,.85h0Z"/>
    <path class="st2" d="M50.44,23.58c0,.42.34.33.34.75s-.3.67-.3,1.09.14.42.15.84c0,.42-.3.44-.28.86,0,.42.28.51.29.93.02.42.62.26.64.68.02.41-.64.51-.62.93s.22.51.25.93c.04.42-.44.31-.4.73.04.43.48.39.52.81.05.41,0,.42.04.83.05.41-.27.47-.22.89s.54.42.59.83c.06.41-.3.87-.3.9l1.98-.31s-.29-.49-.34-.89c-.05-.4.19-.43.14-.84s-.32-.38-.37-.79.28-.44.24-.86c-.04-.4-.6-.21-.65-.62-.04-.41.15-.55.12-.96-.03-.41.12-.37.1-.78s-.27-.44-.29-.85.41-.44.39-.85-.45-.38-.47-.8c0-.41.13-.42.12-.83,0-.41.18-.42.17-.83,0-.41-.51-.36-.52-.78,0-.41.4-.46.4-.87s-.19-.41-.19-.82.34-.51.35-.81l-2-.04c0,.32.26.28.25.7,0,.42-.16.41-.16.84h.03Z"/>
    <path class="st2" d="M50.87,21.07c-.16.09-.27.26-.36.42s-.16.35-.16.55h0l2,.04h0c0-.2-.03-.39-.1-.55-.08-.17-.22-.3-.36-.41-.14-.1-.32-.16-.49-.18-.18-.01-.36.03-.51.12h-.02Z"/>
  </g>
  <g>
    <path class="st2" d="M65.01,49.12c.12.17.28.3.45.38.16.08.34.09.52.06s.33-.12.45-.25c.13-.13.26-.28.32-.47.05-.19.04-.42,0-.64l-1.97.34c.04.22.12.42.23.58Z"/>
    <path class="st2" d="M62.41,35.94c.12.43.42.25.53.69s-.13.77-.02,1.2c.1.44.25.4.33.84s-.22.52-.14.96.35.49.43.93.65.17.73.62c.08.44-.56.65-.48,1.09s.28.51.36.95c.08.44-.4.38-.32.82s.51.36.59.81c.08.44.03.45.11.9.08.44-.23.53-.15.97.08.44.57.42.65.86.08.44-.27.93-.26.96l1.97-.34s-.31-.54-.39-.99.16-.49.08-.93c-.08-.45-.35-.4-.44-.84-.08-.44.25-.5.16-.95-.08-.45-.62-.2-.7-.64-.08-.44.09-.62,0-1.07-.08-.44.08-.42,0-.87s-.33-.45-.41-.89.33-.55.25-.99c-.08-.45-.51-.34-.59-.78-.08-.44.06-.48-.02-.92-.08-.44.08-.49-.02-.93-.11-.44-.59-.28-.7-.72-.11-.44.27-.58.16-1.02-.12-.44-.31-.39-.42-.83-.12-.44.17-.63.08-.97l-1.92.55c.09.32.33.21.45.64s-.03.47.08.9h.02Z"/>
    <path class="st2" d="M57.73,22.28c.16.42.44.21.6.63s-.04.78.12,1.2.29.37.45.79-.13.53.03.95.44.42.6.87c.16.43.68.09.84.51s-.44.72-.29,1.14c.16.42.37.46.52.88s-.34.43-.19.85c.14.42.56.29.7.71.14.42.09.44.23.87.14.43-.17.55-.03.97.13.43.61.35.74.78s-.17.95-.16.98l1.92-.55s-.36-.51-.49-.95c-.13-.44.11-.51-.03-.94-.13-.44-.4-.36-.54-.79s.18-.53.03-.96c-.14-.43-.65-.12-.79-.55-.15-.43,0-.63-.16-1.06-.16-.42,0-.43-.15-.85-.16-.43-.4-.39-.56-.81s.24-.58.09-.99-.57-.27-.73-.69-.02-.47-.18-.9c-.16-.42.02-.49-.14-.91-.16-.43-.62-.21-.78-.63s.2-.61.04-1.03-.34-.35-.5-.78c-.16-.42.11-.65,0-.97l-1.86.75c.12.31.35.18.51.6s0,.47.17.89h0Z"/>
    <path class="st2" d="M57.13,19.63c-.1.15-.14.36-.16.56-.02.19,0,.4.07.6h0l1.86-.75h0c-.08-.2-.19-.4-.33-.53-.14-.14-.33-.23-.51-.27-.17-.04-.36-.03-.52.04-.17.07-.31.19-.41.34h0Z"/>
  </g>
  <g>
    <path class="st2" d="M73.87,50.67c.09.13.24.24.39.32.15.07.33.09.51.08.18,0,.34-.07.48-.15.14-.09.3-.19.38-.34.08-.14.1-.33.08-.5l-2,.14c.01.16.06.32.15.45h0Z"/>
    <path class="st2" d="M72.33,40.63c.08.33.39.18.47.52.07.33-.19.6-.12.93s.2.31.27.64c.07.34-.23.4-.17.74.06.33.33.37.39.7.06.34.64.13.7.47s-.6.5-.54.83c.05.34.25.39.3.73s-.42.28-.38.62.48.28.52.62c.04.34-.01.35.03.68.04.34-.28.39-.25.73s.52.34.55.68c.03.34-.38.69-.37.71l2-.14s-.24-.44-.27-.79c-.03-.35.22-.37.18-.72-.04-.35-.31-.32-.35-.67s.29-.38.25-.73c-.05-.35-.6-.17-.65-.51-.04-.34.14-.48.08-.82-.05-.34.11-.33.05-.67-.06-.34-.3-.34-.36-.69-.06-.34.36-.42.3-.77-.06-.34-.49-.26-.56-.6s.08-.37.01-.71.12-.38.05-.72-.56-.2-.64-.54c-.07-.34.31-.46.24-.8-.08-.34-.27-.3-.35-.63-.08-.34.22-.5.16-.76l-1.94.49c.06.25.31.15.39.48.08.33-.07.36,0,.7h0Z"/>
    <path class="st2" d="M68.67,30.38c.15.3.42.09.57.4.14.31-.05.62.09.93.14.31.26.26.4.57.14.31-.14.44-.01.75s.4.29.53.6c.12.32.65,0,.78.31.13.32-.48.6-.36.92s.32.33.44.65c.11.32-.37.36-.26.68s.52.19.63.51c.1.32.05.34.15.67.1.32-.2.44-.11.76s.57.23.66.56c.09.33-.25.74-.24.76l1.94-.49s-.31-.39-.41-.73c-.09-.34.15-.4.05-.75-.1-.34-.37-.26-.47-.59s.21-.43.11-.76c-.11-.33-.62-.05-.74-.38-.11-.33.05-.5-.08-.83-.12-.33.04-.34-.08-.67-.12-.33-.36-.28-.49-.61-.13-.32.27-.49.14-.82-.14-.32-.54-.15-.67-.47s0-.38-.14-.7c-.14-.32.03-.4-.11-.72-.15-.32-.6-.07-.74-.39-.15-.32.2-.52.05-.84-.15-.31-.33-.23-.49-.54-.16-.31.1-.54-.02-.78l-1.77.93c.12.22.33.07.49.38.15.3.02.37.17.67v.02Z"/>
    <path class="st2" d="M62.64,21.37c.22.25.43-.02.65.24s.11.61.33.87c.21.26.32.18.53.44.21.27-.03.46.18.73.2.27.46.18.66.45.2.27.63-.17.83.11.2.28-.32.71-.12.98.19.28.39.24.58.52s-.27.44-.08.72c.18.28.55.05.73.34s.13.32.3.61c.17.29-.1.47.07.76s.61.1.77.4c.16.3-.07.78-.06.8l1.77-.93s-.39-.31-.56-.61c-.17-.31.05-.43-.13-.73-.18-.31-.41-.17-.59-.47-.18-.3.11-.47-.08-.77-.19-.3-.62.1-.81-.2-.19-.29-.08-.49-.28-.78s-.05-.34-.24-.63c-.2-.29-.42-.18-.62-.47-.2-.28.14-.54-.07-.82-.21-.28-.56-.01-.77-.29s-.1-.36-.32-.64c-.22-.27-.07-.39-.29-.67-.22-.27-.59.08-.82-.19-.22-.27.06-.56-.17-.82-.23-.26-.38-.14-.61-.39-.23-.26-.04-.55-.23-.74l-1.46,1.36c.17.19.34-.02.57.23s.11.35.34.61v-.02Z"/>
    <path class="st2" d="M61.55,19.62c-.05.16-.04.33,0,.49.03.15.08.31.19.42h0l1.46-1.36h0c-.12-.12-.26-.22-.42-.27-.16-.04-.34-.03-.51.02-.16.04-.32.14-.45.26-.13.13-.23.28-.28.44h0Z"/>
  </g>
</svg>