<?xml version="1.0" encoding="UTF-8"?>
<svg id="_レイヤー_1" xmlns="http://www.w3.org/2000/svg" version="1.1" viewBox="0 0 100 100">
  <!-- Generator: Adobe Illustrator 30.0.0, SVG Export Plug-In . SVG Version: 2.1.1 Build 123)  -->
  <defs>
    <style>
      .st0, .st1 {
        fill: #1c1917;
      }

      .st2 {
        fill: #fff;
      }

      .st1 {
        stroke: #1c1917;
        stroke-miterlimit: 10;
      }
    </style>
  </defs>
  <path class="st2" d="M82.12,49.72c.26,1.01.9,4.52,1.15,6.24,3.62-2.47,7.01-1.89,8.19-.54s2.55,5.23,1.46,7.98c-.73,1.84-2.88,6.17-12.03,8.99-.71,3.79-.77,3.16-2.31,6.52-1.24,2.7-5.41,8.96-13.36,12.42-7.45,3.24-14.14,2.02-19.6,1.02-6.02-1.1-14.83-2.72-19.86-9.82-2.18-3.07-2.63-4.79-3.94-11.25-1.61-.15-7.1-1.62-8.47-3.04-2.37-2.46-3.89-7.53-3.99-8.6-.19-2.14.38-6.97,3.94-7.3,4.15-.38,6.56.89,6.56.35,0,0,.9-5.17,4.97-6.93,4.07-1.77,29.81-4.74,42.08-1.63,13.88,3.52,15.22,5.58,15.22,5.58Z"/>
  <path class="st1" d="M51.18,10.09s-3.99-2.49-9.87-1.91c-8.84.87-20.44,9.13-24.91,20.04-3.76,9.17-4.69,21.34-.89,23.14.48.23,1.22,1.21,2.74,1.43,1.86.27,1.71.26,2.65.05,1.6-.36,2.22-1.69,2.22-1.69,0,0,1.29.31,3.01-.98.67-.5,1.62-1.48,1.73-1.96,0-.02.71.62,2.1.3,1.54-.35,2.54-.41,3.95-1.77,1.36,1.06,2.46.65,4.71.78,2.99.17,4.03.19,5.88-.47,1.95.61,2.6.53,5.05.9,3.39.52,5.48.41,7.04-.67,1.87.29,4.5,1.76,7.69,1.79,2.88.02,4.74-.95,5.61-1.22,1.02.94,2.51,1.46,4.06,1.6,1.61.15,3.4-.08,3.59-.74.73,1.14,1.16,1.38,2.06.87.6,1.62,1.7,6.41,3.56,6.6,2.83.29,5.72-3.93,6.33-6.1,2.49-8.79-.94-18.42-3.26-23.1-1.86-3.76-4.06-8.23-8.99-12.26-1.92-1.57-8.95-7.32-18.54-6.57-3.25.26-5.85,1.18-7.52,1.93Z"/>
  <path class="st0" d="M20.35,52.7c.96,2.17.67,4.33.9,6.49.3,4.35.99,8.61,1.88,12.89,1.11,6.85,3.22,11.96,9.53,15.58,7.58,4.08,16.5,6.01,25.09,5.1,8.71-.75,16.92-5.94,20.64-13.95,1.81-3.98,2.82-8.28,3.51-12.59.02-.14.15-.24.29-.22.14.02.24.16.22.3-.75,4.34-1.84,8.64-3.64,12.68-3.8,8.18-12.07,13.53-20.93,14.54-8.82,1.12-17.99-.58-25.94-4.53-6.72-3.58-9.53-9.19-10.8-16.5-.95-4.3-1.74-8.72-2.1-13.13-.12-2.21-.6-4.44.35-6.67.18-.43.82-.44,1,0h0Z"/>
  <path class="st0" d="M84.72,54.88c2.83-3.8,8.77-.13,9.33,3.79.59,3.95-1.88,7.4-4.53,10.04-1.94,1.57-4.32,2.48-6.72,2.72-.06,0-.12-.04-.13-.1,0-.06.04-.11.09-.12,2.31-.51,4.47-1.61,6.14-3.19,2.62-2.97,5.77-8.35,2.03-11.59-1.56-1.28-3.67-2.09-5.51-.84-.44.31-1.01-.27-.71-.7h0Z"/>
  <path class="st0" d="M18.81,54.59c-4.27-3.12-9.17.44-8.64,5.4.24,5.16,4.29,9.31,9.32,10.32.27.06.45.33.39.6-.06.26-.31.42-.57.38-2.71-.45-5.36-1.59-7.42-3.56-5.7-5.41-5.36-16.57,4.05-17.1,1.76.09,2.97.61,4.48,1.4,1.75,1.07.12,3.66-1.6,2.55h0Z"/>
  <path class="st0" d="M51.03,66.01c.3,1.3-.33,3.03-1.64,3.69-.45.2-.82.71-.69,1.2.14.42.82,1.05,1.26,1.23.32.14,1.95.55,1.12.97-2.58.63-5.29-2.03-2.99-4.19.46-.37,1.1-.51,1.49-.95.48-.45.75-1.17.93-1.97.05-.27.47-.26.51.01h0Z"/>
  <path class="st0" d="M69.47,54.76c-2.4-1.51-5.17-1.92-7.88-1.25-.02-.02,0,.05.1-.21-.17.63-1.13.37-.97-.26.14-.35.25-.34.31-.41,1.41-.9,3.13-1.23,4.78-1.02,1.69.2,3.38,1.03,4.35,2.44.32.44-.25,1.02-.69.72h0Z"/>
  <path class="st0" d="M41.2,53.64c-2.67-.56-5.08-.39-7.58.73-.49.22-.95-.44-.57-.82,2.1-2.26,6.07-2.65,8.56-.82.45.31.1,1.04-.41.91h0Z"/>
  <ellipse class="st0" cx="38.34" cy="62.7" rx="2.29" ry="1.37" transform="translate(-26.54 97.21) rotate(-86.56)"/>
  <ellipse class="st0" cx="63.33" cy="62.58" rx="2.29" ry="1.37" transform="translate(-2.94 122.05) rotate(-86.56)"/>
  <path class="st0" d="M45.98,77.62c2.9,3.86,8.66,4,11.63.15.39-.52,1.19.07.8.6-3.24,4.56-10.07,4.39-13.25-.16-.39-.54.43-1.12.81-.58h0Z"/>
  <ellipse class="st0" cx="33.44" cy="73.31" rx=".81" ry="1.02" transform="translate(-5.98 3.04) rotate(-4.77)"/>
  <ellipse class="st0" cx="38.34" cy="73.04" rx=".75" ry=".87" transform="translate(-5.94 3.44) rotate(-4.77)"/>
  <ellipse class="st0" cx="36.08" cy="77.22" rx=".81" ry=".9" transform="translate(-6.3 3.27) rotate(-4.77)"/>
  <ellipse class="st0" cx="70.93" cy="72.1" rx="1.02" ry=".81" transform="translate(-9.18 133.84) rotate(-83.09)"/>
  <ellipse class="st0" cx="65.55" cy="73.32" rx=".87" ry=".75" transform="translate(-15.12 129.57) rotate(-83.09)"/>
  <ellipse class="st0" cx="68.47" cy="77.11" rx=".9" ry=".81" transform="translate(-16.32 135.81) rotate(-83.09)"/>
  <path class="st2" d="M22.16,52.71c-2.41-13.51,2.19-27.96,12.79-36.84.15-.13.37.09.22.24-7.35,6.79-11.67,16.44-11.86,26.42-.09,3.28.13,6.63.87,9.75.29,1.34-1.73,1.79-2.01.43h0Z"/>
  <path class="st2" d="M33.32,49.2c-.49-.73-.45-1.51-.52-2.28l-.14-2.32c-.51-10.63,1.19-22.66,9.52-30.13.2-.21.53.11.3.32-8.22,8.31-9.1,20.92-8.08,32,.06.76.24,1.51-.09,2.31-.15.41-.76.48-.99.1h0Z"/>
  <path class="st2" d="M16.05,47.14c-2-11.58,2.77-24.1,12-31.39.14-.11.34.09.2.23-8.28,8.04-12.69,19.61-11.83,31.12.02.22-.34.28-.37.04h0Z"/>
  <path class="st2" d="M43.94,48.93c-2.42-10.72-1.87-22.32,3.07-32.24.14-.29.62-.09.48.22-4.43,9.92-4.52,21.21-1.73,31.57.32,1.22-1.52,1.69-1.82.46h0Z"/>
  <path class="st2" d="M55.99,49.22c-2.38-7.95-3.28-16.42-2.84-24.7,0-.17.27-.19.29-.01.28,2.06.48,4.1.73,6.14,1.2,6.06,2.42,12.03,4.01,17.99.31,1.41-1.76,1.97-2.2.59h0Z"/>
  <path class="st2" d="M67.94,49.4c-.71-5.51-1.66-11.11-2.87-16.54-1.07-4.75-3.4-11.42-4.87-16.14-.04-.09.11-.15.15-.06,1.81,4.69,4.53,11.1,5.94,15.87,1.6,5.47,2.9,10.93,3.99,16.53.26,1.57-2.11,1.94-2.33.35h0Z"/>
  <path class="st2" d="M76.79,50.46c.13-7.95-1.41-15.86-4.99-22.99-1.13-2.39-2.64-4.58-4.06-6.82-.17-.25.24-.52.4-.25,1.39,2.26,2.95,4.43,4.11,6.85,2.29,4.82,4.17,9.86,5.31,15.09,0,0,1.72,7.86,1.72,7.86.34,1.8-2.44,2.12-2.5.27h0Z"/>
</svg>