<?xml version="1.0" encoding="UTF-8"?>
<svg id="_レイヤー_1" xmlns="http://www.w3.org/2000/svg" version="1.1" viewBox="0 0 100 100">
  <!-- Generator: Adobe Illustrator 30.0.0, SVG Export Plug-In . SVG Version: 2.1.1 Build 123)  -->
  <defs>
    <style>
      .st0 {
        fill: none;
      }

      .st1 {
        fill: #1c1917;
      }

      .st2 {
        fill: #fff;
      }
    </style>
  </defs>
  <path class="st2" d="M23.09,74.9c.66,2.56,1.85,6.9,5.59,10.56.69.67,2.94,2.77,7.82,4.6,3.78,1.41,14.23,5.32,24.96.25,1.75-.83,7.53-3.66,11.43-10.18,1.3-2.18,2.72-4.46,2.98-7.58.72-8.45-7.53-15.1-10.68-17.64-3.3-2.66-9.39-7.57-18.26-7.64-10.64-.08-22.06,6.85-24.41,16.39-1.15,4.67.05,9.28.56,11.24Z"/>
  <g>
    <path class="st1" d="M23.09,63.97c3.1,1.09,6.04.36,12.17-3.6,1.39-.89,4.94-3.41,8.45-7.08,2.16-2.26,3.87-3.29,4.97-4.97,2.57,2.99,4.45,4.45,6.27,5.96,2.79,2.3,7.55,5.72,13.41,7.95,3.59,1.36,4.79.74,6.89.5,5.18-.6,8.34-5.4,8.76-6.05,1.1-1.73,1.51-3.24,1.86-4.56,1.38-5.15.41-9.45,0-11.18-.79-3.3-2.2-6.44-3.97-9.33-.51-.84-4.7-5.18-4.6-5.88.09-.62,1.47-1.62,1.82-2.24,1.82-3.21.85-7.98-.33-11.24-1.51-4.17-5.94-7.11-10.68-8.2-5.47-1.25-10.89,1.89-12.85,3.1,0,0-5.09,3.6-6.52,9.07-.23.86-.06,2.73.38,3.53-2.3.63-3.92.75-7.27,1.99-2.36.87-5.8,2.69-7.58,3.6-3.91,2-7.26,5.76-10.18,8.94-1.37,1.49-4.74,6.14-6.71,11.92-.92,2.71-.87,6.33-.75,8.32.21,3.38,2.68,8.11,6.46,9.44Z"/>
    <g>
      <path class="st1" d="M58.89,56.15c-.29-.2-.42.12-.72-.09-.29-.21-.28-.58-.56-.79-.29-.21-.37-.1-.65-.32-.28-.22-.1-.46-.38-.68-.28-.22-.51-.07-.78-.29-.28-.23-.58.32-.86.09-.28-.23.11-.78-.17-1.01-.28-.23-.46-.14-.74-.37-.27-.23.12-.5-.15-.73-.27-.23-.56.1-.83-.14-.27-.24-.23-.28-.49-.51-.26-.24-.05-.49-.31-.73-.25-.24-.62.07-.88-.18-.25-.25-.18-.79-.19-.8l-1.43,1.39s.48.2.74.45c.26.26.09.44.36.69.27.26.46.05.73.3.27.24.05.49.32.73.28.24.57-.26.85-.03.28.24.24.46.51.7.28.23.15.32.43.55.28.23.46.07.74.3.28.23.02.57.3.8.29.23.55-.12.84.11.29.23.2.34.49.56.29.22.18.37.47.59.3.22.57-.21.86,0,.3.21.09.57.39.78.3.21.41.05.71.26.3.2.19.53.42.69l1.1-1.67c-.22-.15-.34.09-.64-.11-.3-.2-.2-.33-.5-.53Z"/>
      <path class="st1" d="M68.95,61.49c-.32-.12-.37.23-.71.09-.33-.13-.41-.49-.74-.63-.33-.14-.38-.02-.71-.16-.33-.14-.21-.43-.53-.57-.32-.15-.51.05-.83-.1-.32-.16-.49.44-.81.28-.32-.16-.07-.78-.38-.94-.31-.17-.48-.04-.79-.21-.31-.17.02-.52-.29-.69-.31-.17-.53.21-.84.03-.31-.18-.28-.23-.59-.41-.3-.19-.15-.47-.45-.66-.3-.18-.6.19-.9,0-.3-.19-.34-.73-.36-.75l-1.1,1.67s.51.09.82.28c.31.2.17.41.49.6.32.19.46-.04.77.15.32.18.14.47.46.65.32.19.51-.37.82-.19.32.18.32.41.64.58.32.17.21.29.54.46.33.17.47-.03.8.14.33.16.15.55.48.71.34.16.51-.24.85-.09.33.15.27.29.61.43.34.15.26.32.6.47.34.14.5-.35.84-.21.34.13.22.53.57.66.36.12.41-.05.77.06.36.12.35.47.63.54l.52-1.93c-.24-.07-.28.2-.61.09-.33-.1-.28-.25-.6-.37Z"/>
      <path class="st1" d="M79.3,60.24c-.28.19-.03.44-.33.61-.3.17-.62,0-.92.14-.3.14-.24.28-.56.4-.32.12-.43-.17-.73-.05-.31.08-.32.35-.64.44-.32.07-.1.64-.45.7-.36.06-.47-.59-.85-.55-.37.05-.43.25-.79.31-.35.06-.3-.42-.64-.37-.33.04-.28.48-.62.51-.33.02-.33-.03-.66-.04-.33-.01-.32-.33-.63-.37-.31-.03-.43.42-.77.36-.34-.07-.54-.57-.55-.58l-.52,1.93s.54-.07.92,0c.39.07.34.32.75.37.41.04.43-.24.82-.22.39,0,.4.33.81.31.4-.03.22-.6.6-.64.37-.05.51.13.87.07.35-.06.33.1.67.05.33-.04.37-.29.74-.36.38-.07.48.37.86.26.39-.11.26-.52.63-.63.36-.13.41,0,.77-.14.36-.14.43.02.79-.15.36-.17.09-.6.41-.79.32-.19.58.15.89-.07.32-.22.21-.37.52-.59.3-.23.58-.02.81-.2l-1.27-1.54c-.2.16,0,.34-.28.55-.27.21-.36.07-.64.26Z"/>
      <path class="st1" d="M85.15,51.3c-.08.34.27.35.18.69-.09.35-.45.47-.54.8-.1.33.03.37-.08.7-.11.33-.4.23-.52.54-.12.31.08.48-.06.8-.14.31.45.48.29.8-.17.32-.78.03-.95.32-.18.29-.06.46-.26.74-.2.28-.5-.09-.7.18-.2.27.13.54-.09.81-.22.27-.27.23-.49.49-.23.25-.49.04-.72.28-.24.23.06.61-.2.85-.27.23-.78.11-.8.12l1.27,1.54s.25-.48.53-.73c.27-.26.45-.08.72-.35.27-.28.07-.47.32-.75.25-.28.5-.06.75-.35.24-.3-.27-.56-.05-.86.23-.29.46-.27.67-.59.21-.32.31-.2.52-.53.2-.33,0-.49.18-.82.17-.34.56-.16.72-.51.16-.36-.25-.52-.11-.87.13-.35.27-.3.39-.66.12-.36.3-.3.4-.66.1-.36-.4-.46-.3-.81.1-.35.49-.28.58-.65.09-.37-.09-.41-.02-.77.07-.36.42-.39.47-.67l-1.97-.34c-.05.25.22.27.15.61-.07.34-.22.31-.3.64Z"/>
      <path class="st1" d="M84.77,40.23c.09.34.4.18.49.52.09.34-.17.62-.09.96.08.34.21.32.28.66.06.35-.23.41-.18.75.06.34.32.39.37.73.04.35.64.17.68.53.04.36-.63.47-.6.81.02.35.21.42.22.77,0,.35-.46.23-.46.58,0,.34.43.35.43.71,0,.35-.07.35-.09.7-.02.35-.34.34-.38.68-.04.34.45.45.39.79-.05.35-.52.6-.53.62l1.97.34s-.13-.52-.08-.88c.05-.37.29-.34.33-.72.04-.38-.24-.4-.22-.77.02-.37.36-.35.37-.73,0-.38-.56-.27-.56-.64,0-.37.2-.49.18-.86-.02-.37.14-.34.12-.71-.03-.37-.27-.4-.31-.77-.04-.37.39-.43.34-.8-.05-.37-.48-.3-.54-.67-.06-.37.08-.39.01-.76-.07-.36.11-.4.03-.77-.08-.36-.57-.21-.65-.57-.09-.35.3-.49.2-.85-.1-.36-.28-.31-.39-.66-.1-.35.19-.54.1-.81l-1.9.62c.08.25.32.13.43.47.1.34-.05.38.05.72Z"/>
      <path class="st1" d="M79.68,30.31c.24.27.44-.01.68.26.24.27.14.63.36.9.22.26.34.19.51.43.16.24-.08.45.09.74.18.3.45.25.62.56.17.31.66-.08.83.23.17.32-.39.67-.24.99.16.31.36.31.52.63.16.32-.32.4-.17.72.15.32.54.14.69.47.14.32.09.35.23.67.13.33-.16.47-.04.79.12.33.59.2.71.54.12.34-.19.78-.18.8l1.9-.62s-.35-.39-.47-.74c-.13-.35.11-.43-.02-.78-.14-.35-.39-.25-.53-.59-.14-.34.17-.47.02-.81-.15-.34-.63,0-.78-.34-.15-.33-.02-.52-.18-.85-.16-.33,0-.36-.17-.69-.17-.33-.41-.25-.58-.58-.17-.32.19-.53.01-.86-.19-.32-.56-.1-.74-.41-.2-.33-.03-.36-.29-.73-.26-.35-.1-.45-.35-.74-.24-.29-.6.08-.84-.2-.24-.27.05-.57-.19-.84-.24-.27-.38-.14-.62-.42-.24-.27-.04-.56-.22-.76l-1.51,1.31c.18.21.35,0,.59.28.24.27.12.37.36.65Z"/>
      <path class="st1" d="M79.21,19.91c-.02.33.31.29.27.63-.04.35-.4.48-.45.8-.09.31.04.35-.05.67-.12.31-.4.21-.52.49-.13.25.05.51-.07.68-.15.19.35.55.11.8-.26.27-.72-.23-1.1.16-.35.38-.26.55-.51.93-.18.32-.45.24-.64.46-.04.05-.05.12-.03.22.08.52.53.46.74.87.26.4.2.42.5.82.26.34,0,.52.24.82.24.29.64.02.87.3.24.28.13.82.15.83l1.51-1.31s-.46-.22-.69-.49c-.23-.27-.04-.43-.26-.7-.21-.26-.46-.13-.63-.34-.14-.18.17-.32.09-.45-.08-.13-.7.01-.81-.24-.02-.07,0-.13.04-.17.11-.13.29-.17.39-.3.15-.18.28-.08.41-.23.12-.12.04-.38.29-.63.27-.29.58.04.91-.43.24-.44-.19-.58,0-.95.15-.36.28-.31.42-.69.11-.38.29-.33.4-.72.08-.39-.43-.45-.36-.82.05-.37.46-.36.5-.75.02-.39-.17-.4-.15-.78,0-.38.34-.47.33-.77l-2,.06c0,.25.26.21.27.56,0,.34-.17.33-.18.67Z"/>
      <path class="st1" d="M76.21,9.62c.21.26.44-.02.65.26.2.28.08.61.25.89.17.28.31.21.46.51.15.3-.11.44.02.73.12.3.4.27.52.59.11.33.66.03.77.37.11.34-.51.59-.41.92.09.34.3.37.39.71.09.34-.39.33-.31.67.07.33.5.25.57.59.06.34.01.35.07.7.05.34-.27.41-.22.75.03.34.52.34.55.68.02.35-.39.69-.39.7l2-.06s-.23-.49-.26-.86c-.04-.37.21-.4.17-.78-.05-.38-.33-.34-.38-.71-.07-.37.26-.42.19-.79-.08-.37-.62-.14-.7-.5-.08-.36.08-.52-.01-.88-.1-.36.06-.36-.04-.71-.11-.36-.35-.33-.47-.68-.12-.35.28-.5.16-.85-.15-.37-.55-.2-.7-.55-.16-.35-.04-.41-.22-.75-.18-.35-.03-.43-.24-.77-.21-.34-.61-.02-.83-.32-.22-.3.08-.59-.17-.88-.26-.29-.39-.17-.65-.44-.27-.27-.09-.58-.3-.78l-1.37,1.45c.18.17.34-.03.58.21.24.24.12.35.34.6Z"/>
      <path class="st1" d="M66.66,4.71c.33.03.3-.32.64-.26.34.07.47.39.8.47.33.09.37-.05.71.04.33.1.25.4.58.5.33.1.48-.11.81,0,.33.12.45-.49.78-.35.33.14.12.76.42.91.31.15.47.01.78.17.31.17-.02.52.28.68.3.16.52-.2.81-.02.3.18.27.23.55.42.28.2.12.46.38.67.26.21.61-.15.87.08.26.23.21.76.22.77l1.37-1.45s-.51-.18-.8-.43c-.3-.24-.14-.43-.45-.67-.31-.24-.48,0-.79-.22-.31-.22-.12-.49-.45-.69-.33-.2-.52.35-.84.16-.33-.18-.33-.41-.67-.59-.34-.16-.23-.28-.57-.44-.34-.16-.48.05-.83-.09-.34-.15-.2-.54-.56-.67-.36-.13-.49.28-.85.17-.36-.11-.31-.25-.67-.36-.36-.09-.32-.28-.68-.37-.37-.09-.45.43-.82.35-.37-.06-.34-.5-.73-.52-.39-.04-.4.16-.78.13-.38-.02-.46-.35-.76-.35v2c.26,0,.23-.26.57-.26.34.02.32.18.66.21Z"/>
      <path class="st1" d="M56.17,7.63c.3-.18.06-.44.37-.61.31-.18.64,0,.95-.16.31-.17.25-.28.57-.44.32-.16.46.12.77-.02.31-.15.29-.41.61-.55.32-.13,0-.67.33-.79.34-.12.61.48.94.37.33-.1.35-.31.69-.41.34-.09.34.39.67.3.33-.09.23-.51.57-.58.34-.07.35-.02.69-.08.34-.05.41.27.74.23.33-.04.34-.51.68-.54.35-.04.67.41.69.41v-2s-.51.2-.88.24c-.38.03-.4-.23-.79-.18-.38.05-.35.33-.72.38-.37.07-.43-.26-.8-.18-.38.08-.14.61-.49.7-.36.1-.53-.08-.88.04-.36.11-.36-.05-.72.07-.36.12-.31.37-.66.5-.35.13-.51-.26-.86-.11-.35.14-.17.54-.5.7-.34.15-.4.02-.73.19-.33.17-.42,0-.75.17-.33.18-.06.6-.38.78-.32.18-.55-.16-.87.03-.34.2-.18.33-.56.58-.32.24-.59.03-.82.21l1.27,1.55c.2-.16,0-.35.28-.56.21-.16.32-.03.62-.21Z"/>
      <path class="st1" d="M49.67,16.21c.1-.32-.25-.35-.15-.68.11-.33.49-.4.61-.72.12-.32.02-.37.16-.68.16-.31.42-.18.59-.47.17-.29-.02-.49.16-.79.19-.29-.39-.53-.19-.83.19-.3.78.04.98-.23.2-.28.1-.46.32-.73.22-.27.5.12.72-.15.23-.26-.1-.55.13-.81.24-.26.28-.22.52-.47.24-.25.49-.03.73-.27.25-.23-.04-.62.22-.86.27-.24.79-.11.8-.12l-1.27-1.55s-.24.47-.52.72c-.27.25-.45.07-.72.33-.27.27-.08.46-.34.73-.26.27-.5.04-.75.32-.25.29.25.58.01.86-.24.28-.46.25-.7.54-.23.29-.32.17-.55.47-.22.31-.06.48-.26.79-.2.31-.57.09-.77.42-.19.34.19.55,0,.87-.18.33-.3.27-.47.61-.16.34-.35.26-.49.62-.14.36.34.51.21.86-.12.35-.51.26-.63.63-.06.18-.04.29-.02.39.02.12.04.25.01.46-.05.41-.38.49-.38.81l2-.02c0-.23-.27-.21-.24-.52.04-.32.17-.19.27-.53Z"/>
      <path class="st1" d="M36.48,25.21c.35-.18.12-.44.48-.62.35-.18.7,0,1.06-.18.35-.18.3-.3.65-.47.36-.17.5.1.85-.07.35-.17.33-.44.69-.6.36-.16,0-.67.36-.83.37-.16.68.44,1.03.29.36-.14.37-.35.74-.48.37-.13.39.35.76.22.36-.13.23-.54.61-.66.37-.12.39-.07.76-.17.37-.11.48.2.85.1.37-.1.31-.58.69-.67.38-.09.84.25.86.24l-.44-1.95s-.46.32-.85.41c-.39.1-.45-.15-.85-.04-.4.11-.33.37-.72.49-.39.11-.48-.2-.87-.08-.39.13-.09.63-.47.76-.38.13-.57-.01-.95.12-.38.14-.39-.02-.77.13-.38.15-.33.4-.7.56-.37.16-.55-.23-.92-.06-.37.17-.18.56-.54.73-.36.17-.42.04-.79.22-.36.18-.44,0-.8.18-.36.18-.1.62-.45.79-.36.18-.58-.17-.93.02-.36.18-.27.35-.62.54-.35.18-.59-.07-.86.06l.92,1.78c.27-.14.11-.35.47-.54.36-.18.42-.04.78-.22Z"/>
      <path class="st1" d="M26.65,32.82c.27-.29-.04-.46.24-.75.27-.29.66-.24.93-.52.28-.28.18-.38.46-.65.28-.28.5-.07.78-.34.28-.27.17-.53.46-.79.29-.26-.22-.63.08-.9.3-.26.78.2,1.07-.05.3-.25.25-.45.55-.7.31-.24.48.21.78-.02.3-.23.05-.58.37-.81.31-.23.35-.17.67-.39.32-.22.52.06.83-.14.32-.2.13-.63.47-.82.34-.18.88.03.89.02l-.92-1.78s-.35.41-.72.61c-.36.2-.49-.02-.85.2-.36.22-.22.45-.56.68-.34.23-.53-.06-.87.19-.34.24.1.63-.22.87-.32.25-.55.17-.86.42-.31.26-.37.11-.69.37-.31.27-.18.48-.49.75-.3.27-.59-.04-.89.24-.3.28.01.59-.28.87-.29.28-.39.18-.68.46-.29.28-.42.15-.7.44-.28.29.11.61-.16.9-.28.29-.6.04-.87.33-.27.29-.13.42-.4.72-.27.29-.59.14-.79.36l1.47,1.35c.2-.22-.02-.37.25-.66.27-.29.38-.18.65-.47Z"/>
      <path class="st1" d="M19.59,43.1c.17-.35-.18-.42-.01-.78.18-.35.56-.42.73-.77.18-.34.06-.41.25-.75.18-.35.46-.2.65-.54.19-.34.01-.55.21-.88.2-.34-.39-.55-.18-.89.21-.34.8-.03,1.01-.36.21-.32.11-.51.33-.83.22-.32.52.05.74-.26.22-.31-.13-.58.11-.89.23-.31.28-.28.52-.58.24-.3.51-.11.74-.39.23-.27-.06-.65.2-.94.27-.29.84-.27.85-.29l-1.47-1.35s-.2.52-.46.81c-.27.29-.45.11-.73.44-.27.33-.07.5-.32.82-.25.32-.51.11-.76.45-.25.33.29.57.06.9-.24.33-.47.32-.7.65-.23.33-.32.21-.55.55-.22.34-.04.51-.25.85-.21.34-.58.13-.79.48-.21.35.17.56-.02.91-.2.35-.33.28-.52.64-.19.36-.36.27-.55.63-.18.36.29.56.11.92-.18.36-.56.22-.73.59-.17.37,0,.45-.16.82-.16.37-.51.33-.63.61l1.85.77c.11-.27-.14-.33.01-.69.15-.36.29-.29.46-.65Z"/>
      <path class="st1" d="M17.59,55.08c-.04-.36-.37-.24-.4-.62-.02-.39.27-.64.26-1.02-.01-.39-.15-.39-.15-.78,0-.39.3-.4.31-.78,0-.38-.25-.48-.23-.87.02-.39-.6-.3-.57-.7.03-.4.7-.39.74-.77.04-.38-.13-.5-.07-.88.06-.38.5-.17.56-.53.07-.36-.35-.46-.26-.83.09-.37.15-.35.26-.71.11-.36.44-.28.57-.64.13-.36-.31-.58-.16-.95.15-.37.67-.54.69-.56l-1.85-.77s0,.57-.15.95c-.15.38-.38.29-.52.68-.14.39.12.47-.01.87-.13.4-.44.31-.55.73-.1.42.49.42.4.82-.07.4-.3.5-.35.9-.06.41-.2.34-.25.75-.04.41.19.48.17.89-.03.41-.45.39-.47.8-.01.41.42.42.42.82,0,.4-.15.4-.15.81,0,.41-.19.41-.17.82.01.41.52.35.54.75.02.4-.37.48-.33.91.06.43.26.4.33.81.1.41-.21.59-.12.91l1.92-.54c-.07-.26-.31-.16-.4-.53-.08-.36.09-.39.02-.75Z"/>
      <path class="st1" d="M24.68,63.45c-.34-.05-.34.29-.7.2-.36-.1-.49-.45-.8-.59-.32-.14-.38,0-.7-.17-.32-.17-.17-.43-.45-.63-.29-.19-.51-.04-.79-.27-.28-.23-.6.3-.88.03-.29-.27.16-.78-.08-1.05-.25-.27-.44-.23-.67-.53-.23-.3.24-.47.03-.76-.2-.3-.57-.08-.77-.4-.19-.32-.14-.36-.31-.69-.18-.33.12-.5-.03-.83-.15-.33-.6-.21-.74-.57-.13-.36.19-.82.18-.84l-1.92.54s.35.48.5.87c.15.39-.09.49.08.88.17.39.42.28.61.65.19.37-.11.53.11.9.22.37.63-.03.86.31.23.34.14.57.4.9.26.33.1.39.39.71.29.32.49.19.8.48.3.29.03.62.37.9.34.29.6-.08.95.16.35.24.29.35.67.57.38.21.32.36.73.54.42.18.54-.35.94-.21.4.1.35.52.79.6.44.07.46-.12.89-.09.43.04.54.34.88.35l-.09-2c-.26,0-.22.27-.58.26-.36-.03-.34-.17-.68-.23Z"/>
      <path class="st1" d="M35.71,58.99c-.32.22-.06.45-.38.67-.32.22-.69.08-1.02.29-.33.21-.26.33-.6.54-.34.2-.5-.05-.84.15-.33.2-.28.47-.62.67-.34.19.07.67-.28.86-.35.19-.71-.38-1.05-.19-.34.17-.35.38-.69.55-.35.17-.42-.32-.76-.16-.34.15-.18.56-.54.69-.36.14-.37.09-.73.2-.36.12-.47-.19-.81-.11-.34.09-.3.55-.67.63-.18.03-.37-.07-.51-.16-.14-.09-.23-.19-.24-.2l.09,2s.56-.24.98-.32c.42-.08.48.18.9.07.43-.11.35-.37.75-.5.4-.13.5.18.9.03.4-.15.06-.63.44-.8.37-.17.58-.03.94-.21.36-.18.39-.02.76-.21.36-.19.29-.43.65-.62.35-.2.57.17.92-.03.35-.2.13-.57.47-.78.34-.21.42-.08.76-.29.34-.21.44-.05.78-.27.34-.22.03-.62.37-.84.34-.22.6.09.93-.14.33-.23.22-.39.55-.63.33-.24.61-.02.85-.21l-1.2-1.6c-.23.17-.05.36-.37.6-.32.23-.41.1-.72.33Z"/>
      <path class="st1" d="M45.24,50.59c-.3.27,0,.46-.31.73-.3.27-.68.21-.98.49-.29.29-.2.38-.49.67-.29.29-.52.09-.79.37-.27.28-.15.53-.43.8-.28.27.24.63-.05.9-.29.27-.79-.17-1.07.1-.29.26-.23.47-.52.73-.29.26-.5-.18-.79.08-.29.26-.01.59-.31.85-.3.25-.34.21-.64.46-.3.25-.53,0-.83.25-.31.24-.05.66-.36.9-.31.24-.86.12-.88.13l1.2,1.6s.29-.48.61-.73c.32-.25.47-.05.79-.3.32-.26.14-.47.45-.73.31-.26.52,0,.83-.26.31-.26-.16-.62.14-.88.3-.27.53-.2.83-.47.3-.27.36-.13.66-.4.29-.28.16-.49.45-.76.29-.28.59.02.88-.27.29-.29-.03-.59.25-.88.28-.29.39-.19.65-.46.27-.28.41-.14.68-.41.28-.27-.1-.61.19-.88.29-.27.59,0,.88-.25.29-.26.17-.41.46-.67.3-.27.6-.08.83-.29l-1.35-1.47c-.22.2,0,.36-.3.63-.3.26-.4.15-.7.41Z"/>
      <g>
        <path class="st1" d="M47.39,21.05l.07-.02.08-.02.16-.03.16-.03.07-.02.07-.03.03-.02.03-.02.02-.02.02-.03.04-.06.03-.06.03-.06.04-.06.02-.03.02-.03.02-.02.03-.02.03-.02.03-.02.08-.03c.06-.01.11-.02.17-.04l.09-.02.08-.02h.04s.04-.03.04-.03l.03-.02.03-.02.04-.05.04-.05.06-.1.05-.1.03-.05.04-.05.02-.03v-.02s0,0,0,0h0s0,0,0,0v-.04s-.02-.04-.02-.04l-.03-.08-.03-.08-.03-.09-.02-.08v-.04s0-.04,0-.04v-.04s0-.03,0-.03v-.03s.02-.03.02-.03l.02-.03.02-.03.04-.05.05-.05.05-.04.04-.05.02-.02v-.03s.03-.03.03-.03v-.03s.02-.09.03-.14l.02-.15c.01-.1.02-.21.03-.3v-.03s0-.03,0-.03v-.05s-.03-.05-.03-.05l-.02-.05-.03-.05-.02-.05v-.03s-.01-.03-.01-.03v-.03s0-.03,0-.03v-.03s.01-.03.01-.03v-.03s.03-.03.03-.03l.05-.07.05-.06.05-.07.04-.07.02-.03v-.03s.02-.04.02-.04v-.04s-1,0-1,0h-.5s-.5,0-.5,0c0,.03,0,.05,0,.07,0,.02,0,.04.01.06v.05s.01.02.01.02v.03s0,.03,0,.03v.03s.01.03.01.03v.03s.04.07.06.11l.02.06.02.07v.04s0,.05,0,.05v.05s-.01.05-.01.05c0,.02,0,.04-.01.06,0,.02,0,.05-.01.08,0,.06-.01.12-.02.19,0,.06-.02.13-.02.19v.04s-.01.02-.01.02c-.04.15-.08.29-.12.43v.02s-.02.02-.02.02l-.03.04-.03.03-.03.03-.03.02-.03.02-.03.02-.07.02s-.09.02-.12.03l-.05.02h-.02s-.02.02-.02.02h-.02s-.02.02-.02.02h-.02s-.02,0-.02,0h-.05s-.05-.02-.05-.02l-.05-.02h-.05s-.03-.02-.03-.02h-.03s-.02,0-.02,0h-.02s-.03.01-.05.02c-.02,0-.04,0-.07.01-.05,0-.1.02-.14.02l.11.49.11.49.22.98.06-.02.06-.03s.08-.05.13-.07l.13-.08.07-.03.07-.03Z"/>
        <path class="st0" d="M46.16,18.49c.32-.8.31-.78.48-1.2h0s0,0,0,0h0s0,0,0,0h.02s.03,0,.03,0h.06s.12,0,.12,0h.25s.5,0,.5,0h1s2-.02,2-.02v.23s.02.24.02.24l.03.24.03.23.04.22.05.19.02.08v.04s.02.01.02.01h0s.01.05.01.05h0s0,0,0,0h0s0,0,0,0l1.22,2.23-2.45.67-1.3.33-1.25.28-.44-1.95-.22-.98-.11-.49-.05-.24-.03-.12v-.06s-.02-.03-.02-.03v-.02s0,0,0,0h0s0,0,0,0h0c-.03.07-.03.07-.05.11Z"/>
      </g>
      <g>
        <path class="st1" d="M50.68,49.26l-.06-.05-.05-.06-.1-.13-.11-.12-.06-.05-.06-.05-.03-.02h-.03s-.03-.02-.03-.02h-.03s-.07-.01-.07-.01h-.07s-.07,0-.07,0h-.07s-.04,0-.04,0h-.03s-.03-.02-.03-.02h-.03s-.03-.03-.03-.03l-.03-.02-.06-.06-.06-.07-.06-.07-.06-.07-.06-.06-.03-.03-.03-.02-.03-.02h-.03s-.06-.03-.06-.03h-.06s-.11-.02-.11-.02h-.12s-.06-.01-.06-.01h-.07s-.03-.02-.03-.02h-.02s0,0,0,0h0s0,0,0,0l-.03.03-.03.03-.06.07-.06.07s-.08.1-.12.14l-.03.03-.03.03-.03.02-.03.02h-.03s-.03.02-.03.02h-.03s-.03,0-.03,0h-.07s-.07-.02-.07-.02h-.06s-.06-.01-.06-.01h-.03s-.03,0-.03,0h-.03s-.03.02-.03.02c-.04.02-.09.05-.13.08l-.14.09c-.09.06-.19.12-.27.17l-.03.02-.02.02-.02.02-.02.02-.03.05-.03.05-.02.05-.03.05-.02.03-.02.03-.02.02-.03.02-.03.02-.03.02h-.04s-.04.02-.04.02h-.08s-.09.02-.09.02h-.09s-.09.03-.09.03h-.04s-.04.03-.04.03l-.04.02-.03.03.68.74.34.37.34.37s.03-.04.05-.05l.03-.04.03-.04.02-.02.02-.02.02-.02.02-.02v-.02s.03-.02.03-.02c.01-.03.03-.07.05-.11l.03-.06.02-.03.02-.03.03-.03.03-.03.04-.03.05-.03s.03-.02.05-.03c.02-.01.04-.03.07-.04.05-.03.1-.07.16-.1.06-.03.11-.07.16-.1l.04-.02h.02s0-.01,0-.01h0s.25-.05.25-.05h0s.03,0,.03,0h.02s.05,0,.05,0h.04s.04.03.04.03l.04.02.03.02.03.02.06.05s.07.07.1.1l.04.04.02.02h.02s.02.03.02.03l.02.02.02.02v.02s.03.05.03.05l.02.05.02.06.02.05v.03s.03.02.03.02l.02.02.02.02s.02.02.04.04l.05.05s.07.08.1.11l.36-.35.36-.35.72-.7-.05-.04-.06-.04s-.08-.05-.13-.08l-.14-.08-.07-.04-.06-.05Z"/>
        <path class="st0" d="M48.89,51.68c-.42.05-.4.05-.63.08h0s0,0,0,0h0s0,0,0,0h-.01s-.02-.03-.02-.03l-.04-.05-.08-.09-.17-.18-.34-.37-.68-.74-1.35-1.47.43-.41.2-.2.19-.2.18-.2.08-.1.08-.1.15-.2.14-.2,1.46-2.21,1.73,2.01.84.95.86.92-1.43,1.39-.72.7-.36.35-.18.17-.09.09-.04.04-.02.02h-.01s0,.02,0,.02h0s0,0,0,0h0c-.09,0-.09,0-.14.01Z"/>
      </g>
    </g>
  </g>
  <path class="st2" d="M20.48,53.6c-3.26-.95-6.58,2.63-6.89,2.98-2.23,2.48-2.53,5.37-2.79,8.01-.22,2.17-.67,6.61,1.86,10.99.89,1.53,3.31,4.91,6.71,4.91s4.9-2.78,5.59-3.97c1.99-3.43,1.71-6.76,1.3-11.74-.46-5.62-1.87-7.81-2.79-8.94-.67-.82-1.55-1.82-2.98-2.24Z"/>
  <path class="st2" d="M81.44,54.45c-2.45.04-3.5.74-5.41,2.46-2.21,1.99-2.88,4.41-3.56,8.16-.77,4.22-.3,7.67.66,10.25.87,2.32,3.2,4.97,6.27,5,4.1.03,6.72-3.48,7.61-4.79,2.12-3.09,2.81-10.37,1.42-14.47-1.21-3.55-3.51-5.93-6.99-6.6Z"/>
  <g>
    <path class="st2" d="M75.82,57.01c-.99-2.48-3.7-5.54-5.4-6.96-4.11-3.41-10.92-9.22-22.36-8.82-9.3.32-16.02,5.08-18.26,6.71-3.74,2.72-5.7,4.93-7.27,7.08l-2.61-1.43c.46-2.03,1.25-3.44,3.54-6.77.51-.75,3.02-4.3,7.7-7.2,7.39-4.58,14.98-4.28,19.62-4.1,5.02.2,11.16.31,17.26,4.47,1.4.95,5.39,3.88,8.32,9.07,1.61,2.86,1.87,5.26,2.17,6.15l-1.49.99-1.04.7"/>
    <g>
      <path class="st2" d="M74.82,56.93c.13.09.3.15.48.17.17.02.35-.02.51-.08.17-.07.3-.18.4-.32.1-.14.2-.31.21-.5,0-.18-.06-.38-.15-.56l-1.77.93c.07.15.19.28.32.37Z"/>
      <path class="st2" d="M67.61,48.92c.29.23.44-.09.73.15.29.24.27.62.55.85.29.24.38.14.67.38.29.24.11.49.37.71.26.23.5.1.76.35.26.25.61-.26.87,0,.26.27-.19.77.06,1.03.24.27.45.21.68.49.24.28-.2.48.03.76.23.28.57.01.8.3.22.29.18.32.4.62.21.3-.04.5.15.79.2.29.63.08.82.39.19.32-.03.81-.03.83l1.77-.93s-.43-.36-.64-.7c-.2-.34,0-.47-.22-.8-.22-.33-.45-.17-.68-.49-.23-.31.04-.51-.2-.82-.24-.31-.62.14-.86-.16-.24-.29-.17-.52-.42-.81-.25-.29-.11-.36-.37-.64-.27-.28-.47-.15-.74-.43-.27-.27.02-.58-.27-.86-.29-.27-.58.06-.87-.2-.3-.26-.2-.36-.49-.6-.29-.24-.17-.39-.46-.63-.29-.24-.59.18-.88-.06-.29-.24-.07-.58-.37-.82-.3-.24-.42-.09-.72-.32-.3-.23-.18-.55-.41-.73l-1.19,1.61c.22.17.35-.07.65.16.3.22.2.35.49.58Z"/>
      <path class="st2" d="M57.3,43.3c.35.12.37-.23.72-.11.35.12.45.48.8.6.34.14.39.01.73.15.34.14.23.42.57.56.33.15.52-.05.85.11.33.16.49-.44.83-.28.34.17.08.79.4.96.32.17.49.05.82.23.32.19-.03.52.29.71.31.19.54-.18.86,0,.31.2.28.25.59.45.31.2.15.48.45.69.3.21.62-.15.92.06.31.21.33.77.34.78l1.19-1.61s-.52-.13-.84-.35c-.31-.22-.17-.42-.49-.65-.32-.22-.48.02-.8-.19-.32-.21-.14-.49-.46-.7-.33-.2-.53.35-.86.16-.33-.19-.33-.43-.67-.62-.34-.18-.23-.29-.57-.48-.34-.18-.49,0-.83-.16-.35-.16-.17-.55-.52-.72-.35-.16-.52.23-.87.08-.36-.14-.3-.28-.66-.42-.36-.14-.29-.32-.65-.47-.37-.13-.5.37-.87.24-.36-.12-.27-.52-.64-.64-.37-.13-.43.08-.8-.03-.37-.1-.38-.45-.66-.53l-.49,1.94c.26.07.29-.19.65-.1.36.1.31.24.66.34Z"/>
      <path class="st2" d="M45.66,42.33c.36-.04.25-.37.61-.42.37-.04.61.27.97.24.37-.02.36-.16.73-.18.37-.01.39.3.75.3.36,0,.45-.26.82-.26.37,0,.27-.62.64-.61.38.02.4.69.76.72.36.02.47-.16.84-.13.37.02.19.47.55.52.36.05.42-.38.78-.34.37.05.36.1.72.15.36.06.32.39.68.46.35.07.5-.39.87-.32.37.06.59.59.61.59l.49-1.94s-.53.06-.91,0c-.38-.08-.33-.32-.71-.4-.38-.07-.43.19-.81.13-.38-.05-.33-.38-.71-.43-.39-.05-.34.53-.72.48-.38-.05-.48-.26-.86-.28-.38-.02-.33-.17-.71-.2-.39-.02-.44.21-.83.19-.38,0-.38-.43-.77-.43-.39,0-.38.44-.76.44-.38,0-.39-.15-.77-.13-.39.02-.39-.16-.78-.14-.39.03-.31.53-.69.55-.38.03-.46-.36-.84-.31-.38.05-.36.24-.74.29-.38.04-.52-.26-.82-.21l.34,1.97c.27-.05.19-.31.56-.36.37-.05.38.11.75.06Z"/>
      <path class="st2" d="M34.51,45.99c.33-.17.09-.43.42-.61.33-.17.66,0,.99-.15.33-.16.27-.28.61-.44.34-.15.47.13.81-.02.34-.14.31-.43.66-.56.34-.13.01-.66.36-.8.35-.13.63.46.98.35.35-.12.37-.32.72-.44.35-.12.36.36.71.26.35-.1.23-.52.59-.62.35-.1.37-.05.73-.14.36-.08.45.23.81.15.35-.08.3-.57.67-.63.37-.07.78.3.8.29l-.34-1.97s-.46.29-.84.36c-.38.07-.43-.16-.81-.08-.38.09-.32.36-.69.45-.38.09-.45-.23-.83-.12-.37.11-.1.63-.47.73-.37.1-.54-.05-.91.08-.36.12-.37-.04-.74.09-.37.12-.32.37-.68.51-.36.14-.52-.26-.88-.11-.36.15-.18.55-.53.7-.35.15-.41.02-.76.18-.35.17-.43,0-.78.16-.35.17-.09.6-.43.78-.34.18-.56-.17-.9.01-.34.18-.24.36-.58.55-.33.19-.59-.06-.83.1l1.03,1.72c.23-.14.07-.35.39-.53.32-.18.39-.05.72-.23Z"/>
      <path class="st2" d="M25.17,53.19c.25-.27-.06-.44.2-.71.26-.27.63-.2.89-.46.26-.26.17-.35.44-.61.27-.25.49-.03.76-.27.28-.24.17-.49.45-.73.28-.24-.2-.63.09-.87.29-.23.75.25,1.04.02.29-.22.25-.43.55-.65.3-.22.47.23.76.01.3-.22.05-.57.35-.79.3-.21.33-.17.64-.38.31-.21.5.05.81-.15.31-.2.09-.63.4-.83.32-.19.83,0,.85-.01l-1.03-1.72s-.32.43-.65.64c-.32.21-.46,0-.78.21-.32.22-.17.45-.49.66-.31.22-.5-.06-.82.16-.31.22.12.62-.19.84-.3.23-.52.14-.83.37-.3.23-.36.08-.66.32-.3.24-.18.46-.48.69-.29.24-.57-.08-.87.17-.29.25,0,.58-.29.83-.28.26-.38.15-.67.41-.28.27-.41.12-.69.4-.28.27.11.6-.16.88-.27.27-.59.02-.85.31-.26.29-.12.42-.37.71-.25.29-.57.15-.76.38l1.55,1.27c.17-.21-.05-.35.19-.63.24-.28.36-.17.6-.45Z"/>
      <path class="st2" d="M25.79,42.72c-.28.27.03.46-.24.73-.27.27-.64.23-.91.52-.26.29-.16.38-.41.67-.25.3-.49.11-.74.42-.24.31-.1.54-.33.86-.23.32.34.57.12.89-.21.31-.79-.02-1.01.29-.21.31-.11.49-.32.81-.21.32-.52-.05-.73.27-.21.32.16.57-.05.89-.2.33-.25.3-.44.63-.19.33-.49.2-.68.55-.19.36.22.62.06.98-.16.35-.69.55-.7.58l1.88.7s-.04-.49.11-.81c.15-.32.38-.21.53-.51.17-.31-.07-.45.11-.76.18-.31.47-.14.66-.44.19-.31-.35-.52-.15-.83.2-.31.43-.3.64-.61.2-.31.31-.19.52-.49.21-.31.03-.48.25-.79.21-.3.56-.06.77-.35.21-.28-.14-.54.09-.83.23-.29.34-.19.57-.47.24-.28.38-.15.62-.42.24-.27-.15-.58.1-.86.26-.26.57,0,.83-.26.26-.25.12-.39.39-.65.27-.25.56-.06.76-.24l-1.33-1.49c-.22.2-.01.37-.3.63-.29.26-.38.15-.67.42Z"/>
      <path class="st2" d="M36.36,36.2c-.37.13-.17.43-.54.56-.36.14-.69-.09-1.05.07-.36.15-.31.28-.66.43-.35.16-.5-.13-.85.05-.35.18-.32.45-.66.62-.34.18.04.65-.29.84-.33.19-.7-.36-1.04-.17-.33.2-.33.39-.65.6-.32.21-.46-.26-.79-.04-.33.21-.08.59-.4.8-.32.22-.35.18-.66.41-.31.23-.53-.02-.83.23-.3.25-.04.65-.34.9-.29.25-.85.16-.86.18l1.33,1.49s.22-.46.5-.7c.28-.23.44-.03.72-.26.28-.22.12-.44.41-.66.29-.22.48.05.78-.15.29-.2-.12-.62.18-.83.31-.2.51-.1.82-.29.31-.19.36-.03.67-.21.31-.18.23-.41.55-.6.32-.18.53.2.85.04.32-.16.12-.55.45-.71.33-.17.39-.02.73-.17.34-.14.41.03.74-.11.33-.15.12-.59.46-.72.35-.13.52.24.86.12.34-.13.29-.3.63-.41.35-.11.53.19.79.11l-.55-1.92c-.28.09-.17.33-.54.44-.37.12-.41-.04-.79.08Z"/>
      <path class="st2" d="M48.61,34.56c-.38,0-.3.33-.68.33-.38,0-.6-.31-.99-.31-.38,0-.38.14-.76.15-.38.01-.4-.3-.79-.28-.39.02-.46.28-.85.3-.38.03-.22.63-.6.66-.37.03-.49-.63-.88-.59-.38.05-.45.24-.83.29-.38.05-.31-.43-.69-.37-.39.06-.32.49-.7.55-.38.06-.39.02-.77.09-.38.08-.47-.24-.85-.16-.38.09-.32.58-.69.67-.37.09-.83-.23-.86-.22l.55,1.92s.4-.32.75-.41c.35-.09.41.15.76.07.36-.07.3-.34.66-.42.36-.07.41.25.77.19.36-.06.16-.61.52-.67.36-.06.51.12.87.08.36-.04.34.11.7.07.36-.04.38-.28.75-.31.37-.03.41.39.77.37.36-.02.33-.46.7-.47.37-.02.37.13.74.12.37,0,.37.18.74.17.37,0,.33-.51.7-.51.37,0,.4.41.77.42.37,0,.37-.19.75-.18.37.01.45.35.73.36l.07-2c-.28,0-.26.25-.64.24-.38-.01-.37-.17-.75-.17Z"/>
      <path class="st2" d="M60.85,35.78c-.38-.1-.38.25-.75.16-.37-.08-.53-.43-.91-.51-.38-.07-.41.06-.79,0-.38-.07-.34-.37-.73-.43-.38-.05-.51.19-.89.14-.38-.04-.33.58-.71.54-.37-.04-.37-.71-.75-.74-.38-.03-.49.14-.87.12-.38-.03-.21-.48-.6-.5-.38-.02-.41.41-.79.39-.38-.02-.38-.07-.75-.09-.38-.02-.39-.34-.76-.36-.38-.01-.45.47-.82.45-.38-.01-.71-.46-.74-.46l-.07,2s.49-.19.87-.17c.38.01.36.26.74.28.38.01.39-.26.76-.25.37.02.35.35.72.37.37.02.29-.56.66-.54.37.02.48.23.84.26.37.02.31.18.68.21.37.03.43-.21.8-.17.37.04.33.47.69.51.36.05.41-.38.78-.33.37.05.34.19.7.26.36.06.33.25.68.31.35.08.42-.43.79-.35.36.08.3.48.65.58.35.09.4-.1.76,0,.35.11.34.46.59.54l.61-1.91c-.28-.09-.32.17-.69.06-.37-.11-.33-.25-.71-.35Z"/>
      <path class="st2" d="M71.72,41.79c-.29-.26-.45.05-.74-.21-.29-.25-.26-.64-.56-.88-.3-.25-.38-.14-.69-.38-.3-.24-.13-.49-.45-.72-.32-.23-.54-.07-.87-.29-.33-.21-.56.37-.88.16-.32-.2,0-.81-.35-1-.34-.19-.51-.08-.85-.27-.34-.19,0-.53-.35-.71-.35-.17-.55.21-.9.04-.35-.17-.33-.21-.69-.36-.36-.15-.25-.47-.62-.61-.37-.14-.59.3-.95.16-.36-.14-.57-.64-.6-.65l-.61,1.91s.51-.06.85.07c.34.13.25.36.59.48.33.14.44-.11.77.03.33.15.2.43.52.59.32.16.47-.41.8-.24.33.16.34.39.65.57.32.18.2.29.52.47.31.18.47,0,.78.2.31.2.08.56.38.75.29.2.54-.16.84.06.29.22.21.33.5.56.29.22.17.37.45.6.28.23.58-.18.86.06.28.24.03.57.3.82.27.25.4.11.66.36.26.26.08.56.28.75l1.43-1.4c-.21-.21-.37,0-.64-.27-.28-.27-.17-.38-.45-.64Z"/>
      <path class="st2" d="M78.66,52.13c-.12-.38-.41-.19-.54-.56-.13-.36.08-.69-.08-1.06-.15-.37-.28-.31-.44-.67-.17-.35.1-.5-.08-.85-.19-.35-.46-.31-.66-.64-.2-.33-.66.08-.86-.24-.2-.32.33-.72.12-1.05-.21-.33-.42-.3-.64-.61-.22-.31.24-.47,0-.79-.24-.31-.59-.05-.82-.36-.24-.31-.2-.33-.44-.63-.24-.3-.01-.52-.27-.82-.26-.29-.65-.01-.91-.29-.26-.28-.2-.84-.22-.85l-1.43,1.4s.47.19.72.46c.25.27.06.44.3.71.24.27.45.09.68.38.23.28-.03.48.19.77.22.29.61-.15.83.14.22.29.12.51.33.81.21.3.06.35.26.65.2.31.43.21.62.52.19.32-.18.54,0,.85.19.31.55.09.73.41.17.32.04.39.19.71.15.33-.02.4.11.73.14.33.59.11.73.45.12.35-.25.51-.14.85.11.34.29.29.39.64.1.35-.21.52-.14.79l1.94-.48c-.07-.28-.31-.18-.42-.56-.1-.38.04-.41-.07-.79Z"/>
      <path class="st2" d="M76.75,57.49s-.16-.3-.13-.32c.04-.02.23.22.27.19.04-.02-.04-.14,0-.16.04-.02.21.23.24.21.04-.02-.1-.25-.07-.27.04-.02-.32-.52-.28-.55.04-.02.41.53.45.5.04-.02-.06-.18-.02-.21.04-.02.28.37.32.34.04-.02-.21-.39-.17-.41.04-.02.07.02.1,0,.04-.02.22.25.26.22.04-.02-.23-.43-.19-.45.04-.02.31.31.31.31l-1.11-1.66s.07.2.03.23c-.04.02-.17-.18-.21-.16-.04.02.12.25.08.28-.04.02-.22-.25-.26-.23-.04.02.3.49.26.52-.04.02-.16-.13-.19-.11-.04.02-.12-.11-.15-.08-.04.02.09.23.06.25-.04.02-.27-.33-.31-.31-.04.02.21.39.17.41-.04.02-.12-.1-.15-.07-.04.02-.14-.13-.18-.11-.04.02.25.44.22.47-.04.02-.27-.31-.3-.29-.04.02.07.19.04.21-.04.02-.23-.25-.26-.23l1.12,1.66s-.12-.23-.09-.26c.04-.02.12.1.16.08Z"/>
      <path class="st2" d="M76.32,57.32c.09.12.17.2.23.26.06.06.11.1.13.09,0,0,0,0,0,0l-1.12-1.66s0,0,0,0c-.02.01-.01.05.02.13.03.08.1.21.18.34.07.13.17.28.27.43.1.15.21.29.3.41Z"/>
      <g>
        <path class="st2" d="M20.92,55.13l.05.02.05.03.09.06.05.03.05.03.05.02h.03s.03.01.03.01h.03s.03,0,.03,0h.03s.03-.02.03-.02l.05-.03.05-.03.11-.06.05-.02h.03s.03,0,.03,0h.03s.03,0,.03,0h.03s.03.02.03.02l.05.03.05.03.05.03.05.03h.03s.03.02.03.02h.03s.03,0,.03,0h.05s.05-.03.05-.03l.09-.04.09-.05.05-.02.05-.02h.03s.02-.03.02-.03h.03s.02-.03.02-.03l.05-.04.05-.05.09-.09.02-.02.02-.02h.02s.03-.02.03-.02h.03s.03,0,.03,0h.06s.12.04.12.04l.06.02h.06s.03.01.03.01h.03s.03,0,.03,0h.02s.07-.04.1-.06l.11-.06c.07-.04.14-.08.19-.12h.02s.02-.03.02-.03v-.02s.02-.02.02-.02v-.04s.02-.04.02-.04v-.04s.02-.04.02-.04v-.02s.02-.02.02-.02v-.02s.03-.02.03-.02h.02s.02-.03.02-.03h.03s.03-.01.03-.01h.07s.07,0,.07,0h.07s.07-.01.07-.01h.03s.03-.02.03-.02l.02-.02.02-.02-.77-.63-.39-.32-.39-.32v.02s-.03.02-.03.02v.03s-.03.03-.03.03h0s-.01.03-.01.03h-.01s0,.03,0,.03v.02s0,.02,0,.02c0,.03,0,.06,0,.09v.05s-.02.02-.02.02v.02s-.03.02-.03.02l-.02.02-.03.02-.03.02c-.09.05-.32.18-.41.23h-.03s-.03.02-.03.02h-.03s-.03,0-.03,0h-.03s-.03,0-.03,0l-.05-.02s-.06-.03-.08-.04h-.04s-.02-.02-.02-.02h-.02s-.02,0-.02,0h-.01s-.01-.02-.01-.02h-.01s-.02-.05-.02-.05l-.02-.04-.02-.04-.02-.04v-.02s-.02-.01-.02-.01h-.01s-.02-.02-.02-.02c0,0-.02,0-.03-.02l-.04-.02s-.06-.04-.08-.05l-.24.44-.24.44-.48.88h.02s.02.02.02.02h.05s.07.02.11.02h.11s.05.02.05.02h.05Z"/>
        <path class="st0" d="M21.95,52.43c.07-.04.07-.04.11-.06h0s0,0,0,0h0s0,0,0,0h.01s.02.03.02.03l.05.04.1.08.19.16.39.32.77.63,1.55,1.27-.51.64-.5.66-1.04,1.42-3.08-1.69,1.92-3.51Z"/>
      </g>
      <g>
        <path class="st2" d="M19.42,52.19v.05s-.03.05-.03.05l-.04.1-.02.05-.02.05v.05s-.01.02-.01.02v.02s0,.02,0,.02v.02s.02.02.02.02l.02.02.04.04.04.04.09.08.03.04v.02s.02.02.02.02v.02s0,.02,0,.02v.02s0,.02,0,.02l-.03.1-.02.05v.05s-.01.02-.01.02v.02s0,.02,0,.02v.02s.04.04.04.04l.03.04.07.06.07.06.07.07.02.02h.01s0,.01,0,.01h0s0,0,0,0v.02s.03.02.03.02l.04.04.04.03.05.03.04.04.02.02.02.02v.02s.02.02.02.02v.02s0,.03,0,.03v.06s-.02.12-.02.12v.06s-.02.06-.02.06v.03s0,.03,0,.03v.02s.01.02.01.02c.02.03.03.06.05.09l.06.09c.04.06.09.11.13.16v.02s.03.01.03.01h.02s.02.01.02.01h.04s.04,0,.04,0h.04s.04,0,.04,0h.02s.02,0,.02,0h.02s.02.02.02.02l.02.02v.02s.02.02.02.02v.03s.02.09.03.13v.07s.03.06.03.06v.03s.02.02.02.02l.02.02h.02s.48-.86.48-.86l.24-.44.24-.44h-.02s-.02-.01-.02-.01h-.03s-.03-.01-.03-.01h-.01s-.01-.01-.01-.01h-.01s-.01-.01-.01-.01c0,0,0,0-.02,0h-.02s-.05,0-.07.01h-.04s-.02,0-.02,0h-.02s-.02-.02-.02-.02h-.02s-.02-.04-.02-.04l-.02-.03s-.03-.04-.05-.07c-.02-.03-.04-.06-.06-.08-.02-.03-.04-.06-.06-.09v-.02s-.02-.01-.02-.01h0s0,0,0,0h0s0,0,0,0c0,.05,0,.05,0,.07h0s0,0,0,0h0s-.03-.03-.03-.03l-.02-.03-.02-.02v-.02s-.02-.02-.02-.02v-.02s0-.02,0-.02v-.04s.02-.05.02-.07v-.03s0-.01,0-.01h0s0-.03,0-.03h0s0-.02,0-.02h0s.03-.03.03-.03l.03-.02.07-.03h.01s.01-.02.01-.02h0s0-.02,0-.02h0s0-.02,0-.03v-.03s.04-.05.05-.07l-.47-.17-.47-.17-.94-.35v.02s0,.02,0,.02v.04s0,.07,0,.1v.11s.01.05.01.05v.05Z"/>
        <path class="st0" d="M22.13,52.6c.05-.02.05-.02.08-.03h0s0,0,0,0h0s0,.01,0,.01h0s-.02.04-.02.04l-.03.05-.06.11-.12.22-.24.44-.48.88-.96,1.75-2.64-1.45.33-1.47.1-.42.12-.43.13-.43.15-.42,1.88.7.94.35.47.17.23.09.12.04.06.02h.03s.01.02.01.02h0s0,0,0,0h0s0,0,0,0c-.06-.16-.06-.16-.1-.25Z"/>
      </g>
      <g>
        <path class="st2" d="M78.04,56.59l.03-.03.04-.03.08-.05.04-.02.04-.03.04-.03.02-.02v-.02s.02-.02.02-.02v-.02s.01-.02.01-.02v-.03s0-.06,0-.06v-.06s-.02-.12-.02-.12v-.06s0-.03,0-.03v-.02s.02-.02.02-.02v-.02s.03-.02.03-.02l.02-.02.04-.03.05-.03.05-.03.04-.03.02-.02v-.02s.03-.02.03-.02v-.02s.02-.05.02-.05v-.05s0-.09,0-.09v-.1s0-.05,0-.05v-.05s0-.03,0-.03h0s0-.02,0-.02h0s0,0,0,0v-.03s0-.03,0-.03v-.05s0-.05,0-.05v-.05s-.01-.05-.01-.05v-.03s0-.03,0-.03v-.02s.02-.02.02-.02v-.02s.03-.02.03-.02l.04-.04.1-.07.05-.03.05-.03.02-.02.02-.02v-.02s.02-.02.02-.02c0-.03.02-.06.03-.1l.02-.1c.01-.07.03-.14.04-.2v-.02s0-.02,0-.02v-.02s-.01-.02-.01-.02l-.02-.03-.03-.03-.03-.03-.02-.03v-.02s-.02-.02-.02-.02v-.02s0-.02,0-.02v-.02s0-.02,0-.02v-.02s.03-.03.03-.03c.03-.03.05-.07.08-.11l.04-.06.03-.06v-.03s.02-.03.02-.03v-.03s0-.03,0-.03l-.97.24-.49.12-.49.12v.02s.01.02.01.02l.02.03v.02s.02.01.02.01h0s0,.03,0,.03h0s0,.02,0,.02h.01s.04.04.06.06h.01s.01.03.01.03v.02s.02.02.02.02v.02s0,.02,0,.02v.03s-.01.03-.01.03c0,.02-.01.05-.02.08,0,.03-.01.07-.02.11,0,.04-.02.07-.02.11v.02s-.01.01-.01.01l-.03.12h0s0,.04,0,.05v.04s0,.03,0,.03v.03s-.02.02-.02.02v.02s-.03.02-.03.02l-.03.03s-.04.03-.06.05l-.03.02h0s0,.03,0,.03c0,0,0,.01,0,.01h-.01s-.01.02-.01.02c0,0,0,0-.01,0h-.03s-.04,0-.04,0h-.04s-.04,0-.04,0h-.02s-.02,0-.02,0c0,0-.01,0-.01,0h-.01s-.03.03-.03.03l-.04.02s-.05.03-.07.04l.28.42.28.42.56.83h.01s.01-.02.01-.02l.03-.03.05-.08.05-.09.03-.04.03-.03Z"/>
        <path class="st0" d="M76.16,54.4c.05-.13.05-.13.08-.2h0s0,0,0,0h0s0,0,0,0h.02s.03-.01.03-.01h.06s.12-.04.12-.04l.24-.06.49-.12.97-.24,1.94-.48.18.77.08.34.06.22.49,1.45-2.55,1.7-2.23-3.33Z"/>
      </g>
    </g>
  </g>
  <g>
    <path class="st1" d="M13.05,58.9c.16-.28-.18-.39,0-.68.18-.29.54-.27.74-.53.19-.26.1-.34.31-.59.22-.24.45-.03.68-.26.24-.23.12-.47.38-.69.26-.21-.21-.62.07-.84.28-.21.71.29.98.11.27-.19.25-.37.53-.55.29-.15.41.31.68.17.28-.11.11-.53.42-.64.3-.09.32-.07.62-.12.31-.07.37.25.64.23.27-.04.31-.48.63-.48.32.05.48.52.48.52l.56-1.92s-.61.05-1.02.03c-.42-.02-.42-.29-.86-.25-.44.03-.39.32-.79.4-.4.08-.47-.21-.88-.09-.39.15-.05.64-.41.79-.34.17-.54.04-.88.23-.32.2-.38.04-.69.26-.32.22-.21.44-.51.67-.29.23-.57-.09-.87.16-.29.26.01.57-.26.83-.27.27-.37.16-.63.45-.24.3-.4.17-.64.48-.23.32.19.58,0,.89-.2.31-.57.14-.76.48-.19.34,0,.43-.17.77-.14.35-.5.31-.6.59l1.88.69c.08-.23-.17-.29-.04-.6.13-.31.28-.23.42-.52Z"/>
    <path class="st1" d="M11.64,69.66c-.04-.34-.37-.23-.4-.57-.02-.35.26-.57.26-.91-.01-.34-.15-.34-.15-.69,0-.35.31-.35.32-.69.01-.34-.24-.44-.22-.78.03-.35-.59-.29-.56-.64.03-.35.7-.34.74-.69.04-.35-.14-.46-.1-.81.04-.35.49-.17.53-.52.04-.34-.39-.4-.34-.75.06-.34.1-.33.17-.67.06-.34.39-.29.46-.61.08-.32-.38-.49-.28-.82.1-.33.61-.48.62-.49l-1.88-.69s.02.54-.08.9c-.1.36-.34.3-.43.67-.08.37.18.43.12.8-.07.37-.39.3-.45.68-.05.37.53.34.49.7-.04.36-.26.45-.29.81-.04.36-.18.3-.22.65-.04.36.2.42.17.78-.03.36-.46.34-.48.71-.02.37.41.38.4.75-.01.37-.16.36-.16.73,0,.37-.19.37-.18.75.01.38.52.31.55.68.02.36-.38.44-.33.81.04.37.23.35.29.71.06.36-.26.52-.2.8l1.96-.4c-.05-.25-.31-.16-.36-.5-.05-.34.09-.36.06-.69Z"/>
    <path class="st1" d="M16.72,78.75c-.27-.17-.4.15-.67-.05-.27-.2-.22-.57-.46-.78-.23-.23-.34-.12-.57-.37-.23-.24,0-.46-.22-.7-.21-.25-.46-.15-.67-.42-.2-.27-.64.17-.84-.12-.2-.29.34-.7.17-.98-.17-.28-.36-.28-.53-.57-.16-.3.3-.4.17-.7-.13-.3-.54-.13-.68-.44-.12-.32-.07-.34-.2-.66-.11-.32.2-.44.09-.76-.1-.31-.57-.24-.66-.57-.09-.34.28-.74.27-.75l-1.96.4s.29.44.4.8c.1.36-.16.43-.04.79.12.36.37.28.5.63.13.35-.18.46-.04.82.15.35.64.02.79.35.15.34.03.53.21.86.18.33.01.37.21.69.2.33.42.23.63.54.21.31-.13.56.1.87.24.3.57.03.81.31.24.28.13.38.4.66.26.28.14.4.42.68.29.26.6-.15.88.09.3.22.08.59.42.8.34.21.43.05.78.23.34.19.3.52.59.64l.73-1.86c-.2-.09-.29.18-.57.03-.28-.15-.21-.27-.47-.45Z"/>
    <path class="st1" d="M24.6,75.26c-.14.3.19.38.03.69-.16.3-.53.33-.71.61-.18.28-.07.36-.26.63-.2.27-.44.09-.64.34-.2.24-.06.47-.29.7-.23.23.26.6,0,.83-.28.22-.71-.28-.96-.12-.25.17-.24.35-.52.5-.29.11-.36-.35-.62-.26-.27.06-.16.52-.47.56-.31.06-.31,0-.62,0-.31.02-.32-.34-.6-.34-.28-.04-.4.43-.72.36-.32-.09-.44-.59-.45-.6l-.73,1.86s.57-.01.96.09c.4.07.36.34.78.38.43.02.44-.23.85-.26.4-.02.43.31.86.24.43-.07.17-.62.55-.72.37-.12.56.02.93-.15.36-.18.39-.02.74-.24.35-.23.23-.45.54-.7.29-.25.59.05.88-.24.28-.3-.05-.58.19-.87.24-.29.35-.21.58-.52.22-.31.37-.21.58-.53.2-.33-.26-.55-.08-.87.17-.33.56-.16.73-.51.16-.35,0-.42.13-.77.13-.35.5-.32.58-.6l-1.9-.64c-.07.23.18.29.06.6-.12.31-.27.24-.41.54Z"/>
    <path class="st1" d="M25.33,64.38c.03.35.37.24.4.6.03.36-.26.59-.23.95.03.36.16.34.19.7.02.35-.28.38-.26.74.02.35.28.42.31.77.02.35.62.21.64.57.02.36-.65.42-.65.77,0,.35.19.43.18.78,0,.35-.47.21-.48.55-.02.33.42.37.39.71-.03.34-.08.34-.13.67-.04.34-.37.3-.43.62-.06.32.39.47.31.8-.08.34-.6.49-.6.51l1.9.64s-.03-.54.05-.91c.09-.37.34-.31.41-.69.07-.38-.2-.43-.15-.8.05-.37.38-.33.41-.71.03-.38-.55-.31-.53-.67.02-.36.22-.48.23-.84,0-.37.16-.32.15-.69,0-.37-.25-.4-.26-.77-.02-.36.41-.39.39-.75-.02-.36-.46-.33-.48-.69-.03-.36.12-.37.09-.73-.03-.36.16-.37.13-.73-.03-.36-.53-.28-.56-.64-.03-.36.38-.42.34-.79-.04-.36-.23-.34-.26-.71-.05-.36.28-.49.24-.77l-1.98.27c.03.26.29.19.33.54.04.35-.12.36-.08.71Z"/>
    <path class="st1" d="M21.2,54.89c.24.16.39-.15.65.05.25.21.18.57.4.79.22.24.32.15.54.41.22.27-.02.46.17.71.18.25.44.18.61.46.16.29.65-.11.81.21.16.32-.43.65-.29.94.12.31.33.31.44.64.11.32-.36.35-.27.67.1.32.52.2.61.54.09.33.03.35.11.68.08.34-.24.42-.18.76.06.33.55.3.6.65.06.35-.32.73-.32.75l1.98-.27s-.27-.44-.33-.8c-.05-.36.18-.4.12-.77-.07-.37-.34-.31-.42-.67-.08-.36.24-.43.15-.8-.1-.37-.62-.1-.73-.45-.11-.35.04-.52-.08-.88-.13-.35.02-.37-.12-.72-.16-.35-.39-.29-.56-.63-.17-.33.19-.55-.01-.9-.21-.34-.57-.09-.79-.4-.22-.3-.12-.4-.35-.68-.24-.29-.1-.41-.37-.7-.28-.29-.61.1-.89-.15-.29-.25-.07-.59-.42-.83-.35-.23-.45-.06-.81-.24-.37-.17-.35-.51-.67-.61l-.56,1.92c.2.07.26-.2.54-.08.28.13.2.26.45.41Z"/>
  </g>
  <g>
    <path class="st1" d="M74.56,60.49c.13-.3-.21-.38-.06-.68.15-.3.52-.32.68-.59.17-.27.06-.34.25-.61.2-.26.44-.07.64-.31.21-.23.07-.47.31-.69.23-.22-.24-.61.02-.85.27-.23.74.24,1,.02.26-.21.21-.41.48-.61.27-.19.44.26.69.09.25-.15.04-.53.33-.67.28-.13.3-.07.59-.17.3-.09.39.23.68.17.29-.05.28-.53.61-.56.16-.01.34.08.45.19.08.1.11.21.12.21l.19-2.01s-.2.06-.41.12c-.16.05-.37.12-.56.14-.38.04-.41-.21-.82-.14-.41.09-.34.35-.73.47-.38.13-.5-.18-.89,0-.38.19,0,.64-.33.83-.32.2-.53.1-.84.33-.29.23-.36.08-.65.32-.29.24-.16.45-.43.69-.27.24-.56-.08-.84.2-.29.27.05.58-.21.85-.24.29-.36.19-.59.5-.23.31-.38.2-.59.54-.21.33.26.56.08.88-.16.33-.56.19-.7.54-.15.35.03.42-.1.77-.13.35-.47.33-.56.6l1.91.59c.08-.23-.18-.29-.08-.61.12-.31.25-.26.38-.56Z"/>
    <path class="st1" d="M73.08,71.26c-.03-.34-.37-.23-.4-.57-.02-.35.27-.56.26-.9-.01-.34-.15-.34-.14-.68,0-.34.31-.35.32-.68,0-.34-.24-.43-.22-.77.02-.34-.59-.29-.56-.64.03-.35.7-.32.75-.66.04-.34-.13-.45-.07-.79.06-.34.49-.13.55-.48.06-.34-.37-.43-.3-.77.07-.34.12-.33.19-.67.07-.34.39-.29.47-.62.08-.33-.38-.49-.29-.83.09-.34.59-.51.6-.53l-1.91-.59s.06.52-.03.87c-.09.35-.33.29-.42.65-.08.36.19.42.11.77-.08.35-.4.28-.47.64-.07.35.52.35.45.7-.07.35-.28.43-.34.79-.06.36-.2.29-.25.66-.05.36.19.43.15.79-.04.36-.46.33-.49.7-.03.37.41.38.4.75-.01.36-.16.36-.16.73,0,.37-.19.37-.18.74.01.37.52.31.54.67.02.36-.38.43-.34.8.04.37.24.34.28.71.05.36-.26.51-.21.79l1.97-.37c-.04-.25-.29-.17-.35-.51-.05-.34.11-.35.07-.69Z"/>
    <path class="st1" d="M78.46,79.31c-.28-.08-.32.28-.62.17-.31-.11-.35-.47-.62-.61-.27-.15-.34-.03-.6-.21-.26-.19-.09-.43-.32-.63-.24-.19-.46-.06-.7-.28-.22-.24-.6.26-.83,0-.22-.27.27-.72.09-.98-.19-.26-.38-.23-.55-.51-.16-.29.3-.41.16-.68-.13-.27-.54-.1-.66-.4-.12-.31-.07-.33-.18-.65-.1-.32.2-.43.11-.75-.09-.32-.56-.24-.65-.58-.08-.34.29-.73.28-.75l-1.97.37s.29.44.38.79c.09.36-.16.42-.05.78.1.36.37.28.48.64.13.35-.2.45-.05.82.15.37.63.04.79.37.16.34.05.53.25.86.21.32.05.37.27.69.23.32.45.2.69.49.25.28-.06.58.23.87.29.28.57-.05.87.19.29.25.21.35.53.58.33.21.23.37.59.57.37.17.54-.28.89-.15.35.14.26.53.66.64.4.1.44-.11.83-.04.39.02.49.38.79.37l-.03-2c-.23.02-.19.26-.51.25-.31-.03-.28-.2-.57-.24Z"/>
    <path class="st1" d="M86.67,74.34c-.14.29.18.38.01.66-.16.28-.55.27-.74.54-.2.27-.09.35-.31.61-.21.26-.46.06-.67.31-.22.24-.09.48-.33.71-.24.23.26.61,0,.84-.27.23-.73-.25-.98-.06-.25.2-.22.39-.49.57-.28.18-.42-.29-.69-.13-.26.16-.08.53-.38.67-.29.14-.32.07-.62.18-.3.11-.41-.22-.7-.14-.29.07-.26.53-.58.59-.16.03-.33-.09-.45-.19-.12-.1-.2-.21-.21-.21l.03,2s.51-.21.9-.27c.39-.07.43.21.83.11.39-.11.33-.35.69-.48.36-.14.49.2.85.02.36-.17.01-.63.34-.8.32-.18.54-.06.85-.28.32-.21.37-.06.67-.29.31-.23.18-.45.47-.69.28-.24.57.05.85-.21.27-.28-.05-.57.2-.84.24-.28.36-.18.59-.47.24-.29.38-.17.61-.47.22-.3-.21-.57-.01-.87.19-.32.57-.14.76-.49.17-.35,0-.43.16-.77.14-.34.48-.31.59-.58l-1.87-.7c-.09.23.17.29.05.6-.13.3-.28.23-.42.52Z"/>
    <path class="st1" d="M88.1,63.69c.04.33.37.22.4.57.04.34-.26.57-.24.91.01.34.16.33.16.68,0,.34-.3.35-.3.69,0,.34.25.43.23.77-.01.34.61.27.58.62-.03.35-.69.35-.72.69-.04.34.13.44.09.79-.04.34-.49.15-.54.49-.06.33.38.41.32.75-.07.34-.12.32-.19.66-.07.34-.4.27-.48.59-.08.32.37.5.26.83-.1.33-.61.48-.62.49l1.87.7s-.03-.53.08-.88c.12-.35.35-.28.44-.65.09-.36-.16-.43-.09-.79.07-.36.4-.28.47-.65.07-.37-.52-.36-.46-.71.06-.36.28-.44.32-.8.04-.36.19-.3.23-.66.03-.37-.21-.43-.18-.79.03-.36.45-.35.46-.72.01-.37-.42-.37-.42-.73,0-.36.14-.36.14-.73,0-.36.18-.37.16-.74-.02-.37-.52-.3-.55-.66-.04-.36.37-.44.33-.81-.05-.37-.25-.34-.3-.7-.05-.36.25-.52.19-.8l-1.95.43c.05.24.31.15.37.49.05.34-.1.36-.05.69Z"/>
    <path class="st1" d="M82.4,55.62c.3.11.35-.23.66-.11.3.15.34.49.61.65.28.15.34.04.62.22.27.18.08.44.33.63.23.2.47.06.7.28.22.23.6-.27.83,0,.22.27-.25.72-.07.98.19.26.39.22.57.5.18.28-.29.42-.13.7.16.27.54.08.69.39.15.3.09.33.22.63.13.31-.18.45-.06.75.11.31.57.2.67.53.11.32-.27.73-.26.74l1.95-.43s-.29-.43-.41-.79c-.11-.36.14-.45,0-.8-.13-.36-.38-.26-.53-.61-.15-.34.17-.48,0-.82-.17-.34-.62.01-.8-.31-.18-.32-.06-.53-.27-.84-.2-.32-.06-.36-.28-.68-.23-.31-.46-.19-.7-.48-.25-.28.05-.58-.23-.86-.3-.27-.58.06-.87-.18-.3-.23-.2-.36-.53-.57-.32-.21-.22-.38-.57-.57-.35-.2-.55.28-.88.12-.33-.16-.22-.53-.59-.68-.37-.13-.43.07-.79-.04-.37-.09-.35-.43-.77-.52l-.19,2.01c.12.03.16-.23.48-.16.32.09.27.24.57.33Z"/>
  </g>
  <g>
    <path class="st1" d="M48.6,72.8c-.08-.11-.21-.2-.36-.26-.14-.06-.32-.08-.5-.08-.18,0-.35.03-.49.07-.15.04-.31.09-.4.15-.09.06-.12.14-.13.22l1.98.26c.02-.13-.01-.26-.09-.37Z"/>
    <path class="st1" d="M47.49,76.98c-.11-.05-.38.25-.52.17-.14-.09.13-.36.05-.43-.08-.09-.25-.01-.34-.13-.07-.12.35-.23.32-.33-.01-.1-.38-.09-.36-.23.03-.12-.84-.13-.76-.31.1-.18.98-.03,1.06-.11.09-.08-.09-.18.04-.25.13-.07.53.2.61.15.06-.04-.16-.23-.18-.36,0-.03,0-.05.02-.07.17-.18.23-.16.4-.38.15-.23.45-.08.58-.37.13-.29-.32-.48-.25-.72.06-.24.52-.41.52-.43l-1.98-.26s.18.24.13.39c-.05.15-.28.06-.33.17-.05.1.19.24.11.37-.11.12-.31-.13-.45,0-.04.03-.06.06-.07.1-.06.19.29.45.11.58-.21.15-.48.09-.68.26-.19.17-.32.09-.49.31-.15.23.08.31-.02.54-.08.24-.51.23-.54.52,0,.3.43.25.46.5.07.25-.07.29.05.53.14.23-.04.3.14.53.2.22.62-.08.81.08.2.14-.1.43.15.58.25.13.38-.02.64.06.26.05.16.36.39.41l.87-1.85c-.09-.01-.21.23-.36.21-.14-.02-.03-.16-.14-.2Z"/>
    <path class="st1" d="M48.16,77.5c0-.15-.03-.27-.06-.36-.03-.09-.05-.16-.11-.17h0s-.87,1.85-.87,1.85h0c.14.03.3.02.44-.03.14-.06.27-.18.36-.31.09-.13.16-.3.19-.48.04-.18.05-.36.04-.5Z"/>
  </g>
  <g>
    <path class="st1" d="M63.34,64.45c.11-.02.24-.09.37-.17.13-.08.26-.2.39-.33.12-.13.21-.27.27-.41.06-.15.12-.31.1-.44-.02-.13-.1-.23-.2-.3l-1.18,1.61c.07.04.15.06.25.04Z"/>
    <path class="st1" d="M58.31,63.4c.17-.03.08-.36.26-.39.19-.02.33.27.51.26.18,0,.17-.15.36-.15.19,0,.19.31.36.31.18.01.23-.25.42-.23.18.02.19-.59.39-.57.2.02.12.69.3.72.18.03.26-.14.44-.09.18.04,0,.47.16.52.16.05.3-.37.48-.3.17.07.15.12.32.18.16.08.03.38.18.45.14.08.4-.33.56-.24.16.1.04.55.04.55l1.18-1.61s-.37-.02-.57-.13c-.2-.11-.08-.34-.29-.45-.22-.1-.33.15-.54.05-.21-.08-.08-.39-.31-.47-.22-.08-.34.49-.54.43-.21-.07-.22-.27-.44-.32-.21-.05-.16-.2-.38-.24-.22-.04-.28.19-.5.17-.22-.02-.18-.46-.41-.47-.23-.01-.25.42-.46.41-.22,0-.22-.15-.44-.15-.22,0-.23-.18-.46-.17-.23.01-.16.53-.37.55-.21.02-.29-.37-.52-.33-.23.04-.18.24-.4.29-.22.05-.37-.25-.54-.19l.64,1.9c.12-.04.02-.29.19-.33.18-.04.2.1.38.07Z"/>
    <path class="st1" d="M57.63,62.99c.07-.04.14-.09.19-.01.07.07,0,.37-.1.48-.07.12-.15.18-.11.19.04.01.08.02.12,0h0s-.64-1.9-.64-1.9h0c-.06.02-.11.05-.15.08-.07.05-.24.14-.39.34-.17.2-.22.56-.15.68.06.14.14.15.21.15.15,0,.33,0,.5.06.17.06.37.02.51-.09Z"/>
  </g>
  <g>
    <path class="st1" d="M40.57,64.11c.09-.06.2-.16.29-.28.09-.12.18-.28.25-.44.07-.17.11-.33.13-.48.02-.16.02-.33-.02-.44-.05-.11-.14-.17-.23-.21l-.65,1.89c.07.02.16.01.24-.04Z"/>
    <path class="st1" d="M35.99,64.32c.14-.07-.04-.36.12-.43.16-.07.36.18.51.13.15-.05.11-.18.26-.23.16-.05.24.25.39.22.15-.03.13-.3.29-.32.16-.02.02-.63.2-.65.18-.02.26.64.42.63.16-.01.19-.19.36-.19.17,0,.09.47.24.47.15.01.19-.43.35-.41.16.02.16.07.32.1.16.03.11.35.26.38.15.03.29-.43.45-.38.17.05.18.51.18.51l.65-1.89s-.32.11-.51.06c-.2-.05-.13-.29-.34-.34-.21-.04-.26.23-.46.19-.2-.03-.15-.36-.36-.39-.21-.02-.2.56-.39.54-.19,0-.25-.21-.46-.21-.2,0-.18-.15-.39-.14-.21.01-.21.26-.41.28-.2.02-.26-.39-.47-.36-.21.04-.12.47-.31.51-.19.05-.23-.09-.43-.04-.19.06-.25-.12-.45-.05-.2.07,0,.54-.17.61-.18.08-.36-.29-.55-.2-.18.09-.09.26-.27.36-.17.1-.39-.16-.52-.08l1.07,1.69c.1-.06-.05-.28.09-.36.14-.08.21.06.35-.02Z"/>
    <path class="st1" d="M34.96,64.5c.12.1.23.15.34.18.1.03.19.05.25.01h0s-1.07-1.69-1.07-1.69h0c-.09.05-.15.14-.17.26-.02.12,0,.27.06.42.05.14.14.3.24.45.11.14.23.27.35.37Z"/>
  </g>
  <ellipse class="st1" cx="38.78" cy="70.36" rx="2.65" ry="1.59" transform="translate(-33.13 106.19) rotate(-87.63)"/>
  <ellipse class="st1" cx="58.98" cy="69.89" rx="2.65" ry="1.59" transform="translate(-13.28 125.93) rotate(-87.63)"/>
  <g>
    <path class="st1" d="M43.88,82c-.14,0-.29.05-.43.12-.12.09-.27.19-.42.29-.16.09-.22.28-.26.44-.04.17-.06.36,0,.53.06.15.19.29.34.39l1.13-1.65c-.11-.07-.23-.12-.37-.12Z"/>
    <path class="st1" d="M51.74,82.51c-.25.13-.04.41-.3.54-.27.13-.55-.09-.81,0-.27.1-.22.22-.5.3-.28.08-.36-.23-.62-.16-.27.04-.29.32-.58.35-.28.02-.14.64-.45.65-.31,0-.35-.65-.62-.67-.28-.01-.36.16-.65.13-.29-.03-.11-.49-.37-.53-.26-.05-.37.36-.65.29-.27-.09-.26-.14-.53-.23-.27-.11-.16-.41-.4-.52-.24-.12-.5.29-.76.15-.26-.15-.25-.66-.25-.66l-1.13,1.65s.49.08.79.25c.3.16.18.39.51.54.32.15.43-.11.75.01.32.11.21.43.55.53.35.09.38-.49.71-.41.32.06.4.29.74.33.34.04.29.19.63.21.35.02.39-.23.73-.24.34,0,.38.4.74.37.36-.05.28-.48.61-.54.33-.08.36.07.69-.02.33-.1.39.09.71-.03.33-.12.1-.59.41-.71.29-.14.51.22.81.05.3-.16.2-.33.49-.51.28-.18.54.05.76-.11l-1.2-1.6c-.16.12.01.32-.23.48-.24.16-.32.02-.57.16Z"/>
    <path class="st1" d="M53.33,81.84c-.14-.07-.29-.08-.42-.08-.13,0-.26.02-.37.1h0s1.2,1.6,1.2,1.6h0c.14-.1.26-.24.31-.4.06-.16.06-.36.01-.53-.03-.18-.14-.33-.29-.43-.15-.1-.31-.19-.44-.26Z"/>
  </g>
  <g>
    <path class="st1" d="M25.51,79.48c-.14-.09-.31-.14-.48-.15-.16-.01-.34.03-.5.11-.16.07-.29.19-.39.32-.1.14-.21.29-.22.46-.01.16.04.35.12.5l1.79-.89c-.07-.14-.18-.27-.31-.35Z"/>
    <path class="st1" d="M31.9,86.82c-.28-.18-.41.15-.69-.04-.28-.19-.26-.56-.53-.75-.26-.2-.35-.09-.6-.3-.26-.21-.06-.45-.3-.66-.24-.22-.47-.08-.71-.32-.23-.23-.6.27-.84.02-.24-.25.23-.74,0-.98-.21-.25-.41-.19-.62-.45-.21-.26.23-.45.03-.71-.19-.26-.55-.01-.74-.29-.19-.28-.14-.31-.33-.59-.18-.28.09-.47-.08-.75-.17-.28-.61-.09-.77-.38-.16-.3.08-.77.08-.79l-1.79.89s.39.33.57.64c.17.31-.04.44.14.75.19.31.42.17.62.47.2.3-.08.48.12.78.21.3.62-.13.82.16.21.28.12.5.35.77.23.28.09.34.32.62.24.27.45.14.69.4.24.26-.05.56.21.82.26.26.56-.07.83.18.27.24.18.35.46.58.28.23.17.37.46.6.3.21.56-.22.85-.02.29.2.09.56.4.75.3.2.41.03.71.21.3.19.22.51.45.65l.97-1.75c-.22-.12-.32.12-.61-.05-.29-.18-.21-.3-.49-.48Z"/>
    <path class="st1" d="M41.97,90.87c-.33-.09-.34.26-.67.17-.33-.09-.44-.43-.77-.54-.33-.1-.36.03-.69-.07-.33-.1-.24-.39-.56-.5-.32-.11-.48.11-.81,0-.32-.12-.43.5-.75.38-.33-.12-.14-.76-.46-.88-.32-.12-.47.03-.78-.1-.32-.12-.03-.51-.35-.63-.31-.13-.48.27-.79.14-.31-.13-.29-.18-.6-.32-.31-.14-.19-.44-.49-.59-.3-.15-.56.27-.86.11-.3-.16-.37-.68-.39-.7l-.97,1.75s.51.04.82.21c.32.16.21.38.53.54.32.16.44-.1.77.05.32.15.18.45.51.59.33.14.45-.43.78-.3.33.13.36.35.69.48.33.13.23.25.56.37.33.12.45-.09.78.03.33.12.19.52.53.64.34.11.47-.3.8-.19.33.11.29.25.63.35.34.1.28.28.62.39.34.11.45-.4.78-.31.34.09.27.49.61.59.34.09.39-.1.73-.02.34.08.35.43.61.49l.43-1.95c-.25-.06-.27.21-.6.13-.33-.08-.29-.22-.62-.31Z"/>
    <path class="st1" d="M52.74,91.78c-.33.03-.23.36-.57.39-.34.03-.56-.25-.89-.25-.34,0-.33.14-.67.15-.34,0-.35-.3-.68-.29-.33,0-.42.25-.76.24-.34-.01-.26.6-.6.59-.35-.01-.35-.67-.69-.71-.34-.03-.43.15-.77.12-.34-.03-.17-.48-.5-.51-.33-.04-.39.39-.73.34-.34-.05-.33-.1-.66-.15-.34-.05-.3-.37-.63-.44-.33-.06-.47.4-.8.34-.34-.06-.56-.55-.57-.56l-.43,1.95s.49-.1.84-.04c.35.07.3.31.65.38.35.07.4-.21.75-.16.35.05.3.38.65.43.35.05.32-.53.67-.49.35.03.44.24.79.27.35.03.3.18.65.21.35.04.41-.22.76-.2.35.01.35.44.7.45.36,0,.36-.42.71-.42.35,0,.35.14.71.13.35,0,.36.18.72.17.36,0,.29-.51.64-.55.35-.03.42.37.77.34.36-.03.33-.23.69-.26.35-.03.48.27.75.23l-.29-1.98c-.25.04-.18.3-.51.35-.34.03-.35-.12-.69-.09Z"/>
    <path class="st1" d="M62.95,88.53c-.29.16-.06.42-.36.59-.3.16-.62-.02-.92.13-.3.15-.25.27-.55.42-.31.13-.45-.14-.75-.02-.31.13-.28.4-.59.53-.31.13.01.66-.31.79-.32.12-.6-.5-.92-.4-.32.1-.34.31-.66.41-.32.11-.34-.38-.66-.27-.32.09-.21.5-.54.59-.33.08-.34.03-.67.11-.33.08-.41-.23-.74-.16-.33.05-.28.53-.62.59-.34.06-.71-.32-.73-.32l.29,1.98s.43-.28.78-.34c.35-.06.4.19.75.13.35-.08.29-.36.64-.44.35-.08.42.24.77.15.35-.09.1-.61.44-.7.33-.11.5.05.84-.06.34-.11.35.05.68-.06.34-.11.3-.35.63-.47.33-.14.49.26.82.12.33-.14.15-.54.48-.68.33-.14.39,0,.71-.15.32-.15.4.02.72-.14.32-.16.06-.6.37-.76.31-.16.53.17.85,0,.31-.17.21-.35.52-.52.31-.18.55.06.78-.09l-1.07-1.69c-.21.13-.04.34-.33.52-.29.17-.37.04-.66.21Z"/>
    <path class="st1" d="M70.96,81.42c-.2.27.12.42-.08.69-.21.27-.58.23-.79.49-.21.26-.11.35-.33.6-.22.25-.46.05-.68.3-.22.25-.1.48-.33.72-.24.24.27.6.03.84-.25.24-.75-.21-.99.01-.24.23-.18.42-.44.64-.26.22-.47-.21-.72,0-.25.22.01.55-.25.76-.27.21-.3.17-.57.37-.27.2-.48-.05-.75.14-.27.19-.04.61-.32.8-.28.2-.78,0-.8,0l1.07,1.69s.28-.42.57-.62c.29-.2.44.01.73-.2.29-.21.13-.44.42-.65.28-.21.48.05.76-.17.28-.22-.16-.6.11-.82.27-.23.48-.15.75-.38.27-.23.33-.1.6-.34.26-.25.13-.45.38-.69.25-.25.56.04.81-.22.25-.26-.06-.55.17-.81.24-.26.34-.17.58-.43.24-.27.38-.14.61-.42.23-.28-.19-.57.03-.85.22-.27.56-.06.77-.35.21-.29.05-.4.26-.69.21-.29.52-.18.67-.41l-1.68-1.09c-.14.21.11.33-.08.61-.2.27-.32.18-.52.45Z"/>
    <path class="st1" d="M72.4,79.95c-.17-.01-.33.04-.48.11-.14.07-.27.15-.36.29h0s1.68,1.09,1.68,1.09h0c.09-.15.16-.31.16-.48,0-.17-.05-.34-.14-.49-.08-.14-.21-.27-.36-.36-.15-.09-.33-.15-.5-.16Z"/>
  </g>
  <g>
    <path class="st2" d="M51.47,21.12c-.17-.01-.35.02-.5.09-.15.07-.29.19-.39.34-.11.14-.16.31-.18.48-.02.17-.02.36.05.53.07.16.22.29.38.4l1.11-1.66c-.14-.1-.31-.15-.47-.17Z"/>
    <path class="st2" d="M61.29,25.29c-.35-.09-.36.25-.71.16-.35-.1-.47-.46-.82-.56-.35-.11-.39.02-.73-.09-.35-.11-.26-.41-.6-.52-.34-.12-.51.1-.85-.02-.34-.12-.44.49-.79.36-.34-.13-.15-.77-.48-.9-.33-.14-.48,0-.82-.14-.33-.14-.03-.52-.35-.66-.32-.15-.51.24-.84.09-.32-.16-.3-.21-.61-.37-.32-.17-.18-.46-.48-.64-.31-.17-.59.21-.9.03-.31-.19-.35-.73-.36-.74l-1.11,1.66s.53.1.85.3c.33.19.2.41.53.6.34.19.47-.05.81.12.34.18.18.47.52.64.35.16.49-.4.83-.24.34.16.37.39.71.54.35.14.25.27.6.41.35.14.48-.07.83.06.35.13.21.53.57.66.36.13.49-.29.84-.17.35.12.31.25.66.37.36.11.3.29.66.4.36.11.47-.39.83-.29.36.1.29.5.65.6.36.1.41-.1.78,0,.36.09.38.43.66.5l.43-1.95c-.26-.06-.29.2-.64.12-.35-.09-.31-.24-.66-.32Z"/>
    <path class="st2" d="M72.61,25.84c-.35.08-.2.39-.55.47-.35.07-.61-.2-.96-.14-.34.05-.33.18-.68.22-.34.03-.37-.28-.73-.26-.35.02-.43.28-.79.28-.36,0-.24.62-.61.61-.37,0-.4-.67-.76-.69-.36-.02-.45.17-.81.14-.36-.03-.19-.47-.54-.51-.35-.04-.41.4-.76.35-.36-.05-.35-.1-.71-.15-.36-.06-.32-.38-.67-.44-.35-.07-.49.41-.84.33-.36-.07-.59-.56-.61-.57l-.43,1.95s.52-.1.89-.03c.37.07.32.31.7.38.38.06.42-.21.79-.15.37.06.32.38.7.43.38.05.33-.54.7-.5.37.04.47.24.85.27.38.03.32.17.7.19.38.02.43-.23.81-.22.38,0,.39.43.77.42.38,0,.36-.45.74-.46.38-.02.39.13.78.09.39-.04.41.15.8.09.39-.06.26-.56.63-.62.37-.07.49.32.86.24.37-.08.32-.27.69-.36.36-.09.54.21.81.14l-.53-1.93c-.26.07-.16.32-.51.41-.35.09-.38-.06-.73.02Z"/>
    <path class="st2" d="M74.81,25.66c-.12-.12-.29-.19-.46-.23-.16-.04-.33-.06-.5-.02h0s.53,1.93.53,1.93h0c.17-.05.34-.13.46-.25.12-.12.2-.29.24-.46.04-.16.04-.35,0-.52-.05-.17-.14-.33-.26-.45Z"/>
  </g>
</svg>