<?xml version="1.0" encoding="UTF-8"?>
<svg id="_レイヤー_1" xmlns="http://www.w3.org/2000/svg" version="1.1" viewBox="0 0 100 100">
  <!-- Generator: Adobe Illustrator 30.0.0, SVG Export Plug-In . SVG Version: 2.1.1 Build 123)  -->
  <defs>
    <style>
      .st0 {
        fill: #1c1917;
      }

      .st1 {
        fill: #fff;
      }
    </style>
  </defs>
  <path class="st1" d="M25.38,72.68c.6,2.32,1.67,6.25,5.07,9.57.62.61,2.67,2.51,7.09,4.17,3.43,1.28,12.9,4.82,22.63.23,1.58-.75,6.82-3.31,10.36-9.23,1.18-1.97,2.46-4.04,2.7-6.87.65-7.66-6.83-13.68-9.68-15.98-2.99-2.41-8.51-6.87-16.55-6.92-9.64-.07-20,6.21-22.12,14.86-1.04,4.23.04,8.41.51,10.19Z"/>
  <path class="st0" d="M25.38,62.77c2.81.99,5.47.32,11.03-3.26,1.26-.81,4.48-3.09,7.65-6.42,1.96-2.05,3.5-2.99,4.5-4.5,2.33,2.71,4.03,4.03,5.68,5.4,2.52,2.09,6.84,5.18,12.16,7.2,3.25,1.24,4.34.67,6.25.45,4.7-.54,7.56-4.9,7.94-5.49,1-1.57,1.37-2.94,1.69-4.14,1.25-4.67.37-8.56,0-10.13-.71-2.99-1.99-5.84-3.59-8.46-.46-.76-4.26-4.69-4.17-5.33.08-.57,1.33-1.47,1.65-2.03,1.65-2.91.77-7.23-.3-10.19-1.37-3.78-5.38-6.44-9.68-7.43-4.95-1.14-9.87,1.72-11.65,2.81,0,0-4.62,3.26-5.91,8.22-.2.78-.06,2.48.34,3.2-2.09.57-3.55.68-6.59,1.81-2.14.79-5.25,2.44-6.87,3.26-3.55,1.81-6.58,5.22-9.23,8.1-1.24,1.35-4.29,5.57-6.08,10.81-.84,2.46-.79,5.74-.68,7.54.19,3.06,2.43,7.35,5.85,8.56Z"/>
  <path class="st1" d="M23.02,53.37c-2.96-.87-5.96,2.39-6.25,2.7-2.02,2.25-2.29,4.87-2.53,7.26-.2,1.97-.61,5.99,1.69,9.96.8,1.39,3,4.45,6.08,4.45s4.44-2.52,5.07-3.6c1.8-3.11,1.55-6.13,1.18-10.64-.42-5.09-1.7-7.08-2.53-8.1-.61-.74-1.4-1.65-2.7-2.03Z"/>
  <path class="st1" d="M78.26,54.14c-2.22.04-3.17.67-4.91,2.23-2,1.8-2.61,3.99-3.23,7.4-.69,3.82-.27,6.95.6,9.29.79,2.1,2.9,4.51,5.69,4.53,3.72.03,6.09-3.15,6.9-4.34,1.92-2.8,2.55-9.4,1.29-13.12-1.09-3.22-3.18-5.38-6.34-5.98Z"/>
  <path class="st1" d="M73.17,56.47c-.9-2.25-3.35-5.02-4.9-6.3-3.72-3.09-9.9-8.35-20.26-7.99-8.43.29-14.52,4.6-16.55,6.08-3.39,2.46-5.16,4.47-6.59,6.42l-2.36-1.29c.41-1.84,1.14-3.12,3.21-6.13.47-.68,2.74-3.9,6.98-6.53,6.7-4.15,13.58-3.88,17.79-3.71,4.55.18,10.11.28,15.65,4.05,1.27.86,4.89,3.52,7.54,8.22,1.46,2.59,1.7,4.76,1.97,5.57l-1.35.9-.94.63"/>
  <path class="st0" d="M23.26,52.82c-4.01-.98-8,3.04-9.07,6.55-1.39,4.56-1.32,10.27,1.17,14.41,2.14,3.56,6.59,6.24,10.31,3.11s3.75-7.88,3.41-12.2-.96-10.21-5.66-11.83c-.65-.22-1.7.71-.83,1.01,3.11,1.07,4.23,4.81,4.68,7.71.64,4.12,1.2,9.04-1.08,12.76-.94,1.53-2.34,2.95-4.29,2.84s-3.64-1.74-4.74-3.3c-2.41-3.42-2.56-7.46-2.11-11.46.26-2.32.82-4.58,2.5-6.31,1.33-1.38,3.22-2.68,5.21-2.19.74.18,1.44-.87.49-1.1Z"/>
  <path class="st0" d="M78.32,53.59c-4.44.14-7.44,3.83-8.45,7.89-1.1,4.45-1.66,10.5,1.6,14.25,3.08,3.53,7.82,2.74,10.89-.35,2.83-2.85,3.66-6.85,3.63-10.76-.04-4.98-2.21-9.91-7.49-11.02-.74-.16-1.45.9-.49,1.1,4,.84,6.03,4.56,6.42,8.37.34,3.33.02,7.53-2,10.33s-5.9,5.09-9.06,2.27-3.19-7.77-2.59-11.51c.34-2.12.74-4.44,2-6.24s3.17-3.15,5.42-3.22c.84-.03,1.1-1.14.12-1.11Z"/>
  <path class="st0" d="M46.98,70.52c0,.26-.04.66-.09.85-.04.14-.1.28-.16.41-.06.12-.08.13-.2.28-.05.06-.06.06-.01.02-.03.03-.07.06-.1.09-.05.04-.11.08-.17.13-.07.05-.08.05-.03.02-.04.03-.09.05-.13.07-.09.05-.19.11-.28.17-.31.21-.58.51-.71.86-.12.32-.18.73-.06,1.06s.36.61.63.85.58.41.91.51c.4.12.83.14,1.24.22.34.07.8-.13.94-.45.15-.35-.14-.58-.45-.65-.21-.04-.41-.08-.62-.11-.09-.01-.18-.03-.27-.04-.12,0,.07.04-.07-.01-.21-.08-.43-.2-.61-.39-.07-.07-.17-.2-.23-.3.04.07-.03-.07-.03-.08,0-.03-.02-.07-.02-.1-.02-.14.02-.26.05-.36.01-.03.03-.06.04-.09-.03.04-.02.03.02-.03.01-.02.14-.15.05-.07,0,0,.18-.13.06-.06.06-.04.13-.07.19-.11.17-.09.33-.2.48-.32.27-.22.49-.47.66-.76.31-.51.42-1.11.43-1.7,0-.37-.35-.53-.68-.51-.3.02-.79.24-.79.6h0Z"/>
  <path class="st0" d="M63.22,62.46c-1.06-.96-2.46-1.4-3.86-1.52-.69-.06-1.4-.03-2.08.09-.33.06-.64.13-.96.24-.24.08-.48.17-.67.36-.14.14-.14.27-.16.42-.06.61,1.4.35,1.45-.17,0-.08,0-.14.02-.2l-.14.22.04-.04-.29.18s.11-.06.03-.02c.06-.02.12-.04.18-.06.11-.03.23-.06.35-.09.03,0,.12-.02.04,0,.05,0,.11-.02.16-.03.13-.02.25-.03.38-.04.44-.04.95-.03,1.42.04,1,.15,1.99.52,2.74,1.2.25.23.68.15.96.03.17-.07.63-.38.38-.61h0Z"/>
  <path class="st0" d="M42.29,61.88c-2.26-.96-4.95-.66-6.93.8-.19.14-.43.43-.12.6.28.15.78.06,1.03-.13.74-.55,1.51-.88,2.47-.96.83-.07,1.71.12,2.4.41.32.14.74.06,1.03-.13.19-.12.45-.46.12-.6h0Z"/>
  <ellipse class="st0" cx="39.6" cy="68.56" rx="2.4" ry="1.44" transform="translate(-30.54 105.29) rotate(-87.63)"/>
  <ellipse class="st0" cx="57.91" cy="68.14" rx="2.4" ry="1.44" transform="translate(-12.56 123.18) rotate(-87.63)"/>
  <path class="st0" d="M42.79,79.81c.39.48,1.01.82,1.55,1.1,1.12.59,2.36.88,3.61.9,1.36.02,2.74-.34,3.95-.97.65-.34,1.44-.78,1.9-1.38.57-.74-.79-1.05-1.23-.48-.02.02-.04.05-.06.07-.1.1.13-.11-.01,0-.11.09-.21.18-.32.27-.28.21-.58.4-.89.57-.99.53-2.1.82-3.23.79-.99-.03-1.98-.31-2.85-.77-.28-.15-.54-.32-.8-.51-.09-.07-.18-.14-.26-.21-.14-.11-.02,0-.04-.03-.44-.55-1.81.05-1.32.66h0Z"/>
  <path class="st0" d="M25.96,76.98c1.38,3.05,3.49,5.67,6.33,7.46s5.94,2.87,9.07,3.7c7.2,1.91,14.85,1.27,21.35-2.51,3.49-2.04,6.42-4.89,8.53-8.35.12-.19-1.21-.12-1.43.25-3.5,5.73-9.46,9.84-16.13,10.84-6.48.97-14-.82-19.62-4.18-2.99-1.79-5.2-4.42-6.65-7.59-.17-.37-1.57.12-1.45.39h0Z"/>
  <path class="st1" d="M47.96,41.86c-.04,1.84-.01,3.68-.06,5.52,0,.36,1.44.13,1.45-.39.04-1.84.01-3.68.06-5.52,0-.36-1.44-.13-1.45.39h0Z"/>
  <path class="st1" d="M46.2,43.99c-2.93,2.32-6.06,4.43-9.2,6.47-1.39.9-2.81,1.74-4.15,2.71-1.72,1.25-3.4,2.56-5.11,3.82-.79.58.42.9.93.53,1.72-1.26,3.39-2.57,5.11-3.82,1.34-.97,2.76-1.8,4.15-2.71,3.13-2.04,6.27-4.15,9.2-6.47.77-.61-.43-.92-.93-.53h0Z"/>
  <path class="st1" d="M49.85,44.71c7.54,3.57,14.41,8.36,20.46,14.11.5.48,1.73-.28,1.11-.88-6.13-5.82-13.11-10.64-20.74-14.26-.65-.31-1.67.63-.82,1.03h0Z"/>
  <path class="st1" d="M49.72,24.7c3.3,2.39,7.36,3.81,11.33,4.62,1.99.41,4.02.62,6.05.55,1.89-.06,3.69-.5,5.5-1,.87-.24.66-1.05-.22-.8-1.76.49-3.49.92-5.34.93-2,.02-3.98-.25-5.92-.69-3.62-.84-7.23-2.15-10.26-4.34-.42-.3-1.74.31-1.14.74h0Z"/>
  <path class="st1" d="M65.77,10.68c.13,2.65-.2,5.41-.49,8.04s-.83,4.97-1.44,7.42c-.08.33,1.34.13,1.43-.25.61-2.42,1.15-4.84,1.43-7.32.31-2.7.65-5.56.52-8.28-.01-.27-1.47-.03-1.45.39h0Z"/>
  <path class="st1" d="M68.65,11.18c.94,2.66,2.09,5.34,2.44,8.16.27,2.16.25,4.34-.17,6.47-.14.73,1.34.56,1.47-.1.42-2.14.43-4.32.18-6.48-.34-2.92-1.5-5.68-2.47-8.44-.24-.67-1.68-.27-1.45.39h0Z"/>
  <path class="st1" d="M63.39,9.61c-4.96,4.25-7.98,10.69-7.07,17.27.1.72,1.55.35,1.45-.39-.85-6.11,2-12.21,6.6-16.16.74-.64-.39-1.23-.98-.73h0Z"/>
  <path class="st1" d="M35.65,37.88c.99-3,3.74-5.27,6.28-6.97s5.53-3.03,8.5-4.15c.3-.11.52-.51.33-.79-.22-.33-.69-.25-.99-.13-3.18,1.2-6.24,2.59-9.06,4.51-2.61,1.78-5.43,4.22-6.45,7.33-.27.82,1.18.87,1.4.2h0Z"/>
  <path class="st1" d="M49.19,35.84c.52-1.46,1.16-2.82,2.13-4.04.62-.78,1.36-1.48,2.11-2.14.48-.42,1.02-.8,1.57-1.07.21-.1.58-.34.38-.61-.19-.25-.74-.14-.96-.03-1.67.83-3.09,2.16-4.28,3.59-1.11,1.33-1.83,2.85-2.4,4.47-.11.32.46.36.63.34.31-.04.71-.19.82-.51h0Z"/>
  <path class="st1" d="M58.54,36.37c.08-1.12.24-2.22.61-3.29.2-.59.45-1.17.65-1.76.18-.51.34-1.06.64-1.52.2-.31-.17-.56-.44-.6-.38-.04-.74.13-.94.44-.3.46-.46,1-.64,1.52-.22.63-.48,1.23-.69,1.86-.38,1.13-.57,2.27-.65,3.46-.05.74,1.42.53,1.47-.12h0Z"/>
  <path class="st1" d="M64.96,31.11c.19,1.23.51,2.43.59,3.68.1,1.68.03,3.36.03,5.04,0,.25,1.45.04,1.45-.39,0-1.68.07-3.37-.03-5.04-.08-1.25-.4-2.45-.59-3.68-.05-.31-1.51,0-1.45.39h0Z"/>
  <path class="st1" d="M70.03,30.62c1.55,2.75,2.61,5.65,3.23,8.75.57,2.87.59,5.68.53,8.59-.02.78,1.46.59,1.47-.1.07-3.01.05-5.91-.55-8.88-.64-3.2-1.75-6.18-3.35-9.01-.34-.59-1.71-.03-1.32.65h0Z"/>
</svg>