<?xml version="1.0" encoding="UTF-8"?>
<svg id="_レイヤー_1" xmlns="http://www.w3.org/2000/svg" xmlns:xlink="http://www.w3.org/1999/xlink" version="1.1" viewBox="0 0 100 110">
  <!-- Generator: Adobe Illustrator 30.0.0, SVG Export Plug-In . SVG Version: 2.1.1 Build 123)  -->
  <defs>
    <style>
      .st0 {
        fill: none;
      }

      .st1, .st2 {
        fill: #1c1917;
      }

      .st3 {
        fill: #231815;
      }

      .st4 {
        fill: #fff;
      }

      .st5 {
        fill: url(#_6_dpi_30_);
      }

      .st2 {
        stroke: #1c1917;
        stroke-miterlimit: 10;
      }
    </style>
    <pattern id="_6_dpi_30_" data-name="6 dpi 30%" x="0" y="0" width="48" height="48" patternTransform="translate(-5909.59 -7975.91) rotate(-41.72) scale(.2)" patternUnits="userSpaceOnUse" viewBox="0 0 48 48">
      <g>
        <rect class="st0" width="48" height="48"/>
        <g>
          <circle class="st3" cx="24" cy="48" r="3.6"/>
          <circle class="st3" cx="48" cy="48" r="3.6"/>
          <circle class="st3" cx="24" cy="24" r="3.6"/>
          <circle class="st3" cx="48" cy="24" r="3.6"/>
          <circle class="st3" cx="36" cy="36" r="3.6"/>
          <circle class="st3" cx="12" cy="36" r="3.6"/>
          <circle class="st3" cx="36" cy="12" r="3.6"/>
          <circle class="st3" cx="12" cy="12" r="3.6"/>
        </g>
        <g>
          <circle class="st3" cy="48" r="3.6"/>
          <circle class="st3" cy="24" r="3.6"/>
        </g>
        <g>
          <circle class="st3" cx="24" cy="0" r="3.6"/>
          <circle class="st3" cx="48" cy="0" r="3.6"/>
        </g>
        <circle class="st3" cy="0" r="3.6"/>
      </g>
    </pattern>
  </defs>
  <path class="st4" d="M18.74,82.1c.67,2.89,1.88,7.8,5.98,12.01.75.78,3.22,3.19,8.66,5.38,4.21,1.7,15.83,6.38,28.03.99,1.98-.88,8.56-3.89,13.12-11.11,1.52-2.41,3.18-4.93,3.56-8.42,1.04-9.46-8.03-17.17-11.49-20.11-3.63-3.08-10.33-8.77-20.28-9.1-11.94-.39-24.97,7.07-27.87,17.72-1.42,5.21-.21,10.42.31,12.64Z"/>
  <path class="st2" d="M19.05,69.82c3.45,1.32,6.77.57,13.77-3.7,1.58-.97,5.65-3.69,9.68-7.71,2.49-2.48,4.44-3.59,5.72-5.44,2.81,3.43,4.87,5.13,6.87,6.87,3.06,2.67,8.31,6.64,14.84,9.31,3.99,1.63,5.36.97,7.73.75,5.84-.52,9.52-5.83,10-6.55,1.29-1.91,1.78-3.59,2.22-5.07,1.7-5.74.73-10.6.32-12.55-.79-3.73-2.29-7.3-4.19-10.59-.55-.96-5.13-5.95-5-6.74.11-.7,1.7-1.78,2.11-2.46,2.13-3.55,1.18-8.93-.05-12.63-1.57-4.72-6.47-8.15-11.76-9.51-6.1-1.56-12.28,1.82-14.52,3.12,0,0-5.82,3.9-7.58,10-.28.96-.15,3.07.32,3.98-2.6.64-4.42.73-8.22,2.03-2.67.91-6.59,2.86-8.61,3.83-4.45,2.14-8.32,6.26-11.69,9.75-1.58,1.63-5.49,6.77-7.87,13.2-1.12,3.02-1.16,7.09-1.07,9.32.14,3.8,2.78,9.18,6.98,10.78Z"/>
  <path class="st4" d="M16.41,58.1c-3.64-1.16-7.46,2.77-7.83,3.15-2.58,2.72-2.99,5.96-3.37,8.92-.31,2.44-.94,7.4,1.78,12.4.95,1.75,3.57,5.6,7.39,5.7s5.58-2.98,6.39-4.3c2.33-3.79,2.12-7.54,1.8-13.14-.36-6.33-1.88-8.83-2.88-10.12-.73-.94-1.69-2.08-3.28-2.6Z"/>
  <path class="st5" d="M16.41,58.1c-3.64-1.16-7.46,2.77-7.83,3.15-2.58,2.72-2.99,5.96-3.37,8.92-.31,2.44-.94,7.4,1.78,12.4.95,1.75,3.57,5.6,7.39,5.7s5.58-2.98,6.39-4.3c2.33-3.79,2.12-7.54,1.8-13.14-.36-6.33-1.88-8.83-2.88-10.12-.73-.94-1.69-2.08-3.28-2.6Z"/>
  <path class="st4" d="M84.83,60.79c-2.75-.02-3.95.73-6.15,2.6-2.54,2.17-3.36,4.87-4.23,9.06-.98,4.72-.55,8.6.46,11.52.91,2.63,3.45,5.67,6.9,5.79,4.61.15,7.64-3.71,8.69-5.16,2.46-3.42,3.45-11.56,2-16.21-1.25-4.02-3.78-6.76-7.67-7.61Z"/>
  <path class="st5" d="M84.83,60.79c-2.75-.02-3.95.73-6.15,2.6-2.54,2.17-3.36,4.87-4.23,9.06-.98,4.72-.55,8.6.46,11.52.91,2.63,3.45,5.67,6.9,5.79,4.61.15,7.64-3.71,8.69-5.16,2.46-3.42,3.45-11.56,2-16.21-1.25-4.02-3.78-6.76-7.67-7.61Z"/>
  <path class="st4" d="M78.45,63.51c-1.05-2.82-4-6.32-5.87-7.96-4.52-3.95-12-10.66-24.85-10.54-10.45.1-18.13,5.25-20.69,7.01-4.27,2.95-6.54,5.38-8.36,7.74l-2.89-1.68c.57-2.27,1.5-3.83,4.17-7.5.6-.82,3.51-4.75,8.85-7.87,8.43-4.93,16.95-4.38,22.15-4.04,5.64.36,12.52.67,19.26,5.51,1.55,1.11,5.94,4.51,9.09,10.42,1.73,3.25,1.95,5.95,2.27,6.97l-1.7,1.07-1.18.76"/>
  <path class="st1" d="M16.38,58.21c-3.16-.99-6.26,1.57-8.15,3.85-2.02,2.56-2.3,5.86-2.57,9.01-.46,4.7.48,9.51,3.49,13.15,5.02,6.27,10.73,2.15,12.44-4.28.75-3.03.5-6.32.45-9.46-.15-4.49-1.05-10.27-5.65-12.26h0ZM16.45,58c4.91,1.82,6.16,7.76,6.63,12.4.35,4.09.92,8.41-.7,12.34-2.83,7.01-9.74,8.91-14.59,2.56-3.18-3.99-4-9.5-3.19-14.37.46-3.2,1.03-6.67,3.25-9.2,2.13-2.37,5.3-4.5,8.61-3.74h0Z"/>
  <path class="st1" d="M84.83,60.79c-3.28-.19-6.11,2.14-7.89,4.69-.86,1.34-1.33,2.89-1.7,4.43-1.12,4.55-1.42,9.56.31,13.93,3.33,7.88,11.76,5.52,15.18-.95,3.29-7.23,3.5-19.69-5.9-22.11h0ZM84.83,60.79c9.82,2.1,10.13,15.03,7.07,22.66-3.88,8.15-13.96,10.6-17.59.84-1.01-3.19-1.06-6.56-.55-9.76.6-3.16,1.24-6.42,3.03-9.14,1.89-2.51,4.73-4.8,8.03-4.6h0Z"/>
  <path class="st1" d="M47.08,80.08c0,1.23-.69,2.71-1.94,3.22-.35.15-.52.28-.67.52-.54.83.45,1.74,1.21,1.94,0,0,1.13.25,1.13.25.37.08.24.66-.13.57,0,0-1.1-.17-1.1-.17-1.34-.21-2.64-1.67-1.9-3.02.37-.81,1.26-.91,1.71-1.55.37-.47.49-1.11.48-1.8,0-.81,1.25-.78,1.2.04h0Z"/>
  <path class="st1" d="M64.91,71.15c-1.91-1.68-4.95-2.04-7.3-1.23-.61.22-.96-.71-.34-.94,2.77-.76,5.93-.22,8.02,1.79.24.24-.13.62-.38.39h0Z"/>
  <path class="st1" d="M39.09,70.13c-2.17-1.17-4.95-1.07-7.06.29-.11.07-.23-.1-.13-.18,2.09-1.68,5.1-2.06,7.6-1.02.64.26.2,1.22-.42.91h0Z"/>
  <ellipse class="st1" cx="36.48" cy="77.45" rx="2.08" ry="1.25" transform="translate(-43.23 108.69) rotate(-86.18)"/>
  <ellipse class="st1" cx="59.18" cy="77.49" rx="2.08" ry="1.25" transform="translate(-22.08 131.38) rotate(-86.18)"/>
  <path class="st1" d="M41.04,91.01c3.46,2.48,8.3,2.3,11.77-.06.17-.18.47.03.32.24-2.98,3.74-9.39,3.79-12.36,0-.12-.18.12-.34.27-.19h0Z"/>
  <path class="st1" d="M21.56,86.68c1.84,4.84,5.49,8.57,10.21,10.78,7.08,3.42,15.06,5.53,22.92,4.19,7.8-1.33,15.04-5.89,19.4-12.55.33-.53,1.19-.02.85.53-5.79,9.51-17.17,15.07-28.24,14.23-5.57-.32-10.93-1.99-15.98-4.22-5.2-2.21-9.69-6.54-11.85-11.86-.73-1.79,1.93-2.9,2.68-1.11h0Z"/>
  <path class="st4" d="M51.11,22.97c8.6,3.9,17.83,7.21,27.38,5.82-1.12.49-2.26.92-3.45,1.24-7.75,1.85-18.53-1.15-23.93-7.07h0Z"/>
</svg>