<?xml version="1.0" encoding="UTF-8"?>
<svg id="_レイヤー_1" xmlns="http://www.w3.org/2000/svg" version="1.1" viewBox="0 0 100 100">
  <!-- Generator: Adobe Illustrator 30.0.0, SVG Export Plug-In . SVG Version: 2.1.1 Build 123)  -->
  <defs>
    <style>
      .st0, .st1 {
        fill: none;
      }

      .st2 {
        fill: #ceb372;
      }

      .st1 {
        stroke: #000;
        stroke-linecap: round;
        stroke-linejoin: round;
      }

      .st3 {
        fill: #fff;
      }
    </style>
  </defs>
  <path d="M77.66,50.23c0-.3-7.32-4.42-11.15-5.56-3.21-.96-6.36-2.04-9.6-2.93-1.92-.53-3.81-1.14-5.73-1.68-.24-.07-.43-.16-.59-.31-.34-.33-.76-.34-1.19-.2-1.78.55-3.56,1.11-5.37,1.58-2.59.68-5.2,1.29-7.87,1.7-3.54.53-7.03,1.25-10.26,2.66-.85.37-3.66,2.05-4.23,2.45-.35.24-.71.48-.96.81l-.08.02c.19.12.32.44.31.7-.06,1.25.28,2.49.21,3.73-.05.79.19,1.53.18,2.3-.02.76.1,1.53.14,2.3.11,1.97.57,3.91.65,5.88.03.86.16,1.7.23,2.55.09,1.06.34,2.12.81,3.12.25.53.2,1.09.23,1.64.07,1.34.11,1.58.6,2.85.07.19,1.35,2.48,1.5,2.63l1.14-2.71c-.14.46.37,3.03.89,3.94.46.81,1.38,2.92,2.62,3.43.13.05.58-1.93.72-1.86,1.29.65,1.52,3.64,1.52,3.64.41.58.86,1.14,1.34,1.68.91,1.02,1.77,2.1,3.17,2.7.03-.06.04-.09.04-.09.15-.32.31-.63.3-.96.62.18.86.65,1.19,1.06,1.16,1.44,2.66,2.55,4.41,3.43.43.22.93.63,1.49.62-.02-.07-.08-.27-.11-.37-.04-.19-.04-.26-.07-.41-.05-.36-.05-.51,0-.92.02-.94.97.55,1.41.87,1.09.78,2.12,1.62,2.8,2.71.59.93.64.93,1.45.1.52-.54,1.03-1.09,1.6-1.59.13-.11.72-.53.94-.49l-.19,1.84c.32,0,.59-.14.86-.33,1.09-.78,2.01-1.7,2.84-2.68.36-.42,1.78-1.82,2.18-2.18.05,1.31.25,1.86.72,1.59,1.96-1.11,3.7-2.75,5.11-4.35.49-.56.93-.98,1.61-1.81.02.33.09,1.55.2,1.96l1.16-1.13c1.14-1.29,1.91-2.76,2.64-4.24.24-.49.49-1.38,1.12-1.66.02.14.05,1.4.66,2.27,1.34-.81,1.69-1.78,2.04-2.49.93-1.87,1.48-3.47,1.45-5.48,0-.67.05-1.75.01-2.38,0-.06.17-.29.21-.24.57.87,1.11,1.31,1.45,1.78.52-1.91.24-5.49.33-7.07.09-1.55.14-3.11.36-4.65.33-2.34.48-4.7.6-7.05.05-.91-.09-1.81-.09-2.71h.04ZM60.16,75.65c-.43.37-.83.8-1.28,1.15-.91.7-1.91,1.27-3.15,1.5-1.42.26-2.88-.28-3.12-1.54-.08-.41-.14-.83-.28-1.23h-.06c-.21-.1-.45-.07-.65-.04-1.43.19-2.86.06-4.3.04-.59,0-.83.08-.88.62-.04.47-.21.9-.38,1.33-.4,1.03-1.19,1.46-2.31,1.16-1.97-.51-3.65-1.47-5.01-2.8-.43-.42-.6-.93-.41-1.48.1-.29.27-.57.34-.87.17-.69.62-1.25,1.22-1.67,1.22-.86,2.69-1.32,4.22-1.66,1.64-.37,3.33-.57,4.89-1.17.19-.07.38-.06.54,0,1.19.5,2.48.7,3.76.92,1.03.18,2.03.51,3.05.69,1.94.35,3.47,1.05,4.11,2.78.3.8.57,1.54-.28,2.27h-.02Z"/>
  <path class="st2" d="M75.23,48.34c-.37.3-.32.7-.29,1.07.12,1.56-.01,3.1-.16,4.65-.18,1.89-.54,3.75-.8,5.62-.14,1.04-.31,2.07-.7,3.07-.4,1.03-.68,2.09-1.27,3.06-.77,1.27-1.74,2.42-2.85,3.48-.9.86-1.82,1.68-2.93,2.35-.74.44-1,.42-1.68-.1-.95-.74-1.72-1.63-2.68-2.36-1.88-1.43-4.12-2.3-6.45-3-1.97-.59-3.97-.55-5.96-.01-.18.05-.42.05-.59,0-2.07-.66-4.02-.3-5.97.41-2.86,1.04-5.42,2.42-7.45,4.46-.43.43-.74.95-1.34,1.31-.71-.25-1.25-.71-1.81-1.12-2.35-1.73-4.29-3.75-5.79-6.08-.67-1.04-1.13-2.15-1.38-3.32-.4-1.9-.64-3.82-.97-5.72-.48-2.78-.46-5.58-.46-8.38,0-.27-.04-.53-.18-.77l6.21-3.05,19.68-4.36,18.25,5.87,7.58,2.91h-.01Z"/>
  <path class="st2" d="M21.11,54.02c-2.31-.63-4.77.48-5.3,1.78-.84,2.05.47,4.08,1.1,5.06.19.29,4.65,3.73,5.21,2.82-.1-2.48-.79-8.18-1-9.65h0Z"/>
  <path class="st2" d="M77.96,51.62c2.59-.79,5.36.6,5.95,2.22.94,2.56-.52,5.1-1.23,6.32-.21.36-5.21,4.67-5.84,3.53.11-3.11.89-10.23,1.13-12.07h0Z"/>
  <ellipse cx="37.16" cy="54.84" rx="1.11" ry="1.7"/>
  <ellipse cx="60.23" cy="54.84" rx="1.11" ry="1.7"/>
  <g>
    <path class="st2" d="M52.32,75.53c.14.4.21.82.28,1.23.24,1.27,1.7,1.8,3.12,1.54,1.24-.23,2.24-.8,3.15-1.5.46-.35.85-.78,1.28-1.15.85-.73.58-1.47.28-2.27-.64-1.73-2.17-2.43-4.11-2.78-1.02-.18-2.02-.51-3.05-.69-1.28-.22-2.57-.42-3.76-.92-.16-.07-.34-.08-.54,0-1.56.6-3.26.8-4.89,1.17-1.53.35-2.99.8-4.22,1.66-.59.42-1.05.98-1.22,1.67-.07.3-.24.58-.34.87-.19.55-.02,1.06.41,1.48,1.36,1.33,3.04,2.29,5.01,2.8,1.13.29,1.91-.14,2.31-1.16.17-.43.34-.86.38-1.33.05-.54.29-.63.88-.62,1.43.02,2.86.15,4.3-.04.21-.03.45-.06.65.04"/>
    <g>
      <path class="st2" d="M53.26,75.71c-.12-.12-.27-.2-.44-.24-.16-.03-.33,0-.5.06s-.31.16-.44.28c-.13.12-.26.25-.32.4-.05.14-.05.3-.02.44l1.94-.49c-.04-.18-.12-.34-.24-.46h.02Z"/>
      <path class="st2" d="M59.56,74.98c-.06.06-.04.15-.03.26.02.1.03.2-.08.3-.24.21-.59.11-.81.31-.23.2-.13.32-.39.51s-.44-.06-.69.1c-.25.16-.18.42-.45.56-.27.13.07.65-.23.78-.31.12-.57-.5-.84-.42-.27.07-.33.28-.6.31-.28.03-.22-.44-.45-.44-.23-.01-.28.43-.55.37-.26-.06-.24-.12-.46-.22-.19-.1,0-.38-.12-.48-.09-.11-.53.14-.63-.1-.04-.09,0-.2.07-.29.08-.2.2-.37.2-.38l-1.94.49s.09.1.17.24c.1.2.2.42.29.61.22.41,0,.56.36.93.39.34.56.12.96.33.39.17.29.49.73.59.45.08.39-.51.77-.48.38,0,.52.2.92.14.38-.07.36.09.74,0,.37-.11.33-.35.68-.49.34-.14.53.24.87.06.34-.19.11-.56.42-.75.3-.2.38-.08.68-.29.29-.21.4-.08.68-.32.28-.25-.09-.6.17-.84.27-.24.57.04.87-.25.32-.36.16-.45.36-.84.15-.4.48-.47.49-.85l-2.04-.09c0,.12.29.15.23.36-.09.2-.24.12-.36.26v.02Z"/>
      <path class="st2" d="M52.91,70.75c.34.06.31-.29.63-.23.32.07.43.41.75.49.32.08.36-.05.69.03.33.08.27.38.62.46.34.08.51-.16.81-.1.31.06.34-.55.67-.48.32.09.18.74.46.83.28.1.41-.04.68.09.26.14-.05.49.16.63.2.14.47-.2.68-.01.19.2.15.23.32.44.15.23-.12.4-.02.62.09.21.58.13.67.39.04.12-.04.25-.13.33-.1.08-.2.12-.2.12l2.04.09c0-.05-.26-.63-.43-1.05-.12-.34.11-.42-.06-.82-.2-.38-.44-.25-.67-.58-.25-.32,0-.54-.31-.85-.32-.3-.6.24-.9.01-.31-.21-.32-.44-.67-.61-.34-.15-.25-.28-.6-.41-.36-.12-.47.1-.82,0-.35-.08-.26-.5-.62-.57-.34-.07-.39.37-.72.3-.32-.07-.28-.21-.6-.29s-.28-.27-.61-.35c-.34-.08-.42.42-.76.34-.33-.07-.3-.48-.65-.54-.33-.06-.36.14-.69.08-.33-.06-.34-.4-.58-.45l-.39,1.96c.26.05.27-.21.61-.15s.31.21.64.27h0Z"/>
      <path class="st2" d="M42.77,71.42c.3-.09.14-.4.46-.49s.58.17.9.09c.32-.07.29-.2.61-.27.33-.07.39.23.72.17.33-.06.36-.33.69-.4.34-.07.11-.65.44-.71.33-.07.52.57.86.49s.38-.28.72-.38.35.38.7.27c.19-.06.07-.5.31-.56.2,0,.21.09.36.15,0,0,.03.01.06.02.25.09.23.43.57.53.36.1.53-.35.87-.27s.57.56.59.57l.39-1.96s-.45.12-.76.05c-.31-.08-.24-.32-.54-.4-.31-.1-.32.2-.72.04-.02,0-.04-.02-.05-.02-.36-.15-.34-.51-.84-.5-.51.07-.27.66-.67.78-.33.11-.47-.06-.78.03-.31.08-.31-.07-.62,0-.31.07-.3.32-.62.39-.33.07-.42-.35-.74-.29-.33.06-.24.49-.57.56-.33.07-.36-.08-.7,0-.34.07-.38-.11-.72-.04-.34.08-.19.57-.52.65-.33.09-.48-.29-.82-.19-.34.11-.28.29-.61.41s-.54-.16-.8-.05l.79,1.84c.21-.09.08-.32.38-.44.3-.11.35.04.65-.06h0Z"/>
      <path class="st2" d="M41.78,76.95c-.27-.15-.38.19-.66.03s-.27-.53-.52-.7c-.25-.18-.33-.07-.58-.27s-.05-.44-.28-.64c-.13-.13-.37.03-.51-.14-.1-.17-.69.13-.79-.18-.06-.33.68-.4.72-.57.03-.09,0-.16,0-.23-.02-.07-.04-.14.05-.35.05-.13.11-.2.19-.24.15-.03.36.02.4-.1.07-.16-.3-.39-.15-.6.16-.2.21-.17.4-.35.21-.18.41.09.65-.07.24-.15.04-.59.32-.74.14-.07.32-.04.47,0,.15.05.26.12.27.12l-.79-1.84s-.35.38-.67.56-.45-.04-.77.17c-.32.22-.18.45-.48.71-.3.28-.54.05-.83.42-.26.39.3.57.12.93-.09.21-.19.32-.28.46-.06.06-.11.1-.16.21-.16.37-.32.31-.45.76-.09.47.15.52.23.94.13.4-.27.58.02,1.01.32.4.69.1.98.38.27.24.17.34.45.57.28.22.17.37.47.59.31.21.55-.24.85-.05.3.18.13.55.45.72.32.16.41,0,.73.14s.28.49.54.59l.71-1.87c-.22-.08-.28.17-.58.05-.29-.13-.22-.27-.5-.41h-.02Z"/>
      <path class="st2" d="M50.12,74.69c-.32,0-.25.34-.58.34s-.52-.32-.85-.33c-.36-.01-.29.12-.77.11-.45,0-.55-.33-1.04-.29-.47.09-.45.32-.79.58-.27.34.26.68.2,1.02-.04.27-.46.14-.68.33-.06.04-.12.13-.14.2-.09.26.02.47-.06.67-.11.21-.45-.13-.54,0-.09.1.18.48-.02.6-.21.09-.23.03-.44.06-.22,0-.23-.33-.38-.36-.21-.05-.42.39-.72.3-.31-.1-.44-.6-.45-.61l-.71,1.87s.51-.03.85.07c.17.05.25.14.32.22.08.08.12.17.39.22.51.08.52-.2.97-.22.44-.08.55.25,1.02.03.44-.27,0-.66.29-.95.27-.31.5-.33.69-.75.15-.38.26-.24.39-.61.02-.05,0-.07,0-.11-.03-.13-.15-.26-.12-.45.03-.23.38.09.49,0,.14-.06-.12-.48.12-.49.24,0,.27.15.47.16.19,0,.27.2.58.21.34.01.32-.5.66-.49.34,0,.37.41.72.41s.35-.2.7-.21c.35-.02.47.31.74.28l-.21-1.99c-.23.02-.17.28-.49.3-.32.02-.32-.14-.64-.13h.03Z"/>
      <path class="st2" d="M52.29,75c-.09-.19-.34-.32-.55-.39s-.33-.11-.48-.1h0l.21,1.99h0c.18-.02.37-.08.41-.17.06-.09.07-.23.13-.37.05-.14.17-.28.25-.44s.12-.35.03-.53h0Z"/>
    </g>
  </g>
  <path class="st1" d="M22.02,49.56"/>
  <g>
    <path class="st3" d="M20.63,48.76c-.66-.32-1.79-1.22-2.3-2.58-.45-1.22-.56-3.21.47-4.52.46-.59.97-.8,1.01-1.4.05-.71-.62-1.19-1.01-1.66-1.56-1.88-.27-5.48.03-6.31.95-2.66,2.2-2.59,3.75-5.9.86-1.83.77-2.47,1.28-3.82.49-1.29,1.64-3.47,7.87-7.56,5.01-3.29,7.68-5.05,12.09-6.27,5.37-1.5,9.75-1.21,12.08-1.04,2.61.19,6.78.54,11.61,2.76,4.73,2.18,7.57,5,8.21,5.65,2.85,2.9,4.28,5.71,4.91,7.09,1.25,2.79,2.45,5.43,1.41,7.75-.37.83-.9,1.34-1.15,2.62-.31,1.6.31,1.89.26,3.64-.04,1.37-.6,2.76-1.73,5.55-.4.98-.62,1.42-.8,2.27-.17.78-.08,1.26-.16,3.22-.03.85-.02,1.27-.07,1.33-1,1.26-4.01-3.4-20.07-7.73-7.74-2.09-8.04-2.9-11.57-1.58-10.92,3.65-21.93,3.71-26.13,8.5h0Z"/>
    <g>
      <path class="st3" d="M17.87,38.81c.27.4.52.16.74.39.2.21.01.46.11.63.08.18.22.19.24.38v.05c-.06.24-.43.15-.54.28-.06.06-.05.14-.04.22.01.08.02.16-.14.36-.28.38.3.61.1.95-.17.34-.82.16-.95.6-.12.44.05.58,0,1-.03.42-.49.25-.49.7.01.46.45.43.5.84.07.42.01.43.13.85.13.41-.17.56.03.99.22.42.66.22.9.57.24.33.21.91.23.94l1.43-1.4s-.43-.15-.61-.42c-.18-.27.04-.39-.09-.65-.12-.26-.38-.16-.47-.47-.08-.32.25-.38.2-.68-.04-.3-.6-.16-.62-.5,0-.35.2-.44.23-.76.05-.32.19-.25.27-.54.09-.28-.12-.4.02-.69.16-.28.51-.03.68-.23.12-.13.2-.36.18-.49,0-.16-.01-.3.14-.48.27-.38.43-.35.53-.84,0-.03,0-.06.01-.07.02-.43.19-.48.02-.95-.24-.49-.72-.24-1-.58-.31-.34-.08-.65-.21-.86-.16-.21-.31-.13-.44-.4-.1-.3.21-.45.17-.66l-1.97.35c.08.34.3.24.45.67.16.43.02.49.28.92l-.02-.02Z"/>
      <path class="st3" d="M21.32,26.89c-.17.31.15.41-.03.72-.2.31-.57.3-.78.58-.22.28-.11.36-.35.64-.24.28-.48.09-.74.39-.26.32-.12.55-.36.89-.24.35.35.57.16.9-.18.33-.8.1-.98.49-.15.39-.02.54-.14.91-.12.37-.52.1-.64.49-.11.39.3.51.21.9-.09.39-.14.38-.21.78-.06.4-.39.38-.43.81-.02.44.45.51.46.92.01.4-.35.87-.34.91l1.97-.35s-.27-.36-.27-.7.25-.32.27-.65c.03-.33-.24-.37-.18-.72.07-.35.38-.27.46-.61.08-.33-.5-.38-.4-.73s.33-.4.45-.74c.12-.35.25-.24.38-.56.14-.3-.07-.45.1-.75.18-.3.54-.07.72-.34.19-.26-.15-.53.08-.81.24-.28.35-.19.6-.48.25-.3.4-.18.65-.5.24-.33-.19-.59.03-.92.22-.32.58-.15.79-.5.19-.35.03-.44.2-.8.17-.35.52-.3.65-.57l-1.83-.81c-.11.24.15.32-.02.65-.16.33-.3.25-.47.56h0Z"/>
      <path class="st3" d="M27.96,16.58c-.31.24-.03.45-.33.69s-.67.15-.97.41c-.29.26-.2.36-.5.62-.29.27-.5.06-.79.33-.28.29-.17.53-.43.83-.27.3.27.6.03.9-.24.29-.8-.05-1.05.29-.23.35-.12.53-.32.9-.19.37-.54.04-.71.44-.16.4.25.55.13.94-.12.38-.17.37-.27.75-.1.37-.41.3-.51.64-.1.33.34.52.22.87-.13.34-.66.48-.67.49l1.83.81s.02-.56.16-.94c.13-.38.37-.3.49-.7.11-.39-.16-.46-.06-.83.09-.36.41-.26.51-.58s-.47-.41-.35-.74c.13-.33.36-.34.52-.64.17-.29.28-.18.46-.46.2-.28.02-.46.25-.73.22-.28.56,0,.79-.26.24-.25-.08-.55.17-.81.27-.25.36-.15.63-.4.27-.24.4-.1.67-.34.28-.23-.07-.6.21-.84.29-.24.58.06.86-.17.29-.23.17-.38.47-.6.3-.22.57,0,.8-.17l-1.17-1.62c-.23.17-.05.36-.36.59-.31.23-.4.1-.71.34h0Z"/>
      <path class="st3" d="M38.37,9.9c-.35.18-.11.44-.46.62-.34.18-.68.02-1.03.21-.33.19-.27.31-.6.51-.33.2-.5-.06-.83.14-.33.2-.27.47-.59.67-.33.2.1.66-.22.86s-.73-.33-1.05-.12-.3.41-.61.62c-.32.21-.46-.25-.78-.05-.32.21-.08.58-.4.78-.32.21-.35.16-.67.37s-.52-.05-.84.17c-.32.21-.09.64-.4.86-.31.22-.86.08-.88.09l1.17,1.62s.27-.45.58-.66c.3-.22.44,0,.75-.22.31-.21.16-.44.47-.65s.49.07.81-.13c.32-.21-.09-.63.22-.83.32-.21.52-.1.84-.31.32-.2.36-.05.68-.26s.22-.43.54-.63.55.15.87-.04c.32-.2.08-.57.4-.76.32-.19.39-.07.71-.26.32-.19.42-.02.74-.21.32-.18.04-.61.37-.79.33-.18.55.17.88,0,.33-.16.24-.34.57-.5.33-.16.56.11.81,0l-.82-1.83c-.27.12-.12.35-.48.51-.35.17-.41.03-.77.21h.02Z"/>
      <path class="st3" d="M50.45,6.72c-.39.02-.28.36-.67.39-.38.03-.64-.25-1.03-.21s-.37.18-.76.23c-.38.05-.44-.25-.83-.19-.39.07-.44.33-.82.41-.38.07-.15.65-.52.73-.37.08-.57-.56-.95-.47-.38.08-.42.3-.8.39-.37.1-.36-.39-.74-.28-.38.11-.26.53-.63.64-.37.12-.39.07-.76.19-.37.13-.5-.17-.87-.03-.37.15-.24.61-.6.76-.35.15-.86-.1-.88-.09l.82,1.83s.35-.38.69-.52c.34-.13.43.1.77-.03.34-.12.25-.38.6-.51.35-.11.45.2.79.09.35-.11.08-.62.43-.73.36-.11.52.06.88-.03s.35.06.71-.02c.36-.08.35-.33.71-.41.36-.07.46.35.81.28.36-.07.28-.49.64-.55.37-.06.39.09.75.04.37-.05.39.14.75.1s.28-.55.65-.58c.37-.03.44.37.81.35.37-.02.36-.22.73-.23.37-.01.47.32.75.31l-.04-2c-.29,0-.25.27-.64.28s-.39-.14-.78-.12l.03-.02Z"/>
      <path class="st3" d="M62.85,7.85c-.38-.1-.38.25-.76.16-.37-.09-.53-.44-.91-.52s-.41.06-.79-.01-.34-.37-.73-.43-.52.19-.9.14c-.39-.05-.34.57-.72.53s-.37-.71-.75-.75-.49.14-.87.11c-.38-.03-.21-.48-.59-.51-.38-.03-.42.41-.8.38-.38-.02-.38-.08-.77-.09-.38-.02-.39-.34-.78-.35-.39-.01-.45.47-.84.47s-.75-.42-.78-.42l.04,2s.47-.22.84-.21c.37,0,.36.25.73.26.37,0,.38-.26.75-.25.37.02.35.35.72.37.37.02.3-.56.67-.53.37.03.48.23.85.26.37.03.32.18.68.21.37.03.44-.2.81-.16.37.04.33.47.69.51.36.05.42-.39.78-.33.37.06.34.2.71.26.36.07.33.25.69.32.36.08.43-.43.79-.35.36.09.3.49.66.58.35.09.41-.09.76,0,.36.11.34.45.61.53l.59-1.91c-.28-.08-.32.18-.69.07-.37-.11-.33-.25-.71-.35h.02Z"/>
      <path class="st3" d="M74.03,13.41c-.31-.24-.45.08-.76-.15-.31-.23-.31-.61-.63-.84-.32-.23-.4-.11-.72-.33s-.17-.47-.5-.69c-.33-.21-.55-.03-.88-.23-.33-.2-.54.4-.87.21-.33-.18-.06-.8-.41-.98-.35-.18-.51-.06-.86-.23-.35-.17-.02-.53-.38-.7-.36-.16-.54.23-.9.08-.35-.16-.34-.2-.7-.35-.36-.14-.26-.46-.63-.59-.37-.13-.58.29-.95.17-.36-.12-.58-.65-.6-.65l-.59,1.91s.51-.05.86.07.26.36.6.48.44-.13.79,0c.34.14.21.44.54.59.33.15.47-.42.81-.27.34.16.35.39.69.55.33.16.22.28.55.45s.48-.02.8.16.12.55.43.74.54-.2.85,0,.24.32.54.52c.3.21.2.36.5.57s.57-.23.87,0c.3.22.08.57.37.79.29.23.41.08.7.31.28.24.13.55.34.73l1.32-1.5c-.22-.19-.37.03-.66-.22-.3-.25-.2-.37-.51-.61h-.01Z"/>
      <path class="st3" d="M81.66,23.33c-.16-.35-.43-.13-.59-.48-.16-.35.02-.69-.16-1.05-.18-.35-.3-.29-.49-.63-.19-.34.07-.5-.13-.84s-.48-.28-.68-.61c-.22-.33-.66.11-.87-.21-.21-.31.3-.74.07-1.06s-.44-.28-.67-.59c-.24-.3.21-.48-.04-.79-.25-.3-.59-.03-.84-.32-.26-.29-.22-.33-.48-.61-.27-.28-.05-.52-.32-.81-.28-.28-.66.02-.94-.24s-.27-.82-.29-.84l-1.32,1.5s.49.16.76.41c.26.25.09.43.34.68.25.26.45.07.71.34.25.27,0,.49.24.76.23.27.6-.18.84.1.23.29.15.5.38.79.22.29.08.35.29.64.22.29.44.19.65.49.21.31-.15.55.05.85.19.31.56.07.75.39s.06.39.24.71c.17.32,0,.41.17.73.16.32.6.07.76.4.16.34-.2.54-.05.88.15.34.33.26.48.61.15.34-.12.56-.02.81l1.85-.77c-.11-.27-.34-.13-.49-.49-.15-.35-.01-.41-.17-.76h-.03Z"/>
      <path class="st3" d="M81.79,35.12c-.07-.33-.39-.19-.43-.51-.02-.33.31-.48.36-.79.06-.31-.07-.35.02-.66.11-.31.39-.19.53-.47.15-.28-.03-.48.16-.83.2-.36-.39-.54-.23-.89.14-.36.8-.2.91-.65.09-.44-.07-.57-.05-.99s.47-.27.46-.72c-.04-.44-.47-.4-.54-.81s-.03-.41-.12-.81c-.11-.39.2-.5.08-.89-.13-.39-.6-.28-.74-.64-.14-.36.12-.86.11-.88l-1.85.77s.37.36.5.7c.12.34-.11.42,0,.75s.37.26.46.6c.07.34-.24.41-.19.72.05.32.6.15.64.5.02.35-.18.46-.2.77-.03.32-.18.26-.24.56-.07.29.14.4.02.71-.14.31-.52.1-.69.4-.19.33.19.54,0,.91-.18.38-.32.33-.46.74-.12.42-.31.37-.39.81-.07.45.44.46.43.88.01.41-.38.53-.3.96.09.4.28.35.35.69.06.34-.27.45-.26.68l2-.11c-.02-.33-.28-.27-.34-.69-.07-.41.07-.45-.01-.81h.01Z"/>
      <path class="st3" d="M79.39,47.14c0-.3-.08-.32-.16-.41-.08-.08-.17-.15-.17-.34,0-.38.32-.58.35-.88.04-.29-.08-.33,0-.66.09-.33.39-.24.5-.55.12-.32-.08-.51.07-.86.15-.35-.46-.48-.32-.83.14-.35.78-.15.92-.5s0-.51.14-.86c.14-.36.52-.06.66-.42.14-.37-.27-.52-.14-.89s.18-.35.29-.74c.11-.39.43-.33.53-.75.08-.43-.39-.56-.35-.97.03-.41.44-.81.43-.85l-2,.11s.23.42.19.74c-.03.33-.28.29-.34.6-.07.32.19.39.1.73-.1.34-.42.23-.53.57-.12.34.46.43.33.78s-.36.39-.5.73c-.14.35-.26.25-.4.6s.07.48-.08.83c-.14.35-.54.19-.68.54-.15.36.26.51.12.88-.14.38-.28.34-.39.74-.1.4-.29.36-.36.82-.04.46.47.43.46.83,0,.38-.41.43-.42.78,0,.21.19.25.18.51,0,.27-.34.11-.35.24l1.93,1.54c.05-.4-.23-.53-.2-1.04.02-.52.17-.47.18-1.02h0Z"/>
      <path class="st3" d="M69.37,46.54c.34.15.4-.19.75-.04.34.15.42.53.75.68.34.16.4.04.73.2.34.16.21.44.54.61.33.16.53-.02.86.15.33.17.51-.42.85-.24.33.18.06.79.39.97s.5.06.83.25c.39.22.05.56.54.84.52.29.59-.17,1.02.04.44.19.45.26.87.38.42.09.56.44,1.02.35.46-.18.27-.68.33-1.02,0-.04.02-.07.04-.11.11-.26.53-.33.52-.38l-1.93-1.54s.12.27.17.52c.01.06.02.12.02.17,0,.12-.09.09-.19.03-.1-.06-.19-.12-.28-.12-.17-.02-.02.36-.24.27-.22-.1-.28-.52-.42-.6-.14-.08-.14.58-.39.44-.12-.07-.19-.16-.25-.26-.05-.09-.11-.18-.29-.28-.33-.19-.22-.3-.55-.48-.34-.18-.49,0-.83-.17-.34-.18-.15-.56-.49-.74s-.53.22-.88.05c-.34-.17-.28-.3-.62-.47-.35-.17-.26-.34-.61-.5s-.53.31-.87.16c-.35-.15-.22-.54-.57-.7-.35-.15-.43.03-.78-.12-.35-.15-.31-.49-.58-.6l-.76,1.85c.26.11.32-.15.67,0s.28.29.63.44v-.03Z"/>
      <path class="st3" d="M57.94,42.65c.37.1.37-.25.74-.15.36.1.49.46.86.56.36.1.4-.02.76.08.36.11.28.4.64.51.36.11.52-.11.88,0s.43-.51.79-.39.21.77.56.88c.36.11.5-.03.86.09.36.12.08.52.43.64s.5-.28.86-.16c.35.13.34.17.69.31.35.13.26.44.61.57s.57-.3.92-.16.51.67.53.68l.76-1.85s-.54,0-.89-.13c-.36-.14-.26-.37-.62-.51-.36-.13-.46.12-.82,0-.36-.13-.24-.44-.6-.57s-.44.45-.8.32c-.36-.12-.41-.35-.77-.47-.36-.12-.27-.25-.63-.37-.36-.12-.48.1-.84-.02s-.24-.52-.61-.64c-.37-.11-.48.31-.85.2s-.32-.25-.69-.35c-.37-.11-.31-.29-.68-.4-.37-.1-.47.4-.84.3-.37-.1-.3-.5-.66-.61-.36-.1-.41.09-.78,0-.36-.1-.36-.45-.63-.53l-.54,1.93c.27.08.31-.19.68-.08.37.1.32.25.69.35h-.01Z"/>
      <path class="st3" d="M46.64,41.23c.37-.12.18-.41.53-.53.36-.13.65.1.98,0,.33-.08.3-.23.63-.28.33-.06.37.26.67.23.3,0,.39-.26.73-.22.33.04.32-.57.69-.51.37.08.27.74.62.83s.49-.07.85.04c.36.1.1.51.46.62s.49-.31.85-.2c.36.11.35.16.71.27s.29.43.66.53c.37.11.55-.34.92-.24s.59.61.61.62l.54-1.93s-.52.07-.89-.04c-.36-.1-.29-.34-.65-.45s-.44.16-.8.05-.26-.42-.62-.53-.42.48-.78.37-.43-.33-.79-.44c-.37-.1-.29-.24-.67-.34-.39-.1-.49.13-.87.05-.4-.07-.33-.5-.78-.54-.44-.05-.46.41-.87.41-.42.03-.44-.12-.86-.05-.42.07-.45-.1-.86,0-.39.12-.21.59-.57.72s-.54-.24-.89-.13-.29.3-.65.41-.54-.18-.81-.1l.58,1.91c.28-.09.16-.33.53-.44.37-.12.41.03.78-.09h.02Z"/>
      <path class="st3" d="M34.7,44.23c.37-.08.22-.39.59-.47s.65.18,1.03.1c.37-.08.34-.21.72-.29.37-.08.45.22.82.13.37-.08.41-.35.78-.44.37-.08.12-.66.49-.74.37-.09.57.55.94.46s.42-.29.79-.38c.37-.09.35.39.72.3.37-.09.27-.52.64-.61.37-.1.38-.04.75-.14s.47.21.84.1c.37-.1.29-.58.66-.69.37-.1.83.2.86.19l-.58-1.91s-.4.34-.76.44c-.36.1-.43-.14-.79-.04s-.29.37-.65.47c-.36.1-.44-.23-.8-.14s-.11.62-.47.71-.53-.07-.89.02c-.37.09-.36-.07-.72,0-.37.09-.35.33-.72.42-.37.09-.47-.33-.84-.25s-.26.51-.63.59c-.37.08-.4-.06-.77.02s-.41-.11-.78-.03-.23.57-.6.65-.49-.31-.86-.23-.33.27-.7.35c-.37.08-.53-.23-.81-.17l.42,1.95c.28-.06.19-.31.56-.39.37-.08.4.07.77,0h0Z"/>
      <path class="st3" d="M23.35,47.72c.31-.17.07-.43.39-.61.31-.18.66.03.98-.13.33-.15.27-.28.61-.42.35-.13.46.15.8.03.34-.12.33-.41.69-.52.35-.11.06-.66.42-.77s.6.51.96.4c.36-.1.4-.3.76-.4.36-.1.35.39.71.29.36-.09.26-.51.63-.6.37-.09.38-.04.74-.12.36-.09.46.23.83.14.37-.08.31-.56.68-.65.37-.08.8.26.83.26l-.42-1.95s-.44.31-.81.39c-.37.08-.42-.16-.8-.08-.37.08-.31.35-.68.44s-.44-.24-.82-.15c-.37.09-.12.62-.49.71-.37.1-.54-.06-.91.04-.37.1-.37-.06-.74.04-.37.11-.34.36-.71.47-.37.11-.51-.29-.88-.17-.37.13-.22.54-.58.68s-.42,0-.78.14c-.36.15-.43,0-.8.15-.36.17-.11.61-.46.77-.34.19-.57-.15-.92.05-.35.21-.26.35-.58.58-.32.24-.6.02-.86.21l1.24,1.57c.21-.15.02-.34.31-.55.28-.21.37-.07.68-.25h-.02Z"/>
      <g>
        <path class="st3" d="M19.08,48.73l.04.03.04.04.08.08.04.04.04.04.04.03h.02l.03.02h.12l.06-.02.06-.02.11-.05.06-.02h.11s.05.04.05.04l.05.03.05.04.05.04.05.03h.03l.03.02h.11l.05-.03.08-.05s.11-.06.17-.1h.02v-.02h.05l.05-.04.05-.03.09-.06h.02l.02-.02h.1l.05.02.11.05.05.03.05.02h.05s.02,0,.02,0h.02s.06,0,.09-.02l.1-.03c.06-.02.13-.04.18-.06h.02v-.02h.02v-.06l.02-.04v-.04l.02-.04v-.02l.02-.02h.01l.02-.03h.03s.01,0,.01,0h.06s.08.03.13.04l.07.02h.09s.03,0,.03,0h.03s-.62-.8-.62-.8l-.31-.39-.31-.39h-.02v.03s-.03.03-.03.03l-.02.02h-.01s0,.02-.01.02h-.01v.02h-.01v.03s-.02.05-.02.08l-.02.04v.02l-.03.02-.02.02-.02.02h-.03l-.03.02s-.05.02-.08.03-.07.03-.11.04c-.04,0-.08.03-.11.04h-.04c.07.06.07.05.11.08h0l-.04.02h-.03l-.03.02h-.09l-.03-.02-.05-.04-.02-.02h-.03v-.17h0v-.02h0s0,0-.01,0l-.02-.03s-.03-.04-.04-.05l-.36.35-.36.35-.71.7h.02l.02.03.04.02s.07.03.1.04l.11.04.05.02.05.02-.09-.06Z"/>
        <path class="st0" d="M20.17,46.49c.23-.22.22-.21.34-.33h0l.02.04.04.05.08.1.15.2.31.39.62.79,1.24,1.57-.12.09-.06.04h-.02v.02h0l-.03.03-.2.2-.41.4-1.01,1.15-1.37-.67-.28-.15-.25-.15-.23-.15-.22-.16-.21-.17-.2-.17-.19-.18-.19-.18,1.43-1.4.71-.7.36-.35.18-.17.09-.09.04-.04.02-.02h.01v-.02h0c-.45.02-.43.02-.67.03h.02Z"/>
      </g>
    </g>
  </g>
  <g>
    <path d="M77.28,48.64c0,.11,0,.27.03.43.02.16.07.33.15.49s.2.28.37.36c.16.08.37.14.59.07.21-.07.44-.27.59-.49l-1.67-1.11c-.04.06-.06.14-.05.25h0Z"/>
    <path d="M80.11,39.34c-.08.3.27.33.16.64-.11.31-.47.37-.6.66-.14.29-.02.35-.18.64-.17.29-.43.14-.61.42s0,.49-.2.77.37.54.16.84c-.2.29-.89.03-1.06.52-.13.46.09.61.17,1.01,0,0,0,.04.01.06.08.41-.42.29-.38.6.02.29.46.28.46.61s-.06.33-.08.66c-.03.33-.36.31-.4.64-.05.34.43.44.36.73-.09.31-.57.25-.56.24l1.67,1.11s.18-.71.25-1.12c.09-.42.32-.38.38-.74.05-.37-.23-.41-.2-.78.03-.38.36-.35.36-.75s-.57-.27-.6-.64c-.03-.32.11-.53.1-.74v-.06c-.04-.22.11-.19.16-.37.07-.18-.12-.29.04-.52.19-.27.56-.04.76-.34.21-.31-.16-.54.04-.85.2-.31.32-.24.51-.56.18-.33.35-.24.52-.59.17-.36-.32-.53-.18-.87.13-.35.53-.26.64-.65.09-.39-.09-.43-.03-.82.05-.38.4-.46.4-.77l-2-.06c0,.22.26.21.23.52-.05.31-.2.28-.27.58l-.03-.02Z"/>
    <path d="M77.31,29.44c.21.27.43.01.64.29.2.28.05.62.24.91.19.28.29.22.47.51s-.09.46.07.75c.17.29.42.25.58.55.15.3.65-.05.8.27.14.32-.44.64-.31.95.12.3.32.3.39.58.03.14-.08.2-.19.25-.11.04-.22.08-.21.28.03.37.47.33.5.69.03.35-.02.36.02.71.03.35-.29.4-.26.74.02.34.51.35.52.7.02.35-.42.66-.42.66l2,.06s-.2-.51-.22-.87c-.02-.37.23-.38.2-.75-.03-.37-.31-.34-.34-.7-.03-.35.3-.38.26-.73-.03-.35-.6-.19-.63-.54-.03-.31.17-.55.05-.96-.12-.4.03-.41-.11-.77-.15-.34-.38-.27-.53-.61-.15-.33.23-.53.06-.86-.17-.33-.55-.13-.73-.44-.18-.32-.05-.39-.24-.71-.19-.31-.02-.42-.23-.73-.21-.31-.6,0-.81-.3-.21-.29.1-.56-.12-.86-.22-.29-.38-.18-.6-.46-.23-.28-.03-.57-.2-.78l-1.52,1.29c.16.19.34,0,.56.27s.09.36.3.63v-.02Z"/>
    <path d="M69.05,22.1c.29.19.41-.14.71.06.29.19.29.57.57.76.28.2.36.09.65.29.28.21.11.46.38.67.27.21.5.05.77.27.27.21.57-.33.84-.11.28.22-.11.77.15.99s.45.13.71.37c.26.23-.14.49.12.72.25.23.55-.09.81.15.25.24.21.28.46.52.24.25.02.49.26.73.23.25.62-.04.85.21.23.26.11.78.13.8l1.52-1.29s-.47-.23-.71-.49c-.25-.27-.06-.44-.31-.7-.26-.26-.46-.07-.71-.33-.26-.25-.02-.49-.29-.74-.27-.25-.58.25-.84,0-.26-.24-.22-.46-.49-.7-.27-.24-.14-.32-.42-.56-.28-.23-.46-.07-.74-.3s-.02-.57-.31-.79c-.29-.22-.55.13-.83-.09-.29-.22-.2-.33-.49-.54-.29-.21-.18-.37-.48-.57-.3-.21-.56.23-.85.03-.3-.2-.1-.56-.41-.76-.3-.2-.41-.03-.71-.22-.31-.19-.21-.52-.44-.66l-1.02,1.72c.22.13.33-.11.63.07.3.18.21.31.5.5h0Z"/>
    <path d="M58.83,17.8c.34.09.36-.26.7-.16.34.09.47.45.8.54.33.09.37-.04.7.06s.25.4.58.5c.33.11.49-.12.81,0,.33.11.43-.5.76-.38.33.12.14.76.46.89s.47-.01.79.12c.32.14.02.51.33.65.31.14.5-.25.81-.1s.29.2.6.36.18.46.48.62c.3.16.58-.24.88-.07.3.17.37.71.38.72l1.02-1.72s-.51-.06-.82-.24c-.32-.18-.19-.39-.52-.57-.32-.17-.45.07-.77-.09s-.17-.46-.5-.62c-.33-.15-.47.41-.8.26s-.35-.38-.69-.52c-.33-.14-.24-.26-.57-.4-.34-.13-.46.08-.8-.05-.34-.12-.2-.53-.55-.65-.35-.12-.48.3-.82.19-.34-.11-.3-.25-.65-.35-.35-.1-.3-.28-.65-.38-.35-.09-.44.41-.79.31-.34-.09-.27-.49-.61-.59-.34-.09-.39.1-.74,0-.34-.09-.34-.44-.6-.51l-.5,1.94c.25.07.29-.2.63-.11s.3.24.64.33v.02Z"/>
    <path d="M47.84,15.9c.34,0,.27-.34.61-.33.35.01.53.33.87.35.34.03.35-.11.7-.07.34.04.32.34.66.38.34.04.46-.2.8-.15.34.05.33-.57.68-.52.35.06.29.72.64.78.34.06.46-.11.8-.04.34.06.13.5.47.56.34.07.43-.36.78-.28.34.07.33.13.67.21.34.08.28.4.62.48s.5-.37.84-.29c.34.09.55.58.57.59l.5-1.94s-.5.08-.84,0c-.35-.09-.28-.33-.63-.41-.35-.08-.42.18-.76.1-.35-.08-.27-.4-.62-.48s-.37.51-.72.44c-.35-.07-.42-.29-.78-.35-.35-.07-.29-.21-.64-.27s-.43.17-.79.12c-.35-.06-.3-.48-.66-.53s-.41.38-.77.34-.34-.19-.7-.23c-.36-.03-.35-.22-.71-.25-.37-.02-.36.48-.72.47-.36-.01-.39-.42-.76-.42s-.37.19-.74.21c-.36.02-.47-.3-.75-.28l.15,1.99c.25-.02.2-.28.55-.31.34-.01.34.14.68.14h0Z"/>
    <path d="M45.77,15.65c.1.14.24.24.39.31.14.07.29.13.46.11h0l-.15-1.99h0c-.18.01-.35.07-.49.16-.14.1-.25.25-.31.41-.07.15-.09.33-.07.51s.09.35.18.49h0Z"/>
  </g>
  <g>
    <path d="M75.81,48.89c-.06-.1-.14-.2-.22-.3-.08-.09-.21-.18-.36-.25-.17-.07-.37-.11-.57-.07-.2.03-.43.11-.57.31-.14.17-.18.52-.16.74l2-.13c0-.14-.05-.18-.11-.29h0Z"/>
    <path d="M74.83,59.99c.05-.38-.3-.34-.24-.71.05-.37.39-.55.44-.92s-.08-.39-.03-.76.36-.35.41-.72c.05-.37-.19-.49-.14-.86s-.57-.32-.52-.69.72-.36.78-.73c.05-.37-.12-.48-.08-.85.03-.38.48-.2.52-.58.03-.38-.4-.42-.38-.8.02-.38.08-.38.09-.76.01-.38.34-.4.34-.79s-.48-.44-.5-.83c-.01-.38.38-.79.38-.79l-2,.13c0,.06.24.45.25.81,0,.36-.24.36-.24.71s.27.36.26.73c-.02.36-.35.34-.37.7-.03.36.56.29.53.66s-.24.47-.27.84-.19.31-.24.68c-.05.37.18.43.13.8s-.48.33-.53.7c-.05.37.38.41.33.78-.05.37-.2.35-.25.72-.05.37-.24.34-.29.71s.46.4.4.77c-.05.37-.46.35-.51.72-.05.36.14.39.08.75s-.41.38-.46.64l1.96.41c.06-.29-.2-.31-.14-.69.06-.38.21-.36.27-.74l.02-.04Z"/>
    <path d="M68.83,70.81c.29-.26,0-.45.28-.71s.65-.19.93-.46c.28-.28.18-.37.45-.65.26-.29.5-.09.76-.39s.12-.54.36-.85-.32-.58-.1-.89.8.02,1.02-.31c.21-.33.11-.52.3-.88.18-.36.54-.03.71-.42.16-.38-.25-.55-.11-.91.13-.36.18-.34.3-.69.13-.35.43-.24.56-.59.14-.4-.3-.6-.19-.98.11-.37.6-.64.61-.67l-1.96-.41s.11.48.01.82c-.1.33-.34.25-.45.55-.14.37.12.47,0,.82s-.44.24-.56.57c-.12.33.45.44.32.77-.14.33-.37.34-.52.64-.16.29-.27.17-.46.47-.19.29-.02.46-.22.76-.21.29-.56.04-.77.31-.22.27.12.54-.11.82-.24.27-.35.17-.59.44-.25.26-.38.13-.63.38s.12.59-.15.85c-.27.25-.57-.02-.84.22s-.14.38-.42.61-.55.01-.76.17l1.19,1.61c.24-.18.05-.36.36-.61.3-.25.4-.13.7-.39h-.02Z"/>
    <path d="M57.95,68.01c.33.14.39-.2.73-.06.33.15.39.52.7.68.32.16.38.05.69.22.31.18.16.45.45.63.29.19.51.02.79.23.28.21.57-.34.85-.1s-.13.77.14,1.02.46.18.73.44c.28.26-.14.51.16.77.29.26.59-.05.98.25.4.28.38.35.84.53.47.1.52.4,1.05.26.53-.21.42-.74.8-.97.35-.22.88-.09.91-.11l-1.19-1.61s-.07.12-.16.25c-.09.13-.24.29-.33.35-.2.12-.28-.12-.44-.04-.16.05-.18.38-.4.32-.21-.11-.08-.45-.21-.54-.13-.11-.42.4-.7.16-.27-.24-.22-.47-.49-.72s-.13-.34-.41-.6c-.29-.26-.48-.11-.78-.37-.3-.25-.05-.6-.38-.84s-.57.13-.89-.08c-.33-.21-.25-.33-.59-.53-.34-.19-.25-.36-.6-.54s-.54.29-.89.13-.22-.55-.57-.7c-.36-.15-.43.03-.79-.11s-.33-.48-.61-.58l-.66,1.89c.26.09.31-.17.65-.04s.28.27.61.41h.01Z"/>
    <path d="M46.54,66.71c.33,0,.27-.34.62-.32.35.03.5.37.82.43.35.08.28-.07.8.07.47.07.52.33,1.01.26.02,0,.05,0,.07-.02.38-.1.37-.36.73-.43.34-.06.14-.65.51-.7.37-.05.48.62.82.59.34-.02.42-.21.78-.2.35.01.21.47.54.49.33.03.39-.4.74-.35.35.06.33.11.67.19.34.08.26.4.6.5.35.11.54-.34.89-.23.35.12.53.63.55.64l.66-1.89s-.54.03-.9-.08c-.36-.12-.29-.35-.65-.47-.39-.11-.47.15-.85.06-.39-.08-.32-.41-.73-.48-.41-.06-.36.53-.75.49-.39-.03-.5-.24-.9-.24s-.36-.15-.76-.13c-.4.03-.43.27-.82.32-.39.06-.47-.37-.87-.29-.39.08-.32.51-.65.59h0c-.24.05-.26-.08-.47-.12-.1-.03-.16-.1-.26-.17-.09-.07-.18-.14-.39-.19-.42-.08-.46.43-.85.38-.39-.04-.41-.45-.83-.45s-.41.2-.81.23c-.4.04-.54-.28-.85-.23l.34,1.97c.25-.04.18-.3.52-.34.34-.03.35.12.68.12Z"/>
    <path d="M36.36,71.38c.26-.24-.03-.44.24-.68.28-.24.63-.13.91-.34s.2-.32.5-.53c.3-.2.47.05.77-.14s.24-.45.55-.64c.31-.18-.09-.66.24-.83.33-.18.68.4,1,.24s.32-.36.66-.51c.33-.15.4.33.73.19.33-.14.17-.54.51-.68.34-.13.36-.08.7-.21.34-.12.46.18.79.08s.25-.58.6-.66c.17-.04.36.03.51.11.14.08.24.17.25.17l-.34-1.97s-.48.3-.86.39c-.38.1-.45-.14-.83-.02s-.29.39-.66.51c-.36.13-.47-.18-.83-.04s-.04.63-.39.78c-.35.14-.54.01-.89.17-.35.16-.37,0-.72.17-.35.17-.28.41-.62.59-.34.18-.55-.18-.9.01-.34.21-.11.57-.43.78-.33.21-.4.09-.73.31-.32.23-.43.07-.75.31-.31.25.03.61-.26.86-.29.24-.59-.03-.88.23-.29.28-.14.39-.44.7-.27.3-.58.16-.74.34l1.48,1.35c.21-.23-.02-.38.22-.65.22-.24.33-.12.59-.37l.02-.02Z"/>
    <path d="M24.61,63.3c.16.43.44.22.61.63.18.4.02.78.25,1.18.23.39.35.33.59.69s0,.54.25.91c.26.36.53.28.8.63.28.34.66-.15.94.18.27.32-.19.81.11,1.13.3.32.5.27.81.58.31.3-.13.53.19.83s.62-.01.94.27c.33.28.29.33.62.6s.15.54.5.81.69-.09,1.02.16c.33.25.46.85.49.87l1.07-1.69s-.5-.09-.85-.35-.18-.45-.51-.69c-.32-.25-.49-.03-.81-.29-.31-.26-.09-.51-.39-.77-.3-.27-.6.24-.9-.04s-.25-.52-.54-.8c-.28-.29-.14-.36-.41-.66s-.48-.17-.75-.49c-.26-.31.06-.59-.18-.9-.24-.31-.59-.05-.83-.38-.23-.33-.12-.41-.34-.75-.23-.34-.06-.43-.25-.76-.18-.33-.62-.06-.79-.43-.17-.37.19-.56.06-.92-.13-.36-.31-.3-.42-.68-.1-.38.22-.54.16-.85l-1.96.41c.05.31.29.22.4.66.12.44-.03.48.11.92h0Z"/>
    <path d="M22.81,49.6c0,.43.34.33.35.75,0,.42-.3.68-.29,1.11.01.43.15.42.17.85s-.28.46-.26.89c.03.43.3.51.34.94.05.43.64.23.69.65.05.42-.6.57-.54,1,.07.43.27.5.34.92s-.41.35-.34.77c.07.42.5.35.57.76.07.42.02.43.09.84.07.42-.25.5-.17.92.07.42.55.38.62.8.07.42-.28.89-.28.92l1.96-.41s-.29-.49-.36-.9.18-.46.11-.87-.34-.36-.41-.77.26-.47.19-.88-.61-.18-.68-.59.1-.58.03-.99.09-.39.03-.79-.31-.41-.36-.82c-.05-.41.38-.46.34-.87-.04-.4-.47-.36-.5-.77s.12-.42.1-.83c-.02-.41.17-.42.16-.83,0-.41-.52-.36-.53-.78,0-.42.4-.46.4-.88s-.2-.42-.2-.84.34-.52.34-.84h-2c0,.31.26.27.26.7s-.15.42-.15.85h-.02Z"/>
    <path d="M23.12,47.29c-.11.11-.2.2-.28.3-.07.07-.14.26-.14.47h2c0-.1,0-.2-.03-.3-.02-.11-.05-.25-.11-.37-.11-.25-.32-.44-.52-.5-.19-.07-.38-.02-.53.07-.15.09-.28.23-.39.34h0Z"/>
    <g>
      <path d="M33,72.78h.03l.03.03.06.04.03.02.03.02h.04s.02.01.02.01h.06s.02-.01.02-.01l.02-.02.04-.03.04-.04.08-.08.04-.03h.02l.02-.02h.08l.03.02.03.02.03.02h.04s.02.01.02.01h.06s.03-.03.03-.03l.03-.03.06-.06s.07-.09.12-.14l.03-.04h.12l.04-.02h.06s.02-.01.02-.01h.06s.02.01.02.01l.04.04.09.07.05.04.04.03.04.02h.04s.05.01.08.01h.09c.06-.02.11-.03.16-.04h.03s0-.01,0-.01v-.02h0v-.12h0s0-.03,0-.03h.03s.02-.01.02-.01h.05s.08.02.12.03h.06l.06.02h.06s-.74-.69-.74-.69l-.37-.34-.37-.34h0v.06h0v.03h0v.06s0,.03,0,.03h0v.03h-.23c.22-.03.21-.03.33-.05h0l-.03.04-.04.04h-.02l-.02.02h-.04l-.04-.02h0v-.12h0v-.03h-.02l-.02-.03h-.02l-.27.41-.27.42-.54.84h.02s.03.01.03.01h.22l-.12-.04Z"/>
      <path class="st0" d="M33.88,70.23c-.36.1-.35.1-.54.15h0l.02.03.05.04.09.08.18.17.37.34.74.67,1.48,1.35-.23.24-.13.13-.14.13-.15.13-.16.12-.17.12-.18.11-.81.49-.89-.31-.18-.07-.17-.07-.17-.07-.16-.08-.3-.16-.28-.17,1.07-1.69.54-.84.27-.42.13-.21.07-.11.03-.05.02-.03h0v-.02h-.45.04Z"/>
    </g>
  </g>
  <g>
    <path d="M61.57,36.35c-.2.07-.39.2-.5.35-.11.14-.15.32-.15.5s.07.35.16.49c.1.15.2.31.36.41.15.09.36.15.56.17l.24-1.99c-.24-.02-.47,0-.67.06h0Z"/>
    <path d="M74.41,41.2c-.37-.27-.48.07-.85-.2-.36-.27-.41-.69-.81-.93-.4-.24-.47-.13-.87-.36s-.27-.5-.69-.72c-.42-.21-.63-.03-1.05-.22-.42-.19-.54.43-.95.25-.41-.17-.23-.82-.66-.98-.42-.16-.61-.03-1.04-.18-.44-.14-.14-.53-.59-.67-.45-.13-.57.29-1.01.17-.44-.12-.43-.17-.87-.28s-.4-.43-.85-.52c-.46-.09-.61.37-1.06.29-.45-.08-.83-.56-.86-.56l-.24,1.99s.57-.13,1-.06c.43.08.38.32.8.41.42.09.49-.18.91-.08.43.1.34.42.76.53.42.11.44-.47.87-.36.42.12.5.35.9.49.41.14.3.26.71.42.41.16.54-.05.95.12.4.17.24.57.63.74.39.18.57-.22.96-.02s.32.33.69.54c.38.21.28.38.64.6.36.23.61-.23.96.04.36.26.16.63.52.89.35.26.47.1.82.36.36.26.24.6.51.79l1.2-1.6c-.28-.2-.4.03-.77-.24-.37-.27-.27-.39-.65-.67v.02Z"/>
    <path d="M76.38,43.12c0-.18-.07-.37-.16-.55-.09-.17-.21-.34-.39-.47h0l-1.2,1.6h0c.17.12.36.22.55.26.19.04.4,0,.58-.04.17-.06.33-.16.44-.3s.18-.32.19-.49h-.01Z"/>
  </g>
  <g>
    <path d="M77.41,62.51c-.09.09-.18.21-.25.36-.07.14-.12.31-.14.49s0,.35.06.5c.06.16.15.33.3.41.14.09.34.11.52.09l-.22-1.99c-.1,0-.19.06-.28.14h.01Z"/>
    <path d="M82.94,57.73c-.1.24.23.32.12.57-.12.25-.46.24-.59.45-.14.22-.02.29-.17.51-.16.21-.4.03-.56.23-.16.19-.01.42-.2.61-.19.19.31.56.1.76-.21.2-.69-.27-.89-.09-.21.18-.14.36-.36.54-.22.17-.43-.25-.64-.09-.22.16.03.52-.19.68-.22.15-.25.11-.47.25-.22.13-.39-.15-.59-.05-.2.08-.05.55-.29.62-.25.07-.52-.34-.52-.34l.22,1.99s.45-.26.78-.37c.33-.11.42.12.75-.03.32-.16.18-.4.46-.57.27-.17.45.11.71-.07s-.16-.59.08-.77c.23-.18.43-.08.67-.27.23-.19.3-.05.54-.25.23-.21.1-.41.32-.62s.53.08.75-.15c.22-.24-.11-.52.08-.76.19-.24.31-.15.5-.41.18-.26.34-.16.51-.43.17-.28-.29-.51-.15-.77.13-.27.52-.13.64-.42.12-.3-.06-.36.04-.66s.44-.29.5-.54l-1.95-.46c-.04.17.22.22.14.47s-.23.19-.32.43h-.02Z"/>
    <path d="M79.86,52.64c.21-.04.11-.37.36-.4.25-.02.37.3.58.33.22.04.24-.1.47-.03.23.08.13.37.32.45.19.09.36-.11.55.02.18.13.51-.39.71-.2.2.2-.28.67-.15.84.13.18.31.12.43.36.12.23-.35.34-.26.55.07.21.5.07.56.32.06.24,0,.25.04.49.03.25-.3.28-.29.5,0,.22.47.29.45.55-.04.27-.51.41-.51.41l1.95.46s-.1-.47-.07-.79c.03-.33.28-.32.29-.67-.01-.36-.29-.34-.32-.67-.06-.33.28-.39.19-.74-.09-.35-.62-.07-.72-.37-.12-.29.02-.47-.13-.76-.16-.29-.01-.35-.22-.64-.22-.29-.43-.16-.67-.4-.25-.23,0-.56-.3-.78-.32-.2-.53.18-.82.04-.3-.13-.25-.27-.58-.38-.33-.09-.29-.28-.65-.34-.37-.04-.37.47-.69.47-.32,0-.4-.39-.76-.33-.35.08-.3.26-.62.37-.31.12-.52-.15-.76-.03l.92,1.78c.15-.07.02-.31.25-.4.23-.08.27.07.48,0l-.03-.02Z"/>
    <path d="M78.1,52.93c.15.16.5.14.69.12.1,0,.15,0,.19,0s.11,0,.15-.03h0l-.92-1.78h0c-.12.06-.35.24-.33.33,0,.09.15.19.16.35.02.15-.04.32-.07.5s-.01.37.13.51Z"/>
  </g>
  <g>
    <path d="M19.92,54.48s.08,0,.12,0c.14.06.26.07.35.06.17-.02.3-.08.4-.15.19-.15.2-.35.16-.52-.05-.17-.13-.33-.15-.48-.02-.08-.03-.16,0-.22.01-.03.04-.06.12-.05-.03-.05-.07-.1-.11-.16-.18-.2-.48-.36-.8-.44l-.5,1.94c.13.03.28.05.43.04h-.02Z"/>
    <path d="M19.75,62.32c-.34-.24-.47.08-.82-.2-.35-.3-.32-.7-.63-1.02-.31-.33-.43-.25-.71-.57-.27-.34-.03-.53-.25-.86-.21-.34-.48-.3-.64-.68-.14-.38-.68-.07-.8-.52-.1-.46.56-.61.54-1,0-.4-.18-.51-.12-.93.07-.41.51-.19.6-.52.1-.27-.28-.48-.07-.8.24-.29.28-.25.57-.49.32-.22.5.06.82-.09.31-.12.24-.6.63-.66.19-.02.38.09.48.22.11.12.14.25.15.25l.5-1.94c-.06-.03-.88.02-1.45.13-.57.11-.65-.12-1.21.1-.54.26-.4.5-.87.83-.44.37-.68.12-1.08.63-.36.55.24.67.02,1.17-.18.53-.39.62-.48,1.15-.06.53-.21.46-.21,1.02.03.56.28.59.39,1.11.13.51-.27.66-.05,1.19.24.52.62.3.89.74.29.43.17.52.5.92.35.4.19.5.54.87.36.36.68-.04,1.04.3.37.32.15.67.58.99.44.3.54.14,1,.39.44.23.51.6.8.72l.75-1.85c-.38-.15-.37.15-.78-.04-.38-.2-.3-.33-.65-.55h.02Z"/>
    <path d="M21.77,63.62c-.08-.14-.1-.25-.15-.35s-.16-.23-.44-.35h0l-.75,1.85h0c.14.05.43.16.74.16.33,0,.65-.14.78-.32.14-.17.14-.37.08-.54s-.18-.32-.25-.46h-.01Z"/>
  </g>
  <g>
    <path d="M61.57,35.61c.08-.14.11-.32.1-.49,0-.16-.08-.33-.17-.49-.09-.15-.22-.27-.36-.36s-.3-.18-.45-.19-.3.04-.44.12l.97,1.75c.14-.08.27-.2.34-.34h0Z"/>
    <path d="M52.41,39.46c.31-.11.14-.41.45-.52s.59.12.9,0c.31-.11.27-.24.58-.35.31-.11.42.18.73.06.31-.11.3-.38.61-.5.31-.11,0-.65.31-.76.31-.11.59.5.9.38s.32-.32.62-.45c.31-.13.37.35.68.22.31-.13.14-.53.44-.67s.33-.09.63-.23.46.14.76,0c.3-.15.12-.6.42-.76.29-.15.77.07.79.06l-.97-1.75s-.26.38-.54.53c-.28.15-.39-.08-.67.06-.28.14-.16.39-.45.53-.29.13-.42-.17-.71-.04-.29.13.03.61-.26.74-.29.13-.47-.02-.76.1-.3.12-.32-.04-.61.08-.3.11-.25.35-.56.46-.3.11-.46-.29-.76-.18s-.15.52-.45.63-.35-.03-.65.08c-.3.11-.36-.07-.67.04-.3.11-.11.58-.42.69-.3.11-.46-.27-.76-.16s-.24.29-.55.4c-.3.12-.45-.2-.8-.07l.76,1.85c.12-.05.02-.28.34-.4.31-.11.35.04.67-.08h0Z"/>
    <path d="M50.71,39.79c.14.07.28.1.39.13.11.03.21.05.29,0h0l-.76-1.85h0c-.21.08-.4.23-.5.4-.11.17-.13.38-.1.55.03.17.12.33.25.45.13.13.28.23.42.3h0Z"/>
  </g>
  <g>
    <path d="M47.99,54.67c-.1-.12-.25-.22-.41-.29-.15-.06-.33-.08-.51-.07-.18,0-.34.08-.48.19-.14.11-.29.23-.35.41-.06.16-.06.36-.03.53l1.98-.31c-.03-.18-.09-.34-.2-.46Z"/>
    <path d="M46.94,62.82c-.19-.04-.34.29-.6.22-.27-.09-.1-.39-.25-.51-.14-.14-.33-.07-.41-.29-.04-.24.4-.3.44-.46.07-.15-.22-.24-.07-.42.15-.16-.52-.37-.27-.6.13-.11.33-.07.51,0,.17.07.37.11.51-.04.29-.32.22-.51.45-.87.21-.38.56-.02.75-.48.16-.46-.27-.58-.18-.98.07-.4.12-.4.15-.78.03-.38.35-.38.38-.72.03-.47-.47-.52-.49-.92-.04-.39.32-.8.32-.82l-1.98.31s.28.42.3.73c.02.32-.23.29-.25.58-.03.38.25.39.22.74-.03.34-.36.29-.41.58-.06.27.52.32.43.62-.11.29-.33.28-.48.51-.17.24-.27.11-.47.33-.2.21-.17.49-.49.78-.33.32-.76.15-1.05.59-.24.45.21.49.08.9-.08.42-.24.46-.15.91.16.42,0,.51.29.88.35.34.75-.02,1.11.17.39.15.17.51.67.65.5.11.58-.08,1.03-.02.4.05.44.39.74.41l.15-1.99c-.25-.02-.24.25-.59.21-.32-.04-.22-.18-.43-.22h.04Z"/>
    <path d="M48.75,63.36c-.08-.15-.21-.27-.35-.36-.13-.09-.28-.16-.44-.18h0l-.15,1.99h0c.18.01.37-.01.52-.09.16-.08.29-.22.38-.36s.14-.32.15-.5c0-.18-.04-.36-.11-.51h0Z"/>
  </g>
  <g>
    <path d="M56.6,71.72c.08-.23.04-.48-.05-.67-.1-.18-.25-.3-.41-.38-.15-.08-.3-.1-.43-.11-.14,0-.3-.04-.41-.03-.12.02-.19.04-.27.09l1.06,1.69c.24-.15.45-.39.51-.61v.02Z"/>
    <path d="M44.67,73.56c.4.11.39-.25.78-.15.39.08.57.43.98.49s.42-.08.82-.04c.4.03.4.34.81.35.41,0,.51-.25.91-.26.4-.02.25-.62.64-.65.38-.03.5.63.91.58.4-.05.47-.25.86-.32s.34.41.74.32c.4-.09.31-.52.69-.62.39-.11.4-.06.78-.18.38-.13.51.17.89.03.38-.15.25-.62.61-.77.33-.13.94.03.99-.01l-1.06-1.69s-.03.09-.13.19c-.09.1-.27.23-.44.31-.34.14-.43-.09-.76.04-.33.12-.24.39-.59.5s-.44-.21-.78-.11c-.34.09-.1.62-.46.71-.36.08-.51-.09-.87-.03s-.34-.1-.7-.05c-.36.04-.38.29-.75.31-.37.03-.4-.4-.75-.39-.35,0-.35.44-.71.44-.37-.02-.36-.16-.72-.19-.36-.04-.34-.22-.69-.27-.35-.05-.4.46-.77.38-.36-.07-.31-.48-.65-.57s-.4.09-.75-.02c-.34-.11-.32-.47-.55-.56l-.76,1.85c.31.12.35-.14.74,0,.39.13.34.27.73.39h0Z"/>
    <path d="M42.57,72.31c0,.17.06.32.16.47.09.14.24.3.48.4h0l.76-1.85h0c-.1-.04-.25-.08-.43-.08s-.38.05-.54.15c-.15.09-.27.24-.34.4-.07.17-.09.35-.09.51Z"/>
  </g>
  <g>
    <path d="M76.8,50.26c.08-.04.2-.09.36-.08.15,0,.33.04.51.04s.35-.06.47-.22c.13-.16.23-.41.14-.7-.08-.28-.32-.55-.52-.68l-1.16,1.63c.09.06.12.05.2,0h0Z"/>
    <path d="M67.65,45.95c.34.11.37-.24.71-.13s.44.47.77.59c.33.12.38,0,.71.11.33.12.23.41.56.54.32.13.5-.08.83.05.32.14.46-.47.79-.33s.11.78.42.92c.32.15.47.02.79.17.32.16,0,.52.31.67.31.16.51-.22.82-.06.31.17.28.22.58.39.3.18.15.47.44.65s.59-.19.89,0c.29.2.31.74.32.75l1.16-1.63s-.52-.11-.82-.31c-.31-.2-.17-.41-.49-.61-.32-.19-.46.04-.78-.15-.32-.18-.15-.47-.48-.65-.33-.17-.5.39-.82.21-.32-.16-.34-.39-.67-.56-.33-.15-.23-.28-.56-.43-.34-.15-.47.05-.81-.09s-.18-.54-.52-.68-.5.27-.83.14c-.34-.13-.29-.26-.63-.39-.34-.12-.28-.3-.62-.42-.35-.12-.48.37-.82.26s-.25-.51-.6-.62-.4.08-.75-.03-.33-.45-.59-.53l-.57,1.92c.25.08.3-.18.64-.08.34.11.29.25.63.36v-.03Z"/>
    <path d="M56.6,42.58c.35.1.36-.25.7-.14.34.1.46.46.81.57.34.1.38-.02.72.08.34.1.27.4.61.51.34.1.5-.12.84-.02s.4-.52.75-.41c.34.1.21.76.55.87.34.1.48-.05.82.06.34.1.09.51.43.62.34.1.47-.31.81-.21.34.1.33.16.67.26.34.1.27.42.61.53.34.1.53-.34.87-.24.34.1.54.61.56.62l.57-1.92s-.51.06-.85-.04c-.34-.1-.27-.34-.62-.45-.34-.11-.42.16-.77.06-.34-.1-.24-.42-.59-.53-.34-.1-.4.48-.74.37-.34-.1-.4-.33-.74-.43s-.26-.24-.6-.34-.45.12-.79,0c-.34-.1-.23-.52-.58-.62-.34-.1-.46.32-.8.21-.34-.1-.3-.24-.65-.35-.34-.1-.29-.29-.64-.39-.34-.1-.45.4-.79.29-.34-.1-.27-.51-.61-.61-.34-.1-.4.09-.74,0s-.34-.45-.6-.53l-.53,1.93c.26.08.29-.19.64-.09s.3.25.65.35h.03Z"/>
    <path d="M46.06,41.46c.35-.1.18-.41.53-.51s.64.14.98.03c.35-.1.31-.23.66-.33.35-.1.44.19.79.09.33-.1.39-.39.67-.47.19-.03.05-.65.38-.63.15.03.16.23.11.4-.03.08-.06.16-.09.22-.02.07.08.22.2.3.55.32.71.1,1.04.21.35.1.1.51.44.61.35.1.47-.32.81-.22.35.1.33.15.68.25s.28.42.62.52c.35.1.52-.35.87-.25.34.1.55.61.57.62l.53-1.93s-.5.07-.84-.03-.28-.34-.62-.44-.42.17-.76.06c-.34-.1-.25-.42-.59-.52-.34-.1-.39.48-.74.38-.34-.1-.4-.32-.74-.42-.18-.05-.22-.1-.24-.15-.03-.05-.05-.1-.07-.12h-.02s-.02,0-.08-.04c-.09-.05-.18-.09-.28-.11-.18-.04-.36-.08-.65-.13-.28-.05-.42-.13-.58-.22-.15-.09-.34-.16-.56-.09-.34.1-.21.52-.55.62s-.38-.04-.73.06c-.34.1-.4-.08-.74.02-.34.1-.17.58-.51.68s-.49-.28-.83-.18-.29.29-.63.39-.51-.2-.77-.12l.51,1.93c.26-.08.16-.32.51-.42s.38.05.73-.06h0Z"/>
    <path d="M34.67,43.97c.35-.06.22-.38.57-.44.35-.06.61.22.96.16.36-.06.34-.19.7-.25s.42.24.78.18.4-.34.76-.4c.36-.07.13-.65.48-.72s.54.57.89.5c.35-.08.4-.28.75-.36s.33.4.69.32c.35-.08.26-.51.61-.59.35-.09.36-.03.72-.12.35-.09.45.22.8.13s.28-.57.63-.66c.35-.09.78.22.8.22l-.51-1.93s-.39.34-.73.42c-.35.09-.41-.15-.75-.06-.35.09-.28.36-.63.44-.35.09-.42-.24-.76-.16s-.11.62-.45.7c-.35.08-.5-.09-.85,0s-.34-.08-.68,0c-.35.07-.34.32-.69.39s-.44-.35-.78-.28c-.35.06-.26.49-.61.56-.35.06-.37-.08-.72-.02-.35.06-.38-.13-.73-.08-.36.06-.25.55-.6.61-.36.06-.46-.34-.82-.28s-.32.25-.68.32c-.36.06-.51-.25-.78-.2l.38,1.96c.26-.05.18-.3.53-.37.35-.06.37.09.72.03h0Z"/>
    <path d="M24.06,47.51c.31-.18.07-.43.38-.61s.64,0,.95-.18c.31-.17.24-.29.55-.44.29-.14.42.14.74,0s.3-.4.63-.53c.33-.12.01-.66.35-.78s.6.5.93.38c.33-.11.36-.31.69-.41.34-.1.35.38.68.28.34-.09.23-.52.57-.61s.36-.04.7-.12c.34-.08.44.23.78.15.34-.08.29-.56.64-.63s.76.29.78.28l-.38-1.96s-.42.29-.78.37c-.36.07-.41-.17-.77-.09-.36.08-.3.35-.65.44s-.43-.23-.79-.14c-.36.1-.1.62-.45.72-.35.1-.52-.06-.87.05s-.35-.05-.7.06c-.35.12-.31.36-.66.48-.34.13-.5-.28-.85-.14s-.18.54-.51.68-.4,0-.76.18c-.34.17-.42,0-.75.18-.32.18-.04.6-.36.78-.31.18-.55-.16-.86.03-.31.18-.21.35-.52.54-.31.19-.56-.06-.8.09l1.05,1.71c.23-.14.06-.34.37-.53.31-.18.38-.05.69-.23h-.02Z"/>
    <path d="M22.05,48.28c.15.08.32.1.48.1s.32-.03.47-.12h0l-1.05-1.71h0c-.15.09-.28.22-.36.37-.08.15-.11.34-.1.51,0,.17.07.34.17.49s.24.27.38.35h.01Z"/>
  </g>
  <g>
    <path d="M21.19,48.75c-.1-.08-.22-.12-.32-.11-.1,0-.18.06-.24.13-.06.06-.09.14-.12.21s-.07.15-.08.21c-.01.06,0,.11,0,.16l.97-.24c-.03-.15-.11-.28-.21-.36Z"/>
    <path d="M21.76,55.03c-.02-.22-.18-.15-.21-.36-.03-.21.11-.35.08-.55-.02-.2-.09-.19-.11-.38-.01-.19.14-.2.14-.38,0-.16-.12-.25-.11-.46,0-.22-.31-.15-.31-.35s.32-.26.31-.47c-.02-.21-.11-.25-.14-.46-.02-.21.22-.16.19-.36-.02-.2-.24-.18-.26-.39-.02-.2,0-.2,0-.4-.01-.2.15-.22.14-.41,0-.19-.25-.21-.25-.41.02-.14.2-.53.18-.53l-.97.24s.12.07.11.35c0,.22-.13.22-.12.43.01.22.15.21.17.42s-.15.22-.13.43.3.11.32.32c.02.2-.07.28-.05.48s-.06.18-.04.38c.02.2.14.21.15.41,0,.2-.21.2-.21.39,0,.18.21.19.2.41,0,.22-.07.22-.06.44.02.22-.07.23-.05.44.03.21.28.15.3.35.03.2-.17.25-.15.44s.11.18.12.37c0,.19-.17.26-.17.42l1-.02c0-.15-.13-.12-.13-.32,0-.23.08-.23.06-.45v-.02Z"/>
    <path d="M22.37,61.58c-.03-.21-.19-.14-.22-.34-.03-.2.11-.35.08-.55s-.1-.19-.12-.4c-.03-.2.12-.23.09-.43s-.16-.23-.19-.43-.32-.1-.35-.31c-.02-.2.3-.27.28-.47-.02-.2-.12-.24-.13-.44-.02-.2.22-.15.21-.34-.01-.2-.23-.2-.24-.41-.02-.21.01-.21,0-.42-.02-.2.14-.23.13-.43-.02-.2-.26-.21-.27-.41s.2-.39.2-.4l-1,.02s.11.28.13.48c.01.21-.11.22-.09.43s.16.19.17.4c.02.2-.15.21-.13.41.01.2.3.12.31.32.01.21-.08.28-.07.49.02.21-.06.19-.04.4.02.21.14.22.17.42.02.21-.19.24-.16.44.03.21.24.17.27.38.03.2-.04.21-.01.42.03.2-.06.22-.04.42.03.2.28.15.31.35.03.2-.17.25-.14.45s.12.19.15.39c.02.2-.14.27-.12.42l.99-.11c-.02-.16-.14-.12-.17-.33-.02-.21.05-.21.02-.42h-.02Z"/>
    <path d="M23.14,68.06c-.05-.19-.21-.1-.26-.29-.05-.19.08-.34.04-.53-.04-.19-.1-.18-.13-.38-.03-.2.12-.22.1-.41s-.15-.23-.17-.43-.32-.12-.34-.32.31-.26.29-.46c-.02-.2-.12-.25-.13-.45-.02-.2.22-.14.2-.35-.02-.2-.24-.2-.25-.4-.02-.2,0-.2,0-.41-.01-.21.15-.23.14-.44-.02-.21-.26-.22-.28-.43s.17-.42.17-.43l-.99.11s.13.25.15.45-.11.21-.09.41c.01.2.15.19.16.39.02.21-.15.21-.13.41.02.21.3.13.32.33.02.2-.08.27-.06.48.02.2-.06.19-.04.39.02.21.14.22.16.43s-.19.23-.18.43c.02.21.24.19.26.39.02.21-.05.22-.02.43.03.21-.06.23-.02.44.04.21.29.14.34.34s-.14.28-.08.48c.06.21.15.18.22.38s-.07.31,0,.46l.93-.37c-.05-.13-.17-.07-.24-.26-.06-.19.01-.21-.05-.4h-.02Z"/>
    <path d="M24.73,74.31c-.1-.18-.23-.06-.32-.24-.07-.14-.05-.32-.05-.41,0-.02,0-.06-.02-.09-.07-.19-.13-.17-.2-.36-.07-.19.08-.24.02-.43-.06-.18-.19-.19-.24-.37-.04-.18-.33-.07-.36-.27s.3-.27.28-.46c-.02-.2-.11-.24-.12-.44-.01-.2.22-.15.21-.34,0-.19-.22-.19-.23-.4,0-.21.02-.21,0-.43-.03-.22.14-.26.08-.51-.07-.25-.32-.21-.4-.4-.08-.18.05-.43.04-.44l-.93.37s.2.22.29.41c.07.16-.06.19-.01.34.03.15.17.14.19.32.01.19-.15.19-.15.39s.29.13.3.34c0,.21-.09.28-.07.49.01.21-.07.19-.05.4s.14.23.17.44-.17.26-.12.48c.06.22.27.16.33.36.07.2,0,.23.07.42.07.2-.02.23.06.42.01.04.03.06.06.08.13.13.28.05.36.2.1.18-.07.3.03.48s.18.13.28.31-.02.31.05.44l.87-.49c-.07-.13-.18-.05-.28-.23s-.03-.21-.13-.39h-.01Z"/>
    <path d="M26.14,73.72s.14.1.13.14c-.02.04-.17,0-.19.05-.02.04.04.07.03.11-.02.04-.16-.02-.18.02-.02.04.1.1.08.14s.27.15.25.19-.33-.08-.35-.04.06.09.05.13c-.02.04-.22-.06-.24-.02s.18.13.17.17c-.02.04-.04.03-.06.07-.02.04-.17-.02-.19.02-.02.04.2.14.19.18-.02.04-.23,0-.23,0l.92.39s-.07-.09-.06-.14c.02-.04.13,0,.15-.03.02-.04-.11-.1-.09-.14s.17.02.19-.02c.02-.04-.25-.14-.24-.18.02-.04.11-.02.13-.06.02-.04.09,0,.1-.05.02-.04-.09-.09-.07-.13s.21.04.23,0-.18-.13-.17-.17c.02-.04.08-.01.1-.05s.1,0,.12-.05c.02-.04-.22-.14-.2-.18.02-.04.21.03.22,0,.02-.04-.07-.08-.05-.12s.18.01.19-.02l-.92-.39s.11.08.09.12-.09.01-.11.05h.01Z"/>
    <path d="M27.92,77.5c-.07-.12-.2,0-.26-.13-.05-.13.06-.25.01-.38s-.11-.1-.15-.23c-.04-.13.1-.18.06-.31s-.17-.13-.21-.26c-.04-.14-.32-.01-.36-.15-.03-.14.28-.24.25-.37-.03-.14-.13-.15-.16-.29s.21-.13.18-.27c-.02-.14-.24-.1-.26-.24s0-.14-.02-.28.14-.17.13-.3c-.01-.13-.25-.13-.26-.26,0-.06.05-.13.11-.14h.1l-.96-.28s0,.11.02.22c.02.08.04.19.05.26,0,.16-.12.17-.1.33s.16.14.17.29c.02.15-.14.17-.12.32.03.15.3.05.33.2.03.14-.06.21-.03.35.03.14-.05.14-.01.29.03.14.16.13.19.28.03.14-.17.2-.13.34s.25.08.29.22-.03.16.02.31c.05.14-.04.17.01.32.05.15.29.04.35.17.06.14-.11.24-.03.39.07.12.15.07.22.2.07.12-.07.24-.02.33l.88-.47c-.05-.1-.16-.02-.23-.15-.07-.13,0-.16-.08-.3h.02Z"/>
    <path d="M29.88,80.68c-.04.09.09.19.09.22h0s.06-.05.1-.06c.09-.03.19.03.16.01l-.03-.03s-.03-.05-.04-.08c-.02-.06-.04-.1-.09-.14-.1-.07-.14,0-.24-.09-.1-.08,0-.19-.09-.28s-.2-.02-.29-.12c-.09-.1-.3.13-.38.02-.09-.11.16-.33.08-.44s-.18-.08-.25-.2c-.08-.12.14-.2.07-.32s-.26,0-.33-.12-.05-.14-.12-.26c-.07-.12.07-.21,0-.33s-.29-.03-.36-.15c-.07-.13.06-.34.06-.35l-.88.47s.18.12.25.25-.04.19.03.32c.07.13.19.06.27.19.07.13-.07.21,0,.34.08.13.3-.06.38.06.08.12.02.22.1.34.08.12.01.15.1.28.09.12.2.06.29.18s-.06.26.04.38c.11.12.27-.04.38.07.11.11.07.16.19.26s.08.17.22.27c.15.1.26-.14.4-.07.02,0,.03.02.05.03.08.07.32-.04.31-.05.04-.02.09-.04.13-.06.07-.02.15-.05.18-.12.07-.15-.03-.18.03-.33.05-.14.22-.11.26-.22l-.94-.34c-.04.1.09.13.04.26-.05.13-.12.1-.17.22h0Z"/>
    <path d="M35.59,85.9c-.18-.16-.26,0-.44-.18s-.17-.39-.34-.57c-.17-.19-.22-.14-.39-.33s-.06-.3-.23-.49c-.17-.19-.3-.16-.46-.35-.16-.2-.34.06-.5-.14s.08-.44-.08-.63c-.15-.18-.29-.21-.41-.36-.04-.05-.04-.08-.02-.11.06-.07.17-.11.16-.19-.03-.26-.25-.24-.3-.5s-.02-.27-.08-.53.09-.31.02-.58c-.08-.27-.32-.22-.42-.47-.09-.25-.03-.58-.04-.6l-.88.48s.23.21.31.44-.03.26.03.49c.07.23.2.2.26.44.05.24-.11.27-.07.51.04.24.31.12.35.37.02.15,0,.29,0,.42.04.09.09.18.18.29.17.22.09.23.25.44s.28.15.44.36c.16.2,0,.35.17.55.17.2.32.06.49.25.17.19.11.24.29.43.17.19.1.26.28.45.18.19.35,0,.53.19.18.18.06.35.26.53.2.18.26.11.47.27.21.16.17.34.34.46l.55-.83c-.15-.1-.2.02-.4-.12-.19-.15-.14-.21-.32-.37v-.02Z"/>
    <path d="M42.72,90.15c-.17-.09-.21.08-.38-.01-.17-.1-.19-.28-.35-.38s-.2-.04-.36-.14-.08-.23-.24-.34c-.16-.1-.27-.02-.42-.13-.15-.11-.29.17-.44.06-.16-.12.03-.4-.12-.51-.14-.12-.24-.08-.38-.2-.14-.13.06-.25-.08-.38-.13-.13-.29.03-.42-.1-.13-.13-.12-.15-.24-.29-.13-.14-.02-.25-.14-.39s-.32,0-.44-.15c-.12-.14-.05-.41-.06-.42l-.8.6s.24.15.37.3c.13.15.03.23.17.39.13.15.24.06.38.2s.02.26.16.4c.15.14.3-.11.44.02s.13.25.28.38c.15.13.08.17.24.3.16.12.25.05.41.16.16.12.03.29.2.41.16.12.28-.07.45.04.16.11.12.17.29.28.17.11.12.19.29.29.17.1.28-.13.45-.03.17.1.09.28.26.38.17.09.22,0,.4.1.16.08.11.25.23.32l.51-.86c-.13-.08-.18.05-.37-.06-.18-.09-.13-.16-.3-.24h0Z"/>
    <path d="M50.61,91.92c-.18.18-.03.26-.2.44-.18.18-.38.16-.56.34-.17.17-.15.24-.29.38-.12.12-.19-.03-.27.05-.08.06-.11.3-.27.26-.12-.08-.19.31-.34.13-.14-.21.08-.48,0-.62-.11-.17-.25-.2-.4-.39-.16-.2.08-.28-.1-.48-.18-.2-.34-.05-.52-.24-.18-.18-.16-.2-.35-.38-.19-.17-.09-.3-.29-.47s-.38,0-.58-.15-.26-.47-.27-.48l-.59.81s.32.1.51.25.11.25.29.4.27.05.45.21c.17.16.06.28.22.44.16.17.32-.08.48.1s.13.3.27.49c.14.19.05.19.21.44.18.27.29.24.48.47.21.21.13.46.47.54.35,0,.31-.26.56-.42.24-.19.27-.13.52-.37.21-.21.25-.11.43-.29.18-.17,0-.35.16-.52.18-.17.33-.04.5-.21.18-.17.11-.25.29-.42.18-.18.32-.1.44-.18l-.59-.81c-.18.13-.09.23-.26.4-.18.18-.23.12-.4.29h0Z"/>
    <path d="M55.84,89.49c-.11.11.05.19-.06.3-.11.1-.28.07-.37.18-.1.11-.04.15-.14.26s-.21,0-.31.11c-.1.11-.03.22-.12.32-.1.1.15.28.05.39-.1.1-.35-.12-.45-.02-.1.1-.06.19-.17.29-.1.1-.22-.11-.33,0-.1.1.04.26-.07.35-.11.1-.13.07-.23.17-.11.09-.22-.03-.33.06s.02.29-.09.38-.35,0-.36,0l.59.81s.1-.2.22-.29c.12-.09.2,0,.31-.09.12-.1.03-.2.15-.3.11-.1.22.03.34-.07.11-.1-.11-.28,0-.38s.21-.06.32-.16c.11-.1.15-.04.26-.14.11-.11.03-.2.14-.31.1-.11.26.04.36-.07.1-.11-.06-.26.04-.37.1-.11.15-.06.25-.17s.17-.05.27-.16c.1-.11-.11-.27,0-.38.1-.1.27.02.37-.08s.03-.17.13-.27c.1-.1.25-.01.33-.09l-.73-.68c-.08.08.03.16-.08.26-.11.11-.16.05-.27.16h-.02Z"/>
    <path d="M63.02,85.44c-.14.15,0,.23-.13.38-.14.15-.33.12-.48.27-.14.14-.1.19-.24.33-.15.14-.25.03-.4.17s-.09.27-.24.4c-.15.13.1.32-.05.46-.16.13-.39-.1-.55.03s-.13.23-.29.36c-.16.12-.25-.1-.4.02-.16.12-.03.3-.19.42-.16.12-.18.09-.34.21-.17.11-.27-.02-.43.09-.17.11-.06.32-.23.43-.17.1-.44.01-.45.02l.5.87s.19-.23.36-.34c.18-.11.25,0,.42-.12.18-.12.1-.23.27-.35.17-.12.27.02.44-.11s-.05-.32.11-.44c.16-.13.28-.09.44-.22.16-.13.19-.06.35-.19.16-.14.1-.24.26-.38s.3.02.46-.12c.15-.14,0-.3.15-.44s.2-.09.35-.23c.15-.14.21-.08.36-.23s-.05-.31.1-.46c.14-.15.3-.02.45-.17.14-.15.07-.22.21-.37s.3-.08.4-.2l-.75-.66c-.1.11,0,.19-.13.34-.14.15-.19.1-.33.24h0Z"/>
    <path d="M69.16,79.62c-.06.12.11.16.04.3-.07.13-.24.14-.31.27s0,.16-.07.29-.21.06-.27.19c-.07.13.03.22-.04.35s.22.24.15.37c-.07.13-.37-.01-.45.11-.07.13,0,.2-.08.33-.07.13-.25-.04-.32.09-.08.12.11.24.03.36s-.1.11-.18.23-.22.04-.3.16.11.27.02.39c-.09.12-.34.1-.34.1l.8.6s.04-.22.13-.35c.09-.12.19-.05.28-.18s-.03-.21.06-.33c.08-.13.22-.04.3-.17s-.19-.24-.11-.37c.08-.13.19-.12.26-.25.08-.13.13-.08.21-.21s-.02-.21.05-.34.26-.03.33-.17c.07-.13-.12-.23-.05-.37.07-.13.13-.1.2-.23.07-.13.15-.09.22-.22.07-.13-.17-.23-.1-.37s.25-.05.33-.2c.07-.15-.02-.18.03-.32.06-.14.23-.1.27-.2l-.91-.41c-.05.11.08.15.02.29-.06.14-.13.11-.19.24v.02Z"/>
    <path d="M74.09,74.83c-.03.14.14.15.1.29s-.21.18-.25.32.02.16-.02.29c-.05.14-.19.09-.24.22-.05.13.06.21,0,.35-.05.13.25.21.19.34-.06.14-.37.03-.43.16-.06.13.01.2-.05.34-.06.13-.25-.01-.31.12-.06.13.14.23.07.36-.06.13-.09.12-.15.25-.07.14-.22.07-.28.21-.06.13.14.26.08.38-.07.13-.32.15-.32.15l.87.49s.01-.23.08-.37.18-.08.25-.22c.06-.13-.06-.19,0-.32.07-.13.21-.06.28-.2s-.21-.22-.15-.35c.06-.14.18-.14.24-.27.06-.14.13-.09.19-.23.06-.14-.04-.2.01-.34.06-.14.26-.07.31-.21.06-.14-.15-.22-.1-.36s.12-.12.17-.26c.05-.15.14-.12.18-.26.04-.15-.2-.2-.16-.35.04-.15.24-.11.28-.26.03-.15-.06-.17-.03-.32s.2-.16.22-.27l-.98-.18c-.02.1.11.11.08.26-.03.14-.11.12-.14.26v-.02Z"/>
    <path d="M74.37,70.07s-.01.09,0,.13h0v.04s.01.02.02.03c.02.02.04.03.06.05.04.03.08.05.08.13,0,.15-.16.24-.16.39s.07.14.07.29-.15.16-.16.3c0,.15.13.18.13.33s.31.09.3.24c0,.15-.33.18-.34.32,0,.15.09.18.09.33,0,.14-.23.09-.23.23s.21.15.21.29-.04.14-.05.28-.17.14-.19.27c-.02.14.22.19.2.33-.02.14-.25.24-.26.25l.98.18s-.07-.22-.05-.37.14-.14.16-.29c.02-.16-.12-.17-.11-.32s.18-.14.19-.3c0-.16-.28-.12-.28-.27s.1-.2.1-.35.08-.13.08-.28-.12-.16-.12-.31.21-.16.21-.31-.22-.14-.22-.29.07-.15.07-.3.1-.15.1-.3-.25-.12-.25-.27.2-.18.2-.33v-.03s0-.02,0,0v.09c-.01.05-.02.06-.03.06s-.02-.01-.02-.02c-.02-.02-.01-.07,0-.08l-.06.04s-.03.01-.08.02c-.06,0-.11,0-.17-.02s-.14-.11-.14-.11h0v.1c-.01.06-.02.12.01.17l.82-.57s-.07-.04-.11-.05c-.02,0-.04,0-.06-.02-.01,0-.02-.01-.03-.02-.03-.04-.07-.07-.1-.1-.17-.13-.35-.07-.39-.05-.18.1-.16.11-.21.14-.02.02-.05.04-.08.06-.05.06-.09,0-.18.28h0Z"/>
    <path d="M76.39,64.03c-.02.2.16.17.14.36-.02.19-.18.3-.18.51s.06.2.06.4-.15.2-.15.4.13.24.13.44.31.13.31.33-.33.23-.33.42c0,.2.09.24.1.44,0,.2-.23.13-.23.32s.22.2.22.39-.03.19-.03.39-.17.2-.17.39.24.23.23.42c0,.19-.23.36-.23.37l1,.06s-.09-.26-.08-.46c0-.2.13-.19.14-.39,0-.2-.13-.2-.13-.4s.17-.19.17-.39-.29-.14-.29-.33c0-.2.1-.26.1-.45,0-.2.08-.17.07-.37,0-.2-.12-.22-.12-.41,0-.2.21-.2.21-.4s-.22-.19-.22-.38.07-.19.07-.39.1-.19.1-.38-.25-.18-.24-.37.22-.2.23-.39c.01-.19-.08-.2-.07-.39s.19-.23.2-.37l-1-.08c-.01.15.12.14.11.34s-.09.19-.11.39v-.02Z"/>
    <path d="M76.97,57.73c-.02.19.15.17.13.36-.02.19-.19.29-.21.48s.04.2.02.4c-.02.19-.18.18-.2.37s.1.26.07.45c-.03.19.28.18.27.37-.02.2-.35.18-.36.38-.02.2.07.26.06.45-.02.2-.24.1-.26.3-.02.2.2.23.19.42-.02.2-.04.19-.06.39s-.18.19-.19.39c-.02.2.22.25.21.44-.02.2-.24.36-.24.37l1,.08s-.08-.26-.07-.45c.01-.19.14-.18.15-.37s-.12-.21-.11-.4c.01-.19.18-.17.19-.37.01-.19-.28-.17-.26-.36.01-.19.12-.24.13-.44.01-.19.09-.16.1-.35s-.1-.23-.09-.43c.01-.19.23-.17.25-.37.03-.2-.19-.22-.17-.42.02-.2.1-.19.12-.38.02-.2.12-.18.14-.38s-.23-.2-.21-.4c.02-.2.22-.19.25-.39.02-.2-.08-.21-.06-.4.02-.2.19-.23.2-.38l-1-.09c-.01.14.12.14.1.33-.02.2-.1.19-.11.38l.02.02Z"/>
    <path d="M77.27,51.5c.01.2.18.14.19.34.01.19-.14.31-.14.5s.07.19.07.38-.16.18-.17.38c-.01.2.12.25.11.44-.01.2.3.15.29.35-.01.2-.35.2-.36.4-.01.19.08.25.07.44-.01.2-.24.11-.25.31-.01.19.2.21.19.41-.01.2-.04.19-.06.39-.01.19-.18.19-.19.39-.02.19.22.24.21.44-.02.19-.25.36-.25.37l1,.09s-.08-.26-.06-.46c.02-.2.14-.19.16-.38.02-.2-.12-.21-.11-.4.01-.2.18-.18.19-.38s-.28-.16-.26-.35c.01-.2.12-.25.13-.45.01-.2.09-.17.1-.36.01-.2-.11-.23-.1-.42.01-.2.22-.19.23-.38.01-.2-.21-.2-.2-.4,0-.19.08-.19.09-.4,0-.2.1-.2.09-.41,0-.2-.26-.17-.27-.37,0-.2.19-.23.18-.43s-.11-.19-.12-.38c-.01-.19.15-.25.15-.39l-1,.04c0,.15.14.12.15.32s-.07.2-.05.4v-.03Z"/>
    <path d="M77.41,50.3c-.07.05-.13.13-.17.21-.04.08-.07.17-.07.27h0l1-.04h0c0-.09-.03-.18-.07-.25-.05-.07-.12-.14-.19-.18s-.16-.07-.25-.07-.18.02-.25.07h0Z"/>
    <g>
      <path d="M26.32,75.55l-.04.08-.03.09-.03.09-.02.04-.02.04v.02h-.03s-.03.03-.03.03l-.03.02h-.04l-.07.04-.03.02h-.02v.03s-.01.02-.01.02l-.02.02-.02.04-.04.1s-.03.06-.04.09l-.02.04v.02h-.03s-.03.03-.03.03l-.03.02-.05.03-.06.03-.06.03h-.02s-.04-.02-.04-.02h-.01v-.02s-.03-.02-.03-.02l-.04-.05-.07-.09-.03-.04h-.02l-.02-.03h-.02l-.02-.02h-.1s-.03-.01-.03-.01h-.07s-.02-.01-.02-.01l-.02-.02-.07-.06-.07-.07s-.09-.1-.13-.14l-.02-.03-.02-.03v-.03l-.02-.03-.02-.07v-.03l-.04-.04v-.02h-.03s-.04-.04-.04-.04c0,0-.06-.03-.09-.05l-.04-.02-.04-.03-.02-.02-.02-.02-.02-.02v-.02l.42-.25.22-.12.22-.12s.01.02.02.03v.03l.02.02v.02h.02v.14l.02.04.02.04.02.02.02.02s.07.08.12.12c.02.02.05.05.07.07h.02v.02h-.22.03s.02-.01.02-.01l.02-.03.03-.03.02-.04.02-.04s.02-.05.03-.07v-.03l.03-.02h0v-.02h0v-.18h0v-.03s.02-.04.03-.07c0-.03.02-.05.03-.08l.23.1.23.1.46.19-.02.03-.02.03-.05.07-.05.07-.05.07.07.04Z"/>
      <path class="st0" d="M25.13,74.69h.45-.01s-.03.03-.03.03l-.05.03-.11.06-.22.12-.44.25-.87.49.38.66.2.34.11.18.07.11.06.09.11.13,1.05,1.06,1.15-2.75-1.84-.77v-.03Z"/>
    </g>
    <g>
      <path d="M31.87,79.65s-.06-.09-.1-.14l-.05-.07-.03-.03-.03-.03h-.02l-.02-.02h-.03l-.04-.02h-.22s-.02-.01-.02-.01l-.03-.04-.07-.07h0v-.02h-.02l-.04-.04-.04-.02h-.15s-.07.03-.11.04h-.02l-.02.03-.04.08-.04.08-.02.03h-.01v.03h-.02v.02h-.04l-.06.02h-.06s-.03.01-.03.01v.02h-.02l-.05.07-.05.06s-.06.09-.08.13h0v.21l-.02.03h0v.03s-.04.02-.04.02l-.07.04-.04.02-.03.02h-.01v.03s-.01.02-.01.02l-.02.02.47.17.24.08.24.08v-.05s.01-.02.01-.02v-.02h.01v-.19s.01-.02.01-.02l.03-.02s.05-.07.08-.12c.02-.02.03-.04.05-.06h.01v-.02h0c-.16-.02-.15-.01-.24-.02h.09s.02.03.02.03l.02.02.03.04v.02h.02v.03h0v.12h0v.02s.01.02.01.02c0,0,.03.03.04.05l.22-.12.22-.12.44-.24h0v-.03l-.02-.03-.06-.05-.06-.06-.05-.06v.02Z"/>
      <path class="st0" d="M31.38,80.48q.03.15.04.23h-.04l-.06-.03-.12-.04-.24-.08-.47-.17-.94-.34.18-.54.18-.54.35-1.13,1.06.54.22.14.11.07.05.04.03.02.02.02.17.16.08.08.04.04.03.04.13.17.06.08.03.04.03.04.2.34-.88.48-.44.24-.22.12-.11.06-.05.03h-.03v.02h-.01c.41-.07.39-.07.61-.1v-.03Z"/>
    </g>
    <g>
      <path d="M37.6,86.7l-.02.07-.02.07-.02.07v.03l-.03.03h0v.02h-.04l-.03.02h-.03l-.06.02h-.03v.02h-.02v.02s0,0,0,.01l-.02.03-.03.06v.03l-.03.03-.02.02h0v.02h-.03l-.02.02h-.05l-.05.02h-.05v.02h-.12l-.07-.03h-.08l-.03.02-.05.04-.02.02-.03.02h-.02s0,.01,0,.01h-.14s-.09-.03-.13-.03h-.02l-.02-.02-.02-.02v-.02l-.05-.04-.02-.02h-.02s0-.02,0-.02h-.13l-.04.02h-.12l.28-.43.14-.21.14-.21h.02v.03h.02v.02h0v.02l.02.04v.02h.02v.02h.06s.06.01.11.02h.07s-.05.02-.07.02h.06s0-.01,0-.01h0s.02-.03.02-.03v-.02l.03-.04h0v-.02h0v-.02h0v-.04l-.03-.03h0v-.02h0v-.06l.25.03.25.03.5.06v.03l-.02.03-.03.07-.04.07-.03.06h-.01Z"/>
      <path class="st0" d="M36.46,86.13q.09-.1.13-.16h0v.02l-.02.03-.03.05-.07.1-.14.21-.28.42-.55.83.12.08.12.07.25.14.25.13.26.12.89.38.41-.87.22-.48.06-.15.06-.17.05-.19.02-.1.02-.11-.99-.13-.5-.06-.25-.03-.12-.02h-.09s-.02-.01-.02-.01h0c.15-.07.14-.07.22-.11h-.02Z"/>
    </g>
    <g>
      <path d="M38.41,86.55l-.06-.07-.06-.08-.03-.04-.04-.04-.04-.03-.04-.03h-.02l-.02-.02h-.08s-.04-.01-.04-.01h-.16s-.04-.03-.04-.03l-.04-.02-.09-.06s-.06-.03-.09-.05h-.05l-.02-.02h-.09l-.06.03s-.07.03-.11.05h-.02s0,.05,0,.05c0,.03,0,.06,0,.09v.05l-.02.04-.02.04v.02h-.02s0,.01,0,.01v.02h-.04l-.06.03-.06.02h-.03v.02h-.02c-.06.08-.14.18-.2.25l-.02.03v.03l-.02.03v.09s0,.03,0,.03l-.03.03v.02h-.03s-.03.04-.03.04c0,0-.05.03-.08.04l-.04.02-.04.03h-.02l-.02.03v.02l-.02.02.45.21.23.11.23.11v-.03l.02-.03v-.02l.02-.02h0v-.17s0-.02,0-.02l.02-.02v-.02l.03-.02s.06-.08.1-.12c.02-.03.04-.05.06-.07v-.02h.02l-.05-.16h.11v.02s.03.02.03.02l.04.04.02.02h.02v.02h0v.02h0v.11s0,.02,0,.02h0s.02.04.02.04l.02.03s.03.04.04.06l.2-.15.2-.15.4-.3-.02-.02-.03-.02-.06-.05-.07-.05-.07-.06h.05Z"/>
      <path class="st0" d="M38.11,87.39c-.28.35-.27.34-.42.53h0s-.03-.01-.03-.01l-.06-.04-.11-.05-.23-.11-.45-.21-.9-.43.27-.58.04-.11.03-.08v-.07s0-1.35,0-1.35l1.29.39.13.04.13.05.13.06.13.07.12.07.12.08.11.08.1.09.1.09.09.09.15.17.24.31-.8.6-.4.3-.2.15-.1.08-.05.04-.02.02h0c.43-.17.42-.17.65-.27h-.05Z"/>
    </g>
    <g>
      <path d="M44.57,90.34v.12l.02.06v.11l-.02.03-.02.03-.02.03-.05.05-.02.03v.04s0,.02,0,.02v.06h0v.08l.04.08v.11s0,.03,0,.03l-.04.05-.03.05-.03.06h0v.02h-.04s-.05.01-.05.01h-.25s-.02.01-.02.01l-.03.03-.05.05-.03.02-.03.02h-.04s-.02.01-.02.01h-.21c-.06-.03-.13-.04-.18-.05h-.04l-.03-.03-.03-.02-.02-.02-.05-.05-.03-.02-.03-.02h-.04s-.04-.01-.04-.01h-.24l-.02-.02.26-.43.13-.21.13-.21.03.02.02.02h.02l.02.03h0s.02.03.02.03l.03.04.02.02h0v.02h.03l.02.02h.04s.08.02.13.03h.09q-.16.04-.24.06h0l.02-.02v-.02l.02-.02v-.08s0-.05,0-.05v-.14h0v-.03h0v-.06l-.02-.03-.03-.05v-.03h0v-.16h1v.07l-.03.07-.02.07v.06s-.01.01-.01.01Z"/>
      <path class="st0" d="M42.92,90.29c.48-.18.47-.17.72-.26h0v.02l-.02.03-.03.05-.06.11-.13.21-.26.43-.51.86.3.17.17.09.2.09.11.05.11.04.12.04.13.04.14.03h.07l.07.02h.14s.15.01.15.01l1.29-.02-.34-1.24-.08-.27v-.05s0-.02,0-.02v-.06s-.03-.13-.03-.13l-.02-.13v-.33l-1-.02h-.75s-.12-.01-.12-.01h-.11c-.14.16-.14.15-.21.23l-.04.02Z"/>
    </g>
    <g>
      <path d="M45.72,90.08l-.05-.04-.05-.04-.1-.09-.1-.09-.05-.04-.05-.04-.05-.03-.05-.02h-.05l-.05-.02-.1-.02-.05-.02-.05-.03-.05-.04-.05-.05-.11-.11s-.07-.08-.11-.11l-.05-.05-.03-.02-.03-.02-.05-.02-.04-.02-.08-.02-.08-.02s-.06-.02-.09-.03h-.03s-.02.06-.02.06c0,.05-.02.11-.02.16,0,.06,0,.11-.02.17v.07l-.03.06v.03l-.02.02-.03.04-.06.06-.03.03-.03.03v.02l-.02.02v.02l-.02.03s-.02.09-.03.14l-.03.15-.02.16c0,.06,0,.11,0,.16v.14l.04.11.04.11v.06l.02.07v.14s0,.09,0,.14v.14s0,.07,0,.07v.08l.49-.13.24-.07.24-.07s0-.04-.02-.05l-.02-.04v-.03l-.02-.04v-.04l-.03-.04s-.03-.05-.05-.08l-.02-.05-.02-.05h0v-.4h0v-.08s0-.02,0-.02h0v.05h.07l.03.03.06.03.06.04.05.04s.07.06.09.08l.04.03.04.03h.02l.02.03.03.03s.04.05.07.08l.07.08.03.03.03.03s.12.09.18.14l.15-.2.15-.2.3-.4-.05-.03-.05-.03s-.08-.04-.12-.06l-.12-.06-.05-.02-.05-.03.06-.03Z"/>
      <path class="st0" d="M45.03,91.61c.19-.3.18-.29.28-.45h-.05l-.06.02-.12.03-.24.07-.48.13-.96.26-.08-.3-.04-.16v-.04l-.02-.02v-.02l-.02-.08-.05-.34v-.1l-.02-.12v-.83l.05-.6.18-2.28,1.55,1.67.38.39.38.38.19.18.18.16.08.06.09.06.24.17-.59.81-.3.4-.15.2-.07.1-.04.05-.02.03h0v.02h0c-.16.06-.15.06-.23.09l-.06.06Z"/>
    </g>
    <g>
      <path d="M52.73,92v-.12l.02-.06v-.06h0v-.02l-.02-.02-.05-.04-.05-.04-.02-.02h0v-.02h0v-.12s0-.03,0-.03v-.06h0s-.02-.04-.02-.04l-.02-.02-.04-.03-.04-.03-.04-.04h0s0-.02,0-.02l-.03-.02h-.22s-.03-.03-.03-.03l-.05-.04-.02-.02-.02-.02h-.19s-.09.03-.13.04h-.02l-.02.02-.02.02v.02l-.04.04-.02.02h-.02s0,.01,0,.01h-.11s-.04-.01-.04-.01h-.11s.29.41.29.41l.15.2.15.2h0v-.03h0v-.02h0v-.06l.02-.02h0v-.02h0s0-.01,0-.01h.02s.06,0,.1-.01h.06c-.26-.13-.25-.12-.38-.19h0l.02.02h0v.03h0v.16h0v.02h0v.02h0v.04l-.03.02-.03.03v.02h0v.05s0,.04,0,.05l.25.03.25.03.5.05v-.04l-.02-.05-.02-.06v-.06s.03-.05.03-.05Z"/>
      <path class="st0" d="M51.28,92.05c.58.26.56.25.86.39h0v-.02l-.02-.03-.04-.05-.07-.1-.15-.2-.29-.4-.59-.81.24-.16.26-.15.15-.08.18-.08.11-.04.14-.04.09-.02h.11l.06-.02h.26l.9.19-.19,1.82-1.99-.21h-.02Z"/>
    </g>
    <g>
      <path d="M53.2,93.17l-.06.04-.07.05-.07.04-.04.02h-.04l-.02.02h-.09l-.03-.03-.07-.03h-.03l-.04-.02h-.08l-.09.04h-.04l-.04.02h-.08l-.03-.02-.02-.02-.02-.02-.02-.02s-.05-.05-.08-.08h0v-.14s0-.08,0-.08v-.06h0v-.04l-.02-.02-.05-.04-.03-.02-.02-.02-.02-.02h0v-.03l-.02-.06-.02-.07s-.02-.1-.03-.14v-.02h0v-.06l.02-.02.02-.05v-.1l-.02-.03-.05-.06-.02-.03-.02-.03v-.04s0-.02,0-.02v-.02l.5.05.25.03.25.03v.05s0,.02,0,.02h0v.02h0v.03l-.03.04v.02l-.02.03v.08s.02.08.03.13c0,.02,0,.05.02.07v.02h0q-.18-.06-.28-.09h0l.02.02h.04s0,.01,0,.01h.06l.04-.03h.02v-.05l.02-.04v-.02h.02l.02-.02.02-.02.04-.04.15.2.15.2.29.4h-.02l-.03.03-.06.02-.07.02-.07.03h.02Z"/>
      <path class="st0" d="M53.14,92.24c.1-.08.09-.08.14-.13h-.23l-.25-.04-.5-.05-.99-.1-.23,2.15,1.08.03h.26s.13-.03.13-.03l.13-.03.12-.03.12-.04.11-.04.1-.05.19-.1.16-.1.26-.18-.59-.81-.29-.4-.15-.2-.07-.1-.04-.05-.02-.03h0v-.02h0c.38.25.37.24.58.38l-.02-.03Z"/>
    </g>
    <g>
      <path d="M58.68,89.16h0s0,0,0,0h0v-.05l-.04-.09-.02-.05-.02-.05v-.02l-.02-.02-.03-.03-.06-.06-.06-.06-.03-.04-.02-.05-.02-.06v-.06s-.02-.09-.02-.14v-.2l-.02-.03v-.03l-.03-.04-.02-.04-.04-.06-.04-.06s-.03-.05-.05-.08v-.02h-.02l-.06.04-.06.05-.06.05s-.08.07-.12.1l-.05.04-.05.03h-.02l-.02.02h-.24l-.02.02h-.02c-.07.06-.14.11-.22.16-.08.06-.15.11-.22.16l-.04.04-.04.04-.06.08-.06.08-.03.04-.04.04-.02.02-.03.02-.06.03s-.08.03-.12.05l-.06.02-.06.03-.06.04-.03.02-.03.02.37.34.18.17.18.17s.02-.03.04-.04l.02-.03.02-.03.03-.03.03-.03.02-.03s.03-.05.04-.07l.03-.04.03-.04.05-.04s.04-.03.06-.05c.04-.03.12-.08.2-.14.04-.03.08-.05.11-.08l.02-.02h0l.03.07h0l.03.03s.03.04.04.06l.04.07c.02.05.05.1.07.15.03.05.05.1.07.15l.05.07.05.06s.08.08.12.12l.02.02.02.02.04.03.09.06.05.02.06.02.06.02h.27s.06-.03.09-.04l.05-.02.05-.02.09-.04.05-.03-.12-.22-.12-.22-.25-.43-.04.03h0s.02.01.02.01h.03s0,.01,0,.01l.04.03h0v.02h0v.04Z"/>
      <path class="st0" d="M57,90.42c.19-.23.19-.22.29-.34h0v-.02s-.03-.02-.03-.02l-.05-.04-.09-.08-.18-.17-.37-.34-.73-.68,1.57-1.57,1.58-1.43.08,2.13.03.48.02.22.02.1.02.09.02.08v.03h0s-.02-.02-.02-.02l-.02-.03-.02-.02-.04-.05-.05-.04-.07-.05-.04-.02-.04-.02-.09-.04h-.05l-.05-.02h-.13s-.04-.01-.04-.01h-.07s-.05.01-.05.01l-.07.03h-.02l-.02.02.05-.03.5.87.25.43.12.22.06.11.03.05.02.03h0v.02h0c-1.56.07-1.51.06-2.34.1l.02.02Z"/>
    </g>
    <g>
      <path d="M66.14,85.27v-.58s-.01-.08-.01-.08l-.02-.04v-.03l-.03-.06-.03-.05-.03-.04-.06-.09-.03-.05-.03-.06-.02-.07-.02-.08c0-.06-.02-.12-.03-.17-.01-.06-.02-.12-.03-.17l-.02-.07v-.03l-.03-.03-.03-.05-.03-.04-.05-.07-.05-.06-.02-.04-.02-.05v-.02h-.02l-.06.05-.13.13-.13.13-.06.05-.05.04-.05.03-.05.02h-.08s-.04.01-.04.01l-.04.02-.05.02h-.02l-.03.03c-.07.06-.16.13-.24.19-.08.07-.17.14-.24.2l-.05.05-.04.05-.06.09-.06.1-.04.05-.05.05-.03.02-.03.02-.06.04s-.08.04-.13.07l-.07.03-.07.04-.06.05-.03.03-.03.03.37.33.19.17.19.17s.03-.03.04-.05l.03-.04.03-.03.03-.03.03-.04.03-.04s.03-.06.05-.09l.03-.05.04-.05s.03-.04.05-.06c.02-.02.04-.04.07-.06.05-.04.13-.11.22-.19.04-.04.09-.07.12-.1l.03-.02h.01s.14-.01.14-.01h0s.02.04.02.04l.02.03v.03l.03.03v.03l.02.06v.35s-.02.06-.03.09c0,.03-.02.06-.03.09v.1c-.01.06-.01.17-.02.26h.25l.25.02.5.02v-.12s0-.09-.02-.14l-.02-.15c0-.05,0-.1-.01-.15h.03Z"/>
      <path class="st0" d="M64.73,85.78q-.08.05-.13.08h0v-.02s-.03-.02-.03-.02l-.05-.04-.09-.08-.19-.17-.37-.33-.75-.66,1.64-1.83,1.59-1.92.18,2.48.09.51.05.35.04.36.02.36v.36l-.02.64-1-.04-.5-.02h-.25l-.12-.02h-.11s.02,0,.03.01h-.03Z"/>
    </g>
    <g>
      <path d="M67.42,84.19l-.1.12-.11.13-.04.04-.04.04-.06.05-.06.05-.06.05-.05.04-.05.02-.05.02h-.05l-.1.04-.05.02-.06.03-.06.04-.06.05-.12.12-.12.12-.06.05-.03.02-.03.02-.05.02-.05.02-.08.03-.08.02s-.06.02-.1.03h-.04s0-.07,0-.07v-.44l-.03-.07v-.03l-.02-.02-.03-.04-.03-.03-.03-.03-.03-.03-.03-.03-.03-.04v-.02l-.02-.03c-.05-.17-.12-.4-.18-.57,0-.02-.01-.04-.02-.06v-.06l-.02-.12v-.12s-.02-.1-.02-.15l-.02-.08-.02-.07s-.04-.09-.06-.13l-.03-.07-.03-.07-.02-.08v-.08s.49-.04.49-.04l.25-.02.25-.02v.29s-.01.06-.02.1v.19s.01.04.02.07c.02.06.05.16.09.26.02.05.04.11.05.16v.03l.02.02h0l.15.11h.07l.03-.03.06-.04.06-.04h.02v-.03s.06-.06.09-.09l.04-.04.03-.03h.02v-.03s.01-.02.01-.02l.03-.02s.03-.05.04-.09l.04-.09.02-.04.03-.04s.1-.13.15-.2l.2.15.2.15.4.3-.04.05-.05.05s-.07.07-.11.1l-.11.1-.11.11v.02Z"/>
      <path class="st0" d="M66.77,82.92c-.2-.13-.19-.13-.3-.2h-.23l-.25.03-.5.04-1,.07.02.31v.16l.03.22.12.64.04.26.02.26v.52l-.1,2.51,1.8-1.75.9-.87.22-.22.05-.05.03-.03.02-.03.06-.07.11-.13.22-.26.21-.27-.8-.6-.4-.3-.2-.15-.1-.08-.05-.04-.02-.02h-.01c.09.03.08.03.13.04h-.02Z"/>
    </g>
    <g>
      <path d="M71.58,79c-.03-.06-.05-.12-.08-.18l-.04-.09-.03-.04-.03-.04-.02-.02h-.02l-.03-.03h-.04l-.04-.02-.07-.02h-.04l-.03-.03h-.02l-.02-.03-.03-.04-.06-.08-.03-.04-.03-.04-.03-.03h-.02l-.02-.02h-.03l-.03-.02h-.1v.02h-.01l-.02-.02h-.01v-.02h-.06l-.02.02-.05.02-.05.02-.05.02-.04.02h-.04l-.02.02h-.06l-.07-.02h-.08s-.02-.01-.02-.01h-.04l-.02.02s-.05.03-.08.05l-.08.07-.08.07-.07.07-.03.03-.02.03v.03l-.02.03-.02.07v.04l-.04.04v.02l-.03.02-.04.03s-.05.03-.08.05l-.04.03-.04.03-.02.02-.02.02v.02l-.02.02.46.21.23.1.23.1v-.03l.02-.02v-.04h.01v-.15s.01-.02.01-.02l.02-.02v-.02l.03-.02s.06-.05.1-.09l.03-.02.03-.02h.01l.05.08h.06l.02.02h.01l.02.03.02.03.03.05v.02h.02v.02h0v.02h0v.1s-.01.02-.01.02h0v.07s.02.04.02.06l.24-.06.24-.06.48-.13v-.04s-.03-.04-.03-.04l-.05-.08c-.03-.06-.07-.11-.1-.16l.08-.02Z"/>
      <path class="st0" d="M69.9,79.54c.53.11.51.11.8.17h-.04l-.06-.04-.11-.05-.23-.1-.46-.21-.91-.41.08-.18.1-.19.12-.2.06-.1.07-.1.08-.1.09-.1.1-.1.05-.05.06-.05.12-.1.13-.09.07-.04.07-.04.15-.08,1.24-.56.16,1.35v-.05l-.02-.05v-.05l-.03-.05-.02-.05-.02-.05-.02-.04-.02-.03h0l.02.03.11.15.13.17.12.19.11.21.05.11.05.11.05.11.04.11.07.24-.97.25-.48.13-.24.06-.12.03-.06.02h-.05c-.28-.1-.27-.09-.41-.15l-.03-.03Z"/>
    </g>
    <g>
      <path d="M72.99,79.55c-.06.08-.13.17-.19.26l-.05.06-.05.06-.05.06-.06.05-.06.04-.05.03-.05.02h-.05l-.1.04-.05.02-.06.03-.06.04-.06.05s-.09.07-.13.11c-.05.03-.09.07-.14.1l-.06.04-.03.02h-.03l-.05.03h-.05l-.09.02h-.08s-.06.01-.1.01h-.04v-.08c0-.05.01-.11.02-.17v-.16s.01-.07.01-.07v-.06s-.01-.03-.01-.03l-.02-.02-.03-.04-.03-.03-.03-.03-.03-.03-.03-.03-.02-.04v-.02l-.02-.02s-.03-.07-.04-.11l-.05-.12v-.03l-.03-.03-.03-.06-.03-.06-.03-.05-.02-.05-.02-.05-.03-.09v-.04l-.03-.05-.02-.05v-.02l-.03-.02-.02-.02-.02-.02-.02-.02-.02-.02s-.07-.04-.11-.06l-.06-.03-.06-.04-.03-.02-.03-.03-.03-.03-.03-.04.41-.29.2-.14.2-.14s.03.05.04.07l.02.03.03.03.03.04.02.04s.03.06.04.1c.02.04.04.08.06.12.01.02.03.04.05.07.02.02.04.05.06.08.01.01.02.03.04.05.01.02.03.04.04.06.03.05.06.1.1.16.03.06.06.11.09.16.07.12.13.23.19.32h.07l.03-.02.05-.03.05-.04.04-.04s.05-.06.07-.08l.03-.04.03-.03h.01v-.03s.03-.03.03-.03l.02-.04v-.04l.04-.08.02-.04.02-.04s.03-.05.05-.09c.02-.04.04-.07.06-.11l.22.12.22.12.44.24-.03.05-.04.05s-.06.07-.09.11c-.07.08-.14.16-.2.23h-.04Z"/>
      <path class="st0" d="M72.64,78.67c-.77-.6-.74-.58-1.15-.91h-.01s-.03.03-.03.03l-.05.04-.1.07-.2.14-.41.29-.82.58.19.25.06.09.05.08.05.08.04.08.03.08v.04s.01.04.01.04l.02.04v.04l.02.08v.1s.01.02.01.02v.28l-.02.09-.54,2.31,2.03-1.23.3-.19.29-.21.14-.11.14-.12.14-.12.13-.13.13-.13.12-.14.12-.14.11-.15.11-.15.1-.15.18-.3-.87-.49-.44-.24-.22-.12-.11-.06-.05-.03-.03-.02h-.01c.39.19.38.19.59.3h-.05Z"/>
    </g>
    <g>
      <path d="M77.13,70.15v.13l-.02.13v.13l-.02.06v.06l-.02.03v.03l-.04.04-.03.04-.03.03-.06.07-.03.04-.03.05-.02.06v.07s-.03.1-.04.15v.07l-.02.04v.03l-.03.06v.03l-.03.02-.03.04-.03.03-.05.06-.06.05-.06.06-.02.02h0l-.05-.04s-.06-.07-.1-.11c-.03-.04-.07-.07-.1-.11l-.05-.04-.05-.03h-.02l-.02-.02h-.08s-.04-.01-.04-.01h-.1s-.02-.01-.02-.01l-.02-.02h-.02s-.07-.06-.1-.09l-.11-.08c-.07-.06-.15-.12-.21-.17l-.04-.04-.03-.04-.05-.08-.05-.09-.03-.04-.04-.05-.02-.02-.02-.02-.05-.04s-.07-.04-.11-.06l-.06-.03-.06-.04-.05-.05-.02-.03-.02-.03.41-.29.21-.14.21-.14s.02.03.03.04l.02.03.02.03.02.03h.01v.03l.02.03s.02.05.03.08l.02.04.03.04.04.05.05.05s.1.09.17.15c.03.03.07.05.1.08l.02.02h.01v.03h0l.02-.03.02-.02.02-.03.02-.05v-.06l.02-.06s0-.07.01-.1v-.04l.02-.04v-.16l-.03-.08v-.29h.25l.25.03.5.03v.05l-.02.05s-.02.08-.03.12l-.03.12s-.02.08-.03.12v.04Z"/>
      <path class="st0" d="M76.05,69.52l-.1.03h-.01l-.03.03-.05.04-.1.07-.21.14-.41.29-.82.57.17.24.18.23.37.44.35.39.15.17.12.15,1.23,1.68.54-2.01.07-.3.03-.15.03-.14.05-.29.04-.28.03-.28.03-.28.04-.55-1-.06-.5-.03h-.25l-.12-.02h-.11c.21-.05.2-.05.31-.08h-.03Z"/>
    </g>
  </g>
  <g>
    <path d="M52.89,28.75c.11-.13.18-.29.2-.46.03-.16,0-.34-.06-.51s-.16-.31-.28-.42c-.12-.12-.26-.24-.42-.28-.15-.04-.32-.01-.47.04l.62,1.9c.16-.05.31-.14.41-.27Z"/>
    <path d="M42.94,31.2c.33-.07.19-.39.53-.45.33-.07.59.2.92.13.33-.07.31-.2.64-.27.33-.07.4.23.74.16.33-.07.36-.34.69-.41.33-.07.1-.65.43-.72s.52.57.86.49c.33-.08.37-.28.7-.36s.32.4.66.32.23-.51.57-.59c.33-.09.35-.03.68-.12s.44.22.77.12c.33-.1.24-.57.57-.67.33-.1.76.21.79.2l-.62-1.9s-.34.33-.66.43-.39-.14-.7-.05c-.32.09-.24.36-.57.45-.32.09-.4-.23-.72-.15s-.08.62-.41.7c-.33.08-.48-.09-.8-.01-.33.08-.32-.08-.65,0-.33.07-.31.32-.64.39-.33.07-.43-.34-.75-.27-.33.07-.23.5-.56.57s-.36-.07-.69,0c-.33.07-.37-.12-.7-.05-.33.07-.2.56-.53.63-.33.07-.45-.33-.78-.26-.33.07-.29.26-.63.33-.33.07-.49-.24-.74-.19l.42,1.95c.24-.05.16-.3.49-.37.33-.07.36.08.69.02v-.05Z"/>
    <path d="M32.58,34.16c.31-.12.13-.41.44-.53.32-.12.61.11.92,0,.32-.11.27-.24.59-.35.32-.11.42.18.74.08.32-.1.31-.38.63-.48s.04-.65.36-.75.56.53.88.43c.32-.09.35-.29.67-.38s.33.39.65.3.22-.51.54-.59c.33-.08.34-.03.66-.11.33-.08.42.23.74.15.32-.08.26-.56.59-.63s.73.28.75.27l-.42-1.95s-.39.3-.72.37c-.33.08-.39-.17-.72-.09s-.27.35-.6.43c-.33.08-.41-.24-.74-.15s-.09.62-.41.7c-.33.09-.49-.08-.81.02-.33.09-.33-.06-.66.03-.33.1-.3.34-.63.44s-.46-.31-.79-.2c-.33.1-.19.52-.51.62-.32.11-.37-.03-.7.08-.32.11-.39-.07-.71.05s-.12.58-.44.7-.49-.25-.81-.13-.25.3-.57.43-.52-.16-.76-.06l.75,1.86c.23-.09.1-.32.42-.45.31-.12.37.02.68-.1h-.01Z"/>
    <path d="M22.98,38.86c.27-.18.02-.43.3-.61.28-.18.61-.02.89-.18.28-.16.22-.28.5-.44.29-.16.45.11.74-.05.29-.16.24-.42.54-.58.3-.15-.07-.65.23-.8.3-.15.64.42.94.27.3-.15.29-.35.59-.49.3-.14.39.33.69.18.3-.14.13-.54.43-.68.31-.14.33-.09.63-.22.31-.13.45.16.76.03s.16-.59.47-.72.76.15.78.15l-.75-1.86s-.33.36-.65.49-.41-.1-.73.04-.21.39-.52.53c-.31.14-.44-.17-.76-.02-.31.14.02.62-.29.76-.31.15-.49,0-.8.16s-.34,0-.65.14c-.31.15-.23.39-.54.54-.3.16-.51-.22-.81-.06s-.09.54-.39.7-.37.03-.67.2c-.3.17-.4,0-.7.18-.3.18,0,.6-.3.78-.29.19-.54-.14-.84.06-.29.2-.18.36-.46.56-.28.21-.55,0-.77.16l1.23,1.57c.19-.15,0-.34.27-.53s.35-.07.62-.25h.02Z"/>
    <path d="M20.04,46.7c-.16-.28-.43-.07-.58-.35s.06-.58-.05-.85c-.1-.28-.23-.23-.31-.52-.07-.29.23-.36.19-.62-.04-.26-.29-.31-.29-.6.02-.28-.61-.24-.56-.57.06-.33.72-.21.8-.46.09-.26-.05-.39.08-.66.15-.26.48.06.64-.16.15-.23-.19-.49,0-.73.21-.23.24-.19.46-.42.23-.23.47,0,.7-.22.23-.21-.05-.6.2-.82.25-.21.76-.06.77-.07l-1.23-1.57s-.23.45-.5.68-.43.04-.7.29c-.26.25-.07.45-.32.7-.25.26-.5.03-.75.33-.24.31.27.56.06.86-.21.3-.43.31-.62.65-.16.35-.29.25-.42.63-.12.39.1.49.03.87-.06.38-.47.35-.5.78.01.42.44.38.49.76.06.37-.08.4.01.78.1.37-.07.43.06.79.15.36.6.12.75.44.16.32-.18.55-.01.84.17.31.34.21.54.52s0,.59.21.84l1.51-1.32c-.12-.14-.31.04-.48-.2-.16-.25-.03-.33-.19-.61h.01Z"/>
    <path d="M20.83,48.28c.03-.16.02-.31,0-.44-.02-.13-.05-.25-.12-.34h0l-1.51,1.32h0c.13.16.31.28.5.33.19.05.39.02.55-.05s.29-.19.39-.34c.1-.15.16-.32.2-.48h0Z"/>
  </g>
  <g>
    <path d="M75.81,48.89c-.06-.1-.14-.2-.22-.3-.08-.09-.21-.18-.36-.25-.17-.07-.37-.11-.57-.07-.2.03-.43.11-.57.31-.14.17-.18.52-.16.74l2-.13c0-.14-.05-.18-.11-.29h0Z"/>
    <path d="M74.83,59.99c.05-.38-.3-.34-.24-.71.05-.37.39-.55.44-.92s-.08-.39-.03-.76.36-.35.41-.72c.05-.37-.19-.49-.14-.86s-.57-.32-.52-.69.72-.36.78-.73c.05-.37-.12-.48-.08-.85.03-.38.48-.2.52-.58.03-.38-.4-.42-.38-.8.02-.38.08-.38.09-.76.01-.38.34-.4.34-.79s-.48-.44-.5-.83c-.01-.38.38-.79.38-.79l-2,.13c0,.06.24.45.25.81,0,.36-.24.36-.24.71s.27.36.26.73c-.02.36-.35.34-.37.7-.03.36.56.29.53.66s-.24.47-.27.84-.19.31-.24.68c-.05.37.18.43.13.8s-.48.33-.53.7c-.05.37.38.41.33.78-.05.37-.2.35-.25.72-.05.37-.24.34-.29.71s.46.4.4.77c-.05.37-.46.35-.51.72-.05.36.14.39.08.75s-.41.38-.46.64l1.96.41c.06-.29-.2-.31-.14-.69.06-.38.21-.36.27-.74l.02-.04Z"/>
    <path d="M68.83,70.81c.29-.26,0-.45.28-.71s.65-.19.93-.46c.28-.28.18-.37.45-.65.26-.29.5-.09.76-.39s.12-.54.36-.85-.32-.58-.1-.89.8.02,1.02-.31c.21-.33.11-.52.3-.88.18-.36.54-.03.71-.42.16-.38-.25-.55-.11-.91.13-.36.18-.34.3-.69.13-.35.43-.24.56-.59.14-.4-.3-.6-.19-.98.11-.37.6-.64.61-.67l-1.96-.41s.11.48.01.82c-.1.33-.34.25-.45.55-.14.37.12.47,0,.82s-.44.24-.56.57c-.12.33.45.44.32.77-.14.33-.37.34-.52.64-.16.29-.27.17-.46.47-.19.29-.02.46-.22.76-.21.29-.56.04-.77.31-.22.27.12.54-.11.82-.24.27-.35.17-.59.44-.25.26-.38.13-.63.38s.12.59-.15.85c-.27.25-.57-.02-.84.22s-.14.38-.42.61-.55.01-.76.17l1.19,1.61c.24-.18.05-.36.36-.61.3-.25.4-.13.7-.39h-.02Z"/>
    <path d="M57.95,68.01c.33.14.39-.2.73-.06.33.15.39.52.7.68.32.16.38.05.69.22.31.18.16.45.45.63.29.19.51.02.79.23.28.21.57-.34.85-.1s-.13.77.14,1.02.46.18.73.44c.28.26-.14.51.16.77.29.26.59-.05.98.25.4.28.38.35.84.53.47.1.52.4,1.05.26.53-.21.42-.74.8-.97.35-.22.88-.09.91-.11l-1.19-1.61s-.07.12-.16.25c-.09.13-.24.29-.33.35-.2.12-.28-.12-.44-.04-.16.05-.18.38-.4.32-.21-.11-.08-.45-.21-.54-.13-.11-.42.4-.7.16-.27-.24-.22-.47-.49-.72s-.13-.34-.41-.6c-.29-.26-.48-.11-.78-.37-.3-.25-.05-.6-.38-.84s-.57.13-.89-.08c-.33-.21-.25-.33-.59-.53-.34-.19-.25-.36-.6-.54s-.54.29-.89.13-.22-.55-.57-.7c-.36-.15-.43.03-.79-.11s-.33-.48-.61-.58l-.66,1.89c.26.09.31-.17.65-.04s.28.27.61.41h.01Z"/>
    <path d="M46.54,66.71c.33,0,.27-.34.62-.32.35.03.5.37.82.43.35.08.28-.07.8.07.47.07.52.33,1.01.26.02,0,.05,0,.07-.02.38-.1.37-.36.73-.43.34-.06.14-.65.51-.7.37-.05.48.62.82.59.34-.02.42-.21.78-.2.35.01.21.47.54.49.33.03.39-.4.74-.35.35.06.33.11.67.19.34.08.26.4.6.5.35.11.54-.34.89-.23.35.12.53.63.55.64l.66-1.89s-.54.03-.9-.08c-.36-.12-.29-.35-.65-.47-.39-.11-.47.15-.85.06-.39-.08-.32-.41-.73-.48-.41-.06-.36.53-.75.49-.39-.03-.5-.24-.9-.24s-.36-.15-.76-.13c-.4.03-.43.27-.82.32-.39.06-.47-.37-.87-.29-.39.08-.32.51-.65.59h0c-.24.05-.26-.08-.47-.12-.1-.03-.16-.1-.26-.17-.09-.07-.18-.14-.39-.19-.42-.08-.46.43-.85.38-.39-.04-.41-.45-.83-.45s-.41.2-.81.23c-.4.04-.54-.28-.85-.23l.34,1.97c.25-.04.18-.3.52-.34.34-.03.35.12.68.12Z"/>
    <path d="M36.36,71.38c.26-.24-.03-.44.24-.68.28-.24.63-.13.91-.34s.2-.32.5-.53c.3-.2.47.05.77-.14s.24-.45.55-.64c.31-.18-.09-.66.24-.83.33-.18.68.4,1,.24s.32-.36.66-.51c.33-.15.4.33.73.19.33-.14.17-.54.51-.68.34-.13.36-.08.7-.21.34-.12.46.18.79.08s.25-.58.6-.66c.17-.04.36.03.51.11.14.08.24.17.25.17l-.34-1.97s-.48.3-.86.39c-.38.1-.45-.14-.83-.02s-.29.39-.66.51c-.36.13-.47-.18-.83-.04s-.04.63-.39.78c-.35.14-.54.01-.89.17-.35.16-.37,0-.72.17-.35.17-.28.41-.62.59-.34.18-.55-.18-.9.01-.34.21-.11.57-.43.78-.33.21-.4.09-.73.31-.32.23-.43.07-.75.31-.31.25.03.61-.26.86-.29.24-.59-.03-.88.23-.29.28-.14.39-.44.7-.27.3-.58.16-.74.34l1.48,1.35c.21-.23-.02-.38.22-.65.22-.24.33-.12.59-.37l.02-.02Z"/>
    <path d="M24.61,63.3c.16.43.44.22.61.63.18.4.02.78.25,1.18.23.39.35.33.59.69s0,.54.25.91c.26.36.53.28.8.63.28.34.66-.15.94.18.27.32-.19.81.11,1.13.3.32.5.27.81.58.31.3-.13.53.19.83s.62-.01.94.27c.33.28.29.33.62.6s.15.54.5.81.69-.09,1.02.16c.33.25.46.85.49.87l1.07-1.69s-.5-.09-.85-.35-.18-.45-.51-.69c-.32-.25-.49-.03-.81-.29-.31-.26-.09-.51-.39-.77-.3-.27-.6.24-.9-.04s-.25-.52-.54-.8c-.28-.29-.14-.36-.41-.66s-.48-.17-.75-.49c-.26-.31.06-.59-.18-.9-.24-.31-.59-.05-.83-.38-.23-.33-.12-.41-.34-.75-.23-.34-.06-.43-.25-.76-.18-.33-.62-.06-.79-.43-.17-.37.19-.56.06-.92-.13-.36-.31-.3-.42-.68-.1-.38.22-.54.16-.85l-1.96.41c.05.31.29.22.4.66.12.44-.03.48.11.92h0Z"/>
    <path d="M22.81,49.6c0,.43.34.33.35.75,0,.42-.3.68-.29,1.11.01.43.15.42.17.85s-.28.46-.26.89c.03.43.3.51.34.94.05.43.64.23.69.65.05.42-.6.57-.54,1,.07.43.27.5.34.92s-.41.35-.34.77c.07.42.5.35.57.76.07.42.02.43.09.84.07.42-.25.5-.17.92.07.42.55.38.62.8.07.42-.28.89-.28.92l1.96-.41s-.29-.49-.36-.9.18-.46.11-.87-.34-.36-.41-.77.26-.47.19-.88-.61-.18-.68-.59.1-.58.03-.99.09-.39.03-.79-.31-.41-.36-.82c-.05-.41.38-.46.34-.87-.04-.4-.47-.36-.5-.77s.12-.42.1-.83c-.02-.41.17-.42.16-.83,0-.41-.52-.36-.53-.78,0-.42.4-.46.4-.88s-.2-.42-.2-.84.34-.52.34-.84h-2c0,.31.26.27.26.7s-.15.42-.15.85h-.02Z"/>
    <path d="M23.12,47.29c-.11.11-.2.2-.28.3-.07.07-.14.26-.14.47h2c0-.1,0-.2-.03-.3-.02-.11-.05-.25-.11-.37-.11-.25-.32-.44-.52-.5-.19-.07-.38-.02-.53.07-.15.09-.28.23-.39.34h0Z"/>
    <g>
      <path d="M33,72.78h.03l.03.03.06.04.03.02.03.02h.04s.02.01.02.01h.06s.02-.01.02-.01l.02-.02.04-.03.04-.04.08-.08.04-.03h.02l.02-.02h.08l.03.02.03.02.03.02h.04s.02.01.02.01h.06s.03-.03.03-.03l.03-.03.06-.06s.07-.09.12-.14l.03-.04h.12l.04-.02h.06s.02-.01.02-.01h.06s.02.01.02.01l.04.04.09.07.05.04.04.03.04.02h.04s.05.01.08.01h.09c.06-.02.11-.03.16-.04h.03s0-.01,0-.01v-.02h0v-.12h0s0-.03,0-.03h.03s.02-.01.02-.01h.05s.08.02.12.03h.06l.06.02h.06s-.74-.69-.74-.69l-.37-.34-.37-.34h0v.06h0v.03h0v.06s0,.03,0,.03h0v.03h-.23c.22-.03.21-.03.33-.05h0l-.03.04-.04.04h-.02l-.02.02h-.04l-.04-.02h0v-.12h0v-.03h-.02l-.02-.03h-.02l-.27.41-.27.42-.54.84h.02s.03.01.03.01h.22l-.12-.04Z"/>
      <path class="st0" d="M33.88,70.23c-.36.1-.35.1-.54.15h0l.02.03.05.04.09.08.18.17.37.34.74.67,1.48,1.35-.23.24-.13.13-.14.13-.15.13-.16.12-.17.12-.18.11-.81.49-.89-.31-.18-.07-.17-.07-.17-.07-.16-.08-.3-.16-.28-.17,1.07-1.69.54-.84.27-.42.13-.21.07-.11.03-.05.02-.03h0v-.02h-.45.04Z"/>
    </g>
  </g>
  <g>
    <path d="M24.83,23.43c-.09.14-.14.33-.14.5s.06.34.14.49c.09.16.21.28.35.37.14.09.3.19.46.2s.32-.04.47-.11l-.9-1.78c-.16.08-.3.2-.39.34h.01Z"/>
    <path d="M35.24,20.54c-.37.02-.27.36-.63.38-.36.03-.6-.26-.96-.22-.36.05-.35.17-.71.23s-.42-.25-.78-.19c-.36.07-.4.33-.75.41-.36.07-.11.65-.46.73-.34.08-.55-.55-.91-.46-.35.1-.38.3-.73.4-.34.11-.36-.38-.71-.26-.35.12-.21.53-.55.65-.34.13-.36.07-.69.21-.33.13-.48-.16-.81-.01-.34.15-.18.61-.51.76-.32.15-.82-.08-.84-.07l.9,1.78s.3-.38.61-.52c.31-.14.41.09.72-.05.31-.13.2-.39.52-.51s.43.19.74.07c.31-.11.03-.62.35-.73.32-.11.49.05.81-.05.33-.09.33.06.65-.03.33-.08.3-.33.64-.41.33-.08.43.34.76.27.33-.07.24-.49.57-.55.34-.06.36.09.69.04.33-.05.36.14.69.1.33-.04.25-.54.59-.57.34-.03.4.38.74.36.34-.01.33-.21.67-.22.34,0,.42.33.68.34l.02-2c-.27,0-.24.26-.6.26s-.36-.15-.73-.14h.02Z"/>
    <path d="M46.69,22.13c-.34-.1-.36.24-.71.14-.34-.1-.46-.45-.81-.55-.35-.09-.38.04-.73-.04-.35-.08-.29-.39-.65-.46s-.49.16-.85.1c-.35-.07-.35.56-.7.5-.35-.06-.3-.72-.65-.78-.36-.05-.46.12-.81.08-.35-.05-.16-.49-.52-.53s-.41.39-.77.35c-.35-.04-.35-.09-.71-.13-.36-.03-.35-.36-.71-.38-.36-.02-.44.45-.8.44-.36-.02-.69-.45-.71-.45l-.02,2s.44-.2.78-.18c.34.01.32.27.66.29s.36-.25.7-.22.3.36.64.4c.34.04.3-.55.65-.5.34.04.43.26.77.3.34.05.29.19.62.24.34.05.41-.19.75-.13.34.06.27.48.6.54.33.06.41-.36.75-.3.34.07.3.22.64.29.33.08.29.27.62.35.33.09.43-.41.76-.32.33.1.25.49.58.59s.39-.09.72.02c.33.1.31.45.55.53l.62-1.9c-.25-.08-.3.18-.64.07s-.29-.25-.63-.36h.01Z"/>
    <path d="M57.42,25.88c-.33-.13-.38.22-.71.1-.33-.12-.42-.48-.75-.61-.33-.12-.38,0-.71-.11-.33-.12-.24-.41-.57-.53-.33-.12-.5.1-.83-.02s-.43.5-.76.38c-.33-.12-.16-.76-.49-.88-.33-.12-.47.03-.8-.09-.33-.12-.06-.51-.39-.63-.33-.12-.48.29-.81.18-.33-.12-.31-.17-.65-.28-.33-.12-.24-.43-.58-.54-.33-.12-.54.33-.87.21-.33-.11-.51-.62-.53-.63l-.62,1.9s.49-.06.82.05c.33.11.25.35.58.46.33.11.42-.15.75-.03.33.12.21.43.54.54.33.12.42-.46.75-.35.33.12.37.34.7.46.33.12.24.25.57.36.33.12.45-.1.78.02.33.12.19.52.52.64.33.12.47-.3.8-.18.33.12.28.25.61.37s.26.3.59.42.47-.37.8-.25c.33.12.22.51.54.64.32.12.39-.06.72.07.32.13.28.47.52.57l.74-1.86c-.25-.1-.31.16-.64.03-.33-.13-.27-.27-.61-.4h-.01Z"/>
    <path d="M67.59,31.23c-.29-.21-.42.12-.72-.08-.29-.2-.29-.57-.59-.77-.3-.2-.37-.08-.67-.28-.3-.19-.15-.45-.45-.65-.31-.19-.51,0-.82-.19-.31-.18-.52.4-.83.23-.3-.17-.02-.78-.33-.95-.32-.17-.48-.05-.79-.22-.32-.16,0-.52-.31-.68-.33-.16-.52.22-.84.07s-.3-.2-.63-.35c-.32-.15-.21-.45-.54-.6-.33-.14-.56.28-.89.15-.33-.13-.47-.66-.5-.66l-.74,1.86s.49-.03.81.11c.32.13.22.36.53.5.31.14.43-.12.74.03.31.14.17.44.47.59.31.14.46-.41.77-.26s.31.38.62.54c.3.16.19.28.49.44.3.17.45-.02.75.15s.09.55.38.72c.29.18.51-.2.81-.02.29.18.22.3.51.49s.19.34.47.53c.29.19.54-.25.83-.06.29.2.08.55.37.75.28.2.39.04.67.24s.15.53.36.68l1.19-1.61c-.22-.16-.34.07-.63-.14s-.2-.33-.49-.54v-.02Z"/>
    <path d="M76.21,38.8c-.24-.26-.44.02-.68-.24-.24-.26-.16-.62-.41-.88-.25-.26-.35-.16-.6-.41s-.04-.48-.3-.73-.5-.12-.76-.36-.6.28-.85.04c-.26-.24.15-.76-.11-1-.27-.24-.45-.16-.72-.39-.27-.23.13-.5-.14-.73-.27-.24-.56.1-.83-.13-.27-.23-.24-.27-.52-.49s-.09-.49-.37-.71c-.28-.22-.62.13-.9-.08-.28-.22-.29-.76-.31-.77l-1.19,1.61s.48.1.76.31c.27.21.12.4.39.62.27.21.44,0,.71.21.27.22.05.47.32.69.26.22.55-.29.82-.07.26.23.22.45.48.67.26.23.13.32.38.55.26.23.45.08.7.31.25.24-.03.55.22.79.25.23.55-.09.8.16.25.24.15.34.39.59.24.24.11.38.35.62.24.25.58-.13.82.12s-.04.56.2.81c.23.25.38.12.61.38.23.26.03.54.2.74l1.51-1.31c-.18-.2-.35,0-.59-.27s-.12-.37-.36-.63l-.02-.02Z"/>
    <path d="M77.32,40.66c.06-.16.05-.34.03-.5-.03-.16-.08-.32-.19-.45h0l-1.51,1.31h0c.11.12.25.23.4.28.16.05.34.05.51,0,.16-.03.33-.11.47-.23s.25-.27.31-.42h-.02Z"/>
  </g>
</svg>