<?xml version="1.0" encoding="UTF-8"?>
<svg id="_レイヤー_1" xmlns="http://www.w3.org/2000/svg" xmlns:xlink="http://www.w3.org/1999/xlink" version="1.1" viewBox="0 0 100 110">
  <!-- Generator: Adobe Illustrator 30.0.0, SVG Export Plug-In . SVG Version: 2.1.1 Build 123)  -->
  <defs>
    <style>
      .st0, .st1, .st2 {
        fill: none;
      }

      .st3 {
        fill: #ceb372;
      }

      .st1 {
        stroke: #000;
        stroke-linecap: round;
        stroke-linejoin: round;
      }

      .st4 {
        fill: #1c1917;
      }

      .st5 {
        fill: #fff;
      }

      .st6 {
        fill: url(#_6_lpi_30_);
      }

      .st2 {
        stroke: #231815;
        stroke-width: 3.6px;
      }
    </style>
    <pattern id="_6_lpi_30_" data-name="6 lpi 30%" x="0" y="0" width="72" height="72" patternTransform="translate(-6330.6 -11791.46) rotate(-108.65) scale(.36)" patternUnits="userSpaceOnUse" viewBox="0 0 72 72">
      <g>
        <rect class="st0" width="72" height="72"/>
        <g>
          <line class="st2" x1="71.75" y1="66" x2="144.25" y2="66"/>
          <line class="st2" x1="71.75" y1="42" x2="144.25" y2="42"/>
          <line class="st2" x1="71.75" y1="18" x2="144.25" y2="18"/>
          <line class="st2" x1="71.75" y1="54" x2="144.25" y2="54"/>
          <line class="st2" x1="71.75" y1="30" x2="144.25" y2="30"/>
          <line class="st2" x1="71.75" y1="6" x2="144.25" y2="6"/>
        </g>
        <g>
          <line class="st2" x1="-.25" y1="66" x2="72.25" y2="66"/>
          <line class="st2" x1="-.25" y1="42" x2="72.25" y2="42"/>
          <line class="st2" x1="-.25" y1="18" x2="72.25" y2="18"/>
          <line class="st2" x1="-.25" y1="54" x2="72.25" y2="54"/>
          <line class="st2" x1="-.25" y1="30" x2="72.25" y2="30"/>
          <line class="st2" x1="-.25" y1="6" x2="72.25" y2="6"/>
        </g>
        <g>
          <line class="st2" x1="-72.25" y1="66" x2=".25" y2="66"/>
          <line class="st2" x1="-72.25" y1="42" x2=".25" y2="42"/>
          <line class="st2" x1="-72.25" y1="18" x2=".25" y2="18"/>
          <line class="st2" x1="-72.25" y1="54" x2=".25" y2="54"/>
          <line class="st2" x1="-72.25" y1="30" x2=".25" y2="30"/>
          <line class="st2" x1="-72.25" y1="6" x2=".25" y2="6"/>
        </g>
      </g>
    </pattern>
  </defs>
  <path d="M82.29,56.54c0-.35-.19-.63-.53-.88-3.62-2.56-7.84-4.11-12.22-5.38-3.66-1.07-7.27-2.28-10.97-3.27-2.2-.59-4.36-1.27-6.55-1.87-.27-.08-.5-.18-.68-.35-.39-.37-.87-.38-1.36-.22-2.03.64-4.05,1.29-6.11,1.84-2.95.79-5.92,1.51-8.96,1.99-4.03.63-8,1.47-11.67,3.11-.97.43-4.16,2.36-4.81,2.82-.39.28-.81.55-1.09.93l-.09.02c.21.14.37.5.36.79-.06,1.43.34,2.84.27,4.25-.05.9.23,1.74.22,2.62-.01.87.13,1.75.18,2.62.13,2.25.68,4.46.78,6.7.04.79.16,1.11.28,2.91.2,3.01,1.64,7.95,1.91,8.66.08.22,1.05,2.42,1.73,2.98.06-1.84,1.28-3.1,1.28-3.1-.15.53.44,3.45,1.05,4.48.53.92,1.6,3.32,3.02,3.9.15.06.75-2.3.81-2.13.62,1.71,1.34,3.05,1.72,3.98s1.25,2.4,1.81,3.01c1.04,1.16,3.86,3.04,3.86,3.04-.36-1.06-.48-2.4-.62-3.21.19,1.07,2.04,2.4,2.42,2.87,1.84,1.5,2.57,2.3,4.57,3.3.5.25,1.07.72,1.7.7-.02-.08-.1-.31-.12-.42-.05-.22-.05-.29-.08-.47-.06-.41-.07-.58,0-1.05.02-1.08,1.11.63,1.62.98,1.25.88,1.38,1.02,2.65,2.17.93.84,1.43,1.62,2.03,2.12.59-.62,1.14-1.43,1.65-2.14.42-.58,1.36-1.95,1.36-1.95,0,0,.06,2-.65,3.03,1.34-.19,1.85-.95,2.15-1.17,1.24-.89,1.61-1.52,2.55-2.63.4-.48,2.01-2.09,2.47-2.51.07,1.49-.14,2.17-.51,3.17,2.22-1.28,5.55-4.53,7.14-6.36.56-.64,1.05-1.12,1.82-2.07.03.37-.21,1.88-.57,2.88l2.44-1.88c1.48-1.39,2.08-2.71,2.9-4.4.28-.56.55-1.5,1.03-2.42.57,1.17.85,1.97.71,3.15,1.52-.93,2.61-2.48,3.01-3.3,1.05-2.14,1.34-3.49,1.29-5.79-.01-.77-.11-3.65-.08-3.58.49,1.16.89,3,1.29,3.53.58-2.19.61-7.77.71-9.58.09-1.77.14-3.55.37-5.31.36-2.68.52-5.36.64-8.05.05-1.04-.11-2.06-.12-3.09ZM62.52,85.66c-.49.43-.94.91-1.45,1.32-1.03.81-2.16,1.46-3.58,1.74-1.61.31-3.29-.29-3.57-1.74-.09-.47-.17-.94-.33-1.4h-.07c-.24-.12-.51-.08-.75-.04-1.63.22-3.27.08-4.9.07-.68,0-.95.1-1,.72-.04.53-.24,1.02-.42,1.51-.45,1.18-1.34,1.67-2.63,1.35-2.26-.57-4.17-1.65-5.73-3.16-.49-.48-.94-1.98-.61-2.56.55-.98,1.22-1.55,1.89-2.03,1.39-.99,3.06-1.52,4.8-1.93,1.86-.43,3.66-1.55,5.44-2.24.22-.09,3.57,1.66,5.03,1.9,1.18.19,2.31.56,3.48.76,2.22.39,3.97,1.17,4.71,3.14.34.91.66,1.75-.3,2.59Z"/>
  <path class="st3" d="M79.5,54.4c.8.21,1.24.67,1.28,1.1.15,1.77-.63,4.73-.79,6.5-.19,2.15-.64,4.75-.92,6.89-.16,1.19-.6,3.06-1.04,4.21-.44,1.18-1.5,2.34-2.17,3.45-.87,1.45-1.28,1.91-2.54,3.14-1.02.99-2.17,1.41-3.75,1.62-.98.13-1.3.22-2.08-.37-1.09-.83-1.97-1.84-3.07-2.67-2.16-1.62-4.71-2.6-7.38-3.38-2.25-.66-4.53-.6-6.8.03-.21.06-.47.07-.67,0-2.36-.74-4.58-.32-6.81.51-3.26,1.2-6.16,2.8-8.46,5.14-.49.49-.84,1.09-1.52,1.51-.81-.27-1.43-.8-2.08-1.26-2.69-1.95-4.92-4.25-6.64-6.89-.77-1.18-3.74-6.69-4.13-8.86-.57-3.17-1.24-10.92-1.41-11.2l9.14-3.87,22.32-5.43,20.85,6.57,8.67,3.27Z"/>
  <path class="st3" d="M18.04,62.06c-2.64-.7-4.55.06-5.14,1.54-.94,2.34.48,4.6,1.21,5.71.21.33,4.31,4,4.95,2.96-.13-2.83-.76-8.53-1.01-10.21Z"/>
  <path class="st3" d="M82.49,59.33c2.95-.91,5.49.26,6.17,2.11,1.09,2.92-1.28,5.44-2.08,6.85-.23.41-4.41,4.91-5.14,3.61.1-3.54.78-10.46,1.04-12.56Z"/>
  <ellipse cx="36.14" cy="62.09" rx="1.44" ry="2.22" transform="translate(-.39 .23) rotate(-.37)"/>
  <ellipse cx="62.45" cy="61.92" rx="1.44" ry="2.22" transform="translate(-.39 .4) rotate(-.37)"/>
  <path class="st3" d="M53.58,85.58c.16.46.24.93.33,1.4.28,1.44,1.95,2.04,3.57,1.74,1.42-.27,2.55-.93,3.58-1.74.52-.4.96-.89,1.45-1.32.96-.84.65-1.68.3-2.59-.74-1.97-1.43-3.3-3.65-3.68-1.17-.2-2.5-.06-3.68-.25-1.46-.24-2.34-.72-3.58-1.51-.45-.29-2.21-1.55-2.42-1.46-1.78.69-3.3,2.29-5.75,3.26-1.66.66-2.44.82-4.38,2.01-.7.43-1.45.94-1.63,1.24-.89,1.53-.14,2.87.35,3.35,1.56,1.51,3.48,2.59,5.73,3.16,1.29.33,2.17-.17,2.63-1.35.19-.49.38-.98.42-1.51.05-.61.33-.72,1-.72,1.63.01,3.27.15,4.9-.07.24-.03.51-.07.75.05"/>
  <path class="st1" d="M18.84,56.19"/>
  <path class="st5" d="M14.17,55.2c-.83-.4-2.24-1.51-2.88-3.2-.57-1.51-.72-3.99.55-5.63.57-.74,1.2-1,1.24-1.75.06-.89-.78-1.48-1.27-2.06-1.96-2.33-.38-6.82-.02-7.85,1.16-3.32,5.55-10.45,6.18-12.13.6-1.6,2.01-4.33,9.73-9.48,6.21-4.14,9.52-6.34,15-7.9,6.67-1.91,12.12-1.59,15.02-1.39,3.25.22,8.44.61,14.47,3.35,5.9,2.67,9.46,6.16,10.27,6.97,3.57,3.58,5.38,7.08,6.16,8.79,1.58,3.46,3.09,6.74,1.82,9.63-.45,1.03-1.11,1.68-1.41,3.27-.37,2,.4,2.35.36,4.52-.04,1.7-.73,3.44-2.11,6.92-.49,1.22-1.16,8.42-1.22,8.49-1.23,1.57-5.02-4.2-25.04-9.46-9.66-2.54-10.03-3.54-14.41-1.87-13.56,4.64-27.27,4.8-32.46,10.79Z"/>
  <path class="st6" d="M17.72,55.37c-.81-.4-5.81-1.06-6.44-2.77-.56-1.53-.7-4.04.53-5.7.56-.74,1.17-1.02,1.21-1.77.06-.9-.76-1.5-1.24-2.09-1.91-2.36-.37-6.91-.02-7.95,1.14-3.36,2.39-7.92,4.64-11.66,1.32-2.2,3.96-6.75,11.5-11.96,6.06-4.19,8.68-4.67,14.02-6.25,6.51-1.93,11.83-1.6,14.66-1.41,3.17.22,8.23.62,14.12,3.39,5.76,2.71,9.24,6.24,10.02,7.05,3.72,3.87,5.48,7.69,6.01,8.9,2.38,5.44,2.51,10.17,2.51,11.67,0,7.48-5.15,22.45-6.49,23.43-1.14-2.86-4.57-6.43-22.94-11.44-5.95-1.1-5.82-1.49-9.9-2.14-13.23,4.69-27.14,4.63-32.2,10.69Z"/>
  <path class="st4" d="M69.39,36.22c-11.78,7.6-25.87,10.02-39.05,14.13-3.73,1.22-7.6,2.29-10.83,4.53-.46.34-.79.69-1.41.81-.33.11-.71-.07-.77-.43-.03-.77.56-1.33,1.11-1.76,3.34-2.54,7.47-3.71,11.41-4.84,8.94-2.49,18.11-3.78,26.94-6.59,4.24-1.5,8.99-3,11.92-6.58.46-.62,1.37.25.68.73h0Z"/>
  <path class="st4" d="M80.61,56.01c-4.21-3.36-9.46-4.69-14.55-6.08-4.44-1.38-10.72-3.55-15.27-4.24-.47-.06-.8-.5-.71-.96.09-.47.58-.77,1.04-.62,5.16,1.41,10.08,3.54,15.11,5.29,5.14,1.49,10.06,3.39,14.89,5.75.65.31.09,1.3-.51.86h0Z"/>
  <path class="st4" d="M13.29,29.26C20.79,8.26,46.84-1.43,67.32,5.16c7.87,2.38,15.3,7.02,19.44,14.32,6.88,12.15,3.4,27.73-3.57,39.04-.15.24-.45.31-.69.16-.23-.14-.3-.44-.17-.67,2.54-4.66,4.49-9.64,5.52-14.81,2.1-10.4.61-21.42-7.47-28.9-7.72-7.2-18.7-10.23-29.11-10.06-5.32.09-10.49,1.67-15.48,3.38-4.9,1.95-9.35,5.12-13.24,8.67-3.88,3.62-6.8,8.21-8.49,13.26-.14.5-.98.26-.77-.28h0Z"/>
  <path class="st4" d="M17.7,55.51c-1.81-.29-3.64-.55-5.34-1.33-.56-.29-1.19-.61-1.57-1.39-.94-2.39-.67-5.57,1.25-7.34.22-.32.17-.43,0-.73-.19-.33-.63-.61-1.15-1.27-.49-.71-.59-1.46-.66-2.13-.13-3.16.99-6.21,2.06-9.05.18-.47.93-.23.78.26-.63,2.29-1.15,4.65-1.2,6.93-.03,1.11.15,2.3.59,2.89.39.53,1.63,1.79,1.38,2.88-.08,1.14-1.29,1.72-1.71,2.47-.84,1.37-.88,3.2-.38,4.72.09.35.52.75.99,1.04,1.49.9,3.24,1.51,4.98,1.77.18.02.14.31-.04.27h0Z"/>
  <path d="M84.93,36.96c-3.39-6.96-9.89-12.07-16.74-15.46-3.5-1.68-7.35-2.55-11.13-3.51-2.85-.65-5.74-1.22-8.67-1.3-.89-.1-2.49.24-2.99.09.89-.26,2.02-.24,3-.29,2.95.02,5.88.5,8.76,1.1,3.81.9,7.68,1.7,11.29,3.35,3.61,1.62,6.92,3.82,9.95,6.36,3,2.53,5.76,5.6,7.25,9.34.16.44-.48.76-.71.31h0Z"/>
  <path d="M63.1,41.66c4.84.2,9.66,1.65,13.8,4.18,0,0,3.98,2.78,3.98,2.78.56.4-.08,1.23-.62.79,0,0-3.8-2.87-3.8-2.87-2.63-1.78-5.59-3.01-8.67-3.79-1.54-.39-3.12-.75-4.7-.79-.18,0-.18-.29,0-.29h0Z"/>
  <path d="M81.28,58.33c1.54-.97,3.08-1.28,4.86-1.01,1.6.56,3.2,1.5,3.88,3.1,1.44,3.02-.62,6.33-2.49,8.64-1.3,1.53-3.07,2.68-5.06,2.99-.09.02-.17-.04-.19-.13-.02-.1.05-.19.15-.19,1.93-.14,3.38-1.69,4.39-3.21,1.2-2.18,3-4.93,1.79-7.41-.77-1.48-2.43-2.12-4.04-2.04-.8.04-1.88.2-2.55.51-.78.36-1.42-.75-.73-1.24h0Z"/>
  <path d="M17.8,61.53c-3.7-1.32-6.21.61-5.71,4.55.45,2.39,2.41,4.34,4.32,5.73.69.44,1.48.71,2.3.94.09.03.14.12.11.2-.02.08-.11.13-.19.11-1.71-.27-3.37-1.15-4.56-2.42-3.19-2.53-4.68-8.3-.07-10.19,1.37-.48,2.63-.51,4.11-.5.45.01.8.38.79.83,0,.55-.6.95-1.11.74h0Z"/>
  <path d="M47.7,61.4c.28,1.3.54,2.56.39,3.94-.04.67-.15,1.4-.51,2.06-.52,1.15-1.98,1.8-2.31,2.9-.18,1.57,3.16,1.53,4.29,1.75.14.02.25.15.23.29-.01.13-.12.23-.24.23-.66.04-1.32.04-1.99,0-1.35-.02-3.6-.63-3.25-2.46.33-1.53,1.81-1.96,2.43-3.16.53-1,.6-2.41.6-3.55-.03-.62-.16-1.27-.17-1.95,0-.15.11-.26.26-.27.13,0,.24.1.26.22h0Z"/>
  <path d="M57.99,80.02c-.03.37-.26.71-.55.93-.88.58-1.86.93-2.84,1.3-3.91,1.33-8.48,1.47-12.24-.4-.62-.22-.25-1.17.36-.91,4.17,2.31,9.36,2.05,13.69.26.61-.25,1.32-.53,1.41-1.2.01-.12.2-.09.18.02h0Z"/>
  <path d="M21.84,27.46c10.1-6.06,21.87-3.41,32.23.49,5.28,1.73,10.59,3.67,15.22,6.83,4.68,3.06,8.93,6.77,12.58,11.01.18.21.16.52-.05.71-.21.18-.53.16-.71-.06-3.54-4.22-7.68-7.93-12.25-11.01-4.55-3.2-9.73-5.16-14.97-6.96-11.03-4.23-21.24-6.64-32.05-1.01h0Z"/>
  <path class="st4" d="M68.02,53.58c-2.6-1.45-5.71-1.75-8.42-.53-.48.16-.79-.54-.36-.8,2.63-2.12,7.08-1.92,9.34.65.33.36-.15.92-.56.67h0Z"/>
  <path class="st4" d="M39.06,54.6c-2.76-.48-5.34-.08-7.76,1.35-.4.24-.85-.31-.54-.65,1-1.18,2.48-1.95,4.04-2.22,1.56-.27,3.21-.04,4.55.73.21.12.28.38.16.59-.09.16-.27.24-.45.21h0Z"/>
</svg>