<?xml version="1.0" encoding="UTF-8"?>
<svg id="_レイヤー_1" data-name="レイヤー_1" xmlns="http://www.w3.org/2000/svg" version="1.1" viewBox="0 0 100 100">
  <!-- Generator: Adobe Illustrator 30.0.0, SVG Export Plug-In . SVG Version: 2.1.1 Build 123)  -->
  <defs>
    <style>
      .st0 {
        fill: #ceb372;
      }

      .st1 {
        fill: #1c1917;
      }

      .st2 {
        fill: #fff;
      }

      .st3 {
        fill: none;
        stroke: #000;
        stroke-linecap: round;
        stroke-linejoin: round;
        stroke-width: .75px;
      }
    </style>
  </defs>
  <path class="st1" d="M79.71,49.22c0-.32-.17-.6-.49-.83-3.37-2.44-7.33-3.94-11.43-5.18-3.43-1.04-6.81-2.21-10.27-3.18-2.06-.57-4.08-1.23-6.13-1.82-.26-.07-.46-.17-.63-.34-.36-.35-.81-.36-1.28-.22-1.91.58-3.82,1.17-5.76,1.67-2.78.71-5.57,1.36-8.44,1.78-3.79.55-7.53,1.31-11,2.8-.91.39-3.93,2.18-4.55,2.61-.37.26-.77.51-1.03.86l-.08.02c.2.13.34.47.33.75-.07,1.34.29,2.67.21,4-.05.84.2,1.64.18,2.47-.02.82.1,1.64.14,2.46.1,2.11.6,4.19.67,6.3.03.92.16,1.83.23,2.74.09,1.14.36,2.27.85,3.34.26.57.21,1.17.24,1.75.07,1.44.12,1.7.63,3.05.08.21,1.44,2.66,1.6,2.82l1.23-2.9c-.15.5.38,3.24.94,4.22.49.87,1.47,3.13,2.8,3.69.14.06.63-2.07.78-1.99,1.37.7,1.62,3.91,1.62,3.91.44.62.92,1.23,1.43,1.81.97,1.1,1.89,2.25,3.38,2.91.03-.06.05-.1.05-.1.16-.34.33-.67.33-1.03.66.2.92.7,1.27,1.14,1.23,1.54,2.84,2.74,4.71,3.69.46.24,1,.68,1.59.68-.02-.08-.09-.29-.11-.4-.04-.21-.05-.27-.07-.44-.05-.39-.06-.55.02-.98.03-1.01,1.03.6,1.51.94,1.17.84,2.26,1.75,2.99,2.91.62,1,.68,1,1.55.12.56-.57,1.11-1.16,1.72-1.7.14-.12.77-.57,1.01-.52l-.21,1.97c.35.01.64-.15.92-.35,1.18-.83,2.16-1.82,3.05-2.85.38-.44,1.91-1.94,2.35-2.33.05,1.4.26,1.99.77,1.71,2.1-1.18,3.98-2.93,5.49-4.63.53-.6,1-1.05,1.73-1.93.02.35.09,1.66.21,2.1l1.25-1.2c1.23-1.38,2.05-2.94,2.85-4.53.26-.53.53-1.48,1.2-1.78.02.15.05,1.5.7,2.43,1.43-.86,1.81-1.9,2.2-2.66,1.01-2,1.6-3.71,1.58-5.87,0-.72.07-1.87.02-2.54,0-.07.19-.31.22-.26.61.94,1.18,1.41,1.54,1.91.56-2.05.28-5.88.39-7.57.1-1.66.17-3.33.4-4.98.36-2.51.54-5.03.68-7.55.05-.97-.09-1.93-.08-2.9ZM60.85,76.37c-.46.4-.89.85-1.38,1.23-.98.75-2.05,1.35-3.38,1.59-1.52.27-3.08-.31-3.33-1.67-.08-.44-.15-.89-.3-1.32h-.06c-.22-.11-.48-.08-.7-.05-1.53.19-3.07.05-4.6.02-.63-.01-.89.09-.95.66-.05.5-.23.96-.41,1.42-.44,1.1-1.28,1.56-2.48,1.24-2.11-.56-3.9-1.59-5.36-3.02-.46-.45-.64-1-.44-1.58.11-.31.29-.61.37-.93.18-.74.67-1.34,1.31-1.78,1.31-.92,2.89-1.4,4.52-1.76,1.75-.39,3.57-.6,5.25-1.23.21-.08.4-.06.57.01,1.27.54,2.65.76,4.02,1,1.11.19,2.17.55,3.26.75,2.08.38,3.71,1.14,4.39,3,.31.85.6,1.65-.31,2.43Z"/>
  <path class="st0" d="M77.11,47.18c-.4.32-.35.75-.32,1.15.12,1.67-.03,3.32-.19,4.98-.2,2.02-.6,4.01-.88,6.02-.16,1.11-.34,2.21-.76,3.29-.43,1.1-.74,2.24-1.37,3.27-.83,1.35-1.87,2.58-3.07,3.72-.97.92-1.96,1.8-3.15,2.5-.8.47-1.08.45-1.79-.12-1.02-.79-1.83-1.75-2.86-2.54-2.01-1.54-4.4-2.49-6.89-3.25-2.11-.64-4.25-.61-6.39-.04-.19.05-.45.06-.63,0-2.21-.71-4.3-.34-6.4.41-3.07,1.1-5.81,2.57-8,4.74-.46.46-.8,1.01-1.44,1.4-.75-.27-1.34-.76-1.94-1.2-2.51-1.86-4.58-4.04-6.17-6.53-.71-1.11-1.2-2.31-1.46-3.56-.42-2.03-.67-4.09-1.02-6.13-.5-2.99-.47-5.98-.46-8.98,0-.29-.04-.56-.19-.82l6.66-3.24,21.1-4.58,19.52,6.37,8.11,3.15Z"/>
  <path class="st0" d="M19.12,53.04c-2.47-.68-5.11.5-5.69,1.88-.9,2.19.48,4.37,1.15,5.42.2.31,4.96,4.02,5.56,3.04-.09-2.66-.81-8.76-1.03-10.34Z"/>
  <path class="st0" d="M80.67,51.14c2.48-.74,5.11.6,5.67,2.15.89,2.46-.52,4.88-1.2,6.05-.2.34-4.99,4.45-5.59,3.35.12-2.97.89-9.79,1.12-11.55Z"/>
  <ellipse class="st1" cx="36.3" cy="53.98" rx="2.61" ry="1.69" transform="translate(-17.83 90.06) rotate(-89.77)"/>
  <ellipse class="st1" cx="61.02" cy="54.08" rx="2.61" ry="1.69" transform="translate(6.69 114.88) rotate(-89.77)"/>
  <path class="st0" d="M52.45,76.21c.15.43.22.88.3,1.32.25,1.36,1.81,1.94,3.33,1.67,1.33-.24,2.4-.85,3.38-1.59.49-.38.92-.83,1.38-1.23.91-.78.62-1.57.31-2.43-.68-1.86-2.31-2.61-4.39-3-1.09-.2-2.16-.56-3.26-.75-1.37-.24-2.75-.46-4.02-1-.17-.07-.37-.09-.57-.01-1.68.63-3.49.84-5.25,1.23-1.64.36-3.21.85-4.52,1.76-.64.44-1.13,1.04-1.31,1.78-.08.32-.26.62-.37.93-.21.59-.02,1.13.44,1.58,1.45,1.43,3.24,2.46,5.36,3.02,1.21.32,2.04-.14,2.48-1.24.18-.46.37-.92.41-1.42.05-.58.31-.67.95-.66,1.53.03,3.07.17,4.6-.02.22-.03.48-.06.7.05"/>
  <path class="st3" d="M20.11,48.27"/>
  <path class="st2" d="M18.63,47.4c-.71-.35-1.91-1.32-2.45-2.78-.48-1.31-.58-3.44.52-4.84.5-.63,1.04-.85,1.09-1.49.06-.77-.65-1.28-1.07-1.79-1.66-2.02-.27-5.87.05-6.76,1.03-2.84,2.37-2.76,4.04-6.3.92-1.95.83-2.64,1.39-4.08.53-1.38,1.77-3.71,8.46-8.07,5.38-3.5,8.25-5.37,12.98-6.67,5.76-1.58,10.45-1.26,12.94-1.06,2.79.22,7.26.6,12.42,3.01,5.05,2.35,8.09,5.39,8.77,6.09,3.04,3.12,4.56,6.14,5.22,7.62,1.33,2.99,2.6,5.83,1.48,8.3-.4.89-.97,1.43-1.24,2.8-.34,1.72.33,2.03.27,3.9-.05,1.46-.66,2.95-1.88,5.93-.43,1.05-.67,1.52-.87,2.42-.19.84-.09,1.35-.18,3.45-.04.91-.03,1.36-.08,1.42-1.08,1.34-4.28-3.66-21.46-8.36-8.29-2.27-8.6-3.14-12.39-1.74-11.71,3.87-23.51,3.88-28.03,8.99Z"/>
  <path class="st1" d="M31.33,9.86c-2.75,1.84-5.54,3.81-7.82,6.23-1.65,1.76-3.43,4.23-3.82,6.65-.05.32-.03.61-.22.89-.22.33-.63.61-.9.9-.55.59-1.05,1.22-1.49,1.89-.82,1.24-1.35,2.62-1.68,4.07-.35,1.57-.29,3.07.04,4.64.26,1.24.31,3.08,1.52,3.78.81.48,2.72-.63,1.68-1.25-.59-.35-.58-1.19-.72-1.81-.17-.73-.35-1.45-.46-2.19-.23-1.57,0-3.12.51-4.61.49-1.4,1.29-2.63,2.28-3.73.79-.87,1.66-1.36,1.69-2.59.06-2.18,2.11-4.68,3.55-6.18,2.13-2.21,4.74-4.02,7.29-5.72.41-.28.5-.78.12-1.11-.42-.36-1.17-.13-1.56.13h0Z"/>
  <path class="st1" d="M83.96,31.88c1.61-1.07,1.66-3.67,1.63-5.41-.04-2.27-.7-4.56-1.57-6.65-1.62-3.88-4.32-7.12-7.62-9.7-3.6-2.82-7.62-5.05-12.08-6.17s-9.66-1.4-14.4-1.07-9.81,1.59-14.08,4.15c-1.26.75-.11,1.9.96,1.26,7.18-4.3,15.78-4.48,23.86-3.37,4.15.57,8.08,2.27,11.54,4.6,3.16,2.13,6.03,4.64,8.08,7.88,1.22,1.93,2.09,4.05,2.64,6.26.32,1.28.52,2.56.45,3.88-.05.91-.02,2.8-.85,3.35-.41.28-.5.78-.12,1.11.42.36,1.17.13,1.56-.13h0Z"/>
  <path class="st1" d="M60.77,12.83c-5.84-1.59-11.58-2.8-17.63-1.71s-11.79,2.77-17.03,5.68c-1.29.72-.12,1.81.95,1.22,4.83-2.68,10.18-4.26,15.57-5.31,2.82-.55,5.59-.7,8.44-.31s5.65,1.09,8.43,1.85c.5.14,1.2.02,1.54-.41.29-.37.24-.87-.27-1.01h0Z"/>
  <path class="st1" d="M84.56,34.97c-.08-1.26-.06-2.69-.49-3.89-.37-1.03-.89-2.03-1.43-2.97-1.15-2-2.63-3.78-4.28-5.38-3.56-3.46-7.78-6.31-12.38-8.21-.88-.36-2.53.9-1.27,1.42,4.39,1.82,8.51,4.62,11.88,7.96,1.48,1.47,2.82,3.09,3.89,4.88.57.96,1.12,1.99,1.47,3.05.38,1.15.36,2.52.43,3.72.06.94,2.24.43,2.17-.58h0Z"/>
  <path class="st1" d="M79.97,49.12c.85-.46,1.43-1.09,1.68-2.02s.32-2,.26-2.98c-.01-.26-.03-.51-.07-.77-.03-.2-.12-.42-.09-.63.05-.38.48-.77.69-1.08.6-.86,1.16-1.75,1.56-2.72.47-1.12-1.71-1.07-2.07-.22s-.81,1.63-1.33,2.39-1.16,1.38-1.02,2.34.17,1.92.04,2.93c-.06.48-.1,1.26-.6,1.53-.36.2-.86.64-.52,1.08.31.41,1.07.36,1.47.14h0Z"/>
  <path class="st1" d="M76.19,46.83c-.61.71-.5,1.37-.47,2.25.04,1.21-.05,2.42-.16,3.62-.21,2.32-.63,4.61-.98,6.91-.7,4.64-3.13,8.53-6.93,11.29-.66.48-.89.66-1.59.18-.4-.28-.74-.67-1.09-1-.83-.78-1.68-1.5-2.65-2.1-1.82-1.13-3.84-1.93-5.89-2.53s-4.13-.59-6.3-.28c-1.15.17-2.14-.18-3.29-.22-1-.03-2,.09-2.98.32-2.31.54-4.61,1.57-6.64,2.79-.94.57-1.84,1.19-2.68,1.9s-1.46,1.61-2.32,2.21l1.35-.23c-2.08-.86-4.08-2.9-5.55-4.56-1.62-1.83-3.02-3.85-3.55-6.27-.56-2.54-.96-5.2-1.24-7.78-.15-1.42-.2-2.85-.21-4.27-.01-1.24.24-2.71-.21-3.88-.4-1.03-2.56-.42-2.17.58.34.89.17,2.02.17,2.97s.02,1.89.07,2.84c.09,1.82.36,3.61.63,5.41.53,3.45.95,6.58,3.02,9.48,1.75,2.45,4.04,4.71,6.56,6.36,1.17.76,2.04.98,3.14-.01s2.07-2.12,3.36-2.99c2.6-1.75,6.31-3.59,9.51-3.13.78.11,1.44.41,2.23.32s1.5-.33,2.29-.4c1.96-.16,3.79.37,5.62,1.05,1.51.56,2.98,1.25,4.29,2.2s2.38,2.55,3.88,3.21c1.23.54,2.37-.18,3.37-.87,1.31-.9,2.51-2.03,3.59-3.19,2.53-2.73,3.9-6.09,4.45-9.75.29-1.93.65-3.85.86-5.78.11-.98.2-1.96.24-2.95.02-.45.03-.91.02-1.36,0-.43-.23-1.26.09-1.63.9-1.05-1.15-1.5-1.84-.7h0Z"/>
  <path class="st1" d="M61.74,36.03c2.56.02,5.32.88,7.67,1.83,2.94,1.18,5.45,2.95,7.92,4.92.8.64,2.67-.5,1.66-1.3-2.67-2.13-5.42-4-8.62-5.25-2.63-1.03-5.63-1.85-8.47-1.87-1.27-.01-1.64,1.66-.17,1.68h0Z"/>
  <path class="st1" d="M78.58,64.07c1.81.18,3.33-.58,4.75-1.64s2.7-2.29,3.53-3.84,1.27-3.41.72-5.14c-.52-1.61-1.66-2.75-3.28-3.24-.51-.16-1.18-.02-1.54.41-.31.37-.22.89.28,1.04,1.23.38,2.03,1.24,2.39,2.48.41,1.37.08,2.77-.55,4.02-.59,1.16-1.49,2.1-2.5,2.91-.87.7-1.86,1.55-3.05,1.43-.5-.05-1.19.16-1.42.66s.19.86.66.9h0Z"/>
  <path class="st1" d="M19.03,52.02s.03.05.09.03c-.12-.07-.25-.13-.37-.2-.16-.07-.32-.13-.48-.17-.44-.13-.89-.18-1.35-.16-.83.03-1.67.31-2.39.73-1.42.82-2.2,2.11-2.4,3.73s.24,3.06,1.09,4.34,2.15,2.54,3.5,3.35c.48.29,1.12.24,1.56-.12.34-.27.58-.9.1-1.18-2.06-1.23-4.18-3.49-4.09-6.05.04-1.03.3-2.11,1.22-2.7.42-.27.94-.47,1.44-.41.33.04.57.21.87.35.32.14.69.18,1.03.14.49-.05,1.14-.34,1.19-.91.05-.54-.56-.82-1.02-.77h0Z"/>
  <path class="st1" d="M61.76,31.98c-1.96,1.16-4.06,2-6.18,2.82-1.03.39-2.06.78-3.11,1.13s-2.07.6-2.93,1.38c-.38.35-.15.85.27,1.01.54.2,1.14-.05,1.54-.41.3-.27.81-.33,1.18-.45.5-.16,1-.33,1.5-.51,1.05-.37,2.09-.77,3.13-1.17,2.09-.8,4.1-1.72,6.03-2.86.41-.24.52-.79.13-1.08-.46-.34-1.13-.11-1.56.14h0Z"/>
  <path class="st1" d="M45.84,53.76c.06.74.27,1.48.24,2.23-.02.7-.05,1.49-.26,2.16-.39,1.29-1.75,1.82-2.35,2.97-.49.92-.23,1.93.65,2.5,1.21.79,2.91.82,4.3.86.52.02,1.17-.14,1.42-.66.22-.46-.19-.89-.66-.9-.72-.03-1.45-.07-2.16-.18-.46-.07-1.05-.15-1.4-.5-.52-.53.14-1.19.6-1.61,1.04-.93,1.75-1.93,1.94-3.35.09-.64.15-1.31.11-1.95-.04-.73-.2-1.44-.26-2.16-.05-.53-.93-.54-1.28-.44-.49.13-.94.48-.89,1.03h0Z"/>
  <path class="st1" d="M55.47,71.12c-.08.33-.51.42-.79.54-.54.23-1.08.43-1.64.6-1.16.34-2.34.55-3.54.62s-2.37,0-3.53-.24-2.15-.69-3.21-1.18c-.87-.39-2.51.86-1.27,1.42,1.38.63,2.69,1.13,4.2,1.37s3.1.25,4.63.06,3.02-.55,4.47-1.1c1.17-.44,2.56-.92,2.87-2.28.23-1.02-1.99-.75-2.2.18h0Z"/>
  <path class="st1" d="M80.65,55.59c.14-1.66.29-3.33.21-5-.03-.59.06-1.39-.13-1.96-.21-.62-.89-1.01-1.39-1.34-2.58-1.73-5.47-2.98-8.41-3.98-3.14-1.08-6.34-2.03-9.51-3.01-3.35-1.04-6.97-1.73-10.12-3.24-1.12-.54-2.23-.07-3.35.27-1.7.52-3.41,1.01-5.13,1.45-3.32.84-6.65,1.37-10.01,1.97-3.21.56-6.56,1.3-9.49,2.78-1.43.72-3.18,1.56-4.53,2.63-.02-.03-.05-.05-.07-.08-.62-.79-1.12-1.78-1.38-2.75-1.31-4.8,5.31-7.75,8.73-9.4,5.15-2.48,10.58-4.22,16.17-5.36,1.37-.28.95-1.75-.39-1.47-5.26,1.07-10.38,2.67-15.27,4.88-2.29,1.03-4.58,2.15-6.66,3.56-1.82,1.24-3.88,2.84-4.65,4.98-.69,1.92-.13,3.78.83,5.49.22.39.44.79.73,1.14.24.29.87.67,1,1,.15.4.04,1.18.08,1.62.07.82.14,1.63.15,2.45.02,2.28.22,4.67.5,6.94.31,2.55.46,5.11.78,7.66.2,1.55.94,2.91,1.03,4.47.05.88.11,1.72.39,2.56.41,1.25,1.13,2.67,1.94,3.7.35.45,1.15.4,1.66.07.01.04.03.09.04.13.39,1.2,1.1,2.47,1.83,3.49.65.9,1.86,2.18,3.06,1.38.12-.08.22-.18.3-.28.14.69.17,1.43.42,2.04.44,1.07,1.66,2.16,2.45,3,.82.87,1.7,1.55,2.77,2.06.39.19.98.05,1.36-.25.3.37.58.77.85,1.04.57.56,1.18,1.09,1.83,1.55,1.17.83,2.71,1.92,4.16,2.1.42.05,1.2-.18,1.42-.64.05.04.1.08.15.12.6.47,1.18.98,1.66,1.58.37.46.62,1.09,1.09,1.45.71.54,1.6.25,2.24-.26.41-.32.76-.72,1.11-1.1,0,.02,0,.04,0,.06-.06.53.58.75,1,.7,1.75-.22,3.14-1.68,4.29-2.91.45-.48.9-.97,1.35-1.45.13.23.32.43.62.53,1.02.36,2.14-.56,2.91-1.1,1.6-1.11,3.03-2.48,4.36-3.92,0,.02,0,.04,0,.06.19.89,1.59.41,1.99.02.86-.83,1.66-1.62,2.34-2.62.56-.82,1.05-1.69,1.51-2.57.01-.03.03-.06.04-.1.06.13.12.25.19.38.34.57,1.31.27,1.71.01,1.76-1.15,2.66-3.04,3.38-4.96.37-1,.65-2.04.74-3.1.03-.38.04-.76.04-1.14.63.3,1.63-.14,1.79-.79.58-2.31.3-4.75.37-7.11.09-3.17.6-6.29.86-9.45ZM75.47,71.16c-.03,1.23.03,2.48-.15,3.7-.24,1.64-.9,3.68-2.03,5.12-.08-.34-.12-.69-.15-1.05-.05-.64-1.23-.54-1.57-.34-1.55.93-2.04,2.96-2.92,4.45-.31.53-.66,1-1.02,1.45-.12-.93-1.52-.74-1.99-.18-.96,1.13-1.96,2.24-3.01,3.28-.6.59-1.23,1.15-1.89,1.67-.34.27-.69.52-1.04.76,0,0,0,0-.01,0-.03-.29-.02-.58-.03-.64-.04-.85-1.3-.87-1.82-.4-.79.72-1.56,1.46-2.29,2.23-.46.49-.89,1.01-1.37,1.49-.15.15-.4.43-.68.7.02-.15.03-.3.05-.45.06-.52-.58-.76-1-.7-.77.1-1.4.46-1.98.95-.37.32-.72.67-1.06,1.02-.13.14-.27.27-.4.41-.21-.31-.45-.67-.56-.8-.45-.53-.97-1.01-1.51-1.45-.44-.36-.9-.67-1.3-1.07-.29-.29-.52-.66-.87-.88-.66-.44-1.74-.31-2.15.43-.11.2-.17.43-.2.68-.19-.12-.37-.24-.53-.33-.69-.41-1.35-.88-1.97-1.4-1.1-.94-1.78-2.35-3.13-2.93-.45-.19-1.16-.02-1.52.38-.46-.37-.87-.79-1.27-1.23-.59-.66-1.61-1.51-1.94-2.33-.35-.87-.27-1.9-.69-2.8-.45-.96-1.36-2-2.52-1.41-.37.19-.57.5-.71.85-.57-.74-1-1.64-1.35-2.41-.48-1.03-1.03-2.69-.83-3.83.19-1.07-1.84-.73-2.14-.03-.1.24-.21.48-.31.73-.15-.29-.29-.57-.39-.81-.78-1.75-.45-3.65-1.11-5.42-.84-2.24-.7-4.71-.95-7.05-.26-2.33-.61-4.63-.68-6.98-.06-2.17-.09-4.52-.4-6.67-.02-.17-.08-.32-.14-.45,1.12-1.07,2.87-1.84,4.18-2.53,2.39-1.26,5.14-1.9,7.78-2.42,3.01-.59,6.05-.96,9.04-1.65,1.46-.34,2.92-.7,4.36-1.1.74-.21,1.48-.42,2.21-.64.57-.17,1.64-.77,2.2-.67.46.08,1.07.54,1.56.69.78.24,1.57.47,2.36.71,1.57.48,3.14.92,4.71,1.38,3.11.92,6.18,1.94,9.28,2.9,2.77.86,5.52,1.83,8.07,3.23.56.31,1.12.64,1.66.99.92.59,1.22.88,1.33,1.98.16,1.58-.01,3.19-.13,4.77-.25,3.32-.78,6.59-.91,9.92-.06,1.55.04,3.14-.03,4.71-.29-.17-.72-.19-.99-.09-.84.31-1.1.72-1.11,1.57Z"/>
  <path class="st1" d="M53.23,24.33c-2.02.7-4.1,1.24-6.19,1.7-.43.09-1.03.52-.89,1.03.14.53.87.54,1.28.44,2.09-.46,4.17-1,6.19-1.7.41-.14,1.03-.49.89-1.03-.13-.5-.88-.59-1.28-.44h0Z"/>
  <path class="st1" d="M76.19,46.83c-.61.71-.5,1.37-.47,2.25.04,1.21-.05,2.42-.16,3.62-.21,2.32-.63,4.61-.98,6.91-.7,4.64-3.13,8.53-6.93,11.29-.66.48-.89.66-1.59.18-.4-.28-.74-.67-1.09-1-.83-.78-1.68-1.5-2.65-2.1-1.82-1.13-3.84-1.93-5.89-2.53s-4.13-.59-6.3-.28c-1.15.17-2.14-.18-3.29-.22-1-.03-2,.09-2.98.32-2.31.54-4.61,1.57-6.64,2.79-.94.57-1.84,1.19-2.68,1.9s-1.46,1.61-2.32,2.21l1.35-.23c-2.08-.86-4.08-2.9-5.55-4.56-1.62-1.83-3.02-3.85-3.55-6.27-.56-2.54-.96-5.2-1.24-7.78-.15-1.42-.2-2.85-.21-4.27-.01-1.24.24-2.71-.21-3.88-.4-1.03-2.56-.42-2.17.58.34.89.17,2.02.17,2.97s.02,1.89.07,2.84c.09,1.82.36,3.61.63,5.41.53,3.45.95,6.58,3.02,9.48,1.75,2.45,4.04,4.71,6.56,6.36,1.17.76,2.04.98,3.14-.01s2.07-2.12,3.36-2.99c2.6-1.75,6.31-3.59,9.51-3.13.78.11,1.44.41,2.23.32s1.5-.33,2.29-.4c1.96-.16,3.79.37,5.62,1.05,1.51.56,2.98,1.25,4.29,2.2s2.38,2.55,3.88,3.21c1.23.54,2.37-.18,3.37-.87,1.31-.9,2.51-2.03,3.59-3.19,2.53-2.73,3.9-6.09,4.45-9.75.29-1.93.65-3.85.86-5.78.11-.98.2-1.96.24-2.95.02-.45.03-.91.02-1.36,0-.43-.23-1.26.09-1.63.9-1.05-1.15-1.5-1.84-.7h0Z"/>
  <path class="st1" d="M70.36,32.31c2.81,2.27,5.38,4.81,7.69,7.58.34.41,1.03.35,1.47.14.35-.17.87-.66.52-1.08-2.4-2.88-5.09-5.51-8-7.86-.72-.58-2.64.45-1.68,1.22h0Z"/>
  <path class="st1" d="M26.85,20.49c7.1-2.69,14.67-1.4,21.64,1.03,6.5,2.26,12.91,4.43,18.62,8.35.76.52,2.68-.54,1.68-1.22-6.13-4.2-13.13-6.56-20.12-8.92-7.41-2.5-15.32-3.28-22.76-.45-.42.16-.8.65-.52,1.08.3.46,1.07.29,1.47.14h0Z"/>
</svg>