<?xml version="1.0" encoding="UTF-8"?>
<svg id="_レイヤー_1" xmlns="http://www.w3.org/2000/svg" version="1.1" viewBox="0 0 100 100">
  <!-- Generator: Adobe Illustrator 30.0.0, SVG Export Plug-In . SVG Version: 2.1.1 Build 123)  -->
  <defs>
    <style>
      .st0 {
        fill: #1c1917;
      }

      .st1 {
        fill: #fff;
      }
    </style>
  </defs>
  <polygon class="st1" points="76.07 15.42 76.08 12.82 22.96 13.03 23.25 81.91 25.92 81.92 25.7 82.22 25.4 85.04 79.09 85 78.96 15.18 76.07 15.42"/>
  <path class="st0" d="M64.76,13.28c.46,0,1.18-.1,1.54-.41.26-.23.37-.43-.12-.43-.46,0-1.18.1-1.54.41-.26.23-.37.43.12.43h0Z"/>
  <path class="st0" d="M57.63,12.47l-29.73.12-4.23.02c-.36,0-1.8.18-1.8.71.03,7.8.06,15.59.1,23.39.05,12.32.1,24.65.15,36.97.01,2.84.02,5.68.04,8.52,0,.12.34.13.38.13,5.97.02,11.93.04,17.9.06,9.42.03,18.85.06,28.27.09,2.19,0,4.39.01,6.58.02.36,0,1.8-.18,1.8-.71,0-7.82.02-15.63.03-23.45.01-12.44.03-24.88.04-37.32v-8.49c0-.12-.34-.13-.38-.13h-7.79c-.46,0-1.18.1-1.54.41-.26.23-.38.43.12.43h7.79l-.38-.13c0,7.82-.02,15.63-.03,23.45-.01,12.44-.03,24.88-.04,37.32v8.49l1.8-.71c-5.97-.02-11.93-.04-17.9-.06-9.42-.03-18.85-.06-28.27-.09-2.19,0-4.39-.01-6.58-.02l.38.13c-.03-7.8-.06-15.59-.1-23.39-.05-12.32-.1-24.65-.15-36.97-.01-2.84-.02-5.68-.04-8.52l-1.8.71,29.73-.12,4.23-.02c.46,0,1.18-.1,1.54-.41.26-.23.38-.43-.12-.43h0Z"/>
  <path class="st0" d="M66.19,12.44c-1.6,0-3.2.01-4.8.02h-.69c-.52,0-1.09.14-1.54.41-.09.05-.3.17-.26.3s.29.13.38.13c1.6,0,3.2-.01,4.8-.02h.69c.52,0,1.09-.14,1.54-.41.09-.05.3-.17.26-.3s-.29-.13-.38-.13h0Z"/>
  <path class="st0" d="M80.08,31.93c0-4.92-.02-9.84-.03-14.76v-2.12c0-.36-.33-.51-.67-.5l-1.59.05c-.46.01-1.19.14-1.43.6-.23.43.19.67.6.66l1.59-.05-.67-.5c0,4.92.02,9.84.03,14.76v2.12c0,.92,2.18.47,2.18-.26h-.01Z"/>
  <path class="st0" d="M37.91,85.66c11.9,0,23.79-.02,35.69-.03h5.07c.35,0,1.51-.21,1.51-.76,0-5.45-.02-10.91-.03-16.36-.02-8.7-.03-17.39-.05-26.09,0-2,0-4-.01-6,0-.92-2.18-.47-2.18.26,0,5.45.02,10.91.03,16.36l.05,26.09c0,2,0,4,.01,6l1.51-.76c-11.9,0-23.79.02-35.69.03h-5.07c-.41,0-1.26.14-1.43.6s.14.66.6.66h-.01Z"/>
  <path class="st0" d="M24.61,82.35c-.1.94-.2,1.88-.29,2.82-.04.37.37.5.67.5h9.05c.48,0,1.17-.15,1.43-.6s-.22-.66-.6-.66h-9.05c.22.17.45.33.67.5.1-.94.2-1.88.29-2.82.09-.89-2.1-.49-2.18.26h0Z"/>
  <path class="st0" d="M22.32,14.86c-.06.09.15-.13.07-.06.06-.05.17-.09.05-.04-.08.03-.17.07-.25.1-.13.05.16-.06.07-.03-.03.01-.06.02-.09.03-.1.04-.2.07-.3.11-.13.05-.26.1-.38.16-.58.26-1.19.64-1.46,1.24-.29.67-.02,1.48.5,1.95.61.54,1.51.66,2.29.67,1.31.02,2.61-.39,3.79-.93.28-.13.54-.48.33-.77s-.69-.26-.99-.12c-.46.21-.93.39-1.42.51s-.78.18-1.27.2c-.34.02-.58,0-.98-.08-.1-.02.09.03,0,0-.04-.01-.07-.02-.11-.03-.07-.02-.14-.05-.21-.08-.13-.05.02.02-.07-.03-.07-.04-.13-.09-.2-.14-.02-.01-.04-.03-.05-.04-.06-.05.06.07.01,0-.04-.04-.07-.09-.11-.14-.08-.12-.11-.18-.15-.34-.02-.07-.03-.13-.04-.2.01.11,0-.02,0-.06,0-.02.03-.19.01-.12s.04-.09.05-.12c.03-.09,0,0-.02.03.02-.02.03-.05.05-.07.04-.04.07-.08.11-.13-.08.1-.04.04.02,0,.05-.04.11-.08.16-.12.07-.06-.12.07.03-.02.05-.03.11-.06.16-.08.11-.06.23-.11.35-.16.06-.02.12-.05.18-.07.03,0,.05-.02.08-.03.12-.05-.14.05-.06.02.15-.06.3-.11.45-.17.21-.09.46-.2.59-.39.51-.77-.83-1.04-1.22-.46h.03Z"/>
  <ellipse class="st0" cx="26.77" cy="17.43" rx="1.11" ry="1.13" transform="translate(-.49 .77) rotate(-1.64)"/>
  <path class="st0" d="M22.38,20.94s.07-.06.09-.07c-.12.07.1-.03.03-.01-.01,0-.11.04-.11.05,0-.02.17-.06.08-.03-.03.01-.07.03-.1.04-.28.1-.56.21-.83.33-.51.23-1.15.56-1.38,1.11s.03,1.21.47,1.57c.58.47,1.45.55,2.16.53,1.41-.04,2.8-.45,4.07-1.03.12-.06.49-.26.19-.34s-.75.07-1.01.19c-.81.37-1.55.62-2.41.62-.59,0-1.25-.1-1.7-.51-.35-.33-.53-.95-.3-1.39.05-.09.11-.17.17-.23.04-.04.07-.07.11-.1.02-.02.05-.04.07-.05.11-.09-.08.05.04-.03.05-.03.1-.06.15-.09.03-.02.05-.03.08-.04,0,0-.1.05-.04.02.11-.05.23-.1.35-.15.11-.05-.04.01-.05.02.03-.01.06-.03.1-.04.06-.02.11-.04.17-.06.14-.05.29-.11.43-.17.2-.08.47-.19.59-.38.14-.2-.52-.12-.57-.11-.26.05-.69.14-.85.38h0v-.03Z"/>
  <ellipse class="st0" cx="26.93" cy="23.15" rx="1.11" ry="1.13" transform="translate(-.65 .78) rotate(-1.64)"/>
  <path class="st0" d="M22.22,27.45s.2-.17.15-.14c-.1.06.19-.08.05-.03-.09.03-.17.07-.26.11-.23.09-.47.17-.69.27-.56.25-1.19.61-1.46,1.19s-.07,1.33.41,1.75c.59.52,1.46.66,2.23.66,1.35,0,2.68-.38,3.9-.94.2-.09.6-.36.38-.61s-.72-.14-.96-.03c-.48.22-.96.4-1.46.53-.38.1-.79.17-1.17.18-.33.01-.63,0-.96-.09-.2-.05-.48-.17-.61-.29-.2-.18-.32-.39-.39-.65-.03-.12-.04-.2-.04-.29,0-.06.02-.11.03-.17.02-.11,0-.02.04-.1.03-.05.06-.09.09-.14.04-.06-.07.07-.01.01l.06-.06s.08-.07.11-.1c.08-.07,0,0-.03.02.04-.02.07-.05.11-.08.05-.03.1-.06.15-.09.11-.07-.13.06.02,0,.11-.05.23-.11.35-.15.43-.18,1.05-.3,1.32-.71.19-.29-.16-.45-.4-.46-.33-.02-.76.12-.95.4h-.01Z"/>
  <ellipse class="st0" cx="26.74" cy="29.81" rx="1.11" ry="1.13" transform="translate(-.84 .78) rotate(-1.64)"/>
  <path class="st0" d="M22.35,33.32s.07-.06.09-.07c-.12.07.1-.03.03,0-.01,0-.11.04-.11.05,0-.02.17-.06.08-.03-.03,0-.07.03-.1.04-.28.1-.56.21-.83.33-.51.23-1.15.56-1.38,1.11s.03,1.21.47,1.57c.58.47,1.45.55,2.16.53,1.41-.04,2.8-.45,4.07-1.03.12-.06.49-.26.19-.34s-.75.07-1.01.19c-.81.37-1.55.62-2.41.62-.59,0-1.25-.1-1.7-.51-.35-.33-.53-.95-.3-1.39.05-.09.11-.17.17-.23.04-.04.07-.07.11-.1.02-.02.05-.04.07-.05.11-.09-.08.05.04-.03.05-.03.1-.06.15-.09.03-.02.05-.03.08-.04,0,0-.1.05-.04.02.11-.05.23-.1.35-.15.11-.05-.04,0-.05.02.03,0,.06-.03.1-.04.06-.02.11-.04.17-.06.14-.05.29-.11.43-.17.2-.08.47-.19.59-.38.14-.2-.52-.12-.57-.11-.26.05-.69.14-.85.38h0v-.03Z"/>
  <ellipse class="st0" cx="26.9" cy="35.54" rx="1.11" ry="1.13" transform="translate(-1.01 .78) rotate(-1.64)"/>
  <path class="st0" d="M22.14,39.53s.07-.07.09-.08c-.09.06.14-.09.03,0-.01,0-.04.02-.05.02-.09.04.09-.04.08-.03-.04.03-.11.04-.16.06-.28.1-.56.21-.83.33-.51.23-1.15.56-1.38,1.11s.03,1.22.47,1.58c.58.47,1.44.55,2.16.53,1.41-.04,2.8-.44,4.07-1.03.13-.06.48-.27.18-.36s-.75.07-1.01.19c-.81.37-1.57.62-2.41.62-.59,0-1.24-.09-1.69-.51-.35-.33-.53-.95-.3-1.38.05-.1.1-.16.17-.23.11-.11.15-.14.22-.18.05-.03.1-.06.15-.09.09-.06-.08.04.04-.02.05-.03.11-.05.16-.08.07-.03.21-.09.06-.03.26-.1.52-.19.77-.3.21-.09.46-.19.59-.39.14-.21-.52-.14-.58-.13-.27.05-.69.14-.85.39h0l.02.02Z"/>
  <ellipse class="st0" cx="26.68" cy="41.74" rx="1.11" ry="1.13" transform="translate(-1.18 .78) rotate(-1.64)"/>
  <path class="st0" d="M22.3,45.24s.07-.06.09-.07c-.12.07.1-.03.03,0-.01,0-.11.04-.11.05,0-.02.17-.06.08-.03-.03,0-.07.03-.1.04-.28.1-.56.21-.83.33-.51.23-1.15.56-1.38,1.11s.03,1.21.47,1.57c.58.47,1.45.55,2.16.53,1.41-.04,2.8-.45,4.07-1.03.12-.06.49-.26.19-.34s-.75.07-1.01.19c-.81.37-1.55.62-2.41.62-.59,0-1.25-.1-1.7-.51-.35-.33-.53-.95-.3-1.39.05-.09.11-.17.17-.23.04-.04.07-.07.11-.1.02-.02.05-.04.07-.05.11-.09-.08.05.04-.03.05-.03.1-.06.15-.09.03-.02.05-.03.08-.04,0,0-.1.05-.04.02.11-.05.23-.1.35-.15.11-.05-.04,0-.05.02.03,0,.06-.03.1-.04.06-.02.11-.04.17-.06.14-.05.29-.11.43-.17.2-.08.47-.19.59-.38.14-.2-.52-.12-.57-.11-.26.05-.69.14-.85.38h0v-.03Z"/>
  <ellipse class="st0" cx="26.86" cy="47.45" rx="1.11" ry="1.13" transform="translate(-1.35 .79) rotate(-1.64)"/>
  <path class="st0" d="M22.15,51.75s.2-.17.15-.14c-.1.06.19-.08.05-.03-.09.03-.17.07-.26.11-.23.09-.47.17-.69.27-.56.25-1.19.61-1.46,1.19s-.07,1.33.41,1.75c.59.52,1.46.66,2.23.66,1.35,0,2.68-.38,3.9-.94.2-.09.6-.36.38-.61s-.72-.14-.96-.03c-.48.22-.96.4-1.46.53-.38.1-.79.17-1.17.18-.33,0-.63,0-.96-.09-.2-.05-.48-.17-.61-.29-.2-.18-.32-.39-.39-.65-.03-.12-.04-.2-.04-.29,0-.06.02-.11.03-.17.02-.11,0-.02.04-.1.03-.05.06-.09.09-.14.04-.06-.07.07-.01,0,.02-.02.04-.04.06-.06.04-.03.08-.07.11-.1.08-.07,0,0-.03.02.04-.02.07-.05.11-.08.05-.03.1-.06.15-.09.11-.07-.13.06.02,0,.11-.05.23-.11.35-.15.43-.18,1.05-.3,1.32-.71.19-.29-.16-.45-.4-.46-.33-.02-.76.12-.95.4h-.01Z"/>
  <ellipse class="st0" cx="26.66" cy="54.12" rx="1.11" ry="1.13" transform="translate(-1.54 .79) rotate(-1.64)"/>
  <path class="st0" d="M22.27,57.63s.07-.06.09-.07c-.12.07.1-.03.03,0-.01,0-.11.04-.11.05,0-.02.17-.06.08-.03-.03,0-.07.03-.1.04-.28.1-.56.21-.83.33-.51.23-1.15.56-1.38,1.11s.03,1.21.47,1.57c.58.47,1.45.55,2.16.53,1.41-.04,2.8-.45,4.07-1.03.12-.06.49-.26.19-.34s-.75.07-1.01.19c-.81.37-1.55.62-2.41.62-.59,0-1.25-.1-1.7-.51-.35-.33-.53-.95-.3-1.39.05-.09.11-.17.17-.23.04-.04.07-.07.11-.1.02-.02.05-.04.07-.05.11-.09-.08.05.04-.03.05-.03.1-.06.15-.09.03-.02.05-.03.08-.04,0,0-.1.05-.04.02.11-.05.23-.1.35-.15.11-.05-.04,0-.05.02.03,0,.06-.03.1-.04.06-.02.11-.04.17-.06.14-.05.29-.11.43-.17.2-.08.47-.19.59-.38.14-.2-.52-.12-.57-.11-.26.05-.69.14-.85.38h0v-.03Z"/>
  <ellipse class="st0" cx="26.83" cy="59.83" rx="1.11" ry="1.13" transform="translate(-1.7 .79) rotate(-1.64)"/>
  <path class="st0" d="M22.07,64.02s.07-.06.09-.07c-.12.07.1-.03.03,0-.01,0-.11.04-.11.05,0-.02.17-.06.08-.03-.03,0-.07.03-.1.04-.28.1-.56.21-.83.33-.51.23-1.15.56-1.38,1.11s.03,1.21.47,1.57c.58.47,1.45.55,2.16.53,1.41-.04,2.8-.45,4.07-1.03.12-.06.49-.26.19-.34s-.75.07-1.01.19c-.81.37-1.55.62-2.41.62-.59,0-1.25-.1-1.7-.51-.35-.33-.53-.95-.3-1.39.05-.09.11-.17.17-.23.04-.04.07-.07.11-.1.02-.02.05-.04.07-.05.11-.09-.08.05.04-.03.05-.03.1-.06.15-.09.03-.02.05-.03.08-.04,0,0-.1.05-.04.02.11-.05.23-.1.35-.15.11-.05-.04.01-.05.02.03-.01.06-.03.1-.04.06-.02.11-.04.17-.06.14-.05.29-.11.43-.17.2-.08.47-.19.59-.38.14-.2-.52-.12-.57-.11-.26.05-.69.14-.85.38h0v-.03Z"/>
  <ellipse class="st0" cx="26.61" cy="66.22" rx="1.11" ry="1.13" transform="translate(-1.88 .79) rotate(-1.64)"/>
  <path class="st0" d="M21.91,70.53s.2-.17.15-.14c-.1.06.19-.08.05-.03-.09.03-.17.07-.26.11-.23.09-.47.17-.69.27-.56.25-1.19.61-1.46,1.19s-.07,1.33.41,1.75c.59.52,1.46.66,2.23.66,1.35,0,2.68-.38,3.9-.94.2-.09.6-.36.38-.61s-.72-.14-.96-.03c-.48.22-.96.4-1.46.53-.38.1-.79.17-1.17.18-.33.01-.63,0-.96-.09-.2-.05-.48-.17-.61-.29-.2-.18-.32-.39-.39-.65-.03-.12-.04-.2-.04-.29,0-.06.02-.11.03-.17.02-.11,0-.02.04-.1.03-.05.06-.09.09-.14.04-.06-.07.07-.01.01.02-.02.04-.04.06-.06.04-.03.08-.07.11-.1.08-.07,0,0-.03.02.04-.02.07-.05.11-.08.05-.03.1-.06.15-.09.11-.07-.13.06.02,0,.11-.05.23-.11.35-.15.43-.18,1.05-.3,1.32-.71.19-.29-.16-.45-.4-.46-.33-.02-.76.12-.95.4h0Z"/>
  <ellipse class="st0" cx="26.43" cy="72.89" rx="1.11" ry="1.13" transform="translate(-2.08 .79) rotate(-1.64)"/>
  <path class="st0" d="M22.04,76.4s.07-.06.09-.07c-.12.07.1-.03.03-.01-.01,0-.11.04-.11.05,0-.02.17-.06.08-.03-.03.01-.07.03-.1.04-.28.1-.56.21-.83.33-.51.23-1.15.56-1.38,1.11s.03,1.21.47,1.57c.58.47,1.45.55,2.16.53,1.41-.04,2.8-.45,4.07-1.03.12-.06.49-.26.19-.34s-.75.07-1.01.19c-.81.37-1.55.62-2.41.62-.59,0-1.25-.1-1.7-.51-.35-.33-.53-.95-.3-1.39.05-.09.11-.17.17-.23.04-.04.07-.07.11-.1.02-.02.05-.04.07-.05.11-.09-.08.05.04-.03.05-.03.1-.06.15-.09.03-.02.05-.03.08-.04,0,0-.1.05-.04.02.11-.05.23-.1.35-.15.11-.05-.04.01-.05.02.03-.01.06-.03.1-.04.06-.02.11-.04.17-.06.14-.05.29-.11.43-.17.2-.08.47-.19.59-.38.14-.2-.52-.12-.57-.11-.26.05-.69.14-.85.38h0v-.03Z"/>
  <ellipse class="st0" cx="26.59" cy="78.61" rx="1.11" ry="1.13" transform="translate(-2.24 .79) rotate(-1.64)"/>
</svg>