<?xml version="1.0" encoding="UTF-8"?>
<svg id="_レイヤー_1" xmlns="http://www.w3.org/2000/svg" version="1.1" viewBox="0 0 100 100">
  <!-- Generator: Adobe Illustrator 30.0.0, SVG Export Plug-In . SVG Version: 2.1.1 Build 123)  -->
  <defs>
    <style>
      .st0, .st1 {
        fill: none;
      }

      .st2 {
        fill: #1c1917;
      }

      .st1 {
        stroke: #33302e;
        stroke-miterlimit: 10;
        stroke-width: .5px;
      }

      .st3 {
        fill: #fff;
      }
    </style>
  </defs>
  <g>
    <polygon class="st3" points="77.92 10.81 77.92 7.88 18.01 8.3 18.58 85.98 21.59 85.98 21.34 86.32 21.02 89.5 81.56 89.27 81.18 10.52 77.92 10.81"/>
    <g>
      <path class="st3" d="M66,8.85c.35,0,.27-.34.62-.34.35,0,.55.31.9.3.35,0,.35-.14.69-.14.35,0,.36.3.71.3.35,0,.43-.26.78-.27.35,0,.24-.61.58-.62.35,0,.4.66.75.66.35,0,.43-.19.78-.19.35,0,.23.46.57.46.35,0,.35-.44.7-.44.35,0,.35.05.69.05.35,0,.37.32.71.32.35,0,.39-.48.74-.49.35,0,.67.42.69.42v-2s-.46.21-.81.21c-.35,0-.35-.25-.69-.24-.35,0-.35.28-.69.28-.35,0-.34-.33-.69-.33-.35,0-.24.58-.58.58-.35,0-.46-.2-.8-.19-.35,0-.31-.15-.65-.15-.35,0-.38.24-.73.25-.35,0-.36-.42-.7-.42-.35,0-.34.44-.68.44-.35,0-.35-.14-.69-.14-.35,0-.35-.19-.69-.18-.35,0-.31.51-.66.51-.35,0-.38-.4-.73-.4-.35,0-.34.2-.69.2-.35,0-.43-.33-.69-.33v2c.27,0,.24-.26.59-.27.35,0,.35.15.69.15Z"/>
      <path class="st3" d="M54.82,8.93c.35,0,.27-.34.62-.34.35,0,.55.31.9.3.35,0,.35-.14.69-.14.35,0,.36.3.71.3.35,0,.43-.26.78-.27.35,0,.24-.61.58-.62.35,0,.4.66.75.66.35,0,.43-.19.78-.19.35,0,.23.46.57.46.35,0,.35-.44.7-.44.35,0,.35.05.69.05.35,0,.37.32.71.32.35,0,.39-.48.74-.49.35,0,.67.42.69.42v-2s-.46.21-.81.21c-.35,0-.35-.25-.69-.24-.35,0-.35.28-.69.28-.35,0-.34-.33-.69-.33-.35,0-.24.58-.58.58-.35,0-.46-.2-.8-.19-.35,0-.31-.15-.65-.15-.35,0-.38.24-.73.25-.35,0-.36-.42-.7-.42-.35,0-.34.44-.68.44-.35,0-.35-.14-.69-.14-.35,0-.35-.19-.69-.18-.35,0-.31.51-.66.51-.35,0-.38-.4-.73-.4-.35,0-.34.2-.69.2-.35,0-.43-.33-.69-.33v2c.27,0,.24-.26.59-.27.35,0,.35.15.69.15Z"/>
      <path class="st3" d="M43.64,9.01c.35,0,.27-.34.62-.34.35,0,.55.31.9.3.35,0,.35-.14.69-.14.35,0,.36.3.71.3.35,0,.43-.26.78-.27.35,0,.24-.61.58-.62.35,0,.4.66.75.66.35,0,.43-.19.78-.19.35,0,.23.46.57.46.35,0,.35-.44.7-.44.35,0,.35.05.69.05.35,0,.37.32.71.32.35,0,.39-.48.74-.49.35,0,.67.42.69.42v-2s-.46.21-.81.21c-.35,0-.35-.25-.69-.24-.35,0-.35.28-.69.28-.35,0-.34-.33-.69-.33-.35,0-.24.58-.58.58-.35,0-.46-.2-.8-.19-.35,0-.31-.15-.65-.15-.35,0-.38.24-.73.25-.35,0-.36-.42-.7-.42-.35,0-.34.44-.68.44-.35,0-.35-.14-.69-.14-.35,0-.35-.19-.69-.18-.35,0-.31.51-.66.51-.35,0-.38-.4-.73-.4-.35,0-.34.2-.69.2-.35,0-.43-.33-.69-.33v2c.27,0,.24-.26.59-.27.35,0,.35.15.69.15Z"/>
      <path class="st3" d="M32.47,9.09c.35,0,.27-.34.62-.34.35,0,.55.31.9.3.35,0,.35-.14.69-.14.35,0,.36.3.71.3.35,0,.43-.26.78-.27.35,0,.24-.61.58-.62.35,0,.4.66.75.66.35,0,.43-.19.78-.19.35,0,.23.46.57.46.35,0,.35-.44.7-.44.35,0,.35.05.69.05.35,0,.37.32.71.32.35,0,.39-.48.74-.49.35,0,.67.42.69.42v-2s-.46.21-.81.21c-.35,0-.35-.25-.69-.24-.35,0-.35.28-.69.28-.35,0-.34-.33-.69-.33-.35,0-.24.58-.58.58-.35,0-.46-.2-.8-.19-.35,0-.31-.15-.65-.15-.35,0-.38.24-.73.25-.35,0-.36-.42-.7-.42-.35,0-.34.44-.68.44-.35,0-.35-.14-.69-.14-.35,0-.35-.19-.69-.18-.35,0-.31.51-.66.51-.35,0-.38-.4-.73-.4-.35,0-.34.2-.69.2-.35,0-.43-.33-.69-.33v2c.27,0,.24-.26.59-.27.35,0,.35.15.69.15Z"/>
      <path class="st3" d="M21.29,9.17c.35,0,.27-.34.62-.34.35,0,.55.31.9.3.35,0,.35-.14.69-.14.35,0,.36.3.71.3.35,0,.43-.26.78-.27.35,0,.24-.61.58-.62.35,0,.4.66.75.66.35,0,.43-.19.78-.19.35,0,.23.46.57.46.35,0,.35-.44.7-.44.35,0,.35.05.69.05.35,0,.37.32.71.32.35,0,.39-.48.74-.49.35,0,.67.42.69.42v-2s-.46.21-.81.21c-.35,0-.35-.25-.69-.24-.35,0-.35.28-.69.28-.35,0-.34-.33-.69-.33-.35,0-.24.58-.58.58-.35,0-.46-.2-.8-.19-.35,0-.31-.15-.65-.15-.35,0-.38.24-.73.25-.35,0-.36-.42-.7-.42-.35,0-.34.44-.68.44-.35,0-.35-.14-.69-.14-.35,0-.35-.19-.69-.18-.35,0-.31.51-.66.51-.35,0-.38-.4-.73-.4-.35,0-.34.2-.69.2-.35,0-.43-.33-.69-.33v2c.27,0,.24-.26.59-.27.35,0,.35.15.69.15Z"/>
      <path class="st3" d="M19,21.18c0-.38-.34-.3-.34-.68,0-.38.31-.61.3-.99,0-.38-.14-.38-.14-.76,0-.38.3-.39.3-.77,0-.38-.26-.47-.27-.85,0-.38-.61-.26-.62-.64,0-.38.66-.44.66-.82,0-.38-.19-.47-.19-.85,0-.38.46-.25.46-.63,0-.38-.44-.38-.44-.77,0-.38.05-.38.05-.76,0-.38.32-.4.32-.79,0-.38-.49-.43-.49-.81,0-.38.42-.74.42-.76h-2s.21.51.21.89c0,.38-.25.38-.24.76,0,.38.28.38.28.76,0,.38-.33.38-.33.76,0,.38.58.26.58.64,0,.38-.2.5-.19.88,0,.38-.15.34-.15.72,0,.38.24.42.25.8,0,.38-.42.39-.42.77,0,.38.44.37.44.75,0,.38-.14.38-.14.76,0,.38-.19.38-.18.76,0,.38.51.34.51.72,0,.38-.4.42-.4.8,0,.38.2.38.2.76,0,.38-.33.48-.33.76h2c0-.3-.26-.26-.27-.64,0-.38.15-.38.15-.76Z"/>
      <path class="st3" d="M19.09,33.47c0-.38-.34-.3-.34-.68,0-.38.31-.61.3-.99,0-.38-.14-.38-.14-.76,0-.38.3-.39.3-.77,0-.38-.26-.47-.27-.85,0-.38-.61-.26-.62-.64,0-.38.66-.44.66-.82,0-.38-.19-.47-.19-.85,0-.38.46-.25.46-.63,0-.38-.44-.38-.44-.77,0-.38.05-.38.05-.76,0-.38.32-.4.32-.79,0-.38-.49-.43-.49-.81,0-.38.42-.74.42-.76h-2s.21.51.21.89c0,.38-.25.38-.24.76,0,.38.28.38.28.76,0,.38-.33.38-.33.76,0,.38.58.26.58.64,0,.38-.2.5-.19.88,0,.38-.15.34-.15.72,0,.38.24.42.25.8,0,.38-.42.39-.42.77,0,.38.44.37.44.75,0,.38-.14.38-.14.76,0,.38-.19.38-.18.76,0,.38.51.34.51.72,0,.38-.4.42-.4.8,0,.38.2.38.2.76,0,.38-.33.48-.33.76h2c0-.3-.26-.26-.27-.64,0-.38.15-.38.15-.76Z"/>
      <path class="st3" d="M19.18,45.75c0-.38-.34-.3-.34-.68,0-.38.31-.61.3-.99,0-.38-.14-.38-.14-.76,0-.38.3-.39.3-.77,0-.38-.26-.47-.27-.85,0-.38-.61-.26-.62-.64,0-.38.66-.44.66-.82,0-.38-.19-.47-.19-.85,0-.38.46-.25.46-.63,0-.38-.44-.38-.44-.77,0-.38.05-.38.05-.76,0-.38.32-.4.32-.79,0-.38-.49-.43-.49-.81,0-.38.42-.74.42-.76h-2s.21.51.21.89c0,.38-.25.38-.24.76,0,.38.28.38.28.76,0,.38-.33.38-.33.76,0,.38.58.26.58.64,0,.38-.2.5-.19.88,0,.38-.15.34-.15.72,0,.38.24.42.25.8,0,.38-.42.39-.42.77,0,.38.44.37.44.75,0,.38-.14.38-.14.76,0,.38-.19.38-.18.76,0,.38.51.34.51.72,0,.38-.4.42-.4.8,0,.38.2.38.2.76,0,.38-.33.48-.33.76h2c0-.3-.26-.26-.27-.64,0-.38.15-.38.15-.76Z"/>
      <path class="st3" d="M19.27,58.03c0-.38-.34-.3-.34-.68,0-.38.31-.61.3-.99,0-.38-.14-.38-.14-.76,0-.38.3-.39.3-.77,0-.38-.26-.47-.27-.85,0-.38-.61-.26-.62-.64,0-.38.66-.44.66-.82,0-.38-.19-.47-.19-.85,0-.38.46-.25.46-.63,0-.38-.44-.38-.44-.77,0-.38.05-.38.05-.76,0-.38.32-.4.32-.79,0-.38-.49-.43-.49-.81,0-.38.42-.74.42-.76h-2s.21.51.21.89c0,.38-.25.38-.24.76,0,.38.28.38.28.76,0,.38-.33.38-.33.76,0,.38.58.26.58.64,0,.38-.2.5-.19.88,0,.38-.15.34-.15.72,0,.38.24.42.25.8,0,.38-.42.39-.42.77,0,.38.44.37.44.75,0,.38-.14.38-.14.76,0,.38-.19.38-.18.76,0,.38.51.34.51.72,0,.38-.4.42-.4.8,0,.38.2.38.2.76,0,.38-.33.48-.33.76h2c0-.3-.26-.26-.27-.64,0-.38.15-.38.15-.76Z"/>
      <path class="st3" d="M19.36,70.32c0-.38-.34-.3-.34-.68,0-.38.31-.61.3-.99,0-.38-.14-.38-.14-.76,0-.38.3-.39.3-.77,0-.38-.26-.47-.27-.85,0-.38-.61-.26-.62-.64,0-.38.66-.44.66-.82,0-.38-.19-.47-.19-.85,0-.38.46-.25.46-.63,0-.38-.44-.38-.44-.77,0-.38.05-.38.05-.76,0-.38.32-.4.32-.79,0-.38-.49-.43-.49-.81,0-.38.42-.74.42-.76h-2s.21.51.21.89c0,.38-.25.38-.24.76,0,.38.28.38.28.76,0,.38-.33.38-.33.76,0,.38.58.26.58.64,0,.38-.2.5-.19.88,0,.38-.15.34-.15.72,0,.38.24.42.25.8,0,.38-.42.39-.42.77,0,.38.44.37.44.75,0,.38-.14.38-.14.76,0,.38-.19.38-.18.76,0,.38.51.34.51.72,0,.38-.4.42-.4.8,0,.38.2.38.2.76,0,.38-.33.48-.33.76h2c0-.3-.26-.26-.27-.64,0-.38.15-.38.15-.76Z"/>
      <path class="st3" d="M19.45,82.6c0-.38-.34-.3-.34-.68,0-.38.31-.61.3-.99,0-.38-.14-.38-.14-.76,0-.38.3-.39.3-.77,0-.38-.26-.47-.27-.85,0-.38-.61-.26-.62-.64,0-.38.66-.44.66-.82,0-.38-.19-.47-.19-.85,0-.38.46-.25.46-.63,0-.38-.44-.38-.44-.77,0-.38.05-.38.05-.76,0-.38.32-.4.32-.79,0-.38-.49-.43-.49-.81,0-.38.42-.74.42-.76h-2s.21.51.21.89c0,.38-.25.38-.24.76,0,.38.28.38.28.76,0,.38-.33.38-.33.76,0,.38.58.26.58.64,0,.38-.2.5-.19.88,0,.38-.15.34-.15.72,0,.38.24.42.25.8,0,.38-.42.39-.42.77,0,.38.44.37.44.75,0,.38-.14.38-.14.76,0,.38-.19.38-.18.76,0,.38.51.34.51.72,0,.38-.4.42-.4.8,0,.38.2.38.2.76,0,.38-.33.48-.33.76h2c0-.3-.26-.26-.27-.64,0-.38.15-.38.15-.76Z"/>
      <path class="st3" d="M33.23,88.57c-.35,0-.27.34-.62.34-.35,0-.56-.31-.91-.31-.35,0-.35.14-.7.14-.35,0-.36-.31-.71-.3-.35,0-.43.26-.78.26-.35,0-.24.61-.59.61-.35,0-.4-.67-.75-.66-.35,0-.43.19-.78.19-.35,0-.23-.46-.58-.46-.35,0-.35.44-.7.44-.35,0-.35-.05-.7-.05-.35,0-.37-.32-.72-.32-.35,0-.4.48-.75.48-.35,0-.68-.43-.7-.43v2s.46-.21.81-.21c.35,0,.35.25.7.25.35,0,.35-.28.7-.28.35,0,.34.33.69.33.35,0,.24-.58.59-.58.35,0,.46.2.81.2.35,0,.31.15.66.15.35,0,.39-.24.74-.24.35,0,.36.43.71.42.35,0,.34-.44.69-.44.35,0,.35.14.7.14.35,0,.35.19.7.19.35,0,.31-.51.66-.51.35,0,.38.41.73.4.35,0,.35-.2.7-.2.35,0,.44.34.7.33v-2c-.27,0-.23.26-.59.26-.35,0-.35-.15-.7-.15Z"/>
      <path class="st3" d="M44.49,88.52c-.35,0-.27.34-.62.34-.35,0-.56-.31-.91-.31-.35,0-.35.14-.7.14-.35,0-.36-.31-.71-.3-.35,0-.43.26-.78.26-.35,0-.24.61-.59.61-.35,0-.4-.67-.75-.66-.35,0-.43.19-.78.19-.35,0-.23-.46-.58-.46-.35,0-.35.44-.7.44-.35,0-.35-.05-.7-.05-.35,0-.37-.32-.72-.32-.35,0-.4.48-.75.48-.35,0-.68-.43-.7-.43v2s.46-.21.81-.21c.35,0,.35.25.7.25.35,0,.35-.28.7-.28.35,0,.34.33.69.33.35,0,.24-.58.59-.58.35,0,.46.2.81.2.35,0,.31.15.66.15.35,0,.39-.24.74-.24.35,0,.36.43.71.42.35,0,.34-.44.69-.44.35,0,.35.14.7.14.35,0,.35.19.7.19.35,0,.31-.51.66-.51.35,0,.38.41.73.4.35,0,.35-.2.7-.2.35,0,.44.34.7.33v-2c-.27,0-.23.26-.59.26-.35,0-.35-.15-.7-.15Z"/>
      <path class="st3" d="M55.75,88.48c-.35,0-.27.34-.62.34-.35,0-.56-.31-.91-.31-.35,0-.35.14-.7.14-.35,0-.36-.31-.71-.3-.35,0-.43.26-.78.26-.35,0-.24.61-.59.61-.35,0-.4-.67-.75-.66-.35,0-.43.19-.78.19-.35,0-.23-.46-.58-.46-.35,0-.35.44-.7.44-.35,0-.35-.05-.7-.05-.35,0-.37-.32-.72-.32-.35,0-.4.48-.75.48-.35,0-.68-.43-.7-.43v2s.46-.21.81-.21c.35,0,.35.25.7.25.35,0,.35-.28.7-.28.35,0,.34.33.69.33.35,0,.24-.58.59-.58.35,0,.46.2.81.2.35,0,.31.15.66.15.35,0,.39-.24.74-.24.35,0,.36.43.71.42.35,0,.34-.44.69-.44.35,0,.35.14.7.14.35,0,.35.19.7.19.35,0,.31-.51.66-.51.35,0,.38.41.73.4.35,0,.35-.2.7-.2.35,0,.44.34.7.33v-2c-.27,0-.23.26-.59.26-.35,0-.35-.15-.7-.15Z"/>
      <path class="st3" d="M67.02,88.44c-.35,0-.27.34-.62.34-.35,0-.56-.31-.91-.31-.35,0-.35.14-.7.14-.35,0-.36-.31-.71-.3-.35,0-.43.26-.78.26-.35,0-.24.61-.59.61-.35,0-.4-.67-.75-.66-.35,0-.43.19-.78.19-.35,0-.23-.46-.58-.46-.35,0-.35.44-.7.44-.35,0-.35-.05-.7-.05-.35,0-.37-.32-.72-.32-.35,0-.4.48-.75.48-.35,0-.68-.43-.7-.43v2s.46-.21.81-.21c.35,0,.35.25.7.25.35,0,.35-.28.7-.28.35,0,.34.33.69.33.35,0,.24-.58.59-.58.35,0,.46.2.81.2.35,0,.31.15.66.15.35,0,.39-.24.74-.24.35,0,.36.43.71.42.35,0,.34-.44.69-.44.35,0,.35.14.7.14.35,0,.35.19.7.19.35,0,.31-.51.66-.51.35,0,.38.41.73.4.35,0,.35-.2.7-.2.35,0,.44.34.7.33v-2c-.27,0-.23.26-.59.26-.35,0-.35-.15-.7-.15Z"/>
      <path class="st3" d="M78.28,88.39c-.35,0-.27.34-.62.34-.35,0-.56-.31-.91-.31-.35,0-.35.14-.7.14-.35,0-.36-.31-.71-.3-.35,0-.43.26-.78.26-.35,0-.24.61-.59.61-.35,0-.4-.67-.75-.66-.35,0-.43.19-.78.19-.35,0-.23-.46-.58-.46-.35,0-.35.44-.7.44-.35,0-.35-.05-.7-.05-.35,0-.37-.32-.72-.32-.35,0-.4.48-.75.48-.35,0-.68-.43-.7-.43v2s.46-.21.81-.21c.35,0,.35.25.7.25.35,0,.35-.28.7-.28.35,0,.34.33.69.33.35,0,.24-.58.59-.58.35,0,.46.2.81.2.35,0,.31.15.66.15.35,0,.39-.24.74-.24.35,0,.36.43.71.42.35,0,.34-.44.69-.44.35,0,.35.14.7.14.35,0,.35.19.7.19.35,0,.31-.51.66-.51.35,0,.38.41.73.4.35,0,.35-.2.7-.2.35,0,.44.34.7.33v-2c-.27,0-.23.26-.59.26-.35,0-.35-.15-.7-.15Z"/>
      <path class="st3" d="M80.61,76.25c0,.39.34.3.34.69,0,.39-.31.61-.3,1,0,.39.14.39.14.77,0,.39-.31.4-.3.78,0,.39.26.48.26.86,0,.39.61.26.62.65,0,.39-.67.44-.66.83,0,.39.19.48.19.86,0,.39-.46.25-.46.64,0,.39.44.39.44.78,0,.39-.05.39-.05.77,0,.39-.32.41-.32.79,0,.39.48.44.49.82,0,.39-.43.75-.43.77h2s-.21-.51-.21-.89c0-.38.25-.38.25-.77,0-.39-.28-.39-.28-.77,0-.38.33-.38.33-.76,0-.38-.58-.27-.58-.65,0-.38.2-.51.2-.89,0-.38.15-.34.15-.72,0-.39-.24-.43-.25-.81,0-.39.42-.4.42-.78,0-.38-.44-.37-.44-.76,0-.38.14-.39.14-.77,0-.39.19-.39.19-.77,0-.39-.51-.35-.51-.73,0-.39.41-.42.4-.81,0-.38-.2-.38-.2-.77,0-.38.34-.48.33-.77h-2c0,.3.26.26.27.65,0,.39-.15.38-.15.77Z"/>
      <path class="st3" d="M80.55,63.82c0,.39.34.3.34.69,0,.39-.31.61-.3,1,0,.39.14.39.14.77,0,.39-.31.4-.3.78,0,.39.26.48.26.86,0,.39.61.26.62.65,0,.39-.67.44-.66.83,0,.39.19.48.19.86,0,.39-.46.25-.46.64,0,.39.44.39.44.78,0,.39-.05.39-.05.77,0,.39-.32.41-.32.79,0,.39.48.44.49.82,0,.39-.43.75-.43.77h2s-.21-.51-.21-.89c0-.38.25-.38.25-.77,0-.39-.28-.39-.28-.77,0-.38.33-.38.33-.76,0-.38-.58-.27-.58-.65,0-.38.2-.51.2-.89,0-.38.15-.34.15-.72,0-.39-.24-.43-.25-.81,0-.39.42-.4.42-.78,0-.38-.44-.37-.44-.76,0-.38.14-.39.14-.77,0-.39.19-.39.19-.77,0-.39-.51-.35-.51-.73,0-.39.41-.42.4-.81,0-.38-.2-.38-.2-.77,0-.38.34-.48.33-.77h-2c0,.3.26.26.27.65,0,.39-.15.38-.15.77Z"/>
      <path class="st3" d="M80.49,51.4c0,.39.34.3.34.69,0,.39-.31.61-.3,1,0,.39.14.39.14.77,0,.39-.31.4-.3.78,0,.39.26.48.26.86,0,.39.61.26.62.65,0,.39-.67.44-.66.83,0,.39.19.48.19.86,0,.39-.46.25-.46.64,0,.39.44.39.44.78,0,.39-.05.39-.05.77,0,.39-.32.41-.32.79,0,.39.48.44.49.82,0,.39-.43.75-.43.77h2s-.21-.51-.21-.89c0-.38.25-.38.25-.77,0-.39-.28-.39-.28-.77,0-.38.33-.38.33-.76,0-.38-.58-.27-.58-.65,0-.38.2-.51.2-.89,0-.38.15-.34.15-.72,0-.39-.24-.43-.25-.81,0-.39.42-.4.42-.78,0-.38-.44-.37-.44-.76,0-.38.14-.39.14-.77,0-.39.19-.39.19-.77,0-.39-.51-.35-.51-.73,0-.39.41-.42.4-.81,0-.38-.2-.38-.2-.77,0-.38.34-.48.33-.77h-2c0,.3.26.26.27.65,0,.39-.15.38-.15.77Z"/>
      <path class="st3" d="M80.42,38.97c0,.39.34.3.34.69,0,.39-.31.61-.3,1,0,.39.14.39.14.77,0,.39-.31.4-.3.78,0,.39.26.48.26.86,0,.39.61.26.62.65,0,.39-.67.44-.66.83,0,.39.19.48.19.86,0,.39-.46.25-.46.64,0,.39.44.39.44.78,0,.39-.05.39-.05.77,0,.39-.32.41-.32.79,0,.39.48.44.49.82,0,.39-.43.75-.43.77h2s-.21-.51-.21-.89c0-.38.25-.38.25-.77,0-.39-.28-.39-.28-.77,0-.38.33-.38.33-.76,0-.38-.58-.27-.58-.65,0-.38.2-.51.2-.89,0-.38.15-.34.15-.72,0-.39-.24-.43-.25-.81,0-.39.42-.4.42-.78,0-.38-.44-.37-.44-.76,0-.38.14-.39.14-.77,0-.39.19-.39.19-.77,0-.39-.51-.35-.51-.73,0-.39.41-.42.4-.81,0-.38-.2-.38-.2-.77,0-.38.34-.48.33-.77h-2c0,.3.26.26.27.65,0,.39-.15.38-.15.77Z"/>
      <path class="st3" d="M80.36,26.54c0,.39.34.3.34.69,0,.39-.31.61-.3,1,0,.39.14.39.14.77,0,.39-.31.4-.3.78,0,.39.26.48.26.86,0,.39.61.26.62.65,0,.39-.67.44-.66.83,0,.39.19.48.19.86,0,.39-.46.25-.46.64,0,.39.44.39.44.78,0,.39-.05.39-.05.77,0,.39-.32.41-.32.79,0,.39.48.44.49.82,0,.39-.43.75-.43.77h2s-.21-.51-.21-.89c0-.38.25-.38.25-.77,0-.39-.28-.39-.28-.77,0-.38.33-.38.33-.76,0-.38-.58-.27-.58-.65,0-.38.2-.51.2-.89,0-.38.15-.34.15-.72,0-.39-.24-.43-.25-.81,0-.39.42-.4.42-.78,0-.38-.44-.37-.44-.76,0-.38.14-.39.14-.77,0-.39.19-.39.19-.77,0-.39-.51-.35-.51-.73,0-.39.41-.42.4-.81,0-.38-.2-.38-.2-.77,0-.38.34-.48.33-.77h-2c0,.3.26.26.27.65,0,.39-.15.38-.15.77Z"/>
      <path class="st3" d="M80.3,14.11c0,.39.34.3.34.69,0,.39-.31.61-.3,1,0,.39.14.39.14.77,0,.39-.31.4-.3.78,0,.39.26.48.26.86,0,.39.61.26.62.65,0,.39-.67.44-.66.83,0,.39.19.48.19.86,0,.39-.46.25-.46.64,0,.39.44.39.44.78,0,.39-.05.39-.05.77,0,.39-.32.41-.32.79,0,.39.48.44.49.82,0,.39-.43.75-.43.77h2s-.21-.51-.21-.89c0-.38.25-.38.25-.77,0-.39-.28-.39-.28-.77,0-.38.33-.38.33-.76,0-.38-.58-.27-.58-.65,0-.38.2-.51.2-.89,0-.38.15-.34.15-.72,0-.39-.24-.43-.25-.81,0-.39.42-.4.42-.78,0-.38-.44-.37-.44-.76,0-.38.14-.39.14-.77,0-.39.19-.39.19-.77,0-.39-.51-.35-.51-.73,0-.39.41-.42.4-.81,0-.38-.2-.38-.2-.77,0-.38.34-.48.33-.77h-2c0,.3.26.26.27.65,0,.39-.15.38-.15.77Z"/>
      <g>
        <path class="st3" d="M17.16,9.86v-.06s0-.06,0-.06v-.13s-.01-.12-.01-.12v-.06s.02-.06.02-.06v-.03s.03-.02.03-.02l.02-.02.02-.02.05-.04.05-.04.11-.07.02-.02.02-.02.02-.02.02-.03v-.03s.02-.03.02-.03v-.03s0-.03,0-.03c0-.04,0-.09,0-.14v-.07s0-.07,0-.07v-.03s.01-.03.01-.03v-.03s.03-.03.03-.03l.03-.04.04-.04.08-.06.08-.06.04-.03.04-.04.02-.02.03-.02h.03s.03-.02.03-.02h.07s.07-.02.07-.02c.05,0,.1-.01.15-.02h.03s.03-.02.03-.02h.03s.03-.03.03-.03l.02-.02.02-.02.02-.02.02-.03.05-.11.03-.06.03-.05.02-.02.02-.02.02-.02.02-.02s.07-.03.12-.05l.13-.05c.09-.03.18-.06.25-.08h.03s.03-.01.03-.01h.02s.02,0,.02,0h.05s.04.03.04.03l.04.02.05.02h.02s.03,0,.03,0h.03s.03,0,.03,0h.03s.03-.02.03-.02l.03-.02.03-.02s.07-.07.11-.1l.06-.05.06-.05.03-.02h.03s.03-.02.03-.02h.03s0,1,0,1v.5s0,.5,0,.5h-.03s-.02,0-.02,0h-.04s-.03-.02-.03-.02h-.02s-.02,0-.02,0h-.02s-.02,0-.02,0h-.02s-.02-.01-.02-.01c-.02-.01-.05-.03-.08-.05l-.05-.02h-.03s-.03-.01-.03-.01h-.03s-.03,0-.03,0h-.03s-.04.02-.04.02c-.02,0-.06.02-.1.04-.04.01-.08.03-.13.04-.04.02-.09.03-.13.05l-.05.03s-.03.02-.04.03l-.03.03-.02.03-.02.03v.03s-.02.03-.02.03v.03s-.02.06-.02.06c0,.04,0,.07,0,.1v.04s0,.02,0,.02v.02s-.01.02-.01.02v.02s0,.02,0,.02v.02s.03.04.03.04l.03.04.03.04.02.04v.02s.02.02.02.02v.02s0,.02,0,.02c0,.01,0,.03,0,.04v.05s0,.08.01.11h-.5s-.5,0-.5,0h-1s0-.02,0-.02v-.02s.02-.05.02-.05c.01-.04.03-.07.04-.11l.04-.12.02-.06v-.06Z"/>
        <rect class="st0" x="16.01" y="6.3" width="4" height="4" transform="translate(-.06 .13) rotate(-.41)"/>
      </g>
      <g>
        <path class="st3" d="M20.12,86.85h-.06s-.06,0-.06,0h-.12s-.12.01-.12.01h-.06s-.06-.02-.06-.02h-.03s-.02-.03-.02-.03l-.02-.02-.02-.02-.04-.05-.04-.05-.07-.11-.02-.02-.02-.02-.02-.02-.03-.02h-.03s-.03-.02-.03-.02h-.03s-.03,0-.03,0c-.04,0-.09,0-.14,0h-.07s-.07,0-.07,0h-.03s-.03-.01-.03-.01h-.03s-.03-.03-.03-.03l-.04-.04-.04-.04-.06-.08-.06-.08-.03-.04-.04-.04-.02-.02-.02-.03v-.03s-.02-.03-.02-.03v-.07s-.02-.07-.02-.07c0-.05-.01-.1-.02-.14v-.03s-.02-.03-.02-.03v-.03s-.03-.02-.03-.02l-.02-.02-.02-.02-.02-.02-.03-.02-.11-.05-.06-.03-.05-.03-.02-.02-.02-.02-.02-.02-.02-.02s-.03-.07-.05-.11l-.05-.13c-.03-.09-.06-.17-.08-.25v-.03s-.01-.03-.01-.03v-.02s0-.02,0-.02v-.05s.03-.04.03-.04l.02-.04.02-.05v-.02s0-.03,0-.03v-.03s0-.03,0-.03v-.03s-.02-.03-.02-.03l-.02-.03-.02-.03s-.07-.07-.1-.11l-.05-.06-.05-.06-.02-.03v-.03s-.02-.03-.02-.03v-.03s1,0,1,0h.5s.5,0,.5,0v.03s0,.02,0,.02v.04s-.02.03-.02.03v.02s0,.02,0,.02v.02s0,.02,0,.02v.02s-.01.02-.01.02c-.01.02-.03.05-.05.08l-.02.05v.03s-.01.03-.01.03v.03s0,.03,0,.03v.03s.02.04.02.04c0,.02.02.06.04.1.01.04.03.08.04.13.02.04.03.09.05.13l.03.05s.02.03.03.04l.03.03.03.02.03.02h.03s.03.03.03.03h.03s.05.02.05.02c.04,0,.07,0,.1,0h.04s.02,0,.02,0h.02s.02.01.02.01h.02s.02,0,.02,0h.02s.04-.02.04-.02l.04-.03.04-.03.04-.02h.02s.02-.02.02-.02h.02s.02,0,.02,0c.01,0,.03,0,.04,0h.05s.08,0,.11,0v.5s0,.5,0,.5v1s-.02,0-.02,0h-.02s-.05-.02-.05-.02c-.03-.01-.07-.03-.11-.04l-.12-.05-.06-.02h-.06Z"/>
        <polygon class="st0" points="20.57 83.98 16.57 84.01 16.59 87.98 20.56 87.98 20.57 83.98"/>
      </g>
      <g>
        <path class="st3" d="M21.93,89.07v-.12s.02-.12.02-.12l.03-.25.03-.25v-.12s0-.12,0-.12v-.05s-.02-.05-.02-.05v-.05s-.03-.04-.03-.04l-.04-.08-.05-.08-.05-.08-.04-.08-.02-.04-.02-.04v-.05s-.02-.05-.02-.05v-.05s0-.06,0-.06v-.13c.02-.09.03-.18.04-.27l.02-.14v-.13s.01-.12.01-.12v-.06s-.02-.05-.02-.05v-.02s0-.01,0-.01h0s0,0,0,0c-.06.14-.05.14-.08.22h0s0,0,0,0h0s0,0,0,0v-.04s.02-.08.02-.08v-.15s.01-.15.01-.15v-.08s.02-.09.02-.09v-.04s0-.02,0-.02h0s0-.02,0-.02h0s-.08-.02-.12-.02h-.14s-.15-.02-.15-.02c-.1,0-.2-.01-.29-.02-.04,0-.09-.01-.13-.02h-.06s-.05-.03-.05-.03l-.04-.02-.04-.02-.04-.02-.03-.03-.06-.06-.05-.06-.05-.06-.03-.03-.03-.03-.03-.02-.04-.02-.04-.02h-.05c-.07-.03-.15-.05-.23-.07-.08-.02-.17-.03-.26-.05-.17-.03-.35-.06-.5-.08h-.05s-.05,0-.05,0h-.1s-.09.02-.09.02l-.09.02-.18.04h-.1s-.05.01-.05.01h-.06s-.06-.01-.06-.01h-.06s-.05-.03-.05-.03l-.05-.02c-.07-.03-.14-.07-.22-.1l-.11-.05-.12-.05-.06-.02h-.06s-.06-.02-.06-.02h-.07s0,1,0,1v.5s0,.5,0,.5c.04,0,.07,0,.1,0,.03,0,.05,0,.08,0h.07s.03,0,.03,0h.04s.04,0,.04,0h.04s.07-.02.07-.02c.05-.01.1-.03.16-.05l.09-.02h.05s.05-.01.05-.01h.06s.06,0,.06,0h.07s.07.02.07.02c.1.02.27.05.45.08.09.02.17.03.25.05h.05s.03.02.03.02h0s0,0,0,0h0s.63.85.63.85h0s.02.03.02.03v.03s.04.06.04.06l.02.06v.06s.02.06.02.06v.11s0,.11,0,.11c0,.07-.01.14-.02.2,0,.03,0,.06,0,.09v.04s0,.04,0,.04v.04s0,.04,0,.04v.04s-.02.04-.02.04l-.03.07-.03.07s-.05.1-.07.15l-.02.07v.04s0,.04,0,.04c0,.02,0,.05,0,.08,0,.03,0,.07-.01.1,0,.07-.02.15-.03.22l.5.05.5.05.99.1v-.1s0-.1,0-.1c0-.07-.01-.15-.02-.22l-.02-.23v-.12s0-.11,0-.11Z"/>
        <path class="st0" d="M17.57,88s.03-.01.04-.02h0s0,0,0,0h0s0-.01,0-.01v-.02s0-.03,0-.03v-.06s0-.12,0-.12v-.25s0-.5,0-.5v-1s0-2,0-2h7.95s-2.37,3.19-2.37,3.19l-.15.2-.07.1-.02.02h0s0,0,0,0c.26-.66.25-.64.38-.99h0s0,.02,0,.02v.06s-.06.49-.06.49l-.1.99-.2,1.98-1.99-.2-.99-.1-.5-.05-.25-.03h-.12s-.06-.02-.06-.02h-.03s-.02,0-.02,0h0s0,0,0,0h0s0,0,0,0c-.95-1.1-.92-1.06-1.42-1.65Z"/>
      </g>
      <g>
        <path class="st3" d="M22.75,90.36h-.07s-.07,0-.07,0h-.14s-.14.01-.14.01h-.07s-.06-.02-.06-.02h-.03s-.03-.03-.03-.03l-.03-.02-.02-.02-.04-.05-.04-.05-.04-.05-.04-.05-.02-.02-.02-.02-.03-.02-.03-.02h-.03s-.03-.02-.03-.02h-.03s-.04,0-.04,0c-.05,0-.1,0-.15,0h-.08s-.07,0-.07,0h-.03s-.03-.01-.03-.01h-.03s-.03-.03-.03-.03l-.05-.04-.04-.04-.07-.08-.07-.08-.04-.04-.04-.04-.02-.02h0s0-.02,0-.02h0s0-.04,0-.04v-.04s-.01-.08-.01-.08v-.08c0-.06,0-.11,0-.16v-.07s-.02-.03-.02-.03v-.03s-.03-.03-.03-.03l-.02-.02-.02-.02-.02-.02-.05-.04-.05-.03-.05-.03-.05-.04-.02-.02-.02-.02-.02-.03v-.03s-.04-.09-.05-.13l-.03-.15c-.02-.1-.04-.2-.05-.28v-.03s0-.03,0-.03v-.03s0-.03,0-.03l.02-.05.02-.05.02-.05.02-.05v-.03s.02-.03.02-.03v-.03s0-.03,0-.03v-.03s-.01-.03-.01-.03v-.03s-.03-.03-.03-.03l-.04-.06-.05-.07-.05-.07-.04-.07v-.04s-.03-.04-.03-.04v-.04s0-.04,0-.04l.99.1.5.05.5.05v.03s-.01.03-.01.03v.04s-.03.04-.03.04v.02s0,.02,0,.02v.02s0,.02,0,.02v.02s-.02.02-.02.02c-.02.03-.04.05-.06.08l-.03.05v.03s-.02.03-.02.03v.03s0,.04,0,.04v.04s.02.04.02.04c.01.05.03.16.05.26.01.05.02.1.03.15v.03s.01.01.01.01h0s0,.01,0,.01v.02s.03.02.03.02l.03.03.03.02.03.02h.03s.03.03.03.03h.03s.06.02.06.02c.04,0,.08,0,.11,0h.05s.02,0,.02,0h.02s.02.01.02.01h.02s.02,0,.02,0h.02s.04-.03.04-.03l.04-.03.04-.03.04-.02h.02s.02-.02.02-.02h.02s.02,0,.02,0c.01,0,.03,0,.05,0,.02,0,.04,0,.06,0,.04,0,.09,0,.12,0v.5s0,.5,0,.5v1s-.05,0-.05,0h-.06s-.08-.04-.12-.05l-.13-.05-.06-.02h-.06Z"/>
        <polygon class="st0" points="23.23 87.5 19.25 87.09 18.81 91.51 23.25 91.5 23.23 87.5"/>
      </g>
      <g>
        <path class="st3" d="M82.42,87.71v.06s0,.06,0,.06v.13s.01.12.01.12v.06s-.02.06-.02.06v.03s-.03.02-.03.02l-.02.02-.02.02-.05.04-.05.04-.11.07-.02.02-.02.02-.02.02-.02.03v.03s-.02.03-.02.03v.03s0,.03,0,.03c0,.04,0,.09,0,.14v.07s0,.07,0,.07v.03s-.01.03-.01.03v.03s-.03.03-.03.03l-.04.04-.04.04-.08.06-.08.06-.04.03-.04.04-.02.02-.03.02h-.03s-.03.02-.03.02h-.07s-.07.02-.07.02c-.05,0-.1.01-.15.02h-.03s-.03.02-.03.02h-.03s-.03.03-.03.03l-.02.02-.02.02-.02.02-.02.03-.05.11-.03.06-.03.05-.02.02-.02.02-.02.02-.02.02s-.07.03-.12.05l-.13.05c-.09.03-.18.06-.25.08h-.03s-.03.01-.03.01h-.02s-.02,0-.02,0h-.05s-.04-.03-.04-.03l-.04-.02-.05-.02h-.02s-.03,0-.03,0h-.03s-.03,0-.03,0h-.03s-.03.02-.03.02l-.03.02-.03.02s-.07.07-.11.1l-.06.05-.06.05-.03.02h-.03s-.03.02-.03.02h-.03s0-1,0-1v-.5s0-.5,0-.5h.03s.02,0,.02,0h.04s.03.02.03.02h.02s.02,0,.02,0h.02s.02,0,.02,0h.02s.02.02.02.02c.02.01.05.03.08.05l.05.02h.03s.03.01.03.01h.03s.03,0,.03,0h.03s.04-.02.04-.02c.02,0,.06-.02.1-.04.04-.01.08-.03.13-.04.04-.02.09-.03.13-.05l.05-.03s.03-.02.04-.03l.03-.03.02-.03.02-.03v-.03s.03-.03.03-.03v-.03s.02-.06.02-.06c0-.04,0-.07,0-.1v-.04s0-.02,0-.02v-.02s.01-.02.01-.02v-.02s0-.02,0-.02v-.02s-.03-.04-.03-.04l-.03-.04-.03-.04-.02-.04v-.02s-.02-.02-.02-.02v-.02s0-.02,0-.02c0-.01,0-.03,0-.04v-.05s0-.08-.01-.11h.5s.5,0,.5,0h1s0,.02,0,.02v.02s-.02.05-.02.05c-.01.04-.03.07-.04.11l-.05.12-.02.06v.06Z"/>
        <rect class="st0" x="79.56" y="87.27" width="4" height="4" transform="translate(-.34 .31) rotate(-.22)"/>
      </g>
      <g>
        <path class="st3" d="M79.42,9.81h.06s.07,0,.07,0l.14-.02.13-.02h.07s.06,0,.06,0h.03s.03.02.03.02l.03.02.02.02.05.04.04.05.04.05.05.05.02.02.03.02.03.02h.03s.03.02.03.02h.03s.03,0,.03,0h.04s.1-.02.15-.02h.07s.07-.02.07-.02h.03s.03,0,.03,0h.03s.03.02.03.02l.05.03.04.03.07.07.07.08.04.04.05.04.02.02h.01s0,.03,0,.03v.03s.02.03.02.03v.08s.02.08.02.08c0,.05.01.11.02.16l.02.07v.03s.03.03.03.03l.02.02.02.02.02.02.03.02.06.03.06.03.06.03.05.03.02.02.02.02.02.02.02.03s.03.08.05.13l.05.14c.03.1.06.19.08.27v.03s.01.03.01.03v.03s0,.03,0,.03v.05s-.03.05-.03.05l-.02.05-.02.05v.03s0,.03,0,.03v.03s0,.03,0,.03v.03s.02.03.02.03l.02.03.02.03.05.06.05.06.05.06.05.06.02.03v.03s.02.03.02.03v.04s-1,0-1,0h-.5s-.5,0-.5,0v-.03s0-.03,0-.03v-.04s.02-.04.02-.04v-.02s0-.02,0-.02v-.02s0-.02,0-.02v-.02s.01-.02.01-.02c.01-.03.03-.06.05-.09l.02-.05v-.03s.01-.03.01-.03v-.03s0-.03,0-.03v-.04s-.02-.04-.02-.04c-.02-.05-.05-.15-.08-.24-.02-.05-.03-.1-.05-.14v-.03s-.02-.01-.02-.01h0s-.02-.03-.02-.03l-.02-.02-.03-.03-.03-.02-.03-.02h-.03s-.03-.02-.03-.02h-.03s-.06,0-.06,0c-.04,0-.08,0-.11,0h-.05s-.02,0-.02,0h-.02s-.02-.01-.02-.01h-.02s-.02,0-.02,0h-.02s-.04.03-.04.03l-.04.03-.04.03-.04.03h-.02s-.02.02-.02.02h-.02s-.02,0-.02,0c-.01,0-.03,0-.05,0h-.06s-.08.02-.12.02l-.04-.5-.04-.5-.09-1h.05s.06,0,.06,0c.04,0,.08.02.12.03l.13.03h.06s.06.02.06.02Z"/>
        <polygon class="st0" points="79.19 12.71 83.19 12.69 83.16 8.34 78.84 8.72 79.19 12.71"/>
      </g>
      <g>
        <path class="st3" d="M77.05,9.12v.06s0,.07,0,.07v.14s-.01.14-.01.14v.07s.02.06.02.06v.03s.03.03.03.03l.02.02.02.02.05.04.05.04.05.04.05.04.02.02.02.02.02.03.02.03v.03s.02.03.02.03v.03s0,.04,0,.04c0,.05,0,.1,0,.15v.08s0,.07,0,.07v.03s.01.03.01.03v.03s.03.03.03.03l.04.05.04.04.08.07.08.07.04.04.04.04.02.02h.01s0,.01,0,.01h0s.03.01.03.01h.04s.08.01.08.01h.08c.05,0,.11,0,.16,0h.07s.03.02.03.02h.03s.03.03.03.03l.02.02.02.02.02.02.04.05.03.06.03.05.04.05.02.02.02.02.03.02h.03s.08.04.13.05l.14.04c.1.02.2.04.28.06h.03s.03,0,.03,0h.03s.03,0,.03,0l.05-.02.05-.02.05-.02.05-.02h.03s.03-.01.03-.01h.03s.03,0,.03,0h.03s.03.01.03.01h.03s.03.03.03.03l.06.04.06.05.07.05.07.04.03.02h.03s.04.02.04.02h.04l-.09-1-.04-.5-.04-.5h-.03s-.02,0-.02,0h-.04s-.04.03-.04.03h-.02s-.02,0-.02,0h-.02s-.02,0-.02,0h-.02s-.02.02-.02.02c-.02.02-.05.03-.08.05l-.05.03h-.03s-.03.02-.03.02h-.03s-.04,0-.04,0h-.04s-.04-.02-.04-.02c-.05-.01-.15-.04-.25-.06-.05-.01-.1-.03-.14-.04h-.03s-.01-.02-.01-.02h-.01s-.02-.02-.02-.02h-.02s-.03-.04-.03-.04l-.02-.03-.02-.03v-.03s-.03-.03-.03-.03v-.03s-.02-.06-.02-.06c0-.04,0-.08,0-.11v-.05s0-.02,0-.02v-.02s-.01-.02-.01-.02v-.02s0-.02,0-.02v-.02s.02-.04.02-.04l.03-.04.03-.04.02-.04v-.02s.02-.02.02-.02v-.02s0-.02,0-.02c0-.01,0-.03,0-.05,0-.02,0-.04,0-.06,0-.04,0-.08,0-.12h-.5s-.5,0-.5,0h-1s0,.05,0,.05v.06s.04.08.05.12l.05.13.02.06v.06Z"/>
        <polygon class="st0" points="79.92 8.63 80.27 12.61 75.93 12.99 75.92 8.64 79.92 8.63"/>
      </g>
      <g>
        <path class="st3" d="M76.35,7.02h.06s.06,0,.06,0h.13s.13-.01.13-.01h.06s.06.02.06.02h.03s.02.03.02.03l.02.02.02.02.04.05.04.05.07.11.02.02.02.02.02.02.03.02h.03s.03.02.03.02h.03s.03,0,.03,0c.04,0,.09,0,.14,0h.07s.07,0,.07,0h.03s.03.01.03.01h.03s.03.03.03.03l.04.03.04.04.06.08.06.08.03.04.04.04.02.02.02.03v.03s.02.03.02.03v.07s.02.07.02.07c0,.05.01.1.02.15v.03s.02.03.02.03v.03s.03.03.03.03l.02.02.02.02.02.02.03.02.11.05.06.03.05.03.02.02.02.02.02.02.02.02s.03.08.05.12l.05.13c.03.09.06.18.08.25v.03s0,.03,0,.03v.02s0,.02,0,.02v.05s-.03.04-.03.04l-.02.04-.02.05v.02s0,.03,0,.03v.03s0,.03,0,.03v.03s.02.03.02.03l.02.03.02.03s.07.07.1.11l.05.06.05.06.02.03v.03s.02.03.02.03v.03s-1,0-1,0h-.5s-.5,0-.5,0v-.03s0-.02,0-.02v-.04s.02-.03.02-.03v-.02s0-.02,0-.02v-.02s0-.02,0-.02v-.02s.02-.02.02-.02c.01-.02.03-.05.05-.08l.02-.05v-.03s.01-.03.01-.03v-.03s0-.03,0-.03v-.03s-.02-.04-.02-.04c0-.02-.02-.06-.04-.1-.01-.04-.03-.08-.04-.13-.02-.04-.03-.09-.05-.13l-.03-.05s-.02-.03-.03-.04l-.03-.03-.03-.02-.03-.02h-.03s-.03-.02-.03-.02h-.03s-.06-.02-.06-.02c-.04,0-.07,0-.1,0h-.04s-.02,0-.02,0h-.02s-.02-.01-.02-.01h-.02s-.02,0-.02,0h-.02s-.04.03-.04.03l-.04.03-.04.03-.04.02h-.02s-.02.02-.02.02h-.02s-.02,0-.02,0c-.01,0-.03,0-.04,0h-.05s-.08,0-.11.01v-.5s0-.5,0-.5v-1s.02,0,.02,0h.02s.05.02.05.02c.04.01.07.03.11.04l.12.05.06.02h.06Z"/>
        <polygon class="st0" points="75.92 9.89 79.92 9.88 79.91 5.86 75.89 5.89 75.92 9.89"/>
      </g>
    </g>
  </g>
  <path class="st1" d="M65.96,7.96"/>
  <g>
    <path class="st2" d="M19.42,81.85c-.09-.03-.22-.05-.37-.06-.15-.01-.32-.02-.5-.02-.18,0-.35.01-.49.03-.15.02-.31.03-.4.06-.08.03-.11.06-.11.09h2s-.04-.08-.13-.1Z"/>
    <path class="st2" d="M19.46,83.76c0-.06-.34-.05-.34-.11,0-.06.31-.1.31-.17,0-.06-.14-.06-.14-.13,0-.06.31-.07.31-.13,0-.06-.26-.08-.26-.14,0-.06-.61-.04-.61-.1,0-.06.67-.08.67-.14,0-.06-.19-.08-.19-.14,0-.06.46-.04.46-.11,0-.06-.44-.06-.44-.13,0-.06.05-.06.05-.13,0-.06.33-.07.32-.13,0-.06-.48-.07-.48-.13,0-.06.43-.13.43-.13h-2s.21.1.21.16c0,.06-.25.07-.25.13,0,.06.28.06.28.13,0,.06-.33.06-.33.13,0,.06.58.04.58.1,0,.06-.2.09-.2.15,0,.06-.15.06-.15.12,0,.06.24.07.24.13,0,.06-.43.07-.43.13,0,.06.44.06.44.12,0,.06-.14.06-.14.13,0,.06-.19.07-.19.13,0,.06.51.05.51.12,0,.06-.41.07-.41.14,0,.06.19.06.2.13,0,.06-.34.08-.34.13h2c0-.06-.26-.05-.26-.12,0-.06.15-.06.15-.13Z"/>
    <path class="st2" d="M30.41,85.09c-.35,0-.27.34-.62.34-.34,0-.55-.31-.89-.31-.35,0-.35.13-.69.13-.34,0-.35-.31-.7-.31-.34,0-.43.26-.77.26-.35,0-.24.61-.58.61-.34,0-.39-.67-.74-.67-.34,0-.43.19-.77.19-.34,0-.22-.46-.57-.46-.34,0-.35.44-.7.44-.34,0-.34-.05-.69-.05-.34,0-.36-.33-.71-.33-.34,0-.39.48-.74.48-.34,0-.67-.43-.69-.43v2s.45-.21.79-.21c.34,0,.34.25.69.25.34,0,.35-.28.69-.28.34,0,.34.33.68.33.34,0,.24-.57.58-.57.34,0,.45.2.79.2.34,0,.3.15.65.15.34,0,.38-.24.73-.24.34,0,.35.43.7.43.34,0,.34-.44.68-.44.34,0,.34.14.69.14.34,0,.34.19.69.19.34,0,.31-.51.65-.51.34,0,.38.41.72.41.34,0,.34-.19.69-.19.34,0,.43.34.69.34v-2c-.26,0-.22.26-.57.26-.35,0-.34-.15-.69-.15Z"/>
    <path class="st2" d="M41.51,85.1c-.35,0-.27.34-.62.34-.34,0-.55-.31-.89-.31-.35,0-.35.13-.69.13-.34,0-.35-.31-.7-.31-.34,0-.43.26-.77.26-.35,0-.24.61-.58.61-.34,0-.39-.67-.74-.67-.34,0-.43.19-.77.19-.34,0-.22-.46-.57-.46-.34,0-.35.44-.7.44-.34,0-.34-.05-.69-.05-.34,0-.36-.33-.71-.33-.34,0-.39.48-.74.48-.34,0-.67-.43-.69-.43v2s.45-.21.79-.21c.34,0,.34.25.69.25.34,0,.35-.28.69-.28.34,0,.34.33.68.33.34,0,.24-.57.58-.57.34,0,.45.2.79.2.34,0,.3.15.65.15.34,0,.38-.24.73-.24.34,0,.35.43.7.43.34,0,.34-.44.68-.44.34,0,.34.14.69.14.34,0,.34.19.69.19.34,0,.31-.51.65-.51.34,0,.38.41.72.41.34,0,.34-.19.69-.19.34,0,.43.34.69.34v-2c-.26,0-.22.26-.57.26-.35,0-.34-.15-.69-.15Z"/>
    <path class="st2" d="M52.61,85.1c-.35,0-.27.34-.62.34-.34,0-.55-.31-.89-.31-.35,0-.35.13-.69.13-.34,0-.35-.31-.7-.31-.34,0-.43.26-.77.26-.35,0-.24.61-.58.61-.34,0-.39-.67-.74-.67-.34,0-.43.19-.77.19-.34,0-.22-.46-.57-.46-.34,0-.35.44-.7.44-.34,0-.34-.05-.69-.05-.34,0-.36-.33-.71-.33-.34,0-.39.48-.74.48-.34,0-.67-.43-.69-.43v2s.45-.21.79-.21c.34,0,.34.25.69.25.34,0,.35-.28.69-.28.34,0,.34.33.68.33.34,0,.24-.57.58-.57.34,0,.45.2.79.2.34,0,.3.15.65.15.34,0,.38-.24.73-.24.34,0,.35.43.7.43.34,0,.34-.44.68-.44.34,0,.34.14.69.14.34,0,.34.19.69.19.34,0,.31-.51.65-.51.34,0,.38.41.72.41.34,0,.34-.19.69-.19.34,0,.43.34.69.34v-2c-.26,0-.22.26-.57.26-.35,0-.34-.15-.69-.15Z"/>
    <path class="st2" d="M63.71,85.1c-.35,0-.27.34-.62.34-.34,0-.55-.31-.89-.31-.35,0-.35.13-.69.13-.34,0-.35-.31-.7-.31-.34,0-.43.26-.77.26-.35,0-.24.61-.58.61-.34,0-.39-.67-.74-.67-.34,0-.43.19-.77.19-.34,0-.22-.46-.57-.46-.34,0-.35.44-.7.44-.34,0-.34-.05-.69-.05-.34,0-.36-.33-.71-.33-.34,0-.39.48-.74.48-.34,0-.67-.43-.69-.43v2s.45-.21.79-.21c.34,0,.34.25.69.25.34,0,.35-.28.69-.28.34,0,.34.33.68.33.34,0,.24-.57.58-.57.34,0,.45.2.79.2.34,0,.3.15.65.15.34,0,.38-.24.73-.24.34,0,.35.43.7.43.34,0,.34-.44.68-.44.34,0,.34.14.69.14.34,0,.34.19.69.19.34,0,.31-.51.65-.51.34,0,.38.41.72.41.34,0,.34-.19.69-.19.34,0,.43.34.69.34v-2c-.26,0-.22.26-.57.26-.35,0-.34-.15-.69-.15Z"/>
    <path class="st2" d="M74.81,85.1c-.35,0-.27.34-.62.34-.34,0-.55-.31-.89-.31-.35,0-.35.13-.69.13-.34,0-.35-.31-.7-.31-.34,0-.43.26-.77.26-.35,0-.24.61-.58.61-.34,0-.39-.67-.74-.67-.34,0-.43.19-.77.19-.34,0-.22-.46-.57-.46-.34,0-.35.44-.7.44-.34,0-.34-.05-.69-.05-.34,0-.36-.33-.71-.33-.34,0-.39.48-.74.48-.34,0-.67-.43-.69-.43v2s.45-.21.79-.21c.34,0,.34.25.69.25.34,0,.35-.28.69-.28.34,0,.34.33.68.33.34,0,.24-.57.58-.57.34,0,.45.2.79.2.34,0,.3.15.65.15.34,0,.38-.24.73-.24.34,0,.35.43.7.43.34,0,.34-.44.68-.44.34,0,.34.14.69.14.34,0,.34.19.69.19.34,0,.31-.51.65-.51.34,0,.38.41.72.41.34,0,.34-.19.69-.19.34,0,.43.34.69.34v-2c-.26,0-.22.26-.57.26-.35,0-.34-.15-.69-.15Z"/>
    <path class="st2" d="M77.15,73.04c0,.38.34.3.34.68,0,.38-.31.61-.31.99,0,.38.14.38.14.77,0,.38-.31.39-.31.78,0,.38.26.47.26.86,0,.38.61.26.61.65,0,.38-.67.44-.67.82,0,.38.19.48.19.86,0,.38-.46.25-.46.63,0,.38.44.39.44.77,0,.38-.05.38-.05.77,0,.38-.32.4-.32.79,0,.38.48.44.48.82,0,.38-.43.74-.43.76h2s-.21-.5-.21-.88c0-.38.25-.38.25-.76,0-.38-.28-.38-.28-.77,0-.38.33-.38.33-.76,0-.38-.58-.27-.58-.65,0-.38.2-.5.2-.88,0-.38.15-.34.15-.72,0-.38-.24-.43-.24-.81,0-.38.43-.39.43-.77,0-.38-.44-.37-.44-.76,0-.38.14-.38.14-.77,0-.38.19-.38.19-.77,0-.38-.51-.34-.51-.73,0-.38.41-.42.41-.8,0-.38-.19-.38-.2-.76,0-.38.34-.48.34-.77h-2c0,.29.26.25.26.64,0,.39-.15.38-.15.77Z"/>
    <path class="st2" d="M77.13,60.69c0,.38.34.3.34.68,0,.38-.31.61-.31.99,0,.38.14.38.14.77,0,.38-.31.39-.31.78,0,.38.26.47.26.86,0,.38.61.26.61.65,0,.38-.67.44-.67.82,0,.38.19.48.19.86,0,.38-.46.25-.46.63,0,.38.44.39.44.77,0,.38-.05.38-.05.77,0,.38-.32.4-.32.79,0,.38.48.44.48.82,0,.38-.43.74-.43.76h2s-.21-.5-.21-.88c0-.38.25-.38.25-.76,0-.38-.28-.38-.28-.77,0-.38.33-.38.33-.76,0-.38-.58-.27-.58-.65,0-.38.2-.5.2-.88,0-.38.15-.34.15-.72,0-.38-.24-.43-.24-.81,0-.38.43-.39.43-.77,0-.38-.44-.37-.44-.76,0-.38.14-.38.14-.77,0-.38.19-.38.19-.77,0-.38-.51-.34-.51-.73,0-.38.41-.42.41-.8,0-.38-.19-.38-.2-.76,0-.38.34-.48.34-.77h-2c0,.29.26.25.26.64,0,.39-.15.38-.15.77Z"/>
    <path class="st2" d="M77.11,48.34c0,.38.34.3.34.68,0,.38-.31.61-.31.99,0,.38.14.38.14.77,0,.38-.31.39-.31.78,0,.38.26.47.26.86,0,.38.61.26.61.65,0,.38-.67.44-.67.82,0,.38.19.48.19.86,0,.38-.46.25-.46.63,0,.38.44.39.44.77,0,.38-.05.38-.05.77,0,.38-.32.4-.32.79,0,.38.48.44.48.82,0,.38-.43.74-.43.76h2s-.21-.5-.21-.88c0-.38.25-.38.25-.76,0-.38-.28-.38-.28-.77,0-.38.33-.38.33-.76,0-.38-.58-.27-.58-.65,0-.38.2-.5.2-.88,0-.38.15-.34.15-.72,0-.38-.24-.43-.24-.81,0-.38.43-.39.43-.77,0-.38-.44-.37-.44-.76,0-.38.14-.38.14-.77,0-.38.19-.38.19-.77,0-.38-.51-.34-.51-.73,0-.38.41-.42.41-.8,0-.38-.19-.38-.2-.76,0-.38.34-.48.34-.77h-2c0,.29.26.25.26.64,0,.39-.15.38-.15.77Z"/>
    <path class="st2" d="M77.08,35.99c0,.38.34.3.34.68,0,.38-.31.61-.31.99,0,.38.14.38.14.77,0,.38-.31.39-.31.78,0,.38.26.47.26.86,0,.38.61.26.61.65,0,.38-.67.44-.67.82,0,.38.19.48.19.86,0,.38-.46.25-.46.63,0,.38.44.39.44.77,0,.38-.05.38-.05.77,0,.38-.32.4-.32.79,0,.38.48.44.48.82,0,.38-.43.74-.43.76h2s-.21-.5-.21-.88c0-.38.25-.38.25-.76,0-.38-.28-.38-.28-.77,0-.38.33-.38.33-.76,0-.38-.58-.27-.58-.65,0-.38.2-.5.2-.88,0-.38.15-.34.15-.72,0-.38-.24-.43-.24-.81,0-.38.43-.39.43-.77,0-.38-.44-.37-.44-.76,0-.38.14-.38.14-.77,0-.38.19-.38.19-.77,0-.38-.51-.34-.51-.73,0-.38.41-.42.41-.8,0-.38-.19-.38-.2-.76,0-.38.34-.48.34-.77h-2c0,.29.26.25.26.64,0,.39-.15.38-.15.77Z"/>
    <path class="st2" d="M77.06,23.63c0,.38.34.3.34.68,0,.38-.31.61-.31.99,0,.38.14.38.14.77,0,.38-.31.39-.31.78,0,.38.26.47.26.86,0,.38.61.26.61.65,0,.38-.67.44-.67.82,0,.38.19.48.19.86,0,.38-.46.25-.46.63,0,.38.44.39.44.77,0,.38-.05.38-.05.77,0,.38-.32.4-.32.79,0,.38.48.44.48.82,0,.38-.43.74-.43.76h2s-.21-.5-.21-.88c0-.38.25-.38.25-.76,0-.38-.28-.38-.28-.77,0-.38.33-.38.33-.76,0-.38-.58-.27-.58-.65,0-.38.2-.5.2-.88,0-.38.15-.34.15-.72,0-.38-.24-.43-.24-.81,0-.38.43-.39.43-.77,0-.38-.44-.37-.44-.76,0-.38.14-.38.14-.77,0-.38.19-.38.19-.77,0-.38-.51-.34-.51-.73,0-.38.41-.42.41-.8,0-.38-.19-.38-.2-.76,0-.38.34-.48.34-.77h-2c0,.29.26.25.26.64,0,.39-.15.38-.15.77Z"/>
    <path class="st2" d="M77.03,11.28c0,.38.34.3.34.68,0,.38-.31.61-.31.99,0,.38.14.38.14.77,0,.38-.31.39-.31.78,0,.38.26.47.26.86,0,.38.61.26.61.65,0,.38-.67.44-.67.82,0,.38.19.48.19.86,0,.38-.46.25-.46.63,0,.38.44.39.44.77,0,.38-.05.38-.05.77,0,.38-.32.4-.32.79,0,.38.48.44.48.82,0,.38-.43.74-.43.76h2s-.21-.5-.21-.88c0-.38.25-.38.25-.76,0-.38-.28-.38-.28-.77,0-.38.33-.38.33-.76,0-.38-.58-.27-.58-.65,0-.38.2-.5.2-.88,0-.38.15-.34.15-.72,0-.38-.24-.43-.24-.81,0-.38.43-.39.43-.77,0-.38-.44-.37-.44-.76,0-.38.14-.38.14-.77,0-.38.19-.38.19-.77,0-.38-.51-.34-.51-.73,0-.38.41-.42.41-.8,0-.38-.19-.38-.2-.76,0-.38.34-.48.34-.77h-2c0,.29.26.25.26.64,0,.39-.15.38-.15.77Z"/>
    <path class="st2" d="M70.37,8.8c.19,0,.15-.34.35-.34.19,0,.31.31.5.31.19,0,.19-.14.39-.14.19,0,.2.31.4.31.19,0,.24-.26.43-.26.19,0,.13-.61.33-.61.19,0,.22.67.42.67.19,0,.24-.19.43-.19.19,0,.13.46.32.46.19,0,.2-.44.39-.44.19,0,.19.05.39.05.19,0,.21.32.4.32.19,0,.22-.48.41-.48.19,0,.38.43.39.43v-2s-.26.21-.45.21c-.19,0-.19-.25-.39-.25-.19,0-.19.28-.39.28-.19,0-.19-.33-.39-.33-.19,0-.13.58-.33.58-.19,0-.26-.2-.45-.2-.19,0-.17-.15-.36-.15-.19,0-.22.24-.41.24-.19,0-.2-.43-.39-.43-.19,0-.19.44-.38.44-.19,0-.19-.14-.39-.14-.19,0-.19-.19-.39-.19-.19,0-.17.51-.37.51-.19,0-.21-.41-.41-.41-.19,0-.19.19-.39.2-.19,0-.24-.34-.39-.34v2c.15,0,.13-.26.33-.26.2,0,.19.15.39.15Z"/>
    <path class="st2" d="M69.2,8.42c.05.15.12.26.2.34.08.08.16.15.25.15h0v-2h0c-.09,0-.19.04-.26.12-.08.09-.14.23-.19.38-.04.15-.07.32-.07.5,0,.18.03.36.07.5Z"/>
    <g>
      <path class="st2" d="M20.12,86.85h-.06s-.06,0-.06,0h-.12s-.12.01-.12.01h-.06s-.06-.02-.06-.02h-.03s-.02-.03-.02-.03l-.02-.02-.02-.02-.04-.05-.04-.05-.07-.11-.02-.02-.02-.02-.02-.02-.03-.02h-.03s-.03-.02-.03-.02h-.03s-.03,0-.03,0c-.04,0-.09,0-.14,0h-.07s-.07,0-.07,0h-.03s-.03-.01-.03-.01h-.03s-.03-.03-.03-.03l-.04-.04-.04-.04-.06-.08-.06-.08-.03-.04-.04-.04-.02-.02-.02-.03v-.03s-.02-.03-.02-.03v-.07s-.02-.07-.02-.07c0-.05-.01-.1-.02-.14v-.03s-.02-.03-.02-.03v-.03s-.03-.02-.03-.02l-.02-.02-.02-.02-.02-.02-.03-.02-.11-.05-.06-.03-.05-.03-.02-.02-.02-.02-.02-.02-.02-.02s-.03-.07-.05-.11l-.05-.13c-.03-.09-.06-.17-.08-.25v-.03s-.01-.03-.01-.03v-.02s0-.02,0-.02v-.05s.03-.04.03-.04l.02-.04.02-.05v-.02s0-.03,0-.03v-.03s0-.03,0-.03v-.03s-.02-.03-.02-.03l-.02-.03-.02-.03s-.07-.07-.1-.11l-.05-.06-.05-.06-.02-.03v-.03s-.02-.03-.02-.03v-.03s1,0,1,0h.5s.5,0,.5,0v.03s0,.02,0,.02v.04s-.02.03-.02.03v.02s0,.02,0,.02v.02s0,.02,0,.02v.02s-.01.02-.01.02c-.01.02-.03.05-.05.08l-.02.05v.03s-.01.03-.01.03v.03s0,.03,0,.03v.03s.02.04.02.04c0,.02.02.06.04.1.01.04.03.08.04.13.02.04.03.09.05.13l.03.05s.02.03.03.04l.03.03.03.02.03.02h.03s.03.03.03.03h.03s.05.02.05.02c.04,0,.07,0,.1,0h.04s.02,0,.02,0h.02s.02.01.02.01h.02s.02,0,.02,0h.02s.04-.02.04-.02l.04-.03.04-.03.04-.02h.02s.02-.02.02-.02h.02s.02,0,.02,0c.01,0,.03,0,.04,0h.05s.08,0,.11,0v.5s0,.5,0,.5v1s-.02,0-.02,0h-.02s-.05-.02-.05-.02c-.03-.01-.07-.03-.11-.04l-.12-.05-.06-.02h-.06Z"/>
      <polygon class="st0" points="20.57 83.98 16.57 84.01 16.59 87.98 20.56 87.98 20.57 83.98"/>
    </g>
    <g>
      <path class="st2" d="M78.93,84.43v.06s0,.06,0,.06v.13s.01.13.01.13v.06s-.02.06-.02.06v.03s-.03.02-.03.02l-.02.02-.02.02-.05.04-.05.04-.11.07-.02.02-.02.02-.02.02-.02.03v.03s-.02.03-.02.03v.03s0,.03,0,.03c0,.04,0,.09,0,.14v.07s0,.07,0,.07v.03s-.01.03-.01.03v.03s-.03.03-.03.03l-.04.04-.04.04-.08.06-.08.06-.04.03-.04.04-.02.02-.03.02h-.03s-.03.02-.03.02h-.07s-.07.02-.07.02c-.05,0-.1.01-.15.02h-.03s-.03.02-.03.02h-.03s-.03.03-.03.03l-.02.02-.02.02-.02.02-.02.03-.05.11-.03.06-.03.05-.02.02-.02.02-.02.02h-.02s-.08.05-.12.07l-.13.05c-.09.03-.18.06-.25.08h-.03s-.03,0-.03,0h-.02s-.02,0-.02,0h-.05s-.04-.03-.04-.03l-.04-.02-.05-.02h-.02s-.03,0-.03,0h-.03s-.03,0-.03,0h-.03s-.03.02-.03.02l-.03.02-.03.02s-.07.07-.11.1l-.06.05-.06.05-.03.02h-.03s-.03.02-.03.02h-.03s0-1,0-1v-.5s0-.5,0-.5h.03s.02,0,.02,0h.04s.03.02.03.02h.02s.02,0,.02,0h.02s.02,0,.02,0h.02s.02.02.02.02c.02.01.05.03.08.05l.05.02h.03s.03.01.03.01h.03s.03,0,.03,0h.03s.04-.02.04-.02c.02,0,.06-.02.1-.04.04-.01.08-.03.13-.04.04-.02.09-.03.13-.05l.05-.03s.03-.02.04-.03l.03-.03.02-.03.02-.03v-.03s.03-.03.03-.03v-.03s.02-.06.02-.06c0-.04,0-.07,0-.1v-.04s0-.02,0-.02v-.02s.01-.02.01-.02v-.02s0-.02,0-.02v-.02s-.03-.04-.03-.04l-.03-.04-.03-.04-.02-.04v-.02s-.02-.02-.02-.02v-.02s0-.02,0-.02c0-.01,0-.03,0-.04v-.05s0-.08,0-.11h.5s.5,0,.5,0h1s0,.02,0,.02v.02s-.02.05-.02.05c-.01.04-.03.07-.04.11l-.05.12-.02.06v.06Z"/>
      <polygon class="st0" points="76.07 83.99 76.07 87.99 80.08 87.99 80.07 83.99 76.07 83.99"/>
    </g>
    <g>
      <path class="st2" d="M76.35,7.02h.06s.06,0,.06,0h.13s.13-.01.13-.01h.06s.06.02.06.02h.03s.02.03.02.03l.02.02.02.02.04.05.04.05.07.11.02.02.02.02.02.02.03.02h.03s.03.02.03.02h.03s.03,0,.03,0c.04,0,.09,0,.14,0h.07s.07,0,.07,0h.03s.03.01.03.01h.03s.03.03.03.03l.04.04.04.04.06.08.06.08.03.04.04.04.02.02.02.03v.03s.02.03.02.03v.07s.02.07.02.07c0,.05.01.1.02.15v.03s.02.03.02.03v.03s.03.03.03.03l.02.02.02.02.02.02.03.02.11.05.06.03.05.03.02.02.02.02.02.02.02.02s.03.08.05.12l.05.13c.03.09.06.18.08.25v.03s0,.03,0,.03v.02s0,.02,0,.02v.05s-.03.04-.03.04l-.02.04-.02.05v.02s0,.03,0,.03v.03s0,.03,0,.03v.03s.02.03.02.03l.02.03.02.03s.07.07.1.11l.05.06.05.06.02.03v.03s.02.03.02.03v.03s-1,0-1,0h-.5s-.5,0-.5,0v-.03s0-.02,0-.02v-.04s.02-.03.02-.03v-.02s0-.02,0-.02v-.02s0-.02,0-.02v-.02s.02-.02.02-.02c.01-.02.03-.05.05-.08l.02-.05v-.03s.01-.03.01-.03v-.03s0-.03,0-.03v-.03s-.02-.04-.02-.04c0-.02-.02-.06-.04-.1-.01-.04-.03-.08-.04-.13-.02-.04-.03-.09-.05-.13l-.03-.05s-.02-.03-.03-.04l-.03-.03-.03-.02-.03-.02h-.03s-.03-.03-.03-.03h-.03s-.06-.02-.06-.02c-.04,0-.07,0-.1,0h-.04s-.02,0-.02,0h-.02s-.02-.01-.02-.01h-.02s-.02,0-.02,0h-.02s-.04.03-.04.03l-.04.03-.04.03-.04.02h-.02s-.02.02-.02.02h-.02s-.02,0-.02,0c-.01,0-.03,0-.04,0h-.05s-.08,0-.11,0v-.5s0-.5,0-.5v-1s.02,0,.02,0h.02s.05.02.05.02c.04.01.07.03.11.04l.12.05.06.02h.06Z"/>
      <polygon class="st0" points="75.92 9.88 79.92 9.88 79.91 5.87 75.9 5.88 75.92 9.88"/>
    </g>
  </g>
  <g>
    <path class="st2" d="M65.51,8.84c.14-.09.26-.22.35-.37.08-.15.11-.32.11-.5,0-.18-.05-.34-.14-.49-.08-.15-.18-.31-.32-.39-.14-.08-.32-.11-.49-.11v2c.18,0,.35-.04.49-.13Z"/>
    <path class="st2" d="M55.05,8.93c.35,0,.27-.34.62-.34.35,0,.56.31.91.3.35,0,.35-.14.7-.14.35,0,.36.3.71.3.35,0,.43-.26.78-.27.35,0,.24-.61.59-.62.35,0,.4.66.75.66.35,0,.43-.19.78-.19.35,0,.23.46.58.46.35,0,.35-.44.7-.44.35,0,.35.05.7.05.35,0,.37.32.72.32.35,0,.39-.48.74-.49.35,0,.68.42.7.42v-2s-.46.21-.81.21c-.35,0-.35-.25-.7-.24-.35,0-.35.28-.7.28-.35,0-.34-.33-.69-.33-.35,0-.24.58-.59.58-.35,0-.46-.2-.81-.19-.35,0-.31-.15-.66-.15-.35,0-.39.24-.74.25-.35,0-.36-.42-.71-.42-.35,0-.34.44-.69.44-.35,0-.35-.14-.7-.14-.35,0-.35-.19-.7-.18-.35,0-.31.51-.66.51-.35,0-.39-.4-.73-.4-.35,0-.35.2-.7.2-.35,0-.44-.33-.7-.33v2c.28,0,.24-.26.59-.27.35,0,.35.15.7.15Z"/>
    <path class="st2" d="M43.8,9.01c.35,0,.27-.34.62-.34.35,0,.56.31.91.3.35,0,.35-.14.7-.14.35,0,.36.3.71.3.35,0,.43-.26.78-.27.35,0,.24-.61.59-.62.35,0,.4.66.75.66.35,0,.43-.19.78-.19.35,0,.23.46.58.46.35,0,.35-.44.7-.44.35,0,.35.05.7.05.35,0,.37.32.72.32.35,0,.39-.48.74-.49.35,0,.68.42.7.42v-2s-.46.21-.81.21c-.35,0-.35-.25-.7-.24-.35,0-.35.28-.7.28-.35,0-.34-.33-.69-.33-.35,0-.24.58-.59.58-.35,0-.46-.2-.81-.19-.35,0-.31-.15-.66-.15-.35,0-.39.24-.74.25-.35,0-.36-.42-.71-.42-.35,0-.34.44-.69.44-.35,0-.35-.14-.7-.14-.35,0-.35-.19-.7-.18-.35,0-.31.51-.66.51-.35,0-.39-.4-.73-.4-.35,0-.35.2-.7.2-.35,0-.44-.33-.7-.33v2c.28,0,.24-.26.59-.27.35,0,.35.15.7.15Z"/>
    <path class="st2" d="M32.55,9.09c.35,0,.27-.34.62-.34.35,0,.56.31.91.3.35,0,.35-.14.7-.14.35,0,.36.3.71.3.35,0,.43-.26.78-.27.35,0,.24-.61.59-.62.35,0,.4.66.75.66.35,0,.43-.19.78-.19.35,0,.23.46.58.46.35,0,.35-.44.7-.44.35,0,.35.05.7.05.35,0,.37.32.72.32.35,0,.39-.48.74-.49.35,0,.68.42.7.42v-2s-.46.21-.81.21c-.35,0-.35-.25-.7-.24-.35,0-.35.28-.7.28-.35,0-.34-.33-.69-.33-.35,0-.24.58-.59.58-.35,0-.46-.2-.81-.19-.35,0-.31-.15-.66-.15-.35,0-.39.24-.74.25-.35,0-.36-.42-.71-.42-.35,0-.34.44-.69.44-.35,0-.35-.14-.7-.14-.35,0-.35-.19-.7-.18-.35,0-.31.51-.66.51-.35,0-.39-.4-.73-.4-.35,0-.35.2-.7.2-.35,0-.44-.33-.7-.33v2c.28,0,.24-.26.59-.27.35,0,.35.15.7.15Z"/>
    <path class="st2" d="M21.3,9.17c.35,0,.27-.34.62-.34.35,0,.56.31.91.3.35,0,.35-.14.7-.14.35,0,.36.3.71.3.35,0,.43-.26.78-.27.35,0,.24-.61.59-.62.35,0,.4.66.75.66.35,0,.43-.19.78-.19.35,0,.23.46.58.46.35,0,.35-.44.7-.44.35,0,.35.05.7.05.35,0,.37.32.72.32.35,0,.39-.48.74-.49.35,0,.68.42.7.42v-2s-.46.21-.81.21c-.35,0-.35-.25-.7-.24-.35,0-.35.28-.7.28-.35,0-.34-.33-.69-.33-.35,0-.24.58-.59.58-.35,0-.46-.2-.81-.19-.35,0-.31-.15-.66-.15-.35,0-.39.24-.74.25-.35,0-.36-.42-.71-.42-.35,0-.34.44-.69.44-.35,0-.35-.14-.7-.14-.35,0-.35-.19-.7-.18-.35,0-.31.51-.66.51-.35,0-.39-.4-.73-.4-.35,0-.35.2-.7.2-.35,0-.44-.33-.7-.33v2c.28,0,.24-.26.59-.27.35,0,.35.15.7.15Z"/>
    <path class="st2" d="M18.93,12.4c0-.07-.34-.06-.34-.13,0-.07.31-.12.31-.19,0-.07-.14-.07-.14-.15,0-.07.31-.08.31-.15,0-.07-.26-.09-.26-.16,0-.07-.61-.05-.61-.12,0-.07.67-.09.67-.16,0-.07-.19-.09-.19-.16,0-.07.46-.05.46-.12,0-.07-.44-.07-.44-.15,0-.07.05-.07.05-.15,0-.07.33-.08.32-.15,0-.07-.48-.08-.48-.15,0-.07.43-.15.43-.15h-2s.21.11.21.18c0,.07-.25.08-.25.15,0,.07.28.07.28.15,0,.07-.33.07-.33.15,0,.07.58.05.58.12,0,.07-.2.1-.2.17,0,.07-.15.07-.15.14,0,.07.24.08.24.15,0,.07-.43.08-.43.15,0,.07.44.07.44.14,0,.07-.14.07-.14.15,0,.07-.19.07-.19.15,0,.07.51.06.51.14,0,.07-.41.08-.41.16,0,.07.19.07.2.15,0,.07-.34.09-.34.15h2c0-.07-.26-.06-.26-.13,0-.07.15-.07.15-.15Z"/>
    <path class="st2" d="M18.55,12.84c.15-.02.26-.05.34-.08.08-.03.15-.06.15-.1h0s-2,.01-2,.01h0s.04.07.12.1c.09.03.23.05.38.07.15.02.32.02.5.02.18,0,.36-.01.5-.03Z"/>
    <g>
      <path class="st2" d="M17.16,9.86v-.06s0-.06,0-.06v-.13s-.01-.12-.01-.12v-.06s.02-.06.02-.06v-.03s.03-.02.03-.02l.02-.02.02-.02.05-.04.05-.04.11-.07.02-.02.02-.02.02-.02.02-.03v-.03s.02-.03.02-.03v-.03s0-.03,0-.03c0-.04,0-.09,0-.14v-.07s0-.07,0-.07v-.03s.01-.03.01-.03v-.03s.03-.03.03-.03l.03-.04.04-.04.08-.06.08-.06.04-.03.04-.04.02-.02.03-.02h.03s.03-.02.03-.02h.07s.07-.02.07-.02c.05,0,.1-.01.15-.02h.03s.03-.02.03-.02h.03s.03-.03.03-.03l.02-.02.02-.02.02-.02.02-.03.05-.11.03-.06.03-.05.02-.02.02-.02.02-.02.02-.02s.07-.03.12-.05l.13-.05c.09-.03.18-.06.25-.08h.03s.03-.01.03-.01h.02s.02,0,.02,0h.05s.04.03.04.03l.04.02.05.02h.02s.03,0,.03,0h.03s.03,0,.03,0h.03s.03-.02.03-.02l.03-.02.03-.02s.07-.07.11-.1l.06-.05.06-.05.03-.02h.03s.03-.02.03-.02h.03s0,1,0,1v.5s0,.5,0,.5h-.03s-.02,0-.02,0h-.04s-.03-.02-.03-.02h-.02s-.02,0-.02,0h-.02s-.02,0-.02,0h-.02s-.02-.01-.02-.01c-.02-.01-.05-.03-.08-.05l-.05-.02h-.03s-.03-.01-.03-.01h-.03s-.03,0-.03,0h-.03s-.04.02-.04.02c-.02,0-.06.02-.1.04-.04.01-.08.03-.13.04-.04.02-.09.03-.13.05l-.05.03s-.03.02-.04.03l-.03.03-.02.03-.02.03v.03s-.02.03-.02.03v.03s-.02.06-.02.06c0,.04,0,.07,0,.1v.04s0,.02,0,.02v.02s-.01.02-.01.02v.02s0,.02,0,.02v.02s.03.04.03.04l.03.04.03.04.02.04v.02s.02.02.02.02v.02s0,.02,0,.02c0,.01,0,.03,0,.04v.05s0,.08.01.11h-.5s-.5,0-.5,0h-1s0-.02,0-.02v-.02s.02-.05.02-.05c.01-.04.03-.07.04-.11l.04-.12.02-.06v-.06Z"/>
      <rect class="st0" x="16.01" y="6.3" width="4" height="4" transform="translate(-.06 .13) rotate(-.41)"/>
    </g>
  </g>
  <g>
    <path class="st2" d="M22.17,86.88c-.07-.16-.19-.3-.33-.4-.14-.1-.31-.15-.49-.17-.18-.02-.35.02-.5.09-.16.07-.33.15-.43.29-.1.13-.15.32-.16.49l1.99.2c.02-.18,0-.36-.07-.51Z"/>
    <path class="st2" d="M33.23,88.57c-.35,0-.27.34-.62.34-.35,0-.56-.31-.91-.31-.35,0-.35.14-.7.14-.35,0-.36-.31-.71-.3-.35,0-.43.26-.78.26-.35,0-.24.61-.59.61-.35,0-.4-.67-.75-.66-.35,0-.43.19-.78.19-.35,0-.23-.46-.58-.46-.35,0-.35.44-.7.44-.35,0-.35-.05-.7-.05-.35,0-.37-.32-.72-.32-.35,0-.4.48-.75.48-.35,0-.68-.43-.7-.43v2s.46-.21.81-.21c.35,0,.35.25.7.25.35,0,.35-.28.7-.28.35,0,.34.33.69.33.35,0,.24-.58.59-.58.35,0,.46.2.81.2.35,0,.31.15.66.15.35,0,.39-.24.74-.24.35,0,.36.43.71.42.35,0,.34-.44.69-.44.35,0,.35.14.7.14.35,0,.35.19.7.19.35,0,.31-.51.66-.51.35,0,.38.41.73.4.35,0,.35-.2.7-.2.35,0,.44.34.7.33v-2c-.27,0-.23.26-.59.26-.35,0-.35-.15-.7-.15Z"/>
    <path class="st2" d="M44.49,88.52c-.35,0-.27.34-.62.34-.35,0-.56-.31-.91-.31-.35,0-.35.14-.7.14-.35,0-.36-.31-.71-.3-.35,0-.43.26-.78.26-.35,0-.24.61-.59.61-.35,0-.4-.67-.75-.66-.35,0-.43.19-.78.19-.35,0-.23-.46-.58-.46-.35,0-.35.44-.7.44-.35,0-.35-.05-.7-.05-.35,0-.37-.32-.72-.32-.35,0-.4.48-.75.48-.35,0-.68-.43-.7-.43v2s.46-.21.81-.21c.35,0,.35.25.7.25.35,0,.35-.28.7-.28.35,0,.34.33.69.33.35,0,.24-.58.59-.58.35,0,.46.2.81.2.35,0,.31.15.66.15.35,0,.39-.24.74-.24.35,0,.36.43.71.42.35,0,.34-.44.69-.44.35,0,.35.14.7.14.35,0,.35.19.7.19.35,0,.31-.51.66-.51.35,0,.38.41.73.4.35,0,.35-.2.7-.2.35,0,.44.34.7.33v-2c-.27,0-.23.26-.59.26-.35,0-.35-.15-.7-.15Z"/>
    <path class="st2" d="M55.75,88.48c-.35,0-.27.34-.62.34-.35,0-.56-.31-.91-.31-.35,0-.35.14-.7.14-.35,0-.36-.31-.71-.3-.35,0-.43.26-.78.26-.35,0-.24.61-.59.61-.35,0-.4-.67-.75-.66-.35,0-.43.19-.78.19-.35,0-.23-.46-.58-.46-.35,0-.35.44-.7.44-.35,0-.35-.05-.7-.05-.35,0-.37-.32-.72-.32-.35,0-.4.48-.75.48-.35,0-.68-.43-.7-.43v2s.46-.21.81-.21c.35,0,.35.25.7.25.35,0,.35-.28.7-.28.35,0,.34.33.69.33.35,0,.24-.58.59-.58.35,0,.46.2.81.2.35,0,.31.15.66.15.35,0,.39-.24.74-.24.35,0,.36.43.71.42.35,0,.34-.44.69-.44.35,0,.35.14.7.14.35,0,.35.19.7.19.35,0,.31-.51.66-.51.35,0,.38.41.73.4.35,0,.35-.2.7-.2.35,0,.44.34.7.33v-2c-.27,0-.23.26-.59.26-.35,0-.35-.15-.7-.15Z"/>
    <path class="st2" d="M67.02,88.44c-.35,0-.27.34-.62.34-.35,0-.56-.31-.91-.31-.35,0-.35.14-.7.14-.35,0-.36-.31-.71-.3-.35,0-.43.26-.78.26-.35,0-.24.61-.59.61-.35,0-.4-.67-.75-.66-.35,0-.43.19-.78.19-.35,0-.23-.46-.58-.46-.35,0-.35.44-.7.44-.35,0-.35-.05-.7-.05-.35,0-.37-.32-.72-.32-.35,0-.4.48-.75.48-.35,0-.68-.43-.7-.43v2s.46-.21.81-.21c.35,0,.35.25.7.25.35,0,.35-.28.7-.28.35,0,.34.33.69.33.35,0,.24-.58.59-.58.35,0,.46.2.81.2.35,0,.31.15.66.15.35,0,.39-.24.74-.24.35,0,.36.43.71.42.35,0,.34-.44.69-.44.35,0,.35.14.7.14.35,0,.35.19.7.19.35,0,.31-.51.66-.51.35,0,.38.41.73.4.35,0,.35-.2.7-.2.35,0,.44.34.7.33v-2c-.27,0-.23.26-.59.26-.35,0-.35-.15-.7-.15Z"/>
    <path class="st2" d="M78.28,88.39c-.35,0-.27.34-.62.34-.35,0-.56-.31-.91-.31-.35,0-.35.14-.7.14-.35,0-.36-.31-.71-.3-.35,0-.43.26-.78.26-.35,0-.24.61-.59.61-.35,0-.4-.67-.75-.66-.35,0-.43.19-.78.19-.35,0-.23-.46-.58-.46-.35,0-.35.44-.7.44-.35,0-.35-.05-.7-.05-.35,0-.37-.32-.72-.32-.35,0-.4.48-.75.48-.35,0-.68-.43-.7-.43v2s.46-.21.81-.21c.35,0,.35.25.7.25.35,0,.35-.28.7-.28.35,0,.34.33.69.33.35,0,.24-.58.59-.58.35,0,.46.2.81.2.35,0,.31.15.66.15.35,0,.39-.24.74-.24.35,0,.36.43.71.42.35,0,.34-.44.69-.44.35,0,.35.14.7.14.35,0,.35.19.7.19.35,0,.31-.51.66-.51.35,0,.38.41.73.4.35,0,.35-.2.7-.2.35,0,.44.34.7.33v-2c-.27,0-.23.26-.59.26-.35,0-.35-.15-.7-.15Z"/>
    <path class="st2" d="M80.61,76.24c0,.39.34.3.34.69,0,.39-.31.62-.3,1,0,.39.14.39.14.77,0,.39-.31.4-.3.78,0,.39.26.48.26.86,0,.39.61.26.62.65,0,.39-.67.44-.66.83,0,.39.19.48.19.86,0,.39-.46.25-.46.64,0,.39.44.39.44.78,0,.39-.05.39-.05.77,0,.39-.32.41-.32.79,0,.39.48.44.49.82,0,.39-.43.75-.43.77h2s-.21-.51-.21-.89c0-.39.25-.39.25-.77,0-.39-.28-.39-.28-.77,0-.39.33-.38.33-.77,0-.38-.58-.27-.58-.65,0-.38.2-.51.19-.89,0-.38.15-.34.15-.72,0-.39-.24-.43-.25-.81,0-.39.42-.4.42-.78,0-.39-.44-.37-.44-.76,0-.39.14-.39.14-.77,0-.39.19-.39.19-.77,0-.39-.51-.35-.51-.73,0-.39.41-.43.4-.81,0-.39-.2-.38-.2-.77,0-.39.34-.48.33-.77h-2c0,.3.26.26.27.65,0,.39-.15.38-.15.77Z"/>
    <path class="st2" d="M80.55,63.79c0,.39.34.3.34.69,0,.39-.31.62-.3,1,0,.39.14.39.14.77,0,.39-.31.4-.3.78,0,.39.26.48.26.86,0,.39.61.26.62.65,0,.39-.67.44-.66.83,0,.39.19.48.19.86,0,.39-.46.25-.46.64,0,.39.44.39.44.78,0,.39-.05.39-.05.77,0,.39-.32.41-.32.79,0,.39.48.44.49.82,0,.39-.43.75-.43.77h2s-.21-.51-.21-.89c0-.39.25-.39.25-.77,0-.39-.28-.39-.28-.77,0-.39.33-.38.33-.77,0-.38-.58-.27-.58-.65,0-.38.2-.51.2-.89,0-.38.15-.34.15-.72,0-.39-.24-.43-.25-.81,0-.39.42-.4.42-.78,0-.39-.44-.37-.44-.76,0-.39.14-.39.14-.77,0-.39.19-.39.19-.77,0-.39-.51-.35-.51-.73,0-.39.41-.43.4-.81,0-.39-.2-.38-.2-.77,0-.39.34-.48.33-.77h-2c0,.3.26.26.27.65,0,.39-.15.38-.15.77Z"/>
    <path class="st2" d="M80.49,51.34c0,.39.34.3.34.69,0,.39-.31.62-.3,1,0,.39.14.39.14.77,0,.39-.31.4-.3.78,0,.39.26.48.26.86,0,.39.61.26.62.65,0,.39-.67.44-.66.83,0,.39.19.48.19.86,0,.39-.46.25-.46.64,0,.39.44.39.44.78,0,.39-.05.39-.05.77,0,.39-.32.41-.32.79,0,.39.48.44.49.82,0,.39-.43.75-.43.77h2s-.21-.51-.21-.89c0-.39.25-.39.25-.77,0-.39-.28-.39-.28-.77,0-.39.33-.38.33-.77,0-.38-.58-.27-.58-.65,0-.38.2-.51.19-.89,0-.38.15-.34.15-.72,0-.39-.24-.43-.25-.81,0-.39.42-.4.42-.78,0-.39-.44-.37-.44-.76,0-.39.14-.39.14-.77,0-.39.19-.39.19-.77,0-.39-.51-.35-.51-.73,0-.39.41-.43.4-.81,0-.39-.2-.38-.2-.77,0-.39.34-.48.33-.77h-2c0,.3.26.26.27.65,0,.39-.15.38-.15.77Z"/>
    <path class="st2" d="M80.42,38.89c0,.39.34.3.34.69,0,.39-.31.62-.3,1,0,.39.14.39.14.77,0,.39-.31.4-.3.78,0,.39.26.48.26.86,0,.39.61.26.62.65,0,.39-.67.44-.66.83,0,.39.19.48.19.86,0,.39-.46.25-.46.64,0,.39.44.39.44.78,0,.39-.05.39-.05.77,0,.39-.32.41-.32.79,0,.39.48.44.49.82,0,.39-.43.75-.43.77h2s-.21-.51-.21-.89c0-.39.25-.39.25-.77,0-.39-.28-.39-.28-.77,0-.39.33-.38.33-.77,0-.38-.58-.27-.58-.65,0-.38.2-.51.2-.89,0-.38.15-.34.15-.72,0-.39-.24-.43-.25-.81,0-.39.42-.4.42-.78,0-.39-.44-.37-.44-.76,0-.39.14-.39.14-.77,0-.39.19-.39.19-.77,0-.39-.51-.35-.51-.73,0-.39.41-.43.4-.81,0-.39-.2-.38-.2-.77,0-.39.34-.48.33-.77h-2c0,.3.26.26.27.65,0,.39-.15.38-.15.77Z"/>
    <path class="st2" d="M80.36,26.44c0,.39.34.3.34.69,0,.39-.31.62-.3,1,0,.39.14.39.14.77,0,.39-.31.4-.3.78,0,.39.26.48.26.86,0,.39.61.26.62.65,0,.39-.67.44-.66.83,0,.39.19.48.19.86,0,.39-.46.25-.46.64,0,.39.44.39.44.78,0,.39-.05.39-.05.77,0,.39-.32.41-.32.79,0,.39.48.44.49.82,0,.39-.43.75-.43.77h2s-.21-.51-.21-.89c0-.39.25-.39.25-.77,0-.39-.28-.39-.28-.77,0-.39.33-.38.33-.77,0-.38-.58-.27-.58-.65,0-.38.2-.51.19-.89,0-.38.15-.34.15-.72,0-.39-.24-.43-.25-.81,0-.39.42-.4.42-.78,0-.39-.44-.37-.44-.76,0-.39.14-.39.14-.77,0-.39.19-.39.19-.77,0-.39-.51-.35-.51-.73,0-.39.41-.43.4-.81,0-.39-.2-.38-.2-.77,0-.39.34-.48.33-.77h-2c0,.3.26.26.27.65,0,.39-.15.38-.15.77Z"/>
    <path class="st2" d="M80.3,13.99c0,.39.34.3.34.69,0,.39-.31.62-.3,1,0,.39.14.39.14.77,0,.39-.31.4-.3.78,0,.39.26.48.26.86,0,.39.61.26.62.65,0,.39-.67.44-.66.83,0,.39.19.48.19.86,0,.39-.46.25-.46.64,0,.39.44.39.44.78,0,.39-.05.39-.05.77,0,.39-.32.41-.32.79,0,.39.48.44.49.82,0,.39-.43.75-.43.77h2s-.21-.51-.21-.89c0-.39.25-.39.25-.77,0-.39-.28-.39-.28-.77,0-.39.33-.38.33-.77,0-.38-.58-.27-.58-.65,0-.38.2-.51.19-.89,0-.38.15-.34.15-.72,0-.39-.24-.43-.25-.81,0-.39.42-.4.42-.78,0-.39-.44-.37-.44-.76,0-.39.14-.39.14-.77,0-.39.19-.39.19-.77,0-.39-.51-.35-.51-.73,0-.39.41-.43.4-.81,0-.39-.2-.38-.2-.77,0-.39.34-.48.33-.77h-2c0,.3.26.26.27.65,0,.39-.15.38-.15.77Z"/>
    <path class="st2" d="M79.36,11.09c-.02.15-.05.26-.09.35-.03.09-.07.15-.12.15h0l-.06-2h0s.09.03.13.12c.04.09.08.23.1.37.03.14.04.32.05.5,0,.18,0,.36-.02.51Z"/>
    <g>
      <path class="st2" d="M22.75,90.36h-.07s-.07,0-.07,0h-.14s-.14.01-.14.01h-.07s-.06-.02-.06-.02h-.03s-.03-.03-.03-.03l-.03-.02-.02-.02-.04-.05-.04-.05-.04-.05-.04-.05-.02-.02-.02-.02-.03-.02-.03-.02h-.03s-.03-.02-.03-.02h-.03s-.04,0-.04,0c-.05,0-.1,0-.15,0h-.08s-.07,0-.07,0h-.03s-.03-.01-.03-.01h-.03s-.03-.03-.03-.03l-.05-.04-.04-.04-.07-.08-.07-.08-.04-.04-.04-.04-.02-.02h0s0-.02,0-.02h0s0-.04,0-.04v-.04s-.01-.08-.01-.08v-.08c0-.06,0-.11,0-.16v-.07s-.02-.03-.02-.03v-.03s-.03-.03-.03-.03l-.02-.02-.02-.02-.02-.02-.05-.04-.05-.03-.05-.03-.05-.04-.02-.02-.02-.02-.02-.03v-.03s-.04-.09-.05-.13l-.03-.15c-.02-.1-.04-.2-.05-.28v-.03s0-.03,0-.03v-.03s0-.03,0-.03l.02-.05.02-.05.02-.05.02-.05v-.03s.02-.03.02-.03v-.03s0-.03,0-.03v-.03s-.01-.03-.01-.03v-.03s-.03-.03-.03-.03l-.04-.06-.05-.07-.05-.07-.04-.07v-.04s-.03-.04-.03-.04v-.04s0-.04,0-.04l.99.1.5.05.5.05v.03s-.01.03-.01.03v.04s-.03.04-.03.04v.02s0,.02,0,.02v.02s0,.02,0,.02v.02s-.02.02-.02.02c-.02.03-.04.05-.06.08l-.03.05v.03s-.02.03-.02.03v.03s0,.04,0,.04v.04s.02.04.02.04c.01.05.03.16.05.26.01.05.02.1.03.15v.03s.01.01.01.01h0s0,.01,0,.01v.02s.03.02.03.02l.03.03.03.02.03.02h.03s.03.03.03.03h.03s.06.02.06.02c.04,0,.08,0,.11,0h.05s.02,0,.02,0h.02s.02.01.02.01h.02s.02,0,.02,0h.02s.04-.03.04-.03l.04-.03.04-.03.04-.02h.02s.02-.02.02-.02h.02s.02,0,.02,0c.01,0,.03,0,.05,0,.02,0,.04,0,.06,0,.04,0,.09,0,.12,0v.5s0,.5,0,.5v1s-.05,0-.05,0h-.06s-.08-.04-.12-.05l-.13-.05-.06-.02h-.06Z"/>
      <polygon class="st0" points="23.23 87.5 19.25 87.09 18.81 91.51 23.25 91.5 23.23 87.5"/>
    </g>
    <g>
      <path class="st2" d="M82.42,87.71v.06s0,.06,0,.06v.13s.01.12.01.12v.06s-.02.06-.02.06v.03s-.03.02-.03.02l-.02.02-.02.02-.05.04-.05.04-.11.07-.02.02-.02.02-.02.02-.02.03v.03s-.02.03-.02.03v.03s0,.03,0,.03c0,.04,0,.09,0,.14v.07s0,.07,0,.07v.03s-.01.03-.01.03v.03s-.03.03-.03.03l-.04.04-.04.04-.08.06-.08.06-.04.03-.04.04-.02.02-.03.02h-.03s-.03.02-.03.02h-.07s-.07.02-.07.02c-.05,0-.1.01-.15.02h-.03s-.03.02-.03.02h-.03s-.03.03-.03.03l-.02.02-.02.02-.02.02-.02.03-.05.11-.03.06-.03.05-.02.02-.02.02-.02.02-.02.02s-.07.03-.12.05l-.13.05c-.09.03-.18.06-.25.08h-.03s-.03.01-.03.01h-.02s-.02,0-.02,0h-.05s-.04-.03-.04-.03l-.04-.02-.05-.02h-.02s-.03,0-.03,0h-.03s-.03,0-.03,0h-.03s-.03.02-.03.02l-.03.02-.03.02s-.07.07-.11.1l-.06.05-.06.05-.03.02h-.03s-.03.02-.03.02h-.03s0-1,0-1v-.5s0-.5,0-.5h.03s.02,0,.02,0h.04s.03.02.03.02h.02s.02,0,.02,0h.02s.02,0,.02,0h.02s.02.02.02.02c.02.01.05.03.08.05l.05.02h.03s.03.01.03.01h.03s.03,0,.03,0h.03s.04-.02.04-.02c.02,0,.06-.02.1-.04.04-.01.08-.03.13-.04.04-.02.09-.03.13-.05l.05-.03s.03-.02.04-.03l.03-.03.02-.03.02-.03v-.03s.03-.03.03-.03v-.03s.02-.06.02-.06c0-.04,0-.07,0-.1v-.04s0-.02,0-.02v-.02s.01-.02.01-.02v-.02s0-.02,0-.02v-.02s-.03-.04-.03-.04l-.03-.04-.03-.04-.02-.04v-.02s-.02-.02-.02-.02v-.02s0-.02,0-.02c0-.01,0-.03,0-.04v-.05s0-.08-.01-.11h.5s.5,0,.5,0h1s0,.02,0,.02v.02s-.02.05-.02.05c-.01.04-.03.07-.04.11l-.05.12-.02.06v.06Z"/>
      <rect class="st0" x="79.56" y="87.27" width="4" height="4" transform="translate(-.34 .31) rotate(-.22)"/>
    </g>
    <g>
      <path class="st2" d="M79.55,9.71h.06s.06,0,.06,0h.13s.13-.02.13-.02h.06s.06.02.06.02h.03s.03.02.03.02l.02.02.02.02.04.05.04.05.08.1.02.02.02.02.02.02h.03s.03.02.03.02h.03s.03,0,.03,0h.03s.09,0,.14-.01h.07s.07,0,.07,0h.03s.03,0,.03,0h.03s.03.02.03.02l.05.03.04.04.07.08.06.08.04.04.04.04.02.02.02.03v.03s.02.03.02.03v.07s.02.08.02.08c0,.05.01.1.02.15l.02.07v.03s.03.03.03.03l.02.02.02.02.02.02.03.02.06.03.06.03.06.03.05.03.02.02.02.02.02.02.02.02s.03.08.05.12l.05.13c.03.09.06.18.08.26v.03s.01.03.01.03v.03s0,.02,0,.02v.05s-.03.05-.03.05l-.02.05-.02.05v.03s0,.03,0,.03v.03s0,.03,0,.03v.03s.02.03.02.03l.02.03.02.03s.07.07.1.11l.05.06.05.06.02.03v.03s.02.03.02.03v.03s-1,0-1,0h-.5s-.5,0-.5,0v-.03s0-.02,0-.02v-.04s.02-.03.02-.03v-.02s0-.02,0-.02v-.02s0-.02,0-.02v-.02s.01-.02.01-.02c.01-.02.03-.05.05-.08l.02-.05v-.03s.01-.03.01-.03v-.03s0-.03,0-.03v-.04s-.02-.04-.02-.04c-.02-.05-.05-.14-.08-.23-.02-.05-.03-.09-.05-.13l-.03-.05v-.02s-.03-.02-.03-.02l-.03-.03-.03-.02-.03-.02h-.03s-.03-.02-.03-.02h-.03s-.06-.01-.06-.01c-.04,0-.07,0-.11,0h-.05s-.02,0-.02,0h-.02s-.02-.01-.02-.01h-.02s-.02,0-.02,0h-.02s-.04.03-.04.03l-.04.03-.04.03-.04.03h-.02s-.02.02-.02.02h-.02s-.02,0-.02,0c-.01,0-.03,0-.04,0h-.05s-.08.01-.11.01l-.02-.5-.02-.5-.03-1h.02s.03,0,.03,0h.05s.08.04.12.05l.12.04.06.02h.06Z"/>
      <polygon class="st0" points="79.19 12.59 83.19 12.57 83.17 8.46 79.06 8.59 79.19 12.59"/>
    </g>
  </g>
  <g>
    <g>
      <path class="st2" d="M18.02,11.14c.05-.08.1-.17.11-.3,0-.11-.07-.16-.15-.21-.08-.04-.17-.08-.21-.13-.03-.07-.1-.12-.15-.14-.04-.02-.13,0-.18.02l.37.93c.09-.04.14-.08.21-.16Z"/>
      <path class="st2" d="M16.28,13.53c-.09-.07-.18.07-.27-.02-.08-.11.01-.22-.03-.34-.05-.11-.12-.09-.16-.21-.02-.12.13-.15.1-.25.02-.08-.13-.12-.11-.22.04-.09-.28-.16-.22-.3.09-.13.35.03.43-.04.07-.09.03-.18.14-.26.1-.09.2.13.31.06.11-.07,0-.26.13-.33.13-.07.14-.04.27-.1.13-.06.21.09.34.03.14-.06.07-.29.22-.34.15-.06.36.09.38.09l-.37-.93s-.14.16-.29.22c-.15.06-.19-.06-.34,0-.15.06-.1.19-.25.26-.15.07-.22-.08-.38,0-.16.08.03.31-.11.4-.14.09-.24.04-.39.16-.14.11-.17.05-.31.2-.14.15-.03.26-.13.42-.08.18-.27.12-.34.35-.02.23.2.24.2.43.04.18-.04.2,0,.39.06.17-.02.2.06.38.07.18.3.04.4.18.11.14-.02.29.13.43.16.11.21.04.37.13.16.08.12.26.26.31l.38-.92c-.09-.03-.13.09-.25.03-.12-.06-.06-.13-.16-.2Z"/>
      <path class="st2" d="M20.71,13.43c-.14.05-.05.21-.2.25-.15.05-.28-.07-.42-.03-.14.04-.13.1-.27.14-.15.04-.19-.11-.33-.08-.14.03-.15.16-.3.19-.15.03-.05.32-.2.34-.15.02-.22-.31-.36-.29-.15.01-.17.11-.32.12-.15.01-.1-.23-.24-.23-.14,0-.15.22-.29.21-.15-.01-.14-.04-.29-.05-.14-.02-.13-.18-.26-.2-.13-.02-.2.2-.34.17-.14-.04-.18-.29-.18-.29l-.38.92s.26,0,.42.03c.17.04.14.17.31.2.17.03.2-.11.36-.09.17.01.15.18.32.19.17,0,.13-.28.29-.28.16,0,.22.1.38.09.16-.01.15.07.32.05.16-.02.17-.14.33-.17.16-.02.2.19.36.16.16-.03.12-.25.27-.28.16-.04.17.03.33,0,.16-.04.18.05.34,0,.16-.05.07-.29.22-.34.15-.05.23.14.39.08.15-.06.12-.15.27-.2.15-.05.25.08.36.03l-.39-.92c-.1.04-.04.16-.18.22-.14.05-.17-.02-.31.03Z"/>
      <path class="st2" d="M21.62,13.27c-.06-.05-.14-.08-.21-.09-.07-.02-.14-.02-.21.01h0s.39.92.39.92h0c.07-.03.14-.08.18-.14.04-.07.06-.15.06-.23,0-.08-.02-.17-.05-.25-.04-.08-.09-.16-.16-.21Z"/>
    </g>
    <ellipse class="st2" cx="22.32" cy="13.25" rx="1.25" ry="1.28" transform="translate(-.41 .72) rotate(-1.82)"/>
  </g>
  <g>
    <g>
      <path class="st2" d="M18.22,17.58c.05-.08.1-.17.11-.3,0-.11-.07-.16-.15-.21-.08-.04-.17-.08-.21-.13-.03-.07-.1-.12-.15-.14-.04-.02-.13,0-.18.02l.37.93c.09-.04.14-.08.21-.16Z"/>
      <path class="st2" d="M16.49,19.97c-.09-.07-.18.07-.27-.02-.08-.11.01-.22-.03-.34-.05-.11-.12-.09-.16-.21-.02-.12.13-.15.1-.25.02-.08-.13-.12-.11-.22.04-.09-.28-.16-.22-.3.09-.13.35.03.43-.04.07-.09.03-.18.14-.26.1-.09.2.13.31.06.11-.07,0-.26.13-.33.13-.07.14-.04.27-.1.13-.06.21.09.34.03.14-.06.07-.29.22-.34.15-.06.36.09.38.09l-.37-.93s-.14.16-.29.22c-.15.06-.19-.06-.34,0-.15.06-.1.19-.25.26-.15.07-.22-.08-.38,0-.16.08.03.31-.11.4-.14.09-.24.04-.39.16-.14.11-.17.05-.31.2-.14.15-.03.26-.13.42-.08.18-.27.12-.34.35-.02.23.2.24.2.43.04.18-.04.2,0,.39.06.17-.02.2.06.38.07.18.3.04.4.18.11.14-.02.29.13.43.16.11.21.04.37.13.16.08.12.26.26.31l.38-.92c-.09-.03-.13.09-.25.03-.12-.06-.06-.13-.16-.2Z"/>
      <path class="st2" d="M20.91,19.87c-.14.05-.05.21-.2.25-.15.05-.28-.07-.42-.03-.14.04-.13.1-.27.14-.15.04-.19-.11-.33-.08-.14.03-.15.16-.3.19-.15.03-.05.32-.2.34-.15.02-.22-.31-.36-.29-.15.01-.17.11-.32.12-.15.01-.1-.23-.24-.23-.14,0-.15.22-.29.21-.15-.01-.14-.04-.29-.05-.14-.02-.13-.18-.26-.2-.13-.02-.2.2-.34.17-.14-.04-.18-.29-.18-.29l-.38.92s.26,0,.42.03c.17.04.14.17.31.2.17.03.2-.11.36-.09.17.01.15.18.32.19.17,0,.13-.28.29-.28.16,0,.22.1.38.09.16-.01.15.07.32.05.16-.02.17-.14.33-.17.16-.02.2.19.36.16.16-.03.12-.25.27-.28.16-.04.17.03.33,0,.16-.04.18.05.34,0,.16-.05.07-.29.22-.34.15-.05.23.14.39.08.15-.06.12-.15.27-.2.15-.05.25.08.36.03l-.39-.92c-.1.04-.04.16-.18.22-.14.05-.17-.02-.31.03Z"/>
      <path class="st2" d="M21.83,19.71c-.06-.05-.14-.08-.21-.09-.07-.02-.14-.02-.21.01h0s.39.92.39.92h0c.07-.03.14-.08.18-.14.04-.07.06-.15.06-.23,0-.08-.02-.17-.05-.25-.04-.08-.09-.16-.16-.21Z"/>
    </g>
    <ellipse class="st2" cx="22.52" cy="19.7" rx="1.25" ry="1.28" transform="translate(-.62 .73) rotate(-1.82)"/>
  </g>
  <g>
    <path class="st2" d="M18.03,25.1c.05-.08.1-.17.11-.3,0-.11-.07-.16-.15-.21-.08-.04-.17-.08-.21-.13-.03-.07-.1-.12-.15-.14-.04-.02-.13,0-.18.02l.37.93c.09-.04.14-.08.21-.16Z"/>
    <path class="st2" d="M16.29,27.49c-.09-.07-.18.07-.27-.02-.08-.11.01-.22-.03-.34-.05-.11-.12-.09-.16-.21-.02-.12.13-.15.1-.25.02-.08-.13-.12-.11-.22.04-.09-.28-.16-.22-.3.09-.13.35.03.43-.04.07-.09.03-.18.14-.26.1-.09.2.13.31.06.11-.07,0-.26.13-.33.13-.07.14-.04.27-.1.13-.06.21.09.34.03.14-.06.07-.29.22-.34.15-.06.36.09.38.09l-.37-.93s-.14.16-.29.22c-.15.06-.19-.06-.34,0-.15.06-.1.19-.25.26-.15.07-.22-.08-.38,0-.16.08.03.31-.11.4-.14.09-.24.04-.39.16-.14.11-.17.05-.31.2-.14.15-.03.26-.13.42-.08.18-.27.12-.34.35-.02.23.2.24.2.43.04.18-.04.2,0,.39.06.17-.02.2.06.38.07.18.3.04.4.18.11.14-.02.29.13.43.16.11.21.04.37.13.16.08.12.26.26.31l.38-.92c-.09-.03-.13.09-.25.03-.12-.06-.06-.13-.16-.2Z"/>
    <path class="st2" d="M20.72,27.4c-.14.05-.05.21-.2.25-.15.05-.28-.07-.42-.03-.14.04-.13.1-.27.14-.15.04-.19-.11-.33-.08-.14.03-.15.16-.3.19-.15.03-.05.32-.2.34-.15.02-.22-.31-.36-.29-.15.01-.17.11-.32.12-.15.01-.1-.23-.24-.23-.14,0-.15.22-.29.21-.15-.01-.14-.04-.29-.05-.14-.02-.13-.18-.26-.2-.13-.02-.2.2-.34.17-.14-.04-.18-.29-.18-.29l-.38.92s.26,0,.42.03c.17.04.14.17.31.2.17.03.2-.11.36-.09.17.01.15.18.32.19.17,0,.13-.28.29-.28.16,0,.22.1.38.09.16-.01.15.07.32.05.16-.02.17-.14.33-.17.16-.02.2.19.36.16.16-.03.12-.25.27-.28.16-.04.17.03.33,0,.16-.04.18.05.34,0,.16-.05.07-.29.22-.34.15-.05.23.14.39.08.15-.06.12-.15.27-.2.15-.05.25.08.36.03l-.39-.92c-.1.04-.04.16-.18.22-.14.05-.17-.02-.31.03Z"/>
    <path class="st2" d="M21.63,27.23c-.06-.05-.14-.08-.21-.09-.07-.02-.14-.02-.21.01h0s.39.92.39.92h0c.07-.03.14-.08.18-.14.04-.07.06-.15.06-.23,0-.08-.02-.17-.05-.25-.04-.08-.09-.15-.16-.21Z"/>
  </g>
  <ellipse class="st2" cx="22.33" cy="27.22" rx="1.25" ry="1.28" transform="translate(-.85 .72) rotate(-1.82)"/>
  <g>
    <path class="st2" d="M18.23,31.54c.05-.08.1-.17.11-.3,0-.11-.07-.16-.15-.21-.08-.04-.17-.08-.21-.13-.03-.07-.1-.12-.15-.14-.04-.02-.13,0-.18.02l.37.93c.09-.04.14-.08.21-.16Z"/>
    <path class="st2" d="M16.5,33.93c-.09-.07-.18.07-.27-.02-.08-.11.01-.22-.03-.34-.05-.11-.12-.09-.16-.21-.02-.12.13-.15.1-.25.02-.08-.13-.12-.11-.22.04-.09-.28-.16-.22-.3.09-.13.35.03.43-.04.07-.09.03-.18.14-.26.1-.09.2.13.31.06.11-.07,0-.26.13-.33.13-.07.14-.04.27-.1.13-.06.21.09.34.03.14-.06.07-.29.22-.34.15-.06.36.09.38.09l-.37-.93s-.14.16-.29.22c-.15.06-.19-.06-.34,0-.15.06-.1.19-.25.26-.15.07-.22-.08-.38,0-.16.08.03.31-.11.4-.14.09-.24.04-.39.16-.14.11-.17.05-.31.2-.14.15-.03.26-.13.42-.08.18-.27.12-.34.35-.02.23.2.24.2.43.04.18-.04.2,0,.39.06.17-.02.2.06.38.07.18.3.04.4.18.11.14-.02.29.13.43.16.11.21.04.37.13.16.08.12.26.26.31l.38-.92c-.09-.03-.13.09-.25.03-.12-.06-.06-.13-.16-.2Z"/>
    <path class="st2" d="M20.92,33.84c-.14.05-.05.21-.2.25-.15.05-.28-.07-.42-.03-.14.04-.13.1-.27.14-.15.04-.19-.11-.33-.08-.14.03-.15.16-.3.19-.15.03-.05.32-.2.34-.15.02-.22-.31-.36-.29-.15.01-.17.11-.32.12-.15.01-.1-.23-.24-.23-.14,0-.15.22-.29.21-.15-.01-.14-.04-.29-.05-.14-.02-.13-.18-.26-.2-.13-.02-.2.2-.34.17-.14-.04-.18-.29-.18-.29l-.38.92s.26,0,.42.03c.17.04.14.17.31.2.17.03.2-.11.36-.09.17.01.15.18.32.19.17,0,.13-.28.29-.28.16,0,.22.1.38.09.16-.01.15.07.32.05.16-.02.17-.14.33-.17.16-.02.2.19.36.16.16-.03.12-.25.27-.28.16-.04.17.03.33,0,.16-.04.18.05.34,0,.16-.05.07-.29.22-.34.15-.05.23.14.39.08.15-.06.12-.15.27-.2.15-.05.25.08.36.03l-.39-.92c-.1.04-.04.16-.18.22-.14.05-.17-.02-.31.03Z"/>
    <path class="st2" d="M21.84,33.67c-.06-.05-.14-.08-.21-.09-.07-.02-.14-.02-.21.01h0s.39.92.39.92h0c.07-.03.14-.08.18-.14.04-.07.06-.15.06-.23,0-.08-.02-.17-.05-.25-.04-.08-.09-.15-.16-.21Z"/>
  </g>
  <ellipse class="st2" cx="22.53" cy="33.66" rx="1.25" ry="1.28" transform="translate(-1.06 .73) rotate(-1.82)"/>
  <g>
    <path class="st2" d="M18.02,38.55c.05-.08.1-.17.11-.3,0-.11-.07-.16-.15-.21-.08-.04-.17-.08-.21-.13-.03-.07-.1-.12-.15-.14-.04-.02-.13,0-.18.02l.37.93c.09-.04.14-.08.21-.16Z"/>
    <path class="st2" d="M16.29,40.94c-.09-.07-.18.07-.27-.02-.08-.11.01-.22-.03-.34-.05-.11-.12-.09-.16-.21-.02-.12.13-.15.1-.25.02-.08-.13-.12-.11-.22.04-.09-.28-.16-.22-.3.09-.13.35.03.43-.04.07-.09.03-.18.14-.26.1-.09.2.13.31.06.11-.07,0-.26.13-.33.13-.07.14-.04.27-.1.13-.06.21.09.34.03.14-.06.07-.29.22-.34.15-.06.36.09.38.09l-.37-.93s-.14.16-.29.22c-.15.06-.19-.06-.34,0-.15.06-.1.19-.25.26-.15.07-.22-.08-.38,0-.16.08.03.31-.11.4-.14.09-.24.04-.39.16-.14.11-.17.05-.31.2-.14.15-.03.26-.13.42-.08.18-.27.12-.34.35-.02.23.2.24.2.43.04.18-.04.2,0,.39.06.17-.02.2.06.38.07.18.3.04.4.18.11.14-.02.29.13.43.16.11.21.04.37.13.16.08.12.26.26.31l.38-.92c-.09-.03-.13.09-.25.03-.12-.06-.06-.13-.16-.2Z"/>
    <path class="st2" d="M20.71,40.84c-.14.05-.05.21-.2.25-.15.05-.28-.07-.42-.03-.14.04-.13.1-.27.14-.15.04-.19-.11-.33-.08-.14.03-.15.16-.3.19-.15.03-.05.32-.2.34-.15.02-.22-.31-.36-.29-.15.01-.17.11-.32.12-.15.01-.1-.23-.24-.23-.14,0-.15.22-.29.21-.15-.01-.14-.04-.29-.05-.14-.02-.13-.18-.26-.2-.13-.02-.2.2-.34.17-.14-.04-.18-.29-.18-.29l-.38.92s.26,0,.42.03c.17.04.14.17.31.2.17.03.2-.11.36-.09.17.01.15.18.32.19.17,0,.13-.28.29-.28.16,0,.22.1.38.09.16-.01.15.07.32.05.16-.02.17-.14.33-.17.16-.02.2.19.36.16.16-.03.12-.25.27-.28.16-.04.17.03.33,0,.16-.04.18.05.34,0,.16-.05.07-.29.22-.34.15-.05.23.14.39.08.15-.06.12-.15.27-.2.15-.05.25.08.36.03l-.39-.92c-.1.04-.04.16-.18.22-.14.05-.17-.02-.31.03Z"/>
    <path class="st2" d="M21.62,40.67c-.06-.05-.14-.08-.21-.09-.07-.02-.14-.02-.21.01h0s.39.92.39.92h0c.07-.03.14-.08.18-.14.04-.07.06-.15.06-.23,0-.08-.02-.17-.05-.25-.04-.08-.09-.16-.16-.21Z"/>
  </g>
  <ellipse class="st2" cx="22.32" cy="40.66" rx="1.25" ry="1.28" transform="translate(-1.28 .73) rotate(-1.82)"/>
  <g>
    <path class="st2" d="M18.23,44.99c.05-.08.1-.17.11-.3,0-.11-.07-.16-.15-.21-.08-.04-.17-.08-.21-.13-.03-.07-.1-.12-.15-.14-.04-.02-.13,0-.18.02l.37.93c.09-.04.14-.08.21-.16Z"/>
    <path class="st2" d="M16.49,47.38c-.09-.07-.18.07-.27-.02-.08-.11.01-.22-.03-.34-.05-.11-.12-.09-.16-.21-.02-.12.13-.15.1-.25.02-.08-.13-.12-.11-.22.04-.09-.28-.16-.22-.3.09-.13.35.03.43-.04.07-.09.03-.18.14-.26.1-.09.2.13.31.06.11-.07,0-.26.13-.33.13-.07.14-.04.27-.1.13-.06.21.09.34.03.14-.06.07-.29.22-.34.15-.06.36.09.38.09l-.37-.93s-.14.16-.29.22c-.15.06-.19-.06-.34,0-.15.06-.1.19-.25.26-.15.07-.22-.08-.38,0-.16.08.03.31-.11.4-.14.09-.24.04-.39.16-.14.11-.17.05-.31.2-.14.15-.03.26-.13.42-.08.18-.27.12-.34.35-.02.23.2.24.2.43.04.18-.04.2,0,.39.06.17-.02.2.06.38.07.18.3.04.4.18.11.14-.02.29.13.43.16.11.21.04.37.13.16.08.12.26.26.31l.38-.92c-.09-.03-.13.09-.25.03-.12-.06-.06-.13-.16-.2Z"/>
    <path class="st2" d="M20.92,47.28c-.14.05-.05.21-.2.25-.15.05-.28-.07-.42-.03-.14.04-.13.1-.27.14-.15.04-.19-.11-.33-.08-.14.03-.15.16-.3.19-.15.03-.05.32-.2.34-.15.02-.22-.31-.36-.29-.15.01-.17.11-.32.12-.15.01-.1-.23-.24-.23-.14,0-.15.22-.29.21-.15-.01-.14-.04-.29-.05-.14-.02-.13-.18-.26-.2-.13-.02-.2.2-.34.17-.14-.04-.18-.29-.18-.29l-.38.92s.26,0,.42.03c.17.04.14.17.31.2.17.03.2-.11.36-.09.17.01.15.18.32.19.17,0,.13-.28.29-.28.16,0,.22.1.38.09.16-.01.15.07.32.05.16-.02.17-.14.33-.17.16-.02.2.19.36.16.16-.03.12-.25.27-.28.16-.04.17.03.33,0,.16-.04.18.05.34,0,.16-.05.07-.29.22-.34.15-.05.23.14.39.08.15-.06.12-.15.27-.2.15-.05.25.08.36.03l-.39-.92c-.1.04-.04.16-.18.22-.14.05-.17-.02-.31.03Z"/>
    <path class="st2" d="M21.83,47.12c-.06-.05-.14-.08-.21-.09-.07-.02-.14-.02-.21.01h0s.39.92.39.92h0c.07-.03.14-.08.18-.14.04-.07.06-.15.06-.23,0-.08-.02-.17-.05-.25-.04-.08-.09-.16-.16-.21Z"/>
  </g>
  <ellipse class="st2" cx="22.53" cy="47.1" rx="1.25" ry="1.28" transform="translate(-1.49 .74) rotate(-1.82)"/>
  <g>
    <path class="st2" d="M18.03,52.51c.05-.08.1-.17.11-.3,0-.11-.07-.16-.15-.21-.08-.04-.17-.08-.21-.13-.03-.07-.1-.12-.15-.14-.04-.02-.13,0-.18.02l.37.93c.09-.04.14-.08.21-.16Z"/>
    <path class="st2" d="M16.3,54.9c-.09-.07-.18.07-.27-.02-.08-.11.01-.22-.03-.34-.05-.11-.12-.09-.16-.21-.02-.12.13-.15.1-.25.02-.08-.13-.12-.11-.22.04-.09-.28-.16-.22-.3.09-.13.35.03.43-.04.07-.09.03-.18.14-.26.1-.09.2.13.31.06.11-.07,0-.26.13-.33.13-.07.14-.04.27-.1.13-.06.21.09.34.03.14-.06.07-.29.22-.34.15-.06.36.09.38.09l-.37-.93s-.14.16-.29.22c-.15.06-.19-.06-.34,0-.15.06-.1.19-.25.26-.15.07-.22-.08-.38,0-.16.08.03.31-.11.4-.14.09-.24.04-.39.16-.14.11-.17.05-.31.2-.14.15-.03.26-.13.42-.08.18-.27.12-.34.35-.02.23.2.24.2.43.04.18-.04.2,0,.39.06.17-.02.2.06.38.07.18.3.04.4.18.11.14-.02.29.13.43.16.11.21.04.37.13.16.08.12.26.26.31l.38-.92c-.09-.03-.13.09-.25.03-.12-.06-.06-.13-.16-.2Z"/>
    <path class="st2" d="M20.72,54.8c-.14.05-.05.21-.2.25-.15.05-.28-.07-.42-.03-.14.04-.13.1-.27.14-.15.04-.19-.11-.33-.08-.14.03-.15.16-.3.19-.15.03-.05.32-.2.34-.15.02-.22-.31-.36-.29-.15.01-.17.11-.32.12-.15.01-.1-.23-.24-.23-.14,0-.15.22-.29.21-.15-.01-.14-.04-.29-.05-.14-.02-.13-.18-.26-.2-.13-.02-.2.2-.34.17-.14-.04-.18-.29-.18-.29l-.38.92s.26,0,.42.03c.17.04.14.17.31.2.17.03.2-.11.36-.09.17.01.15.18.32.19.17,0,.13-.28.29-.28.16,0,.22.1.38.09.16-.01.15.07.32.05.16-.02.17-.14.33-.17.16-.02.2.19.36.16.16-.03.12-.25.27-.28.16-.04.17.03.33,0,.16-.04.18.05.34,0,.16-.05.07-.29.22-.34.15-.05.23.14.39.08.15-.06.12-.15.27-.2.15-.05.25.08.36.03l-.39-.92c-.1.04-.04.16-.18.22-.14.05-.17-.02-.31.03Z"/>
    <path class="st2" d="M21.63,54.64c-.06-.05-.14-.08-.21-.09-.07-.02-.14-.02-.21.01h0s.39.92.39.92h0c.07-.03.14-.08.18-.14.04-.07.06-.15.06-.23,0-.08-.02-.17-.05-.25-.04-.08-.09-.15-.16-.21Z"/>
  </g>
  <ellipse class="st2" cx="22.33" cy="54.63" rx="1.25" ry="1.28" transform="translate(-1.73 .74) rotate(-1.82)"/>
  <g>
    <path class="st2" d="M18.24,58.95c.05-.08.1-.17.11-.3,0-.11-.07-.16-.15-.21-.08-.04-.17-.08-.21-.13-.03-.07-.1-.12-.15-.14-.04-.02-.13,0-.18.02l.37.93c.09-.04.14-.08.21-.16Z"/>
    <path class="st2" d="M16.5,61.34c-.09-.07-.18.07-.27-.02-.08-.11.01-.22-.03-.34-.05-.11-.12-.09-.16-.21-.02-.12.13-.15.1-.25.02-.08-.13-.12-.11-.22.04-.09-.28-.16-.22-.3.09-.13.35.03.43-.04.07-.09.03-.18.14-.26.1-.09.2.13.31.06.11-.07,0-.26.13-.33.13-.07.14-.04.27-.1.13-.06.21.09.34.03.14-.06.07-.29.22-.34.15-.06.36.09.38.09l-.37-.93s-.14.16-.29.22c-.15.06-.19-.06-.34,0-.15.06-.1.19-.25.26-.15.07-.22-.08-.38,0-.16.08.03.31-.11.4-.14.09-.24.04-.39.16-.14.11-.17.05-.31.2-.14.15-.03.26-.13.42-.08.18-.27.12-.34.35-.02.23.2.24.2.43.04.18-.04.2,0,.39.06.17-.02.2.06.38.07.18.3.04.4.18.11.14-.02.29.13.43.16.11.21.04.37.13.16.08.12.26.26.31l.38-.92c-.09-.03-.13.09-.25.03-.12-.06-.06-.13-.16-.2Z"/>
    <path class="st2" d="M20.93,61.25c-.14.05-.05.21-.2.25-.15.05-.28-.07-.42-.03-.14.04-.13.1-.27.14-.15.04-.19-.11-.33-.08-.14.03-.15.16-.3.19-.15.03-.05.32-.2.34-.15.02-.22-.31-.36-.29-.15.01-.17.11-.32.12-.15.01-.1-.23-.24-.23-.14,0-.15.22-.29.21-.15-.01-.14-.04-.29-.05-.14-.02-.13-.18-.26-.2-.13-.02-.2.2-.34.17-.14-.04-.18-.29-.18-.29l-.38.92s.26,0,.42.03c.17.04.14.17.31.2.17.03.2-.11.36-.09.17.01.15.18.32.19.17,0,.13-.28.29-.28.16,0,.22.1.38.09.16-.01.15.07.32.05.16-.02.17-.14.33-.17.16-.02.2.19.36.16.16-.03.12-.25.27-.28.16-.04.17.03.33,0,.16-.04.18.05.34,0,.16-.05.07-.29.22-.34.15-.05.23.14.39.08.15-.06.12-.15.27-.2.15-.05.25.08.36.03l-.39-.92c-.1.04-.04.16-.18.22-.14.05-.17-.02-.31.03Z"/>
    <path class="st2" d="M21.84,61.08c-.06-.05-.14-.08-.21-.09-.07-.02-.14-.02-.21.01h0s.39.92.39.92h0c.07-.03.14-.08.18-.14.04-.07.06-.15.06-.23,0-.08-.02-.17-.05-.25-.04-.08-.09-.16-.16-.21Z"/>
  </g>
  <ellipse class="st2" cx="22.54" cy="61.07" rx="1.25" ry="1.28" transform="translate(-1.93 .75) rotate(-1.82)"/>
  <g>
    <path class="st2" d="M18.03,66.16c.05-.08.1-.17.11-.3,0-.11-.07-.16-.15-.21-.08-.04-.17-.08-.21-.13-.03-.07-.1-.12-.15-.14-.04-.02-.13,0-.18.02l.37.93c.09-.04.14-.08.21-.16Z"/>
    <path class="st2" d="M16.3,68.55c-.09-.07-.18.07-.27-.02-.08-.11.01-.22-.03-.34-.05-.11-.12-.09-.16-.21-.02-.12.13-.15.1-.25.02-.08-.13-.12-.11-.22.04-.09-.28-.16-.22-.3.09-.13.35.03.43-.04.07-.09.03-.18.14-.26.1-.09.2.13.31.06.11-.07,0-.26.13-.33.13-.07.14-.04.27-.1.13-.06.21.09.34.03.14-.06.07-.29.22-.34.15-.06.36.09.38.09l-.37-.93s-.14.16-.29.22c-.15.06-.19-.06-.34,0-.15.06-.1.19-.25.26-.15.07-.22-.08-.38,0-.16.08.03.31-.11.4-.14.09-.24.04-.39.16-.14.11-.17.05-.31.2-.14.15-.03.26-.13.42-.08.18-.27.12-.34.35-.02.23.2.24.2.43.04.18-.04.2,0,.39.06.17-.02.2.06.38.07.18.3.04.4.18.11.14-.02.29.13.43.16.11.21.04.37.13.16.08.12.26.26.31l.38-.92c-.09-.03-.13.09-.25.03-.12-.06-.06-.13-.16-.2Z"/>
    <path class="st2" d="M20.72,68.46c-.14.05-.05.21-.2.25-.15.05-.28-.07-.42-.03-.14.04-.13.1-.27.14-.15.04-.19-.11-.33-.08-.14.03-.15.16-.3.19-.15.03-.05.32-.2.34-.15.02-.22-.31-.36-.29-.15.01-.17.11-.32.12-.15.01-.1-.23-.24-.23-.14,0-.15.22-.29.21-.15-.01-.14-.04-.29-.05-.14-.02-.13-.18-.26-.2-.13-.02-.2.2-.34.17-.14-.04-.18-.29-.18-.29l-.38.92s.26,0,.42.03c.17.04.14.17.31.2.17.03.2-.11.36-.09.17.01.15.18.32.19.17,0,.13-.28.29-.28.16,0,.22.1.38.09.16-.01.15.07.32.05.16-.02.17-.14.33-.17.16-.02.2.19.36.16.16-.03.12-.25.27-.28.16-.04.17.03.33,0,.16-.04.18.05.34,0,.16-.05.07-.29.22-.34.15-.05.23.14.39.08.15-.06.12-.15.27-.2.15-.05.25.08.36.03l-.39-.92c-.1.04-.04.16-.18.22-.14.05-.17-.02-.31.03Z"/>
    <path class="st2" d="M21.63,68.29c-.06-.05-.14-.08-.21-.09-.07-.02-.14-.02-.21.01h0s.39.92.39.92h0c.07-.03.14-.08.18-.14.04-.07.06-.15.06-.23,0-.08-.02-.17-.05-.25-.04-.08-.09-.16-.16-.21Z"/>
  </g>
  <ellipse class="st2" cx="22.33" cy="68.28" rx="1.25" ry="1.28" transform="translate(-2.16 .74) rotate(-1.82)"/>
  <g>
    <path class="st2" d="M17.84,73.69c.05-.08.1-.17.11-.3,0-.11-.07-.16-.15-.21-.08-.04-.17-.08-.21-.13-.03-.07-.1-.12-.15-.14-.04-.02-.13,0-.18.02l.37.93c.09-.04.14-.08.21-.16Z"/>
    <path class="st2" d="M16.1,76.08c-.09-.07-.18.07-.27-.02-.08-.11.01-.22-.03-.34-.05-.11-.12-.09-.16-.21-.02-.12.13-.15.1-.25.02-.08-.13-.12-.11-.22.04-.09-.28-.16-.22-.3.09-.13.35.03.43-.04.07-.09.03-.18.14-.26.1-.09.2.13.31.06.11-.07,0-.26.13-.33.13-.07.14-.04.27-.1.13-.06.21.09.34.03.14-.06.07-.29.22-.34.15-.06.36.09.38.09l-.37-.93s-.14.16-.29.22c-.15.06-.19-.06-.34,0-.15.06-.1.19-.25.26-.15.07-.22-.08-.38,0-.16.08.03.31-.11.4-.14.09-.24.04-.39.16-.14.11-.17.05-.31.2-.14.15-.03.26-.13.42-.08.18-.27.12-.34.35-.02.23.2.24.2.43.04.18-.04.2,0,.39.06.17-.02.2.06.38.07.18.3.04.4.18.11.14-.02.29.13.43.16.11.21.04.37.13.16.08.12.26.26.31l.38-.92c-.09-.03-.13.09-.25.03-.12-.06-.06-.13-.16-.2Z"/>
    <path class="st2" d="M20.53,75.98c-.14.05-.05.21-.2.25-.15.05-.28-.07-.42-.03-.14.04-.13.1-.27.14-.15.04-.19-.11-.33-.08-.14.03-.15.16-.3.19-.15.03-.05.32-.2.34-.15.02-.22-.31-.36-.29-.15.01-.17.11-.32.12-.15.01-.1-.23-.24-.23-.14,0-.15.22-.29.21-.15-.01-.14-.04-.29-.05-.14-.02-.13-.18-.26-.2-.13-.02-.2.2-.34.17-.14-.04-.18-.29-.18-.29l-.38.92s.26,0,.42.03c.17.04.14.17.31.2.17.03.2-.11.36-.09.17.01.15.18.32.19.17,0,.13-.28.29-.28.16,0,.22.1.38.09.16-.01.15.07.32.05.16-.02.17-.14.33-.17.16-.02.2.19.36.16.16-.03.12-.25.27-.28.16-.04.17.03.33,0,.16-.04.18.05.34,0,.16-.05.07-.29.22-.34.15-.05.23.14.39.08.15-.06.12-.15.27-.2.15-.05.25.08.36.03l-.39-.92c-.1.04-.04.16-.18.22-.14.05-.17-.02-.31.03Z"/>
    <path class="st2" d="M21.44,75.81c-.06-.05-.14-.08-.21-.09-.07-.02-.14-.02-.21.01h0s.39.92.39.92h0c.07-.03.14-.08.18-.14.04-.07.06-.15.06-.23,0-.08-.02-.17-.05-.25-.04-.08-.09-.16-.16-.21Z"/>
  </g>
  <ellipse class="st2" cx="22.14" cy="75.8" rx="1.25" ry="1.28" transform="translate(-2.4 .74) rotate(-1.82)"/>
  <g>
    <path class="st2" d="M18.04,80.13c.05-.08.1-.17.11-.3,0-.11-.07-.16-.15-.21-.08-.04-.17-.08-.21-.13-.03-.07-.1-.12-.15-.14-.04-.02-.13,0-.18.02l.37.93c.09-.04.14-.08.21-.16Z"/>
    <path class="st2" d="M16.31,82.52c-.09-.07-.18.07-.27-.02-.08-.11.01-.22-.03-.34-.05-.11-.12-.09-.16-.21-.02-.12.13-.15.1-.25.02-.08-.13-.12-.11-.22.04-.09-.28-.16-.22-.3.09-.13.35.03.43-.04.07-.09.03-.18.14-.26.1-.09.2.13.31.06.11-.07,0-.26.13-.33.13-.07.14-.04.27-.1.13-.06.21.09.34.03.14-.06.07-.29.22-.34.15-.06.36.09.38.09l-.37-.93s-.14.16-.29.22c-.15.06-.19-.06-.34,0-.15.06-.1.19-.25.26-.15.07-.22-.08-.38,0-.16.08.03.31-.11.4-.14.09-.24.04-.39.16-.14.11-.17.05-.31.2-.14.15-.03.26-.13.42-.08.18-.27.12-.34.35-.02.23.2.24.2.43.04.18-.04.2,0,.39.06.17-.02.2.06.38.07.18.3.04.4.18.11.14-.02.29.13.43.16.11.21.04.37.13.16.08.12.26.26.31l.38-.92c-.09-.03-.13.09-.25.03-.12-.06-.06-.13-.16-.2Z"/>
    <path class="st2" d="M20.73,82.42c-.14.05-.05.21-.2.25-.15.05-.28-.07-.42-.03-.14.04-.13.1-.27.14-.15.04-.19-.11-.33-.08-.14.03-.15.16-.3.19-.15.03-.05.32-.2.34-.15.02-.22-.31-.36-.29-.15.01-.17.11-.32.12-.15.01-.1-.23-.24-.23-.14,0-.15.22-.29.21-.15-.01-.14-.04-.29-.05-.14-.02-.13-.18-.26-.2-.13-.02-.2.2-.34.17-.14-.04-.18-.29-.18-.29l-.38.92s.26,0,.42.03c.17.04.14.17.31.2.17.03.2-.11.36-.09.17.01.15.18.32.19.17,0,.13-.28.29-.28.16,0,.22.1.38.09.16-.01.15.07.32.05.16-.02.17-.14.33-.17.16-.02.2.19.36.16.16-.03.12-.25.27-.28.16-.04.17.03.33,0,.16-.04.18.05.34,0,.16-.05.07-.29.22-.34.15-.05.23.14.39.08.15-.06.12-.15.27-.2.15-.05.25.08.36.03l-.39-.92c-.1.04-.04.16-.18.22-.14.05-.17-.02-.31.03Z"/>
    <path class="st2" d="M21.64,82.26c-.06-.05-.14-.08-.21-.09-.07-.02-.14-.02-.21.01h0s.39.92.39.92h0c.07-.03.14-.08.18-.14.04-.07.06-.15.06-.23,0-.08-.02-.17-.05-.25-.04-.08-.09-.16-.16-.21Z"/>
  </g>
  <ellipse class="st2" cx="22.34" cy="82.24" rx="1.25" ry="1.28" transform="translate(-2.6 .75) rotate(-1.82)"/>
</svg>