<?xml version="1.0" encoding="UTF-8"?>
<svg id="_レイヤー_1" xmlns="http://www.w3.org/2000/svg" xmlns:xlink="http://www.w3.org/1999/xlink" version="1.1" viewBox="0 0 100 100">
  <!-- Generator: Adobe Illustrator 30.0.0, SVG Export Plug-In . SVG Version: 2.1.1 Build 123)  -->
  <defs>
    <style>
      .st0, .st1, .st2, .st3 {
        fill: none;
      }

      .st4 {
        fill: #1c1917;
      }

      .st5 {
        fill: #231815;
      }

      .st1, .st2 {
        stroke-linecap: round;
        stroke-linejoin: round;
      }

      .st1, .st2, .st3 {
        stroke: #1c1917;
      }

      .st6 {
        fill: #fff;
      }

      .st7 {
        fill: url(#_6_dpi_40_);
      }

      .st2 {
        stroke-width: .75px;
      }

      .st3 {
        stroke-miterlimit: 10;
      }
    </style>
    <pattern id="_6_dpi_40_" data-name="6 dpi 40%" x="0" y="0" width="48" height="48" patternTransform="translate(-3830.84 -6425.59) rotate(-24.24) scale(.4)" patternUnits="userSpaceOnUse" viewBox="0 0 48 48">
      <g>
        <rect class="st0" y="0" width="48" height="48"/>
        <g>
          <path class="st5" d="M24,52.8c2.65,0,4.8-2.15,4.8-4.8s-2.15-4.8-4.8-4.8-4.8,2.15-4.8,4.8,2.15,4.8,4.8,4.8Z"/>
          <path class="st5" d="M48,52.8c2.65,0,4.8-2.15,4.8-4.8s-2.15-4.8-4.8-4.8-4.8,2.15-4.8,4.8,2.15,4.8,4.8,4.8Z"/>
          <path class="st5" d="M24,28.8c2.65,0,4.8-2.15,4.8-4.8s-2.15-4.8-4.8-4.8-4.8,2.15-4.8,4.8,2.15,4.8,4.8,4.8Z"/>
          <path class="st5" d="M48,28.8c2.65,0,4.8-2.15,4.8-4.8s-2.15-4.8-4.8-4.8-4.8,2.15-4.8,4.8,2.15,4.8,4.8,4.8Z"/>
          <path class="st5" d="M36,40.8c2.65,0,4.8-2.15,4.8-4.8s-2.15-4.8-4.8-4.8-4.8,2.15-4.8,4.8,2.15,4.8,4.8,4.8Z"/>
          <path class="st5" d="M12,40.8c2.65,0,4.8-2.15,4.8-4.8s-2.15-4.8-4.8-4.8-4.8,2.15-4.8,4.8,2.15,4.8,4.8,4.8Z"/>
          <path class="st5" d="M36,16.8c2.65,0,4.8-2.15,4.8-4.8s-2.15-4.8-4.8-4.8-4.8,2.15-4.8,4.8,2.15,4.8,4.8,4.8Z"/>
          <path class="st5" d="M12,16.8c2.65,0,4.8-2.15,4.8-4.8s-2.15-4.8-4.8-4.8-4.8,2.15-4.8,4.8,2.15,4.8,4.8,4.8Z"/>
        </g>
        <g>
          <path class="st5" d="M0,52.8c2.65,0,4.8-2.15,4.8-4.8s-2.15-4.8-4.8-4.8-4.8,2.15-4.8,4.8,2.15,4.8,4.8,4.8Z"/>
          <path class="st5" d="M0,28.8c2.65,0,4.8-2.15,4.8-4.8s-2.15-4.8-4.8-4.8-4.8,2.15-4.8,4.8,2.15,4.8,4.8,4.8Z"/>
        </g>
        <g>
          <path class="st5" d="M24,4.8c2.65,0,4.8-2.15,4.8-4.8s-2.15-4.8-4.8-4.8-4.8,2.15-4.8,4.8,2.15,4.8,4.8,4.8Z"/>
          <path class="st5" d="M48,4.8c2.65,0,4.8-2.15,4.8-4.8s-2.15-4.8-4.8-4.8-4.8,2.15-4.8,4.8,2.15,4.8,4.8,4.8Z"/>
        </g>
        <path class="st5" d="M0,4.8c2.65,0,4.8-2.15,4.8-4.8S2.65-4.8,0-4.8-4.8-2.65-4.8,0-2.65,4.8,0,4.8Z"/>
      </g>
    </pattern>
  </defs>
  <polygon class="st7" points="85.53 15.54 24.37 16.25 24.95 94.08 86.04 94.59 85.53 15.54"/>
  <polygon class="st6" points="74.36 9.34 74.35 6.5 16.34 6.99 16.99 82.23 19.91 82.22 19.67 82.55 19.36 85.63 78 85.32 77.51 9.06 74.36 9.34"/>
  <path class="st3" d="M62.77,6.59"/>
  <path class="st4" d="M16.99,81.96l57.62-.5s-.69.7-.69.7l-.07-75.66s.5.5.5.5c0,0-8.51-.19-8.51-.19-.14,0-.26-.12-.25-.27,0-.14.11-.25.25-.25,0,0,8.51-.29,8.51-.29.28-.01.51.22.5.5,0,0,.45,75.66.45,75.66,0,.38-.31.7-.69.7,0,0-57.62-.36-57.62-.36-.15,0-.26-.12-.26-.27,0-.14.12-.26.26-.26h0Z"/>
  <path class="st4" d="M62.77,6.84l-43.57.63c-.64,0-.68-.99-.01-1,0,0,43.58-.12,43.58-.12.3,0,.33.49,0,.49h0Z"/>
  <path class="st4" d="M19.36,84.7l58.64-.15s-.77.78-.77.78c.29-.34-.6-76.62.29-76.58.17,0,.31.13.31.3l.96,76.26c0,.43-.34.78-.77.78,0,0-58.64.47-58.64.47-1.21-.01-1.28-1.84,0-1.88h0Z"/>
  <g>
    <path class="st2" d="M16.31,9.25c-.2.35-3.36.73-2.27,2.74.6,1.1,3.05,1.36,5.95,0"/>
    <ellipse class="st4" cx="20.51" cy="11.78" rx="1.21" ry="1.24" transform="translate(-.38 .69) rotate(-1.91)"/>
  </g>
  <g>
    <path class="st1" d="M16.52,15.49c-.2.35-3.36.73-2.27,2.74.6,1.1,3.05,1.36,5.95,0"/>
    <ellipse class="st4" cx="20.72" cy="18.02" rx="1.21" ry="1.24" transform="translate(-.59 .7) rotate(-1.91)"/>
  </g>
  <path class="st1" d="M16.34,22.77c-.2.35-3.36.73-2.27,2.74.6,1.1,3.05,1.36,5.95,0"/>
  <ellipse class="st4" cx="20.54" cy="25.31" rx="1.21" ry="1.24" transform="translate(-.83 .7) rotate(-1.91)"/>
  <path class="st1" d="M16.55,29.01c-.2.35-3.36.73-2.27,2.74.6,1.1,3.05,1.36,5.95,0"/>
  <ellipse class="st4" cx="20.75" cy="31.55" rx="1.21" ry="1.24" transform="translate(-1.04 .71) rotate(-1.91)"/>
  <path class="st1" d="M16.35,35.79c-.2.35-3.36.73-2.27,2.74.6,1.1,3.05,1.36,5.95,0"/>
  <ellipse class="st4" cx="20.56" cy="38.33" rx="1.21" ry="1.24" transform="translate(-1.26 .7) rotate(-1.91)"/>
  <path class="st1" d="M16.56,42.03c-.2.35-3.36.73-2.27,2.74.6,1.1,3.05,1.36,5.95,0"/>
  <ellipse class="st4" cx="20.76" cy="44.57" rx="1.21" ry="1.24" transform="translate(-1.47 .72) rotate(-1.91)"/>
  <path class="st1" d="M16.38,49.32c-.2.35-3.36.73-2.27,2.74.6,1.1,3.05,1.36,5.95,0"/>
  <ellipse class="st4" cx="20.59" cy="51.85" rx="1.21" ry="1.24" transform="translate(-1.71 .71) rotate(-1.91)"/>
  <path class="st1" d="M16.59,55.56c-.2.35-3.36.73-2.27,2.74.6,1.1,3.05,1.36,5.95,0"/>
  <ellipse class="st4" cx="20.79" cy="58.09" rx="1.21" ry="1.24" transform="translate(-1.92 .72) rotate(-1.91)"/>
  <path class="st1" d="M16.4,62.54c-.2.35-3.36.73-2.27,2.74.6,1.1,3.05,1.36,5.95,0"/>
  <ellipse class="st4" cx="20.6" cy="65.08" rx="1.21" ry="1.24" transform="translate(-2.15 .72) rotate(-1.91)"/>
  <path class="st1" d="M16.22,69.83c-.2.35-3.36.73-2.27,2.74.6,1.1,3.05,1.36,5.95,0"/>
  <ellipse class="st4" cx="20.43" cy="72.36" rx="1.21" ry="1.24" transform="translate(-2.39 .72) rotate(-1.91)"/>
  <path class="st1" d="M16.43,76.07c-.2.35-3.36.73-2.27,2.74.6,1.1,3.05,1.36,5.95,0"/>
  <ellipse class="st4" cx="20.63" cy="78.6" rx="1.21" ry="1.24" transform="translate(-2.6 .73) rotate(-1.91)"/>
</svg>