<?xml version="1.0" encoding="UTF-8"?>
<svg id="_レイヤー_1" data-name="レイヤー_1" xmlns="http://www.w3.org/2000/svg" version="1.1" viewBox="0 0 90 150">
  <!-- Generator: Adobe Illustrator 30.0.0, SVG Export Plug-In . SVG Version: 2.1.1 Build 123)  -->
  <defs>
    <style>
      .st0 {
        fill: #ceb372;
      }

      .st1 {
        fill: #1c1917;
      }

      .st2 {
        fill: #fff;
      }
    </style>
  </defs>
  <path class="st0" d="M22.64,107.84c-1.25,5.08-2.6,7.29-4.17,10.05-1.88,3.31-4.24,5.66-4.24,5.66,0,0,.74,4.24.82,6.1.37,8.56.52,14.73.52,14.73,0,0,2.68-2.75,9-9.38,3.61-3.78,5.21-4.99,7.89-7.66-.15-.52.09-1.94-.22-3.87-.08-.5-.2-3.41.97-7.52.54-1.89.79-2.75,1.04-3.72"/>
  <path class="st2" d="M32.54,74.65c-.2-1.59-.4-3.17-.6-4.76,7.14-18.45,14.29-36.91,21.43-55.36.93-1.67,3.62-5.95,8.63-7.44,1.21-.36,2.86-.83,4.76-.3,4.85,1.35,6.19,7.72,6.25,8.04.78,4-.77,7.4-1.19,8.33-3.17,7.08-9.91,26.15-19.05,52.68-1.21,1.37-2.82,2.63-3.57,4.46-4.48,10.93-9.62,24.88-11.7,31.2-.21.65-.86,1.07-1.54.97-4.41-.63-10.34-3.21-14.68-5.44-.5-.26-.73-.86-.53-1.39,4.03-10.56,7.73-20.39,11.78-31Z"/>
  <path class="st1" d="M40.67,100.07c-1.17,3.17-2.32,6.34-3.41,9.54-.2.59-.46,1.18-.6,1.79-.13.52.09.57-.43.61-.35.03-.9-.17-1.26-.25-1.57-.36-3.1-.86-4.61-1.41-1.59-.59-3.16-1.24-4.71-1.95-1.05-.48-4.25-1.39-3.96-2.89.18-.91.71-1.87,1.04-2.74s.69-1.81,1.03-2.71c.68-1.79,1.36-3.58,2.04-5.37,1.35-3.56,2.7-7.11,4.04-10.67.68-1.8,1.37-3.6,2.05-5.4.29-.76.58-1.52.87-2.28.41-1.08.73-1.74.59-2.89-.12-.95-.3-1.91-.36-2.86-.07-1.19.35-2.09.77-3.17.72-1.86,1.44-3.72,2.16-5.57,1.44-3.72,2.88-7.43,4.32-11.15,3.24-8.36,6.47-16.72,9.71-25.08.16-.42-1.66-.22-1.87.3-3.12,8.05-6.23,16.1-9.35,24.15-1.56,4.03-3.12,8.05-4.67,12.08-.78,2.01-1.56,4.03-2.34,6.04-.36.93-.76,1.67-.64,2.67s.31,2.06.39,3.1c.15,2.05-1.23,4.41-1.96,6.32s-1.47,3.88-2.21,5.82c-1.46,3.85-2.92,7.71-4.38,11.56-.74,1.95-1.48,3.91-2.23,5.86-.55,1.45-1.7,3.08.04,4.03,3.06,1.66,6.36,3.04,9.66,4.13,2.37.78,6.99,2.64,8.17-.72,1.31-3.73,2.6-7.47,3.97-11.18.16-.43-1.67-.22-1.87.3h0Z"/>
  <path class="st1" d="M51.8,20.85c.87-2.26,1.55-4.78,2.74-6.89.72-1.27,1.66-2.45,2.69-3.48,3.06-3.05,8.08-5.02,11.61-1.62,1.66,1.6,2.74,3.91,3.22,6.15.7,3.29-.3,6.28-1.58,9.24-2.14,4.97-3.97,10.09-5.82,15.17-2.97,8.19-5.85,16.42-8.7,24.66-.97,2.81-1.95,5.62-2.91,8.43-.5,1.44-.82,3.08-1.89,4.2-.79.82-1.6,1.61-2.23,2.56-.74,1.12-1.16,2.44-1.66,3.68-.55,1.36-1.09,2.71-1.62,4.08-1.11,2.83-2.2,5.66-3.27,8.51-.16.42,1.67.22,1.87-.3.99-2.62,1.99-5.24,3.02-7.85s1.86-5.31,3.14-7.75c.55-1.05,1.4-1.9,2.22-2.74.34-.35.83-.73,1.07-1.14.35-.62.53-1.48.76-2.16.95-2.77,1.91-5.54,2.87-8.3,3.06-8.84,6.14-17.67,9.33-26.46,1.91-5.26,3.8-10.56,6.06-15.69,1.26-2.86,1.94-6.06,1.11-9.15-.7-2.62-2.15-5.39-4.54-6.83-3.97-2.38-9.43-.28-12.69,2.44-1.37,1.14-2.53,2.5-3.49,4-1.46,2.26-2.19,5.06-3.16,7.56-.16.42,1.66.22,1.87-.3h0Z"/>
  <path class="st1" d="M15.53,120.82c-.62.8-1.56,1.56-2.08,2.42-.29.48-.08,1.03,0,1.56.42,2.59.65,5.14.76,7.77.16,3.96.3,7.91.4,11.87.02.93,1.31.67,1.75.22,2.91-2.99,5.78-6.01,8.66-9.02,2.2-2.3,4.52-4.45,6.82-6.64.41-.4,1.22-.94,1.47-1.47.2-.42.06-1.06.06-1.52,0-1.18-.21-2.34-.22-3.52-.02-3.57,1.17-6.92,2.06-10.33.24-.92-1.69-.71-1.91.13-.78,2.98-1.78,5.89-2,8.98-.06.79-.09,1.59,0,2.38.14,1.28-.02,2.68.23,3.94l.15-.54c-1.63,1.62-3.35,3.15-5,4.75-2.2,2.12-4.27,4.36-6.39,6.57-1.83,1.91-3.66,3.82-5.51,5.72l1.75.22c-.17-7.01-.15-14.09-1.35-21.02l-.15.54c.75-.76,1.43-1.59,2.09-2.43.74-.95-1.04-1.28-1.58-.58h0Z"/>
  <path class="st1" d="M21.69,107.9c-.45,1.8-.99,3.57-1.72,5.27-.55,1.29-1.21,2.51-1.9,3.73-.23.41.21.77.58.82.48.07.99-.16,1.22-.58.71-1.25,1.39-2.52,1.95-3.84.76-1.79,1.31-3.65,1.78-5.53.12-.47-.54-.66-.88-.64-.47.03-.92.3-1.03.77h0Z"/>
  <ellipse class="st1" cx="23.93" cy="124.51" rx="2.06" ry="2.08"/>
  <path class="st1" d="M22.65,124.89c-1.96,4.79-3.88,9.6-5.82,14.4-.37.93,1.51.79,1.78.13,1.94-4.8,3.86-9.61,5.82-14.4.38-.92-1.5-.79-1.78-.13h0Z"/>
  <path class="st1" d="M51.23,73.93c-4.86-4.16-11.36-6.05-17.7-5.29-.38.05-1,.27-1.04.73s.5.61.86.57c5.94-.72,11.89,1.15,16.43,5.03.59.51,2.26-.36,1.46-1.05h0Z"/>
  <path class="st1" d="M45.92,77.24c-3.52-1.8-7.4-2.81-11.36-2.92-.43-.01-1.03.13-1.23.55-.19.4.17.7.55.71,3.68.11,7.29,1.01,10.57,2.69.42.21.97.14,1.34-.14.27-.19.55-.67.12-.89h0Z"/>
</svg>