<?xml version="1.0" encoding="UTF-8"?>
<svg id="_レイヤー_1" xmlns="http://www.w3.org/2000/svg" version="1.1" viewBox="0 0 90 150">
  <!-- Generator: Adobe Illustrator 30.0.0, SVG Export Plug-In . SVG Version: 2.1.1 Build 123)  -->
  <defs>
    <style>
      .st0 {
        fill: none;
      }

      .st1 {
        fill: #1c1917;
      }

      .st2 {
        fill: #fff;
      }
    </style>
  </defs>
  <path class="st2" d="M25.59,105.92c-1.24,5.03-2.58,7.22-4.13,9.95-1.86,3.27-4.2,5.6-4.2,5.6,0,0,.73,4.2.81,6.04.37,8.47.52,14.59.52,14.59,0,0,2.65-2.73,8.91-9.28,3.57-3.74,5.16-4.94,7.81-7.59-.15-.52.09-1.92-.22-3.83-.08-.49-.2-3.38.96-7.44.53-1.87.78-2.73,1.03-3.68"/>
  <path class="st2" d="M35.38,73.06c-.2-1.57-.39-3.14-.59-4.71,7.07-18.27,14.14-36.54,21.22-54.81.92-1.65,3.59-5.89,8.55-7.37,1.2-.36,2.83-.82,4.71-.29,4.8,1.34,6.13,7.65,6.19,7.96.78,3.96-.77,7.33-1.18,8.25-3.14,7.01-9.81,25.89-18.86,52.16-1.2,1.36-2.79,2.6-3.54,4.42-4.44,10.82-9.53,24.63-11.58,30.89-.21.64-.85,1.05-1.52.96-4.36-.63-10.24-3.18-14.53-5.39-.5-.26-.72-.85-.52-1.37,3.99-10.46,7.65-20.19,11.66-30.69Z"/>
  <g>
    <path class="st1" d="M36.17,62.33c-.14.36.21.4.07.76-.14.35-.51.45-.64.81-.14.36-.01.4-.15.76-.14.36-.43.25-.56.61-.14.35.07.53-.07.89-.14.36.48.47.34.82-.14.35-.78.16-.92.52-.11.3-.1.54-.14.78.03.09.06.2.07.33.06.5-.42.37-.37.76.05.38.48.33.53.71.05.38,0,.38.04.76.05.38-.27.44-.23.82.05.38.53.37.58.75.06.45-.37.53-.36.56l2.05.25s-.31-.8-.34-1.08c-.05-.38.2-.41.15-.78-.05-.38-.32-.34-.37-.72-.05-.38.28-.41.24-.79-.05-.38-.6-.19-.65-.57-.02-.19.01-.32.04-.45.04-.11.08-.18.06-.3,0-.02,0-.05,0-.06.1-.19.19-.08.3-.36.14-.35-.07-.48.06-.84.14-.35.54-.21.68-.56.14-.35-.27-.5-.14-.86.14-.35.27-.3.41-.66.14-.35.31-.29.45-.64.14-.35-.35-.5-.21-.86.14-.35.53-.24.67-.6.14-.35-.04-.42.09-.78.14-.35.49-.32.59-.59l-1.87-.72c-.1.27.16.33.02.68-.14.36-.28.3-.42.65Z"/>
    <path class="st1" d="M40.59,50.9c-.14.36.21.4.07.76-.14.35-.51.45-.64.81-.14.36-.01.4-.15.76-.14.36-.43.25-.56.61-.14.35.07.53-.07.89-.14.36.48.47.34.82-.14.35-.78.16-.92.52-.14.35,0,.51-.13.86-.14.35-.52.06-.66.42-.14.35.27.52.13.87-.14.35-.19.34-.33.69-.14.35-.45.26-.59.61-.14.35.29.58.16.93-.14.35-.67.53-.67.55l1.87.72s-.02-.53.12-.89c.14-.35.37-.26.51-.62.14-.35-.12-.46.02-.81.14-.35.44-.23.58-.58.14-.35-.44-.45-.3-.81.14-.35.37-.39.5-.75.14-.35.26-.26.4-.61.14-.35-.07-.48.06-.84.14-.35.54-.21.68-.56.14-.35-.27-.5-.14-.86.14-.35.27-.3.41-.66.14-.35.31-.29.45-.64.14-.35-.35-.5-.21-.86.14-.35.53-.24.67-.6.14-.35-.04-.42.09-.78.14-.35.49-.32.59-.59l-1.87-.72c-.1.27.16.33.02.68-.14.36-.28.3-.42.65Z"/>
    <path class="st1" d="M45.01,39.48c-.14.36.21.4.07.76-.14.35-.51.45-.64.81-.14.36-.01.4-.15.76-.14.36-.43.25-.56.61-.14.35.07.53-.07.89-.14.36.48.47.34.82-.14.35-.78.16-.92.52-.14.35,0,.51-.13.86-.14.35-.52.06-.66.42-.14.35.27.52.13.87-.14.35-.19.34-.33.69-.14.35-.45.26-.59.61-.14.35.29.58.16.93-.14.35-.67.53-.67.55l1.87.72s-.02-.53.12-.89c.14-.35.37-.26.51-.62.14-.35-.12-.46.02-.81.14-.35.44-.23.58-.58.14-.35-.44-.45-.3-.81.14-.35.37-.39.5-.75.14-.35.26-.26.4-.61.14-.35-.07-.48.06-.84.14-.35.54-.21.68-.56.14-.35-.27-.5-.14-.86.14-.35.27-.3.41-.66.14-.35.31-.29.45-.64.14-.35-.35-.5-.21-.86.14-.35.53-.24.67-.6.14-.35-.04-.42.09-.78.14-.35.49-.32.59-.59l-1.87-.72c-.1.27.16.33.02.68-.14.36-.28.3-.42.65Z"/>
    <path class="st1" d="M49.44,28.05c-.14.36.21.4.07.76-.14.35-.51.45-.64.81-.14.36-.01.4-.15.76-.14.36-.43.25-.56.61-.14.35.07.53-.07.89-.14.36.48.47.34.82-.14.35-.78.16-.92.52-.14.35,0,.51-.13.86-.14.35-.52.06-.66.42-.14.35.27.52.13.87-.14.35-.19.34-.33.69-.14.35-.45.26-.59.61-.14.35.29.58.16.93-.14.35-.67.53-.67.55l1.87.72s-.02-.53.12-.89c.14-.35.37-.26.51-.62.14-.35-.12-.46.02-.81.14-.35.44-.23.58-.58.14-.35-.44-.45-.3-.81.14-.35.37-.39.5-.75.14-.35.26-.26.4-.61.14-.35-.07-.48.06-.84.14-.35.54-.21.68-.56.14-.35-.27-.5-.14-.86.14-.35.27-.3.41-.66.14-.35.31-.29.45-.64.14-.35-.35-.5-.21-.86.14-.35.53-.24.67-.6.14-.35-.04-.42.09-.78.14-.35.49-.32.59-.59l-1.87-.72c-.1.27.16.33.02.68-.14.36-.28.3-.42.65Z"/>
    <path class="st1" d="M53.86,16.63c-.14.36.21.4.07.76-.14.35-.51.45-.64.81-.14.36-.01.4-.15.76-.14.36-.43.25-.56.61-.14.35.07.53-.07.89-.14.36.48.47.34.82-.14.35-.78.16-.92.52-.14.35,0,.51-.13.86-.14.35-.52.06-.66.42-.14.35.27.52.13.87-.14.35-.19.34-.33.69-.14.35-.45.26-.59.61-.14.35.29.58.16.93-.14.35-.67.53-.67.55l1.87.72s-.02-.53.12-.89c.14-.35.37-.26.51-.62.14-.35-.12-.46.02-.81.14-.35.44-.23.58-.58.14-.35-.44-.45-.3-.81.14-.35.37-.39.5-.75.14-.35.26-.26.4-.61.14-.35-.07-.48.06-.84.14-.35.54-.21.68-.56.14-.35-.27-.5-.14-.86.14-.35.27-.3.41-.66.14-.35.31-.29.45-.64.14-.35-.35-.5-.21-.86.14-.35.53-.24.67-.6.14-.35-.04-.42.09-.78.14-.35.49-.32.59-.59l-1.87-.72c-.1.27.16.33.02.68-.14.36-.28.3-.42.65Z"/>
    <path class="st1" d="M61.39,6.59c-.35.21-.09.46-.43.66-.32.23-.7.1-1.02.35-.32.25-.23.35-.54.61-.3.26-.51.04-.81.32-.29.29-.18.53-.45.82-.27.29.26.62,0,.9-.24.29-.8-.1-1.05.21-.24.31-.16.5-.39.82-.23.32-.53-.06-.76.27-.23.33.14.58-.07.91-.21.35-.24.29-.46.67-.07.11-.11.2-.18.26-.05.05-.11.08-.16.11-.11.06-.22.13-.29.31-.14.35.29.58.16.93-.14.35-.67.53-.67.55l1.87.72s-.02-.53.12-.89c.14-.35.37-.26.51-.62.13-.33-.11-.52,0-.71.17-.3.46-.14.65-.44.19-.3-.35-.52-.15-.83.2-.31.44-.29.65-.58.21-.29.32-.16.54-.45.23-.28.07-.46.31-.74.25-.27.57.01.81-.25.25-.25-.06-.55.2-.81.27-.24.37-.13.64-.37.28-.23.4-.08.68-.3.28-.21-.04-.6.26-.81.3-.22.56.13.86-.06.3-.19.21-.35.53-.52.32-.17.54.09.78,0l-.81-1.83c-.28.12-.14.34-.49.53-.36.19-.43.04-.78.25Z"/>
    <path class="st1" d="M73.6,7.81c-.26-.33-.47-.02-.74-.32-.26-.3-.25-.67-.57-.96-.32-.27-.42-.15-.76-.39-.34-.24-.21-.49-.6-.7-.39-.21-.59,0-.99-.14-.41-.13-.45.47-.83.38-.37-.09-.31-.75-.75-.81-.43-.04-.54.14-.95.14-.41.01-.29-.46-.73-.42-.43.05-.38.48-.77.55-.4.08-.41.03-.8.13-.38.1-.49-.2-.87-.09-.39.13-.29.61-.67.74-.37.14-.88-.1-.91-.09l.81,1.83s.33-.39.67-.49c.34-.11.41.12.74.01.36-.1.28-.37.63-.47.35-.09.42.24.75.17.33-.06.14-.61.49-.66.35-.04.47.16.81.15.34.01.29.16.62.19.32.04.4-.19.74-.11.34.08.21.52.51.62.3.1.47-.3.77-.14.3.16.24.27.51.47.27.2.18.33.43.55.25.22.57-.19.83.06.25.27-.03.57.2.82.21.27.36.15.58.44.2.3-.04.56.11.77l1.7-1.05c-.17-.26-.37-.08-.59-.42-.24-.33-.12-.42-.37-.75Z"/>
    <path class="st1" d="M75.95,20.19c.11-.39-.24-.39-.14-.78.09-.38.45-.55.52-.95.07-.4-.06-.42-.02-.82.05-.4.34-.38.38-.79.02-.41-.24-.52-.24-.92-.01-.41-.62-.26-.64-.65-.04-.38.63-.5.58-.91-.07-.41-.25-.46-.34-.87-.09-.39.39-.36.28-.76-.12-.39-.53-.27-.66-.64-.13-.38-.09-.39-.22-.77-.15-.37.14-.51-.03-.89-.18-.37-.63-.21-.82-.56-.19-.34,0-.89-.03-.91l-1.7,1.05s.4.29.58.6c.16.32-.06.43.09.74.14.32.4.21.53.55.13.34-.18.44-.07.78.11.33.63.06.73.41.1.35-.06.52.01.84.06.35-.1.33-.04.68.04.35.28.36.32.72.01.36-.41.38-.41.73-.01.34.44.35.41.71-.03.36-.16.35-.21.7-.04.36-.23.33-.29.68-.06.35.44.41.36.77-.09.36-.49.29-.59.63-.1.34.08.4-.03.75-.12.34-.47.31-.57.56l1.86.74c.11-.28-.15-.34-.01-.71.13-.38.28-.32.39-.71Z"/>
    <path class="st1" d="M71.42,31.64c.13-.36-.21-.4-.08-.75.13-.36.5-.45.64-.81.13-.36,0-.4.15-.76.14-.35.43-.25.56-.61.14-.35-.07-.53.06-.89.14-.35-.48-.47-.34-.82.14-.35.78-.16.92-.51.14-.35,0-.51.14-.86.14-.35.52-.05.66-.4.14-.35-.26-.52-.11-.87.15-.35.19-.33.34-.68.15-.35.46-.24.61-.58.15-.34-.27-.59-.12-.94.16-.35.69-.53.7-.56l-1.86-.74s.02.5-.14.85c-.15.35-.38.25-.53.6-.15.35.1.46-.05.82-.15.35-.45.22-.6.57-.15.35.43.47.28.82-.14.35-.38.39-.52.74-.14.35-.27.26-.41.61-.14.35.07.48-.07.84-.14.35-.54.21-.68.56-.14.36.27.51.14.86-.14.35-.27.3-.41.66-.14.36-.31.29-.45.64-.13.36.35.5.22.86-.13.36-.53.25-.66.6-.13.36.05.42-.09.78-.13.36-.48.33-.58.59l1.87.7c.1-.27-.16-.32-.03-.68.13-.36.28-.3.41-.65Z"/>
    <path class="st1" d="M67.23,43.14c.13-.36-.22-.39-.09-.75.13-.36.49-.46.62-.82.13-.36,0-.4.13-.76.13-.36.42-.26.55-.62.13-.36-.08-.53.04-.89.13-.36-.49-.46-.36-.81.13-.36.77-.18.9-.54.13-.36-.01-.51.12-.86.13-.36.52-.07.65-.43.13-.36-.28-.51-.15-.87.13-.36.18-.34.31-.7.13-.36.44-.26.58-.62.13-.36-.3-.57-.17-.93.13-.36.66-.54.67-.56l-1.87-.7s.02.53-.11.89c-.13.36-.37.27-.5.62-.13.36.13.45,0,.81-.13.36-.44.24-.57.59-.13.36.45.45.32.8-.13.36-.36.4-.49.76-.13.36-.26.26-.39.62-.13.36.08.48-.05.84-.13.36-.53.22-.66.58-.13.36.29.5.16.85-.13.36-.27.31-.39.67-.13.36-.31.29-.44.65-.13.36.36.49.24.85-.13.36-.52.26-.65.61-.13.36.05.42-.07.78-.13.36-.48.33-.57.6l1.88.67c.1-.27-.16-.32-.04-.68.13-.36.27-.3.4-.66Z"/>
    <path class="st1" d="M63.15,54.68c.13-.36-.22-.39-.1-.75.13-.36.49-.47.62-.83.13-.36,0-.4.12-.76.13-.36.42-.27.55-.62.13-.36-.09-.53.04-.89.13-.36-.49-.45-.36-.81.13-.36.77-.19.9-.55.13-.36-.02-.51.11-.86.13-.36.52-.08.64-.43.13-.36-.28-.51-.15-.87.13-.36.18-.34.31-.7.13-.36.44-.27.57-.63.13-.36-.31-.57-.18-.93.13-.36.65-.55.66-.57l-1.88-.67s.03.53-.1.89c-.13.36-.36.27-.49.63-.13.36.13.45,0,.81-.13.36-.44.24-.56.6-.13.36.45.44.33.8-.13.36-.35.4-.48.76-.13.36-.26.26-.38.62-.13.36.09.48-.04.84-.13.36-.53.22-.66.58-.13.36.29.5.16.85-.13.36-.26.31-.39.67-.13.36-.3.3-.43.65-.13.36.37.49.24.85-.13.36-.52.26-.65.62-.13.36.06.42-.07.78-.13.36-.47.33-.57.6l1.89.66c.09-.27-.17-.32-.04-.68.13-.36.27-.3.4-.67Z"/>
    <path class="st1" d="M59.12,66.25c.12-.36-.22-.39-.1-.75.12-.36.49-.47.61-.83.12-.36,0-.4.12-.76.12-.36.42-.27.54-.63.12-.36-.09-.53.03-.89.12-.36-.49-.45-.37-.81.12-.36.77-.19.9-.55.12-.36-.02-.51.1-.87.13-.36.52-.08.64-.44.13-.36-.28-.51-.16-.87.13-.36.18-.34.3-.7.13-.36.44-.27.56-.63.13-.36-.31-.57-.19-.93.12-.36.65-.55.66-.57l-1.89-.66s.03.53-.09.89c-.12.36-.36.27-.48.63-.13.36.14.45.01.81-.12.36-.44.24-.56.6-.12.36.46.44.33.8-.12.36-.35.41-.48.76-.12.36-.25.27-.38.62-.12.36.09.48-.04.84-.12.36-.53.23-.65.59-.12.36.29.49.17.85-.12.36-.26.31-.39.67-.12.36-.3.3-.43.66-.12.36.37.49.24.85-.12.36-.52.26-.65.62-.12.36.06.42-.06.78-.12.36-.47.34-.57.61l1.89.65c.09-.27-.17-.32-.04-.68.12-.36.27-.31.39-.67Z"/>
    <path class="st1" d="M53.73,77.36c.23-.27-.08-.43.16-.71.25-.27.62-.22.88-.48.26-.27.17-.36.44-.64.13-.14.26-.16.38-.18.14-.03.22,0,.43-.24.19-.21.27-.37.25-.58,0-.18,0-.41.06-.56.12-.36-.49-.45-.37-.81.12-.36.77-.19.9-.55.12-.36-.02-.51.1-.87.12-.36.52-.08.64-.44.12-.36-.29-.51-.16-.87.12-.36.18-.34.3-.7.12-.36.44-.27.56-.63.12-.36-.31-.57-.19-.93.12-.36.65-.55.65-.58l-1.89-.65s.03.53-.09.89c-.12.36-.36.28-.48.63-.12.36.14.45.01.81-.12.36-.44.24-.56.6-.12.36.46.44.33.8-.12.36-.35.41-.47.76-.12.36-.25.27-.38.62-.12.36.09.48-.03.84-.12.36-.53.23-.65.59-.06.17.36.39.17.59-.21.22-.34.16-.59.41-.26.27-.4.14-.67.41-.27.28.12.6-.14.88-.26.28-.59.04-.86.35-.26.32-.11.43-.35.76-.23.33-.57.24-.74.52l1.73,1c.12-.21-.12-.32.07-.61.21-.28.33-.19.54-.46Z"/>
    <path class="st1" d="M49.01,88.32c.14-.36-.21-.4-.07-.76.14-.35.51-.45.65-.8.14-.35.01-.4.15-.76.14-.35.43-.25.57-.6.14-.35-.07-.53.07-.89.14-.35-.47-.47-.33-.82.14-.35.78-.16.92-.51.14-.35,0-.51.14-.86.14-.35.52-.05.66-.41.14-.35-.26-.52-.12-.87.14-.35.19-.33.34-.68.14-.35.45-.25.6-.6.14-.35-.28-.59-.14-.93.07-.16.24-.26.39-.32.15-.06.28-.07.29-.08l-1.73-1s-.09.6-.25.98c-.14.35-.37.26-.52.61-.14.35.11.46-.03.81-.14.35-.45.22-.59.57-.14.35.43.46.29.81-.14.35-.37.39-.51.74-.14.35-.27.25-.41.61-.14.35.07.48-.07.84-.14.35-.54.2-.68.56-.14.35.27.51.13.86-.14.35-.27.3-.41.65-.14.35-.31.28-.45.64-.14.35.35.5.21.86-.14.35-.53.24-.67.6-.14.35.04.42-.09.78-.14.35-.49.32-.59.59l1.87.72c.1-.26-.16-.32-.02-.68.14-.36.28-.3.42-.65Z"/>
    <path class="st1" d="M44.69,99.77c.13-.36-.22-.4-.09-.75.13-.36.5-.46.63-.82.13-.36,0-.4.14-.76.13-.36.42-.26.56-.61.13-.36-.08-.53.05-.89.13-.36-.48-.46-.35-.82.13-.36.78-.17.91-.53.13-.35,0-.51.13-.86.13-.36.52-.06.65-.42.13-.36-.27-.52-.14-.87.13-.36.19-.34.32-.69.14-.35.45-.26.58-.61.14-.35-.3-.58-.16-.93.14-.35.66-.53.67-.55l-1.87-.72s.02.53-.12.89c-.14.35-.37.26-.5.62-.14.36.12.46-.01.81-.13.36-.44.23-.58.59-.13.35.44.45.31.81-.13.35-.36.4-.5.75-.13.35-.26.26-.39.61-.13.36.08.48-.06.84-.13.36-.54.21-.67.57-.13.36.28.5.15.86-.13.36-.27.31-.4.66-.13.36-.31.29-.44.65-.13.36.36.5.23.85-.13.36-.53.25-.66.61-.13.36.05.42-.08.78-.13.36-.48.33-.58.6l1.88.68c.1-.27-.16-.32-.03-.68.13-.36.27-.3.41-.66Z"/>
    <path class="st1" d="M39.44,111.37c.52-.15.28-.42.68-.66.36-.28.77-.32.98-.83.03-.08.05-.15.06-.19.09-.37,0-.43.11-.73.12-.36.41-.27.54-.63.12-.36-.09-.53.03-.89.12-.36-.49-.45-.37-.81.12-.36.77-.19.9-.55.12-.36-.02-.51.11-.86.13-.36.52-.08.65-.43.13-.36-.28-.51-.16-.87.13-.36.18-.34.31-.7.13-.36.44-.27.57-.62.13-.36-.31-.57-.18-.93.13-.36.65-.54.66-.56l-1.88-.68s.03.53-.1.89c-.13.36-.36.27-.49.63-.13.36.13.45,0,.81-.13.36-.44.24-.57.6-.13.36.45.44.33.8-.13.36-.35.4-.48.76-.13.36-.26.27-.38.62-.13.36.09.48-.04.84-.13.36-.53.23-.65.59-.12.36.29.49.17.85-.12.36-.26.31-.38.68-.1.3-.25.33-.32.41-.01.01-.03.04-.04.07-.06.17.37.5.18.74-.23.21-.49-.17-.68-.11-.21.04-.18.23-.43.19-.23-.04-.3-.39-.56-.44l-.38,1.96c.14.03.22-.02.31-.08.08-.05.18-.1.45-.06.51.07.52.25,1.06.17Z"/>
    <path class="st1" d="M27.21,107.56c.35.16.42-.18.77-.03.35.16.43.53.78.68.35.15.41.03.76.18.35.15.25.44.6.58.36.14.54-.06.9.08.36.14.47-.47.83-.34.36.13.17.78.54.91.36.13.51-.01.88.11.37.12.09.52.46.64.37.12.51-.29.88-.18.37.11.35.17.73.27.37.1.31.43.69.53.38.09.55-.36.93-.27.38.08.65.58.68.58l.38-1.96s-.5.11-.86.03c-.36-.09-.3-.33-.65-.42-.35-.1-.43.17-.79.07-.36-.1-.26-.42-.61-.53-.35-.11-.42.48-.78.36-.35-.12-.4-.34-.76-.46-.35-.13-.26-.26-.61-.38-.35-.12-.47.08-.83-.05-.35-.13-.21-.53-.55-.67-.35-.14-.5.27-.85.13-.35-.14-.29-.28-.64-.42-.35-.14-.27-.32-.61-.47-.34-.15-.52.33-.86.18-.34-.16-.21-.54-.55-.7-.34-.16-.42.02-.76-.14-.34-.16-.28-.51-.53-.63l-.87,1.8c.26.12.34-.13.69.04.35.16.28.3.63.46Z"/>
    <path class="st1" d="M25.36,96.95c-.14.36.21.4.08.76-.14.36-.5.45-.64.81-.14.36,0,.4-.14.76-.14.36-.43.26-.56.61-.14.36.08.53-.06.89-.14.36.48.46.34.82-.13.35-.78.17-.91.52-.07.18-.07.3-.06.43,0,.12,0,.25-.09.5-.17.47-.61.24-.72.79-.04.56.39.5.52.95.21.43.18.48.55.8.24.15.28.29.37.46.06.11.15.22.36.33.26.13.38.06.54,0,.15-.06.3-.12.47-.03.34.17.48.71.5.72l.87-1.8s-.53-.02-.86-.19c-.17-.08-.22-.18-.28-.28-.03-.05-.06-.1-.1-.14-.02-.04-.05-.07-.1-.09-.07-.03-.13-.03-.2-.01-.11.03-.25.1-.39.03-.19-.14.14-.34.07-.49-.03-.16-.69.05-.65-.23.09-.27.33-.33.41-.54.12-.31.26-.25.39-.59.13-.36-.08-.48.06-.84.13-.35.54-.21.67-.57.13-.35-.28-.5-.14-.86.13-.35.27-.3.4-.66.13-.35.31-.29.45-.64.13-.36-.35-.5-.22-.86.13-.35.53-.24.66-.6.13-.35-.05-.42.09-.78.13-.35.48-.32.58-.59l-1.87-.71c-.1.27.16.33.02.68-.14.36-.28.3-.41.65Z"/>
    <path class="st1" d="M29.71,85.5c-.14.36.21.4.08.76-.14.36-.5.45-.64.81-.14.36,0,.4-.14.76-.14.36-.43.26-.56.61-.14.36.08.53-.06.89-.14.36.48.46.34.82-.13.35-.78.17-.91.52-.13.35,0,.51-.13.86-.14.36-.52.06-.66.42-.14.36.27.52.13.87-.14.36-.19.34-.32.69-.13.36-.45.26-.58.61-.14.36.3.58.16.93-.13.36-.66.53-.67.56l1.87.71s-.02-.53.12-.89c.13-.35.37-.26.5-.62.13-.36-.12-.46.01-.81.13-.35.44-.23.58-.59.13-.35-.44-.45-.31-.81.13-.35.36-.4.5-.75.13-.35.26-.26.4-.61.13-.36-.08-.48.06-.84.13-.35.54-.21.67-.57.13-.35-.28-.5-.14-.86.13-.35.27-.3.4-.66.13-.35.31-.29.45-.64.13-.36-.35-.5-.22-.86.13-.35.53-.25.66-.6.13-.35-.05-.42.09-.78.13-.35.48-.32.58-.59l-1.87-.71c-.1.27.16.32.02.68-.14.36-.28.3-.41.65Z"/>
    <path class="st1" d="M34.06,74.04c-.14.36.21.4.08.76-.14.36-.5.45-.64.81-.14.36,0,.4-.14.76-.14.36-.43.26-.56.61-.14.36.08.53-.06.89-.14.36.48.46.34.82-.13.35-.78.17-.91.52-.13.35,0,.51-.13.86-.14.36-.52.06-.65.42-.14.36.27.52.13.87-.14.36-.19.34-.32.69-.13.36-.45.26-.58.61-.14.36.3.58.16.93-.13.36-.66.53-.67.55l1.87.71s-.02-.53.12-.89c.13-.35.37-.26.5-.62.13-.36-.12-.46.01-.81.13-.35.44-.23.58-.58.13-.35-.44-.45-.31-.81.13-.35.36-.4.5-.75.13-.35.26-.26.4-.61.13-.36-.08-.48.06-.84.13-.35.54-.21.67-.57.13-.35-.28-.5-.14-.86.13-.35.27-.3.4-.66.13-.35.31-.29.45-.64.13-.36-.35-.5-.22-.86.13-.35.53-.24.66-.6.13-.35-.05-.42.09-.78.12-.31.53-.44.67-.82l-2.05-.25c-.06.15.23.13.11.45-.14.36-.28.3-.41.65Z"/>
  </g>
  <g>
    <path class="st1" d="M26.28,106.75c-.03-.21-.12-.42-.24-.56-.11-.14-.28-.23-.45-.27-.17-.04-.35-.01-.52.06-.17.07-.36.16-.49.32-.13.16-.22.38-.28.6l1.93.53c.07-.23.09-.47.05-.68Z"/>
    <path class="st1" d="M19.8,119.91c.31-.39-.03-.51.27-.9.29-.39.71-.45.99-.86.27-.41.17-.49.43-.9.26-.42.53-.27.78-.7.25-.43.07-.65.31-1.07.24-.42-.37-.59-.13-1.01.23-.42.85-.16,1.08-.6.23-.44.12-.63.33-1.07.22-.44.55-.09.77-.54.2-.46-.19-.64,0-1.09.19-.46.23-.44.41-.9.17-.46.48-.38.64-.85.15-.47-.28-.68-.14-1.15.14-.46.67-.79.68-.82l-1.93-.53s.04.64-.1,1.09c-.14.45-.38.37-.52.81-.15.44.11.53-.05.97-.17.44-.47.31-.64.74-.17.43.4.52.22.95-.2.43-.44.48-.64.9-.21.42-.32.3-.54.71-.22.41-.04.58-.27.99-.23.42-.61.21-.85.63-.24.41.15.63-.09,1.04-.24.4-.36.33-.61.72-.25.39-.41.29-.67.67-.26.38.18.64-.1,1.02-.28.38-.63.17-.92.54-.29.37-.14.49-.44.85-.3.36-.63.23-.86.49l1.49,1.33c.25-.28.02-.42.34-.79.32-.38.43-.28.74-.67Z"/>
    <path class="st1" d="M19.25,135.62c-.02-.46-.35-.35-.37-.81-.02-.46.28-.74.27-1.21-.02-.46-.15-.46-.17-.92-.02-.46.29-.49.27-.95-.02-.46-.28-.56-.3-1.03-.02-.46-.62-.3-.64-.76-.02-.46.65-.55.63-1.02-.02-.46-.21-.57-.22-1.03-.02-.47.46-.3.43-.81-.04-.49-.48-.46-.52-.92-.05-.47,0-.47-.06-.94-.06-.46.26-.53.19-1-.07-.46-.55-.46-.62-.92-.07-.46.28-.95.28-.98l-1.97.32s.3.55.37,1.01c.07.45-.18.49-.11.94.06.45.34.42.4.87.06.45-.27.48-.22.93.04.44.61.25.64.7.03.44-.17.59-.15,1.06.02.46-.14.41-.12.87.02.46.26.5.28.96.02.46-.41.49-.39.95.02.46.45.43.47.89.02.46-.13.47-.11.93.02.46-.17.47-.16.93.02.46.52.4.54.86.02.46-.39.52-.37.98.02.46.21.45.23.91.02.46-.32.58-.3.93l2-.06c-.01-.35-.27-.29-.29-.76-.02-.46.14-.46.12-.93Z"/>
    <path class="st1" d="M32.4,126.79c-.4.38-.08.54-.49.92-.41.38-.86.37-1.26.76-.41.38-.31.48-.72.87-.4.39-.63.18-1.02.57-.4.39-.31.67-.7,1.07-.39.4.17.7-.22,1.1-.38.4-.92,0-1.3.39-.38.4-.34.62-.72,1.02-.38.4-.58-.06-.96.33-.38.4-.08.71-.46,1.11-.38.4-.42.36-.81.76-.38.4-.64.19-1.02.59-.38.4-.09.79-.47,1.19-.38.4-1.05.47-1.07.5l1.44,1.39s.35-.66.73-1.06c.38-.4.56-.22.94-.62.38-.4.19-.59.57-.99.38-.4.62-.16,1-.56.38-.4-.15-.68.23-1.07.38-.4.65-.39,1.03-.78.38-.4.45-.25.83-.64.38-.4.25-.61.63-1.01.38-.39.7-.1,1.08-.49.38-.39.07-.69.46-1.07.39-.39.49-.28.89-.66.4-.38.53-.24.92-.62.4-.38.01-.71.42-1.09.4-.38.72-.11,1.13-.49.4-.38.27-.52.68-.9.4-.38.73-.23,1.04-.53l-1.39-1.44c-.29.28-.07.44-.47.82-.4.38-.5.26-.91.64Z"/>
    <path class="st1" d="M35.53,112.48c-.11.39.24.39.13.78-.11.38-.47.53-.58.93-.11.4.03.43-.07.84-.1.4-.39.35-.48.75-.08.41.15.56.08.96-.07.41.55.38.5.78-.06.4-.73.37-.77.79-.04.41.13.53.1.94-.03.41-.48.24-.5.67-.01.43.42.44.43.86,0,.21,0,.32,0,.44,0,.1,0,.29.03.45.05.38-.27.43-.24.8.03.37.51.4.52.79,0,.39-.43.76-.42.78h2s-.2-.52-.22-.94c-.02-.42.23-.43.2-.86-.04-.43-.32-.4-.38-.82-.05-.36.29-.34.28-.7,0-.36-.58-.25-.57-.64.01-.39.22-.5.25-.89.03-.39.18-.33.22-.71.04-.38-.19-.46-.13-.85.06-.39.48-.33.55-.71.07-.38-.36-.45-.28-.84.09-.38.22-.35.31-.73.09-.38.27-.33.37-.71.1-.37-.4-.47-.29-.86.11-.39.51-.32.62-.7.11-.39-.08-.44.03-.83.11-.39.46-.4.54-.69l-1.93-.51c-.08.29.18.32.08.71-.11.39-.26.34-.36.73Z"/>
    <path class="st1" d="M36.55,110.28c-.17.05-.32.18-.44.31-.12.13-.23.28-.29.47h0s1.93.51,1.93.51h0c.05-.19.07-.39.03-.56-.04-.18-.14-.34-.26-.47-.12-.12-.27-.22-.45-.26-.17-.04-.36-.04-.53,0Z"/>
    <g>
      <path class="st1" d="M16.54,122.4v-.03s0-.03,0-.03l-.02-.06v-.03s-.01-.03-.01-.03v-.03s0-.02,0-.02v-.02s.01-.02.01-.02h.01s.04-.04.04-.04l.09-.05.1-.06.04-.03h.02s.01-.03.01-.03v-.02s.01-.02.01-.02v-.02s0-.02,0-.02v-.03s-.02-.03-.02-.03v-.03s-.01-.02-.01-.02v-.02s0-.02,0-.02v-.02s.01-.02.01-.02v-.02s.04-.03.04-.03l.03-.03.07-.05.08-.04s.05-.03.08-.05l.04-.03v-.02s0-.02,0-.02l.02-.03.02-.03.02-.03.02-.03v-.02s.01-.02.01-.02v-.02s0-.02,0-.02v-.02s-.01-.02-.01-.02l-.02-.05-.06-.1-.06-.1-.02-.04v-.02s0-.02,0-.02c0-.02,0-.05,0-.08v-.08c.02-.05.03-.1.04-.15,0,0,0-.01,0-.01h0s0-.02,0-.02h.01s.01-.01.01-.01h.01s.03,0,.03,0h.03s.03,0,.03,0h.01s.01-.01.01-.01h0s0-.02,0-.02h0s0-.02,0-.02v-.02s0-.02,0-.02v-.02s-.03-.07-.05-.11l-.02-.06v-.05s-.02-.02-.02-.02v-.02s0-.02,0-.02h0s0-.01,0-.01l.75.66.37.33.37.33s-.01,0-.01,0h-.01s-.02.02-.02.02h-.02s0,.01,0,.01h0s0,.01,0,.01h0s0,0,0,0h-.01s-.01,0-.01,0c-.02,0-.04,0-.06,0h-.03s-.01,0-.01,0h-.01s-.01.02-.01.02v.02s-.01.02-.01.02v.02s0,.04-.01.06c0,.02,0,.05-.01.08,0,.03,0,.06-.01.08v.02s0,0,0,0h0s0,0,0,0h0s-.02.05-.02.05h0s0,0,0,0l-.04.02-.03.02-.02.02-.02.02v.02s-.02.02-.02.02v.02s0,.02,0,.02h0s0,.07,0,.07v.02s0,.01,0,.01h0s0,.02,0,.02h0s0,0,0,0h0s0,.02,0,.02l.02.02.03.02.06.03h.01s0,.02,0,.02h0s0,.01,0,.01h0s0,.02,0,.02h0s0,.04,0,.04c0,.02.01.04.02.06l-.49.08-.49.08-.99.16h0s0-.03,0-.03v-.03s.04-.06.04-.06l.04-.07v-.03s.02-.03.02-.03Z"/>
      <path class="st0" d="M19.41,122.15c.03-.08.03-.08.05-.12h0s0,0,0,0h0s0,0,0,0h-.01s-.02-.03-.02-.03l-.05-.04-.09-.08-.19-.17-.37-.33-.75-.66-1.49-1.33-.32.35-.3.32-.74.73.35,2.03,1.97-.32.99-.16.49-.08.25-.04.12-.02h.06s.03-.01.03-.01h.02s0,0,0,0h0s0,0,0,0h0s0-.01,0-.02Z"/>
    </g>
    <g>
      <path class="st1" d="M21.77,140.02l-.1.1-.1.11-.2.22-.2.22-.1.1-.1.09-.05.04-.05.03-.05.03-.05.02-.1.03-.1.02-.1.02-.1.03-.05.02-.05.02-.05.03-.05.03-.05.04-.05.04-.11.1c-.07.08-.15.16-.22.24-.08.08-.15.16-.22.24l-.11.1-.05.04-.05.03-.1.05-.09.04-.16.05-.16.05-.09.03-.1.04-.05.02h-.02s-.01,0-.01,0h0s0,0,0,0c0-.05-.02-.09-.03-.15-.01-.11-.02-.22-.03-.34-.01-.12-.02-.24-.03-.34,0-.05-.02-.1-.02-.15v-.07s-.03-.06-.03-.06l-.02-.05-.02-.05-.03-.04-.03-.04-.06-.07-.06-.06-.06-.06-.03-.03-.03-.04-.02-.04-.02-.05-.02-.05-.02-.06c-.02-.09-.04-.18-.06-.27-.02-.1-.04-.2-.06-.3-.04-.21-.07-.42-.1-.59v-.06s-.01-.06-.01-.06v-.12s0-.11,0-.11l.02-.11.03-.22v-.12s0-.08,0-.13v-.07s-.02-.07-.02-.07c-.01-.04-.03-.08-.04-.13-.04-.08-.07-.17-.11-.26l-.06-.13-.05-.14-.02-.07-.02-.07v-.08s-.02-.08-.02-.08l1-.03.5-.02.5-.02s0,.08,0,.12c0,.03,0,.06,0,.09v.08s0,.05,0,.09v.05s0,.04,0,.04v.09c-.02.06-.04.12-.05.19l-.02.11s0,.08,0,.13v.07s0,.08,0,.08v.08s.02.06.03.09c.02.11.06.32.1.54.02.1.04.21.06.3v.07s.02.03.02.03h0s0,.01,0,.01h0s.02,0,.02,0h0s.04,0,.04,0h.03s.07-.04.07-.04l.06-.03.06-.03.06-.04.11-.08.1-.09c.06-.06.12-.12.17-.17l.08-.07.04-.03.03-.03.03-.03.03-.03.03-.03.03-.04.05-.08.04-.08c.03-.06.06-.11.09-.17l.05-.08.03-.04.03-.03s.04-.04.07-.07c.03-.03.06-.06.09-.09.06-.07.13-.14.18-.19l.36.35.36.35.72.69-.08.08-.1.08c-.07.05-.14.11-.21.16l-.22.17-.11.09-.1.09Z"/>
      <path class="st0" d="M20.47,137.28l-4.05.12.17,4.74.11,4.76,3.32-3.41,3.3-3.44-1.44-1.39-.72-.69-.36-.35-.18-.17-.09-.09-.04-.04-.02-.02h-.01s0-.02,0-.02h0s0,0,0,0h0s.02,0,.03.01Z"/>
    </g>
    <g>
      <path class="st1" d="M36.12,124.32v.03s0,.03,0,.03v.07s.01.04.01.04v.03s0,.03,0,.03v.02s-.01.02-.01.02h-.01s-.01.03-.01.03l-.04.02-.05.02-.05.02-.11.04-.04.02h-.02s-.01.03-.01.03h-.01s0,.03,0,.03v.02s0,.02,0,.02v.03s.01.03.01.03v.03s0,.01,0,.01h0s0,.03,0,.03h0s0,.03,0,.03h-.01s-.03.04-.03.04l-.03.02-.07.04-.08.05h-.02s-.02.03-.02.03l-.03.03-.04.03v.02s0,.02,0,.02l-.02.04-.02.04-.03.04-.02.04v.02s-.01.02-.01.02v.02s0,.02,0,.02v.02s.01.02.01.02l.02.05.06.1.05.1.02.05v.02s0,.02,0,.02c0,.03,0,.06-.01.09l-.02.09c-.02.06-.03.11-.05.16v.02s-.02.01-.02.01c0,0-.01,0-.01,0h-.01s-.01.01-.01.01h-.01s-.03,0-.03,0h-.03s-.03.01-.03.01h-.01s-.01.01-.01.01h-.01s-.01.02-.01.02v.02s0,.02,0,.02v.02s0,.03,0,.03c0,.04.02.08.03.12v.06s.02.06.02.06v.03s0,.02,0,.02v.02s-.01,0-.01,0h0s-.7-.71-.7-.71l-.35-.36-.35-.36s.01,0,.01,0h.01s.02-.02.02-.02h.02s0-.01,0-.01h0s0-.01,0-.01h0s0,0,0,0h.01s.01,0,.01,0c.02,0,.04,0,.07,0h.03s.02,0,.02,0h.01s.01-.02.01-.02v-.02s.02-.02.02-.02v-.03s.01-.04.02-.07c0-.03.02-.05.02-.08,0-.03.01-.06.02-.09v-.02s0,0,0,0h0s.07-.3.07-.3h0s.03-.01.04-.02l.03-.02.02-.02.02-.02v-.02s.03-.02.03-.02v-.02s.01-.02.01-.02v-.02s0-.04,0-.06v-.03s0-.01,0-.01h0s0-.02,0-.02h0s0-.01,0-.01h0s0-.02,0-.02l-.02-.02-.03-.02-.05-.05h0s0-.02,0-.02h0s0-.02,0-.02h0s0-.02,0-.02v-.03s0-.05,0-.06h.5s.5,0,.5,0h1s0,.02,0,.02c0,0,0,0,0,.01v.03s-.06.07-.06.07l-.05.07-.02.03v.03Z"/>
      <path class="st0" d="M33.02,124.63s.04,0,.06-.01h0s0,0,0,0h0s0,0,0,0h.01s.02.03.02.03l.04.04.09.09.17.18.35.36.7.72,1.39,1.44,1.69-1.68-.32-1.13v.04s.02.04.02.04v.04s0,0,0,0h0s0,.01,0,.01h0s0-.02,0-.02v-.17s0-.55,0-.55h-2s-1-.02-1-.02h-.5s-.25,0-.25,0h-.12s-.06,0-.06,0h-.03s-.02,0-.02,0h0s0,0,0,0h0s0,0,0,0c-.16.4-.16.38-.24.59Z"/>
    </g>
  </g>
  <ellipse class="st1" cx="26.86" cy="122.42" rx="2.04" ry="2.06"/>
  <g>
    <path class="st1" d="M26.98,123.48c-.02-.13-.08-.27-.17-.38-.08-.1-.21-.18-.34-.24-.13-.05-.27-.06-.4-.05-.14.02-.28.04-.39.12-.1.08-.18.21-.23.34l1.48.6c.05-.13.07-.27.05-.4Z"/>
    <path class="st1" d="M23.76,131.45c.11-.27-.17-.31-.06-.58.11-.27.4-.33.51-.6.11-.27,0-.31.12-.57.11-.27.34-.18.45-.45.11-.27-.06-.41.05-.67.11-.27-.38-.37-.27-.63.11-.27.62-.1.73-.37.11-.27,0-.39.1-.65.11-.27.41-.03.52-.3.11-.27-.21-.4-.11-.67.11-.27.15-.25.26-.52.11-.27.36-.18.46-.45.11-.27-.23-.45-.13-.71.11-.27.53-.38.53-.4l-1.48-.6s.01.41-.09.67c-.11.27-.29.19-.4.45-.11.27.1.35-.01.62-.11.27-.35.16-.46.43-.11.26.35.36.24.62-.11.26-.29.29-.4.55-.11.26-.21.19-.32.45-.11.27.06.37-.05.63-.11.27-.43.14-.53.41-.11.27.22.39.11.66-.11.27-.21.22-.32.49-.11.27-.25.21-.36.47-.11.27.28.39.17.66-.11.27-.42.17-.53.43-.11.27.04.32-.07.59-.11.27-.38.23-.46.43l1.48.6c.08-.2-.12-.25-.02-.52.11-.27.22-.22.33-.48Z"/>
    <path class="st1" d="M20.3,140.02c.11-.27-.17-.31-.06-.58.11-.27.4-.33.51-.6.11-.27,0-.31.12-.57.11-.27.34-.18.45-.45.11-.27-.06-.41.05-.67.11-.27-.38-.37-.27-.63.11-.27.62-.1.73-.37.11-.27,0-.39.1-.65.11-.27.41-.03.52-.3.11-.27-.21-.4-.11-.67.11-.27.15-.25.26-.52.11-.27.36-.18.46-.45.11-.27-.23-.45-.13-.71.11-.27.53-.38.53-.4l-1.48-.6s.01.41-.09.67c-.11.27-.29.19-.4.45-.11.27.1.35-.01.62-.11.27-.35.16-.46.43-.11.26.35.36.24.62-.11.26-.29.29-.4.55-.11.26-.21.19-.32.45-.11.27.06.37-.05.63-.11.27-.43.14-.53.41-.11.27.22.39.11.66-.11.27-.21.22-.32.49-.11.27-.25.21-.36.47-.11.27.28.39.17.66-.11.27-.42.17-.53.43-.11.27.04.32-.07.59-.11.27-.38.23-.46.43l1.48.6c.08-.2-.12-.25-.02-.52.11-.27.22-.22.33-.48Z"/>
    <path class="st1" d="M19.37,141.49c.14-.02.26-.09.37-.17.1-.08.2-.18.25-.3,0,0,0,0,0,0l-1.48-.6s0,0,0,0c-.05.13-.08.27-.06.4.02.13.09.26.18.37.08.1.2.19.33.25.13.05.28.07.41.06Z"/>
  </g>
  <g>
    <path class="st1" d="M52.12,73.14c.2.05.41.06.6.01.18-.04.33-.15.44-.28.12-.14.17-.31.18-.49,0-.19,0-.4-.1-.6-.1-.19-.29-.37-.48-.52l-1.21,1.59c.18.14.38.24.57.29Z"/>
    <path class="st1" d="M39.31,68.49c.46.01.37-.34.85-.31.47.03.72.36,1.18.41.46.05.48-.07.94,0,.46.08.42.38.87.47.45.09.62-.13,1.07-.02.45.13.47-.51.94-.37.46.14.32.79.75.95.44.15.61.03,1.04.2.43.19.1.54.52.73.42.19.61-.2,1.03.01.42.21.39.26.8.49.41.23.26.53.65.77.39.25.71-.12,1.1.15.39.27.48.88.5.89l1.21-1.59s-.64-.23-1.06-.51c-.41-.28-.28-.49-.7-.76-.43-.27-.58-.03-1.01-.28-.44-.24-.27-.53-.72-.76-.45-.23-.57.35-1.01.15-.45-.21-.52-.45-.98-.64-.46-.18-.35-.31-.83-.47-.47-.17-.61.05-1.08-.1-.47-.14-.37-.55-.86-.68-.49-.11-.58.31-1.06.21-.49-.1-.46-.24-.95-.32-.49-.07-.47-.27-.97-.32-.5-.06-.5.46-.99.42-.49-.03-.52-.44-1.02-.46-.5,0-.5.18-1,.19-.5.01-.63-.32-1.01-.29l.13,2c.34-.02.29-.28.76-.3.47,0,.46.15.93.15Z"/>
    <path class="st1" d="M36.5,68.24c.13.14.32.22.51.29.19.07.39.11.62.1h0s-.13-2-.13-2h0c-.24.02-.49.07-.67.17-.19.11-.35.26-.44.43-.09.16-.14.34-.11.52.02.18.11.35.23.48Z"/>
  </g>
  <g>
    <path class="st1" d="M49.34,77.96c.17,0,.35-.04.5-.12.15-.08.28-.21.37-.36.1-.15.14-.32.15-.49,0-.17,0-.37-.08-.52-.08-.15-.24-.28-.4-.38l-1.03,1.71c.15.09.32.15.48.15Z"/>
    <path class="st1" d="M39.3,74.42c.36.04.32-.3.68-.25.36.06.52.39.87.46.35.07.38-.07.73.01.35.08.29.38.64.46.35.09.49-.14.84-.05.35.1.41-.52.77-.41.35.11.2.76.53.88.34.12.48-.03.82.1.34.13.05.51.38.65.33.14.51-.26.84-.11.33.15.31.2.63.35.33.16.2.46.51.62.31.17.59-.23.91-.06.32.18.39.72.4.73l1.03-1.71s-.53-.08-.87-.26c-.33-.18-.21-.4-.56-.58-.34-.18-.47.07-.81-.1-.34-.16-.2-.46-.55-.62-.35-.16-.48.42-.82.27-.35-.14-.39-.37-.74-.51-.36-.13-.26-.26-.62-.39-.36-.13-.48.09-.84-.02-.36-.11-.25-.52-.62-.63-.37-.1-.48.32-.84.23-.37-.09-.34-.23-.71-.31-.37-.08-.34-.26-.72-.34-.38-.07-.43.44-.8.38-.37-.06-.35-.46-.73-.52-.38-.05-.4.15-.78.11-.38-.03-.44-.38-.74-.4l-.13,2c.27.02.25-.25.61-.22.36.04.34.19.7.23Z"/>
    <path class="st1" d="M37.17,73.87c.08.15.22.26.36.36.14.09.29.16.46.18h0s.13-2,.13-2h0c-.19-.01-.38.01-.53.09-.16.08-.29.22-.38.36-.09.14-.14.32-.15.5,0,.18.04.36.11.51Z"/>
  </g>
</svg>