<?xml version="1.0" encoding="UTF-8"?>
<svg id="_レイヤー_1" xmlns="http://www.w3.org/2000/svg" version="1.1" viewBox="0 0 90 150">
  <!-- Generator: Adobe Illustrator 30.0.0, SVG Export Plug-In . SVG Version: 2.1.1 Build 123)  -->
  <defs>
    <style>
      .st0 {
        fill: #1c1917;
      }

      .st1 {
        fill: none;
        stroke: #1c1917;
        stroke-linecap: round;
        stroke-linejoin: round;
      }

      .st2 {
        fill: #fff;
      }
    </style>
  </defs>
  <path class="st2" d="M19.27,102.99c-2.19,4.81-3.94,6.75-6,9.19-2.48,2.93-5.26,4.82-5.26,4.82,0,0-.06,4.35-.32,6.2-1.22,8.56-2.22,14.71-2.22,14.71,0,0,3.17-2.23,10.67-7.63,4.28-3.08,6.09-3.98,9.25-6.14-.05-.54.45-1.91.5-3.88.01-.51.44-3.42,2.36-7.27.88-1.77,1.3-2.58,1.72-3.5"/>
  <path class="st2" d="M35.25,71.91c.1-1.61.2-3.22.29-4.83,10.51-16.98,21.03-33.95,31.54-50.93,1.23-1.48,4.7-5.23,9.94-5.78,1.27-.13,2.99-.29,4.78.59,4.56,2.24,4.7,8.81,4.71,9.13.04,4.11-17.42,32.14-31.41,56.76-1.46,1.14-3.28,2.08-4.37,3.76-6.47,10-14.17,22.89-17.4,28.77-.33.6-1.05.9-1.7.67-4.25-1.45-9.66-5.1-13.55-8.12-.45-.35-.56-.99-.27-1.47,5.96-9.73,11.45-18.79,17.44-28.56Z"/>
  <path class="st0" d="M17.64,100.36c5.08-8.51,12.03-20.42,17.19-28.71,0,0-.07.23-.07.23l-.04-4.85c-.01-.23,0-.2.12-.39,0,0,31.95-50.68,31.95-50.68.11-.17.33-.22.49-.11.17.1.22.32.11.49l-31.13,51.18.12-.39-.63,4.81-.02.14-.05.09c-4.99,8.33-12.48,20.05-17.69,28.4-.13.22-.5.01-.35-.22h0Z"/>
  <path class="st0" d="M76.04,10.3c3.44-.77,7.3.26,9.03,3.56,1.68,3.04,2.23,6.76,1.23,10.11-.94,3.38-3.31,6-5.03,8.98-1.79,2.89-3.54,5.81-5.25,8.76-7.01,11.85-13.45,24.12-20.17,36.1-1.72,1.27-3.4,2.02-4.48,3.77-5.5,8.15-10.79,16.45-15.85,24.88,0,0-1.8,3.09-1.8,3.09-.33.67-1.15,1.11-1.91.97-5.15-1.8-9.56-5.15-13.87-8.4-.21-.21.03-.52.28-.36,4.23,3.17,8.7,6.3,13.71,7.97.43.05.86-.18,1.05-.59l1.72-3.15c4.74-8.55,10.02-17.61,15.12-25.94,1.05-1.76,3.08-2.99,4.53-4.15,0,0-.31.36-.31.36,7.07-11.66,13.96-23.43,20.98-35.12,2.66-4.37,5.27-8.79,8.17-13.02,3.17-3.94,4.03-9.52,1.52-14.04-1.66-3.26-5.22-4.14-8.61-3.35-.27.04-.33-.37-.07-.41h0Z"/>
  <path class="st1" d="M17.83,105.87c-1.56,2.83-2.97,4.42-4.56,6.3-2.48,2.93-5.26,4.82-5.26,4.82,0,0-.06,4.35-.32,6.2-1.22,8.56-2.22,14.71-2.22,14.71,0,0,3.17-2.23,10.67-7.63,4.28-3.08,6.09-3.98,9.25-6.14-.05-.54.16-1.63.5-3.88.07-.5.44-3.42,2.36-7.27.88-1.77,1.3-2.58,1.72-3.5"/>
  <ellipse class="st0" cx="17.45" cy="119.76" rx="2.1" ry="2.08" transform="translate(-103.47 114.87) rotate(-79.39)"/>
  <path class="st1" d="M16.98,120.13c-3.08,4.77-7.93,12.42-11.01,17.19"/>
  <path class="st0" d="M52.98,75.14c-3.88-4.72-9.79-7.65-15.88-7.88-.65-.03-.62-1.02.04-1,6.28.47,12.27,3.7,16.08,8.69.12.15-.11.35-.24.19h0Z"/>
  <path class="st0" d="M49.69,80.06c-3.25-3.34-7.48-5.75-12.08-6.88-.11-.02-.08-.2.04-.17,4.69.86,9.16,3.06,12.74,6.33.49.45-.22,1.2-.69.72h0Z"/>
</svg>