<svg xmlns="http://www.w3.org/2000/svg" id="_レイヤー_1" viewBox="0 0 90 150"><defs><style>.st0{fill:#1c1917}.st1{fill:#fff}</style></defs><path d="M19.27 102.99c-2.19 4.81-3.94 6.75-6 9.19-2.48 2.93-5.26 4.82-5.26 4.82s-.06 4.35-.32 6.2c-1.22 8.56-2.22 14.71-2.22 14.71s3.17-2.23 10.67-7.63c4.28-3.08 6.09-3.98 9.25-6.14-.05-.54.45-1.91.5-3.88.01-.51.44-3.42 2.36-7.27.88-1.77 1.3-2.58 1.72-3.5" class="st1"/><path d="M35.25 71.91c.1-1.61.2-3.22.29-4.83C46.05 50.1 56.57 33.13 67.08 16.15c1.23-1.48 4.7-5.23 9.94-5.78 1.27-.13 2.99-.29 4.78.59 4.56 2.24 4.7 8.81 4.71 9.13.04 4.11-17.42 32.14-31.41 56.76-1.46 1.14-3.28 2.08-4.37 3.76-6.47 10-14.17 22.89-17.4 28.77-.33.6-1.05.9-1.7.67-4.25-1.45-9.66-5.1-13.55-8.12-.45-.35-.56-.99-.27-1.47 5.96-9.73 11.45-18.79 17.44-28.56Z" class="st1"/><path d="m17.4 100.21 17.11-28.76-.13.4.33-4.83c.01-.22 0-.21.12-.39l31.88-50.72c.13-.2.39-.26.59-.14.2.13.26.39.14.59-.03-.12-31.77 52.41-31.07 50.75l-.26 4.84v.22l-.13.18-17.77 28.35c-.14.23-.44.3-.67.15a.496.496 0 0 1-.16-.66ZM75.93 9.7c8.92-2.22 13.21 7.03 11.05 14.49-1.01 3.47-3.39 6.06-5.16 9.11-1.8 2.88-3.54 5.8-5.28 8.72C69.47 53.82 62.87 66 55.85 77.81c-1.72 1.27-3.41 2.01-4.49 3.76-4.2 6.15-8.21 12.43-12.13 18.77-1.84 2.94-3.77 6.18-5.34 9.3-.41.92-1.73 1.39-2.65.92-4.94-1.93-9.25-5.11-13.31-8.44-.2-.21.03-.51.28-.36 3.88 2.74 7.88 5.4 12.2 7.22.42.21 1.16.43 1.54.55.34.03.68-.13.86-.48.59-1.04 1.23-2.06 1.85-3.08 4.89-8.57 10.02-17.47 15.17-25.92 1.05-1.76 3.07-2.99 4.52-4.16l-.31.36c6.76-11.84 13.51-23.69 20.47-35.43 1.75-2.93 3.5-5.86 5.32-8.76 1.62-2.83 4.02-5.42 5.05-8.52 1.36-4.16.29-10.19-4.06-12.03-1.37-.54-3.04-.43-4.65-.19-1.06.15-1.29-1.44-.25-1.61Z" class="st0"/><path d="M18.24 106.1c-2.45 4.45-5.74 8.46-9.8 11.53l.33-.62c-.05 3.53-.52 7.11-1.18 10.55l-1.78 10.4c0 .02-.53-.33-.53-.33 5.71-4.3 13.77-10.28 19.67-14.12.02-.02-.33.71-.33.71-.06-1.41.22-2.73.35-4.05.31-2.67 1.2-5.26 2.39-7.65.48-.8 1.74-4.48 3.04-3.15.37.75-.09 1.64-.39 2.29-.82 1.64-1.73 3.46-2.29 5.19-.78 2.21-1.22 4.95-1.56 7.21.01.28-.1.57-.33.71-6.03 3.63-14.31 9.32-20.16 13.4-.23.17-.59-.05-.53-.34l1.36-10.45c.53-3.5.84-6.89.75-10.41 0-.26.13-.49.33-.62 3.02-2.03 5.57-4.81 7.8-7.66.74-.97 1.41-1.99 2.03-3.06.3-.51 1.1-.09.82.45Z" class="st0"/><ellipse cx="17.45" cy="119.76" class="st0" rx="2.1" ry="2.08" transform="rotate(-79.39 17.458 119.761)"/><path d="M17.4 120.4 6.18 137.45c-.17.26-.59 0-.42-.27l10.8-17.32c.35-.56 1.21-.02.84.54M52.98 75.14c-3.88-4.72-9.79-7.65-15.88-7.88-.65-.03-.62-1.02.04-1 6.28.47 12.27 3.7 16.08 8.69.12.15-.11.35-.24.19M49.69 80.06c-3.25-3.34-7.48-5.75-12.08-6.88-.11-.02-.08-.2.04-.17 4.69.86 9.16 3.06 12.74 6.33.49.45-.22 1.2-.69.72Z" class="st0"/></svg>