<?xml version="1.0" encoding="UTF-8"?>
<svg id="_レイヤー_1" xmlns="http://www.w3.org/2000/svg" version="1.1" viewBox="0 0 100 100">
  <!-- Generator: Adobe Illustrator 30.0.0, SVG Export Plug-In . SVG Version: 2.1.1 Build 123)  -->
  <defs>
    <style>
      .st0 {
        fill: none;
      }

      .st1 {
        fill: #ceb372;
      }

      .st2 {
        fill: #fff;
      }
    </style>
  </defs>
  <path class="st2" d="M83.47,47.46c.26,9.55.16,19.11.14,28.66,0,4.02-.07,8.04-.06,12.06,0,1.14-.64,1.98-1.96,1.97-7.49-.05-14.98.13-22.48.07-.05,0-.1,0-.16,0-1.12-.12-2.21-.3-3.38-.05-1.05.23-2.18.05-3.28.05h-3.37c-1.1,0-2.19-.02-3.29,0-.64.02-1.22-.34-1.8-.35-.55-.01-1.11.35-1.72.35-3.89-.01-7.78.06-11.67-.03-3.26-.07-6.53-.01-9.79-.06-1.61-.03-2.04-.6-2.05-2.03-.08-8.88,0-17.75-.09-26.63-.04-4.7,0-9.4-.06-14.1"/>
  <path class="st2" d="M43.6,46.91c-8.99,0-18.27-.67-27.18,0-.16.01-.31,0-.47,0-1.19.1-1.67-.23-1.62-1.41.1-2.43.02-4.86.11-7.29.06-1.75.19-3.5.25-5.25.04-1.34.5-1.8,1.81-1.89,13.02-.82,26.14-.43,39.19-.44,6.77,0,13.89.15,20.79-.09,2.33-.08,11.06-2.21,11.06,2.03,0,3.15,0,6.3,0,9.46,0,2.62.62,5.09-2.8,5.06-8.96-.09-18.1.35-27.04-.19"/>
  <g>
    <rect class="st1" x="43.55" y="30.63" width="13.35" height="59.64"/>
    <g>
      <path class="st1" d="M42.66,78.41c0,.35.34.27.34.62s-.31.55-.31.89.13.35.13.69-.31.35-.31.7.26.43.26.77.61.24.61.58-.67.39-.67.74.19.43.19.77-.46.22-.46.57.44.35.44.7-.05.35-.05.69-.33.36-.33.71.48.39.48.74-.43.67-.43.69h2s-.21-.45-.21-.79.25-.34.25-.69-.28-.35-.28-.69.33-.34.33-.68-.57-.24-.57-.58.2-.45.2-.8.15-.3.15-.65-.24-.38-.24-.73.43-.35.43-.7-.44-.34-.44-.68.14-.34.14-.69.19-.34.19-.69-.51-.31-.51-.66.41-.38.41-.72-.19-.34-.19-.69.34-.43.34-.69h-2c0,.26.26.22.26.57s-.15.34-.15.69Z"/>
      <path class="st1" d="M42.66,67.28c0,.35.34.27.34.62s-.31.55-.31.89.13.35.13.69-.31.35-.31.7.26.43.26.77.61.24.61.58-.67.39-.67.74.19.43.19.77-.46.22-.46.57.44.35.44.7-.05.35-.05.69-.33.36-.33.71.48.39.48.74-.43.67-.43.69h2s-.21-.45-.21-.79.25-.34.25-.69-.28-.35-.28-.69.33-.34.33-.68-.57-.24-.57-.58.2-.45.2-.8.15-.3.15-.65-.24-.38-.24-.73.43-.35.43-.7-.44-.34-.44-.68.14-.34.14-.69.19-.34.19-.69-.51-.31-.51-.66.41-.38.41-.72-.19-.34-.19-.69.34-.43.34-.69h-2c0,.26.26.22.26.57s-.15.34-.15.69Z"/>
      <path class="st1" d="M42.66,56.15c0,.35.34.27.34.62s-.31.55-.31.89.13.35.13.69-.31.35-.31.7.26.43.26.77.61.24.61.58-.67.39-.67.74.19.43.19.77-.46.22-.46.57.44.35.44.7-.05.35-.05.69-.33.36-.33.71.48.39.48.74-.43.67-.43.69h2s-.21-.45-.21-.79.25-.34.25-.69-.28-.35-.28-.69.33-.34.33-.68-.57-.24-.57-.58.2-.45.2-.8.15-.3.15-.65-.24-.38-.24-.73.43-.35.43-.7-.44-.34-.44-.68.14-.34.14-.69.19-.34.19-.69-.51-.31-.51-.66.41-.38.41-.72-.19-.34-.19-.69.34-.43.34-.69h-2c0,.26.26.22.26.57s-.15.34-.15.69Z"/>
      <path class="st1" d="M42.66,45.02c0,.35.34.27.34.62s-.31.55-.31.89.13.35.13.69-.31.35-.31.7.26.43.26.77.61.24.61.58-.67.39-.67.74.19.43.19.77-.46.22-.46.57.44.35.44.7-.05.35-.05.69-.33.36-.33.71.48.39.48.74-.43.67-.43.69h2s-.21-.45-.21-.79.25-.34.25-.69-.28-.35-.28-.69.33-.34.33-.68-.57-.24-.57-.58.2-.45.2-.8.15-.3.15-.65-.24-.38-.24-.73.43-.35.43-.7-.44-.34-.44-.68.14-.34.14-.69.19-.34.19-.69-.51-.31-.51-.66.41-.38.41-.72-.19-.34-.19-.69.34-.43.34-.69h-2c0,.26.26.22.26.57s-.15.34-.15.69Z"/>
      <path class="st1" d="M42.66,33.89c0,.35.34.27.34.62s-.31.55-.31.89.13.35.13.69-.31.35-.31.7.26.43.26.77.61.24.61.58-.67.39-.67.74.19.43.19.77-.46.22-.46.57.44.35.44.7-.05.35-.05.69-.33.36-.33.71.48.39.48.74-.43.67-.43.69h2s-.21-.45-.21-.79.25-.34.25-.69-.28-.35-.28-.69.33-.34.33-.68-.57-.24-.57-.58.2-.45.2-.8.15-.3.15-.65-.24-.38-.24-.73.43-.35.43-.7-.44-.34-.44-.68.14-.34.14-.69.19-.34.19-.69-.51-.31-.51-.66.41-.38.41-.72-.19-.34-.19-.69.34-.43.34-.69h-2c0,.26.26.22.26.57s-.15.34-.15.69Z"/>
      <path class="st1" d="M53.84,29.74c-.29,0-.23.34-.52.34s-.46-.31-.75-.31-.29.13-.58.13-.3-.31-.59-.31-.36.26-.65.26-.2.61-.49.61-.33-.67-.62-.67-.36.19-.65.19-.19-.46-.48-.46-.3.44-.59.44-.29-.05-.58-.05-.31-.33-.6-.33-.33.48-.62.48-.56-.43-.58-.43v2s.38-.21.66-.21.29.25.58.25.29-.28.58-.28.28.33.57.33.2-.57.49-.57.38.2.67.2.26.15.54.15.32-.24.61-.24.3.43.59.43.28-.44.57-.44.29.14.58.14.29.19.58.19.26-.51.55-.51.32.41.61.41.29-.19.58-.19.36.34.58.34v-2c-.22,0-.19.26-.48.26s-.29-.15-.58-.15Z"/>
      <path class="st1" d="M57.79,42.5c0-.35-.34-.27-.34-.62s.31-.55.31-.89-.13-.35-.13-.69.31-.35.31-.7-.26-.43-.26-.77-.61-.24-.61-.58.67-.39.67-.74-.19-.43-.19-.77.46-.22.46-.57-.44-.35-.44-.7.05-.35.05-.69.33-.36.33-.71-.48-.39-.48-.74.43-.67.43-.69h-2s.21.45.21.79-.25.34-.25.69.28.35.28.69-.33.34-.33.68.57.24.57.58-.2.45-.2.8-.15.3-.15.65.24.38.24.73-.43.35-.43.7.44.34.44.68-.14.34-.14.69-.19.34-.19.69.51.31.51.66-.41.38-.41.72.19.34.19.69-.34.43-.34.69h2c0-.26-.26-.22-.26-.57s.15-.34.15-.69Z"/>
      <path class="st1" d="M57.79,53.63c0-.35-.34-.27-.34-.62s.31-.55.31-.89-.13-.35-.13-.69.31-.35.31-.7-.26-.43-.26-.77-.61-.24-.61-.58.67-.39.67-.74-.19-.43-.19-.77.46-.22.46-.57-.44-.35-.44-.7.05-.35.05-.69.33-.36.33-.71-.48-.39-.48-.74.43-.67.43-.69h-2s.21.45.21.79-.25.34-.25.69.28.35.28.69-.33.34-.33.68.57.24.57.58-.2.45-.2.8-.15.3-.15.65.24.38.24.73-.43.35-.43.7.44.34.44.68-.14.34-.14.69-.19.34-.19.69.51.31.51.66-.41.38-.41.72.19.34.19.69-.34.43-.34.69h2c0-.26-.26-.22-.26-.57s.15-.34.15-.69Z"/>
      <path class="st1" d="M57.79,64.76c0-.35-.34-.27-.34-.62s.31-.55.31-.89-.13-.35-.13-.69.31-.35.31-.7-.26-.43-.26-.77-.61-.24-.61-.58.67-.39.67-.74-.19-.43-.19-.77.46-.22.46-.57-.44-.35-.44-.7.05-.35.05-.69.33-.36.33-.71-.48-.39-.48-.74.43-.67.43-.69h-2s.21.45.21.79-.25.34-.25.69.28.35.28.69-.33.34-.33.68.57.24.57.58-.2.45-.2.8-.15.3-.15.65.24.38.24.73-.43.35-.43.7.44.34.44.68-.14.34-.14.69-.19.34-.19.69.51.31.51.66-.41.38-.41.72.19.34.19.69-.34.43-.34.69h2c0-.26-.26-.22-.26-.57s.15-.34.15-.69Z"/>
      <path class="st1" d="M57.79,75.89c0-.35-.34-.27-.34-.62s.31-.55.31-.89-.13-.35-.13-.69.31-.35.31-.7-.26-.43-.26-.77-.61-.24-.61-.58.67-.39.67-.74-.19-.43-.19-.77.46-.22.46-.57-.44-.35-.44-.7.05-.35.05-.69.33-.36.33-.71-.48-.39-.48-.74.43-.67.43-.69h-2s.21.45.21.79-.25.34-.25.69.28.35.28.69-.33.34-.33.68.57.24.57.58-.2.45-.2.8-.15.3-.15.65.24.38.24.73-.43.35-.43.7.44.34.44.68-.14.34-.14.69-.19.34-.19.69.51.31.51.66-.41.38-.41.72.19.34.19.69-.34.43-.34.69h2c0-.26-.26-.22-.26-.57s.15-.34.15-.69Z"/>
      <path class="st1" d="M57.79,87.01c0-.35-.34-.27-.34-.62s.31-.55.31-.89-.13-.35-.13-.69.31-.35.31-.7-.26-.43-.26-.77-.61-.24-.61-.58.67-.39.67-.74-.19-.43-.19-.77.46-.22.46-.57-.44-.35-.44-.7.05-.35.05-.69.33-.36.33-.71-.48-.39-.48-.74.43-.67.43-.69h-2s.21.45.21.79-.25.34-.25.69.28.35.28.69-.33.34-.33.68.57.24.57.58-.2.45-.2.8-.15.3-.15.65.24.38.24.73-.43.35-.43.7.44.34.44.68-.14.34-.14.69-.19.34-.19.69.51.31.51.66-.41.38-.41.72.19.34.19.69-.34.43-.34.69h2c0-.26-.26-.22-.26-.57s.15-.34.15-.69Z"/>
      <path class="st1" d="M46.61,91.17c.29,0,.23-.34.52-.34s.46.31.75.31.29-.13.58-.13.3.31.59.31.36-.26.65-.26.2-.61.49-.61.33.67.62.67.36-.19.65-.19.19.46.48.46.3-.44.59-.44.29.05.58.05.31.33.6.33.33-.48.62-.48.56.43.58.43v-2s-.38.21-.66.21-.29-.25-.58-.25-.29.28-.58.28-.28-.33-.57-.33-.2.57-.49.57-.38-.2-.67-.2-.26-.15-.54-.15-.32.24-.61.24-.3-.43-.59-.43-.28.44-.57.44-.29-.14-.58-.14-.29-.19-.58-.19-.26.51-.55.51-.32-.41-.61-.41-.29.19-.58.19-.36-.34-.58-.34v2c.22,0,.19-.26.48-.26s.29.15.58.15Z"/>
      <g>
        <path class="st1" d="M45.11,29.77h-.06s-.06,0-.06,0h-.13s-.12-.01-.12-.01h-.06s-.06.02-.06.02h-.03s-.02.03-.02.03l-.02.02-.02.02-.04.05-.04.05-.07.11-.02.02-.02.02-.02.02-.03.02h-.03s-.03.02-.03.02h-.03s-.03,0-.03,0c-.04,0-.09,0-.14,0h-.07s-.07,0-.07,0h-.03s-.03.01-.03.01h-.03s-.03.03-.03.03l-.04.04-.04.04-.06.08-.06.08-.03.04-.04.04-.02.02-.02.03v.03s-.02.03-.02.03v.07s-.02.07-.02.07c0,.05-.01.1-.02.15v.03s-.02.03-.02.03v.03s-.03.03-.03.03l-.02.02-.02.02-.02.02-.03.02-.11.05-.06.03-.05.03-.02.02-.02.02-.02.02v.02s-.05.08-.07.12l-.05.13c-.03.09-.06.18-.08.25v.03s0,.03,0,.03v.02s0,.02,0,.02v.05s.03.04.03.04l.02.04.02.05v.02s0,.03,0,.03v.03s0,.03,0,.03v.03s-.02.03-.02.03l-.02.03-.02.03s-.07.07-.1.11l-.05.06-.05.06-.02.03v.03s-.02.03-.02.03v.03s1,0,1,0h1v-.03s0-.02,0-.02v-.04s-.02-.03-.02-.03v-.02s0-.02,0-.02v-.02s0-.02,0-.02v-.02s-.02-.02-.02-.02c-.01-.02-.03-.05-.05-.08l-.02-.05v-.03s-.01-.03-.01-.03v-.03s0-.03,0-.03v-.03s.02-.04.02-.04c0-.02.02-.06.04-.1.01-.04.03-.08.04-.13.02-.04.03-.09.05-.13l.03-.05s.02-.03.03-.04l.03-.03.03-.02.03-.02h.03s.03-.03.03-.03h.03s.06-.02.06-.02c.04,0,.07,0,.1,0h.04s.02,0,.02,0h.02s.02-.01.02-.01h.02s.02,0,.02,0h.02s.04.03.04.03l.04.03.04.03.04.02h.02s.02.02.02.02h.02s.02,0,.02,0c.01,0,.03,0,.04,0h.05s.08,0,.11,0v-2h-.02s-.02,0-.02,0h-.05s-.07.04-.11.05l-.12.05-.06.02h-.06Z"/>
        <rect class="st0" x="41.55" y="28.63" width="4" height="4"/>
      </g>
      <g>
        <path class="st1" d="M57.76,32.19v-.06s0-.06,0-.06v-.13s.01-.12.01-.12v-.06s-.02-.06-.02-.06v-.03s-.03-.02-.03-.02l-.02-.02-.02-.02-.05-.04-.05-.04-.11-.07-.02-.02-.02-.02-.02-.02-.02-.03v-.03s-.02-.03-.02-.03v-.03s0-.03,0-.03c0-.04,0-.09,0-.14v-.07s0-.07,0-.07v-.03s-.01-.03-.01-.03v-.03s-.03-.03-.03-.03l-.04-.04-.04-.04-.08-.06-.08-.06-.04-.03-.04-.04-.02-.02-.03-.02h-.03s-.03-.02-.03-.02h-.07s-.07-.02-.07-.02c-.05,0-.1-.01-.15-.02h-.03s-.03-.02-.03-.02h-.03s-.03-.03-.03-.03l-.02-.02-.02-.02-.02-.02-.02-.03-.05-.11-.03-.06-.03-.05-.02-.02-.02-.02-.02-.02h-.02s-.08-.05-.12-.07l-.13-.05c-.09-.03-.18-.06-.25-.08h-.03s-.03,0-.03,0h-.02s-.02,0-.02,0h-.05s-.04.03-.04.03l-.04.02-.05.02h-.02s-.03,0-.03,0h-.03s-.03,0-.03,0h-.03s-.03-.02-.03-.02l-.03-.02-.03-.02s-.07-.07-.11-.1l-.06-.05-.06-.05-.03-.02h-.03s-.03-.02-.03-.02h-.03s0,1,0,1v1h.03s.02,0,.02,0h.04s.03-.02.03-.02h.02s.02,0,.02,0h.02s.02,0,.02,0h.02s.02-.02.02-.02c.02-.01.05-.03.08-.05l.05-.02h.03s.03-.01.03-.01h.03s.03,0,.03,0h.03s.04.02.04.02c.02,0,.06.02.1.04.04.01.08.03.13.04.04.02.09.03.13.05l.05.03s.03.02.04.03l.03.03.02.03.02.03v.03s.03.03.03.03v.03s.02.06.02.06c0,.04,0,.07,0,.1v.04s0,.02,0,.02v.02s.01.02.01.02v.02s0,.02,0,.02v.02s-.03.04-.03.04l-.03.04-.03.04-.02.04v.02s-.02.02-.02.02v.02s0,.02,0,.02c0,.01,0,.03,0,.04v.05s0,.08,0,.11h2v-.02s0-.02,0-.02v-.05s-.04-.07-.05-.11l-.05-.12-.02-.06v-.06Z"/>
        <rect class="st0" x="54.9" y="28.63" width="4" height="4"/>
      </g>
      <g>
        <path class="st1" d="M55.34,91.14h.06s.06,0,.06,0h.13s.12.01.12.01h.06s.06-.02.06-.02h.03s.02-.03.02-.03l.02-.02.02-.02.04-.05.04-.05.07-.11.02-.02.02-.02.02-.02.03-.02h.03s.03-.02.03-.02h.03s.03,0,.03,0c.04,0,.09,0,.14,0h.07s.07,0,.07,0h.03s.03-.01.03-.01h.03s.03-.03.03-.03l.04-.04.04-.04.06-.08.06-.08.03-.04.04-.04.02-.02.02-.03v-.03s.02-.03.02-.03v-.07s.02-.07.02-.07c0-.05.01-.1.02-.15v-.03s.02-.03.02-.03v-.03s.03-.03.03-.03l.02-.02.02-.02.02-.02.03-.02.11-.05.06-.03.05-.03.02-.02.02-.02.02-.02v-.02s.05-.08.07-.12l.05-.13c.03-.09.06-.18.08-.25v-.03s0-.03,0-.03v-.02s0-.02,0-.02v-.05s-.03-.04-.03-.04l-.02-.04-.02-.05v-.02s0-.03,0-.03v-.03s0-.03,0-.03v-.03s.02-.03.02-.03l.02-.03.02-.03s.07-.07.1-.11l.05-.06.05-.06.02-.03v-.03s.02-.03.02-.03v-.03s-1,0-1,0h-1v.03s0,.02,0,.02v.04s.02.03.02.03v.02s0,.02,0,.02v.02s0,.02,0,.02v.02s.02.02.02.02c.01.02.03.05.05.08l.02.05v.03s.01.03.01.03v.03s0,.03,0,.03v.03s-.02.04-.02.04c0,.02-.02.06-.04.1-.01.04-.03.08-.04.13-.02.04-.03.09-.05.13l-.03.05s-.02.03-.03.04l-.03.03-.03.02-.03.02h-.03s-.03.03-.03.03h-.03s-.06.02-.06.02c-.04,0-.07,0-.1,0h-.04s-.02,0-.02,0h-.02s-.02.01-.02.01h-.02s-.02,0-.02,0h-.02s-.04-.03-.04-.03l-.04-.03-.04-.03-.04-.02h-.02s-.02-.02-.02-.02h-.02s-.02,0-.02,0c-.01,0-.03,0-.04,0h-.05s-.08,0-.11,0v2h.02s.02,0,.02,0h.05s.07-.04.11-.05l.12-.05.06-.02h.06Z"/>
        <rect class="st0" x="54.9" y="88.28" width="4" height="4"/>
      </g>
      <g>
        <path class="st1" d="M42.69,88.72v.06s0,.06,0,.06v.13s-.01.12-.01.12v.06s.02.06.02.06v.03s.03.02.03.02l.02.02.02.02.05.04.05.04.11.07.02.02.02.02.02.02.02.03v.03s.02.03.02.03v.03s0,.03,0,.03c0,.04,0,.09,0,.14v.07s0,.07,0,.07v.03s.01.03.01.03v.03s.03.03.03.03l.04.04.04.04.08.06.08.06.04.03.04.04.02.02.03.02h.03s.03.02.03.02h.07s.07.02.07.02c.05,0,.1.01.15.02h.03s.03.02.03.02h.03s.03.03.03.03l.02.02.02.02.02.02.02.03.05.11.03.06.03.05.02.02.02.02.02.02h.02s.08.05.12.07l.13.05c.09.03.18.06.25.08h.03s.03,0,.03,0h.02s.02,0,.02,0h.05s.04-.03.04-.03l.04-.02.05-.02h.02s.03,0,.03,0h.03s.03,0,.03,0h.03s.03.02.03.02l.03.02.03.02s.07.07.11.1l.06.05.06.05.03.02h.03s.03.02.03.02h.03s0-1,0-1v-1h-.03s-.02,0-.02,0h-.04s-.03.02-.03.02h-.02s-.02,0-.02,0h-.02s-.02,0-.02,0h-.02s-.02.02-.02.02c-.02.01-.05.03-.08.05l-.05.02h-.03s-.03.01-.03.01h-.03s-.03,0-.03,0h-.03s-.04-.02-.04-.02c-.02,0-.06-.02-.1-.04-.04-.01-.08-.03-.13-.04-.04-.02-.09-.03-.13-.05l-.05-.03s-.03-.02-.04-.03l-.03-.03-.02-.03-.02-.03v-.03s-.03-.03-.03-.03v-.03s-.02-.06-.02-.06c0-.04,0-.07,0-.1v-.04s0-.02,0-.02v-.02s-.01-.02-.01-.02v-.02s0-.02,0-.02v-.02s.03-.04.03-.04l.03-.04.03-.04.02-.04v-.02s.02-.02.02-.02v-.02s0-.02,0-.02c0-.01,0-.03,0-.04v-.05s0-.08,0-.11h-2v.02s0,.02,0,.02v.05s.04.07.05.11l.05.12.02.06v.06Z"/>
        <rect class="st0" x="41.55" y="88.28" width="4" height="4"/>
      </g>
    </g>
  </g>
  <g>
    <path class="st1" d="M75.94,13.39c-1.61-2.48-3.91-3.76-6.89-3.59-2.17.12-4.05,1.09-5.8,2.33-3.26,2.33-5.76,5.39-8.06,8.62-.1.14-.49.86-1.03,1.85-.09-.11-.2-.19-.31-.22-1.52-.35-2.97-.42-4.56-.06-.72.16-1.23.48-1.63.89-2.69-4.14-5.76-8.63-7.6-10.29-1.81-1.64-3.92-2.77-6.34-3.11-2.1-.29-4.1.11-5.79,1.54-2.24,1.89-3.28,4.38-3.68,7.21-.32,2.25-.26,4.47.46,6.66.35,1.07.76,2.09,1.49,2.98.46.56.81,1.53.92,2.26l22.88-.13c-.14.25-.24.42-.28.48l24.93-.42c1.48-.85,3.21-5.52,3.39-7.52.31-3.37-.24-6.58-2.11-9.47Z"/>
    <g>
      <path class="st1" d="M50.18,23.07s-.02-.34.03-.35c.04,0,.11.3.15.29.04,0,.03-.14.07-.14.04,0,.08.3.12.3.04,0,.03-.26.07-.27.04,0-.03-.61.02-.62.05,0,.1.66.15.66.04,0,.04-.19.08-.19.04,0,.06.46.1.46.04,0,.02-.44.06-.44.04,0,.05.05.09.05.04,0,.05.32.1.32.04,0,.04-.48.08-.48.04,0,.09.43.09.43v-2s-.07.21-.12.21c-.05,0-.05-.25-.11-.25-.05,0-.04.28-.09.28-.05,0-.06-.33-.11-.33-.05,0,0,.58-.06.58-.05,0-.08-.2-.13-.19-.05,0-.05-.15-.1-.15-.05,0-.04.25-.09.25-.05,0-.09-.42-.14-.42-.05,0,0,.44-.06.44-.05,0-.06-.14-.11-.13-.05,0-.07-.18-.12-.18-.05,0,.02.51-.03.52-.05,0-.11-.4-.16-.39-.05,0-.02.2-.07.21-.05,0-.11-.32-.15-.32l.32,1.97s-.02-.26.03-.27c.04,0,.07.15.11.14Z"/>
      <path class="st1" d="M40.03,14.14c.22.22.42-.05.63.19.22.24.1.59.31.84.2.25.31.17.51.42.2.26-.04.45.16.71.2.26.45.17.65.43.2.26.63-.18.82.08.19.27-.32.7-.13.96.19.27.39.22.58.49.19.27-.26.44-.07.71.19.27.55.03.74.3.19.27.14.3.33.58.19.27-.07.47.11.74.18.27.61.04.79.32.18.27,0,.77,0,.79l1.67-1.11s-.41-.24-.6-.52c-.19-.28.02-.41-.16-.69-.19-.28-.42-.12-.61-.4-.19-.27.09-.46-.1-.73-.19-.27-.6.13-.79-.14-.19-.27-.09-.47-.28-.75-.19-.27-.05-.33-.24-.6-.19-.27-.42-.16-.61-.43-.2-.27.14-.53-.06-.8-.2-.27-.54,0-.75-.27-.21-.27-.09-.36-.3-.62-.21-.26-.06-.38-.28-.65-.22-.26-.59.09-.81-.17-.23-.25.06-.55-.18-.81-.25-.25-.37-.12-.63-.37-.25-.25-.1-.55-.3-.73l-1.3,1.52c.17.15.34-.07.56.15.22.21.11.32.32.55Z"/>
      <path class="st1" d="M31.24,10.73c.29-.05.17-.38.48-.41.31-.03.5.27.8.27.3,0,.3-.13.61-.11.31.03.28.33.57.38.29.04.41-.19.72-.13.3.07.35-.55.67-.46.32.09.16.74.45.84.29.1.43-.04.71.08.29.12,0,.5.27.63.27.13.47-.25.75-.1.27.16.25.2.51.37.27.17.1.45.35.62.25.18.57-.18.82.01.25.2.2.72.21.73l1.3-1.52s-.48-.14-.76-.35c-.28-.21-.13-.41-.42-.62-.3-.2-.45.02-.75-.16-.3-.19-.12-.47-.44-.65-.32-.17-.49.39-.8.23-.31-.15-.33-.38-.65-.52-.33-.13-.23-.26-.57-.38-.34-.12-.45.1-.79,0-.34-.09-.24-.51-.6-.58-.36-.07-.43.36-.77.31-.35-.05-.33-.19-.69-.22-.36-.03-.35-.21-.72-.22-.37,0-.32.51-.67.53-.35.03-.43-.37-.8-.31-.37.07-.33.26-.67.35-.35.09-.54-.19-.81-.09l.71,1.87c.2-.07.08-.31.37-.4.29-.08.32.07.6.01Z"/>
      <path class="st1" d="M25.32,17.66c.07-.3-.28-.31-.2-.63.08-.31.43-.4.52-.7.1-.29-.03-.34.08-.63.12-.29.4-.18.52-.45.12-.27-.07-.45.07-.73.15-.26-.43-.49-.26-.77.18-.28.75.05.93-.19.17-.25.08-.41.28-.66.21-.23.48.16.68-.06.21-.2-.1-.53.13-.74.23-.2.27-.17.5-.36.24-.19.44.07.67-.08.23-.15.03-.58.3-.73.14-.06.31-.04.46.03.14.06.24.13.25.13l-.71-1.87s-.38.37-.7.54c-.32.18-.45-.04-.77.16-.31.22-.16.44-.45.66-.29.23-.49-.02-.77.22-.27.25.21.59-.03.83-.24.25-.47.2-.69.47-.22.27-.32.15-.53.44-.22.29-.03.47-.22.76-.18.3-.56.09-.73.42-.17.33.22.51.08.83-.15.32-.27.26-.41.59-.12.33-.3.27-.42.61-.1.34.38.45.3.78-.09.33-.49.27-.57.61-.08.34.12.38.06.72-.05.34-.4.37-.44.63l1.98.27c.03-.23-.23-.24-.18-.56.05-.31.21-.28.27-.59Z"/>
      <path class="st1" d="M26.65,27.3c-.16-.24-.41,0-.57-.27-.15-.27.05-.57-.08-.84-.12-.28-.24-.23-.36-.52-.11-.3.18-.41.08-.71-.09-.29-.37-.28-.45-.59-.08-.3-.65-.06-.72-.38-.07-.32.57-.5.53-.8-.05-.3-.24-.36-.28-.67-.03-.32.44-.24.42-.55-.02-.3-.45-.29-.46-.61,0-.32.05-.32.05-.63.01-.32.33-.32.35-.63.02-.31-.45-.39-.43-.72.03-.32.5-.56.5-.58l-1.98-.27s.15.47.11.81c-.03.34-.28.32-.3.67-.02.35.26.37.25.71,0,.35-.34.34-.33.7.01.36.58.23.6.57.02.34-.16.47-.13.82.05.34-.12.33-.06.68.06.35.31.34.38.68.08.34-.33.45-.24.8.1.35.52.21.62.54.11.32-.03.37.09.7.13.33-.05.4.09.73.15.33.59.08.75.39.17.31-.17.54.04.86.21.3.39.21.58.46.15.21-.11.44-.02.61l1.78-.91c-.15-.27-.35-.11-.57-.45-.14-.18-.15-.26-.16-.33-.01-.08-.02-.16-.11-.28Z"/>
      <path class="st1" d="M44.56,29.47c-.55,0-.43.34-.98.35-.55,0-.87-.3-1.42-.3-.55,0-.55.14-1.1.14-.55,0-.57-.3-1.12-.3-.55,0-.68.26-1.23.27-.55,0-.38.61-.93.62-.55,0-.63-.66-1.18-.66-.55,0-.68.19-1.23.19-.55,0-.36-.46-.91-.46-.55,0-.56.44-1.11.44-.55,0-.55-.05-1.1-.05-.55,0-.58-.32-1.13-.32-.55,0-.62.49-1.17.49-.55,0-1.06-.42-1.1-.42v2c.06,0,.72-.21,1.27-.21.55,0,.55.25,1.1.24.55,0,.55-.28,1.1-.28.55,0,.54.33,1.09.33.55,0,.38-.58.93-.58.55,0,.72.2,1.27.19.55,0,.48.15,1.03.15.55,0,.61-.24,1.16-.25.55,0,.56.42,1.11.42.55,0,.53-.44,1.08-.44.55,0,.55.14,1.1.14.55,0,.55.19,1.1.18.55,0,.49-.51,1.04-.51.55,0,.6.4,1.15.4.55,0,.55-.2,1.1-.2.55,0,.68.33,1.1.33v-2c-.42,0-.37.26-.92.27-.55,0-.55-.15-1.1-.15Z"/>
      <path class="st1" d="M65.21,29.65c-.4,0-.31.35-.71.35-.4,0-.64-.3-1.05-.29-.4,0-.4.14-.8.15-.4,0-.42-.3-.82-.29-.4,0-.49.27-.9.27-.4,0-.27.62-.67.62-.4,0-.47-.66-.87-.65-.4,0-.5.19-.9.2-.4,0-.27-.46-.67-.45-.4,0-.4.44-.8.45-.4,0-.4-.05-.81-.04-.4,0-.43-.32-.83-.31-.4,0-.45.49-.85.5-.4,0-.78-.42-.81-.42l.03,2s.52-.22.92-.22c.4,0,.4.24.81.24.4,0,.4-.28.8-.29.4,0,.4.33.8.32.4,0,.27-.58.67-.59.4,0,.53.19.93.18.4,0,.36.15.76.14.4,0,.44-.25.85-.26.4,0,.42.42.82.41.4,0,.38-.44.79-.45.4,0,.4.14.81.13.4,0,.4.18.81.18.4,0,.35-.51.76-.52.4,0,.45.4.85.39.4,0,.4-.2.8-.21.4,0,.51.33.81.32l-.03-2c-.3,0-.26.27-.66.27-.4,0-.4-.15-.81-.14Z"/>
      <path class="st1" d="M75.83,27.15c-.16.35.18.41.01.77-.18.35-.56.39-.75.7-.19.28-.1.41-.28.63-.16.19-.36-.05-.51.06-.16.08-.17.28-.42.31-.4,0-.27.62-.67.62-.4,0-.47-.66-.87-.65-.4,0-.5.19-.9.2-.4,0-.27-.46-.67-.45-.4,0-.4.44-.8.45-.4,0-.4-.05-.81-.04-.4,0-.43-.32-.83-.31-.4,0-.45.49-.85.5-.4,0-.78-.42-.81-.42l.03,2s.52-.22.92-.22c.4,0,.4.24.81.24.4,0,.4-.28.8-.29.4,0,.4.33.8.32.4,0,.27-.58.67-.59.4,0,.53.19.93.18.4,0,.36.15.76.14.4,0,.44-.25.85-.26.2,0,.31.1.41.21.05.05.1.1.17.14.05.04.15.06.31.06.31,0,.44-.12.54-.24.1-.13.21-.18.41-.37.22-.14.32-.22.44-.28.12-.06.25-.11.43-.35.32-.4.43-.27.69-.65.22-.38-.23-.59-.04-.96.2-.36.57-.22.76-.61.17-.39,0-.46.15-.84.16-.38.51-.36.62-.66l-1.88-.69c-.1.27.16.33.02.69-.14.36-.29.29-.44.65Z"/>
      <path class="st1" d="M76.02,15.36c.16.34.43.13.59.49.14.36-.07.68.04,1.03.11.36.24.32.34.69.08.37-.2.45-.14.81.07.36.34.41.39.79.04.38.64.19.68.59.02.4-.63.49-.62.87.01.38.19.47.19.86-.01.39-.47.23-.49.61-.03.37.41.43.37.8-.04.35-.11.35-.18.72-.09.37-.4.31-.5.67-.1.36.34.55.22.93-.12.38-.65.57-.66.59l1.88.69s0-.58.12-.97c.12-.4.37-.32.48-.74.11-.41-.16-.48-.06-.9.08-.43.41-.35.47-.83.04-.44-.55-.35-.51-.76.02-.41.23-.53.23-.95,0-.42.16-.37.15-.79,0-.42-.27-.46-.29-.87-.05-.41.39-.47.33-.9-.06-.43-.49-.35-.57-.76-.08-.41.05-.44-.04-.85-.12-.41.08-.46-.06-.87-.14-.41-.6-.21-.75-.59-.14-.39.2-.58.03-.97-.19-.39-.36-.3-.55-.67-.2-.37.04-.63-.13-.91l-1.7,1.05c.15.24.36.07.54.41.19.33.04.41.21.74Z"/>
      <path class="st1" d="M66.51,11.3c.34-.14.15-.42.51-.55.36-.12.66.13,1.01.05.36-.07.34-.2.7-.25.37-.03.39.27.75.27.35,0,.45-.26.81-.23.36.03.33-.58.72-.52.39.08.29.73.61.84.34.1.48-.03.82.12.33.16,0,.51.29.68.28.17.53-.18.83.04.29.22.25.27.52.51.26.26.04.49.27.76.23.26.63.01.86.32.22.31.04.84.05.86l1.7-1.05s-.47-.36-.72-.71c-.27-.34-.06-.5-.36-.84-.3-.34-.51-.14-.82-.45-.33-.29-.1-.55-.47-.83-.37-.27-.59.28-.95.05-.37-.22-.4-.46-.8-.65-.41-.16-.3-.3-.74-.43-.43-.13-.54.1-.97,0-.43-.08-.38-.5-.84-.54-.46-.02-.46.41-.89.41-.43,0-.44-.13-.87-.09-.43.05-.46-.13-.9-.05-.44.1-.27.58-.68.69-.4.13-.57-.25-.98-.09-.4.16-.32.34-.71.52-.38.18-.63-.06-.91.1l.98,1.74c.24-.13.09-.35.43-.52.34-.17.4-.02.74-.17Z"/>
      <path class="st1" d="M57.25,19.48c.24-.31-.08-.45.16-.77.25-.31.63-.3.88-.61.25-.31.15-.39.4-.69.26-.3.5-.11.75-.4.26-.29.13-.53.4-.82.27-.29-.26-.62.02-.91.28-.29.8.15,1.07-.12.28-.27.22-.47.51-.73.29-.26.5.18.79-.08.29-.25.02-.59.32-.84.31-.24.34-.2.65-.44.32-.23.52.01.83-.2.31-.22.09-.65.42-.86.33-.21.85-.01.87-.02l-.98-1.74s-.38.45-.73.68c-.35.23-.49.02-.84.26-.34.24-.18.47-.51.72-.33.25-.53-.01-.86.25-.32.27.14.63-.17.89-.31.27-.54.21-.84.48-.3.28-.37.14-.67.42-.29.29-.16.49-.45.79-.28.3-.6,0-.88.31-.28.31.05.59-.22.9-.27.31-.38.21-.65.52-.27.31-.41.19-.67.51-.26.32.16.61-.09.92-.25.32-.6.1-.85.42-.25.32-.09.44-.34.77-.24.33-.57.21-.75.45l1.62,1.18c.18-.24-.06-.36.18-.69.24-.32.36-.22.6-.54Z"/>
      <g>
        <path class="st1" d="M45.9,22.08l.04.06.04.06.08.13.08.13.05.06.05.05.03.02.03.02h.03s.03.02.03.02h.07s.07.02.07.02h.07s.07.02.07.02h.03s.03.02.03.02h.03s.03.03.03.03l.03.02.03.03.05.06s.06.1.09.15l.04.07.05.07.02.03.03.03.03.02.03.02.06.03.06.02.11.02.11.02h.06s.06.03.06.03h.03s.02,0,.02,0h0s0,0,0,0h0s.03-.02.03-.02l.03-.02s.09-.07.14-.1l.07-.05.07-.05.07-.03h.03s.03-.02.03-.02h.03s.03,0,.03,0h.03s.03.02.03.02l.06.03.06.03.05.03.05.03h.03s.03.02.03.02h.03s.03,0,.03,0c.08,0,.17-.02.26-.02h.13s.08-.01.12-.02h.03s.02,0,.02,0h.02s.02-.02.02-.02l.04-.03.04-.03.04-.03h.02s.02-.03.02-.03h.02s.02-.02.02-.02h.03s.03-.01.03-.01h.03s.03,0,.03,0h.03s.03.02.03.02l.07.04.07.04.07.04.07.03h.04s.04.02.04.02h.04s.04,0,.04,0l-.16-.99-.08-.49-.08-.49s-.05.01-.07.02c-.02,0-.03.01-.05.02l-.04.02h-.02s-.03,0-.03,0h-.03s-.02.01-.02.01h-.02s-.02.02-.02.02c-.03.02-.06.04-.1.07l-.06.03h-.03s-.04.03-.04.03h-.04s-.04.01-.04.01h-.05s-.06,0-.06,0c-.02,0-.04,0-.07,0-.03,0-.06,0-.09,0-.06,0-.13.01-.21.02-.07,0-.14.01-.21.02h-.05c-.2.01-.38.02-.56.03h-.03s-.02,0-.02,0h-.04s-.04-.03-.04-.03l-.03-.02-.03-.02-.03-.02-.03-.03-.04-.05s-.05-.07-.07-.1l-.03-.04-.02-.02h-.02s-.02-.03-.02-.03v-.02s-.02-.02-.02-.02v-.02s-.02-.05-.02-.05v-.05s0-.05,0-.05v-.05s-.01-.03-.01-.03v-.02s-.02-.02-.02-.02v-.02s-.03-.03-.04-.04l-.03-.06s-.05-.08-.07-.12l-.42.28-.42.28-.83.55.04.05.05.05s.07.06.11.09l.12.09.06.05.05.05Z"/>
        <path class="st0" d="M48.01,20.04c1.04.13,1,.13,1.56.2h0s0,0,0,0h0s0,.01,0,.01v.02s0,.03,0,.03v.06s.03.12.03.12l.04.25.08.49.16.99.32,1.97-.24.04-.23.05-.14.04-.12.04-.1.05-.05.03-.05.03-.09.07-.1.09-1.75,1.75-2.69-4.13,1.67-1.11.83-.55.42-.28.21-.14.1-.07.05-.03.03-.02h.01s0-.01,0-.01h0s0,0,0,0h0s.02,0,.02,0Z"/>
      </g>
      <g>
        <path class="st1" d="M28.49,31.31h-.05s-.05,0-.05,0h-.11s-.05.01-.05.01h-.05s-.05,0-.05,0h-.03s-.02-.01-.02-.01h-.02s-.02-.03-.02-.03l-.02-.02-.02-.02-.03-.05-.03-.05-.06-.11-.04-.04-.02-.02-.02-.02h-.02s-.03-.02-.03-.02h-.03s-.03,0-.03,0h-.06s-.06,0-.06,0h-.06s-.06,0-.06,0h-.03s-.03-.01-.03-.01h-.02s-.02-.03-.02-.03l-.04-.04-.03-.04-.05-.08-.05-.08-.03-.04-.03-.04-.02-.02v-.03s-.03-.02-.03-.02v-.03s-.04-.06-.04-.06l-.02-.06-.02-.06-.02-.06v-.03s-.03-.02-.03-.02l-.02-.02-.02-.02h-.02s-.02-.03-.02-.03l-.05-.02-.12-.02h-.06s-.06-.02-.06-.02h-.03s-.02-.02-.02-.02h-.02s-.02-.03-.02-.03l-.07-.07-.07-.08c-.05-.05-.1-.11-.14-.16v-.02s-.02-.02-.02-.02v-.02s0-.02,0-.02v-.04s0-.04,0-.04v-.04s0-.04,0-.04v-.02s0-.02,0-.02v-.02s-.02-.02-.02-.02v-.02s-.03-.01-.03-.01h-.02s-.03-.02-.03-.02l-.06-.02h-.07s-.07-.03-.07-.03l-.06-.02h-.03s-.02-.02-.02-.02l-.02-.02v-.02s.88-.45.88-.45l.45-.23.45-.23v.03s.02.02.02.02v.04s.02.04.02.04v.02s.02.02.02.02v.02s.01.02.01.02v.02s0,.02,0,.02c0,.03,0,.06,0,.09v.05s0,.03,0,.03v.03s.02.03.02.03l.02.03.02.03.03.03s.04.05.07.08c.03.03.06.07.09.11.03.04.06.07.09.11l.02.02h.01s0,.01,0,.01l.13.16h0s.02.03.02.04l.02.03.02.02.02.02h.02s.02.03.02.03h.02s.05.02.05.02c.03,0,.06,0,.09,0h.04s.02,0,.02,0h.02s.02.01.02.01h.02s.02,0,.02,0h.02s.03-.03.03-.03l.03-.03.03-.03.03-.02h.02s.02-.02.02-.02h.02s.02,0,.02,0c0,0,.02,0,.04,0h.05s.07,0,.1-.01v.5s0,.5,0,.5v1s-.02,0-.02,0h-.02s-.05-.02-.05-.02c-.03-.01-.06-.03-.1-.04l-.1-.05-.05-.02h-.05Z"/>
        <path class="st0" d="M28.86,28.45c-.31-.36-.3-.35-.47-.54h0s0,0,0,0h0s0,0,0,0h-.01s-.03.02-.03.02l-.06.03-.11.06-.22.11-.45.23-.89.45-1.78.91.06.12.05.13.05.13.05.14.08.27.05.25.25,1.72,3.47-.02-.02-4Z"/>
      </g>
      <g>
        <path class="st1" d="M49.19,33.03l.06-.09.06-.09.13-.17.13-.17.06-.09.05-.09.02-.04v-.04s.02-.04.02-.04v-.04s0-.08,0-.08v-.08s-.02-.08-.02-.08v-.08s0-.04,0-.04v-.04s.01-.04.01-.04v-.04s.03-.04.03-.04l.02-.04.06-.09c.05-.06.1-.12.14-.19l.07-.09.07-.09v-.02s.03-.03.03-.03l.02-.05.02-.05v-.05s.02-.09.02-.09v-.08s0-.07,0-.07v-.07s-.02-.14-.02-.14c0-.05,0-.1-.01-.15v-.04s0-.02,0-.02h0s0-.01,0-.01h0s-.05-.01-.05-.01h-.05s-.12-.02-.12-.02h-.13c-.09-.01-.17-.02-.25-.03-.04,0-.08-.01-.11-.02h-.05s-.04-.03-.04-.03l-.04-.02-.03-.02-.03-.02-.03-.03-.05-.06-.04-.06-.05-.06-.05-.05-.03-.02-.03-.02-.04-.02h-.04c-.06-.03-.13-.05-.2-.07-.07-.02-.15-.03-.22-.05-.15-.03-.3-.06-.43-.08h-.05s-.04,0-.04,0h-.04s-.04,0-.04,0h-.08s-.08.03-.08.03l-.16.04h-.09s-.05.01-.05.01h-.05s-.05,0-.05,0h-.05s-.05-.03-.05-.03l-.05-.02c-.06-.03-.12-.07-.19-.1l-.1-.05-.1-.05-.05-.02h-.05s-.06-.02-.06-.02h-.06s0,1,0,1v.5s0,.5,0,.5c.03,0,.06,0,.09,0,.02,0,.05,0,.07-.01h.06s.03-.01.03-.01h.03s.03,0,.03,0h.03s.06-.02.06-.02c.04-.01.09-.03.14-.05l.08-.02h.04s.05-.01.05-.01h.05s.06,0,.06,0h.06s.06.02.06.02c.08.02.24.05.39.08.08.02.15.03.22.05h.05s.02.02.02.02h0s0,0,0,0h0s0,0,0,0c-.04-.12-.04-.12-.07-.18h0s0,0,0,0h0s0,.04,0,.04v.03s0,.05,0,.05v.05s-.02.05-.02.05l-.02.05-.04.09-.05.08c-.04.05-.07.1-.1.14l-.04.06-.02.03v.03s-.02.03-.02.03l-.02.03-.02.02-.02.02-.05.04-.06.04s-.08.05-.12.08l-.03.02-.02.02-.02.03-.02.03s-.02.04-.04.06c-.02.02-.04.05-.06.07-.04.05-.08.11-.12.15l.41.29.41.29.81.59.05-.07.04-.08c.02-.06.05-.12.08-.18l.08-.19.04-.09.05-.09Z"/>
        <path class="st0" d="M46.61,32.33s-.02,0-.02.01h0s0,0,0,0h0s0-.01,0-.01v-.02s0-.03,0-.03v-.06s0-.12,0-.12v-.25s0-.5,0-.5v-1s-.02-2-.02-2l6.88-.04-1.69,3-.31.52-.08.13-.07.1-.13.17-.5.7-1.01,1.39-1.62-1.17-.81-.59-.41-.29-.2-.15-.1-.07-.05-.04-.03-.02h-.01s0-.01,0-.01h0s0,0,0,0h0c.13.24.12.23.19.36Z"/>
      </g>
      <g>
        <path class="st1" d="M52.86,31.62h-.12s-.12,0-.12,0h-.25s-.25.02-.25.02h-.12s-.12-.01-.12-.01h-.05s-.05-.02-.05-.02l-.05-.02-.04-.02-.08-.05-.07-.05-.07-.05-.08-.05-.04-.02-.04-.02-.05-.02h-.05s-.05-.02-.05-.02h-.06s-.13-.01-.13-.01c-.09,0-.18,0-.28.01h-.14s-.13,0-.13,0h-.12s-.06-.02-.06-.02h-.05s-.09-.05-.09-.05l-.07-.04-.13-.08-.12-.08-.07-.04-.08-.04-.04-.02h-.02s0-.02,0-.02h0s0,0,0,0c.02-.04.03-.07.05-.11.04-.08.08-.17.13-.25.04-.09.09-.17.13-.25.02-.04.03-.08.05-.12l.02-.06v-.05s.02-.05.02-.05v-.05s0-.04,0-.04v-.04s-.03-.08-.03-.08l-.03-.07-.02-.07v-.04s-.02-.04-.02-.04v-.04s0-.04,0-.04v-.05s.02-.05.02-.05c.02-.07.04-.15.07-.23.03-.08.06-.16.08-.25.06-.17.12-.33.17-.48l.02-.05.02-.05.05-.08.06-.07.06-.07.12-.14.06-.08.03-.05.03-.05.02-.05.02-.05v-.06s.02-.06.02-.06c0-.07.01-.16.02-.24v-.12s.03-.12.03-.12v-.06s.03-.06.03-.06l.02-.06.03-.06.87.49.44.25.44.25s-.04.06-.05.08c-.02.02-.03.04-.05.06l-.04.05-.02.03-.02.03-.02.03-.02.03-.05.06s-.08.07-.12.12l-.06.07-.03.04-.03.05-.03.05-.03.06-.03.06-.02.07c-.03.09-.09.26-.15.43-.03.09-.06.17-.08.25l-.02.05v.03s0,0,0,0h0s0,0,0,0l.13.23h0s.03.03.03.03l.03.02.05.03.06.02.06.02h.06s.11.03.11.03h.11c.07,0,.14,0,.2,0,.03,0,.06,0,.09,0h.04s.04.01.04.01h.04s.04,0,.04,0h.04s.04,0,.04,0l.07-.02.08-.03c.05-.02.1-.04.15-.05l.08-.02h.04s.04,0,.04,0c.02,0,.05,0,.08,0,.03,0,.07,0,.11,0,.08,0,.16,0,.22-.01v.5s.02.5.02.5l.02,1h-.1s-.1-.01-.1-.01c-.07-.01-.15-.02-.22-.04l-.23-.04-.12-.02h-.12Z"/>
        <path class="st0" d="M53.7,28.74c-.17-.29-.16-.28-.25-.43h0s0,0,0,0h0s0,0,0,0h-.01s-.03-.02-.03-.02l-.05-.03-.11-.06-.22-.12-.44-.25-.87-.49-1.74-.98-1.85,3.29-2.34,3.24,8-.14-.07-4Z"/>
      </g>
      <g>
        <path class="st1" d="M51.97,22.97h.08s.08,0,.08,0l.17.02.16.02h.08s.08,0,.08,0h.04s.03-.02.03-.02h.03s.03-.03.03-.03l.06-.04.06-.05.06-.05.06-.04.03-.02.03-.02h.03s.04-.02.04-.02h.04s.04,0,.04,0h.04s.04.01.04.01c.06.01.12.03.19.04l.09.02.09.02h.04s.04,0,.04,0h.02s0,0,0,0h0s0,0,0,0h0s0-.01,0-.01h0s0-.02,0-.02h0s0-.02,0-.02h0s.01-.02.01-.02h.02s.04-.03.04-.03h.05s.05-.02.05-.02h.06s.03,0,.03,0h.03s.07.02.07.02h.04s.02,0,.02,0h0s0,0,0,0h0s.03-.03.03-.03l.03-.04.06-.08.06-.09c.04-.06.08-.12.12-.17l.06-.07.03-.03.03-.02.03-.02h.03s.03-.02.03-.02h.03s.07-.01.07-.01h.07s.07,0,.07,0h.07s.03-.02.03-.02h.03s.03-.03.03-.03l.03-.02s.08-.07.12-.11l.13-.13c.08-.09.17-.18.24-.26l.02-.03.02-.03.02-.03v-.03s.03-.06.03-.06v-.06s.03-.07.03-.07l.02-.07v-.03s.03-.03.03-.03l.02-.03.03-.03.03-.03.03-.03.04-.02.04-.02.09-.03.09-.03.09-.03.09-.04.04-.02.04-.03.03-.03.03-.04-.81-.59-.4-.29-.4-.29-.02.03-.02.03s-.02.04-.03.05l-.02.05v.02s-.03.02-.03.02l-.02.02v.02s-.02.03-.02.03v.03s-.03.08-.04.12l-.02.07-.02.03-.02.04-.02.04-.03.04-.04.04-.04.04c-.05.05-.14.15-.23.25-.05.05-.09.1-.14.14l-.03.03h-.01s0,.02,0,.02h0s0,0,0,0l-1.16.45h0s-.02.02-.02.02h-.02s-.05.04-.05.04l-.05.02h-.05s-.05.02-.05.02h-.05s-.04,0-.04,0h-.09c-.06,0-.11,0-.16-.01h-.07s-.03,0-.03,0h-.03s-.03,0-.03,0h-.03s-.03,0-.03,0h-.03s-.06-.03-.06-.03l-.06-.03-.06-.03-.06-.03h-.03s-.03-.02-.03-.02h-.03s-.03,0-.03,0c-.07,0-.22,0-.33-.01v.5s0,.5,0,.5v1s.07,0,.07,0h.07s.1-.04.15-.05l.15-.04h.08s.08-.02.08-.02Z"/>
        <path class="st0" d="M53.76,18.86l.28.09h0s0,0,0,0h0s0,0,0,0h.01s.03.03.03.03l.05.04.1.07.2.15.4.29.81.59,1.62,1.18-.41.57-.03.04v.02s-.02.02-.02.02l-.04.07-.08.14-.15.28-.62,1.12-1.38,2.55-1.9-2.19.04.04.09.08.08.06.11.07.07.04.08.04.09.04.1.03.11.03h-.02s-.04-.01-.04-.01l-.08-.02-.15-.03-.3-.06-.3-.05-.29-.04-.29-.03-.29-.02h-.29s0-2.01,0-2.01v-1s0-.5,0-.5v-.25s0-.12,0-.12v-.06s0-.03,0-.03v-.02s0,0,0,0h0s0,0,0,0h0c1.59-.82,1.54-.79,2.39-1.23Z"/>
      </g>
    </g>
  </g>
  <g>
    <path d="M84.35,47.93c-.09-.15-.22-.28-.37-.37-.15-.08-.32-.11-.5-.11-.18,0-.34.07-.49.16-.15.09-.31.2-.4.36-.08.15-.11.35-.11.53l2-.05c0-.19-.04-.37-.13-.52Z"/>
    <path d="M84.42,59.33c0-.38-.34-.29-.34-.67,0-.38.31-.61.3-.99,0-.38-.14-.38-.14-.76,0-.38.31-.4.3-.78,0-.38-.26-.47-.26-.85,0-.38-.61-.25-.61-.63,0-.38.67-.45.66-.83,0-.38-.19-.47-.19-.85,0-.38.46-.25.46-.64,0-.38-.44-.38-.44-.76,0-.38.05-.38.05-.76,0-.38.32-.41.32-.79,0-.38-.48-.42-.49-.8,0-.38.43-.75.43-.77l-2,.05s.21.49.21.86c0,.38-.25.38-.25.76,0,.38.28.37.28.75,0,.38-.33.38-.33.76,0,.38.58.25.58.63,0,.38-.2.5-.2.88,0,.38-.15.34-.15.72,0,.38.24.42.25.8,0,.38-.42.4-.42.78,0,.38.44.36.44.74,0,.38-.14.38-.14.76,0,.38-.19.38-.19.76,0,.38.51.33.51.71,0,.38-.41.42-.4.8,0,.38.2.38.2.76,0,.38-.34.48-.33.76l2-.03c0-.28-.26-.24-.27-.63,0-.38.15-.38.15-.76Z"/>
    <path d="M84.48,71.58c0-.38-.34-.3-.34-.68,0-.38.31-.61.3-.99,0-.38-.14-.38-.14-.76,0-.38.31-.39.3-.77,0-.38-.26-.47-.26-.85,0-.38-.61-.26-.61-.64,0-.38.67-.44.66-.82,0-.38-.19-.47-.19-.85,0-.38.46-.25.46-.63,0-.38-.44-.38-.44-.76,0-.38.05-.38.05-.76,0-.38.32-.4.32-.79,0-.38-.48-.43-.49-.81,0-.38.43-.74.43-.76l-2,.03s.21.49.21.87c0,.38-.25.38-.25.76,0,.38.28.38.28.76,0,.38-.33.38-.33.76,0,.38.58.26.58.64,0,.38-.2.5-.2.88,0,.38-.15.34-.15.71,0,.38.24.42.25.8,0,.38-.42.39-.42.77,0,.38.44.37.44.75,0,.38-.14.38-.14.76,0,.38-.19.38-.19.76,0,.38.51.34.51.72,0,.38-.41.42-.4.8,0,.38.2.38.2.76,0,.38-.34.47-.33.76h2c0-.29-.26-.25-.27-.63,0-.38.15-.38.15-.76Z"/>
    <path d="M84.46,83.85c0-.38-.34-.3-.34-.68,0-.38.31-.6.31-.98,0-.38-.13-.38-.13-.76,0-.38.31-.39.31-.77,0-.38-.26-.47-.26-.85,0-.38-.61-.27-.61-.65,0-.38.67-.43.67-.81,0-.38-.18-.47-.18-.85,0-.38.46-.24.47-.62,0-.38-.43-.39-.43-.77,0-.38.05-.38.05-.76,0-.38.32-.4.32-.78,0-.38-.48-.43-.49-.81,0-.38.43-.73.43-.76h-2s.21.49.21.87c0,.38-.25.38-.25.76,0,.38.28.38.28.76,0,.38-.33.37-.33.75,0,.38.57.27.57.64,0,.38-.2.5-.2.88,0,.38-.15.33-.16.71,0,.38.24.42.24.8,0,.38-.43.39-.43.76,0,.38.44.37.43.75,0,.38-.15.38-.15.76,0,.38-.19.38-.19.76,0,.38.51.35.51.73,0,.38-.41.41-.41.79,0,.38.19.38.19.76,0,.38-.34.47-.34.75l2,.03c0-.28-.26-.25-.26-.63,0-.38.16-.38.16-.76Z"/>
    <path d="M76.86,91.06c.38,0,.29-.34.68-.34.38,0,.61.31.99.31.38,0,.38-.14.76-.14.38,0,.4.31.78.3.38,0,.47-.26.85-.26.38,0,.25-.61.63-.61.37-.01.59.66,1.12.5.5-.2.51-.43.86-.76.31-.38.59.05.86-.47.21-.56-.21-.7-.16-1.19.02-.48.06-.41.07-.81,0-.38.33-.4.33-.78,0-.38-.48-.44-.48-.82,0-.38.43-.73.43-.75l-2-.03s.2.49.2.87c0,.38-.25.37-.25.75,0,.38.27.39.27.77,0,.19-.08.28-.17.37-.08.09-.17.21-.17.27-.02.16.56.25.48.53-.11.27-.33.22-.49.38-.2.15-.26,0-.46.07-.21.05-.16.29-.47.3-.38,0-.4-.43-.77-.42-.38,0-.36.44-.74.44-.38,0-.38-.14-.76-.14-.38,0-.38-.19-.76-.19-.38,0-.33.51-.71.51-.38,0-.42-.41-.8-.41-.38,0-.38.2-.76.2-.38,0-.48-.34-.76-.34l.02,2c.28,0,.24-.26.63-.26.38,0,.38.15.76.15Z"/>
    <path d="M64.59,91.09c.38,0,.3-.34.68-.34.38,0,.6.31.99.31.38,0,.38-.14.76-.14.38,0,.39.31.77.3.38,0,.47-.26.85-.26.38,0,.26-.61.64-.61.38,0,.44.67.82.66.38,0,.47-.19.85-.19.38,0,.25.46.63.46.38,0,.38-.44.76-.44.38,0,.38.05.76.05.38,0,.4.32.78.32.38,0,.43-.48.81-.48.38,0,.74.43.76.43l-.02-2s-.49.21-.87.21c-.38,0-.38-.25-.76-.25-.38,0-.38.28-.76.28-.38,0-.38-.33-.75-.33-.38,0-.26.58-.64.58-.38,0-.5-.2-.88-.2-.38,0-.34-.15-.71-.15-.38,0-.42.24-.8.24-.38,0-.39-.43-.77-.42-.38,0-.37.44-.75.44-.38,0-.38-.14-.76-.14-.38,0-.38-.19-.76-.19-.38,0-.34.51-.72.51-.38,0-.42-.41-.8-.41-.38,0-.38.2-.76.2-.38,0-.47-.34-.76-.34v2c.28,0,.24-.26.62-.26.38,0,.38.15.76.15Z"/>
    <path d="M52.37,91.11c.35,0,.29-.34.66-.32.38.02.58.34.99.35.41,0,.41-.13.83-.14.42-.03.47.27.94.19.31-.06.34-.33.68-.36.33-.02.21-.63.59-.62.38.01.38.69.74.72.36.04.47-.14.85-.09.2.02.22.15.32.26.04.06.1.12.16.16.05.04.11.07.2.07.38,0,.39-.44.77-.44.38,0,.38.05.76.05.38,0,.4.32.78.32.38,0,.44-.48.82-.48.38,0,.73.43.76.43v-2s-.49.21-.86.21c-.38,0-.38-.25-.76-.25-.38,0-.38.28-.76.28-.38,0-.37-.33-.75-.33-.38,0-.27.58-.65.58-.18,0-.34-.05-.39-.1-.1-.06-.23-.12-.41-.14-.38-.04-.32-.19-.71-.23-.4-.03-.46.2-.87.19-.41,0-.43-.43-.87-.4-.44.05-.39.48-.77.56-.32.06-.34-.09-.67-.06-.34.01-.34-.18-.69-.18-.36-.01-.35.5-.72.48-.38-.02-.4-.43-.8-.44-.41,0-.39.19-.77.19-.38,0-.47-.34-.76-.34v2c.28,0,.25-.26.63-.26.38,0,.38.15.75.16Z"/>
    <path d="M40.2,91.11c.38,0,.3-.34.68-.34.38,0,.6.31.98.31.1,0,.17,0,.24-.02.24-.04.36-.12.69-.2.41-.11.55.15.8.09.17-.04.22-.31.46-.26.26.06.37-.54.72-.43.37.09.29.79.86.8.01,0,.02,0,.03,0,.36,0,.45-.19.82-.19.38,0,.25.46.63.46.38,0,.38-.44.76-.44.38,0,.38.05.76.05.38,0,.4.33.78.32.38,0,.43-.48.81-.48s.73.43.76.43v-2s-.49.21-.87.21-.38-.25-.76-.25c-.38,0-.38.28-.76.28-.38,0-.38-.33-.76-.33-.38,0-.26.58-.64.58-.38,0-.5-.2-.88-.2-.36,0-.34-.14-.68-.15,0,0-.01,0-.02,0-.21,0-.28.22-.61.13-.37-.1-.19-.53-.78-.64-.59-.06-.56.4-1.03.5-.42.12-.45,0-.75.07-.2.04-.23-.06-.33-.11-.05-.02-.14-.04-.24-.04-.38,0-.34.51-.72.51-.38,0-.41-.41-.79-.41-.38,0-.38.19-.76.19-.38,0-.47-.34-.75-.34l-.02,2c.28,0,.25-.26.63-.26.38,0,.38.16.76.16Z"/>
    <path d="M27.94,91.08c.38,0,.3-.34.69-.34.38,0,.6.31.98.32.38,0,.38-.13.76-.13.38,0,.38.31.76.31.38,0,.48-.26.86-.26.38,0,.27-.61.66-.61.38,0,.42.67.8.67.38,0,.48-.18.86-.18.38,0,.24.46.62.46.38,0,.39-.43.77-.43.38,0,.38.06.76.06.38,0,.4.33.78.33.38,0,.44-.48.82-.48.38,0,.73.43.75.43l.02-2s-.49.21-.87.21c-.38,0-.37-.25-.75-.25-.38,0-.38.28-.76.27-.38,0-.37-.33-.75-.33-.38,0-.27.57-.65.57-.38,0-.5-.2-.87-.2-.38,0-.33-.15-.71-.15-.38,0-.43.24-.81.24-.38,0-.38-.43-.76-.43-.38,0-.38.44-.76.44-.38,0-.38-.15-.75-.15-.38,0-.38-.19-.76-.19-.38,0-.35.51-.73.5-.38,0-.41-.41-.79-.41-.38,0-.38.19-.76.19-.38,0-.47-.34-.75-.34l-.04,2c.28,0,.25-.26.63-.26.38,0,.37.16.76.16Z"/>
    <path d="M17.71,86.54c0,.38.34.29.34.68,0,.4-.31.57-.3,1.02.03.52.16.51.27,1,.16.47-.09.66.26,1.11.42.39.7.23,1.17.4.51.13.54-.5.93-.46.4.02.44.68.82.68.38,0,.47-.18.85-.18.38,0,.24.46.62.47.38,0,.39-.43.77-.43.38,0,.38.06.76.06.38,0,.39.33.77.33.38,0,.44-.48.82-.48.38,0,.73.43.75.43l.04-2s-.5.2-.87.2c-.38,0-.37-.25-.75-.25-.38,0-.39.27-.77.27-.38,0-.37-.33-.75-.34-.38,0-.27.57-.65.57-.38,0-.5-.2-.87-.2-.38,0-.33-.15-.71-.16-.36,0-.47.24-.75.23-.27-.03-.15-.44-.31-.48-.15-.06-.45.33-.65.14-.16-.21-.02-.31-.08-.53-.04-.24.15-.26.14-.49,0-.32-.51-.32-.51-.69,0-.38.41-.42.4-.8,0-.38-.2-.38-.2-.76,0-.38.34-.48.33-.76l-2,.02c0,.28.26.24.26.63,0,.38-.15.38-.15.76Z"/>
    <path d="M17.67,74.3c0,.38.34.3.34.68,0,.38-.31.6-.31.99,0,.38.14.38.14.76,0,.38-.31.39-.3.77,0,.38.26.47.26.85,0,.38.61.26.61.64,0,.38-.67.44-.66.82,0,.38.19.47.19.85,0,.38-.46.25-.46.63,0,.38.44.39.44.77,0,.38-.05.38-.05.76,0,.38-.32.4-.32.78,0,.38.48.43.48.81,0,.38-.43.74-.43.76h2s-.21-.5-.21-.88c0-.38.25-.38.25-.76,0-.38-.28-.38-.28-.76,0-.38.33-.37.33-.75,0-.38-.58-.26-.58-.64,0-.38.2-.5.2-.88,0-.38.15-.34.15-.71,0-.38-.24-.42-.24-.8,0-.38.43-.39.42-.77,0-.38-.44-.37-.44-.75,0-.38.14-.38.14-.76,0-.38.19-.38.19-.76,0-.38-.51-.34-.51-.72,0-.38.41-.42.4-.8,0-.38-.2-.38-.2-.76,0-.38.34-.47.33-.76h-2c0,.29.26.25.26.64,0,.38-.15.38-.15.76Z"/>
    <path d="M17.63,62.05c0,.38.34.29.34.68,0,.38-.31.61-.31.99,0,.38.14.38.14.76,0,.38-.31.39-.3.77,0,.38.26.47.26.85,0,.38.61.26.61.64,0,.38-.67.44-.66.82,0,.38.19.47.19.85,0,.38-.46.25-.46.63,0,.38.44.38.44.76,0,.38-.05.38-.05.76,0,.38-.32.4-.32.78,0,.38.48.43.48.81,0,.38-.43.74-.43.76l2-.02s-.21-.49-.21-.87c0-.38.25-.38.25-.76,0-.38-.28-.38-.28-.76,0-.38.33-.38.33-.76,0-.38-.58-.26-.58-.64,0-.38.2-.5.2-.88,0-.38.15-.34.15-.71,0-.38-.24-.42-.24-.8,0-.38.43-.39.42-.77,0-.38-.44-.37-.44-.75,0-.38.14-.38.14-.76,0-.38.19-.38.19-.76,0-.38-.51-.34-.51-.72,0-.38.41-.42.4-.8,0-.38-.2-.38-.2-.76,0-.38.34-.48.33-.76l-2,.02c0,.28.26.24.27.63,0,.38-.15.38-.15.76Z"/>
    <path d="M17.58,49.8c0,.38.34.3.34.68,0,.38-.31.6-.31.99,0,.38.14.38.14.76,0,.38-.31.39-.3.77,0,.38.26.47.26.85,0,.38.61.26.61.64,0,.38-.67.44-.66.82,0,.38.19.47.19.85,0,.38-.46.25-.46.63,0,.38.44.39.44.77,0,.38-.05.38-.05.76,0,.38-.32.4-.32.78,0,.38.48.43.49.81,0,.38-.43.74-.43.76h2s-.21-.5-.21-.88c0-.38.25-.38.25-.76,0-.38-.28-.38-.28-.76,0-.38.33-.37.33-.75,0-.38-.58-.26-.58-.64,0-.38.2-.5.2-.88,0-.38.15-.34.15-.71,0-.38-.24-.42-.24-.8,0-.38.43-.39.42-.77,0-.38-.44-.37-.44-.75,0-.38.14-.38.14-.76,0-.38.19-.38.19-.76,0-.38-.51-.34-.51-.72,0-.38.41-.42.4-.8,0-.38-.2-.38-.2-.76,0-.38.34-.47.33-.76h-2c0,.29.26.25.27.64,0,.38-.15.38-.15.76Z"/>
    <path d="M17.96,47.53c-.15.09-.26.24-.34.39-.08.15-.15.32-.15.5h0s2,0,2,0h0c0-.18-.04-.37-.12-.52-.09-.15-.23-.28-.38-.37-.15-.08-.32-.13-.5-.13-.18,0-.36.05-.5.14Z"/>
  </g>
  <g>
    <path d="M43.1,47.78c.16-.09.29-.22.38-.37.09-.14.12-.32.12-.5,0-.18-.06-.35-.14-.49-.09-.15-.19-.31-.35-.4-.15-.08-.34-.12-.53-.12v2c.18,0,.36-.04.51-.12Z"/>
    <path d="M31.68,47.59c.38,0,.31-.33.69-.32.38,0,.6.32.98.33.38,0,.38-.13.77-.12.38,0,.38.32.76.33.38,0,.48-.25.86-.24.38,0,.28-.61.66-.6.38,0,.42.68.8.69.38,0,.48-.18.86-.17.38,0,.24.47.62.48.38,0,.4-.43.78-.42.38,0,.38.06.76.07.38,0,.4.33.78.33.38,0,.44-.48.82-.47.38,0,.74.43.76.43v-2s-.48.21-.86.2c-.38,0-.37-.25-.75-.26-.38,0-.38.27-.76.27-.38,0-.37-.34-.75-.35-.38,0-.27.57-.65.56-.38,0-.5-.21-.87-.22-.38,0-.33-.16-.71-.17-.38,0-.43.23-.81.22-.38,0-.38-.44-.76-.44-.38,0-.38.43-.76.42-.38,0-.38-.15-.76-.16-.38,0-.38-.2-.76-.21-.38,0-.36.5-.74.49-.38,0-.41-.42-.79-.43-.38,0-.39.19-.77.18-.38,0-.47-.35-.75-.35l-.04,2c.28,0,.25-.26.63-.25.38,0,.37.16.76.17Z"/>
    <path d="M19.46,47.63c.38-.02.28-.36.66-.37.38-.01.61.29.99.28.38-.01.38-.15.76-.15.38,0,.4.3.77.29.38,0,.46-.27.84-.27.38,0,.26-.61.64-.62.38,0,.44.66.82.66.38,0,.47-.18.85-.18.38,0,.24.46.62.46.38,0,.39-.43.77-.43.38,0,.38.06.76.06.38,0,.4.33.78.34.38,0,.44-.48.82-.47.38,0,.73.44.75.44l.04-2s-.5.2-.88.19c-.38,0-.38-.26-.76-.26-.38,0-.39.27-.77.27-.38,0-.37-.34-.75-.34-.38,0-.27.57-.65.57-.38,0-.5-.2-.88-.2-.38,0-.34-.15-.72-.15-.38,0-.43.24-.81.25-.38,0-.39-.42-.78-.42-.38,0-.37.44-.75.45-.38,0-.38-.14-.77-.13-.38,0-.39-.18-.77-.17-.38.01-.33.52-.71.53-.38.01-.43-.4-.82-.38-.38.02-.37.21-.76.23-.38.02-.5-.32-.78-.3l.11,2c.28-.02.23-.27.61-.29.38-.02.38.14.76.12Z"/>
    <path d="M13.54,39.31c0,.4.33.3.33.69,0,.39-.32.64-.32,1.04,0,.4.13.38.12.78,0,.39-.31.45-.32.85,0,.4.25.45.25.84,0,.4.6.15.6.53,0,.38-.67.6-.68,1,0,.41.16.4.19.87.07.47-.41.53-.2,1.03.28.47.62.19,1.02.43.44.18.42.21.92.27.49,0,.51.33,1.06.31.38-.02.42-.51.8-.53.38-.02.76.38.78.38l-.11-2s-.48.24-.85.26c-.37.02-.4-.22-.75-.2-.17,0-.22.28-.46.29-.24,0-.06-.34-.22-.38-.13-.08-.6.47-.75.22-.1-.27.11-.47.11-.7,0-.36.16-.37.16-.73,0-.36-.24-.35-.23-.72,0-.37.43-.47.44-.83,0-.36-.43-.28-.43-.65,0-.37.15-.39.16-.76,0-.37.2-.39.2-.75,0-.36-.5-.29-.5-.66,0-.37.41-.43.42-.79,0-.36-.19-.36-.18-.73,0-.37.34-.44.36-.73l-2-.08c-.01.29.25.26.24.65,0,.4-.16.39-.17.79Z"/>
    <path d="M19.39,30.03c-.38.02-.28.35-.67.37-.38.02-.63-.27-1.02-.25-.39.02-.38.16-.76.18-.42.03-.33-.3-.94-.23-.57.1-.6.37-1.04.61-.42.3.11.65-.13.97-.17.34-.8.11-.91.66-.04.26,0,.44.04.6.04.12.08.24.07.43-.02.38-.47.22-.49.6-.02.38.42.41.4.79-.02.38-.07.38-.09.76-.02.38-.34.39-.36.77-.02.38.46.46.44.84-.02.38-.46.72-.47.74l2,.08s-.18-.5-.17-.88c.02-.38.27-.37.29-.75.02-.38-.26-.39-.24-.77.02-.38.35-.36.37-.74.02-.38-.56-.29-.54-.67.02-.38.22-.49.24-.87.02-.4.16-.29.18-.51.04-.2-.2-.35-.08-.59.16-.22.5.13.64.05.16-.06-.02-.47.25-.51.24-.02.35.12.69.1.37-.02.39.17.76.15.37-.02.3-.53.68-.55.38-.02.43.38.81.37.38-.02.37-.21.75-.23.38-.02.49.32.77.3l-.09-2c-.29.01-.24.27-.62.29-.38.02-.39-.14-.77-.12Z"/>
    <path d="M31.7,29.69c-.38,0-.3.34-.68.35-.38,0-.61-.3-.99-.3-.38,0-.38.14-.76.15-.38,0-.4-.3-.78-.29-.38,0-.47.27-.85.28-.38,0-.25.62-.63.62-.38,0-.45-.66-.83-.65-.38.01-.47.2-.85.21-.38.01-.26-.46-.64-.45-.38.01-.38.45-.76.46-.38.01-.38-.04-.77-.03-.38.01-.41-.31-.8-.3-.38.01-.42.5-.8.51-.38.01-.76-.4-.78-.4l.09,2s.48-.23.86-.24c.38-.01.39.24.77.22.38-.01.37-.29.75-.3.38-.01.38.32.76.31.38-.01.25-.58.63-.59.38-.01.5.19.88.17.38-.01.34.14.72.13.38,0,.42-.25.8-.26.38,0,.4.42.78.41.38,0,.36-.44.74-.45.38,0,.38.14.76.13.38,0,.38.18.76.18.38,0,.34-.51.72-.52.38,0,.42.4.8.4.38,0,.38-.2.76-.2.38,0,.47.33.76.33v-2c-.3,0-.26.26-.64.27-.38,0-.38-.15-.76-.15Z"/>
    <path d="M43.99,29.7c-.38,0-.3.34-.68.34-.38,0-.6-.31-.99-.32-.38,0-.38.13-.76.13-.38,0-.39-.31-.77-.31-.38,0-.47.26-.86.26-.38,0-.27.61-.65.61-.38,0-.43-.67-.81-.67-.38,0-.47.18-.85.18-.38,0-.24-.46-.63-.46-.38,0-.39.44-.77.44-.38,0-.38-.05-.76-.05-.38,0-.4-.32-.78-.32-.38,0-.43.48-.81.48-.38,0-.74-.42-.76-.42v2s.5-.21.88-.21c.38,0,.38.25.76.25.38,0,.38-.28.76-.28.38,0,.37.33.75.33.38,0,.26-.57.64-.57.38,0,.5.2.88.2.38,0,.33.15.71.15.38,0,.42-.24.81-.24.38,0,.39.43.77.43.38,0,.37-.44.75-.43.38,0,.38.15.76.15.38,0,.38.19.76.19.38,0,.35-.51.73-.5.38,0,.42.41.8.41.38,0,.38-.19.76-.19.38,0,.47.34.76.34v-2c-.27,0-.24.26-.62.26-.38,0-.38-.16-.76-.16Z"/>
    <path d="M56.27,29.75c-.38,0-.3.34-.68.34-.38,0-.6-.31-.99-.31-.38,0-.38.13-.76.13-.38,0-.39-.31-.77-.31-.38,0-.47.26-.85.26-.38,0-.27.61-.65.61-.38,0-.43-.67-.81-.67-.38,0-.47.18-.85.18-.38,0-.24-.46-.62-.47-.38,0-.39.43-.77.43-.38,0-.38-.06-.76-.06-.38,0-.4-.33-.78-.33-.38,0-.44.48-.82.48-.38,0-.73-.43-.76-.43v2s.48-.2.86-.2c.38,0,.38.25.76.25.38,0,.38-.27.77-.27.38,0,.37.33.75.34.38,0,.27-.57.65-.57.38,0,.5.2.88.2.38,0,.33.15.71.16.38,0,.43-.24.81-.24.38,0,.39.43.77.43.38,0,.37-.44.75-.43.38,0,.38.15.76.15.38,0,.38.19.76.19.38,0,.34-.51.72-.51.38,0,.42.41.8.41.38,0,.38-.19.76-.19.38,0,.47.34.76.34v-2c-.28,0-.24.26-.63.26-.38,0-.38-.15-.76-.15Z"/>
    <path d="M68.54,29.79c-.38,0-.3.34-.68.34-.38,0-.6-.31-.99-.31-.38,0-.38.13-.76.13-.38,0-.39-.31-.77-.31-.38,0-.47.26-.85.26-.38,0-.27.61-.65.61-.38,0-.43-.67-.81-.67-.38,0-.47.18-.85.18-.38,0-.24-.46-.62-.47-.38,0-.39.43-.77.43-.38,0-.38-.06-.76-.06-.38,0-.4-.33-.78-.33-.38,0-.44.48-.82.48-.38,0-.74-.43-.76-.43v2s.49-.21.87-.2c.38,0,.38.25.76.25.38,0,.38-.27.76-.27.38,0,.37.33.75.34.38,0,.27-.57.65-.57.38,0,.5.2.88.2.38,0,.33.15.71.16.38,0,.43-.24.81-.24.38,0,.39.43.77.43.38,0,.37-.44.75-.43.38,0,.38.15.76.15.38,0,.38.19.76.19.38,0,.34-.51.72-.51.38,0,.42.41.8.41.38,0,.38-.2.76-.2.38,0,.48.34.76.33v-2c-.3,0-.26.26-.64.27-.38,0-.38-.15-.76-.15Z"/>
    <path d="M80.71,29.17c-.39.04-.27.37-.66.41-.38.04-.64-.24-1.03-.19-.38.05-.36.18-.74.23-.38.05-.43-.25-.8-.21-.36.04-.43.32-.78.35-.33.02-.21.63-.59.64-.38.01-.46-.65-.83-.64-.38.01-.47.2-.85.21-.38,0-.25-.46-.63-.45-.38,0-.38.44-.76.45-.38,0-.38-.05-.76-.04-.38,0-.4-.32-.78-.32-.38,0-.43.49-.81.49-.38,0-.74-.42-.76-.42v2s.51-.21.89-.21c.38,0,.38.25.76.24.38,0,.38-.28.76-.29.38,0,.38.33.76.32.38,0,.26-.58.64-.59.38,0,.51.19.89.18.38,0,.34.15.72.13.38-.01.42-.25.8-.27.37-.01.42.42.84.38.41-.04.34-.48.73-.52.38-.05.4.09.78.04.38-.05.4.14.77.09.37-.05.27-.55.65-.59.38-.04.46.36.82.32.37-.04.35-.23.72-.26.37-.02.48.31.75.29l-.08-2c-.3.01-.25.27-.64.3-.39.03-.4-.13-.79-.09Z"/>
    <path d="M88.43,36.73c0-.38-.34-.3-.34-.68,0-.38.31-.61.31-.99,0-.38-.13-.38-.13-.76,0-.38.31-.39.31-.77,0-.38-.26-.47-.26-.85-.02-.44-.6-.29-.68-.67-.09-.37.5-.7.22-1.18-.33-.43-.56-.39-.94-.66-.39-.24-.03-.57-.48-.78-.46-.18-.59.24-1,.13-.41-.1-.4-.14-.81-.2-.41-.05-.4-.37-.82-.4-.41-.02-.48.46-.87.46-.39,0-.77-.41-.8-.41l.08,2s.46-.23.83-.22c.36,0,.35.26.7.27.34.03.37-.25.72-.21.34.05.28.37.58.45.29.08.37-.5.69-.39.31.12.3.36.52.51.2.17.07.26.2.43.1.18.34.11.41.38.04.13-.08.23-.18.3-.1.06-.2.13-.2.34,0,.38.44.37.44.75,0,.38-.14.38-.14.76,0,.38-.19.38-.19.76,0,.38.51.34.51.72,0,.38-.41.42-.41.8,0,.38.19.38.19.76,0,.38-.34.47-.34.76h2c0-.29-.26-.25-.26-.63,0-.38.15-.38.15-.76Z"/>
    <path d="M84.66,47.99c.42,0,.33-.35.74-.37.21-.03.4.02.59.07.2.02.42.05.66-.05.49-.24.42-.36.8-.7.33-.38.6-.23.84-.76.11-.27.09-.45.05-.6-.03-.16-.06-.31-.04-.53.05-.44-.58-.34-.56-.73,0-.38.67-.45.66-.84-.01-.38-.2-.47-.21-.85,0-.38.46-.25.45-.61,0-.38-.44-.39-.44-.77,0-.38.05-.38.05-.76,0-.38.33-.4.33-.78,0-.38-.48-.43-.48-.81,0-.38.43-.74.43-.76h-2s.21.5.21.88c0,.38-.25.38-.25.76,0,.38.28.38.28.76,0,.38-.33.37-.33.75,0,.38.57.26.57.64,0,.38-.2.52-.18.9.01.38-.14.34-.13.72,0,.37.25.41.25.77-.02.35-.44.34-.48.63-.05.26.39.38.29.63-.11.24-.24.16-.39.33-.18.16-.29,0-.46.08-.22.05-.04.57-.39.62-.34.06-.41-.38-.72-.35-.36,0-.38.19-.76.19-.38,0-.47-.34-.76-.34v2c.28,0,.24-.26.62-.26.38,0,.38.16.76.16Z"/>
    <path d="M72.4,48.05c.38,0,.3-.34.68-.35.38,0,.61.3.99.3.38,0,.38-.14.76-.14.38,0,.39.3.78.3.38,0,.47-.26.85-.27.38,0,.26-.61.64-.62.38,0,.44.66.82.66.38,0,.47-.19.85-.19.38,0,.25.46.63.46.38,0,.38-.44.76-.44.38,0,.38.05.76.05.38,0,.4.32.78.32.38,0,.43-.48.81-.48.38,0,.73.43.76.43v-2s-.49.21-.87.21c-.38,0-.38-.25-.76-.25-.38,0-.38.28-.76.28-.38,0-.38-.33-.76-.33-.38,0-.26.58-.64.58-.38,0-.5-.2-.88-.19-.38,0-.34-.15-.72-.15-.38,0-.42.25-.8.25-.38,0-.39-.42-.77-.42-.38,0-.37.44-.75.45-.38,0-.38-.14-.76-.14-.38,0-.38-.19-.76-.18-.38,0-.34.51-.72.52-.38,0-.42-.4-.8-.4-.38,0-.38.2-.76.2-.38,0-.48-.33-.76-.33v2c.3,0,.26-.26.64-.27.38,0,.38.15.76.15Z"/>
    <path d="M60.08,47.92c.38.02.31-.33.7-.31.38.02.6.33.98.34.38.01.39-.12.77-.11.38.01.38.32.77.32.38,0,.48-.25.86-.24.38,0,.27-.61.66-.6.38,0,.43.67.81.68.38,0,.48-.18.86-.18.38,0,.24.46.63.47.38,0,.39-.43.77-.43.38,0,.38.05.76.05.38,0,.4.33.79.33.38,0,.43-.48.82-.49.38,0,.74.43.76.43v-2s-.5.21-.88.21c-.38,0-.38-.25-.76-.25-.38,0-.38.28-.76.28-.38,0-.37-.33-.75-.33-.38,0-.27.57-.64.57-.38,0-.5-.2-.88-.2-.38,0-.33-.16-.71-.16-.38,0-.43.24-.81.23-.38,0-.38-.43-.76-.44-.38,0-.38.43-.76.42-.38,0-.38-.15-.75-.16-.38-.01-.37-.2-.75-.21-.38-.01-.36.5-.74.49-.38-.02-.4-.42-.78-.44-.38-.02-.39.18-.76.16-.38-.02-.45-.36-.74-.38l-.1,2c.29.02.26-.25.65-.23.38.02.37.17.76.19Z"/>
    <path d="M57.81,47.42c.08.15.22.27.37.36.14.09.31.17.49.18h0s.1-2,.1-2h0c-.18,0-.37.02-.52.09-.16.08-.29.21-.39.36-.09.14-.15.32-.17.5-.01.18.03.36.1.51Z"/>
  </g>
  <g>
    <path d="M54.6,29.01c0,.14.02.3.08.45.06.15.16.3.29.43.12.13.27.22.43.27.16.05.34.1.5.05.16-.04.3-.16.4-.3l-1.56-1.25c-.08.1-.13.22-.13.35Z"/>
    <path d="M53,23.12c.18.03.22-.31.45-.26.24.03.14.41.22.54.05.07.1.09.15.11.06.03.08.01.19.19.16.26-.09.44.08.7.17.26.42.18.59.44.17.26.62-.17.78.09.17.25-.34.67-.2.89.14.22.33.18.43.4.08.22-.38.29-.35.43.02.16.46.14.46.37-.02.23-.07.22-.12.45-.07.23-.38.14-.46.34-.09.2.31.46.17.69-.15.24-.65.17-.65.17l1.56,1.25s.12-.48.3-.78c.18-.3.4-.19.56-.53.15-.36-.12-.45-.02-.81.07-.36.41-.31.43-.74,0-.43-.56-.28-.61-.63-.06-.36.08-.55-.07-.89-.16-.32-.01-.36-.2-.66-.19-.28-.41-.17-.58-.42-.16-.25.19-.5.03-.75-.16-.25-.52,0-.67-.25-.16-.25-.04-.33-.2-.58-.05-.07-.1-.26-.1-.36-.02-.12-.04-.25-.17-.42-.3-.33-.57.08-.88-.09-.34-.1-.23-.49-.67-.57-.37-.06-.36.13-.69.09-.32-.04-.37-.38-.62-.4l-.13,2c.2.01.2-.25.48-.22.28.03.26.19.53.23Z"/>
    <path d="M46.55,26.81c.05-.15-.29-.22-.18-.42.13-.25.49-.27.62-.53.13-.26.02-.32.15-.59.15-.26.42-.12.56-.37.14-.24-.05-.43.11-.66.15-.21-.39-.51-.2-.74.2-.22.7.23.86.09.17-.13.12-.32.34-.43.23-.1.32.36.52.29.2-.06.11-.48.39-.54.28-.05.29,0,.56-.04.28-.03.33.29.59.27.27-.01.29-.5.58-.5.14,0,.28.11.37.22.1.11.16.23.17.23l.13-2s-.44.18-.77.18c-.33,0-.34-.24-.67-.22-.34.03-.31.3-.63.34-.32.05-.37-.28-.7-.22-.33.07-.11.61-.43.69-.32.1-.51-.04-.84.13-.32.18-.37.03-.68.27-.3.25-.16.46-.39.72-.22.26-.57.02-.77.31-.19.29.19.51.03.78-.16.27-.28.2-.43.46-.14.28-.31.19-.45.47-.14.28.32.49.18.76-.13.26-.58.18-.72.58-.11.42.09.44.13.83.07.38-.21.56-.09.89l1.87-.71c-.04-.1-.3-.02-.35-.21-.03-.19.12-.19.15-.35Z"/>
    <path d="M46.57,28.16c.11-.13.15-.29.18-.44.03-.13.02-.31,0-.35h0s-1.87.71-1.87.71h0c.09.23.18.31.31.4.13.07.3.1.46.1.16,0,.34-.04.5-.11.17-.07.31-.18.42-.31Z"/>
  </g>
  <g>
    <path d="M64.32,23.84c.05-.09.1-.24.12-.39.02-.15.02-.33,0-.51-.02-.18-.07-.34-.13-.48-.07-.14-.14-.29-.24-.37-.1-.07-.21-.08-.32-.06l.37,1.97c.08-.01.15-.07.2-.16Z"/>
    <path d="M59.27,25.81c.18-.09-.01-.37.16-.46.17-.08.4.15.56.08.17-.08.11-.2.28-.27.17-.07.3.2.48.13.18-.08.11-.33.29-.41.17-.08-.13-.61.04-.69.17-.08.47.52.64.45.17-.07.14-.26.31-.33.17-.07.29.38.45.32.16-.07.01-.47.18-.54.17-.06.19,0,.36-.07.17-.05.28.25.44.21.16-.05.06-.52.23-.56.18-.04.42.35.42.35l-.37-1.97s-.23.26-.43.31c-.2.05-.27-.19-.47-.13-.2.06-.12.33-.31.39-.19.07-.3-.25-.49-.18-.19.07.07.59-.11.66-.18.07-.31-.09-.5-.01-.18.08-.22-.07-.4,0-.18.08-.1.31-.28.39-.18.08-.35-.31-.53-.23-.17.08,0,.47-.16.55-.17.08-.23-.06-.41.02-.18.08-.26-.09-.44-.01-.18.08.05.54-.12.62-.17.08-.37-.27-.54-.19-.16.08-.08.25-.24.33-.17.07-.34-.22-.46-.16l.78,1.84c.14-.06.02-.29.2-.37.18-.08.25.06.43-.03Z"/>
    <path d="M58.03,25.94c.1.12.21.19.32.24.1.05.21.08.3.04h0s-.78-1.84-.78-1.84h0c-.08.03-.15.1-.18.21-.03.11-.04.26-.02.42.02.15.06.33.12.49.07.17.16.32.25.44Z"/>
  </g>
  <g>
    <path d="M38.6,22.06c-.11.08-.2.22-.25.37-.05.15-.07.33-.06.51,0,.18.03.34.05.48.03.15.05.3.08.39.03.08.07.12.11.13l.44-1.95c-.12-.03-.26,0-.37.07Z"/>
    <path d="M43.62,24.66c-.15-.12-.33.17-.47.06-.15-.11-.05-.43-.21-.53-.16-.11-.23,0-.39-.09-.16-.1,0-.36-.16-.46-.16-.1-.33.11-.49.02-.16-.09-.4.48-.56.39-.15-.08.14-.68-.02-.77-.16-.08-.28.06-.44-.02-.16-.08.11-.46-.05-.54-.15-.08-.35.31-.51.23-.15-.08-.13-.13-.28-.2-.15-.08,0-.37-.16-.45-.18-.09-.42.32-.6.24-.18-.08-.31-.55-.33-.55l-.44,1.95s.15-.18.28-.12c.12.06,0,.28.14.35.15.08.29-.16.44-.08.16.08,0,.37.16.46.16.08.37-.46.52-.38.15.08.11.28.26.36.15.08.07.2.21.28.15.08.28-.13.43-.05.15.08-.05.46.09.53.14.08.36-.3.5-.22.14.08.07.21.2.29.14.09.03.24.16.33.13.09.41-.34.54-.24.13.1-.1.43.02.53.12.09.24-.05.36.05.12.1-.09.38,0,.45l1.4-1.43c-.11-.1-.27.1-.41-.03-.14-.12-.04-.24-.19-.37Z"/>
    <path d="M44.19,25.72c.08-.13.11-.26.12-.38,0-.11,0-.22-.08-.29h0s-1.4,1.43-1.4,1.43h0c.05.05.13.07.23.06.1-.02.24-.07.38-.15.13-.07.28-.17.41-.29.13-.12.25-.26.33-.38Z"/>
  </g>
</svg>