<?xml version="1.0" encoding="UTF-8"?>
<svg id="_レイヤー_1" data-name="レイヤー_1" xmlns="http://www.w3.org/2000/svg" version="1.1" viewBox="0 0 100 100">
  <!-- Generator: Adobe Illustrator 30.0.0, SVG Export Plug-In . SVG Version: 2.1.1 Build 123)  -->
  <defs>
    <style>
      .st0 {
        fill: #ceb372;
      }

      .st1 {
        fill: #1c1917;
      }

      .st2 {
        fill: #fff;
      }
    </style>
  </defs>
  <path class="st2" d="M81.57,47.93c.23,8.58.14,17.17.13,25.75,0,3.61-.06,7.22-.05,10.84,0,1.03-.57,1.78-1.76,1.77-6.73-.05-13.46.12-20.19.06-.05,0-.09,0-.14,0-1.01-.11-1.99-.27-3.03-.04-.94.2-1.96.04-2.95.04h-3.03c-.99,0-1.97-.02-2.95,0-.58.02-1.1-.3-1.62-.31-.49-.01-.99.31-1.55.31-3.49-.01-6.99.05-10.48-.02-2.93-.06-5.86,0-8.8-.06-1.45-.02-1.83-.54-1.84-1.83-.08-7.97,0-15.95-.08-23.92-.04-4.22,0-8.44-.05-12.66"/>
  <path class="st2" d="M45.76,47.44c-8.08,0-16.41-.6-24.41,0-.14.01-.28,0-.42,0-1.07.09-1.5-.21-1.46-1.27.09-2.18.02-4.36.1-6.54.06-1.57.17-3.14.22-4.71.04-1.2.45-1.62,1.62-1.7,11.7-.74,23.49-.38,35.2-.4,6.08,0,12.48.14,18.68-.08,2.1-.07,9.93-1.99,9.94,1.82,0,2.83,0,5.66,0,8.49,0,2.35.56,4.58-2.52,4.55-8.05-.08-16.26.32-24.29-.17"/>
  <rect class="st0" x="45.71" y="32.81" width="11.99" height="53.58"/>
  <path class="st0" d="M74.81,17.33c-1.45-2.23-3.51-3.38-6.19-3.22-1.95.11-3.64.98-5.21,2.1-2.93,2.1-5.17,4.84-7.24,7.74-.09.13-.44.77-.92,1.66-.08-.1-.18-.17-.28-.2-1.37-.31-2.67-.38-4.1-.05-.65.15-1.1.43-1.46.8-2.41-3.72-5.17-7.75-6.83-9.24-1.63-1.47-3.52-2.49-5.7-2.79-1.89-.26-3.69.1-5.2,1.38-2.01,1.7-2.95,3.94-3.31,6.47-.29,2.02-.24,4.02.42,5.98.32.96.69,1.88,1.34,2.68.42.51.73,1.37.83,2.03l20.56-.12c-.13.22-.22.38-.26.43l22.4-.38c1.33-.76,2.88-4.96,3.05-6.76.28-3.03-.21-5.91-1.9-8.51Z"/>
  <path class="st1" d="M80.78,81.66c0,.82,0,1.63,0,2.45,0,.92.08,1.49-1.07,1.59-1.53.13-3.12,0-4.66,0-3.12.01-6.25.05-9.37.07-6.64.03-13.27,0-19.91,0-6.36,0-12.72-.01-19.08-.06-1.31-.01-2.4.22-2.5-1.33-.1-1.65-.03-3.33-.03-4.98-.01-3.32,0-6.64-.01-9.97,0-7.21-.02-14.42-.09-21.63,0-.86-1.76-.55-1.75.16.07,7.21.08,14.42.09,21.63,0,3.65,0,7.31.01,10.96,0,1.5-.14,3.1.06,4.58.13.92.63,1.44,1.53,1.65,1.35.3,2.88.11,4.26.11,1.95,0,3.91.01,5.86.04,3.59.06,7.18.01,10.77,0,7.11,0,14.23.04,21.34,0,4.12-.03,8.24-.08,12.36-.06,1.17,0,2.47.09,3.35-.86,1.03-1.12.59-3.15.6-4.51,0-.85-1.75-.56-1.75.16h0Z"/>
  <path class="st1" d="M80.7,48.01c.27,10.26.17,20.54.1,30.81,0,.85,1.75.56,1.75-.16.08-10.27.17-20.55-.1-30.81-.02-.86-1.77-.55-1.75.16h0Z"/>
  <path class="st1" d="M45.36,59.87c-.1,8.71-.16,17.42-.25,26.13,0,.85,1.75.56,1.75-.16.09-8.71.15-17.42.25-26.13,0-.85-1.75-.56-1.75.16h0Z"/>
  <path class="st1" d="M45.24,33.44c.23,7.74.23,15.49.16,23.23,0,.85,1.75.56,1.75-.16.07-7.74.07-15.49-.16-23.23-.03-.86-1.78-.55-1.75.16h0Z"/>
  <path class="st1" d="M57.13,79.06c0,1.15,0,2.31,0,3.46,0,.57.01,1.13-.02,1.7s-.09,1.18-.05,1.78c.02.42.41.56.79.53.3-.02.99-.27.96-.68-.03-.59.02-1.18.05-1.78s.02-1.13.02-1.7c0-1.15,0-2.31,0-3.46,0-.42-.43-.56-.79-.53-.32.03-.96.26-.96.68h0Z"/>
  <path class="st1" d="M57.2,33.44c-.01,14.16-.07,28.32-.07,42.49,0,.87,1.76.58,1.76-.15,0-14.16.06-28.33.07-42.49,0-.87-1.76-.58-1.76.15h0Z"/>
  <path class="st1" d="M28.71,18.26c-1.17,2.28-1.56,5.06-1.28,7.6.14,1.24.48,2.48,1,3.62s1.4,1.9,1.62,3.13c.07.41,1.82.01,1.74-.47-.21-1.17-1.01-1.9-1.52-2.93-.55-1.11-.9-2.34-1.07-3.56-.34-2.57.04-5.37,1.23-7.68.16-.3-.6-.23-.71-.21-.32.05-.85.18-1.01.5h0Z"/>
  <path class="st1" d="M50.58,25.54c-2.33-3.6-4.96-7.58-8.56-10.04-3.26-2.22-7.8-2.63-11-.06-.7.56,1.02.37,1.34.1,3.05-2.45,7.15-.43,9.65,1.88,2.7,2.49,4.84,5.51,6.83,8.58.3.46,1.91-.2,1.74-.47h0Z"/>
  <path class="st1" d="M75.13,31.45c1.82-1.19,2.3-4.03,2.46-6.03.25-3.05-.35-6.14-2.14-8.67-1.49-2.1-3.74-3.15-6.3-3.05-2.99.11-5.63,1.69-7.86,3.57-2.77,2.34-4.84,5.23-6.89,8.18-.37.52,1.32.3,1.59-.08,1.96-2.8,3.91-5.57,6.5-7.84s5.98-4.22,9.25-2.2c2.61,1.61,3.87,4.95,4.13,7.87.14,1.55.04,3.13-.32,4.64-.28,1.16-.69,2.78-1.75,3.48-.34.22-.14.36.12.45.35.12.94-.14,1.23-.33h0Z"/>
  <path class="st1" d="M84.38,44.25c.02.72.11,1.54-.16,2.23-.43,1.08-2.14.67-3.09.67-2.43,0-4.86.03-7.29.05-5.02.05-10.04.08-15.06-.21-.6-.03-1.87.82-.7.89,6.31.37,12.64.22,18.96.17,1.54-.01,3.07-.02,4.61,0,.99,0,2.01.02,2.93-.41,1.61-.74,1.6-2.29,1.55-3.85-.02-.46-1.76-.15-1.74.47h0Z"/>
  <path class="st1" d="M27.55,33.35c10.27-.33,20.56-.12,30.84-.09,4.96.02,9.92.09,14.88-.03,2.57-.06,5.11-.64,7.68-.59,1.14.02,2.8.14,3.29,1.39.36.92.13,2.2.13,3.16,0,1.44,0,2.87,0,4.31,0,.45,1.74.15,1.74-.47,0-1.28,0-2.56,0-3.83,0-1.07.19-2.33-.05-3.38s-1.14-1.55-2.09-1.81c-2.42-.66-5.09-.1-7.52.2-2,.24-4.06.17-6.07.19-2.57.02-5.14,0-7.71,0-5.36-.03-10.72-.03-16.08-.07-6.11-.04-12.22-.06-18.33.14-.58.02-1.86.93-.7.89h0Z"/>
  <path class="st1" d="M46.11,46.99c-7.43-.01-14.86-.5-22.29-.13-.84.04-1.7.16-2.55.13-.78-.02-.92-.31-.94-1.06-.04-1.78.04-3.59.07-5.38s.15-3.61.24-5.41c.04-.83-.07-1.45.85-1.52.86-.06,1.73-.1,2.6-.14.31-.02,1.01-.11,1.15-.45s-.11-.45-.45-.43c-1.49.07-3.55-.16-4.9.64-1.26.75-.98,2.41-1.05,3.67-.12,2.23-.18,4.45-.19,6.68,0,1-.18,2.11-.05,3.1.06.47.2.81.64,1.03.5.25,1.22.18,1.76.15,1.1-.05,2.21-.14,3.31-.18,2.39-.09,4.79-.1,7.18-.07,4.64.06,9.28.24,13.92.25.59,0,1.87-.89.7-.89h0Z"/>
  <path class="st1" d="M56.75,32.07c.91-.9,1.78-2.24,1.31-3.58-.24-.68-.77-1.26-1.15-1.88-.26-.44-.56-1.2-1.02-1.47-.25-.15-.62-.17-.9-.21-.4-.07-.8-.11-1.2-.13-.82-.04-1.65.03-2.46.18-1.33.26-2.5.78-3.27,1.94-.41.61-.72,1.28-1.06,1.93-.17.33-.34.64-.29,1.03.06.43.3.83.48,1.22s1.86-.19,1.74-.47c-.16-.35-.35-.69-.44-1.06-.11-.44.07-.73.27-1.1.32-.61.62-1.23.99-1.81.25-.38.58-.83,1.02-1.01.66-.28,1.59-.21,2.28-.13.35.04.92.04,1.22.21.24.13.36.43.49.65.39.64.8,1.26,1.21,1.89.91,1.4.33,2.87-.77,3.96-.27.27.24.27.4.25.36-.03.9-.14,1.17-.41h0Z"/>
  <path class="st1" d="M64.61,25.48c-1.34.16-2.58.68-3.8,1.22-.53.24-1.06.46-1.58.72-.08.04-.16.08-.24.12-.17.08.11-.05-.07.04-.25.11-.5.22-.75.32-.19.08-.73.36-.48.63s.88.08,1.14-.02c.43-.17.86-.36,1.27-.57.08-.04.16-.08.24-.12.08-.04.06-.03,0,0,.05-.02.1-.05.15-.07.26-.12.53-.24.8-.35.53-.23,1.06-.48,1.6-.68.49-.19.94-.31,1.47-.38.3-.04.92-.2,1-.55s-.55-.33-.73-.3h0Z"/>
  <path class="st1" d="M40.91,26.58s.13-.03.04-.02c.03,0,.13.01.05,0,.12.03.24.09.35.14.2.1.4.21.6.31s.4.2.59.3c.09.05.19.1.28.14.05.02.09.05.14.07.01,0,.16.08.08.04.78.42,1.58.94,2.15,1.57.29.32.81.36,1.19.15.28-.15.71-.6.4-.94-.76-.83-1.66-1.43-2.65-1.95-.43-.23-.86-.44-1.29-.66-.58-.3-1.12-.57-1.79-.5-.39.04-.91.27-.95.73s.45.65.81.61h0Z"/>
</svg>