<?xml version="1.0" encoding="UTF-8"?>
<svg id="_レイヤー_1" xmlns="http://www.w3.org/2000/svg" version="1.1" viewBox="0 0 100 100">
  <!-- Generator: Adobe Illustrator 30.0.0, SVG Export Plug-In . SVG Version: 2.1.1 Build 123)  -->
  <defs>
    <style>
      .st0 {
        fill: #ceb372;
      }

      .st1 {
        fill: #fff;
      }
    </style>
  </defs>
  <path class="st1" d="M83.28,45.38c.21,9.71.08,19.41.02,29.12-.02,4.08-.1,8.17-.1,12.25,0,1.16-.63,2.01-1.91,1.99-7.26-.08-55.86-.18-59.02-.24-1.56-.03-1.97-.62-1.98-2.07-.05-9.02.06-18.03.02-27.05-.02-4.77.03-9.55,0-14.32"/>
  <path class="st1" d="M29.4,46.39c-3.72-.06-7.42-.03-11.07.23-.15.01-.3-.01-.45,0-1.15.09-1.62-.23-1.57-1.37.11-2.35.04-4.7.14-7.06.07-1.7.2-3.39.26-5.08.05-1.3.49-1.75,1.76-1.82,12.62-.75,25.32-.32,37.96-.28,6.56.02,13.45.2,20.14-.01,2.26-.07,10.72-2.1,10.7,2.01-.01,3.05-.03,6.11-.04,9.16,0,2.54.59,4.94-2.73,4.89-8.68-.12-17.54.27-26.19-.28"/>
  <path class="st1" d="M44.66,46.72c-5.03-.02-10.16-.25-15.26-.33"/>
  <rect class="st0" x="22.14" y="53.4" width="57.77" height="12.93" transform="translate(-9.04 110.66) rotate(-89.78)"/>
  <path class="st0" d="M76.11,14.38c-1.55-2.41-3.77-3.65-6.66-3.5-2.1.11-3.93,1.04-5.62,2.24-3.17,2.25-5.6,5.2-7.84,8.32-.1.13-.48.83-1,1.79-.09-.11-.19-.19-.3-.21-1.47-.34-2.88-.42-4.42-.08-.7.16-1.19.46-1.58.85-2.59-4.02-5.55-8.38-7.32-9.99-1.75-1.59-3.79-2.7-6.13-3.04-2.03-.29-3.97.1-5.62,1.47-2.17,1.82-3.19,4.23-3.59,6.97-.32,2.18-.27,4.33.42,6.45.34,1.04.73,2.03,1.43,2.89.45.55.78,1.48.88,2.19l22.17-.04c-.14.24-.24.41-.28.47l24.15-.32c1.44-.82,3.13-5.34,3.31-7.27.31-3.27-.2-6.38-2.01-9.18Z"/>
  <path d="M83.77,47.39c.23,11.62.39,23.27.28,34.89,0,0-.03,4.36-.03,4.36.14,1.58-1.06,3.03-2.74,2.92,0,0-1.09,0-1.09,0-11.11-.01-23.78-.06-34.89-.5-7.12.18-14.66.25-21.79.04-1.71.01-3.81.08-3.76-2.38,0,0,.32-34.9.32-34.9,0-.13.11-.24.25-.24.13,0,.24.11.24.24l.29,34.86c0,.33.06.64.16.83.53.69,1.62.35,2.53.44,0,0,4.36.02,4.36.02,5.88.12,11.54-.18,17.44-.3,8.07.23,18.06.39,26.14.29,0,0,8.72-.02,8.72-.02,1.78.04,2.15.02,2.18-1.3.17-13.07.11-26.16.38-39.23-.04-.59.97-.74,1-.02h0Z"/>
  <path d="M29.47,46.63c-4.02-.08-7.96.09-11.97.31-.35,0-.8-.04-1.14-.4-.32-.36-.35-.8-.35-1.15l.05-2c0-2.36.04-5.67.18-7.99.23-2.63-.53-4.59,2.99-4.54,16.1-.88,33.74-.2,49.93-.37,2.57-.01,9.46-.06,11.97-.12,1.19,0,2.85-.18,4.09-.02,1.89.18,2.24,2.15,2.21,3.64,0,0,.24,3.98.24,3.98.13,2.01.13,3.99.18,6.02.09,1.58-.47,3.38-2.38,3.57-4.63.14-9.45-.05-14.06-.22-.32-.01-.31-.49,0-.51,4.49-.27,9.41-.21,13.89-.38,1.34-.18,1.44-1.27,1.42-2.45-.05-1.96-.04-3.98-.17-5.96-.13-1.19-.14-4.75-.44-5.8-.43-1.14-1.9-.81-2.95-.83,0,0-2,.05-2,.05-20.58.52-41.33-.69-61.88.19-.66.04-1.36.01-1.74.28-.38.22-.43.86-.45,1.52l-.11,1.99c-.23,2.31-.2,5.63-.26,7.97.04.48-.25,2.35.11,2.72.12.15.4.21.7.21,1.28,0,2.65-.14,3.97-.16,2.67-.09,5.34-.07,8-.02.32,0,.29.49,0,.48h0Z"/>
  <path d="M55.07,30.18c.99-.86,1.61-1.89,1.44-3.16-.41-1.2-1.07-2.45-1.91-3.38-1.23-1.02-3.08-.53-4.54-.17-.3.12-.65.3-.93.47-.09.07-.53.45-.63.52-1.34,1-2.06,2.77-1.08,4.27.07.12.04.28-.09.36-.12.07-.28.04-.35-.08-.53-.78-.78-1.8-.54-2.76.33-1.31,1.35-2.27,2.35-3.06,1.31-.85,2.79-1.11,4.39-1.15,1.01.01,2.09.49,2.69,1.33.82,1.08,1.53,2.15,1.93,3.44.37,1.65-.53,3.44-1.69,4.48-.73.7-1.79-.42-1.04-1.1h0Z"/>
  <path d="M64.95,23.78c-2.51.43-4.81,1.6-6.69,3.23-.31.27-.78.25-1.05-.06-.3-.33-.24-.85.12-1.1,1.12-.81,2.35-1.42,3.62-1.87.37-.23,5.03-1.07,4-.21h0Z"/>
  <path d="M40.93,22.84c.67-.12,1.22.26,1.66.45,1.44.67,3.01,1.34,4.14,2.55.47.49-.31,1.19-.75.66-.88-1.12-2.43-1.94-3.69-2.65-.48-.27-.87-.56-1.29-.51-.32.05-.4-.46-.07-.51h0Z"/>
</svg>