<svg xmlns="http://www.w3.org/2000/svg" id="_レイヤー_1" viewBox="0 0 100 100"><defs><style>.st0{fill:#ceb372}.st1{fill:#fff}</style></defs><path d="M83.28 45.38c.21 9.71.08 19.41.02 29.12-.02 4.08-.1 8.17-.1 12.25 0 1.16-.63 2.01-1.91 1.99-7.26-.08-55.86-.18-59.02-.24-1.56-.03-1.97-.62-1.98-2.07-.05-9.02.06-18.03.02-27.05-.02-4.77.03-9.55 0-14.32" class="st1"/><path d="M29.4 46.39c-3.72-.06-7.42-.03-11.07.23-.15.01-.3-.01-.45 0-1.15.09-1.62-.23-1.57-1.37.11-2.35.04-4.7.14-7.06.07-1.7.2-3.39.26-5.08.05-1.3.49-1.75 1.76-1.82 12.62-.75 25.32-.32 37.96-.28 6.56.02 13.45.2 20.14-.01 2.26-.07 10.72-2.1 10.7 2.01-.01 3.05-.03 6.11-.04 9.16 0 2.54.59 4.94-2.73 4.89-8.68-.12-17.54.27-26.19-.28" class="st1"/><path d="M44.66 46.72c-5.03-.02-10.16-.25-15.26-.33" class="st1"/><path d="m44.445 88.725.221-57.77 12.93.05-.221 57.77z" class="st0"/><path d="M76.11 14.38c-1.55-2.41-3.77-3.65-6.66-3.5-2.1.11-3.93 1.04-5.62 2.24-3.17 2.25-5.6 5.2-7.84 8.32-.1.13-.48.83-1 1.79-.09-.11-.19-.19-.3-.21-1.47-.34-2.88-.42-4.42-.08-.7.16-1.19.46-1.58.85-2.59-4.02-5.55-8.38-7.32-9.99-1.75-1.59-3.79-2.7-6.13-3.04-2.03-.29-3.97.1-5.62 1.47-2.17 1.82-3.19 4.23-3.59 6.97-.32 2.18-.27 4.33.42 6.45.34 1.04.73 2.03 1.43 2.89.45.55.78 1.48.88 2.19l22.17-.04c-.14.24-.24.41-.28.47l24.15-.32c1.44-.82 3.13-5.34 3.31-7.27.31-3.27-.2-6.38-2.01-9.18Z" class="st0"/><path d="M84.58 50.2c.16 12.1.19 24.22-.01 36.32.16 1.77-1.07 3.55-3.02 3.56-.74.01-2.51-.04-3.28-.04-4.27-.03-12.83-.09-17.09-.13-5.52-.16-11.56-.46-17.04-.54-5.61.18-11.48.22-17.12.04l-4.28-.07c-2.33.09-3.42-.93-3.22-3.35.08-11.39.28-22.78.41-34.18 0-.22.18-.4.41-.4.22 0 .39.18.4.4.12 11.39.31 22.78.38 34.17-.01 1.58.02 1.72 1.65 1.69h8.55c7.09.01 14.29-.55 21.36-.26 4.88.14 12.09.18 17.05.08 2.19-.03 9.58-.1 11.68-.1.54-.04.41-.3.44-.88l.01-2.14c.1-11.41-.06-22.79.11-34.18.04-1.67 2.55-1.72 2.61 0ZM29.47 46.72c-3.99-.07-8 .11-11.97.33-.36 0-.84-.04-1.23-.43-.36-.41-.38-.87-.38-1.23l.04-2 .01-4c.08-2.34.11-4.75.34-7.08.24-1.42 1.77-1.6 2.94-1.61l2-.12c15.4-.77 32.46-.27 47.94-.45 2.57-.02 9.46-.1 11.96-.17l1.98-.07c1.09-.03 2.47-.22 3.54.54 1.15.83 1.22 2.29 1.25 3.53l.22 3.98c.11 2.02.08 3.99.09 6.04.08 1.73-.61 3.64-2.68 3.87-.65.12-1.5.02-2.14 0l-3.99-.15-7.98-.29c-.44-.01-.42-.67 0-.69l7.99-.32c1.17-.07 4.7-.15 5.85-.27 1.22-.2 1.08-1.06 1.12-2.15-.08-1.94-.1-3.97-.26-5.93l-.25-3.99c-.03-.41-.03-1.31-.16-1.67-.28-.83-1.65-.54-2.51-.58l-2.01.04-4 .05c-5.04.04-18.75-.06-23.98-.1-11.32-.17-22.62-.55-33.9-.01-.66.03-1.36.02-1.67.24-.29.15-.37.73-.39 1.4l-.12 1.99c-.26 3.07-.22 6.87-.35 9.96.01.64.12.8.76.82 1.26 0 2.65-.14 3.97-.15 2.67-.08 5.34-.06 8 0 .44 0 .4.67-.01.66Z"/><path d="M55.07 30.18c.99-.86 1.61-1.89 1.44-3.16-.41-1.2-1.07-2.45-1.91-3.38-1.23-1.02-3.08-.53-4.54-.17-.3.12-.65.3-.93.47-.09.07-.53.45-.63.52-1.34 1-2.06 2.77-1.08 4.27.07.12.04.28-.09.36-.12.07-.28.04-.35-.08-.53-.78-.78-1.8-.54-2.76.33-1.31 1.35-2.27 2.35-3.06 1.31-.85 2.79-1.11 4.39-1.15 1.01.01 2.09.49 2.69 1.33.82 1.08 1.53 2.15 1.93 3.44.37 1.65-.53 3.44-1.69 4.48-.73.7-1.79-.42-1.04-1.1Z"/><path d="M64.95 23.78c-2.51.43-4.81 1.6-6.69 3.23-.31.27-.78.25-1.05-.06-.3-.33-.24-.85.12-1.1 1.12-.81 2.35-1.42 3.62-1.87.37-.23 5.03-1.07 4-.21ZM40.93 22.84c.67-.12 1.22.26 1.66.45 1.44.67 3.01 1.34 4.14 2.55.47.49-.31 1.19-.75.66-.88-1.12-2.43-1.94-3.69-2.65-.48-.27-.87-.56-1.29-.51-.32.05-.4-.46-.07-.51Z"/></svg>