<?xml version="1.0" encoding="UTF-8"?>
<svg id="_レイヤー_1" xmlns="http://www.w3.org/2000/svg" version="1.1" viewBox="0 0 100 100">
  <!-- Generator: Adobe Illustrator 30.0.0, SVG Export Plug-In . SVG Version: 2.1.1 Build 123)  -->
  <defs>
    <style>
      .st0 {
        fill: #ceb372;
      }

      .st1 {
        fill: #1c1917;
      }

      .st2 {
        fill: #231815;
      }

      .st3 {
        fill: none;
        stroke: #1c1917;
        stroke-linecap: round;
        stroke-linejoin: round;
      }

      .st4 {
        fill: #fff;
      }
    </style>
  </defs>
  <path class="st4" d="M54.29,28.31c-4.96.06-8.41.1-13.72.01,0,0-8.19-.38-20.36,1.78-3.75.67-5.17,2.75-5.34,6.48-.68,15.43-.41,30.9.59,46.32.48,7.45,12.08,6.05,17.04,6.21,4.7.16,9.4.1,14.09,0,9.69-.22,17.49.22,29.35.02,2.67-.05,5.72.25,7.85-1.64,1.96-1.74,2.56-4.57,2.74-7.19,1.07-15.51.59-30.15-1.29-43.83-.35-2.57-.54-4.45-2.8-5.99-3.34-2.28-10.09-1.98-13.85-1.95-5.14.05-9.16-.27-14.3-.21h0Z"/>
  <path class="st1" d="M33.99,39.99c9.52-1.32,13.52-.74,25.36-.85,1.1,0,3.82-.38,7.3.24,2.89.52,5.65,1.02,7.8,3.31,2.71,2.89,2.83,6.32,2.83,7.12l.04,3.92c.07.28,1.15,5.31-2.53,8.94-3.24,3.19-7.49,2.67-7.98,2.6l-32.42.24c-.55.09-4.34.63-7.55-2.08-2.98-2.52-3.25-5.98-3.29-6.58l-.2-4.76c-.09-.65-.6-4.78,2.38-8.32,1.31-1.56,3.06-3.05,8.27-3.77h-.01Z"/>
  <ellipse class="st4" cx="36.99" cy="53.55" rx="2.74" ry="3.01" transform="translate(-.5 .35) rotate(-.54)"/>
  <ellipse class="st4" cx="63.11" cy="53.3" rx="2.74" ry="3.01" transform="translate(-.5 .6) rotate(-.54)"/>
  <path class="st0" d="M39.26,73.76l.02,2.08c0,.13-.04,1.21.83,1.95.66.57,1.43.57,1.62.56,6.27-.12,12.54-.23,18.81-.35,1.1.02,2.62-.26,2.73-1.35l.21-2.31c.13-1.21-.77-2.83-1.99-2.86-6.53-.05-13.07-.11-19.6-.16-.22.01-1.11.09-1.84.82-.63.64-.76,1.38-.79,1.62"/>
  <path class="st4" d="M14.66,69.15c-1.09-.06-3.7-.58-4.86-1.41-.54-.39-3.41-2.35-4.56-7.11-.21-.86-1.42-6.32,2.33-9.94,1.45-1.4,6.8-3.33,7.23-3.22l-.14,21.68ZM87.29,68.47c1.02-.04,4.75-1.66,6.54-3.41.35-.34,4.49-4.7,3.02-10.18-.23-.85-1.15-4.07-4.44-5.84-2.24-1.21-5.53-1.62-6.12-1.44l1,20.86h0Z"/>
  <g>
    <path class="st2" d="M11.88,67.44c.36.04.68-.22.72-.57.04-.36-.22-.68-.57-.72-.36-.04-.68.22-.72.57-.04.36.22.68.57.72Z"/>
    <path class="st2" d="M13.93,68.53c-.3-.03-.57.15-.67.42.48.09.9.15,1.23.18-.02-.31-.25-.57-.56-.6Z"/>
    <path class="st2" d="M14.4,64.24c-.36-.04-.68.22-.72.57-.04.36.22.68.57.72.16.02.3-.03.42-.11v-1.07c-.08-.06-.17-.1-.28-.11Z"/>
    <path class="st2" d="M9.4,64.34c-.04.36.22.68.57.72.36.04.68-.22.72-.57.04-.36-.22-.68-.57-.72-.36-.04-.68.22-.72.57Z"/>
    <path class="st2" d="M7.73,65.67s-.06,0-.09,0c.22.28.44.53.65.75,0-.01.01-.03.01-.04.04-.36-.22-.68-.57-.72Z"/>
    <path class="st2" d="M12.5,61.85c-.36-.04-.68.22-.72.57s.22.68.57.72c.36.04.68-.22.72-.57s-.22-.68-.57-.72Z"/>
    <path class="st2" d="M12.25,58.13c-.04.36.22.68.57.72.36.04.68-.22.72-.57.04-.36-.22-.68-.57-.72-.36-.04-.68.22-.72.57Z"/>
    <path class="st2" d="M14.72,59.96c-.29.04-.52.26-.56.56-.04.35.21.65.55.71v-1.27Z"/>
    <path class="st2" d="M9.87,60.04c-.04.36.22.68.57.72.36.04.68-.22.72-.57.04-.36-.22-.68-.57-.72-.36-.04-.68.22-.72.57Z"/>
    <path class="st2" d="M14.74,56.63v-.68c-.05.08-.09.17-.1.28-.02.15.03.29.1.41Z"/>
    <path class="st2" d="M11.63,55.89c.04-.36-.22-.68-.57-.72-.36-.04-.68.22-.72.57-.04.36.22.68.57.72.36.04.68-.22.72-.57Z"/>
    <path class="st2" d="M8.2,61.38c-.36-.04-.68.22-.72.57-.04.36.22.68.57.72.09,0,.18,0,.26-.02.24-.07.43-.28.46-.55.04-.36-.22-.68-.57-.72Z"/>
    <path class="st2" d="M12.73,53.84c-.04.36.22.68.57.72.36.04.68-.22.72-.57.04-.36-.22-.68-.57-.72-.36-.04-.68.22-.72.57Z"/>
    <path class="st2" d="M13.92,48.97c-.36-.04-.68.22-.72.57-.04.36.22.68.57.72.36.04.68-.22.72-.57.04-.36-.22-.68-.57-.72Z"/>
    <path class="st2" d="M12.11,51.6c.04-.36-.22-.68-.57-.72-.36-.04-.68.22-.72.57-.04.36.22.68.57.72.36.04.68-.22.72-.57Z"/>
    <path class="st2" d="M4.89,57.53c.03-.06.06-.13.06-.2.01-.11-.01-.21-.05-.31,0,.17-.01.34-.02.51Z"/>
    <path class="st2" d="M8.68,57.09c-.36-.04-.68.22-.72.57-.04.36.22.68.57.72.36.04.68-.22.72-.57.04-.36-.22-.68-.57-.72Z"/>
    <path class="st2" d="M6.15,60.28c.36.04.68-.22.72-.57.04-.36-.22-.68-.57-.72-.36-.04-.68.22-.72.57-.04.36.22.68.57.72Z"/>
    <path class="st2" d="M6.62,55.99c.36.04.68-.22.72-.57.04-.36-.22-.68-.57-.72-.36-.04-.68.22-.72.57-.04.36.22.68.57.72Z"/>
    <path class="st2" d="M8.44,53.37c-.04.36.22.68.57.72s.68-.22.72-.57c.04-.36-.22-.68-.57-.72s-.68.22-.72.57Z"/>
    <path class="st2" d="M10.2,49.21s0-.06,0-.1c-.36.17-.71.34-1.04.52.09.08.2.14.33.15.36.04.68-.22.72-.57Z"/>
    <path class="st2" d="M7.81,51.12c.02-.19-.05-.37-.17-.5-.02.02-.06.04-.08.07-.29.28-.54.58-.78.88.09.07.19.12.31.13.36.04.68-.22.72-.57Z"/>
  </g>
  <g>
    <path class="st2" d="M95.57,62.73c-.08-.23-.28-.41-.54-.44-.36-.04-.68.22-.72.57s.22.68.57.72c.05,0,.1,0,.16-.01.17-.25.35-.53.53-.83Z"/>
    <path class="st2" d="M90.26,66.11c-.36-.04-.68.22-.72.57-.04.36.22.68.57.72.07,0,.14,0,.21-.02.09-.05.19-.1.28-.14.12-.1.2-.24.22-.41.04-.36-.22-.68-.57-.72Z"/>
    <path class="st2" d="M87.28,68.29v.17s0,0,0,0c.22,0,.57-.09.99-.23-.1-.12-.24-.2-.41-.22-.24-.03-.46.09-.59.28Z"/>
    <path class="st2" d="M91.93,64.77c-.04.36.22.68.57.72.36.04.68-.22.72-.57.04-.36-.22-.68-.57-.72-.36-.04-.68.22-.72.57Z"/>
    <path class="st2" d="M87.63,64.3c-.04.36.22.68.57.72.36.04.68-.22.72-.57.04-.36-.22-.68-.57-.72-.36-.04-.68.22-.72.57Z"/>
    <path class="st2" d="M86.97,61.76l.02.38s.02-.05.03-.08c.01-.11,0-.2-.04-.3Z"/>
    <path class="st2" d="M90.73,61.81c-.36-.04-.68.22-.72.57-.04.36.22.68.57.72.36.04.68-.22.72-.57.04-.36-.22-.68-.57-.72Z"/>
    <path class="st2" d="M91.07,58.81c.36.04.68-.22.72-.57.04-.36-.22-.68-.57-.72-.36-.04-.68.22-.72.57s.22.68.57.72Z"/>
    <path class="st2" d="M95.36,59.28c.36.04.68-.22.72-.57.04-.36-.22-.68-.57-.72-.36-.04-.68.22-.72.57-.04.36.22.68.57.72Z"/>
    <path class="st2" d="M93.69,60.62c.04-.36-.22-.68-.57-.72-.36-.04-.68.22-.72.57-.04.36.22.68.57.72.36.04.68-.22.72-.57Z"/>
    <path class="st2" d="M88.11,60c-.04.36.22.68.57.72.36.04.68-.22.72-.57.04-.36-.22-.68-.57-.72-.36-.04-.68.22-.72.57Z"/>
    <path class="st2" d="M93.59,55.61c-.36-.04-.68.22-.72.57-.04.36.22.68.57.72.36.04.68-.22.72-.57.04-.36-.22-.68-.57-.72Z"/>
    <path class="st2" d="M89.87,55.85c.04-.36-.22-.68-.57-.72-.36-.04-.68.22-.72.57-.04.36.22.68.57.72.36.04.68-.22.72-.57Z"/>
    <path class="st2" d="M87.49,57.76c.04-.36-.22-.68-.57-.72-.06,0-.11,0-.17.02l.06,1.27c.34.02.65-.23.68-.57Z"/>
    <path class="st2" d="M95.83,54.99c.36.04.68-.22.72-.57.04-.36-.22-.68-.57-.72-.36-.04-.68.22-.72.57-.04.36.22.68.57.72Z"/>
    <path class="st2" d="M91.68,53.23c-.36-.04-.68.22-.72.57-.04.36.22.68.57.72.36.04.68-.22.72-.57.04-.36-.22-.68-.57-.72Z"/>
    <path class="st2" d="M91.44,49.51c-.04.36.22.68.57.72.36.04.68-.22.72-.57.02-.21-.06-.4-.21-.53-.04-.02-.07-.05-.12-.07-.05-.03-.1-.05-.15-.07-.04-.01-.07-.03-.1-.03-.36-.04-.68.22-.72.57Z"/>
    <path class="st2" d="M94.64,52.03c.04-.36-.22-.68-.57-.72-.36-.04-.68.22-.72.57-.04.36.22.68.57.72.36.04.68-.22.72-.57Z"/>
    <path class="st2" d="M90.35,51.56c.04-.36-.22-.68-.57-.72s-.68.22-.72.57c-.04.36.22.68.57.72.36.04.68-.22.72-.57Z"/>
    <path class="st2" d="M87.25,54.04c.36.04.68-.22.72-.57.04-.36-.22-.68-.57-.72-.36-.04-.68.22-.72.57-.04.36.22.68.57.72Z"/>
    <path class="st2" d="M87.15,49.03c-.04.36.22.68.57.72.36.04.68-.22.72-.57.04-.36-.22-.68-.57-.72-.36-.04-.68.22-.72.57Z"/>
  </g>
  <circle class="st1" cx="49.65" cy="13.25" r="5.55"/>
  <path class="st1" d="M15.23,40.44c-.38,14.22,0,28.54.98,42.71.94,6.06,9.8,5.07,14.43,5.18,5.56.14,12.23.07,17.84-.08,9.39-.12,19.16.18,28.57-.02,5.54.32,8.05-1.85,8.54-7.32.53-7.05.73-14.21.59-21.29-.14-7.11-.64-14.21-1.54-21.26-.36-2.11-.26-4.69-1.66-6.33-3.17-3.1-8.67-2.62-12.93-2.71-4.79.13-9.57-.23-14.29-.25-9.46.09-19.04.09-28.47.8-.87.11-1.05-1.28-.13-1.36,9.55-.77,19.04-.8,28.61-.95,4.8,0,9.53.26,14.26.14,4.75.09,10.53-.44,14.21,3.25,1.79,2.07,1.67,4.75,2.08,7.22.92,7.11,1.44,14.27,1.6,21.44.16,7.19-.02,14.33-.55,21.51-.51,6.34-3.96,9.34-10.31,8.9-11.75.16-23.95-.33-35.69-.01-3.56.06-7.16-.09-10.71-.12-4.75-.1-10.35.52-14.2-2.94-.97-.95-1.54-2.3-1.67-3.6-.33-4.83-.54-9.54-.7-14.32-.28-9.53-.25-19.07.12-28.59.05-.65,1.02-.65,1.03.03v-.03Z"/>
  <path class="st3" d="M39.26,73.76l.02,2.08c0,.13-.04,1.21.83,1.95.66.57,1.43.57,1.62.56,6.27-.12,12.54-.23,18.81-.35,1.1.02,2.62-.26,2.73-1.35l.21-2.31c.13-1.21-.77-2.83-1.99-2.86-6.53-.05-13.07-.11-19.6-.16-.22.01-1.11.09-1.84.82-.63.64-.76,1.38-.79,1.62"/>
  <path class="st1" d="M86.91,46.45c12.25,2.11,14.25,14.64,4.25,21.36-.45.26-2.16,1.43-2.45.39-.03-.26.16-.5.43-.53,0,0,.02,0,.02,0,1.04-.09,2.15-1,3.01-1.66,6.3-4.57,6.33-14.74-1.75-17.23-1.04-.3-2.32-.59-3.36-.34-.52.27-1.17.07-1.45-.45-.45-.85.39-1.78,1.29-1.54h0Z"/>
  <path class="st3" d="M49.45,18.01l.09,9.99"/>
  <path class="st1" d="M12.15,48.67c-7.76,2.32-8.2,11.3-3.67,16.87,1.36,1.71,3.66,2.75,5.69,3,.51.01.92.46.87.97-.24,1.44-2.16.57-2.97.35-6.96-2.16-9.94-11.69-6.39-17.81,1.36-2.24,3.71-3.62,6.14-4.41.67-.21,1,.79.33,1.02h0Z"/>
</svg>