<?xml version="1.0" encoding="UTF-8"?>
<svg id="_レイヤー_1" xmlns="http://www.w3.org/2000/svg" xmlns:xlink="http://www.w3.org/1999/xlink" version="1.1" viewBox="0 0 100 100">
  <!-- Generator: Adobe Illustrator 30.0.0, SVG Export Plug-In . SVG Version: 2.1.1 Build 123)  -->
  <defs>
    <style>
      .st0, .st1 {
        fill: none;
      }

      .st2 {
        fill: #ceb372;
      }

      .st3 {
        fill: #1c1917;
      }

      .st4 {
        fill: #231815;
      }

      .st1 {
        stroke: #1c1917;
        stroke-linecap: round;
        stroke-linejoin: round;
      }

      .st5 {
        fill: #fff;
      }

      .st6 {
        fill: url(#_6_dpi_30_);
      }
    </style>
    <pattern id="_6_dpi_30_" data-name="6 dpi 30%" x="0" y="0" width="48" height="48" patternTransform="translate(-6866.91 -6521.75) rotate(6.31) scale(.18)" patternUnits="userSpaceOnUse" viewBox="0 0 48 48">
      <g>
        <rect class="st0" width="48" height="48"/>
        <g>
          <circle class="st4" cx="24" cy="48" r="3.6"/>
          <circle class="st4" cx="48" cy="48" r="3.6"/>
          <circle class="st4" cx="24" cy="24" r="3.6"/>
          <circle class="st4" cx="48" cy="24" r="3.6"/>
          <circle class="st4" cx="36" cy="36" r="3.6"/>
          <circle class="st4" cx="12" cy="36" r="3.6"/>
          <circle class="st4" cx="36" cy="12" r="3.6"/>
          <circle class="st4" cx="12" cy="12" r="3.6"/>
        </g>
        <g>
          <circle class="st4" cy="48" r="3.6"/>
          <circle class="st4" cy="24" r="3.6"/>
        </g>
        <g>
          <circle class="st4" cx="24" cy="0" r="3.6"/>
          <circle class="st4" cx="48" cy="0" r="3.6"/>
        </g>
        <circle class="st4" cy="0" r="3.6"/>
      </g>
    </pattern>
  </defs>
  <path class="st5" d="M54.29,28.31c-4.96.06-8.41.1-13.72.01,0,0-8.19-.38-20.36,1.78-3.75.67-5.17,2.75-5.34,6.48-.68,15.43-.41,30.9.59,46.32.48,7.45,12.08,6.05,17.04,6.21,4.7.16,9.4.1,14.09,0,9.69-.22,17.49.22,29.35.02,2.67-.05,5.72.25,7.85-1.64,1.96-1.74,2.56-4.57,2.74-7.19,1.07-15.51.59-30.15-1.29-43.83-.35-2.57-.54-4.45-2.8-5.99-3.34-2.28-10.09-1.98-13.85-1.95-5.14.05-9.16-.27-14.3-.21Z"/>
  <path class="st3" d="M33.99,39.99c9.52-1.32,13.52-.74,25.36-.85,1.1-.01,3.82-.38,7.3.24,2.89.52,5.65,1.02,7.8,3.31,2.71,2.89,2.83,6.32,2.83,7.12l.04,3.92c.07.28,1.15,5.31-2.53,8.94-3.24,3.19-7.49,2.67-7.98,2.6-10.81.08-21.61.16-32.42.24-.55.09-4.34.63-7.55-2.08-2.98-2.52-3.25-5.98-3.29-6.58l-.2-4.76c-.09-.65-.6-4.78,2.38-8.32,1.31-1.56,3.06-3.05,8.27-3.77Z"/>
  <ellipse class="st5" cx="36.99" cy="53.55" rx="2.74" ry="3.01" transform="translate(-.5 .35) rotate(-.54)"/>
  <ellipse class="st5" cx="63.11" cy="53.3" rx="2.74" ry="3.01" transform="translate(-.5 .6) rotate(-.54)"/>
  <path class="st2" d="M39.26,73.76l.02,2.08c0,.13-.04,1.21.83,1.95.66.57,1.43.57,1.62.56,6.27-.12,12.54-.23,18.81-.35,1.1.02,2.62-.26,2.73-1.35l.21-2.31c.13-1.21-.77-2.83-1.99-2.86-6.53-.05-13.07-.11-19.6-.16-.22.01-1.11.09-1.84.82-.63.64-.76,1.38-.79,1.62Z"/>
  <path class="st5" d="M14.66,69.15c-1.09-.06-3.7-.58-4.86-1.41-.54-.39-3.41-2.35-4.56-7.11-.21-.86-1.42-6.32,2.33-9.94,1.45-1.4,6.8-3.33,7.23-3.22l-.14,21.68Z"/>
  <path class="st5" d="M87.29,68.47c1.02-.04,4.75-1.66,6.54-3.41.35-.34,4.49-4.7,3.02-10.18-.23-.85-1.15-4.07-4.44-5.84-2.24-1.21-5.53-1.62-6.12-1.44l1,20.86Z"/>
  <path class="st6" d="M14.66,69.15c-1.09-.06-3.7-.58-4.86-1.41-.54-.39-3.41-2.35-4.56-7.11-.21-.86-1.42-6.32,2.33-9.94,1.45-1.4,6.8-3.33,7.23-3.22l-.14,21.68Z"/>
  <path class="st6" d="M87.29,68.47c1.02-.04,4.75-1.66,6.54-3.41.35-.34,4.49-4.7,3.02-10.18-.23-.85-1.15-4.07-4.44-5.84-2.24-1.21-5.53-1.62-6.12-1.44l1,20.86Z"/>
  <circle class="st3" cx="49.65" cy="13.25" r="5.55"/>
  <path class="st3" d="M14.99,40.43c-.32,14.23.14,28.55,1.16,42.72.96,6.09,9.83,5.07,14.48,5.17,5.56.11,12.23.07,17.84-.09,9.39-.11,19.16.19,28.57,0,5.54.32,8.05-1.84,8.55-7.31.54-7.05.75-14.21.61-21.3-.13-7.11-.64-14.21-1.48-21.27-.35-2.14-.23-4.72-1.65-6.4-3.2-3.17-8.73-2.72-13.03-2.83-4.78.1-9.55-.29-14.29-.35-9.49.04-19.05.02-28.52.69-.15.01-.29-.1-.3-.26-.01-.15.1-.29.25-.3,9.52-.81,19.03-.86,28.57-1.06,4.79-.04,9.53.19,14.27.05,4.72.06,10.45-.5,14.11,3.13,1.77,2.03,1.67,4.71,2.09,7.15.97,7.1,1.48,14.26,1.65,21.43.17,7.19,0,14.32-.53,21.51-.51,6.34-3.96,9.34-10.3,8.9-9.41.15-19.17-.18-28.54-.1-6.92.19-14.56.05-21.44-.03-4.56-.06-11.64-.78-12.23-6.55-.32-4.82-.51-9.54-.65-14.32-.23-9.53-.16-19.06.26-28.58.05-.34.53-.36.55.02h0Z"/>
  <path class="st1" d="M39.26,73.76l.02,2.08c0,.13-.04,1.21.83,1.95.66.57,1.43.57,1.62.56,6.27-.12,12.54-.23,18.81-.35,1.1.02,2.62-.26,2.73-1.35l.21-2.31c.13-1.21-.77-2.83-1.99-2.86-6.53-.05-13.07-.11-19.6-.16-.22.01-1.11.09-1.84.82-.63.64-.76,1.38-.79,1.62Z"/>
  <path class="st3" d="M86.92,46.56c11,1.45,14.18,12.97,5.59,19.86-1,.76-2,1.64-3.29,1.81-.05,0-.09-.03-.09-.08,0-.05.03-.09.08-.09,1.8-.36,3.2-1.87,4.53-3.08,4.99-5.09,3.99-14.07-3.31-16.19-1-.32-2.4-.62-3.37-.46-.48.12-.97-.18-1.08-.66-.15-.58.35-1.16.94-1.1h0Z"/>
  <line class="st1" x1="49.45" y1="18.01" x2="49.54" y2="28"/>
  <path class="st3" d="M12.05,48.37c-2.23.82-4.36,2.17-5.49,4.22-2.65,4.96-.53,12.41,4.47,15.02,1,.46,2.21.87,3.14.94.51.01.92.45.88.96-.23,1.46-2.16.57-2.97.35-8.03-2.48-10.82-15.55-3.53-20.35.32-.31,4.45-2.39,3.51-1.14h0Z"/>
</svg>