<?xml version="1.0" encoding="UTF-8"?>
<svg id="_レイヤー_1" xmlns="http://www.w3.org/2000/svg" version="1.1" viewBox="0 0 100 100">
  <!-- Generator: Adobe Illustrator 30.0.0, SVG Export Plug-In . SVG Version: 2.1.1 Build 123)  -->
  <defs>
    <style>
      .st0 {
        fill: #ceb372;
      }

      .st1 {
        fill: #1c1917;
      }

      .st2 {
        fill: #fff;
      }
    </style>
  </defs>
  <path class="st2" d="M53.48,31.26c-4.6.01-7.8.02-12.72-.11,0,0-7.59-.43-18.9,1.47-3.49.59-4.82,2.5-5.01,5.96-.76,14.31-.65,28.65.14,42.95.38,6.91,11.15,5.71,15.75,5.91,4.35.19,8.71.17,13.07.11,8.99-.12,16.22.36,27.22.27,2.48-.02,5.3.28,7.29-1.45,1.84-1.6,2.41-4.22,2.61-6.65,1.13-14.37.81-27.95-.82-40.65-.31-2.39-.46-4.13-2.54-5.58-3.08-2.15-9.34-1.93-12.83-1.92-4.76,0-8.49-.33-13.26-.32Z"/>
  <g>
    <path class="st1" d="M34.55,41.92c8.84-1.14,12.54-.57,23.52-.57,1.02,0,3.55-.32,6.77.29,2.67.5,5.23,1,7.2,3.14,2.49,2.7,2.57,5.89,2.57,6.63v3.63c.06.26,1.02,4.94-2.42,8.27-3.03,2.93-6.97,2.41-7.43,2.34-10.02-.02-20.04-.04-30.06-.06-.51.08-4.03.55-6.98-2-2.74-2.36-2.96-5.57-2.99-6.13l-.14-4.42c-.08-.6-.51-4.44,2.28-7.7,1.23-1.43,2.87-2.8,7.7-3.42Z"/>
    <g>
      <path class="st1" d="M45.17,40.32c-.38,0-.29.34-.67.34-.37,0-.6-.3-.98-.29-.38,0-.37.14-.75.15-.38.01-.4-.29-.77-.28-.38.01-.46.28-.83.3-.38.02-.23.62-.6.64-.37.02-.47-.64-.84-.61-.38.03-.45.22-.83.25-.37.03-.28-.44-.66-.41-.38.03-.34.47-.72.5-.37.04-.38-.01-.75.02-.37.04-.43-.28-.8-.24-.37.05-.37.53-.74.58-.37.05-.77-.34-.8-.34l.26,1.98s.45-.26.81-.31c.37-.04.39.2.76.16.37-.04.34-.31.71-.35.37-.04.39.29.76.25.36-.03.2-.59.57-.63.37-.03.5.16.87.12.37-.03.34.13.7.1.37-.02.39-.27.76-.29.37-.02.4.41.77.39.37-.02.34-.46.71-.47.37-.01.37.13.74.12.37-.01.37.18.74.17.37,0,.32-.52.69-.52.37,0,.41.41.78.4.37,0,.37-.2.74-.2.37,0,.46.34.74.34v-2c-.27,0-.23.26-.61.26-.38,0-.37-.16-.75-.15Z"/>
      <path class="st1" d="M57.19,40.46c-.37,0-.29.34-.67.34-.37,0-.59-.31-.96-.32-.37,0-.37.13-.75.13-.37,0-.38-.31-.75-.31-.37,0-.46.25-.84.25-.37,0-.27.61-.64.6-.37,0-.42-.67-.79-.68-.37,0-.47.18-.84.17-.37,0-.23-.47-.6-.47-.37,0-.39.43-.76.42-.37,0-.37-.06-.75-.07-.37,0-.39-.33-.76-.34-.37,0-.43.48-.81.47-.37,0-.72-.44-.74-.44v2s.47-.2.84-.2c.37,0,.37.25.74.26.37,0,.38-.27.75-.26.37,0,.36.34.73.34.37,0,.27-.57.64-.56.37,0,.49.21.86.21.37,0,.33.16.7.16.37,0,.42-.23.79-.23.37,0,.37.43.75.44.37,0,.37-.43.74-.43.37,0,.37.15.74.15.37,0,.37.19.74.2.37,0,.34-.5.71-.5.37,0,.41.41.78.41.37,0,.37-.19.75-.19.36,0,.5.34.79.32l-.09-2c-.27,0-.21.27-.57.28-.37,0-.37-.16-.74-.16Z"/>
      <path class="st1" d="M69.37,41.89c-.38-.15-.41.2-.78.07-.37-.12-.5-.49-.88-.59-.38-.1-.41.03-.79-.06-.37-.08-.32-.39-.69-.46-.37-.08-.51.16-.88.09-.37-.07-.37.55-.74.49-.37-.07-.32-.73-.7-.79-.38-.05-.5.12-.88.08-.38-.03-.21-.49-.6-.51-.39-.03-.42.41-.8.39-.38,0-.38-.07-.77-.07-.38,0-.41-.32-.79-.32-.39,0-.42.49-.8.51-.38.02-.74-.39-.76-.39l.09,2s.48-.23.84-.25c.36-.01.37.23.73.23.36,0,.36-.28.72-.28.36,0,.35.34.7.35.35.02.27-.57.64-.54.36.02.46.24.82.27.36.04.3.18.65.23.35.05.43-.18.79-.12.35.06.29.49.65.55.36.07.44-.36.8-.29.36.07.33.22.68.3.35.09.31.26.64.36.34.09.45-.4.79-.3.34.12.24.51.56.63.32.12.39-.05.71.1.31.16.22.49.43.62l1.02-1.72c-.27-.16-.36.09-.72-.1-.36-.18-.29-.32-.67-.47Z"/>
      <path class="st1" d="M75.5,52.47c0-.37-.34-.29-.34-.67,0-.36.32-.6.29-1.02-.03-.41-.17-.39-.21-.79-.06-.39.24-.46.16-.86-.09-.4-.36-.43-.48-.82-.11-.39-.67-.07-.79-.43-.14-.35.46-.66.29-1.03-.17-.37-.38-.37-.58-.71-.2-.35.26-.46.04-.81-.23-.35-.6-.09-.83-.41-.25-.31-.22-.34-.48-.65-.29-.28-.06-.55-.38-.83-.32-.29-.67.06-.98-.18-.32-.23-.42-.79-.45-.8l-1.02,1.72s.48.04.75.25c.27.21.11.39.35.61.24.21.43.03.67.27.22.26-.03.47.18.72.19.26.6-.16.8.13.19.3.09.49.25.79.17.3,0,.34.16.64.14.31.37.25.5.58.12.33-.28.47-.19.79.09.32.51.21.59.55.07.34-.08.37-.02.71.04.34-.15.36-.12.69.02.33.52.28.52.65,0,.37-.41.41-.41.78s.19.37.19.74-.34.46-.34.74h2c0-.28-.26-.24-.26-.62s.15-.37.15-.74Z"/>
      <path class="st1" d="M72.41,64.29c.31-.28.02-.45.3-.74.26-.29.68-.24.92-.58.24-.34.16-.4.37-.74.2-.35.5-.19.69-.57.18-.38.01-.57.15-.95.14-.38-.46-.47-.35-.83.1-.36.78-.24.86-.64.09-.4-.08-.53-.02-.92.06-.39.49-.2.53-.61.03-.41-.42-.44-.4-.83,0-.4.05-.4.03-.8-.03-.4.29-.45.23-.87-.01-.08-.05-.17-.08-.2-.03-.02-.08-.04-.13-.06-.07-.03-.15-.06-.21-.11-.06-.07-.1-.15-.1-.27,0-.37.43-.72.43-.74h-2s.21.48.21.85c0,.15-.05.31-.11.44-.02.08-.04.14-.05.25-.02.05-.02.11-.01.2.04.32.32.3.34.64.02.35-.32.35-.31.68-.01.33.57.25.55.6-.03.35-.23.44-.29.78-.05.34-.2.27-.27.6-.06.33.14.42.04.76-.11.33-.52.19-.63.49-.13.3.26.47.11.78-.16.31-.3.22-.47.51-.18.29-.35.16-.54.43-.19.26.2.56-.04.82-.24.26-.54,0-.8.21-.25.22-.12.38-.4.58-.28.21-.53-.03-.74.09l1.04,1.71c.27-.17.1-.35.42-.6.33-.24.43-.11.74-.39Z"/>
      <path class="st1" d="M60.32,66.52c.37,0,.29-.34.67-.34.37,0,.59.31.96.31.37,0,.37-.13.75-.13.37,0,.38.31.76.31.37,0,.46-.26.84-.26.38,0,.25-.63.61-.59.37.04.39.71.8.72.41,0,.5-.18.89-.2.39-.04.29.45.71.4.41-.05.35-.49.74-.56.39-.08.4-.04.79-.13.38-.13.51.19.9.04.39-.16.25-.61.61-.79.35-.16.89,0,.92-.02l-1.04-1.71s-.26.4-.57.55c-.3.15-.41-.1-.71.03-.31.11-.22.37-.55.47-.33.08-.4-.23-.72-.17-.32.06-.13.62-.48.66-.35.05-.48-.15-.82-.13-.34.01-.31-.14-.64-.14-.33-.01-.39.23-.73.19-.47-.05-.45-.44-.83-.45-.37,0-.36.44-.74.44-.37,0-.37-.15-.74-.15-.37,0-.37-.19-.74-.19-.37,0-.34.51-.71.51-.37,0-.41-.41-.78-.41-.37,0-.37.19-.74.19-.37,0-.46-.34-.74-.34v2c.28,0,.24-.26.61-.26.37,0,.37.16.74.16Z"/>
      <path class="st1" d="M48.3,66.5c.37,0,.29-.34.67-.34.37,0,.59.31.96.31.37,0,.37-.13.75-.13.37,0,.38.31.76.31.37,0,.46-.26.84-.26.37,0,.26-.61.63-.61.37,0,.42.67.8.67.37,0,.46-.18.84-.18.37,0,.24.46.61.46.37,0,.38-.44.75-.43.37,0,.37.06.75.06.37,0,.39.33.77.33.37,0,.43-.48.8-.48.37,0,.72.43.74.43v-2s-.48.21-.85.21c-.37,0-.37-.25-.74-.25-.37,0-.37.28-.75.28-.37,0-.37-.33-.74-.33-.37,0-.26.57-.63.57-.37,0-.49-.2-.86-.2-.37,0-.33-.15-.7-.15-.37,0-.42.24-.79.24-.37,0-.38-.43-.75-.43-.37,0-.36.44-.74.44-.37,0-.37-.15-.74-.15-.37,0-.37-.19-.74-.19-.37,0-.34.51-.71.51-.37,0-.41-.41-.78-.41-.37,0-.37.19-.74.19-.37,0-.46-.34-.74-.34v2c.28,0,.24-.26.61-.26.37,0,.37.16.74.16Z"/>
      <path class="st1" d="M36.29,66.48c.37,0,.29-.34.67-.34.37,0,.59.31.96.31.37,0,.37-.13.75-.13.37,0,.38.31.76.31.37,0,.46-.26.84-.26.37,0,.26-.61.63-.61.37,0,.42.67.8.67.37,0,.46-.18.84-.18.37,0,.24.46.61.46.37,0,.38-.44.75-.43.37,0,.37.06.75.06.37,0,.39.33.77.33.37,0,.43-.48.8-.48.37,0,.72.43.74.43v-2s-.48.21-.85.21c-.37,0-.37-.25-.74-.25-.37,0-.37.28-.75.28-.37,0-.37-.33-.74-.33-.37,0-.26.57-.63.57-.37,0-.49-.2-.86-.2-.37,0-.33-.15-.7-.15-.37,0-.42.24-.79.24-.37,0-.38-.43-.75-.43-.37,0-.36.44-.74.44-.37,0-.37-.15-.74-.15-.37,0-.37-.19-.74-.19-.37,0-.34.51-.71.51-.37,0-.41-.41-.78-.41-.37,0-.37.19-.74.19-.37,0-.46-.34-.74-.34v2c.28,0,.24-.26.61-.26.37,0,.37.16.74.16Z"/>
      <path class="st1" d="M25.09,61.76c.21.35.44.11.67.44.22.33.12.7.38,1.02.28.3.37.22.66.5.3.27.09.52.42.78.33.26.56.12.9.34.34.22.56-.35.89-.17.33.18.08.81.46.98.37.17.54.02.91.16.38.11.11.52.52.63.41.09.51-.32.9-.26.39.07.39.11.79.16.4.03.4.36.82.37.42,0,.46-.48.85-.51.18-.01.45.06.51.16.07.11.16.21.18.21v-2s-.04.01-.09.03c-.08.02-.18.04-.29.08-.2.08-.33.14-.51.16-.34.02-.34-.23-.67-.23-.33,0-.35.26-.69.24-.34-.04-.29-.36-.61-.42-.32-.05-.34.52-.68.44-.34-.09-.39-.31-.71-.42-.32-.13-.23-.24-.53-.38-.3-.14-.45.06-.75-.11-.31-.16-.08-.55-.35-.72-.27-.18-.51.16-.79-.05-.27-.22-.16-.34-.41-.56-.24-.24-.09-.38-.32-.62-.2-.26-.59.09-.8-.2-.2-.29.12-.54-.05-.83-.17-.29-.33-.2-.49-.51-.14-.32.13-.52.05-.75l-1.87.7c.11.29.34.15.5.52.17.36.03.43.23.79Z"/>
      <path class="st1" d="M23.9,49.34c-.09.4.27.38.2.76-.05.39-.39.58-.42.99-.02.4.11.41.11.81,0,.4-.3.42-.27.84.02.2.1.36.17.39.07.06.14.21.14.39.01.37.62.24.63.61.01.37-.65.45-.64.82.01.37.2.46.21.83.01.37-.46.26-.44.63.01.37.45.36.46.74.01.36-.05.39,0,.79.05.4-.27.47-.19.88.09.41.57.35.67.73.11.37-.16.87-.15.9l1.87-.7s-.35-.34-.44-.67c-.09-.33.16-.39.09-.71-.06-.32-.33-.28-.37-.62-.03-.33.31-.32.29-.7-.01-.37-.58-.24-.59-.61-.01-.37.18-.5.17-.87-.01-.37.14-.33.13-.7-.01-.37-.25-.41-.27-.78-.01-.37.41-.39.4-.77,0-.09-.03-.16-.08-.22-.04-.08-.1-.14-.16-.2-.12-.1-.24-.15-.25-.33-.02-.35.12-.35.12-.7,0-.35.2-.34.21-.68.03-.34-.49-.35-.44-.71.04-.36.47-.32.52-.65.08-.33-.11-.38-.02-.71.11-.33.44-.31.54-.54l-1.87-.7c-.11.29.15.34.03.72-.12.38-.25.34-.36.74Z"/>
      <path class="st1" d="M33.05,41.25c-.38.07-.23.39-.61.47-.37.08-.67-.17-1.05-.07-.38.1-.34.24-.72.35-.37.13-.49-.16-.87-.01-.38.15-.36.43-.73.61-.36.19.04.67-.29.86-.32.2-.74-.32-1.08-.08-.33.26-.28.46-.58.73-.29.28-.52-.15-.8.15-.28.31.05.59-.2.9-.24.32-.3.27-.52.61-.22.33-.52.17-.72.54-.21.36.19.63.03.99-.17.35-.69.55-.71.57l1.87.7s-.04-.49.11-.79c.14-.31.38-.19.53-.48.16-.29-.06-.43.13-.72.19-.29.47-.07.67-.33.2-.26-.3-.55-.06-.82.24-.26.46-.2.71-.43.25-.23.32-.08.58-.28.27-.19.16-.41.45-.59.3-.17.5.2.8.06.29-.14.12-.54.44-.67.33-.13.38.01.71-.1.34-.1.39.07.73-.02.34-.08.18-.58.54-.66.36-.07.47.31.82.25.35-.06.32-.26.68-.31.36-.05.49.27.76.23l-.26-1.98c-.29.04-.21.3-.59.35-.38.05-.4-.09-.78-.03Z"/>
    </g>
  </g>
  <ellipse class="st2" cx="37.22" cy="54.52" rx="2.54" ry="2.79"/>
  <ellipse class="st2" cx="61.44" cy="54.52" rx="2.54" ry="2.79"/>
  <path class="st0" d="M39.15,73.28v1.92c0,.12-.05,1.13.75,1.82.61.53,1.32.54,1.5.53,5.81-.05,11.63-.11,17.44-.16,1.02.03,2.43-.22,2.55-1.23l.21-2.14c.13-1.12-.69-2.63-1.82-2.67-6.06-.11-12.12-.21-18.17-.32-.2.01-1.03.08-1.71.75-.59.58-.72,1.27-.75,1.5Z"/>
  <path class="st1" d="M15.02,48.81c-1.96-.25-4.46,1.24-5.89,2.43-1.73,1.44-2.79,3.48-3.06,5.7-.43,3.46.63,7.13,3.01,9.72,1.28,1.4,2.98,2.48,4.89,2.65.67.06,1.52-.12,2.05-.55.42-.34.4-.73-.21-.79-3.74-.34-6.16-4.87-6.74-8.09-.32-1.78-.27-3.65.33-5.36.42-1.2,1.11-2.32,2.1-3.13.47-.39.99-.71,1.54-.97.17-.09.35-.17.53-.24.43-.17.37.06-.37-.04.65.08,1.53-.13,2.05-.55.44-.35.39-.71-.21-.79h0Z"/>
  <path class="st0" d="M16.38,68.79c-1.01-.06-3.42-.57-4.49-1.35-.5-.37-3.15-2.21-4.17-6.63-.19-.8-1.27-5.87,2.25-9.19,1.35-1.28,6.33-3.03,6.74-2.92l-.32,20.1Z"/>
  <path class="st0" d="M83.73,68.79c.95-.03,4.42-1.5,6.09-3.1.33-.32,4.2-4.32,2.89-9.41-.2-.79-1.03-3.78-4.06-5.45-2.07-1.14-5.11-1.55-5.67-1.39l.75,19.35Z"/>
  <circle class="st1" cx="49.31" cy="17.26" r="5.15"/>
  <g>
    <path class="st1" d="M42.71,32.07c.38,0,.3-.34.68-.33.38,0,.6.31.97.32.38,0,.38-.13.76-.13.38,0,.38.31.76.31.38,0,.47-.26.85-.25.38,0,.26-.61.64-.61.38,0,.43.67.8.67.38,0,.47-.18.85-.18.38,0,.24.47.62.47.38,0,.38-.43.76-.43.38,0,.38.06.75.06.38,0,.4.33.77.33.38,0,.43-.48.81-.48.38,0,.73.44.75.44v-2s-.49.2-.87.2c-.38,0-.37-.25-.75-.26-.38,0-.38.27-.75.27-.38,0-.37-.34-.74-.34-.37,0-.26.57-.64.57-.37,0-.49-.2-.87-.21-.37,0-.33-.16-.7-.16-.38,0-.42.24-.8.23-.38,0-.38-.43-.76-.43-.38,0-.37.43-.75.43-.38,0-.37-.15-.75-.15-.38,0-.37-.19-.75-.2-.38,0-.34.51-.72.5-.38,0-.41-.41-.78-.41-.38,0-.38.19-.75.19-.38,0-.46-.34-.75-.34l-.02,2c.28,0,.25-.26.63-.26.38,0,.37.16.75.16Z"/>
    <path class="st1" d="M30.67,32.39c.37-.03.26-.37.64-.4.37-.03.62.26.99.24.37-.03.36-.17.74-.19.37-.02.4.28.77.26.37-.02.45-.29.82-.3.37-.02.23-.62.61-.64.38-.02.46.65.83.64.37-.01.46-.2.83-.21.37,0,.25.46.62.45.37,0,.37-.44.75-.44.37,0,.37.05.75.05.37,0,.39.33.76.33.37,0,.43-.47.8-.46.41.02.73.44.76.44l.02-2s-.51.21-.84.19c-.38-.01-.38-.26-.76-.27-.38,0-.39.27-.77.27-.38,0-.37-.33-.76-.33-.38,0-.26.57-.64.58-.38,0-.5-.19-.88-.18-.38.01-.34-.14-.72-.13-.38.01-.41.25-.79.27-.38.02-.41-.41-.79-.39-.38.02-.35.46-.72.48-.38.02-.39-.12-.76-.1-.38.02-.39-.16-.77-.13-.38.03-.3.53-.68.56-.38.03-.45-.37-.83-.34-.38.03-.36.23-.74.26-.38.03-.5-.29-.79-.26l.2,1.99c.28-.03.22-.29.59-.32.37-.03.38.12.76.09Z"/>
    <path class="st1" d="M19.36,34.55c.25-.17-.01-.43.28-.6.29-.18.61.03.9-.09.31-.11.27-.25.6-.33.33-.09.41.22.74.15.34-.07.41-.33.77-.39.37-.06.16-.64.53-.7.37-.06.53.59.89.53.37-.05.43-.25.8-.3.37-.05.3.43.67.37.37-.05.32-.49.69-.53.37-.05.38,0,.75-.04.37-.05.43.28.8.23.37-.04.37-.53.74-.57.37-.04.76.35.79.35l-.2-1.99s-.47.26-.84.3c-.38.04-.4-.21-.78-.16-.38.05-.35.32-.72.37-.38.05-.41-.28-.79-.24-.38.05-.19.6-.56.66-.37.05-.52-.13-.89-.08-.37.05-.35-.1-.73-.05-.37.06-.38.3-.75.36-.37.06-.45-.36-.82-.3-.38.06-.29.48-.68.56-.39.08-.42-.07-.82.04-.4.1-.45-.06-.86.08-.4.16-.16.62-.52.79-.35.2-.61-.13-.97.14-.35.28-.22.43-.53.73-.29.31-.61.2-.82.49l1.67,1.11c.14-.17-.12-.32.1-.55.21-.24.33-.11.55-.31Z"/>
    <path class="st1" d="M17.45,45.47c.01-.38-.33-.31-.32-.68.01-.38.33-.59.34-.96.02-.38-.12-.38-.1-.76.02-.38.32-.37.34-.75.02-.38-.24-.48-.22-.85.02-.38-.6-.29-.58-.66.02-.38.69-.4.71-.77.02-.37-.16-.48-.14-.85.02-.37.47-.22.49-.59.03-.34-.42-.39-.37-.74.04-.35.09-.34.16-.68.06-.34.4-.27.48-.59.11-.29-.35-.51-.2-.82.15-.32.68-.34.68-.34l-1.67-1.11s-.14.6-.3.99c-.17.39-.39.31-.53.72-.11.42.15.49.07.88-.08.4-.4.34-.45.76-.05.41.55.34.51.73-.03.39-.23.49-.25.86-.02.37-.17.32-.19.7-.02.38.22.43.2.81-.02.38-.45.37-.46.74-.02.38.42.39.41.76-.02.38-.16.37-.18.75-.02.38-.2.37-.22.75-.02.38.5.36.48.74-.01.38-.42.4-.43.78-.01.38.18.38.17.76-.01.38-.35.46-.36.74l2,.06c0-.28-.25-.25-.24-.63.01-.38.17-.37.18-.74Z"/>
    <path class="st1" d="M17.23,57.57c0-.38-.34-.3-.34-.67,0-.38.31-.6.32-.97,0-.38-.13-.38-.13-.75,0-.38.31-.38.31-.76,0-.38-.25-.47-.25-.84,0-.38-.61-.27-.6-.64,0-.38.67-.42.68-.8,0-.38-.18-.47-.17-.85,0-.38.47-.23.48-.61,0-.38-.43-.39-.42-.77,0-.38.06-.37.07-.75.01-.38.34-.39.35-.76.01-.38-.47-.44-.46-.82.01-.38.45-.71.45-.74l-2-.06s.19.49.18.87c-.01.38-.26.37-.27.75-.01.38.27.39.26.76,0,.38-.34.36-.35.74,0,.38.57.28.56.65,0,.38-.21.49-.22.87,0,.38-.16.33-.17.7,0,.38.24.42.23.8,0,.38-.43.38-.44.76,0,.38.43.37.43.75,0,.38-.15.38-.15.75,0,.38-.19.38-.19.75,0,.38.51.34.5.72,0,.38-.41.41-.41.79,0,.38.19.38.19.75,0,.38-.34.47-.34.75h2c0-.28-.26-.25-.26-.63,0-.38.15-.37.15-.75Z"/>
    <path class="st1" d="M17.4,69.68c-.01-.38-.35-.29-.36-.66-.01-.38.29-.6.28-.98,0-.38-.14-.37-.15-.75,0-.38.3-.39.29-.77,0-.38-.27-.46-.28-.84,0-.38-.62-.25-.62-.63,0-.38.66-.44.66-.82,0-.38-.19-.46-.2-.84,0-.38.46-.25.45-.62,0-.38-.44-.38-.44-.75,0-.38.05-.38.05-.75,0-.38.32-.4.32-.77,0-.38-.49-.43-.49-.8,0-.38.43-.73.43-.75h-2s.21.49.21.87c0,.38-.25.38-.25.75,0,.38.28.38.28.75,0,.38-.33.37-.33.75,0,.38.58.26.58.63,0,.38-.19.5-.19.87,0,.38-.15.33-.14.71,0,.38.25.42.25.79,0,.38-.42.39-.41.77,0,.38.45.36.45.74,0,.38-.14.38-.13.76,0,.38-.18.38-.17.76,0,.38.52.33.53.7.01.38-.4.42-.39.8.01.38.2.37.21.75.01.38-.32.48-.31.76l2-.06c0-.28-.27-.24-.28-.61-.01-.38.14-.38.13-.75Z"/>
    <path class="st1" d="M17.93,81.73c-.06-.31-.38-.23-.4-.61-.02-.38.28-.61.26-.99-.02-.38-.15-.37-.17-.75-.02-.38.29-.4.27-.78-.02-.38-.28-.45-.3-.83-.02-.38-.62-.23-.64-.61-.02-.38.65-.46.63-.83-.02-.37-.2-.46-.22-.83-.02-.38.45-.26.44-.64-.02-.38-.45-.37-.47-.74-.01-.38.04-.38.02-.75-.01-.38.31-.41.3-.78-.01-.38-.5-.41-.51-.79-.01-.38.4-.74.4-.76l-2,.06s.22.48.24.86c.01.38-.24.38-.22.76.01.38.29.37.3.75.01.38-.32.38-.3.76.02.38.58.24.6.62.01.37-.18.5-.16.88.02.37-.14.34-.12.71.02.38.26.41.28.79.02.38-.41.4-.39.78.02.38.45.35.47.72.02.38-.13.38-.11.76.02.38-.17.39-.15.76.02.38.53.31.55.69.03.39-.4.41-.35.83.06.43.26.4.32.81.05.41-.19.6-.08.93l1.87-.7c-.07-.21-.36-.08-.41-.41-.05-.33.1-.35.05-.66Z"/>
    <path class="st1" d="M26.64,86.47c-.37-.02-.31.32-.68.3-.37-.03-.56-.36-.92-.39-.36-.03-.38.1-.74.05-.36-.05-.32-.36-.68-.41-.35-.05-.48.17-.83.1-.35-.08-.39.55-.75.46-.36-.11-.21-.77-.54-.87-.34-.09-.47.03-.79-.11-.32-.14,0-.51-.31-.64-.26-.17-.49.2-.78.02-.29-.17-.24-.23-.48-.45-.23-.23-.05-.44-.22-.68-.16-.24-.58,0-.78-.27-.1-.14-.03-.35.02-.49.06-.15.13-.26.13-.26l-1.87.7s.36.48.62.84c.25.36.04.5.31.88.3.35.52.13.83.43.31.29.1.56.48.79.37.24.56-.32.91-.11.35.19.39.4.76.57.37.16.27.3.66.41.39.12.5-.1.88.02.38.1.29.5.68.59.39.08.47-.33.85-.28.38.06.36.2.75.26.39.06.36.24.75.28.39.04.4-.47.78-.44.38.03.39.43.78.46.38.02.39-.17.77-.16.38,0,.46.35.75.36l.04-2c-.28,0-.25.26-.62.25-.37,0-.36-.17-.73-.19Z"/>
    <path class="st1" d="M38.75,86.61c-.38,0-.3.34-.68.33-.38,0-.59-.31-.97-.32-.38,0-.38.13-.76.13-.38,0-.38-.31-.75-.31-.37,0-.47.26-.85.25-.38,0-.28.61-.66.61-.38,0-.4-.67-.78-.67-.38,0-.47.18-.86.17-.38,0-.24-.47-.63-.48-.38,0-.39.43-.77.43-.38,0-.38-.06-.76-.06-.38,0-.4-.32-.77-.33-.37,0-.43.48-.8.48-.38,0-.71-.44-.73-.44l-.04,2s.5-.19.88-.19c.38,0,.38.25.76.25.38,0,.38-.28.76-.28.38,0,.37.33.74.33.37,0,.26-.57.64-.57.37,0,.48.21.85.22.37,0,.32.16.7.16.38,0,.43-.24.81-.23.38,0,.37.43.75.43.38,0,.38-.43.76-.43.38,0,.37.15.75.15.38,0,.37.19.75.2.38,0,.35-.51.73-.5.38,0,.41.41.78.41.38,0,.38-.19.76-.19.38,0,.46.34.75.34l.02-2c-.28,0-.25.26-.62.26-.38,0-.37-.16-.75-.16Z"/>
    <path class="st1" d="M50.87,86.66c-.38,0-.3.34-.68.34-.38,0-.6-.31-.98-.31-.38,0-.38.14-.76.14-.38,0-.39-.31-.77-.31-.38,0-.47.26-.85.27-.38,0-.26.61-.63.62-.38,0-.44-.66-.81-.67-.37,0-.46.18-.84.18-.38,0-.24-.47-.62-.47-.37,0-.38.43-.76.43-.38,0-.38-.06-.75-.06-.38,0-.39-.33-.77-.33-.38,0-.43.48-.81.47-.38,0-.72-.44-.74-.44l-.02,2s.49-.2.87-.2c.38,0,.37.25.75.26.38,0,.38-.27.76-.27.38,0,.37.34.75.34.38,0,.26-.57.64-.57.38,0,.5.2.87.21.38,0,.33.16.71.16.38,0,.42-.24.79-.24.38,0,.39.42.76.42.37,0,.36-.44.74-.44.37,0,.38.14.75.14.37,0,.37.19.75.19.37,0,.34-.51.72-.51.38,0,.41.41.78.41.37,0,.38-.19.75-.19.38,0,.46.34.75.34l.02-2c-.28,0-.25.26-.63.26-.38,0-.37-.16-.75-.16Z"/>
    <path class="st1" d="M63.02,86.89c-.38,0-.3.33-.68.33-.38,0-.59-.32-.97-.33-.38,0-.38.13-.76.12-.38,0-.38-.32-.76-.32-.38,0-.47.25-.85.24-.38,0-.27.61-.65.6-.38,0-.42-.68-.79-.68-.38,0-.47.18-.85.17-.38,0-.23-.47-.61-.48-.38,0-.39.43-.77.42-.38,0-.38-.06-.75-.07-.38,0-.39-.33-.77-.34-.38,0-.44.48-.82.47-.38,0-.72-.44-.75-.44l-.02,2s.49-.2.86-.19c.38,0,.37.26.74.26.38,0,.38-.27.76-.26.38,0,.36.34.74.35.37,0,.27-.57.65-.56.37,0,.49.21.86.22.37,0,.33.16.7.17.38,0,.42-.23.8-.22.38,0,.38.44.75.44.38,0,.38-.43.75-.42.38,0,.37.15.75.16.38,0,.37.2.75.2.38,0,.35-.5.73-.49.38,0,.41.41.78.42.38,0,.38-.19.76-.18.38,0,.46.34.75.35l.03-2c-.28,0-.25.26-.63.25-.38,0-.37-.16-.75-.17Z"/>
    <path class="st1" d="M75.13,86.95c-.37,0-.29.34-.66.34-.38,0-.59-.31-.98-.32-.39,0-.39.13-.76.14-.38,0-.39-.31-.76-.3-.38,0-.46.26-.84.26-.38,0-.26.61-.64.61-.38,0-.43-.67-.8-.67-.38,0-.47.19-.84.18-.38,0-.24-.46-.61-.47-.38,0-.39.43-.76.43-.38,0-.38-.06-.75-.06-.38,0-.39-.33-.77-.33-.38,0-.43.48-.81.47-.38,0-.72-.44-.74-.44l-.03,2s.49-.2.87-.19c.38,0,.37.25.75.26.38,0,.38-.27.76-.27.38,0,.37.34.74.34.38,0,.27-.57.64-.57.38,0,.49.2.87.2.38,0,.33.15.71.15.38,0,.42-.24.8-.24.38,0,.39.43.76.43.38,0,.37-.44.74-.44.38,0,.38.14.75.14.38,0,.37.19.74.19.37,0,.34-.51.72-.5.38,0,.41.41.8.41.39,0,.38-.2.77-.21.39-.02.5.32.81.29l-.17-1.99c-.26.02-.21.28-.57.3-.37,0-.36-.14-.73-.14Z"/>
    <path class="st1" d="M81.97,80.33c-.04.36.3.32.26.69-.06.36-.4.52-.47.86-.08.34.06.38-.04.72-.1.34-.39.26-.5.57-.11.31.09.48-.05.8-.15.3.45.49.26.81-.19.32-.78,0-.97.25-.2.26-.11.43-.35.68-.24.23-.46-.19-.69,0-.22.18,0,.53-.28.71-.29.15-.31.11-.62.23-.32.11-.43-.19-.74-.11-.31.08-.26.55-.61.62-.36.05-.72-.35-.74-.35l.17,1.99s.5-.25.9-.32c.4-.08.45.18.87.07.42-.12.34-.38.73-.53.39-.16.53.14.93-.07.39-.24-.03-.65.3-.89.33-.25.56-.19.86-.49.28-.31.37-.17.63-.51.25-.35.08-.52.29-.87.21-.35.58-.17.77-.55.17-.39-.24-.55-.1-.92.13-.38.27-.33.38-.72.11-.39.28-.34.38-.74.08-.4-.42-.45-.36-.83.06-.38.47-.36.52-.75.04-.39-.15-.41-.12-.79.03-.38.37-.44.39-.73l-1.99-.15c-.02.28.24.26.22.64-.03.37-.18.35-.22.71Z"/>
    <path class="st1" d="M82.63,68.28c0,.38.33.3.32.68-.01.38-.33.59-.34.96-.01.38.12.38.11.76-.01.38-.32.37-.33.75-.01.37.24.48.22.85-.02.38.6.29.58.66-.02.38-.69.4-.71.77-.02.37.17.48.14.85-.02.38-.48.21-.5.59-.02.37.41.41.39.78-.02.38-.08.37-.1.75-.02.37-.35.37-.38.75-.03.37.45.46.42.84-.03.37-.48.69-.48.71l1.99.15s-.17-.5-.14-.88c.03-.38.28-.36.3-.73.03-.38-.25-.4-.23-.77.02-.38.35-.35.38-.73.02-.38-.56-.3-.54-.67.02-.37.23-.48.25-.86.02-.38.17-.32.19-.7.02-.38-.22-.43-.2-.81.02-.38.44-.37.46-.74.02-.38-.42-.39-.4-.76.01-.38.16-.37.17-.75.01-.38.2-.37.22-.75.01-.38-.5-.36-.48-.73.01-.38.42-.4.43-.78,0-.38-.19-.38-.18-.76,0-.38.35-.46.35-.75l-2-.04c0,.28.26.25.25.63,0,.38-.16.37-.17.75Z"/>
    <path class="st1" d="M82.58,56.2c.01.38.35.28.36.66.01.38-.29.61-.28.98.01.38.15.37.16.75.01.38-.3.39-.29.77,0,.37.27.46.27.84,0,.38.62.25.62.63,0,.38-.66.44-.66.81,0,.37.19.46.19.84,0,.38-.46.24-.46.62,0,.37.44.38.44.76,0,.38-.06.38-.06.75,0,.38-.33.39-.33.77,0,.37.48.43.47.81,0,.38-.44.72-.44.74l2,.04s-.19-.49-.19-.87c0-.38.25-.37.26-.75,0-.38-.27-.38-.27-.76,0-.38.34-.37.34-.75,0-.38-.58-.27-.58-.64,0-.38.2-.5.2-.87,0-.38.15-.33.15-.71,0-.38-.25-.42-.25-.8,0-.38.42-.39.42-.77,0-.38-.44-.36-.45-.74,0-.38.14-.38.13-.76-.01-.38.18-.38.17-.76-.01-.38-.52-.33-.53-.7-.01-.38.4-.43.39-.8-.01-.38-.21-.37-.22-.75-.02-.38.32-.48.31-.77l-2,.08c.01.28.27.23.29.61.02.38-.14.38-.12.75Z"/>
    <path class="st1" d="M81.78,44.15c.04.37.37.26.4.63.04.37-.25.62-.22,1,.03.37.17.36.2.74.03.37-.28.41-.25.78.03.37.3.44.33.82.03.37.63.21.66.59.03.37-.64.48-.61.85.02.37.22.45.24.83.03.37-.45.27-.42.64.03.37.46.35.48.73.02.38-.03.38-.01.75.02.37-.3.41-.28.79.02.37.51.4.52.78.02.38-.4.74-.4.77l2-.08s-.23-.48-.24-.86c-.02-.38.23-.39.21-.76-.02-.38-.3-.37-.32-.74-.02-.38.31-.39.29-.77-.02-.38-.59-.23-.61-.61-.03-.37.17-.51.14-.88-.03-.38.13-.34.11-.72-.03-.38-.27-.4-.3-.78-.03-.38.39-.42.36-.79-.03-.38-.47-.33-.5-.71-.03-.38.11-.39.08-.76-.03-.38.15-.39.12-.77-.04-.38-.54-.29-.57-.67-.04-.38.37-.45.33-.83-.03-.38-.23-.36-.27-.73-.04-.37.29-.5.25-.79l-1.99.21c.03.28.29.21.33.59.04.37-.11.39-.08.76Z"/>
    <path class="st1" d="M78.5,33.91c.28.16.39-.16.69.02.29.2.25.57.49.77.22.22.32.13.53.38.19.26-.06.43.09.68.13.26.4.22.52.53.1.31.66.04.76.39.09.36-.56.55-.5.89.06.35.25.41.3.78.05.37-.43.29-.38.67.05.37.48.32.52.7.05.37,0,.38.04.75.05.37-.28.43-.23.8.05.37.53.37.57.74.04.37-.35.77-.35.79l1.99-.21s-.26-.46-.3-.84c-.04-.38.21-.4.16-.78-.05-.38-.32-.35-.37-.72-.05-.37.29-.41.24-.78-.05-.37-.6-.19-.65-.56-.05-.37.14-.52.08-.89-.05-.38.1-.36.04-.75-.07-.4-.32-.39-.41-.78-.11-.39.3-.52.15-.95-.17-.42-.57-.23-.76-.6-.21-.37-.1-.45-.36-.8-.28-.34-.14-.46-.46-.78-.33-.29-.62.12-.94-.11-.32-.23-.15-.58-.51-.81-.37-.2-.46-.01-.83-.19-.37-.16-.34-.49-.64-.61l-.65,1.89c.24.09.3-.17.63-.05.31.14.24.29.54.43Z"/>
    <path class="st1" d="M66.99,32.48c.38,0,.3-.34.67-.34.38,0,.6.31.97.31.38,0,.38-.13.75-.13.37,0,.38.31.75.32.37,0,.47-.25.84-.24.37.01.28-.61.65-.59.38.02.39.69.76.71.37.03.47-.15.84-.12.37.04.19.49.55.52.36.04.42-.39.78-.34.36.05.36.1.71.17.36.07.32.38.66.46.34.08.51-.39.86-.28.35.1.53.6.54.62l.65-1.89s-.57.04-.95-.07c-.38-.1-.32-.33-.71-.43-.39-.09-.45.2-.83.12-.38-.07-.33-.39-.72-.45-.39-.05-.35.53-.72.49-.38-.04-.48-.26-.86-.29-.38-.03-.33-.18-.71-.21-.38-.02-.44.22-.82.2-.38-.02-.37-.44-.76-.45-.38-.01-.38.43-.76.42-.38,0-.38-.15-.76-.15-.38,0-.38-.19-.76-.19-.38,0-.34.51-.72.51-.38,0-.42-.41-.79-.4-.37,0-.37.2-.75.19-.37,0-.46-.34-.74-.34l-.02,2c.28,0,.25-.26.63-.26.38,0,.38.16.76.16Z"/>
    <path class="st1" d="M54.84,32.16c.37,0,.3-.34.67-.33.38,0,.59.32.96.33.38,0,.38-.13.75-.11.38.01.37.32.75.33.37.01.47-.24.85-.23.38.01.28-.6.66-.59.38.01.4.68.78.7.38.01.47-.17.85-.15.38.01.22.47.6.49.38.01.4-.42.78-.41.38.01.38.07.75.08.38.01.39.34.77.35.38,0,.44-.47.82-.47.38,0,.73.44.75.44l.02-2s-.49.2-.86.2c-.37,0-.37-.26-.74-.26-.37,0-.38.27-.76.26-.37-.01-.36-.34-.73-.35-.37-.01-.28.57-.65.55-.37-.01-.49-.22-.86-.23-.37-.01-.33-.17-.7-.18-.38-.01-.43.23-.8.21-.38-.01-.37-.44-.75-.45-.38-.01-.38.42-.76.41-.38-.01-.37-.16-.75-.17-.38-.01-.37-.2-.75-.21-.38,0-.35.5-.73.49-.38,0-.41-.42-.79-.42-.38,0-.38.19-.76.19-.38,0-.47-.34-.76-.34v2c.28,0,.25-.26.62-.26.38,0,.37.16.75.16Z"/>
  </g>
  <g>
    <path class="st1" d="M47.69,76.61c-.42,0-.32.34-.74.35-.42,0-.66-.3-1.08-.3-.42,0-.42.14-.83.14-.42,0-.43-.3-.85-.3-.42,0-.51.26-.93.27-.42,0-.28.61-.7.62-.42,0-.48-.66-.9-.66-.22,0-.33.05-.4.09-.09.04-.19.08-.34.04-.29-.1-.01-.49-.18-.58-.15-.11-.46.2-.64-.03-.14-.25-.09-.27-.17-.55-.03-.15.04-.24.12-.31.04-.03.07-.07.11-.1.03-.06.05-.15.05-.25,0-.42-.48-.49-.48-.91,0-.21.11-.41.21-.56.11-.16.21-.16.21-.18l-2-.19s.05.28.1.43c.05.18.1.41.1.61,0,.41-.25.4-.25.81,0,.18.06.39.15.51.08.14.16.26.22.52.16.51-.16.65.17,1.19.4.5.7-.03,1.08.3.42.28.51.53,1.04.66.51.08.53.2.93.21.41,0,.46-.25.87-.25.41,0,.43.42.84.42.41,0,.4-.44.82-.44.41,0,.42.14.83.14.41,0,.42.19.83.18.41,0,.37-.51.79-.52.42,0,.46.4.87.4.41,0,.41-.2.83-.2.41,0,.52.33.83.33v-2c-.32,0-.28.27-.69.27-.42,0-.41-.15-.83-.15Z"/>
    <path class="st1" d="M60.31,76.2c-.18.13.07.39-.21.5-.3.09-.5-.2-.86-.17-.34.01-.37.13-.78.14-.42,0-.42-.3-.84-.3-.42,0-.52.26-.93.27-.42,0-.29.61-.71.62-.42,0-.47-.66-.89-.66-.42,0-.52.19-.93.19-.42,0-.27-.46-.68-.46-.42,0-.43.44-.84.44-.42,0-.42-.05-.83-.05-.42,0-.44-.32-.86-.32-.42,0-.47.49-.89.49-.42,0-.8-.42-.83-.42v2s.54-.21.96-.22c.41,0,.41.25.83.24.42,0,.42-.28.83-.28.41,0,.41.33.82.32.41,0,.29-.58.7-.58.41,0,.54.19.96.19.41,0,.36.15.78.15.41,0,.46-.25.88-.25.41,0,.42.42.84.42.41,0,.41-.44.82-.44.41,0,.41.14.83.14.42-.01.39.2.89.18.5-.04.38-.53.87-.64.47-.14.74.21,1.24-.12.44-.38.3-.51.51-1,.13-.49.44-.63.49-1.02l-1.99-.2c-.02.24.24.2.21.49-.06.26-.21.17-.37.33Z"/>
    <path class="st1" d="M52.9,72.13c.42,0,.33-.33.75-.33.42,0,.65.32,1.07.33.42,0,.42-.13.84-.12.42,0,.42.31.84.32.42,0,.52-.25.94-.24.42,0,.3-.61.71-.6.42,0,.46.68.88.68.41,0,.56-.18.82-.17.28.05.03.48.19.56.14.1.44-.22.61,0,.16.26.12.29.23.59.09.31-.23.39-.22.61,0,.06.02.1.07.14.04.07.09.14.15.2.11.13.22.26.2.47-.04.41-.51.76-.51.78l1.99.2s-.15-.55-.11-.96c.03-.43.31-.31.31-.94-.05-.6-.33-.54-.48-1.03-.19-.48.12-.61-.21-1.12-.41-.51-.69.04-1.08-.29-.42-.28-.53-.53-1.1-.59-.3,0-.36-.05-.46-.09-.09-.04-.18-.08-.39-.08-.42,0-.47.23-.88.23-.42,0-.42-.43-.83-.44-.41,0-.41.43-.83.42-.41,0-.41-.15-.83-.16-.42,0-.41-.2-.83-.2-.42,0-.38.5-.8.49-.42,0-.45-.42-.86-.42-.42,0-.42.19-.83.18-.41,0-.51-.35-.82-.35l-.04,2c.31,0,.28-.26.69-.25.42,0,.41.16.83.17Z"/>
    <path class="st1" d="M40.45,72.5c.19-.19-.09-.41.19-.6.29-.17.58.06.84,0,.22-.03.27-.14.68-.14.42,0,.42.31.84.32.42,0,.52-.25.94-.24.42,0,.3-.61.71-.6.42,0,.46.68.88.68.42,0,.52-.18.93-.17.42,0,.26.47.67.48.42,0,.43-.43.85-.42.42,0,.42.06.83.07.42,0,.43.33.85.34.42,0,.48-.47.9-.47.42,0,.8.44.82.44l.04-2s-.54.2-.96.19c-.42,0-.41-.26-.82-.26-.42,0-.42.27-.84.26-.41,0-.4-.34-.82-.35-.41,0-.3.57-.71.56-.41,0-.54-.21-.96-.22-.41,0-.36-.16-.78-.17-.42,0-.47.23-.88.23-.42,0-.42-.43-.83-.44-.41,0-.41.43-.83.42-.41,0-.41-.15-.83-.16-.21,0-.31-.05-.41-.1-.12-.05-.31-.1-.59-.05-.56.12-.35.59-.79.78-.41.23-.71-.07-1.12.31-.37.41-.21.54-.46.99-.2.45-.56.5-.64.98l2,.19c.03-.15-.25-.18-.14-.47.13-.27.26-.19.43-.4Z"/>
  </g>
  <g>
    <path class="st1" d="M13.85,50.38c.09-.12.13-.26.16-.41.05-.15.09-.32.09-.5,0-.18-.04-.36-.18-.49-.15-.14-.32-.27-.53-.3-.2-.03-.42,0-.61.08l.71,1.87c.15-.06.28-.14.36-.25Z"/>
    <path class="st1" d="M8.32,57.83c.02-.34-.33-.28-.31-.64.05-.35.36-.52.43-.85.06-.33-.08-.36.01-.69.09-.33.38-.25.49-.56.1-.31-.11-.48.04-.78.15-.3-.46-.49-.27-.81.2-.31.76-.02.96-.27.21-.26.08-.46.32-.7.23-.25.49.16.7-.07.22-.21-.06-.54.21-.75.27-.2.31-.16.59-.35.29-.18.48.09.77-.08.3-.16.12-.61.44-.76.16-.08.36-.04.51,0,.16.05.27.13.28.12l-.71-1.87s-.42.39-.77.56c-.35.17-.47-.05-.82.15-.35.2-.21.44-.55.65-.33.22-.52-.05-.85.2-.33.27.13.63-.16.89-.27.28-.5.24-.78.53-.25.31-.34.19-.59.52-.25.33-.04.52-.26.86-.21.34-.57.17-.75.55-.18.38.25.54.11.91-.14.37-.26.33-.37.72-.11.39-.28.35-.35.75-.08.4.44.43.4.82-.05.38-.44.39-.47.79-.01.4.19.4.19.79.02.39-.32.5-.29.81l1.99-.17c-.03-.25-.28-.2-.3-.55-.01-.35.15-.35.15-.69Z"/>
    <path class="st1" d="M13.11,67.17c-.28-.17-.4.16-.69-.04-.29-.2-.28-.58-.53-.79-.26-.22-.35-.12-.59-.36-.25-.24-.02-.46-.25-.71-.22-.25-.47-.15-.68-.43-.2-.28-.64.16-.85-.14-.2-.31.35-.7.18-1-.16-.3-.37-.29-.52-.61-.14-.32.32-.39.2-.7-.12-.31-.55-.16-.65-.5-.1-.34-.07-.35-.16-.69-.09-.34.22-.44.14-.77-.07-.32-.55-.29-.6-.64-.05-.36.35-.72.35-.74l-1.99.17s.25.49.31.88c.06.39-.18.43-.1.83.1.39.37.32.47.7.1.38-.2.47-.08.85.12.38.64.07.77.43.14.36.02.55.18.9.17.35.02.38.21.73.2.35.43.26.64.59.22.32-.13.58.12.91.25.33.59.04.84.34.27.29.15.39.44.67.29.28.16.42.47.68.32.26.6-.16.91.06.31.22.12.58.47.8.36.21.45.04.82.22.38.16.37.51.7.61l.54-1.92c-.21-.06-.26.2-.56.08-.3-.13-.22-.27-.5-.42Z"/>
    <path class="st1" d="M14.8,68.13c-.06-.16-.17-.28-.28-.38-.1-.1-.21-.19-.34-.23h0s-.54,1.92-.54,1.92h0c.21.06.44.07.62.02.19-.06.35-.18.46-.32.1-.14.17-.31.18-.49.01-.18-.02-.36-.09-.51Z"/>
  </g>
  <g>
    <path class="st1" d="M85.37,48.64c-.22.06-.43.21-.51.38-.09.16-.09.35-.06.52.03.18.11.32.19.46.09.14.14.3.23.39.09.09.21.14.36.18l.47-1.94c-.22-.05-.46-.06-.68.01Z"/>
    <path class="st1" d="M93.75,56.92c-.08-.42-.4-.26-.48-.66-.09-.39.14-.71,0-1.1-.14-.39-.27-.34-.43-.72-.17-.37.1-.52-.1-.89-.21-.37-.48-.32-.72-.66-.24-.34-.66.12-.9-.18-.24-.3.21-.78-.08-1.09-.3-.3-.5-.23-.82-.49-.32-.26.07-.53-.28-.79-.36-.25-.61.13-.95-.08-.35-.19-.32-.24-.67-.42-.35-.18-.23-.48-.6-.65-.38-.17-.62.25-.99.11-.37-.14-.65-.66-.69-.66l-.47,1.94s.45-.1.78.03c.33.13.23.36.55.5.32.15.44-.1.77.07.32.17.17.46.48.63.28.17.49-.38.79-.19.29.21.27.42.52.65.27.22.12.32.37.55.23.25.44.11.66.39.22.28-.12.54.07.81.17.28.55.04.72.36.17.31.03.38.18.69.14.32-.04.39.08.71.11.32.58.14.68.49.09.36-.32.48-.25.81.07.33.25.31.28.66.03.35-.3.45-.31.7h2c0-.31-.25-.26-.29-.68-.04-.41.14-.43.06-.85Z"/>
    <path class="st1" d="M88.19,68.22c.33-.24.06-.46.37-.7.31-.24.68-.15.99-.41.3-.26.21-.36.5-.63.14-.14.27-.15.4-.16.14-.03.28-.06.42-.22.28-.32.14-.56.39-.88.24-.33-.32-.58-.1-.9.22-.31.81,0,1.02-.35.21-.35.08-.53.28-.88.17-.36.53-.03.7-.41.17-.39-.25-.56-.1-.93.13-.38.17-.37.3-.76.11-.39.41-.35.51-.76.08-.42-.41-.55-.36-.95.05-.39.46-.78.47-.81h-2s.22.43.16.78c-.05.34-.27.31-.35.64-.08.33.21.4.11.74-.11.34-.41.23-.52.55-.12.32.45.43.32.77-.16.33-.37.35-.54.66-.17.31-.27.21-.46.51-.18.3,0,.47-.21.77-.2.3-.56.05-.77.33-.22.27.13.54-.11.81-.24.26-.32.13-.6.39-.27.25-.4.11-.67.35-.28.23.08.6-.21.84-.29.23-.57-.07-.85.14-.29.2-.18.37-.48.56-.3.18-.54-.07-.74.03l.86,1.8c.3-.15.14-.36.5-.57.35-.22.43-.09.77-.32Z"/>
    <path class="st1" d="M85.71,68.99c.14.14.37.2.58.22.21.02.43,0,.63-.1h0s-.86-1.8-.86-1.8h0c-.13.06-.25.15-.31.26-.08.12-.12.27-.16.42-.04.15-.08.33-.07.51,0,.18.06.36.2.49Z"/>
  </g>
  <path class="st1" d="M34.3,42.52c3.88-.49,7.76-.7,11.67-.67,4.21.04,8.45.27,12.66.09,4.46-.2,10.35.42,12.98,4.54.94,1.47,1.46,3.2,1.54,4.94.07,1.52-.09,3.06.1,4.57.45,3.59-1.3,8.13-5.2,8.96-1.33.28-2.81.05-4.16.05-2.96,0-5.91-.01-8.87-.02-5.75-.01-11.5-.02-17.25-.03-1.88,0-3.17.27-4.92-.05-2.34-.43-4.42-1.94-5.57-4.02-.84-1.51-1.09-3.09-1.14-4.79-.06-1.95-.36-4.05-.09-5.99.3-2.11,1.27-4.12,2.84-5.58,1.48-1.38,3.48-1.73,5.42-2,.35-.05,1.67-.35,1.69-.84.02-.54-.83-.41-1.18-.36-4.05.55-8.01,1.82-10.26,5.45-1.08,1.75-1.57,3.85-1.48,5.89.08,1.91.02,3.87.26,5.77.57,4.38,4.22,7.54,8.56,7.84.77.05,1.51-.02,2.28-.06,1.27-.07,2.58.01,3.86.01,3.29,0,6.57.01,9.86.02,5.69.01,11.39,0,17.08.11,4.46.08,9.28-2.2,10.76-6.65.51-1.52.57-3.11.4-4.69-.19-1.7.07-3.43-.13-5.13-.27-2.22-1.27-4.34-2.87-5.91-1.8-1.78-4.3-2.4-6.71-2.85-2.6-.49-5.1-.45-7.72-.4-3.03.05-6.06-.06-9.09-.11-4.96-.08-9.86.09-14.79.72-.35.04-1.67.35-1.69.84-.02.54.83.4,1.18.36Z"/>
  <g>
    <path class="st1" d="M49.96,22c-.09-.1-.22-.19-.37-.25-.15-.06-.32-.08-.5-.08s-.35.04-.49.09c-.15.06-.31.13-.4.23-.08.1-.11.22-.11.34h2c0-.12-.04-.24-.12-.34Z"/>
    <path class="st1" d="M49.97,29.38c0-.25-.34-.19-.34-.44s.31-.39.31-.64-.13-.25-.13-.49.31-.25.31-.5-.26-.31-.26-.55-.61-.17-.61-.42.67-.28.67-.53-.19-.31-.19-.55.46-.16.46-.4-.44-.25-.44-.5.05-.25.05-.49.33-.26.33-.51-.48-.28-.48-.53.43-.48.43-.49h-2s.21.32.21.56-.25.24-.25.49.28.25.28.49-.33.24-.33.49.57.17.57.42-.2.32-.2.57-.15.22-.15.46.24.27.24.52-.43.25-.43.5.44.24.44.49-.14.25-.14.49-.19.25-.19.49.51.22.51.47-.41.27-.41.52.19.25.19.49-.34.31-.34.49h2c0-.18-.26-.16-.26-.41s.15-.24.15-.49Z"/>
    <path class="st1" d="M49.59,30.86c.15-.06.26-.15.34-.25.08-.1.15-.2.15-.32h0s-2,0-2,0h0c0,.12.04.24.12.33.09.1.23.18.38.24.15.06.32.09.5.09s.36-.03.5-.09Z"/>
  </g>
  <g>
    <path class="st1" d="M47.6,23.06c.39.09.38-.24.74-.18.36.07.56.38.95.4.39-.02.38-.14.76-.19.37-.06.45.25.84.15.39-.1.39-.4.75-.53.35-.17-.02-.66.28-.82.29-.17.71.36,1.02.12.31-.24.25-.45.52-.71.25-.28.52.14.77-.18.25-.33-.11-.58.09-.9.2-.32.22-.31.4-.65.13-.36.46-.26.57-.66.11-.4-.36-.54-.31-.91.05-.36.47-.71.48-.74h-2s.21.36.15.65c-.04.28-.29.23-.36.48-.07.25.18.34.08.61-.13.25-.4.11-.55.33-.13.22.39.48.21.72-.18.25-.4.17-.6.38-.22.19-.28.07-.5.23-.22.17-.12.38-.37.54-.26.14-.45-.24-.69-.14-.25.08-.1.52-.39.58-.28.08-.31-.08-.59-.03-.28.03-.3-.17-.57-.15-.27-.02-.27.51-.58.47-.31-.05-.26-.45-.52-.52-.27-.06-.32.1-.6,0-.27-.13-.18-.45-.35-.55l-1,1.73c.26.16.35-.11.7.06.35.15.3.29.67.41Z"/>
    <path class="st1" d="M45.14,12.89c-.29.27.03.46-.22.73-.22.29-.61.29-.81.63-.2.34-.06.41-.23.75-.12.36-.44.26-.54.65-.11.39.14.54.09.91-.04.39.59.31.57.65.02.34-.67.43-.61.82.05.39.26.44.35.8.1.36-.37.37-.23.76.16.38.56.19.74.52.2.32.14.36.37.66.22.31,0,.52.28.82.3.28.65-.03.94.18.28.23.37.76.4.78l1-1.73s-.41,0-.64-.18c-.22-.18-.05-.37-.24-.55-.17-.2-.4-.01-.57-.24-.18-.23.12-.42-.02-.63-.12-.23-.59.1-.73-.17-.1-.29.04-.43-.02-.71-.08-.28.1-.28.05-.55-.03-.27-.27-.29-.28-.59.02-.3.42-.27.47-.53.04-.26-.39-.34-.32-.63.07-.29.23-.23.32-.5.13-.25.28-.18.42-.41.14-.23-.3-.49-.12-.74.18-.25.53.01.71-.2.21-.18.07-.35.3-.52.23-.18.48.07.65-.03l-1-1.73c-.25.16-.09.34-.4.57-.31.23-.4.11-.69.38Z"/>
    <path class="st1" d="M55.18,15.84c-.1-.38-.39-.21-.52-.55-.12-.34.05-.67-.14-1.02-.2-.34-.31-.27-.54-.57-.22-.31-.02-.5-.29-.8-.3-.27-.53-.15-.84-.38-.31-.23-.56.35-.85.17-.29-.17-.05-.78-.4-.95-.37-.13-.51,0-.87-.09-.36-.09-.14-.51-.54-.58-.41-.06-.45.4-.82.37-.38.01-.38-.05-.76-.01-.37.06-.46-.27-.85-.17-.4.1-.29.59-.63.72-.33.15-.85-.06-.88-.04l1,1.73s.21-.35.48-.46c.27-.1.34.13.6.07.25-.07.21-.32.49-.37.29-.02.3.31.56.3.26.02.22-.57.52-.54.3.04.35.25.63.33.28.07.19.23.45.31.24.12.39-.1.64.06.26.15.02.51.23.67.21.16.48-.16.7.04.19.22.1.3.27.53.18.23,0,.34.15.57.13.23.57-.01.7.27.1.29-.25.44-.19.71.07.27.26.23.3.52.04.29-.31.38-.3.58h2c-.01-.3-.27-.25-.3-.63-.06-.38.11-.4.02-.79Z"/>
  </g>
</svg>