<svg xmlns="http://www.w3.org/2000/svg" id="_レイヤー_1" viewBox="0 0 100 100"><defs><style>.st0{fill:#ceb372}.st1{fill:#292524}.st2{fill:#1c1917}.st3{fill:#fff}</style></defs><path d="M34.86 34.72c-1.71 3.88-4.7 12.25-3.01 22.57.52 3.18 1.84 10.57 7.69 17.22 2.78 3.16 7.58 8.61 14.52 8.45 5.66-.12 9.16-3.68 10.15-4.63 2.96-2.83 3.95-4.82 5.81-10.4 2.37-7.15 3.1-13.8 3.41-19.3.25-4.61.03-7.15-.78-9.82-.84-2.76-2.08-4.87-3.02-6.24" class="st3"/><path d="M84.88 56.49c.42-.96 1.17-1.14 1.55-1.66.89-1.21-.6-3.76-.84-4.17-3.7-6.31-7.49-10.8-10.85-13.97.46.22.95.34 1.44.33h.05c.89-.04 1.64-.56 1.86-.86.52-.7.01-2.61-1.91-3.97 1.27.51 2.54.24 3.09-.54.47-.66.28-1.49.23-1.71-.16-.69-.59-1.19-1.04-1.55.83.18 1.67.01 2.26-.48 1.05-.89 1.06-2.63.37-3.53-1.37-1.79-6.02-.95-6.02-.95 1.64-.35 2.82-1.54 2.98-2.91.17-1.41-.83-2.43-.97-2.57-.9-.9-2.34-1.21-3.84-.88 1.32-.68 2.09-1.69 2.05-2.65-.04-1.24-1.43-2.05-1.64-2.17-2.14-1.2-5.48-.13-8.6 2.46.13-3.16-2.11-5.53-4.38-5.57-1.54-.03-3.04 1-3.92 2.54-.6-3.75-3.76-6.22-6.63-6.01-3.38.25-6.52 4.25-5.39 8.74-.71-.79-5.46-5.98-10.67-4.94-.76.15-2.68.54-3.49 2.11-.77 1.49-.31 3.6 1.18 5.41-1.6-1.72-3.82-2.34-5.51-1.62-1.14.49-1.76 1.46-2.03 1.98-.11.47-.19 1.18.03 1.96.61 2.09 2.91 2.81 3.46 2.96-.99-.25-3.27-.65-5.65.43-1.9.86-4.09 2.75-3.72 3.81.52 1.49 5.89.83 7.46.61-1.77.83-2.94 2.51-3.03 4.35-.01.23-.1 2.72 1.86 4.06 1.62 1.11 3.94.97 5.67-.42-.89.61-1.39 1.53-1.29 2.43.12 1.08 1.07 1.67 1.17 1.73.73.44 1.61.44 2.47.24-3.76 3.08-7.68 7.03-11.63 12.09-1.15 1.48-4.7 6.01-3.29 8.52.35.63 1.22 1.49 2.27 1.57.18.01.36 0 .53-.02-1.81 1.21-4.03 3.02-3.73 4.34.27 1.17 2.5 1.94 4.29 1.75.36-.04.69-.12.99-.22-1.11.89-1.58 2.25-1.26 3.25.47 1.48 2.8 2.58 4.96 1.47.87-.45-2.18 2.04-1.96 3.22.19 1 2.22 1.51 4.49 1.79a4.31 4.31 0 0 0-3.34 3.99c-.09 1.99 1.21 3.72 2.88 4.26 2.2.7 4.91-.72 5.7-3.43-.2 2.07.9 4.02 2.67 4.83 1.83.84 4.1.33 5.51-1.25-.73 1.28-.42 2.9.61 3.66 1.05.78 2.78.61 3.82-.6-.67 1.97.46 4.11 2.39 4.68 1.85.54 3.88-.53 4.48-2.43.07 3.07.98 5.54 2.18 5.77 1.34.25 3.48-2.18 4.51-6.33.32 1.63 1.14 3.01 2.16 3.19 1.35.24 3.39-1.57 3.81-4.82.83 1.57 2.15 2.71 3.31 2.59 1.57-.17 3.27-2.7 2.63-6.18 2.18 1.26 3.09.75 3.27.63 1.26-.8 1.15-3.95-.65-7.84 2 .52 4.11-.29 5.22-1.98 1.18-1.8.98-4.23-.52-5.86.21.02 2.13.16 2.61-.73.4-.75-.22-2.22-1.87-3.46 1.22.53 2.65.17 3.31-.79.75-1.09.45-2.87-.92-3.78 2.34.11 3.05-.29 3.22-.72.25-.64-.7-1.35-.66-3.01 0-.31.03-.72.23-1.19Z" class="st3"/><path d="M26.69 36.03s-12.76 8.04-14.14 9.31-2.26 7.48-2.26 7.48.45 2.45 2.08 3.08 7.03-.7 8.53-1.55 10.78-7.9 10.78-7.9l1.4-6.73s-.26.26-1.63-.11-2.49-1.12-2.44-2.08.45-2.01.45-2.01-1.32.98-1.82.88-.95-.39-.95-.39ZM78.11 33.38s5.25 2.66 6.64 3.95 5.74 7.07 5.93 8.75.51 2.67-.13 3.37-2.13.93-3.44.78-12.26-2.05-12.26-2.05l-1.53-.6-.45-7.8-.49-2.25.2-2.64s1.36 1.39 2.16 1.81 2.85.5 3.35-.54.02-2.77.02-2.77Z" class="st0"/><path d="M44.33 9.61a8.08 8.08 0 0 0-.39 5l1.53-.54C42.59 10.85 38.42 8.16 33.94 9c-.27.05-.76.33-.67.67.1.37.66.3.92.25 2.28-.43 4.6.6 6.45 1.85 1.24.84 2.37 1.84 3.37 2.96.35.39 1.68.09 1.53-.54-.36-1.5-.29-3.05.3-4.48.32-.78-1.27-.65-1.5-.1ZM78.41 18.44c-1.52-2.48-4.72-2.32-7.06-1.19-.84.4-.32 1.06.45.85 1.57-.42 3.46-1.26 4.11-2.9.53-1.34-.34-2.54-1.45-3.25-3.18-2.02-7.44.46-9.92 2.47l1.31.21c.02-2.47-1.21-5.04-3.72-5.8s-4.86.74-6.13 2.8l1.55-.17c-.48-2.6-2.13-4.93-4.65-5.9s-5.26-.07-7.13 1.84c-.67.69.88.78 1.3.35 3.61-3.69 8.13.03 8.88 4.13.12.64 1.34.17 1.55-.17 1.04-1.68 2.77-2.71 4.59-1.49 1.5 1.01 2.17 2.81 2.16 4.56 0 .61 1 .46 1.31.21 1.87-1.51 4.98-3.7 7.47-2.33.68.38 1.4 1.05 1.44 1.87.08 1.51-1.7 2.31-2.9 2.63l.45.85c1.82-.88 3.82-.74 4.93 1.07.31.52 1.86-.03 1.47-.66Z" class="st1"/><path d="M29.82 11.52c-1 2.19.03 4.46 1.51 6.15.41.47 1.93-.12 1.47-.66-2.32-2.7-6.72-3.57-9-.28-1.82 2.63 1.06 5.46 3.54 6.03.57.13 1.89-.72.95-.95-2.18-.55-4.51-.44-6.58.49-1.38.62-4.18 2.2-4.22 4-.06 2.7 6.73 1.52 8.2 1.32l-.24-.89c-2.64 1.35-4.27 4.2-3.13 7.1 1.39 3.52 5.78 3.57 8.46 1.57l-1.02-.58c-1.1.84-2.02 2.15-1.39 3.58.41.94 1.32 1.51 2.29 1.69 2.17.38 4.56-.88 6.22-2.18l-1.31-.21c-.33 1.52-.24 3.3.89 4.49 1.01 1.06 2.55 1.16 3.9.82 2.62-.66 4.85-2.44 6-4.89l-1.55.03c-.68 2.86.77 6.41 4.1 6.38 2.85-.03 5.16-2.24 5.7-4.96l-1.6.17c-.17 2.26.4 5.88 3.44 5.52 2.76-.33 4.29-3.69 5.08-6l-1.54.41c1.23 1.93 3.77 4.42 6.23 2.91s2.15-5.42 1.35-7.78l-1.59.43c.82 2.02 2.4 4.16 4.84 3.87 2.83-.34 2.98-3.28 2.18-5.44l-1.59.43c1.17 2.45 3.73 4.44 6.45 2.92 2.45-1.37.54-4.01-1.07-5.23l-1.1.89c1.84.61 4.81.09 4.66-2.4-.1-1.59-1.46-2.68-2.9-3.1-.44-.13-1.77.37-1.1.89 1.34 1.06 3.3 1.26 4.73.24 1.22-.88 1.67-2.7.87-4.02-1.23-2.02-4.83-1.7-6.81-1.35l.03.96c1.76-.45 3.33-1.58 3.66-3.45.12-.69-1.49-.45-1.6.17-.22 1.27-1.07 2.05-2.3 2.36-.74.19-.92 1.13.03.96 1.28-.23 2.72-.33 3.99 0 1 .26 1.68.86 1.77 1.93.06.66-.09 1.34-.62 1.78-.81.67-1.79.16-2.5-.4l-1.1.89c.6.18 1.2.52 1.61.98.31.35.52.75.61 1.21.04.22.07.51.02.73-.32 1.18-1.32.92-2.09.67-.44-.15-1.77.39-1.1.89.76.58 2.61 2.39 1.76 3.52-.54.72-1.74.31-2.33-.05-.9-.56-1.52-1.49-1.96-2.42-.28-.59-1.82-.19-1.59.43.4 1.08 1.11 4.31-.99 3.98-1.43-.23-2.38-2.09-2.85-3.26-.25-.61-1.8-.19-1.59.43.64 1.89 1.05 4.43-.19 6.19s-3.64-1.36-4.32-2.41c-.33-.51-1.39-.03-1.54.41-.24.69-.54 1.37-.88 2.02-.44.85-1.33 2.65-2.43 2.81-1.95.28-2.1-3.46-2.01-4.68.05-.74-1.49-.42-1.6.17-.36 1.82-1.86 4.05-4.01 3.77-2.48-.32-3.06-3.55-2.59-5.51.16-.69-1.35-.39-1.55.03-.77 1.65-1.99 2.95-3.68 3.69-1.19.52-2.55.74-3.45-.42-.83-1.06-.81-2.5-.54-3.75.14-.63-1.06-.4-1.31-.21-.96.74-2.08 1.43-3.26 1.7-2.29.53-3.9-2.04-1.83-3.63.86-.66-.46-.99-1.02-.58-2.38 1.77-5.44.71-6.09-2.2-.46-2.07.54-4.14 2.44-5.11.64-.32.54-1-.24-.89-1.08.15-2.17.27-3.27.31-.8.03-2.76.26-3.35-.45-.91-1.1 2.02-2.85 2.79-3.24 1.65-.83 3.51-.9 5.28-.46l.95-.95c-1.8-.41-3.54-1.88-3.38-3.88.09-1.22 1.23-2.27 2.44-2.35 1.58-.1 3 .96 3.97 2.09l1.47-.66c-1.25-1.43-2.35-3.49-1.48-5.4.35-.76-1.25-.64-1.5-.1ZM12.96 44.69c-1.66 1.57-3.07 3.43-3.42 5.74-.28 1.82-.08 4.13 1.3 5.5 2.79 2.77 7.79-.04 10.47-1.56 2.44-1.39 4.83-2.93 7.09-4.6.87-.64-.46-.99-1.02-.58-2.15 1.59-4.42 3.05-6.74 4.4-1.86 1.08-4.12 2.42-6.34 2.43s-3.14-2.18-3.24-4.12c-.14-2.79 1.24-5 3.21-6.86.27-.25.13-.54-.17-.65-.36-.13-.86.05-1.13.3Z" class="st1"/><path d="M24.67 37.03c-2.36 1.57-4.79 3.01-7.22 4.47-.26.16-.43.51-.12.71.33.21.83.05 1.13-.13 2.43-1.46 4.87-2.9 7.22-4.47.25-.17.43-.51.12-.71s-.85-.07-1.13.13M45.8 81.18c3.87 2.31 8.39 2.95 12.68 1.44 2.84-1 5.2-2.83 7.26-4.99 2.58-2.71 3.85-6.08 5.01-9.57 1.68-5.05 2.69-10.28 3.19-15.58.43-4.59.84-9.41-.5-13.89-.19-.63-1.78-.2-1.59.43 1.08 3.64.95 7.4.69 11.15-.3 4.46-.91 8.91-1.99 13.26-.97 3.9-2.12 8.21-4.33 11.62-1.36 2.1-3.36 4.04-5.47 5.38-4.3 2.74-9.39 2.49-13.7-.09-.51-.31-1.95.41-1.25.83ZM31.84 41.18c-1.61 6.32-1.67 12.87-.23 19.23s4.9 12.27 9.66 17.11c.44.44 1.95-.17 1.47-.66-4.71-4.78-8.05-10.3-9.54-16.88s-1.35-12.72.24-18.97c.17-.66-1.45-.44-1.6.17M23.47 48.68c.77-1.32 1.73-2.59 2.81-3.68.47-.47.99-.95 1.6-1.23.29-.13.47-.2.79-.2.25 0 .57.09.83.22.35.17.82.09 1.13-.13.22-.15.47-.53.12-.71-1.88-.92-3.85-.04-5.29 1.25-.64.58-1.21 1.24-1.75 1.92-.63.79-1.22 1.59-1.73 2.46-.19.33.17.53.46.55.36.03.85-.13 1.05-.46Z" class="st1"/><path d="M73.94 41.63h.46c.31 0 .61.02.92.05.81.07 1.61.21 2.39.44 2.12.64 3.9 2.02 4.78 4.09.26.62 1.84.15 1.59-.43-1.67-3.94-5.98-5.28-9.95-5.15-.31 0-.84.23-.89.58-.05.39.45.43.71.42Z" class="st1"/><path d="M76.57 48.95c2.77.66 5.56 1.28 8.39 1.64 1.91.25 4.55.61 6.12-.8 1.17-1.05.85-2.79.44-4.13-.76-2.45-2.15-4.72-3.84-6.63-1.4-1.59-3.03-2.91-4.83-4.01-.51-.31-1.95.41-1.25.83 3.12 1.9 5.84 4.69 7.48 8.11.52 1.09.98 2.26 1.16 3.46.08.56.1 1.18-.18 1.69-.22.4-.83.58-1.42.63-.92.08-1.86-.03-2.77-.14-2.81-.33-5.59-.97-8.35-1.62-.37-.09-.87.01-1.13.3-.22.25-.19.57.17.65ZM49.3 64.6c.75.9 1.64 2.02 2.55 2.53 1.12.5 2.58.8 3.77.1 1.57-1 2.88-2.35 4.33-3.72.12-.12.32-.12.45 0 .07.07.1.17.09.26-.3 2.24-1.36 4.25-3.01 5.86-1.98 1.88-5.64 1.67-7.49-.38-1.13-1.38-1.49-2.87-1.26-4.51.05-.27.42-.35.58-.14Z" class="st1"/><path d="M54.72 69.32c-.72 1.75-.96 3.72-.61 5.66.06.33-.16.65-.5.71-.3.05-.59-.12-.69-.4-.58-1.23-1.45-7.99 1.03-7.46.66.15 1.03.87.77 1.49" class="st1"/><ellipse cx="38.73" cy="54.18" class="st2" rx="2.87" ry="1.72" transform="rotate(-41.94 38.725 54.178)"/><ellipse cx="53.95" cy="76.13" class="st2" rx="2.53" ry="1.28" transform="rotate(-8.55 53.97 76.14)"/><ellipse cx="65.28" cy="53.59" class="st2" rx="1.72" ry="2.87" transform="rotate(-41.51 65.275 53.587)"/><path d="M72.35 88.35c.26-1.12.25-2.22.07-3.35l-1.42.63c1.44.78 3.69 1.58 4.93.02 1.64-2.06.01-5.87-.89-7.86l-1.27.69c2.26.5 4.74-.17 6.19-2.06 1.54-2 1.33-4.7-.28-6.59l-1.03.83c1.2.09 3.28-.03 3.75-1.41.61-1.78-1.69-3.5-2.94-4.27-.4-.25-1.88.31-1.36.75 1.45 1.22 3.69 1.37 5.16.05 1.56-1.42.98-3.65-.56-4.8l-.92.92c1.21.04 2.84.14 3.85-.68s.1-1.84-.11-2.84c-.24-1.17.07-2.07.96-2.84.37-.32.71-.59.89-1.05.51-1.32-.4-2.93-1-4.05-.32-.6-1.87-.1-1.59.43.49.91 1.35 2.33 1.09 3.44-.21.89-1.39 1.3-1.78 2.19-.48 1.12-.23 2.3.2 3.38.1.24.34.64.17.86-.27.35-1.82.16-2.1.15-.38-.01-1.57.44-.92.92.81.61 1.34 1.64 1.08 2.66-.38 1.49-1.95 1.45-2.96.6l-1.36.75c1.02.63 2.27 1.55 2.59 2.79.27 1.07-.74 1.1-1.56 1.04-.32-.02-1.45.34-1.03.83 2.4 2.82.72 7.96-3.49 7.03-.3-.07-1.52.14-1.27.69.82 1.83 1.72 4.05 1.45 6.1-.04.34-.12.64-.27.95-.05.1-.38.35-.14.25-.64.27-1.72-.43-2.24-.71-.41-.22-1.52 0-1.42.63.17 1.06.16 2.05-.08 3.09-.15.67 1.46.45 1.6-.17ZM16.64 57.75c-.31 2 .68 4.16 2.94 4.31 1.33.09 3.2-.64 3.93-1.83.18-.29-.61-.25-.66-.24-1.02.16-2.05.99-2.88 1.54-1.31.87-2.82 1.91-3.64 3.29-.93 1.57.37 2.63 1.87 3.06 2.05.58 4.22.19 5.96-1.03.69-.49-.7-.39-.92-.32-1.84.6-4.21 2.68-3.06 4.84.51.96 1.6 1.5 2.64 1.65.59.09 1.18.06 1.77-.05.31-.06.6-.14.89-.24.2-.07 1.14-.37.51-.22l-.83-.02c-.14-.13-.19.04-.42.3-.25.28-.52.56-.76.86-.39.48-.96 1.14-.98 1.79-.04 1.81 3.6 2.04 4.79 2.19l.42-.69c-1.71.47-3.25 1.54-3.83 3.28-.63 1.89.14 4.06 1.82 5.14 3.02 1.94 7.11-.29 8.13-3.42l-1.59.34c-.15 2.61 1.53 4.99 4.2 5.35 2.31.32 4.72-.77 6.03-2.68.37-.54-1.21-.23-1.46.05-1.25 1.39-1.44 3.83.43 4.82 1.63.86 3.75.1 4.94-1.13l-1.52.15c-.66 2.31.73 4.7 3.17 5.03 2.21.3 4.5-.92 5.28-3.03l-1.59.34c.07 2.07.51 6.72 3.66 5.82 2.74-.78 3.99-4.3 4.62-6.72l-1.59.34c.47 2.1 1.72 3.98 4.07 3.15 2.14-.76 3.17-3.01 3.49-5.11l-1.59.34c.82 1.44 2 2.8 3.77 2.76.5-.01 1.72-.78.66-.76-1.28.03-2.29-1.46-2.84-2.43-.22-.38-1.52-.09-1.59.34-.21 1.41-.69 2.98-1.82 3.94-1.43 1.22-2.33-1.6-2.57-2.65-.1-.46-1.5-.02-1.59.34-.31 1.21-.72 2.39-1.3 3.49-.32.61-1.05 2.01-1.79 2.26-1.5.51-1.98-4.67-2.01-5.53-.02-.45-1.47.02-1.59.34-.69 1.87-2.59 2.7-4.22 1.32-1.13-.95-1.46-2.43-1.07-3.82.16-.56-1.36-.02-1.52.15-1.14 1.18-2.69.52-3.15-.87-.36-1.06-.02-2.11.71-2.92l-1.46.05c-1.2 1.76-3.25 2.52-5.15 1.28-1.49-.98-2.12-2.7-2.02-4.43.02-.4-1.47-.02-1.59.34-.84 2.58-3.64 4.26-5.83 1.96-1.89-1.98-1.4-5.8 1.47-6.58.27-.07 1.15-.59.42-.69-1.15-.15-4.99-.44-3.98-2.41.45-.87 1.56-1.49 1.89-2.39.02-.07 0-.12-.04-.17-.27-.24-.81-.06-1.11.04-1.22.42-2.43.46-3.4-.52-1.56-1.56-.09-3.85 1.66-4.42l-.92-.32c-1.33.94-3.89.99-5.03-.39-.76-.91.09-1.92.75-2.6.79-.82 1.74-1.49 2.69-2.12q.57-.375 1.17-.72c.6-.345 1.03-.32.1-.18l-.66-.24c-.63 1.02-2.09.8-2.85.09-.89-.83-1.04-1.9-.86-3.07.07-.49-1.51-.21-1.58.24Z" class="st1"/></svg>