<?xml version="1.0" encoding="UTF-8"?>
<svg id="_レイヤー_1" data-name="レイヤー_1" xmlns="http://www.w3.org/2000/svg" version="1.1" viewBox="0 0 100 100">
  <!-- Generator: Adobe Illustrator 30.0.0, SVG Export Plug-In . SVG Version: 2.1.1 Build 123)  -->
  <defs>
    <style>
      .st0 {
        fill: #ceb372;
      }

      .st1 {
        fill: #1c1917;
      }

      .st2 {
        fill: #fff;
      }
    </style>
  </defs>
  <path class="st2" d="M36.17,34.59c-1.63,3.68-4.5,11.61-2.92,21.4.49,3.02,1.71,10.03,7.24,16.36,2.63,3,7.16,8.19,13.75,8.07,5.37-.1,8.7-3.47,9.64-4.36,2.82-2.68,3.77-4.56,5.54-9.85,2.27-6.77,2.99-13.09,3.29-18.3.26-4.37.05-6.79-.71-9.32-.79-2.62-1.95-4.62-2.84-5.93"/>
  <path class="st2" d="M83.56,55.4c.4-.91,1.11-1.08,1.48-1.57.85-1.14-.56-3.57-.79-3.96-3.49-6-7.07-10.27-10.25-13.29.44.21.9.33,1.36.32.01,0,.03,0,.05,0,.85-.03,1.56-.53,1.77-.81.5-.66.02-2.47-1.8-3.77,1.21.48,2.41.23,2.93-.5.45-.63.27-1.41.22-1.62-.15-.65-.55-1.13-.99-1.47.79.18,1.59.02,2.14-.45,1-.84,1.01-2.49.36-3.35-1.29-1.71-5.71-.92-5.71-.92,1.56-.33,2.68-1.45,2.84-2.75.16-1.34-.78-2.31-.91-2.44-.85-.85-2.22-1.16-3.64-.85,1.25-.64,1.99-1.6,1.96-2.51-.04-1.18-1.35-1.95-1.55-2.06-2.03-1.15-5.2-.14-8.17,2.31.13-2.99-1.98-5.25-4.14-5.3-1.46-.04-2.88.94-3.72,2.4-.56-3.56-3.55-5.91-6.27-5.72-3.21.23-6.2,4.01-5.14,8.27-.67-.76-5.16-5.69-10.11-4.72-.72.14-2.54.5-3.32,1.99-.74,1.41-.3,3.42,1.1,5.14-1.51-1.64-3.61-2.23-5.22-1.55-1.09.46-1.67,1.38-1.93,1.87-.11.45-.19,1.12.03,1.86.57,1.99,2.76,2.68,3.27,2.82-.94-.24-3.1-.62-5.36.39-1.81.81-3.89,2.6-3.54,3.6.49,1.41,5.58.8,7.08.61-1.68.79-2.8,2.37-2.89,4.12-.01.22-.1,2.58,1.75,3.86,1.53,1.06,3.73.93,5.38-.38-.85.57-1.33,1.45-1.23,2.3.11,1.02,1.01,1.59,1.11,1.65.69.42,1.53.42,2.34.23-3.58,2.91-7.31,6.65-11.07,11.44-1.1,1.4-4.48,5.69-3.15,8.08.33.6,1.15,1.41,2.15,1.5.17.01.34,0,.5-.02-1.72,1.14-3.83,2.85-3.55,4.11.25,1.11,2.37,1.85,4.07,1.68.34-.04.65-.11.94-.2-1.05.84-1.51,2.13-1.21,3.08.44,1.41,2.64,2.45,4.7,1.41.83-.42-2.07,1.93-1.87,3.05.17.95,2.1,1.44,4.25,1.71-1.78.41-3.09,1.96-3.18,3.77-.1,1.88,1.14,3.54,2.72,4.05,2.08.67,4.66-.67,5.42-3.24-.19,1.96.84,3.82,2.52,4.6,1.74.81,3.89.33,5.24-1.17-.7,1.21-.41,2.75.56,3.48,1,.75,2.63.59,3.63-.56-.64,1.87.43,3.9,2.25,4.45,1.75.52,3.68-.49,4.26-2.29.05,2.91.91,5.26,2.05,5.48,1.27.24,3.31-2.06,4.3-5.99.3,1.54,1.08,2.86,2.04,3.04,1.28.23,3.22-1.48,3.63-4.56.79,1.49,2.03,2.58,3.13,2.47,1.49-.15,3.11-2.56,2.51-5.86,2.07,1.2,2.93.72,3.1.61,1.2-.76,1.1-3.74-.59-7.44,1.9.5,3.9-.26,4.95-1.86,1.13-1.71.94-4.01-.47-5.56.2.02,2.02.16,2.48-.69.39-.71-.2-2.1-1.77-3.29,1.15.51,2.51.16,3.14-.74.72-1.03.43-2.72-.86-3.59,2.22.11,2.9-.26,3.06-.67.24-.61-.66-1.28-.61-2.85,0-.29.03-.68.22-1.13Z"/>
  <path class="st0" d="M28.41,35.8s-12.13,7.58-13.44,8.79-2.17,7.09-2.17,7.09c0,0,.42,2.33,1.97,2.92s6.67-.65,8.1-1.44,10.25-7.46,10.25-7.46l1.35-6.38s-.24.25-1.54-.11-2.36-1.07-2.31-1.98.44-1.9.44-1.9c0,0-1.26.93-1.73.83s-.9-.37-.9-.37Z"/>
  <path class="st0" d="M77.22,33.45s4.97,2.54,6.29,3.77,5.42,6.73,5.6,8.32.48,2.54-.14,3.2-2.03.87-3.27.73-11.62-1.98-11.62-1.98l-1.45-.58-.4-7.4-.46-2.14.2-2.5s1.28,1.33,2.05,1.72,2.7.48,3.18-.5.03-2.63.03-2.63Z"/>
  <path class="st1" d="M44.97,10.96c-.61,1.47-.71,3.06-.35,4.61l1.92-.56c-2.8-3.15-6.79-5.59-11.14-4.79-.24.04-.98.27-.9.63s.87.21,1.08.17c2.07-.38,4.26.68,5.91,1.82,1.17.81,2.24,1.76,3.18,2.82.31.35,2.06.01,1.92-.56-.35-1.49-.25-2.97.33-4.38.16-.38-.63-.35-.81-.33-.35.04-1,.18-1.16.56h0Z"/>
  <path class="st1" d="M77.78,19.26c-1.57-2.5-4.86-2.1-7.19-.99-.98.46.11.78.67.63,1.51-.4,3.3-1.09,4.06-2.57.68-1.32-.18-2.56-1.33-3.24-3.16-1.87-7.42.52-9.88,2.5l1.76-.11c.02-2.38-1.3-4.85-3.76-5.41s-4.8.82-6.07,2.85l1.97-.34c-.48-2.59-2.19-4.92-4.78-5.7s-5.12.21-6.91,2.01c-.33.33.26.45.48.46.43.03,1.02-.15,1.32-.46,3.33-3.36,7.25.61,7.9,4.14.12.67,1.77-.02,1.97-.34.59-.93,1.49-1.94,2.69-1.77.63.09,1.27.57,1.71,1,1.09,1.07,1.5,2.52,1.49,4.02,0,.55,1.56.05,1.76-.11,1.69-1.35,4.42-3.34,6.63-2,2.35,1.42,1,3.69-1.2,4.28l.67.63c1.65-.78,3.23-.32,4.17,1.19.29.46,2.22-.09,1.86-.65h0Z"/>
  <path class="st1" d="M31.19,12.73c-.92,2.02.1,4.14,1.45,5.7.38.44,2.26-.19,1.86-.65-2.27-2.64-6.76-3.34-8.99-.19-1.78,2.52,1.04,5.09,3.38,5.64.51.12,2.31-.63,1.27-.89-2.14-.54-4.43-.38-6.46.48-1.36.57-4.08,2.02-4.2,3.75-.17,2.52,6.56,1.41,7.92,1.23l-.41-.68c-2.56,1.31-4.14,4.16-2.83,6.92,1.56,3.27,5.91,2.86,8.42,1.03l-1.53-.24c-1.13.87-1.98,2.24-1.08,3.61.53.8,1.38,1.18,2.33,1.26,2.17.18,4.39-.96,6.08-2.23h-1.75c-.33,1.52-.26,3.34,1.03,4.43,1.07.91,2.61.82,3.89.49,2.54-.66,4.68-2.32,5.8-4.7l-1.96.23c-.67,2.81.74,6.06,3.97,6,2.78-.05,5.21-1.98,5.77-4.71l-1.97.34c-.18,2.37.54,5.53,3.56,5.04,2.69-.44,4.17-3.32,4.98-5.66l-1.91.44c1.3,2.05,3.64,4.06,6.16,2.75s2.27-5.1,1.51-7.39l-1.98.46c.81,2.01,2.32,3.92,4.71,3.62,2.82-.34,3.29-2.79,2.43-5.16l-1.98.46c1.14,2.39,3.39,3.95,6.04,2.9.82-.33,1.66-.82,1.69-1.79.03-1.32-1.08-2.5-2.04-3.24l-1.74.73c1.63.55,4.65.4,5-1.78.26-1.62-1.17-2.9-2.6-3.32-.3-.09-2.27.31-1.74.73,1.29,1.02,2.99,1.19,4.49.5s2.27-2.44,1.45-3.94c-1.11-2.03-4.76-1.67-6.66-1.34l-.08.85c1.71-.44,3.38-1.4,3.73-3.26.11-.62-1.86-.33-1.96.23-.2,1.07-.84,1.95-1.95,2.24-.81.21-1.29,1.05-.08.85,1.08-.19,2.26-.27,3.33-.05.87.17,1.62.55,1.89,1.45.15.5.15,1.05-.02,1.54-.38,1.09-1.52.89-2.28.29l-1.74.73c.59.18,1.17.49,1.59.95.79.85,1.11,3.18-.75,2.56-.32-.11-2.25.34-1.74.73.77.59,2.52,2.24,1.84,3.41-1,1.72-3.35-1.71-3.67-2.39-.26-.55-2.17-.05-1.98.46.31.85,1.04,3.74-.48,3.75-1.29,0-2.32-2.19-2.7-3.13-.23-.57-2.16-.06-1.98.46.6,1.81.95,4.09-.12,5.81-.53.84-1.07.46-1.79-.08-.79-.6-1.39-1.38-1.92-2.21-.28-.45-1.76.01-1.91.44-.22.64-.5,1.27-.81,1.87-.34.66-1.32,2.7-2.19,2.67-1.62-.05-1.67-3.55-1.59-4.61.04-.47-1.87-.16-1.97.34-.32,1.57-1.62,3.96-3.58,3.49-2.19-.53-2.67-3.42-2.24-5.24.15-.65-1.74-.24-1.96.23-.7,1.47-1.78,2.67-3.27,3.36-2.91,1.34-4.04-1.66-3.52-4.04.15-.68-1.52-.17-1.75,0-.88.66-1.97,1.4-3.09,1.53-2.2.26-2.75-2.47-1.17-3.69.85-.66-1.12-.54-1.53-.24-2.31,1.69-4.87,0-5.3-2.55-.33-1.93.66-3.81,2.41-4.7.75-.38.22-.76-.41-.68-.97.13-1.95.24-2.93.27-.82.03-2.47.24-3.13-.4-.99-.97,1.4-2.56,2.08-2.97,1.6-.96,3.34-1.03,5.1-.58l1.27-.89c-1.56-.37-2.99-1.62-3.14-3.27-.11-1.24.73-2.61,2.08-2.66s2.68,1.03,3.53,2.02l1.86-.65c-1.25-1.44-2.21-3.39-1.35-5.27.21-.47-1.7-.33-1.96.23h0Z"/>
  <path class="st1" d="M15.17,43.87c-1.6,1.51-2.97,3.3-3.31,5.53-.27,1.77-.08,3.97,1.23,5.32,2.72,2.8,7.63.13,10.3-1.38,2.32-1.31,4.59-2.76,6.74-4.34,1.07-.79-.51-1.39-1.25-.85-2.05,1.5-4.21,2.88-6.41,4.15-1.71.99-3.81,2.24-5.86,2.25s-2.78-2.03-2.86-3.76c-.12-2.59,1.18-4.64,3.02-6.36.33-.31.19-.73-.2-.88-.45-.18-1.06,0-1.4.32h0Z"/>
  <path class="st1" d="M26.35,36.61c-2.24,1.48-4.56,2.85-6.87,4.22-.34.2-.54.67-.16.94.41.28,1.02.14,1.41-.09,2.31-1.38,4.63-2.74,6.87-4.22.32-.21.55-.66.16-.94s-1.03-.16-1.41.09h0Z"/>
  <path class="st1" d="M46.22,78.86c3.77,2.27,8.13,2.95,12.34,1.48,2.71-.94,4.96-2.69,6.93-4.74,2.51-2.61,3.74-5.86,4.88-9.24,1.58-4.73,2.56-9.62,3.05-14.59.44-4.43.85-9.08-.42-13.41-.27-.92-2.25-.44-1.98.46,1.02,3.48.87,7.07.61,10.65-.3,4.13-.88,8.24-1.88,12.26-.92,3.68-2.01,7.73-4.07,10.97-1.23,1.94-3.05,3.7-4.96,4.97-4,2.66-8.86,2.56-12.94.1-.74-.45-2.5.52-1.55,1.09h0Z"/>
  <path class="st1" d="M33.05,40.67c-1.56,6.03-1.63,12.28-.27,18.36s4.62,11.67,9.12,16.28c.62.64,2.51-.11,1.83-.81-4.42-4.53-7.58-9.72-8.97-15.93-1.34-5.96-1.25-12.06.28-17.98.25-.96-1.77-.8-2,.08h0Z"/>
  <path class="st1" d="M25.58,47.63c.73-1.24,1.64-2.42,2.65-3.45.24-.24.49-.48.76-.7.24-.19.53-.37.72-.47.05-.03.19-.09.06-.03.03-.01.31-.1.07-.03l.08-.02c.12-.02.11-.02-.01,0,.16.03-.04,0,.06,0,.01,0,.23.02.36.05.17.05.33.12.48.19.38.19,1.03-.01,1.39-.18.24-.12.63-.38.24-.58-1.86-.92-4.1.07-5.52,1.34-1.3,1.15-2.42,2.64-3.3,4.14-.2.34.68.3.8.28.38-.05.95-.17,1.16-.53h0Z"/>
  <path class="st1" d="M73.17,41.34c.26,0-.24,0,.04,0,.12,0,.24,0,.35,0,.29,0,.57.02.86.05.75.07,1.44.19,2.23.43,1.98.6,3.63,1.93,4.44,3.86.29.69,2.24.15,1.98-.46-1.6-3.81-5.77-5.07-9.6-4.96-.35.01-1.06.22-1.14.63-.09.45.56.46.83.45h0Z"/>
  <path class="st1" d="M75.54,48.31c2.63.64,5.29,1.23,7.97,1.59,1.93.26,4.52.59,6.12-.78,1.17-1,.9-2.67.49-3.99-.71-2.33-2.03-4.5-3.63-6.33-1.33-1.52-2.88-2.79-4.6-3.84-.58-.35-2.41.43-1.59.93,3,1.84,5.53,4.5,7.05,7.7.49,1.03.92,2.14,1.08,3.27.07.5.08,1.16-.15,1.55-.11.18-.13.21-.23.28-.27.19-.59.23-.92.25-.84.06-1.71-.05-2.54-.15-2.64-.33-5.25-.93-7.83-1.55-.45-.11-1.06,0-1.4.32-.29.28-.26.64.17.75h0Z"/>
  <path class="st1" d="M49.78,62.99c.71.86,1.55,1.92,2.41,2.4,1.06.48,2.44.77,3.58.11,1.48-.95,2.75-2.22,4.12-3.51.12-.12.31-.11.42,0,.14,2.03-1.33,4.34-2.79,5.8-1.89,1.77-5.35,1.56-7.11-.39-1.06-1.31-1.41-2.72-1.18-4.28.04-.26.4-.34.55-.13h0Z"/>
  <path class="st1" d="M54.9,67.48c-.68,1.65-.92,3.53-.6,5.37.06.32-.16.62-.47.67-.29.05-.56-.12-.65-.38-.67-1.97-.77-4.18-.27-6.28.36-1.45,2.52-.78,1.99.62h0Z"/>
  <ellipse class="st1" cx="39.79" cy="53.07" rx="2.72" ry="1.63" transform="translate(-25.23 39.97) rotate(-41.75)"/>
  <ellipse class="st1" cx="54.15" cy="73.94" rx="2.4" ry="1.21" transform="translate(-10.18 8.66) rotate(-8.36)"/>
  <ellipse class="st1" cx="64.97" cy="52.59" rx="1.63" ry="2.72" transform="translate(-18.55 55.99) rotate(-41.32)"/>
  <path class="st1" d="M71.81,85.61c.25-1.08.24-2.13.08-3.23l-1.78.74c1.5.82,3.81,1.62,5.09-.02,1.56-2.01.07-5.59-.8-7.55l-1.37.87c4.86,1.06,9.29-4.26,5.78-8.45l-1.3,1.03c1.27.1,3.38-.01,3.88-1.46.6-1.75-1.58-3.44-2.81-4.2-.62-.38-2.43.3-1.57,1.01,1.49,1.24,3.94,1.26,5.33-.19s.76-3.51-.68-4.61l-1.16,1.15c1.25.05,3.03.18,4.03-.77.88-.83.09-1.74-.12-2.69-.28-1.25.15-1.96,1.03-2.77.34-.31.62-.6.76-1.05.4-1.32-.46-2.82-1.04-3.94-.37-.7-2.28-.08-1.84.77.4.77,1.25,2.19.93,3.13-.26.78-1.31,1.16-1.67,1.98-.45,1.02-.27,2.17.13,3.17.07.19.31.76.3.78-.06.12-1.55.09-1.76.08-.46-.02-2,.51-1.16,1.15,1.84,1.4.76,4.68-1.52,2.78l-1.57,1.01c.93.58,2.06,1.39,2.38,2.51.25.86-.41.91-1.13.85-.4-.03-1.84.38-1.3,1.03,2.22,2.64.7,7.24-3.19,6.39-.36-.08-1.64.27-1.37.87.75,1.68,1.54,3.67,1.38,5.56-.02.24-.05.52-.13.75-.07.17-.37.52-.18.44-.32.13-1.43-.45-1.8-.65-.52-.28-1.9-.09-1.78.74.15.98.14,1.91-.09,2.88-.2.89,1.81.68,1.99-.12h0Z"/>
  <path class="st1" d="M18.56,56.33c-.3,2.02.66,4.07,2.85,4.41,1.4.22,3.29-.52,4.08-1.75.43-.67-.69-.8-1.07-.73-.97.18-2.05,1.07-2.83,1.61-1.24.85-2.69,1.87-3.4,3.23-.78,1.52.41,2.6,1.8,3.09,1.99.7,4.23.41,5.96-.8,1.06-.74-.32-1.17-1.02-.94-1.86.61-4,2.66-3.09,4.81.41.96,1.4,1.57,2.37,1.83.63.17,1.29.2,1.94.12.31-.04.61-.11.91-.2.09-.03,1.07-.33.66-.26l-1.13-.38c-.13-.29.07-.3-.34.15-.27.3-.55.61-.8.93-.39.49-.88,1.11-.88,1.77,0,1.92,3.59,2.2,4.88,2.37l.24-1.26c-1.75.48-3.28,1.6-3.84,3.39s.1,3.77,1.56,4.91c3.04,2.38,7.27.11,8.37-3.16l-1.99.12c-.15,2.58,1.36,4.95,3.99,5.47,2.41.48,4.8-.64,6.18-2.63.59-.85-1.32-.84-1.73-.38-1.24,1.38-1.58,3.66.09,4.9s3.93.52,5.21-.79l-1.8-.21c-.66,2.32.78,4.72,3.2,5.11s4.49-.92,5.3-3.07l-1.99.29c.07,2.09.58,6.64,3.73,5.82,2.71-.7,3.97-4.25,4.6-6.62l-1.99.29c.45,2.03,1.74,4.07,4.09,3.3,2.17-.71,3.23-3.03,3.56-5.12l-1.91.44c.85,1.51,2.09,2.76,3.92,2.74,1.07-.01,1.6-1.32.25-1.3-1.06.01-1.89-1.41-2.34-2.2-.35-.61-1.81-.19-1.91.44-.2,1.27-.63,2.79-1.72,3.6s-1.79-1.57-1.96-2.36c-.19-.85-1.82-.35-1.99.29-.3,1.14-.69,2.26-1.26,3.29-.31.55-.91,1.73-1.57,1.93-.18.05-.12.09-.34-.22-.28-.37-.47-.76-.63-1.2-.4-1.15-.52-2.37-.56-3.58-.03-.91-1.79-.25-1.99.29-.55,1.45-2.05,2.21-3.42,1.27-1.17-.8-1.47-2.25-1.1-3.54.25-.89-1.49-.53-1.8-.21-1.98,2.02-3.56-1.38-2.1-3.01l-1.73-.38c-2.33,3.36-6.53.86-6.32-2.73.06-1.01-1.75-.59-1.99.12-.75,2.25-3.3,3.71-5.18,1.69-1.64-1.77-1.13-5.04,1.35-5.72.69-.19,1.32-1.11.24-1.26-.98-.13-2.51-.18-3.31-.87-.54-.46-.23-.89.13-1.4.26-.36,1.77-1.61,1.54-2.13-.2-.45-.7-.46-1.13-.38-.67.12-1.16.51-1.9.4s-1.56-.63-1.81-1.38c-.48-1.4.82-2.64,2.01-3.03l-1.02-.94c-1.21.85-3.17,1.02-4.37,0-.9-.78-.06-1.7.58-2.33.77-.75,1.66-1.38,2.56-1.95.33-.21.66-.41.99-.61.28-.16.68-.26.24-.18l-1.07-.73c-.34.52-1.33.86-2.08.38-1.02-.67-1.18-1.82-1.02-2.93.14-.92-1.87-.69-1.99.12h0Z"/>
</svg>