<?xml version="1.0" encoding="UTF-8"?>
<svg id="_レイヤー_1" xmlns="http://www.w3.org/2000/svg" version="1.1" viewBox="0 0 100 100">
  <!-- Generator: Adobe Illustrator 30.0.0, SVG Export Plug-In . SVG Version: 2.1.1 Build 123)  -->
  <defs>
    <style>
      .st0, .st1 {
        fill: none;
      }

      .st2 {
        fill: #ceb372;
      }

      .st3 {
        fill: #292524;
      }

      .st4 {
        fill: #1c1917;
      }

      .st5 {
        fill: #fff;
      }

      .st1 {
        stroke: #292524;
        stroke-linecap: round;
        stroke-linejoin: round;
        stroke-width: .25px;
      }
    </style>
  </defs>
  <path class="st5" d="M34.52,34.79c-1.52,3.74-4.16,11.77-2.29,21.55.58,3.01,2.02,10.01,7.76,16.19,2.73,2.93,7.43,8,14.03,7.67,5.38-.26,8.62-3.74,9.54-4.66,2.74-2.77,3.64-4.69,5.26-10.05,2.08-6.86,2.6-13.21,2.75-18.45.12-4.39-.15-6.81-1-9.32-.87-2.61-2.1-4.58-3.03-5.86"/>
  <path class="st5" d="M82.67,54.23c.37-.92,1.08-1.11,1.44-1.61.82-1.17-.67-3.56-.91-3.95-3.68-5.91-7.4-10.08-10.68-13.02.45.2.91.3,1.38.28.01,0,.03,0,.05,0,.85-.06,1.54-.58,1.75-.87.48-.68-1.05-2.56-1.92-3.73,1.22.45,2.42.16,2.92-.59.43-.64.22-1.43.17-1.63-.17-.65-.59-1.12-1.03-1.44.8.15,1.59-.03,2.14-.52.98-.87.94-2.53.26-3.37-1.35-1.67-5.76-.75-5.76-.75,1.55-.37,2.65-1.54,2.76-2.84.12-1.35-.85-2.29-.99-2.42-.88-.83-2.74-1.02-4.16-.67,1.24-.68,2.43-1.74,2.37-2.65-.07-1.18-1.42-1.92-1.62-2.02-2.07-1.09-4.61,1.58-8.12,2.56-1.81-2.07-2.15-5.21-4.31-5.19-1.46,0-2.86,1.03-3.66,2.51-1.68-2.73-3.74-5.82-6.46-5.55-3.21.32-6.09,4.21-4.9,8.45-.69-.74-5.35-5.55-10.28-4.42-.72.16-2.53.58-3.27,2.09-.7,1.44-.2,3.44,1.26,5.12-1.57-1.6-3.69-2.13-5.29-1.4-1.08.49-1.64,1.44-1.88,1.93-.09.45-.16,1.13.08,1.87.64,1.97,2.85,2.6,3.37,2.73-.95-.21-3.13-.53-5.37.55-1.79.86-3.82,2.72-3.44,3.72.54,1.4,5.62.64,7.11.39-1.67.84-2.73,2.46-2.77,4.22,0,.22-.02,2.59,1.87,3.82,1.57,1.01,3.77.82,5.38-.54-.83.6-1.29,1.49-1.16,2.35.15,1.02,1.06,1.56,1.16,1.62.7.4,1.54.37,2.36.16-3.5,3.03-7.13,6.89-10.76,11.8-1.06,1.44-4.32,5.84-2.91,8.19.35.59,1.2,1.38,2.2,1.43.17,0,.34,0,.5-.03-1.69,1.2-3.76,2.98-3.43,4.23.28,1.11,2.43,1.79,4.13,1.56.34-.05.65-.13.93-.23-1.03.88-1.69,2.3-1.12,3.12.27.38,1.49,1.12,3.99,1.66.51.11-1.25,1.61-1.01,2.73.2.95,1.07,1.24,2.29,1.72-.37.91-1.01,1.92-1.04,3.74-.04,1.89,1.25,3.51,2.85,3.98,2.11.61,3.68.2,5.14-1.69.43,1.34,1.16,2.08,2.86,2.81,1.77.76,3.91.21,5.21-1.33-.66,1.24-.33,2.77.67,3.47,1.02.72,1.73.96,2.89.65.97,1.22,1.08,2.44,2.92,2.92,1.77.47,3.11-.97,4.4-2.28.14,2.92,1.07,5.25,2.22,5.43,1.28.21,3.26-2.16,4.13-6.14.34,1.54,1.17,2.84,2.14,2.98,1.29.19,3.19-1.58,3.5-4.69.83,1.47,2.11,2.53,3.21,2.38,1.49-.2,3.04-2.66,2.34-5.95,2.11,1.14,2.96.63,3.13.52,1.18-.8-.83-4.57-.82-7.44,2.49-.9,3.9-.38,4.91-2.02,1.08-1.75-.53-3.7-.64-5.56.2.01,2.03.1,2.46-.76.37-.73.39-1.7-.28-2.67.79-.37.94-.48,1.54-1.41.69-1.06.35-2.61-.2-3.47.97-.3,2.22-.8,2.38-1.22.23-.62-.8-.91-.8-2.49,0-.29,0-.69.19-1.14Z"/>
  <path class="st2" d="M26.78,36.24s-11.94,7.97-13.21,9.22-1.96,7.18-1.96,7.18c0,0,.49,2.32,2.06,2.87s6.67-.85,8.07-1.69,10.06-7.8,10.06-7.8l1.16-6.44s-.24.25-1.55-.06-2.4-1-2.38-1.92.38-1.92.38-1.92c0,0-1.23.97-1.71.89s-.92-.35-.92-.35Z"/>
  <path class="st2" d="M74.16,31.8s5.08,1.54,7.91,4.2c1.32,1.24,5.64,6.58,5.86,8.18s.56,2.53-.04,3.21-2.01.94-3.25.83-11.72-1.64-11.72-1.64l-1.47-.53-.63-7.41-.53-2.13.12-2.51s1.33,1.29,2.1,1.66,2.21.44,2.82-.48c.57-.85-.16-1.25-.49-1.91-.39-.78-.69-1.46-.69-1.46Z"/>
  <g>
    <path class="st3" d="M30.59,38.44c-.08-.06-.26.23-.37.15-.11-.09.05-.36-.02-.44-.07-.08-.18,0-.24-.09-.06-.1.2-.25.17-.32-.03-.07-.28,0-.31-.1-.02-.09-.62.06-.64-.1-.02-.16.65-.19.66-.28,0-.09-.17-.15-.14-.27.04-.12.46.06.49-.02.03-.08-.37-.26-.31-.38.06-.11.11-.08.18-.18.07-.1.33.1.4.02.07-.08-.26-.43-.15-.53.11-.1.46.18.46.18l-1.17-1.62s-.1.33-.24.46c-.15.14-.33-.04-.48.13-.15.17.07.34-.05.51-.12.17-.4,0-.51.2-.11.21.44.4.36.58-.07.18-.28.19-.33.41-.04.21-.19.17-.21.4-.01.24.23.26.25.48.03.21-.39.3-.32.55.08.25.49.08.57.28.1.19-.03.26.09.45.13.18-.02.29.13.47.16.17.5-.21.64-.09.14.12-.09.46.09.59.2.13.31-.05.49.04.19.08.12.44.3.48l.57-1.92c-.07-.01-.15.23-.25.18-.1-.05-.05-.18-.11-.22Z"/>
    <path class="st3" d="M43.66,38.1c-.11.2.2.33.07.54-.14.2-.47.14-.61.32-.14.18-.04.27-.2.44-.16.17-.38-.04-.54.12-.16.15-.03.38-.21.53-.18.15.25.58.04.73-.21.15-.61-.4-.79-.28-.2.11-.15.3-.38.42-.22.11-.35-.34-.56-.24-.21.09-.04.5-.26.59-.22.08-.24.03-.45.1-.22.06-.31-.25-.5-.21-.19.03-.16.52-.38.53-.23,0-.36-.44-.36-.44l-.26,1.98s.47-.15.77-.18c.31-.02.34.22.66.16.32-.06.24-.34.53-.42.28-.09.38.22.66.12.27-.11-.03-.61.22-.72.24-.11.41.02.65-.1.24-.13.29.02.54-.12.25-.16.15-.37.38-.54.23-.17.5.17.73-.02.23-.19-.07-.52.14-.71.2-.2.3-.1.5-.31.19-.21.33-.09.52-.32.18-.23-.25-.51-.09-.73.15-.23.51-.03.66-.28.14-.25-.03-.34.1-.59.12-.25.46-.17.55-.38l-1.84-.78c-.07.16.18.24.08.46-.11.21-.24.14-.35.34Z"/>
    <path class="st3" d="M51.44,40.14c-.17.32.18.42-.04.75-.23.33-.61.3-.87.54-.27.24-.19.35-.5.55-.32.2-.47-.08-.78.05-.31.11-.33.39-.68.44-.34.03-.21.64-.63.62-.21-.02-.3-.21-.35-.4-.06-.18-.09-.37-.23-.43-.28-.14-.46-.02-.73-.26-.26-.25.15-.48-.05-.73-.19-.26-.56-.03-.74-.37-.16-.34-.11-.36-.22-.72-.09-.37.22-.45.18-.79-.02-.34-.51-.39-.49-.79.02-.2.15-.37.28-.48.13-.11.25-.18.26-.19l-1.94-.48c0,.05.05.69.03,1.19-.02.5-.26.51-.22,1.04.08.53.35.48.48.96.16.48-.16.59.08,1.09.26.48.68.04.95.45.3.38.27.64.67.99.43.31.29.41.8.66.27.11.44.1.61.08.17-.02.32-.04.58-.02.51.03.55.46,1.12.38.55-.11.43-.53.89-.7.45-.2.53-.06.96-.33.42-.28.54-.13.93-.48.39-.36-.04-.69.27-1.04.28-.38.65-.21.9-.66.21-.47.06-.54.2-1.01.15-.46.47-.53.56-.91l-1.98-.27c-.06.26.23.28.13.65-.11.37-.26.31-.4.64Z"/>
    <path class="st3" d="M56.13,42.41c-.16.13.09.37-.09.51-.21.11-.41-.1-.55-.07-.14.05-.13.18-.3.19-.04,0-.07-.01-.09-.04-.08-.1-.07-.3-.17-.31-.12-.03-.26.2-.4.1-.12-.1-.48.44-.65.25-.18-.2.36-.62.26-.77-.1-.17-.28-.15-.38-.36-.08-.23.39-.29.32-.5-.05-.22-.49-.11-.53-.36-.05-.24,0-.25-.03-.5-.04-.25.29-.3.27-.54-.01-.24-.5-.25-.51-.51,0-.26.43-.49.43-.48l-2-.11c0,.05.19.41.21.7.01.29-.24.3-.22.6.03.3.3.27.34.56.04.29-.28.34-.23.65.06.31.61.08.68.37.08.28-.07.44.04.73.14.29-.04.32.14.62.19.3.41.2.64.46.23.26,0,.57.34.83.38.18.53-.21.86-.12.25.05.31.14.47.2.06.01.13.02.23,0,.37-.02.4.18.78.05.39-.11.15-.58.43-.74.27-.15.52.14.79-.07.26-.21.1-.36.32-.58.21-.22.5-.07.65-.26l-1.59-1.21c-.11.13.12.29-.04.47-.16.17-.27.07-.42.21Z"/>
    <path class="st3" d="M65.95,34.21c-.27-.19-.1.38-.33.14-.22-.24-.42-.74-.7-.88-.16-.06-.28-.04-.35.08-.08.09-.14.19-.22.33-.14.3-.3-.03-.43.27-.12.32.06.73,0,1.12-.06.42.54,1.01.54,1.4.01.38-.67-.15-.66.41.01.55.21.76.21,1.26,0,.25-.12.31-.24.39-.12.09-.24.17-.25.32-.01.18.09.24.19.31.1.07.2.16.18.29-.05.25-.09.22-.17.45-.1.23-.37-.05-.49.07-.13.09.06.65-.23.66-.14,0-.28-.16-.36-.3-.08-.14-.11-.27-.12-.28l-.19,2.08c.06.02.68-.02,1.16-.09.48-.08.6.13,1.04-.16.41-.35.21-.58.44-1.01.19-.45.48-.28.62-.85.1-.56-.49-.55-.45-.96.03-.43.22-.43.23-.67,0-.24.15-.14.15-.35,0-.2-.25-.44-.26-.71,0-.27.42.27.42.1,0-.16-.45-.88-.45-1.15.01-.26.15.03.2-.2.07-.21.32.19.46.3.13.13-.19-1-.02-.75.17.26.34,1.04.45,1.21.12.17.08-.13.24.08.16.21.18.66.26.76l.41-2.49c-.3-.38-.32.02-.65-.35-.17-.19-.25-.33-.33-.46-.08-.13-.18-.29-.3-.38Z"/>
    <path class="st3" d="M72.71,34.21c-.42-.42-.38.1-.73-.24-.34-.33-.61-.99-.94-1.19-.3-.16-.25.03-.52-.14-.28-.17-.37-.51-.71-.58-.04-.01-.1,0-.14,0-.22.26-.07.53-.11.79-.03.28.38.88.43,1.24.06.37-.55-.49-.63-.12-.04.46.17.82.21,1.38.02.29-.11.3-.22.32-.12.01-.2.11-.23.37-.01.35.06.26.14.39.08.1.13.18.08.26-.14.11-.17.06-.37.12-.23.04-.29-.28-.43-.32-.15-.04-.34.43-.65.24-.21-.16-.33-.44-.44-.74-.1-.31-.19-.59-.2-.61l-.41,2.49s.21-.04.47.11c.21.13.31.23.42.33.11.11.22.22.52.26.59.07.56-.23,1.08-.31.51-.16.68.16,1.23-.29.47-.53-.13-.74.07-1.13.1-.31.26-.26.28-.5,0-.24.13-.07.11-.28-.03-.2-.25-.55-.3-.81-.05-.27.37.46.35.3,0-.13-.36-.81-.34-1.12,0-.05.03-.08.07-.05.22.14.32.45.48.61.16.17.25.51.38.65.13.13,0-.65.21-.43.22.22.22.74.37.87.08.07.14.05.2.04.02-.01.09,0,.08-.02v-.02s.1.05.15.08c.42.25.45.61.87.7l.32-1.99c-.13-.04-.19.24-.41.12-.05-.03-.08-.07-.1-.1-.07-.08-.14-.16-.21-.23-.11-.15-.18-.27-.4-.48Z"/>
    <path class="st3" d="M76.09,29.79c0,.21.34.21.28.43-.04.1-.15.11-.24.08-.08-.02-.11-.08-.37-.06-.61.03-.53.16-1.02.21-.45.06-.78-.21-1.13-.09-.3.16-.13.27-.46.53-.11.19.02.35.16.47.14.13.28.25.35.42.18.33-.57.2-.39.6.21.4.51.5.8.88.31.39-.31.36.07.83.18.24.38.31.54.35.12,0,.28.02.33.13.11.2,0,.26.03.16.04-.04-.07-.04-.15-.08-.08-.03-.16-.07-.25-.02-.18.1-.07.58-.34.65-.13.03-.27-.06-.35-.16-.08-.11-.11-.23-.11-.23l-.32,1.99s.22-.03.45-.07c.24-.06.52-.16.77-.23.47-.16.55.09,1.02-.18.23-.15.31-.3.38-.46.06-.18.16-.29.31-.72.08-.22.1-.37.12-.48.02-.1.05-.21.08-.32.04-.16.07-.4-.06-.64-.26-.47-.68-.05-.85-.28-.17-.23-.02-.34-.17-.52-.16-.19.06-.16-.07-.32-.12-.16-.52-.26-.64-.5-.08-.24.62,0,.76-.09.16-.04-.45-.41-.18-.4.26.02.41.14.64.15.24-.01.35.16.55.11.09-.04.11-.07.18-.17.06-.09.09-.19.11-.28.04-.19.06-.36.21-.57.25-.43.65-.42.7-.98-.01-.54-.21-.48-.32-.96-.17-.46.05-.75-.19-1.08l-1.59,1.21c.09.13.31-.03.41.2.08.22-.08.28-.06.51Z"/>
    <path class="st3" d="M77.19,24.09c.18.1.34-.21.55-.03.03.03.05.06.06.09.08.21-.06.45-.02.6.06.24.2.23.21.52,0,.29-.32.29-.35.45-.05.16.17.34.04.55-.14.17.35.62.06.81-.33.16-.63-.49-.83-.47-.23,0-.24.19-.59.14-.33-.06-.11-.49-.43-.57-.33-.09-.45.33-.82.22-.22-.06-.25-.1-.55-.14h-.12s-.03,0-.03,0c-.04,0-.09.02-.14.04-.1.03-.21.1-.3.18-.17.18-.24.34-.21.64.02.14.09.27.15.35l.06.06s.09.09.14.13l.08.05c.06.04.11.07.15.09.37.19.22.47.51.63.27.16.57-.23.83-.03.13.1.17.28.15.43,0,.14-.07.26-.06.26l1.59-1.21c-.03-.06-.58-.38-.94-.63-.36-.26-.23-.47-.61-.68-.37-.2-.52.05-.81-.11-.04-.02-.03-.02-.04-.04-.02-.01.06.03.08.04l.04.04s.09.08.15.23c.06.14.06.31.03.44-.03.12-.06.21-.14.33-.08.11-.2.2-.31.25-.11.05-.25.06-.22.07-.04.03-.09.05-.14.06-.04.08,0,.17.17.22.35.1.42-.47.79-.37.38.1.47.32.89.39.46.04.44.21.96.17.54-.08.51-.33.94-.54.39-.26.69.03,1.04-.43.29-.5-.12-.7.02-1.16.1-.49.24-.46.25-.93-.02-.47.17-.5.04-1-.19-.55-.63-.27-.87-.64-.03-.04-.05-.07-.06-.1-.19-.3-.04-.62-.46-.88-.49-.24-.56-.05-.99-.16-.1-.02-.2-.06-.25-.1-.04-.04-.07-.08-.09-.13-.05-.09-.06-.18-.13-.18l-.84,1.96c.42,0,.52-.26.91-.2.29.06.27.22.46.3Z"/>
    <path class="st3" d="M73.65,18.42c.18.14.37-.15.57.08.19.25,0,.55.09.79.07.24.21.22.23.48,0,.26-.3.2-.39.42-.44.49-.4.66-.8,1.1-.39.44.91.17.62.42-.29.24-1.45.58-1.62.79-.18.2.01.14-.21.33-.11.09-.27.18-.41.26-.14.09-.31.14-.27.34.13.2.29.18.47.17.17-.02.36-.05.51-.02.31.05.24.09.57.13.36.03-.07.35.37.41.49.05,1.14-.5,1.61-.52.47-.03.77.39.83.39l.84-1.96s-.36.18-.61.2c-.23.01.02-.23-.15-.21-.17.02-.56.3-.8.32-.24.02.35-.32.19-.31-.16-.01-1.33.65-1.59.53-.08-.13.17-.26.32-.35.18-.09.35-.18.45-.24.21-.13.47-.2.65-.32.17-.11-.18-.03.03-.19.21-.18.74-.25.85-.38.1-.14-.35-.17-.24-.46.12-.43.28-.44.27-.95-.05-.49.14-.54-.02-1.03-.2-.47-.63-.2-.86-.56-.26-.34.02-.66-.38-1-.43-.3-.53-.13-.96-.31-.26-.09-.13-.38-.26-.4l-1.57,1.92c.54-.05.66-.33,1.18-.24.15.02.2.07.22.09.04.03.05.06.07.09.04.06.07.12.17.19Z"/>
    <path class="st3" d="M70.83,13.41c.22.15.38-.15.61.06.22.23.06.56.12.73.05.17.19.14.17.3,0,.04-.04.07-.07.08-.11.08-.18.11-.28.16-.19.09-.43.2-.77.44-.75.5-.38.62-.69.97-.29.34,1.08-.01.77.21-.31.21-1.51.57-1.67.75-.18.17.03.12-.19.29-.21.2-.66.25-.74.53.1.21.29.11.45.09.17-.04.36-.09.5-.1.27-.02.2.01.47.01.29,0-.23.29.06.37.33.09,1.22-.44,1.67-.43.43.03.71.4.77.39l1.57-1.92s-.42.15-.67.17c-.23.02.1-.2-.08-.17-.17.03-.64.28-.88.33-.24.05.45-.28.29-.25-.16.01-1.48.67-1.75.62-.06-.13.23-.24.39-.33.19-.09.38-.18.48-.24.21-.12.51-.21.69-.32.18-.1-.23,0-.01-.14.22-.15.85-.28.98-.38.12-.11-.39-.09-.23-.3.08-.11.14-.16.2-.2l.05-.03s.01.02.04-.05c.04-.08.08-.18.11-.33.06-.59.22-.65.05-1.22-.24-.53-.66-.2-.91-.56-.29-.32-.04-.65-.43-.95-.41-.26-.5-.1-.94-.27-.45-.14-.52-.5-.93-.51l-.06,2c.16.01.18-.28.44-.19.26.06.19.22.41.35Z"/>
    <path class="st3" d="M60.02,13.43c.21.37.44.13.66.48.22.34.12.74.48,1.09.35.34.46.22.87.47.44.2.36.51.9.61.27.06.44-.03.6-.09.16-.07.31-.13.54-.18.47-.1.17-.65.54-.78.37-.12.68.43,1.07.25.35-.2.36-.41.68-.62.33-.21.47.25.79.04.32-.21.08-.57.39-.78.31-.2.34-.15.64-.33.3-.16.48.09.75-.02.27-.13.15-.58.46-.68.33-.07.59.35.58.37l.06-2c-.06-.02-.67.21-1.09.34-.44.13-.52-.1-.93.08-.41.19-.26.44-.62.64-.33.21-.52-.08-.84.13-.32.21.08.63-.23.84-.31.21-.52.1-.82.3-.31.19-.35.03-.64.2-.29.13-.23.4-.53.5-.31.12-.42-.32-.66-.26-.21,0-.22.48-.5.42-.28-.04-.22-.2-.46-.3-.22-.15-.12-.27-.3-.46-.19-.17-.55.15-.76-.11-.19-.3.14-.53-.02-.82-.16-.3-.33-.22-.49-.55-.15-.33.12-.56,0-.82l-1.82.83c.12.26.34.11.5.46.16.35.03.42.2.78Z"/>
    <path class="st3" d="M51.62,9.86c.25.26.44-.02.7.25.26.28.17.65.43.93.27.3.33.16.66.51.37.33.19.66.66.97.44.26.63.06,1.05.1.03,0,.06,0,.09-.01.5-.07.3-.63.67-.78.33-.19.68.39,1.09.02.39-.4.27-.58.44-.77.17-.19.35.3.47.19.13-.08.03-.61.29-.67.09,0,.15,0,.17.01.1.05.16.06.29.13.22.12.06.49.17.61.1.13.47-.2.61.05.12.21-.1.77-.1.77l1.82-.83s-.37-.34-.66-.84c-.12-.23-.17-.37-.2-.53-.03-.16-.08-.32-.27-.51-.18-.21-.35-.2-.48-.21-.13-.02-.26,0-.49-.1-.29-.11-.39-.23-.56-.38-.1-.05-.22-.1-.42-.08-.27.03-.34.2-.4.38-.06.17-.1.34-.3.45-.37.25-.57.19-.92.57-.31.36-.37.21-.52.37-.15.14-.06.4-.29.53-.23.1-.3-.33-.44-.37,0,0-.02,0-.03,0-.16-.03-.27.44-.49.28-.2-.17-.12-.3-.28-.46-.19-.21-.09-.37-.33-.64-.25-.27-.61.09-.86-.19-.26-.28.02-.58-.25-.87-.27-.28-.41-.15-.69-.42-.28-.27-.12-.59-.35-.79l-1.32,1.5c.19.17.35-.05.61.21.26.25.15.36.4.62Z"/>
    <path class="st3" d="M44.21,11.72c.08-.3-.28-.33-.17-.65.11-.33.48-.39.63-.68.15-.3.05-.36.22-.65.2-.28.44-.11.65-.36.2-.25.07-.48.31-.72.24-.23-.24-.62.05-.85.3-.22.72.3.98.15.27-.15.26-.34.56-.45.3-.09.3.4.53.35.21,0,.23-.46.53-.4.29.03.28.13.57.21.29.13.16.43.42.58.26.17.58-.22.86,0,.29.21.25.76.26.77l1.32-1.5s-.53-.19-.86-.44c-.33-.25-.21-.44-.57-.68-.41-.21-.52.03-.93-.14-.43-.14-.31-.49-.83-.57-.51-.08-.4.52-.85.52-.44.05-.62-.11-1.06.03-.4.17-.43,0-.82.22-.39.23-.29.46-.62.71-.33.26-.61-.05-.93.25-.3.32.02.6-.23.91-.26.31-.36.24-.61.58-.21.36-.39.25-.59.64-.2.38.29.57.13.93-.13.38-.54.29-.65.73-.06.21-.02.33.01.45.02.06.03.12.04.18.01.05.02.1.02.17-.02.29-.34.19-.33.32l2.12,1.21c-.07-.47-.36-.55-.4-1.08,0-.24.05-.37.1-.47.05-.07.1-.14.13-.29Z"/>
    <path class="st3" d="M35.91,11.97c.32.12.37-.23.7-.08.33.15.38.52.68.69.31.18.38.05.69.25.31.19.15.46.44.66.3.2.52.04.82.26.3.22.56-.35.88-.11.31.23.11.92.56,1.26.43.31.54.16.93.4.39.23.34.73.77.89.42.12.25-.38.62-.28.38.04.43.11.82-.1.17-.14.24-.19.33-.2.08-.02.17-.03.21-.18.08-.31-.37-.83-.39-1.22,0-.2.1-.32.21-.43.1-.11.21-.19.21-.21l-2.12-1.21s.23.39.28.63c.05.23-.22-.07-.19.11.01.16.38.63.22.81-.22.1-.53-.53-.67-.57-.15-.07.23.9-.01.76-.24-.16-.35-.49-.54-.63-.2-.15-.16-.31-.33-.44-.16-.12-.27.09-.49-.07-.22-.17-.04-.56-.33-.78-.32-.23-.56.13-.88-.08-.32-.21-.24-.34-.58-.55-.34-.21-.24-.37-.59-.57-.36-.19-.56.28-.91.11-.36-.16-.23-.56-.62-.7-.39-.14-.45.04-.85-.07-.39-.11-.43-.45-.76-.51l-.3,1.98c.23.05.25-.23.59-.15.33.08.28.24.6.34Z"/>
    <path class="st3" d="M32.11,18.21c-.05-.28-.4-.5-.5-.81-.12-.32.27-.21.13-.65-.15-.44-.39-.56-.61-1.04-.25-.5.11-.45-.14-1.02-.19-.51-.48-.64-.49-.9,0-.27-.62-.21-.57-.57.1-.36.73-.14.84-.32.13-.2.05-.37.28-.58.25-.19.43.26.66.11.25-.14.07-.53.38-.67.32-.12.33-.07.66-.16.34-.08.41.22.7.19.29-.04.32-.51.66-.51.17,0,.33.12.43.25.11.12.17.24.18.24l.3-1.98s-.58.13-1.01.13c-.43.02-.44-.25-.89-.19-.47.07-.4.35-.81.45-.4.12-.5-.2-.91-.04-.41.18-.05.64-.42.83-.36.21-.59.12-.94.42-.33.32-.42.18-.71.6-.27.46-.06.62-.18,1.08-.06.46-.51.47-.47.98.02.29.15.28.27.35.13.05.25.15.29.26.08.25-.07.22.01.43.1.21-.14.11-.05.28.09.16.8.59.95.86.15.27-.49-.21-.39-.03.09.19.46.49.51.74.03.14-.23.03-.43-.12-.21-.16-.39-.33-.46-.35l2.28,2.69c.11,0,.12-.05.15-.12.01-.03.03-.05.07-.1l.07-.07s.03-.09.06-.13c.06-.37.13-.23.11-.51Z"/>
    <path class="st3" d="M25.3,20.61c-.26-.2-.4-.28-.52-.33-.09-.01-.21-.03-.26-.17-.09-.3.19-.51.19-.77.01-.28-.12-.31-.07-.54.09-.22.37-.07.53-.34.16-.24,0-.46.2-.67.21-.19-.26-.6.03-.81.33-.18.62.41.84.37.12-.04.19-.08.27-.13.08-.05.17-.11.32-.09.15.02.18.13.21.26.05.13-.02.22.3.31.58.25.57-.25,1.05-.01.49.25.51.33.99.57.43.18.72.7,1.11.78.34.06-.04-.56.26-.44.31.13.89.57.91.55l-2.28-2.69s.08.27-.14.14c-.2-.12-.46-.51-.61-.6-.15-.09.04.29-.17.17-.22-.11-.34-.5-.48-.56-.15-.06-.06.57-.33.48-.07-.02-.12-.04-.17-.07-.07-.04-.14-.08-.2-.12-.13-.07-.28-.13-.51-.16-.47.02-.43-.18-.93-.06-.51.12-.47.39-.87.62-.37.26-.67-.05-1.02.31-.32.37.04.63-.2.98-.2.36-.37.29-.55.78-.1.52-.29.47-.31.96.02.5.52.4.6.82.05.21,0,.36-.04.52-.02.08-.04.16-.04.25,0,.09-.03.09,0,.15.11.18.32.14.49.33.19.19-.21.18-.11.26l3.46.46c-.06-.1-.26-.21-.44-.28-.2-.09-.33-.16-.61-.37-.43-.41-.43-.43-.91-.86Z"/>
    <path class="st3" d="M21.09,25.29c.15-.13-.32-.23-.1-.4.23-.18.65-.06.82-.16.19-.1.1-.22.34-.32.31-.14.43.16.73.05.16-.04.21-.13.4-.24.15-.1.29-.18.55-.22.56-.06-.04-.61.36-.66.39-.03,1.35.68,1.9.63.45-.08.24-.27.56-.34.31-.05.87.27,1.1.18.23-.09-.29-.28.01-.32.14-.02.23-.03.32-.08.02,0,.04-.02.06-.05.02,0,0-.03.05-.03v-.04c0-.06-.02-.1-.08-.14-.23-.17.16-.05,0-.18-.16-.14-.94-.34-1.2-.52-.13-.09-.05-.17.08-.22.13-.07.29-.12.29-.13l-3.46-.46s.14.05.29.11c.16.06.36.14.46.19.21.11-.29-.02-.13.05.16.07.81.25,1.02.37.12.06-.13.09-.41.01-.26-.06-.51-.13-.59-.14-.16,0,1.16.5.88.48-.29-.02-.73-.2-.96-.21-.24,0-.43-.13-.64-.13-.2,0,.02.21-.25.23-.27.04-.55-.35-.71-.31-.08.02-.09.13-.11.25-.02.12-.13.26-.31.31-.39.14-.45-.01-.83.16-.47.21-.57.07-1.05.35-.47.31.01.6-.34.85-.34.27-.81.15-1.16.5-.32.36-.09.38-.36.73-.25.34-.7.47-.83.77l3.01-.42c.08-.11-.41-.06-.25-.24.16-.18.4-.16.55-.3Z"/>
    <path class="st3" d="M25.22,29.9c.27-.24-.01-.44.27-.7.15-.13.32-.18.5-.26.18-.09.39-.17.58-.57.09-.25.11-.46.05-.68-.04-.21-.14-.33-.24-.45-.2-.21-.45-.34-.74-.43-.55-.14-.5-.4-.98-.43-.44,0-.52.28-.91.31-.39.04-.21.63-.58.68-.4.05-.48-.61-.67-.59-.21.03-.33.23-.59.26-.26.03.14-.49-.02-.47-.15.01-.62.5-.88.51-.25,0-.18-.06-.41-.08-.24-.05.32-.39.19-.5-.09-.12-1.09.2-1.02-.07.04-.13.32-.3.56-.41.25-.11.48-.18.48-.18l-3.01.42s.01.46,0,.87c0,.2-.04.33-.07.47-.03.13-.06.28.09.45.29.32.55.14.91.28.37.11.03.36.44.47.44.08.83-.48,1.25-.47.43,0,.45.19.95.15.5-.05.39.11.93.05.53-.07.63-.32.98-.37.37-.04.42.38.77.35.34-.02.31-.46.65-.47.31,0,.35.16.5.19.06.02-.06.03-.17-.05-.05-.05-.11-.1-.15-.21-.02-.12-.04-.19,0-.28,0-.02.03,0,.07.04.02.05.05.11.08.17.07.12.09.27-.03.39-.27.25-.57-.04-.86.22-.29.27-.16.41-.45.7-.28.3-.61.15-.82.43l1.6,1.2c.13-.18-.08-.32.14-.58.24-.25.35-.13.6-.37Z"/>
    <path class="st3" d="M28.65,35.2c-.28.12-.1.42-.42.52-.33.1-.58-.18-.87-.14-.3.02-.3.15-.62.14-.32-.03-.27-.34-.54-.4-.27-.07-.42.14-.7,0-.26-.15-.5.43-.8.22-.29-.24.13-.76-.07-.97-.19-.23-.39-.18-.56-.46-.16-.29.31-.4.19-.65-.1-.26-.52-.13-.6-.44-.06-.31,0-.32-.02-.61,0-.3.34-.27.39-.52.07-.24-.38-.45-.23-.74.07-.15.26-.22.4-.26.16-.03.29-.03.29-.03l-1.6-1.2s-.19.58-.37,1c-.19.41-.42.34-.54.82-.09.49.18.53.18.99.02.45-.31.49-.21.97.12.47.63.17.77.56.16.38.04.6.27.97.24.36.09.41.38.76.31.34.52.19.86.47.36.25.15.62.58.84.44.19.58-.22,1-.1.42.1.4.24.84.29.44.02.44.21.9.18.46-.06.33-.55.73-.64.39-.11.56.27.98.1.4-.19.31-.36.68-.57.35-.23.64-.03.91-.24l-1.29-1.53c-.18.13.01.34-.26.52-.28.17-.35.04-.63.17Z"/>
    <g>
      <path class="st3" d="M37.73,41.05l-.09-.07-.02-.02h-.01s-.01-.02-.01-.02l-.04-.05-.09-.1-.08-.11-.02-.03-.02-.03-.04-.06-.07-.11c-.05-.08-.09-.15-.14-.22l-.03-.05-.04-.05-.07-.08-.08-.07-.08-.07-.08-.07-.08-.08-.04-.04-.02-.02-.02-.03-.03-.06-.03-.06-.03-.07v-.04s-.02-.04-.02-.04c0-.05-.02-.11-.03-.17v-.09s-.02-.09-.02-.09v-.19c0-.13,0-.25,0-.36,0-.06,0-.11,0-.16l-.02-.15-.02-.12-.02-.11-.05-.18c-.02-.06-.03-.12-.05-.18l-.02-.11-.02-.12v-.06s-.02-.03-.02-.03h0s0-.02,0-.02h0s-.1.07-.15.1c-.11.08-.22.16-.34.24l-.18.12c-.06.04-.12.08-.18.11-.06.03-.11.06-.16.09l-.08.04-.07.03-.07.02h-.06s-.06.02-.06.02h-.05s-.1,0-.1,0h-.09s-.09-.02-.09-.02h-.1s-.05,0-.05,0h-.06s-.06.02-.06.02l-.07.02c-.1.03-.2.07-.31.11l-.17.06-.17.05-.17.06-.17.05-.16.04-.08.02-.07.02-.07.02-.07.02-.12.04-.21.09-.22.09h-.03s-.03.02-.03.02h-.06s-.09.03-.14.03h-.07s-.07,0-.07,0c-.04-.01-.09-.02-.13-.03-.04-.01-.08-.03-.13-.04l-.06-.02h-.02s0,0,0,0h0s-.03-.02-.03-.02l-.11-.06-.11-.05h-.03s-.03-.03-.03-.03l-.05-.03-.05-.02-.06-.02-.29.96-.14.48-.14.48c.08.02.14.03.2.05.06,0,.11.02.16.03h.07s.03.02.03.02h.03s.09.01.14.02h.07s.07.01.07.01c.05,0,.09,0,.15,0h.07s.04,0,.04,0h.04s.1-.03.15-.04c.06,0,.11-.02.17-.03.06,0,.13-.02.19-.02.07,0,.14-.02.22-.03.08,0,.16-.01.26-.02.02,0,.04,0,.07,0,.02,0,.05,0,.08-.01.06,0,.12-.02.19-.03.07-.01.14-.02.22-.03l.22-.05.22-.05c.07-.02.14-.03.2-.05l.09-.02h.04s.01-.01.01-.01h0s0,0,0,0l1.56.92h.01s.04.04.04.04l.04.04c.05.06.1.11.14.16.05.06.09.11.13.17.09.12.18.23.26.34.04.05.09.11.13.16l.03.04.03.04.07.07s.08.08.12.12l.06.05.06.04.06.04.06.04s.07.06.11.1c.07.06.15.13.23.21l.06.05.06.05.13.09s.09.06.14.09l.07.03.08.03s.1.04.16.06c.03.01.07.02.1.04l.11.03.23.06h.06s.05.02.05.02h.1s.07-.48.07-.48l.07-.5.13-.99c-.06,0-.12-.01-.19-.02h-.05s-.03,0-.03,0h-.02s-.1-.02-.1-.02h-.05s-.05-.02-.05-.02l-.11-.03h-.03s-.01-.01-.01-.01h-.01s-.05-.03-.05-.03l-.05-.03h-.03s-.01-.02-.01-.02h-.01Z"/>
      <path class="st0" d="M32.42,43.5c-1.55-1.43-1.5-1.38-2.32-2.15h0s0,0,0,0h0s0-.01,0-.01h0s0-.04,0-.04l.02-.06.04-.12.07-.24.14-.48.29-.96.57-1.92h.02s.02,0,.02,0h.02s0,.01,0,.01h0s0,0,0,0h0s0,0,0,0h.06s.06.01.06.01h.16s.04,0,.04,0h.05s.1-.03.1-.03l.1-.02.11-.03.11-.03h.03s.03-.02.03-.02l.06-.02.25-.08.26-.1.26-.12.13-.06.13-.07.13-.07.13-.08.26-.16.26-.17.25-.17.23-.17.22-.18,4.54-3.81-1.3,5.78-.04.24-.03.24v.12s-.01.06-.01.06v.06s0,.11,0,.11v.06s0,.06,0,.06v.11s0,.03,0,.03v.03s.01.05.01.05v.11s.03.1.03.1v.05s.01.02.01.02v.02s.03.09.03.09v.02s.01.02.01.02l.02.04.03.09.04.08.02.04.02.03.04.07.04.06.02.03h0s0,.01,0,.01h.01s.04.06.04.06l.04.04.02.02h.02s.02.03.02.03l.02.02h.02s.02.02.02.02h.01s.02.02.02.02h.02s.01.02.01.02l.07.02h.02s.02,0,.02,0h0s0,0,0,0h0s0,0,0,0h.03s-.26,1.98-.26,1.98l-.13.99-.07.5-.03.25-.02.12v.06s-.01.03-.01.03v.02s0,0,0,0h0s0,0,0,0h0c-3.82-.47-3.69-.45-5.73-.7Z"/>
    </g>
    <g>
      <path class="st3" d="M62.03,40.14l-.04-.02-.05-.03-.09-.06-.18-.14-.18-.15-.09-.07-.09-.06-.04-.03-.04-.02-.04-.02h-.04s-.09-.03-.09-.03h-.09s-.09-.02-.09-.02l-.09-.02h-.04s-.05-.03-.05-.03l-.05-.02-.05-.03-.05-.03-.04-.04-.09-.09-.09-.11-.09-.11c-.06-.08-.12-.15-.17-.22l-.08-.09-.04-.04-.04-.03-.08-.05-.07-.04-.14-.06-.14-.06-.08-.04-.08-.05-.04-.02h-.02s-.01-.01-.01-.01h0s0,0,0,0c-.02.04-.04.08-.06.12-.04.09-.08.18-.12.28-.04.1-.08.19-.12.28-.02.04-.04.08-.06.12l-.03.05-.03.04-.03.04-.04.03-.04.03-.04.02-.07.03-.07.03-.07.03-.07.04-.04.02-.03.03-.03.03-.03.04c-.18.25-.42.59-.59.84l-.03.05-.03.05-.04.09-.03.09-.02.09-.03.09-.03.09-.04.09-.03.05-.03.05-.04.05-.04.04-.04.04-.05.04-.1.06-.1.06-.1.06-.1.07-.09.08-.04.04-.04.05.79.61.4.3.4.3s.05-.07.07-.1c.02-.03.03-.06.05-.08l.04-.07s.03-.04.05-.07l.03-.04.02-.04.04-.08c.02-.06.04-.12.07-.18l.04-.1s.03-.07.05-.11l.03-.06.04-.06.05-.06.06-.07s.09-.11.14-.18c.05-.07.12-.16.18-.24.06-.08.12-.16.18-.24l.04-.05.02-.02h0s0,0,0,0h0s.65-.05.65-.05h0s.04,0,.04,0h.04s.07.03.07.03l.07.03.06.03.06.03.12.07.11.08c.07.05.14.1.21.15.03.02.06.04.09.06l.04.02.04.02.04.02.04.02s.06.04.09.06c.05.05.12.1.18.16l.09.08.1.08.05.04.05.03.05.03.06.02c.07.03.17.07.28.12l.17.06.08.03.08.02.05-.51.05-.51.1-1.07h-.05s-.05-.02-.05-.02c-.04,0-.08,0-.12-.01h-.07s-.07-.02-.07-.02l-.07-.02-.07-.03Z"/>
      <path class="st0" d="M60.05,44.13l-1.08-.58h0s0,0,0,0h-.01s-.02-.03-.02-.03l-.05-.04-.1-.08-.2-.15-.4-.3-.79-.61-1.59-1.21.06-.07.03-.04.03-.04.11-.17.11-.17.11-.19.11-.19.11-.2.11-.2.1-.21.1-.21.09-.22.18-.44.17-.44.14-.41,1.26-4.1,2.33,3.6.24.35.13.17.13.16.13.16.14.15.14.14.14.14.14.13.15.12.14.11.14.1.05.03-.19,2.13-.09,1.02-.05.51-.02.25v.13s-.02.06-.02.06v.03s0,.02,0,.02h0s0,.01,0,.01h0s0,0,0,0c-1.46.53-1.41.51-2.2.79Z"/>
    </g>
  </g>
  <g>
    <path class="st3" d="M27.18,37.29c.07-.16.1-.35.08-.52-.02-.17-.1-.33-.2-.47-.11-.14-.25-.24-.41-.31-.16-.07-.34-.14-.51-.12-.17.02-.34.11-.48.22l1.18,1.62c.15-.11.28-.25.35-.41Z"/>
    <path class="st3" d="M17.76,43.58c.31-.21.05-.44.37-.65.31-.2.67-.06.98-.26.32-.2.25-.32.56-.52.32-.2.49.05.81-.15.32-.2.26-.47.58-.67.32-.2-.11-.66.21-.86.32-.2.72.33,1.04.12.32-.21.29-.41.61-.62.32-.21.46.25.78.04.32-.21.08-.58.4-.79.32-.21.35-.17.66-.38.31-.22.52.04.83-.18.31-.22.08-.64.39-.86.31-.22.85-.08.87-.09l-1.18-1.62s-.27.45-.57.67c-.3.22-.45,0-.75.22-.3.21-.15.44-.46.65-.31.21-.49-.07-.8.14-.31.21.11.62-.21.83-.31.21-.52.11-.83.31-.31.2-.36.05-.67.26-.31.2-.22.43-.54.63-.32.2-.55-.15-.87.05-.32.2-.08.57-.39.77-.32.2-.4.08-.71.28-.32.2-.42.04-.74.25-.32.2-.01.61-.33.82-.32.21-.57-.12-.89.1-.32.21-.21.37-.53.59-.31.22-.6,0-.84.19l1.21,1.59c.21-.16.03-.35.32-.56.31-.21.38-.08.69-.29Z"/>
    <path class="st3" d="M12.54,52.59c-.07-.32-.38-.2-.43-.55-.03-.35.27-.57.27-.9.02-.34-.13-.35-.09-.69.04-.34.35-.3.41-.62.08-.31-.16-.46-.05-.78.11-.31-.5-.44-.35-.78.16-.34.78-.07.94-.36.17-.29.07-.46.27-.76.21-.29.5.09.72-.18.21-.27-.11-.55.12-.82.24-.27.28-.23.53-.49.26-.25.49-.04.75-.27.26-.24-.02-.63.26-.87.28-.24.81-.1.83-.11l-1.21-1.59s-.28.48-.58.73c-.3.26-.46.07-.76.34-.29.27-.1.48-.38.75-.28.28-.51.05-.79.35-.27.31.25.59,0,.89-.24.3-.48.29-.71.61-.22.33-.33.21-.54.56-.21.36-.02.51-.19.89-.16.37-.57.23-.71.65-.14.42.31.52.21.92-.07.4-.22.38-.27.79-.04.41-.23.4-.24.82,0,.42.5.37.53.77.03.39-.37.48-.3.9.08.42.27.37.38.77.13.39-.16.62,0,.93l1.81-.84c-.1-.2-.32-.08-.44-.39-.09-.32.05-.35-.01-.67Z"/>
    <path class="st3" d="M21.05,52.88c-.32.19-.08.44-.4.63-.32.18-.66.01-.98.19-.32.17-.26.29-.59.45-.33.17-.47-.11-.79.03-.32.15-.3.42-.64.54-.33.12-.02.67-.37.79-.36.1-.59-.51-.92-.43-.33.05-.38.28-.71.31-.33.02-.25-.44-.54-.43-.26-.04-.33.43-.63.37-.28-.1-.29-.09-.53-.24-.26-.13-.09-.4-.27-.55-.17-.17-.57.13-.76-.14-.1-.13-.07-.33-.04-.47.05-.15.11-.27.11-.27l-1.81.84s.43.44.71.8c.27.36.1.53.48.87.4.33.57.07.99.29.42.21.32.47.81.62.49.08.41-.53.83-.49.42.02.55.18.98.15.4-.08.38.08.8,0,.4-.1.38-.36.76-.47.38-.12.52.26.91.12.38-.14.19-.55.55-.71.36-.16.42-.02.77-.2.35-.18.44,0,.78-.19.34-.19.06-.62.4-.8.33-.18.57.14.9-.05.33-.2.23-.36.55-.56.32-.2.58.04.83-.12l-1.08-1.69c-.23.15-.06.35-.38.55-.32.2-.39.07-.71.25Z"/>
    <path class="st3" d="M30.66,45.79c-.27.25.02.45-.26.7-.28.25-.65.16-.92.41-.28.24-.19.35-.48.58-.28.24-.49,0-.77.24-.28.23-.19.49-.49.72-.29.23.17.64-.13.87-.3.23-.74-.28-1.04-.06-.3.22-.26.42-.57.64-.31.21-.46-.24-.76-.03-.31.21-.07.58-.38.79-.31.21-.34.17-.65.38-.31.21-.51-.05-.82.16-.31.21-.09.64-.4.84-.31.2-.84.03-.86.04l1.08,1.69s.3-.44.62-.65c.32-.21.45,0,.77-.21.32-.21.16-.44.48-.66.31-.21.5.06.81-.15.31-.21-.11-.62.2-.84.31-.21.52-.12.84-.34.31-.22.36-.07.67-.3.31-.23.2-.45.5-.68.3-.23.57.1.87-.14.3-.24.02-.57.32-.82.3-.24.39-.13.68-.38.29-.25.41-.1.71-.35.29-.25-.08-.61.21-.86.28-.25.58.02.87-.24.28-.26.15-.4.42-.67.27-.26.58-.09.78-.29l-1.41-1.42c-.2.19.01.36-.25.62-.27.26-.37.14-.64.4Z"/>
    <path class="st3" d="M32.52,44.51c-.17-.04-.35-.01-.51.03-.16.04-.32.11-.45.24h0s1.41,1.42,1.41,1.42h0c.13-.13.24-.29.28-.45.05-.17.04-.36-.01-.53-.04-.16-.14-.32-.27-.45-.13-.13-.29-.22-.45-.26Z"/>
  </g>
  <g>
    <path class="st3" d="M33.61,40.36c-.05-.17-.14-.34-.26-.47-.12-.12-.28-.2-.46-.25-.17-.05-.35-.03-.51.02-.17.05-.35.12-.48.26-.12.13-.2.33-.24.52l1.95.46c.04-.18.05-.37,0-.54Z"/>
    <path class="st3" d="M32.56,51.81c-.03-.39-.36-.28-.38-.67-.01-.39.28-.63.28-1.01,0-.39-.14-.39-.14-.77,0-.39.31-.39.32-.78,0-.38-.25-.49-.23-.87.02-.39-.6-.3-.57-.69.03-.39.7-.4.73-.78.03-.38-.14-.5-.1-.88.04-.39.49-.19.54-.57.05-.38-.39-.45-.32-.83.06-.38.11-.38.18-.76.07-.38.39-.34.46-.72.07-.38-.38-.53-.3-.91.08-.38.59-.63.59-.66l-1.95-.46s.08.56,0,.95c-.08.39-.33.34-.41.74-.07.4.2.45.13.85-.06.4-.39.34-.45.74-.06.4.53.36.47.76-.05.39-.27.5-.31.9-.04.4-.19.34-.23.74-.03.4.21.47.17.87-.02.4-.45.38-.47.79-.02.41.42.41.41.81,0,.4-.16.4-.16.8,0,.4-.19.4-.18.81,0,.41.52.35.53.75.02.4-.4.46-.37.86.03.4.22.39.25.79.03.4-.29.53-.26.83l1.99-.21c-.03-.29-.29-.22-.33-.61-.03-.39.13-.39.1-.78Z"/>
    <path class="st3" d="M35.4,63.84c-.15-.36-.43-.14-.58-.5-.16-.36.06-.69-.07-1.04-.14-.36-.27-.31-.39-.68-.12-.37.16-.47.04-.84-.11-.37-.39-.38-.5-.75-.11-.37-.66-.09-.77-.47-.11-.38.53-.6.44-.97-.09-.37-.29-.42-.38-.8-.09-.38.4-.34.32-.72-.08-.38-.51-.3-.58-.68-.07-.38-.02-.39-.08-.77-.06-.38.25-.45.19-.83-.05-.38-.54-.37-.59-.75-.05-.39.35-.79.34-.81l-1.99.21s.25.5.31.9c.06.4-.19.43-.14.83.06.4.34.36.41.76.07.39-.26.45-.19.85.08.39.62.16.7.55.08.39-.09.55,0,.95.09.39-.07.38.03.77.1.39.34.38.45.76.11.39-.31.51-.19.9.12.39.53.25.65.64.13.38,0,.43.12.81.13.38-.05.44.1.83.14.38.6.16.75.53.15.37-.21.56-.05.94.15.37.34.29.51.66.17.36-.09.6.04.88l1.8-.88c-.12-.26-.34-.11-.51-.46-.16-.35-.03-.41-.18-.76Z"/>
    <path class="st3" d="M42.52,73.87c-.28-.27-.45.03-.73-.25-.27-.28-.21-.66-.48-.94-.27-.28-.37-.19-.64-.48-.27-.29-.04-.5-.29-.79-.25-.29-.51-.18-.76-.47-.25-.3-.64.18-.88-.13-.24-.31.25-.76.01-1.06-.23-.31-.43-.28-.65-.59-.22-.32.24-.47.02-.78-.2-.32-.57-.09-.78-.41-.2-.33-.17-.35-.36-.68-.19-.33.08-.52-.11-.85-.19-.33-.64-.15-.82-.49-.18-.35.04-.86.03-.88l-1.8.88s.43.38.61.73c.18.36-.03.48.17.83.2.35.44.22.65.57.21.35-.07.51.15.86.22.34.64-.07.85.27.22.33.14.55.37.88.23.33.08.38.32.71.25.32.47.21.72.52.25.31-.08.6.19.91.27.31.59.01.86.32.27.3.16.41.43.7.27.29.13.42.41.71.28.29.61-.09.89.2.28.28.01.6.3.88.29.28.42.14.71.42.29.27.14.59.36.8l1.34-1.48c-.21-.19-.36.02-.65-.24-.28-.27-.17-.38-.45-.65Z"/>
    <path class="st3" d="M52.98,79.31c-.37-.01-.31.32-.68.29-.38-.04-.55-.36-.91-.44-.36-.07-.39.07-.76-.02-.36-.1-.29-.4-.63-.5-.35-.09-.51.09-.86-.03-.35-.14-.48.49-.83.32-.36-.17-.12-.79-.45-.95-.33-.17-.5-.06-.83-.24-.33-.18.03-.52-.29-.72-.31-.2-.56.17-.88-.05-.31-.22-.28-.27-.59-.49-.31-.23-.12-.51-.42-.74-.3-.23-.64.1-.94-.15-.3-.25-.28-.81-.29-.83l-1.34,1.48s.53.2.84.46c.31.27.15.45.47.71.33.25.49.04.82.28.33.24.13.5.47.75.35.23.56-.32.9-.1.34.22.34.46.71.66.36.2.24.32.61.51.38.18.52-.02.9.15.37.17.23.55.62.71.4.15.53-.25.92-.14.4.11.36.25.76.37.41.09.37.27.79.35.42.08.45-.42.86-.38.4.04.41.45.83.49.42,0,.43-.19.84-.19.41,0,.53.34.85.3l-.15-1.99c-.27.02-.22.3-.59.29-.37,0-.37-.16-.74-.15Z"/>
    <path class="st3" d="M63.44,74.38c-.26.28.04.45-.23.73-.28.28-.66.23-.93.48-.28.26-.18.36-.47.61-.29.25-.49.01-.78.25-.29.22-.21.49-.52.7-.31.21.13.66-.2.87-.34.2-.72-.33-1.04-.16-.33.17-.32.39-.66.54-.34.15-.4-.31-.74-.18-.34.13-.19.55-.54.67-.36.11-.37.06-.73.17-.36.09-.46-.23-.81-.14-.35.06-.32.54-.7.61-.38.06-.76-.36-.78-.35l.15,1.99s.53-.23.94-.31c.41-.07.46.19.87.1.42-.1.35-.37.76-.47.4-.12.49.2.9.07.4-.14.08-.64.46-.79.38-.14.57-.03.95-.2.37-.18.39-.03.77-.22.37-.2.28-.44.64-.65.34-.22.59.12.94-.11.34-.25.08-.59.4-.84.32-.26.41-.14.73-.41.31-.27.44-.13.74-.42.3-.29-.09-.62.19-.9.28-.28.6-.03.88-.32.28-.3.14-.43.41-.73.26-.31.59-.16.79-.41l-1.56-1.25c-.17.22.05.35-.2.64-.25.29-.37.18-.62.46Z"/>
    <path class="st3" d="M68.51,63.34c-.1.38.25.38.15.76-.11.38-.47.51-.58.88-.11.37.02.41-.1.79-.12.38-.41.3-.53.67-.12.37.1.54-.02.91-.12.37.5.45.37.82-.13.37-.78.2-.91.56-.14.36.01.52-.14.87-.15.36-.52.06-.67.4-.15.34.25.53.08.87-.17.34-.22.31-.4.64-.18.33-.48.18-.67.49-.2.3.18.62-.05.93-.22.31-.78.31-.79.33l1.56,1.25s.18-.55.41-.89c.24-.34.44-.2.67-.56.22-.37-.01-.5.19-.87.2-.36.49-.2.68-.58.19-.38-.39-.51-.23-.88.17-.37.39-.41.55-.79.15-.38.27-.28.41-.66.14-.38-.08-.5.06-.88.13-.38.53-.25.66-.63.12-.38-.3-.51-.18-.88.12-.38.26-.34.37-.71.12-.38.3-.32.41-.71.11-.39-.39-.49-.28-.87.11-.38.51-.31.61-.7.1-.39-.09-.44.02-.82.09-.39.44-.4.52-.7l-1.94-.47c-.07.28.2.31.1.69-.09.38-.25.34-.35.71Z"/>
    <path class="st3" d="M70.5,50.96c-.03.39.32.33.29.72-.03.39-.36.6-.39.98-.04.39.1.4.06.79-.04.39-.35.37-.39.75-.04.39.2.51.15.9-.05.39.58.35.52.74-.05.39-.72.35-.78.74-.06.39.11.51.05.89-.06.39-.49.17-.56.56-.07.38.36.47.29.85-.07.39-.13.37-.2.76-.08.38-.4.34-.48.72-.08.38.38.53.29.92-.08.38-.59.64-.6.66l1.94.47s-.08-.55,0-.94c.09-.39.33-.34.42-.73.08-.39-.19-.45-.11-.84.08-.39.41-.32.48-.72.07-.39-.52-.38-.45-.77.07-.39.28-.48.35-.88.06-.39.21-.32.27-.72.06-.4-.18-.48-.12-.87.06-.39.48-.35.53-.75.05-.4-.38-.44-.34-.83.04-.4.19-.38.23-.78.04-.4.23-.38.26-.78.04-.4-.47-.4-.44-.8.03-.4.44-.4.47-.8.03-.4-.17-.41-.14-.81.03-.4.37-.47.38-.77l-2-.11c-.02.29.25.27.23.66-.03.39-.18.38-.2.77Z"/>
    <path class="st3" d="M69.71,38.6c.09.37.4.21.49.59.09.38-.17.67-.09,1.04.07.38.2.35.27.74.06.38-.24.44-.18.82.05.38.33.43.37.82.04.38.64.19.68.59.04.39-.62.51-.59.89.03.38.22.46.24.85.02.39-.45.27-.44.65,0,.38.45.38.44.77,0,.39-.06.38-.07.77-.01.39-.34.4-.35.79-.02.39.46.46.45.86-.02.39-.47.73-.47.76l2,.11s-.18-.53-.16-.92c.02-.4.27-.39.28-.78.01-.4-.26-.41-.25-.81,0-.4.34-.39.34-.8,0-.41-.58-.28-.58-.68,0-.4.18-.53.16-.94-.02-.4.13-.36.1-.77-.03-.41-.28-.43-.32-.83-.04-.4.38-.46.33-.86-.05-.4-.49-.33-.54-.73-.06-.4.08-.42.01-.82-.07-.4.11-.43.04-.83-.08-.4-.57-.25-.66-.64-.09-.39.3-.52.2-.91-.1-.39-.29-.34-.39-.73-.1-.39.19-.57.11-.87l-1.92.57c.08.28.32.17.43.54.1.38-.05.41.05.78Z"/>
    <path class="st3" d="M69.44,36.27c-.11.13-.17.31-.21.48-.04.17-.05.35,0,.52h0s1.92-.57,1.92-.57h0c-.06-.19-.15-.37-.28-.49-.13-.13-.31-.22-.48-.26-.17-.04-.35-.03-.52.02-.17.06-.33.16-.44.29Z"/>
  </g>
  <g>
    <path class="st3" d="M22.92,47.67c0,.14.03.28.1.4.07.11.18.2.3.27.13.07.27.1.4.1.14,0,.29,0,.42-.06.12-.06.21-.17.29-.28l-1.37-.83c-.08.13-.13.27-.14.4Z"/>
    <path class="st3" d="M30.12,42.3c-.3-.05-.28.22-.58.18-.33-.04-.55-.3-.92-.24-.37.05-.33.18-.66.28-.31.13-.43-.1-.74.07-.3.17-.26.39-.52.58-.26.2.12.52-.1.71-.22.19-.61-.16-.84.06-.21.22-.16.38-.36.6-.2.23-.41-.1-.61.14-.2.24.07.46-.11.7-.18.24-.22.21-.4.45-.17.24-.4.08-.56.35-.17.26.13.52-.03.77-.16.25-.6.31-.62.33l1.37.83s.05-.39.2-.63c.15-.24.31-.12.46-.35.15-.23-.01-.37.16-.6.17-.23.38-.06.55-.29.17-.22-.24-.44-.06-.66.18-.22.36-.18.55-.39.19-.21.26-.09.44-.29.2-.18.08-.35.29-.53.21-.18.43.09.62-.06.2-.13,0-.44.23-.56.23-.13.28,0,.5-.1.23-.06.26.06.47.04.2-.04.16-.42.42-.43.25.03.24.36.51.41.28.05.31-.1.59-.04.28.06.29.34.5.38l.35-1.56c-.22-.05-.24.16-.53.1-.29-.06-.26-.18-.56-.24Z"/>
    <path class="st3" d="M31.81,42.99c-.05-.14-.14-.25-.25-.35-.1-.09-.22-.17-.36-.21h0s-.35,1.56-.35,1.56h0c.13.03.27.03.39,0,.12-.04.24-.13.32-.23.09-.1.14-.23.22-.35.07-.12.06-.29.02-.42Z"/>
  </g>
  <g>
    <path class="st3" d="M70.45,38.97c-.12.07-.22.18-.28.31-.06.12-.08.26-.07.41,0,.14.06.27.13.39.07.12.15.24.26.31.11.06.24.09.37.09v-1.6c-.15,0-.29.03-.41.11Z"/>
    <path class="st3" d="M78.65,42.11c-.21-.23-.37,0-.57-.23-.19-.23-.17-.51-.4-.72-.23-.21-.31-.11-.55-.29-.25-.18-.11-.39-.39-.55-.27-.15-.43-.03-.7-.15-.28-.13-.4.35-.66.23-.26-.1-.11-.61-.39-.72-.29-.1-.4.03-.68-.06-.29-.08-.09-.41-.39-.48-.3-.07-.37.27-.66.22-.29-.06-.28-.09-.58-.14-.29-.04-.28-.3-.58-.33-.3-.03-.37.36-.66.34-.29,0-.56-.36-.58-.36v1.6s.35-.16.62-.15c.27.02.25.21.52.24.26.03.29-.2.55-.16.27.04.22.3.47.35.25.05.27-.42.53-.36.26.07.31.23.56.31.25.08.19.18.43.27.24.09.34-.08.59.02.24.11.1.43.33.53.22.11.38-.18.61-.05.23.13.16.24.37.39.21.15.12.26.31.43.18.17.45-.15.64.03.18.2-.04.44.12.62.17.19.28.1.44.31.15.22-.05.41.04.57l1.38-.8c-.12-.2-.28-.07-.45-.33-.18-.25-.07-.32-.27-.57Z"/>
    <path class="st3" d="M79.35,43.82c.08-.11.11-.26.11-.4,0-.14-.01-.28-.09-.42h0s-1.38.8-1.38.8h0c.06.1.14.2.25.25.11.06.25.09.38.1.13,0,.28-.02.41-.08.13-.06.25-.15.33-.26Z"/>
  </g>
  <g>
    <path class="st3" d="M70.19,44.79c-.17.05-.34.14-.46.27-.12.12-.2.28-.24.46-.04.17-.03.35.02.51.05.17.12.35.25.47.13.12.31.19.5.24l.47-1.94c-.18-.04-.37-.05-.54,0Z"/>
    <path class="st3" d="M81.43,47.05c-.38-.05-.34.3-.72.24-.38-.06-.55-.4-.93-.46-.38-.07-.4.07-.78,0-.38-.07-.33-.37-.71-.44-.38-.07-.51.17-.89.1-.38-.07-.38.55-.76.48-.38-.08-.3-.74-.68-.82-.37-.08-.5.08-.88,0-.38-.08-.14-.5-.52-.58-.37-.08-.47.34-.85.26-.38-.08-.36-.14-.74-.22-.37-.09-.32-.41-.7-.49-.37-.09-.54.37-.91.28-.37-.09-.62-.59-.64-.6l-.47,1.94s.54-.08.91,0c.38.09.32.33.7.42.38.09.44-.18.82-.1.38.09.3.41.68.49.38.08.39-.5.76-.42.38.08.46.3.83.38.38.08.3.22.68.3.38.08.47-.15.85-.08.38.08.31.5.69.57.38.07.45-.36.84-.29.38.07.36.21.74.28.38.07.35.25.74.32.39.06.43-.45.81-.39.38.06.36.47.75.52.39.05.41-.14.8-.09.39.05.45.39.74.42l.21-1.99c-.28-.03-.27.24-.65.19-.38-.05-.35-.2-.73-.25Z"/>
    <path class="st3" d="M86.38,42.52c.16.33.44.11.59.45.15.34-.05.66.08,1,.12.34.25.3.35.64.1.34-.2.43-.13.74.05.31.32.36.33.67-.01.29.62.23.55.6-.09.32-.62.13-.8.2-.02,0-.04.02-.06.04-.15.15-.09.34-.33.46-.27.11-.33-.36-.58-.29-.27.06-.22.49-.57.52-.35.03-.35-.02-.71-.02-.37,0-.37-.32-.74-.34-.37-.02-.45.45-.83.43-.38-.03-.69-.5-.71-.5l-.21,1.99s.53-.15.92-.12c.4.03.38.27.78.3.41.02.42-.27.83-.26.4,0,.42.32.86.29.44-.04.23-.59.65-.67.43-.11.6.06,1.09-.18.44-.27.5-.11.88-.51.03-.04.06-.08.08-.1.22-.39.09-.56.21-1,.1-.47.52-.5.52-.99-.03-.49-.47-.42-.54-.83-.08-.41.05-.45-.06-.85-.12-.4.05-.45-.08-.85-.15-.39-.6-.16-.76-.52-.16-.36.21-.57.02-.94-.19-.36-.35-.28-.54-.63-.2-.35.05-.61-.11-.87l-1.71,1.04c.14.23.35.07.53.39.19.32.04.39.21.72Z"/>
    <path class="st3" d="M78.13,34.21c.29.16.4-.18.71.02.31.2.32.58.62.79.31.22.39.11.69.34.31.23.13.48.44.71.31.23.54.08.84.31.29.23.58-.33.88-.08.29.25-.1.79.17,1.03.27.25.46.18.73.44.26.27-.16.49.09.76.25.26.58-.02.82.26.25.28.2.32.44.61.24.29-.02.51.2.8.22.29.63.06.85.37.21.32.02.83.03.85l1.71-1.04s-.45-.34-.68-.67c-.23-.33-.02-.48-.26-.8-.25-.32-.46-.16-.71-.47-.25-.31,0-.52-.26-.83-.27-.31-.61.17-.88-.12-.27-.29-.22-.51-.5-.8-.29-.27-.15-.36-.44-.63-.3-.27-.49-.12-.8-.37-.3-.25-.06-.6-.37-.84-.31-.23-.56.12-.87-.11-.31-.23-.22-.35-.53-.58-.31-.23-.2-.38-.52-.62-.33-.23-.58.21-.91-.01-.33-.22-.15-.59-.53-.8-.39-.2-.48-.03-.88-.18-.4-.14-.42-.49-.73-.57l-.46,1.95c.25.06.29-.2.61-.1.31.12.25.25.54.4Z"/>
    <path class="st3" d="M76.23,33.25c.06.16.19.3.31.41.13.11.27.21.43.25h0s.46-1.95.46-1.95h0c-.2-.05-.4-.05-.57,0-.18.05-.33.17-.45.3-.11.13-.2.29-.23.47-.03.18-.02.36.04.52Z"/>
  </g>
  <path class="st3" d="M49.02,62.86c.73.86,1.58,1.91,2.46,2.38,1.09.48,2.54.73,3.67,0,1.47-1,2.68-2.34,4-3.69.17-.2.53-.04.49.22-.43,2.82-2.01,6.14-5.1,6.82-2.47.53-5.27-.97-5.84-3.44-.15-.42-.62-2.92.33-2.3h0Z"/>
  <g>
    <path class="st3" d="M54.09,67.34c-.07-.08-.18-.16-.32-.24-.13-.07-.3-.13-.47-.18-.17-.05-.34-.07-.49-.07-.15,0-.32,0-.42.05-.1.04-.15.12-.17.2l1.94.47c.02-.07,0-.15-.07-.22Z"/>
    <path class="st3" d="M53.95,71.63c-.03-.14-.36-.05-.38-.2-.02-.15.27-.28.25-.42-.02-.14-.15-.13-.16-.28-.01-.15.29-.17.28-.32,0-.14-.27-.16-.27-.31,0-.15-.62-.09-.62-.25,0-.16.67-.17.67-.31,0-.14-.18-.19-.17-.34.01-.15.47-.06.48-.2.01-.14-.42-.19-.4-.33.02-.15.07-.14.09-.29.02-.15.35-.1.37-.24.03-.14-.44-.25-.41-.4.03-.15.48-.19.48-.19l-1.94-.47s.15.26.12.43c-.03.17-.28.12-.31.29-.03.17.24.22.22.38-.02.17-.35.12-.37.29-.02.17.56.18.54.34-.01.16-.22.2-.23.37,0,.17-.16.14-.17.31,0,.17.24.19.24.36,0,.17-.42.18-.42.35,0,.17.44.15.45.31.01.17-.13.18-.12.35.02.17-.17.19-.15.36.02.17.52.09.55.25.02.16-.37.24-.34.41.03.17.22.13.26.29.04.16-.28.28-.25.41l1.94-.48c-.02-.1-.28-.03-.31-.17-.03-.14.12-.17.09-.32Z"/>
    <path class="st3" d="M53.78,72.58c.13-.07.22-.16.29-.24.07-.08.11-.15.1-.22h0s-1.94.48-1.94.48h0c.02.08.08.15.17.2.1.04.25.06.41.06.15,0,.33-.03.5-.08.17-.05.34-.12.47-.19Z"/>
  </g>
  <ellipse class="st4" cx="38.71" cy="53.21" rx="2.73" ry="1.64" transform="translate(-25.99 41.23) rotate(-43.48)"/>
  <ellipse class="st4" cx="53.74" cy="73.7" rx="2.41" ry="1.22" transform="translate(-12.08 10.56) rotate(-10.09)"/>
  <ellipse class="st4" cx="63.95" cy="51.97" rx="1.64" ry="2.73" transform="translate(-18.26 57.64) rotate(-43.05)"/>
  <g>
    <path class="st3" d="M19.37,57.29c-.07-.13-.18-.25-.32-.36-.13-.1-.3-.17-.47-.2-.18-.04-.35-.02-.51.03-.16.06-.34.13-.45.28-.1.14-.16.35-.16.56l2,.08c0-.13-.02-.26-.09-.39Z"/>
    <path class="st3" d="M19.16,64.63c0-.18-.41-.08-.35-.33.08-.25.47-.31.56-.46.11-.18-.04-.2.14-.44.2-.24.43-.05.63-.26.2-.21.08-.45.31-.65.23-.19-.23-.61.04-.81.28-.23.65.44,1.14-.08.26-.32.28-.79.11-1.1-.17-.3-.4-.44-.62-.58-.4-.22-.07-.56-.45-.72-.33-.13-.5.28-.76.17-.2-.1-.18-.14-.35-.27-.09-.08-.04-.2,0-.3.04-.08.07-.15.05-.22-.05-.14-.53-.03-.58-.32-.04-.3.4-.56.4-.56l-2-.08s.19.54.27.95c.09.41-.15.52.05.99.08.17.17.26.26.31.17.09.3.12.52.32.36.28.18.55.66.78.39.17.48-.42.8-.3.29.11.36.36.43.41-.1-.02-.3-.39-.17-.54.02-.02,0,.08-.02.17-.02.09-.08.19-.23.31-.3.22-.58-.1-.88.16-.29.27.02.57-.23.84-.25.27-.36.18-.59.47-.23.31-.43.26-.68.68-.24.45.29.52.15.9-.11.38-.56.46-.52.92,0,.09.03.16.05.21.13.23.26.25.45.54.28.31.1.59.41.8l1.49-1.5c-.11-.06-.33.14-.5,0-.14-.15,0-.23-.02-.39,0,0,0-.02,0-.03Z"/>
    <path class="st3" d="M25.95,73.72c.04-.09-.3-.18-.19-.41.12-.21.52-.28.66-.53.05-.09.07-.15.06-.2,0-.08-.03-.14.04-.28.1-.22.46-.27.52-.51.05-.24-.21-.21-.17-.43,0-.22-.57.05-.6-.15-.08-.18.48-.51.32-.69-.18-.16-.39-.07-.59-.17-.21-.09.26-.39.02-.5-.26-.11-.59.26-.83.2-.25-.05-.22-.1-.48-.15-.26-.04-.14-.35-.45-.4-.32-.05-.44.42-.6.38-.18-.04-.19-.5-.19-.5l-.65,1.89s.38-.09.59-.05c.24.05.13.28.23.3.09.01.2-.25.33-.23.13.02-.08.32,0,.34.08.02.5-.5.65-.47.15.03,0,.21.11.24.12.04-.07.16.02.21.08.06.43-.09.48.04.02.14-.59.35-.62.43-.04.08.54-.06.47.07-.07.12-.25.14-.31.24-.04.06-.13.09-.21.11-.05.02-.1.04-.12.07-.05.08.48.18.4.32-.08.16-.43-.06-.54.21-.09.3.08.35.07.7,0,.19-.04.31-.09.44-.05.13-.09.26-.02.39l1.77-.94s-.23.1-.26.07c0-.01.15.02.16-.03Z"/>
    <path class="st3" d="M30.37,82.64c-.2,0-.19.32-.41.3-.23-.04-.27-.37-.46-.43-.19-.07-.24.06-.44-.03-.19-.1-.05-.37-.21-.47-.16-.11-.36.08-.52-.06-.16-.14-.52.36-.7.18-.18-.18.31-.65.18-.81-.13-.17-.3-.11-.42-.3-.1-.2.34-.34.26-.51-.08-.17-.48-.02-.55-.22-.05-.21,0-.22-.04-.42-.02-.2.29-.24.3-.4,0-.16-.47-.23-.44-.45.04-.22.52-.3.52-.3l-1.9-.62s.08.44.03.74c-.04.31-.3.29-.3.64,0,.35.29.33.33.64.05.31-.26.37-.18.7.11.31.61.03.72.29.11.26-.01.43.14.69.16.25.01.31.19.55.19.24.4.11.6.32.2.21-.08.52.17.73.26.19.5-.16.75,0,.25.16.18.28.45.42.28.12.21.3.51.41.31.09.41-.4.68-.35.27.06.25.45.56.49.31,0,.31-.17.61-.19.29-.01.41.3.65.27l-.34-1.97c-.15.02-.09.28-.31.3-.22.01-.21-.14-.42-.15Z"/>
    <path class="st3" d="M38.43,83.89s-.1.33-.15.32c-.05-.01-.01-.31-.06-.33-.05-.01-.08.12-.13.1-.05-.01.03-.31-.01-.32-.04-.01-.13.23-.18.22-.05-.01-.22.58-.27.56-.05-.02.16-.65.11-.67-.04-.02-.12.15-.17.13-.05-.02.14-.44.1-.46-.04-.02-.21.39-.26.37-.05-.02-.02-.07-.07-.09-.05-.02.09-.32.05-.34-.04-.02-.26.41-.31.39-.05-.02.12-.43.12-.43l-.96,1.75s.17-.14.23-.11c.06.03-.05.25.01.28.06.03.18-.22.24-.19.06.03-.08.33-.01.36.06.03.27-.51.33-.49.06.02,0,.22.07.24.06.02,0,.16.06.19.06.02.15-.2.21-.18.06.02-.07.43,0,.45.07.02.19-.4.25-.38.06.02.02.16.09.17.06.02.02.2.08.22.07.02.17-.48.23-.47.06.01-.01.41.05.42.07.01.1-.18.16-.17.06.01.03.35.08.36l.28-1.98s-.07.25-.12.24c-.05,0-.02-.16-.07-.17Z"/>
    <path class="st3" d="M44.47,86.36s-.09.33-.1.32c-.01,0,.07-.3.06-.31,0,0-.05.13-.05.12,0,0,.08-.3.07-.3,0,0-.09.25-.09.24l-.2.58.18-.64s-.07.17-.08.17c0,0,.14-.44.14-.44,0,0-.15.41-.16.41,0,0,0-.05,0-.06,0,0,.1-.31.1-.31,0,0-.18.45-.19.44-.01,0,.14-.41.14-.41l-.74,1.86s.1-.18.11-.18c.01,0-.07.24-.06.25.02,0,.11-.25.13-.25.01,0-.1.32-.08.32.02,0,.2-.54.22-.53.01,0-.05.19-.03.2.01,0-.04.15-.02.15.02,0,.09-.22.11-.22.01,0-.11.41-.1.42.02,0,.14-.41.16-.41.01,0-.03.14-.01.15.01,0-.04.19-.02.19.02,0,.15-.49.16-.48.01,0-.09.4-.07.4.02,0,.06-.18.08-.18.01,0-.06.33-.05.33l.48-1.94s-.07.25-.08.25c0,0,.03-.15.02-.15Z"/>
    <path class="st3" d="M55.17,91.96c-.18-.3-.44-.07-.61-.43-.09-.19-.07-.35-.06-.51.01-.08.03-.16.03-.24,0-.06,0-.17-.03-.32-.11-.56-.21-.53-.26-1.12-.05-.56.22-.89.08-1.36-.15-.42-.33-.19-.5-.56-.06-.09-.14-.12-.2-.1-.11.03-.2.13-.3.21-.1.07-.21.14-.37.17-.38.18-.24-.54-.65-.35-.4.22-.51.55-.91.88-.41.37-.38-.3-.87.16-.25.22-.33.42-.38.61-.01.14-.05.31-.18.38-.25.13-.26.09-.52.14-.14.03-.21-.09-.26-.17-.05-.09-.08-.17-.17-.2-.16-.08-.45.32-.68.11-.22-.23-.07-.78-.07-.78l-1.68,1.08s.56.49.93.81c.44.36.33.6.91.84.23.08.39.05.52.03.21-.09.35-.14.69-.22.55-.12.65.19,1.23-.11.45-.3,0-.68.26-.88.24-.2.36-.05.55-.23.2-.19.16.04.33-.11.17-.14.28-.58.54-.71.16-.04.14.24.1.49-.04.2-.08.38-.07.47.02.18.38-.41.38-.11,0,.29-.12.43-.1.68.04.27-.15.33-.08.59.01.05.06.11.14.18.07.05.15.09.22.12.15.06.31.11.4.32.18.4-.17.61.07,1.03.27.42.41.31.78.71.2.2.34.38.51.55.18.16.43.33.83.28l-.26-1.98c.16-.02.11.31-.04.2-.18-.17-.07-.28-.24-.54Z"/>
    <path class="st3" d="M61.89,89.24c-.08.03.04.37-.08.35-.05-.03-.07-.14-.06-.27-.03-.17-.09-.5-.21-.77-.25-.57-.34-.43-.58-.89-.25-.42-.13-.79-.45-1.11-.16-.15-.29-.13-.42-.14-.13,0-.28-.02-.53-.01-.49.08-.3.68-.62.96-.26.33-.5-.38-.82.02-.3.43-.25.75-.48,1.22-.23.49-.5-.02-.76.58-.27.64.17.72,0,1.12-.16.38-.21.36-.38.73-.17.36-.47.25-.64.57-.17.3.21.61,0,.88-.1.12-.29.13-.36.04-.08-.09-.03-.21-.03-.21l.26,1.98s.39-.11.65-.34c.26-.22.45-.5.61-.7.3-.41.5-.28.74-.7.22-.42-.04-.54.15-.93.18-.4.48-.26.64-.65.15-.37-.4-.54-.28-.82.12-.29.31-.24.42-.47.11-.25.19-.05.3-.26.11-.2.02-.59.2-.82.21-.2.28.53.46.55.17.07.27-.67.42-.42.13.26.06.46.15.7.1.25-.02.43.07.62.12.19.41-.19.81.24.22.2.37.36.57.51.2.13.48.24.85.11.33-.14.42-.28.51-.4.09-.12.15-.25.33-.42.33-.35.66-.24.87-.53l-1.62-1.17c-.16.22.07.35-.17.63-.23.24-.36.14-.51.24Z"/>
    <path class="st3" d="M69.56,85.81c-.04.07.27.22.23.3-.04.08-.34-.05-.38.02-.04.07.07.14.02.21-.05.06-.3-.12-.34-.07-.04.05.15.24.09.3-.05.05.41.46.34.53-.07.07-.53-.41-.58-.37-.05.04.06.19,0,.24-.06.04-.28-.37-.32-.35-.04.02.16.42.1.45-.06.03-.08-.03-.14,0-.06.03-.15-.3-.19-.29-.04,0,.03.5-.04.51-.08,0-.15-.43-.15-.43l.03,2.02s.18-.21.31-.22c.13-.03.17.22.32.18.15-.03.08-.3.2-.35.12-.05.24.26.38.2.14-.07-.15-.57-.05-.63.1-.06.25.09.36,0,.11-.08.19.04.3-.04.1-.08-.05-.27.03-.36.08-.08.39.21.49.11.09-.1-.25-.38-.18-.47.07-.09.19,0,.26-.1.07-.1.22.01.29-.09.07-.1-.37-.36-.31-.45.05-.09.41.1.47,0,.05-.1-.12-.19-.07-.29.05-.1.36.01.4-.07l-1.84-.79c-.02.05.22.15.19.23-.04.07-.18,0-.21.08Z"/>
    <path class="st3" d="M77.09,72.64c-.17.15.09.4-.19.53-.3.1-.51-.17-.92-.12-.4.05-.39.18-.83.23-.45.06-.51-.25-1.03-.12-.52.16-.59.45-1.06.78-.41.33.02.64-.09.92,0,.04-.02.09-.05.14-.21.37-.87.27-.97.84-.05.55.16.66.21,1.14.09.46-.41.4-.29.86.12.47.55.34.68.76.14.42.09.43.24.84.15.4-.15.54,0,.92.13.37.62.28.72.66.06.19-.03.38-.11.51-.1.12-.21.15-.21.16l2,.04c.01-.09-.25-.79-.4-1.19-.13-.44.1-.52-.05-.94-.15-.41-.41-.31-.56-.71-.14-.39.17-.5.04-.88-.12-.37-.64-.09-.74-.48-.11-.39.07-.55.02-.9-.04-.35.13-.31.15-.61.06-.26-.19-.35-.04-.62.01-.03.03-.05.05-.07.2-.12.45.1.59,0,.16-.09,0-.5.34-.6.36-.08.38.06.77.01.41-.05.42.15.87.09.47-.07.33-.55.82-.68.47-.16.76.17,1.24-.2.33-.29.28-.49.37-.71.02-.09.05-.2.1-.34.15-.52.48-.62.47-1.11l-2,.03c0,.15.29.17.24.44-.03.13-.1.17-.15.2-.07.03-.14.06-.22.15Z"/>
    <path class="st3" d="M80.27,62.08c-.02.23.33.26.21.56-.07.14-.22.19-.35.22-.16.06-.41.24-.55.5-.26.53-.11.55-.24,1.07-.08.51-.39.54-.37,1.07.04.46.3.53.28.62-.03.03.5.44.19.64-.18.08-.29-.07-.45-.22-.18-.15-.41-.31-.71-.29-.58.08-.59.24-1.05.46-.42.29-.64-.11-.96.4-.24.55.22.75.24,1.26.08.53.04.53.21,1.08.09.27.07.44.05.61-.03.14-.07.27,0,.46.14.38.62.26.73.64.06.18-.01.4-.1.52-.09.11-.2.16-.19.17l2-.03s-.07-.24-.16-.49c-.1-.21-.21-.46-.28-.68-.14-.44.09-.53-.07-.94-.16-.43-.4-.27-.5-.53-.09-.26.27-.24.23-.41-.02-.18-.7-.36-.65-.68.11-.29.41-.22.65-.29.27-.05.34.12.57.11.12,0,.17-.07.23-.14.1-.08.29-.16.59-.31.31-.17.49-.24.71-.33.19-.09.45-.26.53-.71.06-.42-.08-.55-.19-.66-.12-.12-.24-.21-.25-.4-.01-.36.13-.34.19-.65.08-.3.27-.28.37-.49.11-.19-.31-.44.03-.85.27-.42.67-.34.78-.95.05-.62-.17-.55-.19-1.02-.03-.44.29-.57.26-.9l-1.99.19c.03.31.29.25.32.66.02.39-.13.44-.13.73Z"/>
    <path class="st3" d="M83.4,51.31c.04.24.38.16.38.48-.03.33-.41.36-.57.5-.09.08-.12.14-.14.21-.06.09-.14.19-.33.37-.37.38-.65.23-.94.77-.24.56-.02.78-.08,1.3-.02.51.59.34.62.79.05.42-.58.65-.42,1.15.17.47.41.5.58.87.08.17-.02.25-.13.29-.06.01-.11.04-.16,0-.03-.02-.05-.05-.05-.1-.02-.08,0-.15.04-.26.1-.21.26-.28.35-.29.1,0,.13.05.14.1,0,.11-.18.22-.45.21-.56,0-.58-.07-1.09.04-.24.07-.42.08-.59.11-.16.04-.37.09-.49.35-.18.52.31.84.34,1.36.04.5-.33,1.07-.33,1.11l1.99-.19s-.24-.3-.27-.58c-.02-.26.22-.12.25-.31.1-.16-.13-.43.13-.47.27,0,.43.34.62.35.1,0,.07-.14.19-.3.03-.07.08-.16.17-.25.07-.09.22-.17.39-.36.17-.19.23-.43.25-.6.01-.17,0-.29,0-.4-.02-.21-.05-.38-.14-.57-.17-.37-.02-.38-.14-.71-.1-.31-.35-.3-.39-.65-.02-.34.41-.41.43-.67.04-.24-.39-.35-.26-.66.16-.27.26-.17.47-.39.12-.11.22-.13.35-.17.15-.06.31-.12.53-.34.4-.49-.07-.69.08-1.16.08-.49.49-.52.41-1.14-.11-.56-.3-.46-.45-.92-.16-.43.1-.67-.05-.99l-1.8.86c.12.26.35.12.5.48.13.36-.02.4.07.73Z"/>
    <path class="st3" d="M82.83,49.04c-.08.16-.1.35-.1.53,0,.18.02.36.1.53h0s1.8-.86,1.8-.86h0c-.09-.2-.23-.38-.39-.5-.16-.12-.36-.18-.54-.19-.17-.01-.36.03-.51.12-.16.09-.28.23-.36.38Z"/>
    <g>
      <path class="st3" d="M22.93,69.21l-.02-.02h-.01s0-.02,0-.02h0s0,0,0,0l-.03-.06h0s0-.02,0-.02h0s0,0,0,0h0s0,.02,0,.02h0s0,.02,0,.02h0s0,0,0,0h0s0,0,0,0h0s0,0,0,0h0s0,0,0,0h0s0,0,0,0h0s0,0,0,0h0s0-.01,0-.01h0s0,0,0,0h0s0-.02,0-.02l.02-.13v-.04s0-.04,0-.04v-.08c-.01-.05-.02-.11-.03-.17v-.09s-.02-.05-.02-.05v-.05s0-.05,0-.05v-.05s.02-.05.02-.05l.02-.05.02-.06.03-.06.07-.12c.06-.08.13-.16.19-.24l.1-.12.09-.12.08-.11.03-.06.03-.05.04-.1.03-.09.04-.16.03-.16.02-.09.03-.1v-.05s.02-.02.02-.02h0s0-.02,0-.02h0s-.1-.01-.15-.02c-.11-.01-.22-.02-.34-.03-.12-.01-.23-.02-.34-.03-.05,0-.1-.02-.15-.02h-.07s-.06-.03-.06-.03l-.05-.02-.05-.02-.04-.03-.04-.03-.06-.06-.05-.06-.05-.06-.03-.03-.03-.03-.04-.03-.04-.03-.05-.02-.05-.02c-.33-.1-.77-.23-1.1-.33l-.06-.02h-.06s-.11-.03-.11-.03h-.1s-.1,0-.1,0h-.1s-.1,0-.1,0l-.11-.02h-.06s-.03-.02-.03-.02h-.02s-.04-.03-.04-.03l-.04-.02-.04-.03-.03-.03-.03-.03-.03-.04-.05-.07s-.06-.1-.08-.14l-.02-.03-.03-.03-.03-.02-.03-.02-.77.77-.36.36-.36.36c.06.03.1.06.15.09l.03.02h.03s.06.04.06.04c.04.02.07.03.11.05.04.02.07.03.11.05l.06.03.06.03s.08.02.13.03c.09.02.18.04.28.05l.16.03c.06.01.11.03.17.04.06.02.12.04.2.06.03,0,.06.02.09.03.03.01.06.02.09.04.06.02.14.06.24.09.1.03.21.07.32.11.11.04.22.07.31.1l.07.02h.03s0,.01,0,.01h0s0,0,0,0l.22.81h0s0,.08,0,.11c0,.08,0,.15,0,.21,0,.08,0,.16-.01.23,0,.09,0,.17,0,.25v.14s.01.07.01.07v.07s.03.14.03.14l.04.14.02.07.03.07.06.12s.06.09.09.14l.04.06.04.05s.06.07.09.1c.03.04.05.07.08.11.03.04.05.08.08.12l.09.12.09.12.1.1s.07.07.11.1l.03.02.03.02.06.03s.08.04.13.07l.08.04.08.04.17.08c.06.02.11.04.16.06l.16-.47.16-.47.32-.95-.08-.02-.07-.02s-.1-.02-.15-.03h-.04s-.03-.02-.03-.02l-.07-.02-.06-.03h-.01s0-.01,0-.01h0s-.02-.03-.02-.03Z"/>
      <path class="st0" d="M18.38,68.96c-.61-1.13-.59-1.09-.92-1.69h0s0,0,0,0h0s0,0,0,0h.01s.02-.03.02-.03l.05-.05.09-.09.18-.18.36-.36.72-.73,1.54-1.55.07.02.23.05.24.05.5.08.52.07.27.03h.14s.07.02.07.02h.06s.97.04.97.04l4.76-.12-3.25,3.48-.35.39-.31.38-.13.18-.11.17-.05.08-.04.07-.03.06-.02.04v.02s-.01,0-.01,0h0s0,0,0,0h0s0,0,0,0h0s0-.01,0-.01v-.06s.02-.05.02-.05v-.07s0-.1,0-.1v-.11s-.04-.13-.04-.13l-.02-.07-.03-.07-.03-.08-.04-.07v-.03s-.02-.02-.02-.02h-.01s-.01-.03-.01-.03v-.02s-.03-.01-.03-.01v-.02s-.03-.01-.03-.01h0s0,0,0,0h0s0-.01,0-.01h0s0,0,0,0h0s0,0,0,0h0s0,0,0,0h0s0,0,0,0h0s.01,0,.01,0h.01s.05.02.05.02l-.65,1.89-.32.95-.16.47-.08.24-.04.12-.02.06v.03s-.02.01-.02.01h0s0,.01,0,.01h0s0,0,0,0c-2.75-2.17-2.66-2.1-4.13-3.25Z"/>
    </g>
    <g>
      <path class="st3" d="M27.54,78.09l.03-.08.04-.08.09-.17.09-.17.04-.09.03-.09v-.04s.02-.04.02-.04v-.04s0-.04,0-.04v-.07s-.03-.07-.03-.07l-.02-.07v-.07s-.02-.04-.02-.04v-.04s0-.04,0-.04v-.04s.02-.04.02-.04l.02-.04.05-.09c.04-.06.08-.12.13-.18l.06-.09.06-.09.02-.04.02-.04v-.04s.02-.04.02-.04v-.08s.01-.07.01-.07v-.13s-.02-.13-.02-.13v-.04s0-.04,0-.04v-.08s0-.04,0-.04v-.02s0,0,0,0h0s0,0,0,0l-.05-.02-.05-.02c-.07-.02-.15-.04-.23-.07-.08-.02-.16-.05-.23-.07l-.1-.04-.04-.02-.04-.02-.03-.03-.03-.03-.02-.03-.02-.03-.03-.07-.02-.07-.03-.07-.03-.06-.02-.03-.02-.03-.03-.03-.03-.03c-.1-.06-.21-.14-.32-.21l-.16-.11c-.05-.04-.1-.07-.14-.1-.02-.01-.04-.03-.06-.04h-.03s-.03-.03-.03-.03l-.06-.02h-.06s-.06-.02-.06-.02l-.06-.02-.06-.02h-.02s-.01-.02-.01-.02l-.03-.02-.02-.03-.02-.03-.02-.03v-.03s-.02-.07-.02-.07v-.07s0-.03,0-.03h0s0-.02,0-.02v-.02s.02-.05.02-.05v-.02s0,0,0,0h0s0,0,0,0h0s0-.01,0-.01h0s0,0,0,0l-.88.47-.44.23-.44.23s.03.05.04.08l.04.06.04.05.04.04.07.07s.04.05.07.08l.03.04.04.04.02.02h.02s.04.04.04.04c.05.03.12.06.18.1.06.04.13.07.2.12l.05.04.06.04s.07.06.12.1c.04.03.1.08.16.14.07.05.14.1.22.16.07.05.15.1.21.15l.05.03.02.02h0s0,0,0,0h0s.2.47.2.47h0s0,.04,0,.04v.03s0,.05,0,.05v.05s0,.05,0,.05v.05s-.04.1-.04.1l-.04.09c-.03.06-.05.11-.08.16l-.03.07v.03s-.02.03-.02.03v.03s-.02.03-.02.03l-.02.03-.02.03-.05.05-.05.05s-.07.08-.1.11l-.02.03-.02.03-.02.03v.03s-.05.1-.08.17l-.04.1s-.02.07-.04.1l.48.15.48.15.95.31.02-.06v-.07c.02-.05.02-.1.03-.16l.02-.17.02-.09.02-.08Z"/>
      <path class="st0" d="M24.17,76.99c-.52-1.28-.5-1.23-.78-1.92h0s0,0,0,0h0s0,0,0,0h.01s.03-.02.03-.02l.06-.03.11-.06.22-.12.44-.23.88-.47,1.77-.94-.02-.04-.03-.04h0s0-.02,0-.02h0s-.01-.03-.01-.03l-.02-.02-.02-.02h0s0,0,0,0h0s0,0,0,0h0s0,0,0,0h0s0,0,0,0h0s0,0,0,0h0s0,0,0,0h.02s.02.02.02.02l.07.04h.02s.02.02.02.02l.05.02.05.02.06.02.12.05.28.1.3.09.32.08.33.07,3.26.6-2.05,2.6-.35.55-.36.55-.18.34-.15.3-.12.28-.05.13-.04.12-1.9-.62-.95-.31-.48-.15-.24-.08-.12-.04-.06-.02h-.03s-.01-.01-.01-.01h0s0,0,0,0h0s0,0,0,0c-.27-.54-.26-.52-.41-.81Z"/>
    </g>
    <g>
      <path class="st3" d="M36.56,83.08l-.08-.05-.04-.03-.04-.03-.14-.14-.14-.14-.07-.06-.07-.06-.04-.02-.04-.02h-.04s-.04-.03-.04-.03l-.08-.02h-.08s-.08-.02-.08-.02l-.08-.02h-.04s-.04-.03-.04-.03l-.04-.02-.04-.03-.04-.03-.04-.04-.03-.04-.03-.04-.06-.1-.06-.1c-.04-.07-.08-.14-.12-.2l-.06-.09-.03-.04-.03-.03-.06-.05-.06-.04-.12-.06-.12-.06-.06-.04-.07-.05-.03-.02h-.02s0-.01,0-.01h0s0,0,0,0l-.04.04-.04.04c-.05.06-.11.13-.17.2l-.09.1-.09.09-.09.08-.04.03-.04.02-.04.02h-.04s-.04.02-.04.02h-.04s-.07,0-.07,0h-.07s-.07-.02-.07-.02h-.07s-.04,0-.04,0h-.04s-.04.02-.04.02h-.04c-.06.04-.11.07-.18.09l-.05.02-.05.02-.1.04c-.06.03-.13.05-.19.08-.06.02-.12.04-.18.06l-.04.02-.04.02-.07.04-.06.04-.05.05-.05.05-.03.02-.03.02-.07.04-.04.02h-.04s-.04.02-.04.02h-.04s-.02,0-.02,0h-.02s-.05-.01-.05-.01l-.09-.02-.09-.03c-.06-.02-.13-.04-.19-.06h-.05s-.05-.01-.05-.01h-.05s-.05,0-.05,0l.17.99.09.49.09.49h.06s.05-.03.05-.03c.03-.01.06-.02.08-.03l.07-.02s.05-.01.08-.02h.04s.04-.02.04-.02l.04-.02.04-.02s.1-.06.16-.1l.09-.05s.07-.03.11-.05l.06-.02.07-.02.07-.02s.05-.01.08-.02c.03,0,.06-.01.09-.02.04-.01.08-.02.12-.04.09-.03.18-.06.28-.09.09-.04.19-.07.27-.1l.06-.02h.03s0-.01,0-.01h0s0,0,0,0l1.12.11h0s.03,0,.03,0h.03s.06.03.06.03l.06.03.06.03.05.03.1.07.09.08c.06.05.12.1.17.14l.07.06.04.02.04.02.03.02.03.02.03.03.03.03.05.06.05.07.05.07.06.07.06.06.03.03.04.02c.08.05.26.16.39.24l.24-.44.24-.44.48-.88-.07-.03-.07-.03c-.05-.02-.11-.04-.16-.05l-.17-.06-.04-.02-.04-.02-.08-.04Z"/>
      <path class="st0" d="M33.82,86.18c-1.48-.49-1.43-.47-2.21-.73h0s0,0,0,0h0s0-.01,0-.01v-.02s0-.03,0-.03v-.06s-.03-.12-.03-.12l-.04-.25-.09-.49-.17-.99-.34-1.97.12-.03h.06s.03-.02.03-.02h.03s.12-.05.12-.05l.12-.05.06-.02h.03s.03-.03.03-.03l.12-.06h.03s.03-.03.03-.03l.06-.03.11-.07.11-.08.05-.04.05-.04.1-.08.09-.09.05-.05h.01s.01-.02.01-.02l.02-.03.09-.1.02-.02.02-.03.04-.05.08-.11,2.08-3.08,1.43,3.43.06.13.07.13.07.13.08.13.08.13.09.12.05.06.05.06.05.06.05.06.1.11.11.1.03.03.03.02.06.05.05.05.03.02.03.02.11.09.03.02.03.02.06.04.06.04.03.02.03.02.12.07-.96,1.75-.48.88-.24.44-.12.22-.06.11-.03.05-.02.03h0s0,.02,0,.02h0s0,0,0,0h0c-1.29.14-1.25.14-1.93.21Z"/>
    </g>
    <g>
      <path class="st3" d="M43.72,86.02l-.06-.04-.03-.02h-.01s-.01-.03-.01-.03l-.11-.12-.05-.06-.05-.06-.05-.06-.05-.05-.03-.02-.03-.02-.03-.02h-.03s-.09-.04-.14-.06l-.07-.02-.07-.03-.03-.02-.03-.02-.03-.03-.03-.03v-.02s-.03-.02-.03-.02l-.02-.04-.04-.09-.03-.11-.02-.11c-.01-.07-.02-.15-.03-.22l-.02-.1-.02-.04-.02-.04-.04-.07-.04-.06-.08-.1-.08-.1-.02-.03-.02-.03-.04-.08-.02-.04v-.02s-.02,0-.02,0h0s0,0,0,0l-.05.02-.06.02c-.08.03-.16.07-.24.1l-.13.05-.12.04-.06.02h-.06s-.05.02-.05.02h-.05s-.04,0-.04,0h-.04s-.04-.02-.04-.02h-.04s-.07-.05-.07-.05l-.06-.04-.06-.04-.07-.03h-.04s-.04-.02-.04-.02h-.04s-.04,0-.04,0c-.13,0-.27,0-.42,0-.15,0-.29,0-.42,0h-.05s-.04,0-.04,0h-.04s-.04.01-.04.01l-.07.02-.07.03-.15.04h-.08s-.04.02-.04.02h-.05s-.05,0-.05,0h-.05s-.04-.03-.04-.03l-.04-.02-.09-.05-.08-.06-.08-.06-.08-.05-.04-.02-.05-.02h-.05s-.05-.02-.05-.02l-.14.99-.07.5-.07.5h.06s.05,0,.05,0c.03,0,.06,0,.09,0h.08s.04,0,.04,0h.04s.04.01.04.01h.04s.08,0,.08,0c.05-.01.11-.03.18-.04l.1-.02s.07,0,.12,0c.04,0,.08,0,.13,0h.08s.05.01.08.02c.05,0,.13.01.21.02.04,0,.09,0,.14,0h.15c.1,0,.2.01.28.02h.06s.03,0,.03,0h0s0,0,0,0h0s1.25.76,1.25.76h0s.05.03.07.04l.06.04.06.04s.07.06.11.09l.1.1.1.1c.06.06.13.12.18.18l.08.07.04.03.04.02.04.02.04.03.03.03.03.03s.08.09.12.15l.06.08.03.04.04.03.08.06.04.03.04.02s.13.07.21.11l.13.06s.09.04.12.05l.18-.47.18-.47.37-.93h-.03s-.03-.02-.03-.02l-.06-.02s-.09-.02-.14-.03l-.07-.02h-.04s-.04-.02-.04-.02l-.07-.03-.03-.02h-.02s-.02-.02-.02-.02Z"/>
      <path class="st0" d="M39.46,88.33c-.84-1.03-.81-.99-1.26-1.54h0s0,0,0,0h0s0-.01,0-.01v-.02s0-.03,0-.03v-.06s.03-.12.03-.12l.04-.25.07-.5.14-.99.28-1.98.29.03h.15s.07,0,.07,0h.04s.04,0,.04,0h.15s.04,0,.04,0h.04s.08-.01.08-.01l.15-.02.15-.03h.08s.08-.03.08-.03l.15-.04.15-.05.15-.05.15-.06.14-.06.13-.06.1-.05,3.24-1.86-.25,3.73v.06s0,.1,0,.1v.1s.03.1.03.1l.02.09v.04s.02.02.02.02v.02s.02.04.02.04h0s0,.02,0,.02v.02s.02.03.02.03l.02.03.02.03.02.03.02.03.02.02.02.02.02.02.02.02h0s0,.01,0,.01h.01s.02.03.02.03h0s0,0,0,0h.01s.03.03.03.03l.03.02.03.02h.03s.03.03.03.03h.04s-.74,1.87-.74,1.87l-.37.93-.18.47-.09.23-.05.12-.02.06v.03s-.02.01-.02.01h0s0,.01,0,.01h0s0,0,0,0c-2.47-.42-2.39-.41-3.71-.64Z"/>
    </g>
    <g>
      <path class="st3" d="M47.93,88.18l-.03-.05-.03-.05-.05-.12-.05-.12-.03-.05-.04-.05-.02-.02-.02-.02h-.03s-.03-.03-.03-.03l-.06-.02h-.06s-.07-.03-.07-.03l-.06-.02h-.03s-.03-.02-.03-.02l-.03-.02-.02-.02-.02-.02-.02-.03-.02-.03v-.03s-.04-.07-.04-.07l-.02-.07-.02-.07-.03-.07-.02-.03-.02-.03-.02-.02-.02-.02-.05-.03-.05-.03-.1-.04-.1-.03-.05-.02-.05-.03h-.03s-.02-.02-.02-.02h0s0,0,0,0h-.04s-.04,0-.04,0l-.08.02-.08.02-.08.03h-.04s-.04.02-.04.02h-.07s-.03,0-.03,0h-.03s-.03-.02-.03-.02h-.03s-.03-.03-.03-.03l-.02-.02-.04-.05-.04-.05-.04-.05-.04-.04-.02-.02-.02-.02h-.02s-.03-.02-.03-.02c-.04,0-.07-.02-.11-.03l-.12-.03-.12-.03s-.07-.02-.11-.03h-.02s-.02,0-.02,0h-.02s-.02,0-.02,0h-.04s-.04.03-.04.03l-.04.02-.04.02h-.02s-.02,0-.02,0h-.02s-.02,0-.02,0h-.02s-.02-.02-.02-.02l-.02-.02-.02-.02-.02-.03-.02-.03-.04-.06-.04-.06-.04-.05-.02-.02-.02-.02h-.02s-.01-.02-.01-.02h-.01s-.24.97-.24.97l-.12.49-.12.49s.05,0,.07.01c.02,0,.04,0,.06,0h.05s.03,0,.05.01h.03s.03,0,.03,0h.03s.03,0,.03,0c.04,0,.08-.02.12-.03h.07s.04-.02.04-.02h.04s.04,0,.04,0h.05s.05.02.05.02l.05.02s.08.02.14.04l.09.02.1.02c.07.01.13.03.19.04h.04s.02.01.02.01c.18.06.35.11.52.17h0s.03,0,.03,0h.02s.04.03.04.03l.04.02.03.02.03.03.02.03.02.03.04.06s.04.08.06.11l.03.05.02.02.02.02.02.02v.02s.02.02.02.02v.02s.01.05.01.05v.05s0,.06,0,.06v.05s0,.03,0,.03v.02s.02.02.02.02v.02c.04.05.11.16.15.23l.42-.27.42-.27.84-.54v-.02s-.03-.02-.03-.02l-.04-.03s-.06-.05-.09-.07l-.1-.08-.04-.04-.02-.02-.02-.02Z"/>
      <path class="st0" d="M45.26,89.95c-.96-.52-.93-.5-1.45-.78h0s0,0,0,0h0s0-.01,0-.01v-.02s.01-.03.01-.03v-.06s.04-.12.04-.12l.06-.24.12-.49.24-.97.48-1.94h.05s.05.02.05.02h.02s.01,0,.01,0h.01s.05,0,.05,0h.1s.05,0,.05,0h.03s.03,0,.03,0h.05s.01,0,.01,0h.01s.03,0,.03,0h.05s.05-.03.05-.03h.03s.03-.02.03-.02l.05-.02.11-.05,2.02-.99.74,2.12.17.46.18.43.09.2.1.19.1.18.05.08.05.08-1.68,1.08-.84.54-.42.27-.21.14-.11.07-.05.03-.03.02h-.01s0,.01,0,.01h0s0,0,0,0h0c-.32-.1-.31-.1-.48-.15Z"/>
    </g>
    <g>
      <path class="st3" d="M67.73,86.85l-.07-.03-.04-.02-.04-.02-.15-.11-.15-.12-.08-.06-.08-.05-.04-.02-.04-.02h-.04s-.04-.02-.04-.02h-.08s-.08-.01-.08-.01h-.08s-.08-.02-.08-.02h-.04s-.04-.02-.04-.02l-.04-.02-.04-.02-.04-.03-.04-.03-.08-.08c-.05-.06-.1-.13-.15-.2l-.07-.11-.07-.1-.07-.09-.04-.04-.04-.03-.07-.05-.07-.04-.13-.06-.13-.06-.07-.04-.08-.05-.04-.02h-.02s0-.01,0-.01h0s0,0,0,0l-.07.1c-.04.08-.09.16-.14.25-.05.09-.09.17-.14.25-.02.04-.05.07-.07.11l-.03.05-.03.04-.04.03-.04.03-.04.02-.04.02-.07.03-.07.02-.07.02-.07.03-.04.02-.04.02-.03.03-.03.04c-.09.11-.19.25-.3.38-.1.14-.21.27-.3.39l-.03.04-.03.04-.04.08-.03.08-.03.08-.05.17-.04.09-.03.04-.03.04-.03.04-.04.04-.04.04-.04.03-.09.06-.1.05-.1.06-.1.06-.09.07-.04.04-.04.04.81.58.41.29.41.29s.04-.07.06-.09c.02-.03.03-.05.04-.08l.03-.07.02-.03.02-.03.02-.03.02-.04.03-.08c.02-.05.03-.11.05-.17l.03-.09.02-.05.03-.05.03-.05.04-.06s.06-.07.1-.12c.06-.08.18-.23.3-.37.06-.07.12-.15.17-.21l.04-.04.02-.02h0s0,0,0,0h0s.59.05.59.05h0s.04,0,.04,0h.04s.07.03.07.03l.07.02s.09.04.13.06c.04.02.08.04.12.07l.12.07c.08.05.15.09.22.13l.05.03.05.02.05.02h.04s.04.03.04.03l.05.02s.06.03.09.05c.06.04.12.08.19.12l.1.07.1.06s.07.03.11.05l.05.02h.06c.07.03.17.04.28.06h.08s.08.02.08.02c.06,0,.11,0,.16,0v-.5s-.01-.5-.01-.5v-1.02s-.04,0-.04,0h-.02s-.05.01-.05.01c-.04,0-.08.01-.12.02h-.06s-.03,0-.03,0h-.03s-.07,0-.07,0h-.03s-.03-.01-.03-.01Z"/>
      <path class="st0" d="M65.51,90.77l-.51-.65h0s0,0,0,0h0s0,0,0,0h-.01s-.03-.03-.03-.03l-.05-.04-.1-.07-.2-.15-.41-.29-.81-.58-1.62-1.17.11-.16.11-.17.22-.36.22-.38.21-.4.41-.83.39-.86,1.61-3.63,1.96,3.46.19.3.05.07.05.07.05.07.05.07.11.13.11.12.11.11.05.05.05.05.05.05.05.04.05.04.05.03.05.04.04.03.04.03.04.02h0s.03,2.04.03,2.04v1s.02.5.02.5v.25s0,.12,0,.12v.06s0,.03,0,.03v.02s0,0,0,0h0s0,0,0,0h0c-1.83.62-1.77.6-2.74.92Z"/>
    </g>
    <g>
      <path class="st3" d="M73.36,81.77h0s0,0,0,0h0s0,0,0,0h0s0,0,0,0h0s0,0,0,0h-.03s-.05,0-.05,0h-.14s-.16,0-.16,0h-.08s-.04.02-.04.02h-.04s-.09.06-.14.09l-.07.04-.08.03h-.04s-.04.02-.04.02h-.05s-.05,0-.05,0h-.05s-.05-.01-.05-.01l-.12-.03-.12-.05-.12-.05c-.08-.03-.17-.07-.24-.1l-.11-.04h-.05s-.05-.02-.05-.02h-.09s-.08,0-.08,0l-.15.02-.15.02h-.08s-.09.01-.09.01h-.05s-.02,0-.02,0h0s0,0,0,0h0s0,.09,0,.13c0,.09.02.19.03.29.01.1.02.2.03.29v.07s0,.06,0,.06v.06s-.02.05-.02.05v.05s-.03.04-.03.04l-.02.04-.02.03-.05.06-.05.05-.05.05-.05.06-.04.07-.02.04v.05c-.04.14-.08.29-.11.45-.04.16-.08.31-.11.45v.05s-.02.05-.02.05v.04s0,.04,0,.04v.08s0,.08,0,.08v.08s0,.08,0,.08v.09s-.02.05-.02.05v.05s-.03.05-.03.05l-.02.05-.03.04-.03.04-.08.08-.08.07c-.05.05-.11.1-.15.15l-.04.04-.03.04-.03.05-.02.05.92.39.46.2.46.2s.03-.08.04-.11c0-.03.02-.06.03-.09l.02-.08s.02-.05.03-.08v-.04s.03-.04.03-.04c0-.03,0-.06.01-.09,0-.06,0-.12.01-.19v-.11s.03-.08.03-.12v-.07s.04-.07.04-.07l.03-.08s.02-.05.03-.08c.01-.03.02-.06.04-.09l.02-.06.02-.06c.03-.09.06-.19.09-.29l.05-.15.02-.07.02-.07.02-.06v-.03s.01,0,.01,0h0s0,0,0,0l.66-.46h0s.04-.02.04-.02h.04s.08-.03.08-.03l.08-.02c.06,0,.11-.01.16-.02.12-.01.23-.02.34-.03.06,0,.12-.01.17-.02.06-.01.12-.02.17-.03l.08-.02.08-.03.07-.03h.03s.03-.03.03-.03c.1-.05.17-.09.27-.14l.07-.04.07-.04.07-.05.04-.02.03-.03.13-.12.06-.07.06-.07.06-.07.05-.08.05-.08h0s0-.02,0-.02v-.02s.02-.04.02-.04c.02-.09.06-.22.1-.37l.02-.11v-.06s.01-.05.01-.05c0-.06,0-.12,0-.17h-.5s-.5-.02-.5-.02l-1-.02v.02s0,.02,0,.02h0s0,.02,0,.02h0s0,0,0,0h0s0,0,0,0h0s.04.03.04.03h0s0,0,0,0h0s0,0,0,0h0s0-.01,0-.01h0s0,0,0,0h.02s.02,0,.02,0h0s0,0,0,0h0s0,0,0,0h0s.02,0,.02,0Z"/>
      <path class="st0" d="M74.12,86.12c-1.18.37-1.14.36-1.78.55h0s0,0,0,0h0s0,0,0,0h-.01s-.03-.02-.03-.02l-.06-.02-.11-.05-.23-.1-.46-.2-.92-.39-1.84-.79.06-.14v-.02s.01-.02.01-.02v-.04s.04-.08.04-.08l.05-.16.04-.17.04-.17.02-.17.03-.17v-.18s.02-.18.02-.18v-.18s0-.18,0-.18v-.05s0-.05,0-.05v-.09s-.03-.19-.03-.19v-.09s-.02-.09-.02-.09l-.06-.38-.84-3.98,3.67,1.77.4.18.19.08.19.07.18.07.17.06.08.03.07.02.13.03h.03s.02,0,.02,0h.04s.02,0,.02,0h0s0,0,0,0h-.07s-.04.02-.04.02h-.05s-.06.03-.06.03l-.07.03-.08.04-.09.05-.08.06-.04.03-.04.04-.08.07-.04.04-.04.04-.03.04-.03.05-.03.05-.02.05-.04.1-.03.05-.02.06-.02.06v.06s0,.06,0,.06h0s0,.01,0,.01l2,.04,1,.02h.5s.25.02.25.02h.12s.06,0,.06,0h.03s.02,0,.02,0h0s0,0,0,0h0s0,0,0,0c-1.37,2.91-1.33,2.81-2.06,4.36Z"/>
    </g>
  </g>
  <path class="st1" d="M79.81,19.16"/>
</svg>