<?xml version="1.0" encoding="UTF-8"?>
<svg id="_レイヤー_1" xmlns="http://www.w3.org/2000/svg" version="1.1" viewBox="0 0 100 100">
  <!-- Generator: Adobe Illustrator 30.0.0, SVG Export Plug-In . SVG Version: 2.1.1 Build 123)  -->
  <defs>
    <style>
      .st0 {
        fill: none;
      }

      .st1 {
        fill: #1c1917;
      }

      .st2 {
        fill: #fff;
      }
    </style>
  </defs>
  <path class="st2" d="M26.39,70.74c0-.39.01-.79.04-1.2-.33.1-2.15.68-3.05,2.53-.52,1.08-.48,2.08-.43,2.56-.48-.35-2.3-1.78-2.77-4.31-.25-1.38,0-2.52.19-3.17-.72.44-1.58,1.13-2.06,2.21-.38.87-.32,1.51-.5,1.53-.37.04-1.41-2.68-1.32-5.63.14-4.14,2.47-7.23,2.28-7.34-.24-.13-2.61,4.81-3.73,4.48-.88-.26-.95-3.78.18-6.69.7-1.81,1.76-3.08,2.54-3.87-1.27.63-2.55,1.26-3.82,1.89.15-1.27.51-3.03,1.42-4.96,1.35-2.88,3.25-4.7,4.42-5.66-1.14.43-2.27.86-3.41,1.29-.69-2.45,0-5.41.23-6.44,1.76-3.85,3.53-5.26,6.4-7.6,2.68-2.18,1.44-1.18,2.6-2.07.02-2.4.21-4.57.49-6.48.57-3.94,1.17-4.56.86-6.56-.36-2.32-1.37-2.73-1.3-4.85.02-.54.09-2.8,1.38-3.78,2.53-1.94,8.75,1.85,12.17,5.02,1.5,1.4,3.76,3.87,5.5,7.79,2.13-.35.92-.76,6.16-.59,1.96.06,3.57.45,4.72.81l.09.03c.34-.74.68-1.48.68-1.48.7-1.51,3.03-6.04,8.38-8.88,4.62-2.45,9.02-3.39,10.69-2.14s1.78,5.32,1.83,6.96c.07,2.58-.54,4.75-1.03,8.42-.08.58-.65,6.14-.71,6.66l2.55,1.74c1.41,1.95,3.29,2.91,5.91,6.46,2.06,2.78,2.77,6.4,3.86,9.75.02.05.01.1-.03.11-1.13.29-2.73-1.2-3.93-1.36.23,1.91.97,4.52,2.78,7.18.85,1.25,1.12,2.49,1.88,3.04-.97-.08-1.94-.16-2.92-.24-.18.93-.23,2.12.34,3.2.39.73.87,1.07.76,1.29-.13.26-1.05.24-4.34-.88.42,1.68.82,4.14.55,7.08-.44,4.68-2.37,8.09-3.51,9.79-.41-1.01-.81-2.02-1.22-3.03-.01.49-.11,1.55-.81,2.63-.48.74-1.05,1.19-1.43,1.44-.22-1.54-.52-1.92-.76-1.95-.49-.06-.83,1.32-1.95,2.84-.09.12-1.91,2.73-2.54,2.44-.35-.16.01-1.05-.32-2.42-.24-.97-.7-1.69-1.06-2.15-.29,1.11-.8,2.56-1.71,4.11-1.31,2.22-2.88,3.67-3.98,4.53-.08-1.38-.17-2.75-.25-4.13-.31.93-.8,2.09-1.6,3.3-1.36,2.06-2.99,3.32-4.07,4.03.13-.94.26-1.88.39-2.81-.76.67-1.55,1.34-2.36,2.01-1.38,1.15-2.75,2.23-4.09,3.25-.13-1.37-.25-2.74-.38-4.1-.76,1.62-1.72,3.4-2.93,5.25-.76,1.16-1.53,2.22-2.28,3.17-.04-1.06-.15-2.61-.45-4.48-.05-.31-.46-2.87-.8-2.85-.32.02-.08,2.38-.81,2.63-.84.29-2.41-2.3-2.76-2.88-.91-1.5-2.03-3.82-2.63-7.07-.7.7-1.47,1.72-1.65,3.05-.2,1.54.51,2.6.14,2.84-.45.3-2.06-1-3.09-2.55-1.33-2.02-1.49-4.21-1.44-5.6-.66.4-1.35,1-1.61,1.87-.29.98.15,1.74-.05,1.84-.35.18-2.25-2.07-3.39-4.84-.5-1.23-1.14-3.26-1.14-6.03Z"/>
  <ellipse class="st1" cx="47.68" cy="53.45" rx="2.34" ry="3.01" transform="translate(-13.14 91.27) rotate(-80.14)"/>
  <g>
    <path class="st1" d="M46.12,18.47c-.09.11-.15.26-.17.42-.02.16,0,.33.04.51.04.17.12.33.21.45.09.13.2.27.31.33.11.06.24.06.36.04l-.41-1.96c-.13.03-.25.1-.34.2Z"/>
    <path class="st1" d="M54.17,18.4c-.27-.06-.28.29-.54.24-.26-.05-.36-.38-.63-.42-.27-.04-.29.09-.55.06-.27-.03-.24-.34-.51-.36-.27-.02-.36.23-.63.21-.27-.01-.22.6-.48.59-.26,0-.29-.68-.56-.68-.27,0-.33.19-.6.19-.27.01-.19-.46-.47-.44-.28.02-.25.45-.52.47-.27.03-.27-.03-.54,0-.27.03-.32-.29-.6-.25-.27.04-.23.52-.49.57-.26.05-.59-.32-.61-.32l.41,1.96s.27-.27.51-.31c.24-.04.28.21.52.17.24-.03.21-.31.45-.34.25-.03.27.31.51.28.24-.02.12-.59.37-.6.25-.02.34.18.58.17.25,0,.22.15.46.15.24,0,.28-.24.53-.23.25.01.23.43.48.45.24.01.27-.42.52-.4.25.02.23.17.48.2.25.03.22.22.46.25.24.04.3-.47.55-.42.25.04.19.45.43.5.24.05.28-.14.52-.08.24.06.21.4.39.45l.53-1.93c-.2-.05-.24.21-.5.14-.26-.06-.22-.21-.49-.27Z"/>
    <path class="st1" d="M55.63,19.18c-.01-.16-.08-.3-.16-.41-.08-.11-.18-.21-.3-.24h0s-.53,1.93-.53,1.93h0c.11.03.24.03.35-.02.12-.06.24-.17.34-.29.1-.12.18-.28.24-.45.05-.17.08-.35.06-.51Z"/>
  </g>
  <g>
    <path class="st1" d="M55.75,17.45c.01.17.08.34.18.48.1.13.25.24.41.31.16.08.34.1.5.09.17,0,.35-.02.49-.1.13-.08.23-.21.31-.35l-1.77-.93c-.08.16-.12.33-.11.5Z"/>
    <path class="st1" d="M62.8,9.46c-.3.2-.05.43-.34.63-.28.21-.64.08-.93.3-.28.22-.2.33-.47.56-.28.22-.48,0-.75.24-.27.25-.16.49-.42.74-.25.25.26.61.01.85-.24.24-.76-.17-1,.1-.24.26-.15.46-.38.73-.23.27-.51-.12-.73.17-.22.29.12.55-.09.84-.2.29-.25.26-.45.55-.19.3-.48.13-.68.44-.19.31.19.6.02.91-.18.3-.71.4-.72.42l1.77.93s.01-.47.18-.76c.17-.29.38-.15.55-.43.18-.27-.05-.42.13-.7.19-.27.46-.08.65-.34.19-.26-.32-.52-.12-.79.2-.27.43-.22.64-.47.21-.25.3-.13.52-.37.22-.24.06-.44.3-.68.24-.24.54.06.77-.17.24-.22-.06-.53.18-.76.24-.23.34-.11.6-.32.26-.21.37-.06.63-.27.26-.19-.07-.58.2-.78.27-.2.53.12.8-.06.27-.18.17-.34.45-.52.29-.16.53.09.74-.03l-.98-1.75c-.24.13-.07.34-.39.52-.31.18-.38.06-.69.25Z"/>
    <path class="st1" d="M73.72,5.79c-.39,0-.32.33-.69.33-.36.02-.61-.28-.98-.23-.37.04-.35.18-.71.24-.36.06-.43-.23-.79-.15-.36.08-.38.36-.72.45-.35.1-.07.65-.4.75-.33.11-.59-.52-.92-.4-.33.12-.35.32-.68.45-.33.13-.38-.35-.71-.21-.33.13-.17.54-.49.68-.32.14-.35.09-.67.24-.32.15-.48-.14-.8.02-.32.16-.14.61-.46.77-.31.15-.8-.05-.83-.04l.98,1.75s.26-.39.57-.54c.3-.15.41.07.71-.08.3-.14.18-.39.49-.54.3-.14.44.17.74.03.3-.13-.02-.63.3-.75.31-.12.48.02.79-.1.31-.11.33.04.64-.07.31-.11.27-.34.59-.45.32-.1.45.31.76.23.31-.09.2-.51.52-.58.32-.07.35.07.67.01.32-.06.35.13.66.09.31-.04.23-.54.56-.56.33-.02.36.4.66.4.29.01.31-.17.61-.13.28.07.26.4.4.47l.75-1.85c-.33-.13-.37.14-.77.04-.4-.08-.37-.21-.78-.26Z"/>
    <path class="st1" d="M78.07,16.11c.03-.36-.31-.31-.3-.66.02-.35.33-.56.33-.92,0-.37-.14-.36-.15-.71-.01-.35.29-.37.28-.73-.02-.36-.28-.42-.31-.78-.03-.36-.63-.19-.66-.54-.03-.34.62-.47.57-.83-.06-.36-.25-.41-.32-.77-.07-.35.41-.32.32-.7-.09-.37-.53-.26-.63-.61-.14-.36-.06-.38-.24-.73-.16-.35.09-.53-.14-.91-.3-.38-.68-.11-1-.38-.32-.26-.54-.82-.57-.82l-.75,1.85s.35-.09.52.07c.17.14-.03.34.11.51.13.21.38.07.5.34.12.27-.2.39-.1.66.08.29.62.03.7.35.08.32-.09.46-.03.78.06.32-.1.31-.05.63.04.32.29.33.32.66.03.33-.39.38-.37.7.02.33.46.3.48.63.02.34-.13.34-.12.68.01.34-.18.35-.18.67,0,.32.51.3.5.63-.02.34-.42.34-.45.67-.03.33.16.35.13.68-.04.33-.38.37-.42.62l1.98.27c.04-.26-.23-.26-.19-.62.04-.35.19-.33.23-.69Z"/>
    <path class="st1" d="M76.69,27.07c.02-.34-.33-.28-.31-.62.02-.34.35-.52.37-.85.03-.34-.11-.35-.07-.69.03-.34.34-.32.37-.65.04-.34-.21-.45-.17-.78.04-.34-.58-.31-.53-.65.04-.34.71-.3.76-.63.05-.34-.12-.45-.07-.78.05-.34.49-.15.54-.48.05-.34-.37-.41-.32-.75.06-.34.11-.33.17-.67.06-.34.38-.3.44-.65.06-.34-.41-.47-.36-.81.05-.34.52-.61.53-.63l-1.98-.27s.15.46.09.79c-.05.34-.3.29-.35.63-.06.34.22.38.16.72-.06.34-.38.28-.44.62-.06.34.53.33.47.67-.05.34-.27.42-.32.76-.05.34-.2.28-.25.62-.05.35.18.42.14.76-.04.34-.47.3-.51.65-.04.35.4.39.36.73-.04.35-.18.33-.21.68-.03.35-.22.33-.25.68-.03.35.48.35.46.7-.02.35-.43.36-.45.71-.02.35.18.36.16.71-.01.35-.35.43-.35.69l2,.03c0-.25-.26-.22-.25-.56.01-.34.16-.33.18-.67Z"/>
    <path class="st1" d="M76.26,29.09c.15-.08.26-.21.34-.35.08-.13.15-.28.15-.44h0s-2-.03-2-.03h0c0,.17.03.34.12.48.09.14.23.26.38.34.15.08.32.12.5.12.18,0,.36-.05.5-.13Z"/>
  </g>
  <g>
    <path class="st1" d="M15.35,43.89c.12.22.31.39.48.48.17.09.35.09.53.04.17-.05.31-.17.43-.31.12-.15.24-.31.3-.51.05-.2.05-.43.02-.66l-1.99.19c.03.28.11.56.23.78Z"/>
    <path class="st1" d="M22.37,29.73c-.41.34-.11.52-.52.86-.41.34-.85.3-1.26.65-.41.36-.32.45-.72.83-.4.37-.62.17-1.01.57-.39.41-.28.69-.63,1.11-.35.43.25.68-.07,1.1-.3.44-.9.13-1.19.61-.28.48-.19.68-.44,1.16-.25.48-.58.1-.81.6-.05.12-.12.31-.12.43.01.13.04.25.07.35.08.16.15.32.1.58-.1.53-.16.52-.24,1.07-.08.54-.4.53-.46,1.09-.04.57.44.67.43,1.22,0,.54-.38,1.1-.38,1.15l1.99-.19s-.26-.6-.25-1.1c.01-.5.26-.48.3-.97.05-.49-.23-.53-.15-1.03.08-.5.41-.43.5-.92.11-.48-.51-.5-.37-.87.21-.44.47-.52.7-.96.24-.44.34-.32.6-.75.26-.42.09-.6.38-1.02.3-.41.64-.16.95-.53.32-.37-.02-.65.33-1.02.36-.36.45-.26.82-.61.37-.35.5-.2.89-.54.39-.33.03-.69.43-1.02.41-.33.7-.05,1.11-.38.41-.33.29-.46.71-.77.42-.31.72-.11,1.03-.34l-1.18-1.61c-.33.24-.13.42-.56.74-.43.32-.53.19-.96.52Z"/>
    <path class="st1" d="M25.19,28.14c-.18-.05-.42-.01-.64.04-.22.05-.45.14-.66.3h0s1.18,1.61,1.18,1.61h0c.2-.15.38-.32.49-.51.12-.19.18-.41.19-.61.01-.19-.03-.38-.13-.53-.1-.15-.26-.26-.43-.31Z"/>
  </g>
  <g>
    <path class="st1" d="M13.12,53.18c.07.15.18.29.32.39.13.1.31.15.49.17.18.02.35,0,.5-.06.16-.06.33-.12.43-.23.1-.11.15-.26.18-.41l-1.97-.34c-.03.17-.02.34.05.49Z"/>
    <path class="st1" d="M17.59,43.93c-.24.26.06.43-.16.68-.22.26-.59.21-.81.49-.21.28-.11.35-.31.64-.2.28-.46.11-.66.4-.19.29-.02.51-.2.8-.17.3.4.51.24.8-.15.29-.78.02-.93.34-.16.31-.02.47-.16.78-.13.32-.52.02-.65.35-.13.33.28.49.16.81-.11.33-.16.31-.27.64-.1.33-.42.26-.51.6-.09.34.37.5.3.83-.07.33-.55.57-.55.59l1.97.34s-.13-.43-.06-.74c.07-.31.31-.25.39-.54.08-.3-.18-.37-.09-.68.1-.3.41-.19.51-.48.11-.29-.47-.4-.35-.7.12-.3.34-.31.47-.6.13-.29.26-.19.39-.47.13-.28-.05-.42.1-.7.16-.28.53-.07.69-.33.17-.26-.21-.49-.04-.76.18-.26.29-.18.48-.43.18-.26.34-.14.53-.38.2-.24-.22-.54-.01-.79.21-.24.54,0,.75-.22.22-.23.07-.36.3-.59.23-.22.52-.03.69-.19l-1.35-1.48c-.19.18.01.35-.24.59-.25.24-.35.13-.6.39Z"/>
    <path class="st1" d="M19.36,42.8c-.16-.06-.33-.06-.49-.03-.16.02-.32.08-.44.19h0s1.35,1.48,1.35,1.48h0c.11-.1.2-.23.24-.37.04-.15.03-.32-.01-.49-.04-.16-.12-.32-.23-.46-.11-.14-.26-.25-.41-.31Z"/>
  </g>
  <g>
    <path class="st1" d="M14,62.61c.18.11.38.14.57.08.18-.05.33-.16.47-.29.12-.12.2-.25.26-.37.06-.12.16-.27.19-.36.06-.08.06-.12.04-.22l-1.9.61c.05.19.2.42.38.55Z"/>
    <path class="st1" d="M15.77,52.84c-.19.28.13.4-.05.68-.17.27-.54.28-.7.58-.16.3-.04.36-.18.66-.13.3-.42.19-.55.5-.12.32.1.48-.01.79-.1.32.52.4.43.7-.08.3-.74.18-.82.5-.06.32.09.44.04.75-.05.32-.5.13-.54.47-.04.34.38.39.36.71-.03.33-.08.32-.09.65-.01.33-.33.35-.33.7.03.36.5.36.55.7.04.32-.28.78-.26.83l1.9-.61s-.07-.04-.14-.14c-.08-.08-.15-.22-.16-.35-.03-.27.22-.29.21-.55,0-.27-.29-.27-.27-.56,0-.29.34-.26.37-.54.02-.28-.55-.25-.52-.55.03-.3.26-.36.3-.64.06-.29.2-.22.26-.5.07-.28-.16-.37-.08-.66.09-.28.49-.16.58-.43.1-.26-.32-.41-.21-.68.11-.27.25-.21.36-.47.13-.26.29-.17.43-.42.14-.25-.32-.48-.17-.73.16-.25.51-.06.67-.29.16-.23,0-.35.18-.58.18-.23.49-.07.63-.23l-1.52-1.31c-.16.19.06.33-.15.59-.2.26-.32.16-.52.44Z"/>
    <path class="st1" d="M17.32,51.57c-.16-.05-.33-.03-.48,0-.15.04-.3.1-.4.23h0s1.52,1.31,1.52,1.31h0c.09-.1.15-.23.17-.37.01-.14-.02-.31-.08-.47-.06-.15-.16-.3-.28-.43-.13-.13-.28-.22-.44-.27Z"/>
  </g>
  <g>
    <path class="st1" d="M16.73,70.98c.16.12.43.26.6.2.18-.03.35-.17.47-.29.13-.13.18-.24.25-.39.05-.16.19-.25.21-.38.03-.11,0-.26-.06-.4l-1.85.76c.08.19.2.37.38.5Z"/>
    <path class="st1" d="M16.98,59.63c-.15.35.19.41.05.76-.14.35-.51.45-.63.81-.12.37,0,.41-.1.77-.1.37-.4.3-.49.68-.09.38.15.53.09.9-.06.38.56.35.52.72-.04.36-.71.36-.73.75-.02.39.17.49.17.87.02.38-.46.26-.44.66.03.4.46.36.51.74.04.38,0,.39.06.77.07.38-.25.46-.16.85.1.39.57.31.68.68.11.36-.15.86-.14.89l1.85-.76s-.35-.3-.44-.63c-.09-.33.15-.39.07-.71-.08-.32-.34-.27-.41-.61-.05-.34.27-.38.23-.71-.04-.33-.6-.17-.63-.52-.03-.35.18-.47.17-.81,0-.34.15-.3.17-.63.02-.33-.22-.39-.18-.74.04-.34.46-.29.52-.62.06-.33-.37-.41-.29-.75.08-.34.22-.3.31-.63.1-.33.28-.27.38-.6.11-.32-.38-.46-.25-.79.13-.33.52-.21.66-.52.14-.32-.04-.4.12-.71.16-.32.5-.24.62-.48l-1.78-.92c-.13.25.12.34-.05.67-.16.34-.3.27-.46.62Z"/>
    <path class="st1" d="M18.28,57.86c-.15-.02-.3.04-.44.12-.14.08-.27.19-.35.35h0s1.78.92,1.78.92h0c.08-.15.13-.33.12-.5,0-.18-.07-.36-.16-.54-.05-.09-.1-.17-.18-.28-.03-.02-.1-.1-.17-.1-.06,0-.09.04-.11.08-.02.04-.04.08-.1.1-.06.01-.12-.06-.16-.06-.08-.06-.16-.08-.23-.1Z"/>
  </g>
  <g>
    <path class="st1" d="M22.16,75.13c.14,0,.29-.06.42-.14.13-.08.25-.21.36-.36.11-.15.18-.3.23-.44.05-.15.11-.31.1-.43,0-.12-.06-.2-.13-.26l-1.32,1.5c.09.08.22.13.35.13Z"/>
    <path class="st1" d="M19.21,68.47c-.02.26.32.22.31.46,0,.24-.31.39-.3.65.02.25.15.24.18.49.04.25-.27.3-.22.56.06.26.31.26.39.5.07.24.63-.01.7.2.08.21-.54.49-.43.72.11.23.29.21.41.42.12.22-.34.37-.2.59.14.23.5,0,.64.19.14.2.1.23.25.43.15.19-.09.41.08.6.17.19.55-.12.72.05.17.17.05.64.07.65l1.32-1.5s-.33-.01-.47-.16c-.14-.14.04-.32-.09-.46-.12-.15-.34.03-.46-.13-.12-.16.14-.35.04-.51-.11-.16-.56.21-.66.03-.11-.18.04-.33-.06-.51-.09-.18.06-.23-.02-.4-.08-.18-.3-.11-.38-.3-.07-.19.35-.33.29-.5-.05-.18-.47-.08-.51-.28-.04-.2.1-.22.08-.42-.03-.2.17-.22.15-.4,0-.19-.52-.16-.52-.37,0-.21.41-.21.42-.41.02-.19-.18-.22-.15-.42.03-.2.37-.19.4-.33l-1.96-.41c-.04.19.22.21.18.46-.04.25-.19.22-.21.48Z"/>
    <path class="st1" d="M19.86,67.08c-.16.01-.29.08-.4.15-.11.07-.19.17-.22.29h0s1.96.41,1.96.41h0c.02-.09,0-.19-.06-.28-.06-.1-.18-.2-.31-.29-.13-.09-.29-.17-.46-.22-.17-.05-.35-.08-.51-.07Z"/>
  </g>
  <g>
    <path class="st1" d="M29.94,82.09c.2.06.49.08.63-.03.16-.1.26-.28.34-.45.07-.17.08-.29.09-.45-.01-.17.09-.3.07-.43-.01-.12-.09-.24-.19-.34l-1.46,1.36c.14.15.32.27.52.33Z"/>
    <path class="st1" d="M25.53,71.85c.02.38.36.27.39.64.04.36-.24.62-.19.99.06.37.19.35.26.72.07.37-.22.44-.13.81.1.37.37.39.48.75.12.36.66.06.78.4.12.34-.48.62-.34.98.15.35.35.36.51.69.16.34-.32.42-.14.76.17.34.57.13.74.46.19.32.14.35.34.66.2.31-.06.51.15.83.22.31.64.07.87.37.22.29.15.85.18.87l1.46-1.36s-.42-.16-.63-.43c-.2-.26,0-.41-.19-.68-.19-.27-.42-.12-.6-.41-.18-.29.11-.46-.06-.74-.16-.29-.62.08-.78-.23-.16-.31-.03-.49-.17-.8-.14-.31.02-.34-.11-.64-.12-.31-.36-.26-.48-.58-.11-.32.29-.46.2-.78-.09-.32-.51-.19-.6-.53-.08-.33.06-.36,0-.7-.06-.33.12-.37.07-.7-.05-.33-.55-.23-.59-.58-.04-.35.37-.42.34-.75-.02-.34-.22-.33-.22-.67,0-.34.33-.43.33-.68l-2-.03c0,.28.26.25.26.62,0,.37-.14.37-.13.75Z"/>
    <path class="st1" d="M25.91,69.63c-.15.08-.27.22-.36.36-.09.14-.16.31-.16.49h0s2,.03,2,.03h0c0-.16-.03-.33-.11-.46-.08-.14-.22-.26-.36-.35-.14-.09-.32-.15-.5-.16-.18-.01-.36.02-.51.1Z"/>
  </g>
  <g>
    <path class="st1" d="M36.51,86.92c.18-.04.33-.16.43-.32.09-.16.14-.35.16-.53.02-.17,0-.32-.02-.44-.02-.14-.04-.3-.07-.4-.02-.09-.03-.13-.11-.17l-.95,1.76c.15.08.38.14.57.1Z"/>
    <path class="st1" d="M31.74,79.7c.03.29.37.18.41.46.05.28-.23.5-.16.79.07.28.2.25.28.53.09.27-.21.38-.1.66.1.28.38.25.49.52.12.27.64-.08.76.17.13.23-.44.6-.28.85.15.25.35.21.51.44.17.23-.27.42-.08.66.19.23.52-.04.71.17.19.21.15.25.35.46.2.2-.01.45.21.65.23.2.57-.14.8.04.23.17.27.7.31.71l.95-1.76s-.31.06-.5-.09c-.18-.14-.02-.34-.19-.49-.17-.16-.36.04-.54-.13-.17-.18.07-.4-.08-.58-.15-.18-.55.25-.71.05-.15-.2-.05-.38-.18-.58-.14-.2.01-.26-.12-.46-.12-.2-.34-.11-.46-.33-.11-.23.27-.41.18-.62-.09-.21-.5-.04-.58-.28-.09-.23.06-.28-.02-.51-.06-.24.11-.28.06-.52-.05-.23-.55-.1-.59-.36-.05-.25.36-.34.32-.58-.03-.24-.22-.22-.24-.47-.02-.25.32-.33.31-.51l-2,.05c0,.22.27.18.28.46.02.29-.14.3-.1.59Z"/>
    <path class="st1" d="M32.06,77.99c-.15.06-.26.17-.35.28-.08.11-.15.24-.15.38h0s2-.05,2-.05h0c0-.12-.04-.24-.12-.33-.09-.1-.22-.19-.37-.25-.14-.06-.32-.1-.5-.11-.18,0-.36.02-.51.08Z"/>
  </g>
  <g>
    <path class="st1" d="M43.26,90.88c.24,0,.4-.1.53-.26.12-.14.18-.33.21-.51.03-.17.01-.32,0-.45-.01-.13-.05-.31-.05-.41.03-.08,0-.14-.08-.19l-1.25,1.56c.17.13.39.24.65.25Z"/>
    <path class="st1" d="M38.18,82.33c.09.31.39.15.49.46.09.31-.14.58-.04.89.11.31.23.26.35.56.12.3-.17.42-.04.73.12.3.4.27.53.57.14.29.65-.05.78.23.14.28-.44.62-.28.91.15.29.35.27.51.54.16.28-.29.42-.13.69.17.28.54.05.72.32.18.27.13.3.32.57.19.27-.07.47.14.74.22.27.61,0,.84.25.21.24.21.8.25.83l1.25-1.56s-.35-.02-.54-.24c-.18-.21.01-.37-.16-.59-.17-.22-.4-.07-.57-.31-.17-.24.11-.43-.05-.67-.16-.25-.6.13-.76-.12-.16-.26-.04-.44-.18-.7-.15-.26,0-.3-.14-.56-.14-.26-.37-.18-.5-.46-.13-.27.25-.46.13-.73-.12-.27-.52-.09-.63-.37-.12-.28.02-.33-.09-.61-.1-.28.07-.35-.02-.63-.09-.28-.57-.09-.66-.39-.09-.29.29-.44.21-.72-.08-.29-.27-.24-.34-.53-.08-.29.24-.44.19-.66l-1.95.43c.06.24.3.15.38.46.08.31-.08.35.01.66Z"/>
    <path class="st1" d="M38.12,80.37c-.13.1-.21.24-.27.39-.06.14-.09.29-.06.45h0s1.95-.43,1.95-.43h0c-.03-.14-.1-.27-.2-.37-.11-.1-.27-.17-.43-.22-.16-.04-.34-.05-.52-.02-.18.03-.35.1-.47.2Z"/>
  </g>
  <g>
    <path class="st1" d="M51.97,86.94c-.06-.09-.16-.19-.28-.28-.12-.09-.27-.18-.44-.25-.16-.08-.32-.13-.46-.17-.15-.04-.31-.07-.41-.06-.1,0-.15.05-.18.11l1.8.87c.03-.06.02-.13-.03-.22Z"/>
    <path class="st1" d="M50.14,90.43c.07-.11-.24-.26-.17-.37.07-.11.37-.02.44-.14.07-.11-.05-.18.01-.3.06-.11.33.03.4-.08.06-.12-.15-.27-.08-.38.06-.12-.49-.37-.43-.49.06-.11.66.19.72.07.06-.12-.09-.23-.03-.35.06-.12.45.14.51.02.06-.12-.33-.32-.27-.44.06-.12.11-.09.17-.21.06-.12.35.02.41-.1.06-.12-.36-.35-.31-.47.06-.12.5-.05.5-.05l-1.8-.87s.12.24.06.35c-.06.11-.28,0-.34.12-.06.11.19.24.13.35-.06.11-.35-.04-.41.07-.06.11.47.34.41.45-.06.11-.25.06-.31.17-.06.11-.19.03-.25.14-.06.11.15.24.09.35-.06.11-.44-.09-.5.02-.06.11.32.32.26.43-.06.11-.19.04-.25.15-.06.11-.23.02-.29.13-.06.11.38.35.32.46-.06.11-.42-.08-.49.03-.06.11.1.21.04.32-.06.11-.37-.04-.42.04l1.71,1.03c.05-.08-.18-.21-.11-.32.07-.11.2-.03.27-.15Z"/>
    <path class="st1" d="M44.2,88.12s.33-.1.34-.05c.02.05-.27.18-.25.22.02.05.14,0,.16.06.01.05-.28.14-.27.19.01.05.27,0,.28.05.01.05.6-.11.62-.05.02.06-.63.22-.62.28.01.06.2.03.21.08.01.06-.44.14-.43.19.01.06.44-.04.45.02.01.06-.04.07-.03.13.01.06-.31.13-.3.18.01.06.49-.03.5.03.01.06-.4.2-.4.2l1.96-.38s-.22-.04-.23-.1c-.01-.06.23-.11.22-.17-.01-.06-.28,0-.3-.07-.01-.06.31-.13.3-.19-.01-.06-.57.08-.58.02-.01-.06.18-.12.16-.18-.01-.06.14-.09.12-.15-.01-.06-.25-.01-.27-.07-.02-.06.4-.17.38-.23-.02-.07-.44.05-.46-.01-.02-.06.12-.1.1-.17-.02-.06.16-.12.14-.19-.02-.07-.5.09-.52.03-.02-.06.36-.21.33-.29-.03-.08-.2,0-.25-.08-.05-.09.25-.27.18-.37l-1.67,1.1s.22-.14.22-.13c0,.01-.13.08-.12.12Z"/>
    <path class="st1" d="M44.74,87.99c-.05.07-.12.12-.22.13-.1,0-.19-.01-.22.03-.09.04-.18.04-.21-.02h0s1.67-1.1,1.67-1.1h0c-.07-.1-.18-.17-.3-.17-.04.02-.18-.02-.29,0-.11.02-.2.07-.26.13-.12.13-.12.31-.11.49.01.18.03.37-.06.51Z"/>
    <g>
      <path class="st1" d="M44.79,90.77l.03.15.02.16.04.33c.01.11.03.22.04.33l.02.16.03.15.02.07.02.06.02.06.03.05.06.1.06.09.06.09.06.09.03.05.03.06.02.06.02.07.02.07v.08c.02.05.03.11.04.17,0,.12.01.24.02.37,0,.12.02.25.02.36,0,.06.01.11.02.16l.02.07.02.07.04.11.04.1.09.16.09.16.05.09.05.1.03.05v.02s.02,0,.02,0h0s0,0,0,0c.04-.04.08-.08.12-.12l.06-.07.06-.07.12-.16c.08-.11.17-.21.24-.31.04-.05.08-.09.12-.13l.05-.05.05-.05.05-.04.05-.03.05-.03.05-.02.09-.03.09-.02.09-.02.04-.02.05-.02.05-.02.05-.03.05-.04.05-.05c.07-.07.15-.15.23-.23.08-.08.16-.17.24-.26.16-.18.33-.36.47-.51.03-.04.06-.08.09-.11l.07-.11.06-.11.06-.11.11-.22.07-.12s.05-.08.08-.13l.05-.06.05-.06s.07-.07.11-.11c.08-.06.16-.13.25-.2l.13-.1.12-.11.06-.06.06-.07.05-.07.05-.08-.86-.52-.43-.26-.43-.26s-.05.08-.06.12c-.02.03-.03.06-.04.09l-.04.08s-.03.05-.05.08l-.03.04-.02.04s-.02.06-.04.09c-.02.06-.05.13-.07.2l-.05.11s-.04.08-.07.12l-.04.07-.05.07-.06.07-.07.08c-.09.09-.25.27-.41.44-.08.08-.16.17-.24.24l-.05.05-.02.02h0s0,0,0,0h0s0,0,0,0c.02-.03.02-.03.03-.05h0s0,0,0,0h0s-.03-.04-.03-.04l-.02-.03-.04-.07-.03-.07c-.02-.05-.04-.1-.05-.15-.01-.05-.03-.1-.04-.15l-.03-.15c-.01-.1-.03-.19-.04-.28,0-.04-.01-.08-.02-.12,0-.04-.02-.07-.03-.1v-.05s-.02-.05-.02-.05c0-.03,0-.07,0-.1,0-.03,0-.07,0-.11v-.11c.01-.07.02-.15.03-.22,0-.04,0-.07,0-.11v-.05s-.02-.05-.02-.05c-.02-.12-.06-.38-.09-.57l-.49.09-.49.09-.98.19s.02.08.03.12c.01.04.02.09.04.13.03.09.06.18.09.28l.1.29.04.15.04.15Z"/>
      <path class="st0" d="M47.87,89.21c-.3.09-.29.09-.45.14h0s0,0,0,0h0s0,0,0,0h.01s.03.02.03.02l.05.03.11.06.21.13.43.26.86.52,1.71,1.03-.75,1.2-.1.15-.1.14-.21.29-.41.57-1.65,2.29-3.35,4.24-.22-5.4-.03-.64-.04-.64-.12-1.28-.17-1.27-.1-.63-.11-.62,1.96-.38.98-.19.49-.09.25-.05.12-.02h.06s.03-.02.03-.02h.02s0,0,0,0h0s0,0,0,0h0c.31.09.3.08.46.13Z"/>
    </g>
  </g>
  <g>
    <path class="st1" d="M58.44,86.1c.01-.12-.02-.28-.07-.42-.06-.14-.16-.29-.28-.43-.12-.14-.25-.24-.39-.32-.14-.08-.29-.16-.41-.17-.12,0-.23.04-.31.11l1.31,1.51c.08-.07.14-.17.15-.29Z"/>
    <path class="st1" d="M53.28,90.34c.18-.14-.07-.38.1-.52.17-.14.47.02.64-.12.18-.14.09-.24.27-.38.17-.14.37.1.55-.04.17-.14.05-.37.23-.51.17-.14-.26-.57-.09-.71.17-.14.62.36.8.22.17-.14.1-.32.27-.45.17-.14.41.27.58.12.17-.14-.11-.48.06-.63.17-.14.2-.1.37-.25.17-.14.39.1.56-.05.17-.14-.12-.53.05-.68.17-.14.61.05.62.04l-1.31-1.51s-.08.34-.25.48c-.17.14-.33-.05-.5.09-.17.14.01.35-.16.5-.17.14-.38-.11-.55.03-.17.14.25.54.08.68-.17.14-.35.04-.52.17-.17.14-.25,0-.42.14-.17.14-.04.34-.21.48-.17.14-.45-.19-.62-.06-.17.14.11.47-.07.61-.17.14-.26.02-.43.16-.17.14-.29-.01-.46.12-.17.14.16.52-.01.66-.17.14-.44-.17-.61-.03-.17.14-.05.29-.22.43-.17.14-.42-.1-.55,0l1.22,1.59c.13-.1-.05-.3.13-.44.18-.14.27-.02.44-.15Z"/>
    <path class="st1" d="M52,90.87c.13.09.27.12.39.13.12.01.24,0,.32-.06h0s-1.22-1.59-1.22-1.59h0c-.08.07-.14.16-.16.28-.02.12.01.28.06.43.05.15.13.31.24.45.11.14.24.27.37.35Z"/>
  </g>
  <g>
    <path class="st1" d="M64.09,81.34c-.05-.13-.14-.26-.26-.37-.12-.1-.28-.18-.45-.24-.17-.06-.34-.07-.5-.07-.16,0-.33.02-.45.08-.11.06-.18.16-.22.27l1.87.72c.05-.12.05-.26.01-.39Z"/>
    <path class="st1" d="M59.55,87.82c.21-.17-.06-.39.14-.56.19-.17.52-.05.71-.23.19-.18.1-.28.28-.47.18-.19.41.01.59-.19.18-.2.03-.42.2-.62.17-.2-.36-.53-.2-.73.16-.2.71.17.87-.05.15-.22.04-.38.18-.59.14-.22.48.11.63-.12.14-.23-.23-.46-.1-.69.13-.23.18-.2.3-.44.12-.23.42-.1.54-.35.12-.25-.31-.48-.21-.72.1-.24.59-.31.6-.33l-1.87-.72s.08.36-.01.58c-.1.22-.32.11-.42.32-.1.21.15.33.04.54-.11.21-.4.05-.51.25-.11.2.42.43.29.64-.13.21-.34.16-.47.36-.14.19-.24.09-.38.28-.14.19.04.36-.11.55-.15.19-.48-.07-.63.1-.15.18.18.46.02.64-.16.18-.27.08-.43.25-.17.17-.3.04-.47.2-.17.16.19.52.01.68-.18.16-.47-.13-.65.02-.18.15-.06.3-.25.45-.19.15-.44-.09-.58.01l1.17,1.62c.16-.12-.01-.32.2-.47.21-.16.3-.04.51-.21Z"/>
    <path class="st1" d="M58.05,88.44c.13.09.28.13.42.14.13.01.27,0,.37-.08h0s-1.17-1.62-1.17-1.62h0c-.09.07-.16.16-.19.28-.03.13-.02.29.02.44.03.15.1.32.2.47.1.15.22.28.35.37Z"/>
  </g>
  <g>
    <path class="st1" d="M70.06,76.83c-.05-.14-.15-.28-.28-.38-.12-.1-.29-.17-.46-.22-.17-.05-.34-.05-.5-.03-.16.02-.33.05-.45.13-.11.08-.18.2-.21.32l1.91.6c.04-.14.05-.29,0-.42Z"/>
    <path class="st1" d="M65.58,84.34c.21-.21-.08-.4.13-.61.2-.21.54-.12.74-.35.19-.23.09-.31.28-.54.19-.23.43-.04.61-.28.18-.24.01-.45.18-.69.17-.24-.39-.51-.23-.75.15-.24.74.09.89-.16.15-.25.03-.41.17-.66.14-.26.5.06.64-.21.14-.27-.25-.47-.12-.73.13-.26.17-.24.29-.51.12-.27.42-.16.53-.44.11-.28-.33-.49-.23-.76.1-.27.59-.4.59-.42l-1.91-.6s.1.39,0,.64c-.09.25-.32.16-.42.4-.1.24.16.35.05.6-.11.24-.41.1-.52.34-.11.23.44.42.31.66-.12.24-.34.22-.47.45-.13.23-.25.13-.39.35-.14.23.05.38-.1.61-.15.22-.51-.01-.65.2-.16.21.2.47.04.68-.16.21-.28.12-.45.33-.17.21-.32.08-.49.28-.18.19.22.52.03.72-.19.2-.5-.07-.68.12-.19.18-.05.33-.25.51-.2.18-.47-.03-.62.1l1.3,1.52c.17-.14-.03-.32.19-.52.22-.2.32-.08.53-.29Z"/>
    <path class="st1" d="M64.02,85.2c.15.08.3.09.45.08.14,0,.28-.04.39-.14h0s-1.3-1.52-1.3-1.52h0c-.1.08-.17.19-.2.32-.03.14,0,.3.03.46.04.15.12.32.23.46.11.14.25.26.39.33Z"/>
  </g>
  <g>
    <path class="st1" d="M75.54,76.25c-.03-.09-.07-.22-.12-.33-.05-.12-.13-.26-.23-.4-.11-.15-.23-.29-.37-.39-.14-.1-.3-.2-.45-.19-.13-.02-.33.17-.39.26l1.61,1.19c.04-.05-.04-.03-.05-.13Z"/>
    <path class="st1" d="M72.33,80.87c.16-.15-.13-.36.02-.5.13-.15.45-.03.58-.19.13-.15.03-.24.15-.39.12-.15.37.03.49-.13.12-.16-.06-.35.06-.51.12-.16-.41-.47-.3-.63.11-.15.67.21.79.04.11-.17-.01-.31.09-.48.1-.17.46.13.57-.04.1-.18-.27-.4-.17-.57.1-.17.14-.15.24-.32.09-.17.38-.03.47-.19.09-.16-.33-.41-.24-.57.09-.17.52-.02.51,0l-1.61-1.19s-.02.4-.12.57c-.1.18-.32.06-.41.23-.09.17.15.3.07.46-.09.16-.38,0-.46.15-.09.15.44.39.35.55-.09.16-.29.1-.39.25-.1.15-.21.05-.31.19-.1.14.09.29-.03.45-.11.15-.46-.1-.56.05-.11.14.24.4.13.55-.11.14-.23.06-.34.2-.11.14-.26.02-.37.15-.11.13.28.45.16.59-.12.14-.43-.13-.55-.01-.11.11.02.26-.1.36-.12.11-.35-.16-.4-.11l1.07,1.69c.17-.12.02-.32.19-.47.18-.15.27-.03.43-.19Z"/>
    <path class="st1" d="M70.67,81.31c.13.18.34.27.55.29.2.02.35,0,.5-.07h0s-1.07-1.69-1.07-1.69h0s-.03.06.05.11c.04.03.07.09.09.15.02.07.08.13.08.21.01.15-.08.32-.16.48-.08.16-.13.34-.03.51Z"/>
  </g>
  <g>
    <path class="st1" d="M79.6,69.98c-.08-.11-.2-.21-.34-.29-.14-.07-.32-.1-.5-.1-.18,0-.35.02-.5.05-.15.02-.32.07-.41.15-.09.07-.14.18-.15.29l1.98.25c.01-.12-.01-.23-.08-.34Z"/>
    <path class="st1" d="M77.71,77.06c.17-.21-.13-.37.02-.58.12-.17.53-.27.63-.51.11-.26-.03-.3.05-.54.08-.24.37-.15.44-.4.07-.24-.18-.36-.12-.59.06-.23-.56-.3-.51-.53.05-.22.71-.12.76-.35.05-.23-.12-.32-.08-.55.04-.23.48-.06.53-.3.04-.23-.39-.31-.35-.54.04-.23.09-.22.13-.45.04-.23.36-.19.4-.43.04-.23-.44-.34-.4-.57.03-.23.49-.39.49-.41l-1.98-.25s.17.31.14.54c-.03.22-.28.19-.31.41-.03.22.24.27.2.49-.04.22-.36.17-.4.39-.04.22.54.25.5.48-.04.22-.25.26-.29.48-.04.22-.19.17-.23.38-.04.22.19.29.14.51-.05.22-.46.13-.52.34-.05.21.38.32.32.53-.06.21-.19.18-.26.37-.06.2-.24.14-.31.3-.06.17.41.33.31.51-.12.18-.46-.05-.58.1-.12.15.02.27-.11.42-.14.14-.41-.07-.51.02l1.31,1.52c.15-.14-.04-.31.15-.5.18-.19.3-.08.47-.29Z"/>
    <path class="st1" d="M76.3,77.84c.13.09.28.12.42.12.13,0,.27-.02.37-.11h0s-1.31-1.52-1.31-1.52h0c-.07.06-.11.14-.12.25,0,.12.02.27.07.42.04.15.12.31.22.46.1.15.22.28.35.37Z"/>
  </g>
  <g>
    <path class="st1" d="M83.36,59.97c-.13-.18-.3-.31-.47-.39-.17-.07-.35-.07-.52-.03-.17.04-.32.15-.44.29-.12.14-.25.3-.29.49-.04.19-.03.42.01.63l1.97-.37c-.04-.24-.13-.46-.26-.63Z"/>
    <path class="st1" d="M81.68,74.24c.21-.44-.14-.49.05-.93.19-.44.58-.59.76-1.05.16-.46.05-.5.19-.97.15-.46.45-.39.58-.86.14-.47-.1-.66.01-1.13.1-.48-.53-.45-.44-.92.07-.46.75-.43.82-.91.05-.49-.11-.62-.07-1.1.04-.48.48-.28.51-.77.01-.5-.42-.51-.42-1,0-.48.05-.49.03-.97-.03-.48.3-.53.25-1.03-.05-.49-.54-.5-.6-.98-.07-.47.27-.99.26-1.03l-1.97.37s.31.53.37.98c.06.45-.19.47-.15.92.04.44.31.43.34.88.02.45-.32.45-.31.89,0,.44.58.32.56.77-.02.46-.23.59-.26,1.04-.04.45-.2.38-.25.82-.06.44.16.53.09.98-.09.45-.5.37-.6.8-.11.43.33.53.21.97-.12.44-.26.4-.4.83-.14.43-.33.36-.47.79-.16.42.33.56.15.99-.18.42-.57.3-.76.7-.2.4-.02.49-.23.89-.21.4-.57.33-.73.62l1.72,1.01c.18-.32-.07-.41.17-.83.23-.43.36-.35.58-.79Z"/>
    <path class="st1" d="M79.91,76.56c.19-.01.38-.11.56-.23.17-.11.34-.27.46-.47h0s-1.72-1.01-1.72-1.01h0c-.11.18-.19.39-.21.58-.02.2.01.4.08.57.07.17.18.32.33.42.15.1.33.15.51.14Z"/>
  </g>
  <g>
    <path class="st1" d="M84.05,53.48c-.1-.09-.25-.16-.4-.21-.15-.04-.33-.04-.51-.02-.18.02-.34.08-.47.17-.14.09-.29.18-.36.31-.07.12-.07.27-.05.41l1.97-.34c-.02-.12-.08-.24-.18-.33Z"/>
    <path class="st1" d="M87.04,60.51c-.15-.21-.4.04-.55-.17-.15-.22.02-.52-.13-.73-.14-.22-.25-.15-.39-.37-.14-.22.13-.39,0-.61-.12-.22-.38-.15-.5-.39-.12-.23-.63.11-.75-.13-.12-.24.48-.56.37-.79-.1-.24-.3-.22-.39-.47-.09-.24.37-.32.29-.56-.08-.24-.5-.1-.58-.35-.08-.25-.03-.27-.1-.52-.07-.25.24-.35.18-.59-.06-.25-.54-.17-.59-.43-.05-.26.33-.57.32-.59l-1.97.34s.27.33.33.61c.06.28-.18.33-.11.61.07.28.34.21.42.49.08.27-.24.36-.15.64.09.28.61.01.7.28.09.26-.06.42.04.68.1.26-.05.29.06.55.12.26.35.19.47.45.12.25-.26.45-.12.71.13.26.52.04.65.29.14.24.01.32.16.56.15.24-.01.34.15.59.16.24.57-.07.72.16.16.23-.15.49.02.72.17.23.33.11.5.33.18.22-.04.49.11.66l1.51-1.31c-.12-.14-.31.04-.48-.16-.16-.2-.04-.3-.2-.5Z"/>
    <path class="st1" d="M87.75,61.95c.07-.15.08-.29.07-.43,0-.13-.03-.26-.11-.35h0s-1.51,1.31-1.51,1.31h0c.09.11.21.19.35.21.14.03.31,0,.46-.05.15-.05.3-.15.43-.27.13-.12.24-.27.3-.41Z"/>
  </g>
  <g>
    <path class="st1" d="M84.78,46.23c-.1-.1-.25-.18-.41-.23-.15-.05-.33-.05-.51-.03-.18.02-.34.09-.47.18-.14.09-.29.2-.35.34-.06.14-.07.31-.04.46l1.97-.35c-.02-.14-.08-.26-.19-.36Z"/>
    <path class="st1" d="M88.26,54.21c-.14-.28-.41-.07-.55-.34-.15-.28.04-.59-.14-.88-.18-.28-.3-.22-.46-.46-.16-.24.09-.41-.05-.66-.15-.24-.41-.17-.55-.42-.14-.25-.63.12-.78-.15-.14-.27.44-.6.32-.86-.12-.26-.32-.25-.44-.51-.11-.27.36-.35.25-.61-.1-.26-.51-.11-.61-.39-.09-.27-.05-.29-.13-.57-.09-.28.23-.38.15-.65-.07-.27-.55-.19-.61-.48-.07-.29.31-.63.31-.64l-1.97.35s.28.37.35.68c.07.31-.17.37-.09.68.09.31.35.24.45.54.09.3-.22.4-.12.71.11.3.62.01.73.3.11.29-.03.46.09.74.13.28-.03.32.11.6.14.29.37.21.51.49.14.28-.23.49-.07.77.16.28.53.05.7.31.16.27.04.34.22.61.18.27.01.36.15.58.14.23.57-.05.7.21.14.26-.22.47-.09.73.13.27.31.18.45.47.15.28-.11.52.05.77l1.68-1.09c-.09-.14-.31,0-.44-.23-.13-.25.01-.32-.12-.59Z"/>
    <path class="st1" d="M88.76,55.72c.06-.14.08-.27.1-.38.02-.11.02-.21-.04-.3h0s-1.68,1.09-1.68,1.09h0c.1.15.25.3.42.37.18.07.38.07.55,0,.16-.06.3-.17.41-.32.1-.15.18-.31.24-.46Z"/>
  </g>
  <g>
    <path class="st1" d="M77.09,28.78c-.13,0-.28.05-.42.13-.14.08-.27.2-.38.34-.12.14-.19.29-.25.43-.05.15-.11.32-.09.44.02.12.09.22.17.3l1.3-1.52c-.09-.08-.21-.12-.34-.12Z"/>
    <path class="st1" d="M82.27,33.89c-.16-.18-.38.08-.54-.1-.16-.18-.02-.49-.19-.67-.16-.18-.26-.09-.43-.27-.17-.18.06-.39-.11-.57-.17-.18-.4-.04-.56-.22-.17-.18-.56.3-.72.13-.17-.17.28-.67.11-.84-.17-.17-.35-.08-.52-.25-.17-.17.21-.44.03-.61-.18-.17-.48.14-.66-.02-.18-.17-.14-.21-.32-.37-.18-.16.03-.41-.15-.58-.18-.16-.53.17-.71.02-.18-.16-.07-.63-.08-.64l-1.3,1.52s.36.04.54.2c.18.15,0,.34.18.5.17.16.36-.05.53.11.17.16-.06.4.11.56.17.16.51-.31.68-.14.17.16.09.36.25.52.17.16.04.25.21.42.17.16.35.02.52.18.17.17-.14.47.02.64.16.17.48-.14.64.03.16.17.05.27.21.44.16.17.02.3.17.47.16.17.52-.18.68,0,.16.18-.14.46.02.64.15.18.3.05.45.23.15.18-.07.44.04.58l1.54-1.27c-.12-.14-.3.04-.46-.14-.16-.19-.04-.28-.2-.47Z"/>
    <path class="st1" d="M88.13,45.13c-.1-.31-.4-.14-.5-.45-.1-.31.13-.59.02-.89-.11-.31-.24-.26-.34-.57-.11-.3.17-.42.05-.72-.12-.3-.38-.28-.51-.58-.12-.3-.65.02-.78-.27-.12-.29.48-.6.34-.9-.13-.3-.33-.29-.47-.59-.14-.29.33-.38.19-.68-.14-.3-.53-.11-.68-.4-.15-.29-.1-.32-.25-.61-.15-.29.12-.46-.03-.75-.16-.29-.61-.09-.77-.37-.17-.28.04-.77.03-.78l-1.7,1.06s.38.23.54.49c.15.27-.06.39.09.66.15.27.39.14.54.41.14.28-.16.42-.02.7.14.27.61-.06.75.22.13.28,0,.45.13.74.13.28-.03.31.1.6.13.28.36.22.48.51.12.29-.27.46-.15.74.11.29.52.12.63.42.11.29-.02.34.09.64.1.3-.07.36.03.65.1.29.58.1.68.4.1.3-.28.46-.19.75.1.3.28.24.38.54.09.3-.21.47-.15.7l1.92-.56c-.07-.23-.31-.13-.4-.44-.09-.31.05-.35-.05-.66Z"/>
    <path class="st1" d="M88.33,47.14c.11-.2.19-.29.23-.46.05-.14.07-.3.02-.45h0s-1.92.56-1.92.56h0c.04.14.12.28.23.37.11.08.29.2.44.15.05-.06.15-.17.26-.16l.03-.04c.12,0,.15.12.17.2.02.09.07.19.23.17l.03-.04c.12-.02.24-.19.28-.32Z"/>
    <g>
      <path class="st1" d="M82.73,37.34v-.03s-.03-.03-.03-.03l-.05-.06-.02-.03-.02-.03v-.03s-.02-.02-.02-.02v-.02s0-.02,0-.02v-.02s.01-.02.01-.02v-.02s.04-.05.04-.05l.03-.05.06-.1.02-.05v-.02s.01-.02.01-.02v-.02s0-.02,0-.02v-.02s-.02-.02-.02-.02l-.02-.03-.03-.03-.03-.03-.02-.03v-.02s-.01-.02-.01-.02v-.02s0-.02,0-.02v-.04s.03-.04.03-.04l.02-.04v-.02s.02,0,.02,0h0s0,0,0,0h0s0,0,0,0h0s0,0,0,0h0s.04.02.04.02h.02s.02,0,.02,0h.03s.02,0,.02,0h.02s.02-.02.02-.02h.02s.02-.03.02-.03v-.02s0,0,0,0l-.03-.04-.03-.04h-.02s-.02-.02-.02-.02l-.04-.02-.03-.03-.03-.03-.04-.03h-.02s-.02-.02-.02-.02h-.02s-.02,0-.02,0h-.02s-.02,0-.02,0h-.05s-.11.06-.11.06l-.11.04h-.05s-.02.01-.02.01h-.02s-.05-.02-.08-.02l-.09-.03c-.06-.02-.11-.05-.16-.06h-.02s-.01-.02-.01-.02c0,0,0-.01,0-.01h0s0-.03,0-.03v-.02s0-.03,0-.03v-.03s0-.03,0-.03v-.02s-.01-.01-.01-.01h0s-.01-.02-.01-.02h-.02s-.02-.01-.02-.01h-.02s-.03,0-.03,0c-.04,0-.08.01-.12.02h-.06s-.06.01-.06.01h-.03s-.02,0-.02,0h-.02s0-.02,0-.02h0s.77-.64.77-.64l.39-.32.39-.32h0s0,.03,0,.03v.02s.01.02.01.02h0s0,.02,0,.02h0s0,.02,0,.02h0s0,.03,0,.03c0,.02,0,.04,0,.07v.04s0,.02,0,.02v.02s.02.01.02.01h.02s.02.02.02.02h.03s.04.02.07.03c.03.01.05.02.08.03.03.01.06.02.09.03h.02s0,0,0,0h0s0,0,0,0h0s.83,1.1.83,1.1h0s0,0,0,0h0s-.02.04-.02.04v.03s-.02.03-.02.03v.03s0,.02,0,.02v.02s0,.02,0,.02v.03s.05.06.05.06v.03s.01.01.01.01h0s0,.03,0,.03h0s0,.01,0,.01h0s.01.02.01.02h.03s.03.02.03.02h.04s.03.01.03.01c0,0,.01,0,.01,0h.01s0,.02,0,.02h0s0,.02,0,.02c0,0,0,0,0,.01l.02.03s.03.04.04.06l-.42.27-.42.27-.85.53h0s0-.02,0-.03v-.03s0-.08,0-.08v-.08s0-.04,0-.04v-.04Z"/>
      <path class="st0" d="M83.76,33.87s-.04,0-.06,0h0s0,0,0,0h0s0,0,0,0h-.01s-.02.03-.02.03l-.05.04-.1.08-.19.16-.39.32-.77.64-1.54,1.27.73.9.75.96,1.19-.22-.16.03h-.09s-.09.01-.09.01h-.1s-.1,0-.1,0h-.1s-.1-.03-.1-.03l-.1-.02-.1-.03-.1-.03-.1-.04-.1-.05-.09-.05-.09-.05-.08-.06-.08-.06-.07-.06-.07-.06-.06-.06-.11-.13-.02-.03h0s0,0,0,0h0s.03.06.03.06l.07.1.15.21.29.45,1.7-1.06.85-.53.42-.27.21-.13.11-.07.05-.03.03-.02h.01s0-.01,0-.01h0s0,0,0,0h0c-1.02-1.45-.99-1.4-1.54-2.17Z"/>
    </g>
  </g>
  <g>
    <path class="st1" d="M24.76,26.52c.08.15.21.28.36.37.14.09.32.12.5.13.18,0,.35-.04.5-.11.15-.08.32-.16.41-.3.09-.13.13-.3.14-.47l-2-.11c0,.17.02.35.1.49Z"/>
    <path class="st1" d="M26.14,16.29c0,.29.34.24.31.56-.04.32-.38.45-.44.77-.07.33.06.36,0,.69-.07.34-.38.28-.45.63-.07.35.17.48.1.83-.06.35.56.35.49.69-.06.34-.73.28-.78.63-.05.35.12.46.07.81-.05.35-.49.16-.54.51-.04.35.39.41.35.76-.04.35-.09.34-.13.69-.03.35-.36.34-.39.69-.03.35.45.44.42.79-.02.35-.47.65-.47.67l2,.11s-.18-.45-.16-.79c.03-.34.27-.32.3-.66.03-.34-.25-.36-.21-.7.03-.34.36-.3.4-.63.04-.33-.54-.3-.5-.64.04-.34.26-.42.3-.76.05-.34.2-.27.25-.61.05-.33-.18-.41-.12-.75.06-.34.48-.26.55-.6.07-.33-.37-.41-.29-.75.07-.34.21-.3.29-.64.07-.34.26-.3.33-.65.07-.36-.44-.42-.38-.77.04-.36.46-.37.47-.77,0-.4-.19-.39-.23-.77-.04-.37.28-.51.22-.8l-1.97.37c.04.22.3.15.34.47.03.31-.12.32-.12.61Z"/>
    <path class="st1" d="M27.63,5.4c-.44.14-.23.4-.6.61-.36.19-.78.14-1.09.5-.27.36-.16.44-.36.8-.17.37-.46.26-.6.66-.12.4.11.55.03.93-.07.38.56.36.51.71-.04.34-.71.35-.72.73,0,.38.18.48.2.87.05.39-.44.32-.35.75.11.43.53.31.66.66.14.35.09.37.23.69.14.31-.15.46-.04.74.11.28.58.16.67.48.05.15-.03.33-.1.46-.08.13-.18.23-.17.24l1.97-.37s-.29-.45-.41-.81c-.11-.36.12-.45-.02-.81-.14-.35-.4-.24-.54-.56-.14-.31.17-.44.06-.71-.09-.26-.61,0-.7-.3-.06-.3.12-.42.1-.71-.02-.3.15-.26.15-.57.01-.32-.22-.37-.19-.69.04-.32.46-.26.52-.55.06-.28-.36-.39-.27-.68.1-.29.24-.23.35-.48.13-.24.29-.14.43-.32.14-.15-.23-.52,0-.68.26-.13.42.18.66.14.23-.07.18-.27.47-.29.29-.03.36.31.56.33l.12-2c-.31-.01-.27.22-.68.26-.41.04-.43-.15-.87-.01Z"/>
    <path class="st1" d="M38.42,9.84c-.28-.23-.43.09-.71-.13-.28-.22-.26-.59-.55-.8-.29-.21-.37-.1-.66-.3-.29-.2-.13-.46-.43-.66-.3-.2-.52-.02-.82-.21-.31-.19-.52.39-.83.22-.3-.17-.02-.78-.33-.96-.32-.17-.48-.04-.8-.2-.32-.16,0-.52-.34-.68-.34-.15-.52.24-.85.1-.34-.13-.32-.18-.67-.31-.34-.12-.27-.43-.64-.54-.37-.11-.54.36-.9.29-.35-.09-.69-.51-.72-.52l-.12,2s.38-.19.7-.12c.31.06.24.29.54.38.3.09.38-.19.69-.08.31.11.18.42.48.53.29.13.43-.44.74-.3.31.13.32.36.61.51.3.15.19.26.48.42.29.16.44-.03.74.14.29.17.07.54.36.72.28.18.51-.2.79-.01.28.19.2.31.48.5.28.19.16.35.44.55.27.2.55-.24.82-.02.27.21.05.55.31.76.26.21.38.06.64.28.26.21.1.53.28.69l1.33-1.49c-.2-.18-.35.04-.62-.19-.27-.23-.17-.34-.45-.57Z"/>
    <path class="st1" d="M45.42,18.93c-.15-.33-.43-.11-.57-.43-.16-.32.02-.64-.14-.96-.17-.32-.29-.25-.46-.56-.17-.31.08-.47-.1-.78-.18-.31-.46-.24-.65-.55-.19-.3-.64.13-.84-.16-.2-.29.32-.71.11-1-.21-.29-.41-.25-.63-.53-.22-.28.22-.47,0-.75-.23-.28-.57,0-.8-.27-.23-.27-.2-.3-.44-.57-.24-.26-.02-.5-.28-.76-.26-.26-.63.05-.89-.19-.25-.24-.22-.78-.24-.8l-1.33,1.49s.46.13.7.36c.24.23.06.41.3.64.23.24.43.04.66.29.23.25-.02.46.19.71.22.25.59-.2.8.06.22.26.13.47.33.73.21.26.06.33.25.59.2.27.41.16.6.44.19.28-.16.52.01.8.18.28.55.04.72.33.17.29.05.36.21.65.16.29,0,.38.15.68.15.3.59.04.74.34.16.3-.21.51-.06.81.14.3.32.22.45.54.13.31-.15.51-.05.75l1.86-.74c-.1-.25-.33-.12-.47-.45-.14-.33,0-.39-.14-.72Z"/>
    <path class="st1" d="M45.87,21.05c.11-.13.16-.3.19-.46.03-.16.03-.33-.03-.49h0s-1.86.74-1.86.74h0c.06.15.15.29.27.38.13.09.3.15.47.18.16.02.35,0,.52-.06.17-.06.32-.16.43-.29Z"/>
  </g>
  <g>
    <path class="st1" d="M35.96,21.35c.07.09.19.18.33.26.13.07.3.13.48.17.18.04.34.04.5.01.16-.03.33-.07.43-.16.1-.09.15-.22.16-.35l-1.99-.2c0,.09.02.18.09.27Z"/>
    <path class="st1" d="M33.37,16.75c.18.1.3-.23.48-.12.18.11.11.44.28.55.16.11.24.01.4.13.16.13-.05.37.09.49.13.13.34-.01.48.13.12.15.55-.28.69-.11.14.18-.41.58-.31.74.1.15.27.12.37.29.09.18-.37.3-.31.46.06.16.48.03.54.22.05.19,0,.2.03.39.03.19-.29.24-.28.42.01.17.5.19.49.39,0,.21-.45.36-.45.36l1.99.2s-.17-.36-.17-.62c0-.26.25-.27.23-.54-.03-.27-.3-.24-.34-.5-.05-.25.28-.32.2-.59-.08-.27-.61-.02-.69-.25-.09-.23.07-.39-.05-.62-.12-.23.04-.28-.1-.51-.15-.22-.35-.12-.51-.32-.16-.19.18-.48,0-.68-.19-.2-.49.11-.67-.06-.19-.17-.09-.28-.28-.44-.2-.15-.08-.31-.29-.46-.22-.14-.47.29-.68.16-.2-.12-.02-.49-.25-.61-.22-.12-.31.06-.53-.05-.22-.1-.15-.44-.33-.51l-.73,1.86c.14.05.22-.19.41-.11.19.09.12.22.3.32Z"/>
    <path class="st1" d="M32.38,15.93c0,.16.04.28.09.39.05.1.1.19.19.23h0s.73-1.86.73-1.86h0c-.11-.05-.25-.06-.37,0-.12.05-.25.16-.35.28-.1.12-.17.29-.22.46-.05.17-.07.35-.07.51Z"/>
  </g>
  <g>
    <path class="st1" d="M58.78,22.59c.06.15.19.28.33.37.14.09.31.13.49.15.18.01.35-.02.5-.06.16-.05.32-.11.42-.2.1-.09.15-.21.17-.33l-1.96-.41c-.03.17-.02.34.04.49Z"/>
    <path class="st1" d="M66.07,16.59c-.36-.02-.3.31-.63.32-.33,0-.56-.28-.91-.23-.34.07-.32.19-.64.29-.33.09-.43-.18-.76-.06-.32.14-.3.4-.59.57-.3.16.1.64-.16.8-.26.16-.68-.35-.95-.14-.26.22-.21.41-.44.64-.24.23-.48-.17-.72.09-.23.27.1.55-.09.82-.19.28-.24.24-.41.54-.16.3-.46.17-.61.49-.14.33.3.54.2.85-.1.31-.58.52-.58.55l1.96.41s-.13-.37-.05-.62c.09-.25.32-.16.41-.39.1-.22-.14-.35-.02-.58.13-.23.42-.04.55-.24.14-.2-.35-.49-.18-.7.19-.2.39-.13.58-.31.19-.19.28-.04.47-.21.21-.15.09-.38.32-.52.23-.15.45.22.67.1.22-.11.03-.5.29-.61.25-.09.3.04.55-.03.25-.08.3.12.54.07.24-.03.16-.54.43-.56.28-.01.3.4.54.41.24.02.27-.17.52-.12.25.06.22.4.38.46l.67-1.88c-.26-.09-.31.17-.64.08-.34-.08-.32-.21-.68-.27Z"/>
    <path class="st1" d="M67.93,17.55c0-.17-.07-.33-.16-.47-.09-.13-.22-.26-.38-.32h0s-.67,1.88-.67,1.88h0c.11.04.23.05.35.01.13-.04.27-.12.39-.23.12-.1.24-.23.33-.39.09-.16.14-.33.15-.5Z"/>
  </g>
  <g>
    <path class="st1" d="M37.26,55.15c-.15.15-.24.34-.26.52-.03.17.02.35.1.51.08.16.21.28.35.38.14.1.3.2.46.23.15.03.31,0,.44-.02l-.46-1.95c-.26.06-.47.18-.62.33Z"/>
    <path class="st1" d="M46,62.02c-.37-.09-.38.25-.75.13-.37-.12-.47-.49-.81-.64-.35-.14-.4-.03-.74-.2-.34-.17-.2-.45-.51-.63-.31-.18-.52-.02-.82-.24-.3-.21-.58.33-.89.06-.31-.26.15-.78-.08-1.03-.23-.25-.4-.23-.6-.51-.14-.31.31-.4.21-.65-.05-.25-.52-.14-.55-.48-.03-.36.04-.36.01-.8-.06-.47.33-.53.05-1.22-.18-.36-.48-.48-.72-.51-.25-.03-.47-.02-.76-.09-.56-.11-1.1-.38-1.15-.38l.46,1.95s.33-.27.43-.23c.1.05-.14.2-.14.19.03.1.32.09.34.43.02.38-.32.37-.28.86.06.52.63.27.74.72.14.43.05.65.28,1.07.27.37.09.45.4.79.31.35.51.22.84.51.32.29.07.63.43.9.37.27.6-.1.97.12.36.22.29.35.68.54.38.19.3.37.7.54.41.16.54-.31.94-.18.4.13.31.54.72.66.42.11.46-.08.88.02.42.08.46.43.79.48l.29-1.98c-.27-.05-.28.22-.66.15-.38-.07-.33-.24-.7-.33Z"/>
    <path class="st1" d="M55.94,57.79s-.04.09-.06.13c-.14.43.15.46-.01.78-.18.34-.56.36-.76.65-.21.29-.11.37-.35.65-.25.28-.48.07-.75.34-.27.27-.16.52-.46.8-.26.23.23.63-.09.86-.33.22-.7-.34-1-.2-.31.13-.33.33-.69.44-.37.1-.34-.39-.71-.3-.38.09-.3.51-.67.57-.37.06-.37.02-.75.04-.38.02-.41-.28-.77-.3-.36-.02-.43.49-.82.45-.39-.04-.68-.49-.7-.51l-.29,1.98s.59-.14,1.01-.1c.43.02.42.26.86.28.44,0,.44-.29.87-.32.43-.02.46.29.91.22.45-.08.21-.61.6-.7.4-.09.58.08,1-.05.42-.14.43.03.86-.16.43-.21.37-.44.75-.7.36-.26.68.01.99-.27.3-.28-.01-.59.28-.88.29-.3.4-.2.69-.52.28-.33.43-.22.7-.58.26-.38-.19-.62.02-.98.1-.18.25-.24.39-.3.15-.06.3-.15.34-.23,0,0,0-.02,0-.02.08-.19-.09-.36.1-.54.24-.15.46.19.6.17l-.54-1.96c-.44.09-.3.29-.78.53-.44.32-.53.22-.8.73Z"/>
    <path class="st1" d="M58.66,56.97c-.06-.14-.19-.24-.35-.33-.22-.08-.5-.14-.79-.1h0s.54,1.96.54,1.96h0c.1,0,.18-.04.28-.13.17-.09.34-.23.45-.4.11-.16.14-.37.07-.53-.07-.17-.15-.33-.21-.47Z"/>
  </g>
  <ellipse class="st1" cx="59.21" cy="44.35" rx="2.21" ry="2.73" transform="translate(-14.74 46.61) rotate(-38.58)"/>
  <ellipse class="st1" cx="37.72" cy="43.17" rx="2.73" ry="2.21" transform="translate(-17.33 27.18) rotate(-32.66)"/>
</svg>