<?xml version="1.0" encoding="UTF-8"?>
<svg id="_レイヤー_1" data-name="レイヤー_1" xmlns="http://www.w3.org/2000/svg" version="1.1" viewBox="0 0 100 100">
  <!-- Generator: Adobe Illustrator 30.0.0, SVG Export Plug-In . SVG Version: 2.1.1 Build 123)  -->
  <defs>
    <style>
      .st0 {
        fill: #1c1917;
      }

      .st1 {
        fill: #fff;
      }
    </style>
  </defs>
  <path class="st1" d="M45.49,90.01c-.8.3-2.36-2.14-2.71-2.68-.91-1.42-2.04-3.6-2.69-6.7-.65.69-1.36,1.68-1.5,2.95-.16,1.48.55,2.48.21,2.71-.42.3-2-.9-3.01-2.36-1.32-1.9-1.53-3.99-1.51-5.32-.62.4-1.27.99-1.49,1.82-.25.94.18,1.65,0,1.76-.33.18-2.2-1.92-3.36-4.55-.51-1.17-1.17-3.09-1.23-5.73,0-.37,0-.75,0-1.15-.31.1-2.04.7-2.85,2.49-.47,1.04-.41,2-.35,2.46-.47-.33-2.24-1.64-2.75-4.05-.28-1.31-.07-2.41.1-3.03-.68.44-1.48,1.12-1.92,2.17-.35.84-.27,1.45-.44,1.47-.35.05-1.42-2.53-1.4-5.34.03-3.96,2.19-6.97,2-7.07-.23-.12-2.38,4.66-3.45,4.37-.85-.23-1-3.59,0-6.4.63-1.74,1.61-2.99,2.33-3.76-1.2.63-2.4,1.27-3.6,1.9.11-1.22.41-2.91,1.23-4.78,1.22-2.78,2.99-4.57,4.08-5.51-1.08.44-2.15.88-3.23,1.32-.72-2.33-.14-5.17.06-6.16,1.58-3.72,3.25-5.11,5.93-7.41,2.5-2.15,1.35-1.17,2.44-2.04-.04-2.29.09-4.37.31-6.2.45-3.77,1.01-4.39.66-6.28-.41-2.21-1.38-2.58-1.36-4.6,0-.52.02-2.68,1.22-3.65,2.37-1.91,8.4,1.56,11.75,4.5,1.47,1.3,3.68,3.6,5.44,7.31,2.03-.39.86-.75,5.87-.71,1.87.01,3.42.34,4.53.66l.08.02c.31-.71.62-1.43.62-1.43.63-1.46,2.75-5.85,7.79-8.69,4.36-2.46,8.54-3.46,10.16-2.3,1.63,1.16,1.83,5.04,1.92,6.61.13,2.46-.4,4.55-.78,8.06-.06.55-.47,5.88-.51,6.38l2.47,1.6c1.4,1.83,3.21,2.7,5.8,6.03,2.03,2.61,2.8,6.04,3.93,9.22.02.05.02.09-.03.11-1.08.31-2.63-1.08-3.79-1.21.27,1.82,1.04,4.3,2.83,6.79.85,1.17,1.13,2.35,1.87,2.86-.93-.05-1.86-.1-2.79-.15-.15.89-.17,2.03.4,3.05.39.69.86,1,.76,1.22-.12.25-1,.25-4.17-.74.44,1.59.89,3.93.69,6.75-.31,4.49-2.07,7.78-3.12,9.44-.41-.96-.83-1.91-1.24-2.87,0,.47-.07,1.49-.71,2.53-.44.72-.97,1.16-1.33,1.41-.25-1.47-.54-1.82-.77-1.84-.47-.04-.76,1.28-1.79,2.77-.08.12-1.76,2.65-2.37,2.39-.34-.15-.02-1-.37-2.3-.25-.92-.71-1.6-1.06-2.03-.25,1.07-.7,2.47-1.53,3.96-1.19,2.15-2.67,3.58-3.69,4.43"/>
  <path class="st1" d="M47.03,90.18c-.05-.3-.51-2.73-.83-2.71-.3.03-.02,2.28-.71,2.53"/>
  <path class="st1" d="M52.8,90.2c-.15-1.3-.31-2.61-.46-3.91-.69,1.57-1.56,3.29-2.67,5.09"/>
  <path class="st1" d="M58.54,87.72c.1-.9.2-1.8.3-2.7-.71.66-1.45,1.32-2.21,1.98"/>
  <path class="st1" d="M64.12,84.52c-.11-1.31-.23-2.63-.34-3.94-.27.89-.71,2.01-1.45,3.19-1.25,2-2.78,3.25-3.79,3.95"/>
  <ellipse class="st0" cx="48.12" cy="54.89" rx="2.23" ry="2.87" transform="translate(-13.21 94.47) rotate(-81.6)"/>
  <path class="st0" d="M45.8,22.87c2.78-.77,5.69-.7,8.46.09.41.12,1.02-.07,1.33-.36s.2-.55-.18-.65c-3.21-.92-6.65-.89-9.86,0-.28.08-.91.32-.82.71s.83.28,1.07.21h0Z"/>
  <path class="st0" d="M58.21,17.87c1.66-2.34,3.79-4.2,6.33-5.54,1.41-.74,2.88-1.4,4.42-1.82.99-.27,2.22-.58,3.24-.25,1.86.59,2.04,3.7,2.18,5.3.2,2.28-.05,4.46-.37,6.72-.42,2.99-.71,6.01-.6,9.03.02.65,1.91.26,1.88-.5-.21-5.65,1.61-11.21.84-16.84-.28-2.04-.87-4.45-3.2-4.87-2.85-.51-6.06.84-8.55,2.07-3.18,1.58-5.89,3.72-7.94,6.63-.51.73,1.38.62,1.76.08h0Z"/>
  <path class="st0" d="M21.52,36.45c.85-.98,1.85-1.84,2.83-2.68s1.93-1.59,2.95-2.31c.35-.25-.31-.29-.44-.27-.44.05-.9.18-1.26.44-1.05.75-2.05,1.54-3.03,2.38s-2.02,1.77-2.9,2.79c-.21.24.7.16.75.15.38-.08.84-.19,1.11-.5h0Z"/>
  <path class="st0" d="M29.6,75.14c-.36-1.52-.5-3.06-.45-4.62,0-.3-1.2.04-1.26.06-2.37.8-4.1,2.78-3.82,5.39l1.83-.57c-2.22-1.58-3.29-4.28-2.61-6.94.12-.46-1.48.05-1.64.16-.62.42-1.18.87-1.63,1.47-.29.39-.5.81-.64,1.27-.04.14-.09.87-.22.99l1.63-.44c-.53-.12-.9-2.32-.98-2.72-.33-1.66-.33-3.36.05-5.02.25-1.13.66-2.21,1.15-3.25.1-.22.69-1.07.56-1.32-.09-.16-.39-.12-.53-.11-1.04.11-1.44.54-1.92,1.37-.32.54-.62,1.09-.96,1.62-.17.28-.35.55-.54.81-.11.14-.65.63-.65.75,0,.14.91-.2.92-.27,0-.03-.18-.26-.19-.32-.06-.32-.18-.62-.22-.95-.12-.98-.03-1.98.14-2.94.37-2.1,1.31-4.01,2.75-5.58.44-.48-1.39-.02-1.57.07-1.2.63-2.4,1.27-3.6,1.9l1.66-.24c.4-3.93,2.26-7.52,5.23-10.12.47-.42-1.25-.08-1.39-.02-1.08.44-2.15.88-3.23,1.32l1.48-.15c-.64-2.33-.47-5.07.58-7.24.11-.23-1.63-.13-1.85.34-1.07,2.21-1.26,5.03-.61,7.4.1.37,1.3-.07,1.48-.15,1.08-.44,2.15-.88,3.23-1.32l-1.39-.02c-3.08,2.7-4.99,6.39-5.41,10.46-.04.37,1.52-.17,1.66-.24,1.2-.63,2.4-1.27,3.6-1.9l-1.57.07c-1.53,1.66-2.53,3.61-2.93,5.84-.17.98-.74,4.13.66,4.58,1.1.35,2.33-.65,2.93-1.44.5-.64.9-1.36,1.31-2.06.22-.38.46-1.04.8-1.32l-1.26.44h.03c-.18-.04-.35-.07-.53-.11.08.15-.36.81-.43.95-.37.78-.71,1.58-.96,2.41-.66,2.15-.78,4.4-.28,6.6.24,1.02.48,2.74,1.83,2.52.57-.1,1.02-.27,1.24-.78s.22-1.06.49-1.56c.36-.67.91-1.19,1.53-1.61l-1.64.16c-.72,2.78.35,5.57,2.68,7.22.28.2,1.88-.12,1.83-.57-.2-1.85.73-3.88,2.58-4.51l-1.26.06c-.04,1.56.09,3.1.45,4.62.09.37,1.98-.1,1.88-.5h0Z"/>
  <path class="st0" d="M45.42,89.75c.75-.19.65.01.28-.25-.12-.08-.23-.18-.33-.28-.31-.29-.57-.62-.83-.96-.4-.54-.77-1.1-1.11-1.67-1.15-1.92-1.91-4.02-2.38-6.2-.09-.42-1.62.15-1.79.34-.85.92-1.51,1.98-1.6,3.26-.05.64.08,1.24.22,1.85.13.57-.08.56.72.32.94-.28.54-.18.06-.51-2.37-1.63-3.44-4.49-3.43-7.27,0-.37-1.51.14-1.66.24-.67.45-1.33,1-1.63,1.78-.15.39-.19.81-.15,1.22.02.16.18.63.08.76l.86-.44h-.04c.28-.02.57-.05.85-.07-.36-.04-.86-.75-1.07-1.01-.57-.7-1.06-1.47-1.5-2.26-.24-.44-2.02.26-1.88.5.54.96,1.14,1.89,1.88,2.71.44.49.8.84,1.5.75.36-.05.93-.15,1.19-.44.19-.21.12-.38.08-.65-.19-1.21.26-2.16,1.27-2.84l-1.66.24c0,1.64.32,3.28,1.14,4.72.64,1.13,1.85,2.75,3.2,3.08.56.13,1.27-.03,1.76-.31s.43-.55.32-1.04c-.41-1.83-.1-3.37,1.19-4.77l-1.79.34c.52,2.41,1.41,4.72,2.75,6.79.44.68.9,1.35,1.45,1.93.66.71,1.25.9,2.2.66.16-.04.94-.25.87-.52s-.89-.04-1.01-.01h0Z"/>
  <path class="st0" d="M47.97,89.93c-.13-.7-.27-1.4-.49-2.08-.08-.27-.18-.65-.49-.72-.2-.04-.43,0-.62.03-.25.05-.5.12-.73.23-.16.07-.35.17-.44.33-.07.12-.07.28-.09.42-.05.45-.06.9-.13,1.34v-.08c-.02.16-.05.32-.12.47-.03.06-.06.12-.1.17-.04.07.09-.08,0-.01-.07.06.09-.06.08-.06h-.01c.11-.05.22-.1.34-.14-.17.07-.39.14-.53.27-.06.06-.15.16-.04.23.13.08.34.06.48.04.25-.03.5-.08.73-.17.36-.14.73-.31.9-.68.1-.22.14-.47.18-.71.07-.45.05-.91.14-1.36v.08s0-.09.02-.14c0-.01.02-.03.02-.04,0-.03-.05.05-.06.06.05-.05-.17.11-.11.08l-.4.18-.48.13-.43.04s-.23,0-.24-.05c0,0,.02,0,.02.01.01.01.03.02.04.04l-.05-.06c.12.14.18.35.24.52.09.28.16.56.23.84.1.43.19.86.27,1.29.02.11.27.11.33.11.22,0,.47-.04.69-.1s.45-.13.64-.26c.08-.05.25-.14.23-.26h0Z"/>
  <path class="st0" d="M53.74,89.95c-.15-1.3-.31-2.61-.46-3.91-.03-.24-.79-.06-.89-.04-.2.05-.4.11-.59.19-.13.06-.33.14-.39.28-.77,1.75-1.67,3.45-2.67,5.09-.17.28.67.17.75.15.33-.07.91-.18,1.11-.5,1-1.63,1.9-3.33,2.67-5.09l-1.87.42c.15,1.3.31,2.61.46,3.91.01.11.28.11.33.11.22,0,.47-.04.69-.1s.45-.14.64-.26c.09-.05.24-.14.23-.26h0Z"/>
  <path class="st0" d="M59.48,87.47c.1-.9.2-1.8.3-2.7l-.05-.06c-.06-.03-.13-.05-.19-.05-.17-.02-.35,0-.51.04s-.34.08-.5.13-.39.15-.53.27c-.73.67-1.46,1.33-2.21,1.98-.07.06-.14.16-.04.23.1.08.37.06.48.04.25-.03.5-.08.73-.17.18-.07.38-.14.53-.27.74-.65,1.48-1.31,2.21-1.98l-1.79.34c-.1.9-.2,1.8-.3,2.7-.01.1.31.11.33.11.22,0,.47-.04.69-.1s.45-.13.64-.26c.1-.07.21-.13.23-.26h0Z"/>
  <path class="st0" d="M65.06,84.27c-.11-1.31-.23-2.63-.34-3.94-.03-.35-1.77.09-1.87.42-.86,2.8-2.66,5.32-5.03,6.96-.06.04-.26.15-.23.26s.26.11.33.11c.41.01.98-.12,1.33-.36,2.58-1.78,4.53-4.31,5.45-7.32l-1.87.42c.11,1.31.23,2.63.34,3.94.03.31,1.93-.03,1.88-.5h0Z"/>
  <path class="st0" d="M81.17,66.69c-.22,3.4-1.31,6.67-3.11,9.55l1.87-.42c-.41-.96-.83-1.91-1.24-2.87-.17-.39-1.88.09-1.88.5-.02,1.51-.73,2.88-1.95,3.78l1.79-.34c-.21-1.17-.37-2.18-1.75-1.87-1.56.35-1.88,2.03-2.68,3.22-.19.29-.39.57-.6.84-.19.25-.38.49-.59.73-.14.16-.46.35-.55.53.86.18,1.23.08,1.1-.32-.01-.04-.02-.08-.02-.12.02-.12-.01-.28-.02-.41-.02-.43-.03-.85-.11-1.27-.18-.87-.59-1.65-1.14-2.34-.25-.32-1.77.02-1.87.42-.79,3.26-2.57,6.15-5.15,8.3-.33.27.29.28.44.27.41-.03.94-.17,1.26-.44,2.63-2.2,4.49-5.15,5.3-8.48l-1.87.42c.55.69.96,1.47,1.14,2.34.09.46-.09,1.57.22,1.94.62.74,2.28-.31,2.77-.8.7-.7,1.3-1.56,1.83-2.4.26-.42.49-.86.71-1.3.08-.16.19-.33.26-.5.16-.41.58-.38-.49-.15-.91.19-.63.04-.4.57.18.41.25.88.33,1.32s1.61-.2,1.79-.34c1.33-.98,2.1-2.47,2.13-4.12l-1.88.5c.41.96.83,1.91,1.24,2.87.19.44,1.69-.14,1.87-.42,1.84-2.93,2.92-6.26,3.14-9.71.01-.22-1.85-.03-1.88.5h0Z"/>
  <path class="st0" d="M77.78,34.79c1.43,1.45,2.78,2.93,3.83,4.67.7,1.16,1.31,2.37,1.86,3.6.37.84.72,1.69,1.04,2.55.28.76.9,1.88.87,2.69l.23-.26c.94-.56.56-.35-.13-.65-.26-.12-.51-.25-.77-.38-.46-.22-.91-.41-1.42-.5-.28-.05-1.79.14-1.72.6.28,1.77.86,3.46,1.72,5.03.52.94,1.18,1.78,1.7,2.72.39.71.69,1.43,1.33,1.96l1.5-.68c-.93-.05-1.86-.1-2.79-.15-.37-.02-1.49.15-1.56.62-.12.83-.14,1.66.14,2.46.15.42.6,1.42,1.02,1.68,1.12-.23,1.46-.35,1.02-.36-.08,0-.16-.01-.24-.03-.22-.06-.45-.08-.68-.13-.86-.19-1.71-.45-2.55-.71-.26-.08-1.83.19-1.72.6.2.75.36,1.51.49,2.27.06.35,1.96-.06,1.88-.5-.13-.77-.29-1.52-.49-2.27l-1.72.6c1.56.48,3.52,1.3,5.16.67.6-.23.85-.38.53-.97-.3-.55-.71-.94-.89-1.57-.22-.74-.18-1.51-.08-2.27l-1.56.62c.93.05,1.86.1,2.79.15.19.01,1.85-.39,1.5-.68-.74-.62-1.05-1.61-1.55-2.41-.53-.85-1.12-1.64-1.58-2.53-.75-1.46-1.26-3.02-1.52-4.65l-1.72.6c1.06.2,1.93.95,2.98,1.18.59.13,1.85.16,2.32-.33.58-.6-.29-2.03-.55-2.75-.46-1.26-.97-2.49-1.54-3.7-1.39-2.91-3.11-5.17-5.37-7.46-.32-.33-2.03.37-1.78.63h0Z"/>
  <path class="st0" d="M27.35,30.08c.03-1.95.16-3.9.43-5.83.17-1.21.48-2.4.61-3.62.12-1.06-.03-2.14-.39-3.13-.44-1.22-1.07-2.17-1.03-3.52.02-.95.15-2.56,1.1-3.07.88-.47,2.31.09,3.15.4,2.72,1,5.31,2.77,7.41,4.75,2.5,2.36,4.36,5.28,5.62,8.47.31.78,2.18.24,1.88-.5-2.43-6.15-7.16-11.17-13.32-13.7-2.3-.94-5.8-1.52-7.16,1.2-.53,1.06-.65,2.35-.56,3.52.12,1.54,1.14,2.81,1.38,4.34.2,1.27-.16,2.51-.38,3.75-.41,2.36-.61,4.75-.64,7.14-.01.91,1.89.59,1.9-.18h0Z"/>
  <path class="st0" d="M37.88,24.81c.27-1.51-.09-3.09-1.08-4.28-.74-.89-1.74-1.51-2.8-1.93-.26-.1-.53-.2-.8-.27-.45-.11-1.01,0-1.33.36-.27.3-.2.72.22.82.3.08.6.18.89.3.2.08-.07-.04.05.02.06.03.13.06.2.09.12.06.24.12.36.19.29.16.57.35.83.56.44.35,1,1,1.27,1.61.38.86.46,1.78.3,2.7-.15.86,1.76.59,1.9-.18h0Z"/>
  <path class="st0" d="M59.73,25.55c.11-1.58.8-2.96,2.09-3.9.3-.22.61-.4.98-.56.23-.1.7-.23.91-.26.78-.11,1.5.03,2.23.41.81.42,2.15-.76,1.07-1.32-2.03-1.06-4.45-.57-6.27.67-1.71,1.17-2.78,3.02-2.92,5.08-.07,1.01,1.85.78,1.91-.12h0Z"/>
  <path class="st0" d="M37.43,56.53c1.6-.36,3.87-.44,3.88,1.88.03.56.04.98.25,1.45.21.39.48.77.88,1.08,2.3,1.78,5.69,2.75,8.62,2.17,2.54-.38,4.04-2.21,4.84-4.43.36-1.12,1.69-1.36,2.54-1.57.1-.03.22-.12-.06-.09.77-.3,1.64.09,1.94.87.46,1.21-.69,2.27-1.76,1.97,0,0-.4-.08-.4-.08-.21-.05-.34-.03-.29-.09.02-.04.1-.11.09-.17-.64,1.55-1.74,2.84-2.96,3.96-.96.92-2.3,1.31-3.52,1.56-4.53.97-11.33-1.08-11.54-6.49-.04-.24-.11-.43-.18-.44-.05-.01-.06.04-.15.08-.19.09-.59.38-.87.79-.49.7-1.46.87-2.16.38-1.23-.84-.6-2.8.86-2.83h0Z"/>
  <ellipse class="st0" cx="58.92" cy="45.92" rx="2.11" ry="2.61" transform="translate(-15.73 48.67) rotate(-40.04)"/>
  <ellipse class="st0" cx="38.35" cy="45.31" rx="2.61" ry="2.11" transform="translate(-18.81 29.31) rotate(-34.11)"/>
</svg>