<svg xmlns="http://www.w3.org/2000/svg" id="_レイヤー_1" viewBox="0 0 100 100"><defs><style>.st1{fill:#1c1917}</style></defs><path d="M27.24 72.6c-.01-.39-.02-.79 0-1.21-.33.11-2.14.76-2.97 2.66a4.8 4.8 0 0 0-.34 2.59c-.5-.34-2.38-1.7-2.94-4.23-.31-1.37-.1-2.54.07-3.19-.71.47-1.55 1.2-1.99 2.3-.35.88-.26 1.53-.44 1.56-.37.05-1.52-2.64-1.54-5.6-.02-4.17 2.21-7.36 2.01-7.47-.24-.12-2.35 2.28-3.37 5.09-.89-.23-1.31-4.21-.28-7.17.64-1.84 1.65-3.17 2.4-3.98-1.26.68-2.51.89-3.74 2.54.1-1.28.37-3.56 1.2-5.53 1.25-2.94 3.09-4.85 4.23-5.85-1.13.48-2.25.95-3.38 1.43-.78-2.44-.21-5.44-.02-6.48 1.62-3.94 3.35-5.42 6.15-7.88 2.61-2.29 1.4-1.24 2.54-2.17-.07-2.41.15-10.4-.24-12.39-.45-2.32-.38-3.45-.39-5.57 0-.54-.01-2.82 1.24-3.85 2.47-2.04 8.86 1.53 12.42 4.59 1.56 1.35 3.92 3.75 5.82 7.62 2.13-.43.9-.8 6.17-.82 1.97 0 3.6.31 4.77.64l.09.02c.32-.76.63-1.51.63-1.51.65-1.55 2.82-6.19 8.09-9.24 4.55-2.64 8.94-3.75 10.66-2.55s1.99 5.27 2.1 6.93c.17 2.59-.36 4.8-.72 8.5-.06.58-.42 6.2-.46 6.72.93.58 2.62 1.65 2.62 1.65 1.49 1.91 3.41 2.8 6.18 6.27 2.17 2.72 3.02 6.32 4.25 9.66.02.05.02.1-.03.11-1.13.34-2.78-1.1-4-1.22.3 1.92 1.15 4.51 3.07 7.11.9 1.22 1.22 2.46 2 2.99-.98-.04-1.96-.08-2.94-.13-.15.94-.16 2.13.46 3.2.42.72.92 1.04.82 1.27-.12.27-1.05.28-4.4-.72.49 1.67.98 4.13.82 7.09-.27 4.73-2.08 8.22-3.16 9.98-.45-1-.9-2-1.34-3 0 .49-.05 1.57-.72 2.68-.45.76-1.01 1.24-1.38 1.5-.28-1.54-.59-1.91-.83-1.93-.49-.04-.78 1.36-1.85 2.93-.08.13-1.82 2.81-2.47 2.54-.36-.15-.03-1.06-.42-2.42-.27-.96-.77-1.67-1.14-2.12a16.19 16.19 0 0 1-5.39 8.89c-.14-1.38-.27-2.76-.41-4.14-.27.94-.72 2.13-1.48 3.38a14.2 14.2 0 0 1-3.94 4.2c.09-.95.19-1.89.28-2.84-.74.7-1.51 1.4-2.3 2.11q-2.025 1.8-3.99 3.42l-.54-4.11a43.8 43.8 0 0 1-4.92 8.66c-.08-1.06-.25-2.62-.62-4.49-.06-.31-.58-2.87-.91-2.84-.32.03.01 2.4-.72 2.68-.84.32-2.51-2.22-2.88-2.79-.97-1.48-2.19-3.76-2.91-7.01-.68.73-1.41 1.79-1.54 3.13-.15 1.55.61 2.6.25 2.85-.44.32-2.11-.92-3.2-2.45-1.42-1.98-1.66-4.17-1.66-5.58-.65.43-1.32 1.05-1.54 1.94-.25 1 .21 1.74.02 1.85-.35.2-2.34-1.99-3.59-4.74-.55-1.22-1.27-3.24-1.37-6.02Z" style="fill:#fff"/><ellipse cx="47.98" cy="54.42" class="st1" rx="2.35" ry="3.02" transform="rotate(-82.3 47.98 54.413)"/><path d="M44.8 19.92c3.24-1.03 6.71-1.26 10.07-.57.48.1.78.56.68 1.04-.1.47-.57.78-1.04.68-3.03-1.05-6.42-1.27-9.58-.67-.29.07-.42-.38-.13-.48M59.84 11.97c3.36-3.15 7.65-5.62 12.33-6.1 4.09-.34 4.52 4.63 4.85 7.53.58 4.63-.16 9.28-.53 13.9-.18 1.63-2.62 1.41-2.49-.24 0-.03 0-.09.02-.12l.69-4.47c.39-2.98.89-5.91.64-8.91-.25-2.07.03-4.49-1.44-6.01-1.68-1.18-4.14-.29-6.03.26-2.81 1.01-5.58 2.36-7.83 4.38-.13.13-.35-.09-.21-.22M15.65 46.68c-.72-2.3-.53-4.68-.1-6.89 1.49-4.4 5.29-7.58 8.81-10.38.95-.74 2.03.72 1.03 1.41-5.49 4.06-10.46 8.2-8.71 15.54.19.66-.82.98-1.03.31ZM13.74 55.96c.14-4.26 2.05-8.5 5.23-11.52.35-.34.91-.33 1.25.02.33.35.32.91-.03 1.24-3.11 2.48-5.27 6.23-5.75 10.32-.04.43-.71.38-.69-.06ZM15.12 65.11c-2.16-3.76-.8-8.79 2.09-11.76.34-.34.9-.35 1.24 0 .33.32.34.84.05 1.19-2.26 2.64-3.78 6.64-2.51 10.01.35.57-.49 1.12-.87.57ZM18.13 73.23c-2.61-3.95-1.98-9.64.23-13.69a.88.88 0 0 1 1.2-.32c.42.24.56.78.32 1.2-2.21 3.43-3.17 8.61-1.05 12.33.31.44-.39.93-.7.49ZM23.74 76.92c-2.67-1.53-4.23-4.84-3.53-7.92a.88.88 0 0 1 1.04-.7c.47.1.78.56.68 1.04-.93 2.51.05 5.39 2.19 7.02.34.25-.03.79-.39.57ZM31.9 83.63c-2.91-1.92-4.88-5.29-5.38-8.75-.19-1.17-.24-2.35-.16-3.52a.87.87 0 0 1 .94-.81c.45.03.8.4.81.84 0 4.35 1.44 8.43 4.39 11.68.31.38-.25.89-.6.55ZM38.4 87.96c-3.32-1.34-5.47-4.86-5.55-8.4-.02-1.15 1.69-1.22 1.75-.07-.16 2.31.65 4.69 2.29 6.35.54.55 1.18.99 1.89 1.39.2.11.26.36.15.56a.41.41 0 0 1-.53.17M45.11 91.85c-3.14-2.56-5.06-6.19-6.09-10.04-.12-.47.15-.95.62-1.07s.95.15 1.07.62c.51 2.74 1.45 5.48 3.09 7.76.56.76 1.17 1.55 1.82 2.16.35.32-.13.88-.5.58ZM53.1 87.59c-.58 3.43-2.4 6.55-4.97 8.7-.13.11-.33.1-.44-.04-.1-.12-.1-.3.01-.42 2.2-2.32 3.5-5.38 3.66-8.45.09-1.22 1.93-1.01 1.74.2ZM60.34 86.52c-1.9 2.22-4.22 4.04-6.77 5.35-.2.1-.45.02-.56-.18-.1-.19-.03-.42.14-.53 2.3-1.52 4.28-3.47 5.8-5.7.71-.99 2.16.13 1.39 1.07Z" class="st1"/><path d="M65.63 81.49c-1.1 3.19-3.33 5.89-6.08 7.59-.15.09-.34.05-.43-.1a.32.32 0 0 1 .07-.41c2.43-1.93 4.13-4.66 4.76-7.57.29-1.19 2.07-.68 1.68.49M71.44 76.69c-.95 3.6-3.11 6.81-5.98 9.02-.18.14-.44.11-.58-.07a.417.417 0 0 1 .05-.56c2.54-2.34 4.23-5.47 4.8-8.77.23-1.18 2-.79 1.71.38M77.65 74.62c-.81 2.83-3.06 4.89-5.22 6.72-.18.15-.44.12-.59-.06a.426.426 0 0 1 .02-.56c1.75-1.89 3.64-3.93 4.09-6.53.25-1.19 2.04-.75 1.7.42ZM80.7 69.35c.17 3.02-.81 6.16-2.96 8.3-.08.09-.21.1-.3.02-.08-.07-.1-.2-.04-.29.87-1.15 1.45-2.38 1.67-3.78.23-1.35.17-2.73-.1-4.05-.1-.47.21-.94.68-1.04a.886.886 0 0 1 1.06.83ZM83.92 59c1.35 5.43.47 11.32-2.36 16.09-.07.12-.26.02-.2-.1 1.14-2.45 1.82-5.09 1.96-7.74.15-2.65-.24-5.29-1.09-7.76-.37-1.14 1.37-1.66 1.68-.49ZM84.47 52.74c.37 3.24 1.8 6.39 4.09 8.86.34.35-.19.89-.55.56a16.94 16.94 0 0 1-5.27-9.13c-.11-.48.2-.95.68-1.05.5-.11 1 .25 1.05.76M84.92 45.34c.53 3.64 2.2 7.18 4.41 10.12.22.25-.17.59-.39.34-1.13-1.31-2.7-3.11-3.48-4.64a24 24 0 0 1-2.25-5.43.877.877 0 1 1 1.71-.38ZM77.72 28.93c2.02 1.96 3.93 4 5.64 6.2l-.78-.26c.32-.07.73.13.91.44 2.34 3.38 3.84 7.29 5.07 11.18a.483.483 0 0 1-.92.29c-.33-.96-.67-1.92-1.05-2.86-1.06-2.55-2.34-5.02-4-7.23-.11-.14-.3-.38-.42-.52.14.21.53.32.75.23l-.78-.26c-1.82-1.97-3.82-3.77-6.02-5.3-1.43-1.05.27-3.14 1.59-1.93ZM24.01 24.54c-.3-4-1.07-8-.97-12.02.48-2.17 1.28-5.28 3.97-5.45 2.84-.13 5.42 1.29 7.78 2.64 1.55.95 3.02 1.97 4.38 3.27 2.62 2.62 4.48 5.81 5.9 9.15.19.44-.02.96-.46 1.15a.873.873 0 0 1-1.16-.5c-1.84-4.89-4.8-9.29-9.32-12-2.1-1.28-7.09-4.33-8.86-1.65-.45.68-.79 1.49-1.06 2.3-.27.82-.47 1.58-.4 2.46.16 3.52.45 7.07.71 10.6.03.31-.47.36-.49.04Z" class="st1"/><path d="M35.09 22.88c.4-2.7-1.37-4.95-3.9-5.87-.27-.08-.17-.51.11-.46 3.07.28 6.15 3.31 5.27 6.59-.1.4-.5.65-.91.55a.75.75 0 0 1-.57-.81M58.07 23.44c.22-4.06 5.07-7.6 8.81-5.41.06.04.01.14-.06.11-.86-.39-1.82-.48-2.71-.3-2.6.53-4.67 3.01-4.55 5.68 0 1.05-1.59.98-1.5-.07ZM37.15 56.99c1.37-.3 3.16-.7 3.3 1.27.06.63.1 1.16.33 1.63 2.23 3.76 10.14 4.9 13.56 2.41 1.11-.95 2.09-2.02 2.6-3.39.08-.23.24-.65.55-.87.61-.45 1.23-.58 2.01-.78.5-.18 1.08.08 1.21.61a.884.884 0 0 1-1.45.87c-.38-.34-1.03-.44-1.42-.22-.21.11-.28.27-.4.59-.54 1.44-1.52 2.67-2.54 3.77-4.11 3.72-12.3 2.27-14.78-2.7-.5-.84.13-2.73-1.01-2.82-.47.01-.98.32-1.35.77-.24.3-.68.34-.98.1-.48-.37-.23-1.19.36-1.24Z" class="st1"/><ellipse cx="59.23" cy="44.84" class="st1" rx="1.78" ry="2.2" transform="rotate(-40.74 59.23 44.838)"/><ellipse cx="37.59" cy="44.46" class="st1" rx="2.2" ry="1.78" transform="rotate(-34.81 37.58 44.468)"/></svg>