<?xml version="1.0" encoding="UTF-8"?>
<svg id="_レイヤー_1" xmlns="http://www.w3.org/2000/svg" version="1.1" viewBox="0 0 100 100">
  <!-- Generator: Adobe Illustrator 30.0.0, SVG Export Plug-In . SVG Version: 2.1.1 Build 123)  -->
  <defs>
    <style>
      .st0 {
        fill: none;
      }

      .st1 {
        fill: #1c1917;
      }

      .st2 {
        fill: #fff;
      }
    </style>
  </defs>
  <path class="st2" d="M27.24,72.6c-.01-.39-.02-.79,0-1.21-.33.11-2.14.76-2.97,2.66-.48,1.1-.41,2.11-.34,2.59-.5-.34-2.38-1.7-2.94-4.23-.31-1.37-.1-2.54.07-3.19-.71.47-1.55,1.2-1.99,2.3-.35.88-.26,1.53-.44,1.56-.37.05-1.52-2.64-1.54-5.6-.02-4.17,2.21-7.36,2.01-7.47-.24-.12-2.35,2.28-3.37,5.09-.89-.23-1.31-4.21-.28-7.17.64-1.84,1.65-3.17,2.4-3.98-1.26.68-2.51.89-3.74,2.54.1-1.28.37-3.56,1.2-5.53,1.25-2.94,3.09-4.85,4.23-5.85-1.13.48-2.25.95-3.38,1.43-.78-2.44-.21-5.44-.02-6.48,1.62-3.94,3.35-5.42,6.15-7.88,2.61-2.29,1.4-1.24,2.54-2.17-.07-2.41.15-10.4-.24-12.39-.45-2.32-.38-3.45-.39-5.57,0-.54-.01-2.82,1.24-3.85,2.47-2.04,8.86,1.53,12.42,4.59,1.56,1.35,3.92,3.75,5.82,7.62,2.13-.43.9-.8,6.17-.82,1.97,0,3.6.31,4.77.64l.09.02c.32-.76.63-1.51.63-1.51.65-1.55,2.82-6.19,8.09-9.24,4.55-2.64,8.94-3.75,10.66-2.55s1.99,5.27,2.1,6.93c.17,2.59-.36,4.8-.72,8.5-.06.58-.42,6.2-.46,6.72.93.58,2.62,1.65,2.62,1.65,1.49,1.91,3.41,2.8,6.18,6.27,2.17,2.72,3.02,6.32,4.25,9.66.02.05.02.1-.03.11-1.13.34-2.78-1.1-4-1.22.3,1.92,1.15,4.51,3.07,7.11.9,1.22,1.22,2.46,2,2.99-.98-.04-1.96-.08-2.94-.13-.15.94-.16,2.13.46,3.2.42.72.92,1.04.82,1.27-.12.27-1.05.28-4.4-.72.49,1.67.98,4.13.82,7.09-.27,4.73-2.08,8.22-3.16,9.98-.45-1-.9-2-1.34-3,0,.49-.05,1.57-.72,2.68-.45.76-1.01,1.24-1.38,1.5-.28-1.54-.59-1.91-.83-1.93-.49-.04-.78,1.36-1.85,2.93-.08.13-1.82,2.81-2.47,2.54-.36-.15-.03-1.06-.42-2.42-.27-.96-.77-1.67-1.14-2.12-.25,1.13-.71,2.61-1.56,4.19-1.23,2.28-2.76,3.8-3.83,4.7-.14-1.38-.27-2.76-.41-4.14-.27.94-.72,2.13-1.48,3.38-1.29,2.12-2.88,3.45-3.94,4.2.09-.95.19-1.89.28-2.84-.74.7-1.51,1.4-2.3,2.11-1.35,1.2-2.68,2.34-3.99,3.42-.18-1.37-.36-2.74-.54-4.11-.71,1.66-1.6,3.48-2.75,5.39-.72,1.2-1.45,2.29-2.17,3.27-.08-1.06-.25-2.62-.62-4.49-.06-.31-.58-2.87-.91-2.84-.32.03.01,2.4-.72,2.68-.84.32-2.51-2.22-2.88-2.79-.97-1.48-2.19-3.76-2.91-7.01-.68.73-1.41,1.79-1.54,3.13-.15,1.55.61,2.6.25,2.85-.44.32-2.11-.92-3.2-2.45-1.42-1.98-1.66-4.17-1.66-5.58-.65.43-1.32,1.05-1.54,1.94-.25,1,.21,1.74.02,1.85-.35.2-2.34-1.99-3.59-4.74-.55-1.22-1.27-3.24-1.37-6.02Z"/>
  <ellipse class="st1" cx="47.98" cy="54.42" rx="2.35" ry="3.02" transform="translate(-12.37 94.67) rotate(-82.3)"/>
  <path class="st1" d="M44.82,19.98c3.23-.97,6.68-1.15,9.99-.41.35.08.57.43.49.78-.08.35-.43.57-.78.49-3.06-1-6.45-1.15-9.61-.51-.22.05-.32-.29-.1-.35h0Z"/>
  <path class="st1" d="M59.86,12c2.68-2.74,11.1-7.82,14.77-5.32,1.95,1.66,1.84,4.51,2.22,6.75.21,1.53.24,3.14.17,4.68-.14,3.09-.47,6.1-.78,9.17-.06.55-.55.95-1.1.89-.58-.06-.99-.61-.88-1.18.45-2.97.92-6,1.2-8.99.26-2.91.1-6.05-.5-8.85-.35-1.4-1.29-2.3-2.8-2.25-4.4.22-8.79,2.44-12.14,5.28-.11.11-.28-.07-.17-.18h0Z"/>
  <path class="st1" d="M15.79,46.64c-.7-2.25-.5-4.59-.08-6.78,1.5-4.36,5.28-7.5,8.79-10.26.7-.55,1.51.54.77,1.05-5.49,4.09-10.53,8.35-8.71,15.76.16.49-.62.73-.77.23h0Z"/>
  <path class="st1" d="M13.83,55.97c.19-4.23,2.12-8.41,5.29-11.36.26-.25.68-.24.93.03.24.26.23.67-.03.92-3.11,2.55-5.23,6.35-5.67,10.46-.03.32-.53.28-.51-.04h0Z"/>
  <path class="st1" d="M15.23,65.04c-2.05-3.71-.66-8.61,2.14-11.54.25-.26.66-.26.92-.01.25.24.26.63.04.89-2.34,2.68-3.86,6.84-2.44,10.27.23.41-.41.79-.66.39h0Z"/>
  <path class="st1" d="M18.22,73.17c-2.55-3.94-1.88-9.51.33-13.51.18-.31.58-.41.89-.23.32.19.42.61.21.92-2.19,3.51-3.09,8.72-.92,12.46.23.33-.29.7-.52.36h0Z"/>
  <path class="st1" d="M23.79,76.85c-2.6-1.55-4.08-4.79-3.36-7.79.07-.35.42-.58.78-.5.35.08.57.42.5.78-.89,2.57.18,5.49,2.37,7.1.26.18-.02.59-.29.42h0Z"/>
  <path class="st1" d="M31.98,83.56c-3.82-2.68-5.72-7.6-5.39-12.19.02-.36.33-.63.69-.61.34.02.6.3.61.64-.05,4.39,1.46,8.58,4.54,11.75.24.28-.19.67-.45.41h0Z"/>
  <path class="st1" d="M38.45,87.86c-3.25-1.35-5.32-4.81-5.38-8.29-.02-.36.27-.67.63-.68.36-.01.66.27.67.63-.18,3.15,1.48,6.36,4.35,7.8.34.18.07.71-.28.54h0Z"/>
  <path class="st1" d="M45.17,91.77c-3.07-2.56-4.96-6.19-5.93-10.02-.09-.35.12-.7.47-.79.35-.09.7.12.79.47.68,3.66,2.31,7.3,5.03,9.89.29.23-.07.69-.36.45h0Z"/>
  <path class="st1" d="M52.87,87.56c-.52,3.38-2.28,6.5-4.8,8.67-.1.08-.24.07-.33-.02-.08-.09-.07-.23,0-.32,2.25-2.3,3.61-5.37,3.83-8.48.07-.89,1.43-.73,1.29.15h0Z"/>
  <path class="st1" d="M60.16,86.39c-1.85,2.22-4.13,4.06-6.65,5.4-.15.08-.34.02-.42-.13-.08-.14-.03-.32.11-.4,2.34-1.49,4.36-3.43,5.92-5.66.52-.72,1.59.11,1.03.79h0Z"/>
  <path class="st1" d="M65.42,81.43c-1.04,3.15-3.2,5.86-5.91,7.59-.11.07-.25.04-.32-.07-.07-.1-.04-.24.05-.31,2.48-1.9,4.24-4.62,4.93-7.57.21-.87,1.53-.49,1.25.36h0Z"/>
  <path class="st1" d="M71.22,76.64c-.9,3.56-3,6.76-5.83,8.99-.13.11-.32.08-.43-.05-.1-.13-.08-.31.03-.42,2.58-2.32,4.34-5.47,4.95-8.8.17-.86,1.49-.57,1.27.28h0Z"/>
  <path class="st1" d="M77.43,74.56c-.77,2.8-2.97,4.86-5.07,6.7-.13.11-.33.09-.44-.04-.1-.12-.09-.31.02-.42,1.38-1.43,2.79-2.95,3.64-4.73.26-.59.46-1.2.59-1.83.07-.35.42-.58.77-.51.37.07.6.46.49.82h0Z"/>
  <path class="st1" d="M80.47,69.38c.22,2.98-.68,6.09-2.78,8.24-.06.07-.16.08-.23.02-.06-.05-.07-.15-.03-.22.89-1.14,1.51-2.37,1.76-3.78.27-1.36.24-2.76-.01-4.11-.06-.35.17-.69.52-.76.38-.07.75.22.77.6h0Z"/>
  <path class="st1" d="M83.7,59.06c1.4,5.37.59,11.24-2.17,16.01-.05.09-.19.02-.15-.08,2.35-4.82,2.77-10.51,1.06-15.57-.27-.83,1.02-1.22,1.25-.36h0Z"/>
  <path class="st1" d="M84.25,52.78c.41,3.28,1.91,6.44,4.24,8.89.25.26-.14.66-.41.41-2.58-2.36-4.42-5.58-5.12-9.09-.17-.86,1.16-1.09,1.28-.21h0Z"/>
  <path class="st1" d="M84.7,45.39c.59,3.65,2.31,7.19,4.58,10.11.17.18-.13.45-.29.25-1.1-1.31-2.64-3.13-3.4-4.67-.94-1.7-1.66-3.52-2.16-5.41-.09-.35.11-.7.46-.8.36-.1.74.14.81.51h0Z"/>
  <path class="st0" d="M88.07,46.75"/>
  <path class="st1" d="M77.4,29.31c2.05,1.87,4,3.85,5.71,6.02l-.47-.16c.22-.05.48.12.6.32.08.1.27.38.35.48,2.17,3.22,3.62,6.88,4.79,10.56.05.15-.04.31-.19.36-.15.05-.31-.04-.36-.19-1.11-3.37-2.57-6.65-4.55-9.59-.19-.29-.7-.97-.83-1.12.08.1.3.15.41.09l-.47-.16c-1.81-2-3.78-3.87-5.94-5.48-.82-.62.18-1.85.95-1.16h0Z"/>
  <path class="st1" d="M24.05,24.54c-.3-3.99-1.05-7.99-.95-12.01.48-2.14,1.26-5.23,3.91-5.38,2.82-.12,5.38,1.3,7.72,2.65,1.54.95,3.01,1.98,4.35,3.27,2.6,2.61,4.45,5.8,5.85,9.13.16.38-.02.82-.4.98-.39.17-.84-.03-.99-.42-1.86-4.89-4.84-9.32-9.39-12.03-2.14-1.28-7.07-4.36-8.96-1.61-.84,1.42-1.55,3.11-1.46,4.8.17,3.53.46,7.07.73,10.6.03.26-.4.31-.42.04h0Z"/>
  <path class="st1" d="M35.19,22.9c.44-2.73-1.43-5.04-4-5.92-.24-.07-.15-.45.09-.4,3.04.33,6.03,3.3,5.18,6.54-.18.78-1.37.57-1.28-.22h0Z"/>
  <path class="st1" d="M58.17,23.45c.2-4.03,4.99-7.55,8.71-5.41.05.03.01.12-.05.09-.86-.4-1.82-.49-2.71-.32-2.64.51-4.74,3.01-4.65,5.7,0,.9-1.38.84-1.3-.06h0Z"/>
  <path class="st1" d="M37.17,57.04c1.35-.33,3.11-.72,3.25,1.23.06.63.1,1.16.33,1.64,2.28,3.83,10.12,4.97,13.62,2.42,1.11-.96,2.08-2.03,2.6-3.41.09-.23.24-.65.54-.86.6-.44,1.22-.56,1.98-.73.44-.14.93.11,1.03.57.18.71-.72,1.25-1.26.78-.39-.32-1.05-.4-1.45-.18-.21.12-.29.29-.4.61-.54,1.43-1.52,2.66-2.54,3.75-4.09,3.66-12.25,2.23-14.73-2.69-.51-.86.14-2.73-1.04-2.84-.48,0-1,.32-1.37.75-.23.26-.63.29-.89.06-.4-.33-.19-1.04.32-1.1h0Z"/>
  <ellipse class="st1" cx="59.23" cy="44.84" rx="1.78" ry="2.2" transform="translate(-14.91 49.52) rotate(-40.74)"/>
  <ellipse class="st1" cx="37.59" cy="44.46" rx="2.2" ry="1.78" transform="translate(-18.66 29.41) rotate(-34.81)"/>
</svg>