<?xml version="1.0" encoding="UTF-8"?>
<svg id="_レイヤー_1" xmlns="http://www.w3.org/2000/svg" xmlns:xlink="http://www.w3.org/1999/xlink" version="1.1" viewBox="0 0 300 150">
  <!-- Generator: Adobe Illustrator 30.0.0, SVG Export Plug-In . SVG Version: 2.1.1 Build 123)  -->
  <defs>
    <style>
      .st0, .st1, .st2, .st3, .st4, .st5, .st6 {
        fill: none;
      }

      .st7 {
        fill: #ceb372;
      }

      .st1 {
        stroke-width: 1.15px;
      }

      .st1, .st5 {
        stroke: #231815;
      }

      .st8 {
        fill: #e62923;
      }

      .st9 {
        fill: #292524;
      }

      .st10 {
        fill: #1c1917;
      }

      .st11 {
        clip-path: url(#clippath-1);
      }

      .st12 {
        clip-path: url(#clippath-3);
      }

      .st13 {
        clip-path: url(#clippath-2);
      }

      .st14 {
        fill: #231815;
      }

      .st2, .st3, .st4, .st6, .st15 {
        stroke-linecap: round;
        stroke-linejoin: round;
      }

      .st2, .st15 {
        stroke: #1c1917;
      }

      .st16 {
        fill: url(#_6_lpi_40_1);
      }

      .st17 {
        fill: url(#_6_lpi_40_2);
      }

      .st3, .st6 {
        stroke: #292524;
      }

      .st18 {
        fill: #fff;
      }

      .st19, .st15 {
        fill: url(#_6_lpi_40_);
      }

      .st4 {
        stroke: #fff;
      }

      .st5 {
        stroke-width: 4.8px;
      }

      .st20 {
        fill: #191919;
      }

      .st6 {
        stroke-width: 1.5px;
      }

      .st21 {
        clip-path: url(#clippath);
      }
    </style>
    <pattern id="_6_lpi_40_" data-name=" 6 lpi 40 " x="0" y="0" width="72" height="72" patternTransform="translate(-13104.46 -1978.87) rotate(-40) scale(.24 -.24)" patternUnits="userSpaceOnUse" viewBox="0 0 72 72">
      <g>
        <rect class="st0" width="72" height="72"/>
        <g>
          <rect class="st0" width="72" height="72"/>
          <g>
            <line class="st5" x1="71.75" y1="6" x2="144.25" y2="6"/>
            <line class="st5" x1="71.75" y1="30" x2="144.25" y2="30"/>
            <line class="st5" x1="71.75" y1="54" x2="144.25" y2="54"/>
            <line class="st5" x1="71.75" y1="18" x2="144.25" y2="18"/>
            <line class="st5" x1="71.75" y1="42" x2="144.25" y2="42"/>
            <line class="st5" x1="71.75" y1="66" x2="144.25" y2="66"/>
          </g>
          <g>
            <line class="st5" x1="-.25" y1="6" x2="72.25" y2="6"/>
            <line class="st5" x1="-.25" y1="30" x2="72.25" y2="30"/>
            <line class="st5" x1="-.25" y1="54" x2="72.25" y2="54"/>
            <line class="st5" x1="-.25" y1="18" x2="72.25" y2="18"/>
            <line class="st5" x1="-.25" y1="42" x2="72.25" y2="42"/>
            <line class="st5" x1="-.25" y1="66" x2="72.25" y2="66"/>
          </g>
          <g>
            <line class="st5" x1="-72.25" y1="6" x2=".25" y2="6"/>
            <line class="st5" x1="-72.25" y1="30" x2=".25" y2="30"/>
            <line class="st5" x1="-72.25" y1="54" x2=".25" y2="54"/>
            <line class="st5" x1="-72.25" y1="18" x2=".25" y2="18"/>
            <line class="st5" x1="-72.25" y1="42" x2=".25" y2="42"/>
            <line class="st5" x1="-72.25" y1="66" x2=".25" y2="66"/>
          </g>
        </g>
      </g>
    </pattern>
    <pattern id="_6_lpi_40_1" data-name=" 6 lpi 40 1" x="0" y="0" width="72" height="72" patternTransform="translate(-13104.16 -1978.78) rotate(-40) scale(.24 -.24)" patternUnits="userSpaceOnUse" viewBox="0 0 72 72">
      <g>
        <rect class="st0" width="72" height="72"/>
        <g>
          <rect class="st0" width="72" height="72"/>
          <g>
            <line class="st5" x1="71.75" y1="6" x2="144.25" y2="6"/>
            <line class="st5" x1="71.75" y1="30" x2="144.25" y2="30"/>
            <line class="st5" x1="71.75" y1="54" x2="144.25" y2="54"/>
            <line class="st5" x1="71.75" y1="18" x2="144.25" y2="18"/>
            <line class="st5" x1="71.75" y1="42" x2="144.25" y2="42"/>
            <line class="st5" x1="71.75" y1="66" x2="144.25" y2="66"/>
          </g>
          <g>
            <line class="st5" x1="-.25" y1="6" x2="72.25" y2="6"/>
            <line class="st5" x1="-.25" y1="30" x2="72.25" y2="30"/>
            <line class="st5" x1="-.25" y1="54" x2="72.25" y2="54"/>
            <line class="st5" x1="-.25" y1="18" x2="72.25" y2="18"/>
            <line class="st5" x1="-.25" y1="42" x2="72.25" y2="42"/>
            <line class="st5" x1="-.25" y1="66" x2="72.25" y2="66"/>
          </g>
          <g>
            <line class="st5" x1="-72.25" y1="6" x2=".25" y2="6"/>
            <line class="st5" x1="-72.25" y1="30" x2=".25" y2="30"/>
            <line class="st5" x1="-72.25" y1="54" x2=".25" y2="54"/>
            <line class="st5" x1="-72.25" y1="18" x2=".25" y2="18"/>
            <line class="st5" x1="-72.25" y1="42" x2=".25" y2="42"/>
            <line class="st5" x1="-72.25" y1="66" x2=".25" y2="66"/>
          </g>
        </g>
      </g>
    </pattern>
    <pattern id="_6_lpi_40_2" data-name=" 6 lpi 40 2" x="0" y="0" width="72" height="72" patternTransform="translate(-13104.16 -1978.78) rotate(-40) scale(.24 -.24)" patternUnits="userSpaceOnUse" viewBox="0 0 72 72">
      <g>
        <rect class="st0" width="72" height="72"/>
        <g>
          <rect class="st0" width="72" height="72"/>
          <g>
            <line class="st5" x1="71.75" y1="6" x2="144.25" y2="6"/>
            <line class="st5" x1="71.75" y1="30" x2="144.25" y2="30"/>
            <line class="st5" x1="71.75" y1="54" x2="144.25" y2="54"/>
            <line class="st5" x1="71.75" y1="18" x2="144.25" y2="18"/>
            <line class="st5" x1="71.75" y1="42" x2="144.25" y2="42"/>
            <line class="st5" x1="71.75" y1="66" x2="144.25" y2="66"/>
          </g>
          <g>
            <line class="st5" x1="-.25" y1="6" x2="72.25" y2="6"/>
            <line class="st5" x1="-.25" y1="30" x2="72.25" y2="30"/>
            <line class="st5" x1="-.25" y1="54" x2="72.25" y2="54"/>
            <line class="st5" x1="-.25" y1="18" x2="72.25" y2="18"/>
            <line class="st5" x1="-.25" y1="42" x2="72.25" y2="42"/>
            <line class="st5" x1="-.25" y1="66" x2="72.25" y2="66"/>
          </g>
          <g>
            <line class="st5" x1="-72.25" y1="6" x2=".25" y2="6"/>
            <line class="st5" x1="-72.25" y1="30" x2=".25" y2="30"/>
            <line class="st5" x1="-72.25" y1="54" x2=".25" y2="54"/>
            <line class="st5" x1="-72.25" y1="18" x2=".25" y2="18"/>
            <line class="st5" x1="-72.25" y1="42" x2=".25" y2="42"/>
            <line class="st5" x1="-72.25" y1="66" x2=".25" y2="66"/>
          </g>
        </g>
      </g>
    </pattern>
    <clipPath id="clippath">
      <path class="st0" d="M185.69,45.52c.04-.18.09-.36.14-.54,3.3.19,6.55.25,9.83.93.08,3.29-.41,6.48-.64,9.68-.43,6.11-.94,12.22-1.52,18.32-3.36-.25-6.76,0-10.07-.91.04-6.04.79-12.02,1.37-18.02.3-3.1.11-6.27.89-9.47h0Z"/>
    </clipPath>
    <clipPath id="clippath-1">
      <rect class="st0" x="176.8" y="79.1" width="17.28" height="17.28" transform="translate(-11.93 143.7) rotate(-41.15)"/>
    </clipPath>
    <clipPath id="clippath-2">
      <rect class="st0" x="165.43" y="66.09" width="17.28" height="17.28" transform="translate(-6.18 133) rotate(-41.15)"/>
    </clipPath>
    <clipPath id="clippath-3">
      <rect class="st0" x="154.06" y="53.08" width="17.28" height="17.28" transform="translate(-.42 122.31) rotate(-41.15)"/>
    </clipPath>
  </defs>
  <g>
    <path class="st18" d="M1503.63,670.01l53.13,4.68-2.04,24.71,9.93.59.66-10.91,2.05-1.15,1.89-1.17.07-7.36,4.55.35-.97,8.43,2.7,1.02.07,9.82,14.5,2.9s.83-6.64.55-9.45c-.28-2.8-1.09-11.53-1.09-11.53,0,0,1.59-2.69,3.04-2.41s12.35,1.14,12.35,1.14l6.74.66-.87,2.88-2.82,6.98-1.11,10.38-.24.96.04,1.64s5.35.57,8.62,2.78c3.57,2.41,5.98,7.49,5.98,7.49l2.43.35s1.19-.56,2,1.62.74,9.71.74,9.71l-1.78,4.12-1.73,1.18-2.76,4.04-2.56,4.08,9.11.69,16.02,29.82-1.11,1.72-24.76-1.39-2.19-1.31.54-9.28-8.48-.32s-5.53-4.67-7.97-4.86-7.83,1.86-7.83,1.86l-.6,1.43-7.16-.54s-2.41-4.93-5.65-5.34-6.97-.86-8.38.51-3.85,3.31-3.85,3.31l-26.92-3.02s.59-5.68-1.01-8.26-6.29-9.8-13.62-10.19-14.04,6.13-14.04,6.13c-2.32,2.6-2.98,9.1-2.98,9.1l-10.47.02,7.27-78.62h0Z"/>
    <path class="st19" d="M1537.56,681.63c.05-.18.1-.36.15-.54,3.29.25,6.55.38,9.81,1.12.01,3.29-.54,6.47-.83,9.67-.55,6.1-1.18,12.2-1.89,18.29-3.36-.32-6.76-.14-10.05-1.11.16-6.03,1.03-12,1.74-17.98.36-3.1.24-6.26,1.07-9.45Z"/>
    <path class="st18" d="M1457.39,654.23l-60.2-4.24-25.5-.3c-2.42,1.78-4,1.01-5.6,4.81s-1.67,4.78-1.67,4.78l2.55.85-5.67,79.07,3.53.92,17.57,1.33,7.16.54,20.82,1.58,21.14,1.6,17.29.66,7.13.87,21.24.3,7.29-78.95,4.3-.66s-.61-4.95-2.08-7.03c-1.48-2.07-7.19-4.47-7.19-4.47l-22.12-1.68v.02Z"/>
    <path class="st18" d="M1403.49,672.17c.02,3.97-.56,7.91-.88,11.85-.32,3.92-.61,7.85-.96,11.78-.09,1.03-.2,1.96-.71,2.88-.21-.05-.42-.08-.67-.09-7.79-.18-15.55-.97-23.31-1.41-.3-.79-.43-1.5-.4-2.31.18-5.03.67-10.03.95-15.05.19-3.26.76-6.5.61-9.78"/>
    <path class="st18" d="M1413.43,672.44s.01-.08.02-.12c7.8.24,15.55.46,23.24.93.09.76.39,1.22.33,1.92-.52,5.97-1.21,11.92-1.86,17.88-.25,2.31.03,4.69-1.27,6.87-6.9-.15-13.78-.46-20.66-.79-.79-.04-1.45-.24-2.13-.56.16-.8-.33-1.57-.22-2.4.45-3.46.64-6.96,1.05-10.42.52-4.38.74-8.78,1.49-13.32h.01Z"/>
    <path class="st18" d="M1446.15,700.9c-.15-.07-.3-.15-.44-.24.17-8.6,1.24-17.15,1.69-25.97,1.24.26,2.26-.22,3.49-.11,3.66.33,7.34.49,11,.8,3.61.31,7.28,0,10.8,1.2-.1,4.2-.59,8.37-.94,12.55-.31,3.73-.56,7.46-.82,11.19-.06.89-.27,1.73-.72,2.51-5.93-.12-11.83-.68-17.74-1.1-2.12-.15-4.3.16-6.32-.83h0Z"/>
    <path class="st19" d="M1537.56,681.63c.05-.18.1-.36.15-.54,3.29.25,6.55.38,9.81,1.12.01,3.29-.54,6.47-.83,9.67-.55,6.1-1.18,12.2-1.89,18.29-3.36-.32-6.76-.14-10.05-1.11.16-6.03,1.03-12,1.74-17.98.36-3.1.24-6.26,1.07-9.45Z"/>
    <path class="st8" d="M1592.85,712.43c.14-.18.37-.29.62-.27l7.56.57c.25.02.46.16.57.36l3.17,5.06c.2.3.14.71-.1.94l-7.92,7.51c-.17.15-.37.23-.59.21s-.4-.13-.55-.3l-6.7-8.62c-.23-.27-.2-.68.04-.95l3.89-4.52h0Z"/>
    <path class="st18" d="M1365.73,748.48c-.92-1.58-1.15-3.1-1.19-4.05-.03-.69.03-1.22.06-1.42.08-.57.32-2.22,1.55-3.76,1.74-2.17,4.3-2.64,5.15-2.75,1.27-.16,2.25.02,3.59.26,1.66.3,2.78.51,3.91,1.31,1.58,1.13,2.16,2.71,2.42,3.42.91,2.5.28,4.65,0,5.64-.32,1.1-.83,2.84-2.55,4.28-.44.37-2.24,1.79-4.96,1.83-3.79.06-6.42-2.6-7.33-3.79-.35-.45-.61-.89-.65-.97h0Z"/>
    <path class="st18" d="M1389.75,751.21c-.91-1.62-1.11-3.18-1.13-4.17-.02-.71.05-1.26.08-1.47.09-.59.36-2.3,1.62-3.91,1.78-2.27,4.37-2.8,5.23-2.92,1.28-.19,2.27-.02,3.61.22,1.67.29,2.79.48,3.91,1.29,1.57,1.14,2.13,2.77,2.38,3.5.88,2.56.21,4.8-.09,5.82-.34,1.14-.88,2.95-2.63,4.46-.45.39-2.28,1.88-5.02,1.96-3.81.12-6.42-2.59-7.32-3.8-.34-.46-.6-.91-.64-.99h0Z"/>
    <path class="st18" d="M1432.44,753.47c-.91-1.62-1.11-3.18-1.13-4.17-.02-.71.05-1.26.08-1.47.09-.59.36-2.3,1.62-3.91,1.78-2.27,4.37-2.8,5.23-2.92,1.28-.19,2.27-.02,3.61.22,1.67.29,2.79.48,3.91,1.29,1.57,1.14,2.13,2.77,2.38,3.5.88,2.56.21,4.8-.09,5.82-.34,1.14-.88,2.95-2.63,4.46-.45.39-2.28,1.88-5.02,1.96-3.81.12-6.42-2.59-7.32-3.8-.34-.46-.6-.91-.64-.99h0Z"/>
    <path class="st18" d="M1456.05,756.44c-1.03-1.77-1.27-3.47-1.31-4.55-.03-.78.04-1.37.07-1.59.09-.64.37-2.5,1.74-4.23,1.95-2.45,4.81-2.98,5.77-3.11,1.42-.19,2.52.01,4.01.28,1.86.33,3.11.56,4.36,1.46,1.76,1.26,2.4,3.04,2.69,3.84,1.01,2.8.3,5.22-.02,6.33-.36,1.23-.94,3.2-2.86,4.81-.5.42-2.51,2.01-5.55,2.07-4.23.07-7.16-2.9-8.18-4.23-.39-.51-.68-1-.73-1.08h.01Z"/>
    <path class="st18" d="M1509.48,756.12c-1.62-2.9-1.97-5.71-2.01-7.48-.03-1.28.1-2.27.15-2.64.15-1.05.65-4.14,2.91-7.03,3.2-4.09,7.83-5.04,9.38-5.27,2.29-.34,4.06-.04,6.47.37,2.99.51,5,.85,7.01,2.31,2.81,2.04,3.81,4.96,4.26,6.28,1.57,4.61.37,8.62-.19,10.47-.61,2.05-1.59,5.31-4.73,8.02-.81.7-4.1,3.38-9,3.54-6.83.22-11.49-4.63-13.1-6.81-.61-.83-1.08-1.64-1.15-1.77h0Z"/>
    <path class="st18" d="M1565.96,764.17c-1.05-1.75-1.31-3.42-1.36-4.47-.04-.76.03-1.34.05-1.56.08-.62.34-2.45,1.69-4.12,1.92-2.38,4.77-2.87,5.73-2.98,1.41-.17,2.52.04,4.02.32,1.86.35,3.11.58,4.38,1.48,1.78,1.26,2.44,3,2.74,3.79,1.04,2.76.36,5.12.05,6.2-.35,1.2-.9,3.12-2.81,4.68-.49.4-2.49,1.94-5.52,1.96-4.23.02-7.2-2.92-8.23-4.24-.39-.5-.69-.99-.74-1.07h0Z"/>
    <path class="st18" d="M1589.11,767.24c-1.05-1.75-1.31-3.42-1.36-4.47-.04-.76.03-1.34.05-1.56.08-.62.34-2.45,1.69-4.12,1.92-2.38,4.77-2.87,5.73-2.98,1.41-.17,2.52.04,4.02.32,1.86.35,3.11.58,4.38,1.48,1.78,1.26,2.44,3,2.74,3.79,1.04,2.76.36,5.12.05,6.2-.35,1.2-.9,3.12-2.81,4.68-.49.4-2.49,1.94-5.52,1.96-4.23.02-7.2-2.92-8.23-4.24-.39-.5-.69-.99-.74-1.07h0Z"/>
    <path class="st7" d="M1486.74,668.03c2.6.32,3.28-.72,2.72-3.3-1.24-5.76-5.37-8.14-10.63-9.03-12.83-2.2-25.79-3.43-38.73-4.74-8.37-.85-16.74-1.58-25.13-2.12-7.48-.48-14.97-.85-22.47-.92-6.16-.05-12.33-.27-18.49.42-1.37.15-2.71.38-4,.76-4.13,1.22-7.06,6.19-5.7,10.29,3.5,1.47,7.23.71,10.84,1,13.66,1.08,27.34,1.99,41.01,2.85,13.55.86,27.09,1.79,40.63,2.68,8.56.56,17.14,1.05,25.7,1.82"/>
    <path class="st3" d="M1475.11,724.78c-6.41.04-8.33-.32-14.72-.73-8.28-.53-16.57-1.06-24.84-1.71-8.65-.68-17.32-1.19-25.97-1.76-8.68-.57-17.36-1.19-26.05-1.72-5.21-.32-10.42-.64-15.63-.99"/>
    <path class="st3" d="M1478.55,737.83c-8.86-.31-17.68-1.08-26.53-1.62-16.47-1.01-32.93-2.07-49.39-3.18-12.55-.85-25.1-1.64-37.64-2.55"/>
    <path class="st3" d="M1614.67,750.23c-7.84-.7-14.54-1.26-22.39-1.91-10.98-.92-21.96-1.88-32.94-2.75-6.31-.5-12.61-1.08-18.92-1.63-.9-.08-1.73.02-2.58.13"/>
    <path class="st9" d="M1504.4,674.11c-2.66,24.87-5.81,49.67-8,74.57l-.39-.46,7.52.57c.54.03.49.88-.06.84l-7.52-.56c-.23-.02-.41-.22-.39-.46,1.68-24.96,4.32-49.84,6.46-74.73.15-1.54,2.53-1.39,2.39.23h0Z"/>
    <path class="st9" d="M1472.45,748.03c-1.93-4.37-7.9-6.48-12.26-4.48-7.05,3.03-6.89,12.24-.41,15.83,3.35,2.32,8.41,1.81,10.98-1.4,1.97-2.72,2.97-6.73,1.69-9.95h0ZM1473.59,747.51c1.66,3.68,1.04,8.42-1.48,11.59-2.69,3.22-7.59,4.17-11.33,2.39-8.17-3.66-9.57-14.74-.91-18.68,4.84-2.23,11.31-.21,13.73,4.69h-.01Z"/>
    <path class="st9" d="M1485.21,672.6c-1.04,12.48-3.69,44.07-4.75,56.11-.56,5.54-1.1,13.27-1.98,18.72-.02.13-.1.23-.21.28-.55.28-1.19.46-1.83.47-.66,0-.68-.98-.02-.99.5.04.98-.04,1.47-.24,1.48-19.27,3.88-53.59,5.22-74.52.1-1.36,2.22-1.28,2.11.17h-.01Z"/>
    <path class="st19" d="M1526.65,708.27c1.12-3.22,1.07-6.63,1.43-9.96.58-5.38,1.15-10.76,1.66-16.14.05-.55-.32-1.08.07-1.71-5.96-.79-11.9-1.16-17.95-1.67-.67,4.99-.97,9.78-1.53,14.54-.44,3.81-.8,7.63-1.24,11.45-.25,2.19-.14,2.39,2.04,2.55,5.08.37,10.13,1.16,15.24,1.05"/>
    <path class="st2" d="M1526.65,708.27c1.12-3.22,1.07-6.63,1.43-9.96.58-5.38,1.15-10.76,1.66-16.14.05-.55-.32-1.08.07-1.71-5.96-.79-11.9-1.16-17.95-1.67-.67,4.99-.97,9.78-1.53,14.54-.44,3.81-.8,7.63-1.24,11.45-.25,2.19-.14,2.39,2.04,2.55,5.08.37,10.13,1.16,15.24,1.05"/>
    <path class="st3" d="M1610.23,705.34c-1.08,11.48-1.25,16.55-2.66,27.99"/>
    <path class="st3" d="M1583.32,703.72c-.33,7.61-1.17,12.64-1.75,20.23-.29,3.71-.28,4-.7,7.69"/>
    <path class="st9" d="M1632.19,747.83c-.73-1.51-1.45-3.03-2.17-4.55-1.49-3.16-1.52-4.24-4.16-4.79-1.79-.37-5.93-.77-7.8-.65-.37,2.4-.84,5.21-1.21,7.47-.71,4.43-.86,8.94-1.38,13.4-.35,3.02-.47,6.07-.33,9.1.04.94.03,1.06.95,1.36.72.23,1.47.35,2.22.43,1.5.15,3.01.06,4.51.17,5.35.37,10.72.52,16.07.78,1.15.06,2.26-.03,3.27-.17.76-1.06.31-1.95-.09-2.75-3.34-6.58-6.67-13.16-9.87-19.8h0Z"/>
    <path class="st7" d="M1611.71,682.59c-.42.21-23.95-2.27-24.12-2.46-.63-.72.84-4.49,3.81-6.01,3.03-1.55,5.09-.19,11.18.34.25.02,1.57.09,4.21.28.99.07,1.78.14,2.59.66.77.5,1.29,1.23,1.44,1.46.28.42.23.48.68,1.3.66,1.21.84,1.21.96,1.67.22.82.39,2.19-.75,2.76Z"/>
    <path class="st9" d="M1563.34,754.36c-5.73.41-12.13-.2-17.85-.47-1.98-.13-3.97-.3-5.96-.53-.63-.07-1.07-.64-1-1.27.07-.62.62-1.06,1.24-1l5.9.51c3.43.28,8.38.8,11.85,1.17.52.03,7.07.93,5.83,1.6h-.01Z"/>
    <path class="st7" d="M1558.27,675.06c1.51.1,2.74-1.18,2.58-2.68-.28-2.7-1.7-5.66-3.61-6.8-1.65-.98-3.65-.94-5.47-1.12-14.54-1.43-29.09-2.66-43.67-3.53-2.49-.15-5.31-.19-7.03,2.24-1.31,1.85-2.61,3.83-2.41,6.25.02.22,0,.41-.02.59,2.61.47,5.23.68,7.88.89,7.47.59,14.94,1.35,22.41,1.94,5.34.42,10.66,1.05,16.01,1.35l13.33.86h0Z"/>
    <path class="st3" d="M1554.84,702.75c-.21,2.55-.4,5.11-.51,7.67-.29,6.66-1.42,13.28-1.42,19.94,0,1.62.8,3.13,2.31,3.13,9.25,0,18.45,1.38,27.67,2.18,11.51.99,19.58,1.94,31.11,2.65"/>
    <path class="st3" d="M1555.3,696.74c-.06.87-.12,1.73-.19,2.6"/>
    <path class="st9" d="M1557.95,675.56c-.98,6.07-1.62,14.99-2.15,21.21-.05.63-1.03.58-1-.07.21-6.34.37-15.18,1.03-21.41.17-1.42,2.3-1.16,2.11.27h.01Z"/>
    <path class="st2" d="M1403.49,672.17c.02,3.97-.56,7.91-.88,11.85-.32,3.92-.61,7.85-.96,11.78-.09,1.03-.2,1.96-.71,2.88-.21-.05-.42-.08-.67-.09-7.79-.18-15.55-.97-23.31-1.41-.3-.79-.43-1.5-.4-2.31.18-5.03.67-10.03.95-15.05.19-3.26.76-6.5.61-9.78l25.37,2.13h0Z"/>
    <path class="st16" d="M1403.79,672.08c.02,3.97-.56,7.91-.88,11.85-.32,3.92-.61,7.85-.96,11.78-.09,1.03-.2,1.96-.71,2.88-.21-.05-.42-.08-.67-.09-7.79-.18-15.55-.97-23.31-1.41-.3-.79-.43-1.5-.4-2.31.18-5.03.67-10.03.95-15.05.19-3.26.76-6.5.61-9.78l25.37,2.13h0Z"/>
    <path class="st9" d="M1431.52,745.75c-6.3-.74-15.31-1.41-21.73-1.77-.61-.04-.58-.97.05-.95,6.41.2,15.45.64,21.74,1.23.99.03.94,1.55-.06,1.5h0Z"/>
    <path class="st19" d="M1413.44,672.44s.01-.08.02-.12c8.29.47,16.53.91,24.71,1.61.12.77.45,1.25.41,1.95-.39,6.03-.94,12.05-1.46,18.07-.2,2.33.17,4.75-1.15,6.92-7.33-.35-14.64-.86-21.96-1.39-.85-.06-1.55-.28-2.28-.63.15-.8-.39-1.6-.3-2.43.38-3.5.48-7.03.82-10.53.43-4.42.54-8.87,1.21-13.46h-.02Z"/>
    <path class="st2" d="M1417.21,672.53c7.02.4,14.01.8,20.95,1.4.12.77.45,1.25.41,1.95-.39,6.03-.94,12.05-1.46,18.07-.2,2.33.17,4.75-1.15,6.92-7.33-.35-14.64-.86-21.96-1.39-.85-.06-1.55-.28-2.28-.63.15-.8-.39-1.6-.3-2.43.38-3.5.48-7.03.82-10.53.43-4.42.54-8.87,1.21-13.46,0-.04.01-.08.02-.12,1.25.07,2.51.14,3.76.21"/>
    <path class="st15" d="M1446.15,700.9c-.15-.07-.3-.15-.44-.24.17-8.6,1.24-17.15,1.69-25.97,1.24.26,2.26-.22,3.49-.11,3.66.33,7.34.49,11,.8,3.61.31,7.28,0,10.8,1.2-.1,4.2-.59,8.37-.94,12.55-.31,3.73-.56,7.46-.82,11.19-.06.89-.27,1.73-.72,2.51-5.93-.12-11.83-.68-17.74-1.1-2.12-.15-4.3.16-6.32-.83h0Z"/>
    <path class="st4" d="M1620.39,742.86c-.03,1.3.22,5.2.18,6.68-.19,5.88.13,8.09-.19,13.97"/>
    <path class="st4" d="M1623.75,742.74c.21,1.49.58,4.67.83,5.84,1.37,6.26,1.94,9.32,3.34,15.58"/>
    <path class="st9" d="M1622.27,712.04c-2.85-4.74-8.37-7.8-13.75-8.65-5.65-.92-11.34-1-17.03-1.7-7.82-.75-17.7-1.18-25.59-1.77-2.86-.21-5.67-.37-8.61-.71-.58-.07-.99-.59-.93-1.17.07-.61.64-1.03,1.24-.92,2.73.37,5.62.6,8.45.87,14.05,1.24,28.7,2.31,42.64,4.36,5.67,1.04,11.24,4.28,14.17,9.35.18.38-.35.72-.59.33h0Z"/>
    <path class="st9" d="M1622.56,729.52c2.19-.14,3.29-2.78,3.71-4.8,1.03-3.63.77-8.5-2.67-10.74-.45-.2-.12-.91.32-.7,3.14,1.7,4.34,5.82,4.06,9.18-.3,2.63-.6,5.44-2.55,7.46-.7.71-1.69,1.19-2.7,1.33-1.17.13-1.36-1.62-.18-1.73h.01Z"/>
    <path class="st9" d="M1611.13,683.64c-2.03,6.17-4.28,12.58-3.99,19.15.04.48-.72.54-.76.06-.4-5.86.99-11.7,2.69-17.24.28-.75.48-1.5.64-2.28.08-.4.46-.65.86-.57.41.08.67.49.57.89h0Z"/>
    <path class="st4" d="M1626.6,743.59c2.48,6.25,5.06,12.47,7.55,18.72.46,1.17.67,1.71.94,2.39"/>
    <path class="st9" d="M1449.9,747.29c1.66,5.67-1.75,10.44-7.17,12.15-10.09,3.07-16.09-11.97-8.16-17.78,5.21-3.22,14.38-1.1,15.33,5.63h0ZM1448.55,747.56c-.58-6.09-8.94-8.13-13.56-5.27-4.82,3.44-3.79,11.7.99,14.7,5.87,3.81,14.11-2.8,12.57-9.44h0Z"/>
    <path class="st9" d="M1590.1,681.99c1.24,6.04,2.25,12.23,1.69,18.43-.06.59-.58,1.02-1.16.96-.59-.06-1.03-.59-.96-1.19.78-6.02.42-12.09-.04-18.13-.03-.29.42-.36.48-.07h0Z"/>
    <path class="st9" d="M1622.02,733c-.47.81-1.47,1.8-2.04,2.58-.63.8-1.15,1.64-1.37,2.6-.04.19-.23.32-.43.28-.18-.04-.3-.2-.28-.38.12-1.66,1.13-3.13,1.95-4.49.22-.37.53-.86.64-1.29.44-1.14,2.12-.36,1.52.71h.01Z"/>
    <path class="st3" d="M1622.26,715.24c-.05.62.05,1.27.04,1.82-.11,4.47-.35,5.66-.51,10.54"/>
    <path class="st3" d="M1493.84,741.27c-5.41-1.02-8.93-.78-14.38-1.41"/>
    <path class="st3" d="M1494.92,735.57c-5.37-.8-9.34-.42-14.69-1.36"/>
    <path class="st3" d="M1523.85,735.58c-.34,3.08-.28,2.44-.58,5.52-.18,1.8-.08,4.25-.44,5.86-.11,1.03-.27,2.51-.48,4.3-.5,4.17-.79,5.85-1.15,9.27-.12,1.1-.26,2.62-.4,4.45"/>
    <path class="st3" d="M1508.65,747.35c5.37.41,8.79.84,13.87,1.57.81.05,1.62.1,2.43.16,4.39.31,8.64.75,12.75,1.29"/>
    <path class="st3" d="M1575.66,699.25c.12-2.7.35-5.39.52-8.09.11-1.73-.35-2.85-2.27-3.17-.86-.14-4.66-.33-6.03-.36-1.52-.04-2.05,1.27-2.16,2.63-.23,2.73-.53,5.46-.79,8.19"/>
    <path class="st9" d="M1510.57,758.62c3.71,4.46,9.99,7.83,15.72,5.56,3.59-1.48,6.86-4.08,8.8-7.48,7.26-11.61-3.8-25.06-16.54-22.17-10.62,2.72-15.14,15.6-7.98,24.09h0ZM1509.81,759.22c-8.92-11.35.57-27.95,14.86-26.2,11.9,1.81,18.63,14.11,12.21,24.73-2.24,3.79-5.86,6.66-9.99,8.11-6.42,2.25-13.21-1.63-17.08-6.64h0Z"/>
    <path class="st3" d="M1534.67,739.95c-2.55,1.96-5.27,3.78-7.76,5.79-4.84,3.92-10.13,7.5-15.31,11.03"/>
    <path class="st3" d="M1514.2,738.22c1,1.39,2.07,2.81,3.24,4.26,1.16,1.45,2.32,2.81,3.46,4.07,1.19,1.56,2.38,3.12,3.57,4.69,2.42,3.18,5.1,6.85,7.53,10.03"/>
    <path class="st3" d="M1507.96,741.71c-3.69-.29-4.92-.33-8.56-.79"/>
    <path class="st3" d="M1575.84,752.2c-.94,4.94-1.02,6-1.85,10.95-.2,1.19-.4,3.55-.7,4.72"/>
    <path class="st3" d="M1598.94,755.01c-.8,6.14-1.28,9.48-1.92,15.64"/>
    <path class="st9" d="M1598.3,754.1c-4.73-.74-9.49,3.18-9.36,7.99,0,2.89,1.95,5.51,3.97,7.49,2.26,1.9,5.88,2.34,8.53,1.12,1.24-.75,2.38-1.53,3.21-2.72,4.01-5.73.66-13.1-6.34-13.88h-.01ZM1598.39,753.11c8.2.59,12.47,9.19,7.72,16-1.19,1.56-2.98,2.87-4.8,3.55-3.24.92-6.91.24-9.4-2.05-2.16-2.33-4.05-5.17-4.01-8.53.11-5.36,5.27-9.53,10.48-8.97h.01Z"/>
    <path class="st3" d="M1396.72,754.3c.33-2.31.45-3.55.66-6.37"/>
    <path class="st9" d="M1399.61,754.33c1.68-.45,3.16-.86,4.28-1.95,2.76-2.76,2.68-8.1-.07-10.88-3.11-2.67-7.94-3.73-11.53-1.37-2.8,1.74-4.35,5.43-3.52,8.61,1.13,4.16,6.29,7.08,10.84,5.6h0ZM1400.07,756.04c-5.46,1.56-11.29-2.18-12.32-7.07-1.34-8.05,7.53-13.59,14.48-9.74,5.45,2.18,6.58,10.03,2.77,14.25-1.26,1.42-3.18,2.15-4.93,2.57h0Z"/>
    <path class="st2" d="M1537.56,681.63c.05-.18.1-.36.15-.54,3.29.25,6.55.38,9.81,1.12.01,3.29-.54,6.47-.83,9.67-.55,6.1-1.18,12.2-1.89,18.29-3.36-.32-6.76-.14-10.05-1.11.16-6.03,1.03-12,1.74-17.98.36-3.1.24-6.26,1.07-9.45Z"/>
    <path class="st9" d="M1565.26,762.85c-2.81-8,3.99-13.92,11.77-12.41,3.26.56,6.5,2.9,7.17,6.3.94,3.65.55,8.54-2.78,11.08-5.36,4.56-14.27,1.4-16.16-4.97h0ZM1566.19,762.52c2.48,6.73,12.7,7.89,15.8,1.2.87-2.04.79-4.39.34-6.58-.47-3.32-4.07-5.34-7.3-5.57-6.51-.69-11.43,4.6-8.84,10.96h0Z"/>
    <path class="st20" d="M1363.58,740.82l-2.15-.47c-.27-.06-.41-.3-.43-.55-.65-3.44-.11-6.84,0-10.06-.31-6.55.79-13.29,1.16-19.82,1.18-16.4,2.4-33.15,3.67-49.49.2-2.1,3.36-1.94,3.25.25-1.64,16.37-3.23,33.04-4.77,49.42-.51,6.51-1.76,13.21-1.6,19.72-.2,3.36-.76,6.6-.24,9.72l-.43-.55,1.86.58c.78.22.47,1.44-.33,1.26h.01Z"/>
    <path class="st9" d="M1365.35,748.7c-3.87-7.57,2.34-14.46,10.37-12.3,6.98.61,8.39,9.31,4.81,14.29-4.09,5.56-12.18,3.6-15.18-1.99h0ZM1366.11,748.25c3.48,5.76,12.55,5.65,14.31-1.35,1.01-2.88.49-6.44-2-8.38-1.65-1.15-4.14-1.46-6.11-1.66-6.19-.17-9.33,6.32-6.2,11.4h0Z"/>
    <path class="st3" d="M1465.01,743.13c-.59,5.88-1.22,11.29-1.77,16.89"/>
    <path class="st3" d="M1441.38,741.23c-.46,2.4-.5,4.84-.81,7.25-.14,1.16-.28,2.34-.41,3.53-.21,1.9-.39,3.76-.55,5.6"/>
    <path class="st3" d="M1396.43,745.97c-2.43-2.23-3.12-2.94-5.18-4.79"/>
    <path class="st3" d="M1398.31,738.89c-.16,2.72-.31,5.44-.68,8.5"/>
    <path class="st3" d="M1470.6,757.04c-1.55-1.27-3.09-2.54-4.64-3.8-1.22-.95-2.5-2.03-3.8-3.23-1.63-1.51-3.06-2.99-4.3-4.4"/>
    <path class="st3" d="M1374.19,736.88c-.26,2.45-.52,4.91-.78,7.36-.05.49-.11.98-.16,1.47-.22,1.98-.46,3.95-.7,5.91"/>
    <path class="st3" d="M1366.98,738.96c1.95,1.88,2.85,2.65,4.5,4.18.66.51,1.52,1.37,2.72,2.43.59.52.82.75,1.32,1.18.71.62,1.77,1.5,3.17,2.5"/>
    <path class="st3" d="M1434.77,743.88c.63.75,1.36,1.53,2.2,2.31.33.31.67.6.99.88"/>
    <path class="st3" d="M1592.92,757.12c1.77,1.55,3.8,3.31,5.25,4.78,0,0,4.13,3.17,6.15,5.21"/>
    <path class="st3" d="M1439.36,748.03c.85.84,1.73,1.68,2.63,2.53,1.43,1.35,2.84,2.64,4.25,3.88"/>
    <path class="st3" d="M1397.93,747.19c1.98,1.78,2.86,2.7,5.03,4.86"/>
    <path class="st6" d="M1615.14,758.87c-2.66-.2-4.4-.29-6.68-.48"/>
    <path class="st3" d="M1569.07,753.53c2.04,1.83,3.52,4.18,5.49,6.08,2.14,2.06,4.56,3.81,6.89,5.65"/>
    <path class="st3" d="M1566.75,763.55c2.8-1.13,5.91-2.59,9.19-4.5,2.24-1.31,4.26-2.65,6.04-3.95"/>
    <path class="st3" d="M1589.98,766.31c2.36-1.35,12.4-6.89,14.36-8.19"/>
    <path class="st3" d="M1471.07,747.36c-.76.38-1.34.94-2.68,1.69-2.28,1.28-3.68,2.22-4.98,3.04-1.57.98-3.1,1.97-6.09,3.43"/>
    <path class="st3" d="M1446.63,746c-1.36.76-1.84.96-3.2,1.72-1.3.77-2.64,1.53-4.03,2.3-2.28,1.24-4.5,2.37-6.65,3.4"/>
    <path class="st3" d="M1379.3,741.42c-1,.61-1.52.76-4.78,2.64-.98.57-1.75.91-2.47,1.27-2.31,1.14-4.53,2.12-6.17,2.81"/>
    <path class="st3" d="M1403.51,743.56c-1.41.8-2.82,1.61-4.23,2.41-1.04.54-2.08,1.09-3.14,1.63-2.22,1.14-4.43,2.24-6.61,3.3"/>
    <path class="st9" d="M1568.89,687.3l.58-7.35c.05-.5.47-.89.98-.87l2.24.05c.61.01,1.08.54,1.02,1.14l-.66,7.47"/>
  </g>
  <g>
    <path class="st18" d="M1503.63,670.01l53.13,4.68-2.04,24.71,9.93.59.66-10.91,2.05-1.15,1.89-1.17.07-7.36,4.55.35-.97,8.43,2.7,1.02.07,9.82,14.5,2.9s.83-6.64.55-9.45c-.28-2.8-1.09-11.53-1.09-11.53,0,0,1.59-2.69,3.04-2.41s12.35,1.14,12.35,1.14l6.74.66-.87,2.88-2.82,6.98-1.11,10.38-.24.96.04,1.64s5.35.57,8.62,2.78c3.57,2.41,5.98,7.49,5.98,7.49l2.43.35s1.19-.56,2,1.62.74,9.71.74,9.71l-1.78,4.12-1.73,1.18-2.76,4.04-2.56,4.08,9.11.69,16.02,29.82-1.11,1.72-24.76-1.39-2.19-1.31.54-9.28-8.48-.32s-5.53-4.67-7.97-4.86-7.83,1.86-7.83,1.86l-.6,1.43-7.16-.54s-2.41-4.93-5.65-5.34-6.97-.86-8.38.51-3.85,3.31-3.85,3.31l-26.92-3.02s.59-5.68-1.01-8.26-6.29-9.8-13.62-10.19-14.04,6.13-14.04,6.13c-2.32,2.6-2.98,9.1-2.98,9.1l-10.47.02,7.27-78.62h0Z"/>
    <path class="st19" d="M1537.56,681.63c.05-.18.1-.36.15-.54,3.29.25,6.55.38,9.81,1.12.01,3.29-.54,6.47-.83,9.67-.55,6.1-1.18,12.2-1.89,18.29-3.36-.32-6.76-.14-10.05-1.11.16-6.03,1.03-12,1.74-17.98.36-3.1.24-6.26,1.07-9.45Z"/>
    <path class="st18" d="M1457.39,654.23l-60.2-4.24-25.5-.3c-2.42,1.78-4,1.01-5.6,4.81s-1.67,4.78-1.67,4.78l2.55.85-5.67,79.07,3.53.92,17.57,1.33,7.16.54,20.82,1.58,21.14,1.6,17.29.66,7.13.87,21.24.3,7.29-78.95,4.3-.66s-.61-4.95-2.08-7.03c-1.48-2.07-7.19-4.47-7.19-4.47l-22.12-1.68v.02Z"/>
    <path class="st18" d="M1403.49,672.17c.02,3.97-.56,7.91-.88,11.85-.32,3.92-.61,7.85-.96,11.78-.09,1.03-.2,1.96-.71,2.88-.21-.05-.42-.08-.67-.09-7.79-.18-15.55-.97-23.31-1.41-.3-.79-.43-1.5-.4-2.31.18-5.03.67-10.03.95-15.05.19-3.26.76-6.5.61-9.78"/>
    <path class="st18" d="M1413.43,672.44s.01-.08.02-.12c7.8.24,15.55.46,23.24.93.09.76.39,1.22.33,1.92-.52,5.97-1.21,11.92-1.86,17.88-.25,2.31.03,4.69-1.27,6.87-6.9-.15-13.78-.46-20.66-.79-.79-.04-1.45-.24-2.13-.56.16-.8-.33-1.57-.22-2.4.45-3.46.64-6.96,1.05-10.42.52-4.38.74-8.78,1.49-13.32h.01Z"/>
    <path class="st18" d="M1446.15,700.9c-.15-.07-.3-.15-.44-.24.17-8.6,1.24-17.15,1.69-25.97,1.24.26,2.26-.22,3.49-.11,3.66.33,7.34.49,11,.8,3.61.31,7.28,0,10.8,1.2-.1,4.2-.59,8.37-.94,12.55-.31,3.73-.56,7.46-.82,11.19-.06.89-.27,1.73-.72,2.51-5.93-.12-11.83-.68-17.74-1.1-2.12-.15-4.3.16-6.32-.83h0Z"/>
    <path class="st19" d="M1537.56,681.63c.05-.18.1-.36.15-.54,3.29.25,6.55.38,9.81,1.12.01,3.29-.54,6.47-.83,9.67-.55,6.1-1.18,12.2-1.89,18.29-3.36-.32-6.76-.14-10.05-1.11.16-6.03,1.03-12,1.74-17.98.36-3.1.24-6.26,1.07-9.45Z"/>
    <path class="st8" d="M1592.85,712.43c.14-.18.37-.29.62-.27l7.56.57c.25.02.46.16.57.36l3.17,5.06c.2.3.14.71-.1.94l-7.92,7.51c-.17.15-.37.23-.59.21s-.4-.13-.55-.3l-6.7-8.62c-.23-.27-.2-.68.04-.95l3.89-4.52h0Z"/>
    <path class="st18" d="M1365.73,748.48c-.92-1.58-1.15-3.1-1.19-4.05-.03-.69.03-1.22.06-1.42.08-.57.32-2.22,1.55-3.76,1.74-2.17,4.3-2.64,5.15-2.75,1.27-.16,2.25.02,3.59.26,1.66.3,2.78.51,3.91,1.31,1.58,1.13,2.16,2.71,2.42,3.42.91,2.5.28,4.65,0,5.64-.32,1.1-.83,2.84-2.55,4.28-.44.37-2.24,1.79-4.96,1.83-3.79.06-6.42-2.6-7.33-3.79-.35-.45-.61-.89-.65-.97h0Z"/>
    <path class="st18" d="M1389.75,751.21c-.91-1.62-1.11-3.18-1.13-4.17-.02-.71.05-1.26.08-1.47.09-.59.36-2.3,1.62-3.91,1.78-2.27,4.37-2.8,5.23-2.92,1.28-.19,2.27-.02,3.61.22,1.67.29,2.79.48,3.91,1.29,1.57,1.14,2.13,2.77,2.38,3.5.88,2.56.21,4.8-.09,5.82-.34,1.14-.88,2.95-2.63,4.46-.45.39-2.28,1.88-5.02,1.96-3.81.12-6.42-2.59-7.32-3.8-.34-.46-.6-.91-.64-.99h0Z"/>
    <path class="st18" d="M1432.44,753.47c-.91-1.62-1.11-3.18-1.13-4.17-.02-.71.05-1.26.08-1.47.09-.59.36-2.3,1.62-3.91,1.78-2.27,4.37-2.8,5.23-2.92,1.28-.19,2.27-.02,3.61.22,1.67.29,2.79.48,3.91,1.29,1.57,1.14,2.13,2.77,2.38,3.5.88,2.56.21,4.8-.09,5.82-.34,1.14-.88,2.95-2.63,4.46-.45.39-2.28,1.88-5.02,1.96-3.81.12-6.42-2.59-7.32-3.8-.34-.46-.6-.91-.64-.99h0Z"/>
    <path class="st18" d="M1456.05,756.44c-1.03-1.77-1.27-3.47-1.31-4.55-.03-.78.04-1.37.07-1.59.09-.64.37-2.5,1.74-4.23,1.95-2.45,4.81-2.98,5.77-3.11,1.42-.19,2.52.01,4.01.28,1.86.33,3.11.56,4.36,1.46,1.76,1.26,2.4,3.04,2.69,3.84,1.01,2.8.3,5.22-.02,6.33-.36,1.23-.94,3.2-2.86,4.81-.5.42-2.51,2.01-5.55,2.07-4.23.07-7.16-2.9-8.18-4.23-.39-.51-.68-1-.73-1.08h.01Z"/>
    <path class="st18" d="M1509.48,756.12c-1.62-2.9-1.97-5.71-2.01-7.48-.03-1.28.1-2.27.15-2.64.15-1.05.65-4.14,2.91-7.03,3.2-4.09,7.83-5.04,9.38-5.27,2.29-.34,4.06-.04,6.47.37,2.99.51,5,.85,7.01,2.31,2.81,2.04,3.81,4.96,4.26,6.28,1.57,4.61.37,8.62-.19,10.47-.61,2.05-1.59,5.31-4.73,8.02-.81.7-4.1,3.38-9,3.54-6.83.22-11.49-4.63-13.1-6.81-.61-.83-1.08-1.64-1.15-1.77h0Z"/>
    <path class="st18" d="M1565.96,764.17c-1.05-1.75-1.31-3.42-1.36-4.47-.04-.76.03-1.34.05-1.56.08-.62.34-2.45,1.69-4.12,1.92-2.38,4.77-2.87,5.73-2.98,1.41-.17,2.52.04,4.02.32,1.86.35,3.11.58,4.38,1.48,1.78,1.26,2.44,3,2.74,3.79,1.04,2.76.36,5.12.05,6.2-.35,1.2-.9,3.12-2.81,4.68-.49.4-2.49,1.94-5.52,1.96-4.23.02-7.2-2.92-8.23-4.24-.39-.5-.69-.99-.74-1.07h0Z"/>
    <path class="st18" d="M1589.11,767.24c-1.05-1.75-1.31-3.42-1.36-4.47-.04-.76.03-1.34.05-1.56.08-.62.34-2.45,1.69-4.12,1.92-2.38,4.77-2.87,5.73-2.98,1.41-.17,2.52.04,4.02.32,1.86.35,3.11.58,4.38,1.48,1.78,1.26,2.44,3,2.74,3.79,1.04,2.76.36,5.12.05,6.2-.35,1.2-.9,3.12-2.81,4.68-.49.4-2.49,1.94-5.52,1.96-4.23.02-7.2-2.92-8.23-4.24-.39-.5-.69-.99-.74-1.07h0Z"/>
    <path class="st7" d="M1486.74,668.03c2.6.32,3.28-.72,2.72-3.3-1.24-5.76-5.37-8.14-10.63-9.03-12.83-2.2-25.79-3.43-38.73-4.74-8.37-.85-16.74-1.58-25.13-2.12-7.48-.48-14.97-.85-22.47-.92-6.16-.05-12.33-.27-18.49.42-1.37.15-2.71.38-4,.76-4.13,1.22-7.06,6.19-5.7,10.29,3.5,1.47,7.23.71,10.84,1,13.66,1.08,27.34,1.99,41.01,2.85,13.55.86,27.09,1.79,40.63,2.68,8.56.56,17.14,1.05,25.7,1.82"/>
    <path class="st3" d="M1475.11,724.78c-6.41.04-8.33-.32-14.72-.73-8.28-.53-16.57-1.06-24.84-1.71-8.65-.68-17.32-1.19-25.97-1.76-8.68-.57-17.36-1.19-26.05-1.72-5.21-.32-10.42-.64-15.63-.99"/>
    <path class="st3" d="M1478.55,737.83c-8.86-.31-17.68-1.08-26.53-1.62-16.47-1.01-32.93-2.07-49.39-3.18-12.55-.85-25.1-1.64-37.64-2.55"/>
    <path class="st3" d="M1614.67,750.23c-7.84-.7-14.54-1.26-22.39-1.91-10.98-.92-21.96-1.88-32.94-2.75-6.31-.5-12.61-1.08-18.92-1.63-.9-.08-1.73.02-2.58.13"/>
    <path class="st9" d="M1504.4,674.11c-2.66,24.87-5.81,49.67-8,74.57l-.39-.46,7.52.57c.54.03.49.88-.06.84l-7.52-.56c-.23-.02-.41-.22-.39-.46,1.68-24.96,4.32-49.84,6.46-74.73.15-1.54,2.53-1.39,2.39.23h0Z"/>
    <path class="st9" d="M1472.45,748.03c-1.93-4.37-7.9-6.48-12.26-4.48-7.05,3.03-6.89,12.24-.41,15.83,3.35,2.32,8.41,1.81,10.98-1.4,1.97-2.72,2.97-6.73,1.69-9.95h0ZM1473.59,747.51c1.66,3.68,1.04,8.42-1.48,11.59-2.69,3.22-7.59,4.17-11.33,2.39-8.17-3.66-9.57-14.74-.91-18.68,4.84-2.23,11.31-.21,13.73,4.69h-.01Z"/>
    <path class="st9" d="M1485.21,672.6c-1.04,12.48-3.69,44.07-4.75,56.11-.56,5.54-1.1,13.27-1.98,18.72-.02.13-.1.23-.21.28-.55.28-1.19.46-1.83.47-.66,0-.68-.98-.02-.99.5.04.98-.04,1.47-.24,1.48-19.27,3.88-53.59,5.22-74.52.1-1.36,2.22-1.28,2.11.17h-.01Z"/>
    <path class="st19" d="M1526.65,708.27c1.12-3.22,1.07-6.63,1.43-9.96.58-5.38,1.15-10.76,1.66-16.14.05-.55-.32-1.08.07-1.71-5.96-.79-11.9-1.16-17.95-1.67-.67,4.99-.97,9.78-1.53,14.54-.44,3.81-.8,7.63-1.24,11.45-.25,2.19-.14,2.39,2.04,2.55,5.08.37,10.13,1.16,15.24,1.05"/>
    <path class="st2" d="M1526.65,708.27c1.12-3.22,1.07-6.63,1.43-9.96.58-5.38,1.15-10.76,1.66-16.14.05-.55-.32-1.08.07-1.71-5.96-.79-11.9-1.16-17.95-1.67-.67,4.99-.97,9.78-1.53,14.54-.44,3.81-.8,7.63-1.24,11.45-.25,2.19-.14,2.39,2.04,2.55,5.08.37,10.13,1.16,15.24,1.05"/>
    <path class="st3" d="M1610.23,705.34c-1.08,11.48-1.25,16.55-2.66,27.99"/>
    <path class="st3" d="M1583.32,703.72c-.33,7.61-1.17,12.64-1.75,20.23-.29,3.71-.28,4-.7,7.69"/>
    <path class="st9" d="M1632.19,747.83c-.73-1.51-1.45-3.03-2.17-4.55-1.49-3.16-1.52-4.24-4.16-4.79-1.79-.37-5.93-.77-7.8-.65-.37,2.4-.84,5.21-1.21,7.47-.71,4.43-.86,8.94-1.38,13.4-.35,3.02-.47,6.07-.33,9.1.04.94.03,1.06.95,1.36.72.23,1.47.35,2.22.43,1.5.15,3.01.06,4.51.17,5.35.37,10.72.52,16.07.78,1.15.06,2.26-.03,3.27-.17.76-1.06.31-1.95-.09-2.75-3.34-6.58-6.67-13.16-9.87-19.8h0Z"/>
    <path class="st7" d="M1611.71,682.59c-.42.21-23.95-2.27-24.12-2.46-.63-.72.84-4.49,3.81-6.01,3.03-1.55,5.09-.19,11.18.34.25.02,1.57.09,4.21.28.99.07,1.78.14,2.59.66.77.5,1.29,1.23,1.44,1.46.28.42.23.48.68,1.3.66,1.21.84,1.21.96,1.67.22.82.39,2.19-.75,2.76Z"/>
    <path class="st9" d="M1563.34,754.36c-5.73.41-12.13-.2-17.85-.47-1.98-.13-3.97-.3-5.96-.53-.63-.07-1.07-.64-1-1.27.07-.62.62-1.06,1.24-1l5.9.51c3.43.28,8.38.8,11.85,1.17.52.03,7.07.93,5.83,1.6h-.01Z"/>
    <path class="st7" d="M1558.27,675.06c1.51.1,2.74-1.18,2.58-2.68-.28-2.7-1.7-5.66-3.61-6.8-1.65-.98-3.65-.94-5.47-1.12-14.54-1.43-29.09-2.66-43.67-3.53-2.49-.15-5.31-.19-7.03,2.24-1.31,1.85-2.61,3.83-2.41,6.25.02.22,0,.41-.02.59,2.61.47,5.23.68,7.88.89,7.47.59,14.94,1.35,22.41,1.94,5.34.42,10.66,1.05,16.01,1.35l13.33.86h0Z"/>
    <path class="st3" d="M1554.84,702.75c-.21,2.55-.4,5.11-.51,7.67-.29,6.66-1.42,13.28-1.42,19.94,0,1.62.8,3.13,2.31,3.13,9.25,0,18.45,1.38,27.67,2.18,11.51.99,19.58,1.94,31.11,2.65"/>
    <path class="st3" d="M1555.3,696.74c-.06.87-.12,1.73-.19,2.6"/>
    <path class="st9" d="M1557.95,675.56c-.98,6.07-1.62,14.99-2.15,21.21-.05.63-1.03.58-1-.07.21-6.34.37-15.18,1.03-21.41.17-1.42,2.3-1.16,2.11.27h.01Z"/>
    <path class="st2" d="M1403.49,672.17c.02,3.97-.56,7.91-.88,11.85-.32,3.92-.61,7.85-.96,11.78-.09,1.03-.2,1.96-.71,2.88-.21-.05-.42-.08-.67-.09-7.79-.18-15.55-.97-23.31-1.41-.3-.79-.43-1.5-.4-2.31.18-5.03.67-10.03.95-15.05.19-3.26.76-6.5.61-9.78l25.37,2.13h0Z"/>
    <path class="st17" d="M1403.79,672.08c.02,3.97-.56,7.91-.88,11.85-.32,3.92-.61,7.85-.96,11.78-.09,1.03-.2,1.96-.71,2.88-.21-.05-.42-.08-.67-.09-7.79-.18-15.55-.97-23.31-1.41-.3-.79-.43-1.5-.4-2.31.18-5.03.67-10.03.95-15.05.19-3.26.76-6.5.61-9.78l25.37,2.13h0Z"/>
    <path class="st9" d="M1431.52,745.75c-6.3-.74-15.31-1.41-21.73-1.77-.61-.04-.58-.97.05-.95,6.41.2,15.45.64,21.74,1.23.99.03.94,1.55-.06,1.5h0Z"/>
    <path class="st19" d="M1413.44,672.44s.01-.08.02-.12c8.29.47,16.53.91,24.71,1.61.12.77.45,1.25.41,1.95-.39,6.03-.94,12.05-1.46,18.07-.2,2.33.17,4.75-1.15,6.92-7.33-.35-14.64-.86-21.96-1.39-.85-.06-1.55-.28-2.28-.63.15-.8-.39-1.6-.3-2.43.38-3.5.48-7.03.82-10.53.43-4.42.54-8.87,1.21-13.46h-.02Z"/>
    <path class="st2" d="M1417.21,672.53c7.02.4,14.01.8,20.95,1.4.12.77.45,1.25.41,1.95-.39,6.03-.94,12.05-1.46,18.07-.2,2.33.17,4.75-1.15,6.92-7.33-.35-14.64-.86-21.96-1.39-.85-.06-1.55-.28-2.28-.63.15-.8-.39-1.6-.3-2.43.38-3.5.48-7.03.82-10.53.43-4.42.54-8.87,1.21-13.46,0-.04.01-.08.02-.12,1.25.07,2.51.14,3.76.21"/>
    <path class="st15" d="M1446.15,700.9c-.15-.07-.3-.15-.44-.24.17-8.6,1.24-17.15,1.69-25.97,1.24.26,2.26-.22,3.49-.11,3.66.33,7.34.49,11,.8,3.61.31,7.28,0,10.8,1.2-.1,4.2-.59,8.37-.94,12.55-.31,3.73-.56,7.46-.82,11.19-.06.89-.27,1.73-.72,2.51-5.93-.12-11.83-.68-17.74-1.1-2.12-.15-4.3.16-6.32-.83h0Z"/>
    <path class="st4" d="M1620.39,742.86c-.03,1.3.22,5.2.18,6.68-.19,5.88.13,8.09-.19,13.97"/>
    <path class="st4" d="M1623.75,742.74c.21,1.49.58,4.67.83,5.84,1.37,6.26,1.94,9.32,3.34,15.58"/>
    <path class="st9" d="M1622.27,712.04c-2.85-4.74-8.37-7.8-13.75-8.65-5.65-.92-11.34-1-17.03-1.7-7.82-.75-17.7-1.18-25.59-1.77-2.86-.21-5.67-.37-8.61-.71-.58-.07-.99-.59-.93-1.17.07-.61.64-1.03,1.24-.92,2.73.37,5.62.6,8.45.87,14.05,1.24,28.7,2.31,42.64,4.36,5.67,1.04,11.24,4.28,14.17,9.35.18.38-.35.72-.59.33h0Z"/>
    <path class="st9" d="M1622.56,729.52c2.19-.14,3.29-2.78,3.71-4.8,1.03-3.63.77-8.5-2.67-10.74-.45-.2-.12-.91.32-.7,3.14,1.7,4.34,5.82,4.06,9.18-.3,2.63-.6,5.44-2.55,7.46-.7.71-1.69,1.19-2.7,1.33-1.17.13-1.36-1.62-.18-1.73h.01Z"/>
    <path class="st9" d="M1611.13,683.64c-2.03,6.17-4.28,12.58-3.99,19.15.04.48-.72.54-.76.06-.4-5.86.99-11.7,2.69-17.24.28-.75.48-1.5.64-2.28.08-.4.46-.65.86-.57.41.08.67.49.57.89h0Z"/>
    <path class="st4" d="M1626.6,743.59c2.48,6.25,5.06,12.47,7.55,18.72.46,1.17.67,1.71.94,2.39"/>
    <path class="st9" d="M1449.9,747.29c1.66,5.67-1.75,10.44-7.17,12.15-10.09,3.07-16.09-11.97-8.16-17.78,5.21-3.22,14.38-1.1,15.33,5.63h0ZM1448.55,747.56c-.58-6.09-8.94-8.13-13.56-5.27-4.82,3.44-3.79,11.7.99,14.7,5.87,3.81,14.11-2.8,12.57-9.44h0Z"/>
    <path class="st9" d="M1590.1,681.99c1.24,6.04,2.25,12.23,1.69,18.43-.06.59-.58,1.02-1.16.96-.59-.06-1.03-.59-.96-1.19.78-6.02.42-12.09-.04-18.13-.03-.29.42-.36.48-.07h0Z"/>
    <path class="st9" d="M1622.02,733c-.47.81-1.47,1.8-2.04,2.58-.63.8-1.15,1.64-1.37,2.6-.04.19-.23.32-.43.28-.18-.04-.3-.2-.28-.38.12-1.66,1.13-3.13,1.95-4.49.22-.37.53-.86.64-1.29.44-1.14,2.12-.36,1.52.71h.01Z"/>
    <path class="st3" d="M1622.26,715.24c-.05.62.05,1.27.04,1.82-.11,4.47-.35,5.66-.51,10.54"/>
    <path class="st3" d="M1493.84,741.27c-5.41-1.02-8.93-.78-14.38-1.41"/>
    <path class="st3" d="M1494.92,735.57c-5.37-.8-9.34-.42-14.69-1.36"/>
    <path class="st3" d="M1523.85,735.58c-.34,3.08-.28,2.44-.58,5.52-.18,1.8-.08,4.25-.44,5.86-.11,1.03-.27,2.51-.48,4.3-.5,4.17-.79,5.85-1.15,9.27-.12,1.1-.26,2.62-.4,4.45"/>
    <path class="st3" d="M1508.65,747.35c5.37.41,8.79.84,13.87,1.57.81.05,1.62.1,2.43.16,4.39.31,8.64.75,12.75,1.29"/>
    <path class="st3" d="M1575.66,699.25c.12-2.7.35-5.39.52-8.09.11-1.73-.35-2.85-2.27-3.17-.86-.14-4.66-.33-6.03-.36-1.52-.04-2.05,1.27-2.16,2.63-.23,2.73-.53,5.46-.79,8.19"/>
    <path class="st9" d="M1510.57,758.62c3.71,4.46,9.99,7.83,15.72,5.56,3.59-1.48,6.86-4.08,8.8-7.48,7.26-11.61-3.8-25.06-16.54-22.17-10.62,2.72-15.14,15.6-7.98,24.09h0ZM1509.81,759.22c-8.92-11.35.57-27.95,14.86-26.2,11.9,1.81,18.63,14.11,12.21,24.73-2.24,3.79-5.86,6.66-9.99,8.11-6.42,2.25-13.21-1.63-17.08-6.64h0Z"/>
    <path class="st3" d="M1534.67,739.95c-2.55,1.96-5.27,3.78-7.76,5.79-4.84,3.92-10.13,7.5-15.31,11.03"/>
    <path class="st3" d="M1514.2,738.22c1,1.39,2.07,2.81,3.24,4.26,1.16,1.45,2.32,2.81,3.46,4.07,1.19,1.56,2.38,3.12,3.57,4.69,2.42,3.18,5.1,6.85,7.53,10.03"/>
    <path class="st3" d="M1507.96,741.71c-3.69-.29-4.92-.33-8.56-.79"/>
    <path class="st3" d="M1575.84,752.2c-.94,4.94-1.02,6-1.85,10.95-.2,1.19-.4,3.55-.7,4.72"/>
    <path class="st3" d="M1598.94,755.01c-.8,6.14-1.28,9.48-1.92,15.64"/>
    <path class="st9" d="M1598.3,754.1c-4.73-.74-9.49,3.18-9.36,7.99,0,2.89,1.95,5.51,3.97,7.49,2.26,1.9,5.88,2.34,8.53,1.12,1.24-.75,2.38-1.53,3.21-2.72,4.01-5.73.66-13.1-6.34-13.88h-.01ZM1598.39,753.11c8.2.59,12.47,9.19,7.72,16-1.19,1.56-2.98,2.87-4.8,3.55-3.24.92-6.91.24-9.4-2.05-2.16-2.33-4.05-5.17-4.01-8.53.11-5.36,5.27-9.53,10.48-8.97h.01Z"/>
    <path class="st3" d="M1396.72,754.3c.33-2.31.45-3.55.66-6.37"/>
    <path class="st9" d="M1399.61,754.33c1.68-.45,3.16-.86,4.28-1.95,2.76-2.76,2.68-8.1-.07-10.88-3.11-2.67-7.94-3.73-11.53-1.37-2.8,1.74-4.35,5.43-3.52,8.61,1.13,4.16,6.29,7.08,10.84,5.6h0ZM1400.07,756.04c-5.46,1.56-11.29-2.18-12.32-7.07-1.34-8.05,7.53-13.59,14.48-9.74,5.45,2.18,6.58,10.03,2.77,14.25-1.26,1.42-3.18,2.15-4.93,2.57h0Z"/>
    <path class="st2" d="M1537.56,681.63c.05-.18.1-.36.15-.54,3.29.25,6.55.38,9.81,1.12.01,3.29-.54,6.47-.83,9.67-.55,6.1-1.18,12.2-1.89,18.29-3.36-.32-6.76-.14-10.05-1.11.16-6.03,1.03-12,1.74-17.98.36-3.1.24-6.26,1.07-9.45Z"/>
    <path class="st9" d="M1565.26,762.85c-2.81-8,3.99-13.92,11.77-12.41,3.26.56,6.5,2.9,7.17,6.3.94,3.65.55,8.54-2.78,11.08-5.36,4.56-14.27,1.4-16.16-4.97h0ZM1566.19,762.52c2.48,6.73,12.7,7.89,15.8,1.2.87-2.04.79-4.39.34-6.58-.47-3.32-4.07-5.34-7.3-5.57-6.51-.69-11.43,4.6-8.84,10.96h0Z"/>
    <path class="st20" d="M1363.58,740.82l-2.15-.47c-.27-.06-.41-.3-.43-.55-.65-3.44-.11-6.84,0-10.06-.31-6.55.79-13.29,1.16-19.82,1.18-16.4,2.4-33.15,3.67-49.49.2-2.1,3.36-1.94,3.25.25-1.64,16.37-3.23,33.04-4.77,49.42-.51,6.51-1.76,13.21-1.6,19.72-.2,3.36-.76,6.6-.24,9.72l-.43-.55,1.86.58c.78.22.47,1.44-.33,1.26h.01Z"/>
    <path class="st9" d="M1365.35,748.7c-3.87-7.57,2.34-14.46,10.37-12.3,6.98.61,8.39,9.31,4.81,14.29-4.09,5.56-12.18,3.6-15.18-1.99h0ZM1366.11,748.25c3.48,5.76,12.55,5.65,14.31-1.35,1.01-2.88.49-6.44-2-8.38-1.65-1.15-4.14-1.46-6.11-1.66-6.19-.17-9.33,6.32-6.2,11.4h0Z"/>
    <path class="st3" d="M1465.01,743.13c-.59,5.88-1.22,11.29-1.77,16.89"/>
    <path class="st3" d="M1441.38,741.23c-.46,2.4-.5,4.84-.81,7.25-.14,1.16-.28,2.34-.41,3.53-.21,1.9-.39,3.76-.55,5.6"/>
    <path class="st3" d="M1396.43,745.97c-2.43-2.23-3.12-2.94-5.18-4.79"/>
    <path class="st3" d="M1398.31,738.89c-.16,2.72-.31,5.44-.68,8.5"/>
    <path class="st3" d="M1470.6,757.04c-1.55-1.27-3.09-2.54-4.64-3.8-1.22-.95-2.5-2.03-3.8-3.23-1.63-1.51-3.06-2.99-4.3-4.4"/>
    <path class="st3" d="M1374.19,736.88c-.26,2.45-.52,4.91-.78,7.36-.05.49-.11.98-.16,1.47-.22,1.98-.46,3.95-.7,5.91"/>
    <path class="st3" d="M1366.98,738.96c1.95,1.88,2.85,2.65,4.5,4.18.66.51,1.52,1.37,2.72,2.43.59.52.82.75,1.32,1.18.71.62,1.77,1.5,3.17,2.5"/>
    <path class="st3" d="M1434.77,743.88c.63.75,1.36,1.53,2.2,2.31.33.31.67.6.99.88"/>
    <path class="st3" d="M1592.92,757.12c1.77,1.55,3.8,3.31,5.25,4.78,0,0,4.13,3.17,6.15,5.21"/>
    <path class="st3" d="M1439.36,748.03c.85.84,1.73,1.68,2.63,2.53,1.43,1.35,2.84,2.64,4.25,3.88"/>
    <path class="st3" d="M1397.93,747.19c1.98,1.78,2.86,2.7,5.03,4.86"/>
    <path class="st6" d="M1615.14,758.87c-2.66-.2-4.4-.29-6.68-.48"/>
    <path class="st3" d="M1569.07,753.53c2.04,1.83,3.52,4.18,5.49,6.08,2.14,2.06,4.56,3.81,6.89,5.65"/>
    <path class="st3" d="M1566.75,763.55c2.8-1.13,5.91-2.59,9.19-4.5,2.24-1.31,4.26-2.65,6.04-3.95"/>
    <path class="st3" d="M1589.98,766.31c2.36-1.35,12.4-6.89,14.36-8.19"/>
    <path class="st3" d="M1471.07,747.36c-.76.38-1.34.94-2.68,1.69-2.28,1.28-3.68,2.22-4.98,3.04-1.57.98-3.1,1.97-6.09,3.43"/>
    <path class="st3" d="M1446.63,746c-1.36.76-1.84.96-3.2,1.72-1.3.77-2.64,1.53-4.03,2.3-2.28,1.24-4.5,2.37-6.65,3.4"/>
    <path class="st3" d="M1379.3,741.42c-1,.61-1.52.76-4.78,2.64-.98.57-1.75.91-2.47,1.27-2.31,1.14-4.53,2.12-6.17,2.81"/>
    <path class="st3" d="M1403.51,743.56c-1.41.8-2.82,1.61-4.23,2.41-1.04.54-2.08,1.09-3.14,1.63-2.22,1.14-4.43,2.24-6.61,3.3"/>
    <path class="st9" d="M1568.89,687.3l.58-7.35c.05-.5.47-.89.98-.87l2.24.05c.61.01,1.08.54,1.02,1.14l-.66,7.47"/>
  </g>
  <g>
    <path class="st18" d="M151.53,34.58l53.22,3.61-1.54,24.75,9.94.39.44-10.92,2.03-1.19,1.86-1.2-.08-7.36,4.56.25-.8,8.45,2.72.97.27,9.82,14.56,2.61s.7-6.66.36-9.45c-.33-2.8-1.32-11.51-1.32-11.51,0,0,1.53-2.72,2.99-2.47s12.37.89,12.37.89l6.75.53-.81,2.9-2.68,7.04-.91,10.4-.22.97.07,1.64s5.37.46,8.68,2.61c3.62,2.34,6.12,7.37,6.12,7.37l2.43.3s1.18-.59,2.04,1.58.93,9.69.93,9.69l-1.7,4.15-1.7,1.21-2.68,4.1-2.48,4.13,9.12.51,16.61,29.49-1.08,1.74-24.78-.89-2.22-1.27.35-9.29-8.49-.15s-5.63-4.56-8.07-4.7-7.79,2.02-7.79,2.02l-.57,1.44-7.17-.4s-2.51-4.88-5.75-5.22-6.98-.72-8.37.68-3.78,3.38-3.78,3.38l-26.98-2.48s.48-5.69-1.18-8.23-6.49-9.67-13.82-9.92c-7.34-.24-13.92,6.41-13.92,6.41-2.27,2.65-2.8,9.16-2.8,9.16l-10.47.23,5.69-78.75.05-.02Z"/>
    <g>
      <path class="st14" d="M194.2,58.28l-10.56,9.23c-.03.54-.07,1.07-.09,1.61l11.18-9.77c.04-.55.09-1.09.13-1.64l-.65.57h0Z"/>
      <path class="st14" d="M190.41,53.95l-6.04,5.28c-.06.56-.11,1.12-.17,1.68l6.88-6.01h0s4.34-3.8,4.34-3.8c.05-.54.08-1.09.12-1.64l-5.13,4.49h0Z"/>
      <path class="st14" d="M185.2,48.56l.2-.17h0s3.7-3.23,3.7-3.23c-.55-.03-1.1-.06-1.65-.09l-2.03,1.77c-.1.58-.17,1.15-.22,1.72Z"/>
      <path class="st14" d="M193.69,71.73c.05-.55.1-1.11.15-1.66l-4.2,3.67c.56.02,1.13.04,1.69.05l2.37-2.07Z"/>
      <path class="st14" d="M192.22,56.19h0s-8.25,7.21-8.25,7.21c-.05.55-.1,1.1-.14,1.65l9.24-8.08h0s1.98-1.73,1.98-1.73c.04-.55.09-1.1.14-1.65l-2.97,2.6Z"/>
      <path class="st14" d="M188.43,51.86h0s-3.63,3.18-3.63,3.18c-.05.56-.11,1.12-.17,1.68l4.65-4.06h0s6.37-5.56,6.37-5.56c0-.39.03-.78.02-1.17-.12-.02-.23-.04-.35-.07l-6.88,6.01Z"/>
      <path class="st14" d="M194.21,65.93l-8.6,7.51c.51.07,1.03.14,1.55.18l6.9-6.03c.05-.55.1-1.11.15-1.66Z"/>
      <path class="st14" d="M186.53,49.69h0s-1.5,1.31-1.5,1.31c-.02.53-.05,1.06-.07,1.59l2.42-2.12h0s5.71-4.99,5.71-4.99c-.52-.06-1.04-.12-1.56-.16l-4.99,4.36Z"/>
      <path class="st14" d="M183.76,72.77l10.66-9.32c.04-.55.08-1.09.13-1.64l-11.08,9.68c-.01.5-.03,1-.03,1.5.02,0,.03,0,.05.01l.28-.24h0Z"/>
    </g>
    <path class="st18" d="M104.99,19.74l-60.28-3.03-25.5.21c-2.39,1.83-3.98,1.09-5.5,4.92-1.52,3.84-1.57,4.81-1.57,4.81l2.57.8-4.08,79.17,3.55.85,17.59.98,7.17.4,20.85,1.16,21.17,1.18,17.3.31,7.15.72,21.24-.12,5.71-79.08,4.29-.74s-.71-4.94-2.23-6.98c-1.52-2.04-7.27-4.33-7.27-4.33l-22.15-1.23h-.01Z"/>
    <path class="st18" d="M51.45,38.76c.1,3.97-.4,7.92-.65,11.87-.24,3.93-.45,7.86-.72,11.79-.07,1.03-.16,1.96-.66,2.89-.21-.04-.43-.07-.67-.07-7.8-.02-15.57-.65-23.33-.94-.31-.78-.46-1.49-.45-2.3.08-5.03.47-10.04.65-15.07.12-3.26.63-6.51.41-9.79"/>
    <path class="st18" d="M61.4,38.82s0-.08.02-.12c7.8.09,15.56.15,23.26.47.11.76.42,1.21.37,1.91-.4,5.98-.97,11.95-1.5,17.92-.21,2.31.13,4.69-1.13,6.89-6.9-.02-13.78-.19-20.67-.37-.8-.02-1.45-.21-2.15-.52.15-.8-.36-1.56-.27-2.39.38-3.47.5-6.97.84-10.44.44-4.39.57-8.79,1.23-13.35Z"/>
    <path class="st18" d="M94.68,66.62c-.15-.07-.3-.15-.45-.23,0-8.6.89-17.17,1.17-26,1.24.23,2.25-.26,3.48-.18,3.66.26,7.34.34,11.01.58,3.61.23,7.28-.15,10.82.98-.01,4.2-.42,8.38-.68,12.57-.23,3.73-.41,7.47-.6,11.21-.04.89-.24,1.73-.67,2.53-5.93,0-11.84-.44-17.75-.75-2.12-.11-4.3.24-6.33-.71Z"/>
    <g class="st21">
      <g class="st11">
        <g>
          <rect class="st0" x="176.8" y="79.1" width="17.28" height="17.28" transform="translate(-11.93 143.7) rotate(-41.15)"/>
          <g>
            <line class="st1" x1="196.64" y1="87.52" x2="209.74" y2="76.07"/>
            <line class="st1" x1="192.85" y1="83.18" x2="205.95" y2="71.73"/>
            <line class="st1" x1="189.06" y1="78.84" x2="202.16" y2="67.39"/>
            <line class="st1" x1="194.75" y1="85.35" x2="207.85" y2="73.9"/>
            <line class="st1" x1="190.96" y1="81.01" x2="204.06" y2="69.56"/>
            <line class="st1" x1="187.17" y1="76.67" x2="200.27" y2="65.22"/>
          </g>
          <g>
            <line class="st1" x1="183.63" y1="98.89" x2="196.73" y2="87.44"/>
            <line class="st1" x1="179.84" y1="94.55" x2="192.94" y2="83.1"/>
            <line class="st1" x1="176.05" y1="90.21" x2="189.15" y2="78.76"/>
            <line class="st1" x1="181.74" y1="96.72" x2="194.84" y2="85.27"/>
            <line class="st1" x1="177.95" y1="92.38" x2="191.05" y2="80.93"/>
            <line class="st1" x1="174.16" y1="88.04" x2="187.26" y2="76.59"/>
          </g>
          <g>
            <line class="st1" x1="170.62" y1="110.26" x2="183.72" y2="98.81"/>
            <line class="st1" x1="166.83" y1="105.92" x2="179.93" y2="94.47"/>
            <line class="st1" x1="163.04" y1="101.58" x2="176.14" y2="90.13"/>
            <line class="st1" x1="168.72" y1="108.09" x2="181.83" y2="96.64"/>
            <line class="st1" x1="164.93" y1="103.75" x2="178.04" y2="92.3"/>
            <line class="st1" x1="161.14" y1="99.41" x2="174.25" y2="87.97"/>
          </g>
        </g>
      </g>
      <g class="st13">
        <g>
          <rect class="st0" x="165.43" y="66.09" width="17.28" height="17.28" transform="translate(-6.18 133) rotate(-41.15)"/>
          <g>
            <line class="st1" x1="185.27" y1="74.5" x2="198.37" y2="63.05"/>
            <line class="st1" x1="181.48" y1="70.17" x2="194.58" y2="58.72"/>
            <line class="st1" x1="177.69" y1="65.83" x2="190.79" y2="54.38"/>
            <line class="st1" x1="183.38" y1="72.34" x2="196.48" y2="60.89"/>
            <line class="st1" x1="179.59" y1="68" x2="192.69" y2="56.55"/>
            <line class="st1" x1="175.8" y1="63.66" x2="188.9" y2="52.21"/>
          </g>
          <g>
            <line class="st1" x1="172.26" y1="85.88" x2="185.36" y2="74.43"/>
            <line class="st1" x1="168.47" y1="81.54" x2="181.57" y2="70.09"/>
            <line class="st1" x1="164.68" y1="77.2" x2="177.78" y2="65.75"/>
            <line class="st1" x1="170.36" y1="83.71" x2="183.47" y2="72.26"/>
            <line class="st1" x1="166.57" y1="79.37" x2="179.68" y2="67.92"/>
            <line class="st1" x1="162.78" y1="75.03" x2="175.89" y2="63.58"/>
          </g>
          <g>
            <line class="st1" x1="159.25" y1="97.25" x2="172.35" y2="85.8"/>
            <line class="st1" x1="155.46" y1="92.91" x2="168.56" y2="81.46"/>
            <line class="st1" x1="151.67" y1="88.57" x2="164.77" y2="77.12"/>
            <line class="st1" x1="157.35" y1="95.08" x2="170.46" y2="83.63"/>
            <line class="st1" x1="153.56" y1="90.74" x2="166.66" y2="79.29"/>
            <line class="st1" x1="149.77" y1="86.4" x2="162.87" y2="74.95"/>
          </g>
        </g>
      </g>
      <g class="st12">
        <g>
          <rect class="st0" x="154.06" y="53.08" width="17.28" height="17.28" transform="translate(-.42 122.31) rotate(-41.15)"/>
          <g>
            <line class="st1" x1="173.9" y1="61.49" x2="187" y2="50.04"/>
            <line class="st1" x1="170.11" y1="57.16" x2="183.21" y2="45.71"/>
            <line class="st1" x1="166.32" y1="52.82" x2="179.42" y2="41.37"/>
            <line class="st1" x1="172.01" y1="59.32" x2="185.11" y2="47.87"/>
            <line class="st1" x1="168.22" y1="54.99" x2="181.32" y2="43.54"/>
            <line class="st1" x1="164.43" y1="50.65" x2="177.53" y2="39.2"/>
          </g>
          <g>
            <line class="st1" x1="160.89" y1="72.86" x2="173.99" y2="61.41"/>
            <line class="st1" x1="157.1" y1="68.53" x2="170.2" y2="57.08"/>
            <line class="st1" x1="153.31" y1="64.19" x2="166.41" y2="52.74"/>
            <line class="st1" x1="158.99" y1="70.7" x2="172.1" y2="59.25"/>
            <line class="st1" x1="155.2" y1="66.36" x2="168.31" y2="54.91"/>
            <line class="st1" x1="151.41" y1="62.02" x2="164.52" y2="50.57"/>
          </g>
          <g>
            <line class="st1" x1="147.88" y1="84.23" x2="160.98" y2="72.78"/>
            <line class="st1" x1="144.09" y1="79.9" x2="157.19" y2="68.45"/>
            <line class="st1" x1="140.3" y1="75.56" x2="153.4" y2="64.11"/>
            <line class="st1" x1="145.98" y1="82.07" x2="159.08" y2="70.62"/>
            <line class="st1" x1="142.19" y1="77.73" x2="155.29" y2="66.28"/>
            <line class="st1" x1="138.4" y1="73.39" x2="151.5" y2="61.94"/>
          </g>
        </g>
      </g>
    </g>
    <path class="st8" d="M241.59,75.21c.14-.18.36-.3.62-.28l7.57.42c.25.01.47.15.58.35l3.27,4.99c.21.3.15.7-.08.95l-7.77,7.67c-.17.15-.36.23-.58.22s-.4-.12-.55-.28l-6.87-8.49c-.24-.27-.22-.68.02-.95l3.8-4.6h-.01Z"/>
    <path class="st18" d="M15.23,115.81c-.96-1.56-1.21-3.07-1.27-4.03-.04-.69.01-1.22.03-1.42.06-.57.28-2.23,1.47-3.79,1.69-2.21,4.24-2.73,5.1-2.86,1.26-.19,2.25-.03,3.6.19,1.67.27,2.79.45,3.93,1.23,1.6,1.1,2.21,2.67,2.49,3.38.96,2.48.38,4.64.11,5.64-.3,1.1-.77,2.86-2.46,4.33-.44.38-2.21,1.83-4.92,1.92-3.78.13-6.47-2.47-7.4-3.64-.36-.44-.63-.88-.67-.95h-.01Z"/>
    <path class="st18" d="M39.31,118.06c-.94-1.6-1.17-3.16-1.22-4.14-.03-.71.03-1.26.05-1.47.07-.59.31-2.31,1.54-3.94,1.74-2.31,4.31-2.88,5.17-3.03,1.27-.21,2.27-.06,3.62.14,1.68.25,2.8.42,3.94,1.21,1.6,1.11,2.19,2.72,2.45,3.45.93,2.55.31,4.79.02,5.82-.32,1.15-.82,2.97-2.54,4.51-.44.4-2.25,1.92-4.98,2.06-3.81.19-6.47-2.46-7.4-3.65-.35-.45-.62-.9-.66-.97h.01Z"/>
    <path class="st18" d="M82.03,119.46c-.94-1.6-1.17-3.16-1.22-4.14-.03-.71.03-1.26.05-1.47.07-.59.31-2.31,1.54-3.94,1.74-2.31,4.31-2.88,5.17-3.03,1.27-.21,2.27-.06,3.62.14,1.68.25,2.8.42,3.94,1.21,1.6,1.11,2.19,2.72,2.45,3.45.93,2.55.31,4.79.02,5.82-.32,1.15-.82,2.97-2.54,4.51-.44.4-2.25,1.92-4.98,2.06-3.81.19-6.47-2.46-7.4-3.65-.35-.45-.62-.9-.66-.97h.01Z"/>
    <path class="st18" d="M105.7,121.95c-1.06-1.75-1.34-3.45-1.4-4.52-.04-.78.02-1.37.04-1.59.07-.64.32-2.51,1.66-4.26,1.9-2.49,4.75-3.08,5.71-3.22,1.41-.21,2.52-.04,4.02.2,1.86.3,3.12.5,4.39,1.37,1.79,1.23,2.46,2.99,2.77,3.78,1.07,2.78.41,5.21.1,6.33-.34,1.24-.87,3.21-2.76,4.87-.49.43-2.47,2.06-5.5,2.18-4.23.16-7.22-2.76-8.26-4.07-.4-.5-.7-.99-.75-1.07h-.02Z"/>
    <path class="st18" d="M159.1,120.56c-1.67-2.87-2.09-5.67-2.16-7.44-.06-1.28.06-2.27.1-2.64.13-1.06.57-4.15,2.77-7.09,3.12-4.15,7.73-5.2,9.27-5.46,2.28-.39,4.06-.12,6.48.24,3,.45,5.02.75,7.05,2.17,2.85,1.99,3.91,4.89,4.38,6.2,1.66,4.57.54,8.61.02,10.47-.57,2.06-1.48,5.34-4.57,8.12-.8.72-4.03,3.47-8.93,3.72-6.83.36-11.58-4.4-13.24-6.54-.63-.81-1.11-1.62-1.18-1.75h0Z"/>
    <path class="st18" d="M215.73,127.48c-1.08-1.73-1.38-3.39-1.45-4.44-.05-.76,0-1.34.02-1.56.07-.62.29-2.45,1.61-4.16,1.87-2.41,4.72-2.96,5.67-3.09,1.41-.19,2.52,0,4.02.24,1.87.31,3.12.52,4.41,1.39,1.8,1.22,2.5,2.95,2.81,3.74,1.1,2.73.46,5.11.17,6.2-.32,1.21-.84,3.14-2.71,4.74-.48.41-2.45,1.99-5.48,2.07-4.23.11-7.25-2.78-8.31-4.08-.4-.49-.71-.98-.76-1.05h0Z"/>
    <path class="st18" d="M238.95,130.08c-1.08-1.73-1.38-3.39-1.45-4.44-.05-.76,0-1.34.02-1.56.07-.62.29-2.45,1.61-4.16,1.87-2.41,4.72-2.96,5.67-3.09,1.41-.19,2.52,0,4.02.24,1.87.31,3.12.52,4.41,1.39,1.8,1.22,2.5,2.95,2.81,3.74,1.1,2.73.46,5.11.17,6.2-.32,1.21-.84,3.14-2.71,4.74-.48.41-2.45,1.99-5.48,2.07-4.23.11-7.25-2.78-8.31-4.08-.4-.49-.71-.98-.76-1.05h0Z"/>
    <path class="st7" d="M134.6,32.95c2.6.27,3.26-.78,2.65-3.36-1.36-5.73-5.54-8.03-10.81-8.82-12.87-1.94-25.85-2.91-38.82-3.96-8.38-.68-16.77-1.25-25.17-1.61-7.49-.33-14.98-.55-22.48-.46-6.16.07-12.33-.03-18.47.79-1.37.18-2.7.44-3.99.84-4.1,1.3-6.94,6.33-5.49,10.4,3.53,1.4,7.24.57,10.85.78,13.68.81,27.37,1.44,41.06,2.03,13.56.58,27.12,1.24,40.68,1.87,8.57.39,17.16.71,25.73,1.31"/>
    <path class="st3" d="M124.11,89.92c-6.41.17-8.34-.16-14.73-.44-8.29-.37-16.59-.73-24.87-1.21-8.66-.5-17.34-.84-26-1.24-8.69-.4-17.38-.84-26.08-1.19-5.22-.21-10.43-.43-15.64-.68"/>
    <path class="st3" d="M127.82,102.89c-8.86-.13-17.7-.73-26.55-1.09-16.48-.68-32.96-1.41-49.44-2.19-12.56-.59-25.12-1.14-37.68-1.79"/>
    <path class="st3" d="M264.16,112.57c-7.86-.55-14.56-.96-22.42-1.46-11-.7-21.99-1.44-32.99-2.09-6.32-.37-12.63-.83-18.94-1.25-.91-.06-1.73.06-2.58.18"/>
    <path class="st9" d="M152.38,38.68c-2.16,24.92-4.81,49.78-6.5,74.71l-.4-.45,7.53.42c.54.02.5.87-.05.84l-7.53-.41c-.24-.01-.42-.22-.4-.45,1.18-24.99,3.32-49.92,4.96-74.85.12-1.54,2.5-1.45,2.39.18h0Z"/>
    <path class="st9" d="M121.93,113.22c-2.02-4.33-8.03-6.32-12.35-4.24-6.98,3.17-6.64,12.38-.09,15.83,3.39,2.26,8.44,1.64,10.95-1.62,1.92-2.76,2.84-6.79,1.49-9.98h0ZM123.06,112.67c1.74,3.65,1.21,8.4-1.25,11.62-2.63,3.28-7.5,4.32-11.28,2.62-8.24-3.49-9.87-14.55-1.29-18.66,4.8-2.33,11.31-.43,13.82,4.42h0Z"/>
    <path class="st9" d="M133.16,37.55c-.79,12.5-2.81,44.13-3.63,56.19l-.68,9.37c-.26,3.13-.46,6.22-.93,9.39-.02.14-.12.25-.24.31-.53.28-1.17.47-1.8.48-.65,0-.68-.97-.03-.99.5.03.98-.06,1.46-.27,1.1-19.3,2.8-53.66,3.72-74.61.08-1.36,2.2-1.32,2.12.13h.01Z"/>
    <g>
      <path class="st14" d="M167.93,54.47l-9.69,8.46c-.05.55-.1,1.1-.15,1.66l10.5-9.17h0s9.19-8.03,9.19-8.03c.03-.39.06-.77.09-1.16.01-.14,0-.28-.03-.42l-9.92,8.67h0Z"/>
      <path class="st14" d="M159.86,43.93l.78-.68c-.24-.01-.47-.03-.71-.04-.03.24-.05.48-.07.72Z"/>
      <path class="st14" d="M175.42,63.23h0s-10.2,8.91-10.2,8.91c.54.04,1.07.08,1.61.12l9.44-8.24h0s.17-.14.17-.14c.03-.49.07-.98.11-1.47,0-.06,0-.11.01-.17l-1.14.99Z"/>
      <path class="st14" d="M170.94,72.49l5.21-4.56c.05-.55.1-1.1.13-1.64l-7.01,6.13c.56.03,1.11.05,1.67.07Z"/>
      <path class="st14" d="M175.31,72.38c.19-.6.34-1.2.46-1.81l-2.24,1.96c.5,0,1-.01,1.51-.03l.27-.11Z"/>
      <path class="st14" d="M173.52,61.06h0s-12.33,10.78-12.33,10.78c.54.04,1.08.07,1.62.11l11.56-10.1h0s2.4-2.1,2.4-2.1c.05-.55.09-1.1.14-1.65l-3.39,2.96Z"/>
      <path class="st14" d="M169.73,56.72h0s-11.85,10.36-11.85,10.36c-.05.55-.09,1.1-.14,1.66l12.85-11.23h0s6.88-6.01,6.88-6.01c.04-.55.09-1.1.13-1.64l-7.86,6.87Z"/>
      <path class="st14" d="M164.05,50.22h0s-5.08,4.44-5.08,4.44c-.04.55-.09,1.1-.14,1.65l6.07-5.31h0s7.96-6.96,7.96-6.96c-.54-.04-1.08-.08-1.62-.12l-7.2,6.29Z"/>
      <path class="st14" d="M158.46,60.45l8.33-7.28h0s10.02-8.76,10.02-8.76c-.53-.05-1.05-.1-1.58-.15l-9.29,8.12h0s-7.33,6.41-7.33,6.41c-.05.55-.1,1.11-.15,1.66Z"/>
      <path class="st14" d="M162.91,48.92l5.91-5.16c-.54-.04-1.09-.07-1.64-.1l-4.94,4.32h0s-2.97,2.59-2.97,2.59c-.04.55-.08,1.09-.12,1.64l3.76-3.29h0Z"/>
      <path class="st14" d="M160.26,45.88h0s-.65.57-.65.57c-.05.55-.1,1.1-.14,1.65l1.64-1.43h0s3.62-3.17,3.62-3.17c-.54-.03-1.09-.07-1.64-.1l-2.83,2.48Z"/>
      <path class="st14" d="M159.37,71.13l13.01-11.37h0s4.74-4.14,4.74-4.14c.05-.55.09-1.1.14-1.65l-5.55,4.85h0s-13.01,11.37-13.01,11.37h0s-.98.86-.98.86c.14.36.46.53,1.05.61l.6-.53h0Z"/>
    </g>
    <path class="st2" d="M175.31,72.38c1.05-3.25.93-6.65,1.23-9.98.47-5.39.94-10.78,1.34-16.17.04-.55-.34-1.07.03-1.71-5.98-.67-11.93-.92-17.98-1.31-.57,5.01-.78,9.8-1.23,14.56-.37,3.82-.65,7.65-1.01,11.47-.21,2.19-.09,2.39,2.09,2.51,5.08.27,10.15.96,15.26.74"/>
    <path class="st3" d="M258.82,67.77c-.85,11.5-.92,16.57-2.1,28.04"/>
    <path class="st3" d="M231.88,66.69c-.17,7.62-.92,12.66-1.35,20.26-.21,3.71-.2,4-.54,7.71"/>
    <path class="st9" d="M281.63,109.81c-.76-1.5-1.52-3-2.26-4.51-1.55-3.13-1.61-4.21-4.26-4.7-1.8-.34-5.95-.65-7.82-.49-.33,2.41-.74,5.22-1.06,7.49-.62,4.44-.68,8.95-1.11,13.42-.29,3.03-.34,6.08-.15,9.11.06.94.05,1.06.97,1.34.72.22,1.48.32,2.23.38,1.5.12,3.01,0,4.51.07,5.36.26,10.72.3,16.09.46,1.15.03,2.26-.08,3.27-.24.74-1.07.27-1.96-.15-2.75-3.47-6.51-6.93-13.02-10.27-19.6v.02Z"/>
    <path class="st7" d="M259.85,45c-.41.22-23.99-1.79-24.16-1.98-.65-.71.75-4.51,3.69-6.08,3-1.61,5.08-.29,11.19.11.25.02,1.57.06,4.21.2.99.05,1.78.1,2.6.61.78.48,1.31,1.21,1.47,1.43.29.42.24.48.7,1.28.69,1.2.86,1.19,1,1.65.23.82.43,2.19-.69,2.78h-.01Z"/>
    <path class="st9" d="M212.92,117.72c-5.72.52-12.13.04-17.86-.11-1.99-.09-3.97-.22-5.97-.41-.63-.06-1.08-.62-1.02-1.25.06-.62.6-1.07,1.22-1.03l5.91.39c3.43.21,8.39.63,11.87.93.52.02,7.09.79,5.86,1.48h0Z"/>
    <path class="st7" d="M206.26,38.54c1.51.07,2.71-1.24,2.53-2.73-.34-2.7-1.81-5.63-3.75-6.72-1.67-.95-3.66-.86-5.49-1.01-14.56-1.14-29.14-2.08-43.73-2.65-2.49-.1-5.31-.08-6.99,2.38-1.28,1.88-2.53,3.88-2.28,6.29.02.22.02.41,0,.59,2.62.41,5.25.58,7.9.73,7.48.44,14.96,1.05,22.45,1.49,5.34.31,10.68.84,16.03,1.03l13.34.6h0Z"/>
    <path class="st3" d="M203.39,66.3c-.15,2.56-.3,5.12-.36,7.68-.15,6.67-1.16,13.3-1.02,19.97.03,1.62.86,3.11,2.37,3.08,9.25-.19,18.47,1.01,27.7,1.62,11.53.76,19.61,1.55,31.16,2.03"/>
    <path class="st3" d="M203.73,60.28c-.04.87-.09,1.74-.14,2.6"/>
    <path class="st9" d="M205.95,39.05c-.85,6.09-1.31,15.02-1.72,21.25-.04.64-1.02.6-1-.05.08-6.34.06-15.19.6-21.43.14-1.42,2.28-1.21,2.12.22h0Z"/>
    <path class="st2" d="M51.45,38.76c.1,3.97-.4,7.92-.65,11.87-.24,3.93-.45,7.86-.72,11.79-.07,1.03-.16,1.96-.66,2.89-.21-.04-.43-.07-.67-.07-7.8-.02-15.57-.65-23.33-.94-.31-.78-.46-1.49-.45-2.3.08-5.03.47-10.04.65-15.07.12-3.26.63-6.51.41-9.79l25.41,1.62h.01Z"/>
    <g>
      <path class="st14" d="M51.73,41.64l-5.5,4.81h0s-12.92,11.29-12.92,11.29h0s-7.4,6.47-7.4,6.47c.56.02,1.11.05,1.67.07l6.4-5.59h0s13.1-11.45,13.1-11.45h0s4.56-3.99,4.56-3.99c.03-.54.07-1.07.09-1.61Z"/>
      <path class="st14" d="M48.48,65.13l1.76-1.54c.07-.41.11-.83.14-1.27,0-.13.02-.27.03-.4l-3.65,3.19c.58,0,1.15.02,1.73.02Z"/>
      <path class="st14" d="M44.19,65.05l6.36-5.56c.03-.54.07-1.08.1-1.62l-8.15,7.13c.56.02,1.12.04,1.69.05Z"/>
      <path class="st14" d="M50.9,53.83l-11.92,10.41h0s-.65.57-.65.57c.55.03,1.11.05,1.66.08l10.81-9.45c.03-.54.06-1.08.1-1.61Z"/>
      <path class="st14" d="M32.17,56.44h0s12.92-11.29,12.92-11.29h0s6.66-5.82,6.66-5.82c0-.22.01-.45,0-.67h-.01l-.91-.06-6.41,5.6h0s-13.1,11.45-13.1,11.45h0s-6.02,5.26-6.02,5.26c0,.33-.02.66-.03.99,0,.19,0,.37.02.55l6.87-6.01Z"/>
      <path class="st14" d="M37.85,62.95h0s12.92-11.29,12.92-11.29h0s.28-.24.28-.24c.02-.29.03-.59.05-.88.02-.25.04-.49.06-.74l-1.05.92h0s-13.1,11.45-13.1,11.45h0s-2.8,2.45-2.8,2.45c.55.03,1.1.06,1.65.09l2-1.75Z"/>
      <path class="st14" d="M34.51,37.56l-8.49,7.42c-.04.54-.07,1.07-.09,1.61l10.21-8.92-1.63-.1Z"/>
      <path class="st14" d="M27.98,37.15l-1.63-.1-.02.02c.03.5.05.99.05,1.49l1.6-1.4Z"/>
      <path class="st14" d="M30.43,37.3l-4.11,3.6c-.03.54-.07,1.08-.11,1.62l5.85-5.12-1.63-.1Z"/>
      <path class="st14" d="M35.87,60.86l13.01-11.37h0s2.46-2.15,2.46-2.15c.04-.55.09-1.1.13-1.64l-3.26,2.85h0s-13.01,11.37-13.01,11.37h0s-5.13,4.48-5.13,4.48c.55.03,1.1.05,1.66.08l4.14-3.62h0Z"/>
      <path class="st14" d="M30.18,54.35l13.01-11.37h0s5.19-4.53,5.19-4.53l-1.63-.1-4.22,3.69h0s-13.01,11.37-13.01,11.37h0s-4.08,3.56-4.08,3.56c-.02.53-.05,1.06-.07,1.59l4.81-4.21h0Z"/>
      <path class="st14" d="M28.28,52.18l13.1-11.45h0s2.91-2.55,2.91-2.55l-1.63-.1-2.13,1.86h0s-12.92,11.29-12.92,11.29h0s-1.99,1.74-1.99,1.74c-.03.53-.05,1.07-.08,1.6l2.74-2.39h0Z"/>
      <path class="st14" d="M26.39,50.01l13.01-11.37h0s.82-.72.82-.72l-1.63-.1-12.76,11.16c-.02.53-.04,1.06-.07,1.59l.63-.55h0Z"/>
    </g>
    <path class="st9" d="M80.95,111.76c-6.31-.61-15.33-1.11-21.76-1.34-.61-.02-.6-.96.03-.95,6.41.07,15.46.33,21.76.79.99.01.97,1.53-.03,1.5h0Z"/>
    <g>
      <path class="st14" d="M80.63,59.62h0s5.19-4.53,5.19-4.53c.04-.54.07-1.08.11-1.62l-6.14,5.37h0s-8.51,7.44-8.51,7.44c.55.03,1.1.06,1.66.08l7.7-6.73Z"/>
      <path class="st14" d="M66.61,43.57l-5.91,5.16c-.03.54-.07,1.08-.1,1.62l6.67-5.83h0s6.14-5.37,6.14-5.37c-.56-.02-1.12-.04-1.67-.07l-5.13,4.49h0Z"/>
      <path class="st14" d="M82.44,61.87l3.11-2.72c.04-.54.07-1.08.11-1.62l-3.89,3.4h0s-6.33,5.53-6.33,5.53c.56.02,1.12.04,1.68.06l5.32-4.65h0Z"/>
      <path class="st14" d="M84.33,64.04h0s1.09-.95,1.09-.95c.02-.52.03-1.04.03-1.56l-1.79,1.57h0s-4.02,3.52-4.02,3.52c.56.02,1.12.04,1.68.06l3.01-2.63Z"/>
      <path class="st14" d="M84.94,65.8l-1.11.97c.22,0,.44.02.65.02.19-.33.33-.66.45-.99Z"/>
      <path class="st14" d="M78.64,57.53h0s7.44-6.5,7.44-6.5c.03-.54.07-1.08.1-1.62l-8.21,7.17h0s-10.85,9.48-10.85,9.48c.55.03,1.1.05,1.66.08l9.86-8.62Z"/>
      <path class="st14" d="M76.75,55.36l9.58-8.37c.03-.54.06-1.07.09-1.61l-10.34,9.03h0s-13.01,11.37-13.01,11.37h0s-.09.08-.09.08c.55.03,1.11.05,1.66.08l12.11-10.58h0Z"/>
      <path class="st14" d="M72.96,51.03l12.86-11.24c-.55-.03-1.09-.06-1.64-.09l-11.88,10.38h0s-12.28,10.73-12.28,10.73c-.03.54-.07,1.09-.12,1.63l.14-.12h0s12.92-11.29,12.92-11.29h0Z"/>
      <path class="st14" d="M69.17,46.69l8.41-7.35c-.55-.03-1.11-.05-1.66-.08l-7.41,6.48h0s-8.05,7.04-8.05,7.04c-.04.54-.07,1.08-.1,1.62l8.82-7.71h0Z"/>
      <path class="st14" d="M71.06,48.86h0s10.65-9.3,10.65-9.3c-.55-.03-1.09-.07-1.64-.09l-9.67,8.45h0s-10.17,8.89-10.17,8.89c-.02.53-.05,1.06-.08,1.6l10.92-9.54Z"/>
      <path class="st14" d="M65.38,42.35l3.85-3.36c-.56-.02-1.12-.04-1.68-.07l-2.84,2.48h0s-3.79,3.32-3.79,3.32c-.03.54-.07,1.08-.09,1.61l4.56-3.98h0Z"/>
      <path class="st14" d="M63.48,40.18l1.55-1.35c-.56-.02-1.12-.04-1.68-.06l-.53.47h0s-1.58,1.38-1.58,1.38c-.05.56-.12,1.12-.17,1.67l2.41-2.11h0Z"/>
      <path class="st14" d="M61.84,64.57l13.1-11.45h0s11.59-10.13,11.59-10.13c.02-.41.04-.82.06-1.23,0-.12-.01-.22-.03-.33l-12.48,10.9h0s-12.92,11.29-12.92,11.29h0s-1,.87-1,.87c.05.26.08.51.04.77.19.08.38.16.57.23l1.06-.92h0Z"/>
    </g>
    <path class="st2" d="M65.18,38.84c7.03.26,14.02.52,20.97.98.14.77.48,1.24.45,1.94-.26,6.04-.7,12.06-1.1,18.09-.16,2.34.26,4.75-1.01,6.95-7.33-.21-14.66-.57-21.98-.95-.85-.04-1.55-.25-2.29-.58.14-.81-.42-1.59-.35-2.43.31-3.5.34-7.04.61-10.54.34-4.43.36-8.88.94-13.48,0-.04,0-.08.02-.12,1.25.05,2.51.09,3.76.14"/>
    <g>
      <g>
        <path class="st14" d="M118.76,68.08c.29-.54.47-1.11.57-1.69l-1.91,1.67c.45,0,.89.02,1.34.02Z"/>
        <path class="st14" d="M119.59,62.34l-6.43,5.62c.56.02,1.12.04,1.68.06l4.67-4.08c.03-.53.05-1.07.08-1.6Z"/>
        <path class="st14" d="M109.96,66.93l-.97.85c.55.03,1.11.05,1.66.08l9.06-7.92c.03-.54.06-1.07.09-1.61l-9.84,8.6h0Z"/>
        <path class="st14" d="M106.93,63.46h0s12.92-11.29,12.92-11.29h0s.35-.3.35-.3c.04-.54.07-1.09.11-1.63l-1.13.99h0s-13.1,11.45-13.1,11.45h0s-5.32,4.65-5.32,4.65c.08,0,.17,0,.25,0,.47.02.93.05,1.4.08l4.52-3.95Z"/>
        <path class="st14" d="M95.1,47.03l7.55-6.6c-.55-.03-1.1-.06-1.65-.09l-5.82,5.09c-.03.53-.05,1.07-.08,1.6Z"/>
        <path class="st14" d="M95.3,43.03l3.23-2.82c-.7.01-1.34.17-2.01.22l-1.16,1.01c-.02.53-.04,1.06-.06,1.58Z"/>
        <path class="st14" d="M108.74,65.71l11.21-9.79c.03-.52.06-1.05.09-1.57,0-.01,0-.02,0-.04l-11.96,10.46h0s-3.19,2.79-3.19,2.79c.55.03,1.1.06,1.65.09l2.21-1.93h0Z"/>
        <path class="st14" d="M104.94,61.37l13.01-11.37h0s2.52-2.2,2.52-2.2c.03-.54.06-1.07.09-1.61l-3.28,2.86h0s-13.01,11.37-13.01,11.37h0s-7.72,6.74-7.72,6.74c.53.08,1.06.12,1.6.13l6.78-5.93h0Z"/>
        <path class="st14" d="M103.05,59.2l13.1-11.45h0s4.51-3.94,4.51-3.94c.02-.52.03-1.04.04-1.56l-5.4,4.71h0s-12.92,11.29-12.92,11.29h0s-8.14,7.11-8.14,7.11c0,.34-.01.68-.01,1.02.12.07.25.13.37.19l8.45-7.38h0Z"/>
        <path class="st14" d="M101.15,57.03l13.01-11.37h0s4.92-4.3,4.92-4.3c-.49-.1-.99-.18-1.48-.24l-4.11,3.59h0s-13.01,11.37-13.01,11.37h0s-6.16,5.39-6.16,5.39c-.02.52-.04,1.05-.05,1.57l6.88-6.01h0Z"/>
        <path class="st14" d="M97.36,52.69l13.1-11.45h0s.47-.41.47-.41c-.35-.01-.69-.03-1.04-.05-.2-.01-.41-.02-.61-.03l-12.58,10.99h0s-1.99,1.74-1.99,1.74c-.03.54-.06,1.07-.09,1.61l2.75-2.4h0Z"/>
        <path class="st14" d="M99.26,54.86l13.01-11.37h0s2.92-2.55,2.92-2.55c-.57-.02-1.13-.03-1.7-.04l-1.89,1.65h0s-13.01,11.37-13.01,11.37h0s-4.1,3.59-4.1,3.59c-.03.53-.05,1.06-.08,1.6l4.85-4.24h0Z"/>
        <path class="st14" d="M95.47,50.53l11.34-9.91c-.55-.03-1.11-.05-1.66-.08l-10.19,8.9c-.03.54-.06,1.08-.1,1.61l.61-.54h0Z"/>
      </g>
      <path class="st10" d="M118.76,68.58c-4.6,0-9.25-.27-13.75-.53-1.34-.08-2.69-.15-4.03-.22-.54-.03-1.09-.03-1.64-.02-1.61,0-3.27.02-4.87-.73-.16-.07-.32-.16-.47-.24-.16-.09-.26-.26-.26-.44,0-5.07.31-10.23.62-15.22.21-3.52.44-7.16.55-10.8,0-.15.07-.28.19-.37.11-.09.26-.13.4-.1.6.11,1.17.03,1.76-.06.52-.08,1.05-.16,1.66-.12,1.94.14,3.91.23,5.82.31,1.73.08,3.46.15,5.19.27,1.03.07,2.08.08,3.1.1,2.58.04,5.25.08,7.84.91.21.07.35.26.35.48,0,3.07-.23,6.18-.45,9.18-.08,1.14-.16,2.28-.23,3.42-.19,3.1-.35,6.21-.5,9.32l-.1,1.89c-.05,1.02-.28,1.91-.73,2.74-.09.16-.26.26-.44.26ZM99.82,66.81c.41,0,.81,0,1.21.03,1.35.07,2.69.15,4.04.23,4.38.25,8.91.51,13.38.52.29-.62.45-1.3.48-2.05l.1-1.89c.16-3.11.31-6.22.5-9.33.07-1.14.15-2.29.24-3.43.21-2.86.42-5.82.44-8.74-2.35-.68-4.81-.72-7.2-.75-1.03-.02-2.1-.03-3.15-.1-1.72-.11-3.45-.19-5.17-.27-1.92-.09-3.9-.17-5.84-.31-.49-.03-.95.04-1.44.11-.49.07-.98.15-1.53.13-.12,3.47-.33,6.93-.54,10.29-.3,4.88-.6,9.91-.62,14.85.05.03.11.05.16.08h0c1.4.65,2.88.65,4.45.64.16,0,.32,0,.49,0Z"/>
    </g>
    <path class="st4" d="M269.72,105.08c0,1.3.33,5.2.31,6.67-.07,5.89.29,8.08.09,13.97"/>
    <path class="st4" d="M273.09,104.89c.24,1.49.67,4.66.95,5.83,1.5,6.23,2.12,9.28,3.65,15.51"/>
    <path class="st9" d="M270.99,74.23c-2.94-4.69-8.52-7.64-13.92-8.37-5.67-.81-11.36-.77-17.06-1.36-7.83-.59-17.72-.83-25.62-1.26-2.87-.15-5.68-.26-8.62-.53-.58-.05-1.01-.57-.95-1.15.05-.61.62-1.04,1.22-.94,2.74.31,5.63.49,8.46.7,14.07.96,28.74,1.74,42.72,3.51,5.69.93,11.32,4.05,14.36,9.07.19.37-.33.72-.58.34h-.01Z"/>
    <path class="st9" d="M271.63,91.7c2.18-.18,3.23-2.85,3.61-4.88.96-3.65.6-8.52-2.88-10.69-.45-.19-.14-.9.31-.7,3.17,1.64,4.45,5.73,4.24,9.1-.24,2.63-.49,5.45-2.4,7.51-.69.72-1.67,1.23-2.67,1.38-1.17.16-1.39-1.59-.21-1.72h0Z"/>
    <path class="st9" d="M259.28,46.06c-1.91,6.21-4.03,12.66-3.61,19.23.05.48-.71.56-.76.07-.52-5.86.75-11.72,2.34-17.3.26-.76.45-1.5.59-2.29.07-.4.45-.66.85-.59.41.07.68.48.59.88h0Z"/>
    <path class="st4" d="M275.95,105.69c2.61,6.2,5.31,12.37,7.92,18.57.49,1.16.7,1.7.99,2.37"/>
    <path class="st9" d="M99.36,112.93c1.77,5.64-1.54,10.48-6.93,12.29-10.03,3.27-16.32-11.64-8.52-17.62,5.14-3.33,14.35-1.38,15.44,5.32h0ZM98.02,113.23c-.7-6.07-9.1-7.94-13.66-4.99-4.75,3.54-3.56,11.78,1.28,14.68,5.94,3.69,14.05-3.08,12.38-9.69h0Z"/>
    <path class="st9" d="M238.22,44.83c1.36,6.01,2.5,12.18,2.06,18.39-.04.59-.56,1.03-1.14.98-.6-.04-1.04-.57-.98-1.17.66-6.03.17-12.09-.41-18.13-.03-.29.41-.37.48-.08h0Z"/>
    <path class="st9" d="M271.16,95.19c-.45.82-1.43,1.83-1.99,2.62-.61.81-1.12,1.66-1.31,2.62-.04.2-.23.32-.42.29-.18-.03-.3-.2-.29-.37.08-1.66,1.06-3.16,1.86-4.53.21-.37.51-.87.62-1.3.42-1.15,2.11-.4,1.54.68h0Z"/>
    <path class="st3" d="M271.05,77.43c-.04.62.08,1.27.07,1.82-.02,4.48-.23,5.67-.3,10.55"/>
    <path class="st3" d="M143.17,106.03c-5.43-.91-8.94-.6-14.41-1.12"/>
    <path class="st3" d="M144.13,100.31c-5.38-.69-9.34-.23-14.72-1.06"/>
    <path class="st3" d="M173.07,99.74c-.28,3.08-.23,2.44-.47,5.53-.14,1.8,0,4.25-.33,5.86-.09,1.03-.22,2.51-.4,4.31-.41,4.17-.67,5.87-.96,9.29-.09,1.1-.21,2.63-.31,4.46"/>
    <path class="st3" d="M158.1,111.81c5.37.3,8.8.66,13.9,1.29.81.03,1.62.07,2.44.11,4.39.22,8.65.57,12.78,1.04"/>
    <path class="st3" d="M224.13,62.38c.07-2.7.24-5.4.36-8.1.07-1.74-.4-2.84-2.33-3.12-.87-.13-4.67-.23-6.04-.24-1.52,0-2.02,1.31-2.11,2.67-.17,2.74-.42,5.47-.62,8.21"/>
    <path class="st9" d="M160.24,123.04c3.8,4.39,10.14,7.63,15.83,5.24,3.56-1.56,6.77-4.22,8.64-7.65,7.02-11.75-4.3-24.98-16.98-21.83-10.56,2.94-14.82,15.91-7.49,24.24h0ZM159.5,123.66c-9.15-11.17,0-27.96,14.33-26.49,11.93,1.57,18.91,13.74,12.7,24.48-2.17,3.83-5.73,6.78-9.83,8.31-6.37,2.37-13.24-1.37-17.21-6.3h.01Z"/>
    <path class="st3" d="M183.96,103.89c-2.51,2.02-5.19,3.89-7.64,5.95-4.76,4.01-9.98,7.71-15.08,11.34"/>
    <path class="st3" d="M163.46,102.57c1.02,1.37,2.13,2.77,3.33,4.2,1.19,1.43,2.38,2.76,3.54,4,1.22,1.54,2.44,3.08,3.66,4.61,2.49,3.13,5.24,6.75,7.73,9.88"/>
    <path class="st3" d="M157.3,106.19c-3.69-.22-4.92-.23-8.57-.61"/>
    <path class="st3" d="M225.37,115.31c-.84,4.96-.89,6.01-1.63,10.99-.18,1.2-.33,3.55-.6,4.74"/>
    <path class="st3" d="M248.52,117.66c-.68,6.16-1.09,9.5-1.61,15.67"/>
    <path class="st9" d="M247.87,116.76c-4.74-.64-9.42,3.37-9.2,8.18.06,2.89,2.06,5.47,4.12,7.41,2.29,1.85,5.93,2.22,8.55.95,1.23-.77,2.34-1.58,3.16-2.78,3.89-5.81.4-13.11-6.62-13.75h-.01ZM247.94,115.77c8.21.43,12.65,8.94,8.04,15.84-1.16,1.58-2.92,2.93-4.73,3.65-3.22.98-6.9.38-9.44-1.86-2.2-2.29-4.15-5.08-4.18-8.44,0-5.36,5.08-9.63,10.3-9.18h0Z"/>
    <path class="st3" d="M46.33,121.01c.28-2.31.38-3.56.53-6.38"/>
    <path class="st9" d="M49.22,120.98c1.67-.49,3.14-.93,4.24-2.04,2.7-2.81,2.52-8.16-.29-10.88-3.16-2.61-8.02-3.57-11.55-1.14-2.76,1.8-4.24,5.52-3.35,8.68,1.21,4.13,6.43,6.96,10.95,5.38h0ZM49.72,122.68c-5.43,1.67-11.33-1.95-12.46-6.83-1.5-8.02,7.26-13.74,14.28-10.03,5.49,2.07,6.78,9.89,3.06,14.19-1.23,1.44-3.13,2.21-4.88,2.67h0Z"/>
    <path class="st2" d="M185.69,45.52c.04-.18.09-.36.14-.54,3.3.19,6.55.25,9.83.93.08,3.29-.41,6.48-.64,9.68-.43,6.11-.94,12.22-1.52,18.32-3.36-.25-6.76,0-10.07-.91.04-6.04.79-12.02,1.37-18.02.3-3.1.11-6.27.89-9.47h0Z"/>
    <path class="st9" d="M215.02,126.17c-2.98-7.94,3.71-14,11.52-12.64,3.27.49,6.56,2.77,7.3,6.15,1.01,3.63.72,8.53-2.56,11.13-5.27,4.66-14.24,1.69-16.26-4.64h0ZM215.93,125.83c2.61,6.68,12.85,7.63,15.82.88.83-2.05.7-4.41.21-6.59-.54-3.31-4.17-5.26-7.41-5.42-6.52-.56-11.33,4.83-8.62,11.13h0Z"/>
    <path class="st20" d="M12.93,108.2l-2.16-.43c-.27-.05-.41-.29-.44-.54-.71-3.43-.24-6.84-.2-10.06-.44-6.54.53-13.3.76-19.84.85-16.42,1.73-33.19,2.68-49.56.16-2.1,3.32-2,3.26.19-1.31,16.4-2.56,33.1-3.78,49.5-.38,6.52-1.49,13.24-1.2,19.75-.13,3.36-.63,6.62-.04,9.72l-.44-.54,1.87.54c.79.21.5,1.43-.3,1.26h-.01Z"/>
    <path class="st9" d="M14.86,116.04c-4.02-7.49,2.05-14.51,10.12-12.5,6.99.47,8.58,9.14,5.1,14.19-3.98,5.64-12.11,3.84-15.22-1.69h0ZM15.61,115.58c3.64,5.69,12.61,5.42,14.28-1.64.95-2.9.36-6.45-2.17-8.34-1.67-1.11-4.17-1.37-6.14-1.54-6.19-.05-9.2,6.5-5.97,11.52h0Z"/>
    <path class="st3" d="M114.38,108.46c-.48,5.89-1,11.31-1.43,16.92"/>
    <path class="st3" d="M90.73,107.04c-.41,2.41-.4,4.85-.66,7.27-.12,1.17-.23,2.35-.34,3.54-.17,1.9-.31,3.77-.43,5.61"/>
    <path class="st3" d="M45.87,112.68c-2.47-2.18-3.18-2.87-5.27-4.69"/>
    <path class="st3" d="M47.62,105.57c-.11,2.72-.2,5.45-.51,8.52"/>
    <path class="st3" d="M120.25,122.26l-4.72-3.71c-1.24-.93-2.54-1.98-3.87-3.16-1.66-1.47-3.12-2.93-4.39-4.31"/>
    <path class="st3" d="M23.46,104.04c-.21,2.46-.42,4.91-.63,7.37-.04.49-.09.98-.13,1.47-.18,1.99-.38,3.96-.58,5.92"/>
    <path class="st3" d="M16.3,106.27c1.98,1.84,2.9,2.59,4.59,4.09.67.5,1.55,1.34,2.77,2.37.6.51.84.73,1.35,1.16.72.61,1.8,1.47,3.22,2.43"/>
    <path class="st3" d="M84.17,109.82c.65.74,1.39,1.5,2.25,2.26.34.3.68.59,1.01.86"/>
    <path class="st3" d="M242.55,119.9c1.8,1.51,3.86,3.23,5.34,4.67,0,0,4.19,3.08,6.25,5.09"/>
    <path class="st3" d="M88.84,113.88c.87.82,1.76,1.65,2.68,2.48,1.45,1.32,2.9,2.58,4.32,3.79"/>
    <path class="st3" d="M47.4,113.87c2.02,1.74,2.92,2.64,5.13,4.76"/>
    <path class="st6" d="M264.81,121.2c-2.66-.14-4.4-.2-6.69-.34"/>
    <path class="st3" d="M218.63,116.78c2.08,1.79,3.61,4.11,5.61,5.97,2.18,2.02,4.64,3.71,7,5.51"/>
    <path class="st3" d="M216.52,126.85c2.78-1.18,5.86-2.71,9.09-4.68,2.22-1.35,4.2-2.73,5.96-4.07"/>
    <path class="st3" d="M239.79,129.14c2.33-1.4,12.26-7.13,14.2-8.48"/>
    <path class="st3" d="M120.53,112.58c-.75.4-1.32.96-2.64,1.74-2.25,1.33-3.63,2.3-4.92,3.14-1.55,1.01-3.06,2.04-6.02,3.55"/>
    <path class="st3" d="M96.07,111.71c-1.35.78-1.82,1-3.16,1.78-1.28.79-2.61,1.59-3.99,2.38-2.25,1.29-4.45,2.46-6.59,3.53"/>
    <path class="st3" d="M28.66,108.48c-.98.63-1.5.79-4.73,2.74-.97.59-1.73.95-2.44,1.32-2.28,1.19-4.49,2.21-6.11,2.94"/>
    <path class="st3" d="M52.91,110.13c-1.39.83-2.79,1.66-4.18,2.49-1.03.56-2.06,1.13-3.11,1.69-2.2,1.18-4.38,2.33-6.54,3.43"/>
    <path class="st9" d="M217.13,50.57l.43-7.36c.04-.5.46-.89.96-.89h2.24c.61,0,1.09.52,1.04,1.13l-.51,7.48"/>
  </g>
</svg>