<?xml version="1.0" encoding="UTF-8"?>
<svg id="_レイヤー_1" data-name="レイヤー_1" xmlns="http://www.w3.org/2000/svg" version="1.1" viewBox="0 0 300 150">
  <!-- Generator: Adobe Illustrator 30.0.0, SVG Export Plug-In . SVG Version: 2.1.1 Build 123)  -->
  <defs>
    <style>
      .st0 {
        fill: #ceb372;
      }

      .st1 {
        fill: #e62923;
      }

      .st2 {
        fill: #fff;
      }

      .st3 {
        fill: #1a1a1a;
      }
    </style>
  </defs>
  <path class="st2" d="M120.18,118.3c-1.36-2.86-3.88-4.06-4.82-4.49-1.03-.47-4.15-1.7-7.77-.44-.76.27-4.51,1.68-6.02,5.66-1.11,2.94-.33,5.52-.11,6.22,1.02,3.22,3.42,4.87,4.38,5.53.86.59,2.3,1.55,4.42,1.86.72.1,4.14.5,7.09-1.85,2.76-2.19,3.24-5.29,3.45-6.64.18-1.16.53-3.42-.63-5.86Z"/>
  <path class="st2" d="M95.55,118.29c.22,1.02.67,3.14-.22,5.57-.98,2.69-3.01,4.09-3.84,4.64-.92.62-3.51,2.35-6.81,1.77-4.07-.71-6.05-4.36-6.4-5.05-2.03-3.97-1.39-9.62,1.99-12.18,2.36-1.79,5.53-1.67,6.32-1.64.6.02,1.99.13,3.61.75,1.06.41,2.59,1,3.79,2.49,1.05,1.29,1.33,2.61,1.55,3.65Z"/>
  <path class="st2" d="M44.57,127.05c1.83-.52,3.03-.91,4.26-1.96,2.33-1.99,2.53-5.1,2.57-5.81.12-2.11-.52-4.45-1.83-6.13-.98-1.26-2.61-2.07-4.07-2.64-1.64-.65-3.44-.96-5.2-.73-2.48.33-4.81,1.72-6.27,3.75-.58.8-2.4,3.62-1.54,7.14,0,0,.88,3.63,4.42,5.53.53.29,1.56.75,2.85,1.03.4.09,1.04.22,1.89.24.57.01,1.51-.02,2.91-.42Z"/>
  <path class="st2" d="M9.18,120.61c-.98-1.62-1.23-3.19-1.29-4.17-.04-.72.02-1.26.04-1.47.07-.59.3-2.31,1.55-3.91,1.77-2.28,4.41-2.8,5.29-2.92,1.31-.19,2.33-.01,3.72.22,1.73.29,2.88.48,4.06,1.3,1.65,1.14,2.27,2.77,2.55,3.51.98,2.57.36,4.8.08,5.83-.32,1.14-.82,2.95-2.57,4.46-.45.39-2.29,1.88-5.1,1.96-3.92.11-6.68-2.6-7.64-3.81-.37-.46-.65-.92-.69-.99Z"/>
  <path class="st2" d="M249.93,122.5c-1.86-.14-3.75.2-5.4,1.08-3.1,1.65-5.13,5.25-4.7,8.73.34,2.76,2.06,5.15,4,7.15,1.1,1.14,2.53,1.68,4.12,2.08,1.67.43,4.59.22,5.96-.65,1.73-1.1,2.46-1.59,3.67-3.24,1.21-1.65,1.72-4.38,1.65-6.43-.11-2.98-2.05-5.72-4.62-7.25-1.41-.85-3.03-1.35-4.68-1.47Z"/>
  <path class="st2" d="M216.31,132.37c-.58-1.58-1.47-5.04.43-8.13,1.49-2.42,3.97-3.32,4.83-3.63,2.38-.86,4.42-.59,5.64-.42,3.05.41,6.32,2.46,7.09,5.63.49,2.02.76,4.11.29,6.36-.37,1.77-1.46,4.27-4.84,5.85-2.53,1.18-4.88.83-5.6.71-3.01-.5-5.96-2.43-7.48-5.53-.05-.1-.19-.4-.35-.84Z"/>
  <path class="st2" d="M158.8,129.29c2.17,2.64,4.46,4.07,5.2,4.49,1.58.91,4.34,2.49,8.08,2.35,3.46-.14,5.88-1.69,7.39-2.65,1.66-1.06,4.63-3.35,6.56-7.38.69-1.43,2.14-4.56,1.72-8.76-.43-4.41-2.66-7.38-3.6-8.49-.3-.35-6.47-7.37-15.57-5.82-7.83,1.34-11.4,7.94-11.7,8.5-2.32,4.42-2.42,9.95-.24,14.44.58,1.19,1.31,2.31,2.15,3.33Z"/>
  <path class="st2" d="M144.84,36.53s1.75-6.49,3.83-7.2,3.48-1.65,3.48-1.65l16.51,1.02s32.66,2.35,35.66,3.04,5.62,7.62,5.62,7.62l-.33,2.68-3.91.27-1.69,24.75,10.29.46.53-11.3,2.1-1.22,1.94-1.23-.04-7.61,4.72.29-.88,8.74,2.81,1.02.22,10.16.05,1.86,14.99.92.24-1.17s.52-5.72.19-8.61c-.33-2.89-1.3-11.92-1.3-11.92l-2.64-1.01c.58-1.15,3.2-5.21,3.2-5.21,0,0,2.48-1.88,3.99-1.61s13.6,1.51,13.6,1.51c0,0,2.88-.16,3.44,1.73.56,1.89,1.3,3.63,1.3,3.63l-.86,2.99-2.81,7.27-1,10.76-.23,1,.06,1.69s5.55.51,8.96,2.75c3.73,2.45,6.29,7.66,6.29,7.66l2.52.32s1.22-.6,2.1,1.65c.88,2.25.9,10.03.9,10.03l-1.79,4.29-1.77,1.24-2.8,4.22-2.58,3.39,9.43.58,17,31.48-1.12,1.79-25.64-1.07-2.29-1.32.42-9.61-8.78-.2s-5.79-4.75-8.32-4.91-8.07,2.04-8.07,2.04l-.6,1.49-7.41-.46s-2.56-5.06-5.92-5.44c-3.36-.38-7.22-.78-8.66.65s-3.93,3.48-3.93,3.48l-27.9-2.73s.53-5.89-1.17-8.53c-1.7-2.64-6.65-10.05-14.24-10.35s-14.44,6.55-14.44,6.55c-2.37,2.73-2.95,9.46-2.95,9.46l-10.83.18,6.5-80.93-6-1.38Z"/>
  <path class="st2" d="M102.63,21.75l-62.35-3.5-26.38.07c-2.48,1.88-4.13,1.1-5.72,5.06s-1.66,4.97-1.66,4.97l2.65.84-4.7,81.89,3.66.9s3.32-4.53,6.35-4.34,8.04,1.17,8.97,2.58,2.87,2.88,2.87,2.88l7.41.46s5.01-4.43,7.37-4.28,8.91,3.59,8.91,3.59l5.29,2.02,21.9,1.35s2.69-5.25,5.41-5.42c2.72-.17,9.45.24,10.97,3.04l1.52,2.8,7.39.79s1.89-3.27,4.65-4.11,9.39,1.25,9.39,1.25l4.19,3.3,3.75-.45,6.39-81.79,4.44-.74s-.7-5.12-2.26-7.24-7.5-4.52-7.5-4.52l-22.91-1.41Z"/>
  <path class="st0" d="M175.08,76.65c1.11-3.35,1.01-6.88,1.33-10.32.52-5.57,1.04-11.14,1.48-16.72.05-.57-.35-1.11.04-1.77-6.18-.73-12.33-1.02-18.59-1.47-.62,5.18-.86,10.13-1.37,15.06-.4,3.95-.72,7.91-1.12,11.86-.23,2.27-.11,2.47,2.15,2.6,5.26.31,10.5,1.05,15.78.86"/>
  <path class="st0" d="M47.12,41.1c.08,4.11-.46,8.19-.74,12.28-.28,4.06-.51,8.13-.82,12.2-.08,1.07-.18,2.03-.7,2.99-.21-.05-.44-.08-.69-.08-8.07-.07-16.11-.77-24.14-1.11-.32-.81-.47-1.55-.45-2.38.11-5.2.54-10.39.77-15.59.14-3.38.69-6.74.48-10.13"/>
  <path class="st0" d="M47.09,40.37c-2.02.63-4.02-.07-6.03-.09-6.63-.06-13.22-.95-19.86-.74"/>
  <path class="st0" d="M57.42,41.23s.01-.08.02-.12c8.07.14,16.1.24,24.06.62.11.78.43,1.26.37,1.98-.45,6.18-1.08,12.35-1.66,18.53-.23,2.39.1,4.85-1.21,7.13-7.14-.06-14.26-.28-21.38-.51-.82-.03-1.5-.23-2.22-.55.16-.83-.36-1.62-.26-2.48.42-3.59.56-7.21.94-10.79.48-4.54.64-9.09,1.35-13.81Z"/>
  <path class="st0" d="M91.69,70.2c-.15-.07-.31-.15-.46-.24.05-8.9,1.03-17.76,1.37-26.9,1.29.25,2.33-.26,3.6-.16,3.79.29,7.6.4,11.39.66,3.74.26,7.53-.11,11.19,1.08-.04,4.35-.49,8.67-.78,13-.27,3.86-.47,7.73-.69,11.59-.05.92-.26,1.79-.71,2.61-6.13-.04-12.25-.53-18.37-.88-2.2-.13-4.45.23-6.55-.77Z"/>
  <path class="st0" d="M185.98,48.92c.05-.19.1-.37.15-.56,3.41.21,6.78.3,10.17,1.02.06,3.41-.47,6.7-.72,10.01-.48,6.32-1.05,12.64-1.68,18.95-3.48-.28-7-.05-10.41-1,.08-6.25.89-12.44,1.53-18.63.33-3.21.15-6.48.97-9.79Z"/>
  <path class="st1" d="M243.61,77.9c.14-.19.38-.3.64-.29l7.83.48c.26.02.48.16.6.36l3.35,5.19c.21.31.15.73-.09.98l-8.09,7.89c-.17.15-.38.24-.6.23s-.42-.12-.57-.3l-7.06-8.82c-.25-.28-.22-.7.03-.98l3.96-4.74Z"/>
  <path class="st3" d="M20.36,15.87c-4,.3-8.71.47-11.86,3.28-2.36,2.1-3.83,5.42-3.21,8.59.21,1.08.45,1.26,1.49,1.58s2.2.5,3.32.58c2.41.16,4.82-.1,7.23.03,5.19.28,10.37.65,15.55.94,20.85,1.18,41.71,2.15,62.57,3.25,5.76.3,11.52.59,17.28.88,2.96.15,5.92.31,8.87.49,1.4.09,2.79.18,4.19.27s3.1.02,4.47.57c.71.28,2.03-.73,1.01-1.14-1.58-.64-3.44-.56-5.11-.67-2.13-.15-4.27-.28-6.41-.4-4.11-.24-8.22-.44-12.33-.64-8.24-.41-16.49-.85-24.73-1.29-16.32-.86-32.64-1.61-48.95-2.53-4.61-.26-9.22-.54-13.83-.83-2.1-.13-4.16-.18-6.26-.13-2.31.05-4.55,0-6.74-.83l.36.34c-.94-2.92.1-6.12,2.27-8.22,2.7-2.61,7.11-2.63,10.64-2.9.96-.07,1.36-1.31.17-1.23h0Z"/>
  <path class="st3" d="M32.04,15.57c-1.95,0-3.89,0-5.84.05-.37,0-.91.28-.96.69-.05.44.47.55.8.54,1.95-.04,3.89-.05,5.84-.05.37,0,.91-.28.96-.69.05-.45-.47-.54-.8-.54h0Z"/>
  <path class="st3" d="M35.49,15.56c-1.15,0-2.3,0-3.44.01-.21,0-.49.11-.65.24-.13.1-.3.27-.31.45-.03.45.45.54.8.54,1.15,0,2.3,0,3.44-.01.21,0,.49-.11.65-.24.13-.1.3-.27.31-.45.03-.45-.45-.54-.8-.54h0Z"/>
  <path class="st3" d="M130.66,36.48c.82.02,1.59-.25,2.4-.26.6,0,1.17.06,1.77-.06.88-.18,1.7-.65,2.04-1.52.43-1.06.08-2.4-.22-3.44-.39-1.36-.99-2.68-1.83-3.83-3.76-5.11-11.04-5.3-16.75-6.05-8.54-1.13-17.13-1.93-25.71-2.68-8.5-.74-17.01-1.48-25.53-2.02-9.53-.6-19.07-1.03-28.62-1.07-.98,0-1.35,1.22-.17,1.23,15.63.07,31.26,1.13,46.83,2.49,7.69.67,15.37,1.31,23.05,2.14,3.75.4,7.5.85,11.24,1.37,3.17.44,6.52.68,9.51,1.9,2.62,1.07,4.72,3.04,5.78,5.67.44,1.09,1.18,2.88.76,4.08-.23.66-.76.6-1.38.59-.87-.02-1.73.26-2.57.24-.37,0-.99.1-1.13.52-.13.37.12.69.52.7h0Z"/>
  <path class="st3" d="M112.83,93.67c-13.56-.85-27.14-1.55-40.7-2.28-14.07-.76-28.14-1.5-42.21-2.18-7.87-.38-15.73-.74-23.6-1.18-.82-.05-1.79,1.15-.61,1.22,28.13,1.6,56.28,2.9,84.42,4.46,7.36.41,14.73.73,22.09,1.19.82.05,1.79-1.15.61-1.22h0Z"/>
  <path class="st3" d="M122.08,93.87c-.94.02-1.87.03-2.81.03-.49,0-.67,0-1.07,0-.37,0-.75-.01-1.12-.02-.41-.01-.94.11-1.13.52-.18.37.16.69.52.7,1.81.05,3.63.04,5.44,0,.37,0,.91-.28.96-.69.05-.44-.47-.55-.8-.54h0Z"/>
  <path class="st3" d="M14.23,101.71c-1.92-.11-3.84-.22-5.76-.33-.41-.02-.94.12-1.13.52-.18.37.16.68.52.7,1.92.11,3.84.22,5.76.33.41.02.94-.12,1.13-.52.18-.37-.16-.68-.52-.7h0Z"/>
  <path class="st3" d="M126.06,107.32c-13.96-.3-27.92-1.3-41.87-1.98-14.06-.68-28.11-1.42-42.16-2.16-7.89-.41-15.77-.82-23.66-1.24-.82-.04-1.79,1.16-.61,1.22,28.05,1.52,56.1,2.8,84.15,4.29,7.85.42,15.69.92,23.54,1.09.37,0,.99-.1,1.13-.52.13-.37-.12-.69-.52-.7h0Z"/>
  <path class="st3" d="M262.49,117.82c-18.31-1.34-36.62-2.58-54.93-3.82-5.3-.36-10.6-.77-15.9-1.15-.82-.06-1.79,1.14-.61,1.22,18.61,1.35,37.23,2.62,55.84,3.91,5,.35,9.99.69,14.99,1.06.82.06,1.79-1.14.61-1.22h0Z"/>
  <path class="st3" d="M144.92,93.67c-.69,8.41-1.33,16.83-1.87,25.26-.06.95,1.71.74,1.77-.11.54-8.43,1.17-16.85,1.87-25.26.08-.94-1.7-.74-1.77.11h0Z"/>
  <path class="st3" d="M149.65,38.93c-1.29,15.97-2.8,31.92-4.16,47.88-.08.94,1.7.74,1.77-.11,1.37-15.96,2.87-31.91,4.16-47.88.08-.94-1.7-.74-1.77.11h0Z"/>
  <path class="st3" d="M103.66,115.11c-3.58,3.04-4.61,8.16-2.23,12.27,1.73,2.98,5.22,5.38,8.66,5.72,4.19.41,8.59-1.54,10.5-5.4s1.85-8.64-.98-11.78c-3.07-3.41-8.13-4.23-12.35-2.84-.23.07-.68.32-.49.6s.92.03,1.14-.04c3.24-1.06,7.07.07,9.53,2.36,2.9,2.7,3.13,6.72,2.07,10.32s-4.37,6.33-8.32,5.94c-2.87-.28-5.79-2.24-7.49-4.55-2.81-3.81-2.33-9.34,1.33-12.43.72-.61-1-.49-1.36-.18h0Z"/>
  <path class="st3" d="M125.28,114.37c-.16,1.12-.39,2.24-.74,3.32l.45-.41c-.1.05-.2.09-.31.13.2-.07-.04,0-.06.01-.09.03-.18.05-.27.07-.18.05.18-.02-.02,0-.08,0-.35.08-.42.03.13,0,.14,0,.05,0-.03,0-.06,0-.09,0-.07,0-.13,0-.2-.02-.64-.06-1.25-.15-1.89-.14-.38,0-.91.28-.96.7-.05.45.47.57.8.56.05,0,.09,0,.14,0-.11,0-.11,0-.02,0,.07,0,.13,0,.2.01.13,0,.27.02.4.04.26.03.52.07.78.09.66.05,1.33,0,1.96-.21.22-.07.44-.15.64-.25.32-.15.47-.36.57-.68.12-.38.23-.77.33-1.16.19-.74.32-1.49.43-2.24.06-.42-.47-.59-.8-.56-.38.04-.9.26-.96.7h0Z"/>
  <path class="st3" d="M129.99,36.13c-.68,9.74-1.27,19.48-1.87,29.22-.3,4.95-.61,9.91-.92,14.86s-.77,9.66-.86,14.5c-.1,5.41-.57,10.77-.77,16.18-.03.89,1.73.64,1.76-.14.18-4.76.68-9.49.74-14.25s.45-9.63.76-14.45c.63-9.82,1.21-19.65,1.83-29.48.35-5.53.71-11.06,1.09-16.59.06-.89-1.71-.64-1.76.14h0Z"/>
  <path class="st3" d="M157.21,60.3c-.31,3.31-.62,6.61-.93,9.92-.13,1.44-.41,2.92-.39,4.37,0,.64.15,1.19.72,1.53.79.47,1.91.39,2.79.45,1.75.11,3.5.27,5.25.42,3.34.28,6.69.51,10.05.41.98-.03,1.34-1.29.16-1.26-3.09.1-6.17-.11-9.25-.37-1.52-.13-3.03-.26-4.55-.37-.7-.05-1.41-.08-2.11-.14-.29-.02-.8.01-1.06-.16-.43-.3-.23-1.19-.19-1.62.14-1.48.29-2.95.43-4.43.27-2.96.55-5.92.83-8.87.08-.88-1.69-.64-1.76.14h0Z"/>
  <path class="st3" d="M175.91,76.74c1.4-4.44,1.27-9.32,1.7-13.93.23-2.46.45-4.92.67-7.38.11-1.31.23-2.62.34-3.94.05-.65.16-1.32.16-1.97,0-.53-.21-1.08,0-1.6.16-.39-.14-.67-.53-.72-6.18-.72-12.39-1.03-18.59-1.47-.43-.03-1.12.17-1.18.69-.26,2.18-.46,4.36-.64,6.54-.07.89,1.7.64,1.76-.14.18-2.18.38-4.36.64-6.54l-1.18.69c6.2.43,12.41.75,18.59,1.47l-.53-.72c-.37.94-.09,1.92-.17,2.91-.11,1.31-.22,2.62-.33,3.94-.21,2.46-.43,4.92-.66,7.38s-.46,4.75-.6,7.13c-.16,2.51-.32,5.03-1.08,7.45-.3.95,1.43.92,1.66.19h0Z"/>
  <path class="st3" d="M260.6,70.01c-.83,10.48-1.18,20.99-2.31,31.45-.09.85,1.68.59,1.76-.15,1.13-10.46,1.48-20.97,2.31-31.45.07-.86-1.7-.59-1.76.15h0Z"/>
  <path class="st3" d="M232.73,68.54c-.18,5.91-.64,11.8-1.07,17.69-.34,4.62-.57,9.25-1.02,13.86-.09.88,1.68.64,1.76-.14.45-4.61.68-9.24,1.02-13.86.43-5.89.9-11.78,1.07-17.69.03-.9-1.74-.64-1.76.14h0Z"/>
  <path class="st3" d="M282.07,108.28c-1.11-2.03-3.04-2.54-5.24-2.66-2.39-.12-4.8-.04-7.18.15-.4.03-.89.28-.95.72-.41,3.1-.57,6.24-.91,9.35-.36,3.27-.51,6.55-.78,9.82s-.55,6.28-.47,9.45c.02.87-.18,2.31.29,3.1.42.71,1.56.86,2.28,1,1.45.28,2.94.26,4.42.26,1.77,0,3.54.13,5.31.2,3.26.13,6.51.21,9.77.3,1.5.04,3.02.16,4.53.1.96-.03,2.56.09,3.19-.77.66-.91.48-1.97.04-2.92-.62-1.32-1.35-2.59-2.03-3.89-3.45-6.57-6.86-13.16-10.15-19.81-.36-.73-2.01-.07-1.59.78,2.13,4.32,4.32,8.62,6.54,12.9,1.12,2.16,2.25,4.32,3.38,6.48.53,1.01,1.06,2.01,1.58,3.02.57,1.09,1.25,2.01.55,3.2l.9-.55c-2.43.35-4.86.17-7.3.1s-5.07-.14-7.61-.23-4.96-.25-7.45-.26c-1.39,0-2.87,0-4.21-.42-.89-.29-.64-1.19-.67-2.03-.19-4.92.43-9.82.78-14.72.17-2.48.4-4.95.72-7.41s.32-4.81.64-7.2l-.95.72c2-.15,4.01-.23,6.01-.19s3.89.2,4.95,2.15c.39.72,2.04.05,1.59-.78h0Z"/>
  <path class="st3" d="M241.03,40.06c-1.96,1.11-4.49,3.74-4.33,6.22.06.9.65,1,1.45,1.04,1.51.07,2.98.33,4.48.45,3.46.28,6.95.34,10.41.62,3.12.25,6.24.36,9.35.67.73.07,1.82-.96.65-1.08-5.75-.58-11.59-.96-17.37-1.16-1.19-.04-2.38-.1-3.56-.24-.7-.09-1.4-.2-2.1-.26-.36-.03-.72-.05-1.08-.06-.22,0-.54-.13-.41.04-.43-.55.3-1.93.55-2.41.7-1.35,1.73-2.46,3.05-3.21.32-.18.42-.51.13-.75-.31-.26-.95-.02-1.24.14h0Z"/>
  <path class="st3" d="M264.25,45.6c-.42-.7-.87-1.39-1.24-2.12-.28-.54-.54-1.04-.95-1.49-1.39-1.57-3.16-1.69-5.12-1.81-3.07-.17-6.07-.42-9.11-.88-.41-.06-.93,0-1.23.33-.23.25-.22.63.19.69,2.83.42,5.63.73,8.48.88,1,.05,2.03.04,3.01.2s1.7.7,2.3,1.43c.37.45.6.95.87,1.45.37.69.79,1.34,1.19,2.01.33.55,2.01-.03,1.61-.71h0Z"/>
  <path class="st3" d="M216.92,123.75c-2.19-.66-4.44-.71-6.71-.83-2.42-.13-4.84-.38-7.25-.55-4.88-.34-9.76-.62-14.63-1.06-.73-.07-1.82.98-.65,1.08,4.71.42,9.43.7,14.14,1.03,2.27.16,4.54.37,6.8.53,2.44.18,4.88.11,7.25.83.62.19,2.05-.72,1.04-1.02h0Z"/>
  <path class="st3" d="M160.34,28.63c10.39.54,20.77,1.24,31.14,2.05,2.63.21,5.27.43,7.9.64,2.1.17,4.57,0,6.35,1.31,2.64,1.93,3.97,6.32,3.17,9.43-.13.51,1.59.26,1.73-.26.66-2.58-.08-5.5-1.46-7.73-1.72-2.77-4.3-3.29-7.39-3.49-8.59-.56-17.17-1.37-25.77-1.94-4.86-.32-9.72-.6-14.59-.86-.35-.02-.99.02-1.23.33-.17.22-.3.48.14.5h0Z"/>
  <path class="st3" d="M197.53,40.96c-4.23-.41-8.5-.54-12.74-.88s-8.66-.63-13-.94-8.56-.65-12.84-.96-8.61-.46-12.86-1.13l.32.29c.1-1.29,0-2.45.47-3.69s1.24-2.55,2.1-3.61c1.67-2.06,4.36-1.74,6.73-1.63.35.02.99-.02,1.23-.33.17-.21.3-.48-.14-.5-2.7-.12-5.65-.33-8.02,1.24-1.26.84-2.08,2.14-2.82,3.43-.48.83-.9,1.71-1.12,2.65s-.09,1.78-.16,2.71c-.02.2.13.26.32.29,4.17.66,8.41.81,12.61,1.11s8.73.66,13.09.98,8.5.58,12.75.92,8.67.48,12.99.89c.34.03,1-.03,1.23-.33.18-.23.3-.46-.14-.5h0Z"/>
  <path class="st3" d="M204.49,81.56c.29-6.53.76-13.05,1.03-19.58s.5-13.28,1.23-19.89c.02-.19-.14-.28-.32-.29-1.51-.07-3.02-.2-4.52-.36-.34-.04-1,.03-1.23.33-.18.23-.29.46.14.5,1.5.16,3.01.29,4.52.36l-.32-.29c-.72,6.51-.96,13.06-1.22,19.6-.27,6.69-.75,13.38-1.05,20.08-.02.4,1.71.14,1.74-.47h0Z"/>
  <path class="st3" d="M269.99,106.1c-20.76-.99-41.45-3.09-62.21-4.09-1-.05-3.13.2-3.86-.63-.33-.38-.37-1.37-.43-1.86-.11-.82,0-1.67.05-2.49.17-2.94.38-5.87.57-8.81.04-.59-1.7-.23-1.73.26-.15,2.37-.32,4.73-.47,7.1-.07,1.08-.13,2.16-.19,3.23s.3,2.01.27,3.04c.03.08.09.13.17.15.69.28,1.36.62,2.1.72,1.12.15,2.28.12,3.41.17,2.14.11,4.28.23,6.43.36,4.45.28,8.89.6,13.34.92,8.76.64,17.53,1.3,26.29,1.88,5.05.33,10.11.63,15.16.88.35.02.99-.02,1.23-.33.17-.22.3-.48-.14-.5h0Z"/>
  <path class="st3" d="M21.47,46.06c.19-2.28.39-4.57.26-6.86-.02-.43-.41-.59-.8-.56-.31.02-.98.28-.96.7.13,2.29-.06,4.58-.26,6.86-.07.89,1.69.64,1.76-.14h0Z"/>
  <path class="st3" d="M35.68,67.58c-5.11-.26-10.22-.61-15.33-.83l.57.39c-.49-1.31-.44-2.57-.39-3.95s.12-2.88.2-4.31c.15-2.82.34-5.63.47-8.45.04-.89-1.72-.64-1.76.14-.14,2.93-.34,5.86-.49,8.79-.08,1.44-.14,2.88-.19,4.31s-.06,2.62.42,3.93c.09.23.32.38.57.39,5.11.22,10.22.58,15.33.83.4.02.97-.11,1.13-.53.15-.38-.14-.7-.53-.72h0Z"/>
  <path class="st3" d="M46.24,41.17c.06,4.67-.55,9.33-.85,13.98-.15,2.28-.29,4.55-.44,6.83-.14,2.07.03,4.57-.9,6.48l1.13-.53c-1.7-.29-3.55-.12-5.27-.18-.83-.03-1.78,1.21-.61,1.25,1.72.06,3.58-.11,5.27.18.4.07.95-.15,1.13-.53.9-1.85.82-4.06.95-6.08.16-2.36.31-4.72.46-7.08.31-4.82.95-9.64.89-14.47-.01-.9-1.77-.63-1.76.14h0Z"/>
  <path class="st3" d="M77.55,115.51c-3.63-.12-7.23-.63-10.86-.8-3.88-.17-7.76-.3-11.65-.44-.72-.02-1.83,1.04-.65,1.08,3.88.13,7.77.26,11.65.44,3.63.16,7.23.68,10.86.8.34.01,1-.12,1.14-.49s-.12-.57-.49-.59h0Z"/>
  <path class="st3" d="M46.93,39.78c-2.08.55-4.41-.1-6.54-.14s-4.36-.17-6.54-.31c-4.19-.26-8.38-.54-12.58-.42-.98.03-1.34,1.3-.16,1.26,4.54-.12,9.06.24,13.58.5,2.17.13,4.35.13,6.52.25s3.98.57,6.03.03c1.07-.28.76-1.47-.32-1.18h0Z"/>
  <path class="st3" d="M74.43,69.43c-3.06-.14-6.12-.3-9.18-.46-1.5-.08-3-.17-4.49-.25s-2.85-.1-4.23-.69l.37.5c.05-.59-.09-1.11-.23-1.68-.18-.71-.06-1.39,0-2.1.12-1.51.19-3.03.27-4.55.15-3.02.41-6.04.58-9.06.05-.87-1.71-.61-1.76.15-.17,3.02-.43,6.03-.58,9.06-.07,1.46-.15,2.91-.26,4.36-.05.62-.16,1.28-.12,1.9.05.71.4,1.35.34,2.07-.02.26.15.4.37.5,1.33.57,2.64.66,4.07.74,1.56.09,3.12.18,4.68.26,3.18.17,6.37.34,9.55.48.39.02.97-.11,1.13-.52.15-.38-.14-.68-.52-.7h0Z"/>
  <path class="st3" d="M57.68,48.2c.14-2.39.32-4.78.63-7.16l-1.19.68c8.53.36,17.07.7,25.59,1.3l-.56-.38c.26,1.19.43,2.09.36,3.33-.06,1.15-.13,2.3-.2,3.45-.15,2.38-.31,4.76-.49,7.14s-.4,4.71-.51,7.07.11,4.51-1.01,6.59l1.13-.52c-1.2-.04-2.4-.09-3.6-.13-.82-.03-1.79,1.17-.61,1.22s2.4.09,3.6.13c.43.01.92-.12,1.13-.52,1.11-2.05,1.03-4.22,1.1-6.49.08-2.5.35-5.01.53-7.5s.36-5.09.52-7.63c.08-1.31.18-2.63.22-3.94.03-.98-.23-1.72-.44-2.67-.05-.24-.35-.36-.56-.38-8.52-.6-17.05-.94-25.59-1.3-.42-.02-1.12.16-1.19.68-.31,2.38-.49,4.77-.63,7.16-.05.87,1.71.61,1.76-.15h0Z"/>
  <path class="st3" d="M109.78,71.09c-3.14-.16-6.28-.37-9.42-.56-1.45-.09-2.88-.12-4.33-.14s-2.83-.17-4.13-.88l.19.35c.04-5.36.39-10.71.75-16.05.05-.78-1.7-.46-1.75.19-.36,5.35-.72,10.69-.75,16.05,0,.16.04.27.19.35,2.57,1.43,5.63,1,8.45,1.17,3.38.2,6.76.43,10.14.6.36.02.97-.12,1.14-.49s-.14-.57-.49-.59h0Z"/>
  <path class="st3" d="M93.17,48.94c.12-1.99.22-3.98.3-5.97l-1.2.63c.9.12,1.72-.02,2.61-.11,1.14-.13,2.32.05,3.47.12,2.23.13,4.46.23,6.69.36,4.35.25,9.02-.1,13.22,1.2l-.35-.42c-.06,4.59-.53,9.15-.83,13.73-.15,2.25-.28,4.51-.41,6.76-.12,2.13.1,4.63-.88,6.58l1.14-.49c-1.4-.01-2.81-.04-4.21-.09-.72-.02-1.83,1.04-.65,1.08,1.4.05,2.8.08,4.21.09.37,0,.95-.12,1.14-.49.95-1.9.84-4.06.95-6.13.13-2.34.26-4.67.42-7,.31-4.73.81-9.46.87-14.21,0-.24-.13-.35-.35-.42-4.2-1.3-8.77-.96-13.12-1.23-2.31-.14-4.62-.24-6.94-.37-1.08-.06-2.17-.21-3.25-.19s-2.03.31-3.08.17c-.32-.04-1.18.19-1.2.63-.08,1.99-.18,3.98-.3,5.97-.05.78,1.71.46,1.75-.19h0Z"/>
  <path class="st3" d="M271.7,111.29c0,3.2.25,6.4.26,9.61.01,3.92.18,7.83.03,11.75-.02.4,1.72.13,1.74-.47.15-3.92-.01-7.83-.03-11.75-.01-3.21-.26-6.41-.26-9.61,0-.42-1.74-.13-1.74.47h0Z"/>
  <path class="st3" d="M275.19,111.12c.53,3.5,1.16,6.91,1.95,10.36.89,3.92,1.75,7.83,2.69,11.74.18.77,1.93.32,1.74-.47-.93-3.9-1.8-7.82-2.69-11.74-.78-3.46-1.42-6.86-1.95-10.36-.12-.77-1.86-.34-1.74.47h0Z"/>
  <path class="st3" d="M278.6,82.06c-.77-1.35-1.8-2.02-3.37-2.1l.54.31c-1.21-3.98-3.9-7.07-7.27-9.42-1.81-1.26-3.55-1.69-5.73-1.79-2.57-.11-5.13-.49-7.7-.64s-5.32-.23-7.98-.39-5.3-.62-7.96-.69-5.1.25-7.63,0c-1.29-.13-2.52-.47-3.79-.69-1.34-.23-2.69-.28-4.04-.29-1.44,0-2.89.04-4.33-.1-1.52-.14-3.01-.45-4.53-.56-3.12-.21-6.26-.09-9.37-.48-.73-.09-1.82.93-.65,1.08,2.55.32,5.12.3,7.69.4s5.09.64,7.65.72,5.27-.03,7.91.54c2.26.49,4.48.57,6.78.49,5.1-.18,10.15.61,15.24.83,2.58.11,5.16.22,7.73.46,1.11.11,2.22.28,3.34.34,1.18.07,2.38.03,3.53.35,2.22.61,4.34,2.57,5.88,4.22,1.63,1.75,2.8,3.79,3.5,6.07.07.22.34.3.54.31,1.19.06,1.85.76,2.41,1.73.32.55,2-.02,1.61-.71h0Z"/>
  <path class="st3" d="M274.13,98.96c2.29-.34,4.06-1.67,4.9-3.85.46-1.19.66-2.49.84-3.74.23-1.51.31-3.03.18-4.55-.05-.64-1.8-.26-1.74.47.2,2.41-.13,5-.8,7.32-.45,1.58-1.46,3.03-3.18,3.28-.33.05-.92.22-.98.63s.49.48.77.44h0Z"/>
  <path class="st3" d="M260.64,49.27c.08,1.66-.84,3.05-1.34,4.56s-.86,3.26-1.23,4.89c-.79,3.41-1.31,6.85-1,10.35.06.64,1.8.26,1.74-.47-.32-3.65.33-7.25,1.18-10.79.39-1.63.7-3.34,1.34-4.89.56-1.37,1.13-2.6,1.06-4.12-.03-.63-1.78-.26-1.74.47h0Z"/>
  <path class="st3" d="M278.14,111.95c2.48,5.98,5.03,11.93,7.52,17.9.2.48,1.9-.07,1.74-.47-2.49-5.97-5.04-11.92-7.52-17.9-.2-.48-1.9.07-1.74.47h0Z"/>
  <path class="st3" d="M96.34,117.15c1.76.08,3.51.31,5.26.4.41.02.89-.08,1.23-.33.26-.19.24-.44-.12-.45-1.76-.09-3.51-.32-5.26-.4-.42-.02-.89.08-1.23.33-.26.19-.24.44.12.45h0Z"/>
  <path class="st3" d="M83.08,112.42c3.49-.9,8.27-.12,10.44,3.04.95,1.39,1.37,3.33,1.45,5.01.11,2.2-.63,4.33-2.1,5.97-1.98,2.19-5.2,3.77-8.16,3.12-2.58-.56-4.7-2.66-5.77-5.02-1.6-3.51-1.27-8.54,1.93-11.06.93-.73-.45-1.44-1.17-.87-6.03,4.74-3.74,15.7,3.45,18.03,3.68,1.19,7.65-.28,10.41-2.82,3.33-3.06,4.03-7.94,2.19-12.01-2.11-4.66-8.48-5.81-13-4.66-1.08.28-.74,1.56.34,1.28h0Z"/>
  <path class="st3" d="M239.03,47.34c.28,3.29.85,6.54,1.22,9.81.41,3.57.45,7.16.13,10.74-.08.93,1.69.71,1.77-.12.31-3.57.27-7.16-.12-10.72s-.98-6.77-1.26-10.18c-.07-.83-1.81-.41-1.74.47h0Z"/>
  <path class="st3" d="M274.41,80.31c-1.51,1.36-1.09,2.98-1.14,4.81-.07,2.72-.4,5.42-.46,8.14-.03,1.18,0,2.35.11,3.53.06.65.23,1.32.21,1.97-.02.7-.37,1.29-.73,1.87-1.15,1.82-2.6,3.43-2.98,5.62-.15.86,1.63.63,1.76-.14.35-2.05,1.8-3.59,2.88-5.3.47-.75.87-1.54.85-2.44-.03-1.27-.31-2.53-.33-3.81-.04-2.4.19-4.79.34-7.19.07-1.13.16-2.27.12-3.41-.03-.98-.32-2.14.52-2.89s-.5-1.36-1.15-.78h0Z"/>
  <path class="st3" d="M141.92,110.62c-4.93-.84-9.93-.76-14.9-1.25-.41-.04-.96.12-1.13.54-.15.39.14.73.54.77,4.97.49,9.97.4,14.9,1.25.89.15,1.75-1.12.59-1.32h0Z"/>
  <path class="st3" d="M142.97,104.81c-4.99-.66-10.05-.38-15.02-1.16-.42-.07-.92,0-1.23.33-.23.25-.21.63.19.69,5.11.8,10.3.54,15.42,1.22.74.1,1.82-.93.65-1.08h0Z"/>
  <path class="st3" d="M171.71,105.01c-.46,4.76-.66,9.53-1.13,14.29-.53,5.39-1.26,10.75-1.61,16.16-.06.87,1.71.61,1.76-.15.34-5.41,1.07-10.77,1.61-16.16.47-4.76.67-9.53,1.13-14.29.08-.86-1.68-.61-1.76.15h0Z"/>
  <path class="st3" d="M156.74,118.01c4.82.3,9.58,1.01,14.38,1.42,5.25.45,10.5.66,15.73,1.27.9.11,1.75-1.2.58-1.34-5.24-.62-10.49-.82-15.73-1.27-4.8-.41-9.56-1.12-14.38-1.42-.9-.06-1.75,1.27-.58,1.34h0Z"/>
  <path class="st3" d="M226.54,66.54c.09-2.72.28-5.43.41-8.14.08-1.72-.3-3.33-2.13-3.9-1.45-.45-3.11-.36-4.61-.42s-3.56-.44-4.78.73c-.73.7-.99,1.71-1.07,2.69-.13,1.57-.24,3.15-.38,4.72-.08.94,1.7.74,1.77-.11.1-1.18.2-2.36.29-3.54.06-.85.02-1.83.41-2.61.31-.61.74-.59,1.36-.58.68.01,1.36.03,2.04.06,1.2.04,2.44.03,3.63.23.6.1,1.19.35,1.47.92.33.66.25,1.45.21,2.16-.13,2.64-.31,5.27-.4,7.91-.03.95,1.74.74,1.77-.11h0Z"/>
  <path class="st3" d="M155.58,112.42c-1.49,3.54-1.82,7.51-.77,11.22s3.54,6.95,6.59,9.32c4.93,3.83,11.32,5.04,16.94,1.91,4.9-2.72,8.68-7.17,9.97-12.7,1.17-5.07-.36-10.87-4.13-14.52-4.56-4.41-10.87-6.45-17.1-4.91-1.08.27-.77,1.41.31,1.14,9.4-2.33,19.47,5.1,19.56,14.88.05,5.51-3.04,10.89-7.53,13.99-2.36,1.63-4.98,2.84-7.91,2.76-2.67-.07-5.18-1.16-7.41-2.58-6.82-4.36-10.05-12.72-6.85-20.34.38-.9-1.37-.86-1.66-.17h0Z"/>
  <path class="st3" d="M162.59,104.65c-1.67,1-3.17,2.3-4.44,3.77-.25.29-.17.69.22.81.41.12.94,0,1.23-.33.27-.31.54-.61.83-.9.15-.16.31-.31.47-.46.08-.08.17-.15.25-.23.11-.1-.04.04.03-.03.04-.04.09-.08.13-.12.76-.66,1.57-1.25,2.43-1.77.3-.18.45-.65.1-.87-.4-.24-.88-.11-1.24.11h0Z"/>
  <path class="st3" d="M183.16,109.21c-7.74,6.1-15.56,12.08-23.62,17.75-.33.24-.14.4.14.5.35.13.95-.13,1.23-.33,8.07-5.67,15.88-11.65,23.62-17.75.74-.58-.99-.47-1.36-.18h0Z"/>
  <path class="st3" d="M160.94,106.91c2.92,4.05,6.31,7.67,9.39,11.59,3.24,4.14,6.43,8.32,9.68,12.45.29.37,1.95-.21,1.63-.62-3.24-4.14-6.43-8.32-9.68-12.45-3.07-3.92-6.47-7.54-9.39-11.59-.27-.37-1.94.19-1.63.62h0Z"/>
  <path class="st3" d="M154.26,110.75c-2.2-.13-4.39-.3-6.58-.54-.41-.05-.95.13-1.13.53s.16.68.53.72c2.19.24,4.38.41,6.58.54.41.02.94-.12,1.13-.53.18-.38-.16-.7-.53-.72h0Z"/>
  <path class="st3" d="M225.74,121.44c-.47,2.65-.86,5.31-1.25,7.97-.2,1.41-.45,2.82-.62,4.23s-.25,2.72-.54,4.05c-.19.84,1.59.63,1.76-.14.29-1.29.37-2.63.53-3.94.17-1.45.42-2.89.63-4.34.39-2.66.78-5.32,1.25-7.97.15-.86-1.63-.63-1.76.14h0Z"/>
  <path class="st3" d="M154.74,118.61c-2.94-.29-5.87-.33-8.82-.31-.4,0-.91.31-.95.73-.04.46.45.63.82.63,2.81-.02,5.57.01,8.37.29.42.04.95-.12,1.13-.55.17-.39-.15-.75-.55-.79h0Z"/>
  <path class="st3" d="M249.68,124.02c-.63,5.4-1.27,10.8-1.76,16.21-.08.87,1.69.61,1.76-.15.49-5.41,1.13-10.81,1.76-16.21.1-.86-1.67-.61-1.76.15h0Z"/>
  <path class="st3" d="M243.43,123.49c-3.44,2.25-5.38,6.52-4.14,10.55.64,2.08,1.96,3.89,3.43,5.46,1.39,1.48,3.17,2.31,5.15,2.71,3.62.73,7.32-.63,9.72-3.41s3.37-7.49,1.69-10.98c-2.2-4.58-7.43-6.61-12.27-5.76-1.1.19-.76,1.36.31,1.17,3.83-.67,7.84,1.13,9.87,4.44,1.72,2.8,1.52,7-.34,9.72-.85,1.24-1.97,2.15-3.25,2.93s-2.96.9-4.42.74c-3.57-.39-6.29-3.2-7.72-6.36-1.73-3.82-.38-8.16,3.12-10.44.32-.21.41-.64.1-.89-.35-.28-.92-.11-1.25.11h0Z"/>
  <path class="st3" d="M42.21,126.12c.28-2.19.46-4.39.58-6.6.05-.93-1.72-.71-1.77.12-.13,2.21-.3,4.4-.58,6.6-.12.92,1.66.71,1.77-.12h0Z"/>
  <path class="st3" d="M35.43,111.14c-2.91,2.23-4.79,6.13-3.79,9.81.8,2.96,3.22,5.34,6.05,6.39,1.96.73,4.02.94,6.07.53s4.27-1.14,5.87-2.59c2.77-2.52,3.31-6.94,1.97-10.31-1.95-4.91-8.5-6.93-13.27-5.34-1.04.35-.75,1.53.31,1.17,3.75-1.25,9.05.28,10.92,3.96,1.39,2.72,1.38,6.52-.49,9.04-1.15,1.55-2.87,2.17-4.66,2.66s-3.5.46-5.28-.13c-2.65-.87-4.83-2.93-5.68-5.61-1.02-3.22.55-6.81,3.13-8.8.94-.72-.47-1.3-1.15-.78h0Z"/>
  <path class="st3" d="M186.23,53.15c.13-1.64.34-3.26.78-4.86l-1.18.69c3.4.21,6.81.33,10.17,1.02l-.58-.56c.05,4.79-.68,9.62-1.07,14.39s-.85,9.72-1.33,14.58l1.18-.69c-3.41-.25-6.88-.08-10.21-.96l.38.51c.1-6.24.89-12.43,1.53-18.63.09-.88-1.68-.64-1.76.14-.64,6.2-1.44,12.39-1.53,18.63,0,.24.13.45.38.51,3.48.92,7.05.78,10.61,1.05.42.03,1.13-.17,1.18-.69.49-4.85.93-9.71,1.33-14.58s1.12-9.6,1.07-14.39c0-.36-.26-.49-.58-.56-3.35-.68-6.76-.81-10.17-1.02-.5-.03-1.04.18-1.18.69-.44,1.59-.65,3.21-.78,4.86-.07.89,1.7.64,1.76-.14h0Z"/>
  <path class="st3" d="M235.84,126.11c.1,0,.21-.01.31-.01.05,0,.1,0,.14,0,.18,0-.24,0-.03,0,.24,0,.48.02.72.04.75.07,1.5.17,2.25.28.39.05.97-.14,1.13-.52s-.15-.65-.52-.7c-1.27-.18-2.55-.38-3.84-.31-.22.01-.48.11-.65.24-.13.1-.3.27-.31.45-.03.44.45.56.8.54h0Z"/>
  <path class="st3" d="M222.46,120.95c3.26-.84,7.3-.07,9.59,2.53,1.26,1.43,1.65,3.3,1.83,5.16.16,1.7.03,3.52-.67,5.1-1.38,3.11-4.84,4.83-8.17,4.47s-6.31-2.5-7.65-5.52c-1.67-3.78-1.12-8.31,2.54-10.66.32-.21.42-.62.1-.87-.35-.27-.92-.09-1.24.11-3.78,2.43-4.87,6.87-3.47,11.01,1.28,3.79,4.69,6.46,8.61,7.08s8.04-.94,10.24-4.2c.99-1.47,1.45-3.22,1.52-4.98.09-2.18-.21-4.77-1.42-6.64-2.49-3.84-7.95-4.81-12.12-3.74-1.07.28-.77,1.42.31,1.14h0Z"/>
  <path class="st3" d="M7.52,111.56c-.69-.17-1.4-.29-2.08-.52l.35.28c-.47-2.62-.29-5.25-.13-7.89s-.03-5.23.06-7.85.42-5.12.66-7.68c.25-2.7.39-5.42.57-8.13.72-10.7,1.44-21.4,2.27-32.09.47-6.04.99-12.07,1.32-18.11.04-.78-1.71-.46-1.75.19-.59,10.85-1.59,21.69-2.36,32.53-.38,5.39-.76,10.78-1.13,16.18s-.95,10.73-1.28,16.1c-.18,2.86.08,5.71-.09,8.58s-.4,5.77.11,8.64c.03.16.22.24.35.28.67.22,1.39.35,2.08.52.62.15,2.05-.78,1.04-1.02h0Z"/>
  <path class="st3" d="M13.87,108.93c1.86-.47,3.73-.11,5.58.26,1.74.35,3.15,1.21,4.1,2.74,1.63,2.63,1.43,5.87.25,8.63s-4.22,4.58-7.34,4.15c-2.66-.36-5.11-2.22-6.49-4.48-2.02-3.33-1.55-8.03,1.75-10.34.31-.22.42-.63.1-.89-.34-.27-.93-.11-1.25.11-3.21,2.25-4.34,6.41-3.06,10.06,1.13,3.21,4.07,5.81,7.38,6.61,3.58.86,7.67-.5,9.77-3.58,1.99-2.92,2.44-7.08.89-10.26-.94-1.94-2.58-3.29-4.68-3.81-2.39-.6-4.91-.98-7.33-.36-1.08.27-.76,1.45.31,1.17h0Z"/>
  <path class="st3" d="M110.93,113.67c-.51,5.84-1.1,11.67-1.58,17.5-.08.94,1.7.74,1.77-.11.49-5.84,1.08-11.67,1.58-17.5.08-.94-1.69-.74-1.77.11h0Z"/>
  <path class="st3" d="M86.46,112.05c-.47,2.81-.54,5.68-.84,8.51s-.54,5.65-.75,8.48c-.07.95,1.71.74,1.77-.11.21-2.83.45-5.65.75-8.48s.36-5.7.84-8.51c.15-.92-1.63-.73-1.77.11h0Z"/>
  <path class="st3" d="M41.57,117.04c-1.81-1.62-3.6-3.28-5.43-4.88-.63-.55-2.11.36-1.33,1.05,1.83,1.61,3.61,3.26,5.43,4.88.62.55,2.1-.36,1.33-1.05h0Z"/>
  <path class="st3" d="M41.88,110.45c-.13,2.91-.27,5.81-.57,8.71-.06.58,1.68.24,1.73-.26.31-2.96.45-5.94.59-8.91.02-.39-1.71-.14-1.74.47h0Z"/>
  <path class="st3" d="M118.62,127.6c-3.84-3.05-7.78-5.99-11.26-9.45-.37-.37-2,.26-1.63.64,3.48,3.47,7.43,6.4,11.26,9.45.42.34,2.01-.34,1.63-.64h0Z"/>
  <path class="st3" d="M16.87,108.55c-.47,5.09-.93,10.19-1.49,15.27-.1.92,1.67.71,1.77-.12.56-5.08,1.02-10.18,1.49-15.27.09-.93-1.69-.71-1.77.12h0Z"/>
  <path class="st3" d="M9.53,111.1c1.89,1.77,3.87,3.45,5.8,5.17,2.13,1.89,4.25,3.77,6.59,5.4.52.36,2.1-.39,1.37-.9-2.31-1.6-4.38-3.47-6.48-5.33-1.9-1.68-3.82-3.32-5.68-5.05-.49-.46-2.13.22-1.61.71h0Z"/>
  <path class="st3" d="M79.75,115.21c1.06,1.22,2.23,2.34,3.48,3.36.14.12.42.14.59.12.22-.02.48-.1.65-.24.3-.24.44-.59.1-.87-.3-.24-.59-.49-.87-.74-.04-.04-.08-.07-.12-.11l-.05-.04s.04.03,0,0c-.07-.07-.14-.13-.21-.2-.15-.14-.29-.28-.44-.42-.53-.52-1.05-1.07-1.54-1.63-.28-.32-.83-.29-1.18-.11-.27.14-.71.53-.42.87h0Z"/>
  <path class="st3" d="M242.47,125.64c1.44,1.23,2.89,2.44,4.31,3.69.9.79,1.73,1.69,2.69,2.41,2.08,1.57,4.17,3.17,6.04,5,.48.47,2.12-.2,1.61-.71-1.9-1.85-4.04-3.49-6.15-5.09-.92-.69-1.71-1.56-2.57-2.32-1.42-1.25-2.87-2.46-4.31-3.69-.32-.27-.8-.22-1.16-.06-.2.09-.77.49-.45.77h0Z"/>
  <path class="st3" d="M84.56,119.44c2.39,2.28,4.83,4.49,7.33,6.64.56.48,2.09-.34,1.35-.98-2.41-2.08-4.78-4.22-7.08-6.42-.32-.3-.79-.29-1.18-.11-.24.12-.74.56-.42.87h0Z"/>
  <path class="st3" d="M41.66,119.12c1.82,1.59,3.54,3.27,5.28,4.95.38.37,2-.27,1.63-.64-1.73-1.68-3.45-3.37-5.28-4.95-.27-.24-.85-.08-1.14.04-.15.06-.76.36-.49.6h0Z"/>
  <path class="st3" d="M267.93,127.28c-2.46-.14-4.93-.22-7.4-.39-.42-.03-.89.07-1.23.33-.25.2-.23.48.14.5,2.46.16,4.93.24,7.4.39.42.02.89-.06,1.23-.33.25-.2.24-.48-.14-.5h0Z"/>
  <path class="st3" d="M218.97,123.38c2.16,1.9,3.76,4.33,5.86,6.29,2.22,2.07,4.72,3.82,7.12,5.66.66.51,2.15-.42,1.33-1.05-2.4-1.85-4.9-3.59-7.12-5.66-2.1-1.96-3.7-4.39-5.86-6.29-.62-.55-2.11.36-1.33,1.05h0Z"/>
  <path class="st3" d="M32.71,113.24c-1.8-.09-3.6-.22-5.4-.3-.41-.02-.94.12-1.13.53-.17.37.16.7.53.72,1.8.08,3.6.21,5.4.3.41.02.94-.12,1.13-.53.18-.37-.16-.7-.53-.72h0Z"/>
  <path class="st3" d="M280.78,134.24c-2.11-.06-4.21-.18-6.3-.46-.92-.13-1.83-.28-2.77-.3-.75-.02-1.5.03-2.26.03-.39,0-.94.11-1.14.49-.18.35.16.59.49.59.75,0,1.5-.05,2.26-.03.94.02,1.84.18,2.77.3,2.09.28,4.2.4,6.3.46.38.01.95-.12,1.14-.49s-.16-.58-.49-.59h0Z"/>
  <path class="st3" d="M291.76,134.57c-2.07-.17-4.15-.22-6.23-.25-.4,0-.93.12-1.14.49-.2.35.17.58.49.59,2.08.03,4.16.08,6.23.25.39.03.94-.14,1.14-.49s-.18-.56-.49-.59h0Z"/>
  <path class="st3" d="M217.78,133.8c5.62-2.37,10.94-5.43,15.82-9.08.94-.71-.45-1.38-1.17-.85-4.77,3.57-9.95,6.53-15.44,8.85-.35.15-.64.58-.4.93.26.38.84.3,1.19.15h0Z"/>
  <path class="st3" d="M242.01,136.07c2.49-1.48,5.02-2.91,7.52-4.36s4.91-2.75,7.22-4.32c.28-.19.46-.52.13-.75s-.95-.05-1.24.14c-2.31,1.58-4.8,2.92-7.22,4.32s-5.03,2.89-7.52,4.36c-.3.18-.45.53-.13.75.34.24.93.04,1.24-.14h0Z"/>
  <path class="st3" d="M117.59,117.6c-1.23.66-2.35,1.55-3.55,2.27s-2.41,1.5-3.6,2.28c-2.19,1.44-4.41,2.8-6.76,3.99-.26.13-.69.43-.45.77.23.31.88.2,1.16.06,2.42-1.23,4.73-2.62,7-4.11,1.17-.76,2.33-1.53,3.52-2.25.75-.45,1.51-.88,2.23-1.38.51-.35,1-.73,1.54-1.02.3-.16.45-.54.13-.75-.36-.24-.91-.03-1.24.14h0Z"/>
  <path class="st3" d="M92.33,116.7c-4.71,2.7-9.39,5.47-14.26,7.87-.24.12-.5.34-.19.52s.95-.07,1.22-.2c4.87-2.41,9.55-5.18,14.26-7.87.23-.13.51-.34.19-.52-.29-.17-.96.06-1.22.2h0Z"/>
  <path class="st3" d="M22.54,112.72c-.21.13-.27.17-.59.34-.28.16-.57.31-.85.46-1.11.6-2.19,1.24-3.28,1.88-2.83,1.67-5.87,3.03-8.88,4.35-.32.14-.65.54-.41.89s.85.27,1.18.13c3.09-1.36,6.2-2.77,9.11-4.49,1.61-.95,3.29-1.79,4.87-2.78.33-.2.41-.65.1-.89-.36-.28-.91-.1-1.25.11h0Z"/>
  <path class="st3" d="M47.81,114.46c-4.7,2.77-9.49,5.34-14.36,7.8-1.06.54-.11,1.45.77,1.01,4.87-2.46,9.66-5.03,14.36-7.8,1.01-.6.09-1.51-.77-1.01h0Z"/>
  <path class="st3" d="M219.34,53.23c.09-1.17.18-2.34.27-3.51l.18-2.28c.02-.22.03-.44.05-.65,0-.11.08-.3.06-.38,0,.02-.25.01,0,.02.03,0,.06,0,.09,0,.15,0,.31,0,.46,0h1.23c.14.01.28,0,.42.01.03,0,.06,0,.09,0-.13-.03-.02,0,.04.07.18.19.25.37.24.62-.04,1.26-.19,2.53-.28,3.79s-.19,2.58-.29,3.87c-.07.89,1.7.64,1.76-.14.19-2.56.47-5.13.57-7.69.05-1.18-.87-1.76-1.96-1.77-.73,0-1.46-.04-2.19-.02-1.01.03-1.92.7-2.01,1.74-.06.62-.1,1.24-.14,1.87-.12,1.53-.24,3.06-.35,4.59-.07.89,1.7.64,1.76-.14h0Z"/>
</svg>