<svg xmlns="http://www.w3.org/2000/svg" xmlns:xlink="http://www.w3.org/1999/xlink" id="_レイヤー_1" viewBox="0 0 300 150"><defs><pattern id="_6_lpi_40_" width="72" height="72" x="0" y="0" data-name="6 lpi 40%" patternTransform="rotate(-40 -13377.101 3348.435)scale(.24)" patternUnits="userSpaceOnUse" viewBox="0 0 72 72"><path d="M0 0h72v72H0z" style="fill:none"/><path d="M71.75 66h72.5M71.75 42h72.5M71.75 18h72.5M71.75 54h72.5M71.75 30h72.5M71.75 6h72.5M-.25 66h72.5M-.25 42h72.5M-.25 18h72.5M-.25 54h72.5M-.25 30h72.5M-.25 6h72.5M-72.25 66H.25M-72.25 42H.25M-72.25 18H.25M-72.25 54H.25M-72.25 30H.25M-72.25 6H.25" class="st4"/></pattern><pattern xlink:href="#_6_lpi_40_" id="_6_lpi_40_1" data-name="6 lpi 40%" patternTransform="rotate(-40 -13377.075 3347.978)scale(.24)"/><pattern xlink:href="#_6_lpi_40_" id="_6_lpi_40_2" data-name="6 lpi 40%" patternTransform="rotate(-40 -13377.075 3347.978)scale(.24)"/><pattern xlink:href="#_6_lpi_40_" id="_6_lpi_40_3" data-name="6 lpi 40%" patternTransform="rotate(-41.15 -13153.75 3105.4)scale(.24)"/><pattern xlink:href="#_6_lpi_40_" id="_6_lpi_40_4" data-name="6 lpi 40%" patternTransform="rotate(-41.15 -13153.75 3105.4)scale(.24)"/><pattern xlink:href="#_6_lpi_40_" id="_6_lpi_40_5" data-name="6 lpi 40%" patternTransform="rotate(-41.15 -13153.75 3105.4)scale(.24)"/><pattern xlink:href="#_6_lpi_40_" id="_6_lpi_40_6" data-name="6 lpi 40%" patternTransform="rotate(-41.15 -13153.734 3104.95)scale(.24)"/><pattern xlink:href="#_6_lpi_40_" id="_6_lpi_40_7" data-name="6 lpi 40%" patternTransform="rotate(-41.15 -13153.75 3105.4)scale(.24)"/><pattern xlink:href="#_6_lpi_40_" id="_6_lpi_40_8" data-name="6 lpi 40%" patternTransform="rotate(-41.15 -13153.75 3105.4)scale(.24)"/><style>.st1,.st2,.st3,.st4,.st5{fill:none}.st6{fill:#ceb372}.st7{fill:#e62923}.st8{fill:#292524}.st1,.st10,.st2,.st3,.st5{stroke-linecap:round;stroke-linejoin:round}.st1,.st10{stroke:#1c1917}.st2,.st5{stroke:#292524}.st18{fill:#fff}.st10,.st19{fill:url(#_6_lpi_40_)}.st3{stroke:#fff}.st4{stroke:#231815;stroke-width:4.8px}.st20{fill:#191919}.st5{stroke-width:1.5px}</style></defs><path d="m1503.63 670.01 53.13 4.68-2.04 24.71 9.93.59.66-10.91 2.05-1.15 1.89-1.17.07-7.36 4.55.35-.97 8.43 2.7 1.02.07 9.82 14.5 2.9s.83-6.64.55-9.45c-.28-2.8-1.09-11.53-1.09-11.53s1.59-2.69 3.04-2.41 12.35 1.14 12.35 1.14l6.74.66-.87 2.88-2.82 6.98-1.11 10.38-.24.96.04 1.64s5.35.57 8.62 2.78c3.57 2.41 5.98 7.49 5.98 7.49l2.43.35s1.19-.56 2 1.62.74 9.71.74 9.71l-1.78 4.12-1.73 1.18-2.76 4.04-2.56 4.08 9.11.69 16.02 29.82-1.11 1.72-24.76-1.39-2.19-1.31.54-9.28-8.48-.32s-5.53-4.67-7.97-4.86-7.83 1.86-7.83 1.86l-.6 1.43-7.16-.54s-2.41-4.93-5.65-5.34-6.97-.86-8.38.51-3.85 3.31-3.85 3.31l-26.92-3.02s.59-5.68-1.01-8.26-6.29-9.8-13.62-10.19-14.04 6.13-14.04 6.13c-2.32 2.6-2.98 9.1-2.98 9.1l-10.47.02 7.27-78.62Z" class="st18"/><path d="m1537.56 681.63.15-.54c3.29.25 6.55.38 9.81 1.12.01 3.29-.54 6.47-.83 9.67-.55 6.1-1.18 12.2-1.89 18.29-3.36-.32-6.76-.14-10.05-1.11.16-6.03 1.03-12 1.74-17.98.36-3.1.24-6.26 1.07-9.45" class="st19"/><path d="m1457.39 654.23-60.2-4.24-25.5-.3c-2.42 1.78-4 1.01-5.6 4.81s-1.67 4.78-1.67 4.78l2.55.85-5.67 79.07 3.53.92 17.57 1.33 7.16.54 20.82 1.58 21.14 1.6 17.29.66 7.13.87 21.24.3 7.29-78.95 4.3-.66s-.61-4.95-2.08-7.03c-1.48-2.07-7.19-4.47-7.19-4.47l-22.12-1.68Z" class="st18"/><path d="M1403.49 672.17c.02 3.97-.56 7.91-.88 11.85-.32 3.92-.61 7.85-.96 11.78-.09 1.03-.2 1.96-.71 2.88-.21-.05-.42-.08-.67-.09-7.79-.18-15.55-.97-23.31-1.41-.3-.79-.43-1.5-.4-2.31.18-5.03.67-10.03.95-15.05.19-3.26.76-6.5.61-9.78M1413.43 672.44s.01-.08.02-.12c7.8.24 15.55.46 23.24.93.09.76.39 1.22.33 1.92-.52 5.97-1.21 11.92-1.86 17.88-.25 2.31.03 4.69-1.27 6.87-6.9-.15-13.78-.46-20.66-.79-.79-.04-1.45-.24-2.13-.56.16-.8-.33-1.57-.22-2.4.45-3.46.64-6.96 1.05-10.42.52-4.38.74-8.78 1.49-13.32ZM1446.15 700.9c-.15-.07-.3-.15-.44-.24.17-8.6 1.24-17.15 1.69-25.97 1.24.26 2.26-.22 3.49-.11 3.66.33 7.34.49 11 .8 3.61.31 7.28 0 10.8 1.2-.1 4.2-.59 8.37-.94 12.55-.31 3.73-.56 7.46-.82 11.19-.06.89-.27 1.73-.72 2.51-5.93-.12-11.83-.68-17.74-1.1-2.12-.15-4.3.16-6.32-.83" class="st18"/><path d="m1537.56 681.63.15-.54c3.29.25 6.55.38 9.81 1.12.01 3.29-.54 6.47-.83 9.67-.55 6.1-1.18 12.2-1.89 18.29-3.36-.32-6.76-.14-10.05-1.11.16-6.03 1.03-12 1.74-17.98.36-3.1.24-6.26 1.07-9.45" class="st19"/><path d="M1592.85 712.43c.14-.18.37-.29.62-.27l7.56.57c.25.02.46.16.57.36l3.17 5.06c.2.3.14.71-.1.94l-7.92 7.51c-.17.15-.37.23-.59.21s-.4-.13-.55-.3l-6.7-8.62c-.23-.27-.2-.68.04-.95l3.89-4.52Z" class="st7"/><path d="M1365.73 748.48a8.84 8.84 0 0 1-1.19-4.05c-.03-.69.03-1.22.06-1.42.08-.57.32-2.22 1.55-3.76 1.74-2.17 4.3-2.64 5.15-2.75 1.27-.16 2.25.02 3.59.26 1.66.3 2.78.51 3.91 1.31 1.58 1.13 2.16 2.71 2.42 3.42.91 2.5.28 4.65 0 5.64-.32 1.1-.83 2.84-2.55 4.28-.44.37-2.24 1.79-4.96 1.83-3.79.06-6.42-2.6-7.33-3.79-.35-.45-.61-.89-.65-.97M1389.75 751.21a8.9 8.9 0 0 1-1.13-4.17c-.02-.71.05-1.26.08-1.47.09-.59.36-2.3 1.62-3.91 1.78-2.27 4.37-2.8 5.23-2.92 1.28-.19 2.27-.02 3.61.22 1.67.29 2.79.48 3.91 1.29 1.57 1.14 2.13 2.77 2.38 3.5.88 2.56.21 4.8-.09 5.82-.34 1.14-.88 2.95-2.63 4.46-.45.39-2.28 1.88-5.02 1.96-3.81.12-6.42-2.59-7.32-3.8-.34-.46-.6-.91-.64-.99ZM1432.44 753.47a8.9 8.9 0 0 1-1.13-4.17c-.02-.71.05-1.26.08-1.47.09-.59.36-2.3 1.62-3.91 1.78-2.27 4.37-2.8 5.23-2.92 1.28-.19 2.27-.02 3.61.22 1.67.29 2.79.48 3.91 1.29 1.57 1.14 2.13 2.77 2.38 3.5.88 2.56.21 4.8-.09 5.82-.34 1.14-.88 2.95-2.63 4.46-.45.39-2.28 1.88-5.02 1.96-3.81.12-6.42-2.59-7.32-3.8-.34-.46-.6-.91-.64-.99ZM1456.05 756.44a9.76 9.76 0 0 1-1.31-4.55c-.03-.78.04-1.37.07-1.59.09-.64.37-2.5 1.74-4.23 1.95-2.45 4.81-2.98 5.77-3.11 1.42-.19 2.52.01 4.01.28 1.86.33 3.11.56 4.36 1.46 1.76 1.26 2.4 3.04 2.69 3.84 1.01 2.8.3 5.22-.02 6.33-.36 1.23-.94 3.2-2.86 4.81a9.04 9.04 0 0 1-5.55 2.07c-4.23.07-7.16-2.9-8.18-4.23-.39-.51-.68-1-.73-1.08ZM1509.48 756.12c-1.62-2.9-1.97-5.71-2.01-7.48-.03-1.28.1-2.27.15-2.64.15-1.05.65-4.14 2.91-7.03 3.2-4.09 7.83-5.04 9.38-5.27 2.29-.34 4.06-.04 6.47.37 2.99.51 5 .85 7.01 2.31 2.81 2.04 3.81 4.96 4.26 6.28 1.57 4.61.37 8.62-.19 10.47-.61 2.05-1.59 5.31-4.73 8.02-.81.7-4.1 3.38-9 3.54-6.83.22-11.49-4.63-13.1-6.81-.61-.83-1.08-1.64-1.15-1.77ZM1565.96 764.17a9.6 9.6 0 0 1-1.36-4.47c-.04-.76.03-1.34.05-1.56.08-.62.34-2.45 1.69-4.12 1.92-2.38 4.77-2.87 5.73-2.98 1.41-.17 2.52.04 4.02.32 1.86.35 3.11.58 4.38 1.48 1.78 1.26 2.44 3 2.74 3.79 1.04 2.76.36 5.12.05 6.2-.35 1.2-.9 3.12-2.81 4.68-.49.4-2.49 1.94-5.52 1.96-4.23.02-7.2-2.92-8.23-4.24-.39-.5-.69-.99-.74-1.07ZM1589.11 767.24a9.6 9.6 0 0 1-1.36-4.47c-.04-.76.03-1.34.05-1.56.08-.62.34-2.45 1.69-4.12 1.92-2.38 4.77-2.87 5.73-2.98 1.41-.17 2.52.04 4.02.32 1.86.35 3.11.58 4.38 1.48 1.78 1.26 2.44 3 2.74 3.79 1.04 2.76.36 5.12.05 6.2-.35 1.2-.9 3.12-2.81 4.68-.49.4-2.49 1.94-5.52 1.96-4.23.02-7.2-2.92-8.23-4.24-.39-.5-.69-.99-.74-1.07Z" class="st18"/><path d="M1486.74 668.03c2.6.32 3.28-.72 2.72-3.3-1.24-5.76-5.37-8.14-10.63-9.03-12.83-2.2-25.79-3.43-38.73-4.74-8.37-.85-16.74-1.58-25.13-2.12-7.48-.48-14.97-.85-22.47-.92-6.16-.05-12.33-.27-18.49.42-1.37.15-2.71.38-4 .76-4.13 1.22-7.06 6.19-5.7 10.29 3.5 1.47 7.23.71 10.84 1 13.66 1.08 27.34 1.99 41.01 2.85 13.55.86 27.09 1.79 40.63 2.68 8.56.56 17.14 1.05 25.7 1.82" class="st6"/><path d="M1475.11 724.78c-6.41.04-8.33-.32-14.72-.73-8.28-.53-16.57-1.06-24.84-1.71-8.65-.68-17.32-1.19-25.97-1.76-8.68-.57-17.36-1.19-26.05-1.72-5.21-.32-10.42-.64-15.63-.99M1478.55 737.83c-8.86-.31-17.68-1.08-26.53-1.62-16.47-1.01-32.93-2.07-49.39-3.18-12.55-.85-25.1-1.64-37.64-2.55M1614.67 750.23c-7.84-.7-14.54-1.26-22.39-1.91-10.98-.92-21.96-1.88-32.94-2.75-6.31-.5-12.61-1.08-18.92-1.63-.9-.08-1.73.02-2.58.13" class="st2"/><path d="M1504.4 674.11c-2.66 24.87-5.81 49.67-8 74.57l-.39-.46 7.52.57c.54.03.49.88-.06.84l-7.52-.56a.427.427 0 0 1-.39-.46c1.68-24.96 4.32-49.84 6.46-74.73.15-1.54 2.53-1.39 2.39.23ZM1472.45 748.03c-1.93-4.37-7.9-6.48-12.26-4.48-7.05 3.03-6.89 12.24-.41 15.83 3.35 2.32 8.41 1.81 10.98-1.4 1.97-2.72 2.97-6.73 1.69-9.95m1.14-.52c1.66 3.68 1.04 8.42-1.48 11.59-2.69 3.22-7.59 4.17-11.33 2.39-8.17-3.66-9.57-14.74-.91-18.68 4.84-2.23 11.31-.21 13.73 4.69ZM1485.21 672.6c-1.04 12.48-3.69 44.07-4.75 56.11-.56 5.54-1.1 13.27-1.98 18.72-.02.13-.1.23-.21.28-.55.28-1.19.46-1.83.47-.66 0-.68-.98-.02-.99.5.04.98-.04 1.47-.24 1.48-19.27 3.88-53.59 5.22-74.52.1-1.36 2.22-1.28 2.11.17Z" class="st8"/><path d="M1526.65 708.27c1.12-3.22 1.07-6.63 1.43-9.96.58-5.38 1.15-10.76 1.66-16.14.05-.55-.32-1.08.07-1.71-5.96-.79-11.9-1.16-17.95-1.67-.67 4.99-.97 9.78-1.53 14.54-.44 3.81-.8 7.63-1.24 11.45-.25 2.19-.14 2.39 2.04 2.55 5.08.37 10.13 1.16 15.24 1.05" class="st19"/><path d="M1526.65 708.27c1.12-3.22 1.07-6.63 1.43-9.96.58-5.38 1.15-10.76 1.66-16.14.05-.55-.32-1.08.07-1.71-5.96-.79-11.9-1.16-17.95-1.67-.67 4.99-.97 9.78-1.53 14.54-.44 3.81-.8 7.63-1.24 11.45-.25 2.19-.14 2.39 2.04 2.55 5.08.37 10.13 1.16 15.24 1.05" class="st1"/><path d="M1610.23 705.34c-1.08 11.48-1.25 16.55-2.66 27.99M1583.32 703.72c-.33 7.61-1.17 12.64-1.75 20.23-.29 3.71-.28 4-.7 7.69" class="st2"/><path d="M1632.19 747.83c-.73-1.51-1.45-3.03-2.17-4.55-1.49-3.16-1.52-4.24-4.16-4.79-1.79-.37-5.93-.77-7.8-.65-.37 2.4-.84 5.21-1.21 7.47-.71 4.43-.86 8.94-1.38 13.4-.35 3.02-.47 6.07-.33 9.1.04.94.03 1.06.95 1.36.72.23 1.47.35 2.22.43 1.5.15 3.01.06 4.51.17 5.35.37 10.72.52 16.07.78 1.15.06 2.26-.03 3.27-.17.76-1.06.31-1.95-.09-2.75-3.34-6.58-6.67-13.16-9.87-19.8Z" class="st8"/><path d="M1611.71 682.59c-.42.21-23.95-2.27-24.12-2.46-.63-.72.84-4.49 3.81-6.01 3.03-1.55 5.09-.19 11.18.34.25.02 1.57.09 4.21.28.99.07 1.78.14 2.59.66.77.5 1.29 1.23 1.44 1.46.28.42.23.48.68 1.3.66 1.21.84 1.21.96 1.67.22.82.39 2.19-.75 2.76" class="st6"/><path d="M1563.34 754.36c-5.73.41-12.13-.2-17.85-.47-1.98-.13-3.97-.3-5.96-.53a1.14 1.14 0 0 1-1-1.27c.07-.62.62-1.06 1.24-1l5.9.51c3.43.28 8.38.8 11.85 1.17.52.03 7.07.93 5.83 1.6Z" class="st8"/><path d="M1558.27 675.06c1.51.1 2.74-1.18 2.58-2.68-.28-2.7-1.7-5.66-3.61-6.8-1.65-.98-3.65-.94-5.47-1.12-14.54-1.43-29.09-2.66-43.67-3.53-2.49-.15-5.31-.19-7.03 2.24-1.31 1.85-2.61 3.83-2.41 6.25.02.22 0 .41-.02.59 2.61.47 5.23.68 7.88.89 7.47.59 14.94 1.35 22.41 1.94 5.34.42 10.66 1.05 16.01 1.35l13.33.86Z" class="st6"/><path d="M1554.84 702.75c-.21 2.55-.4 5.11-.51 7.67-.29 6.66-1.42 13.28-1.42 19.94 0 1.62.8 3.13 2.31 3.13 9.25 0 18.45 1.38 27.67 2.18 11.51.99 19.58 1.94 31.11 2.65M1555.3 696.74c-.06.87-.12 1.73-.19 2.6" class="st2"/><path d="M1557.95 675.56c-.98 6.07-1.62 14.99-2.15 21.21-.05.63-1.03.58-1-.07.21-6.34.37-15.18 1.03-21.41.17-1.42 2.3-1.16 2.11.27Z" class="st8"/><path d="M1403.49 672.17c.02 3.97-.56 7.91-.88 11.85-.32 3.92-.61 7.85-.96 11.78-.09 1.03-.2 1.96-.71 2.88-.21-.05-.42-.08-.67-.09-7.79-.18-15.55-.97-23.31-1.41-.3-.79-.43-1.5-.4-2.31.18-5.03.67-10.03.95-15.05.19-3.26.76-6.5.61-9.78z" class="st1"/><path d="M1403.79 672.08c.02 3.97-.56 7.91-.88 11.85-.32 3.92-.61 7.85-.96 11.78-.09 1.03-.2 1.96-.71 2.88-.21-.05-.42-.08-.67-.09-7.79-.18-15.55-.97-23.31-1.41-.3-.79-.43-1.5-.4-2.31.18-5.03.67-10.03.95-15.05.19-3.26.76-6.5.61-9.78z" style="fill:url(#_6_lpi_40_1)"/><path d="M1431.52 745.75c-6.3-.74-15.31-1.41-21.73-1.77-.61-.04-.58-.97.05-.95 6.41.2 15.45.64 21.74 1.23.99.03.94 1.55-.06 1.5Z" class="st8"/><path d="M1413.44 672.44s.01-.08.02-.12c8.29.47 16.53.91 24.71 1.61.12.77.45 1.25.41 1.95-.39 6.03-.94 12.05-1.46 18.07-.2 2.33.17 4.75-1.15 6.92-7.33-.35-14.64-.86-21.96-1.39-.85-.06-1.55-.28-2.28-.63.15-.8-.39-1.6-.3-2.43.38-3.5.48-7.03.82-10.53.43-4.42.54-8.87 1.21-13.46Z" class="st19"/><path d="M1417.21 672.53c7.02.4 14.01.8 20.95 1.4.12.77.45 1.25.41 1.95-.39 6.03-.94 12.05-1.46 18.07-.2 2.33.17 4.75-1.15 6.92-7.33-.35-14.64-.86-21.96-1.39-.85-.06-1.55-.28-2.28-.63.15-.8-.39-1.6-.3-2.43.38-3.5.48-7.03.82-10.53.43-4.42.54-8.87 1.21-13.46 0-.04.01-.08.02-.12l3.76.21" class="st1"/><path d="M1446.15 700.9c-.15-.07-.3-.15-.44-.24.17-8.6 1.24-17.15 1.69-25.97 1.24.26 2.26-.22 3.49-.11 3.66.33 7.34.49 11 .8 3.61.31 7.28 0 10.8 1.2-.1 4.2-.59 8.37-.94 12.55-.31 3.73-.56 7.46-.82 11.19-.06.89-.27 1.73-.72 2.51-5.93-.12-11.83-.68-17.74-1.1-2.12-.15-4.3.16-6.32-.83" class="st10"/><path d="M1620.39 742.86c-.03 1.3.22 5.2.18 6.68-.19 5.88.13 8.09-.19 13.97M1623.75 742.74c.21 1.49.58 4.67.83 5.84 1.37 6.26 1.94 9.32 3.34 15.58" class="st3"/><path d="M1622.27 712.04c-2.85-4.74-8.37-7.8-13.75-8.65-5.65-.92-11.34-1-17.03-1.7-7.82-.75-17.7-1.18-25.59-1.77-2.86-.21-5.67-.37-8.61-.71a1.056 1.056 0 1 1 .31-2.09c2.73.37 5.62.6 8.45.87 14.05 1.24 28.7 2.31 42.64 4.36 5.67 1.04 11.24 4.28 14.17 9.35.18.38-.35.72-.59.33ZM1622.56 729.52c2.19-.14 3.29-2.78 3.71-4.8 1.03-3.63.77-8.5-2.67-10.74-.45-.2-.12-.91.32-.7 3.14 1.7 4.34 5.82 4.06 9.18-.3 2.63-.6 5.44-2.55 7.46-.7.71-1.69 1.19-2.7 1.33-1.17.13-1.36-1.62-.18-1.73Z" class="st8"/><path d="M1611.13 683.64c-2.03 6.17-4.28 12.58-3.99 19.15.04.48-.72.54-.76.06-.4-5.86.99-11.7 2.69-17.24.28-.75.48-1.5.64-2.28.08-.4.46-.65.86-.57.41.08.67.49.57.89Z" class="st8"/><path d="M1626.6 743.59c2.48 6.25 5.06 12.47 7.55 18.72.46 1.17.67 1.71.94 2.39" class="st3"/><path d="M1449.9 747.29c1.66 5.67-1.75 10.44-7.17 12.15-10.09 3.07-16.09-11.97-8.16-17.78 5.21-3.22 14.38-1.1 15.33 5.63m-1.35.27c-.58-6.09-8.94-8.13-13.56-5.27-4.82 3.44-3.79 11.7.99 14.7 5.87 3.81 14.11-2.8 12.57-9.44ZM1590.1 681.99c1.24 6.04 2.25 12.23 1.69 18.43-.06.59-.58 1.02-1.16.96-.59-.06-1.03-.59-.96-1.19.78-6.02.42-12.09-.04-18.13-.03-.29.42-.36.48-.07ZM1622.02 733c-.47.81-1.47 1.8-2.04 2.58-.63.8-1.15 1.64-1.37 2.6-.04.19-.23.32-.43.28a.35.35 0 0 1-.28-.38c.12-1.66 1.13-3.13 1.95-4.49.22-.37.53-.86.64-1.29.44-1.14 2.12-.36 1.52.71Z" class="st8"/><path d="M1622.26 715.24c-.05.62.05 1.27.04 1.82-.11 4.47-.35 5.66-.51 10.54M1493.84 741.27c-5.41-1.02-8.93-.78-14.38-1.41M1494.92 735.57c-5.37-.8-9.34-.42-14.69-1.36M1523.85 735.58c-.34 3.08-.28 2.44-.58 5.52-.18 1.8-.08 4.25-.44 5.86-.11 1.03-.27 2.51-.48 4.3-.5 4.17-.79 5.85-1.15 9.27-.12 1.1-.26 2.62-.4 4.45" class="st2"/><path d="M1508.65 747.35c5.37.41 8.79.84 13.87 1.57a212.991 212.991 0 0 1 15.18 1.45M1575.66 699.25c.12-2.7.35-5.39.52-8.09.11-1.73-.35-2.85-2.27-3.17-.86-.14-4.66-.33-6.03-.36-1.52-.04-2.05 1.27-2.16 2.63-.23 2.73-.53 5.46-.79 8.19" class="st2"/><path d="M1510.57 758.62c3.71 4.46 9.99 7.83 15.72 5.56 3.59-1.48 6.86-4.08 8.8-7.48 7.26-11.61-3.8-25.06-16.54-22.17-10.62 2.72-15.14 15.6-7.98 24.09m-.76.6c-8.92-11.35.57-27.95 14.86-26.2 11.9 1.81 18.63 14.11 12.21 24.73-2.24 3.79-5.86 6.66-9.99 8.11-6.42 2.25-13.21-1.63-17.08-6.64" class="st8"/><path d="M1534.67 739.95c-2.55 1.96-5.27 3.78-7.76 5.79-4.84 3.92-10.13 7.5-15.31 11.03" class="st2"/><path d="M1514.2 738.22c1 1.39 2.07 2.81 3.24 4.26 1.16 1.45 2.32 2.81 3.46 4.07 1.19 1.56 2.38 3.12 3.57 4.69 2.42 3.18 5.1 6.85 7.53 10.03M1507.96 741.71c-3.69-.29-4.92-.33-8.56-.79M1575.84 752.2c-.94 4.94-1.02 6-1.85 10.95-.2 1.19-.4 3.55-.7 4.72M1598.94 755.01c-.8 6.14-1.28 9.48-1.92 15.64" class="st2"/><path d="M1598.3 754.1c-4.73-.74-9.49 3.18-9.36 7.99 0 2.89 1.95 5.51 3.97 7.49 2.26 1.9 5.88 2.34 8.53 1.12 1.24-.75 2.38-1.53 3.21-2.72 4.01-5.73.66-13.1-6.34-13.88Zm.09-.99c8.2.59 12.47 9.19 7.72 16-1.19 1.56-2.98 2.87-4.8 3.55-3.24.92-6.91.24-9.4-2.05-2.16-2.33-4.05-5.17-4.01-8.53.11-5.36 5.27-9.53 10.48-8.97Z" class="st8"/><path d="M1396.72 754.3c.33-2.31.45-3.55.66-6.37" class="st2"/><path d="M1399.61 754.33c1.68-.45 3.16-.86 4.28-1.95 2.76-2.76 2.68-8.1-.07-10.88-3.11-2.67-7.94-3.73-11.53-1.37-2.8 1.74-4.35 5.43-3.52 8.61 1.13 4.16 6.29 7.08 10.84 5.6Zm.46 1.71c-5.46 1.56-11.29-2.18-12.32-7.07-1.34-8.05 7.53-13.59 14.48-9.74 5.45 2.18 6.58 10.03 2.77 14.25-1.26 1.42-3.18 2.15-4.93 2.57Z" class="st8"/><path d="m1537.56 681.63.15-.54c3.29.25 6.55.38 9.81 1.12.01 3.29-.54 6.47-.83 9.67-.55 6.1-1.18 12.2-1.89 18.29-3.36-.32-6.76-.14-10.05-1.11.16-6.03 1.03-12 1.74-17.98.36-3.1.24-6.26 1.07-9.45" class="st1"/><path d="M1565.26 762.85c-2.81-8 3.99-13.92 11.77-12.41 3.26.56 6.5 2.9 7.17 6.3.94 3.65.55 8.54-2.78 11.08-5.36 4.56-14.27 1.4-16.16-4.97m.93-.33c2.48 6.73 12.7 7.89 15.8 1.2.87-2.04.79-4.39.34-6.58-.47-3.32-4.07-5.34-7.3-5.57-6.51-.69-11.43 4.6-8.84 10.96Z" class="st8"/><path d="m1363.58 740.82-2.15-.47c-.27-.06-.41-.3-.43-.55-.65-3.44-.11-6.84 0-10.06-.31-6.55.79-13.29 1.16-19.82 1.18-16.4 2.4-33.15 3.67-49.49.2-2.1 3.36-1.94 3.25.25-1.64 16.37-3.23 33.04-4.77 49.42-.51 6.51-1.76 13.21-1.6 19.72-.2 3.36-.76 6.6-.24 9.72l-.43-.55 1.86.58c.78.22.47 1.44-.33 1.26Z" class="st20"/><path d="M1365.35 748.7c-3.87-7.57 2.34-14.46 10.37-12.3 6.98.61 8.39 9.31 4.81 14.29-4.09 5.56-12.18 3.6-15.18-1.99m.76-.45c3.48 5.76 12.55 5.65 14.31-1.35 1.01-2.88.49-6.44-2-8.38-1.65-1.15-4.14-1.46-6.11-1.66-6.19-.17-9.33 6.32-6.2 11.4Z" class="st8"/><path d="M1465.01 743.13c-.59 5.88-1.22 11.29-1.77 16.89M1441.38 741.23c-.46 2.4-.5 4.84-.81 7.25-.14 1.16-.28 2.34-.41 3.53-.21 1.9-.39 3.76-.55 5.6M1396.43 745.97c-2.43-2.23-3.12-2.94-5.18-4.79M1398.31 738.89c-.16 2.72-.31 5.44-.68 8.5" class="st2"/><path d="M1470.6 757.04c-1.55-1.27-3.09-2.54-4.64-3.8a60.291 60.291 0 0 1-8.1-7.63M1374.19 736.88l-.78 7.36c-.05.49-.11.98-.16 1.47-.22 1.98-.46 3.95-.7 5.91" class="st2"/><path d="M1366.98 738.96c1.95 1.88 2.85 2.65 4.5 4.18.66.51 1.52 1.37 2.72 2.43.59.52.82.75 1.32 1.18.71.62 1.77 1.5 3.17 2.5M1434.77 743.88c.63.75 1.36 1.53 2.2 2.31.33.31.67.6.99.88M1592.92 757.12c1.77 1.55 3.8 3.31 5.25 4.78 0 0 4.13 3.17 6.15 5.21M1439.36 748.03c.85.84 1.73 1.68 2.63 2.53 1.43 1.35 2.84 2.64 4.25 3.88M1397.93 747.19c1.98 1.78 2.86 2.7 5.03 4.86" class="st2"/><path d="M1615.14 758.87c-2.66-.2-4.4-.29-6.68-.48" class="st5"/><path d="M1569.07 753.53c2.04 1.83 3.52 4.18 5.49 6.08 2.14 2.06 4.56 3.81 6.89 5.65" class="st2"/><path d="M1566.75 763.55c2.8-1.13 5.91-2.59 9.19-4.5 2.24-1.31 4.26-2.65 6.04-3.95M1589.98 766.31c2.36-1.35 12.4-6.89 14.36-8.19M1471.07 747.36c-.76.38-1.34.94-2.68 1.69-2.28 1.28-3.68 2.22-4.98 3.04-1.57.98-3.1 1.97-6.09 3.43M1446.63 746c-1.36.76-1.84.96-3.2 1.72-1.3.77-2.64 1.53-4.03 2.3-2.28 1.24-4.5 2.37-6.65 3.4M1379.3 741.42c-1 .61-1.52.76-4.78 2.64-.98.57-1.75.91-2.47 1.27-2.31 1.14-4.53 2.12-6.17 2.81M1403.51 743.56c-1.41.8-2.82 1.61-4.23 2.41-1.04.54-2.08 1.09-3.14 1.63-2.22 1.14-4.43 2.24-6.61 3.3" class="st2"/><path d="m1568.89 687.3.58-7.35c.05-.5.47-.89.98-.87l2.24.05c.61.01 1.08.54 1.02 1.14l-.66 7.47" class="st8"/><path d="m1503.63 670.01 53.13 4.68-2.04 24.71 9.93.59.66-10.91 2.05-1.15 1.89-1.17.07-7.36 4.55.35-.97 8.43 2.7 1.02.07 9.82 14.5 2.9s.83-6.64.55-9.45c-.28-2.8-1.09-11.53-1.09-11.53s1.59-2.69 3.04-2.41 12.35 1.14 12.35 1.14l6.74.66-.87 2.88-2.82 6.98-1.11 10.38-.24.96.04 1.64s5.35.57 8.62 2.78c3.57 2.41 5.98 7.49 5.98 7.49l2.43.35s1.19-.56 2 1.62.74 9.71.74 9.71l-1.78 4.12-1.73 1.18-2.76 4.04-2.56 4.08 9.11.69 16.02 29.82-1.11 1.72-24.76-1.39-2.19-1.31.54-9.28-8.48-.32s-5.53-4.67-7.97-4.86-7.83 1.86-7.83 1.86l-.6 1.43-7.16-.54s-2.41-4.93-5.65-5.34-6.97-.86-8.38.51-3.85 3.31-3.85 3.31l-26.92-3.02s.59-5.68-1.01-8.26-6.29-9.8-13.62-10.19-14.04 6.13-14.04 6.13c-2.32 2.6-2.98 9.1-2.98 9.1l-10.47.02 7.27-78.62Z" class="st18"/><path d="m1537.56 681.63.15-.54c3.29.25 6.55.38 9.81 1.12.01 3.29-.54 6.47-.83 9.67-.55 6.1-1.18 12.2-1.89 18.29-3.36-.32-6.76-.14-10.05-1.11.16-6.03 1.03-12 1.74-17.98.36-3.1.24-6.26 1.07-9.45" class="st19"/><path d="m1457.39 654.23-60.2-4.24-25.5-.3c-2.42 1.78-4 1.01-5.6 4.81s-1.67 4.78-1.67 4.78l2.55.85-5.67 79.07 3.53.92 17.57 1.33 7.16.54 20.82 1.58 21.14 1.6 17.29.66 7.13.87 21.24.3 7.29-78.95 4.3-.66s-.61-4.95-2.08-7.03c-1.48-2.07-7.19-4.47-7.19-4.47l-22.12-1.68Z" class="st18"/><path d="M1403.49 672.17c.02 3.97-.56 7.91-.88 11.85-.32 3.92-.61 7.85-.96 11.78-.09 1.03-.2 1.96-.71 2.88-.21-.05-.42-.08-.67-.09-7.79-.18-15.55-.97-23.31-1.41-.3-.79-.43-1.5-.4-2.31.18-5.03.67-10.03.95-15.05.19-3.26.76-6.5.61-9.78M1413.43 672.44s.01-.08.02-.12c7.8.24 15.55.46 23.24.93.09.76.39 1.22.33 1.92-.52 5.97-1.21 11.92-1.86 17.88-.25 2.31.03 4.69-1.27 6.87-6.9-.15-13.78-.46-20.66-.79-.79-.04-1.45-.24-2.13-.56.16-.8-.33-1.57-.22-2.4.45-3.46.64-6.96 1.05-10.42.52-4.38.74-8.78 1.49-13.32ZM1446.15 700.9c-.15-.07-.3-.15-.44-.24.17-8.6 1.24-17.15 1.69-25.97 1.24.26 2.26-.22 3.49-.11 3.66.33 7.34.49 11 .8 3.61.31 7.28 0 10.8 1.2-.1 4.2-.59 8.37-.94 12.55-.31 3.73-.56 7.46-.82 11.19-.06.89-.27 1.73-.72 2.51-5.93-.12-11.83-.68-17.74-1.1-2.12-.15-4.3.16-6.32-.83" class="st18"/><path d="m1537.56 681.63.15-.54c3.29.25 6.55.38 9.81 1.12.01 3.29-.54 6.47-.83 9.67-.55 6.1-1.18 12.2-1.89 18.29-3.36-.32-6.76-.14-10.05-1.11.16-6.03 1.03-12 1.74-17.98.36-3.1.24-6.26 1.07-9.45" class="st19"/><path d="M1592.85 712.43c.14-.18.37-.29.62-.27l7.56.57c.25.02.46.16.57.36l3.17 5.06c.2.3.14.71-.1.94l-7.92 7.51c-.17.15-.37.23-.59.21s-.4-.13-.55-.3l-6.7-8.62c-.23-.27-.2-.68.04-.95l3.89-4.52Z" class="st7"/><path d="M1365.73 748.48a8.84 8.84 0 0 1-1.19-4.05c-.03-.69.03-1.22.06-1.42.08-.57.32-2.22 1.55-3.76 1.74-2.17 4.3-2.64 5.15-2.75 1.27-.16 2.25.02 3.59.26 1.66.3 2.78.51 3.91 1.31 1.58 1.13 2.16 2.71 2.42 3.42.91 2.5.28 4.65 0 5.64-.32 1.1-.83 2.84-2.55 4.28-.44.37-2.24 1.79-4.96 1.83-3.79.06-6.42-2.6-7.33-3.79-.35-.45-.61-.89-.65-.97M1389.75 751.21a8.9 8.9 0 0 1-1.13-4.17c-.02-.71.05-1.26.08-1.47.09-.59.36-2.3 1.62-3.91 1.78-2.27 4.37-2.8 5.23-2.92 1.28-.19 2.27-.02 3.61.22 1.67.29 2.79.48 3.91 1.29 1.57 1.14 2.13 2.77 2.38 3.5.88 2.56.21 4.8-.09 5.82-.34 1.14-.88 2.95-2.63 4.46-.45.39-2.28 1.88-5.02 1.96-3.81.12-6.42-2.59-7.32-3.8-.34-.46-.6-.91-.64-.99ZM1432.44 753.47a8.9 8.9 0 0 1-1.13-4.17c-.02-.71.05-1.26.08-1.47.09-.59.36-2.3 1.62-3.91 1.78-2.27 4.37-2.8 5.23-2.92 1.28-.19 2.27-.02 3.61.22 1.67.29 2.79.48 3.91 1.29 1.57 1.14 2.13 2.77 2.38 3.5.88 2.56.21 4.8-.09 5.82-.34 1.14-.88 2.95-2.63 4.46-.45.39-2.28 1.88-5.02 1.96-3.81.12-6.42-2.59-7.32-3.8-.34-.46-.6-.91-.64-.99ZM1456.05 756.44a9.76 9.76 0 0 1-1.31-4.55c-.03-.78.04-1.37.07-1.59.09-.64.37-2.5 1.74-4.23 1.95-2.45 4.81-2.98 5.77-3.11 1.42-.19 2.52.01 4.01.28 1.86.33 3.11.56 4.36 1.46 1.76 1.26 2.4 3.04 2.69 3.84 1.01 2.8.3 5.22-.02 6.33-.36 1.23-.94 3.2-2.86 4.81a9.04 9.04 0 0 1-5.55 2.07c-4.23.07-7.16-2.9-8.18-4.23-.39-.51-.68-1-.73-1.08ZM1509.48 756.12c-1.62-2.9-1.97-5.71-2.01-7.48-.03-1.28.1-2.27.15-2.64.15-1.05.65-4.14 2.91-7.03 3.2-4.09 7.83-5.04 9.38-5.27 2.29-.34 4.06-.04 6.47.37 2.99.51 5 .85 7.01 2.31 2.81 2.04 3.81 4.96 4.26 6.28 1.57 4.61.37 8.62-.19 10.47-.61 2.05-1.59 5.31-4.73 8.02-.81.7-4.1 3.38-9 3.54-6.83.22-11.49-4.63-13.1-6.81-.61-.83-1.08-1.64-1.15-1.77ZM1565.96 764.17a9.6 9.6 0 0 1-1.36-4.47c-.04-.76.03-1.34.05-1.56.08-.62.34-2.45 1.69-4.12 1.92-2.38 4.77-2.87 5.73-2.98 1.41-.17 2.52.04 4.02.32 1.86.35 3.11.58 4.38 1.48 1.78 1.26 2.44 3 2.74 3.79 1.04 2.76.36 5.12.05 6.2-.35 1.2-.9 3.12-2.81 4.68-.49.4-2.49 1.94-5.52 1.96-4.23.02-7.2-2.92-8.23-4.24-.39-.5-.69-.99-.74-1.07ZM1589.11 767.24a9.6 9.6 0 0 1-1.36-4.47c-.04-.76.03-1.34.05-1.56.08-.62.34-2.45 1.69-4.12 1.92-2.38 4.77-2.87 5.73-2.98 1.41-.17 2.52.04 4.02.32 1.86.35 3.11.58 4.38 1.48 1.78 1.26 2.44 3 2.74 3.79 1.04 2.76.36 5.12.05 6.2-.35 1.2-.9 3.12-2.81 4.68-.49.4-2.49 1.94-5.52 1.96-4.23.02-7.2-2.92-8.23-4.24-.39-.5-.69-.99-.74-1.07Z" class="st18"/><path d="M1486.74 668.03c2.6.32 3.28-.72 2.72-3.3-1.24-5.76-5.37-8.14-10.63-9.03-12.83-2.2-25.79-3.43-38.73-4.74-8.37-.85-16.74-1.58-25.13-2.12-7.48-.48-14.97-.85-22.47-.92-6.16-.05-12.33-.27-18.49.42-1.37.15-2.71.38-4 .76-4.13 1.22-7.06 6.19-5.7 10.29 3.5 1.47 7.23.71 10.84 1 13.66 1.08 27.34 1.99 41.01 2.85 13.55.86 27.09 1.79 40.63 2.68 8.56.56 17.14 1.05 25.7 1.82" class="st6"/><path d="M1475.11 724.78c-6.41.04-8.33-.32-14.72-.73-8.28-.53-16.57-1.06-24.84-1.71-8.65-.68-17.32-1.19-25.97-1.76-8.68-.57-17.36-1.19-26.05-1.72-5.21-.32-10.42-.64-15.63-.99M1478.55 737.83c-8.86-.31-17.68-1.08-26.53-1.62-16.47-1.01-32.93-2.07-49.39-3.18-12.55-.85-25.1-1.64-37.64-2.55M1614.67 750.23c-7.84-.7-14.54-1.26-22.39-1.91-10.98-.92-21.96-1.88-32.94-2.75-6.31-.5-12.61-1.08-18.92-1.63-.9-.08-1.73.02-2.58.13" class="st2"/><path d="M1504.4 674.11c-2.66 24.87-5.81 49.67-8 74.57l-.39-.46 7.52.57c.54.03.49.88-.06.84l-7.52-.56a.427.427 0 0 1-.39-.46c1.68-24.96 4.32-49.84 6.46-74.73.15-1.54 2.53-1.39 2.39.23ZM1472.45 748.03c-1.93-4.37-7.9-6.48-12.26-4.48-7.05 3.03-6.89 12.24-.41 15.83 3.35 2.32 8.41 1.81 10.98-1.4 1.97-2.72 2.97-6.73 1.69-9.95m1.14-.52c1.66 3.68 1.04 8.42-1.48 11.59-2.69 3.22-7.59 4.17-11.33 2.39-8.17-3.66-9.57-14.74-.91-18.68 4.84-2.23 11.31-.21 13.73 4.69ZM1485.21 672.6c-1.04 12.48-3.69 44.07-4.75 56.11-.56 5.54-1.1 13.27-1.98 18.72-.02.13-.1.23-.21.28-.55.28-1.19.46-1.83.47-.66 0-.68-.98-.02-.99.5.04.98-.04 1.47-.24 1.48-19.27 3.88-53.59 5.22-74.52.1-1.36 2.22-1.28 2.11.17Z" class="st8"/><path d="M1526.65 708.27c1.12-3.22 1.07-6.63 1.43-9.96.58-5.38 1.15-10.76 1.66-16.14.05-.55-.32-1.08.07-1.71-5.96-.79-11.9-1.16-17.95-1.67-.67 4.99-.97 9.78-1.53 14.54-.44 3.81-.8 7.63-1.24 11.45-.25 2.19-.14 2.39 2.04 2.55 5.08.37 10.13 1.16 15.24 1.05" class="st19"/><path d="M1526.65 708.27c1.12-3.22 1.07-6.63 1.43-9.96.58-5.38 1.15-10.76 1.66-16.14.05-.55-.32-1.08.07-1.71-5.96-.79-11.9-1.16-17.95-1.67-.67 4.99-.97 9.78-1.53 14.54-.44 3.81-.8 7.63-1.24 11.45-.25 2.19-.14 2.39 2.04 2.55 5.08.37 10.13 1.16 15.24 1.05" class="st1"/><path d="M1610.23 705.34c-1.08 11.48-1.25 16.55-2.66 27.99M1583.32 703.72c-.33 7.61-1.17 12.64-1.75 20.23-.29 3.71-.28 4-.7 7.69" class="st2"/><path d="M1632.19 747.83c-.73-1.51-1.45-3.03-2.17-4.55-1.49-3.16-1.52-4.24-4.16-4.79-1.79-.37-5.93-.77-7.8-.65-.37 2.4-.84 5.21-1.21 7.47-.71 4.43-.86 8.94-1.38 13.4-.35 3.02-.47 6.07-.33 9.1.04.94.03 1.06.95 1.36.72.23 1.47.35 2.22.43 1.5.15 3.01.06 4.51.17 5.35.37 10.72.52 16.07.78 1.15.06 2.26-.03 3.27-.17.76-1.06.31-1.95-.09-2.75-3.34-6.58-6.67-13.16-9.87-19.8Z" class="st8"/><path d="M1611.71 682.59c-.42.21-23.95-2.27-24.12-2.46-.63-.72.84-4.49 3.81-6.01 3.03-1.55 5.09-.19 11.18.34.25.02 1.57.09 4.21.28.99.07 1.78.14 2.59.66.77.5 1.29 1.23 1.44 1.46.28.42.23.48.68 1.3.66 1.21.84 1.21.96 1.67.22.82.39 2.19-.75 2.76" class="st6"/><path d="M1563.34 754.36c-5.73.41-12.13-.2-17.85-.47-1.98-.13-3.97-.3-5.96-.53a1.14 1.14 0 0 1-1-1.27c.07-.62.62-1.06 1.24-1l5.9.51c3.43.28 8.38.8 11.85 1.17.52.03 7.07.93 5.83 1.6Z" class="st8"/><path d="M1558.27 675.06c1.51.1 2.74-1.18 2.58-2.68-.28-2.7-1.7-5.66-3.61-6.8-1.65-.98-3.65-.94-5.47-1.12-14.54-1.43-29.09-2.66-43.67-3.53-2.49-.15-5.31-.19-7.03 2.24-1.31 1.85-2.61 3.83-2.41 6.25.02.22 0 .41-.02.59 2.61.47 5.23.68 7.88.89 7.47.59 14.94 1.35 22.41 1.94 5.34.42 10.66 1.05 16.01 1.35l13.33.86Z" class="st6"/><path d="M1554.84 702.75c-.21 2.55-.4 5.11-.51 7.67-.29 6.66-1.42 13.28-1.42 19.94 0 1.62.8 3.13 2.31 3.13 9.25 0 18.45 1.38 27.67 2.18 11.51.99 19.58 1.94 31.11 2.65M1555.3 696.74c-.06.87-.12 1.73-.19 2.6" class="st2"/><path d="M1557.95 675.56c-.98 6.07-1.62 14.99-2.15 21.21-.05.63-1.03.58-1-.07.21-6.34.37-15.18 1.03-21.41.17-1.42 2.3-1.16 2.11.27Z" class="st8"/><path d="M1403.49 672.17c.02 3.97-.56 7.91-.88 11.85-.32 3.92-.61 7.85-.96 11.78-.09 1.03-.2 1.96-.71 2.88-.21-.05-.42-.08-.67-.09-7.79-.18-15.55-.97-23.31-1.41-.3-.79-.43-1.5-.4-2.31.18-5.03.67-10.03.95-15.05.19-3.26.76-6.5.61-9.78z" class="st1"/><path d="M1403.79 672.08c.02 3.97-.56 7.91-.88 11.85-.32 3.92-.61 7.85-.96 11.78-.09 1.03-.2 1.96-.71 2.88-.21-.05-.42-.08-.67-.09-7.79-.18-15.55-.97-23.31-1.41-.3-.79-.43-1.5-.4-2.31.18-5.03.67-10.03.95-15.05.19-3.26.76-6.5.61-9.78z" style="fill:url(#_6_lpi_40_2)"/><path d="M1431.52 745.75c-6.3-.74-15.31-1.41-21.73-1.77-.61-.04-.58-.97.05-.95 6.41.2 15.45.64 21.74 1.23.99.03.94 1.55-.06 1.5Z" class="st8"/><path d="M1413.44 672.44s.01-.08.02-.12c8.29.47 16.53.91 24.71 1.61.12.77.45 1.25.41 1.95-.39 6.03-.94 12.05-1.46 18.07-.2 2.33.17 4.75-1.15 6.92-7.33-.35-14.64-.86-21.96-1.39-.85-.06-1.55-.28-2.28-.63.15-.8-.39-1.6-.3-2.43.38-3.5.48-7.03.82-10.53.43-4.42.54-8.87 1.21-13.46Z" class="st19"/><path d="M1417.21 672.53c7.02.4 14.01.8 20.95 1.4.12.77.45 1.25.41 1.95-.39 6.03-.94 12.05-1.46 18.07-.2 2.33.17 4.75-1.15 6.92-7.33-.35-14.64-.86-21.96-1.39-.85-.06-1.55-.28-2.28-.63.15-.8-.39-1.6-.3-2.43.38-3.5.48-7.03.82-10.53.43-4.42.54-8.87 1.21-13.46 0-.04.01-.08.02-.12l3.76.21" class="st1"/><path d="M1446.15 700.9c-.15-.07-.3-.15-.44-.24.17-8.6 1.24-17.15 1.69-25.97 1.24.26 2.26-.22 3.49-.11 3.66.33 7.34.49 11 .8 3.61.31 7.28 0 10.8 1.2-.1 4.2-.59 8.37-.94 12.55-.31 3.73-.56 7.46-.82 11.19-.06.89-.27 1.73-.72 2.51-5.93-.12-11.83-.68-17.74-1.1-2.12-.15-4.3.16-6.32-.83" class="st10"/><path d="M1620.39 742.86c-.03 1.3.22 5.2.18 6.68-.19 5.88.13 8.09-.19 13.97M1623.75 742.74c.21 1.49.58 4.67.83 5.84 1.37 6.26 1.94 9.32 3.34 15.58" class="st3"/><path d="M1622.27 712.04c-2.85-4.74-8.37-7.8-13.75-8.65-5.65-.92-11.34-1-17.03-1.7-7.82-.75-17.7-1.18-25.59-1.77-2.86-.21-5.67-.37-8.61-.71a1.056 1.056 0 1 1 .31-2.09c2.73.37 5.62.6 8.45.87 14.05 1.24 28.7 2.31 42.64 4.36 5.67 1.04 11.24 4.28 14.17 9.35.18.38-.35.72-.59.33ZM1622.56 729.52c2.19-.14 3.29-2.78 3.71-4.8 1.03-3.63.77-8.5-2.67-10.74-.45-.2-.12-.91.32-.7 3.14 1.7 4.34 5.82 4.06 9.18-.3 2.63-.6 5.44-2.55 7.46-.7.71-1.69 1.19-2.7 1.33-1.17.13-1.36-1.62-.18-1.73Z" class="st8"/><path d="M1611.13 683.64c-2.03 6.17-4.28 12.58-3.99 19.15.04.48-.72.54-.76.06-.4-5.86.99-11.7 2.69-17.24.28-.75.48-1.5.64-2.28.08-.4.46-.65.86-.57.41.08.67.49.57.89Z" class="st8"/><path d="M1626.6 743.59c2.48 6.25 5.06 12.47 7.55 18.72.46 1.17.67 1.71.94 2.39" class="st3"/><path d="M1449.9 747.29c1.66 5.67-1.75 10.44-7.17 12.15-10.09 3.07-16.09-11.97-8.16-17.78 5.21-3.22 14.38-1.1 15.33 5.63m-1.35.27c-.58-6.09-8.94-8.13-13.56-5.27-4.82 3.44-3.79 11.7.99 14.7 5.87 3.81 14.11-2.8 12.57-9.44ZM1590.1 681.99c1.24 6.04 2.25 12.23 1.69 18.43-.06.59-.58 1.02-1.16.96-.59-.06-1.03-.59-.96-1.19.78-6.02.42-12.09-.04-18.13-.03-.29.42-.36.48-.07ZM1622.02 733c-.47.81-1.47 1.8-2.04 2.58-.63.8-1.15 1.64-1.37 2.6-.04.19-.23.32-.43.28a.35.35 0 0 1-.28-.38c.12-1.66 1.13-3.13 1.95-4.49.22-.37.53-.86.64-1.29.44-1.14 2.12-.36 1.52.71Z" class="st8"/><path d="M1622.26 715.24c-.05.62.05 1.27.04 1.82-.11 4.47-.35 5.66-.51 10.54M1493.84 741.27c-5.41-1.02-8.93-.78-14.38-1.41M1494.92 735.57c-5.37-.8-9.34-.42-14.69-1.36M1523.85 735.58c-.34 3.08-.28 2.44-.58 5.52-.18 1.8-.08 4.25-.44 5.86-.11 1.03-.27 2.51-.48 4.3-.5 4.17-.79 5.85-1.15 9.27-.12 1.1-.26 2.62-.4 4.45" class="st2"/><path d="M1508.65 747.35c5.37.41 8.79.84 13.87 1.57a212.991 212.991 0 0 1 15.18 1.45M1575.66 699.25c.12-2.7.35-5.39.52-8.09.11-1.73-.35-2.85-2.27-3.17-.86-.14-4.66-.33-6.03-.36-1.52-.04-2.05 1.27-2.16 2.63-.23 2.73-.53 5.46-.79 8.19" class="st2"/><path d="M1510.57 758.62c3.71 4.46 9.99 7.83 15.72 5.56 3.59-1.48 6.86-4.08 8.8-7.48 7.26-11.61-3.8-25.06-16.54-22.17-10.62 2.72-15.14 15.6-7.98 24.09m-.76.6c-8.92-11.35.57-27.95 14.86-26.2 11.9 1.81 18.63 14.11 12.21 24.73-2.24 3.79-5.86 6.66-9.99 8.11-6.42 2.25-13.21-1.63-17.08-6.64" class="st8"/><path d="M1534.67 739.95c-2.55 1.96-5.27 3.78-7.76 5.79-4.84 3.92-10.13 7.5-15.31 11.03" class="st2"/><path d="M1514.2 738.22c1 1.39 2.07 2.81 3.24 4.26 1.16 1.45 2.32 2.81 3.46 4.07 1.19 1.56 2.38 3.12 3.57 4.69 2.42 3.18 5.1 6.85 7.53 10.03M1507.96 741.71c-3.69-.29-4.92-.33-8.56-.79M1575.84 752.2c-.94 4.94-1.02 6-1.85 10.95-.2 1.19-.4 3.55-.7 4.72M1598.94 755.01c-.8 6.14-1.28 9.48-1.92 15.64" class="st2"/><path d="M1598.3 754.1c-4.73-.74-9.49 3.18-9.36 7.99 0 2.89 1.95 5.51 3.97 7.49 2.26 1.9 5.88 2.34 8.53 1.12 1.24-.75 2.38-1.53 3.21-2.72 4.01-5.73.66-13.1-6.34-13.88Zm.09-.99c8.2.59 12.47 9.19 7.72 16-1.19 1.56-2.98 2.87-4.8 3.55-3.24.92-6.91.24-9.4-2.05-2.16-2.33-4.05-5.17-4.01-8.53.11-5.36 5.27-9.53 10.48-8.97Z" class="st8"/><path d="M1396.72 754.3c.33-2.31.45-3.55.66-6.37" class="st2"/><path d="M1399.61 754.33c1.68-.45 3.16-.86 4.28-1.95 2.76-2.76 2.68-8.1-.07-10.88-3.11-2.67-7.94-3.73-11.53-1.37-2.8 1.74-4.35 5.43-3.52 8.61 1.13 4.16 6.29 7.08 10.84 5.6Zm.46 1.71c-5.46 1.56-11.29-2.18-12.32-7.07-1.34-8.05 7.53-13.59 14.48-9.74 5.45 2.18 6.58 10.03 2.77 14.25-1.26 1.42-3.18 2.15-4.93 2.57Z" class="st8"/><path d="m1537.56 681.63.15-.54c3.29.25 6.55.38 9.81 1.12.01 3.29-.54 6.47-.83 9.67-.55 6.1-1.18 12.2-1.89 18.29-3.36-.32-6.76-.14-10.05-1.11.16-6.03 1.03-12 1.74-17.98.36-3.1.24-6.26 1.07-9.45" class="st1"/><path d="M1565.26 762.85c-2.81-8 3.99-13.92 11.77-12.41 3.26.56 6.5 2.9 7.17 6.3.94 3.65.55 8.54-2.78 11.08-5.36 4.56-14.27 1.4-16.16-4.97m.93-.33c2.48 6.73 12.7 7.89 15.8 1.2.87-2.04.79-4.39.34-6.58-.47-3.32-4.07-5.34-7.3-5.57-6.51-.69-11.43 4.6-8.84 10.96Z" class="st8"/><path d="m1363.58 740.82-2.15-.47c-.27-.06-.41-.3-.43-.55-.65-3.44-.11-6.84 0-10.06-.31-6.55.79-13.29 1.16-19.82 1.18-16.4 2.4-33.15 3.67-49.49.2-2.1 3.36-1.94 3.25.25-1.64 16.37-3.23 33.04-4.77 49.42-.51 6.51-1.76 13.21-1.6 19.72-.2 3.36-.76 6.6-.24 9.72l-.43-.55 1.86.58c.78.22.47 1.44-.33 1.26Z" class="st20"/><path d="M1365.35 748.7c-3.87-7.57 2.34-14.46 10.37-12.3 6.98.61 8.39 9.31 4.81 14.29-4.09 5.56-12.18 3.6-15.18-1.99m.76-.45c3.48 5.76 12.55 5.65 14.31-1.35 1.01-2.88.49-6.44-2-8.38-1.65-1.15-4.14-1.46-6.11-1.66-6.19-.17-9.33 6.32-6.2 11.4Z" class="st8"/><path d="M1465.01 743.13c-.59 5.88-1.22 11.29-1.77 16.89M1441.38 741.23c-.46 2.4-.5 4.84-.81 7.25-.14 1.16-.28 2.34-.41 3.53-.21 1.9-.39 3.76-.55 5.6M1396.43 745.97c-2.43-2.23-3.12-2.94-5.18-4.79M1398.31 738.89c-.16 2.72-.31 5.44-.68 8.5" class="st2"/><path d="M1470.6 757.04c-1.55-1.27-3.09-2.54-4.64-3.8a60.291 60.291 0 0 1-8.1-7.63M1374.19 736.88l-.78 7.36c-.05.49-.11.98-.16 1.47-.22 1.98-.46 3.95-.7 5.91" class="st2"/><path d="M1366.98 738.96c1.95 1.88 2.85 2.65 4.5 4.18.66.51 1.52 1.37 2.72 2.43.59.52.82.75 1.32 1.18.71.62 1.77 1.5 3.17 2.5M1434.77 743.88c.63.75 1.36 1.53 2.2 2.31.33.31.67.6.99.88M1592.92 757.12c1.77 1.55 3.8 3.31 5.25 4.78 0 0 4.13 3.17 6.15 5.21M1439.36 748.03c.85.84 1.73 1.68 2.63 2.53 1.43 1.35 2.84 2.64 4.25 3.88M1397.93 747.19c1.98 1.78 2.86 2.7 5.03 4.86" class="st2"/><path d="M1615.14 758.87c-2.66-.2-4.4-.29-6.68-.48" class="st5"/><path d="M1569.07 753.53c2.04 1.83 3.52 4.18 5.49 6.08 2.14 2.06 4.56 3.81 6.89 5.65" class="st2"/><path d="M1566.75 763.55c2.8-1.13 5.91-2.59 9.19-4.5 2.24-1.31 4.26-2.65 6.04-3.95M1589.98 766.31c2.36-1.35 12.4-6.89 14.36-8.19M1471.07 747.36c-.76.38-1.34.94-2.68 1.69-2.28 1.28-3.68 2.22-4.98 3.04-1.57.98-3.1 1.97-6.09 3.43M1446.63 746c-1.36.76-1.84.96-3.2 1.72-1.3.77-2.64 1.53-4.03 2.3-2.28 1.24-4.5 2.37-6.65 3.4M1379.3 741.42c-1 .61-1.52.76-4.78 2.64-.98.57-1.75.91-2.47 1.27-2.31 1.14-4.53 2.12-6.17 2.81M1403.51 743.56c-1.41.8-2.82 1.61-4.23 2.41-1.04.54-2.08 1.09-3.14 1.63-2.22 1.14-4.43 2.24-6.61 3.3" class="st2"/><path d="m1568.89 687.3.58-7.35c.05-.5.47-.89.98-.87l2.24.05c.61.01 1.08.54 1.02 1.14l-.66 7.47" class="st8"/><path d="m151.53 34.58 53.22 3.61-1.54 24.75 9.94.39.44-10.92 2.03-1.19 1.86-1.2-.08-7.36 4.56.25-.8 8.45 2.72.97.27 9.82 14.56 2.61s.7-6.66.36-9.45c-.33-2.8-1.32-11.51-1.32-11.51s1.53-2.72 2.99-2.47 12.37.89 12.37.89l6.75.53-.81 2.9-2.68 7.04-.91 10.4-.22.97.07 1.64s5.37.46 8.68 2.61c3.62 2.34 6.12 7.37 6.12 7.37l2.43.3s1.18-.59 2.04 1.58.93 9.69.93 9.69l-1.7 4.15-1.7 1.21-2.68 4.1-2.48 4.13 9.12.51 16.61 29.49-1.08 1.74-24.78-.89-2.22-1.27.35-9.29-8.49-.15s-5.63-4.56-8.07-4.7-7.79 2.02-7.79 2.02l-.57 1.44-7.17-.4s-2.51-4.88-5.75-5.22-6.98-.72-8.37.68-3.78 3.38-3.78 3.38l-26.98-2.48s.48-5.69-1.18-8.23-6.49-9.67-13.82-9.92c-7.34-.24-13.92 6.41-13.92 6.41-2.27 2.65-2.8 9.16-2.8 9.16l-10.47.23 5.69-78.75Z" class="st18"/><path d="M185.69 45.52c.04-.18.09-.36.14-.54 3.3.19 6.55.25 9.83.93.08 3.29-.41 6.48-.64 9.68-.43 6.11-.94 12.22-1.52 18.32-3.36-.25-6.76 0-10.07-.91.04-6.04.79-12.02 1.37-18.02.3-3.1.11-6.27.89-9.47Z" style="fill:url(#_6_lpi_40_3)"/><path d="m104.99 19.74-60.28-3.03-25.5.21c-2.39 1.83-3.98 1.09-5.5 4.92-1.52 3.84-1.57 4.81-1.57 4.81l2.57.8-4.08 79.17 3.55.85 17.59.98 7.17.4 20.85 1.16 21.17 1.18 17.3.31 7.15.72 21.24-.12 5.71-79.08 4.29-.74s-.71-4.94-2.23-6.98-7.27-4.33-7.27-4.33L105 19.74Z" class="st18"/><path d="M51.45 38.76c.1 3.97-.4 7.92-.65 11.87-.24 3.93-.45 7.86-.72 11.79-.07 1.03-.16 1.96-.66 2.89-.21-.04-.43-.07-.67-.07-7.8-.02-15.57-.65-23.33-.94-.31-.78-.46-1.49-.45-2.3.08-5.03.47-10.04.65-15.07.12-3.26.63-6.51.41-9.79M61.4 38.82s.01-.08.02-.12c7.8.09 15.56.15 23.26.47.11.76.42 1.21.37 1.91-.4 5.98-.97 11.95-1.5 17.92-.21 2.31.13 4.69-1.13 6.89-6.9-.02-13.78-.19-20.67-.37-.8-.02-1.45-.21-2.15-.52.15-.8-.36-1.56-.27-2.39.38-3.47.5-6.97.84-10.44.44-4.39.57-8.79 1.23-13.35M94.68 66.62c-.15-.07-.3-.15-.45-.23 0-8.6.89-17.17 1.17-26 1.24.23 2.25-.26 3.48-.18 3.66.26 7.34.34 11.01.58 3.61.23 7.28-.15 10.82.98-.01 4.2-.42 8.38-.68 12.57-.23 3.73-.41 7.47-.6 11.21-.04.89-.24 1.73-.67 2.53-5.93 0-11.84-.44-17.75-.75-2.12-.11-4.3.24-6.33-.71" class="st18"/><path d="M185.69 45.52c.04-.18.09-.36.14-.54 3.3.19 6.55.25 9.83.93.08 3.29-.41 6.48-.64 9.68-.43 6.11-.94 12.22-1.52 18.32-3.36-.25-6.76 0-10.07-.91.04-6.04.79-12.02 1.37-18.02.3-3.1.11-6.27.89-9.47Z" style="fill:url(#_6_lpi_40_4)"/><path d="M241.59 75.21c.14-.18.36-.3.62-.28l7.57.42c.25.01.47.15.58.35l3.27 4.99c.21.3.15.7-.08.95l-7.77 7.67c-.17.15-.36.23-.58.22s-.4-.12-.55-.28l-6.87-8.49c-.24-.27-.22-.68.02-.95l3.8-4.6Z" class="st7"/><path d="M15.23 115.81a8.7 8.7 0 0 1-1.24-5.45c.06-.57.28-2.23 1.47-3.79 1.69-2.21 4.24-2.73 5.1-2.86 1.26-.19 2.25-.03 3.6.19 1.67.27 2.79.45 3.93 1.23 1.6 1.1 2.21 2.67 2.49 3.38.96 2.48.38 4.64.11 5.64-.3 1.1-.77 2.86-2.46 4.33-.44.38-2.21 1.83-4.92 1.92-3.78.13-6.47-2.47-7.4-3.64-.36-.44-.63-.88-.67-.95ZM39.31 118.06a9.1 9.1 0 0 1-1.22-4.14c-.03-.71.03-1.26.05-1.47.07-.59.31-2.31 1.54-3.94 1.74-2.31 4.31-2.88 5.17-3.03 1.27-.21 2.27-.06 3.62.14 1.68.25 2.8.42 3.94 1.21 1.6 1.11 2.19 2.72 2.45 3.45.93 2.55.31 4.79.02 5.82-.32 1.15-.82 2.97-2.54 4.51-.44.4-2.25 1.92-4.98 2.06-3.81.19-6.47-2.46-7.4-3.65-.35-.45-.62-.9-.66-.97ZM82.03 119.46a9.1 9.1 0 0 1-1.22-4.14c-.03-.71.03-1.26.05-1.47.07-.59.31-2.31 1.54-3.94 1.74-2.31 4.31-2.88 5.17-3.03 1.27-.21 2.27-.06 3.62.14 1.68.25 2.8.42 3.94 1.21 1.6 1.11 2.19 2.72 2.45 3.45.93 2.55.31 4.79.02 5.82-.32 1.15-.82 2.97-2.54 4.51-.44.4-2.25 1.92-4.98 2.06-3.81.19-6.47-2.46-7.4-3.65-.35-.45-.62-.9-.66-.97ZM105.7 121.95a9.8 9.8 0 0 1-1.4-4.52c-.04-.78.02-1.37.04-1.59.07-.64.32-2.51 1.66-4.26 1.9-2.49 4.75-3.08 5.71-3.22 1.41-.21 2.52-.04 4.02.2 1.86.3 3.12.5 4.39 1.37 1.79 1.23 2.46 2.99 2.77 3.78 1.07 2.78.41 5.21.1 6.33-.34 1.24-.87 3.21-2.76 4.87-.49.43-2.47 2.06-5.5 2.18-4.23.16-7.22-2.76-8.26-4.07-.4-.5-.7-.99-.75-1.07ZM159.1 120.56a16.16 16.16 0 0 1-2.16-7.44c-.06-1.28.06-2.27.1-2.64.13-1.06.57-4.15 2.77-7.09 3.12-4.15 7.73-5.2 9.27-5.46 2.28-.39 4.06-.12 6.48.24 3 .45 5.02.75 7.05 2.17 2.85 1.99 3.91 4.89 4.38 6.2 1.66 4.57.54 8.61.02 10.47-.57 2.06-1.48 5.34-4.57 8.12-.8.72-4.03 3.47-8.93 3.72-6.83.36-11.58-4.4-13.24-6.54-.63-.81-1.11-1.62-1.18-1.75ZM215.73 127.48a9.6 9.6 0 0 1-1.45-4.44c-.05-.76 0-1.34.02-1.56.07-.62.29-2.45 1.61-4.16 1.87-2.41 4.72-2.96 5.67-3.09 1.41-.19 2.52 0 4.02.24 1.87.31 3.12.52 4.41 1.39 1.8 1.22 2.5 2.95 2.81 3.74 1.1 2.73.46 5.11.17 6.2-.32 1.21-.84 3.14-2.71 4.74-.48.41-2.45 1.99-5.48 2.07-4.23.11-7.25-2.78-8.31-4.08-.4-.49-.71-.98-.76-1.05M238.95 130.08a9.6 9.6 0 0 1-1.45-4.44c-.05-.76 0-1.34.02-1.56.07-.62.29-2.45 1.61-4.16 1.87-2.41 4.72-2.96 5.67-3.09 1.41-.19 2.52 0 4.02.24 1.87.31 3.12.52 4.41 1.39 1.8 1.22 2.5 2.95 2.81 3.74 1.1 2.73.46 5.11.17 6.2-.32 1.21-.84 3.14-2.71 4.74-.48.41-2.45 1.99-5.48 2.07-4.23.11-7.25-2.78-8.31-4.08-.4-.49-.71-.98-.76-1.05" class="st18"/><path d="M134.6 32.95c2.6.27 3.26-.78 2.65-3.36-1.36-5.73-5.54-8.03-10.81-8.82-12.87-1.94-25.85-2.91-38.82-3.96-8.38-.68-16.77-1.25-25.17-1.61-7.49-.33-14.98-.55-22.48-.46-6.16.07-12.33-.03-18.47.79-1.37.18-2.7.44-3.99.84-4.1 1.3-6.94 6.33-5.49 10.4 3.53 1.4 7.24.57 10.85.78 13.68.81 27.37 1.44 41.06 2.03 13.56.58 27.12 1.24 40.68 1.87 8.57.39 17.16.71 25.73 1.31" class="st6"/><path d="M124.11 89.92c-6.41.17-8.34-.16-14.73-.44-8.29-.37-16.59-.73-24.87-1.21-8.66-.5-17.34-.84-26-1.24-8.69-.4-17.38-.84-26.08-1.19-5.22-.21-10.43-.43-15.64-.68M127.82 102.89c-8.86-.13-17.7-.73-26.55-1.09q-24.72-1.02-49.44-2.19c-12.56-.59-25.12-1.14-37.68-1.79M264.16 112.57c-7.86-.55-14.56-.96-22.42-1.46-11-.7-21.99-1.44-32.99-2.09-6.32-.37-12.63-.83-18.94-1.25-.91-.06-1.73.06-2.58.18" class="st2"/><path d="M152.38 38.68c-2.16 24.92-4.81 49.78-6.5 74.71l-.4-.45 7.53.42c.54.02.5.87-.05.84l-7.53-.41a.42.42 0 0 1-.4-.45c1.18-24.99 3.32-49.92 4.96-74.85.12-1.54 2.5-1.45 2.39.18ZM121.93 113.22c-2.02-4.33-8.03-6.32-12.35-4.24-6.98 3.17-6.64 12.38-.09 15.83 3.39 2.26 8.44 1.64 10.95-1.62 1.92-2.76 2.84-6.79 1.49-9.98Zm1.13-.55c1.74 3.65 1.21 8.4-1.25 11.62-2.63 3.28-7.5 4.32-11.28 2.62-8.24-3.49-9.87-14.55-1.29-18.66 4.8-2.33 11.31-.43 13.82 4.42M133.16 37.55c-.79 12.5-2.81 44.13-3.63 56.19l-.68 9.37c-.26 3.13-.46 6.22-.93 9.39-.02.14-.12.25-.24.31-.53.28-1.17.47-1.8.48-.65 0-.68-.97-.03-.99.5.03.98-.06 1.46-.27 1.1-19.3 2.8-53.66 3.72-74.61.08-1.36 2.2-1.32 2.12.13Z" class="st8"/><path d="M175.31 72.38c1.05-3.25.93-6.65 1.23-9.98.47-5.39.94-10.78 1.34-16.17.04-.55-.34-1.07.03-1.71-5.98-.67-11.93-.92-17.98-1.31-.57 5.01-.78 9.8-1.23 14.56-.37 3.82-.65 7.65-1.01 11.47-.21 2.19-.09 2.39 2.09 2.51 5.08.27 10.15.96 15.26.74" style="fill:url(#_6_lpi_40_5)"/><path d="M175.31 72.38c1.05-3.25.93-6.65 1.23-9.98.47-5.39.94-10.78 1.34-16.17.04-.55-.34-1.07.03-1.71-5.98-.67-11.93-.92-17.98-1.31-.57 5.01-.78 9.8-1.23 14.56-.37 3.82-.65 7.65-1.01 11.47-.21 2.19-.09 2.39 2.09 2.51 5.08.27 10.15.96 15.26.74" class="st1"/><path d="M258.82 67.77c-.85 11.5-.92 16.57-2.1 28.04M231.88 66.69c-.17 7.62-.92 12.66-1.35 20.26-.21 3.71-.2 4-.54 7.71" class="st2"/><path d="M281.63 109.81c-.76-1.5-1.52-3-2.26-4.51-1.55-3.13-1.61-4.21-4.26-4.7-1.8-.34-5.95-.65-7.82-.49-.33 2.41-.74 5.22-1.06 7.49-.62 4.44-.68 8.95-1.11 13.42-.29 3.03-.34 6.08-.15 9.11.06.94.05 1.06.97 1.34.72.22 1.48.32 2.23.38 1.5.12 3.01 0 4.51.07 5.36.26 10.72.3 16.09.46 1.15.03 2.26-.08 3.27-.24.74-1.07.27-1.96-.15-2.75-3.47-6.51-6.93-13.02-10.27-19.6Z" class="st8"/><path d="M259.85 45c-.41.22-23.99-1.79-24.16-1.98-.65-.71.75-4.51 3.69-6.08 3-1.61 5.08-.29 11.19.11.25.02 1.57.06 4.21.2.99.05 1.78.1 2.6.61.78.48 1.31 1.21 1.47 1.43.29.42.24.48.7 1.28.69 1.2.86 1.19 1 1.65.23.82.43 2.19-.69 2.78Z" class="st6"/><path d="M212.92 117.72c-5.72.52-12.13.04-17.86-.11-1.99-.09-3.97-.22-5.97-.41-.63-.06-1.08-.62-1.02-1.25.06-.62.6-1.07 1.22-1.03l5.91.39c3.43.21 8.39.63 11.87.93.52.02 7.09.79 5.86 1.48Z" class="st8"/><path d="M206.26 38.54a2.44 2.44 0 0 0 2.53-2.73c-.34-2.7-1.81-5.63-3.75-6.72-1.67-.95-3.66-.86-5.49-1.01-14.56-1.14-29.14-2.08-43.73-2.65-2.49-.1-5.31-.08-6.99 2.38-1.28 1.88-2.53 3.88-2.28 6.29.02.22.02.41 0 .59 2.62.41 5.25.58 7.9.73 7.48.44 14.96 1.05 22.45 1.49 5.34.31 10.68.84 16.03 1.03l13.34.6Z" class="st6"/><path d="M203.39 66.3c-.15 2.56-.3 5.12-.36 7.68-.15 6.67-1.16 13.3-1.02 19.97.03 1.62.86 3.11 2.37 3.08 9.25-.19 18.47 1.01 27.7 1.62 11.53.76 19.61 1.55 31.16 2.03M203.73 60.28c-.04.87-.09 1.74-.14 2.6" class="st2"/><path d="M205.95 39.05c-.85 6.09-1.31 15.02-1.72 21.25-.04.64-1.02.6-1-.05.08-6.34.06-15.19.6-21.43.14-1.42 2.28-1.21 2.12.22Z" class="st8"/><path d="M51.45 38.76c.1 3.97-.4 7.92-.65 11.87-.24 3.93-.45 7.86-.72 11.79-.07 1.03-.16 1.96-.66 2.89-.21-.04-.43-.07-.67-.07-7.8-.02-15.57-.65-23.33-.94-.31-.78-.46-1.49-.45-2.3.08-5.03.47-10.04.65-15.07.12-3.26.63-6.51.41-9.79l25.41 1.62Z" class="st1"/><path d="M51.75 38.66c.1 3.97-.4 7.92-.65 11.87-.24 3.93-.45 7.86-.72 11.79-.07 1.03-.16 1.96-.66 2.89-.21-.04-.43-.07-.67-.07-7.8-.02-15.57-.65-23.33-.94-.31-.78-.46-1.49-.45-2.3.08-5.03.47-10.04.65-15.07.12-3.26.63-6.51.41-9.79l25.41 1.62Z" style="fill:url(#_6_lpi_40_6)"/><path d="M80.95 111.76c-6.31-.61-15.33-1.11-21.76-1.34-.61-.02-.6-.96.03-.95 6.41.07 15.46.33 21.76.79.99.01.97 1.53-.03 1.5" class="st8"/><path d="M61.4 38.82s.01-.08.02-.12c8.3.3 16.54.58 24.73 1.11.14.77.48 1.24.45 1.94-.26 6.04-.7 12.06-1.1 18.09-.16 2.34.26 4.75-1.01 6.95-7.33-.21-14.66-.57-21.98-.95-.85-.04-1.55-.25-2.29-.58.14-.81-.42-1.59-.35-2.43.31-3.5.34-7.04.61-10.54.34-4.43.36-8.88.94-13.48Z" style="fill:url(#_6_lpi_40_7)"/><path d="M65.18 38.84c7.03.26 14.02.52 20.97.98.14.77.48 1.24.45 1.94-.26 6.04-.7 12.06-1.1 18.09-.16 2.34.26 4.75-1.01 6.95-7.33-.21-14.66-.57-21.98-.95-.85-.04-1.55-.25-2.29-.58.14-.81-.42-1.59-.35-2.43.31-3.5.34-7.04.61-10.54.34-4.43.36-8.88.94-13.48 0-.04.01-.08.02-.12 1.25.05 2.51.09 3.76.14" class="st1"/><path d="M94.68 66.62c-.15-.07-.3-.15-.45-.23 0-8.6.89-17.17 1.17-26 1.24.23 2.25-.26 3.48-.18 3.66.26 7.34.34 11.01.58 3.61.23 7.28-.15 10.82.98-.01 4.2-.42 8.38-.68 12.57-.23 3.73-.41 7.47-.6 11.21-.04.89-.24 1.73-.67 2.53-5.93 0-11.84-.44-17.75-.75-2.12-.11-4.3.24-6.33-.71" style="fill:url(#_6_lpi_40_8);stroke-linecap:round;stroke-linejoin:round;stroke:#1c1917"/><path d="M269.72 105.08c0 1.3.33 5.2.31 6.67-.07 5.89.29 8.08.09 13.97M273.09 104.89c.24 1.49.67 4.66.95 5.83 1.5 6.23 2.12 9.28 3.65 15.51" class="st3"/><path d="M270.99 74.23c-2.94-4.69-8.52-7.64-13.92-8.37-5.67-.81-11.36-.77-17.06-1.36-7.83-.59-17.72-.83-25.62-1.26-2.87-.15-5.68-.26-8.62-.53-.58-.05-1.01-.57-.95-1.15.05-.61.62-1.04 1.22-.94 2.74.31 5.63.49 8.46.7 14.07.96 28.74 1.74 42.72 3.51 5.69.93 11.32 4.05 14.36 9.07.19.37-.33.72-.58.34ZM271.63 91.7c2.18-.18 3.23-2.85 3.61-4.88.96-3.65.6-8.52-2.88-10.69-.45-.19-.14-.9.31-.7 3.17 1.64 4.45 5.73 4.24 9.1-.24 2.63-.49 5.45-2.4 7.51-.69.72-1.67 1.23-2.67 1.38-1.17.16-1.39-1.59-.21-1.72" class="st8"/><path d="M259.28 46.06c-1.91 6.21-4.03 12.66-3.61 19.23.05.48-.71.56-.76.07-.52-5.86.75-11.72 2.34-17.3.26-.76.45-1.5.59-2.29.07-.4.45-.66.85-.59.41.07.68.48.59.88" class="st8"/><path d="M275.95 105.69c2.61 6.2 5.31 12.37 7.92 18.57.49 1.16.7 1.7.99 2.37" class="st3"/><path d="M99.36 112.93c1.77 5.64-1.54 10.48-6.93 12.29-10.03 3.27-16.32-11.64-8.52-17.62 5.14-3.33 14.35-1.38 15.44 5.32Zm-1.34.3c-.7-6.07-9.1-7.94-13.66-4.99-4.75 3.54-3.56 11.78 1.28 14.68 5.94 3.69 14.05-3.08 12.38-9.69M238.22 44.83c1.36 6.01 2.5 12.18 2.06 18.39-.04.59-.56 1.03-1.14.98a1.06 1.06 0 0 1-.98-1.17c.66-6.03.17-12.09-.41-18.13-.03-.29.41-.37.48-.08ZM271.16 95.19c-.45.82-1.43 1.83-1.99 2.62-.61.81-1.12 1.66-1.31 2.62-.04.2-.23.32-.42.29-.18-.03-.3-.2-.29-.37.08-1.66 1.06-3.16 1.86-4.53.21-.37.51-.87.62-1.3.42-1.15 2.11-.4 1.54.68Z" class="st8"/><path d="M271.05 77.43c-.04.62.08 1.27.07 1.82-.02 4.48-.23 5.67-.3 10.55M143.17 106.03c-5.43-.91-8.94-.6-14.41-1.12M144.13 100.31c-5.38-.69-9.34-.23-14.72-1.06M173.07 99.74c-.28 3.08-.23 2.44-.47 5.53-.14 1.8 0 4.25-.33 5.86-.09 1.03-.22 2.51-.4 4.31-.41 4.17-.67 5.87-.96 9.29-.09 1.1-.21 2.63-.31 4.46" class="st2"/><path d="M158.1 111.81c5.37.3 8.8.66 13.9 1.29.81.03 1.62.07 2.44.11 4.39.22 8.65.57 12.78 1.04M224.13 62.38c.07-2.7.24-5.4.36-8.1.07-1.74-.4-2.84-2.33-3.12-.87-.13-4.67-.23-6.04-.24-1.52 0-2.02 1.31-2.11 2.67-.17 2.74-.42 5.47-.62 8.21" class="st2"/><path d="M160.24 123.04c3.8 4.39 10.14 7.63 15.83 5.24 3.56-1.56 6.77-4.22 8.64-7.65 7.02-11.75-4.3-24.98-16.98-21.83-10.56 2.94-14.82 15.91-7.49 24.24m-.74.62c-9.15-11.17.01-27.96 14.33-26.49 11.93 1.57 18.91 13.74 12.7 24.48-2.17 3.83-5.73 6.78-9.83 8.31-6.37 2.37-13.24-1.37-17.21-6.3Z" class="st8"/><path d="M183.96 103.89c-2.51 2.02-5.19 3.89-7.64 5.95-4.76 4.01-9.98 7.71-15.08 11.34" class="st2"/><path d="M163.46 102.57q1.53 2.055 3.33 4.2c1.19 1.43 2.38 2.76 3.54 4 1.22 1.54 2.44 3.08 3.66 4.61 2.49 3.13 5.24 6.75 7.73 9.88M157.3 106.19c-3.69-.22-4.92-.23-8.57-.61M225.37 115.31c-.84 4.96-.89 6.01-1.63 10.99-.18 1.2-.33 3.55-.6 4.74M248.52 117.66c-.68 6.16-1.09 9.5-1.61 15.67" class="st2"/><path d="M247.87 116.76c-4.74-.64-9.42 3.37-9.2 8.18.06 2.89 2.06 5.47 4.12 7.41 2.29 1.85 5.93 2.22 8.55.95 1.23-.77 2.34-1.58 3.16-2.78 3.89-5.81.4-13.11-6.62-13.75Zm.07-.99c8.21.43 12.65 8.94 8.04 15.84-1.16 1.58-2.92 2.93-4.73 3.65-3.22.98-6.9.38-9.44-1.86-2.2-2.29-4.15-5.08-4.18-8.44 0-5.36 5.08-9.63 10.3-9.18Z" class="st8"/><path d="M46.33 121.01c.28-2.31.38-3.56.53-6.38" class="st2"/><path d="M49.22 120.98c1.67-.49 3.14-.93 4.24-2.04 2.7-2.81 2.52-8.16-.29-10.88-3.16-2.61-8.02-3.57-11.55-1.14-2.76 1.8-4.24 5.52-3.35 8.68 1.21 4.13 6.43 6.96 10.95 5.38m.5 1.7c-5.43 1.67-11.33-1.95-12.46-6.83-1.5-8.02 7.26-13.74 14.28-10.03 5.49 2.07 6.78 9.89 3.06 14.19-1.23 1.44-3.13 2.21-4.88 2.67" class="st8"/><path d="M185.69 45.52c.04-.18.09-.36.14-.54 3.3.19 6.55.25 9.83.93.08 3.29-.41 6.48-.64 9.68-.43 6.11-.94 12.22-1.52 18.32-3.36-.25-6.76 0-10.07-.91.04-6.04.79-12.02 1.37-18.02.3-3.1.11-6.27.89-9.47Z" class="st1"/><path d="M215.02 126.17c-2.98-7.94 3.71-14 11.52-12.64 3.27.49 6.56 2.77 7.3 6.15 1.01 3.63.72 8.53-2.56 11.13-5.27 4.66-14.24 1.69-16.26-4.64m.91-.34c2.61 6.68 12.85 7.63 15.82.88.83-2.05.7-4.41.21-6.59-.54-3.31-4.17-5.26-7.41-5.42-6.52-.56-11.33 4.83-8.62 11.13" class="st8"/><path d="m12.93 108.2-2.16-.43c-.27-.05-.41-.29-.44-.54-.71-3.43-.24-6.84-.2-10.06-.44-6.54.53-13.3.76-19.84.85-16.42 1.73-33.19 2.68-49.56.16-2.1 3.32-2 3.26.19-1.31 16.4-2.56 33.1-3.78 49.5-.38 6.52-1.49 13.24-1.2 19.75-.13 3.36-.63 6.62-.04 9.72l-.44-.54 1.87.54c.79.21.5 1.43-.3 1.26Z" class="st20"/><path d="M14.86 116.04c-4.02-7.49 2.05-14.51 10.12-12.5 6.99.47 8.58 9.14 5.1 14.19-3.98 5.64-12.11 3.84-15.22-1.69m.75-.46c3.64 5.69 12.61 5.42 14.28-1.64.95-2.9.36-6.45-2.17-8.34-1.67-1.11-4.17-1.37-6.14-1.54-6.19-.05-9.2 6.5-5.97 11.52" class="st8"/><path d="M114.38 108.46c-.48 5.89-1 11.31-1.43 16.92M90.73 107.04c-.41 2.41-.4 4.85-.66 7.27a233.098 233.098 0 0 0-.77 9.15M45.87 112.68c-2.47-2.18-3.18-2.87-5.27-4.69M47.62 105.57c-.11 2.72-.2 5.45-.51 8.52" class="st2"/><path d="m120.25 122.26-4.72-3.71a61 61 0 0 1-8.26-7.47M23.46 104.04l-.63 7.37c-.04.49-.09.98-.13 1.47-.18 1.99-.38 3.96-.58 5.92" class="st2"/><path d="M16.3 106.27c1.98 1.84 2.9 2.59 4.59 4.09.67.5 1.55 1.34 2.77 2.37.6.51.84.73 1.35 1.16.72.61 1.8 1.47 3.22 2.43M84.17 109.82c.65.74 1.39 1.5 2.25 2.26.34.3.68.59 1.01.86M242.55 119.9c1.8 1.51 3.86 3.23 5.34 4.67 0 0 4.19 3.08 6.25 5.09M88.84 113.88a174.995 174.995 0 0 0 7 6.27M47.4 113.87c2.02 1.74 2.92 2.64 5.13 4.76" class="st2"/><path d="M264.81 121.2c-2.66-.14-4.4-.2-6.69-.34" class="st5"/><path d="M218.63 116.78c2.08 1.79 3.61 4.11 5.61 5.97 2.18 2.02 4.64 3.71 7 5.51" class="st2"/><path d="M216.52 126.85c2.78-1.18 5.86-2.71 9.09-4.68 2.22-1.35 4.2-2.73 5.96-4.07M239.79 129.14c2.33-1.4 12.26-7.13 14.2-8.48M120.53 112.58c-.75.4-1.32.96-2.64 1.74-2.25 1.33-3.63 2.3-4.92 3.14-1.55 1.01-3.06 2.04-6.02 3.55M96.07 111.71c-1.35.78-1.82 1-3.16 1.78a131.178 131.178 0 0 1-10.58 5.91M28.66 108.48c-.98.63-1.5.79-4.73 2.74-.97.59-1.73.95-2.44 1.32-2.28 1.19-4.49 2.21-6.11 2.94M52.91 110.13c-1.39.83-2.79 1.66-4.18 2.49-1.03.56-2.06 1.13-3.11 1.69-2.2 1.18-4.38 2.33-6.54 3.43" class="st2"/><path d="m217.13 50.57.43-7.36c.04-.5.46-.89.96-.89h2.24c.61 0 1.09.52 1.04 1.13l-.51 7.48" class="st8"/></svg>