<?xml version="1.0" encoding="UTF-8"?>
<svg id="_レイヤー_1" xmlns="http://www.w3.org/2000/svg" version="1.1" viewBox="0 0 100 100">
  <!-- Generator: Adobe Illustrator 30.0.0, SVG Export Plug-In . SVG Version: 2.1.1 Build 123)  -->
  <defs>
    <style>
      .st0 {
        fill: none;
      }

      .st1 {
        fill: #1c1917;
      }

      .st2 {
        fill: #fff;
      }
    </style>
  </defs>
  <g>
    <path class="st1" d="M52.58,19.92c-2.35-.97-6.26-2.15-10.88-1.36-.34.06-1.07.19-2.1.49-4.48,1.31-9.57,4.23-13.11,7.54-8.65,8.09-10.19,20.47-10.39,22.25,0,0-1.7,6.3-2.1,23,0,.34-.03,1.42.37,2.72.79,2.58,2.75,4.59,4.95,5.44.41.16,2.23.86,2.97.12.43-.43.29-1.14.62-1.24.41-.11.86.93,1.48,1.48,1.56,1.39,9.86-1.08,10.63-1.36,8.04,1.61,22.5.87,28.93-.74.87,1.24,3.22,2.03,5.32,2.1,1.58.05,2.25-.69,4.33-.74,1.68-.04,2.26.43,3.59.62,2.63.38,6.05-.64,7.67-2.6.69-.83,1.51-1.57,1.61-3.09.25-3.71-.81-6.07-1.11-8.28-.52-3.82.54-5.5.62-9.15.07-3.19.14-11.71-4.7-20.52-3.62-6.59-8.13-10.6-10.23-12.21-3.34-2.57-7.04-4.95-11.9-5.1-2.63-.08-2.97-.12-6.55.62h-.02Z"/>
    <g>
      <path class="st1" d="M75.69,78.98c-.41-.1-.39.25-.8.18-.4-.06-.63-.38-1.05-.39-.42,0-.41.14-.83.17-.41.04-.46-.26-.89-.19-.42.09-.46.37-.84.47-.37.11-.08.66-.44.77-.36.1-.57-.53-.87-.49s-.37.23-.7.22c-.35-.02-.2-.47-.53-.5-.33-.04-.4.4-.75.34-.35-.06-.34-.12-.68-.2-.34-.09-.27-.41-.58-.51-.31-.11-.53.32-.85.18-.16-.07-.25-.25-.31-.4-.05-.15-.05-.29-.06-.29l-1.06,1.69s.6.12.97.28c.38.16.29.4.69.54.4.13.48-.13.87-.03.39.09.32.42.73.49s.37-.52.76-.47c.4.04.5.25.92.26.43,0,.4.15.84.09.44-.08.43-.33.82-.43.37-.11.51.29.84.2.33-.09.21-.51.56-.58.34-.06.36.08.7.05.34-.02.35.16.68.16s.32-.5.67-.47c.35.05.31.45.63.52.33.08.38-.1.75,0s.4.45.71.52l.39-1.96c-.24-.05-.26.21-.61.12-.36-.1-.31-.25-.7-.35h.02Z"/>
      <path class="st1" d="M85.26,75.63c-.14.25.18.38,0,.66-.21.28-.58.23-.82.52-.26.3-.16.39-.37.63-.24.23-.44.01-.69.21-.24.2-.17.45-.45.64-.3.17.11.65-.23.83-.34.17-.66-.42-.97-.29-.32.12-.34.33-.68.44-.34.1-.34-.37-.67-.3-.33.08-.25.5-.6.57-.35.05-.36,0-.71.03s-.39-.3-.72-.29c-.33,0-.4.48-.75.45-.17-.02-.33-.14-.43-.27-.1-.12-.16-.25-.17-.25l-.39,1.96s.58-.11.99-.07c.41.02.4.28.83.27.42,0,.41-.29.82-.32.4-.04.44.29.85.22.41-.08.18-.61.56-.7s.56.06.95-.05c.38-.14.39.03.77-.12.38-.16.32-.4.69-.58.36-.19.58.18.94-.05.36-.24.1-.59.42-.84.32-.26.42-.16.72-.46.3-.33.43-.2.67-.47.25-.29-.16-.59.09-.9.24-.32.61-.12.84-.52.21-.41.04-.49.18-.91.12-.42.47-.48.51-.83l-1.99-.2c-.03.21.24.23.17.53-.09.29-.23.23-.35.49v-.03Z"/>
      <path class="st1" d="M84.31,64.01c0,.41.34.31.35.71,0,.39-.27.64-.24,1.04.05.4.17.38.23.78.06.4-.23.46-.16.85.08.39.36.42.44.8.09.37.66.12.74.48.09.37-.55.57-.47.93s.28.41.35.77c.07.36-.42.31-.36.66.05.35.49.3.53.66s-.01.37.01.73c.03.36-.31.4-.29.75,0,.35.48.4.48.77,0,.18-.12.35-.24.48-.11.13-.23.17-.23.19l1.99.2c0-.07-.17-.56-.16-.95,0-.4.26-.39.25-.8-.02-.4-.28-.39-.31-.79-.03-.39.3-.42.26-.82-.05-.4-.61-.2-.66-.59-.06-.38.12-.54.04-.92-.07-.38.08-.37,0-.75s-.33-.37-.42-.74c-.09-.37.33-.47.24-.84-.08-.36-.51-.25-.58-.62-.07-.36.07-.38.02-.73-.05-.35.14-.38.1-.73-.03-.35-.53-.28-.56-.65,0-.37.39-.41.39-.76s-.19-.36-.17-.72c.02-.36.37-.42.4-.68l-1.99-.22c-.03.3.23.29.2.68-.02.4-.18.39-.19.79v.04Z"/>
      <path class="st1" d="M84.91,51.97c.03.37.36.26.39.64.03.37-.27.61-.25.98s.15.37.16.74c.01.37-.29.39-.29.76s.27.46.27.83.61.26.61.64-.67.43-.69.78c-.01.36.17.46.14.82-.03.37-.48.19-.52.55-.04.36.39.42.34.78-.06.37-.11.36-.17.73s-.39.34-.45.71c-.06.38.4.51.35.89-.06.38-.52.69-.53.72l1.99.22s-.15-.48-.1-.85c.05-.36.3-.32.36-.69s-.21-.42-.15-.8.39-.32.44-.71-.53-.35-.49-.73.25-.49.28-.88.17-.34.19-.73c.02-.4-.23-.43-.22-.82,0-.38.43-.39.43-.77s-.44-.37-.44-.76.14-.39.12-.77c-.01-.38.18-.39.16-.78s-.53-.32-.55-.7c-.03-.38.37-.45.34-.83-.03-.38-.22-.37-.26-.75s.28-.51.25-.8l-1.99.24c.03.27.29.21.33.58.04.37-.11.38-.08.75h.03Z"/>
      <path class="st1" d="M82.11,40.43c.14.34.42.14.56.49.14.35-.06.66.06,1.01.12.35.25.3.37.66.12.35-.17.46-.05.8.11.35.38.36.49.72s.66.07.77.44c.1.36-.54.59-.44.95.09.36.29.4.39.76.08.36-.4.34-.32.7s.51.28.58.64.01.38.08.74c.06.37-.25.44-.19.8.05.36.54.34.59.71.06.37-.33.77-.33.79l1.99-.24s-.27-.47-.32-.85c-.06-.38.19-.42.14-.8-.07-.38-.34-.34-.41-.72-.07-.38.27-.43.19-.81-.08-.38-.62-.15-.7-.52-.08-.37.1-.54,0-.91-.09-.37.06-.37-.03-.74-.1-.37-.33-.36-.44-.72-.11-.37.3-.49.19-.87-.11-.37-.52-.23-.64-.6-.13-.36.01-.41-.11-.77-.13-.36.05-.43-.07-.79-.13-.36-.6-.15-.74-.5s.22-.54.08-.9-.32-.28-.48-.63c-.16-.35.11-.57-.01-.84l-1.81.84c.11.25.34.11.49.45s.02.39.15.74l-.03-.03Z"/>
      <path class="st1" d="M75.87,30.33c.24.28.45,0,.69.29.23.29.13.66.36.95s.33.21.56.51c.22.3-.02.48.2.79.21.3.48.22.69.53.21.3.65-.13.86.18.21.32-.32.73-.12,1.03.2.31.4.29.6.61s-.27.44-.08.76c.18.32.56.11.75.43.18.32.14.35.32.68.17.33-.11.5.06.83s.62.16.79.49c.17.34-.09.84-.08.85l1.81-.84s-.38-.37-.57-.71c-.18-.34.05-.45-.13-.8s-.42-.22-.6-.56.11-.49-.09-.83c-.19-.34-.63.05-.82-.28-.19-.33-.09-.53-.29-.86-.2-.32-.04-.37-.25-.69s-.44-.23-.65-.55.14-.57-.09-.88c-.22-.32-.57-.06-.8-.37-.22-.31-.11-.39-.34-.7-.23-.31-.08-.43-.32-.73s-.62.04-.85-.26c-.24-.3.05-.58-.2-.88-.25-.29-.39-.17-.65-.46-.25-.29-.06-.58-.26-.8l-1.48,1.34c.18.21.35,0,.6.28s.13.38.37.66h.01Z"/>
      <path class="st1" d="M66.89,22.62c.31.19.42-.15.74.05.31.2.33.57.63.78.31.21.38.09.69.31.3.22.13.47.43.69.3.22.53.06.82.29.3.23.58-.33.88-.1.3.23-.08.79.2,1.02s.47.15.75.39c.28.25-.13.51.14.75.27.25.57-.07.84.19.27.25.23.3.5.56s.05.51.31.77c.26.26.64-.04.9.24.26.27.17.82.19.83l1.48-1.34s-.49-.23-.75-.51-.09-.45-.36-.73c-.27-.28-.47-.08-.74-.35-.28-.27-.04-.51-.32-.77s-.59.24-.87-.02c-.29-.25-.24-.49-.53-.74s-.16-.34-.46-.59c-.3-.25-.49-.09-.79-.33s-.05-.58-.36-.81-.56.13-.87-.1c-.31-.23-.23-.34-.54-.57-.31-.22-.21-.38-.53-.59-.32-.22-.57.23-.89.02s-.14-.57-.48-.77c-.34-.2-.43-.04-.77-.22-.34-.19-.26-.53-.53-.67l-.91,1.78c.24.12.33-.13.65.05.32.18.24.31.56.5h0Z"/>
      <path class="st1" d="M55.76,20.25c.35-.04.24-.37.6-.4.36-.03.58.28.94.28s.37-.13.74-.12c.37,0,.38.32.75.33.38,0,.46-.24.83-.22.36.02.3-.6.67-.56.37.05.34.7.69.76.35.07.47-.12.83-.03.35.08.12.5.46.58.34.1.46-.32.81-.22.35.11.33.17.67.28.34.12.24.44.57.57s.57-.28.9-.13c.34.15.44.7.46.7l.91-1.78s-.54-.05-.9-.21-.25-.4-.63-.54c-.37-.15-.47.1-.84-.03-.37-.13-.26-.45-.64-.57-.39-.11-.43.47-.81.36-.38-.1-.45-.31-.84-.4-.39-.07-.31-.21-.71-.28-.39-.07-.47.18-.86.13-.39-.05-.36-.46-.77-.49-.41-.02-.41.41-.79.4s-.37-.16-.76-.17c-.38,0-.38-.2-.78-.2s-.35.51-.74.53c-.39.03-.46-.38-.87-.33-.4.05-.37.24-.75.3s-.53-.25-.82-.2l.36,1.97c.27-.05.19-.3.56-.36.36-.06.38.09.74.05h.02Z"/>
      <path class="st1" d="M43.78,19.22c.36-.02.27-.36.64-.37.37,0,.58.3.94.32.36.01.37-.13.73-.1.36.03.34.33.7.37.35.04.48-.2.84-.15.36.05.35-.56.72-.49.37.07.28.74.63.82.35.08.48-.07.84.02.35.1.1.51.44.61.34.11.48-.31.83-.19.35.12.33.17.67.3.22.08.34.22.45.35.12.12.25.34.52.23.57-.12.58-.61.92-.68.37-.07.79.29.81.28l-.36-1.97s-.45.29-.82.37c-.09.02-.17.02-.23,0-.04-.02-.07-.04-.1-.07-.06-.05-.11-.1-.21-.08-.19,0-.2.24-.48.14-.36-.14-.24-.45-.62-.58-.37-.13-.44.46-.81.34-.37-.11-.43-.34-.81-.44-.38-.09-.29-.24-.68-.33s-.48.14-.86.07-.32-.5-.71-.56-.44.38-.83.33c-.39-.05-.37-.19-.77-.22-.39-.03-.38-.22-.78-.23-.4-.01-.37.5-.75.5s-.44-.41-.83-.38c-.4.02-.38.21-.77.25s-.52-.29-.82-.25l.27,1.98c.26-.04.2-.29.56-.33.36-.04.37.11.73.1v.04Z"/>
      <path class="st1" d="M32.77,23.06c.32-.19.08-.45.4-.63.33-.18.66-.02.99-.19s.27-.29.6-.46c.33-.16.48.11.81-.05s.3-.43.64-.58,0-.67.33-.81c.35-.14.65.44.99.31.34-.13.36-.34.71-.47.35-.12.38.36.72.24s.22-.53.57-.64c.35-.11.37-.05.72-.13.36-.08.45.23.8.15s.3-.57.66-.65c.36-.07.76.32.78.31l-.27-1.98s-.48.26-.86.35-.43-.16-.82-.06c-.39.09-.32.36-.71.45-.38.09-.47-.24-.85-.12-.38.12-.09.63-.46.75-.36.13-.54-.02-.91.11-.36.14-.37-.02-.73.12-.36.14-.31.39-.66.54-.35.15-.53-.24-.89-.08-.35.16-.16.55-.51.72-.34.17-.41.04-.76.21-.34.18-.43.01-.77.19s-.06.61-.4.8c-.33.19-.57-.15-.9.05-.33.2-.23.36-.56.56-.32.2-.58-.03-.83.13l1.08,1.68c.23-.15.06-.35.38-.55.32-.2.39-.06.71-.25v-.02Z"/>
      <path class="st1" d="M23.93,30.82c.22-.3-.11-.44.12-.74.24-.29.62-.26.86-.54s.13-.37.37-.65c.23-.29.47-.08.73-.34.25-.26.13-.5.39-.76s-.25-.62.01-.89c.26-.27.77.19,1.03-.05.27-.25.22-.44.5-.68s.47.2.76-.03c.29-.23.02-.57.31-.8.3-.22.33-.18.63-.4s.51.04.81-.18c.3-.21.07-.64.38-.85.31-.21.83-.04.85-.05l-1.08-1.68s-.31.45-.63.66-.46.01-.78.23c-.32.23-.16.45-.47.68s-.5-.04-.82.2c-.31.24.14.62-.16.86s-.52.17-.81.42c-.29.25-.36.11-.65.37-.29.26-.17.46-.43.74-.27.27-.58-.02-.85.26-.28.28.05.58-.22.85-.27.27-.38.17-.63.47s-.39.17-.64.47.17.59-.08.89c-.25.29-.59.08-.82.39s-.07.43-.3.74-.56.2-.73.43l1.65,1.12c.16-.22-.08-.34.14-.64s.34-.21.56-.5Z"/>
      <path class="st1" d="M18.64,41.4c.11-.35-.23-.38-.12-.74.11-.36.48-.46.61-.81.13-.35,0-.4.13-.74.13-.35.41-.25.56-.59.14-.34-.06-.52.08-.86s-.46-.48-.32-.83c.16-.34.79-.11.95-.44.16-.33.03-.5.19-.83.16-.34.51,0,.69-.33.18-.32-.21-.53-.03-.86.18-.33.23-.3.4-.62.18-.32.48-.17.67-.48s-.19-.61.01-.92c.2-.32.74-.37.76-.38l-1.65-1.12s-.1.54-.31.86c-.21.33-.42.19-.62.52-.2.33.02.47-.17.81s-.47.17-.66.51.37.51.19.85c-.19.33-.42.35-.58.7-.17.35-.28.24-.45.59s.03.49-.13.84c-.15.35-.54.19-.69.55s.26.52.11.87-.28.3-.41.66-.31.3-.44.66c-.13.36.35.49.23.86-.12.36-.52.27-.63.64-.12.37.06.42-.05.79-.1.37-.45.36-.53.65l1.93.54c.08-.27-.19-.3-.09-.66s.26-.31.37-.66v-.03Z"/>
      <path class="st1" d="M16.23,53.18c.05-.37-.29-.34-.24-.71.06-.37.39-.54.46-.91.06-.37-.07-.39,0-.76s.37-.32.44-.68-.16-.5-.08-.85c.03-.15-.08-.34-.22-.42-.14-.11-.29-.17-.26-.37.05-.37.72-.34.77-.7.06-.36-.11-.48-.05-.85.07-.37.5-.15.57-.52.07-.36-.36-.45-.28-.82.08-.36.13-.35.21-.72.08-.36.41-.31.49-.67.09-.36-.37-.53-.28-.89.1-.36.61-.58.62-.6l-1.93-.54s.06.53-.04.91c-.09.37-.33.31-.43.69-.09.38.17.44.09.82s-.4.3-.49.68c-.08.38.51.38.44.75s-.29.46-.35.84-.2.31-.27.69c-.05.38.18.46.13.84-.06.46-.44.15-.54.59-.09.39.35.47.27.84-.07.38-.21.35-.28.73s-.25.35-.32.72c-.06.38.45.42.39.8-.06.38-.47.35-.52.73s.14.4.09.78c-.05.38-.4.43-.43.71l1.98.25c.03-.28-.23-.28-.18-.65.05-.37.2-.35.25-.72h0Z"/>
      <path class="st1" d="M15.15,65.24c.02-.38-.32-.31-.3-.69.02-.38.34-.58.36-.96.02-.38-.11-.38-.08-.76.03-.38.33-.37.36-.74.03-.38-.23-.48-.2-.86s-.59-.31-.56-.68c.03-.38.7-.38.73-.75.03-.37-.15-.48-.11-.86s.48-.2.52-.57c.03-.37-.4-.42-.36-.8.03-.38.09-.37.13-.74.04-.37.37-.36.41-.73.04-.37-.43-.48-.39-.85.05-.37.51-.67.52-.69l-1.98-.25s.15.52.1.89c-.05.38-.29.35-.33.73s.23.41.19.79-.37.34-.41.72.55.32.51.7-.25.48-.28.86-.18.32-.21.7.21.44.18.82-.46.35-.49.73.41.4.39.78c-.03.38-.17.37-.2.75s-.21.37-.24.75c-.02.38.49.37.47.75-.02.38-.43.39-.45.77-.02.38.17.39.15.77s-.36.45-.37.74l2,.09c.01-.28-.25-.26-.23-.64s.17-.37.19-.74l-.02-.03Z"/>
      <path class="st1" d="M16.33,76.53c-.2-.28-.44-.03-.62-.33-.18-.31,0-.63-.14-.94-.14-.31-.26-.26-.38-.59-.11-.33.18-.43.09-.75-.08-.32-.35-.35-.4-.69-.05-.34-.64-.16-.68-.53-.02-.38.64-.45.64-.78.01-.37-.17-.47-.16-.85s.47-.23.48-.61c.01-.38-.42-.4-.41-.77.01-.38.07-.38.08-.75.01-.38.34-.39.36-.76.02-.38-.46-.45-.45-.83.02-.38.46-.71.46-.73l-2-.09s.19.5.17.88c-.02.38-.27.37-.28.75-.02.38.26.39.25.77s-.34.36-.35.74.57.28.56.66c-.01.38-.21.49-.23.87-.01.38-.16.32-.17.71,0,.42.24.46.27.86.04.4-.39.46-.32.88.08.42.5.32.6.71s-.03.43.1.82c.14.38-.03.46.14.84.18.38.61.12.81.46.2.34-.13.59.11.94.24.34.4.22.65.54.26.3.08.61.3.84l1.43-1.4c-.18-.18-.34.02-.57-.24-.22-.27-.1-.36-.3-.64h-.04Z"/>
      <path class="st1" d="M25.27,79.81c-.2-.04-.29.25-.54.12-.11-.09-.12-.23-.13-.36-.02-.15-.04-.3-.15-.45-.25-.32-.31-.22-.67-.6-.21-.19-.45-.46-.92-.51-.22-.02-.5.04-.74.23-.22.17-.36.44-.38.52-.05.16.19.37.08.59-.14.17.35.68.04.84-.35.11-.64-.59-.83-.59-.22-.02-.26.16-.56.1-.33-.09-.08-.5-.39-.6-.31-.11-.48.29-.8.16-.31-.15-.29-.19-.59-.36s-.14-.46-.41-.64c-.26-.19-.6.16-.87-.07-.13-.12-.19-.31-.2-.47-.01-.17,0-.3,0-.31l-1.43,1.4s.53.24.84.5c.32.26.17.45.51.71.36.23.5,0,.86.21.36.2.21.49.6.67.4.17.49-.41.86-.28.38.13.43.35.87.46.5.09.44.24.98.26.54-.03.52-.27.96-.43.22-.11.37-.1.54-.1s.34-.03.5-.26c.27-.48-.14-.74-.01-1.18.02-.08,0,.02-.07.09-.08.07-.16.12-.25.13-.18.04-.27-.03-.21.03.16.17.02.32.24.61.25.33.6-.03.91.31.15.17.2.31.27.47.07.14.12.36.39.42.53.16.56-.02.98,0,.43.05.51.36.83.37l-.03-2c-.25,0-.23.28-.56.25-.31-.04-.34-.17-.53-.23h0Z"/>
      <path class="st1" d="M37.07,78.45c-.37-.05-.34.3-.71.24-.18-.03-.32-.13-.45-.23-.14-.1-.23-.2-.54-.25-.54-.13-.52.13-1.01.26-.36.11-.45-.18-.81-.08s-.37.38-.73.47c-.36.1-.09.66-.46.75-.37.09-.58-.54-.94-.45-.36.08-.41.29-.77.37-.37.08-.33-.4-.69-.33-.36.08-.28.5-.65.57-.36.07-.37.01-.74.07-.36.06-.43-.26-.79-.22-.35.04-.36.54-.72.56-.18.01-.36-.08-.5-.18-.13-.11-.21-.21-.22-.21l.03,2s.53-.22.92-.26c.4-.03.42.21.81.16.4-.05.35-.33.74-.39.38-.06.43.27.82.2.38-.07.16-.61.53-.69s.53.09.91,0c.37-.09.36.07.74-.01.37-.09.36-.34.73-.43.37-.1.49.31.86.21s.25-.52.61-.62c.36-.11.42.03.77-.08.23-.07.25.09.43.14.06.01.21-.09.31-.2.11-.11.22-.22.4-.19.38.06.35.48.73.53.38.05.41-.14.79-.09s.43.4.72.43l.22-1.99c-.27-.03-.27.23-.64.18s-.35-.2-.71-.25h0Z"/>
      <path class="st1" d="M49.09,78.98c-.38,0-.29.35-.66.36-.38.01-.6-.3-.98-.3s-.38.14-.75.14-.38-.3-.76-.3-.47.25-.84.25-.27.61-.65.6c-.38,0-.41-.67-.79-.69-.37-.01-.47.17-.85.15-.38-.01-.22-.47-.59-.49s-.4.41-.78.39c-.37-.02-.37-.08-.74-.1-.37-.03-.37-.34-.74-.38-.37-.03-.46.44-.84.41-.37-.04-.67-.49-.7-.5l-.22,1.99s.52-.16.9-.12.36.28.74.32.41-.25.79-.22c.38.02.35.36.74.38.38.02.3-.56.68-.53.38.01.49.22.87.23.38.01.33.17.71.18.38.02.43-.23.81-.22.38,0,.38.43.76.44.38,0,.38-.43.76-.43s.38.14.76.14.38.19.76.19.34-.51.72-.52c.38,0,.42.4.81.39.38,0,.38-.2.75-.21.38,0,.48.32.77.31l-.08-2c-.28.01-.23.28-.61.29-.38,0-.38-.15-.75-.14h0Z"/>
      <path class="st1" d="M61.1,77.94c-.37.06-.23.38-.61.44-.37.06-.63-.22-1-.16-.37.05-.35.18-.73.23-.37.05-.42-.26-.79-.21-.37.05-.43.31-.8.35s-.19.63-.57.67-.49-.62-.86-.59c-.37.03-.45.22-.82.25-.38.03-.28-.44-.65-.41-.37.03-.35.46-.72.49-.38.02-.38-.03-.75,0-.38.02-.41-.3-.79-.28-.37.02-.4.5-.78.52-.38.02-.74-.4-.77-.4l.08,2s.48-.23.86-.24c.38-.02.39.23.77.22.38-.02.37-.3.75-.32s.39.31.77.28.23-.59.6-.62c.38-.03.51.16.89.13.38-.03.35.12.73.09.38-.03.4-.28.78-.32.38-.04.43.38.81.35.38-.04.32-.47.7-.52.38-.05.4.1.77.05.38-.05.4.14.78.09.38-.06.27-.56.65-.61.38-.06.48.34.86.28.38-.07.35-.26.72-.33.38-.07.53.25.82.19l-.39-1.96c-.27.05-.19.3-.55.37-.37.07-.39-.09-.76-.02h0Z"/>
      <g>
        <path class="st1" d="M65.22,78.31h-.03l-.03-.03-.05-.05-.02-.02-.02-.02-.03-.02h-.12l-.1.06-.1.05-.05.02h-.08s-.02-.01-.02-.01v-.02s-.04-.03-.04-.03l-.02-.03-.02-.03v-.02h-.02s-.01-.01-.01-.01l-.02-.02h-.12l-.09.02-.09.02h-.45s-.02-.01-.02-.01l-.02-.03-.02-.02-.03-.04-.06-.1-.03-.05-.03-.05-.02-.02-.02-.02h-.02l-.02-.03s-.06-.02-.09-.03l-.09-.03c-.06-.02-.13-.03-.18-.04h-.07s0,.01,0,.01v.02s-.03.02-.03.02l-.02.03-.03.02h0l-.02.02h-.08s-.02-.01-.02-.01l-.02-.03s-.06-.06-.09-.09l-.05-.04-.05-.04h-.02l-.02-.02h-.04l.2.98.1.49.1.49h.04s.02-.03.02-.03h.02v-.02h.05s0-.01,0-.01c0,0,.03-.05.05-.07l.03-.03h.02l.02-.02h.1s.04.02.07.03c.03,0,.06.01.1.02.03,0,.07.02.1.03h.03s.29.15.29.15h0s.03-.01.04-.02h.16l.02.02.04.02s.05.03.07.05l.03.02h.07s.01.01.01.01v.05l.02.04v.04l.02.04v.02h.02s.01.01.01.01v.02s.03.01.04.02l.04.03s.05.04.07.05l.27-.42.27-.42.53-.85h-.02s-.03-.01-.03-.01h-.27Z"/>
        <path class="st0" d="M63.04,80.71l-.83-4.1,1.25-.28,1.33-.33.79,1.13h.01v.03s.01.02.01.02h.02l.04.05.02.02.03.02.06.05h.01l.02.03.04.03.08.06h.02l.02.03.05.03-1.06,1.69-.53.85-.27.42-.13.21-.07.11-.03.05-.02.03h0v.02h0c-.58-.11-.56-.1-.87-.16h0Z"/>
      </g>
    </g>
  </g>
  <path class="st2" d="M70.13,46.37c-.19-.6-.91-1.92-1.11-2.23-4.4-6.78-5.41-12.41-7.54-15.08-.12,1.39-.34,2.57-.49,3.34-.12.59-1.58,5.41-3.93,8.62-.1.14-.83.31-1.36.03.06-.74,1.21-2.23,1.21-4.2-.58.78-2.41,3.25-3.43,4.3-.45.23-1.07.34-4.73.53-4.88.25-5.84.19-6.68-.37-.25-1.08-.34-1.7-.49-2.6-.46.65-1.33,1.89-1.95,2.84-1.51.28-2.87.46-4.73.62-.86.07-2.47-.25-2.47-.25h0s-1.76,2.12-3.46,2.97c-.57.28-1.24.4-1.89.4.01.12.02.24.03.34-.31,3.22-.61,8.07-.25,13.97.46,7.6.74,11.47,3.21,14.96,3.66,5.17,9.55,6.65,12.61,7.42,2.68.68,10.05,2.53,17.18-1.48,4.84-2.72,7.15-6.78,8.28-8.78,1.46-2.56,2.11-4.7,2.56-7.79,1.76-.12,4.9-.41,6.21-2.84,1.08-1.99,1.24-7.73-1.11-8.41-2.6-.74-3.94,2.81-3.96,1.98-.05-2.49-.8-5.41-1.73-8.28h.02Z"/>
  <g>
    <path class="st1" d="M48.07,57.85c-.08-.11-.21-.2-.36-.26-.14-.06-.32-.08-.5-.08s-.35.03-.49.07c-.15.04-.31.09-.4.15s-.12.14-.13.22l1.98.26c.02-.13,0-.26-.09-.37h0Z"/>
    <path class="st1" d="M46.97,62.01c-.11-.05-.38.25-.52.17-.14-.09.13-.36.05-.43-.08-.09-.25,0-.34-.13-.07-.12.35-.23.32-.33,0-.1-.38-.09-.37-.23.03-.12-.84-.12-.76-.31.1-.18.99-.03,1.06-.11.09-.08-.09-.18.04-.25s.53.19.61.14c.06-.04-.17-.24-.18-.37,0-.02,0-.04.02-.06.17-.17.23-.15.39-.38.15-.23.45-.08.58-.36.12-.29-.32-.48-.25-.72.06-.23.52-.41.52-.43l-1.98-.26s.18.24.13.39c-.05.15-.28.06-.33.17-.05.1.19.24.11.36-.11.12-.3-.13-.45,0-.03.03-.06.05-.07.08-.09.19.3.46.11.6-.21.15-.48.1-.68.26-.19.17-.32.09-.48.31-.15.23.08.3-.02.54-.08.24-.51.23-.54.52,0,.3.43.24.46.5.07.25-.07.29.05.52.14.23-.04.3.14.52.19.21.62-.08.81.08.2.14-.1.43.14.58.25.13.38-.02.63.06.26.05.16.36.39.41l.87-1.85c-.09,0-.21.23-.35.21s-.03-.16-.14-.2h.03Z"/>
    <path class="st1" d="M47.62,62.52c0-.15-.03-.27-.06-.36-.02-.09-.05-.16-.11-.17h0l-.87,1.85h0c.14.03.3.02.44-.03.14-.06.27-.18.36-.31s.16-.3.19-.48c.04-.18.05-.36.04-.5h.01Z"/>
  </g>
  <g>
    <path class="st1" d="M61.67,48.77c.11,0,.25-.04.4-.09.14-.05.3-.13.45-.23s.27-.21.36-.34.19-.27.2-.4c0-.13-.04-.25-.13-.34l-1.5,1.32s.12.08.22.08Z"/>
    <path class="st1" d="M57.18,47.56c.17-.03.07-.36.25-.39.18-.02.32.27.49.25.17,0,.16-.15.34-.16.18,0,.18.31.35.31.16,0,.22-.24.4-.23.17.02.19-.59.38-.57.19.02.09.69.25.73.16.03.25-.13.42-.08s-.04.47.1.52c.14.06.32-.35.47-.27.15.08.13.12.27.2.14.09-.04.37.08.44.11.09.43-.27.56-.16.12.13-.09.52-.09.52l1.5-1.32s-.37-.1-.54-.25c-.18-.15-.02-.35-.22-.5-.21-.14-.36.09-.55-.03-.2-.11-.04-.4-.26-.51-.22-.11-.39.46-.59.37-.2-.08-.2-.29-.42-.35-.21-.07-.15-.21-.37-.25-.22-.05-.29.18-.51.15-.21-.03-.17-.46-.4-.48-.23,0-.25.42-.46.41-.21,0-.21-.15-.43-.15-.22,0-.23-.18-.45-.16s-.15.53-.35.55c-.21.02-.29-.36-.51-.32-.22.04-.17.24-.38.29-.21.05-.36-.24-.53-.19l.65,1.89c.12-.04.02-.29.19-.33s.2.1.37.07h-.01Z"/>
    <path class="st1" d="M56.53,47.16c.07-.04.14-.1.19-.02.07.06.02.34-.07.47-.08.13-.15.19-.14.22.04,0,.08.02.12,0h0l-.65-1.89h0s-.1.04-.15.08c-.1.06-.26.16-.41.37-.17.22-.19.56-.12.67.06.13.14.14.21.14.15,0,.33,0,.5.06s.37.02.51-.08v-.02Z"/>
  </g>
  <g>
    <path class="st1" d="M40.5,48.1c.09-.06.19-.17.27-.3s.16-.29.21-.46c.06-.17.08-.34.09-.49,0-.16,0-.33-.05-.43-.05-.11-.14-.16-.24-.19l-.54,1.93c.08.02.16,0,.25-.06h.01Z"/>
    <path class="st1" d="M36.06,48.74c.12-.09-.1-.35.04-.44s.39.12.53.04c.14-.07.07-.2.22-.26.15-.07.27.21.41.16.13-.06.09-.31.24-.36.15-.04-.06-.62.11-.66.18-.04.33.61.47.59.15-.02.17-.21.33-.22.16,0,.13.45.27.45s.16-.44.32-.43c.16,0,.16.07.32.08.16.02.13.35.28.37.15.03.27-.44.44-.4.17.04.21.5.21.5l.54-1.93s-.31.13-.5.09c-.2-.04-.15-.28-.36-.32-.21-.03-.25.24-.45.22s-.17-.36-.39-.36-.17.56-.37.57c-.2,0-.27-.19-.48-.18-.21.02-.2-.13-.41-.11-.21.04-.19.28-.39.32-.2.05-.32-.37-.53-.3s-.06.48-.25.55-.25-.05-.44.03c-.19.09-.27-.07-.46.03-.18.1.1.53-.07.63-.16.1-.4-.23-.58-.11-.18.13-.06.28-.22.42s-.43-.07-.56.07l1.45,1.38c.07-.07-.13-.25-.02-.34.11-.1.21.03.33-.06l-.03-.02Z"/>
    <path class="st1" d="M35.17,49.08c.14.06.26.08.36.09.1,0,.18.02.22-.03h0l-1.45-1.38h0c-.08.08-.13.2-.13.33s.07.28.17.4c.09.12.22.24.37.34.15.1.31.18.45.24h.01Z"/>
  </g>
  <ellipse class="st1" cx="38.66" cy="55.04" rx="1.84" ry="1.11" transform="translate(-17.93 91.39) rotate(-87.63)"/>
  <ellipse class="st1" cx="58.78" cy="54.58" rx="1.84" ry="1.11" transform="translate(1.82 111.05) rotate(-87.63)"/>
  <g>
    <path class="st1" d="M44.23,69.49c-.13.01-.28.07-.42.15s-.27.2-.38.34-.18.3-.21.46c-.03.16-.06.34,0,.49.05.14.17.26.31.34l1.06-1.69c-.1-.06-.22-.1-.35-.08h-.01Z"/>
    <path class="st1" d="M51.31,69.88c-.22.12-.02.39-.25.51-.24.11-.5-.12-.73-.03-.24.08-.19.21-.44.28s-.33-.23-.56-.18c-.24.04-.26.31-.51.34-.25.02-.12.63-.4.64-.28,0-.32-.65-.57-.67-.25,0-.33.17-.58.14-.26-.03-.1-.48-.33-.52-.23-.05-.33.37-.59.31-.25-.07-.23-.12-.47-.21-.24-.08-.14-.4-.36-.49-.22-.1-.46.32-.7.2-.12-.06-.17-.22-.2-.36-.02-.14-.02-.26-.03-.27l-1.06,1.69s.46.04.73.18.17.36.46.5c.3.12.4-.13.69-.03.29.1.19.41.5.5.31.08.35-.5.65-.44.3.05.36.27.67.3.31.04.26.18.57.2.32.02.35-.24.66-.24.3-.02.34.4.67.38.32-.05.25-.47.54-.53.3-.06.33.08.63,0s.35.09.66,0c.3-.12.08-.57.35-.69.27-.12.47.23.76.09.27-.15.18-.32.44-.48.25-.16.51.07.71-.07l-1.19-1.61c-.15.11.02.31-.19.45-.22.14-.29,0-.51.13l-.02-.02Z"/>
    <path class="st1" d="M52.78,69.31c-.15-.07-.29-.09-.42-.09s-.25.01-.35.08h0l1.19,1.61h0c.12-.09.23-.22.27-.36.04-.15.03-.32-.02-.48-.05-.15-.14-.31-.26-.44-.12-.13-.27-.24-.41-.31h0Z"/>
  </g>
  <g>
    <path class="st1" d="M27.94,46.18c-.07-.15-.19-.29-.34-.39-.14-.09-.31-.14-.49-.16s-.35.02-.5.09c-.16.07-.33.15-.43.29-.1.13-.14.31-.16.49l1.99.17c.01-.17-.01-.35-.08-.49h.01Z"/>
    <path class="st1" d="M27.63,56.77c-.01-.36-.35-.27-.36-.62,0-.36.3-.57.29-.92,0-.35-.14-.35-.14-.71s.31-.36.31-.72-.26-.44-.25-.8c0-.35-.61-.25-.6-.61,0-.36.68-.39.69-.74.01-.35-.17-.45-.16-.8.01-.36.47-.21.49-.56.01-.35-.42-.38-.4-.73s.07-.35.09-.71c.02-.35.35-.35.37-.7.02-.35-.45-.44-.43-.79.03-.35.48-.65.49-.67l-1.99-.17s.17.48.14.84-.27.34-.3.7c-.03.36.25.38.23.74s-.35.33-.37.7c-.02.36.56.28.54.64-.01.36-.22.46-.23.82s-.16.31-.18.67c0,.36.23.41.22.77,0,.36-.43.36-.44.72,0,.36.43.36.43.72s-.15.36-.15.72-.19.36-.18.72c0,.36.51.32.52.68,0,.36-.4.4-.39.76.01.36.21.35.22.71s-.32.46-.31.73l2-.09c-.01-.26-.27-.22-.29-.58-.01-.36.14-.36.13-.71h.01Z"/>
    <path class="st1" d="M28.54,68.13c-.06-.34-.38-.21-.44-.56-.05-.35.23-.6.18-.94-.04-.35-.17-.33-.21-.69-.04-.35.27-.39.23-.74-.03-.35-.3-.41-.33-.76s-.63-.19-.66-.55c-.03-.36.63-.46.61-.81-.03-.35-.22-.43-.24-.78-.02-.36.45-.26.42-.62-.02-.36-.46-.33-.48-.69-.02-.36.03-.36.01-.72s.3-.4.28-.75c-.02-.35-.5-.38-.52-.73-.02-.36.4-.7.4-.73l-2,.09s.23.46.25.82-.23.37-.21.73.3.34.32.7-.31.37-.29.73c.02.36.59.21.61.57s-.17.48-.14.84-.13.33-.1.68c.03.36.27.38.3.74.03.36-.4.4-.37.76.03.36.47.31.5.67s-.11.37-.07.73-.15.38-.11.74c.05.36.55.26.6.62.05.36-.35.45-.28.82.06.36.25.33.32.69s-.24.52-.18.79l1.95-.45c-.06-.25-.3-.16-.37-.5-.07-.34.08-.36.02-.71h0Z"/>
    <path class="st1" d="M33.9,77.23c-.27-.2-.42.11-.69-.12-.26-.23-.23-.57-.46-.81-.24-.24-.34-.14-.58-.38-.24-.24,0-.47-.24-.71-.22-.25-.49-.13-.69-.4-.21-.27-.63.19-.84-.09-.22-.28.3-.71.12-.98-.19-.28-.38-.25-.55-.55-.17-.29.29-.41.15-.7-.14-.29-.55-.1-.68-.42-.13-.31-.09-.33-.21-.65-.11-.32.18-.44.08-.76-.09-.32-.57-.23-.67-.56-.08-.34.26-.75.25-.77l-1.95.45s.32.42.41.78c.11.36-.13.43-.02.79.12.36.39.27.52.63.13.35-.17.47-.02.83s.64,0,.8.34c.16.33.05.53.24.86s.04.37.25.68c.21.32.43.22.66.51s-.11.56.13.87c.24.3.58,0,.82.28.25.27.13.38.4.65.27.26.14.4.41.66.27.27.59-.15.87.09.28.23.05.58.34.81.3.22.42.07.72.29.3.22.19.54.43.7l1.09-1.68c-.21-.14-.33.1-.62-.09-.28-.2-.18-.33-.46-.53v-.02Z"/>
    <path class="st1" d="M44.13,81.41c-.34-.08-.34.27-.69.19-.35-.08-.47-.44-.82-.52-.35-.09-.38.04-.72-.05-.34-.09-.27-.39-.61-.48-.34-.09-.49.13-.82.03-.33-.1-.41.52-.75.4-.34-.11-.17-.75-.5-.87-.32-.12-.47.03-.79-.1s-.03-.51-.35-.64-.49.26-.81.12-.3-.19-.6-.35c-.31-.16-.18-.45-.47-.61-.29-.17-.57.23-.87.05-.3-.17-.33-.72-.35-.73l-1.09,1.68s.51.1.84.28c.32.18.2.4.52.59.34.17.46-.07.79.09.33.17.18.46.52.62.34.15.47-.41.8-.27.34.14.37.37.71.5s.25.25.6.38.47-.1.81.02c.35.12.23.52.58.63.35.11.47-.32.82-.22s.31.24.66.33c.35.09.3.28.65.36.35.09.44-.41.79-.33.35.09.29.49.64.57.36.08.4-.11.75-.03.36.07.38.42.65.47l.36-1.97c-.25-.05-.27.22-.62.15-.34-.07-.31-.22-.65-.3h.02Z"/>
    <path class="st1" d="M55.12,81.45c-.33.08-.18.4-.52.48-.34.09-.6-.2-.94-.13-.34.06-.31.2-.66.25-.34.04-.39-.26-.73-.22s-.39.31-.74.33c-.34.02-.2.63-.56.65-.36.03-.43-.66-.77-.65-.34,0-.43.2-.78.18-.35-.01-.21-.47-.55-.48s-.37.42-.72.39c-.35-.03-.34-.08-.69-.11-.35-.04-.33-.37-.67-.41-.34-.04-.46.42-.8.37-.35-.05-.59-.54-.61-.54l-.36,1.97s.51-.12.87-.06c.36.06.32.31.69.35s.4-.23.77-.19c.37.03.33.36.7.39s.3-.55.66-.53c.36.01.47.22.84.23.37,0,.32.15.69.15s.41-.23.77-.26c.37-.02.4.4.77.38.37-.02.32-.46.69-.51.36-.04.38.1.75.05.37-.05.4.12.76.06.37-.07.23-.56.59-.63.35-.08.48.3.84.21.36-.09.31-.28.67-.37.35-.12.54.18.81.09l-.64-1.9c-.24.08-.13.32-.46.43-.33.11-.37-.06-.7.03h.03Z"/>
    <path class="st1" d="M64.31,75.73c-.22.26.07.43-.16.68-.23.26-.6.18-.85.42-.24.24-.15.34-.41.57s-.46.01-.72.23c-.26.21-.16.47-.43.68s.18.63-.11.84c-.28.22-.72-.32-.99-.12-.28.19-.25.4-.55.57-.3.18-.43-.28-.72-.11-.29.16-.1.54-.4.7-.31.16-.33.11-.64.27-.31.15-.47-.15-.78-.02-.31.13-.17.6-.5.73-.33.12-.77-.19-.79-.18l.64,1.9s.4-.34.74-.48c.34-.14.44.09.78-.06.35-.15.24-.39.57-.55.33-.17.47.13.81-.04s-.04-.63.29-.79c.31-.18.52-.07.83-.26.32-.19.36-.05.67-.25.31-.21.21-.42.51-.65.29-.22.56.12.86-.11.29-.24,0-.57.29-.81.29-.23.37-.13.65-.38.27-.25.41-.11.67-.37.26-.27-.12-.59.13-.86.25-.27.57-.02.82-.29.24-.28.09-.41.33-.69.23-.28.55-.15.73-.37l-1.58-1.23c-.16.2.07.34-.15.61-.22.27-.34.16-.56.42h.02Z"/>
    <path class="st1" d="M69.43,66.02c-.07.34.27.34.18.68-.08.34-.44.45-.54.78-.09.33.02.37-.09.69-.11.33-.41.23-.53.54-.12.31.09.49-.06.8-.14.31.47.48.31.79-.16.32-.77.06-.93.37-.17.3-.04.47-.21.77-.18.31-.52-.03-.69.27-.17.3.2.53.02.83s-.23.27-.41.57c-.19.29-.47.13-.66.41-.2.28.17.6-.03.88-.21.28-.74.28-.76.29l1.58,1.23s.12-.51.34-.8c.21-.3.42-.16.63-.46.2-.31-.02-.46.18-.77.19-.31.48-.13.67-.45.19-.32-.36-.51-.18-.83.18-.31.41-.31.59-.63.18-.32.29-.21.47-.53.17-.33-.03-.48.14-.81.16-.33.55-.16.7-.51.16-.34-.26-.51-.12-.85s.27-.29.39-.64.31-.29.41-.65c.1-.36-.39-.46-.29-.82.09-.35.5-.29.58-.65s-.11-.4-.04-.76.41-.38.47-.66l-1.97-.35c-.05.25.22.27.16.61-.07.34-.22.31-.29.64l-.02.02Z"/>
    <path class="st1" d="M70.7,54.76c0,.35.34.28.32.63-.02.35-.34.54-.36.88-.03.34.11.36.07.72-.03.36-.34.34-.37.69-.03.36.22.47.18.82-.03.36.59.3.55.66-.03.36-.7.34-.74.7-.04.35.14.46.11.81-.04.35-.49.18-.52.53-.04.35.4.41.35.76-.04.35-.1.35-.14.7-.05.35-.37.33-.42.67-.04.35.42.46.37.81-.05.35-.53.6-.54.62l1.97.35s-.12-.5-.07-.86c.06-.36.3-.32.35-.68.05-.36-.22-.4-.18-.76.04-.36.37-.31.41-.67.04-.36-.54-.31-.5-.67.04-.36.25-.45.29-.8.03-.36.18-.3.22-.65.03-.36-.2-.42-.17-.78s.46-.32.49-.68-.4-.39-.37-.74c.03-.36.18-.34.21-.7s.22-.33.25-.71c.03-.37-.48-.37-.46-.73.02-.36.43-.38.44-.75,0-.37-.19-.37-.19-.74s.33-.46.32-.74l-2,.06c0,.26.27.22.27.57s-.15.34-.16.69h.02Z"/>
    <path class="st1" d="M68.7,43.84c.13.33.42.14.55.47.13.33-.09.64.02.96.1.3.23.28.33.61s-.2.43-.1.76c.1.33.36.35.45.69s.65.09.73.44-.56.54-.49.88.26.39.33.73c.06.35-.42.3-.36.64.05.34.49.28.53.63.04.35,0,.35.03.7.04.35-.28.4-.26.74.03.34.51.36.53.71s-.4.69-.4.71l2-.06s-.22-.47-.24-.83c-.02-.37.22-.38.2-.75-.03-.37-.31-.34-.35-.71-.04-.36.29-.4.24-.76-.05-.37-.6-.18-.66-.53-.05-.36.12-.5.06-.86-.06-.36.09-.35.02-.7-.07-.36-.32-.35-.4-.71-.08-.35.33-.46.24-.82-.09-.36-.51-.24-.61-.59s.05-.39-.06-.74c-.11-.36.08-.39-.05-.78-.13-.36-.59-.14-.72-.48-.13-.34.24-.51.11-.85s-.31-.26-.44-.6c-.13-.33.15-.54.04-.8l-1.85.76c.1.24.33.11.46.44.13.33-.01.38.12.71h0Z"/>
    <path class="st1" d="M68.26,41.77c-.1.13-.15.29-.18.45-.02.15-.03.32.04.47h0l1.85-.76h0c-.07-.16-.17-.32-.31-.42s-.32-.17-.5-.19c-.18-.03-.37,0-.51.11-.15.11-.29.22-.39.34Z"/>
  </g>
</svg>