<?xml version="1.0" encoding="UTF-8"?>
<svg id="_レイヤー_1" xmlns="http://www.w3.org/2000/svg" xmlns:xlink="http://www.w3.org/1999/xlink" version="1.1" viewBox="0 0 100 100">
  <!-- Generator: Adobe Illustrator 30.0.0, SVG Export Plug-In . SVG Version: 2.1.1 Build 123)  -->
  <defs>
    <style>
      .st0 {
        fill: #f2eee4;
      }

      .st1 {
        fill: none;
      }

      .st2, .st3 {
        fill: #1c1917;
      }

      .st4 {
        fill: #231815;
      }

      .st5 {
        fill: #fff;
      }

      .st6 {
        fill: url(#_6_dpi_40_);
      }

      .st3 {
        stroke: #1c1917;
        stroke-miterlimit: 10;
        stroke-width: .44px;
      }
    </style>
    <pattern id="_6_dpi_40_" data-name="6 dpi 40%" x="0" y="0" width="48" height="48" patternTransform="translate(-6155.85 -5163.36) rotate(10.63) scale(.3)" patternUnits="userSpaceOnUse" viewBox="0 0 48 48">
      <g>
        <rect class="st1" y="0" width="48" height="48"/>
        <g>
          <path class="st4" d="M24,52.8c2.65,0,4.8-2.15,4.8-4.8s-2.15-4.8-4.8-4.8-4.8,2.15-4.8,4.8,2.15,4.8,4.8,4.8Z"/>
          <path class="st4" d="M48,52.8c2.65,0,4.8-2.15,4.8-4.8s-2.15-4.8-4.8-4.8-4.8,2.15-4.8,4.8,2.15,4.8,4.8,4.8Z"/>
          <path class="st4" d="M24,28.8c2.65,0,4.8-2.15,4.8-4.8s-2.15-4.8-4.8-4.8-4.8,2.15-4.8,4.8,2.15,4.8,4.8,4.8Z"/>
          <path class="st4" d="M48,28.8c2.65,0,4.8-2.15,4.8-4.8s-2.15-4.8-4.8-4.8-4.8,2.15-4.8,4.8,2.15,4.8,4.8,4.8Z"/>
          <path class="st4" d="M36,40.8c2.65,0,4.8-2.15,4.8-4.8s-2.15-4.8-4.8-4.8-4.8,2.15-4.8,4.8,2.15,4.8,4.8,4.8Z"/>
          <path class="st4" d="M12,40.8c2.65,0,4.8-2.15,4.8-4.8s-2.15-4.8-4.8-4.8-4.8,2.15-4.8,4.8,2.15,4.8,4.8,4.8Z"/>
          <path class="st4" d="M36,16.8c2.65,0,4.8-2.15,4.8-4.8s-2.15-4.8-4.8-4.8-4.8,2.15-4.8,4.8,2.15,4.8,4.8,4.8Z"/>
          <path class="st4" d="M12,16.8c2.65,0,4.8-2.15,4.8-4.8s-2.15-4.8-4.8-4.8-4.8,2.15-4.8,4.8,2.15,4.8,4.8,4.8Z"/>
        </g>
        <g>
          <path class="st4" d="M0,52.8c2.65,0,4.8-2.15,4.8-4.8s-2.15-4.8-4.8-4.8-4.8,2.15-4.8,4.8,2.15,4.8,4.8,4.8Z"/>
          <path class="st4" d="M0,28.8c2.65,0,4.8-2.15,4.8-4.8s-2.15-4.8-4.8-4.8-4.8,2.15-4.8,4.8,2.15,4.8,4.8,4.8Z"/>
        </g>
        <g>
          <path class="st4" d="M24,4.8c2.65,0,4.8-2.15,4.8-4.8s-2.15-4.8-4.8-4.8-4.8,2.15-4.8,4.8,2.15,4.8,4.8,4.8Z"/>
          <path class="st4" d="M48,4.8c2.65,0,4.8-2.15,4.8-4.8s-2.15-4.8-4.8-4.8-4.8,2.15-4.8,4.8,2.15,4.8,4.8,4.8Z"/>
        </g>
        <path class="st4" d="M0,4.8c2.65,0,4.8-2.15,4.8-4.8S2.65-4.8,0-4.8-4.8-2.65-4.8,0-2.65,4.8,0,4.8Z"/>
      </g>
    </pattern>
  </defs>
  <path class="st6" d="M88.78,81.54c.24-4.36-1.04-7.12-1.43-9.71-.67-4.48.56-6.47.59-10.76.03-3.75-.01-13.76-5.82-24.04-4.35-7.68-9.71-12.32-12.2-14.19-3.96-2.97-8.34-5.71-14.05-5.81-3.09-.05-3.49-.1-7.69.82-2.77-1.11-7.38-2.44-12.8-1.44-.39.07-1.25.24-2.46.61-5.25,1.6-11.18,5.12-15.28,9.05-10.03,9.63-11.66,24.2-11.87,26.29,0,0-1.9,7.43-2.13,27.04,0,.4,0,1.67.48,3.19.96,3.02,3.3,5.35,5.89,6.32.49.18,2.63.98,3.49.1.5-.51.32-1.35.71-1.46.48-.14,1.03,1.08,1.76,1.72,1.83,1.58,11.25-1.32,12.4-1.73.3.18.61.35.91.51.69.36,1.37.68,2.05.96.63.26,1.25.49,1.85.69.69.23,1.35.43,1.97.6.57.16,1.1.29,1.58.41.03,0,.05.01.08.02.24.06.47.11.68.16,1.58.38,4.54,1.08,8.15,1.09.45,0,.91,0,1.38-.03,1.41-.07,2.89-.25,4.42-.61.51-.12,1.02-.25,1.54-.41,1.55-.47,3.12-1.14,4.68-2.04,1.23-.71,2.31-1.5,3.28-2.32.53-.11,1.02-.23,1.48-.35,1.04,1.44,3.82,2.34,6.28,2.39,1.86.04,2.63-.85,5.07-.94,1.98-.07,2.66.47,4.22.67,3.1.41,7.09-.84,8.96-3.16.8-.99,1.75-1.86,1.84-3.65Z"/>
  <g>
    <path class="st3" d="M54.88,10.99c-2.77-1.11-7.38-2.44-12.8-1.44-.39.07-1.25.24-2.46.61-5.25,1.6-11.18,5.12-15.28,9.05-10.03,9.63-11.66,24.2-11.87,26.29,0,0-1.9,7.43-2.13,27.04,0,.4,0,1.67.48,3.19.96,3.02,3.3,5.35,5.89,6.32.49.18,2.63.98,3.49.1.5-.51.32-1.35.71-1.46.48-.14,1.03,1.08,1.76,1.72,1.86,1.6,11.57-1.41,12.47-1.76,9.46,1.77,26.44.68,33.97-1.3,1.04,1.44,3.82,2.34,6.28,2.39,1.86.04,2.63-.85,5.07-.94,1.98-.07,2.66.47,4.22.67,3.1.41,7.09-.84,8.96-3.16.8-.99,1.75-1.86,1.84-3.65.24-4.36-1.04-7.12-1.43-9.71-.67-4.48.56-6.47.59-10.76.03-3.75-.01-13.76-5.82-24.04-4.35-7.68-9.71-12.32-12.2-14.19-3.96-2.97-8.34-5.71-14.05-5.81-3.09-.05-3.49-.1-7.69.82Z"/>
    <path class="st5" d="M75.9,41.81c-.24-.7-1.1-2.24-1.34-2.6-5.27-7.89-6.54-14.49-9.08-17.6-.12,1.64-.36,3.02-.53,3.93-.13.69-1.77,6.38-4.48,10.19-.12.17-.98.38-1.6.06.06-.87,1.38-2.63,1.35-4.96-.67.92-2.78,3.85-3.97,5.1-.52.27-1.25.42-5.55.69-5.73.36-6.86.3-7.85-.34-.31-1.27-.42-1.99-.62-3.04-.53.77-1.53,2.23-2.24,3.37-1.77.35-3.37.59-5.55.8-1,.1-2.91-.25-2.91-.25,0,0-2.04,2.52-4.02,3.54-.66.34-1.45.49-2.21.49.01.14.03.28.04.4-.32,3.79-.59,9.49-.08,16.41.66,8.92,1.04,13.47,4,17.52,4.38,6.01,11.31,7.66,14.92,8.53,3.16.75,11.84,2.82,20.16-2,5.64-3.27,8.3-8.07,9.6-10.43,1.67-3.03,2.41-5.56,2.9-9.19,2.07-.17,5.75-.56,7.26-3.43,1.23-2.35,1.34-9.1-1.43-9.86-3.06-.83-4.59,3.36-4.62,2.38-.09-2.93-1.02-6.34-2.16-9.7Z"/>
    <path class="st2" d="M49.35,55.23c.23,1.21-.31,2.76-1.5,3.4-.35.2-.5.35-.63.6-.27.59,0,1.02.49,1.43.58.53,1.3.55,1.98.82.23.07.17.43-.06.44-1.83.34-4.31-1.05-3.31-3.14.4-.88,1.32-.94,1.85-1.58.44-.49.64-1.21.73-1.97.02-.26.42-.26.44,0h0Z"/>
    <path class="st2" d="M66.8,44.48c-1.8-2.03-4.86-2-7.21-1.58,0-.1,0-.01-.04.18-.03.12-.15.19-.27.16s-.19-.15-.16-.27c0,.02-.09-.09.01-.35,2.35-1.7,6.65-1.14,8.04,1.6.11.23-.21.44-.37.25h0Z"/>
    <path class="st2" d="M41.61,43.58c-2.5-.52-5.23-.05-7.09,1.78-.08.09-.23.1-.32.01-.07-.07-.09-.17-.05-.26.3-.68.88-1.2,1.45-1.6,1.74-1.31,4.3-1.33,6.15-.36.23.11.11.47-.14.42h0Z"/>
    <ellipse class="st2" cx="39.06" cy="52.46" rx="2.17" ry="1.3" transform="translate(-14.49 90) rotate(-88.36)"/>
    <ellipse class="st2" cx="62.68" cy="51.61" rx="2.17" ry="1.3" transform="translate(9.3 112.79) rotate(-88.36)"/>
    <path class="st2" d="M45.02,69.77c3.4,2.28,8,2.05,11.18-.57.2-.17.49.13.3.32-2.93,3.29-8.51,3.55-11.75.6-.2-.17.05-.5.27-.35h0Z"/>
    <path class="st2" d="M25.57,41.6c.6,1.34.32,2.6.29,3.89-.06,1.28-.1,2.56-.11,3.85-.06,5.13.33,10.29.83,15.39.29,2.54.66,5.07,1.59,7.36,3.93,9.4,16.4,12.44,25.71,12.36,10.52-.29,18.91-8.42,21.74-18.2.67-2.44.94-5.01,1.21-7.57.13-2.24.63-5.47.55-7.69-.03-5.14-1.31-10.28-3.51-14.89-.05-.11,0-.24.1-.29.11-.05.24,0,.29.1,2.35,4.7,3.69,9.83,3.82,15.07.12,2.26-.31,5.5-.42,7.78-.22,2.58-.45,5.18-1.1,7.75-2.87,10.31-11.62,18.82-22.62,19.23-2.64.16-5.3-.07-7.88-.58-5.13-1.04-10.41-2.55-14.46-6.07-4.27-3.44-6.07-8.92-6.48-14.19-.67-6.48-1.1-12.96-.79-19.47.09-1.3-.02-2.62.79-3.85.11-.16.37-.14.44.04h0Z"/>
    <path class="st0" d="M70.69,14.07c14.04,9.39,23.56,25.43,22.06,42.61,0,0-.44-.02-.44-.02.43-12.76-4.43-24.33-12.97-33.66-2.73-3.08-5.71-5.94-8.91-8.57,0,0,.26-.36.26-.36h0Z"/>
    <path class="st0" d="M50.21,12.62c-10.22.09-20.46,4.67-26.38,13.11-2.97,4.15-4.83,9.01-6.53,13.82-1.77,4.82-3.07,9.79-3.78,14.88-1.03,6.78-1.04,13.69-.36,20.51.01.12-.07.22-.19.23-.11.01-.21-.07-.23-.18-1.13-6.82-1.28-13.83-.41-20.73.87-6.9,2.93-13.61,5.57-20.02,2.55-6.47,6.55-12.67,12.5-16.5,5.83-3.91,12.91-5.79,19.84-5.54.12,0,.21.1.21.22,0,.11-.1.2-.21.21h0Z"/>
  </g>
</svg>