<?xml version="1.0" encoding="UTF-8"?>
<svg id="_レイヤー_1" xmlns="http://www.w3.org/2000/svg" version="1.1" viewBox="0 0 100 100">
  <!-- Generator: Adobe Illustrator 30.0.0, SVG Export Plug-In . SVG Version: 2.1.1 Build 123)  -->
  <defs>
    <style>
      .st0 {
        fill: #1c1917;
      }

      .st1 {
        fill: #fff;
      }
    </style>
  </defs>
  <path class="st0" d="M54.07,17.68c-2.44-1.07-6.51-2.4-11.37-1.66-.35.05-1.12.18-2.21.47-4.73,1.27-10.12,4.23-13.9,7.61-9.24,8.29-11.13,21.23-11.37,23.09,0,0-1.92,6.56-2.71,24.05-.02.36-.06,1.48.33,2.86.77,2.72,2.78,4.87,5.06,5.81.43.18,2.32.95,3.11.19.46-.44.33-1.19.68-1.28.44-.11.88,1,1.52,1.59,1.61,1.49,10.36-.91,11.17-1.19,8.39,1.86,23.56,1.4,30.33-.14.88,1.31,3.33,2.2,5.52,2.32,1.66.09,2.37-.68,4.55-.68,1.77,0,2.36.5,3.74.73,2.75.46,6.35-.54,8.09-2.55.74-.86,1.61-1.61,1.75-3.2.34-3.88-.72-6.38-.98-8.7-.46-4.02.69-5.75.85-9.57.14-3.34.4-12.27-4.47-21.61-3.64-6.98-8.29-11.28-10.45-13.02-3.44-2.76-7.27-5.35-12.36-5.61-2.76-.14-3.11-.19-6.88.5Z"/>
  <g>
    <path class="st1" d="M58.37,34.77s0-.02,0-.02c0,0,0,.01,0,.02Z"/>
    <path class="st1" d="M71.88,45.79c-.19-.63-.91-2.03-1.12-2.36-4.46-7.2-5.4-13.12-7.57-15.97-.16,1.45-.41,2.68-.59,3.49-.14.61-1.77,5.63-4.3,8.95-.11.15-.88.31-1.43,0,.08-.78,1.31-2.31,1.36-4.38-.62.8-2.6,3.35-3.69,4.43-.47.23-1.12.33-4.97.45-5.12.15-6.13.07-6.99-.54-.24-1.14-.32-1.79-.46-2.73-.5.67-1.43,1.95-2.1,2.94-1.59.26-3.02.42-4.97.54-.9.06-2.59-.31-2.59-.31h0s-1.89,2.19-3.69,3.03c-.6.28-1.31.4-1.99.37,0,.13.02.25.03.36-.4,3.37-.81,8.45-.57,14.63.32,7.98.53,12.04,3.04,15.75,3.72,5.49,9.86,7.18,13.05,8.05,2.8.77,10.48,2.87,18.04-1.18,5.13-2.75,7.64-6.95,8.87-9.02,1.58-2.65,2.31-4.88,2.86-8.11,1.85-.09,5.15-.33,6.57-2.84,1.17-2.06,1.47-8.08-.98-8.83-2.7-.83-4.19,2.86-4.19,1.99,0-2.61-.72-5.69-1.63-8.72Z"/>
  </g>
  <path class="st0" d="M46.51,57.2c-.02.65-.17,1.35-.61,1.82-.05.06-.11.11-.16.16-.07.06-.08.07-.03.02-.03.02-.06.05-.1.07-.03.02-.27.16-.12.08-.12.06-.24.12-.36.19-.36.21-.69.52-.87.9-.33.71-.06,1.39.48,1.89.28.26.63.48,1,.6.46.14.95.18,1.42.28s1.15-.07,1.55-.34c.11-.08.29-.21.26-.37s-.26-.2-.39-.23c-.24-.05-.48-.1-.71-.14-.1-.02-.21-.04-.31-.05-.16-.01.08.05-.08-.02-.3-.13-.55-.3-.78-.53-.45-.47-.5-1.07-.1-1.58.13-.16-.08.06.08-.07.15-.12-.1.04.08-.04.22-.11.44-.23.63-.38.32-.24.59-.5.81-.84.37-.56.48-1.24.5-1.91.02-.48-2.17-.23-2.2.48h0Z"/>
  <path class="st0" d="M64.87,47.36c-.9-1.4-2.48-2.16-4.09-2.37-.86-.11-1.71-.09-2.57.04-.34.05-.67.13-.99.23-.35.11-.7.21-.96.48-.21.21-.25.41-.28.68-.14,1.12,2.08.92,2.21-.06.01-.08,0-.15.03-.23l-.21.39.05-.05-.44.3s.27-.1.09-.05.05-.01.08-.02c.13-.04.26-.07.39-.1s.27-.05.41-.07c.22-.04-.15,0,0,0,.07,0,.14-.01.21-.02.29-.02.58-.02.87-.01.2,0-.1-.02.03,0,.07.01.15.01.22.02.15.02.29.04.44.07.06.01.12.02.17.04.02,0,.3.08.09.02.14.04.28.09.42.14s.27.11.4.17c.05.02.1.05.16.08.24.12-.07-.05.06.03.55.34.86.64,1.19,1.16.53.83,2.64.08,2.03-.87h0Z"/>
  <path class="st0" d="M42.02,45.61c-1.43-.51-2.96-.67-4.45-.33s-2.99,1.06-3.86,2.27c-.29.4.21.63.56.65.47.02,1.16-.11,1.46-.52s.64-.66.99-.86c.13-.08.26-.15.4-.21.16-.08,0-.01.18-.08.14-.05.28-.11.43-.15-.2.06.15-.03.19-.04.05-.01.11-.02.16-.03-.12.02-.11.02.03,0,.14-.01.29-.03.43-.03-.17,0,.16,0,.16,0,.14,0,.29.02.43.04.43.05,1.03.23,1.51.4s1.18-.04,1.55-.34.25-.61-.17-.76h0Z"/>
  <ellipse class="st0" cx="38.72" cy="54.18" rx="2.76" ry="1.66" transform="translate(-17.77 89.45) rotate(-86.43)"/>
  <ellipse class="st0" cx="59.8" cy="54.13" rx="2.76" ry="1.66" transform="translate(2.05 110.45) rotate(-86.43)"/>
  <path class="st0" d="M42.51,70.54c3.5,2.86,8.66,2.52,12-.4.39-.34.19-.9-.24-1.08-.54-.23-1.14-.02-1.55.34-.13.11.21-.16.04-.04-.04.03-.08.07-.13.1-.12.09-.23.18-.35.27-.29.2-.61.4-.82.5-.91.45-1.84.7-2.86.71-1.62.02-3.16-.61-4.36-1.59-.76-.62-2.7.4-1.73,1.19h0Z"/>
  <path class="st0" d="M61.4,81.57c4.79-2.75,8.57-7.42,10.55-12.57.99-2.58,1.37-5.35,1.72-8.08.5-3.98.94-7.89.38-11.89-.4-2.9-1.15-6.24-2.59-8.86-.4-.73-2.53-.08-2.04.81,1.11,2.02,1.75,4.7,2.17,6.93.76,3.97.52,7.8.05,11.78-.31,2.67-.61,5.38-1.38,7.96-.63,2.12-1.67,4.05-2.86,5.9-1.89,2.94-4.31,5.39-7.35,7.14-.4.23-.57.64-.2.97s1.18.12,1.55-.1h0Z"/>
  <path class="st0" d="M25.72,44.13c-.53,4.51-.73,9.06-.61,13.61.11,4.23.06,8.75,1.21,12.87,2.03,7.31,8.92,10.8,15.72,12.63,4.88,1.31,9.95,1.67,14.85.24.37-.11,1.07-.38.96-.89-.1-.48-.89-.51-1.24-.4-4.27,1.24-8.64,1-12.9-.12-2.98-.79-5.93-1.71-8.55-3.37-3.06-1.94-5.53-4.8-6.57-8.31-1.09-3.67-1.07-7.66-1.22-11.45-.2-4.98-.03-9.96.55-14.92.12-1-2.1-.72-2.19.12h0Z"/>
</svg>